<svg width="71" height="71" viewBox="0 0 71 71" fill="none" xmlns="http://www.w3.org/2000/svg">
    <path fill-rule="evenodd" clip-rule="evenodd" d="M70.792 10.553C70.792 5.03013 66.3148 0.552978 60.792 0.552978L45.792 0.552976L10.792 0.552973C5.26915 0.552973 0.791998 5.03012 0.791997 10.553L0.791996 25.553C0.791996 31.0758 5.26915 35.553 10.792 35.553L35.792 35.553L35.792 60.553C35.792 66.0758 40.2691 70.553 45.792 70.553L60.792 70.553C66.3148 70.553 70.792 66.0758 70.792 60.553L70.792 25.553L70.792 10.553Z" fill="#2562B7"/>
    <rect width="2.8" height="49.7" rx="1.4" transform="matrix(-1 8.74228e-08 8.74228e-08 1 66.5918 7.55273)" fill="#5F97E6"/>
    <rect width="2.8" height="2.8" rx="1.4" transform="matrix(-1 8.74228e-08 8.74228e-08 1 66.5918 60.7529)" fill="#5F97E6"/>
</svg>
