<svg width="71" height="71" viewBox="0 0 71 71" fill="none" xmlns="http://www.w3.org/2000/svg">
<mask id="path-1-inside-1_774_8146" fill="white">
<path fill-rule="evenodd" clip-rule="evenodd" d="M60.4189 70.7715C65.9418 70.7715 70.4189 66.2943 70.4189 60.7715L70.4189 45.7715L70.4189 10.7715C70.4189 5.24863 65.9418 0.771482 60.4189 0.771482L45.4189 0.771482C39.8961 0.771483 35.4189 5.24863 35.4189 10.7715L35.4189 35.7715L10.4189 35.7715C4.8961 35.7715 0.418944 40.2486 0.418944 45.7715L0.418945 60.7715C0.418945 66.2943 4.8961 70.7715 10.4189 70.7715L45.4189 70.7715L60.4189 70.7715Z"/>
</mask>
<path d="M70.4189 45.7715L69.9189 45.7715L70.4189 45.7715ZM70.4189 10.7715L70.9189 10.7715L70.4189 10.7715ZM60.4189 0.771482L60.4189 0.271482L60.4189 0.771482ZM45.4189 0.771482L45.4189 1.27148L45.4189 0.771482ZM35.4189 10.7715L35.9189 10.7715L35.4189 10.7715ZM35.4189 35.7715L35.4189 36.2715L35.9189 36.2715L35.9189 35.7715L35.4189 35.7715ZM10.4189 35.7715L10.4189 36.2715L10.4189 35.7715ZM10.4189 70.7715L10.4189 71.2715L10.4189 70.7715ZM45.4189 70.7715L45.4189 70.2715L45.4189 70.7715ZM69.9189 60.7715C69.9189 61.0861 69.9037 61.3971 69.8738 61.7036L70.8691 61.8005C70.9021 61.4618 70.9189 61.1185 70.9189 60.7715L69.9189 60.7715ZM69.5123 63.5303C69.3303 64.1309 69.0905 64.7063 68.7992 65.2502L69.6807 65.7224C70.0028 65.121 70.2681 64.4846 70.4693 63.8203L69.5123 63.5303ZM67.763 66.7981C67.3679 67.279 66.9265 67.7204 66.4456 68.1156L67.0804 68.8882C67.6116 68.4517 68.0992 67.9641 68.5357 67.4329L67.763 66.7981ZM64.8977 69.1517C64.3538 69.443 63.7783 69.6829 63.1778 69.8648L63.4678 70.8219C64.1321 70.6206 64.7685 70.3553 65.3698 70.0332L64.8977 69.1517ZM61.3511 70.2264C61.0445 70.2562 60.7336 70.2715 60.4189 70.2715L60.4189 71.2715C60.766 71.2715 61.1092 71.2546 61.4479 71.2217L61.3511 70.2264ZM60.4189 70.2715L59.4814 70.2715L59.4814 71.2715L60.4189 71.2715L60.4189 70.2715ZM57.6064 70.2715L55.7314 70.2715L55.7314 71.2715L57.6064 71.2715L57.6064 70.2715ZM53.8564 70.2715L51.9814 70.2715L51.9814 71.2715L53.8564 71.2715L53.8564 70.2715ZM50.1064 70.2715L48.2314 70.2715L48.2314 71.2715L50.1064 71.2715L50.1064 70.2715ZM46.3564 70.2715L45.4189 70.2715L45.4189 71.2715L46.3564 71.2715L46.3564 70.2715ZM45.4189 70.2715L44.4467 70.2715L44.4467 71.2715L45.4189 71.2715L45.4189 70.2715ZM42.5023 70.2715L40.5578 70.2715L40.5578 71.2715L42.5023 71.2715L42.5023 70.2715ZM38.6134 70.2715L36.6689 70.2715L36.6689 71.2715L38.6134 71.2715L38.6134 70.2715ZM34.7245 70.2715L32.7801 70.2715L32.7801 71.2715L34.7245 71.2715L34.7245 70.2715ZM30.8356 70.2715L28.8912 70.2715L28.8912 71.2715L30.8356 71.2715L30.8356 70.2715ZM26.9467 70.2715L25.0023 70.2715L25.0023 71.2715L26.9467 71.2715L26.9467 70.2715ZM23.0578 70.2715L21.1134 70.2715L21.1134 71.2715L23.0578 71.2715L23.0578 70.2715ZM19.1689 70.2715L17.2245 70.2715L17.2245 71.2715L19.1689 71.2715L19.1689 70.2715ZM15.2801 70.2715L13.3356 70.2715L13.3356 71.2715L15.2801 71.2715L15.2801 70.2715ZM11.3912 70.2715L10.4189 70.2715L10.4189 71.2715L11.3912 71.2715L11.3912 70.2715ZM10.4189 70.2715C10.1043 70.2715 9.79336 70.2562 9.48683 70.2264L9.38996 71.2217C9.72864 71.2546 10.0719 71.2715 10.4189 71.2715L10.4189 70.2715ZM7.66009 69.8648C7.05956 69.6829 6.48411 69.443 5.94022 69.1517L5.46806 70.0332C6.06938 70.3553 6.7058 70.6206 7.37014 70.8219L7.66009 69.8648ZM4.39233 68.1156C3.91142 67.7204 3.46999 67.279 3.07487 66.7981L2.30222 67.4329C2.73868 67.9642 3.22628 68.4517 3.7575 68.8882L4.39233 68.1156ZM2.03871 65.2502C1.7474 64.7063 1.50754 64.1309 1.3256 63.5303L0.368557 63.8203C0.56983 64.4846 0.835121 65.121 1.1572 65.7224L2.03871 65.2502ZM0.964057 61.7036C0.934225 61.3971 0.918945 61.0861 0.918945 60.7715L-0.0810551 60.7715C-0.0810551 61.1185 -0.064201 61.4618 -0.0312407 61.8005L0.964057 61.7036ZM0.918945 60.7715L0.918945 59.834L-0.0810552 59.834L-0.0810551 60.7715L0.918945 60.7715ZM0.918945 57.959L0.918945 56.084L-0.0810553 56.084L-0.0810552 57.959L0.918945 57.959ZM0.918945 54.209L0.918945 52.334L-0.0810555 52.334L-0.0810554 54.209L0.918945 54.209ZM0.918944 50.459L0.918944 48.584L-0.0810557 48.584L-0.0810556 50.459L0.918944 50.459ZM0.918944 46.709L0.918944 45.7715L-0.0810558 45.7715L-0.0810557 46.709L0.918944 46.709ZM0.918944 45.7715C0.918944 45.4568 0.934224 45.1459 0.964056 44.8394L-0.0312414 44.7425C-0.0642017 45.0812 -0.0810558 45.4244 -0.0810558 45.7715L0.918944 45.7715ZM1.3256 43.0126C1.50754 42.4121 1.74739 41.8366 2.03871 41.2928L1.1572 40.8206C0.835121 41.4219 0.56983 42.0583 0.368556 42.7227L1.3256 43.0126ZM3.07487 39.7449C3.46999 39.264 3.91142 38.8225 4.39233 38.4274L3.7575 37.6548C3.22627 38.0912 2.73868 38.5788 2.30222 39.11L3.07487 39.7449ZM5.94022 37.3913C6.48411 37.0999 7.05956 36.8601 7.66009 36.6781L7.37014 35.7211C6.7058 35.9224 6.06938 36.1877 5.46806 36.5097L5.94022 37.3913ZM9.48682 36.3166C9.79336 36.2868 10.1043 36.2715 10.4189 36.2715L10.4189 35.2715C10.0719 35.2715 9.72864 35.2883 9.38996 35.3213L9.48682 36.3166ZM10.4189 36.2715L11.4606 36.2715L11.4606 35.2715L10.4189 35.2715L10.4189 36.2715ZM13.5439 36.2715L15.6273 36.2715L15.6273 35.2715L13.5439 35.2715L13.5439 36.2715ZM17.7106 36.2715L19.7939 36.2715L19.7939 35.2715L17.7106 35.2715L17.7106 36.2715ZM21.8773 36.2715L23.9606 36.2715L23.9606 35.2715L21.8773 35.2715L21.8773 36.2715ZM26.0439 36.2715L28.1273 36.2715L28.1273 35.2715L26.0439 35.2715L26.0439 36.2715ZM30.2106 36.2715L32.2939 36.2715L32.2939 35.2715L30.2106 35.2715L30.2106 36.2715ZM34.3773 36.2715L35.4189 36.2715L35.4189 35.2715L34.3773 35.2715L34.3773 36.2715ZM35.9189 35.7715L35.9189 34.7298L34.9189 34.7298L34.9189 35.7715L35.9189 35.7715ZM35.9189 32.6465L35.9189 30.5631L34.9189 30.5631L34.9189 32.6465L35.9189 32.6465ZM35.9189 28.4798L35.9189 26.3965L34.9189 26.3965L34.9189 28.4798L35.9189 28.4798ZM35.9189 24.3131L35.9189 22.2298L34.9189 22.2298L34.9189 24.3131L35.9189 24.3131ZM35.9189 20.1465L35.9189 18.0631L34.9189 18.0631L34.9189 20.1465L35.9189 20.1465ZM35.9189 15.9798L35.9189 13.8965L34.9189 13.8965L34.9189 15.9798L35.9189 15.9798ZM35.9189 11.8131L35.9189 10.7715L34.9189 10.7715L34.9189 11.8131L35.9189 11.8131ZM35.9189 10.7715C35.9189 10.4568 35.9342 10.1459 35.9641 9.83936L34.9688 9.7425C34.9358 10.0812 34.9189 10.4244 34.9189 10.7715L35.9189 10.7715ZM36.3256 8.01263C36.5075 7.41209 36.7474 6.83664 37.0387 6.29275L36.1572 5.8206C35.8351 6.42191 35.5698 7.05834 35.3686 7.72267L36.3256 8.01263ZM38.0749 4.74486C38.47 4.26396 38.9114 3.82252 39.3923 3.4274L38.7575 2.65475C38.2263 3.09122 37.7387 3.57881 37.3022 4.11004L38.0749 4.74486ZM40.9402 2.39125C41.4841 2.09993 42.0596 1.86008 42.6601 1.67813L42.3701 0.72109C41.7058 0.922369 41.0694 1.18766 40.4681 1.50973L40.9402 2.39125ZM44.4868 1.3166C44.7934 1.28676 45.1043 1.27148 45.4189 1.27148L45.4189 0.271482C45.0719 0.271482 44.7286 0.288336 44.39 0.321295L44.4868 1.3166ZM45.4189 1.27148L46.3564 1.27148L46.3564 0.271482L45.4189 0.271482L45.4189 1.27148ZM48.2314 1.27148L50.1064 1.27148L50.1064 0.271482L48.2314 0.271482L48.2314 1.27148ZM51.9814 1.27148L53.8564 1.27148L53.8564 0.271482L51.9814 0.271482L51.9814 1.27148ZM55.7314 1.27148L57.6064 1.27148L57.6064 0.271482L55.7314 0.271482L55.7314 1.27148ZM59.4814 1.27148L60.4189 1.27148L60.4189 0.271482L59.4814 0.271482L59.4814 1.27148ZM60.4189 1.27148C60.7336 1.27148 61.0445 1.28676 61.3511 1.31659L61.4479 0.321294C61.1092 0.288335 60.766 0.271482 60.4189 0.271482L60.4189 1.27148ZM63.1778 1.67813C63.7783 1.86007 64.3538 2.09993 64.8977 2.39125L65.3698 1.50973C64.7685 1.18766 64.1321 0.92236 63.4678 0.721089L63.1778 1.67813ZM66.4456 3.4274C66.9265 3.82252 67.3679 4.26396 67.763 4.74486L68.5357 4.11004C68.0992 3.57881 67.6116 3.09121 67.0804 2.65475L66.4456 3.4274ZM68.7992 6.29275C69.0905 6.83664 69.3303 7.41209 69.5123 8.01262L70.4693 7.72267C70.2681 7.05834 70.0028 6.42191 69.6807 5.82059L68.7992 6.29275ZM69.8738 9.83936C69.9037 10.1459 69.9189 10.4568 69.9189 10.7715L70.9189 10.7715C70.9189 10.4244 70.9021 10.0812 70.8691 9.7425L69.8738 9.83936ZM69.9189 10.7715L69.9189 11.7437L70.9189 11.7437L70.9189 10.7715L69.9189 10.7715ZM69.9189 13.6881L69.9189 15.6326L70.9189 15.6326L70.9189 13.6881L69.9189 13.6881ZM69.9189 17.577L69.9189 19.5215L70.9189 19.5215L70.9189 17.577L69.9189 17.577ZM69.9189 21.4659L69.9189 23.4104L70.9189 23.4104L70.9189 21.4659L69.9189 21.4659ZM69.9189 25.3548L69.9189 27.2993L70.9189 27.2993L70.9189 25.3548L69.9189 25.3548ZM69.9189 29.2437L69.9189 31.1881L70.9189 31.1881L70.9189 29.2437L69.9189 29.2437ZM69.9189 33.1326L69.9189 35.077L70.9189 35.077L70.9189 33.1326L69.9189 33.1326ZM69.9189 37.0215L69.9189 38.9659L70.9189 38.9659L70.9189 37.0215L69.9189 37.0215ZM69.9189 40.9104L69.9189 42.8548L70.9189 42.8548L70.9189 40.9104L69.9189 40.9104ZM69.9189 44.7993L69.9189 45.7715L70.9189 45.7715L70.9189 44.7993L69.9189 44.7993ZM69.9189 45.7715L69.9189 46.709L70.9189 46.709L70.9189 45.7715L69.9189 45.7715ZM69.9189 48.584L69.9189 50.459L70.9189 50.459L70.9189 48.584L69.9189 48.584ZM69.9189 52.334L69.9189 54.209L70.9189 54.209L70.9189 52.334L69.9189 52.334ZM69.9189 56.084L69.9189 57.959L70.9189 57.959L70.9189 56.084L69.9189 56.084ZM69.9189 59.834L69.9189 60.7715L70.9189 60.7715L70.9189 59.834L69.9189 59.834ZM70.4189 45.7715L69.4189 45.7715L70.4189 45.7715ZM70.4189 10.7715L71.4189 10.7715L70.4189 10.7715ZM60.4189 0.771482L60.4189 -0.228518L60.4189 0.771482ZM45.4189 0.771482L45.4189 1.77148L45.4189 0.771482ZM35.4189 10.7715L36.4189 10.7715L35.4189 10.7715ZM35.4189 35.7715L35.4189 36.7715L36.4189 36.7715L36.4189 35.7715L35.4189 35.7715ZM10.4189 35.7715L10.4189 36.7715L10.4189 35.7715ZM10.4189 70.7715L10.4189 71.7715L10.4189 70.7715ZM45.4189 70.7715L45.4189 69.7715L45.4189 70.7715ZM69.4189 60.7715C69.4189 61.0699 69.4044 61.3647 69.3762 61.6552L71.3668 61.8489C71.4013 61.4941 71.4189 61.1347 71.4189 60.7715L69.4189 60.7715ZM69.0338 63.3854C68.8615 63.954 68.6344 64.499 68.3584 65.0141L70.1215 65.9584C70.4589 65.3284 70.7369 64.6615 70.9479 63.9653L69.0338 63.3854ZM67.3767 66.4807C67.0022 66.9364 66.5839 67.3548 66.1282 67.7292L67.3978 69.2745C67.9542 68.8174 68.4649 68.3067 68.922 67.7503L67.3767 66.4807ZM64.6616 68.711C64.1464 68.9869 63.6015 69.214 63.0328 69.3863L63.6127 71.3004C64.309 71.0894 64.9759 70.8114 65.6059 70.474L64.6616 68.711ZM61.3026 69.7287C61.0122 69.757 60.7174 69.7715 60.4189 69.7715L60.4189 71.7715C60.7822 71.7715 61.1416 71.7538 61.4964 71.7193L61.3026 69.7287ZM60.4189 69.7715L59.4814 69.7715L59.4814 71.7715L60.4189 71.7715L60.4189 69.7715ZM57.6064 69.7715L55.7314 69.7715L55.7314 71.7715L57.6064 71.7715L57.6064 69.7715ZM53.8564 69.7715L51.9814 69.7715L51.9814 71.7715L53.8564 71.7715L53.8564 69.7715ZM50.1064 69.7715L48.2314 69.7715L48.2314 71.7715L50.1064 71.7715L50.1064 69.7715ZM46.3564 69.7715L45.4189 69.7715L45.4189 71.7715L46.3564 71.7715L46.3564 69.7715ZM45.4189 69.7715L44.4467 69.7715L44.4467 71.7715L45.4189 71.7715L45.4189 69.7715ZM42.5023 69.7715L40.5578 69.7715L40.5578 71.7715L42.5023 71.7715L42.5023 69.7715ZM38.6134 69.7715L36.6689 69.7715L36.6689 71.7715L38.6134 71.7715L38.6134 69.7715ZM34.7245 69.7715L32.7801 69.7715L32.7801 71.7715L34.7245 71.7715L34.7245 69.7715ZM30.8356 69.7715L28.8912 69.7715L28.8912 71.7715L30.8356 71.7715L30.8356 69.7715ZM26.9467 69.7715L25.0023 69.7715L25.0023 71.7715L26.9467 71.7715L26.9467 69.7715ZM23.0578 69.7715L21.1134 69.7715L21.1134 71.7715L23.0578 71.7715L23.0578 69.7715ZM19.1689 69.7715L17.2245 69.7715L17.2245 71.7715L19.1689 71.7715L19.1689 69.7715ZM15.2801 69.7715L13.3356 69.7715L13.3356 71.7715L15.2801 71.7715L15.2801 69.7715ZM11.3912 69.7715L10.4189 69.7715L10.4189 71.7715L11.3912 71.7715L11.3912 69.7715ZM10.4189 69.7715C10.1205 69.7715 9.82572 69.757 9.53526 69.7287L9.34153 71.7193C9.69628 71.7538 10.0557 71.7715 10.4189 71.7715L10.4189 69.7715ZM7.80507 69.3863C7.23643 69.214 6.69147 68.9869 6.17629 68.711L5.23198 70.474C5.86201 70.8114 6.52893 71.0895 7.22516 71.3004L7.80507 69.3863ZM4.70974 67.7292C4.254 67.3548 3.83565 66.9364 3.4612 66.4807L1.91589 67.7503C2.37303 68.3067 2.8837 68.8174 3.44009 69.2745L4.70974 67.7292ZM2.47947 65.0141C2.20353 64.499 1.9764 63.954 1.80412 63.3854L-0.109963 63.9653C0.100975 64.6615 0.378984 65.3284 0.71644 65.9584L2.47947 65.0141ZM1.46171 61.6552C1.43344 61.3647 1.41894 61.0699 1.41894 60.7715L-0.581055 60.7715C-0.581055 61.1347 -0.563414 61.4941 -0.52889 61.8489L1.46171 61.6552ZM1.41894 60.7715L1.41894 59.834L-0.581055 59.834L-0.581055 60.7715L1.41894 60.7715ZM1.41894 57.959L1.41894 56.084L-0.581055 56.084L-0.581055 57.959L1.41894 57.959ZM1.41894 54.209L1.41894 52.334L-0.581055 52.334L-0.581055 54.209L1.41894 54.209ZM1.41894 50.459L1.41894 48.584L-0.581056 48.584L-0.581056 50.459L1.41894 50.459ZM1.41894 46.709L1.41894 45.7715L-0.581056 45.7715L-0.581056 46.709L1.41894 46.709ZM1.41894 45.7715C1.41894 45.473 1.43344 45.1783 1.46171 44.8878L-0.52889 44.6941C-0.563415 45.0488 -0.581056 45.4082 -0.581056 45.7715L1.41894 45.7715ZM1.80412 43.1576C1.9764 42.589 2.20353 42.044 2.47947 41.5288L0.716439 40.5845C0.378984 41.2146 0.100974 41.8815 -0.109964 42.5777L1.80412 43.1576ZM3.4612 40.0623C3.83565 39.6065 4.254 39.1882 4.70974 38.8137L3.44009 37.2684C2.8837 37.7256 2.37303 38.2362 1.91589 38.7926L3.4612 40.0623ZM6.17629 37.832C6.69147 37.5561 7.23643 37.3289 7.80507 37.1567L7.22516 35.2426C6.52893 35.4535 5.86201 35.7315 5.23198 36.069L6.17629 37.832ZM9.53526 36.8142C9.82572 36.786 10.1205 36.7715 10.4189 36.7715L10.4189 34.7715C10.0557 34.7715 9.69628 34.7891 9.34153 34.8236L9.53526 36.8142ZM10.4189 36.7715L11.4606 36.7715L11.4606 34.7715L10.4189 34.7715L10.4189 36.7715ZM13.5439 36.7715L15.6273 36.7715L15.6273 34.7715L13.5439 34.7715L13.5439 36.7715ZM17.7106 36.7715L19.7939 36.7715L19.7939 34.7715L17.7106 34.7715L17.7106 36.7715ZM21.8773 36.7715L23.9606 36.7715L23.9606 34.7715L21.8773 34.7715L21.8773 36.7715ZM26.0439 36.7715L28.1273 36.7715L28.1273 34.7715L26.0439 34.7715L26.0439 36.7715ZM30.2106 36.7715L32.2939 36.7715L32.2939 34.7715L30.2106 34.7715L30.2106 36.7715ZM34.3773 36.7715L35.4189 36.7715L35.4189 34.7715L34.3773 34.7715L34.3773 36.7715ZM36.4189 35.7715L36.4189 34.7298L34.4189 34.7298L34.4189 35.7715L36.4189 35.7715ZM36.4189 32.6465L36.4189 30.5631L34.4189 30.5631L34.4189 32.6465L36.4189 32.6465ZM36.4189 28.4798L36.4189 26.3965L34.4189 26.3965L34.4189 28.4798L36.4189 28.4798ZM36.4189 24.3131L36.4189 22.2298L34.4189 22.2298L34.4189 24.3131L36.4189 24.3131ZM36.4189 20.1465L36.4189 18.0631L34.4189 18.0631L34.4189 20.1465L36.4189 20.1465ZM36.4189 15.9798L36.4189 13.8965L34.4189 13.8965L34.4189 15.9798L36.4189 15.9798ZM36.4189 11.8131L36.4189 10.7715L34.4189 10.7715L34.4189 11.8131L36.4189 11.8131ZM36.4189 10.7715C36.4189 10.473 36.4334 10.1783 36.4617 9.88779L34.4711 9.69407C34.4366 10.0488 34.4189 10.4082 34.4189 10.7715L36.4189 10.7715ZM36.8041 8.15761C36.9764 7.58897 37.2035 7.04401 37.4795 6.52883L35.7164 5.58452C35.379 6.21455 35.101 6.88146 34.89 7.57769L36.8041 8.15761ZM38.4612 5.06228C38.8356 4.60654 39.254 4.18818 39.7097 3.81373L38.4401 2.26842C37.8837 2.72556 37.373 3.23623 36.9159 3.79262L38.4612 5.06228ZM41.1763 2.83201C41.6915 2.55607 42.2364 2.32893 42.8051 2.15665L42.2252 0.242575C41.5289 0.453512 40.862 0.73152 40.232 1.06898L41.1763 2.83201ZM44.5353 1.81424C44.8257 1.78597 45.1205 1.77148 45.4189 1.77148L45.4189 -0.228518C45.0557 -0.228518 44.6963 -0.210878 44.3415 -0.176355L44.5353 1.81424ZM45.4189 1.77148L46.3564 1.77148L46.3564 -0.228518L45.4189 -0.228518L45.4189 1.77148ZM48.2314 1.77148L50.1064 1.77148L50.1064 -0.228518L48.2314 -0.228518L48.2314 1.77148ZM51.9814 1.77148L53.8564 1.77148L53.8564 -0.228518L51.9814 -0.228518L51.9814 1.77148ZM55.7314 1.77148L57.6064 1.77148L57.6064 -0.228518L55.7314 -0.228518L55.7314 1.77148ZM59.4814 1.77148L60.4189 1.77148L60.4189 -0.228518L59.4814 -0.228518L59.4814 1.77148ZM60.4189 1.77148C60.7174 1.77148 61.0122 1.78597 61.3026 1.81424L61.4964 -0.176356C61.1416 -0.210879 60.7822 -0.228518 60.4189 -0.228518L60.4189 1.77148ZM63.0328 2.15665C63.6015 2.32893 64.1464 2.55607 64.6616 2.83201L65.6059 1.06897C64.9759 0.731519 64.309 0.453511 63.6127 0.242574L63.0328 2.15665ZM66.1281 3.81373C66.5839 4.18818 67.0022 4.60653 67.3767 5.06228L68.922 3.79262C68.4649 3.23623 67.9542 2.72556 67.3978 2.26842L66.1281 3.81373ZM68.3584 6.52883C68.6344 7.044 68.8615 7.58897 69.0338 8.15761L70.9479 7.57769C70.7369 6.88146 70.4589 6.21455 70.1214 5.58452L68.3584 6.52883ZM69.3762 9.88779C69.4044 10.1783 69.4189 10.473 69.4189 10.7715L71.4189 10.7715C71.4189 10.4082 71.4013 10.0488 71.3668 9.69407L69.3762 9.88779ZM69.4189 10.7715L69.4189 11.7437L71.4189 11.7437L71.4189 10.7715L69.4189 10.7715ZM69.4189 13.6881L69.4189 15.6326L71.4189 15.6326L71.4189 13.6881L69.4189 13.6881ZM69.4189 17.577L69.4189 19.5215L71.4189 19.5215L71.4189 17.577L69.4189 17.577ZM69.4189 21.4659L69.4189 23.4104L71.4189 23.4104L71.4189 21.4659L69.4189 21.4659ZM69.4189 25.3548L69.4189 27.2993L71.4189 27.2993L71.4189 25.3548L69.4189 25.3548ZM69.4189 29.2437L69.4189 31.1881L71.4189 31.1881L71.4189 29.2437L69.4189 29.2437ZM69.4189 33.1326L69.4189 35.077L71.4189 35.077L71.4189 33.1326L69.4189 33.1326ZM69.4189 37.0215L69.4189 38.9659L71.4189 38.9659L71.4189 37.0215L69.4189 37.0215ZM69.4189 40.9104L69.4189 42.8548L71.4189 42.8548L71.4189 40.9104L69.4189 40.9104ZM69.4189 44.7993L69.4189 45.7715L71.4189 45.7715L71.4189 44.7993L69.4189 44.7993ZM69.4189 45.7715L69.4189 46.709L71.4189 46.709L71.4189 45.7715L69.4189 45.7715ZM69.4189 48.584L69.4189 50.459L71.4189 50.459L71.4189 48.584L69.4189 48.584ZM69.4189 52.334L69.4189 54.209L71.4189 54.209L71.4189 52.334L69.4189 52.334ZM69.4189 56.084L69.4189 57.959L71.4189 57.959L71.4189 56.084L69.4189 56.084ZM69.4189 59.834L69.4189 60.7715L71.4189 60.7715L71.4189 59.834L69.4189 59.834Z" fill="#003399" mask="url(#path-1-inside-1_774_8146)"/>
</svg>
