<svg width="76" height="65" viewBox="0 0 76 65" fill="none" xmlns="http://www.w3.org/2000/svg">
    <path d="M19.7393 32.2689L20.4214 33.1823C20.5291 33.3265 20.7391 33.357 20.8833 33.2492L18.0789 35.3434C9.56172 41.7038 10.3948 51.7775 10.3948 51.7775C10.3948 51.7775 19.8253 55.4311 28.3345 49.0767L31.1388 46.9825C30.9946 47.0902 30.9642 47.3002 31.0719 47.4444L31.754 48.3578C31.8617 48.502 32.0716 48.5325 32.2158 48.4248L35.557 45.9297C35.7012 45.822 35.7317 45.6121 35.624 45.4678L34.9419 44.5544C34.8342 44.4102 34.6242 44.3798 34.48 44.4875L55.4565 28.8229C55.3123 28.9306 55.2819 29.1406 55.3896 29.2848L56.0717 30.1982C56.1794 30.3424 56.3893 30.3729 56.5335 30.2652L59.8747 27.7701C60.0189 27.6624 60.0494 27.4525 59.9417 27.3082L59.2596 26.3948C59.1519 26.2506 58.9419 26.2202 58.7977 26.3279L66.3534 20.6855C70.1433 17.8554 70.9224 12.481 68.0923 8.6911C65.2621 4.90122 59.8878 4.12207 56.0979 6.95222L48.5422 12.5946C48.6864 12.4869 48.7168 12.2769 48.6091 12.1327L47.927 11.2193C47.8193 11.0751 47.6094 11.0446 47.4651 11.1523L44.124 13.6474C43.9797 13.7551 43.9493 13.965 44.057 14.1093L44.7391 15.0227C44.8468 15.1669 45.0568 15.1973 45.201 15.0896L24.2325 30.7482C24.3767 30.6405 24.4071 30.4306 24.2994 30.2863L23.6173 29.3729C23.5096 29.2287 23.2997 29.1983 23.1555 29.306L19.8143 31.801C19.662 31.9147 19.6316 32.1247 19.7393 32.2689Z" fill="#0E657A"/>
    <path d="M27.6197 41.0994C27.8591 41.4199 27.7921 41.8817 27.4716 42.1211C27.1511 42.3604 26.6893 42.2935 26.4499 41.973C26.2106 41.6525 26.2775 41.1906 26.598 40.9513C26.9266 40.7059 27.3804 40.7789 27.6197 41.0994ZM26.6583 41.8174C26.8138 42.0257 27.1137 42.0763 27.3301 41.9148C27.5384 41.7592 27.589 41.4593 27.4275 41.243C27.2719 41.0347 26.972 40.984 26.7556 41.1456C26.5393 41.3071 26.5027 41.6091 26.6583 41.8174Z" fill="#0B1934"/>
    <path d="M15.1208 39.7373L53.1478 11.3401C56.9376 8.50999 62.312 9.28913 65.1422 13.079C67.9723 16.8689 67.1932 22.2433 63.4033 25.0734L25.3763 53.4706C16.8591 59.831 7.43668 56.1714 7.43668 56.1714C7.43668 56.1714 6.60358 46.0977 15.1208 39.7373Z" fill="#003399"/>
    <path d="M25.3763 53.4706L63.4033 25.0734C67.1932 22.2433 67.9723 16.8689 65.1422 13.079C62.312 9.28913 56.9376 8.50999 53.1478 11.3401L15.1208 39.7373C6.60358 46.0977 7.43668 56.1714 7.43668 56.1714C7.43668 56.1714 16.8591 59.831 25.3763 53.4706ZM15.4678 40.2021L53.4948 11.8049C57.0203 9.17216 62.0388 9.89257 64.6774 13.426C67.3101 16.9515 66.5897 21.97 63.0563 24.6087L25.0293 53.0059C17.7941 58.4089 9.76639 56.3163 7.99755 55.7526C7.9594 53.8965 8.21657 45.617 15.4678 40.2021Z" fill="black"/>
    <path d="M38.8862 25.8347C38.3357 25.0976 38.4879 24.0479 39.2251 23.4974C39.9622 22.9469 41.0119 23.0991 41.5624 23.8362L48.1261 32.6259C48.6766 33.363 48.5244 34.4127 47.7873 34.9632C47.0502 35.5136 46.0005 35.3615 45.45 34.6243L38.8862 25.8347Z" fill="white"/>
    <path d="M28.5065 47.5511L49.0584 32.2037L42.2373 23.0696L21.6855 38.417C19.1615 40.3017 18.6441 43.8707 20.5289 46.3946C22.4157 48.9045 25.9826 49.4359 28.5065 47.5511Z" fill="#CBE5ED"/>
    <path d="M29.0901 40.3763L23.217 44.7621C24.8112 46.6294 27.5985 46.9692 29.5856 45.4853L29.6577 45.4314L29.0901 40.3763Z" fill="#4F91D3"/>
    <path d="M29.579 40.0112L30.1465 45.0664L34.7296 41.6439L34.1541 36.5947L29.579 40.0112Z" fill="#4F91D3"/>
    <path d="M28.7305 39.8954L24.0446 37.9157L23.9725 37.9696C21.9774 39.4594 21.5117 42.2285 22.8574 44.2812L28.7305 39.8954Z" fill="#4F91D3"/>
    <path d="M29.2193 39.5306L33.7944 36.1141L29.1166 34.1284L24.5334 37.5509L29.2193 39.5306Z" fill="#4F91D3"/>
    <path d="M31.5391 44.0253L36.675 40.19L31.0626 32.6743L25.9267 36.5097C23.8514 38.0594 23.4253 40.9985 24.975 43.0737C26.5247 45.1489 29.4639 45.575 31.5391 44.0253Z" fill="white"/>
    <path d="M25.7528 36.1914C25.0049 35.1899 25.2039 33.7683 26.2134 33.0144L31.9744 28.7123C32.9759 27.9644 34.3975 28.1633 35.1514 29.1729L41.1946 37.2654C41.9426 38.267 41.7436 39.6886 40.734 40.4425L34.9731 44.7446C33.9716 45.4925 32.55 45.2935 31.7961 44.284L25.7528 36.1914Z" fill="#FFF9C5"/>
    <path d="M31.2093 38.4188C30.4913 37.4573 30.6901 36.0857 31.6516 35.3677L36.403 31.8196L39.0117 35.313L34.2604 38.8611C33.2989 39.5792 31.9273 39.3803 31.2093 38.4188Z" fill="white"/>
    <path d="M34.158 36.2167C33.5776 35.4395 33.7379 34.3338 34.5151 33.7535L36.406 32.3414L38.5062 35.1537L36.6153 36.5658C35.8381 37.1462 34.7384 36.9939 34.158 36.2167Z" fill="black"/>
    <path d="M38.3212 42.2432C38.1896 42.0669 38.2261 41.815 38.4024 41.6834L39.8686 40.5884C40.0449 40.4568 40.2968 40.4933 40.4285 40.6696C40.5601 40.8459 40.5236 41.0978 40.3473 41.2294L38.881 42.3244C38.7048 42.456 38.4528 42.4195 38.3212 42.2432Z" fill="#6181B2"/>
    <path d="M35.2685 44.523C35.1368 44.3467 35.1734 44.0948 35.3496 43.9632L36.8159 42.8682C36.9922 42.7366 37.2441 42.7731 37.3757 42.9494C37.5074 43.1256 37.4709 43.3776 37.2946 43.5092L35.8283 44.6042C35.652 44.7358 35.4001 44.6993 35.2685 44.523Z" fill="#6181B2"/>
    <path d="M29.5556 30.5049C29.424 30.3287 29.4605 30.0767 29.6367 29.9451L31.103 28.8501C31.2793 28.7185 31.5312 28.755 31.6629 28.9313C31.7945 29.1076 31.758 29.3595 31.5817 29.4911L30.1154 30.5861C29.9391 30.7177 29.6872 30.6812 29.5556 30.5049Z" fill="#6181B2"/>
    <path d="M26.5029 32.7847C26.3712 32.6085 26.4077 32.3565 26.584 32.2249L28.0503 31.1299C28.2266 30.9983 28.4785 31.0348 28.6101 31.2111C28.7418 31.3874 28.7052 31.6393 28.529 31.7709L27.0627 32.8659C26.8864 32.9975 26.6345 32.961 26.5029 32.7847Z" fill="#6181B2"/>
    <path d="M60.1276 24.6487L60.6602 25.3618L63.128 23.5189L62.5955 22.8058L60.1276 24.6487Z" fill="black"/>
    <path d="M52.0925 13.888L52.625 14.6011L55.0928 12.7582L54.5603 12.0451L52.0925 13.888Z" fill="black"/>
    <path d="M10.5783 46.0612L11.2559 46.5051L13.0425 43.7782L12.3649 43.3343L10.5783 46.0612Z" fill="black"/>
    <path d="M12.082 44.5097L12.8008 44.9819L13.0369 44.6226L12.3181 44.1504L12.082 44.5097Z" fill="#0B1934"/>
    <path d="M11.2774 45.6734L11.9961 46.1458L12.2323 45.7864L11.5136 45.314L11.2774 45.6734Z" fill="#0B1934"/>
    <path d="M17.8805 55.7972L21.0723 55.1335L20.9074 54.3405L17.7155 55.0042L17.8805 55.7972Z" fill="black"/>
    <path d="M18.4891 55.2674L18.9102 55.1802L18.7356 54.3381L18.3146 54.4253L18.4891 55.2674Z" fill="#0B1934"/>
    <path d="M19.8779 54.9928L20.2988 54.905L20.1234 54.0631L19.7024 54.1508L19.8779 54.9928Z" fill="#0B1934"/>
    <path d="M14.1677 51.1454C13.8446 50.7127 13.9398 50.1049 14.3645 49.7878C14.7971 49.4647 15.405 49.56 15.7221 49.9846C16.0452 50.4173 15.9579 51.0191 15.5253 51.3422C15.0926 51.6653 14.4848 51.5701 14.1677 51.1454Z" fill="#6181B2"/>
    <path d="M10.6096 53.216L11.166 53.9612L17.5199 49.2163L16.9634 48.4712L10.6096 53.216Z" fill="#4F91D3"/>
    <path d="M21.4855 48.3765L22.6523 49.939L21.0898 51.1057L19.9231 49.5433L21.4855 48.3765ZM22.3024 49.8882L21.4348 48.7264L20.281 49.588L21.1486 50.7498L22.3024 49.8882Z" fill="#0B1934"/>
    <path d="M21.3558 50.1582C21.4395 50.2704 21.4172 50.4244 21.3051 50.5081L20.8644 50.8372C20.7522 50.921 20.5982 50.8987 20.5145 50.7865C20.4307 50.6743 20.453 50.5204 20.5652 50.4366L21.0059 50.1075C21.1181 50.0238 21.272 50.0461 21.3558 50.1582Z" fill="#0B1934"/>
    <path d="M20.9066 49.5574C20.9903 49.6696 20.968 49.8235 20.8558 49.9073L20.4152 50.2364C20.303 50.3202 20.149 50.2978 20.0653 50.1857C19.9815 50.0735 20.0038 49.9195 20.116 49.8358L20.5567 49.5067C20.6688 49.4229 20.8228 49.4452 20.9066 49.5574Z" fill="#0B1934"/>
    <path d="M17.7336 43.3529L18.9003 44.9153L17.3379 46.082L16.1711 44.5196L17.7336 43.3529ZM18.5504 44.8645L17.6828 43.7027L16.529 44.5644L17.3966 45.7262L18.5504 44.8645Z" fill="#0B1934"/>
    <path d="M17.6038 45.1346C17.6876 45.2467 17.6653 45.4007 17.5531 45.4845L17.1124 45.8135C17.0002 45.8973 16.8463 45.875 16.7625 45.7628C16.6788 45.6507 16.7011 45.4967 16.8133 45.4129L17.2539 45.0838C17.3661 45.0001 17.5201 45.0224 17.6038 45.1346Z" fill="#0B1934"/>
    <path d="M17.1546 44.5337C17.2384 44.6459 17.2161 44.7999 17.1039 44.8836L16.6632 45.2127C16.551 45.2965 16.3971 45.2742 16.3133 45.162C16.2295 45.0498 16.2519 44.8959 16.364 44.8121L16.8047 44.483C16.9169 44.3992 17.0708 44.4216 17.1546 44.5337Z" fill="#0B1934"/>
    <path d="M52.2687 25.3882L53.4355 26.9507L51.873 28.1174L50.7063 26.555L52.2687 25.3882ZM53.0856 26.8999L52.218 25.7381L51.0562 26.6057L51.9238 27.7675L53.0856 26.8999Z" fill="#0B1934"/>
    <path d="M52.139 27.17C52.2227 27.2821 52.2004 27.4361 52.0883 27.5199L51.6476 27.849C51.5354 27.9327 51.3814 27.9104 51.2977 27.7982C51.2139 27.686 51.2362 27.5321 51.3484 27.4483L51.7891 27.1192C51.9013 27.0355 52.0552 27.0578 52.139 27.17Z" fill="#0B1934"/>
    <path d="M51.6898 26.5691C51.7735 26.6813 51.7512 26.8353 51.639 26.919L51.1984 27.2481C51.0862 27.3319 50.9322 27.3096 50.8485 27.1974C50.7647 27.0852 50.787 26.9313 50.8992 26.8475L51.3399 26.5184C51.452 26.4346 51.606 26.457 51.6898 26.5691Z" fill="#0B1934"/>
    <path d="M48.5168 20.3646L49.6835 21.927L48.1211 23.0938L46.9543 21.5313L48.5168 20.3646ZM49.3336 21.8763L48.466 20.7145L47.3042 21.5821L48.1718 22.7439L49.3336 21.8763Z" fill="#0B1934"/>
    <path d="M48.387 22.1463C48.4708 22.2585 48.4485 22.4124 48.3363 22.4962L47.8956 22.8253C47.7834 22.909 47.6295 22.8867 47.5457 22.7745C47.462 22.6624 47.4843 22.5084 47.5965 22.4246L48.0371 22.0956C48.1493 22.0118 48.3033 22.0341 48.387 22.1463Z" fill="#0B1934"/>
    <path d="M47.9378 21.5455C48.0216 21.6576 47.9993 21.8116 47.8871 21.8954L47.4464 22.2244C47.3342 22.3082 47.1803 22.2859 47.0965 22.1737C47.0127 22.0615 47.0351 21.9076 47.1472 21.8238L47.5879 21.4947C47.7001 21.411 47.854 21.4333 47.9378 21.5455Z" fill="#0B1934"/>
    <path d="M61.6771 13.5698L63.6875 16.262L65.0576 15.2388L63.0472 12.5466L61.6771 13.5698Z" fill="black"/>
    <path d="M61.7608 15.068L62.2754 15.7571L64.9676 13.7467L64.453 13.0576L61.7608 15.068Z" fill="#6181B2"/>
    <path d="M26.2874 40.4346L27.873 42.5579L28.7464 41.9057L27.1608 39.7824L26.2874 40.4346Z" fill="#003399"/>
    <path d="M39.0914 36.6889L39.947 37.8347L37.375 39.7554L36.5194 38.6096L39.0914 36.6889ZM39.5911 37.776L39.0347 37.0308L36.8633 38.6523L37.4197 39.3975L39.5911 37.776Z" fill="#0B1934"/>
    <path d="M34.2515 30.207L35.1071 31.3528L32.5352 33.2734L31.6795 32.1277L34.2515 30.207ZM34.7572 31.302L34.2008 30.5569L32.0294 32.1784L32.5859 32.9235L34.7572 31.302Z" fill="#0B1934"/>
    <path d="M40.5421 34.956L41.6191 36.3982L47.6044 31.9286L46.5274 30.4864L40.5421 34.956Z" fill="#003399"/>
    <path d="M36.1027 29.0106L37.1797 30.4529L43.165 25.9833L42.088 24.541L36.1027 29.0106Z" fill="#003399"/>
    <path d="M28.1126 51.8383C28.0049 51.6941 28.0354 51.4841 28.1796 51.3764L31.5208 48.8813C31.665 48.7736 31.8749 48.8041 31.9826 48.9483L32.6647 49.8617C32.7724 50.0059 32.742 50.2159 32.5978 50.3236L29.2566 52.8187C29.1124 52.9264 28.9024 52.8959 28.7947 52.7517L28.1126 51.8383Z" fill="#697989"/>
    <path d="M16.7747 36.6547C16.667 36.5105 16.6975 36.3005 16.8417 36.1928L20.1829 33.6978C20.3271 33.5901 20.537 33.6205 20.6447 33.7647L21.3268 34.6781C21.4345 34.8223 21.4041 35.0323 21.2599 35.14L17.9187 37.6351C17.7745 37.7428 17.5645 37.7123 17.4568 37.5681L16.7747 36.6547Z" fill="#697989"/>
    <path d="M52.431 33.6786C52.3233 33.5344 52.3537 33.3245 52.4979 33.2168L55.8391 30.7217C55.9834 30.614 56.1933 30.6444 56.301 30.7886L56.9831 31.7021C57.0908 31.8463 57.0604 32.0562 56.9161 32.1639L53.575 34.659C53.4307 34.7667 53.2208 34.7363 53.1131 34.592L52.431 33.6786Z" fill="#697989"/>
    <path d="M41.0931 18.495C40.9854 18.3508 41.0158 18.1409 41.1601 18.0332L44.5012 15.5381C44.6455 15.4304 44.8554 15.4608 44.9631 15.605L45.6452 16.5185C45.7529 16.6627 45.7225 16.8726 45.5782 16.9803L42.2371 19.4754C42.0928 19.5831 41.8829 19.5527 41.7752 19.4084L41.0931 18.495Z" fill="#697989"/>
</svg>
