<svg width="18" height="29" viewBox="0 0 18 29" fill="none" xmlns="http://www.w3.org/2000/svg">
    <path d="M11.4578 27.3757C11.4842 27.3614 11.4859 27.3708 11.4578 27.3757V27.3757Z" fill="#CACAE3"/>
    <path d="M11.0949 2.25635C10.6145 1.95083 9.97622 1.57333 8.82687 1.69431C8.82687 1.69431 7.33012 1.90377 6.83723 1.99068C6.32675 2.08069 4.82222 2.40044 4.82222 2.40044C3.692 2.6814 3.23011 3.2529 2.88318 3.7043C2.53469 4.1469 2.23276 4.85355 2.20316 5.45772L6.03656 26.2716C6.37954 28.2167 7.32233 28.0051 9.13904 27.7574C9.52061 27.7082 10.5856 27.5204 11.1401 27.4227C11.1665 27.418 11.2281 27.4072 11.2985 27.3947C11.3777 27.3808 11.4305 27.3715 11.4569 27.3668C12.0114 27.269 13.0764 27.0812 13.4517 26.9969C15.2421 26.5996 16.2019 26.4847 15.859 24.5396L12.3424 3.6699C12.1007 3.12264 11.5738 2.55307 11.0949 2.25635Z" fill="#315EB9"/>
    <path d="M11.1332 27.4328C11.1034 27.4284 11.105 27.4378 11.1332 27.4328V27.4328Z" fill="#CACAE3"/>
    <path d="M9.40391 2.13679C9.40391 2.13679 8.37105 2.14648 6.94522 2.39789C5.51938 2.64931 4.47405 3.05143 4.47405 3.05143L3.34371 4.25807C3.34371 4.25807 3.56695 7.22256 3.6911 7.92668C3.81526 8.63079 4.32515 9.10354 4.32515 9.10354L11.5951 7.82164C11.7702 7.5276 11.8453 7.07875 11.8298 6.68218C11.8143 6.2856 10.987 2.82868 10.987 2.82868L9.40391 2.13679Z" fill="#08399B"/>
    <path d="M3.09708 10.5818C2.79939 10.6434 2.44059 10.7701 2.30855 10.9477C2.1765 11.1253 2.18941 11.4043 2.33229 11.4427C2.46637 11.4825 3.48996 11.1115 3.48789 11.0483C3.49463 10.9836 3.48998 10.9572 3.48998 10.9572L3.68671 10.9406L3.6355 10.6502C3.55629 10.6642 3.42841 10.6595 3.42841 10.6595C3.42841 10.6595 3.39478 10.5202 3.09708 10.5818Z" fill="#08399B"/>
    <path d="M13.2459 8.79255C12.9451 8.83652 12.9699 8.97734 12.9699 8.97734C12.9699 8.97734 12.8514 9.02547 12.7721 9.03944L12.8234 9.32988L13.0139 9.27814C13.0139 9.27814 13.0185 9.30455 13.047 9.36305C13.0755 9.42156 14.1539 9.4129 14.2678 9.33837C14.3802 9.25503 14.3056 8.98684 14.1208 8.86515C13.9184 8.74657 13.5467 8.74859 13.2459 8.79255Z" fill="#08399B"/>
    <path d="M11.4578 27.3757C11.4842 27.3614 11.4859 27.3708 11.4578 27.3757V27.3757Z" fill="#787878"/>
    <path d="M7.37765 27.9047C7.83945 27.9503 8.42189 27.8566 9.14102 27.7661C9.52258 27.717 10.5876 27.5292 11.1421 27.4315C11.1685 27.4268 11.2301 27.4159 11.3005 27.4035C11.3797 27.3896 11.4325 27.3802 11.4589 27.3756C12.0134 27.2778 13.0784 27.09 13.4537 27.0057C14.1268 26.8598 14.687 26.7429 15.0996 26.5612L15.0852 26.2734L7.30469 27.6453L7.37765 27.9047Z" fill="#2F3556"/>
    <path d="M11.1332 27.4328C11.1034 27.4284 11.105 27.4378 11.1332 27.4328V27.4328Z" fill="#787878"/>
    <path d="M10.8194 24.4296L10.7402 24.4436L11.1981 27.04L11.2773 27.0261L10.8194 24.4296Z" fill="#273043"/>
    <path d="M10.4956 25.5668C10.098 25.6278 9.21938 25.7918 8.68405 25.8953C8.4112 25.9434 8.16889 26.1132 8.01096 26.3498L7.64744 26.913C7.54024 27.0771 7.67896 27.2976 7.86379 27.2651L10.7067 26.7638C10.8211 26.7436 10.9008 26.6297 10.8791 26.5065L10.7472 25.7584C10.7151 25.6279 10.61 25.5466 10.4956 25.5668Z" fill="#273043"/>
    <path d="M10.4676 25.7257C10.158 25.7712 9.28822 25.9337 8.79534 26.0206C8.5753 26.0594 8.32368 26.1764 8.19008 26.3451L7.80171 26.9218C7.74217 26.9958 7.81515 27.1009 7.91197 27.0839L10.6228 26.6059C10.6844 26.595 10.7295 26.5417 10.7202 26.4889L10.6007 25.8112C10.581 25.7511 10.5292 25.7149 10.4676 25.7257Z" fill="url(#paint0_linear_1040_21633)"/>
    <path d="M14.0218 25.29C13.7909 25.1129 13.5067 25.045 13.2339 25.0931C12.7042 25.1774 11.8241 25.3326 11.4192 25.404C11.3048 25.4242 11.2339 25.5365 11.2556 25.6597L11.3875 26.4079C11.4092 26.5311 11.5231 26.6108 11.6375 26.5906L14.4804 26.0894C14.6652 26.0568 14.7202 25.8021 14.5633 25.6845L14.0218 25.29Z" fill="#273043"/>
    <path d="M13.8509 25.3472C13.6677 25.2343 13.3912 25.2105 13.1712 25.2493C12.6783 25.3362 11.8054 25.481 11.4989 25.5441C11.4373 25.555 11.401 25.6068 11.4103 25.6596L11.5298 26.3373C11.5391 26.3901 11.5997 26.4248 11.6613 26.4139L14.3722 25.9359C14.469 25.9188 14.5032 25.8039 14.4203 25.7459L13.8509 25.3472Z" fill="url(#paint1_linear_1040_21633)"/>
    <path d="M8.22271 25.0083L6.8418 27.5435L6.91244 27.5819L8.29335 25.0468L8.22271 25.0083Z" fill="#273043"/>
    <path d="M13.3716 24.1079L13.3184 24.1682L15.4823 26.0789L15.5356 26.0186L13.3716 24.1079Z" fill="#273043"/>
    <path d="M11.4578 27.3757C11.4842 27.3614 11.4859 27.3708 11.4578 27.3757V27.3757Z" fill="#D6D6F0"/>
    <path d="M11.1332 27.4328C11.1034 27.4284 11.105 27.4378 11.1332 27.4328V27.4328Z" fill="#D6D6F0"/>
    <path d="M11.1427 27.4312C11.1052 27.4378 11.1129 27.4268 11.1427 27.4312V27.4312Z" fill="#D6D6F0"/>
    <path d="M13.6986 14.1481L12.7305 14.3188L13.5111 18.746L14.4792 18.5753L13.6986 14.1481Z" fill="#273043"/>
    <path d="M13.5624 14.354L12.9199 14.4673L13.6307 18.4983L14.2732 18.3851L13.5624 14.354Z" fill="url(#paint2_linear_1040_21633)"/>
    <path d="M14.5346 18.892L13.5664 19.0627L14.347 23.4899L15.3152 23.3191L14.5346 18.892Z" fill="#273043"/>
    <path d="M14.4003 19.1067L13.7578 19.22L14.4686 23.251L15.1111 23.1377L14.4003 19.1067Z" fill="url(#paint3_linear_1040_21633)"/>
    <path d="M12.156 8.38507L12.0299 10.1406C12.0289 10.1862 12.0278 10.2318 12.0356 10.2758L12.6967 14.0252L13.6297 13.8607L12.6613 8.36858C12.6054 8.05173 12.1793 8.05425 12.156 8.38507Z" fill="#273043"/>
    <path d="M12.2868 8.45328L12.1799 10.2145L12.7851 13.8014L13.454 13.6834L12.5291 8.43779C12.5027 8.28816 12.3044 8.2959 12.2868 8.45328Z" fill="url(#paint4_linear_1040_21633)"/>
    <path d="M5.51308 15.5915L4.54492 15.7622L5.32554 20.1893L6.2937 20.0186L5.51308 15.5915Z" fill="#273043"/>
    <path d="M5.37884 15.7971L4.73633 15.9104L5.44711 19.9415L6.08962 19.8282L5.37884 15.7971Z" fill="url(#paint5_linear_1040_21633)"/>
    <path d="M6.35097 20.3351L5.38281 20.5059L6.16343 24.933L7.13159 24.7623L6.35097 20.3351Z" fill="#273043"/>
    <path d="M6.21673 20.55L5.57422 20.6633L6.285 24.6944L6.92751 24.5811L6.21673 20.55Z" fill="url(#paint6_linear_1040_21633)"/>
    <path d="M4.01579 9.821C3.88071 9.51812 3.47791 9.65267 3.53688 9.98713L4.50528 15.4792L5.43823 15.3147L4.77711 11.5653C4.76935 11.5213 4.75279 11.4788 4.73623 11.4364L4.01579 9.821Z" fill="#273043"/>
    <path d="M3.91722 9.92899C3.85563 9.78557 3.65785 9.84767 3.68579 10.0061L4.61074 15.2518L5.27964 15.1338L4.6216 11.5563L3.91722 9.92899Z" fill="url(#paint7_linear_1040_21633)"/>
    <path d="M5.17478 10.8327L7.56785 24.4045C7.65631 24.9062 8.0285 25.2671 8.31895 25.2159L13.4678 24.308C13.7582 24.2568 13.9245 23.81 13.8345 23.2996L11.4243 9.63093C11.4243 9.63093 10.097 9.10267 8.4159 9.39909C6.73482 9.69551 5.17478 10.8327 5.17478 10.8327Z" fill="#08399B"/>
    <path d="M10.3567 6.20672C9.44238 6.16828 8.33289 6.30945 7.66399 6.4274C7.00388 6.5438 5.9042 6.79215 5.0582 7.14098C4.2122 7.4898 3.76174 7.86871 3.76945 8.22128C3.77717 8.57385 4.62234 10.4849 4.81435 10.9048C5.00637 11.3247 5.3243 10.9147 6.07245 10.6285C6.82059 10.3423 8.30804 10.08 8.30804 10.08C8.30804 10.08 9.79548 9.81773 10.5964 9.83078C11.3973 9.84384 11.8435 10.11 11.8731 9.66011C11.9099 9.19987 12.0505 7.11503 11.9372 6.78109C11.8238 6.44714 11.271 6.24515 10.3567 6.20672Z" fill="#273043"/>
    <path d="M10.2818 6.40147C9.39859 6.38478 8.33466 6.52701 7.69216 6.6403C7.04965 6.75359 6.00124 6.98383 5.17854 7.31039C4.35584 7.63696 3.92557 7.97601 3.92553 8.28457C3.92548 8.59313 4.71995 10.2681 4.89385 10.6367C5.06775 11.0053 5.50838 10.6735 6.23323 10.4096C6.95807 10.1457 8.26897 9.86007 8.26897 9.86007C8.26897 9.86007 9.64821 9.65318 10.4093 9.64603C11.1791 9.63734 11.6569 9.82534 11.6958 9.42825C11.7331 9.02237 11.898 7.17828 11.7925 6.88834C11.6869 6.59841 11.1578 6.42852 10.2818 6.40147Z" fill="url(#paint8_linear_1040_21633)"/>
    <path d="M10.2828 6.40168C9.78166 6.39022 9.21786 6.43518 8.70117 6.48999C8.81659 6.73282 9.53341 8.27623 9.66835 9.65908C9.9531 9.62702 10.3512 9.62035 10.5775 9.61675C11.3489 9.61686 11.6507 9.8359 11.688 9.43001C11.7253 9.02412 11.8902 7.18003 11.7831 6.88129C11.6863 6.5898 11.1572 6.41992 10.2828 6.40168Z" fill="url(#paint9_linear_1040_21633)"/>
    <path opacity="0.44" d="M4.30095 8.03704C4.10934 8.4429 5.05444 10.2002 5.05444 10.2002C5.05444 10.2002 4.56852 8.67956 4.53283 8.47712C4.49558 8.26589 4.41639 8.12558 5.81275 7.55266C7.21067 6.98854 10.0732 6.85588 10.0732 6.85588C10.0732 6.85588 9.67506 6.70828 8.34606 6.78834C7.03467 6.8653 4.49256 7.63117 4.30095 8.03704Z" fill="#C7CCEA"/>
    <path d="M6.49924 12.895C6.41123 12.9105 6.36203 12.9918 6.37599 13.071L8.24607 23.6767C8.26159 23.7648 8.34287 23.814 8.42208 23.8C8.5013 23.786 8.55929 23.7032 8.54532 23.624L6.67524 13.0183C6.66853 12.9287 6.58725 12.8795 6.49924 12.895Z" fill="#315EB9"/>
    <path d="M10.8996 12.1191C10.8116 12.1346 10.7624 12.2159 10.7764 12.2951L12.6465 22.9009C12.662 22.9889 12.7433 23.0381 12.8225 23.0241C12.9105 23.0086 12.9597 22.9273 12.9457 22.8481L11.0756 12.2424C11.0601 12.1544 10.9788 12.1052 10.8996 12.1191Z" fill="#315EB9"/>
    <path d="M6.96361 27.5234C6.66904 27.4483 6.47541 27.4824 6.53079 27.5906C6.58617 27.6988 6.87556 27.8474 7.17013 27.9226C7.4647 27.9977 7.65833 27.9635 7.60295 27.8553C7.54757 27.7471 7.25819 27.5985 6.96361 27.5234Z" fill="#D80505"/>
    <path d="M7.30115 27.6363C7.20227 27.5902 7.08579 27.5472 6.96361 27.5234C6.66904 27.4483 6.47541 27.4824 6.53079 27.5906C6.62967 27.6367 6.74615 27.6797 6.86833 27.7035C7.1629 27.7786 7.35808 27.7533 7.30115 27.6363Z" fill="#F52206"/>
    <path d="M15.3517 26.0445C15.1005 26.2158 14.8794 26.4545 14.8644 26.5751C14.8494 26.6957 15.0342 26.6631 15.2941 26.4902C15.5452 26.3189 15.7663 26.0803 15.7814 25.9596C15.7964 25.839 15.6028 25.8732 15.3517 26.0445Z" fill="#D80505"/>
    <path d="M15.3523 26.0443C15.2544 26.107 15.1597 26.1872 15.0737 26.2659C15.0587 26.3865 15.2435 26.3539 15.5034 26.181C15.6013 26.1184 15.696 26.0382 15.782 25.9595C15.797 25.8389 15.6034 25.873 15.3523 26.0443Z" fill="#F52206"/>
    <path d="M6.74021 1.49922C6.73141 1.50078 6.73141 1.50078 6.74021 1.49922C6.73141 1.50078 6.72261 1.50233 6.72261 1.50233C6.0449 1.62182 4.01434 2.09785 3.8155 2.35979C3.61666 2.62172 3.50163 3.35894 3.50163 3.35894C3.50163 3.35894 3.98571 3.27358 4.25913 2.81699C4.50924 2.38266 6.60294 2.05886 6.80538 2.02316C6.80538 2.02316 6.80537 2.02317 6.81417 2.02161C6.82298 2.02006 6.82297 2.02006 6.82297 2.02006C7.03266 1.97401 9.10359 1.57256 9.48717 1.89515C9.89146 2.23224 10.3843 2.14533 10.3843 2.14533C10.3843 2.14533 10.0241 1.49192 9.74767 1.31379C9.48883 1.13255 7.41067 1.39008 6.74021 1.49922Z" fill="#273043"/>
    <path d="M4.44751 3.01047L4.29787 3.19112L4.68588 5.23721L5.73609 6.92149L4.86968 5.09589L4.44751 3.01047Z" fill="#C8CBD6"/>
    <path d="M9.70213 4.24381L9.51237 6.25564L9.92319 4.31374L9.58799 2.25834L9.38558 2.13976L9.70213 4.24381Z" fill="#C8CBD6"/>
    <path d="M2.97852 3.84131C2.673 4.32171 2.89964 5.14389 2.89964 5.14389C2.89964 5.14389 3.41493 4.00031 4.32828 3.31291C4.42459 3.24148 4.47482 3.11464 4.4531 2.99142L4.39723 2.67457C4.40758 2.68182 3.45337 3.08602 2.97852 3.84131Z" fill="#88C4FF"/>
    <path d="M2.8518 4.77115C2.87144 4.98549 2.89938 5.14393 2.89938 5.14393C2.89938 5.14393 3.41466 4.00035 4.32802 3.31295C4.42432 3.24152 4.47456 3.11468 4.45283 2.99146C3.6327 3.43555 3.02372 4.45951 2.8518 4.77115Z" fill="#D5FAFC"/>
    <path d="M9.31836 1.81567L9.37423 2.13252C9.39596 2.25574 9.48654 2.35775 9.60147 2.39194C10.6948 2.7255 11.5702 3.62387 11.5702 3.62387C11.5702 3.62387 11.502 2.77376 11.0506 2.42682C10.3533 1.86914 9.31836 1.81567 9.31836 1.81567Z" fill="#88C4FF"/>
    <path d="M9.375 2.13232C9.39673 2.25554 9.48731 2.35755 9.60224 2.39174C10.6956 2.7253 11.571 3.62367 11.571 3.62367C11.571 3.62367 11.5518 3.46368 11.4882 3.2571C11.2273 3.0127 10.3048 2.25878 9.375 2.13232Z" fill="#D5FAFC"/>
    <defs>
        <linearGradient id="paint0_linear_1040_21633" x1="9.10958" y1="25.9634" x2="9.26454" y2="26.8423" gradientUnits="userSpaceOnUse">
            <stop stop-color="#414751"/>
            <stop offset="0.9838" stop-color="#292B2E"/>
        </linearGradient>
        <linearGradient id="paint1_linear_1040_21633" x1="13.0135" y1="26.1815" x2="12.8585" y2="25.3026" gradientUnits="userSpaceOnUse">
            <stop stop-color="#414751"/>
            <stop offset="0.9838" stop-color="#292B2E"/>
        </linearGradient>
        <linearGradient id="paint2_linear_1040_21633" x1="14.8407" y1="17.9117" x2="12.3525" y2="14.9464" gradientUnits="userSpaceOnUse">
            <stop stop-color="#414751"/>
            <stop offset="0.9838" stop-color="#292B2E"/>
        </linearGradient>
        <linearGradient id="paint3_linear_1040_21633" x1="14.7888" y1="23.1911" x2="14.0784" y2="19.1623" gradientUnits="userSpaceOnUse">
            <stop stop-color="#414751"/>
            <stop offset="0.9838" stop-color="#292B2E"/>
        </linearGradient>
        <linearGradient id="paint4_linear_1040_21633" x1="14.259" y1="13.0177" x2="11.1691" y2="9.33536" gradientUnits="userSpaceOnUse">
            <stop stop-color="#414751"/>
            <stop offset="0.9838" stop-color="#292B2E"/>
        </linearGradient>
        <linearGradient id="paint5_linear_1040_21633" x1="6.66012" y1="19.3543" x2="4.17192" y2="16.389" gradientUnits="userSpaceOnUse">
            <stop stop-color="#414751"/>
            <stop offset="0.9838" stop-color="#292B2E"/>
        </linearGradient>
        <linearGradient id="paint6_linear_1040_21633" x1="6.6082" y1="24.6339" x2="5.89783" y2="20.6052" gradientUnits="userSpaceOnUse">
            <stop stop-color="#414751"/>
            <stop offset="0.9838" stop-color="#292B2E"/>
        </linearGradient>
        <linearGradient id="paint7_linear_1040_21633" x1="5.93878" y1="14.58" x2="2.71036" y2="10.7325" gradientUnits="userSpaceOnUse">
            <stop stop-color="#414751"/>
            <stop offset="0.9838" stop-color="#292B2E"/>
        </linearGradient>
        <linearGradient id="paint8_linear_1040_21633" x1="4.2806" y1="7.24367" x2="11.5416" y2="9.88648" gradientUnits="userSpaceOnUse">
            <stop stop-color="#414751"/>
            <stop offset="0.9838" stop-color="#292B2E"/>
        </linearGradient>
        <linearGradient id="paint9_linear_1040_21633" x1="9.01574" y1="8.27217" x2="11.9495" y2="7.75488" gradientUnits="userSpaceOnUse">
            <stop stop-color="#414751"/>
            <stop offset="0.9838" stop-color="#292B2E"/>
        </linearGradient>
    </defs>
</svg>
