<svg width="51" height="79" viewBox="0 0 51 79" fill="none" xmlns="http://www.w3.org/2000/svg">
<path d="M47.2282 54.5841L40.6502 17.2784C38.9682 7.73938 29.0471 1.50872 18.8016 3.31529C8.55602 5.12186 1.36236 14.3589 3.04629 23.9089L9.6243 61.2147C11.3063 70.7537 21.2273 76.9843 31.4729 75.1778C41.7184 73.3712 48.9121 64.1341 47.2282 54.5841Z" fill="#003399"/>
<path d="M4.01876 24.3185C2.37571 15.0004 9.07642 6.06652 18.9648 4.30017C28.861 2.57798 38.2131 8.68126 39.8562 17.9994L46.2375 54.1901L46.1382 54.2076L46.0388 54.2252L39.6574 18.0345C38.0137 8.84164 28.7947 2.78318 19.0018 4.50994C9.20888 6.23669 2.61988 15.0939 4.21749 24.2835L10.5989 60.4742C12.2426 69.667 21.4616 75.7255 31.2545 73.9987C41.0474 72.272 47.6364 63.4147 46.0388 54.2252L46.1382 54.2076L46.2486 54.1882C47.8916 63.5063 41.1909 72.4402 31.3026 74.2065C21.4064 75.9287 12.0542 69.8254 10.4112 60.5073L4.0298 24.3166L4.01876 24.3185Z" fill="white"/>
<path d="M6.22447 25.2153C4.69434 16.5375 10.5903 8.26918 19.3987 6.70464C28.1999 5.16414 36.5682 10.9173 38.0983 19.5951L44.0378 53.2796L43.9385 53.2971L43.8391 53.3146L37.8996 19.6301C36.3798 11.0757 28.1226 5.37129 19.4337 6.90337C10.7449 8.43545 4.93462 16.6089 6.43424 25.1783L12.3737 58.8628C13.8935 67.4172 22.1488 73.1106 30.8377 71.5785C39.5265 70.0464 45.3368 61.8729 43.8391 53.3146L43.9385 53.2971L44.0378 53.2796C45.566 61.9464 39.672 70.2257 30.8636 71.7902C22.0605 73.3197 13.6811 67.5685 12.1529 58.9017L6.21343 25.2172L6.22447 25.2153Z" fill="white"/>
<path d="M5.16178 24.7425C3.57519 15.7445 9.85502 7.13532 19.1803 5.46825C28.5004 3.83625 37.3571 9.77646 38.9456 18.7855L45.1129 53.7617L45.0135 53.7793L44.9142 53.7968L38.7469 18.8205C37.1688 9.93489 28.4472 4.05055 19.2284 5.67607C10.0096 7.3016 3.83949 15.8231 5.38259 24.7036L11.5498 59.6798C13.139 68.5635 21.8496 74.4498 31.0684 72.8243C40.2872 71.1987 46.4683 62.6753 44.9142 53.7968L45.0135 53.7793L45.1129 53.7617C46.6995 62.7597 40.4197 71.3689 31.0943 73.036C21.7742 74.668 12.9286 68.7258 11.329 59.7187L5.16178 24.7425Z" fill="white"/>
<path d="M39.3808 33.1211L38.168 26.2429L8.447 31.4835L9.65981 38.3617L39.3808 33.1211Z" fill="#2C8100"/>
<path d="M40.5937 39.9991L39.3809 33.1208L9.65989 38.3615L10.8727 45.2397L40.5937 39.9991Z" fill="#308C00"/>
<path d="M33.4262 12.9059L8.34219 17.3289C7.41775 19.5751 7.0245 22.0578 7.28066 24.6081L36.9023 19.3851C36.2688 16.8899 35.0501 14.6914 33.4262 12.9059Z" fill="#2C8100"/>
<path d="M19.6605 8.18436C19.252 8.25638 18.8474 8.35049 18.4558 8.4537L20.8847 8.02542C20.4704 8.06432 20.069 8.11233 19.6605 8.18436Z" fill="#2C8100"/>
<path d="M20.8854 8.02543L18.4565 8.45371C13.7551 9.68111 10.0932 13.0589 8.34174 17.3293L33.4257 12.9063C30.3063 9.4834 25.7119 7.5728 20.8854 8.02543Z" fill="#308C00"/>
<path d="M37.1556 20.5021C37.0894 20.1267 37.0011 19.7552 36.9129 19.3838L7.29126 24.6069C7.33537 24.9861 7.37948 25.3654 7.44567 25.7408L8.45992 31.4929L38.1698 26.2542L37.1556 20.5021Z" fill="#308C00"/>
<path d="M41.8066 46.8775L40.5938 39.9993L10.8728 45.2399L12.0856 52.1181L41.8066 46.8775Z" fill="#2C8100"/>
<path d="M32.9473 69.7158L28.2219 70.549C29.0162 70.5342 29.8117 70.4622 30.6177 70.3201C31.4237 70.178 32.1958 69.9735 32.9473 69.7158Z" fill="#2C8100"/>
<path d="M42.002 61.0271L16.7413 65.4812C19.6061 68.6872 23.7602 70.6185 28.2218 70.549L32.9471 69.7158C37.1504 68.2461 40.4064 65.0195 42.002 61.0271Z" fill="#308C00"/>
<path d="M42.8442 52.762L41.8066 46.8774L12.0857 52.118L13.1233 58.0026C13.1817 58.3338 13.2511 58.6631 13.3316 58.9904L42.9753 53.7634C42.939 53.4283 42.9027 53.0932 42.8442 52.762Z" fill="#308C00"/>
<path d="M42.9746 53.7632L13.3309 58.9902C13.9404 61.4782 15.137 63.6806 16.7408 65.481L42.0014 61.0269C42.8927 58.7865 43.2509 56.2986 42.9746 53.7632Z" fill="#2C8100"/>
<path opacity="0.7" d="M33.5449 16.5615L9.46564 20.8073L16.7192 61.9442L40.7985 57.6983L33.5449 16.5615ZM20.2973 40.0143C19.8892 37.3769 21.6482 34.8925 24.2849 34.4161C26.9236 33.9509 29.4282 35.6949 29.9467 38.3128L20.2973 40.0143ZM29.9759 38.4784C30.395 41.1139 28.625 43.6003 25.9883 44.0766C23.3477 44.5308 20.845 42.7978 20.3265 40.1799L29.9759 38.4784ZM17.192 19.6271L17.9941 24.1758C18.0252 24.3525 18.2031 24.4577 18.3908 24.4246L25.6886 23.1378C25.8652 23.1066 25.9964 22.9469 25.9763 22.7683L25.1743 18.2196L27.3713 17.8322L28.6717 25.2073C28.697 25.3508 28.586 25.4956 28.4093 25.5268L16.6512 27.6C16.4746 27.6312 16.3187 27.522 16.2954 27.3896L14.9949 20.0145L17.192 19.6271ZM24.9866 18.2527L25.7886 22.8014C25.8003 22.8677 25.7457 22.9456 25.6574 22.9611L18.3597 24.2479C18.2713 24.2635 18.1934 24.209 18.1817 24.1427L17.3797 19.594L24.9866 18.2527ZM10.9431 20.729C11.0527 21.4154 10.5981 22.0648 9.9025 22.1874L9.92976 22.342C10.7026 22.2057 11.2209 21.4655 11.0957 20.6907L14.8053 20.0366L16.1057 27.4116C16.1505 27.6656 16.4064 27.8253 16.6713 27.7786L28.4294 25.7053C28.6944 25.6586 28.8802 25.421 28.8354 25.167L27.5369 17.803L31.9752 17.0204C32.1225 17.7913 32.8628 18.3097 33.6356 18.1734L33.6084 18.0188C32.9239 18.1395 32.2635 17.6868 32.1317 17.0042L33.3903 16.7823L36.9704 37.0857L30.1032 38.2966C29.5801 35.5884 26.9736 33.7827 24.2466 34.2635C21.5196 34.7444 19.6879 37.3327 20.1226 40.0565L13.2554 41.2673L9.67343 20.9529L10.9431 20.729ZM16.8627 61.7253L13.2827 41.4219L20.1499 40.211C20.6729 42.9192 23.2795 44.725 26.0064 44.2441C28.7334 43.7633 30.5652 41.1749 30.1304 38.4512L36.9976 37.2403L40.5777 57.5438L39.3191 57.7657C39.2094 57.0792 39.6641 56.4299 40.3596 56.3072L40.3324 56.1527C39.5595 56.2889 39.0393 57.0182 39.1645 57.7929L34.7262 58.5755L33.4258 51.2005C33.381 50.9466 33.1252 50.7868 32.8602 50.8335L21.1021 52.9068C20.8371 52.9535 20.6514 53.1911 20.6961 53.4451L21.9965 60.8201L18.2869 61.4742C18.1396 60.7033 17.3994 60.185 16.6265 60.3212L16.6538 60.4758C17.3383 60.3551 17.9987 60.8079 18.1304 61.4904L16.8608 61.7143L16.8627 61.7253ZM32.3525 58.9941L31.5505 54.4454C31.5193 54.2687 31.3414 54.1635 31.1537 54.1966L23.8559 55.4834C23.6793 55.5145 23.5481 55.6743 23.5682 55.8529L24.3702 60.4016L22.1732 60.789L20.8728 53.4139C20.8475 53.2704 20.9585 53.1256 21.1352 53.0944L32.8933 51.0212C33.0699 50.99 33.2258 51.0991 33.2491 51.2316L34.5496 58.6067L32.3525 58.9941ZM24.5579 60.3685L23.7559 55.8198C23.7442 55.7535 23.7988 55.6756 23.8871 55.6601L31.1848 54.3733C31.2732 54.3577 31.3511 54.4122 31.3628 54.4785L32.1648 59.0272L24.5579 60.3685Z" fill="white"/>
</svg>
