<svg width="174" height="79" viewBox="0 0 174 79" fill="none" xmlns="http://www.w3.org/2000/svg">
    <path d="M83.5823 45.0658C82.8433 41.6002 82.2154 38.0567 81.7291 34.547C81.676 34.1725 81.7094 33.8531 81.803 33.8398L86.4154 33.0202C86.5142 33.0088 86.64 33.2973 86.7107 33.6723L88.5625 44.1788C88.6313 44.559 88.605 44.875 88.5114 44.8883L83.9043 45.7098C83.8054 45.7212 83.6601 45.4375 83.5823 45.0658Z" fill="#2B3542"/>
    <path d="M81.5163 39.2643L81.76 40.7086C81.7657 40.7784 81.7507 40.8485 81.7168 40.9099C81.6828 40.9712 81.6316 41.0212 81.5694 41.0536L79.8182 41.9791L79.2358 38.7008L81.2023 38.9724C81.2799 38.9785 81.3531 39.0106 81.4101 39.0636C81.4672 39.1166 81.5046 39.1873 81.5163 39.2643Z" fill="#2C3542"/>
    <path d="M81.5171 39.2645L81.7608 40.7088C81.7795 40.7763 81.8173 40.837 81.8698 40.8834C81.9222 40.9298 81.987 40.96 82.0563 40.9703L84.0194 41.2348L83.4371 37.9564L81.6835 38.9048C81.6238 38.942 81.5762 38.9959 81.5466 39.0598C81.5171 39.1237 81.5068 39.1949 81.5171 39.2645Z" fill="#2C3542"/>
    <path d="M81.4608 39.0906C81.699 39.0486 81.9441 39.1029 82.1422 39.2416C82.3403 39.3803 82.4752 39.592 82.5173 39.8302C82.5404 39.9491 82.5395 40.0714 82.5149 40.19C82.4902 40.3086 82.4422 40.4211 82.3736 40.5209C82.305 40.6207 82.2172 40.7059 82.1153 40.7715C82.0135 40.837 81.8996 40.8816 81.7804 40.9027C81.6611 40.9237 81.5389 40.9208 81.4208 40.8941C81.3026 40.8674 81.191 40.8175 81.0924 40.7472C80.9938 40.6769 80.9102 40.5876 80.8465 40.4847C80.7827 40.3817 80.7401 40.267 80.7212 40.1474C80.6807 39.9094 80.7357 39.665 80.8741 39.4672C81.0126 39.2693 81.2234 39.134 81.4608 39.0906Z" fill="#435266"/>
    <path d="M81.5351 39.5201C81.6283 39.5029 81.7246 39.5138 81.8116 39.5514C81.8986 39.589 81.9724 39.6516 82.0238 39.7313C82.0751 39.811 82.1016 39.9042 82.0999 39.999C82.0982 40.0938 82.0684 40.1859 82.0143 40.2637C81.9601 40.3416 81.8841 40.4015 81.7958 40.4361C81.7075 40.4706 81.6109 40.4781 81.5184 40.4576C81.4258 40.4372 81.3415 40.3896 81.276 40.3211C81.2105 40.2526 81.1668 40.1661 81.1506 40.0727C81.1391 40.0111 81.14 39.9479 81.1531 39.8866C81.1663 39.8254 81.1915 39.7674 81.2273 39.7159C81.2631 39.6645 81.3087 39.6207 81.3616 39.5871C81.4144 39.5535 81.4734 39.5307 81.5351 39.5201Z" fill="#FFDD00"/>
    <path d="M79.5744 43.0739C79.6499 43.0126 79.7559 43.063 79.867 43.1153C79.9086 43.1361 79.9525 43.152 79.9977 43.1628C80.0034 43.122 80.0045 43.0808 80.0011 43.0397C80.0011 42.9095 79.9992 42.7845 80.1076 42.747C80.2159 42.7095 80.2862 42.7765 80.3845 42.8478C80.4194 42.8779 80.4577 42.9037 80.4986 42.9248L80.5404 42.8098C80.5842 42.6896 80.5771 42.5627 80.645 42.5223C80.713 42.4819 80.8175 42.585 80.9068 42.6649L81.0099 42.7557C81.027 42.7166 81.0416 42.6764 81.0536 42.6354C81.0974 42.5152 81.1373 42.4055 81.2138 42.3741C81.2903 42.3427 81.381 42.435 81.4627 42.5357C81.4886 42.5714 81.5184 42.6041 81.5516 42.6331C81.5687 42.5941 81.5834 42.5539 81.5953 42.5129C81.6391 42.3927 81.679 42.2829 81.7674 42.2677C81.8558 42.2525 81.9398 42.3305 82.0106 42.445C82.0329 42.4823 82.0604 42.5163 82.0923 42.5458C82.1097 42.5068 82.1243 42.4666 82.136 42.4255C82.1779 42.3105 82.2178 42.2008 82.3219 42.1913C82.426 42.1818 82.4796 42.2783 82.5489 42.3805C82.5711 42.4201 82.5972 42.4573 82.6268 42.4917C82.6382 42.4603 82.6592 42.4028 82.6725 42.3662C82.6858 42.3296 82.7543 42.1414 82.8721 42.1429C82.9899 42.1443 83.026 42.2403 83.0863 42.3511L83.159 42.4604L83.2027 42.3402C83.2446 42.2251 83.3159 42.1268 83.4109 42.1259C83.5059 42.1249 83.561 42.2337 83.6161 42.3426L83.6816 42.4552C83.7077 42.4202 83.7311 42.3831 83.7515 42.3445C83.8195 42.239 83.8803 42.1368 83.9716 42.1464C84.0628 42.1559 84.1198 42.2595 84.1677 42.3717C84.1835 42.4121 84.2031 42.4509 84.2261 42.4876C84.2261 42.4876 84.2566 42.404 84.3065 42.3807C84.3564 42.3574 84.4419 42.1873 84.5384 42.1987C84.6348 42.2101 84.6757 42.3256 84.7146 42.4463L84.7606 42.5637L84.8566 42.4625C84.9351 42.3608 85.0059 42.2801 85.0985 42.3019C85.1912 42.3238 85.2249 42.4426 85.2567 42.5667C85.2629 42.6156 85.2777 42.663 85.3003 42.7069L85.2452 42.8585C85.1615 42.828 85.1326 42.7287 85.106 42.6066C85.0971 42.572 85.0857 42.5382 85.0719 42.5053L84.992 42.5947C84.9155 42.6911 84.8356 42.7805 84.7463 42.7657C84.657 42.751 84.6176 42.6479 84.5734 42.5252C84.5618 42.4848 84.5463 42.4454 84.5274 42.4078L84.4509 42.5043C84.3829 42.6098 84.3135 42.7029 84.2222 42.6934C84.131 42.6839 84.0845 42.5841 84.0313 42.47L83.9729 42.354C83.9475 42.3873 83.9248 42.4226 83.9049 42.4595C83.865 42.5693 83.7832 42.6639 83.6849 42.6577C83.5865 42.6515 83.5433 42.5588 83.4849 42.4428C83.4661 42.4066 83.4453 42.3714 83.4227 42.3373C83.4058 42.3745 83.3918 42.413 83.3809 42.4523C83.339 42.5673 83.2677 42.6657 83.1727 42.6666C83.0777 42.6676 83.0207 42.564 82.9585 42.4584L82.891 42.351C82.8796 42.3824 82.8606 42.4347 82.8473 42.4713C82.8054 42.5863 82.7655 42.696 82.6529 42.6965C82.5403 42.697 82.4971 42.6043 82.4277 42.5021L82.3532 42.398C82.336 42.4371 82.3214 42.4773 82.3094 42.5182C82.2676 42.6332 82.2276 42.743 82.1288 42.7544C82.03 42.7658 81.9563 42.6917 81.8875 42.5719L81.811 42.473C81.7913 42.511 81.7766 42.5514 81.7673 42.5932C81.7254 42.7083 81.6855 42.818 81.5971 42.8332C81.5087 42.8484 81.4246 42.7705 81.3482 42.6716L81.2646 42.5761C81.2468 42.6169 81.2316 42.6588 81.2189 42.7015C81.1771 42.8165 81.139 42.9211 81.0697 42.9491C81.0003 42.9772 80.8972 42.8864 80.8079 42.8065L80.7134 42.7247C80.702 42.7561 80.6829 42.8084 80.6696 42.845C80.6278 42.96 80.6335 43.0745 80.5707 43.1168C80.508 43.1591 80.3888 43.0802 80.2885 43.0141L80.185 42.9409L80.1901 43.073C80.1868 43.1961 80.1891 43.3035 80.0931 43.3396C79.9972 43.3757 79.9102 43.3382 79.799 43.2859C79.7558 43.2642 79.7102 43.2476 79.6632 43.2364L79.5744 43.0739Z" fill="#0092ED"/>
    <path d="M78.6416 37.7982L78.6968 37.6466C78.736 37.6171 78.7733 37.5852 78.8085 37.551C78.8955 37.4584 78.9787 37.3762 79.0661 37.3962C79.1535 37.4161 79.1877 37.5174 79.2285 37.6328L79.2745 37.7503C79.2902 37.7146 79.3036 37.6779 79.3145 37.6405C79.3825 37.535 79.4466 37.44 79.5417 37.439C79.6367 37.4381 79.6832 37.5379 79.7435 37.6486L79.8091 37.7612C79.8205 37.7299 79.8395 37.6776 79.8509 37.6463C79.8928 37.5312 79.9327 37.4215 80.0524 37.4177C80.1722 37.4139 80.2144 37.4766 80.2743 37.605L80.3541 37.711C80.3655 37.6796 80.3845 37.6273 80.3959 37.596C80.4397 37.4757 80.4796 37.3659 80.5732 37.3527C80.6668 37.3394 80.7404 37.4135 80.8131 37.5228C80.8361 37.5586 80.8643 37.5908 80.8967 37.6184L80.9385 37.5034C80.9823 37.3831 81.0222 37.2734 81.0968 37.2472C81.1714 37.2211 81.2693 37.31 81.3477 37.4036L81.4384 37.4958C81.4552 37.4566 81.4699 37.4165 81.4821 37.3756C81.524 37.2606 81.562 37.1561 81.6281 37.1209C81.6941 37.0857 81.8005 37.1836 81.8898 37.2635L81.9825 37.3505C81.9999 37.3115 82.0145 37.2713 82.0262 37.2303C82.0681 37.1153 82.0695 36.9974 82.1584 36.9646C82.2472 36.9318 82.3308 37.0274 82.4258 37.0915C82.4538 37.1226 82.4856 37.1501 82.5204 37.1733C82.5392 37.1369 82.5533 37.0983 82.5622 37.0583C82.5798 36.9286 82.5951 36.8216 82.663 36.7812C82.731 36.7408 82.8355 36.844 82.9452 36.8839L83.0417 36.9605C83.0502 36.9176 83.0561 36.8743 83.0593 36.8307C83.0645 36.7024 83.0746 36.5936 83.1601 36.5537C83.2456 36.5138 83.3387 36.5831 83.4371 36.6544L83.5425 36.7224C83.5476 36.6781 83.55 36.6335 83.5497 36.5889C83.5478 36.4639 83.5455 36.3565 83.6486 36.317C83.7517 36.2776 83.8277 36.329 83.9351 36.3917L84.0553 36.4355C84.0526 36.3899 84.0473 36.3445 84.0397 36.2995C84.0254 36.176 84.016 36.0719 84.0825 36.0192L84.1827 36.1503C84.1811 36.1994 84.1851 36.2485 84.1946 36.2967C84.2069 36.4255 84.223 36.5438 84.137 36.6013C84.0509 36.6588 83.9612 36.5965 83.8486 36.5319L83.7232 36.4862L83.7179 36.6146C83.7197 36.7396 83.7216 36.8645 83.6133 36.9021C83.5049 36.9396 83.4327 36.8778 83.3363 36.8013C83.2965 36.7811 83.2544 36.7658 83.2109 36.7556C83.2047 36.7975 83.2012 36.8398 83.2004 36.8821C83.1899 37.0085 83.1832 37.1244 83.0977 37.1643C83.0121 37.2043 82.9252 37.1016 82.8155 37.0616L82.7138 36.9832C82.6938 37.0211 82.6791 37.0616 82.6701 37.1034C82.6543 37.2279 82.6405 37.3473 82.5673 37.3857C82.4941 37.4242 82.4001 37.3249 82.2904 37.2849C82.2605 37.2532 82.227 37.2252 82.1906 37.2013C82.1738 37.2405 82.1592 37.2806 82.1469 37.3215C82.105 37.4365 82.1016 37.5596 82.0147 37.5872C81.9277 37.6147 81.8422 37.5244 81.751 37.4498C81.7212 37.4172 81.6885 37.3874 81.6532 37.3609C81.6363 37.4001 81.6217 37.4402 81.6094 37.4811C81.5676 37.5961 81.5276 37.7059 81.4564 37.7391C81.3851 37.7724 81.2839 37.6764 81.2055 37.5828L81.1096 37.4887C81.0919 37.5295 81.0766 37.5714 81.0639 37.6141C81.0221 37.7291 80.9821 37.8389 80.9023 37.8631C80.8225 37.8873 80.7298 37.8004 80.652 37.6891C80.627 37.6549 80.599 37.6229 80.5684 37.5936C80.5505 37.6344 80.5352 37.6763 80.5227 37.7191C80.4809 37.8341 80.4409 37.9438 80.3421 37.9552C80.2433 37.9666 80.1792 37.8663 80.1098 37.7641L80.0353 37.66C80.0165 37.7025 80.0006 37.7462 79.9877 37.7907C79.9458 37.9057 79.9059 38.0155 79.79 38.0089C79.674 38.0022 79.638 37.9062 79.5724 37.7935C79.5536 37.7573 79.5328 37.7221 79.5102 37.688C79.4794 37.7228 79.4519 37.7604 79.428 37.8002C79.3619 37.9004 79.3011 38.0026 79.2046 37.9912C79.1082 37.9798 79.0673 37.8643 79.0232 37.7417L78.9771 37.6243C78.9384 37.6529 78.9027 37.6856 78.8707 37.7217C78.8156 37.743 78.7305 37.8305 78.6416 37.7982Z" fill="#003399"/>
    <path d="M120.734 38.5002C119.995 35.0346 119.372 31.493 118.881 27.9814C118.828 27.6069 118.861 27.2875 118.957 27.269L123.567 26.4546C123.668 26.438 123.794 26.7265 123.863 27.1067L125.72 37.6151C125.785 37.9881 125.759 38.3042 125.663 38.3227L121.053 39.1371C120.957 39.1556 120.812 38.8719 120.734 38.5002Z" fill="#2B3542"/>
    <path d="M113.671 39.7478C112.926 36.2803 112.304 32.7387 111.81 29.2323C111.757 28.8578 111.796 28.5403 111.891 28.5218L116.502 27.7074C116.597 27.6889 116.728 27.9793 116.794 28.3523L118.649 38.866C118.714 39.239 118.693 39.557 118.598 39.5755L113.982 40.388C113.887 40.4065 113.754 40.1213 113.671 39.7478Z" fill="#2B3542"/>
    <path d="M118.643 32.6837L118.884 34.1508C118.89 34.2217 118.875 34.2927 118.841 34.355C118.807 34.4173 118.755 34.4681 118.692 34.5011L116.941 35.4266L116.358 32.1483L118.325 32.4199C118.399 32.4245 118.47 32.4525 118.527 32.4999C118.584 32.5473 118.625 32.6117 118.643 32.6837Z" fill="#2C3542"/>
    <path d="M118.643 32.6837L118.884 34.1508C118.901 34.2194 118.938 34.2812 118.991 34.328C119.044 34.3747 119.11 34.4041 119.18 34.4122L121.141 34.682L120.559 31.4037L118.808 32.3292C118.749 32.3658 118.702 32.4189 118.672 32.4818C118.643 32.5448 118.633 32.615 118.643 32.6837Z" fill="#2C3542"/>
    <path d="M118.613 32.5247C118.791 32.4933 118.974 32.5153 119.139 32.5879C119.304 32.6606 119.444 32.7805 119.541 32.9327C119.638 33.0848 119.687 33.2623 119.683 33.4427C119.68 33.6231 119.622 33.7983 119.519 33.9462C119.415 34.094 119.27 34.2078 119.102 34.2732C118.934 34.3387 118.75 34.3528 118.574 34.3137C118.398 34.2747 118.237 34.1843 118.113 34.054C117.988 33.9237 117.905 33.7593 117.873 33.5816C117.831 33.3434 117.886 33.0982 118.024 32.9C118.163 32.7018 118.375 32.5668 118.613 32.5247Z" fill="#435266"/>
    <path d="M118.687 32.9539C118.781 32.9367 118.877 32.9476 118.964 32.9853C119.051 33.0229 119.125 33.0855 119.176 33.1652C119.227 33.2449 119.254 33.338 119.252 33.4328C119.251 33.5276 119.221 33.6198 119.167 33.6976C119.112 33.7754 119.036 33.8354 118.948 33.8699C118.86 33.9044 118.763 33.9119 118.671 33.8915C118.578 33.871 118.494 33.8235 118.428 33.755C118.363 33.6864 118.319 33.6 118.303 33.5066C118.281 33.3824 118.31 33.2546 118.382 33.1512C118.454 33.0477 118.564 32.9768 118.687 32.9539Z" fill="#FFDD00"/>
    <path d="M116.725 36.5081C116.8 36.4468 116.906 36.4972 117.017 36.5495C117.06 36.5677 117.104 36.5836 117.148 36.597C117.154 36.5545 117.156 36.5115 117.153 36.4687C117.152 36.3437 117.15 36.2187 117.258 36.1812C117.366 36.1437 117.437 36.2107 117.535 36.282L117.649 36.359C117.66 36.3276 117.679 36.2753 117.693 36.2387C117.706 36.2021 117.728 35.9969 117.822 35.966C117.916 35.9351 117.994 36.0287 118.085 36.1034C118.117 36.1367 118.151 36.1671 118.188 36.1941C118.205 36.1549 118.22 36.1148 118.232 36.0739C118.274 35.9589 118.316 35.8439 118.39 35.8178C118.465 35.7916 118.558 35.8786 118.639 35.9794C118.667 36.0135 118.697 36.046 118.728 36.0768C118.745 36.0378 118.76 35.9976 118.772 35.9566C118.816 35.8364 118.856 35.7266 118.946 35.7062C119.036 35.6858 119.118 35.7689 119.187 35.8887C119.209 35.926 119.237 35.9599 119.269 35.9895C119.286 35.9504 119.301 35.9103 119.313 35.8692C119.356 35.749 119.396 35.6392 119.498 35.635C119.601 35.6307 119.666 35.6958 119.726 35.8241L119.805 35.9301C119.817 35.8988 119.836 35.8465 119.849 35.8099C119.891 35.6949 119.931 35.5851 120.049 35.5866C120.167 35.588 120.203 35.684 120.265 35.7895C120.284 35.8292 120.308 35.866 120.337 35.8988C120.349 35.8675 120.368 35.8152 120.381 35.7786C120.423 35.6636 120.494 35.5653 120.587 35.5695C120.681 35.5738 120.739 35.6722 120.793 35.7863L120.858 35.8989C120.884 35.8635 120.907 35.8265 120.928 35.7882C120.97 35.6732 121.057 35.5805 121.15 35.5848C121.243 35.5891 121.296 35.7032 121.344 35.8154L121.403 35.9313L121.483 35.8244C121.554 35.726 121.618 35.631 121.715 35.6424C121.811 35.6538 121.852 35.7693 121.893 35.8848L121.939 36.0022C121.939 36.0022 122.006 35.9319 122.033 35.9062C122.112 35.8045 122.184 35.7185 122.277 35.7404C122.37 35.7623 122.403 35.8811 122.433 36.0104C122.439 36.0593 122.454 36.1067 122.477 36.1506L122.422 36.3022C122.338 36.2717 122.311 36.1672 122.283 36.0502C122.274 36.0072 122.262 35.9651 122.246 35.9243L122.166 36.0136C122.089 36.1101 122.009 36.1994 121.92 36.1847C121.831 36.1699 121.793 36.0616 121.747 35.9442C121.735 35.9037 121.72 35.8644 121.701 35.8268L121.625 35.9233C121.585 36.033 121.487 36.1219 121.396 36.1124C121.305 36.1029 121.258 36.003 121.205 35.889L121.149 35.7678C121.124 35.8015 121.101 35.8367 121.081 35.8733C121.039 35.9883 120.957 36.0829 120.864 36.0786C120.771 36.0743 120.717 35.9778 120.659 35.8618L120.598 35.7511C120.581 35.79 120.566 35.8302 120.555 35.8713C120.515 35.9811 120.443 36.0795 120.348 36.0804C120.253 36.0813 120.194 35.9829 120.132 35.8774L120.065 35.77C120.053 35.8014 120.034 35.8537 120.021 35.8903C120.008 35.9269 119.939 36.115 119.827 36.1155C119.714 36.116 119.671 36.0233 119.601 35.9211L119.527 35.817C119.51 35.856 119.495 35.8962 119.483 35.9372C119.441 36.0522 119.401 36.162 119.304 36.1682C119.207 36.1743 119.132 36.1054 119.066 35.9928C119.043 35.9563 119.016 35.9225 118.985 35.892C118.968 35.9311 118.953 35.9713 118.941 36.0122C118.899 36.1272 118.859 36.237 118.771 36.2522C118.682 36.2674 118.598 36.1894 118.522 36.0906L118.438 35.995C118.421 36.0341 118.406 36.0742 118.395 36.1153C118.351 36.2355 118.313 36.3401 118.243 36.3681C118.174 36.3961 118.071 36.3053 117.982 36.2255C117.954 36.1944 117.922 36.1669 117.887 36.1437C117.876 36.1751 117.857 36.2274 117.843 36.264C117.83 36.3005 117.807 36.4935 117.744 36.5358C117.682 36.5781 117.572 36.473 117.462 36.4331L117.359 36.3599L117.364 36.492C117.366 36.617 117.363 36.7225 117.267 36.7586C117.171 36.7947 117.084 36.7572 116.973 36.7049C116.929 36.6836 116.884 36.667 116.837 36.6554L116.725 36.5081Z" fill="#0092ED"/>
    <path d="M115.804 31.2304L115.861 31.0736C115.902 31.0432 115.94 31.0095 115.975 30.9728C116.06 30.8854 116.143 30.8032 116.231 30.8231C116.318 30.8431 116.354 30.9391 116.395 31.0546C116.436 31.1701 116.428 31.1435 116.439 31.1772L116.511 31.0789C116.552 30.9639 116.637 30.8764 116.732 30.8755C116.827 30.8746 116.874 30.9744 116.934 31.0851L117 31.1978C117.011 31.1664 117.03 31.1141 117.044 31.0775C117.057 31.0409 117.125 30.8527 117.243 30.8542C117.361 30.8556 117.396 30.9393 117.465 31.0415L117.545 31.1474C117.556 31.1161 117.575 31.0638 117.589 31.0272C117.602 30.9906 117.67 30.8024 117.764 30.7891C117.858 30.7759 117.931 30.85 118.004 30.9593C118.029 30.9936 118.057 31.0256 118.087 31.0549L118.131 30.9346C118.173 30.8196 118.213 30.7098 118.288 30.6837C118.362 30.6576 118.46 30.7465 118.538 30.8401L118.629 30.9323C118.646 30.8931 118.661 30.853 118.673 30.8121C118.715 30.6971 118.755 30.5873 118.821 30.5522C118.887 30.517 118.993 30.6149 119.081 30.7C119.11 30.7292 119.142 30.7565 119.175 30.7817C119.192 30.7444 119.206 30.706 119.217 30.6668C119.259 30.5517 119.262 30.4286 119.349 30.4011C119.436 30.3735 119.522 30.4639 119.626 30.5019L119.721 30.5837C119.74 30.5454 119.755 30.5051 119.764 30.4634C119.78 30.3389 119.795 30.232 119.865 30.1864C119.935 30.1407 120.038 30.2491 120.147 30.2891L120.246 30.3604C120.262 30.3229 120.276 30.2845 120.288 30.2454C120.293 30.1171 120.303 30.0082 120.388 29.9683C120.474 29.9284 120.569 29.9926 120.665 30.0691L120.78 30.1109C120.785 30.0683 120.787 30.0255 120.786 29.9826C120.784 29.8576 120.783 29.745 120.885 29.7108C120.986 29.6766 121.064 29.7227 121.173 29.7802L121.293 29.824L121.278 29.6881C121.263 29.5645 121.254 29.4604 121.322 29.4024L121.422 29.5336C121.42 29.5843 121.423 29.6352 121.432 29.6852C121.447 29.8088 121.461 29.9324 121.377 29.9846C121.293 30.0369 121.201 29.9798 121.088 29.9152L120.963 29.8696L120.958 29.9978C120.96 30.1228 120.963 30.2426 120.855 30.2801C120.747 30.3176 120.674 30.2559 120.578 30.1793L120.469 30.1042C120.459 30.1467 120.453 30.1902 120.452 30.234C120.443 30.3552 120.434 30.4763 120.349 30.5163C120.263 30.5562 120.176 30.4535 120.067 30.4136L119.965 30.3351C119.946 30.3734 119.931 30.4137 119.921 30.4553C119.879 30.5704 119.894 30.6939 119.818 30.7376C119.743 30.7814 119.651 30.6768 119.553 30.6055L119.451 30.5271C119.435 30.5663 119.42 30.6064 119.408 30.6473C119.366 30.7623 119.362 30.8854 119.275 30.9129C119.188 30.9405 119.103 30.8502 119.014 30.7703L118.916 30.6814C118.898 30.7223 118.883 30.7642 118.87 30.8069C118.828 30.9219 118.814 31.0412 118.717 31.0649C118.62 31.0887 118.545 31.0022 118.466 30.9085L118.37 30.8144C118.359 30.8458 118.338 30.9033 118.325 30.9399C118.283 31.0549 118.243 31.1647 118.163 31.1889C118.083 31.2131 117.991 31.1261 117.913 31.0149C117.89 30.9792 117.861 30.9469 117.829 30.9194C117.812 30.9584 117.797 30.9986 117.785 31.0396C117.742 31.1599 117.702 31.2696 117.603 31.281C117.504 31.2924 117.436 31.2201 117.37 31.0899L117.296 30.9858C117.278 31.0265 117.263 31.0684 117.25 31.1113C117.208 31.2263 117.168 31.3361 117.051 31.3346C116.933 31.3332 116.899 31.232 116.833 31.1193L116.773 31.0086C116.743 31.0439 116.715 31.0814 116.691 31.1207C116.649 31.2357 116.564 31.3231 116.472 31.3136C116.381 31.3041 116.328 31.1901 116.284 31.0674L116.238 30.95C116.201 30.9806 116.165 31.0131 116.131 31.0474C115.966 31.1767 115.883 31.2589 115.804 31.2304Z" fill="#003399"/>
    <path d="M121.246 37.4193L119.678 28.7207C119.597 28.2447 119.707 27.7559 119.983 27.3602C120.26 26.9646 120.682 26.694 121.157 26.6071L155.734 20.4956C158.908 19.7917 166.596 20.0975 167.424 24.7497C168.248 29.4125 161.114 32.3333 157.909 32.7653L123.332 38.8767C122.863 38.9491 122.385 38.8379 121.997 38.5664C121.608 38.295 121.34 37.8841 121.246 37.4193Z" fill="#003399"/>
    <path d="M122.221 36.6083L120.902 29.143C120.831 28.7345 120.922 28.3144 121.157 27.9728C121.392 27.6311 121.752 27.3951 122.159 27.3153L150.84 22.249C153.564 21.6421 160.179 21.9063 160.889 25.906C161.597 29.911 155.473 32.4299 152.708 32.7912L124.037 37.8789C123.628 37.9495 123.207 37.8556 122.867 37.6176C122.527 37.3796 122.295 37.0169 122.221 36.6083Z" fill="#6F8BC5"/>
    <path d="M154.839 21.5379C156.991 21.1371 161.683 22.4066 162.262 25.6778L165.983 25.0135C165.476 22.0821 161.719 20.3241 154.839 21.5379Z" fill="#31282B"/>
    <path d="M156.713 32.1116C158.865 31.7108 162.848 28.9454 162.272 25.6813L165.994 25.017C166.515 27.9593 163.588 30.8959 156.713 32.1116Z" fill="#31282B"/>
    <path d="M128.648 25.7596L122.404 26.8628L122.476 27.2681L128.719 26.1649L128.648 25.7596Z" fill="#31282B"/>
    <path d="M136.497 24.379L130.254 25.4822L130.325 25.8875L136.569 24.7843L136.497 24.379Z" fill="#31282B"/>
    <path d="M144.349 22.9883L138.105 24.0916L138.177 24.4969L144.42 23.3937L144.349 22.9883Z" fill="#31282B"/>
    <path d="M152.197 21.6024L145.953 22.7056L146.025 23.1109L152.268 22.0077L152.197 21.6024Z" fill="#31282B"/>
    <path d="M130.581 36.7403L124.338 37.8435L124.409 38.2489L130.653 37.1456L130.581 36.7403Z" fill="#31282B"/>
    <path d="M138.431 35.3546L132.188 36.4578L132.259 36.8631L138.502 35.7599L138.431 35.3546Z" fill="#31282B"/>
    <path d="M146.281 33.9637L140.037 35.0669L140.109 35.4722L146.352 34.369L146.281 33.9637Z" fill="#31282B"/>
    <path d="M154.128 32.5779L147.885 33.6812L147.956 34.0865L154.2 32.9833L154.128 32.5779Z" fill="#31282B"/>
    <path opacity="0.2" d="M144.614 24.8899L143.984 25.0012C143.488 25.0889 143.157 25.5621 143.244 26.0582L144.433 32.7959C144.521 33.2921 144.994 33.6232 145.49 33.5356L146.12 33.4243C146.616 33.3366 146.947 32.8634 146.859 32.3672L145.671 25.6295C145.583 25.1334 145.11 24.8023 144.614 24.8899Z" fill="black"/>
    <path d="M144.133 24.553L143.504 24.6643C143.008 24.7519 142.676 25.2252 142.764 25.7214L143.953 32.459C144.04 32.9552 144.513 33.2863 145.009 33.1987L145.639 33.0874C146.135 32.9997 146.466 32.5265 146.379 32.0303L145.19 25.2927C145.103 24.7965 144.63 24.4654 144.133 24.553Z" fill="#DED2D3"/>
    <path d="M142.888 26.4285L121.08 30.282L121.108 30.4408L142.916 26.5873L142.888 26.4285Z" fill="#435266"/>
    <path d="M142.955 26.8206L121.146 30.6741L121.175 30.8329L142.983 26.9794L142.955 26.8206Z" fill="#435266"/>
    <path d="M143.789 31.5457L121.98 35.3992L122.008 35.558L143.817 31.7046L143.789 31.5457Z" fill="#435266"/>
    <path d="M143.496 25.2205L143.244 25.2649L143.289 25.5219L143.541 25.4774L143.496 25.2205Z" fill="#435266"/>
    <path d="M143.583 25.7485L143.332 25.793L143.377 26.0499L143.629 26.0055L143.583 25.7485Z" fill="#435266"/>
    <path d="M143.683 26.2886L143.432 26.333L143.477 26.59L143.728 26.5455L143.683 26.2886Z" fill="#435266"/>
    <path d="M143.779 26.8157L143.527 26.8601L143.573 27.117L143.824 27.0726L143.779 26.8157Z" fill="#435266"/>
    <path d="M144.759 32.4163L144.508 32.4607L144.553 32.7177L144.805 32.6732L144.759 32.4163Z" fill="#435266"/>
    <path d="M144.669 31.8879L144.418 31.9324L144.463 32.1893L144.715 32.1449L144.669 31.8879Z" fill="#435266"/>
    <path d="M144.578 31.3555L144.326 31.3999L144.372 31.6568L144.623 31.6124L144.578 31.3555Z" fill="#435266"/>
    <path d="M144.478 30.8211L144.227 30.8655L144.272 31.1224L144.523 31.078L144.478 30.8211Z" fill="#435266"/>
    <path d="M162.419 20.7441C162.168 20.7003 161.736 20.993 161.87 21.1955C162.003 21.3979 164.019 21.5161 164.165 21.3916C164.311 21.2671 162.63 20.7798 162.419 20.7441Z" fill="#6F8BC5"/>
    <path d="M164.091 30.2623C163.873 30.3901 163.37 30.2603 163.428 30.0208C163.485 29.7813 165.335 28.9745 165.54 29.0135C165.745 29.0525 164.284 30.1549 164.091 30.2623Z" fill="#6F8BC5"/>
    <path d="M114.184 27.8466L83.9217 33.2078C83.6855 33.2488 83.4597 33.3361 83.2574 33.4646C83.0551 33.5932 82.8801 33.7605 82.7426 33.957C82.6051 34.1534 82.5078 34.3751 82.4563 34.6093C82.4048 34.8434 82.4 35.0855 82.4424 35.3214L83.9745 44.0068C84.0586 44.4832 84.3284 44.9067 84.7247 45.1841C85.1209 45.4615 85.6111 45.5701 86.0874 45.486L116.346 40.1353C116.821 40.0496 117.244 39.7798 117.522 39.3844C117.8 38.9891 117.91 38.5 117.83 38.0235L116.298 29.3382C116.213 28.8613 115.943 28.4373 115.547 28.1581C115.151 27.8789 114.662 27.7669 114.184 27.8466Z" fill="#003399"/>
    <path d="M113.516 28.8528L84.7128 33.9457C84.2415 34.0354 83.8247 34.3079 83.5532 34.7036C83.2817 35.0993 83.1776 35.5863 83.2634 36.0584L84.4945 43.018C84.5335 43.2523 84.6183 43.4766 84.7441 43.678C84.8698 43.8795 85.034 44.0542 85.2272 44.1921C85.4205 44.3301 85.639 44.4286 85.8704 44.482C86.1017 44.5354 86.3413 44.5427 86.5755 44.5035L115.379 39.4106C115.785 39.3361 116.145 39.1034 116.379 38.7636C116.614 38.4239 116.704 38.0048 116.63 37.5987L115.311 30.1334C115.24 29.7266 115.012 29.3641 114.676 29.1244C114.34 28.8847 113.924 28.7871 113.516 28.8528Z" fill="#6F8BC5"/>
    <path d="M113.505 28.4354L107.262 29.5386L107.333 29.9439L113.577 28.8407L113.505 28.4354Z" fill="#31282B"/>
    <path d="M105.486 31.3206L99.2188 32.4141L99.2896 32.821L105.557 31.7275L105.486 31.3206Z" fill="#31282B"/>
    <path d="M97.8059 31.2122L91.5625 32.3154L91.634 32.7208L97.8774 31.6176L97.8059 31.2122Z" fill="#31282B"/>
    <path d="M89.9582 32.5975L83.7148 33.7007L83.7864 34.106L90.0298 33.0028L89.9582 32.5975Z" fill="#31282B"/>
    <path d="M115.312 40.958L109.045 42.0515L109.116 42.4584L115.383 41.3649L115.312 40.958Z" fill="#31282B"/>
    <path d="M107.595 40.7984L101.352 41.9016L101.423 42.307L107.666 41.2038L107.595 40.7984Z" fill="#31282B"/>
    <path d="M99.7375 42.1873L93.4941 43.2905L93.5657 43.6959L99.8091 42.5927L99.7375 42.1873Z" fill="#31282B"/>
    <path d="M91.8899 43.5731L85.6465 44.6763L85.718 45.0816L91.9614 43.9784L91.8899 43.5731Z" fill="#31282B"/>
    <path opacity="0.2" d="M105.335 31.8306L104.705 31.9419C104.209 32.0295 103.878 32.5028 103.965 32.9989L105.154 39.7366C105.241 40.2327 105.714 40.5639 106.21 40.4762L106.84 40.3649C107.336 40.2773 107.668 39.804 107.58 39.3079L106.391 32.5702C106.304 32.0741 105.831 31.7429 105.335 31.8306Z" fill="black"/>
    <path d="M104.856 31.4937L104.226 31.605C103.73 31.6926 103.399 32.1659 103.487 32.662L104.675 39.3997C104.763 39.8958 105.236 40.227 105.732 40.1393L106.362 40.0281C106.858 39.9404 107.189 39.4671 107.101 38.971L105.913 32.2333C105.825 31.7372 105.352 31.406 104.856 31.4937Z" fill="#DED2D3"/>
    <path d="M103.611 33.3739L83.3965 36.9458L83.4245 37.1047L103.639 33.5328L103.611 33.3739Z" fill="#435266"/>
    <path d="M103.677 33.7577L83.4629 37.3296L83.4909 37.4884L103.705 33.9166L103.677 33.7577Z" fill="#435266"/>
    <path d="M104.513 38.4909L84.2988 42.0627L84.3269 42.2216L104.541 38.6497L104.513 38.4909Z" fill="#435266"/>
    <path d="M104.043 33.6579L103.791 33.7019L103.836 33.9599L104.088 33.9158L104.043 33.6579Z" fill="#435266"/>
    <path d="M104.308 32.6946L104.057 32.739L104.102 32.9959L104.353 32.9515L104.308 32.6946Z" fill="#435266"/>
    <path d="M104.4 33.2268L104.148 33.2712L104.194 33.5282L104.445 33.4838L104.4 33.2268Z" fill="#435266"/>
    <path d="M157.322 35.3005L157.07 35.345L157.116 35.6019L157.367 35.5575L157.322 35.3005Z" fill="#435266"/>
    <path d="M105.482 39.3621L105.23 39.4065L105.276 39.6634L105.527 39.619L105.482 39.3621Z" fill="#435266"/>
    <path d="M105.394 38.8232L105.143 38.8677L105.188 39.1246L105.439 39.0802L105.394 38.8232Z" fill="#435266"/>
    <path d="M105.298 38.2961L105.047 38.3406L105.092 38.5975L105.344 38.5531L105.298 38.2961Z" fill="#435266"/>
    <path d="M105.201 37.7615L104.949 37.8059L104.995 38.0629L105.246 38.0184L105.201 37.7615Z" fill="#435266"/>
    <path d="M46.5003 51.6215C45.7612 48.1559 45.1386 44.6143 44.6471 41.1026C44.594 40.7281 44.6274 40.4088 44.721 40.3955L49.3386 39.5778C49.4322 39.5645 49.5632 39.8549 49.6287 40.2279L51.4857 50.7363C51.5511 51.1094 51.523 51.4307 51.4294 51.444L46.817 52.2636C46.7234 52.2769 46.5781 51.9931 46.5003 51.6215Z" fill="#2B3542"/>
    <path d="M39.4363 52.8689C38.692 49.4014 38.0694 45.8598 37.5759 42.3534C37.5229 41.9789 37.5615 41.6614 37.657 41.6429L42.2675 40.8285C42.363 40.81 42.494 41.1004 42.5594 41.4734L44.4165 51.9818C44.4819 52.3549 44.4609 52.6728 44.3654 52.6914L39.7497 53.5039C39.6366 53.5219 39.5141 53.2405 39.4363 52.8689Z" fill="#2B3542"/>
    <path d="M44.409 45.8104L44.6713 47.2851C44.677 47.355 44.6619 47.425 44.628 47.4864C44.5941 47.5478 44.5428 47.5978 44.4806 47.6301L42.7294 48.5556L42.1471 45.2773L44.1136 45.549C44.1836 45.5571 44.2495 45.5865 44.3024 45.6333C44.3552 45.68 44.3924 45.7418 44.409 45.8104Z" fill="#2C3542"/>
    <path d="M44.4076 45.8104L44.6698 47.2851C44.6882 47.3526 44.7263 47.4131 44.7793 47.4588C44.8322 47.5044 44.8977 47.5332 44.9672 47.5413L46.9337 47.8129L46.3513 44.5346L44.6001 45.4602C44.5372 45.4932 44.4853 45.544 44.4511 45.6063C44.4168 45.6686 44.4017 45.7396 44.4076 45.8104Z" fill="#2C3542"/>
    <path d="M44.3787 45.6461C44.5563 45.6147 44.7393 45.6367 44.9044 45.7093C45.0696 45.7819 45.2095 45.9019 45.3064 46.054C45.4033 46.2062 45.453 46.3837 45.4491 46.5641C45.4452 46.7445 45.3878 46.9197 45.2844 47.0675C45.1809 47.2153 45.0359 47.3292 44.8678 47.3946C44.6997 47.46 44.5159 47.4741 44.3398 47.4351C44.1637 47.3961 44.0031 47.3057 43.8784 47.1753C43.7536 47.045 43.6703 46.8806 43.639 46.7029C43.5971 46.4647 43.6514 46.2195 43.7901 46.0213C43.9288 45.8231 44.1405 45.6882 44.3787 45.6461Z" fill="#435266"/>
    <path d="M44.4591 46.0775C44.551 46.0626 44.6453 46.0752 44.7301 46.1138C44.8148 46.1523 44.8864 46.215 44.9356 46.294C44.9849 46.3731 45.0097 46.4649 45.007 46.558C45.0042 46.6511 44.9741 46.7414 44.9203 46.8174C44.8665 46.8934 44.7914 46.9519 44.7045 46.9854C44.6176 47.0189 44.5228 47.026 44.4319 47.0058C44.341 46.9856 44.258 46.939 44.1935 46.8718C44.129 46.8046 44.0858 46.7199 44.0693 46.6282C44.0483 46.5036 44.0775 46.3757 44.1506 46.2725C44.2236 46.1693 44.3345 46.0992 44.4591 46.0775Z" fill="#FFDD00"/>
    <path d="M42.4917 49.6298C42.5673 49.5685 42.6732 49.6189 42.7844 49.6712C42.826 49.692 42.8698 49.7079 42.915 49.7187C42.9213 49.6762 42.923 49.6333 42.9203 49.5904C42.9185 49.4654 42.9166 49.3404 43.0249 49.3029C43.1333 49.2654 43.2036 49.3324 43.3019 49.4037L43.4159 49.4807L43.4578 49.3657C43.5015 49.2455 43.4944 49.1186 43.5624 49.0782C43.6304 49.0378 43.7348 49.1409 43.826 49.2156L43.9272 49.3116C43.945 49.2707 43.9603 49.2288 43.9729 49.1861C44.0147 49.0711 44.0547 48.9614 44.1312 48.93C44.2077 48.8986 44.2984 48.9909 44.3801 49.0916C44.406 49.1273 44.4358 49.16 44.4689 49.1891C44.4861 49.15 44.5007 49.1098 44.5127 49.0688C44.5564 48.9486 44.5964 48.8388 44.6847 48.8236C44.7731 48.8084 44.8572 48.8864 44.9279 49.0009C44.9514 49.0374 44.9788 49.0712 45.0096 49.1017C45.027 49.0627 45.0416 49.0225 45.0534 48.9814C45.0952 48.8664 45.1371 48.7515 45.2392 48.7472C45.3414 48.7429 45.397 48.8342 45.4663 48.9364C45.4904 48.9747 45.5164 49.0118 45.5442 49.0476L45.5898 48.9221C45.6317 48.8071 45.6716 48.6973 45.7895 48.6988C45.9073 48.7002 45.9434 48.7962 46.0037 48.907L46.0763 49.0163L46.1201 48.8961C46.1638 48.7758 46.2332 48.6827 46.3283 48.6818C46.4233 48.6808 46.4784 48.7897 46.5335 48.8985L46.599 49.0111C46.616 48.972 46.6306 48.9318 46.6427 48.8909C46.6846 48.7759 46.7716 48.6832 46.8628 48.6928C46.954 48.7023 47.011 48.8059 47.0589 48.9181L47.1173 49.034L47.1977 48.9271C47.269 48.8287 47.3332 48.7337 47.4296 48.7451C47.5261 48.7565 47.5669 48.872 47.6077 48.9875L47.6537 49.1049C47.6936 49.0915 47.7328 49.0761 47.7711 49.0588C47.8496 48.9571 47.9204 48.8764 48.0149 48.893C48.1095 48.9097 48.1413 49.0337 48.1711 49.163C48.1774 49.2119 48.1922 49.2593 48.2148 49.3032L48.1596 49.4548C48.076 49.4243 48.049 49.3198 48.0205 49.2029C48.0119 49.1599 47.9995 49.1177 47.9835 49.0769L47.9037 49.1662C47.8271 49.2627 47.7473 49.352 47.658 49.3373C47.5686 49.3226 47.5292 49.2194 47.4903 49.0987C47.4514 48.978 47.4575 49.0098 47.439 48.9794L47.3625 49.0759C47.3206 49.1909 47.2251 49.2745 47.1339 49.265C47.0427 49.2555 46.9961 49.1557 46.943 49.0416L46.8846 48.9256C46.8751 48.9518 46.856 49.004 46.8166 49.0311C46.7771 49.0582 46.6949 49.2355 46.6018 49.2312C46.5086 49.2269 46.455 49.1304 46.3966 49.0144L46.3363 48.9037C46.3188 48.9426 46.3042 48.9828 46.2925 49.0239C46.2507 49.1389 46.1813 49.2321 46.0862 49.233C45.9912 49.234 45.9323 49.1356 45.8701 49.03L45.8027 48.9226C45.7913 48.954 45.7723 49.0063 45.7589 49.0429C45.7171 49.1579 45.6771 49.2677 45.5645 49.2681C45.4519 49.2686 45.4087 49.1759 45.3394 49.0737L45.2648 48.9696C45.2534 49.001 45.2344 49.0532 45.2211 49.0898C45.2078 49.1264 45.1393 49.3146 45.0404 49.326C44.9416 49.3374 44.868 49.2632 44.8044 49.1454L44.7227 49.0446C44.7055 49.0837 44.6909 49.1239 44.6789 49.1649C44.6371 49.2799 44.5971 49.3896 44.5087 49.4048C44.4204 49.42 44.3415 49.3439 44.2598 49.2432L44.1762 49.1477C44.1585 49.1885 44.1432 49.2304 44.1306 49.2731C44.0887 49.3881 44.0507 49.4927 43.9813 49.5207C43.9119 49.5487 43.8089 49.458 43.7196 49.3781C43.6898 49.3489 43.6582 49.3216 43.625 49.2963C43.6136 49.3277 43.5946 49.38 43.5813 49.4166C43.568 49.4532 43.5451 49.6461 43.4824 49.6884C43.4196 49.7307 43.3004 49.6518 43.2002 49.5857L43.0966 49.5125L43.1018 49.6446C43.1037 49.7696 43.1008 49.8751 43.0048 49.9112C42.9088 49.9473 42.8219 49.9098 42.7107 49.8575C42.6673 49.8362 42.6218 49.8196 42.5748 49.808L42.4917 49.6298Z" fill="#0092ED"/>
    <path d="M41.5615 44.3481L41.6167 44.1965C41.6573 44.1662 41.6953 44.1325 41.7303 44.0958C41.8153 44.0084 41.8985 43.9261 41.986 43.9461C42.0734 43.9661 42.1094 44.0621 42.1503 44.1776C42.1911 44.2931 42.183 44.2665 42.1944 44.3002L42.2657 44.2018C42.3076 44.0868 42.3926 43.9994 42.4877 43.9985C42.5827 43.9975 42.6292 44.0973 42.6895 44.2081L42.7551 44.3207C42.7715 44.2834 42.7855 44.2449 42.7969 44.2057C42.8407 44.0855 42.8806 43.9757 42.9984 43.9771C43.1163 43.9786 43.1604 44.0361 43.2203 44.1644L43.3001 44.2704C43.3115 44.239 43.3305 44.1868 43.3438 44.1502C43.3857 44.0352 43.4256 43.9254 43.5192 43.9121C43.6128 43.8988 43.6864 43.973 43.7591 44.0823C43.7851 44.1157 43.813 44.1476 43.8427 44.1778C43.8599 44.1387 43.8745 44.0986 43.8864 44.0576C43.9283 43.9426 43.9682 43.8328 44.0428 43.8067C44.1174 43.7805 44.2153 43.8695 44.2937 43.9631L44.3844 44.0553C44.4013 44.0161 44.4159 43.976 44.4281 43.9351C44.47 43.8201 44.5099 43.7103 44.5741 43.6803C44.6382 43.6504 44.7465 43.7431 44.8358 43.823L44.9285 43.9099C44.9459 43.871 44.9605 43.8308 44.9722 43.7897C45.0141 43.6747 45.0174 43.5516 45.1044 43.5241C45.1913 43.4965 45.2768 43.5868 45.3718 43.651L45.4716 43.7346C45.483 43.7033 45.502 43.651 45.4892 43.6049C45.5311 43.4899 45.5202 43.3735 45.5881 43.3331C45.6561 43.2927 45.7606 43.3958 45.8703 43.4358L45.9668 43.5123C45.9859 43.474 46.0006 43.4337 46.0105 43.3921C46.021 43.2657 46.0258 43.1549 46.1113 43.115C46.1969 43.0751 46.29 43.1445 46.3883 43.2158C46.425 43.2339 46.4635 43.248 46.5033 43.2576C46.5147 43.2263 46.5318 43.1792 46.5085 43.1293C46.4853 43.0794 46.5043 42.8969 46.6075 42.8575C46.7106 42.8181 46.7918 42.8713 46.8896 42.9602L47.0046 43.002L46.989 42.8661C46.9748 42.7426 46.9653 42.6385 47.0371 42.5876L47.132 42.7169C47.1295 42.7677 47.1329 42.8185 47.142 42.8685C47.1543 42.9973 47.1704 43.1156 47.0863 43.1679C47.0022 43.2202 46.9086 43.1684 46.796 43.1037C46.7562 43.0835 46.7141 43.0682 46.6706 43.0581L46.6653 43.1864C46.6672 43.3114 46.6709 43.4311 46.5626 43.4687C46.4542 43.5062 46.3801 43.4496 46.2856 43.3679C46.2473 43.349 46.207 43.3343 46.1654 43.3241C46.1473 43.3608 46.1332 43.3994 46.1236 43.4392C46.1131 43.5656 46.1064 43.6815 46.0208 43.7214C45.9353 43.7613 45.8484 43.6587 45.7387 43.6187L45.637 43.5403C45.6175 43.5784 45.6028 43.6188 45.5933 43.6605C45.5514 43.7755 45.5637 43.9043 45.4905 43.9428C45.4173 43.9813 45.3181 43.8801 45.2083 43.8401C45.1785 43.8084 45.145 43.7803 45.1086 43.7565C45.0918 43.7957 45.0772 43.8358 45.0648 43.8767C45.023 43.9917 45.0196 44.1148 44.9326 44.1423C44.8457 44.1699 44.7602 44.0796 44.6709 43.9997L44.573 43.9108C44.5553 43.9517 44.54 43.9936 44.5274 44.0363C44.4855 44.1513 44.4456 44.2611 44.3743 44.2943C44.303 44.3276 44.2019 44.2316 44.1235 44.1379L44.0328 44.0457C44.015 44.0866 43.9997 44.1285 43.9871 44.1712C43.9453 44.2862 43.9053 44.396 43.8255 44.4202C43.7457 44.4444 43.653 44.3574 43.5752 44.2462C43.5502 44.212 43.5222 44.18 43.4916 44.1507C43.4736 44.1915 43.4584 44.2334 43.4459 44.2762C43.4041 44.3912 43.3641 44.5009 43.2653 44.5123C43.1664 44.5237 43.1076 44.4253 43.033 44.3212L42.9584 44.2172C42.9403 44.2579 42.9251 44.2998 42.9128 44.3426C42.869 44.4628 42.831 44.5674 42.7132 44.5659C42.5953 44.5645 42.5612 44.4632 42.5009 44.3525L42.4515 44.1629C42.4213 44.1982 42.3939 44.2357 42.3693 44.275C42.3274 44.39 42.2423 44.4775 42.1492 44.4732C42.0561 44.4689 42.0067 44.3444 41.9626 44.2218L41.9165 44.1043C41.8793 44.1349 41.8438 44.1674 41.8101 44.2018C41.7335 44.2982 41.6504 44.3804 41.5615 44.3481Z" fill="#003399"/>
    <path d="M39.9503 40.968L9.70777 46.3245C9.23145 46.4087 8.80802 46.6786 8.53061 47.075C8.25319 47.4714 8.1445 47.9617 8.22844 48.4382L9.74306 57.123C9.82714 57.5994 10.097 58.0229 10.4932 58.3003C10.8894 58.5777 11.3796 58.6863 11.8559 58.6023L42.1056 53.2425C42.5811 53.1567 43.0037 52.8869 43.2816 52.4916C43.5596 52.0962 43.6704 51.6072 43.5902 51.1307L42.0684 42.4492C41.9808 41.9735 41.7094 41.5514 41.3131 41.2742C40.9167 40.997 40.4272 40.887 39.9503 40.968Z" fill="#003399"/>
    <path d="M39.2836 41.9737L10.4803 47.0666C10.0119 47.1573 9.59775 47.4285 9.32733 47.8218C9.0569 48.2151 8.95181 48.6989 9.03474 49.1689L10.2815 56.1342C10.3205 56.3685 10.4053 56.5928 10.531 56.7942C10.6568 56.9957 10.821 57.1704 11.0142 57.3083C11.2075 57.4463 11.426 57.5448 11.6574 57.5982C11.8887 57.6516 12.1283 57.6589 12.3625 57.6197L41.1658 52.5268C41.5719 52.4523 41.9317 52.2195 42.1664 51.8798C42.401 51.54 42.4911 51.121 42.417 50.7149L41.0977 43.2495C41.0263 42.8397 40.7951 42.475 40.4549 42.2358C40.1147 41.9965 39.6934 41.9022 39.2836 41.9737Z" fill="#6F8BC5"/>
    <path d="M39.2707 41.5523L33.0273 42.6555L33.0989 43.0609L39.3423 41.9577L39.2707 41.5523Z" fill="#31282B"/>
    <path d="M31.4211 42.9432L25.1777 44.0464L25.2492 44.4517L31.4926 43.3485L31.4211 42.9432Z" fill="#31282B"/>
    <path d="M23.5715 44.3289L17.3281 45.4321L17.3996 45.8375L23.643 44.7343L23.5715 44.3289Z" fill="#31282B"/>
    <path d="M15.7239 45.7149L9.48047 46.8181L9.55198 47.2235L15.7954 46.1203L15.7239 45.7149Z" fill="#31282B"/>
    <path d="M41.2043 52.5333L34.9609 53.6365L35.0325 54.0418L41.2759 52.9386L41.2043 52.5333Z" fill="#31282B"/>
    <path d="M33.3547 53.9241L27.1113 55.0273L27.1828 55.4327L33.4262 54.3295L33.3547 53.9241Z" fill="#31282B"/>
    <path d="M25.5051 55.3096L19.2617 56.4128L19.3332 56.8182L25.5766 55.715L25.5051 55.3096Z" fill="#31282B"/>
    <path d="M17.6555 56.69L11.4121 57.7932L11.4836 58.1986L17.727 57.0954L17.6555 56.69Z" fill="#31282B"/>
    <path opacity="0.2" d="M30.6295 46.4899L29.9973 46.6003C29.4994 46.6871 29.166 47.1613 29.2528 47.6594L30.431 54.4228C30.5178 54.9208 30.9918 55.2541 31.4897 55.1673L32.1219 55.057C32.6199 54.9701 32.9532 54.4959 32.8664 53.9979L31.6882 47.2344C31.6015 46.7364 31.1275 46.4031 30.6295 46.4899Z" fill="black"/>
    <path d="M30.6159 44.6087L29.9861 44.72C29.49 44.8076 29.1589 45.2809 29.2464 45.777L30.4351 52.5147C30.5226 53.0108 30.9957 53.342 31.4917 53.2543L32.1215 53.143C32.6176 53.0554 32.9488 52.5821 32.8612 52.086L31.6725 45.3483C31.585 44.8522 31.1119 44.521 30.6159 44.6087Z" fill="#DED2D3"/>
    <path d="M29.3726 46.4889L9.1582 50.0608L9.18623 50.2196L29.4006 46.6478L29.3726 46.4889Z" fill="#435266"/>
    <path d="M29.4448 46.88L9.23047 50.4519L9.25849 50.6107L29.4729 47.0389L29.4448 46.88Z" fill="#435266"/>
    <path d="M30.273 51.6059L10.0586 55.1777L10.0866 55.3366L30.301 51.7647L30.273 51.6059Z" fill="#435266"/>
    <path d="M29.978 45.2761L29.7266 45.3206L29.7719 45.5775L30.0233 45.5331L29.978 45.2761Z" fill="#435266"/>
    <path d="M30.0737 45.8115L29.8223 45.856L29.8676 46.1129L30.119 46.0685L30.0737 45.8115Z" fill="#435266"/>
    <path d="M30.1655 46.3442L29.9141 46.3887L29.9594 46.6456L30.2108 46.6012L30.1655 46.3442Z" fill="#435266"/>
    <path d="M30.2592 46.8765L30.0078 46.9209L30.0531 47.1778L30.3046 47.1334L30.2592 46.8765Z" fill="#435266"/>
    <path d="M31.2475 52.479L30.9961 52.5234L31.0414 52.7804L31.2929 52.736L31.2475 52.479Z" fill="#435266"/>
    <path d="M31.1577 51.9509L30.9062 51.9954L30.9516 52.2523L31.203 52.2079L31.1577 51.9509Z" fill="#435266"/>
    <path d="M31.0581 51.4111L30.8066 51.4556L30.852 51.7125L31.1034 51.6681L31.0581 51.4111Z" fill="#435266"/>
    <path d="M30.9663 50.8789L30.7148 50.9233L30.7602 51.1803L31.0116 51.1358L30.9663 50.8789Z" fill="#435266"/>
    <path d="M76.5887 46.303C75.8444 42.8355 75.2217 39.2939 74.7283 35.7874C74.6771 35.4077 74.7138 35.0955 74.8093 35.077L79.4198 34.2626C79.5153 34.244 79.6463 34.5345 79.7118 34.9075L81.5669 45.4211C81.6323 45.7942 81.6113 46.1122 81.5158 46.1307L76.9053 46.9451C76.8065 46.9565 76.6664 46.6746 76.5887 46.303Z" fill="#2B3542"/>
    <path d="M77.1013 34.402L46.8431 39.7527C46.6069 39.7937 46.3812 39.881 46.1788 40.0096C45.9765 40.1382 45.8015 40.3055 45.664 40.502C45.5266 40.6984 45.4293 40.9201 45.3777 41.1542C45.3262 41.3884 45.3214 41.6304 45.3638 41.8664L46.896 50.5517C46.98 51.0281 47.2499 51.4516 47.6461 51.729C48.0423 52.0064 48.5325 52.1151 49.0088 52.031L79.2723 46.6822C79.7472 46.5952 80.1688 46.3246 80.4458 45.929C80.7227 45.5334 80.8326 45.0445 80.7516 44.5685L79.1986 35.8755C79.1104 35.4048 78.8417 34.9871 78.4498 34.7118C78.058 34.4365 77.5741 34.3253 77.1013 34.402Z" fill="#003399"/>
    <path d="M76.4399 35.4098L47.6314 40.5008C47.1608 40.5897 46.7444 40.8612 46.4732 41.2561C46.202 41.651 46.098 42.1371 46.1839 42.6083L47.4149 49.568C47.4534 49.8025 47.5377 50.0272 47.663 50.2291C47.7884 50.431 47.9523 50.6062 48.1454 50.7446C48.3385 50.8831 48.557 50.9821 48.7885 51.036C49.0199 51.0898 49.2597 51.0976 49.4941 51.0587L78.2993 45.9605C78.7053 45.886 79.0652 45.6533 79.2998 45.3135C79.5344 44.9738 79.6246 44.5548 79.5505 44.1486L78.2312 36.6833C78.1618 36.2772 77.9343 35.9151 77.5986 35.6765C77.2628 35.4378 76.8462 35.3419 76.4399 35.4098Z" fill="#6F8BC5"/>
    <path d="M76.425 34.9874L70.1816 36.0906L70.2532 36.4959L76.4966 35.3927L76.425 34.9874Z" fill="#31282B"/>
    <path d="M68.5735 36.3782L62.3301 37.4814L62.4016 37.8868L68.645 36.7836L68.5735 36.3782Z" fill="#31282B"/>
    <path d="M60.3708 39.2886L54.1035 40.3821L54.1744 40.789L60.4417 39.6955L60.3708 39.2886Z" fill="#31282B"/>
    <path d="M52.8782 39.1495L46.6348 40.2527L46.7063 40.658L52.9497 39.5548L52.8782 39.1495Z" fill="#31282B"/>
    <path d="M78.3547 45.9678L72.1113 47.071L72.1828 47.4764L78.4262 46.3732L78.3547 45.9678Z" fill="#31282B"/>
    <path d="M70.5071 47.3536L64.2637 48.4568L64.3352 48.8622L70.5786 47.759L70.5071 47.3536Z" fill="#31282B"/>
    <path d="M62.6575 48.7393L56.4141 49.8425L56.4856 50.2479L62.729 49.1447L62.6575 48.7393Z" fill="#31282B"/>
    <path d="M54.8079 50.1302L48.5645 51.2334L48.636 51.6387L54.8794 50.5355L54.8079 50.1302Z" fill="#31282B"/>
    <path opacity="0.2" d="M68.2546 38.3797L67.6247 38.491C67.1287 38.5786 66.7975 39.0518 66.885 39.548L68.0737 46.2857C68.1613 46.7818 68.6344 47.1129 69.1304 47.0253L69.7602 46.914C70.2563 46.8264 70.5874 46.3531 70.4999 45.857L69.3112 39.1193C69.2237 38.6231 68.7506 38.292 68.2546 38.3797Z" fill="black"/>
    <path d="M67.7702 38.0435L67.1404 38.1548C66.6443 38.2424 66.3131 38.7157 66.4007 39.2118L67.5894 45.9495C67.6769 46.4456 68.15 46.7768 68.646 46.6891L69.2758 46.5779C69.7719 46.4902 70.1031 46.0169 70.0155 45.5208L68.8268 38.7831C68.7393 38.287 68.2662 37.9558 67.7702 38.0435Z" fill="#DED2D3"/>
    <path d="M66.5269 39.924L46.3125 43.4958L46.3405 43.6547L66.5549 40.0829L66.5269 39.924Z" fill="#435266"/>
    <path d="M66.5972 40.3095L46.3828 43.8813L46.4108 44.0402L66.6252 40.4683L66.5972 40.3095Z" fill="#435266"/>
    <path d="M67.4273 45.0353L47.2129 48.6072L47.2409 48.7661L67.4553 45.1942L67.4273 45.0353Z" fill="#435266"/>
    <path d="M67.1303 38.7109L66.8789 38.7554L66.9242 39.0123L67.1757 38.9679L67.1303 38.7109Z" fill="#435266"/>
    <path d="M67.2299 39.24L66.9785 39.2844L67.0238 39.5414L67.2753 39.4969L67.2299 39.24Z" fill="#435266"/>
    <path d="M67.3198 39.7788L67.0684 39.8232L67.1137 40.0802L67.3651 40.0358L67.3198 39.7788Z" fill="#435266"/>
    <path d="M67.4116 40.3115L67.1602 40.356L67.2055 40.6129L67.4569 40.5685L67.4116 40.3115Z" fill="#435266"/>
    <path d="M68.4018 45.9143L68.1504 45.9587L68.1957 46.2157L68.4472 46.1713L68.4018 45.9143Z" fill="#435266"/>
    <path d="M68.31 45.3804L68.0586 45.4248L68.1039 45.6817L68.3554 45.6373L68.31 45.3804Z" fill="#435266"/>
    <path d="M68.2124 44.8462L67.9609 44.8906L68.0063 45.1476L68.2577 45.1032L68.2124 44.8462Z" fill="#435266"/>
    <path d="M68.1186 44.3191L67.8672 44.3635L67.9125 44.6205L68.1639 44.576L68.1186 44.3191Z" fill="#435266"/>
    <path d="M8.63111 48.3633L8.1875 48.4417L8.49386 50.1781L8.93747 50.0997L8.63111 48.3633Z" fill="#003399"/>
    <path d="M9.3457 57.2023L8.90039 57.28L9.20404 59.0231L9.64935 58.9454L9.3457 57.2023Z" fill="#003399"/>
</svg>
