<svg width="124" height="124" viewBox="0 0 124 124" fill="none" xmlns="http://www.w3.org/2000/svg">
    <path opacity="0.8" d="M20.9547 86.878L20.5601 84.5885L17.4499 85.1246L12.9603 59.0769L16.0705 58.5408L15.6759 56.2514L20.9891 55.3356L21.3837 57.625L93.9113 45.1243L93.5167 42.8349L98.8299 41.9191L99.2245 44.2086L102.335 43.6725L105.603 62.6359L106.251 62.5242L107.946 73.1298L107.587 73.3696C107.429 73.4857 92.2454 83.9757 69.2497 88.4952C46.2362 93.04 23.0042 88.0593 22.7733 88.0101L22.2863 87.8939L22.0882 86.6158L20.9547 86.878ZM23.5628 86.7843C26.9679 87.4428 48.0714 91.3004 69.001 87.1814C89.7579 83.0923 104.024 74.1171 106.44 72.522L106.029 69.8795L103.739 70.2741L104.134 72.5636L98.8207 73.4793L98.4261 71.1899C98.4261 71.1899 85.5695 80.2113 65.6691 84.1083C45.7509 88.0307 25.8986 83.6906 25.8986 83.6906L26.2932 85.98L23.5286 86.4566L23.5628 86.7843Z" fill="#505050"/>
    <path d="M100.291 35.2662L105.566 65.8718L100.252 66.7879L94.9765 36.1823L100.291 35.2662Z" fill="#0C2557"/>
    <path d="M80.6974 39.8846L85.5566 68.0771L83.2658 68.472L78.4066 40.2794L80.6974 39.8846Z" fill="#0C2557"/>
    <path d="M60.088 43.4525L64.9473 71.645L62.6564 72.0399L57.7972 43.8473L60.088 43.4525Z" fill="#0C2557"/>
    <path d="M39.4416 46.9959L44.3008 75.1885L42.0099 75.5833L37.1507 47.3907L39.4416 46.9959Z" fill="#0C2557"/>
    <path d="M22.4612 48.7103L27.7363 79.3159L22.4216 80.232L17.1465 49.6264L22.4612 48.7103Z" fill="#0C2557"/>
    <path d="M103.83 37.0144L108.32 63.0688L18.9165 78.4783L14.4258 52.4239L103.83 37.0144Z" fill="#5172B3"/>
    <path opacity="0.1287" d="M103.81 37.0185L108.301 63.073L105.094 63.6258L100.603 37.5713L103.81 37.0185Z" fill="#003399"/>
    <path opacity="0.3" d="M100.619 37.5662L105.109 63.6206L101.902 64.1734L97.4115 38.1189L100.619 37.5662Z" fill="#003399"/>
    <path opacity="0.1645" d="M97.4273 38.114L101.918 64.1685L98.7108 64.7212L94.2201 38.6668L97.4273 38.114Z" fill="#003399"/>
    <path opacity="0.1" d="M94.2359 38.6613L98.7266 64.7158L95.5194 65.2686L91.0287 39.2141L94.2359 38.6613Z" fill="#003399"/>
    <path opacity="0.08" d="M91.0445 39.209L95.5352 65.2634L92.328 65.8162L87.8373 39.7617L91.0445 39.209Z" fill="#003399"/>
    <path opacity="0.03" d="M84.6616 40.3044L89.1523 66.3589L85.9452 66.9117L81.4545 40.8572L84.6616 40.3044Z" fill="#003399"/>
    <path opacity="0.1758" d="M78.2788 41.3999L82.7695 67.4543L79.5624 68.0071L75.0717 41.9527L78.2788 41.3999Z" fill="#003399"/>
    <path opacity="0.03" d="M75.0933 41.978L79.584 68.0325L76.3768 68.5853L71.8861 42.5308L75.0933 41.978Z" fill="#003399"/>
    <path opacity="0.11" d="M71.9019 42.5259L76.3926 68.5803L73.1854 69.1331L68.6947 43.0787L71.9019 42.5259Z" fill="#003399"/>
    <path opacity="0.5" d="M68.7105 43.0732L73.2012 69.1277L69.994 69.6805L65.5033 43.626L68.7105 43.0732Z" fill="#003399"/>
    <path opacity="0.1758" d="M65.5191 43.6213L70.0098 69.6758L66.8026 70.2286L62.3119 44.1741L65.5191 43.6213Z" fill="#003399"/>
    <path opacity="0.1767" d="M62.2964 44.174L66.7871 70.2285L63.5799 70.7813L59.0892 44.7268L62.2964 44.174Z" fill="#003399"/>
    <path opacity="0.3246" d="M59.105 44.7214L63.5957 70.7759L60.3885 71.3287L55.8978 45.2742L59.105 44.7214Z" fill="#003399"/>
    <path opacity="0.5659" d="M55.9136 45.2693L60.4043 71.3237L57.1971 71.8765L52.7064 45.8221L55.9136 45.2693Z" fill="#003399"/>
    <path opacity="0.5" d="M52.7222 45.8169L57.2129 71.8713L54.0057 72.4241L49.515 46.3697L52.7222 45.8169Z" fill="#003399"/>
    <path opacity="0.65" d="M49.5308 46.3647L54.0215 72.4192L50.8143 72.972L46.3236 46.9175L49.5308 46.3647Z" fill="#003399"/>
    <path opacity="0.5215" d="M46.3394 46.9123L50.8301 72.9668L47.6229 73.5196L43.1322 47.4651L46.3394 46.9123Z" fill="#003399"/>
    <path opacity="0.5965" d="M43.148 47.4602L47.6387 73.5146L44.4315 74.0674L39.9408 48.013L43.148 47.4602Z" fill="#003399"/>
    <path opacity="0.6447" d="M39.9566 48.0078L44.4473 74.0623L41.2401 74.615L36.7494 48.5606L39.9566 48.0078Z" fill="#003399"/>
    <path opacity="0.5215" d="M36.7652 48.5557L41.2559 74.6101L38.0487 75.1629L33.558 49.1085L36.7652 48.5557Z" fill="#003399"/>
    <path opacity="0.82" d="M33.5796 49.1338L38.0703 75.1882L34.8631 75.741L30.3724 49.6865L33.5796 49.1338Z" fill="#003399"/>
    <path opacity="0.75" d="M30.3882 49.6811L34.8789 75.7356L31.6717 76.2884L27.181 50.2339L30.3882 49.6811Z" fill="#003399"/>
    <path opacity="0.4799" d="M27.1968 50.2293L31.6875 76.2837L28.4803 76.8365L23.9896 50.782L27.1968 50.2293Z" fill="#003399"/>
    <path opacity="0.65" d="M24.0054 50.7766L28.4961 76.8311L25.2889 77.3838L20.7982 51.3294L24.0054 50.7766Z" fill="#003399"/>
    <path opacity="0.9" d="M20.7847 51.3293L25.2754 77.3838L22.0682 77.9366L17.5775 51.8821L20.7847 51.3293Z" fill="#003399"/>
    <path opacity="0.75" d="M17.5933 51.8772L22.084 77.9316L18.8768 78.4844L14.3861 52.4299L17.5933 51.8772Z" fill="#003399"/>
    <path opacity="0.8" d="M16.5693 53.9621L17.1592 53.1265L17.9695 53.6985L18.6098 58.0584C22.0148 58.717 43.1183 62.5745 64.048 58.4556C84.8048 54.3665 99.0706 45.3913 101.487 43.7961L100.773 39.2709L101.328 38.4859L102.163 39.0759L103.025 44.465L102.666 44.7048C102.508 44.821 87.3251 55.311 64.3294 59.8305C41.3159 64.3753 18.0839 59.3945 17.853 59.3453L17.366 59.2291L16.5693 53.9621Z" fill="#505050"/>
    <path d="M18.5088 76.3057L103.789 61.6069L104.015 62.9203L18.7352 77.6191L18.5088 76.3057Z" fill="#C1C0BF"/>
    <path d="M14.5576 53.2854L99.8379 38.5867L100.064 39.9001L14.784 54.5988L14.5576 53.2854Z" fill="#C1C0BF"/>
    <path d="M106.334 61.1732L106.561 62.4866L20.3334 77.3485L20.107 76.0351L106.334 61.1732Z" fill="#47588B"/>
    <path d="M102.381 38.15L102.607 39.4634L16.3803 54.3253L16.1539 53.0119L102.381 38.15Z" fill="#47588B"/>
    <path opacity="0.4" d="M68.028 67.7692L96.8926 62.7942L97.119 64.1076L68.2544 69.0827L68.028 67.7692Z" fill="white"/>
    <path opacity="0.4" d="M64.0749 44.749L92.9395 39.7739L93.1658 41.0873L64.3013 46.0624L64.0749 44.749Z" fill="white"/>
    <path opacity="0.6" d="M77.1043 66.2076L94.7285 63.1699L94.9549 64.4834L77.3307 67.521L77.1043 66.2076Z" fill="white"/>
    <path opacity="0.6" d="M73.1278 43.1993L90.752 40.1616L90.9783 41.475L73.3542 44.5127L73.1278 43.1993Z" fill="white"/>
</svg>
