<svg width="23" height="16" viewBox="0 0 23 16" fill="none" xmlns="http://www.w3.org/2000/svg">
<path d="M21.9353 8.6753C21.9496 8.75669 22.0248 8.80219 22.0981 8.78927C22.1795 8.77492 22.2249 8.69976 22.212 8.62651L21.2978 3.44184C21.2835 3.36045 21.2083 3.31495 21.1351 3.32786C21.0537 3.34222 21.0082 3.41738 21.0211 3.49063L21.9353 8.6753Z" fill="#4E4E54"/>
<path d="M21.2576 4.02803L21.2246 3.84082L20.3863 3.98864L20.4193 4.17585L21.2576 4.02803Z" fill="#4E4E54"/>
<path d="M22.0076 8.27656L21.9746 8.08936L21.1363 8.23718L21.1693 8.42438L22.0076 8.27656Z" fill="#4E4E54"/>
<path d="M21.7615 6.87666L21.7285 6.68945L20.8902 6.83728L20.9232 7.02448L21.7615 6.87666Z" fill="#4E4E54"/>
<path d="M21.5115 5.46846L21.4785 5.28125L20.6402 5.42907L20.6732 5.61628L21.5115 5.46846Z" fill="#4E4E54"/>
<path d="M1.92769 9.56828C1.92625 9.56014 1.92625 9.56014 1.92625 9.56014C1.87363 9.30926 1.37318 6.8043 1.84148 6.3189C2.33133 5.81292 2.22656 5.21875 2.22656 5.21875C2.22656 5.21875 2.01015 5.32405 1.75878 5.46908C1.28715 5.74526 0.989282 6.29292 0.981536 6.91532C0.975695 7.59612 1.05982 8.59675 1.24926 9.67113C1.44157 10.7618 1.70619 11.739 1.94596 12.3849C2.15798 12.9685 2.62663 13.3894 3.17241 13.4862C3.45822 13.5365 3.6976 13.5614 3.6976 13.5614C3.6976 13.5614 3.59283 12.9673 2.95947 12.6593C2.35339 12.3634 1.96691 9.83832 1.93056 9.58457C1.93056 9.58457 1.92912 9.57642 1.92769 9.56828Z" fill="#25303D"/>
<path d="M1.61635 7.70951C1.73496 8.62014 2.04542 10.4285 2.25356 11.3233C2.63443 12.9598 3.38788 13.9011 4.83666 13.6457L19.321 11.3099C20.7698 11.0544 21.6581 9.7145 21.4951 7.98087C21.4473 7.51933 21.3569 6.72122 21.2464 6.0945C21.1345 5.45964 20.9775 4.80754 20.8579 4.36706C20.455 2.84357 19.1333 1.72548 17.6764 1.98237L3.26659 4.7414C1.81925 5.00499 1.3973 6.08647 1.61635 7.70951Z" fill="#2D3857"/>
<path d="M17.3703 11.1504C17.7207 11.139 20.4891 10.3235 20.4891 10.3235L21.2845 8.79015C21.2845 8.79015 21.2488 7.73065 20.989 6.25745C20.7292 4.78425 20.412 3.69884 20.412 3.69884L19.2621 2.50848C19.2621 2.50848 16.671 2.66324 16.0606 2.77088C15.4501 2.87851 15.046 3.39456 15.046 3.39456L16.3663 10.8826C16.6263 11.0718 17.028 11.1604 17.3703 11.1504Z" fill="#414D7A"/>
<path d="M12.2145 3.0379C12.2744 3.04413 12.2988 3.03982 12.2988 3.03982L12.3213 3.26246L12.6061 3.21223C12.5904 3.12269 12.5889 2.97188 12.5889 2.97188C12.5889 2.97188 12.7192 2.94892 12.6493 2.60037C12.5795 2.25181 12.4493 1.84677 12.2779 1.68396C12.108 1.5293 11.8322 1.53596 11.8011 1.69251C11.7714 1.8572 12.1547 3.03167 12.2145 3.0379Z" fill="#273552"/>
<path d="M18.245 5.0628L20.1525 4.17255L19.9931 3.98246L18.1311 4.94021L16.5545 5.32732L18.245 5.0628Z" fill="#5665A1"/>
<path d="M4.91995 7.36205L5.48683 10.577C5.56003 10.9921 5.95258 11.267 6.36768 11.1938L14.2401 10.4351L13.1953 4.50977L5.53816 6.48935C5.12163 6.5544 4.84819 6.95509 4.91995 7.36205Z" fill="#414D7A"/>
<path d="M13.8996 13.6002C13.9824 13.7366 14.2438 13.6486 14.3506 13.4451C14.4574 13.2416 14.4397 12.8084 14.3862 12.4569C14.3326 12.1055 14.2024 12.1285 14.2024 12.1285C14.2024 12.1285 14.1521 11.9863 14.1363 11.8967L13.8515 11.947L13.9065 12.1639C13.9065 12.1639 13.8821 12.1682 13.828 12.1945C13.7753 12.229 13.8168 13.4637 13.8996 13.6002Z" fill="#384BA1"/>
<path d="M12.6426 5.51354C12.9006 6.21497 13.1312 7.04709 13.2245 7.57614C13.3192 8.11332 13.4081 9.04597 13.3975 9.79476C13.395 10.5421 13.3993 10.8519 13.8167 10.8874C14.2342 10.9228 15.8218 11.1213 16.121 11.0098C16.4217 10.9064 16.6085 10.3951 16.6412 9.53332C16.6738 8.67155 16.5337 7.63884 16.4232 7.01212C16.3141 6.39354 16.0912 5.36704 15.7657 4.56841C15.4403 3.76979 15.0899 3.35321 14.772 3.35891C14.4541 3.36462 13.0138 4.09693 12.6322 4.26492C12.2617 4.44776 12.3847 4.81212 12.6426 5.51354Z" fill="#273043"/>
<path opacity="0.59" d="M12.9085 5.69327C13.143 6.35687 13.3354 7.16218 13.4296 7.6491C13.5129 8.12118 13.6009 8.81061 13.6075 9.51439C13.6141 10.2182 13.5178 10.6716 13.8687 10.7104C14.2196 10.7492 15.7646 10.8964 16.0164 10.8017C16.2683 10.7069 16.4105 10.2286 16.4274 9.41999C16.4361 8.6128 16.306 7.63705 16.1946 7.05246C16.0912 6.46644 15.8798 5.50506 15.5955 4.74952C15.3112 3.99399 15.0072 3.6028 14.7382 3.59989C14.4691 3.59698 13.0964 4.28382 12.7799 4.44033C12.4634 4.59684 12.6822 5.02824 12.9085 5.69327Z" fill="url(#paint0_linear_1122_429)"/>
<path d="M13.9015 13.6082C13.9843 13.7447 14.2458 13.6566 14.3526 13.4532C14.4593 13.2497 14.4417 12.8164 14.3881 12.465C14.3345 12.1136 14.2043 12.1365 14.2043 12.1365C14.2043 12.1365 14.1541 11.9943 14.1383 11.9048L13.8534 11.955L13.9084 12.1719C13.9084 12.1719 13.884 12.1762 13.8299 12.2026C13.7758 12.2289 13.8187 13.4718 13.9015 13.6082Z" fill="#273552"/>
<path d="M20.8166 8.66266L20.9014 8.42952L18.8044 8.24538L17.1253 8.57502L18.7393 8.39953L20.8166 8.66266Z" fill="#5665A1"/>
<path d="M1.41761 6.914C1.53298 7.04472 1.8078 6.93751 2.03094 6.67997C2.25408 6.42242 2.34078 6.10502 2.22542 5.9743C2.11006 5.84358 1.83523 5.95078 1.61209 6.20833C1.38081 6.46731 1.30225 6.78328 1.41761 6.914Z" fill="#D83432"/>
<path d="M1.75109 6.90566C1.84301 6.85588 1.93877 6.78025 2.03023 6.6802C2.25337 6.42266 2.34008 6.10525 2.22471 5.97453C2.13278 6.02431 2.03701 6.09994 1.94699 6.20813C1.71571 6.4671 1.63572 6.77494 1.75109 6.90566Z" fill="#FE9D6D"/>
<path d="M2.846 13.2503C3.14376 13.416 3.43869 13.4228 3.50238 13.2605C3.56608 13.0982 3.37605 12.8296 3.07828 12.6639C2.78051 12.4982 2.48559 12.4914 2.42189 12.6537C2.36633 12.8146 2.54679 13.0765 2.846 13.2503Z" fill="#D83432"/>
<path d="M3.16109 13.1358C3.28125 13.1985 3.39855 13.245 3.50196 13.2603C3.56565 13.098 3.37562 12.8294 3.07785 12.6637C2.95769 12.601 2.84039 12.5545 2.73698 12.5392C2.68142 12.7 2.86332 12.9701 3.16109 13.1358Z" fill="#FE9D6D"/>
<path d="M21.0665 8.30825L20.1469 10.3754L21.1486 9.96383C21.4383 9.4176 21.5691 8.73155 21.4941 7.9727C21.4462 7.51116 21.3559 6.71305 21.2454 6.08633C21.1334 5.45147 20.9765 4.79937 20.8568 4.35889C20.6807 3.69338 20.3246 3.10158 19.8627 2.6711L18.9119 2.56182L20.3661 4.19365C20.3661 4.19365 20.6547 5.11626 20.8642 6.30459C21.0752 7.50105 21.0665 8.30825 21.0665 8.30825Z" fill="#4C5478"/>
<path opacity="0.59" d="M13.8781 10.7088C14.2291 10.7476 15.774 10.8948 16.0258 10.8001C16.2777 10.7053 16.42 10.227 16.4368 9.4184C16.4446 8.93868 16.4001 8.40102 16.3398 7.9165C16.1613 7.99835 15.0179 8.51046 13.5887 8.8296C13.6016 9.04553 13.6174 9.27773 13.6154 9.50466C13.6221 10.2084 13.5191 10.6714 13.8781 10.7088Z" fill="url(#paint1_linear_1122_429)"/>
<path d="M18.6783 3.29097C18.9119 3.71136 19.3729 4.0413 19.7793 4.20461C20.0958 4.33344 20.3701 4.31864 20.4736 4.04863C20.5904 3.75947 20.1496 3.11547 19.747 2.78363C19.3061 2.42498 18.7967 2.29659 18.5918 2.467C18.4246 2.61396 18.4351 2.86388 18.6783 3.29097Z" fill="#2D3857"/>
<path d="M18.8483 3.30285C19.0335 3.63945 19.3988 3.90234 19.7234 4.02974C19.9757 4.12792 20.1916 4.11503 20.2725 3.90773C20.3669 3.68129 20.0155 3.16417 19.691 2.8941C19.3377 2.60392 18.9346 2.50716 18.7742 2.64454C18.6435 2.7599 18.6535 2.95955 18.8483 3.30285Z" fill="#D6E5FE"/>
<path d="M18.7725 2.63641C18.6418 2.75177 18.6518 2.95142 18.8385 3.29615C18.8634 3.34212 18.8868 3.37994 18.9199 3.42447C18.9127 3.38377 18.8438 2.99309 18.9645 2.82076C19.0718 2.66757 19.2551 2.66041 19.3312 2.66377C19.0952 2.56272 18.875 2.5512 18.7725 2.63641Z" fill="#D5FAFC"/>
<path d="M19.9423 4.08369C20.096 4.09856 20.2123 4.04447 20.2708 3.89989C20.3651 3.67345 20.0138 3.15634 19.6892 2.88628C19.5714 2.78955 19.4498 2.71867 19.3311 2.66408C19.3311 2.66408 20.1856 3.36942 19.9476 4.06599C19.949 4.07412 19.9504 4.08226 19.9423 4.08369Z" fill="#78C2FC"/>
<path d="M19.8001 9.64788C19.7177 10.1324 19.7933 10.3708 20.0006 10.4518C20.2433 10.5432 20.6877 10.2551 20.9779 9.75912C21.2427 9.3096 21.4367 8.55366 21.228 8.32191C21.0399 8.1117 20.777 8.19162 20.5223 8.41277C20.1962 8.70525 19.884 9.17152 19.8001 9.64788Z" fill="#2D3857"/>
<path d="M19.9562 9.58664C19.8905 9.97587 19.9494 10.1669 20.1198 10.2292C20.3175 10.3034 20.6714 10.0732 20.896 9.68109C21.11 9.32444 21.2633 8.71834 21.0958 8.52968C20.9407 8.36401 20.7415 8.42431 20.538 8.60286C20.2684 8.83503 20.0151 9.20699 19.9562 9.58664Z" fill="#D6E5FE"/>
<path d="M19.9807 9.43948C19.9649 9.49262 19.9558 9.53619 19.9481 9.58789C19.8825 9.97712 19.9414 10.1682 20.1118 10.2304C20.2468 10.2821 20.4402 10.1893 20.6274 10.0136C20.5652 10.0414 20.3823 10.0988 20.2291 9.99152C20.0568 9.87085 19.9879 9.48017 19.9807 9.43948Z" fill="#D5FAFC"/>
<path d="M20.6278 10.0056C20.7207 9.91365 20.8107 9.80547 20.8883 9.6743C21.1024 9.31765 21.2556 8.71155 21.0881 8.52289C20.9838 8.40702 20.8574 8.40413 20.7166 8.46252C20.718 8.47065 20.718 8.47065 20.7276 8.47736C21.1991 9.0572 20.6278 10.0056 20.6278 10.0056Z" fill="#78C2FC"/>
<path d="M2.68238 7.28677C2.711 8.02024 2.84445 8.91986 2.93917 9.45704C3.03389 9.99423 3.21618 10.8852 3.44014 11.5843C3.66411 12.2833 3.88237 12.6644 4.06047 12.675C4.24 12.6937 5.09085 12.1408 5.29483 12.0125C5.4988 11.8843 5.35999 11.573 5.17623 10.9592C4.96281 10.2248 4.77863 9.1327 4.77863 9.1327C4.77863 9.1327 4.56479 7.91996 4.52754 7.28033C4.49029 6.64069 4.57075 6.38313 4.23276 6.27488C4.00105 6.19825 3.05456 5.9707 2.89225 6.04967C2.72994 6.12865 2.65376 6.5533 2.68238 7.28677Z" fill="#273043"/>
<path opacity="0.59" d="M2.9229 7.37017C2.96877 8.05864 3.09504 8.91756 3.18402 9.42219C3.27443 9.93496 3.43996 10.7786 3.63233 11.4412C3.82614 12.112 4.00754 12.4744 4.15308 12.4907C4.29049 12.5085 5.00584 11.9963 5.16911 11.8752C5.32568 11.7636 5.15002 11.4338 4.98828 10.8496C4.82654 10.2655 4.61651 9.1696 4.61651 9.1696C4.61651 9.1696 4.45436 8.1072 4.40657 7.503C4.35878 6.89879 4.40384 6.48801 4.21042 6.43819C4.01701 6.38837 3.1749 6.13403 3.05185 6.19769C2.92353 6.27906 2.87704 6.6817 2.9229 7.37017Z" fill="url(#paint2_linear_1122_429)"/>
<path opacity="0.59" d="M3.63404 11.4492C3.82785 12.12 4.00925 12.4825 4.15479 12.4988C4.29219 12.5165 5.01568 12.0029 5.17082 11.8832C5.32739 11.7717 5.17613 11.5802 5.01438 10.996C4.96797 10.828 4.88758 10.5149 4.84069 10.2965C4.2446 10.4856 3.46808 10.27 3.34409 10.2331C3.42255 10.6305 3.52446 11.0657 3.63404 11.4492Z" fill="url(#paint3_linear_1122_429)"/>
<path d="M4.14826 5.69371L4.86968 6.26307C4.93814 6.31814 5.02383 6.3282 5.10379 6.30571L6.01109 5.97789C6.15329 5.92763 6.21413 5.74907 6.13802 5.60303L5.8226 5.00405C5.76995 4.89584 5.65122 4.84125 5.53871 4.86948L4.22541 5.22694C4.02624 5.28723 3.98263 5.56347 4.14826 5.69371Z" fill="#25303D"/>
<path d="M10.116 4.12972L10.1939 4.61951C10.2183 4.75787 10.3198 4.85747 10.4242 4.83067L11.8897 4.47995C11.8897 4.47995 13.4339 3.67057 13.5105 3.58153C13.5885 3.50063 13.5689 3.29428 13.4124 3.26313L10.2266 3.90041C10.1466 3.9229 10.0973 4.02391 10.116 4.12972Z" fill="#25303D"/>
<path opacity="0.59" d="M10.2435 4.14106L10.3085 4.55759C10.3215 4.63084 10.3722 4.68064 10.4292 4.67059L11.7645 4.34283C11.8133 4.33422 11.8593 4.30933 11.9067 4.29258L13.3589 3.53299C13.4049 3.5081 13.3809 3.42 13.3321 3.42861C12.6024 3.57405 10.628 3.98934 10.2794 4.05919C10.255 4.0635 10.2363 4.10036 10.2435 4.14106Z" fill="url(#paint4_linear_1122_429)"/>
<path d="M6.14995 4.91282L6.60179 5.71433C6.63625 5.767 6.69227 5.79909 6.75595 5.77947L9.90441 4.93058C9.95181 4.91383 9.98917 4.8401 9.97339 4.75057L9.87245 4.13056C9.85667 4.04103 9.80305 3.97495 9.74607 3.985L6.24717 4.70266C6.14279 4.72946 6.1016 4.82903 6.14995 4.91282Z" fill="#25303D"/>
<path opacity="0.59" d="M6.39418 4.97016L6.71057 5.527C6.73546 5.57297 6.78046 5.59021 6.82929 5.5816L9.76088 4.78774C9.80828 4.77099 9.83894 4.70684 9.82458 4.62545L9.77818 4.31472C9.76096 4.21705 9.69921 4.15241 9.64223 4.16246C9.16346 4.25527 7.25936 4.64137 6.47416 4.805C6.3942 4.82749 6.35828 4.90936 6.39418 4.97016Z" fill="url(#paint5_linear_1122_429)"/>
<path opacity="0.59" d="M4.29648 5.59172L4.91832 6.11989C4.95662 6.1467 5.00019 6.1558 5.03945 6.14049L5.90892 5.83611C5.98745 5.80548 6.0138 5.71692 5.97503 5.63983L5.66678 5.08154C5.64046 5.02744 5.5763 4.99679 5.52076 5.01498L4.33769 5.34947C4.23332 5.37627 4.21702 5.52181 4.29648 5.59172Z" fill="url(#paint6_linear_1122_429)"/>
<path d="M5.58735 12.9594L6.9437 12.8461C7.05908 12.8342 7.15198 12.7422 7.16445 12.6226L7.25599 11.9518C7.27755 11.7886 7.15931 11.6416 7.0085 11.643L6.04379 11.6452C5.95953 11.6433 5.88388 11.6902 5.83839 11.7654L5.35521 12.5471C5.24411 12.7262 5.381 12.979 5.58735 12.9594Z" fill="#25303D"/>
<path d="M11.4999 11.9758C11.5185 12.0816 11.5994 12.1597 11.6808 12.1453L14.8924 11.6546C15.0289 11.5718 14.9686 11.3726 14.8757 11.3218C14.7747 11.2725 13.0454 11.0319 13.0454 11.0319L11.5483 11.2036C11.4411 11.2141 11.3798 11.3424 11.4042 11.4808L11.4999 11.9758Z" fill="#25303D"/>
<path opacity="0.59" d="M11.6176 11.9301C11.6248 11.9708 11.6549 11.999 11.6793 11.9947C12.0226 11.9426 14.0296 11.6642 14.7636 11.5432C14.8124 11.5346 14.8048 11.4436 14.7531 11.436L13.1287 11.2189C13.077 11.2112 13.0267 11.2117 12.9779 11.2203L11.611 11.369C11.554 11.379 11.5233 11.4432 11.5362 11.5164L11.6176 11.9301Z" fill="url(#paint7_linear_1122_429)"/>
<path d="M7.50498 12.5964C7.48821 12.6916 7.57055 12.7778 7.66008 12.762L11.1934 12.2397C11.2504 12.2297 11.2782 12.1492 11.2624 12.0597L11.1452 11.4426C11.1308 11.3612 11.0772 11.2951 11.0188 11.297L7.76988 11.5761C7.71147 11.5781 7.66167 11.6288 7.6473 11.6901L7.50498 12.5964Z" fill="#25303D"/>
<path opacity="0.59" d="M7.71475 12.4586C7.70181 12.528 7.76357 12.5926 7.83012 12.5893C8.62392 12.4745 10.5452 12.1861 11.0269 12.1096C11.0839 12.0995 11.1198 12.0176 11.1026 11.92L11.0399 11.6121C11.027 11.5389 10.9748 11.4809 10.9245 11.4814L7.89822 11.7381C7.84795 11.7385 7.81299 11.7783 7.80532 11.83L7.71475 12.4586Z" fill="url(#paint8_linear_1122_429)"/>
<path opacity="0.59" d="M5.65247 12.805L6.87859 12.7147C6.937 12.7128 6.98681 12.6621 6.99304 12.6022L7.09175 11.9722C7.10182 11.8865 7.04676 11.8123 6.9625 11.8104L6.04136 11.8217C5.99922 11.8208 5.95326 11.8456 5.93458 11.8825L5.53089 12.5915C5.48156 12.6925 5.54522 12.8156 5.65247 12.805Z" fill="url(#paint9_linear_1122_429)"/>
<path d="M8.10287 9.56183C8.17176 9.95251 8.54515 10.214 8.93584 10.1451L10.1323 9.93412C10.523 9.86523 10.7844 9.49182 10.7156 9.10114L10.3553 7.0582C10.2864 6.66752 9.91304 6.40607 9.52236 6.47496L8.32589 6.68593C7.93521 6.75481 7.67376 7.12821 7.74265 7.51889L8.10287 9.56183Z" fill="#273043"/>
<defs>
<linearGradient id="paint0_linear_1122_429" x1="15.7637" y1="3.95497" x2="13.3684" y2="10.5359" gradientUnits="userSpaceOnUse">
<stop stop-color="#72B3DD"/>
<stop offset="0.9946" stop-color="#2E81BA"/>
</linearGradient>
<linearGradient id="paint1_linear_1122_429" x1="14.8034" y1="8.18947" x2="15.287" y2="10.9321" gradientUnits="userSpaceOnUse">
<stop stop-color="#72B3DD"/>
<stop offset="0.9946" stop-color="#2E81BA"/>
</linearGradient>
<linearGradient id="paint2_linear_1122_429" x1="4.94924" y1="6.71608" x2="2.9974" y2="12.0787" gradientUnits="userSpaceOnUse">
<stop stop-color="#72B3DD"/>
<stop offset="0.9946" stop-color="#2E81BA"/>
</linearGradient>
<linearGradient id="paint3_linear_1122_429" x1="4.13094" y1="10.0885" x2="4.54403" y2="12.4312" gradientUnits="userSpaceOnUse">
<stop stop-color="#72B3DD"/>
<stop offset="0.9946" stop-color="#2E81BA"/>
</linearGradient>
<linearGradient id="paint4_linear_1122_429" x1="11.9144" y1="4.40513" x2="11.7893" y2="3.69531" gradientUnits="userSpaceOnUse">
<stop stop-color="#72B3DD"/>
<stop offset="0.9946" stop-color="#2E81BA"/>
</linearGradient>
<linearGradient id="paint5_linear_1122_429" x1="8.20526" y1="5.34214" x2="8.04761" y2="4.44804" gradientUnits="userSpaceOnUse">
<stop stop-color="#72B3DD"/>
<stop offset="0.9946" stop-color="#2E81BA"/>
</linearGradient>
<linearGradient id="paint6_linear_1122_429" x1="5.03162" y1="5.09962" x2="5.2099" y2="6.11072" gradientUnits="userSpaceOnUse">
<stop stop-color="#72B3DD"/>
<stop offset="0.9946" stop-color="#2E81BA"/>
</linearGradient>
<linearGradient id="paint7_linear_1122_429" x1="13.2217" y1="11.8148" x2="13.0965" y2="11.105" gradientUnits="userSpaceOnUse">
<stop stop-color="#72B3DD"/>
<stop offset="0.9946" stop-color="#2E81BA"/>
</linearGradient>
<linearGradient id="paint8_linear_1122_429" x1="9.44751" y1="12.3864" x2="9.28985" y2="11.4923" gradientUnits="userSpaceOnUse">
<stop stop-color="#72B3DD"/>
<stop offset="0.9946" stop-color="#2E81BA"/>
</linearGradient>
<linearGradient id="paint9_linear_1122_429" x1="6.21219" y1="11.7941" x2="6.39047" y2="12.8052" gradientUnits="userSpaceOnUse">
<stop stop-color="#72B3DD"/>
<stop offset="0.9946" stop-color="#2E81BA"/>
</linearGradient>
</defs>
</svg>
