<svg width="114" height="114" viewBox="0 0 114 114" fill="none" xmlns="http://www.w3.org/2000/svg">
    <path opacity="0.8" d="M20.0004 80.0223L19.6402 77.9326L16.8015 78.4219L12.7038 54.6475L15.5425 54.1582L15.1824 52.0686L20.0319 51.2327L20.392 53.3223L86.5898 41.9126L86.2296 39.823L91.0792 38.9871L91.4393 41.0768L94.2781 40.5875L97.2613 57.8959L97.8527 57.794L99.3993 67.4739L99.0717 67.6928C98.9276 67.7988 85.0693 77.3733 64.0805 81.4984C43.0755 85.6465 21.8711 81.1005 21.6604 81.0556L21.2158 80.9495L21.035 79.783L20.0004 80.0223ZM22.381 79.9367C25.4888 80.5378 44.7505 84.0587 63.8536 80.2992C82.7989 76.567 95.8196 68.3751 98.0249 66.9192L97.6498 64.5073L95.5602 64.8675L95.9203 66.9571L91.0708 67.793L90.7107 65.7034C90.7107 65.7034 78.976 73.9374 60.8125 77.4944C42.6325 81.0744 24.5129 77.1131 24.5129 77.1131L24.873 79.2027L22.3497 79.6376L22.381 79.9367Z" fill="#505050"/>
    <path d="M92.4138 32.9146L97.2285 60.8491L92.3776 61.6852L87.5629 33.7507L92.4138 32.9146Z" fill="#0C2557"/>
    <path d="M74.5297 37.1299L78.9648 62.8621L76.8739 63.2224L72.4388 37.4903L74.5297 37.1299Z" fill="#0C2557"/>
    <path d="M55.7192 40.3866L60.1543 66.1187L58.0634 66.479L53.6283 40.747L55.7192 40.3866Z" fill="#0C2557"/>
    <path d="M36.8754 43.6207L41.3105 69.3528L39.2196 69.7132L34.7845 43.9811L36.8754 43.6207Z" fill="#0C2557"/>
    <path d="M21.3747 45.1856L26.1895 73.1201L21.3385 73.9562L16.5238 46.0217L21.3747 45.1856Z" fill="#0C2557"/>
    <path d="M95.6415 34.5102L99.7402 58.2908L18.1391 72.3554L14.0403 48.5748L95.6415 34.5102Z" fill="#5172B3"/>
    <path opacity="0.1287" d="M95.6239 34.5138L99.7227 58.2944L96.7954 58.799L92.6966 35.0184L95.6239 34.5138Z" fill="#003399"/>
    <path opacity="0.3" d="M92.7098 35.0136L96.8086 58.7942L93.8813 59.2987L89.7825 35.5182L92.7098 35.0136Z" fill="#003399"/>
    <path opacity="0.1645" d="M89.7977 35.5139L93.8965 59.2944L90.9692 59.799L86.8704 36.0184L89.7977 35.5139Z" fill="#003399"/>
    <path opacity="0.1" d="M86.8856 36.0136L90.9844 59.7942L88.0571 60.2987L83.9583 36.5181L86.8856 36.0136Z" fill="#003399"/>
    <path opacity="0.08" d="M83.9735 36.5131L88.0723 60.2937L85.145 60.7982L81.0462 37.0176L83.9735 36.5131Z" fill="#003399"/>
    <path opacity="0.03" d="M78.1473 37.5131L82.2461 61.2937L79.3188 61.7982L75.22 38.0177L78.1473 37.5131Z" fill="#003399"/>
    <path opacity="0.1758" d="M72.3211 38.5129L76.4199 62.2935L73.4927 62.798L69.3939 39.0174L72.3211 38.5129Z" fill="#003399"/>
    <path opacity="0.03" d="M69.4129 39.0404L73.5117 62.821L70.5844 63.3256L66.4857 39.545L69.4129 39.0404Z" fill="#003399"/>
    <path opacity="0.11" d="M66.5008 39.5407L70.5996 63.3213L67.6723 63.8258L63.5736 40.0453L66.5008 39.5407Z" fill="#003399"/>
    <path opacity="0.5" d="M63.5868 40.0402L67.6855 63.8208L64.7583 64.3253L60.6595 40.5448L63.5868 40.0402Z" fill="#003399"/>
    <path opacity="0.1758" d="M60.6747 40.5404L64.7734 64.321L61.8462 64.8256L57.7474 41.045L60.6747 40.5404Z" fill="#003399"/>
    <path opacity="0.1767" d="M57.7332 41.0448L61.832 64.8254L58.9048 65.33L54.806 41.5494L57.7332 41.0448Z" fill="#003399"/>
    <path opacity="0.3246" d="M54.8211 41.5446L58.9199 65.3252L55.9927 65.8297L51.8939 42.0491L54.8211 41.5446Z" fill="#003399"/>
    <path opacity="0.5659" d="M51.909 42.0446L56.0078 65.8252L53.0805 66.3297L48.9818 42.5492L51.909 42.0446Z" fill="#003399"/>
    <path opacity="0.5" d="M48.995 42.5444L53.0938 66.325L50.1665 66.8295L46.0677 43.0489L48.995 42.5444Z" fill="#003399"/>
    <path opacity="0.65" d="M46.0829 43.0446L50.1816 66.8252L47.2544 67.3297L43.1556 43.5491L46.0829 43.0446Z" fill="#003399"/>
    <path opacity="0.5215" d="M43.1688 43.5441L47.2676 67.3247L44.3403 67.8292L40.2415 44.0486L43.1688 43.5441Z" fill="#003399"/>
    <path opacity="0.5965" d="M40.2567 44.0443L44.3555 67.825L41.4282 68.3295L37.3294 44.5489L40.2567 44.0443Z" fill="#003399"/>
    <path opacity="0.6447" d="M37.3446 44.5441L41.4434 68.3247L38.5161 68.8292L34.4173 45.0487L37.3446 44.5441Z" fill="#003399"/>
    <path opacity="0.5215" d="M34.4305 45.0441L38.5293 68.8247L35.602 69.3292L31.5033 45.5487L34.4305 45.0441Z" fill="#003399"/>
    <path opacity="0.82" d="M31.5223 45.5719L35.6211 69.3525L32.6938 69.8571L28.595 46.0765L31.5223 45.5719Z" fill="#003399"/>
    <path opacity="0.75" d="M28.6102 46.0714L32.709 69.8521L29.7817 70.3566L25.6829 46.576L28.6102 46.0714Z" fill="#003399"/>
    <path opacity="0.4799" d="M25.6981 46.5717L29.7969 70.3523L26.8696 70.8568L22.7708 47.0763L25.6981 46.5717Z" fill="#003399"/>
    <path opacity="0.65" d="M22.784 47.0712L26.8828 70.8518L23.9555 71.3563L19.8568 47.5758L22.784 47.0712Z" fill="#003399"/>
    <path opacity="0.9" d="M19.8446 47.5758L23.9434 71.3564L21.0161 71.861L16.9173 48.0804L19.8446 47.5758Z" fill="#003399"/>
    <path opacity="0.75" d="M16.9305 48.0758L21.0293 71.8564L18.102 72.361L14.0032 48.5804L16.9305 48.0758Z" fill="#003399"/>
    <path opacity="0.8" d="M15.9981 49.9788L16.5366 49.2161L17.2761 49.7382L17.8605 53.7177C20.9684 54.3187 40.2301 57.8396 59.3331 54.0802C78.2785 50.3479 91.2992 42.156 93.5044 40.7001L92.8534 36.5698L93.3592 35.8533L94.1219 36.3918L94.9088 41.3106L94.5812 41.5295C94.4371 41.6355 80.5788 51.21 59.59 55.335C38.585 59.4832 17.3805 54.9371 17.1698 54.8922L16.7253 54.7862L15.9981 49.9788Z" fill="#505050"/>
    <path d="M17.768 70.3725L95.6055 56.9565L95.8121 58.1553L17.9746 71.5712L17.768 70.3725Z" fill="#C1C0BF"/>
    <path d="M14.1605 49.3615L91.998 35.9456L92.2047 37.1444L14.3672 50.5603L14.1605 49.3615Z" fill="#C1C0BF"/>
    <path d="M97.9301 56.5603L98.1367 57.759L19.435 71.3239L19.2283 70.1252L97.9301 56.5603Z" fill="#47588B"/>
    <path d="M94.3207 35.5466L94.5273 36.7454L15.8256 50.3103L15.619 49.1115L94.3207 35.5466Z" fill="#47588B"/>
    <path opacity="0.4" d="M62.9671 62.5811L89.3125 58.0403L89.5191 59.2391L63.1737 63.7799L62.9671 62.5811Z" fill="white"/>
    <path opacity="0.4" d="M59.3577 41.5699L85.7031 37.0291L85.9097 38.2278L59.5643 42.7687L59.3577 41.5699Z" fill="white"/>
    <path opacity="0.6" d="M71.2499 61.1559L87.3359 58.3833L87.5426 59.5821L71.4565 62.3547L71.2499 61.1559Z" fill="white"/>
    <path opacity="0.6" d="M67.619 40.1556L83.7051 37.3831L83.9117 38.5818L67.8257 41.3544L67.619 40.1556Z" fill="white"/>
</svg>
