<svg width="24" height="16" viewBox="0 0 24 16" fill="none" xmlns="http://www.w3.org/2000/svg">
    <path d="M1.45728 7.10131C1.44293 7.01992 1.36776 6.97442 1.29451 6.98734C1.21312 7.00169 1.16763 7.07685 1.18055 7.15011L2.09474 12.3348C2.10909 12.4162 2.18425 12.4617 2.2575 12.4487C2.3389 12.4344 2.38439 12.3592 2.37148 12.286L1.45728 7.10131Z" fill="#4E4E54"/>
    <path d="M2.13496 11.7488L2.16797 11.936L3.00631 11.7882L2.9733 11.601L2.13496 11.7488Z" fill="#4E4E54"/>
    <path d="M1.38496 7.50005L1.41797 7.68726L2.25631 7.53943L2.2233 7.35223L1.38496 7.50005Z" fill="#4E4E54"/>
    <path d="M1.63105 8.89971L1.66406 9.08691L2.5024 8.93909L2.46939 8.75189L1.63105 8.89971Z" fill="#4E4E54"/>
    <path d="M1.88105 10.3079L1.91406 10.4951L2.7524 10.3473L2.71939 10.1601L1.88105 10.3079Z" fill="#4E4E54"/>
    <path d="M21.4649 6.20809C21.4663 6.21623 21.4663 6.21622 21.4663 6.21622C21.519 6.4671 22.0194 8.97206 21.5511 9.45747C21.0613 9.96345 21.166 10.5576 21.166 10.5576C21.166 10.5576 21.3824 10.4523 21.6338 10.3073C22.1054 10.0311 22.4033 9.48344 22.411 8.86105C22.4169 8.18025 22.3328 7.17962 22.1433 6.10524C21.951 5.01459 21.6864 4.03739 21.4466 3.3915C21.2346 2.80786 20.7659 2.38696 20.2202 2.29018C19.9344 2.23987 19.695 2.21494 19.695 2.21494C19.695 2.21494 19.7997 2.8091 20.4331 3.11704C21.0392 3.413 21.4257 5.93805 21.462 6.1918C21.462 6.1918 21.4635 6.19995 21.4649 6.20809Z" fill="#25303D"/>
    <path d="M21.7762 8.06661C21.6576 7.15599 21.3472 5.34765 21.139 4.45281C20.7581 2.81634 20.0047 1.87498 18.5559 2.13044L4.07153 4.46623C2.62275 4.72169 1.73445 6.06163 1.89747 7.79526C1.94528 8.25679 2.03566 9.05491 2.14617 9.68163C2.25811 10.3165 2.41505 10.9686 2.53468 11.4091C2.93759 12.9326 4.25931 14.0506 5.71622 13.7938L20.126 11.0347C21.5733 10.7711 21.9953 9.68966 21.7762 8.06661Z" fill="#2D3857"/>
    <path d="M6.0223 4.62597C5.67184 4.63741 2.90351 5.45285 2.90351 5.45285L2.10807 6.98622C2.10807 6.98622 2.14382 8.04572 2.40359 9.51892C2.66335 10.9921 2.98062 12.0775 2.98062 12.0775L4.13046 13.2679C4.13046 13.2679 6.72155 13.1131 7.33199 13.0055C7.94243 12.8979 8.34658 12.3818 8.34658 12.3818L7.02623 4.89374C6.76629 4.70459 6.36462 4.61596 6.0223 4.62597Z" fill="#414D7A"/>
    <path d="M11.178 12.7382C11.1182 12.732 11.0938 12.7363 11.0938 12.7363L11.0713 12.5137L10.7864 12.5639C10.8022 12.6534 10.8036 12.8042 10.8036 12.8042C10.8036 12.8042 10.6734 12.8272 10.7433 13.1758C10.8131 13.5243 10.9433 13.9294 11.1147 14.0922C11.2846 14.2468 11.5604 14.2402 11.5915 14.0836C11.6212 13.9189 11.2379 12.7445 11.178 12.7382Z" fill="#273552"/>
    <path d="M5.14756 10.7136L3.24003 11.6038L3.39943 11.7939L5.26149 10.8362L6.83811 10.449L5.14756 10.7136Z" fill="#5665A1"/>
    <path d="M18.4726 8.41432L17.9057 5.19934C17.8326 4.78424 17.44 4.50937 17.0249 4.58256L9.15247 5.34126L10.1973 11.2666L17.8544 9.28702C18.271 9.22197 18.5444 8.82128 18.4726 8.41432Z" fill="#414D7A"/>
    <path d="M9.49299 2.1762C9.41018 2.03975 9.14877 2.1278 9.04198 2.33126C8.93518 2.53472 8.95284 2.968 9.00641 3.31942C9.05998 3.67085 9.19021 3.64789 9.19021 3.64789C9.19021 3.64789 9.24045 3.79009 9.25624 3.87962L9.54111 3.82939L9.48609 3.6125C9.48609 3.6125 9.51051 3.60819 9.56461 3.58187C9.61728 3.54741 9.5758 2.31266 9.49299 2.1762Z" fill="#384BA1"/>
    <path d="M10.75 10.2628C10.492 9.5614 10.2614 8.72928 10.1681 8.20023C10.0734 7.66304 9.98444 6.73039 9.99508 5.98161C9.99757 5.23426 9.99331 4.92449 9.57583 4.889C9.15836 4.85352 7.5708 4.6551 7.27155 4.76661C6.97087 4.86998 6.78409 5.38127 6.75141 6.24304C6.71874 7.10481 6.85887 8.13753 6.96937 8.76425C7.07845 9.38283 7.30141 10.4093 7.62686 11.208C7.95231 12.0066 8.3027 12.4232 8.6206 12.4175C8.9385 12.4118 10.3787 11.6794 10.7603 11.5114C11.1309 11.3286 11.0079 10.9642 10.75 10.2628Z" fill="#273043"/>
    <path opacity="0.59" d="M10.484 10.0833C10.2495 9.41974 10.0572 8.61443 9.96295 8.12751C9.87971 7.65544 9.79171 6.966 9.78511 6.26222C9.7785 5.55843 9.8748 5.10505 9.52387 5.06622C9.17294 5.02739 7.62799 4.8802 7.37614 4.97496C7.1243 5.06972 6.98204 5.54799 6.96517 6.35662C6.95644 7.16381 7.08653 8.13956 7.198 8.72415C7.30133 9.31017 7.51281 10.2716 7.79709 11.0271C8.08137 11.7826 8.38533 12.1738 8.6544 12.1767C8.92346 12.1796 10.2962 11.4928 10.6127 11.3363C10.9291 11.1798 10.7104 10.7484 10.484 10.0833Z" fill="url(#paint0_linear_1040_6276)"/>
    <path d="M9.49104 2.16815C9.40823 2.03169 9.14682 2.11975 9.04002 2.32321C8.93323 2.52667 8.95088 2.95995 9.00446 3.31137C9.05803 3.66279 9.18826 3.63983 9.18826 3.63983C9.18826 3.63983 9.2385 3.78203 9.25429 3.87156L9.53916 3.82133L9.48414 3.60444C9.48414 3.60444 9.50855 3.60014 9.56266 3.57381C9.61676 3.54749 9.57384 2.30461 9.49104 2.16815Z" fill="#273552"/>
    <path d="M2.57599 7.1137L2.49122 7.34685L4.58819 7.53098L6.26726 7.20135L4.65332 7.37683L2.57599 7.1137Z" fill="#5665A1"/>
    <path d="M21.975 8.86261C21.8596 8.73189 21.5848 8.8391 21.3616 9.09664C21.1385 9.35419 21.0518 9.6716 21.1672 9.80232C21.2825 9.93303 21.5574 9.82583 21.7805 9.56828C22.0118 9.3093 22.0903 8.99333 21.975 8.86261Z" fill="#D83432"/>
    <path d="M21.6415 8.8712C21.5496 8.92098 21.4538 8.9966 21.3623 9.09665C21.1392 9.3542 21.0525 9.67161 21.1679 9.80233C21.2598 9.75255 21.3556 9.67692 21.4456 9.56873C21.6769 9.30975 21.7569 9.00192 21.6415 8.8712Z" fill="#FE9D6D"/>
    <path d="M20.5466 2.5263C20.2488 2.3606 19.9539 2.35386 19.8902 2.51615C19.8265 2.67844 20.0165 2.94706 20.3143 3.11275C20.6121 3.27844 20.907 3.28519 20.9707 3.1229C21.0262 2.96204 20.8458 2.70013 20.5466 2.5263Z" fill="#D83432"/>
    <path d="M20.2315 2.64084C20.1113 2.57811 19.994 2.53166 19.8906 2.51632C19.8269 2.67861 20.017 2.94723 20.3147 3.11292C20.4349 3.17565 20.5522 3.22211 20.6556 3.23744C20.7112 3.07658 20.5293 2.80654 20.2315 2.64084Z" fill="#FE9D6D"/>
    <path d="M2.32612 7.46812L3.24564 5.40094L2.244 5.81253C1.95427 6.35876 1.82347 7.04482 1.89853 7.80367C1.94634 8.2652 2.03671 9.06332 2.14722 9.69004C2.25916 10.3249 2.41611 10.977 2.53574 11.4175C2.71183 12.083 3.06795 12.6748 3.5299 13.1053L4.48071 13.2146L3.02645 11.5827C3.02645 11.5827 2.73788 10.6601 2.52835 9.47178C2.31738 8.27532 2.32612 7.46812 2.32612 7.46812Z" fill="#4C5478"/>
    <path opacity="0.59" d="M9.51445 5.06757C9.16352 5.02875 7.61858 4.88155 7.36673 4.97631C7.11489 5.07107 6.97262 5.54934 6.95575 6.35797C6.94803 6.83769 6.99248 7.37534 7.05273 7.85986C7.23133 7.77802 8.37468 7.2659 9.80384 6.94677C9.79094 6.73084 9.77519 6.49864 9.77713 6.2717C9.77053 5.56792 9.87352 5.10497 9.51445 5.06757Z" fill="url(#paint1_linear_1040_6276)"/>
    <path d="M4.71428 12.4854C4.4807 12.065 4.01969 11.7351 3.61325 11.5718C3.2968 11.4429 3.02247 11.4577 2.91902 11.7277C2.80216 12.0169 3.24301 12.6609 3.64561 12.9927C4.0865 13.3514 4.59588 13.4798 4.80082 13.3094C4.96793 13.1624 4.95744 12.9125 4.71428 12.4854Z" fill="#2D3857"/>
    <path d="M4.54429 12.4735C4.35906 12.1369 3.99379 11.874 3.66921 11.7466C3.41691 11.6484 3.20098 11.6613 3.12004 11.8686C3.0257 12.0951 3.37704 12.6122 3.70161 12.8823C4.05489 13.1724 4.458 13.2692 4.61841 13.1318C4.74913 13.0165 4.7391 12.8168 4.54429 12.4735Z" fill="#D6E5FE"/>
    <path d="M4.62005 13.14C4.75077 13.0246 4.74074 12.825 4.55407 12.4802C4.52918 12.4342 4.50573 12.3964 4.4727 12.3519C4.47988 12.3926 4.54876 12.7833 4.42809 12.9556C4.32082 13.1088 4.13746 13.116 4.06134 13.1126C4.29735 13.2136 4.51758 13.2252 4.62005 13.14Z" fill="#D5FAFC"/>
    <path d="M3.45028 11.6929C3.2966 11.6781 3.18025 11.7321 3.12182 11.8767C3.02747 12.1032 3.37882 12.6203 3.70338 12.8903C3.82115 12.9871 3.94275 13.0579 4.06147 13.1125C4.06147 13.1125 3.20697 12.4072 3.44502 11.7106C3.44358 11.7025 3.44214 11.6944 3.45028 11.6929Z" fill="#78C2FC"/>
    <path d="M3.59246 6.12849C3.67487 5.64399 3.59925 5.40555 3.39196 5.32461C3.14924 5.23313 2.70491 5.52128 2.41471 6.01724C2.14989 6.46677 1.95588 7.22271 2.16459 7.45446C2.35271 7.66466 2.61557 7.58475 2.8703 7.36359C3.19638 7.07112 3.50861 6.60484 3.59246 6.12849Z" fill="#2D3857"/>
    <path d="M3.43641 6.18972C3.50205 5.8005 3.44319 5.60946 3.27276 5.5472C3.07504 5.47296 2.7212 5.7032 2.49661 6.09528C2.28255 6.45193 2.12926 7.05803 2.2968 7.24669C2.45189 7.41236 2.65107 7.35206 2.85457 7.17351C3.12415 6.94134 3.37747 6.56938 3.43641 6.18972Z" fill="#D6E5FE"/>
    <path d="M3.41186 6.33689C3.42767 6.28375 3.43676 6.24018 3.44443 6.18847C3.51008 5.79925 3.45122 5.60821 3.28079 5.54595C3.14578 5.49422 2.95235 5.58707 2.76513 5.76276C2.82737 5.735 3.01027 5.67758 3.16345 5.78484C3.33579 5.90552 3.40468 6.29619 3.41186 6.33689Z" fill="#D5FAFC"/>
    <path d="M2.76478 5.77081C2.67189 5.86272 2.58186 5.9709 2.50428 6.10207C2.29022 6.45872 2.13693 7.06482 2.30447 7.25348C2.40883 7.36935 2.53522 7.37224 2.67599 7.31385C2.67455 7.30571 2.67456 7.30572 2.66498 7.29901C2.19348 6.71916 2.76478 5.77081 2.76478 5.77081Z" fill="#78C2FC"/>
    <path d="M20.7102 8.4896C20.6816 7.75613 20.5481 6.85651 20.4534 6.31932C20.3587 5.78214 20.1764 4.89113 19.9524 4.1921C19.7285 3.49307 19.5102 3.11195 19.3321 3.10139C19.1526 3.0827 18.3017 3.63555 18.0978 3.76383C17.8938 3.89211 18.0326 4.20333 18.2163 4.81713C18.4298 5.55158 18.6139 6.64367 18.6139 6.64367C18.6139 6.64367 18.8278 7.85641 18.865 8.49604C18.9023 9.13568 18.8218 9.39324 19.1598 9.50149C19.3915 9.57812 20.338 9.80567 20.5003 9.72669C20.6626 9.64772 20.7388 9.22307 20.7102 8.4896Z" fill="#273043"/>
    <path opacity="0.59" d="M20.4697 8.4062C20.4238 7.71773 20.2975 6.85881 20.2086 6.35418C20.1181 5.84141 19.9526 4.9978 19.7602 4.33517C19.5664 3.66439 19.385 3.30194 19.2395 3.28564C19.1021 3.26791 18.3867 3.78008 18.2235 3.90119C18.0669 4.01272 18.2426 4.34261 18.4043 4.92673C18.566 5.51084 18.7761 6.60677 18.7761 6.60677C18.7761 6.60677 18.9382 7.66916 18.986 8.27337C19.0338 8.87758 18.9887 9.28836 19.1822 9.33818C19.3756 9.388 20.2177 9.64233 20.3407 9.57867C20.469 9.4973 20.5155 9.09467 20.4697 8.4062Z" fill="url(#paint2_linear_1040_6276)"/>
    <path opacity="0.59" d="M19.7585 4.32712C19.5647 3.65635 19.3833 3.29389 19.2378 3.27759C19.1004 3.25986 18.3769 3.77348 18.2218 3.89315C18.0652 4.00468 18.2165 4.19621 18.3782 4.78032C18.4246 4.94838 18.505 5.2615 18.5519 5.47982C19.148 5.29079 19.9245 5.50634 20.0485 5.54323C19.97 5.14584 19.8681 4.71063 19.7585 4.32712Z" fill="url(#paint3_linear_1040_6276)"/>
    <path d="M19.2443 10.0827L18.5229 9.5133C18.4544 9.45823 18.3687 9.44816 18.2888 9.47065L17.3815 9.79848C17.2393 9.84873 17.1785 10.0273 17.2546 10.1733L17.57 10.7723C17.6226 10.8805 17.7414 10.9351 17.8539 10.9069L19.1672 10.5494C19.3663 10.4891 19.41 10.2129 19.2443 10.0827Z" fill="#25303D"/>
    <path d="M13.2766 11.6469L13.1986 11.1571C13.1742 11.0187 13.0728 10.9191 12.9684 10.9459L11.5028 11.2967C11.5028 11.2967 9.95871 12.106 9.88209 12.1951C9.80404 12.276 9.82364 12.4823 9.98019 12.5135L13.166 11.8762C13.2459 11.8537 13.2953 11.7527 13.2766 11.6469Z" fill="#25303D"/>
    <path opacity="0.59" d="M13.1491 11.6358L13.084 11.2193C13.0711 11.146 13.0204 11.0962 12.9634 11.1063L11.6281 11.434C11.5792 11.4426 11.5333 11.4675 11.4859 11.4843L10.0337 12.2439C9.98772 12.2688 10.0116 12.3569 10.0605 12.3482C10.7901 12.2028 12.7646 11.7875 13.1132 11.7177C13.1376 11.7134 13.1563 11.6765 13.1491 11.6358Z" fill="url(#paint4_linear_1040_6276)"/>
    <path d="M17.2426 10.8635L16.7908 10.062C16.7563 10.0094 16.7003 9.97728 16.6366 9.9969L13.4882 10.8458C13.4408 10.8625 13.4034 10.9363 13.4192 11.0258L13.5201 11.6458C13.5359 11.7353 13.5895 11.8014 13.6465 11.7914L17.1454 11.0737C17.2498 11.0469 17.291 10.9473 17.2426 10.8635Z" fill="#25303D"/>
    <path opacity="0.59" d="M16.9984 10.806L16.682 10.2491C16.6571 10.2032 16.6121 10.1859 16.5633 10.1945L13.6317 10.9884C13.5843 11.0051 13.5536 11.0693 13.568 11.1507L13.6144 11.4614C13.6316 11.5591 13.6934 11.6237 13.7503 11.6137C14.2291 11.5209 16.1332 11.1348 16.9184 10.9711C16.9984 10.9486 17.0343 10.8668 16.9984 10.806Z" fill="url(#paint5_linear_1040_6276)"/>
    <path opacity="0.59" d="M19.0961 10.1844L18.4743 9.65624C18.436 9.62942 18.3924 9.62032 18.3531 9.63563L17.4837 9.94001C17.4051 9.97064 17.3788 10.0592 17.4176 10.1363L17.7258 10.6946C17.7521 10.7487 17.8163 10.7793 17.8718 10.7611L19.0549 10.4267C19.1593 10.3999 19.1756 10.2543 19.0961 10.1844Z" fill="url(#paint6_linear_1040_6276)"/>
    <path d="M17.8052 2.81698L16.4489 2.93025C16.3335 2.94221 16.2406 3.03412 16.2281 3.15381L16.1366 3.82454C16.115 3.9878 16.2333 4.1348 16.3841 4.13339L17.3488 4.13113C17.433 4.13305 17.5087 4.08615 17.5542 4.01099L18.0374 3.22923C18.1485 3.05018 18.0116 2.79738 17.8052 2.81698Z" fill="#25303D"/>
    <path d="M11.8927 3.80054C11.8741 3.69473 11.7932 3.61668 11.7118 3.63103L8.50015 4.1218C8.36369 4.2046 8.42399 4.40378 8.51686 4.45454C8.61788 4.50387 10.3471 4.74445 10.3471 4.74445L11.8443 4.57278C11.9515 4.56226 12.0128 4.43396 11.9884 4.2956L11.8927 3.80054Z" fill="#25303D"/>
    <path opacity="0.59" d="M11.775 3.84628C11.7678 3.80558 11.7377 3.77733 11.7132 3.78163C11.37 3.83377 9.36294 4.11213 8.62898 4.23316C8.58015 4.24177 8.58779 4.33273 8.6395 4.3404L10.2639 4.55751C10.3156 4.56517 10.3659 4.56471 10.4147 4.55609L11.7816 4.40739C11.8386 4.39734 11.8692 4.33319 11.8563 4.25994L11.775 3.84628Z" fill="url(#paint7_linear_1040_6276)"/>
    <path d="M15.8876 3.18001C15.9044 3.08474 15.822 2.99855 15.7325 3.01434L12.1991 3.53666C12.1422 3.5467 12.1144 3.62713 12.1302 3.71667L12.2474 4.33381C12.2617 4.4152 12.3153 4.48128 12.3738 4.47937L15.6227 4.20022C15.6811 4.19832 15.7309 4.14758 15.7453 4.0863L15.8876 3.18001Z" fill="#25303D"/>
    <path opacity="0.59" d="M15.6778 3.31777C15.6908 3.24835 15.629 3.18372 15.5625 3.18706C14.7687 3.30185 12.8473 3.59028 12.3657 3.66682C12.3087 3.67686 12.2728 3.75872 12.29 3.85639L12.3527 4.16425C12.3656 4.23751 12.4178 4.29544 12.4681 4.29497L15.4944 4.0383C15.5446 4.03782 15.5796 3.99809 15.5873 3.94638L15.6778 3.31777Z" fill="url(#paint8_linear_1040_6276)"/>
    <path opacity="0.59" d="M17.7401 2.97132L16.514 3.06164C16.4556 3.06354 16.4058 3.11428 16.3995 3.17413L16.3008 3.80417C16.2908 3.88987 16.3458 3.96408 16.4301 3.96601L17.3512 3.95465C17.3934 3.95561 17.4393 3.93072 17.458 3.89386L17.8617 3.18486C17.911 3.08385 17.8474 2.9608 17.7401 2.97132Z" fill="url(#paint9_linear_1040_6276)"/>
    <path d="M15.2897 6.21454C15.2208 5.82386 14.8474 5.56239 14.4567 5.63128L13.2603 5.84225C12.8696 5.91114 12.6081 6.28454 12.677 6.67523L13.0373 8.71816C13.1061 9.10884 13.4795 9.3703 13.8702 9.30141L15.0667 9.09044C15.4574 9.02155 15.7188 8.64816 15.6499 8.25748L15.2897 6.21454Z" fill="#273043"/>
    <defs>
        <linearGradient id="paint0_linear_1040_6276" x1="7.6289" y1="11.8216" x2="10.0241" y2="5.24072" gradientUnits="userSpaceOnUse">
            <stop stop-color="#72B3DD"/>
            <stop offset="0.9946" stop-color="#2E81BA"/>
        </linearGradient>
        <linearGradient id="paint1_linear_1040_6276" x1="8.58917" y1="7.58689" x2="8.10557" y2="4.84425" gradientUnits="userSpaceOnUse">
            <stop stop-color="#72B3DD"/>
            <stop offset="0.9946" stop-color="#2E81BA"/>
        </linearGradient>
        <linearGradient id="paint2_linear_1040_6276" x1="18.4433" y1="9.06029" x2="20.3952" y2="3.69764" gradientUnits="userSpaceOnUse">
            <stop stop-color="#72B3DD"/>
            <stop offset="0.9946" stop-color="#2E81BA"/>
        </linearGradient>
        <linearGradient id="paint3_linear_1040_6276" x1="19.2616" y1="5.68785" x2="18.8485" y2="3.34512" gradientUnits="userSpaceOnUse">
            <stop stop-color="#72B3DD"/>
            <stop offset="0.9946" stop-color="#2E81BA"/>
        </linearGradient>
        <linearGradient id="paint4_linear_1040_6276" x1="11.4781" y1="11.3717" x2="11.6033" y2="12.0815" gradientUnits="userSpaceOnUse">
            <stop stop-color="#72B3DD"/>
            <stop offset="0.9946" stop-color="#2E81BA"/>
        </linearGradient>
        <linearGradient id="paint5_linear_1040_6276" x1="15.1873" y1="10.434" x2="15.345" y2="11.3281" gradientUnits="userSpaceOnUse">
            <stop stop-color="#72B3DD"/>
            <stop offset="0.9946" stop-color="#2E81BA"/>
        </linearGradient>
        <linearGradient id="paint6_linear_1040_6276" x1="18.361" y1="10.6765" x2="18.1827" y2="9.6654" gradientUnits="userSpaceOnUse">
            <stop stop-color="#72B3DD"/>
            <stop offset="0.9946" stop-color="#2E81BA"/>
        </linearGradient>
        <linearGradient id="paint7_linear_1040_6276" x1="10.1709" y1="3.96154" x2="10.2961" y2="4.67136" gradientUnits="userSpaceOnUse">
            <stop stop-color="#72B3DD"/>
            <stop offset="0.9946" stop-color="#2E81BA"/>
        </linearGradient>
        <linearGradient id="paint8_linear_1040_6276" x1="13.9451" y1="3.38994" x2="14.1027" y2="4.28405" gradientUnits="userSpaceOnUse">
            <stop stop-color="#72B3DD"/>
            <stop offset="0.9946" stop-color="#2E81BA"/>
        </linearGradient>
        <linearGradient id="paint9_linear_1040_6276" x1="17.1804" y1="3.98228" x2="17.0021" y2="2.97118" gradientUnits="userSpaceOnUse">
            <stop stop-color="#72B3DD"/>
            <stop offset="0.9946" stop-color="#2E81BA"/>
        </linearGradient>
    </defs>
</svg>
