<svg width="364" height="398" viewBox="0 0 364 398" fill="none" xmlns="http://www.w3.org/2000/svg">
    <path d="M88.2862 350.009C89.1802 338.752 101.25 295.593 114.214 271.007C114.214 271.007 142.495 274.579 160.707 274.639C179.708 274.7 209.228 271.007 209.228 271.007C217.68 290.148 227.312 331.965 230.116 340.987C231.809 346.295 232.014 351.965 230.71 357.382C229.406 362.798 226.643 367.754 222.72 371.71C213.088 382.642 188.258 395.159 182.528 395.159C157.875 391.637 133.711 385.283 110.516 376.221C97.4299 370.735 87.4328 361.306 88.2862 350.009Z" fill="#93929C"/>
    <path d="M312.735 115.603C312.902 111.941 311.922 108.318 309.931 105.24C306.865 101.685 304.568 100.811 303.185 96.3254C302.121 92.1614 300.421 88.1862 298.145 84.5401C296.52 82.3049 294.082 80.4762 294.082 78.7694C294.082 77.0626 297.333 73.7708 301.965 74.7055C303.95 75.3237 305.773 76.3729 307.305 77.778C308.836 79.1831 310.038 80.9094 310.825 82.8333C311.269 81.6611 311.529 80.4274 311.597 79.1758L312.613 50.9872C312.628 50.3414 312.773 49.7052 313.038 49.1162C313.304 48.5272 313.685 47.9974 314.158 47.558C314.632 47.1186 315.188 46.7785 315.795 46.5578C316.402 46.3371 317.048 46.2403 317.693 46.273C318.72 46.3169 319.708 46.6815 320.517 47.3157C320.927 47.6375 327.801 55.9737 334.51 64.2366C341.023 72.2569 347.38 80.2081 347.522 80.6942C346.217 92.5395 343.767 104.23 340.207 115.603C340.164 117.502 339.724 119.371 338.915 121.089C338.107 122.808 336.948 124.338 335.512 125.582C334.077 126.826 332.397 127.756 330.581 128.312C328.765 128.868 326.853 129.038 324.967 128.811C323.261 128.868 321.562 128.557 319.986 127.9C318.41 127.242 316.994 126.254 315.834 125.001C314.674 123.748 313.797 122.261 313.262 120.639C312.727 119.018 312.547 117.3 312.735 115.603Z" fill="#FBBEAA"/>
    <path d="M312.248 118.326L295.992 220.37C293.31 233.172 297.455 244.754 312.248 246.786C314.978 247.141 317.752 246.938 320.402 246.189C323.052 245.44 325.522 244.16 327.661 242.426C329.801 240.693 331.566 238.543 332.85 236.107C334.133 233.671 334.908 230.999 335.127 228.254L340.085 118.529C341.386 108.166 336.875 101.258 328.991 100.404C319.319 99.3479 314.198 105.078 312.248 118.326Z" fill="#FBBEAA"/>
    <path d="M325.456 209.073L208.741 120.399C195.127 111.702 185.861 116.335 178.627 125.641C175.324 130.146 173.792 135.708 174.324 141.268C174.856 146.829 177.415 151.999 181.513 155.796L297.943 241.584C302.046 245.049 307.328 246.798 312.688 246.465C318.048 246.132 323.073 243.743 326.715 239.796L327.244 239.227C329.177 237.165 330.67 234.73 331.631 232.072C332.592 229.414 333.001 226.587 332.834 223.766C332.667 220.944 331.926 218.186 330.657 215.66C329.389 213.134 327.619 210.892 325.456 209.073Z" fill="#FBBEAA"/>
    <path d="M181.511 155.755C180.434 154.827 179.453 153.792 178.585 152.666C177.818 149.774 177.719 146.745 178.297 143.809C178.874 140.872 180.112 138.106 181.918 135.72C188.054 126.251 200.937 118.814 206.667 120.236L212.356 123.122L276.769 171.888C271.068 185.286 263.368 197.742 253.93 208.829L181.511 155.755Z" fill="#F18380"/>
    <path d="M199.108 114.059L300.111 182.179C299.686 185.663 310.883 114.059 310.883 114.059L342.564 118.182C342.564 118.182 341.916 190.835 337.156 229.137C335.273 244.281 322.764 250.048 307.854 246.795L307.461 246.709C300.099 245.102 293.173 242.084 287.006 237.756C260.299 219.011 184.905 165.884 178.748 159.209C168.142 147.708 168.142 139.092 174.237 129.623C180.333 120.155 193.378 112.636 199.108 114.059Z" fill="#011A4A"/>
    <path d="M151.642 573.644L130.794 355.373C130.794 331.274 155.624 305.021 192.24 310.67C225.32 315.831 235.398 349.074 232.676 380.569C229.953 412.064 222.597 575.189 222.597 575.189C222.488 579.858 221.46 584.461 219.572 588.733C217.684 593.006 214.972 596.864 211.593 600.089C208.214 603.313 204.232 605.841 199.876 607.527C195.52 609.213 190.875 610.024 186.205 609.915C181.535 609.805 176.933 608.777 172.661 606.889C168.388 605.001 164.53 602.29 161.305 598.911C158.08 595.531 155.553 591.55 153.867 587.194C152.181 582.838 151.37 578.192 151.479 573.523L151.642 573.644Z" fill="#93929C"/>
    <path d="M67.5617 569.296L88.2876 351.065C92.6766 327.373 122.14 306.362 157.049 318.798C188.544 330.055 192.201 364.598 183.586 395.036C174.97 425.475 137.135 584.292 137.135 584.292C134.93 593.295 129.3 601.082 121.442 605.999C113.584 610.916 104.119 612.574 95.0575 610.621C85.9963 608.668 78.0542 603.258 72.9196 595.541C67.7849 587.824 65.8628 578.408 67.5617 569.296Z" fill="#93929C"/>
    <path d="M183.585 395.037C175.01 425.475 137.134 584.292 137.134 584.292" stroke="#5E5D63" stroke-width="0.75" stroke-miterlimit="10"/>
    <path d="M177.489 110.604C177.489 110.604 195.451 113.733 198.946 114.668C201.009 115.152 202.914 116.152 204.485 117.573C206.056 118.995 207.24 120.792 207.927 122.796C210.162 128.119 221.663 162.988 222.72 166.767C223.434 170.931 222.763 175.213 220.81 178.959C219.143 183.51 210.528 204.236 210.528 204.236L209.228 271.006L160.707 278.701L114.214 271.006C114.214 271.006 97.9583 146.813 97.1455 139.133C96.3327 131.452 100.153 116.619 109.337 114.749C118.522 112.88 143.718 110.685 143.718 110.685L177.489 110.604Z" fill="#FBBEAA"/>
    <path d="M211.506 244.159V267.633C179.727 270.559 129.089 268.487 110.07 267.633C109.176 260.928 108.241 249.549 107.266 241.99C133.153 242.64 175.907 245.053 211.506 244.159Z" fill="white"/>
    <path d="M182.656 111.212C181.389 118.816 174.119 127.398 163.981 128.128C150.041 129.133 145.272 123.885 139.569 110.578C139.569 110.578 112.792 112.758 108.89 113.164C99.6504 115.647 97.0677 122.93 95.8486 130.855C94.6294 138.779 98.3832 277.077 98.3832 277.077C98.3832 277.077 182.254 281.872 221.308 277.077C221.308 277.077 223.655 176.177 223.858 173.942C224.02 171.506 223.876 163.138 221.942 155.567C218.425 141.799 209.675 124.096 207.359 120.195C205.583 117.091 202.667 114.802 199.231 113.815C196.833 113.042 182.656 111.212 182.656 111.212Z" fill="#002366"/>
    <path d="M146.256 163.119L149.948 162.899L150.228 167.594L154.167 167.359L153.887 162.664L157.579 162.444L158.343 175.271L154.652 175.491L154.349 170.411L150.409 170.646L150.712 175.725L147.02 175.945L146.256 163.119L146.256 163.119ZM170.752 161.659L171.517 174.485L167.95 174.698L167.366 164.912L165.03 165.051L165.249 168.733C165.348 170.387 165.344 172.421 164.43 173.621C163.524 174.95 161.696 175.445 159.584 175.185L159.394 172.004C161.382 172.272 161.833 171.473 161.681 168.934L161.28 162.2L170.751 161.636L170.752 161.659ZM173.834 161.476L177.526 161.255L180.068 168.75L181.702 161.007L185.394 160.787L187.885 173.51L184.442 173.715L183.176 166.904L181.608 173.883L179.148 174.03L176.775 167.286L176.326 174.198L172.883 174.403L173.834 161.475L173.834 161.476ZM188.475 160.603L192.167 160.383L192.477 165.59L195.734 160.17L199.798 159.928L195.503 166.555L200.687 172.747L196.262 173.011L192.633 168.001L192.943 173.208L189.251 173.428L188.487 160.602L188.476 160.603L188.475 160.603ZM171.774 147.826C149.626 149.146 135.466 158.279 136.192 170.464C136.911 182.533 152.052 190.037 174.212 188.716C196.484 187.389 210.512 178.135 209.794 166.078C209.068 153.893 194.058 146.498 171.774 147.826ZM174.098 186.817C153.293 188.057 138.951 181.395 138.292 170.339C137.626 159.167 151.094 150.964 171.888 149.725C192.806 148.478 207.039 155.019 207.705 166.202C208.364 177.257 195.027 185.57 174.098 186.817ZM171.994 151.507C152.431 152.673 139.783 160.185 140.381 170.215C140.978 180.245 154.429 186.201 173.992 185.035C193.555 183.869 206.203 176.357 205.605 166.327C205.019 156.297 191.568 150.341 171.994 151.507ZM173.97 184.662C154.644 185.814 141.336 179.979 140.754 170.204C140.171 160.43 152.703 153.055 172.017 151.904C191.332 150.753 204.651 156.587 205.233 166.361C205.828 176.135 193.296 183.511 173.97 184.662L173.97 184.662Z" fill="white"/>
    <path d="M43.9091 265.032L95.9675 128.039C102.917 113.409 113.198 112.433 124.415 116.497C129.603 118.567 133.846 122.475 136.335 127.475C138.824 132.475 139.383 138.217 137.907 143.603L84.3041 278.159C82.6793 283.278 79.1345 287.568 74.4137 290.13C69.6929 292.691 64.1634 293.324 58.9861 291.895L58.2139 291.691C55.483 290.946 52.9324 289.653 50.7177 287.889C48.5029 286.126 46.6705 283.931 45.332 281.436C43.9936 278.942 43.1771 276.201 42.9325 273.381C42.6879 270.561 43.0201 267.72 43.9091 265.032Z" fill="#FBBEAA"/>
    <path d="M65.4873 208.219L95.9665 128.039C96.7839 126.28 97.7491 124.594 98.8518 122.999C102.585 120.662 106.859 119.329 111.26 119.13C115.66 118.93 120.037 119.871 123.967 121.862C128.53 124.082 132.198 127.794 134.363 132.384C136.528 136.973 137.061 142.165 135.874 147.098C135.874 147.586 135.589 148.521 135.346 149.78L103.891 228.823C90.1519 223.868 77.2132 216.927 65.4873 208.219Z" fill="#F18380"/>
    <path d="M98.8113 120.724L40.9526 270.888C88.4754 255.681 91.0675 263.304 100.079 239.545C100.079 239.545 138.556 147.708 139.694 141.449C140.882 136.516 140.349 131.324 138.183 126.735C136.018 122.145 132.35 118.433 127.787 116.213C115.067 109.71 102.388 115.603 98.8113 120.724Z" fill="#002366"/>
    <path d="M142.132 13.2741C139.978 8.07234 129.127 5.75594 123.032 8.60067C116.936 11.4454 110.84 18.9229 109.946 39.2423C109.052 59.5618 110.718 75.0858 107.061 85.3268C110.441 84.8994 113.622 83.486 116.204 81.2629C116.204 83.9451 116.611 90.4473 116.611 90.4473C118.578 90.2875 120.458 89.567 122.028 88.3714C123.598 87.1757 124.793 85.555 125.47 83.7013C126.573 86.0466 127.273 88.5607 127.543 91.1383C131.119 89.2689 142.132 86.0178 142.132 66.7549V13.2741Z" fill="#1D1B24"/>
    <path d="M212.967 80.7754C211.869 66.0235 207.521 41.6401 207.521 41.6401L197.118 41.0712C197.118 41.0712 194.354 85.0018 193.582 94.5926C192.81 104.183 190.046 106.784 190.046 106.784C190.046 106.784 203.254 104.956 205.327 92.5606C205.63 94.9875 205.793 97.43 205.814 99.8757C205.814 99.8757 214.105 95.5273 212.967 80.7754Z" fill="#302D3B"/>
    <path d="M142.58 77.0372V111.54C142.58 111.54 145.303 123.406 163.55 123.406C167.172 123.712 170.774 122.619 173.616 120.351C176.458 118.084 178.323 114.814 178.83 111.214V77.0777L142.58 77.0372Z" fill="#FBBEAA"/>
    <path d="M178.83 105.769C167.37 111.214 150.667 106.338 142.58 91.3827V77.0372H178.83V105.769Z" fill="#F18380"/>
    <path d="M197.57 106.828C200.028 119.936 178.727 132.224 163.162 128.128C179.547 117.478 178.727 110.924 178.727 110.924V97.8157C183.643 96.9965 195.112 93.7198 197.57 106.828Z" fill="#011A4A"/>
    <path d="M142.681 92.9004C137.765 92.0811 119.399 92.9253 114.007 101.912C111.549 106.009 113.188 113.382 113.188 113.382C113.188 113.382 119.742 112.563 124.657 111.743C128.753 120.755 149.235 132.225 164.335 128.212C142.681 116.659 142.681 110.923 142.681 110.923V92.9004Z" fill="#011A4A"/>
    <path d="M201.465 50.5811C201.637 58.8334 201.257 67.088 200.327 75.2895C198.864 87.0341 194.719 100.039 173.952 100.039C153.186 100.039 142.66 90.651 138.19 75.2895C135.508 66.0238 130.062 52.2879 132.297 36.4387C134.533 20.5895 144.083 10.2267 166.637 9.61714C189.192 9.00756 203.822 19.0859 201.465 50.5811Z" fill="#FBBEAA"/>
    <path d="M157.535 57.6108C157.673 58.2215 157.979 58.781 158.42 59.2255C158.861 59.67 159.418 59.9813 160.028 60.1238C160.637 60.2663 161.274 60.2343 161.867 60.0314C162.459 59.8285 162.982 59.4629 163.376 58.9765C163.77 58.4901 164.019 57.9025 164.094 57.2811C164.17 56.6597 164.069 56.0296 163.803 55.463C163.537 54.8963 163.117 54.4161 162.59 54.0772C162.064 53.7383 161.453 53.5545 160.827 53.5469C160.342 53.5923 159.871 53.7342 159.441 53.9642C159.012 54.1942 158.633 54.5077 158.326 54.8863C158.02 55.2649 157.792 55.7008 157.656 56.1687C157.52 56.6365 157.479 57.1269 157.535 57.6108Z" fill="#403D4F"/>
    <path d="M187.77 57.6108C187.908 58.2232 188.216 58.7842 188.658 59.2292C189.101 59.6743 189.66 59.9853 190.272 60.1264C190.884 60.2675 191.523 60.2329 192.116 60.0267C192.709 59.8205 193.231 59.4511 193.623 58.961C194.015 58.4708 194.261 57.8799 194.332 57.2562C194.403 56.6325 194.297 56.0015 194.025 55.4357C193.753 54.8699 193.326 54.3925 192.795 54.0583C192.264 53.7242 191.649 53.5469 191.021 53.5469C190.54 53.5974 190.073 53.7429 189.648 53.9751C189.223 54.2073 188.849 54.5215 188.547 54.8996C188.244 55.2776 188.02 55.7119 187.887 56.1773C187.753 56.6427 187.714 57.13 187.77 57.6108Z" fill="#403D4F"/>
    <path d="M167.37 46.1112L167.045 45.7454C166.704 45.4541 166.337 45.1955 165.947 44.9733C165.443 44.6632 164.895 44.4304 164.322 44.2825C163.684 44.0422 163.012 43.905 162.331 43.8761C161.683 43.7949 161.028 43.7949 160.38 43.8761C159.812 43.8266 159.241 43.8266 158.673 43.8761L157.088 44.3231C156.869 44.4109 156.685 44.5696 156.567 44.774C156.448 44.9784 156.402 45.2166 156.435 45.4505C156.467 45.6845 156.578 45.9006 156.748 46.0646C156.918 46.2285 157.138 46.3308 157.373 46.355H158.998C159.47 46.2937 159.948 46.2937 160.421 46.355C160.948 46.3147 161.478 46.3147 162.006 46.355C162.525 46.4229 163.04 46.5179 163.55 46.6395C164.037 46.6395 164.444 46.9646 164.85 47.0052C165.137 47.1323 165.437 47.2278 165.744 47.2897H166.069C166.329 47.4019 166.622 47.4095 166.887 47.3111C167.152 47.2127 167.368 47.0157 167.492 46.7614C167.552 46.6201 167.583 46.4681 167.583 46.3145C167.583 46.1608 167.552 46.0087 167.492 45.8674L167.37 46.1112Z" fill="#403D4F"/>
    <path d="M187.119 47.6547H187.403L188.013 47.4108H188.46C188.611 47.3188 188.776 47.2503 188.948 47.2077C189.293 47.0893 189.646 46.9942 190.004 46.9232C190.395 46.8659 190.792 46.8659 191.183 46.9232C191.52 46.8842 191.861 46.8842 192.199 46.9232H193.499C193.772 46.9127 194.031 46.7967 194.22 46.5996C194.41 46.4026 194.515 46.1399 194.515 45.8665C194.518 45.6623 194.457 45.4621 194.341 45.2944C194.224 45.1267 194.058 44.9999 193.865 44.9318L192.605 44.4848C192.16 44.3307 191.694 44.2484 191.223 44.241C190.673 44.1403 190.108 44.1403 189.557 44.241C188.492 44.3566 187.479 44.7645 186.631 45.4196C186.344 45.6453 186.085 45.9046 185.859 46.1917C185.656 46.4356 185.656 46.5168 185.656 46.5168V46.9232C185.621 47.1976 185.695 47.4746 185.862 47.695C186.029 47.9153 186.276 48.0614 186.55 48.1018C186.672 48.0735 186.786 48.0188 186.884 47.9415C186.983 47.8643 187.063 47.7663 187.119 47.6547Z" fill="#403D4F"/>
    <path d="M178.83 71.4282C179.516 71.434 180.196 71.2959 180.826 71.0229C181.456 70.7499 182.022 70.3481 182.487 69.8432C182.658 69.6666 182.79 69.4558 182.874 69.2247C182.958 68.9936 182.992 68.7475 182.975 68.5022C182.975 68.0552 182.284 62.447 182.04 60.3744C182.01 60.1658 181.899 59.9771 181.733 59.8482C181.566 59.7193 181.356 59.6602 181.146 59.6835C180.945 59.7136 180.763 59.818 180.635 59.9759C180.507 60.1339 180.443 60.3341 180.455 60.537C180.455 60.8621 181.349 68.2178 181.43 68.6648C181.098 69.0331 180.69 69.3253 180.234 69.5216C179.778 69.718 179.285 69.8139 178.789 69.8027C178.689 69.8025 178.591 69.8227 178.499 69.8619C178.408 69.9012 178.325 69.9587 178.257 70.031C178.188 70.1033 178.135 70.1889 178.101 70.2824C178.067 70.3759 178.052 70.4754 178.057 70.5748C178.039 70.6841 178.045 70.7962 178.076 70.9026C178.107 71.0091 178.162 71.107 178.236 71.1892C178.31 71.2714 178.402 71.3357 178.505 71.3771C178.608 71.4185 178.719 71.436 178.83 71.4282Z" fill="#F18380"/>
    <path d="M152.129 2.91142C174.643 -4.11911 190.655 4.6996 195.735 11.3644C197.795 10.6875 199.616 9.42999 200.978 7.743C202.341 6.05601 203.187 4.01138 203.415 1.8549C204.591 2.49982 205.53 3.5029 206.096 4.71827C206.661 5.93365 206.825 7.29787 206.562 8.6125C206.299 9.92714 205.624 11.1235 204.634 12.0278C203.644 12.932 202.391 13.4969 201.058 13.6402C209.186 16.3223 213.941 24.4908 213.697 34.6098C213.355 38.3093 212.05 41.8546 209.911 44.8922C207.771 47.9298 204.873 50.3535 201.505 51.9219C199.14 44.8275 195.58 38.1892 190.98 32.2934C189.714 37.4938 187.031 42.2412 183.228 46.0078C179.426 49.7744 174.653 52.4125 169.441 53.6288C169.947 50.4981 170.749 47.4226 171.839 44.4444C167.282 48.2506 161.872 50.8997 156.071 52.1659C155.666 48.7159 155.762 45.2254 156.356 41.8029C152.292 49.1179 145.464 60.2123 135.386 63.3009H129.046C125.713 56.4676 124.134 48.9115 124.454 41.3152C124.535 27.2542 129.615 9.94195 152.129 2.91142Z" fill="#302D3B"/>
    <path d="M139.004 65.7805C138.679 60.2536 137.216 53.5889 130.469 54.7674C122.586 55.9459 121.813 77.2814 138.597 74.7211L139.004 65.7805Z" fill="#FBBEAA"/>
    <path d="M129.819 67.2027C129.961 67.2047 130.1 67.1678 130.222 67.0962C130.343 67.0245 130.443 66.9208 130.51 66.7963C130.682 66.4395 130.946 66.1349 131.274 65.9135C131.603 65.6921 131.984 65.562 132.38 65.5365C132.844 65.5412 133.299 65.6629 133.704 65.8902C134.109 66.1175 134.45 66.4431 134.696 66.837C134.787 66.9832 134.925 67.0947 135.087 67.1536C135.249 67.2125 135.426 67.2154 135.59 67.162C135.754 67.1012 135.893 66.9894 135.989 66.843C136.084 66.6966 136.129 66.5236 136.118 66.3493C136.057 64.6324 135.525 62.9655 134.578 61.5316C133.632 60.0978 132.309 58.9525 130.754 58.2215C130.56 58.1572 130.348 58.1723 130.166 58.2637C129.983 58.3551 129.844 58.5153 129.779 58.7092C129.714 58.9032 129.729 59.1148 129.821 59.2977C129.912 59.4805 130.073 59.6196 130.266 59.6845C131.18 60.1284 131.993 60.7538 132.657 61.5223C133.321 62.2909 133.821 63.1865 134.127 64.1548C133.548 63.9133 132.926 63.789 132.298 63.789C131.641 63.8512 131.009 64.0723 130.457 64.4334C129.905 64.7946 129.449 65.2848 129.128 65.8617C129.079 65.9521 129.048 66.0515 129.038 66.154C129.028 66.2565 129.038 66.36 129.068 66.4584C129.099 66.5569 129.148 66.6484 129.214 66.7273C129.281 66.8063 129.362 66.8711 129.454 66.9182L129.819 67.2027Z" fill="#F18380"/>
    <path d="M130.835 79.5971C132.786 64.9265 138.394 40.7869 138.394 40.7869H148.838C148.838 40.7869 149.244 84.7989 149.529 94.4303C149.813 104.062 152.373 106.947 152.373 106.947C152.373 106.947 139.288 104.427 137.865 91.9107C137.429 94.3289 137.144 96.7719 137.012 99.2256C137.012 99.2256 128.925 94.2678 130.835 79.5971Z" fill="#302D3B"/>
    <path d="M175.499 81.6035C171.576 81.4521 167.809 80.0253 164.771 77.5396" stroke="#73102A" stroke-width="0.5" stroke-miterlimit="10" stroke-linecap="round"/>
    <path d="M310.388 113.336L309.385 124.518L342.334 129.587L342.334 117.548L310.388 113.336Z" fill="#011742"/>
    <path d="M97.9042 266.008L98.3833 277.225C98.3833 277.225 137.369 279.844 162.381 279.759C185.415 279.681 221.309 277.225 221.309 277.225L221.309 267.72C221.309 267.72 183.854 268.988 159.846 268.988C127.531 268.988 97.9042 266.008 97.9042 266.008Z" fill="#011A4A"/>
    <g filter="url(#filter0_d_576_2056)">
        <rect x="131.09" y="177.868" width="67.0616" height="95.5628" rx="1" transform="rotate(-6.55484 131.09 177.868)" fill="#EFEFEF"/>
    </g>
    <path d="M162.577 220.697C167.241 218.727 171.458 215.806 174.961 212.122C177.129 209.847 179.587 207.872 182.271 206.25C183.845 205.266 185.203 203.968 186.26 202.436C187.657 200.061 188.814 197.553 189.711 194.95C190.044 192.709 190.806 190.549 191.956 188.591C193.049 187.589 196.908 188.125 198.91 192.018C199.601 193.751 199.914 195.618 199.828 197.493C199.742 199.367 199.26 201.206 198.413 202.887C197.417 204.903 196.636 207.018 196.084 209.196L196.448 209.414C199.5 207.794 202.761 206.618 206.132 205.924C207.355 205.651 208.629 205.798 209.748 206.344C210.868 206.889 211.768 207.799 212.303 208.929C212.839 210.059 212.979 211.342 212.701 212.571C212.422 213.8 211.742 214.904 210.769 215.705C216.03 216.309 215.433 224.424 210.916 225.497C211.884 225.902 212.7 226.599 213.255 227.492C213.81 228.385 214.078 229.431 214.021 230.489C213.964 231.548 213.586 232.567 212.938 233.409C212.29 234.251 211.403 234.875 210.396 235.197C213.604 238.155 211.259 243.03 205.434 243.051C200.702 243.532 188.044 245.513 183.641 246.461C179.237 247.409 170.386 245.313 167.542 246.192C163.31 247.743 158.394 247.769 154.644 236.632C150.895 225.495 158.222 222.136 162.577 220.697Z" fill="#FBBEAA"/>
    <path d="M160.704 254.292L73.8637 291.158C62.0276 296.685 48.0492 291.861 42.7323 278.05C41.7601 275.476 41.6944 271.267 41.8149 268.517C41.9355 265.768 42.6132 263.072 43.8071 260.593C45.0009 258.113 47.2119 253.643 49.286 251.835C51.36 250.026 58.751 246.688 61.3698 245.843L159.065 219.065L160.704 254.292Z" fill="#002366"/>
    <rect x="291.783" y="65.2473" width="37.6854" height="65.6004" rx="3" transform="rotate(-42.7855 291.783 65.2473)" fill="#171E2E"/>
    <rect x="296.676" y="66.424" width="32.1023" height="55.8302" rx="1" transform="rotate(-42.7855 296.676 66.424)" fill="#FEFFFE"/>
    <mask id="mask0_576_2056" style="mask-type:alpha" maskUnits="userSpaceOnUse" x="297" y="45" width="61" height="62">
        <rect x="296.676" y="66.424" width="32.1023" height="55.8302" rx="1" transform="rotate(-42.7855 296.676 66.424)" fill="#FEFFFE"/>
    </mask>
    <g mask="url(#mask0_576_2056)">
        <path d="M296.676 66.424L320.236 44.6183L334.599 107.398L296.676 66.424Z" fill="#F4F4F6"/>
    </g>
    <path d="M325.171 58.8541C322.863 55.1716 327.55 50.3155 330.524 48.418C330.524 48.418 332.313 46.3473 336.023 50.0567C340.119 54.153 337.661 56.9566 337.661 56.9566C334.985 59.8028 328.739 64.5465 325.171 58.8541Z" fill="#FBBEAA"/>
    <path d="M331.725 65.9846C329.417 62.3021 334.104 57.446 337.077 55.5485C337.077 55.5485 338.867 53.4778 342.576 57.1872C346.673 61.2836 344.215 64.0872 344.215 64.0872C341.538 66.9334 335.293 71.677 331.725 65.9846Z" fill="#FBBEAA"/>
    <path d="M338.279 72.5387C335.971 68.8562 340.658 64 343.632 62.1026C343.632 62.1026 345.421 60.0318 349.131 63.7412C353.227 67.8376 350.769 70.6412 350.769 70.6412C348.093 73.4874 341.847 78.2311 338.279 72.5387Z" fill="#FBBEAA"/>
    <path d="M346.366 78.3721C344.453 75.2857 348.337 71.2155 350.802 69.6251C350.802 69.6251 352.285 67.8895 355.359 70.9985C358.754 74.4319 356.717 76.7818 356.717 76.7818C354.499 79.1673 349.323 83.1433 346.366 78.3721Z" fill="#FBBEAA"/>
    <defs>
        <filter id="filter0_d_576_2056" x="131.198" y="170.32" width="79.3174" height="102.378" filterUnits="userSpaceOnUse" color-interpolation-filters="sRGB">
            <feFlood flood-opacity="0" result="BackgroundImageFix"/>
            <feColorMatrix in="SourceAlpha" type="matrix" values="0 0 0 0 0 0 0 0 0 0 0 0 0 0 0 0 0 0 127 0" result="hardAlpha"/>
            <feOffset dx="2"/>
            <feComposite in2="hardAlpha" operator="out"/>
            <feColorMatrix type="matrix" values="0 0 0 0 0.603922 0 0 0 0 0.6 0 0 0 0 0.631373 0 0 0 1 0"/>
            <feBlend mode="normal" in2="BackgroundImageFix" result="effect1_dropShadow_576_2056"/>
            <feBlend mode="normal" in="SourceGraphic" in2="effect1_dropShadow_576_2056" result="shape"/>
        </filter>
    </defs>
</svg>
