<svg width="31" height="31" viewBox="0 0 31 31" fill="none" xmlns="http://www.w3.org/2000/svg">
<g clip-path="url(#clip0_774_9007)">
<path d="M3.42492 11.3835L7.43002 7.36708V11.011H8.65147V5.27441H2.93098V6.4993H6.56468L2.55957 10.5157L3.42492 11.3835Z" fill="white"/>
<path d="M23.0452 10.2006V11.4255H28.7657V5.69277H27.5443V9.3367L23.5392 5.32031L22.6738 6.18426L26.6828 10.2006H23.0452Z" fill="white"/>
<path d="M16.6275 22.0463L15.7621 21.1824L11.7188 25.2372L15.7621 29.2919L16.6275 28.4242L14.0583 25.8477H19.7213V24.6228H14.0583L16.6275 22.0463Z" fill="white"/>
<path d="M20.5292 15.2385V11.8979L20.5024 11.4256C20.4419 10.6655 20.2086 9.92937 19.8203 9.27375C19.432 8.61813 18.8991 8.06043 18.2625 7.64345C18.7922 7.00661 19.0822 6.20349 19.0819 5.37417V3.7845C19.0819 2.84353 18.7091 1.9411 18.0456 1.27574C17.3821 0.61037 16.4822 0.236572 15.5439 0.236572C14.6344 0.238544 13.7605 0.591317 13.1033 1.2218C12.446 1.85228 12.0559 2.71215 12.0136 3.62324H10.5586V4.4411H12.0059V5.37417C12.0056 6.20349 12.2956 7.00661 12.8253 7.64345C12.1889 8.06323 11.657 8.62391 11.2707 9.28229C10.8843 9.94067 10.6538 10.6792 10.5969 11.441L10.5701 11.8749V15.2538L20.5292 15.2385ZM11.9715 12.2396H15.138V13.8255H11.9715V12.2396ZM14.0429 8.58419C14.5123 8.80646 15.0249 8.92185 15.5439 8.92209C16.0629 8.92185 16.5755 8.80646 17.0449 8.58419C17.2976 8.70422 17.5354 8.85373 17.7532 9.02961L15.5439 11.249L13.3346 9.02961C13.5524 8.85373 13.7902 8.70422 14.0429 8.58419ZM15.9574 13.8216V12.2358H19.1278V13.8178L15.9574 13.8216ZM16.5318 11.4179L18.339 9.60557C18.7603 10.1262 19.0258 10.756 19.1048 11.4218L16.5318 11.4179ZM15.5516 1.65344C16.0871 1.65384 16.6027 1.85695 16.9953 2.22216C17.3878 2.58738 17.6285 3.08777 17.669 3.62324H13.4265C13.4679 3.0881 13.7088 2.58822 14.1012 2.22318C14.4936 1.85814 15.0087 1.65473 15.5439 1.65344H15.5516ZM17.6805 4.4411V5.37417C17.6572 5.92421 17.4229 6.44396 17.0266 6.82491C16.6302 7.20586 16.1025 7.41855 15.5535 7.41855C15.0045 7.41855 14.4767 7.20586 14.0804 6.82491C13.684 6.44396 13.4498 5.92421 13.4265 5.37417V4.4411H17.6805ZM12.7641 9.60557L14.5713 11.4179H12.0059C12.083 10.7555 12.3429 10.1279 12.7564 9.60557H12.7641Z" fill="white"/>
<path d="M10.4477 26.4159C10.3862 25.6561 10.152 24.9206 9.76303 24.2656C9.37409 23.6107 8.84075 23.0538 8.20389 22.6376C8.73478 21.9999 9.02487 21.1952 9.0233 20.3645V18.7786C9.02334 17.853 8.66222 16.964 8.01716 16.3018C7.37211 15.6397 6.49433 15.2569 5.5715 15.2353C4.64866 15.2138 3.75404 15.5551 3.07892 16.1864C2.40381 16.8177 2.0018 17.6889 1.95884 18.6135H0.5V19.4314H1.95117V20.3645C1.9496 21.1952 2.23969 21.9999 2.77058 22.6376C2.13372 23.0538 1.60038 23.6107 1.21144 24.2656C0.822495 24.9206 0.588295 25.6561 0.526806 26.4159H0.5V26.8229V30.2557H10.4553V26.8498V26.4159H10.4477ZM5.47 26.2393L3.25687 24.0237C3.47593 23.8466 3.71495 23.6958 3.96905 23.5745C4.43765 23.797 4.94963 23.9123 5.46808 23.9123C5.98654 23.9123 6.49854 23.797 6.96714 23.5745C7.22124 23.6958 7.46026 23.8466 7.67932 24.0237L5.47 26.2393ZM8.2575 24.5997C8.67896 25.1203 8.9445 25.7501 9.0233 26.4159H6.46171L8.2575 24.5997ZM5.47 16.6437C6.00524 16.645 6.52036 16.8485 6.91276 17.2135C7.30516 17.5785 7.54604 18.0784 7.58743 18.6135H3.3679C3.41203 18.0794 3.65451 17.5814 4.04734 17.2181C4.44017 16.8547 4.95472 16.6525 5.48914 16.6514L5.47 16.6437ZM7.59508 19.4314V20.3645C7.60725 20.6522 7.56126 20.9394 7.45986 21.2088C7.35845 21.4783 7.20376 21.7243 7.00505 21.9322C6.80634 22.1401 6.56772 22.3056 6.30359 22.4186C6.03946 22.5316 5.75526 22.5899 5.46808 22.5899C5.18091 22.5899 4.89671 22.5316 4.63258 22.4186C4.36844 22.3056 4.12985 22.1401 3.93114 21.9322C3.73243 21.7243 3.57771 21.4783 3.47631 21.2088C3.37491 20.9394 3.32892 20.6522 3.34109 20.3645V19.4314H7.59508ZM2.67869 24.5997L4.48595 26.4121H1.94353C2.0211 25.7514 2.28249 25.126 2.69783 24.6074L2.67869 24.5997ZM1.91289 27.2299H5.07946V28.8196H1.91289V27.2299ZM5.89501 28.8158V27.2261H9.06541V28.8119L5.89501 28.8158Z" fill="white"/>
<path d="M30.4769 26.4159C30.4154 25.6561 30.1812 24.9206 29.7923 24.2656C29.4033 23.6107 28.87 23.0538 28.2331 22.6376C28.764 21.9999 29.0541 21.1952 29.0525 20.3645V18.7786C29.0526 17.853 28.6914 16.964 28.0464 16.3018C27.4013 15.6397 26.5236 15.2569 25.6007 15.2353C24.6779 15.2138 23.7833 15.5551 23.1081 16.1864C22.433 16.8177 22.031 17.6889 21.9881 18.6135H20.5292V19.4314H21.9766V20.3645C21.9764 21.1956 22.2678 22.0003 22.7998 22.6376C22.1622 23.0534 21.6281 23.6101 21.2385 24.265C20.8489 24.92 20.6141 25.6558 20.5522 26.4159L20.5254 26.8229V30.2557H30.4807V26.8498L30.4769 26.4159ZM25.4992 26.2393L23.2899 24.0237C23.509 23.8466 23.748 23.6958 24.0021 23.5745C24.4707 23.797 24.9827 23.9123 25.5011 23.9123C26.0196 23.9123 26.5316 23.797 27.0002 23.5745C27.2543 23.6958 27.4933 23.8466 27.7124 24.0237L25.4992 26.2393ZM28.2906 24.5997C28.712 25.1203 28.9776 25.7501 29.0564 26.4159H26.4948L28.2906 24.5997ZM25.5299 16.6514C26.0655 16.6526 26.5811 16.8559 26.9741 17.2209C27.3671 17.5858 27.6088 18.0857 27.6511 18.6212H23.3971C23.4387 18.0834 23.6818 17.5814 24.0774 17.216C24.4731 16.8505 24.992 16.6488 25.5299 16.6514ZM27.6588 19.4391V20.3721C27.6709 20.6599 27.625 20.9471 27.5235 21.2165C27.4221 21.4859 27.2674 21.732 27.0687 21.9399C26.87 22.1478 26.6314 22.3133 26.3673 22.4263C26.1032 22.5393 25.8189 22.5976 25.5318 22.5976C25.2446 22.5976 24.9604 22.5393 24.6963 22.4263C24.4321 22.3133 24.1935 22.1478 23.9948 21.9399C23.7961 21.732 23.6414 21.4859 23.54 21.2165C23.4386 20.9471 23.3926 20.6599 23.4048 20.3721V19.4391H27.6588ZM22.7424 24.6074L24.5343 26.4159H21.9728C22.0496 25.7539 22.3111 25.1271 22.7271 24.6074H22.7424ZM21.9766 27.2376H25.1431V28.8273H21.9766V27.2376ZM25.9587 28.8234V27.2338H29.1253V28.8196L25.9587 28.8234Z" fill="white"/>
</g>
<defs>
<clipPath id="clip0_774_9007">
<rect width="30" height="30" fill="white" transform="translate(0.5 0.236572)"/>
</clipPath>
</defs>
</svg>
