<svg width="27" height="31" viewBox="0 0 27 31" fill="none" xmlns="http://www.w3.org/2000/svg">
<g clip-path="url(#clip0_774_9044)">
<path d="M16.2475 7.24561H9.99121V13.4923H16.2475V7.24561ZM14.8692 12.1054H11.3807V8.62504H14.8692V12.1054Z" fill="white"/>
<path d="M22.8399 16.2627L18.9404 23.2347H26.7356L22.8399 16.2627ZM22.8399 19.0814L24.3862 21.8515H21.2898L22.8399 19.0814Z" fill="white"/>
<path d="M3.38346 16.9839C2.76662 16.9839 2.16362 17.167 1.65073 17.51C1.13785 17.8529 0.738108 18.3405 0.502053 18.9108C0.265999 19.4812 0.204238 20.1088 0.324577 20.7144C0.444917 21.3199 0.741954 21.8761 1.17813 22.3126C1.6143 22.7492 2.17001 23.0465 2.775 23.1669C3.37999 23.2873 4.00709 23.2255 4.57698 22.9893C5.14687 22.753 5.63394 22.3529 5.97664 21.8396C6.31933 21.3263 6.50225 20.7228 6.50225 20.1054C6.50225 19.2775 6.17368 18.4835 5.58879 17.8982C5.0039 17.3128 4.21061 16.9839 3.38346 16.9839ZM3.38346 21.8437C3.03847 21.8437 2.70124 21.7413 2.41439 21.5495C2.12755 21.3577 1.90397 21.085 1.77195 20.766C1.63993 20.447 1.60538 20.096 1.67269 19.7573C1.73999 19.4187 1.90612 19.1076 2.15006 18.8634C2.394 18.6193 2.70481 18.453 3.04316 18.3857C3.38152 18.3183 3.73223 18.3529 4.05096 18.485C4.36969 18.6171 4.64213 18.8409 4.83379 19.128C5.02546 19.4151 5.12774 19.7526 5.12774 20.0979C5.12823 20.3277 5.0835 20.5553 4.99611 20.7677C4.90871 20.9802 4.78038 21.1733 4.6184 21.3361C4.45643 21.4989 4.26401 21.6282 4.05212 21.7166C3.84023 21.8049 3.61301 21.8507 3.38346 21.8512V21.8437Z" fill="white"/>
<path d="M3.78288 24.9727H2.9873V29.8399H3.78288V24.9727Z" fill="white"/>
<path d="M12.7138 5.50379H13.5094C13.5281 4.80052 13.4059 4.10062 13.1499 3.44541C12.894 2.79019 12.5095 2.19293 12.0191 1.68889C11.5287 1.18484 10.9424 0.78422 10.2948 0.510671C9.64722 0.237123 8.95143 0.0961914 8.24852 0.0961914C7.54561 0.0961914 6.8498 0.237123 6.2022 0.510671C5.5546 0.78422 4.96833 1.18484 4.47796 1.68889C3.98759 2.19293 3.60307 2.79019 3.3471 3.44541C3.09114 4.10062 2.96891 4.80052 2.98764 5.50379V9.02903L0.746582 11.272L1.31058 11.8328L2.98764 10.1505V15.2384H3.77947V10.1505L5.45653 11.829L6.01679 11.2683L3.77574 9.02529V5.50379C3.7252 4.88591 3.80319 4.26425 4.00476 3.67804C4.20632 3.09183 4.52708 2.5538 4.94683 2.09789C5.36657 1.64199 5.87618 1.27811 6.44348 1.02923C7.01079 0.780336 7.6235 0.651837 8.24291 0.651837C8.86233 0.651837 9.47501 0.780336 10.0423 1.02923C10.6096 1.27811 11.1192 1.64199 11.539 2.09789C11.9587 2.5538 12.2795 3.09183 12.4811 3.67804C12.6826 4.26425 12.7606 4.88591 12.7101 5.50379H12.7138Z" fill="white"/>
<path d="M17.9732 29.444C16.7844 29.444 15.6444 28.9714 14.8038 28.1301C13.9633 27.2888 13.4911 26.1478 13.4911 24.958V21.4328L15.7321 19.1898L15.1681 18.6291L13.4948 20.3038V15.2197H12.6992V20.3038L11.0222 18.6291L10.4619 19.1898L12.703 21.4328V24.958C12.7395 26.3302 13.3098 27.6339 14.2924 28.5916C15.275 29.5492 16.5923 30.085 17.9638 30.085C19.3353 30.085 20.6526 29.5492 21.6353 28.5916C22.6179 27.6339 23.1882 26.3302 23.2247 24.958H22.4291C22.4292 26.1433 21.9605 27.2804 21.1256 28.1209C20.2907 28.9614 19.1574 29.4371 17.9732 29.444Z" fill="white"/>
<path d="M20.7661 11.8291L22.4432 10.1506V15.2384H23.235V10.1506L24.9121 11.8291L25.4724 11.2646L23.235 9.02534V0.632812H22.4432V9.02534L20.2021 11.2646L20.7661 11.8291Z" fill="white"/>
</g>
<defs>
<clipPath id="clip0_774_9044">
<rect width="26.4706" height="30" fill="white" transform="translate(0.264648 0.236328)"/>
</clipPath>
</defs>
</svg>
