<svg width="41" height="22" viewBox="0 0 41 22" fill="none" xmlns="http://www.w3.org/2000/svg">
<path d="M6.18724 7.20709H8.19354V9.59158H10.3343V7.20709H12.3406V13.7219H10.3343V11.1419H8.19323V13.7219H6.18693V7.20709H6.18724ZM19.5 7.20709V13.7219H17.5614V8.75135H16.2915V10.6212C16.2915 11.4614 16.2238 12.491 15.6899 13.0707C15.1564 13.7158 14.1504 13.9113 13.0153 13.7158V12.1004C14.083 12.2959 14.3529 11.9052 14.3529 10.6154V7.19518H19.5V7.20709ZM21.175 7.20709H23.1813L24.3161 11.0769L25.4509 7.20709H27.4572L28.3957 13.7219H26.5246L26.0584 10.2367L24.9844 13.7216H23.6471L22.5797 10.2367L22.1135 13.7216H20.2424L21.1746 7.20679L21.175 7.20709ZM29.1318 7.20709H31.1381V9.85211L33.0767 7.20709H35.2852L32.7457 10.4318L35.3532 13.7219H32.9482L31.1444 11.0769V13.7219H29.1381V7.20709H29.1321H29.1318ZM20.5 0.236572C8.46315 0.236572 0.5 4.43196 0.5 10.6212C0.5 16.7512 8.45717 21.0058 20.5 21.0058C32.6043 21.0058 40.5 16.7454 40.5 10.6212C40.5 4.43196 32.6102 0.236572 20.5 0.236572ZM20.5 20.0413C9.19323 20.0413 1.6411 16.2365 1.6411 10.6212C1.6411 4.94661 9.19953 1.20112 20.5 1.20112C31.8682 1.20112 39.3649 4.9408 39.3649 10.6212C39.3649 16.2365 31.8742 20.0413 20.5 20.0413ZM20.5 2.10641C9.86819 2.10641 2.77622 5.52662 2.77622 10.6212C2.77622 15.7158 9.86819 19.136 20.5 19.136C31.1318 19.136 38.2238 15.7158 38.2238 10.6212C38.2301 5.52662 31.1381 2.10641 20.5 2.10641ZM20.5 18.9466C9.99701 18.9466 2.97874 15.5918 2.97874 10.627C2.97874 5.66253 10.003 2.30769 20.5 2.30769C30.997 2.30769 38.0213 5.66253 38.0213 10.627C38.0276 15.5918 31.003 18.9469 20.5 18.9469V18.9466Z" fill="#0F58AC"/>
</svg>
