<svg width="31" height="26" viewBox="0 0 31 26" fill="none" xmlns="http://www.w3.org/2000/svg">
<g clip-path="url(#clip0_774_9014)">
<path d="M24.5932 9.06873H21.4969L23.5611 5.73682C23.8753 5.22869 24.0396 4.65303 24.0378 4.06754C24.036 3.48205 23.868 2.90728 23.5506 2.40086C23.2333 1.89443 22.7778 1.47413 22.2297 1.18207C21.6816 0.89002 21.0603 0.736472 20.4279 0.736819C19.8345 0.736101 19.2501 0.871275 18.7268 1.13031C18.2035 1.38934 17.7574 1.76418 17.4284 2.22146L12.4983 9.0474H0.518555V25.7112H24.6116C25.3871 25.7112 26.155 25.5697 26.8714 25.2948C27.5878 25.0199 28.2387 24.617 28.7868 24.109C29.335 23.6011 29.7697 22.9982 30.066 22.3346C30.3623 21.6711 30.5146 20.96 30.514 20.2419V14.538C30.5146 13.8185 30.3617 13.106 30.0642 12.4414C29.7667 11.7767 29.3304 11.173 28.7803 10.6649C28.2302 10.1567 27.5772 9.75413 26.8587 9.48023C26.1401 9.20632 25.3702 9.06648 24.5932 9.06873ZM2.19572 24.1669V10.643H4.49952V24.1669H2.19572ZM5.49016 24.1669V10.643H11.6505V24.1669H5.49016ZM13.3231 10.643H13.383L13.8898 9.94331L18.8153 3.11737C18.9891 2.87433 19.2253 2.67502 19.5027 2.53728C19.7801 2.39953 20.0901 2.32766 20.4049 2.32811C20.7398 2.32831 21.0687 2.40993 21.3588 2.56481C21.6489 2.71969 21.89 2.9424 22.058 3.21064C22.2259 3.47889 22.3148 3.78327 22.3158 4.09334C22.3168 4.4034 22.2299 4.70827 22.0636 4.97743L20.0041 8.30935L18.5435 10.66H20.8473C20.1163 11.1077 19.4927 11.6898 19.015 12.3702C18.5374 13.0505 18.216 13.8145 18.0708 14.6148C17.9256 15.415 17.9597 16.2343 18.171 17.0218C18.3823 17.8093 18.7663 18.5482 19.2991 19.1924L23.4459 24.1669H13.3092L13.3231 10.643ZM28.7769 20.2675C28.7786 21.2802 28.3544 22.2537 27.594 22.9817C26.8336 23.7096 25.797 24.1347 24.7038 24.1669L20.0962 18.6464C19.5263 17.9608 19.158 17.1502 19.027 16.2936C18.8961 15.437 19.007 14.5637 19.3489 13.7586C19.6909 12.9535 20.2522 12.2441 20.9783 11.6996C21.7044 11.1551 22.5704 10.794 23.492 10.6515H24.5748C25.6905 10.6538 26.7598 11.0654 27.5483 11.7963C28.3368 12.5272 28.7803 13.5177 28.7815 14.5508L28.7769 20.2675Z" fill="white"/>
</g>
<defs>
<clipPath id="clip0_774_9014">
<rect width="30" height="25" fill="white" transform="translate(0.5 0.736816)"/>
</clipPath>
</defs>
</svg>
