<svg width="21" height="41" viewBox="0 0 21 41" fill="none" xmlns="http://www.w3.org/2000/svg">
<g clip-path="url(#clip0_774_8984)">
<path d="M17.5009 17.1355H10.8982V14.5872L13.1401 15.7817L12.2158 10.3369L16.1489 6.48472L10.7408 5.68841L8.32688 0.711426L5.91783 5.68841L0.509766 6.48472L4.4134 10.3369L3.4842 15.7817L5.88341 14.5225V20.4004H5.68184C4.8873 20.4004 4.12524 20.7195 3.56295 21.2878C3.00067 21.8561 2.68413 22.627 2.68282 23.4313V28.0998L7.26001 34.2762H5.88341V37.7601H7.48617V40.7463H9.29541V38.0338H17.0879V40.7463H18.8972V37.7601H20.4999V34.2762H19.025L20.4999 31.2502V20.1714C20.4986 19.3666 20.1822 18.5952 19.6201 18.0261C19.058 17.4571 18.2959 17.1368 17.5009 17.1355ZM18.6858 20.1714V22.3862H17.2993V18.972H17.5009C17.6577 18.97 17.8134 18.9996 17.9589 19.059C18.1043 19.1183 18.2367 19.2064 18.3483 19.318C18.4599 19.4295 18.5485 19.5624 18.6089 19.7089C18.6694 19.8554 18.7005 20.0126 18.7005 20.1714H18.6858ZM15.4852 26.1438C15.4852 26.236 15.4673 26.3272 15.4324 26.4124C15.3976 26.4975 15.3465 26.5749 15.2821 26.64C15.2178 26.7052 15.1414 26.7569 15.0573 26.7921C14.9731 26.8274 14.883 26.8456 14.792 26.8456C14.7009 26.8456 14.6108 26.8274 14.5267 26.7921C14.4426 26.7569 14.3662 26.7052 14.3018 26.64C14.2374 26.5749 14.1864 26.4975 14.1515 26.4124C14.1167 26.3272 14.0988 26.236 14.0988 26.1438V23.4363H15.4852V26.1438ZM12.2846 26.1438C12.2846 26.236 12.2667 26.3272 12.2318 26.4124C12.197 26.4975 12.1459 26.5749 12.0816 26.64C12.0172 26.7052 11.9408 26.7569 11.8567 26.7921C11.7726 26.8274 11.6824 26.8456 11.5914 26.8456C11.5003 26.8456 11.4102 26.8274 11.3261 26.7921C11.242 26.7569 11.1656 26.7052 11.1012 26.64C11.0368 26.5749 10.9858 26.4975 10.9509 26.4124C10.9161 26.3272 10.8982 26.236 10.8982 26.1438V25.4719H11.5914C11.8264 25.4687 12.0598 25.4318 12.2846 25.3624V26.1438ZM9.084 17.5087H7.69757V13.1788C7.69757 12.9926 7.77061 12.8142 7.90061 12.6825C8.03062 12.5509 8.20694 12.477 8.39079 12.477C8.57464 12.477 8.75096 12.5509 8.88097 12.6825C9.01097 12.8142 9.084 12.9926 9.084 13.1788V17.5087ZM7.69757 18.5688H9.084V20.3655H7.69757V18.5688ZM6.26689 22.8988C6.26689 23.1144 6.20375 23.3251 6.08544 23.5044C5.96713 23.6836 5.79897 23.8233 5.60223 23.9058C5.40549 23.9883 5.189 24.0099 4.98014 23.9678C4.77129 23.9258 4.57944 23.822 4.42886 23.6695C4.27828 23.5171 4.17573 23.3229 4.13419 23.1114C4.09264 22.9 4.11397 22.6809 4.19546 22.4817C4.27695 22.2825 4.41496 22.1123 4.59202 21.9925C4.76908 21.8728 4.97725 21.8088 5.1902 21.8088C5.33265 21.8095 5.47358 21.8386 5.60488 21.8946C5.73619 21.9505 5.85528 22.0322 5.95533 22.1348C6.05537 22.2375 6.1344 22.3591 6.18787 22.4928C6.24133 22.6265 6.26819 22.7695 6.26689 22.9137V22.8988ZM7.18627 22.1971H11.611C11.7855 22.2119 11.948 22.2925 12.0664 22.423C12.1849 22.5534 12.2506 22.7241 12.2506 22.9013C12.2506 23.0785 12.1849 23.2492 12.0664 23.3796C11.948 23.5101 11.7855 23.5907 11.611 23.6055H7.18627C7.35581 23.1517 7.35581 22.6509 7.18627 22.1971ZM14.0988 22.3712V18.972H15.4852V22.3862L14.0988 22.3712ZM12.3092 18.972V20.4651C12.0844 20.3957 11.851 20.3588 11.616 20.3556H10.9227V18.972H12.3092ZM4.87063 13.8457L5.52943 9.96861L2.74674 7.22132L6.59138 6.65892L8.31213 3.13024L10.0329 6.65892L13.8775 7.22132L11.0948 9.96861L11.7536 13.8457L10.8982 13.3928V13.1937C10.8982 12.5205 10.634 11.8749 10.1638 11.3989C9.69355 10.9229 9.05579 10.6554 8.39079 10.6554C7.72579 10.6554 7.08803 10.9229 6.61781 11.3989C6.14758 11.8749 5.88341 12.5205 5.88341 13.1937V13.3082L4.87063 13.8457ZM4.49698 25.4719H9.084V26.1737C9.084 26.8469 9.34817 27.4925 9.8184 27.9685C10.2886 28.4445 10.9264 28.7119 11.5914 28.7119C12.1779 28.7106 12.7446 28.497 13.1892 28.1097C13.6352 28.4979 14.2038 28.7114 14.792 28.7114C15.3801 28.7114 15.9488 28.4979 16.3947 28.1097C16.8393 28.497 17.406 28.7106 17.9926 28.7119C18.2276 28.7087 18.461 28.6718 18.6858 28.6024V30.8172L17.5206 33.1862C17.2765 32.1951 16.7079 31.317 15.9075 30.6949C15.1072 30.0729 14.1223 29.7437 13.1134 29.761C12.1045 29.7784 11.1312 30.1412 10.3521 30.7903C9.57304 31.4394 9.0342 32.3366 8.82343 33.3355L4.49698 27.4627V25.4719ZM16.4881 33.3604H9.89521C10.1078 32.6427 10.5434 32.0135 11.1372 31.5662C11.731 31.1188 12.4515 30.8773 13.1917 30.8773C13.9319 30.8773 14.6523 31.1188 15.2462 31.5662C15.84 32.0135 16.2755 32.6427 16.4881 33.3604ZM9.29541 36.9886V35.192H17.0879V36.9886H9.29541ZM18.7005 26.1538C18.7005 26.2459 18.6826 26.3372 18.6478 26.4223C18.6129 26.5074 18.5619 26.5848 18.4975 26.65C18.4331 26.7151 18.3567 26.7668 18.2726 26.8021C18.1885 26.8374 18.0983 26.8555 18.0073 26.8555C17.9163 26.8555 17.8261 26.8374 17.742 26.8021C17.6579 26.7668 17.5815 26.7151 17.5171 26.65C17.4528 26.5848 17.4017 26.5074 17.3669 26.4223C17.332 26.3372 17.3141 26.2459 17.3141 26.1538V23.4463H18.7005V26.1538Z" fill="white"/>
</g>
<defs>
<clipPath id="clip0_774_8984">
<rect width="20" height="40" fill="white" transform="translate(0.5 0.736328)"/>
</clipPath>
</defs>
</svg>
