<svg width="31" height="35" viewBox="0 0 31 35" fill="none" xmlns="http://www.w3.org/2000/svg">
<g clip-path="url(#clip0_774_8986)">
<path d="M9.34036 18.5684H21.7012L22.8593 17.6907H25.4846V14.913L25.0232 14.2415C25.0232 11.8452 24.0223 9.54697 22.2407 7.85249C20.4591 6.158 18.0427 5.20605 15.5231 5.20605C13.0035 5.20605 10.5871 6.158 8.80545 7.85249C7.02383 9.54697 6.02292 11.8452 6.02292 14.2415L5.56152 14.913V17.6907H8.18687L9.34036 18.5684ZM6.53507 15.1894L6.99647 14.518V14.382C6.99964 12.5612 7.6466 10.7944 8.83329 9.3657C10.02 7.93698 11.6774 6.92939 13.5391 6.50499V11.5252H14.5172V6.33823C15.1819 6.25633 15.855 6.25633 16.5197 6.33823V11.5252H17.4886V6.50499C19.349 6.93095 21.0049 7.93909 22.1906 9.36758C23.3763 10.7961 24.0229 12.562 24.0266 14.382V14.518L24.488 15.1894V16.756H22.4994L21.3413 17.6337H9.66796L8.50985 16.756H6.52123L6.53507 15.1894Z" fill="white"/>
<path d="M0.5 0.09375V23.4307C0.5 31.0049 15.5 34.4014 15.5 34.4014C15.5 34.4014 30.5 31.0049 30.5 23.4307V0.09375H0.5ZM28.8021 23.4307C28.8021 28.4158 19.5741 31.7377 15.5 32.7339C11.4443 31.7377 2.19794 28.4114 2.19794 23.4307V1.71303H28.8021V23.4307Z" fill="white"/>
<path d="M22.02 13.2322H21.0372V14.5838H10.0006V13.2322H9.02246V15.5185H22.02V13.2322Z" fill="white"/>
<path d="M6.01855 22.9523L6.53532 24.6286C6.68809 25.1061 6.9986 25.5241 7.42081 25.8205C7.84302 26.1169 8.35443 26.2761 8.87921 26.2743H11.4907C11.8874 26.2752 12.2783 26.1841 12.6296 26.009C12.9809 25.8339 13.2821 25.58 13.507 25.2693L14.4806 23.9528C14.5972 23.7917 14.7533 23.66 14.9353 23.569C15.1174 23.478 15.32 23.4304 15.5256 23.4304C15.7313 23.4304 15.9339 23.478 16.1159 23.569C16.298 23.66 16.4541 23.7917 16.5707 23.9528L17.5396 25.2693C17.7648 25.5798 18.0661 25.8335 18.4173 26.0085C18.7686 26.1836 19.1594 26.2748 19.5559 26.2743H22.1628C22.6876 26.2761 23.199 26.1169 23.6212 25.8205C24.0434 25.5241 24.3539 25.1061 24.5067 24.6286L25.005 23.0883L25.0281 19.6304H6.01855V22.9523ZM6.99671 20.5607H24.0407V22.8821L23.5793 24.3522C23.4887 24.6398 23.3027 24.8918 23.049 25.0705C22.7954 25.2493 22.4877 25.3452 22.172 25.3439H19.5652C19.3271 25.3438 19.0927 25.2886 18.8821 25.1831C18.6715 25.0776 18.491 24.925 18.3563 24.7383L17.3874 23.4219C17.1805 23.1385 16.9045 22.907 16.5832 22.7472C16.2618 22.5873 15.9045 22.5038 15.5418 22.5038C15.1791 22.5038 14.8218 22.5873 14.5004 22.7472C14.179 22.907 13.9031 23.1385 13.6962 23.4219L12.7273 24.7383C12.5912 24.9248 12.4099 25.0772 12.1986 25.1826C11.9873 25.2881 11.7524 25.3434 11.5138 25.3439H8.90689C8.59139 25.3445 8.28411 25.2483 8.03061 25.0697C7.77711 24.891 7.59092 24.6394 7.49964 24.3522L7.03824 22.8821L6.99671 20.5607Z" fill="white"/>
<path d="M5.33043 19.6743H4.34766V22.9524H5.33043V19.6743Z" fill="white"/>
<path d="M26.7445 19.6743H25.7617V22.9524H26.7445V19.6743Z" fill="white"/>
</g>
<defs>
<clipPath id="clip0_774_8986">
<rect width="30" height="34.2857" fill="white" transform="translate(0.5 0.09375)"/>
</clipPath>
</defs>
</svg>
