<svg width="30" height="22" viewBox="0 0 30 22" fill="none" xmlns="http://www.w3.org/2000/svg">
    <mask id="mask0_928_186" style="mask-type:alpha" maskUnits="userSpaceOnUse" x="0" y="0" width="30" height="22">
        <rect width="30" height="21.5" fill="#D9D9D9"/>
    </mask>
    <g mask="url(#mask0_928_186)">
        <mask id="path-2-inside-1_928_186" fill="white">
            <path fill-rule="evenodd" clip-rule="evenodd" d="M-268 -112C-273.523 -112 -278 -107.523 -278 -102V-8.52306C-278 -3.00021 -273.523 1.47694 -268 1.47694H1.90019C2.43462 1.47694 2.94682 1.69084 3.32254 2.07091L21.5776 20.5379C22.8342 21.8091 25 20.9193 25 19.1319V3.47694C25 2.37237 25.8954 1.47694 27 1.47694H47C52.5229 1.47694 57 -3.0002 57 -8.52305V-102C57 -107.523 52.5229 -112 47 -112H-268Z"/>
        </mask>
        <path fill-rule="evenodd" clip-rule="evenodd" d="M-268 -112C-273.523 -112 -278 -107.523 -278 -102V-8.52306C-278 -3.00021 -273.523 1.47694 -268 1.47694H1.90019C2.43462 1.47694 2.94682 1.69084 3.32254 2.07091L21.5776 20.5379C22.8342 21.8091 25 20.9193 25 19.1319V3.47694C25 2.37237 25.8954 1.47694 27 1.47694H47C52.5229 1.47694 57 -3.0002 57 -8.52305V-102C57 -107.523 52.5229 -112 47 -112H-268Z" fill="white"/>
        <path d="M21.5776 20.5379L20.8665 21.2409L21.5776 20.5379ZM3.32254 2.07091L2.61136 2.77393L3.32254 2.07091ZM-277 -102C-277 -106.971 -272.971 -111 -268 -111V-113C-274.075 -113 -279 -108.075 -279 -102H-277ZM-277 -8.52306V-102H-279V-8.52306H-277ZM-268 0.476944C-272.971 0.476944 -277 -3.5525 -277 -8.52306H-279C-279 -2.44793 -274.075 2.47694 -268 2.47694V0.476944ZM1.90019 0.476944H-268V2.47694H1.90019V0.476944ZM22.2888 19.8349L4.03371 1.3679L2.61136 2.77393L20.8665 21.2409L22.2888 19.8349ZM24 3.47694V19.1319H26V3.47694H24ZM47 0.476944H27V2.47694H47V0.476944ZM56 -8.52305C56 -3.55248 51.9706 0.476944 47 0.476944V2.47694C53.0751 2.47694 58 -2.44791 58 -8.52305H56ZM56 -102V-8.52305H58V-102H56ZM47 -111C51.9706 -111 56 -106.971 56 -102H58C58 -108.075 53.0751 -113 47 -113V-111ZM-268 -111H47V-113H-268V-111ZM26 3.47694C26 2.92466 26.4477 2.47694 27 2.47694V0.476944C25.3431 0.476944 24 1.82009 24 3.47694H26ZM20.8665 21.2409C22.7513 23.1476 26 21.813 26 19.1319H24C24 20.0256 22.9171 20.4705 22.2888 19.8349L20.8665 21.2409ZM1.90019 2.47694C2.1674 2.47694 2.4235 2.58389 2.61136 2.77393L4.03371 1.3679C3.47014 0.797786 2.70184 0.476944 1.90019 0.476944V2.47694Z" fill="#003399" mask="url(#path-2-inside-1_928_186)"/>
    </g>
</svg>
