<svg width="33" height="33" viewBox="0 0 33 33" fill="none" xmlns="http://www.w3.org/2000/svg">
<circle cx="16.4189" cy="16.7715" r="15.5" stroke="white"/>
<path d="M22.0692 11.1215C20.4392 9.49148 18.1292 8.55148 15.5892 8.81148C11.9192 9.18148 8.89921 12.1615 8.48921 15.8315C7.93921 20.6815 11.6892 24.7715 16.4192 24.7715C19.6092 24.7715 22.3492 22.9015 23.6292 20.2115C23.9492 19.5415 23.4692 18.7715 22.7292 18.7715C22.3592 18.7715 22.0092 18.9715 21.8492 19.3015C20.7192 21.7315 18.0092 23.2715 15.0492 22.6115C12.8292 22.1215 11.0392 20.3115 10.5692 18.0915C9.72921 14.2115 12.6792 10.7715 16.4192 10.7715C18.0792 10.7715 19.5592 11.4615 20.6392 12.5515L19.1292 14.0615C18.4992 14.6915 18.9392 15.7715 19.8292 15.7715H23.4192C23.9692 15.7715 24.4192 15.3215 24.4192 14.7715V11.1815C24.4192 10.2915 23.3392 9.84148 22.7092 10.4715L22.0692 11.1215Z" fill="white"/>
</svg>
