<svg width="30" height="30" viewBox="0 1 30 30" fill="none" xmlns="http://www.w3.org/2000/svg">
<circle cx="15" cy="15.9868" r="14" fill="#002366" stroke="#002366" stroke-width="2"/>
<path d="M16.7059 17.4322H14.3137V8.98682H16.7059V17.4322ZM14 20.5116C14 20.1551 14.1438 19.8417 14.4314 19.5712C14.732 19.2885 15.1111 19.1471 15.5686 19.1471C15.9608 19.1471 16.2941 19.2885 16.5686 19.5712C16.8562 19.8417 17 20.1551 17 20.5116C17 20.9173 16.8562 21.2677 16.5686 21.5627C16.2941 21.8454 15.9608 21.9868 15.5686 21.9868C15.1111 21.9868 14.732 21.8454 14.4314 21.5627C14.1438 21.2677 14 20.9173 14 20.5116Z" fill="white"/>
</svg>
