<svg width="21" height="47" viewBox="3 3.5 27 61" fill="none" xmlns="http://www.w3.org/2000/svg">
<circle cx="17" cy="54.5563" r="9" fill="#0099FF" stroke="#FF6600" stroke-width="2"/>
<path d="M30 16.8261C30 22.2421 22.627 32.922 18.7785 38.1276C17.6318 39.6787 15.3682 39.6787 14.2215 38.1276C10.373 32.922 3 22.2421 3 16.8261C3 9.49739 9.04416 3.5563 16.5 3.5563C23.9558 3.5563 30 9.49739 30 16.8261Z" fill="#FF6600"/>
<path d="M29 16.8261C29 17.9855 28.5972 19.5249 27.8617 21.33C27.1343 23.1154 26.117 25.0768 24.9679 27.0531C22.6703 31.0049 19.8895 34.9427 17.9744 37.5331C17.2274 38.5436 15.7726 38.5436 15.0256 37.5331C13.1105 34.9427 10.3297 31.0049 8.03206 27.0531C6.88297 25.0768 5.86566 23.1154 5.13826 21.33C4.40285 19.5249 4 17.9855 4 16.8261C4 10.0658 9.58016 4.5563 16.5 4.5563C23.4198 4.5563 29 10.0658 29 16.8261Z" stroke="#AB4400" stroke-width="2"/>
</svg>
