<svg width="202" height="514" viewBox="0 0 202 514" fill="none" xmlns="http://www.w3.org/2000/svg">
<path d="M132.997 18.7165C131.966 14.9995 132.345 11.0328 134.061 7.57825C135.776 4.12368 138.708 1.4248 142.292 0C143.717 1.42435 142.992 5.97227 142.992 5.97227C148.025 3.61378 153.669 2.88857 159.135 3.89822C159.036 7.39264 157.719 10.7426 155.412 13.3689C158.208 13.6508 160.897 14.5929 163.258 16.1176C162.9 17.7646 162.156 19.303 161.087 20.6063C160.019 21.9096 158.656 22.9405 157.111 23.6142C158.684 25.4559 159.767 27.6648 160.259 30.0363C157.575 30.8104 154.739 30.8963 152.013 30.2862C152.453 31.6653 152.631 33.1146 152.538 34.5592C149.949 34.9392 147.308 34.7444 144.804 33.9886C142.299 33.2328 139.991 31.9346 138.044 30.1862C135.463 26.8253 133.731 22.8904 132.997 18.7165Z" fill="#E69D7E"/>
<path d="M148.44 32.2108C148.84 38.6829 152.913 48.5034 151.838 56.7246C150.339 68.3194 135.996 68.1944 130.448 68.1944H122.227V32.2108H148.44Z" fill="#E69D7E"/>
<path d="M135.846 54.875V76.0903C135.846 76.0903 134.171 83.387 122.976 83.387C120.749 83.5749 118.534 82.9027 116.787 81.5085C115.039 80.1143 113.892 78.104 113.581 75.8904V54.9L135.846 54.875Z" fill="#FBBEAA"/>
<path d="M113.581 72.5419C120.603 75.8904 130.873 72.8918 135.846 63.696V54.875H113.581V72.5419Z" fill="#F18380"/>
<path d="M99.6369 38.5819C99.5452 43.656 99.7789 48.7308 100.337 53.775C101.236 60.9967 103.81 68.993 116.554 68.993C129.298 68.993 135.82 63.2207 138.544 53.775C140.193 48.0776 143.542 39.6314 142.168 29.8859C140.793 20.1403 134.921 13.7682 121.077 13.3934C107.233 13.0186 98.2126 19.2407 99.6369 38.5819Z" fill="#FBBEAA"/>
<path d="M126.649 42.9303C126.565 43.3068 126.375 43.6518 126.103 43.9254C125.831 44.1991 125.487 44.3903 125.111 44.4771C124.735 44.5638 124.342 44.5426 123.977 44.4158C123.613 44.2891 123.291 44.0619 123.05 43.7605C122.809 43.4591 122.658 43.0957 122.614 42.7122C122.571 42.3287 122.636 41.9407 122.804 41.5928C122.971 41.245 123.233 40.9514 123.56 40.7459C123.886 40.5404 124.264 40.4314 124.65 40.4314C124.946 40.4624 125.233 40.552 125.495 40.6947C125.756 40.8375 125.986 41.0307 126.172 41.2632C126.358 41.4956 126.496 41.7627 126.578 42.0488C126.66 42.335 126.684 42.6346 126.649 42.9303Z" fill="#403D4F"/>
<path d="M108.083 42.9303C107.998 43.3068 107.809 43.6518 107.537 43.9254C107.265 44.1991 106.921 44.3903 106.545 44.4771C106.168 44.5638 105.775 44.5426 105.411 44.4158C105.046 44.2891 104.725 44.0619 104.484 43.7605C104.243 43.4591 104.092 43.0957 104.048 42.7122C104.004 42.3287 104.07 41.9407 104.237 41.5928C104.404 41.245 104.666 40.9514 104.993 40.7459C105.32 40.5404 105.698 40.4314 106.084 40.4314C106.38 40.4624 106.667 40.552 106.928 40.6947C107.189 40.8375 107.42 41.0307 107.606 41.2632C107.792 41.4956 107.929 41.7627 108.011 42.0488C108.093 42.335 108.118 42.6346 108.083 42.9303Z" fill="#403D4F"/>
<path d="M120.602 35.8587C120.602 35.8587 120.602 35.8587 120.827 35.6338C121.027 35.4541 121.245 35.295 121.477 35.159C121.787 34.9683 122.124 34.8251 122.476 34.7342C122.869 34.5888 123.282 34.5045 123.701 34.4843C124.107 34.4341 124.519 34.4341 124.925 34.4843C125.27 34.4951 125.613 34.5369 125.95 34.6092L126.924 34.8841C127.085 34.9359 127.22 35.0484 127.299 35.1977C127.378 35.347 127.396 35.5214 127.349 35.6837C127.311 35.8135 127.232 35.9275 127.124 36.0086C127.016 36.0897 126.885 36.1335 126.749 36.1335H125.775C125.485 36.0962 125.191 36.0962 124.9 36.1335C124.568 36.1087 124.234 36.1087 123.901 36.1335C123.576 36.1335 123.251 36.1335 122.951 36.3085C122.651 36.4834 122.401 36.5084 122.152 36.5334L121.627 36.7083H121.402C121.246 36.7761 121.07 36.7801 120.911 36.7193C120.752 36.6586 120.623 36.538 120.552 36.3834C120.509 36.2984 120.486 36.2042 120.486 36.1086C120.486 36.0129 120.509 35.9187 120.552 35.8337L120.602 35.8587Z" fill="#403D4F"/>
<path d="M108.458 36.8081H108.308L107.908 36.6581H107.633H107.358C107.138 36.5852 106.912 36.5267 106.684 36.4832C106.452 36.4463 106.216 36.4463 105.984 36.4832C105.769 36.4459 105.549 36.4459 105.334 36.4832H104.535C104.367 36.4768 104.208 36.4055 104.091 36.2843C103.975 36.1632 103.91 36.0016 103.91 35.8335C103.915 35.7096 103.955 35.5895 104.026 35.4877C104.097 35.3858 104.195 35.3064 104.31 35.2588L105.084 34.9839C105.367 34.8915 105.662 34.841 105.959 34.834C106.29 34.7843 106.627 34.7843 106.959 34.834C107.615 34.8998 108.239 35.1511 108.758 35.5587C108.946 35.6838 109.108 35.8452 109.233 36.0334C109.358 36.1834 109.358 36.2333 109.383 36.2333V36.4832C109.396 36.6009 109.378 36.7201 109.329 36.828C109.28 36.9358 109.202 37.0282 109.104 37.0951C109.006 37.162 108.892 37.2009 108.774 37.2076C108.656 37.2142 108.538 37.1884 108.433 37.1329L108.458 36.8081Z" fill="#403D4F"/>
<path d="M113.58 51.4264C113.161 51.4361 112.745 51.3539 112.36 51.1855C111.976 51.0171 111.634 50.7667 111.356 50.4518C111.248 50.3444 111.163 50.2156 111.107 50.0737C111.051 49.9317 111.026 49.7796 111.032 49.6272C111.032 49.3523 111.481 45.9039 111.631 44.6295C111.631 44.5035 111.681 44.3828 111.77 44.2937C111.859 44.2047 111.98 44.1547 112.106 44.1547C112.232 44.1547 112.353 44.2047 112.442 44.2937C112.531 44.3828 112.581 44.5035 112.581 44.6295C112.581 44.8294 112.056 49.3523 111.981 49.6272C112.189 49.8499 112.44 50.0271 112.72 50.1475C112.999 50.2679 113.301 50.329 113.605 50.3269C113.731 50.3269 113.852 50.3769 113.941 50.4659C114.03 50.5549 114.08 50.6757 114.08 50.8016C114.08 50.9276 114.03 51.0483 113.941 51.1374C113.852 51.2264 113.731 51.2764 113.605 51.2764L113.58 51.4264Z" fill="#F18380"/>
<path d="M111.232 56.3491C110.282 56.5989 109.957 57.9983 110.507 59.6226C111.082 60.7399 112.014 61.6325 113.156 62.1579C114.297 62.6833 115.581 62.8112 116.804 62.5212C117.467 62.4864 118.117 62.3197 118.715 62.0308C119.314 61.7419 119.848 61.3366 120.288 60.8387C120.728 60.3408 121.064 59.7603 121.276 59.131C121.489 58.5017 121.574 57.8363 121.527 57.1737C121.527 56.0992 120.802 55.4495 119.403 55.4495C116.659 55.5213 113.926 55.8222 111.232 56.3491Z" fill="#73102A"/>
<path d="M121.577 57.1737C121.577 57.1737 121.577 57.0237 121.577 56.9238C119.744 56.4941 117.817 56.7696 116.178 57.6955C114.539 58.6214 113.309 60.13 112.731 61.9215C114.024 62.555 115.479 62.7816 116.904 62.5712C117.568 62.5302 118.217 62.3572 118.812 62.0624C119.408 61.7676 119.939 61.3568 120.375 60.8541C120.81 60.3515 121.14 59.7671 121.347 59.1351C121.553 58.5031 121.632 57.8363 121.577 57.1737Z" fill="#D65155"/>
<path d="M112.081 57.8736C115.238 57.8994 118.378 57.4099 121.377 56.4242C121.193 56.0858 120.91 55.8114 120.567 55.6373C120.223 55.4632 119.835 55.3978 119.453 55.4497C116.709 55.5215 113.976 55.8224 111.282 56.3493C111.02 56.4371 110.791 56.6002 110.622 56.8181C110.453 57.0359 110.352 57.2988 110.332 57.5737C110.893 57.7772 111.485 57.8788 112.081 57.8736Z" fill="white"/>
<path d="M124.351 26.7875C124.351 26.7875 128.774 42.0806 139.344 46.1037C140.571 46.119 141.784 45.8386 142.88 45.2862C143.976 44.7338 144.923 43.9257 145.641 42.9302C148.449 37.0253 149.239 30.3616 147.89 23.9638C146.116 16.1674 136.745 6.12197 119.653 8.4709C110.532 6.7217 99.662 8.32097 92.8651 17.5418C86.0682 26.7626 94.1645 39.5317 99.637 41.6558C105.02 38.415 110.179 34.8169 115.08 30.8857C114.33 33.2346 113.531 38.2073 114.33 38.2073C118.95 35.7478 122.512 31.6872 124.351 26.7875Z" fill="#E69D7E"/>
<path d="M138.045 47.953C138.245 44.5546 139.169 40.4564 143.292 41.1811C148.29 41.9058 148.64 55.0248 138.295 53.4505L138.045 47.953Z" fill="#FBBEAA"/>
<path d="M143.717 48.8278C143.631 48.8241 143.547 48.7994 143.473 48.7559C143.399 48.7123 143.337 48.6512 143.292 48.5779C143.189 48.3569 143.027 48.1682 142.824 48.0317C142.622 47.8953 142.386 47.8164 142.143 47.8033C141.857 47.8062 141.577 47.881 141.328 48.0207C141.079 48.1605 140.869 48.3607 140.718 48.6029C140.662 48.6928 140.578 48.7614 140.478 48.7976C140.378 48.8338 140.269 48.8357 140.169 48.8028C140.073 48.7614 139.992 48.6908 139.938 48.6012C139.884 48.5115 139.86 48.4073 139.869 48.3031C139.901 47.2493 140.224 46.225 140.801 45.3431C141.379 44.4612 142.189 43.756 143.142 43.3054C143.202 43.2818 143.266 43.2707 143.331 43.2727C143.395 43.2747 143.459 43.2898 143.517 43.3171C143.575 43.3444 143.628 43.3833 143.67 43.4315C143.713 43.4796 143.746 43.536 143.766 43.5971C143.787 43.6582 143.794 43.7229 143.789 43.7871C143.784 43.8514 143.765 43.9138 143.735 43.9707C143.704 44.0275 143.663 44.0776 143.613 44.1179C143.562 44.1582 143.504 44.1878 143.442 44.2049C142.884 44.4794 142.388 44.8647 141.984 45.3373C141.581 45.8099 141.277 46.3599 141.093 46.9537C141.441 46.8053 141.815 46.7288 142.193 46.7288C142.597 46.767 142.985 46.903 143.325 47.1251C143.664 47.3471 143.945 47.6485 144.142 48.0032C144.173 48.0573 144.193 48.1171 144.202 48.1791C144.21 48.241 144.205 48.304 144.189 48.3644C144.173 48.4248 144.145 48.4813 144.107 48.5308C144.069 48.5803 144.021 48.6218 143.967 48.6529C143.905 48.7371 143.817 48.7986 143.717 48.8278Z" fill="#F18380"/>
<path d="M33.5004 80.4771C33.4004 78.2931 33.9851 76.1324 35.1727 74.2968C37.0012 72.1767 38.371 71.6554 39.196 68.9801C39.8307 66.4967 40.8444 64.1259 42.2014 61.9514C43.1709 60.6184 44.6251 59.5277 44.6251 58.5098C44.6251 57.4919 42.6862 55.5287 39.9232 56.0861C38.7397 56.4548 37.6523 57.0805 36.7389 57.9185C35.8254 58.7565 35.1086 59.7861 34.6395 60.9335C34.3748 60.2344 34.2195 59.4986 34.1791 58.7522L33.5732 41.9407C33.564 41.5555 33.4777 41.1761 33.3194 40.8248C33.1611 40.4736 32.934 40.1576 32.6516 39.8955C32.3692 39.6335 32.0372 39.4306 31.6752 39.299C31.3131 39.1674 30.9283 39.1097 30.5436 39.1292C29.931 39.1553 29.342 39.3728 28.8594 39.751C28.6145 39.943 24.5151 44.9146 20.5137 49.8426C16.6298 54.6258 12.8383 59.3678 12.7537 59.6577C13.5317 66.7222 14.9928 73.6946 17.1164 80.4771C17.1421 81.6095 17.4044 82.7241 17.8866 83.7491C18.3687 84.7741 19.06 85.6869 19.916 86.4287C20.772 87.1706 21.7738 87.7251 22.8569 88.0567C23.9401 88.3883 25.0806 88.4896 26.2052 88.354C27.2229 88.388 28.236 88.2027 29.1758 87.8107C30.1156 87.4187 30.9602 86.8291 31.6521 86.082C32.344 85.3349 32.8672 84.4477 33.1861 83.4807C33.505 82.5136 33.6122 81.4892 33.5004 80.4771Z" fill="#FBBEAA"/>
<path d="M29.5936 34.9847L46.4556 51.525C46.6342 51.2706 46.813 51.0028 46.9916 50.7485C47.5275 49.9721 48.0703 49.1889 48.6063 48.4125C48.8055 48.1247 48.998 47.8435 49.1972 47.5557C50.0011 46.3978 49.8447 44.8299 48.8442 43.8457L37.2249 32.4453C36.2245 31.4611 34.6532 31.3407 33.5092 32.1637C33.2299 32.3696 32.9508 32.5619 32.6716 32.7677C31.9021 33.3186 31.1327 33.8695 30.3632 34.4203C30.1111 34.613 29.8524 34.7988 29.5936 34.9847Z" fill="#E2874A"/>
<g opacity="0.53">
<path d="M30.3631 34.4328L46.9985 50.7408C47.5344 49.9644 48.0772 49.1813 48.6132 48.4048L32.6783 32.7735C31.902 33.3311 31.1326 33.8819 30.3631 34.4328Z" fill="#D46424"/>
</g>
<path d="M26.6255 37.1912C26.0091 37.9261 25.386 38.6542 24.7627 39.3959C23.8861 40.4247 23.0231 41.4536 22.1533 42.4893C18.7974 46.4578 15.4551 50.4265 12.0993 54.395C10.2981 56.5262 8.49686 58.6575 6.69566 60.7887C5.54506 62.1517 5.64201 64.1643 6.90932 65.4082L16.4943 74.8062C17.7616 76.0501 19.7791 76.1085 21.1232 74.9301C23.2179 73.0859 25.3193 71.2486 27.414 69.4044C31.3168 65.9691 35.2194 62.5472 39.1223 59.1119C40.1388 58.2265 41.1555 57.3277 42.1653 56.4355C42.8818 55.803 43.6117 55.1707 44.335 54.5315C45.2697 53.7127 45.6423 52.4955 45.4333 51.3657C45.3199 50.7028 44.9902 50.0644 44.4767 49.5518L31.6235 36.9416C31.0965 36.4289 30.459 36.1174 29.7853 36.0147C28.6331 35.8454 27.4269 36.2357 26.6255 37.1912Z" fill="#F5F5F5"/>
<path d="M22.1519 42.4876C18.7961 46.4561 15.4537 50.4247 12.0979 54.3932L27.4058 69.4094C31.3086 65.974 35.2112 62.5522 39.1207 59.1237L22.1519 42.4876Z" fill="#E2874A"/>
<g opacity="0.52">
<path d="M29.8715 61.2103C31.8774 59.4528 33.8698 57.6951 35.8688 55.9443L39.1038 59.1224C35.2009 62.5578 31.2983 65.9796 27.3888 69.4082L12.0809 54.392C12.6219 53.7574 13.1494 53.1226 13.6904 52.4879L22.3815 61.011C24.4427 63.0273 27.7086 63.1077 29.8715 61.2103Z" fill="#E2874A"/>
</g>
<path d="M26.6007 36.8383L44.6634 54.5542C45.6172 55.4906 47.1563 55.4824 48.0928 54.515L48.1816 54.4284C49.118 53.4746 49.1029 51.9422 48.1424 50.999L30.0798 33.2831C29.126 32.3467 27.5935 32.3618 26.6504 33.3222L26.5615 33.4089C25.6318 34.3696 25.6469 35.9019 26.6007 36.8383Z" fill="#E2874A"/>
<g opacity="0.53">
<path d="M27.6252 32.7338C27.2904 33.6207 27.487 34.6558 28.2075 35.3531L46.2168 53.0143C46.8972 53.6841 47.8669 53.8714 48.714 53.5915C48.5954 53.9073 48.4163 54.2021 48.1636 54.4488L48.1294 54.4821C47.1794 55.4493 45.6132 55.4707 44.646 54.5206L26.6367 36.8594C25.6695 35.9094 25.6481 34.3431 26.5982 33.376L26.6323 33.3426C26.9192 33.0626 27.2593 32.8508 27.6252 32.7338Z" fill="#D46424"/>
</g>
<path d="M26.1924 55.8536C24.5443 55.3948 23.1046 54.9992 21.4866 57.0584C22.4706 58.2854 24.4605 58.9442 26.5911 58.5854C29.3169 58.1259 31.2777 56.1856 31.0793 54.192C30.2498 55.2416 28.9392 56.4406 27.4037 56.1519C26.9996 56.0794 26.5825 55.9664 26.1924 55.8536Z" fill="#5B2500"/>
<path d="M25.3455 51.1588C22.5385 51.6309 20.5358 53.6787 20.8821 55.7281C20.8881 55.7889 20.9076 55.8499 20.9204 55.9041C22.9113 53.7211 24.8823 54.2649 26.5103 54.7167C26.9004 54.8295 27.2637 54.9284 27.6275 54.9869C28.7723 55.2033 29.9431 53.8474 30.5897 52.8563C29.6543 51.5151 27.5842 50.7879 25.3455 51.1588Z" fill="#5B2500"/>
<path d="M26.0832 46.6324C27.4598 44.4362 24.6646 41.54 22.891 40.4084C22.891 40.4084 21.8236 39.1734 19.6115 41.3857C17.1685 43.8287 18.6343 45.5008 18.6343 45.5008C20.2305 47.1982 23.9551 50.0273 26.0832 46.6324Z" fill="#FBBEAA"/>
<path d="M22.1744 50.885C23.551 48.6888 20.7558 45.7926 18.9822 44.6609C18.9822 44.6609 17.9148 43.426 15.7027 45.6382C13.2597 48.0813 14.7255 49.7533 14.7255 49.7533C16.3217 51.4508 20.0463 54.2799 22.1744 50.885Z" fill="#FBBEAA"/>
<path d="M18.2657 54.7938C19.6423 52.5976 16.8471 49.7014 15.0735 48.5698C15.0735 48.5698 14.0061 47.3348 11.794 49.547C9.35101 51.9901 10.8168 53.6621 10.8168 53.6621C12.413 55.3596 16.1376 58.1887 18.2657 54.7938Z" fill="#FBBEAA"/>
<path d="M13.4428 58.2729C14.5837 56.4322 12.2671 54.0047 10.7972 53.0562C10.7972 53.0562 9.91265 52.0212 8.07927 53.8754C6.05462 55.923 7.26941 57.3244 7.26941 57.3244C8.59231 58.7472 11.6791 61.1184 13.4428 58.2729Z" fill="#FBBEAA"/>
<path d="M116.155 476.021C116.155 473.687 115.228 471.45 113.578 469.8C111.928 468.15 109.69 467.223 107.357 467.223C105.024 467.223 102.786 468.15 101.136 469.8C99.486 471.45 98.5591 473.687 98.5591 476.021V495.143H116.155V476.021Z" fill="#FBBEAA"/>
<path d="M99.189 479.584C97.032 479.584 96.6442 480.529 96.014 481.765C94.992 485.059 93.2445 488.082 90.9001 490.611C87.4001 493.593 83.6451 496.261 79.6785 498.585V508.716H118.845C118.845 508.716 118.578 500.718 118.385 495.071C118.191 489.424 117.633 482.541 117.682 481.813C117.73 481.086 117.682 479.584 116.349 479.584H99.189Z" fill="#302D3B"/>
<path d="M113.974 495.628C113.979 496.872 113.614 498.089 112.926 499.125C112.238 500.161 111.258 500.969 110.11 501.447C108.962 501.925 107.698 502.052 106.478 501.81C105.258 501.569 104.137 500.97 103.258 500.091C102.379 499.212 101.78 498.091 101.539 496.871C101.297 495.651 101.424 494.387 101.902 493.239C102.38 492.091 103.188 491.111 104.224 490.423C105.26 489.735 106.477 489.37 107.721 489.375C109.377 489.381 110.964 490.042 112.135 491.213C113.307 492.385 113.968 493.972 113.974 495.628Z" fill="#93929C"/>
<path d="M107.721 491.944L109.151 494.053L111.599 494.756L110.048 496.767L110.12 499.312L107.721 498.44L105.321 499.312L105.418 496.767L103.843 494.756L106.291 494.053L107.721 491.944Z" fill="white"/>
<path d="M79.9453 498.416C79.9453 498.416 74.3951 501.348 72.3107 502.778C71.3458 503.432 70.5619 504.319 70.0322 505.358C69.5025 506.396 69.2441 507.551 69.2812 508.716H84.5018C84.5018 508.716 84.1867 501.276 79.9453 498.416Z" fill="white"/>
<path d="M118.845 508.716V512.909C118.845 513.612 118.215 514 117.148 514H70.9532C69.9111 514 69.2809 513.612 69.2809 512.909V508.716H118.845Z" fill="white"/>
<path d="M84.502 495.58C84.3678 495.374 84.1585 495.228 83.9187 495.174C83.6789 495.12 83.4273 495.161 83.2174 495.289C83.1129 495.353 83.0223 495.438 82.9509 495.538C82.8796 495.637 82.8289 495.75 82.8018 495.87C82.7747 495.99 82.7717 496.114 82.7932 496.234C82.8146 496.355 82.86 496.471 82.9266 496.574L84.5504 499.191C84.6287 499.327 84.742 499.439 84.8785 499.516C85.0149 499.592 85.1695 499.631 85.326 499.627C85.5055 499.625 85.6811 499.575 85.835 499.482C85.9395 499.418 86.0301 499.333 86.1015 499.233C86.1729 499.134 86.2236 499.021 86.2507 498.901C86.2778 498.781 86.2807 498.657 86.2592 498.537C86.2378 498.416 86.1925 498.301 86.1259 498.198L84.502 495.58Z" fill="white"/>
<path d="M87.362 493.568C87.2824 493.476 87.1855 493.4 87.0766 493.345C86.9678 493.29 86.8492 493.258 86.7277 493.249C86.6062 493.24 86.4841 493.255 86.3684 493.293C86.2526 493.331 86.1456 493.391 86.0533 493.471C85.961 493.551 85.8852 493.648 85.8304 493.756C85.7756 493.865 85.7427 493.984 85.7337 494.105C85.7247 494.227 85.7397 494.349 85.7779 494.465C85.8161 494.581 85.8767 494.688 85.9563 494.78L87.8468 497.01C87.934 497.112 88.0415 497.195 88.1625 497.253C88.2835 497.312 88.4154 497.344 88.5497 497.349C88.7252 497.346 88.8964 497.294 89.044 497.198C89.1916 497.103 89.3097 496.969 89.3852 496.81C89.4607 496.652 89.4906 496.475 89.4714 496.301C89.4522 496.126 89.3848 495.96 89.2767 495.822L87.362 493.568Z" fill="white"/>
<path d="M90.0519 491.314C89.8591 491.19 89.6277 491.14 89.4008 491.174C89.1739 491.208 88.967 491.323 88.8187 491.498C88.6704 491.673 88.5908 491.896 88.5947 492.125C88.5986 492.354 88.6858 492.575 88.8401 492.744L90.9971 494.611C91.1662 494.754 91.3814 494.831 91.603 494.829C91.7365 494.833 91.8692 494.808 91.9911 494.753C92.113 494.698 92.2207 494.616 92.3059 494.514C92.3954 494.43 92.4668 494.328 92.5156 494.216C92.5644 494.103 92.5895 493.982 92.5895 493.859C92.5895 493.737 92.5644 493.615 92.5156 493.503C92.4668 493.39 92.3954 493.289 92.3059 493.205L90.0519 491.314Z" fill="white"/>
<path d="M94.7782 490.199L92.3545 488.697C92.1417 488.571 91.8881 488.533 91.648 488.592C91.4079 488.651 91.2003 488.802 91.07 489.012C91.0044 489.116 90.9605 489.233 90.9408 489.355C90.9212 489.476 90.9262 489.601 90.9556 489.721C90.985 489.84 91.0381 489.953 91.1119 490.052C91.1857 490.151 91.2786 490.234 91.3851 490.296L93.8087 491.799C93.9524 491.894 94.1211 491.945 94.2935 491.944C94.4514 491.94 94.6057 491.896 94.7415 491.815C94.8773 491.735 94.9901 491.621 95.069 491.484C95.1972 491.274 95.2385 491.022 95.1842 490.783C95.1299 490.543 94.9842 490.333 94.7782 490.199Z" fill="white"/>
<path d="M96.8145 487.073L94.1 485.934C93.8686 485.838 93.6084 485.837 93.3766 485.932C93.1448 486.028 92.9604 486.211 92.864 486.443C92.8167 486.556 92.7923 486.677 92.7923 486.799C92.7924 486.922 92.8168 487.043 92.8642 487.156C92.9116 487.268 92.981 487.371 93.0684 487.456C93.1557 487.542 93.2593 487.609 93.373 487.655L96.0875 488.794H96.451C96.6601 488.783 96.8596 488.702 97.0181 488.565C97.1766 488.429 97.2851 488.243 97.3267 488.038C97.3683 487.833 97.3406 487.619 97.2479 487.431C97.1552 487.244 97.0028 487.092 96.8145 487V487.073Z" fill="white"/>
<path d="M98.5107 483.583L95.5054 482.831C95.2676 482.773 95.0165 482.812 94.8074 482.94C94.5983 483.067 94.4483 483.272 94.3905 483.51C94.3326 483.748 94.3716 483.999 94.4989 484.208C94.6262 484.417 94.8312 484.567 95.0691 484.625L98.0502 485.4H98.2684C98.4771 485.398 98.6795 485.328 98.8454 485.202C99.0114 485.075 99.132 484.898 99.1894 484.698C99.2413 484.46 99.1998 484.212 99.0734 484.004C98.947 483.797 98.7455 483.646 98.5107 483.583Z" fill="white"/>
<path d="M129.025 353.722C128.758 341.992 120.857 336.32 109.151 336.611C97.4445 336.902 89.01 343.034 89.2766 354.74L98.5593 476.966H116.155L129.025 353.722Z" fill="#FBBEAA"/>
<path d="M130.552 353.649C130.487 350.864 129.874 348.119 128.748 345.571C127.622 343.023 126.005 340.722 123.99 338.799C121.974 336.876 119.6 335.368 117.002 334.363C114.404 333.357 111.633 332.874 108.848 332.939C106.063 333.004 103.319 333.617 100.771 334.743C98.2226 335.869 95.9213 337.486 93.9981 339.502C92.075 341.517 90.5677 343.891 89.5622 346.489C88.5568 349.087 88.0728 351.858 88.1381 354.643L82.6354 480.287H130.551L130.552 353.649Z" fill="#93929C"/>
<path d="M190.32 476.021C190.32 473.687 189.393 471.45 187.743 469.8C186.093 468.15 183.855 467.223 181.522 467.223C179.189 467.223 176.951 468.15 175.301 469.8C173.651 471.45 172.724 473.687 172.724 476.021V495.143H190.32V476.021Z" fill="#FBBEAA"/>
<path d="M173.378 479.584C171.197 479.584 170.809 480.529 170.203 481.765C169.169 485.059 167.414 488.081 165.065 490.611C161.569 493.598 157.814 496.267 153.843 498.585V508.716H193.01C193.01 508.716 192.743 500.718 192.549 495.071C192.355 489.424 191.822 482.541 191.846 481.813C191.87 481.086 191.846 479.584 190.537 479.584H173.378Z" fill="#302D3B"/>
<path d="M188.162 495.628C188.167 496.871 187.803 498.087 187.116 499.122C186.429 500.158 185.451 500.966 184.304 501.445C183.157 501.924 181.895 502.051 180.675 501.812C179.456 501.572 178.335 500.976 177.455 500.1C176.575 499.223 175.974 498.104 175.73 496.886C175.486 495.667 175.609 494.404 176.083 493.256C176.558 492.107 177.362 491.125 178.395 490.434C179.428 489.744 180.642 489.375 181.885 489.375C183.546 489.375 185.139 490.033 186.315 491.205C187.492 492.377 188.156 493.967 188.162 495.628Z" fill="#93929C"/>
<path d="M181.909 491.944L183.339 494.053L185.787 494.756L184.212 496.767L184.284 499.312L181.909 498.44L179.51 499.312L179.582 496.767L178.007 494.756L180.479 494.053L181.909 491.944Z" fill="white"/>
<path d="M154.134 498.416C154.134 498.416 148.56 501.348 146.5 502.778C145.53 503.427 144.742 504.314 144.212 505.353C143.682 506.392 143.426 507.55 143.47 508.716H158.764C158.764 508.716 158.352 501.276 154.134 498.416Z" fill="white"/>
<path d="M193.01 508.716V512.909C193.01 513.612 192.404 514 191.337 514H145.094C144.027 514 143.421 513.612 143.421 512.909V508.716H193.01Z" fill="white"/>
<path d="M158.667 495.58C158.535 495.371 158.325 495.223 158.084 495.168C157.844 495.114 157.591 495.157 157.382 495.289C157.173 495.421 157.025 495.63 156.971 495.871C156.916 496.112 156.959 496.365 157.091 496.574L158.715 499.191C158.799 499.327 158.917 499.439 159.057 499.515C159.197 499.592 159.355 499.63 159.515 499.628C159.687 499.628 159.856 499.577 160 499.482C160.104 499.418 160.195 499.333 160.266 499.234C160.337 499.134 160.388 499.021 160.415 498.901C160.442 498.781 160.445 498.658 160.424 498.537C160.402 498.416 160.357 498.301 160.29 498.198L158.667 495.58Z" fill="white"/>
<path d="M161.551 493.568C161.391 493.382 161.165 493.265 160.921 493.243C160.677 493.22 160.433 493.293 160.242 493.447C160.054 493.611 159.937 493.841 159.914 494.089C159.892 494.337 159.966 494.585 160.121 494.78L162.036 497.01C162.12 497.116 162.226 497.201 162.348 497.26C162.47 497.319 162.603 497.349 162.738 497.349C162.916 497.351 163.09 497.301 163.241 497.206C163.391 497.111 163.51 496.975 163.584 496.813C163.659 496.652 163.685 496.472 163.659 496.297C163.634 496.121 163.558 495.956 163.441 495.822L161.551 493.568Z" fill="white"/>
<path d="M164.217 491.314C164.024 491.19 163.792 491.14 163.566 491.174C163.339 491.208 163.132 491.323 162.983 491.498C162.835 491.673 162.756 491.896 162.759 492.125C162.763 492.354 162.851 492.575 163.005 492.744L165.186 494.611C165.355 494.754 165.57 494.831 165.792 494.829C165.925 494.832 166.057 494.805 166.179 494.751C166.301 494.696 166.409 494.615 166.495 494.514C166.581 494.428 166.65 494.326 166.697 494.214C166.744 494.101 166.768 493.981 166.768 493.859C166.768 493.738 166.744 493.617 166.697 493.505C166.65 493.392 166.581 493.291 166.495 493.205L164.217 491.314Z" fill="white"/>
<path d="M168.943 490.199L166.519 488.697C166.31 488.608 166.076 488.598 165.86 488.668C165.644 488.738 165.461 488.883 165.343 489.078C165.226 489.272 165.182 489.501 165.22 489.725C165.258 489.949 165.375 490.152 165.55 490.296L167.973 491.799C168.117 491.894 168.286 491.945 168.458 491.944C168.62 491.942 168.778 491.899 168.918 491.818C169.058 491.738 169.175 491.622 169.258 491.484C169.384 491.271 169.421 491.017 169.362 490.777C169.304 490.537 169.153 490.33 168.943 490.199Z" fill="white"/>
<path d="M34.6884 90.724L44.555 145.112C46.183 151.935 43.667 158.108 34.6884 159.191C33.0311 159.38 31.3471 159.272 29.7389 158.873C28.1306 158.473 26.6315 157.791 25.3327 156.867C24.0339 155.943 22.9625 154.798 22.1835 153.499C21.4045 152.201 20.9342 150.777 20.8012 149.314L17.7918 90.8323C17.0025 85.309 19.7404 81.6269 24.5258 81.172C30.3964 80.6089 33.5044 83.6629 34.6884 90.724Z" fill="#FBBEAA"/>
<path d="M170.979 487.073L168.264 485.934C168.151 485.887 168.03 485.862 167.908 485.862C167.785 485.862 167.664 485.887 167.551 485.934C167.438 485.982 167.336 486.051 167.251 486.138C167.165 486.226 167.097 486.329 167.052 486.443C166.962 486.669 166.962 486.92 167.052 487.146C167.142 487.372 167.316 487.554 167.537 487.655L170.276 488.794C170.387 488.819 170.503 488.819 170.615 488.794C170.802 488.794 170.984 488.739 171.139 488.635C171.295 488.532 171.416 488.385 171.487 488.212C171.561 487.993 171.55 487.754 171.455 487.543C171.361 487.332 171.191 487.165 170.979 487.073Z" fill="white"/>
<path d="M172.675 483.583L169.694 482.832C169.453 482.773 169.199 482.811 168.986 482.938C168.773 483.065 168.618 483.27 168.555 483.51C168.526 483.628 168.521 483.75 168.539 483.87C168.558 483.99 168.6 484.105 168.663 484.209C168.726 484.312 168.809 484.402 168.907 484.474C169.005 484.545 169.116 484.597 169.234 484.625L172.215 485.401H172.457C172.676 485.384 172.881 485.292 173.039 485.14C173.198 484.989 173.298 484.787 173.324 484.569C173.35 484.352 173.299 484.132 173.181 483.948C173.062 483.763 172.884 483.626 172.675 483.559V483.583Z" fill="white"/>
<path d="M180.697 353.359C179.507 347.857 176.18 343.053 171.449 340.004C166.718 336.954 160.969 335.908 155.467 337.096C144.003 339.519 137.823 350.814 140.295 362.278L172.724 478.978H190.538L180.697 353.359Z" fill="#FBBEAA"/>
<path d="M180.695 351.056C179.379 345.686 176.021 341.042 171.335 338.109C166.649 335.177 161.004 334.188 155.6 335.353C150.196 336.518 145.459 339.744 142.397 344.347C139.334 348.949 138.188 354.565 139.201 359.999L152.095 479.798C152.095 479.798 182.972 481.64 201.368 479.798L180.695 351.056Z" fill="#93929C"/>
<path d="M26.8909 136.222L96.4988 83.337C104.618 78.1504 110.144 80.9134 114.458 86.4636C116.428 89.1499 117.342 92.467 117.025 95.7833C116.707 99.0995 115.181 102.183 112.737 104.447L43.2991 155.611C40.8522 157.678 37.7021 158.72 34.5053 158.522C31.3086 158.323 28.3118 156.898 26.1396 154.545L25.8245 154.205C24.6715 152.975 23.7813 151.523 23.2081 149.938C22.6349 148.353 22.3907 146.667 22.4905 144.984C22.5903 143.301 23.032 141.656 23.7885 140.15C24.5451 138.643 25.6007 137.307 26.8909 136.222Z" fill="#FBBEAA"/>
<path d="M112.738 104.423C113.381 103.87 113.965 103.253 114.483 102.581C114.941 100.856 115 99.0497 114.655 97.2986C114.311 95.5475 113.572 93.8978 112.496 92.4745C108.836 86.8274 101.153 82.3921 97.7355 83.2403L94.3423 84.9611L55.9271 114.045C59.327 122.036 63.9196 129.464 69.5481 136.076L112.738 104.423Z" fill="#F18380"/>
<path d="M102.243 79.5559L42.0062 120.182C42.2597 122.26 35.582 79.5559 35.582 79.5559L16.6872 82.0149C16.6872 82.0149 17.0717 125.137 19.8924 148.022C21.0185 157.158 28.553 160.646 37.5468 158.684C41.9873 157.715 46.1676 155.893 49.8877 153.282C65.873 142.062 110.719 110.459 114.386 106.483C120.712 99.624 120.712 94.4858 117.076 88.8386C113.441 83.1915 105.661 78.7076 102.243 79.5559Z" fill="#002776"/>
<path d="M130.552 353.65L142.986 223.474C142.986 209.102 128.177 193.445 106.34 196.814C86.6109 199.892 80.6002 219.717 82.224 238.501C83.8479 257.284 88.2348 354.571 88.2348 354.571C88.3 357.356 88.9132 360.1 90.0392 362.648C91.1653 365.196 92.7821 367.498 94.7975 369.421C96.8129 371.344 99.1874 372.851 101.785 373.857C104.383 374.862 107.154 375.346 109.939 375.281C112.724 375.216 115.469 374.602 118.017 373.476C120.565 372.35 122.866 370.733 124.789 368.718C126.712 366.703 128.219 364.328 129.225 361.73C130.23 359.132 130.714 356.362 130.649 353.577L130.552 353.65Z" fill="#93929C"/>
<path d="M180.697 351.056L168.336 220.905C165.719 206.775 148.147 194.244 127.328 201.661C108.544 208.374 106.363 228.976 111.501 247.129C116.639 265.282 139.204 359.999 139.204 359.999C140.519 365.369 143.877 370.013 148.563 372.946C153.249 375.878 158.895 376.867 164.299 375.702C169.703 374.538 174.439 371.311 177.502 366.709C180.564 362.106 181.71 356.491 180.697 351.056Z" fill="#93929C"/>
<path d="M111.502 247.129C116.616 265.283 139.204 360 139.204 360" stroke="#5E5D63" stroke-width="0.75" stroke-miterlimit="10"/>
<path d="M115.137 77.4957C115.137 77.4957 104.424 79.362 102.34 79.9194C101.11 80.2081 99.9734 80.8042 99.0365 81.652C98.0997 82.4998 97.3934 83.5715 96.9838 84.7668C95.6508 87.9418 88.7918 108.737 88.1617 110.991C87.7356 113.474 88.1357 116.028 89.3008 118.262C90.2945 120.976 95.4327 133.337 95.4327 133.337L96.2082 173.158L125.146 177.748L152.874 173.158C152.874 173.158 162.568 99.0907 163.053 94.51C163.538 89.9292 161.26 81.0828 155.782 79.9679C150.305 78.853 135.278 77.5442 135.278 77.5442L115.137 77.4957Z" fill="#FBBEAA"/>
<path d="M94.8493 157.147V171.147C113.802 172.892 144.003 171.656 155.345 171.147C155.879 167.148 156.436 160.361 157.018 155.853C141.579 156.241 116.081 157.68 94.8493 157.147Z" fill="white"/>
<path d="M194.803 169.595L163.756 87.8934C159.611 79.1681 153.48 78.5865 146.79 81.0101C143.696 82.2443 141.165 84.5751 139.681 87.5571C138.197 90.5392 137.863 93.9635 138.744 97.1761L170.712 177.424C171.681 180.477 173.795 183.036 176.61 184.563C179.426 186.091 182.724 186.468 185.811 185.616L186.272 185.495C187.901 185.05 189.422 184.279 190.743 183.227C192.063 182.176 193.156 180.866 193.955 179.379C194.753 177.891 195.24 176.256 195.386 174.574C195.532 172.892 195.333 171.198 194.803 169.595Z" fill="#FBBEAA"/>
<path d="M181.934 135.712L163.757 87.8932C163.269 86.8445 162.693 85.8391 162.036 84.8878C159.809 83.4938 157.26 82.6987 154.636 82.5798C152.012 82.4609 149.401 83.0222 147.058 84.2092C144.336 85.5335 142.149 87.7474 140.857 90.4845C139.566 93.2216 139.248 96.3178 139.956 99.2602C139.956 99.551 140.126 100.109 140.271 100.86L159.03 148C167.224 145.045 174.941 140.905 181.934 135.712Z" fill="#F18380"/>
<path d="M162.06 83.531L196.566 173.088C168.224 164.018 166.678 168.565 161.304 154.395C161.304 154.395 138.356 99.6241 137.678 95.8917C136.969 92.9492 137.287 89.8532 138.579 87.116C139.87 84.3789 142.058 82.1649 144.779 80.8407C152.365 76.9628 159.927 80.4771 162.06 83.531Z" fill="#002776"/>
<path d="M168.114 220.463C167.583 213.79 160.424 188.206 152.734 173.632C152.734 173.632 135.96 170.973 125.157 171.008C113.886 171.044 96.3739 173.632 96.3739 173.632C91.3598 184.978 85.6467 209.767 83.9834 215.115C82.9792 218.262 82.8573 221.623 83.6308 224.834C84.4043 228.045 86.0437 230.983 88.3707 233.328C94.0839 239.808 108.813 247.228 112.212 247.228C126.835 245.141 141.168 241.374 154.928 236.002C162.69 232.75 168.62 227.161 168.114 220.463Z" fill="#93929C"/>
<path d="M114.629 77.6328C114.629 77.6328 103.839 79.5125 101.715 80.074C100.479 80.371 99.3369 80.9737 98.3943 81.8268C97.4516 82.6798 96.7383 83.756 96.3197 84.9564C95.0015 88.1544 88.0929 109.1 87.4338 111.37C87.0046 113.871 87.4077 116.444 88.5812 118.694C89.5576 121.355 94.7574 133.78 94.7574 133.78L95.5386 173.889H152.638C152.638 173.889 162.33 99.3106 162.793 94.7212C163.257 90.1317 160.987 81.197 155.47 80.074C149.953 78.9511 134.842 77.6328 134.842 77.6328H114.629Z" fill="white"/>
<path d="M135.574 77.6327C133.316 85.584 132.045 93.7829 131.79 102.045V210.068C131.79 213.388 133.231 213.607 134.964 213.607H165.747C167.334 213.607 169.751 212.582 168.97 210.312C168.188 208.041 161.304 187.413 154.591 173.328C154.591 173.328 164.209 95.8196 164.209 92.1579C164.209 88.4961 161.524 81.0748 156.886 79.9519C152.247 78.8289 135.476 76.9004 135.476 76.9004L135.574 77.6327Z" fill="#002776"/>
<path d="M113.823 77.9018C112.456 88.2833 111.641 98.7301 111.382 109.198V210.556C111.382 212.851 110.796 213.559 108.623 213.559H84.0404C82.4048 213.559 81.7945 212.558 82.2095 210.532C82.6245 208.506 93.5123 173.914 93.5123 173.914L92.5602 134.098C92.5602 134.098 86.9699 115.35 86.7502 113.861C86.4839 111.999 86.6595 110.1 87.2628 108.319C87.9463 106.537 95.7582 85.616 96.4905 84.1025C96.9838 83.0724 97.6923 82.1602 98.5683 81.4274C99.4443 80.6947 100.467 80.1584 101.568 79.8548C104.205 79.2201 113.896 77.4136 113.896 77.4136L113.823 77.9018Z" fill="#002776"/>
<path d="M131.79 140.518C131.79 140.518 145.876 110.125 146.877 108.148C147.878 106.171 147.292 104.193 144.899 104.559C142.507 104.926 131.326 107.831 131.326 107.831L131.79 140.518Z" fill="#003399"/>
<path d="M131.351 108.88C131.351 108.88 143.801 99.4327 144.899 98.6516C145.423 98.2456 145.808 97.6869 146 97.0528C146.193 96.4186 146.183 95.7404 145.973 95.1118C145.51 94.0621 139.211 75.5823 138.43 74.3129C137.569 73.2371 136.613 72.2404 135.574 71.3346C135.574 71.3346 133.255 81.6609 132.474 86.7141C131.7 94.0772 131.325 101.477 131.351 108.88Z" fill="#003399"/>
<path d="M111.357 140.518C111.357 140.518 97.2716 110.125 96.2952 108.148C95.3187 106.171 95.8802 104.193 98.2726 104.559C100.665 104.926 111.821 107.831 111.821 107.831L111.357 140.518Z" fill="#003399"/>
<path d="M111.821 108.88C111.821 108.88 100.738 99.4329 99.7617 98.6517C99.2925 98.2056 98.9816 97.6187 98.8759 96.98C98.7702 96.3413 98.8755 95.6855 99.1758 95.112C99.7861 94.0623 109.6 77.6331 110.552 76.4857C111.56 75.4064 112.654 74.4105 113.823 73.5074C113.823 73.5074 114.043 76.2904 113.969 78.6828C113.896 81.0751 111.821 108.88 111.821 108.88Z" fill="#003399"/>
<g filter="url(#filter0_d_203_221)">
<rect width="39.9951" height="56.993" rx="1" transform="matrix(-0.993463 -0.114154 -0.114154 0.993463 145.669 117.919)" fill="#EFEFEF"/>
</g>
<path d="M126.89 143.462C124.109 142.287 121.593 140.545 119.505 138.348C118.212 136.991 116.745 135.813 115.145 134.846C114.206 134.259 113.396 133.485 112.765 132.571C111.932 131.155 111.243 129.659 110.707 128.107C110.509 126.77 110.054 125.482 109.369 124.314C108.717 123.717 106.416 124.036 105.221 126.358C104.809 127.392 104.623 128.505 104.674 129.623C104.725 130.741 105.013 131.838 105.518 132.84C106.112 134.043 106.578 135.304 106.906 136.603L106.689 136.733C104.869 135.766 102.925 135.066 100.914 134.652C100.185 134.489 99.4249 134.577 98.7573 134.902C98.0897 135.227 97.5529 135.77 97.2335 136.444C96.9142 137.118 96.8307 137.883 96.9967 138.616C97.1627 139.349 97.5685 140.007 98.1486 140.485C95.011 140.845 95.3671 145.685 98.0607 146.324C97.484 146.567 96.9971 146.982 96.6659 147.515C96.3348 148.047 96.1753 148.671 96.2092 149.302C96.243 149.933 96.4685 150.541 96.8551 151.043C97.2417 151.545 97.7708 151.918 98.3709 152.11C96.4577 153.874 97.8562 156.781 101.33 156.794C104.153 157.081 111.701 158.262 114.328 158.828C116.954 159.393 122.233 158.143 123.929 158.667C126.453 159.592 129.385 159.607 131.621 152.965C133.857 146.323 129.488 144.32 126.89 143.462Z" fill="#FBBEAA"/>
<path d="M125.148 163.19L176.938 185.177C183.997 188.473 192.334 185.596 195.505 177.359C196.085 175.824 196.124 173.314 196.052 171.674C195.98 170.034 195.576 168.426 194.864 166.948C194.152 165.469 192.833 162.803 191.596 161.725C190.36 160.646 185.952 158.655 184.39 158.151L126.125 142.181L125.148 163.19Z" fill="#002776"/>
<defs>
<filter id="filter0_d_203_221" x="99.5365" y="113.461" width="48.0245" height="60.9711" filterUnits="userSpaceOnUse" color-interpolation-filters="sRGB">
<feFlood flood-opacity="0" result="BackgroundImageFix"/>
<feColorMatrix in="SourceAlpha" type="matrix" values="0 0 0 0 0 0 0 0 0 0 0 0 0 0 0 0 0 0 127 0" result="hardAlpha"/>
<feOffset dx="2"/>
<feComposite in2="hardAlpha" operator="out"/>
<feColorMatrix type="matrix" values="0 0 0 0 0.603922 0 0 0 0 0.6 0 0 0 0 0.631373 0 0 0 1 0"/>
<feBlend mode="normal" in2="BackgroundImageFix" result="effect1_dropShadow_203_221"/>
<feBlend mode="normal" in="SourceGraphic" in2="effect1_dropShadow_203_221" result="shape"/>
</filter>
</defs>
</svg>
