<svg width="190" height="514" viewBox="0 0 190 514" fill="none" xmlns="http://www.w3.org/2000/svg">
<path d="M156.635 219.656C156.1 212.928 148.887 187.134 141.139 172.44C141.139 172.44 124.237 174.576 113.353 174.611C101.996 174.648 84.3542 172.44 84.3542 172.44C79.3024 183.88 73.5462 208.872 71.8703 214.264C70.8586 217.436 70.7357 220.825 71.5151 224.062C72.2944 227.3 73.9461 230.261 76.2907 232.626C82.0469 239.159 96.8868 246.64 100.311 246.64C115.045 244.535 129.486 240.737 143.349 235.321C151.17 232.043 157.145 226.408 156.635 219.656Z" fill="#93929C"/>
<path d="M22.4931 79.5636C22.3929 77.3749 22.9788 75.2097 24.1689 73.3702C26.0012 71.2457 27.374 68.7648 28.2007 66.0839C28.8367 63.5952 29.8526 61.2194 31.2125 59.0403C32.184 57.7045 33.6412 56.6116 33.6412 55.5915C33.6412 54.5714 31.6982 52.6041 28.9294 53.1627C27.7434 53.5322 26.6537 54.1592 25.7384 54.999C24.823 55.8388 24.1046 56.8705 23.6346 58.0203C23.3693 57.3197 23.2137 56.5824 23.1732 55.8344L22.566 40.946C22.5568 40.56 22.4703 40.1798 22.3117 39.8278C22.1531 39.4758 21.9255 39.1592 21.6425 38.8965C21.3595 38.6339 21.0268 38.4307 20.664 38.2988C20.3012 38.1669 19.9156 38.109 19.53 38.1286C18.9162 38.1548 18.3259 38.3727 17.8423 38.7517C17.3587 39.1307 17.0061 39.6518 16.834 40.2416V39.5615C16.7406 38.8378 16.3769 38.1762 15.8158 37.7095C15.2548 37.2428 14.5379 37.0056 13.8093 37.0456C13.0806 37.0856 12.394 37.3997 11.8874 37.925C11.3807 38.4502 11.0915 39.1477 11.0778 39.8773V41.9418C10.8346 41.3053 10.3707 40.7774 9.7708 40.4543C9.17088 40.1313 8.47486 40.0345 7.80957 40.1817C7.14428 40.3289 6.55402 40.7102 6.14638 41.2562C5.73873 41.8022 5.54084 42.4765 5.58877 43.1562V44.4677C5.32735 44.0083 4.93777 43.635 4.46762 43.3934C3.99747 43.1519 3.46711 43.0525 2.9414 43.1075C2.22149 43.1989 1.56544 43.5669 1.11211 44.1336C0.658775 44.7003 0.443745 45.4211 0.512623 46.1435L1.7027 58.7004C2.48232 65.7797 3.94648 72.7668 6.07455 79.5636C6.10028 80.6984 6.3632 81.8153 6.84637 82.8424C7.32954 83.8696 8.02228 84.7843 8.88009 85.5278C9.73789 86.2712 10.7418 86.8269 11.8272 87.1591C12.9126 87.4914 14.0555 87.5929 15.1825 87.4571C16.2024 87.4911 17.2176 87.3055 18.1594 86.9126C19.1012 86.5198 19.9475 85.929 20.6409 85.1803C21.3343 84.4316 21.8585 83.5426 22.1781 82.5735C22.4977 81.6044 22.6051 80.5778 22.4931 79.5636Z" fill="#FBBEAA"/>
<path d="M104.343 475.941C104.343 473.602 103.414 471.36 101.76 469.707C100.107 468.053 97.8646 467.124 95.5263 467.124C93.188 467.124 90.9455 468.053 89.2921 469.707C87.6387 471.36 86.7098 473.602 86.7098 475.941V495.104H104.343V475.941Z" fill="#FBBEAA"/>
<path d="M87.3414 479.511C85.1798 479.511 84.7912 480.458 84.1597 481.697C83.1355 484.998 81.3844 488.027 79.035 490.562C75.5276 493.549 71.7647 496.223 67.7898 498.553V508.705H107.039C107.039 508.705 106.772 500.69 106.577 495.031C106.383 489.372 105.824 482.474 105.873 481.746C105.922 481.017 105.873 479.511 104.537 479.511H87.3414Z" fill="#302D3B"/>
<path d="M102.157 495.589C102.162 496.836 101.796 498.055 101.107 499.093C100.418 500.132 99.4354 500.942 98.2849 501.421C97.1345 501.9 95.8677 502.026 94.6452 501.785C93.4227 501.543 92.2996 500.943 91.4184 500.062C90.5372 499.181 89.9376 498.057 89.6956 496.835C89.4537 495.612 89.5803 494.346 90.0594 493.195C90.5385 492.045 91.3486 491.063 92.3868 490.373C93.425 489.684 94.6445 489.318 95.8907 489.323C97.5506 489.33 99.1408 489.992 100.315 491.166C101.488 492.339 102.151 493.93 102.157 495.589Z" fill="#93929C"/>
<path d="M95.8915 491.897L97.3244 494.01L99.7775 494.715L98.2231 496.731L98.296 499.281L95.8915 498.406L93.487 499.281L93.5841 496.731L92.0054 494.715L94.4585 494.01L95.8915 491.897Z" fill="white"/>
<path d="M68.057 498.383C68.057 498.383 62.4952 501.321 60.4064 502.754C59.4394 503.41 58.6539 504.299 58.123 505.339C57.5922 506.38 57.3333 507.538 57.3704 508.705H72.6232C72.6232 508.705 72.3074 501.249 68.057 498.383Z" fill="white"/>
<path d="M107.039 508.705V512.907C107.039 513.611 106.407 514 105.339 514H59.0461C58.0018 514 57.3703 513.611 57.3703 512.907V508.705H107.039Z" fill="white"/>
<path d="M72.6236 495.541C72.4891 495.334 72.2794 495.188 72.039 495.134C71.7987 495.079 71.5466 495.121 71.3363 495.249C71.2316 495.313 71.1408 495.398 71.0693 495.498C70.9977 495.598 70.9469 495.711 70.9198 495.831C70.8926 495.951 70.8897 496.075 70.9112 496.196C70.9326 496.318 70.9781 496.433 71.0449 496.536L72.6721 499.159C72.7505 499.295 72.8641 499.408 73.0008 499.485C73.1376 499.561 73.2925 499.6 73.4493 499.597C73.6292 499.594 73.8052 499.544 73.9594 499.451C74.0641 499.386 74.1549 499.302 74.2264 499.202C74.298 499.102 74.3488 498.989 74.376 498.869C74.4031 498.749 74.406 498.625 74.3845 498.503C74.363 498.382 74.3176 498.267 74.2509 498.164L72.6236 495.541Z" fill="white"/>
<path d="M75.489 493.525C75.4092 493.432 75.3121 493.356 75.203 493.301C75.0939 493.246 74.9751 493.213 74.8533 493.204C74.7315 493.195 74.6092 493.21 74.4932 493.249C74.3773 493.287 74.27 493.348 74.1775 493.427C74.085 493.507 74.0091 493.604 73.9541 493.713C73.8992 493.822 73.8662 493.941 73.8572 494.063C73.8482 494.185 73.8632 494.307 73.9015 494.423C73.9398 494.539 74.0006 494.647 74.0803 494.739L75.9747 496.973C76.0622 497.076 76.1699 497.159 76.2912 497.218C76.4124 497.276 76.5446 497.309 76.6791 497.314C76.8551 497.31 77.0266 497.258 77.1745 497.163C77.3224 497.067 77.4408 496.933 77.5165 496.774C77.5921 496.615 77.622 496.438 77.6028 496.263C77.5836 496.088 77.516 495.922 77.4077 495.783L75.489 493.525Z" fill="white"/>
<path d="M78.1845 491.266C77.9913 491.142 77.7594 491.092 77.532 491.126C77.3046 491.159 77.0973 491.275 76.9487 491.45C76.8001 491.626 76.7203 491.849 76.7242 492.079C76.7282 492.309 76.8156 492.529 76.9701 492.699L79.1317 494.57C79.3012 494.713 79.5168 494.791 79.7389 494.788C79.8726 494.793 80.0057 494.767 80.1278 494.712C80.2499 494.657 80.3578 494.575 80.4432 494.472C80.5329 494.388 80.6045 494.287 80.6534 494.174C80.7023 494.061 80.7274 493.94 80.7274 493.817C80.7274 493.694 80.7023 493.572 80.6534 493.459C80.6045 493.346 80.5329 493.245 80.4432 493.161L78.1845 491.266Z" fill="white"/>
<path d="M82.9211 490.149L80.4923 488.643C80.2791 488.517 80.0249 488.48 79.7843 488.539C79.5437 488.598 79.3357 488.749 79.2051 488.959C79.1393 489.064 79.0953 489.181 79.0756 489.303C79.056 489.425 79.061 489.55 79.0905 489.67C79.1199 489.79 79.1732 489.903 79.2471 490.002C79.321 490.101 79.4141 490.184 79.5208 490.246L81.9496 491.752C82.0936 491.848 82.2626 491.898 82.4354 491.898C82.5936 491.894 82.7482 491.85 82.8843 491.769C83.0204 491.688 83.1334 491.574 83.2125 491.436C83.3409 491.226 83.3824 490.974 83.3279 490.734C83.2735 490.493 83.1276 490.284 82.9211 490.149Z" fill="white"/>
<path d="M84.9617 487.016L82.2415 485.875C82.0096 485.778 81.7488 485.778 81.5165 485.873C81.2842 485.969 81.0995 486.153 81.0029 486.385C80.9555 486.498 80.931 486.619 80.9311 486.742C80.9311 486.865 80.9556 486.986 81.0031 487.099C81.0506 487.212 81.1201 487.315 81.2077 487.401C81.2952 487.486 81.399 487.554 81.5129 487.599L84.2331 488.741H84.5974C84.807 488.73 85.0069 488.649 85.1657 488.512C85.3245 488.375 85.4333 488.189 85.475 487.983C85.5167 487.778 85.4889 487.564 85.396 487.376C85.3031 487.187 85.1504 487.036 84.9617 486.944V487.016Z" fill="white"/>
<path d="M86.6612 483.519L83.6496 482.766C83.4112 482.708 83.1596 482.747 82.9501 482.874C82.7406 483.002 82.5903 483.207 82.5323 483.446C82.4743 483.684 82.5134 483.936 82.6409 484.145C82.7685 484.355 82.974 484.505 83.2123 484.563L86.1998 485.34H86.4183C86.6275 485.338 86.8303 485.268 86.9966 485.141C87.1629 485.014 87.2838 484.837 87.3413 484.636C87.3933 484.398 87.3517 484.149 87.2251 483.941C87.0984 483.733 86.8965 483.582 86.6612 483.519Z" fill="white"/>
<path d="M117.24 353.385C116.973 341.629 109.055 335.946 97.3237 336.237C85.5927 336.529 77.1405 342.674 77.4077 354.405L86.7099 476.888H104.343L117.24 353.385Z" fill="#FBBEAA"/>
<path d="M118.77 353.311C118.705 350.52 118.09 347.77 116.962 345.216C115.834 342.663 114.213 340.357 112.194 338.43C110.174 336.503 107.795 334.992 105.191 333.984C102.588 332.977 99.8115 332.492 97.0206 332.557C94.2298 332.623 91.4791 333.237 88.9258 334.366C86.3724 335.494 84.0663 337.114 82.1391 339.134C80.2119 341.154 78.7014 343.533 77.6939 346.136C76.6863 348.74 76.2013 351.516 76.2667 354.307L70.7524 480.216H118.769L118.77 353.311Z" fill="#93929C"/>
<path d="M178.664 475.941C178.664 473.602 177.735 471.36 176.082 469.707C174.428 468.053 172.186 467.124 169.848 467.124C167.509 467.124 165.267 468.053 163.613 469.707C161.96 471.36 161.031 473.602 161.031 475.941V495.104H178.664V475.941Z" fill="#FBBEAA"/>
<path d="M161.686 479.511C159.5 479.511 159.112 480.458 158.504 481.697C157.469 484.998 155.709 488.027 153.355 490.562C149.853 493.555 146.089 496.23 142.11 498.553V508.705H181.359C181.359 508.705 181.092 500.69 180.898 495.031C180.703 489.372 180.169 482.474 180.193 481.746C180.218 481.017 180.193 479.511 178.882 479.511H161.686Z" fill="#302D3B"/>
<path d="M176.501 495.589C176.506 496.835 176.141 498.053 175.453 499.091C174.765 500.128 173.784 500.939 172.635 501.418C171.486 501.898 170.22 502.026 168.999 501.786C167.777 501.546 166.654 500.949 165.771 500.07C164.889 499.192 164.288 498.071 164.043 496.85C163.798 495.629 163.921 494.363 164.397 493.212C164.872 492.061 165.679 491.077 166.714 490.385C167.748 489.693 168.966 489.323 170.211 489.323C171.875 489.323 173.471 489.983 174.65 491.157C175.829 492.331 176.495 493.925 176.501 495.589Z" fill="#93929C"/>
<path d="M170.236 491.897L171.669 494.01L174.122 494.715L172.543 496.731L172.616 499.281L170.236 498.406L167.831 499.281L167.904 496.731L166.325 494.715L168.803 494.01L170.236 491.897Z" fill="white"/>
<path d="M142.402 498.383C142.402 498.383 136.816 501.321 134.752 502.754C133.78 503.405 132.99 504.293 132.459 505.335C131.928 506.376 131.672 507.536 131.716 508.705H147.041C147.041 508.705 146.628 501.249 142.402 498.383Z" fill="white"/>
<path d="M181.359 508.705V512.907C181.359 513.611 180.752 514 179.683 514H133.342C132.274 514 131.666 513.611 131.666 512.907V508.705H181.359Z" fill="white"/>
<path d="M146.944 495.541C146.812 495.332 146.602 495.183 146.36 495.129C146.119 495.074 145.866 495.117 145.656 495.25C145.447 495.382 145.299 495.591 145.244 495.833C145.189 496.074 145.233 496.327 145.365 496.537L146.992 499.16C147.076 499.296 147.195 499.408 147.335 499.485C147.476 499.561 147.634 499.6 147.794 499.597C147.966 499.598 148.135 499.547 148.279 499.451C148.384 499.387 148.475 499.302 148.546 499.202C148.618 499.102 148.669 498.989 148.696 498.869C148.723 498.749 148.726 498.625 148.705 498.504C148.683 498.383 148.638 498.267 148.571 498.164L146.944 495.541Z" fill="white"/>
<path d="M149.834 493.525C149.674 493.338 149.448 493.221 149.203 493.199C148.958 493.176 148.714 493.249 148.523 493.403C148.334 493.568 148.217 493.798 148.194 494.047C148.172 494.296 148.246 494.544 148.401 494.739L150.32 496.974C150.404 497.08 150.511 497.165 150.633 497.224C150.755 497.283 150.889 497.314 151.024 497.314C151.202 497.315 151.377 497.266 151.527 497.17C151.678 497.075 151.797 496.938 151.872 496.777C151.946 496.615 151.972 496.435 151.947 496.259C151.922 496.083 151.846 495.918 151.729 495.783L149.834 493.525Z" fill="white"/>
<path d="M152.506 491.266C152.312 491.142 152.08 491.092 151.853 491.126C151.626 491.159 151.418 491.275 151.27 491.45C151.121 491.626 151.041 491.849 151.045 492.079C151.049 492.309 151.137 492.529 151.291 492.699L153.477 494.57C153.647 494.713 153.862 494.791 154.084 494.788C154.218 494.791 154.35 494.764 154.472 494.71C154.594 494.655 154.702 494.574 154.789 494.472C154.875 494.387 154.944 494.284 154.991 494.172C155.038 494.059 155.062 493.939 155.062 493.817C155.062 493.695 155.038 493.574 154.991 493.461C154.944 493.349 154.875 493.247 154.789 493.161L152.506 491.266Z" fill="white"/>
<path d="M157.242 490.149L154.814 488.643C154.604 488.555 154.37 488.545 154.153 488.615C153.937 488.685 153.753 488.83 153.635 489.025C153.517 489.219 153.473 489.45 153.511 489.674C153.549 489.898 153.667 490.101 153.842 490.246L156.271 491.752C156.415 491.847 156.584 491.898 156.757 491.898C156.918 491.896 157.077 491.852 157.217 491.771C157.358 491.691 157.475 491.575 157.558 491.436C157.684 491.223 157.722 490.969 157.663 490.728C157.604 490.488 157.453 490.28 157.242 490.149Z" fill="white"/>
<path d="M22.7845 81.1912L32.4996 142.178C34.1026 149.829 31.6253 156.751 22.7845 157.965C21.1526 158.178 19.4945 158.056 17.9109 157.608C16.3274 157.16 14.8513 156.395 13.5724 155.36C12.2936 154.324 11.2386 153.039 10.4716 151.583C9.70457 150.127 9.24149 148.53 9.11046 146.89L6.14734 81.3126C5.37013 75.1192 8.06603 70.9903 12.7779 70.4803C18.5584 69.8488 21.6187 73.2734 22.7845 81.1912Z" fill="#FBBEAA"/>
<path d="M159.282 487.016L156.562 485.875C156.449 485.827 156.327 485.803 156.205 485.803C156.082 485.803 155.961 485.827 155.848 485.875C155.735 485.922 155.632 485.992 155.546 486.08C155.46 486.167 155.393 486.271 155.348 486.385C155.257 486.611 155.257 486.863 155.347 487.089C155.438 487.315 155.612 487.498 155.833 487.599L158.578 488.741C158.69 488.766 158.806 488.766 158.918 488.741C159.105 488.741 159.288 488.685 159.443 488.582C159.599 488.478 159.72 488.33 159.792 488.158C159.866 487.938 159.854 487.699 159.76 487.487C159.665 487.276 159.495 487.108 159.282 487.016Z" fill="white"/>
<path d="M160.982 483.519L157.995 482.766C157.754 482.707 157.499 482.745 157.285 482.872C157.072 482.999 156.917 483.205 156.854 483.446C156.825 483.564 156.819 483.686 156.838 483.807C156.856 483.927 156.898 484.042 156.962 484.146C157.025 484.25 157.108 484.34 157.206 484.411C157.304 484.483 157.415 484.535 157.534 484.563L160.521 485.34H160.764C160.983 485.324 161.189 485.231 161.347 485.079C161.506 484.927 161.606 484.725 161.632 484.507C161.658 484.289 161.607 484.069 161.489 483.884C161.37 483.7 161.191 483.562 160.982 483.494V483.519Z" fill="white"/>
<path d="M169.022 353.02C167.829 347.507 164.495 342.693 159.754 339.637C155.013 336.581 149.252 335.533 143.738 336.723C132.25 339.152 126.056 350.47 128.534 361.958L161.031 478.904H178.882L169.022 353.02Z" fill="#FBBEAA"/>
<path d="M169.018 350.712C167.7 345.332 164.335 340.677 159.639 337.739C154.943 334.8 149.286 333.809 143.87 334.976C138.455 336.143 133.708 339.377 130.64 343.989C127.571 348.601 126.422 354.228 127.438 359.674L140.358 479.726C140.358 479.726 171.301 481.572 189.735 479.726L169.018 350.712Z" fill="#93929C"/>
<path d="M14.8909 135.426L84.6455 82.4296C92.782 77.232 98.3195 80.0009 102.643 85.5628C104.617 88.2548 105.532 91.5789 105.214 94.9021C104.897 98.2253 103.367 101.316 100.918 103.584L31.3338 154.856C28.8817 156.927 25.7249 157.972 22.5214 157.773C19.3179 157.574 16.3148 156.146 14.138 153.787L13.8223 153.447C12.6669 152.215 11.7748 150.76 11.2004 149.171C10.626 147.582 10.3813 145.893 10.4813 144.207C10.5813 142.52 11.0239 140.872 11.782 139.362C12.5402 137.852 13.598 136.513 14.8909 135.426Z" fill="#FBBEAA"/>
<path d="M100.918 103.56C101.563 103.006 102.148 102.388 102.667 101.715C103.126 99.986 103.185 98.1756 102.84 96.4208C102.495 94.666 101.755 93.0129 100.676 91.5866C97.0081 85.9276 89.3089 81.4829 85.8843 82.333L82.484 84.0574L43.9878 113.203C47.3949 121.21 51.9972 128.654 57.6376 135.28L100.918 103.56Z" fill="#F18380"/>
<path d="M90.4014 78.6405L30.0374 119.353C30.2914 121.435 23.5997 78.6405 23.5997 78.6405L4.66503 81.1047C4.66503 81.1047 5.05039 124.317 7.87705 147.251C9.00549 156.407 16.5558 159.902 25.5686 157.935C30.0184 156.964 34.2076 155.138 37.9355 152.522C53.9544 141.278 98.8952 109.608 102.57 105.624C108.909 98.7508 108.909 93.6018 105.266 87.9428C101.622 82.2837 93.826 77.7904 90.4014 78.6405Z" fill="#001A4B"/>
<path d="M118.771 353.312L131.23 222.862C131.23 208.459 116.39 192.769 94.5071 196.145C74.7368 199.23 68.7134 219.097 70.3407 237.92C71.9679 256.743 76.3641 354.235 76.3641 354.235C76.4294 357.026 77.0439 359.776 78.1723 362.33C79.3007 364.883 80.921 367.189 82.9406 369.116C84.9603 371.043 87.3397 372.554 89.9432 373.561C92.5466 374.569 95.3229 375.054 98.1138 374.989C100.905 374.923 103.655 374.309 106.209 373.18C108.762 372.052 111.068 370.432 112.995 368.412C114.922 366.392 116.433 364.013 117.441 361.41C118.448 358.806 118.933 356.03 118.868 353.239L118.771 353.312Z" fill="#93929C"/>
<path d="M169.021 350.712L156.634 220.287C154.011 206.127 136.403 193.57 115.539 201.002C96.7162 207.73 94.5304 228.375 99.6794 246.566C104.828 264.758 127.44 359.675 127.44 359.675C128.759 365.055 132.123 369.71 136.82 372.648C141.516 375.587 147.173 376.578 152.588 375.411C158.004 374.243 162.75 371.01 165.819 366.398C168.888 361.786 170.036 356.158 169.021 350.712Z" fill="#93929C"/>
<path d="M99.6802 246.567C104.805 264.759 127.441 359.676 127.441 359.676" stroke="#5E5D63" stroke-width="0.75" stroke-miterlimit="10"/>
<path d="M103.323 76.5759C103.323 76.5759 92.5876 78.4461 90.4989 79.0047C89.2662 79.294 88.1271 79.8914 87.1884 80.741C86.2496 81.5906 85.5418 82.6645 85.1313 83.8623C83.7955 87.044 76.922 107.883 76.2906 110.142C75.8636 112.63 76.2646 115.19 77.4321 117.428C78.4279 120.148 83.5769 132.535 83.5769 132.535L84.3541 172.44L113.352 177.039L141.139 172.44C141.139 172.44 150.854 98.2164 151.34 93.626C151.826 89.0356 149.543 80.1706 144.054 79.0533C138.564 77.9361 123.506 76.6246 123.506 76.6246L103.323 76.5759Z" fill="#FBBEAA"/>
<path d="M82.9926 156.395V170.424C101.986 172.173 132.25 170.934 143.616 170.424C144.151 166.417 144.709 159.616 145.292 155.099C129.821 155.487 104.269 156.929 82.9926 156.395Z" fill="white"/>
<path d="M100.235 76.9394C100.992 81.4837 105.337 86.6127 111.396 87.0493C119.727 87.6496 122.578 84.5132 125.986 76.5607C125.986 76.5607 141.989 77.8632 144.321 78.1061C149.843 79.5902 151.387 83.9427 152.115 88.6788C152.844 93.415 150.601 176.068 150.601 176.068C150.601 176.068 100.475 178.934 77.1344 176.068C77.1344 176.068 75.7321 115.766 75.6107 114.43C75.5138 112.974 75.5998 107.973 76.7557 103.448C78.8576 95.2196 84.0871 84.6396 85.4715 82.3079C86.5327 80.4531 88.2753 79.0851 90.3291 78.4947C91.7621 78.0333 100.235 76.9394 100.235 76.9394Z" fill="#002366"/>
<path d="M183.157 168.87L152.044 86.9957C147.891 78.2521 141.746 77.6692 135.043 80.0979C131.942 81.3347 129.406 83.6704 127.919 86.6587C126.431 89.6471 126.097 93.0786 126.979 96.2979L159.015 176.715C159.986 179.774 162.105 182.339 164.926 183.869C167.747 185.4 171.052 185.778 174.146 184.924L174.608 184.803C176.24 184.357 177.764 183.584 179.088 182.53C180.411 181.477 181.507 180.165 182.307 178.674C183.106 177.183 183.594 175.545 183.741 173.859C183.887 172.174 183.688 170.476 183.157 168.87Z" fill="#FBBEAA"/>
<path d="M170.26 134.916L152.044 86.9957C151.556 85.9448 150.979 84.9373 150.32 83.984C148.089 82.587 145.534 81.7903 142.904 81.6712C140.275 81.552 137.659 82.1145 135.31 83.304C132.583 84.631 130.391 86.8496 129.097 89.5925C127.803 92.3354 127.484 95.438 128.194 98.3867C128.194 98.6781 128.364 99.2368 128.509 99.9897L147.308 147.229C155.519 144.268 163.252 140.12 170.26 134.916Z" fill="#F18380"/>
<path d="M150.344 82.624L184.923 172.37C156.521 163.281 159.85 137.961 144.403 140.56C144.403 140.56 126.59 98.751 125.91 95.0107C125.201 92.0621 125.519 88.9595 126.813 86.2166C128.107 83.4737 130.3 81.2551 133.027 79.928C140.629 76.0419 148.207 79.5637 150.344 82.624Z" fill="#002366"/>
<path d="M93.7703 76.7687C92.0477 83.4793 102.583 89.4972 111.886 87.049C102.094 80.684 102.583 76.767 102.583 76.767V69.9122C99.6457 69.4225 94.8545 72.5449 93.7703 76.7687Z" fill="#001A4B"/>
<path d="M124.126 67.464C127.064 66.9744 136.572 67.9683 139.794 73.3393C141.263 75.7876 139.794 77.7459 139.794 77.7459C139.794 77.7459 137.836 77.7462 134.898 77.2565C132.45 82.6425 120.209 89.4971 111.184 87.0993C124.126 80.1943 124.126 76.7665 124.126 76.7665V67.464Z" fill="#001A4B"/>
<path d="M120.786 130.422L159.452 178.585C164.042 184.899 170.843 187.717 177.619 182.034C178.872 180.969 179.896 179.66 180.629 178.188C181.361 176.715 181.787 175.109 181.88 173.467C181.973 171.825 181.732 170.181 181.171 168.635C180.609 167.089 179.74 165.673 178.615 164.473L132.031 118.327C127.975 113.59 123.093 112.838 119.547 115.898C115.248 119.711 115.758 124.18 120.786 130.422Z" fill="#FBBEAA"/>
<path d="M134.363 120.853C130.064 116.505 122.025 107.13 119.305 104.847C116.615 102.82 113.676 101.147 110.561 99.8678C108.198 99.0761 105.754 98.5467 103.275 98.2891C101.55 98.0705 100.846 98.5806 100.846 99.625C100.889 100.247 101.088 100.849 101.423 101.375C101.758 101.901 102.219 102.334 102.765 102.637H99.583C98.4901 102.637 97.7857 103.511 98.2958 104.92C98.759 105.85 99.4212 106.668 100.235 107.314C101.05 107.961 101.996 108.42 103.008 108.66C103.008 108.66 98.7087 109.073 97.6157 109.291C96.5228 109.51 96.1827 109.923 96.1827 110.967C96.1922 111.689 96.3927 112.395 96.7639 113.013C97.135 113.632 97.6637 114.141 98.2958 114.489C99.843 115.117 101.485 115.478 103.153 115.558C103.153 115.558 97.8343 116.894 96.7656 117.282C95.697 117.671 95.5755 118.375 96.1341 119.298C96.4525 119.948 96.9121 120.519 97.4794 120.969C98.0467 121.418 98.7074 121.735 99.413 121.897C101.429 122.431 102.789 121.557 103.518 121.678C105.083 122.183 106.616 122.783 108.108 123.476C110.348 125.706 113.087 127.371 116.099 128.333C118.34 129.274 120.396 130.606 122.171 132.268C122.997 133.043 123.971 133.645 125.034 134.038C126.097 134.431 127.228 134.606 128.361 134.554C129.493 134.502 130.603 134.224 131.626 133.735C132.649 133.246 133.563 132.557 134.315 131.709C138.201 127.58 137.545 124.131 134.363 120.853Z" fill="#FBBEAA"/>
<path d="M121.776 133.845L159.171 179.603C163.857 185.848 174.806 189.28 181.495 183.494C182.732 182.411 183.736 181.087 184.446 179.603C185.156 178.12 185.558 176.508 185.626 174.864C185.694 173.221 185.428 171.581 184.843 170.044C184.259 168.506 181.659 163.328 180.516 162.145L133.658 118.137L121.776 133.845Z" fill="#002366"/>
<path d="M103.299 102.661C103.292 102.701 103.293 102.743 103.303 102.782C103.313 102.822 103.332 102.858 103.357 102.891C103.382 102.923 103.414 102.949 103.45 102.968C103.486 102.987 103.525 102.998 103.566 103.001L105.557 103.196H106.529C106.869 103.196 107.185 103.317 107.525 103.341C107.884 103.449 108.233 103.587 108.569 103.754L109.686 104.216C111.192 104.823 112.698 105.381 113.815 105.794C114.933 106.207 115.71 106.45 115.71 106.45C115.771 106.476 115.84 106.478 115.903 106.455C115.966 106.433 116.019 106.388 116.05 106.329C116.095 106.269 116.12 106.197 116.12 106.122C116.12 106.048 116.095 105.975 116.05 105.916L114.228 104.968L112.334 104.07C111.654 103.754 110.901 103.438 110.148 103.147L109.006 102.71C108.639 102.544 108.257 102.414 107.865 102.321L106.699 102.2H105.703H104.222H103.663C103.602 102.151 103.524 102.129 103.446 102.138C103.369 102.148 103.298 102.187 103.25 102.248C103.202 102.309 103.18 102.387 103.189 102.465C103.198 102.542 103.237 102.613 103.299 102.661ZM103.76 108.515H104.197C104.561 108.482 104.927 108.482 105.29 108.515L106.043 108.636C106.321 108.671 106.596 108.719 106.869 108.782L108.521 109.316C109.638 109.68 110.731 110.142 111.556 110.482C111.556 110.482 111.824 110.482 111.799 110.603H112.091L112.528 110.725H112.795H112.941C113.014 110.742 113.078 110.787 113.119 110.851C113.159 110.914 113.174 110.991 113.159 111.065C113.149 111.123 113.119 111.176 113.075 111.216C113.031 111.255 112.976 111.279 112.917 111.283H111.678H111.289C110.439 111.065 109.298 110.725 108.181 110.336L106.553 109.729L105.8 109.535L105.145 109.34C104.809 109.241 104.469 109.16 104.124 109.097L103.711 108.976C103.675 108.965 103.641 108.947 103.611 108.922C103.581 108.898 103.557 108.868 103.539 108.834C103.521 108.8 103.51 108.763 103.506 108.725C103.502 108.687 103.506 108.648 103.517 108.612C103.546 108.576 103.583 108.548 103.626 108.531C103.668 108.514 103.715 108.509 103.76 108.515ZM103.76 115.412H104.659C104.902 115.412 105.217 115.412 105.533 115.582L106.529 115.898C107.156 116.119 107.764 116.387 108.35 116.7C108.62 116.826 108.88 116.972 109.128 117.137C109.177 117.194 109.205 117.267 109.205 117.343C109.205 117.419 109.177 117.492 109.128 117.55C109.058 117.623 108.962 117.667 108.861 117.671L107.962 117.525C107.452 117.404 106.796 117.21 106.14 116.991L105.193 116.602L104.367 116.287C104.092 116.165 103.825 116.027 103.566 115.874C103.497 115.833 103.446 115.768 103.424 115.691C103.401 115.615 103.409 115.532 103.444 115.461C103.516 115.415 103.603 115.397 103.687 115.412H103.76Z" fill="#F18380"/>
<path d="M22.0077 60.1337C22.9307 60.1337 23.0035 59.5508 23.4164 58.4821C21.3519 58.4821 15.3528 58.8707 12.7298 63.9226C15.3771 60.2794 20.4533 60.1337 22.0077 60.1337ZM17.2959 40.922C17.2959 40.922 17.4416 41.7721 17.5873 43.0108C17.5873 43.6423 17.7331 44.3952 17.7817 45.1724C17.8302 45.9496 17.9031 46.7997 17.9759 47.6012C17.9759 49.3013 18.0973 50.9772 18.0973 52.2401C18.0973 53.5031 18.0973 54.3532 18.0973 54.3532C18.0975 54.3936 18.0892 54.4336 18.0731 54.4706C18.057 54.5077 18.0333 54.5409 18.0036 54.5683C17.9739 54.5957 17.9388 54.6167 17.9006 54.6299C17.8624 54.643 17.8219 54.648 17.7817 54.6446C17.7133 54.6412 17.6479 54.6156 17.5953 54.5718C17.5428 54.528 17.5059 54.4684 17.4901 54.4018C17.4901 54.4018 17.3445 53.5517 17.223 52.2887C17.1016 51.0257 16.9073 49.3499 16.8344 47.674C16.8344 46.8239 16.8344 45.9739 16.8344 45.2452C16.8344 44.5166 16.8344 43.7151 16.8344 43.0837C16.8344 41.7964 16.8344 40.9706 16.8344 40.9706C16.8343 40.9301 16.8425 40.8902 16.8586 40.8531C16.8748 40.8161 16.8985 40.7828 16.9282 40.7554C16.9579 40.728 16.9929 40.7071 17.0311 40.6939C17.0693 40.6808 17.1099 40.6757 17.1502 40.6791C17.1967 40.7059 17.235 40.7451 17.2607 40.7922C17.2864 40.8394 17.2986 40.8927 17.2959 40.9463V40.922ZM11.6611 42.6222C11.6611 42.6222 11.8068 43.3508 11.9768 44.4195C11.9768 44.9781 12.1469 45.6095 12.2197 46.2896C12.2926 46.9697 12.3655 47.6983 12.4383 48.4269C12.4383 49.8842 12.6083 51.3415 12.6326 52.4344C12.6569 53.5274 12.6326 54.2803 12.6326 54.2803C12.6295 54.3186 12.6189 54.3559 12.6014 54.3902C12.5838 54.4244 12.5597 54.4548 12.5304 54.4796C12.501 54.5044 12.467 54.5233 12.4304 54.5349C12.3937 54.5466 12.3552 54.5508 12.3169 54.5475C12.2516 54.5429 12.1896 54.5165 12.1412 54.4724C12.0927 54.4284 12.0605 54.3692 12.0497 54.3046C12.0497 54.3046 11.904 53.5759 11.7339 52.5073C11.5639 51.4386 11.4182 49.9571 11.2968 48.5241C11.2968 47.7955 11.2968 47.0668 11.1511 46.3868C11.0053 45.7067 11.1511 45.0509 11.1511 44.4923C11.1511 43.3994 11.1511 42.6707 11.1511 42.6707C11.1509 42.6303 11.1592 42.5904 11.1753 42.5533C11.1914 42.5163 11.2151 42.483 11.2448 42.4556C11.2745 42.4282 11.3096 42.4072 11.3478 42.3941C11.386 42.381 11.4266 42.3759 11.4668 42.3793C11.5207 42.4015 11.5673 42.4383 11.6016 42.4854C11.6359 42.5326 11.6565 42.5883 11.6611 42.6464V42.6222ZM6.22064 44.9295C6.22064 44.9295 6.36633 45.5367 6.56063 46.4596C6.56063 46.8968 6.75497 47.4312 6.82784 48.0141C6.9007 48.597 6.99782 49.2042 7.09497 49.8114C7.26498 51.05 7.33791 52.2401 7.38648 53.2116C7.43506 54.1831 7.38648 54.7661 7.38648 54.7661C7.38662 54.8065 7.37831 54.8465 7.36217 54.8835C7.34603 54.9205 7.32234 54.9539 7.29265 54.9813C7.26295 55.0087 7.22791 55.0296 7.18969 55.0427C7.15148 55.0558 7.111 55.0609 7.07073 55.0575C7.00872 55.0543 6.94935 55.0313 6.90129 54.992C6.85323 54.9527 6.81896 54.8991 6.80353 54.839C6.80353 54.839 6.63355 54.2318 6.46353 53.3331C6.29352 52.4345 6.05062 51.1715 5.90489 49.9571C5.90489 49.3256 5.78343 48.7184 5.73486 48.1355C5.68628 47.5526 5.73486 47.0183 5.73486 46.5568C5.73486 45.6339 5.73486 45.0023 5.73486 45.0023C5.73471 44.9619 5.74302 44.922 5.75917 44.8849C5.77531 44.8479 5.79893 44.8146 5.82862 44.7872C5.85831 44.7598 5.89343 44.7389 5.93165 44.7257C5.96986 44.7126 6.01034 44.7075 6.05061 44.7109C6.09545 44.7359 6.13405 44.7708 6.16349 44.8128C6.19294 44.8549 6.21248 44.9031 6.22064 44.9538V44.9295Z" fill="#F18380"/>
<path d="M133.559 117.838L138.482 122.382L125.228 138.287L121.441 133.743L133.559 117.838Z" fill="#00163F"/>
<path d="M23.8961 78.2086L24.4955 84.8918L4.80347 87.9212L4.80347 80.726L23.8961 78.2086Z" fill="#00163F"/>
<path d="M150.887 169.453L150.6 176.157C150.6 176.157 127.301 177.722 112.352 177.672C98.586 177.625 77.1339 176.157 77.1339 176.157L77.1339 170.476C77.1339 170.476 99.5188 171.234 113.867 171.234C133.18 171.234 150.887 169.453 150.887 169.453Z" fill="#00163F"/>
<path d="M121.88 18.5752C120.857 14.8863 121.233 10.9496 122.936 7.52106C124.639 4.09255 127.548 1.41405 131.106 0C132.519 1.4136 131.8 5.9272 131.8 5.9272C136.795 3.58651 142.397 2.86677 147.821 3.8688C147.723 7.33685 146.415 10.6615 144.126 13.268C146.901 13.5477 149.57 14.4827 151.913 15.996C151.558 17.6306 150.819 19.1574 149.759 20.4508C148.698 21.7443 147.345 22.7674 145.812 23.436C147.373 25.2638 148.448 27.456 148.937 29.8096C146.273 30.5779 143.458 30.6631 140.753 30.0576C141.19 31.4263 141.366 32.8647 141.274 34.2984C138.704 34.6756 136.084 34.4822 133.598 33.7321C131.112 32.982 128.821 31.6936 126.89 29.9584C124.327 26.6228 122.609 22.7177 121.88 18.5752Z" fill="#E69D7E"/>
<path d="M137.207 31.9677C137.603 38.3909 141.646 48.1373 140.579 56.2965C139.091 67.8037 124.856 67.6797 119.351 67.6797H111.191V31.9677H137.207Z" fill="#E69D7E"/>
<path d="M124.707 54.4608V75.516C124.707 75.516 123.046 82.7576 111.935 82.7576C109.725 82.9441 107.527 82.277 105.792 80.8933C104.058 79.5097 102.92 77.5145 102.611 75.3176V54.4856L124.707 54.4608Z" fill="#FBBEAA"/>
<path d="M102.611 71.9944C109.579 75.3176 119.772 72.3416 124.707 63.2152V54.4608H102.611V71.9944Z" fill="#F18380"/>
<path d="M88.772 38.2907C88.6809 43.3265 88.9129 48.363 89.4664 53.3691C90.3592 60.5363 92.9136 68.4724 105.562 68.4724C118.21 68.4724 124.682 62.7435 127.386 53.3691C129.022 47.7147 132.346 39.3323 130.982 29.6603C129.618 19.9883 123.79 13.6643 110.05 13.2923C96.3112 12.9203 87.3584 19.0955 88.772 38.2907Z" fill="#FBBEAA"/>
<path d="M115.581 42.6063C115.497 42.9801 115.309 43.3224 115.038 43.594C114.768 43.8656 114.427 44.0554 114.054 44.1415C113.68 44.2276 113.29 44.2065 112.929 44.0807C112.567 43.9549 112.248 43.7294 112.009 43.4303C111.769 43.1312 111.619 42.7706 111.576 42.39C111.533 42.0094 111.598 41.6243 111.764 41.279C111.93 40.9338 112.19 40.6424 112.514 40.4385C112.838 40.2345 113.214 40.1263 113.597 40.1263C113.89 40.1572 114.175 40.246 114.434 40.3877C114.694 40.5294 114.922 40.7212 115.107 40.9519C115.291 41.1825 115.428 41.4476 115.51 41.7316C115.591 42.0156 115.615 42.3129 115.581 42.6063Z" fill="#403D4F"/>
<path d="M97.1545 42.6063C97.0704 42.9801 96.8824 43.3224 96.6123 43.594C96.3422 43.8656 96.0008 44.0554 95.6275 44.1415C95.2543 44.2276 94.8643 44.2065 94.5025 44.0807C94.1407 43.9549 93.8218 43.7294 93.5825 43.4303C93.3432 43.1312 93.1932 42.7706 93.1499 42.39C93.1066 42.0094 93.1716 41.6243 93.3375 41.279C93.5035 40.9338 93.7636 40.6424 94.0878 40.4385C94.4121 40.2345 94.7874 40.1263 95.1705 40.1263C95.4643 40.1572 95.749 40.246 96.0083 40.3877C96.2675 40.5294 96.496 40.7212 96.6806 40.9519C96.8651 41.1825 97.002 41.4476 97.0834 41.7316C97.1647 42.0156 97.1889 42.3129 97.1545 42.6063Z" fill="#403D4F"/>
<path d="M109.579 35.588C109.579 35.588 109.579 35.588 109.802 35.3648C110.001 35.1864 110.217 35.0286 110.447 34.8936C110.755 34.7044 111.089 34.5623 111.439 34.472C111.829 34.3277 112.239 34.2441 112.654 34.224C113.058 34.1742 113.466 34.1742 113.869 34.224C114.211 34.2348 114.552 34.2763 114.886 34.348L115.853 34.6208C116.013 34.6722 116.147 34.7839 116.225 34.9321C116.304 35.0802 116.322 35.2533 116.275 35.4144C116.237 35.5432 116.159 35.6563 116.052 35.7368C115.945 35.8173 115.814 35.8608 115.68 35.8608H114.713C114.424 35.8237 114.133 35.8237 113.845 35.8608C113.514 35.8362 113.183 35.8362 112.853 35.8608C112.53 35.8608 112.208 35.8608 111.91 36.0344C111.613 36.208 111.365 36.2328 111.117 36.2576L110.596 36.4312H110.373C110.218 36.4985 110.043 36.5025 109.885 36.4422C109.728 36.3819 109.6 36.2622 109.529 36.1088C109.486 36.0245 109.463 35.9309 109.463 35.836C109.463 35.7411 109.486 35.6476 109.529 35.5632L109.579 35.588Z" fill="#403D4F"/>
<path d="M97.5264 36.5303H97.3776L96.9808 36.3815H96.708H96.4352C96.216 36.3091 95.9923 36.2511 95.7656 36.2079C95.5356 36.1713 95.3012 36.1713 95.0712 36.2079C94.8578 36.1709 94.6397 36.1709 94.4264 36.2079H93.6328C93.4661 36.2015 93.3084 36.1308 93.1928 36.0105C93.0772 35.8903 93.0127 35.7299 93.0128 35.5631C93.0176 35.4401 93.0575 35.321 93.1278 35.2199C93.1981 35.1188 93.2959 35.04 93.4096 34.9927L94.1784 34.7199C94.4589 34.6283 94.7513 34.5781 95.0464 34.5711C95.3752 34.5219 95.7095 34.5219 96.0384 34.5711C96.6898 34.6364 97.3091 34.8859 97.824 35.2903C98.0108 35.4145 98.171 35.5747 98.2952 35.7615C98.4192 35.9103 98.4192 35.9599 98.444 35.9599V36.2079C98.4577 36.3247 98.4392 36.443 98.3905 36.5501C98.3418 36.6571 98.2647 36.7488 98.1677 36.8152C98.0706 36.8816 97.9573 36.9202 97.8399 36.9268C97.7225 36.9334 97.6055 36.9078 97.5016 36.8527L97.5264 36.5303Z" fill="#403D4F"/>
<path d="M102.61 51.0382C102.194 51.0479 101.781 50.9663 101.399 50.7992C101.018 50.6321 100.678 50.3836 100.403 50.071C100.295 49.9644 100.211 49.8366 100.156 49.6957C100.1 49.5549 100.075 49.4039 100.081 49.2526C100.081 48.9798 100.527 45.5574 100.676 44.2926C100.676 44.1676 100.725 44.0478 100.814 43.9594C100.902 43.8711 101.022 43.8214 101.147 43.8214C101.272 43.8214 101.392 43.8711 101.48 43.9594C101.569 44.0478 101.618 44.1676 101.618 44.2926C101.618 44.491 101.097 48.9798 101.023 49.2526C101.229 49.4736 101.479 49.6495 101.756 49.769C102.034 49.8886 102.333 49.9492 102.635 49.947C102.76 49.947 102.88 49.9967 102.968 50.085C103.057 50.1734 103.106 50.2933 103.106 50.4182C103.106 50.5432 103.057 50.663 102.968 50.7514C102.88 50.8398 102.76 50.8894 102.635 50.8894L102.61 51.0382Z" fill="#F18380"/>
<path d="M100.279 55.9238C99.3366 56.1718 99.0142 57.5606 99.5598 59.1726C100.13 60.2815 101.056 61.1674 102.189 61.6888C103.321 62.2102 104.596 62.3372 105.809 62.0494C106.468 62.0148 107.113 61.8494 107.706 61.5626C108.3 61.2759 108.831 60.8738 109.267 60.3796C109.703 59.8855 110.037 59.3093 110.248 58.6847C110.459 58.0602 110.544 57.3998 110.497 56.7422C110.497 55.6758 109.777 55.031 108.389 55.031C105.665 55.1023 102.953 55.401 100.279 55.9238Z" fill="#73102A"/>
<path d="M110.547 56.7422C110.547 56.7422 110.547 56.5934 110.547 56.4942C108.728 56.0677 106.815 56.3412 105.189 57.2601C103.562 58.179 102.341 59.6762 101.767 61.4542C103.051 62.0829 104.495 62.3078 105.909 62.099C106.568 62.0583 107.211 61.8866 107.803 61.594C108.394 61.3014 108.921 60.8937 109.353 60.3949C109.785 59.896 110.113 59.316 110.318 58.6888C110.523 58.0616 110.601 57.3998 110.547 56.7422Z" fill="#D65155"/>
<path d="M101.122 57.4368C104.255 57.4625 107.372 56.9766 110.348 55.9984C110.165 55.6625 109.885 55.3902 109.544 55.2174C109.203 55.0447 108.817 54.9797 108.438 55.0312C105.715 55.1025 103.002 55.4012 100.329 55.924C100.069 56.0112 99.8417 56.1731 99.674 56.3893C99.5064 56.6055 99.4063 56.8664 99.3864 57.1392C99.9426 57.3412 100.531 57.442 101.122 57.4368Z" fill="white"/>
<path d="M113.299 26.5854C113.299 26.5854 117.689 41.763 128.179 45.7558C129.397 45.7709 130.601 45.4926 131.689 44.9444C132.777 44.3962 133.716 43.5942 134.429 42.6062C137.215 36.7459 137.999 30.1325 136.661 23.783C134.9 16.0454 125.6 6.07579 108.637 8.40699C99.5848 6.67099 88.7968 8.25819 82.0512 17.4094C75.3056 26.5606 83.3408 39.2334 88.772 41.3414C94.114 38.1251 99.2343 34.5541 104.098 30.6526C103.354 32.9838 102.561 37.919 103.354 37.919C107.939 35.478 111.475 31.4481 113.299 26.5854Z" fill="#E69D7E"/>
<path d="M126.89 47.5911C127.088 44.2183 128.006 40.1511 132.098 40.8703C137.058 41.5895 137.405 54.6095 127.138 53.0471L126.89 47.5911Z" fill="#FBBEAA"/>
<path d="M132.519 48.4594C132.434 48.4557 132.351 48.4312 132.278 48.3879C132.204 48.3447 132.142 48.2841 132.098 48.2114C131.995 47.992 131.835 47.8047 131.634 47.6693C131.433 47.5339 131.199 47.4555 130.957 47.4426C130.674 47.4454 130.396 47.5197 130.149 47.6584C129.902 47.7971 129.693 47.9958 129.543 48.2362C129.488 48.3254 129.404 48.3934 129.305 48.4294C129.206 48.4653 129.098 48.4672 128.998 48.4346C128.903 48.3934 128.823 48.3234 128.769 48.2344C128.716 48.1455 128.692 48.042 128.7 47.9386C128.732 46.8928 129.053 45.8762 129.626 45.0009C130.199 44.1257 131.003 43.4258 131.949 42.9786C132.009 42.9552 132.072 42.9441 132.136 42.9462C132.2 42.9482 132.263 42.9632 132.321 42.9903C132.379 43.0174 132.431 43.056 132.473 43.1037C132.516 43.1515 132.548 43.2074 132.568 43.2681C132.589 43.3288 132.596 43.393 132.591 43.4567C132.585 43.5204 132.567 43.5824 132.537 43.6389C132.507 43.6953 132.466 43.745 132.416 43.785C132.366 43.825 132.308 43.8544 132.247 43.8714C131.693 44.1437 131.201 44.5261 130.8 44.9952C130.399 45.4642 130.098 46.0101 129.915 46.5994C130.26 46.4521 130.632 46.3761 131.007 46.3762C131.407 46.4141 131.793 46.5491 132.13 46.7694C132.467 46.9898 132.745 47.2889 132.941 47.641C132.972 47.6947 132.992 47.754 133 47.8155C133.008 47.877 133.004 47.9395 132.988 47.9994C132.972 48.0593 132.944 48.1155 132.906 48.1646C132.868 48.2137 132.821 48.2549 132.767 48.2858C132.706 48.3693 132.619 48.4304 132.519 48.4594Z" fill="#F18380"/>
<path d="M143.01 104.505L143.6 104.232L143.953 104.995L144.583 104.703L144.229 103.94L144.819 103.667L145.785 105.752L145.195 106.025L144.813 105.2L144.183 105.491L144.566 106.317L143.976 106.59L143.01 104.505L143.01 104.505ZM146.924 102.691L147.89 104.776L147.32 105.041L146.583 103.45L146.21 103.623L146.487 104.221C146.612 104.49 146.744 104.829 146.673 105.087C146.612 105.366 146.345 105.566 145.983 105.658L145.743 105.141C146.086 105.058 146.107 104.896 145.916 104.483L145.409 103.389L146.922 102.687L146.924 102.691ZM147.416 102.463L148.006 102.19L148.914 103.274L148.674 101.88L149.263 101.607L150.506 103.564L149.956 103.819L149.302 102.767L149.503 104.029L149.109 104.211L148.279 103.241L148.659 104.42L148.108 104.675L147.416 102.463L147.416 102.463ZM149.756 101.379L150.346 101.106L150.738 101.952L150.916 100.841L151.565 100.54L151.297 101.919L152.551 102.616L151.844 102.944L150.921 102.343L151.314 103.19L150.724 103.463L149.758 101.378L149.756 101.379L149.756 101.379ZM146.184 100.324C142.645 101.964 140.926 104.392 141.844 106.373C142.753 108.335 145.724 108.612 149.265 106.971C152.823 105.322 154.513 102.883 153.605 100.923C152.686 98.9417 149.745 98.674 146.184 100.324ZM149.122 106.663C145.797 108.203 143.013 108.015 142.18 106.217C141.338 104.401 143.005 102.173 146.327 100.633C149.669 99.0838 152.428 99.2592 153.271 101.077C154.104 102.874 152.466 105.113 149.122 106.663ZM146.461 100.923C143.336 102.371 141.758 104.432 142.513 106.063C143.269 107.693 145.861 107.822 148.987 106.373C152.113 104.924 153.691 102.863 152.935 101.233C152.181 99.6013 149.589 99.4731 146.461 100.923ZM148.959 106.312C145.871 107.743 143.31 107.626 142.574 106.037C141.837 104.448 143.405 102.417 146.491 100.987C149.577 99.5567 152.14 99.6733 152.877 101.262C153.615 102.85 152.047 104.881 148.959 106.312L148.959 106.312Z" fill="white"/>
</svg>
