<svg width="227" height="515" viewBox="0 0 227 515" fill="none" xmlns="http://www.w3.org/2000/svg">
    <path d="M185.213 96.2698C185.338 93.5414 184.607 90.8422 183.124 88.549C180.84 85.9005 179.128 85.2493 178.098 81.9072C177.305 78.8048 176.038 75.843 174.343 73.1265C173.132 71.4612 171.315 70.0988 171.315 68.8271C171.315 67.5554 173.738 65.1029 177.189 65.7993C178.668 66.2599 180.026 67.0416 181.167 68.0885C182.308 69.1353 183.204 70.4215 183.79 71.8549C184.121 70.9815 184.315 70.0624 184.365 69.1299L185.122 48.1281C185.134 47.6469 185.241 47.1729 185.439 46.7341C185.637 46.2953 185.921 45.9006 186.273 45.5732C186.626 45.2458 187.041 44.9924 187.493 44.828C187.946 44.6636 188.426 44.5914 188.907 44.6158C189.672 44.6485 190.408 44.9202 191.011 45.3927C191.317 45.6324 196.438 51.8433 201.437 57.9996C206.289 63.975 211.025 69.899 211.131 70.2612C210.159 79.0865 208.334 87.7968 205.681 96.2698C205.649 97.6845 205.321 99.0768 204.719 100.357C204.116 101.638 203.253 102.778 202.183 103.705C201.114 104.632 199.862 105.324 198.509 105.739C197.156 106.153 195.732 106.279 194.327 106.11C193.055 106.153 191.79 105.921 190.616 105.431C189.441 104.942 188.386 104.205 187.522 103.272C186.658 102.338 186.004 101.23 185.606 100.022C185.207 98.8139 185.073 97.5342 185.213 96.2698Z" fill="#FBBEAA"/>
    <path d="M190.093 39.4385L169.028 60.1015C168.805 59.7837 168.582 59.4492 168.359 59.1315C167.689 58.1615 167.011 57.1832 166.341 56.2132C166.093 55.8536 165.852 55.5024 165.603 55.1429C164.599 53.6963 164.794 51.7376 166.044 50.5082L180.56 36.2661C181.81 35.0366 183.772 34.8862 185.202 35.9144C185.55 36.1715 185.899 36.4118 186.248 36.6689C187.209 37.3571 188.17 38.0453 189.132 38.7334C189.447 38.9741 189.77 39.2063 190.093 39.4385Z" fill="#E2874A"/>
    <g opacity="0.53">
        <path d="M189.132 38.7487L168.35 59.1215C167.681 58.1515 167.003 57.1732 166.333 56.2033L186.24 36.6758C187.21 37.3723 188.171 38.0605 189.132 38.7487Z" fill="#D46424"/>
    </g>
    <path d="M193.802 42.1947C194.572 43.1128 195.35 44.0225 196.129 44.9489C197.224 46.2342 198.302 47.5196 199.389 48.8134C203.581 53.771 207.756 58.7289 211.949 63.6866C214.199 66.349 216.449 69.0115 218.699 71.674C220.136 73.3767 220.015 75.891 218.432 77.4449L206.458 89.1853C204.875 90.7393 202.354 90.8122 200.675 89.3402C198.059 87.0363 195.433 84.741 192.817 82.4372C187.941 78.1456 183.066 73.8708 178.19 69.5792C176.92 68.4732 175.65 67.3503 174.388 66.2358C173.493 65.4456 172.582 64.6557 171.678 63.8572C170.51 62.8343 170.045 61.3137 170.306 59.9023C170.448 59.0742 170.859 58.2766 171.501 57.6363L187.558 41.8829C188.216 41.2425 189.013 40.8533 189.854 40.725C191.294 40.5135 192.8 41.0011 193.802 42.1947Z" fill="#F5F5F5"/>
    <path d="M199.39 48.8114C203.582 53.7691 207.757 58.727 211.95 63.6846L192.826 82.4436C187.951 78.152 183.075 73.8772 178.191 69.5941L199.39 48.8114Z" fill="#E2874A"/>
    <g opacity="0.52">
        <path d="M189.746 72.2006C187.24 70.005 184.751 67.8092 182.254 65.622L178.213 69.5923C183.088 73.8839 187.964 78.1587 192.848 82.4417L211.971 63.6828C211.295 62.89 210.636 62.0969 209.961 61.3041L199.103 71.9516C196.528 74.4705 192.448 74.5708 189.746 72.2006Z" fill="#E2874A"/>
    </g>
    <path d="M193.832 41.7543L171.267 63.8859C170.076 65.0557 168.153 65.0454 166.983 63.837L166.872 63.7287C165.702 62.5371 165.721 60.6228 166.921 59.4445L189.486 37.3128C190.677 36.1431 192.592 36.1619 193.77 37.3618L193.881 37.4701C195.043 38.6702 195.024 40.5845 193.832 41.7543Z" fill="#E2874A"/>
    <g opacity="0.53">
        <path d="M192.552 36.6263C192.971 37.7342 192.725 39.0274 191.825 39.8984L169.327 61.9618C168.477 62.7985 167.265 63.0326 166.207 62.6829C166.355 63.0774 166.579 63.4457 166.895 63.7538L166.938 63.7955C168.124 65.0037 170.081 65.0304 171.289 63.8436L193.787 41.7802C194.996 40.5934 195.022 38.6367 193.835 37.4285L193.793 37.3869C193.434 37.0371 193.01 36.7725 192.552 36.6263Z" fill="#D46424"/>
    </g>
    <path d="M194.343 65.5087C196.402 64.9355 198.2 64.4414 200.222 67.0139C198.992 68.5467 196.506 69.3697 193.845 68.9215C190.439 68.3474 187.99 65.9235 188.238 63.433C189.274 64.7442 190.911 66.242 192.829 65.8813C193.334 65.7909 193.855 65.6496 194.343 65.5087Z" fill="#5B2500"/>
    <path d="M195.401 59.6438C198.907 60.2334 201.409 62.7916 200.976 65.3519C200.969 65.4279 200.945 65.5041 200.929 65.5717C198.442 62.8447 195.979 63.524 193.945 64.0885C193.458 64.2293 193.004 64.3529 192.55 64.4259C191.12 64.6963 189.657 63.0024 188.849 61.7642C190.018 60.0888 192.604 59.1803 195.401 59.6438Z" fill="#5B2500"/>
    <path d="M194.479 53.9894C192.759 51.2458 196.251 47.6277 198.466 46.214C198.466 46.214 199.8 44.6712 202.563 47.4349C205.615 50.4869 203.784 52.5757 203.784 52.5757C201.79 54.6962 197.137 58.2305 194.479 53.9894Z" fill="#FBBEAA"/>
    <path d="M199.362 59.3018C197.642 56.5581 201.134 52.9401 203.35 51.5264C203.35 51.5264 204.683 49.9836 207.447 52.7473C210.499 55.7993 208.667 57.8881 208.667 57.8881C206.673 60.0086 202.02 63.5429 199.362 59.3018Z" fill="#FBBEAA"/>
    <path d="M204.245 64.1848C202.525 61.4412 206.017 57.8231 208.233 56.4094C208.233 56.4094 209.566 54.8667 212.329 57.6303C215.381 60.6823 213.55 62.7711 213.55 62.7711C211.556 64.8917 206.903 68.4259 204.245 64.1848Z" fill="#FBBEAA"/>
    <path d="M210.27 68.5313C208.845 66.2318 211.739 63.1993 213.575 62.0144C213.575 62.0144 214.68 60.7213 216.97 63.0377C219.5 65.5957 217.982 67.3464 217.982 67.3464C216.329 69.1238 212.473 72.086 210.27 68.5313Z" fill="#FBBEAA"/>
    <path d="M40.1493 97.0064C34.421 104.372 6.82129 181.778 6.82129 181.778C37.5087 171.958 22.2567 168.194 38.9467 171.002C38.9467 171.002 65.0225 115.664 65.7573 111.622C66.5241 108.436 66.18 105.084 64.7817 102.121C63.3834 99.1569 61.0149 96.7597 58.0683 95.3259C49.8545 91.1271 45.8777 89.6412 40.1493 97.0064Z" fill="#002776"/>
    <path d="M119.438 94.3531L179.51 134.868C179.257 136.94 184.125 94.3531 184.125 94.3531L206.359 96.4285C206.359 96.4285 205.061 139.788 201.788 162.686C200.49 171.774 192.926 175.22 183.957 173.263C179.529 172.297 175.36 170.48 171.65 167.876C155.709 156.687 110.986 125.171 107.329 121.206C101.021 114.366 101.021 109.242 104.646 103.61C108.272 97.9787 116.03 93.5072 119.438 94.3531Z" fill="#001A4B"/>
    <path d="M68.4214 324.902C68.3413 331.394 70.8432 337.652 75.3769 342.299C79.9106 346.946 86.1047 349.602 92.5965 349.682C99.0882 349.762 105.346 347.26 109.993 342.726C114.64 338.193 117.296 331.999 117.376 325.507C117.376 325.507 120.473 235.153 121.531 216.845C122.589 198.538 117.804 183.856 97.2048 181.741C75.8502 179.55 64.4678 196.246 64.4678 211.758C64.4678 227.271 68.4214 324.902 68.4214 324.902Z" fill="#7C7C7C"/>
    <path d="M28.2551 323.165C27.8354 326.374 28.0561 329.634 28.9043 332.756C29.7526 335.879 31.2116 338.803 33.1969 341.358C35.1823 343.913 37.6546 346.049 40.4709 347.643C43.2872 349.237 46.3915 350.256 49.6043 350.642C52.817 351.028 56.0745 350.774 59.1882 349.893C62.3019 349.012 65.2101 347.523 67.7445 345.511C70.2789 343.499 72.3892 341.004 73.9533 338.172C75.5175 335.339 76.5044 332.224 76.857 329.007C76.857 329.007 89.5992 239.509 92.6211 221.429C95.643 203.348 92.4449 188.213 72.1983 183.907C51.1962 179.45 38.0762 194.836 36.4897 210.248C34.9033 225.659 28.2551 323.165 28.2551 323.165Z" fill="#7C7C7C"/>
    <path d="M108.612 431.373C108.612 431.373 107.403 482.72 107.101 490.401C106.799 498.081 101.939 500.171 94.1071 500.851C86.2754 501.531 82.9766 495.311 81.8685 490.375C80.7605 485.44 74.062 435.1 74.062 435.1L108.612 431.373Z" fill="#FBBEAA"/>
    <path d="M107.731 467.182L78.8466 470.28C76.6054 454.39 74.062 435.025 74.062 435.025L108.612 431.298C108.612 431.298 108.159 450.537 107.731 467.182Z" fill="#F18380"/>
    <path d="M68.4209 324.903C68.4606 321.688 69.133 318.513 70.3997 315.559C71.6665 312.604 73.5028 309.928 75.8038 307.683C78.1047 305.438 80.8254 303.669 83.8103 302.475C86.7952 301.282 89.9859 300.688 93.2003 300.728C96.4147 300.767 99.5898 301.44 102.544 302.706C105.499 303.973 108.175 305.809 110.42 308.11C112.665 310.411 114.434 313.132 115.628 316.117C116.821 319.102 117.415 322.293 117.375 325.507L112.339 468.625L72.8278 472.88L68.4209 324.903Z" fill="#7C7C7C"/>
    <path d="M56.9127 433.338C56.9127 433.338 50.2142 484.256 49.1062 491.836C47.9982 499.416 42.9366 501.028 35.0545 500.851C27.1724 500.675 24.5786 494.153 23.9994 489.142C23.4202 484.13 22.1611 433.338 22.1611 433.338H56.9127Z" fill="#FBBEAA"/>
    <path d="M52.0777 468.845H23.0173C22.5136 452.829 22.0352 433.338 22.0352 433.338H56.9127C56.9127 433.338 54.3945 452.325 52.0777 468.845Z" fill="#F18380"/>
    <path d="M28.2549 323.165C29.0912 316.772 32.4161 310.967 37.5074 307.011C42.5987 303.056 49.0452 301.268 55.4466 302.038C61.848 302.807 67.6873 306.071 71.6961 311.121C75.7048 316.171 77.5594 322.598 76.8568 329.007L54.9486 473.661H15.2109L28.2549 323.165Z" fill="#7C7C7C"/>
    <path d="M76.8321 329.007L54.2437 472.402" stroke="#565656" stroke-width="0.75" stroke-miterlimit="10" stroke-linecap="round"/>
    <path d="M76.8569 329.007C76.8569 329.007 89.5991 239.509 92.621 221.429" stroke="#565656" stroke-width="0.75" stroke-miterlimit="10" stroke-linecap="round"/>
    <path d="M37.699 474.813C40.5552 474.608 43.3872 475.459 45.6573 477.204C47.9273 478.95 49.4774 481.468 50.0132 484.281L63.1583 497.754V506.139H21.0283C21.0283 506.139 23.1436 491.03 23.748 487.63C24.3524 484.231 26.3921 474.813 37.699 474.813Z" fill="#FBBEAA"/>
    <path d="M49.9876 484.181C50.4661 483.526 51.146 483.022 51.6244 483.324C52.1029 483.627 64.82 493.7 65.4244 494.203C65.7966 494.553 66.0781 494.987 66.2449 495.47C66.4116 495.953 66.4584 496.469 66.3813 496.973V507.776H20.0962C20.0962 507.776 21.9093 491.811 22.0352 490.929C22.1611 490.048 23.0425 488.89 23.5462 488.915C26.723 489.888 30.0201 490.414 33.3421 490.476C37.7572 490.71 42.1614 489.845 46.1599 487.958C47.6424 486.927 48.9371 485.649 49.9876 484.181Z" fill="black"/>
    <path d="M58.7765 498.71C56.5353 497.048 48.477 490.753 45.4551 488.386L46.1602 488.033C46.2553 487.992 46.341 487.932 46.412 487.857C49.6354 490.375 57.2152 496.318 59.3809 497.93C61.2116 499.333 62.4657 501.357 62.9064 503.621L61.9243 503.772C61.5089 501.765 60.3932 499.971 58.7765 498.71Z" fill="white"/>
    <path d="M21.3552 496.772C24.6171 496.805 27.7737 497.931 30.3201 499.97C32.6216 502.009 34.1806 504.755 34.7522 507.776H33.3923C32.8361 505.158 31.4601 502.785 29.4639 501.002C27.1203 499.125 24.2067 498.104 21.2041 498.106L21.3552 496.772Z" fill="white"/>
    <path d="M73.8607 507.751H20.0964C19.7209 507.751 19.4165 508.056 19.4165 508.431V513.644C19.4165 514.02 19.7209 514.324 20.0964 514.324H73.8607C74.2362 514.324 74.5406 514.02 74.5406 513.644V508.431C74.5406 508.056 74.2362 507.751 73.8607 507.751Z" fill="white"/>
    <path d="M65.2984 494.102C65.7768 493.901 68.1188 494.581 71.1659 497.577C72.4345 498.889 73.3478 500.502 73.8193 502.264C74.2908 504.027 74.3049 505.881 73.8604 507.65H58.5747C59.4309 497.98 64.8199 494.304 65.2984 494.102Z" fill="white"/>
    <path d="M59.4313 494.254C59.2426 494.485 59.1526 494.781 59.1809 495.078C59.2092 495.375 59.3535 495.649 59.5824 495.84C59.6948 495.933 59.8244 496.002 59.9637 496.045C60.1031 496.088 60.2494 496.102 60.3944 496.088C60.5395 496.074 60.6803 496.032 60.8088 495.963C60.9374 495.895 61.0512 495.802 61.1437 495.689L63.662 492.642C63.8507 492.411 63.9407 492.115 63.9124 491.818C63.8841 491.521 63.7398 491.247 63.5109 491.055C63.4 490.959 63.2707 490.887 63.131 490.842C62.9912 490.798 62.8438 490.782 62.6978 490.796C62.5518 490.81 62.4102 490.854 62.2816 490.925C62.153 490.995 62.04 491.091 61.9496 491.207L59.4313 494.254Z" fill="white"/>
    <path d="M56.4348 491.962C56.246 492.193 56.156 492.489 56.1843 492.786C56.2126 493.083 56.3569 493.357 56.5858 493.548C56.6968 493.644 56.826 493.717 56.9658 493.761C57.1056 493.806 57.2529 493.821 57.3989 493.807C57.5449 493.793 57.6865 493.749 57.8151 493.679C57.9438 493.608 58.0567 493.512 58.1472 493.397L60.6654 490.35C60.848 490.116 60.9341 489.822 60.906 489.527C60.8779 489.231 60.7377 488.958 60.5143 488.763C60.4034 488.667 60.2741 488.595 60.1344 488.55C59.9946 488.506 59.8473 488.49 59.7012 488.504C59.5552 488.518 59.4137 488.562 59.285 488.633C59.1564 488.703 59.0434 488.799 58.953 488.914L56.4348 491.962Z" fill="white"/>
    <path d="M53.5387 489.696C53.3485 489.919 53.2549 490.209 53.2785 490.502C53.3021 490.795 53.441 491.066 53.6646 491.257C53.8957 491.446 54.1919 491.536 54.4889 491.507C54.7859 491.479 55.0598 491.335 55.2511 491.106L57.7693 488.059C57.8752 487.955 57.9593 487.832 58.0167 487.696C58.0741 487.56 58.1037 487.413 58.1037 487.265C58.1037 487.118 58.0741 486.971 58.0167 486.835C57.9593 486.699 57.8752 486.575 57.7693 486.472C57.5358 486.29 57.2411 486.203 56.946 486.232C56.6508 486.26 56.3777 486.4 56.1829 486.623L53.5387 489.696Z" fill="white"/>
    <path d="M50.6177 487.404C50.5249 487.517 50.4553 487.646 50.4127 487.785C50.3701 487.925 50.3554 488.071 50.3694 488.216C50.3834 488.361 50.4259 488.502 50.4944 488.631C50.563 488.759 50.6562 488.873 50.7688 488.966C50.9806 489.173 51.2654 489.289 51.562 489.289C51.8586 489.289 52.1434 489.173 52.3553 488.966L54.8735 485.893C55.0622 485.662 55.1522 485.366 55.124 485.069C55.0957 484.772 54.9514 484.498 54.7224 484.307C54.61 484.214 54.4804 484.144 54.3411 484.102C54.2018 484.059 54.0554 484.044 53.9104 484.058C53.7654 484.073 53.6246 484.115 53.496 484.184C53.3674 484.252 53.2536 484.345 53.1611 484.458L50.6177 487.404Z" fill="white"/>
    <path d="M96.8772 474.813C99.7334 474.608 102.565 475.459 104.836 477.204C107.106 478.95 108.656 481.468 109.191 484.281L122.311 497.754V506.139H80.2065C80.2065 506.139 82.2966 491.03 82.9262 487.63C83.5558 484.231 85.5704 474.813 96.8772 474.813Z" fill="#FBBEAA"/>
    <path d="M109.166 484.181C109.645 483.526 110.299 483.022 110.803 483.324C111.307 483.627 123.999 493.7 124.578 494.203C125.157 494.707 125.56 495.336 125.56 496.973V507.776H79.2749C79.2749 507.776 81.088 491.811 81.2139 490.929C81.3398 490.048 82.2212 488.89 82.7249 488.915C85.9017 489.888 89.1988 490.414 92.5208 490.476C96.9282 490.715 101.325 489.849 105.313 487.958C106.808 486.932 108.111 485.654 109.166 484.181Z" fill="black"/>
    <path d="M117.955 498.71C115.713 497.048 107.655 490.753 104.633 488.386L105.313 488.033C105.416 487.993 105.51 487.933 105.59 487.857C108.814 490.375 116.393 496.318 118.559 497.93C120.39 499.333 121.644 501.357 122.085 503.621L121.102 503.772C120.675 501.77 119.562 499.979 117.955 498.71Z" fill="white"/>
    <path d="M80.5334 496.772C83.7953 496.805 86.9519 497.931 89.4983 499.97C91.7999 502.009 93.3589 504.755 93.9304 507.776H92.5706C92.0075 505.155 90.6224 502.782 88.6169 501.002C86.285 499.122 83.378 498.099 80.3823 498.106L80.5334 496.772Z" fill="white"/>
    <path d="M133.039 507.751H79.2747C78.8991 507.751 78.5947 508.056 78.5947 508.431V513.644C78.5947 514.02 78.8991 514.324 79.2747 514.324H133.039C133.414 514.324 133.719 514.02 133.719 513.644V508.431C133.719 508.056 133.414 507.751 133.039 507.751Z" fill="white"/>
    <path d="M124.477 494.102C124.956 493.901 127.298 494.581 130.345 497.577C131.613 498.889 132.527 500.502 132.998 502.264C133.469 504.027 133.484 505.881 133.039 507.65H117.753C118.61 497.98 123.999 494.304 124.477 494.102Z" fill="white"/>
    <path d="M118.508 494.254C118.32 494.485 118.23 494.781 118.258 495.078C118.286 495.375 118.431 495.649 118.66 495.84C118.772 495.933 118.902 496.002 119.041 496.045C119.18 496.088 119.327 496.102 119.472 496.088C119.617 496.074 119.757 496.032 119.886 495.963C120.015 495.895 120.128 495.802 120.221 495.689L122.739 492.642C122.922 492.408 123.008 492.114 122.98 491.819C122.952 491.523 122.811 491.25 122.588 491.055C122.477 490.959 122.348 490.887 122.208 490.842C122.068 490.798 121.921 490.782 121.775 490.796C121.629 490.81 121.487 490.854 121.359 490.925C121.23 490.995 121.117 491.091 121.027 491.207L118.508 494.254Z" fill="white"/>
    <path d="M115.613 491.962C115.424 492.193 115.334 492.489 115.363 492.786C115.391 493.083 115.535 493.357 115.764 493.548C115.875 493.644 116.004 493.717 116.144 493.761C116.284 493.806 116.431 493.822 116.577 493.807C116.723 493.793 116.865 493.75 116.993 493.679C117.122 493.609 117.235 493.513 117.325 493.397L119.844 490.35C120.026 490.117 120.112 489.822 120.084 489.527C120.056 489.232 119.916 488.958 119.693 488.764C119.461 488.575 119.165 488.485 118.868 488.513C118.571 488.541 118.297 488.686 118.106 488.915L115.613 491.962Z" fill="white"/>
    <path d="M112.716 489.695C112.611 489.796 112.528 489.918 112.47 490.052C112.413 490.186 112.384 490.33 112.384 490.476C112.384 490.622 112.413 490.766 112.47 490.9C112.528 491.034 112.611 491.156 112.716 491.257C112.947 491.445 113.244 491.535 113.541 491.507C113.838 491.479 114.111 491.335 114.303 491.106L116.821 488.059C117.01 487.827 117.1 487.531 117.071 487.234C117.043 486.937 116.899 486.663 116.67 486.472C116.558 486.379 116.428 486.31 116.289 486.267C116.149 486.224 116.003 486.21 115.858 486.224C115.713 486.238 115.572 486.28 115.443 486.349C115.315 486.417 115.201 486.511 115.109 486.623L112.716 489.695Z" fill="white"/>
    <path d="M109.796 487.404C109.703 487.517 109.634 487.646 109.591 487.785C109.548 487.925 109.534 488.071 109.548 488.216C109.562 488.361 109.604 488.502 109.673 488.631C109.741 488.759 109.834 488.873 109.947 488.966C110.159 489.173 110.444 489.289 110.74 489.289C111.037 489.289 111.322 489.173 111.534 488.966L114.052 485.893C114.24 485.662 114.33 485.366 114.302 485.069C114.274 484.772 114.13 484.498 113.901 484.307C113.788 484.214 113.659 484.144 113.519 484.102C113.38 484.059 113.234 484.044 113.089 484.058C112.944 484.073 112.803 484.115 112.674 484.184C112.546 484.252 112.432 484.345 112.339 484.458L109.796 487.404Z" fill="white"/>
    <path d="M120.79 197.26C120.79 197.26 120.79 223.374 120.79 224.809C120.79 226.245 108.199 238.559 91.478 238.559C65.7668 238.559 34.994 229.166 35.4473 223.047C35.7495 219.018 38.5215 198.755 38.5215 198.755L120.79 197.26Z" fill="#7C7C7C"/>
    <path d="M100.751 60.5955H70.4312V96.2536H100.751V60.5955Z" fill="#FBBEAA"/>
    <path d="M102.09 87.1126C87.9883 99.2001 73.9701 92.1491 69.3534 85.8535L49.2075 94.6673L54.244 187.842L120.977 190.36L118.459 100.963L102.09 87.1126Z" fill="white"/>
    <path d="M70.507 60.5955H100.726V80.4895C99.4058 80.6534 98.0771 80.7375 96.747 80.7413C86.3215 80.7413 74.6621 77.8957 70.4062 67.9487L70.507 60.5955Z" fill="#F18380"/>
    <path d="M120.872 95.1457C118.177 93.383 100.726 83.31 100.726 83.31V216.122C102.661 218.007 103.056 217.962 105.834 217.647L105.964 217.633C111.97 216.125 117.764 213.875 123.214 210.934C123.214 210.934 125.531 114.335 126.11 106.981C126.689 99.6282 123.566 96.9085 120.872 95.1457Z" fill="#002776"/>
    <path d="M73.7958 217.6C75.02 217.341 76.1796 216.838 77.2058 216.122L70.3562 81.9502C70.3562 81.9502 50.5881 89.9834 45.325 92.3253C43.1372 93.2481 41.2613 94.7813 39.9217 96.7417C38.582 98.7021 37.8351 101.007 37.7703 103.38C37.4429 107.812 36.9896 206.049 36.9141 206.905C36.8385 207.761 37.5688 208.24 38.3495 208.693C39.1301 209.146 63.8088 216.348 70.0792 217.633C71.3077 217.871 72.5716 217.86 73.7958 217.6Z" fill="#002776"/>
    <path d="M116.414 34.1294C116.162 44.4289 116.414 52.5628 114.55 60.4197C112.687 68.2766 106.996 74.6981 94.4046 74.6981C81.8135 74.6981 67.4596 70.5934 66.4523 54.8544C64.3873 52.6132 61.0381 44.6304 60.9122 35.6907C60.7863 26.7509 61.4914 7.83903 81.8639 4.94306C102.236 2.04709 116.968 9.52624 116.414 34.1294Z" fill="#FBBEAA"/>
    <path d="M105.762 42.2382C105.762 43.6232 106.593 44.7564 107.626 44.7564C108.658 44.7564 109.489 43.6232 109.489 42.2382C109.489 40.8532 108.658 39.72 107.626 39.72C106.593 39.72 105.762 40.7524 105.762 42.2382Z" fill="#403D4F"/>
    <path d="M83.0981 42.2382C83.0981 43.6232 83.9291 44.7564 84.9616 44.7564C85.9941 44.7564 86.8252 43.6232 86.8252 42.2382C86.8252 40.8532 85.9941 39.72 84.9616 39.72C83.9291 39.72 83.0981 40.7524 83.0981 42.2382Z" fill="#403D4F"/>
    <path d="M87.6559 36.9996C87.4797 37.2263 86.145 36.9996 85.1377 36.9996C84.1304 36.9996 82.1914 36.9996 82.1914 36.773C82.1914 36.5464 83.1483 34.9851 85.6665 35.2621C87.4796 35.4635 88.1344 36.5967 87.6559 36.9996Z" fill="#403D4F"/>
    <path d="M105.334 36.9997C105.485 37.2264 106.618 36.9997 107.5 36.9997C108.381 36.9997 110.018 36.9997 110.018 36.7731C109.792 36.2023 109.365 35.7338 108.818 35.4555C108.271 35.1773 107.641 35.1085 107.046 35.2621C105.485 35.4636 105.057 36.5968 105.334 36.9997Z" fill="#403D4F"/>
    <path d="M97.905 52.6633C99.6678 52.6633 101.078 51.5049 101.128 50.6739L100.549 43.5725C100.53 43.3965 100.443 43.2349 100.307 43.1221C100.17 43.0092 99.9954 42.954 99.8189 42.9681C99.7328 42.9745 99.6489 42.9978 99.5718 43.0367C99.4948 43.0757 99.4262 43.1294 99.37 43.195C99.3138 43.2605 99.2712 43.3365 99.2445 43.4186C99.2178 43.5006 99.2076 43.5872 99.2145 43.6732L99.7685 50.5228C99.514 50.7988 99.201 51.0144 98.8524 51.1538C98.5039 51.2933 98.1286 51.353 97.7539 51.3286C97.6659 51.3218 97.5774 51.3328 97.4937 51.3611C97.4101 51.3893 97.333 51.4342 97.2671 51.493C97.2012 51.5518 97.1479 51.6234 97.1104 51.7033C97.0729 51.7832 97.052 51.87 97.0488 51.9582C97.0484 52.1368 97.1157 52.3089 97.2372 52.4398C97.3587 52.5707 97.5254 52.6506 97.7035 52.6633H97.905Z" fill="#F18380"/>
    <path d="M71.9119 38.8129C71.9119 48.9742 66.8754 45.1969 66.8754 45.1969C65.6163 41.4195 63.4227 43.0438 60.5392 43.0438C57.6558 43.0438 58.0262 40.9438 55.1428 34.0186C52.836 28.4785 55.4953 19.6756 57.2254 17.5447C54.3575 13.7875 58.2466 11.5493 58.1121 12.1188C57.2254 15.8734 60.2994 12.0999 61.8389 10.6196C78.2817 -5.19098 119.718 2.75208 119.718 2.75208L115.414 8.19818L126.013 5.27036C126.013 5.27036 125.322 11.0055 123.495 14.0842C121.974 16.6482 118.297 19.6756 118.297 19.6756L129.831 20.741C129.831 20.741 122.334 28.7315 111.954 29.7969C100.263 30.9968 87.7326 25.5353 87.7326 25.5353L92.3461 30.8623C92.3461 30.8623 80.6851 28.484 76.9077 30.4526C74.4918 31.7117 71.9119 34.2704 71.9119 38.8129Z" fill="#7D4A40"/>
    <path d="M67.006 47.0228C66.8801 44.152 66.4268 39.9214 62.3473 39.8206C58.2677 39.7199 57.7389 42.7922 57.8648 47.6272C57.9907 52.4622 62.9013 56.5669 67.2075 54.9048L67.006 47.0228Z" fill="#FBBEAA"/>
    <path d="M61.0128 50.4974C61.1894 50.4666 61.3467 50.3673 61.4505 50.2211C61.5543 50.0749 61.5961 49.8937 61.5668 49.7168C61.567 49.5747 61.6073 49.4355 61.683 49.3152C61.7587 49.1949 61.8669 49.0985 61.9949 49.0369C62.252 48.8647 62.5544 48.7728 62.8637 48.7728C63.1731 48.7728 63.4755 48.8647 63.7325 49.0369C63.8443 49.0986 63.97 49.131 64.0977 49.131C64.2254 49.131 64.351 49.0986 64.4628 49.0369C64.5654 48.9691 64.6477 48.8747 64.7009 48.7639C64.7541 48.653 64.7763 48.5298 64.765 48.4073C64.4125 44.353 61.8187 43.5975 61.7179 43.5723C61.632 43.5458 61.5415 43.5373 61.452 43.5473C61.3626 43.5573 61.2762 43.5856 61.1982 43.6305C61.1203 43.6754 61.0524 43.7359 60.9988 43.8082C60.9452 43.8805 60.9071 43.9631 60.8869 44.0508C60.8404 44.2177 60.862 44.3963 60.947 44.5474C61.032 44.6984 61.1734 44.8096 61.3402 44.8566C61.8433 45.0844 62.2817 45.4338 62.6159 45.8735C62.95 46.3132 63.1693 46.8292 63.2541 47.3748C62.564 47.2624 61.8566 47.4057 61.2647 47.7778C60.9198 47.98 60.641 48.278 60.4622 48.6356C60.2834 48.9932 60.2122 49.3951 60.2574 49.7923C60.2531 49.8905 60.2702 49.9883 60.3073 50.0792C60.3445 50.1701 60.4009 50.2519 60.4727 50.3189C60.5445 50.3859 60.63 50.4365 60.7232 50.4674C60.8165 50.4982 60.9153 50.5085 61.0128 50.4974Z" fill="#F18380"/>
    <path d="M96.1677 61.7293C93.7367 61.6355 91.4026 60.7514 89.5195 59.2111" stroke="#73102A" stroke-width="0.5" stroke-miterlimit="10" stroke-linecap="round"/>
    <path d="M96.2534 57.2724C92.7279 56.114 88.6987 54.7542 87.3137 56.3911C86.2309 57.4991 87.6914 62.7118 93.1056 63.6184C98.5198 64.5249 100.459 60.798 100.182 59.3626C100.006 58.4812 99.0235 58.2042 96.2534 57.2724Z" fill="#73102A"/>
    <path d="M87.4396 56.316H87.3137C86.2309 57.4241 87.6914 62.6368 93.1056 63.5434C94.2819 63.8164 95.5051 63.8164 96.6815 63.5434C95.7695 61.7316 94.468 60.144 92.8701 58.8945C91.2723 57.645 89.4178 56.7644 87.4396 56.316Z" fill="#D65155"/>
    <path d="M88.6982 55.7613C90.1248 57.3117 91.9364 58.4569 93.9488 59.0805C95.9613 59.7042 98.1029 59.784 100.156 59.312C99.9547 58.4558 98.9474 58.1788 96.2529 57.2723C93.8615 56.2671 91.2923 55.7532 88.6982 55.7613Z" fill="white"/>
    <g filter="url(#filter0_d_110_34)">
        <rect x="63.8569" y="128.543" width="45.5256" height="64.8739" rx="1" transform="rotate(-6.55484 63.8569 128.543)" fill="#EFEFEF"/>
    </g>
    <path d="M83.0309 154.832C86.257 153.469 89.1741 151.449 91.5969 148.901C93.0964 147.327 94.7972 145.961 96.6533 144.839C97.7421 144.159 98.6817 143.26 99.4132 142.201C100.379 140.558 101.179 138.823 101.8 137.023C102.03 135.472 102.558 133.978 103.353 132.624C104.109 131.931 106.778 132.301 108.163 134.994C108.641 136.194 108.857 137.485 108.798 138.781C108.739 140.078 108.405 141.35 107.819 142.513C107.13 143.907 106.59 145.37 106.209 146.877L106.46 147.027C108.571 145.907 110.827 145.094 113.159 144.614C114.005 144.425 114.886 144.527 115.66 144.904C116.435 145.281 117.057 145.911 117.428 146.692C117.798 147.474 117.895 148.361 117.702 149.211C117.51 150.062 117.039 150.825 116.366 151.379C120.005 151.797 119.592 157.41 116.468 158.152C117.137 158.433 117.702 158.915 118.086 159.533C118.47 160.15 118.655 160.874 118.616 161.606C118.576 162.338 118.315 163.043 117.866 163.625C117.418 164.208 116.804 164.639 116.108 164.862C118.327 166.908 116.705 170.28 112.676 170.295C109.402 170.628 100.647 171.998 97.601 172.654C94.5549 173.31 88.4322 171.859 86.4654 172.468C83.5378 173.541 80.1374 173.558 77.5438 165.855C74.9501 158.151 80.0182 155.828 83.0309 154.832Z" fill="#FBBEAA"/>
    <path d="M88.7947 175.5L29.8232 199.241C22.2871 203.031 10.0432 201.087 6.35214 192.273C5.6763 190.629 5.34134 188.866 5.36757 187.089C5.3938 185.312 5.78064 183.559 6.50471 181.936C7.22877 180.313 8.27494 178.854 9.57974 177.648C10.8845 176.442 12.4208 175.513 14.0953 174.918L83.7906 149.711L88.7947 175.5Z" fill="#002776"/>
    <defs>
        <filter id="filter0_d_110_34" x="63.9644" y="123.454" width="54.4185" height="69.4316" filterUnits="userSpaceOnUse" color-interpolation-filters="sRGB">
            <feFlood flood-opacity="0" result="BackgroundImageFix"/>
            <feColorMatrix in="SourceAlpha" type="matrix" values="0 0 0 0 0 0 0 0 0 0 0 0 0 0 0 0 0 0 127 0" result="hardAlpha"/>
            <feOffset dx="2"/>
            <feComposite in2="hardAlpha" operator="out"/>
            <feColorMatrix type="matrix" values="0 0 0 0 0.603922 0 0 0 0 0.6 0 0 0 0 0.631373 0 0 0 1 0"/>
            <feBlend mode="normal" in2="BackgroundImageFix" result="effect1_dropShadow_110_34"/>
            <feBlend mode="normal" in="SourceGraphic" in2="effect1_dropShadow_110_34" result="shape"/>
        </filter>
    </defs>
</svg>
