<svg width="288" height="549" viewBox="0 0 288 549" fill="none" xmlns="http://www.w3.org/2000/svg">
<g clip-path="url(#clip0_21_287)">
<path d="M161.393 64.5675H131.126V99.5H161.393V64.5675Z" fill="#FBBEAA"/>
<path d="M131.201 64.5675H161.368V84.0567C160.05 84.2173 158.723 84.2997 157.396 84.3034C146.988 84.3034 135.349 81.5157 131.101 71.7711L131.201 64.5675Z" fill="#F18380"/>
<path d="M177.03 38.64C176.778 48.7299 177.03 56.6983 175.169 64.3953C173.309 72.0923 167.628 78.3831 155.058 78.3831C142.489 78.3831 128.16 74.3619 127.155 58.9433C125.093 56.7477 121.75 48.9273 121.624 40.1695C121.498 31.4117 122.202 12.8847 142.539 10.0476C162.877 7.21062 177.583 14.5376 177.03 38.64Z" fill="#FBBEAA"/>
<path d="M166.396 46.5831C166.396 47.9399 167.226 49.0501 168.256 49.0501C169.287 49.0501 170.117 47.9399 170.117 46.5831C170.117 45.2262 169.287 44.1161 168.256 44.1161C167.226 44.1161 166.396 45.1276 166.396 46.5831Z" fill="#403D4F"/>
<path d="M143.771 46.5831C143.771 47.9399 144.6 49.0501 145.631 49.0501C146.662 49.0501 147.491 47.9399 147.491 46.5831C147.491 45.2262 146.662 44.1161 145.631 44.1161C144.6 44.1161 143.771 45.1276 143.771 46.5831Z" fill="#403D4F"/>
<path d="M148.321 41.4519C148.145 41.6739 146.813 41.4519 145.807 41.4519C144.802 41.4519 142.866 41.4519 142.866 41.2299C142.866 41.0078 143.821 39.4783 146.335 39.7497C148.145 39.947 148.799 41.0572 148.321 41.4519Z" fill="#403D4F"/>
<path d="M165.969 41.452C166.12 41.674 167.251 41.452 168.131 41.452C169.011 41.452 170.645 41.452 170.645 41.2299C170.419 40.6708 169.993 40.2118 169.447 39.9392C168.901 39.6666 168.272 39.5993 167.679 39.7498C166.12 39.9471 165.693 41.0573 165.969 41.452Z" fill="#403D4F"/>
<path d="M158.552 56.7968C160.312 56.7968 161.72 55.662 161.77 54.8478L161.192 47.891C161.173 47.7186 161.086 47.5603 160.95 47.4497C160.814 47.3391 160.639 47.285 160.463 47.2989C160.377 47.3051 160.293 47.328 160.216 47.3661C160.139 47.4042 160.071 47.4569 160.015 47.5211C159.959 47.5853 159.916 47.6598 159.89 47.7402C159.863 47.8206 159.853 47.9054 159.86 47.9896L160.413 54.6998C160.159 54.9702 159.846 55.1814 159.498 55.318C159.15 55.4546 158.776 55.5131 158.402 55.4893C158.314 55.4826 158.225 55.4934 158.142 55.521C158.058 55.5487 157.981 55.5927 157.916 55.6503C157.85 55.7079 157.797 55.778 157.759 55.8563C157.722 55.9346 157.701 56.0196 157.698 56.106C157.697 56.281 157.764 56.4496 157.886 56.5778C158.007 56.706 158.173 56.7843 158.351 56.7968H158.552Z" fill="#F18380"/>
<path d="M131.307 52.3067C128.55 51.9811 126.779 49.8397 126.279 47.3727C125.779 44.9057 124.211 46.1392 121.251 46.1392C118.292 46.1392 116.779 40.4282 115.848 36.0838C114.637 30.4333 116.44 23.8185 118.216 21.4823C113.48 17.3939 115.848 3.37654 117.032 8.04898C117.979 11.7869 121.373 13.5002 122.951 13.8895C127.687 -3.39857 146.234 -0.322504 154.916 3.37654C162.019 0.573055 168.136 4.54466 170.306 6.8809C180.961 3.37655 185.697 8.04901 188.065 10.3852C190.432 12.7215 193.392 26.1548 183.329 31.9954C175.279 36.6679 163.4 32.7741 158.468 30.2432C152.785 34.9157 145.05 33.3582 141.893 31.9954C141.42 34.7989 135.991 38.8094 133.821 41.3403C131.65 43.8712 132.564 52.4551 131.307 52.3067Z" fill="#F3E8AE"/>
<path d="M127.708 51.2705C127.582 48.4581 127.13 44.3136 123.057 44.2149C118.985 44.1162 118.457 47.1259 118.583 51.8625C118.708 56.5991 123.61 60.6203 127.909 58.9921L127.708 51.2705Z" fill="#FBBEAA"/>
<path d="M121.725 54.6751C121.901 54.645 122.058 54.5477 122.162 54.4045C122.265 54.2612 122.307 54.0837 122.278 53.9104C122.278 53.7711 122.318 53.6348 122.394 53.517C122.469 53.3991 122.577 53.3046 122.705 53.2443C122.962 53.0757 123.264 52.9856 123.572 52.9856C123.881 52.9856 124.183 53.0757 124.44 53.2443C124.551 53.3048 124.677 53.3365 124.804 53.3365C124.932 53.3365 125.057 53.3048 125.169 53.2443C125.271 53.1779 125.353 53.0854 125.406 52.9768C125.459 52.8682 125.482 52.7475 125.47 52.6275C125.118 48.6557 122.529 47.9156 122.429 47.8909C122.343 47.8649 122.252 47.8566 122.163 47.8664C122.074 47.8762 121.988 47.904 121.91 47.948C121.832 47.992 121.764 48.0512 121.711 48.1221C121.657 48.1929 121.619 48.2738 121.599 48.3597C121.553 48.5232 121.574 48.6982 121.659 48.8462C121.744 48.9941 121.885 49.1031 122.051 49.1491C122.554 49.3722 122.991 49.7146 123.325 50.1453C123.658 50.576 123.877 51.0815 123.962 51.6161C123.273 51.5059 122.567 51.6463 121.976 52.0108C121.632 52.2089 121.353 52.5009 121.175 52.8512C120.996 53.2015 120.925 53.5952 120.97 53.9844C120.966 54.0805 120.983 54.1764 121.02 54.2654C121.057 54.3545 121.114 54.4345 121.185 54.5002C121.257 54.5658 121.342 54.6155 121.436 54.6457C121.529 54.6759 121.627 54.6859 121.725 54.6751Z" fill="#F18380"/>
<path d="M156.819 65.6776C154.392 65.5857 152.062 64.7195 150.182 63.2106" stroke="#73102A" stroke-width="0.5" stroke-miterlimit="10" stroke-linecap="round"/>
</g>
<path d="M246.064 102.479C246.188 99.7504 245.458 97.0512 243.974 94.758C241.69 92.1095 239.979 91.4583 238.948 88.1161C238.155 85.0137 236.889 82.052 235.194 79.3355C233.983 77.6702 232.166 76.3078 232.166 75.0361C232.166 73.7644 234.588 71.3119 238.04 72.0083C239.518 72.4689 240.877 73.2506 242.018 74.2974C243.159 75.3443 244.055 76.6305 244.641 78.0639C244.971 77.1905 245.165 76.2714 245.216 75.3389L245.973 54.3371C245.984 53.8559 246.092 53.3819 246.29 52.9431C246.487 52.5043 246.771 52.1096 247.124 51.7822C247.477 51.4548 247.891 51.2014 248.344 51.037C248.796 50.8725 249.277 50.8004 249.757 50.8248C250.523 50.8575 251.259 51.1291 251.861 51.6016C252.167 51.8414 257.289 58.0523 262.287 64.2086C267.139 70.184 271.876 76.108 271.981 76.4702C271.01 85.2955 269.184 94.0057 266.531 102.479C266.499 103.894 266.172 105.286 265.569 106.566C264.967 107.847 264.103 108.987 263.034 109.914C261.965 110.841 260.713 111.533 259.36 111.948C258.007 112.362 256.582 112.488 255.177 112.319C253.906 112.362 252.64 112.13 251.466 111.64C250.292 111.151 249.237 110.414 248.373 109.481C247.508 108.547 246.855 107.439 246.456 106.231C246.058 105.023 245.924 103.743 246.064 102.479Z" fill="#FBBEAA"/>
<path d="M250.943 45.6474L229.879 66.3104C229.655 65.9927 229.432 65.6582 229.209 65.3405C228.539 64.3705 227.861 63.3922 227.192 62.4222C226.943 62.0626 226.703 61.7114 226.454 61.3519C225.449 59.9053 225.645 57.9466 226.895 56.7171L241.41 42.4751C242.66 41.2456 244.623 41.0952 246.052 42.1234C246.401 42.3805 246.749 42.6208 247.098 42.8779C248.06 43.5661 249.021 44.2542 249.982 44.9424C250.297 45.1831 250.62 45.4153 250.943 45.6474Z" fill="#E2874A"/>
<g opacity="0.53">
<path d="M249.982 44.9577L229.201 65.3305C228.531 64.3605 227.853 63.3822 227.183 62.4122L247.09 42.8848C248.06 43.5813 249.021 44.2695 249.982 44.9577Z" fill="#D46424"/>
</g>
<path d="M254.652 48.4037C255.422 49.3218 256.2 50.2314 256.979 51.1579C258.074 52.4432 259.152 53.7286 260.239 55.0223C264.431 59.98 268.607 64.9379 272.799 69.8956C275.049 72.558 277.299 75.2205 279.549 77.883C280.987 79.5856 280.866 82.0999 279.282 83.6539L267.308 95.3943C265.725 96.9483 263.205 97.0212 261.526 95.5492C258.909 93.2453 256.284 90.95 253.667 88.6462C248.791 84.3545 243.916 80.0798 239.04 75.7882C237.77 74.6822 236.5 73.5593 235.239 72.4448C234.344 71.6546 233.432 70.8647 232.528 70.0662C231.361 69.0432 230.895 67.5227 231.156 66.1113C231.298 65.2832 231.71 64.4855 232.351 63.8453L248.408 48.0919C249.067 47.4514 249.863 47.0623 250.705 46.934C252.144 46.7225 253.651 47.2101 254.652 48.4037Z" fill="#F5F5F5"/>
<path d="M260.24 55.0204C264.432 59.9781 268.608 64.936 272.8 69.8936L253.676 88.6526C248.801 84.3609 243.925 80.0862 239.042 75.8031L260.24 55.0204Z" fill="#E2874A"/>
<g opacity="0.52">
<path d="M250.596 78.4096C248.091 76.214 245.602 74.0182 243.104 71.831L239.063 75.8013C243.939 80.0929 248.814 84.3676 253.698 88.6507L272.821 69.8918C272.146 69.0989 271.487 68.3059 270.811 67.5131L259.953 78.1605C257.378 80.6795 253.298 80.7798 250.596 78.4096Z" fill="#E2874A"/>
</g>
<path d="M254.682 47.9632L232.117 70.0949C230.926 71.2647 229.003 71.2544 227.833 70.0459L227.722 69.9377C226.552 68.7461 226.571 66.8318 227.771 65.6535L250.336 43.5218C251.528 42.3521 253.442 42.3709 254.62 43.5708L254.731 43.679C255.893 44.8791 255.874 46.7935 254.682 47.9632Z" fill="#E2874A"/>
<g opacity="0.53">
<path d="M253.403 42.8352C253.821 43.9432 253.575 45.2364 252.675 46.1074L230.177 68.1708C229.327 69.0075 228.116 69.2416 227.058 68.8919C227.206 69.2864 227.429 69.6546 227.745 69.9628L227.788 70.0044C228.975 71.2127 230.931 71.2394 232.139 70.0526L254.638 47.9892C255.846 46.8024 255.873 44.8457 254.686 43.6375L254.643 43.5959C254.285 43.2461 253.86 42.9814 253.403 42.8352Z" fill="#D46424"/>
</g>
<path d="M255.193 71.7177C257.252 71.1445 259.05 70.6504 261.072 73.2229C259.842 74.7557 257.356 75.5786 254.695 75.1305C251.29 74.5564 248.84 72.1325 249.088 69.6419C250.124 70.9532 251.761 72.451 253.68 72.0903C254.184 71.9998 254.705 71.8586 255.193 71.7177Z" fill="#5B2500"/>
<path d="M256.251 65.8527C259.757 66.4424 262.259 69.0006 261.827 71.5609C261.819 71.6369 261.795 71.7131 261.779 71.7807C259.292 69.0537 256.829 69.733 254.796 70.2975C254.308 70.4383 253.854 70.5619 253.4 70.6349C251.97 70.9053 250.507 69.2114 249.699 67.9732C250.868 66.2978 253.454 65.3893 256.251 65.8527Z" fill="#5B2500"/>
<path d="M255.329 60.1984C253.61 57.4548 257.102 53.8367 259.317 52.423C259.317 52.423 260.651 50.8802 263.414 53.6439C266.466 56.6959 264.635 58.7847 264.635 58.7847C262.641 60.9052 257.988 64.4395 255.329 60.1984Z" fill="#FBBEAA"/>
<path d="M260.213 65.5107C258.493 62.7671 261.985 59.1491 264.201 57.7354C264.201 57.7354 265.534 56.1926 268.297 58.9563C271.349 62.0082 269.518 64.097 269.518 64.097C267.524 66.2176 262.871 69.7519 260.213 65.5107Z" fill="#FBBEAA"/>
<path d="M265.095 70.3938C263.376 67.6502 266.868 64.0321 269.083 62.6184C269.083 62.6184 270.417 61.0756 273.18 63.8393C276.232 66.8913 274.401 68.9801 274.401 68.9801C272.407 71.1007 267.754 74.6349 265.095 70.3938Z" fill="#FBBEAA"/>
<path d="M271.12 74.7403C269.695 72.4408 272.589 69.4083 274.425 68.2234C274.425 68.2234 275.53 66.9303 277.821 69.2467C280.35 71.8047 278.833 73.5554 278.833 73.5554C277.18 75.3328 273.324 78.295 271.12 74.7403Z" fill="#FBBEAA"/>
<g opacity="0.3" filter="url(#filter0_f_21_287)">
<ellipse cx="106.5" cy="14.5" rx="106.5" ry="14.5" transform="matrix(1 0 0 -1 17.2715 531.436)" fill="#CBCBCB"/>
</g>
<path d="M101 103.215C95.2716 110.581 67.6719 187.987 67.6719 187.987C98.3593 178.167 83.1073 174.403 99.7973 177.211C99.7973 177.211 125.873 121.873 126.608 117.831C127.375 114.645 127.031 111.293 125.632 108.329C124.234 105.366 121.865 102.969 118.919 101.535C110.705 97.3361 106.728 95.8502 101 103.215Z" fill="#002776"/>
<path d="M180.289 100.562L240.36 141.077C240.107 143.149 244.976 100.562 244.976 100.562L267.21 102.637C267.21 102.637 265.911 145.996 262.639 168.895C261.34 177.983 253.776 181.429 244.807 179.472C240.379 178.506 236.21 176.689 232.5 174.085C216.559 162.896 171.836 131.38 168.18 127.415C161.872 120.575 161.871 115.451 165.497 109.819C169.122 104.188 176.881 99.7162 180.289 100.562Z" fill="#001A4B"/>
<path d="M129.272 331.111C129.192 337.603 131.694 343.861 136.227 348.508C140.761 353.155 146.955 355.811 153.447 355.891C159.939 355.971 166.196 353.469 170.844 348.935C175.491 344.402 178.146 338.207 178.226 331.716C178.226 331.716 181.324 241.362 182.382 223.054C183.439 204.746 178.655 190.065 158.055 187.95C136.701 185.759 125.318 202.455 125.318 217.967C125.318 233.479 129.272 331.111 129.272 331.111Z" fill="#7C7C7C"/>
<path d="M89.1062 329.374C88.6865 332.583 88.9071 335.842 89.7554 338.965C90.6036 342.088 92.0626 345.012 94.048 347.567C96.0334 350.122 98.5057 352.258 101.322 353.852C104.138 355.446 107.243 356.465 110.455 356.851C113.668 357.237 116.926 356.983 120.039 356.102C123.153 355.221 126.061 353.732 128.596 351.72C131.13 349.708 133.24 347.213 134.804 344.38C136.369 341.548 137.355 338.433 137.708 335.216C137.708 335.216 150.45 245.718 153.472 227.637C156.494 209.556 153.296 194.422 133.049 190.116C112.047 185.658 98.9273 201.045 97.3408 216.456C95.7543 231.868 89.1062 329.374 89.1062 329.374Z" fill="#7C7C7C"/>
<path d="M169.463 437.582C169.463 437.582 168.254 488.929 167.952 496.61C167.65 504.29 162.79 506.38 154.958 507.06C147.126 507.74 143.828 501.52 142.72 496.584C141.612 491.649 134.913 441.309 134.913 441.309L169.463 437.582Z" fill="#FBBEAA"/>
<path d="M168.582 473.391L139.698 476.489C137.456 460.599 134.913 441.233 134.913 441.233L169.463 437.506C169.463 437.506 169.01 456.746 168.582 473.391Z" fill="#F18380"/>
<path d="M129.272 331.111C129.312 327.897 129.984 324.722 131.251 321.767C132.518 318.813 134.354 316.137 136.655 313.892C138.956 311.647 141.676 309.877 144.661 308.684C147.646 307.491 150.837 306.897 154.051 306.936C157.266 306.976 160.441 307.649 163.395 308.915C166.35 310.182 169.026 312.018 171.271 314.319C173.516 316.62 175.285 319.341 176.479 322.326C177.672 325.311 178.266 328.501 178.226 331.716L173.19 474.833L133.679 479.089L129.272 331.111Z" fill="#7C7C7C"/>
<path d="M117.763 439.547C117.763 439.547 111.065 490.465 109.957 498.045C108.849 505.625 103.787 507.237 95.9051 507.06C88.023 506.884 85.4292 500.362 84.85 495.351C84.2708 490.339 83.0117 439.547 83.0117 439.547H117.763Z" fill="#FBBEAA"/>
<path d="M112.928 475.054H83.8679C83.3642 459.038 82.8857 439.547 82.8857 439.547H117.763C117.763 439.547 115.245 458.534 112.928 475.054Z" fill="#F18380"/>
<path d="M89.1054 329.374C89.9417 322.981 93.2667 317.176 98.358 313.22C103.449 309.264 109.896 307.477 116.297 308.247C122.699 309.016 128.538 312.28 132.547 317.33C136.555 322.38 138.41 328.807 137.707 335.216L115.799 479.87H76.0615L89.1054 329.374Z" fill="#7C7C7C"/>
<path d="M137.683 335.216L115.094 478.611" stroke="#565656" stroke-width="0.75" stroke-miterlimit="10" stroke-linecap="round"/>
<path d="M137.708 335.216C137.708 335.216 150.45 245.718 153.472 227.638" stroke="#565656" stroke-width="0.75" stroke-miterlimit="10" stroke-linecap="round"/>
<path d="M98.5496 481.022C101.406 480.817 104.238 481.668 106.508 483.413C108.778 485.159 110.328 487.677 110.864 490.49L124.009 503.963V512.348H81.8789C81.8789 512.348 83.9942 497.239 84.5986 493.839C85.203 490.44 87.2427 481.022 98.5496 481.022Z" fill="#FBBEAA"/>
<path d="M110.838 490.389C111.317 489.735 111.997 489.231 112.475 489.533C112.953 489.835 125.671 499.908 126.275 500.412C126.647 500.762 126.929 501.196 127.095 501.679C127.262 502.161 127.309 502.677 127.232 503.182V513.985H80.9468C80.9468 513.985 82.7599 498.02 82.8858 497.138C83.0117 496.257 83.8931 495.099 84.3967 495.124C87.5736 496.097 90.8706 496.623 94.1927 496.685C98.6078 496.919 103.012 496.054 107.01 494.167C108.493 493.136 109.788 491.858 110.838 490.389Z" fill="black"/>
<path d="M119.627 504.919C117.386 503.257 109.328 496.962 106.306 494.595L107.011 494.242C107.106 494.201 107.192 494.141 107.263 494.066C110.486 496.584 118.066 502.527 120.231 504.139C122.062 505.541 123.316 507.566 123.757 509.83L122.775 509.981C122.359 507.974 121.244 506.18 119.627 504.919Z" fill="white"/>
<path d="M82.2058 502.981C85.4677 503.014 88.6243 504.14 91.1707 506.179C93.4722 508.218 95.0312 510.964 95.6027 513.985H94.2429C93.6867 511.367 92.3107 508.994 90.3145 507.211C87.9709 505.334 85.0572 504.313 82.0547 504.315L82.2058 502.981Z" fill="white"/>
<path d="M134.711 513.96H80.947C80.5715 513.96 80.2671 514.265 80.2671 514.64V519.853C80.2671 520.228 80.5715 520.533 80.947 520.533H134.711C135.087 520.533 135.391 520.228 135.391 519.853V514.64C135.391 514.265 135.087 513.96 134.711 513.96Z" fill="white"/>
<path d="M126.149 500.311C126.627 500.11 128.969 500.79 132.016 503.786C133.285 505.098 134.198 506.711 134.67 508.473C135.141 510.236 135.156 512.09 134.711 513.859H119.425C120.281 504.189 125.671 500.513 126.149 500.311Z" fill="white"/>
<path d="M120.282 500.463C120.093 500.694 120.003 500.99 120.031 501.287C120.06 501.584 120.204 501.858 120.433 502.049C120.545 502.142 120.675 502.211 120.814 502.254C120.954 502.297 121.1 502.311 121.245 502.297C121.39 502.283 121.531 502.241 121.659 502.172C121.788 502.104 121.902 502.011 121.994 501.898L124.513 498.851C124.701 498.62 124.791 498.324 124.763 498.027C124.735 497.73 124.59 497.456 124.361 497.264C124.251 497.168 124.121 497.096 123.982 497.051C123.842 497.007 123.694 496.991 123.548 497.005C123.402 497.019 123.261 497.063 123.132 497.134C123.004 497.204 122.891 497.3 122.8 497.416L120.282 500.463Z" fill="white"/>
<path d="M117.285 498.17C117.097 498.402 117.007 498.698 117.035 498.995C117.063 499.292 117.207 499.566 117.436 499.757C117.547 499.853 117.677 499.925 117.816 499.97C117.956 500.015 118.103 500.03 118.249 500.016C118.395 500.002 118.537 499.958 118.666 499.888C118.794 499.817 118.907 499.721 118.998 499.606L121.516 496.559C121.699 496.325 121.785 496.031 121.757 495.735C121.729 495.44 121.588 495.167 121.365 494.972C121.254 494.876 121.125 494.804 120.985 494.759C120.845 494.715 120.698 494.699 120.552 494.713C120.406 494.727 120.264 494.771 120.136 494.841C120.007 494.912 119.894 495.008 119.804 495.123L117.285 498.17Z" fill="white"/>
<path d="M114.389 495.905C114.199 496.128 114.105 496.418 114.129 496.711C114.153 497.004 114.292 497.275 114.515 497.466C114.746 497.655 115.042 497.745 115.339 497.716C115.636 497.688 115.91 497.544 116.102 497.315L118.62 494.268C118.726 494.164 118.81 494.041 118.867 493.905C118.925 493.769 118.954 493.622 118.954 493.474C118.954 493.327 118.925 493.18 118.867 493.044C118.81 492.908 118.726 492.784 118.62 492.681C118.386 492.499 118.092 492.412 117.797 492.441C117.501 492.469 117.228 492.609 117.033 492.832L114.389 495.905Z" fill="white"/>
<path d="M111.468 493.613C111.376 493.725 111.306 493.855 111.263 493.994C111.221 494.134 111.206 494.28 111.22 494.425C111.234 494.57 111.277 494.711 111.345 494.839C111.414 494.968 111.507 495.082 111.619 495.174C111.831 495.382 112.116 495.498 112.413 495.498C112.709 495.498 112.994 495.382 113.206 495.174L115.724 492.102C115.913 491.871 116.003 491.575 115.975 491.278C115.946 490.981 115.802 490.707 115.573 490.516C115.461 490.423 115.331 490.353 115.192 490.311C115.052 490.268 114.906 490.253 114.761 490.267C114.616 490.281 114.475 490.324 114.347 490.392C114.218 490.461 114.104 490.554 114.012 490.667L111.468 493.613Z" fill="white"/>
<path d="M157.728 481.022C160.584 480.817 163.416 481.668 165.686 483.413C167.956 485.159 169.506 487.677 170.042 490.49L183.162 503.963V512.348H141.057C141.057 512.348 143.147 497.239 143.777 493.839C144.406 490.44 146.421 481.022 157.728 481.022Z" fill="#FBBEAA"/>
<path d="M170.017 490.389C170.495 489.735 171.15 489.231 171.654 489.533C172.157 489.835 184.849 499.908 185.428 500.412C186.008 500.916 186.411 501.545 186.411 503.182V513.985H140.125C140.125 513.985 141.939 498.02 142.064 497.138C142.19 496.257 143.072 495.099 143.575 495.124C146.752 496.097 150.049 496.623 153.371 496.685C157.779 496.923 162.176 496.058 166.164 494.167C167.658 493.141 168.962 491.863 170.017 490.389Z" fill="black"/>
<path d="M178.805 504.919C176.564 503.257 168.506 496.962 165.484 494.595L166.164 494.242C166.267 494.202 166.361 494.142 166.441 494.066C169.664 496.584 177.244 502.527 179.41 504.139C181.24 505.541 182.494 507.566 182.935 509.83L181.953 509.981C181.525 507.979 180.412 506.188 178.805 504.919Z" fill="white"/>
<path d="M141.384 502.981C144.646 503.014 147.802 504.14 150.349 506.179C152.65 508.218 154.209 510.964 154.781 513.985H153.421C152.858 511.364 151.473 508.991 149.468 507.211C147.136 505.331 144.229 504.308 141.233 504.315L141.384 502.981Z" fill="white"/>
<path d="M193.889 513.96H140.125C139.75 513.96 139.445 514.265 139.445 514.64V519.853C139.445 520.228 139.75 520.533 140.125 520.533H193.889C194.265 520.533 194.569 520.228 194.569 519.853V514.64C194.569 514.265 194.265 513.96 193.889 513.96Z" fill="white"/>
<path d="M185.328 500.311C185.806 500.11 188.148 500.79 191.195 503.786C192.464 505.098 193.377 506.711 193.849 508.473C194.32 510.236 194.334 512.09 193.89 513.859H178.604C179.46 504.189 184.849 500.513 185.328 500.311Z" fill="white"/>
<path d="M179.359 500.463C179.17 500.694 179.08 500.99 179.109 501.287C179.137 501.584 179.281 501.858 179.51 502.049C179.623 502.142 179.752 502.211 179.891 502.254C180.031 502.297 180.177 502.311 180.322 502.297C180.467 502.283 180.608 502.241 180.737 502.172C180.865 502.104 180.979 502.011 181.072 501.898L183.59 498.851C183.772 498.617 183.858 498.323 183.83 498.028C183.802 497.732 183.662 497.459 183.439 497.264C183.328 497.168 183.198 497.096 183.059 497.051C182.919 497.007 182.772 496.991 182.626 497.005C182.48 497.019 182.338 497.063 182.209 497.134C182.081 497.204 181.968 497.3 181.877 497.416L179.359 500.463Z" fill="white"/>
<path d="M176.464 498.171C176.275 498.402 176.185 498.698 176.213 498.995C176.241 499.292 176.386 499.566 176.615 499.757C176.726 499.853 176.855 499.926 176.995 499.97C177.134 500.015 177.282 500.03 177.428 500.016C177.574 500.002 177.715 499.959 177.844 499.888C177.973 499.818 178.086 499.722 178.176 499.606L180.694 496.559C180.877 496.326 180.963 496.031 180.935 495.736C180.907 495.441 180.767 495.167 180.543 494.973C180.312 494.784 180.016 494.694 179.719 494.722C179.422 494.75 179.148 494.895 178.957 495.124L176.464 498.171Z" fill="white"/>
<path d="M173.567 495.904C173.462 496.005 173.379 496.127 173.321 496.261C173.264 496.395 173.235 496.539 173.235 496.685C173.235 496.831 173.264 496.975 173.321 497.109C173.379 497.243 173.462 497.365 173.567 497.466C173.798 497.654 174.095 497.744 174.392 497.716C174.689 497.688 174.963 497.543 175.154 497.314L177.672 494.267C177.861 494.036 177.951 493.74 177.923 493.443C177.894 493.146 177.75 492.872 177.521 492.681C177.409 492.588 177.279 492.519 177.14 492.476C177 492.433 176.854 492.419 176.709 492.433C176.564 492.447 176.423 492.489 176.295 492.558C176.166 492.626 176.052 492.719 175.96 492.832L173.567 495.904Z" fill="white"/>
<path d="M170.647 493.613C170.554 493.725 170.485 493.855 170.442 493.994C170.399 494.134 170.385 494.28 170.399 494.425C170.413 494.57 170.455 494.711 170.524 494.839C170.592 494.968 170.686 495.082 170.798 495.174C171.01 495.382 171.295 495.498 171.591 495.498C171.888 495.498 172.173 495.382 172.385 495.174L174.903 492.102C175.092 491.871 175.182 491.575 175.153 491.278C175.125 490.981 174.981 490.707 174.752 490.516C174.639 490.423 174.51 490.353 174.37 490.311C174.231 490.268 174.085 490.253 173.94 490.267C173.795 490.281 173.654 490.324 173.525 490.392C173.397 490.461 173.283 490.554 173.19 490.667L170.647 493.613Z" fill="white"/>
<path d="M181.641 203.469C181.641 203.469 181.641 229.583 181.641 231.018C181.641 232.454 169.05 244.768 152.329 244.768C126.617 244.768 95.8446 235.375 96.2979 229.256C96.6001 225.226 99.1328 203.469 99.1328 203.469H181.641Z" fill="#7C7C7C"/>
<path d="M162.941 93.3216C148.839 105.409 134.821 98.3581 130.204 92.0625L110.058 100.876L115.095 194.051L181.828 196.569L179.309 107.172L162.941 93.3216Z" fill="white"/>
<path d="M181.723 101.355C179.028 99.5919 161.577 89.519 161.577 89.519V222.331C163.512 224.215 163.907 224.171 166.685 223.856L166.815 223.842C172.821 222.334 178.616 220.084 184.065 217.143C184.065 217.143 186.382 120.544 186.961 113.19C187.54 105.837 184.418 103.117 181.723 101.355Z" fill="#002776"/>
<path d="M134.647 223.809C135.871 223.55 137.031 223.047 138.057 222.331L131.207 88.1592C131.207 88.1592 111.439 96.1923 106.176 98.5343C103.988 99.4571 102.112 100.99 100.773 102.951C99.433 104.911 98.6862 107.216 98.6213 109.589C98.294 114.021 97.8407 212.258 97.7652 213.114C97.6896 213.97 98.4199 214.449 99.2005 214.902C99.9812 215.355 124.66 222.557 130.93 223.842C132.159 224.08 133.423 224.069 134.647 223.809Z" fill="#002776"/>
<g filter="url(#filter1_d_21_287)">
<rect x="124.708" y="134.752" width="45.5256" height="64.8739" rx="1" transform="rotate(-6.55484 124.708 134.752)" fill="#EFEFEF"/>
</g>
<path d="M143.882 161.041C147.108 159.678 150.025 157.658 152.447 155.11C153.947 153.536 155.648 152.17 157.504 151.048C158.593 150.368 159.532 149.469 160.264 148.41C161.23 146.767 162.03 145.032 162.651 143.232C162.881 141.681 163.408 140.187 164.203 138.833C164.96 138.14 167.629 138.51 169.014 141.203C169.492 142.403 169.708 143.694 169.649 144.99C169.589 146.287 169.256 147.559 168.67 148.722C167.981 150.116 167.441 151.579 167.059 153.086L167.311 153.236C169.422 152.116 171.677 151.303 174.01 150.823C174.855 150.634 175.736 150.736 176.511 151.113C177.285 151.49 177.908 152.12 178.278 152.901C178.649 153.683 178.745 154.57 178.553 155.42C178.36 156.271 177.89 157.034 177.217 157.588C180.856 158.006 180.443 163.619 177.319 164.361C177.988 164.642 178.552 165.124 178.936 165.742C179.321 166.359 179.505 167.083 179.466 167.815C179.427 168.547 179.165 169.252 178.717 169.834C178.269 170.417 177.655 170.848 176.959 171.071C179.178 173.117 177.556 176.489 173.527 176.504C170.253 176.837 161.498 178.207 158.452 178.863C155.405 179.519 149.283 178.068 147.316 178.677C144.388 179.75 140.988 179.767 138.394 172.064C135.801 164.36 140.869 162.037 143.882 161.041Z" fill="#FBBEAA"/>
<path d="M149.645 181.708L90.6738 205.45C83.1377 209.24 70.8938 207.296 67.2027 198.482C66.5269 196.838 66.1919 195.075 66.2182 193.298C66.2444 191.521 66.6312 189.768 67.3553 188.145C68.0794 186.522 69.1255 185.063 70.4303 183.857C71.7351 182.651 73.2714 181.722 74.9459 181.127L144.641 155.92L149.645 181.708Z" fill="#002776"/>
<defs>
<filter id="filter0_f_21_287" x="0.271484" y="485.436" width="247" height="63" filterUnits="userSpaceOnUse" color-interpolation-filters="sRGB">
<feFlood flood-opacity="0" result="BackgroundImageFix"/>
<feBlend mode="normal" in="SourceGraphic" in2="BackgroundImageFix" result="shape"/>
<feGaussianBlur stdDeviation="8.5" result="effect1_foregroundBlur_21_287"/>
</filter>
<filter id="filter1_d_21_287" x="124.815" y="129.663" width="54.4187" height="69.4316" filterUnits="userSpaceOnUse" color-interpolation-filters="sRGB">
<feFlood flood-opacity="0" result="BackgroundImageFix"/>
<feColorMatrix in="SourceAlpha" type="matrix" values="0 0 0 0 0 0 0 0 0 0 0 0 0 0 0 0 0 0 127 0" result="hardAlpha"/>
<feOffset dx="2"/>
<feComposite in2="hardAlpha" operator="out"/>
<feColorMatrix type="matrix" values="0 0 0 0 0.603922 0 0 0 0 0.6 0 0 0 0 0.631373 0 0 0 1 0"/>
<feBlend mode="normal" in2="BackgroundImageFix" result="effect1_dropShadow_21_287"/>
<feBlend mode="normal" in="SourceGraphic" in2="effect1_dropShadow_21_287" result="shape"/>
</filter>
<clipPath id="clip0_21_287">
<rect width="75" height="99" fill="white" transform="translate(115.383 0.5)"/>
</clipPath>
</defs>
</svg>
