<svg width="196" height="530" viewBox="0 0 196 530" fill="none" xmlns="http://www.w3.org/2000/svg">
    <path d="M34.1311 226.493C34.682 219.556 42.12 192.96 50.109 177.808C50.109 177.808 67.5373 180.01 78.7605 180.046C90.4702 180.084 108.662 177.808 108.662 177.808C113.871 189.604 119.806 215.374 121.534 220.934C122.577 224.205 122.704 227.699 121.9 231.037C121.097 234.375 119.394 237.429 116.976 239.867C111.041 246.604 95.7389 254.317 92.2078 254.317C77.0155 252.147 62.1244 248.231 47.83 242.647C39.7659 239.266 33.6051 233.456 34.1311 226.493Z" fill="#93929C"/>
    <path d="M172.448 82.0403C172.552 79.7835 171.948 77.5509 170.72 75.6541C168.831 73.4635 167.416 70.9054 166.563 68.141C165.907 65.5749 164.86 63.1252 163.458 60.8782C162.456 59.5008 160.953 58.3739 160.953 57.322C160.953 56.2702 162.957 54.2416 165.812 54.8176C167.035 55.1986 168.158 55.8452 169.102 56.7111C170.046 57.577 170.787 58.6408 171.271 59.8264C171.545 59.104 171.705 58.3438 171.747 57.5725L172.373 42.2206C172.383 41.8226 172.472 41.4306 172.635 41.0676C172.799 40.7047 173.034 40.3782 173.325 40.1074C173.617 39.8366 173.96 39.627 174.334 39.491C174.709 39.355 175.106 39.2953 175.504 39.3155C176.137 39.3425 176.745 39.5672 177.244 39.958C177.743 40.3488 178.106 40.8861 178.284 41.4943V40.7931C178.38 40.0468 178.755 39.3646 179.333 38.8834C179.912 38.4022 180.651 38.1576 181.403 38.1988C182.154 38.24 182.862 38.564 183.384 39.1056C183.907 39.6471 184.205 40.3663 184.219 41.1187V43.2474C184.47 42.5911 184.948 42.0468 185.567 41.7136C186.185 41.3805 186.903 41.2808 187.589 41.4325C188.275 41.5843 188.884 41.9775 189.304 42.5404C189.724 43.1034 189.928 43.7987 189.879 44.4996V45.8519C190.148 45.3782 190.55 44.9933 191.035 44.7442C191.52 44.4952 192.067 44.3927 192.609 44.4495C193.351 44.5437 194.027 44.9231 194.495 45.5074C194.962 46.0918 195.184 46.835 195.113 47.5799L193.886 60.5276C193.082 67.8274 191.572 75.0319 189.378 82.0403C189.351 83.2105 189.08 84.3621 188.582 85.4212C188.084 86.4804 187.37 87.4236 186.485 88.1901C185.601 88.9567 184.565 89.5297 183.446 89.8723C182.327 90.2149 181.149 90.3196 179.987 90.1796C178.935 90.2146 177.888 90.0232 176.917 89.6181C175.946 89.213 175.073 88.6038 174.358 87.8318C173.643 87.0599 173.103 86.1432 172.773 85.1439C172.444 84.1446 172.333 83.0861 172.448 82.0403Z" fill="#FBBEAA"/>
    <path d="M88.0508 490.756C88.0508 488.345 89.0086 486.033 90.7134 484.328C92.4183 482.623 94.7307 481.665 97.1417 481.665C99.5528 481.665 101.865 482.623 103.57 484.328C105.275 486.033 106.233 488.345 106.233 490.756V510.516H88.0508V490.756Z" fill="#FBBEAA"/>
    <path d="M105.581 494.438C107.81 494.438 108.211 495.414 108.862 496.691C109.918 500.095 111.724 503.219 114.146 505.832C117.763 508.913 121.643 511.67 125.742 514.072V524.54H85.2708C85.2708 524.54 85.5463 516.276 85.7467 510.44C85.947 504.605 86.523 497.493 86.4729 496.741C86.4229 495.99 86.4729 494.438 87.8503 494.438H105.581Z" fill="#302D3B"/>
    <path d="M90.3046 511.016C90.2997 512.301 90.6765 513.559 91.3874 514.629C92.0982 515.7 93.111 516.535 94.2972 517.029C95.4834 517.523 96.7897 517.654 98.0503 517.404C99.3108 517.155 100.469 516.536 101.377 515.628C102.286 514.719 102.904 513.561 103.154 512.301C103.403 511.04 103.273 509.734 102.779 508.548C102.285 507.361 101.449 506.349 100.379 505.638C99.3084 504.927 98.051 504.55 96.766 504.555C95.0544 504.562 93.4147 505.244 92.2044 506.455C90.9941 507.665 90.3112 509.305 90.3046 511.016Z" fill="#93929C"/>
    <path d="M96.7652 507.209L95.2876 509.388L92.7582 510.114L94.361 512.193L94.2859 514.823L96.7652 513.921L99.2446 514.823L99.1444 512.193L100.772 510.114L98.2428 509.388L96.7652 507.209Z" fill="white"/>
    <path d="M125.466 513.896C125.466 513.896 131.201 516.927 133.355 518.404C134.352 519.08 135.162 519.997 135.709 521.07C136.257 522.142 136.524 523.336 136.485 524.54H120.758C120.758 524.54 121.083 516.852 125.466 513.896Z" fill="white"/>
    <path d="M85.2708 524.54V528.873C85.2708 529.599 85.922 530 87.0239 530H134.757C135.834 530 136.486 529.599 136.486 528.873V524.54H85.2708Z" fill="white"/>
    <path d="M120.757 510.966C120.896 510.753 121.112 510.602 121.36 510.546C121.608 510.49 121.868 510.533 122.085 510.665C122.193 510.732 122.286 510.819 122.36 510.922C122.434 511.025 122.486 511.142 122.514 511.266C122.542 511.389 122.545 511.517 122.523 511.642C122.501 511.767 122.454 511.886 122.385 511.993L120.707 514.697C120.626 514.837 120.509 514.953 120.368 515.033C120.227 515.112 120.068 515.152 119.906 515.148C119.72 515.145 119.539 515.093 119.38 514.998C119.272 514.931 119.178 514.844 119.105 514.741C119.031 514.638 118.978 514.521 118.95 514.397C118.922 514.274 118.919 514.146 118.942 514.021C118.964 513.896 119.011 513.777 119.079 513.671L120.757 510.966Z" fill="white"/>
    <path d="M117.803 508.887C117.885 508.792 117.985 508.714 118.098 508.657C118.21 508.6 118.333 508.566 118.458 508.557C118.584 508.548 118.71 508.563 118.83 508.603C118.949 508.642 119.06 508.705 119.155 508.787C119.25 508.869 119.329 508.969 119.385 509.082C119.442 509.194 119.476 509.317 119.485 509.442C119.495 509.568 119.479 509.694 119.44 509.814C119.4 509.933 119.338 510.044 119.255 510.139L117.302 512.443C117.212 512.549 117.101 512.635 116.976 512.695C116.851 512.755 116.714 512.789 116.576 512.794C116.394 512.791 116.217 512.737 116.065 512.638C115.912 512.54 115.79 512.401 115.712 512.237C115.634 512.074 115.603 511.891 115.623 511.711C115.643 511.531 115.713 511.359 115.824 511.216L117.803 508.887Z" fill="white"/>
    <path d="M115.023 506.559C115.223 506.43 115.462 506.379 115.696 506.414C115.931 506.448 116.144 506.567 116.298 506.748C116.451 506.929 116.533 507.159 116.529 507.396C116.525 507.633 116.435 507.861 116.276 508.036L114.047 509.965C113.872 510.113 113.65 510.193 113.421 510.19C113.283 510.195 113.145 510.168 113.02 510.112C112.894 510.055 112.782 509.971 112.694 509.864C112.602 509.778 112.528 509.673 112.478 509.557C112.427 509.44 112.401 509.315 112.401 509.188C112.401 509.062 112.427 508.936 112.478 508.82C112.528 508.704 112.602 508.599 112.694 508.512L115.023 506.559Z" fill="white"/>
    <path d="M110.139 505.407L112.644 503.854C112.864 503.724 113.126 503.685 113.374 503.746C113.622 503.807 113.836 503.963 113.971 504.18C114.039 504.288 114.084 504.408 114.104 504.534C114.125 504.66 114.12 504.788 114.089 504.912C114.059 505.036 114.004 505.152 113.928 505.255C113.851 505.357 113.755 505.443 113.645 505.507L111.141 507.06C110.993 507.158 110.818 507.21 110.64 507.21C110.477 507.206 110.318 507.16 110.177 507.077C110.037 506.993 109.92 506.875 109.839 506.734C109.706 506.517 109.664 506.257 109.72 506.009C109.776 505.762 109.926 505.545 110.139 505.407Z" fill="white"/>
    <path d="M108.035 502.176L110.84 500.999C111.079 500.9 111.348 500.899 111.588 500.998C111.827 501.096 112.018 501.286 112.117 501.525C112.166 501.642 112.191 501.767 112.191 501.893C112.191 502.02 112.166 502.145 112.117 502.262C112.068 502.378 111.996 502.484 111.906 502.572C111.816 502.661 111.709 502.731 111.591 502.777L108.786 503.955H108.411C108.195 503.943 107.989 503.86 107.825 503.718C107.661 503.577 107.549 503.385 107.506 503.173C107.463 502.961 107.492 502.741 107.587 502.547C107.683 502.353 107.841 502.196 108.035 502.101V502.176Z" fill="white"/>
    <path d="M106.283 498.57L109.388 497.793C109.634 497.734 109.893 497.774 110.109 497.905C110.325 498.037 110.48 498.249 110.54 498.495C110.6 498.74 110.56 499 110.428 499.216C110.297 499.432 110.085 499.587 109.839 499.647L106.759 500.448H106.533C106.318 500.446 106.108 500.374 105.937 500.243C105.765 500.112 105.641 499.929 105.582 499.722C105.528 499.476 105.571 499.22 105.701 499.005C105.832 498.791 106.04 498.635 106.283 498.57Z" fill="white"/>
    <path d="M74.7524 364.385C75.0279 352.264 83.1922 346.403 95.2884 346.704C107.385 347.004 116.1 353.341 115.824 365.437L106.233 491.733H88.0507L74.7524 364.385Z" fill="#FBBEAA"/>
    <path d="M73.1741 364.309C73.2416 361.431 73.8751 358.595 75.0387 355.962C76.2022 353.33 77.8729 350.952 79.9555 348.964C82.038 346.977 84.4915 345.42 87.1759 344.381C89.8604 343.342 92.7232 342.842 95.6009 342.909C98.4786 342.977 101.315 343.61 103.948 344.774C106.581 345.937 108.958 347.608 110.946 349.69C112.933 351.773 114.49 354.227 115.529 356.911C116.568 359.595 117.068 362.458 117.001 365.336L122.687 495.164H73.1751L73.1741 364.309Z" fill="#93929C"/>
    <path d="M11.416 490.756C11.416 488.345 12.3738 486.033 14.0787 484.328C15.7836 482.623 18.0959 481.665 20.5069 481.665C22.918 481.665 25.2303 482.623 26.9352 484.328C28.6401 486.033 29.5979 488.345 29.5979 490.756V510.516H11.416V490.756Z" fill="#FBBEAA"/>
    <path d="M28.9225 494.438C31.1764 494.438 31.5771 495.414 32.2032 496.691C33.2714 500.095 35.0852 503.218 37.5125 505.832C41.1244 508.919 45.005 511.676 49.1078 514.072V524.54H8.63696C8.63696 524.54 8.91245 516.276 9.1128 510.44C9.31315 504.605 9.86414 497.493 9.8391 496.741C9.81405 495.99 9.83908 494.438 11.1914 494.438H28.9225Z" fill="#302D3B"/>
    <path d="M13.646 511.016C13.641 512.3 14.0172 513.557 14.7269 514.627C15.4366 515.697 16.4479 516.532 17.6327 517.027C18.8175 517.521 20.1225 517.654 21.3823 517.406C22.6422 517.159 23.8003 516.543 24.71 515.637C25.6196 514.731 26.2399 513.575 26.4922 512.316C26.7445 511.057 26.6175 509.752 26.1273 508.565C25.6371 507.378 24.8058 506.364 23.7386 505.65C22.6714 504.936 21.4163 504.555 20.1324 504.555C18.4164 504.555 16.7704 505.235 15.5547 506.446C14.3389 507.657 13.6526 509.3 13.646 511.016Z" fill="#93929C"/>
    <path d="M20.1067 507.209L18.6291 509.388L16.0997 510.114L17.7275 512.193L17.6524 514.823L20.1067 513.921L22.5861 514.823L22.5109 512.193L24.1388 510.114L21.5843 509.388L20.1067 507.209Z" fill="white"/>
    <path d="M48.8066 513.896C48.8066 513.896 54.5666 516.927 56.6954 518.404C57.6976 519.075 58.5114 519.991 59.0594 521.065C59.6074 522.139 59.8712 523.335 59.8259 524.54H44.0232C44.0232 524.54 44.4489 516.852 48.8066 513.896Z" fill="white"/>
    <path d="M8.63696 524.54V528.873C8.63696 529.599 9.26307 530 10.365 530H58.1487C59.2506 530 59.8767 529.599 59.8767 528.873V524.54H8.63696Z" fill="white"/>
    <path d="M44.1239 510.966C44.2601 510.75 44.4764 510.597 44.7254 510.541C44.9743 510.485 45.2354 510.53 45.4512 510.666C45.6671 510.802 45.82 511.018 45.8764 511.267C45.9328 511.516 45.8879 511.777 45.7518 511.993L44.0738 514.698C43.987 514.838 43.8651 514.954 43.7203 515.033C43.5754 515.112 43.4124 515.152 43.2474 515.149C43.0693 515.149 42.895 515.097 42.7465 514.998C42.6385 514.932 42.5449 514.845 42.4712 514.741C42.3974 514.638 42.345 514.522 42.317 514.398C42.289 514.274 42.2859 514.146 42.3081 514.021C42.3303 513.897 42.3771 513.777 42.446 513.671L44.1239 510.966Z" fill="white"/>
    <path d="M41.1434 508.887C41.3085 508.695 41.5419 508.575 41.7943 508.551C42.0466 508.528 42.2981 508.603 42.4958 508.762C42.6897 508.932 42.8109 509.169 42.8342 509.426C42.8575 509.682 42.7812 509.938 42.621 510.139L40.6425 512.443C40.5557 512.553 40.4453 512.641 40.3195 512.702C40.1937 512.763 40.0559 512.794 39.9162 512.794C39.7327 512.796 39.5525 512.745 39.3974 512.646C39.2423 512.548 39.1189 512.407 39.0422 512.24C38.9654 512.074 38.9385 511.888 38.9647 511.707C38.9909 511.525 39.0692 511.355 39.1899 511.216L41.1434 508.887Z" fill="white"/>
    <path d="M38.3888 506.559C38.5881 506.43 38.8272 506.379 39.0616 506.414C39.2961 506.448 39.5099 506.567 39.6631 506.748C39.8164 506.929 39.8986 507.159 39.8945 507.396C39.8905 507.633 39.8004 507.861 39.641 508.036L37.3871 509.965C37.2123 510.113 36.99 510.193 36.761 510.19C36.6234 510.193 36.4868 510.166 36.3611 510.109C36.2355 510.053 36.124 509.969 36.0347 509.864C35.9454 509.776 35.8744 509.671 35.826 509.555C35.7776 509.439 35.7527 509.314 35.7527 509.188C35.7527 509.063 35.7776 508.938 35.826 508.822C35.8744 508.706 35.9454 508.601 36.0347 508.512L38.3888 506.559Z" fill="white"/>
    <path d="M33.5046 505.406L36.009 503.854C36.225 503.763 36.4666 503.752 36.6897 503.824C36.9128 503.897 37.1024 504.047 37.224 504.247C37.3455 504.448 37.3908 504.685 37.3517 504.917C37.3125 505.148 37.1915 505.357 37.0107 505.507L34.5063 507.059C34.3579 507.158 34.1836 507.21 34.0055 507.21C33.8385 507.207 33.6749 507.163 33.5302 507.079C33.3855 506.996 33.2646 506.877 33.179 506.734C33.0489 506.514 33.0101 506.252 33.071 506.004C33.1318 505.756 33.2875 505.541 33.5046 505.406Z" fill="white"/>
    <path d="M172.148 83.7186L162.13 146.604C160.477 154.492 163.032 161.63 172.148 162.882C173.831 163.101 175.54 162.976 177.173 162.514C178.806 162.053 180.328 161.264 181.647 160.196C182.965 159.128 184.053 157.803 184.844 156.301C185.635 154.8 186.112 153.154 186.248 151.462L189.303 83.8437C190.104 77.4576 187.324 73.2001 182.466 72.6742C176.506 72.0231 173.35 75.5543 172.148 83.7186Z" fill="#FBBEAA"/>
    <path d="M31.4012 502.176L34.2061 500.999C34.3228 500.95 34.4479 500.925 34.5744 500.925C34.7008 500.925 34.826 500.95 34.9426 500.999C35.0591 501.048 35.1648 501.12 35.2534 501.21C35.3419 501.301 35.4116 501.408 35.4583 501.525C35.5519 501.758 35.552 502.018 35.4587 502.251C35.3654 502.485 35.1859 502.673 34.9575 502.777L32.1275 503.954C32.0121 503.98 31.8923 503.98 31.7769 503.954C31.5841 503.954 31.3955 503.897 31.2351 503.79C31.0746 503.683 30.9495 503.531 30.8753 503.353C30.7993 503.127 30.8112 502.88 30.9086 502.662C31.006 502.444 31.1819 502.271 31.4012 502.176Z" fill="white"/>
    <path d="M29.648 498.57L32.7284 497.794C32.9774 497.733 33.2403 497.772 33.4605 497.903C33.6807 498.034 33.8405 498.247 33.9055 498.495C33.9353 498.616 33.9408 498.743 33.9217 498.867C33.9026 498.99 33.8593 499.109 33.7941 499.216C33.729 499.323 33.6433 499.417 33.5421 499.49C33.4409 499.564 33.326 499.617 33.2042 499.647L30.1238 500.448H29.8734C29.6478 500.431 29.4351 500.336 29.2718 500.179C29.1085 500.022 29.0047 499.814 28.9781 499.589C28.9515 499.364 29.0038 499.137 29.1259 498.947C29.2481 498.756 29.4326 498.614 29.648 498.545V498.57Z" fill="white"/>
    <path d="M21.3587 364.009C22.5889 358.324 26.0262 353.36 30.915 350.209C35.8038 347.058 41.7439 345.977 47.4293 347.204C59.2751 349.709 65.6612 361.379 63.1067 373.225L29.5981 493.811H11.1909L21.3587 364.009Z" fill="#FBBEAA"/>
    <path d="M21.362 361.629C22.7212 356.081 26.1907 351.282 31.0331 348.252C35.8754 345.222 41.7087 344.2 47.2927 345.403C52.8767 346.607 57.771 349.941 60.9353 354.697C64.0995 359.453 65.2839 365.255 64.2369 370.87L50.9142 494.659C50.9142 494.659 19.0083 496.562 0 494.659L21.362 361.629Z" fill="#93929C"/>
    <path d="M180.287 139.641L108.361 84.9955C99.9715 79.6361 94.2615 82.4911 89.8037 88.2262C87.7679 91.002 86.824 94.4296 87.1519 97.8562C87.4798 101.283 89.0566 104.469 91.5818 106.809L163.332 159.676C165.861 161.812 169.116 162.889 172.419 162.684C175.722 162.479 178.819 161.006 181.063 158.574L181.389 158.224C182.58 156.953 183.5 155.453 184.093 153.814C184.685 152.176 184.937 150.434 184.834 148.696C184.731 146.957 184.275 145.257 183.493 143.7C182.711 142.144 181.62 140.762 180.287 139.641Z" fill="#FBBEAA"/>
    <path d="M91.5817 106.784C90.9176 106.213 90.3134 105.575 89.7785 104.881C89.3056 103.098 89.2447 101.232 89.6005 99.4222C89.9564 97.6128 90.7195 95.9081 91.8322 94.4375C95.6138 88.6023 103.553 84.0193 107.084 84.8958L110.59 86.6739L150.284 116.727C146.771 124.983 142.026 132.659 136.21 139.491L91.5817 106.784Z" fill="#F18380"/>
    <path d="M102.426 81.0884L164.669 123.068C164.407 125.215 171.307 81.0884 171.307 81.0884L190.831 83.6293C190.831 83.6293 190.434 128.187 187.519 151.835C186.356 161.275 178.57 164.879 169.277 162.851C164.689 161.85 160.369 159.968 156.525 157.269C140.008 145.676 93.6679 113.02 89.8792 108.912C83.3428 101.825 83.3427 96.5155 87.0993 90.6803C90.8559 84.845 98.8949 80.2119 102.426 81.0884Z" fill="#001A4B"/>
    <path d="M73.1739 364.31L60.3264 229.799C60.3264 214.948 75.6282 198.77 98.1927 202.251C118.578 205.432 124.789 225.917 123.111 245.326C121.433 264.735 116.9 365.261 116.9 365.261C116.833 368.139 116.199 370.975 115.036 373.608C113.872 376.241 112.202 378.619 110.119 380.606C108.037 382.593 105.583 384.151 102.899 385.19C100.214 386.229 97.3514 386.729 94.4737 386.661C91.596 386.594 88.7598 385.96 86.1269 384.797C83.4941 383.633 81.1162 381.963 79.129 379.88C77.1418 377.798 75.5843 375.344 74.5453 372.66C73.5064 369.975 73.0063 367.112 73.0738 364.235L73.1739 364.31Z" fill="#93929C"/>
    <path d="M21.3592 361.63L34.1316 227.144C36.8363 212.543 54.9931 199.596 76.5058 207.259C95.9148 214.196 98.1687 235.484 92.8594 254.242C87.5501 272.999 64.2343 370.871 64.2343 370.871C62.8751 376.419 59.4055 381.218 54.5631 384.248C49.7208 387.278 43.8876 388.3 38.3036 387.097C32.7196 385.893 27.8252 382.559 24.661 377.803C21.4968 373.047 20.3122 367.245 21.3592 361.63Z" fill="#93929C"/>
    <path d="M92.8585 254.242C87.5743 273 64.2334 370.872 64.2334 370.872" stroke="#5E5D63" stroke-width="0.75" stroke-miterlimit="10"/>
    <path d="M89.1024 78.9596C89.1024 78.9596 100.172 80.888 102.326 81.464C103.597 81.7622 104.771 82.3783 105.739 83.2543C106.707 84.1303 107.437 85.2377 107.86 86.4727C109.238 89.7535 116.325 111.241 116.976 113.57C117.417 116.136 117.003 118.775 115.799 121.083C114.772 123.888 109.463 136.661 109.463 136.661L108.662 177.808L78.7607 182.55L50.1092 177.808C50.1092 177.808 40.0916 101.274 39.5908 96.5404C39.0899 91.8071 41.444 82.6661 47.1039 81.5141C52.7638 80.3621 68.291 79.0097 68.291 79.0097L89.1024 78.9596Z" fill="#FBBEAA"/>
    <path d="M110.066 161.263V175.729C90.4813 177.533 59.2753 176.255 47.5548 175.729C47.0038 171.597 46.4278 164.585 45.8268 159.927C61.7797 160.327 88.1271 161.814 110.066 161.263Z" fill="white"/>
    <path d="M92.2866 79.3343C91.5057 84.0201 87.0255 89.3088 80.7778 89.759C72.1872 90.378 69.2482 87.1439 65.7339 78.9438C65.7339 78.9438 49.2324 80.287 46.8281 80.5374C41.1339 82.0677 39.5424 86.5557 38.791 91.4392C38.0397 96.3228 40.353 181.549 40.353 181.549C40.353 181.549 92.0389 184.504 116.106 181.549C116.106 181.549 117.552 119.369 117.677 117.992C117.777 116.491 117.688 111.334 116.497 106.668C114.329 98.1836 108.937 87.2742 107.509 84.87C106.415 82.9574 104.618 81.5469 102.501 80.9381C101.023 80.4623 92.2866 79.3343 92.2866 79.3343Z" fill="#002366"/>
    <path d="M69.8552 111.322L72.1302 111.186L72.3026 114.079L74.7302 113.935L74.5577 111.042L76.8327 110.906L77.3038 118.81L75.0288 118.946L74.8423 115.816L72.4144 115.96L72.601 119.091L70.326 119.226L69.8549 111.322L69.8552 111.322ZM84.951 110.422L85.4221 118.327L83.2238 118.458L82.8644 112.427L81.4244 112.513L81.5596 114.781C81.6204 115.801 81.618 117.055 81.0546 117.794C80.4963 118.613 79.3697 118.918 78.0684 118.757L77.9516 116.797C79.1764 116.962 79.4543 116.47 79.361 114.905L79.1137 110.756L84.9501 110.408L84.951 110.422ZM86.8502 110.309L89.1253 110.174L90.6919 114.792L91.6988 110.02L93.9738 109.885L95.5092 117.725L93.3874 117.852L92.6068 113.655L91.641 117.955L90.1245 118.046L88.6622 113.89L88.3856 118.149L86.2638 118.276L86.8499 110.309L86.8502 110.309ZM95.8728 109.771L98.1478 109.636L98.339 112.845L100.346 109.505L102.85 109.356L100.204 113.44L103.399 117.255L100.671 117.418L98.4347 114.33L98.626 117.54L96.351 117.675L95.8799 109.771L95.8731 109.771L95.8728 109.771ZM85.5808 101.898C71.9319 102.711 63.2056 108.339 63.6532 115.849C64.0964 123.286 73.427 127.91 87.0827 127.096C100.808 126.278 109.453 120.575 109.01 113.145C108.563 105.636 99.313 101.079 85.5808 101.898ZM87.013 125.926C74.1919 126.69 65.3531 122.584 64.9471 115.772C64.5367 108.887 72.8366 103.832 85.6506 103.068C98.5413 102.3 107.312 106.33 107.723 113.222C108.129 120.035 99.9105 125.157 87.013 125.926ZM85.716 104.166C73.6603 104.885 65.8658 109.514 66.2342 115.695C66.6026 121.876 74.8918 125.546 86.9475 124.828C99.0032 124.109 106.798 119.48 106.429 113.299C106.068 107.118 97.7789 103.447 85.716 104.166ZM86.9338 124.598C75.0241 125.308 66.8233 121.712 66.4643 115.688C66.1053 109.665 73.8277 105.12 85.7306 104.411C97.6335 103.701 105.841 107.297 106.2 113.32C106.566 119.343 98.8435 123.888 86.9338 124.598L86.9338 124.598Z" fill="white"/>
    <path d="M6.78326 174.127L38.8644 89.7037C43.1469 80.688 49.483 80.0869 56.3951 82.5913C59.5921 83.8666 62.2073 86.2749 63.7411 89.3563C65.2748 92.4377 65.6196 95.9761 64.7097 99.2956L31.6768 182.216C30.6756 185.37 28.491 188.015 25.5818 189.593C22.6726 191.171 19.265 191.561 16.0745 190.681L15.5987 190.555C13.9157 190.096 12.3439 189.299 10.9791 188.212C9.61423 187.126 8.48499 185.773 7.66015 184.236C6.83532 182.698 6.33219 181.009 6.18143 179.271C6.03067 177.533 6.23544 175.783 6.78326 174.127Z" fill="#FBBEAA"/>
    <path d="M20.0814 139.115L38.8643 89.7037C39.3681 88.6201 39.9629 87.5812 40.6424 86.5983C42.9431 85.1578 45.5771 84.3363 48.2888 84.2134C51.0005 84.0906 53.6979 84.6705 56.1195 85.897C58.9315 87.2654 61.1919 89.5531 62.5263 92.3813C63.8608 95.2096 64.1892 98.4088 63.4574 101.449C63.4574 101.75 63.2821 102.326 63.1318 103.102L43.7479 151.812C35.2811 148.759 27.3075 144.481 20.0814 139.115Z" fill="#F18380"/>
    <path d="M40.6178 85.1959L4.96222 177.735C34.2483 168.364 30.8158 142.255 46.7436 144.935C46.7436 144.935 65.1107 101.825 65.8119 97.9682C66.5438 94.9278 66.2153 91.7287 64.8809 88.9004C63.5464 86.0721 61.2861 83.7844 58.4741 82.416C50.6354 78.409 42.8217 82.0404 40.6178 85.1959Z" fill="#002366"/>
    <path d="M98.9524 79.1584C100.729 86.0779 89.8649 92.2831 80.2725 89.7587C90.3697 83.1955 89.8649 79.1566 89.8649 79.1566V72.0884C92.894 71.5836 97.8345 74.8031 98.9524 79.1584Z" fill="#001A4B"/>
    <path d="M67.6514 69.564C64.6222 69.0591 54.8185 70.084 51.4957 75.6222C49.9811 78.1467 51.4957 80.166 51.4957 80.166C51.4957 80.166 53.5152 80.1662 56.5444 79.6614C59.0687 85.215 71.6903 92.2829 80.9962 89.8105C67.6514 82.6905 67.6514 79.156 67.6514 79.156V69.564Z" fill="#001A4B"/>
    <path d="M71.0961 134.482L31.2263 184.144C26.493 190.655 19.4807 193.56 12.4935 187.7C11.2011 186.602 10.1453 185.253 9.39007 183.734C8.63483 182.216 8.19587 180.56 8.09986 178.867C8.00384 177.173 8.25276 175.478 8.8315 173.884C9.41024 172.29 10.3068 170.83 11.4667 169.593L59.5008 122.01C63.6831 117.126 68.7169 116.35 72.3733 119.505C76.8061 123.437 76.2801 128.045 71.0961 134.482Z" fill="#FBBEAA"/>
    <path d="M57.0959 124.614C61.5287 120.132 69.8182 110.465 72.6231 108.111C75.3966 106.021 78.4266 104.295 81.6389 102.976C84.0761 102.16 86.5956 101.614 89.1521 101.349C90.9302 101.123 91.6565 101.649 91.6565 102.726C91.6117 103.368 91.4073 103.988 91.0618 104.53C90.7162 105.073 90.2405 105.52 89.678 105.832H92.9587C94.0857 105.832 94.812 106.733 94.286 108.186C93.8084 109.145 93.1256 109.988 92.286 110.655C91.4464 111.321 90.4705 111.795 89.4275 112.042C89.4275 112.042 93.8603 112.468 94.9873 112.694C96.1142 112.919 96.4648 113.345 96.4648 114.422C96.4551 115.165 96.2484 115.893 95.8657 116.531C95.4829 117.169 94.9378 117.694 94.286 118.053C92.6906 118.7 90.9971 119.073 89.2773 119.155C89.2773 119.155 94.7619 120.532 95.8638 120.933C96.9657 121.334 97.091 122.06 96.515 123.012C96.1867 123.682 95.7128 124.27 95.1278 124.734C94.5429 125.198 93.8616 125.525 93.134 125.691C91.0554 126.242 89.6529 125.341 88.9016 125.466C87.2873 125.986 85.7066 126.605 84.1684 127.319C81.8583 129.619 79.034 131.336 75.9289 132.328C73.6176 133.298 71.4976 134.672 69.668 136.385C68.8157 137.185 67.8118 137.805 66.7154 138.21C65.6191 138.615 64.4528 138.796 63.2853 138.743C62.1178 138.689 60.973 138.402 59.9185 137.898C58.864 137.394 57.9212 136.684 57.146 135.809C53.139 131.552 53.8152 127.995 57.0959 124.614Z" fill="#FBBEAA"/>
    <path d="M70.0751 138.012L31.5155 185.194C26.6842 191.633 15.3947 195.172 8.4969 189.206C7.22133 188.089 6.18606 186.724 5.45387 185.194C4.72169 183.664 4.30784 182.002 4.23745 180.307C4.16707 178.613 4.4416 176.922 5.0444 175.337C5.64719 173.752 8.32745 168.412 9.50594 167.193L57.8234 121.815L70.0751 138.012Z" fill="#002366"/>
    <path d="M89.1274 105.857C89.1345 105.898 89.1329 105.941 89.1225 105.981C89.1122 106.022 89.0935 106.06 89.0676 106.093C89.0416 106.126 89.009 106.154 88.9718 106.173C88.9347 106.193 88.8939 106.205 88.852 106.207L86.7984 106.408H85.7966C85.446 106.408 85.1204 106.533 84.7698 106.558C84.3994 106.669 84.0392 106.812 83.693 106.984L82.5409 107.46C80.9882 108.086 79.4355 108.662 78.2834 109.087C77.1314 109.513 76.33 109.764 76.33 109.764C76.2665 109.79 76.1953 109.792 76.1304 109.769C76.0655 109.746 76.0116 109.699 75.9794 109.638C75.9327 109.577 75.9074 109.502 75.9074 109.426C75.9074 109.349 75.9327 109.274 75.9794 109.213L77.8577 108.236L79.8111 107.309C80.5123 106.984 81.2887 106.658 82.065 106.358L83.2421 105.907C83.6207 105.736 84.0148 105.602 84.4192 105.506L85.6213 105.381H86.6481H88.1757H88.7518C88.8149 105.331 88.8952 105.308 88.975 105.318C89.0549 105.327 89.1277 105.368 89.1776 105.431C89.2274 105.494 89.2501 105.574 89.2407 105.654C89.2313 105.734 89.1905 105.807 89.1274 105.857ZM88.6516 111.892H88.2008C87.8259 111.859 87.4487 111.859 87.0738 111.892L86.2975 112.018C86.0113 112.053 85.7271 112.104 85.446 112.168L83.743 112.719C82.591 113.094 81.464 113.57 80.6125 113.921C80.6125 113.921 80.337 113.921 80.3621 114.046H80.0616L79.6108 114.171H79.3353H79.185C79.1094 114.189 79.0437 114.236 79.0017 114.301C78.9596 114.367 78.9446 114.446 78.9596 114.522C78.9705 114.582 79.0011 114.637 79.0464 114.677C79.0917 114.718 79.1493 114.743 79.2101 114.747H80.4873H80.888C81.7645 114.522 82.9416 114.171 84.0936 113.771L85.7716 113.145L86.5479 112.944L87.2241 112.744C87.5699 112.642 87.9211 112.558 88.2759 112.493L88.7017 112.368C88.7396 112.357 88.7748 112.338 88.8054 112.313C88.8359 112.288 88.8613 112.257 88.8799 112.222C88.8985 112.187 88.91 112.149 88.9138 112.109C88.9176 112.07 88.9136 112.03 88.902 111.993C88.8724 111.956 88.8338 111.927 88.7899 111.91C88.7461 111.892 88.6984 111.886 88.6516 111.892ZM88.6516 119.005H87.725C87.4745 119.005 87.149 119.005 86.8234 119.18L85.7966 119.506C85.1505 119.733 84.5226 120.01 83.9183 120.332C83.6405 120.463 83.3726 120.613 83.1169 120.783C83.0658 120.842 83.0377 120.918 83.0377 120.996C83.0377 121.074 83.0658 121.15 83.1169 121.209C83.1888 121.285 83.2877 121.33 83.3924 121.334L84.319 121.184C84.845 121.058 85.5212 120.858 86.1973 120.633L87.174 120.232L88.0255 119.906C88.309 119.781 88.585 119.639 88.852 119.481C88.9228 119.439 88.9751 119.371 88.9983 119.292C89.0216 119.213 89.014 119.129 88.9772 119.055C88.903 119.007 88.8135 118.989 88.7267 119.005H88.6516Z" fill="#F18380"/>
    <path d="M172.949 62.0055C171.997 62.0055 171.922 61.4045 171.496 60.3026C173.625 60.3026 179.811 60.7032 182.516 65.9124C179.786 62.1558 174.552 62.0055 172.949 62.0055ZM177.807 42.1958C177.807 42.1958 177.657 43.0724 177.507 44.3496C177.507 45.0008 177.356 45.7771 177.306 46.5785C177.256 47.3799 177.181 48.2564 177.106 49.0829C177.106 50.836 176.981 52.564 176.981 53.8663C176.981 55.1686 176.981 56.0451 176.981 56.0451C176.981 56.0867 176.989 56.128 177.006 56.1662C177.023 56.2044 177.047 56.2387 177.078 56.267C177.108 56.2952 177.144 56.3168 177.184 56.3304C177.223 56.3439 177.265 56.3491 177.306 56.3456C177.377 56.3421 177.444 56.3157 177.499 56.2705C177.553 56.2254 177.591 56.1639 177.607 56.0952C177.607 56.0952 177.757 55.2186 177.882 53.9163C178.008 52.6141 178.208 50.886 178.283 49.158C178.283 48.2815 178.283 47.405 178.283 46.6536C178.283 45.9023 178.283 45.0759 178.283 44.4248C178.283 43.0974 178.283 42.2459 178.283 42.2459C178.283 42.2042 178.275 42.163 178.258 42.1248C178.242 42.0866 178.217 42.0523 178.186 42.024C178.156 41.9958 178.12 41.9742 178.08 41.9607C178.041 41.9471 177.999 41.9419 177.958 41.9454C177.91 41.973 177.87 42.0134 177.844 42.062C177.817 42.1106 177.805 42.1656 177.807 42.2209V42.1958ZM183.617 43.9489C183.617 43.9489 183.467 44.7002 183.292 45.8022C183.292 46.3782 183.117 47.0293 183.041 47.7305C182.966 48.4317 182.891 49.1831 182.816 49.9344C182.816 51.437 182.641 52.9396 182.616 54.0666C182.591 55.1936 182.616 55.97 182.616 55.97C182.619 56.0095 182.63 56.048 182.648 56.0832C182.666 56.1185 182.691 56.1499 182.721 56.1755C182.751 56.2011 182.786 56.2205 182.824 56.2325C182.862 56.2445 182.902 56.2489 182.941 56.2455C183.009 56.2408 183.072 56.2135 183.122 56.1681C183.172 56.1226 183.206 56.0617 183.217 55.995C183.217 55.995 183.367 55.2437 183.542 54.1417C183.718 53.0398 183.868 51.5122 183.993 50.0346C183.993 49.2833 183.993 48.5319 184.143 47.8307C184.294 47.1295 184.143 46.4533 184.143 45.8773C184.143 44.7503 184.143 43.999 184.143 43.999C184.144 43.9573 184.135 43.9161 184.118 43.8779C184.102 43.8397 184.077 43.8054 184.047 43.7771C184.016 43.7489 183.98 43.7273 183.941 43.7138C183.901 43.7002 183.859 43.695 183.818 43.6985C183.762 43.7214 183.714 43.7593 183.679 43.8079C183.643 43.8565 183.622 43.914 183.617 43.9739V43.9489ZM189.227 46.3281C189.227 46.3281 189.077 46.9542 188.877 47.9058C188.877 48.3566 188.676 48.9076 188.601 49.5087C188.526 50.1097 188.426 50.7358 188.326 51.3619C188.15 52.6391 188.075 53.8663 188.025 54.868C187.975 55.8698 188.025 56.4709 188.025 56.4709C188.025 56.5125 188.034 56.5537 188.05 56.5919C188.067 56.6301 188.091 56.6645 188.122 56.6927C188.153 56.721 188.189 56.7425 188.228 56.7561C188.267 56.7696 188.309 56.7748 188.351 56.7714C188.415 56.7681 188.476 56.7444 188.525 56.7038C188.575 56.6633 188.61 56.608 188.626 56.546C188.626 56.546 188.802 55.9199 188.977 54.9933C189.152 54.0667 189.403 52.7643 189.553 51.5122C189.553 50.861 189.678 50.2349 189.728 49.6339C189.778 49.0328 189.728 48.4819 189.728 48.006C189.728 47.0544 189.728 46.4032 189.728 46.4032C189.728 46.3615 189.72 46.3203 189.703 46.2821C189.686 46.2439 189.662 46.2096 189.632 46.1813C189.601 46.1531 189.565 46.1315 189.525 46.118C189.486 46.1044 189.444 46.0992 189.403 46.1027C189.356 46.1285 189.317 46.1644 189.286 46.2078C189.256 46.2511 189.236 46.3009 189.227 46.3531V46.3281Z" fill="#F18380"/>
    <path d="M57.9249 121.506L52.8486 126.192L66.5155 142.592L70.4203 137.906L57.9249 121.506Z" fill="#00163F"/>
    <path d="M171.002 80.6431L170.384 87.5343L190.689 90.658L190.689 83.2389L171.002 80.6431Z" fill="#00163F"/>
    <path d="M40.0582 174.728L40.3534 181.64C40.3534 181.64 64.3783 183.255 79.792 183.202C93.9868 183.154 116.107 181.64 116.107 181.64L116.107 175.783C116.107 175.783 93.025 176.564 78.2301 176.564C58.3156 176.564 40.0582 174.728 40.0582 174.728Z" fill="#00163F"/>
    <path d="M69.9677 19.1534C71.0224 15.3497 70.6347 11.2904 68.8788 7.75518C67.123 4.21995 64.123 1.45807 60.4549 0C58.9973 1.4576 59.7389 6.11171 59.7389 6.11171C54.5887 3.69815 48.8125 2.95601 43.2194 3.98923C43.3207 7.56523 44.6685 10.9934 47.0296 13.681C44.1681 13.9694 41.416 14.9336 39 16.4939C39.3664 18.1794 40.1277 19.7537 41.2214 21.0874C42.315 22.4211 43.7097 23.4761 45.2907 24.1655C43.6808 26.0502 42.5726 28.3107 42.0686 30.7375C44.8155 31.5297 47.7176 31.6176 50.5074 30.9933C50.057 32.4046 49.8748 33.8877 49.9704 35.3661C52.6195 35.7549 55.3218 35.5556 57.8852 34.7821C60.4486 34.0087 62.8102 32.6802 64.8021 30.891C67.4441 27.4515 69.2162 23.4248 69.9677 19.1534Z" fill="#E69D7E"/>
    <path d="M54.164 32.9628C53.7549 39.5859 49.5866 49.6357 50.6862 58.0489C52.2206 69.9143 66.8989 69.7864 72.5759 69.7864H80.989V32.9628H54.164Z" fill="#E69D7E"/>
    <path d="M67.0524 56.1561V77.8668C67.0524 77.8668 68.7657 85.3338 80.2219 85.3338C82.5014 85.526 84.768 84.8381 86.5561 83.4114C88.3443 81.9847 89.5183 79.9274 89.837 77.6622V56.1817L67.0524 56.1561Z" fill="#FBBEAA"/>
    <path d="M89.837 74.2355C82.6513 77.6622 72.1412 74.5935 67.0524 65.183V56.1561H89.837V74.2355Z" fill="#F18380"/>
    <path d="M104.106 39.4827C104.2 44.6753 103.961 49.8685 103.39 55.0305C102.47 62.4208 99.8358 70.6038 86.794 70.6038C73.7523 70.6038 67.078 64.6967 64.2907 55.0305C62.6029 49.2001 59.1763 40.5567 60.5828 30.5837C61.9892 20.6106 67.9986 14.0897 82.1655 13.7061C96.3324 13.3226 105.564 19.69 104.106 39.4827Z" fill="#FBBEAA"/>
    <path d="M76.4631 43.9326C76.5498 44.3179 76.7436 44.6709 77.0221 44.951C77.3006 45.231 77.6526 45.4267 78.0375 45.5155C78.4224 45.6043 78.8245 45.5826 79.1976 45.4528C79.5707 45.3231 79.8995 45.0906 80.1462 44.7822C80.393 44.4738 80.5476 44.1019 80.5923 43.7095C80.637 43.317 80.5699 42.9199 80.3988 42.5639C80.2277 42.2079 79.9595 41.9075 79.6251 41.6972C79.2908 41.4869 78.9038 41.3754 78.5088 41.3754C78.2059 41.4071 77.9122 41.4987 77.6449 41.6449C77.3776 41.791 77.142 41.9887 76.9517 42.2266C76.7614 42.4644 76.6202 42.7377 76.5364 43.0306C76.4525 43.3234 76.4276 43.63 76.4631 43.9326Z" fill="#403D4F"/>
    <path d="M95.4629 43.9326C95.5496 44.3179 95.7434 44.6709 96.0219 44.951C96.3005 45.231 96.6525 45.4267 97.0373 45.5155C97.4222 45.6043 97.8243 45.5826 98.1974 45.4528C98.5705 45.3231 98.8993 45.0906 99.1461 44.7822C99.3928 44.4738 99.5474 44.1019 99.5921 43.7095C99.6368 43.317 99.5697 42.9199 99.3986 42.5639C99.2275 42.2079 98.9593 41.9075 98.625 41.6972C98.2906 41.4869 97.9036 41.3754 97.5087 41.3754C97.2057 41.4071 96.9121 41.4987 96.6448 41.6449C96.3775 41.791 96.1418 41.9887 95.9515 42.2266C95.7612 42.4644 95.6201 42.7377 95.5362 43.0306C95.4523 43.3234 95.4274 43.63 95.4629 43.9326Z" fill="#403D4F"/>
    <path d="M82.6516 36.6958C82.6516 36.6958 82.6516 36.6958 82.4214 36.4657C82.2167 36.2818 81.994 36.119 81.7566 35.9798C81.4392 35.7847 81.0944 35.6382 80.7337 35.5451C80.3315 35.3963 79.9089 35.3101 79.4807 35.2894C79.0646 35.238 78.6437 35.238 78.2276 35.2894C77.875 35.3005 77.5241 35.3433 77.1792 35.4172L76.1819 35.6985C76.0172 35.7515 75.8796 35.8667 75.7985 36.0195C75.7173 36.1723 75.6989 36.3507 75.7471 36.5168C75.7859 36.6496 75.8666 36.7663 75.9773 36.8493C76.0879 36.9323 76.2225 36.9771 76.3609 36.9771H77.3582C77.6553 36.9389 77.9561 36.9389 78.2532 36.9771C78.5937 36.9517 78.9356 36.9517 79.2761 36.9771C79.6085 36.9771 79.9409 36.9771 80.2478 37.1561C80.5547 37.3351 80.8104 37.3607 81.0661 37.3863L81.6031 37.5653H81.8333C81.9929 37.6347 82.1733 37.6388 82.3359 37.5766C82.4984 37.5144 82.6301 37.391 82.7027 37.2329C82.7476 37.1459 82.771 37.0494 82.771 36.9516C82.771 36.8537 82.7476 36.7572 82.7027 36.6703L82.6516 36.6958Z" fill="#403D4F"/>
    <path d="M95.0794 37.6674H95.2328L95.642 37.514H95.9233H96.2046C96.4306 37.4393 96.6612 37.3795 96.895 37.335C97.1322 37.2972 97.3739 37.2972 97.611 37.335C97.831 37.2968 98.0559 37.2968 98.2759 37.335H99.0942C99.266 37.3284 99.4287 37.2554 99.5479 37.1314C99.6671 37.0075 99.7336 36.8421 99.7335 36.6701C99.7286 36.5432 99.6874 36.4204 99.6149 36.3162C99.5424 36.212 99.4416 36.1307 99.3244 36.082L98.5316 35.8007C98.2424 35.7061 97.9408 35.6544 97.6366 35.6472C97.2975 35.5964 96.9528 35.5964 96.6137 35.6472C95.942 35.7146 95.3034 35.9718 94.7725 36.3888C94.5799 36.5168 94.4147 36.682 94.2867 36.8747C94.1588 37.0281 94.1588 37.0793 94.1332 37.0793V37.335C94.1191 37.4554 94.1382 37.5774 94.1884 37.6878C94.2386 37.7981 94.3181 37.8927 94.4181 37.9611C94.5182 38.0296 94.6351 38.0694 94.7562 38.0762C94.8772 38.0831 94.9978 38.0566 95.105 37.9999L95.0794 37.6674Z" fill="#403D4F"/>
    <path d="M89.8372 52.627C90.2664 52.637 90.6925 52.5528 91.0857 52.3805C91.4789 52.2082 91.8296 51.952 92.1131 51.6297C92.2241 51.5198 92.3109 51.388 92.3682 51.2427C92.4254 51.0975 92.4518 50.9418 92.4456 50.7858C92.4456 50.5045 91.9853 46.9756 91.8319 45.6714C91.8319 45.5426 91.7807 45.419 91.6895 45.3279C91.5984 45.2367 91.4748 45.1855 91.346 45.1855C91.2171 45.1855 91.0936 45.2367 91.0024 45.3279C90.9113 45.419 90.8601 45.5426 90.8601 45.6714C90.8601 45.876 91.3971 50.5045 91.4738 50.7858C91.2614 51.0137 91.004 51.195 90.7179 51.3183C90.4318 51.4415 90.1232 51.504 89.8117 51.5018C89.6828 51.5018 89.5592 51.553 89.4681 51.6441C89.377 51.7353 89.3258 51.8588 89.3258 51.9877C89.3258 52.1166 89.377 52.2401 89.4681 52.3313C89.5592 52.4224 89.6828 52.4736 89.8117 52.4736L89.8372 52.627Z" fill="#F18380"/>
    <path d="M92.2411 57.6646C93.2128 57.9203 93.5453 59.3524 92.9827 61.0145C92.3945 62.158 91.4402 63.0714 90.2722 63.609C89.1041 64.1467 87.7897 64.2776 86.5386 63.9809C85.8597 63.9452 85.1948 63.7746 84.5826 63.479C83.9705 63.1833 83.4234 62.7686 82.9734 62.2591C82.5234 61.7496 82.1795 61.1555 81.9618 60.5115C81.7441 59.8675 81.6569 59.1866 81.7054 58.5085C81.7054 57.4089 82.447 56.744 83.8791 56.744C86.6872 56.8176 89.4842 57.1255 92.2411 57.6646Z" fill="#73102A"/>
    <path d="M81.6539 58.5085C81.6539 58.5085 81.6539 58.355 81.6539 58.2527C83.5293 57.813 85.5016 58.0949 87.1787 59.0425C88.8559 59.99 90.1151 61.5338 90.7064 63.3671C89.3828 64.0155 87.8938 64.2473 86.4359 64.032C85.7568 63.9901 85.0929 63.8131 84.4831 63.5113C83.8733 63.2096 83.3298 62.7892 82.8844 62.2749C82.4391 61.7605 82.1009 61.1624 81.8896 60.5157C81.6783 59.8689 81.5982 59.1865 81.6539 58.5085Z" fill="#D65155"/>
    <path d="M91.3714 59.2248C88.1409 59.2512 84.9278 58.7502 81.8586 57.7416C82.047 57.3953 82.3362 57.1144 82.6879 56.9363C83.0395 56.7581 83.4371 56.6912 83.8277 56.7443C86.6358 56.8178 89.4329 57.1257 92.1897 57.6649C92.4571 57.7548 92.692 57.9217 92.8648 58.1446C93.0377 58.3675 93.1409 58.6365 93.1615 58.9179C92.5879 59.1261 91.9816 59.2301 91.3714 59.2248Z" fill="white"/>
    <path d="M78.8155 27.413C78.8155 27.413 74.2893 43.063 63.4723 47.1801C62.2164 47.1957 60.9752 46.9087 59.8535 46.3435C58.7319 45.7782 57.7628 44.9512 57.0282 43.9325C54.1551 37.8897 53.3465 31.0704 54.7267 24.5233C56.5423 16.5449 66.1318 6.26492 83.6231 8.66868C92.9568 6.87864 104.081 8.51525 111.036 17.9513C117.992 27.3874 109.707 40.4547 104.106 42.6283C98.598 39.3118 93.3183 35.6297 88.3028 31.6068C89.0699 34.0105 89.8882 39.0994 89.0699 39.0994C84.3429 36.5824 80.6967 32.427 78.8155 27.413Z" fill="#E69D7E"/>
    <path d="M64.802 49.0725C64.5974 45.5948 63.6512 41.4009 59.4318 42.1425C54.3174 42.8841 53.9594 56.3094 64.5462 54.6984L64.802 49.0725Z" fill="#FBBEAA"/>
    <path d="M58.9971 49.9678C59.085 49.964 59.1706 49.9387 59.2464 49.8941C59.3222 49.8495 59.3858 49.787 59.4318 49.7121C59.5379 49.4859 59.7033 49.2927 59.9104 49.1531C60.1176 49.0135 60.3587 48.9327 60.6081 48.9193C60.9003 48.9223 61.187 48.9988 61.4417 49.1418C61.6965 49.2849 61.9111 49.4898 62.0657 49.7376C62.1232 49.8296 62.2098 49.8998 62.3118 49.9369C62.4137 49.9739 62.5252 49.9758 62.6283 49.9422C62.7265 49.8998 62.809 49.8276 62.864 49.7359C62.9191 49.6441 62.944 49.5374 62.9352 49.4308C62.9021 48.3524 62.5718 47.3042 61.9806 46.4017C61.3895 45.4992 60.5606 44.7776 59.5853 44.3164C59.5239 44.2923 59.4582 44.2809 59.3923 44.283C59.3264 44.285 59.2615 44.3005 59.2018 44.3284C59.142 44.3564 59.0886 44.3962 59.0447 44.4454C59.0009 44.4947 58.9675 44.5524 58.9466 44.6149C58.9258 44.6775 58.9179 44.7437 58.9234 44.8094C58.929 44.8751 58.9478 44.939 58.9789 44.9972C59.0099 45.0554 59.0525 45.1067 59.104 45.1479C59.1555 45.1891 59.2148 45.2194 59.2784 45.237C59.8492 45.5178 60.3568 45.9121 60.7701 46.3958C61.1834 46.8794 61.4937 47.4422 61.6822 48.0499C61.3265 47.898 60.9437 47.8197 60.557 47.8197C60.1436 47.8589 59.746 47.998 59.3985 48.2253C59.051 48.4525 58.764 48.7609 58.5624 49.1239C58.5303 49.1793 58.5096 49.2404 58.5012 49.3039C58.4929 49.3673 58.4971 49.4318 58.5138 49.4935C58.5304 49.5553 58.5591 49.6132 58.5981 49.6638C58.6372 49.7145 58.6859 49.757 58.7414 49.7888C58.8046 49.875 58.8945 49.9379 58.9971 49.9678Z" fill="#F18380"/>
</svg>
