<svg width="266" height="561" viewBox="0 0 266 561" fill="none" xmlns="http://www.w3.org/2000/svg">
<path d="M129.968 19.1534C131.022 15.3497 130.635 11.2904 128.879 7.75518C127.123 4.21995 124.123 1.45807 120.455 0C118.997 1.4576 119.739 6.11171 119.739 6.11171C114.589 3.69815 108.812 2.95601 103.219 3.98923C103.321 7.56523 104.668 10.9934 107.03 13.681C104.168 13.9694 101.416 14.9336 99 16.4939C99.3664 18.1794 100.128 19.7537 101.221 21.0874C102.315 22.4211 103.71 23.4761 105.291 24.1655C103.681 26.0502 102.573 28.3107 102.069 30.7375C104.816 31.5297 107.718 31.6176 110.507 30.9933C110.057 32.4046 109.875 33.8877 109.97 35.3661C112.62 35.7549 115.322 35.5556 117.885 34.7821C120.449 34.0087 122.81 32.6802 124.802 30.891C127.444 27.4515 129.216 23.4248 129.968 19.1534Z" fill="#E69D7E"/>
<path d="M114.164 32.9628C113.755 39.5859 109.587 49.6357 110.686 58.0489C112.22 69.9143 126.899 69.7864 132.576 69.7864H140.989V32.9628H114.164Z" fill="#E69D7E"/>
<path d="M127.052 56.1561V77.8668C127.052 77.8668 128.766 85.3338 140.222 85.3338C142.501 85.526 144.768 84.8381 146.556 83.4114C148.344 81.9847 149.518 79.9274 149.837 77.6622V56.1817L127.052 56.1561Z" fill="#FBBEAA"/>
<path d="M149.837 74.2355C142.651 77.6622 132.141 74.5935 127.052 65.183V56.1561H149.837V74.2355Z" fill="#F18380"/>
<path d="M164.106 39.4827C164.2 44.6753 163.961 49.8685 163.39 55.0305C162.47 62.4208 159.836 70.6038 146.794 70.6038C133.752 70.6038 127.078 64.6967 124.291 55.0305C122.603 49.2001 119.176 40.5567 120.583 30.5837C121.989 20.6106 127.999 14.0897 142.166 13.7061C156.332 13.3226 165.564 19.69 164.106 39.4827Z" fill="#FBBEAA"/>
<path d="M136.463 43.9326C136.55 44.3179 136.744 44.6709 137.022 44.951C137.301 45.231 137.653 45.4267 138.038 45.5155C138.423 45.6043 138.825 45.5826 139.198 45.4528C139.571 45.3231 139.9 45.0906 140.146 44.7822C140.393 44.4738 140.548 44.1019 140.592 43.7095C140.637 43.317 140.57 42.9199 140.399 42.5639C140.228 42.2079 139.96 41.9075 139.625 41.6972C139.291 41.4869 138.904 41.3754 138.509 41.3754C138.206 41.4071 137.912 41.4987 137.645 41.6449C137.378 41.791 137.142 41.9887 136.952 42.2266C136.762 42.4644 136.62 42.7377 136.536 43.0306C136.453 43.3234 136.428 43.63 136.463 43.9326Z" fill="#403D4F"/>
<path d="M155.463 43.9326C155.55 44.3179 155.743 44.6709 156.022 44.951C156.301 45.231 156.653 45.4267 157.037 45.5155C157.422 45.6043 157.824 45.5826 158.197 45.4528C158.571 45.3231 158.899 45.0906 159.146 44.7822C159.393 44.4738 159.548 44.1019 159.592 43.7095C159.637 43.317 159.57 42.9199 159.399 42.5639C159.228 42.2079 158.959 41.9075 158.625 41.6972C158.291 41.4869 157.904 41.3754 157.509 41.3754C157.206 41.4071 156.912 41.4987 156.645 41.6449C156.378 41.791 156.142 41.9887 155.952 42.2266C155.761 42.4644 155.62 42.7377 155.536 43.0306C155.452 43.3234 155.427 43.63 155.463 43.9326Z" fill="#403D4F"/>
<path d="M142.652 36.6958C142.652 36.6958 142.652 36.6958 142.421 36.4657C142.217 36.2818 141.994 36.119 141.757 35.9798C141.439 35.7847 141.094 35.6382 140.734 35.5451C140.331 35.3963 139.909 35.3101 139.481 35.2894C139.064 35.238 138.644 35.238 138.228 35.2894C137.875 35.3005 137.524 35.3433 137.179 35.4172L136.182 35.6985C136.017 35.7515 135.88 35.8667 135.798 36.0195C135.717 36.1723 135.699 36.3507 135.747 36.5168C135.786 36.6496 135.867 36.7663 135.977 36.8493C136.088 36.9323 136.222 36.9771 136.361 36.9771H137.358C137.655 36.9389 137.956 36.9389 138.253 36.9771C138.594 36.9517 138.936 36.9517 139.276 36.9771C139.608 36.9771 139.941 36.9771 140.248 37.1561C140.555 37.3351 140.81 37.3607 141.066 37.3863L141.603 37.5653H141.833C141.993 37.6347 142.173 37.6388 142.336 37.5766C142.498 37.5144 142.63 37.391 142.703 37.2329C142.748 37.1459 142.771 37.0494 142.771 36.9516C142.771 36.8537 142.748 36.7572 142.703 36.6703L142.652 36.6958Z" fill="#403D4F"/>
<path d="M155.079 37.6674H155.233L155.642 37.514H155.923H156.205C156.431 37.4393 156.661 37.3795 156.895 37.335C157.132 37.2972 157.374 37.2972 157.611 37.335C157.831 37.2968 158.056 37.2968 158.276 37.335H159.094C159.266 37.3284 159.429 37.2554 159.548 37.1314C159.667 37.0075 159.734 36.8421 159.733 36.6701C159.728 36.5432 159.687 36.4204 159.615 36.3162C159.542 36.212 159.442 36.1307 159.324 36.082L158.532 35.8007C158.242 35.7061 157.941 35.6544 157.637 35.6472C157.297 35.5964 156.953 35.5964 156.614 35.6472C155.942 35.7146 155.303 35.9718 154.772 36.3888C154.58 36.5168 154.415 36.682 154.287 36.8747C154.159 37.0281 154.159 37.0793 154.133 37.0793V37.335C154.119 37.4554 154.138 37.5774 154.188 37.6878C154.239 37.7981 154.318 37.8927 154.418 37.9611C154.518 38.0296 154.635 38.0694 154.756 38.0762C154.877 38.0831 154.998 38.0566 155.105 37.9999L155.079 37.6674Z" fill="#403D4F"/>
<path d="M149.837 52.627C150.266 52.637 150.693 52.5528 151.086 52.3805C151.479 52.2082 151.83 51.952 152.113 51.6297C152.224 51.5198 152.311 51.388 152.368 51.2427C152.425 51.0975 152.452 50.9418 152.446 50.7858C152.446 50.5045 151.985 46.9756 151.832 45.6714C151.832 45.5426 151.781 45.419 151.69 45.3279C151.598 45.2367 151.475 45.1855 151.346 45.1855C151.217 45.1855 151.094 45.2367 151.002 45.3279C150.911 45.419 150.86 45.5426 150.86 45.6714C150.86 45.876 151.397 50.5045 151.474 50.7858C151.261 51.0137 151.004 51.195 150.718 51.3183C150.432 51.4415 150.123 51.504 149.812 51.5018C149.683 51.5018 149.559 51.553 149.468 51.6441C149.377 51.7353 149.326 51.8588 149.326 51.9877C149.326 52.1166 149.377 52.2401 149.468 52.3313C149.559 52.4224 149.683 52.4736 149.812 52.4736L149.837 52.627Z" fill="#F18380"/>
<path d="M152.241 57.6646C153.213 57.9203 153.545 59.3524 152.983 61.0145C152.394 62.158 151.44 63.0714 150.272 63.609C149.104 64.1467 147.79 64.2776 146.539 63.9809C145.86 63.9452 145.195 63.7746 144.583 63.479C143.97 63.1833 143.423 62.7686 142.973 62.2591C142.523 61.7496 142.179 61.1555 141.962 60.5115C141.744 59.8675 141.657 59.1866 141.705 58.5085C141.705 57.4089 142.447 56.744 143.879 56.744C146.687 56.8176 149.484 57.1255 152.241 57.6646Z" fill="#73102A"/>
<path d="M141.654 58.5085C141.654 58.5085 141.654 58.355 141.654 58.2527C143.529 57.813 145.502 58.0949 147.179 59.0425C148.856 59.99 150.115 61.5338 150.706 63.3671C149.383 64.0155 147.894 64.2473 146.436 64.032C145.757 63.9901 145.093 63.8131 144.483 63.5113C143.873 63.2096 143.33 62.7892 142.884 62.2749C142.439 61.7605 142.101 61.1624 141.89 60.5157C141.678 59.8689 141.598 59.1865 141.654 58.5085Z" fill="#D65155"/>
<path d="M151.371 59.2248C148.141 59.2512 144.928 58.7502 141.859 57.7416C142.047 57.3953 142.336 57.1144 142.688 56.9363C143.04 56.7581 143.437 56.6912 143.828 56.7443C146.636 56.8178 149.433 57.1257 152.19 57.6649C152.457 57.7548 152.692 57.9217 152.865 58.1446C153.038 58.3675 153.141 58.6365 153.161 58.9179C152.588 59.1261 151.982 59.2301 151.371 59.2248Z" fill="white"/>
<path d="M138.815 27.413C138.815 27.413 134.289 43.063 123.472 47.1801C122.216 47.1957 120.975 46.9087 119.853 46.3435C118.732 45.7782 117.763 44.9512 117.028 43.9325C114.155 37.8897 113.346 31.0704 114.727 24.5233C116.542 16.5449 126.132 6.26492 143.623 8.66868C152.957 6.87864 164.081 8.51525 171.036 17.9513C177.992 27.3874 169.706 40.4547 164.106 42.6283C158.598 39.3118 153.318 35.6297 148.303 31.6068C149.07 34.0105 149.888 39.0994 149.07 39.0994C144.343 36.5824 140.697 32.427 138.815 27.413Z" fill="#E69D7E"/>
<path d="M124.802 49.0725C124.597 45.5948 123.651 41.4009 119.432 42.1425C114.317 42.8841 113.959 56.3094 124.546 54.6984L124.802 49.0725Z" fill="#FBBEAA"/>
<path d="M118.997 49.9678C119.085 49.964 119.171 49.9387 119.246 49.8941C119.322 49.8495 119.386 49.787 119.432 49.7121C119.538 49.4859 119.703 49.2927 119.911 49.1531C120.118 49.0135 120.359 48.9327 120.608 48.9193C120.9 48.9223 121.187 48.9988 121.442 49.1418C121.697 49.2849 121.911 49.4898 122.066 49.7376C122.123 49.8296 122.21 49.8998 122.312 49.9369C122.414 49.9739 122.525 49.9758 122.628 49.9422C122.727 49.8998 122.809 49.8276 122.864 49.7359C122.919 49.6441 122.944 49.5374 122.935 49.4308C122.902 48.3524 122.572 47.3042 121.981 46.4017C121.39 45.4992 120.561 44.7776 119.585 44.3164C119.524 44.2923 119.458 44.2809 119.392 44.283C119.326 44.285 119.262 44.3005 119.202 44.3284C119.142 44.3564 119.089 44.3962 119.045 44.4454C119.001 44.4947 118.968 44.5524 118.947 44.6149C118.926 44.6775 118.918 44.7437 118.924 44.8094C118.929 44.8751 118.948 44.939 118.979 44.9972C119.01 45.0554 119.053 45.1067 119.104 45.1479C119.156 45.1891 119.215 45.2194 119.279 45.237C119.849 45.5178 120.357 45.9121 120.77 46.3958C121.184 46.8794 121.494 47.4422 121.682 48.0499C121.327 47.898 120.944 47.8197 120.557 47.8197C120.144 47.8589 119.746 47.998 119.399 48.2253C119.051 48.4525 118.764 48.7609 118.563 49.1239C118.53 49.1793 118.51 49.2404 118.501 49.3039C118.493 49.3673 118.497 49.4318 118.514 49.4935C118.531 49.5553 118.559 49.6132 118.598 49.6638C118.637 49.7145 118.686 49.757 118.742 49.7888C118.805 49.875 118.895 49.9379 118.997 49.9678Z" fill="#F18380"/>
<g opacity="0.3" filter="url(#filter0_f_110_28)">
<ellipse cx="106.5" cy="14.5" rx="106.5" ry="14.5" transform="matrix(1 0 0 -1 17 544)" fill="#CBCBCB"/>
</g>
<path d="M231.787 82.356C231.889 80.1209 231.291 77.9098 230.076 76.0313C228.204 73.8617 226.803 73.3283 225.958 70.5905C225.309 68.0492 224.271 65.623 222.883 63.3977C221.891 62.0336 220.402 60.9175 220.402 59.8758C220.402 58.8341 222.387 56.8251 225.214 57.3955C226.425 57.7728 227.538 58.4132 228.473 59.2707C229.408 60.1283 230.141 61.1819 230.621 62.3561C230.892 61.6406 231.051 60.8877 231.092 60.1238L231.712 42.9198C231.722 42.5257 231.81 42.1374 231.972 41.778C232.134 41.4185 232.366 41.0952 232.655 40.827C232.944 40.5588 233.284 40.3512 233.655 40.2165C234.025 40.0818 234.419 40.0227 234.813 40.0427C235.44 40.0695 236.042 40.292 236.536 40.6791C236.787 40.8755 240.982 45.9632 245.077 51.0062C249.051 55.9011 252.931 60.7539 253.018 61.0505C252.222 68.2799 250.727 75.4151 248.553 82.356C248.527 83.5148 248.259 84.6554 247.765 85.7043C247.272 86.7533 246.564 87.6874 245.688 88.4466C244.812 89.2057 243.787 89.7732 242.679 90.1125C241.57 90.4518 240.403 90.5555 239.252 90.4168C238.211 90.4515 237.174 90.2619 236.212 89.8608C235.251 89.4596 234.386 88.8563 233.678 88.0917C232.97 87.3272 232.435 86.4193 232.109 85.4296C231.782 84.44 231.673 83.3917 231.787 82.356Z" fill="#FBBEAA"/>
<path d="M235.785 35.8014L218.529 52.7278C218.347 52.4676 218.164 52.1935 217.981 51.9333C217.432 51.1387 216.877 50.3373 216.328 49.5427C216.124 49.2482 215.928 48.9604 215.724 48.6659C214.901 47.481 215.061 45.8765 216.085 44.8693L227.975 33.2027C228.999 32.1955 230.607 32.0723 231.778 32.9146C232.064 33.1252 232.349 33.322 232.635 33.5327C233.423 34.0964 234.21 34.6601 234.997 35.2238C235.255 35.421 235.52 35.6112 235.785 35.8014Z" fill="#E2874A"/>
<g opacity="0.53">
<path d="M234.997 35.2367L217.974 51.9254C217.425 51.1308 216.87 50.3295 216.321 49.5349L232.628 33.5387C233.423 34.1092 234.21 34.6729 234.997 35.2367Z" fill="#D46424"/>
</g>
<path d="M238.822 38.0595C239.453 38.8116 240.091 39.5567 240.729 40.3157C241.626 41.3685 242.509 42.4215 243.399 43.4813C246.833 47.5424 250.254 51.6037 253.688 55.6649C255.531 57.8459 257.374 60.0269 259.217 62.2079C260.395 63.6027 260.296 65.6623 258.999 66.9353L249.19 76.5526C247.893 77.8256 245.829 77.8853 244.453 76.6795C242.309 74.7923 240.159 72.912 238.015 71.0248C234.022 67.5092 230.028 64.0075 226.034 60.4919C224.994 59.5859 223.953 58.6661 222.92 57.7531C222.187 57.1058 221.44 56.4588 220.699 55.8047C219.743 54.9667 219.362 53.7211 219.575 52.5649C219.691 51.8866 220.029 51.2332 220.554 50.7087L233.708 37.8041C234.247 37.2794 234.899 36.9606 235.589 36.8555C236.768 36.6823 238.002 37.0817 238.822 38.0595Z" fill="#F5F5F5"/>
<path d="M243.4 43.4795C246.835 47.5407 250.255 51.602 253.689 55.6632L238.024 71.0299C234.03 67.5143 230.036 64.0126 226.035 60.504L243.4 43.4795Z" fill="#E2874A"/>
<g opacity="0.52">
<path d="M235.501 62.6393C233.448 60.8408 231.409 59.0421 229.363 57.2503L226.053 60.5027C230.047 64.0182 234.04 67.52 238.041 71.0285L253.706 55.6618C253.153 55.0124 252.613 54.3627 252.059 53.7133L243.165 62.4353C241.056 64.4987 237.714 64.5809 235.501 62.6393Z" fill="#E2874A"/>
</g>
<path d="M238.848 37.6984L220.363 55.8279C219.387 56.7862 217.812 56.7777 216.854 55.7878L216.763 55.6991C215.805 54.7231 215.82 53.1549 216.803 52.1897L235.287 34.0602C236.264 33.1019 237.832 33.1173 238.797 34.1003L238.888 34.1889C239.839 35.172 239.824 36.7402 238.848 37.6984Z" fill="#E2874A"/>
<g opacity="0.53">
<path d="M237.799 33.498C238.142 34.4056 237.941 35.4649 237.203 36.1784L218.774 54.252C218.077 54.9374 217.085 55.1291 216.218 54.8427C216.339 55.1659 216.523 55.4675 216.781 55.72L216.816 55.7541C217.789 56.7438 219.391 56.7657 220.381 55.7935L238.811 37.7199C239.801 36.7477 239.822 35.1449 238.85 34.1552L238.815 34.1211C238.522 33.8345 238.174 33.6177 237.799 33.498Z" fill="#D46424"/>
</g>
<path d="M239.266 57.1576C240.952 56.688 242.425 56.2832 244.081 58.3905C243.074 59.6461 241.038 60.3203 238.858 59.9531C236.068 59.4829 234.061 57.4973 234.265 55.4571C235.113 56.5313 236.455 57.7582 238.026 57.4628C238.439 57.3886 238.866 57.2729 239.266 57.1576Z" fill="#5B2500"/>
<path d="M240.132 52.3532C243.005 52.8363 245.054 54.9319 244.7 57.0292C244.694 57.0914 244.674 57.1538 244.661 57.2092C242.623 54.9753 240.606 55.5318 238.94 55.9942C238.541 56.1096 238.169 56.2108 237.797 56.2706C236.625 56.4921 235.427 55.1045 234.766 54.0903C235.723 52.7178 237.841 51.9736 240.132 52.3532Z" fill="#5B2500"/>
<path d="M239.377 47.7212C237.969 45.4737 240.829 42.5099 242.644 41.3518C242.644 41.3518 243.736 40.088 246 42.3519C248.5 44.852 247 46.5631 247 46.5631C245.367 48.3002 241.555 51.1953 239.377 47.7212Z" fill="#FBBEAA"/>
<path d="M243.377 52.073C241.969 49.8255 244.829 46.8617 246.644 45.7036C246.644 45.7036 247.736 44.4398 250 46.7037C252.5 49.2038 251 50.9149 251 50.9149C249.367 52.652 245.555 55.5471 243.377 52.073Z" fill="#FBBEAA"/>
<path d="M247.377 56.073C245.969 53.8255 248.829 50.8617 250.644 49.7036C250.644 49.7036 251.736 48.4398 254 50.7037C256.5 53.2038 255 54.9149 255 54.9149C253.367 56.652 249.555 59.5471 247.377 56.073Z" fill="#FBBEAA"/>
<path d="M252.313 59.6334C251.145 57.7496 253.516 55.2655 255.02 54.2949C255.02 54.2949 255.925 53.2356 257.801 55.1331C259.873 57.2286 258.63 58.6627 258.63 58.6627C257.276 60.1187 254.118 62.5453 252.313 59.6334Z" fill="#FBBEAA"/>
<path d="M147.203 487.134C147.203 484.746 148.151 482.456 149.84 480.768C151.528 479.079 153.818 478.131 156.206 478.131C158.594 478.131 160.884 479.079 162.572 480.768C164.261 482.456 165.209 484.746 165.209 487.134V506.703H147.203V487.134Z" fill="#FBBEAA"/>
<path d="M164.565 490.78C166.772 490.78 167.169 491.748 167.814 493.012C168.86 496.383 170.648 499.477 173.047 502.065C176.629 505.116 180.471 507.847 184.531 510.225V520.593H144.45C144.45 520.593 144.723 512.408 144.921 506.629C145.119 500.85 145.69 493.806 145.64 493.062C145.591 492.318 145.64 490.78 147.004 490.78H164.565Z" fill="#302D3B"/>
<path d="M149.435 507.199C149.43 508.472 149.803 509.717 150.507 510.777C151.211 511.838 152.214 512.665 153.389 513.154C154.564 513.643 155.857 513.773 157.106 513.526C158.354 513.279 159.501 512.666 160.401 511.766C161.301 510.866 161.913 509.72 162.16 508.471C162.407 507.223 162.278 505.929 161.789 504.754C161.299 503.579 160.472 502.576 159.412 501.872C158.352 501.168 157.106 500.795 155.834 500.8C154.139 500.807 152.515 501.483 151.316 502.682C150.117 503.88 149.441 505.504 149.435 507.199Z" fill="#93929C"/>
<path d="M155.834 503.429L154.37 505.587L151.865 506.306L153.453 508.365L153.378 510.969L155.834 510.076L158.289 510.969L158.19 508.365L159.802 506.306L157.297 505.587L155.834 503.429Z" fill="white"/>
<path d="M184.258 510.052C184.258 510.052 189.937 513.053 192.07 514.516C193.058 515.185 193.86 516.094 194.402 517.156C194.944 518.219 195.209 519.401 195.171 520.593H179.595C179.595 520.593 179.917 512.979 184.258 510.052Z" fill="white"/>
<path d="M144.45 520.593V524.884C144.45 525.603 145.095 526 146.186 526H193.46C194.526 526 195.171 525.603 195.171 524.884V520.593H144.45Z" fill="white"/>
<path d="M179.595 507.15C179.732 506.939 179.946 506.79 180.191 506.734C180.437 506.679 180.694 506.721 180.909 506.852C181.016 506.918 181.109 507.005 181.182 507.107C181.255 507.209 181.307 507.324 181.334 507.447C181.362 507.569 181.365 507.696 181.343 507.82C181.321 507.943 181.275 508.061 181.207 508.167L179.545 510.845C179.465 510.984 179.349 511.099 179.209 511.177C179.07 511.256 178.911 511.296 178.751 511.292C178.568 511.289 178.388 511.238 178.23 511.143C178.123 511.077 178.031 510.991 177.958 510.889C177.885 510.787 177.833 510.671 177.805 510.548C177.777 510.426 177.774 510.299 177.796 510.176C177.818 510.052 177.865 509.934 177.933 509.829L179.595 507.15Z" fill="white"/>
<path d="M176.668 505.091C176.749 504.997 176.848 504.919 176.96 504.863C177.071 504.807 177.193 504.773 177.317 504.764C177.441 504.755 177.566 504.77 177.685 504.809C177.803 504.848 177.913 504.91 178.007 504.992C178.102 505.073 178.179 505.172 178.235 505.284C178.291 505.395 178.325 505.517 178.334 505.641C178.343 505.765 178.328 505.89 178.289 506.009C178.25 506.127 178.188 506.237 178.106 506.331L176.172 508.613C176.082 508.718 175.972 508.802 175.849 508.862C175.725 508.922 175.59 508.955 175.452 508.96C175.273 508.957 175.098 508.904 174.947 508.806C174.796 508.709 174.675 508.571 174.597 508.409C174.52 508.247 174.49 508.066 174.509 507.888C174.529 507.709 174.598 507.539 174.708 507.398L176.668 505.091Z" fill="white"/>
<path d="M173.915 502.785C174.112 502.658 174.349 502.607 174.581 502.641C174.814 502.676 175.025 502.793 175.177 502.973C175.329 503.152 175.41 503.38 175.406 503.614C175.402 503.849 175.313 504.074 175.155 504.248L172.948 506.158C172.775 506.305 172.555 506.384 172.328 506.381C172.191 506.386 172.055 506.36 171.931 506.304C171.806 506.248 171.696 506.164 171.609 506.059C171.517 505.973 171.444 505.869 171.394 505.754C171.344 505.639 171.318 505.515 171.318 505.389C171.318 505.264 171.344 505.139 171.394 505.024C171.444 504.909 171.517 504.805 171.609 504.719L173.915 502.785Z" fill="white"/>
<path d="M169.079 501.644L171.559 500.106C171.777 499.977 172.036 499.939 172.282 499.999C172.528 500.059 172.74 500.213 172.873 500.428C172.94 500.535 172.985 500.655 173.005 500.779C173.026 500.904 173.02 501.031 172.99 501.154C172.96 501.276 172.906 501.392 172.83 501.493C172.755 501.594 172.66 501.679 172.551 501.743L170.071 503.281C169.924 503.378 169.751 503.43 169.575 503.429C169.413 503.426 169.255 503.38 169.116 503.298C168.977 503.215 168.862 503.098 168.781 502.958C168.65 502.743 168.607 502.486 168.663 502.241C168.719 501.995 168.868 501.781 169.079 501.644Z" fill="white"/>
<path d="M166.995 498.444L169.772 497.279C170.009 497.18 170.276 497.18 170.513 497.277C170.75 497.375 170.939 497.563 171.037 497.8C171.086 497.915 171.111 498.039 171.111 498.164C171.111 498.29 171.086 498.414 171.037 498.529C170.989 498.644 170.918 498.749 170.828 498.837C170.739 498.924 170.633 498.993 170.517 499.04L167.739 500.205H167.367C167.153 500.194 166.949 500.112 166.786 499.972C166.624 499.832 166.513 499.642 166.47 499.432C166.428 499.222 166.456 499.003 166.551 498.811C166.646 498.619 166.802 498.464 166.995 498.37V498.444Z" fill="white"/>
<path d="M165.259 494.873L168.334 494.104C168.578 494.044 168.835 494.084 169.049 494.215C169.263 494.345 169.416 494.555 169.475 494.798C169.534 495.042 169.495 495.298 169.364 495.512C169.234 495.726 169.024 495.88 168.781 495.939L165.73 496.733H165.507C165.293 496.73 165.086 496.659 164.916 496.529C164.746 496.4 164.623 496.219 164.564 496.013C164.511 495.77 164.554 495.516 164.683 495.304C164.812 495.091 165.019 494.937 165.259 494.873Z" fill="white"/>
<path d="M134.032 361.98C134.305 349.976 142.391 344.172 154.37 344.47C166.35 344.768 174.981 351.043 174.708 363.022L165.209 488.102H147.202L134.032 361.98Z" fill="#FBBEAA"/>
<path d="M132.469 361.906C132.536 359.056 133.163 356.247 134.316 353.639C135.468 351.032 137.123 348.677 139.185 346.709C141.248 344.741 143.677 343.198 146.336 342.169C148.995 341.14 151.83 340.645 154.68 340.712C157.53 340.779 160.339 341.406 162.946 342.558C165.554 343.711 167.909 345.365 169.877 347.428C171.845 349.49 173.387 351.92 174.416 354.579C175.445 357.237 175.94 360.072 175.874 362.922L181.505 491.5H132.47L132.469 361.906Z" fill="#93929C"/>
<path d="M71.3062 487.134C71.3062 484.746 72.2547 482.456 73.9432 480.768C75.6316 479.079 77.9217 478.131 80.3095 478.131C82.6973 478.131 84.9874 479.079 86.6758 480.768C88.3643 482.456 89.3129 484.746 89.3129 487.134V506.703H71.3062V487.134Z" fill="#FBBEAA"/>
<path d="M88.6438 490.78C90.8761 490.78 91.2729 491.748 91.893 493.012C92.9508 496.384 94.7471 499.476 97.1511 502.065C100.728 505.122 104.571 507.853 108.635 510.225V520.593H68.5537C68.5537 520.593 68.8265 512.408 69.025 506.629C69.2234 500.85 69.7691 493.806 69.7443 493.062C69.7195 492.318 69.7442 490.78 71.0836 490.78H88.6438Z" fill="#302D3B"/>
<path d="M73.5142 507.199C73.5093 508.471 73.8819 509.715 74.5848 510.775C75.2876 511.834 76.2892 512.662 77.4625 513.152C78.6359 513.642 79.9283 513.772 81.176 513.527C82.4238 513.282 83.5707 512.672 84.4716 511.775C85.3725 510.878 85.9868 509.733 86.2367 508.486C86.4865 507.24 86.3608 505.947 85.8753 504.771C85.3898 503.596 84.5665 502.591 83.5096 501.884C82.4526 501.177 81.2097 500.8 79.9381 500.8C78.2387 500.8 76.6085 501.473 75.4045 502.673C74.2005 503.872 73.5208 505.5 73.5142 507.199Z" fill="#93929C"/>
<path d="M79.9133 503.429L78.4499 505.587L75.9448 506.306L77.557 508.365L77.4826 510.969L79.9133 510.076L82.3687 510.969L82.2943 508.365L83.9065 506.306L81.3766 505.587L79.9133 503.429Z" fill="white"/>
<path d="M108.336 510.052C108.336 510.052 114.041 513.053 116.149 514.516C117.142 515.18 117.948 516.087 118.49 517.151C119.033 518.215 119.294 519.4 119.25 520.593H103.599C103.599 520.593 104.021 512.979 108.336 510.052Z" fill="white"/>
<path d="M68.5537 520.593V524.884C68.5537 525.603 69.1738 526 70.2651 526H117.588C118.68 526 119.3 525.603 119.3 524.884V520.593H68.5537Z" fill="white"/>
<path d="M103.699 507.15C103.833 506.936 104.048 506.785 104.294 506.729C104.541 506.673 104.799 506.717 105.013 506.852C105.227 506.987 105.378 507.201 105.434 507.448C105.49 507.694 105.446 507.953 105.311 508.167L103.649 510.846C103.563 510.985 103.442 511.099 103.299 511.177C103.155 511.255 102.994 511.295 102.83 511.292C102.654 511.292 102.481 511.241 102.334 511.143C102.228 511.077 102.135 510.991 102.062 510.889C101.989 510.787 101.937 510.671 101.909 510.549C101.881 510.426 101.878 510.299 101.9 510.176C101.922 510.052 101.969 509.934 102.037 509.829L103.699 507.15Z" fill="white"/>
<path d="M100.747 505.091C100.91 504.901 101.142 504.781 101.392 504.758C101.641 504.735 101.891 504.81 102.086 504.967C102.278 505.135 102.398 505.37 102.421 505.624C102.445 505.878 102.369 506.132 102.21 506.331L100.251 508.613C100.165 508.721 100.056 508.809 99.931 508.869C99.8064 508.929 99.6699 508.96 99.5316 508.96C99.3498 508.962 99.1713 508.911 99.0177 508.814C98.8641 508.717 98.742 508.577 98.666 508.412C98.5899 508.247 98.5633 508.063 98.5893 507.883C98.6152 507.703 98.6927 507.535 98.8123 507.398L100.747 505.091Z" fill="white"/>
<path d="M98.019 502.785C98.2163 502.658 98.4531 502.607 98.6853 502.641C98.9175 502.676 99.1292 502.793 99.281 502.973C99.4327 503.152 99.5142 503.38 99.5102 503.614C99.5061 503.849 99.4169 504.074 99.2591 504.248L97.0269 506.158C96.8538 506.305 96.6336 506.384 96.4068 506.381C96.2705 506.384 96.1352 506.357 96.0108 506.301C95.8864 506.245 95.7759 506.163 95.6875 506.059C95.599 505.971 95.5288 505.867 95.4808 505.752C95.4329 505.637 95.4082 505.514 95.4082 505.389C95.4082 505.265 95.4329 505.141 95.4808 505.026C95.5288 504.911 95.599 504.807 95.6875 504.719L98.019 502.785Z" fill="white"/>
<path d="M93.1824 501.644L95.6626 500.106C95.8766 500.016 96.1159 500.005 96.3368 500.077C96.5578 500.148 96.7456 500.297 96.8659 500.496C96.9863 500.694 97.0312 500.93 96.9924 501.159C96.9537 501.388 96.8338 501.595 96.6547 501.743L94.1745 503.281C94.0275 503.378 93.8548 503.43 93.6784 503.429C93.5131 503.427 93.3511 503.383 93.2078 503.301C93.0645 503.218 92.9447 503.1 92.8599 502.958C92.7311 502.74 92.6927 502.481 92.7529 502.235C92.8132 501.989 92.9674 501.777 93.1824 501.644Z" fill="white"/>
<path d="M230.571 92.8421L220.474 148.5C218.808 155.482 221.383 161.799 230.571 162.907C232.267 163.101 233.99 162.99 235.636 162.582C237.282 162.173 238.816 161.475 240.145 160.529C241.474 159.584 242.571 158.412 243.368 157.083C244.165 155.754 244.646 154.297 244.783 152.8L247.862 92.9529C248.67 87.3007 245.868 83.5326 240.971 83.0671C234.963 82.4908 231.783 85.6161 230.571 92.8421Z" fill="#FBBEAA"/>
<path d="M91.0992 498.445L93.8771 497.279C93.9926 497.23 94.1165 497.206 94.2418 497.206C94.367 497.206 94.4909 497.231 94.6064 497.279C94.7219 497.328 94.8265 497.399 94.9142 497.488C95.0019 497.577 95.0709 497.683 95.1172 497.8C95.2098 498.031 95.21 498.288 95.1176 498.519C95.0252 498.75 94.8474 498.937 94.6212 499.04L91.8185 500.206C91.7041 500.231 91.5855 500.231 91.4712 500.206C91.2802 500.206 91.0935 500.149 90.9346 500.043C90.7757 499.937 90.6518 499.787 90.5783 499.61C90.503 499.386 90.5148 499.142 90.6113 498.926C90.7078 498.71 90.8819 498.538 91.0992 498.445Z" fill="white"/>
<path d="M89.3625 494.873L92.4133 494.104C92.6598 494.044 92.9202 494.083 93.1383 494.212C93.3564 494.342 93.5147 494.553 93.579 494.798C93.6086 494.919 93.614 495.044 93.5951 495.167C93.5762 495.289 93.5332 495.407 93.4687 495.513C93.4042 495.619 93.3194 495.711 93.2191 495.784C93.1189 495.858 93.0051 495.91 92.8845 495.939L89.8338 496.733H89.5858C89.3623 496.716 89.1517 496.622 88.99 496.466C88.8283 496.311 88.7255 496.105 88.6991 495.882C88.6727 495.66 88.7245 495.435 88.8455 495.246C88.9665 495.058 89.1493 494.917 89.3625 494.848V494.873Z" fill="white"/>
<path d="M81.1533 361.608C82.3717 355.978 85.7759 351.062 90.6176 347.942C95.4593 344.821 101.342 343.75 106.973 344.966C118.704 347.446 125.029 359.004 122.499 370.736L89.3134 490.16H71.0835L81.1533 361.608Z" fill="#FBBEAA"/>
<path d="M81.1562 359.252C82.5023 353.757 85.9384 349.004 90.7341 346.003C95.5298 343.002 101.307 341.99 106.837 343.182C112.367 344.374 117.215 347.676 120.348 352.386C123.482 357.096 124.655 362.842 123.618 368.404L110.424 491C110.424 491 78.8252 492.885 60 491L81.1562 359.252Z" fill="#93929C"/>
<path d="M238.551 139.402L167.318 85.2827C159.009 79.9749 153.354 82.8024 148.939 88.4822C146.923 91.2313 145.988 94.6258 146.313 98.0195C146.637 101.413 148.199 104.569 150.7 106.886L221.759 159.244C224.263 161.359 227.487 162.426 230.758 162.223C234.03 162.019 237.097 160.561 239.32 158.153L239.642 157.806C240.822 156.547 241.733 155.061 242.319 153.439C242.906 151.816 243.156 150.091 243.054 148.369C242.952 146.647 242.5 144.964 241.725 143.422C240.951 141.88 239.871 140.512 238.551 139.402Z" fill="#FBBEAA"/>
<path d="M150.699 106.861C150.042 106.295 149.443 105.663 148.914 104.976C148.445 103.211 148.385 101.362 148.737 99.5702C149.09 97.7781 149.845 96.0899 150.947 94.6335C154.693 88.8545 162.555 84.3156 166.052 85.1837L169.524 86.9447L208.837 116.708C205.357 124.885 200.657 132.486 194.898 139.253L150.699 106.861Z" fill="#F18380"/>
<path d="M161.439 81.4133L223.082 122.988C222.823 125.115 229.657 81.4133 229.657 81.4133L248.993 83.9297C248.993 83.9297 248.599 128.058 245.713 151.478C244.56 160.828 236.85 164.397 227.646 162.389C223.102 161.397 218.824 159.533 215.017 156.861C198.659 145.379 152.765 113.038 149.013 108.969C142.54 101.95 142.539 96.6918 146.26 90.9128C149.98 85.1338 157.942 80.5452 161.439 81.4133Z" fill="#002776"/>
<path d="M132.469 361.906L119.746 228.691C119.746 213.983 134.9 197.961 157.247 201.408C177.436 204.558 183.588 224.847 181.926 244.069C180.264 263.291 175.775 362.849 175.775 362.849C175.708 365.699 175.08 368.507 173.928 371.115C172.776 373.722 171.121 376.077 169.059 378.045C166.996 380.013 164.566 381.556 161.908 382.585C159.249 383.614 156.414 384.109 153.564 384.042C150.714 383.976 147.905 383.348 145.298 382.196C142.69 381.043 140.335 379.389 138.367 377.326C136.399 375.264 134.857 372.834 133.828 370.175C132.799 367.517 132.303 364.682 132.37 361.832L132.469 361.906Z" fill="#93929C"/>
<path d="M81.1538 359.252L93.8031 226.062C96.4818 211.602 114.464 198.779 135.769 206.369C154.991 213.239 157.223 234.321 151.965 252.899C146.707 271.476 123.616 368.404 123.616 368.404C122.27 373.899 118.834 378.652 114.038 381.653C109.242 384.654 103.465 385.666 97.9349 384.474C92.4047 383.282 87.5575 379.98 84.4238 375.27C81.29 370.56 80.1169 364.813 81.1538 359.252Z" fill="#93929C"/>
<path d="M151.965 252.899C146.731 271.476 123.615 368.405 123.615 368.405" stroke="#5E5D63" stroke-width="0.75" stroke-miterlimit="10"/>
<path d="M148.244 79.3049C148.244 79.3049 159.207 81.2147 161.34 81.7852C162.599 82.0806 163.762 82.6907 164.721 83.5583C165.679 84.4259 166.402 85.5226 166.821 86.7457C168.186 89.9949 175.205 111.275 175.85 113.582C176.286 116.123 175.876 118.737 174.684 121.023C173.667 123.801 168.409 136.45 168.409 136.45L167.615 177.201L138.002 181.898L109.627 177.201C109.627 177.201 99.7056 101.404 99.2095 96.7164C98.7135 92.0287 101.045 82.9758 106.65 81.8348C112.256 80.6939 127.633 79.3546 127.633 79.3546L148.244 79.3049Z" fill="#FBBEAA"/>
<path d="M169.006 160.816V175.142C149.61 176.928 118.705 175.663 107.097 175.142C106.551 171.05 105.981 164.105 105.386 159.492C121.185 159.889 147.279 161.361 169.006 160.816Z" fill="white"/>
<path d="M66.7183 173.555L98.4905 89.9453C102.732 81.0164 109.007 80.4211 115.852 82.9014C119.018 84.1644 121.608 86.5495 123.127 89.6012C124.646 92.6529 124.988 96.1572 124.087 99.4448L91.3721 181.566C90.3805 184.69 88.217 187.309 85.3358 188.872C82.4546 190.435 79.0799 190.821 75.9201 189.949L75.4488 189.825C73.7821 189.371 72.2254 188.581 70.8737 187.505C69.522 186.429 68.4037 185.089 67.5868 183.566C66.7699 182.044 66.2716 180.371 66.1223 178.65C65.973 176.929 66.1758 175.195 66.7183 173.555Z" fill="#FBBEAA"/>
<path d="M79.8877 138.881L98.4896 89.9452C98.9885 88.872 99.5776 87.8432 100.251 86.8697C102.529 85.4431 105.138 84.6295 107.823 84.5078C110.509 84.3861 113.18 84.9605 115.579 86.1752C118.364 87.5304 120.602 89.796 121.924 92.597C123.245 95.3981 123.571 98.5665 122.846 101.578C122.846 101.875 122.672 102.446 122.523 103.215L103.326 151.456C94.9409 148.432 87.0442 144.195 79.8877 138.881Z" fill="#F18380"/>
<path d="M100.226 85.4811L64.9141 177.129C93.918 167.848 95.5 172.5 101 158C101 158 124.483 101.95 125.178 98.1304C125.902 95.1192 125.577 91.9509 124.255 89.1499C122.934 86.3489 120.695 84.0832 117.91 82.728C110.147 78.7596 102.409 82.356 100.226 85.4811Z" fill="#002776"/>
<path d="M94.0309 225.611C94.5736 218.782 101.9 192.6 109.77 177.685C109.77 177.685 126.935 174.964 137.99 175C149.525 175.038 167.445 177.685 167.445 177.685C172.577 189.297 178.423 214.665 180.125 220.138C181.153 223.358 181.278 226.797 180.486 230.083C179.695 233.369 178.017 236.375 175.635 238.775C169.789 245.407 154.716 253 151.238 253C136.273 250.864 121.605 247.009 107.525 241.512C99.5814 238.184 93.5128 232.464 94.0309 225.611Z" fill="#93929C"/>
<path d="M148.765 79.4453C148.765 79.4453 159.807 81.3689 161.98 81.9435C163.245 82.2475 164.413 82.8642 165.378 83.7372C166.343 84.6102 167.073 85.7114 167.501 86.9399C168.85 90.2125 175.92 111.647 176.594 113.97C177.034 116.53 176.621 119.162 175.42 121.465C174.421 124.188 169.1 136.904 169.1 136.904L168.3 177.949H109.868C109.868 177.949 99.95 101.629 99.4754 96.9326C99.0007 92.236 101.324 83.0927 106.97 81.9435C112.616 80.7943 128.08 79.4453 128.08 79.4453H148.765Z" fill="white"/>
<path d="M127.33 79.4453C129.641 87.5821 130.942 95.9725 131.202 104.427V214.972C131.202 218.369 129.728 218.594 127.955 218.594H96.4526C94.8288 218.594 92.3556 217.545 93.155 215.222C93.9544 212.898 100.999 191.789 107.869 177.374C107.869 177.374 98.0265 98.0568 98.0265 94.3095C98.0265 90.5622 100.774 82.9677 105.521 81.8185C110.268 80.6694 127.43 78.6958 127.43 78.6958L127.33 79.4453Z" fill="#002776"/>
<path d="M149.589 79.7206C150.988 90.3445 151.822 101.035 152.087 111.747V215.472C152.087 217.82 152.687 218.545 154.91 218.545H180.067C181.741 218.545 182.365 217.521 181.941 215.447C181.516 213.374 170.374 177.974 170.374 177.974L171.348 137.229C171.348 137.229 177.069 118.043 177.294 116.519C177.566 114.614 177.387 112.671 176.769 110.848C176.07 109.024 168.076 87.6149 167.326 86.066C166.821 85.0119 166.096 84.0784 165.2 83.3285C164.304 82.5786 163.257 82.0298 162.13 81.7191C159.432 81.0696 149.514 79.2209 149.514 79.2209L149.589 79.7206Z" fill="#002776"/>
<path d="M131.203 143.799C131.203 143.799 116.788 112.696 115.764 110.673C114.74 108.649 115.339 106.626 117.787 107C120.236 107.375 131.677 110.348 131.677 110.348L131.203 143.799Z" fill="#003399"/>
<path d="M131.652 111.422C131.652 111.422 118.911 101.754 117.787 100.955C117.251 100.539 116.858 99.9675 116.661 99.3186C116.464 98.6697 116.473 97.9756 116.688 97.3324C117.163 96.2581 123.608 77.3468 124.407 76.0478C125.289 74.9469 126.267 73.927 127.33 73C127.33 73 129.704 83.5673 130.503 88.7386C131.294 96.2735 131.678 103.846 131.652 111.422Z" fill="#003399"/>
<path d="M152.112 143.799C152.112 143.799 166.527 112.696 167.526 110.673C168.525 108.649 167.951 106.626 165.502 107C163.054 107.375 151.638 110.348 151.638 110.348L152.112 143.799Z" fill="#003399"/>
<path d="M151.638 111.422C151.638 111.422 162.979 101.754 163.979 100.955C164.459 100.498 164.777 99.8978 164.885 99.2442C164.993 98.5906 164.886 97.9195 164.578 97.3326C163.954 96.2584 153.911 79.4456 152.937 78.2714C151.905 77.167 150.785 76.1477 149.589 75.2236C149.589 75.2236 149.364 78.0716 149.439 80.5198C149.514 82.968 151.638 111.422 151.638 111.422Z" fill="#003399"/>
<g filter="url(#filter1_d_110_28)">
<rect x="117" y="120.672" width="40.9288" height="58.3236" rx="1" transform="rotate(-6.55484 117 120.672)" fill="#EFEFEF"/>
</g>
<path d="M136.217 146.811C139.063 145.609 141.637 143.827 143.775 141.578C145.098 140.189 146.599 138.984 148.236 137.994C149.197 137.394 150.026 136.601 150.671 135.667C151.524 134.217 152.23 132.686 152.777 131.098C152.98 129.73 153.446 128.411 154.147 127.217C154.815 126.605 157.169 126.932 158.392 129.308C158.813 130.366 159.004 131.505 158.952 132.649C158.899 133.793 158.605 134.916 158.088 135.942C157.48 137.172 157.004 138.463 156.667 139.792L156.889 139.925C158.752 138.936 160.742 138.219 162.8 137.795C163.546 137.628 164.323 137.719 165.006 138.051C165.69 138.384 166.239 138.94 166.566 139.629C166.893 140.319 166.978 141.102 166.808 141.852C166.638 142.602 166.223 143.276 165.629 143.765C168.84 144.134 168.476 149.086 165.719 149.741C166.31 149.988 166.808 150.414 167.147 150.959C167.486 151.504 167.649 152.142 167.614 152.788C167.579 153.434 167.349 154.056 166.953 154.569C166.557 155.083 166.016 155.464 165.402 155.661C167.36 157.466 165.929 160.441 162.374 160.454C159.485 160.748 151.76 161.957 149.072 162.536C146.385 163.114 140.983 161.835 139.247 162.372C136.664 163.318 133.664 163.334 131.376 156.537C129.087 149.74 133.559 147.69 136.217 146.811Z" fill="#FBBEAA"/>
<path d="M138 167L85.0001 189.5C77.7763 192.873 69.245 189.929 66.0001 181.5C65.4067 179.929 65.3666 177.36 65.4402 175.682C65.5137 174.004 65.9274 172.359 66.656 170.845C67.3846 169.332 68.734 166.604 69.9999 165.5C71.2657 164.396 75.7765 162.359 77.3748 161.843L137 145.5L138 167Z" fill="#002776"/>
<defs>
<filter id="filter0_f_110_28" x="0" y="498" width="247" height="63" filterUnits="userSpaceOnUse" color-interpolation-filters="sRGB">
<feFlood flood-opacity="0" result="BackgroundImageFix"/>
<feBlend mode="normal" in="SourceGraphic" in2="BackgroundImageFix" result="shape"/>
<feGaussianBlur stdDeviation="8.5" result="effect1_foregroundBlur_110_28"/>
</filter>
<filter id="filter1_d_110_28" x="117.108" y="116.107" width="49.1041" height="62.3995" filterUnits="userSpaceOnUse" color-interpolation-filters="sRGB">
<feFlood flood-opacity="0" result="BackgroundImageFix"/>
<feColorMatrix in="SourceAlpha" type="matrix" values="0 0 0 0 0 0 0 0 0 0 0 0 0 0 0 0 0 0 127 0" result="hardAlpha"/>
<feOffset dx="2"/>
<feComposite in2="hardAlpha" operator="out"/>
<feColorMatrix type="matrix" values="0 0 0 0 0.603922 0 0 0 0 0.6 0 0 0 0 0.631373 0 0 0 1 0"/>
<feBlend mode="normal" in2="BackgroundImageFix" result="effect1_dropShadow_110_28"/>
<feBlend mode="normal" in="SourceGraphic" in2="effect1_dropShadow_110_28" result="shape"/>
</filter>
</defs>
</svg>
