<svg width="211" height="521" viewBox="0 0 211 521" fill="none" xmlns="http://www.w3.org/2000/svg">
    <path d="M100.154 69.0236H69.7473V104.784H100.154V69.0236Z" fill="#FBBEAA"/>
    <path d="M69.8647 69.0236H100.147V88.9746C98.8247 89.139 97.4932 89.2234 96.1603 89.2272C85.7127 89.2272 74.0286 86.3734 69.7638 76.3979L69.8647 69.0236Z" fill="#F18380"/>
    <path d="M115.864 42.4812C115.637 52.8103 115.864 60.9675 114.021 68.8469C112.177 76.7263 106.444 83.1662 93.817 83.1662C81.1897 83.1662 66.7947 79.0497 65.7845 63.2657C63.7136 61.018 60.3548 53.0123 60.2285 44.047C60.1022 35.0816 60.7841 16.1155 81.2403 13.2112C101.696 10.307 116.445 17.8075 115.864 42.4812Z" fill="#FBBEAA"/>
    <path d="M105.204 50.613C105.204 52.002 106.038 53.1384 107.073 53.1384C108.108 53.1384 108.942 52.002 108.942 50.613C108.942 49.224 108.108 48.0875 107.073 48.0875C106.038 48.0875 105.204 49.123 105.204 50.613Z" fill="#403D4F"/>
    <path d="M82.4775 50.613C82.4775 52.002 83.3109 53.1384 84.3463 53.1384C85.3818 53.1384 86.2152 52.002 86.2152 50.613C86.2152 49.224 85.3565 48.0875 84.3463 48.0875C83.3362 48.0875 82.4775 49.123 82.4775 50.613Z" fill="#403D4F"/>
    <path d="M87.1471 42.6831C86.945 42.9104 85.6318 42.6831 84.6216 42.6831C83.6114 42.6831 81.6668 42.6831 81.6668 42.4558C81.6668 42.2285 82.6265 40.6627 85.152 40.9405C86.8693 41.1425 87.3744 42.279 87.1471 42.6831Z" fill="#403D4F"/>
    <path d="M104.825 42.6831C104.977 42.9104 106.113 42.6831 106.997 42.6831C107.881 42.6831 109.522 42.6831 109.522 42.4558C109.522 42.2285 108.714 40.6627 106.568 40.9405C104.825 41.1425 104.497 42.279 104.825 42.6831Z" fill="#403D4F"/>
    <path d="M97.251 61.0684C99.0188 61.0684 100.433 59.9067 100.484 59.0733L99.9027 51.9515C99.8836 51.7751 99.7963 51.613 99.6596 51.4998C99.5228 51.3866 99.3473 51.3313 99.1703 51.3454C99.084 51.3518 98.9998 51.3752 98.9226 51.4143C98.8453 51.4533 98.7766 51.5072 98.7202 51.5729C98.6639 51.6387 98.6211 51.7149 98.5943 51.7972C98.5676 51.8795 98.5574 51.9663 98.5642 52.0526L99.1199 58.9218C98.8646 59.1986 98.5507 59.4148 98.2012 59.5546C97.8516 59.6945 97.4752 59.7544 97.0995 59.7299C97.0112 59.7231 96.9224 59.7341 96.8385 59.7625C96.7546 59.7908 96.6773 59.8358 96.6112 59.8948C96.5452 59.9538 96.4917 60.0255 96.4541 60.1057C96.4165 60.1858 96.3955 60.2728 96.3924 60.3613C96.389 60.4509 96.4033 60.5402 96.4345 60.6242C96.4657 60.7083 96.5131 60.7853 96.5741 60.851C96.635 60.9167 96.7084 60.9697 96.7899 61.007C96.8714 61.0443 96.9594 61.0652 97.049 61.0684H97.251Z" fill="#F18380"/>
    <path d="M95.8098 66.1185C97.9312 66.2448 101.492 67.4318 101.517 68.3662C101.484 70.1011 100.768 71.753 99.5247 72.9634C98.2812 74.1737 96.6106 74.845 94.8754 74.8313C87.097 74.8313 87.1223 68.8208 87.4506 67.5075C87.7789 66.1943 91.8701 65.866 95.8098 66.1185Z" fill="#73102A"/>
    <path d="M87.4272 69.6041C89.531 68.8422 91.8259 68.7875 93.9636 69.4484C96.1013 70.1093 97.965 71.4497 99.2716 73.2661C98.0645 74.3366 96.4894 74.8979 94.8773 74.8318C89.3718 74.8318 87.7808 71.8518 87.4272 69.6041Z" fill="#D65155"/>
    <path d="M87.7561 67.0535C88.8421 66.1191 92.4029 65.8918 95.8123 66.1191C97.9084 66.2454 101.444 67.4071 101.52 68.3668C96.8926 69.0227 92.1758 68.5727 87.7561 67.0535Z" fill="white"/>
    <path d="M78.5111 33.3388C78.5111 39.5514 75.9856 42.2536 74.0915 43.4406C72.1975 44.6275 70.8085 45.8145 70.8085 47.9611V55.5375C70.8085 56.3962 70.3034 57.0528 69.6468 56.8255C68.9902 56.5982 66.5404 55.3607 66.5404 54.1232L58.9641 48.7693C56.9934 44.1015 56.2626 39.0036 56.8427 33.9701C57.0682 31.1479 57.9001 28.4075 59.2818 25.9362C60.6634 23.4649 62.5622 21.321 64.8484 19.6508C64.8484 14.2716 69.8993 4.70016 80.5315 0.911987C80.7915 2.85635 80.7915 4.82668 80.5315 6.77103C85.3551 2.402 101.594 1.06352 107.427 3.08388C106.572 4.9974 105.334 6.71611 103.791 8.13478C111.76 9.97507 118.85 14.506 123.868 20.9641C122.27 23.0487 120.247 24.7703 117.933 26.015C120.587 29.6657 122.162 33.9884 122.479 38.4907C117.685 38.0468 112.985 36.8803 108.539 35.0308C108.787 37.2504 108.659 39.4959 108.16 41.6728C103.109 41.3697 93.5628 36.2178 90.8605 32.0761C91.2834 35.4494 91.0952 38.8713 90.3049 42.1779C85.6099 40.4188 81.5172 37.3514 78.5111 33.3388Z" fill="#403D4F"/>
    <path d="M66.3123 55.4114C66.3123 52.5323 65.7315 48.2896 61.6655 48.1886C57.5995 48.0876 57.0439 51.1686 57.1702 56.0175C57.2965 60.8663 62.2211 64.9828 66.5396 63.316L66.3123 55.4114Z" fill="#FBBEAA"/>
    <path d="M60.327 58.8963C60.5011 58.8596 60.655 58.7587 60.758 58.6136C60.861 58.4685 60.9054 58.2899 60.8826 58.1134C60.8831 57.9741 60.9209 57.8374 60.9919 57.7176C61.063 57.5977 61.1647 57.4989 61.2866 57.4315C61.5495 57.2598 61.8566 57.1684 62.1705 57.1684C62.4845 57.1684 62.7916 57.2598 63.0544 57.4315C63.1619 57.4936 63.2839 57.5263 63.408 57.5263C63.5321 57.5263 63.6541 57.4936 63.7616 57.4315C63.8712 57.369 63.9605 57.2762 64.0187 57.1642C64.0769 57.0522 64.1016 56.9258 64.0899 56.8002C63.7111 52.7342 61.1351 51.9766 61.0341 51.9513C60.9479 51.9247 60.8571 51.9162 60.7674 51.9262C60.6777 51.9362 60.5911 51.9647 60.5129 52.0097C60.4347 52.0547 60.3666 52.1154 60.3129 52.1879C60.2592 52.2604 60.221 52.3432 60.2007 52.4311C60.1541 52.5986 60.1758 52.7777 60.261 52.9292C60.3462 53.0806 60.488 53.1922 60.6553 53.2393C61.1572 53.4714 61.5946 53.8229 61.9292 54.2632C62.2638 54.7035 62.4854 55.219 62.5746 55.7647C61.8826 55.652 61.1732 55.7957 60.5795 56.1688C60.2291 56.3667 59.9457 56.6647 59.7657 57.0246C59.5857 57.3846 59.5173 57.7901 59.5693 58.1892C59.5604 58.2887 59.5743 58.389 59.61 58.4824C59.6457 58.5757 59.7022 58.6597 59.7753 58.7279C59.8484 58.7961 59.9361 58.8468 60.0317 58.8759C60.1273 58.9051 60.2283 58.9121 60.327 58.8963Z" fill="#F18380"/>
    <path d="M39.5351 103.618C33.8068 110.983 6.20706 188.39 6.20706 188.39C36.8945 178.57 21.6424 174.806 38.3325 177.614C38.3325 177.614 64.4083 122.275 65.143 118.234C65.9099 115.048 65.5657 111.696 64.1675 108.732C62.7692 105.769 60.4007 103.372 57.4541 101.938C49.2403 97.7389 45.2634 96.253 39.5351 103.618Z" fill="#002776"/>
    <path d="M185.508 103.052C185.621 100.568 184.957 98.1107 183.606 96.0232C181.527 93.6122 179.969 90.7968 179.031 87.7544C178.309 84.9302 177.156 82.2341 175.613 79.7612C174.51 78.2452 172.857 77.005 172.857 75.8473C172.857 74.6897 175.062 72.4571 178.204 73.0911C179.55 73.5103 180.786 74.2219 181.825 75.1749C182.864 76.1279 183.679 77.2987 184.212 78.6036C184.513 77.8085 184.69 76.9719 184.736 76.123L185.425 59.2271C185.436 58.7891 185.534 58.3576 185.714 57.9581C185.894 57.5587 186.152 57.1994 186.473 56.9013C186.794 56.6033 187.172 56.3726 187.583 56.2229C187.995 56.0733 188.433 56.0076 188.87 56.0298C189.567 56.0595 190.237 56.3068 190.786 56.737C191.334 57.1671 191.735 57.7584 191.93 58.4278V57.656C192.036 56.8347 192.449 56.0838 193.085 55.5542C193.722 55.0246 194.536 54.7555 195.362 54.8008C196.189 54.8462 196.969 55.2027 197.543 55.7988C198.118 56.3948 198.447 57.1863 198.462 58.0143V60.3572C198.738 59.6349 199.265 59.0358 199.945 58.6692C200.626 58.3025 201.416 58.1928 202.171 58.3598C202.926 58.5268 203.596 58.9595 204.059 59.5791C204.521 60.1987 204.746 60.964 204.691 61.7353V63.2236C204.988 62.7023 205.43 62.2787 205.964 62.0045C206.497 61.7304 207.099 61.6177 207.696 61.6801C208.513 61.7838 209.257 62.2014 209.772 62.8445C210.286 63.4876 210.53 64.3056 210.452 65.1254L209.101 79.3753C208.217 87.4092 206.555 95.3384 204.14 103.052C204.111 104.339 203.813 105.607 203.264 106.773C202.716 107.938 201.93 108.976 200.956 109.82C199.983 110.664 198.844 111.294 197.612 111.671C196.38 112.048 195.083 112.164 193.804 112.009C192.647 112.048 191.495 111.837 190.426 111.392C189.357 110.946 188.397 110.275 187.61 109.426C186.823 108.576 186.228 107.567 185.865 106.467C185.503 105.368 185.381 104.203 185.508 103.052Z" fill="#FBBEAA"/>
    <path d="M186.059 81.0019C185.012 81.0019 184.929 80.3404 184.46 79.1277C186.803 79.1277 193.611 79.5686 196.588 85.3017C193.584 81.1673 187.823 81.0019 186.059 81.0019ZM191.406 59.1999C191.406 59.1999 191.241 60.1646 191.075 61.5703C191.075 62.2869 190.91 63.1413 190.855 64.0233C190.8 64.9053 190.717 65.87 190.634 66.7796C190.634 68.709 190.497 70.6108 190.497 72.0441C190.497 73.4773 190.497 74.442 190.497 74.442C190.497 74.4879 190.506 74.5333 190.524 74.5753C190.543 74.6174 190.569 74.6551 190.603 74.6862C190.637 74.7173 190.677 74.7411 190.72 74.756C190.763 74.7709 190.809 74.7766 190.855 74.7727C190.932 74.7688 191.007 74.7398 191.066 74.6901C191.126 74.6404 191.168 74.5728 191.186 74.4972C191.186 74.4972 191.351 73.5324 191.489 72.0992C191.627 70.6659 191.847 68.7641 191.93 66.8623C191.93 65.8976 191.93 64.9329 191.93 64.106C191.93 63.2791 191.93 62.3696 191.93 61.653C191.93 60.1922 191.93 59.255 191.93 59.255C191.93 59.2091 191.921 59.1638 191.902 59.1217C191.884 59.0797 191.857 59.0419 191.823 59.0108C191.79 58.9797 191.75 58.956 191.707 58.9411C191.663 58.9262 191.617 58.9204 191.572 58.9242C191.519 58.9546 191.475 58.9991 191.446 59.0526C191.417 59.1061 191.403 59.1666 191.406 59.2275V59.1999ZM197.801 61.1293C197.801 61.1293 197.635 61.9562 197.442 63.1689C197.442 63.8028 197.249 64.5194 197.167 65.2912C197.084 66.0629 197.001 66.8898 196.919 67.7167C196.919 69.3705 196.726 71.0242 196.698 72.2645C196.671 73.5048 196.698 74.3593 196.698 74.3593C196.702 74.4028 196.714 74.4452 196.734 74.484C196.754 74.5228 196.781 74.5573 196.814 74.5855C196.848 74.6137 196.886 74.635 196.928 74.6482C196.969 74.6615 197.013 74.6663 197.057 74.6625C197.131 74.6574 197.201 74.6273 197.256 74.5773C197.311 74.5273 197.348 74.4602 197.36 74.3869C197.36 74.3869 197.525 73.56 197.718 72.3472C197.911 71.1345 198.076 69.4532 198.214 67.827C198.214 67.0001 198.214 66.1732 198.38 65.4015C198.545 64.6297 198.38 63.8855 198.38 63.2516C198.38 62.0113 198.38 61.1844 198.38 61.1844C198.38 61.1385 198.37 61.0932 198.352 61.0512C198.334 61.0091 198.307 60.9713 198.273 60.9402C198.239 60.9091 198.2 60.8854 198.156 60.8705C198.113 60.8556 198.067 60.8498 198.021 60.8537C197.96 60.8789 197.907 60.9206 197.868 60.9741C197.829 61.0276 197.806 61.0908 197.801 61.1568V61.1293ZM203.975 63.7477C203.975 63.7477 203.809 64.4368 203.589 65.4842C203.589 65.9803 203.368 66.5867 203.286 67.2482C203.203 67.9097 203.093 68.5987 202.983 69.2878C202.79 70.6935 202.707 72.044 202.652 73.1466C202.597 74.2491 202.652 74.9106 202.652 74.9106C202.652 74.9565 202.661 75.0018 202.679 75.0438C202.698 75.0859 202.724 75.1237 202.758 75.1548C202.792 75.1859 202.832 75.2096 202.875 75.2245C202.918 75.2394 202.964 75.2452 203.01 75.2413C203.08 75.2377 203.148 75.2116 203.202 75.167C203.257 75.1224 203.296 75.0615 203.313 74.9933C203.313 74.9933 203.506 74.3042 203.699 73.2844C203.892 72.2646 204.168 70.8313 204.333 69.4532C204.333 68.7365 204.471 68.0475 204.526 67.386C204.581 66.7245 204.526 66.1181 204.526 65.5944C204.526 64.547 204.526 63.8304 204.526 63.8304C204.526 63.7845 204.517 63.7392 204.498 63.6971C204.48 63.6551 204.453 63.6173 204.42 63.5862C204.386 63.5551 204.346 63.5314 204.303 63.5165C204.259 63.5016 204.213 63.4958 204.168 63.4996C204.117 63.528 204.073 63.5676 204.04 63.6153C204.006 63.663 203.984 63.7178 203.975 63.7753V63.7477Z" fill="#F18380"/>
    <path d="M118.824 100.965L178.895 141.48C178.643 143.552 183.511 100.965 183.511 100.965L205.745 103.04C205.745 103.04 204.446 146.399 201.174 169.298C199.876 178.386 192.312 181.832 183.343 179.875C178.914 178.909 174.746 177.092 171.036 174.488C155.094 163.299 110.372 131.783 106.715 127.818C100.407 120.978 100.407 115.854 104.032 110.222C107.658 104.59 115.416 100.119 118.824 100.965Z" fill="#001A4B"/>
    <path d="M67.8073 331.514C67.7272 338.006 70.2291 344.264 74.7628 348.911C79.2965 353.558 85.4906 356.213 91.9824 356.294C98.4741 356.374 104.732 353.872 109.379 349.338C114.026 344.804 116.682 338.61 116.762 332.119C116.762 332.119 119.859 241.764 120.917 223.457C121.974 205.149 117.19 190.468 96.5907 188.353C75.2361 186.162 63.8537 202.858 63.8537 218.37C63.8537 233.882 67.8073 331.514 67.8073 331.514Z" fill="#7C7C7C"/>
    <path d="M27.641 329.777C27.2213 332.985 27.442 336.245 28.2902 339.368C29.1385 342.491 30.5975 345.414 32.5829 347.97C34.5682 350.525 37.0405 352.661 39.8568 354.255C42.6731 355.848 45.7774 356.868 48.9902 357.254C52.2029 357.64 55.4604 357.386 58.5741 356.505C61.6879 355.624 64.596 354.134 67.1304 352.122C69.6648 350.111 71.7751 347.616 73.3392 344.783C74.9034 341.951 75.8903 338.836 76.243 335.619C76.243 335.619 88.9852 246.121 92.007 228.04C95.0289 209.959 91.8308 194.825 71.5842 190.519C50.5822 186.061 37.4622 201.448 35.8757 216.859C34.2892 232.271 27.641 329.777 27.641 329.777Z" fill="#7C7C7C"/>
    <path d="M107.998 437.985C107.998 437.985 106.789 489.332 106.487 497.012C106.185 504.693 101.325 506.783 93.4931 507.463C85.6614 508.143 82.3626 501.923 81.2545 496.987C80.1465 492.052 73.448 441.712 73.448 441.712L107.998 437.985Z" fill="#FBBEAA"/>
    <path d="M107.117 473.794L78.2326 476.892C75.9914 461.001 73.448 441.636 73.448 441.636L107.998 437.909C107.998 437.909 107.545 457.149 107.117 473.794Z" fill="#F18380"/>
    <path d="M67.8069 331.514C67.8466 328.3 68.519 325.125 69.7857 322.17C71.0525 319.216 72.8888 316.54 75.1898 314.295C77.4908 312.05 80.2114 310.28 83.1963 309.087C86.1812 307.893 89.3719 307.3 92.5863 307.339C95.8007 307.379 98.9758 308.051 101.93 309.318C104.885 310.585 107.561 312.421 109.806 314.722C112.051 317.023 113.82 319.744 115.014 322.729C116.207 325.714 116.801 328.904 116.761 332.119L111.725 475.236L72.2138 479.492L67.8069 331.514Z" fill="#7C7C7C"/>
    <path d="M56.2987 439.949C56.2987 439.949 49.6002 490.868 48.4922 498.448C47.3842 506.028 42.3226 507.64 34.4405 507.463C26.5584 507.287 23.9646 500.765 23.3854 495.754C22.8062 490.742 21.5471 439.949 21.5471 439.949H56.2987Z" fill="#FBBEAA"/>
    <path d="M51.4637 475.457H22.4033C21.8996 459.441 21.4211 439.949 21.4211 439.949H56.2987C56.2987 439.949 53.7804 458.937 51.4637 475.457Z" fill="#F18380"/>
    <path d="M27.6408 329.777C28.4771 323.384 31.8021 317.579 36.8934 313.623C41.9847 309.667 48.4312 307.88 54.8326 308.649C61.234 309.419 67.0732 312.683 71.082 317.733C75.0908 322.783 76.9454 329.21 76.2427 335.619L54.3346 480.273H14.5969L27.6408 329.777Z" fill="#7C7C7C"/>
    <path d="M76.2179 335.619L53.6295 479.014" stroke="#565656" stroke-width="0.75" stroke-miterlimit="10" stroke-linecap="round"/>
    <path d="M76.2429 335.619C76.2429 335.619 88.9851 246.121 92.007 228.04" stroke="#565656" stroke-width="0.75" stroke-miterlimit="10" stroke-linecap="round"/>
    <path d="M37.0848 481.424C39.941 481.22 42.773 482.071 45.0431 483.816C47.3131 485.562 48.8632 488.08 49.399 490.893L62.5441 504.366V512.751H20.4141C20.4141 512.751 22.5294 497.642 23.1338 494.242C23.7382 490.843 25.7779 481.424 37.0848 481.424Z" fill="#FBBEAA"/>
    <path d="M49.3733 490.792C49.8517 490.138 50.5316 489.634 51.0101 489.936C51.4886 490.238 64.2057 500.311 64.81 500.815C65.1822 501.164 65.4638 501.599 65.6305 502.082C65.7972 502.564 65.8441 503.08 65.7669 503.585V514.388H19.4819C19.4819 514.388 21.295 498.423 21.4209 497.541C21.5468 496.66 22.4282 495.501 22.9318 495.527C26.1087 496.5 29.4057 497.025 32.7278 497.088C37.1429 497.322 41.5471 496.457 45.5455 494.57C47.0281 493.539 48.3228 492.261 49.3733 490.792Z" fill="black"/>
    <path d="M58.1623 505.322C55.9211 503.66 47.8628 497.364 44.8409 494.997L45.546 494.645C45.6411 494.604 45.7268 494.544 45.7978 494.469C49.0212 496.987 56.601 502.93 58.7667 504.541C60.5975 505.944 61.8515 507.969 62.2922 510.233L61.3101 510.384C60.8947 508.376 59.779 506.582 58.1623 505.322Z" fill="white"/>
    <path d="M20.7411 503.383C24.003 503.417 27.1596 504.543 29.706 506.582C32.0076 508.621 33.5665 511.367 34.1381 514.388H32.7783C32.2221 511.77 30.846 509.397 28.8498 507.614C26.5062 505.737 23.5926 504.716 20.59 504.718L20.7411 503.383Z" fill="white"/>
    <path d="M73.2463 514.363H19.482C19.1065 514.363 18.8021 514.668 18.8021 515.043V520.256C18.8021 520.631 19.1065 520.936 19.482 520.936H73.2463C73.6218 520.936 73.9262 520.631 73.9262 520.256V515.043C73.9262 514.668 73.6218 514.363 73.2463 514.363Z" fill="white"/>
    <path d="M64.684 500.714C65.1625 500.513 67.5045 501.192 70.5515 504.189C71.8202 505.5 72.7334 507.114 73.2049 508.876C73.6764 510.639 73.6906 512.493 73.246 514.262H57.9604C58.8166 504.592 64.2056 500.916 64.684 500.714Z" fill="white"/>
    <path d="M58.817 500.865C58.6282 501.096 58.5382 501.393 58.5665 501.69C58.5948 501.987 58.7391 502.261 58.9681 502.452C59.0804 502.545 59.21 502.614 59.3493 502.657C59.4887 502.7 59.635 502.714 59.7801 502.7C59.9251 502.686 60.0659 502.644 60.1945 502.575C60.323 502.507 60.4368 502.413 60.5293 502.301L63.0476 499.254C63.2363 499.023 63.3263 498.726 63.298 498.429C63.2697 498.132 63.1255 497.859 62.8965 497.667C62.7856 497.571 62.6563 497.499 62.5166 497.454C62.3768 497.41 62.2295 497.394 62.0834 497.408C61.9374 497.422 61.7959 497.466 61.6672 497.536C61.5386 497.607 61.4256 497.703 61.3352 497.818L58.817 500.865Z" fill="white"/>
    <path d="M55.8205 498.573C55.6318 498.804 55.5418 499.101 55.5701 499.398C55.5984 499.695 55.7427 499.968 55.9716 500.16C56.0825 500.256 56.2118 500.328 56.3516 500.373C56.4913 500.417 56.6387 500.433 56.7847 500.419C56.9307 500.405 57.0723 500.361 57.2009 500.291C57.3295 500.22 57.4425 500.124 57.533 500.009L60.0512 496.962C60.2338 496.728 60.3199 496.433 60.2918 496.138C60.2637 495.843 60.1235 495.57 59.9001 495.375C59.7892 495.279 59.6599 495.207 59.5201 495.162C59.3804 495.118 59.233 495.102 59.087 495.116C58.941 495.13 58.7994 495.174 58.6708 495.244C58.5422 495.315 58.4292 495.411 58.3388 495.526L55.8205 498.573Z" fill="white"/>
    <path d="M52.9244 496.307C52.7342 496.531 52.6406 496.821 52.6642 497.114C52.6878 497.407 52.8267 497.678 53.0503 497.869C53.2814 498.057 53.5776 498.147 53.8746 498.119C54.1716 498.091 54.4455 497.947 54.6368 497.718L57.155 494.67C57.2609 494.567 57.345 494.444 57.4024 494.308C57.4598 494.171 57.4894 494.025 57.4894 493.877C57.4894 493.729 57.4598 493.583 57.4024 493.447C57.345 493.311 57.2609 493.187 57.155 493.084C56.9215 492.901 56.6268 492.815 56.3317 492.843C56.0366 492.871 55.7634 493.012 55.5686 493.235L52.9244 496.307Z" fill="white"/>
    <path d="M50.0036 494.016C49.9108 494.128 49.8412 494.258 49.7986 494.397C49.756 494.536 49.7413 494.683 49.7553 494.828C49.7693 494.973 49.8118 495.114 49.8803 495.242C49.9489 495.371 50.0421 495.485 50.1547 495.577C50.3665 495.785 50.6513 495.901 50.9479 495.901C51.2445 495.901 51.5293 495.785 51.7412 495.577L54.2594 492.505C54.4481 492.274 54.5381 491.978 54.5098 491.681C54.4816 491.384 54.3373 491.11 54.1083 490.918C53.9959 490.826 53.8663 490.756 53.727 490.713C53.5877 490.671 53.4413 490.656 53.2963 490.67C53.1513 490.684 53.0105 490.727 52.8819 490.795C52.7533 490.864 52.6395 490.957 52.547 491.07L50.0036 494.016Z" fill="white"/>
    <path d="M96.2631 481.424C99.1193 481.22 101.951 482.071 104.221 483.816C106.492 485.562 108.042 488.08 108.577 490.893L121.697 504.366V512.751H79.5924C79.5924 512.751 81.6825 497.642 82.3121 494.242C82.9417 490.843 84.9563 481.424 96.2631 481.424Z" fill="#FBBEAA"/>
    <path d="M108.552 490.792C109.03 490.138 109.685 489.634 110.189 489.936C110.692 490.238 123.384 500.311 123.963 500.815C124.543 501.319 124.946 501.948 124.946 503.585V514.388H78.6605C78.6605 514.388 80.4736 498.423 80.5995 497.541C80.7254 496.66 81.6068 495.501 82.1104 495.527C85.2873 496.5 88.5844 497.025 91.9064 497.088C96.3137 497.326 100.711 496.461 104.699 494.57C106.193 493.544 107.497 492.266 108.552 490.792Z" fill="black"/>
    <path d="M117.341 505.322C115.099 503.66 107.041 497.364 104.019 494.997L104.699 494.645C104.802 494.604 104.896 494.545 104.976 494.469C108.199 496.987 115.779 502.93 117.945 504.541C119.776 505.944 121.03 507.969 121.47 510.233L120.488 510.384C120.061 508.381 118.947 506.591 117.341 505.322Z" fill="white"/>
    <path d="M79.9192 503.383C83.1811 503.417 86.3376 504.543 88.8841 506.582C91.1856 508.621 92.7446 511.367 93.3162 514.388H91.9563C91.3933 511.767 90.0081 509.394 88.0027 507.614C85.6708 505.734 82.7637 504.711 79.7681 504.718L79.9192 503.383Z" fill="white"/>
    <path d="M132.425 514.363H78.6603C78.2848 514.363 77.9804 514.668 77.9804 515.043V520.256C77.9804 520.631 78.2848 520.936 78.6603 520.936H132.425C132.8 520.936 133.105 520.631 133.105 520.256V515.043C133.105 514.668 132.8 514.363 132.425 514.363Z" fill="white"/>
    <path d="M123.863 500.714C124.341 500.513 126.683 501.192 129.73 504.189C130.999 505.5 131.912 507.114 132.384 508.876C132.855 510.639 132.869 512.493 132.425 514.262H117.139C117.995 504.592 123.384 500.916 123.863 500.714Z" fill="white"/>
    <path d="M117.894 500.865C117.706 501.096 117.616 501.393 117.644 501.69C117.672 501.987 117.816 502.261 118.045 502.452C118.158 502.545 118.287 502.614 118.427 502.657C118.566 502.7 118.712 502.714 118.857 502.7C119.002 502.686 119.143 502.644 119.272 502.575C119.4 502.507 119.514 502.413 119.607 502.301L122.125 499.254C122.308 499.02 122.394 498.726 122.366 498.43C122.338 498.135 122.197 497.862 121.974 497.667C121.863 497.571 121.734 497.499 121.594 497.454C121.454 497.41 121.307 497.394 121.161 497.408C121.015 497.422 120.873 497.466 120.745 497.536C120.616 497.607 120.503 497.703 120.413 497.818L117.894 500.865Z" fill="white"/>
    <path d="M114.999 498.574C114.81 498.805 114.72 499.101 114.748 499.398C114.776 499.695 114.921 499.969 115.15 500.16C115.261 500.256 115.39 500.329 115.53 500.373C115.669 500.418 115.817 500.433 115.963 500.419C116.109 500.405 116.25 500.361 116.379 500.291C116.508 500.22 116.621 500.124 116.711 500.009L119.229 496.962C119.412 496.728 119.498 496.434 119.47 496.139C119.442 495.843 119.302 495.57 119.078 495.375C118.847 495.187 118.551 495.097 118.254 495.125C117.957 495.153 117.683 495.298 117.492 495.527L114.999 498.574Z" fill="white"/>
    <path d="M112.102 496.307C111.997 496.408 111.914 496.529 111.856 496.664C111.799 496.798 111.77 496.942 111.77 497.088C111.77 497.234 111.799 497.378 111.856 497.512C111.914 497.646 111.997 497.767 112.102 497.868C112.333 498.057 112.63 498.147 112.927 498.119C113.224 498.091 113.497 497.946 113.689 497.717L116.207 494.67C116.396 494.439 116.486 494.143 116.457 493.846C116.429 493.549 116.285 493.275 116.056 493.084C115.943 492.991 115.814 492.921 115.675 492.879C115.535 492.836 115.389 492.821 115.244 492.835C115.099 492.85 114.958 492.892 114.829 492.961C114.701 493.029 114.587 493.122 114.495 493.235L112.102 496.307Z" fill="white"/>
    <path d="M109.182 494.016C109.089 494.128 109.019 494.258 108.977 494.397C108.934 494.536 108.92 494.683 108.934 494.828C108.948 494.973 108.99 495.114 109.059 495.242C109.127 495.371 109.22 495.485 109.333 495.577C109.545 495.785 109.83 495.901 110.126 495.901C110.423 495.901 110.708 495.785 110.92 495.577L113.438 492.505C113.626 492.274 113.716 491.978 113.688 491.681C113.66 491.384 113.516 491.11 113.287 490.918C113.174 490.826 113.045 490.756 112.905 490.713C112.766 490.671 112.62 490.656 112.475 490.67C112.33 490.684 112.189 490.727 112.06 490.795C111.932 490.864 111.818 490.957 111.725 491.07L109.182 494.016Z" fill="white"/>
    <path d="M120.176 203.872C120.176 203.872 120.176 229.986 120.176 231.421C120.176 232.857 107.585 245.171 90.8639 245.171C65.1528 245.171 34.38 235.778 34.8333 229.658C35.1354 225.629 36.8828 203.872 36.8828 203.872H120.176Z" fill="#7C7C7C"/>
    <path d="M101.476 93.7244C87.3739 105.812 73.3558 98.7609 68.739 92.4653L48.5931 101.279L53.6296 194.454L120.363 196.972L117.845 107.575L101.476 93.7244Z" fill="white"/>
    <path d="M120.258 101.758C117.563 99.9948 100.112 89.9219 100.112 89.9219V222.733C102.047 224.618 102.442 224.574 105.22 224.259L105.35 224.244C111.356 222.737 117.15 220.487 122.6 217.546C122.6 217.546 124.917 120.946 125.496 113.593C126.075 106.24 122.952 103.52 120.258 101.758Z" fill="#002776"/>
    <path d="M73.1817 224.212C74.406 223.953 75.5656 223.45 76.5918 222.733L69.7422 88.562C69.7422 88.562 49.974 96.5952 44.7109 98.9371C42.5231 99.8599 40.6473 101.393 39.3076 103.354C37.9679 105.314 37.2211 107.619 37.1562 109.992C36.8289 114.424 36.3756 212.66 36.3 213.517C36.2245 214.373 36.9548 214.851 37.7354 215.305C38.5161 215.758 63.1947 222.96 69.4651 224.244C70.6937 224.483 71.9575 224.472 73.1817 224.212Z" fill="#002776"/>
    <g filter="url(#filter0_d_110_24)">
        <rect x="63.2427" y="135.155" width="45.5256" height="64.8739" rx="1" transform="rotate(-6.55484 63.2427 135.155)" fill="#EFEFEF"/>
    </g>
    <path d="M82.4167 161.444C85.6428 160.081 88.5599 158.061 90.9827 155.512C92.4823 153.939 94.183 152.573 96.0391 151.451C97.1279 150.77 98.0675 149.872 98.799 148.813C99.7653 147.17 100.565 145.435 101.186 143.634C101.416 142.084 101.943 140.59 102.739 139.236C103.495 138.543 106.164 138.913 107.549 141.606C108.027 142.805 108.243 144.097 108.184 145.393C108.124 146.69 107.791 147.962 107.205 149.125C106.516 150.519 105.976 151.982 105.594 153.489L105.846 153.639C107.957 152.519 110.213 151.706 112.545 151.226C113.391 151.036 114.272 151.139 115.046 151.516C115.82 151.893 116.443 152.523 116.813 153.304C117.184 154.086 117.281 154.973 117.088 155.823C116.895 156.673 116.425 157.437 115.752 157.991C119.391 158.409 118.978 164.022 115.854 164.764C116.523 165.045 117.088 165.527 117.472 166.144C117.856 166.762 118.041 167.486 118.001 168.218C117.962 168.95 117.701 169.654 117.252 170.237C116.804 170.819 116.19 171.251 115.494 171.474C117.713 173.52 116.091 176.892 112.062 176.907C108.788 177.24 100.033 178.61 96.9868 179.266C93.9407 179.922 87.818 178.471 85.8512 179.08C82.9236 180.153 79.5232 180.17 76.9296 172.466C74.3359 164.763 79.404 162.439 82.4167 161.444Z" fill="#FBBEAA"/>
    <path d="M88.1805 182.111L29.209 205.853C21.6729 209.643 9.42897 207.699 5.73791 198.885C5.06207 197.241 4.72711 195.477 4.75334 193.701C4.77957 191.924 5.16641 190.171 5.89048 188.548C6.61454 186.925 7.66071 185.466 8.96551 184.26C10.2703 183.054 11.8066 182.125 13.4811 181.53L83.1764 156.323L88.1805 182.111Z" fill="#002776"/>
    <defs>
        <filter id="filter0_d_110_24" x="63.3502" y="130.066" width="54.4186" height="69.4316" filterUnits="userSpaceOnUse" color-interpolation-filters="sRGB">
            <feFlood flood-opacity="0" result="BackgroundImageFix"/>
            <feColorMatrix in="SourceAlpha" type="matrix" values="0 0 0 0 0 0 0 0 0 0 0 0 0 0 0 0 0 0 127 0" result="hardAlpha"/>
            <feOffset dx="2"/>
            <feComposite in2="hardAlpha" operator="out"/>
            <feColorMatrix type="matrix" values="0 0 0 0 0.603922 0 0 0 0 0.6 0 0 0 0 0.631373 0 0 0 1 0"/>
            <feBlend mode="normal" in2="BackgroundImageFix" result="effect1_dropShadow_110_24"/>
            <feBlend mode="normal" in="SourceGraphic" in2="effect1_dropShadow_110_24" result="shape"/>
        </filter>
    </defs>
</svg>
