<svg width="196" height="519" viewBox="0 0 196 519" fill="none" xmlns="http://www.w3.org/2000/svg">
<path d="M34.1309 215.493C34.6819 208.556 42.1199 181.96 50.1089 166.808C50.1089 166.808 67.5372 169.01 78.7603 169.046C90.4701 169.084 108.661 166.808 108.661 166.808C113.871 178.604 119.806 204.374 121.534 209.934C122.577 213.205 122.704 216.699 121.9 220.037C121.097 223.375 119.394 226.429 116.976 228.867C111.041 235.604 95.7388 243.317 92.2076 243.317C77.0154 241.147 62.1243 237.231 47.8299 231.647C39.7658 228.266 33.605 222.456 34.1309 215.493Z" fill="#93929C"/>
<path d="M172.448 71.0403C172.552 68.7835 171.947 66.5509 170.72 64.6541C168.831 62.4635 167.415 59.9054 166.563 57.141C165.907 54.5749 164.86 52.1252 163.458 49.8782C162.456 48.5008 160.953 47.3739 160.953 46.322C160.953 45.2702 162.957 43.2416 165.812 43.8176C167.035 44.1986 168.158 44.8452 169.102 45.7111C170.046 46.577 170.787 47.6408 171.271 48.8264C171.545 48.104 171.705 47.3438 171.747 46.5725L172.373 31.2206C172.383 30.8226 172.472 30.4306 172.635 30.0676C172.799 29.7047 173.034 29.3782 173.325 29.1074C173.617 28.8366 173.96 28.627 174.334 28.491C174.708 28.355 175.106 28.2953 175.504 28.3155C176.137 28.3425 176.745 28.5672 177.244 28.958C177.742 29.3488 178.106 29.8861 178.284 30.4943V29.7931C178.38 29.0468 178.755 28.3646 179.333 27.8834C179.912 27.4022 180.651 27.1576 181.402 27.1988C182.154 27.24 182.862 27.564 183.384 28.1056C183.907 28.6471 184.205 29.3663 184.219 30.1187V32.2474C184.47 31.5911 184.948 31.0468 185.567 30.7136C186.185 30.3805 186.903 30.2808 187.589 30.4325C188.275 30.5843 188.884 30.9775 189.304 31.5404C189.724 32.1034 189.928 32.7987 189.879 33.4996V34.8519C190.148 34.3782 190.55 33.9933 191.035 33.7442C191.52 33.4952 192.067 33.3927 192.609 33.4495C193.351 33.5437 194.027 33.9231 194.495 34.5074C194.962 35.0918 195.184 35.835 195.113 36.5799L193.886 49.5276C193.082 56.8274 191.572 64.0319 189.378 71.0403C189.351 72.2105 189.08 73.3621 188.582 74.4212C188.084 75.4804 187.37 76.4236 186.485 77.1901C185.601 77.9567 184.565 78.5297 183.446 78.8723C182.327 79.2149 181.149 79.3196 179.986 79.1796C178.935 79.2146 177.888 79.0232 176.917 78.6181C175.946 78.213 175.073 77.6038 174.358 76.8318C173.643 76.0599 173.103 75.1432 172.773 74.1439C172.444 73.1446 172.333 72.0861 172.448 71.0403Z" fill="#FBBEAA"/>
<path d="M88.0508 479.756C88.0508 477.345 89.0086 475.033 90.7134 473.328C92.4183 471.623 94.7307 470.665 97.1417 470.665C99.5528 470.665 101.865 471.623 103.57 473.328C105.275 475.033 106.233 477.345 106.233 479.756V499.516H88.0508V479.756Z" fill="#FBBEAA"/>
<path d="M105.582 483.438C107.811 483.438 108.211 484.414 108.862 485.691C109.918 489.095 111.724 492.219 114.147 494.832C117.763 497.913 121.643 500.67 125.742 503.072V513.54H85.271C85.271 513.54 85.5465 505.276 85.7468 499.44C85.9472 493.605 86.5232 486.493 86.4731 485.741C86.423 484.99 86.4731 483.438 87.8505 483.438H105.582Z" fill="#302D3B"/>
<path d="M90.3047 500.016C90.2998 501.301 90.6767 502.559 91.3875 503.629C92.0983 504.7 93.1111 505.535 94.2973 506.029C95.4836 506.523 96.7898 506.654 98.0504 506.404C99.3109 506.155 100.469 505.536 101.378 504.628C102.286 503.719 102.905 502.561 103.154 501.301C103.403 500.04 103.273 498.734 102.779 497.548C102.285 496.361 101.45 495.349 100.379 494.638C99.3086 493.927 98.0511 493.55 96.7661 493.555C95.0545 493.562 93.4148 494.244 92.2045 495.455C90.9942 496.665 90.3113 498.305 90.3047 500.016Z" fill="#93929C"/>
<path d="M96.7653 496.209L95.2878 498.388L92.7583 499.114L94.3611 501.193L94.286 503.823L96.7653 502.921L99.2447 503.823L99.1445 501.193L100.772 499.114L98.2429 498.388L96.7653 496.209Z" fill="white"/>
<path d="M125.466 502.896C125.466 502.896 131.201 505.927 133.355 507.404C134.352 508.08 135.162 508.997 135.709 510.07C136.257 511.142 136.524 512.336 136.485 513.54H120.758C120.758 513.54 121.083 505.852 125.466 502.896Z" fill="white"/>
<path d="M85.271 513.54V517.873C85.271 518.599 85.9222 519 87.0241 519H134.758C135.835 519 136.486 518.599 136.486 517.873V513.54H85.271Z" fill="white"/>
<path d="M120.757 499.966C120.896 499.753 121.112 499.602 121.36 499.546C121.608 499.49 121.868 499.533 122.085 499.665C122.193 499.732 122.286 499.819 122.36 499.922C122.434 500.025 122.486 500.142 122.514 500.266C122.542 500.389 122.545 500.517 122.523 500.642C122.501 500.767 122.454 500.886 122.385 500.993L120.707 503.697C120.626 503.837 120.509 503.953 120.368 504.033C120.227 504.112 120.067 504.152 119.906 504.148C119.72 504.145 119.539 504.093 119.38 503.998C119.272 503.931 119.178 503.844 119.104 503.741C119.031 503.638 118.978 503.521 118.95 503.397C118.922 503.274 118.919 503.146 118.941 503.021C118.964 502.896 119.01 502.777 119.079 502.671L120.757 499.966Z" fill="white"/>
<path d="M117.803 497.887C117.885 497.792 117.985 497.714 118.098 497.657C118.21 497.6 118.333 497.566 118.458 497.557C118.584 497.548 118.71 497.563 118.829 497.603C118.949 497.642 119.06 497.705 119.155 497.787C119.25 497.869 119.329 497.969 119.385 498.082C119.442 498.194 119.476 498.317 119.485 498.442C119.495 498.568 119.479 498.694 119.44 498.814C119.4 498.933 119.337 499.044 119.255 499.139L117.302 501.443C117.212 501.549 117.101 501.635 116.975 501.695C116.85 501.755 116.714 501.789 116.575 501.794C116.394 501.791 116.217 501.737 116.065 501.638C115.912 501.54 115.79 501.401 115.712 501.237C115.634 501.074 115.603 500.891 115.623 500.711C115.643 500.531 115.712 500.359 115.824 500.216L117.803 497.887Z" fill="white"/>
<path d="M115.023 495.559C115.223 495.43 115.462 495.379 115.696 495.414C115.931 495.448 116.144 495.567 116.298 495.748C116.451 495.929 116.533 496.159 116.529 496.396C116.525 496.633 116.435 496.861 116.276 497.036L114.047 498.965C113.872 499.113 113.65 499.193 113.421 499.19C113.283 499.195 113.146 499.168 113.02 499.112C112.894 499.055 112.782 498.971 112.694 498.864C112.602 498.778 112.528 498.673 112.478 498.557C112.427 498.44 112.401 498.315 112.401 498.188C112.401 498.062 112.427 497.936 112.478 497.82C112.528 497.704 112.602 497.599 112.694 497.512L115.023 495.559Z" fill="white"/>
<path d="M110.139 494.407L112.644 492.854C112.864 492.724 113.126 492.685 113.374 492.746C113.622 492.807 113.836 492.963 113.971 493.18C114.039 493.288 114.084 493.408 114.105 493.534C114.125 493.66 114.12 493.788 114.089 493.912C114.059 494.036 114.004 494.152 113.928 494.255C113.852 494.357 113.756 494.443 113.646 494.507L111.141 496.06C110.993 496.158 110.818 496.21 110.64 496.21C110.477 496.206 110.318 496.16 110.177 496.077C110.037 495.993 109.92 495.875 109.839 495.734C109.707 495.517 109.664 495.257 109.72 495.009C109.776 494.762 109.927 494.545 110.139 494.407Z" fill="white"/>
<path d="M108.035 491.176L110.84 489.999C111.079 489.9 111.348 489.899 111.587 489.998C111.827 490.096 112.018 490.286 112.117 490.525C112.166 490.642 112.191 490.767 112.191 490.893C112.191 491.02 112.166 491.145 112.117 491.262C112.068 491.378 111.996 491.484 111.906 491.572C111.816 491.661 111.709 491.731 111.591 491.777L108.786 492.955H108.411C108.195 492.943 107.989 492.86 107.825 492.718C107.661 492.577 107.549 492.385 107.506 492.173C107.463 491.961 107.491 491.741 107.587 491.547C107.683 491.353 107.841 491.196 108.035 491.101V491.176Z" fill="white"/>
<path d="M106.283 487.57L109.388 486.793C109.634 486.734 109.893 486.774 110.11 486.905C110.326 487.037 110.481 487.249 110.54 487.495C110.6 487.74 110.56 488 110.428 488.216C110.297 488.432 110.085 488.587 109.839 488.647L106.759 489.448H106.533C106.318 489.446 106.108 489.374 105.937 489.243C105.766 489.112 105.641 488.929 105.582 488.722C105.528 488.476 105.571 488.22 105.701 488.005C105.832 487.791 106.04 487.635 106.283 487.57Z" fill="white"/>
<path d="M74.7524 353.385C75.0279 341.264 83.1922 335.403 95.2884 335.704C107.385 336.004 116.1 342.341 115.824 354.437L106.233 480.733H88.0507L74.7524 353.385Z" fill="#FBBEAA"/>
<path d="M73.1743 353.309C73.2417 350.431 73.8753 347.595 75.0388 344.962C76.2024 342.33 77.8731 339.952 79.9556 337.964C82.0382 335.977 84.4917 334.42 87.1761 333.381C89.8606 332.342 92.7233 331.842 95.601 331.909C98.4787 331.977 101.315 332.61 103.948 333.774C106.581 334.937 108.959 336.608 110.946 338.69C112.933 340.773 114.49 343.227 115.529 345.911C116.568 348.595 117.068 351.458 117.001 354.336L122.687 484.164H73.1753L73.1743 353.309Z" fill="#93929C"/>
<path d="M11.416 479.756C11.416 477.345 12.3738 475.033 14.0787 473.328C15.7836 471.623 18.0959 470.665 20.5069 470.665C22.918 470.665 25.2303 471.623 26.9352 473.328C28.6401 475.033 29.5979 477.345 29.5979 479.756V499.516H11.416V479.756Z" fill="#FBBEAA"/>
<path d="M28.9227 483.438C31.1767 483.438 31.5774 484.414 32.2035 485.691C33.2716 489.095 35.0854 492.218 37.5128 494.832C41.1247 497.919 45.0052 500.676 49.1081 503.072V513.54H8.63721C8.63721 513.54 8.9127 505.276 9.11305 499.44C9.3134 493.605 9.86438 486.493 9.83934 485.741C9.8143 484.99 9.83932 483.438 11.1917 483.438H28.9227Z" fill="#302D3B"/>
<path d="M13.646 500.016C13.6411 501.3 14.0173 502.557 14.727 503.627C15.4367 504.697 16.448 505.532 17.6328 506.027C18.8176 506.521 20.1225 506.654 21.3824 506.406C22.6423 506.159 23.8004 505.543 24.71 504.637C25.6197 503.731 26.2399 502.575 26.4923 501.316C26.7446 500.057 26.6176 498.752 26.1274 497.565C25.6372 496.378 24.8058 495.364 23.7386 494.65C22.6714 493.936 21.4164 493.555 20.1324 493.555C18.4165 493.555 16.7704 494.235 15.5547 495.446C14.339 496.657 13.6527 498.3 13.646 500.016Z" fill="#93929C"/>
<path d="M20.1066 496.209L18.6291 498.388L16.0996 499.114L17.7275 501.193L17.6524 503.823L20.1066 502.921L22.586 503.823L22.5109 501.193L24.1387 499.114L21.5842 498.388L20.1066 496.209Z" fill="white"/>
<path d="M48.8063 502.896C48.8063 502.896 54.5664 505.927 56.6951 507.404C57.6973 508.075 58.5112 508.991 59.0592 510.065C59.6071 511.139 59.871 512.335 59.8256 513.54H44.0229C44.0229 513.54 44.4487 505.852 48.8063 502.896Z" fill="white"/>
<path d="M8.63721 513.54V517.873C8.63721 518.599 9.26331 519 10.3652 519H58.1489C59.2508 519 59.8769 518.599 59.8769 517.873V513.54H8.63721Z" fill="white"/>
<path d="M44.1239 499.966C44.2601 499.75 44.4764 499.597 44.7254 499.541C44.9743 499.485 45.2354 499.53 45.4512 499.666C45.6671 499.802 45.82 500.018 45.8764 500.267C45.9328 500.516 45.8879 500.777 45.7518 500.993L44.0738 503.698C43.987 503.838 43.8651 503.954 43.7203 504.033C43.5754 504.112 43.4124 504.152 43.2474 504.149C43.0693 504.149 42.895 504.097 42.7465 503.998C42.6385 503.932 42.5449 503.845 42.4712 503.741C42.3974 503.638 42.345 503.522 42.317 503.398C42.289 503.274 42.2859 503.146 42.3081 503.021C42.3303 502.897 42.3771 502.777 42.446 502.671L44.1239 499.966Z" fill="white"/>
<path d="M41.1435 497.887C41.3087 497.695 41.542 497.575 41.7944 497.551C42.0467 497.528 42.2983 497.603 42.4959 497.762C42.6898 497.932 42.811 498.169 42.8343 498.426C42.8577 498.682 42.7813 498.938 42.6211 499.139L40.6426 501.443C40.5558 501.553 40.4454 501.641 40.3196 501.702C40.1939 501.763 40.056 501.794 39.9164 501.794C39.7328 501.796 39.5526 501.745 39.3975 501.646C39.2424 501.548 39.1191 501.407 39.0423 501.24C38.9655 501.074 38.9386 500.888 38.9648 500.707C38.9911 500.525 39.0693 500.355 39.1901 500.216L41.1435 497.887Z" fill="white"/>
<path d="M38.3891 495.559C38.5883 495.43 38.8274 495.379 39.0619 495.414C39.2963 495.448 39.5101 495.567 39.6634 495.748C39.8166 495.929 39.8988 496.159 39.8948 496.396C39.8907 496.633 39.8006 496.861 39.6413 497.036L37.3873 498.965C37.2126 499.113 36.9903 499.193 36.7612 499.19C36.6236 499.193 36.487 499.166 36.3614 499.109C36.2357 499.053 36.1242 498.969 36.0349 498.864C35.9456 498.776 35.8747 498.671 35.8263 498.555C35.7779 498.439 35.7529 498.314 35.7529 498.188C35.7529 498.063 35.7779 497.938 35.8263 497.822C35.8747 497.706 35.9456 497.601 36.0349 497.512L38.3891 495.559Z" fill="white"/>
<path d="M33.5047 494.406L36.0091 492.854C36.2251 492.763 36.4668 492.752 36.6898 492.824C36.9129 492.897 37.1026 493.047 37.2241 493.247C37.3456 493.448 37.391 493.685 37.3518 493.917C37.3127 494.148 37.1916 494.357 37.0108 494.507L34.5064 496.059C34.358 496.158 34.1837 496.21 34.0056 496.21C33.8386 496.207 33.675 496.163 33.5303 496.079C33.3857 495.996 33.2647 495.877 33.1791 495.734C33.049 495.514 33.0102 495.252 33.0711 495.004C33.132 494.756 33.2876 494.541 33.5047 494.406Z" fill="white"/>
<path d="M172.148 72.7186L162.13 135.604C160.477 143.492 163.032 150.63 172.148 151.882C173.83 152.101 175.54 151.976 177.173 151.514C178.806 151.053 180.328 150.264 181.647 149.196C182.965 148.128 184.053 146.803 184.844 145.301C185.635 143.8 186.112 142.154 186.247 140.462L189.303 72.8437C190.104 66.4576 187.324 62.2001 182.466 61.6742C176.505 61.0231 173.35 64.5543 172.148 72.7186Z" fill="#FBBEAA"/>
<path d="M31.4011 491.176L34.206 489.999C34.3226 489.95 34.4478 489.925 34.5743 489.925C34.7007 489.925 34.8259 489.95 34.9424 489.999C35.059 490.048 35.1647 490.12 35.2532 490.21C35.3418 490.301 35.4115 490.408 35.4582 490.525C35.5517 490.758 35.5519 491.018 35.4586 491.251C35.3653 491.485 35.1858 491.673 34.9573 491.777L32.1274 492.954C32.0119 492.98 31.8922 492.98 31.7768 492.954C31.5839 492.954 31.3954 492.897 31.235 492.79C31.0745 492.683 30.9493 492.531 30.8752 492.353C30.7992 492.127 30.811 491.88 30.9085 491.662C31.0059 491.444 31.1818 491.271 31.4011 491.176Z" fill="white"/>
<path d="M29.6479 487.57L32.7283 486.794C32.9772 486.733 33.2402 486.772 33.4604 486.903C33.6806 487.034 33.8404 487.247 33.9053 487.495C33.9352 487.616 33.9407 487.743 33.9216 487.867C33.9025 487.99 33.8591 488.109 33.794 488.216C33.7288 488.323 33.6432 488.417 33.542 488.49C33.4407 488.564 33.3259 488.617 33.2041 488.647L30.1237 489.448H29.8733C29.6476 489.431 29.435 489.336 29.2717 489.179C29.1084 489.022 29.0046 488.814 28.978 488.589C28.9514 488.364 29.0036 488.137 29.1258 487.947C29.248 487.756 29.4325 487.614 29.6479 487.545V487.57Z" fill="white"/>
<path d="M21.3587 353.009C22.5889 347.324 26.0263 342.36 30.9151 339.209C35.8038 336.058 41.7439 334.977 47.4294 336.204C59.2751 338.709 65.6613 350.379 63.1068 362.225L29.5982 482.811H11.1909L21.3587 353.009Z" fill="#FBBEAA"/>
<path d="M21.362 350.629C22.7212 345.081 26.1907 340.282 31.0331 337.252C35.8754 334.222 41.7087 333.2 47.2927 334.403C52.8767 335.607 57.771 338.941 60.9353 343.697C64.0995 348.453 65.2839 354.255 64.2369 359.87L50.9142 483.659C50.9142 483.659 19.0083 485.562 0 483.659L21.362 350.629Z" fill="#93929C"/>
<path d="M180.287 128.641L108.361 73.9955C99.9712 68.6361 94.2613 71.4911 89.8035 77.2262C87.7677 80.002 86.8238 83.4296 87.1517 86.8562C87.4796 90.2829 89.0563 93.4694 91.5816 95.8088L163.332 148.676C165.861 150.812 169.116 151.889 172.419 151.684C175.722 151.479 178.819 150.006 181.063 147.574L181.389 147.224C182.58 145.953 183.5 144.453 184.092 142.814C184.685 141.176 184.937 139.434 184.834 137.696C184.731 135.957 184.274 134.257 183.493 132.7C182.711 131.144 181.62 129.762 180.287 128.641Z" fill="#FBBEAA"/>
<path d="M91.5819 95.7841C90.9178 95.2125 90.3136 94.5748 89.7788 93.8807C89.3059 92.0983 89.245 90.2316 89.6008 88.4222C89.9566 86.6128 90.7198 84.9081 91.8324 83.4375C95.614 77.6023 103.553 73.0193 107.084 73.8958L110.59 75.6739L150.285 105.727C146.772 113.983 142.026 121.659 136.21 128.491L91.5819 95.7841Z" fill="#F18380"/>
<path d="M102.426 70.0884L164.669 112.068C164.407 114.215 171.307 70.0884 171.307 70.0884L190.831 72.6293C190.831 72.6293 190.434 117.187 187.519 140.835C186.356 150.275 178.57 153.879 169.277 151.851C164.689 150.85 160.369 148.968 156.525 146.269C140.008 134.676 93.6679 102.02 89.8792 97.9122C83.3428 90.8248 83.3427 85.5155 87.0993 79.6803C90.8559 73.845 98.8949 69.2119 102.426 70.0884Z" fill="#001A4B"/>
<path d="M73.1737 353.31L60.3262 218.799C60.3262 203.948 75.628 187.77 98.1925 191.251C118.578 194.431 124.789 214.917 123.111 234.326C121.433 253.735 116.9 354.261 116.9 354.261C116.833 357.139 116.199 359.975 115.036 362.608C113.872 365.241 112.201 367.619 110.119 369.606C108.036 371.593 105.583 373.151 102.898 374.19C100.214 375.229 97.3512 375.729 94.4735 375.661C91.5958 375.594 88.7595 374.96 86.1267 373.797C83.4938 372.633 81.1159 370.962 79.1287 368.88C77.1416 366.797 75.5841 364.344 74.5451 361.659C73.5061 358.975 73.0061 356.112 73.0735 353.234L73.1737 353.31Z" fill="#93929C"/>
<path d="M21.359 350.63L34.1314 216.144C36.8362 201.543 54.9929 188.596 76.5056 196.259C95.9146 203.196 98.1685 224.484 92.8592 243.242C87.5499 261.999 64.2341 359.871 64.2341 359.871C62.8749 365.419 59.4053 370.218 54.563 373.248C49.7206 376.278 43.8874 377.3 38.3034 376.097C32.7194 374.893 27.8251 371.559 24.6608 366.803C21.4966 362.047 20.3121 356.245 21.359 350.63Z" fill="#93929C"/>
<path d="M92.8585 243.242C87.5743 262 64.2334 359.871 64.2334 359.871" stroke="#5E5D63" stroke-width="0.75" stroke-miterlimit="10"/>
<path d="M89.1027 67.9597C89.1027 67.9597 100.172 69.8881 102.326 70.4641C103.597 70.7624 104.771 71.3784 105.739 72.2544C106.707 73.1305 107.437 74.2378 107.861 75.4729C109.238 78.7536 116.325 100.241 116.976 102.57C117.417 105.136 117.003 107.775 115.799 110.083C114.773 112.888 109.463 125.661 109.463 125.661L108.662 166.808L78.761 171.55L50.1094 166.808C50.1094 166.808 40.0919 90.2738 39.591 85.5405C39.0901 80.8073 41.4442 71.6663 47.1041 70.5142C52.7641 69.3622 68.2913 68.0099 68.2913 68.0099L89.1027 67.9597Z" fill="#FBBEAA"/>
<path d="M110.065 150.263V164.729C90.4811 166.532 59.2752 165.255 47.5547 164.729C47.0037 160.597 46.4277 153.585 45.8267 148.927C61.7796 149.327 88.127 150.814 110.065 150.263Z" fill="white"/>
<path d="M92.2868 68.3343C91.5059 73.0201 87.0257 78.3088 80.778 78.759C72.1874 79.378 69.2484 76.1439 65.7341 67.9438C65.7341 67.9438 49.2325 69.287 46.8283 69.5374C41.1341 71.0677 39.5425 75.5557 38.7912 80.4392C38.0399 85.3228 40.3532 170.549 40.3532 170.549C40.3532 170.549 92.0391 173.504 116.106 170.549C116.106 170.549 117.552 108.369 117.677 106.992C117.777 105.491 117.689 100.334 116.497 95.668C114.329 87.1836 108.937 76.2742 107.51 73.87C106.415 71.9574 104.619 70.5469 102.501 69.9381C101.023 69.4623 92.2868 68.3343 92.2868 68.3343Z" fill="#002366"/>
<path d="M69.8553 100.322L72.1303 100.186L72.3028 103.079L74.7303 102.935L74.5578 100.042L76.8329 99.9062L77.304 107.81L75.0289 107.946L74.8424 104.816L72.4145 104.96L72.6011 108.091L70.3261 108.226L69.855 100.322L69.8553 100.322ZM84.9511 99.4223L85.4222 107.327L83.224 107.458L82.8645 101.427L81.4245 101.513L81.5597 103.781C81.6205 104.801 81.6182 106.055 81.0547 106.794C80.4964 107.613 79.3698 107.918 78.0685 107.757L77.9517 105.797C79.1765 105.962 79.4544 105.47 79.3611 103.905L79.1138 99.7557L84.9502 99.4079L84.9511 99.4223ZM86.8504 99.3091L89.1254 99.1735L90.692 103.792L91.6989 99.0202L93.974 98.8846L95.5093 106.725L93.3876 106.852L92.607 102.655L91.6411 106.955L90.1247 107.046L88.6623 102.89L88.3857 107.149L86.2639 107.276L86.85 99.3088L86.8504 99.3091ZM95.8729 98.7714L98.1479 98.6358L98.3392 101.845L100.346 98.5048L102.85 98.3555L100.204 102.44L103.399 106.255L100.671 106.418L98.4349 103.33L98.6261 106.54L96.3511 106.675L95.88 98.771L95.8732 98.7714L95.8729 98.7714ZM85.581 90.8977C71.932 91.7112 63.2057 97.3395 63.6533 104.849C64.0966 112.286 73.4271 116.91 87.0828 116.096C100.808 115.278 109.453 109.575 109.011 102.145C108.563 94.6361 99.3131 90.0792 85.581 90.8977ZM87.0131 114.926C74.192 115.69 65.3533 111.584 64.9472 104.772C64.5369 97.8868 72.8368 92.8317 85.6507 92.068C98.5414 91.2996 107.313 95.3302 107.723 102.222C108.129 109.035 99.9106 114.157 87.0131 114.926ZM85.7162 93.1663C73.6604 93.8849 65.866 98.5137 66.2344 104.695C66.6028 110.876 74.8919 114.546 86.9476 113.828C99.0034 113.109 106.798 108.48 106.429 102.299C106.068 96.1176 97.7791 92.4473 85.7162 93.1663ZM86.9339 113.598C75.0243 114.308 66.8234 110.712 66.4644 104.688C66.1054 98.665 73.8278 94.1199 85.7307 93.4105C97.6336 92.7011 105.841 96.2966 106.2 102.32C106.566 108.343 98.8436 112.888 86.9339 113.598L86.9339 113.598Z" fill="white"/>
<path d="M6.7832 163.126L38.8644 78.7036C43.1469 69.6878 49.483 69.0868 56.3951 71.5912C59.5921 72.8664 62.2072 75.2748 63.741 78.3562C65.2747 81.4375 65.6196 84.9759 64.7096 88.2955L31.6768 171.216C30.6755 174.37 28.491 177.014 25.5818 178.593C22.6725 180.171 19.265 180.561 16.0744 179.68L15.5986 179.555C13.9156 179.096 12.3438 178.299 10.979 177.212C9.61417 176.126 8.48493 174.773 7.66009 173.235C6.83526 171.698 6.33213 170.009 6.18137 168.271C6.03061 166.533 6.23538 164.783 6.7832 163.126Z" fill="#FBBEAA"/>
<path d="M20.0815 128.115L38.8644 78.7037C39.3682 77.6201 39.963 76.5812 40.6425 75.5983C42.9433 74.1578 45.5772 73.3363 48.2889 73.2134C51.0006 73.0906 53.6981 73.6705 56.1197 74.897C58.9317 76.2654 61.192 78.5531 62.5264 81.3813C63.8609 84.2096 64.1893 87.4088 63.4575 90.4492C63.4575 90.7498 63.2822 91.3258 63.1319 92.1022L43.748 140.812C35.2812 137.759 27.3076 133.481 20.0815 128.115Z" fill="#F18380"/>
<path d="M40.618 74.1959L4.9624 166.735C34.2484 157.364 30.8159 131.255 46.7438 133.935C46.7438 133.935 65.1109 90.825 65.8121 86.9682C66.5439 83.9278 66.2155 80.7287 64.8811 77.9004C63.5466 75.0721 61.2863 72.7844 58.4743 71.416C50.6355 67.409 42.8218 71.0404 40.618 74.1959Z" fill="#002366"/>
<path d="M67.3135 7.9793C65.9862 4.77369 59.2995 3.3462 55.5429 5.09927C51.7864 6.85234 48.0298 11.4604 47.4788 23.9823C46.9278 36.5042 47.9546 46.0709 45.7007 52.382C47.7841 52.1186 49.7439 51.2476 51.3356 49.8776C51.3356 51.5305 51.586 55.5375 51.586 55.5375C52.7982 55.439 53.9568 54.995 54.9244 54.2582C55.8921 53.5214 56.6282 52.5226 57.0455 51.3803C57.7251 52.8256 58.1569 54.3749 58.3228 55.9633C60.5267 54.8113 67.3135 52.8078 67.3135 40.937V7.9793Z" fill="#1D1B24"/>
<path d="M110.966 49.5776C110.289 40.4866 107.61 25.4603 107.61 25.4603L101.198 25.1097C101.198 25.1097 99.4955 52.1821 99.0196 58.0925C98.5438 64.0028 96.8408 65.6056 96.8408 65.6056C96.8408 65.6056 104.98 64.4786 106.257 56.8403C106.445 58.3358 106.545 59.841 106.558 61.3482C106.558 61.3482 111.667 58.6685 110.966 49.5776Z" fill="#302D3B"/>
<path d="M67.5903 47.2734V68.5356C67.5903 68.5356 69.2682 75.8485 80.5129 75.8485C82.7453 76.0368 84.9651 75.3631 86.7163 73.9658C88.4676 72.5686 89.6173 70.5538 89.9294 68.3353V47.2984L67.5903 47.2734Z" fill="#FBBEAA"/>
<path d="M89.9294 64.9794C82.8671 68.3353 72.5741 65.3301 67.5903 56.1139V47.2734H89.9294V64.9794Z" fill="#F18380"/>
<path d="M98.9524 68.1584C100.729 75.0779 89.8649 81.2831 80.2725 78.7587C90.3697 72.1955 89.8649 68.1566 89.8649 68.1566V61.0884C92.894 60.5836 97.8345 63.8031 98.9524 68.1584Z" fill="#001A4B"/>
<path d="M67.6512 58.564C64.622 58.0591 54.8183 59.084 51.4956 64.6222C49.981 67.1467 51.4956 69.166 51.4956 69.166C51.4956 69.166 53.515 69.1662 56.5442 68.6614C59.0685 74.215 71.6901 81.2829 80.9961 78.8105C67.6512 71.6905 67.6512 68.156 67.6512 68.156V58.564Z" fill="#001A4B"/>
<path d="M103.878 30.9703C103.984 36.0558 103.75 41.1427 103.176 46.1969C102.275 53.4346 99.7202 61.4487 86.9228 61.4487C74.1254 61.4487 67.639 55.6635 64.8842 46.1969C63.2313 40.4869 59.8755 32.0221 61.2529 22.255C62.6303 12.4879 68.5156 6.10178 82.4149 5.72612C96.3143 5.35047 105.33 11.5613 103.878 30.9703Z" fill="#FBBEAA"/>
<path d="M76.8066 35.3026C76.8913 35.6789 77.0803 36.0238 77.3519 36.2977C77.6236 36.5716 77.9669 36.7634 78.3425 36.8513C78.7181 36.9391 79.1109 36.9194 79.4758 36.7943C79.8407 36.6693 80.163 36.444 80.4058 36.1442C80.6486 35.8445 80.8021 35.4824 80.8487 35.0995C80.8952 34.7165 80.8329 34.3282 80.669 33.979C80.5051 33.6298 80.2462 33.3339 79.9218 33.125C79.5975 32.9162 79.2209 32.8029 78.8351 32.7982C78.5362 32.8262 78.2459 32.9137 77.9813 33.0554C77.7166 33.1971 77.483 33.3903 77.294 33.6236C77.105 33.8569 76.9646 34.1256 76.8809 34.4139C76.7972 34.7022 76.7719 35.0044 76.8066 35.3026Z" fill="#403D4F"/>
<path d="M95.4377 35.3026C95.5226 35.68 95.7124 36.0257 95.9852 36.3C96.258 36.5743 96.6027 36.7659 96.9796 36.8529C97.3565 36.9398 97.7504 36.9185 98.1158 36.7914C98.4811 36.6644 98.8032 36.4367 99.0448 36.1347C99.2865 35.8326 99.4378 35.4684 99.4816 35.0841C99.5254 34.6997 99.4597 34.3109 99.2921 33.9622C99.1246 33.6136 98.8619 33.3193 98.5344 33.1134C98.207 32.9075 97.828 32.7982 97.4412 32.7982C97.1445 32.8293 96.8569 32.919 96.5952 33.0621C96.3334 33.2052 96.1026 33.3989 95.9162 33.6318C95.7299 33.8648 95.5916 34.1324 95.5095 34.4193C95.4273 34.7061 95.403 35.0063 95.4377 35.3026Z" fill="#403D4F"/>
<path d="M82.8668 28.2156L82.6665 27.9902C82.4566 27.8106 82.2301 27.6513 81.9902 27.5143C81.6794 27.3232 81.3418 27.1798 80.9885 27.0886C80.5953 26.9405 80.1811 26.856 79.7614 26.8382C79.3622 26.7882 78.9584 26.7882 78.5592 26.8382C78.2093 26.8077 77.8573 26.8077 77.5074 26.8382L76.5307 27.1136C76.3955 27.1677 76.2824 27.2656 76.2094 27.3915C76.1364 27.5174 76.1077 27.6643 76.1279 27.8084C76.1481 27.9526 76.216 28.0858 76.3208 28.1868C76.4256 28.2879 76.5612 28.3509 76.706 28.3658H77.7077C77.9987 28.3281 78.2933 28.3281 78.5843 28.3658C78.9094 28.341 79.2359 28.341 79.561 28.3658C79.8811 28.4076 80.1987 28.4662 80.5126 28.5411C80.8132 28.5411 81.0636 28.7415 81.3141 28.7665C81.4908 28.8448 81.6755 28.9036 81.865 28.9419H82.0654C82.2253 29.0109 82.4057 29.0156 82.569 28.955C82.7323 28.8943 82.8659 28.773 82.9419 28.6163C82.9791 28.5292 82.9983 28.4355 82.9983 28.3408C82.9983 28.2461 82.9791 28.1524 82.9419 28.0653L82.8668 28.2156Z" fill="#403D4F"/>
<path d="M95.0367 29.1667H95.2119L95.5877 29.0164H95.8631C95.9564 28.9597 96.0577 28.9175 96.1636 28.8912C96.3765 28.8183 96.5941 28.7597 96.8148 28.7159C97.0556 28.6806 97.3003 28.6806 97.5411 28.7159C97.7491 28.6919 97.9592 28.6919 98.1672 28.7159H98.9685C99.1368 28.7094 99.2961 28.6379 99.4129 28.5165C99.5296 28.3951 99.5947 28.2332 99.5946 28.0648C99.5966 27.9389 99.559 27.8155 99.4871 27.7122C99.4152 27.6088 99.3127 27.5307 99.194 27.4887L98.4176 27.2133C98.1435 27.1183 97.8561 27.0676 97.5661 27.063C97.2266 27.001 96.8787 27.001 96.5393 27.063C95.8828 27.1342 95.2587 27.3856 94.7361 27.7893C94.5591 27.9284 94.3995 28.0882 94.2603 28.2652C94.1351 28.4154 94.1351 28.4655 94.1351 28.4655V28.7159C94.1136 28.885 94.1592 29.0557 94.2623 29.1915C94.3653 29.3273 94.5174 29.4174 94.686 29.4422C94.7611 29.4248 94.8314 29.3911 94.892 29.3435C94.9526 29.2959 95.002 29.2355 95.0367 29.1667Z" fill="#403D4F"/>
<path d="M89.9291 43.8174C90.3522 43.821 90.7713 43.7359 91.1595 43.5677C91.5477 43.3994 91.8963 43.1518 92.183 42.8407C92.2885 42.7318 92.3697 42.602 92.4215 42.4595C92.4733 42.3171 92.4944 42.1654 92.4836 42.0143C92.4836 41.7388 92.0579 38.2827 91.9076 37.0055C91.8889 36.8769 91.8209 36.7607 91.7181 36.6812C91.6153 36.6018 91.4858 36.5654 91.3566 36.5797C91.2328 36.5983 91.1203 36.6626 91.0415 36.7599C90.9627 36.8573 90.9232 36.9807 90.9309 37.1057C90.9309 37.306 91.4818 41.839 91.5319 42.1145C91.3269 42.3414 91.0753 42.5215 90.7944 42.6425C90.5135 42.7635 90.2098 42.8226 89.904 42.8157C89.8427 42.8156 89.782 42.828 89.7256 42.8522C89.6692 42.8764 89.6183 42.9118 89.5761 42.9564C89.5339 43.0009 89.5012 43.0537 89.4801 43.1113C89.459 43.1689 89.4499 43.2303 89.4533 43.2915C89.4417 43.3589 89.4456 43.4279 89.4647 43.4935C89.4837 43.5591 89.5175 43.6195 89.5633 43.6702C89.6092 43.7208 89.6659 43.7604 89.7293 43.7859C89.7926 43.8115 89.861 43.8222 89.9291 43.8174Z" fill="#F18380"/>
<path d="M73.4748 1.59364C87.3491 -2.73895 97.2164 2.69561 100.347 6.8028C101.616 6.38568 102.739 5.61073 103.578 4.57111C104.418 3.5315 104.939 2.27149 105.08 0.942551C105.804 1.33999 106.383 1.95814 106.732 2.70712C107.081 3.45609 107.181 4.2968 107.019 5.10695C106.857 5.91709 106.441 6.65438 105.831 7.21162C105.221 7.76885 104.449 8.11697 103.628 8.20525C108.636 9.85815 111.566 14.892 111.416 21.1279C111.206 23.4077 110.401 25.5925 109.083 27.4644C107.765 29.3364 105.979 30.83 103.903 31.7965C102.445 27.4246 100.252 23.3337 97.4167 19.7004C96.6367 22.9051 94.9832 25.8307 92.6399 28.1519C90.2966 30.4731 87.3555 32.0988 84.1435 32.8484C84.4549 30.9191 84.9497 29.0238 85.6211 27.1885C82.8126 29.5341 79.479 31.1666 75.904 31.9469C75.6545 29.8208 75.7135 27.6698 76.0794 25.5606C73.575 30.0685 69.3676 36.9055 63.1567 38.8088H59.2499C57.1957 34.5978 56.223 29.9413 56.4199 25.2601C56.47 16.5949 59.6005 5.92623 73.4748 1.59364Z" fill="#302D3B"/>
<path d="M65.3857 40.3368C65.1854 36.9308 64.2838 32.8237 60.1265 33.5499C55.268 34.2762 54.7922 47.4242 65.1353 45.8465L65.3857 40.3368Z" fill="#FBBEAA"/>
<path d="M59.7256 41.2133C59.8126 41.2145 59.8984 41.1918 59.9734 41.1477C60.0485 41.1035 60.11 41.0396 60.1513 40.9629C60.2573 40.743 60.4198 40.5553 60.6222 40.4188C60.8247 40.2824 61.0597 40.2022 61.3033 40.1865C61.5894 40.1894 61.8702 40.2644 62.1197 40.4045C62.3691 40.5445 62.5793 40.7452 62.7308 40.9879C62.7871 41.078 62.8719 41.1467 62.9718 41.183C63.0716 41.2194 63.1808 41.2212 63.2818 41.1882C63.3826 41.1508 63.4688 41.0819 63.5274 40.9917C63.5861 40.9015 63.614 40.7948 63.6073 40.6874C63.5698 39.6294 63.2415 38.6021 62.6583 37.7185C62.0751 36.8349 61.2597 36.1291 60.3016 35.6786C60.182 35.639 60.0516 35.6483 59.9389 35.7046C59.8262 35.761 59.7405 35.8597 59.7005 35.9792C59.6608 36.0987 59.6702 36.2291 59.7265 36.3418C59.7828 36.4545 59.8816 36.5402 60.001 36.5802C60.5639 36.8538 61.0651 37.2391 61.4741 37.7128C61.8832 38.1864 62.1915 38.7383 62.3802 39.335C62.0231 39.1862 61.6401 39.1096 61.2532 39.1096C60.8484 39.1479 60.459 39.2842 60.1186 39.5068C59.7783 39.7293 59.4973 40.0314 59.2998 40.3869C59.2694 40.4426 59.2505 40.5039 59.2441 40.567C59.2377 40.6302 59.2441 40.694 59.2627 40.7547C59.2814 40.8153 59.312 40.8717 59.3528 40.9204C59.3936 40.969 59.4437 41.009 59.5001 41.038L59.7256 41.2133Z" fill="#F18380"/>
<path d="M60.3518 48.8514C61.5539 39.8105 65.0099 24.9344 65.0099 24.9344H71.4462C71.4462 24.9344 71.6966 52.057 71.8719 57.9924C72.0472 63.9278 73.625 65.7058 73.625 65.7058C73.625 65.7058 65.5609 64.1532 64.6844 56.4397C64.4156 57.9299 64.2399 59.4354 64.1584 60.9475C64.1584 60.9475 59.1747 57.8922 60.3518 48.8514Z" fill="#302D3B"/>
<path d="M71.0959 123.482L31.2261 173.144C26.4928 179.655 19.4805 182.56 12.4933 176.7C11.2009 175.602 10.1451 174.253 9.38989 172.734C8.63465 171.216 8.19569 169.56 8.09968 167.867C8.00366 166.173 8.25258 164.478 8.83132 162.884C9.41006 161.29 10.3066 159.83 11.4665 158.593L59.5006 111.01C63.6829 106.126 68.7167 105.35 72.3731 108.505C76.8059 112.437 76.28 117.045 71.0959 123.482Z" fill="#FBBEAA"/>
<path d="M57.0962 113.614C61.5289 109.132 69.8185 99.4646 72.6234 97.1105C75.3968 95.0209 78.4268 93.2954 81.6392 91.9765C84.0763 91.1601 86.5958 90.6142 89.1523 90.3486C90.9304 90.1233 91.6567 90.6492 91.6567 91.7261C91.612 92.3676 91.4076 92.9878 91.062 93.5302C90.7165 94.0726 90.2408 94.5199 89.6782 94.8315H92.959C94.0859 94.8315 94.8122 95.7331 94.2863 97.1856C93.8086 98.1453 93.1258 98.9882 92.2862 99.6547C91.4467 100.321 90.4708 100.795 89.4278 101.042C89.4278 101.042 93.8605 101.468 94.9875 101.694C96.1145 101.919 96.4651 102.345 96.4651 103.422C96.4554 104.165 96.2486 104.893 95.8659 105.531C95.4831 106.169 94.9381 106.694 94.2863 107.053C92.6909 107.7 90.9973 108.073 89.2775 108.155C89.2775 108.155 94.7621 109.532 95.8641 109.933C96.966 110.334 97.0912 111.06 96.5152 112.012C96.187 112.682 95.713 113.27 95.1281 113.734C94.5431 114.198 93.8619 114.525 93.1343 114.691C91.0556 115.242 89.6532 114.341 88.9019 114.466C87.2876 114.986 85.7069 115.605 84.1686 116.319C81.8586 118.619 79.0342 120.336 75.9292 121.328C73.6179 122.298 71.4978 123.672 69.6682 125.385C68.816 126.185 67.812 126.805 66.7157 127.21C65.6194 127.615 64.453 127.796 63.2855 127.743C62.1181 127.689 60.9732 127.402 59.9187 126.898C58.8642 126.394 57.9215 125.684 57.1463 124.809C53.1393 120.552 53.8154 116.995 57.0962 113.614Z" fill="#FBBEAA"/>
<path d="M70.0753 127.012L31.5157 174.194C26.6844 180.633 15.3948 184.171 8.49708 178.206C7.22151 177.089 6.18624 175.724 5.45405 174.194C4.72187 172.664 4.30802 171.002 4.23763 169.307C4.16725 167.613 4.44178 165.922 5.04458 164.337C5.64737 162.752 8.32764 157.412 9.50613 156.192L57.8236 110.815L70.0753 127.012Z" fill="#002366"/>
<path d="M89.1272 94.8568C89.1343 94.8983 89.1327 94.9407 89.1224 94.9814C89.112 95.0222 89.0934 95.0603 89.0674 95.0933C89.0414 95.1263 89.0088 95.1536 88.9716 95.1733C88.9345 95.1929 88.8937 95.2045 88.8518 95.2074L86.7982 95.4078H85.7964C85.4458 95.4078 85.1203 95.533 84.7696 95.5581C84.3992 95.6692 84.039 95.8115 83.6928 95.9838L82.5407 96.4596C80.988 97.0857 79.4353 97.6617 78.2833 98.0874C77.1312 98.5132 76.3298 98.7637 76.3298 98.7637C76.2663 98.7904 76.1951 98.7924 76.1302 98.7693C76.0653 98.7461 76.0114 98.6994 75.9792 98.6384C75.9325 98.5773 75.9072 98.5025 75.9072 98.4256C75.9072 98.3486 75.9325 98.2738 75.9792 98.2127L77.8575 97.236L79.8109 96.3094C80.5122 95.9838 81.2885 95.6582 82.0649 95.3577L83.2419 94.9069C83.6205 94.7358 84.0147 94.6016 84.419 94.5062L85.6211 94.381H86.6479H88.1756H88.7516C88.8147 94.3312 88.895 94.3085 88.9748 94.3179C89.0547 94.3273 89.1276 94.368 89.1774 94.4311C89.2272 94.4942 89.2499 94.5745 89.2405 94.6543C89.2311 94.7342 89.1903 94.807 89.1272 94.8568ZM88.6514 100.892H88.2006C87.8257 100.859 87.4485 100.859 87.0736 100.892L86.2973 101.018C86.0111 101.053 85.7269 101.104 85.4458 101.168L83.7428 101.719C82.5908 102.094 81.4638 102.57 80.6123 102.921C80.6123 102.921 80.3369 102.921 80.3619 103.046H80.0614L79.6106 103.171H79.3351H79.1848C79.1092 103.189 79.0435 103.236 79.0015 103.301C78.9595 103.367 78.9444 103.446 78.9594 103.522C78.9704 103.582 79.0009 103.637 79.0462 103.677C79.0915 103.718 79.1491 103.743 79.2099 103.747H80.4871H80.8878C81.7643 103.522 82.9414 103.171 84.0934 102.771L85.7714 102.145L86.5477 101.944L87.2239 101.744C87.5697 101.642 87.9209 101.558 88.2758 101.493L88.7015 101.368C88.7394 101.357 88.7746 101.338 88.8052 101.313C88.8358 101.288 88.8611 101.257 88.8797 101.222C88.8983 101.187 88.9098 101.149 88.9136 101.109C88.9174 101.07 88.9134 101.03 88.9019 100.993C88.8722 100.956 88.8336 100.927 88.7897 100.91C88.7459 100.892 88.6982 100.886 88.6514 100.892ZM88.6514 108.005H87.7248C87.4744 108.005 87.1488 108.005 86.8233 108.18L85.7964 108.506C85.1503 108.733 84.5224 109.01 83.9182 109.332C83.6403 109.463 83.3725 109.613 83.1167 109.783C83.0656 109.842 83.0375 109.918 83.0375 109.996C83.0375 110.074 83.0656 110.15 83.1167 110.209C83.1887 110.285 83.2875 110.33 83.3922 110.334L84.3189 110.184C84.8448 110.058 85.521 109.858 86.1972 109.633L87.1738 109.232L88.0253 108.906C88.3088 108.781 88.5848 108.639 88.8518 108.481C88.9226 108.439 88.9749 108.371 88.9982 108.292C89.0214 108.213 89.0138 108.129 88.977 108.055C88.9028 108.007 88.8133 107.989 88.7265 108.005H88.6514Z" fill="#F18380"/>
<path d="M172.949 51.0055C171.997 51.0055 171.922 50.4045 171.496 49.3026C173.625 49.3026 179.811 49.7032 182.515 54.9124C179.786 51.1558 174.551 51.0055 172.949 51.0055ZM177.807 31.1958C177.807 31.1958 177.657 32.0724 177.507 33.3496C177.507 34.0008 177.356 34.7771 177.306 35.5785C177.256 36.3799 177.181 37.2564 177.106 38.0829C177.106 39.836 176.981 41.564 176.981 42.8663C176.981 44.1686 176.981 45.0451 176.981 45.0451C176.981 45.0867 176.989 45.128 177.006 45.1662C177.022 45.2044 177.047 45.2387 177.077 45.267C177.108 45.2952 177.144 45.3168 177.184 45.3304C177.223 45.3439 177.265 45.3491 177.306 45.3456C177.377 45.3421 177.444 45.3157 177.498 45.2705C177.553 45.2254 177.591 45.1639 177.607 45.0952C177.607 45.0952 177.757 44.2186 177.882 42.9163C178.007 41.6141 178.208 39.886 178.283 38.158C178.283 37.2815 178.283 36.405 178.283 35.6536C178.283 34.9023 178.283 34.0759 178.283 33.4248C178.283 32.0974 178.283 31.2459 178.283 31.2459C178.283 31.2042 178.275 31.163 178.258 31.1248C178.241 31.0866 178.217 31.0523 178.186 31.024C178.156 30.9958 178.12 30.9742 178.08 30.9607C178.041 30.9471 177.999 30.9419 177.957 30.9454C177.909 30.973 177.87 31.0134 177.843 31.062C177.817 31.1106 177.804 31.1656 177.807 31.2209V31.1958ZM183.617 32.9489C183.617 32.9489 183.467 33.7002 183.292 34.8022C183.292 35.3782 183.116 36.0293 183.041 36.7305C182.966 37.4317 182.891 38.1831 182.816 38.9344C182.816 40.437 182.641 41.9396 182.616 43.0666C182.591 44.1936 182.616 44.97 182.616 44.97C182.619 45.0095 182.63 45.048 182.648 45.0832C182.666 45.1185 182.691 45.1499 182.721 45.1755C182.751 45.2011 182.786 45.2205 182.824 45.2325C182.862 45.2445 182.902 45.2489 182.941 45.2455C183.008 45.2408 183.072 45.2135 183.122 45.1681C183.172 45.1226 183.206 45.0617 183.217 44.995C183.217 44.995 183.367 44.2437 183.542 43.1417C183.717 42.0398 183.868 40.5122 183.993 39.0346C183.993 38.2833 183.993 37.5319 184.143 36.8307C184.293 36.1295 184.143 35.4533 184.143 34.8773C184.143 33.7503 184.143 32.999 184.143 32.999C184.143 32.9573 184.135 32.9161 184.118 32.8779C184.102 32.8397 184.077 32.8054 184.047 32.7771C184.016 32.7489 183.98 32.7273 183.94 32.7138C183.901 32.7002 183.859 32.695 183.818 32.6985C183.762 32.7214 183.714 32.7593 183.679 32.8079C183.643 32.8565 183.622 32.914 183.617 32.9739V32.9489ZM189.227 35.3281C189.227 35.3281 189.077 35.9542 188.877 36.9058C188.877 37.3566 188.676 37.9076 188.601 38.5087C188.526 39.1097 188.426 39.7358 188.326 40.3619C188.15 41.6391 188.075 42.8663 188.025 43.868C187.975 44.8698 188.025 45.4709 188.025 45.4709C188.025 45.5125 188.033 45.5537 188.05 45.5919C188.067 45.6301 188.091 45.6645 188.122 45.6927C188.152 45.721 188.188 45.7425 188.228 45.7561C188.267 45.7696 188.309 45.7748 188.351 45.7714C188.414 45.7681 188.476 45.7444 188.525 45.7038C188.575 45.6633 188.61 45.608 188.626 45.546C188.626 45.546 188.801 44.9199 188.977 43.9933C189.152 43.0667 189.402 41.7643 189.553 40.5122C189.553 39.861 189.678 39.2349 189.728 38.6339C189.778 38.0328 189.728 37.4819 189.728 37.006C189.728 36.0544 189.728 35.4032 189.728 35.4032C189.728 35.3615 189.72 35.3203 189.703 35.2821C189.686 35.2439 189.662 35.2096 189.631 35.1813C189.601 35.1531 189.565 35.1315 189.525 35.118C189.486 35.1044 189.444 35.0992 189.402 35.1027C189.356 35.1285 189.316 35.1644 189.286 35.2078C189.256 35.2511 189.236 35.3009 189.227 35.3531V35.3281Z" fill="#F18380"/>
<path d="M87.8763 50.0878C85.4586 49.9945 83.1374 49.1152 81.2646 47.5834" stroke="#73102A" stroke-width="0.5" stroke-miterlimit="10" stroke-linecap="round"/>
<path d="M57.9249 110.506L52.8486 115.192L66.5155 131.592L70.4203 126.906L57.9249 110.506Z" fill="#00163F"/>
<path d="M171.002 69.6431L170.384 76.5343L190.689 79.658L190.689 72.2389L171.002 69.6431Z" fill="#00163F"/>
<path d="M40.0581 163.728L40.3533 170.64C40.3533 170.64 64.3782 172.255 79.7919 172.202C93.9867 172.154 116.107 170.64 116.107 170.64L116.107 164.783C116.107 164.783 93.0249 165.564 78.23 165.564C58.3155 165.564 40.0581 163.728 40.0581 163.728Z" fill="#00163F"/>
</svg>
