<svg width="253" height="546" viewBox="0 0 253 546" fill="none" xmlns="http://www.w3.org/2000/svg">
<g opacity="0.3" filter="url(#filter0_f_110_33)">
<ellipse cx="106.5" cy="14.5" rx="106.5" ry="14.5" transform="matrix(1 0 0 -1 17.4209 528.227)" fill="#CBCBCB"/>
</g>
<path d="M81.6845 96.4092C75.9562 103.774 48.3564 181.181 48.3564 181.181C79.0439 171.361 63.7918 167.597 80.4819 170.405C80.4819 170.405 106.558 115.066 107.292 111.025C108.059 107.839 107.715 104.487 106.317 101.523C104.919 98.5597 102.55 96.1625 99.6035 94.7287C91.3897 90.5299 87.4128 89.044 81.6845 96.4092Z" fill="#002776"/>
<path d="M227.657 95.8426C227.771 93.3589 227.106 90.9017 225.755 88.8142C223.676 86.4032 222.118 83.5878 221.18 80.5454C220.458 77.7212 219.305 75.0251 217.762 72.5522C216.66 71.0362 215.006 69.796 215.006 68.6383C215.006 67.4807 217.211 65.2481 220.353 65.8821C221.699 66.3013 222.936 67.0129 223.974 67.9659C225.013 68.9189 225.828 70.0897 226.362 71.3946C226.663 70.5996 226.839 69.7629 226.885 68.914L227.574 52.0181C227.585 51.5801 227.683 51.1486 227.863 50.7492C228.043 50.3497 228.301 49.9904 228.622 49.6923C228.944 49.3943 229.321 49.1636 229.733 49.014C230.145 48.8643 230.582 48.7986 231.02 48.8208C231.716 48.8506 232.386 49.0979 232.935 49.528C233.484 49.9581 233.884 50.5494 234.079 51.2188V50.447C234.185 49.6257 234.598 48.8748 235.235 48.3453C235.871 47.8157 236.685 47.5465 237.512 47.5918C238.339 47.6372 239.118 47.9937 239.693 48.5898C240.268 49.1858 240.596 49.9773 240.612 50.8053V53.1482C240.888 52.4259 241.414 51.8268 242.095 51.4602C242.776 51.0935 243.565 50.9838 244.32 51.1508C245.075 51.3178 245.745 51.7505 246.208 52.3701C246.671 52.9897 246.895 53.755 246.841 54.5263V56.0146C247.137 55.4933 247.579 55.0697 248.113 54.7956C248.647 54.5214 249.248 54.4087 249.845 54.4711C250.662 54.5748 251.406 54.9925 251.921 55.6355C252.435 56.2786 252.679 57.0966 252.601 57.9165L251.251 72.1663C250.366 80.2002 248.704 88.1294 246.289 95.8426C246.26 97.1305 245.962 98.3979 245.414 99.5636C244.865 100.729 244.079 101.767 243.106 102.611C242.132 103.455 240.993 104.085 239.761 104.462C238.529 104.839 237.232 104.955 235.953 104.8C234.796 104.839 233.644 104.628 232.575 104.183C231.506 103.737 230.546 103.066 229.759 102.217C228.972 101.367 228.377 100.358 228.015 99.2583C227.652 98.1585 227.53 96.9936 227.657 95.8426Z" fill="#FBBEAA"/>
<path d="M228.208 73.7929C227.161 73.7929 227.078 73.1314 226.61 71.9187C228.953 71.9187 235.761 72.3597 238.737 78.0927C235.733 73.9583 229.972 73.7929 228.208 73.7929ZM233.556 51.9909C233.556 51.9909 233.39 52.9556 233.225 54.3613C233.225 55.078 233.059 55.9324 233.004 56.8144C232.949 57.6964 232.867 58.661 232.784 59.5706C232.784 61.5 232.646 63.4018 232.646 64.8351C232.646 66.2683 232.646 67.233 232.646 67.233C232.646 67.2789 232.655 67.3243 232.674 67.3663C232.692 67.4084 232.719 67.4461 232.752 67.4772C232.786 67.5083 232.826 67.5321 232.869 67.547C232.913 67.5619 232.959 67.5676 233.004 67.5638C233.082 67.5598 233.156 67.5309 233.216 67.4811C233.275 67.4314 233.317 67.3638 233.335 67.2882C233.335 67.2882 233.5 66.3234 233.638 64.8902C233.776 63.4569 233.997 61.5551 234.079 59.6533C234.079 58.6886 234.079 57.7239 234.079 56.897C234.079 56.0702 234.079 55.1606 234.079 54.444C234.079 52.9832 234.079 52.046 234.079 52.046C234.079 52.0001 234.07 51.9548 234.052 51.9128C234.033 51.8707 234.007 51.8329 233.973 51.8018C233.939 51.7707 233.899 51.747 233.856 51.7321C233.813 51.7172 233.767 51.7114 233.721 51.7153C233.668 51.7457 233.625 51.7901 233.596 51.8436C233.566 51.8971 233.553 51.9576 233.556 52.0185V51.9909ZM239.95 53.9203C239.95 53.9203 239.785 54.7472 239.592 55.9599C239.592 56.5939 239.399 57.3105 239.316 58.0822C239.233 58.854 239.151 59.6809 239.068 60.5077C239.068 62.1615 238.875 63.8152 238.848 65.0555C238.82 66.2959 238.848 67.1503 238.848 67.1503C238.851 67.1938 238.863 67.2362 238.883 67.275C238.903 67.3138 238.93 67.3483 238.964 67.3765C238.997 67.4047 239.036 67.426 239.077 67.4393C239.119 67.4525 239.162 67.4573 239.206 67.4536C239.28 67.4484 239.35 67.4184 239.405 67.3684C239.46 67.3183 239.497 67.2512 239.509 67.1779C239.509 67.1779 239.675 66.351 239.867 65.1382C240.06 63.9255 240.226 62.2442 240.364 60.618C240.364 59.7911 240.364 58.9642 240.529 58.1925C240.694 57.4207 240.529 56.6765 240.529 56.0426C240.529 54.8023 240.529 53.9754 240.529 53.9754C240.529 53.9296 240.52 53.8842 240.501 53.8422C240.483 53.8001 240.456 53.7623 240.423 53.7312C240.389 53.7001 240.349 53.6764 240.306 53.6615C240.262 53.6466 240.216 53.6409 240.171 53.6447C240.109 53.6699 240.057 53.7116 240.018 53.7651C239.979 53.8186 239.955 53.8819 239.95 53.9478V53.9203ZM246.124 56.5387C246.124 56.5387 245.959 57.2278 245.738 58.2752C245.738 58.7713 245.518 59.3777 245.435 60.0392C245.352 60.7007 245.242 61.3898 245.132 62.0788C244.939 63.4845 244.856 64.8351 244.801 65.9376C244.746 67.0401 244.801 67.7016 244.801 67.7016C244.801 67.7475 244.81 67.7928 244.829 67.8349C244.847 67.8769 244.874 67.9147 244.908 67.9458C244.941 67.9769 244.981 68.0006 245.024 68.0155C245.068 68.0304 245.114 68.0362 245.159 68.0324C245.23 68.0287 245.297 68.0026 245.352 67.958C245.406 67.9134 245.445 67.8526 245.463 67.7843C245.463 67.7843 245.656 67.0952 245.848 66.0754C246.041 65.0556 246.317 63.6223 246.482 62.2442C246.482 61.5276 246.62 60.8385 246.675 60.177C246.731 59.5155 246.675 58.9091 246.675 58.3854C246.675 57.3381 246.675 56.6214 246.675 56.6214C246.676 56.5755 246.666 56.5302 246.648 56.4882C246.63 56.4461 246.603 56.4083 246.569 56.3772C246.535 56.3461 246.495 56.3224 246.452 56.3075C246.409 56.2926 246.363 56.2868 246.317 56.2907C246.266 56.3191 246.222 56.3586 246.189 56.4063C246.156 56.4541 246.133 56.5088 246.124 56.5663V56.5387Z" fill="#F18380"/>
<path d="M160.974 93.756L221.045 134.271C220.792 136.343 225.66 93.756 225.66 93.756L247.895 95.8313C247.895 95.8313 246.596 139.19 243.324 162.089C242.025 171.177 234.461 174.623 225.492 172.666C221.064 171.7 216.895 169.883 213.185 167.279C197.244 156.09 152.521 124.574 148.864 120.609C142.556 113.769 142.556 108.645 146.182 103.013C149.807 97.3815 157.566 92.91 160.974 93.756Z" fill="#001A4B"/>
<path d="M109.957 324.305C109.876 330.797 112.378 337.055 116.912 341.702C121.446 346.349 127.64 349.005 134.132 349.085C140.623 349.165 146.881 346.663 151.528 342.129C156.175 337.595 158.831 331.401 158.911 324.91C158.911 324.91 162.008 234.556 163.066 216.248C164.124 197.94 159.339 183.259 138.74 181.144C117.385 178.953 106.003 195.649 106.003 211.161C106.003 226.673 109.957 324.305 109.957 324.305Z" fill="#7C7C7C"/>
<path d="M69.7903 322.568C69.3705 325.777 69.5912 329.036 70.4395 332.159C71.2877 335.282 72.7467 338.206 74.7321 340.761C76.7175 343.316 79.1898 345.452 82.0061 347.046C84.8223 348.639 87.9266 349.659 91.1394 350.045C94.3522 350.431 97.6097 350.177 100.723 349.296C103.837 348.415 106.745 346.926 109.28 344.914C111.814 342.902 113.924 340.407 115.488 337.574C117.053 334.742 118.04 331.627 118.392 328.41C118.392 328.41 131.134 238.912 134.156 220.831C137.178 202.75 133.98 187.616 113.733 183.31C92.7314 178.852 79.6114 194.239 78.0249 209.65C76.4384 225.062 69.7903 322.568 69.7903 322.568Z" fill="#7C7C7C"/>
<path d="M150.147 430.776C150.147 430.776 148.939 482.123 148.636 489.803C148.334 497.484 143.474 499.574 135.642 500.254C127.811 500.934 124.512 494.714 123.404 489.778C122.296 484.843 115.597 434.503 115.597 434.503L150.147 430.776Z" fill="#FBBEAA"/>
<path d="M149.266 466.585L120.382 469.683C118.141 453.793 115.597 434.427 115.597 434.427L150.147 430.7C150.147 430.7 149.694 449.94 149.266 466.585Z" fill="#F18380"/>
<path d="M109.956 324.305C109.996 321.091 110.668 317.916 111.935 314.961C113.202 312.007 115.038 309.331 117.339 307.086C119.64 304.841 122.361 303.071 125.345 301.878C128.33 300.685 131.521 300.091 134.735 300.13C137.95 300.17 141.125 300.843 144.079 302.109C147.034 303.376 149.71 305.212 151.955 307.513C154.2 309.814 155.969 312.535 157.163 315.52C158.356 318.505 158.95 321.695 158.91 324.91L153.874 468.027L114.363 472.283L109.956 324.305Z" fill="#7C7C7C"/>
<path d="M98.4479 432.74C98.4479 432.74 91.7494 483.659 90.6414 491.239C89.5333 498.819 84.4717 500.431 76.5897 500.254C68.7076 500.078 66.1138 493.556 65.5346 488.545C64.9554 483.533 63.6963 432.74 63.6963 432.74H98.4479Z" fill="#FBBEAA"/>
<path d="M93.6128 468.248H64.5524C64.0488 452.232 63.5703 432.74 63.5703 432.74H98.4478C98.4478 432.74 95.9296 451.728 93.6128 468.248Z" fill="#F18380"/>
<path d="M69.79 322.568C70.6263 316.175 73.9513 310.37 79.0426 306.414C84.1339 302.458 90.5804 300.671 96.9818 301.441C103.383 302.21 109.222 305.474 113.231 310.524C117.24 315.574 119.095 322.001 118.392 328.41L96.4838 473.064H56.7461L69.79 322.568Z" fill="#7C7C7C"/>
<path d="M118.367 328.41L95.7788 471.805" stroke="#565656" stroke-width="0.75" stroke-miterlimit="10" stroke-linecap="round"/>
<path d="M118.392 328.41C118.392 328.41 131.134 238.912 134.156 220.831" stroke="#565656" stroke-width="0.75" stroke-miterlimit="10" stroke-linecap="round"/>
<path d="M79.2342 474.216C82.0904 474.011 84.9224 474.862 87.1924 476.607C89.4625 478.353 91.0126 480.871 91.5483 483.684L104.693 497.157V505.542H62.5635C62.5635 505.542 64.6788 490.433 65.2832 487.033C65.8875 483.634 67.9273 474.216 79.2342 474.216Z" fill="#FBBEAA"/>
<path d="M91.5227 483.583C92.0012 482.929 92.6811 482.425 93.1596 482.727C93.638 483.029 106.355 493.102 106.96 493.606C107.332 493.955 107.613 494.39 107.78 494.873C107.947 495.355 107.994 495.871 107.916 496.376V507.179H61.6313C61.6313 507.179 63.4444 491.214 63.5704 490.332C63.6963 489.451 64.5777 488.293 65.0813 488.318C68.2582 489.291 71.5552 489.817 74.8772 489.879C79.2924 490.113 83.6966 489.248 87.695 487.361C89.1775 486.33 90.4722 485.052 91.5227 483.583Z" fill="black"/>
<path d="M100.312 498.113C98.0705 496.451 90.0121 490.156 86.9902 487.788L87.6953 487.436C87.7905 487.395 87.8762 487.335 87.9472 487.26C91.1705 489.778 98.7504 495.721 100.916 497.333C102.747 498.735 104.001 500.76 104.442 503.024L103.459 503.175C103.044 501.168 101.928 499.373 100.312 498.113Z" fill="white"/>
<path d="M62.8903 496.174C66.1523 496.208 69.3088 497.334 71.8552 499.373C74.1568 501.412 75.7158 504.158 76.2873 507.179H74.9275C74.3713 504.561 72.9953 502.188 70.9991 500.405C68.6555 498.528 65.7418 497.507 62.7393 497.509L62.8903 496.174Z" fill="white"/>
<path d="M115.396 507.154H61.6316C61.2561 507.154 60.9517 507.459 60.9517 507.834V513.047C60.9517 513.422 61.2561 513.727 61.6316 513.727H115.396C115.771 513.727 116.076 513.422 116.076 513.047V507.834C116.076 507.459 115.771 507.154 115.396 507.154Z" fill="white"/>
<path d="M106.834 493.505C107.312 493.304 109.654 493.983 112.701 496.98C113.97 498.291 114.883 499.905 115.354 501.667C115.826 503.43 115.84 505.284 115.396 507.053H100.11C100.966 497.383 106.355 493.707 106.834 493.505Z" fill="white"/>
<path d="M100.967 493.656C100.778 493.888 100.688 494.184 100.716 494.481C100.744 494.778 100.889 495.052 101.118 495.243C101.23 495.336 101.36 495.405 101.499 495.448C101.638 495.491 101.785 495.505 101.93 495.491C102.075 495.477 102.215 495.435 102.344 495.366C102.473 495.298 102.586 495.204 102.679 495.092L105.197 492.045C105.386 491.814 105.476 491.517 105.448 491.22C105.419 490.923 105.275 490.65 105.046 490.458C104.935 490.362 104.806 490.29 104.666 490.245C104.526 490.201 104.379 490.185 104.233 490.199C104.087 490.213 103.945 490.257 103.817 490.327C103.688 490.398 103.575 490.494 103.485 490.609L100.967 493.656Z" fill="white"/>
<path d="M97.9699 491.364C97.7812 491.595 97.6912 491.892 97.7195 492.189C97.7478 492.486 97.892 492.76 98.121 492.951C98.2319 493.047 98.3612 493.119 98.501 493.164C98.6407 493.208 98.788 493.224 98.934 493.21C99.08 493.196 99.2217 493.152 99.3503 493.082C99.4789 493.011 99.5919 492.915 99.6823 492.8L102.201 489.753C102.383 489.519 102.469 489.224 102.441 488.929C102.413 488.634 102.273 488.361 102.049 488.166C101.939 488.07 101.809 487.998 101.67 487.953C101.53 487.909 101.382 487.893 101.236 487.907C101.09 487.921 100.949 487.965 100.82 488.035C100.692 488.106 100.579 488.202 100.488 488.317L97.9699 491.364Z" fill="white"/>
<path d="M95.0739 489.098C94.8836 489.322 94.79 489.612 94.8136 489.905C94.8373 490.198 94.9761 490.469 95.1998 490.66C95.4309 490.848 95.727 490.938 96.024 490.91C96.3211 490.882 96.5949 490.738 96.7862 490.509L99.3045 487.461C99.4103 487.358 99.4944 487.235 99.5519 487.099C99.6093 486.962 99.6389 486.816 99.6389 486.668C99.6389 486.52 99.6093 486.374 99.5519 486.238C99.4944 486.102 99.4103 485.978 99.3045 485.875C99.0709 485.692 98.7763 485.606 98.4811 485.634C98.186 485.662 97.9129 485.803 97.718 486.026L95.0739 489.098Z" fill="white"/>
<path d="M92.1528 486.807C92.0601 486.919 91.9904 487.049 91.9478 487.188C91.9052 487.328 91.8905 487.474 91.9046 487.619C91.9186 487.764 91.9611 487.905 92.0296 488.033C92.0981 488.162 92.1914 488.276 92.3039 488.368C92.5157 488.576 92.8006 488.692 93.0972 488.692C93.3938 488.692 93.6786 488.576 93.8904 488.368L96.4087 485.296C96.5974 485.065 96.6874 484.769 96.6591 484.472C96.6308 484.175 96.4865 483.901 96.2576 483.71C96.1452 483.617 96.0156 483.547 95.8763 483.505C95.7369 483.462 95.5906 483.447 95.4456 483.461C95.3005 483.475 95.1597 483.518 95.0311 483.586C94.9026 483.655 94.7887 483.748 94.6962 483.861L92.1528 486.807Z" fill="white"/>
<path d="M138.412 474.216C141.269 474.011 144.101 474.862 146.371 476.607C148.641 478.353 150.191 480.871 150.727 483.684L163.847 497.157V505.542H121.742C121.742 505.542 123.832 490.433 124.461 487.033C125.091 483.634 127.106 474.216 138.412 474.216Z" fill="#FBBEAA"/>
<path d="M150.701 483.583C151.18 482.929 151.835 482.425 152.338 482.727C152.842 483.029 165.534 493.102 166.113 493.606C166.692 494.11 167.095 494.739 167.095 496.376V507.179H120.81C120.81 507.179 122.623 491.214 122.749 490.332C122.875 489.451 123.756 488.293 124.26 488.318C127.437 489.291 130.734 489.817 134.056 489.879C138.463 490.117 142.86 489.252 146.849 487.361C148.343 486.335 149.646 485.057 150.701 483.583Z" fill="black"/>
<path d="M159.49 498.113C157.249 496.451 149.19 490.156 146.168 487.788L146.848 487.436C146.951 487.396 147.045 487.336 147.125 487.26C150.349 489.778 157.929 495.721 160.094 497.333C161.925 498.735 163.179 500.76 163.62 503.024L162.638 503.175C162.21 501.173 161.097 499.382 159.49 498.113Z" fill="white"/>
<path d="M122.069 496.174C125.33 496.208 128.487 497.334 131.033 499.373C133.335 501.412 134.894 504.158 135.466 507.179H134.106C133.543 504.558 132.158 502.185 130.152 500.405C127.82 498.525 124.913 497.502 121.917 497.509L122.069 496.174Z" fill="white"/>
<path d="M174.574 507.154H120.81C120.434 507.154 120.13 507.459 120.13 507.834V513.047C120.13 513.422 120.434 513.727 120.81 513.727H174.574C174.95 513.727 175.254 513.422 175.254 513.047V507.834C175.254 507.459 174.95 507.154 174.574 507.154Z" fill="white"/>
<path d="M166.012 493.505C166.491 493.304 168.833 493.983 171.88 496.98C173.148 498.291 174.062 499.905 174.533 501.667C175.005 503.43 175.019 505.284 174.574 507.053H159.289C160.145 497.383 165.534 493.707 166.012 493.505Z" fill="white"/>
<path d="M160.044 493.656C159.855 493.888 159.765 494.184 159.793 494.481C159.821 494.778 159.966 495.052 160.195 495.243C160.307 495.336 160.437 495.405 160.576 495.448C160.715 495.491 160.862 495.505 161.007 495.491C161.152 495.477 161.293 495.435 161.421 495.366C161.55 495.298 161.664 495.204 161.756 495.092L164.274 492.045C164.457 491.811 164.543 491.517 164.515 491.221C164.487 490.926 164.347 490.653 164.123 490.458C164.012 490.362 163.883 490.29 163.743 490.245C163.604 490.201 163.456 490.185 163.31 490.199C163.164 490.213 163.023 490.257 162.894 490.327C162.765 490.398 162.652 490.494 162.562 490.609L160.044 493.656Z" fill="white"/>
<path d="M157.148 491.365C156.959 491.596 156.869 491.892 156.898 492.189C156.926 492.486 157.07 492.76 157.299 492.951C157.41 493.047 157.539 493.12 157.679 493.164C157.819 493.209 157.966 493.224 158.112 493.21C158.258 493.196 158.4 493.152 158.529 493.082C158.657 493.011 158.77 492.915 158.861 492.8L161.379 489.753C161.561 489.519 161.647 489.225 161.619 488.93C161.591 488.634 161.451 488.361 161.228 488.166C160.997 487.978 160.7 487.888 160.403 487.916C160.106 487.944 159.832 488.089 159.641 488.318L157.148 491.365Z" fill="white"/>
<path d="M154.251 489.098C154.146 489.199 154.063 489.321 154.006 489.455C153.948 489.589 153.919 489.733 153.919 489.879C153.919 490.025 153.948 490.169 154.006 490.303C154.063 490.437 154.146 490.559 154.251 490.66C154.482 490.848 154.779 490.938 155.076 490.91C155.373 490.882 155.647 490.737 155.838 490.508L158.356 487.461C158.545 487.23 158.635 486.934 158.607 486.637C158.578 486.34 158.434 486.066 158.205 485.875C158.093 485.782 157.963 485.712 157.824 485.67C157.684 485.627 157.538 485.613 157.393 485.627C157.248 485.641 157.107 485.683 156.979 485.752C156.85 485.82 156.736 485.913 156.644 486.026L154.251 489.098Z" fill="white"/>
<path d="M151.331 486.807C151.238 486.919 151.169 487.049 151.126 487.188C151.083 487.328 151.069 487.474 151.083 487.619C151.097 487.764 151.139 487.905 151.208 488.033C151.276 488.162 151.37 488.276 151.482 488.368C151.694 488.576 151.979 488.692 152.275 488.692C152.572 488.692 152.857 488.576 153.069 488.368L155.587 485.296C155.776 485.065 155.866 484.769 155.837 484.472C155.809 484.175 155.665 483.901 155.436 483.71C155.323 483.617 155.194 483.547 155.055 483.505C154.915 483.462 154.769 483.447 154.624 483.461C154.479 483.475 154.338 483.518 154.209 483.586C154.081 483.655 153.967 483.748 153.875 483.861L151.331 486.807Z" fill="white"/>
<path d="M162.325 196.663C162.325 196.663 162.325 222.777 162.325 224.212C162.325 225.648 149.734 237.962 133.013 237.962C107.302 237.962 76.5292 228.569 76.9825 222.45C77.2847 218.42 79.2715 196.663 79.2715 196.663H162.325Z" fill="#7C7C7C"/>
<path d="M142.286 59.9983H111.966V95.6565H142.286V59.9983Z" fill="#FBBEAA"/>
<path d="M143.626 86.5155C129.523 98.603 115.505 91.5519 110.889 85.2563L90.7427 94.0702L95.7791 187.245L162.512 189.763L159.994 100.366L143.626 86.5155Z" fill="white"/>
<path d="M112.042 59.9983H142.261V79.8923C140.941 80.0563 139.612 80.1404 138.282 80.1441C127.857 80.1441 116.197 77.2985 111.941 67.3515L112.042 59.9983Z" fill="#F18380"/>
<path d="M162.407 94.5486C159.713 92.7858 142.261 82.7129 142.261 82.7129V215.524C144.196 217.409 144.591 217.365 147.369 217.05L147.499 217.035C153.505 215.528 159.3 213.278 164.749 210.337C164.749 210.337 167.066 113.737 167.645 106.384C168.224 99.031 165.102 96.3113 162.407 94.5486Z" fill="#002776"/>
<path d="M115.331 217.003C116.555 216.744 117.715 216.241 118.741 215.524L111.891 81.353C111.891 81.353 92.1232 89.3862 86.8601 91.7282C84.6723 92.6509 82.7965 94.1841 81.4568 96.1445C80.1171 98.1049 79.3703 100.41 79.3054 102.783C78.9781 107.215 78.5248 205.452 78.4492 206.308C78.3737 207.164 79.104 207.642 79.8846 208.096C80.6653 208.549 105.344 215.751 111.614 217.035C112.843 217.274 114.107 217.263 115.331 217.003Z" fill="#002776"/>
<path d="M157.949 33.5322C157.697 43.8318 157.949 51.9657 156.086 59.8225C154.222 67.6794 148.531 74.1009 135.94 74.1009C123.349 74.1009 108.995 69.9962 107.987 54.2572C105.922 52.016 102.573 44.0332 102.447 35.0935C102.321 26.1538 103.027 7.24186 123.399 4.34589C143.772 1.44993 158.503 8.92907 157.949 33.5322Z" fill="#FBBEAA"/>
<path d="M147.297 41.641C147.297 43.0261 148.128 44.1593 149.161 44.1593C150.193 44.1593 151.024 43.0261 151.024 41.641C151.024 40.256 150.193 39.1228 149.161 39.1228C148.128 39.1228 147.297 40.1553 147.297 41.641Z" fill="#403D4F"/>
<path d="M124.633 41.641C124.633 43.0261 125.464 44.1593 126.497 44.1593C127.529 44.1593 128.36 43.0261 128.36 41.641C128.36 40.256 127.529 39.1228 126.497 39.1228C125.464 39.1228 124.633 40.1553 124.633 41.641Z" fill="#403D4F"/>
<path d="M129.191 36.4025C129.015 36.6291 127.68 36.4025 126.673 36.4025C125.666 36.4025 123.727 36.4025 123.727 36.1758C123.727 35.9492 124.683 34.3879 127.202 34.6649C129.015 34.8664 129.67 35.9996 129.191 36.4025Z" fill="#403D4F"/>
<path d="M146.869 36.4025C147.02 36.6292 148.153 36.4025 149.035 36.4025C149.916 36.4025 151.553 36.4025 151.553 36.1759C151.327 35.6051 150.9 35.1366 150.353 34.8584C149.806 34.5801 149.176 34.5113 148.582 34.665C147.02 34.8664 146.592 35.9996 146.869 36.4025Z" fill="#403D4F"/>
<path d="M139.44 52.0661C141.203 52.0661 142.613 50.9078 142.664 50.0767L142.084 42.9753C142.065 42.7993 141.978 42.6378 141.842 42.5249C141.705 42.412 141.531 42.3568 141.354 42.371C141.268 42.3773 141.184 42.4006 141.107 42.4396C141.03 42.4785 140.961 42.5323 140.905 42.5978C140.849 42.6633 140.806 42.7393 140.78 42.8214C140.753 42.9035 140.743 42.99 140.75 43.0761L141.304 49.9256C141.049 50.2016 140.736 50.4172 140.388 50.5567C140.039 50.6961 139.664 50.7558 139.289 50.7315C139.201 50.7246 139.113 50.7357 139.029 50.7639C138.945 50.7922 138.868 50.837 138.802 50.8959C138.736 50.9547 138.683 51.0262 138.646 51.1061C138.608 51.1861 138.587 51.2728 138.584 51.361C138.584 51.5396 138.651 51.7118 138.772 51.8426C138.894 51.9735 139.061 52.0534 139.239 52.0661H139.44Z" fill="#F18380"/>
<path d="M113.447 38.2158C113.447 48.377 108.411 44.5997 108.411 44.5997C107.151 40.8224 104.958 42.4467 102.074 42.4467C99.1909 42.4467 99.5614 40.3466 96.6779 33.4214C94.3712 27.8813 97.0304 19.0784 98.7605 16.9476C95.8927 13.1904 99.7818 10.9521 99.6473 11.5217C98.7605 15.2763 101.835 11.5027 103.374 10.0224C119.817 -5.78815 161.253 2.15491 161.253 2.15491L156.949 7.60101L167.548 4.67319C167.548 4.67319 166.857 10.4083 165.03 13.487C163.509 16.051 159.833 19.0784 159.833 19.0784L171.366 20.1438C171.366 20.1438 163.869 28.1343 153.489 29.1997C141.799 30.3996 129.268 24.9381 129.268 24.9381L133.881 30.2651C133.881 30.2651 122.22 27.8868 118.443 29.8555C116.027 31.1146 113.447 33.6732 113.447 38.2158Z" fill="#7D4A40"/>
<path d="M108.541 46.4256C108.415 43.5548 107.962 39.3242 103.882 39.2235C99.8029 39.1227 99.274 42.195 99.4 47.03C99.5259 51.865 104.436 55.9697 108.743 54.3077L108.541 46.4256Z" fill="#FBBEAA"/>
<path d="M102.548 49.9003C102.725 49.8695 102.882 49.7702 102.986 49.624C103.089 49.4778 103.131 49.2965 103.102 49.1196C103.102 48.9775 103.142 48.8383 103.218 48.718C103.294 48.5978 103.402 48.5013 103.53 48.4397C103.787 48.2676 104.09 48.1757 104.399 48.1757C104.708 48.1757 105.011 48.2676 105.268 48.4397C105.379 48.5014 105.505 48.5338 105.633 48.5338C105.761 48.5338 105.886 48.5014 105.998 48.4397C106.101 48.3719 106.183 48.2776 106.236 48.1667C106.289 48.0558 106.311 47.9326 106.3 47.8102C105.948 43.7558 103.354 43.0003 103.253 42.9751C103.167 42.9486 103.077 42.9401 102.987 42.9501C102.898 42.9601 102.811 42.9885 102.733 43.0334C102.655 43.0783 102.588 43.1388 102.534 43.2111C102.48 43.2834 102.442 43.3659 102.422 43.4536C102.376 43.6206 102.397 43.7992 102.482 43.9502C102.567 44.1013 102.709 44.2125 102.875 44.2594C103.378 44.4872 103.817 44.8367 104.151 45.2763C104.485 45.716 104.704 46.232 104.789 46.7777C104.099 46.6652 103.392 46.8085 102.8 47.1806C102.455 47.3828 102.176 47.6808 101.997 48.0385C101.819 48.3961 101.747 48.7979 101.793 49.1952C101.788 49.2933 101.805 49.3911 101.843 49.482C101.88 49.5729 101.936 49.6547 102.008 49.7217C102.08 49.7887 102.165 49.8394 102.258 49.8702C102.352 49.901 102.45 49.9113 102.548 49.9003Z" fill="#F18380"/>
<path d="M137.703 61.1321C135.272 61.0383 132.938 60.1542 131.055 58.6139" stroke="#73102A" stroke-width="0.5" stroke-miterlimit="10" stroke-linecap="round"/>
<path d="M137.789 56.6753C134.263 55.5169 130.234 54.157 128.849 55.7939C127.766 56.9019 129.227 62.1146 134.641 63.0212C140.055 63.9278 141.994 60.2008 141.717 58.7654C141.541 57.884 140.559 57.607 137.789 56.6753Z" fill="#73102A"/>
<path d="M128.975 55.7189H128.849C127.766 56.8269 129.227 62.0396 134.641 62.9462C135.817 63.2193 137.04 63.2193 138.217 62.9462C137.305 61.1344 136.003 59.5468 134.405 58.2973C132.807 57.0478 130.953 56.1673 128.975 55.7189Z" fill="#D65155"/>
<path d="M130.233 55.1642C131.66 56.7146 133.472 57.8597 135.484 58.4834C137.496 59.107 139.638 59.1869 141.691 58.7149C141.49 57.8587 140.483 57.5817 137.788 56.6751C135.397 55.6699 132.827 55.156 130.233 55.1642Z" fill="white"/>
<g filter="url(#filter1_d_110_33)">
<rect x="105.392" y="127.946" width="45.5256" height="64.8739" rx="1" transform="rotate(-6.55484 105.392 127.946)" fill="#EFEFEF"/>
</g>
<path d="M124.566 154.235C127.792 152.872 130.709 150.852 133.132 148.303C134.632 146.73 136.332 145.364 138.188 144.242C139.277 143.562 140.217 142.663 140.948 141.604C141.915 139.961 142.714 138.226 143.335 136.425C143.565 134.875 144.093 133.381 144.888 132.027C145.644 131.334 148.313 131.704 149.698 134.397C150.176 135.596 150.392 136.888 150.333 138.184C150.274 139.481 149.94 140.753 149.355 141.916C148.665 143.31 148.125 144.773 147.744 146.28L147.995 146.43C150.106 145.31 152.362 144.497 154.694 144.017C155.54 143.827 156.421 143.93 157.195 144.307C157.97 144.684 158.592 145.314 158.963 146.095C159.333 146.877 159.43 147.764 159.237 148.614C159.045 149.464 158.574 150.228 157.901 150.782C161.541 151.2 161.127 156.813 158.003 157.555C158.672 157.836 159.237 158.318 159.621 158.935C160.005 159.553 160.19 160.277 160.151 161.009C160.112 161.741 159.85 162.446 159.402 163.028C158.953 163.61 158.34 164.042 157.644 164.265C159.863 166.311 158.241 169.683 154.211 169.698C150.938 170.031 142.182 171.401 139.136 172.057C136.09 172.713 129.967 171.262 128.001 171.871C125.073 172.944 121.673 172.961 119.079 165.257C116.485 157.554 121.553 155.231 124.566 154.235Z" fill="#FBBEAA"/>
<path d="M130.33 174.902L71.3583 198.644C63.8222 202.434 51.5784 200.49 47.8873 191.676C47.2115 190.032 46.8765 188.268 46.9027 186.492C46.929 184.715 47.3158 182.962 48.0399 181.339C48.7639 179.716 49.8101 178.257 51.1149 177.051C52.4197 175.845 53.956 174.916 55.6305 174.321L125.326 149.114L130.33 174.902Z" fill="#002776"/>
<defs>
<filter id="filter0_f_110_33" x="0.420898" y="482.227" width="247" height="63" filterUnits="userSpaceOnUse" color-interpolation-filters="sRGB">
<feFlood flood-opacity="0" result="BackgroundImageFix"/>
<feBlend mode="normal" in="SourceGraphic" in2="BackgroundImageFix" result="shape"/>
<feGaussianBlur stdDeviation="8.5" result="effect1_foregroundBlur_110_33"/>
</filter>
<filter id="filter1_d_110_33" x="105.5" y="122.857" width="54.4185" height="69.4316" filterUnits="userSpaceOnUse" color-interpolation-filters="sRGB">
<feFlood flood-opacity="0" result="BackgroundImageFix"/>
<feColorMatrix in="SourceAlpha" type="matrix" values="0 0 0 0 0 0 0 0 0 0 0 0 0 0 0 0 0 0 127 0" result="hardAlpha"/>
<feOffset dx="2"/>
<feComposite in2="hardAlpha" operator="out"/>
<feColorMatrix type="matrix" values="0 0 0 0 0.603922 0 0 0 0 0.6 0 0 0 0 0.631373 0 0 0 1 0"/>
<feBlend mode="normal" in2="BackgroundImageFix" result="effect1_dropShadow_110_33"/>
<feBlend mode="normal" in="SourceGraphic" in2="effect1_dropShadow_110_33" result="shape"/>
</filter>
</defs>
</svg>
