<svg width="194" height="514" viewBox="0 0 194 514" fill="none" xmlns="http://www.w3.org/2000/svg">
<path d="M22.4592 70.3558C22.357 68.1208 22.9553 65.9097 24.1706 64.0312C26.0418 61.8616 27.4436 59.3282 28.2879 56.5904C28.9373 54.049 29.9747 51.6229 31.3634 49.3976C32.3555 48.0335 33.8437 46.9174 33.8437 45.8757C33.8437 44.834 31.8595 42.825 29.032 43.3954C27.8209 43.7727 26.7081 44.413 25.7733 45.2706C24.8386 46.1282 24.1049 47.1817 23.625 48.3559C23.3541 47.6405 23.1952 46.8876 23.1538 46.1237L22.5337 30.9197C22.5243 30.5256 22.436 30.1373 22.274 29.7778C22.1121 29.4184 21.8797 29.095 21.5907 28.8269C21.3017 28.5587 20.9619 28.3511 20.5914 28.2164C20.2209 28.0817 19.8271 28.0226 19.4334 28.0426C18.8065 28.0694 18.2037 28.2919 17.7099 28.679C17.2161 29.066 16.856 29.5981 16.6803 30.2004V29.506C16.5849 28.7669 16.2134 28.0912 15.6405 27.6147C15.0675 27.1381 14.3355 26.8959 13.5914 26.9367C12.8472 26.9775 12.1461 27.2983 11.6288 27.8347C11.1114 28.3711 10.816 29.0833 10.8021 29.8284V31.9366C10.5536 31.2867 10.0799 30.7476 9.46731 30.4177C8.85468 30.0877 8.14391 29.989 7.46452 30.1393C6.78513 30.2896 6.18236 30.6789 5.76608 31.2365C5.34979 31.7941 5.1477 32.4827 5.19665 33.1768V34.5161C4.92969 34.0469 4.53186 33.6657 4.05174 33.4191C3.57162 33.1724 3.03002 33.0709 2.49317 33.1271C1.758 33.2204 1.08805 33.5962 0.625107 34.1749C0.162163 34.7536 -0.0574265 35.4897 0.0129128 36.2274L1.22822 49.0504C2.02436 56.2798 3.51955 63.415 5.69273 70.3558C5.719 71.5147 5.98749 72.6553 6.48091 73.7042C6.97432 74.7531 7.68174 75.6872 8.55773 76.4464C9.43371 77.2056 10.4589 77.7731 11.5673 78.1124C12.6757 78.4517 13.8428 78.5554 14.9937 78.4167C16.0352 78.4514 17.0719 78.2618 18.0337 77.8606C18.9955 77.4595 19.8597 76.8561 20.5678 76.0916C21.2759 75.327 21.8113 74.4192 22.1376 73.4295C22.464 72.4399 22.5736 71.3916 22.4592 70.3558Z" fill="#FBBEAA"/>
<path d="M106.044 475.134C106.044 472.746 105.095 470.456 103.407 468.768C101.718 467.079 99.4284 466.131 97.0405 466.131C94.6527 466.131 92.3627 467.079 90.6742 468.768C88.9858 470.456 88.0372 472.746 88.0372 475.134V494.703H106.044V475.134Z" fill="#FBBEAA"/>
<path d="M88.6819 478.78C86.4745 478.78 86.0776 479.748 85.4328 481.012C84.3868 484.383 82.5986 487.477 80.1994 490.065C76.6177 493.116 72.7751 495.847 68.7158 498.225V508.593H108.797C108.797 508.593 108.524 500.408 108.326 494.629C108.127 488.85 107.557 481.806 107.606 481.062C107.656 480.318 107.606 478.78 106.242 478.78H88.6819Z" fill="#302D3B"/>
<path d="M103.812 495.199C103.817 496.472 103.444 497.717 102.74 498.777C102.036 499.838 101.033 500.665 99.8578 501.154C98.683 501.643 97.3893 501.773 96.1409 501.526C94.8925 501.279 93.7456 500.666 92.8457 499.766C91.9458 498.866 91.3335 497.72 91.0864 496.471C90.8394 495.223 90.9686 493.929 91.4579 492.754C91.9472 491.579 92.7744 490.576 93.8346 489.872C94.8948 489.168 96.1402 488.795 97.4128 488.8C99.1079 488.807 100.732 489.483 101.93 490.682C103.129 491.88 103.805 493.504 103.812 495.199Z" fill="#93929C"/>
<path d="M97.4129 491.429L98.8762 493.587L101.381 494.306L99.7939 496.365L99.8683 498.969L97.4129 498.076L94.9574 498.969L95.0566 496.365L93.4444 494.306L95.9495 493.587L97.4129 491.429Z" fill="white"/>
<path d="M68.9889 498.052C68.9889 498.052 63.3091 501.053 61.1761 502.516C60.1886 503.185 59.3864 504.094 58.8443 505.156C58.3023 506.219 58.0379 507.401 58.0758 508.593H73.6518C73.6518 508.593 73.3293 500.979 68.9889 498.052Z" fill="white"/>
<path d="M108.797 508.593V512.884C108.797 513.603 108.152 514 107.061 514H59.7869C58.7204 514 58.0755 513.603 58.0755 512.884V508.593H108.797Z" fill="white"/>
<path d="M73.652 495.15C73.5146 494.939 73.3005 494.79 73.0551 494.734C72.8097 494.679 72.5522 494.721 72.3375 494.852C72.2305 494.918 72.1378 495.005 72.0647 495.107C71.9917 495.209 71.9398 495.324 71.9121 495.447C71.8843 495.569 71.8813 495.696 71.9033 495.82C71.9252 495.943 71.9717 496.061 72.0398 496.167L73.7016 498.845C73.7816 498.984 73.8976 499.099 74.0373 499.177C74.1769 499.256 74.3351 499.296 74.4953 499.292C74.679 499.289 74.8586 499.238 75.0161 499.143C75.123 499.077 75.2158 498.991 75.2888 498.889C75.3619 498.787 75.4138 498.671 75.4416 498.548C75.4693 498.426 75.4722 498.299 75.4503 498.176C75.4283 498.052 75.382 497.934 75.3138 497.829L73.652 495.15Z" fill="white"/>
<path d="M76.5787 493.091C76.4973 492.997 76.3981 492.919 76.2867 492.863C76.1753 492.807 76.0539 492.773 75.9296 492.764C75.8052 492.755 75.6803 492.77 75.5619 492.809C75.4434 492.848 75.3339 492.91 75.2394 492.992C75.145 493.073 75.0675 493.172 75.0114 493.284C74.9552 493.395 74.9216 493.517 74.9123 493.641C74.9031 493.765 74.9185 493.89 74.9576 494.009C74.9967 494.127 75.0587 494.237 75.1402 494.331L77.0748 496.613C77.1641 496.718 77.2741 496.802 77.3979 496.862C77.5217 496.922 77.6567 496.955 77.7941 496.96C77.9737 496.957 78.1489 496.904 78.2999 496.806C78.451 496.709 78.5719 496.571 78.6492 496.409C78.7264 496.247 78.757 496.066 78.7373 495.888C78.7177 495.709 78.6487 495.539 78.5381 495.398L76.5787 493.091Z" fill="white"/>
<path d="M79.3314 490.785C79.134 490.658 78.8972 490.607 78.665 490.641C78.4328 490.676 78.2211 490.793 78.0693 490.973C77.9176 491.152 77.8361 491.38 77.8402 491.614C77.8442 491.849 77.9334 492.074 78.0912 492.248L80.2986 494.158C80.4717 494.305 80.6919 494.384 80.9187 494.381C81.0553 494.386 81.1911 494.36 81.3158 494.304C81.4405 494.248 81.5508 494.164 81.638 494.059C81.7296 493.973 81.8026 493.869 81.8526 493.754C81.9025 493.639 81.9282 493.515 81.9282 493.389C81.9282 493.264 81.9025 493.139 81.8526 493.024C81.8026 492.909 81.7296 492.805 81.638 492.719L79.3314 490.785Z" fill="white"/>
<path d="M84.168 489.644L81.6878 488.106C81.47 487.977 81.2105 487.939 80.9648 487.999C80.719 488.059 80.5066 488.213 80.3732 488.428C80.3061 488.535 80.2612 488.655 80.2411 488.779C80.221 488.904 80.2261 489.031 80.2562 489.154C80.2863 489.276 80.3407 489.392 80.4162 489.493C80.4916 489.594 80.5867 489.679 80.6957 489.743L83.1759 491.281C83.323 491.378 83.4956 491.43 83.672 491.429C83.8336 491.426 83.9915 491.38 84.1305 491.298C84.2695 491.215 84.3849 491.098 84.4656 490.958C84.5968 490.743 84.6391 490.486 84.5835 490.241C84.5279 489.995 84.3789 489.781 84.168 489.644Z" fill="white"/>
<path d="M86.2519 486.444L83.474 485.279C83.2372 485.18 82.9709 485.18 82.7337 485.277C82.4965 485.375 82.3078 485.563 82.2092 485.8C82.1608 485.915 82.1358 486.039 82.1358 486.164C82.1359 486.29 82.1609 486.414 82.2094 486.529C82.2579 486.644 82.3289 486.749 82.4183 486.837C82.5077 486.924 82.6136 486.993 82.73 487.04L85.5079 488.205H85.8799C86.0939 488.194 86.298 488.112 86.4602 487.972C86.6224 487.832 86.7335 487.642 86.7761 487.432C86.8187 487.222 86.7903 487.003 86.6954 486.811C86.6005 486.619 86.4445 486.464 86.2519 486.37V486.444Z" fill="white"/>
<path d="M87.9877 482.873L84.9122 482.104C84.6689 482.044 84.4119 482.084 84.1979 482.215C83.984 482.345 83.8305 482.555 83.7713 482.798C83.7121 483.042 83.752 483.298 83.8822 483.512C84.0125 483.726 84.2224 483.88 84.4657 483.939L87.5165 484.733H87.7397C87.9533 484.73 88.1604 484.659 88.3302 484.529C88.5001 484.4 88.6235 484.219 88.6822 484.013C88.7353 483.77 88.6929 483.516 88.5635 483.304C88.4342 483.091 88.228 482.937 87.9877 482.873Z" fill="white"/>
<path d="M119.214 349.98C118.941 337.976 110.856 332.172 98.8762 332.47C86.8966 332.768 78.2652 339.043 78.5381 351.022L88.0374 476.102H106.044L119.214 349.98Z" fill="#FBBEAA"/>
<path d="M120.777 349.906C120.711 347.056 120.083 344.247 118.931 341.639C117.778 339.032 116.124 336.677 114.061 334.709C111.999 332.741 109.569 331.198 106.91 330.169C104.252 329.14 101.417 328.645 98.5666 328.712C95.7166 328.779 92.9077 329.406 90.3002 330.558C87.6927 331.711 85.3377 333.365 83.3697 335.428C81.4016 337.49 79.8592 339.92 78.8302 342.579C77.8013 345.237 77.306 348.072 77.3728 350.922L71.7416 479.5H120.776L120.777 349.906Z" fill="#93929C"/>
<path d="M181.94 475.134C181.94 472.746 180.992 470.456 179.303 468.768C177.615 467.079 175.325 466.131 172.937 466.131C170.549 466.131 168.259 467.079 166.571 468.768C164.882 470.456 163.934 472.746 163.934 475.134V494.703H181.94V475.134Z" fill="#FBBEAA"/>
<path d="M164.603 478.78C162.37 478.78 161.974 479.748 161.354 481.012C160.296 484.384 158.499 487.476 156.095 490.065C152.518 493.122 148.675 495.853 144.612 498.225V508.593H184.693C184.693 508.593 184.42 500.408 184.222 494.629C184.023 488.85 183.477 481.806 183.502 481.062C183.527 480.318 183.502 478.78 182.163 478.78H164.603Z" fill="#302D3B"/>
<path d="M179.732 495.199C179.737 496.471 179.365 497.715 178.662 498.775C177.959 499.834 176.957 500.662 175.784 501.152C174.611 501.642 173.318 501.772 172.07 501.527C170.823 501.282 169.676 500.672 168.775 499.775C167.874 498.878 167.26 497.733 167.01 496.486C166.76 495.24 166.886 493.947 167.371 492.771C167.857 491.596 168.68 490.591 169.737 489.884C170.794 489.177 172.037 488.8 173.308 488.8C175.008 488.8 176.638 489.473 177.842 490.673C179.046 491.872 179.726 493.5 179.732 495.199Z" fill="#93929C"/>
<path d="M173.333 491.429L174.797 493.587L177.302 494.306L175.69 496.365L175.764 498.969L173.333 498.076L170.878 498.969L170.952 496.365L169.34 494.306L171.87 493.587L173.333 491.429Z" fill="white"/>
<path d="M144.91 498.052C144.91 498.052 139.206 501.053 137.097 502.516C136.105 503.18 135.299 504.087 134.756 505.151C134.213 506.215 133.952 507.4 133.997 508.593H149.647C149.647 508.593 149.226 500.979 144.91 498.052Z" fill="white"/>
<path d="M184.693 508.593V512.884C184.693 513.603 184.073 514 182.981 514H135.658C134.567 514 133.947 513.603 133.947 512.884V508.593H184.693Z" fill="white"/>
<path d="M149.548 495.15C149.413 494.936 149.199 494.785 148.952 494.729C148.706 494.673 148.447 494.717 148.233 494.852C148.02 494.987 147.868 495.201 147.812 495.448C147.757 495.694 147.801 495.953 147.936 496.167L149.598 498.846C149.684 498.985 149.804 499.099 149.948 499.177C150.091 499.255 150.253 499.295 150.416 499.292C150.592 499.292 150.765 499.241 150.912 499.143C151.019 499.077 151.112 498.991 151.185 498.889C151.258 498.787 151.31 498.671 151.338 498.549C151.365 498.426 151.368 498.299 151.346 498.176C151.324 498.052 151.278 497.934 151.21 497.829L149.548 495.15Z" fill="white"/>
<path d="M152.5 493.091C152.336 492.901 152.105 492.781 151.855 492.758C151.605 492.735 151.356 492.81 151.16 492.967C150.968 493.135 150.848 493.37 150.825 493.624C150.802 493.878 150.878 494.132 151.036 494.331L152.996 496.613C153.082 496.721 153.191 496.809 153.316 496.869C153.44 496.929 153.577 496.96 153.715 496.96C153.897 496.962 154.075 496.911 154.229 496.814C154.382 496.717 154.505 496.577 154.581 496.412C154.657 496.247 154.683 496.063 154.657 495.883C154.631 495.703 154.554 495.535 154.434 495.398L152.5 493.091Z" fill="white"/>
<path d="M155.228 490.785C155.03 490.658 154.793 490.607 154.561 490.641C154.329 490.676 154.117 490.793 153.966 490.973C153.814 491.152 153.732 491.38 153.736 491.614C153.74 491.849 153.83 492.074 153.987 492.248L156.22 494.158C156.393 494.305 156.613 494.384 156.84 494.381C156.976 494.384 157.111 494.357 157.236 494.301C157.36 494.245 157.471 494.163 157.559 494.059C157.648 493.971 157.718 493.867 157.766 493.752C157.814 493.637 157.838 493.514 157.838 493.389C157.838 493.265 157.814 493.141 157.766 493.026C157.718 492.911 157.648 492.807 157.559 492.719L155.228 490.785Z" fill="white"/>
<path d="M160.064 489.644L157.584 488.106C157.37 488.016 157.131 488.005 156.91 488.077C156.689 488.148 156.501 488.297 156.381 488.496C156.26 488.694 156.215 488.93 156.254 489.159C156.293 489.388 156.413 489.595 156.592 489.743L159.072 491.281C159.219 491.378 159.392 491.43 159.568 491.429C159.733 491.427 159.895 491.383 160.039 491.301C160.182 491.218 160.302 491.1 160.387 490.958C160.515 490.74 160.554 490.481 160.494 490.235C160.433 489.989 160.279 489.777 160.064 489.644Z" fill="white"/>
<path d="M22.757 72.0179L32.678 134.297C34.315 142.11 31.7851 149.179 22.757 150.419C21.0905 150.636 19.3973 150.512 17.7801 150.055C16.163 149.597 14.6556 148.816 13.3497 147.758C12.0437 146.701 10.9664 145.388 10.1831 143.902C9.39981 142.415 8.92692 140.784 8.79311 139.109L5.76719 72.1419C4.9735 65.8172 7.72654 61.6008 12.5382 61.08C18.4413 60.4351 21.5665 63.9323 22.757 72.0179Z" fill="#FBBEAA"/>
<path d="M162.147 486.445L159.369 485.279C159.254 485.23 159.13 485.206 159.005 485.206C158.88 485.206 158.756 485.231 158.64 485.279C158.525 485.328 158.42 485.399 158.332 485.488C158.245 485.577 158.176 485.683 158.129 485.8C158.037 486.031 158.037 486.288 158.129 486.519C158.221 486.75 158.399 486.937 158.625 487.04L161.428 488.206C161.542 488.231 161.661 488.231 161.775 488.206C161.966 488.206 162.153 488.149 162.312 488.043C162.471 487.937 162.595 487.787 162.668 487.61C162.744 487.386 162.732 487.142 162.635 486.926C162.539 486.71 162.365 486.538 162.147 486.445Z" fill="white"/>
<path d="M163.884 482.873L160.833 482.104C160.587 482.044 160.326 482.083 160.108 482.212C159.89 482.342 159.732 482.553 159.668 482.798C159.638 482.919 159.632 483.044 159.651 483.167C159.67 483.289 159.713 483.407 159.778 483.513C159.842 483.619 159.927 483.711 160.027 483.784C160.128 483.858 160.241 483.91 160.362 483.939L163.413 484.733H163.661C163.884 484.716 164.095 484.622 164.257 484.466C164.418 484.311 164.521 484.105 164.547 483.882C164.574 483.66 164.522 483.435 164.401 483.246C164.28 483.058 164.097 482.917 163.884 482.848V482.873Z" fill="white"/>
<path d="M172.093 349.608C170.875 343.978 167.471 339.062 162.629 335.942C157.787 332.821 151.904 331.75 146.274 332.966C134.542 335.446 128.217 347.004 130.747 358.736L163.933 478.16H182.163L172.093 349.608Z" fill="#FBBEAA"/>
<path d="M172.09 347.252C170.744 341.757 167.308 337.004 162.512 334.003C157.717 331.002 151.94 329.99 146.409 331.182C140.879 332.374 136.032 335.676 132.898 340.386C129.764 345.096 128.591 350.842 129.628 356.404L142.823 479C142.823 479 174.421 480.885 193.246 479L172.09 347.252Z" fill="#93929C"/>
<path d="M14.6959 127.402L85.9289 73.2827C94.2378 67.9749 99.8927 70.8024 104.308 76.4822C106.324 79.2313 107.259 82.6258 106.934 86.0195C106.609 89.4132 105.048 92.5689 102.547 94.8858L31.4872 147.244C28.9831 149.359 25.7595 150.426 22.4881 150.223C19.2167 150.019 16.15 148.561 13.927 146.153L13.6046 145.806C12.4247 144.547 11.5137 143.061 10.9271 141.439C10.3405 139.816 10.0906 138.091 10.1928 136.369C10.2949 134.647 10.7469 132.964 11.5211 131.422C12.2953 129.88 13.3755 128.512 14.6959 127.402Z" fill="#FBBEAA"/>
<path d="M102.547 94.8611C103.205 94.2951 103.803 93.6635 104.333 92.9761C104.801 91.2109 104.862 89.3622 104.509 87.5702C104.157 85.7781 103.401 84.0899 102.299 82.6335C98.554 76.8545 90.6916 72.3156 87.1944 73.1837L83.722 74.9447L44.4099 104.708C47.8892 112.885 52.5891 120.486 58.349 127.253L102.547 94.8611Z" fill="#F18380"/>
<path d="M91.8075 69.4133L30.1641 110.988C30.4234 113.115 23.5898 69.4133 23.5898 69.4133L4.25389 71.9297C4.25389 71.9297 4.64742 116.058 7.53399 139.478C8.68635 148.828 16.3967 152.397 25.6005 150.389C30.1446 149.397 34.4226 147.533 38.2295 144.861C54.588 133.379 100.481 101.038 104.234 96.9691C110.707 89.9499 110.707 84.6918 106.987 78.9128C103.266 73.1338 95.3046 68.5452 91.8075 69.4133Z" fill="#002776"/>
<path d="M120.777 349.906L133.501 216.691C133.501 201.983 118.347 185.961 95.9994 189.408C75.8101 192.558 69.659 212.847 71.3208 232.069C72.9826 251.291 77.4719 350.849 77.4719 350.849C77.5387 353.699 78.1661 356.507 79.3185 359.115C80.4708 361.722 82.1254 364.077 84.1878 366.045C86.2503 368.013 88.6802 369.556 91.3388 370.585C93.9974 371.614 96.8326 372.109 99.6826 372.042C102.533 371.976 105.342 371.348 107.949 370.196C110.556 369.043 112.911 367.389 114.879 365.326C116.848 363.264 118.39 360.834 119.419 358.175C120.448 355.517 120.943 352.682 120.876 349.832L120.777 349.906Z" fill="#93929C"/>
<path d="M172.093 347.252L159.443 214.062C156.765 199.602 138.783 186.779 117.477 194.369C98.2554 201.239 96.0232 222.321 101.281 240.899C106.54 259.476 129.631 356.404 129.631 356.404C130.977 361.899 134.413 366.652 139.209 369.653C144.004 372.654 149.781 373.666 155.312 372.474C160.842 371.282 165.689 367.98 168.823 363.27C171.956 358.56 173.13 352.813 172.093 347.252Z" fill="#93929C"/>
<path d="M101.282 240.899C106.515 259.476 129.631 356.405 129.631 356.405" stroke="#5E5D63" stroke-width="0.75" stroke-miterlimit="10"/>
<path d="M105.002 67.3049C105.002 67.3049 94.0395 69.2147 91.9065 69.7852C90.6477 70.0806 89.4845 70.6907 88.5258 71.5583C87.5671 72.4259 86.8443 73.5226 86.4251 74.7457C85.061 77.9949 78.0419 99.2755 77.397 101.582C76.961 104.123 77.3705 106.737 78.5628 109.023C79.5797 111.801 84.8378 124.45 84.8378 124.45L85.6314 165.201L115.244 169.898L143.62 165.201C143.62 165.201 153.541 89.4041 154.037 84.7164C154.533 80.0287 152.202 70.9758 146.596 69.8348C140.991 68.6939 125.613 67.3546 125.613 67.3546L105.002 67.3049Z" fill="#FBBEAA"/>
<path d="M84.2409 148.816V163.142C103.637 164.928 134.542 163.663 146.149 163.142C146.695 159.05 147.266 152.105 147.861 147.492C132.062 147.889 105.968 149.361 84.2409 148.816Z" fill="white"/>
<path d="M186.528 161.555L154.756 77.9453C150.515 69.0164 144.24 68.4211 137.394 70.9014C134.228 72.1644 131.638 74.5495 130.119 77.6012C128.6 80.6529 128.259 84.1572 129.16 87.4448L161.874 169.566C162.866 172.69 165.03 175.309 167.911 176.872C170.792 178.435 174.167 178.821 177.326 177.949L177.798 177.825C179.464 177.371 181.021 176.581 182.373 175.505C183.724 174.429 184.843 173.089 185.66 171.566C186.477 170.044 186.975 168.371 187.124 166.65C187.274 164.929 187.071 163.195 186.528 161.555Z" fill="#FBBEAA"/>
<path d="M173.359 126.881L154.757 77.9452C154.258 76.872 153.669 75.8432 152.996 74.8697C150.717 73.4431 148.109 72.6295 145.423 72.5078C142.738 72.3861 140.066 72.9605 137.668 74.1752C134.883 75.5304 132.644 77.796 131.323 80.597C130.001 83.3981 129.676 86.5665 130.401 89.5776C130.401 89.8752 130.574 90.4457 130.723 91.2146L149.92 139.456C158.306 136.432 166.202 132.195 173.359 126.881Z" fill="#F18380"/>
<path d="M153.02 73.4811L188.332 165.129C159.329 155.848 157.747 160.5 152.247 146C152.247 146 128.763 89.95 128.069 86.1304C127.344 83.1192 127.669 79.9509 128.991 77.1499C130.313 74.3489 132.551 72.0832 135.336 70.728C143.099 66.7596 150.838 70.356 153.02 73.4811Z" fill="#002776"/>
<path d="M126.581 7.90263C127.896 4.7279 134.518 3.31417 138.238 5.05035C141.959 6.78653 145.679 11.3502 146.225 23.7515C146.77 36.1528 145.754 45.6273 147.986 51.8776C145.922 51.6167 143.982 50.7541 142.405 49.3973C142.405 51.0343 142.157 55.0027 142.157 55.0027C140.957 54.9052 139.809 54.4655 138.851 53.7357C137.893 53.006 137.164 52.0169 136.75 50.8855C136.077 52.3169 135.65 53.8513 135.485 55.4244C133.303 54.2835 126.581 52.2993 126.581 40.5429V7.90263Z" fill="#1D1B24"/>
<path d="M83.3497 49.1002C84.0194 40.0968 86.6732 25.2152 86.6732 25.2152L93.0227 24.868C93.0227 24.868 94.7093 51.6796 95.1805 57.533C95.6518 63.3864 97.3383 64.9738 97.3383 64.9738C97.3383 64.9738 89.2775 63.8577 88.0126 56.2929C87.8271 57.774 87.7278 59.2647 87.715 60.7574C87.715 60.7574 82.6552 58.1035 83.3497 49.1002Z" fill="#302D3B"/>
<path d="M126.308 46.8185V67.8759C126.308 67.8759 124.646 75.1182 113.509 75.1182C111.299 75.3047 109.1 74.6375 107.366 73.2537C105.631 71.8699 104.493 69.8746 104.184 67.6775V46.8432L126.308 46.8185Z" fill="#FBBEAA"/>
<path d="M104.184 64.3539C111.178 67.6774 121.372 64.7011 126.308 55.5738V46.8185H104.184V64.3539Z" fill="#F18380"/>
<path d="M90.3692 30.6718C90.2639 35.7083 90.4959 40.7462 91.0637 45.7517C91.9566 52.9197 94.4865 60.8566 107.161 60.8566C119.835 60.8566 126.259 55.1271 128.987 45.7517C130.624 40.0967 133.947 31.7135 132.583 22.0404C131.219 12.3674 125.39 6.04283 111.625 5.67079C97.8596 5.29876 88.9306 11.4498 90.3692 30.6718Z" fill="#FBBEAA"/>
<path d="M117.18 34.9622C117.096 35.3349 116.909 35.6764 116.64 35.9477C116.371 36.219 116.031 36.4089 115.659 36.4959C115.287 36.5829 114.898 36.5634 114.537 36.4395C114.175 36.3157 113.856 36.0926 113.616 35.7957C113.375 35.4988 113.223 35.1403 113.177 34.761C113.131 34.3818 113.193 33.9972 113.355 33.6514C113.517 33.3055 113.774 33.0124 114.095 32.8056C114.416 32.5988 114.789 32.4866 115.171 32.4819C115.467 32.5097 115.755 32.5963 116.017 32.7366C116.279 32.877 116.51 33.0684 116.698 33.2994C116.885 33.5304 117.024 33.7965 117.107 34.0821C117.19 34.3676 117.215 34.6669 117.18 34.9622Z" fill="#403D4F"/>
<path d="M98.7274 34.9622C98.6433 35.336 98.4554 35.6783 98.1852 35.95C97.9151 36.2216 97.5737 36.4114 97.2004 36.4975C96.8271 36.5836 96.437 36.5625 96.0752 36.4367C95.7133 36.3108 95.3944 36.0854 95.1551 35.7862C94.9158 35.4871 94.7658 35.1264 94.7225 34.7458C94.6792 34.3651 94.7442 33.98 94.9101 33.6347C95.0761 33.2894 95.3362 32.998 95.6605 32.7941C95.9848 32.5901 96.3601 32.4819 96.7432 32.4819C97.0371 32.5127 97.3219 32.6016 97.5811 32.7433C97.8404 32.885 98.0689 33.0768 98.2535 33.3075C98.4381 33.5382 98.575 33.8033 98.6563 34.0874C98.7377 34.3714 98.7619 34.6687 98.7274 34.9622Z" fill="#403D4F"/>
<path d="M111.178 27.9436L111.377 27.7204C111.584 27.5426 111.809 27.3848 112.046 27.2492C112.354 27.0599 112.688 26.9178 113.038 26.8276C113.428 26.6809 113.838 26.5971 114.254 26.5795C114.649 26.53 115.049 26.53 115.444 26.5795C115.791 26.5493 116.139 26.5493 116.486 26.5795L117.453 26.8523C117.587 26.9059 117.699 27.0028 117.771 27.1275C117.844 27.2522 117.872 27.3976 117.852 27.5404C117.832 27.6832 117.765 27.8151 117.661 27.9152C117.557 28.0152 117.423 28.0777 117.28 28.0924H116.287C115.999 28.055 115.708 28.055 115.419 28.0924C115.097 28.0678 114.774 28.0678 114.452 28.0924C114.135 28.1339 113.821 28.1918 113.51 28.2661C113.212 28.2661 112.964 28.4645 112.716 28.4893C112.541 28.5669 112.358 28.6251 112.17 28.6629H111.972C111.813 28.7313 111.635 28.736 111.473 28.6759C111.311 28.6159 111.179 28.4957 111.104 28.3405C111.067 28.2542 111.048 28.1615 111.048 28.0677C111.048 27.9739 111.067 27.8811 111.104 27.7948L111.178 27.9436Z" fill="#403D4F"/>
<path d="M99.1248 28.8856H98.9513L98.5792 28.7368H98.3064C98.214 28.6806 98.1137 28.6388 98.0088 28.6128C97.7979 28.5405 97.5825 28.4825 97.3639 28.4392C97.1254 28.4042 96.883 28.4042 96.6446 28.4392C96.4386 28.4154 96.2305 28.4154 96.0245 28.4392H95.2309C95.0642 28.4328 94.9064 28.3619 94.7908 28.2417C94.6752 28.1214 94.6107 27.9611 94.6108 27.7943C94.6089 27.6696 94.6461 27.5475 94.7173 27.4451C94.7885 27.3428 94.89 27.2653 95.0076 27.2238L95.7765 26.951C96.0479 26.8569 96.3326 26.8067 96.6198 26.8022C96.956 26.7407 97.3005 26.7407 97.6367 26.8022C98.2869 26.8727 98.905 27.1217 99.4225 27.5215C99.5978 27.6593 99.7559 27.8175 99.8937 27.9927C100.018 28.1416 100.018 28.1911 100.018 28.1911V28.4392C100.039 28.6066 99.9938 28.7757 99.8918 28.9102C99.7898 29.0447 99.6391 29.1339 99.4721 29.1585C99.3978 29.1412 99.3281 29.1078 99.2681 29.0607C99.2081 29.0135 99.1592 28.9537 99.1248 28.8856Z" fill="#403D4F"/>
<path d="M104.184 43.3951C103.765 43.3987 103.35 43.3144 102.965 43.1478C102.581 42.9812 102.236 42.7359 101.952 42.4278C101.847 42.32 101.767 42.1914 101.716 42.0503C101.664 41.9093 101.643 41.759 101.654 41.6094C101.654 41.3365 102.076 37.9138 102.224 36.6488C102.243 36.5215 102.31 36.4063 102.412 36.3277C102.514 36.249 102.642 36.2129 102.77 36.2272C102.893 36.2455 103.004 36.3092 103.082 36.4056C103.16 36.502 103.199 36.6242 103.192 36.7481C103.192 36.9465 102.646 41.4358 102.597 41.7086C102.8 41.9334 103.049 42.1117 103.327 42.2315C103.605 42.3514 103.906 42.4099 104.209 42.4031C104.269 42.403 104.33 42.4153 104.385 42.4392C104.441 42.4632 104.492 42.4983 104.534 42.5424C104.575 42.5865 104.608 42.6388 104.629 42.6958C104.649 42.7529 104.659 42.8136 104.655 42.8743C104.667 42.941 104.663 43.0094 104.644 43.0744C104.625 43.1393 104.592 43.1991 104.546 43.2493C104.501 43.2995 104.445 43.3387 104.382 43.364C104.319 43.3892 104.251 43.3999 104.184 43.3951Z" fill="#F18380"/>
<path d="M120.48 1.57829C106.739 -2.71256 96.9669 2.66964 93.8665 6.73727C92.6092 6.32416 91.4979 5.55667 90.6663 4.52708C89.8347 3.49748 89.3182 2.24961 89.1789 0.933471C88.4615 1.32708 87.8885 1.93927 87.5431 2.68104C87.1977 3.4228 87.098 4.25541 87.2584 5.05775C87.4189 5.86009 87.8312 6.59028 88.4353 7.14214C89.0394 7.69401 89.8038 8.03877 90.6174 8.12621C85.6569 9.76318 82.755 14.7485 82.9038 20.9244C83.1124 23.1822 83.9092 25.346 85.2148 27.1999C86.5203 29.0538 88.2891 30.533 90.3446 31.4902C91.7882 27.1604 93.9607 23.1089 96.7685 19.5106C97.5409 22.6845 99.1786 25.5819 101.499 27.8807C103.82 30.1795 106.733 31.7896 109.914 32.532C109.605 30.6212 109.115 28.7442 108.45 26.9265C111.232 29.2496 114.533 30.8663 118.074 31.6391C118.321 29.5335 118.263 27.4032 117.9 25.3144C120.381 29.7789 124.547 36.55 130.698 38.435H134.568C136.602 34.2645 137.565 29.6529 137.37 25.0168C137.321 16.4351 134.22 5.86914 120.48 1.57829Z" fill="#302D3B"/>
<path d="M128.49 39.9482C128.689 36.5751 129.582 32.5075 133.699 33.2267C138.511 33.946 138.982 46.9674 128.738 45.4048L128.49 39.9482Z" fill="#FBBEAA"/>
<path d="M134.096 40.8163C134.01 40.8175 133.925 40.795 133.85 40.7512C133.776 40.7075 133.715 40.6442 133.674 40.5682C133.569 40.3505 133.408 40.1645 133.208 40.0294C133.007 39.8943 132.775 39.8149 132.533 39.7993C132.25 39.8022 131.972 39.8765 131.725 40.0152C131.478 40.1539 131.27 40.3526 131.12 40.593C131.064 40.6823 130.98 40.7503 130.881 40.7863C130.782 40.8222 130.674 40.824 130.574 40.7914C130.474 40.7543 130.389 40.6861 130.331 40.5968C130.273 40.5074 130.245 40.4018 130.252 40.2954C130.289 39.2476 130.614 38.2302 131.191 37.3551C131.769 36.48 132.577 35.781 133.526 35.3349C133.644 35.2956 133.773 35.3048 133.885 35.3606C133.996 35.4164 134.081 35.5142 134.121 35.6325C134.16 35.7509 134.151 35.8801 134.095 35.9917C134.039 36.1033 133.941 36.1881 133.823 36.2278C133.266 36.4987 132.769 36.8804 132.364 37.3494C131.959 37.8185 131.654 38.3651 131.467 38.9561C131.821 38.8087 132.2 38.7328 132.583 38.7328C132.984 38.7708 133.37 38.9058 133.707 39.1261C134.044 39.3465 134.322 39.6457 134.518 39.9978C134.548 40.053 134.566 40.1137 134.573 40.1762C134.579 40.2388 134.573 40.3019 134.554 40.362C134.536 40.4221 134.505 40.4779 134.465 40.5261C134.425 40.5743 134.375 40.6139 134.319 40.6426L134.096 40.8163Z" fill="#F18380"/>
<path d="M133.476 48.3806C132.286 39.4269 128.863 24.6941 128.863 24.6941H122.489C122.489 24.6941 122.241 51.5553 122.067 57.4335C121.893 63.3118 120.331 65.0727 120.331 65.0727C120.331 65.0727 128.317 63.535 129.185 55.8958C129.451 57.3717 129.625 58.8627 129.706 60.3602C129.706 60.3602 134.642 57.3344 133.476 48.3806Z" fill="#302D3B"/>
<path d="M21.9638 50.5139C22.9063 50.5139 22.9806 49.9187 23.4023 48.8274C21.2941 48.8274 15.1678 49.2242 12.4892 54.3831C15.1926 50.6627 20.3764 50.5139 21.9638 50.5139ZM17.1521 30.8951C17.1521 30.8951 17.3009 31.7632 17.4497 33.0281C17.4497 33.673 17.5985 34.4418 17.6481 35.2355C17.6977 36.0292 17.7721 36.8973 17.8465 37.7158C17.8465 39.452 17.9705 41.1634 17.9705 42.4531C17.9705 43.7428 17.9705 44.6109 17.9705 44.6109C17.9707 44.6522 17.9622 44.693 17.9458 44.7309C17.9293 44.7687 17.9051 44.8026 17.8748 44.8306C17.8444 44.8586 17.8086 44.88 17.7696 44.8935C17.7306 44.9069 17.6893 44.912 17.6481 44.9085C17.5784 44.905 17.5115 44.8789 17.4578 44.8342C17.4042 44.7895 17.3665 44.7286 17.3504 44.6606C17.3504 44.6606 17.2017 43.7924 17.0777 42.5027C16.9536 41.2129 16.7552 39.5016 16.6808 37.7902C16.6808 36.9221 16.6808 36.054 16.6808 35.3099C16.6808 34.5659 16.6808 33.7474 16.6808 33.1025C16.6808 31.788 16.6808 30.9446 16.6808 30.9446C16.6807 30.9034 16.6891 30.8626 16.7056 30.8248C16.722 30.7869 16.7462 30.7529 16.7765 30.7249C16.8069 30.6969 16.8427 30.6756 16.8817 30.6622C16.9207 30.6488 16.9621 30.6436 17.0032 30.647C17.0508 30.6744 17.0898 30.7144 17.1161 30.7625C17.1424 30.8107 17.1548 30.8651 17.1521 30.9199V30.8951ZM11.3978 32.6313C11.3978 32.6313 11.5467 33.3753 11.7203 34.4667C11.7203 35.0371 11.8939 35.682 11.9683 36.3764C12.0427 37.0709 12.1171 37.815 12.1915 38.5591C12.1915 40.0472 12.3651 41.5354 12.3899 42.6515C12.4147 43.7676 12.3899 44.5365 12.3899 44.5365C12.3868 44.5756 12.376 44.6137 12.3581 44.6487C12.3401 44.6836 12.3155 44.7147 12.2855 44.74C12.2556 44.7654 12.2209 44.7846 12.1834 44.7965C12.146 44.8084 12.1067 44.8128 12.0676 44.8094C12.0008 44.8047 11.9376 44.7777 11.8881 44.7327C11.8386 44.6877 11.8057 44.6273 11.7947 44.5613C11.7947 44.5613 11.6459 43.8172 11.4722 42.7259C11.2986 41.6346 11.1498 40.1216 11.0258 38.6583C11.0258 37.9142 11.0258 37.1701 10.877 36.4757C10.7282 35.7812 10.877 35.1115 10.877 34.5411C10.877 33.4249 10.877 32.6809 10.877 32.6809C10.8769 32.6396 10.8853 32.5988 10.9018 32.561C10.9182 32.5231 10.9424 32.4891 10.9728 32.4611C11.0031 32.4331 11.0389 32.4118 11.0779 32.3984C11.1169 32.385 11.1583 32.3798 11.1994 32.3832C11.2545 32.406 11.3021 32.4435 11.3371 32.4916C11.3722 32.5398 11.3932 32.5967 11.3978 32.656V32.6313ZM5.84208 34.9875C5.84208 34.9875 5.99085 35.6076 6.18927 36.5501C6.18927 36.9965 6.38774 37.5422 6.46214 38.1375C6.53655 38.7327 6.63573 39.3528 6.73493 39.9728C6.90855 41.2378 6.98302 42.4531 7.03263 43.4452C7.08224 44.4373 7.03263 45.0326 7.03263 45.0326C7.03277 45.0738 7.02429 45.1146 7.0078 45.1525C6.99132 45.1903 6.96712 45.2243 6.9368 45.2523C6.90648 45.2803 6.87069 45.3017 6.83167 45.3151C6.79264 45.3285 6.7513 45.3336 6.71018 45.3302C6.64686 45.3269 6.58623 45.3034 6.53715 45.2633C6.48808 45.2231 6.45308 45.1684 6.43731 45.107C6.43731 45.107 6.26374 44.4869 6.09012 43.5692C5.9165 42.6515 5.66845 41.3618 5.51963 40.1216C5.51963 39.4768 5.3956 38.8567 5.34599 38.2614C5.29639 37.6662 5.34599 37.1205 5.34599 36.6493C5.34599 35.7068 5.34599 35.0619 5.34599 35.0619C5.34585 35.0206 5.35434 34.9798 5.37082 34.942C5.38731 34.9042 5.41142 34.8701 5.44175 34.8422C5.47206 34.8142 5.50793 34.7928 5.54696 34.7794C5.58598 34.766 5.62732 34.7608 5.66844 34.7643C5.71423 34.7898 5.75365 34.8254 5.78372 34.8683C5.81379 34.9113 5.83374 34.9605 5.84208 35.0123V34.9875Z" fill="#F18380"/>
<path d="M106.217 49.6053C108.611 49.5129 110.91 48.6421 112.765 47.125" stroke="#73102A" stroke-width="0.5" stroke-miterlimit="10" stroke-linecap="round"/>
<path d="M159.216 213.611C158.673 206.782 151.346 180.6 143.477 165.685C143.477 165.685 126.311 162.964 115.256 163C103.722 163.038 85.801 165.685 85.801 165.685C80.6698 177.297 74.8234 202.665 73.1212 208.138C72.0936 211.358 71.9688 214.797 72.7604 218.083C73.5519 221.369 75.2296 224.375 77.611 226.775C83.4575 233.407 98.5301 241 102.008 241C116.973 238.864 131.641 235.009 145.722 229.512C153.665 226.184 159.734 220.464 159.216 213.611Z" fill="#93929C"/>
<path d="M104.482 67.4453C104.482 67.4453 93.4398 69.3689 91.2664 69.9435C90.0014 70.2475 88.833 70.8642 87.8684 71.7372C86.9037 72.6102 86.1738 73.7114 85.7454 74.9399C84.3964 78.2125 77.3265 99.6469 76.652 101.97C76.2128 104.53 76.6253 107.162 77.8262 109.465C78.8254 112.188 84.1466 124.904 84.1466 124.904L84.946 165.949H143.379C143.379 165.949 153.296 89.6292 153.771 84.9326C154.246 80.236 151.922 71.0927 146.276 69.9435C140.631 68.7943 125.167 67.4453 125.167 67.4453H104.482Z" fill="white"/>
<path d="M125.916 67.4453C123.605 75.5821 122.305 83.9725 122.044 92.4271V202.972C122.044 206.369 123.518 206.594 125.292 206.594H156.794C158.418 206.594 160.891 205.545 160.091 203.222C159.292 200.898 152.247 179.789 145.377 165.374C145.377 165.374 155.22 86.0568 155.22 82.3095C155.22 78.5622 152.472 70.9677 147.725 69.8185C142.979 68.6694 125.816 66.6958 125.816 66.6958L125.916 67.4453Z" fill="#002776"/>
<path d="M103.657 67.7206C102.259 78.3445 101.425 89.0351 101.159 99.7474V203.472C101.159 205.82 100.56 206.545 98.3362 206.545H73.1795C71.5057 206.545 70.8811 205.521 71.3058 203.447C71.7305 201.374 82.8724 165.974 82.8724 165.974L81.8981 125.229C81.8981 125.229 76.1773 106.043 75.9525 104.519C75.68 102.614 75.8597 100.671 76.477 98.848C77.1765 97.0243 85.1707 75.6149 85.9202 74.066C86.425 73.0119 87.1501 72.0784 88.0465 71.3285C88.9429 70.5786 89.9898 70.0298 91.1164 69.7191C93.8145 69.0696 103.732 67.2209 103.732 67.2209L103.657 67.7206Z" fill="#002776"/>
<path d="M122.044 131.799C122.044 131.799 136.458 100.696 137.483 98.6728C138.507 96.6493 137.907 94.6257 135.459 95.0005C133.011 95.3752 121.569 98.348 121.569 98.348L122.044 131.799Z" fill="#003399"/>
<path d="M121.594 99.4221C121.594 99.4221 134.335 89.7541 135.459 88.9547C135.995 88.5392 136.389 87.9675 136.586 87.3186C136.783 86.6697 136.773 85.9756 136.559 85.3324C136.084 84.2581 129.639 65.3468 128.839 64.0478C127.957 62.9469 126.979 61.927 125.916 61C125.916 61 123.543 71.5673 122.744 76.7386C121.952 84.2735 121.568 91.8458 121.594 99.4221Z" fill="#003399"/>
<path d="M101.134 131.799C101.134 131.799 86.7197 100.696 85.7204 98.6728C84.7211 96.6493 85.2958 94.6257 87.744 95.0005C90.1922 95.3752 101.609 98.348 101.609 98.348L101.134 131.799Z" fill="#003399"/>
<path d="M101.609 99.4224C101.609 99.4224 90.2671 89.7544 89.2678 88.955C88.7877 88.4984 88.4695 87.8978 88.3614 87.2442C88.2532 86.5906 88.3609 85.9195 88.6683 85.3326C89.2928 84.2584 99.3355 67.4456 100.31 66.2714C101.342 65.167 102.461 64.1477 103.657 63.2236C103.657 63.2236 103.882 66.0716 103.807 68.5198C103.732 70.968 101.609 99.4224 101.609 99.4224Z" fill="#003399"/>
<g filter="url(#filter0_d_1_540)">
<rect width="40.9288" height="58.3236" rx="1" transform="matrix(-0.993463 -0.114154 -0.114154 0.993463 136.246 108.672)" fill="#EFEFEF"/>
</g>
<path d="M117.029 134.811C114.183 133.609 111.609 131.827 109.472 129.578C108.148 128.189 106.648 126.984 105.01 125.994C104.05 125.394 103.22 124.601 102.575 123.667C101.723 122.217 101.017 120.686 100.469 119.098C100.266 117.73 99.8007 116.411 99.099 115.217C98.4319 114.605 96.077 114.932 94.8546 117.308C94.4333 118.366 94.2423 119.505 94.2947 120.649C94.347 121.793 94.6414 122.916 95.1581 123.942C95.7664 125.172 96.2428 126.463 96.5794 127.792L96.3574 127.925C94.4949 126.936 92.5045 126.219 90.4469 125.795C89.7006 125.628 88.9232 125.719 88.24 126.051C87.5568 126.384 87.0075 126.94 86.6807 127.629C86.3538 128.319 86.2684 129.102 86.4383 129.852C86.6082 130.602 87.0234 131.276 87.6171 131.765C84.4062 132.134 84.7707 137.086 87.5272 137.741C86.9369 137.988 86.4387 138.414 86.0998 138.959C85.7609 139.504 85.5977 140.142 85.6324 140.788C85.667 141.434 85.8977 142.056 86.2934 142.569C86.689 143.083 87.2305 143.464 87.8446 143.661C85.8867 145.466 87.3178 148.441 90.8729 148.454C93.7613 148.748 101.486 149.957 104.174 150.536C106.862 151.114 112.264 149.835 113.999 150.372C116.582 151.318 119.582 151.334 121.871 144.537C124.159 137.74 119.688 135.69 117.029 134.811Z" fill="#FBBEAA"/>
<path d="M115.246 155L168.246 177.5C175.47 180.873 184.001 177.929 187.246 169.5C187.84 167.929 187.88 165.36 187.806 163.682C187.733 162.004 187.319 160.359 186.59 158.845C185.862 157.332 184.512 154.604 183.247 153.5C181.981 152.396 177.47 150.359 175.872 149.843L116.246 133.5L115.246 155Z" fill="#002776"/>
<defs>
<filter id="filter0_d_1_540" x="89.0348" y="104.107" width="49.1041" height="62.3995" filterUnits="userSpaceOnUse" color-interpolation-filters="sRGB">
<feFlood flood-opacity="0" result="BackgroundImageFix"/>
<feColorMatrix in="SourceAlpha" type="matrix" values="0 0 0 0 0 0 0 0 0 0 0 0 0 0 0 0 0 0 127 0" result="hardAlpha"/>
<feOffset dx="2"/>
<feComposite in2="hardAlpha" operator="out"/>
<feColorMatrix type="matrix" values="0 0 0 0 0.603922 0 0 0 0 0.6 0 0 0 0 0.631373 0 0 0 1 0"/>
<feBlend mode="normal" in2="BackgroundImageFix" result="effect1_dropShadow_1_540"/>
<feBlend mode="normal" in="SourceGraphic" in2="effect1_dropShadow_1_540" result="shape"/>
</filter>
</defs>
</svg>
