<svg width="190" height="514" viewBox="0 0 190 514" fill="none" xmlns="http://www.w3.org/2000/svg">
<path d="M120.966 18.7165C119.936 14.9995 120.315 11.0328 122.03 7.57825C123.746 4.12368 126.678 1.4248 130.262 0C131.686 1.42435 130.962 5.97227 130.962 5.97227C135.995 3.61378 141.639 2.88857 147.104 3.89822C147.005 7.39264 145.688 10.7426 143.381 13.3689C146.177 13.6508 148.867 14.5929 151.228 16.1176C150.87 17.7646 150.126 19.303 149.057 20.6063C147.988 21.9096 146.625 22.9405 145.08 23.6142C146.653 25.4559 147.736 27.6648 148.229 30.0363C145.545 30.8104 142.709 30.8963 139.983 30.2862C140.423 31.6653 140.601 33.1146 140.507 34.5592C137.919 34.9392 135.278 34.7444 132.773 33.9886C130.268 33.2328 127.961 31.9346 126.014 30.1862C123.432 26.8253 121.701 22.8904 120.966 18.7165Z" fill="#E69D7E"/>
<path d="M136.409 32.2108C136.809 38.6829 140.882 48.5034 139.808 56.7246C138.309 68.3194 123.965 68.1944 118.418 68.1944H110.196V32.2108H136.409Z" fill="#E69D7E"/>
<path d="M123.815 54.875V76.0903C123.815 76.0903 122.141 83.387 110.946 83.387C108.719 83.5749 106.504 82.9027 104.756 81.5085C103.009 80.1143 101.862 78.104 101.55 75.8904V54.9L123.815 54.875Z" fill="#FBBEAA"/>
<path d="M101.55 72.5419C108.572 75.8904 118.842 72.8918 123.815 63.696V54.875H101.55V72.5419Z" fill="#F18380"/>
<path d="M87.6065 38.5819C87.5148 43.656 87.7485 48.7308 88.3062 53.775C89.2058 60.9967 91.7796 68.993 104.524 68.993C117.268 68.993 123.79 63.2207 126.514 53.775C128.163 48.0776 131.512 39.6314 130.137 29.8859C128.763 20.1403 122.89 13.7682 109.047 13.3934C95.2031 13.0186 86.1822 19.2407 87.6065 38.5819Z" fill="#FBBEAA"/>
<path d="M114.619 42.9303C114.534 43.3068 114.345 43.6518 114.073 43.9254C113.8 44.1991 113.457 44.3903 113.08 44.4771C112.704 44.5638 112.311 44.5426 111.947 44.4158C111.582 44.2891 111.261 44.0619 111.02 43.7605C110.779 43.4591 110.628 43.0957 110.584 42.7122C110.54 42.3287 110.606 41.9407 110.773 41.5928C110.94 41.245 111.202 40.9514 111.529 40.7459C111.856 40.5404 112.234 40.4314 112.62 40.4314C112.916 40.4624 113.203 40.552 113.464 40.6947C113.725 40.8375 113.956 41.0307 114.141 41.2632C114.327 41.4956 114.465 41.7627 114.547 42.0488C114.629 42.335 114.654 42.6346 114.619 42.9303Z" fill="#403D4F"/>
<path d="M96.0527 42.9303C95.9679 43.3068 95.7786 43.6518 95.5064 43.9254C95.2342 44.1991 94.8902 44.3903 94.5141 44.4771C94.138 44.5638 93.7451 44.5426 93.3805 44.4158C93.016 44.2891 92.6946 44.0619 92.4535 43.7605C92.2124 43.4591 92.0613 43.0957 92.0176 42.7122C91.974 42.3287 92.0395 41.9407 92.2067 41.5928C92.3739 41.245 92.636 40.9514 92.9627 40.7459C93.2895 40.5404 93.6676 40.4314 94.0536 40.4314C94.3496 40.4624 94.6366 40.552 94.8978 40.6947C95.159 40.8375 95.3892 41.0307 95.5752 41.2632C95.7611 41.4956 95.8991 41.7627 95.9811 42.0488C96.063 42.335 96.0874 42.6346 96.0527 42.9303Z" fill="#403D4F"/>
<path d="M108.572 35.8587C108.572 35.8587 108.572 35.8587 108.797 35.6338C108.997 35.4541 109.215 35.295 109.447 35.159C109.757 34.9683 110.094 34.8251 110.446 34.7342C110.839 34.5888 111.252 34.5045 111.67 34.4843C112.077 34.4341 112.488 34.4341 112.895 34.4843C113.24 34.4951 113.582 34.5369 113.919 34.6092L114.894 34.8841C115.055 34.9359 115.189 35.0484 115.269 35.1977C115.348 35.347 115.366 35.5214 115.319 35.6837C115.281 35.8135 115.202 35.9275 115.094 36.0086C114.986 36.0897 114.854 36.1335 114.719 36.1335H113.745C113.454 36.0962 113.16 36.0962 112.87 36.1335C112.537 36.1087 112.203 36.1087 111.87 36.1335C111.546 36.1335 111.221 36.1335 110.921 36.3085C110.621 36.4834 110.371 36.5084 110.121 36.5334L109.596 36.7083H109.372C109.216 36.7761 109.039 36.7801 108.88 36.7193C108.722 36.6586 108.593 36.538 108.522 36.3834C108.478 36.2984 108.455 36.2042 108.455 36.1086C108.455 36.0129 108.478 35.9187 108.522 35.8337L108.572 35.8587Z" fill="#403D4F"/>
<path d="M96.4276 36.8081H96.2777L95.8778 36.6581H95.603H95.3281C95.1072 36.5852 94.8819 36.5267 94.6534 36.4832C94.4216 36.4463 94.1855 36.4463 93.9537 36.4832C93.7387 36.4459 93.519 36.4459 93.304 36.4832H92.5044C92.3364 36.4768 92.1775 36.4055 92.061 36.2843C91.9445 36.1632 91.8795 36.0016 91.8797 35.8335C91.8845 35.7096 91.9247 35.5895 91.9955 35.4877C92.0664 35.3858 92.1649 35.3064 92.2795 35.2588L93.0541 34.9839C93.3368 34.8915 93.6314 34.841 93.9287 34.834C94.2601 34.7843 94.5969 34.7843 94.9282 34.834C95.5846 34.8998 96.2087 35.1511 96.7274 35.5587C96.9157 35.6838 97.0771 35.8452 97.2022 36.0334C97.3272 36.1834 97.3272 36.2333 97.3521 36.2333V36.4832C97.3659 36.6009 97.3473 36.7201 97.2982 36.828C97.2492 36.9358 97.1715 37.0282 97.0738 37.0951C96.976 37.162 96.8617 37.2009 96.7434 37.2076C96.6251 37.2142 96.5073 37.1884 96.4026 37.1329L96.4276 36.8081Z" fill="#403D4F"/>
<path d="M101.55 51.4264C101.131 51.4361 100.714 51.3539 100.33 51.1855C99.9458 51.0171 99.6032 50.7667 99.3261 50.4518C99.2177 50.3444 99.1328 50.2156 99.0768 50.0737C99.0209 49.9317 98.9952 49.7796 99.0012 49.6272C99.0012 49.3523 99.451 45.9039 99.6009 44.6295C99.6009 44.5035 99.651 44.3828 99.74 44.2937C99.829 44.2047 99.9498 44.1547 100.076 44.1547C100.202 44.1547 100.322 44.2047 100.411 44.2937C100.5 44.3828 100.55 44.5035 100.55 44.6295C100.55 44.8294 100.026 49.3523 99.9508 49.6272C100.158 49.8499 100.41 50.0271 100.689 50.1475C100.969 50.2679 101.271 50.329 101.575 50.3269C101.701 50.3269 101.822 50.3769 101.911 50.4659C102 50.5549 102.05 50.6757 102.05 50.8016C102.05 50.9276 102 51.0483 101.911 51.1374C101.822 51.2264 101.701 51.2764 101.575 51.2764L101.55 51.4264Z" fill="#F18380"/>
<path d="M99.2012 56.3491C98.2517 56.5989 97.9268 57.9983 98.4766 59.6226C99.0514 60.7399 99.9839 61.6325 101.125 62.1579C102.267 62.6833 103.551 62.8112 104.774 62.5212C105.437 62.4864 106.087 62.3197 106.685 62.0308C107.283 61.7419 107.818 61.3366 108.257 60.8387C108.697 60.3408 109.033 59.7603 109.246 59.131C109.459 58.5017 109.544 57.8363 109.497 57.1737C109.497 56.0992 108.772 55.4495 107.372 55.4495C104.628 55.5213 101.895 55.8222 99.2012 56.3491Z" fill="#73102A"/>
<path d="M109.547 57.1737C109.547 57.1737 109.547 57.0237 109.547 56.9238C107.714 56.4941 105.787 56.7696 104.148 57.6955C102.509 58.6214 101.278 60.13 100.701 61.9215C101.994 62.555 103.449 62.7816 104.874 62.5712C105.537 62.5302 106.186 62.3572 106.782 62.0624C107.378 61.7676 107.909 61.3568 108.344 60.8541C108.779 60.3515 109.11 59.7671 109.316 59.1351C109.523 58.5031 109.601 57.8363 109.547 57.1737Z" fill="#D65155"/>
<path d="M100.051 57.8736C103.208 57.8994 106.348 57.4099 109.347 56.4242C109.163 56.0858 108.88 55.8114 108.536 55.6373C108.193 55.4632 107.804 55.3978 107.423 55.4497C104.679 55.5215 101.945 55.8224 99.2513 56.3493C98.99 56.4371 98.7605 56.6002 98.5916 56.8181C98.4226 57.0359 98.3218 57.2988 98.3017 57.5737C98.8622 57.7772 99.4546 57.8788 100.051 57.8736Z" fill="white"/>
<path d="M112.32 26.7875C112.32 26.7875 116.743 42.0806 127.314 46.1037C128.541 46.119 129.754 45.8386 130.85 45.2862C131.946 44.7338 132.893 43.9257 133.611 42.9302C136.418 37.0253 137.208 30.3616 135.86 23.9638C134.085 16.1674 124.715 6.12197 107.623 8.4709C98.5017 6.7217 87.6316 8.32097 80.8347 17.5418C74.0378 26.7626 82.1341 39.5317 87.6066 41.6558C92.9892 38.415 98.1485 34.8169 103.05 30.8857C102.3 33.2346 101.5 38.2073 102.3 38.2073C106.919 35.7478 110.482 31.6872 112.32 26.7875Z" fill="#E69D7E"/>
<path d="M126.014 47.953C126.214 44.5546 127.139 40.4564 131.262 41.1811C136.26 41.9058 136.609 55.0248 126.264 53.4505L126.014 47.953Z" fill="#FBBEAA"/>
<path d="M131.687 48.8278C131.601 48.8241 131.517 48.7994 131.443 48.7559C131.369 48.7123 131.307 48.6512 131.262 48.5779C131.158 48.3569 130.996 48.1682 130.794 48.0317C130.592 47.8953 130.356 47.8164 130.112 47.8033C129.827 47.8062 129.547 47.881 129.298 48.0207C129.049 48.1605 128.839 48.3607 128.688 48.6029C128.632 48.6928 128.547 48.7614 128.447 48.7976C128.348 48.8338 128.239 48.8357 128.138 48.8028C128.042 48.7614 127.962 48.6908 127.908 48.6012C127.854 48.5115 127.83 48.4073 127.838 48.3031C127.871 47.2493 128.193 46.225 128.771 45.3431C129.349 44.4612 130.159 43.756 131.112 43.3054C131.172 43.2818 131.236 43.2707 131.3 43.2727C131.365 43.2747 131.428 43.2898 131.487 43.3171C131.545 43.3444 131.597 43.3833 131.64 43.4315C131.683 43.4796 131.715 43.536 131.736 43.5971C131.756 43.6582 131.764 43.7229 131.759 43.7871C131.753 43.8514 131.735 43.9138 131.704 43.9707C131.674 44.0275 131.632 44.0776 131.582 44.1179C131.532 44.1582 131.474 44.1878 131.412 44.2049C130.854 44.4794 130.358 44.8647 129.954 45.3373C129.55 45.8099 129.247 46.3599 129.063 46.9537C129.41 46.8053 129.784 46.7288 130.162 46.7288C130.566 46.767 130.955 46.903 131.294 47.1251C131.634 47.3471 131.914 47.6485 132.111 48.0032C132.143 48.0573 132.163 48.1171 132.171 48.1791C132.179 48.241 132.175 48.304 132.159 48.3644C132.143 48.4248 132.115 48.4813 132.076 48.5308C132.038 48.5803 131.991 48.6218 131.936 48.6529C131.875 48.7371 131.787 48.7986 131.687 48.8278Z" fill="#F18380"/>
<path d="M22.4468 80.477C22.3469 78.293 22.9315 76.1323 24.1191 74.2966C25.9476 72.1766 27.3174 69.701 28.1425 67.0256C28.7771 64.5422 29.7908 62.1714 31.1479 59.9969C32.1173 58.6639 33.5715 57.5733 33.5715 56.5553C33.5715 55.5374 31.6326 53.5742 28.8696 54.1317C27.6861 54.5003 26.5987 55.1261 25.6853 55.9641C24.7719 56.8021 24.055 57.8316 23.5859 58.979C23.3212 58.2799 23.166 57.5442 23.1255 56.7977L22.5196 41.9406C22.5104 41.5554 22.4241 41.176 22.2658 40.8247C22.1075 40.4735 21.8805 40.1575 21.5981 39.8954C21.3157 39.6334 20.9837 39.4305 20.6216 39.2989C20.2595 39.1673 19.8748 39.1096 19.49 39.1291C18.8774 39.1552 18.2884 39.3727 17.8058 39.7509C17.3232 40.1291 16.9714 40.6491 16.7997 41.2377V40.5591C16.7064 39.8368 16.3435 39.1766 15.7836 38.7109C15.2237 38.2452 14.5084 38.0085 13.7812 38.0484C13.0541 38.0883 12.369 38.4018 11.8634 38.9259C11.3578 39.45 11.0692 40.146 11.0556 40.8741V42.9343C10.8128 42.2991 10.3499 41.7724 9.75128 41.45C9.15262 41.1276 8.45806 41.031 7.79417 41.1779C7.13028 41.3248 6.54126 41.7053 6.13448 42.2501C5.72769 42.795 5.53021 43.4679 5.57804 44.1461V45.4549C5.31717 44.9964 4.92842 44.6239 4.45925 44.3829C3.99008 44.1418 3.46084 44.0427 2.93624 44.0976C2.21784 44.1888 1.56318 44.556 1.11079 45.1215C0.658409 45.687 0.443832 46.4063 0.512566 47.1272L1.70014 59.6576C2.47812 66.7221 3.93921 73.6945 6.0628 80.477C6.08848 81.6094 6.35084 82.724 6.833 83.749C7.31516 84.774 8.00644 85.6868 8.86244 86.4286C9.71844 87.1705 10.7202 87.725 11.8034 88.0566C12.8865 88.3882 14.027 88.4895 15.1516 88.3539C16.1693 88.3879 17.1824 88.2026 18.1222 87.8106C19.062 87.4186 19.9066 86.829 20.5985 86.0819C21.2904 85.3348 21.8136 84.4476 22.1325 83.4805C22.4514 82.5135 22.5586 81.4891 22.4468 80.477Z" fill="#FBBEAA"/>
<path d="M104.125 476.021C104.125 473.687 103.198 471.45 101.548 469.8C99.8977 468.15 97.6599 467.223 95.3266 467.223C92.9932 467.223 90.7554 468.15 89.1055 469.8C87.4555 471.45 86.5286 473.687 86.5286 476.021V495.143H104.125V476.021Z" fill="#FBBEAA"/>
<path d="M87.1587 479.584C85.0016 479.584 84.6138 480.529 83.9836 481.765C82.9616 485.059 81.2141 488.082 78.8697 490.611C75.3697 493.593 71.6147 496.261 67.6481 498.585V508.716H106.815C106.815 508.716 106.548 500.718 106.354 495.071C106.16 489.424 105.603 482.541 105.651 481.813C105.7 481.086 105.651 479.584 104.318 479.584H87.1587Z" fill="#302D3B"/>
<path d="M101.944 495.628C101.948 496.872 101.584 498.089 100.896 499.125C100.208 500.161 99.2277 500.969 98.0796 501.447C96.9316 501.925 95.6675 502.052 94.4475 501.81C93.2276 501.569 92.1069 500.97 91.2276 500.091C90.3482 499.212 89.7498 498.091 89.5084 496.871C89.267 495.651 89.3933 494.387 89.8714 493.239C90.3495 492.091 91.1579 491.111 92.1939 490.423C93.2299 489.735 94.4468 489.37 95.6904 489.375C97.3469 489.381 98.9337 490.042 100.105 491.213C101.276 492.385 101.937 493.972 101.944 495.628Z" fill="#93929C"/>
<path d="M95.6905 491.944L97.1204 494.053L99.5684 494.756L98.0172 496.767L98.0899 499.312L95.6905 498.44L93.291 499.312L93.388 496.767L91.8126 494.756L94.2605 494.053L95.6905 491.944Z" fill="white"/>
<path d="M67.9149 498.416C67.9149 498.416 62.3647 501.348 60.2804 502.778C59.3154 503.432 58.5315 504.319 58.0018 505.358C57.4721 506.396 57.2137 507.551 57.2508 508.716H72.4714C72.4714 508.716 72.1563 501.276 67.9149 498.416Z" fill="white"/>
<path d="M106.815 508.716V512.909C106.815 513.612 106.185 514 105.118 514H58.9229C57.8807 514 57.2505 513.612 57.2505 512.909V508.716H106.815Z" fill="white"/>
<path d="M72.4716 495.58C72.3374 495.374 72.1281 495.228 71.8883 495.174C71.6485 495.12 71.3969 495.161 71.187 495.289C71.0825 495.353 70.9919 495.438 70.9206 495.538C70.8492 495.637 70.7985 495.75 70.7714 495.87C70.7443 495.99 70.7413 496.114 70.7628 496.234C70.7842 496.355 70.8296 496.471 70.8962 496.574L72.52 499.191C72.5983 499.327 72.7116 499.439 72.8481 499.516C72.9845 499.592 73.1391 499.631 73.2956 499.627C73.4751 499.625 73.6507 499.575 73.8046 499.482C73.9091 499.418 73.9997 499.333 74.0711 499.233C74.1425 499.134 74.1932 499.021 74.2203 498.901C74.2474 498.781 74.2503 498.657 74.2288 498.537C74.2074 498.416 74.1621 498.301 74.0955 498.198L72.4716 495.58Z" fill="white"/>
<path d="M75.3316 493.568C75.252 493.476 75.1551 493.4 75.0463 493.345C74.9374 493.29 74.8188 493.258 74.6973 493.249C74.5758 493.24 74.4537 493.255 74.338 493.293C74.2222 493.331 74.1152 493.391 74.0229 493.471C73.9306 493.551 73.8548 493.648 73.8 493.756C73.7452 493.865 73.7123 493.984 73.7033 494.105C73.6943 494.227 73.7093 494.349 73.7475 494.465C73.7857 494.581 73.8463 494.688 73.9259 494.78L75.8164 497.01C75.9036 497.112 76.0111 497.195 76.1321 497.253C76.2531 497.312 76.385 497.344 76.5193 497.349C76.6948 497.346 76.866 497.294 77.0136 497.198C77.1612 497.103 77.2793 496.969 77.3548 496.81C77.4303 496.652 77.4602 496.475 77.441 496.301C77.4218 496.126 77.3544 495.96 77.2463 495.822L75.3316 493.568Z" fill="white"/>
<path d="M78.0214 491.314C77.8286 491.19 77.5972 491.14 77.3703 491.174C77.1434 491.208 76.9365 491.323 76.7882 491.498C76.6399 491.673 76.5603 491.896 76.5642 492.125C76.5681 492.354 76.6553 492.575 76.8095 492.744L78.9666 494.611C79.1357 494.754 79.3509 494.831 79.5725 494.829C79.7059 494.833 79.8387 494.808 79.9606 494.753C80.0824 494.698 80.1901 494.616 80.2754 494.514C80.3649 494.43 80.4363 494.328 80.4851 494.216C80.5339 494.103 80.559 493.982 80.559 493.859C80.559 493.737 80.5339 493.615 80.4851 493.503C80.4363 493.39 80.3649 493.289 80.2754 493.205L78.0214 491.314Z" fill="white"/>
<path d="M82.7478 490.199L80.3241 488.697C80.1113 488.571 79.8577 488.533 79.6176 488.592C79.3775 488.651 79.1699 488.802 79.0396 489.012C78.974 489.116 78.9301 489.233 78.9104 489.355C78.8908 489.476 78.8958 489.601 78.9252 489.721C78.9546 489.84 79.0077 489.953 79.0815 490.052C79.1553 490.151 79.2482 490.234 79.3547 490.296L81.7783 491.799C81.922 491.894 82.0907 491.945 82.2631 491.944C82.421 491.94 82.5753 491.896 82.7111 491.815C82.8469 491.735 82.9597 491.621 83.0386 491.484C83.1668 491.274 83.2081 491.022 83.1538 490.783C83.0995 490.543 82.9538 490.333 82.7478 490.199Z" fill="white"/>
<path d="M84.7841 487.073L82.0696 485.934C81.8382 485.838 81.578 485.837 81.3462 485.932C81.1144 486.028 80.93 486.211 80.8336 486.443C80.7863 486.556 80.7619 486.677 80.7619 486.799C80.762 486.922 80.7865 487.043 80.8338 487.156C80.8812 487.268 80.9506 487.371 81.038 487.456C81.1253 487.542 81.2289 487.609 81.3426 487.655L84.0571 488.794H84.4206C84.6297 488.783 84.8292 488.702 84.9877 488.565C85.1462 488.429 85.2547 488.243 85.2963 488.038C85.3379 487.833 85.3102 487.619 85.2175 487.431C85.1248 487.244 84.9724 487.092 84.7841 487V487.073Z" fill="white"/>
<path d="M86.4803 483.583L83.475 482.831C83.2372 482.773 82.9861 482.812 82.777 482.94C82.5679 483.067 82.4179 483.272 82.3601 483.51C82.3022 483.748 82.3412 483.999 82.4685 484.208C82.5958 484.417 82.8009 484.567 83.0387 484.625L86.0198 485.4H86.238C86.4467 485.398 86.6491 485.328 86.815 485.202C86.981 485.075 87.1016 484.898 87.159 484.698C87.2109 484.46 87.1694 484.212 87.043 484.004C86.9166 483.797 86.7151 483.646 86.4803 483.583Z" fill="white"/>
<path d="M116.995 353.722C116.728 341.992 108.827 336.32 97.1204 336.611C85.4141 336.902 76.9796 343.034 77.2463 354.74L86.5289 476.966H104.125L116.995 353.722Z" fill="#FBBEAA"/>
<path d="M118.522 353.649C118.457 350.864 117.844 348.119 116.718 345.571C115.591 343.023 113.975 340.722 111.959 338.799C109.944 336.876 107.569 335.368 104.971 334.363C102.373 333.357 99.603 332.874 96.818 332.939C94.033 333.004 91.2882 333.617 88.7402 334.743C86.1922 335.869 83.8909 337.486 81.9677 339.502C80.0446 341.517 78.5373 343.891 77.5318 346.489C76.5264 349.087 76.0424 351.858 76.1077 354.643L70.605 480.287H118.521L118.522 353.649Z" fill="#93929C"/>
<path d="M178.29 476.021C178.29 473.687 177.363 471.45 175.713 469.8C174.063 468.15 171.825 467.223 169.492 467.223C167.158 467.223 164.92 468.15 163.27 469.8C161.621 471.45 160.694 473.687 160.694 476.021V495.143H178.29V476.021Z" fill="#FBBEAA"/>
<path d="M161.347 479.584C159.166 479.584 158.778 480.529 158.172 481.765C157.139 485.059 155.383 488.081 153.034 490.611C149.539 493.598 145.783 496.267 141.813 498.585V508.716H180.979C180.979 508.716 180.713 500.718 180.519 495.071C180.325 489.424 179.792 482.541 179.816 481.813C179.84 481.086 179.816 479.584 178.507 479.584H161.347Z" fill="#302D3B"/>
<path d="M176.132 495.628C176.137 496.871 175.773 498.087 175.086 499.122C174.399 500.158 173.42 500.966 172.274 501.445C171.127 501.924 169.864 502.051 168.645 501.812C167.426 501.572 166.305 500.976 165.424 500.1C164.544 499.223 163.944 498.104 163.7 496.886C163.456 495.667 163.578 494.404 164.053 493.256C164.527 492.107 165.332 491.125 166.365 490.434C167.397 489.744 168.612 489.375 169.855 489.375C171.515 489.375 173.108 490.033 174.285 491.205C175.461 492.377 176.125 493.967 176.132 495.628Z" fill="#93929C"/>
<path d="M169.879 491.944L171.309 494.053L173.757 494.756L172.181 496.767L172.254 499.312L169.879 498.44L167.479 499.312L167.552 496.767L165.977 494.756L168.449 494.053L169.879 491.944Z" fill="white"/>
<path d="M142.104 498.416C142.104 498.416 136.53 501.348 134.469 502.778C133.5 503.427 132.712 504.314 132.182 505.353C131.651 506.392 131.396 507.55 131.44 508.716H146.733C146.733 508.716 146.321 501.276 142.104 498.416Z" fill="white"/>
<path d="M180.979 508.716V512.909C180.979 513.612 180.373 514 179.307 514H133.063C131.997 514 131.391 513.612 131.391 512.909V508.716H180.979Z" fill="white"/>
<path d="M146.636 495.58C146.504 495.371 146.295 495.223 146.054 495.168C145.813 495.114 145.561 495.157 145.352 495.289C145.143 495.421 144.995 495.63 144.94 495.871C144.886 496.112 144.929 496.365 145.061 496.574L146.685 499.191C146.769 499.327 146.887 499.439 147.027 499.515C147.167 499.592 147.325 499.63 147.484 499.628C147.657 499.628 147.825 499.577 147.969 499.482C148.074 499.418 148.164 499.333 148.236 499.234C148.307 499.134 148.358 499.021 148.385 498.901C148.412 498.781 148.415 498.658 148.393 498.537C148.372 498.416 148.327 498.301 148.26 498.198L146.636 495.58Z" fill="white"/>
<path d="M149.52 493.568C149.361 493.382 149.135 493.265 148.891 493.243C148.646 493.22 148.403 493.293 148.212 493.447C148.024 493.611 147.907 493.841 147.884 494.089C147.862 494.337 147.935 494.585 148.09 494.78L150.005 497.01C150.089 497.116 150.196 497.201 150.318 497.26C150.439 497.319 150.573 497.349 150.708 497.349C150.886 497.351 151.06 497.301 151.21 497.206C151.36 497.111 151.48 496.975 151.554 496.813C151.628 496.652 151.654 496.472 151.629 496.297C151.603 496.121 151.528 495.956 151.411 495.822L149.52 493.568Z" fill="white"/>
<path d="M152.186 491.314C151.993 491.19 151.762 491.14 151.535 491.174C151.308 491.208 151.101 491.323 150.953 491.498C150.805 491.673 150.725 491.896 150.729 492.125C150.733 492.354 150.82 492.575 150.974 492.744L153.156 494.611C153.325 494.754 153.54 494.831 153.761 494.829C153.895 494.832 154.027 494.805 154.148 494.751C154.27 494.696 154.378 494.615 154.464 494.514C154.551 494.428 154.619 494.326 154.666 494.214C154.713 494.101 154.737 493.981 154.737 493.859C154.737 493.738 154.713 493.617 154.666 493.505C154.619 493.392 154.551 493.291 154.464 493.205L152.186 491.314Z" fill="white"/>
<path d="M156.912 490.199L154.489 488.697C154.28 488.608 154.046 488.598 153.83 488.668C153.614 488.738 153.43 488.883 153.313 489.078C153.195 489.272 153.151 489.501 153.189 489.725C153.227 489.949 153.344 490.152 153.519 490.296L155.943 491.799C156.087 491.894 156.255 491.945 156.428 491.944C156.589 491.942 156.748 491.899 156.888 491.818C157.028 491.738 157.145 491.622 157.227 491.484C157.353 491.271 157.391 491.017 157.332 490.777C157.273 490.537 157.122 490.33 156.912 490.199Z" fill="white"/>
<path d="M22.7378 82.1011L32.4325 142.96C34.0321 150.594 31.56 157.502 22.7378 158.713C21.1093 158.926 19.4547 158.805 17.8745 158.358C16.2942 157.911 14.8212 157.147 13.5451 156.114C12.2689 155.08 11.2162 153.798 10.4508 152.345C9.68534 150.892 9.22323 149.299 9.09248 147.662L6.13559 82.2223C5.36001 76.0419 8.05025 71.9217 12.7522 71.4127C18.5205 70.7826 21.5744 74.2 22.7378 82.1011Z" fill="#FBBEAA"/>
<path d="M158.948 487.073L156.234 485.934C156.121 485.887 156 485.862 155.877 485.862C155.755 485.862 155.634 485.887 155.521 485.934C155.408 485.982 155.306 486.051 155.22 486.138C155.134 486.226 155.067 486.329 155.022 486.443C154.931 486.669 154.931 486.92 155.021 487.146C155.112 487.372 155.285 487.554 155.506 487.655L158.245 488.794C158.357 488.819 158.473 488.819 158.585 488.794C158.771 488.794 158.954 488.739 159.109 488.635C159.264 488.532 159.385 488.385 159.457 488.212C159.531 487.993 159.519 487.754 159.425 487.543C159.331 487.332 159.16 487.165 158.948 487.073Z" fill="white"/>
<path d="M160.645 483.583L157.664 482.832C157.423 482.773 157.169 482.811 156.955 482.938C156.742 483.065 156.588 483.27 156.525 483.51C156.496 483.628 156.491 483.75 156.509 483.87C156.528 483.99 156.57 484.105 156.633 484.209C156.696 484.312 156.778 484.402 156.876 484.474C156.974 484.545 157.086 484.597 157.203 484.625L160.185 485.401H160.427C160.645 485.384 160.851 485.292 161.009 485.14C161.167 484.989 161.268 484.787 161.293 484.569C161.319 484.352 161.269 484.132 161.15 483.948C161.032 483.763 160.853 483.626 160.645 483.559V483.583Z" fill="white"/>
<path d="M168.667 353.359C167.476 347.857 164.15 343.053 159.419 340.004C154.687 336.954 148.939 335.908 143.436 337.096C131.973 339.519 125.792 350.814 128.264 362.278L160.693 478.978H178.507L168.667 353.359Z" fill="#FBBEAA"/>
<path d="M168.664 351.056C167.349 345.686 163.991 341.042 159.305 338.109C154.619 335.177 148.973 334.188 143.569 335.353C138.165 336.518 133.429 339.744 130.366 344.347C127.304 348.949 126.158 354.565 127.171 359.999L140.064 479.798C140.064 479.798 170.942 481.64 189.338 479.798L168.664 351.056Z" fill="#93929C"/>
<path d="M14.8605 136.222L84.4685 83.337C92.5878 78.1504 98.1137 80.9134 102.428 86.4636C104.398 89.1499 105.311 92.467 104.994 95.7833C104.677 99.0995 103.151 102.183 100.707 104.447L31.2688 155.611C28.8218 157.678 25.6717 158.72 22.4749 158.522C19.2782 158.323 16.2814 156.898 14.1092 154.545L13.7941 154.205C12.6412 152.975 11.7509 151.523 11.1777 149.938C10.6045 148.353 10.3603 146.667 10.4601 144.984C10.5599 143.301 11.0016 141.656 11.7581 140.15C12.5147 138.643 13.5703 137.307 14.8605 136.222Z" fill="#FBBEAA"/>
<path d="M100.708 104.423C101.35 103.87 101.935 103.253 102.453 102.581C102.91 100.856 102.969 99.0497 102.625 97.2986C102.281 95.5475 101.542 93.8978 100.465 92.4745C96.8055 86.8274 89.1225 82.3921 85.7051 83.2403L82.312 84.9611L43.8967 114.045C47.2966 122.036 51.8892 129.464 57.5177 136.076L100.708 104.423Z" fill="#F18380"/>
<path d="M90.2129 79.5559L29.9758 120.182C30.2293 122.26 23.5516 79.5559 23.5516 79.5559L4.65678 82.0149C4.65678 82.0149 5.04134 125.137 7.86205 148.022C8.98812 157.158 16.5226 160.646 25.5164 158.684C29.9569 157.715 34.1372 155.893 37.8573 153.282C53.8426 142.062 98.6889 110.459 102.356 106.483C108.681 99.624 108.681 94.4858 105.046 88.8386C101.41 83.1915 93.6303 78.7076 90.2129 79.5559Z" fill="#002776"/>
<path d="M118.522 353.65L130.955 223.474C130.955 209.102 116.147 193.445 94.3092 196.814C74.5805 199.892 68.5698 219.717 70.1936 238.501C71.8175 257.284 76.2044 354.571 76.2044 354.571C76.2696 357.356 76.8828 360.1 78.0088 362.648C79.1349 365.196 80.7517 367.498 82.7671 369.421C84.7825 371.344 87.157 372.851 89.7549 373.857C92.3529 374.862 95.1234 375.346 97.9084 375.281C100.693 375.216 103.438 374.602 105.986 373.476C108.534 372.35 110.835 370.733 112.759 368.718C114.682 366.703 116.189 364.328 117.195 361.73C118.2 359.132 118.684 356.362 118.619 353.577L118.522 353.65Z" fill="#93929C"/>
<path d="M168.667 351.056L156.306 220.905C153.688 206.775 136.117 194.244 115.297 201.661C96.5138 208.374 94.3325 228.976 99.4707 247.129C104.609 265.282 127.173 359.999 127.173 359.999C128.489 365.369 131.846 370.013 136.533 372.946C141.219 375.878 146.864 376.867 152.268 375.702C157.672 374.538 162.409 371.311 165.471 366.709C168.533 362.106 169.68 356.491 168.667 351.056Z" fill="#93929C"/>
<path d="M99.4712 247.129C104.585 265.283 127.174 360 127.174 360" stroke="#5E5D63" stroke-width="0.75" stroke-miterlimit="10"/>
<path d="M103.107 77.4957C103.107 77.4957 92.3941 79.362 90.3097 79.9194C89.0796 80.2081 87.943 80.8042 87.0061 81.652C86.0693 82.4998 85.363 83.5715 84.9534 84.7668C83.6204 87.9418 76.7614 108.737 76.1313 110.991C75.7052 113.474 76.1053 116.028 77.2704 118.262C78.2641 120.976 83.4023 133.337 83.4023 133.337L84.1778 173.158L113.115 177.748L140.843 173.158C140.843 173.158 150.538 99.0907 151.023 94.51C151.508 89.9292 149.229 81.0828 143.752 79.9679C138.274 78.853 123.247 77.5442 123.247 77.5442L103.107 77.4957Z" fill="#FBBEAA"/>
<path d="M82.8189 157.147V171.147C101.772 172.892 131.972 171.656 143.315 171.147C143.848 167.148 144.406 160.361 144.987 155.853C129.549 156.241 104.05 157.68 82.8189 157.147Z" fill="white"/>
<path d="M182.773 169.595L151.725 87.8934C147.581 79.1681 141.449 78.5865 134.76 81.0101C131.666 82.2443 129.135 84.5751 127.65 87.5571C126.166 90.5392 125.832 93.9635 126.713 97.1761L158.681 177.424C159.65 180.477 161.764 183.036 164.58 184.563C167.395 186.091 170.693 186.468 173.781 185.616L174.241 185.495C175.87 185.05 177.391 184.279 178.712 183.227C180.033 182.176 181.126 180.866 181.924 179.379C182.722 177.891 183.209 176.256 183.355 174.574C183.501 172.892 183.303 171.198 182.773 169.595Z" fill="#FBBEAA"/>
<path d="M169.904 135.712L151.726 87.8932C151.239 86.8445 150.663 85.8391 150.005 84.8878C147.779 83.4938 145.23 82.6987 142.605 82.5798C139.981 82.4609 137.371 83.0222 135.027 84.2092C132.306 85.5335 130.118 87.7474 128.827 90.4845C127.535 93.2216 127.218 96.3178 127.926 99.2602C127.926 99.551 128.095 100.109 128.241 100.86L147 148C155.194 145.045 162.911 140.905 169.904 135.712Z" fill="#F18380"/>
<path d="M150.029 83.531L184.536 173.088C156.194 164.018 154.648 168.565 149.273 154.395C149.273 154.395 126.326 99.6241 125.647 95.8917C124.939 92.9492 125.257 89.8532 126.548 87.116C127.84 84.3789 130.027 82.1649 132.748 80.8407C140.335 76.9628 147.896 80.4771 150.029 83.531Z" fill="#002776"/>
<path d="M21.9626 61.0878C22.8836 61.0878 22.9563 60.5061 23.3683 59.4397C21.3082 59.4397 15.3217 59.8275 12.7041 64.8687C15.3459 61.2332 20.4114 61.0878 21.9626 61.0878ZM17.2607 41.9165C17.2607 41.9165 17.4061 42.7648 17.5515 44.0009C17.5515 44.631 17.6969 45.3823 17.7454 46.1579C17.7939 46.9335 17.8666 47.7818 17.9393 48.5816C17.9393 50.2782 18.0604 51.9505 18.0604 53.2108C18.0604 54.4711 18.0604 55.3194 18.0604 55.3194C18.0606 55.3597 18.0524 55.3997 18.0362 55.4366C18.0201 55.4736 17.9965 55.5068 17.9669 55.5341C17.9372 55.5615 17.9023 55.5824 17.8641 55.5955C17.826 55.6086 17.7856 55.6136 17.7454 55.6102C17.6772 55.6068 17.6119 55.5813 17.5595 55.5376C17.507 55.4939 17.4702 55.4344 17.4545 55.3679C17.4545 55.3679 17.3091 54.5196 17.1879 53.2593C17.0668 51.999 16.8729 50.3266 16.8001 48.6543C16.8001 47.806 16.8001 46.9577 16.8001 46.2306C16.8001 45.5035 16.8001 44.7038 16.8001 44.0736C16.8001 42.789 16.8001 41.9649 16.8001 41.9649C16.8 41.9246 16.8082 41.8847 16.8243 41.8478C16.8404 41.8108 16.8641 41.7776 16.8937 41.7502C16.9233 41.7229 16.9583 41.702 16.9964 41.6889C17.0346 41.6758 17.0751 41.6707 17.1152 41.6741C17.1617 41.7008 17.1999 41.7399 17.2255 41.787C17.2512 41.834 17.2633 41.8872 17.2607 41.9407V41.9165ZM11.6377 43.6131C11.6377 43.6131 11.7831 44.3402 11.9528 45.4066C11.9528 45.964 12.1225 46.5942 12.1952 47.2728C12.2679 47.9514 12.3406 48.6785 12.4133 49.4056C12.4133 50.8598 12.5829 52.314 12.6072 53.4047C12.6314 54.4953 12.6072 55.2467 12.6072 55.2467C12.6041 55.2849 12.5935 55.3222 12.576 55.3563C12.5585 55.3905 12.5345 55.4208 12.5052 55.4456C12.4759 55.4704 12.4419 55.4891 12.4054 55.5008C12.3688 55.5124 12.3304 55.5167 12.2921 55.5133C12.2269 55.5088 12.1651 55.4824 12.1168 55.4384C12.0684 55.3944 12.0362 55.3354 12.0255 55.271C12.0255 55.271 11.8801 54.5438 11.7104 53.4774C11.5408 52.411 11.3954 50.9326 11.2742 49.5026C11.2742 48.7755 11.2742 48.0484 11.1288 47.3698C10.9833 46.6911 11.1288 46.0367 11.1288 45.4793C11.1288 44.3886 11.1288 43.6615 11.1288 43.6615C11.1286 43.6212 11.1368 43.5813 11.1529 43.5444C11.169 43.5074 11.1927 43.4742 11.2223 43.4468C11.2519 43.4195 11.2869 43.3986 11.3251 43.3855C11.3632 43.3724 11.4037 43.3673 11.4438 43.3707C11.4976 43.3929 11.5442 43.4296 11.5784 43.4766C11.6126 43.5237 11.6332 43.5793 11.6377 43.6373V43.6131ZM6.2087 45.9155C6.2087 45.9155 6.35408 46.5215 6.54797 47.4425C6.54797 47.8787 6.74191 48.412 6.81462 48.9937C6.88733 49.5753 6.98424 50.1812 7.08118 50.7871C7.25084 52.0232 7.32361 53.2108 7.37209 54.1803C7.42056 55.1497 7.37209 55.7315 7.37209 55.7315C7.37223 55.7718 7.36394 55.8117 7.34783 55.8486C7.33172 55.8856 7.30808 55.9188 7.27845 55.9462C7.24882 55.9735 7.21385 55.9944 7.17571 56.0075C7.13758 56.0206 7.09718 56.0257 7.057 56.0223C6.99512 56.0191 6.93587 55.9961 6.88791 55.9569C6.83996 55.9177 6.80576 55.8642 6.79036 55.8042C6.79036 55.8042 6.62074 55.1983 6.45108 54.3015C6.28142 53.4047 6.03903 52.1444 5.89361 50.9326C5.89361 50.3024 5.77241 49.6965 5.72393 49.1148C5.67546 48.5331 5.72393 47.9999 5.72393 47.5394C5.72393 46.6184 5.72393 45.9882 5.72393 45.9882C5.72379 45.9479 5.73209 45.908 5.74819 45.8711C5.7643 45.8341 5.78787 45.8009 5.8175 45.7735C5.84713 45.7462 5.88218 45.7253 5.92031 45.7122C5.95844 45.6991 5.99884 45.6941 6.03902 45.6974C6.08377 45.7224 6.12229 45.7571 6.15167 45.7991C6.18105 45.8411 6.20055 45.8892 6.2087 45.9398V45.9155Z" fill="#F18380"/>
<path d="M156.083 220.463C155.553 213.79 148.393 188.206 140.704 173.632C140.704 173.632 123.93 170.973 113.127 171.008C101.856 171.044 84.3435 173.632 84.3435 173.632C79.3294 184.978 73.6163 209.767 71.953 215.115C70.9488 218.262 70.8269 221.623 71.6004 224.834C72.3739 228.045 74.0133 230.983 76.3403 233.328C82.0535 239.808 96.7823 247.228 100.181 247.228C114.805 245.141 129.138 241.374 142.897 236.002C150.659 232.75 156.589 227.161 156.083 220.463Z" fill="#93929C"/>
<path d="M102.598 77.6328C102.598 77.6328 91.8081 79.5125 89.6843 80.074C88.4481 80.371 87.3064 80.9737 86.3637 81.8268C85.4211 82.6798 84.7078 83.756 84.2892 84.9564C82.971 88.1544 76.0624 109.1 75.4033 111.37C74.9741 113.871 75.3772 116.444 76.5507 118.694C77.5271 121.355 82.7269 133.78 82.7269 133.78L83.508 173.889H140.608C140.608 173.889 150.299 99.3106 150.763 94.7212C151.227 90.1317 148.956 81.197 143.439 80.074C137.922 78.9511 122.811 77.6328 122.811 77.6328H102.598Z" fill="white"/>
<path d="M123.544 77.6327C121.285 85.584 120.015 93.7829 119.76 102.045V210.068C119.76 213.388 121.2 213.607 122.933 213.607H153.717C155.304 213.607 157.72 212.582 156.939 210.312C156.158 208.041 149.274 187.413 142.56 173.328C142.56 173.328 152.179 95.8196 152.179 92.1579C152.179 88.4961 149.493 81.0748 144.855 79.9519C140.217 78.8289 123.446 76.9004 123.446 76.9004L123.544 77.6327Z" fill="#002776"/>
<path d="M101.792 77.9018C100.426 88.2833 99.6108 98.7301 99.3513 109.198V210.556C99.3513 212.851 98.7654 213.559 96.5927 213.559H72.0099C70.3743 213.559 69.764 212.558 70.179 210.532C70.594 208.506 81.4817 173.914 81.4817 173.914L80.5297 134.098C80.5297 134.098 74.9394 115.35 74.7197 113.861C74.4534 111.999 74.629 110.1 75.2323 108.319C75.9158 106.537 83.7276 85.616 84.46 84.1025C84.9533 83.0724 85.6618 82.1602 86.5378 81.4274C87.4137 80.6947 88.4367 80.1584 89.5377 79.8548C92.1742 79.2201 101.866 77.4136 101.866 77.4136L101.792 77.9018Z" fill="#002776"/>
<path d="M119.76 140.518C119.76 140.518 133.845 110.125 134.846 108.148C135.847 106.171 135.261 104.193 132.869 104.559C130.476 104.926 119.296 107.831 119.296 107.831L119.76 140.518Z" fill="#003399"/>
<path d="M119.32 108.88C119.32 108.88 131.77 99.4327 132.869 98.6516C133.393 98.2456 133.777 97.6869 133.97 97.0528C134.162 96.4186 134.153 95.7404 133.943 95.1118C133.479 94.0621 127.181 75.5823 126.4 74.3129C125.538 73.2371 124.582 72.2404 123.544 71.3346C123.544 71.3346 121.224 81.6609 120.443 86.7141C119.67 94.0772 119.295 101.477 119.32 108.88Z" fill="#003399"/>
<path d="M99.3269 140.518C99.3269 140.518 85.2413 110.125 84.2648 108.148C83.2883 106.171 83.8498 104.193 86.2422 104.559C88.6345 104.926 99.7908 107.831 99.7908 107.831L99.3269 140.518Z" fill="#003399"/>
<path d="M99.7908 108.88C99.7908 108.88 88.7077 99.4329 87.7313 98.6517C87.2622 98.2056 86.9512 97.6187 86.8455 96.98C86.7398 96.3413 86.8451 95.6855 87.1454 95.112C87.7557 94.0623 97.5693 77.6331 98.5214 76.4857C99.5298 75.4064 100.624 74.4105 101.793 73.5074C101.793 73.5074 102.012 76.2904 101.939 78.6828C101.866 81.0751 99.7908 108.88 99.7908 108.88Z" fill="#003399"/>
<g filter="url(#filter0_d_203_220)">
<rect width="39.9951" height="56.993" rx="1" transform="matrix(-0.993463 -0.114154 -0.114154 0.993463 133.638 117.919)" fill="#EFEFEF"/>
</g>
<path d="M114.86 143.462C112.078 142.287 109.563 140.545 107.474 138.348C106.181 136.991 104.715 135.813 103.115 134.846C102.176 134.259 101.366 133.485 100.735 132.571C99.9018 131.155 99.2123 129.659 98.677 128.107C98.4786 126.77 98.0239 125.482 97.3382 124.314C96.6863 123.717 94.3852 124.036 93.1907 126.358C92.7789 127.392 92.5923 128.505 92.6435 129.623C92.6946 130.741 92.9823 131.838 93.4872 132.84C94.0816 134.043 94.5472 135.304 94.8761 136.603L94.6591 136.733C92.8391 135.766 90.8942 135.066 88.8835 134.652C88.1542 134.489 87.3946 134.577 86.7269 134.902C86.0593 135.227 85.5225 135.77 85.2031 136.444C84.8838 137.118 84.8003 137.883 84.9663 138.616C85.1323 139.349 85.5381 140.007 86.1182 140.485C82.9806 140.845 83.3368 145.685 86.0304 146.324C85.4536 146.567 84.9667 146.982 84.6355 147.515C84.3044 148.047 84.1449 148.671 84.1788 149.302C84.2126 149.933 84.4381 150.541 84.8247 151.043C85.2113 151.545 85.7404 151.918 86.3405 152.11C84.4273 153.874 85.8258 156.781 89.2997 156.794C92.1223 157.081 99.6711 158.262 102.297 158.828C104.924 159.393 110.203 158.143 111.898 158.667C114.423 159.592 117.354 159.607 119.591 152.965C121.827 146.323 117.457 144.32 114.86 143.462Z" fill="#FBBEAA"/>
<path d="M113.117 163.19L164.908 185.177C171.967 188.473 180.304 185.596 183.475 177.359C184.054 175.824 184.094 173.314 184.022 171.674C183.95 170.034 183.546 168.426 182.834 166.948C182.122 165.469 180.803 162.803 179.566 161.725C178.329 160.646 173.921 158.655 172.359 158.151L114.094 142.181L113.117 163.19Z" fill="#002776"/>
<defs>
<filter id="filter0_d_203_220" x="87.5061" y="113.461" width="48.0245" height="60.9711" filterUnits="userSpaceOnUse" color-interpolation-filters="sRGB">
<feFlood flood-opacity="0" result="BackgroundImageFix"/>
<feColorMatrix in="SourceAlpha" type="matrix" values="0 0 0 0 0 0 0 0 0 0 0 0 0 0 0 0 0 0 127 0" result="hardAlpha"/>
<feOffset dx="2"/>
<feComposite in2="hardAlpha" operator="out"/>
<feColorMatrix type="matrix" values="0 0 0 0 0.603922 0 0 0 0 0.6 0 0 0 0 0.631373 0 0 0 1 0"/>
<feBlend mode="normal" in2="BackgroundImageFix" result="effect1_dropShadow_203_220"/>
<feBlend mode="normal" in="SourceGraphic" in2="effect1_dropShadow_203_220" result="shape"/>
</filter>
</defs>
</svg>
