<svg width="250" height="565" viewBox="0 0 250 565" fill="none" xmlns="http://www.w3.org/2000/svg">
<g opacity="0.3" filter="url(#filter0_f_110_26)">
<ellipse cx="106.5" cy="14.5" rx="106.5" ry="14.5" transform="matrix(1 0 0 -1 17 548)" fill="#CBCBCB"/>
</g>
<path d="M88.1311 226.493C88.682 219.556 96.12 192.96 104.109 177.808C104.109 177.808 121.537 180.01 132.76 180.046C144.47 180.084 162.662 177.808 162.662 177.808C167.871 189.604 173.806 215.374 175.534 220.934C176.577 224.205 176.704 227.699 175.9 231.037C175.097 234.375 173.394 237.429 170.976 239.867C165.041 246.604 149.739 254.317 146.208 254.317C131.016 252.147 116.124 248.231 101.83 242.647C93.7659 239.266 87.6051 233.456 88.1311 226.493Z" fill="#93929C"/>
<path d="M226.448 82.0403C226.552 79.7835 225.948 77.5509 224.72 75.6541C222.831 73.4635 221.416 70.9054 220.563 68.141C219.907 65.5749 218.86 63.1252 217.458 60.8782C216.456 59.5008 214.953 58.3739 214.953 57.322C214.953 56.2702 216.957 54.2416 219.812 54.8176C221.035 55.1986 222.158 55.8452 223.102 56.7111C224.046 57.577 224.787 58.6408 225.271 59.8264C225.545 59.104 225.705 58.3438 225.747 57.5725L226.373 42.2206C226.383 41.8226 226.472 41.4306 226.635 41.0676C226.799 40.7047 227.034 40.3782 227.325 40.1074C227.617 39.8366 227.96 39.627 228.334 39.491C228.709 39.355 229.106 39.2953 229.504 39.3155C230.137 39.3425 230.745 39.5672 231.244 39.958C231.743 40.3488 232.106 40.8861 232.284 41.4943V40.7931C232.38 40.0468 232.755 39.3646 233.333 38.8834C233.912 38.4022 234.651 38.1576 235.403 38.1988C236.154 38.24 236.862 38.564 237.384 39.1056C237.907 39.6471 238.205 40.3663 238.219 41.1187V43.2474C238.47 42.5911 238.948 42.0468 239.567 41.7136C240.185 41.3805 240.903 41.2808 241.589 41.4325C242.275 41.5843 242.884 41.9775 243.304 42.5404C243.724 43.1034 243.928 43.7987 243.879 44.4996V45.8519C244.148 45.3782 244.55 44.9933 245.035 44.7442C245.52 44.4952 246.067 44.3927 246.609 44.4495C247.351 44.5437 248.027 44.9231 248.495 45.5074C248.962 46.0918 249.184 46.835 249.113 47.5799L247.886 60.5276C247.082 67.8274 245.572 75.0319 243.378 82.0403C243.351 83.2105 243.08 84.3621 242.582 85.4212C242.084 86.4804 241.37 87.4236 240.485 88.1901C239.601 88.9567 238.565 89.5297 237.446 89.8723C236.327 90.2149 235.149 90.3196 233.987 90.1796C232.935 90.2146 231.888 90.0232 230.917 89.6181C229.946 89.213 229.073 88.6038 228.358 87.8318C227.643 87.0599 227.103 86.1432 226.773 85.1439C226.444 84.1446 226.333 83.0861 226.448 82.0403Z" fill="#FBBEAA"/>
<path d="M142.051 490.756C142.051 488.345 143.009 486.033 144.713 484.328C146.418 482.623 148.731 481.665 151.142 481.665C153.553 481.665 155.865 482.623 157.57 484.328C159.275 486.033 160.233 488.345 160.233 490.756V510.516H142.051V490.756Z" fill="#FBBEAA"/>
<path d="M159.581 494.438C161.81 494.438 162.211 495.414 162.862 496.691C163.918 500.095 165.724 503.219 168.146 505.832C171.763 508.913 175.643 511.67 179.742 514.072V524.54H139.271C139.271 524.54 139.546 516.276 139.747 510.44C139.947 504.605 140.523 497.493 140.473 496.741C140.423 495.99 140.473 494.438 141.85 494.438H159.581Z" fill="#302D3B"/>
<path d="M144.305 511.016C144.3 512.301 144.677 513.559 145.387 514.629C146.098 515.7 147.111 516.535 148.297 517.029C149.483 517.523 150.79 517.654 152.05 517.404C153.311 517.155 154.469 516.536 155.377 515.628C156.286 514.719 156.904 513.561 157.154 512.301C157.403 511.04 157.273 509.734 156.779 508.548C156.285 507.361 155.449 506.349 154.379 505.638C153.308 504.927 152.051 504.55 150.766 504.555C149.054 504.562 147.415 505.244 146.204 506.455C144.994 507.665 144.311 509.305 144.305 511.016Z" fill="#93929C"/>
<path d="M150.765 507.209L149.288 509.388L146.758 510.114L148.361 512.193L148.286 514.823L150.765 513.921L153.245 514.823L153.144 512.193L154.772 510.114L152.243 509.388L150.765 507.209Z" fill="white"/>
<path d="M179.466 513.896C179.466 513.896 185.201 516.927 187.355 518.404C188.352 519.08 189.162 519.997 189.709 521.07C190.257 522.142 190.524 523.336 190.485 524.54H174.758C174.758 524.54 175.083 516.852 179.466 513.896Z" fill="white"/>
<path d="M139.271 524.54V528.873C139.271 529.599 139.922 530 141.024 530H188.757C189.834 530 190.486 529.599 190.486 528.873V524.54H139.271Z" fill="white"/>
<path d="M174.757 510.966C174.896 510.753 175.112 510.602 175.36 510.546C175.608 510.49 175.868 510.533 176.085 510.665C176.193 510.732 176.286 510.819 176.36 510.922C176.434 511.025 176.486 511.142 176.514 511.266C176.542 511.389 176.545 511.517 176.523 511.642C176.501 511.767 176.454 511.886 176.385 511.993L174.707 514.697C174.626 514.837 174.509 514.953 174.368 515.033C174.227 515.112 174.068 515.152 173.906 515.148C173.72 515.145 173.539 515.093 173.38 514.998C173.272 514.931 173.178 514.844 173.105 514.741C173.031 514.638 172.978 514.521 172.95 514.397C172.922 514.274 172.919 514.146 172.942 514.021C172.964 513.896 173.011 513.777 173.079 513.671L174.757 510.966Z" fill="white"/>
<path d="M171.803 508.887C171.885 508.792 171.985 508.714 172.098 508.657C172.21 508.6 172.333 508.566 172.458 508.557C172.584 508.548 172.71 508.563 172.83 508.603C172.949 508.642 173.06 508.705 173.155 508.787C173.25 508.869 173.329 508.969 173.385 509.082C173.442 509.194 173.476 509.317 173.485 509.442C173.495 509.568 173.479 509.694 173.44 509.814C173.4 509.933 173.338 510.044 173.255 510.139L171.302 512.443C171.212 512.549 171.101 512.635 170.976 512.695C170.851 512.755 170.714 512.789 170.576 512.794C170.394 512.791 170.217 512.737 170.065 512.638C169.912 512.54 169.79 512.401 169.712 512.237C169.634 512.074 169.603 511.891 169.623 511.711C169.643 511.531 169.713 511.359 169.824 511.216L171.803 508.887Z" fill="white"/>
<path d="M169.023 506.559C169.223 506.43 169.462 506.379 169.696 506.414C169.931 506.448 170.144 506.567 170.298 506.748C170.451 506.929 170.533 507.159 170.529 507.396C170.525 507.633 170.435 507.861 170.276 508.036L168.047 509.965C167.872 510.113 167.65 510.193 167.421 510.19C167.283 510.195 167.145 510.168 167.02 510.112C166.894 510.055 166.782 509.971 166.694 509.864C166.602 509.778 166.528 509.673 166.478 509.557C166.427 509.44 166.401 509.315 166.401 509.188C166.401 509.062 166.427 508.936 166.478 508.82C166.528 508.704 166.602 508.599 166.694 508.512L169.023 506.559Z" fill="white"/>
<path d="M164.139 505.407L166.644 503.854C166.864 503.724 167.126 503.685 167.374 503.746C167.622 503.807 167.836 503.963 167.971 504.18C168.039 504.288 168.084 504.408 168.104 504.534C168.125 504.66 168.12 504.788 168.089 504.912C168.059 505.036 168.004 505.152 167.928 505.255C167.851 505.357 167.755 505.443 167.645 505.507L165.141 507.06C164.993 507.158 164.818 507.21 164.64 507.21C164.477 507.206 164.318 507.16 164.177 507.077C164.037 506.993 163.92 506.875 163.839 506.734C163.706 506.517 163.664 506.257 163.72 506.009C163.776 505.762 163.926 505.545 164.139 505.407Z" fill="white"/>
<path d="M162.035 502.176L164.84 500.999C165.079 500.9 165.348 500.899 165.588 500.998C165.827 501.096 166.018 501.286 166.117 501.525C166.166 501.642 166.191 501.767 166.191 501.893C166.191 502.02 166.166 502.145 166.117 502.262C166.068 502.378 165.996 502.484 165.906 502.572C165.816 502.661 165.709 502.731 165.591 502.777L162.786 503.955H162.411C162.195 503.943 161.989 503.86 161.825 503.718C161.661 503.577 161.549 503.385 161.506 503.173C161.463 502.961 161.492 502.741 161.587 502.547C161.683 502.353 161.841 502.196 162.035 502.101V502.176Z" fill="white"/>
<path d="M160.283 498.57L163.388 497.793C163.634 497.734 163.893 497.774 164.109 497.905C164.325 498.037 164.48 498.249 164.54 498.495C164.6 498.74 164.56 499 164.428 499.216C164.297 499.432 164.085 499.587 163.839 499.647L160.759 500.448H160.533C160.318 500.446 160.108 500.374 159.937 500.243C159.765 500.112 159.641 499.929 159.582 499.722C159.528 499.476 159.571 499.22 159.701 499.005C159.832 498.791 160.04 498.635 160.283 498.57Z" fill="white"/>
<path d="M128.752 364.385C129.028 352.264 137.192 346.403 149.288 346.704C161.385 347.004 170.1 353.341 169.824 365.437L160.233 491.733H142.051L128.752 364.385Z" fill="#FBBEAA"/>
<path d="M127.174 364.309C127.242 361.431 127.875 358.595 129.039 355.962C130.202 353.33 131.873 350.952 133.955 348.964C136.038 346.977 138.491 345.42 141.176 344.381C143.86 343.342 146.723 342.842 149.601 342.909C152.479 342.977 155.315 343.61 157.948 344.774C160.581 345.937 162.958 347.608 164.946 349.69C166.933 351.773 168.49 354.227 169.529 356.911C170.568 359.595 171.068 362.458 171.001 365.336L176.687 495.164H127.175L127.174 364.309Z" fill="#93929C"/>
<path d="M65.416 490.756C65.416 488.345 66.3738 486.033 68.0787 484.328C69.7836 482.623 72.0959 481.665 74.5069 481.665C76.918 481.665 79.2303 482.623 80.9352 484.328C82.6401 486.033 83.5979 488.345 83.5979 490.756V510.516H65.416V490.756Z" fill="#FBBEAA"/>
<path d="M82.9225 494.438C85.1764 494.438 85.5771 495.414 86.2032 496.691C87.2714 500.095 89.0852 503.218 91.5125 505.832C95.1244 508.919 99.005 511.676 103.108 514.072V524.54H62.637C62.637 524.54 62.9125 516.276 63.1128 510.44C63.3132 504.605 63.8641 497.493 63.8391 496.741C63.8141 495.99 63.8391 494.438 65.1914 494.438H82.9225Z" fill="#302D3B"/>
<path d="M67.646 511.016C67.641 512.3 68.0172 513.557 68.7269 514.627C69.4366 515.697 70.4479 516.532 71.6327 517.027C72.8175 517.521 74.1225 517.654 75.3823 517.406C76.6422 517.159 77.8003 516.543 78.71 515.637C79.6196 514.731 80.2399 513.575 80.4922 512.316C80.7445 511.057 80.6175 509.752 80.1273 508.565C79.6371 507.378 78.8058 506.364 77.7386 505.65C76.6714 504.936 75.4163 504.555 74.1324 504.555C72.4164 504.555 70.7704 505.235 69.5547 506.446C68.3389 507.657 67.6526 509.3 67.646 511.016Z" fill="#93929C"/>
<path d="M74.1067 507.209L72.6291 509.388L70.0997 510.114L71.7275 512.193L71.6524 514.823L74.1067 513.921L76.5861 514.823L76.5109 512.193L78.1388 510.114L75.5843 509.388L74.1067 507.209Z" fill="white"/>
<path d="M102.807 513.896C102.807 513.896 108.567 516.927 110.695 518.404C111.698 519.075 112.511 519.991 113.059 521.065C113.607 522.139 113.871 523.335 113.826 524.54H98.0232C98.0232 524.54 98.4489 516.852 102.807 513.896Z" fill="white"/>
<path d="M62.637 524.54V528.873C62.637 529.599 63.2631 530 64.365 530H112.149C113.251 530 113.877 529.599 113.877 528.873V524.54H62.637Z" fill="white"/>
<path d="M98.1239 510.966C98.2601 510.75 98.4764 510.597 98.7254 510.541C98.9743 510.485 99.2354 510.53 99.4512 510.666C99.6671 510.802 99.82 511.018 99.8764 511.267C99.9328 511.516 99.8879 511.777 99.7518 511.993L98.0738 514.698C97.987 514.838 97.8651 514.954 97.7203 515.033C97.5754 515.112 97.4124 515.152 97.2474 515.149C97.0693 515.149 96.895 515.097 96.7465 514.998C96.6385 514.932 96.5449 514.845 96.4712 514.741C96.3974 514.638 96.345 514.522 96.317 514.398C96.289 514.274 96.2859 514.146 96.3081 514.021C96.3303 513.897 96.3771 513.777 96.446 513.671L98.1239 510.966Z" fill="white"/>
<path d="M95.1434 508.887C95.3085 508.695 95.5419 508.575 95.7943 508.551C96.0466 508.528 96.2981 508.603 96.4958 508.762C96.6897 508.932 96.8109 509.169 96.8342 509.426C96.8575 509.682 96.7812 509.938 96.621 510.139L94.6425 512.443C94.5557 512.553 94.4453 512.641 94.3195 512.702C94.1937 512.763 94.0559 512.794 93.9162 512.794C93.7327 512.796 93.5525 512.745 93.3974 512.646C93.2423 512.548 93.1189 512.407 93.0422 512.24C92.9654 512.074 92.9385 511.888 92.9647 511.707C92.9909 511.525 93.0692 511.355 93.1899 511.216L95.1434 508.887Z" fill="white"/>
<path d="M92.3888 506.559C92.5881 506.43 92.8272 506.379 93.0616 506.414C93.2961 506.448 93.5099 506.567 93.6631 506.748C93.8164 506.929 93.8986 507.159 93.8945 507.396C93.8905 507.633 93.8004 507.861 93.641 508.036L91.3871 509.965C91.2123 510.113 90.99 510.193 90.761 510.19C90.6234 510.193 90.4868 510.166 90.3611 510.109C90.2355 510.053 90.124 509.969 90.0347 509.864C89.9454 509.776 89.8744 509.671 89.826 509.555C89.7776 509.439 89.7527 509.314 89.7527 509.188C89.7527 509.063 89.7776 508.938 89.826 508.822C89.8744 508.706 89.9454 508.601 90.0347 508.512L92.3888 506.559Z" fill="white"/>
<path d="M87.5046 505.406L90.009 503.854C90.225 503.763 90.4666 503.752 90.6897 503.824C90.9128 503.897 91.1024 504.047 91.224 504.247C91.3455 504.448 91.3908 504.685 91.3517 504.917C91.3125 505.148 91.1915 505.357 91.0107 505.507L88.5063 507.059C88.3579 507.158 88.1836 507.21 88.0055 507.21C87.8385 507.207 87.6749 507.163 87.5302 507.079C87.3855 506.996 87.2646 506.877 87.179 506.734C87.0489 506.514 87.0101 506.252 87.071 506.004C87.1318 505.756 87.2875 505.541 87.5046 505.406Z" fill="white"/>
<path d="M226.148 83.7186L216.13 146.604C214.477 154.492 217.032 161.63 226.148 162.882C227.831 163.101 229.54 162.976 231.173 162.514C232.806 162.053 234.328 161.264 235.647 160.196C236.965 159.128 238.053 157.803 238.844 156.301C239.635 154.8 240.112 153.154 240.248 151.462L243.303 83.8437C244.104 77.4576 241.324 73.2001 236.466 72.6742C230.506 72.0231 227.35 75.5543 226.148 83.7186Z" fill="#FBBEAA"/>
<path d="M85.4012 502.176L88.2061 500.999C88.3228 500.95 88.4479 500.925 88.5744 500.925C88.7008 500.925 88.826 500.95 88.9426 500.999C89.0591 501.048 89.1648 501.12 89.2534 501.21C89.3419 501.301 89.4116 501.408 89.4583 501.525C89.5519 501.758 89.552 502.018 89.4587 502.251C89.3654 502.485 89.1859 502.673 88.9575 502.777L86.1275 503.954C86.0121 503.98 85.8923 503.98 85.7769 503.954C85.5841 503.954 85.3955 503.897 85.2351 503.79C85.0746 503.683 84.9495 503.531 84.8753 503.353C84.7993 503.127 84.8112 502.88 84.9086 502.662C85.006 502.444 85.1819 502.271 85.4012 502.176Z" fill="white"/>
<path d="M83.648 498.57L86.7284 497.794C86.9774 497.733 87.2403 497.772 87.4605 497.903C87.6807 498.034 87.8405 498.247 87.9055 498.495C87.9353 498.616 87.9408 498.743 87.9217 498.867C87.9026 498.99 87.8593 499.109 87.7941 499.216C87.729 499.323 87.6433 499.417 87.5421 499.49C87.4409 499.564 87.326 499.617 87.2042 499.647L84.1238 500.448H83.8734C83.6478 500.431 83.4351 500.336 83.2718 500.179C83.1085 500.022 83.0047 499.814 82.9781 499.589C82.9515 499.364 83.0038 499.137 83.1259 498.947C83.2481 498.756 83.4326 498.614 83.648 498.545V498.57Z" fill="white"/>
<path d="M75.3587 364.009C76.5889 358.324 80.0262 353.36 84.915 350.209C89.8038 347.058 95.7439 345.977 101.429 347.204C113.275 349.709 119.661 361.379 117.107 373.225L83.5981 493.811H65.1909L75.3587 364.009Z" fill="#FBBEAA"/>
<path d="M75.362 361.629C76.7212 356.081 80.1907 351.282 85.0331 348.252C89.8754 345.222 95.7087 344.2 101.293 345.403C106.877 346.607 111.771 349.941 114.935 354.697C118.1 359.453 119.284 365.255 118.237 370.87L104.914 494.659C104.914 494.659 73.0083 496.562 54 494.659L75.362 361.629Z" fill="#93929C"/>
<path d="M234.287 139.641L162.361 84.9955C153.971 79.6361 148.262 82.4911 143.804 88.2262C141.768 91.002 140.824 94.4296 141.152 97.8562C141.48 101.283 143.057 104.469 145.582 106.809L217.332 159.676C219.861 161.812 223.116 162.889 226.419 162.684C229.722 162.479 232.819 161.006 235.063 158.574L235.389 158.224C236.58 156.953 237.5 155.453 238.093 153.814C238.685 152.176 238.937 150.434 238.834 148.696C238.731 146.957 238.275 145.257 237.493 143.7C236.711 142.144 235.62 140.762 234.287 139.641Z" fill="#FBBEAA"/>
<path d="M145.582 106.784C144.918 106.213 144.313 105.575 143.779 104.881C143.306 103.098 143.245 101.232 143.601 99.4222C143.956 97.6128 144.72 95.9081 145.832 94.4375C149.614 88.6023 157.553 84.0193 161.084 84.8958L164.59 86.6739L204.284 116.727C200.771 124.983 196.026 132.659 190.21 139.491L145.582 106.784Z" fill="#F18380"/>
<path d="M156.426 81.0884L218.669 123.068C218.407 125.215 225.307 81.0884 225.307 81.0884L244.831 83.6293C244.831 83.6293 244.434 128.187 241.519 151.835C240.356 161.275 232.57 164.879 223.277 162.851C218.689 161.85 214.369 159.968 210.525 157.269C194.008 145.676 147.668 113.02 143.879 108.912C137.343 101.825 137.343 96.5155 141.099 90.6803C144.856 84.845 152.895 80.2119 156.426 81.0884Z" fill="#001A4B"/>
<path d="M127.174 364.31L114.326 229.799C114.326 214.948 129.628 198.77 152.193 202.251C172.578 205.432 178.789 225.917 177.111 245.326C175.433 264.735 170.9 365.261 170.9 365.261C170.833 368.139 170.199 370.975 169.036 373.608C167.872 376.241 166.202 378.619 164.119 380.606C162.037 382.593 159.583 384.151 156.899 385.19C154.214 386.229 151.351 386.729 148.474 386.661C145.596 386.594 142.76 385.96 140.127 384.797C137.494 383.633 135.116 381.963 133.129 379.88C131.142 377.798 129.584 375.344 128.545 372.66C127.506 369.975 127.006 367.112 127.074 364.235L127.174 364.31Z" fill="#93929C"/>
<path d="M75.3592 361.63L88.1316 227.144C90.8363 212.543 108.993 199.596 130.506 207.259C149.915 214.196 152.169 235.484 146.859 254.242C141.55 272.999 118.234 370.871 118.234 370.871C116.875 376.419 113.406 381.218 108.563 384.248C103.721 387.278 97.8876 388.3 92.3036 387.097C86.7196 385.893 81.8252 382.559 78.661 377.803C75.4968 373.047 74.3122 367.245 75.3592 361.63Z" fill="#93929C"/>
<path d="M146.859 254.242C141.574 273 118.233 370.872 118.233 370.872" stroke="#5E5D63" stroke-width="0.75" stroke-miterlimit="10"/>
<path d="M143.102 78.9596C143.102 78.9596 154.172 80.888 156.326 81.464C157.597 81.7622 158.771 82.3783 159.739 83.2543C160.707 84.1303 161.437 85.2377 161.86 86.4727C163.238 89.7535 170.325 111.241 170.976 113.57C171.417 116.136 171.003 118.775 169.799 121.083C168.772 123.888 163.463 136.661 163.463 136.661L162.662 177.808L132.761 182.55L104.109 177.808C104.109 177.808 94.0916 101.274 93.5908 96.5404C93.0899 91.8071 95.444 82.6661 101.104 81.5141C106.764 80.3621 122.291 79.0097 122.291 79.0097L143.102 78.9596Z" fill="#FBBEAA"/>
<path d="M164.066 161.263V175.729C144.481 177.533 113.275 176.255 101.555 175.729C101.004 171.597 100.428 164.585 99.8268 159.927C115.78 160.327 142.127 161.814 164.066 161.263Z" fill="white"/>
<path d="M146.287 79.3343C145.506 84.0201 141.025 89.3088 134.778 89.759C126.187 90.378 123.248 87.1439 119.734 78.9438C119.734 78.9438 103.232 80.287 100.828 80.5374C95.1339 82.0677 93.5424 86.5557 92.791 91.4392C92.0397 96.3228 94.353 181.549 94.353 181.549C94.353 181.549 146.039 184.504 170.106 181.549C170.106 181.549 171.552 119.369 171.677 117.992C171.777 116.491 171.688 111.334 170.497 106.668C168.329 98.1836 162.937 87.2742 161.509 84.87C160.415 82.9574 158.618 81.5469 156.501 80.9381C155.023 80.4623 146.287 79.3343 146.287 79.3343Z" fill="#002366"/>
<path d="M123.855 111.322L126.13 111.186L126.303 114.079L128.73 113.935L128.558 111.042L130.833 110.906L131.304 118.81L129.029 118.946L128.842 115.816L126.414 115.96L126.601 119.091L124.326 119.226L123.855 111.322L123.855 111.322ZM138.951 110.422L139.422 118.327L137.224 118.458L136.864 112.427L135.424 112.513L135.56 114.781C135.62 115.801 135.618 117.055 135.055 117.794C134.496 118.613 133.37 118.918 132.068 118.757L131.952 116.797C133.176 116.962 133.454 116.47 133.361 114.905L133.114 110.756L138.95 110.408L138.951 110.422ZM140.85 110.309L143.125 110.174L144.692 114.792L145.699 110.02L147.974 109.885L149.509 117.725L147.387 117.852L146.607 113.655L145.641 117.955L144.125 118.046L142.662 113.89L142.386 118.149L140.264 118.276L140.85 110.309L140.85 110.309ZM149.873 109.771L152.148 109.636L152.339 112.845L154.346 109.505L156.85 109.356L154.204 113.44L157.399 117.255L154.671 117.418L152.435 114.33L152.626 117.54L150.351 117.675L149.88 109.771L149.873 109.771L149.873 109.771ZM139.581 101.898C125.932 102.711 117.206 108.339 117.653 115.849C118.096 123.286 127.427 127.91 141.083 127.096C154.808 126.278 163.453 120.575 163.01 113.145C162.563 105.636 153.313 101.079 139.581 101.898ZM141.013 125.926C128.192 126.69 119.353 122.584 118.947 115.772C118.537 108.887 126.837 103.832 139.651 103.068C152.541 102.3 161.312 106.33 161.723 113.222C162.129 120.035 153.91 125.157 141.013 125.926ZM139.716 104.166C127.66 104.885 119.866 109.514 120.234 115.695C120.603 121.876 128.892 125.546 140.947 124.828C153.003 124.109 160.798 119.48 160.429 113.299C160.068 107.118 151.779 103.447 139.716 104.166ZM140.934 124.598C129.024 125.308 120.823 121.712 120.464 115.688C120.105 109.665 127.828 105.12 139.731 104.411C151.633 103.701 159.841 107.297 160.2 113.32C160.566 119.343 152.843 123.888 140.934 124.598L140.934 124.598Z" fill="white"/>
<path d="M60.7833 174.127L92.8644 89.7037C97.1469 80.688 103.483 80.0869 110.395 82.5913C113.592 83.8666 116.207 86.2749 117.741 89.3563C119.275 92.4377 119.62 95.9761 118.71 99.2956L85.6768 182.216C84.6756 185.37 82.491 188.015 79.5818 189.593C76.6726 191.171 73.265 191.561 70.0745 190.681L69.5987 190.555C67.9157 190.096 66.3439 189.299 64.9791 188.212C63.6142 187.126 62.485 185.773 61.6602 184.236C60.8353 182.698 60.3322 181.009 60.1814 179.271C60.0307 177.533 60.2354 175.783 60.7833 174.127Z" fill="#FBBEAA"/>
<path d="M74.0814 139.115L92.8643 89.7037C93.3681 88.6201 93.9629 87.5812 94.6424 86.5983C96.9431 85.1578 99.5771 84.3363 102.289 84.2134C105.001 84.0906 107.698 84.6705 110.12 85.897C112.932 87.2654 115.192 89.5531 116.526 92.3813C117.861 95.2096 118.189 98.4088 117.457 101.449C117.457 101.75 117.282 102.326 117.132 103.102L97.7479 151.812C89.2811 148.759 81.3075 144.481 74.0814 139.115Z" fill="#F18380"/>
<path d="M94.6178 85.1959L58.9622 177.735C88.2483 168.364 84.8158 142.255 100.744 144.935C100.744 144.935 119.111 101.825 119.812 97.9682C120.544 94.9278 120.215 91.7287 118.881 88.9004C117.546 86.0721 115.286 83.7844 112.474 82.416C104.635 78.409 96.8217 82.0404 94.6178 85.1959Z" fill="#002366"/>
<path d="M152.952 79.1584C154.729 86.0779 143.865 92.2831 134.272 89.7587C144.37 83.1955 143.865 79.1566 143.865 79.1566V72.0884C146.894 71.5836 151.834 74.8031 152.952 79.1584Z" fill="#001A4B"/>
<path d="M121.651 69.564C118.622 69.0591 108.818 70.084 105.496 75.6222C103.981 78.1467 105.496 80.166 105.496 80.166C105.496 80.166 107.515 80.1662 110.544 79.6614C113.069 85.215 125.69 92.2829 134.996 89.8105C121.651 82.6905 121.651 79.156 121.651 79.156V69.564Z" fill="#001A4B"/>
<path d="M125.096 134.482L85.2263 184.144C80.493 190.655 73.4807 193.56 66.4935 187.7C65.2011 186.602 64.1453 185.253 63.3901 183.734C62.6348 182.216 62.1959 180.56 62.0999 178.867C62.0038 177.173 62.2528 175.478 62.8315 173.884C63.4102 172.29 64.3068 170.83 65.4667 169.593L113.501 122.01C117.683 117.126 122.717 116.35 126.373 119.505C130.806 123.437 130.28 128.045 125.096 134.482Z" fill="#FBBEAA"/>
<path d="M111.096 124.614C115.529 120.132 123.818 110.465 126.623 108.111C129.397 106.021 132.427 104.295 135.639 102.976C138.076 102.16 140.596 101.614 143.152 101.349C144.93 101.123 145.656 101.649 145.656 102.726C145.612 103.368 145.407 103.988 145.062 104.53C144.716 105.073 144.241 105.52 143.678 105.832H146.959C148.086 105.832 148.812 106.733 148.286 108.186C147.808 109.145 147.126 109.988 146.286 110.655C145.446 111.321 144.471 111.795 143.428 112.042C143.428 112.042 147.86 112.468 148.987 112.694C150.114 112.919 150.465 113.345 150.465 114.422C150.455 115.165 150.248 115.893 149.866 116.531C149.483 117.169 148.938 117.694 148.286 118.053C146.691 118.7 144.997 119.073 143.277 119.155C143.277 119.155 148.762 120.532 149.864 120.933C150.966 121.334 151.091 122.06 150.515 123.012C150.187 123.682 149.713 124.27 149.128 124.734C148.543 125.198 147.862 125.525 147.134 125.691C145.055 126.242 143.653 125.341 142.902 125.466C141.287 125.986 139.707 126.605 138.168 127.319C135.858 129.619 133.034 131.336 129.929 132.328C127.618 133.298 125.498 134.672 123.668 136.385C122.816 137.185 121.812 137.805 120.715 138.21C119.619 138.615 118.453 138.796 117.285 138.743C116.118 138.689 114.973 138.402 113.918 137.898C112.864 137.394 111.921 136.684 111.146 135.809C107.139 131.552 107.815 127.995 111.096 124.614Z" fill="#FBBEAA"/>
<path d="M124.075 138.012L85.5155 185.194C80.6842 191.633 69.3947 195.172 62.4969 189.206C61.2213 188.089 60.1861 186.724 59.4539 185.194C58.7217 183.664 58.3078 182.002 58.2375 180.307C58.1671 178.613 58.4416 176.922 59.0444 175.337C59.6472 173.752 62.3275 168.412 63.5059 167.193L111.823 121.815L124.075 138.012Z" fill="#002366"/>
<path d="M143.127 105.857C143.135 105.898 143.133 105.941 143.123 105.981C143.112 106.022 143.094 106.06 143.068 106.093C143.042 106.126 143.009 106.154 142.972 106.173C142.935 106.193 142.894 106.205 142.852 106.207L140.798 106.408H139.797C139.446 106.408 139.12 106.533 138.77 106.558C138.399 106.669 138.039 106.812 137.693 106.984L136.541 107.46C134.988 108.086 133.435 108.662 132.283 109.087C131.131 109.513 130.33 109.764 130.33 109.764C130.267 109.79 130.195 109.792 130.13 109.769C130.065 109.746 130.012 109.699 129.979 109.638C129.933 109.577 129.907 109.502 129.907 109.426C129.907 109.349 129.933 109.274 129.979 109.213L131.858 108.236L133.811 107.309C134.512 106.984 135.289 106.658 136.065 106.358L137.242 105.907C137.621 105.736 138.015 105.602 138.419 105.506L139.621 105.381H140.648H142.176H142.752C142.815 105.331 142.895 105.308 142.975 105.318C143.055 105.327 143.128 105.368 143.178 105.431C143.227 105.494 143.25 105.574 143.241 105.654C143.231 105.734 143.191 105.807 143.127 105.857ZM142.652 111.892H142.201C141.826 111.859 141.449 111.859 141.074 111.892L140.297 112.018C140.011 112.053 139.727 112.104 139.446 112.168L137.743 112.719C136.591 113.094 135.464 113.57 134.613 113.921C134.613 113.921 134.337 113.921 134.362 114.046H134.062L133.611 114.171H133.335H133.185C133.109 114.189 133.044 114.236 133.002 114.301C132.96 114.367 132.945 114.446 132.96 114.522C132.971 114.582 133.001 114.637 133.046 114.677C133.092 114.718 133.149 114.743 133.21 114.747H134.487H134.888C135.765 114.522 136.942 114.171 138.094 113.771L139.772 113.145L140.548 112.944L141.224 112.744C141.57 112.642 141.921 112.558 142.276 112.493L142.702 112.368C142.74 112.357 142.775 112.338 142.805 112.313C142.836 112.288 142.861 112.257 142.88 112.222C142.898 112.187 142.91 112.149 142.914 112.109C142.918 112.07 142.914 112.03 142.902 111.993C142.872 111.956 142.834 111.927 142.79 111.91C142.746 111.892 142.698 111.886 142.652 111.892ZM142.652 119.005H141.725C141.475 119.005 141.149 119.005 140.823 119.18L139.797 119.506C139.151 119.733 138.523 120.01 137.918 120.332C137.641 120.463 137.373 120.613 137.117 120.783C137.066 120.842 137.038 120.918 137.038 120.996C137.038 121.074 137.066 121.15 137.117 121.209C137.189 121.285 137.288 121.33 137.392 121.334L138.319 121.184C138.845 121.058 139.521 120.858 140.197 120.633L141.174 120.232L142.025 119.906C142.309 119.781 142.585 119.639 142.852 119.481C142.923 119.439 142.975 119.371 142.998 119.292C143.022 119.213 143.014 119.129 142.977 119.055C142.903 119.007 142.814 118.989 142.727 119.005H142.652Z" fill="#F18380"/>
<path d="M226.949 62.0055C225.997 62.0055 225.922 61.4045 225.496 60.3026C227.625 60.3026 233.811 60.7032 236.516 65.9124C233.786 62.1558 228.552 62.0055 226.949 62.0055ZM231.807 42.1958C231.807 42.1958 231.657 43.0724 231.507 44.3496C231.507 45.0008 231.356 45.7771 231.306 46.5785C231.256 47.3799 231.181 48.2564 231.106 49.0829C231.106 50.836 230.981 52.564 230.981 53.8663C230.981 55.1686 230.981 56.0451 230.981 56.0451C230.981 56.0867 230.989 56.128 231.006 56.1662C231.023 56.2044 231.047 56.2387 231.078 56.267C231.108 56.2952 231.144 56.3168 231.184 56.3304C231.223 56.3439 231.265 56.3491 231.306 56.3456C231.377 56.3421 231.444 56.3157 231.499 56.2705C231.553 56.2254 231.591 56.1639 231.607 56.0952C231.607 56.0952 231.757 55.2186 231.882 53.9163C232.008 52.6141 232.208 50.886 232.283 49.158C232.283 48.2815 232.283 47.405 232.283 46.6536C232.283 45.9023 232.283 45.0759 232.283 44.4248C232.283 43.0974 232.283 42.2459 232.283 42.2459C232.283 42.2042 232.275 42.163 232.258 42.1248C232.242 42.0866 232.217 42.0523 232.186 42.024C232.156 41.9958 232.12 41.9742 232.08 41.9607C232.041 41.9471 231.999 41.9419 231.958 41.9454C231.91 41.973 231.87 42.0134 231.844 42.062C231.817 42.1106 231.805 42.1656 231.807 42.2209V42.1958ZM237.617 43.9489C237.617 43.9489 237.467 44.7002 237.292 45.8022C237.292 46.3782 237.117 47.0293 237.041 47.7305C236.966 48.4317 236.891 49.1831 236.816 49.9344C236.816 51.437 236.641 52.9396 236.616 54.0666C236.591 55.1936 236.616 55.97 236.616 55.97C236.619 56.0095 236.63 56.048 236.648 56.0832C236.666 56.1185 236.691 56.1499 236.721 56.1755C236.751 56.2011 236.786 56.2205 236.824 56.2325C236.862 56.2445 236.902 56.2489 236.941 56.2455C237.009 56.2408 237.072 56.2135 237.122 56.1681C237.172 56.1226 237.206 56.0617 237.217 55.995C237.217 55.995 237.367 55.2437 237.542 54.1417C237.718 53.0398 237.868 51.5122 237.993 50.0346C237.993 49.2833 237.993 48.5319 238.143 47.8307C238.294 47.1295 238.143 46.4533 238.143 45.8773C238.143 44.7503 238.143 43.999 238.143 43.999C238.144 43.9573 238.135 43.9161 238.118 43.8779C238.102 43.8397 238.077 43.8054 238.047 43.7771C238.016 43.7489 237.98 43.7273 237.941 43.7138C237.901 43.7002 237.859 43.695 237.818 43.6985C237.762 43.7214 237.714 43.7593 237.679 43.8079C237.643 43.8565 237.622 43.914 237.617 43.9739V43.9489ZM243.227 46.3281C243.227 46.3281 243.077 46.9542 242.877 47.9058C242.877 48.3566 242.676 48.9076 242.601 49.5087C242.526 50.1097 242.426 50.7358 242.326 51.3619C242.15 52.6391 242.075 53.8663 242.025 54.868C241.975 55.8698 242.025 56.4709 242.025 56.4709C242.025 56.5125 242.034 56.5537 242.05 56.5919C242.067 56.6301 242.091 56.6645 242.122 56.6927C242.153 56.721 242.189 56.7425 242.228 56.7561C242.267 56.7696 242.309 56.7748 242.351 56.7714C242.415 56.7681 242.476 56.7444 242.525 56.7038C242.575 56.6633 242.61 56.608 242.626 56.546C242.626 56.546 242.802 55.9199 242.977 54.9933C243.152 54.0667 243.403 52.7643 243.553 51.5122C243.553 50.861 243.678 50.2349 243.728 49.6339C243.778 49.0328 243.728 48.4819 243.728 48.006C243.728 47.0544 243.728 46.4032 243.728 46.4032C243.728 46.3615 243.72 46.3203 243.703 46.2821C243.686 46.2439 243.662 46.2096 243.632 46.1813C243.601 46.1531 243.565 46.1315 243.525 46.118C243.486 46.1044 243.444 46.0992 243.403 46.1027C243.356 46.1285 243.317 46.1644 243.286 46.2078C243.256 46.2511 243.236 46.3009 243.227 46.3531V46.3281Z" fill="#F18380"/>
<path d="M111.925 121.506L106.849 126.192L120.515 142.592L124.42 137.906L111.925 121.506Z" fill="#00163F"/>
<path d="M225.002 80.6431L224.384 87.5343L244.689 90.658L244.689 83.2389L225.002 80.6431Z" fill="#00163F"/>
<path d="M94.0582 174.728L94.3534 181.64C94.3534 181.64 118.378 183.255 133.792 183.202C147.987 183.154 170.107 181.64 170.107 181.64L170.107 175.783C170.107 175.783 147.025 176.564 132.23 176.564C112.316 176.564 94.0582 174.728 94.0582 174.728Z" fill="#00163F"/>
<path d="M123.968 19.1534C125.022 15.3497 124.635 11.2904 122.879 7.75518C121.123 4.21995 118.123 1.45807 114.455 0C112.997 1.4576 113.739 6.11171 113.739 6.11171C108.589 3.69815 102.812 2.95601 97.2194 3.98923C97.3207 7.56523 98.6685 10.9934 101.03 13.681C98.1681 13.9694 95.416 14.9336 93 16.4939C93.3664 18.1794 94.1277 19.7537 95.2214 21.0874C96.315 22.4211 97.7097 23.4761 99.2907 24.1655C97.6808 26.0502 96.5726 28.3107 96.0686 30.7375C98.8155 31.5297 101.718 31.6176 104.507 30.9933C104.057 32.4046 103.875 33.8877 103.97 35.3661C106.62 35.7549 109.322 35.5556 111.885 34.7821C114.449 34.0087 116.81 32.6802 118.802 30.891C121.444 27.4515 123.216 23.4248 123.968 19.1534Z" fill="#E69D7E"/>
<path d="M108.164 32.9628C107.755 39.5859 103.587 49.6357 104.686 58.0489C106.221 69.9143 120.899 69.7864 126.576 69.7864H134.989V32.9628H108.164Z" fill="#E69D7E"/>
<path d="M121.052 56.1561V77.8668C121.052 77.8668 122.766 85.3338 134.222 85.3338C136.501 85.526 138.768 84.8381 140.556 83.4114C142.344 81.9847 143.518 79.9274 143.837 77.6622V56.1817L121.052 56.1561Z" fill="#FBBEAA"/>
<path d="M143.837 74.2355C136.651 77.6622 126.141 74.5935 121.052 65.183V56.1561H143.837V74.2355Z" fill="#F18380"/>
<path d="M158.106 39.4827C158.2 44.6753 157.961 49.8685 157.39 55.0305C156.47 62.4208 153.836 70.6038 140.794 70.6038C127.752 70.6038 121.078 64.6967 118.291 55.0305C116.603 49.2001 113.176 40.5567 114.583 30.5837C115.989 20.6106 121.999 14.0897 136.166 13.7061C150.332 13.3226 159.564 19.69 158.106 39.4827Z" fill="#FBBEAA"/>
<path d="M130.463 43.9326C130.55 44.3179 130.744 44.6709 131.022 44.951C131.301 45.231 131.653 45.4267 132.038 45.5155C132.422 45.6043 132.825 45.5826 133.198 45.4528C133.571 45.3231 133.899 45.0906 134.146 44.7822C134.393 44.4738 134.548 44.1019 134.592 43.7095C134.637 43.317 134.57 42.9199 134.399 42.5639C134.228 42.2079 133.96 41.9075 133.625 41.6972C133.291 41.4869 132.904 41.3754 132.509 41.3754C132.206 41.4071 131.912 41.4987 131.645 41.6449C131.378 41.791 131.142 41.9887 130.952 42.2266C130.761 42.4644 130.62 42.7377 130.536 43.0306C130.452 43.3234 130.428 43.63 130.463 43.9326Z" fill="#403D4F"/>
<path d="M149.463 43.9326C149.55 44.3179 149.743 44.6709 150.022 44.951C150.3 45.231 150.652 45.4267 151.037 45.5155C151.422 45.6043 151.824 45.5826 152.197 45.4528C152.57 45.3231 152.899 45.0906 153.146 44.7822C153.393 44.4738 153.547 44.1019 153.592 43.7095C153.637 43.317 153.57 42.9199 153.399 42.5639C153.228 42.2079 152.959 41.9075 152.625 41.6972C152.291 41.4869 151.904 41.3754 151.509 41.3754C151.206 41.4071 150.912 41.4987 150.645 41.6449C150.377 41.791 150.142 41.9887 149.952 42.2266C149.761 42.4644 149.62 42.7377 149.536 43.0306C149.452 43.3234 149.427 43.63 149.463 43.9326Z" fill="#403D4F"/>
<path d="M136.652 36.6958C136.652 36.6958 136.652 36.6958 136.421 36.4657C136.217 36.2818 135.994 36.119 135.757 35.9798C135.439 35.7847 135.094 35.6382 134.734 35.5451C134.332 35.3963 133.909 35.3101 133.481 35.2894C133.065 35.238 132.644 35.238 132.228 35.2894C131.875 35.3005 131.524 35.3433 131.179 35.4172L130.182 35.6985C130.017 35.7515 129.88 35.8667 129.798 36.0195C129.717 36.1723 129.699 36.3507 129.747 36.5168C129.786 36.6496 129.867 36.7663 129.977 36.8493C130.088 36.9323 130.223 36.9771 130.361 36.9771H131.358C131.655 36.9389 131.956 36.9389 132.253 36.9771C132.594 36.9517 132.936 36.9517 133.276 36.9771C133.609 36.9771 133.941 36.9771 134.248 37.1561C134.555 37.3351 134.81 37.3607 135.066 37.3863L135.603 37.5653H135.833C135.993 37.6347 136.173 37.6388 136.336 37.5766C136.498 37.5144 136.63 37.391 136.703 37.2329C136.748 37.1459 136.771 37.0494 136.771 36.9516C136.771 36.8537 136.748 36.7572 136.703 36.6703L136.652 36.6958Z" fill="#403D4F"/>
<path d="M149.079 37.6674H149.233L149.642 37.514H149.923H150.205C150.431 37.4393 150.661 37.3795 150.895 37.335C151.132 37.2972 151.374 37.2972 151.611 37.335C151.831 37.2968 152.056 37.2968 152.276 37.335H153.094C153.266 37.3284 153.429 37.2554 153.548 37.1314C153.667 37.0075 153.734 36.8421 153.733 36.6701C153.729 36.5432 153.687 36.4204 153.615 36.3162C153.542 36.212 153.442 36.1307 153.324 36.082L152.532 35.8007C152.242 35.7061 151.941 35.6544 151.637 35.6472C151.298 35.5964 150.953 35.5964 150.614 35.6472C149.942 35.7146 149.303 35.9718 148.773 36.3888C148.58 36.5168 148.415 36.682 148.287 36.8747C148.159 37.0281 148.159 37.0793 148.133 37.0793V37.335C148.119 37.4554 148.138 37.5774 148.188 37.6878C148.239 37.7981 148.318 37.8927 148.418 37.9611C148.518 38.0296 148.635 38.0694 148.756 38.0762C148.877 38.0831 148.998 38.0566 149.105 37.9999L149.079 37.6674Z" fill="#403D4F"/>
<path d="M143.837 52.627C144.266 52.637 144.693 52.5528 145.086 52.3805C145.479 52.2082 145.83 51.952 146.113 51.6297C146.224 51.5198 146.311 51.388 146.368 51.2427C146.425 51.0975 146.452 50.9418 146.446 50.7858C146.446 50.5045 145.985 46.9756 145.832 45.6714C145.832 45.5426 145.781 45.419 145.69 45.3279C145.598 45.2367 145.475 45.1855 145.346 45.1855C145.217 45.1855 145.094 45.2367 145.002 45.3279C144.911 45.419 144.86 45.5426 144.86 45.6714C144.86 45.876 145.397 50.5045 145.474 50.7858C145.261 51.0137 145.004 51.195 144.718 51.3183C144.432 51.4415 144.123 51.504 143.812 51.5018C143.683 51.5018 143.559 51.553 143.468 51.6441C143.377 51.7353 143.326 51.8588 143.326 51.9877C143.326 52.1166 143.377 52.2401 143.468 52.3313C143.559 52.4224 143.683 52.4736 143.812 52.4736L143.837 52.627Z" fill="#F18380"/>
<path d="M146.241 57.6646C147.213 57.9203 147.545 59.3524 146.983 61.0145C146.394 62.158 145.44 63.0714 144.272 63.609C143.104 64.1467 141.79 64.2776 140.539 63.9809C139.86 63.9452 139.195 63.7746 138.583 63.479C137.97 63.1833 137.423 62.7686 136.973 62.2591C136.523 61.7496 136.179 61.1555 135.962 60.5115C135.744 59.8675 135.657 59.1866 135.705 58.5085C135.705 57.4089 136.447 56.744 137.879 56.744C140.687 56.8176 143.484 57.1255 146.241 57.6646Z" fill="#73102A"/>
<path d="M135.654 58.5085C135.654 58.5085 135.654 58.355 135.654 58.2527C137.529 57.813 139.502 58.0949 141.179 59.0425C142.856 59.99 144.115 61.5338 144.706 63.3671C143.383 64.0155 141.894 64.2473 140.436 64.032C139.757 63.9901 139.093 63.8131 138.483 63.5113C137.873 63.2096 137.33 62.7892 136.884 62.2749C136.439 61.7605 136.101 61.1624 135.89 60.5157C135.678 59.8689 135.598 59.1865 135.654 58.5085Z" fill="#D65155"/>
<path d="M145.371 59.2248C142.141 59.2512 138.928 58.7502 135.859 57.7416C136.047 57.3953 136.336 57.1144 136.688 56.9363C137.04 56.7581 137.437 56.6912 137.828 56.7443C140.636 56.8178 143.433 57.1257 146.19 57.6649C146.457 57.7548 146.692 57.9217 146.865 58.1446C147.038 58.3675 147.141 58.6365 147.161 58.9179C146.588 59.1261 145.982 59.2301 145.371 59.2248Z" fill="white"/>
<path d="M132.816 27.413C132.816 27.413 128.289 43.063 117.472 47.1801C116.216 47.1957 114.975 46.9087 113.854 46.3435C112.732 45.7782 111.763 44.9512 111.028 43.9325C108.155 37.8897 107.346 31.0704 108.727 24.5233C110.542 16.5449 120.132 6.26492 137.623 8.66868C146.957 6.87864 158.081 8.51525 165.036 17.9513C171.992 27.3874 163.707 40.4547 158.106 42.6283C152.598 39.3118 147.318 35.6297 142.303 31.6068C143.07 34.0105 143.888 39.0994 143.07 39.0994C138.343 36.5824 134.697 32.427 132.816 27.413Z" fill="#E69D7E"/>
<path d="M118.802 49.0725C118.597 45.5948 117.651 41.4009 113.432 42.1425C108.317 42.8841 107.959 56.3094 118.546 54.6984L118.802 49.0725Z" fill="#FBBEAA"/>
<path d="M112.997 49.9678C113.085 49.964 113.171 49.9387 113.246 49.8941C113.322 49.8495 113.386 49.787 113.432 49.7121C113.538 49.4859 113.703 49.2927 113.91 49.1531C114.118 49.0135 114.359 48.9327 114.608 48.9193C114.9 48.9223 115.187 48.9988 115.442 49.1418C115.696 49.2849 115.911 49.4898 116.066 49.7376C116.123 49.8296 116.21 49.8998 116.312 49.9369C116.414 49.9739 116.525 49.9758 116.628 49.9422C116.727 49.8998 116.809 49.8276 116.864 49.7359C116.919 49.6441 116.944 49.5374 116.935 49.4308C116.902 48.3524 116.572 47.3042 115.981 46.4017C115.39 45.4992 114.561 44.7776 113.585 44.3164C113.524 44.2923 113.458 44.2809 113.392 44.283C113.326 44.285 113.262 44.3005 113.202 44.3284C113.142 44.3564 113.089 44.3962 113.045 44.4454C113.001 44.4947 112.967 44.5524 112.947 44.6149C112.926 44.6775 112.918 44.7437 112.923 44.8094C112.929 44.8751 112.948 44.939 112.979 44.9972C113.01 45.0554 113.052 45.1067 113.104 45.1479C113.155 45.1891 113.215 45.2194 113.278 45.237C113.849 45.5178 114.357 45.9121 114.77 46.3958C115.183 46.8794 115.494 47.4422 115.682 48.0499C115.326 47.898 114.944 47.8197 114.557 47.8197C114.144 47.8589 113.746 47.998 113.398 48.2253C113.051 48.4525 112.764 48.7609 112.562 49.1239C112.53 49.1793 112.51 49.2404 112.501 49.3039C112.493 49.3673 112.497 49.4318 112.514 49.4935C112.53 49.5553 112.559 49.6132 112.598 49.6638C112.637 49.7145 112.686 49.757 112.741 49.7888C112.805 49.875 112.894 49.9379 112.997 49.9678Z" fill="#F18380"/>
<defs>
<filter id="filter0_f_110_26" x="0" y="502" width="247" height="63" filterUnits="userSpaceOnUse" color-interpolation-filters="sRGB">
<feFlood flood-opacity="0" result="BackgroundImageFix"/>
<feBlend mode="normal" in="SourceGraphic" in2="BackgroundImageFix" result="shape"/>
<feGaussianBlur stdDeviation="8.5" result="effect1_foregroundBlur_110_26"/>
</filter>
</defs>
</svg>
