<svg width="227" height="521" viewBox="0 0 227 521" fill="none" xmlns="http://www.w3.org/2000/svg">
    <g clip-path="url(#clip0_21_287)">
        <path d="M100.393 64.5675H70.1262V99.5H100.393V64.5675Z" fill="#FBBEAA"/>
        <path d="M70.2011 64.5675H100.368V84.0567C99.0498 84.2173 97.7235 84.2997 96.3956 84.3034C85.9882 84.3034 74.349 81.5157 70.1006 71.7711L70.2011 64.5675Z" fill="#F18380"/>
        <path d="M116.03 38.64C115.778 48.7299 116.03 56.6983 114.169 64.3953C112.309 72.0923 106.628 78.3831 94.0584 78.3831C81.4891 78.3831 67.1601 74.3619 66.1546 58.9433C64.0932 56.7477 60.7498 48.9273 60.6241 40.1695C60.4984 31.4117 61.2023 12.8847 81.5394 10.0476C101.877 7.21062 116.583 14.5376 116.03 38.64Z" fill="#FBBEAA"/>
        <path d="M105.396 46.5831C105.396 47.9399 106.226 49.0501 107.256 49.0501C108.287 49.0501 109.117 47.9399 109.117 46.5831C109.117 45.2262 108.287 44.1161 107.256 44.1161C106.226 44.1161 105.396 45.1276 105.396 46.5831Z" fill="#403D4F"/>
        <path d="M82.7708 46.5831C82.7708 47.9399 83.6003 49.0501 84.631 49.0501C85.6617 49.0501 86.4913 47.9399 86.4913 46.5831C86.4913 45.2262 85.6617 44.1161 84.631 44.1161C83.6003 44.1161 82.7708 45.1276 82.7708 46.5831Z" fill="#403D4F"/>
        <path d="M87.3213 41.4519C87.1453 41.6739 85.8129 41.4519 84.8074 41.4519C83.8018 41.4519 81.8662 41.4519 81.8662 41.2299C81.8662 41.0078 82.8214 39.4783 85.3353 39.7497C87.1453 39.947 87.7989 41.0572 87.3213 41.4519Z" fill="#403D4F"/>
        <path d="M104.969 41.452C105.12 41.674 106.251 41.452 107.131 41.452C108.011 41.452 109.645 41.452 109.645 41.2299C109.419 40.6708 108.993 40.2118 108.447 39.9392C107.901 39.6666 107.272 39.5993 106.679 39.7498C105.12 39.9471 104.693 41.0573 104.969 41.452Z" fill="#403D4F"/>
        <path d="M97.5525 56.7968C99.3122 56.7968 100.72 55.662 100.77 54.8478L100.192 47.891C100.173 47.7186 100.086 47.5603 99.9499 47.4497C99.8138 47.3391 99.6392 47.285 99.463 47.2989C99.3771 47.3051 99.2933 47.328 99.2164 47.3661C99.1395 47.4042 99.071 47.4569 99.0149 47.5211C98.9588 47.5853 98.9163 47.6598 98.8896 47.7402C98.863 47.8206 98.8528 47.9054 98.8596 47.9896L99.4127 54.6998C99.1586 54.9702 98.8462 55.1814 98.4982 55.318C98.1503 55.4546 97.7756 55.5131 97.4016 55.4893C97.3137 55.4826 97.2254 55.4934 97.1419 55.521C97.0584 55.5487 96.9814 55.5927 96.9156 55.6503C96.8499 55.7079 96.7967 55.778 96.7592 55.8563C96.7218 55.9346 96.7009 56.0196 96.6978 56.106C96.6973 56.281 96.7645 56.4496 96.8858 56.5778C97.0071 56.706 97.1735 56.7843 97.3513 56.7968H97.5525Z" fill="#F18380"/>
        <path d="M70.307 52.3067C67.5501 51.9811 65.7793 49.8397 65.2792 47.3727C64.7792 44.9057 63.2112 46.1392 60.2515 46.1392C57.2918 46.1392 55.7788 40.4282 54.848 36.0838C53.6374 30.4333 55.44 23.8185 57.2158 21.4823C52.4803 17.3939 54.848 3.37654 56.0319 8.04898C56.979 11.7869 60.3728 13.5002 61.9513 13.8895C66.6868 -3.39857 85.2342 -0.322504 93.916 3.37654C101.019 0.573055 107.136 4.54466 109.306 6.8809C119.961 3.37655 124.697 8.04901 127.065 10.3852C129.432 12.7215 132.392 26.1548 122.329 31.9954C114.279 36.6679 102.4 32.7741 97.4676 30.2432C91.785 34.9157 84.0504 33.3582 80.8933 31.9954C80.4198 34.7989 74.9913 38.8094 72.8208 41.3403C70.6504 43.8712 71.5639 52.4551 70.307 52.3067Z" fill="#F3E8AE"/>
        <path d="M66.7079 51.2705C66.5822 48.4581 66.1297 44.3136 62.0572 44.2149C57.9848 44.1162 57.4569 47.1259 57.5825 51.8625C57.7082 56.5991 62.6103 60.6203 66.909 58.9921L66.7079 51.2705Z" fill="#FBBEAA"/>
        <path d="M60.7246 54.6751C60.9009 54.645 61.058 54.5477 61.1615 54.4045C61.2651 54.2612 61.3069 54.0837 61.2777 53.9104C61.2779 53.7711 61.3181 53.6348 61.3936 53.517C61.4692 53.3991 61.5772 53.3046 61.705 53.2443C61.9616 53.0757 62.2635 52.9856 62.5723 52.9856C62.8812 52.9856 63.183 53.0757 63.4396 53.2443C63.5512 53.3048 63.6766 53.3365 63.8041 53.3365C63.9316 53.3365 64.057 53.3048 64.1687 53.2443C64.2711 53.1779 64.3532 53.0854 64.4063 52.9768C64.4594 52.8682 64.4816 52.7475 64.4703 52.6275C64.1184 48.6557 61.5291 47.9156 61.4285 47.8909C61.3427 47.8649 61.2523 47.8566 61.1631 47.8664C61.0738 47.8762 60.9876 47.904 60.9097 47.948C60.8319 47.992 60.7641 48.0512 60.7106 48.1221C60.6572 48.1929 60.6191 48.2738 60.5989 48.3597C60.5525 48.5232 60.5741 48.6982 60.6589 48.8462C60.7437 48.9941 60.8849 49.1031 61.0515 49.1491C61.5537 49.3722 61.9913 49.7146 62.3249 50.1453C62.6584 50.576 62.8774 51.0815 62.962 51.6161C62.2731 51.5059 61.567 51.6463 60.976 52.0108C60.6317 52.2089 60.3534 52.5009 60.1749 52.8512C59.9964 53.2015 59.9254 53.5952 59.9705 53.9844C59.9662 54.0805 59.9833 54.1764 60.0204 54.2654C60.0575 54.3545 60.1138 54.4345 60.1855 54.5002C60.2571 54.5658 60.3425 54.6155 60.4355 54.6457C60.5286 54.6759 60.6272 54.6859 60.7246 54.6751Z" fill="#F18380"/>
        <path d="M95.8185 65.6776C93.3917 65.5857 91.0617 64.7195 89.1819 63.2106" stroke="#73102A" stroke-width="0.5" stroke-miterlimit="10" stroke-linecap="round"/>
    </g>
    <path d="M185.064 102.479C185.188 99.7504 184.458 97.0512 182.974 94.758C180.69 92.1095 178.979 91.4583 177.948 88.1161C177.155 85.0137 175.889 82.052 174.194 79.3355C172.983 77.6702 171.166 76.3078 171.166 75.0361C171.166 73.7644 173.588 71.3119 177.04 72.0083C178.518 72.4689 179.877 73.2506 181.018 74.2974C182.159 75.3443 183.055 76.6305 183.641 78.0639C183.971 77.1905 184.165 76.2714 184.216 75.3389L184.973 54.3371C184.984 53.8559 185.092 53.3819 185.29 52.9431C185.487 52.5043 185.771 52.1096 186.124 51.7822C186.477 51.4548 186.891 51.2014 187.344 51.037C187.796 50.8725 188.277 50.8004 188.757 50.8248C189.523 50.8575 190.259 51.1291 190.861 51.6016C191.167 51.8414 196.289 58.0523 201.287 64.2086C206.139 70.184 210.876 76.108 210.981 76.4702C210.01 85.2955 208.184 94.0057 205.531 102.479C205.499 103.894 205.172 105.286 204.569 106.566C203.967 107.847 203.103 108.987 202.034 109.914C200.965 110.841 199.713 111.533 198.36 111.948C197.007 112.362 195.582 112.488 194.177 112.319C192.906 112.362 191.64 112.13 190.466 111.64C189.292 111.151 188.237 110.414 187.373 109.481C186.508 108.547 185.855 107.439 185.456 106.231C185.058 105.023 184.924 103.743 185.064 102.479Z" fill="#FBBEAA"/>
    <path d="M189.943 45.6474L168.879 66.3104C168.655 65.9927 168.432 65.6582 168.209 65.3405C167.539 64.3705 166.861 63.3922 166.192 62.4222C165.943 62.0626 165.703 61.7114 165.454 61.3519C164.449 59.9053 164.645 57.9466 165.895 56.7171L180.41 42.4751C181.66 41.2456 183.623 41.0952 185.052 42.1234C185.401 42.3805 185.749 42.6208 186.098 42.8779C187.06 43.5661 188.021 44.2542 188.982 44.9424C189.297 45.1831 189.62 45.4153 189.943 45.6474Z" fill="#E2874A"/>
    <g opacity="0.53">
        <path d="M188.982 44.9577L168.201 65.3305C167.531 64.3605 166.853 63.3822 166.183 62.4122L186.09 42.8848C187.06 43.5813 188.021 44.2695 188.982 44.9577Z" fill="#D46424"/>
    </g>
    <path d="M193.652 48.4037C194.422 49.3218 195.2 50.2314 195.979 51.1579C197.074 52.4432 198.152 53.7286 199.239 55.0223C203.431 59.98 207.607 64.9379 211.799 69.8956C214.049 72.558 216.299 75.2205 218.549 77.883C219.987 79.5856 219.866 82.0999 218.282 83.6539L206.308 95.3943C204.725 96.9483 202.205 97.0212 200.526 95.5492C197.909 93.2453 195.284 90.95 192.667 88.6462C187.791 84.3545 182.916 80.0798 178.04 75.7882C176.77 74.6822 175.5 73.5593 174.239 72.4448C173.344 71.6546 172.432 70.8647 171.528 70.0662C170.361 69.0432 169.895 67.5227 170.156 66.1113C170.298 65.2832 170.71 64.4855 171.351 63.8453L187.408 48.0919C188.067 47.4514 188.863 47.0623 189.705 46.934C191.144 46.7225 192.651 47.2101 193.652 48.4037Z" fill="#F5F5F5"/>
    <path d="M199.24 55.0204C203.432 59.9781 207.608 64.936 211.8 69.8936L192.676 88.6526C187.801 84.3609 182.925 80.0862 178.042 75.8031L199.24 55.0204Z" fill="#E2874A"/>
    <g opacity="0.52">
        <path d="M189.596 78.4096C187.091 76.214 184.602 74.0182 182.104 71.831L178.063 75.8013C182.939 80.0929 187.814 84.3676 192.698 88.6507L211.821 69.8918C211.146 69.0989 210.487 68.3059 209.811 67.5131L198.953 78.1605C196.378 80.6795 192.298 80.7798 189.596 78.4096Z" fill="#E2874A"/>
    </g>
    <path d="M193.682 47.9632L171.117 70.0949C169.926 71.2647 168.003 71.2544 166.833 70.0459L166.722 69.9377C165.552 68.7461 165.571 66.8318 166.771 65.6535L189.336 43.5218C190.528 42.3521 192.442 42.3709 193.62 43.5708L193.731 43.679C194.893 44.8791 194.874 46.7935 193.682 47.9632Z" fill="#E2874A"/>
    <g opacity="0.53">
        <path d="M192.403 42.8352C192.821 43.9432 192.575 45.2364 191.675 46.1074L169.177 68.1708C168.327 69.0075 167.116 69.2416 166.058 68.8919C166.206 69.2864 166.429 69.6546 166.745 69.9628L166.788 70.0044C167.975 71.2127 169.931 71.2394 171.139 70.0526L193.638 47.9892C194.846 46.8024 194.873 44.8457 193.686 43.6375L193.643 43.5959C193.285 43.2461 192.86 42.9814 192.403 42.8352Z" fill="#D46424"/>
    </g>
    <path d="M194.193 71.7177C196.252 71.1445 198.05 70.6504 200.072 73.2229C198.842 74.7557 196.356 75.5786 193.695 75.1305C190.29 74.5564 187.84 72.1325 188.088 69.6419C189.124 70.9532 190.761 72.451 192.68 72.0903C193.184 71.9998 193.705 71.8586 194.193 71.7177Z" fill="#5B2500"/>
    <path d="M195.251 65.8527C198.757 66.4424 201.259 69.0006 200.827 71.5609C200.819 71.6369 200.795 71.7131 200.779 71.7807C198.292 69.0537 195.829 69.733 193.796 70.2975C193.308 70.4383 192.854 70.5619 192.4 70.6349C190.97 70.9053 189.507 69.2114 188.699 67.9732C189.868 66.2978 192.454 65.3893 195.251 65.8527Z" fill="#5B2500"/>
    <path d="M194.329 60.1984C192.61 57.4548 196.102 53.8367 198.317 52.423C198.317 52.423 199.651 50.8802 202.414 53.6439C205.466 56.6959 203.635 58.7847 203.635 58.7847C201.641 60.9052 196.988 64.4395 194.329 60.1984Z" fill="#FBBEAA"/>
    <path d="M199.213 65.5107C197.493 62.7671 200.985 59.1491 203.201 57.7354C203.201 57.7354 204.534 56.1926 207.297 58.9563C210.349 62.0082 208.518 64.097 208.518 64.097C206.524 66.2176 201.871 69.7519 199.213 65.5107Z" fill="#FBBEAA"/>
    <path d="M204.095 70.3938C202.376 67.6502 205.868 64.0321 208.083 62.6184C208.083 62.6184 209.417 61.0756 212.18 63.8393C215.232 66.8913 213.401 68.9801 213.401 68.9801C211.407 71.1007 206.754 74.6349 204.095 70.3938Z" fill="#FBBEAA"/>
    <path d="M210.12 74.7403C208.695 72.4408 211.589 69.4083 213.425 68.2234C213.425 68.2234 214.53 66.9303 216.821 69.2467C219.35 71.8047 217.833 73.5554 217.833 73.5554C216.18 75.3328 212.324 78.295 210.12 74.7403Z" fill="#FBBEAA"/>
    <path d="M39.9999 103.215C34.2716 110.581 6.67188 187.987 6.67188 187.987C37.3593 178.167 22.1073 174.403 38.7973 177.211C38.7973 177.211 64.8731 121.873 65.6079 117.831C66.3747 114.645 66.0306 111.293 64.6323 108.329C63.234 105.366 60.8655 102.969 57.9189 101.535C49.7051 97.3361 45.7282 95.8502 39.9999 103.215Z" fill="#002776"/>
    <path d="M119.289 100.562L179.36 141.077C179.107 143.149 183.976 100.562 183.976 100.562L206.21 102.637C206.21 102.637 204.911 145.996 201.639 168.895C200.34 177.983 192.776 181.429 183.807 179.472C179.379 178.506 175.21 176.689 171.5 174.085C155.559 162.896 110.836 131.38 107.18 127.415C100.872 120.575 100.871 115.451 104.497 109.819C108.122 104.188 115.881 99.7162 119.289 100.562Z" fill="#001A4B"/>
    <path d="M68.272 331.111C68.1919 337.603 70.6938 343.861 75.2275 348.508C79.7612 353.155 85.9553 355.811 92.447 355.891C98.9388 355.971 105.196 353.469 109.844 348.935C114.491 344.402 117.146 338.207 117.226 331.716C117.226 331.716 120.324 241.362 121.382 223.054C122.439 204.746 117.655 190.065 97.0554 187.95C75.7008 185.759 64.3184 202.455 64.3184 217.967C64.3184 233.479 68.272 331.111 68.272 331.111Z" fill="#7C7C7C"/>
    <path d="M28.1062 329.374C27.6865 332.583 27.9071 335.842 28.7554 338.965C29.6036 342.088 31.0626 345.012 33.048 347.567C35.0334 350.122 37.5057 352.258 40.322 353.852C43.1382 355.446 46.2426 356.465 49.4553 356.851C52.6681 357.237 55.9256 356.983 59.0393 356.102C62.153 355.221 65.0612 353.732 67.5955 351.72C70.1299 349.708 72.2403 347.213 73.8044 344.38C75.3685 341.548 76.3555 338.433 76.7081 335.216C76.7081 335.216 89.4503 245.718 92.4722 227.637C95.4941 209.556 92.2959 194.422 72.0494 190.116C51.0473 185.658 37.9273 201.045 36.3408 216.456C34.7543 231.868 28.1062 329.374 28.1062 329.374Z" fill="#7C7C7C"/>
    <path d="M108.463 437.582C108.463 437.582 107.254 488.929 106.952 496.61C106.65 504.29 101.79 506.38 93.9582 507.06C86.1265 507.74 82.8276 501.52 81.7196 496.584C80.6116 491.649 73.9131 441.309 73.9131 441.309L108.463 437.582Z" fill="#FBBEAA"/>
    <path d="M107.582 473.391L78.6977 476.489C76.4565 460.599 73.9131 441.233 73.9131 441.233L108.463 437.506C108.463 437.506 108.01 456.746 107.582 473.391Z" fill="#F18380"/>
    <path d="M68.272 331.111C68.3117 327.897 68.984 324.722 70.2508 321.767C71.5176 318.813 73.3539 316.137 75.6548 313.892C77.9558 311.647 80.6764 309.877 83.6613 308.684C86.6462 307.491 89.837 306.897 93.0514 306.936C96.2658 306.976 99.4408 307.649 102.395 308.915C105.35 310.182 108.026 312.018 110.271 314.319C112.516 316.62 114.285 319.341 115.479 322.326C116.672 325.311 117.266 328.501 117.226 331.716L112.19 474.833L72.6789 479.089L68.272 331.111Z" fill="#7C7C7C"/>
    <path d="M56.7633 439.547C56.7633 439.547 50.0648 490.465 48.9568 498.045C47.8488 505.625 42.7872 507.237 34.9051 507.06C27.023 506.884 24.4292 500.362 23.85 495.351C23.2708 490.339 22.0117 439.547 22.0117 439.547H56.7633Z" fill="#FBBEAA"/>
    <path d="M51.9283 475.054H22.8679C22.3642 459.038 21.8857 439.547 21.8857 439.547H56.7633C56.7633 439.547 54.245 458.534 51.9283 475.054Z" fill="#F18380"/>
    <path d="M28.1054 329.374C28.9417 322.981 32.2667 317.176 37.358 313.22C42.4493 309.264 48.8958 307.477 55.2972 308.247C61.6986 309.016 67.5379 312.28 71.5466 317.33C75.5554 322.38 77.41 328.807 76.7074 335.216L54.7992 479.87H15.0615L28.1054 329.374Z" fill="#7C7C7C"/>
    <path d="M76.6827 335.216L54.0942 478.611" stroke="#565656" stroke-width="0.75" stroke-miterlimit="10" stroke-linecap="round"/>
    <path d="M76.708 335.216C76.708 335.216 89.4502 245.718 92.4721 227.638" stroke="#565656" stroke-width="0.75" stroke-miterlimit="10" stroke-linecap="round"/>
    <path d="M37.5496 481.022C40.4058 480.817 43.2378 481.668 45.5079 483.413C47.7779 485.159 49.328 487.677 49.8637 490.49L63.0089 503.963V512.348H20.8789C20.8789 512.348 22.9942 497.239 23.5986 493.839C24.203 490.44 26.2427 481.022 37.5496 481.022Z" fill="#FBBEAA"/>
    <path d="M49.8382 490.389C50.3166 489.735 50.9965 489.231 51.475 489.533C51.9535 489.835 64.6706 499.908 65.275 500.412C65.6471 500.762 65.9287 501.196 66.0954 501.679C66.2622 502.161 66.309 502.677 66.2319 503.182V513.985H19.9468C19.9468 513.985 21.7599 498.02 21.8858 497.138C22.0117 496.257 22.8931 495.099 23.3967 495.124C26.5736 496.097 29.8706 496.623 33.1927 496.685C37.6078 496.919 42.012 496.054 46.0105 494.167C47.493 493.136 48.7877 491.858 49.8382 490.389Z" fill="black"/>
    <path d="M58.6271 504.919C56.3859 503.257 48.3275 496.962 45.3057 494.595L46.0108 494.242C46.1059 494.201 46.1916 494.141 46.2626 494.066C49.4859 496.584 57.0658 502.527 59.2315 504.139C61.0622 505.541 62.3163 507.566 62.757 509.83L61.7749 509.981C61.3595 507.974 60.2438 506.18 58.6271 504.919Z" fill="white"/>
    <path d="M21.2058 502.981C24.4677 503.014 27.6243 504.14 30.1707 506.179C32.4722 508.218 34.0312 510.964 34.6027 513.985H33.2429C32.6867 511.367 31.3107 508.994 29.3145 507.211C26.9709 505.334 24.0572 504.313 21.0547 504.315L21.2058 502.981Z" fill="white"/>
    <path d="M73.7113 513.96H19.947C19.5715 513.96 19.2671 514.265 19.2671 514.64V519.853C19.2671 520.228 19.5715 520.533 19.947 520.533H73.7113C74.0868 520.533 74.3912 520.228 74.3912 519.853V514.64C74.3912 514.265 74.0868 513.96 73.7113 513.96Z" fill="white"/>
    <path d="M65.149 500.311C65.6274 500.11 67.9694 500.79 71.0165 503.786C72.2851 505.098 73.1984 506.711 73.6699 508.473C74.1414 510.236 74.1555 512.09 73.711 513.859H58.4253C59.2815 504.189 64.6705 500.513 65.149 500.311Z" fill="white"/>
    <path d="M59.2819 500.463C59.0932 500.694 59.0032 500.99 59.0315 501.287C59.0598 501.584 59.2041 501.858 59.433 502.049C59.5454 502.142 59.675 502.211 59.8143 502.254C59.9536 502.297 60.1 502.311 60.245 502.297C60.39 502.283 60.5309 502.241 60.6594 502.172C60.788 502.104 60.9018 502.011 60.9943 501.898L63.5125 498.851C63.7013 498.62 63.7913 498.324 63.763 498.027C63.7347 497.73 63.5904 497.456 63.3615 497.264C63.2506 497.168 63.1213 497.096 62.9815 497.051C62.8418 497.007 62.6944 496.991 62.5484 497.005C62.4024 497.019 62.2608 497.063 62.1322 497.134C62.0036 497.204 61.8906 497.3 61.8002 497.416L59.2819 500.463Z" fill="white"/>
    <path d="M56.2853 498.17C56.0966 498.402 56.0066 498.698 56.0349 498.995C56.0632 499.292 56.2075 499.566 56.4364 499.757C56.5473 499.853 56.6766 499.925 56.8164 499.97C56.9561 500.015 57.1035 500.03 57.2495 500.016C57.3955 500.002 57.5371 499.958 57.6657 499.888C57.7944 499.817 57.9073 499.721 57.9978 499.606L60.516 496.559C60.6986 496.325 60.7847 496.031 60.7566 495.735C60.7285 495.44 60.5883 495.167 60.3649 494.972C60.254 494.876 60.1247 494.804 59.985 494.759C59.8452 494.715 59.6978 494.699 59.5518 494.713C59.4058 494.727 59.2642 494.771 59.1356 494.841C59.007 494.912 58.894 495.008 58.8036 495.123L56.2853 498.17Z" fill="white"/>
    <path d="M53.3893 495.905C53.1991 496.128 53.1055 496.418 53.1291 496.711C53.1527 497.004 53.2916 497.275 53.5152 497.466C53.7463 497.655 54.0425 497.745 54.3395 497.716C54.6365 497.688 54.9104 497.544 55.1017 497.315L57.6199 494.268C57.7257 494.164 57.8099 494.041 57.8673 493.905C57.9247 493.769 57.9543 493.622 57.9543 493.474C57.9543 493.327 57.9247 493.18 57.8673 493.044C57.8099 492.908 57.7257 492.784 57.6199 492.681C57.3864 492.499 57.0917 492.412 56.7966 492.441C56.5014 492.469 56.2283 492.609 56.0334 492.832L53.3893 495.905Z" fill="white"/>
    <path d="M50.4683 493.613C50.3755 493.725 50.3059 493.855 50.2633 493.994C50.2207 494.134 50.206 494.28 50.22 494.425C50.234 494.57 50.2765 494.711 50.345 494.839C50.4136 494.968 50.5068 495.082 50.6194 495.174C50.8312 495.382 51.116 495.498 51.4126 495.498C51.7092 495.498 51.994 495.382 52.2058 495.174L54.7241 492.102C54.9128 491.871 55.0028 491.575 54.9745 491.278C54.9462 490.981 54.802 490.707 54.573 490.516C54.4606 490.423 54.331 490.353 54.1917 490.311C54.0524 490.268 53.906 490.253 53.761 490.267C53.616 490.281 53.4752 490.324 53.3466 490.392C53.218 490.461 53.1042 490.554 53.0117 490.667L50.4683 493.613Z" fill="white"/>
    <path d="M96.7278 481.022C99.584 480.817 102.416 481.668 104.686 483.413C106.956 485.159 108.506 487.677 109.042 490.49L122.162 503.963V512.348H80.0571C80.0571 512.348 82.1472 497.239 82.7768 493.839C83.4063 490.44 85.421 481.022 96.7278 481.022Z" fill="#FBBEAA"/>
    <path d="M109.017 490.389C109.495 489.735 110.15 489.231 110.654 489.533C111.157 489.835 123.849 499.908 124.428 500.412C125.008 500.916 125.411 501.545 125.411 503.182V513.985H79.1255C79.1255 513.985 80.9386 498.02 81.0645 497.138C81.1904 496.257 82.0718 495.099 82.5755 495.124C85.7523 496.097 89.0494 496.623 92.3714 496.685C96.7787 496.923 101.176 496.058 105.164 494.167C106.658 493.141 107.962 491.863 109.017 490.389Z" fill="black"/>
    <path d="M117.805 504.919C115.564 503.257 107.506 496.962 104.484 494.595L105.164 494.242C105.267 494.202 105.361 494.142 105.441 494.066C108.664 496.584 116.244 502.527 118.41 504.139C120.24 505.541 121.494 507.566 121.935 509.83L120.953 509.981C120.525 507.979 119.412 506.188 117.805 504.919Z" fill="white"/>
    <path d="M80.384 502.981C83.6459 503.014 86.8025 504.14 89.3489 506.179C91.6505 508.218 93.2095 510.964 93.781 513.985H92.4211C91.8581 511.364 90.473 508.991 88.4675 507.211C86.1356 505.331 83.2286 504.308 80.2329 504.315L80.384 502.981Z" fill="white"/>
    <path d="M132.889 513.96H79.1252C78.7497 513.96 78.4453 514.265 78.4453 514.64V519.853C78.4453 520.228 78.7497 520.533 79.1252 520.533H132.889C133.265 520.533 133.569 520.228 133.569 519.853V514.64C133.569 514.265 133.265 513.96 132.889 513.96Z" fill="white"/>
    <path d="M124.328 500.311C124.806 500.11 127.148 500.79 130.195 503.786C131.464 505.098 132.377 506.711 132.849 508.473C133.32 510.236 133.334 512.09 132.89 513.859H117.604C118.46 504.189 123.849 500.513 124.328 500.311Z" fill="white"/>
    <path d="M118.359 500.463C118.17 500.694 118.08 500.99 118.109 501.287C118.137 501.584 118.281 501.858 118.51 502.049C118.623 502.142 118.752 502.211 118.891 502.254C119.031 502.297 119.177 502.311 119.322 502.297C119.467 502.283 119.608 502.241 119.737 502.172C119.865 502.104 119.979 502.011 120.072 501.898L122.59 498.851C122.772 498.617 122.858 498.323 122.83 498.028C122.802 497.732 122.662 497.459 122.439 497.264C122.328 497.168 122.198 497.096 122.059 497.051C121.919 497.007 121.772 496.991 121.626 497.005C121.48 497.019 121.338 497.063 121.209 497.134C121.081 497.204 120.968 497.3 120.877 497.416L118.359 500.463Z" fill="white"/>
    <path d="M115.464 498.171C115.275 498.402 115.185 498.698 115.213 498.995C115.241 499.292 115.386 499.566 115.615 499.757C115.726 499.853 115.855 499.926 115.995 499.97C116.134 500.015 116.282 500.03 116.428 500.016C116.574 500.002 116.715 499.959 116.844 499.888C116.973 499.818 117.086 499.722 117.176 499.606L119.694 496.559C119.877 496.326 119.963 496.031 119.935 495.736C119.907 495.441 119.767 495.167 119.543 494.973C119.312 494.784 119.016 494.694 118.719 494.722C118.422 494.75 118.148 494.895 117.957 495.124L115.464 498.171Z" fill="white"/>
    <path d="M112.567 495.904C112.462 496.005 112.379 496.127 112.321 496.261C112.264 496.395 112.235 496.539 112.235 496.685C112.235 496.831 112.264 496.975 112.321 497.109C112.379 497.243 112.462 497.365 112.567 497.466C112.798 497.654 113.095 497.744 113.392 497.716C113.689 497.688 113.963 497.543 114.154 497.314L116.672 494.267C116.861 494.036 116.951 493.74 116.923 493.443C116.894 493.146 116.75 492.872 116.521 492.681C116.409 492.588 116.279 492.519 116.14 492.476C116 492.433 115.854 492.419 115.709 492.433C115.564 492.447 115.423 492.489 115.295 492.558C115.166 492.626 115.052 492.719 114.96 492.832L112.567 495.904Z" fill="white"/>
    <path d="M109.647 493.613C109.554 493.725 109.485 493.855 109.442 493.994C109.399 494.134 109.385 494.28 109.399 494.425C109.413 494.57 109.455 494.711 109.524 494.839C109.592 494.968 109.686 495.082 109.798 495.174C110.01 495.382 110.295 495.498 110.591 495.498C110.888 495.498 111.173 495.382 111.385 495.174L113.903 492.102C114.092 491.871 114.182 491.575 114.153 491.278C114.125 490.981 113.981 490.707 113.752 490.516C113.639 490.423 113.51 490.353 113.37 490.311C113.231 490.268 113.085 490.253 112.94 490.267C112.795 490.281 112.654 490.324 112.525 490.392C112.397 490.461 112.283 490.554 112.19 490.667L109.647 493.613Z" fill="white"/>
    <path d="M120.641 203.469C120.641 203.469 120.641 229.583 120.641 231.018C120.641 232.454 108.05 244.768 91.3286 244.768C65.6174 244.768 34.8446 235.375 35.2979 229.256C35.6001 225.226 38.1328 203.469 38.1328 203.469H120.641Z" fill="#7C7C7C"/>
    <path d="M101.941 93.3216C87.8389 105.409 73.8207 98.3581 69.204 92.0625L49.0581 100.876L54.0946 194.051L120.828 196.569L118.309 107.172L101.941 93.3216Z" fill="white"/>
    <path d="M120.723 101.355C118.028 99.5919 100.577 89.519 100.577 89.519V222.331C102.512 224.215 102.907 224.171 105.685 223.856L105.815 223.842C111.821 222.334 117.616 220.084 123.065 217.143C123.065 217.143 125.382 120.544 125.961 113.19C126.54 105.837 123.418 103.117 120.723 101.355Z" fill="#002776"/>
    <path d="M73.6469 223.809C74.8711 223.55 76.0307 223.047 77.0569 222.331L70.2073 88.1592C70.2073 88.1592 50.4391 96.1923 45.176 98.5343C42.9883 99.4571 41.1124 100.99 39.7727 102.951C38.433 104.911 37.6862 107.216 37.6213 109.589C37.294 114.021 36.8407 212.258 36.7652 213.114C36.6896 213.97 37.4199 214.449 38.2005 214.902C38.9812 215.355 63.6599 222.557 69.9303 223.842C71.1588 224.08 72.4226 224.069 73.6469 223.809Z" fill="#002776"/>
    <g filter="url(#filter0_d_21_287)">
        <rect x="63.7075" y="134.752" width="45.5256" height="64.8739" rx="1" transform="rotate(-6.55484 63.7075 134.752)" fill="#EFEFEF"/>
    </g>
    <path d="M82.8815 161.041C86.1076 159.678 89.0247 157.658 91.4475 155.11C92.947 153.536 94.6478 152.17 96.5039 151.048C97.5926 150.368 98.5323 149.469 99.2637 148.41C100.23 146.767 101.03 145.032 101.651 143.232C101.881 141.681 102.408 140.187 103.203 138.833C103.96 138.14 106.629 138.51 108.014 141.203C108.492 142.403 108.708 143.694 108.649 144.99C108.589 146.287 108.256 147.559 107.67 148.722C106.981 150.116 106.441 151.579 106.059 153.086L106.311 153.236C108.422 152.116 110.677 151.303 113.01 150.823C113.855 150.634 114.736 150.736 115.511 151.113C116.285 151.49 116.908 152.12 117.278 152.901C117.649 153.683 117.745 154.57 117.553 155.42C117.36 156.271 116.89 157.034 116.217 157.588C119.856 158.006 119.443 163.619 116.319 164.361C116.988 164.642 117.552 165.124 117.936 165.742C118.321 166.359 118.505 167.083 118.466 167.815C118.427 168.547 118.165 169.252 117.717 169.834C117.269 170.417 116.655 170.848 115.959 171.071C118.178 173.117 116.556 176.489 112.527 176.504C109.253 176.837 100.498 178.207 97.4516 178.863C94.4055 179.519 88.2828 178.068 86.316 178.677C83.3884 179.75 79.988 179.767 77.3944 172.064C74.8007 164.36 79.8688 162.037 82.8815 161.041Z" fill="#FBBEAA"/>
    <path d="M88.6453 181.708L29.6738 205.45C22.1377 209.24 9.89378 207.296 6.20273 198.482C5.52688 196.838 5.19192 195.075 5.21815 193.298C5.24438 191.521 5.63123 189.768 6.35529 188.145C7.07935 186.522 8.12552 185.063 9.43032 183.857C10.7351 182.651 12.2714 181.722 13.9459 181.127L83.6412 155.92L88.6453 181.708Z" fill="#002776"/>
    <defs>
        <filter id="filter0_d_21_287" x="63.8149" y="129.663" width="54.4187" height="69.4316" filterUnits="userSpaceOnUse" color-interpolation-filters="sRGB">
            <feFlood flood-opacity="0" result="BackgroundImageFix"/>
            <feColorMatrix in="SourceAlpha" type="matrix" values="0 0 0 0 0 0 0 0 0 0 0 0 0 0 0 0 0 0 127 0" result="hardAlpha"/>
            <feOffset dx="2"/>
            <feComposite in2="hardAlpha" operator="out"/>
            <feColorMatrix type="matrix" values="0 0 0 0 0.603922 0 0 0 0 0.6 0 0 0 0 0.631373 0 0 0 1 0"/>
            <feBlend mode="normal" in2="BackgroundImageFix" result="effect1_dropShadow_21_287"/>
            <feBlend mode="normal" in="SourceGraphic" in2="effect1_dropShadow_21_287" result="shape"/>
        </filter>
        <clipPath id="clip0_21_287">
            <rect width="75" height="99" fill="white" transform="translate(54.3828 0.5)"/>
        </clipPath>
    </defs>
</svg>
