<svg width="262" height="556" viewBox="0 0 262 556" fill="none" xmlns="http://www.w3.org/2000/svg">
<g clip-path="url(#clip0_21_289)">
<path d="M151.006 65.0033H120.336V99.9358H151.006V65.0033Z" fill="#FBBEAA"/>
<path d="M120.412 65.0033H150.981V84.4925C149.645 84.6531 148.301 84.7355 146.956 84.7392C136.41 84.7392 124.615 81.9515 120.31 72.2069L120.412 65.0033Z" fill="#F18380"/>
<path d="M166.852 39.0758C166.597 49.1657 166.852 57.1341 164.967 64.8311C163.082 72.5281 157.325 78.8189 144.588 78.8189C131.851 78.8189 117.331 74.7977 116.312 59.3791C114.223 57.1834 110.835 49.3631 110.707 40.6053C110.58 31.8475 111.293 13.3205 131.902 10.4834C152.51 7.64641 167.412 14.9733 166.852 39.0758Z" fill="#FBBEAA"/>
<path d="M156.076 47.0189C156.076 48.3757 156.917 49.4858 157.961 49.4858C159.006 49.4858 159.847 48.3757 159.847 47.0189C159.847 45.662 159.006 44.5519 157.961 44.5519C156.917 44.5519 156.076 45.5633 156.076 47.0189Z" fill="#403D4F"/>
<path d="M133.149 47.0189C133.149 48.3757 133.99 49.4858 135.034 49.4858C136.079 49.4858 136.919 48.3757 136.919 47.0189C136.919 45.662 136.079 44.5519 135.034 44.5519C133.99 44.5519 133.149 45.5633 133.149 47.0189Z" fill="#403D4F"/>
<path d="M137.76 41.8877C137.582 42.1097 136.232 41.8877 135.213 41.8877C134.194 41.8877 132.233 41.8877 132.233 41.6657C132.233 41.4436 133.201 39.9141 135.748 40.1855C137.582 40.3828 138.244 41.493 137.76 41.8877Z" fill="#403D4F"/>
<path d="M155.644 41.8878C155.796 42.1098 156.943 41.8878 157.834 41.8878C158.726 41.8878 160.382 41.8878 160.382 41.6657C160.153 41.1066 159.721 40.6476 159.168 40.375C158.614 40.1024 157.977 40.0351 157.376 40.1856C155.796 40.3829 155.363 41.4931 155.644 41.8878Z" fill="#403D4F"/>
<path d="M148.128 57.2326C149.911 57.2326 151.338 56.0977 151.389 55.2836L150.803 48.3267C150.783 48.1543 150.695 47.996 150.558 47.8855C150.42 47.7749 150.243 47.7208 150.064 47.7347C149.977 47.7409 149.892 47.7638 149.814 47.8019C149.736 47.84 149.667 47.8927 149.61 47.9569C149.553 48.0211 149.51 48.0956 149.483 48.176C149.456 48.2564 149.446 48.3411 149.453 48.4254L150.013 55.1356C149.756 55.406 149.439 55.6172 149.086 55.7538C148.734 55.8904 148.354 55.9489 147.975 55.9251C147.886 55.9184 147.797 55.9292 147.712 55.9568C147.627 55.9845 147.549 56.0285 147.483 56.0861C147.416 56.1437 147.362 56.2138 147.324 56.2921C147.286 56.3704 147.265 56.4554 147.262 56.5418C147.262 56.7168 147.33 56.8854 147.453 57.0136C147.575 57.1418 147.744 57.2201 147.924 57.2326H148.128Z" fill="#F18380"/>
<path d="M120.519 52.7424C117.726 52.4169 115.931 50.2755 115.425 47.8085C114.918 45.3415 113.329 46.575 110.33 46.575C107.331 46.575 105.797 40.864 104.854 36.5195C103.627 30.8691 105.454 24.2543 107.254 21.9181C102.455 17.8297 104.854 3.81233 106.054 8.48477C107.014 12.2227 110.453 13.936 112.052 14.3253C116.851 -2.96277 135.646 0.113288 144.443 3.81233C151.641 1.00885 157.839 4.98045 160.039 7.31669C170.836 3.81234 175.634 8.48481 178.034 10.821C180.433 13.1573 183.432 26.5906 173.235 32.4312C165.077 37.1036 153.041 33.2099 148.042 30.679C142.284 35.3515 134.446 33.794 131.247 32.4312C130.767 35.2347 125.266 39.2451 123.067 41.7761C120.867 44.307 121.793 52.8909 120.519 52.7424Z" fill="#F3E8AE"/>
<path d="M116.872 51.7062C116.745 48.8939 116.286 44.7493 112.159 44.6507C108.033 44.552 107.498 47.5617 107.625 52.2983C107.752 57.0349 112.72 61.0561 117.076 59.4279L116.872 51.7062Z" fill="#FBBEAA"/>
<path d="M110.809 55.1109C110.988 55.0808 111.147 54.9835 111.252 54.8402C111.357 54.697 111.399 54.5194 111.37 54.3462C111.37 54.2069 111.41 54.0706 111.487 53.9528C111.564 53.8349 111.673 53.7404 111.803 53.6801C112.063 53.5114 112.368 53.4214 112.681 53.4214C112.994 53.4214 113.3 53.5114 113.56 53.6801C113.673 53.7406 113.8 53.7723 113.93 53.7723C114.059 53.7723 114.186 53.7406 114.299 53.6801C114.403 53.6137 114.486 53.5212 114.54 53.4126C114.594 53.304 114.616 53.1833 114.605 53.0633C114.248 49.0915 111.624 48.3514 111.522 48.3267C111.435 48.3007 111.344 48.2924 111.253 48.3022C111.163 48.312 111.076 48.3398 110.997 48.3838C110.918 48.4278 110.849 48.487 110.795 48.5578C110.741 48.6287 110.702 48.7096 110.682 48.7955C110.635 48.959 110.657 49.134 110.743 49.2819C110.828 49.4299 110.972 49.5389 111.14 49.5849C111.649 49.808 112.093 50.1504 112.431 50.5811C112.769 51.0118 112.991 51.5173 113.076 52.0519C112.378 51.9417 111.663 52.0821 111.064 52.4466C110.715 52.6447 110.433 52.9367 110.252 53.287C110.071 53.6373 109.999 54.031 110.045 54.4202C110.041 54.5163 110.058 54.6122 110.095 54.7012C110.133 54.7902 110.19 54.8703 110.263 54.936C110.335 55.0016 110.422 55.0513 110.516 55.0815C110.61 55.1117 110.71 55.1217 110.809 55.1109Z" fill="#F18380"/>
<path d="M146.371 66.1133C143.912 66.0215 141.551 65.1553 139.646 63.6464" stroke="#73102A" stroke-width="0.5" stroke-miterlimit="10" stroke-linecap="round"/>
</g>
<g opacity="0.3" filter="url(#filter0_f_21_289)">
<ellipse cx="106.5" cy="14.5" rx="106.5" ry="14.5" transform="matrix(1 0 0 -1 17.3828 538.436)" fill="#CBCBCB"/>
</g>
<path d="M89.3617 103.958C83.7008 111.237 50.9482 200.194 50.9482 200.194C81.2747 190.49 78.429 164.263 94.9227 167.037C94.9227 167.037 113.942 122.396 114.668 118.402C115.426 115.254 115.086 111.941 113.704 109.012C112.322 106.084 109.982 103.715 107.07 102.298C98.9527 98.1483 95.0226 96.6799 89.3617 103.958Z" fill="#002366"/>
<path d="M234.131 97.6884C234.256 94.959 233.525 92.2588 232.041 89.9648C229.756 87.3153 228.044 84.2215 227.013 80.8781C226.22 77.7745 224.953 74.8117 223.257 72.0942C222.045 70.4283 220.228 69.0653 220.228 67.7932C220.228 66.5211 222.651 64.0677 226.104 64.7643C227.583 65.225 228.942 66.007 230.084 67.0543C231.225 68.1015 232.121 69.3882 232.707 70.8221C233.038 69.9484 233.232 69.029 233.283 68.0961L234.04 49.5289C234.051 49.0476 234.159 48.5734 234.357 48.1345C234.555 47.6955 234.839 47.3006 235.191 46.9731C235.544 46.6456 235.959 46.3921 236.412 46.2276C236.864 46.0631 237.345 45.991 237.826 46.0154C238.591 46.0481 239.328 46.3198 239.931 46.7925C240.534 47.2652 240.973 47.915 241.188 48.6505V47.8024C241.305 46.8998 241.758 46.0748 242.458 45.4928C243.158 44.9108 244.052 44.615 244.96 44.6648C245.869 44.7147 246.725 45.1065 247.357 45.7615C247.989 46.4165 248.349 47.2863 248.367 48.1962V50.7708C248.67 49.9771 249.248 49.3187 249.997 48.9158C250.745 48.5129 251.613 48.3923 252.442 48.5758C253.272 48.7594 254.008 49.2349 254.517 49.9158C255.025 50.5967 255.272 51.4376 255.212 52.2852V53.9208C255.538 53.3479 256.024 52.8824 256.61 52.5811C257.196 52.2799 257.858 52.156 258.513 52.2246C259.411 52.3386 260.229 52.7975 260.795 53.5042C261.36 54.2109 261.628 55.1098 261.542 56.0107L260.058 71.6702C259.086 80.4988 257.26 89.2123 254.606 97.6884C254.574 99.1037 254.246 100.497 253.644 101.777C253.041 103.058 252.177 104.199 251.107 105.126C250.038 106.053 248.786 106.746 247.432 107.161C246.078 107.575 244.653 107.702 243.248 107.532C241.976 107.575 240.71 107.343 239.535 106.853C238.361 106.363 237.305 105.627 236.441 104.693C235.576 103.759 234.922 102.651 234.524 101.442C234.125 100.233 233.991 98.9533 234.131 97.6884Z" fill="#FBBEAA"/>
<path d="M234.736 73.4576C233.585 73.4576 233.495 72.7307 232.98 71.398C235.554 71.398 243.036 71.8826 246.307 78.1827C243.005 73.6393 236.675 73.4576 234.736 73.4576ZM240.613 49.499C240.613 49.499 240.431 50.5592 240.249 52.1039C240.249 52.8914 240.067 53.8303 240.007 54.7996C239.946 55.7688 239.855 56.8289 239.764 57.8285C239.764 59.9487 239.613 62.0387 239.613 63.6137C239.613 65.1887 239.613 66.2488 239.613 66.2488C239.613 66.2992 239.623 66.3491 239.643 66.3953C239.663 66.4415 239.693 66.483 239.73 66.5172C239.767 66.5513 239.811 66.5775 239.858 66.5939C239.906 66.6103 239.957 66.6165 240.007 66.6123C240.092 66.608 240.174 66.5761 240.239 66.5215C240.305 66.4669 240.351 66.3925 240.37 66.3095C240.37 66.3095 240.552 65.2493 240.703 63.6742C240.855 62.0992 241.097 60.0093 241.188 57.9193C241.188 56.8592 241.188 55.7991 241.188 54.8904C241.188 53.9818 241.188 52.9823 241.188 52.1948C241.188 50.5894 241.188 49.5595 241.188 49.5595C241.188 49.5091 241.178 49.4593 241.158 49.4131C241.138 49.3669 241.108 49.3254 241.071 49.2912C241.034 49.257 240.99 49.2309 240.943 49.2146C240.895 49.1982 240.844 49.1919 240.794 49.1961C240.736 49.2295 240.689 49.2783 240.656 49.3371C240.624 49.3959 240.609 49.4624 240.613 49.5293V49.499ZM247.64 51.6193C247.64 51.6193 247.458 52.5279 247.246 53.8606C247.246 54.5573 247.034 55.3447 246.943 56.1928C246.852 57.0409 246.761 57.9496 246.67 58.8583C246.67 60.6756 246.458 62.493 246.428 63.856C246.398 65.219 246.428 66.158 246.428 66.158C246.432 66.2057 246.445 66.2523 246.467 66.2949C246.489 66.3376 246.519 66.3755 246.556 66.4065C246.592 66.4375 246.635 66.4609 246.68 66.4755C246.726 66.49 246.774 66.4953 246.822 66.4912C246.903 66.4855 246.98 66.4525 247.041 66.3975C247.101 66.3426 247.142 66.2689 247.155 66.1883C247.155 66.1883 247.337 65.2795 247.549 63.9468C247.761 62.6141 247.942 60.7665 248.094 58.9795C248.094 58.0708 248.094 57.1621 248.276 56.314C248.457 55.4659 248.276 54.6481 248.276 53.9515C248.276 52.5885 248.276 51.6798 248.276 51.6798C248.276 51.6294 248.266 51.5796 248.245 51.5334C248.225 51.4872 248.196 51.4456 248.159 51.4115C248.122 51.3773 248.078 51.3512 248.03 51.3348C247.983 51.3185 247.932 51.3122 247.882 51.3164C247.815 51.3441 247.757 51.3899 247.714 51.4487C247.671 51.5075 247.645 51.577 247.64 51.6495V51.6193ZM254.424 54.4967C254.424 54.4967 254.243 55.2539 254 56.4049C254 56.9501 253.758 57.6165 253.667 58.3434C253.576 59.0704 253.455 59.8276 253.334 60.5848C253.122 62.1295 253.031 63.6137 252.97 64.8252C252.91 66.0368 252.97 66.7638 252.97 66.7638C252.97 66.8142 252.981 66.864 253.001 66.9102C253.021 66.9564 253.05 66.9979 253.087 67.0321C253.124 67.0663 253.168 67.0924 253.216 67.1087C253.263 67.1251 253.314 67.1314 253.364 67.1272C253.442 67.1232 253.516 67.0945 253.575 67.0455C253.635 66.9965 253.678 66.9296 253.697 66.8546C253.697 66.8546 253.909 66.0974 254.121 64.9767C254.333 63.856 254.636 62.281 254.818 60.7665C254.818 59.979 254.97 59.2218 255.03 58.4948C255.091 57.7679 255.03 57.1016 255.03 56.5261C255.03 55.3751 255.03 54.5875 255.03 54.5875C255.03 54.5371 255.02 54.4873 255 54.4411C254.98 54.3949 254.95 54.3534 254.913 54.3192C254.876 54.285 254.832 54.2589 254.785 54.2426C254.737 54.2262 254.687 54.2199 254.636 54.2241C254.58 54.2553 254.532 54.2987 254.496 54.3512C254.459 54.4036 254.434 54.4638 254.424 54.527V54.4967Z" fill="#F18380"/>
<path d="M160.851 95.3953L226.864 139.918C226.586 142.195 231.936 95.3953 231.936 95.3953L256.37 97.676C256.37 97.676 254.942 145.324 251.347 170.488C249.92 180.474 241.607 184.262 231.751 182.111C226.885 181.049 222.304 179.052 218.227 176.191C200.709 163.895 151.562 129.261 147.544 124.904C140.611 117.388 140.611 111.757 144.596 105.568C148.58 99.3795 157.106 94.4657 160.851 95.3953Z" fill="#001A4B"/>
<path d="M77.8991 331.428C77.4765 334.659 77.6987 337.942 78.5529 341.087C79.4072 344.232 80.8765 347.176 82.8758 349.749C84.8752 352.323 87.365 354.474 90.2011 356.079C93.0372 357.684 96.1635 358.71 99.3989 359.099C102.634 359.488 105.915 359.232 109.05 358.345C112.186 357.458 115.115 355.958 117.667 353.931C120.219 351.905 122.345 349.393 123.92 346.541C125.495 343.688 126.489 340.551 126.844 337.312C126.844 337.312 139.676 247.182 142.719 228.974C145.762 210.766 142.542 195.524 122.152 191.188C101.002 186.699 87.7895 202.194 86.1919 217.714C84.5942 233.234 77.8991 331.428 77.8991 331.428Z" fill="#93929C"/>
<path d="M118.348 333.178C118.268 339.716 120.787 346.017 125.353 350.697C129.918 355.377 136.156 358.051 142.694 358.132C149.231 358.213 155.533 355.693 160.213 351.128C164.893 346.562 167.567 340.324 167.648 333.787C167.648 333.787 170.767 242.795 171.832 224.358C172.897 205.922 168.079 191.137 147.335 189.007C125.829 186.8 114.367 203.614 114.367 219.236C114.367 234.857 118.348 333.178 118.348 333.178Z" fill="#93929C"/>
<path d="M158.823 440.4C158.823 440.4 157.605 492.109 157.301 499.844C156.997 507.578 152.102 509.683 144.215 510.368C136.328 511.053 133.006 504.789 131.89 499.818C130.775 494.848 124.029 444.153 124.029 444.153L158.823 440.4Z" fill="#FBBEAA"/>
<path d="M157.935 476.462L128.847 479.581C126.59 463.579 124.029 444.077 124.029 444.077L158.823 440.324C158.823 440.324 158.366 459.699 157.935 476.462Z" fill="#F18380"/>
<path d="M118.348 333.178C118.388 329.941 119.065 326.744 120.341 323.768C121.617 320.793 123.466 318.098 125.783 315.837C128.1 313.577 130.84 311.795 133.846 310.593C136.852 309.391 140.065 308.793 143.302 308.833C146.539 308.873 149.737 309.55 152.712 310.826C155.688 312.101 158.383 313.951 160.643 316.268C162.904 318.585 164.686 321.325 165.888 324.331C167.09 327.337 167.688 330.55 167.648 333.787L162.576 477.914L122.786 482.2L118.348 333.178Z" fill="#93929C"/>
<path d="M106.759 442.378C106.759 442.378 100.013 493.656 98.8973 501.289C97.7815 508.923 92.6842 510.546 84.7465 510.368C76.8089 510.191 74.1968 503.622 73.6135 498.576C73.0302 493.529 71.7622 442.378 71.7622 442.378H106.759Z" fill="#FBBEAA"/>
<path d="M101.889 478.136H72.6238C72.1166 462.007 71.6348 442.378 71.6348 442.378H106.758C106.758 442.378 104.222 461.499 101.889 478.136Z" fill="#F18380"/>
<path d="M77.8986 331.428C78.7408 324.99 82.0892 319.144 87.2164 315.161C92.3437 311.177 98.8356 309.377 105.282 310.152C111.729 310.927 117.609 314.214 121.646 319.299C125.683 324.385 127.551 330.857 126.843 337.312L104.781 482.986H64.7627L77.8986 331.428Z" fill="#93929C"/>
<path d="M126.818 337.312L104.07 481.718" stroke="#676767" stroke-width="0.75" stroke-miterlimit="10" stroke-linecap="round"/>
<path d="M126.844 337.312C126.844 337.312 139.676 247.183 142.719 228.974" stroke="#676767" stroke-width="0.75" stroke-miterlimit="10" stroke-linecap="round"/>
<path d="M87.4089 484.146C90.2852 483.939 93.1372 484.797 95.4233 486.554C97.7094 488.312 99.2704 490.848 99.8099 493.681L113.048 507.249V515.694H70.6206C70.6206 515.694 72.7508 500.478 73.3595 497.054C73.9681 493.63 76.0223 484.146 87.4089 484.146Z" fill="#FBBEAA"/>
<path d="M99.7844 493.579C100.266 492.92 100.951 492.413 101.433 492.717C101.915 493.022 114.721 503.166 115.33 503.673C115.705 504.025 115.988 504.463 116.156 504.949C116.324 505.435 116.371 505.954 116.294 506.462V517.342H69.6821C69.6821 517.342 71.508 501.264 71.6348 500.376C71.7616 499.488 72.6492 498.322 73.1564 498.347C76.3557 499.327 79.676 499.857 83.0215 499.919C87.4677 500.155 91.903 499.284 95.9297 497.383C97.4226 496.345 98.7265 495.059 99.7844 493.579Z" fill="#2E70AC"/>
<path d="M108.635 508.212C106.378 506.538 98.2629 500.198 95.2197 497.815L95.9298 497.46C96.0256 497.418 96.1119 497.358 96.1834 497.282C99.4295 499.818 107.063 505.803 109.244 507.426C111.087 508.839 112.35 510.877 112.794 513.157L111.805 513.309C111.387 511.288 110.263 509.481 108.635 508.212Z" fill="#1E2173"/>
<path d="M70.9505 506.26C74.2354 506.293 77.4143 507.427 79.9786 509.48C82.2964 511.534 83.8664 514.299 84.442 517.342H83.0725C82.5124 514.705 81.1267 512.316 79.1164 510.52C76.7563 508.63 73.8221 507.601 70.7983 507.604L70.9505 506.26Z" fill="#1E2173"/>
<path d="M123.826 517.317H69.6823C69.3041 517.317 68.9976 517.623 68.9976 518.002V523.251C68.9976 523.629 69.3041 523.936 69.6823 523.936H123.826C124.204 523.936 124.51 523.629 124.51 523.251V518.002C124.51 517.623 124.204 517.317 123.826 517.317Z" fill="white"/>
<path d="M115.203 503.571C115.685 503.368 118.044 504.053 121.112 507.071C122.39 508.392 123.309 510.016 123.784 511.791C124.259 513.566 124.273 515.433 123.826 517.215H108.432C109.294 507.477 114.721 503.774 115.203 503.571Z" fill="white"/>
<path d="M109.294 503.724C109.104 503.957 109.014 504.255 109.042 504.554C109.071 504.853 109.216 505.129 109.447 505.322C109.56 505.415 109.69 505.485 109.831 505.528C109.971 505.571 110.118 505.586 110.264 505.572C110.41 505.558 110.552 505.515 110.682 505.446C110.811 505.377 110.926 505.283 111.019 505.169L113.555 502.101C113.745 501.868 113.836 501.57 113.807 501.271C113.779 500.972 113.633 500.696 113.403 500.503C113.291 500.407 113.161 500.334 113.02 500.289C112.879 500.244 112.731 500.228 112.584 500.242C112.437 500.256 112.294 500.3 112.165 500.371C112.035 500.442 111.922 500.539 111.83 500.655L109.294 503.724Z" fill="white"/>
<path d="M106.277 501.416C106.087 501.649 105.996 501.947 106.025 502.246C106.053 502.545 106.198 502.821 106.429 503.014C106.541 503.11 106.671 503.183 106.812 503.228C106.952 503.273 107.101 503.289 107.248 503.275C107.395 503.26 107.537 503.216 107.667 503.145C107.797 503.074 107.91 502.978 108.001 502.861L110.537 499.793C110.721 499.558 110.808 499.261 110.78 498.964C110.751 498.666 110.61 498.391 110.385 498.195C110.274 498.099 110.143 498.026 110.003 497.981C109.862 497.936 109.713 497.92 109.566 497.934C109.419 497.949 109.277 497.992 109.147 498.063C109.018 498.134 108.904 498.231 108.813 498.347L106.277 501.416Z" fill="white"/>
<path d="M103.36 499.134C103.169 499.359 103.075 499.651 103.098 499.946C103.122 500.241 103.262 500.514 103.487 500.706C103.72 500.896 104.018 500.987 104.317 500.958C104.616 500.93 104.892 500.785 105.085 500.554L107.621 497.485C107.727 497.381 107.812 497.257 107.87 497.12C107.928 496.983 107.958 496.835 107.958 496.687C107.958 496.538 107.928 496.39 107.87 496.253C107.812 496.116 107.727 495.992 107.621 495.888C107.386 495.704 107.089 495.617 106.792 495.645C106.494 495.674 106.219 495.815 106.023 496.04L103.36 499.134Z" fill="white"/>
<path d="M100.418 496.826C100.325 496.939 100.255 497.07 100.212 497.21C100.169 497.35 100.154 497.498 100.168 497.644C100.182 497.79 100.225 497.932 100.294 498.061C100.363 498.19 100.457 498.305 100.57 498.398C100.784 498.607 101.071 498.724 101.369 498.724C101.668 498.724 101.955 498.607 102.168 498.398L104.704 495.304C104.894 495.072 104.985 494.773 104.956 494.474C104.928 494.175 104.783 493.899 104.552 493.707C104.439 493.613 104.308 493.543 104.168 493.5C104.028 493.457 103.88 493.442 103.734 493.457C103.588 493.471 103.446 493.514 103.317 493.583C103.187 493.652 103.073 493.745 102.98 493.859L100.418 496.826Z" fill="white"/>
<path d="M147.005 484.146C149.881 483.939 152.733 484.797 155.02 486.554C157.306 488.312 158.867 490.848 159.406 493.681L172.619 507.249V515.694H130.217C130.217 515.694 132.322 500.478 132.956 497.054C133.59 493.63 135.618 484.146 147.005 484.146Z" fill="#FBBEAA"/>
<path d="M159.381 493.579C159.862 492.92 160.522 492.413 161.029 492.717C161.536 493.022 174.318 503.166 174.901 503.673C175.484 504.18 175.89 504.814 175.89 506.462V517.342H129.278C129.278 517.342 131.104 501.264 131.231 500.376C131.358 499.488 132.245 498.322 132.753 498.347C135.952 499.327 139.272 499.857 142.618 499.919C147.056 500.16 151.484 499.288 155.501 497.383C157.005 496.351 158.318 495.063 159.381 493.579Z" fill="#2E70AC"/>
<path d="M168.231 508.212C165.974 506.538 157.859 500.198 154.816 497.815L155.501 497.46C155.604 497.419 155.699 497.359 155.78 497.282C159.026 499.818 166.659 505.803 168.84 507.426C170.684 508.839 171.947 510.877 172.39 513.157L171.401 513.309C170.971 511.293 169.849 509.49 168.231 508.212Z" fill="#1E2173"/>
<path d="M130.547 506.26C133.832 506.293 137.01 507.427 139.575 509.48C141.893 511.534 143.463 514.299 144.038 517.342H142.669C142.102 514.702 140.707 512.312 138.687 510.52C136.339 508.626 133.411 507.597 130.395 507.604L130.547 506.26Z" fill="#1E2173"/>
<path d="M183.421 517.317H129.278C128.9 517.317 128.593 517.623 128.593 518.002V523.251C128.593 523.629 128.9 523.936 129.278 523.936H183.421C183.8 523.936 184.106 523.629 184.106 523.251V518.002C184.106 517.623 183.8 517.317 183.421 517.317Z" fill="white"/>
<path d="M174.799 503.571C175.281 503.368 177.64 504.053 180.708 507.071C181.986 508.392 182.906 510.016 183.38 511.791C183.855 513.566 183.869 515.433 183.422 517.215H168.028C168.891 507.477 174.318 503.774 174.799 503.571Z" fill="white"/>
<path d="M168.789 503.724C168.599 503.957 168.508 504.255 168.537 504.554C168.565 504.853 168.711 505.129 168.941 505.322C169.054 505.415 169.185 505.485 169.325 505.528C169.466 505.571 169.613 505.586 169.759 505.572C169.905 505.558 170.047 505.515 170.176 505.446C170.306 505.377 170.42 505.283 170.514 505.169L173.05 502.101C173.234 501.866 173.32 501.569 173.292 501.272C173.264 500.975 173.122 500.699 172.897 500.503C172.786 500.407 172.656 500.334 172.515 500.289C172.374 500.244 172.226 500.228 172.079 500.242C171.932 500.256 171.789 500.3 171.66 500.371C171.53 500.442 171.416 500.539 171.325 500.655L168.789 503.724Z" fill="white"/>
<path d="M165.873 501.416C165.683 501.648 165.592 501.947 165.62 502.246C165.649 502.545 165.794 502.821 166.025 503.013C166.136 503.11 166.267 503.183 166.407 503.228C166.548 503.273 166.697 503.289 166.844 503.274C166.991 503.26 167.133 503.216 167.263 503.145C167.392 503.074 167.506 502.978 167.597 502.861L170.133 499.793C170.317 499.557 170.404 499.261 170.375 498.963C170.347 498.666 170.206 498.391 169.981 498.195C169.748 498.005 169.45 497.914 169.151 497.943C168.852 497.971 168.576 498.117 168.383 498.347L165.873 501.416Z" fill="white"/>
<path d="M162.956 499.134C162.851 499.235 162.766 499.357 162.709 499.492C162.651 499.628 162.622 499.773 162.622 499.92C162.622 500.066 162.651 500.212 162.709 500.347C162.766 500.482 162.851 500.604 162.956 500.706C163.189 500.896 163.487 500.987 163.786 500.958C164.086 500.93 164.361 500.784 164.554 500.554L167.09 497.485C167.28 497.252 167.371 496.954 167.342 496.655C167.314 496.356 167.168 496.08 166.938 495.887C166.825 495.794 166.694 495.724 166.554 495.681C166.414 495.638 166.266 495.623 166.12 495.637C165.974 495.652 165.832 495.694 165.703 495.763C165.573 495.832 165.459 495.926 165.366 496.04L162.956 499.134Z" fill="white"/>
<path d="M160.015 496.826C159.922 496.939 159.851 497.07 159.809 497.21C159.766 497.35 159.751 497.498 159.765 497.644C159.779 497.79 159.822 497.932 159.891 498.061C159.96 498.19 160.054 498.305 160.167 498.398C160.38 498.607 160.667 498.724 160.966 498.724C161.265 498.724 161.552 498.607 161.765 498.398L164.301 495.304C164.491 495.072 164.582 494.773 164.553 494.474C164.525 494.175 164.379 493.899 164.149 493.707C164.036 493.613 163.905 493.543 163.765 493.5C163.624 493.457 163.477 493.442 163.331 493.457C163.185 493.471 163.043 493.514 162.914 493.583C162.784 493.652 162.67 493.745 162.576 493.859L160.015 496.826Z" fill="white"/>
<path d="M171.086 204.635C171.086 204.635 171.086 230.934 171.086 232.379C171.086 233.825 158.625 246.226 142.076 246.226C116.63 246.226 86.1745 236.766 86.6231 230.604C86.9221 226.546 87.296 204.635 87.296 204.635H171.086Z" fill="#93929C"/>
<path d="M152.894 91.5983C152.894 91.5983 168.455 100.025 171.168 101.8C173.882 103.576 177.026 106.314 176.443 113.72C175.86 121.125 173.527 219.75 173.527 219.75C167.167 219.75 156.155 219.75 156.155 219.75H148.953C148.953 219.75 144.193 219.75 141.142 219.75C135.695 219.75 127.194 219.75 127.194 219.75H123.76H120.017C120.017 219.75 88.85 220.206 88.0638 219.75C86.916 219.75 84.5431 220.616 84.543 219.75C84.619 218.887 87.1509 114.556 87.4805 110.093C87.5458 107.703 88.298 105.382 89.6471 103.408C90.9962 101.433 92.8853 99.8894 95.0885 98.9601C100.389 96.6016 116.228 90.4871 116.228 90.4871C116.228 90.4871 130.748 108.794 139.977 105.278C145.939 103.008 152.894 91.5983 152.894 91.5983Z" fill="#002366"/>
<path d="M84.713 213.472L84.4211 221.606C84.4211 221.606 116.842 223.848 136.238 223.782C154.1 223.721 173.507 221.841 173.507 221.841L173.669 214.524C173.669 214.524 152.89 215.429 134.272 215.429C109.213 215.429 84.713 213.472 84.713 213.472Z" fill="#00163F"/>
<path d="M163.374 91.2093C165.817 100.729 150.872 109.265 137.675 105.793C151.566 96.7633 150.872 91.2069 150.872 91.2069V81.483C155.039 80.7885 161.836 85.2177 163.374 91.2093Z" fill="#001A4B"/>
<path d="M120.312 78.0104C116.145 77.3158 102.658 78.7258 98.0864 86.3449C96.0027 89.8178 100.299 96.7321 100.299 96.7321C100.299 96.7321 100.606 96.7321 104.939 95.1126C108.412 102.753 125.869 109.265 138.671 105.864C120.312 96.0689 120.312 91.2064 120.312 91.2064V78.0104Z" fill="#001A4B"/>
<path d="M118.669 139.708H121.402V143.184H124.319V139.708H127.053V149.206H124.319V145.445H121.402V149.206H118.668V139.708H118.669ZM136.808 139.708V149.206H134.167V141.959H132.436V144.685C132.436 145.91 132.344 147.411 131.617 148.257C130.89 149.197 129.519 149.482 127.972 149.197V146.842C129.427 147.127 129.795 146.557 129.795 144.677V139.691H136.808V139.708ZM139.09 139.708H141.824L143.37 145.35L144.916 139.708H147.65L148.929 149.206H146.379L145.744 144.125L144.281 149.205H142.459L141.004 144.125L140.369 149.205H137.819L139.09 139.708L139.09 139.708ZM149.932 139.708H152.666V143.564L155.307 139.708H158.316L154.856 144.409L158.409 149.206H155.132L152.674 145.35V149.206H149.94V139.708H149.932H149.932ZM138.171 129.546C121.77 129.546 110.919 135.662 110.919 144.685C110.919 153.622 121.762 159.825 138.171 159.825C154.663 159.825 165.422 153.614 165.422 144.685C165.422 135.662 154.671 129.546 138.171 129.546ZM138.171 158.419C122.764 158.419 112.474 152.872 112.474 144.685C112.474 136.413 122.773 130.952 138.171 130.952C153.66 130.952 163.875 136.404 163.875 144.685C163.875 152.872 153.668 158.419 138.171 158.419ZM138.171 132.272C123.684 132.272 114.021 137.258 114.021 144.685C114.021 152.113 123.684 157.099 138.171 157.099C152.657 157.099 162.32 152.113 162.32 144.685C162.329 137.258 152.666 132.272 138.171 132.272ZM138.171 156.823C123.86 156.823 114.297 151.932 114.297 144.694C114.297 137.456 123.868 132.565 138.171 132.565C152.473 132.565 162.044 137.456 162.044 144.694C162.053 151.932 152.481 156.823 138.171 156.823V156.823Z" fill="white"/>
<path d="M105.643 145.995C110.233 141.353 118.817 131.343 121.722 128.905C124.594 126.741 127.732 124.954 131.058 123.589C133.582 122.743 136.191 122.178 138.838 121.903C140.679 121.669 141.432 122.214 141.432 123.329C141.385 123.994 141.174 124.636 140.816 125.197C140.458 125.759 139.965 126.222 139.383 126.545H142.78C143.947 126.545 144.699 127.479 144.155 128.983C143.66 129.976 142.953 130.849 142.083 131.54C141.214 132.23 140.203 132.72 139.123 132.977C139.123 132.977 143.714 133.417 144.881 133.651C146.048 133.884 146.411 134.325 146.411 135.44C146.401 136.21 146.187 136.964 145.79 137.625C145.394 138.285 144.829 138.829 144.155 139.201C142.502 139.871 140.749 140.257 138.968 140.342C138.968 140.342 144.647 141.768 145.788 142.183C146.929 142.598 147.059 143.35 146.463 144.335C146.123 145.029 145.632 145.639 145.026 146.119C144.42 146.599 143.715 146.938 142.962 147.11C140.809 147.681 139.357 146.747 138.579 146.877C136.907 147.415 135.27 148.056 133.677 148.796C131.285 151.177 128.361 152.955 125.145 153.983C122.752 154.987 120.556 156.41 118.662 158.184C117.779 159.012 116.74 159.655 115.604 160.074C114.469 160.493 113.261 160.681 112.052 160.625C110.844 160.57 109.658 160.272 108.566 159.75C107.474 159.229 106.498 158.493 105.695 157.587C101.546 153.179 102.246 149.496 105.643 145.995Z" fill="#FBBEAA"/>
<path d="M120.902 161.781L79.1535 208.726C74.1506 215.394 62.46 219.059 55.3172 212.881C53.9963 211.724 52.9243 210.311 52.1661 208.726C51.4079 207.142 50.9794 205.421 50.9065 203.666C50.8336 201.912 51.1179 200.161 51.7421 198.519C52.3663 196.878 53.3174 195.38 54.5378 194.117L105.132 141.159L120.902 161.781Z" fill="#002366"/>
<path d="M138.813 126.571C138.82 126.614 138.818 126.658 138.808 126.7C138.797 126.742 138.778 126.782 138.751 126.816C138.724 126.85 138.69 126.878 138.652 126.899C138.613 126.919 138.571 126.931 138.527 126.934L136.401 127.142H135.364C135.001 127.142 134.663 127.271 134.3 127.297C133.917 127.412 133.544 127.56 133.185 127.738L131.992 128.231C130.384 128.879 128.776 129.476 127.583 129.916C126.391 130.357 125.561 130.617 125.561 130.617C125.495 130.644 125.421 130.646 125.354 130.622C125.287 130.598 125.231 130.55 125.198 130.487C125.149 130.424 125.123 130.346 125.123 130.267C125.123 130.187 125.149 130.109 125.198 130.046L127.143 129.035L129.165 128.075C129.892 127.738 130.695 127.401 131.499 127.09L132.718 126.623C133.11 126.446 133.518 126.307 133.937 126.208L135.182 126.078H136.245H137.827H138.424C138.489 126.027 138.572 126.003 138.655 126.013C138.738 126.023 138.813 126.065 138.865 126.13C138.916 126.195 138.94 126.279 138.93 126.361C138.92 126.444 138.878 126.519 138.813 126.571ZM138.32 132.821H137.853C137.465 132.786 137.074 132.786 136.686 132.821L135.882 132.951C135.586 132.988 135.292 133.04 135 133.106L133.237 133.677C132.044 134.066 130.877 134.559 129.995 134.922C129.995 134.922 129.71 134.922 129.736 135.051H129.425L128.958 135.181H128.673H128.517C128.439 135.199 128.371 135.248 128.327 135.315C128.284 135.383 128.268 135.465 128.284 135.544C128.295 135.606 128.327 135.663 128.374 135.705C128.42 135.747 128.48 135.773 128.543 135.777H129.866H130.281C131.188 135.544 132.407 135.181 133.6 134.766L135.338 134.118L136.142 133.91L136.842 133.703C137.2 133.597 137.563 133.51 137.931 133.443L138.372 133.314C138.411 133.302 138.448 133.282 138.479 133.256C138.511 133.23 138.537 133.198 138.556 133.162C138.576 133.126 138.588 133.087 138.591 133.046C138.595 133.005 138.591 132.964 138.579 132.925C138.549 132.887 138.509 132.857 138.463 132.839C138.418 132.821 138.368 132.815 138.32 132.821ZM138.32 140.186H137.36C137.101 140.186 136.764 140.186 136.427 140.368L135.364 140.705C134.694 140.94 134.044 141.226 133.419 141.561C133.131 141.696 132.853 141.852 132.589 142.027C132.536 142.089 132.507 142.167 132.507 142.248C132.507 142.329 132.536 142.407 132.589 142.468C132.663 142.547 132.766 142.594 132.874 142.598L133.834 142.442C134.378 142.313 135.078 142.105 135.779 141.872L136.79 141.457L137.672 141.12C137.965 140.989 138.251 140.842 138.527 140.679C138.601 140.635 138.655 140.566 138.679 140.484C138.703 140.402 138.695 140.314 138.657 140.238C138.58 140.189 138.488 140.17 138.398 140.186H138.32Z" fill="#F18380"/>
<defs>
<filter id="filter0_f_21_289" x="0.382812" y="492.436" width="247" height="63" filterUnits="userSpaceOnUse" color-interpolation-filters="sRGB">
<feFlood flood-opacity="0" result="BackgroundImageFix"/>
<feBlend mode="normal" in="SourceGraphic" in2="BackgroundImageFix" result="shape"/>
<feGaussianBlur stdDeviation="8.5" result="effect1_foregroundBlur_21_289"/>
</filter>
<clipPath id="clip0_21_289">
<rect width="76" height="99" fill="white" transform="translate(104.383 0.935791)"/>
</clipPath>
</defs>
</svg>
