<svg width="247" height="561" viewBox="0 0 247 561" fill="none" xmlns="http://www.w3.org/2000/svg">
<path d="M121.968 19.1534C123.022 15.3497 122.635 11.2904 120.879 7.75518C119.123 4.21995 116.123 1.45807 112.455 0C110.997 1.4576 111.739 6.11171 111.739 6.11171C106.589 3.69815 100.812 2.95601 95.2194 3.98923C95.3207 7.56523 96.6685 10.9934 99.0296 13.681C96.1681 13.9694 93.416 14.9336 91 16.4939C91.3664 18.1794 92.1277 19.7537 93.2214 21.0874C94.315 22.4211 95.7097 23.4761 97.2907 24.1655C95.6808 26.0502 94.5726 28.3107 94.0686 30.7375C96.8155 31.5297 99.7176 31.6176 102.507 30.9933C102.057 32.4046 101.875 33.8877 101.97 35.3661C104.62 35.7549 107.322 35.5556 109.885 34.7821C112.449 34.0087 114.81 32.6802 116.802 30.891C119.444 27.4515 121.216 23.4248 121.968 19.1534Z" fill="#E69D7E"/>
<path d="M106.164 32.9628C105.755 39.5859 101.587 49.6357 102.686 58.0489C104.22 69.9143 118.899 69.7864 124.576 69.7864H132.989V32.9628H106.164Z" fill="#E69D7E"/>
<path d="M119.052 56.1561V77.8668C119.052 77.8668 120.766 85.3338 132.222 85.3338C134.501 85.526 136.768 84.8381 138.556 83.4114C140.344 81.9847 141.518 79.9274 141.837 77.6622V56.1817L119.052 56.1561Z" fill="#FBBEAA"/>
<path d="M141.837 74.2355C134.651 77.6622 124.141 74.5935 119.052 65.183V56.1561H141.837V74.2355Z" fill="#F18380"/>
<path d="M156.106 39.4827C156.2 44.6753 155.961 49.8685 155.39 55.0305C154.47 62.4208 151.836 70.6038 138.794 70.6038C125.752 70.6038 119.078 64.6967 116.291 55.0305C114.603 49.2001 111.176 40.5567 112.583 30.5837C113.989 20.6106 119.999 14.0897 134.166 13.7061C148.332 13.3226 157.564 19.69 156.106 39.4827Z" fill="#FBBEAA"/>
<path d="M128.463 43.9326C128.55 44.3179 128.744 44.6709 129.022 44.951C129.301 45.231 129.653 45.4267 130.038 45.5155C130.423 45.6043 130.825 45.5826 131.198 45.4528C131.571 45.3231 131.9 45.0906 132.146 44.7822C132.393 44.4738 132.548 44.1019 132.592 43.7095C132.637 43.317 132.57 42.9199 132.399 42.5639C132.228 42.2079 131.96 41.9075 131.625 41.6972C131.291 41.4869 130.904 41.3754 130.509 41.3754C130.206 41.4071 129.912 41.4987 129.645 41.6449C129.378 41.791 129.142 41.9887 128.952 42.2266C128.762 42.4644 128.62 42.7377 128.536 43.0306C128.453 43.3234 128.428 43.63 128.463 43.9326Z" fill="#403D4F"/>
<path d="M147.463 43.9326C147.55 44.3179 147.743 44.6709 148.022 44.951C148.301 45.231 148.653 45.4267 149.037 45.5155C149.422 45.6043 149.824 45.5826 150.197 45.4528C150.571 45.3231 150.899 45.0906 151.146 44.7822C151.393 44.4738 151.548 44.1019 151.592 43.7095C151.637 43.317 151.57 42.9199 151.399 42.5639C151.228 42.2079 150.959 41.9075 150.625 41.6972C150.291 41.4869 149.904 41.3754 149.509 41.3754C149.206 41.4071 148.912 41.4987 148.645 41.6449C148.378 41.791 148.142 41.9887 147.952 42.2266C147.761 42.4644 147.62 42.7377 147.536 43.0306C147.452 43.3234 147.427 43.63 147.463 43.9326Z" fill="#403D4F"/>
<path d="M134.652 36.6958C134.652 36.6958 134.652 36.6958 134.421 36.4657C134.217 36.2818 133.994 36.119 133.757 35.9798C133.439 35.7847 133.094 35.6382 132.734 35.5451C132.331 35.3963 131.909 35.3101 131.481 35.2894C131.064 35.238 130.644 35.238 130.228 35.2894C129.875 35.3005 129.524 35.3433 129.179 35.4172L128.182 35.6985C128.017 35.7515 127.88 35.8667 127.798 36.0195C127.717 36.1723 127.699 36.3507 127.747 36.5168C127.786 36.6496 127.867 36.7663 127.977 36.8493C128.088 36.9323 128.222 36.9771 128.361 36.9771H129.358C129.655 36.9389 129.956 36.9389 130.253 36.9771C130.594 36.9517 130.936 36.9517 131.276 36.9771C131.608 36.9771 131.941 36.9771 132.248 37.1561C132.555 37.3351 132.81 37.3607 133.066 37.3863L133.603 37.5653H133.833C133.993 37.6347 134.173 37.6388 134.336 37.5766C134.498 37.5144 134.63 37.391 134.703 37.2329C134.748 37.1459 134.771 37.0494 134.771 36.9516C134.771 36.8537 134.748 36.7572 134.703 36.6703L134.652 36.6958Z" fill="#403D4F"/>
<path d="M147.079 37.6674H147.233L147.642 37.514H147.923H148.205C148.431 37.4393 148.661 37.3795 148.895 37.335C149.132 37.2972 149.374 37.2972 149.611 37.335C149.831 37.2968 150.056 37.2968 150.276 37.335H151.094C151.266 37.3284 151.429 37.2554 151.548 37.1314C151.667 37.0075 151.734 36.8421 151.733 36.6701C151.728 36.5432 151.687 36.4204 151.615 36.3162C151.542 36.212 151.442 36.1307 151.324 36.082L150.532 35.8007C150.242 35.7061 149.941 35.6544 149.637 35.6472C149.297 35.5964 148.953 35.5964 148.614 35.6472C147.942 35.7146 147.303 35.9718 146.772 36.3888C146.58 36.5168 146.415 36.682 146.287 36.8747C146.159 37.0281 146.159 37.0793 146.133 37.0793V37.335C146.119 37.4554 146.138 37.5774 146.188 37.6878C146.239 37.7981 146.318 37.8927 146.418 37.9611C146.518 38.0296 146.635 38.0694 146.756 38.0762C146.877 38.0831 146.998 38.0566 147.105 37.9999L147.079 37.6674Z" fill="#403D4F"/>
<path d="M141.837 52.627C142.266 52.637 142.693 52.5528 143.086 52.3805C143.479 52.2082 143.83 51.952 144.113 51.6297C144.224 51.5198 144.311 51.388 144.368 51.2427C144.425 51.0975 144.452 50.9418 144.446 50.7858C144.446 50.5045 143.985 46.9756 143.832 45.6714C143.832 45.5426 143.781 45.419 143.69 45.3279C143.598 45.2367 143.475 45.1855 143.346 45.1855C143.217 45.1855 143.094 45.2367 143.002 45.3279C142.911 45.419 142.86 45.5426 142.86 45.6714C142.86 45.876 143.397 50.5045 143.474 50.7858C143.261 51.0137 143.004 51.195 142.718 51.3183C142.432 51.4415 142.123 51.504 141.812 51.5018C141.683 51.5018 141.559 51.553 141.468 51.6441C141.377 51.7353 141.326 51.8588 141.326 51.9877C141.326 52.1166 141.377 52.2401 141.468 52.3313C141.559 52.4224 141.683 52.4736 141.812 52.4736L141.837 52.627Z" fill="#F18380"/>
<path d="M144.241 57.6646C145.213 57.9203 145.545 59.3524 144.983 61.0145C144.394 62.158 143.44 63.0714 142.272 63.609C141.104 64.1467 139.79 64.2776 138.539 63.9809C137.86 63.9452 137.195 63.7746 136.583 63.479C135.97 63.1833 135.423 62.7686 134.973 62.2591C134.523 61.7496 134.179 61.1555 133.962 60.5115C133.744 59.8675 133.657 59.1866 133.705 58.5085C133.705 57.4089 134.447 56.744 135.879 56.744C138.687 56.8176 141.484 57.1255 144.241 57.6646Z" fill="#73102A"/>
<path d="M133.654 58.5085C133.654 58.5085 133.654 58.355 133.654 58.2527C135.529 57.813 137.502 58.0949 139.179 59.0425C140.856 59.99 142.115 61.5338 142.706 63.3671C141.383 64.0155 139.894 64.2473 138.436 64.032C137.757 63.9901 137.093 63.8131 136.483 63.5113C135.873 63.2096 135.33 62.7892 134.884 62.2749C134.439 61.7605 134.101 61.1624 133.89 60.5157C133.678 59.8689 133.598 59.1865 133.654 58.5085Z" fill="#D65155"/>
<path d="M143.371 59.2248C140.141 59.2512 136.928 58.7502 133.859 57.7416C134.047 57.3953 134.336 57.1144 134.688 56.9363C135.04 56.7581 135.437 56.6912 135.828 56.7443C138.636 56.8178 141.433 57.1257 144.19 57.6649C144.457 57.7548 144.692 57.9217 144.865 58.1446C145.038 58.3675 145.141 58.6365 145.161 58.9179C144.588 59.1261 143.982 59.2301 143.371 59.2248Z" fill="white"/>
<path d="M130.815 27.413C130.815 27.413 126.289 43.063 115.472 47.1801C114.216 47.1957 112.975 46.9087 111.853 46.3435C110.732 45.7782 109.763 44.9512 109.028 43.9325C106.155 37.8897 105.346 31.0704 106.727 24.5233C108.542 16.5449 118.132 6.26492 135.623 8.66868C144.957 6.87864 156.081 8.51525 163.036 17.9513C169.992 27.3874 161.706 40.4547 156.106 42.6283C150.598 39.3118 145.318 35.6297 140.303 31.6068C141.07 34.0105 141.888 39.0994 141.07 39.0994C136.343 36.5824 132.697 32.427 130.815 27.413Z" fill="#E69D7E"/>
<path d="M116.802 49.0725C116.597 45.5948 115.651 41.4009 111.432 42.1425C106.317 42.8841 105.959 56.3094 116.546 54.6984L116.802 49.0725Z" fill="#FBBEAA"/>
<path d="M110.997 49.9678C111.085 49.964 111.171 49.9387 111.246 49.8941C111.322 49.8495 111.386 49.787 111.432 49.7121C111.538 49.4859 111.703 49.2927 111.911 49.1531C112.118 49.0135 112.359 48.9327 112.608 48.9193C112.9 48.9223 113.187 48.9988 113.442 49.1418C113.697 49.2849 113.911 49.4898 114.066 49.7376C114.123 49.8296 114.21 49.8998 114.312 49.9369C114.414 49.9739 114.525 49.9758 114.628 49.9422C114.727 49.8998 114.809 49.8276 114.864 49.7359C114.919 49.6441 114.944 49.5374 114.935 49.4308C114.902 48.3524 114.572 47.3042 113.981 46.4017C113.39 45.4992 112.561 44.7776 111.585 44.3164C111.524 44.2923 111.458 44.2809 111.392 44.283C111.326 44.285 111.262 44.3005 111.202 44.3284C111.142 44.3564 111.089 44.3962 111.045 44.4454C111.001 44.4947 110.968 44.5524 110.947 44.6149C110.926 44.6775 110.918 44.7437 110.924 44.8094C110.929 44.8751 110.948 44.939 110.979 44.9972C111.01 45.0554 111.053 45.1067 111.104 45.1479C111.156 45.1891 111.215 45.2194 111.279 45.237C111.849 45.5178 112.357 45.9121 112.77 46.3958C113.184 46.8794 113.494 47.4422 113.682 48.0499C113.327 47.898 112.944 47.8197 112.557 47.8197C112.144 47.8589 111.746 47.998 111.399 48.2253C111.051 48.4525 110.764 48.7609 110.563 49.1239C110.53 49.1793 110.51 49.2404 110.501 49.3039C110.493 49.3673 110.497 49.4318 110.514 49.4935C110.531 49.5553 110.559 49.6132 110.598 49.6638C110.637 49.7145 110.686 49.757 110.742 49.7888C110.805 49.875 110.895 49.9379 110.997 49.9678Z" fill="#F18380"/>
<g opacity="0.3" filter="url(#filter0_f_110_27)">
<ellipse cx="106.5" cy="14.5" rx="106.5" ry="14.5" transform="matrix(1 0 0 -1 17 544)" fill="#CBCBCB"/>
</g>
<path d="M222.787 82.3558C222.89 80.1208 222.291 77.9097 221.076 76.0312C219.205 73.8616 217.803 71.3282 216.959 68.5904C216.309 66.049 215.272 63.6229 213.883 61.3976C212.891 60.0335 211.403 58.9174 211.403 57.8757C211.403 56.834 213.387 54.825 216.215 55.3954C217.426 55.7727 218.538 56.413 219.473 57.2706C220.408 58.1282 221.142 59.1817 221.622 60.3559C221.892 59.6405 222.051 58.8876 222.093 58.1237L222.713 42.9197C222.722 42.5256 222.811 42.1373 222.973 41.7778C223.134 41.4184 223.367 41.095 223.656 40.8269C223.945 40.5587 224.285 40.3511 224.655 40.2164C225.026 40.0817 225.419 40.0226 225.813 40.0426C226.44 40.0694 227.043 40.2919 227.537 40.679C228.03 41.066 228.391 41.5981 228.566 42.2004V41.506C228.662 40.7669 229.033 40.0912 229.606 39.6147C230.179 39.1381 230.911 38.8959 231.655 38.9367C232.399 38.9775 233.1 39.2983 233.618 39.8347C234.135 40.3711 234.43 41.0833 234.444 41.8284V43.9366C234.693 43.2867 235.167 42.7476 235.779 42.4177C236.392 42.0877 237.103 41.989 237.782 42.1393C238.461 42.2896 239.064 42.6789 239.48 43.2365C239.897 43.7941 240.099 44.4827 240.05 45.1768V46.5161C240.317 46.0469 240.715 45.6657 241.195 45.4191C241.675 45.1724 242.217 45.0709 242.753 45.1271C243.489 45.2204 244.158 45.5962 244.621 46.1749C245.084 46.7536 245.304 47.4897 245.234 48.2274L244.018 61.0504C243.222 68.2798 241.727 75.415 239.554 82.3558C239.528 83.5147 239.259 84.6553 238.766 85.7042C238.272 86.7531 237.565 87.6872 236.689 88.4464C235.813 89.2056 234.788 89.7731 233.679 90.1124C232.571 90.4517 231.404 90.5554 230.253 90.4167C229.211 90.4514 228.175 90.2618 227.213 89.8606C226.251 89.4595 225.387 88.8561 224.679 88.0916C223.971 87.327 223.435 86.4192 223.109 85.4295C222.783 84.4399 222.673 83.3916 222.787 82.3558Z" fill="#FBBEAA"/>
<path d="M139.203 487.134C139.203 484.746 140.151 482.456 141.84 480.768C143.528 479.079 145.818 478.131 148.206 478.131C150.594 478.131 152.884 479.079 154.572 480.768C156.261 482.456 157.209 484.746 157.209 487.134V506.703H139.203V487.134Z" fill="#FBBEAA"/>
<path d="M156.565 490.78C158.772 490.78 159.169 491.748 159.814 493.012C160.86 496.383 162.648 499.477 165.047 502.065C168.629 505.116 172.471 507.847 176.531 510.225V520.593H136.45C136.45 520.593 136.723 512.408 136.921 506.629C137.119 500.85 137.69 493.806 137.64 493.062C137.591 492.318 137.64 490.78 139.004 490.78H156.565Z" fill="#302D3B"/>
<path d="M141.435 507.199C141.43 508.472 141.803 509.717 142.507 510.777C143.211 511.838 144.214 512.665 145.389 513.154C146.564 513.643 147.857 513.773 149.106 513.526C150.354 513.279 151.501 512.666 152.401 511.766C153.301 510.866 153.913 509.72 154.16 508.471C154.407 507.223 154.278 505.929 153.789 504.754C153.299 503.579 152.472 502.576 151.412 501.872C150.352 501.168 149.106 500.795 147.834 500.8C146.139 500.807 144.515 501.483 143.316 502.682C142.117 503.88 141.441 505.504 141.435 507.199Z" fill="#93929C"/>
<path d="M147.834 503.429L146.37 505.587L143.865 506.306L145.453 508.365L145.378 510.969L147.834 510.076L150.289 510.969L150.19 508.365L151.802 506.306L149.297 505.587L147.834 503.429Z" fill="white"/>
<path d="M176.258 510.052C176.258 510.052 181.937 513.053 184.07 514.516C185.058 515.185 185.86 516.094 186.402 517.156C186.944 518.219 187.209 519.401 187.171 520.593H171.595C171.595 520.593 171.917 512.979 176.258 510.052Z" fill="white"/>
<path d="M136.45 520.593V524.884C136.45 525.603 137.095 526 138.186 526H185.46C186.526 526 187.171 525.603 187.171 524.884V520.593H136.45Z" fill="white"/>
<path d="M171.595 507.15C171.732 506.939 171.946 506.79 172.191 506.734C172.437 506.679 172.694 506.721 172.909 506.852C173.016 506.918 173.109 507.005 173.182 507.107C173.255 507.209 173.307 507.324 173.334 507.447C173.362 507.569 173.365 507.696 173.343 507.82C173.321 507.943 173.275 508.061 173.207 508.167L171.545 510.845C171.465 510.984 171.349 511.099 171.209 511.177C171.07 511.256 170.911 511.296 170.751 511.292C170.568 511.289 170.388 511.238 170.23 511.143C170.123 511.077 170.031 510.991 169.958 510.889C169.885 510.787 169.833 510.671 169.805 510.548C169.777 510.426 169.774 510.299 169.796 510.176C169.818 510.052 169.865 509.934 169.933 509.829L171.595 507.15Z" fill="white"/>
<path d="M168.668 505.091C168.749 504.997 168.848 504.919 168.96 504.863C169.071 504.807 169.193 504.773 169.317 504.764C169.441 504.755 169.566 504.77 169.685 504.809C169.803 504.848 169.913 504.91 170.007 504.992C170.102 505.073 170.179 505.172 170.235 505.284C170.291 505.395 170.325 505.517 170.334 505.641C170.343 505.765 170.328 505.89 170.289 506.009C170.25 506.127 170.188 506.237 170.106 506.331L168.172 508.613C168.082 508.718 167.972 508.802 167.849 508.862C167.725 508.922 167.59 508.955 167.452 508.96C167.273 508.957 167.098 508.904 166.947 508.806C166.796 508.709 166.675 508.571 166.597 508.409C166.52 508.247 166.49 508.066 166.509 507.888C166.529 507.709 166.598 507.539 166.708 507.398L168.668 505.091Z" fill="white"/>
<path d="M165.915 502.785C166.112 502.658 166.349 502.607 166.581 502.641C166.814 502.676 167.025 502.793 167.177 502.973C167.329 503.152 167.41 503.38 167.406 503.614C167.402 503.849 167.313 504.074 167.155 504.248L164.948 506.158C164.775 506.305 164.555 506.384 164.328 506.381C164.191 506.386 164.055 506.36 163.931 506.304C163.806 506.248 163.696 506.164 163.609 506.059C163.517 505.973 163.444 505.869 163.394 505.754C163.344 505.639 163.318 505.515 163.318 505.389C163.318 505.264 163.344 505.139 163.394 505.024C163.444 504.909 163.517 504.805 163.609 504.719L165.915 502.785Z" fill="white"/>
<path d="M161.079 501.644L163.559 500.106C163.777 499.977 164.036 499.939 164.282 499.999C164.528 500.059 164.74 500.213 164.873 500.428C164.94 500.535 164.985 500.655 165.005 500.779C165.026 500.904 165.02 501.031 164.99 501.154C164.96 501.276 164.906 501.392 164.83 501.493C164.755 501.594 164.66 501.679 164.551 501.743L162.071 503.281C161.924 503.378 161.751 503.43 161.575 503.429C161.413 503.426 161.255 503.38 161.116 503.298C160.977 503.215 160.862 503.098 160.781 502.958C160.65 502.743 160.607 502.486 160.663 502.241C160.719 501.995 160.868 501.781 161.079 501.644Z" fill="white"/>
<path d="M158.995 498.444L161.772 497.279C162.009 497.18 162.276 497.18 162.513 497.277C162.75 497.375 162.939 497.563 163.037 497.8C163.086 497.915 163.111 498.039 163.111 498.164C163.111 498.29 163.086 498.414 163.037 498.529C162.989 498.644 162.918 498.749 162.828 498.837C162.739 498.924 162.633 498.993 162.517 499.04L159.739 500.205H159.367C159.153 500.194 158.949 500.112 158.786 499.972C158.624 499.832 158.513 499.642 158.47 499.432C158.428 499.222 158.456 499.003 158.551 498.811C158.646 498.619 158.802 498.464 158.995 498.37V498.444Z" fill="white"/>
<path d="M157.259 494.873L160.334 494.104C160.578 494.044 160.835 494.084 161.049 494.215C161.263 494.345 161.416 494.555 161.475 494.798C161.534 495.042 161.495 495.298 161.364 495.512C161.234 495.726 161.024 495.88 160.781 495.939L157.73 496.733H157.507C157.293 496.73 157.086 496.659 156.916 496.529C156.746 496.4 156.623 496.219 156.564 496.013C156.511 495.77 156.554 495.516 156.683 495.304C156.812 495.091 157.019 494.937 157.259 494.873Z" fill="white"/>
<path d="M126.032 361.98C126.305 349.976 134.391 344.172 146.37 344.47C158.35 344.768 166.981 351.043 166.708 363.022L157.209 488.102H139.202L126.032 361.98Z" fill="#FBBEAA"/>
<path d="M124.469 361.906C124.536 359.056 125.163 356.247 126.316 353.639C127.468 351.032 129.123 348.677 131.185 346.709C133.248 344.741 135.677 343.198 138.336 342.169C140.995 341.14 143.83 340.645 146.68 340.712C149.53 340.779 152.339 341.406 154.946 342.558C157.554 343.711 159.909 345.365 161.877 347.428C163.845 349.49 165.387 351.92 166.416 354.579C167.445 357.237 167.94 360.072 167.874 362.922L173.505 491.5H124.47L124.469 361.906Z" fill="#93929C"/>
<path d="M63.3062 487.134C63.3062 484.746 64.2547 482.456 65.9432 480.768C67.6316 479.079 69.9217 478.131 72.3095 478.131C74.6973 478.131 76.9874 479.079 78.6758 480.768C80.3643 482.456 81.3129 484.746 81.3129 487.134V506.703H63.3062V487.134Z" fill="#FBBEAA"/>
<path d="M80.6438 490.78C82.8761 490.78 83.2729 491.748 83.893 493.012C84.9508 496.384 86.7471 499.476 89.1511 502.065C92.7282 505.122 96.5714 507.853 100.635 510.225V520.593H60.5537C60.5537 520.593 60.8265 512.408 61.025 506.629C61.2234 500.85 61.7691 493.806 61.7443 493.062C61.7195 492.318 61.7442 490.78 63.0836 490.78H80.6438Z" fill="#302D3B"/>
<path d="M65.5142 507.199C65.5093 508.471 65.8819 509.715 66.5848 510.775C67.2876 511.834 68.2892 512.662 69.4625 513.152C70.6359 513.642 71.9283 513.772 73.176 513.527C74.4238 513.282 75.5707 512.672 76.4716 511.775C77.3725 510.878 77.9868 509.733 78.2367 508.486C78.4865 507.24 78.3608 505.947 77.8753 504.771C77.3898 503.596 76.5665 502.591 75.5096 501.884C74.4526 501.177 73.2097 500.8 71.9381 500.8C70.2387 500.8 68.6085 501.473 67.4045 502.673C66.2005 503.872 65.5208 505.5 65.5142 507.199Z" fill="#93929C"/>
<path d="M71.9133 503.429L70.4499 505.587L67.9448 506.306L69.557 508.365L69.4826 510.969L71.9133 510.076L74.3687 510.969L74.2943 508.365L75.9065 506.306L73.3766 505.587L71.9133 503.429Z" fill="white"/>
<path d="M100.336 510.052C100.336 510.052 106.041 513.053 108.149 514.516C109.142 515.18 109.948 516.087 110.49 517.151C111.033 518.215 111.294 519.4 111.25 520.593H95.5991C95.5991 520.593 96.0208 512.979 100.336 510.052Z" fill="white"/>
<path d="M60.5537 520.593V524.884C60.5537 525.603 61.1738 526 62.2651 526H109.588C110.68 526 111.3 525.603 111.3 524.884V520.593H60.5537Z" fill="white"/>
<path d="M95.6986 507.15C95.8334 506.936 96.0477 506.785 96.2942 506.729C96.5407 506.673 96.7993 506.717 97.0131 506.852C97.2269 506.987 97.3783 507.201 97.4342 507.448C97.49 507.694 97.4456 507.953 97.3107 508.167L95.649 510.846C95.563 510.985 95.4423 511.099 95.2988 511.177C95.1553 511.255 94.9939 511.295 94.8305 511.292C94.6541 511.292 94.4815 511.241 94.3344 511.143C94.2275 511.077 94.1348 510.991 94.0617 510.889C93.9887 510.787 93.9367 510.671 93.909 510.549C93.8813 510.426 93.8783 510.299 93.9002 510.176C93.9222 510.052 93.9686 509.934 94.0368 509.829L95.6986 507.15Z" fill="white"/>
<path d="M92.747 505.091C92.9105 504.901 93.1416 504.781 93.3915 504.758C93.6415 504.735 93.8906 504.81 94.0863 504.967C94.2783 505.135 94.3984 505.37 94.4215 505.624C94.4446 505.878 94.369 506.132 94.2103 506.331L92.2509 508.613C92.1649 508.721 92.0556 508.809 91.931 508.869C91.8064 508.929 91.6699 508.96 91.5316 508.96C91.3498 508.962 91.1713 508.911 91.0177 508.814C90.8641 508.717 90.742 508.577 90.666 508.412C90.5899 508.247 90.5633 508.063 90.5893 507.883C90.6152 507.703 90.6927 507.535 90.8123 507.398L92.747 505.091Z" fill="white"/>
<path d="M90.019 502.785C90.2163 502.658 90.4531 502.607 90.6853 502.641C90.9175 502.676 91.1292 502.793 91.281 502.973C91.4327 503.152 91.5142 503.38 91.5102 503.614C91.5061 503.849 91.4169 504.074 91.2591 504.248L89.0269 506.158C88.8538 506.305 88.6336 506.384 88.4068 506.381C88.2705 506.384 88.1352 506.357 88.0108 506.301C87.8864 506.245 87.7759 506.163 87.6875 506.059C87.599 505.971 87.5288 505.867 87.4808 505.752C87.4329 505.637 87.4082 505.514 87.4082 505.389C87.4082 505.265 87.4329 505.141 87.4808 505.026C87.5288 504.911 87.599 504.807 87.6875 504.719L90.019 502.785Z" fill="white"/>
<path d="M85.1824 501.644L87.6626 500.106C87.8766 500.016 88.1159 500.005 88.3368 500.077C88.5578 500.148 88.7456 500.297 88.8659 500.496C88.9863 500.694 89.0312 500.93 88.9924 501.159C88.9537 501.388 88.8338 501.595 88.6547 501.743L86.1745 503.281C86.0275 503.378 85.8548 503.43 85.6784 503.429C85.5131 503.427 85.3511 503.383 85.2078 503.301C85.0645 503.218 84.9447 503.1 84.8599 502.958C84.7311 502.74 84.6927 502.481 84.7529 502.235C84.8132 501.989 84.9674 501.777 85.1824 501.644Z" fill="white"/>
<path d="M222.49 84.0179L212.569 146.297C210.932 154.11 213.461 161.179 222.49 162.419C224.156 162.636 225.849 162.512 227.466 162.055C229.084 161.597 230.591 160.816 231.897 159.758C233.203 158.701 234.28 157.388 235.063 155.902C235.847 154.415 236.32 152.784 236.453 151.109L239.479 84.1419C240.273 77.8172 237.52 73.6008 232.708 73.08C226.805 72.4351 223.68 75.9323 222.49 84.0179Z" fill="#FBBEAA"/>
<path d="M83.0992 498.445L85.8771 497.279C85.9926 497.23 86.1165 497.206 86.2418 497.206C86.367 497.206 86.4909 497.231 86.6064 497.279C86.7219 497.328 86.8265 497.399 86.9142 497.488C87.0019 497.577 87.0709 497.683 87.1172 497.8C87.2098 498.031 87.21 498.288 87.1176 498.519C87.0252 498.75 86.8474 498.937 86.6212 499.04L83.8185 500.206C83.7041 500.231 83.5855 500.231 83.4712 500.206C83.2802 500.206 83.0935 500.149 82.9346 500.043C82.7757 499.937 82.6518 499.787 82.5783 499.61C82.503 499.386 82.5148 499.142 82.6113 498.926C82.7078 498.71 82.8819 498.538 83.0992 498.445Z" fill="white"/>
<path d="M81.3625 494.873L84.4133 494.104C84.6598 494.044 84.9202 494.083 85.1383 494.212C85.3564 494.342 85.5147 494.553 85.579 494.798C85.6086 494.919 85.614 495.044 85.5951 495.167C85.5762 495.289 85.5332 495.407 85.4687 495.513C85.4042 495.619 85.3194 495.711 85.2191 495.784C85.1189 495.858 85.0051 495.91 84.8845 495.939L81.8338 496.733H81.5858C81.3623 496.716 81.1517 496.622 80.99 496.466C80.8283 496.311 80.7255 496.105 80.6991 495.882C80.6727 495.66 80.7245 495.435 80.8455 495.246C80.9665 495.058 81.1493 494.917 81.3625 494.848V494.873Z" fill="white"/>
<path d="M73.1533 361.608C74.3717 355.978 77.7759 351.062 82.6176 347.942C87.4593 344.821 93.3422 343.75 98.9729 344.966C110.704 347.446 117.029 359.004 114.499 370.736L81.3134 490.16H63.0835L73.1533 361.608Z" fill="#FBBEAA"/>
<path d="M73.1562 359.252C74.5023 353.757 77.9384 349.004 82.7341 346.003C87.5298 343.002 93.3069 341.99 98.8371 343.182C104.367 344.374 109.215 347.676 112.348 352.386C115.482 357.096 116.655 362.842 115.618 368.404L102.424 491C102.424 491 70.8252 492.885 52 491L73.1562 359.252Z" fill="#93929C"/>
<path d="M230.551 139.402L159.318 85.2827C151.009 79.9749 145.354 82.8024 140.939 88.4822C138.923 91.2313 137.988 94.6258 138.313 98.0195C138.637 101.413 140.199 104.569 142.7 106.886L213.759 159.244C216.263 161.359 219.487 162.426 222.758 162.223C226.03 162.019 229.097 160.561 231.32 158.153L231.642 157.806C232.822 156.547 233.733 155.061 234.319 153.439C234.906 151.816 235.156 150.091 235.054 148.369C234.952 146.647 234.5 144.964 233.725 143.422C232.951 141.88 231.871 140.512 230.551 139.402Z" fill="#FBBEAA"/>
<path d="M142.699 106.861C142.042 106.295 141.443 105.663 140.914 104.976C140.445 103.211 140.385 101.362 140.737 99.5702C141.09 97.7781 141.845 96.0899 142.947 94.6335C146.693 88.8545 154.555 84.3156 158.052 85.1837L161.524 86.9447L200.837 116.708C197.357 124.885 192.657 132.486 186.898 139.253L142.699 106.861Z" fill="#F18380"/>
<path d="M153.439 81.4133L215.082 122.988C214.823 125.115 221.657 81.4133 221.657 81.4133L240.993 83.9297C240.993 83.9297 240.599 128.058 237.713 151.478C236.56 160.828 228.85 164.397 219.646 162.389C215.102 161.397 210.824 159.533 207.017 156.861C190.659 145.379 144.765 113.038 141.013 108.969C134.54 101.95 134.539 96.6918 138.26 90.9128C141.98 85.1338 149.942 80.5452 153.439 81.4133Z" fill="#002776"/>
<path d="M124.469 361.906L111.746 228.691C111.746 213.983 126.9 197.961 149.247 201.408C169.436 204.558 175.588 224.847 173.926 244.069C172.264 263.291 167.775 362.849 167.775 362.849C167.708 365.699 167.08 368.507 165.928 371.115C164.776 373.722 163.121 376.077 161.059 378.045C158.996 380.013 156.566 381.556 153.908 382.585C151.249 383.614 148.414 384.109 145.564 384.042C142.714 383.976 139.905 383.348 137.298 382.196C134.69 381.043 132.335 379.389 130.367 377.326C128.399 375.264 126.857 372.834 125.828 370.175C124.799 367.517 124.303 364.682 124.37 361.832L124.469 361.906Z" fill="#93929C"/>
<path d="M73.1538 359.252L85.8031 226.062C88.4818 211.602 106.464 198.779 127.769 206.369C146.991 213.239 149.223 234.321 143.965 252.899C138.707 271.476 115.616 368.404 115.616 368.404C114.27 373.899 110.834 378.652 106.038 381.653C101.242 384.654 95.4651 385.666 89.9349 384.474C84.4047 383.282 79.5575 379.98 76.4238 375.27C73.29 370.56 72.1169 364.813 73.1538 359.252Z" fill="#93929C"/>
<path d="M143.965 252.899C138.731 271.476 115.615 368.405 115.615 368.405" stroke="#5E5D63" stroke-width="0.75" stroke-miterlimit="10"/>
<path d="M140.244 79.3049C140.244 79.3049 151.207 81.2147 153.34 81.7852C154.599 82.0806 155.762 82.6907 156.721 83.5583C157.679 84.4259 158.402 85.5226 158.821 86.7457C160.186 89.9949 167.205 111.275 167.85 113.582C168.286 116.123 167.876 118.737 166.684 121.023C165.667 123.801 160.409 136.45 160.409 136.45L159.615 177.201L130.002 181.898L101.627 177.201C101.627 177.201 91.7056 101.404 91.2095 96.7164C90.7135 92.0287 93.0449 82.9758 98.6503 81.8348C104.256 80.6939 119.633 79.3546 119.633 79.3546L140.244 79.3049Z" fill="#FBBEAA"/>
<path d="M161.006 160.816V175.142C141.61 176.928 110.705 175.663 99.0971 175.142C98.5515 171.05 97.981 164.105 97.3857 159.492C113.185 159.889 139.279 161.361 161.006 160.816Z" fill="white"/>
<path d="M58.7183 173.555L90.4905 89.9453C94.7317 81.0164 101.007 80.4211 107.852 82.9014C111.018 84.1644 113.608 86.5495 115.127 89.6012C116.646 92.6529 116.988 96.1572 116.087 99.4448L83.3721 181.566C82.3805 184.69 80.217 187.309 77.3358 188.872C74.4546 190.435 71.0799 190.821 67.9201 189.949L67.4488 189.825C65.7821 189.371 64.2254 188.581 62.8737 187.505C61.522 186.429 60.4037 185.089 59.5868 183.566C58.7699 182.044 58.2716 180.371 58.1223 178.65C57.973 176.929 58.1758 175.195 58.7183 173.555Z" fill="#FBBEAA"/>
<path d="M71.8877 138.881L90.4896 89.9452C90.9885 88.872 91.5776 87.8432 92.2506 86.8697C94.5292 85.4431 97.1378 84.6295 99.8234 84.5078C102.509 84.3861 105.18 84.9605 107.579 86.1752C110.364 87.5304 112.602 89.796 113.924 92.597C115.245 95.3981 115.571 98.5665 114.846 101.578C114.846 101.875 114.672 102.446 114.523 103.215L95.3261 151.456C86.9409 148.432 79.0442 144.195 71.8877 138.881Z" fill="#F18380"/>
<path d="M92.2262 85.4811L56.9141 177.129C85.918 167.848 87.5 172.5 93 158C93 158 116.483 101.95 117.178 98.1304C117.902 95.1192 117.577 91.9509 116.255 89.1499C114.934 86.3489 112.695 84.0832 109.91 82.728C102.147 78.7596 94.4088 82.356 92.2262 85.4811Z" fill="#002776"/>
<path d="M223.283 62.5139C222.34 62.5139 222.266 61.9187 221.844 60.8274C223.952 60.8274 230.079 61.2242 232.757 66.3831C230.054 62.6627 224.87 62.5139 223.283 62.5139ZM228.094 42.8951C228.094 42.8951 227.946 43.7632 227.797 45.0281C227.797 45.673 227.648 46.4418 227.598 47.2355C227.549 48.0292 227.474 48.8973 227.4 49.7158C227.4 51.452 227.276 53.1634 227.276 54.4531C227.276 55.7428 227.276 56.6109 227.276 56.6109C227.276 56.6522 227.284 56.693 227.301 56.7309C227.317 56.7687 227.341 56.8026 227.372 56.8306C227.402 56.8586 227.438 56.88 227.477 56.8935C227.516 56.9069 227.557 56.912 227.598 56.9085C227.668 56.905 227.735 56.8789 227.789 56.8342C227.842 56.7895 227.88 56.7286 227.896 56.6606C227.896 56.6606 228.045 55.7924 228.169 54.5027C228.293 53.2129 228.491 51.5016 228.566 49.7902C228.566 48.9221 228.566 48.054 228.566 47.3099C228.566 46.5659 228.566 45.7474 228.566 45.1025C228.566 43.788 228.566 42.9446 228.566 42.9446C228.566 42.9034 228.557 42.8626 228.541 42.8248C228.524 42.7869 228.5 42.7529 228.47 42.7249C228.44 42.6969 228.404 42.6756 228.365 42.6622C228.326 42.6488 228.284 42.6436 228.243 42.647C228.196 42.6744 228.157 42.7144 228.13 42.7625C228.104 42.8107 228.092 42.8651 228.094 42.9199V42.8951ZM233.849 44.6313C233.849 44.6313 233.7 45.3753 233.526 46.4667C233.526 47.0371 233.353 47.682 233.278 48.3764C233.204 49.0709 233.129 49.815 233.055 50.5591C233.055 52.0472 232.881 53.5354 232.857 54.6515C232.832 55.7676 232.857 56.5365 232.857 56.5365C232.86 56.5756 232.871 56.6137 232.888 56.6487C232.906 56.6836 232.931 56.7147 232.961 56.74C232.991 56.7654 233.026 56.7846 233.063 56.7965C233.1 56.8084 233.14 56.8128 233.179 56.8094C233.246 56.8047 233.309 56.7777 233.358 56.7327C233.408 56.6877 233.441 56.6273 233.452 56.5613C233.452 56.5613 233.601 55.8172 233.774 54.7259C233.948 53.6346 234.097 52.1216 234.221 50.6583C234.221 49.9142 234.221 49.1701 234.37 48.4757C234.518 47.7812 234.37 47.1115 234.37 46.5411C234.37 45.4249 234.37 44.6809 234.37 44.6809C234.37 44.6396 234.361 44.5988 234.345 44.561C234.328 44.5231 234.304 44.4891 234.274 44.4611C234.243 44.4331 234.208 44.4118 234.169 44.3984C234.13 44.385 234.088 44.3798 234.047 44.3832C233.992 44.406 233.944 44.4435 233.909 44.4916C233.874 44.5398 233.853 44.5967 233.849 44.656V44.6313ZM239.404 46.9875C239.404 46.9875 239.256 47.6076 239.057 48.5501C239.057 48.9965 238.859 49.5422 238.784 50.1375C238.71 50.7327 238.611 51.3528 238.512 51.9728C238.338 53.2378 238.263 54.4531 238.214 55.4452C238.164 56.4373 238.214 57.0326 238.214 57.0326C238.214 57.0738 238.222 57.1146 238.239 57.1525C238.255 57.1903 238.279 57.2243 238.31 57.2523C238.34 57.2803 238.376 57.3017 238.415 57.3151C238.454 57.3285 238.495 57.3336 238.536 57.3302C238.6 57.3269 238.66 57.3034 238.709 57.2633C238.758 57.2231 238.793 57.1684 238.809 57.107C238.809 57.107 238.983 56.4869 239.156 55.5692C239.33 54.6515 239.578 53.3618 239.727 52.1216C239.727 51.4768 239.851 50.8567 239.901 50.2614C239.95 49.6662 239.901 49.1205 239.901 48.6493C239.901 47.7068 239.901 47.0619 239.901 47.0619C239.901 47.0206 239.892 46.9798 239.876 46.942C239.859 46.9042 239.835 46.8701 239.805 46.8422C239.774 46.8142 239.739 46.7928 239.7 46.7794C239.661 46.766 239.619 46.7608 239.578 46.7643C239.532 46.7898 239.493 46.8254 239.463 46.8683C239.433 46.9113 239.413 46.9605 239.404 47.0123V46.9875Z" fill="#F18380"/>
<path d="M86.0309 225.611C86.5736 218.782 93.9002 192.6 101.77 177.685C101.77 177.685 118.935 174.964 129.99 175C141.525 175.038 159.445 177.685 159.445 177.685C164.577 189.297 170.423 214.665 172.125 220.138C173.153 223.358 173.278 226.797 172.486 230.083C171.695 233.369 170.017 236.375 167.635 238.775C161.789 245.407 146.716 253 143.238 253C128.273 250.864 113.605 247.009 99.5247 241.512C91.5814 238.184 85.5128 232.464 86.0309 225.611Z" fill="#93929C"/>
<path d="M140.765 79.4453C140.765 79.4453 151.807 81.3689 153.98 81.9435C155.245 82.2475 156.413 82.8642 157.378 83.7372C158.343 84.6102 159.073 85.7114 159.501 86.9399C160.85 90.2125 167.92 111.647 168.594 113.97C169.034 116.53 168.621 119.162 167.42 121.465C166.421 124.188 161.1 136.904 161.1 136.904L160.3 177.949H101.868C101.868 177.949 91.95 101.629 91.4754 96.9326C91.0007 92.236 93.324 83.0927 98.9699 81.9435C104.616 80.7943 120.08 79.4453 120.08 79.4453H140.765Z" fill="white"/>
<path d="M119.33 79.4453C121.641 87.5821 122.942 95.9725 123.202 104.427V214.972C123.202 218.369 121.728 218.594 119.955 218.594H88.4526C86.8288 218.594 84.3556 217.545 85.155 215.222C85.9544 212.898 92.9993 191.789 99.8693 177.374C99.8693 177.374 90.0265 98.0568 90.0265 94.3095C90.0265 90.5622 92.7745 82.9677 97.521 81.8185C102.268 80.6694 119.43 78.6958 119.43 78.6958L119.33 79.4453Z" fill="#002776"/>
<path d="M141.589 79.7206C142.988 90.3445 143.822 101.035 144.087 111.747V215.472C144.087 217.82 144.687 218.545 146.91 218.545H172.067C173.741 218.545 174.365 217.521 173.941 215.447C173.516 213.374 162.374 177.974 162.374 177.974L163.348 137.229C163.348 137.229 169.069 118.043 169.294 116.519C169.566 114.614 169.387 112.671 168.769 110.848C168.07 109.024 160.076 87.6149 159.326 86.066C158.821 85.0119 158.096 84.0784 157.2 83.3285C156.304 82.5786 155.257 82.0298 154.13 81.7191C151.432 81.0696 141.514 79.2209 141.514 79.2209L141.589 79.7206Z" fill="#002776"/>
<path d="M123.203 143.799C123.203 143.799 108.788 112.696 107.764 110.673C106.74 108.649 107.339 106.626 109.787 107C112.236 107.375 123.677 110.348 123.677 110.348L123.203 143.799Z" fill="#003399"/>
<path d="M123.652 111.422C123.652 111.422 110.911 101.754 109.787 100.955C109.251 100.539 108.858 99.9675 108.661 99.3186C108.464 98.6697 108.473 97.9756 108.688 97.3324C109.163 96.2581 115.608 77.3468 116.407 76.0478C117.289 74.9469 118.267 73.927 119.33 73C119.33 73 121.704 83.5673 122.503 88.7386C123.294 96.2735 123.678 103.846 123.652 111.422Z" fill="#003399"/>
<path d="M144.112 143.799C144.112 143.799 158.527 112.696 159.526 110.673C160.525 108.649 159.951 106.626 157.502 107C155.054 107.375 143.638 110.348 143.638 110.348L144.112 143.799Z" fill="#003399"/>
<path d="M143.638 111.422C143.638 111.422 154.979 101.754 155.979 100.955C156.459 100.498 156.777 99.8978 156.885 99.2442C156.993 98.5906 156.886 97.9195 156.578 97.3326C155.954 96.2584 145.911 79.4456 144.937 78.2714C143.905 77.167 142.785 76.1477 141.589 75.2236C141.589 75.2236 141.364 78.0716 141.439 80.5198C141.514 82.968 143.638 111.422 143.638 111.422Z" fill="#003399"/>
<g filter="url(#filter1_d_110_27)">
<rect x="109" y="120.672" width="40.9288" height="58.3236" rx="1" transform="rotate(-6.55484 109 120.672)" fill="#EFEFEF"/>
</g>
<path d="M128.217 146.811C131.063 145.609 133.637 143.827 135.775 141.578C137.098 140.189 138.599 138.984 140.236 137.994C141.197 137.394 142.026 136.601 142.671 135.667C143.524 134.217 144.23 132.686 144.777 131.098C144.98 129.73 145.446 128.411 146.147 127.217C146.815 126.605 149.169 126.932 150.392 129.308C150.813 130.366 151.004 131.505 150.952 132.649C150.899 133.793 150.605 134.916 150.088 135.942C149.48 137.172 149.004 138.463 148.667 139.792L148.889 139.925C150.752 138.936 152.742 138.219 154.8 137.795C155.546 137.628 156.323 137.719 157.006 138.051C157.69 138.384 158.239 138.94 158.566 139.629C158.893 140.319 158.978 141.102 158.808 141.852C158.638 142.602 158.223 143.276 157.629 143.765C160.84 144.134 160.476 149.086 157.719 149.741C158.31 149.988 158.808 150.414 159.147 150.959C159.486 151.504 159.649 152.142 159.614 152.788C159.579 153.434 159.349 154.056 158.953 154.569C158.557 155.083 158.016 155.464 157.402 155.661C159.36 157.466 157.929 160.441 154.374 160.454C151.485 160.748 143.76 161.957 141.072 162.536C138.385 163.114 132.983 161.835 131.247 162.372C128.664 163.318 125.664 163.334 123.376 156.537C121.087 149.74 125.559 147.69 128.217 146.811Z" fill="#FBBEAA"/>
<path d="M130 167L77.0001 189.5C69.7763 192.873 61.245 189.929 58.0001 181.5C57.4067 179.929 57.3666 177.36 57.4402 175.682C57.5137 174.004 57.9274 172.359 58.656 170.845C59.3846 169.332 60.734 166.604 61.9999 165.5C63.2657 164.396 67.7765 162.359 69.3748 161.843L129 145.5L130 167Z" fill="#002776"/>
<defs>
<filter id="filter0_f_110_27" x="0" y="498" width="247" height="63" filterUnits="userSpaceOnUse" color-interpolation-filters="sRGB">
<feFlood flood-opacity="0" result="BackgroundImageFix"/>
<feBlend mode="normal" in="SourceGraphic" in2="BackgroundImageFix" result="shape"/>
<feGaussianBlur stdDeviation="8.5" result="effect1_foregroundBlur_110_27"/>
</filter>
<filter id="filter1_d_110_27" x="109.108" y="116.107" width="49.1041" height="62.3995" filterUnits="userSpaceOnUse" color-interpolation-filters="sRGB">
<feFlood flood-opacity="0" result="BackgroundImageFix"/>
<feColorMatrix in="SourceAlpha" type="matrix" values="0 0 0 0 0 0 0 0 0 0 0 0 0 0 0 0 0 0 127 0" result="hardAlpha"/>
<feOffset dx="2"/>
<feComposite in2="hardAlpha" operator="out"/>
<feColorMatrix type="matrix" values="0 0 0 0 0.603922 0 0 0 0 0.6 0 0 0 0 0.631373 0 0 0 1 0"/>
<feBlend mode="normal" in2="BackgroundImageFix" result="effect1_dropShadow_110_27"/>
<feBlend mode="normal" in="SourceGraphic" in2="effect1_dropShadow_110_27" result="shape"/>
</filter>
</defs>
</svg>
