<svg width="224" height="515" viewBox="0 0 224 515" fill="none" xmlns="http://www.w3.org/2000/svg">
<g clip-path="url(#clip0_21_287)">
<path d="M125.357 64.2551H155.272V98.7824H125.357V64.2551Z" fill="#FBBEAA"/>
<path d="M155.198 64.2551H125.382V83.5182C126.684 83.677 127.995 83.7584 129.307 83.762C139.594 83.762 151.098 81.0067 155.297 71.3751L155.198 64.2551Z" fill="#F18380"/>
<path d="M109.901 38.6284C110.15 48.6013 109.901 56.4772 111.74 64.0849C113.579 71.6926 119.194 77.9104 131.618 77.9104C144.041 77.9104 158.204 73.9359 159.198 58.6961C161.235 56.526 164.54 48.7964 164.664 40.1402C164.788 31.484 164.093 13.1719 143.991 10.3677C123.89 7.56362 109.355 14.8056 109.901 38.6284Z" fill="#FBBEAA"/>
<path d="M120.412 46.4794C120.412 47.8205 119.592 48.9177 118.573 48.9177C117.554 48.9177 116.734 47.8205 116.734 46.4794C116.734 45.1383 117.554 44.041 118.573 44.041C119.592 44.041 120.412 45.0407 120.412 46.4794Z" fill="#403D4F"/>
<path d="M142.774 46.4794C142.774 47.8205 141.954 48.9177 140.936 48.9177C139.917 48.9177 139.097 47.8205 139.097 46.4794C139.097 45.1383 139.917 44.041 140.936 44.041C141.954 44.041 142.774 45.0407 142.774 46.4794Z" fill="#403D4F"/>
<path d="M138.277 41.4077C138.451 41.6272 139.768 41.4077 140.761 41.4077C141.755 41.4077 143.668 41.4077 143.668 41.1883C143.668 40.9688 142.724 39.457 140.24 39.7253C138.451 39.9203 137.805 41.0176 138.277 41.4077Z" fill="#403D4F"/>
<path d="M120.834 41.4078C120.684 41.6272 119.566 41.4078 118.697 41.4078C117.827 41.4078 116.212 41.4078 116.212 41.1883C116.435 40.6356 116.856 40.182 117.396 39.9126C117.936 39.6431 118.557 39.5765 119.144 39.7253C120.684 39.9204 121.107 41.0176 120.834 41.4078Z" fill="#403D4F"/>
<path d="M128.164 56.5746C126.425 56.5746 125.033 55.453 124.984 54.6483L125.555 47.7721C125.574 47.6017 125.66 47.4453 125.794 47.336C125.929 47.2267 126.101 47.1732 126.276 47.1869C126.361 47.1931 126.443 47.2157 126.519 47.2534C126.595 47.2911 126.663 47.3431 126.719 47.4066C126.774 47.47 126.816 47.5436 126.842 47.6231C126.869 47.7026 126.879 47.7864 126.872 47.8697L126.325 54.502C126.576 54.7693 126.885 54.978 127.229 55.113C127.573 55.248 127.943 55.3059 128.313 55.2823C128.4 55.2757 128.487 55.2863 128.57 55.3137C128.652 55.341 128.728 55.3845 128.793 55.4414C128.858 55.4984 128.911 55.5677 128.948 55.6451C128.985 55.7225 129.006 55.8064 129.009 55.8919C129.009 56.0648 128.943 56.2315 128.823 56.3582C128.703 56.4849 128.539 56.5623 128.363 56.5746H128.164Z" fill="#F18380"/>
<path d="M155.094 52.1366C157.818 51.8148 159.569 49.6982 160.063 47.2598C160.557 44.8215 162.107 46.0406 165.032 46.0406C167.958 46.0406 169.453 40.3959 170.373 36.1019C171.57 30.517 169.788 23.9789 168.033 21.6698C172.713 17.6288 170.373 3.77408 169.203 8.39231C168.267 12.0869 164.913 13.7803 163.352 14.1651C158.672 -2.92243 140.339 0.117947 131.758 3.77408C124.738 1.00312 118.692 4.92865 116.547 7.23778C106.015 3.77409 101.335 8.39235 98.9944 10.7015C96.6541 13.0106 93.7287 26.2881 103.675 32.0609C111.632 36.6792 123.372 32.8306 128.248 30.3291C133.865 34.9473 141.51 33.4079 144.63 32.0609C145.098 34.8319 150.464 38.7958 152.609 41.2974C154.754 43.799 153.851 52.2833 155.094 52.1366Z" fill="#F3E8AE"/>
<path d="M158.651 51.1123C158.775 48.3325 159.223 44.2361 163.248 44.1386C167.273 44.041 167.795 47.0158 167.671 51.6975C167.546 56.3791 162.701 60.3537 158.452 58.7444L158.651 51.1123Z" fill="#FBBEAA"/>
<path d="M164.565 54.4775C164.391 54.4476 164.235 54.3515 164.133 54.2099C164.031 54.0683 163.989 53.8928 164.018 53.7216C164.018 53.5839 163.978 53.4492 163.904 53.3327C163.829 53.2163 163.722 53.1228 163.596 53.0632C163.342 52.8965 163.044 52.8075 162.739 52.8075C162.433 52.8075 162.135 52.8965 161.881 53.0632C161.771 53.123 161.647 53.1543 161.521 53.1543C161.395 53.1543 161.271 53.123 161.161 53.0632C161.059 52.9976 160.978 52.9062 160.926 52.7988C160.873 52.6915 160.851 52.5722 160.863 52.4536C161.21 48.5278 163.77 47.7963 163.869 47.7719C163.954 47.7463 164.043 47.738 164.131 47.7477C164.22 47.7574 164.305 47.7849 164.382 47.8283C164.459 47.8718 164.526 47.9304 164.579 48.0004C164.631 48.0704 164.669 48.1503 164.689 48.2352C164.735 48.3969 164.714 48.5698 164.63 48.7161C164.546 48.8624 164.406 48.97 164.242 49.0155C163.745 49.236 163.313 49.5744 162.983 50.0002C162.653 50.4259 162.437 50.9255 162.353 51.4539C163.034 51.345 163.732 51.4837 164.316 51.844C164.657 52.0398 164.932 52.3284 165.108 52.6747C165.285 53.0209 165.355 53.41 165.31 53.7947C165.314 53.8897 165.298 53.9845 165.261 54.0725C165.224 54.1605 165.169 54.2397 165.098 54.3045C165.027 54.3694 164.943 54.4185 164.851 54.4483C164.759 54.4782 164.661 54.4881 164.565 54.4775Z" fill="#F18380"/>
<path d="M129.878 65.3523C132.276 65.2615 134.58 64.4054 136.438 62.9139" stroke="#73102A" stroke-width="0.5" stroke-miterlimit="10" stroke-linecap="round"/>
</g>
<path d="M41.6679 101.727C41.5445 99.0299 42.2664 96.362 43.7329 94.0954C45.9906 91.4776 47.682 90.834 48.7007 87.5306C49.4843 84.4642 50.736 81.5369 52.4116 78.8519C53.6087 77.2059 55.4043 75.8593 55.4043 74.6023C55.4043 73.3454 53.0102 70.9214 49.5985 71.6097C48.1372 72.0649 46.7945 72.8375 45.6667 73.8723C44.5388 74.907 43.6536 76.1782 43.0745 77.595C42.7476 76.7318 42.5559 75.8233 42.5059 74.9016L41.7578 54.1434C41.7464 53.6679 41.6399 53.1994 41.4444 52.7657C41.249 52.3319 40.9686 51.9418 40.6199 51.6182C40.2712 51.2946 39.8613 51.0442 39.4142 50.8816C38.9671 50.7191 38.4921 50.6478 38.017 50.6719C37.2606 50.7042 36.5333 50.9727 35.9374 51.4397C35.635 51.6767 30.5732 57.8155 25.6325 63.9003C20.8368 69.8065 16.1552 75.6618 16.0508 76.0198C17.0114 84.7427 18.8155 93.3519 21.4376 101.727C21.4693 103.125 21.7933 104.501 22.3886 105.767C22.984 107.032 23.8375 108.159 24.8945 109.076C25.9515 109.992 27.1884 110.676 28.5258 111.086C29.8632 111.495 31.2715 111.62 32.6601 111.453C33.9167 111.495 35.1677 111.266 36.3281 110.782C37.4886 110.298 38.5313 109.57 39.3857 108.647C40.2401 107.725 40.8861 106.629 41.2799 105.435C41.6736 104.241 41.8059 102.976 41.6679 101.727Z" fill="#FBBEAA"/>
<path d="M36.8442 45.5547L57.6648 65.978C57.8853 65.664 58.106 65.3333 58.3266 65.0193C58.9883 64.0605 59.6586 63.0935 60.3203 62.1348C60.5664 61.7794 60.8039 61.4323 61.05 61.0769C62.0425 59.6471 61.8495 57.7112 60.6141 56.496L46.2671 42.4191C45.0317 41.2039 43.0916 41.0552 41.679 42.0715C41.3342 42.3257 40.9896 42.5631 40.6448 42.8173C39.6947 43.4975 38.7446 44.1777 37.7945 44.8578C37.4833 45.0957 37.1637 45.3252 36.8442 45.5547Z" fill="#E2874A"/>
<g opacity="0.53">
<path d="M37.7942 44.8729L58.3349 65.0095C58.9967 64.0507 59.6669 63.0838 60.3286 62.125L40.6529 42.8242C39.6944 43.5126 38.7443 44.1928 37.7942 44.8729Z" fill="#D46424"/>
</g>
<path d="M33.1788 48.2789C32.4176 49.1865 31.6482 50.0855 30.8786 51.0013C29.7963 52.2716 28.7307 53.5421 27.6566 54.8208C23.513 59.721 19.386 64.6214 15.2424 69.5215C13.0183 72.1531 10.7942 74.7847 8.57018 77.4163C7.14946 79.0992 7.26918 81.5843 8.834 83.1203L20.6692 94.7245C22.234 96.2604 24.7251 96.3325 26.3848 94.8775C28.9712 92.6004 31.5659 90.3317 34.1523 88.0546C38.9714 83.8128 43.7902 79.5876 48.6093 75.3458C49.8644 74.2526 51.1198 73.1427 52.3667 72.0411C53.2514 71.2601 54.1527 70.4794 55.0457 69.6902C56.1999 68.6791 56.66 67.1761 56.4019 65.7811C56.2619 64.9626 55.8548 64.1743 55.2207 63.5414L39.3501 47.9708C38.6994 47.3378 37.9123 46.9531 37.0804 46.8263C35.6577 46.6173 34.1683 47.0992 33.1788 48.2789Z" fill="#F5F5F5"/>
<path d="M27.6555 54.819C23.5118 59.7192 19.3849 64.6195 15.2412 69.5197L34.1428 88.061C38.9618 83.8192 43.7806 79.594 48.6079 75.3606L27.6555 54.819Z" fill="#E2874A"/>
<g opacity="0.52">
<path d="M37.1868 77.9368C39.6636 75.7667 42.1237 73.5964 44.5921 71.4345L48.5864 75.3588C43.7674 79.6006 38.9485 83.8258 34.1213 88.0592L15.2197 69.5178C15.8877 68.7342 16.539 67.9504 17.207 67.1667L27.9385 77.6907C30.4835 80.1804 34.5162 80.2796 37.1868 77.9368Z" fill="#E2874A"/>
</g>
<path d="M33.1488 47.8436L55.4518 69.7185C56.6295 70.8747 58.5299 70.8646 59.6863 69.6702L59.796 69.5631C60.9522 68.3854 60.9336 66.4933 59.7476 65.3287L37.4446 43.4537C36.2668 42.2976 34.3747 42.3162 33.21 43.5021L33.1004 43.6091C31.9524 44.7953 31.971 46.6874 33.1488 47.8436Z" fill="#E2874A"/>
<g opacity="0.53">
<path d="M34.4133 42.7752C33.9998 43.8703 34.2426 45.1484 35.1322 46.0094L57.3695 67.8168C58.2095 68.6438 59.4068 68.8751 60.4528 68.5295C60.3064 68.9194 60.0853 69.2834 59.7732 69.588L59.731 69.6292C58.558 70.8234 56.6241 70.8498 55.4299 69.6767L33.1926 47.8693C31.9984 46.6963 31.972 44.7623 33.1451 43.5681L33.1872 43.527C33.5415 43.1813 33.9614 42.9197 34.4133 42.7752Z" fill="#D46424"/>
</g>
<path d="M32.6439 71.3225C30.6089 70.7559 28.8312 70.2675 26.8333 72.8102C28.0483 74.3252 30.5054 75.1386 33.1362 74.6956C36.5019 74.1282 38.9231 71.7324 38.678 69.2708C37.6538 70.5668 36.0355 72.0473 34.1396 71.6908C33.6406 71.6013 33.1256 71.4617 32.6439 71.3225Z" fill="#5B2500"/>
<path d="M31.5982 65.5255C28.1323 66.1084 25.6595 68.6369 26.087 71.1674C26.0944 71.2425 26.1185 71.3179 26.1344 71.3847C28.5926 68.6893 31.0264 69.3608 33.0365 69.9187C33.5182 70.0579 33.9668 70.18 34.416 70.2522C35.8296 70.5195 37.2752 68.8452 38.0736 67.6214C36.9186 65.9654 34.3625 65.0675 31.5982 65.5255Z" fill="#5B2500"/>
<path d="M32.5097 59.9368C34.2095 57.225 30.7581 53.6489 28.5681 52.2516C28.5681 52.2516 27.2502 50.7267 24.5187 53.4583C21.5022 56.4749 23.3121 58.5395 23.3121 58.5395C25.2831 60.6355 29.8821 64.1287 32.5097 59.9368Z" fill="#FBBEAA"/>
<path d="M27.683 65.1875C29.3829 62.4757 25.9314 58.8997 23.7414 57.5024C23.7414 57.5024 22.4235 55.9775 19.692 58.7091C16.6756 61.7257 18.4855 63.7902 18.4855 63.7902C20.4564 65.8862 25.0554 69.3794 27.683 65.1875Z" fill="#FBBEAA"/>
<path d="M22.8569 70.014C24.5567 67.3022 21.1052 63.7261 18.9153 62.3288C18.9153 62.3288 17.5974 60.8039 14.8659 63.5355C11.8494 66.5521 13.6593 68.6166 13.6593 68.6166C15.6302 70.7126 20.2292 74.2059 22.8569 70.014Z" fill="#FBBEAA"/>
<path d="M16.9016 74.3101C18.3104 72.0372 15.4499 69.0399 13.6349 67.8687C13.6349 67.8687 12.5427 66.5907 10.2789 68.8802C7.77897 71.4085 9.27895 73.1389 9.27895 73.1389C10.9124 74.8957 14.7239 77.8235 16.9016 74.3101Z" fill="#FBBEAA"/>
<path d="M185.049 102.455C190.711 109.734 217.99 186.243 217.99 186.243C187.659 176.537 202.734 172.816 186.237 175.592C186.237 175.592 160.464 120.895 159.738 116.901C158.98 113.752 159.32 110.439 160.702 107.509C162.084 104.58 164.425 102.211 167.338 100.794C175.456 96.6436 179.387 95.1749 185.049 102.455Z" fill="#002776"/>
<path d="M106.68 99.8322L47.3053 139.877C47.5551 141.925 42.7435 99.8322 42.7435 99.8322L20.7669 101.883C20.7669 101.883 22.0508 144.739 25.2849 167.372C26.5684 176.355 34.0447 179.761 42.9097 177.827C47.2866 176.872 51.4071 175.076 55.0738 172.502C70.8302 161.443 115.034 130.292 118.648 126.374C124.883 119.613 124.883 114.548 121.3 108.982C117.717 103.416 110.048 98.996 106.68 99.8322Z" fill="#001A4B"/>
<path d="M157.105 327.707C157.184 334.123 154.711 340.308 150.23 344.901C145.749 349.495 139.627 352.12 133.21 352.199C126.794 352.278 120.609 349.805 116.016 345.324C111.423 340.843 108.798 334.721 108.718 328.304C108.718 328.304 105.657 238.998 104.612 220.903C103.566 202.808 108.295 188.297 128.655 186.206C149.762 184.041 161.013 200.543 161.013 215.875C161.013 231.208 157.105 327.707 157.105 327.707Z" fill="#7C7C7C"/>
<path d="M196.805 325.99C197.22 329.161 197.002 332.383 196.163 335.47C195.325 338.556 193.883 341.446 191.92 343.971C189.958 346.497 187.514 348.608 184.731 350.184C181.947 351.759 178.879 352.766 175.703 353.148C172.528 353.53 169.308 353.278 166.231 352.407C163.153 351.537 160.279 350.065 157.774 348.076C155.269 346.087 153.183 343.622 151.637 340.822C150.091 338.022 149.115 334.943 148.767 331.764C148.767 331.764 136.172 243.304 133.186 225.433C130.199 207.562 133.36 192.603 153.372 188.347C174.13 183.941 187.098 199.149 188.666 214.382C190.234 229.615 196.805 325.99 196.805 325.99Z" fill="#7C7C7C"/>
<path d="M117.38 432.943C117.38 432.943 118.575 483.694 118.873 491.285C119.172 498.877 123.976 500.943 131.717 501.615C139.458 502.287 142.718 496.139 143.813 491.26C144.908 486.382 151.529 436.626 151.529 436.626L117.38 432.943Z" fill="#FBBEAA"/>
<path d="M118.251 468.336L146.8 471.398C149.015 455.692 151.529 436.551 151.529 436.551L117.38 432.868C117.38 432.868 117.828 451.884 118.251 468.336Z" fill="#F18380"/>
<path d="M157.105 327.707C157.066 324.53 156.401 321.392 155.149 318.471C153.897 315.551 152.082 312.906 149.808 310.687C147.533 308.468 144.844 306.719 141.894 305.54C138.944 304.36 135.79 303.773 132.613 303.812C129.436 303.852 126.298 304.516 123.377 305.768C120.457 307.02 117.812 308.835 115.593 311.11C113.375 313.384 111.625 316.073 110.446 319.023C109.266 321.974 108.679 325.127 108.718 328.304L113.697 469.762L152.749 473.968L157.105 327.707Z" fill="#7C7C7C"/>
<path d="M168.48 434.884C168.48 434.884 175.101 485.212 176.196 492.704C177.291 500.196 182.294 501.789 190.085 501.615C197.875 501.44 200.439 494.994 201.012 490.041C201.584 485.088 202.829 434.884 202.829 434.884H168.48Z" fill="#FBBEAA"/>
<path d="M173.259 469.979H201.982C202.48 454.149 202.953 434.884 202.953 434.884H168.48C168.48 434.884 170.969 453.651 173.259 469.979Z" fill="#F18380"/>
<path d="M196.806 325.99C195.979 319.671 192.693 313.933 187.66 310.023C182.628 306.113 176.256 304.347 169.929 305.107C163.602 305.868 157.831 309.094 153.868 314.085C149.906 319.076 148.073 325.429 148.768 331.764L170.422 474.74H209.698L196.806 325.99Z" fill="#7C7C7C"/>
<path d="M148.792 331.764L171.118 473.495" stroke="#565656" stroke-width="0.75" stroke-miterlimit="10" stroke-linecap="round"/>
<path d="M148.767 331.764C148.767 331.764 136.172 243.305 133.185 225.433" stroke="#565656" stroke-width="0.75" stroke-miterlimit="10" stroke-linecap="round"/>
<path d="M187.471 475.878C184.648 475.676 181.849 476.517 179.605 478.242C177.361 479.967 175.829 482.456 175.3 485.237L162.307 498.553V506.841H203.948C203.948 506.841 201.857 491.907 201.26 488.547C200.663 485.187 198.647 475.878 187.471 475.878Z" fill="#FBBEAA"/>
<path d="M175.325 485.137C174.852 484.49 174.18 483.992 173.707 484.291C173.234 484.59 160.665 494.546 160.067 495.043C159.699 495.389 159.421 495.819 159.256 496.296C159.092 496.773 159.045 497.283 159.122 497.781V508.459H204.87C204.87 508.459 203.078 492.679 202.953 491.808C202.829 490.937 201.957 489.792 201.46 489.816C198.32 490.779 195.061 491.298 191.777 491.36C187.413 491.591 183.06 490.736 179.108 488.871C177.643 487.852 176.363 486.589 175.325 485.137Z" fill="black"/>
<path d="M166.638 499.498C168.853 497.856 176.818 491.633 179.805 489.293L179.108 488.945C179.014 488.905 178.929 488.845 178.859 488.771C175.673 491.26 168.181 497.134 166.04 498.727C164.231 500.113 162.991 502.114 162.556 504.352L163.526 504.501C163.937 502.517 165.04 500.744 166.638 499.498Z" fill="white"/>
<path d="M203.625 497.582C200.401 497.615 197.281 498.728 194.764 500.743C192.489 502.759 190.948 505.473 190.384 508.459H191.728C192.277 505.871 193.637 503.526 195.61 501.764C197.927 499.909 200.807 498.899 203.774 498.901L203.625 497.582Z" fill="white"/>
<path d="M151.728 508.435H204.869C205.24 508.435 205.541 508.735 205.541 509.107V514.259C205.541 514.63 205.24 514.931 204.869 514.931H151.728C151.357 514.931 151.056 514.63 151.056 514.259V509.107C151.056 508.735 151.357 508.435 151.728 508.435Z" fill="white"/>
<path d="M160.192 494.944C159.719 494.745 157.404 495.417 154.392 498.379C153.138 499.675 152.236 501.269 151.77 503.011C151.304 504.754 151.29 506.586 151.729 508.335H166.837C165.991 498.777 160.665 495.143 160.192 494.944Z" fill="white"/>
<path d="M165.991 495.093C166.177 495.322 166.266 495.615 166.238 495.908C166.21 496.202 166.068 496.472 165.841 496.661C165.73 496.753 165.602 496.822 165.464 496.864C165.327 496.906 165.182 496.921 165.039 496.907C164.895 496.893 164.756 496.851 164.629 496.783C164.502 496.716 164.389 496.623 164.298 496.512L161.809 493.5C161.622 493.272 161.534 492.979 161.561 492.686C161.589 492.392 161.732 492.121 161.958 491.932C162.068 491.837 162.196 491.766 162.334 491.722C162.472 491.678 162.618 491.662 162.762 491.676C162.906 491.69 163.046 491.733 163.173 491.803C163.301 491.873 163.412 491.968 163.502 492.082L165.991 495.093Z" fill="white"/>
<path d="M168.952 492.828C169.139 493.056 169.228 493.349 169.2 493.643C169.172 493.936 169.029 494.207 168.803 494.396C168.694 494.491 168.566 494.563 168.428 494.607C168.289 494.651 168.144 494.666 168 494.652C167.855 494.638 167.715 494.595 167.588 494.525C167.461 494.456 167.349 494.361 167.26 494.247L164.771 491.235C164.59 491.004 164.505 490.713 164.533 490.421C164.561 490.129 164.699 489.859 164.92 489.667C165.03 489.572 165.158 489.5 165.296 489.456C165.434 489.412 165.58 489.397 165.724 489.411C165.868 489.425 166.008 489.468 166.135 489.538C166.262 489.607 166.374 489.702 166.463 489.816L168.952 492.828Z" fill="white"/>
<path d="M171.815 490.588C172.003 490.809 172.095 491.096 172.072 491.386C172.049 491.675 171.912 491.943 171.69 492.131C171.462 492.318 171.169 492.407 170.876 492.379C170.582 492.351 170.312 492.208 170.122 491.982L167.633 488.97C167.529 488.868 167.446 488.746 167.389 488.612C167.332 488.477 167.303 488.332 167.303 488.186C167.303 488.04 167.332 487.896 167.389 487.761C167.446 487.626 167.529 487.504 167.633 487.402C167.864 487.222 168.155 487.137 168.447 487.164C168.739 487.192 169.009 487.331 169.201 487.552L171.815 490.588Z" fill="white"/>
<path d="M174.702 488.323C174.794 488.434 174.863 488.562 174.905 488.7C174.947 488.838 174.961 488.983 174.948 489.126C174.934 489.269 174.892 489.408 174.824 489.536C174.756 489.663 174.664 489.775 174.553 489.867C174.343 490.072 174.062 490.187 173.769 490.187C173.476 490.187 173.194 490.072 172.985 489.867L170.496 486.83C170.309 486.602 170.22 486.309 170.248 486.015C170.276 485.722 170.419 485.451 170.645 485.262C170.756 485.17 170.884 485.101 171.022 485.059C171.16 485.017 171.304 485.003 171.448 485.016C171.591 485.03 171.73 485.072 171.857 485.14C171.984 485.208 172.097 485.3 172.188 485.411L174.702 488.323Z" fill="white"/>
<path d="M128.979 475.878C126.156 475.676 123.357 476.517 121.113 478.242C118.87 479.967 117.337 482.456 116.808 485.237L103.84 498.553V506.841H145.457C145.457 506.841 143.391 491.907 142.768 488.547C142.146 485.187 140.155 475.878 128.979 475.878Z" fill="#FBBEAA"/>
<path d="M116.833 485.137C116.36 484.49 115.713 483.992 115.215 484.291C114.717 484.59 102.173 494.546 101.6 495.043C101.028 495.541 100.629 496.164 100.629 497.781V508.459H146.377C146.377 508.459 144.585 492.679 144.461 491.808C144.336 490.937 143.465 489.792 142.967 489.816C139.828 490.779 136.569 491.298 133.285 491.36C128.929 491.595 124.583 490.74 120.641 488.871C119.164 487.857 117.876 486.594 116.833 485.137Z" fill="black"/>
<path d="M108.146 499.498C110.361 497.856 118.326 491.633 121.313 489.293L120.641 488.945C120.539 488.905 120.446 488.846 120.367 488.771C117.181 491.26 109.689 497.134 107.549 498.727C105.739 500.113 104.5 502.114 104.064 504.352L105.035 504.501C105.458 502.522 106.558 500.753 108.146 499.498Z" fill="white"/>
<path d="M145.133 497.582C141.909 497.615 138.789 498.728 136.272 500.743C133.998 502.759 132.457 505.473 131.892 508.459H133.236C133.792 505.868 135.161 503.523 137.144 501.764C139.448 499.905 142.322 498.895 145.283 498.901L145.133 497.582Z" fill="white"/>
<path d="M93.2368 508.435H146.377C146.748 508.435 147.049 508.735 147.049 509.107V514.259C147.049 514.63 146.748 514.931 146.377 514.931H93.2368C92.8656 514.931 92.5647 514.63 92.5647 514.259V509.107C92.5647 508.735 92.8656 508.435 93.2368 508.435Z" fill="white"/>
<path d="M101.7 494.944C101.227 494.745 98.9118 495.417 95.9001 498.379C94.6462 499.675 93.7435 501.269 93.2775 503.011C92.8115 504.754 92.7975 506.586 93.2369 508.335H108.345C107.499 498.777 102.172 495.143 101.7 494.944Z" fill="white"/>
<path d="M107.599 495.093C107.786 495.322 107.874 495.615 107.847 495.908C107.819 496.202 107.676 496.472 107.45 496.661C107.339 496.753 107.21 496.822 107.073 496.864C106.935 496.906 106.79 496.921 106.647 496.907C106.504 496.893 106.364 496.851 106.237 496.783C106.11 496.716 105.998 496.623 105.906 496.512L103.417 493.5C103.237 493.27 103.152 492.978 103.18 492.687C103.207 492.395 103.346 492.125 103.567 491.932C103.676 491.837 103.804 491.766 103.942 491.722C104.08 491.678 104.226 491.662 104.37 491.676C104.515 491.69 104.655 491.733 104.782 491.803C104.909 491.873 105.021 491.968 105.11 492.082L107.599 495.093Z" fill="white"/>
<path d="M110.461 492.828C110.647 493.057 110.736 493.349 110.708 493.643C110.68 493.937 110.538 494.207 110.311 494.396C110.202 494.491 110.074 494.563 109.936 494.607C109.798 494.651 109.652 494.666 109.508 494.652C109.363 494.638 109.224 494.595 109.096 494.526C108.969 494.456 108.858 494.361 108.768 494.247L106.279 491.235C106.099 491.004 106.014 490.713 106.041 490.421C106.069 490.13 106.208 489.86 106.429 489.667C106.657 489.481 106.95 489.392 107.243 489.42C107.537 489.448 107.808 489.59 107.997 489.816L110.461 492.828Z" fill="white"/>
<path d="M113.323 490.588C113.427 490.688 113.51 490.808 113.566 490.94C113.623 491.073 113.652 491.216 113.652 491.36C113.652 491.504 113.623 491.646 113.566 491.779C113.51 491.912 113.427 492.031 113.323 492.131C113.095 492.318 112.802 492.407 112.509 492.379C112.215 492.351 111.944 492.208 111.755 491.982L109.266 488.97C109.08 488.742 108.991 488.449 109.019 488.155C109.047 487.862 109.189 487.591 109.415 487.402C109.527 487.31 109.655 487.242 109.792 487.199C109.93 487.157 110.075 487.143 110.218 487.157C110.361 487.171 110.501 487.213 110.628 487.28C110.755 487.348 110.867 487.44 110.959 487.551L113.323 490.588Z" fill="white"/>
<path d="M116.21 488.323C116.302 488.434 116.37 488.562 116.413 488.7C116.455 488.838 116.469 488.983 116.455 489.126C116.441 489.269 116.399 489.408 116.332 489.536C116.264 489.663 116.172 489.775 116.061 489.867C115.851 490.072 115.57 490.187 115.277 490.187C114.983 490.187 114.702 490.072 114.493 489.867L112.003 486.83C111.817 486.602 111.728 486.309 111.756 486.015C111.784 485.722 111.927 485.451 112.153 485.262C112.264 485.17 112.392 485.101 112.53 485.059C112.667 485.017 112.812 485.003 112.955 485.016C113.099 485.03 113.238 485.072 113.365 485.14C113.492 485.208 113.605 485.3 113.696 485.411L116.21 488.323Z" fill="white"/>
<path d="M105.343 201.545C105.343 201.545 105.343 227.356 105.343 228.775C105.343 230.194 117.789 242.365 134.316 242.365C159.729 242.365 190.144 233.081 189.696 227.033C189.398 223.05 186.894 201.545 186.894 201.545H105.343Z" fill="#7C7C7C"/>
<path d="M123.826 92.6757C137.765 104.623 151.62 97.6537 156.184 91.4312L176.096 100.143L171.118 192.236L105.159 194.725L107.648 106.365L123.826 92.6757Z" fill="white"/>
<path d="M105.262 100.616C107.926 98.8733 125.174 88.9172 125.174 88.9172V220.188C123.262 222.051 122.871 222.007 120.125 221.696L119.997 221.681C114.061 220.191 108.334 217.967 102.948 215.061C102.948 215.061 100.658 119.582 100.085 112.314C99.5127 105.046 102.599 102.358 105.262 100.616Z" fill="#002776"/>
<path d="M151.792 221.65C150.582 221.393 149.436 220.896 148.422 220.188L155.192 87.5731C155.192 87.5731 174.731 95.5131 179.933 97.8279C182.095 98.74 183.949 100.255 185.273 102.193C186.598 104.131 187.336 106.409 187.4 108.755C187.723 113.135 188.171 210.232 188.246 211.078C188.321 211.924 187.599 212.397 186.827 212.845C186.056 213.293 161.663 220.412 155.466 221.681C154.251 221.917 153.002 221.906 151.792 221.65Z" fill="#002776"/>
<g filter="url(#filter0_d_21_287)">
<rect width="44.9974" height="64.1213" rx="1" transform="matrix(-0.993463 -0.114154 -0.114154 0.993463 161.616 133.626)" fill="#EFEFEF"/>
</g>
<path d="M142.665 159.61C139.476 158.263 136.593 156.266 134.198 153.747C132.716 152.191 131.035 150.841 129.2 149.732C128.124 149.06 127.195 148.172 126.473 147.125C125.517 145.501 124.727 143.787 124.113 142.007C123.886 140.474 123.365 138.998 122.578 137.659C121.831 136.974 119.193 137.34 117.824 140.002C117.352 141.187 117.138 142.464 117.197 143.745C117.255 145.027 117.585 146.284 118.164 147.433C118.845 148.812 119.379 150.258 119.756 151.747L119.507 151.895C117.421 150.788 115.191 149.984 112.886 149.51C112.05 149.323 111.179 149.424 110.414 149.796C109.649 150.169 109.033 150.792 108.667 151.564C108.301 152.337 108.205 153.214 108.396 154.054C108.586 154.894 109.051 155.649 109.716 156.197C106.119 156.61 106.528 162.158 109.615 162.891C108.954 163.169 108.396 163.645 108.016 164.256C107.637 164.866 107.454 165.581 107.493 166.305C107.532 167.028 107.79 167.725 108.233 168.301C108.676 168.876 109.283 169.303 109.971 169.524C107.778 171.546 109.381 174.878 113.363 174.893C116.599 175.222 125.253 176.577 128.264 177.225C131.274 177.873 137.326 176.439 139.27 177.041C142.164 178.101 145.525 178.119 148.088 170.504C150.652 162.89 145.642 160.594 142.665 159.61Z" fill="#FBBEAA"/>
<path d="M136.968 180.037L195.255 203.504C202.704 207.249 214.806 205.328 218.454 196.616C219.122 194.991 219.453 193.248 219.427 191.492C219.401 189.736 219.019 188.003 218.303 186.399C217.587 184.795 216.553 183.353 215.264 182.161C213.974 180.969 212.456 180.051 210.801 179.463L141.914 154.548L136.968 180.037Z" fill="#002776"/>
<defs>
<filter id="filter0_d_21_287" x="109.701" y="128.597" width="53.8081" height="68.6238" filterUnits="userSpaceOnUse" color-interpolation-filters="sRGB">
<feFlood flood-opacity="0" result="BackgroundImageFix"/>
<feColorMatrix in="SourceAlpha" type="matrix" values="0 0 0 0 0 0 0 0 0 0 0 0 0 0 0 0 0 0 127 0" result="hardAlpha"/>
<feOffset dx="2"/>
<feComposite in2="hardAlpha" operator="out"/>
<feColorMatrix type="matrix" values="0 0 0 0 0.603922 0 0 0 0 0.6 0 0 0 0 0.631373 0 0 0 1 0"/>
<feBlend mode="normal" in2="BackgroundImageFix" result="effect1_dropShadow_21_287"/>
<feBlend mode="normal" in="SourceGraphic" in2="effect1_dropShadow_21_287" result="shape"/>
</filter>
<clipPath id="clip0_21_287">
<rect width="74.1299" height="97.8515" fill="white" transform="matrix(-1 0 0 1 170.833 0.930908)"/>
</clipPath>
</defs>
</svg>
