<svg width="250" height="562" viewBox="0 0 250 562" fill="none" xmlns="http://www.w3.org/2000/svg">
<g opacity="0.3" filter="url(#filter0_f_110_29)">
<ellipse cx="106.5" cy="14.5" rx="106.5" ry="14.5" transform="matrix(1 0 0 -1 17.5 545)" fill="#CBCBCB"/>
</g>
<path d="M88.6309 223.493C89.1819 216.556 96.6199 189.96 104.609 174.808C104.609 174.808 122.037 177.01 133.26 177.046C144.97 177.084 163.161 174.808 163.161 174.808C168.371 186.604 174.306 212.374 176.034 217.934C177.077 221.205 177.204 224.699 176.4 228.037C175.597 231.375 173.894 234.429 171.476 236.867C165.541 243.604 150.239 251.317 146.708 251.317C131.515 249.147 116.624 245.231 102.33 239.647C94.2658 236.266 88.105 230.456 88.6309 223.493Z" fill="#93929C"/>
<path d="M226.948 79.0403C227.052 76.7835 226.447 74.5509 225.22 72.6541C223.331 70.4635 221.915 67.9054 221.063 65.141C220.407 62.5749 219.36 60.1252 217.958 57.8782C216.956 56.5008 215.453 55.3739 215.453 54.322C215.453 53.2702 217.457 51.2416 220.312 51.8176C221.535 52.1986 222.658 52.8452 223.602 53.7111C224.546 54.577 225.287 55.6408 225.771 56.8264C226.045 56.104 226.205 55.3438 226.247 54.5725L226.873 39.2206C226.883 38.8226 226.972 38.4306 227.135 38.0676C227.299 37.7047 227.534 37.3782 227.825 37.1074C228.117 36.8366 228.46 36.627 228.834 36.491C229.208 36.355 229.606 36.2953 230.004 36.3155C230.637 36.3425 231.245 36.5672 231.744 36.958C232.242 37.3488 232.606 37.8861 232.784 38.4943V37.7931C232.88 37.0468 233.255 36.3646 233.833 35.8834C234.412 35.4022 235.151 35.1576 235.902 35.1988C236.654 35.24 237.362 35.564 237.884 36.1056C238.407 36.6471 238.705 37.3663 238.719 38.1187V40.2474C238.97 39.5911 239.448 39.0468 240.067 38.7136C240.685 38.3805 241.403 38.2808 242.089 38.4325C242.775 38.5843 243.384 38.9775 243.804 39.5404C244.224 40.1034 244.428 40.7987 244.379 41.4996V42.8519C244.648 42.3782 245.05 41.9933 245.535 41.7442C246.02 41.4952 246.567 41.3927 247.109 41.4495C247.851 41.5437 248.527 41.9231 248.995 42.5074C249.462 43.0918 249.684 43.835 249.613 44.5799L248.386 57.5276C247.582 64.8274 246.072 72.0319 243.878 79.0403C243.851 80.2105 243.58 81.3621 243.082 82.4212C242.584 83.4804 241.87 84.4236 240.985 85.1901C240.101 85.9567 239.065 86.5297 237.946 86.8723C236.827 87.2149 235.649 87.3196 234.486 87.1796C233.435 87.2146 232.388 87.0232 231.417 86.6181C230.446 86.213 229.573 85.6038 228.858 84.8318C228.143 84.0599 227.603 83.1432 227.273 82.1439C226.944 81.1446 226.833 80.0861 226.948 79.0403Z" fill="#FBBEAA"/>
<path d="M142.551 487.756C142.551 485.345 143.509 483.033 145.213 481.328C146.918 479.623 149.231 478.665 151.642 478.665C154.053 478.665 156.365 479.623 158.07 481.328C159.775 483.033 160.733 485.345 160.733 487.756V507.516H142.551V487.756Z" fill="#FBBEAA"/>
<path d="M160.081 491.438C162.31 491.438 162.711 492.414 163.362 493.691C164.418 497.095 166.224 500.219 168.646 502.832C172.263 505.913 176.143 508.67 180.242 511.072V521.54H139.771C139.771 521.54 140.046 513.276 140.247 507.44C140.447 501.605 141.023 494.493 140.973 493.741C140.923 492.99 140.973 491.438 142.35 491.438H160.081Z" fill="#302D3B"/>
<path d="M144.805 508.016C144.8 509.301 145.177 510.559 145.887 511.629C146.598 512.7 147.611 513.535 148.797 514.029C149.984 514.523 151.29 514.654 152.55 514.404C153.811 514.155 154.969 513.536 155.878 512.628C156.786 511.719 157.405 510.561 157.654 509.301C157.903 508.04 157.773 506.734 157.279 505.548C156.785 504.361 155.95 503.349 154.879 502.638C153.809 501.927 152.551 501.55 151.266 501.555C149.554 501.562 147.915 502.244 146.705 503.455C145.494 504.665 144.811 506.305 144.805 508.016Z" fill="#93929C"/>
<path d="M151.265 504.209L149.788 506.388L147.258 507.114L148.861 509.193L148.786 511.823L151.265 510.921L153.745 511.823L153.644 509.193L155.272 507.114L152.743 506.388L151.265 504.209Z" fill="white"/>
<path d="M179.966 510.896C179.966 510.896 185.701 513.927 187.855 515.404C188.852 516.08 189.662 516.997 190.209 518.07C190.757 519.142 191.024 520.336 190.985 521.54H175.258C175.258 521.54 175.583 513.852 179.966 510.896Z" fill="white"/>
<path d="M139.771 521.54V525.873C139.771 526.599 140.422 527 141.524 527H189.257C190.334 527 190.985 526.599 190.985 525.873V521.54H139.771Z" fill="white"/>
<path d="M175.257 507.966C175.396 507.753 175.612 507.602 175.86 507.546C176.108 507.49 176.368 507.533 176.585 507.665C176.693 507.732 176.786 507.819 176.86 507.922C176.934 508.025 176.986 508.142 177.014 508.266C177.042 508.389 177.045 508.517 177.023 508.642C177.001 508.767 176.954 508.886 176.885 508.993L175.207 511.697C175.127 511.837 175.009 511.953 174.868 512.033C174.727 512.112 174.568 512.152 174.406 512.148C174.22 512.145 174.039 512.093 173.88 511.998C173.772 511.931 173.678 511.844 173.605 511.741C173.531 511.638 173.478 511.521 173.45 511.397C173.422 511.274 173.42 511.146 173.442 511.021C173.464 510.896 173.511 510.777 173.579 510.671L175.257 507.966Z" fill="white"/>
<path d="M172.303 505.887C172.385 505.792 172.485 505.714 172.598 505.657C172.71 505.6 172.833 505.566 172.958 505.557C173.084 505.548 173.21 505.563 173.33 505.603C173.449 505.642 173.56 505.705 173.655 505.787C173.751 505.869 173.829 505.969 173.885 506.082C173.942 506.194 173.976 506.317 173.985 506.442C173.995 506.568 173.979 506.694 173.94 506.814C173.9 506.933 173.838 507.044 173.755 507.139L171.802 509.443C171.712 509.549 171.601 509.635 171.476 509.695C171.351 509.755 171.214 509.789 171.076 509.794C170.894 509.791 170.717 509.737 170.565 509.638C170.412 509.54 170.29 509.401 170.212 509.237C170.134 509.074 170.103 508.891 170.123 508.711C170.143 508.531 170.213 508.359 170.324 508.216L172.303 505.887Z" fill="white"/>
<path d="M169.523 503.559C169.723 503.43 169.962 503.379 170.196 503.414C170.431 503.448 170.644 503.567 170.798 503.748C170.951 503.929 171.033 504.159 171.029 504.396C171.025 504.633 170.935 504.861 170.776 505.036L168.547 506.965C168.372 507.113 168.15 507.193 167.921 507.19C167.783 507.195 167.646 507.168 167.52 507.112C167.394 507.055 167.282 506.971 167.194 506.864C167.102 506.778 167.028 506.673 166.978 506.557C166.927 506.44 166.901 506.315 166.901 506.188C166.901 506.062 166.927 505.936 166.978 505.82C167.028 505.704 167.102 505.599 167.194 505.512L169.523 503.559Z" fill="white"/>
<path d="M164.639 502.407L167.144 500.854C167.363 500.724 167.625 500.685 167.874 500.746C168.122 500.807 168.336 500.963 168.471 501.18C168.539 501.288 168.584 501.408 168.604 501.534C168.625 501.66 168.619 501.788 168.589 501.912C168.559 502.036 168.504 502.152 168.428 502.255C168.351 502.357 168.255 502.443 168.145 502.507L165.641 504.06C165.492 504.158 165.318 504.21 165.14 504.21C164.977 504.206 164.817 504.16 164.677 504.077C164.537 503.993 164.42 503.875 164.339 503.734C164.206 503.517 164.164 503.257 164.22 503.009C164.276 502.762 164.426 502.545 164.639 502.407Z" fill="white"/>
<path d="M162.535 499.176L165.34 497.999C165.579 497.9 165.848 497.899 166.087 497.998C166.327 498.096 166.518 498.286 166.617 498.525C166.666 498.642 166.691 498.767 166.691 498.893C166.691 499.02 166.666 499.145 166.617 499.262C166.568 499.378 166.496 499.484 166.406 499.572C166.316 499.661 166.209 499.731 166.091 499.777L163.286 500.955H162.911C162.695 500.943 162.489 500.86 162.325 500.718C162.161 500.577 162.049 500.385 162.006 500.173C161.963 499.961 161.991 499.741 162.087 499.547C162.183 499.353 162.341 499.196 162.535 499.101V499.176Z" fill="white"/>
<path d="M160.783 495.57L163.888 494.793C164.134 494.734 164.393 494.774 164.61 494.905C164.826 495.037 164.981 495.249 165.04 495.495C165.1 495.74 165.06 496 164.928 496.216C164.797 496.432 164.585 496.587 164.339 496.647L161.259 497.448H161.033C160.818 497.446 160.608 497.374 160.437 497.243C160.266 497.112 160.141 496.929 160.082 496.722C160.028 496.476 160.071 496.22 160.201 496.005C160.332 495.791 160.54 495.635 160.783 495.57Z" fill="white"/>
<path d="M129.252 361.385C129.528 349.264 137.692 343.403 149.788 343.704C161.885 344.004 170.6 350.341 170.324 362.437L160.733 488.733H142.551L129.252 361.385Z" fill="#FBBEAA"/>
<path d="M127.674 361.309C127.741 358.431 128.375 355.595 129.539 352.962C130.702 350.33 132.373 347.952 134.455 345.964C136.538 343.977 138.991 342.42 141.676 341.381C144.36 340.342 147.223 339.842 150.101 339.909C152.979 339.977 155.815 340.61 158.448 341.774C161.08 342.937 163.458 344.608 165.446 346.69C167.433 348.773 168.99 351.227 170.029 353.911C171.068 356.595 171.568 359.458 171.501 362.336L177.187 492.164H127.675L127.674 361.309Z" fill="#93929C"/>
<path d="M65.916 487.756C65.916 485.345 66.8738 483.033 68.5787 481.328C70.2836 479.623 72.5959 478.665 75.0069 478.665C77.418 478.665 79.7303 479.623 81.4352 481.328C83.1401 483.033 84.0979 485.345 84.0979 487.756V507.516H65.916V487.756Z" fill="#FBBEAA"/>
<path d="M83.4225 491.438C85.6764 491.438 86.0771 492.414 86.7032 493.691C87.7714 497.095 89.5852 500.218 92.0125 502.832C95.6244 505.919 99.505 508.676 103.608 511.072V521.54H63.137C63.137 521.54 63.4125 513.276 63.6128 507.44C63.8132 501.605 64.3641 494.493 64.3391 493.741C64.3141 492.99 64.3391 491.438 65.6914 491.438H83.4225Z" fill="#302D3B"/>
<path d="M68.146 508.016C68.1411 509.3 68.5173 510.557 69.227 511.627C69.9367 512.697 70.948 513.532 72.1328 514.027C73.3176 514.521 74.6225 514.654 75.8824 514.406C77.1423 514.159 78.3004 513.543 79.21 512.637C80.1197 511.731 80.7399 510.575 80.9923 509.316C81.2446 508.057 81.1176 506.752 80.6274 505.565C80.1372 504.378 79.3058 503.364 78.2386 502.65C77.1714 501.936 75.9164 501.555 74.6324 501.555C72.9165 501.555 71.2704 502.235 70.0547 503.446C68.839 504.657 68.1527 506.3 68.146 508.016Z" fill="#93929C"/>
<path d="M74.6066 504.209L73.1291 506.388L70.5996 507.114L72.2275 509.193L72.1524 511.823L74.6066 510.921L77.086 511.823L77.0109 509.193L78.6387 507.114L76.0842 506.388L74.6066 504.209Z" fill="white"/>
<path d="M103.307 510.896C103.307 510.896 109.067 513.927 111.195 515.404C112.198 516.075 113.011 516.991 113.559 518.065C114.107 519.139 114.371 520.335 114.326 521.54H98.5232C98.5232 521.54 98.9489 513.852 103.307 510.896Z" fill="white"/>
<path d="M63.137 521.54V525.873C63.137 526.599 63.7631 527 64.865 527H112.649C113.751 527 114.377 526.599 114.377 525.873V521.54H63.137Z" fill="white"/>
<path d="M98.6239 507.966C98.7601 507.75 98.9764 507.597 99.2254 507.541C99.4743 507.485 99.7354 507.53 99.9512 507.666C100.167 507.802 100.32 508.018 100.376 508.267C100.433 508.516 100.388 508.777 100.252 508.993L98.5738 511.698C98.487 511.838 98.3651 511.954 98.2203 512.033C98.0754 512.112 97.9124 512.152 97.7474 512.149C97.5693 512.149 97.395 512.097 97.2465 511.998C97.1385 511.932 97.0449 511.845 96.9712 511.741C96.8974 511.638 96.845 511.522 96.817 511.398C96.789 511.274 96.7859 511.146 96.8081 511.021C96.8303 510.897 96.8771 510.777 96.946 510.671L98.6239 507.966Z" fill="white"/>
<path d="M95.6433 505.887C95.8084 505.695 96.0418 505.575 96.2941 505.551C96.5465 505.528 96.798 505.603 96.9956 505.762C97.1896 505.932 97.3108 506.169 97.3341 506.426C97.3574 506.682 97.2811 506.938 97.1209 507.139L95.1424 509.443C95.0556 509.553 94.9452 509.641 94.8194 509.702C94.6936 509.763 94.5558 509.794 94.4161 509.794C94.2325 509.796 94.0523 509.745 93.8972 509.646C93.7422 509.548 93.6188 509.407 93.542 509.24C93.4653 509.074 93.4384 508.888 93.4646 508.707C93.4908 508.525 93.569 508.355 93.6898 508.216L95.6433 505.887Z" fill="white"/>
<path d="M92.8888 503.559C93.0881 503.43 93.3272 503.379 93.5616 503.414C93.7961 503.448 94.0099 503.567 94.1631 503.748C94.3164 503.929 94.3986 504.159 94.3945 504.396C94.3905 504.633 94.3004 504.861 94.141 505.036L91.8871 506.965C91.7123 507.113 91.49 507.193 91.261 507.19C91.1234 507.193 90.9868 507.166 90.8611 507.109C90.7355 507.053 90.624 506.969 90.5347 506.864C90.4454 506.776 90.3744 506.671 90.326 506.555C90.2776 506.439 90.2527 506.314 90.2527 506.188C90.2527 506.063 90.2776 505.938 90.326 505.822C90.3744 505.706 90.4454 505.601 90.5347 505.512L92.8888 503.559Z" fill="white"/>
<path d="M88.0045 502.406L90.5088 500.854C90.7249 500.763 90.9665 500.752 91.1896 500.824C91.4127 500.897 91.6023 501.047 91.7239 501.247C91.8454 501.448 91.8907 501.685 91.8516 501.917C91.8124 502.148 91.6914 502.357 91.5106 502.507L89.0062 504.059C88.8578 504.158 88.6835 504.21 88.5053 504.21C88.3384 504.207 88.1748 504.163 88.0301 504.079C87.8854 503.996 87.7645 503.877 87.6789 503.734C87.5488 503.514 87.51 503.252 87.5708 503.004C87.6317 502.756 87.7874 502.541 88.0045 502.406Z" fill="white"/>
<path d="M226.648 80.7186L216.63 143.604C214.977 151.492 217.532 158.63 226.648 159.882C228.33 160.101 230.04 159.976 231.673 159.514C233.306 159.053 234.828 158.264 236.147 157.196C237.465 156.128 238.553 154.803 239.344 153.301C240.135 151.8 240.612 150.154 240.747 148.462L243.803 80.8437C244.604 74.4576 241.824 70.2001 236.966 69.6742C231.005 69.0231 227.85 72.5543 226.648 80.7186Z" fill="#FBBEAA"/>
<path d="M85.9014 499.176L88.7063 497.999C88.8229 497.95 88.9481 497.925 89.0745 497.925C89.2009 497.925 89.3261 497.95 89.4427 497.999C89.5593 498.048 89.6649 498.12 89.7535 498.21C89.842 498.301 89.9117 498.408 89.9585 498.525C90.052 498.758 90.0521 499.018 89.9588 499.251C89.8656 499.485 89.6861 499.673 89.4576 499.777L86.6276 500.954C86.5122 500.98 86.3924 500.98 86.277 500.954C86.0842 500.954 85.8957 500.897 85.7352 500.79C85.5748 500.683 85.4496 500.531 85.3754 500.353C85.2994 500.127 85.3113 499.88 85.4087 499.662C85.5061 499.444 85.682 499.271 85.9014 499.176Z" fill="white"/>
<path d="M84.1481 495.57L87.2285 494.794C87.4775 494.733 87.7404 494.772 87.9606 494.903C88.1808 495.034 88.3406 495.247 88.4056 495.495C88.4355 495.616 88.441 495.743 88.4219 495.867C88.4028 495.99 88.3594 496.109 88.2942 496.216C88.2291 496.323 88.1434 496.417 88.0422 496.49C87.941 496.564 87.8261 496.617 87.7043 496.647L84.6239 497.448H84.3735C84.1479 497.431 83.9353 497.336 83.772 497.179C83.6087 497.022 83.5048 496.814 83.4782 496.589C83.4516 496.364 83.5039 496.137 83.6261 495.947C83.7482 495.756 83.9327 495.614 84.1481 495.545V495.57Z" fill="white"/>
<path d="M75.8587 361.009C77.0889 355.324 80.5263 350.36 85.4151 347.209C90.3038 344.058 96.2439 342.977 101.929 344.204C113.775 346.709 120.161 358.379 117.607 370.225L84.0982 490.811H65.6909L75.8587 361.009Z" fill="#FBBEAA"/>
<path d="M75.862 358.629C77.2212 353.081 80.6907 348.282 85.5331 345.252C90.3754 342.222 96.2087 341.2 101.793 342.403C107.377 343.607 112.271 346.941 115.435 351.697C118.6 356.453 119.784 362.255 118.737 367.87L105.414 491.659C105.414 491.659 73.5083 493.562 54.5 491.659L75.862 358.629Z" fill="#93929C"/>
<path d="M234.787 136.641L162.861 81.9955C154.471 76.6361 148.762 79.4911 144.304 85.2262C142.268 88.002 141.324 91.4296 141.652 94.8562C141.98 98.2829 143.557 101.469 146.082 103.809L217.832 156.676C220.361 158.812 223.616 159.889 226.919 159.684C230.222 159.479 233.319 158.006 235.563 155.574L235.889 155.224C237.08 153.953 238 152.453 238.593 150.814C239.185 149.176 239.437 147.434 239.334 145.696C239.231 143.957 238.775 142.257 237.993 140.7C237.211 139.144 236.12 137.762 234.787 136.641Z" fill="#FBBEAA"/>
<path d="M146.082 103.784C145.418 103.213 144.813 102.575 144.279 101.881C143.806 100.098 143.745 98.2316 144.101 96.4222C144.456 94.6128 145.22 92.9081 146.332 91.4375C150.114 85.6023 158.053 81.0193 161.584 81.8958L165.09 83.6739L204.784 113.727C201.271 121.983 196.526 129.659 190.71 136.491L146.082 103.784Z" fill="#F18380"/>
<path d="M156.926 78.0884L219.169 120.068C218.907 122.215 225.807 78.0884 225.807 78.0884L245.331 80.6293C245.331 80.6293 244.934 125.187 242.019 148.835C240.856 158.275 233.07 161.879 223.777 159.851C219.189 158.85 214.869 156.968 211.025 154.269C194.508 142.676 148.168 110.02 144.379 105.912C137.843 98.8248 137.843 93.5155 141.599 87.6803C145.356 81.845 153.395 77.2119 156.926 78.0884Z" fill="#001A4B"/>
<path d="M127.674 361.31L114.826 226.799C114.826 211.948 130.128 195.77 152.693 199.251C173.078 202.432 179.289 222.917 177.611 242.326C175.933 261.735 171.4 362.261 171.4 362.261C171.333 365.139 170.699 367.975 169.536 370.608C168.372 373.241 166.702 375.619 164.619 377.606C162.537 379.593 160.083 381.151 157.399 382.19C154.714 383.229 151.851 383.729 148.974 383.661C146.096 383.594 143.26 382.96 140.627 381.797C137.994 380.633 135.616 378.963 133.629 376.88C131.642 374.798 130.084 372.344 129.045 369.66C128.006 366.975 127.506 364.112 127.574 361.235L127.674 361.31Z" fill="#93929C"/>
<path d="M75.8593 358.63L88.6317 224.144C91.3364 209.543 109.493 196.596 131.006 204.259C150.415 211.196 152.669 232.484 147.359 251.242C142.05 269.999 118.734 367.871 118.734 367.871C117.375 373.419 113.906 378.218 109.063 381.248C104.221 384.278 98.3877 385.3 92.8037 384.097C87.2197 382.893 82.3253 379.559 79.1611 374.803C75.9968 370.047 74.8123 364.245 75.8593 358.63Z" fill="#93929C"/>
<path d="M147.359 251.242C142.074 270 118.733 367.872 118.733 367.872" stroke="#5E5D63" stroke-width="0.75" stroke-miterlimit="10"/>
<path d="M143.602 75.9596C143.602 75.9596 154.672 77.888 156.826 78.464C158.097 78.7622 159.271 79.3783 160.239 80.2543C161.207 81.1303 161.937 82.2377 162.36 83.4727C163.738 86.7535 170.825 108.241 171.476 110.57C171.917 113.136 171.503 115.775 170.299 118.083C169.272 120.888 163.963 133.661 163.963 133.661L163.162 174.808L133.261 179.55L104.609 174.808C104.609 174.808 94.5916 98.2737 94.0908 93.5404C93.5899 88.8071 95.944 79.6661 101.604 78.5141C107.264 77.3621 122.791 76.0097 122.791 76.0097L143.602 75.9596Z" fill="#FBBEAA"/>
<path d="M164.566 158.263V172.729C144.981 174.533 113.775 173.255 102.055 172.729C101.504 168.597 100.928 161.585 100.327 156.927C116.28 157.327 142.627 158.814 164.566 158.263Z" fill="white"/>
<path d="M146.787 76.3343C146.006 81.0201 141.525 86.3088 135.278 86.759C126.687 87.378 123.748 84.1439 120.234 75.9438C120.234 75.9438 103.732 77.287 101.328 77.5374C95.6339 79.0677 94.0423 83.5557 93.291 88.4392C92.5397 93.3228 94.853 178.549 94.853 178.549C94.853 178.549 146.539 181.504 170.606 178.549C170.606 178.549 172.052 116.369 172.177 114.992C172.277 113.491 172.188 108.334 170.997 103.668C168.829 95.1836 163.437 84.2742 162.009 81.87C160.915 79.9574 159.118 78.5469 157.001 77.9381C155.523 77.4623 146.787 76.3343 146.787 76.3343Z" fill="#002366"/>
<path d="M124.355 108.322L126.63 108.186L126.803 111.079L129.23 110.935L129.058 108.042L131.333 107.906L131.804 115.81L129.529 115.946L129.342 112.816L126.915 112.96L127.101 116.091L124.826 116.226L124.355 108.322L124.355 108.322ZM139.451 107.422L139.922 115.327L137.724 115.458L137.365 109.427L135.925 109.513L136.06 111.781C136.12 112.801 136.118 114.055 135.555 114.794C134.996 115.613 133.87 115.918 132.569 115.757L132.452 113.797C133.677 113.962 133.954 113.47 133.861 111.905L133.614 107.756L139.45 107.408L139.451 107.422ZM141.35 107.309L143.625 107.174L145.192 111.792L146.199 107.02L148.474 106.885L150.009 114.725L147.888 114.852L147.107 110.655L146.141 114.955L144.625 115.046L143.162 110.89L142.886 115.149L140.764 115.276L141.35 107.309L141.35 107.309ZM150.373 106.771L152.648 106.636L152.839 109.845L154.846 106.505L157.35 106.356L154.704 110.44L157.899 114.255L155.171 114.418L152.935 111.33L153.126 114.54L150.851 114.675L150.38 106.771L150.373 106.771L150.373 106.771ZM140.081 98.8977C126.432 99.7112 117.706 105.339 118.153 112.849C118.597 120.286 127.927 124.91 141.583 124.096C155.308 123.278 163.953 117.575 163.511 110.145C163.063 102.636 153.813 98.0792 140.081 98.8977ZM141.513 122.926C128.692 123.69 119.853 119.584 119.447 112.772C119.037 105.887 127.337 100.832 140.151 100.068C153.041 99.2996 161.813 103.33 162.223 110.222C162.629 117.035 154.411 122.157 141.513 122.926ZM140.216 101.166C128.16 101.885 120.366 106.514 120.734 112.695C121.103 118.876 129.392 122.546 141.448 121.828C153.503 121.109 161.298 116.48 160.929 110.299C160.568 104.118 152.279 100.447 140.216 101.166ZM141.434 121.598C129.524 122.308 121.323 118.712 120.964 112.688C120.605 106.665 128.328 102.12 140.231 101.411C152.134 100.701 160.341 104.297 160.7 110.32C161.066 116.343 153.344 120.888 141.434 121.598L141.434 121.598Z" fill="white"/>
<path d="M61.2832 171.127L93.3644 86.7037C97.6469 77.688 103.983 77.0869 110.895 79.5913C114.092 80.8666 116.707 83.2749 118.241 86.3563C119.775 89.4377 120.12 92.9761 119.21 96.2956L86.1768 179.216C85.1755 182.37 82.991 185.015 80.0818 186.593C77.1725 188.171 73.765 188.561 70.5744 187.681L70.0986 187.555C68.4156 187.096 66.8438 186.299 65.479 185.212C64.1142 184.126 62.9849 182.773 62.1601 181.236C61.3353 179.698 60.8321 178.009 60.6814 176.271C60.5306 174.533 60.7354 172.783 61.2832 171.127Z" fill="#FBBEAA"/>
<path d="M74.5815 136.115L93.3644 86.7037C93.8682 85.6201 94.463 84.5812 95.1425 83.5983C97.4433 82.1578 100.077 81.3363 102.789 81.2134C105.501 81.0906 108.198 81.6705 110.62 82.897C113.432 84.2654 115.692 86.5531 117.026 89.3813C118.361 92.2096 118.689 95.4088 117.957 98.4492C117.957 98.7498 117.782 99.3258 117.632 100.102L98.248 148.812C89.7812 145.759 81.8076 141.481 74.5815 136.115Z" fill="#F18380"/>
<path d="M95.1177 82.1959L59.4622 174.735C88.7482 165.364 85.3157 139.255 101.244 141.935C101.244 141.935 119.611 98.825 120.312 94.9682C121.044 91.9278 120.715 88.7287 119.381 85.9004C118.046 83.0721 115.786 80.7844 112.974 79.416C105.135 75.409 97.3216 79.0404 95.1177 82.1959Z" fill="#002366"/>
<path d="M153.452 76.1584C155.229 83.0779 144.365 89.2831 134.772 86.7587C144.87 80.1955 144.365 76.1566 144.365 76.1566V69.0884C147.394 68.5836 152.334 71.8031 153.452 76.1584Z" fill="#001A4B"/>
<path d="M122.151 66.564C119.122 66.0591 109.318 67.084 105.996 72.6222C104.481 75.1467 105.996 77.166 105.996 77.166C105.996 77.166 108.015 77.1662 111.044 76.6614C113.569 82.215 126.19 89.2829 135.496 86.8105C122.151 79.6905 122.151 76.156 122.151 76.156V66.564Z" fill="#001A4B"/>
<path d="M125.596 131.482L85.7263 181.144C80.993 187.655 73.9808 190.56 66.9935 184.7C65.7012 183.602 64.6454 182.253 63.8901 180.734C63.1349 179.216 62.6959 177.56 62.5999 175.867C62.5039 174.173 62.7528 172.478 63.3316 170.884C63.9103 169.29 64.8068 167.83 65.9667 166.593L114.001 119.01C118.183 114.126 123.217 113.35 126.873 116.505C131.306 120.437 130.78 125.045 125.596 131.482Z" fill="#FBBEAA"/>
<path d="M111.596 121.614C116.029 117.132 124.318 107.465 127.123 105.111C129.897 103.021 132.927 101.295 136.139 99.9765C138.576 99.1601 141.096 98.6142 143.652 98.3486C145.43 98.1233 146.156 98.6492 146.156 99.7261C146.112 100.368 145.907 100.988 145.562 101.53C145.216 102.073 144.741 102.52 144.178 102.832H147.459C148.586 102.832 149.312 103.733 148.786 105.186C148.308 106.145 147.626 106.988 146.786 107.655C145.946 108.321 144.971 108.795 143.928 109.042C143.928 109.042 148.36 109.468 149.487 109.694C150.614 109.919 150.965 110.345 150.965 111.422C150.955 112.165 150.748 112.893 150.366 113.531C149.983 114.169 149.438 114.694 148.786 115.053C147.191 115.7 145.497 116.073 143.777 116.155C143.777 116.155 149.262 117.532 150.364 117.933C151.466 118.334 151.591 119.06 151.015 120.012C150.687 120.682 150.213 121.27 149.628 121.734C149.043 122.198 148.362 122.525 147.634 122.691C145.555 123.242 144.153 122.341 143.402 122.466C141.787 122.986 140.207 123.605 138.668 124.319C136.358 126.619 133.534 128.336 130.429 129.328C128.118 130.298 125.998 131.672 124.168 133.385C123.316 134.185 122.312 134.805 121.215 135.21C120.119 135.615 118.953 135.796 117.785 135.743C116.618 135.689 115.473 135.402 114.418 134.898C113.364 134.394 112.421 133.684 111.646 132.809C107.639 128.552 108.315 124.995 111.596 121.614Z" fill="#FBBEAA"/>
<path d="M124.575 135.012L86.0154 182.194C81.1841 188.633 69.8946 192.172 62.9968 186.206C61.7213 185.089 60.686 183.724 59.9538 182.194C59.2216 180.664 58.8078 179.002 58.7374 177.307C58.667 175.613 58.9415 173.922 59.5443 172.337C60.1471 170.752 62.8274 165.412 64.0059 164.193L112.323 118.815L124.575 135.012Z" fill="#002366"/>
<path d="M143.627 102.857C143.635 102.898 143.633 102.941 143.623 102.981C143.612 103.022 143.594 103.06 143.568 103.093C143.542 103.126 143.509 103.154 143.472 103.173C143.435 103.193 143.394 103.205 143.352 103.207L141.298 103.408H140.297C139.946 103.408 139.62 103.533 139.27 103.558C138.899 103.669 138.539 103.812 138.193 103.984L137.041 104.46C135.488 105.086 133.936 105.662 132.783 106.087C131.631 106.513 130.83 106.764 130.83 106.764C130.767 106.79 130.695 106.792 130.63 106.769C130.566 106.746 130.512 106.699 130.479 106.638C130.433 106.577 130.407 106.502 130.407 106.426C130.407 106.349 130.433 106.274 130.479 106.213L132.358 105.236L134.311 104.309C135.012 103.984 135.789 103.658 136.565 103.358L137.742 102.907C138.121 102.736 138.515 102.602 138.919 102.506L140.121 102.381H141.148H142.676H143.252C143.315 102.331 143.395 102.308 143.475 102.318C143.555 102.327 143.628 102.368 143.678 102.431C143.727 102.494 143.75 102.574 143.741 102.654C143.731 102.734 143.691 102.807 143.627 102.857ZM143.152 108.892H142.701C142.326 108.859 141.949 108.859 141.574 108.892L140.798 109.018C140.511 109.053 140.227 109.104 139.946 109.168L138.243 109.719C137.091 110.094 135.964 110.57 135.113 110.921C135.113 110.921 134.837 110.921 134.862 111.046H134.562L134.111 111.171H133.835H133.685C133.609 111.189 133.544 111.236 133.502 111.301C133.46 111.367 133.445 111.446 133.46 111.522C133.471 111.582 133.501 111.637 133.546 111.677C133.592 111.718 133.649 111.743 133.71 111.747H134.987H135.388C136.265 111.522 137.442 111.171 138.594 110.771L140.272 110.145L141.048 109.944L141.724 109.744C142.07 109.642 142.421 109.558 142.776 109.493L143.202 109.368C143.24 109.357 143.275 109.338 143.305 109.313C143.336 109.288 143.361 109.257 143.38 109.222C143.399 109.187 143.41 109.149 143.414 109.109C143.418 109.07 143.414 109.03 143.402 108.993C143.372 108.956 143.334 108.927 143.29 108.91C143.246 108.892 143.198 108.886 143.152 108.892ZM143.152 116.005H142.225C141.975 116.005 141.649 116.005 141.323 116.18L140.297 116.506C139.651 116.733 139.023 117.01 138.418 117.332C138.141 117.463 137.873 117.613 137.617 117.783C137.566 117.842 137.538 117.918 137.538 117.996C137.538 118.074 137.566 118.15 137.617 118.209C137.689 118.285 137.788 118.33 137.892 118.334L138.819 118.184C139.345 118.058 140.021 117.858 140.697 117.633L141.674 117.232L142.526 116.906C142.809 116.781 143.085 116.639 143.352 116.481C143.423 116.439 143.475 116.371 143.498 116.292C143.522 116.213 143.514 116.129 143.477 116.055C143.403 116.007 143.314 115.989 143.227 116.005H143.152Z" fill="#F18380"/>
<path d="M227.449 59.0055C226.497 59.0055 226.422 58.4045 225.996 57.3026C228.125 57.3026 234.311 57.7032 237.016 62.9124C234.286 59.1558 229.052 59.0055 227.449 59.0055ZM232.307 39.1958C232.307 39.1958 232.157 40.0724 232.007 41.3496C232.007 42.0008 231.857 42.7771 231.806 43.5785C231.756 44.3799 231.681 45.2564 231.606 46.0829C231.606 47.836 231.481 49.564 231.481 50.8663C231.481 52.1686 231.481 53.0451 231.481 53.0451C231.481 53.0867 231.489 53.128 231.506 53.1662C231.523 53.2044 231.547 53.2387 231.578 53.267C231.608 53.2952 231.644 53.3168 231.684 53.3304C231.723 53.3439 231.765 53.3491 231.806 53.3456C231.877 53.3421 231.944 53.3157 231.999 53.2705C232.053 53.2254 232.091 53.1639 232.107 53.0952C232.107 53.0952 232.257 52.2186 232.382 50.9163C232.508 49.6141 232.708 47.886 232.783 46.158C232.783 45.2815 232.783 44.405 232.783 43.6536C232.783 42.9023 232.783 42.0759 232.783 41.4248C232.783 40.0974 232.783 39.2459 232.783 39.2459C232.783 39.2042 232.775 39.163 232.758 39.1248C232.742 39.0866 232.717 39.0523 232.687 39.024C232.656 38.9958 232.62 38.9742 232.58 38.9607C232.541 38.9471 232.499 38.9419 232.458 38.9454C232.41 38.973 232.37 39.0134 232.344 39.062C232.317 39.1106 232.305 39.1656 232.307 39.2209V39.1958ZM238.118 40.9489C238.118 40.9489 237.967 41.7002 237.792 42.8022C237.792 43.3782 237.617 44.0293 237.542 44.7305C237.466 45.4317 237.391 46.1831 237.316 46.9344C237.316 48.437 237.141 49.9396 237.116 51.0666C237.091 52.1936 237.116 52.97 237.116 52.97C237.119 53.0095 237.13 53.048 237.148 53.0832C237.166 53.1185 237.191 53.1499 237.221 53.1755C237.251 53.2011 237.287 53.2205 237.324 53.2325C237.362 53.2445 237.402 53.2489 237.441 53.2455C237.509 53.2408 237.573 53.2135 237.623 53.1681C237.673 53.1226 237.706 53.0617 237.717 52.995C237.717 52.995 237.867 52.2437 238.042 51.1417C238.218 50.0398 238.368 48.5122 238.493 47.0346C238.493 46.2833 238.493 45.5319 238.643 44.8307C238.794 44.1295 238.643 43.4533 238.643 42.8773C238.643 41.7503 238.643 40.999 238.643 40.999C238.644 40.9573 238.635 40.9161 238.618 40.8779C238.602 40.8397 238.577 40.8054 238.547 40.7771C238.516 40.7489 238.48 40.7273 238.441 40.7138C238.401 40.7002 238.359 40.695 238.318 40.6985C238.262 40.7214 238.214 40.7593 238.179 40.8079C238.143 40.8565 238.122 40.914 238.118 40.9739V40.9489ZM243.727 43.3281C243.727 43.3281 243.577 43.9542 243.377 44.9058C243.377 45.3566 243.176 45.9076 243.101 46.5087C243.026 47.1097 242.926 47.7358 242.826 48.3619C242.651 49.6391 242.575 50.8663 242.525 51.868C242.475 52.8698 242.525 53.4709 242.525 53.4709C242.525 53.5125 242.534 53.5537 242.55 53.5919C242.567 53.6301 242.591 53.6645 242.622 53.6927C242.653 53.721 242.689 53.7425 242.728 53.7561C242.768 53.7696 242.809 53.7748 242.851 53.7714C242.915 53.7681 242.976 53.7444 243.026 53.7038C243.075 53.6633 243.11 53.608 243.126 53.546C243.126 53.546 243.302 52.9199 243.477 51.9933C243.652 51.0667 243.903 49.7643 244.053 48.5122C244.053 47.861 244.178 47.2349 244.228 46.6339C244.278 46.0328 244.228 45.4819 244.228 45.006C244.228 44.0544 244.228 43.4032 244.228 43.4032C244.228 43.3615 244.22 43.3203 244.203 43.2821C244.187 43.2439 244.162 43.2096 244.132 43.1813C244.101 43.1531 244.065 43.1315 244.025 43.118C243.986 43.1044 243.944 43.0992 243.903 43.1027C243.856 43.1285 243.817 43.1644 243.786 43.2078C243.756 43.2511 243.736 43.3009 243.727 43.3531V43.3281Z" fill="#F18380"/>
<path d="M112.425 118.506L107.349 123.192L121.015 139.592L124.92 134.906L112.425 118.506Z" fill="#00163F"/>
<path d="M225.502 77.6431L224.884 84.5343L245.189 87.658L245.189 80.2389L225.502 77.6431Z" fill="#00163F"/>
<path d="M94.5581 171.728L94.8533 178.64C94.8533 178.64 118.878 180.255 134.292 180.202C148.487 180.154 170.607 178.64 170.607 178.64L170.607 172.783C170.607 172.783 147.525 173.564 132.73 173.564C112.815 173.564 94.5581 171.728 94.5581 171.728Z" fill="#00163F"/>
<path d="M108.548 21.8182C107.066 27.4879 106.187 33.2982 105.925 39.1525C105.614 44.0252 104.002 48.7252 101.257 52.763C98.6349 56.1459 95.1995 59.66 96.4582 70.1497H163.619C163.619 70.1497 166.241 64.9049 163.094 55.9099C159.388 44.8054 156.659 33.3981 154.939 21.8182H108.548Z" fill="#BC664A"/>
<path d="M121.398 52.7631V75.0275C121.398 75.0275 123.155 82.7113 134.93 82.7113C137.267 82.9084 139.592 82.203 141.426 80.7399C143.259 79.2768 144.463 77.167 144.79 74.844V52.7631H121.398Z" fill="#FBBEAA"/>
<path d="M144.79 71.4086C137.395 74.8964 126.617 71.7757 121.398 62.0989V52.7631H144.79V71.4086Z" fill="#F18380"/>
<path d="M159.397 35.7432C159.509 41.0765 159.272 46.4114 158.689 51.7138C157.718 59.2664 155.043 67.6582 141.643 67.6582C128.242 67.6582 121.45 61.6266 118.565 51.7138C116.835 45.7084 113.32 36.8708 114.763 26.6171C116.205 16.3634 122.368 9.7024 136.922 9.30903C151.477 8.91566 160.996 15.4717 159.397 35.7432Z" fill="#FBBEAA"/>
<path d="M131.074 40.3065C131.168 40.6927 131.367 41.045 131.651 41.3235C131.934 41.6019 132.29 41.7952 132.678 41.8815C133.066 41.9678 133.47 41.9435 133.845 41.8116C134.219 41.6796 134.55 41.4452 134.798 41.135C135.046 40.8247 135.202 40.4511 135.249 40.0565C135.295 39.6619 135.23 39.2622 135.061 38.9028C134.892 38.5433 134.625 38.2386 134.291 38.0232C133.957 37.8078 133.57 37.6903 133.172 37.6841C132.86 37.7132 132.557 37.8049 132.281 37.9536C132.006 38.1024 131.762 38.3052 131.567 38.5499C131.371 38.7947 131.226 39.0763 131.142 39.3781C131.057 39.6799 131.034 39.9957 131.074 40.3065Z" fill="#403D4F"/>
<path d="M150.507 40.3065C150.6 40.6927 150.799 41.045 151.083 41.3235C151.366 41.6019 151.722 41.7952 152.11 41.8815C152.498 41.9678 152.902 41.9435 153.277 41.8116C153.652 41.6796 153.982 41.4452 154.23 41.135C154.478 40.8247 154.635 40.4511 154.681 40.0565C154.728 39.6619 154.662 39.2622 154.493 38.9028C154.324 38.5433 154.057 38.2386 153.723 38.0232C153.389 37.8078 153.002 37.6903 152.604 37.6841C152.294 37.7167 151.993 37.8106 151.719 37.9604C151.444 38.1103 151.203 38.3131 151.008 38.557C150.812 38.8009 150.668 39.0812 150.582 39.3815C150.496 39.6818 150.47 39.9963 150.507 40.3065Z" fill="#403D4F"/>
<path d="M137.394 32.8853C137.394 32.8853 137.394 32.8853 137.185 32.6755C136.973 32.4698 136.735 32.2934 136.476 32.151C136.146 31.9617 135.793 31.8121 135.428 31.7052C134.574 31.471 133.688 31.3823 132.805 31.443C132.434 31.4621 132.065 31.5148 131.704 31.6003L130.681 31.8888C130.512 31.9432 130.371 32.0612 130.288 32.2179C130.204 32.3746 130.186 32.5576 130.235 32.728C130.278 32.862 130.362 32.9794 130.475 33.0639C130.588 33.1484 130.724 33.196 130.864 33.2H132.831C133.172 33.1742 133.514 33.1742 133.854 33.2C134.191 33.231 134.525 33.2924 134.851 33.3836C135.191 33.3836 135.428 33.5671 135.69 33.5934C135.876 33.6718 136.069 33.7332 136.267 33.7769H136.503C136.666 33.8481 136.851 33.8523 137.018 33.7885C137.185 33.7248 137.32 33.5982 137.394 33.436C137.433 33.3448 137.453 33.2467 137.453 33.1475C137.453 33.0484 137.433 32.9503 137.394 32.8591V32.8853Z" fill="#403D4F"/>
<path d="M150.165 33.8815C150.165 33.8815 150.165 33.8815 150.323 33.8815L150.716 33.7241H151.005C151.108 33.7014 151.216 33.7014 151.319 33.7241C151.551 33.6476 151.788 33.5862 152.027 33.5406C152.271 33.5133 152.518 33.5133 152.762 33.5406H154.256C154.345 33.5406 154.432 33.5229 154.514 33.4883C154.595 33.4537 154.668 33.4031 154.73 33.3394C154.791 33.2757 154.839 33.2003 154.87 33.1177C154.901 33.0351 154.916 32.947 154.912 32.8587C154.907 32.7286 154.865 32.6027 154.791 32.4958C154.716 32.3889 154.613 32.3056 154.492 32.2556L153.68 31.9671C153.389 31.8803 153.09 31.8275 152.788 31.8098C152.431 31.7577 152.069 31.7577 151.713 31.8098C151.028 31.8956 150.378 32.1576 149.825 32.5703L149.326 33.0685C149.195 33.2259 149.195 33.2783 149.195 33.3046V33.5406C149.172 33.7207 149.219 33.9027 149.327 34.0492C149.434 34.1956 149.593 34.2952 149.772 34.3273C149.952 34.2298 150.091 34.0719 150.165 33.8815Z" fill="#403D4F"/>
<path d="M144.79 49.2492C145.232 49.2467 145.669 49.1547 146.074 48.979C146.48 48.8032 146.846 48.5472 147.15 48.2264C147.261 48.1075 147.346 47.967 147.401 47.8135C147.455 47.6601 147.477 47.4971 147.465 47.3348C147.465 47.0463 147.019 43.4274 146.862 42.0899C146.831 41.9606 146.758 41.8456 146.652 41.7643C146.547 41.6831 146.417 41.6407 146.285 41.6441C146.15 41.6637 146.028 41.7348 145.945 41.8425C145.862 41.9501 145.824 42.0859 145.839 42.2211C145.839 42.4046 146.416 47.1512 146.468 47.4659C146.254 47.7036 145.99 47.8922 145.696 48.0189C145.402 48.1456 145.084 48.2075 144.764 48.2002C144.629 48.2069 144.502 48.2652 144.41 48.3628C144.317 48.4604 144.265 48.59 144.265 48.7247C144.272 48.8617 144.329 48.9915 144.426 49.0885C144.523 49.1855 144.653 49.2428 144.79 49.2492Z" fill="#F18380"/>
<path d="M147.202 54.4153C148.173 54.6513 148.54 56.1199 147.937 57.8244C147.342 58.9981 146.368 59.9368 145.174 60.4888C143.979 61.0408 142.634 61.1739 141.354 60.8665C140.656 60.8333 139.971 60.6608 139.34 60.3591C138.71 60.0574 138.145 59.6326 137.681 59.1097C137.217 58.5868 136.862 57.9764 136.637 57.3143C136.412 56.6523 136.322 55.9519 136.372 55.2544C136.372 54.1268 137.158 53.4712 138.627 53.4712C141.507 53.5481 144.375 53.8638 147.202 54.4153Z" fill="#73102A"/>
<path d="M136.372 55.3857V55.1497C138.291 54.7061 140.307 54.9988 142.021 55.9699C143.735 56.9411 145.023 58.52 145.629 60.3946C144.28 61.0557 142.762 61.2934 141.276 61.0764C140.577 61.0335 139.894 60.8512 139.266 60.5401C138.639 60.2291 138.081 59.7956 137.624 59.2652C137.167 58.7349 136.82 58.1183 136.605 57.4521C136.39 56.7858 136.311 56.0832 136.372 55.3857Z" fill="#D65155"/>
<path d="M146.363 55.9889C143.042 56.0404 139.736 55.5351 136.581 54.4941C136.779 54.1368 137.08 53.8478 137.445 53.6652C137.81 53.4826 138.222 53.415 138.627 53.4713C141.506 53.5482 144.375 53.864 147.202 54.4154C147.473 54.5088 147.711 54.681 147.883 54.9099C148.056 55.1388 148.157 55.414 148.172 55.7004C147.592 55.9064 146.979 56.0042 146.363 55.9889Z" fill="white"/>
<path d="M131.783 25.4376C131.783 25.4376 129.16 38.5498 118.041 43.6373C118.041 43.6373 106.712 37.055 108.024 24.4936C109.65 9.02118 131.626 -8.3918 153.497 8.0771C155.621 7.73619 157.929 3.25182 157.247 0C158.141 0.561738 158.844 1.38019 159.266 2.34832C159.687 3.31644 159.806 4.38916 159.608 5.42616C159.409 6.46315 158.903 7.41615 158.154 8.1605C157.405 8.90486 156.449 9.40591 155.411 9.59812C158.981 10.0955 162.221 11.9527 164.454 14.7821C166.687 17.6115 167.741 21.1941 167.396 24.782C167.284 27.0441 166.342 29.1855 164.75 30.7967C163.158 32.4078 161.028 33.3755 158.768 33.5147H154.913C151.93 32.1479 149.519 29.7827 148.094 26.8275C148.465 29.0551 149.238 31.1967 150.376 33.1476C150.586 33.541 150.114 34.2228 146.888 33.541C143.185 32.2672 140.09 29.6584 138.208 26.2244C138.913 28.4761 139.853 30.6473 141.014 32.7018C141.014 33.0951 139.309 33.6721 136.792 32.5182C135.389 31.9085 134.181 30.9261 133.298 29.6777C132.415 28.4294 131.891 26.9629 131.783 25.4376Z" fill="#BC664A"/>
<path d="M148.986 35.7435C148.042 35.7435 147.675 37.4743 147.675 39.1265C147.771 41.3643 148.439 43.5402 149.615 45.4465C150.096 46.0218 150.72 46.4603 151.425 46.7181C152.129 46.9759 152.889 47.0438 153.627 46.9151C154.527 47.0543 155.446 46.9949 156.321 46.7412C157.195 46.4875 158.003 46.0456 158.689 45.4465C160.132 43.6386 160.992 41.4344 161.154 39.1265C161.154 37.4743 160.656 35.7435 159.476 35.7435H148.986Z" stroke="#403D4F" stroke-width="0.75" stroke-miterlimit="10"/>
<path d="M141.066 35.7435C142.325 35.7435 142.823 37.4743 142.823 39.1265C142.651 41.4603 141.731 43.6766 140.2 45.4465C139.476 46.0414 138.635 46.4791 137.732 46.7319C136.829 46.9847 135.884 47.0471 134.956 46.9151C132.599 47.2182 130.209 46.6996 128.19 45.4465C126.348 43.8216 125.179 41.5679 124.912 39.1265C124.912 37.4743 125.541 35.7435 127.141 35.7435H141.066Z" stroke="#403D4F" stroke-width="0.75" stroke-miterlimit="10"/>
<path d="M147.885 37.317C147.131 36.7428 146.21 36.4318 145.262 36.4318C144.315 36.4318 143.394 36.7428 142.64 37.317" stroke="#403D4F" stroke-width="0.75" stroke-miterlimit="10"/>
<path d="M127.089 35.7435H123.89C123.208 35.7435 122.421 35.9009 122.421 36.8187V38.2873C122.421 38.6544 124.755 39.3887 125.044 40.2017" stroke="#403D4F" stroke-width="0.75" stroke-miterlimit="10"/>
<path d="M115.445 39.5726L122.421 36.8191" stroke="#403D4F" stroke-width="0.75" stroke-miterlimit="10"/>
<path d="M119.037 45.5779C118.827 42.0114 117.883 37.8417 113.53 38.4711C108.442 39.2578 107.944 53.0256 118.775 51.3735L119.037 45.5779Z" fill="#FBBEAA"/>
<path d="M113.163 46.4957C113.255 46.497 113.344 46.4732 113.423 46.427C113.502 46.3807 113.566 46.3138 113.609 46.2335C113.724 46.0065 113.896 45.8126 114.107 45.6704C114.318 45.5281 114.562 45.4421 114.816 45.4205C115.118 45.4238 115.415 45.5053 115.677 45.6569C115.939 45.8085 116.157 46.0252 116.31 46.2859C116.373 46.3756 116.463 46.4422 116.568 46.4754C116.672 46.5086 116.784 46.5065 116.887 46.4695C116.998 46.4388 117.094 46.3684 117.157 46.2718C117.22 46.1752 117.245 46.059 117.228 45.945C117.183 44.842 116.839 43.7719 116.234 42.8484C115.63 41.9249 114.786 41.1825 113.793 40.7001C113.726 40.6605 113.651 40.6362 113.574 40.6289C113.497 40.6216 113.419 40.6316 113.346 40.6581C113.273 40.6846 113.207 40.727 113.152 40.7822C113.098 40.8374 113.056 40.904 113.03 40.9772C113.004 41.0505 112.995 41.1285 113.003 41.2057C113.011 41.2829 113.036 41.3574 113.077 41.4237C113.117 41.49 113.172 41.5465 113.237 41.5892C113.301 41.6319 113.375 41.6596 113.452 41.6704C114.041 41.9569 114.566 42.3604 114.994 42.8564C115.423 43.3523 115.746 43.9303 115.943 44.5551C115.577 44.3746 115.17 44.2933 114.763 44.3191C114.339 44.3592 113.931 44.502 113.575 44.735C113.219 44.968 112.924 45.2843 112.718 45.6566C112.66 45.7757 112.65 45.9122 112.689 46.0386C112.728 46.1651 112.813 46.2721 112.927 46.3384L113.163 46.4957Z" fill="#F18380"/>
<defs>
<filter id="filter0_f_110_29" x="0.5" y="499" width="247" height="63" filterUnits="userSpaceOnUse" color-interpolation-filters="sRGB">
<feFlood flood-opacity="0" result="BackgroundImageFix"/>
<feBlend mode="normal" in="SourceGraphic" in2="BackgroundImageFix" result="shape"/>
<feGaussianBlur stdDeviation="8.5" result="effect1_foregroundBlur_110_29"/>
</filter>
</defs>
</svg>
