<svg width="288" height="553" viewBox="0 0 288 553" fill="none" xmlns="http://www.w3.org/2000/svg">
<path d="M161.448 69.0234H131.041V104.784H161.448V69.0234Z" fill="#FBBEAA"/>
<path d="M131.159 69.0234H161.441V88.9745C160.119 89.1389 158.787 89.2233 157.454 89.227C147.007 89.227 135.323 86.3733 131.058 76.3977L131.159 69.0234Z" fill="#F18380"/>
<path d="M177.158 42.4811C176.931 52.8102 177.158 60.9674 175.315 68.8468C173.471 76.7262 167.738 83.1661 155.111 83.1661C142.484 83.1661 128.089 79.0496 127.078 63.2655C125.008 61.0179 121.649 53.0122 121.522 44.0469C121.396 35.0815 122.078 16.1154 142.534 13.2111C162.99 10.3068 177.739 17.8074 177.158 42.4811Z" fill="#FBBEAA"/>
<path d="M166.498 50.6129C166.498 52.0019 167.332 53.1383 168.367 53.1383C169.402 53.1383 170.236 52.0019 170.236 50.6129C170.236 49.2239 169.402 48.0874 168.367 48.0874C167.332 48.0874 166.498 49.1228 166.498 50.6129Z" fill="#403D4F"/>
<path d="M143.771 50.6129C143.771 52.0019 144.605 53.1383 145.64 53.1383C146.676 53.1383 147.509 52.0019 147.509 50.6129C147.509 49.2239 146.65 48.0874 145.64 48.0874C144.63 48.0874 143.771 49.1228 143.771 50.6129Z" fill="#403D4F"/>
<path d="M148.441 42.6829C148.239 42.9102 146.926 42.6829 145.916 42.6829C144.905 42.6829 142.961 42.6829 142.961 42.4557C142.961 42.2284 143.92 40.6626 146.446 40.9404C148.163 41.1424 148.668 42.2789 148.441 42.6829Z" fill="#403D4F"/>
<path d="M166.119 42.6829C166.271 42.9102 167.407 42.6829 168.291 42.6829C169.175 42.6829 170.816 42.6829 170.816 42.4557C170.816 42.2284 170.008 40.6626 167.862 40.9404C166.119 41.1424 165.791 42.2789 166.119 42.6829Z" fill="#403D4F"/>
<path d="M158.545 61.0683C160.313 61.0683 161.727 59.9066 161.778 59.0732L161.197 51.9514C161.178 51.7749 161.09 51.6129 160.954 51.4997C160.817 51.3865 160.641 51.3311 160.464 51.3453C160.378 51.3517 160.294 51.3751 160.217 51.4141C160.139 51.4532 160.071 51.5071 160.014 51.5728C159.958 51.6385 159.915 51.7148 159.888 51.7971C159.862 51.8794 159.851 51.9662 159.858 52.0524L160.414 58.9217C160.159 59.1985 159.845 59.4147 159.495 59.5545C159.146 59.6943 158.769 59.7542 158.393 59.7298C158.305 59.723 158.216 59.734 158.132 59.7623C158.049 59.7907 157.971 59.8357 157.905 59.8947C157.839 59.9536 157.786 60.0254 157.748 60.1055C157.71 60.1857 157.689 60.2727 157.686 60.3612C157.683 60.4507 157.697 60.5401 157.728 60.6241C157.76 60.7081 157.807 60.7852 157.868 60.8509C157.929 60.9165 158.002 60.9696 158.084 61.0069C158.165 61.0442 158.253 61.0651 158.343 61.0683H158.545Z" fill="#F18380"/>
<path d="M157.104 66.1184C159.225 66.2447 162.786 67.4316 162.811 68.3661C162.778 70.101 162.062 71.7529 160.819 72.9633C159.575 74.1736 157.905 74.8448 156.169 74.8312C148.391 74.8312 148.416 68.8206 148.745 67.5074C149.073 66.1942 153.164 65.8659 157.104 66.1184Z" fill="#73102A"/>
<path d="M148.721 69.604C150.825 68.842 153.12 68.7873 155.258 69.4482C157.395 70.1091 159.259 71.4496 160.566 73.2659C159.358 74.3365 157.783 74.8977 156.171 74.8317C150.666 74.8317 149.075 71.8517 148.721 69.604Z" fill="#D65155"/>
<path d="M149.05 67.0534C150.136 66.119 153.697 65.8917 157.106 66.119C159.202 66.2453 162.738 67.407 162.814 68.3667C158.187 69.0226 153.47 68.5726 149.05 67.0534Z" fill="white"/>
<path d="M139.805 33.3387C139.805 39.5513 137.28 42.2535 135.385 43.4405C133.491 44.6274 132.102 45.8144 132.102 47.961V55.5374C132.102 56.396 131.597 57.0526 130.941 56.8254C130.284 56.5981 127.834 55.3606 127.834 54.1231L120.258 48.7692C118.287 44.1014 117.557 39.0035 118.137 33.97C118.362 31.1477 119.194 28.4074 120.576 25.9361C121.957 23.4648 123.856 21.3209 126.142 19.6507C126.142 14.2715 131.193 4.70004 141.825 0.911865C142.085 2.85622 142.085 4.82655 141.825 6.77091C146.649 2.40188 162.888 1.06339 168.721 3.08375C167.865 4.99728 166.628 6.71598 165.085 8.13466C173.053 9.97495 180.144 14.5059 185.162 20.9639C183.564 23.0486 181.541 24.7701 179.227 26.0148C181.881 29.6655 183.456 33.9883 183.773 38.4906C178.978 38.0467 174.278 36.8802 169.833 35.0307C170.081 37.2502 169.953 39.4957 169.454 41.6726C164.403 41.3696 154.857 36.2177 152.154 32.0759C152.577 35.4492 152.389 38.8711 151.599 42.1777C146.904 40.4187 142.811 37.3513 139.805 33.3387Z" fill="#403D4F"/>
<path d="M127.606 55.4112C127.606 52.5322 127.025 48.2895 122.959 48.1884C118.893 48.0874 118.338 51.1685 118.464 56.0173C118.59 60.8662 123.515 64.9827 127.834 63.3159L127.606 55.4112Z" fill="#FBBEAA"/>
<path d="M121.621 58.8962C121.795 58.8595 121.949 58.7586 122.052 58.6135C122.155 58.4683 122.199 58.2897 122.177 58.1133C122.177 57.974 122.215 57.8373 122.286 57.7174C122.357 57.5976 122.459 57.4988 122.581 57.4314C122.843 57.2597 123.151 57.1683 123.464 57.1683C123.778 57.1683 124.086 57.2597 124.348 57.4314C124.456 57.4935 124.578 57.5261 124.702 57.5261C124.826 57.5261 124.948 57.4935 125.056 57.4314C125.165 57.3689 125.254 57.276 125.313 57.1641C125.371 57.0521 125.396 56.9257 125.384 56.8C125.005 52.7341 122.429 51.9764 122.328 51.9512C122.242 51.9246 122.151 51.916 122.061 51.9261C121.972 51.9361 121.885 51.9646 121.807 52.0096C121.729 52.0546 121.661 52.1153 121.607 52.1878C121.553 52.2603 121.515 52.3431 121.495 52.431C121.448 52.5985 121.47 52.7776 121.555 52.929C121.64 53.0805 121.782 53.1921 121.949 53.2392C122.451 53.4713 122.889 53.8228 123.223 54.2631C123.558 54.7033 123.779 55.2189 123.869 55.7646C123.177 55.6519 122.467 55.7955 121.873 56.1687C121.523 56.3665 121.24 56.6645 121.06 57.0245C120.88 57.3845 120.811 57.79 120.863 58.189C120.854 58.2886 120.868 58.3889 120.904 58.4822C120.94 58.5756 120.996 58.6596 121.069 58.7278C121.142 58.796 121.23 58.8466 121.326 58.8758C121.421 58.905 121.522 58.9119 121.621 58.8962Z" fill="#F18380"/>
<path d="M246.064 106.479C246.189 103.75 245.458 101.051 243.974 98.758C241.69 96.1095 239.979 95.4583 238.948 92.1161C238.156 89.0137 236.889 86.052 235.194 83.3355C233.983 81.6702 232.166 80.3078 232.166 79.0361C232.166 77.7644 234.588 75.3119 238.04 76.0083C239.518 76.4689 240.877 77.2506 242.018 78.2974C243.159 79.3443 244.055 80.6305 244.641 82.0639C244.971 81.1905 245.165 80.2714 245.216 79.3389L245.973 58.3371C245.984 57.8559 246.092 57.3819 246.29 56.9431C246.487 56.5043 246.771 56.1096 247.124 55.7822C247.477 55.4548 247.891 55.2014 248.344 55.037C248.796 54.8725 249.277 54.8004 249.757 54.8248C250.523 54.8575 251.259 55.1291 251.861 55.6016C252.167 55.8414 257.289 62.0523 262.287 68.2086C267.139 74.184 271.876 80.108 271.981 80.4702C271.01 89.2955 269.184 98.0057 266.531 106.479C266.499 107.894 266.172 109.286 265.569 110.566C264.967 111.847 264.103 112.987 263.034 113.914C261.965 114.841 260.713 115.533 259.36 115.948C258.007 116.362 256.582 116.488 255.177 116.319C253.906 116.362 252.64 116.13 251.466 115.64C250.292 115.151 249.237 114.414 248.373 113.481C247.508 112.547 246.855 111.439 246.456 110.231C246.058 109.023 245.924 107.743 246.064 106.479Z" fill="#FBBEAA"/>
<path d="M250.944 49.6474L229.879 70.3104C229.656 69.9927 229.432 69.6582 229.209 69.3405C228.54 68.3705 227.862 67.3922 227.192 66.4222C226.943 66.0626 226.703 65.7114 226.454 65.3519C225.45 63.9053 225.645 61.9466 226.895 60.7171L241.41 46.4751C242.66 45.2456 244.623 45.0952 246.052 46.1234C246.401 46.3805 246.75 46.6208 247.099 46.8779C248.06 47.5661 249.021 48.2542 249.982 48.9424C250.297 49.1831 250.62 49.4153 250.944 49.6474Z" fill="#E2874A"/>
<g opacity="0.53">
<path d="M249.982 48.9577L229.201 69.3305C228.531 68.3605 227.853 67.3822 227.184 66.4122L247.09 46.8848C248.06 47.5813 249.021 48.2695 249.982 48.9577Z" fill="#D46424"/>
</g>
<path d="M254.652 52.4037C255.422 53.3218 256.201 54.2314 256.979 55.1579C258.074 56.4432 259.152 57.7286 260.239 59.0223C264.431 63.98 268.607 68.9379 272.799 73.8956C275.049 76.558 277.299 79.2205 279.55 81.883C280.987 83.5856 280.866 86.0999 279.283 87.6539L267.309 99.3943C265.725 100.948 263.205 101.021 261.526 99.5492C258.909 97.2453 256.284 94.95 253.667 92.6462C248.792 88.3545 243.916 84.0798 239.041 79.7882C237.771 78.6822 236.501 77.5593 235.239 76.4448C234.344 75.6546 233.432 74.8647 232.528 74.0662C231.361 73.0432 230.895 71.5227 231.156 70.1113C231.298 69.2832 231.71 68.4855 232.351 67.8453L248.408 52.0919C249.067 51.4514 249.863 51.0623 250.705 50.934C252.144 50.7225 253.651 51.2101 254.652 52.4037Z" fill="#F5F5F5"/>
<path d="M260.24 59.0204C264.432 63.9781 268.608 68.936 272.8 73.8936L253.677 92.6526C248.801 88.3609 243.926 84.0862 239.042 79.8031L260.24 59.0204Z" fill="#E2874A"/>
<g opacity="0.52">
<path d="M250.597 82.4096C248.091 80.214 245.602 78.0182 243.104 75.831L239.063 79.8013C243.939 84.0929 248.814 88.3676 253.698 92.6507L272.822 73.8918C272.146 73.0989 271.487 72.3059 270.811 71.5131L259.954 82.1605C257.379 84.6795 253.299 84.7798 250.597 82.4096Z" fill="#E2874A"/>
</g>
<path d="M254.682 51.9632L232.118 74.0949C230.926 75.2647 229.003 75.2544 227.833 74.0459L227.722 73.9377C226.553 72.7461 226.572 70.8318 227.771 69.6535L250.336 47.5218C251.528 46.3521 253.442 46.3709 254.62 47.5708L254.731 47.679C255.893 48.8791 255.874 50.7935 254.682 51.9632Z" fill="#E2874A"/>
<g opacity="0.53">
<path d="M253.403 46.8352C253.821 47.9432 253.575 49.2364 252.675 50.1074L230.177 72.1708C229.327 73.0075 228.116 73.2416 227.058 72.8919C227.206 73.2864 227.429 73.6546 227.745 73.9628L227.788 74.0044C228.975 75.2127 230.931 75.2394 232.14 74.0526L254.638 51.9892C255.846 50.8024 255.873 48.8457 254.686 47.6375L254.643 47.5959C254.285 47.2461 253.86 46.9814 253.403 46.8352Z" fill="#D46424"/>
</g>
<path d="M255.193 75.7177C257.252 75.1445 259.05 74.6504 261.072 77.2229C259.843 78.7557 257.357 79.5786 254.695 79.1305C251.29 78.5564 248.84 76.1325 249.088 73.6419C250.124 74.9532 251.762 76.451 253.68 76.0903C254.185 75.9998 254.706 75.8586 255.193 75.7177Z" fill="#5B2500"/>
<path d="M256.251 69.8527C259.758 70.4424 262.259 73.0006 261.827 75.5609C261.819 75.6369 261.795 75.7131 261.779 75.7807C259.292 73.0537 256.83 73.733 254.796 74.2975C254.308 74.4383 253.855 74.5619 253.4 74.6349C251.97 74.9053 250.507 73.2114 249.7 71.9732C250.868 70.2978 253.454 69.3893 256.251 69.8527Z" fill="#5B2500"/>
<path d="M255.329 64.1984C253.61 61.4548 257.102 57.8367 259.317 56.423C259.317 56.423 260.651 54.8802 263.414 57.6439C266.466 60.6959 264.635 62.7847 264.635 62.7847C262.641 64.9052 257.988 68.4395 255.329 64.1984Z" fill="#FBBEAA"/>
<path d="M260.213 69.5107C258.493 66.7671 261.985 63.1491 264.201 61.7354C264.201 61.7354 265.534 60.1926 268.297 62.9563C271.349 66.0082 269.518 68.097 269.518 68.097C267.524 70.2176 262.871 73.7519 260.213 69.5107Z" fill="#FBBEAA"/>
<path d="M265.096 74.3938C263.376 71.6502 266.868 68.0321 269.083 66.6184C269.083 66.6184 270.417 65.0756 273.18 67.8393C276.232 70.8913 274.401 72.9801 274.401 72.9801C272.407 75.1007 267.754 78.6349 265.096 74.3938Z" fill="#FBBEAA"/>
<path d="M271.12 78.7403C269.695 76.4408 272.589 73.4083 274.425 72.2234C274.425 72.2234 275.53 70.9303 277.821 73.2467C280.35 75.8047 278.832 77.5554 278.832 77.5554C277.18 79.3328 273.324 82.295 271.12 78.7403Z" fill="#FBBEAA"/>
<g opacity="0.3" filter="url(#filter0_f_110_25)">
<ellipse cx="106.5" cy="14.5" rx="106.5" ry="14.5" transform="matrix(1 0 0 -1 17.2715 535.436)" fill="#CBCBCB"/>
</g>
<path d="M101 107.215C95.2717 114.581 67.6719 191.987 67.6719 191.987C98.3593 182.167 83.1073 178.403 99.7974 181.211C99.7974 181.211 125.873 125.873 126.608 121.831C127.375 118.645 127.031 115.293 125.632 112.329C124.234 109.366 121.866 106.969 118.919 105.535C110.705 101.336 106.728 99.8502 101 107.215Z" fill="#002776"/>
<path d="M180.289 104.562L240.36 145.077C240.108 147.149 244.976 104.562 244.976 104.562L267.21 106.637C267.21 106.637 265.911 149.996 262.639 172.895C261.341 181.983 253.776 185.429 244.807 183.472C240.379 182.506 236.21 180.689 232.501 178.085C216.559 166.896 171.836 135.38 168.18 131.415C161.872 124.575 161.872 119.451 165.497 113.819C169.123 108.188 176.881 103.716 180.289 104.562Z" fill="#001A4B"/>
<path d="M129.272 335.111C129.192 341.603 131.694 347.861 136.228 352.508C140.761 357.155 146.955 359.811 153.447 359.891C159.939 359.971 166.197 357.469 170.844 352.935C175.491 348.402 178.146 342.207 178.227 335.716C178.227 335.716 181.324 245.362 182.382 227.054C183.439 208.746 178.655 194.065 158.056 191.95C136.701 189.759 125.319 206.455 125.319 221.967C125.319 237.479 129.272 335.111 129.272 335.111Z" fill="#7C7C7C"/>
<path d="M89.1059 333.374C88.6862 336.583 88.9069 339.842 89.7551 342.965C90.6034 346.088 92.0624 349.012 94.0478 351.567C96.0331 354.122 98.5055 356.258 101.322 357.852C104.138 359.446 107.242 360.465 110.455 360.851C113.668 361.237 116.925 360.983 120.039 360.102C123.153 359.221 126.061 357.732 128.595 355.72C131.13 353.708 133.24 351.213 134.804 348.38C136.368 345.548 137.355 342.433 137.708 339.216C137.708 339.216 150.45 249.718 153.472 231.637C156.494 213.556 153.296 198.422 133.049 194.116C112.047 189.658 98.9271 205.045 97.3406 220.456C95.7541 235.868 89.1059 333.374 89.1059 333.374Z" fill="#7C7C7C"/>
<path d="M169.463 441.582C169.463 441.582 168.254 492.929 167.952 500.61C167.65 508.29 162.79 510.38 154.958 511.06C147.126 511.74 143.827 505.52 142.719 500.584C141.611 495.649 134.913 445.309 134.913 445.309L169.463 441.582Z" fill="#FBBEAA"/>
<path d="M168.582 477.391L139.697 480.489C137.456 464.599 134.913 445.233 134.913 445.233L169.463 441.506C169.463 441.506 169.01 460.746 168.582 477.391Z" fill="#F18380"/>
<path d="M129.272 335.111C129.311 331.897 129.984 328.722 131.251 325.767C132.517 322.813 134.354 320.137 136.655 317.892C138.956 315.647 141.676 313.877 144.661 312.684C147.646 311.491 150.837 310.897 154.051 310.936C157.266 310.976 160.441 311.649 163.395 312.915C166.35 314.182 169.026 316.018 171.271 318.319C173.516 320.62 175.285 323.341 176.479 326.326C177.672 329.311 178.266 332.501 178.226 335.716L173.19 478.833L133.679 483.089L129.272 335.111Z" fill="#7C7C7C"/>
<path d="M117.764 443.547C117.764 443.547 111.065 494.465 109.957 502.045C108.849 509.625 103.787 511.237 95.9053 511.06C88.0233 510.884 85.4295 504.362 84.8503 499.351C84.2711 494.339 83.012 443.547 83.012 443.547H117.764Z" fill="#FBBEAA"/>
<path d="M112.929 479.054H83.8681C83.3644 463.038 82.886 443.547 82.886 443.547H117.764C117.764 443.547 115.245 462.534 112.929 479.054Z" fill="#F18380"/>
<path d="M89.1057 333.374C89.942 326.981 93.2669 321.176 98.3582 317.22C103.45 313.264 109.896 311.477 116.297 312.247C122.699 313.016 128.538 316.28 132.547 321.33C136.556 326.38 138.41 332.807 137.708 339.216L115.799 483.87H76.0618L89.1057 333.374Z" fill="#7C7C7C"/>
<path d="M137.683 339.216L115.094 482.611" stroke="#565656" stroke-width="0.75" stroke-miterlimit="10" stroke-linecap="round"/>
<path d="M137.708 339.216C137.708 339.216 150.45 249.718 153.472 231.638" stroke="#565656" stroke-width="0.75" stroke-miterlimit="10" stroke-linecap="round"/>
<path d="M98.5497 485.022C101.406 484.817 104.238 485.668 106.508 487.413C108.778 489.159 110.328 491.677 110.864 494.49L124.009 507.963V516.348H81.879C81.879 516.348 83.9943 501.239 84.5987 497.839C85.2031 494.44 87.2428 485.022 98.5497 485.022Z" fill="#FBBEAA"/>
<path d="M110.838 494.389C111.317 493.735 111.997 493.231 112.475 493.533C112.953 493.835 125.671 503.908 126.275 504.412C126.647 504.762 126.929 505.196 127.095 505.679C127.262 506.161 127.309 506.677 127.232 507.182V517.985H80.9468C80.9468 517.985 82.7599 502.02 82.8858 501.138C83.0117 500.257 83.8931 499.099 84.3967 499.124C87.5736 500.097 90.8706 500.623 94.1927 500.685C98.6078 500.919 103.012 500.054 107.01 498.167C108.493 497.136 109.788 495.858 110.838 494.389Z" fill="black"/>
<path d="M119.627 508.919C117.386 507.257 109.328 500.962 106.306 498.595L107.011 498.242C107.106 498.201 107.192 498.141 107.263 498.066C110.486 500.584 118.066 506.527 120.232 508.139C122.062 509.541 123.316 511.566 123.757 513.83L122.775 513.981C122.36 511.974 121.244 510.18 119.627 508.919Z" fill="white"/>
<path d="M82.206 506.981C85.4679 507.014 88.6245 508.14 91.1709 510.179C93.4724 512.218 95.0314 514.964 95.6029 517.985H94.2431C93.6869 515.367 92.3109 512.994 90.3147 511.211C87.9711 509.334 85.0574 508.313 82.0549 508.315L82.206 506.981Z" fill="white"/>
<path d="M134.711 517.96H80.9469C80.5714 517.96 80.267 518.265 80.267 518.64V523.853C80.267 524.228 80.5714 524.533 80.9469 524.533H134.711C135.087 524.533 135.391 524.228 135.391 523.853V518.64C135.391 518.265 135.087 517.96 134.711 517.96Z" fill="white"/>
<path d="M126.149 504.311C126.627 504.11 128.969 504.79 132.016 507.786C133.285 509.098 134.198 510.711 134.67 512.473C135.141 514.236 135.155 516.09 134.711 517.859H119.425C120.281 508.189 125.67 504.513 126.149 504.311Z" fill="white"/>
<path d="M120.282 504.463C120.093 504.694 120.003 504.99 120.031 505.287C120.06 505.584 120.204 505.858 120.433 506.049C120.545 506.142 120.675 506.211 120.814 506.254C120.954 506.297 121.1 506.311 121.245 506.297C121.39 506.283 121.531 506.241 121.659 506.172C121.788 506.104 121.902 506.011 121.994 505.898L124.512 502.851C124.701 502.62 124.791 502.324 124.763 502.027C124.735 501.73 124.59 501.456 124.361 501.264C124.25 501.168 124.121 501.096 123.981 501.051C123.842 501.007 123.694 500.991 123.548 501.005C123.402 501.019 123.261 501.063 123.132 501.134C123.003 501.204 122.89 501.3 122.8 501.416L120.282 504.463Z" fill="white"/>
<path d="M117.285 502.17C117.097 502.402 117.007 502.698 117.035 502.995C117.063 503.292 117.208 503.566 117.436 503.757C117.547 503.853 117.677 503.925 117.816 503.97C117.956 504.015 118.104 504.03 118.25 504.016C118.396 504.002 118.537 503.958 118.666 503.888C118.794 503.817 118.907 503.721 118.998 503.606L121.516 500.559C121.699 500.325 121.785 500.031 121.757 499.735C121.729 499.44 121.588 499.167 121.365 498.972C121.254 498.876 121.125 498.804 120.985 498.759C120.845 498.715 120.698 498.699 120.552 498.713C120.406 498.727 120.264 498.771 120.136 498.841C120.007 498.912 119.894 499.008 119.804 499.123L117.285 502.17Z" fill="white"/>
<path d="M114.389 499.905C114.199 500.128 114.105 500.418 114.129 500.711C114.153 501.004 114.292 501.275 114.515 501.466C114.746 501.655 115.042 501.745 115.339 501.716C115.636 501.688 115.91 501.544 116.102 501.315L118.62 498.268C118.726 498.164 118.81 498.041 118.867 497.905C118.925 497.769 118.954 497.622 118.954 497.474C118.954 497.327 118.925 497.18 118.867 497.044C118.81 496.908 118.726 496.784 118.62 496.681C118.386 496.499 118.092 496.412 117.797 496.441C117.501 496.469 117.228 496.609 117.033 496.832L114.389 499.905Z" fill="white"/>
<path d="M111.468 497.613C111.376 497.725 111.306 497.855 111.263 497.994C111.221 498.134 111.206 498.28 111.22 498.425C111.234 498.57 111.277 498.711 111.345 498.839C111.414 498.968 111.507 499.082 111.62 499.174C111.831 499.382 112.116 499.498 112.413 499.498C112.709 499.498 112.994 499.382 113.206 499.174L115.724 496.102C115.913 495.871 116.003 495.575 115.975 495.278C115.946 494.981 115.802 494.707 115.573 494.516C115.461 494.423 115.331 494.353 115.192 494.311C115.053 494.268 114.906 494.253 114.761 494.267C114.616 494.281 114.475 494.324 114.347 494.392C114.218 494.461 114.104 494.554 114.012 494.667L111.468 497.613Z" fill="white"/>
<path d="M157.728 485.022C160.584 484.817 163.416 485.668 165.686 487.413C167.956 489.159 169.506 491.677 170.042 494.49L183.162 507.963V516.348H141.057C141.057 516.348 143.147 501.239 143.777 497.839C144.407 494.44 146.421 485.022 157.728 485.022Z" fill="#FBBEAA"/>
<path d="M170.017 494.389C170.495 493.735 171.15 493.231 171.654 493.533C172.157 493.835 184.849 503.908 185.428 504.412C186.007 504.916 186.41 505.545 186.41 507.182V517.985H140.125C140.125 517.985 141.938 502.02 142.064 501.138C142.19 500.257 143.072 499.099 143.575 499.124C146.752 500.097 150.049 500.623 153.371 500.685C157.779 500.923 162.176 500.058 166.164 498.167C167.658 497.141 168.962 495.863 170.017 494.389Z" fill="black"/>
<path d="M178.805 508.919C176.564 507.257 168.506 500.962 165.484 498.595L166.164 498.242C166.267 498.202 166.361 498.142 166.441 498.066C169.664 500.584 177.244 506.527 179.41 508.139C181.241 509.541 182.495 511.566 182.935 513.83L181.953 513.981C181.526 511.979 180.412 510.188 178.805 508.919Z" fill="white"/>
<path d="M141.384 506.981C144.646 507.014 147.802 508.14 150.349 510.179C152.65 512.218 154.209 514.964 154.781 517.985H153.421C152.858 515.364 151.473 512.991 149.468 511.211C147.136 509.331 144.229 508.308 141.233 508.315L141.384 506.981Z" fill="white"/>
<path d="M193.889 517.96H140.125C139.75 517.96 139.445 518.265 139.445 518.64V523.853C139.445 524.228 139.75 524.533 140.125 524.533H193.889C194.265 524.533 194.569 524.228 194.569 523.853V518.64C194.569 518.265 194.265 517.96 193.889 517.96Z" fill="white"/>
<path d="M185.328 504.311C185.806 504.11 188.148 504.79 191.195 507.786C192.464 509.098 193.377 510.711 193.849 512.473C194.32 514.236 194.334 516.09 193.89 517.859H178.604C179.46 508.189 184.849 504.513 185.328 504.311Z" fill="white"/>
<path d="M179.359 504.463C179.171 504.694 179.081 504.99 179.109 505.287C179.137 505.584 179.281 505.858 179.51 506.049C179.623 506.142 179.752 506.211 179.892 506.254C180.031 506.297 180.177 506.311 180.322 506.297C180.467 506.283 180.608 506.241 180.737 506.172C180.865 506.104 180.979 506.011 181.072 505.898L183.59 502.851C183.773 502.617 183.859 502.323 183.831 502.028C183.802 501.732 183.662 501.459 183.439 501.264C183.328 501.168 183.199 501.096 183.059 501.051C182.919 501.007 182.772 500.991 182.626 501.005C182.48 501.019 182.338 501.063 182.21 501.134C182.081 501.204 181.968 501.3 181.877 501.416L179.359 504.463Z" fill="white"/>
<path d="M176.463 502.171C176.275 502.402 176.185 502.698 176.213 502.995C176.241 503.292 176.386 503.566 176.615 503.757C176.725 503.853 176.855 503.926 176.994 503.97C177.134 504.015 177.282 504.03 177.428 504.016C177.574 504.002 177.715 503.959 177.844 503.888C177.972 503.818 178.085 503.722 178.176 503.606L180.694 500.559C180.877 500.326 180.963 500.031 180.935 499.736C180.907 499.441 180.766 499.167 180.543 498.973C180.312 498.784 180.016 498.694 179.719 498.722C179.422 498.75 179.148 498.895 178.956 499.124L176.463 502.171Z" fill="white"/>
<path d="M173.567 499.904C173.462 500.005 173.378 500.127 173.321 500.261C173.264 500.395 173.235 500.539 173.235 500.685C173.235 500.831 173.264 500.975 173.321 501.109C173.378 501.243 173.462 501.365 173.567 501.466C173.798 501.654 174.094 501.744 174.391 501.716C174.688 501.688 174.962 501.543 175.154 501.314L177.672 498.267C177.861 498.036 177.951 497.74 177.922 497.443C177.894 497.146 177.75 496.872 177.521 496.681C177.408 496.588 177.279 496.519 177.139 496.476C177 496.433 176.854 496.419 176.709 496.433C176.564 496.447 176.423 496.489 176.294 496.558C176.166 496.626 176.052 496.719 175.959 496.832L173.567 499.904Z" fill="white"/>
<path d="M170.647 497.613C170.554 497.725 170.484 497.855 170.442 497.994C170.399 498.134 170.384 498.28 170.398 498.425C170.412 498.57 170.455 498.711 170.524 498.839C170.592 498.968 170.685 499.082 170.798 499.174C171.01 499.382 171.294 499.498 171.591 499.498C171.888 499.498 172.173 499.382 172.384 499.174L174.903 496.102C175.091 495.871 175.181 495.575 175.153 495.278C175.125 494.981 174.98 494.707 174.751 494.516C174.639 494.423 174.51 494.353 174.37 494.311C174.231 494.268 174.085 494.253 173.939 494.267C173.794 494.281 173.654 494.324 173.525 494.392C173.396 494.461 173.283 494.554 173.19 494.667L170.647 497.613Z" fill="white"/>
<path d="M181.641 207.469C181.641 207.469 181.641 233.583 181.641 235.018C181.641 236.454 169.05 248.768 152.329 248.768C126.618 248.768 95.8449 239.375 96.2982 233.256C96.6003 229.226 99.1331 207.469 99.1331 207.469H181.641Z" fill="#7C7C7C"/>
<path d="M162.941 97.3216C148.839 109.409 134.821 102.358 130.204 96.0625L110.058 104.876L115.095 198.051L181.828 200.569L179.309 111.172L162.941 97.3216Z" fill="white"/>
<path d="M181.723 105.355C179.028 103.592 161.577 93.519 161.577 93.519V226.331C163.511 228.215 163.907 228.171 166.685 227.856L166.815 227.842C172.821 226.334 178.615 224.084 184.065 221.143C184.065 221.143 186.381 124.544 186.961 117.19C187.54 109.837 184.417 107.117 181.723 105.355Z" fill="#002776"/>
<path d="M134.647 227.809C135.871 227.55 137.03 227.047 138.057 226.331L131.207 92.1592C131.207 92.1592 111.439 100.192 106.176 102.534C103.988 103.457 102.112 104.99 100.772 106.951C99.4328 108.911 98.6859 111.216 98.6211 113.589C98.2937 118.021 97.8405 216.258 97.7649 217.114C97.6894 217.97 98.4196 218.449 99.2003 218.902C99.9809 219.355 124.66 226.557 130.93 227.842C132.159 228.08 133.422 228.069 134.647 227.809Z" fill="#002776"/>
<g filter="url(#filter1_d_110_25)">
<rect x="124.708" y="138.752" width="45.5256" height="64.8739" rx="1" transform="rotate(-6.55484 124.708 138.752)" fill="#EFEFEF"/>
</g>
<path d="M143.882 165.041C147.108 163.678 150.025 161.658 152.448 159.11C153.947 157.536 155.648 156.17 157.504 155.048C158.593 154.368 159.532 153.469 160.264 152.41C161.23 150.767 162.03 149.032 162.651 147.232C162.881 145.681 163.408 144.187 164.204 142.833C164.96 142.14 167.629 142.51 169.014 145.203C169.492 146.403 169.708 147.694 169.649 148.99C169.589 150.287 169.256 151.559 168.67 152.722C167.981 154.116 167.441 155.579 167.059 157.086L167.311 157.236C169.422 156.116 171.678 155.303 174.01 154.823C174.855 154.634 175.737 154.736 176.511 155.113C177.285 155.49 177.908 156.12 178.278 156.901C178.649 157.683 178.745 158.57 178.553 159.42C178.36 160.271 177.89 161.034 177.217 161.588C180.856 162.006 180.443 167.619 177.319 168.361C177.988 168.642 178.552 169.124 178.937 169.742C179.321 170.359 179.506 171.083 179.466 171.815C179.427 172.547 179.166 173.252 178.717 173.834C178.269 174.417 177.655 174.848 176.959 175.071C179.178 177.117 177.556 180.489 173.527 180.504C170.253 180.837 161.498 182.207 158.452 182.863C155.406 183.519 149.283 182.068 147.316 182.677C144.388 183.75 140.988 183.767 138.394 176.064C135.801 168.36 140.869 166.037 143.882 165.041Z" fill="#FBBEAA"/>
<path d="M149.645 185.708L90.6738 209.45C83.1377 213.24 70.8938 211.296 67.2028 202.482C66.5269 200.838 66.192 199.075 66.2182 197.298C66.2444 195.521 66.6313 193.768 67.3554 192.145C68.0794 190.522 69.1256 189.063 70.4304 187.857C71.7352 186.651 73.2715 185.722 74.946 185.127L144.641 159.92L149.645 185.708Z" fill="#002776"/>
<defs>
<filter id="filter0_f_110_25" x="0.271545" y="489.436" width="247" height="63" filterUnits="userSpaceOnUse" color-interpolation-filters="sRGB">
<feFlood flood-opacity="0" result="BackgroundImageFix"/>
<feBlend mode="normal" in="SourceGraphic" in2="BackgroundImageFix" result="shape"/>
<feGaussianBlur stdDeviation="8.5" result="effect1_foregroundBlur_110_25"/>
</filter>
<filter id="filter1_d_110_25" x="124.815" y="133.663" width="54.4185" height="69.4316" filterUnits="userSpaceOnUse" color-interpolation-filters="sRGB">
<feFlood flood-opacity="0" result="BackgroundImageFix"/>
<feColorMatrix in="SourceAlpha" type="matrix" values="0 0 0 0 0 0 0 0 0 0 0 0 0 0 0 0 0 0 127 0" result="hardAlpha"/>
<feOffset dx="2"/>
<feComposite in2="hardAlpha" operator="out"/>
<feColorMatrix type="matrix" values="0 0 0 0 0.603922 0 0 0 0 0.6 0 0 0 0 0.631373 0 0 0 1 0"/>
<feBlend mode="normal" in2="BackgroundImageFix" result="effect1_dropShadow_110_25"/>
<feBlend mode="normal" in="SourceGraphic" in2="effect1_dropShadow_110_25" result="shape"/>
</filter>
</defs>
</svg>
