<svg width="267" height="557" viewBox="0 0 267 557" fill="none" xmlns="http://www.w3.org/2000/svg">
<path d="M115.201 21.2059C113.761 26.7165 112.906 32.3638 112.652 38.0538C112.35 42.7897 110.783 47.3579 108.115 51.2823C105.566 54.5703 102.227 57.9858 103.451 68.1811H168.727C168.727 68.1811 171.275 63.0835 168.217 54.3409C164.614 43.548 161.962 32.4608 160.29 21.2059H115.201Z" fill="#BC664A"/>
<path d="M127.5 51V74.7641C127.5 74.7641 129.228 82.9653 140.805 82.9653C143.103 83.1757 145.389 82.4228 147.192 80.8612C148.995 79.2995 150.179 77.0477 150.5 74.5681V51H127.5Z" fill="#FBBEAA"/>
<path d="M150.426 69.4046C143.238 72.7946 132.763 69.7615 127.69 60.3562V51.2823H150.426V69.4046Z" fill="#F18380"/>
<path d="M164.623 34.7402C164.732 39.9238 164.502 45.109 163.935 50.2626C162.992 57.6033 160.392 65.7596 147.367 65.7596C134.343 65.7596 127.741 59.8973 124.937 50.2626C123.255 44.4258 119.84 35.8362 121.242 25.8702C122.643 15.9042 128.633 9.43015 142.779 9.04782C156.925 8.6655 166.178 15.0376 164.623 34.7402Z" fill="#FBBEAA"/>
<path d="M137.095 39.1753C137.186 39.5507 137.38 39.8931 137.656 40.1637C137.931 40.4343 138.277 40.6222 138.654 40.7061C139.031 40.7899 139.424 40.7664 139.788 40.6381C140.152 40.5099 140.473 40.282 140.714 39.9805C140.956 39.679 141.107 39.3158 141.153 38.9323C141.198 38.5488 141.134 38.1603 140.97 37.811C140.805 37.4616 140.546 37.1654 140.222 36.956C139.897 36.7467 139.521 36.6325 139.134 36.6265C138.831 36.6548 138.537 36.7439 138.268 36.8885C138 37.033 137.764 37.2302 137.574 37.468C137.383 37.7059 137.243 37.9797 137.161 38.273C137.079 38.5663 137.056 38.8732 137.095 39.1753Z" fill="#403D4F"/>
<path d="M155.982 39.1753C156.073 39.5507 156.267 39.8931 156.543 40.1637C156.818 40.4343 157.164 40.6222 157.541 40.7061C157.918 40.7899 158.311 40.7664 158.675 40.6381C159.039 40.5099 159.36 40.282 159.602 39.9805C159.843 39.679 159.995 39.3158 160.04 38.9323C160.085 38.5488 160.022 38.1603 159.857 37.811C159.692 37.4616 159.433 37.1654 159.109 36.956C158.784 36.7467 158.408 36.6325 158.021 36.6265C157.72 36.6581 157.427 36.7494 157.16 36.8951C156.894 37.0407 156.659 37.2378 156.469 37.4749C156.28 37.712 156.139 37.9844 156.055 38.2763C155.972 38.5682 155.947 38.8737 155.982 39.1753Z" fill="#403D4F"/>
<path d="M143.238 31.9625C143.238 31.9625 143.238 31.9625 143.034 31.7586C142.829 31.5587 142.597 31.3872 142.346 31.2488C142.024 31.0648 141.682 30.9194 141.326 30.8155C140.497 30.5878 139.636 30.5016 138.778 30.5606C138.417 30.5792 138.059 30.6304 137.707 30.7135L136.713 30.9939C136.549 31.0468 136.412 31.1615 136.331 31.3138C136.25 31.4661 136.232 31.6439 136.28 31.8095C136.322 31.9398 136.403 32.0539 136.513 32.1361C136.622 32.2182 136.755 32.2644 136.891 32.2683H138.803C139.134 32.2433 139.466 32.2433 139.797 32.2683C140.125 32.2985 140.449 32.3582 140.766 32.4467C141.097 32.4467 141.326 32.6252 141.581 32.6507C141.763 32.7269 141.95 32.7866 142.142 32.8291H142.371C142.531 32.8982 142.71 32.9023 142.872 32.8403C143.034 32.7784 143.166 32.6554 143.238 32.4977C143.276 32.4091 143.295 32.3137 143.295 32.2174C143.295 32.121 143.276 32.0256 143.238 31.937V31.9625Z" fill="#403D4F"/>
<path d="M155.651 32.9307C155.651 32.9307 155.651 32.9307 155.804 32.9307L156.186 32.7777H156.466C156.567 32.7556 156.672 32.7556 156.772 32.7777C156.998 32.7033 157.227 32.6437 157.46 32.5993C157.698 32.5728 157.937 32.5728 158.174 32.5993H159.627C159.713 32.5994 159.798 32.5821 159.877 32.5485C159.956 32.5149 160.027 32.4656 160.087 32.4038C160.146 32.3419 160.193 32.2686 160.223 32.1883C160.254 32.108 160.268 32.0224 160.264 31.9366C160.259 31.8102 160.218 31.6878 160.146 31.5839C160.074 31.48 159.973 31.399 159.856 31.3504L159.066 31.07C158.784 30.9856 158.493 30.9343 158.2 30.9171C157.853 30.8665 157.501 30.8665 157.155 30.9171C156.489 31.0005 155.857 31.2552 155.319 31.6562L154.835 32.1405C154.708 32.2935 154.708 32.3444 154.708 32.3699V32.5993C154.685 32.7743 154.731 32.9513 154.835 33.0936C154.94 33.2359 155.095 33.3327 155.268 33.364C155.443 33.2692 155.579 33.1157 155.651 32.9307Z" fill="#403D4F"/>
<path d="M150.426 47.8671C150.856 47.8646 151.281 47.7753 151.675 47.6044C152.069 47.4336 152.425 47.1848 152.72 46.873C152.828 46.7575 152.911 46.6208 152.964 46.4717C153.016 46.3226 153.038 46.1641 153.026 46.0064C153.026 45.726 152.593 42.2086 152.44 40.9087C152.411 40.783 152.339 40.6712 152.237 40.5923C152.134 40.5133 152.008 40.472 151.879 40.4754C151.748 40.4944 151.63 40.5636 151.549 40.6682C151.468 40.7728 151.431 40.9047 151.446 41.0362C151.446 41.2146 152.007 45.828 152.058 46.1338C151.849 46.3648 151.593 46.5482 151.307 46.6713C151.021 46.7945 150.712 46.8546 150.401 46.8475C150.27 46.8541 150.147 46.9107 150.057 47.0056C149.967 47.1005 149.916 47.2264 149.917 47.3573C149.923 47.4905 149.978 47.6166 150.073 47.7109C150.167 47.8052 150.293 47.8609 150.426 47.8671Z" fill="#F18380"/>
<path d="M152.771 52.8883C153.714 53.1177 154.071 54.545 153.484 56.2018C152.906 57.3425 151.96 58.2548 150.799 58.7914C149.638 59.3279 148.33 59.4572 147.087 59.1584C146.408 59.1262 145.742 58.9585 145.129 58.6653C144.516 58.3721 143.968 57.9592 143.517 57.451C143.065 56.9428 142.72 56.3495 142.502 55.706C142.283 55.0625 142.196 54.3818 142.244 53.7039C142.244 52.6079 143.009 51.9707 144.436 51.9707C147.235 52.0454 150.023 52.3523 152.771 52.8883Z" fill="#73102A"/>
<path d="M142.244 53.8314V53.602C144.11 53.1709 146.069 53.4554 147.735 54.3993C149.401 55.3432 150.652 56.8778 151.241 58.6997C149.93 59.3423 148.455 59.5733 147.01 59.3624C146.331 59.3207 145.667 59.1435 145.057 58.8412C144.448 58.5389 143.905 58.1175 143.461 57.6021C143.016 57.0866 142.68 56.4874 142.471 55.8398C142.262 55.1922 142.185 54.5093 142.244 53.8314Z" fill="#D65155"/>
<path d="M151.955 54.4177C148.727 54.4677 145.513 53.9766 142.448 52.9648C142.64 52.6176 142.933 52.3367 143.288 52.1592C143.642 51.9818 144.043 51.9161 144.436 51.9708C147.235 52.0455 150.022 52.3524 152.771 52.8884C153.034 52.9792 153.265 53.1465 153.433 53.369C153.601 53.5914 153.698 53.8589 153.714 54.1373C153.149 54.3375 152.553 54.4326 151.955 54.4177Z" fill="white"/>
<path d="M137.784 24.7238C137.784 24.7238 135.235 37.468 124.428 42.4128C124.428 42.4128 113.417 36.0152 114.692 23.8062C116.272 8.76803 137.631 -8.1563 158.889 7.85044C160.953 7.51909 163.196 3.16057 162.533 0C163.402 0.545974 164.086 1.34146 164.495 2.28242C164.905 3.22337 165.021 4.26599 164.828 5.27389C164.635 6.28178 164.143 7.20804 163.415 7.9315C162.687 8.65497 161.758 9.14196 160.749 9.32877C164.219 9.81218 167.368 11.6173 169.538 14.3673C171.709 17.1172 172.733 20.5994 172.397 24.0866C172.289 26.2852 171.373 28.3665 169.826 29.9325C168.279 31.4984 166.209 32.4389 164.012 32.5742H160.265C157.366 31.2458 155.022 28.947 153.638 26.0747C153.998 28.2398 154.75 30.3212 155.855 32.2174C156.059 32.5997 155.6 33.2624 152.465 32.5997C148.866 31.3617 145.858 28.8261 144.029 25.4884C144.714 27.677 145.628 29.7872 146.756 31.7841C146.756 32.1664 145.099 32.7272 142.652 31.6057C141.289 31.013 140.115 30.0582 139.257 28.8449C138.398 27.6316 137.889 26.2063 137.784 24.7238Z" fill="#BC664A"/>
<path d="M154.504 34.7406C153.587 34.7406 153.23 36.4228 153.23 38.0286C153.324 40.2037 153.973 42.3185 155.116 44.1713C155.584 44.7304 156.19 45.1567 156.875 45.4072C157.559 45.6577 158.298 45.7238 159.016 45.5987C159.89 45.7339 160.784 45.6762 161.634 45.4297C162.483 45.1831 163.269 44.7536 163.935 44.1713C165.338 42.4141 166.174 40.2718 166.331 38.0286C166.331 36.4228 165.847 34.7406 164.7 34.7406H154.504Z" stroke="#403D4F" stroke-width="0.75" stroke-miterlimit="10"/>
<path d="M146.806 34.7406C148.03 34.7406 148.514 36.4228 148.514 38.0286C148.347 40.297 147.453 42.451 145.965 44.1713C145.261 44.7495 144.444 45.1749 143.566 45.4206C142.689 45.6663 141.77 45.727 140.868 45.5987C138.577 45.8933 136.254 45.3892 134.292 44.1713C132.502 42.592 131.365 40.4015 131.105 38.0286C131.105 36.4228 131.717 34.7406 133.272 34.7406H146.806Z" stroke="#403D4F" stroke-width="0.75" stroke-miterlimit="10"/>
<path d="M153.434 36.2697C152.702 35.7116 151.806 35.4093 150.885 35.4093C149.964 35.4093 149.069 35.7116 148.336 36.2697" stroke="#403D4F" stroke-width="0.75" stroke-miterlimit="10"/>
<path d="M133.222 34.7406H130.112C129.45 34.7406 128.685 34.8935 128.685 35.7856V37.213C128.685 37.5698 130.954 38.2835 131.234 39.0736" stroke="#403D4F" stroke-width="0.75" stroke-miterlimit="10"/>
<path d="M121.905 38.4622L128.685 35.7859" stroke="#403D4F" stroke-width="0.75" stroke-miterlimit="10"/>
<path d="M125.396 44.2988C125.192 40.8324 124.274 36.7797 120.043 37.3915C115.098 38.1561 114.614 51.5375 125.141 49.9318L125.396 44.2988Z" fill="#FBBEAA"/>
<path d="M119.687 45.1909C119.776 45.1921 119.863 45.169 119.939 45.1241C120.016 45.0791 120.078 45.0141 120.12 44.936C120.232 44.7154 120.399 44.527 120.604 44.3887C120.809 44.2504 121.046 44.1668 121.293 44.1459C121.587 44.1491 121.875 44.2282 122.13 44.3756C122.384 44.5229 122.596 44.7335 122.746 44.987C122.807 45.0742 122.894 45.1389 122.996 45.1711C123.097 45.2034 123.206 45.2014 123.306 45.1654C123.414 45.1355 123.508 45.0672 123.569 44.9733C123.63 44.8794 123.654 44.7664 123.638 44.6556C123.594 43.5836 123.26 42.5435 122.672 41.6459C122.084 40.7483 121.264 40.0268 120.299 39.5579C120.234 39.5194 120.161 39.4958 120.086 39.4887C120.011 39.4816 119.935 39.4913 119.864 39.5171C119.793 39.5428 119.729 39.584 119.676 39.6377C119.623 39.6913 119.582 39.7561 119.557 39.8272C119.532 39.8984 119.524 39.9743 119.531 40.0493C119.539 40.1244 119.564 40.1967 119.603 40.2612C119.642 40.3256 119.695 40.3806 119.758 40.4221C119.821 40.4635 119.893 40.4905 119.967 40.501C120.54 40.7794 121.05 41.1716 121.467 41.6537C121.883 42.1357 122.197 42.6975 122.389 43.3047C122.033 43.1293 121.638 43.0502 121.242 43.0753C120.83 43.1143 120.433 43.2531 120.087 43.4796C119.741 43.706 119.455 44.0135 119.254 44.3753C119.198 44.4911 119.188 44.6237 119.226 44.7466C119.263 44.8695 119.346 44.9736 119.458 45.038L119.687 45.1909Z" fill="#F18380"/>
<g opacity="0.3" filter="url(#filter0_f_110_31)">
<ellipse cx="106.5" cy="14.5" rx="106.5" ry="14.5" transform="matrix(1 0 0 -1 17.5 540)" fill="#CBCBCB"/>
</g>
<path d="M232.287 78.356C232.389 76.1209 231.791 73.9098 230.575 72.0313C228.704 69.8617 227.302 69.3283 226.458 66.5905C225.809 64.0492 224.771 61.623 223.383 59.3977C222.39 58.0336 220.902 56.9175 220.902 55.8758C220.902 54.8341 222.887 52.8251 225.714 53.3955C226.925 53.7728 228.038 54.4132 228.973 55.2707C229.907 56.1283 230.641 57.1819 231.121 58.3561C231.392 57.6406 231.551 56.8877 231.592 56.1238L232.212 38.9198C232.222 38.5257 232.31 38.1374 232.472 37.778C232.634 37.4185 232.866 37.0952 233.155 36.827C233.444 36.5588 233.784 36.3512 234.155 36.2165C234.525 36.0818 234.919 36.0227 235.313 36.0427C235.94 36.0695 236.542 36.292 237.036 36.6791C237.287 36.8755 241.482 41.9632 245.577 47.0062C249.551 51.9011 253.431 56.7539 253.518 57.0505C252.722 64.2799 251.226 71.4151 249.053 78.356C249.027 79.5148 248.759 80.6554 248.265 81.7043C247.772 82.7533 247.064 83.6874 246.188 84.4466C245.312 85.2057 244.287 85.7732 243.179 86.1125C242.07 86.4518 240.903 86.5555 239.752 86.4168C238.711 86.4515 237.674 86.2619 236.712 85.8608C235.751 85.4596 234.886 84.8563 234.178 84.0917C233.47 83.3272 232.935 82.4193 232.608 81.4296C232.282 80.44 232.172 79.3917 232.287 78.356Z" fill="#FBBEAA"/>
<path d="M236.285 31.8014L219.029 48.7278C218.846 48.4676 218.663 48.1935 218.481 47.9333C217.932 47.1387 217.377 46.3373 216.828 45.5427C216.624 45.2482 216.427 44.9604 216.224 44.6659C215.401 43.481 215.561 41.8765 216.585 40.8693L228.475 29.2027C229.499 28.1955 231.107 28.0723 232.278 28.9146C232.564 29.1252 232.849 29.322 233.135 29.5327C233.922 30.0964 234.71 30.6601 235.497 31.2238C235.755 31.421 236.02 31.6112 236.285 31.8014Z" fill="#E2874A"/>
<g opacity="0.53">
<path d="M235.497 31.2367L218.473 47.9254C217.925 47.1308 217.369 46.3295 216.821 45.5349L233.128 29.5387C233.922 30.1092 234.71 30.6729 235.497 31.2367Z" fill="#D46424"/>
</g>
<path d="M239.322 34.0595C239.953 34.8116 240.591 35.5567 241.229 36.3157C242.126 37.3685 243.009 38.4215 243.899 39.4813C247.333 43.5424 250.754 47.6037 254.188 51.6649C256.031 53.8459 257.874 56.0269 259.718 58.2079C260.895 59.6027 260.796 61.6623 259.499 62.9353L249.69 72.5526C248.393 73.8256 246.329 73.8853 244.953 72.6795C242.81 70.7923 240.659 68.912 238.516 67.0248C234.522 63.5092 230.528 60.0075 226.534 56.4919C225.494 55.5859 224.453 54.6661 223.42 53.7531C222.687 53.1058 221.94 52.4588 221.199 51.8047C220.243 50.9667 219.862 49.7211 220.076 48.5649C220.192 47.8866 220.529 47.2332 221.054 46.7087L234.208 33.8041C234.747 33.2794 235.399 32.9606 236.089 32.8555C237.268 32.6823 238.502 33.0817 239.322 34.0595Z" fill="#F5F5F5"/>
<path d="M243.9 39.4795C247.334 43.5407 250.755 47.602 254.189 51.6632L238.524 67.0299C234.53 63.5143 230.536 60.0126 226.535 56.504L243.9 39.4795Z" fill="#E2874A"/>
<g opacity="0.52">
<path d="M236.001 58.6393C233.948 56.8408 231.909 55.0421 229.863 53.2503L226.553 56.5027C230.547 60.0182 234.54 63.52 238.541 67.0285L254.206 51.6618C253.653 51.0124 253.113 50.3627 252.559 49.7133L243.665 58.4353C241.556 60.4987 238.214 60.5809 236.001 58.6393Z" fill="#E2874A"/>
</g>
<path d="M239.347 33.6984L220.863 51.8279C219.887 52.7862 218.312 52.7777 217.354 51.7878L217.263 51.6991C216.304 50.7231 216.32 49.1549 217.303 48.1897L235.787 30.0602C236.763 29.1019 238.331 29.1173 239.297 30.1003L239.387 30.1889C240.339 31.172 240.323 32.7402 239.347 33.6984Z" fill="#E2874A"/>
<g opacity="0.53">
<path d="M238.299 29.498C238.642 30.4056 238.44 31.4649 237.703 32.1784L219.273 50.252C218.577 50.9374 217.585 51.1291 216.718 50.8427C216.839 51.1659 217.022 51.4675 217.281 51.72L217.316 51.7541C218.288 52.7438 219.891 52.7657 220.881 51.7935L239.311 33.7199C240.3 32.7477 240.322 31.1449 239.35 30.1552L239.315 30.1211C239.021 29.8345 238.673 29.6177 238.299 29.498Z" fill="#D46424"/>
</g>
<path d="M239.766 53.1576C241.452 52.688 242.925 52.2832 244.581 54.3905C243.574 55.6461 241.538 56.3203 239.358 55.9531C236.568 55.4829 234.561 53.4973 234.765 51.4571C235.613 52.5313 236.955 53.7582 238.526 53.4628C238.939 53.3886 239.366 53.2729 239.766 53.1576Z" fill="#5B2500"/>
<path d="M240.632 48.3532C243.505 48.8363 245.554 50.9319 245.2 53.0292C245.194 53.0914 245.174 53.1538 245.161 53.2092C243.123 50.9753 241.106 51.5318 239.44 51.9942C239.041 52.1096 238.669 52.2108 238.297 52.2706C237.125 52.4921 235.927 51.1045 235.266 50.0903C236.223 48.7178 238.341 47.9736 240.632 48.3532Z" fill="#5B2500"/>
<path d="M239.877 43.7212C238.468 41.4737 241.329 38.5099 243.144 37.3518C243.144 37.3518 244.236 36.088 246.5 38.3519C249 40.852 247.5 42.5631 247.5 42.5631C245.867 44.3002 242.055 47.1953 239.877 43.7212Z" fill="#FBBEAA"/>
<path d="M243.877 48.073C242.468 45.8255 245.329 42.8617 247.144 41.7036C247.144 41.7036 248.236 40.4398 250.5 42.7037C253 45.2038 251.5 46.9149 251.5 46.9149C249.867 48.652 246.055 51.5471 243.877 48.073Z" fill="#FBBEAA"/>
<path d="M247.877 52.073C246.468 49.8255 249.329 46.8617 251.144 45.7036C251.144 45.7036 252.236 44.4398 254.5 46.7037C257 49.2038 255.5 50.9149 255.5 50.9149C253.867 52.652 250.055 55.5471 247.877 52.073Z" fill="#FBBEAA"/>
<path d="M252.813 55.6334C251.645 53.7496 254.016 51.2655 255.52 50.2949C255.52 50.2949 256.425 49.2356 258.301 51.1331C260.373 53.2286 259.13 54.6627 259.13 54.6627C257.776 56.1187 254.617 58.5453 252.813 55.6334Z" fill="#FBBEAA"/>
<path d="M147.703 483.134C147.703 480.746 148.651 478.456 150.34 476.768C152.028 475.079 154.318 474.131 156.706 474.131C159.094 474.131 161.384 475.079 163.072 476.768C164.761 478.456 165.709 480.746 165.709 483.134V502.703H147.703V483.134Z" fill="#FBBEAA"/>
<path d="M165.065 486.78C167.272 486.78 167.669 487.748 168.314 489.012C169.36 492.383 171.148 495.477 173.547 498.065C177.129 501.116 180.971 503.847 185.031 506.225V516.593H144.95C144.95 516.593 145.223 508.408 145.421 502.629C145.619 496.85 146.19 489.806 146.14 489.062C146.091 488.318 146.14 486.78 147.504 486.78H165.065Z" fill="#302D3B"/>
<path d="M149.935 503.199C149.93 504.472 150.303 505.717 151.007 506.777C151.711 507.838 152.714 508.665 153.889 509.154C155.064 509.643 156.357 509.773 157.606 509.526C158.854 509.279 160.001 508.666 160.901 507.766C161.801 506.866 162.413 505.72 162.66 504.471C162.907 503.223 162.778 501.929 162.289 500.754C161.799 499.579 160.972 498.576 159.912 497.872C158.852 497.168 157.606 496.795 156.334 496.8C154.639 496.807 153.015 497.483 151.816 498.682C150.617 499.88 149.941 501.504 149.935 503.199Z" fill="#93929C"/>
<path d="M156.334 499.429L154.87 501.587L152.365 502.306L153.953 504.365L153.878 506.969L156.334 506.076L158.789 506.969L158.69 504.365L160.302 502.306L157.797 501.587L156.334 499.429Z" fill="white"/>
<path d="M184.758 506.052C184.758 506.052 190.437 509.053 192.57 510.516C193.558 511.185 194.36 512.094 194.902 513.156C195.444 514.219 195.709 515.401 195.671 516.593H180.095C180.095 516.593 180.417 508.979 184.758 506.052Z" fill="white"/>
<path d="M144.95 516.593V520.884C144.95 521.603 145.595 522 146.686 522H193.96C195.026 522 195.671 521.603 195.671 520.884V516.593H144.95Z" fill="white"/>
<path d="M180.095 503.15C180.232 502.939 180.446 502.79 180.691 502.734C180.937 502.679 181.194 502.721 181.409 502.852C181.516 502.918 181.609 503.005 181.682 503.107C181.755 503.209 181.807 503.324 181.834 503.447C181.862 503.569 181.865 503.696 181.843 503.82C181.821 503.943 181.775 504.061 181.707 504.167L180.045 506.845C179.965 506.984 179.849 507.099 179.709 507.177C179.57 507.256 179.411 507.296 179.251 507.292C179.068 507.289 178.888 507.238 178.73 507.143C178.623 507.077 178.531 506.991 178.458 506.889C178.385 506.787 178.333 506.671 178.305 506.548C178.277 506.426 178.274 506.299 178.296 506.176C178.318 506.052 178.365 505.934 178.433 505.829L180.095 503.15Z" fill="white"/>
<path d="M177.168 501.091C177.249 500.997 177.348 500.919 177.46 500.863C177.571 500.807 177.693 500.773 177.817 500.764C177.941 500.755 178.066 500.77 178.185 500.809C178.303 500.848 178.413 500.91 178.507 500.992C178.602 501.073 178.679 501.172 178.735 501.284C178.791 501.395 178.825 501.517 178.834 501.641C178.843 501.765 178.828 501.89 178.789 502.009C178.75 502.127 178.688 502.237 178.606 502.331L176.672 504.613C176.582 504.718 176.472 504.802 176.349 504.862C176.225 504.922 176.09 504.955 175.952 504.96C175.773 504.957 175.598 504.904 175.447 504.806C175.296 504.709 175.175 504.571 175.097 504.409C175.02 504.247 174.99 504.066 175.009 503.888C175.029 503.709 175.098 503.539 175.208 503.398L177.168 501.091Z" fill="white"/>
<path d="M174.415 498.785C174.612 498.658 174.849 498.607 175.081 498.641C175.314 498.676 175.525 498.793 175.677 498.973C175.829 499.152 175.91 499.38 175.906 499.614C175.902 499.849 175.813 500.074 175.655 500.248L173.448 502.158C173.275 502.305 173.055 502.384 172.828 502.381C172.691 502.386 172.555 502.36 172.431 502.304C172.306 502.248 172.196 502.164 172.109 502.059C172.017 501.973 171.944 501.869 171.894 501.754C171.844 501.639 171.818 501.515 171.818 501.389C171.818 501.264 171.844 501.139 171.894 501.024C171.944 500.909 172.017 500.805 172.109 500.719L174.415 498.785Z" fill="white"/>
<path d="M169.579 497.644L172.059 496.106C172.277 495.977 172.536 495.939 172.782 495.999C173.028 496.059 173.24 496.213 173.373 496.428C173.44 496.535 173.485 496.655 173.505 496.779C173.526 496.904 173.52 497.031 173.49 497.154C173.46 497.276 173.406 497.392 173.33 497.493C173.255 497.594 173.16 497.679 173.051 497.743L170.571 499.281C170.424 499.378 170.251 499.43 170.075 499.429C169.913 499.426 169.755 499.38 169.616 499.298C169.477 499.215 169.362 499.098 169.281 498.958C169.15 498.743 169.107 498.486 169.163 498.241C169.219 497.995 169.368 497.781 169.579 497.644Z" fill="white"/>
<path d="M167.495 494.444L170.272 493.279C170.509 493.18 170.776 493.18 171.013 493.277C171.25 493.375 171.439 493.563 171.537 493.8C171.586 493.915 171.611 494.039 171.611 494.164C171.611 494.29 171.586 494.414 171.537 494.529C171.489 494.644 171.418 494.749 171.328 494.837C171.239 494.924 171.133 494.993 171.017 495.04L168.239 496.205H167.867C167.653 496.194 167.449 496.112 167.286 495.972C167.124 495.832 167.013 495.642 166.97 495.432C166.928 495.222 166.956 495.003 167.051 494.811C167.146 494.619 167.302 494.464 167.495 494.37V494.444Z" fill="white"/>
<path d="M165.759 490.873L168.834 490.104C169.078 490.044 169.335 490.084 169.549 490.215C169.763 490.345 169.916 490.555 169.975 490.798C170.034 491.042 169.995 491.298 169.864 491.512C169.734 491.726 169.524 491.88 169.281 491.939L166.23 492.733H166.007C165.793 492.73 165.586 492.659 165.416 492.529C165.246 492.4 165.123 492.219 165.064 492.013C165.011 491.77 165.054 491.516 165.183 491.304C165.312 491.091 165.519 490.937 165.759 490.873Z" fill="white"/>
<path d="M134.532 357.98C134.805 345.976 142.891 340.172 154.87 340.47C166.85 340.768 175.481 347.043 175.208 359.022L165.709 484.102H147.702L134.532 357.98Z" fill="#FBBEAA"/>
<path d="M132.969 357.906C133.036 355.056 133.663 352.247 134.816 349.639C135.968 347.032 137.623 344.677 139.685 342.709C141.748 340.741 144.178 339.198 146.836 338.169C149.495 337.14 152.33 336.645 155.18 336.712C158.03 336.779 160.839 337.406 163.446 338.558C166.054 339.711 168.409 341.365 170.377 343.428C172.345 345.49 173.887 347.92 174.916 350.579C175.945 353.237 176.441 356.072 176.374 358.922L182.005 487.5H132.97L132.969 357.906Z" fill="#93929C"/>
<path d="M71.8062 483.134C71.8062 480.746 72.7547 478.456 74.4432 476.768C76.1316 475.079 78.4217 474.131 80.8095 474.131C83.1973 474.131 85.4874 475.079 87.1758 476.768C88.8643 478.456 89.8129 480.746 89.8129 483.134V502.703H71.8062V483.134Z" fill="#FBBEAA"/>
<path d="M89.1438 486.78C91.3761 486.78 91.7729 487.748 92.393 489.012C93.4508 492.384 95.2471 495.476 97.6511 498.065C101.228 501.122 105.071 503.853 109.135 506.225V516.593H69.0537C69.0537 516.593 69.3265 508.408 69.525 502.629C69.7234 496.85 70.2691 489.806 70.2443 489.062C70.2195 488.318 70.2442 486.78 71.5836 486.78H89.1438Z" fill="#302D3B"/>
<path d="M74.0142 503.199C74.0093 504.471 74.3819 505.715 75.0848 506.775C75.7876 507.834 76.7892 508.662 77.9625 509.152C79.1359 509.642 80.4283 509.772 81.676 509.527C82.9238 509.282 84.0707 508.672 84.9716 507.775C85.8725 506.878 86.4868 505.733 86.7367 504.486C86.9865 503.24 86.8608 501.947 86.3753 500.771C85.8898 499.596 85.0665 498.591 84.0096 497.884C82.9526 497.177 81.7097 496.8 80.4381 496.8C78.7387 496.8 77.1085 497.473 75.9045 498.673C74.7005 499.872 74.0208 501.5 74.0142 503.199Z" fill="#93929C"/>
<path d="M80.4133 499.429L78.9499 501.587L76.4448 502.306L78.057 504.365L77.9826 506.969L80.4133 506.076L82.8687 506.969L82.7943 504.365L84.4065 502.306L81.8766 501.587L80.4133 499.429Z" fill="white"/>
<path d="M108.836 506.052C108.836 506.052 114.541 509.053 116.649 510.516C117.642 511.18 118.448 512.087 118.99 513.151C119.533 514.215 119.794 515.4 119.75 516.593H104.099C104.099 516.593 104.521 508.979 108.836 506.052Z" fill="white"/>
<path d="M69.0537 516.593V520.884C69.0537 521.603 69.6738 522 70.7651 522H118.088C119.18 522 119.8 521.603 119.8 520.884V516.593H69.0537Z" fill="white"/>
<path d="M104.199 503.15C104.333 502.936 104.548 502.785 104.794 502.729C105.041 502.673 105.299 502.717 105.513 502.852C105.727 502.987 105.878 503.201 105.934 503.448C105.99 503.694 105.946 503.953 105.811 504.167L104.149 506.846C104.063 506.985 103.942 507.099 103.799 507.177C103.655 507.255 103.494 507.295 103.33 507.292C103.154 507.292 102.981 507.241 102.834 507.143C102.728 507.077 102.635 506.991 102.562 506.889C102.489 506.787 102.437 506.671 102.409 506.549C102.381 506.426 102.378 506.299 102.4 506.176C102.422 506.052 102.469 505.934 102.537 505.829L104.199 503.15Z" fill="white"/>
<path d="M101.247 501.091C101.41 500.901 101.642 500.781 101.892 500.758C102.141 500.735 102.391 500.81 102.586 500.967C102.778 501.135 102.898 501.37 102.921 501.624C102.945 501.878 102.869 502.132 102.71 502.331L100.751 504.613C100.665 504.721 100.556 504.809 100.431 504.869C100.306 504.929 100.17 504.96 100.032 504.96C99.8498 504.962 99.6713 504.911 99.5177 504.814C99.3641 504.717 99.242 504.577 99.166 504.412C99.0899 504.247 99.0633 504.063 99.0893 503.883C99.1152 503.703 99.1927 503.535 99.3123 503.398L101.247 501.091Z" fill="white"/>
<path d="M98.519 498.785C98.7163 498.658 98.9531 498.607 99.1853 498.641C99.4175 498.676 99.6292 498.793 99.781 498.973C99.9327 499.152 100.014 499.38 100.01 499.614C100.006 499.849 99.9169 500.074 99.7591 500.248L97.5269 502.158C97.3538 502.305 97.1336 502.384 96.9068 502.381C96.7705 502.384 96.6352 502.357 96.5108 502.301C96.3864 502.245 96.2759 502.163 96.1875 502.059C96.099 501.971 96.0288 501.867 95.9808 501.752C95.9329 501.637 95.9082 501.514 95.9082 501.389C95.9082 501.265 95.9329 501.141 95.9808 501.026C96.0288 500.911 96.099 500.807 96.1875 500.719L98.519 498.785Z" fill="white"/>
<path d="M93.6824 497.644L96.1626 496.106C96.3766 496.016 96.6159 496.005 96.8368 496.077C97.0578 496.148 97.2456 496.297 97.3659 496.496C97.4863 496.694 97.5312 496.93 97.4924 497.159C97.4537 497.388 97.3338 497.595 97.1547 497.743L94.6745 499.281C94.5275 499.378 94.3548 499.43 94.1784 499.429C94.0131 499.427 93.8511 499.383 93.7078 499.301C93.5645 499.218 93.4447 499.1 93.3599 498.958C93.2311 498.74 93.1927 498.481 93.2529 498.235C93.3132 497.989 93.4674 497.777 93.6824 497.644Z" fill="white"/>
<path d="M231.071 88.8421L220.974 144.5C219.308 151.482 221.883 157.799 231.071 158.907C232.767 159.101 234.49 158.99 236.136 158.582C237.782 158.173 239.316 157.475 240.645 156.529C241.974 155.584 243.071 154.412 243.868 153.083C244.665 151.754 245.146 150.297 245.283 148.8L248.362 88.9529C249.17 83.3007 246.368 79.5326 241.471 79.0671C235.463 78.4908 232.283 81.6161 231.071 88.8421Z" fill="#FBBEAA"/>
<path d="M91.5992 494.445L94.3771 493.279C94.4926 493.23 94.6165 493.206 94.7418 493.206C94.867 493.206 94.9909 493.231 95.1064 493.279C95.2219 493.328 95.3265 493.399 95.4142 493.488C95.5019 493.577 95.5709 493.683 95.6172 493.8C95.7098 494.031 95.71 494.288 95.6176 494.519C95.5252 494.75 95.3474 494.937 95.1212 495.04L92.3185 496.206C92.2041 496.231 92.0855 496.231 91.9712 496.206C91.7802 496.206 91.5935 496.149 91.4346 496.043C91.2757 495.937 91.1518 495.787 91.0783 495.61C91.003 495.386 91.0148 495.142 91.1113 494.926C91.2078 494.71 91.3819 494.538 91.5992 494.445Z" fill="white"/>
<path d="M89.8625 490.873L92.9133 490.104C93.1598 490.044 93.4202 490.083 93.6383 490.212C93.8564 490.342 94.0147 490.553 94.079 490.798C94.1086 490.919 94.114 491.044 94.0951 491.167C94.0762 491.289 94.0332 491.407 93.9687 491.513C93.9042 491.619 93.8194 491.711 93.7191 491.784C93.6189 491.858 93.5051 491.91 93.3845 491.939L90.3338 492.733H90.0858C89.8623 492.716 89.6517 492.622 89.49 492.466C89.3283 492.311 89.2255 492.105 89.1991 491.882C89.1727 491.66 89.2245 491.435 89.3455 491.246C89.4665 491.058 89.6493 490.917 89.8625 490.848V490.873Z" fill="white"/>
<path d="M81.6533 357.608C82.8717 351.978 86.2759 347.062 91.1176 343.942C95.9593 340.821 101.842 339.75 107.473 340.966C119.204 343.446 125.529 355.004 122.999 366.736L89.8134 486.16H71.5835L81.6533 357.608Z" fill="#FBBEAA"/>
<path d="M81.6562 355.252C83.0023 349.757 86.4384 345.004 91.2341 342.003C96.0298 339.002 101.807 337.99 107.337 339.182C112.867 340.374 117.715 343.676 120.848 348.386C123.982 353.096 125.155 358.842 124.118 364.404L110.924 487C110.924 487 79.3252 488.885 60.5 487L81.6562 355.252Z" fill="#93929C"/>
<path d="M239.051 135.402L167.818 81.2827C159.509 75.9749 153.854 78.8024 149.439 84.4822C147.423 87.2313 146.488 90.6258 146.813 94.0195C147.137 97.4132 148.699 100.569 151.2 102.886L222.259 155.244C224.763 157.359 227.987 158.426 231.258 158.223C234.53 158.019 237.597 156.561 239.82 154.153L240.142 153.806C241.322 152.547 242.233 151.061 242.819 149.439C243.406 147.816 243.656 146.091 243.554 144.369C243.452 142.647 243 140.964 242.225 139.422C241.451 137.88 240.371 136.512 239.051 135.402Z" fill="#FBBEAA"/>
<path d="M151.199 102.861C150.542 102.295 149.943 101.663 149.414 100.976C148.945 99.2109 148.885 97.3622 149.237 95.5702C149.59 93.7781 150.345 92.0899 151.447 90.6335C155.193 84.8545 163.055 80.3156 166.552 81.1837L170.024 82.9447L209.337 112.708C205.857 120.885 201.157 128.486 195.398 135.253L151.199 102.861Z" fill="#F18380"/>
<path d="M161.939 77.4133L223.582 118.988C223.323 121.115 230.157 77.4133 230.157 77.4133L249.493 79.9297C249.493 79.9297 249.099 124.058 246.213 147.478C245.06 156.828 237.35 160.397 228.146 158.389C223.602 157.397 219.324 155.533 215.517 152.861C199.159 141.379 153.265 109.038 149.513 104.969C143.04 97.9499 143.039 92.6918 146.76 86.9128C150.48 81.1338 158.442 76.5452 161.939 77.4133Z" fill="#002776"/>
<path d="M132.969 357.906L120.246 224.691C120.246 209.983 135.4 193.961 157.747 197.408C177.936 200.558 184.088 220.847 182.426 240.069C180.764 259.291 176.275 358.849 176.275 358.849C176.208 361.699 175.58 364.507 174.428 367.115C173.276 369.722 171.621 372.077 169.559 374.045C167.496 376.013 165.066 377.556 162.408 378.585C159.749 379.614 156.914 380.109 154.064 380.042C151.214 379.976 148.405 379.348 145.798 378.196C143.19 377.043 140.835 375.389 138.867 373.326C136.899 371.264 135.357 368.834 134.328 366.175C133.299 363.517 132.803 360.682 132.87 357.832L132.969 357.906Z" fill="#93929C"/>
<path d="M81.6538 355.252L94.3031 222.062C96.9818 207.602 114.964 194.779 136.269 202.369C155.491 209.239 157.723 230.321 152.465 248.899C147.207 267.476 124.116 364.404 124.116 364.404C122.77 369.899 119.334 374.652 114.538 377.653C109.742 380.654 103.965 381.666 98.4349 380.474C92.9047 379.282 88.0575 375.98 84.9238 371.27C81.79 366.56 80.6169 360.813 81.6538 355.252Z" fill="#93929C"/>
<path d="M152.465 248.899C147.231 267.476 124.115 364.405 124.115 364.405" stroke="#5E5D63" stroke-width="0.75" stroke-miterlimit="10"/>
<path d="M148.744 75.3049C148.744 75.3049 159.707 77.2147 161.84 77.7852C163.099 78.0806 164.262 78.6907 165.221 79.5583C166.179 80.4259 166.902 81.5226 167.321 82.7457C168.686 85.9949 175.705 107.275 176.35 109.582C176.786 112.123 176.376 114.737 175.184 117.023C174.167 119.801 168.909 132.45 168.909 132.45L168.115 173.201L138.502 177.898L110.127 173.201C110.127 173.201 100.206 97.4041 99.7095 92.7164C99.2135 88.0287 101.545 78.9758 107.15 77.8348C112.756 76.6939 128.133 75.3546 128.133 75.3546L148.744 75.3049Z" fill="#FBBEAA"/>
<path d="M169.506 156.816V171.142C150.11 172.928 119.205 171.663 107.597 171.142C107.051 167.05 106.481 160.105 105.886 155.492C121.685 155.889 147.779 157.361 169.506 156.816Z" fill="white"/>
<path d="M67.2183 169.555L98.9905 85.9453C103.232 77.0164 109.507 76.4211 116.352 78.9014C119.518 80.1644 122.108 82.5495 123.627 85.6012C125.146 88.6529 125.488 92.1572 124.587 95.4448L91.8721 177.566C90.8805 180.69 88.717 183.309 85.8358 184.872C82.9546 186.435 79.5799 186.821 76.4201 185.949L75.9488 185.825C74.2821 185.371 72.7254 184.581 71.3737 183.505C70.022 182.429 68.9037 181.089 68.0868 179.566C67.2699 178.044 66.7716 176.371 66.6223 174.65C66.473 172.929 66.6758 171.195 67.2183 169.555Z" fill="#FBBEAA"/>
<path d="M80.3877 134.881L98.9896 85.9452C99.4885 84.872 100.078 83.8432 100.751 82.8697C103.029 81.4431 105.638 80.6295 108.323 80.5078C111.009 80.3861 113.68 80.9605 116.079 82.1752C118.864 83.5304 121.102 85.796 122.424 88.597C123.745 91.3981 124.071 94.5665 123.346 97.5776C123.346 97.8752 123.172 98.4457 123.023 99.2146L103.826 147.456C95.4409 144.432 87.5442 140.195 80.3877 134.881Z" fill="#F18380"/>
<path d="M100.726 81.4811L65.4141 173.129C94.418 163.848 96 168.5 101.5 154C101.5 154 124.983 97.95 125.678 94.1304C126.402 91.1192 126.077 87.9509 124.755 85.1499C123.434 82.3489 121.195 80.0832 118.41 78.728C110.647 74.7596 102.909 78.356 100.726 81.4811Z" fill="#002776"/>
<path d="M94.5309 221.611C95.0736 214.782 102.4 188.6 110.27 173.685C110.27 173.685 127.435 170.964 138.49 171C150.025 171.038 167.945 173.685 167.945 173.685C173.077 185.297 178.923 210.665 180.625 216.138C181.653 219.358 181.778 222.797 180.986 226.083C180.195 229.369 178.517 232.375 176.135 234.775C170.289 241.407 155.216 249 151.738 249C136.773 246.864 122.105 243.009 108.025 237.512C100.081 234.184 94.0128 228.464 94.5309 221.611Z" fill="#93929C"/>
<path d="M149.265 75.4453C149.265 75.4453 160.307 77.3689 162.48 77.9435C163.745 78.2475 164.914 78.8642 165.878 79.7372C166.843 80.6102 167.573 81.7114 168.001 82.9399C169.35 86.2125 176.42 107.647 177.095 109.97C177.534 112.53 177.121 115.162 175.92 117.465C174.921 120.188 169.6 132.904 169.6 132.904L168.801 173.949H110.368C110.368 173.949 100.45 97.6292 99.9756 92.9326C99.5009 88.236 101.824 79.0927 107.47 77.9435C113.116 76.7943 128.58 75.4453 128.58 75.4453H149.265Z" fill="white"/>
<path d="M127.83 75.4453C130.141 83.5821 131.442 91.9725 131.702 100.427V210.972C131.702 214.369 130.228 214.594 128.455 214.594H96.9526C95.3288 214.594 92.8556 213.545 93.655 211.222C94.4544 208.898 101.499 187.789 108.369 173.374C108.369 173.374 98.5265 94.0568 98.5265 90.3095C98.5265 86.5622 101.274 78.9677 106.021 77.8185C110.768 76.6694 127.93 74.6958 127.93 74.6958L127.83 75.4453Z" fill="#002776"/>
<path d="M150.089 75.7206C151.488 86.3445 152.322 97.0351 152.587 107.747V211.472C152.587 213.82 153.187 214.545 155.41 214.545H180.567C182.241 214.545 182.865 213.521 182.441 211.447C182.016 209.374 170.874 173.974 170.874 173.974L171.848 133.229C171.848 133.229 177.569 114.043 177.794 112.519C178.066 110.614 177.887 108.671 177.269 106.848C176.57 105.024 168.576 83.6149 167.826 82.066C167.321 81.0119 166.596 80.0784 165.7 79.3285C164.804 78.5786 163.757 78.0298 162.63 77.7191C159.932 77.0696 150.014 75.2209 150.014 75.2209L150.089 75.7206Z" fill="#002776"/>
<path d="M131.703 139.799C131.703 139.799 117.288 108.696 116.264 106.673C115.24 104.649 115.839 102.626 118.287 103C120.736 103.375 132.177 106.348 132.177 106.348L131.703 139.799Z" fill="#003399"/>
<path d="M132.152 107.422C132.152 107.422 119.411 97.7541 118.287 96.9547C117.751 96.5392 117.357 95.9675 117.161 95.3186C116.964 94.6697 116.973 93.9756 117.188 93.3324C117.662 92.2581 124.108 73.3468 124.907 72.0478C125.789 70.9469 126.767 69.927 127.83 69C127.83 69 130.203 79.5673 131.003 84.7386C131.794 92.2735 132.178 99.8458 132.152 107.422Z" fill="#003399"/>
<path d="M152.612 139.799C152.612 139.799 167.027 108.696 168.026 106.673C169.025 104.649 168.451 102.626 166.003 103C163.554 103.375 152.138 106.348 152.138 106.348L152.612 139.799Z" fill="#003399"/>
<path d="M152.138 107.422C152.138 107.422 163.479 97.7544 164.479 96.955C164.959 96.4984 165.277 95.8978 165.385 95.2442C165.493 94.5906 165.385 93.9195 165.078 93.3326C164.454 92.2584 154.411 75.4456 153.437 74.2714C152.405 73.167 151.285 72.1477 150.089 71.2236C150.089 71.2236 149.864 74.0716 149.939 76.5198C150.014 78.968 152.138 107.422 152.138 107.422Z" fill="#003399"/>
<g filter="url(#filter1_d_110_31)">
<rect x="117.5" y="116.672" width="40.9288" height="58.3236" rx="1" transform="rotate(-6.55484 117.5 116.672)" fill="#EFEFEF"/>
</g>
<path d="M136.717 142.811C139.563 141.609 142.137 139.827 144.275 137.578C145.598 136.189 147.099 134.984 148.736 133.994C149.697 133.394 150.526 132.601 151.171 131.667C152.024 130.217 152.73 128.686 153.277 127.098C153.48 125.73 153.946 124.411 154.647 123.217C155.315 122.605 157.669 122.932 158.892 125.308C159.313 126.366 159.504 127.505 159.452 128.649C159.399 129.793 159.105 130.916 158.588 131.942C157.98 133.172 157.504 134.463 157.167 135.792L157.389 135.925C159.252 134.936 161.242 134.219 163.3 133.795C164.046 133.628 164.823 133.719 165.506 134.051C166.19 134.384 166.739 134.94 167.066 135.629C167.393 136.319 167.478 137.102 167.308 137.852C167.138 138.602 166.723 139.276 166.129 139.765C169.34 140.134 168.976 145.086 166.219 145.741C166.81 145.988 167.308 146.414 167.647 146.959C167.986 147.504 168.149 148.142 168.114 148.788C168.079 149.434 167.849 150.056 167.453 150.569C167.057 151.083 166.516 151.464 165.902 151.661C167.86 153.466 166.429 156.441 162.874 156.454C159.985 156.748 152.26 157.957 149.572 158.536C146.885 159.114 141.483 157.835 139.747 158.372C137.164 159.318 134.164 159.334 131.876 152.537C129.587 145.74 134.059 143.69 136.717 142.811Z" fill="#FBBEAA"/>
<path d="M138.5 163L85.5001 185.5C78.2763 188.873 69.745 185.929 66.5001 177.5C65.9067 175.929 65.8666 173.36 65.9402 171.682C66.0137 170.004 66.4274 168.359 67.156 166.845C67.8846 165.332 69.234 162.604 70.4999 161.5C71.7657 160.396 76.2765 158.359 77.8748 157.843L137.5 141.5L138.5 163Z" fill="#002776"/>
<defs>
<filter id="filter0_f_110_31" x="0.5" y="494" width="247" height="63" filterUnits="userSpaceOnUse" color-interpolation-filters="sRGB">
<feFlood flood-opacity="0" result="BackgroundImageFix"/>
<feBlend mode="normal" in="SourceGraphic" in2="BackgroundImageFix" result="shape"/>
<feGaussianBlur stdDeviation="8.5" result="effect1_foregroundBlur_110_31"/>
</filter>
<filter id="filter1_d_110_31" x="117.607" y="112.107" width="49.104" height="62.3995" filterUnits="userSpaceOnUse" color-interpolation-filters="sRGB">
<feFlood flood-opacity="0" result="BackgroundImageFix"/>
<feColorMatrix in="SourceAlpha" type="matrix" values="0 0 0 0 0 0 0 0 0 0 0 0 0 0 0 0 0 0 127 0" result="hardAlpha"/>
<feOffset dx="2"/>
<feComposite in2="hardAlpha" operator="out"/>
<feColorMatrix type="matrix" values="0 0 0 0 0.603922 0 0 0 0 0.6 0 0 0 0 0.631373 0 0 0 1 0"/>
<feBlend mode="normal" in2="BackgroundImageFix" result="effect1_dropShadow_110_31"/>
<feBlend mode="normal" in="SourceGraphic" in2="effect1_dropShadow_110_31" result="shape"/>
</filter>
</defs>
</svg>
