<svg width="191" height="514" viewBox="0 0 191 514" fill="none" xmlns="http://www.w3.org/2000/svg">
<path d="M157.024 217.98C156.486 211.214 149.232 185.274 141.44 170.496C141.44 170.496 124.441 172.643 113.495 172.679C102.074 172.716 84.3316 170.496 84.3316 170.496C79.251 182.001 73.4621 207.135 71.7767 212.558C70.7592 215.748 70.6356 219.156 71.4194 222.412C72.2031 225.668 73.8643 228.646 76.2222 231.024C82.0112 237.594 96.9355 245.118 100.38 245.118C115.197 243.001 129.721 239.182 143.663 233.735C151.528 230.438 157.537 224.771 157.024 217.98Z" fill="#93929C"/>
<path d="M22.1182 77.0905C22.0175 74.8895 22.6067 72.7119 23.8036 70.8619C25.6464 68.7253 27.0269 66.2303 27.8583 63.5341C28.4979 61.0313 29.5196 58.642 30.8872 56.4505C31.8643 55.1071 33.3298 54.0079 33.3298 52.982C33.3298 51.9561 31.3757 49.9776 28.5912 50.5394C27.3984 50.911 26.3025 51.5416 25.382 52.3861C24.4614 53.2307 23.7389 54.2683 23.2662 55.4246C22.9994 54.7201 22.843 53.9786 22.8022 53.2263L22.1916 38.2531C22.1823 37.865 22.0953 37.4826 21.9358 37.1286C21.7763 36.7746 21.5474 36.4561 21.2628 36.192C20.9782 35.9279 20.6436 35.7235 20.2787 35.5908C19.9138 35.4582 19.5261 35.4 19.1383 35.4197C18.5209 35.446 17.9273 35.6652 17.441 36.0464C16.9546 36.4275 16.6 36.9516 16.427 37.5447V36.8608C16.333 36.1329 15.9672 35.4675 15.403 34.9982C14.8387 34.5289 14.1178 34.2903 13.385 34.3305C12.6521 34.3707 11.9617 34.6867 11.4521 35.2149C10.9426 35.7431 10.6518 36.4446 10.638 37.1784V39.2546C10.3934 38.6145 9.92684 38.0836 9.32351 37.7587C8.72018 37.4338 8.02019 37.3365 7.35112 37.4845C6.68204 37.6325 6.08842 38.016 5.67846 38.5651C5.2685 39.1142 5.06948 39.7923 5.11768 40.4759V41.7948C4.85477 41.3328 4.46298 40.9574 3.99015 40.7145C3.51732 40.4716 2.98394 40.3717 2.45524 40.427C1.73123 40.5189 1.07145 40.889 0.615536 41.4589C0.159618 42.0288 -0.0566368 42.7537 0.0126381 43.4803L1.20949 56.1086C1.99355 63.2282 3.46604 70.2551 5.60623 77.0905C5.6321 78.2318 5.89651 79.3551 6.38244 80.3881C6.86836 81.4211 7.56505 82.341 8.42773 83.0887C9.29042 83.8363 10.3 84.3952 11.3916 84.7294C12.4832 85.0635 13.6326 85.1656 14.766 85.029C15.7917 85.0632 16.8127 84.8765 17.7599 84.4814C18.707 84.0864 19.5581 83.4922 20.2555 82.7392C20.9528 81.9863 21.4801 81.0922 21.8015 80.1176C22.1229 79.1429 22.2309 78.1106 22.1182 77.0905Z" fill="#FBBEAA"/>
<path d="M104.434 475.724C104.434 473.373 103.5 471.117 101.837 469.454C100.174 467.792 97.9187 466.857 95.5672 466.857C93.2156 466.857 90.9603 467.792 89.2975 469.454C87.6346 471.117 86.7005 473.373 86.7005 475.724V494.996H104.434V475.724Z" fill="#FBBEAA"/>
<path d="M87.3357 479.315C85.1618 479.315 84.7709 480.267 84.1359 481.513C83.1058 484.833 81.3447 487.879 78.982 490.429C75.4546 493.433 71.6703 496.122 67.6727 498.465V508.675H107.145C107.145 508.675 106.877 500.614 106.681 494.923C106.486 489.232 105.924 482.295 105.973 481.562C106.022 480.829 105.973 479.315 104.629 479.315H87.3357Z" fill="#302D3B"/>
<path d="M102.236 495.485C102.24 496.738 101.873 497.964 101.18 499.008C100.486 500.053 99.4984 500.867 98.3415 501.349C97.1845 501.831 95.9104 501.958 94.681 501.715C93.4515 501.472 92.3221 500.869 91.4358 499.982C90.5496 499.096 89.9466 497.967 89.7032 496.737C89.4599 495.508 89.5873 494.234 90.0691 493.077C90.551 491.92 91.3656 490.932 92.4097 490.239C93.4538 489.545 94.6803 489.178 95.9336 489.183C97.603 489.189 99.2022 489.855 100.383 491.036C101.563 492.216 102.229 493.815 102.236 495.485Z" fill="#93929C"/>
<path d="M95.9343 491.771L97.3755 493.897L99.8425 494.605L98.2793 496.632L98.3525 499.197L95.9343 498.318L93.5161 499.197L93.6139 496.632L92.0262 494.605L94.4932 493.897L95.9343 491.771Z" fill="white"/>
<path d="M67.9416 498.294C67.9416 498.294 62.348 501.249 60.2474 502.69C59.2749 503.349 58.4849 504.244 57.951 505.29C57.4172 506.336 57.1568 507.501 57.1941 508.675H72.5337C72.5337 508.675 72.2161 501.176 67.9416 498.294Z" fill="white"/>
<path d="M107.145 508.675V512.901C107.145 513.609 106.51 514 105.435 514H58.8793C57.829 514 57.1939 513.609 57.1939 512.901V508.675H107.145Z" fill="white"/>
<path d="M72.534 495.435C72.3988 495.228 72.1879 495.081 71.9462 495.026C71.7045 494.971 71.451 495.013 71.2395 495.142C71.1342 495.207 71.0428 495.292 70.9709 495.393C70.8989 495.493 70.8478 495.607 70.8205 495.728C70.7932 495.848 70.7903 495.973 70.8119 496.095C70.8335 496.217 70.8792 496.333 70.9464 496.437L72.5829 499.075C72.6617 499.212 72.7759 499.324 72.9135 499.402C73.051 499.479 73.2068 499.518 73.3645 499.514C73.5454 499.512 73.7224 499.461 73.8775 499.368C73.9828 499.303 74.0741 499.218 74.146 499.117C74.218 499.017 74.2692 498.903 74.2965 498.782C74.3238 498.662 74.3266 498.537 74.305 498.415C74.2834 498.293 74.2378 498.177 74.1706 498.073L72.534 495.435Z" fill="white"/>
<path d="M75.4158 493.408C75.3356 493.315 75.2379 493.239 75.1282 493.183C75.0185 493.128 74.899 493.095 74.7765 493.086C74.654 493.077 74.531 493.092 74.4144 493.131C74.2978 493.169 74.1899 493.23 74.0968 493.31C74.0038 493.391 73.9275 493.488 73.8722 493.598C73.817 493.708 73.7838 493.827 73.7747 493.95C73.7657 494.072 73.7808 494.195 73.8193 494.312C73.8578 494.428 73.9189 494.536 73.9991 494.629L75.9043 496.877C75.9923 496.98 76.1006 497.063 76.2226 497.122C76.3445 497.181 76.4774 497.214 76.6127 497.219C76.7897 497.215 76.9621 497.163 77.1109 497.067C77.2596 496.971 77.3787 496.835 77.4548 496.676C77.5309 496.516 77.561 496.338 77.5417 496.162C77.5224 495.986 77.4544 495.819 77.3455 495.68L75.4158 493.408Z" fill="white"/>
<path d="M78.1267 491.137C77.9324 491.012 77.6991 490.961 77.4705 490.995C77.2418 491.029 77.0333 491.145 76.8838 491.322C76.7344 491.498 76.6542 491.723 76.6581 491.954C76.6621 492.185 76.75 492.407 76.9054 492.578L79.0793 494.459C79.2497 494.603 79.4665 494.681 79.6899 494.679C79.8244 494.684 79.9582 494.657 80.081 494.602C80.2038 494.547 80.3124 494.465 80.3983 494.361C80.4885 494.277 80.5605 494.175 80.6096 494.061C80.6588 493.948 80.6841 493.825 80.6841 493.702C80.6841 493.578 80.6588 493.456 80.6096 493.342C80.5605 493.229 80.4885 493.127 80.3983 493.042L78.1267 491.137Z" fill="white"/>
<path d="M82.8903 490.013L80.4477 488.499C80.2333 488.372 79.9777 488.334 79.7357 488.394C79.4937 488.453 79.2845 488.605 79.1531 488.817C79.087 488.922 79.0428 489.039 79.023 489.162C79.0032 489.285 79.0083 489.41 79.0379 489.531C79.0675 489.652 79.1211 489.765 79.1954 489.865C79.2697 489.965 79.3634 490.048 79.4707 490.111L81.9133 491.626C82.0581 491.722 82.2281 491.773 82.4018 491.772C82.561 491.768 82.7165 491.724 82.8533 491.642C82.9902 491.561 83.1039 491.446 83.1834 491.308C83.3126 491.096 83.3542 490.843 83.2995 490.601C83.2448 490.36 83.098 490.149 82.8903 490.013Z" fill="white"/>
<path d="M84.9426 486.863L82.2069 485.715C81.9737 485.618 81.7114 485.617 81.4778 485.713C81.2442 485.809 81.0584 485.994 80.9612 486.228C80.9135 486.341 80.8889 486.464 80.889 486.587C80.889 486.71 80.9137 486.832 80.9614 486.946C81.0092 487.06 81.0791 487.163 81.1672 487.249C81.2552 487.335 81.3595 487.403 81.4741 487.449L84.2098 488.597H84.5762C84.787 488.586 84.988 488.505 85.1477 488.367C85.3075 488.229 85.4169 488.042 85.4588 487.835C85.5007 487.628 85.4728 487.413 85.3793 487.224C85.2859 487.035 85.1323 486.882 84.9426 486.79V486.863Z" fill="white"/>
<path d="M86.6515 483.345L83.6227 482.588C83.383 482.53 83.13 482.569 82.9192 482.697C82.7085 482.825 82.5573 483.032 82.499 483.272C82.4407 483.512 82.4801 483.765 82.6083 483.975C82.7366 484.186 82.9433 484.337 83.183 484.395L86.1874 485.177H86.4072C86.6176 485.175 86.8216 485.104 86.9888 484.977C87.156 484.849 87.2776 484.671 87.3354 484.469C87.3878 484.229 87.3459 483.979 87.2185 483.77C87.0912 483.561 86.8881 483.409 86.6515 483.345Z" fill="white"/>
<path d="M117.404 352.47C117.136 340.648 109.173 334.932 97.375 335.225C85.5772 335.519 77.0769 341.698 77.3456 353.496L86.7007 476.677H104.434L117.404 352.47Z" fill="#FBBEAA"/>
<path d="M118.944 352.396C118.878 349.59 118.26 346.824 117.125 344.256C115.99 341.688 114.361 339.368 112.33 337.43C110.298 335.492 107.905 333.973 105.287 332.96C102.669 331.946 99.8768 331.459 97.0701 331.524C94.2634 331.59 91.4971 332.208 88.9292 333.343C86.3613 334.478 84.042 336.107 82.1038 338.138C80.1657 340.17 78.6466 342.563 77.6333 345.181C76.62 347.799 76.1322 350.591 76.198 353.398L70.6523 480.024H118.943L118.944 352.396Z" fill="#93929C"/>
<path d="M179.178 475.724C179.178 473.373 178.244 471.117 176.581 469.454C174.918 467.792 172.663 466.857 170.312 466.857C167.96 466.857 165.705 467.792 164.042 469.454C162.379 471.117 161.445 473.373 161.445 475.724V494.996H179.178V475.724Z" fill="#FBBEAA"/>
<path d="M162.104 479.315C159.905 479.315 159.514 480.267 158.904 481.513C157.862 484.833 156.093 487.879 153.725 490.429C150.203 493.439 146.418 496.128 142.416 498.465V508.675H181.889C181.889 508.675 181.62 500.614 181.425 494.923C181.229 489.232 180.692 482.295 180.716 481.562C180.741 480.829 180.716 479.315 179.397 479.315H162.104Z" fill="#302D3B"/>
<path d="M177.003 495.485C177.008 496.737 176.641 497.962 175.949 499.006C175.257 500.049 174.27 500.864 173.115 501.347C171.959 501.829 170.686 501.958 169.458 501.717C168.229 501.475 167.099 500.875 166.212 499.991C165.325 499.107 164.72 497.98 164.474 496.752C164.228 495.524 164.352 494.251 164.83 493.094C165.308 491.936 166.119 490.947 167.159 490.251C168.2 489.554 169.424 489.183 170.677 489.183C172.35 489.183 173.956 489.846 175.142 491.027C176.327 492.208 176.997 493.811 177.003 495.485Z" fill="#93929C"/>
<path d="M170.702 491.771L172.143 493.897L174.61 494.605L173.022 496.632L173.096 499.197L170.702 498.318L168.284 499.197L168.357 496.632L166.769 494.605L169.261 493.897L170.702 491.771Z" fill="white"/>
<path d="M142.71 498.294C142.71 498.294 137.092 501.249 135.016 502.69C134.038 503.344 133.245 504.238 132.71 505.285C132.176 506.333 131.918 507.5 131.963 508.675H147.375C147.375 508.675 146.96 501.176 142.71 498.294Z" fill="white"/>
<path d="M181.889 508.675V512.901C181.889 513.609 181.278 514 180.203 514H133.598C132.524 514 131.913 513.609 131.913 512.901V508.675H181.889Z" fill="white"/>
<path d="M147.277 495.436C147.144 495.225 146.933 495.076 146.691 495.021C146.448 494.966 146.193 495.01 145.983 495.143C145.772 495.276 145.623 495.487 145.568 495.729C145.513 495.972 145.557 496.227 145.689 496.437L147.326 499.075C147.411 499.212 147.53 499.325 147.671 499.402C147.812 499.479 147.971 499.518 148.132 499.515C148.306 499.516 148.476 499.465 148.621 499.369C148.726 499.304 148.817 499.219 148.889 499.118C148.961 499.017 149.012 498.904 149.04 498.783C149.067 498.662 149.07 498.537 149.048 498.416C149.027 498.294 148.981 498.178 148.914 498.074L147.277 495.436Z" fill="white"/>
<path d="M150.184 493.408C150.023 493.221 149.796 493.103 149.55 493.08C149.303 493.058 149.058 493.131 148.865 493.286C148.676 493.451 148.558 493.683 148.535 493.933C148.513 494.184 148.587 494.433 148.743 494.629L150.673 496.877C150.758 496.983 150.865 497.07 150.988 497.129C151.111 497.188 151.245 497.219 151.381 497.219C151.56 497.22 151.736 497.17 151.887 497.075C152.039 496.979 152.159 496.841 152.234 496.679C152.309 496.516 152.335 496.335 152.309 496.158C152.284 495.981 152.207 495.815 152.09 495.68L150.184 493.408Z" fill="white"/>
<path d="M152.871 491.137C152.676 491.012 152.443 490.961 152.215 490.995C151.986 491.029 151.777 491.145 151.628 491.322C151.478 491.498 151.398 491.723 151.402 491.954C151.406 492.185 151.494 492.407 151.649 492.578L153.848 494.459C154.018 494.603 154.235 494.681 154.458 494.679C154.593 494.682 154.726 494.655 154.848 494.6C154.971 494.545 155.08 494.463 155.167 494.361C155.254 494.275 155.323 494.172 155.37 494.059C155.418 493.946 155.442 493.824 155.442 493.702C155.442 493.579 155.418 493.458 155.37 493.344C155.323 493.231 155.254 493.129 155.167 493.042L152.871 491.137Z" fill="white"/>
<path d="M157.635 490.013L155.192 488.499C154.981 488.41 154.746 488.4 154.528 488.47C154.31 488.541 154.126 488.687 154.007 488.883C153.888 489.078 153.844 489.31 153.882 489.535C153.921 489.761 154.039 489.965 154.215 490.111L156.658 491.625C156.802 491.721 156.972 491.772 157.146 491.772C157.309 491.77 157.468 491.726 157.61 491.645C157.751 491.564 157.869 491.448 157.952 491.308C158.079 491.093 158.117 490.838 158.058 490.596C157.998 490.354 157.846 490.145 157.635 490.013Z" fill="white"/>
<path d="M22.4115 78.7274L32.182 140.061C33.7941 147.755 31.3026 154.717 22.4115 155.938C20.7704 156.152 19.1028 156.03 17.5102 155.58C15.9176 155.129 14.4332 154.36 13.147 153.318C11.8609 152.276 10.8 150.984 10.0286 149.52C9.25715 148.056 8.79143 146.45 8.65965 144.8L5.67967 78.8495C4.89804 72.6209 7.60928 68.4685 12.3479 67.9555C18.1613 67.3205 21.2391 70.7645 22.4115 78.7274Z" fill="#FBBEAA"/>
<path d="M159.686 486.863L156.95 485.715C156.836 485.667 156.714 485.642 156.591 485.642C156.468 485.642 156.346 485.667 156.232 485.715C156.118 485.763 156.015 485.833 155.929 485.921C155.842 486.009 155.774 486.113 155.729 486.228C155.638 486.455 155.637 486.709 155.728 486.936C155.819 487.163 155.994 487.347 156.217 487.449L158.977 488.597C159.09 488.622 159.207 488.622 159.319 488.597C159.508 488.597 159.691 488.541 159.848 488.437C160.004 488.333 160.126 488.184 160.199 488.011C160.273 487.79 160.261 487.549 160.166 487.337C160.071 487.124 159.9 486.955 159.686 486.863Z" fill="white"/>
<path d="M161.396 483.345L158.392 482.588C158.149 482.529 157.892 482.567 157.677 482.695C157.463 482.823 157.307 483.03 157.243 483.272C157.214 483.391 157.209 483.514 157.228 483.635C157.246 483.756 157.289 483.871 157.352 483.976C157.416 484.08 157.499 484.171 157.598 484.243C157.697 484.315 157.809 484.367 157.927 484.396L160.932 485.177H161.176C161.396 485.16 161.604 485.068 161.763 484.915C161.922 484.762 162.023 484.559 162.049 484.339C162.075 484.12 162.024 483.899 161.905 483.713C161.786 483.527 161.606 483.389 161.396 483.321V483.345Z" fill="white"/>
<path d="M169.481 352.104C168.281 346.559 164.928 341.718 160.16 338.644C155.392 335.571 149.598 334.517 144.053 335.714C132.5 338.156 126.271 349.539 128.762 361.092L161.445 478.704H179.398L169.481 352.104Z" fill="#FBBEAA"/>
<path d="M169.478 349.783C168.152 344.371 164.768 339.691 160.045 336.735C155.322 333.78 149.633 332.783 144.187 333.957C138.74 335.131 133.967 338.383 130.881 343.021C127.794 347.66 126.639 353.319 127.66 358.796L140.655 479.531C140.655 479.531 171.773 481.387 190.313 479.531L169.478 349.783Z" fill="#93929C"/>
<path d="M14.4729 133.271L84.6245 79.9728C92.8073 74.7456 98.3763 77.5302 102.724 83.1238C104.71 85.8311 105.63 89.1741 105.311 92.5163C104.991 95.8584 103.453 98.9663 100.99 101.248L31.0093 152.811C28.5432 154.894 25.3685 155.945 22.1468 155.745C18.9251 155.545 15.9049 154.109 13.7157 151.737L13.3981 151.395C12.2362 150.155 11.339 148.692 10.7613 147.094C10.1836 145.496 9.93754 143.798 10.0381 142.101C10.1387 140.405 10.5838 138.748 11.3463 137.229C12.1087 135.711 13.1726 134.364 14.4729 133.271Z" fill="#FBBEAA"/>
<path d="M100.99 101.224C101.638 100.666 102.227 100.044 102.749 99.3675C103.21 97.6291 103.269 95.8084 102.922 94.0436C102.575 92.2788 101.831 90.6162 100.746 89.1819C97.0575 83.4906 89.3145 79.0206 85.8704 79.8756L82.4508 81.6098L43.7354 110.921C47.1619 118.974 51.7904 126.46 57.4629 133.124L100.99 101.224Z" fill="#F18380"/>
<path d="M90.4131 76.1622L29.7054 117.106C29.9608 119.2 23.231 76.1622 23.231 76.1622L4.18861 78.6404C4.18861 78.6404 4.57616 122.099 7.41891 145.163C8.55378 154.371 16.1471 157.886 25.2111 155.908C29.6863 154.932 33.8993 153.096 37.6484 150.464C53.7586 139.156 98.9552 107.306 102.65 103.3C109.026 96.387 109.026 91.2087 105.362 85.5174C101.698 79.8262 93.8572 75.3073 90.4131 76.1622Z" fill="#001A4B"/>
<path d="M118.944 352.397L131.474 221.205C131.474 206.72 116.55 190.941 94.5421 194.336C74.6593 197.438 68.6016 217.419 70.2382 236.349C71.8747 255.279 76.2959 353.325 76.2959 353.325C76.3616 356.132 76.9796 358.898 78.1144 361.466C79.2492 364.034 80.8787 366.353 82.9099 368.291C84.941 370.229 87.334 371.749 89.9523 372.762C92.5705 373.775 95.3627 374.263 98.1694 374.197C100.976 374.132 103.742 373.514 106.31 372.379C108.878 371.244 111.197 369.614 113.136 367.583C115.074 365.552 116.593 363.159 117.606 360.541C118.62 357.923 119.107 355.13 119.041 352.324L118.944 352.397Z" fill="#93929C"/>
<path d="M169.48 349.783L157.023 218.615C154.385 204.375 136.676 191.746 115.694 199.221C96.7638 205.987 94.5655 226.749 99.7438 245.044C104.922 263.339 127.663 358.796 127.663 358.796C128.988 364.207 132.372 368.888 137.095 371.844C141.818 374.799 147.508 375.796 152.954 374.622C158.4 373.448 163.174 370.196 166.26 365.558C169.346 360.919 170.501 355.26 169.48 349.783Z" fill="#93929C"/>
<path d="M99.7448 245.045C104.899 263.34 127.664 358.797 127.664 358.797" stroke="#5E5D63" stroke-width="0.75" stroke-miterlimit="10"/>
<path d="M103.408 74.0858C103.408 74.0858 92.6118 75.9666 90.5111 76.5284C89.2714 76.8193 88.1259 77.4202 87.1817 78.2746C86.2376 79.129 85.5258 80.2091 85.113 81.4136C83.7695 84.6135 76.857 105.571 76.2219 107.843C75.7925 110.345 76.1958 112.919 77.3699 115.17C78.3714 117.906 83.5497 130.364 83.5497 130.364L84.3313 170.496L113.495 175.121L141.44 170.496C141.44 170.496 151.21 95.8495 151.698 91.233C152.187 86.6164 149.891 77.7009 144.371 76.5773C138.85 75.4537 123.706 74.1347 123.706 74.1347L103.408 74.0858Z" fill="#FBBEAA"/>
<path d="M82.9621 154.359V168.469C102.063 170.227 132.499 168.981 143.931 168.469C144.468 164.438 145.03 157.599 145.616 153.056C130.057 153.446 104.359 154.897 82.9621 154.359Z" fill="white"/>
<path d="M100.303 74.4513C101.064 79.0215 105.434 84.1797 111.528 84.6188C119.906 85.2225 122.773 82.0682 126.2 74.0704C126.2 74.0704 142.295 75.3804 144.64 75.6247C150.193 77.1172 151.746 81.4945 152.479 86.2576C153.211 91.0207 150.955 174.145 150.955 174.145C150.955 174.145 100.544 177.027 77.0707 174.145C77.0707 174.145 75.6604 113.499 75.5383 112.155C75.4408 110.691 75.5274 105.661 76.6899 101.111C78.8037 92.8356 84.063 82.1953 85.4553 79.8504C86.5225 77.985 88.275 76.6093 90.3405 76.0155C91.7816 75.5514 100.303 74.4513 100.303 74.4513Z" fill="#002366"/>
<path d="M183.697 166.905L152.407 84.5649C148.23 75.7715 142.05 75.1853 135.309 77.6279C132.191 78.8717 129.64 81.2207 128.144 84.2261C126.648 87.2314 126.312 90.6825 127.199 93.9202L159.417 174.795C160.394 177.872 162.524 180.451 165.362 181.99C168.199 183.529 171.523 183.91 174.635 183.051L175.099 182.929C176.74 182.481 178.273 181.703 179.604 180.644C180.936 179.584 182.037 178.264 182.841 176.765C183.646 175.266 184.137 173.618 184.284 171.923C184.431 170.228 184.231 168.521 183.697 166.905Z" fill="#FBBEAA"/>
<path d="M170.727 132.758L152.407 84.5649C151.916 83.508 151.336 82.4948 150.673 81.5361C148.429 80.1312 145.86 79.3299 143.215 79.2101C140.57 79.0903 137.939 79.6559 135.577 80.8522C132.835 82.1868 130.63 84.418 129.329 87.1765C128.027 89.935 127.707 93.0553 128.421 96.0208C128.421 96.3139 128.592 96.8757 128.738 97.6329L147.644 145.142C155.902 142.163 163.679 137.991 170.727 132.758Z" fill="#F18380"/>
<path d="M150.697 80.1684L185.473 170.425C156.909 161.285 160.257 135.82 144.722 138.434C144.722 138.434 126.808 96.3872 126.124 92.6256C125.41 89.6602 125.731 86.5399 127.032 83.7814C128.334 81.0229 130.538 78.7917 133.281 77.457C140.926 73.5489 148.547 77.0907 150.697 80.1684Z" fill="#002366"/>
<path d="M93.8011 74.2797C92.0687 81.0285 102.664 87.0806 112.02 84.6186C102.172 78.2172 102.664 74.278 102.664 74.278V67.3841C99.71 66.8917 94.8915 70.0319 93.8011 74.2797Z" fill="#001A4B"/>
<path d="M124.33 64.922C127.285 64.4296 136.846 65.4292 140.087 70.8308C141.564 73.293 140.087 75.2625 140.087 75.2625C140.087 75.2625 138.118 75.2627 135.163 74.7703C132.701 80.1869 120.391 87.0805 111.314 84.6691C124.33 77.7248 124.33 74.2774 124.33 74.2774V64.922Z" fill="#001A4B"/>
<path d="M120.97 128.238L159.857 176.675C164.473 183.026 171.312 185.859 178.127 180.144C179.388 179.073 180.418 177.757 181.154 176.276C181.891 174.795 182.319 173.18 182.413 171.528C182.506 169.877 182.263 168.224 181.699 166.669C181.134 165.114 180.26 163.69 179.129 162.484L132.28 116.074C128.2 111.311 123.291 110.554 119.725 113.632C115.401 117.466 115.914 121.961 120.97 128.238Z" fill="#FBBEAA"/>
<path d="M90.7215 126.35L93.5722 126.624L93.2232 130.25L96.265 130.543L96.6141 126.917L99.4649 127.192L98.5111 137.096L95.6603 136.822L96.038 132.9L92.9957 132.607L92.618 136.529L89.7673 136.254L90.721 126.35L90.7215 126.35ZM109.638 128.171L108.684 138.076L105.929 137.811L106.657 130.254L104.853 130.08L104.579 132.923C104.456 134.2 104.209 135.756 103.365 136.565C102.513 137.472 101.055 137.632 99.4706 137.179L99.7071 134.724C101.196 135.167 101.636 134.61 101.825 132.649L102.326 127.449L109.639 128.153L109.638 128.171ZM112.018 128.401L114.868 128.675L115.914 134.714L118.093 128.986L120.944 129.26L121.324 139.293L118.665 139.037L118.513 133.675L116.477 138.826L114.577 138.643L113.57 133.199L112.398 138.433L109.739 138.177L112.017 128.4L112.018 128.401ZM123.324 129.489L126.174 129.764L125.787 133.785L128.929 130.029L132.067 130.331L127.986 134.886L131.21 140.245L127.793 139.916L125.617 135.648L125.23 139.669L122.379 139.395L123.333 129.49L123.324 129.489L123.324 129.489ZM112.079 117.711C94.9758 116.064 83.0467 121.353 82.1406 130.762C81.2432 140.082 91.9267 147.639 109.038 149.287C126.238 150.943 138.08 145.546 138.977 136.235C139.883 126.826 129.287 119.368 112.079 117.711ZM109.18 147.82C93.1138 146.273 82.9399 139.455 83.762 130.918C84.5927 122.291 95.8809 117.631 111.938 119.177C128.091 120.733 138.196 127.444 137.364 136.08C136.542 144.617 125.341 149.377 109.18 147.82ZM111.805 120.554C96.6985 119.099 86.1207 123.328 85.3749 131.074C84.6291 138.819 94.2054 144.989 109.312 146.444C124.419 147.899 134.997 143.669 135.743 135.924C136.497 128.179 126.921 122.009 111.805 120.554ZM109.34 146.156C94.4161 144.719 84.935 138.658 85.6618 131.11C86.3886 123.563 96.8606 119.423 111.776 120.86C126.691 122.296 136.181 128.357 135.454 135.905C134.736 143.454 124.264 147.594 109.34 146.156L109.34 146.156Z" fill="white"/>
<path d="M134.625 118.614C130.302 114.242 122.217 104.814 119.481 102.518C116.776 100.48 113.821 98.7967 110.687 97.5103C108.31 96.714 105.853 96.1816 103.36 95.9226C101.625 95.7027 100.917 96.2157 100.917 97.2661C100.961 97.8918 101.16 98.4966 101.497 99.0256C101.834 99.5546 102.298 99.9909 102.847 100.295H99.6469C98.5477 100.295 97.8394 101.174 98.3523 102.591C98.8182 103.527 99.4842 104.349 100.303 104.999C101.122 105.649 102.074 106.111 103.091 106.353C103.091 106.353 98.7676 106.768 97.6684 106.988C96.5692 107.207 96.2273 107.623 96.2273 108.673C96.2367 109.399 96.4384 110.109 96.8117 110.731C97.185 111.353 97.7166 111.865 98.3523 112.215C99.9084 112.846 101.56 113.21 103.238 113.29C103.238 113.29 97.8882 114.633 96.8135 115.024C95.7387 115.415 95.6166 116.123 96.1784 117.051C96.4986 117.705 96.9608 118.279 97.5313 118.731C98.1019 119.183 98.7663 119.502 99.4759 119.665C101.503 120.202 102.871 119.323 103.604 119.445C105.178 119.952 106.72 120.556 108.22 121.252C110.473 123.496 113.228 125.17 116.257 126.138C118.511 127.084 120.579 128.424 122.363 130.095C123.194 130.875 124.174 131.48 125.243 131.875C126.312 132.27 127.45 132.447 128.588 132.394C129.727 132.342 130.844 132.062 131.872 131.57C132.901 131.079 133.82 130.386 134.576 129.533C138.484 125.38 137.825 121.912 134.625 118.614Z" fill="#FBBEAA"/>
<path d="M121.966 131.681L159.575 177.7C164.287 183.98 175.298 187.431 182.025 181.613C183.269 180.523 184.279 179.192 184.993 177.7C185.707 176.208 186.111 174.586 186.18 172.934C186.248 171.281 185.981 169.632 185.393 168.086C184.805 166.54 182.191 161.332 181.041 160.142L133.916 115.884L121.966 131.681Z" fill="#002366"/>
<path d="M103.384 100.32C103.377 100.36 103.378 100.401 103.388 100.441C103.399 100.481 103.417 100.518 103.442 100.55C103.467 100.582 103.499 100.609 103.535 100.628C103.572 100.647 103.611 100.659 103.652 100.661L105.655 100.857H106.632C106.974 100.857 107.292 100.979 107.634 101.003C107.995 101.112 108.346 101.251 108.684 101.419L109.808 101.883C111.322 102.493 112.837 103.055 113.96 103.47C115.084 103.886 115.865 104.13 115.865 104.13C115.927 104.156 115.997 104.158 116.06 104.135C116.123 104.113 116.176 104.067 116.207 104.008C116.253 103.948 116.278 103.875 116.278 103.8C116.278 103.725 116.253 103.652 116.207 103.593L114.375 102.64L112.47 101.736C111.786 101.419 111.029 101.101 110.272 100.808L109.124 100.368C108.755 100.202 108.37 100.071 107.976 99.9776L106.803 99.8555H105.802H104.312H103.75C103.689 99.8069 103.61 99.7847 103.532 99.7939C103.454 99.8031 103.383 99.8428 103.335 99.9043C103.286 99.9658 103.264 100.044 103.273 100.122C103.282 100.2 103.322 100.271 103.384 100.32ZM103.848 106.206H104.287C104.653 106.173 105.021 106.173 105.387 106.206L106.144 106.328C106.423 106.363 106.7 106.412 106.974 106.475L108.635 107.012C109.759 107.379 110.858 107.843 111.689 108.185C111.689 108.185 111.957 108.185 111.933 108.307H112.226L112.666 108.429H112.934H113.081C113.155 108.446 113.219 108.492 113.26 108.556C113.301 108.619 113.315 108.697 113.301 108.771C113.29 108.829 113.26 108.883 113.216 108.923C113.172 108.962 113.116 108.986 113.056 108.991H111.811H111.42C110.565 108.771 109.417 108.429 108.293 108.038L106.657 107.428L105.9 107.232L105.24 107.037C104.903 106.937 104.56 106.855 104.214 106.792L103.799 106.67C103.762 106.659 103.728 106.641 103.698 106.616C103.668 106.592 103.643 106.562 103.625 106.528C103.607 106.494 103.596 106.456 103.592 106.418C103.588 106.38 103.592 106.341 103.604 106.304C103.632 106.268 103.67 106.24 103.713 106.223C103.756 106.206 103.802 106.2 103.848 106.206ZM103.848 113.143H104.752C104.996 113.143 105.313 113.143 105.631 113.314L106.632 113.632C107.262 113.854 107.875 114.123 108.464 114.438C108.735 114.565 108.997 114.712 109.246 114.877C109.296 114.935 109.323 115.009 109.323 115.085C109.323 115.161 109.296 115.235 109.246 115.293C109.176 115.367 109.079 115.411 108.977 115.415L108.073 115.268C107.56 115.146 106.901 114.951 106.241 114.731L105.289 114.34L104.458 114.023C104.182 113.9 103.913 113.761 103.652 113.607C103.583 113.566 103.532 113.501 103.51 113.424C103.487 113.347 103.494 113.264 103.53 113.192C103.603 113.146 103.69 113.128 103.775 113.143H103.848Z" fill="#F18380"/>
<path d="M21.63 57.55C22.5581 57.55 22.6314 56.9638 23.0466 55.889C20.9704 55.889 14.9372 56.2798 12.2992 61.3604C14.9616 57.6965 20.0667 57.55 21.63 57.55ZM16.8913 38.2289C16.8913 38.2289 17.0378 39.0839 17.1844 40.3296C17.1844 40.9647 17.331 41.7219 17.3798 42.5035C17.4287 43.2851 17.5019 44.14 17.5752 44.9461C17.5752 46.6559 17.6973 48.3413 17.6973 49.6115C17.6973 50.8817 17.6973 51.7366 17.6973 51.7366C17.6975 51.7772 17.6892 51.8174 17.6729 51.8547C17.6567 51.892 17.6329 51.9254 17.603 51.953C17.5732 51.9805 17.5379 52.0016 17.4995 52.0148C17.461 52.028 17.4203 52.033 17.3798 52.0297C17.3111 52.0262 17.2453 52.0005 17.1924 51.9565C17.1396 51.9124 17.1025 51.8524 17.0867 51.7855C17.0867 51.7855 16.9401 50.9305 16.818 49.6603C16.6959 48.3902 16.5005 46.7048 16.4272 45.0194C16.4272 44.1645 16.4272 43.3096 16.4272 42.5768C16.4272 41.844 16.4272 41.038 16.4272 40.4029C16.4272 39.1083 16.4272 38.2778 16.4272 38.2778C16.427 38.2371 16.4353 38.1969 16.4516 38.1597C16.4678 38.1224 16.4916 38.0889 16.5215 38.0614C16.5513 38.0338 16.5866 38.0128 16.625 37.9996C16.6635 37.9864 16.7042 37.9813 16.7447 37.9847C16.7915 38.0116 16.83 38.051 16.8559 38.0984C16.8817 38.1458 16.894 38.1994 16.8913 38.2534V38.2289ZM11.2244 39.9388C11.2244 39.9388 11.371 40.6715 11.542 41.7463C11.542 42.3081 11.713 42.9431 11.7862 43.6271C11.8595 44.311 11.9328 45.0438 12.0061 45.7766C12.0061 47.2421 12.177 48.7077 12.2014 49.8069C12.2259 50.906 12.2014 51.6633 12.2014 51.6633C12.1984 51.7018 12.1877 51.7394 12.1701 51.7738C12.1524 51.8081 12.1282 51.8387 12.0987 51.8637C12.0691 51.8887 12.0349 51.9076 11.9981 51.9193C11.9612 51.931 11.9225 51.9353 11.884 51.932C11.8183 51.9274 11.756 51.9008 11.7072 51.8565C11.6585 51.8122 11.6261 51.7527 11.6152 51.6877C11.6152 51.6877 11.4687 50.9549 11.2977 49.8801C11.1267 48.8054 10.9802 47.3154 10.858 45.8743C10.858 45.1415 10.858 44.4087 10.7115 43.7248C10.5649 43.0409 10.7115 42.3814 10.7115 41.8196C10.7115 40.7204 10.7115 39.9876 10.7115 39.9876C10.7114 39.947 10.7196 39.9068 10.7359 39.8695C10.7521 39.8323 10.7759 39.7988 10.8058 39.7712C10.8356 39.7437 10.8709 39.7226 10.9093 39.7094C10.9478 39.6962 10.9885 39.6911 11.029 39.6945C11.0832 39.7169 11.1301 39.7538 11.1646 39.8013C11.1991 39.8487 11.2198 39.9047 11.2244 39.9632V39.9388ZM5.753 42.2592C5.753 42.2592 5.89952 42.8699 6.09493 43.7981C6.09493 44.2377 6.29037 44.7752 6.36365 45.3614C6.43693 45.9476 6.5346 46.5582 6.63231 47.1689C6.80329 48.4146 6.87663 49.6115 6.92548 50.5885C6.97433 51.5656 6.92548 52.1518 6.92548 52.1518C6.92562 52.1925 6.91726 52.2327 6.90103 52.2699C6.8848 52.3072 6.86097 52.3407 6.83111 52.3682C6.80125 52.3958 6.766 52.4168 6.72757 52.43C6.68914 52.4432 6.64842 52.4483 6.60793 52.4449C6.54557 52.4417 6.48586 52.4186 6.43752 52.379C6.38919 52.3395 6.35473 52.2856 6.3392 52.2251C6.3392 52.2251 6.16826 51.6145 5.99728 50.7107C5.82629 49.8069 5.58201 48.5367 5.43545 47.3154C5.43545 46.6804 5.3133 46.0697 5.26445 45.4835C5.2156 44.8973 5.26445 44.3599 5.26445 43.8958C5.26445 42.9676 5.26445 42.3325 5.26445 42.3325C5.26431 42.2919 5.27267 42.2517 5.2889 42.2144C5.30513 42.1772 5.32889 42.1437 5.35875 42.1161C5.38861 42.0885 5.42393 42.0675 5.46236 42.0543C5.50079 42.0411 5.54151 42.036 5.582 42.0394C5.62709 42.0646 5.66592 42.0996 5.69553 42.1419C5.72514 42.1842 5.74479 42.2327 5.753 42.2837V42.2592Z" fill="#F18380"/>
<path d="M133.817 115.583L138.768 120.153L125.438 136.148L121.629 131.578L133.817 115.583Z" fill="#00163F"/>
<path d="M23.5292 75.7278L24.1321 82.449L4.32798 85.4957L4.32798 78.2596L23.5292 75.7278Z" fill="#00163F"/>
<path d="M151.243 167.492L150.955 174.234C150.955 174.234 127.523 175.808 112.489 175.757C98.6445 175.71 77.0702 174.234 77.0702 174.234L77.0703 168.521C77.0703 168.521 99.5826 169.283 114.013 169.283C133.436 169.283 151.243 167.492 151.243 167.492Z" fill="#00163F"/>
<path d="M137.598 21.28C139.044 26.8098 139.901 32.4768 140.156 38.1867C140.459 42.9391 142.031 47.5233 144.709 51.4614C147.267 54.7609 150.617 58.1883 149.389 68.4193H83.8856C83.8856 68.4193 81.3278 63.3038 84.3971 54.5307C88.0125 43.7001 90.6741 32.5742 92.3517 21.28H137.598Z" fill="#BC664A"/>
<path d="M125.065 51.4615V73.1768C125.065 73.1768 123.351 80.671 111.867 80.671C109.587 80.8633 107.32 80.1753 105.531 78.7482C103.743 77.3212 102.569 75.2635 102.25 72.9978V51.4615H125.065Z" fill="#FBBEAA"/>
<path d="M102.25 69.6471C109.463 73.0489 119.975 70.0052 125.065 60.5671V51.4615H102.25V69.6471Z" fill="#F18380"/>
<path d="M88.0035 34.8615C87.8943 40.0632 88.125 45.2665 88.6941 50.4381C89.6405 57.8044 92.2494 65.9892 105.319 65.9892C118.39 65.9892 125.014 60.1064 127.828 50.4381C129.516 44.5809 132.943 35.9613 131.536 25.9605C130.13 15.9597 124.119 9.46304 109.923 9.07937C95.7279 8.69571 86.4433 15.0901 88.0035 34.8615Z" fill="#FBBEAA"/>
<path d="M115.627 39.3123C115.536 39.6889 115.342 40.0326 115.065 40.3041C114.789 40.5756 114.442 40.7642 114.063 40.8484C113.685 40.9325 113.291 40.9089 112.925 40.7802C112.56 40.6515 112.238 40.4229 111.996 40.1203C111.753 39.8177 111.601 39.4533 111.556 39.0684C111.51 38.6836 111.574 38.2937 111.739 37.9431C111.904 37.5926 112.164 37.2954 112.49 37.0853C112.816 36.8751 113.194 36.7606 113.581 36.7545C113.885 36.7829 114.181 36.8723 114.45 37.0174C114.719 37.1625 114.956 37.3603 115.147 37.599C115.338 37.8377 115.479 38.1124 115.562 38.4068C115.644 38.7011 115.666 39.0091 115.627 39.3123Z" fill="#403D4F"/>
<path d="M96.6742 39.3123C96.5833 39.6889 96.3886 40.0326 96.1121 40.3041C95.8356 40.5756 95.4886 40.7642 95.1103 40.8484C94.7321 40.9325 94.3378 40.9089 93.9723 40.7802C93.6067 40.6515 93.2846 40.4229 93.0425 40.1203C92.8005 39.8177 92.6481 39.4533 92.6028 39.0684C92.5574 38.6836 92.621 38.2937 92.7861 37.9431C92.9513 37.5926 93.2114 37.2954 93.537 37.0853C93.8626 36.8751 94.2406 36.7606 94.6281 36.7545C94.9311 36.7863 95.2248 36.8779 95.4922 37.0241C95.7595 37.1702 95.9952 37.368 96.1855 37.6059C96.3759 37.8438 96.5171 38.1172 96.601 38.4101C96.6849 38.703 96.7098 39.0096 96.6742 39.3123Z" fill="#403D4F"/>
<path d="M109.463 32.0741C109.463 32.0741 109.463 32.0741 109.668 31.8695C109.874 31.6689 110.106 31.4969 110.358 31.3579C110.681 31.1733 111.024 31.0274 111.381 30.9231C112.214 30.6947 113.078 30.6082 113.939 30.6674C114.301 30.686 114.661 30.7374 115.013 30.8208L116.011 31.1022C116.176 31.1552 116.313 31.2704 116.394 31.4232C116.476 31.576 116.494 31.7545 116.446 31.9207C116.404 32.0514 116.322 32.1659 116.212 32.2483C116.102 32.3308 115.969 32.3771 115.832 32.381H113.914C113.582 32.3559 113.248 32.3559 112.916 32.381C112.587 32.4113 112.262 32.4712 111.944 32.5601C111.612 32.5601 111.381 32.7391 111.126 32.7647C110.944 32.8412 110.756 32.9011 110.563 32.9437H110.333C110.173 33.0132 109.993 33.0172 109.83 32.9551C109.667 32.8929 109.536 32.7695 109.463 32.6112C109.425 32.5223 109.406 32.4266 109.406 32.3299C109.406 32.2332 109.425 32.1375 109.463 32.0485V32.0741Z" fill="#403D4F"/>
<path d="M97.007 33.0457C97.007 33.0457 97.007 33.0457 96.8536 33.0457L96.4699 32.8923H96.1885C96.0874 32.8701 95.9827 32.8701 95.8816 32.8923C95.6556 32.8176 95.4249 32.7577 95.1911 32.7132C94.9531 32.6866 94.7129 32.6866 94.4749 32.7132H93.017C92.9308 32.7133 92.8455 32.6959 92.7662 32.6622C92.6869 32.6285 92.6152 32.5791 92.5555 32.517C92.4958 32.4549 92.4493 32.3813 92.4187 32.3008C92.3881 32.2202 92.3741 32.1343 92.3775 32.0482C92.3825 31.9213 92.4236 31.7985 92.4961 31.6942C92.5686 31.59 92.6695 31.5087 92.7868 31.4599L93.5797 31.1786C93.8626 31.0939 94.1545 31.0424 94.4493 31.0251C94.797 30.9744 95.1503 30.9744 95.498 31.0251C96.1657 31.1088 96.8002 31.3644 97.3396 31.7669L97.8255 32.2528C97.9534 32.4063 97.9534 32.4575 97.9534 32.483V32.7132C97.9759 32.8889 97.93 33.0665 97.8253 33.2093C97.7206 33.3521 97.565 33.4492 97.3907 33.4806C97.2155 33.3855 97.0796 33.2314 97.007 33.0457Z" fill="#403D4F"/>
<path d="M102.25 48.0344C101.819 48.0319 101.393 47.9422 100.997 47.7708C100.601 47.5994 100.245 47.3497 99.9479 47.0368C99.8396 46.9209 99.7564 46.7838 99.7035 46.6341C99.6507 46.4845 99.6295 46.3255 99.641 46.1672C99.641 45.8859 100.076 42.3562 100.229 41.0517C100.259 40.9255 100.331 40.8134 100.433 40.7342C100.536 40.6549 100.662 40.6135 100.792 40.6169C100.923 40.636 101.042 40.7053 101.123 40.8103C101.204 40.9153 101.241 41.0477 101.227 41.1796C101.227 41.3586 100.664 45.9882 100.613 46.2951C100.822 46.5269 101.079 46.7109 101.366 46.8344C101.653 46.958 101.963 47.0183 102.275 47.0113C102.407 47.0178 102.53 47.0746 102.621 47.1698C102.711 47.2651 102.762 47.3915 102.761 47.5228C102.755 47.6565 102.699 47.783 102.605 47.8776C102.51 47.9722 102.384 48.0281 102.25 48.0344Z" fill="#F18380"/>
<path d="M99.8972 53.073C98.9508 53.3032 98.5927 54.7355 99.181 56.3981C99.7613 57.5428 100.711 58.4583 101.876 58.9967C103.041 59.5351 104.353 59.6649 105.601 59.3651C106.282 59.3327 106.95 59.1644 107.565 58.8702C108.18 58.5759 108.731 58.1616 109.183 57.6517C109.636 57.1417 109.983 56.5463 110.202 55.9006C110.421 55.2548 110.509 54.5717 110.461 53.8915C110.461 52.7917 109.693 52.1522 108.261 52.1522C105.452 52.2272 102.655 52.5352 99.8972 53.073Z" fill="#73102A"/>
<path d="M110.461 54.0194V53.7892C108.589 53.3566 106.622 53.6421 104.95 54.5893C103.279 55.5365 102.023 57.0764 101.432 58.9047C102.748 59.5496 104.228 59.7814 105.678 59.5697C106.359 59.5279 107.026 59.3501 107.637 59.0467C108.249 58.7433 108.794 58.3205 109.24 57.8032C109.685 57.286 110.023 56.6847 110.233 56.0348C110.442 55.385 110.52 54.6997 110.461 54.0194Z" fill="#D65155"/>
<path d="M100.716 54.6077C103.955 54.6579 107.18 54.1651 110.256 53.1498C110.063 52.8013 109.77 52.5194 109.413 52.3413C109.057 52.1633 108.655 52.0973 108.261 52.1522C105.452 52.2272 102.655 52.5352 99.8973 53.073C99.6328 53.1642 99.4014 53.3321 99.2328 53.5553C99.0643 53.7786 98.9662 54.047 98.9509 54.3263C99.517 54.5273 100.115 54.6226 100.716 54.6077Z" fill="white"/>
<path d="M114.936 24.8101C114.936 24.8101 117.494 37.5989 128.339 42.5609C128.339 42.5609 139.388 36.141 138.109 23.8894C136.524 8.79865 115.09 -8.18479 93.758 7.87786C91.6863 7.54535 89.4355 3.17161 90.1005 0C89.2286 0.547881 88.5423 1.34615 88.1315 2.29039C87.7207 3.23463 87.6044 4.28089 87.7978 5.2923C87.9913 6.30372 88.4854 7.23321 89.2157 7.9592C89.946 8.68519 90.8784 9.17389 91.8909 9.36136C88.409 9.84645 85.249 11.6579 83.0709 14.4175C80.8928 17.177 79.865 20.6713 80.202 24.1707C80.3111 26.377 81.2298 28.4656 82.7823 30.037C84.3348 31.6084 86.4122 32.5522 88.617 32.688H92.3769C95.2856 31.3549 97.6377 29.0481 99.0271 26.1657C98.6653 28.3384 97.9112 30.4271 96.8018 32.3299C96.5971 32.7136 97.0576 33.3786 100.204 32.7136C103.815 31.4713 106.834 28.9268 108.67 25.5775C107.982 27.7737 107.065 29.8913 105.933 31.8951C105.933 32.2788 107.596 32.8415 110.051 31.7161C111.419 31.1214 112.597 30.1632 113.458 28.9456C114.32 27.7281 114.831 26.2978 114.936 24.8101Z" fill="#BC664A"/>
<path d="M98.1577 34.8618C99.0784 34.8618 99.4365 36.5499 99.4365 38.1613C99.3425 40.344 98.6909 42.4662 97.5438 44.3255C97.0745 44.8865 96.4659 45.3142 95.779 45.5657C95.0921 45.8171 94.3511 45.8834 93.6305 45.7578C92.753 45.8935 91.8564 45.8357 91.0036 45.5882C90.1509 45.3408 89.3626 44.9098 88.694 44.3255C87.2861 42.5621 86.4476 40.4123 86.2897 38.1613C86.2897 36.5499 86.7757 34.8618 87.9267 34.8618H98.1577Z" stroke="#403D4F" stroke-width="0.75" stroke-miterlimit="10"/>
<path d="M105.882 34.8618C104.654 34.8618 104.168 36.5499 104.168 38.1613C104.336 40.4376 105.233 42.5992 106.726 44.3255C107.433 44.9056 108.253 45.3326 109.133 45.5791C110.014 45.8257 110.936 45.8866 111.842 45.7578C114.141 46.0535 116.471 45.5476 118.441 44.3255C120.237 42.7406 121.377 40.5425 121.638 38.1613C121.638 36.5499 121.024 34.8618 119.464 34.8618H105.882Z" stroke="#403D4F" stroke-width="0.75" stroke-miterlimit="10"/>
<path d="M99.2314 36.3965C99.9665 35.8364 100.865 35.5331 101.789 35.5331C102.713 35.5331 103.612 35.8364 104.347 36.3965" stroke="#403D4F" stroke-width="0.75" stroke-miterlimit="10"/>
<path d="M119.514 34.8618H122.635C123.3 34.8618 124.067 35.0153 124.067 35.9105V37.3428C124.067 37.7009 121.791 38.4171 121.509 39.21" stroke="#403D4F" stroke-width="0.75" stroke-miterlimit="10"/>
<path d="M130.871 38.5965L124.067 35.9109" stroke="#403D4F" stroke-width="0.75" stroke-miterlimit="10"/>
<path d="M127.368 44.4536C127.572 40.9751 128.493 36.9083 132.739 37.5222C137.701 38.2895 138.187 51.7177 127.624 50.1063L127.368 44.4536Z" fill="#FBBEAA"/>
<path d="M133.096 45.3488C133.008 45.35 132.92 45.3268 132.843 45.2817C132.767 45.2366 132.704 45.1713 132.662 45.093C132.549 44.8716 132.382 44.6825 132.176 44.5437C131.97 44.405 131.732 44.3211 131.485 44.3001C131.19 44.3033 130.901 44.3827 130.645 44.5306C130.39 44.6785 130.177 44.8898 130.027 45.1441C129.966 45.2316 129.878 45.2966 129.776 45.3289C129.674 45.3613 129.565 45.3593 129.464 45.3232C129.356 45.2932 129.262 45.2246 129.201 45.1304C129.14 45.0362 129.115 44.9228 129.132 44.8116C129.176 43.7358 129.511 42.6921 130.101 41.7914C130.691 40.8906 131.514 40.1666 132.483 39.6961C132.548 39.6575 132.621 39.6337 132.696 39.6266C132.771 39.6195 132.847 39.6293 132.918 39.6551C132.99 39.681 133.054 39.7223 133.107 39.7761C133.161 39.83 133.201 39.8949 133.226 39.9664C133.252 40.0378 133.26 40.1139 133.253 40.1892C133.245 40.2645 133.22 40.3371 133.181 40.4018C133.142 40.4665 133.088 40.5217 133.025 40.5633C132.962 40.6049 132.89 40.632 132.815 40.6425C132.24 40.9219 131.728 41.3154 131.311 41.7992C130.893 42.2829 130.578 42.8466 130.385 43.456C130.742 43.28 131.139 43.2006 131.536 43.2258C131.95 43.2649 132.347 43.4042 132.695 43.6314C133.043 43.8587 133.33 44.1672 133.531 44.5303C133.587 44.6465 133.597 44.7796 133.559 44.9029C133.521 45.0262 133.438 45.1307 133.327 45.1953L133.096 45.3488Z" fill="#F18380"/>
<path d="M143.809 103.15L144.402 102.875L144.758 103.642L145.391 103.349L145.035 102.581L145.628 102.306L146.6 104.403L146.007 104.678L145.622 103.848L144.989 104.141L145.374 104.972L144.781 105.247L143.809 103.15L143.809 103.15ZM147.745 101.325L148.717 103.422L148.144 103.688L147.402 102.088L147.027 102.262L147.306 102.864C147.431 103.134 147.565 103.475 147.493 103.735C147.432 104.015 147.163 104.216 146.799 104.309L146.558 103.789C146.903 103.705 146.924 103.543 146.732 103.128L146.221 102.027L147.743 101.321L147.745 101.325ZM148.24 101.096L148.834 100.821L149.746 101.911L149.505 100.51L150.098 100.235L151.347 102.203L150.794 102.46L150.136 101.402L150.339 102.671L149.943 102.854L149.108 101.878L149.49 103.064L148.936 103.32L148.24 101.096L148.24 101.096ZM150.593 100.005L151.186 99.7304L151.581 100.582L151.76 99.4648L152.413 99.1621L152.143 100.548L153.405 101.25L152.693 101.579L151.765 100.975L152.16 101.827L151.567 102.101L150.595 100.005L150.593 100.005L150.593 100.005ZM147.001 98.9446C143.442 100.594 141.713 103.036 142.636 105.028C143.551 107.001 146.538 107.28 150.099 105.63C153.678 103.971 155.377 101.518 154.464 99.5464C153.541 97.5543 150.582 97.2851 147.001 98.9446ZM149.955 105.319C146.612 106.869 143.812 106.679 142.974 104.871C142.127 103.045 143.804 100.804 147.145 99.2551C150.506 97.6972 153.281 97.8736 154.128 99.702C154.966 101.509 153.318 103.761 149.955 105.319ZM147.28 99.5465C144.136 101.003 142.55 103.076 143.31 104.716C144.069 106.356 146.677 106.485 149.82 105.028C152.964 103.571 154.551 101.498 153.791 99.8584C153.033 98.2177 150.425 98.0887 147.28 99.5465ZM149.792 104.967C146.686 106.406 144.111 106.288 143.37 104.69C142.63 103.092 144.206 101.05 147.31 99.6113C150.414 98.1728 152.991 98.2901 153.732 99.888C154.474 101.485 152.898 103.528 149.792 104.967L149.792 104.967Z" fill="white"/>
</svg>
