<svg width="288" height="543" viewBox="0 0 288 543" fill="none" xmlns="http://www.w3.org/2000/svg">
<path d="M246.213 96.2698C246.338 93.5414 245.607 90.8422 244.124 88.549C241.84 85.9005 240.128 85.2493 239.098 81.9072C238.305 78.8048 237.038 75.843 235.343 73.1265C234.132 71.4612 232.315 70.0988 232.315 68.8271C232.315 67.5554 234.738 65.1029 238.189 65.7993C239.668 66.2599 241.026 67.0416 242.167 68.0885C243.308 69.1353 244.204 70.4215 244.79 71.8549C245.121 70.9815 245.315 70.0624 245.365 69.1299L246.122 48.1281C246.134 47.6469 246.241 47.1729 246.439 46.7341C246.637 46.2953 246.921 45.9006 247.273 45.5732C247.626 45.2458 248.041 44.9924 248.493 44.828C248.946 44.6636 249.426 44.5914 249.907 44.6158C250.672 44.6485 251.408 44.9202 252.011 45.3927C252.317 45.6324 257.438 51.8433 262.437 57.9996C267.289 63.975 272.025 69.899 272.131 70.2612C271.159 79.0865 269.334 87.7968 266.681 96.2698C266.649 97.6845 266.321 99.0768 265.719 100.357C265.116 101.638 264.253 102.778 263.183 103.705C262.114 104.632 260.862 105.324 259.509 105.739C258.156 106.153 256.732 106.279 255.327 106.11C254.055 106.153 252.79 105.921 251.616 105.431C250.441 104.942 249.386 104.205 248.522 103.272C247.658 102.338 247.004 101.23 246.606 100.022C246.207 98.8139 246.073 97.5342 246.213 96.2698Z" fill="#FBBEAA"/>
<path d="M251.093 39.4385L230.028 60.1015C229.805 59.7837 229.582 59.4492 229.359 59.1315C228.689 58.1615 228.011 57.1832 227.341 56.2132C227.093 55.8536 226.852 55.5024 226.603 55.1429C225.599 53.6963 225.794 51.7376 227.044 50.5082L241.56 36.2661C242.81 35.0366 244.772 34.8862 246.202 35.9144C246.55 36.1715 246.899 36.4118 247.248 36.6689C248.209 37.3571 249.17 38.0453 250.132 38.7334C250.447 38.9741 250.77 39.2063 251.093 39.4385Z" fill="#E2874A"/>
<g opacity="0.53">
<path d="M250.132 38.7487L229.35 59.1215C228.681 58.1515 228.003 57.1732 227.333 56.2033L247.24 36.6758C248.21 37.3723 249.171 38.0605 250.132 38.7487Z" fill="#D46424"/>
</g>
<path d="M254.802 42.1947C255.572 43.1128 256.35 44.0225 257.129 44.9489C258.224 46.2342 259.302 47.5196 260.389 48.8134C264.581 53.771 268.756 58.7289 272.949 63.6866C275.199 66.349 277.449 69.0115 279.699 71.674C281.136 73.3767 281.015 75.891 279.432 77.4449L267.458 89.1853C265.875 90.7393 263.354 90.8122 261.675 89.3402C259.059 87.0363 256.433 84.741 253.817 82.4372C248.941 78.1456 244.066 73.8708 239.19 69.5792C237.92 68.4732 236.65 67.3503 235.388 66.2358C234.493 65.4456 233.582 64.6557 232.678 63.8572C231.51 62.8343 231.045 61.3137 231.306 59.9023C231.448 59.0742 231.859 58.2766 232.501 57.6363L248.558 41.8829C249.216 41.2425 250.013 40.8533 250.854 40.725C252.294 40.5135 253.8 41.0011 254.802 42.1947Z" fill="#F5F5F5"/>
<path d="M260.39 48.8114C264.582 53.7691 268.757 58.727 272.95 63.6846L253.826 82.4436C248.951 78.152 244.075 73.8772 239.191 69.5941L260.39 48.8114Z" fill="#E2874A"/>
<g opacity="0.52">
<path d="M250.746 72.2006C248.24 70.005 245.751 67.8092 243.254 65.622L239.213 69.5923C244.088 73.8839 248.964 78.1587 253.848 82.4417L272.971 63.6828C272.295 62.89 271.636 62.0969 270.961 61.3041L260.103 71.9516C257.528 74.4705 253.448 74.5708 250.746 72.2006Z" fill="#E2874A"/>
</g>
<path d="M254.832 41.7543L232.267 63.8859C231.076 65.0557 229.153 65.0454 227.983 63.837L227.872 63.7287C226.702 62.5371 226.721 60.6228 227.921 59.4445L250.486 37.3128C251.677 36.1431 253.592 36.1619 254.77 37.3618L254.881 37.4701C256.043 38.6702 256.024 40.5845 254.832 41.7543Z" fill="#E2874A"/>
<g opacity="0.53">
<path d="M253.552 36.6263C253.971 37.7342 253.725 39.0274 252.825 39.8984L230.327 61.9618C229.477 62.7985 228.265 63.0326 227.207 62.6829C227.355 63.0774 227.579 63.4457 227.895 63.7538L227.938 63.7955C229.124 65.0037 231.081 65.0304 232.289 63.8436L254.787 41.7802C255.996 40.5934 256.022 38.6367 254.835 37.4285L254.793 37.3869C254.434 37.0371 254.01 36.7725 253.552 36.6263Z" fill="#D46424"/>
</g>
<path d="M255.343 65.5087C257.402 64.9355 259.2 64.4414 261.222 67.0139C259.992 68.5467 257.506 69.3697 254.845 68.9215C251.439 68.3474 248.99 65.9235 249.238 63.433C250.274 64.7442 251.911 66.242 253.829 65.8813C254.334 65.7909 254.855 65.6496 255.343 65.5087Z" fill="#5B2500"/>
<path d="M256.401 59.6438C259.907 60.2334 262.409 62.7916 261.976 65.3519C261.969 65.4279 261.945 65.5041 261.929 65.5717C259.442 62.8447 256.979 63.524 254.945 64.0885C254.458 64.2293 254.004 64.3529 253.55 64.4259C252.12 64.6963 250.657 63.0024 249.849 61.7642C251.018 60.0888 253.604 59.1803 256.401 59.6438Z" fill="#5B2500"/>
<path d="M255.479 53.9894C253.759 51.2458 257.251 47.6277 259.466 46.214C259.466 46.214 260.8 44.6712 263.563 47.4349C266.615 50.4869 264.784 52.5757 264.784 52.5757C262.79 54.6962 258.137 58.2305 255.479 53.9894Z" fill="#FBBEAA"/>
<path d="M260.362 59.3018C258.642 56.5581 262.134 52.9401 264.35 51.5264C264.35 51.5264 265.683 49.9836 268.447 52.7473C271.499 55.7993 269.667 57.8881 269.667 57.8881C267.673 60.0086 263.02 63.5429 260.362 59.3018Z" fill="#FBBEAA"/>
<path d="M265.245 64.1848C263.525 61.4412 267.017 57.8231 269.233 56.4094C269.233 56.4094 270.566 54.8667 273.329 57.6303C276.381 60.6823 274.55 62.7711 274.55 62.7711C272.556 64.8917 267.903 68.4259 265.245 64.1848Z" fill="#FBBEAA"/>
<path d="M271.27 68.5313C269.845 66.2318 272.739 63.1993 274.575 62.0144C274.575 62.0144 275.68 60.7213 277.97 63.0377C280.5 65.5957 278.982 67.3464 278.982 67.3464C277.329 69.1238 273.473 72.086 271.27 68.5313Z" fill="#FBBEAA"/>
<g opacity="0.3" filter="url(#filter0_f_110_34)">
<ellipse cx="106.5" cy="14.5" rx="106.5" ry="14.5" transform="matrix(1 0 0 -1 17.4209 525.227)" fill="#CBCBCB"/>
</g>
<path d="M101.149 97.0064C95.421 104.372 67.8213 181.778 67.8213 181.778C98.5087 171.958 83.2567 168.194 99.9467 171.002C99.9467 171.002 126.022 115.664 126.757 111.622C127.524 108.436 127.18 105.084 125.782 102.121C124.383 99.1569 122.015 96.7597 119.068 95.3259C110.854 91.1271 106.878 89.6412 101.149 97.0064Z" fill="#002776"/>
<path d="M180.438 94.3531L240.51 134.868C240.257 136.94 245.125 94.3531 245.125 94.3531L267.359 96.4285C267.359 96.4285 266.061 139.788 262.788 162.686C261.49 171.774 253.926 175.22 244.957 173.263C240.529 172.297 236.36 170.48 232.65 167.876C216.709 156.687 171.986 125.171 168.329 121.206C162.021 114.366 162.021 109.242 165.646 103.61C169.272 97.9787 177.03 93.5072 180.438 94.3531Z" fill="#001A4B"/>
<path d="M129.421 324.902C129.341 331.394 131.843 337.652 136.377 342.299C140.911 346.946 147.105 349.602 153.596 349.682C160.088 349.762 166.346 347.26 170.993 342.726C175.64 338.193 178.296 331.999 178.376 325.507C178.376 325.507 181.473 235.153 182.531 216.845C183.589 198.538 178.804 183.856 158.205 181.741C136.85 179.55 125.468 196.246 125.468 211.758C125.468 227.271 129.421 324.902 129.421 324.902Z" fill="#7C7C7C"/>
<path d="M89.2551 323.165C88.8354 326.374 89.0561 329.634 89.9043 332.756C90.7526 335.879 92.2116 338.803 94.1969 341.358C96.1823 343.913 98.6546 346.049 101.471 347.643C104.287 349.237 107.391 350.256 110.604 350.642C113.817 351.028 117.075 350.774 120.188 349.893C123.302 349.012 126.21 347.523 128.744 345.511C131.279 343.499 133.389 341.004 134.953 338.172C136.517 335.339 137.504 332.224 137.857 329.007C137.857 329.007 150.599 239.509 153.621 221.429C156.643 203.348 153.445 188.213 133.198 183.907C112.196 179.45 99.0762 194.836 97.4897 210.248C95.9033 225.659 89.2551 323.165 89.2551 323.165Z" fill="#7C7C7C"/>
<path d="M169.612 431.373C169.612 431.373 168.403 482.72 168.101 490.401C167.799 498.081 162.939 500.171 155.107 500.851C147.275 501.531 143.977 495.311 142.869 490.375C141.761 485.44 135.062 435.1 135.062 435.1L169.612 431.373Z" fill="#FBBEAA"/>
<path d="M168.731 467.182L139.847 470.28C137.605 454.39 135.062 435.025 135.062 435.025L169.612 431.298C169.612 431.298 169.159 450.537 168.731 467.182Z" fill="#F18380"/>
<path d="M129.421 324.903C129.461 321.688 130.133 318.513 131.4 315.559C132.666 312.604 134.503 309.928 136.804 307.683C139.105 305.438 141.825 303.669 144.81 302.475C147.795 301.282 150.986 300.688 154.2 300.728C157.415 300.767 160.59 301.44 163.544 302.706C166.499 303.973 169.175 305.809 171.42 308.11C173.665 310.411 175.434 313.132 176.628 316.117C177.821 319.102 178.415 322.293 178.375 325.507L173.339 468.625L133.828 472.88L129.421 324.903Z" fill="#7C7C7C"/>
<path d="M117.913 433.338C117.913 433.338 111.214 484.256 110.106 491.836C108.998 499.416 103.937 501.028 96.0545 500.851C88.1724 500.675 85.5786 494.153 84.9994 489.142C84.4202 484.13 83.1611 433.338 83.1611 433.338H117.913Z" fill="#FBBEAA"/>
<path d="M113.078 468.845H84.0173C83.5136 452.829 83.0352 433.338 83.0352 433.338H117.913C117.913 433.338 115.394 452.325 113.078 468.845Z" fill="#F18380"/>
<path d="M89.2549 323.165C90.0912 316.772 93.4161 310.967 98.5074 307.011C103.599 303.056 110.045 301.268 116.447 302.038C122.848 302.807 128.687 306.071 132.696 311.121C136.705 316.171 138.559 322.598 137.857 329.007L115.949 473.661H76.2109L89.2549 323.165Z" fill="#7C7C7C"/>
<path d="M137.832 329.007L115.244 472.402" stroke="#565656" stroke-width="0.75" stroke-miterlimit="10" stroke-linecap="round"/>
<path d="M137.857 329.007C137.857 329.007 150.599 239.509 153.621 221.429" stroke="#565656" stroke-width="0.75" stroke-miterlimit="10" stroke-linecap="round"/>
<path d="M98.699 474.813C101.555 474.608 104.387 475.459 106.657 477.204C108.927 478.95 110.477 481.468 111.013 484.281L124.158 497.754V506.139H82.0283C82.0283 506.139 84.1436 491.03 84.748 487.63C85.3524 484.231 87.3921 474.813 98.699 474.813Z" fill="#FBBEAA"/>
<path d="M110.988 484.181C111.466 483.526 112.146 483.022 112.624 483.324C113.103 483.627 125.82 493.7 126.424 494.203C126.797 494.553 127.078 494.987 127.245 495.47C127.412 495.953 127.458 496.469 127.381 496.973V507.776H81.0962C81.0962 507.776 82.9093 491.811 83.0352 490.929C83.1611 490.048 84.0425 488.89 84.5462 488.915C87.723 489.888 91.0201 490.414 94.3421 490.476C98.7572 490.71 103.161 489.845 107.16 487.958C108.642 486.927 109.937 485.649 110.988 484.181Z" fill="black"/>
<path d="M119.777 498.71C117.535 497.048 109.477 490.753 106.455 488.386L107.16 488.033C107.255 487.992 107.341 487.932 107.412 487.857C110.635 490.375 118.215 496.318 120.381 497.93C122.212 499.333 123.466 501.357 123.906 503.621L122.924 503.772C122.509 501.765 121.393 499.971 119.777 498.71Z" fill="white"/>
<path d="M82.3552 496.772C85.6171 496.805 88.7737 497.931 91.3201 499.97C93.6216 502.009 95.1806 504.755 95.7522 507.776H94.3923C93.8361 505.158 92.4601 502.785 90.4639 501.002C88.1203 499.125 85.2067 498.104 82.2041 498.106L82.3552 496.772Z" fill="white"/>
<path d="M134.861 507.751H81.0964C80.7209 507.751 80.4165 508.056 80.4165 508.431V513.644C80.4165 514.02 80.7209 514.324 81.0964 514.324H134.861C135.236 514.324 135.541 514.02 135.541 513.644V508.431C135.541 508.056 135.236 507.751 134.861 507.751Z" fill="white"/>
<path d="M126.298 494.102C126.777 493.901 129.119 494.581 132.166 497.577C133.435 498.889 134.348 500.502 134.819 502.264C135.291 504.027 135.305 505.881 134.86 507.65H119.575C120.431 497.98 125.82 494.304 126.298 494.102Z" fill="white"/>
<path d="M120.431 494.254C120.243 494.485 120.153 494.781 120.181 495.078C120.209 495.375 120.353 495.649 120.582 495.84C120.695 495.933 120.824 496.002 120.964 496.045C121.103 496.088 121.249 496.102 121.394 496.088C121.539 496.074 121.68 496.032 121.809 495.963C121.937 495.895 122.051 495.802 122.144 495.689L124.662 492.642C124.851 492.411 124.941 492.115 124.912 491.818C124.884 491.521 124.74 491.247 124.511 491.055C124.4 490.959 124.271 490.887 124.131 490.842C123.991 490.798 123.844 490.782 123.698 490.796C123.552 490.81 123.41 490.854 123.282 490.925C123.153 490.995 123.04 491.091 122.95 491.207L120.431 494.254Z" fill="white"/>
<path d="M117.435 491.962C117.246 492.193 117.156 492.489 117.184 492.786C117.213 493.083 117.357 493.357 117.586 493.548C117.697 493.644 117.826 493.717 117.966 493.761C118.106 493.806 118.253 493.821 118.399 493.807C118.545 493.793 118.687 493.749 118.815 493.679C118.944 493.608 119.057 493.512 119.147 493.397L121.665 490.35C121.848 490.116 121.934 489.822 121.906 489.527C121.878 489.231 121.738 488.958 121.514 488.763C121.403 488.667 121.274 488.595 121.134 488.55C120.995 488.506 120.847 488.49 120.701 488.504C120.555 488.518 120.414 488.562 120.285 488.633C120.156 488.703 120.043 488.799 119.953 488.914L117.435 491.962Z" fill="white"/>
<path d="M114.539 489.696C114.348 489.919 114.255 490.209 114.278 490.502C114.302 490.795 114.441 491.066 114.665 491.257C114.896 491.446 115.192 491.536 115.489 491.507C115.786 491.479 116.06 491.335 116.251 491.106L118.769 488.059C118.875 487.955 118.959 487.832 119.017 487.696C119.074 487.56 119.104 487.413 119.104 487.265C119.104 487.118 119.074 486.971 119.017 486.835C118.959 486.699 118.875 486.575 118.769 486.472C118.536 486.29 118.241 486.203 117.946 486.232C117.651 486.26 117.378 486.4 117.183 486.623L114.539 489.696Z" fill="white"/>
<path d="M111.618 487.404C111.525 487.517 111.455 487.646 111.413 487.785C111.37 487.925 111.355 488.071 111.369 488.216C111.383 488.361 111.426 488.502 111.494 488.631C111.563 488.759 111.656 488.873 111.769 488.966C111.981 489.173 112.265 489.289 112.562 489.289C112.859 489.289 113.143 489.173 113.355 488.966L115.873 485.893C116.062 485.662 116.152 485.366 116.124 485.069C116.096 484.772 115.951 484.498 115.722 484.307C115.61 484.214 115.48 484.144 115.341 484.102C115.202 484.059 115.055 484.044 114.91 484.058C114.765 484.073 114.625 484.115 114.496 484.184C114.367 484.252 114.254 484.345 114.161 484.458L111.618 487.404Z" fill="white"/>
<path d="M157.877 474.813C160.733 474.608 163.565 475.459 165.836 477.204C168.106 478.95 169.656 481.468 170.191 484.281L183.311 497.754V506.139H141.207C141.207 506.139 143.297 491.03 143.926 487.63C144.556 484.231 146.57 474.813 157.877 474.813Z" fill="#FBBEAA"/>
<path d="M170.166 484.181C170.645 483.526 171.299 483.022 171.803 483.324C172.307 483.627 184.999 493.7 185.578 494.203C186.157 494.707 186.56 495.336 186.56 496.973V507.776H140.275C140.275 507.776 142.088 491.811 142.214 490.929C142.34 490.048 143.221 488.89 143.725 488.915C146.902 489.888 150.199 490.414 153.521 490.476C157.928 490.715 162.325 489.849 166.313 487.958C167.808 486.932 169.111 485.654 170.166 484.181Z" fill="black"/>
<path d="M178.955 498.71C176.713 497.048 168.655 490.753 165.633 488.386L166.313 488.033C166.416 487.993 166.51 487.933 166.59 487.857C169.814 490.375 177.393 496.318 179.559 497.93C181.39 499.333 182.644 501.357 183.085 503.621L182.102 503.772C181.675 501.77 180.562 499.979 178.955 498.71Z" fill="white"/>
<path d="M141.533 496.772C144.795 496.805 147.952 497.931 150.498 499.97C152.8 502.009 154.359 504.755 154.93 507.776H153.571C153.008 505.155 151.622 502.782 149.617 501.002C147.285 499.122 144.378 498.099 141.382 498.106L141.533 496.772Z" fill="white"/>
<path d="M194.039 507.751H140.275C139.899 507.751 139.595 508.056 139.595 508.431V513.644C139.595 514.02 139.899 514.324 140.275 514.324H194.039C194.414 514.324 194.719 514.02 194.719 513.644V508.431C194.719 508.056 194.414 507.751 194.039 507.751Z" fill="white"/>
<path d="M185.477 494.102C185.956 493.901 188.298 494.581 191.345 497.577C192.613 498.889 193.527 500.502 193.998 502.264C194.469 504.027 194.484 505.881 194.039 507.65H178.753C179.61 497.98 184.999 494.304 185.477 494.102Z" fill="white"/>
<path d="M179.508 494.254C179.32 494.485 179.23 494.781 179.258 495.078C179.286 495.375 179.431 495.649 179.66 495.84C179.772 495.933 179.902 496.002 180.041 496.045C180.18 496.088 180.327 496.102 180.472 496.088C180.617 496.074 180.757 496.032 180.886 495.963C181.015 495.895 181.128 495.802 181.221 495.689L183.739 492.642C183.922 492.408 184.008 492.114 183.98 491.819C183.952 491.523 183.811 491.25 183.588 491.055C183.477 490.959 183.348 490.887 183.208 490.842C183.068 490.798 182.921 490.782 182.775 490.796C182.629 490.81 182.487 490.854 182.359 490.925C182.23 490.995 182.117 491.091 182.027 491.207L179.508 494.254Z" fill="white"/>
<path d="M176.613 491.962C176.424 492.193 176.334 492.489 176.363 492.786C176.391 493.083 176.535 493.357 176.764 493.548C176.875 493.644 177.004 493.717 177.144 493.761C177.284 493.806 177.431 493.822 177.577 493.807C177.723 493.793 177.865 493.75 177.993 493.679C178.122 493.609 178.235 493.513 178.325 493.397L180.844 490.35C181.026 490.117 181.112 489.822 181.084 489.527C181.056 489.232 180.916 488.958 180.693 488.764C180.461 488.575 180.165 488.485 179.868 488.513C179.571 488.541 179.297 488.686 179.106 488.915L176.613 491.962Z" fill="white"/>
<path d="M173.716 489.695C173.611 489.796 173.528 489.918 173.47 490.052C173.413 490.186 173.384 490.33 173.384 490.476C173.384 490.622 173.413 490.766 173.47 490.9C173.528 491.034 173.611 491.156 173.716 491.257C173.947 491.445 174.244 491.535 174.541 491.507C174.838 491.479 175.111 491.335 175.303 491.106L177.821 488.059C178.01 487.827 178.1 487.531 178.071 487.234C178.043 486.937 177.899 486.663 177.67 486.472C177.558 486.379 177.428 486.31 177.289 486.267C177.149 486.224 177.003 486.21 176.858 486.224C176.713 486.238 176.572 486.28 176.443 486.349C176.315 486.417 176.201 486.511 176.109 486.623L173.716 489.695Z" fill="white"/>
<path d="M170.796 487.404C170.703 487.517 170.634 487.646 170.591 487.785C170.548 487.925 170.534 488.071 170.548 488.216C170.562 488.361 170.604 488.502 170.673 488.631C170.741 488.759 170.834 488.873 170.947 488.966C171.159 489.173 171.444 489.289 171.74 489.289C172.037 489.289 172.322 489.173 172.534 488.966L175.052 485.893C175.24 485.662 175.33 485.366 175.302 485.069C175.274 484.772 175.13 484.498 174.901 484.307C174.788 484.214 174.659 484.144 174.519 484.102C174.38 484.059 174.234 484.044 174.089 484.058C173.944 484.073 173.803 484.115 173.674 484.184C173.546 484.252 173.432 484.345 173.339 484.458L170.796 487.404Z" fill="white"/>
<path d="M181.79 197.26C181.79 197.26 181.79 223.374 181.79 224.809C181.79 226.245 169.199 238.559 152.478 238.559C126.767 238.559 95.994 229.166 96.4473 223.047C96.7495 219.018 99.5215 198.755 99.5215 198.755L181.79 197.26Z" fill="#7C7C7C"/>
<path d="M161.751 60.5955H131.431V96.2536H161.751V60.5955Z" fill="#FBBEAA"/>
<path d="M163.09 87.1126C148.988 99.2001 134.97 92.1491 130.353 85.8535L110.208 94.6673L115.244 187.842L181.977 190.36L179.459 100.963L163.09 87.1126Z" fill="white"/>
<path d="M131.507 60.5955H161.726V80.4895C160.406 80.6534 159.077 80.7375 157.747 80.7413C147.321 80.7413 135.662 77.8957 131.406 67.9487L131.507 60.5955Z" fill="#F18380"/>
<path d="M181.872 95.1457C179.177 93.383 161.726 83.31 161.726 83.31V216.122C163.661 218.007 164.056 217.962 166.834 217.647L166.964 217.633C172.97 216.125 178.764 213.875 184.214 210.934C184.214 210.934 186.531 114.335 187.11 106.981C187.689 99.6282 184.566 96.9085 181.872 95.1457Z" fill="#002776"/>
<path d="M134.796 217.6C136.02 217.341 137.18 216.838 138.206 216.122L131.356 81.9502C131.356 81.9502 111.588 89.9834 106.325 92.3253C104.137 93.2481 102.261 94.7813 100.922 96.7417C99.582 98.7021 98.8351 101.007 98.7703 103.38C98.4429 107.812 97.9896 206.049 97.9141 206.905C97.8385 207.761 98.5688 208.24 99.3495 208.693C100.13 209.146 124.809 216.348 131.079 217.633C132.308 217.871 133.572 217.86 134.796 217.6Z" fill="#002776"/>
<path d="M177.414 34.1294C177.162 44.4289 177.414 52.5628 175.55 60.4197C173.687 68.2766 167.996 74.6981 155.405 74.6981C142.813 74.6981 128.46 70.5934 127.452 54.8544C125.387 52.6132 122.038 44.6304 121.912 35.6907C121.786 26.7509 122.491 7.83903 142.864 4.94306C163.236 2.04709 177.968 9.52624 177.414 34.1294Z" fill="#FBBEAA"/>
<path d="M166.762 42.2382C166.762 43.6232 167.593 44.7564 168.626 44.7564C169.658 44.7564 170.489 43.6232 170.489 42.2382C170.489 40.8532 169.658 39.72 168.626 39.72C167.593 39.72 166.762 40.7524 166.762 42.2382Z" fill="#403D4F"/>
<path d="M144.098 42.2382C144.098 43.6232 144.929 44.7564 145.962 44.7564C146.994 44.7564 147.825 43.6232 147.825 42.2382C147.825 40.8532 146.994 39.72 145.962 39.72C144.929 39.72 144.098 40.7524 144.098 42.2382Z" fill="#403D4F"/>
<path d="M148.656 36.9996C148.48 37.2263 147.145 36.9996 146.138 36.9996C145.13 36.9996 143.191 36.9996 143.191 36.773C143.191 36.5464 144.148 34.9851 146.667 35.2621C148.48 35.4635 149.134 36.5967 148.656 36.9996Z" fill="#403D4F"/>
<path d="M166.334 36.9997C166.485 37.2264 167.618 36.9997 168.5 36.9997C169.381 36.9997 171.018 36.9997 171.018 36.7731C170.792 36.2023 170.365 35.7338 169.818 35.4555C169.271 35.1773 168.641 35.1085 168.046 35.2621C166.485 35.4636 166.057 36.5968 166.334 36.9997Z" fill="#403D4F"/>
<path d="M158.905 52.6633C160.668 52.6633 162.078 51.5049 162.128 50.6739L161.549 43.5725C161.53 43.3965 161.443 43.2349 161.307 43.1221C161.17 43.0092 160.995 42.954 160.819 42.9681C160.733 42.9745 160.649 42.9978 160.572 43.0367C160.495 43.0757 160.426 43.1294 160.37 43.195C160.314 43.2605 160.271 43.3365 160.245 43.4186C160.218 43.5006 160.208 43.5872 160.214 43.6732L160.768 50.5228C160.514 50.7988 160.201 51.0144 159.852 51.1538C159.504 51.2933 159.129 51.353 158.754 51.3286C158.666 51.3218 158.577 51.3328 158.494 51.3611C158.41 51.3893 158.333 51.4342 158.267 51.493C158.201 51.5518 158.148 51.6234 158.11 51.7033C158.073 51.7832 158.052 51.87 158.049 51.9582C158.048 52.1368 158.116 52.3089 158.237 52.4398C158.359 52.5707 158.525 52.6506 158.704 52.6633H158.905Z" fill="#F18380"/>
<path d="M132.912 38.8129C132.912 48.9742 127.875 45.1969 127.875 45.1969C126.616 41.4195 124.423 43.0438 121.539 43.0438C118.656 43.0438 119.026 40.9438 116.143 34.0186C113.836 28.4785 116.495 19.6756 118.225 17.5447C115.358 13.7875 119.247 11.5493 119.112 12.1188C118.225 15.8734 121.299 12.0999 122.839 10.6196C139.282 -5.19098 180.718 2.75208 180.718 2.75208L176.414 8.19818L187.013 5.27036C187.013 5.27036 186.322 11.0055 184.495 14.0842C182.974 16.6482 179.297 19.6756 179.297 19.6756L190.831 20.741C190.831 20.741 183.334 28.7315 172.954 29.7969C161.263 30.9968 148.733 25.5353 148.733 25.5353L153.346 30.8623C153.346 30.8623 141.685 28.484 137.908 30.4526C135.492 31.7117 132.912 34.2704 132.912 38.8129Z" fill="#7D4A40"/>
<path d="M128.006 47.0228C127.88 44.152 127.427 39.9214 123.347 39.8206C119.268 39.7199 118.739 42.7922 118.865 47.6272C118.991 52.4622 123.901 56.5669 128.207 54.9048L128.006 47.0228Z" fill="#FBBEAA"/>
<path d="M122.013 50.4974C122.189 50.4666 122.347 50.3673 122.45 50.2211C122.554 50.0749 122.596 49.8937 122.567 49.7168C122.567 49.5747 122.607 49.4355 122.683 49.3152C122.759 49.1949 122.867 49.0985 122.995 49.0369C123.252 48.8647 123.554 48.7728 123.864 48.7728C124.173 48.7728 124.475 48.8647 124.733 49.0369C124.844 49.0986 124.97 49.131 125.098 49.131C125.225 49.131 125.351 49.0986 125.463 49.0369C125.565 48.9691 125.648 48.8747 125.701 48.7639C125.754 48.653 125.776 48.5298 125.765 48.4073C125.412 44.353 122.819 43.5975 122.718 43.5723C122.632 43.5458 122.541 43.5373 122.452 43.5473C122.363 43.5573 122.276 43.5856 122.198 43.6305C122.12 43.6754 122.052 43.7359 121.999 43.8082C121.945 43.8805 121.907 43.9631 121.887 44.0508C121.84 44.2177 121.862 44.3963 121.947 44.5474C122.032 44.6984 122.173 44.8096 122.34 44.8566C122.843 45.0844 123.282 45.4338 123.616 45.8735C123.95 46.3132 124.169 46.8292 124.254 47.3748C123.564 47.2624 122.857 47.4057 122.265 47.7778C121.92 47.98 121.641 48.278 121.462 48.6356C121.283 48.9932 121.212 49.3951 121.257 49.7923C121.253 49.8905 121.27 49.9883 121.307 50.0792C121.345 50.1701 121.401 50.2519 121.473 50.3189C121.545 50.3859 121.63 50.4365 121.723 50.4674C121.816 50.4982 121.915 50.5085 122.013 50.4974Z" fill="#F18380"/>
<path d="M157.168 61.7293C154.737 61.6355 152.403 60.7514 150.52 59.2111" stroke="#73102A" stroke-width="0.5" stroke-miterlimit="10" stroke-linecap="round"/>
<path d="M157.253 57.2724C153.728 56.114 149.699 54.7542 148.314 56.3911C147.231 57.4991 148.691 62.7118 154.106 63.6184C159.52 64.5249 161.459 60.798 161.182 59.3626C161.006 58.4812 160.023 58.2042 157.253 57.2724Z" fill="#73102A"/>
<path d="M148.44 56.316H148.314C147.231 57.4241 148.691 62.6368 154.106 63.5434C155.282 63.8164 156.505 63.8164 157.681 63.5434C156.769 61.7316 155.468 60.144 153.87 58.8945C152.272 57.645 150.418 56.7644 148.44 56.316Z" fill="#D65155"/>
<path d="M149.698 55.7613C151.125 57.3117 152.936 58.4569 154.949 59.0805C156.961 59.7042 159.103 59.784 161.156 59.312C160.955 58.4558 159.947 58.1788 157.253 57.2723C154.862 56.2671 152.292 55.7532 149.698 55.7613Z" fill="white"/>
<g filter="url(#filter1_d_110_34)">
<rect x="124.857" y="128.543" width="45.5256" height="64.8739" rx="1" transform="rotate(-6.55484 124.857 128.543)" fill="#EFEFEF"/>
</g>
<path d="M144.031 154.832C147.257 153.469 150.174 151.449 152.597 148.901C154.096 147.327 155.797 145.961 157.653 144.839C158.742 144.159 159.682 143.26 160.413 142.201C161.379 140.558 162.179 138.823 162.8 137.023C163.03 135.472 163.558 133.978 164.353 132.624C165.109 131.931 167.778 132.301 169.163 134.994C169.641 136.194 169.857 137.485 169.798 138.781C169.739 140.078 169.405 141.35 168.819 142.513C168.13 143.907 167.59 145.37 167.209 146.877L167.46 147.027C169.571 145.907 171.827 145.094 174.159 144.614C175.005 144.425 175.886 144.527 176.66 144.904C177.435 145.281 178.057 145.911 178.428 146.692C178.798 147.474 178.895 148.361 178.702 149.211C178.51 150.062 178.039 150.825 177.366 151.379C181.005 151.797 180.592 157.41 177.468 158.152C178.137 158.433 178.702 158.915 179.086 159.533C179.47 160.15 179.655 160.874 179.616 161.606C179.576 162.338 179.315 163.043 178.866 163.625C178.418 164.208 177.804 164.639 177.108 164.862C179.327 166.908 177.705 170.28 173.676 170.295C170.402 170.628 161.647 171.998 158.601 172.654C155.555 173.31 149.432 171.859 147.465 172.468C144.538 173.541 141.137 173.558 138.544 165.855C135.95 158.151 141.018 155.828 144.031 154.832Z" fill="#FBBEAA"/>
<path d="M149.795 175.5L90.8232 199.241C83.2871 203.031 71.0432 201.087 67.3521 192.273C66.6763 190.629 66.3413 188.866 66.3676 187.089C66.3938 185.312 66.7806 183.559 67.5047 181.936C68.2288 180.313 69.2749 178.854 70.5797 177.648C71.8845 176.442 73.4208 175.513 75.0953 174.918L144.791 149.711L149.795 175.5Z" fill="#002776"/>
<defs>
<filter id="filter0_f_110_34" x="0.420898" y="479.227" width="247" height="63" filterUnits="userSpaceOnUse" color-interpolation-filters="sRGB">
<feFlood flood-opacity="0" result="BackgroundImageFix"/>
<feBlend mode="normal" in="SourceGraphic" in2="BackgroundImageFix" result="shape"/>
<feGaussianBlur stdDeviation="8.5" result="effect1_foregroundBlur_110_34"/>
</filter>
<filter id="filter1_d_110_34" x="124.964" y="123.454" width="54.4185" height="69.4316" filterUnits="userSpaceOnUse" color-interpolation-filters="sRGB">
<feFlood flood-opacity="0" result="BackgroundImageFix"/>
<feColorMatrix in="SourceAlpha" type="matrix" values="0 0 0 0 0 0 0 0 0 0 0 0 0 0 0 0 0 0 127 0" result="hardAlpha"/>
<feOffset dx="2"/>
<feComposite in2="hardAlpha" operator="out"/>
<feColorMatrix type="matrix" values="0 0 0 0 0.603922 0 0 0 0 0.6 0 0 0 0 0.631373 0 0 0 1 0"/>
<feBlend mode="normal" in2="BackgroundImageFix" result="effect1_dropShadow_110_34"/>
<feBlend mode="normal" in="SourceGraphic" in2="effect1_dropShadow_110_34" result="shape"/>
</filter>
</defs>
</svg>
