<svg width="206" height="514" viewBox="0 0 206 514" fill="none" xmlns="http://www.w3.org/2000/svg">
<path d="M33.7708 70.356C33.6686 68.1209 34.2669 65.9098 35.4822 64.0313C37.3534 61.8617 38.7552 61.3283 39.5995 58.5905C40.2489 56.0492 41.2863 53.623 42.675 51.3977C43.6671 50.0336 45.1553 48.9175 45.1553 47.8758C45.1553 46.8341 43.1711 44.8251 40.3436 45.3955C39.1325 45.7728 38.0197 46.4132 37.0849 47.2707C36.1502 48.1283 35.4166 49.1819 34.9366 50.3561C34.6657 49.6406 34.5068 48.8877 34.4654 48.1238L33.8453 30.9198C33.8359 30.5257 33.7476 30.1374 33.5856 29.778C33.4237 29.4185 33.1913 29.0952 32.9023 28.827C32.6133 28.5588 32.2735 28.3512 31.903 28.2165C31.5325 28.0818 31.1388 28.0227 30.745 28.0427C30.1181 28.0695 29.5153 28.292 29.0215 28.6791C28.7709 28.8755 24.5758 33.9632 20.481 39.0062C16.5064 43.9011 12.6264 48.7539 12.5398 49.0505C13.336 56.2799 14.8312 63.4151 17.0043 70.356C17.0306 71.5148 17.2991 72.6554 17.7925 73.7043C18.2859 74.7533 18.9934 75.6874 19.8693 76.4466C20.7453 77.2057 21.7705 77.7732 22.8789 78.1125C23.9873 78.4518 25.1545 78.5555 26.3053 78.4168C27.3468 78.4515 28.3836 78.2619 29.3453 77.8608C30.3071 77.4596 31.1713 76.8563 31.8794 76.0917C32.5875 75.3272 33.1229 74.4193 33.4492 73.4296C33.7756 72.44 33.8852 71.3917 33.7708 70.356Z" fill="#FBBEAA"/>
<path d="M29.7729 23.8014L47.0286 40.7278C47.2113 40.4676 47.3943 40.1935 47.577 39.9333C48.1255 39.1387 48.681 38.3373 49.2294 37.5427C49.4333 37.2482 49.6302 36.9604 49.8341 36.6659C50.6568 35.481 50.4968 33.8765 49.4729 32.8693L37.5824 21.2027C36.5585 20.1955 34.9506 20.0723 33.7799 20.9146C33.4941 21.1252 33.2085 21.322 32.9227 21.5327C32.1353 22.0964 31.3479 22.6601 30.5605 23.2238C30.3025 23.421 30.0377 23.6112 29.7729 23.8014Z" fill="#E2874A"/>
<g opacity="0.53">
<path d="M30.5604 23.2367L47.5841 39.9254C48.1326 39.1308 48.688 38.3295 49.2365 37.5349L32.9296 21.5387C32.1352 22.1092 31.3478 22.6729 30.5604 23.2367Z" fill="#D46424"/>
</g>
<path d="M26.7354 26.0595C26.1046 26.8116 25.4669 27.5567 24.8291 28.3157C23.9321 29.3685 23.0489 30.4215 22.1588 31.4813C18.7246 35.5424 15.3042 39.6037 11.8701 43.6649C10.0268 45.8459 8.18354 48.0269 6.34029 50.2079C5.16283 51.6027 5.26204 53.6623 6.55894 54.9353L16.3677 64.5526C17.6646 65.8256 19.7292 65.8853 21.1047 64.6795C23.2483 62.7923 25.3987 60.912 27.5423 59.0248C31.5362 55.5092 35.53 52.0075 39.5239 48.4919C40.5642 47.5859 41.6046 46.6661 42.6381 45.7531C43.3712 45.1058 44.1182 44.4588 44.8584 43.8047C45.8149 42.9667 46.1962 41.7211 45.9824 40.5649C45.8663 39.8866 45.5289 39.2332 45.0034 38.7087L31.8501 25.8041C31.3108 25.2794 30.6585 24.9606 29.969 24.8555C28.7899 24.6823 27.5555 25.0817 26.7354 26.0595Z" fill="#F5F5F5"/>
<path d="M22.1574 31.4795C18.7232 35.5407 15.3029 39.602 11.8687 43.6632L27.5339 59.0299C31.5279 55.5143 35.5216 52.0126 39.5224 48.504L22.1574 31.4795Z" fill="#E2874A"/>
<g opacity="0.52">
<path d="M30.0572 50.6393C32.11 48.8408 34.1489 47.0421 36.1946 45.2503L39.5051 48.5027C35.5111 52.0182 31.5174 55.52 27.5166 59.0285L11.8514 43.6618C12.405 43.0124 12.9448 42.3627 13.4984 41.7133L22.3924 50.4353C24.5017 52.4987 27.8439 52.5809 30.0572 50.6393Z" fill="#E2874A"/>
</g>
<path d="M26.7101 25.6984L45.1944 43.8279C46.1705 44.7862 47.7455 44.7777 48.7039 43.7878L48.7948 43.6991C49.753 42.7231 49.7376 41.1549 48.7547 40.1897L30.2703 22.0602C29.2943 21.1019 27.7261 21.1173 26.7609 22.1003L26.67 22.1889C25.7186 23.172 25.734 24.7402 26.7101 25.6984Z" fill="#E2874A"/>
<g opacity="0.53">
<path d="M27.7585 21.498C27.4159 22.4056 27.6171 23.4649 28.3544 24.1784L46.7842 42.252C47.4804 42.9374 48.4728 43.1291 49.3397 42.8427C49.2183 43.1659 49.035 43.4675 48.7764 43.72L48.7414 43.7541C47.7692 44.7438 46.1664 44.7657 45.1767 43.7935L26.7469 25.7199C25.7572 24.7477 25.7353 23.1449 26.7075 22.1552L26.7425 22.1211C27.0361 21.8345 27.3841 21.6177 27.7585 21.498Z" fill="#D46424"/>
</g>
<path d="M26.2922 45.1576C24.6056 44.688 23.1323 44.2832 21.4765 46.3905C22.4835 47.6461 24.5199 48.3203 26.7002 47.9531C29.4896 47.4829 31.4963 45.4973 31.2932 43.4571C30.4443 44.5313 29.1031 45.7582 27.5318 45.4628C27.1183 45.3886 26.6914 45.2729 26.2922 45.1576Z" fill="#5B2500"/>
<path d="M25.4255 40.3532C22.553 40.8363 20.5036 42.9319 20.8579 45.0292C20.8641 45.0914 20.8841 45.1538 20.8972 45.2092C22.9345 42.9753 24.9516 43.5318 26.6176 43.9942C27.0168 44.1096 27.3886 44.2108 27.7608 44.2706C28.9324 44.4921 30.1305 43.1045 30.7922 42.0903C29.835 40.7178 27.7165 39.9736 25.4255 40.3532Z" fill="#5B2500"/>
<path d="M26.1804 35.7212C27.5892 33.4737 24.7287 30.5099 22.9137 29.3518C22.9137 29.3518 21.8215 28.088 19.5576 30.3519C17.0576 32.852 18.5576 34.5631 18.5576 34.5631C20.1911 36.3002 24.0027 39.1953 26.1804 35.7212Z" fill="#FBBEAA"/>
<path d="M22.1804 40.073C23.5892 37.8255 20.7287 34.8617 18.9137 33.7036C18.9137 33.7036 17.8215 32.4398 15.5576 34.7037C13.0576 37.2038 14.5576 38.9149 14.5576 38.9149C16.1911 40.652 20.0027 43.5471 22.1804 40.073Z" fill="#FBBEAA"/>
<path d="M18.1804 44.073C19.5892 41.8255 16.7287 38.8617 14.9137 37.7036C14.9137 37.7036 13.8215 36.4398 11.5576 38.7037C9.05765 41.2038 10.5576 42.9149 10.5576 42.9149C12.1911 44.652 16.0027 47.5471 18.1804 44.073Z" fill="#FBBEAA"/>
<path d="M13.245 47.6334C14.4126 45.7496 12.0419 43.2655 10.5377 42.2949C10.5377 42.2949 9.63246 41.2356 7.75628 43.1331C5.68436 45.2286 6.92751 46.6627 6.92751 46.6627C8.2813 48.1187 11.4402 50.5453 13.245 47.6334Z" fill="#FBBEAA"/>
<path d="M118.355 475.134C118.355 472.746 117.407 470.456 115.718 468.768C114.03 467.079 111.74 466.131 109.352 466.131C106.964 466.131 104.674 467.079 102.985 468.768C101.297 470.456 100.348 472.746 100.348 475.134V494.703H118.355V475.134Z" fill="#FBBEAA"/>
<path d="M100.993 478.78C98.7857 478.78 98.3889 479.748 97.744 481.012C96.6981 484.383 94.9098 487.477 92.5107 490.065C88.929 493.116 85.0863 495.847 81.0271 498.225V508.593H121.108C121.108 508.593 120.835 500.408 120.637 494.629C120.438 488.85 119.868 481.806 119.918 481.062C119.967 480.318 119.918 478.78 118.553 478.78H100.993Z" fill="#302D3B"/>
<path d="M116.123 495.199C116.128 496.472 115.755 497.717 115.051 498.777C114.347 499.838 113.344 500.665 112.169 501.154C110.994 501.643 109.701 501.773 108.452 501.526C107.204 501.279 106.057 500.666 105.157 499.766C104.257 498.866 103.645 497.72 103.398 496.471C103.151 495.223 103.28 493.929 103.769 492.754C104.258 491.579 105.086 490.576 106.146 489.872C107.206 489.168 108.451 488.795 109.724 488.8C111.419 488.807 113.043 489.483 114.242 490.682C115.44 491.88 116.117 493.504 116.123 495.199Z" fill="#93929C"/>
<path d="M109.724 491.429L111.187 493.587L113.693 494.306L112.105 496.365L112.18 498.969L109.724 498.076L107.269 498.969L107.368 496.365L105.756 494.306L108.261 493.587L109.724 491.429Z" fill="white"/>
<path d="M81.3002 498.052C81.3002 498.052 75.6204 501.053 73.4874 502.516C72.4999 503.185 71.6977 504.094 71.1556 505.156C70.6135 506.219 70.3492 507.401 70.3871 508.593H85.9631C85.9631 508.593 85.6406 500.979 81.3002 498.052Z" fill="white"/>
<path d="M121.108 508.593V512.884C121.108 513.603 120.463 514 119.372 514H72.0982C71.0316 514 70.3868 513.603 70.3868 512.884V508.593H121.108Z" fill="white"/>
<path d="M85.9633 495.15C85.8259 494.939 85.6118 494.79 85.3664 494.734C85.1209 494.679 84.8635 494.721 84.6487 494.852C84.5418 494.918 84.4491 495.005 84.376 495.107C84.303 495.209 84.2511 495.324 84.2233 495.447C84.1956 495.569 84.1926 495.696 84.2146 495.82C84.2365 495.943 84.2829 496.061 84.3511 496.167L86.0128 498.845C86.0929 498.984 86.2089 499.099 86.3485 499.177C86.4882 499.256 86.6464 499.296 86.8065 499.292C86.9903 499.289 87.1699 499.238 87.3274 499.143C87.4343 499.077 87.527 498.991 87.6001 498.889C87.6732 498.787 87.7251 498.671 87.7528 498.548C87.7806 498.426 87.7835 498.299 87.7615 498.176C87.7396 498.052 87.6933 497.934 87.6251 497.829L85.9633 495.15Z" fill="white"/>
<path d="M88.89 493.091C88.8085 492.997 88.7093 492.919 88.598 492.863C88.4866 492.807 88.3652 492.773 88.2408 492.764C88.1165 492.755 87.9916 492.77 87.8731 492.809C87.7547 492.848 87.6451 492.91 87.5507 492.992C87.4562 493.073 87.3787 493.172 87.3226 493.284C87.2665 493.395 87.2328 493.517 87.2236 493.641C87.2144 493.765 87.2298 493.89 87.2689 494.009C87.308 494.127 87.37 494.237 87.4515 494.331L89.3861 496.613C89.4753 496.718 89.5854 496.802 89.7092 496.862C89.833 496.922 89.9679 496.955 90.1054 496.96C90.285 496.957 90.4602 496.904 90.6112 496.806C90.7622 496.709 90.8832 496.571 90.9604 496.409C91.0377 496.247 91.0682 496.066 91.0486 495.888C91.029 495.709 90.96 495.539 90.8494 495.398L88.89 493.091Z" fill="white"/>
<path d="M91.6426 490.785C91.4453 490.658 91.2085 490.607 90.9763 490.641C90.7441 490.676 90.5324 490.793 90.3806 490.973C90.2289 491.152 90.1474 491.38 90.1514 491.614C90.1555 491.849 90.2447 492.074 90.4025 492.248L92.6099 494.158C92.783 494.305 93.0031 494.384 93.23 494.381C93.3665 494.386 93.5024 494.36 93.6271 494.304C93.7518 494.248 93.862 494.164 93.9493 494.059C94.0409 493.973 94.1139 493.869 94.1638 493.754C94.2138 493.639 94.2395 493.515 94.2395 493.389C94.2395 493.264 94.2138 493.139 94.1638 493.024C94.1139 492.909 94.0409 492.805 93.9493 492.719L91.6426 490.785Z" fill="white"/>
<path d="M96.4793 489.644L93.999 488.106C93.7813 487.977 93.5218 487.939 93.276 487.999C93.0303 488.059 92.8179 488.213 92.6845 488.428C92.6174 488.535 92.5725 488.655 92.5524 488.779C92.5322 488.904 92.5374 489.031 92.5675 489.154C92.5976 489.276 92.6519 489.392 92.7274 489.493C92.8029 489.594 92.898 489.679 93.007 489.743L95.4872 491.281C95.6342 491.378 95.8069 491.43 95.9833 491.429C96.1449 491.426 96.3028 491.38 96.4418 491.298C96.5808 491.215 96.6962 491.098 96.7769 490.958C96.9081 490.743 96.9503 490.486 96.8948 490.241C96.8392 489.995 96.6902 489.781 96.4793 489.644Z" fill="white"/>
<path d="M98.5632 486.444L95.7853 485.279C95.5485 485.18 95.2822 485.18 95.045 485.277C94.8078 485.375 94.6191 485.563 94.5204 485.8C94.472 485.915 94.4471 486.039 94.4471 486.164C94.4471 486.29 94.4722 486.414 94.5207 486.529C94.5692 486.644 94.6402 486.749 94.7296 486.837C94.819 486.924 94.9249 486.993 95.0413 487.04L97.8192 488.205H98.1912C98.4052 488.194 98.6093 488.112 98.7715 487.972C98.9337 487.832 99.0448 487.642 99.0874 487.432C99.1299 487.222 99.1015 487.003 99.0067 486.811C98.9118 486.619 98.7558 486.464 98.5632 486.37V486.444Z" fill="white"/>
<path d="M100.299 482.873L97.2235 482.104C96.9801 482.044 96.7232 482.084 96.5092 482.215C96.2953 482.345 96.1418 482.555 96.0826 482.798C96.0233 483.042 96.0633 483.298 96.1935 483.512C96.3238 483.726 96.5336 483.88 96.777 483.939L99.8278 484.733H100.051C100.265 484.73 100.472 484.659 100.642 484.529C100.811 484.4 100.935 484.219 100.993 484.013C101.047 483.77 101.004 483.516 100.875 483.304C100.745 483.091 100.539 482.937 100.299 482.873Z" fill="white"/>
<path d="M131.526 349.98C131.253 337.976 123.167 332.172 111.188 332.47C99.2079 332.768 90.5765 339.043 90.8493 351.022L100.349 476.102H118.355L131.526 349.98Z" fill="#FBBEAA"/>
<path d="M133.089 349.906C133.022 347.056 132.394 344.247 131.242 341.639C130.09 339.032 128.435 336.677 126.373 334.709C124.31 332.741 121.88 331.198 119.222 330.169C116.563 329.14 113.728 328.645 110.878 328.712C108.028 328.779 105.219 329.406 102.611 330.558C100.004 331.711 97.649 333.365 95.6809 335.428C93.7129 337.49 92.1704 339.92 91.1415 342.579C90.1125 345.237 89.6173 348.072 89.6841 350.922L84.0529 479.5H133.088L133.089 349.906Z" fill="#93929C"/>
<path d="M194.252 475.134C194.252 472.746 193.303 470.456 191.615 468.768C189.926 467.079 187.636 466.131 185.248 466.131C182.86 466.131 180.57 467.079 178.882 468.768C177.194 470.456 176.245 472.746 176.245 475.134V494.703H194.252V475.134Z" fill="#FBBEAA"/>
<path d="M176.914 478.78C174.682 478.78 174.285 479.748 173.665 481.012C172.607 484.384 170.811 487.476 168.407 490.065C164.83 493.122 160.986 495.853 156.923 498.225V508.593H197.004C197.004 508.593 196.731 500.408 196.533 494.629C196.334 488.85 195.789 481.806 195.814 481.062C195.838 480.318 195.814 478.78 194.474 478.78H176.914Z" fill="#302D3B"/>
<path d="M192.044 495.199C192.049 496.471 191.676 497.715 190.973 498.775C190.27 499.834 189.269 500.662 188.095 501.152C186.922 501.642 185.63 501.772 184.382 501.527C183.134 501.282 181.987 500.672 181.086 499.775C180.185 498.878 179.571 497.733 179.321 496.486C179.071 495.24 179.197 493.947 179.683 492.771C180.168 491.596 180.991 490.591 182.048 489.884C183.105 489.177 184.348 488.8 185.62 488.8C187.319 488.8 188.949 489.473 190.153 490.673C191.357 491.872 192.037 493.5 192.044 495.199Z" fill="#93929C"/>
<path d="M185.645 491.429L187.108 493.587L189.613 494.306L188.001 496.365L188.075 498.969L185.645 498.076L183.189 498.969L183.263 496.365L181.651 494.306L184.181 493.587L185.645 491.429Z" fill="white"/>
<path d="M157.221 498.052C157.221 498.052 151.517 501.053 149.409 502.516C148.416 503.18 147.61 504.087 147.067 505.151C146.525 506.215 146.263 507.4 146.308 508.593H161.959C161.959 508.593 161.537 500.979 157.221 498.052Z" fill="white"/>
<path d="M197.004 508.593V512.884C197.004 513.603 196.384 514 195.293 514H147.969C146.878 514 146.258 513.603 146.258 512.884V508.593H197.004Z" fill="white"/>
<path d="M161.859 495.15C161.724 494.936 161.51 494.785 161.264 494.729C161.017 494.673 160.759 494.717 160.545 494.852C160.331 494.987 160.179 495.201 160.124 495.448C160.068 495.694 160.112 495.953 160.247 496.167L161.909 498.846C161.995 498.985 162.116 499.099 162.259 499.177C162.403 499.255 162.564 499.295 162.727 499.292C162.904 499.292 163.076 499.241 163.223 499.143C163.33 499.077 163.423 498.991 163.496 498.889C163.569 498.787 163.621 498.671 163.649 498.549C163.677 498.426 163.68 498.299 163.658 498.176C163.636 498.052 163.589 497.934 163.521 497.829L161.859 495.15Z" fill="white"/>
<path d="M164.811 493.091C164.647 492.901 164.416 492.781 164.166 492.758C163.916 492.735 163.667 492.81 163.472 492.967C163.279 493.135 163.159 493.37 163.136 493.624C163.113 493.878 163.189 494.132 163.348 494.331L165.307 496.613C165.393 496.721 165.502 496.809 165.627 496.869C165.751 496.929 165.888 496.96 166.026 496.96C166.208 496.962 166.386 496.911 166.54 496.814C166.694 496.717 166.816 496.577 166.892 496.412C166.968 496.247 166.995 496.063 166.969 495.883C166.943 495.703 166.865 495.535 166.746 495.398L164.811 493.091Z" fill="white"/>
<path d="M167.539 490.785C167.342 490.658 167.105 490.607 166.873 490.641C166.64 490.676 166.429 490.793 166.277 490.973C166.125 491.152 166.044 491.38 166.048 491.614C166.052 491.849 166.141 492.074 166.299 492.248L168.531 494.158C168.704 494.305 168.924 494.384 169.151 494.381C169.287 494.384 169.423 494.357 169.547 494.301C169.671 494.245 169.782 494.163 169.87 494.059C169.959 493.971 170.029 493.867 170.077 493.752C170.125 493.637 170.15 493.514 170.15 493.389C170.15 493.265 170.125 493.141 170.077 493.026C170.029 492.911 169.959 492.807 169.87 492.719L167.539 490.785Z" fill="white"/>
<path d="M172.375 489.644L169.895 488.106C169.681 488.016 169.442 488.005 169.221 488.077C169 488.148 168.812 488.297 168.692 488.496C168.571 488.694 168.527 488.93 168.565 489.159C168.604 489.388 168.724 489.595 168.903 489.743L171.383 491.281C171.53 491.378 171.703 491.43 171.879 491.429C172.045 491.427 172.207 491.383 172.35 491.301C172.493 491.218 172.613 491.1 172.698 490.958C172.827 490.74 172.865 490.481 172.805 490.235C172.745 489.989 172.59 489.777 172.375 489.644Z" fill="white"/>
<path d="M34.9866 80.8421L45.0835 136.5C46.7495 143.482 44.1748 149.799 34.9866 150.907C33.2905 151.101 31.5673 150.99 29.9214 150.582C28.2756 150.173 26.7415 149.475 25.4124 148.529C24.0833 147.584 22.9869 146.412 22.1897 145.083C21.3925 143.754 20.9113 142.297 20.7751 140.8L17.6955 80.9529C16.8878 75.3007 19.6896 71.5326 24.5866 71.0671C30.5943 70.4908 33.7749 73.6161 34.9866 80.8421Z" fill="#FBBEAA"/>
<path d="M174.459 486.445L171.681 485.279C171.565 485.23 171.441 485.206 171.316 485.206C171.191 485.206 171.067 485.231 170.951 485.279C170.836 485.328 170.731 485.399 170.644 485.488C170.556 485.577 170.487 485.683 170.441 485.8C170.348 486.031 170.348 486.288 170.44 486.519C170.533 486.75 170.71 486.937 170.937 487.04L173.739 488.206C173.854 488.231 173.972 488.231 174.087 488.206C174.278 488.206 174.464 488.149 174.623 488.043C174.782 487.937 174.906 487.787 174.979 487.61C175.055 487.386 175.043 487.142 174.947 486.926C174.85 486.71 174.676 486.538 174.459 486.445Z" fill="white"/>
<path d="M176.195 482.873L173.145 482.104C172.898 482.044 172.638 482.083 172.419 482.212C172.201 482.342 172.043 482.553 171.979 482.798C171.949 482.919 171.944 483.044 171.963 483.167C171.982 483.289 172.025 483.407 172.089 483.513C172.154 483.619 172.238 483.711 172.339 483.784C172.439 483.858 172.553 483.91 172.673 483.939L175.724 484.733H175.972C176.195 484.716 176.406 484.622 176.568 484.466C176.73 484.311 176.832 484.105 176.859 483.882C176.885 483.66 176.833 483.435 176.712 483.246C176.591 483.058 176.409 482.917 176.195 482.848V482.873Z" fill="white"/>
<path d="M184.404 349.608C183.186 343.978 179.782 339.062 174.94 335.942C170.099 332.821 164.216 331.75 158.585 332.966C146.853 335.446 140.529 347.004 143.059 358.736L176.244 478.16H194.474L184.404 349.608Z" fill="#FBBEAA"/>
<path d="M184.402 347.252C183.055 341.757 179.619 337.004 174.824 334.003C170.028 331.002 164.251 329.99 158.721 331.182C153.19 332.374 148.343 335.676 145.209 340.386C142.076 345.096 140.903 350.842 141.94 356.404L155.134 479C155.134 479 186.733 480.885 205.558 479L184.402 347.252Z" fill="#93929C"/>
<path d="M27.0071 127.402L98.2402 73.2827C106.549 67.9749 112.204 70.8024 116.619 76.4822C118.635 79.2313 119.57 82.6258 119.245 86.0195C118.92 89.4132 117.359 92.5689 114.858 94.8858L43.7985 147.244C41.2944 149.359 38.0708 150.426 34.7994 150.223C31.528 150.019 28.4612 148.561 26.2383 146.153L25.9158 145.806C24.736 144.547 23.825 143.061 23.2384 141.439C22.6518 139.816 22.4019 138.091 22.504 136.369C22.6062 134.647 23.0581 132.964 23.8323 131.422C24.6066 129.88 25.6868 128.512 27.0071 127.402Z" fill="#FBBEAA"/>
<path d="M114.858 94.8611C115.516 94.2951 116.115 93.6635 116.644 92.9761C117.113 91.2109 117.173 89.3622 116.821 87.5702C116.468 85.7781 115.712 84.0899 114.61 82.6335C110.865 76.8545 103.003 72.3156 99.5057 73.1837L96.0333 74.9447L56.7212 104.708C60.2005 112.885 64.9004 120.486 70.6602 127.253L114.858 94.8611Z" fill="#F18380"/>
<path d="M104.119 69.4133L42.4753 110.988C42.7347 113.115 35.9011 69.4133 35.9011 69.4133L16.5652 71.9297C16.5652 71.9297 16.9587 116.058 19.8453 139.478C20.9976 148.828 28.708 152.397 37.9118 150.389C42.4559 149.397 46.7339 147.533 50.5408 144.861C66.8993 133.379 112.793 101.038 116.545 96.9691C123.018 89.9499 123.018 84.6918 119.298 78.9128C115.578 73.1338 107.616 68.5452 104.119 69.4133Z" fill="#002776"/>
<path d="M133.088 349.906L145.812 216.691C145.812 201.983 130.658 185.961 108.311 189.408C88.1214 192.558 81.9703 212.847 83.6321 232.069C85.2939 251.291 89.7832 350.849 89.7832 350.849C89.8499 353.699 90.4774 356.507 91.6297 359.115C92.7821 361.722 94.4367 364.077 96.4991 366.045C98.5616 368.013 100.991 369.556 103.65 370.585C106.309 371.614 109.144 372.109 111.994 372.042C114.844 371.976 117.653 371.348 120.26 370.196C122.868 369.043 125.223 367.389 127.191 365.326C129.159 363.264 130.701 360.834 131.73 358.175C132.759 355.517 133.254 352.682 133.188 349.832L133.088 349.906Z" fill="#93929C"/>
<path d="M184.404 347.252L171.755 214.062C169.076 199.602 151.094 186.779 129.789 194.369C110.567 201.239 108.334 222.321 113.593 240.899C118.851 259.476 141.942 356.404 141.942 356.404C143.288 361.899 146.724 366.652 151.52 369.653C156.316 372.654 162.093 373.666 167.623 372.474C173.153 371.282 178 367.98 181.134 363.27C184.268 358.56 185.441 352.813 184.404 347.252Z" fill="#93929C"/>
<path d="M113.593 240.899C118.827 259.476 141.943 356.405 141.943 356.405" stroke="#5E5D63" stroke-width="0.75" stroke-miterlimit="10"/>
<path d="M117.314 67.3049C117.314 67.3049 106.351 69.2147 104.218 69.7852C102.959 70.0806 101.796 70.6907 100.837 71.5583C99.8784 72.4259 99.1556 73.5226 98.7364 74.7457C97.3723 77.9949 90.3532 99.2755 89.7083 101.582C89.2723 104.123 89.6818 106.737 90.874 109.023C91.8909 111.801 97.1491 124.45 97.1491 124.45L97.9427 165.201L127.556 169.898L155.931 165.201C155.931 165.201 165.852 89.4041 166.348 84.7164C166.844 80.0287 164.513 70.9758 158.908 69.8348C153.302 68.6939 137.925 67.3546 137.925 67.3546L117.314 67.3049Z" fill="#FBBEAA"/>
<path d="M96.5522 148.816V163.142C115.948 164.928 146.853 163.663 158.461 163.142C159.006 159.05 159.577 152.105 160.172 147.492C144.373 147.889 118.279 149.361 96.5522 148.816Z" fill="white"/>
<path d="M198.839 161.555L167.067 77.9453C162.826 69.0164 156.551 68.4211 149.706 70.9014C146.539 72.1644 143.949 74.5495 142.43 77.6012C140.911 80.6529 140.57 84.1572 141.471 87.4448L174.186 169.566C175.177 172.69 177.341 175.309 180.222 176.872C183.103 178.435 186.478 178.821 189.638 177.949L190.109 177.825C191.776 177.371 193.332 176.581 194.684 175.505C196.036 174.429 197.154 173.089 197.971 171.566C198.788 170.044 199.286 168.371 199.436 166.65C199.585 164.929 199.382 163.195 198.839 161.555Z" fill="#FBBEAA"/>
<path d="M185.67 126.881L167.068 77.9452C166.569 76.872 165.98 75.8432 165.307 74.8697C163.029 73.4431 160.42 72.6295 157.734 72.5078C155.049 72.3861 152.377 72.9605 149.979 74.1752C147.194 75.5304 144.956 77.796 143.634 80.597C142.313 83.3981 141.987 86.5665 142.712 89.5776C142.712 89.8752 142.886 90.4457 143.034 91.2146L162.232 139.456C170.617 136.432 178.514 132.195 185.67 126.881Z" fill="#F18380"/>
<path d="M165.332 73.4811L200.644 165.129C171.64 155.848 170.058 160.5 164.558 146C164.558 146 141.075 89.95 140.38 86.1304C139.655 83.1192 139.981 79.9509 141.302 77.1499C142.624 74.3489 144.862 72.0832 147.647 70.728C155.411 66.7596 163.149 70.356 165.332 73.4811Z" fill="#002776"/>
<path d="M138.892 7.90263C140.207 4.7279 146.829 3.31417 150.55 5.05035C154.27 6.78653 157.99 11.3502 158.536 23.7515C159.082 36.1528 158.065 45.6273 160.297 51.8776C158.234 51.6167 156.293 50.7541 154.716 49.3973C154.716 51.0343 154.468 55.0027 154.468 55.0027C153.268 54.9052 152.12 54.4655 151.162 53.7357C150.204 53.006 149.475 52.0169 149.062 50.8855C148.388 52.3169 147.961 53.8513 147.797 55.4244C145.614 54.2835 138.892 52.2993 138.892 40.5429V7.90263Z" fill="#1D1B24"/>
<path d="M95.661 49.1002C96.3307 40.0968 98.9845 25.2152 98.9845 25.2152L105.334 24.868C105.334 24.868 107.021 51.6796 107.492 57.533C107.963 63.3864 109.65 64.9738 109.65 64.9738C109.65 64.9738 101.589 63.8577 100.324 56.2929C100.138 57.774 100.039 59.2647 100.026 60.7574C100.026 60.7574 94.9665 58.1035 95.661 49.1002Z" fill="#302D3B"/>
<path d="M138.619 46.8185V67.8759C138.619 67.8759 136.957 75.1182 125.821 75.1182C123.61 75.3047 121.411 74.6375 119.677 73.2537C117.943 71.8699 116.804 69.8746 116.495 67.6775V46.8432L138.619 46.8185Z" fill="#FBBEAA"/>
<path d="M116.495 64.3539C123.489 67.6774 133.683 64.7011 138.619 55.5738V46.8185H116.495V64.3539Z" fill="#F18380"/>
<path d="M102.68 30.6718C102.575 35.7083 102.807 40.7462 103.375 45.7517C104.268 52.9197 106.798 60.8566 119.472 60.8566C132.146 60.8566 138.57 55.1271 141.298 45.7517C142.935 40.0967 146.259 31.7135 144.894 22.0404C143.53 12.3674 137.702 6.04283 123.936 5.67079C110.171 5.29876 101.242 11.4498 102.68 30.6718Z" fill="#FBBEAA"/>
<path d="M129.492 34.9622C129.408 35.3349 129.221 35.6764 128.952 35.9477C128.682 36.219 128.343 36.4089 127.971 36.4959C127.599 36.5829 127.21 36.5634 126.848 36.4395C126.487 36.3157 126.167 36.0926 125.927 35.7957C125.687 35.4988 125.535 35.1403 125.488 34.761C125.442 34.3818 125.504 33.9972 125.666 33.6514C125.829 33.3055 126.085 33.0124 126.406 32.8056C126.728 32.5988 127.101 32.4866 127.483 32.4819C127.779 32.5097 128.066 32.5963 128.328 32.7366C128.59 32.877 128.822 33.0684 129.009 33.2994C129.196 33.5304 129.335 33.7965 129.418 34.0821C129.501 34.3676 129.526 34.6669 129.492 34.9622Z" fill="#403D4F"/>
<path d="M111.039 34.9622C110.955 35.336 110.767 35.6783 110.497 35.95C110.226 36.2216 109.885 36.4114 109.512 36.4975C109.138 36.5836 108.748 36.5625 108.386 36.4367C108.025 36.3108 107.706 36.0854 107.466 35.7862C107.227 35.4871 107.077 35.1264 107.034 34.7458C106.99 34.3651 107.055 33.98 107.221 33.6347C107.387 33.2894 107.648 32.998 107.972 32.7941C108.296 32.5901 108.671 32.4819 109.055 32.4819C109.348 32.5127 109.633 32.6016 109.892 32.7433C110.152 32.885 110.38 33.0768 110.565 33.3075C110.749 33.5382 110.886 33.8033 110.968 34.0874C111.049 34.3714 111.073 34.6687 111.039 34.9622Z" fill="#403D4F"/>
<path d="M123.489 27.9436L123.688 27.7204C123.896 27.5426 124.12 27.3848 124.358 27.2492C124.665 27.0599 125 26.9178 125.35 26.8276C125.739 26.6809 126.149 26.5971 126.565 26.5795C126.96 26.53 127.36 26.53 127.755 26.5795C128.102 26.5493 128.451 26.5493 128.797 26.5795L129.764 26.8523C129.898 26.9059 130.01 27.0028 130.083 27.1275C130.155 27.2522 130.183 27.3976 130.163 27.5404C130.143 27.6832 130.076 27.8151 129.972 27.9152C129.869 28.0152 129.734 28.0777 129.591 28.0924H128.599C128.311 28.055 128.019 28.055 127.731 28.0924C127.409 28.0678 127.085 28.0678 126.763 28.0924C126.446 28.1339 126.132 28.1918 125.821 28.2661C125.523 28.2661 125.275 28.4645 125.027 28.4893C124.852 28.5669 124.669 28.6251 124.482 28.6629H124.283C124.125 28.7313 123.946 28.736 123.784 28.6759C123.623 28.6159 123.49 28.4957 123.415 28.3405C123.378 28.2542 123.359 28.1615 123.359 28.0677C123.359 27.9739 123.378 27.8811 123.415 27.7948L123.489 27.9436Z" fill="#403D4F"/>
<path d="M111.436 28.8856H111.263L110.89 28.7368H110.618C110.525 28.6806 110.425 28.6388 110.32 28.6128C110.109 28.5405 109.894 28.4825 109.675 28.4392C109.437 28.4042 109.194 28.4042 108.956 28.4392C108.75 28.4154 108.542 28.4154 108.336 28.4392H107.542C107.375 28.4328 107.218 28.3619 107.102 28.2417C106.986 28.1214 106.922 27.9611 106.922 27.7943C106.92 27.6696 106.957 27.5475 107.029 27.4451C107.1 27.3428 107.201 27.2653 107.319 27.2238L108.088 26.951C108.359 26.8569 108.644 26.8067 108.931 26.8022C109.267 26.7407 109.612 26.7407 109.948 26.8022C110.598 26.8727 111.216 27.1217 111.734 27.5215C111.909 27.6593 112.067 27.8175 112.205 27.9927C112.329 28.1416 112.329 28.1911 112.329 28.1911V28.4392C112.35 28.6066 112.305 28.7757 112.203 28.9102C112.101 29.0447 111.95 29.1339 111.783 29.1585C111.709 29.1412 111.639 29.1078 111.579 29.0607C111.519 29.0135 111.47 28.9537 111.436 28.8856Z" fill="#403D4F"/>
<path d="M116.495 43.3951C116.076 43.3987 115.661 43.3144 115.277 43.1478C114.892 42.9812 114.547 42.7359 114.263 42.4278C114.159 42.32 114.078 42.1914 114.027 42.0503C113.975 41.9093 113.955 41.759 113.965 41.6094C113.965 41.3365 114.387 37.9138 114.536 36.6488C114.554 36.5215 114.622 36.4063 114.723 36.3277C114.825 36.249 114.954 36.2129 115.081 36.2272C115.204 36.2455 115.315 36.3092 115.393 36.4056C115.472 36.502 115.511 36.6242 115.503 36.7481C115.503 36.9465 114.957 41.4358 114.908 41.7086C115.111 41.9334 115.36 42.1117 115.638 42.2315C115.916 42.3514 116.217 42.4099 116.52 42.4031C116.581 42.403 116.641 42.4153 116.697 42.4392C116.753 42.4632 116.803 42.4983 116.845 42.5424C116.887 42.5865 116.919 42.6388 116.94 42.6958C116.961 42.7529 116.97 42.8136 116.966 42.8743C116.978 42.941 116.974 43.0094 116.955 43.0744C116.936 43.1393 116.903 43.1991 116.857 43.2493C116.812 43.2995 116.756 43.3387 116.693 43.364C116.63 43.3892 116.563 43.3999 116.495 43.3951Z" fill="#F18380"/>
<path d="M132.791 1.57829C119.05 -2.71256 109.278 2.66964 106.178 6.73727C104.92 6.32416 103.809 5.55667 102.978 4.52708C102.146 3.49748 101.629 2.24961 101.49 0.933471C100.773 1.32708 100.2 1.93927 99.8544 2.68104C99.509 3.4228 99.4092 4.25541 99.5697 5.05775C99.7302 5.86009 100.142 6.59028 100.747 7.14214C101.351 7.69401 102.115 8.03877 102.929 8.12621C97.9682 9.76318 95.0663 14.7485 95.2151 20.9244C95.4237 23.1822 96.2205 25.346 97.526 27.1999C98.8316 29.0538 100.6 30.533 102.656 31.4902C104.099 27.1604 106.272 23.1089 109.08 19.5106C109.852 22.6845 111.49 25.5819 113.811 27.8807C116.131 30.1795 119.044 31.7896 122.225 32.532C121.917 30.6212 121.427 28.7442 120.762 26.9265C123.543 29.2496 126.845 30.8663 130.385 31.6391C130.632 29.5335 130.574 27.4032 130.212 25.3144C132.692 29.7789 136.859 36.55 143.01 38.435H146.879C148.913 34.2645 149.877 29.6529 149.682 25.0168C149.632 16.4351 146.532 5.86914 132.791 1.57829Z" fill="#302D3B"/>
<path d="M140.802 39.9482C141 36.5751 141.893 32.5075 146.01 33.2267C150.822 33.946 151.293 46.9674 141.05 45.4048L140.802 39.9482Z" fill="#FBBEAA"/>
<path d="M146.407 40.8163C146.321 40.8175 146.236 40.795 146.162 40.7512C146.087 40.7075 146.026 40.6442 145.986 40.5682C145.881 40.3505 145.72 40.1645 145.519 40.0294C145.319 39.8943 145.086 39.8149 144.845 39.7993C144.561 39.8022 144.283 39.8765 144.036 40.0152C143.789 40.1539 143.581 40.3526 143.431 40.593C143.375 40.6823 143.291 40.7503 143.192 40.7863C143.093 40.8222 142.985 40.824 142.885 40.7914C142.785 40.7543 142.7 40.6861 142.642 40.5968C142.584 40.5074 142.556 40.4018 142.563 40.2954C142.6 39.2476 142.925 38.2302 143.503 37.3551C144.08 36.48 144.888 35.781 145.837 35.3349C145.955 35.2956 146.084 35.3048 146.196 35.3606C146.308 35.4164 146.392 35.5142 146.432 35.6325C146.471 35.7509 146.462 35.8801 146.406 35.9917C146.35 36.1033 146.253 36.1881 146.134 36.2278C145.577 36.4987 145.081 36.8804 144.675 37.3494C144.27 37.8185 143.965 38.3651 143.778 38.9561C144.132 38.8087 144.511 38.7328 144.894 38.7328C145.295 38.7708 145.681 38.9058 146.018 39.1261C146.355 39.3465 146.633 39.6457 146.829 39.9978C146.859 40.053 146.878 40.1137 146.884 40.1762C146.89 40.2388 146.884 40.3019 146.866 40.362C146.847 40.4221 146.817 40.4779 146.776 40.5261C146.736 40.5743 146.686 40.6139 146.63 40.6426L146.407 40.8163Z" fill="#F18380"/>
<path d="M145.787 48.3806C144.597 39.4269 141.174 24.6941 141.174 24.6941H134.8C134.8 24.6941 134.552 51.5553 134.378 57.4335C134.205 63.3118 132.642 65.0727 132.642 65.0727C132.642 65.0727 140.628 63.535 141.497 55.8958C141.763 57.3717 141.937 58.8627 142.017 60.3602C142.017 60.3602 146.953 57.3344 145.787 48.3806Z" fill="#302D3B"/>
<path d="M118.528 49.6053C120.922 49.5129 123.221 48.6421 125.076 47.125" stroke="#73102A" stroke-width="0.5" stroke-miterlimit="10" stroke-linecap="round"/>
<path d="M171.527 213.611C170.984 206.782 163.658 180.6 155.788 165.685C155.788 165.685 138.623 162.964 127.568 163C116.033 163.038 98.1123 165.685 98.1123 165.685C92.9811 177.297 87.1346 202.665 85.4325 208.138C84.4049 211.358 84.2801 214.797 85.0717 218.083C85.8632 221.369 87.5408 224.375 89.9222 226.775C95.7688 233.407 110.841 241 114.32 241C129.285 238.864 143.953 235.009 158.033 229.512C165.976 226.184 172.045 220.464 171.527 213.611Z" fill="#93929C"/>
<path d="M116.793 67.4453C116.793 67.4453 105.751 69.3689 103.578 69.9435C102.313 70.2475 101.144 70.8642 100.18 71.7372C99.215 72.6102 98.485 73.7114 98.0567 74.9399C96.7077 78.2125 89.6378 99.6469 88.9633 101.97C88.5241 104.53 88.9366 107.162 90.1374 109.465C91.1367 112.188 96.4579 124.904 96.4579 124.904L97.2573 165.949H155.69C155.69 165.949 165.608 89.6292 166.082 84.9326C166.557 80.236 164.234 71.0927 158.588 69.9435C152.942 68.7943 137.478 67.4453 137.478 67.4453H116.793Z" fill="white"/>
<path d="M138.228 67.4453C135.917 75.5821 134.616 83.9725 134.355 92.4271V202.972C134.355 206.369 135.829 206.594 137.603 206.594H169.105C170.729 206.594 173.202 205.545 172.403 203.222C171.603 200.898 164.558 179.789 157.688 165.374C157.688 165.374 167.531 86.0568 167.531 82.3095C167.531 78.5622 164.783 70.9677 160.037 69.8185C155.29 68.6694 138.128 66.6958 138.128 66.6958L138.228 67.4453Z" fill="#002776"/>
<path d="M115.969 67.7206C114.57 78.3445 113.736 89.0351 113.47 99.7474V203.472C113.47 205.82 112.871 206.545 110.647 206.545H85.4907C83.817 206.545 83.1924 205.521 83.6171 203.447C84.0418 201.374 95.1837 165.974 95.1837 165.974L94.2094 125.229C94.2094 125.229 88.4886 106.043 88.2637 104.519C87.9913 102.614 88.171 100.671 88.7883 98.848C89.4878 97.0243 97.482 75.6149 98.2315 74.066C98.7363 73.0119 99.4614 72.0784 100.358 71.3285C101.254 70.5786 102.301 70.0298 103.428 69.7191C106.126 69.0696 116.044 67.2209 116.044 67.2209L115.969 67.7206Z" fill="#002776"/>
<path d="M134.355 131.799C134.355 131.799 148.77 100.696 149.794 98.6728C150.818 96.6493 150.219 94.6257 147.77 95.0005C145.322 95.3752 133.88 98.348 133.88 98.348L134.355 131.799Z" fill="#003399"/>
<path d="M133.906 99.4221C133.906 99.4221 146.646 89.7541 147.771 88.9547C148.307 88.5392 148.7 87.9675 148.897 87.3186C149.094 86.6697 149.084 85.9756 148.87 85.3324C148.395 84.2581 141.95 65.3468 141.15 64.0478C140.269 62.9469 139.291 61.927 138.228 61C138.228 61 135.854 71.5673 135.055 76.7386C134.263 84.2735 133.88 91.8458 133.906 99.4221Z" fill="#003399"/>
<path d="M113.446 131.799C113.446 131.799 99.031 100.696 98.0317 98.6728C97.0324 96.6493 97.607 94.6257 100.055 95.0005C102.503 95.3752 113.92 98.348 113.92 98.348L113.446 131.799Z" fill="#003399"/>
<path d="M113.92 99.4224C113.92 99.4224 102.578 89.7544 101.579 88.955C101.099 88.4984 100.781 87.8978 100.673 87.2442C100.564 86.5906 100.672 85.9195 100.98 85.3326C101.604 84.2584 111.647 67.4456 112.621 66.2714C113.653 65.167 114.773 64.1477 115.969 63.2236C115.969 63.2236 116.193 66.0716 116.119 68.5198C116.044 70.968 113.92 99.4224 113.92 99.4224Z" fill="#003399"/>
<g filter="url(#filter0_d_203_192)">
<rect width="40.9288" height="58.3236" rx="1" transform="matrix(-0.993463 -0.114154 -0.114154 0.993463 148.558 108.672)" fill="#EFEFEF"/>
</g>
<path d="M129.341 134.811C126.494 133.609 123.921 131.827 121.783 129.578C120.46 128.189 118.959 126.984 117.321 125.994C116.361 125.394 115.532 124.601 114.886 123.667C114.034 122.217 113.328 120.686 112.78 119.098C112.577 117.73 112.112 116.411 111.41 115.217C110.743 114.605 108.388 114.932 107.166 117.308C106.745 118.366 106.554 119.505 106.606 120.649C106.658 121.793 106.953 122.916 107.469 123.942C108.078 125.172 108.554 126.463 108.891 127.792L108.669 127.925C106.806 126.936 104.816 126.219 102.758 125.795C102.012 125.628 101.235 125.719 100.551 126.051C99.868 126.384 99.3188 126.94 98.9919 127.629C98.6651 128.319 98.5797 129.102 98.7496 129.852C98.9195 130.602 99.3347 131.276 99.9283 131.765C96.7175 132.134 97.082 137.086 99.8385 137.741C99.2482 137.988 98.75 138.414 98.4111 138.959C98.0722 139.504 97.909 140.142 97.9437 140.788C97.9783 141.434 98.209 142.056 98.6047 142.569C99.0003 143.083 99.5418 143.464 100.156 143.661C98.198 145.466 99.6291 148.441 103.184 148.454C106.073 148.748 113.798 149.957 116.485 150.536C119.173 151.114 124.575 149.835 126.31 150.372C128.894 151.318 131.894 151.334 134.182 144.537C136.471 137.74 131.999 135.69 129.341 134.811Z" fill="#FBBEAA"/>
<path d="M127.558 155L180.558 177.5C187.781 180.873 196.313 177.929 199.558 169.5C200.151 167.929 200.191 165.36 200.118 163.682C200.044 162.004 199.63 160.359 198.902 158.845C198.173 157.332 196.824 154.604 195.558 153.5C194.292 152.396 189.781 150.359 188.183 149.843L128.558 133.5L127.558 155Z" fill="#002776"/>
<defs>
<filter id="filter0_d_203_192" x="101.346" y="104.107" width="49.1041" height="62.3995" filterUnits="userSpaceOnUse" color-interpolation-filters="sRGB">
<feFlood flood-opacity="0" result="BackgroundImageFix"/>
<feColorMatrix in="SourceAlpha" type="matrix" values="0 0 0 0 0 0 0 0 0 0 0 0 0 0 0 0 0 0 127 0" result="hardAlpha"/>
<feOffset dx="2"/>
<feComposite in2="hardAlpha" operator="out"/>
<feColorMatrix type="matrix" values="0 0 0 0 0.603922 0 0 0 0 0.6 0 0 0 0 0.631373 0 0 0 1 0"/>
<feBlend mode="normal" in2="BackgroundImageFix" result="effect1_dropShadow_203_192"/>
<feBlend mode="normal" in="SourceGraphic" in2="effect1_dropShadow_203_192" result="shape"/>
</filter>
</defs>
</svg>
