<svg width="253" height="550" viewBox="0 0 253 550" fill="none" xmlns="http://www.w3.org/2000/svg">
<g clip-path="url(#clip0_21_288)">
<path d="M141.993 64.5675H111.726V99.5H141.993V64.5675Z" fill="#FBBEAA"/>
<path d="M111.801 64.5675H141.968V84.0567C140.65 84.2173 139.324 84.2997 137.996 84.3034C127.588 84.3034 115.949 81.5157 111.701 71.7711L111.801 64.5675Z" fill="#F18380"/>
<path d="M157.63 38.64C157.378 48.7299 157.63 56.6983 155.769 64.3953C153.909 72.0923 148.228 78.3831 135.659 78.3831C123.089 78.3831 108.76 74.3619 107.755 58.9433C105.693 56.7477 102.35 48.9273 102.224 40.1695C102.098 31.4117 102.802 12.8847 123.14 10.0476C143.477 7.21062 158.183 14.5376 157.63 38.64Z" fill="#FBBEAA"/>
<path d="M146.996 46.5831C146.996 47.9399 147.826 49.0501 148.857 49.0501C149.887 49.0501 150.717 47.9399 150.717 46.5831C150.717 45.2262 149.887 44.1161 148.857 44.1161C147.826 44.1161 146.996 45.1276 146.996 46.5831Z" fill="#403D4F"/>
<path d="M124.371 46.5831C124.371 47.9399 125.2 49.0501 126.231 49.0501C127.262 49.0501 128.091 47.9399 128.091 46.5831C128.091 45.2262 127.262 44.1161 126.231 44.1161C125.2 44.1161 124.371 45.1276 124.371 46.5831Z" fill="#403D4F"/>
<path d="M128.921 41.4519C128.745 41.6739 127.413 41.4519 126.407 41.4519C125.402 41.4519 123.466 41.4519 123.466 41.2299C123.466 41.0078 124.422 39.4783 126.935 39.7497C128.745 39.947 129.399 41.0572 128.921 41.4519Z" fill="#403D4F"/>
<path d="M146.569 41.452C146.72 41.674 147.851 41.452 148.731 41.452C149.611 41.452 151.245 41.452 151.245 41.2299C151.019 40.6708 150.593 40.2118 150.047 39.9392C149.501 39.6666 148.872 39.5993 148.279 39.7498C146.72 39.9471 146.293 41.0573 146.569 41.452Z" fill="#403D4F"/>
<path d="M139.153 56.7968C140.912 56.7968 142.32 55.662 142.37 54.8478L141.792 47.891C141.773 47.7186 141.686 47.5603 141.55 47.4497C141.414 47.3391 141.239 47.285 141.063 47.2989C140.977 47.3051 140.893 47.328 140.816 47.3661C140.74 47.4042 140.671 47.4569 140.615 47.5211C140.559 47.5853 140.516 47.6598 140.49 47.7402C140.463 47.8206 140.453 47.9054 140.46 47.9896L141.013 54.6998C140.759 54.9702 140.446 55.1814 140.098 55.318C139.75 55.4546 139.376 55.5131 139.002 55.4893C138.914 55.4826 138.825 55.4934 138.742 55.521C138.658 55.5487 138.581 55.5927 138.516 55.6503C138.45 55.7079 138.397 55.778 138.359 55.8563C138.322 55.9346 138.301 56.0196 138.298 56.106C138.297 56.281 138.365 56.4496 138.486 56.5778C138.607 56.706 138.774 56.7843 138.951 56.7968H139.153Z" fill="#F18380"/>
<path d="M111.907 52.3067C109.15 51.9811 107.379 49.8397 106.879 47.3727C106.379 44.9057 104.811 46.1392 101.852 46.1392C98.8919 46.1392 97.3789 40.4282 96.4481 36.0838C95.2375 30.4333 97.0401 23.8185 98.8159 21.4823C94.0804 17.3939 96.4481 3.37654 97.632 8.04898C98.5791 11.7869 101.973 13.5002 103.551 13.8895C108.287 -3.39857 126.834 -0.322504 135.516 3.37654C142.619 0.573055 148.736 4.54466 150.907 6.8809C161.561 3.37655 166.297 8.04901 168.665 10.3852C171.032 12.7215 173.992 26.1548 163.929 31.9954C155.879 36.6679 144.001 32.7741 139.068 30.2432C133.385 34.9157 125.65 33.3582 122.493 31.9954C122.02 34.7989 116.591 38.8094 114.421 41.3403C112.25 43.8712 113.164 52.4551 111.907 52.3067Z" fill="#F3E8AE"/>
<path d="M108.308 51.2705C108.182 48.4581 107.73 44.3136 103.657 44.2149C99.5849 44.1162 99.057 47.1259 99.1826 51.8625C99.3083 56.5991 104.21 60.6203 108.509 58.9921L108.308 51.2705Z" fill="#FBBEAA"/>
<path d="M102.325 54.6751C102.501 54.645 102.658 54.5477 102.762 54.4045C102.865 54.2612 102.907 54.0837 102.878 53.9104C102.878 53.7711 102.918 53.6348 102.994 53.517C103.069 53.3991 103.177 53.3046 103.305 53.2443C103.562 53.0757 103.864 52.9856 104.172 52.9856C104.481 52.9856 104.783 53.0757 105.04 53.2443C105.151 53.3048 105.277 53.3365 105.404 53.3365C105.532 53.3365 105.657 53.3048 105.769 53.2443C105.871 53.1779 105.953 53.0854 106.006 52.9768C106.06 52.8682 106.082 52.7475 106.07 52.6275C105.718 48.6557 103.129 47.9156 103.029 47.8909C102.943 47.8649 102.852 47.8566 102.763 47.8664C102.674 47.8762 102.588 47.904 102.51 47.948C102.432 47.992 102.364 48.0512 102.311 48.1221C102.257 48.1929 102.219 48.2738 102.199 48.3597C102.153 48.5232 102.174 48.6982 102.259 48.8462C102.344 48.9941 102.485 49.1031 102.652 49.1491C103.154 49.3722 103.591 49.7146 103.925 50.1453C104.259 50.576 104.477 51.0815 104.562 51.6161C103.873 51.5059 103.167 51.6463 102.576 52.0108C102.232 52.2089 101.954 52.5009 101.775 52.8512C101.597 53.2015 101.525 53.5952 101.571 53.9844C101.566 54.0805 101.583 54.1764 101.62 54.2654C101.658 54.3545 101.714 54.4345 101.786 54.5002C101.857 54.5658 101.943 54.6155 102.036 54.6457C102.129 54.6759 102.227 54.6859 102.325 54.6751Z" fill="#F18380"/>
<path d="M137.419 65.6776C134.992 65.5857 132.662 64.7195 130.782 63.2106" stroke="#73102A" stroke-width="0.5" stroke-miterlimit="10" stroke-linecap="round"/>
</g>
<g opacity="0.3" filter="url(#filter0_f_21_288)">
<ellipse cx="106.5" cy="14.5" rx="106.5" ry="14.5" transform="matrix(1 0 0 -1 17.2715 532.436)" fill="#CBCBCB"/>
</g>
<path d="M81.5351 100.618C75.8068 107.983 48.207 185.39 48.207 185.39C78.8944 175.57 63.6424 171.806 80.3325 174.614C80.3325 174.614 106.408 119.275 107.143 115.234C107.91 112.048 107.566 108.696 106.167 105.732C104.769 102.769 102.401 100.372 99.4541 98.9377C91.2402 94.7389 87.2634 93.253 81.5351 100.618Z" fill="#002776"/>
<path d="M227.508 100.052C227.621 97.5679 226.957 95.1107 225.606 93.0232C223.527 90.6122 221.969 87.7968 221.031 84.7544C220.309 81.9302 219.156 79.2341 217.613 76.7612C216.51 75.2452 214.856 74.005 214.856 72.8473C214.856 71.6897 217.061 69.4571 220.204 70.0911C221.549 70.5103 222.786 71.2219 223.825 72.1749C224.864 73.1279 225.679 74.2987 226.212 75.6036C226.513 74.8085 226.69 73.9719 226.736 73.123L227.425 56.2271C227.435 55.7891 227.534 55.3576 227.714 54.9581C227.894 54.5587 228.152 54.1994 228.473 53.9013C228.794 53.6033 229.172 53.3726 229.583 53.2229C229.995 53.0733 230.433 53.0076 230.87 53.0298C231.567 53.0595 232.237 53.3068 232.786 53.737C233.334 54.1671 233.735 54.7584 233.93 55.4278V54.656C234.036 53.8347 234.449 53.0838 235.085 52.5542C235.722 52.0246 236.535 51.7555 237.362 51.8008C238.189 51.8462 238.968 52.2027 239.543 52.7988C240.118 53.3948 240.447 54.1863 240.462 55.0143V57.3572C240.738 56.6349 241.265 56.0358 241.945 55.6692C242.626 55.3025 243.416 55.1928 244.171 55.3598C244.926 55.5268 245.596 55.9595 246.058 56.5791C246.521 57.1987 246.746 57.964 246.691 58.7353V60.2236C246.988 59.7023 247.43 59.2787 247.964 59.0045C248.497 58.7304 249.099 58.6177 249.696 58.6801C250.513 58.7838 251.257 59.2014 251.772 59.8445C252.286 60.4876 252.53 61.3056 252.452 62.1254L251.101 76.3753C250.217 84.4092 248.555 92.3384 246.14 100.052C246.111 101.339 245.812 102.607 245.264 103.773C244.716 104.938 243.93 105.976 242.956 106.82C241.983 107.664 240.843 108.294 239.612 108.671C238.38 109.048 237.083 109.164 235.804 109.009C234.647 109.048 233.495 108.837 232.426 108.392C231.357 107.946 230.397 107.275 229.61 106.426C228.823 105.576 228.228 104.567 227.865 103.467C227.502 102.368 227.381 101.203 227.508 100.052Z" fill="#FBBEAA"/>
<path d="M228.059 78.0019C227.012 78.0019 226.929 77.3404 226.46 76.1277C228.803 76.1277 235.611 76.5686 238.588 82.3017C235.584 78.1673 229.823 78.0019 228.059 78.0019ZM233.406 56.1999C233.406 56.1999 233.241 57.1646 233.075 58.5703C233.075 59.2869 232.91 60.1413 232.855 61.0233C232.8 61.9053 232.717 62.87 232.634 63.7796C232.634 65.709 232.497 67.6108 232.497 69.0441C232.497 70.4773 232.497 71.442 232.497 71.442C232.497 71.4879 232.506 71.5333 232.524 71.5753C232.542 71.6174 232.569 71.6551 232.603 71.6862C232.637 71.7173 232.677 71.7411 232.72 71.756C232.763 71.7709 232.809 71.7766 232.855 71.7727C232.932 71.7688 233.007 71.7398 233.066 71.6901C233.126 71.6404 233.168 71.5728 233.186 71.4972C233.186 71.4972 233.351 70.5324 233.489 69.0992C233.627 67.6659 233.847 65.7641 233.93 63.8623C233.93 62.8976 233.93 61.9329 233.93 61.106C233.93 60.2791 233.93 59.3696 233.93 58.653C233.93 57.1922 233.93 56.255 233.93 56.255C233.93 56.2091 233.921 56.1638 233.902 56.1217C233.884 56.0797 233.857 56.0419 233.823 56.0108C233.79 55.9797 233.75 55.956 233.707 55.9411C233.663 55.9262 233.617 55.9204 233.572 55.9242C233.519 55.9546 233.475 55.9991 233.446 56.0526C233.417 56.1061 233.403 56.1666 233.406 56.2275V56.1999ZM239.801 58.1293C239.801 58.1293 239.635 58.9562 239.442 60.1689C239.442 60.8028 239.249 61.5194 239.167 62.2912C239.084 63.0629 239.001 63.8898 238.919 64.7167C238.919 66.3705 238.726 68.0242 238.698 69.2645C238.671 70.5048 238.698 71.3593 238.698 71.3593C238.702 71.4028 238.714 71.4452 238.734 71.484C238.754 71.5228 238.781 71.5573 238.814 71.5855C238.848 71.6137 238.886 71.635 238.928 71.6482C238.969 71.6615 239.013 71.6663 239.056 71.6625C239.131 71.6574 239.201 71.6273 239.256 71.5773C239.311 71.5273 239.348 71.4602 239.36 71.3869C239.36 71.3869 239.525 70.56 239.718 69.3472C239.911 68.1345 240.076 66.4532 240.214 64.827C240.214 64.0001 240.214 63.1732 240.38 62.4015C240.545 61.6297 240.38 60.8855 240.38 60.2516C240.38 59.0113 240.38 58.1844 240.38 58.1844C240.38 58.1385 240.37 58.0932 240.352 58.0512C240.334 58.0091 240.307 57.9713 240.273 57.9402C240.239 57.9091 240.2 57.8854 240.156 57.8705C240.113 57.8556 240.067 57.8498 240.021 57.8537C239.96 57.8789 239.907 57.9206 239.868 57.9741C239.829 58.0276 239.806 58.0908 239.801 58.1568V58.1293ZM245.975 60.7477C245.975 60.7477 245.809 61.4368 245.589 62.4842C245.589 62.9803 245.368 63.5867 245.286 64.2482C245.203 64.9097 245.093 65.5987 244.983 66.2878C244.79 67.6935 244.707 69.044 244.652 70.1466C244.597 71.2491 244.652 71.9106 244.652 71.9106C244.652 71.9565 244.661 72.0018 244.679 72.0438C244.698 72.0859 244.724 72.1237 244.758 72.1548C244.792 72.1859 244.832 72.2096 244.875 72.2245C244.918 72.2394 244.964 72.2452 245.01 72.2413C245.08 72.2377 245.148 72.2116 245.202 72.167C245.257 72.1224 245.296 72.0615 245.313 71.9933C245.313 71.9933 245.506 71.3042 245.699 70.2844C245.892 69.2646 246.168 67.8313 246.333 66.4532C246.333 65.7365 246.471 65.0475 246.526 64.386C246.581 63.7245 246.526 63.1181 246.526 62.5944C246.526 61.547 246.526 60.8304 246.526 60.8304C246.526 60.7845 246.517 60.7392 246.498 60.6971C246.48 60.6551 246.453 60.6173 246.42 60.5862C246.386 60.5551 246.346 60.5314 246.303 60.5165C246.259 60.5016 246.213 60.4958 246.168 60.4996C246.117 60.528 246.073 60.5676 246.04 60.6153C246.006 60.663 245.984 60.7178 245.975 60.7753V60.7477Z" fill="#F18380"/>
<path d="M160.824 97.9649L220.895 138.48C220.643 140.552 225.511 97.9649 225.511 97.9649L247.745 100.04C247.745 100.04 246.446 143.399 243.174 166.298C241.876 175.386 234.312 178.832 225.343 176.875C220.914 175.909 216.745 174.092 213.036 171.488C197.094 160.299 152.372 128.783 148.715 124.818C142.407 117.978 142.407 112.854 146.032 107.222C149.658 101.59 157.416 97.119 160.824 97.9649Z" fill="#001A4B"/>
<path d="M109.807 328.514C109.727 335.006 112.229 341.264 116.763 345.911C121.296 350.558 127.49 353.213 133.982 353.294C140.474 353.374 146.732 350.872 151.379 346.338C156.026 341.804 158.681 335.61 158.762 329.119C158.762 329.119 161.859 238.764 162.917 220.457C163.974 202.149 159.19 187.468 138.591 185.353C117.236 183.162 105.854 199.858 105.854 215.37C105.854 230.882 109.807 328.514 109.807 328.514Z" fill="#7C7C7C"/>
<path d="M69.6409 326.777C69.2211 329.985 69.4418 333.245 70.29 336.368C71.1383 339.491 72.5973 342.414 74.5827 344.97C76.5681 347.525 79.0404 349.661 81.8566 351.255C84.6729 352.848 87.7772 353.868 90.99 354.254C94.2028 354.64 97.4602 354.386 100.574 353.505C103.688 352.624 106.596 351.134 109.13 349.122C111.665 347.111 113.775 344.616 115.339 341.783C116.903 338.951 117.89 335.836 118.243 332.619C118.243 332.619 130.985 243.121 134.007 225.04C137.029 206.959 133.831 191.825 113.584 187.519C92.582 183.061 79.462 198.448 77.8755 213.859C76.289 229.271 69.6409 326.777 69.6409 326.777Z" fill="#7C7C7C"/>
<path d="M149.998 434.985C149.998 434.985 148.79 486.332 148.487 494.012C148.185 501.693 143.325 503.783 135.493 504.463C127.662 505.143 124.363 498.923 123.255 493.987C122.147 489.052 115.448 438.712 115.448 438.712L149.998 434.985Z" fill="#FBBEAA"/>
<path d="M149.117 470.794L120.233 473.892C117.992 458.001 115.448 438.636 115.448 438.636L149.998 434.909C149.998 434.909 149.545 454.149 149.117 470.794Z" fill="#F18380"/>
<path d="M109.807 328.514C109.847 325.3 110.519 322.125 111.786 319.17C113.053 316.216 114.889 313.54 117.19 311.295C119.491 309.05 122.212 307.28 125.196 306.087C128.181 304.893 131.372 304.3 134.587 304.339C137.801 304.379 140.976 305.051 143.931 306.318C146.885 307.585 149.561 309.421 151.806 311.722C154.051 314.023 155.821 316.744 157.014 319.729C158.207 322.714 158.801 325.904 158.762 329.119L153.725 472.236L114.214 476.492L109.807 328.514Z" fill="#7C7C7C"/>
<path d="M98.2985 436.949C98.2985 436.949 91.6 487.868 90.4919 495.448C89.3839 503.028 84.3223 504.64 76.4402 504.463C68.5582 504.287 65.9644 497.765 65.3852 492.754C64.806 487.742 63.5469 436.949 63.5469 436.949H98.2985Z" fill="#FBBEAA"/>
<path d="M93.4634 472.457H64.403C63.8994 456.441 63.4209 436.949 63.4209 436.949H98.2984C98.2984 436.949 95.7802 455.937 93.4634 472.457Z" fill="#F18380"/>
<path d="M69.6406 326.777C70.4769 320.384 73.8018 314.579 78.8932 310.623C83.9845 306.667 90.431 304.88 96.8324 305.649C103.234 306.419 109.073 309.683 113.082 314.733C117.091 319.783 118.945 326.21 118.243 332.619L96.3344 477.273H56.5967L69.6406 326.777Z" fill="#7C7C7C"/>
<path d="M118.218 332.619L95.6294 476.014" stroke="#565656" stroke-width="0.75" stroke-miterlimit="10" stroke-linecap="round"/>
<path d="M118.243 332.619C118.243 332.619 130.985 243.121 134.007 225.04" stroke="#565656" stroke-width="0.75" stroke-miterlimit="10" stroke-linecap="round"/>
<path d="M79.0847 478.424C81.941 478.22 84.773 479.071 87.043 480.816C89.3131 482.562 90.8631 485.08 91.3989 487.893L104.544 501.366V509.751H62.4141C62.4141 509.751 64.5294 494.642 65.1338 491.242C65.7381 487.843 67.7779 478.424 79.0847 478.424Z" fill="#FBBEAA"/>
<path d="M91.3733 487.792C91.8518 487.138 92.5317 486.634 93.0102 486.936C93.4886 487.238 106.206 497.311 106.81 497.815C107.182 498.164 107.464 498.599 107.631 499.082C107.797 499.564 107.844 500.08 107.767 500.585V511.388H61.4819C61.4819 511.388 63.295 495.423 63.4209 494.541C63.5469 493.66 64.4283 492.501 64.9319 492.527C68.1087 493.5 71.4058 494.025 74.7278 494.088C79.143 494.322 83.5472 493.457 87.5456 491.57C89.0281 490.539 90.3228 489.261 91.3733 487.792Z" fill="black"/>
<path d="M100.162 502.322C97.9211 500.66 89.8627 494.364 86.8408 491.997L87.5459 491.645C87.6411 491.604 87.7268 491.544 87.7978 491.469C91.0211 493.987 98.601 499.93 100.767 501.541C102.597 502.944 103.851 504.969 104.292 507.233L103.31 507.384C102.895 505.376 101.779 503.582 100.162 502.322Z" fill="white"/>
<path d="M62.7409 500.383C66.0029 500.417 69.1594 501.543 71.7058 503.582C74.0074 505.621 75.5664 508.367 76.1379 511.388H74.7781C74.2219 508.77 72.8458 506.397 70.8496 504.614C68.506 502.737 65.5924 501.716 62.5898 501.718L62.7409 500.383Z" fill="white"/>
<path d="M115.246 511.363H61.4822C61.1067 511.363 60.8022 511.668 60.8022 512.043V517.256C60.8022 517.631 61.1067 517.936 61.4822 517.936H115.246C115.622 517.936 115.926 517.631 115.926 517.256V512.043C115.926 511.668 115.622 511.363 115.246 511.363Z" fill="white"/>
<path d="M106.684 497.714C107.163 497.513 109.505 498.192 112.552 501.189C113.82 502.5 114.734 504.114 115.205 505.876C115.677 507.639 115.691 509.493 115.246 511.262H99.9604C100.817 501.592 106.206 497.916 106.684 497.714Z" fill="white"/>
<path d="M100.817 497.865C100.628 498.096 100.538 498.393 100.567 498.69C100.595 498.987 100.739 499.261 100.968 499.452C101.081 499.545 101.21 499.614 101.349 499.657C101.489 499.7 101.635 499.714 101.78 499.7C101.925 499.686 102.066 499.644 102.195 499.575C102.323 499.507 102.437 499.413 102.529 499.301L105.048 496.254C105.236 496.023 105.326 495.726 105.298 495.429C105.27 495.132 105.126 494.859 104.897 494.667C104.786 494.571 104.656 494.499 104.517 494.454C104.377 494.41 104.23 494.394 104.084 494.408C103.938 494.422 103.796 494.466 103.667 494.536C103.539 494.607 103.426 494.703 103.335 494.818L100.817 497.865Z" fill="white"/>
<path d="M97.8205 495.573C97.6318 495.804 97.5418 496.101 97.57 496.398C97.5983 496.695 97.7426 496.968 97.9716 497.16C98.0825 497.256 98.2118 497.328 98.3515 497.373C98.4913 497.417 98.6386 497.433 98.7846 497.419C98.9306 497.405 99.0723 497.361 99.2009 497.291C99.3295 497.22 99.4425 497.124 99.5329 497.009L102.051 493.962C102.234 493.728 102.32 493.433 102.292 493.138C102.264 492.843 102.123 492.57 101.9 492.375C101.789 492.279 101.66 492.207 101.52 492.162C101.38 492.118 101.233 492.102 101.087 492.116C100.941 492.13 100.799 492.174 100.671 492.244C100.542 492.315 100.429 492.411 100.339 492.526L97.8205 495.573Z" fill="white"/>
<path d="M94.9244 493.307C94.7342 493.531 94.6406 493.821 94.6642 494.114C94.6878 494.407 94.8267 494.678 95.0504 494.869C95.2814 495.057 95.5776 495.147 95.8746 495.119C96.1716 495.091 96.4455 494.947 96.6368 494.718L99.1551 491.67C99.2609 491.567 99.345 491.444 99.4024 491.308C99.4599 491.171 99.4895 491.025 99.4895 490.877C99.4895 490.729 99.4599 490.583 99.4024 490.447C99.345 490.311 99.2609 490.187 99.1551 490.084C98.9215 489.901 98.6269 489.815 98.3317 489.843C98.0366 489.871 97.7635 490.012 97.5686 490.235L94.9244 493.307Z" fill="white"/>
<path d="M92.0034 491.016C91.9107 491.128 91.841 491.258 91.7984 491.397C91.7558 491.536 91.7411 491.683 91.7552 491.828C91.7692 491.973 91.8117 492.114 91.8802 492.242C91.9487 492.371 92.0419 492.485 92.1545 492.577C92.3663 492.785 92.6511 492.901 92.9478 492.901C93.2444 492.901 93.5292 492.785 93.741 492.577L96.2592 489.505C96.448 489.274 96.538 488.978 96.5097 488.681C96.4814 488.384 96.3371 488.11 96.1081 487.918C95.9958 487.826 95.8662 487.756 95.7269 487.713C95.5875 487.671 95.4412 487.656 95.2961 487.67C95.1511 487.684 95.0103 487.727 94.8817 487.795C94.7532 487.864 94.6393 487.957 94.5468 488.07L92.0034 491.016Z" fill="white"/>
<path d="M138.263 478.424C141.119 478.22 143.951 479.071 146.221 480.816C148.491 482.562 150.041 485.08 150.577 487.893L163.697 501.366V509.751H121.592C121.592 509.751 123.682 494.642 124.312 491.242C124.941 487.843 126.956 478.424 138.263 478.424Z" fill="#FBBEAA"/>
<path d="M150.552 487.792C151.031 487.138 151.685 486.634 152.189 486.936C152.693 487.238 165.384 497.311 165.964 497.815C166.543 498.319 166.946 498.948 166.946 500.585V511.388H120.661C120.661 511.388 122.474 495.423 122.6 494.541C122.726 493.66 123.607 492.501 124.111 492.527C127.287 493.5 130.585 494.025 133.907 494.088C138.314 494.326 142.711 493.461 146.699 491.57C148.193 490.544 149.497 489.266 150.552 487.792Z" fill="black"/>
<path d="M159.34 502.322C157.099 500.66 149.041 494.364 146.019 491.997L146.699 491.645C146.802 491.604 146.896 491.545 146.976 491.469C150.199 493.987 157.779 499.93 159.945 501.541C161.776 502.944 163.03 504.969 163.47 507.233L162.488 507.384C162.061 505.381 160.947 503.591 159.34 502.322Z" fill="white"/>
<path d="M121.919 500.383C125.181 500.417 128.338 501.543 130.884 503.582C133.186 505.621 134.745 508.367 135.316 511.388H133.956C133.393 508.767 132.008 506.394 130.003 504.614C127.671 502.734 124.764 501.711 121.768 501.718L121.919 500.383Z" fill="white"/>
<path d="M174.425 511.363H120.66C120.285 511.363 119.98 511.668 119.98 512.043V517.256C119.98 517.631 120.285 517.936 120.66 517.936H174.425C174.8 517.936 175.105 517.631 175.105 517.256V512.043C175.105 511.668 174.8 511.363 174.425 511.363Z" fill="white"/>
<path d="M165.863 497.714C166.341 497.513 168.683 498.192 171.73 501.189C172.999 502.5 173.912 504.114 174.384 505.876C174.855 507.639 174.869 509.493 174.425 511.262H159.139C159.995 501.592 165.384 497.916 165.863 497.714Z" fill="white"/>
<path d="M159.894 497.865C159.705 498.096 159.615 498.393 159.644 498.69C159.672 498.987 159.816 499.261 160.045 499.452C160.158 499.545 160.287 499.614 160.427 499.657C160.566 499.7 160.712 499.714 160.857 499.7C161.002 499.686 161.143 499.644 161.272 499.575C161.4 499.507 161.514 499.413 161.607 499.301L164.125 496.254C164.308 496.02 164.394 495.726 164.366 495.43C164.337 495.135 164.197 494.862 163.974 494.667C163.863 494.571 163.734 494.499 163.594 494.454C163.454 494.41 163.307 494.394 163.161 494.408C163.015 494.422 162.873 494.466 162.745 494.536C162.616 494.607 162.503 494.703 162.412 494.818L159.894 497.865Z" fill="white"/>
<path d="M156.999 495.574C156.81 495.805 156.72 496.101 156.748 496.398C156.777 496.695 156.921 496.969 157.15 497.16C157.261 497.256 157.39 497.329 157.53 497.373C157.67 497.418 157.817 497.433 157.963 497.419C158.109 497.405 158.25 497.361 158.379 497.291C158.508 497.22 158.621 497.124 158.711 497.009L161.229 493.962C161.412 493.728 161.498 493.434 161.47 493.139C161.442 492.843 161.302 492.57 161.078 492.375C160.847 492.187 160.551 492.097 160.254 492.125C159.957 492.153 159.683 492.298 159.492 492.527L156.999 495.574Z" fill="white"/>
<path d="M154.102 493.307C153.997 493.408 153.913 493.529 153.856 493.664C153.799 493.798 153.77 493.942 153.77 494.088C153.77 494.234 153.799 494.378 153.856 494.512C153.913 494.646 153.997 494.767 154.102 494.868C154.333 495.057 154.629 495.147 154.926 495.119C155.223 495.091 155.497 494.946 155.688 494.717L158.207 491.67C158.395 491.439 158.485 491.143 158.457 490.846C158.429 490.549 158.285 490.275 158.056 490.084C157.943 489.991 157.814 489.921 157.674 489.879C157.535 489.836 157.389 489.821 157.244 489.835C157.099 489.85 156.958 489.892 156.829 489.961C156.701 490.029 156.587 490.122 156.494 490.235L154.102 493.307Z" fill="white"/>
<path d="M151.182 491.016C151.089 491.128 151.02 491.258 150.977 491.397C150.935 491.536 150.92 491.683 150.934 491.828C150.948 491.973 150.99 492.114 151.059 492.242C151.128 492.371 151.221 492.485 151.333 492.577C151.545 492.785 151.83 492.901 152.127 492.901C152.423 492.901 152.708 492.785 152.92 492.577L155.438 489.505C155.627 489.274 155.717 488.978 155.688 488.681C155.66 488.384 155.516 488.11 155.287 487.918C155.175 487.826 155.045 487.756 154.906 487.713C154.766 487.671 154.62 487.656 154.475 487.67C154.33 487.684 154.189 487.727 154.06 487.795C153.932 487.864 153.818 487.957 153.726 488.07L151.182 491.016Z" fill="white"/>
<path d="M162.176 200.872C162.176 200.872 162.176 226.986 162.176 228.421C162.176 229.857 149.585 242.171 132.864 242.171C107.153 242.171 76.3798 232.778 76.8331 226.658C77.1353 222.629 79.5078 200.872 79.5078 200.872H162.176Z" fill="#7C7C7C"/>
<path d="M143.476 90.7244C129.374 102.812 115.356 95.7609 110.739 89.4653L90.5933 98.2791L95.6297 191.454L162.363 193.972L159.845 104.575L143.476 90.7244Z" fill="white"/>
<path d="M162.258 98.7575C159.563 96.9948 142.112 86.9219 142.112 86.9219V219.733C144.046 221.618 144.442 221.574 147.22 221.259L147.35 221.244C153.356 219.737 159.15 217.487 164.6 214.546C164.6 214.546 166.916 117.946 167.496 110.593C168.075 103.24 164.952 100.52 162.258 98.7575Z" fill="#002776"/>
<path d="M115.182 221.212C116.406 220.953 117.565 220.45 118.592 219.733L111.742 85.562C111.742 85.562 91.9738 93.5952 86.7107 95.9371C84.5229 96.8599 82.6471 98.3931 81.3074 100.354C79.9677 102.314 79.2208 104.619 79.156 106.992C78.8286 111.424 78.3754 209.66 78.2998 210.517C78.2243 211.373 78.9545 211.851 79.7352 212.305C80.5159 212.758 105.195 219.96 111.465 221.244C112.693 221.483 113.957 221.472 115.182 221.212Z" fill="#002776"/>
<g filter="url(#filter1_d_21_288)">
<rect x="105.243" y="132.155" width="45.5256" height="64.8739" rx="1" transform="rotate(-6.55484 105.243 132.155)" fill="#EFEFEF"/>
</g>
<path d="M124.417 158.444C127.643 157.081 130.56 155.061 132.983 152.512C134.482 150.939 136.183 149.573 138.039 148.451C139.128 147.77 140.067 146.872 140.799 145.813C141.765 144.17 142.565 142.435 143.186 140.634C143.416 139.084 143.943 137.59 144.739 136.236C145.495 135.543 148.164 135.913 149.549 138.606C150.027 139.805 150.243 141.097 150.184 142.393C150.124 143.69 149.791 144.962 149.205 146.125C148.516 147.519 147.976 148.982 147.594 150.489L147.846 150.639C149.957 149.519 152.213 148.706 154.545 148.226C155.391 148.036 156.272 148.139 157.046 148.516C157.82 148.893 158.443 149.523 158.813 150.304C159.184 151.086 159.281 151.973 159.088 152.823C158.895 153.673 158.425 154.437 157.752 154.991C161.391 155.409 160.978 161.022 157.854 161.764C158.523 162.045 159.088 162.527 159.472 163.144C159.856 163.762 160.041 164.486 160.001 165.218C159.962 165.95 159.701 166.654 159.252 167.237C158.804 167.819 158.19 168.251 157.494 168.474C159.713 170.52 158.091 173.892 154.062 173.907C150.788 174.24 142.033 175.61 138.987 176.266C135.941 176.922 129.818 175.471 127.851 176.08C124.924 177.153 121.523 177.17 118.93 169.466C116.336 161.763 121.404 159.439 124.417 158.444Z" fill="#FBBEAA"/>
<path d="M130.18 179.111L71.2089 202.853C63.6728 206.643 51.4289 204.699 47.7379 195.885C47.062 194.241 46.7271 192.477 46.7533 190.701C46.7795 188.924 47.1664 187.171 47.8904 185.548C48.6145 183.925 49.6607 182.466 50.9655 181.26C52.2703 180.054 53.8066 179.125 55.4811 178.53L125.176 153.323L130.18 179.111Z" fill="#002776"/>
<defs>
<filter id="filter0_f_21_288" x="0.271484" y="486.436" width="247" height="63" filterUnits="userSpaceOnUse" color-interpolation-filters="sRGB">
<feFlood flood-opacity="0" result="BackgroundImageFix"/>
<feBlend mode="normal" in="SourceGraphic" in2="BackgroundImageFix" result="shape"/>
<feGaussianBlur stdDeviation="8.5" result="effect1_foregroundBlur_21_288"/>
</filter>
<filter id="filter1_d_21_288" x="105.35" y="127.066" width="54.4187" height="69.4316" filterUnits="userSpaceOnUse" color-interpolation-filters="sRGB">
<feFlood flood-opacity="0" result="BackgroundImageFix"/>
<feColorMatrix in="SourceAlpha" type="matrix" values="0 0 0 0 0 0 0 0 0 0 0 0 0 0 0 0 0 0 127 0" result="hardAlpha"/>
<feOffset dx="2"/>
<feComposite in2="hardAlpha" operator="out"/>
<feColorMatrix type="matrix" values="0 0 0 0 0.603922 0 0 0 0 0.6 0 0 0 0 0.631373 0 0 0 1 0"/>
<feBlend mode="normal" in2="BackgroundImageFix" result="effect1_dropShadow_21_288"/>
<feBlend mode="normal" in="SourceGraphic" in2="effect1_dropShadow_21_288" result="shape"/>
</filter>
<clipPath id="clip0_21_288">
<rect width="75" height="99" fill="white" transform="translate(95.9829 0.5)"/>
</clipPath>
</defs>
</svg>
