<svg width="253" height="553" viewBox="0 0 253 553" fill="none" xmlns="http://www.w3.org/2000/svg">
<path d="M142.154 69.0236H111.747V104.784H142.154V69.0236Z" fill="#FBBEAA"/>
<path d="M111.865 69.0236H142.147V88.9746C140.825 89.139 139.493 89.2234 138.16 89.2272C127.713 89.2272 116.029 86.3734 111.764 76.3979L111.865 69.0236Z" fill="#F18380"/>
<path d="M157.864 42.4812C157.637 52.8103 157.864 60.9675 156.021 68.8469C154.177 76.7263 148.444 83.1662 135.817 83.1662C123.19 83.1662 108.795 79.0497 107.785 63.2657C105.714 61.018 102.355 53.0123 102.228 44.047C102.102 35.0816 102.784 16.1155 123.24 13.2112C143.696 10.307 158.445 17.8075 157.864 42.4812Z" fill="#FBBEAA"/>
<path d="M147.204 50.613C147.204 52.002 148.038 53.1384 149.073 53.1384C150.108 53.1384 150.942 52.002 150.942 50.613C150.942 49.224 150.108 48.0875 149.073 48.0875C148.038 48.0875 147.204 49.123 147.204 50.613Z" fill="#403D4F"/>
<path d="M124.477 50.613C124.477 52.002 125.311 53.1384 126.346 53.1384C127.382 53.1384 128.215 52.002 128.215 50.613C128.215 49.224 127.357 48.0875 126.346 48.0875C125.336 48.0875 124.477 49.123 124.477 50.613Z" fill="#403D4F"/>
<path d="M129.147 42.6831C128.945 42.9104 127.632 42.6831 126.622 42.6831C125.611 42.6831 123.667 42.6831 123.667 42.4558C123.667 42.2285 124.627 40.6627 127.152 40.9405C128.869 41.1425 129.374 42.279 129.147 42.6831Z" fill="#403D4F"/>
<path d="M146.825 42.6831C146.977 42.9104 148.113 42.6831 148.997 42.6831C149.881 42.6831 151.522 42.6831 151.522 42.4558C151.522 42.2285 150.714 40.6627 148.568 40.9405C146.825 41.1425 146.497 42.279 146.825 42.6831Z" fill="#403D4F"/>
<path d="M139.251 61.0684C141.019 61.0684 142.433 59.9067 142.484 59.0733L141.903 51.9515C141.884 51.7751 141.796 51.613 141.66 51.4998C141.523 51.3866 141.347 51.3313 141.17 51.3454C141.084 51.3518 141 51.3752 140.923 51.4143C140.845 51.4533 140.777 51.5072 140.72 51.5729C140.664 51.6387 140.621 51.7149 140.594 51.7972C140.568 51.8795 140.557 51.9663 140.564 52.0526L141.12 58.9218C140.865 59.1986 140.551 59.4148 140.201 59.5546C139.852 59.6945 139.475 59.7544 139.099 59.7299C139.011 59.7231 138.922 59.7341 138.839 59.7625C138.755 59.7908 138.677 59.8358 138.611 59.8948C138.545 59.9538 138.492 60.0255 138.454 60.1057C138.417 60.1858 138.396 60.2728 138.392 60.3613C138.389 60.4509 138.403 60.5402 138.434 60.6242C138.466 60.7083 138.513 60.7853 138.574 60.851C138.635 60.9167 138.708 60.9697 138.79 61.007C138.871 61.0443 138.959 61.0652 139.049 61.0684H139.251Z" fill="#F18380"/>
<path d="M137.81 66.1185C139.931 66.2448 143.492 67.4318 143.517 68.3662C143.484 70.1011 142.768 71.753 141.525 72.9634C140.281 74.1737 138.611 74.845 136.875 74.8313C129.097 74.8313 129.122 68.8208 129.451 67.5075C129.779 66.1943 133.87 65.866 137.81 66.1185Z" fill="#73102A"/>
<path d="M129.427 69.6041C131.531 68.8422 133.826 68.7875 135.964 69.4484C138.101 70.1093 139.965 71.4497 141.272 73.2661C140.064 74.3366 138.489 74.8979 136.877 74.8318C131.372 74.8318 129.781 71.8518 129.427 69.6041Z" fill="#D65155"/>
<path d="M129.756 67.0535C130.842 66.1191 134.403 65.8918 137.812 66.1191C139.908 66.2454 143.444 67.4071 143.52 68.3668C138.893 69.0227 134.176 68.5727 129.756 67.0535Z" fill="white"/>
<path d="M120.511 33.3388C120.511 39.5514 117.986 42.2536 116.092 43.4406C114.197 44.6275 112.808 45.8145 112.808 47.9611V55.5375C112.808 56.3962 112.303 57.0528 111.647 56.8255C110.99 56.5982 108.54 55.3607 108.54 54.1232L100.964 48.7693C98.9934 44.1015 98.2626 39.0036 98.8427 33.9701C99.0682 31.1479 99.9001 28.4075 101.282 25.9362C102.663 23.4649 104.562 21.321 106.848 19.6508C106.848 14.2716 111.899 4.70016 122.531 0.911987C122.792 2.85635 122.792 4.82668 122.531 6.77103C127.355 2.402 143.594 1.06352 149.427 3.08388C148.572 4.9974 147.334 6.71611 145.791 8.13478C153.76 9.97507 160.85 14.506 165.868 20.9641C164.27 23.0487 162.247 24.7703 159.933 26.015C162.587 29.6657 164.162 33.9884 164.479 38.4907C159.685 38.0468 154.985 36.8803 150.539 35.0308C150.787 37.2504 150.659 39.4959 150.16 41.6728C145.109 41.3697 135.563 36.2178 132.861 32.0761C133.283 35.4494 133.095 38.8713 132.305 42.1779C127.61 40.4188 123.517 37.3514 120.511 33.3388Z" fill="#403D4F"/>
<path d="M108.312 55.4114C108.312 52.5323 107.731 48.2896 103.666 48.1886C99.5995 48.0876 99.0439 51.1686 99.1702 56.0175C99.2965 60.8663 104.221 64.9828 108.54 63.316L108.312 55.4114Z" fill="#FBBEAA"/>
<path d="M102.327 58.8963C102.501 58.8596 102.655 58.7587 102.758 58.6136C102.861 58.4685 102.905 58.2899 102.883 58.1134C102.883 57.9741 102.921 57.8374 102.992 57.7176C103.063 57.5977 103.165 57.4989 103.287 57.4315C103.549 57.2598 103.857 57.1684 104.171 57.1684C104.484 57.1684 104.792 57.2598 105.054 57.4315C105.162 57.4936 105.284 57.5263 105.408 57.5263C105.532 57.5263 105.654 57.4936 105.762 57.4315C105.871 57.369 105.96 57.2762 106.019 57.1642C106.077 57.0522 106.102 56.9258 106.09 56.8002C105.711 52.7342 103.135 51.9766 103.034 51.9513C102.948 51.9247 102.857 51.9162 102.767 51.9262C102.678 51.9362 102.591 51.9647 102.513 52.0097C102.435 52.0547 102.367 52.1154 102.313 52.1879C102.259 52.2604 102.221 52.3432 102.201 52.4311C102.154 52.5986 102.176 52.7777 102.261 52.9292C102.346 53.0806 102.488 53.1922 102.655 53.2393C103.157 53.4714 103.595 53.8229 103.929 54.2632C104.264 54.7035 104.485 55.219 104.575 55.7647C103.883 55.652 103.173 55.7957 102.58 56.1688C102.229 56.3667 101.946 56.6647 101.766 57.0246C101.586 57.3846 101.517 57.7901 101.569 58.1892C101.56 58.2887 101.574 58.389 101.61 58.4824C101.646 58.5757 101.702 58.6597 101.775 58.7279C101.848 58.7961 101.936 58.8468 102.032 58.8759C102.127 58.9051 102.228 58.9121 102.327 58.8963Z" fill="#F18380"/>
<g opacity="0.3" filter="url(#filter0_f_110_24)">
<ellipse cx="106.5" cy="14.5" rx="106.5" ry="14.5" transform="matrix(1 0 0 -1 17.2715 535.436)" fill="#CBCBCB"/>
</g>
<path d="M81.5351 103.618C75.8068 110.983 48.2071 188.39 48.2071 188.39C78.8945 178.57 63.6424 174.806 80.3325 177.614C80.3325 177.614 106.408 122.275 107.143 118.234C107.91 115.048 107.566 111.696 106.167 108.732C104.769 105.769 102.401 103.372 99.4541 101.938C91.2403 97.7389 87.2634 96.253 81.5351 103.618Z" fill="#002776"/>
<path d="M227.508 103.052C227.621 100.568 226.957 98.1107 225.606 96.0232C223.527 93.6122 221.969 90.7968 221.031 87.7544C220.309 84.9302 219.156 82.2341 217.613 79.7612C216.51 78.2452 214.857 77.005 214.857 75.8473C214.857 74.6897 217.062 72.4571 220.204 73.0911C221.55 73.5103 222.786 74.2219 223.825 75.1749C224.864 76.1279 225.679 77.2987 226.212 78.6036C226.513 77.8085 226.69 76.9719 226.736 76.123L227.425 59.2271C227.436 58.7891 227.534 58.3576 227.714 57.9581C227.894 57.5587 228.152 57.1994 228.473 56.9013C228.794 56.6033 229.172 56.3726 229.583 56.2229C229.995 56.0733 230.433 56.0076 230.87 56.0298C231.567 56.0595 232.237 56.3068 232.786 56.737C233.334 57.1671 233.735 57.7584 233.93 58.4278V57.656C234.036 56.8347 234.449 56.0838 235.085 55.5542C235.722 55.0246 236.536 54.7555 237.362 54.8008C238.189 54.8462 238.969 55.2027 239.543 55.7988C240.118 56.3948 240.447 57.1863 240.462 58.0143V60.3572C240.738 59.6349 241.265 59.0358 241.945 58.6692C242.626 58.3025 243.416 58.1928 244.171 58.3598C244.926 58.5268 245.596 58.9595 246.059 59.5791C246.521 60.1987 246.746 60.964 246.691 61.7353V63.2236C246.988 62.7023 247.43 62.2787 247.964 62.0045C248.497 61.7304 249.099 61.6177 249.696 61.6801C250.513 61.7838 251.257 62.2014 251.772 62.8445C252.286 63.4876 252.53 64.3056 252.452 65.1254L251.101 79.3753C250.217 87.4092 248.555 95.3384 246.14 103.052C246.111 104.339 245.813 105.607 245.264 106.773C244.716 107.938 243.93 108.976 242.956 109.82C241.983 110.664 240.844 111.294 239.612 111.671C238.38 112.048 237.083 112.164 235.804 112.009C234.647 112.048 233.495 111.837 232.426 111.392C231.357 110.946 230.397 110.275 229.61 109.426C228.823 108.576 228.228 107.567 227.865 106.467C227.503 105.368 227.381 104.203 227.508 103.052Z" fill="#FBBEAA"/>
<path d="M228.059 81.0019C227.012 81.0019 226.929 80.3404 226.46 79.1277C228.803 79.1277 235.611 79.5686 238.588 85.3017C235.584 81.1673 229.823 81.0019 228.059 81.0019ZM233.406 59.1999C233.406 59.1999 233.241 60.1646 233.075 61.5703C233.075 62.2869 232.91 63.1413 232.855 64.0233C232.8 64.9053 232.717 65.87 232.634 66.7796C232.634 68.709 232.497 70.6108 232.497 72.0441C232.497 73.4773 232.497 74.442 232.497 74.442C232.497 74.4879 232.506 74.5333 232.524 74.5753C232.543 74.6174 232.569 74.6551 232.603 74.6862C232.637 74.7173 232.677 74.7411 232.72 74.756C232.763 74.7709 232.809 74.7766 232.855 74.7727C232.932 74.7688 233.007 74.7398 233.066 74.6901C233.126 74.6404 233.168 74.5728 233.186 74.4972C233.186 74.4972 233.351 73.5324 233.489 72.0992C233.627 70.6659 233.847 68.7641 233.93 66.8623C233.93 65.8976 233.93 64.9329 233.93 64.106C233.93 63.2791 233.93 62.3696 233.93 61.653C233.93 60.1922 233.93 59.255 233.93 59.255C233.93 59.2091 233.921 59.1638 233.902 59.1217C233.884 59.0797 233.857 59.0419 233.823 59.0108C233.79 58.9797 233.75 58.956 233.707 58.9411C233.663 58.9262 233.617 58.9204 233.572 58.9242C233.519 58.9546 233.475 58.9991 233.446 59.0526C233.417 59.1061 233.403 59.1666 233.406 59.2275V59.1999ZM239.801 61.1293C239.801 61.1293 239.635 61.9562 239.442 63.1689C239.442 63.8028 239.249 64.5194 239.167 65.2912C239.084 66.0629 239.001 66.8898 238.919 67.7167C238.919 69.3705 238.726 71.0242 238.698 72.2645C238.671 73.5048 238.698 74.3593 238.698 74.3593C238.702 74.4028 238.714 74.4452 238.734 74.484C238.754 74.5228 238.781 74.5573 238.814 74.5855C238.848 74.6137 238.886 74.635 238.928 74.6482C238.969 74.6615 239.013 74.6663 239.057 74.6625C239.131 74.6574 239.201 74.6273 239.256 74.5773C239.311 74.5273 239.348 74.4602 239.36 74.3869C239.36 74.3869 239.525 73.56 239.718 72.3472C239.911 71.1345 240.076 69.4532 240.214 67.827C240.214 67.0001 240.214 66.1732 240.38 65.4015C240.545 64.6297 240.38 63.8855 240.38 63.2516C240.38 62.0113 240.38 61.1844 240.38 61.1844C240.38 61.1385 240.37 61.0932 240.352 61.0512C240.334 61.0091 240.307 60.9713 240.273 60.9402C240.239 60.9091 240.2 60.8854 240.156 60.8705C240.113 60.8556 240.067 60.8498 240.021 60.8537C239.96 60.8789 239.907 60.9206 239.868 60.9741C239.829 61.0276 239.806 61.0908 239.801 61.1568V61.1293ZM245.975 63.7477C245.975 63.7477 245.809 64.4368 245.589 65.4842C245.589 65.9803 245.368 66.5867 245.286 67.2482C245.203 67.9097 245.093 68.5987 244.983 69.2878C244.79 70.6935 244.707 72.044 244.652 73.1466C244.597 74.2491 244.652 74.9106 244.652 74.9106C244.652 74.9565 244.661 75.0018 244.679 75.0438C244.698 75.0859 244.724 75.1237 244.758 75.1548C244.792 75.1859 244.832 75.2096 244.875 75.2245C244.918 75.2394 244.964 75.2452 245.01 75.2413C245.08 75.2377 245.148 75.2116 245.202 75.167C245.257 75.1224 245.296 75.0615 245.313 74.9933C245.313 74.9933 245.506 74.3042 245.699 73.2844C245.892 72.2646 246.168 70.8313 246.333 69.4532C246.333 68.7365 246.471 68.0475 246.526 67.386C246.581 66.7245 246.526 66.1181 246.526 65.5944C246.526 64.547 246.526 63.8304 246.526 63.8304C246.526 63.7845 246.517 63.7392 246.498 63.6971C246.48 63.6551 246.453 63.6173 246.42 63.5862C246.386 63.5551 246.346 63.5314 246.303 63.5165C246.259 63.5016 246.213 63.4958 246.168 63.4996C246.117 63.528 246.073 63.5676 246.04 63.6153C246.006 63.663 245.984 63.7178 245.975 63.7753V63.7477Z" fill="#F18380"/>
<path d="M160.824 100.965L220.895 141.48C220.643 143.552 225.511 100.965 225.511 100.965L247.745 103.04C247.745 103.04 246.446 146.399 243.174 169.298C241.876 178.386 234.312 181.832 225.343 179.875C220.914 178.909 216.746 177.092 213.036 174.488C197.094 163.299 152.372 131.783 148.715 127.818C142.407 120.978 142.407 115.854 146.032 110.222C149.658 104.59 157.416 100.119 160.824 100.965Z" fill="#001A4B"/>
<path d="M109.807 331.514C109.727 338.006 112.229 344.264 116.763 348.911C121.297 353.558 127.491 356.213 133.982 356.294C140.474 356.374 146.732 353.872 151.379 349.338C156.026 344.804 158.682 338.61 158.762 332.119C158.762 332.119 161.859 241.764 162.917 223.457C163.974 205.149 159.19 190.468 138.591 188.353C117.236 186.162 105.854 202.858 105.854 218.37C105.854 233.882 109.807 331.514 109.807 331.514Z" fill="#7C7C7C"/>
<path d="M69.641 329.777C69.2213 332.985 69.442 336.245 70.2902 339.368C71.1385 342.491 72.5975 345.414 74.5829 347.97C76.5682 350.525 79.0405 352.661 81.8568 354.255C84.6731 355.848 87.7774 356.868 90.9902 357.254C94.2029 357.64 97.4604 357.386 100.574 356.505C103.688 355.624 106.596 354.134 109.13 352.122C111.665 350.111 113.775 347.616 115.339 344.783C116.903 341.951 117.89 338.836 118.243 335.619C118.243 335.619 130.985 246.121 134.007 228.04C137.029 209.959 133.831 194.825 113.584 190.519C92.5822 186.061 79.4622 201.448 77.8757 216.859C76.2892 232.271 69.641 329.777 69.641 329.777Z" fill="#7C7C7C"/>
<path d="M149.998 437.985C149.998 437.985 148.789 489.332 148.487 497.012C148.185 504.693 143.325 506.783 135.493 507.463C127.661 508.143 124.363 501.923 123.255 496.987C122.147 492.052 115.448 441.712 115.448 441.712L149.998 437.985Z" fill="#FBBEAA"/>
<path d="M149.117 473.794L120.233 476.892C117.991 461.001 115.448 441.636 115.448 441.636L149.998 437.909C149.998 437.909 149.545 457.149 149.117 473.794Z" fill="#F18380"/>
<path d="M109.807 331.514C109.847 328.3 110.519 325.125 111.786 322.17C113.052 319.216 114.889 316.54 117.19 314.295C119.491 312.05 122.211 310.28 125.196 309.087C128.181 307.893 131.372 307.3 134.586 307.339C137.801 307.379 140.976 308.051 143.93 309.318C146.885 310.585 149.561 312.421 151.806 314.722C154.051 317.023 155.82 319.744 157.014 322.729C158.207 325.714 158.801 328.904 158.761 332.119L153.725 475.236L114.214 479.492L109.807 331.514Z" fill="#7C7C7C"/>
<path d="M98.2987 439.949C98.2987 439.949 91.6002 490.868 90.4922 498.448C89.3842 506.028 84.3226 507.64 76.4405 507.463C68.5584 507.287 65.9646 500.765 65.3854 495.754C64.8062 490.742 63.5471 439.949 63.5471 439.949H98.2987Z" fill="#FBBEAA"/>
<path d="M93.4637 475.457H64.4033C63.8996 459.441 63.4211 439.949 63.4211 439.949H98.2987C98.2987 439.949 95.7804 458.937 93.4637 475.457Z" fill="#F18380"/>
<path d="M69.6408 329.777C70.4771 323.384 73.8021 317.579 78.8934 313.623C83.9847 309.667 90.4312 307.88 96.8326 308.649C103.234 309.419 109.073 312.683 113.082 317.733C117.091 322.783 118.945 329.21 118.243 335.619L96.3346 480.273H56.5969L69.6408 329.777Z" fill="#7C7C7C"/>
<path d="M118.218 335.619L95.6295 479.014" stroke="#565656" stroke-width="0.75" stroke-miterlimit="10" stroke-linecap="round"/>
<path d="M118.243 335.619C118.243 335.619 130.985 246.121 134.007 228.04" stroke="#565656" stroke-width="0.75" stroke-miterlimit="10" stroke-linecap="round"/>
<path d="M79.0848 481.424C81.941 481.22 84.773 482.071 87.0431 483.816C89.3131 485.562 90.8632 488.08 91.399 490.893L104.544 504.366V512.751H62.4141C62.4141 512.751 64.5294 497.642 65.1338 494.242C65.7382 490.843 67.7779 481.424 79.0848 481.424Z" fill="#FBBEAA"/>
<path d="M91.3733 490.792C91.8517 490.138 92.5316 489.634 93.0101 489.936C93.4886 490.238 106.206 500.311 106.81 500.815C107.182 501.164 107.464 501.599 107.631 502.082C107.797 502.564 107.844 503.08 107.767 503.585V514.388H61.4819C61.4819 514.388 63.295 498.423 63.4209 497.541C63.5468 496.66 64.4282 495.501 64.9318 495.527C68.1087 496.5 71.4057 497.025 74.7278 497.088C79.1429 497.322 83.5471 496.457 87.5455 494.57C89.0281 493.539 90.3228 492.261 91.3733 490.792Z" fill="black"/>
<path d="M100.162 505.322C97.9211 503.66 89.8628 497.364 86.8409 494.997L87.546 494.645C87.6411 494.604 87.7268 494.544 87.7978 494.469C91.0212 496.987 98.601 502.93 100.767 504.541C102.597 505.944 103.852 507.969 104.292 510.233L103.31 510.384C102.895 508.376 101.779 506.582 100.162 505.322Z" fill="white"/>
<path d="M62.7411 503.383C66.003 503.417 69.1596 504.543 71.706 506.582C74.0076 508.621 75.5665 511.367 76.1381 514.388H74.7783C74.2221 511.77 72.846 509.397 70.8498 507.614C68.5062 505.737 65.5926 504.716 62.59 504.718L62.7411 503.383Z" fill="white"/>
<path d="M115.246 514.363H61.482C61.1065 514.363 60.8021 514.668 60.8021 515.043V520.256C60.8021 520.631 61.1065 520.936 61.482 520.936H115.246C115.622 520.936 115.926 520.631 115.926 520.256V515.043C115.926 514.668 115.622 514.363 115.246 514.363Z" fill="white"/>
<path d="M106.684 500.714C107.162 500.513 109.504 501.192 112.552 504.189C113.82 505.5 114.733 507.114 115.205 508.876C115.676 510.639 115.691 512.493 115.246 514.262H99.9604C100.817 504.592 106.206 500.916 106.684 500.714Z" fill="white"/>
<path d="M100.817 500.865C100.628 501.096 100.538 501.393 100.567 501.69C100.595 501.987 100.739 502.261 100.968 502.452C101.08 502.545 101.21 502.614 101.349 502.657C101.489 502.7 101.635 502.714 101.78 502.7C101.925 502.686 102.066 502.644 102.194 502.575C102.323 502.507 102.437 502.413 102.529 502.301L105.048 499.254C105.236 499.023 105.326 498.726 105.298 498.429C105.27 498.132 105.125 497.859 104.896 497.667C104.786 497.571 104.656 497.499 104.517 497.454C104.377 497.41 104.229 497.394 104.083 497.408C103.937 497.422 103.796 497.466 103.667 497.536C103.539 497.607 103.426 497.703 103.335 497.818L100.817 500.865Z" fill="white"/>
<path d="M97.8205 498.573C97.6318 498.804 97.5418 499.101 97.5701 499.398C97.5984 499.695 97.7427 499.968 97.9716 500.16C98.0825 500.256 98.2118 500.328 98.3516 500.373C98.4913 500.417 98.6387 500.433 98.7847 500.419C98.9307 500.405 99.0723 500.361 99.2009 500.291C99.3295 500.22 99.4425 500.124 99.533 500.009L102.051 496.962C102.234 496.728 102.32 496.433 102.292 496.138C102.264 495.843 102.123 495.57 101.9 495.375C101.789 495.279 101.66 495.207 101.52 495.162C101.38 495.118 101.233 495.102 101.087 495.116C100.941 495.13 100.799 495.174 100.671 495.244C100.542 495.315 100.429 495.411 100.339 495.526L97.8205 498.573Z" fill="white"/>
<path d="M94.9244 496.307C94.7342 496.531 94.6406 496.821 94.6642 497.114C94.6878 497.407 94.8267 497.678 95.0503 497.869C95.2814 498.057 95.5776 498.147 95.8746 498.119C96.1716 498.091 96.4455 497.947 96.6368 497.718L99.155 494.67C99.2609 494.567 99.345 494.444 99.4024 494.308C99.4598 494.171 99.4894 494.025 99.4894 493.877C99.4894 493.729 99.4598 493.583 99.4024 493.447C99.345 493.311 99.2609 493.187 99.155 493.084C98.9215 492.901 98.6268 492.815 98.3317 492.843C98.0366 492.871 97.7634 493.012 97.5686 493.235L94.9244 496.307Z" fill="white"/>
<path d="M92.0036 494.016C91.9108 494.128 91.8412 494.258 91.7986 494.397C91.756 494.536 91.7413 494.683 91.7553 494.828C91.7693 494.973 91.8118 495.114 91.8803 495.242C91.9489 495.371 92.0421 495.485 92.1547 495.577C92.3665 495.785 92.6513 495.901 92.9479 495.901C93.2445 495.901 93.5293 495.785 93.7412 495.577L96.2594 492.505C96.4481 492.274 96.5381 491.978 96.5098 491.681C96.4816 491.384 96.3373 491.11 96.1083 490.918C95.9959 490.826 95.8663 490.756 95.727 490.713C95.5877 490.671 95.4413 490.656 95.2963 490.67C95.1513 490.684 95.0105 490.727 94.8819 490.795C94.7533 490.864 94.6395 490.957 94.547 491.07L92.0036 494.016Z" fill="white"/>
<path d="M138.263 481.424C141.119 481.22 143.951 482.071 146.221 483.816C148.492 485.562 150.042 488.08 150.577 490.893L163.697 504.366V512.751H121.592C121.592 512.751 123.683 497.642 124.312 494.242C124.942 490.843 126.956 481.424 138.263 481.424Z" fill="#FBBEAA"/>
<path d="M150.552 490.792C151.03 490.138 151.685 489.634 152.189 489.936C152.692 490.238 165.384 500.311 165.963 500.815C166.543 501.319 166.946 501.948 166.946 503.585V514.388H120.66C120.66 514.388 122.474 498.423 122.599 497.541C122.725 496.66 123.607 495.501 124.11 495.527C127.287 496.5 130.584 497.025 133.906 497.088C138.314 497.326 142.711 496.461 146.699 494.57C148.193 493.544 149.497 492.266 150.552 490.792Z" fill="black"/>
<path d="M159.341 505.322C157.099 503.66 149.041 497.364 146.019 494.997L146.699 494.645C146.802 494.604 146.896 494.545 146.976 494.469C150.199 496.987 157.779 502.93 159.945 504.541C161.776 505.944 163.03 507.969 163.47 510.233L162.488 510.384C162.061 508.381 160.947 506.591 159.341 505.322Z" fill="white"/>
<path d="M121.919 503.383C125.181 503.417 128.338 504.543 130.884 506.582C133.186 508.621 134.745 511.367 135.316 514.388H133.956C133.393 511.767 132.008 509.394 130.003 507.614C127.671 505.734 124.764 504.711 121.768 504.718L121.919 503.383Z" fill="white"/>
<path d="M174.425 514.363H120.66C120.285 514.363 119.98 514.668 119.98 515.043V520.256C119.98 520.631 120.285 520.936 120.66 520.936H174.425C174.8 520.936 175.105 520.631 175.105 520.256V515.043C175.105 514.668 174.8 514.363 174.425 514.363Z" fill="white"/>
<path d="M165.863 500.714C166.341 500.513 168.683 501.192 171.73 504.189C172.999 505.5 173.912 507.114 174.384 508.876C174.855 510.639 174.869 512.493 174.425 514.262H159.139C159.995 504.592 165.384 500.916 165.863 500.714Z" fill="white"/>
<path d="M159.894 500.865C159.706 501.096 159.616 501.393 159.644 501.69C159.672 501.987 159.816 502.261 160.045 502.452C160.158 502.545 160.287 502.614 160.427 502.657C160.566 502.7 160.712 502.714 160.857 502.7C161.002 502.686 161.143 502.644 161.272 502.575C161.4 502.507 161.514 502.413 161.607 502.301L164.125 499.254C164.308 499.02 164.394 498.726 164.366 498.43C164.338 498.135 164.197 497.862 163.974 497.667C163.863 497.571 163.734 497.499 163.594 497.454C163.454 497.41 163.307 497.394 163.161 497.408C163.015 497.422 162.873 497.466 162.745 497.536C162.616 497.607 162.503 497.703 162.413 497.818L159.894 500.865Z" fill="white"/>
<path d="M156.999 498.574C156.81 498.805 156.72 499.101 156.748 499.398C156.776 499.695 156.921 499.969 157.15 500.16C157.261 500.256 157.39 500.329 157.53 500.373C157.669 500.418 157.817 500.433 157.963 500.419C158.109 500.405 158.25 500.361 158.379 500.291C158.508 500.22 158.621 500.124 158.711 500.009L161.229 496.962C161.412 496.728 161.498 496.434 161.47 496.139C161.442 495.843 161.302 495.57 161.078 495.375C160.847 495.187 160.551 495.097 160.254 495.125C159.957 495.153 159.683 495.298 159.492 495.527L156.999 498.574Z" fill="white"/>
<path d="M154.102 496.307C153.997 496.408 153.914 496.529 153.856 496.664C153.799 496.798 153.77 496.942 153.77 497.088C153.77 497.234 153.799 497.378 153.856 497.512C153.914 497.646 153.997 497.767 154.102 497.868C154.333 498.057 154.63 498.147 154.927 498.119C155.224 498.091 155.497 497.946 155.689 497.717L158.207 494.67C158.396 494.439 158.486 494.143 158.457 493.846C158.429 493.549 158.285 493.275 158.056 493.084C157.943 492.991 157.814 492.921 157.675 492.879C157.535 492.836 157.389 492.821 157.244 492.835C157.099 492.85 156.958 492.892 156.829 492.961C156.701 493.029 156.587 493.122 156.495 493.235L154.102 496.307Z" fill="white"/>
<path d="M151.182 494.016C151.089 494.128 151.019 494.258 150.977 494.397C150.934 494.536 150.92 494.683 150.934 494.828C150.948 494.973 150.99 495.114 151.059 495.242C151.127 495.371 151.22 495.485 151.333 495.577C151.545 495.785 151.83 495.901 152.126 495.901C152.423 495.901 152.708 495.785 152.92 495.577L155.438 492.505C155.626 492.274 155.716 491.978 155.688 491.681C155.66 491.384 155.516 491.11 155.287 490.918C155.174 490.826 155.045 490.756 154.905 490.713C154.766 490.671 154.62 490.656 154.475 490.67C154.33 490.684 154.189 490.727 154.06 490.795C153.932 490.864 153.818 490.957 153.725 491.07L151.182 494.016Z" fill="white"/>
<path d="M162.176 203.872C162.176 203.872 162.176 229.986 162.176 231.421C162.176 232.857 149.585 245.171 132.864 245.171C107.153 245.171 76.38 235.778 76.8333 229.658C77.1354 225.629 78.8828 203.872 78.8828 203.872H162.176Z" fill="#7C7C7C"/>
<path d="M143.476 93.7244C129.374 105.812 115.356 98.7609 110.739 92.4653L90.5931 101.279L95.6296 194.454L162.363 196.972L159.845 107.575L143.476 93.7244Z" fill="white"/>
<path d="M162.258 101.758C159.563 99.9948 142.112 89.9219 142.112 89.9219V222.733C144.047 224.618 144.442 224.574 147.22 224.259L147.35 224.244C153.356 222.737 159.15 220.487 164.6 217.546C164.6 217.546 166.917 120.946 167.496 113.593C168.075 106.24 164.952 103.52 162.258 101.758Z" fill="#002776"/>
<path d="M115.182 224.212C116.406 223.953 117.566 223.45 118.592 222.733L111.742 88.562C111.742 88.562 91.974 96.5952 86.7109 98.9371C84.5231 99.8599 82.6473 101.393 81.3076 103.354C79.9679 105.314 79.2211 107.619 79.1562 109.992C78.8289 114.424 78.3756 212.66 78.3 213.517C78.2245 214.373 78.9548 214.851 79.7354 215.305C80.5161 215.758 105.195 222.96 111.465 224.244C112.694 224.483 113.958 224.472 115.182 224.212Z" fill="#002776"/>
<g filter="url(#filter1_d_110_24)">
<rect x="105.243" y="135.155" width="45.5256" height="64.8739" rx="1" transform="rotate(-6.55484 105.243 135.155)" fill="#EFEFEF"/>
</g>
<path d="M124.417 161.444C127.643 160.081 130.56 158.061 132.983 155.512C134.482 153.939 136.183 152.573 138.039 151.451C139.128 150.77 140.068 149.872 140.799 148.813C141.765 147.17 142.565 145.435 143.186 143.634C143.416 142.084 143.943 140.59 144.739 139.236C145.495 138.543 148.164 138.913 149.549 141.606C150.027 142.805 150.243 144.097 150.184 145.393C150.124 146.69 149.791 147.962 149.205 149.125C148.516 150.519 147.976 151.982 147.594 153.489L147.846 153.639C149.957 152.519 152.213 151.706 154.545 151.226C155.391 151.036 156.272 151.139 157.046 151.516C157.82 151.893 158.443 152.523 158.813 153.304C159.184 154.086 159.281 154.973 159.088 155.823C158.895 156.673 158.425 157.437 157.752 157.991C161.391 158.409 160.978 164.022 157.854 164.764C158.523 165.045 159.088 165.527 159.472 166.144C159.856 166.762 160.041 167.486 160.001 168.218C159.962 168.95 159.701 169.654 159.252 170.237C158.804 170.819 158.19 171.251 157.494 171.474C159.713 173.52 158.091 176.892 154.062 176.907C150.788 177.24 142.033 178.61 138.987 179.266C135.941 179.922 129.818 178.471 127.851 179.08C124.924 180.153 121.523 180.17 118.93 172.466C116.336 164.763 121.404 162.439 124.417 161.444Z" fill="#FBBEAA"/>
<path d="M130.18 182.111L71.209 205.853C63.6729 209.643 51.429 207.699 47.7379 198.885C47.0621 197.241 46.7271 195.477 46.7533 193.701C46.7796 191.924 47.1664 190.171 47.8905 188.548C48.6145 186.925 49.6607 185.466 50.9655 184.26C52.2703 183.054 53.8066 182.125 55.4811 181.53L125.176 156.323L130.18 182.111Z" fill="#002776"/>
<defs>
<filter id="filter0_f_110_24" x="0.271515" y="489.436" width="247" height="63" filterUnits="userSpaceOnUse" color-interpolation-filters="sRGB">
<feFlood flood-opacity="0" result="BackgroundImageFix"/>
<feBlend mode="normal" in="SourceGraphic" in2="BackgroundImageFix" result="shape"/>
<feGaussianBlur stdDeviation="8.5" result="effect1_foregroundBlur_110_24"/>
</filter>
<filter id="filter1_d_110_24" x="105.35" y="130.066" width="54.4186" height="69.4316" filterUnits="userSpaceOnUse" color-interpolation-filters="sRGB">
<feFlood flood-opacity="0" result="BackgroundImageFix"/>
<feColorMatrix in="SourceAlpha" type="matrix" values="0 0 0 0 0 0 0 0 0 0 0 0 0 0 0 0 0 0 127 0" result="hardAlpha"/>
<feOffset dx="2"/>
<feComposite in2="hardAlpha" operator="out"/>
<feColorMatrix type="matrix" values="0 0 0 0 0.603922 0 0 0 0 0.6 0 0 0 0 0.631373 0 0 0 1 0"/>
<feBlend mode="normal" in2="BackgroundImageFix" result="effect1_dropShadow_110_24"/>
<feBlend mode="normal" in="SourceGraphic" in2="effect1_dropShadow_110_24" result="shape"/>
</filter>
</defs>
</svg>
