<svg width="262" height="558" viewBox="0 0 262 558" fill="none" xmlns="http://www.w3.org/2000/svg">
<path d="M150.87 69.4668H120.266V105.46H150.87V69.4668Z" fill="#FBBEAA"/>
<path d="M120.384 69.4668H150.864V89.5476C149.532 89.7131 148.192 89.798 146.85 89.8018C136.335 89.8018 124.575 86.9295 120.282 76.8891L120.384 69.4668Z" fill="#F18380"/>
<path d="M166.683 42.7517C166.454 53.148 166.683 61.3583 164.827 69.289C162.972 77.2196 157.202 83.7014 144.492 83.7014C131.783 83.7014 117.294 79.5582 116.277 63.6714C114.193 61.4091 110.812 53.3514 110.685 44.3277C110.558 35.304 111.244 16.2145 131.834 13.2914C152.423 10.3682 167.267 17.9176 166.683 42.7517Z" fill="#FBBEAA"/>
<path d="M155.953 50.9364C155.953 52.3344 156.792 53.4783 157.834 53.4783C158.876 53.4783 159.715 52.3344 159.715 50.9364C159.715 49.5384 158.876 48.3945 157.834 48.3945C156.792 48.3945 155.953 49.4367 155.953 50.9364Z" fill="#403D4F"/>
<path d="M133.079 50.9364C133.079 52.3344 133.918 53.4783 134.96 53.4783C136.002 53.4783 136.841 52.3344 136.841 50.9364C136.841 49.5384 135.977 48.3945 134.96 48.3945C133.943 48.3945 133.079 49.4367 133.079 50.9364Z" fill="#403D4F"/>
<path d="M137.779 42.955C137.575 43.1838 136.254 42.955 135.237 42.955C134.22 42.955 132.263 42.955 132.263 42.7262C132.263 42.4975 133.229 40.9215 135.771 41.2011C137.499 41.4044 138.007 42.5483 137.779 42.955Z" fill="#403D4F"/>
<path d="M155.572 42.955C155.724 43.1838 156.868 42.955 157.758 42.955C158.648 42.955 160.3 42.955 160.3 42.7262C160.3 42.4975 159.486 40.9215 157.326 41.2011C155.572 41.4044 155.242 42.5483 155.572 42.955Z" fill="#403D4F"/>
<path d="M147.948 61.4599C149.728 61.4599 151.151 60.2907 151.202 59.4518L150.617 52.2838C150.598 52.1061 150.51 51.943 150.373 51.8291C150.235 51.7152 150.058 51.6594 149.88 51.6737C149.793 51.6801 149.709 51.7037 149.631 51.743C149.553 51.7823 149.484 51.8365 149.427 51.9027C149.37 51.9688 149.327 52.0455 149.3 52.1284C149.273 52.2112 149.263 52.2986 149.27 52.3854L149.829 59.2993C149.572 59.5779 149.257 59.7955 148.905 59.9363C148.553 60.077 148.174 60.1373 147.796 60.1127C147.707 60.1058 147.618 60.117 147.533 60.1455C147.449 60.174 147.371 60.2193 147.304 60.2787C147.238 60.338 147.184 60.4102 147.146 60.4909C147.108 60.5716 147.087 60.6591 147.084 60.7482C147.081 60.8384 147.095 60.9283 147.126 61.0129C147.158 61.0974 147.206 61.175 147.267 61.2411C147.328 61.3072 147.402 61.3605 147.484 61.3981C147.566 61.4356 147.655 61.4567 147.745 61.4599H147.948Z" fill="#F18380"/>
<path d="M146.498 66.5429C148.633 66.67 152.217 67.8646 152.242 68.8051C152.209 70.5514 151.488 72.214 150.237 73.4322C148.985 74.6505 147.304 75.3261 145.557 75.3124C137.728 75.3124 137.754 69.2627 138.084 67.9409C138.415 66.6191 142.532 66.2887 146.498 66.5429Z" fill="#73102A"/>
<path d="M138.061 70.0511C140.178 69.2842 142.488 69.2291 144.64 69.8943C146.792 70.5595 148.667 71.9087 149.982 73.7369C148.767 74.8144 147.182 75.3793 145.56 75.3128C140.018 75.3128 138.417 72.3134 138.061 70.0511Z" fill="#D65155"/>
<path d="M138.392 67.484C139.485 66.5435 143.069 66.3147 146.5 66.5435C148.61 66.6706 152.169 67.8398 152.245 68.8058C147.588 69.466 142.84 69.013 138.392 67.484Z" fill="white"/>
<path d="M129.087 33.5498C129.087 39.8029 126.545 42.5227 124.638 43.7174C122.732 44.912 121.334 46.1067 121.334 48.2673V55.893C121.334 56.7572 120.826 57.4181 120.165 57.1893C119.504 56.9605 117.038 55.715 117.038 54.4695L109.412 49.0807C107.429 44.3826 106.693 39.2515 107.277 34.1853C107.504 31.3447 108.342 28.5865 109.732 26.0991C111.123 23.6118 113.034 21.4539 115.335 19.7729C115.335 14.3587 120.419 4.72493 131.12 0.912109C131.382 2.86912 131.382 4.85226 131.12 6.80927C135.975 2.41182 152.319 1.06462 158.191 3.09813C157.33 5.0241 156.084 6.75398 154.531 8.18189C162.551 10.0341 169.688 14.5945 174.739 21.0946C173.13 23.1928 171.094 24.9256 168.765 26.1784C171.437 29.8528 173.022 34.2037 173.341 38.7353C168.515 38.2885 163.784 37.1144 159.31 35.2529C159.559 37.4869 159.431 39.747 158.928 41.938C153.845 41.633 144.236 36.4476 141.516 32.2789C141.942 35.6742 141.753 39.1183 140.957 42.4464C136.232 40.6759 132.112 37.5886 129.087 33.5498Z" fill="#403D4F"/>
<path d="M116.808 55.7661C116.808 52.8684 116.224 48.598 112.131 48.4963C108.039 48.3946 107.48 51.4957 107.607 56.3761C107.734 61.2565 112.691 65.3998 117.037 63.7222L116.808 55.7661Z" fill="#FBBEAA"/>
<path d="M110.784 59.2737C110.959 59.2368 111.114 59.1352 111.218 58.9891C111.322 58.8431 111.366 58.6633 111.343 58.4857C111.344 58.3455 111.382 58.2079 111.454 58.0873C111.525 57.9666 111.627 57.8673 111.75 57.7994C112.015 57.6266 112.324 57.5346 112.64 57.5346C112.956 57.5346 113.265 57.6266 113.529 57.7994C113.638 57.8619 113.76 57.8948 113.885 57.8948C114.01 57.8948 114.133 57.8619 114.241 57.7994C114.352 57.7364 114.441 57.643 114.5 57.5303C114.559 57.4176 114.583 57.2904 114.572 57.1639C114.19 53.0715 111.598 52.3089 111.496 52.2835C111.409 52.2567 111.318 52.2481 111.228 52.2583C111.137 52.2684 111.05 52.297 110.971 52.3423C110.893 52.3876 110.824 52.4487 110.77 52.5217C110.716 52.5946 110.678 52.678 110.657 52.7665C110.61 52.935 110.632 53.1153 110.718 53.2677C110.804 53.4202 110.946 53.5325 111.115 53.5799C111.62 53.8135 112.06 54.1673 112.397 54.6105C112.734 55.0536 112.957 55.5725 113.047 56.1218C112.35 56.0083 111.636 56.1529 111.038 56.5285C110.686 56.7276 110.4 57.0275 110.219 57.3898C110.038 57.7521 109.969 58.1603 110.022 58.562C110.013 58.6622 110.027 58.7631 110.063 58.8571C110.099 58.9511 110.155 59.0356 110.229 59.1042C110.303 59.1729 110.391 59.2238 110.487 59.2532C110.583 59.2826 110.685 59.2896 110.784 59.2737Z" fill="#F18380"/>
<g opacity="0.3" filter="url(#filter0_f_110_23)">
<ellipse cx="106.5" cy="14.5" rx="106.5" ry="14.5" transform="matrix(1 0 0 -1 17.3828 541)" fill="#CBCBCB"/>
</g>
<path d="M89.362 106.523C83.701 113.801 50.9485 202.759 50.9485 202.759C81.2749 193.054 78.4293 166.827 94.923 169.602C94.923 169.602 113.943 124.96 114.669 120.967C115.426 117.818 115.086 114.505 113.705 111.577C112.323 108.648 109.982 106.279 107.07 104.862C98.9529 100.713 95.0229 99.2441 89.362 106.523Z" fill="#002366"/>
<path d="M234.131 100.253C234.256 97.5232 233.525 94.823 232.041 92.529C229.756 89.8795 228.044 86.7857 227.013 83.4423C226.22 80.3387 224.953 77.3759 223.257 74.6584C222.045 72.9925 220.228 71.6296 220.228 70.3574C220.228 69.0853 222.651 66.6319 226.104 67.3285C227.583 67.7892 228.942 68.5712 230.083 69.6185C231.225 70.6658 232.121 71.9524 232.707 73.3863C233.038 72.5126 233.232 71.5932 233.282 70.6603L234.04 52.0931C234.051 51.6118 234.159 51.1376 234.357 50.6987C234.555 50.2597 234.838 49.8648 235.191 49.5373C235.544 49.2098 235.959 48.9563 236.412 48.7918C236.864 48.6273 237.345 48.5552 237.826 48.5796C238.591 48.6123 239.327 48.884 239.931 49.3567C240.534 49.8294 240.973 50.4792 241.188 51.2147V50.3667C241.304 49.4641 241.758 48.639 242.458 48.057C243.157 47.475 244.051 47.1792 244.96 47.229C245.869 47.2789 246.725 47.6707 247.357 48.3257C247.989 48.9807 248.349 49.8505 248.366 50.7604V53.335C248.67 52.5413 249.248 51.8829 249.996 51.48C250.745 51.0771 251.613 50.9565 252.442 51.1401C253.272 51.3236 254.008 51.7991 254.516 52.48C255.025 53.1609 255.272 54.0018 255.212 54.8495V56.485C255.538 55.9121 256.024 55.4466 256.61 55.1453C257.196 54.8441 257.858 54.7202 258.513 54.7888C259.411 54.9028 260.229 55.3617 260.795 56.0684C261.36 56.7751 261.628 57.674 261.542 58.5749L260.058 74.2344C259.086 83.063 257.26 91.7765 254.606 100.253C254.574 101.668 254.246 103.061 253.643 104.342C253.041 105.623 252.177 106.763 251.107 107.691C250.037 108.618 248.786 109.311 247.432 109.725C246.078 110.139 244.653 110.266 243.248 110.097C241.976 110.139 240.71 109.907 239.535 109.418C238.361 108.928 237.305 108.191 236.44 107.257C235.576 106.324 234.922 105.215 234.523 104.006C234.125 102.798 233.991 101.518 234.131 100.253Z" fill="#FBBEAA"/>
<path d="M234.736 76.0218C233.585 76.0218 233.494 75.2949 232.98 73.9622C235.554 73.9622 243.036 74.4468 246.307 80.7469C243.005 76.2036 236.675 76.0218 234.736 76.0218ZM240.612 52.0632C240.612 52.0632 240.431 53.1234 240.249 54.6681C240.249 55.4556 240.067 56.3945 240.007 57.3638C239.946 58.333 239.855 59.3931 239.764 60.3927C239.764 62.5129 239.613 64.6029 239.613 66.1779C239.613 67.7529 239.613 68.813 239.613 68.813C239.613 68.8634 239.623 68.9133 239.643 68.9595C239.663 69.0057 239.693 69.0472 239.73 69.0814C239.767 69.1155 239.811 69.1417 239.858 69.1581C239.906 69.1745 239.956 69.1807 240.007 69.1765C240.092 69.1722 240.173 69.1403 240.239 69.0857C240.304 69.0311 240.351 68.9567 240.37 68.8737C240.37 68.8737 240.552 67.8135 240.703 66.2384C240.855 64.6634 241.097 62.5735 241.188 60.4835C241.188 59.4234 241.188 58.3633 241.188 57.4546C241.188 56.546 241.188 55.5465 241.188 54.759C241.188 53.1537 241.188 52.1237 241.188 52.1237C241.188 52.0734 241.178 52.0235 241.158 51.9773C241.138 51.9311 241.108 51.8896 241.071 51.8554C241.034 51.8212 240.99 51.7952 240.943 51.7788C240.895 51.7624 240.844 51.7561 240.794 51.7603C240.736 51.7937 240.688 51.8426 240.656 51.9014C240.624 51.9601 240.609 52.0266 240.612 52.0935V52.0632ZM247.639 54.1835C247.639 54.1835 247.458 55.0921 247.246 56.4248C247.246 57.1215 247.034 57.909 246.943 58.7571C246.852 59.6051 246.761 60.5138 246.67 61.4225C246.67 63.2398 246.458 65.0572 246.428 66.4202C246.398 67.7832 246.428 68.7222 246.428 68.7222C246.432 68.77 246.445 68.8165 246.467 68.8592C246.489 68.9018 246.519 68.9398 246.555 68.9707C246.592 69.0017 246.634 69.0252 246.68 69.0397C246.726 69.0542 246.774 69.0595 246.822 69.0554C246.903 69.0497 246.98 69.0167 247.041 68.9618C247.101 68.9068 247.141 68.8331 247.155 68.7525C247.155 68.7525 247.337 67.8437 247.549 66.511C247.761 65.1783 247.942 63.3307 248.094 61.5437C248.094 60.635 248.094 59.7263 248.275 58.8782C248.457 58.0301 248.275 57.2123 248.275 56.5157C248.275 55.1527 248.275 54.244 248.275 54.244C248.276 54.1936 248.265 54.1438 248.245 54.0976C248.225 54.0514 248.196 54.0099 248.159 53.9757C248.122 53.9415 248.078 53.9154 248.03 53.8991C247.983 53.8827 247.932 53.8764 247.882 53.8806C247.815 53.9083 247.756 53.9541 247.714 54.0129C247.671 54.0717 247.645 54.1412 247.639 54.2137V54.1835ZM254.424 57.0609C254.424 57.0609 254.242 57.8181 254 58.9691C254 59.5143 253.758 60.1807 253.667 60.9076C253.576 61.6346 253.455 62.3918 253.334 63.149C253.122 64.6937 253.031 66.1779 252.97 67.3894C252.91 68.601 252.97 69.328 252.97 69.328C252.97 69.3784 252.98 69.4282 253.001 69.4744C253.021 69.5206 253.05 69.5621 253.087 69.5963C253.124 69.6305 253.168 69.6566 253.216 69.6729C253.263 69.6893 253.314 69.6956 253.364 69.6914C253.441 69.6874 253.515 69.6588 253.575 69.6097C253.635 69.5607 253.678 69.4938 253.697 69.4188C253.697 69.4188 253.909 68.6616 254.121 67.5409C254.333 66.4202 254.636 64.8452 254.818 63.3307C254.818 62.5432 254.969 61.786 255.03 61.059C255.091 60.3321 255.03 59.6658 255.03 59.0903C255.03 57.9393 255.03 57.1517 255.03 57.1517C255.03 57.1013 255.02 57.0515 255 57.0053C254.98 56.9591 254.95 56.9176 254.913 56.8834C254.876 56.8492 254.832 56.8231 254.785 56.8068C254.737 56.7904 254.686 56.7841 254.636 56.7883C254.58 56.8195 254.532 56.8629 254.495 56.9154C254.459 56.9678 254.434 57.028 254.424 57.0912V57.0609Z" fill="#F18380"/>
<path d="M160.851 97.9595L226.864 142.482C226.586 144.759 231.936 97.9595 231.936 97.9595L256.37 100.24C256.37 100.24 254.942 147.888 251.347 173.052C249.92 183.039 241.607 186.826 231.751 184.675C226.885 183.614 222.304 181.617 218.227 178.755C200.709 166.459 151.562 131.826 147.544 127.469C140.611 119.952 140.611 114.321 144.595 108.132C148.58 101.944 157.106 97.0299 160.851 97.9595Z" fill="#001A4B"/>
<path d="M77.8991 333.992C77.4765 337.224 77.6987 340.507 78.5529 343.651C79.4072 346.796 80.8765 349.74 82.8758 352.314C84.8752 354.887 87.365 357.038 90.2011 358.643C93.0372 360.248 96.1635 361.274 99.3989 361.663C102.634 362.052 105.915 361.796 109.05 360.909C112.186 360.022 115.115 358.522 117.667 356.496C120.219 354.47 122.345 351.957 123.92 349.105C125.495 346.252 126.489 343.115 126.844 339.876C126.844 339.876 139.676 249.747 142.719 231.538C145.762 213.33 142.542 198.088 122.152 193.752C101.002 189.263 87.7895 204.758 86.1919 220.278C84.5942 235.799 77.8991 333.992 77.8991 333.992Z" fill="#93929C"/>
<path d="M118.348 335.742C118.268 342.28 120.787 348.582 125.353 353.261C129.919 357.941 136.156 360.616 142.694 360.696C149.232 360.777 155.533 358.257 160.213 353.692C164.893 349.126 167.567 342.888 167.648 336.351C167.648 336.351 170.767 245.359 171.833 226.923C172.898 208.486 168.079 193.701 147.335 191.571C125.83 189.365 114.367 206.178 114.367 221.8C114.367 237.422 118.348 335.742 118.348 335.742Z" fill="#93929C"/>
<path d="M158.823 442.964C158.823 442.964 157.605 494.673 157.301 502.408C156.997 510.143 152.102 512.247 144.215 512.932C136.328 513.617 133.006 507.353 131.89 502.382C130.774 497.412 124.029 446.717 124.029 446.717L158.823 442.964Z" fill="#FBBEAA"/>
<path d="M157.935 479.026L128.847 482.145C126.59 466.143 124.029 446.641 124.029 446.641L158.823 442.888C158.823 442.888 158.366 462.263 157.935 479.026Z" fill="#F18380"/>
<path d="M118.348 335.743C118.388 332.506 119.065 329.308 120.341 326.333C121.617 323.357 123.466 320.662 125.783 318.402C128.1 316.141 130.84 314.359 133.846 313.157C136.852 311.955 140.065 311.357 143.302 311.397C146.539 311.437 149.737 312.114 152.712 313.39C155.688 314.666 158.383 316.515 160.643 318.832C162.904 321.149 164.686 323.889 165.888 326.895C167.09 329.901 167.688 333.114 167.648 336.351L162.576 480.478L122.786 484.764L118.348 335.743Z" fill="#93929C"/>
<path d="M106.759 444.942C106.759 444.942 100.013 496.22 98.8971 503.853C97.7813 511.487 92.684 513.11 84.7463 512.932C76.8086 512.755 74.1965 506.187 73.6132 501.14C73.0299 496.093 71.762 444.942 71.762 444.942H106.759Z" fill="#FBBEAA"/>
<path d="M101.889 480.7H72.624C72.1168 464.571 71.6349 444.942 71.6349 444.942H106.758C106.758 444.942 104.223 464.064 101.889 480.7Z" fill="#F18380"/>
<path d="M77.8984 333.992C78.7406 327.554 82.089 321.709 87.2162 317.725C92.3434 313.741 98.8354 311.941 105.282 312.716C111.729 313.491 117.609 316.778 121.646 321.864C125.683 326.949 127.551 333.422 126.843 339.876L104.78 485.55H64.7625L77.8984 333.992Z" fill="#93929C"/>
<path d="M126.818 339.876L104.071 484.282" stroke="#676767" stroke-width="0.75" stroke-miterlimit="10" stroke-linecap="round"/>
<path d="M126.844 339.876C126.844 339.876 139.676 249.747 142.719 231.538" stroke="#676767" stroke-width="0.75" stroke-miterlimit="10" stroke-linecap="round"/>
<path d="M87.4091 486.71C90.2854 486.504 93.1374 487.361 95.4235 489.119C97.7096 490.876 99.2706 493.412 99.8101 496.245L113.048 509.813V518.258H70.6208C70.6208 518.258 72.751 503.042 73.3597 499.618C73.9683 496.195 76.0224 486.71 87.4091 486.71Z" fill="#FBBEAA"/>
<path d="M99.7845 496.144C100.266 495.484 100.951 494.977 101.433 495.281C101.915 495.586 114.722 505.73 115.33 506.237C115.705 506.589 115.989 507.027 116.156 507.513C116.324 507.999 116.371 508.518 116.294 509.027V519.906H69.6823C69.6823 519.906 71.5081 503.828 71.6349 502.94C71.7617 502.053 72.6494 500.886 73.1566 500.911C76.3558 501.892 79.6761 502.421 83.0216 502.484C87.4679 502.719 91.9031 501.848 95.9298 499.948C97.4228 498.909 98.7266 497.623 99.7845 496.144Z" fill="#2E70AC"/>
<path d="M108.635 510.776C106.378 509.103 98.2631 502.763 95.2199 500.379L95.93 500.024C96.0258 499.983 96.1121 499.922 96.1836 499.846C99.4297 502.382 107.063 508.367 109.244 509.99C111.088 511.403 112.351 513.442 112.794 515.722L111.805 515.874C111.387 513.852 110.263 512.045 108.635 510.776Z" fill="#1E2173"/>
<path d="M70.9505 508.824C74.2354 508.857 77.4143 509.991 79.9786 512.044C82.2964 514.098 83.8664 516.863 84.442 519.906H83.0725C82.5124 517.269 81.1267 514.88 79.1164 513.084C76.7563 511.194 73.8221 510.165 70.7983 510.168L70.9505 508.824Z" fill="#1E2173"/>
<path d="M123.826 519.881H69.6822C69.3041 519.881 68.9975 520.188 68.9975 520.566V525.815C68.9975 526.193 69.3041 526.5 69.6822 526.5H123.826C124.204 526.5 124.51 526.193 124.51 525.815V520.566C124.51 520.188 124.204 519.881 123.826 519.881Z" fill="white"/>
<path d="M115.203 506.136C115.685 505.933 118.044 506.617 121.112 509.635C122.39 510.956 123.31 512.58 123.784 514.355C124.259 516.13 124.273 517.997 123.826 519.779H108.432C109.295 510.041 114.722 506.338 115.203 506.136Z" fill="white"/>
<path d="M109.295 506.288C109.104 506.521 109.014 506.819 109.042 507.118C109.071 507.417 109.216 507.693 109.447 507.886C109.56 507.979 109.69 508.049 109.831 508.092C109.971 508.135 110.118 508.15 110.264 508.136C110.41 508.122 110.552 508.079 110.682 508.01C110.811 507.941 110.926 507.847 111.019 507.734L113.555 504.665C113.745 504.432 113.836 504.134 113.807 503.835C113.779 503.536 113.633 503.26 113.403 503.067C113.291 502.971 113.161 502.898 113.02 502.853C112.879 502.808 112.731 502.792 112.584 502.806C112.437 502.821 112.294 502.865 112.165 502.936C112.035 503.007 111.922 503.103 111.831 503.22L109.295 506.288Z" fill="white"/>
<path d="M106.277 503.98C106.087 504.213 105.996 504.511 106.025 504.81C106.053 505.109 106.198 505.385 106.429 505.578C106.541 505.675 106.671 505.747 106.812 505.792C106.952 505.837 107.101 505.853 107.248 505.839C107.395 505.825 107.537 505.781 107.667 505.71C107.797 505.639 107.91 505.542 108.001 505.426L110.537 502.357C110.721 502.122 110.808 501.825 110.78 501.528C110.751 501.231 110.61 500.956 110.385 500.759C110.274 500.663 110.143 500.59 110.003 500.545C109.862 500.5 109.713 500.484 109.566 500.498C109.419 500.513 109.277 500.557 109.147 500.628C109.018 500.699 108.904 500.795 108.813 500.912L106.277 503.98Z" fill="white"/>
<path d="M103.36 501.698C103.169 501.923 103.075 502.216 103.098 502.51C103.122 502.805 103.262 503.079 103.487 503.27C103.72 503.46 104.018 503.551 104.317 503.523C104.616 503.494 104.892 503.349 105.085 503.118L107.621 500.05C107.727 499.946 107.812 499.821 107.87 499.684C107.928 499.547 107.958 499.4 107.958 499.251C107.958 499.102 107.928 498.955 107.87 498.817C107.812 498.68 107.727 498.556 107.621 498.452C107.386 498.268 107.089 498.181 106.792 498.21C106.494 498.238 106.219 498.379 106.023 498.604L103.36 501.698Z" fill="white"/>
<path d="M100.419 499.39C100.325 499.503 100.255 499.634 100.212 499.774C100.169 499.914 100.154 500.062 100.169 500.208C100.183 500.354 100.225 500.496 100.294 500.625C100.363 500.755 100.457 500.869 100.571 500.962C100.784 501.172 101.071 501.289 101.37 501.289C101.668 501.289 101.955 501.172 102.168 500.962L104.704 497.869C104.894 497.636 104.985 497.338 104.957 497.038C104.928 496.739 104.783 496.464 104.552 496.271C104.439 496.177 104.309 496.107 104.168 496.064C104.028 496.021 103.881 496.007 103.734 496.021C103.588 496.035 103.447 496.078 103.317 496.147C103.188 496.216 103.073 496.31 102.98 496.423L100.419 499.39Z" fill="white"/>
<path d="M147.005 486.71C149.881 486.504 152.733 487.361 155.019 489.119C157.306 490.876 158.867 493.412 159.406 496.245L172.619 509.813V518.258H130.217C130.217 518.258 132.322 503.042 132.956 499.618C133.59 496.195 135.618 486.71 147.005 486.71Z" fill="#FBBEAA"/>
<path d="M159.38 496.144C159.862 495.484 160.522 494.977 161.029 495.281C161.536 495.586 174.317 505.73 174.901 506.237C175.484 506.744 175.89 507.378 175.89 509.027V519.906H129.278C129.278 519.906 131.104 503.828 131.231 502.94C131.358 502.053 132.245 500.886 132.752 500.911C135.952 501.892 139.272 502.421 142.618 502.484C147.056 502.724 151.484 501.852 155.5 499.948C157.005 498.915 158.318 497.628 159.38 496.144Z" fill="#2E70AC"/>
<path d="M168.231 510.776C165.974 509.103 157.859 502.763 154.816 500.379L155.501 500.024C155.604 499.983 155.699 499.923 155.78 499.846C159.026 502.382 166.659 508.367 168.84 509.99C170.684 511.403 171.947 513.442 172.39 515.722L171.401 515.874C170.971 513.857 169.849 512.054 168.231 510.776Z" fill="#1E2173"/>
<path d="M130.546 508.824C133.831 508.857 137.01 509.991 139.575 512.044C141.892 514.098 143.462 516.863 144.038 519.906H142.668C142.101 517.266 140.707 514.876 138.687 513.084C136.339 511.19 133.411 510.161 130.394 510.168L130.546 508.824Z" fill="#1E2173"/>
<path d="M183.422 519.881H129.278C128.9 519.881 128.593 520.188 128.593 520.566V525.815C128.593 526.193 128.9 526.5 129.278 526.5H183.422C183.8 526.5 184.106 526.193 184.106 525.815V520.566C184.106 520.188 183.8 519.881 183.422 519.881Z" fill="white"/>
<path d="M174.799 506.136C175.281 505.933 177.64 506.617 180.708 509.635C181.986 510.956 182.906 512.58 183.38 514.355C183.855 516.13 183.869 517.997 183.422 519.779H168.028C168.891 510.041 174.318 506.338 174.799 506.136Z" fill="white"/>
<path d="M168.789 506.288C168.599 506.521 168.508 506.819 168.537 507.118C168.565 507.417 168.71 507.693 168.941 507.886C169.054 507.979 169.185 508.049 169.325 508.092C169.465 508.135 169.613 508.15 169.759 508.136C169.905 508.122 170.047 508.079 170.176 508.01C170.306 507.941 170.42 507.847 170.513 507.734L173.049 504.665C173.233 504.43 173.32 504.133 173.292 503.836C173.263 503.539 173.122 503.264 172.897 503.067C172.786 502.971 172.655 502.898 172.515 502.853C172.374 502.808 172.226 502.792 172.078 502.806C171.931 502.821 171.789 502.865 171.659 502.936C171.53 503.007 171.416 503.103 171.325 503.22L168.789 506.288Z" fill="white"/>
<path d="M165.873 503.98C165.683 504.213 165.592 504.511 165.621 504.81C165.649 505.109 165.794 505.385 166.025 505.578C166.137 505.674 166.267 505.747 166.408 505.792C166.548 505.837 166.697 505.853 166.844 505.839C166.991 505.824 167.133 505.78 167.263 505.709C167.393 505.638 167.506 505.542 167.597 505.425L170.133 502.357C170.317 502.122 170.404 501.825 170.376 501.528C170.347 501.23 170.206 500.955 169.981 500.759C169.748 500.569 169.45 500.478 169.151 500.507C168.852 500.535 168.576 500.681 168.383 500.911L165.873 503.98Z" fill="white"/>
<path d="M162.956 501.698C162.851 501.799 162.766 501.922 162.709 502.057C162.651 502.192 162.622 502.337 162.622 502.484C162.622 502.631 162.651 502.776 162.709 502.911C162.766 503.046 162.851 503.168 162.956 503.27C163.189 503.46 163.487 503.551 163.786 503.522C164.086 503.494 164.361 503.348 164.554 503.118L167.09 500.049C167.28 499.817 167.371 499.518 167.342 499.219C167.314 498.92 167.168 498.644 166.938 498.452C166.825 498.358 166.694 498.288 166.554 498.245C166.414 498.202 166.266 498.187 166.12 498.202C165.974 498.216 165.832 498.259 165.703 498.328C165.573 498.397 165.459 498.49 165.366 498.604L162.956 501.698Z" fill="white"/>
<path d="M160.015 499.39C159.921 499.503 159.851 499.634 159.808 499.774C159.765 499.914 159.751 500.062 159.765 500.208C159.779 500.354 159.822 500.496 159.891 500.625C159.96 500.755 160.054 500.869 160.167 500.962C160.38 501.172 160.667 501.289 160.966 501.289C161.264 501.289 161.551 501.172 161.765 500.962L164.301 497.869C164.491 497.636 164.581 497.338 164.553 497.038C164.524 496.739 164.379 496.464 164.148 496.271C164.035 496.177 163.905 496.107 163.765 496.064C163.624 496.021 163.477 496.007 163.331 496.021C163.185 496.035 163.043 496.078 162.913 496.147C162.784 496.216 162.669 496.31 162.576 496.423L160.015 499.39Z" fill="white"/>
<path d="M171.086 207.199C171.086 207.199 171.086 233.498 171.086 234.943C171.086 236.389 158.625 248.79 142.076 248.79C116.63 248.79 86.1747 239.331 86.6233 233.168C86.9224 229.11 87.2962 207.199 87.2962 207.199H171.086Z" fill="#93929C"/>
<path d="M152.894 94.1625C152.894 94.1625 168.455 102.589 171.168 104.365C173.882 106.14 177.026 108.879 176.443 116.284C175.86 123.689 173.527 222.314 173.527 222.314C167.167 222.314 156.155 222.314 156.155 222.314H148.953C148.953 222.314 144.193 222.314 141.142 222.314C135.695 222.314 127.194 222.314 127.194 222.314H123.76H120.017C120.017 222.314 88.85 222.77 88.0638 222.314C86.916 222.314 84.5431 223.18 84.543 222.314C84.619 221.452 87.1509 117.121 87.4805 112.657C87.5458 110.267 88.298 107.946 89.6471 105.972C90.9962 103.998 92.8853 102.454 95.0885 101.524C100.389 99.1658 116.228 93.0513 116.228 93.0513C116.228 93.0513 130.748 111.358 139.977 107.843C145.939 105.572 152.894 94.1625 152.894 94.1625Z" fill="#002366"/>
<path d="M84.7132 216.036L84.4213 224.17C84.4213 224.17 116.842 226.412 136.238 226.346C154.1 226.286 173.507 224.405 173.507 224.405L173.669 217.088C173.669 217.088 152.89 217.993 134.273 217.993C109.213 217.993 84.7132 216.036 84.7132 216.036Z" fill="#00163F"/>
<path d="M163.374 93.7735C165.817 103.293 150.872 111.83 137.675 108.357C151.566 99.3275 150.872 93.7711 150.872 93.7711V84.0472C155.039 83.3527 161.836 87.7819 163.374 93.7735Z" fill="#001A4B"/>
<path d="M120.312 80.5746C116.145 79.88 102.658 81.29 98.0864 88.9091C96.0027 92.3821 100.299 99.2963 100.299 99.2963C100.299 99.2963 100.606 99.2963 104.939 97.6768C108.412 105.317 125.869 111.83 138.671 108.428C120.312 98.6331 120.312 93.7706 120.312 93.7706V80.5746Z" fill="#001A4B"/>
<path d="M118.668 142.272H121.402V145.749H124.319V142.272H127.053V151.77H124.319V148.009H121.402V151.77H118.668V142.272H118.668ZM136.808 142.272V151.77H134.166V144.524H132.436V147.25C132.436 148.475 132.344 149.976 131.616 150.821C130.889 151.761 129.519 152.046 127.972 151.761V149.406C129.427 149.691 129.795 149.122 129.795 147.241V142.255H136.808V142.272ZM139.09 142.272H141.824L143.37 147.914L144.916 142.272H147.65L148.929 151.77H146.379L145.744 146.689L144.281 151.77H142.458L141.004 146.689L140.369 151.77H137.819L139.09 142.272L139.09 142.272ZM149.932 142.272H152.665V146.128L155.307 142.272H158.316L154.856 146.974L158.409 151.77H155.132L152.674 147.914V151.77H149.94V142.272H149.932H149.932ZM138.17 132.11C121.769 132.11 110.919 138.226 110.919 147.25C110.919 156.186 121.761 162.389 138.17 162.389C154.663 162.389 165.421 156.178 165.421 147.25C165.421 138.226 154.671 132.11 138.17 132.11ZM138.17 160.983C122.764 160.983 112.474 155.436 112.474 147.25C112.474 138.977 122.773 133.516 138.17 133.516C153.66 133.516 163.875 138.968 163.875 147.25C163.875 155.436 153.668 160.983 138.17 160.983ZM138.17 134.836C123.684 134.836 114.021 139.822 114.021 147.25C114.021 154.677 123.684 159.663 138.17 159.663C152.657 159.663 162.32 154.677 162.32 147.25C162.329 139.822 152.665 134.836 138.17 134.836ZM138.17 159.387C123.859 159.387 114.297 154.496 114.297 147.258C114.297 140.02 123.868 135.13 138.17 135.13C152.473 135.13 162.044 140.02 162.044 147.258C162.053 154.496 152.481 159.387 138.17 159.387V159.387Z" fill="white"/>
<path d="M105.643 148.559C110.234 143.917 118.818 133.907 121.722 131.469C124.594 129.305 127.732 127.518 131.058 126.153C133.582 125.307 136.191 124.742 138.838 124.467C140.68 124.234 141.432 124.778 141.432 125.893C141.385 126.558 141.174 127.2 140.816 127.762C140.458 128.323 139.966 128.786 139.383 129.109H142.78C143.947 129.109 144.699 130.043 144.155 131.547C143.66 132.541 142.953 133.414 142.084 134.104C141.214 134.794 140.204 135.284 139.124 135.541C139.124 135.541 143.714 135.982 144.881 136.215C146.048 136.448 146.411 136.889 146.411 138.004C146.401 138.775 146.187 139.529 145.79 140.189C145.394 140.85 144.83 141.393 144.155 141.765C142.503 142.435 140.749 142.821 138.968 142.906C138.968 142.906 144.648 144.332 145.789 144.747C146.93 145.162 147.059 145.914 146.463 146.9C146.123 147.594 145.632 148.203 145.026 148.683C144.421 149.163 143.715 149.502 142.962 149.674C140.809 150.245 139.357 149.311 138.579 149.441C136.907 149.98 135.271 150.62 133.678 151.36C131.286 153.742 128.361 155.52 125.146 156.547C122.752 157.551 120.557 158.974 118.662 160.748C117.78 161.576 116.74 162.219 115.605 162.638C114.469 163.058 113.262 163.245 112.053 163.19C110.844 163.134 109.658 162.836 108.566 162.315C107.474 161.793 106.498 161.057 105.695 160.152C101.546 155.743 102.246 152.06 105.643 148.559Z" fill="#FBBEAA"/>
<path d="M120.901 164.345L79.1533 211.291C74.1504 217.958 62.4598 221.623 55.317 215.445C53.9961 214.288 52.9241 212.875 52.1659 211.291C51.4077 209.707 50.9791 207.985 50.9062 206.231C50.8333 204.476 51.1176 202.725 51.7418 201.083C52.366 199.442 53.3172 197.944 54.5375 196.682L105.132 143.723L120.901 164.345Z" fill="#002366"/>
<path d="M138.813 129.135C138.82 129.178 138.819 129.222 138.808 129.264C138.797 129.306 138.778 129.346 138.751 129.38C138.724 129.414 138.69 129.443 138.652 129.463C138.613 129.483 138.571 129.495 138.528 129.498L136.401 129.706H135.364C135.001 129.706 134.664 129.835 134.301 129.861C133.917 129.976 133.544 130.124 133.185 130.302L131.992 130.795C130.385 131.443 128.777 132.04 127.584 132.481C126.391 132.921 125.561 133.181 125.561 133.181C125.495 133.209 125.421 133.211 125.354 133.187C125.287 133.163 125.231 133.114 125.198 133.051C125.149 132.988 125.123 132.91 125.123 132.831C125.123 132.751 125.149 132.674 125.198 132.61L127.143 131.599L129.166 130.639C129.892 130.302 130.696 129.965 131.5 129.654L132.719 129.187C133.111 129.01 133.519 128.871 133.937 128.772L135.182 128.642H136.246H137.827H138.424C138.489 128.591 138.572 128.567 138.655 128.577C138.738 128.587 138.813 128.629 138.865 128.694C138.916 128.76 138.94 128.843 138.93 128.925C138.921 129.008 138.878 129.084 138.813 129.135ZM138.32 135.385H137.853C137.465 135.35 137.075 135.35 136.686 135.385L135.882 135.515C135.586 135.552 135.292 135.604 135.001 135.67L133.237 136.241C132.044 136.63 130.877 137.123 129.996 137.486C129.996 137.486 129.71 137.486 129.736 137.615H129.425L128.958 137.745H128.673H128.517C128.439 137.764 128.371 137.812 128.327 137.88C128.284 137.947 128.268 138.029 128.284 138.108C128.295 138.17 128.327 138.227 128.374 138.269C128.421 138.311 128.48 138.337 128.543 138.342H129.866H130.281C131.188 138.108 132.407 137.745 133.6 137.33L135.338 136.682L136.142 136.474L136.842 136.267C137.2 136.161 137.564 136.074 137.931 136.008L138.372 135.878C138.411 135.866 138.448 135.847 138.479 135.821C138.511 135.795 138.537 135.763 138.557 135.726C138.576 135.69 138.588 135.651 138.592 135.61C138.596 135.569 138.592 135.528 138.58 135.489C138.549 135.451 138.509 135.421 138.463 135.403C138.418 135.385 138.369 135.379 138.32 135.385ZM138.32 142.75H137.361C137.101 142.75 136.764 142.75 136.427 142.932L135.364 143.269C134.695 143.505 134.045 143.791 133.419 144.125C133.131 144.26 132.854 144.416 132.589 144.592C132.536 144.653 132.507 144.731 132.507 144.812C132.507 144.893 132.536 144.971 132.589 145.032C132.663 145.111 132.766 145.158 132.874 145.162L133.834 145.007C134.378 144.877 135.079 144.669 135.779 144.436L136.79 144.021L137.672 143.684C137.965 143.554 138.251 143.407 138.528 143.243C138.601 143.2 138.655 143.13 138.679 143.048C138.703 142.966 138.695 142.878 138.657 142.802C138.581 142.753 138.488 142.734 138.398 142.75H138.32Z" fill="#F18380"/>
<defs>
<filter id="filter0_f_110_23" x="0.382812" y="495" width="247" height="63" filterUnits="userSpaceOnUse" color-interpolation-filters="sRGB">
<feFlood flood-opacity="0" result="BackgroundImageFix"/>
<feBlend mode="normal" in="SourceGraphic" in2="BackgroundImageFix" result="shape"/>
<feGaussianBlur stdDeviation="8.5" result="effect1_foregroundBlur_110_23"/>
</filter>
</defs>
</svg>
