<svg width="248" height="557" viewBox="0 0 248 557" fill="none" xmlns="http://www.w3.org/2000/svg">
<path d="M107.201 21.2059C105.761 26.7165 104.906 32.3638 104.652 38.0538C104.35 42.7897 102.783 47.3579 100.115 51.2823C97.5663 54.5703 94.2273 57.9858 95.4507 68.1811H160.727C160.727 68.1811 163.275 63.0835 160.217 54.3409C156.614 43.548 153.962 32.4608 152.29 21.2059H107.201Z" fill="#BC664A"/>
<path d="M119.5 51V77.7346C119.5 77.7346 121.228 86.961 132.805 86.961C135.103 87.1977 137.389 86.3507 139.192 84.5938C140.995 82.8369 142.179 80.3036 142.5 77.5141V51H119.5Z" fill="#FBBEAA"/>
<path d="M142.426 69.4046C135.238 72.7946 124.763 69.7615 119.69 60.3562V51.2823H142.426V69.4046Z" fill="#F18380"/>
<path d="M156.623 34.7402C156.732 39.9238 156.502 45.109 155.935 50.2626C154.992 57.6033 152.392 65.7596 139.367 65.7596C126.343 65.7596 119.741 59.8973 116.937 50.2626C115.255 44.4258 111.84 35.8362 113.242 25.8702C114.643 15.9042 120.633 9.43015 134.779 9.04782C148.925 8.6655 158.178 15.0376 156.623 34.7402Z" fill="#FBBEAA"/>
<path d="M129.095 39.1753C129.186 39.5507 129.38 39.8931 129.656 40.1637C129.931 40.4343 130.277 40.6222 130.654 40.7061C131.031 40.7899 131.424 40.7664 131.788 40.6381C132.152 40.5099 132.473 40.282 132.714 39.9805C132.956 39.679 133.107 39.3158 133.153 38.9323C133.198 38.5488 133.134 38.1603 132.97 37.811C132.805 37.4616 132.546 37.1654 132.222 36.956C131.897 36.7467 131.521 36.6325 131.134 36.6265C130.831 36.6548 130.537 36.7439 130.268 36.8885C130 37.033 129.764 37.2302 129.574 37.468C129.383 37.7059 129.243 37.9797 129.161 38.273C129.079 38.5663 129.056 38.8732 129.095 39.1753Z" fill="#403D4F"/>
<path d="M147.982 39.1753C148.073 39.5507 148.267 39.8931 148.542 40.1637C148.818 40.4343 149.164 40.6222 149.541 40.7061C149.918 40.7899 150.311 40.7664 150.675 40.6381C151.039 40.5099 151.36 40.282 151.601 39.9805C151.843 39.679 151.994 39.3158 152.04 38.9323C152.085 38.5488 152.021 38.1603 151.857 37.811C151.692 37.4616 151.433 37.1654 151.109 36.956C150.784 36.7467 150.407 36.6325 150.021 36.6265C149.719 36.6581 149.427 36.7494 149.16 36.8951C148.894 37.0407 148.659 37.2378 148.469 37.4749C148.28 37.712 148.139 37.9844 148.055 38.2763C147.972 38.5682 147.947 38.8737 147.982 39.1753Z" fill="#403D4F"/>
<path d="M135.238 31.9625C135.238 31.9625 135.238 31.9625 135.034 31.7586C134.829 31.5587 134.597 31.3872 134.346 31.2488C134.024 31.0648 133.682 30.9194 133.326 30.8155C132.497 30.5878 131.636 30.5016 130.778 30.5606C130.417 30.5792 130.059 30.6304 129.707 30.7135L128.713 30.9939C128.549 31.0468 128.412 31.1615 128.331 31.3138C128.25 31.4661 128.232 31.6439 128.28 31.8095C128.322 31.9398 128.403 32.0539 128.513 32.1361C128.622 32.2182 128.755 32.2644 128.891 32.2683H130.803C131.134 32.2433 131.466 32.2433 131.797 32.2683C132.125 32.2985 132.449 32.3582 132.766 32.4467C133.097 32.4467 133.326 32.6252 133.581 32.6507C133.763 32.7269 133.95 32.7866 134.142 32.8291H134.371C134.531 32.8982 134.71 32.9023 134.872 32.8403C135.034 32.7784 135.166 32.6554 135.238 32.4977C135.276 32.4091 135.295 32.3137 135.295 32.2174C135.295 32.121 135.276 32.0256 135.238 31.937V31.9625Z" fill="#403D4F"/>
<path d="M147.651 32.9307C147.651 32.9307 147.651 32.9307 147.804 32.9307L148.186 32.7777H148.466C148.567 32.7556 148.672 32.7556 148.772 32.7777C148.998 32.7033 149.227 32.6437 149.46 32.5993C149.698 32.5728 149.937 32.5728 150.174 32.5993H151.627C151.713 32.5994 151.798 32.5821 151.877 32.5485C151.956 32.5149 152.027 32.4656 152.087 32.4038C152.146 32.3419 152.193 32.2686 152.223 32.1883C152.254 32.108 152.268 32.0224 152.264 31.9366C152.259 31.8102 152.218 31.6878 152.146 31.5839C152.074 31.48 151.973 31.399 151.856 31.3504L151.066 31.07C150.784 30.9856 150.493 30.9343 150.2 30.9171C149.853 30.8665 149.501 30.8665 149.155 30.9171C148.489 31.0005 147.857 31.2552 147.319 31.6562L146.835 32.1405C146.708 32.2935 146.708 32.3444 146.708 32.3699V32.5993C146.685 32.7743 146.731 32.9513 146.835 33.0936C146.94 33.2359 147.095 33.3327 147.268 33.364C147.443 33.2692 147.579 33.1157 147.651 32.9307Z" fill="#403D4F"/>
<path d="M142.426 47.8671C142.856 47.8646 143.28 47.7753 143.675 47.6044C144.069 47.4336 144.424 47.1848 144.72 46.873C144.828 46.7575 144.911 46.6208 144.964 46.4717C145.016 46.3226 145.037 46.1641 145.026 46.0064C145.026 45.726 144.593 42.2086 144.44 40.9087C144.41 40.783 144.339 40.6712 144.236 40.5923C144.134 40.5133 144.008 40.472 143.879 40.4754C143.748 40.4944 143.63 40.5636 143.549 40.6682C143.468 40.7728 143.431 40.9047 143.446 41.0362C143.446 41.2146 144.006 45.828 144.057 46.1338C143.849 46.3648 143.593 46.5482 143.307 46.6713C143.021 46.7945 142.712 46.8546 142.401 46.8475C142.27 46.8541 142.147 46.9107 142.056 47.0056C141.966 47.1005 141.916 47.2264 141.916 47.3573C141.922 47.4905 141.978 47.6166 142.072 47.7109C142.167 47.8052 142.293 47.8609 142.426 47.8671Z" fill="#F18380"/>
<path d="M144.771 52.8883C145.714 53.1177 146.071 54.545 145.484 56.2018C144.906 57.3425 143.96 58.2548 142.799 58.7914C141.638 59.3279 140.33 59.4572 139.087 59.1584C138.408 59.1262 137.742 58.9585 137.129 58.6653C136.516 58.3721 135.968 57.9592 135.517 57.451C135.065 56.9428 134.72 56.3495 134.502 55.706C134.283 55.0625 134.196 54.3818 134.244 53.7039C134.244 52.6079 135.009 51.9707 136.436 51.9707C139.235 52.0454 142.023 52.3523 144.771 52.8883Z" fill="#73102A"/>
<path d="M134.244 53.8314V53.602C136.11 53.1709 138.069 53.4554 139.735 54.3993C141.401 55.3432 142.653 56.8778 143.242 58.6997C141.93 59.3423 140.455 59.5733 139.011 59.3624C138.331 59.3207 137.667 59.1435 137.058 58.8412C136.448 58.5389 135.905 58.1175 135.461 57.6021C135.017 57.0866 134.68 56.4874 134.471 55.8398C134.262 55.1922 134.185 54.5093 134.244 53.8314Z" fill="#D65155"/>
<path d="M143.955 54.4177C140.727 54.4677 137.514 53.9766 134.448 52.9648C134.64 52.6176 134.933 52.3367 135.288 52.1592C135.643 51.9818 136.043 51.9161 136.436 51.9708C139.235 52.0455 142.023 52.3524 144.771 52.8884C145.034 52.9792 145.265 53.1465 145.433 53.369C145.601 53.5914 145.699 53.8589 145.714 54.1373C145.15 54.3375 144.554 54.4326 143.955 54.4177Z" fill="white"/>
<path d="M129.784 24.7238C129.784 24.7238 127.235 37.468 116.428 42.4128C116.428 42.4128 105.417 36.0152 106.692 23.8062C108.272 8.76803 129.631 -8.1563 150.889 7.85044C152.953 7.51909 155.196 3.16057 154.533 0C155.402 0.545974 156.086 1.34146 156.495 2.28242C156.905 3.22337 157.021 4.26599 156.828 5.27389C156.635 6.28178 156.143 7.20804 155.415 7.9315C154.687 8.65497 153.758 9.14196 152.749 9.32877C156.219 9.81218 159.368 11.6173 161.538 14.3673C163.709 17.1172 164.733 20.5994 164.397 24.0866C164.289 26.2852 163.373 28.3665 161.826 29.9325C160.279 31.4984 158.209 32.4389 156.012 32.5742H152.265C149.366 31.2458 147.022 28.947 145.638 26.0747C145.998 28.2398 146.75 30.3212 147.855 32.2174C148.059 32.5997 147.6 33.2624 144.465 32.5997C140.866 31.3617 137.858 28.8261 136.029 25.4884C136.714 27.677 137.628 29.7872 138.756 31.7841C138.756 32.1664 137.099 32.7272 134.652 31.6057C133.289 31.013 132.115 30.0582 131.257 28.8449C130.398 27.6316 129.889 26.2063 129.784 24.7238Z" fill="#BC664A"/>
<path d="M146.504 34.7406C145.587 34.7406 145.23 36.4228 145.23 38.0286C145.323 40.2037 145.973 42.3185 147.116 44.1713C147.584 44.7304 148.19 45.1567 148.875 45.4072C149.559 45.6577 150.297 45.7238 151.016 45.5987C151.89 45.7339 152.783 45.6762 153.633 45.4297C154.483 45.1831 155.269 44.7536 155.935 44.1713C157.338 42.4141 158.174 40.2718 158.331 38.0286C158.331 36.4228 157.847 34.7406 156.7 34.7406H146.504Z" stroke="#403D4F" stroke-width="0.75" stroke-miterlimit="10"/>
<path d="M138.806 34.7406C140.03 34.7406 140.514 36.4228 140.514 38.0286C140.347 40.297 139.453 42.451 137.965 44.1713C137.261 44.7495 136.444 45.1749 135.566 45.4206C134.689 45.6663 133.77 45.727 132.868 45.5987C130.577 45.8933 128.254 45.3892 126.292 44.1713C124.502 42.592 123.365 40.4015 123.105 38.0286C123.105 36.4228 123.717 34.7406 125.272 34.7406H138.806Z" stroke="#403D4F" stroke-width="0.75" stroke-miterlimit="10"/>
<path d="M145.434 36.2697C144.701 35.7116 143.806 35.4093 142.885 35.4093C141.964 35.4093 141.069 35.7116 140.336 36.2697" stroke="#403D4F" stroke-width="0.75" stroke-miterlimit="10"/>
<path d="M125.222 34.7406H122.112C121.449 34.7406 120.685 34.8935 120.685 35.7856V37.213C120.685 37.5698 122.953 38.2835 123.234 39.0736" stroke="#403D4F" stroke-width="0.75" stroke-miterlimit="10"/>
<path d="M113.905 38.4622L120.684 35.7859" stroke="#403D4F" stroke-width="0.75" stroke-miterlimit="10"/>
<path d="M117.396 44.2988C117.192 40.8324 116.274 36.7797 112.043 37.3915C107.098 38.1561 106.614 51.5375 117.141 49.9318L117.396 44.2988Z" fill="#FBBEAA"/>
<path d="M111.687 45.1909C111.776 45.1921 111.863 45.169 111.939 45.1241C112.016 45.0791 112.078 45.0141 112.12 44.936C112.232 44.7154 112.399 44.527 112.604 44.3887C112.809 44.2504 113.046 44.1668 113.293 44.1459C113.587 44.1491 113.875 44.2282 114.13 44.3756C114.384 44.5229 114.596 44.7335 114.746 44.987C114.807 45.0742 114.894 45.1389 114.996 45.1711C115.097 45.2034 115.206 45.2014 115.306 45.1654C115.414 45.1355 115.508 45.0672 115.569 44.9733C115.63 44.8794 115.654 44.7664 115.638 44.6556C115.594 43.5836 115.26 42.5435 114.672 41.6459C114.084 40.7483 113.264 40.0268 112.299 39.5579C112.234 39.5194 112.161 39.4958 112.086 39.4887C112.011 39.4816 111.935 39.4913 111.864 39.5171C111.793 39.5428 111.729 39.584 111.676 39.6377C111.623 39.6913 111.582 39.7561 111.557 39.8272C111.532 39.8984 111.524 39.9743 111.531 40.0493C111.539 40.1244 111.564 40.1967 111.603 40.2612C111.642 40.3256 111.695 40.3806 111.758 40.4221C111.821 40.4635 111.893 40.4905 111.967 40.501C112.54 40.7794 113.05 41.1716 113.467 41.6537C113.883 42.1357 114.197 42.6975 114.389 43.3047C114.033 43.1293 113.638 43.0502 113.242 43.0753C112.83 43.1143 112.433 43.2531 112.087 43.4796C111.741 43.706 111.455 44.0135 111.254 44.3753C111.198 44.4911 111.188 44.6237 111.226 44.7466C111.263 44.8695 111.346 44.9736 111.458 45.038L111.687 45.1909Z" fill="#F18380"/>
<g opacity="0.3" filter="url(#filter0_f_110_30)">
<ellipse cx="106.5" cy="14.5" rx="106.5" ry="14.5" transform="matrix(1 0 0 -1 17.5 540)" fill="#CBCBCB"/>
</g>
<path d="M223.287 78.3558C223.39 76.1208 222.791 73.9097 221.576 72.0312C219.705 69.8616 218.303 67.3282 217.459 64.5904C216.809 62.049 215.772 59.6229 214.383 57.3976C213.391 56.0335 211.903 54.9174 211.903 53.8757C211.903 52.834 213.887 50.825 216.715 51.3954C217.926 51.7727 219.038 52.413 219.973 53.2706C220.908 54.1282 221.642 55.1817 222.122 56.3559C222.392 55.6405 222.551 54.8876 222.593 54.1237L223.213 38.9197C223.222 38.5256 223.311 38.1373 223.473 37.7778C223.634 37.4184 223.867 37.095 224.156 36.8269C224.445 36.5587 224.785 36.3511 225.155 36.2164C225.526 36.0817 225.919 36.0226 226.313 36.0426C226.94 36.0694 227.543 36.2919 228.037 36.679C228.53 37.066 228.891 37.5981 229.066 38.2004V37.506C229.162 36.7669 229.533 36.0912 230.106 35.6147C230.679 35.1381 231.411 34.8959 232.155 34.9367C232.899 34.9775 233.6 35.2983 234.118 35.8347C234.635 36.3711 234.93 37.0833 234.944 37.8284V39.9366C235.193 39.2867 235.667 38.7476 236.279 38.4177C236.892 38.0877 237.603 37.989 238.282 38.1393C238.961 38.2896 239.564 38.6789 239.98 39.2365C240.397 39.7941 240.599 40.4827 240.55 41.1768V42.5161C240.817 42.0469 241.215 41.6657 241.695 41.4191C242.175 41.1724 242.717 41.0709 243.253 41.1271C243.989 41.2204 244.658 41.5962 245.121 42.1749C245.584 42.7536 245.804 43.4897 245.734 44.2274L244.518 57.0504C243.722 64.2798 242.227 71.415 240.054 78.3558C240.028 79.5147 239.759 80.6553 239.266 81.7042C238.772 82.7531 238.065 83.6872 237.189 84.4464C236.313 85.2056 235.288 85.7731 234.179 86.1124C233.071 86.4517 231.904 86.5554 230.753 86.4167C229.711 86.4514 228.675 86.2618 227.713 85.8606C226.751 85.4595 225.887 84.8561 225.179 84.0916C224.471 83.327 223.935 82.4192 223.609 81.4295C223.283 80.4399 223.173 79.3916 223.287 78.3558Z" fill="#FBBEAA"/>
<path d="M139.703 483.134C139.703 480.746 140.651 478.456 142.34 476.768C144.028 475.079 146.318 474.131 148.706 474.131C151.094 474.131 153.384 475.079 155.072 476.768C156.761 478.456 157.709 480.746 157.709 483.134V502.703H139.703V483.134Z" fill="#FBBEAA"/>
<path d="M157.065 486.78C159.272 486.78 159.669 487.748 160.314 489.012C161.36 492.383 163.148 495.477 165.547 498.065C169.129 501.116 172.971 503.847 177.031 506.225V516.593H136.95C136.95 516.593 137.223 508.408 137.421 502.629C137.619 496.85 138.19 489.806 138.14 489.062C138.091 488.318 138.14 486.78 139.504 486.78H157.065Z" fill="#302D3B"/>
<path d="M141.935 503.199C141.93 504.472 142.303 505.717 143.007 506.777C143.711 507.838 144.714 508.665 145.889 509.154C147.064 509.643 148.357 509.773 149.606 509.526C150.854 509.279 152.001 508.666 152.901 507.766C153.801 506.866 154.413 505.72 154.66 504.471C154.907 503.223 154.778 501.929 154.289 500.754C153.799 499.579 152.972 498.576 151.912 497.872C150.852 497.168 149.606 496.795 148.334 496.8C146.639 496.807 145.015 497.483 143.816 498.682C142.617 499.88 141.941 501.504 141.935 503.199Z" fill="#93929C"/>
<path d="M148.334 499.429L146.87 501.587L144.365 502.306L145.953 504.365L145.878 506.969L148.334 506.076L150.789 506.969L150.69 504.365L152.302 502.306L149.797 501.587L148.334 499.429Z" fill="white"/>
<path d="M176.758 506.052C176.758 506.052 182.437 509.053 184.57 510.516C185.558 511.185 186.36 512.094 186.902 513.156C187.444 514.219 187.709 515.401 187.671 516.593H172.095C172.095 516.593 172.417 508.979 176.758 506.052Z" fill="white"/>
<path d="M136.95 516.593V520.884C136.95 521.603 137.595 522 138.686 522H185.96C187.026 522 187.671 521.603 187.671 520.884V516.593H136.95Z" fill="white"/>
<path d="M172.095 503.15C172.232 502.939 172.446 502.79 172.691 502.734C172.937 502.679 173.194 502.721 173.409 502.852C173.516 502.918 173.609 503.005 173.682 503.107C173.755 503.209 173.807 503.324 173.834 503.447C173.862 503.569 173.865 503.696 173.843 503.82C173.821 503.943 173.775 504.061 173.707 504.167L172.045 506.845C171.965 506.984 171.849 507.099 171.709 507.177C171.57 507.256 171.411 507.296 171.251 507.292C171.068 507.289 170.888 507.238 170.73 507.143C170.623 507.077 170.531 506.991 170.458 506.889C170.385 506.787 170.333 506.671 170.305 506.548C170.277 506.426 170.274 506.299 170.296 506.176C170.318 506.052 170.365 505.934 170.433 505.829L172.095 503.15Z" fill="white"/>
<path d="M169.168 501.091C169.249 500.997 169.348 500.919 169.46 500.863C169.571 500.807 169.693 500.773 169.817 500.764C169.941 500.755 170.066 500.77 170.185 500.809C170.303 500.848 170.413 500.91 170.507 500.992C170.602 501.073 170.679 501.172 170.735 501.284C170.791 501.395 170.825 501.517 170.834 501.641C170.843 501.765 170.828 501.89 170.789 502.009C170.75 502.127 170.688 502.237 170.606 502.331L168.672 504.613C168.582 504.718 168.472 504.802 168.349 504.862C168.225 504.922 168.09 504.955 167.952 504.96C167.773 504.957 167.598 504.904 167.447 504.806C167.296 504.709 167.175 504.571 167.097 504.409C167.02 504.247 166.99 504.066 167.009 503.888C167.029 503.709 167.098 503.539 167.208 503.398L169.168 501.091Z" fill="white"/>
<path d="M166.415 498.785C166.612 498.658 166.849 498.607 167.081 498.641C167.314 498.676 167.525 498.793 167.677 498.973C167.829 499.152 167.91 499.38 167.906 499.614C167.902 499.849 167.813 500.074 167.655 500.248L165.448 502.158C165.275 502.305 165.055 502.384 164.828 502.381C164.691 502.386 164.555 502.36 164.431 502.304C164.306 502.248 164.196 502.164 164.109 502.059C164.017 501.973 163.944 501.869 163.894 501.754C163.844 501.639 163.818 501.515 163.818 501.389C163.818 501.264 163.844 501.139 163.894 501.024C163.944 500.909 164.017 500.805 164.109 500.719L166.415 498.785Z" fill="white"/>
<path d="M161.579 497.644L164.059 496.106C164.277 495.977 164.536 495.939 164.782 495.999C165.028 496.059 165.24 496.213 165.373 496.428C165.44 496.535 165.485 496.655 165.505 496.779C165.526 496.904 165.52 497.031 165.49 497.154C165.46 497.276 165.406 497.392 165.33 497.493C165.255 497.594 165.16 497.679 165.051 497.743L162.571 499.281C162.424 499.378 162.251 499.43 162.075 499.429C161.913 499.426 161.755 499.38 161.616 499.298C161.477 499.215 161.362 499.098 161.281 498.958C161.15 498.743 161.107 498.486 161.163 498.241C161.219 497.995 161.368 497.781 161.579 497.644Z" fill="white"/>
<path d="M159.495 494.444L162.272 493.279C162.509 493.18 162.776 493.18 163.013 493.277C163.25 493.375 163.439 493.563 163.537 493.8C163.586 493.915 163.611 494.039 163.611 494.164C163.611 494.29 163.586 494.414 163.537 494.529C163.489 494.644 163.418 494.749 163.328 494.837C163.239 494.924 163.133 494.993 163.017 495.04L160.239 496.205H159.867C159.653 496.194 159.449 496.112 159.286 495.972C159.124 495.832 159.013 495.642 158.97 495.432C158.928 495.222 158.956 495.003 159.051 494.811C159.146 494.619 159.302 494.464 159.495 494.37V494.444Z" fill="white"/>
<path d="M157.759 490.873L160.834 490.104C161.078 490.044 161.335 490.084 161.549 490.215C161.763 490.345 161.916 490.555 161.975 490.798C162.034 491.042 161.995 491.298 161.864 491.512C161.734 491.726 161.524 491.88 161.281 491.939L158.23 492.733H158.007C157.793 492.73 157.586 492.659 157.416 492.529C157.246 492.4 157.123 492.219 157.064 492.013C157.011 491.77 157.054 491.516 157.183 491.304C157.312 491.091 157.519 490.937 157.759 490.873Z" fill="white"/>
<path d="M126.532 357.98C126.805 345.976 134.891 340.172 146.87 340.47C158.85 340.768 167.481 347.043 167.208 359.022L157.709 484.102H139.702L126.532 357.98Z" fill="#FBBEAA"/>
<path d="M124.969 357.906C125.036 355.056 125.663 352.247 126.816 349.639C127.968 347.032 129.623 344.677 131.685 342.709C133.748 340.741 136.178 339.198 138.836 338.169C141.495 337.14 144.33 336.645 147.18 336.712C150.03 336.779 152.839 337.406 155.446 338.558C158.054 339.711 160.409 341.365 162.377 343.428C164.345 345.49 165.887 347.92 166.916 350.579C167.945 353.237 168.441 356.072 168.374 358.922L174.005 487.5H124.97L124.969 357.906Z" fill="#93929C"/>
<path d="M63.8062 483.134C63.8062 480.746 64.7547 478.456 66.4432 476.768C68.1316 475.079 70.4217 474.131 72.8095 474.131C75.1973 474.131 77.4874 475.079 79.1758 476.768C80.8643 478.456 81.8129 480.746 81.8129 483.134V502.703H63.8062V483.134Z" fill="#FBBEAA"/>
<path d="M81.1438 486.78C83.3761 486.78 83.7729 487.748 84.393 489.012C85.4508 492.384 87.2471 495.476 89.6511 498.065C93.2282 501.122 97.0714 503.853 101.135 506.225V516.593H61.0537C61.0537 516.593 61.3265 508.408 61.525 502.629C61.7234 496.85 62.2691 489.806 62.2443 489.062C62.2195 488.318 62.2442 486.78 63.5836 486.78H81.1438Z" fill="#302D3B"/>
<path d="M66.0142 503.199C66.0093 504.471 66.3819 505.715 67.0848 506.775C67.7876 507.834 68.7892 508.662 69.9625 509.152C71.1359 509.642 72.4283 509.772 73.676 509.527C74.9238 509.282 76.0707 508.672 76.9716 507.775C77.8725 506.878 78.4868 505.733 78.7367 504.486C78.9865 503.24 78.8608 501.947 78.3753 500.771C77.8898 499.596 77.0665 498.591 76.0096 497.884C74.9526 497.177 73.7097 496.8 72.4381 496.8C70.7387 496.8 69.1085 497.473 67.9045 498.673C66.7005 499.872 66.0208 501.5 66.0142 503.199Z" fill="#93929C"/>
<path d="M72.4133 499.429L70.9499 501.587L68.4448 502.306L70.057 504.365L69.9826 506.969L72.4133 506.076L74.8687 506.969L74.7943 504.365L76.4065 502.306L73.8766 501.587L72.4133 499.429Z" fill="white"/>
<path d="M100.836 506.052C100.836 506.052 106.541 509.053 108.649 510.516C109.642 511.18 110.448 512.087 110.99 513.151C111.533 514.215 111.794 515.4 111.75 516.593H96.0991C96.0991 516.593 96.5208 508.979 100.836 506.052Z" fill="white"/>
<path d="M61.0537 516.593V520.884C61.0537 521.603 61.6738 522 62.7651 522H110.088C111.18 522 111.8 521.603 111.8 520.884V516.593H61.0537Z" fill="white"/>
<path d="M96.1986 503.15C96.3334 502.936 96.5477 502.785 96.7942 502.729C97.0407 502.673 97.2993 502.717 97.5131 502.852C97.7269 502.987 97.8783 503.201 97.9342 503.448C97.99 503.694 97.9456 503.953 97.8107 504.167L96.149 506.846C96.063 506.985 95.9423 507.099 95.7988 507.177C95.6553 507.255 95.4939 507.295 95.3305 507.292C95.1541 507.292 94.9815 507.241 94.8344 507.143C94.7275 507.077 94.6348 506.991 94.5617 506.889C94.4887 506.787 94.4367 506.671 94.409 506.549C94.3813 506.426 94.3783 506.299 94.4002 506.176C94.4222 506.052 94.4686 505.934 94.5368 505.829L96.1986 503.15Z" fill="white"/>
<path d="M93.247 501.091C93.4105 500.901 93.6416 500.781 93.8915 500.758C94.1415 500.735 94.3906 500.81 94.5863 500.967C94.7783 501.135 94.8984 501.37 94.9215 501.624C94.9446 501.878 94.869 502.132 94.7103 502.331L92.7509 504.613C92.6649 504.721 92.5556 504.809 92.431 504.869C92.3064 504.929 92.1699 504.96 92.0316 504.96C91.8498 504.962 91.6713 504.911 91.5177 504.814C91.3641 504.717 91.242 504.577 91.166 504.412C91.0899 504.247 91.0633 504.063 91.0893 503.883C91.1152 503.703 91.1927 503.535 91.3123 503.398L93.247 501.091Z" fill="white"/>
<path d="M90.519 498.785C90.7163 498.658 90.9531 498.607 91.1853 498.641C91.4175 498.676 91.6292 498.793 91.781 498.973C91.9327 499.152 92.0142 499.38 92.0102 499.614C92.0061 499.849 91.9169 500.074 91.7591 500.248L89.5269 502.158C89.3538 502.305 89.1336 502.384 88.9068 502.381C88.7705 502.384 88.6352 502.357 88.5108 502.301C88.3864 502.245 88.2759 502.163 88.1875 502.059C88.099 501.971 88.0288 501.867 87.9808 501.752C87.9329 501.637 87.9082 501.514 87.9082 501.389C87.9082 501.265 87.9329 501.141 87.9808 501.026C88.0288 500.911 88.099 500.807 88.1875 500.719L90.519 498.785Z" fill="white"/>
<path d="M85.6824 497.644L88.1626 496.106C88.3766 496.016 88.6159 496.005 88.8368 496.077C89.0578 496.148 89.2456 496.297 89.3659 496.496C89.4863 496.694 89.5312 496.93 89.4924 497.159C89.4537 497.388 89.3338 497.595 89.1547 497.743L86.6745 499.281C86.5275 499.378 86.3548 499.43 86.1784 499.429C86.0131 499.427 85.8511 499.383 85.7078 499.301C85.5645 499.218 85.4447 499.1 85.3599 498.958C85.2311 498.74 85.1927 498.481 85.2529 498.235C85.3132 497.989 85.4674 497.777 85.6824 497.644Z" fill="white"/>
<path d="M222.99 80.0179L213.069 142.297C211.432 150.11 213.961 157.179 222.99 158.419C224.656 158.636 226.349 158.512 227.966 158.055C229.584 157.597 231.091 156.816 232.397 155.758C233.703 154.701 234.78 153.388 235.563 151.902C236.347 150.415 236.82 148.784 236.953 147.109L239.979 80.1419C240.773 73.8172 238.02 69.6008 233.208 69.08C227.305 68.4351 224.18 71.9323 222.99 80.0179Z" fill="#FBBEAA"/>
<path d="M83.5992 494.445L86.3771 493.279C86.4926 493.23 86.6165 493.206 86.7418 493.206C86.867 493.206 86.9909 493.231 87.1064 493.279C87.2219 493.328 87.3265 493.399 87.4142 493.488C87.5019 493.577 87.5709 493.683 87.6172 493.8C87.7098 494.031 87.71 494.288 87.6176 494.519C87.5252 494.75 87.3474 494.937 87.1212 495.04L84.3185 496.206C84.2041 496.231 84.0855 496.231 83.9712 496.206C83.7802 496.206 83.5935 496.149 83.4346 496.043C83.2757 495.937 83.1518 495.787 83.0783 495.61C83.003 495.386 83.0148 495.142 83.1113 494.926C83.2078 494.71 83.3819 494.538 83.5992 494.445Z" fill="white"/>
<path d="M81.8625 490.873L84.9133 490.104C85.1598 490.044 85.4202 490.083 85.6383 490.212C85.8564 490.342 86.0147 490.553 86.079 490.798C86.1086 490.919 86.114 491.044 86.0951 491.167C86.0762 491.289 86.0332 491.407 85.9687 491.513C85.9042 491.619 85.8194 491.711 85.7191 491.784C85.6189 491.858 85.5051 491.91 85.3845 491.939L82.3338 492.733H82.0858C81.8623 492.716 81.6517 492.622 81.49 492.466C81.3283 492.311 81.2255 492.105 81.1991 491.882C81.1727 491.66 81.2245 491.435 81.3455 491.246C81.4665 491.058 81.6493 490.917 81.8625 490.848V490.873Z" fill="white"/>
<path d="M73.6533 357.608C74.8717 351.978 78.2759 347.062 83.1176 343.942C87.9593 340.821 93.8422 339.75 99.4729 340.966C111.204 343.446 117.529 355.004 114.999 366.736L81.8134 486.16H63.5835L73.6533 357.608Z" fill="#FBBEAA"/>
<path d="M73.6562 355.252C75.0023 349.757 78.4384 345.004 83.2341 342.003C88.0298 339.002 93.8069 337.99 99.3371 339.182C104.867 340.374 109.715 343.676 112.848 348.386C115.982 353.096 117.155 358.842 116.118 364.404L102.924 487C102.924 487 71.3252 488.885 52.5 487L73.6562 355.252Z" fill="#93929C"/>
<path d="M231.051 135.402L159.818 81.2827C151.509 75.9749 145.854 78.8024 141.439 84.4822C139.423 87.2313 138.488 90.6258 138.813 94.0195C139.137 97.4132 140.699 100.569 143.2 102.886L214.259 155.244C216.763 157.359 219.987 158.426 223.258 158.223C226.53 158.019 229.597 156.561 231.82 154.153L232.142 153.806C233.322 152.547 234.233 151.061 234.819 149.439C235.406 147.816 235.656 146.091 235.554 144.369C235.452 142.647 235 140.964 234.225 139.422C233.451 137.88 232.371 136.512 231.051 135.402Z" fill="#FBBEAA"/>
<path d="M143.199 102.861C142.542 102.295 141.943 101.663 141.414 100.976C140.945 99.2109 140.885 97.3622 141.237 95.5702C141.59 93.7781 142.345 92.0899 143.447 90.6335C147.193 84.8545 155.055 80.3156 158.552 81.1837L162.024 82.9447L201.337 112.708C197.857 120.885 193.157 128.486 187.398 135.253L143.199 102.861Z" fill="#F18380"/>
<path d="M153.939 77.4133L215.582 118.988C215.323 121.115 222.157 77.4133 222.157 77.4133L241.493 79.9297C241.493 79.9297 241.099 124.058 238.213 147.478C237.06 156.828 229.35 160.397 220.146 158.389C215.602 157.397 211.324 155.533 207.517 152.861C191.159 141.379 145.265 109.038 141.513 104.969C135.04 97.9499 135.039 92.6918 138.76 86.9128C142.48 81.1338 150.442 76.5452 153.939 77.4133Z" fill="#002776"/>
<path d="M124.969 357.906L112.246 224.691C112.246 209.983 127.4 193.961 149.747 197.408C169.936 200.558 176.088 220.847 174.426 240.069C172.764 259.291 168.275 358.849 168.275 358.849C168.208 361.699 167.58 364.507 166.428 367.115C165.276 369.722 163.621 372.077 161.559 374.045C159.496 376.013 157.066 377.556 154.408 378.585C151.749 379.614 148.914 380.109 146.064 380.042C143.214 379.976 140.405 379.348 137.798 378.196C135.19 377.043 132.835 375.389 130.867 373.326C128.899 371.264 127.357 368.834 126.328 366.175C125.299 363.517 124.803 360.682 124.87 357.832L124.969 357.906Z" fill="#93929C"/>
<path d="M73.6538 355.252L86.3031 222.062C88.9818 207.602 106.964 194.779 128.269 202.369C147.491 209.239 149.723 230.321 144.465 248.899C139.207 267.476 116.116 364.404 116.116 364.404C114.77 369.899 111.334 374.652 106.538 377.653C101.742 380.654 95.9651 381.666 90.4349 380.474C84.9047 379.282 80.0575 375.98 76.9238 371.27C73.79 366.56 72.6169 360.813 73.6538 355.252Z" fill="#93929C"/>
<path d="M144.465 248.899C139.231 267.476 116.115 364.405 116.115 364.405" stroke="#5E5D63" stroke-width="0.75" stroke-miterlimit="10"/>
<path d="M140.744 75.3049C140.744 75.3049 151.707 77.2147 153.84 77.7852C155.099 78.0806 156.262 78.6907 157.221 79.5583C158.179 80.4259 158.902 81.5226 159.321 82.7457C160.686 85.9949 167.705 107.275 168.35 109.582C168.786 112.123 168.376 114.737 167.184 117.023C166.167 119.801 160.909 132.45 160.909 132.45L160.115 173.201L130.502 177.898L102.127 173.201C102.127 173.201 92.2056 97.4041 91.7095 92.7164C91.2135 88.0287 93.5449 78.9758 99.1503 77.8348C104.756 76.6939 120.133 75.3546 120.133 75.3546L140.744 75.3049Z" fill="#FBBEAA"/>
<path d="M161.506 156.816V171.142C142.11 172.928 111.205 171.663 99.5971 171.142C99.0515 167.05 98.481 160.105 97.8857 155.492C113.685 155.889 139.779 157.361 161.506 156.816Z" fill="white"/>
<path d="M59.2183 169.555L90.9905 85.9453C95.2317 77.0164 101.507 76.4211 108.352 78.9014C111.518 80.1644 114.108 82.5495 115.627 85.6012C117.146 88.6529 117.488 92.1572 116.587 95.4448L83.8721 177.566C82.8805 180.69 80.717 183.309 77.8358 184.872C74.9546 186.435 71.5799 186.821 68.4201 185.949L67.9488 185.825C66.2821 185.371 64.7254 184.581 63.3737 183.505C62.022 182.429 60.9037 181.089 60.0868 179.566C59.2699 178.044 58.7716 176.371 58.6223 174.65C58.473 172.929 58.6758 171.195 59.2183 169.555Z" fill="#FBBEAA"/>
<path d="M72.3877 134.881L90.9896 85.9452C91.4885 84.872 92.0776 83.8432 92.7506 82.8697C95.0292 81.4431 97.6378 80.6295 100.323 80.5078C103.009 80.3861 105.68 80.9605 108.079 82.1752C110.864 83.5304 113.102 85.796 114.424 88.597C115.745 91.3981 116.071 94.5665 115.346 97.5776C115.346 97.8752 115.172 98.4457 115.023 99.2146L95.8261 147.456C87.4409 144.432 79.5442 140.195 72.3877 134.881Z" fill="#F18380"/>
<path d="M92.7262 81.4811L57.4141 173.129C86.418 163.848 88 168.5 93.5 154C93.5 154 116.983 97.95 117.678 94.1304C118.402 91.1192 118.077 87.9509 116.755 85.1499C115.434 82.3489 113.195 80.0832 110.41 78.728C102.647 74.7596 94.9088 78.356 92.7262 81.4811Z" fill="#002776"/>
<path d="M223.783 58.5139C222.84 58.5139 222.766 57.9187 222.344 56.8274C224.452 56.8274 230.579 57.2242 233.257 62.3831C230.554 58.6627 225.37 58.5139 223.783 58.5139ZM228.594 38.8951C228.594 38.8951 228.446 39.7632 228.297 41.0281C228.297 41.673 228.148 42.4418 228.098 43.2355C228.049 44.0292 227.974 44.8973 227.9 45.7158C227.9 47.452 227.776 49.1634 227.776 50.4531C227.776 51.7428 227.776 52.6109 227.776 52.6109C227.776 52.6522 227.784 52.693 227.801 52.7309C227.817 52.7687 227.841 52.8026 227.872 52.8306C227.902 52.8586 227.938 52.88 227.977 52.8935C228.016 52.9069 228.057 52.912 228.098 52.9085C228.168 52.905 228.235 52.8789 228.289 52.8342C228.342 52.7895 228.38 52.7286 228.396 52.6606C228.396 52.6606 228.545 51.7924 228.669 50.5027C228.793 49.2129 228.991 47.5016 229.066 45.7902C229.066 44.9221 229.066 44.054 229.066 43.3099C229.066 42.5659 229.066 41.7474 229.066 41.1025C229.066 39.788 229.066 38.9446 229.066 38.9446C229.066 38.9034 229.057 38.8626 229.041 38.8248C229.024 38.7869 229 38.7529 228.97 38.7249C228.94 38.6969 228.904 38.6756 228.865 38.6622C228.826 38.6488 228.784 38.6436 228.743 38.647C228.696 38.6744 228.657 38.7144 228.63 38.7625C228.604 38.8107 228.592 38.8651 228.594 38.9199V38.8951ZM234.349 40.6313C234.349 40.6313 234.2 41.3753 234.026 42.4667C234.026 43.0371 233.853 43.682 233.778 44.3764C233.704 45.0709 233.629 45.815 233.555 46.5591C233.555 48.0472 233.381 49.5354 233.357 50.6515C233.332 51.7676 233.357 52.5365 233.357 52.5365C233.36 52.5756 233.371 52.6137 233.388 52.6487C233.406 52.6836 233.431 52.7147 233.461 52.74C233.491 52.7654 233.526 52.7846 233.563 52.7965C233.6 52.8084 233.64 52.8128 233.679 52.8094C233.746 52.8047 233.809 52.7777 233.858 52.7327C233.908 52.6877 233.941 52.6273 233.952 52.5613C233.952 52.5613 234.101 51.8172 234.274 50.7259C234.448 49.6346 234.597 48.1216 234.721 46.6583C234.721 45.9142 234.721 45.1701 234.87 44.4757C235.018 43.7812 234.87 43.1115 234.87 42.5411C234.87 41.4249 234.87 40.6809 234.87 40.6809C234.87 40.6396 234.861 40.5988 234.845 40.561C234.828 40.5231 234.804 40.4891 234.774 40.4611C234.743 40.4331 234.708 40.4118 234.669 40.3984C234.63 40.385 234.588 40.3798 234.547 40.3832C234.492 40.406 234.444 40.4435 234.409 40.4916C234.374 40.5398 234.353 40.5967 234.349 40.656V40.6313ZM239.904 42.9875C239.904 42.9875 239.756 43.6076 239.557 44.5501C239.557 44.9965 239.359 45.5422 239.284 46.1375C239.21 46.7327 239.111 47.3528 239.012 47.9728C238.838 49.2378 238.763 50.4531 238.714 51.4452C238.664 52.4373 238.714 53.0326 238.714 53.0326C238.714 53.0738 238.722 53.1146 238.739 53.1525C238.755 53.1903 238.779 53.2243 238.81 53.2523C238.84 53.2803 238.876 53.3017 238.915 53.3151C238.954 53.3285 238.995 53.3336 239.036 53.3302C239.1 53.3269 239.16 53.3034 239.209 53.2633C239.258 53.2231 239.293 53.1684 239.309 53.107C239.309 53.107 239.483 52.4869 239.656 51.5692C239.83 50.6515 240.078 49.3618 240.227 48.1216C240.227 47.4768 240.351 46.8567 240.401 46.2614C240.45 45.6662 240.401 45.1205 240.401 44.6493C240.401 43.7068 240.401 43.0619 240.401 43.0619C240.401 43.0206 240.392 42.9798 240.376 42.942C240.359 42.9042 240.335 42.8701 240.305 42.8422C240.274 42.8142 240.239 42.7928 240.2 42.7794C240.161 42.766 240.119 42.7608 240.078 42.7643C240.032 42.7898 239.993 42.8254 239.963 42.8683C239.933 42.9113 239.913 42.9605 239.904 43.0123V42.9875Z" fill="#F18380"/>
<path d="M86.5309 221.611C87.0736 214.782 94.4002 188.6 102.27 173.685C102.27 173.685 119.435 170.964 130.49 171C142.025 171.038 159.945 173.685 159.945 173.685C165.077 185.297 170.923 210.665 172.625 216.138C173.653 219.358 173.778 222.797 172.986 226.083C172.195 229.369 170.517 232.375 168.135 234.775C162.289 241.407 147.216 249 143.738 249C128.773 246.864 114.105 243.009 100.025 237.512C92.0814 234.184 86.0128 228.464 86.5309 221.611Z" fill="#93929C"/>
<path d="M141.265 75.4453C141.265 75.4453 152.307 77.3689 154.48 77.9435C155.745 78.2475 156.913 78.8642 157.878 79.7372C158.843 80.6102 159.573 81.7114 160.001 82.9399C161.35 86.2125 168.42 107.647 169.094 109.97C169.534 112.53 169.121 115.162 167.92 117.465C166.921 120.188 161.6 132.904 161.6 132.904L160.8 173.949H102.368C102.368 173.949 92.45 97.6292 91.9754 92.9326C91.5007 88.236 93.824 79.0927 99.4699 77.9435C105.116 76.7943 120.58 75.4453 120.58 75.4453H141.265Z" fill="white"/>
<path d="M119.83 75.4453C122.141 83.5821 123.442 91.9725 123.702 100.427V210.972C123.702 214.369 122.228 214.594 120.455 214.594H88.9526C87.3288 214.594 84.8556 213.545 85.655 211.222C86.4544 208.898 93.4993 187.789 100.369 173.374C100.369 173.374 90.5265 94.0568 90.5265 90.3095C90.5265 86.5622 93.2745 78.9677 98.021 77.8185C102.768 76.6694 119.93 74.6958 119.93 74.6958L119.83 75.4453Z" fill="#002776"/>
<path d="M142.089 75.7206C143.488 86.3445 144.322 97.0351 144.587 107.747V211.472C144.587 213.82 145.187 214.545 147.41 214.545H172.567C174.241 214.545 174.865 213.521 174.441 211.447C174.016 209.374 162.874 173.974 162.874 173.974L163.848 133.229C163.848 133.229 169.569 114.043 169.794 112.519C170.066 110.614 169.887 108.671 169.269 106.848C168.57 105.024 160.576 83.6149 159.826 82.066C159.321 81.0119 158.596 80.0784 157.7 79.3285C156.804 78.5786 155.757 78.0298 154.63 77.7191C151.932 77.0696 142.014 75.2209 142.014 75.2209L142.089 75.7206Z" fill="#002776"/>
<path d="M123.703 139.799C123.703 139.799 109.288 108.696 108.264 106.673C107.24 104.649 107.839 102.626 110.287 103C112.736 103.375 124.177 106.348 124.177 106.348L123.703 139.799Z" fill="#003399"/>
<path d="M124.152 107.422C124.152 107.422 111.411 97.7541 110.287 96.9547C109.751 96.5392 109.357 95.9675 109.161 95.3186C108.964 94.6697 108.973 93.9756 109.188 93.3324C109.662 92.2581 116.108 73.3468 116.907 72.0478C117.789 70.9469 118.767 69.927 119.83 69C119.83 69 122.203 79.5673 123.003 84.7386C123.794 92.2735 124.178 99.8458 124.152 107.422Z" fill="#003399"/>
<path d="M144.612 139.799C144.612 139.799 159.027 108.696 160.026 106.673C161.025 104.649 160.451 102.626 158.003 103C155.554 103.375 144.138 106.348 144.138 106.348L144.612 139.799Z" fill="#003399"/>
<path d="M144.138 107.422C144.138 107.422 155.479 97.7544 156.479 96.955C156.959 96.4984 157.277 95.8978 157.385 95.2442C157.493 94.5906 157.385 93.9195 157.078 93.3326C156.454 92.2584 146.411 75.4456 145.437 74.2714C144.405 73.167 143.285 72.1477 142.089 71.2236C142.089 71.2236 141.864 74.0716 141.939 76.5198C142.014 78.968 144.138 107.422 144.138 107.422Z" fill="#003399"/>
<g filter="url(#filter1_d_110_30)">
<rect x="109.5" y="116.672" width="40.9288" height="58.3236" rx="1" transform="rotate(-6.55484 109.5 116.672)" fill="#EFEFEF"/>
</g>
<path d="M128.717 142.811C131.563 141.609 134.137 139.827 136.275 137.578C137.598 136.189 139.099 134.984 140.736 133.994C141.697 133.394 142.526 132.601 143.171 131.667C144.024 130.217 144.73 128.686 145.277 127.098C145.48 125.73 145.946 124.411 146.647 123.217C147.315 122.605 149.669 122.932 150.892 125.308C151.313 126.366 151.504 127.505 151.452 128.649C151.399 129.793 151.105 130.916 150.588 131.942C149.98 133.172 149.504 134.463 149.167 135.792L149.389 135.925C151.252 134.936 153.242 134.219 155.3 133.795C156.046 133.628 156.823 133.719 157.506 134.051C158.19 134.384 158.739 134.94 159.066 135.629C159.393 136.319 159.478 137.102 159.308 137.852C159.138 138.602 158.723 139.276 158.129 139.765C161.34 140.134 160.976 145.086 158.219 145.741C158.81 145.988 159.308 146.414 159.647 146.959C159.986 147.504 160.149 148.142 160.114 148.788C160.079 149.434 159.849 150.056 159.453 150.569C159.057 151.083 158.516 151.464 157.902 151.661C159.86 153.466 158.429 156.441 154.874 156.454C151.985 156.748 144.26 157.957 141.572 158.536C138.885 159.114 133.483 157.835 131.747 158.372C129.164 159.318 126.164 159.334 123.876 152.537C121.587 145.74 126.059 143.69 128.717 142.811Z" fill="#FBBEAA"/>
<path d="M130.5 163L77.5001 185.5C70.2763 188.873 61.745 185.929 58.5001 177.5C57.9067 175.929 57.8666 173.36 57.9402 171.682C58.0137 170.004 58.4274 168.359 59.156 166.845C59.8846 165.332 61.234 162.604 62.4999 161.5C63.7657 160.396 68.2765 158.359 69.8748 157.843L129.5 141.5L130.5 163Z" fill="#002776"/>
<defs>
<filter id="filter0_f_110_30" x="0.5" y="494" width="247" height="63" filterUnits="userSpaceOnUse" color-interpolation-filters="sRGB">
<feFlood flood-opacity="0" result="BackgroundImageFix"/>
<feBlend mode="normal" in="SourceGraphic" in2="BackgroundImageFix" result="shape"/>
<feGaussianBlur stdDeviation="8.5" result="effect1_foregroundBlur_110_30"/>
</filter>
<filter id="filter1_d_110_30" x="109.607" y="112.107" width="49.1042" height="62.3995" filterUnits="userSpaceOnUse" color-interpolation-filters="sRGB">
<feFlood flood-opacity="0" result="BackgroundImageFix"/>
<feColorMatrix in="SourceAlpha" type="matrix" values="0 0 0 0 0 0 0 0 0 0 0 0 0 0 0 0 0 0 127 0" result="hardAlpha"/>
<feOffset dx="2"/>
<feComposite in2="hardAlpha" operator="out"/>
<feColorMatrix type="matrix" values="0 0 0 0 0.603922 0 0 0 0 0.6 0 0 0 0 0.631373 0 0 0 1 0"/>
<feBlend mode="normal" in2="BackgroundImageFix" result="effect1_dropShadow_110_30"/>
<feBlend mode="normal" in="SourceGraphic" in2="effect1_dropShadow_110_30" result="shape"/>
</filter>
</defs>
</svg>
