<svg width="212" height="520" viewBox="0 0 212 520" fill="none" xmlns="http://www.w3.org/2000/svg">
    <path d="M101.017 60.6797H70.3525V96.7439H101.017V60.6797Z" fill="#FBBEAA"/>
    <path d="M70.429 60.6797H100.992V80.8002C99.6568 80.9661 98.3131 81.0511 96.9678 81.0549C86.4236 81.0549 74.6314 78.1769 70.3271 68.1166L70.429 60.6797Z" fill="#F18380"/>
    <path d="M116.86 33.9122C116.605 44.3291 116.859 52.5556 114.975 60.5019C113.09 68.4483 107.334 74.9429 94.5996 74.9429C81.865 74.9429 67.3477 70.7914 66.3289 54.8733C64.2405 52.6065 60.8531 44.5328 60.7258 35.4913C60.5984 26.4498 61.3116 7.32255 81.916 4.39361C102.52 1.46467 117.42 9.02897 116.86 33.9122Z" fill="#FBBEAA"/>
    <path d="M106.086 42.1133C106.086 43.5141 106.926 44.6602 107.971 44.6602C109.015 44.6602 109.855 43.5141 109.855 42.1133C109.855 40.7125 109.015 39.5664 107.971 39.5664C106.926 39.5664 106.086 40.6106 106.086 42.1133Z" fill="#403D4F"/>
    <path d="M83.1636 42.1133C83.1636 43.5141 84.004 44.6602 85.0483 44.6602C86.0925 44.6602 86.933 43.5141 86.933 42.1133C86.933 40.7125 86.0925 39.5664 85.0483 39.5664C84.004 39.5664 83.1636 40.6106 83.1636 42.1133Z" fill="#403D4F"/>
    <path d="M87.7738 36.8153C87.5955 37.0446 86.2457 36.8153 85.2269 36.8153C84.2081 36.8153 82.2471 36.8153 82.2471 36.5861C82.2471 36.3569 83.2148 34.7778 85.7617 35.058C87.5955 35.2617 88.2577 36.4078 87.7738 36.8153Z" fill="#403D4F"/>
    <path d="M105.652 36.8152C105.805 37.0444 106.951 36.8152 107.843 36.8152C108.734 36.8152 110.39 36.8152 110.39 36.586C110.161 36.0087 109.729 35.5349 109.176 35.2534C108.623 34.972 107.985 34.9025 107.384 35.0578C105.805 35.2616 105.372 36.4077 105.652 36.8152Z" fill="#403D4F"/>
    <path d="M98.1384 52.6573C99.9212 52.6573 101.347 51.4857 101.398 50.6452L100.813 43.4629C100.793 43.285 100.705 43.1215 100.567 43.0074C100.429 42.8932 100.253 42.8374 100.074 42.8517C99.987 42.8581 99.9021 42.8817 99.8242 42.9211C99.7463 42.9605 99.6769 43.0148 99.6201 43.0811C99.5633 43.1474 99.5202 43.2243 99.4932 43.3073C99.4662 43.3903 99.4558 43.4778 99.4628 43.5648L100.023 50.4924C99.7657 50.7715 99.4491 50.9896 99.0966 51.1306C98.7441 51.2716 98.3645 51.332 97.9856 51.3074C97.8966 51.3005 97.807 51.3116 97.7224 51.3402C97.6378 51.3688 97.5598 51.4142 97.4932 51.4737C97.4266 51.5331 97.3727 51.6055 97.3347 51.6863C97.2968 51.7672 97.2756 51.8549 97.2725 51.9441C97.272 52.1248 97.3401 52.2988 97.463 52.4312C97.5859 52.5636 97.7544 52.6444 97.9346 52.6573H98.1384Z" fill="#F18380"/>
    <path d="M71.8494 38.6491C71.8494 48.9261 66.7555 45.1057 66.7555 45.1057C65.4821 41.2853 63.2635 42.9281 60.3472 42.9281C57.4309 42.9281 57.8056 40.8041 54.8893 33.8002C52.5563 28.197 55.2458 19.2938 56.9956 17.1387C54.0951 13.3387 58.0285 11.075 57.8925 11.651C56.9956 15.4484 60.1047 11.6319 61.6617 10.1347C78.2917 -5.85587 120.2 2.17763 120.2 2.17763L115.847 7.68574L126.567 4.72458C126.567 4.72458 125.867 10.525 124.02 13.6387C122.481 16.2319 118.763 19.2938 118.763 19.2938L130.428 20.3713C130.428 20.3713 122.846 28.4529 112.347 29.5304C100.524 30.7439 87.8502 25.2202 87.8502 25.2202L92.5163 30.6079C92.5163 30.6079 80.7225 28.2025 76.9021 30.1936C74.4587 31.467 71.8494 34.0548 71.8494 38.6491Z" fill="#7D4A40"/>
    <path d="M66.8891 46.9524C66.7617 44.0489 66.3033 39.7701 62.1773 39.6682C58.0513 39.5663 57.5165 42.6735 57.6438 47.5636C57.7711 52.4537 62.7376 56.6051 67.0928 54.9242L66.8891 46.9524Z" fill="#FBBEAA"/>
    <path d="M60.8268 50.4669C61.0054 50.4357 61.1645 50.3353 61.2694 50.1874C61.3743 50.0396 61.4166 49.8562 61.3871 49.6774C61.3873 49.5336 61.428 49.3928 61.5046 49.2712C61.5812 49.1495 61.6905 49.052 61.8201 48.9897C62.08 48.8156 62.3859 48.7226 62.6987 48.7226C63.0116 48.7226 63.3175 48.8156 63.5774 48.9897C63.6905 49.0521 63.8176 49.0849 63.9467 49.0849C64.0759 49.0849 64.203 49.0521 64.316 48.9897C64.4198 48.9211 64.503 48.8257 64.5568 48.7136C64.6107 48.6014 64.6331 48.4768 64.6217 48.353C64.2651 44.2524 61.6418 43.4884 61.5399 43.4629C61.4529 43.4361 61.3614 43.4275 61.271 43.4376C61.1805 43.4477 61.0931 43.4764 61.0143 43.5218C60.9354 43.5672 60.8667 43.6284 60.8126 43.7015C60.7584 43.7746 60.7199 43.8581 60.6994 43.9468C60.6524 44.1157 60.6743 44.2963 60.7602 44.4491C60.8461 44.6018 60.9891 44.7143 61.1579 44.7618C61.6667 44.9922 62.1101 45.3456 62.448 45.7903C62.786 46.235 63.0078 46.7568 63.0935 47.3087C62.3956 47.195 61.6802 47.3399 61.0815 47.7162C60.7326 47.9208 60.4507 48.2222 60.2698 48.5839C60.089 48.9456 60.017 49.352 60.0627 49.7538C60.0584 49.853 60.0756 49.952 60.1132 50.0439C60.1508 50.1358 60.2079 50.2185 60.2805 50.2863C60.3531 50.354 60.4396 50.4053 60.5339 50.4365C60.6282 50.4676 60.7281 50.478 60.8268 50.4669Z" fill="#F18380"/>
    <path d="M96.3826 61.8267C93.9239 61.7318 91.5632 60.8376 89.6587 59.2798" stroke="#73102A" stroke-width="0.5" stroke-miterlimit="10" stroke-linecap="round"/>
    <path d="M96.4679 57.319C92.9022 56.1475 88.8272 54.7721 87.4264 56.4276C86.3312 57.5483 87.8084 62.8203 93.2842 63.7372C98.7601 64.6541 100.721 60.8847 100.441 59.433C100.263 58.5416 99.2695 58.2614 96.4679 57.319Z" fill="#73102A"/>
    <path d="M87.5537 56.3516H87.4264C86.3312 57.4722 87.8084 62.7443 93.2842 63.6612C94.474 63.9374 95.7111 63.9374 96.9008 63.6612C95.9784 61.8288 94.6621 60.2231 93.0461 58.9594C91.4301 57.6956 89.5544 56.8051 87.5537 56.3516Z" fill="#D65155"/>
    <path d="M88.8276 55.7909C90.2705 57.3589 92.1026 58.5171 94.138 59.1479C96.1733 59.7786 98.3393 59.8594 100.416 59.382C100.212 58.516 99.1935 58.2359 96.4684 57.319C94.0497 56.3024 91.4513 55.7827 88.8276 55.7909Z" fill="white"/>
    <path d="M39.5004 99.5226C33.8395 106.801 1.08691 195.759 1.08691 195.759C31.4133 186.054 28.5677 159.827 45.0614 162.602C45.0614 162.602 64.0809 117.96 64.8071 113.967C65.5649 110.818 65.2248 107.505 63.843 104.577C62.4611 101.648 60.1205 99.2789 57.2086 97.8619C49.0914 93.7125 45.1613 92.2441 39.5004 99.5226Z" fill="#002366"/>
    <path d="M184.269 93.2527C184.394 90.5232 183.664 87.823 182.179 85.529C179.894 82.8795 178.183 79.7857 177.152 76.4423C176.358 73.3387 175.091 70.3759 173.396 67.6584C172.184 65.9925 170.367 64.6296 170.367 63.3574C170.367 62.0853 172.79 59.6319 176.243 60.3285C177.722 60.7892 179.081 61.5712 180.222 62.6185C181.364 63.6658 182.26 64.9524 182.846 66.3863C183.177 65.5126 183.371 64.5932 183.421 63.6603L184.178 45.0931C184.19 44.6118 184.298 44.1376 184.496 43.6987C184.693 43.2597 184.977 42.8648 185.33 42.5373C185.683 42.2098 186.098 41.9563 186.55 41.7918C187.003 41.6273 187.484 41.5552 187.965 41.5796C188.73 41.6123 189.466 41.884 190.069 42.3567C190.672 42.8294 191.112 43.4792 191.327 44.2147V43.3667C191.443 42.4641 191.897 41.639 192.597 41.057C193.296 40.475 194.19 40.1792 195.099 40.229C196.008 40.2789 196.864 40.6707 197.496 41.3257C198.127 41.9807 198.488 42.8505 198.505 43.7604V46.335C198.809 45.5413 199.387 44.8829 200.135 44.48C200.883 44.0771 201.751 43.9565 202.581 44.1401C203.411 44.3236 204.147 44.7991 204.655 45.48C205.164 46.1609 205.41 47.0018 205.351 47.8495V49.485C205.677 48.9121 206.162 48.4466 206.749 48.1453C207.335 47.8441 207.996 47.7202 208.652 47.7888C209.55 47.9028 210.368 48.3617 210.933 49.0684C211.499 49.7751 211.767 50.674 211.681 51.5749L210.197 67.2344C209.225 76.063 207.399 84.7765 204.745 93.2527C204.713 94.6679 204.385 96.0607 203.782 97.3417C203.18 98.6227 202.316 99.7634 201.246 100.691C200.176 101.618 198.924 102.311 197.571 102.725C196.217 103.139 194.792 103.266 193.386 103.097C192.115 103.139 190.848 102.907 189.674 102.418C188.499 101.928 187.444 101.191 186.579 100.257C185.715 99.3235 185.061 98.2148 184.662 97.0062C184.264 95.7977 184.13 94.5175 184.269 93.2527Z" fill="#FBBEAA"/>
    <path d="M184.875 69.0218C183.724 69.0218 183.633 68.2949 183.118 66.9622C185.693 66.9622 193.174 67.4468 196.445 73.7469C193.144 69.2036 186.813 69.0218 184.875 69.0218ZM190.751 45.0632C190.751 45.0632 190.569 46.1234 190.388 47.6681C190.388 48.4556 190.206 49.3945 190.145 50.3638C190.085 51.333 189.994 52.3931 189.903 53.3927C189.903 55.5129 189.751 57.6029 189.751 59.1779C189.751 60.7529 189.751 61.813 189.751 61.813C189.751 61.8634 189.762 61.9133 189.782 61.9595C189.802 62.0057 189.831 62.0472 189.868 62.0814C189.905 62.1155 189.949 62.1417 189.997 62.1581C190.044 62.1745 190.095 62.1807 190.145 62.1765C190.23 62.1722 190.312 62.1403 190.378 62.0857C190.443 62.0311 190.489 61.9567 190.509 61.8737C190.509 61.8737 190.69 60.8135 190.842 59.2384C190.993 57.6634 191.236 55.5735 191.326 53.4835C191.326 52.4234 191.326 51.3633 191.326 50.4546C191.326 49.546 191.326 48.5465 191.326 47.759C191.326 46.1537 191.326 45.1237 191.326 45.1237C191.327 45.0734 191.316 45.0235 191.296 44.9773C191.276 44.9311 191.247 44.8896 191.21 44.8554C191.173 44.8212 191.129 44.7952 191.081 44.7788C191.033 44.7624 190.983 44.7561 190.933 44.7603C190.875 44.7937 190.827 44.8426 190.795 44.9014C190.763 44.9601 190.748 45.0266 190.751 45.0935V45.0632ZM197.778 47.1835C197.778 47.1835 197.596 48.0921 197.384 49.4248C197.384 50.1215 197.172 50.909 197.081 51.7571C196.99 52.6051 196.9 53.5138 196.809 54.4225C196.809 56.2398 196.597 58.0572 196.566 59.4202C196.536 60.7832 196.566 61.7222 196.566 61.7222C196.57 61.77 196.584 61.8165 196.605 61.8592C196.627 61.9018 196.657 61.9398 196.694 61.9707C196.731 62.0017 196.773 62.0252 196.819 62.0397C196.864 62.0542 196.912 62.0595 196.96 62.0554C197.042 62.0497 197.119 62.0167 197.179 61.9618C197.24 61.9068 197.28 61.8331 197.293 61.7525C197.293 61.7525 197.475 60.8437 197.687 59.511C197.899 58.1783 198.081 56.3307 198.232 54.5437C198.232 53.635 198.232 52.7263 198.414 51.8782C198.596 51.0301 198.414 50.2123 198.414 49.5157C198.414 48.1527 198.414 47.244 198.414 47.244C198.414 47.1936 198.404 47.1438 198.384 47.0976C198.364 47.0514 198.334 47.0099 198.297 46.9757C198.26 46.9415 198.216 46.9154 198.169 46.8991C198.121 46.8827 198.071 46.8764 198.02 46.8806C197.953 46.9083 197.895 46.9541 197.852 47.0129C197.809 47.0717 197.784 47.1412 197.778 47.2137V47.1835ZM204.563 50.0609C204.563 50.0609 204.381 50.8181 204.139 51.9691C204.139 52.5143 203.896 53.1807 203.806 53.9076C203.715 54.6346 203.594 55.3918 203.472 56.149C203.26 57.6937 203.169 59.1779 203.109 60.3894C203.048 61.601 203.109 62.328 203.109 62.328C203.109 62.3784 203.119 62.4282 203.139 62.4744C203.159 62.5206 203.189 62.5621 203.226 62.5963C203.263 62.6305 203.307 62.6566 203.354 62.6729C203.402 62.6893 203.452 62.6956 203.503 62.6914C203.58 62.6874 203.654 62.6588 203.714 62.6097C203.774 62.5607 203.817 62.4938 203.836 62.4188C203.836 62.4188 204.048 61.6616 204.26 60.5409C204.472 59.4202 204.775 57.8452 204.957 56.3307C204.957 55.5432 205.108 54.786 205.169 54.059C205.229 53.3321 205.169 52.6658 205.169 52.0903C205.169 50.9393 205.169 50.1517 205.169 50.1517C205.169 50.1013 205.158 50.0515 205.138 50.0053C205.118 49.9591 205.089 49.9176 205.052 49.8834C205.015 49.8492 204.971 49.8231 204.923 49.8068C204.875 49.7904 204.825 49.7841 204.775 49.7883C204.719 49.8195 204.671 49.8629 204.634 49.9154C204.597 49.9678 204.573 50.028 204.563 50.0912V50.0609Z" fill="#F18380"/>
    <path d="M110.989 90.9595L177.003 135.482C176.725 137.759 182.075 90.9595 182.075 90.9595L206.509 93.2402C206.509 93.2402 205.081 140.888 201.485 166.052C200.058 176.039 191.746 179.826 181.89 177.675C177.024 176.614 172.442 174.617 168.366 171.755C150.847 159.459 101.701 124.826 97.6825 120.469C90.7501 112.952 90.7501 107.321 94.7342 101.132C98.7183 94.9437 107.244 90.0299 110.989 90.9595Z" fill="#001A4B"/>
    <path d="M28.0378 326.992C27.6151 330.224 27.8374 333.507 28.6916 336.651C29.5458 339.796 31.0151 342.74 33.0145 345.314C35.0139 347.887 37.5036 350.038 40.3398 351.643C43.1759 353.248 46.3021 354.274 49.5376 354.663C52.773 355.052 56.0534 354.796 59.1891 353.909C62.3248 353.022 65.2535 351.522 67.8057 349.496C70.358 347.47 72.4832 344.957 74.0584 342.105C75.6336 339.252 76.6275 336.115 76.9826 332.876C76.9826 332.876 89.8147 242.747 92.8579 224.538C95.9011 206.33 92.6804 191.088 72.291 186.752C51.1408 182.263 37.9282 197.758 36.3305 213.278C34.7329 228.799 28.0378 326.992 28.0378 326.992Z" fill="#93929C"/>
    <path d="M68.4869 328.742C68.4062 335.28 70.9258 341.582 75.4915 346.261C80.0571 350.941 86.2949 353.616 92.8325 353.696C99.37 353.777 105.672 351.257 110.352 346.692C115.031 342.126 117.706 335.888 117.787 329.351C117.787 329.351 120.906 238.359 121.971 219.923C123.036 201.486 118.218 186.701 97.4733 184.571C75.9681 182.365 64.5054 199.178 64.5054 214.8C64.5054 230.422 68.4869 328.742 68.4869 328.742Z" fill="#93929C"/>
    <path d="M108.961 435.964C108.961 435.964 107.744 487.673 107.439 495.408C107.135 503.143 102.24 505.247 94.3535 505.932C86.4665 506.617 83.1444 500.353 82.0286 495.382C80.9128 490.412 74.167 439.717 74.167 439.717L108.961 435.964Z" fill="#FBBEAA"/>
    <path d="M108.073 472.026L78.9854 475.145C76.7283 459.143 74.167 439.641 74.167 439.641L108.961 435.888C108.961 435.888 108.504 455.263 108.073 472.026Z" fill="#F18380"/>
    <path d="M68.4863 328.743C68.5263 325.506 69.2034 322.308 70.4791 319.333C71.7548 316.357 73.6041 313.662 75.9213 311.402C78.2385 309.141 80.9783 307.359 83.9842 306.157C86.9902 304.955 90.2034 304.357 93.4405 304.397C96.6776 304.437 99.8751 305.114 102.85 306.39C105.826 307.666 108.521 309.515 110.781 311.832C113.042 314.149 114.824 316.889 116.026 319.895C117.228 322.901 117.826 326.114 117.786 329.351L112.714 473.478L72.9243 477.764L68.4863 328.743Z" fill="#93929C"/>
    <path d="M56.8976 437.942C56.8976 437.942 50.1519 489.22 49.036 496.853C47.9202 504.487 42.8229 506.11 34.8852 505.932C26.9475 505.755 24.3354 499.187 23.7521 494.14C23.1689 489.093 21.9009 437.942 21.9009 437.942H56.8976Z" fill="#FBBEAA"/>
    <path d="M52.0279 473.7H22.7625C22.2553 457.571 21.7734 437.942 21.7734 437.942H56.897C56.897 437.942 54.361 457.064 52.0279 473.7Z" fill="#F18380"/>
    <path d="M28.0373 326.992C28.8795 320.554 32.2279 314.709 37.3551 310.725C42.4823 306.741 48.9743 304.941 55.4209 305.716C61.8674 306.491 67.7479 309.778 71.7849 314.864C75.822 319.949 77.6896 326.422 76.9821 332.876L54.9194 478.55H14.9014L28.0373 326.992Z" fill="#93929C"/>
    <path d="M76.9567 332.876L54.209 477.282" stroke="#676767" stroke-width="0.75" stroke-miterlimit="10" stroke-linecap="round"/>
    <path d="M76.9824 332.876C76.9824 332.876 89.8145 242.747 92.8577 224.538" stroke="#676767" stroke-width="0.75" stroke-miterlimit="10" stroke-linecap="round"/>
    <path d="M37.5476 479.71C40.4239 479.504 43.2759 480.361 45.562 482.119C47.848 483.876 49.409 486.412 49.9486 489.245L63.1865 502.813V511.258H20.7593C20.7593 511.258 22.8895 496.042 23.4982 492.618C24.1068 489.195 26.1609 479.71 37.5476 479.71Z" fill="#FBBEAA"/>
    <path d="M49.9231 489.144C50.4049 488.484 51.0896 487.977 51.5714 488.281C52.0533 488.586 64.8601 498.73 65.4687 499.237C65.8435 499.589 66.1271 500.027 66.295 500.513C66.4629 500.999 66.51 501.518 66.4324 502.027V512.906H19.8208C19.8208 512.906 21.6467 496.828 21.7735 495.94C21.9003 495.053 22.7879 493.886 23.2951 493.911C26.4944 494.892 29.8147 495.421 33.1601 495.484C37.6064 495.719 42.0417 494.848 46.0683 492.948C47.5613 491.909 48.8651 490.623 49.9231 489.144Z" fill="#2E70AC"/>
    <path d="M58.7738 503.776C56.5168 502.103 48.4016 495.763 45.3584 493.379L46.0685 493.024C46.1643 492.983 46.2506 492.922 46.3221 492.846C49.5682 495.382 57.2015 501.367 59.3825 502.99C61.2261 504.403 62.489 506.442 62.9329 508.722L61.9438 508.874C61.5255 506.852 60.4019 505.045 58.7738 503.776Z" fill="#1E2173"/>
    <path d="M21.0892 501.824C24.3741 501.857 27.5529 502.991 30.1173 505.044C32.4351 507.098 34.0051 509.863 34.5806 512.906H33.2112C32.6511 510.269 31.2654 507.88 29.2551 506.084C26.8949 504.194 23.9608 503.165 20.937 503.168L21.0892 501.824Z" fill="#1E2173"/>
    <path d="M73.9644 512.881H19.821C19.4428 512.881 19.1362 513.188 19.1362 513.566V518.815C19.1362 519.193 19.4428 519.5 19.821 519.5H73.9644C74.3426 519.5 74.6492 519.193 74.6492 518.815V513.566C74.6492 513.188 74.3426 512.881 73.9644 512.881Z" fill="white"/>
    <path d="M65.3419 499.136C65.8237 498.933 68.1822 499.617 71.2508 502.635C72.5284 503.956 73.4481 505.58 73.9229 507.355C74.3977 509.13 74.412 510.997 73.9643 512.779H58.5708C59.433 503.041 64.8601 499.338 65.3419 499.136Z" fill="white"/>
    <path d="M59.4331 499.288C59.2431 499.521 59.1524 499.819 59.1809 500.118C59.2094 500.417 59.3547 500.693 59.5853 500.886C59.6985 500.979 59.829 501.049 59.9693 501.092C60.1096 501.135 60.257 501.15 60.403 501.136C60.5491 501.122 60.6909 501.079 60.8204 501.01C60.9499 500.941 61.0644 500.847 61.1576 500.734L63.6936 497.665C63.8837 497.432 63.9743 497.134 63.9458 496.835C63.9173 496.536 63.772 496.26 63.5414 496.067C63.4298 495.971 63.2996 495.898 63.1589 495.853C63.0181 495.808 62.8697 495.792 62.7227 495.806C62.5756 495.821 62.433 495.865 62.3035 495.936C62.174 496.007 62.0602 496.103 61.9691 496.22L59.4331 499.288Z" fill="white"/>
    <path d="M56.4156 496.98C56.2255 497.213 56.1349 497.511 56.1633 497.81C56.1918 498.109 56.3371 498.385 56.5677 498.578C56.6794 498.675 56.8096 498.747 56.9504 498.792C57.0911 498.837 57.2395 498.853 57.3865 498.839C57.5335 498.825 57.6762 498.781 57.8057 498.71C57.9352 498.639 58.049 498.542 58.1401 498.426L60.6761 495.357C60.86 495.122 60.9467 494.825 60.9184 494.528C60.8901 494.231 60.7489 493.956 60.5239 493.759C60.4122 493.663 60.282 493.59 60.1413 493.545C60.0005 493.5 59.8521 493.484 59.7051 493.498C59.5581 493.513 59.4155 493.557 59.2859 493.628C59.1564 493.699 59.0426 493.795 58.9516 493.912L56.4156 496.98Z" fill="white"/>
    <path d="M53.4991 494.698C53.3075 494.923 53.2132 495.216 53.237 495.51C53.2608 495.805 53.4007 496.079 53.6259 496.27C53.8586 496.46 54.1568 496.551 54.4559 496.523C54.7551 496.494 55.0309 496.349 55.2235 496.118L57.7595 493.05C57.8661 492.946 57.9508 492.821 58.0086 492.684C58.0665 492.547 58.0963 492.4 58.0963 492.251C58.0963 492.102 58.0665 491.955 58.0086 491.817C57.9508 491.68 57.8661 491.556 57.7595 491.452C57.5243 491.268 57.2276 491.181 56.9304 491.21C56.6332 491.238 56.3581 491.379 56.1619 491.604L53.4991 494.698Z" fill="white"/>
    <path d="M50.557 492.39C50.4636 492.503 50.3934 492.634 50.3505 492.774C50.3076 492.914 50.2928 493.062 50.3069 493.208C50.3211 493.354 50.3639 493.496 50.4329 493.625C50.5019 493.755 50.5958 493.869 50.7091 493.962C50.9224 494.172 51.2093 494.289 51.508 494.289C51.8067 494.289 52.0935 494.172 52.3068 493.962L54.8428 490.869C55.0329 490.636 55.1235 490.338 55.095 490.038C55.0665 489.739 54.9212 489.464 54.6906 489.271C54.5775 489.177 54.447 489.107 54.3067 489.064C54.1664 489.021 54.019 489.007 53.8729 489.021C53.7269 489.035 53.5851 489.078 53.4556 489.147C53.3261 489.216 53.2115 489.31 53.1183 489.423L50.557 492.39Z" fill="white"/>
    <path d="M97.1437 479.71C100.02 479.504 102.872 480.361 105.158 482.119C107.444 483.876 109.005 486.412 109.545 489.245L122.757 502.813V511.258H80.3555C80.3555 511.258 82.4603 496.042 83.0943 492.618C83.7283 489.195 85.7571 479.71 97.1437 479.71Z" fill="#FBBEAA"/>
    <path d="M109.519 489.144C110.001 488.484 110.66 487.977 111.168 488.281C111.675 488.586 124.456 498.73 125.04 499.237C125.623 499.744 126.029 500.378 126.029 502.027V512.906H79.417C79.417 512.906 81.2429 496.828 81.3697 495.94C81.4965 495.053 82.3841 493.886 82.8913 493.911C86.0905 494.892 89.4109 495.421 92.7564 495.484C97.1948 495.724 101.623 494.852 105.639 492.948C107.144 491.915 108.457 490.628 109.519 489.144Z" fill="#2E70AC"/>
    <path d="M118.369 503.776C116.112 502.103 107.997 495.763 104.954 493.379L105.639 493.024C105.742 492.983 105.837 492.923 105.918 492.846C109.164 495.382 116.797 501.367 118.978 502.99C120.822 504.403 122.085 506.442 122.529 508.722L121.539 508.874C121.109 506.857 119.988 505.054 118.369 503.776Z" fill="#1E2173"/>
    <path d="M80.6854 501.824C83.9703 501.857 87.1491 502.991 89.7135 505.044C92.0313 507.098 93.6013 509.863 94.1769 512.906H92.8074C92.2404 510.266 90.8455 507.876 88.8259 506.084C86.4776 504.19 83.55 503.161 80.5332 503.168L80.6854 501.824Z" fill="#1E2173"/>
    <path d="M133.56 512.881H79.4162C79.038 512.881 78.7314 513.188 78.7314 513.566V518.815C78.7314 519.193 79.038 519.5 79.4162 519.5H133.56C133.938 519.5 134.244 519.193 134.244 518.815V513.566C134.244 513.188 133.938 512.881 133.56 512.881Z" fill="white"/>
    <path d="M124.938 499.136C125.42 498.933 127.778 499.617 130.847 502.635C132.125 503.956 133.044 505.58 133.519 507.355C133.994 509.13 134.008 510.997 133.561 512.779H118.167C119.029 503.041 124.456 499.338 124.938 499.136Z" fill="white"/>
    <path d="M118.927 499.288C118.737 499.521 118.647 499.819 118.675 500.118C118.704 500.417 118.849 500.693 119.079 500.886C119.193 500.979 119.323 501.049 119.463 501.092C119.604 501.135 119.751 501.15 119.897 501.136C120.043 501.122 120.185 501.079 120.315 501.01C120.444 500.941 120.559 500.847 120.652 500.734L123.188 497.665C123.372 497.43 123.458 497.133 123.43 496.836C123.402 496.539 123.261 496.264 123.036 496.067C122.924 495.971 122.794 495.898 122.653 495.853C122.512 495.808 122.364 495.792 122.217 495.806C122.07 495.821 121.927 495.865 121.798 495.936C121.668 496.007 121.554 496.103 121.463 496.22L118.927 499.288Z" fill="white"/>
    <path d="M116.011 496.98C115.821 497.213 115.731 497.511 115.759 497.81C115.788 498.109 115.933 498.385 116.163 498.578C116.275 498.674 116.405 498.747 116.546 498.792C116.687 498.837 116.835 498.853 116.982 498.839C117.129 498.824 117.272 498.78 117.401 498.709C117.531 498.638 117.645 498.542 117.736 498.425L120.272 495.357C120.456 495.122 120.542 494.825 120.514 494.528C120.486 494.23 120.345 493.955 120.12 493.759C119.887 493.569 119.589 493.478 119.289 493.507C118.99 493.535 118.715 493.681 118.522 493.911L116.011 496.98Z" fill="white"/>
    <path d="M113.095 494.698C112.989 494.799 112.905 494.922 112.847 495.057C112.789 495.192 112.76 495.337 112.76 495.484C112.76 495.631 112.789 495.776 112.847 495.911C112.905 496.046 112.989 496.168 113.095 496.27C113.327 496.46 113.626 496.551 113.925 496.522C114.224 496.494 114.5 496.348 114.692 496.118L117.228 493.049C117.418 492.817 117.509 492.518 117.48 492.219C117.452 491.92 117.307 491.644 117.076 491.452C116.963 491.358 116.832 491.288 116.692 491.245C116.552 491.202 116.404 491.187 116.258 491.202C116.112 491.216 115.97 491.259 115.841 491.328C115.712 491.397 115.597 491.49 115.504 491.604L113.095 494.698Z" fill="white"/>
    <path d="M110.154 492.39C110.06 492.503 109.99 492.634 109.947 492.774C109.904 492.914 109.889 493.062 109.904 493.208C109.918 493.354 109.961 493.496 110.03 493.625C110.099 493.755 110.192 493.869 110.306 493.962C110.519 494.172 110.806 494.289 111.105 494.289C111.403 494.289 111.69 494.172 111.904 493.962L114.44 490.869C114.63 490.636 114.72 490.338 114.692 490.038C114.663 489.739 114.518 489.464 114.287 489.271C114.174 489.177 114.044 489.107 113.903 489.064C113.763 489.021 113.616 489.007 113.47 489.021C113.324 489.035 113.182 489.078 113.052 489.147C112.923 489.216 112.808 489.31 112.715 489.423L110.154 492.39Z" fill="white"/>
    <path d="M121.225 200.199C121.225 200.199 121.225 226.498 121.225 227.943C121.225 229.389 108.763 241.79 92.2147 241.79C66.7686 241.79 36.3131 232.331 36.7617 226.168C37.0608 222.11 37.4346 200.199 37.4346 200.199H121.225Z" fill="#93929C"/>
    <path d="M103.032 87.1625C103.032 87.1625 118.594 95.5894 121.307 97.3646C124.021 99.1398 127.165 101.879 126.582 109.284C125.999 116.689 123.665 215.314 123.665 215.314C117.305 215.314 106.294 215.314 106.294 215.314H99.0917C99.0917 215.314 94.3312 215.314 91.2809 215.314C85.8339 215.314 77.3329 215.314 77.3329 215.314H73.8988H70.156C70.156 215.314 38.9886 215.77 38.2025 215.314C37.0546 215.314 34.6818 216.18 34.6816 215.314C34.7577 214.452 37.2895 110.121 37.6192 105.657C37.6845 103.267 38.4366 100.946 39.7858 98.9718C41.1349 96.9976 43.024 95.4536 45.2272 94.5243C50.5274 92.1658 66.3665 86.0513 66.3665 86.0513C66.3665 86.0513 80.8863 104.358 90.116 100.843C96.0781 98.5717 103.032 87.1625 103.032 87.1625Z" fill="#002366"/>
    <path d="M34.8517 209.036L34.5597 217.17C34.5597 217.17 66.9806 219.412 86.3766 219.346C104.239 219.286 123.646 217.405 123.646 217.405L123.808 210.088C123.808 210.088 103.028 210.993 84.4112 210.993C59.3515 210.993 34.8517 209.036 34.8517 209.036Z" fill="#00163F"/>
    <path d="M113.512 86.7735C115.956 96.2929 101.01 104.83 87.8135 101.357C101.705 92.3275 101.01 86.7711 101.01 86.7711V77.0472C105.177 76.3527 111.974 80.7819 113.512 86.7735Z" fill="#001A4B"/>
    <path d="M70.4508 73.5746C66.2835 72.88 52.7963 74.29 48.2251 81.9091C46.1414 85.3821 50.4379 92.2963 50.4379 92.2963C50.4379 92.2963 50.7443 92.2963 55.0775 90.6768C58.5503 98.3171 76.0072 104.83 88.8097 101.428C70.4508 91.6331 70.4508 86.7706 70.4508 86.7706V73.5746Z" fill="#001A4B"/>
    <path d="M68.8073 135.272H71.541V138.749H74.4579V135.272H77.1916V144.77H74.4579V141.009H71.5405V144.77H68.8069V135.272H68.8073ZM86.9466 135.272V144.77H84.3052V137.524H82.5749V140.25C82.5749 141.475 82.4826 142.976 81.7552 143.821C81.0282 144.761 79.6575 145.046 78.1108 144.761V142.406C79.5657 142.691 79.9335 142.122 79.9335 140.241V135.255H86.9466V135.272ZM89.2289 135.272H91.9625L93.5088 140.914L95.055 135.272H97.7887L99.0676 144.77H96.518L95.8828 139.689L94.4194 144.77H92.5973L91.1429 139.689L90.5077 144.77H87.9581L89.2284 135.272L89.2289 135.272ZM100.07 135.272H102.804V139.128L105.446 135.272H108.455L104.995 139.974L108.548 144.77H105.271L102.813 140.914V144.77H100.079V135.272H100.071H100.07ZM88.3092 125.11C71.9083 125.11 61.0581 131.226 61.0581 140.25C61.0581 149.186 71.9002 155.389 88.3092 155.389C104.802 155.389 115.56 149.178 115.56 140.25C115.56 131.226 104.81 125.11 88.3092 125.11ZM88.3092 153.983C72.9031 153.983 62.6129 148.436 62.6129 140.25C62.6129 131.977 72.9117 126.516 88.3092 126.516C103.799 126.516 114.014 131.968 114.014 140.25C114.014 148.436 103.807 153.983 88.3092 153.983ZM88.3092 127.836C73.8228 127.836 64.1596 132.822 64.1596 140.25C64.1596 147.677 73.8228 152.663 88.3092 152.663C102.796 152.663 112.459 147.677 112.459 140.25C112.467 132.822 102.804 127.836 88.3092 127.836ZM88.3092 152.387C73.9983 152.387 64.4355 147.496 64.4355 140.258C64.4355 133.02 74.0064 128.13 88.3092 128.13C102.612 128.13 112.183 133.02 112.183 140.258C112.191 147.496 102.62 152.387 88.3092 152.387V152.387Z" fill="white"/>
    <path d="M55.7819 141.559C60.3721 136.917 68.9561 126.907 71.8607 124.469C74.7327 122.305 77.8703 120.518 81.1968 119.153C83.7205 118.307 86.3295 117.742 88.9768 117.467C90.8181 117.234 91.5702 117.778 91.5702 118.893C91.5239 119.558 91.3122 120.2 90.9544 120.762C90.5966 121.323 90.1039 121.786 89.5214 122.109H92.9187C94.0857 122.109 94.8378 123.043 94.2932 124.547C93.7985 125.541 93.0915 126.414 92.2221 127.104C91.3527 127.794 90.3421 128.284 89.2621 128.541C89.2621 128.541 93.8523 128.982 95.0193 129.215C96.1863 129.448 96.5494 129.889 96.5494 131.004C96.5393 131.775 96.3253 132.529 95.9289 133.189C95.5326 133.85 94.9681 134.393 94.2932 134.765C92.6411 135.435 90.8874 135.821 89.1065 135.906C89.1065 135.906 94.7859 137.332 95.927 137.747C97.0681 138.162 97.1978 138.914 96.6013 139.9C96.2614 140.594 95.7706 141.203 95.1649 141.683C94.5591 142.163 93.8537 142.502 93.1003 142.674C90.9478 143.245 89.4955 142.311 88.7175 142.441C87.0459 142.98 85.409 143.62 83.8161 144.36C81.424 146.742 78.4993 148.52 75.2839 149.547C72.8905 150.551 70.6951 151.974 68.8006 153.748C67.9181 154.576 66.8784 155.219 65.7431 155.638C64.6079 156.058 63.4001 156.245 62.1911 156.19C60.9822 156.134 59.7967 155.836 58.7047 155.315C57.6127 154.793 56.6365 154.057 55.8338 153.152C51.6844 148.743 52.3846 145.06 55.7819 141.559Z" fill="#FBBEAA"/>
    <path d="M71.0404 157.345L29.2922 204.291C24.2893 210.958 12.5987 214.623 5.4559 208.445C4.13502 207.288 3.06297 205.875 2.30477 204.291C1.54658 202.707 1.11803 200.985 1.04514 199.231C0.972253 197.476 1.25654 195.725 1.88075 194.083C2.50496 192.442 3.45608 190.944 4.67644 189.682L55.2706 136.723L71.0404 157.345Z" fill="#002366"/>
    <path d="M88.9514 122.135C88.9587 122.178 88.957 122.222 88.9463 122.264C88.9356 122.306 88.9163 122.346 88.8894 122.38C88.8625 122.414 88.8287 122.443 88.7902 122.463C88.7518 122.483 88.7095 122.495 88.6661 122.498L86.5396 122.706H85.5022C85.1392 122.706 84.802 122.835 84.439 122.861C84.0554 122.976 83.6824 123.124 83.3238 123.302L82.1308 123.795C80.523 124.443 78.9151 125.04 77.7222 125.481C76.5292 125.921 75.6993 126.181 75.6993 126.181C75.6336 126.209 75.5598 126.211 75.4926 126.187C75.4254 126.163 75.3696 126.114 75.3363 126.051C75.2879 125.988 75.2617 125.91 75.2617 125.831C75.2617 125.751 75.2879 125.674 75.3363 125.61L77.2813 124.599L79.3041 123.639C80.0302 123.302 80.8342 122.965 81.6381 122.654L82.857 122.187C83.249 122.01 83.6572 121.871 84.0759 121.772L85.3207 121.642H86.384H87.9659H88.5624C88.6277 121.591 88.7109 121.567 88.7936 121.577C88.8762 121.587 88.9517 121.629 89.0033 121.694C89.0549 121.76 89.0784 121.843 89.0687 121.925C89.0589 122.008 89.0167 122.084 88.9514 122.135ZM88.4586 128.385H87.9918C87.6036 128.35 87.213 128.35 86.8248 128.385L86.0209 128.515C85.7245 128.552 85.4303 128.604 85.1391 128.67L83.3757 129.241C82.1827 129.63 81.0157 130.123 80.134 130.486C80.134 130.486 79.8487 130.486 79.8746 130.615H79.5634L79.0967 130.745H78.8114H78.6558C78.5775 130.764 78.5094 130.812 78.4659 130.88C78.4224 130.947 78.4068 131.029 78.4224 131.108C78.4337 131.17 78.4653 131.227 78.5122 131.269C78.5591 131.311 78.6188 131.337 78.6817 131.342H80.0043H80.4192C81.3269 131.108 82.5458 130.745 83.7387 130.33L85.4763 129.682L86.2802 129.474L86.9804 129.267C87.3385 129.161 87.7022 129.074 88.0696 129.008L88.5105 128.878C88.5498 128.866 88.5862 128.847 88.6179 128.821C88.6495 128.795 88.6758 128.763 88.695 128.726C88.7143 128.69 88.7262 128.651 88.7302 128.61C88.7341 128.569 88.73 128.528 88.718 128.489C88.6873 128.451 88.6473 128.421 88.6019 128.403C88.5565 128.385 88.5071 128.379 88.4586 128.385ZM88.4586 135.75H87.4991C87.2398 135.75 86.9027 135.75 86.5655 135.932L85.5022 136.269C84.8332 136.505 84.183 136.791 83.5572 137.125C83.2695 137.26 82.9922 137.416 82.7273 137.592C82.6744 137.653 82.6453 137.731 82.6453 137.812C82.6453 137.893 82.6744 137.971 82.7273 138.032C82.8018 138.111 82.9042 138.158 83.0126 138.162L83.9722 138.007C84.5168 137.877 85.217 137.669 85.9172 137.436L86.9286 137.021L87.8103 136.684C88.1039 136.554 88.3897 136.407 88.6661 136.243C88.7395 136.2 88.7936 136.13 88.8177 136.048C88.8418 135.966 88.8339 135.878 88.7958 135.802C88.7189 135.753 88.6263 135.734 88.5364 135.75H88.4586Z" fill="#F18380"/>
</svg>
