<svg width="196" height="527" viewBox="0 0 196 527" fill="none" xmlns="http://www.w3.org/2000/svg">
    <path d="M34.6309 223.493C35.1819 216.556 42.6199 189.96 50.6089 174.808C50.6089 174.808 68.0372 177.01 79.2603 177.046C90.9701 177.084 109.161 174.808 109.161 174.808C114.371 186.604 120.306 212.374 122.034 217.934C123.077 221.205 123.204 224.699 122.4 228.037C121.597 231.375 119.894 234.429 117.476 236.867C111.541 243.604 96.2388 251.317 92.7076 251.317C77.5154 249.147 62.6243 245.231 48.3299 239.647C40.2658 236.266 34.105 230.456 34.6309 223.493Z" fill="#93929C"/>
    <path d="M172.948 79.0403C173.052 76.7835 172.447 74.5509 171.22 72.6541C169.331 70.4635 167.915 67.9054 167.063 65.141C166.407 62.5749 165.36 60.1252 163.958 57.8782C162.956 56.5008 161.453 55.3739 161.453 54.322C161.453 53.2702 163.457 51.2416 166.312 51.8176C167.535 52.1986 168.658 52.8452 169.602 53.7111C170.546 54.577 171.287 55.6408 171.771 56.8264C172.045 56.104 172.205 55.3438 172.247 54.5725L172.873 39.2206C172.883 38.8226 172.972 38.4306 173.135 38.0676C173.299 37.7047 173.534 37.3782 173.825 37.1074C174.117 36.8366 174.46 36.627 174.834 36.491C175.208 36.355 175.606 36.2953 176.004 36.3155C176.637 36.3425 177.245 36.5672 177.744 36.958C178.242 37.3488 178.606 37.8861 178.784 38.4943V37.7931C178.88 37.0468 179.255 36.3646 179.833 35.8834C180.412 35.4022 181.151 35.1576 181.902 35.1988C182.654 35.24 183.362 35.564 183.884 36.1056C184.407 36.6471 184.705 37.3663 184.719 38.1187V40.2474C184.97 39.5911 185.448 39.0468 186.067 38.7136C186.685 38.3805 187.403 38.2808 188.089 38.4325C188.775 38.5843 189.384 38.9775 189.804 39.5404C190.224 40.1034 190.428 40.7987 190.379 41.4996V42.8519C190.648 42.3782 191.05 41.9933 191.535 41.7442C192.02 41.4952 192.567 41.3927 193.109 41.4495C193.851 41.5437 194.527 41.9231 194.995 42.5074C195.462 43.0918 195.684 43.835 195.613 44.5799L194.386 57.5276C193.582 64.8274 192.072 72.0319 189.878 79.0403C189.851 80.2105 189.58 81.3621 189.082 82.4212C188.584 83.4804 187.87 84.4236 186.985 85.1901C186.101 85.9567 185.065 86.5297 183.946 86.8723C182.827 87.2149 181.649 87.3196 180.486 87.1796C179.435 87.2146 178.388 87.0232 177.417 86.6181C176.446 86.213 175.573 85.6038 174.858 84.8318C174.143 84.0599 173.603 83.1432 173.273 82.1439C172.944 81.1446 172.833 80.0861 172.948 79.0403Z" fill="#FBBEAA"/>
    <path d="M88.5508 487.756C88.5508 485.345 89.5086 483.033 91.2134 481.328C92.9183 479.623 95.2307 478.665 97.6417 478.665C100.053 478.665 102.365 479.623 104.07 481.328C105.775 483.033 106.733 485.345 106.733 487.756V507.516H88.5508V487.756Z" fill="#FBBEAA"/>
    <path d="M106.081 491.438C108.31 491.438 108.711 492.414 109.362 493.691C110.418 497.095 112.224 500.219 114.646 502.832C118.263 505.913 122.143 508.67 126.242 511.072V521.54H85.7708C85.7708 521.54 86.0462 513.276 86.2466 507.44C86.4469 501.605 87.023 494.493 86.9729 493.741C86.9228 492.99 86.9729 491.438 88.3503 491.438H106.081Z" fill="#302D3B"/>
    <path d="M90.8047 508.016C90.7998 509.301 91.1767 510.559 91.8875 511.629C92.5983 512.7 93.6111 513.535 94.7973 514.029C95.9836 514.523 97.2898 514.654 98.5504 514.404C99.8109 514.155 100.969 513.536 101.878 512.628C102.786 511.719 103.405 510.561 103.654 509.301C103.903 508.04 103.773 506.734 103.279 505.548C102.785 504.361 101.95 503.349 100.879 502.638C99.8086 501.927 98.5511 501.55 97.2661 501.555C95.5545 501.562 93.9148 502.244 92.7045 503.455C91.4942 504.665 90.8113 506.305 90.8047 508.016Z" fill="#93929C"/>
    <path d="M97.2653 504.209L95.7878 506.388L93.2583 507.114L94.8611 509.193L94.786 511.823L97.2653 510.921L99.7447 511.823L99.6445 509.193L101.272 507.114L98.7429 506.388L97.2653 504.209Z" fill="white"/>
    <path d="M125.966 510.896C125.966 510.896 131.701 513.927 133.855 515.404C134.852 516.08 135.662 516.997 136.209 518.07C136.757 519.142 137.024 520.336 136.985 521.54H121.258C121.258 521.54 121.583 513.852 125.966 510.896Z" fill="white"/>
    <path d="M85.7708 521.54V525.873C85.7708 526.599 86.4219 527 87.5239 527H135.257C136.334 527 136.985 526.599 136.985 525.873V521.54H85.7708Z" fill="white"/>
    <path d="M121.257 507.966C121.396 507.753 121.612 507.602 121.86 507.546C122.108 507.49 122.368 507.533 122.585 507.665C122.693 507.732 122.786 507.819 122.86 507.922C122.934 508.025 122.986 508.142 123.014 508.266C123.042 508.389 123.045 508.517 123.023 508.642C123.001 508.767 122.954 508.886 122.885 508.993L121.207 511.697C121.127 511.837 121.009 511.953 120.868 512.033C120.727 512.112 120.568 512.152 120.406 512.148C120.22 512.145 120.039 512.093 119.88 511.998C119.772 511.931 119.678 511.844 119.605 511.741C119.531 511.638 119.478 511.521 119.45 511.397C119.422 511.274 119.42 511.146 119.442 511.021C119.464 510.896 119.511 510.777 119.579 510.671L121.257 507.966Z" fill="white"/>
    <path d="M118.303 505.887C118.385 505.792 118.485 505.714 118.598 505.657C118.71 505.6 118.833 505.566 118.958 505.557C119.084 505.548 119.21 505.563 119.33 505.603C119.449 505.642 119.56 505.705 119.655 505.787C119.751 505.869 119.829 505.969 119.885 506.082C119.942 506.194 119.976 506.317 119.985 506.442C119.995 506.568 119.979 506.694 119.94 506.814C119.9 506.933 119.838 507.044 119.755 507.139L117.802 509.443C117.712 509.549 117.601 509.635 117.476 509.695C117.351 509.755 117.214 509.789 117.076 509.794C116.894 509.791 116.717 509.737 116.565 509.638C116.412 509.54 116.29 509.401 116.212 509.237C116.134 509.074 116.103 508.891 116.123 508.711C116.143 508.531 116.213 508.359 116.324 508.216L118.303 505.887Z" fill="white"/>
    <path d="M115.523 503.559C115.723 503.43 115.962 503.379 116.196 503.414C116.431 503.448 116.644 503.567 116.798 503.748C116.951 503.929 117.033 504.159 117.029 504.396C117.025 504.633 116.935 504.861 116.776 505.036L114.547 506.965C114.372 507.113 114.15 507.193 113.921 507.19C113.783 507.195 113.646 507.168 113.52 507.112C113.394 507.055 113.282 506.971 113.194 506.864C113.102 506.778 113.028 506.673 112.978 506.557C112.927 506.44 112.901 506.315 112.901 506.188C112.901 506.062 112.927 505.936 112.978 505.82C113.028 505.704 113.102 505.599 113.194 505.512L115.523 503.559Z" fill="white"/>
    <path d="M110.639 502.407L113.144 500.854C113.363 500.724 113.625 500.685 113.874 500.746C114.122 500.807 114.336 500.963 114.471 501.18C114.539 501.288 114.584 501.408 114.604 501.534C114.625 501.66 114.619 501.788 114.589 501.912C114.559 502.036 114.504 502.152 114.428 502.255C114.351 502.357 114.255 502.443 114.145 502.507L111.641 504.06C111.492 504.158 111.318 504.21 111.14 504.21C110.977 504.206 110.817 504.16 110.677 504.077C110.537 503.993 110.42 503.875 110.339 503.734C110.206 503.517 110.164 503.257 110.22 503.009C110.276 502.762 110.426 502.545 110.639 502.407Z" fill="white"/>
    <path d="M108.535 499.176L111.34 497.999C111.579 497.9 111.848 497.899 112.087 497.998C112.327 498.096 112.518 498.286 112.617 498.525C112.666 498.642 112.691 498.767 112.691 498.893C112.691 499.02 112.666 499.145 112.617 499.262C112.568 499.378 112.496 499.484 112.406 499.572C112.316 499.661 112.209 499.731 112.091 499.777L109.286 500.955H108.911C108.695 500.943 108.489 500.86 108.325 500.718C108.161 500.577 108.049 500.385 108.006 500.173C107.963 499.961 107.991 499.741 108.087 499.547C108.183 499.353 108.341 499.196 108.535 499.101V499.176Z" fill="white"/>
    <path d="M106.783 495.57L109.888 494.793C110.134 494.734 110.393 494.774 110.61 494.905C110.826 495.037 110.981 495.249 111.04 495.495C111.1 495.74 111.06 496 110.928 496.216C110.797 496.432 110.585 496.587 110.339 496.647L107.259 497.448H107.033C106.818 497.446 106.608 497.374 106.437 497.243C106.266 497.112 106.141 496.929 106.082 496.722C106.028 496.476 106.071 496.22 106.201 496.005C106.332 495.791 106.54 495.635 106.783 495.57Z" fill="white"/>
    <path d="M75.2524 361.385C75.5279 349.264 83.6922 343.403 95.7884 343.704C107.885 344.004 116.6 350.341 116.324 362.437L106.733 488.733H88.5507L75.2524 361.385Z" fill="#FBBEAA"/>
    <path d="M73.6741 361.309C73.7415 358.431 74.3751 355.595 75.5386 352.962C76.7021 350.33 78.3729 347.952 80.4554 345.964C82.5379 343.977 84.9914 342.42 87.6759 341.381C90.3603 340.342 93.2231 339.842 96.1008 339.909C98.9785 339.977 101.815 340.61 104.448 341.774C107.08 342.937 109.458 344.608 111.446 346.69C113.433 348.773 114.99 351.227 116.029 353.911C117.068 356.595 117.568 359.458 117.501 362.336L123.187 492.164H73.675L73.6741 361.309Z" fill="#93929C"/>
    <path d="M11.916 487.756C11.916 485.345 12.8738 483.033 14.5787 481.328C16.2836 479.623 18.5959 478.665 21.0069 478.665C23.418 478.665 25.7303 479.623 27.4352 481.328C29.1401 483.033 30.0979 485.345 30.0979 487.756V507.516H11.916V487.756Z" fill="#FBBEAA"/>
    <path d="M29.4225 491.438C31.6764 491.438 32.0771 492.414 32.7032 493.691C33.7714 497.095 35.5852 500.218 38.0125 502.832C41.6244 505.919 45.505 508.676 49.6078 511.072V521.54H9.13696C9.13696 521.54 9.41245 513.276 9.6128 507.44C9.81315 501.605 10.3641 494.493 10.3391 493.741C10.3141 492.99 10.3391 491.438 11.6914 491.438H29.4225Z" fill="#302D3B"/>
    <path d="M14.146 508.016C14.1411 509.3 14.5173 510.557 15.227 511.627C15.9367 512.697 16.948 513.532 18.1328 514.027C19.3176 514.521 20.6225 514.654 21.8824 514.406C23.1423 514.159 24.3004 513.543 25.21 512.637C26.1197 511.731 26.7399 510.575 26.9923 509.316C27.2446 508.057 27.1176 506.752 26.6274 505.565C26.1372 504.378 25.3058 503.364 24.2386 502.65C23.1714 501.936 21.9164 501.555 20.6324 501.555C18.9165 501.555 17.2704 502.235 16.0547 503.446C14.839 504.657 14.1527 506.3 14.146 508.016Z" fill="#93929C"/>
    <path d="M20.6066 504.209L19.1291 506.388L16.5996 507.114L18.2275 509.193L18.1524 511.823L20.6066 510.921L23.086 511.823L23.0109 509.193L24.6387 507.114L22.0842 506.388L20.6066 504.209Z" fill="white"/>
    <path d="M49.3066 510.896C49.3066 510.896 55.0666 513.927 57.1954 515.404C58.1976 516.075 59.0114 516.991 59.5594 518.065C60.1074 519.139 60.3712 520.335 60.3259 521.54H44.5232C44.5232 521.54 44.9489 513.852 49.3066 510.896Z" fill="white"/>
    <path d="M9.13696 521.54V525.873C9.13696 526.599 9.76307 527 10.865 527H58.6487C59.7506 527 60.3767 526.599 60.3767 525.873V521.54H9.13696Z" fill="white"/>
    <path d="M44.6239 507.966C44.7601 507.75 44.9764 507.597 45.2254 507.541C45.4743 507.485 45.7354 507.53 45.9512 507.666C46.1671 507.802 46.32 508.018 46.3764 508.267C46.4328 508.516 46.3879 508.777 46.2518 508.993L44.5738 511.698C44.487 511.838 44.3651 511.954 44.2203 512.033C44.0754 512.112 43.9124 512.152 43.7474 512.149C43.5693 512.149 43.395 512.097 43.2465 511.998C43.1385 511.932 43.0449 511.845 42.9712 511.741C42.8974 511.638 42.845 511.522 42.817 511.398C42.789 511.274 42.7859 511.146 42.8081 511.021C42.8303 510.897 42.8771 510.777 42.946 510.671L44.6239 507.966Z" fill="white"/>
    <path d="M41.6433 505.887C41.8084 505.695 42.0418 505.575 42.2941 505.551C42.5465 505.528 42.798 505.603 42.9956 505.762C43.1896 505.932 43.3108 506.169 43.3341 506.426C43.3574 506.682 43.2811 506.938 43.1209 507.139L41.1424 509.443C41.0556 509.553 40.9452 509.641 40.8194 509.702C40.6936 509.763 40.5558 509.794 40.4161 509.794C40.2325 509.796 40.0523 509.745 39.8972 509.646C39.7422 509.548 39.6188 509.407 39.542 509.24C39.4653 509.074 39.4384 508.888 39.4646 508.707C39.4908 508.525 39.569 508.355 39.6898 508.216L41.6433 505.887Z" fill="white"/>
    <path d="M38.8888 503.559C39.0881 503.43 39.3272 503.379 39.5616 503.414C39.7961 503.448 40.0099 503.567 40.1631 503.748C40.3164 503.929 40.3986 504.159 40.3945 504.396C40.3905 504.633 40.3004 504.861 40.141 505.036L37.8871 506.965C37.7123 507.113 37.49 507.193 37.261 507.19C37.1234 507.193 36.9868 507.166 36.8611 507.109C36.7355 507.053 36.624 506.969 36.5347 506.864C36.4454 506.776 36.3744 506.671 36.326 506.555C36.2776 506.439 36.2527 506.314 36.2527 506.188C36.2527 506.063 36.2776 505.938 36.326 505.822C36.3744 505.706 36.4454 505.601 36.5347 505.512L38.8888 503.559Z" fill="white"/>
    <path d="M34.0045 502.406L36.5088 500.854C36.7249 500.763 36.9665 500.752 37.1896 500.824C37.4127 500.897 37.6023 501.047 37.7239 501.247C37.8454 501.448 37.8907 501.685 37.8516 501.917C37.8124 502.148 37.6914 502.357 37.5106 502.507L35.0062 504.059C34.8578 504.158 34.6835 504.21 34.5053 504.21C34.3384 504.207 34.1748 504.163 34.0301 504.079C33.8854 503.996 33.7645 503.877 33.6789 503.734C33.5488 503.514 33.51 503.252 33.5708 503.004C33.6317 502.756 33.7874 502.541 34.0045 502.406Z" fill="white"/>
    <path d="M172.648 80.7186L162.63 143.604C160.977 151.492 163.532 158.63 172.648 159.882C174.33 160.101 176.04 159.976 177.673 159.514C179.306 159.053 180.828 158.264 182.147 157.196C183.465 156.128 184.553 154.803 185.344 153.301C186.135 151.8 186.612 150.154 186.747 148.462L189.803 80.8437C190.604 74.4576 187.824 70.2001 182.966 69.6742C177.005 69.0231 173.85 72.5543 172.648 80.7186Z" fill="#FBBEAA"/>
    <path d="M31.9014 499.176L34.7063 497.999C34.8229 497.95 34.9481 497.925 35.0745 497.925C35.2009 497.925 35.3261 497.95 35.4427 497.999C35.5593 498.048 35.6649 498.12 35.7535 498.21C35.842 498.301 35.9117 498.408 35.9585 498.525C36.052 498.758 36.0521 499.018 35.9588 499.251C35.8656 499.485 35.6861 499.673 35.4576 499.777L32.6276 500.954C32.5122 500.98 32.3924 500.98 32.277 500.954C32.0842 500.954 31.8957 500.897 31.7352 500.79C31.5748 500.683 31.4496 500.531 31.3754 500.353C31.2994 500.127 31.3113 499.88 31.4087 499.662C31.5061 499.444 31.682 499.271 31.9014 499.176Z" fill="white"/>
    <path d="M30.1481 495.57L33.2285 494.794C33.4775 494.733 33.7404 494.772 33.9606 494.903C34.1808 495.034 34.3406 495.247 34.4056 495.495C34.4355 495.616 34.441 495.743 34.4219 495.867C34.4028 495.99 34.3594 496.109 34.2942 496.216C34.2291 496.323 34.1434 496.417 34.0422 496.49C33.941 496.564 33.8261 496.617 33.7043 496.647L30.6239 497.448H30.3735C30.1479 497.431 29.9353 497.336 29.772 497.179C29.6087 497.022 29.5048 496.814 29.4782 496.589C29.4516 496.364 29.5039 496.137 29.6261 495.947C29.7482 495.756 29.9327 495.614 30.1481 495.545V495.57Z" fill="white"/>
    <path d="M21.8587 361.009C23.0889 355.324 26.5263 350.36 31.4151 347.209C36.3038 344.058 42.2439 342.977 47.9294 344.204C59.7751 346.709 66.1613 358.379 63.6068 370.225L30.0982 490.811H11.6909L21.8587 361.009Z" fill="#FBBEAA"/>
    <path d="M21.862 358.629C23.2212 353.081 26.6907 348.282 31.5331 345.252C36.3754 342.222 42.2087 341.2 47.7927 342.403C53.3767 343.607 58.271 346.941 61.4353 351.697C64.5995 356.453 65.7839 362.255 64.7369 367.87L51.4142 491.659C51.4142 491.659 19.5083 493.562 0.5 491.659L21.862 358.629Z" fill="#93929C"/>
    <path d="M180.787 136.641L108.861 81.9955C100.471 76.6361 94.7615 79.4911 90.3037 85.2262C88.2679 88.002 87.324 91.4296 87.6519 94.8562C87.9798 98.2829 89.5566 101.469 92.0818 103.809L163.832 156.676C166.361 158.812 169.616 159.889 172.919 159.684C176.222 159.479 179.319 158.006 181.563 155.574L181.889 155.224C183.08 153.953 184 152.453 184.593 150.814C185.185 149.176 185.437 147.434 185.334 145.696C185.231 143.957 184.775 142.257 183.993 140.7C183.211 139.144 182.12 137.762 180.787 136.641Z" fill="#FBBEAA"/>
    <path d="M92.0817 103.784C91.4176 103.213 90.8134 102.575 90.2785 101.881C89.8056 100.098 89.7447 98.2316 90.1005 96.4222C90.4564 94.6128 91.2195 92.9081 92.3322 91.4375C96.1138 85.6023 104.053 81.0193 107.584 81.8958L111.09 83.6739L150.784 113.727C147.271 121.983 142.526 129.659 136.71 136.491L92.0817 103.784Z" fill="#F18380"/>
    <path d="M102.926 78.0884L165.169 120.068C164.907 122.215 171.807 78.0884 171.807 78.0884L191.331 80.6293C191.331 80.6293 190.934 125.187 188.019 148.835C186.856 158.275 179.07 161.879 169.777 159.851C165.189 158.85 160.869 156.968 157.025 154.269C140.508 142.676 94.1679 110.02 90.3792 105.912C83.8428 98.8248 83.8427 93.5155 87.5993 87.6803C91.3559 81.845 99.3949 77.2119 102.926 78.0884Z" fill="#001A4B"/>
    <path d="M73.6739 361.31L60.8264 226.799C60.8264 211.948 76.1282 195.77 98.6927 199.251C119.078 202.432 125.289 222.917 123.611 242.326C121.933 261.735 117.4 362.261 117.4 362.261C117.333 365.139 116.699 367.975 115.536 370.608C114.372 373.241 112.702 375.619 110.619 377.606C108.537 379.593 106.083 381.151 103.399 382.19C100.714 383.229 97.8514 383.729 94.9737 383.661C92.096 383.594 89.2598 382.96 86.6269 381.797C83.9941 380.633 81.6162 378.963 79.629 376.88C77.6418 374.798 76.0843 372.344 75.0453 369.66C74.0064 366.975 73.5063 364.112 73.5738 361.235L73.6739 361.31Z" fill="#93929C"/>
    <path d="M21.8593 358.63L34.6317 224.144C37.3364 209.543 55.4932 196.596 77.0059 204.259C96.4148 211.196 98.6687 232.484 93.3594 251.242C88.0501 269.999 64.7343 367.871 64.7343 367.871C63.3751 373.419 59.9056 378.218 55.0632 381.248C50.2209 384.278 44.3877 385.3 38.8037 384.097C33.2197 382.893 28.3253 379.559 25.1611 374.803C21.9968 370.047 20.8123 364.245 21.8593 358.63Z" fill="#93929C"/>
    <path d="M93.3585 251.242C88.0743 270 64.7334 367.872 64.7334 367.872" stroke="#5E5D63" stroke-width="0.75" stroke-miterlimit="10"/>
    <path d="M89.6024 75.9596C89.6024 75.9596 100.672 77.888 102.826 78.464C104.097 78.7622 105.271 79.3783 106.239 80.2543C107.207 81.1303 107.937 82.2377 108.36 83.4727C109.738 86.7535 116.825 108.241 117.476 110.57C117.917 113.136 117.503 115.775 116.299 118.083C115.272 120.888 109.963 133.661 109.963 133.661L109.162 174.808L79.2607 179.55L50.6092 174.808C50.6092 174.808 40.5916 98.2737 40.0908 93.5404C39.5899 88.8071 41.944 79.6661 47.6039 78.5141C53.2638 77.3621 68.791 76.0097 68.791 76.0097L89.6024 75.9596Z" fill="#FBBEAA"/>
    <path d="M110.566 158.263V172.729C90.9814 174.533 59.7755 173.255 48.0549 172.729C47.504 168.597 46.928 161.585 46.3269 156.927C62.2798 157.327 88.6273 158.814 110.566 158.263Z" fill="white"/>
    <path d="M92.7866 76.3343C92.0056 81.0201 87.5254 86.3088 81.2777 86.759C72.6872 87.378 69.7482 84.1439 66.2339 75.9438C66.2339 75.9438 49.7323 77.287 47.3281 77.5374C41.6339 79.0677 40.0423 83.5557 39.291 88.4392C38.5397 93.3228 40.853 178.549 40.853 178.549C40.853 178.549 92.5389 181.504 116.606 178.549C116.606 178.549 118.052 116.369 118.177 114.992C118.277 113.491 118.188 108.334 116.997 103.668C114.829 95.1836 109.437 84.2742 108.009 81.87C106.915 79.9574 105.118 78.5469 103.001 77.9381C101.523 77.4623 92.7866 76.3343 92.7866 76.3343Z" fill="#002366"/>
    <path d="M70.3553 108.322L72.6303 108.186L72.8028 111.079L75.2303 110.935L75.0578 108.042L77.3329 107.906L77.804 115.81L75.5289 115.946L75.3424 112.816L72.9145 112.96L73.1011 116.091L70.8261 116.226L70.355 108.322L70.3553 108.322ZM85.4511 107.422L85.9222 115.327L83.724 115.458L83.3645 109.427L81.9245 109.513L82.0597 111.781C82.1205 112.801 82.1182 114.055 81.5547 114.794C80.9964 115.613 79.8698 115.918 78.5685 115.757L78.4517 113.797C79.6765 113.962 79.9544 113.47 79.8611 111.905L79.6138 107.756L85.4502 107.408L85.4511 107.422ZM87.3504 107.309L89.6254 107.174L91.192 111.792L92.1989 107.02L94.474 106.885L96.0093 114.725L93.8876 114.852L93.107 110.655L92.1411 114.955L90.6247 115.046L89.1623 110.89L88.8857 115.149L86.7639 115.276L87.35 107.309L87.3504 107.309ZM96.3729 106.771L98.6479 106.636L98.8392 109.845L100.846 106.505L103.35 106.356L100.704 110.44L103.899 114.255L101.171 114.418L98.9349 111.33L99.1261 114.54L96.8511 114.675L96.38 106.771L96.3732 106.771L96.3729 106.771ZM86.081 98.8977C72.432 99.7112 63.7057 105.339 64.1533 112.849C64.5966 120.286 73.9271 124.91 87.5828 124.096C101.308 123.278 109.953 117.575 109.511 110.145C109.063 102.636 99.8131 98.0792 86.081 98.8977ZM87.5131 122.926C74.692 123.69 65.8533 119.584 65.4472 112.772C65.0369 105.887 73.3368 100.832 86.1507 100.068C99.0414 99.2996 107.813 103.33 108.223 110.222C108.629 117.035 100.411 122.157 87.5131 122.926ZM86.2162 101.166C74.1604 101.885 66.366 106.514 66.7344 112.695C67.1028 118.876 75.3919 122.546 87.4476 121.828C99.5034 121.109 107.298 116.48 106.929 110.299C106.568 104.118 98.2791 100.447 86.2162 101.166ZM87.4339 121.598C75.5243 122.308 67.3234 118.712 66.9644 112.688C66.6054 106.665 74.3278 102.12 86.2307 101.411C98.1336 100.701 106.341 104.297 106.7 110.32C107.066 116.343 99.3436 120.888 87.4339 121.598L87.4339 121.598Z" fill="white"/>
    <path d="M7.2832 171.127L39.3644 86.7037C43.6469 77.688 49.983 77.0869 56.8951 79.5913C60.0921 80.8666 62.7072 83.2749 64.241 86.3563C65.7747 89.4377 66.1196 92.9761 65.2096 96.2956L32.1768 179.216C31.1755 182.37 28.991 185.015 26.0818 186.593C23.1725 188.171 19.765 188.561 16.5744 187.681L16.0986 187.555C14.4156 187.096 12.8438 186.299 11.479 185.212C10.1142 184.126 8.98493 182.773 8.16009 181.236C7.33526 179.698 6.83213 178.009 6.68137 176.271C6.53061 174.533 6.73538 172.783 7.2832 171.127Z" fill="#FBBEAA"/>
    <path d="M20.5815 136.115L39.3644 86.7037C39.8682 85.6201 40.463 84.5812 41.1425 83.5983C43.4433 82.1578 46.0772 81.3363 48.7889 81.2134C51.5006 81.0906 54.1981 81.6705 56.6197 82.897C59.4317 84.2654 61.692 86.5531 63.0264 89.3813C64.3609 92.2096 64.6893 95.4088 63.9575 98.4492C63.9575 98.7498 63.7822 99.3258 63.6319 100.102L44.248 148.812C35.7812 145.759 27.8076 141.481 20.5815 136.115Z" fill="#F18380"/>
    <path d="M41.1177 82.1959L5.46216 174.735C34.7482 165.364 31.3157 139.255 47.2436 141.935C47.2436 141.935 65.6106 98.825 66.3118 94.9682C67.0437 91.9278 66.7152 88.7287 65.3808 85.9004C64.0464 83.0721 61.786 80.7844 58.974 79.416C51.1353 75.409 43.3216 79.0404 41.1177 82.1959Z" fill="#002366"/>
    <path d="M99.4524 76.1584C101.229 83.0779 90.3649 89.2831 80.7725 86.7587C90.8697 80.1955 90.3649 76.1566 90.3649 76.1566V69.0884C93.394 68.5836 98.3345 71.8031 99.4524 76.1584Z" fill="#001A4B"/>
    <path d="M68.1512 66.564C65.122 66.0591 55.3183 67.084 51.9956 72.6222C50.481 75.1467 51.9956 77.166 51.9956 77.166C51.9956 77.166 54.015 77.1662 57.0442 76.6614C59.5685 82.215 72.1901 89.2829 81.4961 86.8105C68.1512 79.6905 68.1512 76.156 68.1512 76.156V66.564Z" fill="#001A4B"/>
    <path d="M71.5961 131.482L31.7263 181.144C26.993 187.655 19.9808 190.56 12.9935 184.7C11.7012 183.602 10.6454 182.253 9.89014 180.734C9.13489 179.216 8.69594 177.56 8.59992 175.867C8.5039 174.173 8.75282 172.478 9.33156 170.884C9.91031 169.29 10.8068 167.83 11.9667 166.593L60.0008 119.01C64.1831 114.126 69.2169 113.35 72.8734 116.505C77.3061 120.437 76.7802 125.045 71.5961 131.482Z" fill="#FBBEAA"/>
    <path d="M57.5959 121.614C62.0287 117.132 70.3182 107.465 73.1231 105.111C75.8966 103.021 78.9266 101.295 82.1389 99.9765C84.5761 99.1601 87.0956 98.6142 89.6521 98.3486C91.4302 98.1233 92.1565 98.6492 92.1565 99.7261C92.1117 100.368 91.9073 100.988 91.5618 101.53C91.2162 102.073 90.7405 102.52 90.178 102.832H93.4587C94.5857 102.832 95.312 103.733 94.786 105.186C94.3084 106.145 93.6256 106.988 92.786 107.655C91.9464 108.321 90.9705 108.795 89.9275 109.042C89.9275 109.042 94.3603 109.468 95.4873 109.694C96.6142 109.919 96.9648 110.345 96.9648 111.422C96.9551 112.165 96.7484 112.893 96.3657 113.531C95.9829 114.169 95.4378 114.694 94.786 115.053C93.1906 115.7 91.4971 116.073 89.7773 116.155C89.7773 116.155 95.2619 117.532 96.3638 117.933C97.4657 118.334 97.591 119.06 97.015 120.012C96.6867 120.682 96.2128 121.27 95.6278 121.734C95.0429 122.198 94.3616 122.525 93.634 122.691C91.5554 123.242 90.1529 122.341 89.4016 122.466C87.7873 122.986 86.2066 123.605 84.6684 124.319C82.3583 126.619 79.534 128.336 76.4289 129.328C74.1176 130.298 71.9976 131.672 70.168 133.385C69.3157 134.185 68.3118 134.805 67.2154 135.21C66.1191 135.615 64.9528 135.796 63.7853 135.743C62.6178 135.689 61.473 135.402 60.4185 134.898C59.364 134.394 58.4212 133.684 57.646 132.809C53.639 128.552 54.3152 124.995 57.5959 121.614Z" fill="#FBBEAA"/>
    <path d="M70.5751 135.012L32.0154 182.194C27.1841 188.633 15.8946 192.172 8.99684 186.206C7.72127 185.089 6.68599 183.724 5.95381 182.194C5.22163 180.664 4.80778 179.002 4.73739 177.307C4.667 175.613 4.94154 173.922 5.54433 172.337C6.14713 170.752 8.82739 165.412 10.0059 164.193L58.3233 118.815L70.5751 135.012Z" fill="#002366"/>
    <path d="M89.6275 102.857C89.6346 102.898 89.6329 102.941 89.6226 102.981C89.6123 103.022 89.5936 103.06 89.5676 103.093C89.5417 103.126 89.509 103.154 89.4719 103.173C89.4347 103.193 89.394 103.205 89.352 103.207L87.2984 103.408H86.2967C85.9461 103.408 85.6205 103.533 85.2699 103.558C84.8995 103.669 84.5392 103.812 84.193 103.984L83.0409 104.46C81.4882 105.086 79.9355 105.662 78.7835 106.087C77.6315 106.513 76.8301 106.764 76.8301 106.764C76.7666 106.79 76.6954 106.792 76.6304 106.769C76.5655 106.746 76.5116 106.699 76.4795 106.638C76.4328 106.577 76.4075 106.502 76.4075 106.426C76.4075 106.349 76.4328 106.274 76.4795 106.213L78.3578 105.236L80.3112 104.309C81.0124 103.984 81.7887 103.658 82.5651 103.358L83.7422 102.907C84.1207 102.736 84.5149 102.602 84.9192 102.506L86.1214 102.381H87.1482H88.6758H89.2518C89.3149 102.331 89.3952 102.308 89.4751 102.318C89.5549 102.327 89.6278 102.368 89.6776 102.431C89.7274 102.494 89.7501 102.574 89.7408 102.654C89.7314 102.734 89.6906 102.807 89.6275 102.857ZM89.1516 108.892H88.7009C88.326 108.859 87.9488 108.859 87.5739 108.892L86.7975 109.018C86.5113 109.053 86.2272 109.104 85.946 109.168L84.2431 109.719C83.0911 110.094 81.9641 110.57 81.1126 110.921C81.1126 110.921 80.8371 110.921 80.8621 111.046H80.5616L80.1109 111.171H79.8354H79.6851C79.6095 111.189 79.5438 111.236 79.5017 111.301C79.4597 111.367 79.4446 111.446 79.4597 111.522C79.4706 111.582 79.5011 111.637 79.5464 111.677C79.5918 111.718 79.6493 111.743 79.7101 111.747H80.9874H81.388C82.2646 111.522 83.4416 111.171 84.5936 110.771L86.2716 110.145L87.048 109.944L87.7241 109.744C88.07 109.642 88.4211 109.558 88.776 109.493L89.2018 109.368C89.2396 109.357 89.2748 109.338 89.3054 109.313C89.336 109.288 89.3613 109.257 89.3799 109.222C89.3986 109.187 89.4101 109.149 89.4139 109.109C89.4177 109.07 89.4137 109.03 89.4021 108.993C89.3724 108.956 89.3338 108.927 89.29 108.91C89.2461 108.892 89.1985 108.886 89.1516 108.892ZM89.1516 116.005H88.225C87.9746 116.005 87.6491 116.005 87.3235 116.18L86.2967 116.506C85.6506 116.733 85.0227 117.01 84.4184 117.332C84.1406 117.463 83.8727 117.613 83.617 117.783C83.5659 117.842 83.5377 117.918 83.5377 117.996C83.5377 118.074 83.5659 118.15 83.617 118.209C83.6889 118.285 83.7878 118.33 83.8924 118.334L84.8191 118.184C85.345 118.058 86.0212 117.858 86.6974 117.633L87.6741 117.232L88.5256 116.906C88.8091 116.781 89.0851 116.639 89.352 116.481C89.4229 116.439 89.4752 116.371 89.4984 116.292C89.5216 116.213 89.5141 116.129 89.4772 116.055C89.403 116.007 89.3136 115.989 89.2268 116.005H89.1516Z" fill="#F18380"/>
    <path d="M173.449 59.0055C172.497 59.0055 172.422 58.4045 171.996 57.3026C174.125 57.3026 180.311 57.7032 183.016 62.9124C180.286 59.1558 175.052 59.0055 173.449 59.0055ZM178.307 39.1958C178.307 39.1958 178.157 40.0724 178.007 41.3496C178.007 42.0008 177.857 42.7771 177.806 43.5785C177.756 44.3799 177.681 45.2564 177.606 46.0829C177.606 47.836 177.481 49.564 177.481 50.8663C177.481 52.1686 177.481 53.0451 177.481 53.0451C177.481 53.0867 177.489 53.128 177.506 53.1662C177.523 53.2044 177.547 53.2387 177.578 53.267C177.608 53.2952 177.644 53.3168 177.684 53.3304C177.723 53.3439 177.765 53.3491 177.806 53.3456C177.877 53.3421 177.944 53.3157 177.999 53.2705C178.053 53.2254 178.091 53.1639 178.107 53.0952C178.107 53.0952 178.257 52.2186 178.382 50.9163C178.508 49.6141 178.708 47.886 178.783 46.158C178.783 45.2815 178.783 44.405 178.783 43.6536C178.783 42.9023 178.783 42.0759 178.783 41.4248C178.783 40.0974 178.783 39.2459 178.783 39.2459C178.783 39.2042 178.775 39.163 178.758 39.1248C178.742 39.0866 178.717 39.0523 178.687 39.024C178.656 38.9958 178.62 38.9742 178.58 38.9607C178.541 38.9471 178.499 38.9419 178.458 38.9454C178.41 38.973 178.37 39.0134 178.344 39.062C178.317 39.1106 178.305 39.1656 178.307 39.2209V39.1958ZM184.118 40.9489C184.118 40.9489 183.967 41.7002 183.792 42.8022C183.792 43.3782 183.617 44.0293 183.542 44.7305C183.466 45.4317 183.391 46.1831 183.316 46.9344C183.316 48.437 183.141 49.9396 183.116 51.0666C183.091 52.1936 183.116 52.97 183.116 52.97C183.119 53.0095 183.13 53.048 183.148 53.0832C183.166 53.1185 183.191 53.1499 183.221 53.1755C183.251 53.2011 183.287 53.2205 183.324 53.2325C183.362 53.2445 183.402 53.2489 183.441 53.2455C183.509 53.2408 183.573 53.2135 183.623 53.1681C183.673 53.1226 183.706 53.0617 183.717 52.995C183.717 52.995 183.867 52.2437 184.042 51.1417C184.218 50.0398 184.368 48.5122 184.493 47.0346C184.493 46.2833 184.493 45.5319 184.643 44.8307C184.794 44.1295 184.643 43.4533 184.643 42.8773C184.643 41.7503 184.643 40.999 184.643 40.999C184.644 40.9573 184.635 40.9161 184.618 40.8779C184.602 40.8397 184.577 40.8054 184.547 40.7771C184.516 40.7489 184.48 40.7273 184.441 40.7138C184.401 40.7002 184.359 40.695 184.318 40.6985C184.262 40.7214 184.214 40.7593 184.179 40.8079C184.143 40.8565 184.122 40.914 184.118 40.9739V40.9489ZM189.727 43.3281C189.727 43.3281 189.577 43.9542 189.377 44.9058C189.377 45.3566 189.176 45.9076 189.101 46.5087C189.026 47.1097 188.926 47.7358 188.826 48.3619C188.651 49.6391 188.575 50.8663 188.525 51.868C188.475 52.8698 188.525 53.4709 188.525 53.4709C188.525 53.5125 188.534 53.5537 188.55 53.5919C188.567 53.6301 188.591 53.6645 188.622 53.6927C188.653 53.721 188.689 53.7425 188.728 53.7561C188.768 53.7696 188.809 53.7748 188.851 53.7714C188.915 53.7681 188.976 53.7444 189.026 53.7038C189.075 53.6633 189.11 53.608 189.126 53.546C189.126 53.546 189.302 52.9199 189.477 51.9933C189.652 51.0667 189.903 49.7643 190.053 48.5122C190.053 47.861 190.178 47.2349 190.228 46.6339C190.278 46.0328 190.228 45.4819 190.228 45.006C190.228 44.0544 190.228 43.4032 190.228 43.4032C190.228 43.3615 190.22 43.3203 190.203 43.2821C190.187 43.2439 190.162 43.2096 190.132 43.1813C190.101 43.1531 190.065 43.1315 190.025 43.118C189.986 43.1044 189.944 43.0992 189.903 43.1027C189.856 43.1285 189.817 43.1644 189.786 43.2078C189.756 43.2511 189.736 43.3009 189.727 43.3531V43.3281Z" fill="#F18380"/>
    <path d="M58.4249 118.506L53.3486 123.192L67.0155 139.592L70.9203 134.906L58.4249 118.506Z" fill="#00163F"/>
    <path d="M171.502 77.6431L170.884 84.5343L191.189 87.658L191.189 80.2389L171.502 77.6431Z" fill="#00163F"/>
    <path d="M40.5581 171.728L40.8533 178.64C40.8533 178.64 64.8782 180.255 80.2919 180.202C94.4867 180.154 116.607 178.64 116.607 178.64L116.607 172.783C116.607 172.783 93.5249 173.564 78.73 173.564C58.8155 173.564 40.5581 171.728 40.5581 171.728Z" fill="#00163F"/>
    <path d="M54.5477 21.8182C53.0658 27.4879 52.1867 33.2982 51.9252 39.1525C51.6144 44.0252 50.0024 48.7252 47.2573 52.763C44.6349 56.1459 41.1995 59.66 42.4582 70.1497H109.619C109.619 70.1497 112.241 64.9049 109.094 55.9099C105.388 44.8054 102.659 33.3981 100.939 21.8182H54.5477Z" fill="#BC664A"/>
    <path d="M67.3979 52.7631V75.0275C67.3979 75.0275 69.155 82.7113 80.9297 82.7113C83.2674 82.9084 85.5918 82.203 87.4256 80.7399C89.2593 79.2768 90.4633 77.167 90.7901 74.844V52.7631H67.3979Z" fill="#FBBEAA"/>
    <path d="M90.7901 71.4086C83.3948 74.8964 72.6166 71.7757 67.3979 62.0989V52.7631H90.7901V71.4086Z" fill="#F18380"/>
    <path d="M105.397 35.7432C105.509 41.0765 105.272 46.4114 104.689 51.7138C103.718 59.2664 101.043 67.6582 87.6427 67.6582C74.2421 67.6582 67.45 61.6266 64.5653 51.7138C62.8345 45.7084 59.3204 36.8708 60.7628 26.6171C62.2051 16.3634 68.3679 9.7024 82.9224 9.30903C97.4769 8.91566 106.996 15.4717 105.397 35.7432Z" fill="#FBBEAA"/>
    <path d="M77.0744 40.3065C77.1676 40.6927 77.3673 41.045 77.6507 41.3235C77.9342 41.6019 78.2901 41.7952 78.6779 41.8815C79.0658 41.9678 79.4699 41.9435 79.8447 41.8116C80.2194 41.6796 80.5497 41.4452 80.7979 41.135C81.0461 40.8247 81.2023 40.4511 81.2488 40.0565C81.2953 39.6619 81.2301 39.2622 81.0608 38.9028C80.8915 38.5433 80.6248 38.2386 80.2909 38.0232C79.9571 37.8078 79.5696 37.6903 79.1724 37.6841C78.8603 37.7132 78.5572 37.8049 78.2814 37.9536C78.0055 38.1024 77.7624 38.3052 77.5666 38.5499C77.3708 38.7947 77.2263 39.0763 77.1417 39.3781C77.0572 39.6799 77.0343 39.9957 77.0744 40.3065Z" fill="#403D4F"/>
    <path d="M96.5066 40.3065C96.5998 40.6927 96.7995 41.045 97.0829 41.3235C97.3664 41.6019 97.7222 41.7952 98.1101 41.8815C98.4979 41.9678 98.9021 41.9435 99.2769 41.8116C99.6517 41.6796 99.9819 41.4452 100.23 41.135C100.478 40.8247 100.635 40.4511 100.681 40.0565C100.728 39.6619 100.662 39.2622 100.493 38.9028C100.324 38.5433 100.057 38.2386 99.7231 38.0232C99.3893 37.8078 99.0017 37.6903 98.6045 37.6841C98.2938 37.7167 97.9927 37.8106 97.7185 37.9604C97.4444 38.1103 97.2028 38.3131 97.0076 38.557C96.8125 38.8009 96.6677 39.0812 96.5817 39.3815C96.4957 39.6818 96.4702 39.9963 96.5066 40.3065Z" fill="#403D4F"/>
    <path d="M83.3943 32.8853C83.3943 32.8853 83.3944 32.8853 83.1846 32.6755C82.973 32.4698 82.7348 32.2934 82.4765 32.151C82.1455 31.9617 81.7935 31.8121 81.4275 31.7052C80.5743 31.471 79.6877 31.3823 78.8051 31.443C78.4339 31.4621 78.0653 31.5148 77.7036 31.6003L76.6809 31.8888C76.512 31.9432 76.371 32.0612 76.2877 32.2179C76.2045 32.3746 76.1856 32.5576 76.2351 32.728C76.2783 32.862 76.3621 32.9794 76.4748 33.0639C76.5875 33.1484 76.7237 33.196 76.8645 33.2H78.8313C79.1718 33.1742 79.5136 33.1742 79.854 33.2C80.1911 33.231 80.5246 33.2924 80.8506 33.3836C81.1915 33.3836 81.4275 33.5671 81.6898 33.5934C81.8762 33.6718 82.0693 33.7332 82.2667 33.7769H82.5027C82.6664 33.8481 82.8514 33.8523 83.0181 33.7885C83.1848 33.7248 83.3199 33.5982 83.3943 33.436C83.4333 33.3448 83.4534 33.2467 83.4534 33.1475C83.4534 33.0484 83.4333 32.9503 83.3943 32.8591V32.8853Z" fill="#403D4F"/>
    <path d="M96.1655 33.8815C96.1655 33.8815 96.1655 33.8815 96.3228 33.8815L96.7162 33.7241H97.0047C97.1083 33.7014 97.2157 33.7014 97.3193 33.7241C97.5511 33.6476 97.7876 33.5862 98.0274 33.5406C98.2714 33.5133 98.5177 33.5133 98.7617 33.5406H100.256C100.345 33.5406 100.432 33.5229 100.514 33.4883C100.595 33.4537 100.668 33.4031 100.73 33.3394C100.791 33.2757 100.839 33.2003 100.87 33.1177C100.901 33.0351 100.916 32.947 100.912 32.8587C100.907 32.7286 100.865 32.6027 100.791 32.4958C100.716 32.3889 100.613 32.3056 100.492 32.2556L99.6795 31.9671C99.3894 31.8803 99.0902 31.8275 98.7879 31.8098C98.4314 31.7577 98.0692 31.7577 97.7127 31.8098C97.0281 31.8956 96.3775 32.1576 95.8245 32.5703L95.3263 33.0685C95.1952 33.2259 95.1952 33.2783 95.1952 33.3046V33.5406C95.1721 33.7207 95.2191 33.9027 95.3265 34.0492C95.4339 34.1956 95.5934 34.2952 95.7721 34.3273C95.9518 34.2298 96.0911 34.0719 96.1655 33.8815Z" fill="#403D4F"/>
    <path d="M90.7899 49.2492C91.2319 49.2467 91.6689 49.1547 92.0745 48.979C92.4801 48.8032 92.846 48.5472 93.1501 48.2264C93.2612 48.1075 93.3465 47.967 93.4007 47.8135C93.4548 47.6601 93.4766 47.4971 93.4648 47.3348C93.4648 47.0463 93.0189 43.4274 92.8616 42.0899C92.8314 41.9606 92.7576 41.8456 92.6524 41.7643C92.5473 41.6831 92.4175 41.6407 92.2847 41.6441C92.1501 41.6637 92.0283 41.7348 91.9451 41.8425C91.862 41.9501 91.8238 42.0859 91.8389 42.2211C91.8389 42.4046 92.4158 47.1512 92.4682 47.4659C92.2535 47.7036 91.9902 47.8922 91.696 48.0189C91.4019 48.1456 91.0838 48.2075 90.7637 48.2002C90.6291 48.2069 90.5024 48.2652 90.4096 48.3628C90.3168 48.4604 90.2652 48.59 90.2654 48.7247C90.2718 48.8617 90.3291 48.9915 90.4261 49.0885C90.5231 49.1855 90.6529 49.2428 90.7899 49.2492Z" fill="#F18380"/>
    <path d="M93.2024 54.4153C94.1727 54.6513 94.5398 56.1199 93.9366 57.8244C93.3417 58.9981 92.3683 59.9368 91.1739 60.4888C89.9795 61.0408 88.6338 61.1739 87.3544 60.8665C86.6559 60.8333 85.9711 60.6608 85.3403 60.3591C84.7095 60.0574 84.1455 59.6326 83.6812 59.1097C83.217 58.5868 82.8619 57.9764 82.6371 57.3143C82.4122 56.6523 82.3219 55.9519 82.3717 55.2544C82.3717 54.1268 83.1585 53.4712 84.627 53.4712C87.5067 53.5481 90.3749 53.8638 93.2024 54.4153Z" fill="#73102A"/>
    <path d="M82.3716 55.3857V55.1497C84.2911 54.7061 86.3072 54.9988 88.0213 55.9699C89.7354 56.9411 91.0228 58.52 91.6289 60.3946C90.2798 61.0557 88.7623 61.2934 87.2757 61.0764C86.5768 61.0335 85.8936 60.8512 85.2664 60.5401C84.6392 60.2291 84.0806 59.7956 83.6235 59.2652C83.1665 58.7349 82.8203 58.1183 82.6053 57.4521C82.3903 56.7858 82.3108 56.0832 82.3716 55.3857Z" fill="#D65155"/>
    <path d="M92.363 55.9889C89.0419 56.0404 85.7355 55.5351 82.5813 54.4941C82.7789 54.1368 83.0801 53.8478 83.4453 53.6652C83.8105 53.4826 84.2224 53.415 84.6268 53.4713C87.5064 53.5482 90.3747 53.864 93.2021 54.4154C93.4733 54.5088 93.7105 54.681 93.8834 54.9099C94.0562 55.1388 94.1568 55.414 94.1724 55.7004C93.592 55.9064 92.9787 56.0042 92.363 55.9889Z" fill="white"/>
    <path d="M77.7828 25.4376C77.7828 25.4376 75.1604 38.5498 64.0413 43.6373C64.0413 43.6373 52.7124 37.055 54.0236 24.4936C55.6495 9.02118 77.6256 -8.3918 99.4967 8.0771C101.621 7.73619 103.929 3.25182 103.247 0C104.141 0.561738 104.844 1.38019 105.266 2.34832C105.687 3.31644 105.806 4.38916 105.608 5.42616C105.409 6.46315 104.903 7.41615 104.154 8.1605C103.405 8.90486 102.449 9.40591 101.411 9.59812C104.981 10.0955 108.221 11.9527 110.454 14.7821C112.687 17.6115 113.741 21.1941 113.396 24.782C113.284 27.0441 112.342 29.1855 110.75 30.7967C109.158 32.4078 107.028 33.3755 104.768 33.5147H100.913C97.9304 32.1479 95.5189 29.7827 94.0944 26.8275C94.4653 29.0551 95.2385 31.1967 96.376 33.1476C96.5858 33.541 96.1137 34.2228 92.8881 33.541C89.185 32.2672 86.09 29.6584 84.2078 26.2244C84.9129 28.4761 85.8535 30.6473 87.0138 32.7018C87.0138 33.0951 85.3092 33.6721 82.7917 32.5182C81.3894 31.9085 80.1811 30.9261 79.298 29.6777C78.415 28.4294 77.8909 26.9629 77.7828 25.4376Z" fill="#BC664A"/>
    <path d="M94.9858 35.7435C94.0417 35.7435 93.6746 37.4743 93.6746 39.1265C93.771 41.3643 94.4391 43.5402 95.6151 45.4465C96.0963 46.0218 96.7204 46.4603 97.4246 46.7181C98.1289 46.9759 98.8886 47.0438 99.6275 46.9151C100.527 47.0543 101.446 46.9949 102.321 46.7412C103.195 46.4875 104.003 46.0456 104.689 45.4465C106.132 43.6386 106.992 41.4344 107.154 39.1265C107.154 37.4743 106.656 35.7435 105.476 35.7435H94.9858Z" stroke="#403D4F" stroke-width="0.75" stroke-miterlimit="10"/>
    <path d="M87.0658 35.7435C88.3246 35.7435 88.8229 37.4743 88.8229 39.1265C88.651 41.4603 87.7314 43.6766 86.2005 45.4465C85.4757 46.0414 84.6352 46.4791 83.7323 46.7319C82.8294 46.9847 81.8839 47.0471 80.9556 46.9151C78.5985 47.2182 76.209 46.6996 74.1897 45.4465C72.348 43.8216 71.1791 41.5679 70.9116 39.1265C70.9116 37.4743 71.541 35.7435 73.1407 35.7435H87.0658Z" stroke="#403D4F" stroke-width="0.75" stroke-miterlimit="10"/>
    <path d="M93.8848 37.317C93.1311 36.7428 92.2098 36.4318 91.2623 36.4318C90.3148 36.4318 89.3935 36.7428 88.6399 37.317" stroke="#403D4F" stroke-width="0.75" stroke-miterlimit="10"/>
    <path d="M73.0891 35.7435H69.8897C69.2079 35.7435 68.4211 35.9009 68.4211 36.8187V38.2873C68.4211 38.6544 70.7551 39.3887 71.0436 40.2017" stroke="#403D4F" stroke-width="0.75" stroke-miterlimit="10"/>
    <path d="M61.4451 39.5726L68.4208 36.8191" stroke="#403D4F" stroke-width="0.75" stroke-miterlimit="10"/>
    <path d="M65.0368 45.5779C64.827 42.0114 63.8829 37.8417 59.5296 38.4711C54.4421 39.2578 53.9438 53.0256 64.7745 51.3735L65.0368 45.5779Z" fill="#FBBEAA"/>
    <path d="M59.1634 46.4957C59.2546 46.497 59.3444 46.4732 59.423 46.427C59.5016 46.3807 59.566 46.3138 59.6092 46.2335C59.7244 46.0065 59.8957 45.8126 60.1068 45.6704C60.3179 45.5281 60.5619 45.4421 60.8155 45.4205C61.1181 45.4238 61.4147 45.5053 61.6766 45.6569C61.9385 45.8085 62.1568 46.0252 62.3103 46.2859C62.373 46.3756 62.4634 46.4422 62.5677 46.4754C62.672 46.5086 62.7843 46.5065 62.8872 46.4695C62.9983 46.4388 63.0943 46.3684 63.1571 46.2718C63.2199 46.1752 63.2452 46.059 63.2282 45.945C63.1828 44.842 62.8394 43.7719 62.2345 42.8484C61.6296 41.9249 60.7858 41.1825 59.7928 40.7001C59.726 40.6605 59.6513 40.6362 59.574 40.6289C59.4967 40.6216 59.4188 40.6316 59.3459 40.6581C59.2729 40.6846 59.2067 40.727 59.1521 40.7822C59.0975 40.8374 59.0558 40.904 59.0301 40.9772C59.0044 41.0505 58.9952 41.1285 59.0033 41.2057C59.0114 41.2829 59.0365 41.3574 59.0768 41.4237C59.1172 41.49 59.1718 41.5465 59.2366 41.5892C59.3015 41.6319 59.375 41.6596 59.4519 41.6704C60.0412 41.9569 60.5661 42.3604 60.9944 42.8564C61.4228 43.3523 61.7456 43.9303 61.9432 44.5551C61.5772 44.3746 61.1703 44.2933 60.7631 44.3191C60.3392 44.3592 59.9314 44.502 59.575 44.735C59.2186 44.968 58.9243 45.2843 58.7176 45.6566C58.6601 45.7757 58.6498 45.9122 58.6887 46.0386C58.7276 46.1651 58.8129 46.2721 58.9274 46.3384L59.1634 46.4957Z" fill="#F18380"/>
</svg>
