<svg width="262" height="551" viewBox="0 0 262 551" fill="none" xmlns="http://www.w3.org/2000/svg">
<path d="M151.017 60.6797H120.353V96.7439H151.017V60.6797Z" fill="#FBBEAA"/>
<path d="M120.429 60.6797H150.992V80.8002C149.657 80.9661 148.313 81.0511 146.968 81.0549C136.424 81.0549 124.631 78.1769 120.327 68.1166L120.429 60.6797Z" fill="#F18380"/>
<path d="M166.86 33.9122C166.605 44.3291 166.859 52.5556 164.975 60.5019C163.09 68.4483 157.334 74.9429 144.6 74.9429C131.865 74.9429 117.348 70.7914 116.329 54.8733C114.24 52.6065 110.853 44.5328 110.726 35.4913C110.598 26.4498 111.312 7.32255 131.916 4.39361C152.52 1.46467 167.42 9.02897 166.86 33.9122Z" fill="#FBBEAA"/>
<path d="M156.086 42.1133C156.086 43.5141 156.926 44.6602 157.971 44.6602C159.015 44.6602 159.855 43.5141 159.855 42.1133C159.855 40.7125 159.015 39.5664 157.971 39.5664C156.926 39.5664 156.086 40.6106 156.086 42.1133Z" fill="#403D4F"/>
<path d="M133.164 42.1133C133.164 43.5141 134.004 44.6602 135.048 44.6602C136.092 44.6602 136.933 43.5141 136.933 42.1133C136.933 40.7125 136.092 39.5664 135.048 39.5664C134.004 39.5664 133.164 40.6106 133.164 42.1133Z" fill="#403D4F"/>
<path d="M137.774 36.8153C137.596 37.0446 136.246 36.8153 135.227 36.8153C134.208 36.8153 132.247 36.8153 132.247 36.5861C132.247 36.3569 133.215 34.7778 135.762 35.058C137.596 35.2617 138.258 36.4078 137.774 36.8153Z" fill="#403D4F"/>
<path d="M155.652 36.8152C155.805 37.0444 156.951 36.8152 157.843 36.8152C158.734 36.8152 160.39 36.8152 160.39 36.586C160.161 36.0087 159.729 35.5349 159.176 35.2534C158.623 34.972 157.985 34.9025 157.384 35.0578C155.805 35.2616 155.372 36.4077 155.652 36.8152Z" fill="#403D4F"/>
<path d="M148.138 52.6573C149.921 52.6573 151.347 51.4857 151.398 50.6452L150.813 43.4629C150.793 43.285 150.705 43.1215 150.567 43.0074C150.429 42.8932 150.253 42.8374 150.074 42.8517C149.987 42.8581 149.902 42.8817 149.824 42.9211C149.746 42.9605 149.677 43.0148 149.62 43.0811C149.563 43.1474 149.52 43.2243 149.493 43.3073C149.466 43.3903 149.456 43.4778 149.463 43.5648L150.023 50.4924C149.766 50.7715 149.449 50.9896 149.097 51.1306C148.744 51.2716 148.364 51.332 147.986 51.3074C147.897 51.3005 147.807 51.3116 147.722 51.3402C147.638 51.3688 147.56 51.4142 147.493 51.4737C147.427 51.5331 147.373 51.6055 147.335 51.6863C147.297 51.7672 147.276 51.8549 147.272 51.9441C147.272 52.1248 147.34 52.2988 147.463 52.4312C147.586 52.5636 147.754 52.6444 147.935 52.6573H148.138Z" fill="#F18380"/>
<path d="M121.849 38.6491C121.849 48.9261 116.756 45.1057 116.756 45.1057C115.482 41.2853 113.264 42.9281 110.347 42.9281C107.431 42.9281 107.806 40.8041 104.889 33.8002C102.556 28.197 105.246 19.2938 106.996 17.1387C104.095 13.3387 108.029 11.075 107.892 11.651C106.996 15.4484 110.105 11.6319 111.662 10.1347C128.292 -5.85587 170.2 2.17763 170.2 2.17763L165.847 7.68574L176.567 4.72458C176.567 4.72458 175.867 10.525 174.02 13.6387C172.481 16.2319 168.763 19.2938 168.763 19.2938L180.428 20.3713C180.428 20.3713 172.846 28.4529 162.347 29.5304C150.524 30.7439 137.85 25.2202 137.85 25.2202L142.516 30.6079C142.516 30.6079 130.722 28.2025 126.902 30.1936C124.459 31.467 121.849 34.0548 121.849 38.6491Z" fill="#7D4A40"/>
<path d="M116.889 46.9524C116.762 44.0489 116.303 39.7701 112.177 39.6682C108.051 39.5663 107.516 42.6735 107.644 47.5636C107.771 52.4537 112.738 56.6051 117.093 54.9242L116.889 46.9524Z" fill="#FBBEAA"/>
<path d="M110.827 50.4669C111.005 50.4357 111.164 50.3353 111.269 50.1874C111.374 50.0396 111.417 49.8562 111.387 49.6774C111.387 49.5336 111.428 49.3928 111.505 49.2712C111.581 49.1495 111.691 49.052 111.82 48.9897C112.08 48.8156 112.386 48.7226 112.699 48.7226C113.012 48.7226 113.317 48.8156 113.577 48.9897C113.69 49.0521 113.818 49.0849 113.947 49.0849C114.076 49.0849 114.203 49.0521 114.316 48.9897C114.42 48.9211 114.503 48.8257 114.557 48.7136C114.611 48.6014 114.633 48.4768 114.622 48.353C114.265 44.2524 111.642 43.4884 111.54 43.4629C111.453 43.4361 111.361 43.4275 111.271 43.4376C111.181 43.4477 111.093 43.4764 111.014 43.5218C110.935 43.5672 110.867 43.6284 110.813 43.7015C110.758 43.7746 110.72 43.8581 110.699 43.9468C110.652 44.1157 110.674 44.2963 110.76 44.4491C110.846 44.6018 110.989 44.7143 111.158 44.7618C111.667 44.9922 112.11 45.3456 112.448 45.7903C112.786 46.235 113.008 46.7568 113.094 47.3087C112.396 47.195 111.68 47.3399 111.081 47.7162C110.733 47.9208 110.451 48.2222 110.27 48.5839C110.089 48.9456 110.017 49.352 110.063 49.7538C110.058 49.853 110.076 49.952 110.113 50.0439C110.151 50.1358 110.208 50.2185 110.281 50.2863C110.353 50.354 110.44 50.4053 110.534 50.4365C110.628 50.4676 110.728 50.478 110.827 50.4669Z" fill="#F18380"/>
<path d="M146.383 61.8267C143.924 61.7318 141.563 60.8376 139.659 59.2798" stroke="#73102A" stroke-width="0.5" stroke-miterlimit="10" stroke-linecap="round"/>
<path d="M146.468 57.319C142.902 56.1475 138.827 54.7721 137.426 56.4276C136.331 57.5483 137.808 62.8203 143.284 63.7372C148.76 64.6541 150.721 60.8847 150.441 59.433C150.263 58.5416 149.269 58.2614 146.468 57.319Z" fill="#73102A"/>
<path d="M137.554 56.3516H137.426C136.331 57.4722 137.808 62.7443 143.284 63.6612C144.474 63.9374 145.711 63.9374 146.901 63.6612C145.978 61.8288 144.662 60.2231 143.046 58.9594C141.43 57.6956 139.554 56.8051 137.554 56.3516Z" fill="#D65155"/>
<path d="M138.828 55.7909C140.27 57.3589 142.103 58.5171 144.138 59.1479C146.173 59.7786 148.339 59.8594 150.416 59.382C150.212 58.516 149.194 58.2359 146.468 57.319C144.05 56.3024 141.451 55.7827 138.828 55.7909Z" fill="white"/>
<g opacity="0.3" filter="url(#filter0_f_110_32)">
<ellipse cx="106.5" cy="14.5" rx="106.5" ry="14.5" transform="matrix(1 0 0 -1 17.5215 534)" fill="#CBCBCB"/>
</g>
<path d="M89.5004 99.5226C83.8395 106.801 51.0869 195.759 51.0869 195.759C81.4133 186.054 78.5677 159.827 95.0614 162.602C95.0614 162.602 114.081 117.96 114.807 113.967C115.565 110.818 115.225 107.505 113.843 104.577C112.461 101.648 110.12 99.2789 107.209 97.8619C99.0914 93.7125 95.1613 92.2441 89.5004 99.5226Z" fill="#002366"/>
<path d="M234.269 93.2527C234.394 90.5232 233.664 87.823 232.179 85.529C229.894 82.8795 228.183 79.7857 227.152 76.4423C226.358 73.3387 225.091 70.3759 223.396 67.6584C222.184 65.9925 220.367 64.6296 220.367 63.3574C220.367 62.0853 222.79 59.6319 226.243 60.3285C227.722 60.7892 229.081 61.5712 230.222 62.6185C231.364 63.6658 232.26 64.9524 232.846 66.3863C233.177 65.5126 233.371 64.5932 233.421 63.6603L234.178 45.0931C234.19 44.6118 234.298 44.1376 234.496 43.6987C234.693 43.2597 234.977 42.8648 235.33 42.5373C235.683 42.2098 236.098 41.9563 236.55 41.7918C237.003 41.6273 237.484 41.5552 237.965 41.5796C238.73 41.6123 239.466 41.884 240.069 42.3567C240.672 42.8294 241.112 43.4792 241.327 44.2147V43.3667C241.443 42.4641 241.897 41.639 242.597 41.057C243.296 40.475 244.19 40.1792 245.099 40.229C246.008 40.2789 246.864 40.6707 247.496 41.3257C248.127 41.9807 248.488 42.8505 248.505 43.7604V46.335C248.809 45.5413 249.387 44.8829 250.135 44.48C250.883 44.0771 251.751 43.9565 252.581 44.1401C253.411 44.3236 254.147 44.7991 254.655 45.48C255.164 46.1609 255.41 47.0018 255.351 47.8495V49.485C255.677 48.9121 256.162 48.4466 256.749 48.1453C257.335 47.8441 257.996 47.7202 258.652 47.7888C259.55 47.9028 260.368 48.3617 260.933 49.0684C261.499 49.7751 261.767 50.674 261.681 51.5749L260.197 67.2344C259.225 76.063 257.399 84.7765 254.745 93.2527C254.713 94.6679 254.385 96.0607 253.782 97.3417C253.18 98.6227 252.316 99.7634 251.246 100.691C250.176 101.618 248.924 102.311 247.571 102.725C246.217 103.139 244.792 103.266 243.386 103.097C242.115 103.139 240.848 102.907 239.674 102.418C238.499 101.928 237.444 101.191 236.579 100.257C235.715 99.3235 235.061 98.2148 234.662 97.0062C234.264 95.7977 234.13 94.5175 234.269 93.2527Z" fill="#FBBEAA"/>
<path d="M234.875 69.0218C233.724 69.0218 233.633 68.2949 233.118 66.9622C235.693 66.9622 243.174 67.4468 246.445 73.7469C243.144 69.2036 236.813 69.0218 234.875 69.0218ZM240.751 45.0632C240.751 45.0632 240.569 46.1234 240.388 47.6681C240.388 48.4556 240.206 49.3945 240.145 50.3638C240.085 51.333 239.994 52.3931 239.903 53.3927C239.903 55.5129 239.751 57.6029 239.751 59.1779C239.751 60.7529 239.751 61.813 239.751 61.813C239.751 61.8634 239.762 61.9133 239.782 61.9595C239.802 62.0057 239.831 62.0472 239.868 62.0814C239.905 62.1155 239.949 62.1417 239.997 62.1581C240.044 62.1745 240.095 62.1807 240.145 62.1765C240.23 62.1722 240.312 62.1403 240.378 62.0857C240.443 62.0311 240.489 61.9567 240.509 61.8737C240.509 61.8737 240.69 60.8135 240.842 59.2384C240.993 57.6634 241.236 55.5735 241.326 53.4835C241.326 52.4234 241.326 51.3633 241.326 50.4546C241.326 49.546 241.326 48.5465 241.326 47.759C241.326 46.1537 241.326 45.1237 241.326 45.1237C241.327 45.0734 241.316 45.0235 241.296 44.9773C241.276 44.9311 241.247 44.8896 241.21 44.8554C241.173 44.8212 241.129 44.7952 241.081 44.7788C241.033 44.7624 240.983 44.7561 240.933 44.7603C240.875 44.7937 240.827 44.8426 240.795 44.9014C240.763 44.9601 240.748 45.0266 240.751 45.0935V45.0632ZM247.778 47.1835C247.778 47.1835 247.596 48.0921 247.384 49.4248C247.384 50.1215 247.172 50.909 247.081 51.7571C246.99 52.6051 246.9 53.5138 246.809 54.4225C246.809 56.2398 246.597 58.0572 246.566 59.4202C246.536 60.7832 246.566 61.7222 246.566 61.7222C246.57 61.77 246.584 61.8165 246.605 61.8592C246.627 61.9018 246.657 61.9398 246.694 61.9707C246.731 62.0017 246.773 62.0252 246.819 62.0397C246.864 62.0542 246.912 62.0595 246.96 62.0554C247.042 62.0497 247.119 62.0167 247.179 61.9618C247.24 61.9068 247.28 61.8331 247.293 61.7525C247.293 61.7525 247.475 60.8437 247.687 59.511C247.899 58.1783 248.081 56.3307 248.232 54.5437C248.232 53.635 248.232 52.7263 248.414 51.8782C248.596 51.0301 248.414 50.2123 248.414 49.5157C248.414 48.1527 248.414 47.244 248.414 47.244C248.414 47.1936 248.404 47.1438 248.384 47.0976C248.364 47.0514 248.334 47.0099 248.297 46.9757C248.26 46.9415 248.216 46.9154 248.169 46.8991C248.121 46.8827 248.071 46.8764 248.02 46.8806C247.953 46.9083 247.895 46.9541 247.852 47.0129C247.809 47.0717 247.784 47.1412 247.778 47.2137V47.1835ZM254.563 50.0609C254.563 50.0609 254.381 50.8181 254.139 51.9691C254.139 52.5143 253.896 53.1807 253.806 53.9076C253.715 54.6346 253.594 55.3918 253.472 56.149C253.26 57.6937 253.169 59.1779 253.109 60.3894C253.048 61.601 253.109 62.328 253.109 62.328C253.109 62.3784 253.119 62.4282 253.139 62.4744C253.159 62.5206 253.189 62.5621 253.226 62.5963C253.263 62.6305 253.307 62.6566 253.354 62.6729C253.402 62.6893 253.452 62.6956 253.503 62.6914C253.58 62.6874 253.654 62.6588 253.714 62.6097C253.774 62.5607 253.817 62.4938 253.836 62.4188C253.836 62.4188 254.048 61.6616 254.26 60.5409C254.472 59.4202 254.775 57.8452 254.957 56.3307C254.957 55.5432 255.108 54.786 255.169 54.059C255.229 53.3321 255.169 52.6658 255.169 52.0903C255.169 50.9393 255.169 50.1517 255.169 50.1517C255.169 50.1013 255.158 50.0515 255.138 50.0053C255.118 49.9591 255.089 49.9176 255.052 49.8834C255.015 49.8492 254.971 49.8231 254.923 49.8068C254.875 49.7904 254.825 49.7841 254.775 49.7883C254.719 49.8195 254.671 49.8629 254.634 49.9154C254.597 49.9678 254.573 50.028 254.563 50.0912V50.0609Z" fill="#F18380"/>
<path d="M160.989 90.9595L227.003 135.482C226.725 137.759 232.075 90.9595 232.075 90.9595L256.509 93.2402C256.509 93.2402 255.081 140.888 251.485 166.052C250.058 176.039 241.746 179.826 231.89 177.675C227.024 176.614 222.442 174.617 218.366 171.755C200.847 159.459 151.701 124.826 147.682 120.469C140.75 112.952 140.75 107.321 144.734 101.132C148.718 94.9437 157.244 90.0299 160.989 90.9595Z" fill="#001A4B"/>
<path d="M78.0378 326.992C77.6151 330.224 77.8374 333.507 78.6916 336.651C79.5458 339.796 81.0151 342.74 83.0145 345.314C85.0139 347.887 87.5036 350.038 90.3398 351.643C93.1759 353.248 96.3021 354.274 99.5376 354.663C102.773 355.052 106.053 354.796 109.189 353.909C112.325 353.022 115.253 351.522 117.806 349.496C120.358 347.47 122.483 344.957 124.058 342.105C125.634 339.252 126.627 336.115 126.983 332.876C126.983 332.876 139.815 242.747 142.858 224.538C145.901 206.33 142.68 191.088 122.291 186.752C101.141 182.263 87.9282 197.758 86.3305 213.278C84.7329 228.799 78.0378 326.992 78.0378 326.992Z" fill="#93929C"/>
<path d="M118.487 328.742C118.406 335.28 120.926 341.582 125.491 346.261C130.057 350.941 136.295 353.616 142.832 353.696C149.37 353.777 155.672 351.257 160.352 346.692C165.031 342.126 167.706 335.888 167.787 329.351C167.787 329.351 170.906 238.359 171.971 219.923C173.036 201.486 168.218 186.701 147.473 184.571C125.968 182.365 114.505 199.178 114.505 214.8C114.505 230.422 118.487 328.742 118.487 328.742Z" fill="#93929C"/>
<path d="M158.961 435.964C158.961 435.964 157.744 487.673 157.44 495.408C157.135 503.143 152.241 505.247 144.354 505.932C136.467 506.617 133.145 500.353 132.029 495.382C130.913 490.412 124.167 439.717 124.167 439.717L158.961 435.964Z" fill="#FBBEAA"/>
<path d="M158.074 472.026L128.986 475.145C126.729 459.143 124.167 439.641 124.167 439.641L158.961 435.888C158.961 435.888 158.505 455.263 158.074 472.026Z" fill="#F18380"/>
<path d="M118.487 328.743C118.527 325.506 119.204 322.308 120.48 319.333C121.755 316.357 123.605 313.662 125.922 311.402C128.239 309.141 130.979 307.359 133.985 306.157C136.991 304.955 140.204 304.357 143.441 304.397C146.678 304.437 149.876 305.114 152.851 306.39C155.826 307.666 158.521 309.515 160.782 311.832C163.043 314.149 164.825 316.889 166.027 319.895C167.229 322.901 167.827 326.114 167.787 329.351L162.715 473.478L122.925 477.764L118.487 328.743Z" fill="#93929C"/>
<path d="M106.898 437.942C106.898 437.942 100.152 489.22 99.036 496.853C97.9202 504.487 92.8229 506.11 84.8852 505.932C76.9475 505.755 74.3354 499.187 73.7521 494.14C73.1689 489.093 71.9009 437.942 71.9009 437.942H106.898Z" fill="#FBBEAA"/>
<path d="M102.028 473.7H72.7625C72.2553 457.571 71.7734 437.942 71.7734 437.942H106.897C106.897 437.942 104.361 457.064 102.028 473.7Z" fill="#F18380"/>
<path d="M78.0373 326.992C78.8795 320.554 82.2279 314.709 87.3551 310.725C92.4823 306.741 98.9743 304.941 105.421 305.716C111.867 306.491 117.748 309.778 121.785 314.864C125.822 319.949 127.69 326.422 126.982 332.876L104.919 478.55H64.9014L78.0373 326.992Z" fill="#93929C"/>
<path d="M126.957 332.876L104.209 477.282" stroke="#676767" stroke-width="0.75" stroke-miterlimit="10" stroke-linecap="round"/>
<path d="M126.982 332.876C126.982 332.876 139.815 242.747 142.858 224.538" stroke="#676767" stroke-width="0.75" stroke-miterlimit="10" stroke-linecap="round"/>
<path d="M87.5476 479.71C90.4239 479.504 93.2759 480.361 95.562 482.119C97.848 483.876 99.409 486.412 99.9486 489.245L113.186 502.813V511.258H70.7593C70.7593 511.258 72.8895 496.042 73.4982 492.618C74.1068 489.195 76.1609 479.71 87.5476 479.71Z" fill="#FBBEAA"/>
<path d="M99.9231 489.144C100.405 488.484 101.09 487.977 101.571 488.281C102.053 488.586 114.86 498.73 115.469 499.237C115.844 499.589 116.127 500.027 116.295 500.513C116.463 500.999 116.51 501.518 116.432 502.027V512.906H69.8208C69.8208 512.906 71.6467 496.828 71.7735 495.94C71.9003 495.053 72.7879 493.886 73.2951 493.911C76.4944 494.892 79.8147 495.421 83.1601 495.484C87.6064 495.719 92.0417 494.848 96.0683 492.948C97.5613 491.909 98.8651 490.623 99.9231 489.144Z" fill="#2E70AC"/>
<path d="M108.774 503.776C106.517 502.103 98.4016 495.763 95.3584 493.379L96.0685 493.024C96.1643 492.983 96.2506 492.922 96.3221 492.846C99.5682 495.382 107.201 501.367 109.382 502.99C111.226 504.403 112.489 506.442 112.933 508.722L111.944 508.874C111.525 506.852 110.402 505.045 108.774 503.776Z" fill="#1E2173"/>
<path d="M71.0892 501.824C74.3741 501.857 77.5529 502.991 80.1173 505.044C82.4351 507.098 84.0051 509.863 84.5806 512.906H83.2112C82.6511 510.269 81.2654 507.88 79.2551 506.084C76.8949 504.194 73.9608 503.165 70.937 503.168L71.0892 501.824Z" fill="#1E2173"/>
<path d="M123.964 512.881H69.821C69.4428 512.881 69.1362 513.188 69.1362 513.566V518.815C69.1362 519.193 69.4428 519.5 69.821 519.5H123.964C124.343 519.5 124.649 519.193 124.649 518.815V513.566C124.649 513.188 124.343 512.881 123.964 512.881Z" fill="white"/>
<path d="M115.342 499.136C115.824 498.933 118.182 499.617 121.251 502.635C122.528 503.956 123.448 505.58 123.923 507.355C124.398 509.13 124.412 510.997 123.964 512.779H108.571C109.433 503.041 114.86 499.338 115.342 499.136Z" fill="white"/>
<path d="M109.433 499.288C109.243 499.521 109.152 499.819 109.181 500.118C109.209 500.417 109.355 500.693 109.585 500.886C109.698 500.979 109.829 501.049 109.969 501.092C110.11 501.135 110.257 501.15 110.403 501.136C110.549 501.122 110.691 501.079 110.82 501.01C110.95 500.941 111.064 500.847 111.158 500.734L113.694 497.665C113.884 497.432 113.974 497.134 113.946 496.835C113.917 496.536 113.772 496.26 113.541 496.067C113.43 495.971 113.3 495.898 113.159 495.853C113.018 495.808 112.87 495.792 112.723 495.806C112.576 495.821 112.433 495.865 112.304 495.936C112.174 496.007 112.06 496.103 111.969 496.22L109.433 499.288Z" fill="white"/>
<path d="M106.416 496.98C106.225 497.213 106.135 497.511 106.163 497.81C106.192 498.109 106.337 498.385 106.568 498.578C106.679 498.675 106.81 498.747 106.95 498.792C107.091 498.837 107.239 498.853 107.386 498.839C107.534 498.825 107.676 498.781 107.806 498.71C107.935 498.639 108.049 498.542 108.14 498.426L110.676 495.357C110.86 495.122 110.947 494.825 110.918 494.528C110.89 494.231 110.749 493.956 110.524 493.759C110.412 493.663 110.282 493.59 110.141 493.545C110.001 493.5 109.852 493.484 109.705 493.498C109.558 493.513 109.415 493.557 109.286 493.628C109.156 493.699 109.043 493.795 108.952 493.912L106.416 496.98Z" fill="white"/>
<path d="M103.499 494.698C103.307 494.923 103.213 495.216 103.237 495.51C103.261 495.805 103.401 496.079 103.626 496.27C103.859 496.46 104.157 496.551 104.456 496.523C104.755 496.494 105.031 496.349 105.224 496.118L107.76 493.05C107.866 492.946 107.951 492.821 108.009 492.684C108.066 492.547 108.096 492.4 108.096 492.251C108.096 492.102 108.066 491.955 108.009 491.817C107.951 491.68 107.866 491.556 107.76 491.452C107.524 491.268 107.228 491.181 106.93 491.21C106.633 491.238 106.358 491.379 106.162 491.604L103.499 494.698Z" fill="white"/>
<path d="M100.557 492.39C100.464 492.503 100.393 492.634 100.351 492.774C100.308 492.914 100.293 493.062 100.307 493.208C100.321 493.354 100.364 493.496 100.433 493.625C100.502 493.755 100.596 493.869 100.709 493.962C100.922 494.172 101.209 494.289 101.508 494.289C101.807 494.289 102.093 494.172 102.307 493.962L104.843 490.869C105.033 490.636 105.124 490.338 105.095 490.038C105.067 489.739 104.921 489.464 104.691 489.271C104.577 489.177 104.447 489.107 104.307 489.064C104.166 489.021 104.019 489.007 103.873 489.021C103.727 489.035 103.585 489.078 103.456 489.147C103.326 489.216 103.211 489.31 103.118 489.423L100.557 492.39Z" fill="white"/>
<path d="M147.144 479.71C150.02 479.504 152.872 480.361 155.158 482.119C157.444 483.876 159.005 486.412 159.545 489.245L172.757 502.813V511.258H130.355C130.355 511.258 132.46 496.042 133.094 492.618C133.728 489.195 135.757 479.71 147.144 479.71Z" fill="#FBBEAA"/>
<path d="M159.519 489.144C160.001 488.484 160.66 487.977 161.168 488.281C161.675 488.586 174.456 498.73 175.04 499.237C175.623 499.744 176.029 500.378 176.029 502.027V512.906H129.417C129.417 512.906 131.243 496.828 131.37 495.94C131.496 495.053 132.384 493.886 132.891 493.911C136.091 494.892 139.411 495.421 142.756 495.484C147.195 495.724 151.623 494.852 155.639 492.948C157.144 491.915 158.457 490.628 159.519 489.144Z" fill="#2E70AC"/>
<path d="M168.37 503.776C166.113 502.103 157.998 495.763 154.955 493.379L155.639 493.024C155.743 492.983 155.838 492.923 155.918 492.846C159.164 495.382 166.798 501.367 168.979 502.99C170.822 504.403 172.085 506.442 172.529 508.722L171.54 508.874C171.109 506.857 169.988 505.054 168.37 503.776Z" fill="#1E2173"/>
<path d="M130.685 501.824C133.97 501.857 137.149 502.991 139.713 505.044C142.031 507.098 143.601 509.863 144.177 512.906H142.807C142.24 510.266 140.846 507.876 138.826 506.084C136.478 504.19 133.55 503.161 130.533 503.168L130.685 501.824Z" fill="#1E2173"/>
<path d="M183.56 512.881H129.417C129.039 512.881 128.732 513.188 128.732 513.566V518.815C128.732 519.193 129.039 519.5 129.417 519.5H183.56C183.938 519.5 184.245 519.193 184.245 518.815V513.566C184.245 513.188 183.938 512.881 183.56 512.881Z" fill="white"/>
<path d="M174.938 499.136C175.42 498.933 177.778 499.617 180.847 502.635C182.125 503.956 183.044 505.58 183.519 507.355C183.994 509.13 184.008 510.997 183.561 512.779H168.167C169.029 503.041 174.456 499.338 174.938 499.136Z" fill="white"/>
<path d="M168.928 499.288C168.738 499.521 168.647 499.819 168.676 500.118C168.704 500.417 168.849 500.693 169.08 500.886C169.193 500.979 169.324 501.049 169.464 501.092C169.604 501.135 169.752 501.15 169.898 501.136C170.044 501.122 170.186 501.079 170.315 501.01C170.445 500.941 170.559 500.847 170.652 500.734L173.188 497.665C173.372 497.43 173.459 497.133 173.431 496.836C173.402 496.539 173.261 496.264 173.036 496.067C172.924 495.971 172.794 495.898 172.654 495.853C172.513 495.808 172.364 495.792 172.217 495.806C172.07 495.821 171.928 495.865 171.798 495.936C171.669 496.007 171.555 496.103 171.464 496.22L168.928 499.288Z" fill="white"/>
<path d="M166.011 496.98C165.821 497.213 165.731 497.511 165.759 497.81C165.788 498.109 165.933 498.385 166.163 498.578C166.275 498.674 166.405 498.747 166.546 498.792C166.687 498.837 166.835 498.853 166.982 498.839C167.129 498.824 167.272 498.78 167.401 498.709C167.531 498.638 167.645 498.542 167.736 498.425L170.272 495.357C170.456 495.122 170.542 494.825 170.514 494.528C170.486 494.23 170.345 493.955 170.12 493.759C169.887 493.569 169.589 493.478 169.289 493.507C168.99 493.535 168.715 493.681 168.522 493.911L166.011 496.98Z" fill="white"/>
<path d="M163.095 494.698C162.989 494.799 162.905 494.922 162.847 495.057C162.79 495.192 162.76 495.337 162.76 495.484C162.76 495.631 162.79 495.776 162.847 495.911C162.905 496.046 162.989 496.168 163.095 496.27C163.328 496.46 163.626 496.551 163.925 496.522C164.224 496.494 164.5 496.348 164.693 496.118L167.229 493.049C167.419 492.817 167.509 492.518 167.481 492.219C167.452 491.92 167.307 491.644 167.077 491.452C166.963 491.358 166.833 491.288 166.693 491.245C166.552 491.202 166.405 491.187 166.259 491.202C166.113 491.216 165.971 491.259 165.841 491.328C165.712 491.397 165.597 491.49 165.504 491.604L163.095 494.698Z" fill="white"/>
<path d="M160.154 492.39C160.06 492.503 159.99 492.634 159.947 492.774C159.904 492.914 159.889 493.062 159.904 493.208C159.918 493.354 159.961 493.496 160.03 493.625C160.099 493.755 160.192 493.869 160.306 493.962C160.519 494.172 160.806 494.289 161.105 494.289C161.403 494.289 161.69 494.172 161.904 493.962L164.44 490.869C164.63 490.636 164.72 490.338 164.692 490.038C164.663 489.739 164.518 489.464 164.287 489.271C164.174 489.177 164.044 489.107 163.903 489.064C163.763 489.021 163.616 489.007 163.47 489.021C163.324 489.035 163.182 489.078 163.052 489.147C162.923 489.216 162.808 489.31 162.715 489.423L160.154 492.39Z" fill="white"/>
<path d="M171.225 200.199C171.225 200.199 171.225 226.498 171.225 227.943C171.225 229.389 158.763 241.79 142.215 241.79C116.769 241.79 86.3131 232.331 86.7617 226.168C87.0608 222.11 87.4346 200.199 87.4346 200.199H171.225Z" fill="#93929C"/>
<path d="M153.032 87.1625C153.032 87.1625 168.594 95.5894 171.307 97.3646C174.021 99.1398 177.165 101.879 176.582 109.284C175.999 116.689 173.665 215.314 173.665 215.314C167.305 215.314 156.294 215.314 156.294 215.314H149.092C149.092 215.314 144.331 215.314 141.281 215.314C135.834 215.314 127.333 215.314 127.333 215.314H123.899H120.156C120.156 215.314 88.9886 215.77 88.2025 215.314C87.0546 215.314 84.6818 216.18 84.6816 215.314C84.7577 214.452 87.2895 110.121 87.6192 105.657C87.6845 103.267 88.4366 100.946 89.7858 98.9718C91.1349 96.9976 93.024 95.4536 95.2272 94.5243C100.527 92.1658 116.367 86.0513 116.367 86.0513C116.367 86.0513 130.886 104.358 140.116 100.843C146.078 98.5717 153.032 87.1625 153.032 87.1625Z" fill="#002366"/>
<path d="M84.8517 209.036L84.5597 217.17C84.5597 217.17 116.981 219.412 136.377 219.346C154.239 219.286 173.646 217.405 173.646 217.405L173.808 210.088C173.808 210.088 153.028 210.993 134.411 210.993C109.352 210.993 84.8517 209.036 84.8517 209.036Z" fill="#00163F"/>
<path d="M163.512 86.7735C165.956 96.2929 151.01 104.83 137.814 101.357C151.705 92.3275 151.01 86.7711 151.01 86.7711V77.0472C155.178 76.3527 161.974 80.7819 163.512 86.7735Z" fill="#001A4B"/>
<path d="M120.451 73.5746C116.283 72.88 102.796 74.29 98.2251 81.9091C96.1414 85.3821 100.438 92.2963 100.438 92.2963C100.438 92.2963 100.744 92.2963 105.078 90.6768C108.55 98.3171 126.007 104.83 138.81 101.428C120.451 91.6331 120.451 86.7706 120.451 86.7706V73.5746Z" fill="#001A4B"/>
<path d="M118.807 135.272H121.541V138.749H124.458V135.272H127.192V144.77H124.458V141.009H121.541V144.77H118.807V135.272H118.807ZM136.947 135.272V144.77H134.305V137.524H132.575V140.25C132.575 141.475 132.483 142.976 131.755 143.821C131.028 144.761 129.658 145.046 128.111 144.761V142.406C129.566 142.691 129.933 142.122 129.933 140.241V135.255H136.947V135.272ZM139.229 135.272H141.963L143.509 140.914L145.055 135.272H147.789L149.068 144.77H146.518L145.883 139.689L144.419 144.77H142.597L141.143 139.689L140.508 144.77H137.958L139.228 135.272L139.229 135.272ZM150.07 135.272H152.804V139.128L155.446 135.272H158.455L154.995 139.974L158.548 144.77H155.271L152.813 140.914V144.77H150.079V135.272H150.071H150.07ZM138.309 125.11C121.908 125.11 111.058 131.226 111.058 140.25C111.058 149.186 121.9 155.389 138.309 155.389C154.802 155.389 165.56 149.178 165.56 140.25C165.56 131.226 154.81 125.11 138.309 125.11ZM138.309 153.983C122.903 153.983 112.613 148.436 112.613 140.25C112.613 131.977 122.912 126.516 138.309 126.516C153.799 126.516 164.014 131.968 164.014 140.25C164.014 148.436 153.807 153.983 138.309 153.983ZM138.309 127.836C123.823 127.836 114.16 132.822 114.16 140.25C114.16 147.677 123.823 152.663 138.309 152.663C152.796 152.663 162.459 147.677 162.459 140.25C162.467 132.822 152.804 127.836 138.309 127.836ZM138.309 152.387C123.998 152.387 114.436 147.496 114.436 140.258C114.436 133.02 124.006 128.13 138.309 128.13C152.612 128.13 162.183 133.02 162.183 140.258C162.191 147.496 152.62 152.387 138.309 152.387V152.387Z" fill="white"/>
<path d="M105.782 141.559C110.372 136.917 118.956 126.907 121.861 124.469C124.733 122.305 127.87 120.518 131.197 119.153C133.721 118.307 136.33 117.742 138.977 117.467C140.818 117.234 141.57 117.778 141.57 118.893C141.524 119.558 141.312 120.2 140.954 120.762C140.597 121.323 140.104 121.786 139.521 122.109H142.919C144.086 122.109 144.838 123.043 144.293 124.547C143.799 125.541 143.092 126.414 142.222 127.104C141.353 127.794 140.342 128.284 139.262 128.541C139.262 128.541 143.852 128.982 145.019 129.215C146.186 129.448 146.549 129.889 146.549 131.004C146.539 131.775 146.325 132.529 145.929 133.189C145.533 133.85 144.968 134.393 144.293 134.765C142.641 135.435 140.887 135.821 139.106 135.906C139.106 135.906 144.786 137.332 145.927 137.747C147.068 138.162 147.198 138.914 146.601 139.9C146.261 140.594 145.771 141.203 145.165 141.683C144.559 142.163 143.854 142.502 143.1 142.674C140.948 143.245 139.495 142.311 138.717 142.441C137.046 142.98 135.409 143.62 133.816 144.36C131.424 146.742 128.499 148.52 125.284 149.547C122.891 150.551 120.695 151.974 118.801 153.748C117.918 154.576 116.878 155.219 115.743 155.638C114.608 156.058 113.4 156.245 112.191 156.19C110.982 156.134 109.797 155.836 108.705 155.315C107.613 154.793 106.637 154.057 105.834 153.152C101.684 148.743 102.385 145.06 105.782 141.559Z" fill="#FBBEAA"/>
<path d="M121.04 157.345L79.2922 204.291C74.2893 210.958 62.5987 214.623 55.4559 208.445C54.135 207.288 53.063 205.875 52.3048 204.291C51.5466 202.707 51.118 200.985 51.0451 199.231C50.9723 197.476 51.2565 195.725 51.8807 194.083C52.505 192.442 53.4561 190.944 54.6764 189.682L105.271 136.723L121.04 157.345Z" fill="#002366"/>
<path d="M138.951 122.135C138.959 122.178 138.957 122.222 138.946 122.264C138.936 122.306 138.916 122.346 138.889 122.38C138.863 122.414 138.829 122.443 138.79 122.463C138.752 122.483 138.71 122.495 138.666 122.498L136.54 122.706H135.502C135.139 122.706 134.802 122.835 134.439 122.861C134.055 122.976 133.682 123.124 133.324 123.302L132.131 123.795C130.523 124.443 128.915 125.04 127.722 125.481C126.529 125.921 125.699 126.181 125.699 126.181C125.634 126.209 125.56 126.211 125.493 126.187C125.425 126.163 125.37 126.114 125.336 126.051C125.288 125.988 125.262 125.91 125.262 125.831C125.262 125.751 125.288 125.674 125.336 125.61L127.281 124.599L129.304 123.639C130.03 123.302 130.834 122.965 131.638 122.654L132.857 122.187C133.249 122.01 133.657 121.871 134.076 121.772L135.321 121.642H136.384H137.966H138.562C138.628 121.591 138.711 121.567 138.794 121.577C138.876 121.587 138.952 121.629 139.003 121.694C139.055 121.76 139.078 121.843 139.069 121.925C139.059 122.008 139.017 122.084 138.951 122.135ZM138.459 128.385H137.992C137.604 128.35 137.213 128.35 136.825 128.385L136.021 128.515C135.725 128.552 135.43 128.604 135.139 128.67L133.376 129.241C132.183 129.63 131.016 130.123 130.134 130.486C130.134 130.486 129.849 130.486 129.875 130.615H129.563L129.097 130.745H128.811H128.656C128.577 130.764 128.509 130.812 128.466 130.88C128.422 130.947 128.407 131.029 128.422 131.108C128.434 131.17 128.465 131.227 128.512 131.269C128.559 131.311 128.619 131.337 128.682 131.342H130.004H130.419C131.327 131.108 132.546 130.745 133.739 130.33L135.476 129.682L136.28 129.474L136.98 129.267C137.339 129.161 137.702 129.074 138.07 129.008L138.511 128.878C138.55 128.866 138.586 128.847 138.618 128.821C138.65 128.795 138.676 128.763 138.695 128.726C138.714 128.69 138.726 128.651 138.73 128.61C138.734 128.569 138.73 128.528 138.718 128.489C138.687 128.451 138.647 128.421 138.602 128.403C138.556 128.385 138.507 128.379 138.459 128.385ZM138.459 135.75H137.499C137.24 135.75 136.903 135.75 136.566 135.932L135.502 136.269C134.833 136.505 134.183 136.791 133.557 137.125C133.27 137.26 132.992 137.416 132.727 137.592C132.674 137.653 132.645 137.731 132.645 137.812C132.645 137.893 132.674 137.971 132.727 138.032C132.802 138.111 132.904 138.158 133.013 138.162L133.972 138.007C134.517 137.877 135.217 137.669 135.917 137.436L136.929 137.021L137.81 136.684C138.104 136.554 138.39 136.407 138.666 136.243C138.74 136.2 138.794 136.13 138.818 136.048C138.842 135.966 138.834 135.878 138.796 135.802C138.719 135.753 138.626 135.734 138.536 135.75H138.459Z" fill="#F18380"/>
<defs>
<filter id="filter0_f_110_32" x="0.521484" y="488" width="247" height="63" filterUnits="userSpaceOnUse" color-interpolation-filters="sRGB">
<feFlood flood-opacity="0" result="BackgroundImageFix"/>
<feBlend mode="normal" in="SourceGraphic" in2="BackgroundImageFix" result="shape"/>
<feGaussianBlur stdDeviation="8.5" result="effect1_foregroundBlur_110_32"/>
</filter>
</defs>
</svg>
