<svg width="242" height="420" viewBox="0 0 242 420" fill="none" xmlns="http://www.w3.org/2000/svg">
<path d="M28.6995 386.126C28.2053 389.904 28.4651 393.742 29.4638 397.418C30.4625 401.094 32.1802 404.537 34.5176 407.545C36.8551 410.553 39.7658 413.068 43.0815 414.945C46.3972 416.821 50.052 418.021 53.8344 418.476C57.6169 418.93 61.4521 418.63 65.1179 417.593C68.7838 416.556 72.2076 414.803 75.1914 412.434C78.1753 410.065 80.6598 407.129 82.5013 403.793C84.3428 400.458 85.5048 396.791 85.9199 393.004C85.9199 393.004 100.922 287.636 104.479 266.349C108.037 245.061 104.272 227.243 80.4351 222.173C55.7087 216.926 40.2622 235.04 38.3944 253.185C36.5265 271.329 28.6995 386.126 28.6995 386.126Z" fill="black"/>
<path d="M75.9877 388.172C75.8934 395.815 78.839 403.182 84.1766 408.653C89.5143 414.124 96.8068 417.251 104.45 417.345C112.093 417.439 119.46 414.494 124.931 409.156C130.402 403.819 133.529 396.526 133.623 388.883C133.623 388.883 137.27 282.507 138.515 260.953C139.76 239.399 134.127 222.114 109.875 219.623C84.7338 217.044 71.333 236.701 71.333 254.964C71.333 273.227 75.9877 388.172 75.9877 388.172Z" fill="black"/>
<path d="M75.9873 388.172C76.034 384.387 76.8256 380.649 78.317 377.171C79.8084 373.692 81.9703 370.542 84.6794 367.899C87.3884 365.256 90.5914 363.172 94.1056 361.767C97.6198 360.362 101.376 359.663 105.161 359.71C108.945 359.757 112.683 360.548 116.162 362.04C119.64 363.531 122.791 365.693 125.434 368.402C128.077 371.111 130.16 374.314 131.565 377.828C132.97 381.342 133.669 385.099 133.623 388.883L127.693 557.38L81.1757 562.39L75.9873 388.172Z" fill="black"/>
<path d="M28.6988 386.126C29.6834 378.599 33.5979 371.765 39.5921 367.108C45.5862 362.45 53.1759 360.346 60.7124 361.252C68.249 362.158 75.1237 366.001 79.8434 371.946C84.563 377.891 86.7464 385.459 85.9192 393.004L60.1261 563.309H13.3418L28.6988 386.126Z" fill="black"/>
<path d="M85.8899 393.004L59.2959 561.827" stroke="#676767" stroke-width="0.75" stroke-miterlimit="10" stroke-linecap="round"/>
<path d="M85.9199 393.004C85.9199 393.004 100.922 287.636 104.479 266.349" stroke="#676767" stroke-width="0.75" stroke-miterlimit="10" stroke-linecap="round"/>
<path d="M137.643 237.894C137.643 237.894 137.643 268.639 137.643 270.329C137.643 272.019 122.819 286.517 103.132 286.517C72.862 286.517 36.6323 275.458 37.166 268.254C37.5218 263.51 37.9665 237.894 37.9665 237.894H137.643Z" fill="black"/>
<path d="M111.263 138.071C109.852 133.856 110.172 129.253 112.154 125.275C114.136 121.297 117.618 118.269 121.832 116.857C126.047 115.446 130.65 115.767 134.628 117.749C138.606 119.731 141.634 123.212 143.045 127.427L175.273 223.486C176.688 227.701 176.371 232.305 174.392 236.286C172.412 240.267 168.933 243.299 164.718 244.714C160.503 246.129 155.899 245.812 151.918 243.833C147.937 241.854 144.906 238.374 143.49 234.159L111.263 138.071Z" fill="#FBBEAA"/>
<path d="M193.032 158.497L147.908 215.481C140.644 224.197 139.013 234.811 149.479 242.371C151.434 243.751 153.647 244.723 155.986 245.228C158.326 245.732 160.743 245.76 163.093 245.309C165.443 244.858 167.677 243.937 169.663 242.602C171.649 241.267 173.345 239.545 174.65 237.539L214.2 170.06C219.448 162.648 218.796 155.503 213.074 151.589C206.196 146.905 199.999 149.188 193.032 158.497Z" fill="#FBBEAA"/>
<path d="M200.148 171.721C202.497 173.186 205.318 173.696 208.032 173.144C210.745 172.593 213.144 171.022 214.734 168.756C216.068 166.414 221.642 163.182 223.955 159.861C225.793 157.223 230.566 150.967 233.916 146.905C234.841 146.081 235.703 145.189 236.496 144.237C240.32 140.59 238.808 135.995 234.865 136.054C235.308 135.235 235.497 134.302 235.407 133.375C235.318 132.448 234.954 131.568 234.362 130.849C233.77 130.13 232.977 129.603 232.084 129.337C231.192 129.071 230.24 129.077 229.351 129.354C232.997 125.381 238.601 118.74 240.38 116.338C242.159 113.937 242.544 112.247 241.18 110.201C240.85 109.636 240.394 109.154 239.849 108.791C239.303 108.429 238.682 108.196 238.033 108.11C237.384 108.024 236.723 108.088 236.102 108.296C235.481 108.504 234.916 108.852 234.45 109.312C232.315 111.387 227.631 118.206 222.976 123.039C224.98 118.986 226.742 114.818 228.254 110.557C229.321 107.355 229.025 106.11 227.127 104.627C226.65 104.204 226.083 103.896 225.469 103.726C224.855 103.555 224.21 103.528 223.583 103.645C222.956 103.762 222.365 104.021 221.854 104.402C221.343 104.783 220.926 105.276 220.634 105.843C219.181 108.6 216.721 114.737 213.637 120.934C212.955 122.298 212.274 123.543 211.681 124.64C210.554 124.314 209.368 123.958 208.301 123.721C205.603 123.068 204.239 124.966 202.875 126.685C201.511 128.405 201.482 131.488 200.177 136.291C198.873 141.094 198.28 147.231 195.938 155.147C193.358 158.853 190.927 165.91 200.148 171.721Z" fill="#FBBEAA"/>
<path d="M220.753 139.612C220.664 139.172 220.664 138.718 220.753 138.278C220.858 137.85 221.028 137.44 221.257 137.063C221.305 136.985 221.378 136.925 221.463 136.893C221.549 136.861 221.643 136.858 221.731 136.885C221.783 136.898 221.832 136.922 221.874 136.955C221.916 136.989 221.951 137.03 221.976 137.078C222.001 137.125 222.016 137.177 222.02 137.231C222.023 137.284 222.016 137.338 221.998 137.389C221.903 137.709 221.834 138.036 221.79 138.367C221.76 138.692 221.76 139.02 221.79 139.345C221.956 139.979 222.295 140.554 222.769 141.006C223.199 141.494 223.722 141.892 224.307 142.177C224.892 142.462 225.528 142.628 226.178 142.666H226.475C226.579 142.705 226.674 142.765 226.755 142.842C226.836 142.919 226.9 143.011 226.945 143.114C226.989 143.216 227.012 143.326 227.013 143.438C227.014 143.549 226.992 143.66 226.949 143.763C226.849 143.98 226.779 144.209 226.741 144.445C226.714 144.691 226.714 144.94 226.741 145.186C226.813 145.439 226.923 145.679 227.068 145.898C227.199 146.15 227.369 146.38 227.571 146.579C227.968 147.007 228.454 147.341 228.995 147.558C229.256 147.673 229.539 147.733 229.825 147.736C229.933 147.751 230.043 147.751 230.151 147.736C230.308 147.762 230.468 147.762 230.625 147.736C230.716 147.711 230.813 147.719 230.899 147.757C230.985 147.794 231.056 147.86 231.1 147.943C231.125 147.992 231.141 148.045 231.146 148.1C231.151 148.155 231.145 148.21 231.128 148.262C231.112 148.315 231.085 148.363 231.05 148.405C231.014 148.447 230.971 148.482 230.922 148.507C230.782 148.608 230.633 148.698 230.477 148.773C230.267 148.857 230.048 148.917 229.825 148.951C229.422 149.011 229.012 149.011 228.609 148.951C227.843 148.749 227.133 148.374 226.534 147.854C226.23 147.604 225.961 147.315 225.733 146.995C225.499 146.644 225.31 146.266 225.17 145.868C225.046 145.445 224.996 145.004 225.022 144.563C225.022 144.563 225.022 144.563 225.022 144.356C224.476 144.236 223.948 144.046 223.45 143.793C222.677 143.375 221.993 142.811 221.434 142.132C220.994 141.365 220.759 140.497 220.753 139.612ZM233.056 138.248C233.342 137.935 233.6 137.598 233.827 137.24C233.867 137.202 233.898 137.156 233.919 137.105C233.941 137.054 233.952 136.999 233.952 136.944C233.952 136.889 233.941 136.834 233.919 136.783C233.898 136.732 233.867 136.686 233.827 136.647C233.759 136.611 233.682 136.592 233.605 136.592C233.527 136.592 233.451 136.611 233.383 136.647C233.383 136.647 232.938 136.885 232.315 137.3C231.551 137.819 230.818 138.383 230.121 138.99L229.054 140.027C228.698 140.353 228.431 140.709 228.164 140.976C227.876 141.295 227.609 141.631 227.364 141.984C227.291 142.066 227.251 142.171 227.251 142.281C227.251 142.39 227.291 142.496 227.364 142.577C227.433 142.613 227.509 142.632 227.586 142.632C227.664 142.632 227.74 142.613 227.809 142.577C228.186 142.38 228.553 142.163 228.906 141.925C229.202 141.688 229.588 141.45 229.943 141.154L231.1 140.205C231.759 139.579 232.383 138.915 232.967 138.219L233.056 138.248ZM228.135 131.518C228.386 131.189 228.614 130.842 228.817 130.481C228.853 130.396 228.861 130.302 228.841 130.212C228.821 130.122 228.774 130.04 228.705 129.978C228.637 129.916 228.551 129.877 228.459 129.866C228.368 129.855 228.275 129.873 228.194 129.917C227.853 130.123 227.526 130.35 227.216 130.599C226.949 130.836 226.593 131.103 226.267 131.429L225.259 132.378C224.655 133.025 224.09 133.708 223.569 134.424C223.154 135.017 222.917 135.432 222.917 135.432C222.886 135.482 222.867 135.537 222.859 135.595C222.851 135.653 222.856 135.712 222.873 135.768C222.89 135.824 222.918 135.876 222.956 135.92C222.995 135.964 223.042 136 223.095 136.025C223.158 136.061 223.229 136.08 223.302 136.08C223.375 136.08 223.447 136.061 223.51 136.025C223.862 135.811 224.199 135.574 224.518 135.313C225.198 134.763 225.842 134.169 226.445 133.534C226.771 133.179 227.097 132.823 227.364 132.467C227.631 132.111 227.809 131.756 228.046 131.489L228.135 131.518ZM207.381 132.26C207.312 132.331 207.274 132.427 207.274 132.526C207.274 132.626 207.312 132.721 207.381 132.793L207.619 132.971C207.801 133.152 208.011 133.302 208.241 133.416C209.034 133.909 209.892 134.288 210.791 134.542L211.087 134.839L211.888 135.58C212.214 135.877 212.57 136.173 212.925 136.529L213.993 137.804C214.43 138.237 214.809 138.725 215.119 139.256C215.475 139.76 215.831 140.324 216.157 140.887C216.485 141.469 216.773 142.074 217.017 142.696C217.165 143.022 217.343 143.289 217.462 143.615L217.728 144.593C217.942 145.2 218.101 145.825 218.203 146.461C218.203 147.084 218.381 147.676 218.47 148.269C218.498 148.803 218.498 149.337 218.47 149.87C218.515 150.334 218.515 150.8 218.47 151.264C218.47 151.679 218.47 152.064 218.292 152.361C218.114 152.657 218.292 153.339 218.292 153.339C218.268 153.449 218.289 153.564 218.35 153.659C218.412 153.753 218.508 153.82 218.618 153.843C218.728 153.867 218.843 153.846 218.937 153.785C219.032 153.723 219.098 153.627 219.122 153.517C219.122 153.517 219.122 153.161 219.389 152.568C219.656 151.975 219.596 151.916 219.685 151.501C219.808 151.006 219.877 150.499 219.893 149.989C219.925 149.396 219.925 148.803 219.893 148.21C219.893 147.558 219.893 146.906 219.715 146.194C219.635 145.489 219.486 144.794 219.27 144.119L218.974 143.081C218.974 142.725 218.707 142.399 218.559 142.043C218.41 141.688 217.966 140.709 217.58 140.087C217.195 139.464 216.78 138.901 216.365 138.337C216.003 137.775 215.564 137.266 215.06 136.825C214.615 136.41 214.2 135.966 213.815 135.58C213.592 135.384 213.354 135.205 213.103 135.046C213.656 135.091 214.211 135.091 214.764 135.046C215.565 135.018 216.356 134.857 217.106 134.572C217.522 134.401 217.911 134.172 218.262 133.89C218.61 133.627 218.911 133.306 219.152 132.941C219.594 132.283 219.981 131.589 220.308 130.866C220.608 130.11 220.778 129.308 220.812 128.494C220.842 128.061 220.781 127.626 220.633 127.217C220.485 126.809 220.253 126.436 219.952 126.122C219.386 125.681 218.709 125.404 217.995 125.322C216.869 125.085 215.979 124.996 215.357 124.877L214.349 124.729C214.296 124.716 214.241 124.714 214.187 124.724C214.134 124.734 214.083 124.755 214.038 124.786C213.993 124.817 213.956 124.856 213.927 124.903C213.899 124.949 213.881 125.001 213.874 125.055C213.86 125.153 213.878 125.252 213.927 125.338C213.975 125.424 214.05 125.491 214.141 125.53L215.09 125.856L217.699 126.567C218.165 126.66 218.602 126.863 218.974 127.16C219.228 127.545 219.333 128.008 219.27 128.465C219.231 129.08 219.081 129.683 218.825 130.244C218.559 130.864 218.221 131.451 217.817 131.993C217.65 132.245 217.439 132.466 217.195 132.645C216.976 132.813 216.737 132.953 216.483 133.06C215.902 133.284 215.294 133.434 214.675 133.505C213.493 133.598 212.305 133.518 211.147 133.268C210.312 133.095 209.497 132.836 208.715 132.497C208.415 132.376 208.127 132.227 207.856 132.052C207.802 132.01 207.739 131.982 207.673 131.968C207.606 131.954 207.537 131.956 207.471 131.973C207.405 131.99 207.344 132.022 207.293 132.067C207.241 132.111 207.2 132.167 207.174 132.23L207.381 132.26Z" fill="#F18380"/>
<path d="M147.501 245.081C145.656 244.783 144.132 243.48 143.55 241.704L109.721 138.574C108.847 136.265 108.448 133.802 108.548 131.335C108.648 128.868 109.246 126.446 110.304 124.215C111.362 121.984 112.86 119.989 114.707 118.35C116.555 116.712 118.714 115.463 121.055 114.678C123.397 113.894 125.872 113.59 128.334 113.785C130.796 113.98 133.193 114.669 135.382 115.813C137.571 116.956 139.506 118.529 141.073 120.438C142.639 122.347 143.804 124.553 144.498 126.923L165.657 194.194L194.193 154.169L217.911 168.993L174.712 244.243C173.054 247.131 169.782 248.69 166.495 248.157L147.501 245.081Z" fill="#028A5B"/>
<path d="M114.051 76.9955H78.3545V118.977H114.051V76.9955Z" fill="#FBBEAA"/>
<path d="M78.4428 76.9955H114.02V100.417C112.466 100.61 110.902 100.709 109.336 100.714C97.0617 100.714 83.3347 97.3636 78.3242 85.6527L78.4428 76.9955Z" fill="#F18380"/>
<path d="M114.021 103.738C114.021 103.738 134.567 115.597 137.739 117.672C140.911 119.748 144.588 122.95 143.906 131.607C143.224 140.264 140.496 253.993 140.496 253.993C134.081 257.455 127.258 260.104 120.187 261.879C116.778 262.265 114.08 262.354 111.767 260.101C109.455 257.847 102.636 249.665 102.636 249.665C102.636 249.665 91.3994 257.284 86.3297 260.101C85.1216 260.944 83.7563 261.536 82.315 261.842C80.8737 262.147 79.3857 262.16 77.9393 261.879C70.557 260.367 41.5021 251.888 40.583 251.354C39.6639 250.821 38.8041 250.257 38.8931 249.249C38.982 248.241 39.5157 132.585 39.9011 127.367C39.9774 124.573 40.8567 121.859 42.434 119.551C44.0112 117.243 46.2197 115.438 48.7954 114.352C54.9918 111.594 78.2654 102.137 78.2654 102.137L102.547 119.006L114.021 103.738Z" fill="#009762"/>
<path d="M114.02 100.418L102.605 119.007C102.605 119.007 113.812 127.901 114.465 128.554C115.117 129.206 116.421 129.147 116.688 128.109C116.955 127.071 120.187 107.355 120.246 107.355C120.303 107.251 120.333 107.134 120.333 107.014C120.333 106.895 120.303 106.778 120.246 106.673C119.95 106.466 114.02 100.418 114.02 100.418Z" fill="#F5F5F5"/>
<path d="M62.789 291.202L37.3511 223.011C33.6451 212.249 25.492 205.43 13.6328 210.441C11.4393 211.399 9.46164 212.79 7.81842 214.531C6.1752 216.271 4.9002 218.326 4.06973 220.571C3.23927 222.816 2.87044 225.205 2.98535 227.596C3.10026 229.987 3.69652 232.33 4.73846 234.485L42.0355 303.209C45.6822 311.54 52.1454 314.683 58.4307 311.807C65.9317 308.605 67.1176 302.023 62.789 291.202Z" fill="#FBBEAA"/>
<path d="M64.5084 296.567C66.4355 305.254 71.5646 322.509 72.2168 327.609C72.5895 332.505 72.3204 337.428 71.4164 342.255C70.5087 345.822 69.1956 349.274 67.5028 352.542C66.4355 354.825 65.3385 355.151 64.034 354.41C63.3039 353.865 62.723 353.144 62.3447 352.315C61.9665 351.486 61.8031 350.575 61.8698 349.667C61.8698 349.667 60.1205 352.216 59.2014 353.491C58.2823 354.766 56.7407 355.003 55.4065 353.284C54.6377 351.975 54.1625 350.515 54.0141 349.005C53.8656 347.495 54.0474 345.97 54.5467 344.537C54.5467 344.537 50.6332 349.489 49.5066 350.645C48.38 351.801 47.6091 351.92 46.3343 351.06C45.463 350.482 44.76 349.684 44.2966 348.747C43.8332 347.81 43.6259 346.767 43.6956 345.723C44.1584 343.291 45.0306 340.956 46.2749 338.815C46.2749 338.815 40.3454 344.271 39.1298 345.308C37.9143 346.346 36.8173 345.901 36.1651 344.478C35.6434 343.591 35.3203 342.602 35.2179 341.578C35.1156 340.555 35.2364 339.521 35.5721 338.549C36.4912 335.584 38.5369 334.665 39.0705 333.686C39.684 331.364 40.1591 329.008 40.4936 326.63C38.774 319.159 40.6419 316.194 40.8494 313.022C41.4727 309.541 41.4727 305.977 40.8494 302.497C40.5568 300.873 40.5912 299.208 40.9508 297.598C41.3103 295.988 41.9877 294.466 42.9431 293.121C43.8985 291.776 45.1128 290.636 46.5148 289.766C47.9168 288.897 49.4782 288.316 51.1076 288.058C59.2607 286.487 62.9074 290.015 64.5084 296.567Z" fill="#FBBEAA"/>
<path d="M62.1665 348.866C62.1176 348.841 62.0742 348.807 62.0387 348.765C62.0032 348.723 61.9764 348.674 61.9599 348.622C61.9433 348.57 61.9374 348.514 61.9423 348.46C61.9472 348.405 61.963 348.352 61.9887 348.303L63.3228 345.664C63.5007 345.289 63.7083 344.874 63.9454 344.419C64.1826 343.945 64.3012 343.53 64.5384 343.055C64.6933 342.542 64.8024 342.016 64.8645 341.484C64.8645 340.891 65.0721 340.328 65.1906 339.735C65.6057 337.422 66.1097 335.139 66.4952 333.45C66.8806 331.76 67.2067 330.485 67.2067 330.485C67.2279 330.393 67.2818 330.313 67.3582 330.258C67.4346 330.203 67.5284 330.179 67.6218 330.188C67.7292 330.203 67.8276 330.256 67.8986 330.338C67.9695 330.42 68.0081 330.525 68.0072 330.633C68.0072 330.633 68.0072 331.819 67.77 333.598C67.77 334.487 67.5328 335.525 67.3846 336.563C67.2364 337.6 66.9992 338.786 66.762 339.942L66.4062 341.692C66.3141 342.275 66.1753 342.85 65.9911 343.411C65.7243 343.945 65.4575 344.479 65.1906 344.923L64.4198 346.139C63.9454 346.88 63.5007 347.503 63.2042 347.918L62.7002 348.57C62.6659 348.678 62.5915 348.769 62.4923 348.824C62.3931 348.879 62.2765 348.894 62.1665 348.866ZM55.4068 343.708L55.733 343.204C55.9109 342.848 56.237 342.433 56.5335 341.81C56.83 341.188 56.8299 341.158 56.9782 340.802C57.1518 340.437 57.3004 340.061 57.4229 339.676C57.6305 338.905 57.8676 338.075 58.1048 337.244C58.5199 335.555 58.8164 333.865 59.0536 332.59C59.0536 332.441 59.0536 332.175 59.0536 332.204C59.0536 332.234 59.0535 331.908 59.2018 331.789C59.2775 331.577 59.337 331.359 59.3797 331.137C59.3715 331.019 59.3715 330.9 59.3797 330.781C59.4093 330.675 59.3983 330.562 59.349 330.463C59.2997 330.364 59.2155 330.288 59.1128 330.248C59.0463 330.205 58.9692 330.183 58.8905 330.183C58.8117 330.183 58.7346 330.205 58.6681 330.248C58.5555 330.376 58.4562 330.515 58.3716 330.663C58.2507 330.864 58.1418 331.071 58.0455 331.285C57.9655 331.397 57.896 331.516 57.838 331.641C57.7696 331.816 57.7102 331.994 57.6601 332.175C57.245 333.39 56.7707 335.139 56.3556 336.74C56.1777 337.571 55.9701 338.43 55.8219 339.201L55.4661 340.298C55.4661 340.624 55.2586 340.95 55.1697 341.247C55.0807 341.543 54.7843 342.344 54.6953 342.7C54.6064 343.055 54.4878 343.263 54.4878 343.263C54.4582 343.369 54.4691 343.483 54.5184 343.581C54.5677 343.68 54.6519 343.757 54.7546 343.797C54.8537 343.869 54.977 343.9 55.0987 343.884C55.2203 343.867 55.3308 343.804 55.4068 343.708ZM46.8979 338.252C47.1108 337.88 47.299 337.494 47.4612 337.096C47.4612 336.74 47.817 336.325 47.9652 335.881C48.1135 335.436 48.2024 334.902 48.3507 334.428C48.5662 333.45 48.7246 332.46 48.825 331.463C48.8585 331.029 48.8585 330.593 48.825 330.159C48.8175 330.046 48.7673 329.94 48.6847 329.863C48.6021 329.786 48.4933 329.743 48.3803 329.744C48.3059 329.75 48.2342 329.775 48.172 329.817C48.1098 329.858 48.0591 329.914 48.0245 329.981C47.8166 330.372 47.6382 330.778 47.4909 331.196C47.1731 332.06 46.9058 332.941 46.6904 333.835C46.6904 334.339 46.5125 334.843 46.4235 335.288C46.3346 335.732 46.2457 336.207 46.1567 336.592C46.0678 336.978 46.1567 337.867 46.1567 337.867C46.1558 337.983 46.1976 338.096 46.2741 338.183C46.3506 338.271 46.4565 338.327 46.5718 338.341C46.6877 338.353 46.8038 338.321 46.8979 338.252Z" fill="#F18380"/>
<path d="M78.1461 96.978L102.635 119.006C102.635 119.006 89.7385 127.901 89.1752 128.553C89.011 128.693 88.8172 128.793 88.6084 128.847C88.3996 128.901 88.1814 128.907 87.9701 128.864C87.7588 128.821 87.56 128.731 87.3887 128.6C87.2174 128.469 87.0781 128.301 86.9812 128.108C86.0325 126.596 70.8528 105.279 70.7935 105.102C70.7306 104.999 70.6973 104.881 70.6973 104.761C70.6973 104.64 70.7306 104.522 70.7935 104.42C71.1196 104.242 78.1461 96.978 78.1461 96.978Z" fill="#F5F5F5"/>
<path d="M39.1298 126.981C39.8871 124.916 41.0438 123.02 42.5338 121.401C44.0239 119.783 45.8181 118.474 47.8141 117.549C49.81 116.624 51.9686 116.101 54.1667 116.01C56.3647 115.919 58.5591 116.262 60.6245 117.02C62.69 117.777 64.5861 118.934 66.2045 120.424C67.823 121.914 69.132 123.708 70.0571 125.704C70.9821 127.7 71.505 129.858 71.5957 132.056C71.6865 134.255 71.3435 136.449 70.5862 138.514L35.6907 233.654C33.9533 237.522 30.8136 240.588 26.9049 242.232C22.9962 243.876 18.6095 243.976 14.6296 242.513C10.6498 241.05 7.37297 238.132 5.46023 234.347C3.54748 230.563 3.14116 226.194 4.32323 222.121L39.1298 126.981Z" fill="#FBBEAA"/>
<path d="M1.42964 231.038C0.519158 229.287 0.390075 227.233 1.07417 225.382L37.6467 126.418C39.458 122.036 42.8951 118.525 47.2378 116.621C51.5804 114.717 56.4914 114.568 60.9417 116.205C65.3919 117.841 69.0359 121.137 71.1101 125.401C73.1842 129.665 73.5274 134.566 72.0679 139.078L41.507 231.253L66.7077 294.996L38.5422 302.408L1.42964 231.038Z" fill="#009762"/>
<path d="M132.491 45.836C132.194 57.962 132.491 67.5383 130.297 76.7884C128.103 86.0385 121.402 93.5987 106.579 93.5987C91.7546 93.5987 74.8553 88.7661 73.6694 70.2362C71.2383 67.5976 67.2951 58.1992 67.1469 47.6742C66.9987 37.1492 67.8288 14.8837 91.8139 11.4742C115.799 8.06465 133.143 16.8701 132.491 45.836Z" fill="#FBBEAA"/>
<path d="M119.95 55.382C119.95 57.0127 120.929 58.3468 122.144 58.3468C123.36 58.3468 124.338 57.0127 124.338 55.382C124.338 53.7514 123.36 52.4172 122.144 52.4172C120.929 52.4172 119.95 53.6328 119.95 55.382Z" fill="#403D4F"/>
<path d="M93.2666 55.382C93.2666 57.0127 94.245 58.3468 95.4605 58.3468C96.6761 58.3468 97.6545 57.0127 97.6545 55.382C97.6545 53.7514 96.6761 52.4172 95.4605 52.4172C94.245 52.4172 93.2666 53.6328 93.2666 55.382Z" fill="#403D4F"/>
<path d="M98.6328 49.2154C98.4252 49.4823 96.8539 49.2154 95.668 49.2154C94.4821 49.2154 92.1992 49.2154 92.1992 48.9486C92.1992 48.6818 93.3258 46.8436 96.2905 47.1697C98.4252 47.4069 99.1961 48.7411 98.6328 49.2154Z" fill="#403D4F"/>
<path d="M119.446 49.2155C119.624 49.4823 120.958 49.2155 121.996 49.2155C123.034 49.2155 124.961 49.2155 124.961 48.9486C124.695 48.2767 124.192 47.725 123.548 47.3975C122.904 47.0699 122.162 46.9889 121.462 47.1698C119.624 47.407 119.12 48.7411 119.446 49.2155Z" fill="#403D4F"/>
<path d="M110.699 67.6567C112.775 67.6567 114.435 66.2929 114.494 65.3145L113.812 56.9539C113.79 56.7467 113.688 56.5564 113.527 56.4235C113.366 56.2907 113.16 56.2257 112.953 56.2423C112.851 56.2498 112.752 56.2773 112.662 56.3231C112.571 56.3689 112.49 56.4322 112.424 56.5094C112.358 56.5865 112.308 56.676 112.276 56.7726C112.245 56.8693 112.233 56.9712 112.241 57.0724L112.893 65.1367C112.594 65.4616 112.225 65.7154 111.815 65.8796C111.404 66.0437 110.963 66.1141 110.522 66.0854C110.418 66.0773 110.314 66.0903 110.215 66.1236C110.117 66.1568 110.026 66.2097 109.948 66.2789C109.871 66.3482 109.808 66.4324 109.764 66.5265C109.72 66.6206 109.695 66.7227 109.691 66.8266C109.691 67.0369 109.77 67.2395 109.913 67.3936C110.056 67.5477 110.252 67.6417 110.462 67.6567H110.699Z" fill="#F18380"/>
<path d="M78.5667 62.2605C75.3153 61.8693 73.2268 59.2957 72.6371 56.3309C72.0473 53.3662 70.1981 54.8486 66.7075 54.8486C63.2169 54.8486 61.4325 47.9852 60.3348 42.7641C58.907 35.9735 61.0329 28.0239 63.1273 25.2162C57.5423 20.3029 60.3348 3.45699 61.731 9.07226C62.848 13.5645 66.8506 15.6234 68.7122 16.0914C74.2971 -4.68524 96.1715 -0.988473 106.411 3.45699C114.788 0.0877966 122.002 4.86082 124.562 7.66848C137.128 3.457 142.713 9.0723 145.505 11.88C148.298 14.6876 151.788 30.8316 139.92 37.8507C130.426 43.466 116.417 38.7866 110.599 35.745C103.897 41.3603 94.7752 39.4885 91.052 37.8507C90.4935 41.2199 84.0912 46.0397 81.5314 49.0813C78.9717 52.1229 80.049 62.4389 78.5667 62.2605Z" fill="#F3E8AE"/>
<path d="M74.3222 61.0152C74.174 57.6353 73.6403 52.6545 68.8374 52.5359C64.0344 52.4173 63.4118 56.0344 63.5601 61.7267C63.7083 67.4191 69.4896 72.2517 74.5594 70.295L74.3222 61.0152Z" fill="#FBBEAA"/>
<path d="M67.2654 65.1069C67.4733 65.0706 67.6585 64.9537 67.7806 64.7816C67.9028 64.6094 67.952 64.396 67.9176 64.1878C67.9178 64.0204 67.9652 63.8566 68.0544 63.715C68.1435 63.5734 68.2708 63.4598 68.4216 63.3873C68.7242 63.1846 69.0803 63.0764 69.4445 63.0764C69.8087 63.0764 70.1647 63.1846 70.4673 63.3873C70.599 63.46 70.7469 63.4981 70.8972 63.4981C71.0476 63.4981 71.1955 63.46 71.3271 63.3873C71.4479 63.3075 71.5448 63.1964 71.6074 63.0658C71.6701 62.9353 71.6962 62.7903 71.6829 62.6461C71.2678 57.8728 68.2141 56.9833 68.0955 56.9537C67.9943 56.9225 67.8877 56.9124 67.7824 56.9242C67.6772 56.936 67.5754 56.9694 67.4836 57.0222C67.3918 57.0751 67.3119 57.1463 67.2488 57.2314C67.1858 57.3166 67.1409 57.4138 67.1171 57.517C67.0624 57.7136 67.0878 57.9238 67.1879 58.1017C67.2879 58.2795 67.4544 58.4104 67.6508 58.4657C68.2431 58.7339 68.7592 59.1453 69.1526 59.663C69.546 60.1806 69.8043 60.7881 69.904 61.4305C69.0916 61.2982 68.2588 61.4668 67.5619 61.9049C67.1558 62.143 66.8276 62.4938 66.617 62.9149C66.4065 63.3359 66.3227 63.809 66.3759 64.2767C66.3709 64.3922 66.391 64.5074 66.4348 64.6144C66.4785 64.7215 66.545 64.8177 66.6295 64.8966C66.714 64.9755 66.8146 65.0351 66.9244 65.0714C67.0342 65.1077 67.1505 65.1198 67.2654 65.1069Z" fill="#F18380"/>
<path d="M108.654 78.3294C105.792 78.219 103.044 77.1781 100.827 75.3646" stroke="#73102A" stroke-width="0.5" stroke-miterlimit="10" stroke-linecap="round"/>
</svg>
