<svg width="245" height="424" viewBox="0 0 245 424" fill="none" xmlns="http://www.w3.org/2000/svg">
<path d="M38.5333 275.934C39.2388 267.051 48.7629 232.995 58.9926 213.593C58.9926 213.593 81.3091 216.413 95.68 216.459C110.674 216.508 133.968 213.593 133.968 213.593C140.638 228.697 148.238 261.695 150.451 268.815C151.786 273.003 151.949 277.478 150.92 281.752C149.891 286.026 147.71 289.936 144.614 293.058C137.014 301.684 117.421 311.561 112.899 311.561C93.4457 308.782 74.378 303.768 56.0745 296.618C45.7486 292.288 37.8598 284.849 38.5333 275.934Z" fill="#302D3B"/>
<path d="M215.644 90.9651C215.776 88.0754 215.003 85.2166 213.431 82.7878C211.012 79.9827 209.2 76.7072 208.108 73.1674C207.268 69.8816 205.927 66.7448 204.132 63.8676C202.849 62.1039 200.925 60.6609 200.925 59.314C200.925 57.9672 203.49 55.3697 207.146 56.1072C208.712 56.595 210.151 57.423 211.359 58.5317C212.568 59.6405 213.516 61.0027 214.137 62.5208C214.487 61.5958 214.693 60.6224 214.746 59.6347L215.548 39.977C215.56 39.4675 215.674 38.9654 215.884 38.5007C216.093 38.0359 216.393 37.6179 216.767 37.2711C217.141 36.9244 217.58 36.656 218.059 36.4818C218.538 36.3077 219.047 36.2313 219.556 36.2572C220.367 36.2917 221.146 36.5795 221.785 37.0799C222.423 37.5803 222.889 38.2683 223.116 39.0471V38.1492C223.239 37.1935 223.719 36.32 224.46 35.7038C225.201 35.0877 226.148 34.7745 227.11 34.8273C228.072 34.88 228.978 35.2948 229.647 35.9883C230.316 36.6818 230.698 37.6027 230.716 38.5661V41.2918C231.037 40.4515 231.65 39.7545 232.442 39.3279C233.234 38.9014 234.153 38.7736 235.031 38.968C235.91 39.1623 236.689 39.6657 237.227 40.3866C237.765 41.1075 238.027 41.9978 237.963 42.8952V44.6268C238.309 44.0203 238.823 43.5274 239.444 43.2085C240.064 42.8896 240.765 42.7584 241.459 42.831C242.409 42.9517 243.276 43.4376 243.874 44.1858C244.473 44.934 244.757 45.8857 244.666 46.8395L243.094 63.4187C242.065 72.7658 240.132 81.9911 237.322 90.9651C237.288 92.4635 236.941 93.9381 236.303 95.2943C235.665 96.6505 234.75 97.8583 233.618 98.8398C232.485 99.8214 231.16 100.555 229.727 100.994C228.293 101.433 226.784 101.567 225.296 101.387C223.95 101.432 222.609 101.187 221.366 100.668C220.123 100.15 219.005 99.3695 218.09 98.381C217.174 97.3925 216.482 96.2187 216.06 94.9392C215.638 93.6596 215.496 92.3043 215.644 90.9651Z" fill="#FBBEAA"/>
<path d="M215.26 93.1141L202.433 173.637C200.316 183.738 203.587 192.878 215.26 194.481C217.414 194.762 219.604 194.601 221.694 194.01C223.785 193.419 225.734 192.409 227.423 191.041C229.111 189.673 230.504 187.977 231.517 186.054C232.53 184.132 233.141 182.024 233.314 179.858L237.226 93.2744C238.253 85.097 234.693 79.6455 228.472 78.9721C220.84 78.1383 216.799 82.6599 215.26 93.1141Z" fill="#FBBEAA"/>
<path d="M225.682 164.722L133.582 94.7493C122.84 87.8867 115.528 91.5425 109.82 98.8861C107.213 102.44 106.005 106.829 106.424 111.217C106.844 115.605 108.863 119.685 112.097 122.681L203.972 190.376C207.209 193.11 211.377 194.49 215.607 194.227C219.836 193.964 223.802 192.079 226.676 188.965L227.093 188.516C228.618 186.889 229.796 184.968 230.554 182.87C231.313 180.772 231.636 178.542 231.504 176.315C231.372 174.089 230.787 171.912 229.786 169.919C228.785 167.926 227.389 166.157 225.682 164.722Z" fill="#FBBEAA"/>
<path d="M112.097 122.649C111.246 121.917 110.473 121.1 109.788 120.211C109.182 117.929 109.104 115.539 109.56 113.222C110.015 110.905 110.993 108.722 112.417 106.839C117.26 99.3673 127.425 93.4988 131.947 94.6212L136.436 96.898L187.264 135.38C182.765 145.952 176.689 155.78 169.242 164.529L112.097 122.649Z" fill="#F18380"/>
<path d="M125.982 89.7463L205.683 143.5C205.347 146.249 214.183 89.7463 214.183 89.7463L239.183 92.9999C239.183 92.9999 238.674 150.055 234.942 180.335C233.452 192.423 223.483 197.038 211.583 194.442C205.708 193.16 200.177 190.749 195.255 187.294C174.104 172.449 114.767 130.634 109.916 125.374C101.546 116.299 101.546 109.5 106.356 102.028C111.167 94.5566 121.46 88.624 125.982 89.7463Z" fill="#761DBC"/>
<path d="M88.5261 452.404L72.0752 280.166C72.0752 261.15 91.6687 240.434 120.562 244.892C146.665 248.964 154.618 275.196 152.47 300.049C150.321 324.901 144.517 453.622 144.517 453.622C144.43 457.307 143.619 460.939 142.129 464.31C140.639 467.681 138.5 470.726 135.834 473.271C133.167 475.815 130.025 477.81 126.588 479.14C123.15 480.47 119.485 481.111 115.8 481.024C112.115 480.938 108.483 480.127 105.112 478.637C101.741 477.147 98.6959 475.008 96.1514 472.341C93.6069 469.674 91.6125 466.533 90.2822 463.095C88.9518 459.658 88.3115 455.992 88.3978 452.307L88.5261 452.404Z" fill="#302D3B"/>
<path d="M22.1781 448.972L38.5328 276.767C41.9962 258.071 65.2455 241.492 92.7919 251.305C117.645 260.188 120.531 287.446 113.732 311.465C106.934 335.483 77.0785 460.805 77.0785 460.805C75.3381 467.909 70.8954 474.055 64.6949 477.935C58.4944 481.814 51.0251 483.123 43.875 481.582C36.7248 480.041 30.4577 475.772 26.406 469.682C22.3543 463.592 20.8375 456.163 22.1781 448.972Z" fill="#302D3B"/>
<path d="M113.732 311.465C106.965 335.484 77.0781 460.806 77.0781 460.806" stroke="#5E5D63" stroke-width="0.75" stroke-miterlimit="10"/>
<path d="M108.922 87.0204C108.922 87.0204 123.096 89.4896 125.854 90.2272C127.481 90.6091 128.985 91.3979 130.225 92.5196C131.464 93.6414 132.399 95.0593 132.941 96.6408C134.705 100.842 143.78 128.356 144.614 131.338C145.177 134.624 144.648 138.003 143.106 140.959C141.792 144.55 134.993 160.905 134.993 160.905L133.967 213.593L95.6796 219.665L58.992 213.593C58.992 213.593 46.1648 115.593 45.5235 109.532C44.8821 103.471 47.8965 91.7665 55.1439 90.2914C62.3912 88.8163 82.2734 87.0846 82.2734 87.0846L108.922 87.0204Z" fill="#FBBEAA"/>
<path d="M135.765 192.408V210.931C110.688 213.24 70.7293 211.605 55.7215 210.931C55.016 205.64 54.2784 196.661 53.5088 190.696C73.9361 191.21 107.673 193.113 135.765 192.408Z" fill="white"/>
<path d="M115.625 87.7579C112.447 97.284 106.631 105.713 98.8531 112.065C88.0802 106.762 79.1442 98.3507 73.1987 87.9182C73.1987 87.9182 57.8702 88.72 54.7917 89.0406C51.7132 89.3613 44.9148 95.4543 43.9528 101.708C42.9907 107.961 54.6826 218.383 54.6826 218.383C54.6826 218.383 104.786 222.167 135.603 218.383C135.603 218.383 146.089 132.749 146.25 130.986C146.378 129.064 146.127 127.135 145.512 125.31C144.903 123.161 134.32 97.667 132.492 94.5884C131.091 92.1394 128.79 90.3332 126.079 89.5537C124.187 88.9444 115.625 87.7579 115.625 87.7579Z" fill="#8B26DA"/>
<path d="M3.51479 208.879L44.5939 100.778C50.0775 89.2333 58.1907 88.4637 67.0415 91.6705C71.1352 93.3034 74.4838 96.3873 76.4477 100.333C78.4117 104.278 78.8532 108.809 77.688 113.06L35.3903 219.237C34.1082 223.276 31.311 226.662 27.5858 228.683C23.8607 230.704 19.4974 231.203 15.412 230.076L14.8027 229.916C12.6477 229.327 10.635 228.307 8.88741 226.915C7.13978 225.524 5.69381 223.792 4.63763 221.823C3.58145 219.855 2.93721 217.692 2.74416 215.467C2.55112 213.241 2.81332 211 3.51479 208.879Z" fill="#FBBEAA"/>
<path d="M20.542 164.048L44.593 100.778C45.238 99.3901 45.9997 98.0599 46.8698 96.8012C49.8158 94.9567 53.1885 93.9048 56.6608 93.7475C60.1331 93.5902 63.5871 94.3328 66.6878 95.9033C70.2885 97.6555 73.1828 100.585 74.8915 104.206C76.6003 107.828 77.0208 111.924 76.0837 115.818C76.0837 116.202 75.8593 116.94 75.6669 117.934L50.8462 180.306C40.0047 176.396 29.7948 170.919 20.542 164.048Z" fill="#F18380"/>
<path d="M46.8386 95.006L1.18262 213.5C38.6826 201.5 34.2874 168.069 54.6826 171.5C54.6826 171.5 78.2011 116.299 79.099 111.361C80.0361 107.467 79.6156 103.371 77.9069 99.7494C76.1982 96.1279 73.3038 93.1985 69.7031 91.4464C59.6658 86.3155 49.6606 90.9654 46.8386 95.006Z" fill="#8B26DA"/>
<path d="M81.0223 10.2174C79.3227 6.11273 70.7606 4.28488 65.9504 6.52964C61.1402 8.7744 56.33 14.6748 55.6245 30.7088C54.919 46.7428 56.2338 58.9928 53.3477 67.0739C56.0155 66.7366 58.5249 65.6213 60.563 63.8671C60.563 65.9836 60.8837 71.1145 60.8837 71.1145C62.4359 70.9884 63.9194 70.4199 65.1584 69.4764C66.3975 68.5329 67.34 67.254 67.8745 65.7912C68.7446 67.6419 69.2975 69.6257 69.5099 71.6597C72.3319 70.1846 81.0223 67.6191 81.0223 52.4189V10.2174Z" fill="#1D1B24"/>
<path d="M136.917 63.483C136.052 51.8423 132.62 32.6015 132.62 32.6015L124.411 32.1526C124.411 32.1526 122.23 66.818 121.621 74.3861C121.012 81.9541 118.831 84.0065 118.831 84.0065C118.831 84.0065 129.253 82.5634 130.889 72.7827C131.128 74.6977 131.257 76.6251 131.273 78.555C131.273 78.555 137.815 75.1237 136.917 63.483Z" fill="#302D3B"/>
<path d="M81.376 60.5331V87.7588C81.376 87.7588 83.5245 97.1227 97.923 97.1227C100.782 97.3637 103.624 96.5011 105.866 94.712C108.109 92.9228 109.581 90.343 109.981 87.5023V60.5651L81.376 60.5331Z" fill="#FBBEAA"/>
<path d="M109.981 83.2051C100.937 87.5022 87.7575 83.6541 81.376 71.8531V60.5331H109.981V83.2051Z" fill="#F18380"/>
<path d="M127.841 39.6565C127.978 46.1684 127.678 52.682 126.944 59.1538C125.789 68.4215 122.518 78.6833 106.131 78.6833C89.7447 78.6833 81.4391 71.2755 77.9116 59.1538C75.7951 51.8423 71.498 41.0033 73.2618 28.4968C75.0255 15.9903 82.5615 7.81305 100.359 7.33203C118.157 6.85101 129.701 14.8038 127.841 39.6565Z" fill="#FBBEAA"/>
<path d="M93.1765 45.2036C93.285 45.6855 93.527 46.1271 93.8748 46.4778C94.2227 46.8285 94.6622 47.0742 95.1432 47.1866C95.6242 47.2991 96.1271 47.2739 96.5944 47.1137C97.0617 46.9536 97.4744 46.6651 97.7853 46.2813C98.0962 45.8975 98.2927 45.4338 98.3523 44.9435C98.4119 44.4532 98.3322 43.956 98.1223 43.5088C97.9124 43.0617 97.5808 42.6827 97.1655 42.4153C96.7502 42.1479 96.2679 42.0029 95.774 41.9968C95.3913 42.0327 95.0196 42.1446 94.6807 42.3261C94.3418 42.5076 94.0426 42.755 93.8007 43.0538C93.5587 43.3525 93.3788 43.6965 93.2717 44.0657C93.1645 44.4348 93.1321 44.8218 93.1765 45.2036Z" fill="#403D4F"/>
<path d="M117.035 45.2036C117.144 45.6869 117.387 46.1296 117.736 46.4807C118.086 46.8319 118.527 47.0774 119.01 47.1887C119.492 47.3 119.997 47.2727 120.464 47.11C120.932 46.9473 121.345 46.6559 121.654 46.2691C121.964 45.8823 122.157 45.416 122.213 44.9238C122.269 44.4317 122.185 43.9337 121.971 43.4873C121.756 43.0409 121.42 42.6641 121.001 42.4004C120.581 42.1367 120.096 41.9968 119.601 41.9968C119.221 42.0367 118.853 42.1515 118.517 42.3347C118.182 42.518 117.887 42.7659 117.648 43.0642C117.409 43.3625 117.232 43.7053 117.127 44.0725C117.022 44.4398 116.991 44.8242 117.035 45.2036Z" fill="#403D4F"/>
<path d="M100.937 36.129L100.68 35.8404C100.412 35.6105 100.122 35.4065 99.8144 35.2311C99.4165 34.9864 98.9841 34.8027 98.5317 34.686C98.0283 34.4964 97.4979 34.3881 96.9604 34.3653C96.4494 34.3012 95.9322 34.3012 95.4211 34.3653C94.973 34.3263 94.5224 34.3263 94.0743 34.3653L92.8236 34.718C92.6506 34.7873 92.5058 34.9126 92.4123 35.0738C92.3188 35.2351 92.282 35.4231 92.3079 35.6077C92.3337 35.7923 92.4207 35.9628 92.5549 36.0922C92.689 36.2216 92.8627 36.3023 93.0481 36.3214H94.3308C94.7034 36.2731 95.0807 36.2731 95.4532 36.3214C95.8695 36.2896 96.2876 36.2896 96.7039 36.3214C97.1137 36.375 97.5204 36.4499 97.9224 36.5459C98.3073 36.5459 98.628 36.8024 98.9486 36.8345C99.1749 36.9348 99.4115 37.0101 99.6541 37.059H99.9106C100.115 37.1475 100.346 37.1535 100.556 37.0758C100.765 36.9982 100.936 36.8428 101.033 36.6421C101.081 36.5306 101.105 36.4106 101.105 36.2894C101.105 36.1681 101.081 36.0481 101.033 35.9366L100.937 36.129Z" fill="#403D4F"/>
<path d="M116.522 37.3469H116.746L117.227 37.1545H117.58C117.699 37.0819 117.829 37.0279 117.965 36.9942C118.237 36.9007 118.516 36.8257 118.798 36.7697C119.107 36.7245 119.42 36.7245 119.728 36.7697C119.995 36.739 120.264 36.739 120.53 36.7697H121.556C121.772 36.7614 121.976 36.6699 122.125 36.5144C122.275 36.3589 122.358 36.1516 122.358 35.9359C122.36 35.7747 122.312 35.6168 122.22 35.4845C122.128 35.3521 121.997 35.252 121.845 35.1983L120.851 34.8456C120.5 34.724 120.132 34.659 119.76 34.6532C119.326 34.5738 118.88 34.5738 118.446 34.6532C117.605 34.7444 116.806 35.0663 116.137 35.5832C115.91 35.7614 115.706 35.9659 115.527 36.1925C115.367 36.3849 115.367 36.449 115.367 36.449V36.7697C115.339 36.9862 115.398 37.2049 115.53 37.3787C115.662 37.5526 115.857 37.6679 116.073 37.6997C116.169 37.6774 116.259 37.6342 116.336 37.5733C116.414 37.5123 116.477 37.435 116.522 37.3469Z" fill="#403D4F"/>
<path d="M109.98 56.1068C110.522 56.1114 111.058 56.0024 111.555 55.787C112.053 55.5716 112.499 55.2545 112.866 54.8561C113.001 54.7167 113.105 54.5504 113.171 54.3681C113.238 54.1857 113.265 53.9915 113.251 53.7979C113.251 53.4452 112.706 49.0198 112.513 47.3843C112.489 47.2197 112.402 47.0708 112.271 46.9691C112.139 46.8674 111.973 46.8208 111.808 46.8391C111.649 46.8629 111.505 46.9452 111.404 47.0699C111.303 47.1945 111.253 47.3525 111.263 47.5126C111.263 47.7692 111.968 53.5735 112.032 53.9262C111.77 54.2169 111.448 54.4474 111.088 54.6024C110.728 54.7573 110.339 54.833 109.948 54.8241C109.869 54.824 109.792 54.8399 109.719 54.8709C109.647 54.9019 109.582 54.9472 109.528 55.0043C109.474 55.0613 109.432 55.1289 109.405 55.2027C109.378 55.2764 109.366 55.355 109.371 55.4334C109.356 55.5196 109.361 55.6081 109.385 55.6921C109.41 55.7761 109.453 55.8534 109.512 55.9182C109.57 55.9831 109.643 56.0338 109.724 56.0665C109.805 56.0992 109.893 56.1129 109.98 56.1068Z" fill="#F18380"/>
<path d="M88.9112 2.04061C106.677 -3.50715 119.312 3.45166 123.32 8.71081C124.946 8.17669 126.383 7.18438 127.458 5.85319C128.533 4.52199 129.201 2.90858 129.381 1.20691C130.308 1.71582 131.049 2.50734 131.496 3.46639C131.942 4.42544 132.071 5.50194 131.864 6.53931C131.657 7.57668 131.123 8.52076 130.342 9.23428C129.561 9.9478 128.573 10.3936 127.521 10.5066C133.935 12.6231 137.687 19.0688 137.494 27.0537C137.224 29.973 136.194 32.7705 134.506 35.1675C132.818 37.5644 130.531 39.477 127.874 40.7146C126.007 35.1164 123.198 29.8782 119.568 25.2258C118.569 29.3294 116.452 33.0756 113.452 36.0478C110.451 39.02 106.685 41.1017 102.572 42.0615C102.971 39.591 103.605 37.1642 104.464 34.8141C100.868 37.8176 96.5995 39.9079 92.0218 40.9071C91.7022 38.1847 91.7779 35.4304 92.2463 32.7297C89.0395 38.5019 83.6521 47.2565 75.6992 49.6937H70.6966C68.0662 44.3016 66.8208 38.3391 67.0729 32.3449C67.1371 21.2494 71.1455 7.58837 88.9112 2.04061Z" fill="#302D3B"/>
<path d="M78.5534 51.6502C78.2968 47.289 77.1424 42.0299 71.8191 42.9598C65.5979 43.8898 64.9886 60.7255 78.2327 58.7052L78.5534 51.6502Z" fill="#FBBEAA"/>
<path d="M71.3061 52.7727C71.4176 52.7742 71.5274 52.7452 71.6235 52.6886C71.7196 52.6321 71.7984 52.5502 71.8512 52.452C71.987 52.1704 72.1951 51.9301 72.4543 51.7554C72.7135 51.5807 73.0144 51.478 73.3263 51.4579C73.6927 51.4616 74.0522 51.5576 74.3717 51.737C74.6911 51.9163 74.9603 52.1733 75.1542 52.4841C75.2263 52.5995 75.3349 52.6874 75.4628 52.7339C75.5907 52.7804 75.7304 52.7827 75.8597 52.7406C75.9889 52.6926 76.0992 52.6044 76.1743 52.4889C76.2494 52.3734 76.2852 52.2368 76.2766 52.0993C76.2286 50.7445 75.8081 49.4291 75.0614 48.2977C74.3146 47.1662 73.2705 46.2625 72.0436 45.6857C71.8905 45.6349 71.7235 45.6468 71.5793 45.719C71.435 45.7911 71.3252 45.9175 71.274 46.0705C71.2232 46.2236 71.2352 46.3906 71.3073 46.5348C71.3794 46.6791 71.5059 46.7889 71.6588 46.8401C72.3795 47.1904 73.0213 47.6839 73.5451 48.2903C74.0689 48.8968 74.4636 49.6036 74.7053 50.3676C74.248 50.1771 73.7576 50.079 73.2622 50.079C72.7439 50.128 72.2452 50.3025 71.8094 50.5875C71.3736 50.8724 71.0138 51.2593 70.7609 51.7145C70.722 51.7858 70.6977 51.8643 70.6896 51.9451C70.6814 52.026 70.6896 52.1077 70.7135 52.1854C70.7374 52.2631 70.7766 52.3353 70.8288 52.3976C70.881 52.4599 70.9451 52.511 71.0174 52.5482L71.3061 52.7727Z" fill="#F18380"/>
<path d="M72.1083 62.5528C73.6476 50.9763 78.073 31.9279 78.073 31.9279H86.3144C86.3144 31.9279 86.6351 66.6575 86.8595 74.2576C87.084 81.8578 89.1043 84.1345 89.1043 84.1345C89.1043 84.1345 78.7784 82.1464 77.6561 72.2694C77.3119 74.1777 77.0869 76.1054 76.9826 78.0416C76.9826 78.0416 70.6011 74.1294 72.1083 62.5528Z" fill="#302D3B"/>
<path d="M85.8655 158.115L34.8133 221.706C28.7524 230.044 19.7734 233.764 10.8264 226.26C9.17162 224.853 7.81968 223.126 6.85261 221.182C5.88554 219.237 5.32347 217.117 5.20052 214.949C5.07758 212.781 5.39631 210.61 6.13737 208.569C6.87844 206.528 8.02639 204.659 9.51162 203.074L71.018 142.145C76.3734 135.892 82.819 134.898 87.5009 138.938C93.177 143.973 92.5036 149.874 85.8655 158.115Z" fill="#FBBEAA"/>
<path d="M67.9386 145.48C73.6147 139.74 84.2291 127.362 87.8208 124.348C91.3721 121.672 95.2519 119.462 99.3653 117.774C102.486 116.728 105.712 116.029 108.986 115.689C111.262 115.401 112.192 116.074 112.192 117.453C112.135 118.274 111.873 119.068 111.431 119.763C110.989 120.457 110.379 121.03 109.659 121.429H113.86C115.303 121.429 116.233 122.584 115.56 124.444C114.948 125.673 114.074 126.752 112.999 127.605C111.923 128.459 110.674 129.065 109.338 129.382C109.338 129.382 115.014 129.927 116.457 130.216C117.901 130.505 118.349 131.05 118.349 132.429C118.337 133.381 118.072 134.313 117.582 135.13C117.092 135.947 116.394 136.619 115.56 137.079C113.517 137.907 111.348 138.385 109.146 138.49C109.146 138.49 116.169 140.253 117.58 140.766C118.991 141.279 119.151 142.209 118.414 143.428C117.993 144.286 117.386 145.04 116.637 145.634C115.888 146.227 115.016 146.646 114.084 146.859C111.423 147.565 109.627 146.41 108.665 146.571C106.598 147.237 104.574 148.029 102.604 148.944C99.6462 151.889 96.0297 154.087 92.0538 155.357C89.0942 156.599 86.3795 158.358 84.0368 160.552C82.9455 161.576 81.6599 162.371 80.2561 162.89C78.8523 163.408 77.3588 163.64 75.8639 163.571C74.369 163.502 72.903 163.135 71.5528 162.489C70.2025 161.844 68.9954 160.935 68.0028 159.815C62.8719 154.363 63.7377 149.809 67.9386 145.48Z" fill="#FBBEAA"/>
<path d="M84.5572 162.635L35.1826 223.05C28.9963 231.295 14.5404 235.826 5.70794 228.188C4.07461 226.757 2.74897 225.009 1.81143 223.05C0.873885 221.092 0.343963 218.963 0.253835 216.793C0.163708 214.624 0.515242 212.458 1.28711 210.429C2.05897 208.399 3.23508 206.547 4.7441 204.985L68.8692 141.895L84.5572 162.635Z" fill="#8B26DA"/>
<path d="M108.954 121.461C108.963 121.514 108.961 121.569 108.948 121.621C108.935 121.673 108.911 121.722 108.878 121.764C108.844 121.806 108.803 121.841 108.755 121.867C108.707 121.892 108.655 121.907 108.602 121.91L105.972 122.167H104.689C104.24 122.167 103.823 122.327 103.374 122.359C102.9 122.501 102.439 122.684 101.996 122.904L100.52 123.514C98.5321 124.315 96.5439 125.053 95.0688 125.598C93.5937 126.143 92.5675 126.464 92.5675 126.464C92.4862 126.498 92.395 126.501 92.3119 126.471C92.2288 126.441 92.1598 126.382 92.1186 126.304C92.0587 126.225 92.0264 126.13 92.0264 126.031C92.0264 125.932 92.0587 125.837 92.1186 125.758L94.5237 124.508L97.025 123.321C97.9229 122.904 98.9169 122.487 99.9111 122.103L101.418 121.525C101.903 121.306 102.408 121.135 102.925 121.012L104.465 120.852H105.78H107.736H108.473C108.554 120.788 108.657 120.759 108.759 120.771C108.861 120.783 108.955 120.835 109.018 120.916C109.082 120.997 109.111 121.1 109.099 121.202C109.087 121.304 109.035 121.398 108.954 121.461ZM108.345 129.19H107.768C107.288 129.147 106.805 129.147 106.325 129.19L105.331 129.35C104.964 129.396 104.6 129.46 104.24 129.542L102.06 130.248C100.585 130.729 99.1415 131.338 98.0512 131.787C98.0512 131.787 97.6984 131.787 97.7305 131.948H97.3457L96.7685 132.108H96.4157H96.2233C96.1264 132.131 96.0423 132.191 95.9885 132.274C95.9347 132.358 95.9154 132.459 95.9347 132.557C95.9486 132.634 95.9877 132.704 96.0457 132.756C96.1038 132.808 96.1775 132.84 96.2554 132.845H97.8908H98.4039C99.5262 132.557 101.033 132.108 102.509 131.595L104.657 130.793L105.651 130.537L106.517 130.28C106.96 130.149 107.41 130.042 107.864 129.959L108.409 129.799C108.458 129.784 108.503 129.76 108.542 129.728C108.581 129.696 108.613 129.656 108.637 129.612C108.661 129.567 108.676 129.518 108.681 129.468C108.686 129.417 108.68 129.366 108.666 129.318C108.628 129.271 108.578 129.234 108.522 129.212C108.466 129.189 108.405 129.182 108.345 129.19ZM108.345 138.297H107.158C106.838 138.297 106.421 138.297 106.004 138.521L104.689 138.938C103.862 139.23 103.058 139.583 102.284 139.997C101.928 140.164 101.585 140.357 101.258 140.574C101.193 140.65 101.156 140.746 101.156 140.846C101.156 140.946 101.193 141.043 101.258 141.119C101.35 141.217 101.477 141.274 101.611 141.279L102.797 141.087C103.471 140.927 104.337 140.67 105.202 140.381L106.453 139.868L107.543 139.451C107.906 139.29 108.26 139.108 108.602 138.906C108.692 138.853 108.759 138.766 108.789 138.665C108.819 138.564 108.809 138.455 108.762 138.361C108.667 138.3 108.552 138.277 108.441 138.297H108.345Z" fill="#F18380"/>
<path d="M216.285 65.3109C215.066 65.3109 214.97 64.5413 214.425 63.1303C217.151 63.1303 225.071 63.6433 228.535 70.3135C225.039 65.5033 218.337 65.3109 216.285 65.3109ZM222.506 39.9451C222.506 39.9451 222.314 41.0675 222.121 42.703C222.121 43.5367 221.929 44.5308 221.865 45.557C221.8 46.5832 221.704 47.7055 221.608 48.7638C221.608 51.0085 221.448 53.2212 221.448 54.8888C221.448 56.5563 221.448 57.6787 221.448 57.6787C221.448 57.732 221.458 57.7849 221.48 57.8338C221.501 57.8827 221.532 57.9266 221.571 57.9628C221.611 57.999 221.657 58.0267 221.707 58.044C221.758 58.0613 221.811 58.0679 221.865 58.0635C221.955 58.0589 222.041 58.0252 222.111 57.9674C222.18 57.9095 222.229 57.8308 222.249 57.7429C222.249 57.7429 222.442 56.6204 222.602 54.9529C222.762 53.2853 223.019 51.0727 223.115 48.86C223.115 47.7376 223.115 46.6152 223.115 45.6532C223.115 44.6911 223.115 43.6329 223.115 42.7992C223.115 41.0996 223.115 40.0092 223.115 40.0092C223.115 39.9558 223.105 39.9031 223.083 39.8542C223.062 39.8053 223.031 39.7613 222.991 39.7251C222.952 39.6889 222.906 39.6613 222.855 39.644C222.805 39.6266 222.751 39.6199 222.698 39.6244C222.637 39.6597 222.586 39.7115 222.552 39.7737C222.518 39.836 222.502 39.9064 222.506 39.9772V39.9451ZM229.946 42.1899C229.946 42.1899 229.753 43.1519 229.529 44.5629C229.529 45.3004 229.304 46.1342 229.208 47.0321C229.112 47.93 229.016 48.892 228.92 49.8541C228.92 51.7782 228.695 53.7022 228.663 55.1453C228.631 56.5883 228.663 57.5825 228.663 57.5825C228.667 57.6331 228.681 57.6824 228.704 57.7275C228.727 57.7727 228.759 57.8128 228.798 57.8456C228.837 57.8784 228.882 57.9033 228.93 57.9186C228.978 57.934 229.029 57.9397 229.08 57.9353C229.166 57.9292 229.248 57.8943 229.312 57.8361C229.376 57.778 229.418 57.6999 229.433 57.6146C229.433 57.6146 229.625 56.6525 229.849 55.2415C230.074 53.8305 230.266 51.8744 230.427 49.9824C230.427 49.0203 230.427 48.0583 230.619 47.1604C230.812 46.2625 230.619 45.3966 230.619 44.6591C230.619 43.216 230.619 42.254 230.619 42.254C230.619 42.2006 230.608 42.1479 230.587 42.099C230.566 42.0501 230.535 42.0061 230.495 41.9699C230.456 41.9337 230.41 41.9061 230.359 41.8888C230.309 41.8714 230.255 41.8647 230.202 41.8692C230.131 41.8986 230.069 41.9471 230.024 42.0093C229.979 42.0716 229.952 42.1451 229.946 42.2219V42.1899ZM237.129 45.2363C237.129 45.2363 236.937 46.038 236.68 47.2566C236.68 47.8338 236.423 48.5393 236.327 49.309C236.231 50.0786 236.103 50.8803 235.974 51.682C235.75 53.3174 235.654 54.8888 235.59 56.1715C235.525 57.4542 235.59 58.2239 235.59 58.2239C235.589 58.2772 235.6 58.33 235.622 58.3789C235.643 58.4278 235.674 58.4718 235.713 58.508C235.753 58.5442 235.799 58.5718 235.849 58.5891C235.9 58.6064 235.953 58.6131 236.006 58.6087C236.088 58.6044 236.167 58.5741 236.23 58.5222C236.294 58.4702 236.339 58.3995 236.359 58.3201C236.359 58.3201 236.584 57.5184 236.808 56.3319C237.033 55.1454 237.353 53.4778 237.546 51.8744C237.546 51.0406 237.706 50.2389 237.77 49.4693C237.834 48.6996 237.77 47.9942 237.77 47.3849C237.77 46.1663 237.77 45.3325 237.77 45.3325C237.77 45.2791 237.76 45.2264 237.738 45.1775C237.717 45.1286 237.686 45.0846 237.646 45.0484C237.607 45.0122 237.561 44.9846 237.51 44.9673C237.46 44.9499 237.407 44.9432 237.353 44.9477C237.294 44.9807 237.243 45.0267 237.204 45.0822C237.165 45.1378 237.14 45.2014 237.129 45.2684V45.2363Z" fill="#F18380"/>
<path d="M107.353 64.136C104.257 64.0166 101.285 62.8907 98.8867 60.9292" stroke="#73102A" stroke-width="0.5" stroke-miterlimit="10" stroke-linecap="round"/>
</svg>
