<svg width="242" height="420" viewBox="0 0 242 420" fill="none" xmlns="http://www.w3.org/2000/svg">
<path d="M196.216 146.866C197.507 144.198 197.955 141.201 197.5 138.273C196.384 134.586 196.048 130.706 196.513 126.882C197.056 123.447 197.056 119.947 196.513 116.511C196.052 114.339 194.735 112.265 195.295 110.849C196.187 109.85 197.436 109.242 198.772 109.155C200.109 109.069 201.426 109.512 202.439 110.388C203.709 111.464 204.727 112.806 205.421 114.32C206.115 115.833 206.468 117.48 206.455 119.145C207.146 118.417 207.733 117.598 208.2 116.709L217.056 98.5031C217.465 97.6574 218.161 96.9851 219.021 96.6066C219.881 96.2281 220.847 96.1682 221.747 96.4378C222.646 96.7073 223.421 97.2885 223.931 98.0773C224.441 98.8661 224.653 99.8107 224.529 100.742L224.957 99.9517C225.167 99.4577 225.475 99.012 225.864 98.6422C226.252 98.2724 226.713 97.9863 227.216 97.8017C227.72 97.6171 228.256 97.5379 228.792 97.569C229.328 97.6002 229.851 97.7409 230.33 97.9827C230.809 98.2244 231.233 98.5619 231.576 98.9742C231.919 99.3866 232.174 99.865 232.325 100.38C232.475 100.895 232.519 101.435 232.452 101.967C232.385 102.5 232.21 103.013 231.937 103.474L230.686 105.943C231.339 105.303 232.199 104.915 233.112 104.851C234.025 104.786 234.931 105.049 235.668 105.592C236.405 106.134 236.924 106.922 237.133 107.813C237.343 108.704 237.228 109.64 236.809 110.454L235.986 112.034C236.565 111.607 237.254 111.355 237.972 111.308C238.69 111.261 239.406 111.422 240.036 111.771C240.474 112.011 240.86 112.336 241.172 112.727C241.484 113.117 241.716 113.566 241.853 114.046C241.991 114.527 242.032 115.03 241.975 115.527C241.917 116.023 241.761 116.503 241.517 116.939L233.221 131.853C228.48 140.279 222.923 148.219 216.628 155.557C215.985 156.954 215.056 158.2 213.901 159.215C212.746 160.231 211.391 160.992 209.924 161.452C208.457 161.911 206.909 162.057 205.382 161.881C203.854 161.705 202.38 161.211 201.056 160.43C199.792 159.923 198.651 159.153 197.707 158.172C196.763 157.191 196.038 156.02 195.581 154.738C195.123 153.456 194.943 152.091 195.053 150.734C195.162 149.376 195.559 148.058 196.216 146.866Z" fill="#FBBEAA"/>
<path d="M84.4127 24.6587C85.7706 19.7617 85.2714 14.5356 83.0109 9.98425C80.7504 5.43289 76.888 1.87716 72.1656 0C70.2891 1.87656 71.2438 7.86839 71.2438 7.86839C64.6133 4.76111 57.1768 3.80565 49.9761 5.13585C50.1066 9.73971 51.8417 14.1532 54.8815 17.6133C51.1975 17.9847 47.6543 19.2259 44.5439 21.2348C45.0156 23.4047 45.9958 25.4315 47.4038 27.1486C48.8118 28.8657 50.6074 30.2239 52.6428 31.1114C50.5702 33.5378 49.1434 36.448 48.4946 39.5724C52.031 40.5923 55.7672 40.7055 59.3589 39.9016C58.779 41.7186 58.5445 43.6281 58.6676 45.5313C62.0781 46.032 65.5571 45.7753 68.8573 44.7796C72.1575 43.7838 75.1979 42.0734 77.7624 39.77C81.1637 35.3419 83.4452 30.1578 84.4127 24.6587Z" fill="#E69D7E"/>
<path d="M64.067 42.4371C63.5402 50.964 58.1739 63.9024 59.5896 74.7338C61.5649 90.0097 80.4622 89.845 87.7709 89.845H98.6023V42.4371H64.067Z" fill="#E69D7E"/>
<path d="M177.648 224.694L135.508 113.713C129.845 101.861 121.516 101.071 112.463 104.363C108.258 106.04 104.818 109.204 102.796 113.254C100.774 117.303 100.313 121.955 101.499 126.323L144.825 235.229C146.148 239.379 149.026 242.855 152.856 244.929C156.686 247.004 161.17 247.515 165.368 246.357H165.994C168.223 245.765 170.306 244.723 172.116 243.294C173.925 241.866 175.423 240.081 176.515 238.05C177.607 236.02 178.271 233.787 178.466 231.49C178.661 229.192 178.383 226.879 177.648 224.694Z" fill="#851231"/>
<path d="M87.8365 474.605L71.0791 297.814C71.0791 278.291 91.2274 257.023 120.89 261.599C147.689 265.78 155.821 292.711 153.615 318.225C151.409 343.74 145.483 475.889 145.483 475.889C145.487 479.736 144.721 483.544 143.231 487.09C141.741 490.636 139.556 493.848 136.806 496.537C134.056 499.227 130.795 501.338 127.217 502.749C123.638 504.159 119.814 504.839 115.968 504.749C112.123 504.659 108.334 503.8 104.826 502.224C101.317 500.648 98.1591 498.386 95.5378 495.571C92.9164 492.756 90.8847 489.445 89.5621 485.834C88.2395 482.222 87.6528 478.382 87.8365 474.54V474.605Z" fill="#302D3B"/>
<path d="M19.8852 471.083L36.6425 294.291C40.231 275.098 64.0996 258.077 92.3468 268.151C117.894 277.271 120.824 305.254 113.878 329.913C106.931 354.572 76.2479 483.232 76.2479 483.232C74.4611 490.525 69.9001 496.834 63.5344 500.817C57.1687 504.8 49.5005 506.144 42.1599 504.562C34.8193 502.979 28.3852 498.597 24.2256 492.345C20.066 486.093 18.5088 478.465 19.8852 471.083Z" fill="#302D3B"/>
<path d="M113.878 330.045C106.899 354.703 76.248 483.363 76.248 483.363" stroke="#1D1B24" stroke-width="0.75" stroke-miterlimit="10"/>
<path d="M108.907 99.5895C108.907 99.5895 123.458 102.124 126.322 102.882C127.99 103.282 129.529 104.095 130.801 105.245C132.072 106.396 133.034 107.847 133.598 109.466C135.376 113.779 144.693 142.026 145.582 145.088C146.161 148.461 145.617 151.93 144.035 154.965C142.718 158.553 135.705 175.31 135.705 175.31L134.652 229.402H57.6469C57.6469 229.402 44.5768 128.824 43.9512 122.635C43.3257 116.446 46.3875 104.396 53.8279 102.882C61.2683 101.367 81.6471 99.5895 81.6471 99.5895H108.907Z" fill="white"/>
<path d="M80.6602 72.2969V100.248C80.6602 100.248 82.8659 109.861 97.6151 109.861C100.55 110.109 103.468 109.223 105.77 107.386C108.072 105.549 109.583 102.901 109.994 99.9844V72.3298L80.6602 72.2969Z" fill="#FBBEAA"/>
<path d="M109.994 95.5728C100.743 99.9844 87.2117 96.0338 80.6602 83.9184V72.2969H109.994V95.5728Z" fill="#F18380"/>
<path d="M128.364 50.8313C128.485 57.5163 128.177 64.2023 127.442 70.8479C126.257 80.3624 122.866 90.8975 106.076 90.8975C89.2853 90.8975 80.6926 83.2925 77.1041 70.8479C74.9313 63.3417 70.5197 52.214 72.3304 39.3743C74.1411 26.5347 81.8778 18.1396 100.117 17.6457C118.356 17.1519 130.24 25.3495 128.364 50.8313Z" fill="#FBBEAA"/>
<path d="M92.7751 56.56C92.8867 57.0562 93.1362 57.5106 93.4948 57.8712C93.8534 58.2317 94.3065 58.4837 94.802 58.598C95.2976 58.7123 95.8153 58.6843 96.2956 58.5173C96.7759 58.3503 97.1992 58.051 97.5169 57.6539C97.8346 57.2568 98.0336 56.7781 98.0911 56.2728C98.1487 55.7676 98.0623 55.2563 97.842 54.798C97.6217 54.3397 97.2765 53.9529 96.846 53.6822C96.4155 53.4114 95.9174 53.2678 95.4088 53.2678C95.0188 53.3087 94.6408 53.4267 94.2966 53.6148C93.9525 53.8029 93.6491 54.0574 93.4042 54.3637C93.1592 54.6699 92.9774 55.0218 92.8694 55.3988C92.7614 55.7758 92.7294 56.1705 92.7751 56.56Z" fill="#403D4F"/>
<path d="M117.236 56.56C117.348 57.0562 117.597 57.5106 117.956 57.8712C118.314 58.2317 118.768 58.4837 119.263 58.598C119.759 58.7123 120.276 58.6843 120.757 58.5173C121.237 58.3503 121.66 58.051 121.978 57.6539C122.296 57.2568 122.495 56.7781 122.552 56.2728C122.61 55.7676 122.523 55.2563 122.303 54.798C122.083 54.3397 121.737 53.9529 121.307 53.6822C120.877 53.4114 120.378 53.2678 119.87 53.2678C119.48 53.3087 119.102 53.4267 118.758 53.6148C118.413 53.8029 118.11 54.0574 117.865 54.3637C117.62 54.6699 117.438 55.0218 117.33 55.3988C117.222 55.7758 117.19 56.1705 117.236 56.56Z" fill="#403D4F"/>
<path d="M100.742 47.2432C100.742 47.2432 100.742 47.2432 100.446 46.9469C100.182 46.7102 99.8956 46.5006 99.59 46.3214C99.1814 46.0702 98.7375 45.8816 98.2731 45.7618C97.7554 45.5702 97.2113 45.4592 96.6599 45.4325C96.1242 45.3664 95.5824 45.3664 95.0467 45.4325C94.5928 45.4468 94.141 45.5019 93.6969 45.5971L92.413 45.9593C92.2009 46.0275 92.0239 46.1758 91.9194 46.3725C91.8149 46.5692 91.7912 46.7989 91.8533 47.0128C91.9032 47.1837 92.0071 47.3339 92.1496 47.4408C92.2921 47.5476 92.4653 47.6054 92.6434 47.6054H93.9274C94.3099 47.5561 94.6971 47.5561 95.0797 47.6054C95.518 47.5727 95.9582 47.5727 96.3965 47.6054C96.8245 47.6054 97.2525 47.6054 97.6476 47.8358C98.0426 48.0663 98.3719 48.0992 98.7011 48.1321L99.3925 48.3626H99.6888C99.8942 48.4519 100.127 48.4572 100.336 48.3772C100.545 48.2971 100.715 48.1383 100.808 47.9346C100.866 47.8226 100.896 47.6985 100.896 47.5725C100.896 47.4465 100.866 47.3223 100.808 47.2103L100.742 47.2432Z" fill="#403D4F"/>
<path d="M116.742 48.4941H116.94L117.467 48.2966H117.829H118.191C118.482 48.2004 118.779 48.1235 119.08 48.0661C119.385 48.0175 119.696 48.0175 120.002 48.0661C120.285 48.017 120.575 48.017 120.858 48.0661H121.911C122.132 48.0576 122.342 47.9637 122.495 47.8041C122.649 47.6445 122.734 47.4316 122.734 47.2102C122.728 47.0468 122.675 46.8887 122.582 46.7545C122.488 46.6204 122.359 46.5157 122.208 46.453L121.187 46.0908C120.815 45.9691 120.426 45.9026 120.035 45.8933C119.598 45.8279 119.154 45.8279 118.718 45.8933C117.853 45.98 117.031 46.3111 116.347 46.848C116.099 47.0129 115.887 47.2255 115.722 47.4735C115.557 47.6711 115.557 47.7369 115.524 47.7369V48.0661C115.506 48.2212 115.531 48.3782 115.595 48.5203C115.66 48.6624 115.762 48.7841 115.891 48.8723C116.02 48.9604 116.17 49.0117 116.326 49.0204C116.482 49.0292 116.637 48.9952 116.775 48.9221L116.742 48.4941Z" fill="#403D4F"/>
<path d="M109.993 67.7536C110.546 67.7664 111.095 67.6581 111.601 67.4363C112.107 67.2145 112.558 66.8845 112.923 66.4696C113.066 66.3281 113.178 66.1585 113.252 65.9714C113.325 65.7844 113.359 65.5841 113.351 65.3832C113.351 65.021 112.759 60.4778 112.561 58.7987C112.561 58.6328 112.495 58.4737 112.378 58.3564C112.261 58.2391 112.102 58.1732 111.936 58.1732C111.77 58.1732 111.611 58.2391 111.494 58.3564C111.376 58.4737 111.31 58.6328 111.31 58.7987C111.31 59.0621 112.002 65.021 112.1 65.3832C111.827 65.6766 111.496 65.91 111.127 66.0687C110.759 66.2274 110.362 66.3078 109.96 66.305C109.795 66.305 109.635 66.3709 109.518 66.4882C109.401 66.6055 109.335 66.7646 109.335 66.9305C109.335 67.0964 109.401 67.2555 109.518 67.3728C109.635 67.4901 109.795 67.556 109.96 67.556L109.993 67.7536Z" fill="#F18380"/>
<path d="M113.089 74.2393C114.34 74.5685 114.768 76.4121 114.043 78.5521C113.286 80.0241 112.057 81.2001 110.554 81.8923C109.05 82.5845 107.358 82.7531 105.747 82.3711C104.873 82.3251 104.017 82.1055 103.229 81.7249C102.441 81.3443 101.736 80.8104 101.157 80.1544C100.578 79.4984 100.135 78.7335 99.8546 77.9044C99.5743 77.0753 99.4621 76.1987 99.5246 75.3257C99.5246 73.9101 100.479 73.0541 102.323 73.0541C105.938 73.1488 109.539 73.5452 113.089 74.2393Z" fill="#73102A"/>
<path d="M99.4577 75.3256C99.4577 75.3256 99.4577 75.1281 99.4577 74.9964C101.872 74.4303 104.411 74.7932 106.57 76.0131C108.73 77.233 110.351 79.2205 111.112 81.5808C109.408 82.4155 107.491 82.7139 105.614 82.4368C104.74 82.3828 103.885 82.1549 103.1 81.7665C102.315 81.378 101.615 80.8368 101.042 80.1746C100.469 79.5123 100.033 78.7424 99.7611 77.9098C99.4891 77.0771 99.3859 76.1986 99.4577 75.3256Z" fill="#D65155"/>
<path d="M111.969 76.2477C107.81 76.2818 103.673 75.6368 99.7217 74.3383C99.9641 73.8924 100.336 73.5308 100.789 73.3015C101.242 73.0722 101.754 72.9859 102.257 73.0543C105.872 73.149 109.473 73.5454 113.022 74.2395C113.366 74.3553 113.669 74.5701 113.891 74.8571C114.114 75.1441 114.247 75.4905 114.273 75.8527C113.535 76.1208 112.754 76.2546 111.969 76.2477Z" fill="white"/>
<path d="M36.6754 293.435C37.3668 284.316 47.1447 249.352 57.6468 229.434H134.652C141.5 244.941 149.302 278.818 151.541 286.126C152.927 290.422 153.105 295.017 152.054 299.407C151.003 303.797 148.764 307.813 145.582 311.015C137.779 319.871 117.664 330.011 113.022 330.011C93.0496 327.163 73.4737 322.015 54.6838 314.67C43.9512 310.291 35.9511 302.587 36.6754 293.435Z" fill="#302D3B"/>
<path d="M0.856333 224.694L42.9967 113.713C48.6593 101.861 56.9886 101.071 66.0422 104.363C70.2009 106.062 73.5964 109.221 75.5908 113.246C77.5852 117.271 78.0414 121.886 76.8736 126.224L33.5809 235.13C32.2577 239.28 29.3796 242.756 25.5499 244.831C21.7201 246.905 17.2361 247.417 13.0375 246.258H12.412C10.2038 245.654 8.14164 244.607 6.35134 243.181C4.56103 241.754 3.08008 239.978 1.99881 237.96C0.917532 235.942 0.258587 233.725 0.0621641 231.444C-0.134259 229.164 0.135964 226.867 0.856333 224.694Z" fill="#9E163A"/>
<path d="M80.6597 99.5893C83.7051 110.312 85.419 121.37 85.7627 132.512V278.192C85.7627 282.669 83.8203 282.966 81.4828 282.966H39.968C37.828 282.966 34.5687 281.583 35.6222 278.521C36.6757 275.459 45.9598 247.64 55.0134 228.644C55.0134 228.644 42.042 124.116 42.042 119.178C42.042 114.24 45.6635 104.231 51.9187 102.717C58.1739 101.203 80.7914 98.6017 80.7914 98.6017L80.6597 99.5893Z" fill="#9E163A"/>
<path d="M109.993 99.9521C111.837 113.953 112.935 128.041 113.286 142.158V278.851C113.286 281.946 114.076 282.901 117.006 282.901H150.158C152.364 282.901 153.187 281.551 152.627 278.818C152.068 276.086 137.385 229.435 137.385 229.435L138.669 175.739C138.669 175.739 146.208 150.455 146.504 148.446C146.863 145.936 146.626 143.376 145.813 140.973C144.891 138.57 134.356 110.356 133.368 108.314C132.703 106.925 131.747 105.695 130.566 104.707C129.385 103.719 128.005 102.995 126.52 102.586C122.965 101.73 109.895 99.2937 109.895 99.2937L109.993 99.9521Z" fill="#9E163A"/>
<path d="M85.7626 184.397C85.7626 184.397 66.7665 143.409 65.4167 140.742C64.0669 138.076 64.857 135.409 68.0834 135.903C71.3097 136.397 86.3881 140.314 86.3881 140.314L85.7626 184.397Z" fill="#C72450"/>
<path d="M86.3552 141.73C86.3552 141.73 69.565 128.989 68.0835 127.935C67.3772 127.388 66.8584 126.634 66.5989 125.779C66.3394 124.924 66.352 124.009 66.6349 123.162C67.2604 121.746 75.7543 96.8238 76.8078 95.1118C77.9698 93.6611 79.2588 92.3169 80.6597 91.0953C80.6597 91.0953 83.7873 105.021 84.8408 111.836C85.8839 121.766 86.3894 131.745 86.3552 141.73Z" fill="#C72450"/>
<path d="M113.318 184.397C113.318 184.397 132.314 143.409 133.631 140.742C134.948 138.076 134.191 135.409 130.964 135.903C127.738 136.397 112.692 140.314 112.692 140.314L113.318 184.397Z" fill="#C72450"/>
<path d="M112.693 141.73C112.693 141.73 127.639 128.989 128.956 127.936C129.589 127.334 130.008 126.543 130.151 125.681C130.293 124.82 130.151 123.935 129.746 123.162C128.923 121.746 115.689 99.5897 114.405 98.0424C113.045 96.5869 111.569 95.2437 109.993 94.0259C109.993 94.0259 109.697 97.779 109.796 101.005C109.894 104.232 112.693 141.73 112.693 141.73Z" fill="#C72450"/>
<path d="M95.8044 35.2924C95.8044 35.2924 89.9772 55.4408 76.0511 60.7412C74.4342 60.7613 72.8362 60.3919 71.3922 59.6641C69.9482 58.9364 68.7005 57.8717 67.7548 56.5601C64.0558 48.7805 63.0148 40.0012 64.7918 31.5722C67.1292 21.3005 79.475 8.06578 101.994 11.1605C114.01 8.85591 128.332 10.9629 137.286 23.1112C146.241 35.2595 135.574 52.0827 128.364 54.8811C121.273 50.6114 114.476 45.8709 108.019 40.6916C109.006 43.7863 110.06 50.3378 109.006 50.3378C102.92 47.0974 98.2263 41.7477 95.8044 35.2924Z" fill="#E69D7E"/>
<path d="M77.7621 63.1776C77.4987 58.7002 76.2806 53.3009 70.8485 54.2557C64.264 55.2104 63.8031 72.4945 77.4329 70.4205L77.7621 63.1776Z" fill="#FBBEAA"/>
<path d="M70.2893 64.3301C70.4024 64.3253 70.5126 64.2927 70.6102 64.2353C70.7077 64.1779 70.7897 64.0974 70.8489 64.0009C70.9854 63.7097 71.1984 63.461 71.4651 63.2813C71.7318 63.1016 72.0422 62.9975 72.3633 62.9803C72.7395 62.9841 73.1085 63.0826 73.4365 63.2668C73.7645 63.4509 74.0408 63.7147 74.2399 64.0338C74.3139 64.1523 74.4254 64.2426 74.5567 64.2903C74.688 64.338 74.8314 64.3404 74.9642 64.2972C75.0906 64.2426 75.1968 64.1496 75.2676 64.0315C75.3385 63.9134 75.3706 63.776 75.3593 63.6388C75.3167 62.2505 74.8914 60.9009 74.1304 59.739C73.3693 58.5771 72.3021 57.6481 71.0465 57.0543C70.9674 57.0233 70.8829 57.0086 70.798 57.0113C70.7132 57.014 70.6297 57.0339 70.5528 57.0698C70.4759 57.1058 70.4071 57.1571 70.3506 57.2205C70.2941 57.2839 70.2511 57.3581 70.2243 57.4387C70.1974 57.5193 70.1873 57.6044 70.1944 57.6891C70.2015 57.7737 70.2258 57.856 70.2658 57.9309C70.3057 58.0058 70.3605 58.0718 70.4268 58.1249C70.4931 58.1779 70.5695 58.2169 70.6514 58.2395C71.3863 58.6011 72.0398 59.1087 72.5719 59.7314C73.104 60.354 73.5035 61.0787 73.7461 61.861C73.2882 61.6654 72.7954 61.5646 72.2975 61.5647C71.7653 61.615 71.2534 61.7942 70.806 62.0867C70.3586 62.3793 69.9891 62.7764 69.7296 63.2437C69.6883 63.315 69.6616 63.3937 69.6508 63.4754C69.6401 63.557 69.6456 63.64 69.667 63.7195C69.6884 63.7991 69.7253 63.8736 69.7756 63.9388C69.8259 64.0041 69.8886 64.0587 69.96 64.0997C70.0414 64.2106 70.1572 64.2916 70.2893 64.3301Z" fill="#F18380"/>
<path d="M194.965 148.742L149.73 219.163C143.607 227.789 142.883 237.764 153.023 244.019C154.941 245.151 157.066 245.887 159.273 246.183C161.481 246.479 163.725 246.329 165.874 245.743C168.022 245.157 170.031 244.146 171.782 242.77C173.533 241.394 174.991 239.68 176.068 237.731L215.377 157.928C219.723 150.685 218.669 144.1 213.007 140.874C206.356 137.022 200.825 139.59 194.965 148.742Z" fill="#FBBEAA"/>
<path d="M192.45 143.889L220.5 159L177.286 238.126C174.761 242.156 170.801 245.078 166.205 246.3C161.61 247.523 156.721 246.954 152.528 244.711C142.29 238.455 142.981 227.196 149.236 218.57L192.45 143.889Z" fill="#851231"/>
<path d="M207.377 123.03C206.224 122.503 206.455 121.746 206.488 120.199C209.089 121.318 216.364 125.104 216.825 132.808C215.508 126.783 209.286 123.919 207.377 123.03ZM223.838 101.762C223.838 101.762 223.212 102.717 222.356 104.199C221.928 104.956 221.402 105.812 220.908 106.767L219.327 109.73C218.307 111.771 217.319 113.845 216.661 115.425C216.002 117.005 215.541 118.059 215.541 118.059C215.508 118.16 215.512 118.269 215.555 118.367C215.598 118.464 215.675 118.542 215.772 118.586C215.844 118.637 215.93 118.664 216.019 118.664C216.107 118.664 216.193 118.637 216.266 118.586C216.266 118.586 216.891 117.598 217.747 116.116C218.603 114.635 219.722 112.627 220.743 110.586C221.27 109.565 221.764 108.511 222.225 107.557C222.685 106.602 223.081 105.68 223.443 104.89C224.134 103.31 224.562 102.256 224.562 102.256C224.596 102.155 224.591 102.046 224.548 101.948C224.506 101.851 224.429 101.773 224.332 101.729C224.293 101.677 224.242 101.635 224.183 101.607C224.124 101.579 224.059 101.566 223.994 101.569C223.928 101.572 223.865 101.592 223.809 101.625C223.753 101.659 223.706 101.706 223.673 101.762H223.838ZM229.895 106.931C229.895 106.931 229.303 107.721 228.513 109.005C228.151 109.631 227.69 110.355 227.229 111.178L225.78 113.713C224.858 115.425 223.969 117.236 223.377 118.586C222.784 119.935 222.389 120.857 222.389 120.857C222.355 120.958 222.36 121.068 222.403 121.165C222.445 121.262 222.523 121.34 222.62 121.384C222.687 121.432 222.767 121.458 222.85 121.458C222.933 121.458 223.013 121.432 223.081 121.384C223.081 121.384 223.673 120.561 224.463 119.31C225.253 118.059 226.274 116.314 227.196 114.569C227.657 113.713 228.085 112.824 228.513 112.001C228.941 111.178 229.303 110.388 229.599 109.697C229.966 108.956 230.296 108.198 230.587 107.425C230.608 107.375 230.619 107.322 230.618 107.268C230.618 107.214 230.607 107.161 230.585 107.112C230.564 107.063 230.532 107.018 230.493 106.981C230.454 106.945 230.407 106.916 230.356 106.898C230.322 106.845 230.274 106.802 230.217 106.773C230.161 106.745 230.097 106.731 230.034 106.735C229.971 106.738 229.909 106.758 229.856 106.792C229.803 106.827 229.76 106.875 229.731 106.931H229.895ZM235.262 112.758C235.262 112.758 234.702 113.417 234.011 114.437C233.319 115.458 233.221 115.557 232.793 116.248L231.509 118.322C230.62 119.771 229.863 121.252 229.303 122.405C228.743 123.557 228.414 124.314 228.414 124.314C228.393 124.364 228.382 124.417 228.382 124.471C228.383 124.525 228.394 124.578 228.416 124.627C228.437 124.677 228.469 124.721 228.508 124.758C228.547 124.794 228.594 124.823 228.644 124.841C228.713 124.885 228.793 124.908 228.875 124.908C228.957 124.908 229.037 124.885 229.105 124.841C229.105 124.841 229.632 124.182 230.356 123.162C231.081 122.141 232.002 120.726 232.858 119.277C233.254 118.52 233.681 117.795 234.077 117.104C234.472 116.413 234.768 115.787 235.064 115.195C235.624 114.075 235.953 113.285 235.953 113.285C235.98 113.184 235.972 113.077 235.93 112.981C235.888 112.886 235.815 112.807 235.723 112.758C235.656 112.71 235.575 112.684 235.492 112.684C235.41 112.684 235.329 112.71 235.262 112.758Z" fill="#F18380"/>
<path d="M54.1901 311.411L5.69573 243.13C-0.888703 234.834 -2.00805 224.892 7.93443 218.175C9.78739 216.934 11.8734 216.082 14.0657 215.671C16.258 215.26 18.511 215.299 20.6877 215.786C22.8645 216.272 24.9198 217.196 26.7286 218.501C28.5375 219.806 30.0623 221.465 31.2104 223.377L74.2067 301.238C78.8817 308.283 78.0915 314.901 72.6265 318.391C66.1079 322.572 60.4123 320.168 54.1901 311.411Z" fill="#FBBEAA"/>
<path d="M71.7707 297.122C75.853 304.332 84.9396 318.291 87.0795 322.67C88.7282 326.903 89.8344 331.328 90.3717 335.839C90.5206 339.256 90.2888 342.679 89.6803 346.045C89.3511 348.382 88.4293 348.975 87.0795 348.646C86.2601 348.386 85.5239 347.914 84.9457 347.278C84.3675 346.642 83.9678 345.865 83.7873 345.024C83.7873 345.024 82.8984 347.79 82.4375 349.172C81.9766 350.555 80.6597 351.181 79.1453 349.995C78.0869 349.049 77.245 347.886 76.6768 346.585C76.1087 345.284 75.8277 343.876 75.8531 342.456C75.8531 342.456 73.746 347.921 73.0547 349.238C72.3633 350.555 71.7049 350.884 70.3221 350.489C69.3876 350.206 68.5435 349.683 67.8735 348.973C67.2036 348.263 66.7311 347.389 66.5031 346.44C66.3176 344.255 66.4844 342.054 66.997 339.921C66.997 339.921 63.3097 346.506 62.4208 347.592C61.5319 348.679 60.5113 348.744 59.5237 347.592C58.8113 346.925 58.2514 346.112 57.8821 345.208C57.5127 344.305 57.3428 343.333 57.3837 342.357C57.3837 339.526 59.0627 338.045 59.1944 337.09C59.1067 334.882 58.8758 332.683 58.5031 330.505C56.4596 326.75 55.3316 322.565 55.2108 318.291C54.8193 315.025 53.8377 311.857 52.3137 308.941C51.6117 307.575 51.1903 306.081 51.074 304.549C50.9578 303.017 51.1492 301.477 51.6369 300.02C52.1247 298.563 52.8989 297.218 53.9141 296.064C54.9293 294.911 56.1649 293.972 57.5483 293.303C64.3632 289.682 68.5772 291.855 71.7707 297.122Z" fill="#FBBEAA"/>
<path d="M47.1747 310.961L74.5001 294.5L32.3302 222.85C29.6017 218.959 25.5007 216.245 20.8523 215.256C16.2039 214.266 11.3532 215.074 7.2764 217.517C-2.60025 224.101 -1.44798 235.459 5.10352 243.854L47.1747 310.961Z" fill="#9E163A"/>
<path d="M83.886 344.464C83.7866 344.441 83.7002 344.38 83.6449 344.294C83.5897 344.208 83.5699 344.104 83.5897 344.003C83.5897 344.003 83.5897 342.917 84.0506 341.304C84.0506 340.909 84.0506 340.481 84.281 340.02C84.5115 339.559 84.281 339.131 84.281 338.637C84.3244 338.144 84.3244 337.648 84.281 337.156L84.0835 335.51C83.8531 333.337 83.6884 331.164 83.5567 329.551C83.4251 327.937 83.5567 326.818 83.5567 326.818C83.5636 326.731 83.5951 326.647 83.6475 326.577C83.7 326.508 83.7713 326.454 83.8531 326.423C83.9568 326.409 84.0622 326.431 84.1519 326.484C84.2417 326.538 84.3104 326.621 84.3469 326.719C84.3469 326.719 84.6103 327.806 84.9066 329.419C84.9066 330.242 85.2358 331.197 85.4004 332.25C85.565 333.304 85.6638 334.357 85.7955 335.542C85.7955 336.102 85.7955 336.629 85.7955 337.156C85.8465 337.714 85.8465 338.276 85.7955 338.835C85.7955 339.361 85.7955 339.921 85.4992 340.382C85.2029 340.843 85.2687 341.271 85.137 341.666C85.0053 342.061 84.6761 343.147 84.5115 343.608L84.2481 344.3C84.2104 344.359 84.156 344.407 84.0917 344.436C84.0273 344.465 83.9558 344.475 83.886 344.464ZM76.4456 341.699V341.172C76.5841 340.696 76.6941 340.213 76.7748 339.724C76.7748 339.394 76.7748 339.065 76.7748 338.703C76.8066 338.331 76.8066 337.956 76.7748 337.584C76.7748 336.826 76.7748 336.003 76.7748 335.213C76.7748 333.6 76.5114 331.921 76.3468 330.802V330.439V328.859C76.3471 328.76 76.3101 328.664 76.2429 328.591C76.1758 328.518 76.0836 328.472 75.9847 328.464C75.9024 328.451 75.8181 328.467 75.7461 328.509C75.6742 328.551 75.6189 328.617 75.5896 328.695C75.5811 328.848 75.5811 329.002 75.5896 329.156C75.5896 329.156 75.5896 329.551 75.5896 329.781V330.143V330.67C75.5896 331.888 75.5896 333.468 75.5896 335.081L75.7871 337.452V339.427C75.7871 339.987 75.7871 340.514 75.7871 340.843V341.403C75.7868 341.511 75.8273 341.615 75.9006 341.694C75.9739 341.773 76.0745 341.822 76.1822 341.831C76.2837 341.822 76.378 341.775 76.4456 341.699ZM67.4249 339.23C67.4249 339.23 67.4249 338.736 67.6224 338.044C67.82 337.353 67.6224 337.254 67.6224 336.826C67.6224 336.398 67.6224 335.872 67.6224 335.411C67.5683 334.514 67.4472 333.623 67.2603 332.744C67.1885 332.354 67.0895 331.968 66.964 331.592C66.9489 331.542 66.9242 331.496 66.8912 331.455C66.8582 331.415 66.8176 331.382 66.7718 331.358C66.7259 331.333 66.6756 331.318 66.6239 331.313C66.5721 331.308 66.5199 331.313 66.4701 331.328C66.407 331.355 66.3506 331.395 66.305 331.447C66.2594 331.498 66.2259 331.559 66.2068 331.625C66.179 332.03 66.179 332.437 66.2068 332.843C66.1407 333.697 66.1407 334.556 66.2068 335.411C66.2068 335.905 66.2068 336.365 66.3714 336.793C66.536 337.221 66.3714 337.649 66.3714 338.012C66.3714 338.374 66.6018 339.197 66.6018 339.197C66.6018 339.302 66.6435 339.402 66.7175 339.476C66.7916 339.55 66.8921 339.592 66.9969 339.592C67.1017 339.592 67.2022 339.55 67.2763 339.476C67.3504 339.402 67.392 339.302 67.392 339.197L67.4249 339.23Z" fill="#F18380"/>
</svg>
