<svg width="244" height="417" viewBox="0 0 244 417" fill="none" xmlns="http://www.w3.org/2000/svg">
<path d="M61.4601 390.224C60.9682 393.984 61.2268 397.804 62.2208 401.464C63.2148 405.123 64.9245 408.549 67.251 411.543C69.5776 414.537 72.4747 417.041 75.7749 418.908C79.0751 420.776 82.7128 421.97 86.4776 422.423C90.2424 422.875 94.0596 422.577 97.7084 421.545C101.357 420.513 104.765 418.767 107.735 416.41C110.705 414.052 113.178 411.129 115.011 407.809C116.843 404.49 118 400.84 118.413 397.07C118.413 397.07 133.345 292.194 136.886 271.006C140.427 249.819 136.68 232.084 112.954 227.037C88.3431 221.814 72.9687 239.844 71.1097 257.904C69.2506 275.964 61.4601 390.224 61.4601 390.224Z" fill="black"/>
<path d="M108.528 392.26C108.434 399.867 111.365 407.2 116.678 412.646C121.991 418.091 129.249 421.203 136.857 421.297C144.464 421.391 151.797 418.459 157.242 413.147C162.688 407.834 165.8 400.576 165.894 392.968C165.894 392.968 169.523 287.089 170.763 265.635C172.002 244.182 166.395 226.978 142.257 224.499C117.233 221.932 103.895 241.497 103.895 259.675C103.895 277.852 108.528 392.26 108.528 392.26Z" fill="black"/>
<path d="M108.527 392.26C108.574 388.494 109.362 384.773 110.846 381.311C112.331 377.849 114.482 374.713 117.179 372.082C119.875 369.451 123.063 367.378 126.561 365.979C130.059 364.581 133.798 363.885 137.565 363.931C141.331 363.978 145.052 364.766 148.514 366.25C151.976 367.735 155.112 369.887 157.743 372.583C160.373 375.279 162.447 378.467 163.846 381.965C165.244 385.463 165.94 389.202 165.894 392.969L159.992 544.735L113.691 549.722L108.527 392.26Z" fill="black"/>
<path d="M61.4592 390.224C62.4392 382.733 66.3355 375.93 72.3016 371.295C78.2678 366.659 85.822 364.565 93.3233 365.466C100.825 366.368 107.667 370.193 112.365 376.11C117.062 382.028 119.236 389.56 118.412 397.07L96.1918 547.332H49.626L61.4592 390.224Z" fill="black"/>
<path d="M118.383 397.07L96.1924 547.332" stroke="#888888" stroke-width="0.75" stroke-miterlimit="10" stroke-linecap="round"/>
<path d="M118.413 397.07C118.413 397.07 133.345 292.194 136.886 271.006" stroke="#888888" stroke-width="0.75" stroke-miterlimit="10" stroke-linecap="round"/>
<path d="M232.454 294.946L207.135 227.075C203.446 216.363 195.331 209.576 183.527 214.563C181.344 215.516 179.376 216.901 177.74 218.633C176.105 220.366 174.835 222.411 174.009 224.645C173.182 226.88 172.815 229.258 172.93 231.638C173.044 234.018 173.637 236.35 174.675 238.495L211.591 307.163C215.22 315.455 221.653 318.583 227.909 315.721C235.582 312.15 236.762 305.747 232.454 294.946Z" fill="#FBBEAA"/>
<path d="M234.166 300.288C236.084 308.964 241.189 326.108 241.838 331.214C242.209 336.087 241.941 340.988 241.041 345.791C240.138 349.333 238.831 352.758 237.146 356.001C236.084 358.303 234.992 358.598 233.694 357.861C232.963 357.328 232.381 356.617 232.004 355.796C231.627 354.974 231.467 354.07 231.539 353.169C231.539 353.169 229.798 355.706 228.884 356.975C227.969 358.244 226.434 358.48 225.106 356.739C224.34 355.443 223.866 353.995 223.718 352.496C223.57 350.997 223.752 349.485 224.251 348.063C224.251 348.063 220.355 352.992 219.234 353.965C218.113 354.939 217.345 355.234 216.076 354.408C215.199 353.834 214.491 353.036 214.024 352.098C213.557 351.159 213.349 350.113 213.421 349.067C213.905 346.658 214.782 344.345 216.017 342.221C216.017 342.221 210.116 347.65 208.906 348.654C207.696 349.657 206.604 349.244 205.955 347.857C205.419 346.953 205.089 345.943 204.987 344.898C204.885 343.852 205.014 342.798 205.365 341.807C206.279 338.857 208.316 337.942 208.847 336.997C209.46 334.677 209.933 332.322 210.263 329.945C208.552 322.538 210.263 319.587 210.617 316.429C211.238 312.965 211.238 309.418 210.617 305.954C210.326 304.338 210.36 302.68 210.718 301.077C211.076 299.475 211.75 297.96 212.701 296.622C213.652 295.283 214.861 294.148 216.256 293.283C217.652 292.417 219.206 291.839 220.827 291.583C228.943 290.255 232.572 293.766 234.166 300.288Z" fill="#FBBEAA"/>
<path d="M231.835 352.371C231.734 352.315 231.66 352.222 231.627 352.112C231.594 352.002 231.605 351.883 231.658 351.781L232.986 349.184L233.605 347.916C233.841 347.473 233.959 347.03 234.196 346.588C234.335 346.063 234.444 345.531 234.52 344.994C234.52 344.433 234.727 343.843 234.845 343.283C235.258 340.981 235.76 338.679 236.143 336.997C236.527 335.315 236.822 334.046 236.822 334.046C236.849 333.953 236.908 333.872 236.989 333.818C237.07 333.764 237.168 333.74 237.264 333.751C237.319 333.755 237.372 333.769 237.421 333.794C237.469 333.818 237.513 333.852 237.548 333.893C237.584 333.934 237.611 333.982 237.628 334.033C237.645 334.085 237.652 334.139 237.648 334.194C237.648 334.194 237.648 335.374 237.412 337.145C237.412 338.03 237.176 339.063 237.028 340.096C236.881 341.128 236.645 342.338 236.409 343.489L236.055 345.201C235.963 345.791 235.825 346.373 235.641 346.942C235.376 347.443 235.11 348.004 234.845 348.417L234.077 349.657C233.605 350.394 233.133 350.985 232.868 351.427L232.366 352.047C232.356 352.105 232.334 352.16 232.301 352.209C232.268 352.258 232.224 352.299 232.174 352.33C232.124 352.361 232.067 352.38 232.009 352.387C231.95 352.395 231.891 352.389 231.835 352.371ZM225.107 347.207L225.431 346.706C225.608 346.381 225.933 345.968 226.228 345.348C226.356 345.006 226.504 344.671 226.671 344.345C226.839 343.98 226.986 343.605 227.113 343.224C227.32 342.456 227.556 341.63 227.792 340.804C228.176 339.122 228.5 337.44 228.736 336.141V335.758C228.736 335.758 228.736 335.492 228.884 335.374C228.959 335.162 229.018 334.945 229.061 334.725C229.053 334.607 229.053 334.489 229.061 334.371C229.079 334.318 229.087 334.263 229.083 334.208C229.08 334.152 229.065 334.098 229.041 334.049C229.016 333.999 228.981 333.955 228.939 333.919C228.897 333.883 228.848 333.856 228.795 333.84C228.735 333.784 228.656 333.752 228.574 333.752C228.492 333.752 228.413 333.784 228.353 333.84V333.987C228.353 333.987 228.117 334.253 228.028 334.4L227.733 335.02C227.641 335.123 227.571 335.243 227.526 335.374C227.526 335.669 227.526 335.699 227.349 335.876C226.936 337.115 226.464 338.827 226.051 340.42C225.874 341.276 225.667 342.102 225.52 342.899L225.166 343.991C225.166 344.315 224.959 344.64 224.871 344.906C224.782 345.171 224.487 346.027 224.369 346.381C224.323 346.572 224.264 346.759 224.192 346.942C224.162 347.047 224.173 347.16 224.222 347.258C224.271 347.357 224.355 347.433 224.457 347.473C224.516 347.507 224.582 347.527 224.649 347.532C224.717 347.536 224.785 347.525 224.847 347.5C224.91 347.474 224.966 347.434 225.011 347.384C225.056 347.333 225.089 347.273 225.107 347.207ZM216.637 341.866C216.849 341.495 217.037 341.111 217.198 340.715C217.198 340.361 217.552 339.948 217.7 339.505C217.847 339.063 217.936 338.532 218.083 338.03C218.299 337.056 218.457 336.071 218.556 335.079C218.589 334.647 218.589 334.213 218.556 333.781C218.548 333.668 218.498 333.563 218.416 333.486C218.334 333.41 218.225 333.367 218.113 333.367C218.037 333.367 217.963 333.39 217.9 333.432C217.837 333.474 217.788 333.534 217.759 333.604C217.555 333.984 217.377 334.379 217.228 334.784C216.912 335.653 216.646 336.54 216.431 337.44L216.165 338.886C216.165 339.358 215.988 339.8 215.9 340.155C215.811 340.509 215.9 341.453 215.9 341.453C215.899 341.565 215.942 341.674 216.019 341.756C216.095 341.838 216.201 341.888 216.313 341.896C216.421 341.927 216.537 341.917 216.637 341.866Z" fill="#F18380"/>
<path d="M141.418 140.377C140.013 136.182 140.332 131.6 142.305 127.641C144.278 123.681 147.743 120.667 151.938 119.263C156.133 117.858 160.714 118.177 164.674 120.15C168.634 122.123 171.647 125.588 173.052 129.783L205.099 225.393C205.833 227.477 206.145 229.686 206.018 231.892C205.89 234.098 205.326 236.256 204.357 238.242C203.387 240.228 202.033 242.001 200.373 243.459C198.713 244.916 196.779 246.03 194.685 246.734C192.591 247.438 190.377 247.718 188.173 247.559C185.97 247.4 183.82 246.805 181.848 245.808C179.876 244.811 178.122 243.432 176.688 241.751C175.254 240.07 174.169 238.121 173.495 236.016L141.418 140.377Z" fill="#FBBEAA"/>
<path d="M188.564 176.007L156.921 186.619L160.411 197.027L192.054 186.415L188.564 176.007Z" fill="#F18380"/>
<path d="M207.5 308.5L168.5 230.5L139.913 140.878C139.043 138.579 138.646 136.128 138.745 133.673C138.845 131.217 139.439 128.806 140.493 126.585C141.546 124.365 143.037 122.379 144.876 120.748C146.714 119.117 148.863 117.874 151.194 117.093C153.524 116.313 155.989 116.01 158.439 116.204C160.889 116.398 163.275 117.085 165.454 118.223C167.632 119.361 169.559 120.926 171.118 122.827C172.677 124.727 173.837 126.922 174.527 129.281L203.5 216.5L239 298L207.5 308.5Z" fill="#003399"/>
<path d="M240.135 293.5L203.056 307.153L206.461 316.402L243.541 302.749L240.135 293.5Z" fill="#4E6AD9"/>
<path d="M169.894 242.685C169.894 242.685 169.894 273.286 169.894 274.968C169.894 276.65 155.139 291.08 135.545 291.08C105.416 291.08 69.3555 280.073 69.8867 272.903C70.2408 268.181 70.6834 242.685 70.6834 242.685H169.894Z" fill="black"/>
<path d="M144.162 79.5867H108.633V121.372H144.162V79.5867Z" fill="#FBBEAA"/>
<path d="M108.662 79.5867H144.073V102.899C142.526 103.091 140.969 103.19 139.411 103.194C127.194 103.194 113.531 99.8596 108.544 88.2034L108.662 79.5867Z" fill="#F18380"/>
<path d="M144.192 106.204C144.192 106.204 164.612 118.008 167.799 120.074C170.986 122.139 174.587 125.326 173.937 133.943C173.288 142.56 170.544 255.758 170.544 255.758C164.158 259.204 157.368 261.84 150.33 263.607C146.907 263.991 144.251 264.079 141.949 261.837C139.648 259.594 132.86 251.449 132.86 251.449C132.86 251.449 121.676 259.033 116.63 261.837C115.423 262.678 114.059 263.269 112.62 263.573C111.18 263.877 109.694 263.889 108.25 263.607C100.931 262.102 72.012 253.663 71.0972 253.131C70.1825 252.6 69.3267 252.04 69.3857 251.036C69.4447 250.033 70.0349 134.917 70.4185 129.723C70.4945 126.942 71.3697 124.241 72.9396 121.944C74.5095 119.647 76.7076 117.85 79.2714 116.769C85.4388 114.024 108.604 104.611 108.604 104.611L132.772 121.402L144.192 106.204Z" fill="#2943AC"/>
<path d="M132.24 120.87L132.83 121.402L133.421 120.841V252.158L133.155 251.833L132.83 251.449L132.24 251.833V120.87Z" fill="#192A6B"/>
<path d="M144.191 102.9L132.83 121.402C132.83 121.402 143.955 130.255 144.634 130.904C145.313 131.553 146.581 131.494 146.818 130.461C147.054 129.429 150.329 109.805 150.359 109.805C150.415 109.701 150.445 109.584 150.445 109.466C150.445 109.347 150.415 109.23 150.359 109.126C149.946 108.92 144.191 102.9 144.191 102.9Z" fill="#4E6AD9"/>
<path d="M108.456 99.476L132.831 121.401C132.831 121.401 119.965 130.254 119.434 130.903C119.268 131.043 119.072 131.143 118.862 131.197C118.652 131.25 118.433 131.256 118.221 131.214C118.008 131.171 117.808 131.081 117.635 130.951C117.462 130.821 117.32 130.653 117.22 130.461C116.306 128.956 101.167 107.739 101.138 107.562C101.075 107.459 101.042 107.342 101.042 107.222C101.042 107.102 101.075 106.985 101.138 106.883L108.456 99.476Z" fill="#4E6AD9"/>
<path d="M162.517 48.5727C162.251 60.642 162.517 70.1735 160.362 79.3805C158.208 88.5874 151.51 96.1123 136.755 96.1123C122 96.1123 105.18 91.3022 103.999 72.8589C101.58 70.2325 97.6549 60.8781 97.5074 50.4023C97.3599 39.9264 98.1566 17.7649 122.059 14.3713C145.962 10.9777 163.195 19.742 162.517 48.5727Z" fill="#FBBEAA"/>
<path d="M150.064 58.0744C150.064 59.6974 151.038 61.0253 152.248 61.0253C153.458 61.0253 154.432 59.6974 154.432 58.0744C154.432 56.4513 153.458 55.1234 152.248 55.1234C151.038 55.1234 150.064 56.3333 150.064 58.0744Z" fill="#403D4F"/>
<path d="M123.506 58.0744C123.506 59.6974 124.48 61.0253 125.69 61.0253C126.899 61.0253 127.873 59.6974 127.873 58.0744C127.873 56.4513 126.87 55.1234 125.69 55.1234C124.509 55.1234 123.506 56.3333 123.506 58.0744Z" fill="#403D4F"/>
<path d="M128.965 48.8085C128.729 49.0741 127.194 48.8085 126.014 48.8085C124.834 48.8085 122.562 48.8085 122.562 48.5429C122.562 48.2773 123.683 46.4477 126.634 46.7723C128.64 47.0084 129.231 48.3363 128.965 48.8085Z" fill="#403D4F"/>
<path d="M149.622 48.8085C149.799 49.0741 151.127 48.8085 152.159 48.8085C153.192 48.8085 155.11 48.8085 155.11 48.5429C155.11 48.2773 154.166 46.4477 151.658 46.7723C149.622 47.0084 149.238 48.3363 149.622 48.8085Z" fill="#403D4F"/>
<path d="M140.769 70.2916C142.834 70.2916 144.487 68.9342 144.546 67.9604L143.867 59.6387C143.845 59.4325 143.743 59.2432 143.583 59.1109C143.423 58.9787 143.218 58.914 143.011 58.9305C142.91 58.938 142.812 58.9653 142.722 59.0109C142.631 59.0566 142.551 59.1196 142.485 59.1964C142.419 59.2732 142.369 59.3622 142.338 59.4584C142.307 59.5546 142.295 59.656 142.303 59.7568L142.952 67.7833C142.654 68.1068 142.287 68.3594 141.879 68.5228C141.47 68.6862 141.03 68.7562 140.591 68.7276C140.488 68.7196 140.385 68.7325 140.287 68.7656C140.189 68.7987 140.098 68.8513 140.021 68.9203C139.944 68.9892 139.881 69.073 139.837 69.1667C139.793 69.2604 139.769 69.362 139.765 69.4654C139.761 69.57 139.778 69.6744 139.814 69.7726C139.851 69.8708 139.906 69.9608 139.978 70.0376C140.049 70.1143 140.135 70.1762 140.23 70.2198C140.325 70.2634 140.428 70.2878 140.532 70.2916H140.769Z" fill="#F18380"/>
<path d="M139.087 76.1929C141.566 76.3405 145.726 77.7274 145.756 78.8193C145.717 80.8465 144.881 82.7767 143.428 84.191C141.975 85.6053 140.023 86.3896 137.995 86.3737C128.906 86.3737 128.936 79.3504 129.319 77.8159C129.703 76.2815 134.483 75.8978 139.087 76.1929Z" fill="#73102A"/>
<path d="M129.289 80.2656C131.747 79.3753 134.429 79.3114 136.927 80.0836C139.425 80.8559 141.602 82.4221 143.129 84.5445C141.718 85.7955 139.878 86.4512 137.994 86.3741C131.561 86.3741 129.702 82.892 129.289 80.2656Z" fill="#D65155"/>
<path d="M129.673 77.2849C130.942 76.1931 135.103 75.9275 139.086 76.1931C141.536 76.3406 145.667 77.698 145.755 78.8194C140.349 79.5859 134.837 79.06 129.673 77.2849Z" fill="white"/>
<path d="M118.873 37.89C118.873 45.1494 115.922 48.3069 113.709 49.6938C111.496 51.0807 109.873 52.4677 109.873 54.976V63.8288C109.873 64.8321 109.283 65.5993 108.515 65.3338C107.748 65.0682 104.886 63.6222 104.886 62.1763L96.0328 55.9203C93.73 50.4661 92.8762 44.5092 93.554 38.6278C93.8174 35.33 94.7896 32.1279 96.404 29.2403C98.0184 26.3526 100.237 23.8475 102.908 21.896C102.908 15.6105 108.81 4.42641 121.234 0C121.538 2.27194 121.538 4.57423 121.234 6.84618C126.87 1.74105 145.845 0.177058 152.661 2.53781C151.661 4.77372 150.215 6.78199 148.412 8.43968C157.723 10.59 166.008 15.8843 171.872 23.4304C170.004 25.8663 167.64 27.8779 164.937 29.3323C168.038 33.5981 169.879 38.6491 170.249 43.91C164.646 43.3913 159.155 42.0283 153.96 39.8672C154.25 42.4606 154.1 45.0845 153.517 47.6281C147.615 47.274 136.461 41.2541 133.303 36.4146C133.797 40.3562 133.577 44.3546 132.654 48.2183C127.168 46.1629 122.386 42.5787 118.873 37.89Z" fill="#403D4F"/>
<path d="M104.62 63.681C104.62 60.317 103.941 55.3594 99.1901 55.2413C94.439 55.1233 93.7898 58.7234 93.9374 64.3892C94.0849 70.055 99.8392 74.8651 104.885 72.9175L104.62 63.681Z" fill="#FBBEAA"/>
<path d="M97.6258 67.7538C97.8292 67.711 98.0091 67.593 98.1294 67.4234C98.2497 67.2539 98.3017 67.0452 98.275 66.839C98.2756 66.6762 98.3198 66.5165 98.4028 66.3765C98.4858 66.2364 98.6046 66.121 98.7471 66.0423C99.0542 65.8416 99.4131 65.7348 99.78 65.7348C100.147 65.7348 100.506 65.8416 100.813 66.0423C100.938 66.1148 101.081 66.153 101.226 66.153C101.371 66.153 101.513 66.1148 101.639 66.0423C101.767 65.9692 101.871 65.8607 101.939 65.7299C102.007 65.599 102.036 65.4513 102.023 65.3045C101.58 60.5535 98.5701 59.6682 98.452 59.6387C98.3513 59.6076 98.2452 59.5976 98.1404 59.6094C98.0356 59.6211 97.9344 59.6543 97.843 59.7069C97.7516 59.7596 97.6721 59.8304 97.6093 59.9152C97.5465 59.9999 97.5019 60.0967 97.4782 60.1994C97.4238 60.395 97.4491 60.6043 97.5486 60.7813C97.6482 60.9583 97.8139 61.0886 98.0094 61.1437C98.5959 61.4149 99.1069 61.8257 99.4979 62.3401C99.8889 62.8545 100.148 63.457 100.252 64.0946C99.4434 63.9629 98.6145 64.1308 97.9209 64.5668C97.5114 64.798 97.1802 65.1462 96.9699 65.5668C96.7596 65.9874 96.6797 66.4612 96.7405 66.9275C96.73 67.0439 96.7463 67.161 96.788 67.2701C96.8297 67.3792 96.8958 67.4774 96.9811 67.5571C97.0665 67.6368 97.169 67.6959 97.2807 67.73C97.3924 67.7641 97.5104 67.7722 97.6258 67.7538Z" fill="#F18380"/>
<path d="M69.5921 129.339C71.2425 125.36 74.3668 122.172 78.3124 120.441C82.258 118.711 86.7196 118.572 90.765 120.054C94.8105 121.536 98.1269 124.524 100.021 128.393C101.916 132.263 102.242 136.714 100.931 140.819L66.1986 235.514C65.4448 237.57 64.2936 239.457 62.8105 241.068C61.3274 242.679 59.5416 243.982 57.5549 244.903C55.5683 245.823 53.4197 246.344 51.232 246.434C49.0442 246.525 46.8601 246.183 44.8043 245.429C42.7485 244.676 40.8612 243.524 39.2503 242.041C37.6395 240.558 36.3365 238.772 35.4158 236.786C34.4951 234.799 33.9747 232.651 33.8843 230.463C33.794 228.275 34.1354 226.091 34.8891 224.035L69.5921 129.339Z" fill="#FBBEAA"/>
<path d="M52.7884 175.163L49.0068 185.469L80.3392 196.966L84.1207 186.66L52.7884 175.163Z" fill="#F18380"/>
<path d="M39.0202 150.97C39.0202 147.695 38.253 144.507 40.0235 141.704C42.196 138.172 43.594 134.219 44.1254 130.107C44.4581 126.396 45.3743 122.761 46.8402 119.336C47.9321 117.211 49.7911 115.441 49.7911 113.818C49.7911 112.195 46.3681 110.011 42.5318 111.398C40.9272 112.174 39.5119 113.293 38.3853 114.674C37.2587 116.056 36.448 117.667 36.0103 119.395C35.4763 118.477 35.0881 117.481 34.8594 116.444L30.6396 95.2268C30.4383 94.2392 29.8925 93.3553 29.0996 92.7329C28.3068 92.1106 27.3185 91.7903 26.3113 91.8293C25.3042 91.8683 24.3437 92.2641 23.6013 92.9459C22.859 93.6277 22.3832 94.5512 22.2589 95.5514L21.8753 94.6957C21.584 93.6711 20.9134 92.796 19.9999 92.2481C19.0865 91.7003 17.9987 91.5209 16.9576 91.7464C15.9166 91.9718 15.0006 92.5853 14.3957 93.4621C13.7908 94.3388 13.5424 95.413 13.7012 96.4662L14.3504 99.4172C13.8738 98.5402 13.0938 97.8672 12.1566 97.5241C11.2194 97.181 10.1892 97.1913 9.25907 97.5532C8.32894 97.9152 7.56266 98.6038 7.10382 99.4901C6.64498 100.376 6.52503 101.4 6.76647 102.368L7.20911 104.227C6.71478 103.639 6.06631 103.201 5.33652 102.961C4.60674 102.721 3.82453 102.69 3.0778 102.87C2.55802 103.001 2.06922 103.233 1.63939 103.553C1.20955 103.873 0.847152 104.275 0.572995 104.736C0.298837 105.196 0.118314 105.707 0.0417573 106.237C-0.0347996 106.768 -0.0058916 107.308 0.12686 107.827L4.67131 125.533C7.32573 135.523 10.9531 145.229 15.5013 154.511C15.7981 156.121 16.4265 157.652 17.3467 159.006C18.2669 160.36 19.4586 161.507 20.8462 162.376C22.2338 163.245 23.7869 163.815 25.4068 164.051C27.0268 164.287 28.6781 164.184 30.256 163.748C31.7169 163.584 33.1254 163.108 34.3859 162.351C35.6464 161.595 36.7291 160.576 37.5607 159.363C38.3922 158.151 38.9529 156.774 39.2048 155.326C39.4566 153.877 39.3937 152.392 39.0202 150.97Z" fill="#FBBEAA"/>
<path d="M21.5216 130.844C24.1479 122.995 32.6762 121.047 35.6271 120.605C35.273 122.198 35.3025 123.054 33.9451 123.29C31.5843 123.674 24.4725 124.972 21.5216 130.844ZM22.3774 96.5839C22.3192 96.5876 22.2624 96.6028 22.2101 96.6286C22.1578 96.6544 22.1111 96.6903 22.0727 96.7341C22.0343 96.778 22.005 96.829 21.9864 96.8843C21.9678 96.9395 21.9602 96.9979 21.9642 97.056C21.9642 97.056 22.1118 98.2659 22.4069 100.007C22.5839 100.892 22.7315 101.955 22.9381 103.105C23.1446 104.256 23.4102 105.407 23.6463 106.617C24.1774 109.007 24.7676 111.368 25.2693 113.168C25.771 114.968 26.1251 116.119 26.1251 116.119C26.1623 116.212 26.2282 116.291 26.313 116.344C26.3979 116.397 26.4974 116.421 26.5972 116.414C26.7094 116.399 26.8117 116.342 26.883 116.254C26.9543 116.167 26.9894 116.055 26.9809 115.942C26.9809 115.942 26.9809 114.703 26.5677 112.991C26.1546 111.28 25.83 108.771 25.3283 106.381C25.0332 105.171 24.7676 103.991 24.5021 102.869C24.2365 101.748 23.9119 100.715 23.7053 99.9185C23.2036 98.1479 22.82 96.9675 22.82 96.9675C22.8163 96.9132 22.8019 96.8602 22.7776 96.8115C22.7533 96.7628 22.7196 96.7193 22.6784 96.6837C22.6373 96.648 22.5895 96.6209 22.5379 96.6038C22.4862 96.5866 22.4317 96.5799 22.3774 96.5839ZM14.7049 100.302C14.5928 100.317 14.4905 100.374 14.4192 100.462C14.3478 100.55 14.3128 100.661 14.3213 100.774C14.3213 100.774 14.3213 101.837 14.7345 103.401C14.7345 104.197 15.0295 105.083 15.2361 106.056C15.4427 107.03 15.6788 108.063 15.9148 109.007C16.4165 111.073 17.0067 113.109 17.4788 114.614C17.951 116.119 18.3346 117.152 18.3346 117.152C18.3621 117.243 18.4227 117.321 18.5046 117.37C18.5864 117.419 18.6836 117.436 18.7772 117.418C18.8894 117.403 18.9917 117.346 19.063 117.258C19.1344 117.17 19.1694 117.058 19.1609 116.945C19.1609 116.945 19.1609 115.883 18.7477 114.319C18.3346 112.755 18.069 110.66 17.5674 108.624C17.3018 107.591 17.0362 106.558 16.7706 105.673C16.505 104.788 16.2394 103.843 16.0034 103.046C15.5312 101.541 15.1476 100.538 15.1476 100.538C15.1144 100.452 15.0515 100.381 14.9702 100.338C14.8889 100.294 14.7948 100.282 14.7049 100.302ZM7.41612 104.876C7.30395 104.891 7.20169 104.948 7.13035 105.036C7.05901 105.124 7.02399 105.235 7.0325 105.348C7.0325 105.348 7.0325 106.263 7.44563 107.561C7.59318 108.24 7.74072 109.007 7.94729 109.834L8.62601 112.371C9.09816 114.112 9.68834 115.795 10.1605 117.063C10.4051 117.778 10.6908 118.477 11.0163 119.159C11.0494 119.244 11.1124 119.316 11.1937 119.359C11.2749 119.402 11.3691 119.415 11.4589 119.395C11.5711 119.38 11.6733 119.323 11.7447 119.235C11.816 119.147 11.851 119.035 11.8425 118.922C11.8425 118.922 11.8425 118.037 11.4294 116.709C11.0163 115.381 10.7507 113.758 10.249 111.899L9.48179 109.45C9.2162 108.653 8.9211 107.915 8.71454 107.266C8.24239 105.997 7.85876 105.171 7.85876 105.171C7.83156 105.078 7.77224 104.997 7.69126 104.943C7.61028 104.889 7.51284 104.865 7.41612 104.876Z" fill="#F18380"/>
<path d="M39.7281 152.888L64.9291 220.76C69.1784 231.265 67.4079 241.8 55.2205 245.754C52.9445 246.464 50.5487 246.706 48.1766 246.467C45.8046 246.229 43.5052 245.513 41.4164 244.364C39.3276 243.215 37.4923 241.656 36.0207 239.78C34.5491 237.904 33.4715 235.751 32.8524 233.449L16.1206 157.344C13.4352 148.698 16.1206 142.147 22.8487 140.199C30.8162 137.868 35.9214 141.911 39.7281 152.888Z" fill="#FBBEAA"/>
<path d="M45.5 157L50.5 176.5L68.1168 128.779C69.8111 124.263 73.2225 120.601 77.6068 118.591C81.991 116.581 86.9922 116.387 91.5192 118.05C96.0463 119.714 99.7316 123.1 101.771 127.471C103.811 131.841 104.039 136.841 102.407 141.379L71.3206 233.505C69.3287 239.408 64.4257 243.862 58.3586 245.279L53.4934 246.415C43.8264 248.672 34.1567 242.677 31.8799 233.015L15.5 163.5L45.5 157Z" fill="#2943AC"/>
<path d="M50.6707 156.429L47.8008 147L9.99989 158.505L12.8698 167.934L50.6707 156.429Z" fill="#4E6AD9"/>
</svg>
