<svg width="221" height="505" viewBox="0 0 221 505" fill="none" xmlns="http://www.w3.org/2000/svg">
    <path d="M102.823 90.8864C103.517 90.8864 104.991 90.8864 106.292 91.32C106.292 92.3608 103.979 93.1992 102.823 93.4883C102.534 92.621 102.129 90.8864 102.823 90.8864Z" fill="#013FA9"/>
    <path d="M105.066 70.4605H77.2202V102.57H105.066V70.4605Z" fill="#FBBEAA"/>
    <path d="M77.2893 70.4605H105.042V88.3748C103.83 88.5224 102.61 88.5982 101.388 88.6016C91.8134 88.6016 81.1053 86.0391 77.1968 77.082L77.2893 70.4605Z" fill="#F18380"/>
    <path d="M119.451 46.6281C119.22 55.9027 119.451 63.2272 117.74 70.3022C116.028 77.3772 110.802 83.1597 99.2379 83.1597C87.6741 83.1597 74.4914 79.4634 73.5663 65.2907C71.6698 63.2725 68.5939 56.0841 68.4782 48.034C68.3626 39.984 69.0102 22.954 87.7204 20.3463C106.431 17.7385 119.96 24.4733 119.451 46.6281Z" fill="#FBBEAA"/>
    <path d="M109.668 53.9294C109.668 55.1766 110.432 56.1971 111.38 56.1971C112.328 56.1971 113.091 55.1766 113.091 53.9294C113.091 52.6822 112.328 51.6618 111.38 51.6618C110.432 51.6618 109.668 52.5915 109.668 53.9294Z" fill="#403D4F"/>
    <path d="M88.853 53.9294C88.853 55.1766 89.6162 56.1971 90.5644 56.1971C91.5127 56.1971 92.2759 55.1766 92.2759 53.9294C92.2759 52.6822 91.5127 51.6618 90.5644 51.6618C89.6162 51.6618 88.853 52.5915 88.853 53.9294Z" fill="#403D4F"/>
    <path d="M93.0396 49.2129C92.8777 49.417 91.652 49.2129 90.7269 49.2129C89.8018 49.2129 88.021 49.2129 88.021 49.0088C88.021 48.8047 88.8998 47.3988 91.2125 47.6482C92.8777 47.8296 93.4791 48.8501 93.0396 49.2129Z" fill="#403D4F"/>
    <path d="M109.276 49.2129C109.415 49.417 110.455 49.2129 111.265 49.2129C112.074 49.2129 113.578 49.2129 113.578 49.0088C113.37 48.4948 112.978 48.0729 112.476 47.8224C111.973 47.5718 111.394 47.5099 110.849 47.6482C109.415 47.8296 109.021 48.85 109.276 49.2129Z" fill="#403D4F"/>
    <path d="M102.452 63.3178C104.071 63.3178 105.366 62.2746 105.413 61.5263L104.881 55.1316C104.863 54.9731 104.783 54.8276 104.658 54.726C104.533 54.6244 104.372 54.5746 104.21 54.5874C104.131 54.5931 104.054 54.6141 103.983 54.6492C103.912 54.6842 103.849 54.7326 103.798 54.7917C103.746 54.8507 103.707 54.9191 103.683 54.993C103.658 55.0669 103.649 55.1448 103.655 55.2223L104.164 61.3903C103.93 61.6388 103.643 61.8329 103.322 61.9585C103.002 62.084 102.658 62.1378 102.314 62.1159C102.233 62.1097 102.151 62.1197 102.075 62.1451C101.998 62.1706 101.927 62.211 101.866 62.2639C101.806 62.3169 101.757 62.3813 101.723 62.4533C101.688 62.5253 101.669 62.6034 101.666 62.6828C101.666 62.8436 101.727 62.9986 101.839 63.1165C101.951 63.2343 102.104 63.3063 102.267 63.3178H102.452Z" fill="#F18380"/>
    <path d="M77.3865 59.1904C74.8502 58.8912 73.2211 56.9228 72.761 54.6552C72.301 52.3876 70.8584 53.5214 68.1355 53.5214C65.4126 53.5214 64.0206 48.2719 63.1643 44.2785C62.0506 39.0847 63.7089 33.0044 65.3427 30.857C60.986 27.0989 63.1643 14.2143 64.2535 18.5091C65.1248 21.945 68.2471 23.5198 69.6993 23.8778C74.056 7.98666 91.1196 10.8142 99.1069 14.2143C104.464 12.1017 109.211 14.1744 111.849 16.1732C115.464 15.5662 118.607 15.6804 113.266 17.4355C112.906 17.0485 112.428 16.6126 111.849 16.1732C108.829 16.6803 105.479 17.6906 106.471 18.668C108.649 20.8155 134.505 35.1519 125.247 40.5205C117.841 44.8154 106.913 41.2363 102.374 38.9099C97.1464 43.2048 90.0305 41.7732 87.126 40.5205C86.6904 43.0974 81.6961 46.7838 79.6993 49.1102C77.7025 51.4366 78.5429 59.3269 77.3865 59.1904Z" fill="#F3E8AE"/>
    <path d="M74.0752 58.2379C73.9596 55.6528 73.5433 51.8432 69.7966 51.7525C66.0499 51.6618 65.5643 54.4283 65.6799 58.7822C65.7955 63.136 70.3054 66.8323 74.2602 65.3356L74.0752 58.2379Z" fill="#FBBEAA"/>
    <path d="M68.5707 61.3675C68.7329 61.3398 68.8774 61.2503 68.9727 61.1187C69.068 60.987 69.1064 60.8238 69.0795 60.6645C69.0797 60.5365 69.1167 60.4112 69.1862 60.3029C69.2558 60.1946 69.3551 60.1077 69.4727 60.0523C69.7088 59.8973 69.9865 59.8145 70.2706 59.8145C70.5547 59.8145 70.8324 59.8973 71.0685 60.0523C71.1712 60.1079 71.2866 60.137 71.4039 60.137C71.5212 60.137 71.6365 60.1079 71.7392 60.0523C71.8334 59.9912 71.909 59.9062 71.9579 59.8064C72.0067 59.7066 72.0271 59.5956 72.0167 59.4854C71.693 55.8345 69.3108 55.1542 69.2183 55.1315C69.1393 55.1076 69.0562 55.0999 68.9741 55.109C68.892 55.118 68.8126 55.1435 68.741 55.1839C68.6694 55.2244 68.607 55.2788 68.5578 55.3439C68.5086 55.4091 68.4736 55.4834 68.4551 55.5624C68.4124 55.7127 68.4322 55.8735 68.5103 56.0095C68.5883 56.1456 68.7182 56.2457 68.8714 56.288C69.3334 56.4931 69.7361 56.8078 70.0429 57.2037C70.3498 57.5996 70.5513 58.0642 70.6291 58.5556C69.9953 58.4544 69.3457 58.5834 68.802 58.9185C68.4852 59.1006 68.2292 59.3689 68.065 59.6909C67.9008 60.013 67.8354 60.3748 67.8769 60.7326C67.873 60.8209 67.8887 60.909 67.9228 60.9909C67.9569 61.0727 68.0087 61.1463 68.0747 61.2067C68.1406 61.267 68.2191 61.3126 68.3047 61.3404C68.3904 61.3682 68.4811 61.3774 68.5707 61.3675Z" fill="#F18380"/>
    <path d="M100.857 71.4809C98.6245 71.3964 96.4809 70.6003 94.7515 69.2132" stroke="#73102A" stroke-width="0.5" stroke-miterlimit="10" stroke-linecap="round"/>
    <path d="M83.2373 36.0023C81.8803 40.0723 79.767 43.8489 77.0084 47.1334H70.2561C70.2561 47.1334 65.0217 41.0571 64.6291 40.5595C64.0616 39.9542 63.6302 39.2343 63.3639 38.4482C63.0975 37.6622 63.0024 36.8282 63.085 36.0023H83.2373Z" fill="#676575"/>
    <path d="M77.0088 47.1336C77.0088 60.2291 72.6826 78.849 93.0278 82.7868C93.0278 82.7868 79.9924 82.0986 74.9936 75.6818C69.9948 69.265 70.2565 47.0288 70.2565 47.0288L77.0088 47.1336Z" fill="#827F94"/>
    <path d="M58.2437 37.6787H124.301C124.804 31.7069 124.237 25.6933 122.626 19.9212C120.009 12.4306 114.775 3.2637 92.8689 3.2637C70.9631 3.2637 63.2948 13.5306 61.7507 21.3093C60.2065 29.088 60.9393 31.6286 60.0233 32.4667C59.1073 33.3048 58.2437 33.331 58.2437 34.5881V37.6787Z" fill="#EFEFEF"/>
    <path d="M92.8687 3.26383C97.6458 3.177 102.412 3.75884 107.028 4.99244H107.237L108.048 5.25434C110.26 5.93579 112.365 6.92314 114.303 8.18774C115.62 13.6192 115.965 19.2409 115.324 24.7928H108.048L98.3648 23.1428C98.3648 23.1428 95.3027 7.4282 84.4153 3.76146C87.2176 3.39341 90.0427 3.22711 92.8687 3.26383Z" fill="#D8D8D8"/>
    <path d="M91.3504 0.749435H106.137C107.708 0.749435 115.324 6.6686 115.324 26.9404H98.4953C98.4953 20.9689 97.4484 5.33286 88.0266 3.36854C88.0528 3.42092 89.4661 0.749435 91.3504 0.749435Z" fill="#EFEFEF"/>
    <path d="M134.848 37.6786V33.8547C134.846 33.3066 134.731 32.7647 134.51 32.2632C134.289 31.7616 133.967 31.311 133.564 30.9398C133.161 30.5685 132.686 30.2845 132.168 30.1055C131.651 29.9266 131.102 29.8566 130.556 29.8999H122.102C121.616 29.9225 121.131 29.8407 120.68 29.66C120.228 29.4793 119.821 29.2038 119.485 28.8522C118.935 28.2236 115.193 24.714 114.748 24.1902C114.442 23.7902 114.045 23.4696 113.589 23.2553C113.134 23.0411 112.634 22.9396 112.131 22.9592H99.8299C99.3277 22.9439 98.8289 23.0473 98.3741 23.2612C97.9193 23.4751 97.5214 23.7934 97.2127 24.1902C96.7678 24.714 93.0252 28.2236 92.4756 28.8522C92.1406 29.2052 91.7333 29.4816 91.2815 29.6624C90.8298 29.8433 90.3444 29.9243 89.8585 29.8999H82.8183C82.2723 29.8566 81.7232 29.9266 81.2055 30.1055C80.6878 30.2845 80.2126 30.5685 79.8096 30.9398C79.4067 31.311 79.0847 31.7616 78.8639 32.2632C78.643 32.7647 78.528 33.3066 78.5261 33.8547V37.6786H134.848Z" fill="#D8D8D8"/>
    <path d="M113.569 427.909C113.569 427.909 112.445 475.354 112.165 482.451C111.884 489.548 107.365 491.48 100.083 492.108C92.8017 492.736 89.7346 486.989 88.7044 482.428C87.6742 477.867 81.4463 431.353 81.4463 431.353L113.569 427.909Z" fill="#FBBEAA"/>
    <path d="M66.5322 429.056C66.5322 429.056 60.3404 476.636 59.3162 483.719C58.292 490.802 53.6132 492.308 46.3273 492.143C39.0414 491.979 36.6438 485.884 36.1084 481.201C35.573 476.519 34.4092 429.056 34.4092 429.056H66.5322Z" fill="#FBBEAA"/>
    <path d="M47.5495 468.09C50.1939 467.903 52.816 468.681 54.9177 470.278C57.0195 471.875 58.4547 474.178 58.9507 476.751L71.1213 489.074V496.744H32.1147C32.1147 496.744 34.0732 482.924 34.6328 479.814C35.1924 476.705 37.0809 468.09 47.5495 468.09Z" fill="#FBBEAA"/>
    <path d="M59.0998 476.978C59.5501 476.366 60.19 475.895 60.6403 476.178C61.0907 476.46 73.0595 485.878 73.6283 486.349C73.9786 486.675 74.2436 487.082 74.4005 487.533C74.5574 487.984 74.6014 488.467 74.5289 488.938V499.039H30.9673C30.9673 499.039 32.6737 484.112 32.7922 483.288C32.9107 482.464 33.7402 481.381 34.2142 481.404C37.2042 482.314 40.3072 482.806 43.4338 482.864C47.5891 483.083 51.7342 482.274 55.4973 480.51C56.8926 479.546 58.1111 478.351 59.0998 476.978Z" fill="#302D3B"/>
    <path d="M67.3201 490.854C65.2574 489.296 57.8408 483.397 55.0596 481.178L55.7085 480.848C55.7961 480.81 55.875 480.753 55.9403 480.683C58.9069 483.043 65.8831 488.612 67.8763 490.122C69.5613 491.437 70.7155 493.334 71.1211 495.455L70.2172 495.597C69.8349 493.716 68.808 492.035 67.3201 490.854Z" fill="white"/>
    <path d="M32.2555 488.713C35.2939 488.744 38.2342 489.801 40.6061 491.714C42.75 493.627 44.2021 496.204 44.7345 499.039H43.4679C42.9498 496.582 41.668 494.356 39.8086 492.683C37.6256 490.922 34.9116 489.963 32.1147 489.966L32.2555 488.713Z" fill="white"/>
    <path d="M81.9568 497.891H31.6041C31.2524 497.891 30.9673 498.21 30.9673 498.604V504.063C30.9673 504.456 31.2524 504.775 31.6041 504.775H81.9568C82.3085 504.775 82.5936 504.456 82.5936 504.063V498.604C82.5936 498.21 82.3085 497.891 81.9568 497.891Z" fill="white"/>
    <path d="M73.6099 486.447C74.0319 486.276 76.0975 486.851 78.785 489.382C79.904 490.49 80.7095 491.853 81.1253 493.342C81.5412 494.831 81.5537 496.397 81.1616 497.891H67.6797C68.4349 489.723 73.1879 486.617 73.6099 486.447Z" fill="white"/>
    <path d="M67.8652 485.974C67.7282 486.174 67.6629 486.43 67.6834 486.687C67.7039 486.944 67.8087 487.181 67.9749 487.347C68.0564 487.427 68.1505 487.487 68.2516 487.524C68.3527 487.561 68.459 487.574 68.5642 487.562C68.6695 487.55 68.7717 487.513 68.865 487.453C68.9584 487.394 69.041 487.313 69.1081 487.216L70.9359 484.579C71.0729 484.379 71.1383 484.123 71.1177 483.865C71.0972 483.608 70.9925 483.371 70.8263 483.206C70.7458 483.123 70.652 483.06 70.5505 483.021C70.4491 482.983 70.3421 482.969 70.2361 482.982C70.1302 482.994 70.0274 483.032 69.934 483.093C69.8407 483.154 69.7587 483.237 69.693 483.337L67.8652 485.974Z" fill="white"/>
    <path d="M65.5706 484.421C65.4334 484.67 65.3679 484.99 65.3885 485.311C65.4091 485.631 65.514 485.927 65.6805 486.134C65.7612 486.237 65.8552 486.316 65.9569 486.364C66.0585 486.412 66.1657 486.429 66.2719 486.413C66.3781 486.398 66.4811 486.351 66.5746 486.275C66.6682 486.199 66.7504 486.095 66.8161 485.971L68.6477 482.681C68.7805 482.429 68.8432 482.11 68.8227 481.792C68.8023 481.473 68.7003 481.178 68.5378 480.968C68.4571 480.864 68.3631 480.786 68.2615 480.738C68.1598 480.69 68.0526 480.673 67.9465 480.688C67.8403 480.703 67.7373 480.75 67.6437 480.827C67.5502 480.903 67.468 481.006 67.4022 481.131L65.5706 484.421Z" fill="white"/>
    <path d="M62.1941 481.794C62.0133 481.94 61.9243 482.129 61.9468 482.319C61.9692 482.51 62.1012 482.687 62.3137 482.811C62.5333 482.934 62.8148 482.992 63.097 482.974C63.3793 482.955 63.6396 482.862 63.8214 482.712L66.2146 480.728C66.3151 480.661 66.3951 480.581 66.4497 480.492C66.5042 480.404 66.5324 480.308 66.5324 480.212C66.5324 480.116 66.5042 480.02 66.4497 479.932C66.3951 479.843 66.3151 479.763 66.2146 479.696C65.9926 479.577 65.7126 479.521 65.4321 479.539C65.1516 479.557 64.8921 479.648 64.7069 479.794L62.1941 481.794Z" fill="white"/>
    <path d="M59.8315 479.765C59.7645 479.888 59.7142 480.03 59.6834 480.182C59.6526 480.335 59.642 480.495 59.6522 480.654C59.6623 480.813 59.693 480.967 59.7425 481.108C59.792 481.249 59.8593 481.374 59.9406 481.475C60.0936 481.702 60.2994 481.83 60.5136 481.83C60.7279 481.83 60.9336 481.702 61.0866 481.475L62.9056 478.109C63.0419 477.856 63.1069 477.532 63.0865 477.206C63.0661 476.881 62.9618 476.581 62.7965 476.371C62.7153 476.27 62.6217 476.193 62.521 476.147C62.4204 476.1 62.3147 476.084 62.2099 476.099C62.1052 476.115 62.0035 476.161 61.9106 476.236C61.8177 476.311 61.7355 476.413 61.6687 476.537L59.8315 479.765Z" fill="white"/>
    <path d="M103.774 468.09C106.42 467.903 109.043 468.681 111.146 470.278C113.249 471.875 114.685 474.178 115.182 476.751L127.336 489.074V496.744H88.3296C88.3296 496.744 90.2659 482.924 90.8491 479.814C91.4324 476.705 93.2987 468.09 103.774 468.09Z" fill="#FBBEAA"/>
    <path d="M114.19 476.978C114.641 476.366 115.257 475.895 115.732 476.178C116.206 476.46 128.161 485.878 128.706 486.349C129.252 486.819 129.631 487.408 129.631 488.938V499.039H86.0356C86.0356 499.039 87.7434 484.112 87.862 483.288C87.9806 482.464 88.8108 481.381 89.2851 481.404C92.2774 482.314 95.3829 482.806 98.5119 482.864C102.663 483.087 106.805 482.278 110.561 480.51C111.968 479.551 113.196 478.356 114.19 476.978Z" fill="#302D3B"/>
    <path d="M121.241 490.854C119.178 489.296 111.762 483.397 108.98 481.178L109.606 480.848C109.701 480.81 109.787 480.754 109.861 480.683C112.828 483.043 119.804 488.612 121.797 490.122C123.482 491.437 124.636 493.334 125.042 495.455L124.138 495.597C123.745 493.72 122.72 492.043 121.241 490.854Z" fill="white"/>
    <path d="M88.4575 488.713C91.2197 488.744 93.8927 489.801 96.049 491.714C97.998 493.627 99.3181 496.204 99.8021 499.039H98.6506C98.1738 496.579 97.0009 494.352 95.3026 492.683C93.328 490.918 90.8663 489.959 88.3296 489.966L88.4575 488.713Z" fill="white"/>
    <path d="M135.878 497.891H85.525C85.1733 497.891 84.8882 498.21 84.8882 498.604V504.063C84.8882 504.456 85.1733 504.775 85.525 504.775H135.878C136.229 504.775 136.515 504.456 136.515 504.063V498.604C136.515 498.21 136.229 497.891 135.878 497.891Z" fill="white"/>
    <path d="M128.024 486.447C128.482 486.276 130.719 486.851 133.631 489.382C134.843 490.49 135.716 491.853 136.166 493.342C136.617 494.831 136.63 496.397 136.205 497.891H121.6C122.418 489.723 127.567 486.617 128.024 486.447Z" fill="white"/>
    <path d="M122.995 485.974C122.812 486.174 122.725 486.43 122.752 486.687C122.779 486.944 122.919 487.181 123.141 487.347C123.25 487.427 123.376 487.487 123.511 487.524C123.646 487.561 123.788 487.574 123.929 487.562C124.07 487.55 124.206 487.513 124.331 487.453C124.455 487.394 124.566 487.313 124.656 487.216L127.098 484.579C127.275 484.377 127.358 484.122 127.331 483.866C127.304 483.611 127.168 483.374 126.951 483.206C126.844 483.123 126.718 483.06 126.583 483.021C126.447 482.983 126.304 482.969 126.163 482.982C126.021 482.994 125.884 483.032 125.759 483.093C125.634 483.154 125.525 483.237 125.437 483.337L122.995 485.974Z" fill="white"/>
    <path d="M120.639 484.418C120.502 484.667 120.436 484.988 120.457 485.309C120.477 485.63 120.582 485.926 120.749 486.133C120.83 486.237 120.924 486.315 121.025 486.364C121.127 486.412 121.234 486.429 121.34 486.413C121.446 486.398 121.549 486.351 121.643 486.275C121.737 486.198 121.819 486.095 121.884 485.97L123.716 482.675C123.849 482.422 123.912 482.103 123.891 481.784C123.871 481.465 123.769 481.17 123.606 480.959C123.438 480.755 123.223 480.658 123.007 480.688C122.791 480.719 122.591 480.875 122.452 481.122L120.639 484.418Z" fill="white"/>
    <path d="M117.336 481.796C117.234 481.862 117.152 481.94 117.096 482.028C117.04 482.115 117.011 482.209 117.011 482.303C117.011 482.398 117.04 482.492 117.096 482.579C117.152 482.667 117.234 482.745 117.336 482.811C117.562 482.934 117.852 482.992 118.142 482.974C118.433 482.955 118.701 482.862 118.888 482.713L121.35 480.732C121.535 480.581 121.623 480.389 121.595 480.196C121.568 480.003 121.426 479.825 121.203 479.7C121.093 479.64 120.966 479.595 120.83 479.567C120.693 479.539 120.55 479.53 120.409 479.539C120.267 479.548 120.129 479.576 120.003 479.62C119.877 479.665 119.766 479.725 119.676 479.798L117.336 481.796Z" fill="white"/>
    <path d="M114.961 479.765C114.872 479.888 114.804 480.03 114.763 480.182C114.722 480.335 114.708 480.495 114.722 480.654C114.735 480.813 114.776 480.967 114.842 481.108C114.908 481.249 114.998 481.374 115.106 481.475C115.31 481.702 115.585 481.83 115.87 481.83C116.156 481.83 116.43 481.702 116.634 481.475L119.06 478.109C119.241 477.856 119.328 477.532 119.301 477.206C119.274 476.881 119.135 476.581 118.914 476.371C118.806 476.27 118.681 476.193 118.547 476.147C118.413 476.1 118.272 476.084 118.132 476.099C117.992 476.115 117.857 476.161 117.733 476.236C117.609 476.311 117.5 476.413 117.41 476.537L114.961 479.765Z" fill="white"/>
    <path d="M38.0429 327.231C37.6536 330.26 37.8582 333.338 38.645 336.286C39.4318 339.234 40.7851 341.995 42.6266 344.407C44.4682 346.82 46.7614 348.836 49.3736 350.341C51.9858 351.846 54.8652 352.808 57.8452 353.173C60.8252 353.537 63.8467 353.297 66.7348 352.465C69.623 351.634 72.3204 350.227 74.6712 348.328C77.0219 346.428 78.9794 344.073 80.4302 341.399C81.881 338.724 82.7964 335.784 83.1235 332.747C83.1235 332.747 94.9425 248.25 97.7455 231.18C100.548 214.109 97.582 199.821 78.8023 195.755C59.3219 191.547 47.1524 206.073 45.6809 220.624C44.2093 235.174 38.0429 327.231 38.0429 327.231Z" fill="#013EA5"/>
    <path d="M75.995 328.856C75.9195 334.969 78.278 340.861 82.5518 345.237C86.8256 349.613 92.6645 352.113 98.7841 352.189C104.904 352.264 110.803 349.908 115.183 345.639C119.564 341.37 122.067 335.538 122.143 329.425C122.143 329.425 125.063 244.346 126.06 227.108C127.057 209.869 122.546 196.045 103.128 194.053C82.9979 191.99 72.2681 207.711 72.2681 222.318C72.2681 236.925 75.995 328.856 75.995 328.856Z" fill="#013EA5"/>
    <path d="M75.71 329.043C75.7481 326.019 76.3941 323.032 77.6112 320.253C78.8283 317.474 80.5926 314.957 82.8034 312.845C85.0142 310.733 87.6282 309.069 90.4961 307.946C93.364 306.823 96.4297 306.265 99.5181 306.302C102.606 306.339 105.657 306.972 108.496 308.164C111.335 309.355 113.906 311.083 116.063 313.247C118.219 315.411 119.92 317.971 121.066 320.778C122.213 323.586 122.784 326.588 122.745 329.611L117.906 451.44L79.9441 455.443L75.71 329.043Z" fill="#013EA5"/>
    <path d="M38.1227 327.581C38.9053 321.539 42.0168 316.053 46.7812 312.314C51.5457 308.575 57.5783 306.886 63.5688 307.613C69.5592 308.34 75.0236 311.425 78.775 316.198C82.5264 320.971 84.2619 327.046 83.6044 333.103L65.8595 454.296H28.6729L38.1227 327.581Z" fill="#013EA5"/>
    <path d="M82.5935 331.54L65.3848 453.149" stroke="#013EA5" stroke-width="0.75" stroke-miterlimit="10" stroke-linecap="round"/>
    <path d="M83.7407 332.687C83.7407 332.687 95.796 248.697 98.655 231.729" stroke="#F5F5F5" stroke-width="0.75" stroke-miterlimit="10" stroke-linecap="round"/>
    <path d="M123.894 204.195C123.894 204.195 123.894 228.134 123.894 229.45C123.894 230.766 112.385 242.054 97.1013 242.054C73.5997 242.054 45.4715 233.444 45.8859 227.834C46.1621 224.14 46.5074 204.195 46.5074 204.195H123.894Z" fill="#013EA5"/>
    <path d="M194.716 105.982L183.591 175.819C181.756 184.58 184.593 192.507 194.716 193.898C196.585 194.141 198.484 194.002 200.297 193.489C202.111 192.976 203.801 192.1 205.265 190.914C206.73 189.728 207.938 188.257 208.816 186.589C209.695 184.922 210.225 183.094 210.375 181.215L213.768 106.121C214.658 99.0286 211.571 94.3005 206.175 93.7164C199.556 92.9933 196.051 96.9149 194.716 105.982Z" fill="#FBBEAA"/>
    <path d="M203.757 168.087L123.879 107.4C114.562 101.448 108.22 104.619 103.27 110.988C101.009 114.071 99.9606 117.877 100.325 121.683C100.689 125.488 102.44 129.027 105.244 131.625L184.928 190.337C187.736 192.709 191.35 193.905 195.019 193.678C198.687 193.45 202.126 191.815 204.619 189.114L204.98 188.724C206.304 187.313 207.325 185.647 207.983 183.827C208.641 182.008 208.921 180.074 208.806 178.143C208.692 176.211 208.185 174.324 207.317 172.595C206.449 170.866 205.237 169.332 203.757 168.087Z" fill="#FBBEAA"/>
    <path d="M195.05 104.118C195.164 101.612 194.494 99.1321 193.131 97.0257C191.032 94.5928 189.461 91.7519 188.514 88.6819C187.786 85.8321 186.622 83.1115 185.065 80.6161C183.952 79.0864 182.284 77.8349 182.284 76.6668C182.284 75.4987 184.509 73.2458 187.679 73.8855C189.037 74.3086 190.285 75.0267 191.333 75.9883C192.382 76.9499 193.204 78.1313 193.743 79.4481C194.046 78.6458 194.225 77.8015 194.271 76.9449L194.966 59.8958C194.977 59.4538 195.076 59.0184 195.257 58.6153C195.439 58.2122 195.7 57.8497 196.024 57.5489C196.348 57.2482 196.729 57.0154 197.144 56.8644C197.56 56.7133 198.001 56.6471 198.443 56.6695C199.146 56.6995 199.822 56.949 200.375 57.3831C200.929 57.8171 201.333 58.4138 201.53 59.0892V58.3104C201.637 57.4816 202.054 56.724 202.696 56.1896C203.339 55.6552 204.159 55.3836 204.994 55.4294C205.828 55.4751 206.614 55.8349 207.195 56.4363C207.775 57.0378 208.106 57.8365 208.122 58.672V61.0361C208.4 60.3073 208.931 59.7028 209.618 59.3328C210.305 58.9628 211.102 58.8521 211.864 59.0206C212.626 59.1892 213.302 59.6258 213.769 60.251C214.236 60.8762 214.462 61.6484 214.407 62.4267V63.9286C214.707 63.4025 215.153 62.975 215.691 62.6984C216.23 62.4218 216.837 62.3081 217.439 62.3711C218.263 62.4757 219.015 62.8971 219.534 63.546C220.053 64.1949 220.299 65.0204 220.22 65.8476L218.857 80.2268C217.965 88.3336 216.288 96.3347 213.851 104.118C213.822 105.417 213.521 106.696 212.967 107.873C212.414 109.049 211.621 110.096 210.638 110.948C209.656 111.799 208.506 112.435 207.264 112.816C206.021 113.196 204.712 113.312 203.421 113.157C202.253 113.196 201.091 112.983 200.012 112.533C198.934 112.084 197.965 111.407 197.171 110.55C196.377 109.692 195.776 108.674 195.41 107.565C195.044 106.455 194.921 105.279 195.05 104.118Z" fill="#FBBEAA"/>
    <path d="M117.286 103.061L186.41 149.682C186.119 152.066 191.721 103.061 191.721 103.061L217.307 105.449C217.307 105.449 215.812 155.343 212.047 181.693C210.552 192.15 201.848 196.115 191.528 193.864C186.432 192.752 181.635 190.661 177.366 187.665C159.022 174.789 107.559 138.523 103.352 133.961C96.0927 126.09 96.0926 120.194 100.265 113.713C104.436 107.233 113.364 102.088 117.286 103.061Z" fill="#013EA5"/>
    <path d="M195.606 81.8681C194.549 81.8681 194.466 81.2006 193.993 79.9769C196.357 79.9769 203.227 80.4218 206.231 86.2069C203.199 82.035 197.386 81.8681 195.606 81.8681ZM201.002 59.8683C201.002 59.8683 200.835 60.8418 200.668 62.2602C200.668 62.9834 200.501 63.8455 200.446 64.7355C200.39 65.6255 200.307 66.5989 200.223 67.5168C200.223 69.4636 200.084 71.3827 200.084 72.829C200.084 74.2752 200.084 75.2487 200.084 75.2487C200.084 75.2949 200.093 75.3408 200.112 75.3832C200.13 75.4256 200.158 75.4637 200.192 75.4951C200.226 75.5265 200.266 75.5505 200.309 75.5655C200.353 75.5806 200.4 75.5863 200.446 75.5824C200.524 75.5785 200.599 75.5492 200.659 75.4991C200.719 75.4489 200.761 75.3806 200.779 75.3044C200.779 75.3044 200.946 74.3308 201.085 72.8846C201.224 71.4383 201.447 69.5193 201.53 67.6002C201.53 66.6268 201.53 65.6533 201.53 64.8189C201.53 63.9846 201.53 63.0668 201.53 62.3437C201.53 60.8696 201.53 59.9239 201.53 59.9239C201.531 59.8776 201.521 59.8319 201.503 59.7894C201.484 59.747 201.457 59.7089 201.423 59.6775C201.389 59.6461 201.349 59.6222 201.305 59.6071C201.261 59.5921 201.215 59.5863 201.169 59.5901C201.115 59.6208 201.072 59.6657 201.042 59.7197C201.013 59.7737 200.999 59.8347 201.002 59.8961V59.8683ZM207.454 61.8152C207.454 61.8152 207.288 62.6496 207.093 63.8733C207.093 64.513 206.898 65.2361 206.815 66.0149C206.731 66.7936 206.648 67.628 206.564 68.4624C206.564 70.1311 206.37 71.7999 206.342 73.0515C206.314 74.303 206.342 75.1652 206.342 75.1652C206.345 75.2091 206.358 75.2519 206.378 75.291C206.398 75.3302 206.425 75.365 206.459 75.3935C206.493 75.4219 206.532 75.4435 206.574 75.4568C206.615 75.4701 206.66 75.475 206.703 75.4712C206.778 75.466 206.849 75.4357 206.905 75.3852C206.96 75.3348 206.997 75.2671 207.009 75.1931C207.009 75.1931 207.176 74.3586 207.371 73.1349C207.566 71.9111 207.733 70.2146 207.872 68.5737C207.872 67.7393 207.872 66.9049 208.039 66.1261C208.205 65.3474 208.039 64.5964 208.039 63.9568C208.039 62.7052 208.039 61.8708 208.039 61.8708C208.039 61.8245 208.029 61.7788 208.011 61.7364C207.992 61.6939 207.965 61.6558 207.931 61.6244C207.897 61.593 207.857 61.5691 207.813 61.554C207.769 61.539 207.723 61.5332 207.677 61.5371C207.615 61.5625 207.562 61.6046 207.523 61.6586C207.483 61.7126 207.46 61.7764 207.454 61.843V61.8152ZM213.684 64.4574C213.684 64.4574 213.518 65.1527 213.295 66.2096C213.295 66.7102 213.073 67.3221 212.989 67.9896C212.906 68.6571 212.795 69.3524 212.683 70.0477C212.489 71.4662 212.405 72.829 212.349 73.9415C212.294 75.054 212.349 75.7215 212.349 75.7215C212.349 75.7678 212.359 75.8136 212.377 75.856C212.396 75.8984 212.423 75.9365 212.457 75.9679C212.491 75.9993 212.531 76.0233 212.575 76.0383C212.619 76.0533 212.665 76.0591 212.711 76.0553C212.782 76.0516 212.85 76.0253 212.905 75.9802C212.96 75.9352 212.999 75.8738 213.017 75.805C213.017 75.805 213.212 75.1097 213.406 74.0806C213.601 73.0515 213.879 71.6052 214.046 70.2146C214.046 69.4915 214.185 68.7962 214.241 68.1286C214.296 67.4611 214.241 66.8493 214.241 66.3208C214.241 65.264 214.241 64.5408 214.241 64.5408C214.241 64.4945 214.231 64.4488 214.213 64.4063C214.194 64.3639 214.167 64.3258 214.133 64.2944C214.099 64.263 214.059 64.2391 214.015 64.224C213.972 64.209 213.925 64.2032 213.879 64.2071C213.828 64.2357 213.784 64.2756 213.75 64.3238C213.716 64.3719 213.694 64.4271 213.684 64.4852V64.4574Z" fill="#F18380"/>
    <path d="M186.951 144.044L188.252 133.637L216.006 135.805L215.573 146.212L186.951 144.044Z" fill="#CFD1CE"/>
    <path d="M106.254 96.5152C106.254 96.5152 123.047 106.212 125.668 107.909C128.289 109.606 131.249 112.224 130.715 119.302C130.181 126.381 127.925 221.666 127.925 221.666C119.306 223.125 94.0662 223.125 94.0662 223.125H91.7717H90.0508H87.7563H86.0354H84.3146C84.3146 223.125 46.8965 219.945 46.1442 219.508C45.392 219.072 44.6882 218.611 44.7367 217.787C44.7853 216.963 45.2706 120.102 45.5861 115.836C45.6486 113.551 46.3683 111.332 47.6593 109.445C48.9503 107.558 50.758 106.082 52.8663 105.194C57.9381 102.939 76.9878 95.2062 76.9878 95.2062L92.9876 96.5152H106.254Z" fill="#034CC9"/>
    <path d="M106.254 96.5152C106.254 96.5152 123.047 106.212 125.668 107.909C128.289 109.606 131.249 112.224 130.715 119.302C130.181 126.381 127.924 221.666 127.924 221.666C119.306 223.125 105.539 223.125 105.539 223.125H103.244H101.523H99.2288H97.5079H95.7871C95.7871 223.125 98.5228 219.945 97.7706 219.508C97.0183 219.072 96.3145 218.611 96.3631 217.787C96.4116 216.963 96.897 120.102 97.2124 115.836C97.2749 113.551 97.9946 111.332 99.2856 109.445C100.577 107.558 102.384 106.082 104.493 105.194C109.564 102.939 76.9878 95.2062 76.9878 95.2062L92.9876 96.5152H106.254Z" fill="#0045BA"/>
    <path d="M108.16 96.6549C108.16 96.6549 126.725 107.387 129.623 109.265C132.52 111.143 130.205 115.283 130.205 122.74C130.205 132.492 128.484 133.065 128.484 133.065C122.678 136.198 120.139 133.755 113.74 135.361C110.628 135.71 108.213 135.79 106.121 133.751C104.028 131.712 97.5081 132.492 97.5081 132.492C97.5081 132.492 87.6891 131.202 83.1013 133.751C82.004 134.516 80.764 135.053 79.4551 135.33C78.1462 135.606 77.117 135.586 75.8039 135.33C69.1503 133.961 42.5359 126.319 41.7042 125.837C40.8725 125.354 40.0945 124.844 40.1481 123.932C40.2018 123.019 40.7384 122.76 41.0872 118.038C41.1562 115.509 41.9519 113.053 43.3792 110.965C44.8065 108.876 46.805 107.243 49.1359 106.26C54.7431 103.765 75.8039 95.2062 75.8039 95.2062L93.4927 95.7798L108.16 96.6549Z" fill="#9A99A1"/>
    <path d="M95.018 92.621C87.0388 92.621 79.8402 89.1517 77.2383 87.4171V95.2229C77.5274 95.6565 79.7535 97.0442 86.345 99.1257C92.9365 101.207 102.39 100.427 106.293 99.1257V91.32C106.293 91.7537 104.992 92.621 95.018 92.621Z" fill="#034CC9"/>
    <path d="M95.4512 222.716C97.6672 221.973 99.6066 220.54 101.004 218.615C102.401 216.689 103.188 214.365 103.257 211.96V93.0545H95.4512V222.716Z" fill="#034CC9"/>
    <path d="M130.204 135.986H90.8623V127.313L130.204 127.329C130.204 131.345 130.204 132.492 130.204 135.986Z" fill="#D3D4D2"/>
    <path d="M59.056 127.313H98.6678V135.986H58.2438C58.772 132.083 59.056 130.349 59.056 127.313Z" fill="#CFD1CE"/>
    <g style="mix-blend-mode:multiply" opacity="0.4">
        <path d="M94.584 100.249L95.4513 100.427V222.716H94.584V100.249Z" fill="#013FA9"/>
    </g>
    <g filter="url(#filter0_d_21_295)">
        <rect x="68.2529" y="140.67" width="49.4484" height="70.4639" rx="1" transform="rotate(-6.55484 68.2529 140.67)" fill="#EFEFEF"/>
    </g>
    <path d="M90.1868 171.595C93.3135 170.274 96.1408 168.317 98.489 165.846C99.9424 164.321 101.591 162.997 103.39 161.91C104.445 161.25 105.356 160.38 106.065 159.353C107.001 157.761 107.776 156.079 108.378 154.334C108.601 152.831 109.112 151.383 109.883 150.071C110.616 149.399 113.203 149.758 114.545 152.368C115.008 153.531 115.218 154.782 115.161 156.039C115.103 157.295 114.78 158.528 114.212 159.655C113.544 161.007 113.021 162.425 112.651 163.885L112.895 164.031C114.941 162.945 117.127 162.157 119.387 161.691C120.207 161.508 121.061 161.607 121.812 161.973C122.562 162.338 123.165 162.949 123.524 163.706C123.884 164.463 123.977 165.323 123.791 166.147C123.604 166.972 123.148 167.712 122.496 168.249C126.023 168.654 125.623 174.094 122.595 174.813C123.243 175.085 123.79 175.552 124.163 176.151C124.535 176.75 124.714 177.451 124.676 178.16C124.638 178.87 124.385 179.553 123.95 180.118C123.515 180.682 122.92 181.101 122.246 181.317C124.397 183.3 122.825 186.568 118.919 186.582C115.746 186.905 107.261 188.233 104.308 188.868C101.356 189.504 95.4218 188.098 93.5156 188.688C90.6781 189.728 87.3824 189.745 84.8686 182.278C82.3548 174.812 87.2669 172.56 90.1868 171.595Z" fill="#FBBEAA"/>
    <path d="M42.6013 111.018C36.5302 118.824 7.27881 200.863 7.27881 200.863C39.8026 190.455 23.6379 186.466 41.3267 189.442C41.3267 189.442 68.9629 130.792 69.7417 126.509C70.5545 123.132 70.1897 119.579 68.7077 116.438C67.2257 113.298 64.7155 110.757 61.5926 109.237C52.8872 104.787 48.6724 103.212 42.6013 111.018Z" fill="#0045BA"/>
    <path d="M94.1578 194.208L31.6572 219.371C23.6701 223.387 10.6935 221.327 6.78158 211.985C6.06529 210.244 5.71029 208.374 5.73809 206.491C5.76589 204.608 6.17588 202.75 6.94328 201.03C7.71067 199.31 8.81945 197.764 10.2023 196.486C11.5852 195.207 13.2134 194.223 14.9881 193.592L88.8542 166.877L94.1578 194.208Z" fill="#0045BA"/>
    <path d="M43.935 182.807L54.636 179.597L58.647 208.175L48.7373 213.283L43.935 182.807Z" fill="#CFD1CE"/>
    <defs>
        <filter id="filter0_d_21_295" x="68.3604" y="135.133" width="58.9539" height="75.433" filterUnits="userSpaceOnUse" color-interpolation-filters="sRGB">
            <feFlood flood-opacity="0" result="BackgroundImageFix"/>
            <feColorMatrix in="SourceAlpha" type="matrix" values="0 0 0 0 0 0 0 0 0 0 0 0 0 0 0 0 0 0 127 0" result="hardAlpha"/>
            <feOffset dx="2"/>
            <feComposite in2="hardAlpha" operator="out"/>
            <feColorMatrix type="matrix" values="0 0 0 0 0.603922 0 0 0 0 0.6 0 0 0 0 0.631373 0 0 0 1 0"/>
            <feBlend mode="normal" in2="BackgroundImageFix" result="effect1_dropShadow_21_295"/>
            <feBlend mode="normal" in="SourceGraphic" in2="effect1_dropShadow_21_295" result="shape"/>
        </filter>
    </defs>
</svg>
