<svg width="248" height="547" viewBox="0 0 248 547" fill="none" xmlns="http://www.w3.org/2000/svg">
<path d="M136.548 76.2346C137.153 76.2346 138.438 76.2346 139.572 76.6126C139.572 77.5198 137.556 78.2505 136.548 78.5025C136.296 77.7466 135.943 76.2346 136.548 76.2346Z" fill="#013FA9"/>
<path d="M117.296 19.6658C118.379 15.7603 117.981 11.5924 116.178 7.96264C114.375 4.33284 111.295 1.49707 107.529 0C106.032 1.4966 106.794 6.2752 106.794 6.2752C101.506 3.79708 95.575 3.03509 89.8323 4.09595C89.9363 7.76762 91.3201 11.2875 93.7444 14.047C90.8063 14.3432 87.9806 15.3331 85.5 16.9352C85.8762 18.6657 86.6579 20.2822 87.7808 21.6516C88.9037 23.021 90.3357 24.1041 91.959 24.812C90.3061 26.7471 89.1682 29.068 88.6507 31.5598C91.4711 32.3732 94.4508 32.4635 97.3152 31.8224C96.8528 33.2714 96.6658 34.7943 96.7639 36.3122C99.4839 36.7115 102.868 33.7941 105.5 33C108.132 32.2059 110.955 29.8371 113 28C115.713 24.4686 116.525 24.0515 117.296 19.6658Z" fill="#E69D7E"/>
<path d="M103 31.5C102.58 38.3003 96.3699 50.9634 97.4989 59.6017C99.0743 71.7845 114.145 71.6532 119.974 71.6532H128.612V33.8445L103 31.5Z" fill="#E69D7E"/>
<path d="M114.303 57.6583V79.9497C114.303 79.9497 116.062 87.6165 127.825 87.6165C130.165 87.8139 132.492 87.1076 134.328 85.6427C136.164 84.1778 137.37 82.0655 137.697 79.7397V57.6845L114.303 57.6583Z" fill="#FBBEAA"/>
<path d="M137.697 76.2213C130.319 79.7397 119.528 76.5889 114.303 66.9267V57.6583H137.697V76.2213Z" fill="#F18380"/>
<path d="M152.348 40.539C152.444 45.8705 152.199 51.2027 151.613 56.5027C150.668 64.0907 147.963 72.4927 134.573 72.4927C121.182 72.4927 114.329 66.4275 111.467 56.5027C109.734 50.5163 106.216 41.6418 107.66 31.4019C109.104 21.162 115.274 14.4667 129.82 14.0729C144.366 13.679 153.845 20.2168 152.348 40.539Z" fill="#FBBEAA"/>
<path d="M123.965 45.1078C124.054 45.5034 124.253 45.8659 124.539 46.1535C124.825 46.441 125.187 46.6419 125.582 46.7331C125.977 46.8242 126.39 46.8019 126.773 46.6687C127.156 46.5355 127.494 46.2968 127.747 45.9801C128 45.6635 128.159 45.2817 128.205 44.8787C128.251 44.4758 128.182 44.0681 128.006 43.7025C127.831 43.337 127.555 43.0285 127.212 42.8126C126.869 42.5967 126.471 42.4822 126.066 42.4822C125.755 42.5148 125.453 42.6089 125.179 42.7589C124.904 42.9089 124.662 43.1119 124.467 43.3562C124.272 43.6004 124.127 43.881 124.041 44.1817C123.954 44.4824 123.929 44.7971 123.965 45.1078Z" fill="#403D4F"/>
<path d="M143.473 45.1078C143.562 45.5034 143.761 45.8659 144.047 46.1535C144.333 46.441 144.695 46.6419 145.09 46.7331C145.485 46.8242 145.898 46.8019 146.281 46.6687C146.664 46.5355 147.002 46.2968 147.255 45.9801C147.508 45.6635 147.667 45.2817 147.713 44.8787C147.759 44.4758 147.69 44.0681 147.514 43.7025C147.339 43.337 147.063 43.0285 146.72 42.8126C146.377 42.5967 145.979 42.4822 145.574 42.4822C145.263 42.5148 144.961 42.6089 144.687 42.7589C144.412 42.9089 144.17 43.1119 143.975 43.3562C143.78 43.6004 143.635 43.881 143.549 44.1817C143.463 44.4824 143.437 44.7971 143.473 45.1078Z" fill="#403D4F"/>
<path d="M130.319 37.6774C130.319 37.6774 130.319 37.6774 130.083 37.4411C129.873 37.2523 129.644 37.0852 129.4 36.9423C129.075 36.7419 128.721 36.5915 128.35 36.4959C127.937 36.3431 127.503 36.2546 127.064 36.2334C126.636 36.1806 126.204 36.1806 125.777 36.2334C125.415 36.2447 125.055 36.2887 124.701 36.3646L123.677 36.6534C123.507 36.7079 123.366 36.8261 123.283 36.983C123.2 37.1399 123.181 37.323 123.23 37.4936C123.27 37.63 123.353 37.7498 123.467 37.835C123.58 37.9202 123.718 37.9663 123.86 37.9663H124.884C125.189 37.927 125.498 37.927 125.803 37.9663C126.153 37.9402 126.504 37.9402 126.854 37.9663C127.195 37.9663 127.536 37.9663 127.851 38.15C128.166 38.3338 128.429 38.3601 128.691 38.3864L129.243 38.5701H129.479C129.643 38.6414 129.828 38.6456 129.995 38.5818C130.162 38.5179 130.297 38.3912 130.372 38.2288C130.418 38.1395 130.442 38.0405 130.442 37.94C130.442 37.8395 130.418 37.7405 130.372 37.6512L130.319 37.6774Z" fill="#403D4F"/>
<path d="M143.08 38.6751H143.237L143.657 38.5175H143.946H144.235C144.467 38.4409 144.704 38.3795 144.944 38.3338C145.187 38.295 145.435 38.295 145.679 38.3338C145.905 38.2945 146.136 38.2945 146.362 38.3338H147.202C147.378 38.327 147.545 38.2521 147.668 38.1248C147.79 37.9975 147.858 37.8277 147.858 37.6511C147.853 37.5208 147.811 37.3947 147.736 37.2877C147.662 37.1807 147.559 37.0973 147.438 37.0472L146.624 36.7584C146.327 36.6613 146.018 36.6083 145.705 36.6009C145.357 36.5487 145.003 36.5487 144.655 36.6009C143.965 36.67 143.31 36.9341 142.765 37.3623C142.567 37.4937 142.397 37.6633 142.266 37.8611C142.134 38.0187 142.134 38.0712 142.108 38.0712V38.3338C142.094 38.4574 142.113 38.5827 142.165 38.696C142.216 38.8093 142.298 38.9064 142.401 38.9767C142.503 39.047 142.623 39.0878 142.748 39.0948C142.872 39.1018 142.996 39.0747 143.106 39.0164L143.08 38.6751Z" fill="#403D4F"/>
<path d="M137.697 54.0349C138.138 54.0451 138.575 53.9587 138.979 53.7818C139.383 53.6049 139.743 53.3417 140.034 53.0109C140.148 52.898 140.237 52.7627 140.296 52.6136C140.355 52.4644 140.382 52.3046 140.375 52.1444C140.375 51.8556 139.903 48.2323 139.745 46.8932C139.745 46.7609 139.693 46.634 139.599 46.5404C139.506 46.4469 139.379 46.3943 139.246 46.3943C139.114 46.3943 138.987 46.4469 138.894 46.5404C138.8 46.634 138.748 46.7609 138.748 46.8932C138.748 47.1032 139.299 51.8556 139.378 52.1444C139.16 52.3784 138.895 52.5646 138.601 52.6911C138.308 52.8177 137.991 52.8818 137.671 52.8796C137.539 52.8796 137.412 52.9321 137.318 53.0257C137.225 53.1192 137.172 53.2461 137.172 53.3784C137.172 53.5108 137.225 53.6376 137.318 53.7312C137.412 53.8248 137.539 53.8773 137.671 53.8773L137.697 54.0349Z" fill="#F18380"/>
<path d="M140.165 59.2073C141.163 59.4699 141.504 60.9402 140.927 62.6469C140.323 63.8209 139.343 64.7588 138.144 65.3108C136.944 65.8628 135.595 65.9973 134.31 65.6926C133.613 65.656 132.931 65.4808 132.302 65.1772C131.673 64.8737 131.112 64.4479 130.65 63.9247C130.188 63.4016 129.835 62.7916 129.611 62.1303C129.388 61.4691 129.298 60.77 129.348 60.0738C129.348 58.9448 130.109 58.2621 131.58 58.2621C134.463 58.3376 137.335 58.6538 140.165 59.2073Z" fill="#73102A"/>
<path d="M129.295 60.0737C129.295 60.0737 129.295 59.9161 129.295 59.8111C131.221 59.3596 133.246 59.6491 134.968 60.622C136.69 61.5949 137.983 63.18 138.59 65.0623C137.231 65.728 135.702 65.966 134.205 65.745C133.508 65.7019 132.826 65.5202 132.2 65.2104C131.574 64.9006 131.016 64.469 130.558 63.9408C130.101 63.4127 129.754 62.7986 129.537 62.1346C129.32 61.4706 129.238 60.7699 129.295 60.0737Z" fill="#D65155"/>
<path d="M139.273 60.8092C135.956 60.8364 132.656 60.322 129.505 59.2863C129.699 58.9308 129.996 58.6424 130.357 58.4595C130.718 58.2766 131.126 58.2078 131.527 58.2623C134.41 58.3379 137.282 58.654 140.113 59.2076C140.387 59.2999 140.628 59.4713 140.806 59.7001C140.983 59.929 141.089 60.2052 141.11 60.4941C140.521 60.708 139.899 60.8147 139.273 60.8092Z" fill="white"/>
<path d="M126.381 28.1464C126.381 28.1464 121.733 44.2151 110.627 48.4423C109.337 48.4583 108.063 48.1637 106.911 47.5833C105.76 47.0029 104.765 46.1538 104.01 45.1078C101.06 38.9034 104.083 31.7223 105.5 25C107.364 16.8081 113.358 6.43258 131.317 8.90065C140.9 7.06272 145.206 10.3115 152.348 20C159.49 29.6885 158.098 41.537 152.348 43.7687C146.692 40.3636 141.271 36.583 136.122 32.4524C136.909 34.9204 137.75 40.1454 136.909 40.1454C132.056 37.5611 128.312 33.2946 126.381 28.1464Z" fill="#E69D7E"/>
<path d="M111.992 50.3854C111.782 46.8145 110.811 42.5085 106.478 43.27C101.227 44.0314 100.86 57.8158 111.73 56.1617L111.992 50.3854Z" fill="#FBBEAA"/>
<path d="M106.032 51.3046C106.122 51.3007 106.21 51.2747 106.288 51.2289C106.366 51.1832 106.431 51.119 106.478 51.042C106.587 50.8098 106.757 50.6114 106.97 50.4681C107.183 50.3248 107.43 50.2418 107.686 50.2281C107.986 50.2311 108.281 50.3097 108.542 50.4565C108.804 50.6034 109.024 50.8138 109.183 51.0683C109.242 51.1627 109.331 51.2347 109.435 51.2728C109.54 51.3109 109.655 51.3128 109.76 51.2783C109.861 51.2347 109.946 51.1606 110.002 51.0664C110.059 50.9722 110.085 50.8627 110.076 50.7532C110.042 49.646 109.702 48.5697 109.095 47.6431C108.489 46.7164 107.637 45.9755 106.636 45.502C106.573 45.4772 106.506 45.4655 106.438 45.4677C106.37 45.4698 106.304 45.4857 106.242 45.5143C106.181 45.543 106.126 45.5839 106.081 45.6345C106.036 45.6851 106.002 45.7443 105.98 45.8085C105.959 45.8728 105.951 45.9407 105.956 46.0082C105.962 46.0757 105.981 46.1413 106.013 46.201C106.045 46.2608 106.089 46.3134 106.142 46.3558C106.195 46.3981 106.256 46.4292 106.321 46.4472C106.907 46.7355 107.428 47.1404 107.853 47.637C108.277 48.1336 108.596 48.7115 108.789 49.3354C108.424 49.1794 108.031 49.099 107.634 49.0991C107.209 49.1392 106.801 49.2821 106.444 49.5154C106.087 49.7487 105.793 50.0654 105.586 50.4381C105.553 50.495 105.531 50.5578 105.523 50.6229C105.514 50.688 105.519 50.7542 105.536 50.8176C105.553 50.881 105.582 50.9405 105.622 50.9925C105.663 51.0445 105.713 51.0881 105.77 51.1208C105.834 51.2092 105.927 51.2738 106.032 51.3046Z" fill="#F18380"/>
<path d="M123.406 32.8654C122.256 36.3134 120.466 39.5129 118.129 42.2954H112.409C112.409 42.2954 107.974 37.1477 107.642 36.7262C107.161 36.2134 106.795 35.6035 106.57 34.9376C106.344 34.2716 106.263 33.5651 106.333 32.8654H123.406Z" fill="#676575"/>
<path d="M118.129 42.2955C118.129 53.3897 114.464 69.1641 131.7 72.5001C131.7 72.5001 120.657 71.917 116.422 66.4809C112.187 61.0447 112.409 42.2068 112.409 42.2068L118.129 42.2955Z" fill="#827F94"/>
<path d="M102.232 34.2855H158.194C158.62 29.2264 158.14 24.1318 156.775 19.2418C154.558 12.8959 150.123 5.13 131.565 5.13C113.007 5.13 106.511 13.8278 105.203 20.4178C103.895 27.0077 104.516 29.16 103.739 29.8701C102.963 30.5801 102.232 30.6023 102.232 31.6673V34.2855Z" fill="#EFEFEF"/>
<path d="M131.565 5.13012C135.612 5.05656 139.65 5.54948 143.56 6.59456H143.738L144.425 6.81644C146.298 7.39374 148.082 8.2302 149.724 9.30154C150.839 13.9029 151.132 18.6655 150.589 23.369H144.425L136.221 21.9711C136.221 21.9711 133.627 8.65807 124.404 5.5517C126.778 5.2399 129.171 5.09901 131.565 5.13012Z" fill="#D8D8D8"/>
<path d="M130.279 3H142.806C144.137 3 150.589 8.01457 150.589 25.1884H136.332C136.332 20.1294 135.445 6.88297 127.463 5.21884C127.485 5.26321 128.683 3 130.279 3Z" fill="#EFEFEF"/>
<path d="M167.129 34.2855V31.0459C167.128 30.5816 167.03 30.1226 166.843 29.6976C166.656 29.2727 166.383 28.891 166.042 28.5765C165.701 28.262 165.298 28.0214 164.859 27.8698C164.421 27.7182 163.956 27.6588 163.493 27.6955H156.332C155.92 27.7147 155.509 27.6454 155.127 27.4923C154.744 27.3392 154.399 27.1059 154.114 26.808C153.649 26.2754 150.478 23.3022 150.101 22.8584C149.842 22.5196 149.506 22.2479 149.12 22.0664C148.734 21.885 148.31 21.7989 147.884 21.8156H137.463C137.038 21.8026 136.615 21.8902 136.23 22.0714C135.844 22.2526 135.507 22.5223 135.246 22.8584C134.869 23.3022 131.698 26.2754 131.233 26.808C130.949 27.107 130.604 27.3412 130.221 27.4944C129.838 27.6476 129.427 27.7162 129.016 27.6955H123.051C122.589 27.6588 122.124 27.7182 121.685 27.8698C121.246 28.0214 120.844 28.262 120.502 28.5765C120.161 28.891 119.888 29.2727 119.701 29.6976C119.514 30.1226 119.417 30.5816 119.415 31.0459V34.2855H167.129Z" fill="#D8D8D8"/>
<g opacity="0.3" filter="url(#filter0_f_110_7)">
<ellipse cx="106.5" cy="14.5" rx="106.5" ry="14.5" transform="matrix(1 0 0 -1 17.5 530)" fill="#CBCBCB"/>
</g>
<path d="M83.0446 223.601C83.5779 216.886 90.778 191.14 98.5115 176.473C98.5115 176.473 115.382 178.604 126.247 178.64C137.582 178.676 155.191 176.473 155.191 176.473C160.234 187.891 165.979 212.837 167.652 218.219C168.662 221.386 168.785 224.768 168.007 227.999C167.229 231.231 165.58 234.187 163.24 236.547C157.494 243.068 142.682 250.535 139.264 250.535C124.557 248.434 110.143 244.643 96.3054 239.238C88.4992 235.965 82.5355 230.341 83.0446 223.601Z" fill="#013EA5"/>
<path d="M216.937 83.7679C217.037 81.5833 216.452 79.4221 215.264 77.586C213.436 75.4654 212.065 72.9891 211.24 70.3131C210.605 67.8291 209.591 65.4577 208.234 63.2826C207.264 61.9493 205.81 60.8584 205.81 59.8402C205.81 58.822 207.749 56.8583 210.513 57.4159C211.697 57.7847 212.784 58.4106 213.698 59.2488C214.612 60.087 215.329 61.1168 215.798 62.2645C216.063 61.5652 216.218 60.8293 216.258 60.0826L216.864 45.2218C216.874 44.8365 216.96 44.457 217.118 44.1057C217.277 43.7543 217.504 43.4383 217.786 43.1761C218.069 42.914 218.401 42.7111 218.763 42.5795C219.125 42.4478 219.51 42.3901 219.895 42.4096C220.507 42.4357 221.097 42.6533 221.579 43.0316C222.062 43.4099 222.414 43.93 222.586 44.5187V43.8399C222.679 43.1175 223.042 42.4571 223.602 41.9913C224.162 41.5255 224.878 41.2887 225.605 41.3286C226.332 41.3685 227.018 41.6821 227.523 42.2064C228.029 42.7306 228.318 43.4268 228.331 44.1551V46.2157C228.574 45.5804 229.037 45.0535 229.636 44.731C230.235 44.4086 230.929 44.312 231.594 44.4589C232.258 44.6058 232.847 44.9864 233.254 45.5314C233.661 46.0764 233.858 46.7495 233.81 47.4279V48.7369C234.071 48.2784 234.46 47.9058 234.929 47.6647C235.399 47.4236 235.928 47.3244 236.453 47.3793C237.171 47.4706 237.826 47.8379 238.279 48.4035C238.731 48.9691 238.946 49.6886 238.877 50.4097L237.689 62.9433C236.911 70.0095 235.449 76.9837 233.325 83.7679C233.3 84.9006 233.037 86.0154 232.555 87.0407C232.073 88.0659 231.381 88.979 230.525 89.721C229.669 90.4631 228.667 91.0177 227.583 91.3494C226.5 91.681 225.359 91.7824 224.234 91.6468C223.216 91.6808 222.203 91.4954 221.263 91.1033C220.323 90.7112 219.478 90.1215 218.786 89.3742C218.094 88.6269 217.571 87.7395 217.252 86.7722C216.933 85.8049 216.825 84.7803 216.937 83.7679Z" fill="#FBBEAA"/>
<path d="M135.239 479.411C135.239 477.077 136.166 474.839 137.817 473.188C139.467 471.538 141.705 470.611 144.039 470.611C146.373 470.611 148.612 471.538 150.262 473.188C151.912 474.839 152.839 477.077 152.839 479.411V498.539H135.239V479.411Z" fill="#FBBEAA"/>
<path d="M152.21 482.975C154.367 482.975 154.755 483.92 155.386 485.157C156.408 488.452 158.156 491.475 160.501 494.005C164.002 496.987 167.758 499.656 171.725 501.981V512.115H132.549C132.549 512.115 132.816 504.115 133.009 498.466C133.203 492.818 133.761 485.933 133.713 485.205C133.664 484.478 133.712 482.975 135.046 482.975H152.21Z" fill="#302D3B"/>
<path d="M137.421 499.023C137.416 500.267 137.781 501.485 138.469 502.521C139.157 503.557 140.137 504.366 141.286 504.844C142.434 505.322 143.698 505.448 144.919 505.207C146.139 504.965 147.26 504.367 148.139 503.487C149.019 502.608 149.617 501.487 149.859 500.267C150.1 499.046 149.974 497.782 149.496 496.634C149.018 495.485 148.209 494.505 147.173 493.817C146.137 493.129 144.919 492.764 143.675 492.769C142.019 492.775 140.431 493.436 139.26 494.608C138.088 495.779 137.427 497.366 137.421 499.023Z" fill="#0447BA"/>
<path d="M143.676 495.339L142.245 497.448L139.797 498.151L141.348 500.163L141.276 502.708L143.676 501.836L146.076 502.708L145.979 500.163L147.555 498.151L145.106 497.448L143.676 495.339Z" fill="white"/>
<path d="M171.458 501.812C171.458 501.812 177.01 504.745 179.095 506.176C180.06 506.829 180.844 507.717 181.374 508.756C181.904 509.794 182.162 510.95 182.125 512.115H166.9C166.9 512.115 167.216 504.672 171.458 501.812Z" fill="white"/>
<path d="M132.549 512.115V516.309C132.549 517.012 133.179 517.4 134.246 517.4H180.453C181.495 517.4 182.125 517.012 182.125 516.309V512.115H132.549Z" fill="white"/>
<path d="M166.9 498.975C167.035 498.769 167.244 498.623 167.484 498.569C167.724 498.515 167.975 498.556 168.185 498.684C168.29 498.748 168.38 498.833 168.452 498.933C168.523 499.033 168.574 499.146 168.601 499.265C168.628 499.385 168.631 499.509 168.61 499.63C168.588 499.751 168.543 499.866 168.476 499.969L166.852 502.587C166.774 502.723 166.66 502.835 166.524 502.912C166.387 502.989 166.233 503.027 166.076 503.024C165.897 503.021 165.721 502.971 165.567 502.878C165.463 502.814 165.372 502.729 165.301 502.63C165.229 502.53 165.178 502.417 165.151 502.297C165.124 502.177 165.121 502.053 165.143 501.933C165.164 501.812 165.209 501.696 165.276 501.593L166.9 498.975Z" fill="white"/>
<path d="M164.04 496.963C164.12 496.87 164.217 496.795 164.325 496.74C164.434 496.685 164.553 496.652 164.674 496.643C164.796 496.634 164.918 496.649 165.034 496.687C165.15 496.726 165.257 496.786 165.349 496.866C165.441 496.945 165.517 497.042 165.572 497.151C165.627 497.26 165.66 497.379 165.669 497.5C165.678 497.622 165.663 497.744 165.625 497.86C165.586 497.975 165.526 498.083 165.446 498.175L163.555 500.405C163.468 500.507 163.36 500.59 163.239 500.649C163.118 500.707 162.986 500.74 162.852 500.745C162.676 500.741 162.505 500.689 162.358 500.594C162.21 500.499 162.092 500.364 162.016 500.206C161.941 500.047 161.911 499.871 161.93 499.696C161.949 499.522 162.017 499.356 162.125 499.217L164.04 496.963Z" fill="white"/>
<path d="M161.349 494.709C161.542 494.584 161.774 494.534 162.001 494.568C162.228 494.602 162.435 494.717 162.583 494.892C162.731 495.067 162.811 495.29 162.807 495.519C162.803 495.749 162.716 495.969 162.562 496.139L160.404 498.006C160.235 498.149 160.02 498.226 159.798 498.224C159.664 498.229 159.532 498.203 159.41 498.148C159.288 498.093 159.18 498.011 159.095 497.909C159.005 497.825 158.934 497.723 158.885 497.611C158.836 497.498 158.811 497.377 158.811 497.254C158.811 497.131 158.836 497.01 158.885 496.897C158.934 496.785 159.005 496.683 159.095 496.6L161.349 494.709Z" fill="white"/>
<path d="M156.621 493.593L159.046 492.09C159.258 491.964 159.512 491.927 159.752 491.986C159.992 492.045 160.2 492.195 160.33 492.405C160.396 492.51 160.44 492.626 160.46 492.748C160.479 492.87 160.474 492.995 160.445 493.114C160.415 493.234 160.362 493.347 160.289 493.446C160.215 493.545 160.122 493.628 160.015 493.69L157.591 495.193C157.447 495.289 157.279 495.339 157.106 495.339C156.948 495.335 156.794 495.291 156.658 495.21C156.522 495.129 156.409 495.015 156.33 494.878C156.202 494.668 156.161 494.417 156.215 494.177C156.27 493.937 156.415 493.727 156.621 493.593Z" fill="white"/>
<path d="M154.585 490.466L157.3 489.327C157.532 489.23 157.792 489.23 158.024 489.325C158.256 489.421 158.44 489.605 158.537 489.836C158.584 489.949 158.608 490.07 158.608 490.192C158.608 490.315 158.584 490.436 158.536 490.549C158.489 490.662 158.419 490.764 158.332 490.85C158.245 490.935 158.141 491.003 158.027 491.048L155.312 492.188H154.949C154.739 492.176 154.54 492.096 154.381 491.959C154.223 491.822 154.114 491.637 154.073 491.431C154.031 491.226 154.059 491.013 154.152 490.825C154.244 490.637 154.397 490.485 154.585 490.394V490.466Z" fill="white"/>
<path d="M152.888 486.975L155.894 486.223C156.132 486.165 156.383 486.204 156.592 486.332C156.802 486.459 156.952 486.664 157.009 486.902C157.067 487.14 157.028 487.391 156.901 487.6C156.774 487.809 156.569 487.959 156.331 488.017L153.349 488.793H153.131C152.922 488.791 152.719 488.721 152.553 488.594C152.387 488.468 152.267 488.291 152.209 488.09C152.157 487.852 152.199 487.604 152.325 487.396C152.452 487.189 152.653 487.038 152.888 486.975Z" fill="white"/>
<path d="M122.366 357.082C122.633 345.348 130.536 339.676 142.245 339.967C153.954 340.257 162.391 346.391 162.124 358.1L152.839 480.357H135.239L122.366 357.082Z" fill="#FBBEAA"/>
<path d="M120.84 357.009C120.905 354.223 121.519 351.478 122.645 348.929C123.771 346.38 125.388 344.078 127.404 342.155C129.42 340.231 131.795 338.723 134.394 337.718C136.993 336.712 139.764 336.228 142.549 336.293C145.335 336.359 148.081 336.972 150.629 338.098C153.178 339.224 155.48 340.842 157.403 342.858C159.327 344.874 160.835 347.249 161.84 349.847C162.846 352.446 163.33 355.217 163.265 358.003L166.178 484.465H118.25L120.84 357.009Z" fill="#013EA5"/>
<path d="M61.0562 479.411C61.0562 477.077 61.9833 474.839 63.6337 473.188C65.284 471.538 67.5224 470.611 69.8563 470.611C72.1903 470.611 74.4286 471.538 76.079 473.188C77.7293 474.839 78.6565 477.077 78.6565 479.411V498.539H61.0562V479.411Z" fill="#FBBEAA"/>
<path d="M78.0018 482.975C80.1837 482.975 80.5716 483.92 81.1776 485.157C82.2116 488.452 83.9674 491.475 86.3171 494.005C89.8135 496.993 93.5699 499.662 97.5415 501.981V512.115H58.3651C58.3651 512.115 58.6318 504.115 58.8257 498.466C59.0197 492.818 59.553 485.933 59.5288 485.205C59.5046 484.478 59.5288 482.975 60.8379 482.975H78.0018Z" fill="#302D3B"/>
<path d="M63.2142 499.023C63.2094 500.266 63.5735 501.482 64.2605 502.518C64.9476 503.554 65.9265 504.363 67.0734 504.842C68.2203 505.32 69.4835 505.448 70.7031 505.209C71.9227 504.969 73.0437 504.373 73.9243 503.496C74.8048 502.619 75.4052 501.5 75.6495 500.281C75.8937 499.063 75.7708 497.799 75.2963 496.65C74.8218 495.502 74.017 494.52 72.9839 493.829C71.9509 493.137 70.736 492.769 69.4931 492.769C67.832 492.769 66.2386 493.427 65.0618 494.599C63.885 495.771 63.2206 497.362 63.2142 499.023Z" fill="#0447BA"/>
<path d="M69.4687 495.339L68.0384 497.448L65.5898 498.151L67.1657 500.163L67.0929 502.708L69.4687 501.836L71.8688 502.708L71.796 500.163L73.3718 498.151L70.899 497.448L69.4687 495.339Z" fill="white"/>
<path d="M97.2505 501.812C97.2505 501.812 102.826 504.745 104.887 506.176C105.857 506.825 106.645 507.711 107.175 508.751C107.706 509.79 107.961 510.949 107.917 512.115H92.6201C92.6201 512.115 93.0323 504.672 97.2505 501.812Z" fill="white"/>
<path d="M58.3651 512.115V516.309C58.3651 517.012 58.9712 517.4 60.0379 517.4H106.293C107.36 517.4 107.966 517.012 107.966 516.309V512.115H58.3651Z" fill="white"/>
<path d="M92.7173 498.975C92.8491 498.766 93.0586 498.618 93.2995 498.564C93.5405 498.509 93.7932 498.552 94.0022 498.684C94.2112 498.816 94.3592 499.025 94.4138 499.266C94.4683 499.507 94.4249 499.76 94.2931 499.969L92.6689 502.587C92.5848 502.723 92.4669 502.835 92.3266 502.911C92.1863 502.988 92.0286 503.027 91.8689 503.024C91.6964 503.024 91.5277 502.974 91.384 502.878C91.2795 502.814 91.1889 502.729 91.1174 502.63C91.046 502.53 90.9953 502.417 90.9682 502.297C90.9411 502.177 90.9382 502.053 90.9596 501.933C90.9811 501.812 91.0264 501.696 91.0931 501.593L92.7173 498.975Z" fill="white"/>
<path d="M89.8321 496.963C89.9919 496.777 90.2178 496.66 90.4621 496.637C90.7064 496.615 90.9499 496.688 91.1412 496.842C91.3289 497.006 91.4462 497.236 91.4688 497.484C91.4914 497.732 91.4175 497.98 91.2624 498.175L89.3472 500.405C89.2632 500.511 89.1563 500.597 89.0345 500.655C88.9128 500.714 88.7793 500.745 88.6442 500.745C88.4665 500.747 88.292 500.697 88.1419 500.602C87.9918 500.507 87.8724 500.37 87.798 500.209C87.7237 500.047 87.6977 499.868 87.7231 499.692C87.7485 499.516 87.8242 499.351 87.9411 499.217L89.8321 496.963Z" fill="white"/>
<path d="M87.1658 494.709C87.3587 494.584 87.5902 494.534 87.8171 494.568C88.0441 494.602 88.251 494.717 88.3994 494.892C88.5477 495.067 88.6273 495.29 88.6234 495.519C88.6195 495.749 88.5322 495.969 88.378 496.139L86.1961 498.006C86.027 498.149 85.8118 498.226 85.5901 498.224C85.4568 498.227 85.3246 498.2 85.203 498.146C85.0814 498.091 84.9734 498.01 84.887 497.909C84.8005 497.823 84.7319 497.721 84.685 497.609C84.6381 497.496 84.614 497.376 84.614 497.254C84.614 497.132 84.6381 497.012 84.685 496.899C84.7319 496.787 84.8005 496.685 84.887 496.6L87.1658 494.709Z" fill="white"/>
<path d="M82.4384 493.593L84.8627 492.09C85.0718 492.002 85.3057 491.992 85.5217 492.062C85.7376 492.132 85.9212 492.277 86.0389 492.471C86.1565 492.665 86.2004 492.895 86.1625 493.119C86.1246 493.343 86.0074 493.546 85.8324 493.69L83.4081 495.193C83.2644 495.289 83.0957 495.339 82.9233 495.339C82.7617 495.337 82.6033 495.293 82.4632 495.213C82.3232 495.132 82.2061 495.017 82.1233 494.878C81.9973 494.665 81.9598 494.412 82.0187 494.171C82.0776 493.931 82.2283 493.724 82.4384 493.593Z" fill="white"/>
<path d="M216.647 85.3926L206.95 146.266C205.35 153.903 207.822 160.812 216.647 162.024C218.276 162.236 219.931 162.115 221.511 161.668C223.092 161.221 224.565 160.458 225.842 159.424C227.118 158.39 228.171 157.107 228.937 155.654C229.702 154.201 230.165 152.607 230.295 150.969L233.253 85.5138C234.029 79.3319 231.338 75.2106 226.635 74.7015C220.865 74.0712 217.81 77.4895 216.647 85.3926Z" fill="#FBBEAA"/>
<path d="M80.4027 490.466L83.1179 489.327C83.2308 489.28 83.352 489.255 83.4744 489.255C83.5968 489.255 83.7179 489.28 83.8308 489.327C83.9436 489.374 84.0459 489.444 84.1316 489.531C84.2174 489.619 84.2848 489.722 84.3301 489.836C84.4206 490.062 84.4207 490.313 84.3304 490.539C84.2401 490.765 84.0664 490.947 83.8452 491.048L81.1058 492.188C80.994 492.213 80.8781 492.213 80.7664 492.188C80.5797 492.188 80.3972 492.132 80.2419 492.029C80.0866 491.925 79.9654 491.778 79.8936 491.606C79.82 491.387 79.8315 491.148 79.9258 490.937C80.0201 490.726 80.1904 490.558 80.4027 490.466Z" fill="white"/>
<path d="M78.7045 486.975L81.6864 486.224C81.9274 486.165 82.1819 486.203 82.395 486.33C82.6082 486.457 82.7629 486.662 82.8258 486.902C82.8547 487.02 82.86 487.142 82.8415 487.262C82.823 487.382 82.781 487.497 82.718 487.601C82.6549 487.704 82.572 487.795 82.474 487.866C82.376 487.938 82.2649 487.989 82.1469 488.017L79.1651 488.793H78.9227C78.7043 488.777 78.4984 488.684 78.3404 488.533C78.1823 488.381 78.0818 488.179 78.056 487.962C78.0302 487.744 78.0808 487.524 78.1991 487.34C78.3174 487.156 78.496 487.018 78.7045 486.951V486.975Z" fill="white"/>
<path d="M70.681 356.718C71.8718 351.215 75.1992 346.41 79.9317 343.36C84.6641 340.309 90.4142 339.263 95.9178 340.451C107.385 342.875 113.567 354.173 111.094 365.639L78.6569 482.369H60.8384L70.681 356.718Z" fill="#FBBEAA"/>
<path d="M70.6809 354.415C71.9966 349.044 75.3552 344.398 80.0427 341.465C84.7302 338.532 90.3768 337.543 95.7822 338.708C101.188 339.873 105.925 343.1 108.988 347.704C112.051 352.308 113.198 357.924 112.185 363.36L100.786 483.331C100.786 483.331 69.9003 485.174 51.5 483.331L70.6809 354.415Z" fill="#013EA5"/>
<path d="M224.526 139.527L154.9 86.6288C146.779 81.4408 141.252 84.2045 136.937 89.7561C134.966 92.4432 134.052 95.7611 134.37 99.0782C134.687 102.395 136.213 105.48 138.658 107.744L208.114 158.921C210.561 160.988 213.712 162.031 216.91 161.832C220.107 161.634 223.105 160.209 225.277 157.854L225.593 157.515C226.746 156.285 227.636 154.832 228.21 153.247C228.783 151.661 229.027 149.975 228.927 148.291C228.828 146.608 228.386 144.963 227.629 143.456C226.872 141.949 225.816 140.612 224.526 139.527Z" fill="#FBBEAA"/>
<path d="M138.658 107.72C138.015 107.167 137.43 106.55 136.912 105.878C136.454 104.152 136.395 102.345 136.74 100.594C137.084 98.8422 137.823 97.1921 138.9 95.7685C142.561 90.1199 150.246 85.6835 153.664 86.532L157.058 88.2532L195.483 117.345C192.082 125.337 187.488 132.767 181.858 139.381L138.658 107.72Z" fill="#F18380"/>
<path d="M149.154 82.8468L209.407 123.484C209.153 125.562 214.036 82.8468 214.036 82.8468L236.337 84.9284C236.337 84.9284 235.035 128.418 231.753 151.386C230.45 160.501 222.863 163.957 213.867 161.995C209.426 161.026 205.244 159.203 201.523 156.591C185.534 145.368 140.676 113.757 137.009 109.781C130.681 102.92 130.681 97.7804 134.318 92.1318C137.954 86.4832 145.736 81.9983 149.154 82.8468Z" fill="#013EA5"/>
<path d="M120.839 357.009L108.402 226.801C108.402 212.425 123.215 196.764 145.058 200.134C164.791 203.213 170.804 223.043 169.179 241.832C167.555 260.62 163.167 357.93 163.167 357.93C163.102 360.716 162.488 363.462 161.362 366.01C160.236 368.559 158.619 370.861 156.603 372.784C154.587 374.708 152.212 376.216 149.613 377.221C147.014 378.227 144.243 378.711 141.458 378.646C138.672 378.581 135.926 377.967 133.378 376.841C130.829 375.715 128.527 374.097 126.604 372.081C124.68 370.066 123.172 367.691 122.167 365.092C121.161 362.493 120.677 359.722 120.742 356.936L120.839 357.009Z" fill="#013EA5"/>
<path d="M70.6811 354.415L83.045 224.231C85.6632 210.098 103.239 197.564 124.064 204.982C142.852 211.698 145.034 232.304 139.894 250.462C134.755 268.62 112.185 363.361 112.185 363.361C110.869 368.731 107.511 373.377 102.823 376.31C98.1356 379.243 92.4889 380.233 87.0836 379.068C81.6782 377.903 76.9403 374.675 73.8773 370.071C70.8143 365.468 69.6676 359.851 70.6811 354.415Z" fill="#013EA5"/>
<path d="M139.894 250.462C134.779 268.62 112.185 363.361 112.185 363.361" stroke="#E9E9E9" stroke-width="0.75" stroke-miterlimit="10"/>
<path d="M136.257 80.786C136.257 80.786 146.973 82.6527 149.058 83.2103C150.288 83.499 151.425 84.0953 152.362 84.9433C153.299 85.7913 154.006 86.8633 154.415 88.0588C155.749 91.2346 162.609 112.035 163.24 114.29C163.666 116.773 163.266 119.328 162.1 121.562C161.106 124.278 155.967 136.642 155.967 136.642L155.191 176.472L126.247 181.063L98.5114 176.472C98.5114 176.472 88.8142 102.386 88.3294 97.8045C87.8445 93.2226 90.1233 84.374 95.6022 83.2588C101.081 82.1436 116.112 80.8345 116.112 80.8345L136.257 80.786Z" fill="#FBBEAA"/>
<path d="M156.55 160.457V174.46C137.592 176.206 107.385 174.97 96.039 174.46C95.5056 170.46 94.948 163.672 94.3662 159.163C109.809 159.551 135.314 160.99 156.55 160.457Z" fill="white"/>
<path d="M56.5712 172.909L87.6263 91.1862C91.7718 82.4588 97.9053 81.877 104.596 84.3013C107.691 85.5358 110.223 87.8671 111.707 90.8499C113.192 93.8327 113.526 97.2579 112.645 100.471L80.6686 180.739C79.6994 183.793 77.5847 186.353 74.7685 187.88C71.9524 189.408 68.6538 189.786 65.5653 188.933L65.1047 188.812C63.4756 188.368 61.954 187.596 60.6329 186.544C59.3117 185.492 58.2185 184.183 57.4201 182.695C56.6216 181.207 56.1346 179.571 55.9887 177.889C55.8427 176.207 56.0409 174.512 56.5712 172.909Z" fill="#FBBEAA"/>
<path d="M69.4438 139.017L87.626 91.1861C88.1136 90.1372 88.6894 89.1316 89.3472 88.18C91.5744 86.7856 94.1241 85.9904 96.749 85.8715C99.374 85.7525 101.985 86.3139 104.329 87.5012C107.051 88.8258 109.239 91.0403 110.531 93.7781C111.823 96.5159 112.141 99.6128 111.432 102.556C111.432 102.847 111.263 103.405 111.117 104.156L92.3533 151.308C84.1573 148.353 76.4388 144.212 69.4438 139.017Z" fill="#F18380"/>
<path d="M90.0552 85.6843C84.7633 92.4883 54.146 175.646 54.146 175.646C82.4953 166.574 83 174.5 95.2537 144.651C95.2537 144.651 113.033 102.92 113.712 99.1866C114.42 96.2434 114.103 93.1466 112.811 90.4088C111.519 87.671 109.331 85.4564 106.609 84.1318C99.0209 80.253 95.347 78.8803 90.0552 85.6843Z" fill="#0045BA"/>
<path d="M141.496 80.7705C147.099 81.836 149.632 81.9633 151.054 82.9015C153.305 84.4118 164.898 104.876 164.898 114.111C164.898 122.28 162.92 187.631 161.272 188.696C159.624 189.762 130.122 191.144 130.122 191.144V98.604C133.117 89.3363 139.372 86.7659 141.496 80.7705Z" fill="#0045BA"/>
<path d="M151.054 82.9015C149.632 81.9633 144.041 81.08 138.438 80.0145C136.315 86.0099 133.117 89.3363 130.122 98.604V114.111H164.898C164.898 104.876 153.305 84.4118 151.054 82.9015Z" fill="#9A99A1"/>
<path d="M129.744 77.7466C122.789 77.7466 116.515 74.7226 114.247 73.2107V80.0145C114.499 80.3925 116.439 81.6021 122.184 83.4164C127.93 85.2308 136.17 84.5504 139.572 83.4164V76.6126C139.572 76.9906 138.438 77.7466 129.744 77.7466Z" fill="#034CC9"/>
<path d="M164.887 115.546H130.122V107.986L163.898 108.316C164.557 110.915 164.971 112.771 164.887 115.546Z" fill="#D3D4D2"/>
<path d="M85.6021 184.447C85.6021 176.879 86.5 156 96 137C97.1612 134 109.755 99.7417 97.0073 85.3585C92.771 80.5788 89.0471 87.495 90.1641 85.7136C91.281 83.9323 92.519 82.1839 94.3431 81.3454C97.5973 79.7665 104.828 80.0312 111.345 80.0312C119.166 89.6204 127.267 91.7551 130.122 98.6198V191.11C130.122 191.11 85.6021 192.015 85.6021 184.447Z" fill="#034CC9"/>
<path d="M85.6021 184.447C85.6021 176.879 86.5 156 96 137C97.1612 134 109.755 99.7417 97.0073 85.3585C92.771 80.5788 89.0471 87.495 90.1641 85.7136C91.281 83.9323 92.519 82.1839 94.3431 81.3454C97.5973 79.7665 104.828 80.0312 111.345 80.0312C119.166 89.6204 127.267 91.7551 130.122 98.6198V191.11C130.122 191.11 85.6021 192.015 85.6021 184.447Z" fill="#034CC9"/>
<path d="M90.0548 85.6844C88.9378 87.4658 92.7706 80.5787 97.0069 85.3584C102.362 91.4004 103.218 102.519 101.975 113.278H130.122L130.122 84.5504C122.562 83.7944 118.782 82.6605 114.246 80.0145C107.729 80.0145 97.4668 79.5696 94.2126 81.1485C92.3885 81.987 91.1717 83.9031 90.0548 85.6844Z" fill="#A2A0AB"/>
<path d="M130.122 191.144C132.054 190.496 133.744 189.247 134.962 187.569C136.18 185.891 136.866 183.865 136.926 181.768V78.1246H130.122V191.144Z" fill="#034CC9"/>
<path d="M102.389 108H130.1V116H101.68C102.045 112.4 102.389 110.8 102.389 108Z" fill="#CFD1CE"/>
<g style="mix-blend-mode:multiply" opacity="0.4">
<path d="M129.366 84.3955L130.122 84.5504V191.144H129.366V84.3955Z" fill="#013FA9"/>
</g>
<path d="M129.867 167.317L72.0708 188.77C64.9035 191.828 57.6343 190.758 54.7405 182.418C54.2124 180.864 54.0055 179.219 54.1323 177.582C54.2592 175.945 54.7172 174.351 55.4785 172.897C56.2399 171.443 57.2888 170.158 58.5615 169.121C59.8343 168.084 61.3044 167.317 62.8827 166.865L126.429 151.195C132.33 149.215 136.898 151.071 138.368 155.509C140.097 160.978 137.371 164.545 129.867 167.317Z" fill="#FBBEAA"/>
<g filter="url(#filter1_d_110_7)">
<rect x="109.426" y="123.357" width="40.9288" height="58.3236" rx="1" transform="rotate(-6.55484 109.426 123.357)" fill="#EFEFEF"/>
</g>
<path d="M128.643 149.497C131.49 148.294 134.064 146.512 136.201 144.263C137.524 142.874 139.025 141.669 140.663 140.679C141.623 140.079 142.452 139.286 143.098 138.352C143.95 136.902 144.656 135.371 145.204 133.783C145.407 132.415 145.872 131.096 146.574 129.902C147.241 129.29 149.596 129.617 150.818 131.993C151.24 133.051 151.431 134.19 151.378 135.334C151.326 136.478 151.031 137.601 150.515 138.627C149.906 139.857 149.43 141.148 149.093 142.477L149.315 142.61C151.178 141.621 153.168 140.904 155.226 140.48C155.972 140.313 156.75 140.404 157.433 140.736C158.116 141.069 158.665 141.625 158.992 142.314C159.319 143.004 159.404 143.787 159.235 144.537C159.065 145.287 158.649 145.961 158.056 146.45C161.267 146.819 160.902 151.771 158.146 152.426C158.736 152.673 159.234 153.099 159.573 153.644C159.912 154.189 160.075 154.827 160.04 155.473C160.006 156.119 159.775 156.741 159.379 157.255C158.984 157.768 158.442 158.15 157.828 158.346C159.786 160.151 158.355 163.126 154.8 163.139C151.912 163.433 144.187 164.642 141.499 165.221C138.811 165.799 133.409 164.52 131.674 165.057C129.091 166.003 126.09 166.019 123.802 159.222C121.514 152.425 125.985 150.375 128.643 149.497Z" fill="#FBBEAA"/>
<path d="M133 168L82.0004 187.506C82.0004 187.506 64.178 194.274 57.5008 188.5C56.2661 187.418 55.5619 185.917 54.8874 184C54.2177 182.096 54.1744 180.532 54.1063 178.892C54.0382 177.252 54.3039 175.615 54.8874 174.08C55.4709 172.546 54.8038 173.5 57.5008 169.5C60.1979 165.5 125.5 149 125.5 149L133 168Z" fill="#0045BA"/>
<path d="M217.422 64.3739C216.501 64.3739 216.428 63.7921 216.016 62.7254C218.077 62.7254 224.065 63.1133 226.683 68.1558C224.041 64.5193 218.974 64.3739 217.422 64.3739ZM222.125 45.1978C222.125 45.1978 221.98 46.0463 221.835 47.2827C221.835 47.913 221.689 48.6645 221.641 49.4403C221.592 50.2161 221.519 51.0646 221.447 51.8646C221.447 53.5616 221.325 55.2343 221.325 56.495C221.325 57.7556 221.325 58.6041 221.325 58.6041C221.325 58.6444 221.334 58.6844 221.35 58.7213C221.366 58.7583 221.389 58.7915 221.419 58.8189C221.449 58.8462 221.484 58.8672 221.522 58.8803C221.56 58.8934 221.6 58.8983 221.641 58.895C221.709 58.8916 221.774 58.8661 221.827 58.8223C221.879 58.7786 221.916 58.7191 221.931 58.6526C221.931 58.6526 222.077 57.8041 222.198 56.5434C222.319 55.2828 222.513 53.6101 222.586 51.9373C222.586 51.0888 222.586 50.2403 222.586 49.513C222.586 48.7857 222.586 47.9858 222.586 47.3554C222.586 46.0706 222.586 45.2463 222.586 45.2463C222.586 45.2059 222.578 45.166 222.562 45.1291C222.546 45.0921 222.522 45.0588 222.492 45.0315C222.463 45.0041 222.428 44.9833 222.39 44.9702C222.352 44.957 222.311 44.952 222.271 44.9554C222.224 44.9821 222.186 45.0212 222.161 45.0683C222.135 45.1153 222.123 45.1685 222.125 45.2221V45.1978ZM227.75 46.8948C227.75 46.8948 227.604 47.6221 227.435 48.6888C227.435 49.2464 227.265 49.8766 227.192 50.5554C227.119 51.2342 227.047 51.9615 226.974 52.6888C226.974 54.1434 226.804 55.598 226.78 56.6889C226.756 57.7798 226.78 58.5314 226.78 58.5314C226.783 58.5696 226.794 58.6069 226.811 58.641C226.829 58.6751 226.853 58.7055 226.882 58.7303C226.911 58.7551 226.945 58.7739 226.982 58.7855C227.018 58.7971 227.057 58.8014 227.095 58.7981C227.16 58.7935 227.222 58.7671 227.271 58.7231C227.319 58.6791 227.351 58.6201 227.362 58.5556C227.362 58.5556 227.507 57.8283 227.677 56.7616C227.847 55.6949 227.992 54.2161 228.113 52.7858C228.113 52.0585 228.113 51.3312 228.259 50.6524C228.404 49.9736 228.259 49.3191 228.259 48.7615C228.259 47.6706 228.259 46.9433 228.259 46.9433C228.259 46.903 228.251 46.8631 228.235 46.8261C228.219 46.7891 228.195 46.7559 228.165 46.7285C228.136 46.7012 228.101 46.6803 228.062 46.6672C228.024 46.6541 227.984 46.649 227.944 46.6524C227.89 46.6746 227.843 46.7113 227.809 46.7583C227.775 46.8054 227.754 46.861 227.75 46.919V46.8948ZM233.18 49.1979C233.18 49.1979 233.035 49.8039 232.841 50.7252C232.841 51.1615 232.647 51.6949 232.574 52.2767C232.501 52.8586 232.404 53.4646 232.307 54.0707C232.138 55.3071 232.065 56.495 232.016 57.4647C231.968 58.4344 232.016 59.0162 232.016 59.0162C232.016 59.0566 232.025 59.0965 232.041 59.1334C232.057 59.1704 232.08 59.2037 232.11 59.231C232.14 59.2584 232.175 59.2792 232.213 59.2924C232.251 59.3055 232.291 59.3105 232.332 59.3071C232.394 59.3039 232.453 59.281 232.501 59.2417C232.549 59.2025 232.583 59.149 232.598 59.089C232.598 59.089 232.768 58.4829 232.938 57.5859C233.107 56.6889 233.35 55.4283 233.495 54.2161C233.495 53.5858 233.617 52.9798 233.665 52.3979C233.714 51.8161 233.665 51.2828 233.665 50.8222C233.665 49.9009 233.665 49.2706 233.665 49.2706C233.665 49.2302 233.657 49.1904 233.641 49.1534C233.625 49.1164 233.601 49.0832 233.571 49.0558C233.542 49.0284 233.507 49.0076 233.469 48.9945C233.43 48.9814 233.39 48.9763 233.35 48.9797C233.305 49.0046 233.267 49.0394 233.237 49.0814C233.208 49.1234 233.188 49.1715 233.18 49.2221V49.1979Z" fill="#F18380"/>
<path d="M58.3038 437.594L60.5718 422.853H106.687L105.175 437.972L58.3038 437.594Z" fill="#CFD1CE"/>
<path d="M119.16 437.594L119.538 422.853H164.897L165.275 437.972L119.16 437.594Z" fill="#CFD1CE"/>
<path d="M87.5398 158.944L97.9999 156.5L104.5 179L94.4999 183L87.5398 158.944Z" fill="#CFD1CE"/>
<path d="M209.878 118.57L211.012 109.498L235.204 111.388L234.826 120.46L209.878 118.57Z" fill="#CFD1CE"/>
<defs>
<filter id="filter0_f_110_7" x="0.5" y="484" width="247" height="63" filterUnits="userSpaceOnUse" color-interpolation-filters="sRGB">
<feFlood flood-opacity="0" result="BackgroundImageFix"/>
<feBlend mode="normal" in="SourceGraphic" in2="BackgroundImageFix" result="shape"/>
<feGaussianBlur stdDeviation="8.5" result="effect1_foregroundBlur_110_7"/>
</filter>
<filter id="filter1_d_110_7" x="109.534" y="118.793" width="49.1041" height="62.3995" filterUnits="userSpaceOnUse" color-interpolation-filters="sRGB">
<feFlood flood-opacity="0" result="BackgroundImageFix"/>
<feColorMatrix in="SourceAlpha" type="matrix" values="0 0 0 0 0 0 0 0 0 0 0 0 0 0 0 0 0 0 127 0" result="hardAlpha"/>
<feOffset dx="2"/>
<feComposite in2="hardAlpha" operator="out"/>
<feColorMatrix type="matrix" values="0 0 0 0 0.603922 0 0 0 0 0.6 0 0 0 0 0.631373 0 0 0 1 0"/>
<feBlend mode="normal" in2="BackgroundImageFix" result="effect1_dropShadow_110_7"/>
<feBlend mode="normal" in="SourceGraphic" in2="effect1_dropShadow_110_7" result="shape"/>
</filter>
</defs>
</svg>
