<svg width="225" height="515" viewBox="0 0 225 515" fill="none" xmlns="http://www.w3.org/2000/svg">
<path d="M120.685 92.2337C119.977 92.2337 118.473 92.2337 117.146 92.6761C117.146 93.7379 119.506 94.5933 120.685 94.8882C120.98 94.0034 121.393 92.2337 120.685 92.2337Z" fill="#013FA9"/>
<path d="M118.656 71.3555H146.867V104.534H118.656V71.3555Z" fill="#FBBEAA"/>
<path d="M146.797 71.3555H118.68V89.8659C119.908 90.0185 121.144 90.0967 122.382 90.1002C132.082 90.1002 142.931 87.4525 146.891 78.1973L146.797 71.3555Z" fill="#F18380"/>
<path d="M104.082 46.7299C104.316 56.3132 104.082 63.8814 105.816 71.1919C107.55 78.5023 112.845 84.4772 124.561 84.4772C136.276 84.4772 149.632 80.658 150.569 66.0136C152.49 63.9283 155.607 56.5007 155.724 48.1827C155.841 39.8647 155.185 22.268 136.229 19.5735C117.274 16.8789 103.567 23.8379 104.082 46.7299Z" fill="#FBBEAA"/>
<path d="M113.994 54.2748C113.994 55.5635 113.22 56.6179 112.26 56.6179C111.299 56.6179 110.526 55.5635 110.526 54.2748C110.526 52.9861 111.299 51.9317 112.26 51.9317C113.22 51.9317 113.994 52.8924 113.994 54.2748Z" fill="#403D4F"/>
<path d="M135.081 54.2748C135.081 55.5635 134.308 56.6179 133.347 56.6179C132.387 56.6179 131.613 55.5635 131.613 54.2748C131.613 52.9861 132.387 51.9317 133.347 51.9317C134.308 51.9317 135.081 52.8924 135.081 54.2748Z" fill="#403D4F"/>
<path d="M130.84 49.4007C131.004 49.6116 132.246 49.4007 133.183 49.4007C134.121 49.4007 135.925 49.4007 135.925 49.1899C135.925 48.979 135.034 47.5263 132.691 47.784C131.004 47.9715 130.395 49.0258 130.84 49.4007Z" fill="#403D4F"/>
<path d="M114.392 49.4007C114.252 49.6116 113.197 49.4007 112.377 49.4007C111.557 49.4007 110.034 49.4007 110.034 49.1899C110.244 48.6588 110.641 48.2228 111.15 47.9639C111.66 47.7051 112.246 47.6411 112.799 47.784C114.252 47.9714 114.65 49.0258 114.392 49.4007Z" fill="#403D4F"/>
<path d="M121.304 63.975C119.664 63.975 118.352 62.8972 118.305 62.124L118.844 55.5164C118.862 55.3527 118.943 55.2024 119.07 55.0973C119.197 54.9923 119.359 54.9409 119.524 54.9541C119.604 54.96 119.682 54.9817 119.754 55.018C119.825 55.0542 119.889 55.1042 119.941 55.1652C119.994 55.2262 120.033 55.2969 120.058 55.3732C120.083 55.4496 120.092 55.5301 120.086 55.6102L119.571 61.9834C119.807 62.2402 120.099 62.4408 120.423 62.5705C120.747 62.7003 121.096 62.7558 121.445 62.7332C121.527 62.7268 121.609 62.7371 121.687 62.7634C121.765 62.7896 121.837 62.8314 121.898 62.8861C121.959 62.9409 122.009 63.0074 122.044 63.0818C122.079 63.1562 122.098 63.2368 122.101 63.319C122.101 63.4851 122.039 63.6453 121.926 63.7671C121.813 63.8888 121.658 63.9632 121.492 63.975H121.304Z" fill="#F18380"/>
<path d="M145.49 51.0877C145.49 60.5423 150.176 57.0277 150.176 57.0277C151.348 53.513 153.389 55.0244 156.071 55.0244C158.754 55.0244 158.41 53.0703 161.093 46.6268C163.239 41.472 160.765 33.2813 159.155 31.2987C161.823 27.8028 158.205 25.7202 158.33 26.2501C159.155 29.7436 156.295 26.2325 154.862 24.8552C139.563 10.1442 109.912 17.1825 109.912 17.1825L105.013 22.6021L110.417 23.1628C110.417 23.1628 104.338 23.5832 106.037 26.4478C107.453 28.8334 102.33 33.2813 102.33 33.2813L91.5985 34.2726C91.5985 34.2726 98.5742 41.7074 108.233 42.6987C119.11 43.8151 130.769 38.7335 130.769 38.7335L126.477 43.69C126.477 43.69 137.327 41.4771 140.841 43.3088C143.089 44.4804 145.49 46.8611 145.49 51.0877Z" fill="#7D4A40"/>
<path d="M150.054 58.7267C150.171 56.0556 150.593 52.1192 154.388 52.0254C158.184 51.9317 158.676 54.7903 158.559 59.289C158.442 63.7878 153.873 67.607 149.866 66.0606L150.054 58.7267Z" fill="#FBBEAA"/>
<path d="M155.631 61.9598C155.467 61.9312 155.32 61.8388 155.224 61.7027C155.127 61.5667 155.088 61.398 155.115 61.2335C155.115 61.1012 155.078 60.9717 155.007 60.8598C154.937 60.7479 154.836 60.6581 154.717 60.6008C154.478 60.4406 154.197 60.3551 153.909 60.3551C153.621 60.3551 153.34 60.4406 153.1 60.6008C152.996 60.6583 152.879 60.6884 152.761 60.6884C152.642 60.6884 152.525 60.6583 152.421 60.6008C152.325 60.5377 152.249 60.4499 152.199 60.3468C152.15 60.2436 152.129 60.129 152.14 60.015C152.468 56.2427 154.881 55.5397 154.975 55.5163C155.055 55.4916 155.139 55.4837 155.222 55.493C155.306 55.5023 155.386 55.5287 155.458 55.5705C155.531 55.6123 155.594 55.6685 155.644 55.7358C155.694 55.8031 155.729 55.8799 155.748 55.9615C155.791 56.1168 155.771 56.283 155.692 56.4236C155.613 56.5641 155.482 56.6676 155.326 56.7113C154.858 56.9232 154.45 57.2484 154.139 57.6575C153.829 58.0665 153.624 58.5466 153.546 59.0544C154.188 58.9498 154.846 59.0831 155.397 59.4293C155.718 59.6174 155.977 59.8947 156.143 60.2275C156.31 60.5602 156.376 60.9341 156.334 61.3037C156.338 61.395 156.322 61.4861 156.287 61.5707C156.253 61.6552 156.2 61.7313 156.134 61.7936C156.067 61.856 155.987 61.9031 155.9 61.9318C155.814 61.9605 155.722 61.97 155.631 61.9598Z" fill="#F18380"/>
<path d="M122.92 72.4103C125.182 72.323 127.354 71.5004 129.106 70.0672" stroke="#73102A" stroke-width="0.5" stroke-miterlimit="10" stroke-linecap="round"/>
<path d="M122.841 68.2635C126.122 67.1857 129.87 65.9204 131.159 67.4434C132.167 68.4744 130.808 73.3246 125.77 74.1681C120.732 75.0116 118.928 71.5439 119.186 70.2083C119.35 69.3882 120.264 69.1305 122.841 68.2635Z" fill="#73102A"/>
<path d="M131.042 67.3735H131.159C132.167 68.4044 130.808 73.2546 125.77 74.0981C124.676 74.3522 123.537 74.3522 122.443 74.0981C123.292 72.4124 124.502 70.9352 125.989 69.7726C127.476 68.61 129.201 67.7907 131.042 67.3735Z" fill="#D65155"/>
<path d="M129.87 66.8576C128.543 68.3001 126.857 69.3657 124.985 69.9459C123.112 70.5262 121.12 70.6005 119.209 70.1613C119.397 69.3647 120.334 69.1069 122.841 68.2634C125.066 67.3281 127.456 66.85 129.87 66.8576Z" fill="white"/>
<path d="M109.722 436.074C109.722 436.074 110.868 484.479 111.155 491.72C111.442 498.96 116.052 500.931 123.481 501.572C130.909 502.213 134.039 496.349 135.09 491.696C136.141 487.043 142.495 439.588 142.495 439.588L109.722 436.074Z" fill="#FBBEAA"/>
<path d="M157.711 437.245C157.711 437.245 164.028 485.787 165.073 493.013C166.117 500.24 170.891 501.776 178.324 501.608C185.757 501.44 188.204 495.222 188.75 490.445C189.296 485.667 190.483 437.245 190.483 437.245H157.711Z" fill="#FBBEAA"/>
<path d="M177.077 477.068C174.379 476.877 171.704 477.671 169.56 479.3C167.416 480.929 165.951 483.279 165.445 485.904L153.029 498.476V506.302H192.824C192.824 506.302 190.826 492.202 190.255 489.03C189.684 485.857 187.758 477.068 177.077 477.068Z" fill="#FBBEAA"/>
<path d="M165.293 486.136C164.834 485.511 164.181 485.031 163.722 485.319C163.262 485.607 151.051 495.215 150.471 495.696C150.114 496.029 149.843 496.444 149.683 496.904C149.523 497.365 149.478 497.857 149.552 498.338V508.643H193.995C193.995 508.643 192.254 493.414 192.133 492.573C192.012 491.733 191.166 490.628 190.682 490.652C187.632 491.58 184.466 492.081 181.276 492.141C177.037 492.364 172.808 491.539 168.969 489.739C167.545 488.756 166.302 487.537 165.293 486.136Z" fill="#302D3B"/>
<path d="M156.907 500.292C159.011 498.703 166.578 492.684 169.416 490.421L168.753 490.084C168.664 490.045 168.584 489.987 168.517 489.915C165.49 492.323 158.373 498.005 156.34 499.546C154.62 500.887 153.443 502.822 153.029 504.987L153.951 505.131C154.341 503.212 155.389 501.497 156.907 500.292Z" fill="white"/>
<path d="M192.681 498.109C189.581 498.14 186.581 499.218 184.161 501.17C181.974 503.122 180.492 505.75 179.949 508.643H181.241C181.77 506.136 183.078 503.865 184.975 502.158C187.202 500.362 189.971 499.384 192.824 499.386L192.681 498.109Z" fill="white"/>
<path d="M141.974 507.472H193.345C193.704 507.472 193.995 507.798 193.995 508.199V513.769C193.995 514.17 193.704 514.495 193.345 514.495H141.974C141.615 514.495 141.324 514.17 141.324 513.769V508.199C141.324 507.798 141.615 507.472 141.974 507.472Z" fill="white"/>
<path d="M150.49 495.796C150.059 495.622 147.952 496.208 145.21 498.791C144.068 499.921 143.247 501.311 142.822 502.83C142.398 504.35 142.385 505.947 142.785 507.472H156.54C155.77 499.138 150.92 495.969 150.49 495.796Z" fill="white"/>
<path d="M156.351 495.313C156.491 495.518 156.557 495.779 156.536 496.041C156.515 496.304 156.408 496.545 156.239 496.714C156.156 496.796 156.06 496.858 155.957 496.895C155.853 496.933 155.745 496.946 155.638 496.934C155.53 496.921 155.426 496.884 155.331 496.823C155.235 496.763 155.151 496.68 155.083 496.581L153.218 493.89C153.078 493.686 153.011 493.425 153.032 493.163C153.053 492.9 153.16 492.658 153.33 492.49C153.412 492.405 153.508 492.341 153.611 492.301C153.715 492.262 153.824 492.248 153.932 492.261C154.04 492.273 154.145 492.312 154.24 492.374C154.335 492.436 154.419 492.521 154.486 492.623L156.351 495.313Z" fill="white"/>
<path d="M158.692 493.729C158.832 493.984 158.899 494.31 158.878 494.637C158.857 494.964 158.749 495.266 158.58 495.477C158.497 495.582 158.401 495.662 158.298 495.711C158.194 495.76 158.085 495.778 157.976 495.762C157.868 495.747 157.763 495.698 157.667 495.621C157.572 495.543 157.488 495.437 157.421 495.31L155.552 491.954C155.417 491.697 155.353 491.372 155.374 491.047C155.395 490.722 155.499 490.421 155.665 490.206C155.747 490.101 155.843 490.021 155.946 489.972C156.05 489.923 156.159 489.905 156.268 489.921C156.376 489.936 156.481 489.985 156.577 490.062C156.672 490.14 156.756 490.246 156.823 490.373L158.692 493.729Z" fill="white"/>
<path d="M162.137 491.049C162.321 491.198 162.412 491.391 162.389 491.585C162.366 491.78 162.232 491.96 162.015 492.087C161.791 492.212 161.504 492.272 161.216 492.253C160.928 492.234 160.662 492.138 160.477 491.986L158.035 489.962C157.932 489.894 157.851 489.812 157.795 489.721C157.739 489.631 157.711 489.533 157.711 489.435C157.711 489.337 157.739 489.24 157.795 489.149C157.851 489.059 157.932 488.977 158.035 488.908C158.261 488.787 158.547 488.73 158.833 488.748C159.119 488.767 159.384 488.86 159.573 489.009L162.137 491.049Z" fill="white"/>
<path d="M164.547 488.979C164.615 489.104 164.666 489.249 164.698 489.405C164.729 489.561 164.74 489.724 164.73 489.886C164.719 490.048 164.688 490.206 164.637 490.349C164.587 490.493 164.518 490.62 164.435 490.724C164.279 490.956 164.069 491.086 163.851 491.086C163.632 491.086 163.422 490.956 163.266 490.724L161.41 487.29C161.271 487.032 161.205 486.701 161.226 486.369C161.247 486.037 161.353 485.731 161.522 485.517C161.605 485.413 161.7 485.335 161.803 485.288C161.905 485.24 162.013 485.224 162.12 485.239C162.227 485.255 162.331 485.302 162.425 485.379C162.52 485.456 162.604 485.56 162.672 485.686L164.547 488.979Z" fill="white"/>
<path d="M119.716 477.068C117.016 476.877 114.34 477.671 112.194 479.3C110.048 480.929 108.583 483.279 108.077 485.904L95.6765 498.476V506.302H135.472C135.472 506.302 133.497 492.202 132.902 489.03C132.307 485.857 130.403 477.068 119.716 477.068Z" fill="#FBBEAA"/>
<path d="M109.089 486.136C108.629 485.511 108 485.031 107.516 485.319C107.032 485.607 94.8359 495.215 94.2793 495.696C93.7227 496.176 93.3355 496.777 93.3355 498.338V508.643H137.813C137.813 508.643 136.071 493.414 135.95 492.573C135.829 491.733 134.982 490.628 134.498 490.652C131.445 491.58 128.277 492.081 125.084 492.141C120.849 492.368 116.624 491.543 112.791 489.739C111.356 488.761 110.103 487.541 109.089 486.136Z" fill="#302D3B"/>
<path d="M101.895 500.292C104 498.703 111.566 492.684 114.404 490.421L113.765 490.084C113.669 490.045 113.581 489.988 113.505 489.915C110.479 492.323 103.361 498.005 101.328 499.546C99.6087 500.887 98.4312 502.822 98.0174 504.987L98.9396 505.131C99.3411 503.217 100.387 501.505 101.895 500.292Z" fill="white"/>
<path d="M135.342 498.109C132.524 498.14 129.797 499.218 127.597 501.17C125.608 503.122 124.261 505.75 123.768 508.643H124.942C125.429 506.133 126.625 503.862 128.358 502.158C130.373 500.358 132.884 499.379 135.472 499.386L135.342 498.109Z" fill="white"/>
<path d="M86.9624 507.472H138.334C138.693 507.472 138.983 507.798 138.983 508.199V513.769C138.983 514.17 138.693 514.495 138.334 514.495H86.9624C86.6036 514.495 86.3127 514.17 86.3127 513.769V508.199C86.3127 507.798 86.6036 507.472 86.9624 507.472Z" fill="white"/>
<path d="M94.9744 495.796C94.508 495.622 92.225 496.208 89.2546 498.791C88.0179 499.921 87.1277 501.311 86.668 502.83C86.2084 504.35 86.1946 505.947 86.628 507.472H101.529C100.694 499.138 95.4409 495.969 94.9744 495.796Z" fill="white"/>
<path d="M100.105 495.313C100.292 495.518 100.381 495.779 100.353 496.041C100.325 496.304 100.182 496.545 99.9556 496.714C99.8444 496.796 99.7161 496.858 99.5783 496.895C99.4404 496.933 99.2957 496.946 99.1522 496.934C99.0087 496.921 98.8694 496.884 98.7421 496.823C98.6149 496.763 98.5023 496.68 98.4108 496.581L95.9193 493.89C95.7386 493.684 95.6534 493.424 95.6812 493.163C95.709 492.903 95.8478 492.662 96.0689 492.49C96.1786 492.405 96.3064 492.341 96.4447 492.301C96.583 492.262 96.7288 492.248 96.8732 492.261C97.0177 492.273 97.1578 492.312 97.285 492.374C97.4123 492.436 97.5241 492.521 97.6136 492.623L100.105 495.313Z" fill="white"/>
<path d="M102.509 493.726C102.649 493.981 102.716 494.308 102.695 494.635C102.674 494.963 102.567 495.265 102.397 495.476C102.315 495.582 102.219 495.662 102.115 495.711C102.011 495.76 101.902 495.778 101.794 495.762C101.685 495.746 101.58 495.698 101.485 495.621C101.389 495.543 101.306 495.437 101.238 495.309L99.3698 491.948C99.2343 491.69 99.1704 491.365 99.1912 491.039C99.2121 490.714 99.3161 490.412 99.4819 490.197C99.6534 489.989 99.8732 489.89 100.094 489.921C100.314 489.952 100.517 490.111 100.659 490.364L102.509 493.726Z" fill="white"/>
<path d="M105.879 491.051C105.984 491.118 106.067 491.199 106.124 491.288C106.181 491.377 106.21 491.472 106.21 491.569C106.21 491.666 106.181 491.761 106.124 491.85C106.067 491.939 105.984 492.02 105.879 492.087C105.648 492.212 105.353 492.272 105.056 492.253C104.76 492.234 104.487 492.138 104.296 491.987L101.784 489.965C101.595 489.812 101.505 489.616 101.534 489.419C101.562 489.222 101.706 489.04 101.934 488.913C102.046 488.852 102.176 488.805 102.315 488.777C102.454 488.749 102.6 488.739 102.744 488.748C102.889 488.758 103.03 488.786 103.158 488.831C103.286 488.877 103.4 488.939 103.492 489.013L105.879 491.051Z" fill="white"/>
<path d="M108.303 488.979C108.394 489.104 108.462 489.249 108.504 489.405C108.546 489.561 108.56 489.724 108.547 489.886C108.533 490.048 108.491 490.206 108.424 490.349C108.356 490.493 108.265 490.62 108.154 490.724C107.946 490.956 107.666 491.086 107.375 491.086C107.083 491.086 106.804 490.956 106.595 490.724L104.121 487.29C103.936 487.032 103.847 486.701 103.875 486.369C103.903 486.037 104.045 485.731 104.269 485.517C104.38 485.413 104.507 485.335 104.644 485.288C104.781 485.24 104.925 485.224 105.067 485.239C105.21 485.255 105.348 485.302 105.475 485.379C105.601 485.456 105.713 485.56 105.804 485.686L108.303 488.979Z" fill="white"/>
<path d="M186.776 333.359C187.174 336.45 186.965 339.59 186.162 342.598C185.359 345.606 183.979 348.422 182.1 350.883C180.221 353.344 177.882 355.402 175.217 356.937C172.551 358.472 169.614 359.454 166.574 359.826C163.533 360.198 160.451 359.953 157.504 359.104C154.558 358.256 151.806 356.821 149.407 354.883C147.009 352.945 145.012 350.542 143.532 347.814C142.052 345.085 141.118 342.085 140.784 338.987C140.784 338.987 128.726 252.781 125.866 235.365C123.007 217.949 126.033 203.372 145.193 199.224C165.067 194.931 177.483 209.751 178.984 224.596C180.485 239.44 186.776 333.359 186.776 333.359Z" fill="#013EA5"/>
<path d="M148.056 335.017C148.133 341.254 145.727 347.265 141.367 351.73C137.006 356.194 131.049 358.745 124.806 358.822C118.563 358.899 112.544 356.495 108.075 352.14C103.606 347.785 101.052 341.834 100.975 335.598C100.975 335.598 97.9957 248.798 96.9785 231.211C95.9613 213.623 100.563 199.52 120.374 197.488C140.911 195.383 151.858 211.422 151.858 226.324C151.858 241.226 148.056 335.017 148.056 335.017Z" fill="#013EA5"/>
<path d="M148.347 335.208C148.308 332.123 147.649 329.076 146.407 326.241C145.166 323.405 143.366 320.837 141.11 318.682C138.855 316.528 136.188 314.83 133.262 313.684C130.336 312.539 127.208 311.969 124.057 312.007C120.907 312.045 117.794 312.691 114.898 313.906C112.002 315.122 109.379 316.884 107.178 319.093C104.978 321.301 103.243 323.912 102.073 326.776C100.903 329.641 100.321 332.703 100.36 335.788L105.297 460.081L144.027 464.165L148.347 335.208Z" fill="#013EA5"/>
<path d="M186.694 333.717C185.896 327.552 182.722 321.955 177.861 318.141C173 314.326 166.845 312.603 160.734 313.345C154.622 314.087 149.047 317.234 145.22 322.103C141.392 326.973 139.622 333.17 140.293 339.35L158.397 462.995H196.335L186.694 333.717Z" fill="#013EA5"/>
<path d="M141.324 337.756L158.881 461.824" stroke="#013EA5" stroke-width="0.75" stroke-miterlimit="10" stroke-linecap="round"/>
<path d="M140.153 338.926C140.153 338.926 127.854 253.237 124.937 235.926" stroke="#F5F5F5" stroke-width="0.75" stroke-miterlimit="10" stroke-linecap="round"/>
<path d="M99.1876 207.835C99.1876 207.835 99.1876 232.258 99.1876 233.6C99.1876 234.943 110.929 246.46 126.523 246.46C150.5 246.46 179.197 237.675 178.774 231.952C178.492 228.183 178.14 207.835 178.14 207.835H99.1876Z" fill="#013EA5"/>
<path d="M26.9327 107.635L38.2828 178.885C40.1556 187.823 37.2613 195.91 26.9327 197.329C25.0262 197.577 23.0891 197.435 21.239 196.912C19.3889 196.389 17.6644 195.495 16.1703 194.285C14.6763 193.075 13.4438 191.574 12.5477 189.873C11.6515 188.172 11.1105 186.306 10.9574 184.39L7.49565 107.776C6.58764 100.541 9.73724 95.7169 15.242 95.1211C21.9954 94.3833 25.5707 98.3842 26.9327 107.635Z" fill="#FBBEAA"/>
<path d="M17.7105 170.996L99.2043 109.082C108.71 103.009 115.179 106.244 120.23 112.742C122.537 115.887 123.606 119.771 123.235 123.653C122.863 127.536 121.077 131.146 118.216 133.796L36.9206 193.697C34.0558 196.116 30.3678 197.337 26.6252 197.104C22.8826 196.872 19.3741 195.204 16.8309 192.448L16.462 192.051C15.1122 190.611 14.07 188.911 13.3989 187.055C12.7278 185.199 12.4419 183.225 12.5588 181.255C12.6756 179.285 13.1927 177.359 14.0784 175.595C14.9641 173.832 16.2 172.267 17.7105 170.996Z" fill="#FBBEAA"/>
<path d="M26.5934 105.733C26.4763 103.176 27.1609 100.646 28.5513 98.4972C30.6919 96.0151 32.2957 93.1168 33.2616 89.9847C34.0046 87.0772 35.1914 84.3016 36.7801 81.7558C37.9152 80.1951 39.6177 78.9183 39.6177 77.7265C39.6177 76.5348 37.3476 74.2364 34.1129 74.889C32.7273 75.3206 31.4542 76.0532 30.3848 77.0343C29.3154 78.0154 28.4761 79.2207 27.927 80.564C27.6171 79.7456 27.4353 78.8842 27.3879 78.0103L26.6786 60.6162C26.6678 60.1653 26.5667 59.7211 26.3815 59.3099C26.1962 58.8986 25.9303 58.5287 25.5997 58.2219C25.2691 57.9151 24.8804 57.6776 24.4565 57.5235C24.0326 57.3694 23.5821 57.3018 23.1317 57.3247C22.4145 57.3553 21.7249 57.6099 21.1599 58.0527C20.5949 58.4955 20.183 59.1042 19.982 59.7933V58.9988C19.8728 58.1533 19.4479 57.3803 18.7924 56.8351C18.1369 56.2899 17.2994 56.0128 16.4481 56.0595C15.5968 56.1062 14.7947 56.4732 14.2028 57.0868C13.6109 57.7005 13.273 58.5153 13.257 59.3677V61.7796C12.9728 61.036 12.4309 60.4193 11.73 60.0419C11.0292 59.6644 10.216 59.5514 9.43873 59.7234C8.66148 59.8953 7.97189 60.3408 7.49564 60.9786C7.0194 61.6165 6.7882 62.4043 6.84419 63.1984V64.7306C6.53878 64.1939 6.08364 63.7578 5.53436 63.4756C4.98508 63.1934 4.36547 63.0773 3.7513 63.1416C2.91023 63.2484 2.14378 63.6783 1.61415 64.3403C1.08452 65.0024 0.833302 65.8445 0.913773 66.6885L2.30413 81.3586C3.21495 89.6293 4.92552 97.7923 7.41173 105.733C7.44179 107.059 7.74895 108.364 8.31344 109.564C8.87793 110.764 9.68725 111.832 10.6894 112.701C11.6916 113.569 12.8644 114.219 14.1325 114.607C15.4006 114.995 16.7358 115.114 18.0525 114.955C19.244 114.995 20.4301 114.778 21.5303 114.319C22.6306 113.86 23.6194 113.17 24.4294 112.295C25.2395 111.42 25.852 110.382 26.2254 109.249C26.5988 108.117 26.7242 106.918 26.5934 105.733Z" fill="#FBBEAA"/>
<path d="M105.93 104.655L35.4076 152.218C35.7043 154.651 29.9892 104.655 29.9892 104.655L3.88623 107.091C3.88623 107.091 5.41119 157.994 9.25255 184.877C10.777 195.546 19.6572 199.592 30.1867 197.294C35.3854 196.16 40.2796 194.027 44.6348 190.97C63.3497 177.834 115.854 140.834 120.146 136.18C127.552 128.15 127.552 122.134 123.296 115.523C119.04 108.911 109.931 103.662 105.93 104.655Z" fill="#013EA5"/>
<path d="M26.0257 83.033C27.1039 83.033 27.189 82.3521 27.6714 81.1036C25.2595 81.1036 18.2508 81.5575 15.1863 87.4596C18.2792 83.2033 24.2096 83.033 26.0257 83.033ZM20.5209 60.5882C20.5209 60.5882 20.6911 61.5814 20.8613 63.0285C20.8613 63.7663 21.0316 64.6459 21.0884 65.5539C21.1451 66.4619 21.2302 67.455 21.3154 68.3914C21.3154 70.3777 21.4572 72.3356 21.4572 73.8111C21.4572 75.2866 21.4572 76.2797 21.4572 76.2797C21.4574 76.3269 21.4477 76.3737 21.4289 76.417C21.41 76.4603 21.3823 76.4991 21.3477 76.5311C21.313 76.5631 21.272 76.5876 21.2274 76.603C21.1827 76.6183 21.1354 76.6241 21.0884 76.6202C21.0086 76.6162 20.9321 76.5864 20.8707 76.5352C20.8093 76.484 20.7662 76.4143 20.7478 76.3365C20.7478 76.3365 20.5776 75.3433 20.4357 73.8678C20.2939 72.3923 20.0668 70.4344 19.9817 68.4765C19.9817 67.4834 19.9817 66.4903 19.9817 65.639C19.9817 64.7877 19.9817 63.8514 19.9817 63.1136C19.9817 61.6098 19.9817 60.6449 19.9817 60.6449C19.9816 60.5977 19.9912 60.551 20.01 60.5078C20.0289 60.4645 20.0566 60.4256 20.0913 60.3935C20.1259 60.3615 20.1669 60.3371 20.2115 60.3218C20.2562 60.3064 20.3036 60.3005 20.3506 60.3044C20.405 60.3357 20.4497 60.3815 20.4797 60.4366C20.5098 60.4917 20.524 60.5539 20.5209 60.6166V60.5882ZM13.9378 62.5745C13.9378 62.5745 14.108 63.4257 14.3067 64.6743C14.3067 65.3269 14.5053 66.0646 14.5904 66.8591C14.6756 67.6536 14.7607 68.5049 14.8458 69.3562C14.8458 71.0587 15.0444 72.7612 15.0728 74.0381C15.1011 75.3149 15.0728 76.1946 15.0728 76.1946C15.0692 76.2394 15.0568 76.283 15.0363 76.3229C15.0158 76.3629 14.9876 76.3984 14.9533 76.4275C14.9191 76.4565 14.8793 76.4784 14.8365 76.4921C14.7937 76.5057 14.7487 76.5107 14.704 76.5068C14.6276 76.5014 14.5553 76.4705 14.4986 76.4191C14.442 76.3676 14.4044 76.2985 14.3918 76.223C14.3918 76.223 14.2215 75.3717 14.0229 74.1232C13.8243 72.8747 13.654 71.1438 13.5122 69.4697C13.5122 68.6184 13.5122 67.7671 13.3419 66.9726C13.1717 66.1781 13.3419 65.412 13.3419 64.7594C13.3419 63.4825 13.3419 62.6312 13.3419 62.6312C13.3417 62.584 13.3514 62.5373 13.3702 62.4941C13.3891 62.4508 13.4168 62.4119 13.4515 62.3798C13.4861 62.3478 13.5271 62.3234 13.5717 62.3081C13.6164 62.2927 13.6638 62.2868 13.7108 62.2907C13.7738 62.3167 13.8283 62.3596 13.8683 62.4147C13.9084 62.4698 13.9324 62.5349 13.9378 62.6028V62.5745ZM7.58174 65.2701C7.58174 65.2701 7.75195 65.9795 7.97895 67.0578C7.97895 67.5685 8.20599 68.1928 8.29112 68.8738C8.37625 69.5548 8.48971 70.2642 8.60321 70.9736C8.80183 72.4207 8.88703 73.8111 8.94378 74.9461C9.00053 76.0811 8.94378 76.7621 8.94378 76.7621C8.94395 76.8093 8.93424 76.856 8.91538 76.8993C8.89652 76.9426 8.86884 76.9815 8.83415 77.0135C8.79947 77.0455 8.75852 77.07 8.71387 77.0853C8.66923 77.1007 8.62193 77.1066 8.57489 77.1026C8.50245 77.0989 8.43308 77.072 8.37694 77.0261C8.32079 76.9801 8.28075 76.9175 8.26272 76.8473C8.26272 76.8473 8.06413 76.1379 7.86551 75.088C7.66688 74.0381 7.3831 72.5626 7.21285 71.1438C7.21285 70.4061 7.07095 69.6967 7.0142 69.0157C6.95745 68.3347 7.0142 67.7104 7.0142 67.1713C7.0142 66.093 7.0142 65.3552 7.0142 65.3552C7.01403 65.308 7.02374 65.2613 7.0426 65.2181C7.06146 65.1748 7.08905 65.1359 7.12374 65.1038C7.15843 65.0718 7.19946 65.0474 7.24411 65.0321C7.28875 65.0167 7.33605 65.0108 7.38309 65.0147C7.43547 65.044 7.48057 65.0847 7.51497 65.1338C7.54937 65.183 7.5722 65.2393 7.58174 65.2985V65.2701Z" fill="#F18380"/>
<path d="M34.8553 146.467L33.528 135.849L5.21287 138.061L5.65529 148.679L34.8553 146.467Z" fill="#CFD1CE"/>
<path d="M117.185 97.9764C117.185 97.9764 100.053 107.869 97.3787 109.6C94.7048 111.332 91.6843 114.003 92.229 121.224C92.7737 128.446 95.0762 225.659 95.0762 225.659C103.869 227.147 129.619 227.147 129.619 227.147H131.96H133.716H136.057H137.813H139.568C139.568 227.147 177.743 223.903 178.511 223.458C179.278 223.012 179.996 222.542 179.947 221.702C179.897 220.861 179.402 122.041 179.08 117.688C179.017 115.357 178.282 113.093 176.965 111.168C175.648 109.243 173.804 107.737 171.653 106.83C166.478 104.53 147.043 96.6409 147.043 96.6409L130.72 97.9764H117.185Z" fill="#034CC9"/>
<path d="M117.185 97.9764C117.185 97.9764 100.053 107.869 97.3788 109.6C94.7049 111.332 91.6845 114.003 92.2291 121.224C92.7738 128.446 95.0763 225.659 95.0763 225.659C103.869 227.147 117.915 227.147 117.915 227.147H120.256H122.012H124.353H126.108H127.864C127.864 227.147 125.073 223.903 125.84 223.458C126.608 223.012 127.326 222.542 127.276 221.702C127.227 220.861 126.732 122.041 126.41 117.688C126.346 115.357 125.612 113.093 124.295 111.168C122.977 109.243 121.133 107.737 118.982 106.83C113.808 104.53 147.043 96.6409 147.043 96.6409L130.72 97.9764H117.185Z" fill="#0045BA"/>
<path d="M115.241 98.119C115.241 98.119 96.3001 109.068 93.344 110.984C90.3879 112.9 92.7503 117.124 92.7503 124.732C92.7503 134.681 94.506 135.266 94.506 135.266C100.429 138.462 103.02 135.969 109.548 137.608C112.723 137.964 115.187 138.046 117.322 135.966C119.457 133.885 126.108 134.681 126.108 134.681C126.108 134.681 136.126 133.365 140.807 135.966C141.926 136.746 143.191 137.294 144.527 137.576C145.862 137.858 146.912 137.837 148.252 137.576C155.04 136.18 182.193 128.384 183.041 127.891C183.89 127.398 184.683 126.878 184.629 125.947C184.574 125.017 184.026 124.752 183.671 119.934C183.6 117.354 182.788 114.849 181.332 112.718C179.876 110.588 177.837 108.921 175.459 107.918C169.738 105.372 148.252 96.6409 148.252 96.6409L130.205 97.2261L115.241 98.119Z" fill="#9A99A1"/>
<path d="M128.648 94.0034C136.789 94.0034 144.133 90.464 146.788 88.6943V96.658C146.493 97.1004 144.222 98.5161 137.497 100.64C130.772 102.763 121.127 101.967 117.145 100.64V92.6761C117.145 93.1186 118.472 94.0034 128.648 94.0034Z" fill="#034CC9"/>
<path d="M128.206 226.73C125.945 225.972 123.967 224.51 122.541 222.546C121.115 220.582 120.313 218.21 120.242 215.756V94.4458H128.206V226.73Z" fill="#034CC9"/>
<path d="M92.7507 138.246H132.889V129.397L92.7507 129.414C92.7507 133.51 92.7507 134.681 92.7507 138.246Z" fill="#D3D4D2"/>
<path d="M165.338 129.397H124.925V138.246H166.166C165.628 134.264 165.338 132.494 165.338 129.397Z" fill="#CFD1CE"/>
<g style="mix-blend-mode:multiply" opacity="0.4">
<path d="M129.091 101.786L128.206 101.967V226.73H129.091V101.786Z" fill="#013FA9"/>
</g>
<path d="M182.126 112.773C188.319 120.737 224.156 218.07 224.156 218.07C190.974 207.452 194.088 178.755 176.041 181.791C176.041 181.791 155.231 132.947 154.436 128.577C153.607 125.132 153.979 121.507 155.491 118.303C157.003 115.098 159.564 112.506 162.75 110.956C171.632 106.416 175.932 104.809 182.126 112.773Z" fill="#0045BA"/>
<path d="M164.312 158.768C159.29 153.688 149.897 142.736 146.719 140.068C143.577 137.701 140.144 135.746 136.504 134.251C133.743 133.326 130.888 132.708 127.992 132.407C125.977 132.152 125.154 132.748 125.154 133.968C125.205 134.695 125.436 135.397 125.828 136.012C126.219 136.626 126.758 137.133 127.396 137.486H123.679C122.402 137.486 121.579 138.508 122.175 140.153C122.716 141.241 123.49 142.196 124.441 142.951C125.392 143.706 126.498 144.243 127.68 144.523C127.68 144.523 122.657 145.006 121.38 145.261C120.103 145.516 119.706 145.999 119.706 147.219C119.717 148.062 119.951 148.887 120.385 149.609C120.819 150.332 121.436 150.927 122.175 151.333C123.982 152.067 125.901 152.489 127.85 152.582C127.85 152.582 121.636 154.142 120.387 154.596C119.139 155.05 118.997 155.873 119.649 156.952C120.021 157.711 120.558 158.378 121.221 158.903C121.884 159.429 122.656 159.799 123.48 159.988C125.835 160.612 127.424 159.591 128.275 159.732C130.104 160.322 131.895 161.023 133.638 161.832C136.256 164.438 139.456 166.383 142.974 167.507C145.593 168.606 147.995 170.163 150.068 172.104C151.033 173.01 152.171 173.713 153.413 174.172C154.655 174.631 155.977 174.836 157.299 174.775C158.622 174.714 159.919 174.389 161.114 173.818C162.309 173.247 163.377 172.442 164.255 171.451C168.795 166.628 168.029 162.598 164.312 158.768Z" fill="#FBBEAA"/>
<path d="M147.618 176.04L193.297 227.405C198.771 234.701 211.562 238.71 219.377 231.951C220.822 230.685 221.995 229.138 222.825 227.405C223.655 225.672 224.124 223.789 224.203 221.869C224.283 219.949 223.972 218.033 223.289 216.237C222.606 214.441 221.565 212.802 220.23 211.421L164.872 153.476L147.618 176.04Z" fill="#0045BA"/>
<path d="M128.019 137.515C128.011 137.561 128.013 137.61 128.025 137.656C128.037 137.702 128.058 137.745 128.087 137.782C128.117 137.82 128.154 137.851 128.196 137.873C128.238 137.895 128.284 137.908 128.332 137.912L130.658 138.139H131.793C132.191 138.139 132.559 138.281 132.957 138.309C133.376 138.435 133.785 138.596 134.177 138.791L135.482 139.331C137.241 140.04 139.001 140.693 140.306 141.175C141.611 141.657 142.519 141.941 142.519 141.941C142.591 141.971 142.672 141.974 142.745 141.947C142.819 141.921 142.88 141.868 142.916 141.799C142.969 141.73 142.998 141.645 142.998 141.558C142.998 141.471 142.969 141.386 142.916 141.317L140.788 140.21L138.575 139.16C137.781 138.791 136.901 138.422 136.021 138.082L134.688 137.571C134.259 137.377 133.812 137.225 133.354 137.117L131.992 136.975H130.829H129.098H128.445C128.374 136.919 128.283 136.893 128.192 136.904C128.102 136.915 128.019 136.961 127.963 137.032C127.906 137.104 127.88 137.195 127.891 137.285C127.902 137.376 127.948 137.458 128.019 137.515ZM128.559 144.353H129.069C129.494 144.315 129.921 144.315 130.346 144.353L131.226 144.495C131.55 144.535 131.872 144.592 132.191 144.665L134.12 145.289C135.425 145.715 136.702 146.254 137.667 146.651C137.667 146.651 137.979 146.651 137.951 146.793H138.291L138.802 146.935H139.114H139.284C139.37 146.955 139.445 147.008 139.492 147.082C139.54 147.156 139.557 147.246 139.54 147.332C139.527 147.4 139.493 147.462 139.442 147.508C139.39 147.555 139.325 147.583 139.256 147.588H137.809H137.355C136.362 147.332 135.028 146.935 133.723 146.481L131.822 145.772L130.942 145.545L130.176 145.318C129.784 145.202 129.386 145.107 128.984 145.034L128.502 144.892C128.459 144.879 128.419 144.858 128.384 144.829C128.35 144.801 128.321 144.766 128.3 144.726C128.279 144.687 128.266 144.644 128.261 144.599C128.257 144.554 128.262 144.509 128.275 144.466C128.308 144.425 128.352 144.392 128.402 144.373C128.452 144.353 128.506 144.346 128.559 144.353ZM128.559 152.412H129.608C129.892 152.412 130.261 152.411 130.63 152.61L131.793 152.979C132.525 153.237 133.237 153.55 133.921 153.915C134.236 154.063 134.54 154.234 134.83 154.426C134.887 154.493 134.919 154.579 134.919 154.667C134.919 154.756 134.887 154.842 134.83 154.909C134.748 154.995 134.636 155.046 134.517 155.05L133.467 154.88C132.872 154.738 132.105 154.511 131.339 154.256L130.233 153.802L129.268 153.433C128.947 153.291 128.634 153.13 128.332 152.951C128.251 152.903 128.192 152.827 128.166 152.737C128.139 152.648 128.148 152.552 128.19 152.468C128.274 152.414 128.375 152.394 128.473 152.412H128.559Z" fill="#F18380"/>
<path d="M201.593 189.312L192.302 181.791L173.72 205.24L181.241 214.088L201.593 189.312Z" fill="#CFD1CE"/>
<path d="M140.626 36.4277C142.009 40.5762 144.163 44.4257 146.974 47.7736H153.857C153.857 47.7736 159.192 41.5801 159.592 41.0729C160.171 40.4559 160.611 39.7221 160.882 38.9209C161.154 38.1197 161.251 37.2696 161.166 36.4277H140.626Z" fill="#676575"/>
<path d="M146.974 47.7737C146.974 61.1218 151.384 80.1008 130.646 84.1145C130.646 84.1145 143.933 83.413 149.028 76.8725C154.123 70.3319 153.856 47.6669 153.856 47.6669L146.974 47.7737Z" fill="#827F94"/>
<path d="M166.101 38.1365H98.7697C98.2571 32.0496 98.8353 25.92 100.477 20.0366C103.145 12.4015 108.48 3.05785 130.808 3.05785C153.136 3.05785 160.953 13.5227 162.526 21.4514C164.1 29.3802 163.353 31.9697 164.287 32.824C165.221 33.6783 166.101 33.705 166.101 34.9864V38.1365Z" fill="#EFEFEF"/>
<path d="M130.808 3.05797C125.939 2.96947 121.081 3.56252 116.376 4.81991H116.163L115.336 5.08687C113.082 5.78146 110.936 6.78784 108.96 8.07683C107.619 13.613 107.266 19.3431 107.92 25.0022H115.336L125.206 23.3203C125.206 23.3203 128.327 7.30265 139.425 3.56519C136.568 3.19005 133.689 3.02054 130.808 3.05797Z" fill="#D8D8D8"/>
<path d="M132.356 0.495087H117.284C115.683 0.495087 107.921 6.5284 107.921 27.1912H125.074C125.074 21.1045 126.141 5.1669 135.744 3.1647C135.717 3.21809 134.277 0.495087 132.356 0.495087Z" fill="#EFEFEF"/>
<path d="M88.0195 38.1364V34.2388C88.0215 33.6801 88.1386 33.1278 88.3638 32.6165C88.5889 32.1053 88.9171 31.6461 89.3278 31.2676C89.7385 30.8892 90.2229 30.5997 90.7505 30.4173C91.2782 30.2349 91.8379 30.1636 92.3945 30.2077H101.011C101.506 30.2308 102 30.1474 102.46 29.9632C102.921 29.779 103.336 29.4982 103.679 29.1398C104.239 28.4991 108.054 24.9218 108.507 24.3879C108.819 23.9802 109.224 23.6534 109.688 23.435C110.152 23.2167 110.662 23.1131 111.175 23.1332H123.713C124.225 23.1175 124.733 23.223 125.197 23.441C125.66 23.659 126.066 23.9835 126.38 24.3879C126.834 24.9218 130.649 28.4991 131.209 29.1398C131.55 29.4997 131.965 29.7814 132.426 29.9657C132.886 30.15 133.381 30.2325 133.876 30.2077H141.052C141.609 30.1636 142.169 30.2349 142.696 30.4173C143.224 30.5997 143.708 30.8892 144.119 31.2676C144.53 31.6461 144.858 32.1053 145.083 32.6165C145.308 33.1278 145.425 33.6801 145.427 34.2388V38.1364H88.0195Z" fill="#D8D8D8"/>
<path d="M136.704 121.982L137.448 121.99L137.438 122.918L138.232 122.926L138.241 121.998L138.985 122.006L138.959 124.542L138.215 124.534L138.226 123.53L137.432 123.522L137.422 124.526L136.678 124.519L136.704 121.982L136.704 121.982ZM141.638 122.033L141.612 124.569L140.894 124.562L140.914 122.627L140.443 122.622L140.435 123.35C140.432 123.677 140.403 124.078 140.203 124.301C140.002 124.55 139.629 124.623 139.209 124.542L139.215 123.913C139.61 123.994 139.712 123.842 139.717 123.34L139.731 122.009L141.638 122.028L141.638 122.033ZM142.259 122.039L143.003 122.047L143.408 123.558L143.844 122.056L144.587 122.063L144.909 124.603L144.216 124.596L144.057 123.237L143.645 124.59L143.149 124.585L142.767 123.224L142.581 124.579L141.887 124.572L142.259 122.039L142.259 122.039ZM145.208 122.07L145.951 122.077L145.941 123.107L146.67 122.085L147.488 122.093L146.534 123.339L147.488 124.63L146.596 124.621L145.938 123.584L145.928 124.614L145.184 124.606L145.21 122.07L145.208 122.07L145.208 122.07ZM142.037 119.323C137.576 119.277 134.608 120.88 134.583 123.29C134.558 125.676 137.49 127.363 141.954 127.409C146.44 127.455 149.383 125.827 149.407 123.442C149.432 121.033 146.525 119.369 142.037 119.323ZM141.957 127.033C137.767 126.99 134.983 125.48 135.006 123.294C135.029 121.085 137.845 119.655 142.033 119.698C146.246 119.742 149.009 121.226 148.987 123.438C148.964 125.624 146.173 127.077 141.957 127.033ZM142.029 120.051C138.089 120.01 135.447 121.315 135.427 123.298C135.406 125.282 138.021 126.641 141.961 126.681C145.901 126.722 148.543 125.417 148.564 123.434C148.586 121.45 145.972 120.091 142.029 120.051ZM141.962 126.607C138.069 126.567 135.482 125.234 135.502 123.301C135.521 121.369 138.138 120.089 142.028 120.129C145.919 120.169 148.509 121.502 148.489 123.435C148.471 125.368 145.854 126.647 141.962 126.607L141.962 126.607Z" fill="white"/>
</svg>
