<svg width="247" height="535" viewBox="0 0 247 535" fill="none" xmlns="http://www.w3.org/2000/svg">
<g opacity="0.3" filter="url(#filter0_f_1_88)">
<ellipse cx="106.5" cy="14.5" rx="106.5" ry="14.5" transform="matrix(1 0 0 -1 17 518)" fill="#CBCBCB"/>
</g>
<path d="M114.933 48.7621V69.3442C114.933 69.3442 116.557 76.4231 127.442 76.4231C129.603 76.6054 131.752 75.9533 133.447 74.6007C135.143 73.2482 136.256 71.2978 136.558 69.1503V48.7862L114.933 48.7621Z" fill="#FBBEAA"/>
<path d="M82.5445 211.601C83.0778 204.886 90.2779 179.14 98.0114 164.473C98.0114 164.473 114.882 166.604 125.746 166.64C137.082 166.676 154.691 164.473 154.691 164.473C159.734 175.891 165.479 200.837 167.152 206.219C168.162 209.386 168.284 212.768 167.507 215.999C166.729 219.231 165.08 222.187 162.74 224.547C156.994 231.068 142.182 238.535 138.764 238.535C124.057 236.434 109.643 232.643 95.8053 227.238C87.9991 223.965 82.0354 218.341 82.5445 211.601Z" fill="#013EA5"/>
<path d="M216.437 71.7679C216.537 69.5833 215.952 67.4221 214.764 65.586C212.935 63.4654 211.565 60.9891 210.74 58.3131C210.105 55.8291 209.091 53.4577 207.734 51.2826C206.764 49.9493 205.31 48.8584 205.31 47.8402C205.31 46.822 207.249 44.8583 210.013 45.4159C211.196 45.7847 212.284 46.4106 213.198 47.2488C214.111 48.087 214.829 49.1168 215.298 50.2645C215.562 49.5652 215.718 48.8293 215.758 48.0826L216.364 33.2218C216.374 32.8365 216.46 32.457 216.618 32.1057C216.776 31.7543 217.004 31.4383 217.286 31.1761C217.569 30.914 217.901 30.7111 218.263 30.5795C218.625 30.4478 219.01 30.3901 219.395 30.4096C220.007 30.4357 220.597 30.6533 221.079 31.0316C221.562 31.4099 221.914 31.93 222.086 32.5187V31.8399C222.179 31.1175 222.542 30.4571 223.102 29.9913C223.662 29.5255 224.378 29.2887 225.105 29.3286C225.832 29.3685 226.517 29.6821 227.023 30.2064C227.529 30.7306 227.818 31.4268 227.831 32.1551V34.2157C228.074 33.5804 228.537 33.0535 229.136 32.731C229.735 32.4086 230.429 32.312 231.093 32.4589C231.757 32.6058 232.347 32.9864 232.754 33.5314C233.16 34.0764 233.358 34.7495 233.31 35.4279V36.7369C233.571 36.2784 233.96 35.9058 234.429 35.6647C234.898 35.4236 235.428 35.3244 235.953 35.3793C236.671 35.4706 237.326 35.8379 237.778 36.4035C238.231 36.9691 238.446 37.6886 238.377 38.4097L237.189 50.9433C236.411 58.0095 234.949 64.9837 232.825 71.7679C232.8 72.9006 232.537 74.0154 232.055 75.0407C231.573 76.0659 230.881 76.979 230.025 77.721C229.169 78.4631 228.167 79.0177 227.083 79.3494C226 79.681 224.859 79.7824 223.734 79.6468C222.716 79.6808 221.703 79.4954 220.763 79.1033C219.823 78.7112 218.978 78.1215 218.286 77.3742C217.594 76.6269 217.07 75.7395 216.751 74.7722C216.432 73.8049 216.325 72.7803 216.437 71.7679Z" fill="#FBBEAA"/>
<path d="M134.739 467.411C134.739 465.077 135.666 462.839 137.317 461.188C138.967 459.538 141.205 458.611 143.539 458.611C145.873 458.611 148.112 459.538 149.762 461.188C151.412 462.839 152.34 465.077 152.34 467.411V486.539H134.739V467.411Z" fill="#FBBEAA"/>
<path d="M151.71 470.975C153.867 470.975 154.255 471.92 154.886 473.157C155.908 476.452 157.656 479.475 160.001 482.005C163.502 484.987 167.258 487.656 171.225 489.981V500.115H132.049C132.049 500.115 132.316 492.115 132.509 486.466C132.703 480.818 133.261 473.933 133.213 473.205C133.164 472.478 133.212 470.975 134.546 470.975H151.71Z" fill="#302D3B"/>
<path d="M136.921 487.023C136.916 488.267 137.281 489.485 137.969 490.521C138.657 491.557 139.638 492.366 140.786 492.844C141.934 493.322 143.199 493.448 144.419 493.207C145.639 492.965 146.76 492.367 147.64 491.487C148.519 490.608 149.118 489.487 149.359 488.267C149.601 487.046 149.474 485.782 148.996 484.634C148.518 483.485 147.709 482.505 146.673 481.817C145.637 481.129 144.42 480.764 143.176 480.769C141.519 480.775 139.932 481.436 138.76 482.608C137.588 483.779 136.927 485.366 136.921 487.023Z" fill="#0447BA"/>
<path d="M143.176 483.339L141.745 485.448L139.297 486.151L140.848 488.163L140.776 490.708L143.176 489.836L145.576 490.708L145.479 488.163L147.055 486.151L144.606 485.448L143.176 483.339Z" fill="white"/>
<path d="M170.958 489.812C170.958 489.812 176.51 492.745 178.595 494.175C179.56 494.829 180.344 495.717 180.874 496.755C181.404 497.794 181.662 498.95 181.625 500.115H166.4C166.4 500.115 166.716 492.672 170.958 489.812Z" fill="white"/>
<path d="M132.049 500.115V504.309C132.049 505.012 132.679 505.4 133.746 505.4H179.953C180.995 505.4 181.625 505.012 181.625 504.309V500.115H132.049Z" fill="white"/>
<path d="M166.4 486.975C166.535 486.769 166.744 486.623 166.984 486.569C167.224 486.515 167.475 486.556 167.685 486.684C167.79 486.748 167.88 486.833 167.952 486.933C168.023 487.033 168.074 487.146 168.101 487.265C168.128 487.385 168.131 487.509 168.11 487.63C168.088 487.751 168.043 487.866 167.976 487.969L166.352 490.587C166.274 490.723 166.16 490.835 166.024 490.912C165.887 490.989 165.733 491.027 165.576 491.024C165.397 491.021 165.221 490.971 165.067 490.878C164.962 490.814 164.872 490.729 164.8 490.63C164.729 490.53 164.678 490.417 164.651 490.297C164.624 490.177 164.621 490.053 164.643 489.933C164.664 489.812 164.709 489.696 164.776 489.593L166.4 486.975Z" fill="white"/>
<path d="M163.54 484.963C163.619 484.87 163.716 484.795 163.825 484.74C163.934 484.685 164.053 484.652 164.174 484.643C164.296 484.634 164.418 484.649 164.534 484.687C164.65 484.726 164.757 484.786 164.849 484.866C164.941 484.945 165.017 485.042 165.072 485.151C165.127 485.26 165.16 485.379 165.169 485.5C165.178 485.622 165.163 485.744 165.124 485.86C165.086 485.975 165.026 486.083 164.946 486.175L163.055 488.405C162.968 488.507 162.86 488.59 162.739 488.649C162.618 488.707 162.486 488.74 162.352 488.745C162.176 488.741 162.005 488.689 161.858 488.594C161.71 488.499 161.592 488.364 161.516 488.206C161.441 488.047 161.411 487.871 161.43 487.696C161.449 487.522 161.517 487.356 161.625 487.217L163.54 484.963Z" fill="white"/>
<path d="M160.849 482.709C161.042 482.584 161.274 482.534 161.501 482.568C161.727 482.602 161.934 482.717 162.083 482.892C162.231 483.067 162.311 483.29 162.307 483.519C162.303 483.749 162.216 483.969 162.061 484.139L159.904 486.006C159.735 486.149 159.519 486.226 159.298 486.224C159.164 486.229 159.031 486.203 158.91 486.148C158.788 486.093 158.68 486.011 158.595 485.909C158.505 485.825 158.434 485.723 158.385 485.611C158.336 485.498 158.311 485.377 158.311 485.254C158.311 485.131 158.336 485.01 158.385 484.897C158.434 484.785 158.505 484.683 158.595 484.6L160.849 482.709Z" fill="white"/>
<path d="M156.121 481.593L158.546 480.09C158.758 479.964 159.012 479.927 159.252 479.986C159.492 480.045 159.7 480.195 159.83 480.405C159.896 480.51 159.94 480.626 159.96 480.748C159.979 480.87 159.974 480.995 159.945 481.114C159.915 481.234 159.862 481.347 159.789 481.446C159.715 481.545 159.622 481.628 159.515 481.69L157.091 483.193C156.947 483.289 156.779 483.339 156.606 483.339C156.448 483.335 156.294 483.291 156.158 483.21C156.022 483.129 155.909 483.015 155.83 482.878C155.702 482.668 155.661 482.417 155.715 482.177C155.77 481.937 155.915 481.727 156.121 481.593Z" fill="white"/>
<path d="M154.085 478.466L156.8 477.327C157.032 477.23 157.292 477.23 157.524 477.325C157.756 477.421 157.94 477.604 158.036 477.836C158.084 477.949 158.108 478.07 158.108 478.192C158.108 478.315 158.084 478.436 158.036 478.549C157.989 478.662 157.919 478.764 157.832 478.85C157.745 478.935 157.641 479.003 157.527 479.048L154.812 480.188H154.449C154.239 480.176 154.04 480.096 153.881 479.959C153.723 479.822 153.614 479.637 153.573 479.431C153.531 479.226 153.559 479.013 153.651 478.825C153.744 478.637 153.897 478.485 154.085 478.394V478.466Z" fill="white"/>
<path d="M152.388 474.975L155.394 474.223C155.632 474.165 155.883 474.204 156.092 474.332C156.302 474.459 156.452 474.664 156.509 474.902C156.567 475.14 156.528 475.391 156.401 475.6C156.274 475.809 156.069 475.959 155.831 476.017L152.849 476.793H152.631C152.422 476.791 152.219 476.721 152.053 476.594C151.887 476.468 151.767 476.291 151.709 476.09C151.657 475.852 151.699 475.604 151.825 475.396C151.952 475.189 152.153 475.038 152.388 474.975Z" fill="white"/>
<path d="M121.866 345.082C122.133 333.348 130.036 327.676 141.745 327.967C153.455 328.257 161.891 334.391 161.624 346.1L152.339 468.357H134.739L121.866 345.082Z" fill="#FBBEAA"/>
<path d="M120.34 345.009C120.405 342.223 121.018 339.478 122.145 336.929C123.271 334.38 124.888 332.078 126.904 330.155C128.92 328.231 131.295 326.723 133.894 325.718C136.492 324.712 139.263 324.228 142.049 324.293C144.835 324.359 147.58 324.972 150.129 326.098C152.678 327.224 154.98 328.842 156.903 330.858C158.827 332.874 160.334 335.249 161.34 337.847C162.346 340.446 162.83 343.217 162.765 346.003L165.678 472.465H117.75L120.34 345.009Z" fill="#013EA5"/>
<path d="M60.5562 467.411C60.5562 465.077 61.4833 462.839 63.1337 461.188C64.784 459.538 67.0224 458.611 69.3563 458.611C71.6903 458.611 73.9286 459.538 75.579 461.188C77.2293 462.839 78.1565 465.077 78.1565 467.411V486.539H60.5562V467.411Z" fill="#FBBEAA"/>
<path d="M77.5019 470.975C79.6838 470.975 80.0717 471.92 80.6778 473.157C81.7117 476.452 83.4675 479.475 85.8172 482.005C89.3136 484.993 93.0701 487.662 97.0417 489.981V500.115H57.8652C57.8652 500.115 58.1319 492.115 58.3259 486.466C58.5198 480.818 59.0532 473.933 59.0289 473.205C59.0047 472.478 59.0289 470.975 60.338 470.975H77.5019Z" fill="#302D3B"/>
<path d="M62.7139 487.023C62.7091 488.266 63.0733 489.482 63.7603 490.518C64.4473 491.554 65.4263 492.363 66.5731 492.842C67.72 493.32 68.9833 493.448 70.2028 493.209C71.4224 492.969 72.5435 492.373 73.424 491.496C74.3046 490.619 74.905 489.5 75.1492 488.281C75.3935 487.063 75.2706 485.799 74.796 484.65C74.3215 483.502 73.5168 482.52 72.4837 481.829C71.4506 481.137 70.2357 480.769 68.9928 480.769C67.3318 480.769 65.7384 481.427 64.5615 482.599C63.3847 483.771 62.7203 485.362 62.7139 487.023Z" fill="#0447BA"/>
<path d="M68.9687 483.339L67.5384 485.448L65.0898 486.151L66.6657 488.163L66.5929 490.708L68.9687 489.836L71.3688 490.708L71.296 488.163L72.8718 486.151L70.399 485.448L68.9687 483.339Z" fill="white"/>
<path d="M96.7505 489.812C96.7505 489.812 102.326 492.745 104.387 494.175C105.357 494.824 106.145 495.711 106.675 496.751C107.206 497.79 107.461 498.949 107.417 500.115H92.1201C92.1201 500.115 92.5323 492.672 96.7505 489.812Z" fill="white"/>
<path d="M57.8652 500.115V504.309C57.8652 505.012 58.4713 505.4 59.538 505.4H105.793C106.86 505.4 107.466 505.012 107.466 504.309V500.115H57.8652Z" fill="white"/>
<path d="M92.2172 486.975C92.349 486.766 92.5585 486.618 92.7994 486.564C93.0404 486.509 93.2931 486.552 93.5021 486.684C93.711 486.816 93.8591 487.025 93.9137 487.266C93.9682 487.507 93.9248 487.76 93.793 487.969L92.1688 490.587C92.0847 490.723 91.9667 490.835 91.8265 490.911C91.6862 490.988 91.5285 491.027 91.3687 491.024C91.1963 491.024 91.0276 490.974 90.8839 490.878C90.7794 490.814 90.6887 490.729 90.6173 490.63C90.5459 490.53 90.4952 490.417 90.4681 490.297C90.441 490.177 90.438 490.053 90.4595 489.933C90.4809 489.812 90.5263 489.696 90.5929 489.593L92.2172 486.975Z" fill="white"/>
<path d="M89.3323 484.963C89.4922 484.777 89.7181 484.66 89.9624 484.637C90.2066 484.615 90.4501 484.688 90.6414 484.842C90.8291 485.006 90.9465 485.236 90.969 485.484C90.9916 485.732 90.9177 485.98 90.7626 486.175L88.8474 488.405C88.7634 488.511 88.6565 488.597 88.5348 488.655C88.413 488.714 88.2796 488.745 88.1444 488.745C87.9667 488.747 87.7923 488.697 87.6421 488.602C87.492 488.507 87.3726 488.37 87.2983 488.209C87.224 488.047 87.1979 487.868 87.2233 487.692C87.2487 487.516 87.3244 487.351 87.4413 487.217L89.3323 484.963Z" fill="white"/>
<path d="M86.6661 482.709C86.8589 482.584 87.0904 482.534 87.3174 482.568C87.5443 482.602 87.7513 482.717 87.8996 482.892C88.048 483.067 88.1276 483.29 88.1236 483.519C88.1197 483.749 88.0325 483.969 87.8782 484.139L85.6964 486.006C85.5272 486.149 85.312 486.226 85.0903 486.224C84.9571 486.227 84.8249 486.2 84.7032 486.146C84.5816 486.091 84.4737 486.01 84.3873 485.909C84.3008 485.823 84.2321 485.721 84.1852 485.609C84.1384 485.496 84.1143 485.376 84.1143 485.254C84.1143 485.132 84.1384 485.012 84.1852 484.899C84.2321 484.787 84.3008 484.685 84.3873 484.6L86.6661 482.709Z" fill="white"/>
<path d="M81.9382 481.593L84.3625 480.09C84.5716 480.002 84.8055 479.992 85.0214 480.062C85.2374 480.132 85.421 480.277 85.5386 480.471C85.6563 480.665 85.7001 480.895 85.6622 481.119C85.6243 481.343 85.5072 481.546 85.3322 481.69L82.9079 483.193C82.7642 483.289 82.5955 483.339 82.423 483.339C82.2614 483.337 82.1031 483.293 81.963 483.213C81.8229 483.132 81.7059 483.017 81.623 482.878C81.4971 482.665 81.4595 482.412 81.5184 482.171C81.5773 481.931 81.728 481.724 81.9382 481.593Z" fill="white"/>
<path d="M216.147 73.3926L206.45 134.266C204.85 141.903 207.322 148.812 216.147 150.024C217.776 150.236 219.431 150.115 221.011 149.668C222.592 149.221 224.065 148.458 225.342 147.424C226.618 146.39 227.671 145.107 228.437 143.654C229.202 142.201 229.665 140.607 229.795 138.969L232.753 73.5138C233.529 67.3319 230.838 63.2106 226.135 62.7015C220.365 62.0712 217.31 65.4895 216.147 73.3926Z" fill="#FBBEAA"/>
<path d="M79.9027 478.466L82.6179 477.327C82.7308 477.28 82.852 477.255 82.9744 477.255C83.0968 477.255 83.2179 477.28 83.3308 477.327C83.4436 477.374 83.5459 477.444 83.6316 477.531C83.7174 477.619 83.7848 477.722 83.8301 477.836C83.9206 478.062 83.9207 478.313 83.8304 478.539C83.7401 478.765 83.5664 478.947 83.3452 479.048L80.6058 480.187C80.494 480.213 80.3781 480.213 80.2664 480.187C80.0797 480.187 79.8972 480.132 79.7419 480.029C79.5866 479.925 79.4654 479.778 79.3936 479.606C79.32 479.387 79.3315 479.148 79.4258 478.937C79.5201 478.725 79.6904 478.558 79.9027 478.466Z" fill="white"/>
<path d="M78.2043 474.975L81.1862 474.224C81.4272 474.165 81.6818 474.203 81.8949 474.33C82.1081 474.457 82.2628 474.662 82.3257 474.902C82.3546 475.02 82.3599 475.142 82.3414 475.262C82.3229 475.382 82.2809 475.497 82.2179 475.601C82.1548 475.704 82.0719 475.795 81.9739 475.866C81.8759 475.938 81.7647 475.989 81.6468 476.017L78.665 476.793H78.4226C78.2041 476.777 77.9983 476.684 77.8402 476.533C77.6822 476.381 77.5816 476.179 77.5559 475.962C77.5301 475.744 77.5807 475.524 77.699 475.34C77.8173 475.156 77.9959 475.018 78.2043 474.951V474.975Z" fill="white"/>
<path d="M70.181 344.718C71.3718 339.215 74.6992 334.41 79.4317 331.36C84.1641 328.309 89.9142 327.263 95.4178 328.451C106.885 330.875 113.067 342.173 110.594 353.639L78.1569 470.369H60.3384L70.181 344.718Z" fill="#FBBEAA"/>
<path d="M70.1809 342.415C71.4966 337.044 74.8552 332.398 79.5427 329.465C84.2302 326.532 89.8768 325.543 95.2822 326.708C100.688 327.873 105.425 331.1 108.488 335.704C111.551 340.308 112.698 345.924 111.685 351.36L100.286 471.331C100.286 471.331 69.4003 473.174 51 471.331L70.1809 342.415Z" fill="#013EA5"/>
<path d="M224.026 127.527L154.4 74.6288C146.279 69.4408 140.752 72.2045 136.436 77.7561C134.466 80.4432 133.552 83.7611 133.869 87.0782C134.187 90.3953 135.713 93.4798 138.158 95.7444L207.613 146.921C210.061 148.988 213.212 150.031 216.409 149.832C219.607 149.634 222.604 148.209 224.777 145.854L225.092 145.515C226.246 144.285 227.136 142.832 227.709 141.247C228.283 139.661 228.527 137.975 228.427 136.291C228.327 134.608 227.886 132.963 227.129 131.456C226.372 129.949 225.316 128.612 224.026 127.527Z" fill="#FBBEAA"/>
<path d="M138.158 95.7202C137.515 95.1669 136.93 94.5496 136.412 93.8777C135.954 92.1523 135.896 90.3453 136.24 88.5938C136.584 86.8422 137.323 85.1921 138.4 83.7685C142.061 78.1199 149.746 73.6835 153.164 74.532L156.558 76.2532L194.983 105.345C191.582 113.337 186.988 120.767 181.359 127.381L138.158 95.7202Z" fill="#F18380"/>
<path d="M148.654 70.8468L208.907 111.484C208.653 113.562 213.536 70.8468 213.536 70.8468L235.837 72.9284C235.837 72.9284 234.535 116.418 231.253 139.386C229.95 148.501 222.363 151.957 213.367 149.995C208.926 149.026 204.744 147.203 201.023 144.591C185.034 133.368 140.176 101.757 136.509 97.7806C130.181 90.9199 130.181 85.7804 133.818 80.1318C137.454 74.4832 145.236 69.9983 148.654 70.8468Z" fill="#013EA5"/>
<path d="M120.339 345.009L107.902 214.801C107.902 200.425 122.715 184.764 144.558 188.134C164.291 191.213 170.303 211.043 168.679 229.832C167.055 248.62 162.667 345.93 162.667 345.93C162.602 348.716 161.988 351.462 160.862 354.01C159.736 356.559 158.118 358.861 156.103 360.784C154.087 362.708 151.712 364.216 149.113 365.221C146.514 366.227 143.743 366.711 140.957 366.646C138.172 366.581 135.426 365.967 132.878 364.841C130.329 363.715 128.027 362.097 126.104 360.081C124.18 358.066 122.672 355.691 121.666 353.092C120.661 350.493 120.177 347.722 120.242 344.936L120.339 345.009Z" fill="#013EA5"/>
<path d="M70.1811 342.415L82.545 212.231C85.1632 198.098 102.739 185.564 123.564 192.982C142.352 199.698 144.534 220.304 139.394 238.462C134.255 256.62 111.685 351.361 111.685 351.361C110.369 356.731 107.011 361.377 102.323 364.31C97.6356 367.243 91.9889 368.233 86.5836 367.068C81.1782 365.903 76.4403 362.675 73.3773 358.071C70.3143 353.468 69.1676 347.851 70.1811 342.415Z" fill="#013EA5"/>
<path d="M139.394 238.462C134.279 256.62 111.685 351.361 111.685 351.361" stroke="#E9E9E9" stroke-width="0.75" stroke-miterlimit="10"/>
<path d="M135.758 68.786C135.758 68.786 146.473 70.6527 148.558 71.2103C149.788 71.499 150.925 72.0953 151.862 72.9433C152.799 73.7913 153.506 74.8633 153.916 76.0588C155.249 79.2346 162.11 100.035 162.74 102.29C163.166 104.773 162.766 107.328 161.601 109.562C160.607 112.278 155.467 124.642 155.467 124.642L154.691 164.472L125.747 169.063L98.0116 164.472C98.0116 164.472 88.3145 90.3864 87.8296 85.8045C87.3448 81.2226 89.6236 72.374 95.1025 71.2588C100.581 70.1436 115.612 68.8345 115.612 68.8345L135.758 68.786Z" fill="#FBBEAA"/>
<path d="M156.05 148.457V162.46C137.092 164.206 106.885 162.97 95.539 162.46C95.0056 158.46 94.448 151.672 93.8662 147.163C109.309 147.551 134.814 148.99 156.05 148.457Z" fill="white"/>
<path d="M56.071 160.909L87.1261 79.1862C91.2716 70.4588 97.405 69.877 104.096 72.3013C107.191 73.5358 109.722 75.8671 111.207 78.8499C112.692 81.8327 113.026 85.2579 112.145 88.4713L80.1684 168.739C79.1991 171.793 77.0845 174.353 74.2683 175.88C71.4521 177.408 68.1535 177.786 65.0651 176.933L64.6045 176.812C62.9753 176.368 61.4538 175.596 60.1326 174.544C58.8114 173.492 57.7183 172.183 56.9199 170.695C56.1214 169.207 55.6344 167.571 55.4884 165.889C55.3425 164.207 55.5407 162.512 56.071 160.909Z" fill="#FBBEAA"/>
<path d="M136.048 64.2346C136.653 64.2346 137.938 64.2346 139.072 64.6126C139.072 65.5198 137.056 66.2505 136.048 66.5025C135.796 65.7466 135.443 64.2346 136.048 64.2346Z" fill="#013FA9"/>
<path d="M68.9438 127.017L87.126 79.1861C87.6136 78.1372 88.1894 77.1316 88.8472 76.18C91.0744 74.7856 93.6241 73.9904 96.249 73.8715C98.874 73.7525 101.485 74.3139 103.829 75.5012C106.551 76.8258 108.739 79.0403 110.031 81.7781C111.323 84.5159 111.641 87.6128 110.932 90.556C110.932 90.8469 110.763 91.4045 110.617 92.1561L91.8533 139.308C83.6573 136.353 75.9388 132.212 68.9438 127.017Z" fill="#F18380"/>
<path d="M89.5552 73.6843C84.2633 80.4883 53.646 163.646 53.646 163.646C81.9953 154.574 79.3352 130.057 94.7537 132.651C94.7537 132.651 112.533 90.92 113.212 87.1866C113.92 84.2434 113.603 81.1466 112.311 78.4088C111.019 75.671 108.831 73.4564 106.109 72.1318C98.5209 68.253 94.847 66.8803 89.5552 73.6843Z" fill="#0045BA"/>
<path d="M136.558 65.9017C129.721 69.1502 119.757 66.2411 114.933 57.3198V48.7621H136.558V65.9017Z" fill="#F18380"/>
<path d="M140.996 68.7705C146.599 69.836 149.131 69.9633 150.554 70.9015C152.805 72.4118 164.397 92.8764 164.397 102.111C164.397 110.28 162.42 175.631 160.772 176.696C159.124 177.762 129.622 179.144 129.622 179.144V86.604C132.616 77.3363 138.872 74.7659 140.996 68.7705Z" fill="#0045BA"/>
<path d="M150.554 70.9015C149.131 69.9633 143.541 69.08 137.938 68.0145C135.814 74.0099 132.616 77.3363 129.622 86.604V102.111H164.397C164.397 92.8764 152.805 72.4118 150.554 70.9015Z" fill="#9A99A1"/>
<path d="M129.244 65.7466C122.289 65.7466 116.015 62.7226 113.747 61.2107V68.0145C113.999 68.3925 115.939 69.6021 121.684 71.4164C127.43 73.2308 135.67 72.5504 139.072 71.4164V64.6126C139.072 64.9906 137.938 65.7466 129.244 65.7466Z" fill="#034CC9"/>
<path d="M164.386 103.546H129.622V95.9859L163.398 96.316C164.057 98.9152 164.471 100.771 164.386 103.546Z" fill="#D3D4D2"/>
<path d="M85.1019 172.447C85.1019 164.879 83.901 146.888 90.6415 129.473C96.5072 130.894 109.255 87.7417 96.5072 73.3585C92.2709 68.5788 88.547 75.495 89.664 73.7136C90.7809 71.9323 92.0189 70.1839 93.8429 69.3454C97.0972 67.7665 104.328 68.0312 110.845 68.0312C118.666 77.6204 126.767 79.7551 129.622 86.6198V179.11C129.622 179.11 85.1019 180.015 85.1019 172.447Z" fill="#034CC9"/>
<path d="M85.1019 172.447C85.1019 164.879 83.901 146.888 90.6415 129.473C96.5072 130.894 109.255 87.7417 96.5072 73.3585C92.2709 68.5788 88.547 75.495 89.664 73.7136C90.7809 71.9323 92.0189 70.1839 93.8429 69.3454C97.0972 67.7665 104.328 68.0312 110.845 68.0312C118.666 77.6204 126.767 79.7551 129.622 86.6198V179.11C129.622 179.11 85.1019 180.015 85.1019 172.447Z" fill="#034CC9"/>
<path d="M89.555 73.6844C88.4381 75.4658 92.2709 68.5787 96.5072 73.3584C101.862 79.4004 102.718 90.519 101.475 101.278H129.622L129.622 72.5504C122.062 71.7944 118.282 70.6605 113.746 68.0145C107.229 68.0145 96.9671 67.5696 93.7128 69.1485C91.8888 69.987 90.672 71.9031 89.555 73.6844Z" fill="#A2A0AB"/>
<path d="M129.622 179.144C131.554 178.496 133.244 177.247 134.462 175.569C135.68 173.891 136.366 171.865 136.426 169.768V66.1245H129.622V179.144Z" fill="#034CC9"/>
<path d="M101.898 95.9859H136.426V103.546H101.19C101.65 100.144 101.898 98.6318 101.898 95.9859Z" fill="#CFD1CE"/>
<g style="mix-blend-mode:multiply" opacity="0.4">
<path d="M128.866 72.3955L129.622 72.5504V179.144H128.866V72.3955Z" fill="#013FA9"/>
</g>
<path d="M114.666 10.7241C113.381 7.62103 106.909 6.2392 103.272 7.9362C99.6357 9.6332 95.9992 14.0938 95.4659 26.2152C94.9325 38.3367 95.9265 47.5974 93.7446 53.7066C95.7614 53.4516 97.6585 52.6085 99.1993 51.2823C99.1993 52.8824 99.4417 56.7612 99.4417 56.7612C100.615 56.6659 101.737 56.2361 102.673 55.5228C103.61 54.8096 104.323 53.8428 104.727 52.7369C105.384 54.136 105.802 55.6358 105.963 57.1734C108.096 56.0582 114.666 54.1188 114.666 42.6277V10.7241Z" fill="#1D1B24"/>
<path d="M156.921 50.9918C156.267 42.1917 153.673 27.646 153.673 27.646L147.467 27.3066C147.467 27.3066 145.818 53.5131 145.358 59.2344C144.897 64.9557 143.249 66.5072 143.249 66.5072C143.249 66.5072 151.127 65.4163 152.364 58.0222C152.545 59.47 152.642 60.927 152.655 62.386C152.655 62.386 157.6 59.792 156.921 50.9918Z" fill="#302D3B"/>
<path d="M150.06 32.9795C150.163 37.9024 149.937 42.8266 149.382 47.7192C148.509 54.7253 146.036 62.4831 133.648 62.4831C121.26 62.4831 114.981 56.883 112.314 47.7192C110.714 42.1918 107.466 33.9977 108.799 24.543C110.132 15.0883 115.83 8.90644 129.284 8.5428C142.739 8.17916 151.467 14.1913 150.06 32.9795Z" fill="#FBBEAA"/>
<path d="M123.854 37.1733C123.936 37.5376 124.119 37.8715 124.382 38.1366C124.645 38.4017 124.977 38.5874 125.341 38.6725C125.704 38.7575 126.085 38.7384 126.438 38.6173C126.791 38.4963 127.103 38.2782 127.338 37.988C127.573 37.6979 127.722 37.3474 127.767 36.9767C127.812 36.606 127.752 36.2301 127.593 35.8921C127.434 35.5541 127.184 35.2676 126.87 35.0654C126.556 34.8633 126.191 34.7536 125.818 34.7491C125.528 34.7762 125.247 34.8608 124.991 34.998C124.735 35.1352 124.509 35.3222 124.326 35.5481C124.143 35.7739 124.007 36.034 123.926 36.3131C123.845 36.5922 123.82 36.8847 123.854 37.1733Z" fill="#403D4F"/>
<path d="M141.891 37.1733C141.973 37.5387 142.157 37.8733 142.421 38.1388C142.685 38.4043 143.019 38.5898 143.383 38.674C143.748 38.7582 144.13 38.7375 144.483 38.6145C144.837 38.4915 145.149 38.2712 145.383 37.9788C145.616 37.6864 145.763 37.3339 145.805 36.9618C145.848 36.5898 145.784 36.2133 145.622 35.8758C145.46 35.5383 145.205 35.2535 144.889 35.0542C144.572 34.8548 144.205 34.7491 143.83 34.7491C143.543 34.7792 143.265 34.866 143.011 35.0045C142.758 35.143 142.534 35.3305 142.354 35.556C142.174 35.7815 142.04 36.0406 141.96 36.3182C141.881 36.5959 141.857 36.8865 141.891 37.1733Z" fill="#403D4F"/>
<path d="M129.721 30.313L129.527 30.0948C129.324 29.921 129.105 29.7668 128.872 29.6342C128.571 29.4492 128.245 29.3103 127.903 29.2221C127.522 29.0787 127.121 28.9969 126.715 28.9797C126.328 28.9312 125.937 28.9312 125.551 28.9797C125.212 28.9502 124.872 28.9502 124.533 28.9797L123.587 29.2463C123.457 29.2987 123.347 29.3934 123.276 29.5153C123.206 29.6372 123.178 29.7793 123.197 29.9189C123.217 30.0584 123.283 30.1874 123.384 30.2852C123.486 30.383 123.617 30.444 123.757 30.4584H124.727C125.008 30.4219 125.294 30.4219 125.575 30.4584C125.89 30.4344 126.206 30.4344 126.521 30.4584C126.831 30.4989 127.138 30.5556 127.442 30.6282C127.733 30.6282 127.975 30.8221 128.218 30.8463C128.389 30.9221 128.568 30.9791 128.751 31.0161H128.945C129.1 31.0829 129.275 31.0875 129.433 31.0288C129.591 30.9701 129.72 30.8526 129.794 30.7009C129.83 30.6166 129.848 30.5259 129.848 30.4342C129.848 30.3426 129.83 30.2518 129.794 30.1675L129.721 30.313Z" fill="#403D4F"/>
<path d="M141.503 31.2337H141.672L142.036 31.0883H142.303C142.393 31.0334 142.491 30.9925 142.594 30.9671C142.8 30.8964 143.01 30.8397 143.224 30.7974C143.457 30.7632 143.694 30.7632 143.927 30.7974C144.128 30.7741 144.332 30.7741 144.533 30.7974H145.309C145.472 30.7911 145.626 30.7219 145.739 30.6043C145.852 30.4868 145.915 30.3301 145.915 30.167C145.917 30.0452 145.88 29.9258 145.811 29.8257C145.741 29.7257 145.642 29.65 145.527 29.6094L144.776 29.3428C144.51 29.2508 144.232 29.2017 143.951 29.1973C143.623 29.1373 143.286 29.1373 142.957 29.1973C142.322 29.2663 141.718 29.5096 141.212 29.9004C141.041 30.0351 140.886 30.1897 140.751 30.361C140.63 30.5065 140.63 30.5549 140.63 30.5549V30.7974C140.609 30.961 140.653 31.1263 140.753 31.2578C140.853 31.3892 141 31.4764 141.163 31.5004C141.236 31.4836 141.304 31.4509 141.363 31.4048C141.421 31.3588 141.469 31.3003 141.503 31.2337Z" fill="#403D4F"/>
<path d="M136.557 45.416C136.967 45.4194 137.373 45.337 137.748 45.1742C138.124 45.0113 138.462 44.7716 138.739 44.4705C138.841 44.3651 138.92 44.2394 138.97 44.1015C139.02 43.9636 139.041 43.8168 139.03 43.6705C139.03 43.4038 138.618 40.0583 138.472 38.8219C138.454 38.6975 138.389 38.5849 138.289 38.508C138.19 38.4311 138.064 38.3959 137.939 38.4097C137.819 38.4277 137.71 38.49 137.634 38.5842C137.558 38.6784 137.52 38.7979 137.527 38.9189C137.527 39.1128 138.06 43.5008 138.109 43.7675C137.91 43.9872 137.667 44.1615 137.395 44.2786C137.123 44.3958 136.829 44.453 136.533 44.4463C136.474 44.4462 136.415 44.4582 136.36 44.4816C136.306 44.5051 136.256 44.5393 136.216 44.5825C136.175 44.6256 136.143 44.6767 136.123 44.7324C136.102 44.7882 136.093 44.8476 136.097 44.9069C136.085 44.9721 136.089 45.0389 136.108 45.1024C136.126 45.1659 136.159 45.2244 136.203 45.2734C136.248 45.3224 136.302 45.3608 136.364 45.3855C136.425 45.4102 136.491 45.4206 136.557 45.416Z" fill="#F18380"/>
<path d="M146.642 9.58522C143.612 5.60939 134.06 0.348656 120.63 4.54267C107.199 8.73668 104.169 19.0642 104.12 27.4522C103.93 31.9837 104.871 36.4912 106.86 40.5676H110.642C116.654 38.7251 120.727 32.1068 123.151 27.7431C122.797 29.7848 122.74 31.867 122.981 33.9251C126.442 33.1697 129.669 31.5894 132.387 29.3189C131.738 31.0955 131.259 32.9301 130.957 34.7978C134.066 34.0722 136.913 32.4984 139.182 30.2515C141.45 28.0046 143.051 25.1725 143.806 22.0703C146.55 25.5874 148.674 29.5474 150.085 33.7795C152.094 32.8439 153.823 31.3981 155.099 29.586C156.375 27.7739 153.296 24.2772 153.5 22.0703C153.645 16.0338 151.491 11.1852 146.642 9.58522Z" fill="#302D3B"/>
<path d="M112.8 42.0465C112.606 38.7495 111.733 34.7737 107.709 35.4767C103.006 36.1797 102.545 48.9072 112.557 47.3799L112.8 42.0465Z" fill="#FBBEAA"/>
<path d="M107.32 42.8953C107.405 42.8965 107.488 42.8745 107.56 42.8318C107.633 42.789 107.693 42.7271 107.733 42.6529C107.835 42.44 107.992 42.2583 108.188 42.1263C108.384 41.9942 108.612 41.9166 108.848 41.9014C109.125 41.9042 109.396 41.9768 109.638 42.1124C109.879 42.2479 110.083 42.4422 110.23 42.6771C110.284 42.7644 110.366 42.8309 110.463 42.866C110.559 42.9012 110.665 42.9029 110.763 42.8711C110.861 42.8348 110.944 42.7681 111.001 42.6808C111.057 42.5934 111.085 42.4902 111.078 42.3862C111.042 41.362 110.724 40.3676 110.159 39.5123C109.595 38.6569 108.805 37.9737 107.878 37.5377C107.762 37.4993 107.636 37.5083 107.527 37.5628C107.418 37.6174 107.335 37.7129 107.296 37.8286C107.258 37.9443 107.267 38.0706 107.321 38.1796C107.376 38.2887 107.471 38.3717 107.587 38.4104C108.132 38.6752 108.617 39.0483 109.013 39.5067C109.409 39.9652 109.707 40.4995 109.89 41.0771C109.544 40.9331 109.174 40.8589 108.799 40.8589C108.407 40.896 108.03 41.0279 107.701 41.2433C107.371 41.4588 107.099 41.7512 106.908 42.0953C106.879 42.1493 106.861 42.2086 106.854 42.2697C106.848 42.3309 106.854 42.3926 106.872 42.4513C106.89 42.5101 106.92 42.5646 106.96 42.6117C106.999 42.6588 107.048 42.6975 107.102 42.7256L107.32 42.8953Z" fill="#F18380"/>
<path d="M107.927 50.2888C109.09 41.5371 112.436 27.1368 112.436 27.1368H118.666C118.666 27.1368 118.909 53.3918 119.078 59.1374C119.248 64.8829 120.775 66.6041 120.775 66.6041C120.775 66.6041 112.969 65.1011 112.121 57.6343C111.86 59.0769 111.69 60.5343 111.611 61.998C111.611 61.998 106.787 59.0404 107.927 50.2888Z" fill="#302D3B"/>
<path d="M118.327 122.532L79.7323 170.606C75.1504 176.909 68.3624 179.721 61.5987 174.048C60.3477 172.985 59.3257 171.679 58.5946 170.209C57.8635 168.74 57.4386 167.137 57.3456 165.498C57.2527 163.859 57.4936 162.218 58.0539 160.675C58.6141 159.132 59.4819 157.718 60.6047 156.521L107.102 110.459C111.151 105.732 116.024 104.98 119.563 108.035C123.854 111.841 123.345 116.302 118.327 122.532Z" fill="#FBBEAA"/>
<path d="M104.775 112.981C109.066 108.641 117.09 99.2834 119.806 97.0046C122.49 94.9817 125.423 93.3115 128.533 92.0347C130.892 91.2445 133.331 90.7161 135.806 90.459C137.527 90.2408 138.23 90.7499 138.23 91.7924C138.187 92.4134 137.989 93.0137 137.654 93.5387C137.32 94.0638 136.86 94.4968 136.315 94.7984H139.491C140.582 94.7984 141.285 95.6712 140.776 97.0773C140.313 98.0062 139.652 98.8222 138.84 99.4674C138.027 100.113 137.082 100.571 136.073 100.811C136.073 100.811 140.364 101.223 141.454 101.441C142.545 101.659 142.885 102.071 142.885 103.114C142.875 103.834 142.675 104.539 142.305 105.156C141.934 105.774 141.407 106.282 140.776 106.629C139.231 107.256 137.592 107.616 135.927 107.696C135.927 107.696 141.236 109.029 142.303 109.417C143.37 109.805 143.491 110.508 142.933 111.429C142.616 112.078 142.157 112.648 141.59 113.096C141.024 113.545 140.365 113.862 139.66 114.023C137.648 114.556 136.291 113.684 135.563 113.805C134.001 114.308 132.471 114.907 130.982 115.599C128.745 117.825 126.011 119.487 123.006 120.447C120.768 121.386 118.716 122.716 116.945 124.375C116.12 125.149 115.148 125.75 114.087 126.142C113.026 126.534 111.897 126.709 110.766 126.657C109.636 126.605 108.528 126.327 107.507 125.839C106.487 125.351 105.574 124.664 104.824 123.817C100.945 119.696 101.599 116.253 104.775 112.981Z" fill="#FBBEAA"/>
<path d="M119.038 127.737L80.0118 171.622C75.3351 177.855 64.4066 181.281 57.7295 175.506C56.4947 174.424 55.4925 173.103 54.7838 171.622C54.075 170.141 53.6744 168.532 53.6062 166.892C53.5381 165.252 53.8039 163.615 54.3874 162.08C54.9709 160.546 55.86 159.146 57.0008 157.966L104.297 108.46L119.038 127.737Z" fill="#0045BA"/>
<path d="M135.782 94.8227C135.789 94.8627 135.787 94.9038 135.777 94.9433C135.767 94.9827 135.749 95.0196 135.724 95.0516C135.699 95.0835 135.667 95.1099 135.631 95.129C135.595 95.148 135.556 95.1592 135.515 95.162L133.527 95.356H132.558C132.218 95.356 131.903 95.4772 131.564 95.5015C131.205 95.609 130.857 95.7468 130.521 95.9135L129.406 96.3742C127.903 96.9802 126.4 97.5378 125.285 97.9499C124.17 98.3621 123.394 98.6045 123.394 98.6045C123.332 98.6305 123.264 98.6324 123.201 98.6099C123.138 98.5875 123.086 98.5423 123.055 98.4833C123.009 98.4241 122.985 98.3517 122.985 98.2772C122.985 98.2028 123.009 98.1304 123.055 98.0712L124.873 97.1257L126.764 96.2287C127.443 95.9136 128.194 95.5984 128.946 95.3075L130.085 94.8711C130.451 94.7055 130.833 94.5756 131.224 94.4832L132.388 94.362H133.382H134.861H135.418C135.479 94.3138 135.557 94.2918 135.635 94.3009C135.712 94.31 135.782 94.3494 135.831 94.4105C135.879 94.4716 135.901 94.5493 135.892 94.6266C135.883 94.7039 135.843 94.7744 135.782 94.8227ZM135.321 100.665H134.885C134.522 100.633 134.157 100.633 133.794 100.665L133.043 100.786C132.766 100.821 132.49 100.87 132.218 100.932L130.57 101.465C129.455 101.829 128.364 102.289 127.539 102.629C127.539 102.629 127.273 102.629 127.297 102.75H127.006L126.57 102.871H126.303H126.158C126.084 102.889 126.021 102.934 125.98 102.997C125.939 103.06 125.925 103.137 125.939 103.211C125.95 103.269 125.98 103.322 126.023 103.361C126.067 103.401 126.123 103.424 126.182 103.429H127.418H127.806C128.655 103.211 129.794 102.871 130.909 102.483L132.534 101.877L133.285 101.683L133.94 101.489C134.274 101.39 134.614 101.309 134.958 101.247L135.37 101.126C135.407 101.115 135.441 101.096 135.47 101.072C135.5 101.048 135.524 101.018 135.542 100.984C135.56 100.95 135.572 100.913 135.575 100.875C135.579 100.837 135.575 100.799 135.564 100.762C135.535 100.727 135.498 100.699 135.455 100.682C135.413 100.665 135.367 100.659 135.321 100.665ZM135.321 107.55H134.424C134.182 107.55 133.867 107.55 133.552 107.72L132.558 108.035C131.932 108.255 131.325 108.523 130.74 108.835C130.471 108.961 130.211 109.107 129.964 109.271C129.914 109.329 129.887 109.402 129.887 109.477C129.887 109.553 129.914 109.626 129.964 109.684C130.033 109.757 130.129 109.801 130.23 109.805L131.127 109.659C131.637 109.538 132.291 109.344 132.946 109.126L133.891 108.738L134.715 108.423C134.99 108.301 135.257 108.164 135.515 108.011C135.584 107.97 135.635 107.905 135.657 107.829C135.68 107.752 135.672 107.67 135.637 107.599C135.565 107.553 135.478 107.535 135.394 107.55H135.321Z" fill="#F18380"/>
<path d="M216.922 52.3739C216.001 52.3739 215.928 51.7921 215.516 50.7254C217.577 50.7254 223.565 51.1132 226.183 56.1558C223.54 52.5193 218.474 52.3739 216.922 52.3739ZM221.625 33.1978C221.625 33.1978 221.48 34.0463 221.334 35.2827C221.334 35.913 221.189 36.6645 221.14 37.4403C221.092 38.2161 221.019 39.0646 220.946 39.8646C220.946 41.5616 220.825 43.2343 220.825 44.495C220.825 45.7556 220.825 46.6041 220.825 46.6041C220.825 46.6444 220.833 46.6844 220.849 46.7213C220.866 46.7583 220.889 46.7915 220.919 46.8188C220.949 46.8462 220.984 46.8671 221.022 46.8803C221.06 46.8934 221.1 46.8983 221.14 46.895C221.209 46.8915 221.274 46.866 221.326 46.8223C221.379 46.7786 221.416 46.7191 221.431 46.6526C221.431 46.6526 221.577 45.804 221.698 44.5434C221.819 43.2828 222.013 41.61 222.086 39.9373C222.086 39.0888 222.086 38.2403 222.086 37.513C222.086 36.7857 222.086 35.9857 222.086 35.3554C222.086 34.0706 222.086 33.2462 222.086 33.2462C222.086 33.2059 222.078 33.166 222.062 33.1291C222.046 33.0921 222.022 33.0588 221.992 33.0315C221.963 33.0041 221.928 32.9832 221.89 32.9701C221.851 32.957 221.811 32.952 221.771 32.9553C221.724 32.9821 221.686 33.0212 221.66 33.0682C221.635 33.1153 221.623 33.1685 221.625 33.2221V33.1978ZM227.25 34.8948C227.25 34.8948 227.104 35.6221 226.934 36.6888C226.934 37.2463 226.765 37.8766 226.692 38.5554C226.619 39.2342 226.547 39.9615 226.474 40.6888C226.474 42.1434 226.304 43.5979 226.28 44.6889C226.256 45.7798 226.28 46.5313 226.28 46.5313C226.283 46.5696 226.294 46.6068 226.311 46.641C226.329 46.6751 226.353 46.7055 226.382 46.7303C226.411 46.7551 226.445 46.7739 226.482 46.7855C226.518 46.7971 226.557 46.8014 226.595 46.7981C226.66 46.7935 226.722 46.7671 226.77 46.7231C226.819 46.6791 226.851 46.6201 226.862 46.5556C226.862 46.5556 227.007 45.8283 227.177 44.7616C227.347 43.6949 227.492 42.2161 227.613 40.7858C227.613 40.0585 227.613 39.3312 227.759 38.6524C227.904 37.9736 227.759 37.3191 227.759 36.7615C227.759 35.6706 227.759 34.9433 227.759 34.9433C227.759 34.9029 227.751 34.8631 227.735 34.8261C227.718 34.7891 227.695 34.7559 227.665 34.7285C227.635 34.7011 227.601 34.6803 227.562 34.6672C227.524 34.6541 227.484 34.649 227.444 34.6524C227.39 34.6746 227.343 34.7112 227.309 34.7583C227.275 34.8054 227.254 34.861 227.25 34.919V34.8948ZM232.68 37.1978C232.68 37.1978 232.535 37.8039 232.341 38.7251C232.341 39.1615 232.147 39.6949 232.074 40.2767C232.001 40.8586 231.904 41.4646 231.807 42.0707C231.638 43.3071 231.565 44.4949 231.516 45.4647C231.468 46.4344 231.516 47.0162 231.516 47.0162C231.516 47.0566 231.524 47.0964 231.541 47.1334C231.557 47.1704 231.58 47.2036 231.61 47.231C231.64 47.2584 231.675 47.2792 231.713 47.2923C231.751 47.3054 231.791 47.3105 231.831 47.3071C231.893 47.3039 231.953 47.281 232.001 47.2417C232.049 47.2025 232.083 47.149 232.098 47.089C232.098 47.089 232.268 46.4829 232.438 45.5859C232.607 44.6889 232.85 43.4283 232.995 42.2161C232.995 41.5858 233.116 40.9797 233.165 40.3979C233.213 39.8161 233.165 39.2828 233.165 38.8221C233.165 37.9009 233.165 37.2706 233.165 37.2706C233.165 37.2302 233.157 37.1903 233.141 37.1534C233.125 37.1164 233.101 37.0831 233.071 37.0558C233.042 37.0284 233.007 37.0076 232.968 36.9945C232.93 36.9814 232.89 36.9763 232.85 36.9797C232.805 37.0046 232.766 37.0394 232.737 37.0814C232.708 37.1234 232.688 37.1715 232.68 37.2221V37.1978Z" fill="#F18380"/>
<path d="M134.571 51.4857C132.231 51.3954 129.984 50.5443 128.171 49.0614" stroke="#73102A" stroke-width="0.5" stroke-miterlimit="10" stroke-linecap="round"/>
<path d="M57.8037 425.594L60.0717 410.853H106.187L104.675 425.972L57.8037 425.594Z" fill="#CFD1CE"/>
<path d="M118.661 425.594L119.039 410.853H164.398L164.776 425.972L118.661 425.594Z" fill="#CFD1CE"/>
<path d="M72.9233 139.077L80.8612 132.651L96.7368 152.685L90.3109 160.244L72.9233 139.077Z" fill="#CFD1CE"/>
<path d="M209.378 106.57L210.512 97.4979L234.704 99.3878L234.326 108.46L209.378 106.57Z" fill="#CFD1CE"/>
<path d="M124.041 26.8574C123.008 29.9581 121.398 32.8353 119.296 35.3376H114.152C114.152 35.3376 110.164 30.7084 109.865 30.3293C109.433 29.8681 109.104 29.3197 108.901 28.7208C108.698 28.122 108.626 27.4866 108.688 26.8574H124.041Z" fill="#676575"/>
<path d="M119.296 35.3377C119.296 45.3145 116 59.5001 131.5 62.5001C131.5 62.5001 121.569 61.9757 117.761 57.0871C113.952 52.1985 114.152 35.2579 114.152 35.2579L119.296 35.3377Z" fill="#827F94"/>
<path d="M105 28.1345H155.326C155.709 23.5849 155.277 19.0034 154.05 14.6059C152.056 8.89922 148.068 1.91547 131.379 1.91547C114.69 1.91547 108.848 9.73727 107.672 15.6635C106.495 21.5897 107.054 23.5252 106.356 24.1637C105.658 24.8022 105 24.8222 105 25.78V28.1345Z" fill="#EFEFEF"/>
<path d="M131.379 1.91558C135.019 1.84943 138.649 2.2927 142.166 3.23252H142.326L142.944 3.43205C144.629 3.95121 146.233 4.70342 147.709 5.66685C148.712 9.8048 148.975 14.0877 148.487 18.3174H142.944L135.566 17.0603C135.566 17.0603 133.234 5.0882 124.939 2.29469C127.074 2.0143 129.226 1.8876 131.379 1.91558Z" fill="#D8D8D8"/>
<path d="M130.222 0H141.488C142.684 0 148.486 4.50951 148.486 19.9536H135.666C135.666 15.4042 134.868 3.49188 127.69 1.99536C127.71 2.03527 128.787 0 130.222 0Z" fill="#EFEFEF"/>
<path d="M163.361 28.1344V25.2212C163.36 24.8036 163.272 24.3908 163.104 24.0087C162.936 23.6266 162.69 23.2833 162.383 23.0004C162.076 22.7176 161.714 22.5012 161.32 22.3649C160.925 22.2286 160.507 22.1752 160.091 22.2082H153.651C153.281 22.2255 152.911 22.1632 152.567 22.0255C152.224 21.8878 151.913 21.6779 151.657 21.4101C151.238 20.9312 148.387 18.2574 148.048 17.8583C147.815 17.5536 147.512 17.3093 147.165 17.1461C146.818 16.9829 146.437 16.9055 146.054 16.9205H136.683C136.3 16.9088 135.92 16.9876 135.574 17.1506C135.227 17.3135 134.924 17.556 134.689 17.8583C134.35 18.2574 131.499 20.9312 131.08 21.4101C130.825 21.679 130.514 21.8896 130.17 22.0273C129.826 22.1651 129.456 22.2268 129.086 22.2082H123.723C123.307 22.1752 122.888 22.2286 122.494 22.3649C122.099 22.5012 121.737 22.7176 121.43 23.0004C121.123 23.2833 120.878 23.6266 120.71 24.0087C120.542 24.3908 120.454 24.8036 120.453 25.2212V28.1344H163.361Z" fill="#D8D8D8"/>
<defs>
<filter id="filter0_f_1_88" x="0" y="472" width="247" height="63" filterUnits="userSpaceOnUse" color-interpolation-filters="sRGB">
<feFlood flood-opacity="0" result="BackgroundImageFix"/>
<feBlend mode="normal" in="SourceGraphic" in2="BackgroundImageFix" result="shape"/>
<feGaussianBlur stdDeviation="8.5" result="effect1_foregroundBlur_1_88"/>
</filter>
</defs>
</svg>
