<svg width="188" height="503" viewBox="0 0 188 503" fill="none" xmlns="http://www.w3.org/2000/svg">
    <path d="M63.9331 45.7621V66.3442C63.9331 66.3442 65.5573 73.4231 76.4424 73.4231C78.6034 73.6054 80.7522 72.9533 82.4474 71.6007C84.1426 70.2482 85.2556 68.2978 85.5577 66.1503V45.7862L63.9331 45.7621Z" fill="#FBBEAA"/>
    <path d="M31.5445 208.601C32.0778 201.886 39.2779 176.14 47.0114 161.473C47.0114 161.473 63.8823 163.604 74.7464 163.64C86.0816 163.676 103.691 161.473 103.691 161.473C108.734 172.891 114.479 197.837 116.152 203.219C117.162 206.386 117.284 209.768 116.507 212.999C115.729 216.231 114.08 219.187 111.74 221.547C105.994 228.068 91.1819 235.535 87.7636 235.535C73.0573 233.434 58.6425 229.643 44.8053 224.238C36.9991 220.965 31.0354 215.341 31.5445 208.601Z" fill="#013EA5"/>
    <path d="M165.437 68.7679C165.537 66.5833 164.952 64.4221 163.764 62.586C161.935 60.4654 160.565 57.9891 159.74 55.3131C159.105 52.8291 158.091 50.4577 156.734 48.2826C155.764 46.9493 154.31 45.8584 154.31 44.8402C154.31 43.822 156.249 41.8583 159.013 42.4159C160.196 42.7847 161.284 43.4106 162.198 44.2488C163.111 45.087 163.829 46.1168 164.298 47.2645C164.562 46.5652 164.718 45.8293 164.758 45.0826L165.364 30.2218C165.374 29.8365 165.46 29.457 165.618 29.1057C165.776 28.7543 166.004 28.4383 166.286 28.1761C166.569 27.914 166.901 27.7111 167.263 27.5795C167.625 27.4478 168.01 27.3901 168.395 27.4096C169.007 27.4357 169.597 27.6533 170.079 28.0316C170.562 28.4099 170.914 28.93 171.086 29.5187V28.8399C171.179 28.1175 171.542 27.4571 172.102 26.9913C172.662 26.5255 173.378 26.2887 174.105 26.3286C174.832 26.3685 175.517 26.6821 176.023 27.2064C176.529 27.7306 176.818 28.4268 176.831 29.1551V31.2157C177.074 30.5804 177.537 30.0535 178.136 29.731C178.735 29.4086 179.429 29.312 180.093 29.4589C180.757 29.6058 181.347 29.9864 181.754 30.5314C182.16 31.0764 182.358 31.7495 182.31 32.4279V33.7369C182.571 33.2784 182.96 32.9058 183.429 32.6647C183.898 32.4236 184.428 32.3244 184.953 32.3793C185.671 32.4706 186.326 32.8379 186.778 33.4035C187.231 33.9691 187.446 34.6886 187.377 35.4097L186.189 47.9433C185.411 55.0095 183.949 61.9837 181.825 68.7679C181.8 69.9006 181.537 71.0154 181.055 72.0407C180.573 73.0659 179.881 73.979 179.025 74.721C178.169 75.4631 177.167 76.0177 176.083 76.3494C175 76.681 173.859 76.7824 172.734 76.6468C171.716 76.6808 170.703 76.4954 169.763 76.1033C168.823 75.7112 167.978 75.1215 167.286 74.3742C166.594 73.6269 166.07 72.7395 165.751 71.7722C165.432 70.8049 165.325 69.7803 165.437 68.7679Z" fill="#FBBEAA"/>
    <path d="M83.7393 464.411C83.7393 462.077 84.6664 459.839 86.3168 458.188C87.9671 456.538 90.2055 455.611 92.5394 455.611C94.8734 455.611 97.1117 456.538 98.7621 458.188C100.412 459.839 101.34 462.077 101.34 464.411V483.539H83.7393V464.411Z" fill="#FBBEAA"/>
    <path d="M100.71 467.975C102.867 467.975 103.255 468.92 103.886 470.157C104.908 473.452 106.656 476.475 109.001 479.005C112.502 481.987 116.258 484.656 120.225 486.981V497.115H81.0488C81.0488 497.115 81.3155 489.115 81.5094 483.466C81.7034 477.818 82.261 470.933 82.2125 470.205C82.164 469.478 82.2125 467.975 83.5458 467.975H100.71Z" fill="#302D3B"/>
    <path d="M85.9209 484.023C85.9162 485.267 86.281 486.485 86.9691 487.521C87.6572 488.557 88.6375 489.366 89.7858 489.844C90.9341 490.322 92.1986 490.448 93.4189 490.207C94.6391 489.965 95.7601 489.367 96.6396 488.487C97.5192 487.608 98.1177 486.487 98.3592 485.267C98.6007 484.046 98.4744 482.782 97.9961 481.634C97.5179 480.485 96.7093 479.505 95.673 478.817C94.6368 478.129 93.4195 477.764 92.1756 477.769C90.5188 477.775 88.9315 478.436 87.7599 479.608C86.5884 480.779 85.9273 482.366 85.9209 484.023Z" fill="#0447BA"/>
    <path d="M92.1757 480.339L90.7454 482.448L88.2969 483.151L89.8484 485.163L89.7757 487.708L92.1757 486.836L94.5758 487.708L94.4788 485.163L96.0546 483.151L93.6061 482.448L92.1757 480.339Z" fill="white"/>
    <path d="M119.958 486.812C119.958 486.812 125.51 489.745 127.595 491.175C128.56 491.829 129.344 492.717 129.874 493.755C130.404 494.794 130.662 495.95 130.625 497.115H115.4C115.4 497.115 115.716 489.672 119.958 486.812Z" fill="white"/>
    <path d="M81.0488 497.115V501.309C81.0488 502.012 81.6792 502.4 82.7459 502.4H128.953C129.995 502.4 130.625 502.012 130.625 501.309V497.115H81.0488Z" fill="white"/>
    <path d="M115.4 483.975C115.535 483.769 115.744 483.623 115.984 483.569C116.224 483.515 116.475 483.556 116.685 483.684C116.79 483.748 116.88 483.833 116.952 483.933C117.023 484.033 117.074 484.146 117.101 484.265C117.128 484.385 117.131 484.509 117.11 484.63C117.088 484.751 117.043 484.866 116.976 484.969L115.352 487.587C115.274 487.723 115.16 487.835 115.024 487.912C114.887 487.989 114.733 488.027 114.576 488.024C114.397 488.021 114.221 487.971 114.067 487.878C113.962 487.814 113.872 487.729 113.8 487.63C113.729 487.53 113.678 487.417 113.651 487.297C113.624 487.177 113.621 487.053 113.643 486.933C113.664 486.812 113.709 486.696 113.776 486.593L115.4 483.975Z" fill="white"/>
    <path d="M112.54 481.963C112.619 481.87 112.716 481.795 112.825 481.74C112.934 481.685 113.053 481.652 113.174 481.643C113.296 481.634 113.418 481.649 113.534 481.687C113.65 481.726 113.757 481.786 113.849 481.866C113.941 481.945 114.017 482.042 114.072 482.151C114.127 482.26 114.16 482.379 114.169 482.5C114.178 482.622 114.163 482.744 114.124 482.86C114.086 482.975 114.026 483.083 113.946 483.175L112.055 485.405C111.968 485.507 111.86 485.59 111.739 485.649C111.618 485.707 111.486 485.74 111.352 485.745C111.176 485.741 111.005 485.689 110.858 485.594C110.71 485.499 110.592 485.364 110.516 485.206C110.441 485.047 110.411 484.871 110.43 484.696C110.449 484.522 110.517 484.356 110.625 484.217L112.54 481.963Z" fill="white"/>
    <path d="M109.849 479.709C110.042 479.584 110.274 479.534 110.501 479.568C110.727 479.602 110.934 479.717 111.083 479.892C111.231 480.067 111.311 480.29 111.307 480.519C111.303 480.749 111.216 480.969 111.061 481.139L108.904 483.006C108.735 483.149 108.519 483.226 108.298 483.224C108.164 483.229 108.031 483.203 107.91 483.148C107.788 483.093 107.68 483.011 107.595 482.909C107.505 482.825 107.434 482.723 107.385 482.611C107.336 482.498 107.311 482.377 107.311 482.254C107.311 482.131 107.336 482.01 107.385 481.897C107.434 481.785 107.505 481.683 107.595 481.6L109.849 479.709Z" fill="white"/>
    <path d="M105.121 478.593L107.546 477.09C107.758 476.964 108.012 476.927 108.252 476.986C108.492 477.045 108.7 477.195 108.83 477.405C108.896 477.51 108.94 477.626 108.96 477.748C108.979 477.87 108.974 477.995 108.945 478.114C108.915 478.234 108.862 478.347 108.789 478.446C108.715 478.545 108.622 478.628 108.515 478.69L106.091 480.193C105.947 480.289 105.779 480.339 105.606 480.339C105.448 480.335 105.294 480.291 105.158 480.21C105.022 480.129 104.909 480.015 104.83 479.878C104.702 479.668 104.661 479.417 104.715 479.177C104.77 478.937 104.915 478.727 105.121 478.593Z" fill="white"/>
    <path d="M103.085 475.466L105.8 474.327C106.032 474.23 106.292 474.23 106.524 474.325C106.756 474.421 106.94 474.604 107.036 474.836C107.084 474.949 107.108 475.07 107.108 475.192C107.108 475.315 107.084 475.436 107.036 475.549C106.989 475.662 106.919 475.764 106.832 475.85C106.745 475.935 106.641 476.003 106.527 476.048L103.812 477.188H103.449C103.239 477.176 103.04 477.096 102.881 476.959C102.723 476.822 102.614 476.637 102.573 476.431C102.531 476.226 102.559 476.013 102.651 475.825C102.744 475.637 102.897 475.485 103.085 475.394V475.466Z" fill="white"/>
    <path d="M101.388 471.975L104.394 471.223C104.632 471.165 104.883 471.204 105.092 471.332C105.302 471.459 105.452 471.664 105.509 471.902C105.567 472.14 105.528 472.391 105.401 472.6C105.274 472.809 105.069 472.959 104.831 473.017L101.849 473.793H101.631C101.422 473.791 101.219 473.721 101.053 473.594C100.887 473.468 100.767 473.291 100.709 473.09C100.657 472.852 100.699 472.604 100.825 472.396C100.952 472.189 101.153 472.038 101.388 471.975Z" fill="white"/>
    <path d="M70.8662 342.082C71.1329 330.348 79.036 324.676 90.7453 324.967C102.455 325.257 110.891 331.391 110.624 343.1L101.339 465.357H83.7392L70.8662 342.082Z" fill="#FBBEAA"/>
    <path d="M69.3397 342.009C69.405 339.223 70.0183 336.478 71.1446 333.929C72.2709 331.38 73.8882 329.078 75.9041 327.155C77.9201 325.231 80.2951 323.723 82.8937 322.718C85.4923 321.712 88.2635 321.228 91.0491 321.293C93.8348 321.359 96.5804 321.972 99.129 323.098C101.678 324.224 103.98 325.842 105.903 327.858C107.827 329.874 109.334 332.249 110.34 334.847C111.346 337.446 111.83 340.217 111.765 343.003L114.678 469.465H66.75L69.3397 342.009Z" fill="#013EA5"/>
    <path d="M9.55615 464.411C9.55615 462.077 10.4833 459.839 12.1337 458.188C13.784 456.538 16.0224 455.611 18.3563 455.611C20.6903 455.611 22.9286 456.538 24.579 458.188C26.2293 459.839 27.1565 462.077 27.1565 464.411V483.539H9.55615V464.411Z" fill="#FBBEAA"/>
    <path d="M26.5019 467.975C28.6838 467.975 29.0717 468.92 29.6778 470.157C30.7117 473.452 32.4675 476.475 34.8172 479.005C38.3136 481.993 42.0701 484.662 46.0417 486.981V497.115H6.86523C6.86523 497.115 7.13191 489.115 7.32585 483.466C7.5198 477.818 8.05316 470.933 8.02892 470.205C8.00467 469.478 8.0289 467.975 9.33801 467.975H26.5019Z" fill="#302D3B"/>
    <path d="M11.7139 484.023C11.7091 485.266 12.0733 486.482 12.7603 487.518C13.4473 488.554 14.4263 489.363 15.5731 489.842C16.72 490.32 17.9833 490.448 19.2028 490.209C20.4224 489.969 21.5435 489.373 22.424 488.496C23.3046 487.619 23.905 486.5 24.1492 485.281C24.3935 484.063 24.2706 482.799 23.796 481.65C23.3215 480.502 22.5168 479.52 21.4837 478.829C20.4506 478.137 19.2357 477.769 17.9928 477.769C16.3318 477.769 14.7384 478.427 13.5615 479.599C12.3847 480.771 11.7203 482.362 11.7139 484.023Z" fill="#0447BA"/>
    <path d="M17.9687 480.339L16.5384 482.448L14.0898 483.151L15.6657 485.163L15.5929 487.708L17.9687 486.836L20.3688 487.708L20.296 485.163L21.8718 483.151L19.399 482.448L17.9687 480.339Z" fill="white"/>
    <path d="M45.7505 486.812C45.7505 486.812 51.3263 489.745 53.387 491.175C54.3571 491.824 55.1449 492.711 55.6754 493.751C56.2059 494.79 56.4613 495.949 56.4173 497.115H41.1201C41.1201 497.115 41.5323 489.672 45.7505 486.812Z" fill="white"/>
    <path d="M6.86523 497.115V501.309C6.86523 502.012 7.47131 502.4 8.538 502.4H54.7933C55.86 502.4 56.4661 502.012 56.4661 501.309V497.115H6.86523Z" fill="white"/>
    <path d="M41.2172 483.975C41.349 483.766 41.5585 483.618 41.7994 483.564C42.0404 483.509 42.2931 483.552 42.5021 483.684C42.711 483.816 42.8591 484.025 42.9137 484.266C42.9682 484.507 42.9248 484.76 42.793 484.969L41.1688 487.587C41.0847 487.723 40.9667 487.835 40.8265 487.911C40.6862 487.988 40.5285 488.027 40.3687 488.024C40.1963 488.024 40.0276 487.974 39.8839 487.878C39.7794 487.814 39.6887 487.729 39.6173 487.63C39.5459 487.53 39.4952 487.417 39.4681 487.297C39.441 487.177 39.438 487.053 39.4595 486.933C39.4809 486.812 39.5263 486.696 39.5929 486.593L41.2172 483.975Z" fill="white"/>
    <path d="M38.3323 481.963C38.4922 481.777 38.7181 481.66 38.9624 481.637C39.2066 481.615 39.4501 481.688 39.6414 481.842C39.8291 482.006 39.9465 482.236 39.969 482.484C39.9916 482.732 39.9177 482.98 39.7626 483.175L37.8474 485.405C37.7634 485.511 37.6565 485.597 37.5348 485.655C37.413 485.714 37.2796 485.745 37.1444 485.745C36.9667 485.747 36.7923 485.697 36.6421 485.602C36.492 485.507 36.3726 485.37 36.2983 485.209C36.224 485.047 36.1979 484.868 36.2233 484.692C36.2487 484.516 36.3244 484.351 36.4413 484.217L38.3323 481.963Z" fill="white"/>
    <path d="M35.6661 479.709C35.8589 479.584 36.0904 479.534 36.3174 479.568C36.5443 479.602 36.7513 479.717 36.8996 479.892C37.048 480.067 37.1276 480.29 37.1236 480.519C37.1197 480.749 37.0325 480.969 36.8782 481.139L34.6964 483.006C34.5272 483.149 34.312 483.226 34.0903 483.224C33.9571 483.227 33.8249 483.2 33.7032 483.146C33.5816 483.091 33.4737 483.01 33.3873 482.909C33.3008 482.823 33.2321 482.721 33.1852 482.609C33.1384 482.496 33.1143 482.376 33.1143 482.254C33.1143 482.132 33.1384 482.012 33.1852 481.899C33.2321 481.787 33.3008 481.685 33.3873 481.6L35.6661 479.709Z" fill="white"/>
    <path d="M30.9382 478.593L33.3625 477.09C33.5716 477.002 33.8055 476.992 34.0214 477.062C34.2374 477.132 34.421 477.277 34.5386 477.471C34.6563 477.665 34.7001 477.895 34.6622 478.119C34.6243 478.343 34.5072 478.546 34.3322 478.69L31.9079 480.193C31.7642 480.289 31.5955 480.339 31.423 480.339C31.2614 480.337 31.1031 480.293 30.963 480.213C30.8229 480.132 30.7059 480.017 30.623 479.878C30.4971 479.665 30.4595 479.412 30.5184 479.171C30.5773 478.931 30.728 478.724 30.9382 478.593Z" fill="white"/>
    <path d="M165.147 70.3926L155.45 131.266C153.85 138.903 156.322 145.812 165.147 147.024C166.776 147.236 168.431 147.115 170.011 146.668C171.592 146.221 173.065 145.458 174.342 144.424C175.618 143.39 176.671 142.107 177.437 140.654C178.202 139.201 178.665 137.607 178.795 135.969L181.753 70.5138C182.529 64.3319 179.838 60.2106 175.135 59.7015C169.365 59.0712 166.31 62.4895 165.147 70.3926Z" fill="#FBBEAA"/>
    <path d="M28.9027 475.466L31.6179 474.327C31.7308 474.28 31.852 474.255 31.9744 474.255C32.0968 474.255 32.2179 474.28 32.3308 474.327C32.4436 474.374 32.5459 474.444 32.6316 474.531C32.7174 474.619 32.7848 474.722 32.8301 474.836C32.9206 475.062 32.9207 475.313 32.8304 475.539C32.7401 475.765 32.5664 475.947 32.3452 476.048L29.6058 477.187C29.494 477.213 29.3781 477.213 29.2664 477.187C29.0797 477.187 28.8972 477.132 28.7419 477.029C28.5866 476.925 28.4654 476.778 28.3936 476.606C28.32 476.387 28.3315 476.148 28.4258 475.937C28.5201 475.725 28.6904 475.558 28.9027 475.466Z" fill="white"/>
    <path d="M27.2043 471.975L30.1862 471.224C30.4272 471.165 30.6818 471.203 30.8949 471.33C31.1081 471.457 31.2628 471.662 31.3257 471.902C31.3546 472.02 31.3599 472.142 31.3414 472.262C31.3229 472.382 31.2809 472.497 31.2179 472.601C31.1548 472.704 31.0719 472.795 30.9739 472.866C30.8759 472.938 30.7647 472.989 30.6468 473.017L27.665 473.793H27.4226C27.2041 473.777 26.9983 473.684 26.8402 473.533C26.6822 473.381 26.5816 473.179 26.5559 472.962C26.5301 472.744 26.5807 472.524 26.699 472.34C26.8173 472.156 26.9959 472.018 27.2043 471.951V471.975Z" fill="white"/>
    <path d="M19.181 341.718C20.3718 336.215 23.6992 331.41 28.4317 328.36C33.1641 325.309 38.9142 324.263 44.4178 325.451C55.8846 327.875 62.0665 339.173 59.5938 350.639L27.1569 467.369H9.33838L19.181 341.718Z" fill="#FBBEAA"/>
    <path d="M19.1809 339.415C20.4966 334.044 23.8552 329.398 28.5427 326.465C33.2302 323.532 38.8768 322.543 44.2822 323.708C49.6876 324.873 54.4254 328.1 57.4885 332.704C60.5515 337.308 61.6981 342.924 60.6846 348.36L49.2857 468.331C49.2857 468.331 18.4003 470.174 0 468.331L19.1809 339.415Z" fill="#013EA5"/>
    <path d="M173.026 124.527L103.4 71.6288C95.2789 66.4408 89.7516 69.2045 85.4364 74.7561C83.4657 77.4432 82.552 80.7611 82.8694 84.0782C83.1868 87.3953 84.7131 90.4798 87.1576 92.7444L156.613 143.921C159.061 145.988 162.212 147.031 165.409 146.832C168.607 146.634 171.604 145.209 173.777 142.854L174.092 142.515C175.246 141.285 176.136 139.832 176.709 138.247C177.283 136.661 177.527 134.975 177.427 133.291C177.327 131.608 176.886 129.963 176.129 128.456C175.372 126.949 174.316 125.612 173.026 124.527Z" fill="#FBBEAA"/>
    <path d="M87.1578 92.7202C86.5149 92.1669 85.93 91.5496 85.4123 90.8777C84.9545 89.1523 84.8955 87.3453 85.24 85.5938C85.5844 83.8422 86.3232 82.1921 87.4002 80.7685C91.0609 75.1199 98.7458 70.6835 102.164 71.532L105.558 73.2532L143.983 102.345C140.582 110.337 135.988 117.767 130.359 124.381L87.1578 92.7202Z" fill="#F18380"/>
    <path d="M97.6544 67.8468L157.907 108.484C157.653 110.562 162.536 67.8468 162.536 67.8468L184.837 69.9284C184.837 69.9284 183.535 113.418 180.253 136.386C178.95 145.501 171.363 148.957 162.367 146.995C157.926 146.026 153.744 144.203 150.023 141.591C134.034 130.368 89.1764 98.7573 85.5088 94.7806C79.1814 87.9199 79.1814 82.7804 82.8178 77.1318C86.4543 71.4832 94.2362 66.9983 97.6544 67.8468Z" fill="#013EA5"/>
    <path d="M69.3389 342.009L56.9023 211.801C56.9023 197.425 71.7147 181.764 93.5575 185.134C113.291 188.213 119.303 208.043 117.679 226.832C116.055 245.62 111.667 342.93 111.667 342.93C111.602 345.716 110.988 348.462 109.862 351.01C108.736 353.559 107.118 355.861 105.103 357.784C103.087 359.708 100.712 361.216 98.113 362.221C95.5144 363.227 92.7431 363.711 89.9575 363.646C87.1718 363.581 84.4263 362.967 81.8776 361.841C79.329 360.715 77.0271 359.097 75.1035 357.081C73.1799 355.066 71.6722 352.691 70.6665 350.092C69.6608 347.493 69.1767 344.722 69.242 341.936L69.3389 342.009Z" fill="#013EA5"/>
    <path d="M19.1811 339.415L31.545 209.231C34.1632 195.098 51.7393 182.564 72.5639 189.982C91.3521 196.698 93.5339 217.304 88.3944 235.462C83.2549 253.62 60.6849 348.361 60.6849 348.361C59.3691 353.731 56.0105 358.377 51.3231 361.31C46.6356 364.243 40.9889 365.233 35.5836 364.068C30.1782 362.903 25.4403 359.675 22.3773 355.071C19.3143 350.468 18.1676 344.851 19.1811 339.415Z" fill="#013EA5"/>
    <path d="M88.3941 235.462C83.2789 253.62 60.6846 348.361 60.6846 348.361" stroke="#E9E9E9" stroke-width="0.75" stroke-miterlimit="10"/>
    <path d="M84.7577 65.786C84.7577 65.786 95.4731 67.6527 97.558 68.2103C98.7884 68.499 99.9253 69.0953 100.862 69.9433C101.799 70.7913 102.506 71.8633 102.916 73.0588C104.249 76.2346 111.11 97.035 111.74 99.2896C112.166 101.773 111.766 104.328 110.601 106.562C109.607 109.278 104.467 121.642 104.467 121.642L103.691 161.472L74.7468 166.063L47.0116 161.472C47.0116 161.472 37.3145 87.3864 36.8296 82.8045C36.3448 78.2226 38.6236 69.374 44.1025 68.2588C49.5814 67.1436 64.6119 65.8345 64.6119 65.8345L84.7577 65.786Z" fill="#FBBEAA"/>
    <path d="M105.05 145.457V159.46C86.0924 161.206 55.8846 159.97 44.539 159.46C44.0056 155.46 43.448 148.672 42.8662 144.163C58.3089 144.551 83.8136 145.99 105.05 145.457Z" fill="white"/>
    <path d="M5.071 157.909L36.1261 76.1862C40.2716 67.4588 46.405 66.877 53.0961 69.3013C56.1908 70.5358 58.7223 72.8671 60.207 75.8499C61.6917 78.8327 62.0255 82.2579 61.1447 85.4713L29.1684 165.739C28.1991 168.793 26.0845 171.353 23.2683 172.88C20.4521 174.408 17.1535 174.786 14.0651 173.933L13.6045 173.812C11.9753 173.368 10.4538 172.596 9.13261 171.544C7.81143 170.492 6.7183 169.183 5.91985 167.695C5.1214 166.207 4.63436 164.571 4.48842 162.889C4.34249 161.207 4.54071 159.512 5.071 157.909Z" fill="#FBBEAA"/>
    <path d="M85.0478 61.2346C85.6526 61.2346 86.9377 61.2346 88.0717 61.6126C88.0717 62.5198 86.0558 63.2505 85.0478 63.5025C84.7958 62.7466 84.443 61.2346 85.0478 61.2346Z" fill="#013FA9"/>
    <path d="M17.9438 124.017L36.126 76.1861C36.6136 75.1372 37.1894 74.1316 37.8472 73.18C40.0744 71.7856 42.6241 70.9904 45.249 70.8715C47.874 70.7525 50.4852 71.3139 52.8293 72.5012C55.5514 73.8258 57.7394 76.0403 59.0312 78.7781C60.3229 81.5159 60.6409 84.6128 59.9324 87.556C59.9324 87.8469 59.7628 88.4045 59.6173 89.1561L40.8533 136.308C32.6573 133.353 24.9388 129.212 17.9438 124.017Z" fill="#F18380"/>
    <path d="M38.5552 70.6843C33.2633 77.4883 2.646 160.646 2.646 160.646C30.9953 151.574 28.3352 127.057 43.7537 129.651C43.7537 129.651 61.5332 87.92 62.212 84.1866C62.9205 81.2434 62.6025 78.1466 61.3108 75.4088C60.019 72.671 57.831 70.4564 55.1089 69.1318C47.5209 65.253 43.847 63.8803 38.5552 70.6843Z" fill="#0045BA"/>
    <path d="M85.5577 62.9017C78.7212 66.1502 68.7574 63.2411 63.9331 54.3198V45.7621H85.5577V62.9017Z" fill="#F18380"/>
    <path d="M89.9958 65.7705C95.599 66.836 98.1313 66.9633 99.5541 67.9015C101.805 69.4118 113.397 89.8764 113.397 99.1108C113.397 107.28 111.42 172.631 109.772 173.696C108.124 174.762 78.6221 176.144 78.6221 176.144V83.604C81.6163 74.3363 87.8722 71.7659 89.9958 65.7705Z" fill="#0045BA"/>
    <path d="M99.5541 67.9015C98.1313 66.9633 92.541 66.08 86.9379 65.0145C84.8143 71.0099 81.6163 74.3363 78.6221 83.604V99.1108H113.397C113.397 89.8764 101.805 69.4118 99.5541 67.9015Z" fill="#9A99A1"/>
    <path d="M78.2442 62.7466C71.2892 62.7466 65.0145 59.7226 62.7466 58.2107V65.0145C62.9986 65.3925 64.9389 66.6021 70.6844 68.4164C76.4299 70.2308 84.6701 69.5504 88.072 68.4164V61.6126C88.072 61.9906 86.938 62.7466 78.2442 62.7466Z" fill="#034CC9"/>
    <path d="M113.386 100.546H78.6221V92.9859L112.398 93.316C113.057 95.9152 113.471 97.7706 113.386 100.546Z" fill="#D3D4D2"/>
    <path d="M34.1019 169.447C34.1019 161.879 32.901 143.888 39.6415 126.473C45.5072 127.894 58.2552 84.7417 45.5072 70.3585C41.2709 65.5788 37.547 72.495 38.664 70.7136C39.7809 68.9323 41.0189 67.1839 42.8429 66.3454C46.0972 64.7665 53.328 65.0312 59.8453 65.0312C67.6662 74.6204 75.7666 76.7551 78.622 83.6198V176.11C78.622 176.11 34.1019 177.015 34.1019 169.447Z" fill="#034CC9"/>
    <path d="M34.1019 169.447C34.1019 161.879 32.901 143.888 39.6415 126.473C45.5072 127.894 58.2552 84.7417 45.5072 70.3585C41.2709 65.5788 37.547 72.495 38.664 70.7136C39.7809 68.9323 41.0189 67.1839 42.8429 66.3454C46.0972 64.7665 53.328 65.0312 59.8453 65.0312C67.6662 74.6204 75.7666 76.7551 78.622 83.6198V176.11C78.622 176.11 34.1019 177.015 34.1019 169.447Z" fill="#034CC9"/>
    <path d="M38.555 70.6844C37.4381 72.4658 41.2709 65.5787 45.5072 70.3584C50.8623 76.4004 51.7183 87.519 50.4754 98.2777H78.622L78.6221 69.5504C71.0623 68.7944 67.2823 67.6605 62.7464 65.0145C56.2291 65.0145 45.9671 64.5696 42.7128 66.1485C40.8888 66.987 39.672 68.9031 38.555 70.6844Z" fill="#A2A0AB"/>
    <path d="M78.6221 176.144C80.5537 175.496 82.2441 174.247 83.4621 172.569C84.68 170.891 85.3659 168.865 85.4259 166.768V63.1245H78.6221V176.144Z" fill="#034CC9"/>
    <path d="M50.898 92.9859H85.4256V100.546H50.1901C50.6504 97.1438 50.898 95.6318 50.898 92.9859Z" fill="#CFD1CE"/>
    <g style="mix-blend-mode:multiply" opacity="0.4">
        <path d="M77.8662 69.3955L78.6222 69.5504V176.144H77.8662V69.3955Z" fill="#013FA9"/>
    </g>
    <path d="M63.6662 7.72411C62.3813 4.62103 55.9085 3.2392 52.2721 4.9362C48.6357 6.6332 44.9992 11.0938 44.4659 23.2152C43.9325 35.3367 44.9265 44.5974 42.7446 50.7066C44.7614 50.4516 46.6585 49.6085 48.1993 48.2823C48.1993 49.8824 48.4417 53.7612 48.4417 53.7612C49.6152 53.6659 50.7367 53.2361 51.6734 52.5228C52.6101 51.8096 53.3226 50.8428 53.7266 49.7369C54.3845 51.136 54.8024 52.6358 54.963 54.1734C57.0964 53.0582 63.6662 51.1188 63.6662 39.6277V7.72411Z" fill="#1D1B24"/>
    <path d="M105.921 47.9918C105.267 39.1917 102.673 24.646 102.673 24.646L96.4668 24.3066C96.4668 24.3066 94.8183 50.5131 94.3577 56.2344C93.897 61.9557 92.2485 63.5072 92.2485 63.5072C92.2485 63.5072 100.127 62.4163 101.364 55.0222C101.545 56.47 101.642 57.927 101.655 59.386C101.655 59.386 106.6 56.792 105.921 47.9918Z" fill="#302D3B"/>
    <path d="M99.0605 29.9795C99.1634 34.9024 98.9366 39.8266 98.3817 44.7192C97.5089 51.7253 95.0361 59.4831 82.648 59.4831C70.2599 59.4831 63.9811 53.883 61.3143 44.7192C59.7143 39.1918 56.4658 30.9977 57.7991 21.543C59.1325 12.0883 64.8296 5.90644 78.2843 5.5428C91.7391 5.17916 100.467 11.1913 99.0605 29.9795Z" fill="#FBBEAA"/>
    <path d="M72.854 34.1733C72.9359 34.5376 73.1189 34.8715 73.3819 35.1366C73.6448 35.4017 73.9771 35.5874 74.3407 35.6725C74.7043 35.7575 75.0845 35.7384 75.4378 35.6173C75.791 35.4963 76.103 35.2782 76.3381 34.988C76.5731 34.6979 76.7217 34.3474 76.7667 33.9767C76.8118 33.606 76.7515 33.2301 76.5928 32.8921C76.4342 32.5541 76.1835 32.2676 75.8695 32.0654C75.5556 31.8633 75.191 31.7536 74.8176 31.7491C74.5283 31.7762 74.2473 31.8608 73.9911 31.998C73.7349 32.1352 73.5087 32.3222 73.3258 32.5481C73.1429 32.7739 73.0069 33.034 72.9259 33.3131C72.8448 33.5922 72.8204 33.8847 72.854 34.1733Z" fill="#403D4F"/>
    <path d="M90.8908 34.1733C90.973 34.5387 91.1567 34.8733 91.4208 35.1388C91.6849 35.4043 92.0185 35.5898 92.3834 35.674C92.7483 35.7582 93.1295 35.7375 93.4832 35.6145C93.8369 35.4915 94.1486 35.2712 94.3826 34.9788C94.6165 34.6864 94.763 34.3339 94.8054 33.9618C94.8477 33.5898 94.7842 33.2133 94.622 32.8758C94.4598 32.5383 94.2055 32.2535 93.8885 32.0542C93.5715 31.8548 93.2047 31.7491 92.8302 31.7491C92.543 31.7792 92.2647 31.866 92.0113 32.0045C91.7579 32.143 91.5345 32.3305 91.3541 32.556C91.1737 32.7815 91.0398 33.0406 90.9603 33.3182C90.8808 33.5959 90.8572 33.8865 90.8908 34.1733Z" fill="#403D4F"/>
    <path d="M78.7209 27.313L78.5269 27.0948C78.3238 26.921 78.1046 26.7668 77.8723 26.6342C77.5715 26.4492 77.2446 26.3103 76.9026 26.2221C76.5221 26.0787 76.1211 25.9969 75.7148 25.9797C75.3284 25.9312 74.9375 25.9312 74.5511 25.9797C74.2123 25.9502 73.8717 25.9502 73.5329 25.9797L72.5874 26.2463C72.4566 26.2987 72.3471 26.3934 72.2764 26.5153C72.2058 26.6372 72.178 26.7793 72.1975 26.9189C72.217 27.0584 72.2828 27.1874 72.3842 27.2852C72.4857 27.383 72.617 27.444 72.7571 27.4584H73.7268C74.0085 27.4219 74.2937 27.4219 74.5754 27.4584C74.8901 27.4344 75.2061 27.4344 75.5208 27.4584C75.8306 27.4989 76.1381 27.5556 76.442 27.6282C76.7329 27.6282 76.9754 27.8221 77.2178 27.8463C77.3889 27.9221 77.5677 27.9791 77.7512 28.0161H77.9451C78.0999 28.0829 78.2745 28.0875 78.4326 28.0288C78.5907 27.9701 78.72 27.8526 78.7936 27.7009C78.8296 27.6166 78.8482 27.5259 78.8482 27.4342C78.8482 27.3426 78.8296 27.2518 78.7936 27.1675L78.7209 27.313Z" fill="#403D4F"/>
    <path d="M90.5028 28.2337H90.6725L91.0362 28.0883H91.3028C91.3931 28.0334 91.4911 27.9925 91.5937 27.9671C91.7998 27.8964 92.0104 27.8397 92.224 27.7974C92.4571 27.7632 92.694 27.7632 92.9271 27.7974C93.1285 27.7741 93.3318 27.7741 93.5332 27.7974H94.3089C94.4718 27.7911 94.626 27.7219 94.739 27.6043C94.852 27.4868 94.9151 27.3301 94.915 27.167C94.9168 27.0452 94.8805 26.9258 94.8109 26.8257C94.7413 26.7257 94.642 26.65 94.5271 26.6094L93.7755 26.3428C93.5103 26.2508 93.232 26.2017 92.9513 26.1973C92.6227 26.1373 92.2859 26.1373 91.9573 26.1973C91.3218 26.2663 90.7177 26.5096 90.2118 26.9004C90.0405 27.0351 89.886 27.1897 89.7513 27.361C89.6301 27.5065 89.63 27.5549 89.63 27.5549V27.7974C89.6092 27.961 89.6534 28.1263 89.7531 28.2578C89.8529 28.3892 90.0002 28.4764 90.1634 28.5004C90.236 28.4836 90.3041 28.4509 90.3628 28.4048C90.4214 28.3588 90.4692 28.3003 90.5028 28.2337Z" fill="#403D4F"/>
    <path d="M85.5572 42.416C85.9668 42.4194 86.3725 42.337 86.7483 42.1742C87.1241 42.0113 87.4616 41.7716 87.7391 41.4705C87.8411 41.3651 87.9198 41.2394 87.9699 41.1015C88.02 40.9636 88.0405 40.8168 88.03 40.6705C88.03 40.4038 87.6179 37.0583 87.4724 35.8219C87.4544 35.6975 87.3886 35.5849 87.289 35.508C87.1895 35.4311 87.0641 35.3959 86.9391 35.4097C86.8192 35.4277 86.7104 35.49 86.6341 35.5842C86.5578 35.6784 86.5195 35.7979 86.5269 35.9189C86.5269 36.1128 87.0603 40.5008 87.1087 40.7675C86.9103 40.9872 86.6668 41.1615 86.3949 41.2786C86.123 41.3958 85.829 41.453 85.533 41.4463C85.4736 41.4462 85.4148 41.4582 85.3602 41.4816C85.3056 41.5051 85.2564 41.5393 85.2155 41.5825C85.1747 41.6256 85.143 41.6767 85.1226 41.7324C85.1021 41.7882 85.0933 41.8476 85.0966 41.9069C85.0854 41.9721 85.0892 42.0389 85.1076 42.1024C85.1261 42.1659 85.1588 42.2244 85.2032 42.2734C85.2475 42.3224 85.3024 42.3608 85.3638 42.3855C85.4251 42.4102 85.4913 42.4206 85.5572 42.416Z" fill="#F18380"/>
    <path d="M69.6297 1.54267C83.0602 -2.65134 92.6119 2.60939 95.6423 6.58522C96.8713 6.18144 97.9575 5.43127 98.7703 4.42491C99.5831 3.41855 100.088 2.19884 100.224 0.912404C100.925 1.29713 101.485 1.89551 101.823 2.62053C102.161 3.34555 102.258 4.15937 102.101 4.9436C101.944 5.72784 101.541 6.44155 100.951 6.98096C100.36 7.52036 99.6133 7.85735 98.8181 7.94281C103.667 9.54284 106.503 14.4157 106.358 20.4521C106.154 22.659 105.375 24.7739 104.099 26.586C102.823 28.3981 101.094 29.8439 99.0847 30.7795C97.6737 26.5474 95.5502 22.5874 92.8058 19.0703C92.0508 22.1725 90.4501 25.0046 88.1818 27.2515C85.9135 29.4984 83.0664 31.0722 79.9571 31.7978C80.2586 29.9301 80.7376 28.0955 81.3875 26.3189C78.6688 28.5895 75.4419 30.1697 71.9812 30.9251C71.7396 28.867 71.7968 26.7848 72.151 24.7431C69.7267 29.1068 65.6539 35.7251 59.6416 37.5676H55.8598C53.8712 33.4912 52.9297 28.9837 53.1203 24.4522C53.1688 16.0642 56.1991 5.73668 69.6297 1.54267Z" fill="#302D3B"/>
    <path d="M61.7996 39.0465C61.6057 35.7495 60.7329 31.7737 56.7086 32.4767C52.0055 33.1797 51.5449 45.9072 61.5572 44.3799L61.7996 39.0465Z" fill="#FBBEAA"/>
    <path d="M56.3204 39.8953C56.4047 39.8965 56.4877 39.8745 56.5604 39.8318C56.6331 39.789 56.6926 39.7271 56.7326 39.6529C56.8352 39.44 56.9925 39.2583 57.1884 39.1263C57.3844 38.9942 57.6119 38.9166 57.8477 38.9014C58.1247 38.9042 58.3964 38.9768 58.638 39.1124C58.8795 39.2479 59.0829 39.4422 59.2296 39.6771C59.284 39.7644 59.3662 39.8309 59.4628 39.866C59.5595 39.9012 59.6651 39.9029 59.7629 39.8711C59.8605 39.8348 59.9439 39.7681 60.0007 39.6808C60.0575 39.5934 60.0846 39.4902 60.078 39.3862C60.0417 38.362 59.7239 37.3676 59.1594 36.5123C58.5948 35.6569 57.8055 34.9737 56.878 34.5377C56.7623 34.4993 56.636 34.5083 56.527 34.5628C56.4179 34.6174 56.3349 34.7129 56.2962 34.8286C56.2578 34.9443 56.2668 35.0706 56.3214 35.1796C56.3759 35.2887 56.4715 35.3717 56.5871 35.4104C57.1319 35.6752 57.6171 36.0483 58.0131 36.5067C58.4091 36.9652 58.7075 37.4995 58.8902 38.0771C58.5445 37.9331 58.1737 37.8589 57.7992 37.8589C57.4074 37.896 57.0304 38.0279 56.7009 38.2433C56.3715 38.4588 56.0994 38.7512 55.9083 39.0953C55.8789 39.1493 55.8605 39.2086 55.8544 39.2697C55.8482 39.3309 55.8544 39.3926 55.8724 39.4513C55.8905 39.5101 55.9201 39.5646 55.9596 39.6117C55.9991 39.6588 56.0475 39.6975 56.1022 39.7256L56.3204 39.8953Z" fill="#F18380"/>
    <path d="M56.9266 47.2888C58.0903 38.5371 61.4358 24.1368 61.4358 24.1368H67.6662C67.6662 24.1368 67.9086 50.3918 68.0783 56.1374C68.248 61.8829 69.7753 63.6041 69.7753 63.6041C69.7753 63.6041 61.9691 62.1011 61.1206 54.6343C60.8604 56.0769 60.6903 57.5343 60.6115 58.998C60.6115 58.998 55.7872 56.0404 56.9266 47.2888Z" fill="#302D3B"/>
    <path d="M67.3269 119.532L28.7323 167.606C24.1504 173.909 17.3624 176.721 10.5987 171.048C9.34769 169.985 8.32565 168.679 7.59456 167.209C6.86347 165.74 6.43856 164.137 6.34562 162.498C6.25267 160.859 6.49363 159.218 7.05386 157.675C7.61409 156.132 8.48192 154.718 9.60473 153.521L56.1025 107.459C60.151 102.732 65.0238 101.98 68.5633 105.035C72.8543 108.841 72.3452 113.302 67.3269 119.532Z" fill="#FBBEAA"/>
    <path d="M53.775 109.981C58.066 105.641 66.0904 96.2834 68.8056 94.0046C71.4903 91.9817 74.4234 90.3115 77.533 89.0347C79.8922 88.2445 82.3312 87.7161 84.8059 87.459C86.5271 87.2408 87.2302 87.7499 87.2302 88.7924C87.1869 89.4134 86.989 90.0137 86.6545 90.5387C86.32 91.0638 85.8595 91.4968 85.315 91.7984H88.4908C89.5817 91.7984 90.2847 92.6712 89.7756 94.0773C89.3133 95.0062 88.6523 95.8222 87.8396 96.4674C87.0268 97.1125 86.0822 97.5711 85.0725 97.8107C85.0725 97.8107 89.3635 98.2228 90.4544 98.441C91.5454 98.6591 91.8848 99.0713 91.8848 100.114C91.8754 100.834 91.6752 101.539 91.3047 102.156C90.9342 102.774 90.4066 103.282 89.7756 103.629C88.2312 104.256 86.5919 104.616 84.9271 104.696C84.9271 104.696 90.2363 106.029 91.3029 106.417C92.3696 106.805 92.4909 107.508 91.9333 108.429C91.6155 109.078 91.1567 109.648 90.5905 110.096C90.0242 110.545 89.3648 110.862 88.6605 111.023C86.6483 111.556 85.2907 110.684 84.5634 110.805C83.0008 111.308 81.4706 111.907 79.9816 112.599C77.7454 114.825 75.0114 116.487 72.0057 117.447C69.7683 118.386 67.716 119.716 65.945 121.375C65.12 122.149 64.1481 122.75 63.0869 123.142C62.0256 123.534 60.8966 123.709 59.7664 123.657C58.6363 123.605 57.5281 123.327 56.5073 122.839C55.4865 122.351 54.5739 121.664 53.8235 120.817C49.9447 116.696 50.5992 113.253 53.775 109.981Z" fill="#FBBEAA"/>
    <path d="M68.0383 124.737L29.0118 168.622C24.3351 174.855 13.4066 178.281 6.72946 172.506C5.49468 171.424 4.49252 170.103 3.78376 168.622C3.07499 167.141 2.67438 165.532 2.60624 163.892C2.53811 162.252 2.80386 160.615 3.38738 159.08C3.97089 157.546 4.86001 156.146 6.00081 154.966L53.2966 105.46L68.0383 124.737Z" fill="#0045BA"/>
    <path d="M84.782 91.8227C84.7889 91.8627 84.7873 91.9038 84.7773 91.9433C84.7673 91.9827 84.7492 92.0196 84.7241 92.0516C84.699 92.0835 84.6674 92.1099 84.6314 92.129C84.5955 92.148 84.556 92.1592 84.5154 92.162L82.5275 92.356H81.5578C81.2184 92.356 80.9032 92.4772 80.5638 92.5015C80.2053 92.609 79.8565 92.7468 79.5214 92.9135L78.4062 93.3742C76.9031 93.9802 75.4001 94.5378 74.2849 94.9499C73.1697 95.3621 72.394 95.6045 72.394 95.6045C72.3325 95.6305 72.2635 95.6324 72.2007 95.6099C72.1379 95.5875 72.0857 95.5423 72.0546 95.4833C72.0093 95.4241 71.9849 95.3517 71.9849 95.2772C71.9849 95.2028 72.0093 95.1304 72.0546 95.0712L73.8728 94.1257L75.7637 93.2287C76.4425 92.9136 77.194 92.5984 77.9455 92.3075L79.085 91.8711C79.4514 91.7055 79.833 91.5756 80.2244 91.4832L81.3881 91.362H82.382H83.8608H84.4184C84.4795 91.3138 84.5572 91.2918 84.6345 91.3009C84.7118 91.31 84.7824 91.3494 84.8306 91.4105C84.8788 91.4716 84.9008 91.5493 84.8917 91.6266C84.8826 91.7039 84.8431 91.7744 84.782 91.8227ZM84.3214 97.6652H83.8851C83.5222 97.6327 83.157 97.6327 82.7941 97.6652L82.0426 97.7864C81.7656 97.821 81.4905 97.8695 81.2183 97.9318L79.5699 98.4652C78.4547 98.8288 77.3638 99.2895 76.5395 99.6289C76.5395 99.6289 76.2728 99.6288 76.2971 99.75H76.0062L75.5698 99.8712H75.3031H75.1576C75.0844 99.8886 75.0208 99.9337 74.9802 99.997C74.9395 100.06 74.9249 100.137 74.9395 100.211C74.95 100.269 74.9796 100.322 75.0234 100.361C75.0673 100.401 75.123 100.424 75.1819 100.429H76.4183H76.8061C77.6546 100.211 78.794 99.8713 79.9092 99.4834L81.5335 98.8773L82.285 98.6834L82.9396 98.4894C83.2744 98.3904 83.6143 98.3094 83.9578 98.247L84.37 98.1257C84.4066 98.1147 84.4407 98.0965 84.4703 98.0722C84.4999 98.0479 84.5244 98.018 84.5424 97.9842C84.5604 97.9504 84.5716 97.9134 84.5753 97.8753C84.5789 97.8372 84.5751 97.7987 84.5639 97.7621C84.5352 97.7265 84.4978 97.6989 84.4553 97.6819C84.4129 97.6649 84.3668 97.6592 84.3214 97.6652ZM84.3214 104.55H83.4245C83.182 104.55 82.8669 104.55 82.5517 104.72L81.5578 105.035C80.9323 105.255 80.3245 105.523 79.7396 105.835C79.4706 105.961 79.2113 106.107 78.9638 106.271C78.9143 106.329 78.8871 106.402 78.8871 106.477C78.8871 106.553 78.9143 106.626 78.9638 106.684C79.0334 106.757 79.1291 106.801 79.2304 106.805L80.1275 106.659C80.6366 106.538 81.2911 106.344 81.9457 106.126L82.8911 105.738L83.7154 105.423C83.9898 105.301 84.257 105.164 84.5154 105.011C84.584 104.97 84.6346 104.905 84.6571 104.829C84.6796 104.752 84.6723 104.67 84.6366 104.599C84.5648 104.553 84.4782 104.535 84.3942 104.55H84.3214Z" fill="#F18380"/>
    <path d="M165.922 49.3739C165.001 49.3739 164.928 48.7921 164.516 47.7254C166.577 47.7254 172.565 48.1132 175.183 53.1558C172.54 49.5193 167.474 49.3739 165.922 49.3739ZM170.625 30.1978C170.625 30.1978 170.48 31.0463 170.334 32.2827C170.334 32.913 170.189 33.6645 170.14 34.4403C170.092 35.2161 170.019 36.0646 169.946 36.8646C169.946 38.5616 169.825 40.2343 169.825 41.495C169.825 42.7556 169.825 43.6041 169.825 43.6041C169.825 43.6444 169.833 43.6844 169.849 43.7213C169.866 43.7583 169.889 43.7915 169.919 43.8188C169.949 43.8462 169.984 43.8671 170.022 43.8803C170.06 43.8934 170.1 43.8983 170.14 43.895C170.209 43.8915 170.274 43.866 170.326 43.8223C170.379 43.7786 170.416 43.7191 170.431 43.6526C170.431 43.6526 170.577 42.804 170.698 41.5434C170.819 40.2828 171.013 38.61 171.086 36.9373C171.086 36.0888 171.086 35.2403 171.086 34.513C171.086 33.7857 171.086 32.9857 171.086 32.3554C171.086 31.0706 171.086 30.2462 171.086 30.2462C171.086 30.2059 171.078 30.166 171.062 30.1291C171.046 30.0921 171.022 30.0588 170.992 30.0315C170.963 30.0041 170.928 29.9832 170.89 29.9701C170.851 29.957 170.811 29.952 170.771 29.9553C170.724 29.9821 170.686 30.0212 170.66 30.0682C170.635 30.1153 170.623 30.1685 170.625 30.2221V30.1978ZM176.25 31.8948C176.25 31.8948 176.104 32.6221 175.934 33.6888C175.934 34.2463 175.765 34.8766 175.692 35.5554C175.619 36.2342 175.547 36.9615 175.474 37.6888C175.474 39.1434 175.304 40.5979 175.28 41.6889C175.256 42.7798 175.28 43.5313 175.28 43.5313C175.283 43.5696 175.294 43.6068 175.311 43.641C175.329 43.6751 175.353 43.7055 175.382 43.7303C175.411 43.7551 175.445 43.7739 175.482 43.7855C175.518 43.7971 175.557 43.8014 175.595 43.7981C175.66 43.7935 175.722 43.7671 175.77 43.7231C175.819 43.6791 175.851 43.6201 175.862 43.5556C175.862 43.5556 176.007 42.8283 176.177 41.7616C176.347 40.6949 176.492 39.2161 176.613 37.7858C176.613 37.0585 176.613 36.3312 176.759 35.6524C176.904 34.9736 176.759 34.3191 176.759 33.7615C176.759 32.6706 176.759 31.9433 176.759 31.9433C176.759 31.9029 176.751 31.8631 176.735 31.8261C176.718 31.7891 176.695 31.7559 176.665 31.7285C176.635 31.7011 176.601 31.6803 176.562 31.6672C176.524 31.6541 176.484 31.649 176.444 31.6524C176.39 31.6746 176.343 31.7112 176.309 31.7583C176.275 31.8054 176.254 31.861 176.25 31.919V31.8948ZM181.68 34.1978C181.68 34.1978 181.535 34.8039 181.341 35.7251C181.341 36.1615 181.147 36.6949 181.074 37.2767C181.001 37.8586 180.904 38.4646 180.807 39.0707C180.638 40.3071 180.565 41.4949 180.516 42.4647C180.468 43.4344 180.516 44.0162 180.516 44.0162C180.516 44.0566 180.524 44.0964 180.541 44.1334C180.557 44.1704 180.58 44.2036 180.61 44.231C180.64 44.2584 180.675 44.2792 180.713 44.2923C180.751 44.3054 180.791 44.3105 180.831 44.3071C180.893 44.3039 180.953 44.281 181.001 44.2417C181.049 44.2025 181.083 44.149 181.098 44.089C181.098 44.089 181.268 43.4829 181.438 42.5859C181.607 41.6889 181.85 40.4283 181.995 39.2161C181.995 38.5858 182.116 37.9797 182.165 37.3979C182.213 36.8161 182.165 36.2828 182.165 35.8221C182.165 34.9009 182.165 34.2706 182.165 34.2706C182.165 34.2302 182.157 34.1903 182.141 34.1534C182.125 34.1164 182.101 34.0831 182.071 34.0558C182.042 34.0284 182.007 34.0076 181.968 33.9945C181.93 33.9814 181.89 33.9763 181.85 33.9797C181.805 34.0046 181.766 34.0394 181.737 34.0814C181.708 34.1234 181.688 34.1715 181.68 34.2221V34.1978Z" fill="#F18380"/>
    <path d="M83.571 48.4857C81.2307 48.3954 78.9837 47.5443 77.1709 46.0614" stroke="#73102A" stroke-width="0.5" stroke-miterlimit="10" stroke-linecap="round"/>
    <path d="M6.80371 422.594L9.07166 407.853H55.1866L53.6746 422.972L6.80371 422.594Z" fill="#CFD1CE"/>
    <path d="M67.6606 422.594L68.0386 407.853H113.398L113.776 422.972L67.6606 422.594Z" fill="#CFD1CE"/>
    <path d="M21.9233 136.077L29.8612 129.651L45.7368 149.685L39.3109 157.244L21.9233 136.077Z" fill="#CFD1CE"/>
    <path d="M158.378 103.57L159.512 94.4979L183.704 96.3878L183.326 105.46L158.378 103.57Z" fill="#CFD1CE"/>
</svg>