<svg width="271" height="539" viewBox="0 0 271 539" fill="none" xmlns="http://www.w3.org/2000/svg">
<path d="M152.44 90.8814C153.134 90.8814 154.608 90.8814 155.909 91.3151C155.909 92.3559 153.597 93.1942 152.44 93.4833C152.151 92.616 151.746 90.8814 152.44 90.8814Z" fill="#013FA9"/>
<path d="M154.454 70.0148H126.777V102.565H154.454V70.0148Z" fill="#FBBEAA"/>
<path d="M126.846 70.0148H154.431V88.175C153.227 88.3247 152.014 88.4014 150.799 88.4049C141.283 88.4049 130.639 85.8073 126.754 76.7272L126.846 70.0148Z" fill="#F18380"/>
<path d="M168.753 45.8552C168.523 55.2571 168.753 62.6821 167.052 69.8543C165.351 77.0264 160.155 82.8883 148.662 82.8883C137.168 82.8883 124.065 79.1413 123.145 64.774C121.26 62.7281 118.203 55.441 118.088 47.2804C117.973 39.1198 118.617 21.8561 137.214 19.2125C155.811 16.5689 169.259 23.3963 168.753 45.8552Z" fill="#FBBEAA"/>
<path d="M159.029 53.2573C159.029 54.5216 159.787 55.556 160.73 55.556C161.672 55.556 162.431 54.5216 162.431 53.2573C162.431 51.993 161.672 50.9585 160.73 50.9585C159.787 50.9585 159.029 51.901 159.029 53.2573Z" fill="#403D4F"/>
<path d="M138.34 53.2573C138.34 54.5216 139.099 55.556 140.041 55.556C140.984 55.556 141.743 54.5216 141.743 53.2573C141.743 51.993 140.984 50.9585 140.041 50.9585C139.099 50.9585 138.34 51.901 138.34 53.2573Z" fill="#403D4F"/>
<path d="M142.501 48.4755C142.34 48.6823 141.122 48.4755 140.202 48.4755C139.283 48.4755 137.513 48.4755 137.513 48.2686C137.513 48.0617 138.386 46.6365 140.685 46.8893C142.34 47.0732 142.938 48.1077 142.501 48.4755Z" fill="#403D4F"/>
<path d="M158.638 48.4754C158.776 48.6823 159.81 48.4754 160.615 48.4754C161.419 48.4754 162.913 48.4754 162.913 48.2685C162.707 47.7475 162.318 47.3198 161.818 47.0658C161.319 46.8118 160.743 46.7491 160.201 46.8893C158.776 47.0732 158.385 48.1076 158.638 48.4754Z" fill="#403D4F"/>
<path d="M151.856 62.774C153.465 62.774 154.753 61.7166 154.799 60.958L154.27 54.4755C154.253 54.3148 154.173 54.1673 154.049 54.0643C153.924 53.9613 153.764 53.9108 153.603 53.9238C153.525 53.9296 153.448 53.9509 153.378 53.9864C153.308 54.0219 153.245 54.071 153.194 54.1308C153.142 54.1907 153.103 54.26 153.079 54.3349C153.055 54.4099 153.045 54.4889 153.052 54.5674L153.557 60.82C153.325 61.072 153.039 61.2688 152.721 61.3961C152.403 61.5233 152.06 61.5779 151.718 61.5556C151.638 61.5494 151.557 61.5595 151.481 61.5853C151.404 61.611 151.334 61.652 151.274 61.7057C151.214 61.7594 151.165 61.8247 151.131 61.8977C151.097 61.9706 151.078 62.0498 151.075 62.1303C151.074 62.2934 151.136 62.4505 151.247 62.57C151.358 62.6894 151.51 62.7623 151.672 62.774H151.856Z" fill="#F18380"/>
<path d="M128.128 50.1305C128.128 59.4062 123.531 55.9581 123.531 55.9581C122.381 52.5099 120.379 53.9927 117.747 53.9927C115.115 53.9927 115.453 52.0756 112.821 45.754C110.715 40.6967 113.143 32.661 114.722 30.7159C112.104 27.2861 115.654 25.2429 115.531 25.7628C114.722 29.1902 117.528 25.7455 118.933 24.3943C133.943 9.96159 163.033 16.8668 163.033 16.8668L167.839 22.1839L162.537 22.7339C162.537 22.7339 168.502 23.1464 166.834 25.9567C165.446 28.2973 170.471 32.661 170.471 32.661L181 33.6335C181 33.6335 174.156 40.9277 164.681 41.9002C154.009 42.9955 142.57 38.01 142.57 38.01L146.782 42.8728C146.782 42.8728 136.137 40.7017 132.689 42.4988C130.484 43.6482 128.128 45.9839 128.128 50.1305Z" fill="#7D4A40"/>
<path d="M123.651 57.625C123.536 55.0044 123.122 51.1424 119.398 51.0505C115.674 50.9585 115.191 53.763 115.306 58.1767C115.421 62.5903 119.904 66.3373 123.835 64.8201L123.651 57.625Z" fill="#FBBEAA"/>
<path d="M118.179 60.7969C118.34 60.7688 118.484 60.6781 118.579 60.5447C118.673 60.4112 118.712 60.2458 118.685 60.0843C118.685 59.9546 118.722 59.8275 118.791 59.7177C118.86 59.6079 118.959 59.5198 119.076 59.4636C119.31 59.3065 119.586 59.2226 119.869 59.2226C120.151 59.2226 120.427 59.3065 120.662 59.4636C120.764 59.52 120.879 59.5495 120.995 59.5495C121.112 59.5495 121.227 59.52 121.329 59.4636C121.422 59.4017 121.497 59.3156 121.546 59.2144C121.594 59.1132 121.615 59.0007 121.604 58.8889C121.283 55.1879 118.915 54.4983 118.823 54.4753C118.744 54.4511 118.662 54.4433 118.58 54.4525C118.499 54.4616 118.42 54.4875 118.348 54.5285C118.277 54.5694 118.215 54.6247 118.166 54.6907C118.118 54.7567 118.083 54.832 118.064 54.9121C118.022 55.0645 118.042 55.2275 118.119 55.3654C118.197 55.5033 118.326 55.6048 118.478 55.6477C118.937 55.8556 119.338 56.1746 119.643 56.5759C119.948 56.9773 120.148 57.4483 120.225 57.9464C119.595 57.8438 118.949 57.9746 118.409 58.3142C118.094 58.4989 117.84 58.7709 117.677 59.0973C117.513 59.4238 117.448 59.7906 117.49 60.1533C117.486 60.2428 117.501 60.3321 117.535 60.4151C117.569 60.4981 117.621 60.5727 117.686 60.6339C117.752 60.6951 117.83 60.7413 117.915 60.7694C118 60.7976 118.09 60.8069 118.179 60.7969Z" fill="#F18380"/>
<path d="M150.271 71.0497C148.052 70.9641 145.921 70.157 144.202 68.7509" stroke="#73102A" stroke-width="0.5" stroke-miterlimit="10" stroke-linecap="round"/>
<path d="M150.349 66.9814C147.13 65.9239 143.452 64.6826 142.188 66.1768C141.2 67.1882 142.533 71.9467 147.475 72.7742C152.417 73.6018 154.187 70.1996 153.935 68.8893C153.774 68.0848 152.877 67.8319 150.349 66.9814Z" fill="#73102A"/>
<path d="M142.303 66.1081H142.188C141.2 67.1196 142.533 71.878 147.475 72.7056C148.549 72.9548 149.666 72.9548 150.739 72.7056C149.907 71.0517 148.719 69.6025 147.26 68.4619C145.802 67.3212 144.109 66.5174 142.303 66.1081Z" fill="#D65155"/>
<path d="M143.453 65.602C144.755 67.0173 146.409 68.0626 148.246 68.6319C150.083 69.2012 152.038 69.2741 153.912 68.8432C153.728 68.0617 152.809 67.8088 150.349 66.9813C148.166 66.0637 145.821 65.5946 143.453 65.602Z" fill="white"/>
<g opacity="0.3" filter="url(#filter0_f_110_13)">
<ellipse cx="106.5" cy="14.5" rx="106.5" ry="14.5" transform="matrix(1 0 0 -1 17 521.995)" fill="#CBCBCB"/>
</g>
<path d="M132.401 35.7479C131.044 39.8179 128.931 43.5946 126.172 46.8791H119.42C119.42 46.8791 114.185 40.8028 113.793 40.3051C113.225 39.6998 112.794 38.98 112.527 38.1939C112.261 37.4078 112.166 36.5738 112.249 35.7479H132.401Z" fill="#676575"/>
<path d="M126.173 46.8792C126.173 59.9747 121.846 78.5947 142.192 82.5325C142.192 82.5325 129.156 81.8442 124.157 75.4274C119.159 69.0106 119.42 46.7745 119.42 46.7745L126.173 46.8792Z" fill="#827F94"/>
<path d="M107.407 37.4243H173.465C173.968 31.4526 173.4 25.4389 171.79 19.6668C169.173 12.1762 163.938 3.00935 142.032 3.00935C120.127 3.00935 112.458 13.2762 110.914 21.0549C109.37 28.8337 110.103 31.3742 109.187 32.2123C108.271 33.0504 107.407 33.0766 107.407 34.3338V37.4243Z" fill="#EFEFEF"/>
<path d="M142.032 3.00948C146.809 2.92266 151.575 3.50449 156.191 4.73809H156.4L157.212 4.99999C159.423 5.68144 161.528 6.66879 163.467 7.93339C164.783 13.3649 165.129 18.9865 164.487 24.5385H157.212L147.528 22.8884C147.528 22.8884 144.466 7.17385 133.579 3.50711C136.381 3.13906 139.206 2.97276 142.032 3.00948Z" fill="#D8D8D8"/>
<path d="M140.514 0.495087H155.301C156.871 0.495087 164.487 6.41425 164.487 26.6861H147.659C147.659 20.7145 146.612 5.07851 137.19 3.11419C137.216 3.16657 138.629 0.495087 140.514 0.495087Z" fill="#EFEFEF"/>
<path d="M184.012 37.4242V33.6003C184.01 33.0522 183.895 32.5104 183.674 32.0088C183.453 31.5072 183.131 31.0567 182.728 30.6854C182.325 30.3141 181.85 30.0301 181.332 29.8512C180.814 29.6722 180.265 29.6022 179.719 29.6455H171.266C170.78 29.6682 170.295 29.5864 169.844 29.4057C169.392 29.225 168.985 28.9495 168.649 28.5979C168.099 27.9693 164.357 24.4597 163.912 23.9359C163.606 23.5358 163.209 23.2152 162.753 23.001C162.298 22.7868 161.797 22.6852 161.294 22.7049H148.994C148.491 22.6895 147.993 22.793 147.538 23.0069C147.083 23.2208 146.685 23.5391 146.377 23.9359C145.932 24.4597 142.189 27.9693 141.639 28.5979C141.304 28.9509 140.897 29.2273 140.445 29.4081C139.994 29.5889 139.508 29.6699 139.022 29.6455H131.982C131.436 29.6022 130.887 29.6722 130.369 29.8512C129.852 30.0301 129.376 30.3141 128.973 30.6854C128.571 31.0567 128.249 31.5072 128.028 32.0088C127.807 32.5104 127.692 33.0522 127.69 33.6003V37.4242H184.012Z" fill="#D8D8D8"/>
<path d="M163.187 427.904C163.187 427.904 162.063 475.349 161.782 482.446C161.501 489.543 156.982 491.475 149.7 492.103C142.419 492.731 139.352 486.984 138.322 482.423C137.291 477.862 131.063 431.348 131.063 431.348L163.187 427.904Z" fill="#FBBEAA"/>
<path d="M116.149 429.051C116.149 429.051 109.958 476.631 108.933 483.714C107.909 490.797 103.23 492.303 95.9445 492.139C88.6586 491.974 86.261 485.879 85.7256 481.197C85.1902 476.514 84.0264 429.051 84.0264 429.051H116.149Z" fill="#FBBEAA"/>
<path d="M97.1667 468.085C99.8111 467.898 102.433 468.677 104.535 470.273C106.637 471.87 108.072 474.173 108.568 476.746L120.738 489.069V496.739H81.7319C81.7319 496.739 83.6904 482.919 84.25 479.81C84.8096 476.7 86.6981 468.085 97.1667 468.085Z" fill="#FBBEAA"/>
<path d="M108.717 476.973C109.167 476.361 109.807 475.89 110.258 476.173C110.708 476.455 122.677 485.873 123.245 486.344C123.596 486.67 123.861 487.077 124.018 487.528C124.175 487.979 124.219 488.462 124.146 488.933V499.034H80.5845C80.5845 499.034 82.2909 484.107 82.4094 483.283C82.5279 482.459 83.3574 481.376 83.8314 481.399C86.8213 482.309 89.9244 482.801 93.0509 482.859C97.2063 483.078 101.351 482.269 105.115 480.505C106.51 479.541 107.728 478.346 108.717 476.973Z" fill="#302D3B"/>
<path d="M116.937 490.849C114.875 489.291 107.458 483.392 104.677 481.173L105.326 480.843C105.413 480.805 105.492 480.748 105.557 480.678C108.524 483.038 115.5 488.607 117.494 490.117C119.178 491.432 120.333 493.329 120.738 495.45L119.834 495.592C119.452 493.711 118.425 492.03 116.937 490.849Z" fill="white"/>
<path d="M81.8727 488.708C84.9111 488.74 87.8514 489.796 90.2233 491.709C92.3672 493.622 93.8193 496.199 94.3517 499.034H93.085C92.567 496.577 91.2852 494.351 89.4258 492.678C87.2428 490.917 84.5288 489.958 81.7319 489.961L81.8727 488.708Z" fill="white"/>
<path d="M131.574 497.887H81.2213C80.8696 497.887 80.5845 498.205 80.5845 498.599V504.058C80.5845 504.451 80.8696 504.77 81.2213 504.77H131.574C131.926 504.77 132.211 504.451 132.211 504.058V498.599C132.211 498.205 131.926 497.887 131.574 497.887Z" fill="white"/>
<path d="M123.227 486.442C123.649 486.271 125.715 486.846 128.402 489.377C129.521 490.485 130.327 491.848 130.743 493.337C131.158 494.826 131.171 496.392 130.779 497.887H117.297C118.052 489.718 122.805 486.612 123.227 486.442Z" fill="white"/>
<path d="M117.482 485.969C117.345 486.169 117.28 486.425 117.301 486.682C117.321 486.939 117.426 487.176 117.592 487.342C117.674 487.422 117.768 487.482 117.869 487.519C117.97 487.556 118.076 487.569 118.181 487.557C118.287 487.545 118.389 487.508 118.482 487.449C118.576 487.389 118.658 487.309 118.725 487.211L120.553 484.574C120.69 484.374 120.755 484.118 120.735 483.861C120.714 483.604 120.61 483.366 120.443 483.201C120.363 483.118 120.269 483.055 120.168 483.017C120.066 482.978 119.959 482.964 119.853 482.977C119.747 482.989 119.645 483.027 119.551 483.088C119.458 483.149 119.376 483.232 119.31 483.332L117.482 485.969Z" fill="white"/>
<path d="M115.188 484.416C115.051 484.665 114.985 484.985 115.006 485.306C115.026 485.627 115.131 485.922 115.298 486.129C115.378 486.232 115.472 486.311 115.574 486.359C115.676 486.407 115.783 486.424 115.889 486.409C115.995 486.393 116.098 486.346 116.192 486.27C116.285 486.194 116.368 486.09 116.433 485.966L118.265 482.676C118.398 482.424 118.46 482.106 118.44 481.787C118.419 481.468 118.317 481.173 118.155 480.963C118.074 480.859 117.98 480.781 117.879 480.733C117.777 480.685 117.67 480.668 117.564 480.683C117.457 480.698 117.354 480.746 117.261 480.822C117.167 480.898 117.085 481.001 117.019 481.126L115.188 484.416Z" fill="white"/>
<path d="M111.811 481.789C111.63 481.935 111.542 482.124 111.564 482.315C111.586 482.505 111.718 482.682 111.931 482.806C112.151 482.929 112.432 482.987 112.714 482.969C112.997 482.951 113.257 482.857 113.439 482.708L115.832 480.724C115.932 480.656 116.012 480.576 116.067 480.487C116.121 480.399 116.15 480.303 116.15 480.207C116.15 480.111 116.121 480.016 116.067 479.927C116.012 479.838 115.932 479.758 115.832 479.691C115.61 479.572 115.33 479.516 115.049 479.534C114.769 479.552 114.509 479.644 114.324 479.789L111.811 481.789Z" fill="white"/>
<path d="M109.449 479.76C109.382 479.883 109.331 480.025 109.301 480.177C109.27 480.33 109.259 480.49 109.269 480.649C109.279 480.808 109.31 480.962 109.36 481.103C109.409 481.244 109.477 481.369 109.558 481.47C109.711 481.698 109.917 481.825 110.131 481.825C110.345 481.825 110.551 481.698 110.704 481.47L112.523 478.104C112.659 477.851 112.724 477.527 112.704 477.201C112.683 476.876 112.579 476.576 112.414 476.366C112.332 476.265 112.239 476.188 112.138 476.142C112.038 476.095 111.932 476.079 111.827 476.094C111.722 476.11 111.621 476.156 111.528 476.231C111.435 476.306 111.353 476.409 111.286 476.532L109.449 479.76Z" fill="white"/>
<path d="M153.391 468.085C156.037 467.898 158.66 468.677 160.763 470.273C162.866 471.87 164.302 474.173 164.799 476.746L176.953 489.069V496.739H137.947C137.947 496.739 139.883 482.919 140.466 479.81C141.05 476.7 142.916 468.085 153.391 468.085Z" fill="#FBBEAA"/>
<path d="M163.807 476.973C164.258 476.361 164.875 475.89 165.349 476.173C165.823 476.455 177.778 485.873 178.323 486.344C178.869 486.815 179.248 487.403 179.248 488.933V499.034H135.653C135.653 499.034 137.361 484.107 137.479 483.283C137.598 482.459 138.428 481.376 138.902 481.399C141.895 482.309 145 482.801 148.129 482.859C152.28 483.082 156.422 482.273 160.178 480.505C161.586 479.546 162.814 478.351 163.807 476.973Z" fill="#302D3B"/>
<path d="M170.858 490.849C168.795 489.291 161.379 483.392 158.598 481.173L159.223 480.843C159.318 480.805 159.405 480.749 159.478 480.678C162.445 483.038 169.421 488.607 171.414 490.117C173.099 491.432 174.254 493.329 174.659 495.45L173.755 495.592C173.362 493.716 172.337 492.038 170.858 490.849Z" fill="white"/>
<path d="M138.075 488.708C140.837 488.74 143.51 489.796 145.666 491.709C147.615 493.622 148.935 496.199 149.419 499.034H148.268C147.791 496.574 146.618 494.348 144.92 492.678C142.945 490.913 140.483 489.954 137.947 489.961L138.075 488.708Z" fill="white"/>
<path d="M185.495 497.887H135.142C134.79 497.887 134.505 498.205 134.505 498.599V504.058C134.505 504.451 134.79 504.77 135.142 504.77H185.495C185.847 504.77 186.132 504.451 186.132 504.058V498.599C186.132 498.205 185.847 497.887 185.495 497.887Z" fill="white"/>
<path d="M177.642 486.442C178.099 486.271 180.337 486.846 183.248 489.377C184.46 490.485 185.333 491.848 185.783 493.337C186.234 494.826 186.247 496.392 185.823 497.887H171.217C172.035 489.718 177.185 486.612 177.642 486.442Z" fill="white"/>
<path d="M172.612 485.969C172.429 486.169 172.342 486.425 172.369 486.682C172.397 486.939 172.537 487.176 172.759 487.342C172.868 487.422 172.993 487.482 173.128 487.519C173.264 487.556 173.405 487.569 173.546 487.557C173.687 487.545 173.823 487.508 173.948 487.449C174.073 487.389 174.183 487.309 174.273 487.211L176.715 484.574C176.892 484.372 176.975 484.117 176.948 483.861C176.921 483.606 176.785 483.37 176.568 483.201C176.461 483.118 176.335 483.055 176.2 483.017C176.064 482.978 175.921 482.964 175.78 482.977C175.638 482.989 175.501 483.027 175.376 483.088C175.251 483.149 175.142 483.232 175.054 483.332L172.612 485.969Z" fill="white"/>
<path d="M170.256 484.413C170.119 484.663 170.053 484.983 170.074 485.304C170.095 485.625 170.2 485.922 170.366 486.128C170.447 486.232 170.541 486.311 170.642 486.359C170.744 486.407 170.851 486.424 170.957 486.409C171.064 486.393 171.167 486.346 171.26 486.27C171.354 486.194 171.436 486.09 171.502 485.965L173.333 482.67C173.466 482.417 173.529 482.099 173.508 481.779C173.488 481.46 173.386 481.165 173.223 480.954C173.055 480.75 172.84 480.653 172.624 480.683C172.408 480.714 172.209 480.87 172.069 481.118L170.256 484.413Z" fill="white"/>
<path d="M166.954 481.791C166.851 481.857 166.769 481.936 166.713 482.023C166.657 482.11 166.628 482.204 166.628 482.299C166.628 482.393 166.657 482.487 166.713 482.574C166.769 482.662 166.851 482.74 166.954 482.806C167.179 482.929 167.469 482.987 167.76 482.969C168.05 482.951 168.318 482.857 168.505 482.708L170.968 480.727C171.152 480.577 171.24 480.384 171.212 480.191C171.185 479.998 171.044 479.82 170.82 479.695C170.71 479.635 170.583 479.59 170.447 479.562C170.311 479.534 170.168 479.525 170.026 479.534C169.884 479.543 169.746 479.571 169.62 479.615C169.495 479.66 169.383 479.72 169.293 479.794L166.954 481.791Z" fill="white"/>
<path d="M164.578 479.76C164.489 479.883 164.422 480.025 164.381 480.177C164.34 480.33 164.325 480.49 164.339 480.649C164.352 480.808 164.393 480.962 164.459 481.103C164.525 481.244 164.615 481.369 164.724 481.47C164.928 481.698 165.202 481.825 165.488 481.825C165.773 481.825 166.048 481.698 166.252 481.47L168.677 478.104C168.859 477.851 168.945 477.527 168.918 477.201C168.891 476.876 168.752 476.576 168.531 476.366C168.423 476.265 168.298 476.188 168.164 476.142C168.03 476.095 167.889 476.079 167.749 476.094C167.61 476.11 167.474 476.156 167.35 476.231C167.226 476.306 167.117 476.409 167.028 476.532L164.578 479.76Z" fill="white"/>
<path d="M87.6601 327.226C87.2707 330.255 87.4754 333.333 88.2622 336.281C89.049 339.23 90.4023 341.99 92.2438 344.402C94.0854 346.815 96.3786 348.832 98.9908 350.336C101.603 351.841 104.482 352.803 107.462 353.168C110.442 353.532 113.464 353.292 116.352 352.46C119.24 351.629 121.938 350.223 124.288 348.323C126.639 346.423 128.597 344.068 130.047 341.394C131.498 338.719 132.414 335.779 132.741 332.742C132.741 332.742 144.56 248.245 147.363 231.175C150.166 214.104 147.199 199.816 128.419 195.75C108.939 191.542 96.7696 206.069 95.2981 220.619C93.8265 235.169 87.6601 327.226 87.6601 327.226Z" fill="#013EA5"/>
<path d="M125.612 328.851C125.537 334.964 127.895 340.856 132.169 345.232C136.443 349.608 142.282 352.108 148.401 352.184C154.521 352.259 160.42 349.903 164.8 345.634C169.181 341.365 171.685 335.533 171.76 329.42C171.76 329.42 174.68 244.341 175.677 227.103C176.674 209.864 172.164 196.04 152.745 194.048C132.615 191.985 121.885 207.706 121.885 222.313C121.885 236.92 125.612 328.851 125.612 328.851Z" fill="#013EA5"/>
<path d="M125.327 329.038C125.365 326.014 126.011 323.028 127.228 320.248C128.446 317.469 130.21 314.952 132.421 312.84C134.631 310.728 137.245 309.064 140.113 307.941C142.981 306.819 146.047 306.26 149.135 306.297C152.224 306.335 155.274 306.967 158.113 308.159C160.952 309.35 163.523 311.078 165.68 313.242C167.837 315.407 169.537 317.966 170.684 320.774C171.83 323.581 172.401 326.583 172.363 329.606L167.524 451.435L129.561 455.438L125.327 329.038Z" fill="#013EA5"/>
<path d="M87.7399 327.576C88.5225 321.534 91.6339 316.048 96.3984 312.309C101.163 308.57 107.196 306.881 113.186 307.608C119.176 308.335 124.641 311.421 128.392 316.193C132.144 320.966 133.879 327.041 133.222 333.098L115.477 454.291H78.29L87.7399 327.576Z" fill="#013EA5"/>
<path d="M132.211 331.535L115.002 453.144" stroke="#013EA5" stroke-width="0.75" stroke-miterlimit="10" stroke-linecap="round"/>
<path d="M133.358 332.682C133.358 332.682 145.413 248.692 148.272 231.724" stroke="#F5F5F5" stroke-width="0.75" stroke-miterlimit="10" stroke-linecap="round"/>
<path d="M173.512 204.19C173.512 204.19 173.512 228.129 173.512 229.445C173.512 230.761 162.003 242.049 146.718 242.049C123.217 242.049 95.0887 233.439 95.5031 227.829C95.7793 224.136 96.1245 204.19 96.1245 204.19H173.512Z" fill="#013EA5"/>
<path d="M244.334 105.977L233.209 175.814C231.373 184.575 234.21 192.502 244.334 193.893C246.202 194.136 248.101 193.997 249.914 193.484C251.728 192.971 253.418 192.095 254.883 190.909C256.347 189.723 257.555 188.252 258.433 186.584C259.312 184.917 259.842 183.089 259.992 181.21L263.385 106.116C264.275 99.0237 261.188 94.2956 255.792 93.7115C249.173 92.9884 245.669 96.91 244.334 105.977Z" fill="#FBBEAA"/>
<path d="M253.374 168.082L173.496 107.395C164.179 101.443 157.838 104.614 152.887 110.983C150.626 114.066 149.578 117.872 149.942 121.678C150.306 125.483 152.057 129.022 154.862 131.62L234.545 190.332C237.353 192.704 240.968 193.901 244.636 193.673C248.304 193.445 251.743 191.81 254.236 189.109L254.598 188.719C255.921 187.308 256.942 185.642 257.6 183.822C258.258 182.003 258.538 180.069 258.424 178.138C258.309 176.207 257.802 174.319 256.934 172.59C256.066 170.861 254.854 169.328 253.374 168.082Z" fill="#FBBEAA"/>
<path d="M244.667 104.113C244.782 101.607 244.111 99.1272 242.748 97.0208C240.65 94.5879 239.078 91.747 238.131 88.677C237.403 85.8272 236.239 83.1066 234.682 80.6112C233.57 79.0815 231.901 77.83 231.901 76.6619C231.901 75.4938 234.126 73.2409 237.297 73.8806C238.655 74.3037 239.902 75.0217 240.951 75.9834C241.999 76.945 242.822 78.1264 243.36 79.4431C243.664 78.6409 243.842 77.7966 243.888 76.94L244.583 59.8909C244.594 59.4489 244.693 59.0135 244.875 58.6104C245.056 58.2073 245.317 57.8447 245.641 57.544C245.965 57.2433 246.346 57.0105 246.761 56.8595C247.177 56.7084 247.618 56.6422 248.06 56.6646C248.763 56.6946 249.439 56.9441 249.993 57.3782C250.546 57.8122 250.95 58.4089 251.147 59.0843V58.3055C251.254 57.4767 251.671 56.7191 252.313 56.1847C252.956 55.6503 253.777 55.3787 254.611 55.4245C255.445 55.4702 256.232 55.83 256.812 56.4314C257.392 57.0329 257.723 57.8316 257.739 58.6671V61.0312C258.017 60.3024 258.549 59.6978 259.236 59.3279C259.923 58.9579 260.72 58.8472 261.481 59.0157C262.243 59.1842 262.919 59.6209 263.386 60.2461C263.853 60.8713 264.079 61.6435 264.025 62.4218V63.9237C264.324 63.3976 264.77 62.9701 265.308 62.6935C265.847 62.4169 266.454 62.3032 267.056 62.3661C267.88 62.4708 268.632 62.8922 269.151 63.5411C269.67 64.19 269.916 65.0155 269.837 65.8427L268.475 80.2219C267.582 88.3287 265.905 96.3298 263.468 104.113C263.439 105.412 263.138 106.691 262.584 107.868C262.031 109.044 261.238 110.091 260.256 110.943C259.273 111.794 258.124 112.43 256.881 112.811C255.638 113.191 254.329 113.308 253.038 113.152C251.871 113.191 250.708 112.978 249.63 112.529C248.551 112.079 247.582 111.402 246.788 110.545C245.994 109.687 245.394 108.669 245.028 107.56C244.662 106.45 244.539 105.274 244.667 104.113Z" fill="#FBBEAA"/>
<path d="M166.903 103.056L236.027 149.677C235.737 152.061 241.338 103.056 241.338 103.056L266.924 105.444C266.924 105.444 265.429 155.338 261.664 181.688C260.17 192.145 251.466 196.111 241.145 193.859C236.049 192.747 231.252 190.656 226.983 187.66C208.639 174.784 157.177 138.518 152.969 133.956C145.71 126.085 145.71 120.189 149.882 113.708C154.054 107.228 162.981 102.083 166.903 103.056Z" fill="#013EA5"/>
<path d="M245.223 81.8632C244.167 81.8632 244.083 81.1957 243.61 79.9719C245.974 79.9719 252.844 80.4169 255.848 86.2019C252.816 82.0301 247.003 81.8632 245.223 81.8632ZM250.619 59.8634C250.619 59.8634 250.452 60.8369 250.285 62.2553C250.285 62.9784 250.118 63.8406 250.063 64.7306C250.007 65.6206 249.924 66.594 249.84 67.5119C249.84 69.4587 249.701 71.3778 249.701 72.8241C249.701 74.2703 249.701 75.2438 249.701 75.2438C249.701 75.29 249.711 75.3359 249.729 75.3783C249.748 75.4207 249.775 75.4588 249.809 75.4902C249.843 75.5215 249.883 75.5456 249.927 75.5606C249.97 75.5756 250.017 75.5814 250.063 75.5775C250.141 75.5736 250.216 75.5443 250.276 75.4941C250.336 75.444 250.379 75.3757 250.397 75.2994C250.397 75.2994 250.563 74.3259 250.703 72.8797C250.842 71.4334 251.064 69.5144 251.148 67.5953C251.148 66.6218 251.148 65.6484 251.148 64.814C251.148 63.9796 251.148 63.0619 251.148 62.3387C251.148 60.8647 251.148 59.919 251.148 59.919C251.148 59.8727 251.138 59.8269 251.12 59.7845C251.101 59.7421 251.074 59.704 251.04 59.6726C251.006 59.6412 250.966 59.6172 250.922 59.6022C250.879 59.5872 250.832 59.5814 250.786 59.5852C250.733 59.6159 250.689 59.6608 250.659 59.7148C250.63 59.7687 250.616 59.8298 250.619 59.8912V59.8634ZM257.072 61.8103C257.072 61.8103 256.905 62.6446 256.71 63.8684C256.71 64.5081 256.515 65.2312 256.432 66.0099C256.348 66.7887 256.265 67.6231 256.182 68.4575C256.182 70.1262 255.987 71.795 255.959 73.0465C255.931 74.2981 255.959 75.1603 255.959 75.1603C255.963 75.2042 255.975 75.2469 255.995 75.2861C256.015 75.3253 256.043 75.3601 256.076 75.3886C256.11 75.417 256.149 75.4385 256.191 75.4519C256.233 75.4652 256.277 75.4701 256.321 75.4663C256.395 75.4611 256.466 75.4308 256.522 75.3803C256.577 75.3299 256.614 75.2622 256.627 75.1882C256.627 75.1882 256.794 74.3537 256.988 73.13C257.183 71.9062 257.35 70.2097 257.489 68.5687C257.489 67.7344 257.489 66.9 257.656 66.1212C257.823 65.3425 257.656 64.5915 257.656 63.9518C257.656 62.7003 257.656 61.8659 257.656 61.8659C257.656 61.8196 257.646 61.7739 257.628 61.7314C257.609 61.689 257.582 61.6509 257.548 61.6195C257.514 61.5881 257.474 61.5642 257.43 61.5491C257.387 61.5341 257.34 61.5283 257.294 61.5322C257.232 61.5576 257.179 61.5997 257.14 61.6537C257.1 61.7077 257.077 61.7715 257.072 61.8381V61.8103ZM263.302 64.4524C263.302 64.4524 263.135 65.1478 262.912 66.2047C262.912 66.7053 262.69 67.3172 262.606 67.9847C262.523 68.6522 262.412 69.3475 262.3 70.0428C262.106 71.4613 262.022 72.8241 261.967 73.9366C261.911 75.0491 261.967 75.7166 261.967 75.7166C261.966 75.7629 261.976 75.8086 261.994 75.8511C262.013 75.8935 262.04 75.9316 262.074 75.963C262.108 75.9944 262.148 76.0183 262.192 76.0334C262.236 76.0484 262.282 76.0542 262.328 76.0504C262.399 76.0467 262.467 76.0203 262.522 75.9753C262.577 75.9303 262.617 75.8689 262.634 75.8C262.634 75.8 262.829 75.1047 263.024 74.0757C263.218 73.0466 263.496 71.6003 263.663 70.2097C263.663 69.4866 263.802 68.7912 263.858 68.1237C263.914 67.4562 263.858 66.8444 263.858 66.3159C263.858 65.259 263.858 64.5359 263.858 64.5359C263.858 64.4896 263.849 64.4439 263.83 64.4014C263.812 64.359 263.785 64.3209 263.751 64.2895C263.717 64.2581 263.676 64.2342 263.633 64.2191C263.589 64.2041 263.542 64.1983 263.496 64.2021C263.445 64.2308 263.401 64.2707 263.367 64.3188C263.333 64.367 263.311 64.4222 263.302 64.4803V64.4524Z" fill="#F18380"/>
<path d="M236.568 144.039L237.869 133.632L265.623 135.8L265.189 146.208L236.568 144.039Z" fill="#CFD1CE"/>
<path d="M155.871 96.5103C155.871 96.5103 172.664 106.207 175.285 107.904C177.906 109.601 180.866 112.219 180.332 119.297C179.799 126.376 177.542 221.661 177.542 221.661C168.923 223.12 143.683 223.12 143.683 223.12H141.389H139.668H137.373H135.653H133.932C133.932 223.12 96.5137 219.94 95.7614 219.503C95.0092 219.067 94.3054 218.606 94.3539 217.782C94.4025 216.958 94.8878 120.097 95.2033 115.831C95.2658 113.546 95.9855 111.327 97.2765 109.44C98.5675 107.553 100.375 106.077 102.483 105.189C107.555 102.934 126.605 95.2012 126.605 95.2012L142.605 96.5103H155.871Z" fill="#034CC9"/>
<path d="M155.871 96.5103C155.871 96.5103 172.664 106.207 175.285 107.904C177.906 109.601 180.866 112.219 180.332 119.297C179.799 126.376 177.542 221.661 177.542 221.661C168.923 223.12 155.156 223.12 155.156 223.12H152.861H151.141H148.846H147.125H145.404C145.404 223.12 148.14 219.94 147.388 219.503C146.635 219.067 145.932 218.606 145.98 217.782C146.029 216.958 146.514 120.097 146.83 115.831C146.892 113.546 147.612 111.327 148.903 109.44C150.194 107.553 152.001 106.077 154.11 105.189C159.182 102.934 126.605 95.2012 126.605 95.2012L142.605 96.5103H155.871Z" fill="#0045BA"/>
<path d="M157.777 96.65C157.777 96.65 176.342 107.382 179.24 109.26C182.137 111.138 179.822 115.278 179.822 122.735C179.822 132.487 178.101 133.061 178.101 133.061C172.295 136.194 169.756 133.75 163.357 135.356C160.245 135.705 157.83 135.785 155.738 133.746C153.645 131.707 147.125 132.487 147.125 132.487C147.125 132.487 137.306 131.197 132.719 133.746C131.621 134.511 130.381 135.048 129.072 135.325C127.763 135.601 126.734 135.581 125.421 135.325C118.767 133.957 92.1531 126.315 91.3214 125.832C90.4897 125.349 89.7117 124.839 89.7653 123.927C89.819 123.015 90.3556 122.755 90.7043 118.033C90.7734 115.504 91.5691 113.049 92.9964 110.96C94.4237 108.871 96.4222 107.238 98.753 106.255C104.36 103.76 125.421 95.2012 125.421 95.2012L143.11 95.7749L157.777 96.65Z" fill="#9A99A1"/>
<path d="M144.635 92.616C136.656 92.616 129.457 89.1468 126.855 87.4122V95.218C127.145 95.6516 129.371 97.0393 135.962 99.1208C142.554 101.202 152.007 100.422 155.91 99.1208V91.3151C155.91 91.7487 154.609 92.616 144.635 92.616Z" fill="#034CC9"/>
<path d="M145.068 222.711C147.284 221.968 149.224 220.535 150.621 218.61C152.018 216.684 152.805 214.36 152.874 211.955V93.0496H145.068V222.711Z" fill="#034CC9"/>
<path d="M179.822 135.981H140.479V127.308L179.822 127.324C179.822 131.34 179.822 132.487 179.822 135.981Z" fill="#D3D4D2"/>
<path d="M108.673 127.308H148.285V135.981H107.861C108.389 132.078 108.673 130.344 108.673 127.308Z" fill="#CFD1CE"/>
<g style="mix-blend-mode:multiply" opacity="0.4">
<path d="M144.201 100.244L145.068 100.422V222.711H144.201V100.244Z" fill="#013FA9"/>
</g>
<g filter="url(#filter1_d_110_13)">
<rect x="117.87" y="140.665" width="49.4484" height="70.4639" rx="1" transform="rotate(-6.55484 117.87 140.665)" fill="#EFEFEF"/>
</g>
<path d="M139.804 171.591C142.931 170.27 145.758 168.312 148.106 165.841C149.56 164.316 151.208 162.992 153.007 161.905C154.062 161.245 154.973 160.375 155.682 159.348C156.618 157.756 157.394 156.074 157.995 154.329C158.218 152.826 158.73 151.378 159.5 150.066C160.233 149.394 162.82 149.753 164.163 152.363C164.626 153.526 164.835 154.777 164.778 156.034C164.72 157.29 164.397 158.523 163.829 159.65C163.161 161.002 162.638 162.42 162.268 163.88L162.512 164.026C164.558 162.94 166.744 162.152 169.005 161.687C169.824 161.503 170.678 161.602 171.429 161.968C172.179 162.333 172.783 162.944 173.142 163.701C173.501 164.458 173.594 165.318 173.408 166.143C173.221 166.967 172.765 167.707 172.113 168.244C175.64 168.649 175.24 174.089 172.212 174.808C172.86 175.08 173.407 175.547 173.78 176.146C174.152 176.745 174.331 177.446 174.293 178.156C174.255 178.865 174.002 179.548 173.567 180.113C173.132 180.677 172.538 181.096 171.863 181.312C174.014 183.295 172.442 186.563 168.537 186.577C165.364 186.9 156.878 188.228 153.926 188.864C150.973 189.499 145.039 188.093 143.133 188.683C140.295 189.723 137 189.74 134.486 182.274C131.972 174.807 136.884 172.555 139.804 171.591Z" fill="#FBBEAA"/>
<path d="M92.2185 111.013C86.1474 118.819 56.896 200.858 56.896 200.858C89.4198 190.451 73.2551 186.461 90.9439 189.437C90.9439 189.437 118.58 130.787 119.359 126.504C120.172 123.127 119.807 119.575 118.325 116.434C116.843 113.293 114.333 110.752 111.21 109.232C102.504 104.782 98.2896 103.207 92.2185 111.013Z" fill="#0045BA"/>
<path d="M143.775 194.203L81.2741 219.366C73.2871 223.382 60.3105 221.322 56.3985 211.98C55.6822 210.239 55.3272 208.369 55.355 206.486C55.3828 204.603 55.7928 202.745 56.5602 201.025C57.3276 199.305 58.4364 197.759 59.8193 196.481C61.2022 195.202 62.8304 194.218 64.6051 193.587L138.471 166.872L143.775 194.203Z" fill="#0045BA"/>
<path d="M93.5524 182.802L104.253 179.592L108.264 208.17L98.3547 213.278L93.5524 182.802Z" fill="#CFD1CE"/>
<defs>
<filter id="filter0_f_110_13" x="0" y="475.995" width="247" height="63" filterUnits="userSpaceOnUse" color-interpolation-filters="sRGB">
<feFlood flood-opacity="0" result="BackgroundImageFix"/>
<feBlend mode="normal" in="SourceGraphic" in2="BackgroundImageFix" result="shape"/>
<feGaussianBlur stdDeviation="8.5" result="effect1_foregroundBlur_110_13"/>
</filter>
<filter id="filter1_d_110_13" x="117.978" y="135.128" width="58.9541" height="75.433" filterUnits="userSpaceOnUse" color-interpolation-filters="sRGB">
<feFlood flood-opacity="0" result="BackgroundImageFix"/>
<feColorMatrix in="SourceAlpha" type="matrix" values="0 0 0 0 0 0 0 0 0 0 0 0 0 0 0 0 0 0 127 0" result="hardAlpha"/>
<feOffset dx="2"/>
<feComposite in2="hardAlpha" operator="out"/>
<feColorMatrix type="matrix" values="0 0 0 0 0.603922 0 0 0 0 0.6 0 0 0 0 0.631373 0 0 0 1 0"/>
<feBlend mode="normal" in2="BackgroundImageFix" result="effect1_dropShadow_110_13"/>
<feBlend mode="normal" in="SourceGraphic" in2="effect1_dropShadow_110_13" result="shape"/>
</filter>
</defs>
</svg>
