<svg width="247" height="546" viewBox="0 0 247 546" fill="none" xmlns="http://www.w3.org/2000/svg">
<path d="M136.048 75.2346C136.653 75.2346 137.938 75.2346 139.072 75.6126C139.072 76.5198 137.056 77.2505 136.048 77.5025C135.796 76.7466 135.443 75.2346 136.048 75.2346Z" fill="#013FA9"/>
<path d="M104 26.5C102.518 32.1697 98.5969 35.2982 98.3354 41.1525C98.0245 46.0251 96.4126 50.7252 93.6675 54.763C91.045 58.1459 87.6096 61.66 88.8684 72.1497H156.029C156.029 72.1497 158.651 66.9048 155.504 57.9099C151.798 46.8053 149.069 35.398 147.349 23.8182L104 26.5Z" fill="#BC664A"/>
<path d="M113.808 54.7631V77.0276C113.808 77.0276 115.565 84.7113 127.34 84.7113C129.678 84.9084 132.002 84.203 133.836 82.7399C135.669 81.2768 136.873 79.167 137.2 76.844V54.7631H113.808Z" fill="#FBBEAA"/>
<path d="M137.2 73.4086C129.805 76.8964 119.027 73.7757 113.808 64.099V54.7631H137.2V73.4086Z" fill="#F18380"/>
<path d="M151.807 37.7432C151.919 43.0765 151.682 48.4114 151.099 53.7138C150.128 61.2665 147.454 69.6583 134.053 69.6583C120.652 69.6583 113.86 63.6267 110.975 53.7138C109.245 47.7085 105.731 38.8709 107.173 28.6171C108.615 18.3634 114.778 11.7024 129.333 11.3091C143.887 10.9157 153.407 17.4718 151.807 37.7432Z" fill="#FBBEAA"/>
<path d="M123.485 42.3065C123.578 42.6927 123.777 43.045 124.061 43.3234C124.344 43.6018 124.7 43.7952 125.088 43.8814C125.476 43.9677 125.88 43.9435 126.255 43.8115C126.63 43.6796 126.96 43.4452 127.208 43.1349C127.456 42.8247 127.612 42.451 127.659 42.0565C127.705 41.6619 127.64 41.2622 127.471 40.9027C127.302 40.5433 127.035 40.2386 126.701 40.0232C126.367 39.8077 125.98 39.6902 125.583 39.6841C125.27 39.7132 124.967 39.8048 124.692 39.9536C124.416 40.1024 124.173 40.3052 123.977 40.5499C123.781 40.7947 123.636 41.0763 123.552 41.3781C123.467 41.6799 123.444 41.9956 123.485 42.3065Z" fill="#403D4F"/>
<path d="M142.917 42.3065C143.01 42.6927 143.21 43.045 143.493 43.3234C143.777 43.6018 144.132 43.7952 144.52 43.8814C144.908 43.9677 145.312 43.9435 145.687 43.8115C146.062 43.6796 146.392 43.4452 146.64 43.1349C146.888 42.8247 147.045 42.451 147.091 42.0565C147.138 41.6619 147.073 41.2622 146.903 40.9027C146.734 40.5433 146.467 40.2386 146.133 40.0232C145.799 39.8077 145.412 39.6902 145.015 39.6841C144.704 39.7166 144.403 39.8106 144.129 39.9604C143.855 40.1103 143.613 40.313 143.418 40.557C143.223 40.8009 143.078 41.0812 142.992 41.3815C142.906 41.6818 142.88 41.9962 142.917 42.3065Z" fill="#403D4F"/>
<path d="M129.804 34.8852C129.804 34.8852 129.805 34.8853 129.595 34.6755C129.383 34.4698 129.145 34.2934 128.887 34.151C128.556 33.9617 128.204 33.812 127.838 33.7052C126.984 33.4709 126.098 33.3822 125.215 33.4429C124.844 33.462 124.475 33.5147 124.114 33.6003L123.091 33.8887C122.922 33.9431 122.781 34.0612 122.698 34.2179C122.615 34.3746 122.596 34.5575 122.645 34.7279C122.689 34.862 122.772 34.9793 122.885 35.0639C122.998 35.1484 123.134 35.1959 123.275 35.1999H125.241C125.582 35.1741 125.924 35.1741 126.264 35.1999C126.601 35.231 126.935 35.2924 127.261 35.3835C127.602 35.3835 127.838 35.5671 128.1 35.5933C128.286 35.6717 128.479 35.7332 128.677 35.7769H128.913C129.077 35.8481 129.262 35.8522 129.428 35.7885C129.595 35.7247 129.73 35.5982 129.804 35.436C129.843 35.3448 129.864 35.2467 129.864 35.1475C129.864 35.0483 129.843 34.9502 129.804 34.859V34.8852Z" fill="#403D4F"/>
<path d="M142.576 35.8815C142.576 35.8815 142.576 35.8815 142.733 35.8815L143.126 35.7242H143.415C143.518 35.7014 143.626 35.7014 143.73 35.7242C143.961 35.6476 144.198 35.5863 144.438 35.5406C144.682 35.5133 144.928 35.5133 145.172 35.5406H146.667C146.755 35.5407 146.842 35.5229 146.924 35.4883C147.005 35.4537 147.079 35.4031 147.14 35.3394C147.201 35.2757 147.249 35.2003 147.28 35.1177C147.311 35.0351 147.326 34.947 147.322 34.8588C147.317 34.7287 147.275 34.6027 147.201 34.4958C147.126 34.389 147.023 34.3056 146.903 34.2556L146.09 33.9671C145.8 33.8803 145.5 33.8275 145.198 33.8098C144.842 33.7578 144.479 33.7578 144.123 33.8098C143.438 33.8956 142.788 34.1577 142.235 34.5703L141.736 35.0686C141.605 35.2259 141.605 35.2784 141.605 35.3046V35.5406C141.582 35.7207 141.629 35.9028 141.737 36.0492C141.844 36.1956 142.004 36.2952 142.182 36.3273C142.362 36.2299 142.501 36.0719 142.576 35.8815Z" fill="#403D4F"/>
<path d="M137.2 51.2492C137.642 51.2467 138.079 51.1548 138.485 50.979C138.89 50.8033 139.256 50.5473 139.56 50.2265C139.671 50.1076 139.757 49.967 139.811 49.8136C139.865 49.6601 139.887 49.4972 139.875 49.3349C139.875 49.0464 139.429 45.4274 139.272 44.09C139.242 43.9606 139.168 43.8456 139.063 43.7644C138.957 43.6832 138.828 43.6407 138.695 43.6442C138.56 43.6638 138.438 43.7349 138.355 43.8425C138.272 43.9502 138.234 44.0859 138.249 44.2211C138.249 44.4047 138.826 49.1513 138.878 49.466C138.664 49.7037 138.4 49.8923 138.106 50.019C137.812 50.1457 137.494 50.2075 137.174 50.2003C137.039 50.207 136.913 50.2652 136.82 50.3629C136.727 50.4605 136.675 50.5901 136.676 50.7248C136.682 50.8618 136.739 50.9915 136.836 51.0885C136.933 51.1856 137.063 51.2429 137.2 51.2492Z" fill="#F18380"/>
<path d="M139.613 56.4153C140.583 56.6513 140.95 58.1198 140.347 59.8244C139.752 60.9981 138.779 61.9368 137.584 62.4888C136.39 63.0408 135.044 63.1738 133.765 62.8664C133.066 62.8333 132.381 62.6607 131.75 62.3591C131.12 62.0574 130.556 61.6326 130.091 61.1097C129.627 60.5868 129.272 59.9764 129.047 59.3143C128.822 58.6522 128.732 57.9519 128.782 57.2544C128.782 56.1268 129.569 55.4712 131.037 55.4712C133.917 55.5481 136.785 55.8638 139.613 56.4153Z" fill="#73102A"/>
<path d="M128.782 57.3857V57.1496C130.701 56.706 132.717 56.9987 134.431 57.9699C136.146 58.9411 137.433 60.52 138.039 62.3945C136.69 63.0557 135.172 63.2933 133.686 63.0763C132.987 63.0335 132.304 62.8511 131.677 62.5401C131.049 62.229 130.491 61.7955 130.034 61.2652C129.577 60.7348 129.23 60.1183 129.015 59.452C128.8 58.7857 128.721 58.0831 128.782 57.3857Z" fill="#D65155"/>
<path d="M138.773 57.9888C135.452 58.0403 132.146 57.5351 128.991 56.494C129.189 56.1368 129.49 55.8478 129.855 55.6652C130.221 55.4826 130.633 55.415 131.037 55.4713C133.917 55.5482 136.785 55.8639 139.612 56.4154C139.883 56.5088 140.121 56.681 140.294 56.9099C140.466 57.1387 140.567 57.414 140.583 57.7004C140.002 57.9064 139.389 58.0041 138.773 57.9888Z" fill="white"/>
<path d="M124.193 27.4376C124.193 27.4376 121.571 40.5498 110.451 45.6373C110.451 45.6373 102.189 40.7858 103.5 28.2244C110.566 30.7308 124.036 -6.3918 145.907 10.0771C148.031 9.73619 143.182 16.7518 142.5 13.5C143.394 14.0617 146.579 12.5319 147 13.5C147.421 14.4681 150.762 12.963 150.564 14C150.366 15.037 151.313 9.41615 150.564 10.1605C149.815 10.9049 148.859 11.4059 147.821 11.5981C151.391 12.0955 149.767 14.6706 152 17.5C154.233 20.3293 156.346 22.9121 156 26.5C155.888 28.7621 158.752 31.1855 157.16 32.7967C155.568 34.4078 153.438 35.3755 151.178 35.5147H147.323C144.341 34.1479 141.929 31.7827 140.505 28.8275C140.875 31.0551 141.649 33.1967 142.786 35.1476C142.996 35.541 142.524 36.2228 139.298 35.541C135.595 34.2672 132.5 31.6584 130.618 28.2244C131.323 30.4761 132.264 32.6473 133.424 34.7018C133.424 35.0951 131.719 35.6721 129.202 34.5182C127.8 33.9085 126.591 32.9261 125.708 31.6777C124.825 30.4294 124.301 28.9629 124.193 27.4376Z" fill="#BC664A"/>
<path d="M141.396 37.7435C140.452 37.7435 140.085 39.4743 140.085 41.1264C140.181 43.3643 140.849 45.5401 142.025 47.4465C142.506 48.0217 143.131 48.4603 143.835 48.7181C144.539 48.9758 145.299 49.0438 146.038 48.9151C146.937 49.0542 147.857 48.9949 148.731 48.7412C149.605 48.4875 150.413 48.0456 151.099 47.4465C152.542 45.6385 153.402 43.4344 153.564 41.1264C153.564 39.4743 153.066 37.7435 151.886 37.7435H141.396Z" stroke="#403D4F" stroke-width="0.75" stroke-miterlimit="10"/>
<path d="M133.476 37.7435C134.735 37.7435 135.233 39.4743 135.233 41.1264C135.061 43.4603 134.142 45.6765 132.611 47.4465C131.886 48.0413 131.045 48.479 130.142 48.7319C129.24 48.9847 128.294 49.0471 127.366 48.9151C125.009 49.2182 122.619 48.6995 120.6 47.4465C118.758 45.8216 117.589 43.5678 117.322 41.1264C117.322 39.4743 117.951 37.7435 119.551 37.7435H133.476Z" stroke="#403D4F" stroke-width="0.75" stroke-miterlimit="10"/>
<path d="M140.295 39.317C139.541 38.7428 138.62 38.4318 137.672 38.4318C136.725 38.4318 135.804 38.7428 135.05 39.317" stroke="#403D4F" stroke-width="0.75" stroke-miterlimit="10"/>
<path d="M119.499 37.7435H116.3C115.618 37.7435 114.831 37.9008 114.831 38.8187V40.2873C114.831 40.6544 117.165 41.3887 117.454 42.2016" stroke="#403D4F" stroke-width="0.75" stroke-miterlimit="10"/>
<path d="M107.855 41.5727L114.831 38.8191" stroke="#403D4F" stroke-width="0.75" stroke-miterlimit="10"/>
<path d="M111.447 47.5779C111.237 44.0114 110.293 39.8417 105.94 40.4711C100.852 41.2578 100.354 55.0256 111.185 53.3735L111.447 47.5779Z" fill="#FBBEAA"/>
<path d="M105.574 48.4958C105.665 48.497 105.755 48.4733 105.833 48.427C105.912 48.3808 105.976 48.3138 106.019 48.2335C106.135 48.0065 106.306 47.8127 106.517 47.6704C106.728 47.5281 106.972 47.4421 107.226 47.4206C107.528 47.4239 107.825 47.5053 108.087 47.6569C108.349 47.8085 108.567 48.0252 108.721 48.286C108.783 48.3757 108.874 48.4422 108.978 48.4754C109.082 48.5086 109.194 48.5065 109.297 48.4695C109.408 48.4388 109.504 48.3685 109.567 48.2719C109.63 48.1753 109.655 48.059 109.638 47.9451C109.593 46.842 109.25 45.7719 108.645 44.8484C108.04 43.9249 107.196 43.1825 106.203 42.7002C106.136 42.6605 106.061 42.6362 105.984 42.6289C105.907 42.6217 105.829 42.6316 105.756 42.6581C105.683 42.6846 105.617 42.727 105.562 42.7822C105.508 42.8374 105.466 42.904 105.44 42.9772C105.415 43.0505 105.405 43.1285 105.413 43.2057C105.422 43.2829 105.447 43.3574 105.487 43.4237C105.527 43.49 105.582 43.5466 105.647 43.5892C105.712 43.6319 105.785 43.6597 105.862 43.6705C106.451 43.9569 106.976 44.3604 107.405 44.8564C107.833 45.3524 108.156 45.9304 108.353 46.5552C107.987 46.3747 107.58 46.2933 107.173 46.3191C106.749 46.3592 106.342 46.502 105.985 46.735C105.629 46.968 105.334 47.2843 105.128 47.6566C105.07 47.7757 105.06 47.9122 105.099 48.0387C105.138 48.1651 105.223 48.2722 105.338 48.3384L105.574 48.4958Z" fill="#F18380"/>
<path d="M122.906 29.8654C121.756 33.3134 119.966 36.5129 117.629 39.2954H111.909C111.909 39.2954 107.474 34.1477 107.142 33.7262C106.661 33.2134 106.295 32.6035 106.07 31.9376C105.844 31.2716 105.764 30.5651 105.834 29.8654H122.906Z" fill="#676575"/>
<path d="M117.629 39.2955C117.629 50.3897 113.964 66.1641 131.2 69.5001C131.2 69.5001 120.157 68.917 115.922 63.4809C111.687 58.0447 111.909 39.2068 111.909 39.2068L117.629 39.2955Z" fill="#827F94"/>
<path d="M101.732 31.2855H157.694C158.12 26.2264 157.64 21.1318 156.275 16.2418C154.058 9.89594 149.624 2.13 131.066 2.13C112.508 2.13 106.011 10.8278 104.703 17.4178C103.395 24.0077 104.016 26.16 103.24 26.8701C102.464 27.5801 101.732 27.6023 101.732 28.6673V31.2855Z" fill="#EFEFEF"/>
<path d="M131.065 2.13012C135.112 2.05656 139.15 2.54948 143.06 3.59456H143.238L143.925 3.81644C145.799 4.39374 147.582 5.2302 149.224 6.30154C150.339 10.9029 150.632 15.6655 150.089 20.369H143.925L135.721 18.9711C135.721 18.9711 133.127 5.65807 123.904 2.5517C126.278 2.2399 128.671 2.09901 131.065 2.13012Z" fill="#D8D8D8"/>
<path d="M129.779 0H142.306C143.637 0 150.089 5.01457 150.089 22.1884H135.832C135.832 17.1294 134.945 3.88297 126.963 2.21884C126.986 2.26321 128.183 0 129.779 0Z" fill="#EFEFEF"/>
<path d="M166.629 31.2855V28.0459C166.628 27.5816 166.53 27.1226 166.343 26.6976C166.156 26.2727 165.883 25.891 165.542 25.5765C165.201 25.262 164.798 25.0214 164.359 24.8698C163.921 24.7182 163.456 24.6588 162.993 24.6955H155.832C155.42 24.7147 155.009 24.6454 154.627 24.4923C154.244 24.3392 153.899 24.1059 153.614 23.808C153.149 23.2754 149.978 20.3022 149.601 19.8584C149.342 19.5196 149.006 19.2479 148.62 19.0664C148.234 18.885 147.81 18.7989 147.384 18.8156H136.963C136.538 18.8026 136.115 18.8902 135.73 19.0714C135.344 19.2526 135.007 19.5223 134.746 19.8584C134.369 20.3022 131.198 23.2754 130.733 23.808C130.449 24.107 130.104 24.3412 129.721 24.4944C129.338 24.6476 128.927 24.7162 128.516 24.6955H122.551C122.089 24.6588 121.624 24.7182 121.185 24.8698C120.746 25.0214 120.344 25.262 120.002 25.5765C119.661 25.891 119.388 26.2727 119.201 26.6976C119.014 27.1226 118.917 27.5816 118.915 28.0459V31.2855H166.629Z" fill="#D8D8D8"/>
<g opacity="0.3" filter="url(#filter0_f_110_10)">
<ellipse cx="106.5" cy="14.5" rx="106.5" ry="14.5" transform="matrix(1 0 0 -1 17 529)" fill="#CBCBCB"/>
</g>
<path d="M82.5445 222.601C83.0778 215.886 90.2779 190.14 98.0114 175.473C98.0114 175.473 114.882 177.604 125.746 177.64C137.082 177.676 154.691 175.473 154.691 175.473C159.734 186.891 165.479 211.837 167.152 217.219C168.162 220.386 168.284 223.768 167.507 226.999C166.729 230.231 165.08 233.187 162.74 235.547C156.994 242.068 142.182 249.535 138.764 249.535C124.057 247.434 109.643 243.643 95.8053 238.238C87.9991 234.965 82.0354 229.341 82.5445 222.601Z" fill="#013EA5"/>
<path d="M216.437 82.7679C216.537 80.5833 215.952 78.4221 214.764 76.586C212.935 74.4654 211.565 71.9891 210.74 69.3131C210.105 66.8291 209.091 64.4577 207.734 62.2826C206.764 60.9493 205.31 59.8584 205.31 58.8402C205.31 57.822 207.249 55.8583 210.013 56.4159C211.196 56.7847 212.284 57.4106 213.198 58.2488C214.111 59.087 214.829 60.1168 215.298 61.2645C215.562 60.5652 215.718 59.8293 215.758 59.0826L216.364 44.2218C216.374 43.8365 216.46 43.457 216.618 43.1057C216.776 42.7543 217.004 42.4383 217.286 42.1761C217.569 41.914 217.901 41.7111 218.263 41.5795C218.625 41.4478 219.01 41.3901 219.395 41.4096C220.007 41.4357 220.597 41.6533 221.079 42.0316C221.562 42.4099 221.914 42.93 222.086 43.5187V42.8399C222.179 42.1175 222.542 41.4571 223.102 40.9913C223.662 40.5255 224.378 40.2887 225.105 40.3286C225.832 40.3685 226.517 40.6821 227.023 41.2064C227.529 41.7306 227.818 42.4268 227.831 43.1551V45.2157C228.074 44.5804 228.537 44.0535 229.136 43.731C229.735 43.4086 230.429 43.312 231.093 43.4589C231.757 43.6058 232.347 43.9864 232.754 44.5314C233.16 45.0764 233.358 45.7495 233.31 46.4279V47.7369C233.571 47.2784 233.96 46.9058 234.429 46.6647C234.898 46.4236 235.428 46.3244 235.953 46.3793C236.671 46.4706 237.326 46.8379 237.778 47.4035C238.231 47.9691 238.446 48.6886 238.377 49.4097L237.189 61.9433C236.411 69.0095 234.949 75.9837 232.825 82.7679C232.8 83.9006 232.537 85.0154 232.055 86.0407C231.573 87.0659 230.881 87.979 230.025 88.721C229.169 89.4631 228.167 90.0177 227.083 90.3494C226 90.681 224.859 90.7824 223.734 90.6468C222.716 90.6808 221.703 90.4954 220.763 90.1033C219.823 89.7112 218.978 89.1215 218.286 88.3742C217.594 87.6269 217.07 86.7395 216.751 85.7722C216.432 84.8049 216.325 83.7803 216.437 82.7679Z" fill="#FBBEAA"/>
<path d="M134.739 478.411C134.739 476.077 135.666 473.839 137.317 472.188C138.967 470.538 141.205 469.611 143.539 469.611C145.873 469.611 148.112 470.538 149.762 472.188C151.412 473.839 152.34 476.077 152.34 478.411V497.539H134.739V478.411Z" fill="#FBBEAA"/>
<path d="M151.71 481.975C153.867 481.975 154.255 482.92 154.886 484.157C155.908 487.452 157.656 490.475 160.001 493.005C163.502 495.987 167.258 498.656 171.225 500.981V511.115H132.049C132.049 511.115 132.316 503.115 132.509 497.466C132.703 491.818 133.261 484.933 133.213 484.205C133.164 483.478 133.212 481.975 134.546 481.975H151.71Z" fill="#302D3B"/>
<path d="M136.921 498.023C136.916 499.267 137.281 500.485 137.969 501.521C138.657 502.557 139.637 503.366 140.786 503.844C141.934 504.322 143.198 504.448 144.419 504.207C145.639 503.965 146.76 503.367 147.639 502.487C148.519 501.608 149.117 500.487 149.359 499.267C149.6 498.046 149.474 496.782 148.996 495.634C148.518 494.485 147.709 493.505 146.673 492.817C145.637 492.129 144.419 491.764 143.175 491.769C141.519 491.775 139.931 492.436 138.76 493.608C137.588 494.779 136.927 496.366 136.921 498.023Z" fill="#0447BA"/>
<path d="M143.176 494.339L141.745 496.448L139.297 497.151L140.848 499.163L140.776 501.708L143.176 500.836L145.576 501.708L145.479 499.163L147.055 497.151L144.606 496.448L143.176 494.339Z" fill="white"/>
<path d="M170.958 500.812C170.958 500.812 176.51 503.745 178.595 505.176C179.56 505.829 180.344 506.717 180.874 507.756C181.404 508.794 181.662 509.95 181.625 511.115H166.4C166.4 511.115 166.716 503.672 170.958 500.812Z" fill="white"/>
<path d="M132.049 511.115V515.309C132.049 516.012 132.679 516.4 133.746 516.4H179.953C180.995 516.4 181.625 516.012 181.625 515.309V511.115H132.049Z" fill="white"/>
<path d="M166.4 497.975C166.535 497.769 166.744 497.623 166.984 497.569C167.224 497.515 167.475 497.556 167.685 497.684C167.79 497.748 167.88 497.833 167.952 497.933C168.023 498.033 168.074 498.146 168.101 498.265C168.128 498.385 168.131 498.509 168.11 498.63C168.088 498.751 168.043 498.866 167.976 498.969L166.352 501.587C166.274 501.723 166.16 501.835 166.024 501.912C165.887 501.989 165.733 502.027 165.576 502.024C165.397 502.021 165.221 501.971 165.067 501.878C164.962 501.814 164.872 501.729 164.8 501.63C164.729 501.53 164.678 501.417 164.651 501.297C164.624 501.177 164.621 501.053 164.643 500.933C164.664 500.812 164.709 500.696 164.776 500.593L166.4 497.975Z" fill="white"/>
<path d="M163.54 495.963C163.619 495.87 163.716 495.795 163.825 495.74C163.934 495.685 164.053 495.652 164.174 495.643C164.296 495.634 164.418 495.649 164.534 495.687C164.65 495.726 164.757 495.786 164.849 495.866C164.941 495.945 165.017 496.042 165.072 496.151C165.127 496.26 165.16 496.379 165.169 496.5C165.178 496.622 165.163 496.744 165.124 496.86C165.086 496.975 165.026 497.083 164.946 497.175L163.055 499.405C162.968 499.507 162.86 499.59 162.739 499.649C162.618 499.707 162.486 499.74 162.352 499.745C162.176 499.741 162.005 499.689 161.858 499.594C161.71 499.499 161.592 499.364 161.516 499.206C161.441 499.047 161.411 498.871 161.43 498.696C161.449 498.522 161.517 498.356 161.625 498.217L163.54 495.963Z" fill="white"/>
<path d="M160.849 493.709C161.042 493.584 161.274 493.534 161.501 493.568C161.727 493.602 161.934 493.717 162.083 493.892C162.231 494.067 162.311 494.29 162.307 494.519C162.303 494.749 162.216 494.969 162.061 495.139L159.904 497.006C159.735 497.149 159.519 497.226 159.298 497.224C159.164 497.229 159.031 497.203 158.91 497.148C158.788 497.093 158.68 497.011 158.595 496.909C158.505 496.825 158.434 496.723 158.385 496.611C158.336 496.498 158.311 496.377 158.311 496.254C158.311 496.131 158.336 496.01 158.385 495.897C158.434 495.785 158.505 495.683 158.595 495.6L160.849 493.709Z" fill="white"/>
<path d="M156.121 492.593L158.546 491.09C158.758 490.964 159.012 490.927 159.252 490.986C159.492 491.045 159.7 491.195 159.83 491.405C159.896 491.51 159.94 491.626 159.96 491.748C159.979 491.87 159.974 491.995 159.945 492.114C159.915 492.234 159.862 492.347 159.789 492.446C159.715 492.545 159.622 492.628 159.515 492.69L157.091 494.193C156.947 494.289 156.779 494.339 156.606 494.339C156.448 494.335 156.294 494.291 156.158 494.21C156.022 494.129 155.909 494.015 155.83 493.878C155.702 493.668 155.661 493.417 155.715 493.177C155.77 492.937 155.915 492.727 156.121 492.593Z" fill="white"/>
<path d="M154.085 489.466L156.8 488.327C157.032 488.23 157.292 488.23 157.524 488.325C157.756 488.421 157.94 488.605 158.036 488.836C158.084 488.949 158.108 489.07 158.108 489.192C158.108 489.315 158.084 489.436 158.036 489.549C157.989 489.662 157.919 489.764 157.832 489.85C157.745 489.935 157.641 490.003 157.527 490.048L154.812 491.188H154.449C154.239 491.176 154.04 491.096 153.881 490.959C153.723 490.822 153.614 490.637 153.573 490.431C153.531 490.226 153.559 490.013 153.651 489.825C153.744 489.637 153.897 489.485 154.085 489.394V489.466Z" fill="white"/>
<path d="M152.388 485.975L155.394 485.223C155.632 485.165 155.883 485.204 156.092 485.332C156.302 485.459 156.452 485.664 156.509 485.902C156.567 486.14 156.528 486.391 156.401 486.6C156.274 486.809 156.069 486.959 155.831 487.017L152.849 487.793H152.631C152.422 487.791 152.219 487.721 152.053 487.594C151.887 487.468 151.767 487.291 151.709 487.09C151.657 486.852 151.699 486.604 151.825 486.396C151.952 486.189 152.153 486.038 152.388 485.975Z" fill="white"/>
<path d="M121.866 356.082C122.133 344.348 130.036 338.676 141.745 338.967C153.454 339.257 161.891 345.391 161.624 357.1L152.339 479.357H134.739L121.866 356.082Z" fill="#FBBEAA"/>
<path d="M120.34 356.009C120.405 353.223 121.019 350.478 122.145 347.929C123.271 345.38 124.888 343.078 126.904 341.155C128.92 339.231 131.295 337.723 133.894 336.718C136.493 335.712 139.264 335.228 142.049 335.293C144.835 335.359 147.581 335.972 150.129 337.098C152.678 338.224 154.98 339.842 156.903 341.858C158.827 343.874 160.335 346.249 161.34 348.847C162.346 351.446 162.83 354.217 162.765 357.003L165.678 483.465H117.75L120.34 356.009Z" fill="#013EA5"/>
<path d="M60.5562 478.411C60.5562 476.077 61.4833 473.839 63.1337 472.188C64.784 470.538 67.0224 469.611 69.3563 469.611C71.6903 469.611 73.9286 470.538 75.579 472.188C77.2293 473.839 78.1565 476.077 78.1565 478.411V497.539H60.5562V478.411Z" fill="#FBBEAA"/>
<path d="M77.5019 481.975C79.6838 481.975 80.0717 482.92 80.6778 484.157C81.7117 487.452 83.4675 490.475 85.8172 493.005C89.3136 495.993 93.0701 498.662 97.0417 500.981V511.115H57.8652C57.8652 511.115 58.1319 503.115 58.3259 497.466C58.5198 491.818 59.0532 484.933 59.0289 484.205C59.0047 483.478 59.0289 481.975 60.338 481.975H77.5019Z" fill="#302D3B"/>
<path d="M62.7142 498.023C62.7094 499.266 63.0735 500.482 63.7605 501.518C64.4476 502.554 65.4265 503.363 66.5734 503.842C67.7203 504.32 68.9835 504.448 70.2031 504.209C71.4227 503.969 72.5437 503.373 73.4243 502.496C74.3048 501.619 74.9052 500.5 75.1495 499.281C75.3937 498.063 75.2708 496.799 74.7963 495.65C74.3218 494.502 73.517 493.52 72.4839 492.829C71.4509 492.137 70.236 491.769 68.9931 491.769C67.332 491.769 65.7386 492.427 64.5618 493.599C63.385 494.771 62.7206 496.362 62.7142 498.023Z" fill="#0447BA"/>
<path d="M68.9687 494.339L67.5384 496.448L65.0898 497.151L66.6657 499.163L66.5929 501.708L68.9687 500.836L71.3688 501.708L71.296 499.163L72.8718 497.151L70.399 496.448L68.9687 494.339Z" fill="white"/>
<path d="M96.7505 500.812C96.7505 500.812 102.326 503.745 104.387 505.176C105.357 505.825 106.145 506.711 106.675 507.751C107.206 508.79 107.461 509.949 107.417 511.115H92.1201C92.1201 511.115 92.5323 503.672 96.7505 500.812Z" fill="white"/>
<path d="M57.8652 511.115V515.309C57.8652 516.012 58.4713 516.4 59.538 516.4H105.793C106.86 516.4 107.466 516.012 107.466 515.309V511.115H57.8652Z" fill="white"/>
<path d="M92.2172 497.975C92.349 497.766 92.5585 497.618 92.7994 497.564C93.0404 497.509 93.2931 497.552 93.5021 497.684C93.711 497.816 93.8591 498.025 93.9137 498.266C93.9682 498.507 93.9248 498.76 93.793 498.969L92.1688 501.587C92.0847 501.723 91.9667 501.835 91.8265 501.911C91.6862 501.988 91.5285 502.027 91.3687 502.024C91.1963 502.024 91.0276 501.974 90.8839 501.878C90.7794 501.814 90.6887 501.729 90.6173 501.63C90.5459 501.53 90.4952 501.417 90.4681 501.297C90.441 501.177 90.438 501.053 90.4595 500.933C90.4809 500.812 90.5263 500.696 90.5929 500.593L92.2172 497.975Z" fill="white"/>
<path d="M89.3321 495.963C89.4919 495.777 89.7178 495.66 89.9621 495.637C90.2064 495.615 90.4499 495.688 90.6412 495.842C90.8289 496.006 90.9462 496.236 90.9688 496.484C90.9914 496.732 90.9175 496.98 90.7624 497.175L88.8472 499.405C88.7632 499.511 88.6563 499.597 88.5345 499.655C88.4128 499.714 88.2793 499.745 88.1442 499.745C87.9665 499.747 87.792 499.697 87.6419 499.602C87.4918 499.507 87.3724 499.37 87.298 499.209C87.2237 499.047 87.1977 498.868 87.2231 498.692C87.2485 498.516 87.3242 498.351 87.4411 498.217L89.3321 495.963Z" fill="white"/>
<path d="M86.6658 493.709C86.8587 493.584 87.0902 493.534 87.3171 493.568C87.5441 493.602 87.751 493.717 87.8994 493.892C88.0477 494.067 88.1273 494.29 88.1234 494.519C88.1195 494.749 88.0322 494.969 87.878 495.139L85.6961 497.006C85.527 497.149 85.3118 497.226 85.0901 497.224C84.9568 497.227 84.8246 497.2 84.703 497.146C84.5814 497.091 84.4734 497.01 84.387 496.909C84.3005 496.823 84.2319 496.721 84.185 496.609C84.1381 496.496 84.114 496.376 84.114 496.254C84.114 496.132 84.1381 496.012 84.185 495.899C84.2319 495.787 84.3005 495.685 84.387 495.6L86.6658 493.709Z" fill="white"/>
<path d="M81.9384 492.593L84.3627 491.09C84.5718 491.002 84.8057 490.992 85.0217 491.062C85.2376 491.132 85.4212 491.277 85.5389 491.471C85.6565 491.665 85.7004 491.895 85.6625 492.119C85.6246 492.343 85.5074 492.546 85.3324 492.69L82.9081 494.193C82.7644 494.289 82.5957 494.339 82.4233 494.339C82.2617 494.337 82.1033 494.293 81.9632 494.213C81.8232 494.132 81.7061 494.017 81.6233 493.878C81.4973 493.665 81.4598 493.412 81.5187 493.171C81.5776 492.931 81.7283 492.724 81.9384 492.593Z" fill="white"/>
<path d="M216.147 84.3926L206.45 145.266C204.85 152.903 207.322 159.812 216.147 161.024C217.776 161.236 219.431 161.115 221.011 160.668C222.592 160.221 224.065 159.458 225.342 158.424C226.618 157.39 227.671 156.107 228.437 154.654C229.202 153.201 229.665 151.607 229.795 149.969L232.753 84.5138C233.529 78.3319 230.838 74.2106 226.135 73.7015C220.365 73.0712 217.31 76.4895 216.147 84.3926Z" fill="#FBBEAA"/>
<path d="M79.9027 489.466L82.6179 488.327C82.7308 488.28 82.852 488.255 82.9744 488.255C83.0968 488.255 83.2179 488.28 83.3308 488.327C83.4436 488.374 83.5459 488.444 83.6316 488.531C83.7174 488.619 83.7848 488.722 83.8301 488.836C83.9206 489.062 83.9207 489.313 83.8304 489.539C83.7401 489.765 83.5664 489.947 83.3452 490.048L80.6058 491.188C80.494 491.213 80.3781 491.213 80.2664 491.188C80.0797 491.188 79.8972 491.132 79.7419 491.029C79.5866 490.925 79.4654 490.778 79.3936 490.606C79.32 490.387 79.3315 490.148 79.4258 489.937C79.5201 489.726 79.6904 489.558 79.9027 489.466Z" fill="white"/>
<path d="M78.2043 485.975L81.1862 485.224C81.4272 485.165 81.6818 485.203 81.8949 485.33C82.1081 485.457 82.2628 485.662 82.3257 485.902C82.3546 486.02 82.3599 486.142 82.3414 486.262C82.3229 486.382 82.2809 486.497 82.2179 486.601C82.1548 486.704 82.0719 486.795 81.9739 486.866C81.8759 486.938 81.7647 486.989 81.6468 487.017L78.665 487.793H78.4226C78.2041 487.777 77.9983 487.684 77.8402 487.533C77.6822 487.381 77.5816 487.179 77.5559 486.962C77.5301 486.744 77.5807 486.524 77.699 486.34C77.8173 486.156 77.9959 486.018 78.2043 485.951V485.975Z" fill="white"/>
<path d="M70.181 355.718C71.3718 350.215 74.6992 345.41 79.4317 342.36C84.1641 339.309 89.9142 338.263 95.4178 339.451C106.885 341.875 113.067 353.173 110.594 364.639L78.1569 481.369H60.3384L70.181 355.718Z" fill="#FBBEAA"/>
<path d="M70.1809 353.415C71.4966 348.044 74.8552 343.398 79.5427 340.465C84.2302 337.532 89.8768 336.543 95.2822 337.708C100.688 338.873 105.425 342.1 108.488 346.704C111.551 351.308 112.698 356.924 111.685 362.36L100.286 482.331C100.286 482.331 69.4003 484.174 51 482.331L70.1809 353.415Z" fill="#013EA5"/>
<path d="M224.026 138.527L154.4 85.6288C146.279 80.4408 140.752 83.2045 136.437 88.7561C134.466 91.4432 133.552 94.7611 133.87 98.0782C134.187 101.395 135.713 104.48 138.158 106.744L207.614 157.921C210.061 159.988 213.212 161.031 216.41 160.832C219.607 160.634 222.605 159.209 224.777 156.854L225.093 156.515C226.246 155.285 227.136 153.832 227.71 152.247C228.283 150.661 228.527 148.975 228.427 147.291C228.328 145.608 227.886 143.963 227.129 142.456C226.372 140.949 225.316 139.612 224.026 138.527Z" fill="#FBBEAA"/>
<path d="M138.158 106.72C137.515 106.167 136.93 105.55 136.412 104.878C135.954 103.152 135.896 101.345 136.24 99.5938C136.584 97.8422 137.323 96.1921 138.4 94.7685C142.061 89.1199 149.746 84.6835 153.164 85.532L156.558 87.2532L194.983 116.345C191.582 124.337 186.988 131.767 181.359 138.381L138.158 106.72Z" fill="#F18380"/>
<path d="M148.654 81.8468L208.907 122.484C208.653 124.562 213.536 81.8468 213.536 81.8468L235.837 83.9284C235.837 83.9284 234.535 127.418 231.253 150.386C229.95 159.501 222.363 162.957 213.367 160.995C208.926 160.026 204.744 158.203 201.023 155.591C185.034 144.368 140.176 112.757 136.509 108.781C130.181 101.92 130.181 96.7804 133.818 91.1318C137.454 85.4832 145.236 80.9983 148.654 81.8468Z" fill="#013EA5"/>
<path d="M120.339 356.009L107.902 225.801C107.902 211.425 122.715 195.764 144.558 199.134C164.291 202.213 170.303 222.043 168.679 240.832C167.055 259.62 162.667 356.93 162.667 356.93C162.602 359.716 161.988 362.462 160.862 365.01C159.736 367.559 158.118 369.861 156.103 371.784C154.087 373.708 151.712 375.216 149.113 376.221C146.514 377.227 143.743 377.711 140.957 377.646C138.172 377.581 135.426 376.967 132.878 375.841C130.329 374.715 128.027 373.097 126.104 371.081C124.18 369.066 122.672 366.691 121.666 364.092C120.661 361.493 120.177 358.722 120.242 355.936L120.339 356.009Z" fill="#013EA5"/>
<path d="M70.1811 353.415L82.545 223.231C85.1632 209.098 102.739 196.564 123.564 203.982C142.352 210.698 144.534 231.304 139.394 249.462C134.255 267.62 111.685 362.361 111.685 362.361C110.369 367.731 107.011 372.377 102.323 375.31C97.6356 378.243 91.9889 379.233 86.5836 378.068C81.1782 376.903 76.4403 373.675 73.3773 369.071C70.3143 364.468 69.1676 358.851 70.1811 353.415Z" fill="#013EA5"/>
<path d="M139.394 249.462C134.279 267.62 111.685 362.361 111.685 362.361" stroke="#E9E9E9" stroke-width="0.75" stroke-miterlimit="10"/>
<path d="M135.757 79.786C135.757 79.786 146.473 81.6527 148.558 82.2103C149.788 82.499 150.925 83.0953 151.862 83.9433C152.799 84.7913 153.506 85.8633 153.915 87.0588C155.249 90.2346 162.109 111.035 162.74 113.29C163.166 115.773 162.766 118.328 161.6 120.562C160.606 123.278 155.467 135.642 155.467 135.642L154.691 175.472L125.747 180.063L98.0114 175.472C98.0114 175.472 88.3142 101.386 87.8294 96.8045C87.3445 92.2226 89.6233 83.374 95.1022 82.2588C100.581 81.1436 115.612 79.8345 115.612 79.8345L135.757 79.786Z" fill="#FBBEAA"/>
<path d="M156.05 159.457V173.46C137.092 175.206 106.885 173.97 95.539 173.46C95.0056 169.46 94.448 162.672 93.8662 158.163C109.309 158.551 134.814 159.99 156.05 159.457Z" fill="white"/>
<path d="M56.0712 171.909L87.1263 90.1862C91.2718 81.4588 97.4053 80.877 104.096 83.3013C107.191 84.5358 109.723 86.8671 111.207 89.8499C112.692 92.8327 113.026 96.2579 112.145 99.4713L80.1686 179.739C79.1994 182.793 77.0847 185.353 74.2685 186.88C71.4524 188.408 68.1538 188.786 65.0653 187.933L64.6047 187.812C62.9756 187.368 61.454 186.596 60.1329 185.544C58.8117 184.492 57.7185 183.183 56.9201 181.695C56.1216 180.207 55.6346 178.571 55.4887 176.889C55.3427 175.207 55.5409 173.512 56.0712 171.909Z" fill="#FBBEAA"/>
<path d="M68.9438 138.017L87.126 90.1861C87.6136 89.1372 88.1894 88.1316 88.8472 87.18C91.0744 85.7856 93.6241 84.9904 96.249 84.8715C98.874 84.7525 101.485 85.3139 103.829 86.5012C106.551 87.8258 108.739 90.0403 110.031 92.7781C111.323 95.5159 111.641 98.6128 110.932 101.556C110.932 101.847 110.763 102.405 110.617 103.156L91.8533 150.308C83.6573 147.353 75.9388 143.212 68.9438 138.017Z" fill="#F18380"/>
<path d="M89.5552 84.6843C84.2633 91.4883 53.646 174.646 53.646 174.646C81.9953 165.574 82.5 173.5 94.7537 143.651C94.7537 143.651 112.533 101.92 113.212 98.1866C113.92 95.2434 113.603 92.1466 112.311 89.4088C111.019 86.671 108.831 84.4564 106.109 83.1318C98.5209 79.253 94.847 77.8803 89.5552 84.6843Z" fill="#0045BA"/>
<path d="M140.996 79.7705C146.599 80.836 149.132 80.9633 150.554 81.9015C152.805 83.4118 164.398 103.876 164.398 113.111C164.398 121.28 162.42 186.631 160.772 187.696C159.124 188.762 129.622 190.144 129.622 190.144V97.604C132.617 88.3363 138.872 85.7659 140.996 79.7705Z" fill="#0045BA"/>
<path d="M150.554 81.9015C149.132 80.9633 143.541 80.08 137.938 79.0145C135.815 85.0099 132.617 88.3363 129.622 97.604V113.111H164.398C164.398 103.876 152.805 83.4118 150.554 81.9015Z" fill="#9A99A1"/>
<path d="M129.244 76.7466C122.289 76.7466 116.015 73.7226 113.747 72.2107V79.0145C113.999 79.3925 115.939 80.6021 121.684 82.4164C127.43 84.2308 135.67 83.5504 139.072 82.4164V75.6126C139.072 75.9906 137.938 76.7466 129.244 76.7466Z" fill="#034CC9"/>
<path d="M164.387 114.546H129.622V106.986L163.398 107.316C164.057 109.915 164.471 111.771 164.387 114.546Z" fill="#D3D4D2"/>
<path d="M85.1021 183.447C85.1021 175.879 86 155 95.5 136C96.6612 133 109.255 98.7417 96.5073 84.3585C92.271 79.5788 88.5471 86.495 89.6641 84.7136C90.781 82.9323 92.019 81.1839 93.8431 80.3454C97.0973 78.7665 104.328 79.0312 110.845 79.0312C118.666 88.6204 126.767 90.7551 129.622 97.6198V190.11C129.622 190.11 85.1021 191.015 85.1021 183.447Z" fill="#034CC9"/>
<path d="M85.1021 183.447C85.1021 175.879 86 155 95.5 136C96.6612 133 109.255 98.7417 96.5073 84.3585C92.271 79.5788 88.5471 86.495 89.6641 84.7136C90.781 82.9323 92.019 81.1839 93.8431 80.3454C97.0973 78.7665 104.328 79.0312 110.845 79.0312C118.666 88.6204 126.767 90.7551 129.622 97.6198V190.11C129.622 190.11 85.1021 191.015 85.1021 183.447Z" fill="#034CC9"/>
<path d="M89.5548 84.6844C88.4378 86.4658 92.2706 79.5787 96.5069 84.3584C101.862 90.4004 102.718 101.519 101.475 112.278H129.622L129.622 83.5504C122.062 82.7944 118.282 81.6605 113.746 79.0145C107.229 79.0145 96.9668 78.5696 93.7126 80.1485C91.8885 80.987 90.6717 82.9031 89.5548 84.6844Z" fill="#A2A0AB"/>
<path d="M129.622 190.144C131.554 189.496 133.244 188.247 134.462 186.569C135.68 184.891 136.366 182.865 136.426 180.768V77.1246H129.622V190.144Z" fill="#034CC9"/>
<path d="M101.889 107H129.6V115H101.18C101.546 111.4 101.889 109.8 101.889 107Z" fill="#CFD1CE"/>
<g style="mix-blend-mode:multiply" opacity="0.4">
<path d="M128.866 83.3955L129.622 83.5504V190.144H128.866V83.3955Z" fill="#013FA9"/>
</g>
<path d="M129.367 166.317L71.5706 187.77C64.4034 190.828 57.1342 189.758 54.2404 181.418C53.7123 179.864 53.5054 178.219 53.6322 176.582C53.7591 174.945 54.217 173.351 54.9784 171.897C55.7398 170.443 56.7887 169.158 58.0614 168.121C59.3341 167.084 60.8043 166.317 62.3825 165.865L125.929 150.195C131.83 148.215 136.398 150.071 137.868 154.509C139.597 159.978 136.871 163.545 129.367 166.317Z" fill="#FBBEAA"/>
<g filter="url(#filter1_d_110_10)">
<rect x="108.926" y="122.357" width="40.9288" height="58.3236" rx="1" transform="rotate(-6.55484 108.926 122.357)" fill="#EFEFEF"/>
</g>
<path d="M128.143 148.497C130.99 147.294 133.563 145.512 135.701 143.263C137.024 141.874 138.525 140.669 140.163 139.679C141.123 139.079 141.952 138.286 142.598 137.352C143.45 135.902 144.156 134.371 144.704 132.783C144.907 131.415 145.372 130.096 146.074 128.902C146.741 128.29 149.096 128.617 150.318 130.993C150.739 132.051 150.93 133.19 150.878 134.334C150.826 135.478 150.531 136.601 150.015 137.627C149.406 138.857 148.93 140.148 148.593 141.477L148.815 141.61C150.678 140.621 152.668 139.904 154.726 139.48C155.472 139.313 156.25 139.404 156.933 139.736C157.616 140.069 158.165 140.625 158.492 141.314C158.819 142.004 158.904 142.787 158.734 143.537C158.565 144.287 158.149 144.961 157.556 145.45C160.767 145.819 160.402 150.771 157.646 151.426C158.236 151.673 158.734 152.099 159.073 152.644C159.412 153.189 159.575 153.827 159.54 154.473C159.506 155.119 159.275 155.741 158.879 156.255C158.484 156.768 157.942 157.15 157.328 157.346C159.286 159.151 157.855 162.126 154.3 162.139C151.411 162.433 143.686 163.642 140.999 164.221C138.311 164.799 132.909 163.52 131.174 164.057C128.59 165.003 125.59 165.019 123.302 158.222C121.013 151.425 125.485 149.375 128.143 148.497Z" fill="#FBBEAA"/>
<path d="M132.5 167L81.5004 186.506C81.5004 186.506 63.678 193.274 57.0008 187.5C55.7661 186.418 55.0619 184.917 54.3874 183C53.7177 181.096 53.6744 179.532 53.6063 177.892C53.5382 176.252 53.8039 174.615 54.3874 173.08C54.9709 171.546 54.3038 172.5 57.0008 168.5C59.6979 164.5 125 148 125 148L132.5 167Z" fill="#0045BA"/>
<path d="M216.922 63.3739C216.001 63.3739 215.928 62.7921 215.516 61.7254C217.577 61.7254 223.565 62.1133 226.183 67.1558C223.54 63.5193 218.474 63.3739 216.922 63.3739ZM221.625 44.1978C221.625 44.1978 221.48 45.0463 221.334 46.2827C221.334 46.913 221.189 47.6645 221.14 48.4403C221.092 49.2161 221.019 50.0646 220.946 50.8646C220.946 52.5616 220.825 54.2343 220.825 55.495C220.825 56.7556 220.825 57.6041 220.825 57.6041C220.825 57.6444 220.833 57.6844 220.849 57.7213C220.866 57.7583 220.889 57.7915 220.919 57.8189C220.949 57.8462 220.984 57.8672 221.022 57.8803C221.06 57.8934 221.1 57.8983 221.14 57.895C221.209 57.8916 221.274 57.8661 221.326 57.8223C221.379 57.7786 221.416 57.7191 221.431 57.6526C221.431 57.6526 221.577 56.8041 221.698 55.5434C221.819 54.2828 222.013 52.6101 222.086 50.9373C222.086 50.0888 222.086 49.2403 222.086 48.513C222.086 47.7857 222.086 46.9858 222.086 46.3554C222.086 45.0706 222.086 44.2463 222.086 44.2463C222.086 44.2059 222.078 44.166 222.062 44.1291C222.046 44.0921 222.022 44.0588 221.992 44.0315C221.963 44.0041 221.928 43.9833 221.89 43.9702C221.851 43.957 221.811 43.952 221.771 43.9554C221.724 43.9821 221.686 44.0212 221.66 44.0683C221.635 44.1153 221.623 44.1685 221.625 44.2221V44.1978ZM227.25 45.8948C227.25 45.8948 227.104 46.6221 226.934 47.6888C226.934 48.2464 226.765 48.8766 226.692 49.5554C226.619 50.2342 226.547 50.9615 226.474 51.6888C226.474 53.1434 226.304 54.598 226.28 55.6889C226.256 56.7798 226.28 57.5314 226.28 57.5314C226.283 57.5696 226.294 57.6069 226.311 57.641C226.329 57.6751 226.353 57.7055 226.382 57.7303C226.411 57.7551 226.445 57.7739 226.482 57.7855C226.518 57.7971 226.557 57.8014 226.595 57.7981C226.66 57.7935 226.722 57.7671 226.77 57.7231C226.819 57.6791 226.851 57.6201 226.862 57.5556C226.862 57.5556 227.007 56.8283 227.177 55.7616C227.347 54.6949 227.492 53.2161 227.613 51.7858C227.613 51.0585 227.613 50.3312 227.759 49.6524C227.904 48.9736 227.759 48.3191 227.759 47.7615C227.759 46.6706 227.759 45.9433 227.759 45.9433C227.759 45.903 227.751 45.8631 227.735 45.8261C227.718 45.7891 227.695 45.7559 227.665 45.7285C227.635 45.7012 227.601 45.6803 227.562 45.6672C227.524 45.6541 227.484 45.649 227.444 45.6524C227.39 45.6746 227.343 45.7113 227.309 45.7583C227.275 45.8054 227.254 45.861 227.25 45.919V45.8948ZM232.68 48.1979C232.68 48.1979 232.535 48.8039 232.341 49.7252C232.341 50.1615 232.147 50.6949 232.074 51.2767C232.001 51.8586 231.904 52.4646 231.807 53.0707C231.638 54.3071 231.565 55.495 231.516 56.4647C231.468 57.4344 231.516 58.0162 231.516 58.0162C231.516 58.0566 231.524 58.0965 231.541 58.1334C231.557 58.1704 231.58 58.2037 231.61 58.231C231.64 58.2584 231.675 58.2792 231.713 58.2924C231.751 58.3055 231.791 58.3105 231.831 58.3071C231.893 58.3039 231.953 58.281 232.001 58.2417C232.049 58.2025 232.083 58.149 232.098 58.089C232.098 58.089 232.268 57.4829 232.438 56.5859C232.607 55.6889 232.85 54.4283 232.995 53.2161C232.995 52.5858 233.116 51.9798 233.165 51.3979C233.213 50.8161 233.165 50.2828 233.165 49.8222C233.165 48.9009 233.165 48.2706 233.165 48.2706C233.165 48.2302 233.157 48.1904 233.141 48.1534C233.125 48.1164 233.101 48.0832 233.071 48.0558C233.042 48.0284 233.007 48.0076 232.968 47.9945C232.93 47.9814 232.89 47.9763 232.85 47.9797C232.805 48.0046 232.766 48.0394 232.737 48.0814C232.708 48.1234 232.688 48.1715 232.68 48.2221V48.1979Z" fill="#F18380"/>
<path d="M57.8037 436.594L60.0717 421.853H106.187L104.675 436.972L57.8037 436.594Z" fill="#CFD1CE"/>
<path d="M118.66 436.594L119.038 421.853H164.397L164.775 436.972L118.66 436.594Z" fill="#CFD1CE"/>
<path d="M87.0399 157.944L97.5 155.5L104 178L94 182L87.0399 157.944Z" fill="#CFD1CE"/>
<path d="M209.378 117.57L210.512 108.498L234.704 110.388L234.326 119.46L209.378 117.57Z" fill="#CFD1CE"/>
<defs>
<filter id="filter0_f_110_10" x="0" y="483" width="247" height="63" filterUnits="userSpaceOnUse" color-interpolation-filters="sRGB">
<feFlood flood-opacity="0" result="BackgroundImageFix"/>
<feBlend mode="normal" in="SourceGraphic" in2="BackgroundImageFix" result="shape"/>
<feGaussianBlur stdDeviation="8.5" result="effect1_foregroundBlur_110_10"/>
</filter>
<filter id="filter1_d_110_10" x="109.034" y="117.793" width="49.1042" height="62.3995" filterUnits="userSpaceOnUse" color-interpolation-filters="sRGB">
<feFlood flood-opacity="0" result="BackgroundImageFix"/>
<feColorMatrix in="SourceAlpha" type="matrix" values="0 0 0 0 0 0 0 0 0 0 0 0 0 0 0 0 0 0 127 0" result="hardAlpha"/>
<feOffset dx="2"/>
<feComposite in2="hardAlpha" operator="out"/>
<feColorMatrix type="matrix" values="0 0 0 0 0.603922 0 0 0 0 0.6 0 0 0 0 0.631373 0 0 0 1 0"/>
<feBlend mode="normal" in2="BackgroundImageFix" result="effect1_dropShadow_110_10"/>
<feBlend mode="normal" in="SourceGraphic" in2="effect1_dropShadow_110_10" result="shape"/>
</filter>
</defs>
</svg>
