<svg width="221" height="503" viewBox="0 0 221 503" fill="none" xmlns="http://www.w3.org/2000/svg">
<path d="M113.187 425.909C113.187 425.909 112.063 473.354 111.782 480.451C111.501 487.548 106.982 489.48 99.7004 490.108C92.4189 490.736 89.3518 484.989 88.3216 480.428C87.2914 475.867 81.0635 429.353 81.0635 429.353L113.187 425.909Z" fill="#FBBEAA"/>
<path d="M66.1494 427.056C66.1494 427.056 59.9576 474.636 58.9334 481.719C57.9091 488.802 53.2304 490.308 45.9445 490.143C38.6586 489.979 36.261 483.884 35.7256 479.201C35.1902 474.519 34.0264 427.056 34.0264 427.056H66.1494Z" fill="#FBBEAA"/>
<path d="M47.1667 466.09C49.8111 465.903 52.4332 466.681 54.5349 468.278C56.6367 469.875 58.0718 472.178 58.5679 474.751L70.7385 487.074V494.744H31.7319C31.7319 494.744 33.6904 480.924 34.25 477.814C34.8096 474.705 36.6981 466.09 47.1667 466.09Z" fill="#FBBEAA"/>
<path d="M58.717 474.978C59.1673 474.366 59.8072 473.895 60.2575 474.178C60.7078 474.46 72.6766 483.878 73.2455 484.349C73.5957 484.675 73.8608 485.082 74.0177 485.533C74.1746 485.984 74.2186 486.467 74.146 486.938V497.039H30.5845C30.5845 497.039 32.2909 482.112 32.4094 481.288C32.5279 480.464 33.3574 479.381 33.8314 479.404C36.8213 480.314 39.9244 480.806 43.0509 480.864C47.2063 481.083 51.3514 480.274 55.1145 478.51C56.5098 477.546 57.7283 476.351 58.717 474.978Z" fill="#302D3B"/>
<path d="M66.9373 488.854C64.8746 487.296 57.458 481.397 54.6768 479.178L55.3257 478.848C55.4133 478.81 55.4922 478.753 55.5575 478.683C58.5241 481.043 65.5003 486.612 67.4935 488.122C69.1785 489.437 70.3326 491.334 70.7383 493.455L69.8344 493.597C69.452 491.716 68.4252 490.035 66.9373 488.854Z" fill="white"/>
<path d="M31.8727 486.713C34.9111 486.745 37.8514 487.801 40.2233 489.714C42.3672 491.627 43.8193 494.204 44.3517 497.039H43.085C42.567 494.582 41.2852 492.356 39.4258 490.683C37.2428 488.922 34.5288 487.963 31.7319 487.966L31.8727 486.713Z" fill="white"/>
<path d="M81.574 495.891H31.2213C30.8696 495.891 30.5845 496.21 30.5845 496.604V502.063C30.5845 502.456 30.8696 502.775 31.2213 502.775H81.574C81.9257 502.775 82.2108 502.456 82.2108 502.063V496.604C82.2108 496.21 81.9257 495.891 81.574 495.891Z" fill="white"/>
<path d="M73.2266 484.447C73.6486 484.276 75.7142 484.851 78.4017 487.382C79.5207 488.49 80.3262 489.853 80.742 491.342C81.1579 492.831 81.1704 494.397 80.7783 495.891H67.2964C68.0515 487.723 72.8046 484.617 73.2266 484.447Z" fill="white"/>
<path d="M67.4819 483.974C67.3449 484.174 67.2796 484.43 67.3001 484.687C67.3206 484.944 67.4254 485.181 67.5916 485.347C67.6731 485.427 67.7672 485.487 67.8683 485.524C67.9694 485.561 68.0757 485.574 68.1809 485.562C68.2862 485.55 68.3884 485.513 68.4817 485.453C68.5751 485.394 68.6577 485.313 68.7248 485.216L70.5526 482.579C70.6896 482.379 70.755 482.123 70.7344 481.865C70.7139 481.608 70.6092 481.371 70.443 481.206C70.3625 481.123 70.2687 481.06 70.1672 481.021C70.0658 480.983 69.9588 480.969 69.8528 480.982C69.7469 480.994 69.6441 481.032 69.5507 481.093C69.4574 481.154 69.3754 481.237 69.3097 481.337L67.4819 483.974Z" fill="white"/>
<path d="M65.1878 482.421C65.0506 482.67 64.9851 482.99 65.0057 483.311C65.0262 483.632 65.1312 483.927 65.2977 484.134C65.3784 484.237 65.4724 484.316 65.5741 484.364C65.6757 484.412 65.7829 484.429 65.8891 484.413C65.9953 484.398 66.0983 484.351 66.1918 484.275C66.2854 484.199 66.3675 484.095 66.4333 483.971L68.2649 480.681C68.3977 480.429 68.4604 480.11 68.4399 479.792C68.4195 479.473 68.3175 479.178 68.155 478.968C68.0743 478.864 67.9803 478.786 67.8787 478.738C67.777 478.69 67.6698 478.673 67.5636 478.688C67.4574 478.703 67.3545 478.75 67.2609 478.827C67.1674 478.903 67.0852 479.006 67.0194 479.131L65.1878 482.421Z" fill="white"/>
<path d="M61.8112 479.794C61.6305 479.94 61.5415 480.129 61.564 480.32C61.5864 480.51 61.7184 480.687 61.9309 480.811C62.1505 480.934 62.432 480.992 62.7142 480.974C62.9965 480.955 63.2568 480.862 63.4386 480.712L65.8317 478.728C65.9323 478.661 66.0123 478.581 66.0668 478.492C66.1214 478.404 66.1496 478.308 66.1496 478.212C66.1496 478.116 66.1214 478.02 66.0668 477.932C66.0123 477.843 65.9323 477.763 65.8317 477.696C65.6098 477.577 65.3298 477.521 65.0493 477.539C64.7688 477.557 64.5093 477.648 64.3241 477.794L61.8112 479.794Z" fill="white"/>
<path d="M59.4487 477.765C59.3817 477.888 59.3314 478.03 59.3006 478.182C59.2698 478.335 59.2592 478.495 59.2693 478.654C59.2795 478.813 59.3102 478.967 59.3597 479.108C59.4092 479.249 59.4765 479.374 59.5578 479.475C59.7108 479.702 59.9165 479.83 60.1308 479.83C60.3451 479.83 60.5508 479.702 60.7038 479.475L62.5228 476.109C62.6591 475.856 62.7241 475.532 62.7037 475.206C62.6833 474.881 62.579 474.581 62.4136 474.371C62.3325 474.27 62.2389 474.193 62.1382 474.147C62.0376 474.1 61.9319 474.084 61.8271 474.099C61.7224 474.115 61.6206 474.161 61.5278 474.236C61.4349 474.311 61.3527 474.413 61.2858 474.537L59.4487 477.765Z" fill="white"/>
<path d="M103.391 466.09C106.037 465.903 108.66 466.681 110.763 468.278C112.866 469.875 114.302 472.178 114.799 474.751L126.953 487.074V494.744H87.9468C87.9468 494.744 89.8831 480.924 90.4663 477.814C91.0495 474.705 92.9159 466.09 103.391 466.09Z" fill="#FBBEAA"/>
<path d="M113.807 474.978C114.258 474.366 114.875 473.895 115.349 474.178C115.823 474.46 127.778 483.878 128.323 484.349C128.869 484.819 129.248 485.408 129.248 486.938V497.039H85.6528C85.6528 497.039 87.3606 482.112 87.4792 481.288C87.5978 480.464 88.4279 479.381 88.9023 479.404C91.8946 480.314 95.0001 480.806 98.1291 480.864C102.28 481.087 106.422 480.278 110.178 478.51C111.586 477.551 112.814 476.356 113.807 474.978Z" fill="#302D3B"/>
<path d="M120.858 488.854C118.795 487.296 111.379 481.397 108.598 479.178L109.223 478.848C109.318 478.81 109.405 478.754 109.478 478.683C112.445 481.043 119.421 486.612 121.414 488.122C123.099 489.437 124.254 491.334 124.659 493.455L123.755 493.597C123.362 491.721 122.337 490.043 120.858 488.854Z" fill="white"/>
<path d="M88.0747 486.713C90.8369 486.745 93.5099 487.801 95.6662 489.714C97.6151 491.627 98.9353 494.204 99.4193 497.039H98.2678C97.791 494.579 96.6181 492.352 94.9198 490.683C92.9452 488.918 90.4835 487.959 87.9468 487.966L88.0747 486.713Z" fill="white"/>
<path d="M135.495 495.891H85.1422C84.7905 495.891 84.5054 496.21 84.5054 496.604V502.063C84.5054 502.456 84.7905 502.775 85.1422 502.775H135.495C135.847 502.775 136.132 502.456 136.132 502.063V496.604C136.132 496.21 135.847 495.891 135.495 495.891Z" fill="white"/>
<path d="M127.642 484.447C128.099 484.276 130.337 484.851 133.248 487.382C134.46 488.49 135.333 489.853 135.783 491.342C136.234 492.831 136.247 494.397 135.823 495.891H121.217C122.035 487.723 127.185 484.617 127.642 484.447Z" fill="white"/>
<path d="M122.612 483.974C122.429 484.174 122.342 484.43 122.369 484.687C122.397 484.944 122.537 485.181 122.759 485.347C122.868 485.427 122.993 485.487 123.128 485.524C123.264 485.561 123.405 485.574 123.546 485.562C123.687 485.55 123.823 485.513 123.948 485.453C124.073 485.394 124.183 485.313 124.273 485.216L126.715 482.579C126.892 482.377 126.975 482.122 126.948 481.866C126.921 481.611 126.785 481.374 126.568 481.206C126.461 481.123 126.335 481.06 126.2 481.021C126.064 480.983 125.921 480.969 125.78 480.982C125.638 480.994 125.501 481.032 125.376 481.093C125.251 481.154 125.142 481.237 125.054 481.337L122.612 483.974Z" fill="white"/>
<path d="M120.256 482.418C120.119 482.668 120.053 482.988 120.074 483.309C120.095 483.63 120.2 483.926 120.366 484.133C120.447 484.237 120.541 484.315 120.642 484.364C120.744 484.412 120.851 484.429 120.957 484.413C121.064 484.398 121.167 484.351 121.26 484.275C121.354 484.198 121.436 484.095 121.502 483.97L123.333 480.675C123.466 480.422 123.529 480.103 123.508 479.784C123.488 479.465 123.386 479.17 123.223 478.959C123.055 478.755 122.84 478.658 122.624 478.688C122.408 478.719 122.209 478.875 122.069 479.122L120.256 482.418Z" fill="white"/>
<path d="M116.954 479.796C116.851 479.862 116.769 479.94 116.713 480.028C116.657 480.115 116.628 480.209 116.628 480.304C116.628 480.398 116.657 480.492 116.713 480.579C116.769 480.667 116.851 480.745 116.954 480.811C117.179 480.934 117.469 480.992 117.76 480.974C118.05 480.956 118.318 480.862 118.505 480.713L120.968 478.732C121.152 478.581 121.24 478.389 121.212 478.196C121.185 478.003 121.044 477.825 120.82 477.7C120.71 477.64 120.583 477.595 120.447 477.567C120.311 477.539 120.168 477.53 120.026 477.539C119.884 477.548 119.746 477.576 119.62 477.62C119.495 477.665 119.383 477.725 119.293 477.798L116.954 479.796Z" fill="white"/>
<path d="M114.578 477.765C114.489 477.888 114.422 478.03 114.381 478.182C114.34 478.335 114.325 478.495 114.339 478.654C114.352 478.813 114.393 478.967 114.459 479.108C114.525 479.249 114.615 479.374 114.724 479.475C114.928 479.702 115.202 479.83 115.488 479.83C115.773 479.83 116.048 479.702 116.252 479.475L118.677 476.109C118.859 475.856 118.945 475.532 118.918 475.206C118.891 474.881 118.752 474.581 118.531 474.371C118.423 474.27 118.298 474.193 118.164 474.147C118.03 474.1 117.889 474.084 117.749 474.099C117.61 474.115 117.474 474.161 117.35 474.236C117.226 474.311 117.117 474.413 117.028 474.537L114.578 477.765Z" fill="white"/>
<path d="M37.6601 325.231C37.2707 328.26 37.4754 331.338 38.2622 334.286C39.049 337.234 40.4023 339.995 42.2438 342.407C44.0854 344.82 46.3786 346.836 48.9908 348.341C51.603 349.846 54.4824 350.808 57.4624 351.173C60.4424 351.537 63.4639 351.297 66.352 350.465C69.2401 349.634 71.9376 348.227 74.2884 346.328C76.6391 344.428 78.5966 342.073 80.0474 339.399C81.4982 336.724 82.4136 333.784 82.7407 330.747C82.7407 330.747 94.5597 246.25 97.3627 229.18C100.166 212.109 97.1992 197.821 78.4195 193.755C58.9391 189.547 46.7696 204.073 45.2981 218.624C43.8265 233.174 37.6601 325.231 37.6601 325.231Z" fill="#013EA5"/>
<path d="M75.6122 326.856C75.5367 332.969 77.8952 338.861 82.169 343.237C86.4428 347.613 92.2817 350.113 98.4013 350.189C104.521 350.264 110.42 347.908 114.8 343.639C119.181 339.37 121.685 333.538 121.76 327.425C121.76 327.425 124.68 242.346 125.677 225.108C126.674 207.869 122.164 194.045 102.745 192.053C82.6151 189.99 71.8853 205.711 71.8853 220.318C71.8853 234.925 75.6122 326.856 75.6122 326.856Z" fill="#013EA5"/>
<path d="M75.3271 327.043C75.3653 324.019 76.0113 321.032 77.2284 318.253C78.4455 315.474 80.2098 312.957 82.4206 310.845C84.6314 308.733 87.2454 307.069 90.1133 305.946C92.9812 304.823 96.0468 304.265 99.1352 304.302C102.224 304.34 105.274 304.972 108.113 306.164C110.952 307.355 113.523 309.083 115.68 311.247C117.837 313.411 119.537 315.971 120.684 318.778C121.83 321.586 122.401 324.588 122.363 327.611L117.524 449.44L79.5613 453.443L75.3271 327.043Z" fill="#013EA5"/>
<path d="M37.7399 325.581C38.5225 319.539 41.6339 314.053 46.3984 310.314C51.1629 306.575 57.1955 304.886 63.186 305.613C69.1764 306.34 74.6408 309.425 78.3922 314.198C82.1436 318.971 83.8791 325.046 83.2216 331.103L65.4766 452.296H28.29L37.7399 325.581Z" fill="#013EA5"/>
<path d="M82.2107 329.54L65.002 451.149" stroke="#013EA5" stroke-width="0.75" stroke-miterlimit="10" stroke-linecap="round"/>
<path d="M83.3579 330.687C83.3579 330.687 95.4132 246.697 98.2722 229.729" stroke="#F5F5F5" stroke-width="0.75" stroke-miterlimit="10" stroke-linecap="round"/>
<path d="M123.512 202.195C123.512 202.195 123.512 226.134 123.512 227.45C123.512 228.766 112.003 240.054 96.7185 240.054C73.2169 240.054 45.0887 231.444 45.5031 225.834C45.7793 222.14 46.1245 202.195 46.1245 202.195H123.512Z" fill="#013EA5"/>
<path d="M102.44 88.8864C103.134 88.8864 104.608 88.8864 105.909 89.32C105.909 90.3608 103.597 91.1992 102.44 91.4883C102.151 90.621 101.746 88.8864 102.44 88.8864Z" fill="#013FA9"/>
<path d="M103.842 69.9063H76.856V101.644H103.842V69.9063Z" fill="#FBBEAA"/>
<path d="M76.8797 69.9063H103.776V87.613C102.601 87.7589 101.418 87.8338 100.235 87.8371C90.9554 87.8371 80.5779 85.3044 76.79 76.451L76.8797 69.9063Z" fill="#F18380"/>
<path d="M117.785 46.3499C117.583 55.517 117.785 62.7566 116.149 69.7496C114.512 76.7426 109.425 82.4581 98.2178 82.4581C87.011 82.4581 74.2353 78.8047 73.3388 64.7962C71.5008 62.8014 68.5198 55.6963 68.4078 47.7395C68.2957 39.7827 68.9009 22.9501 87.0558 20.3726C105.211 17.795 118.3 24.4518 117.785 46.3499Z" fill="#FBBEAA"/>
<path d="M108.324 53.5669C108.324 54.7996 109.063 55.8082 109.982 55.8082C110.901 55.8082 111.641 54.7996 111.641 53.5669C111.641 52.3341 110.901 51.3255 109.982 51.3255C109.063 51.3255 108.324 52.2445 108.324 53.5669Z" fill="#403D4F"/>
<path d="M88.1538 53.5669C88.1538 54.7996 88.8935 55.8082 89.8124 55.8082C90.7314 55.8082 91.471 54.7996 91.471 53.5669C91.471 52.3341 90.709 51.3255 89.8124 51.3255C88.9159 51.3255 88.1538 52.2445 88.1538 53.5669Z" fill="#403D4F"/>
<path d="M92.2983 46.529C92.119 46.7307 90.9535 46.529 90.057 46.529C89.1604 46.529 87.4346 46.529 87.4346 46.3273C87.4346 46.1255 88.2863 44.7359 90.5277 44.9824C92.0518 45.1617 92.5 46.1704 92.2983 46.529Z" fill="#403D4F"/>
<path d="M107.988 46.529C108.122 46.7307 109.131 46.529 109.915 46.529C110.7 46.529 112.157 46.529 112.157 46.3273C112.157 46.1255 111.439 44.7359 109.534 44.9824C107.988 45.1617 107.696 46.1704 107.988 46.529Z" fill="#403D4F"/>
<path d="M101.265 62.846C102.834 62.846 104.09 61.815 104.134 61.0753L103.619 54.7547C103.602 54.5981 103.524 54.4542 103.403 54.3538C103.282 54.2533 103.126 54.2042 102.969 54.2168C102.892 54.2224 102.818 54.2432 102.749 54.2778C102.68 54.3125 102.619 54.3604 102.569 54.4187C102.519 54.477 102.481 54.5446 102.458 54.6177C102.434 54.6907 102.425 54.7678 102.431 54.8443L102.924 60.9408C102.698 61.1865 102.419 61.3784 102.109 61.5025C101.798 61.6266 101.464 61.6797 101.131 61.6581C101.053 61.652 100.974 61.6618 100.899 61.6869C100.825 61.7121 100.756 61.752 100.698 61.8044C100.639 61.8567 100.592 61.9204 100.558 61.9915C100.525 62.0627 100.506 62.1399 100.503 62.2184C100.5 62.2979 100.513 62.3772 100.541 62.4517C100.568 62.5263 100.61 62.5947 100.665 62.653C100.719 62.7113 100.784 62.7583 100.856 62.7914C100.928 62.8246 101.007 62.8431 101.086 62.846H101.265Z" fill="#F18380"/>
<path d="M99.9866 67.3282C101.869 67.4403 105.03 68.4937 105.052 69.323C105.023 70.8628 104.387 72.3288 103.284 73.403C102.18 74.4773 100.697 75.0729 99.1573 75.0609C92.2539 75.0609 92.2763 69.7264 92.5677 68.5609C92.8591 67.3954 96.4901 67.1041 99.9866 67.3282Z" fill="#73102A"/>
<path d="M92.5469 70.4216C94.414 69.7453 96.4508 69.6967 98.348 70.2833C100.245 70.8699 101.899 72.0595 103.059 73.6715C101.987 74.6217 100.59 75.1198 99.1589 75.0612C94.2727 75.0612 92.8607 72.4164 92.5469 70.4216Z" fill="#D65155"/>
<path d="M92.8384 68.1579C93.8022 67.3286 96.9624 67.1269 99.9883 67.3286C101.849 67.4407 104.987 68.4717 105.054 69.3234C100.947 69.9056 96.7609 69.5062 92.8384 68.1579Z" fill="white"/>
<path d="M84.6338 38.2358C84.6338 43.7495 82.3925 46.1478 80.7115 47.2012C79.0304 48.2547 77.7977 49.3081 77.7977 51.2133V57.9373C77.7977 58.6994 77.3494 59.2821 76.7667 59.0804C76.1839 58.8787 74.0098 57.7804 74.0098 56.6822L67.2857 51.9305C65.5367 47.7878 64.8882 43.2634 65.403 38.7961C65.6031 36.2913 66.3415 33.8592 67.5677 31.666C68.7939 29.4727 70.4791 27.5699 72.5081 26.0877C72.5081 21.3136 76.9908 12.8188 86.4269 9.45682C86.6577 11.1824 86.6577 12.9311 86.4269 14.6568C90.7079 10.7792 105.12 9.5913 110.297 11.3844C109.538 13.0826 108.439 14.608 107.07 15.8671C114.142 17.5004 117.669 21.5216 122.122 27.2532C120.704 29.1033 121.675 30.6312 119.621 31.7359C121.977 34.9759 123.375 38.8124 123.656 42.8082C119.4 42.4142 115.229 41.3789 111.284 39.7375C111.504 41.7074 111.39 43.7003 110.947 45.6323C106.465 45.3633 97.9923 40.791 95.594 37.1151C95.9693 40.109 95.8023 43.1459 95.1009 46.0805C90.9341 44.5193 87.3017 41.797 84.6338 38.2358Z" fill="#403D4F"/>
<path d="M73.8069 57.8253C73.8069 55.2701 73.2914 51.5047 69.6828 51.415C66.0742 51.3254 65.5811 54.0598 65.6932 58.3632C65.8053 62.6666 70.1759 66.32 74.0086 64.8407L73.8069 57.8253Z" fill="#FBBEAA"/>
<path d="M68.4946 60.9183C68.6491 60.8858 68.7857 60.7962 68.8771 60.6674C68.9685 60.5386 69.008 60.3801 68.9877 60.2235C68.9882 60.0999 69.0217 59.9786 69.0847 59.8722C69.1478 59.7658 69.2381 59.6782 69.3463 59.6184C69.5795 59.466 69.8521 59.3848 70.1307 59.3848C70.4094 59.3848 70.682 59.466 70.9152 59.6184C71.0106 59.6734 71.1188 59.7024 71.229 59.7024C71.3392 59.7024 71.4474 59.6734 71.5428 59.6184C71.6401 59.5628 71.7193 59.4805 71.771 59.3811C71.8227 59.2817 71.8446 59.1695 71.8342 59.058C71.498 55.4494 69.2118 54.777 69.1221 54.7546C69.0456 54.731 68.965 54.7234 68.8854 54.7323C68.8059 54.7413 68.729 54.7665 68.6596 54.8064C68.5901 54.8464 68.5297 54.9002 68.4821 54.9646C68.4344 55.0289 68.4005 55.1024 68.3825 55.1805C68.3411 55.3291 68.3604 55.488 68.436 55.6225C68.5116 55.7569 68.6375 55.8559 68.7859 55.8977C69.2314 56.1037 69.6196 56.4157 69.9165 56.8064C70.2135 57.1972 70.4102 57.6547 70.4894 58.1391C69.8752 58.039 69.2456 58.1665 68.7187 58.4977C68.4077 58.6733 68.1562 58.9377 67.9964 59.2572C67.8367 59.5767 67.776 59.9366 67.8222 60.2908C67.8142 60.3791 67.8266 60.4681 67.8582 60.551C67.8899 60.6338 67.9401 60.7084 68.0049 60.7689C68.0698 60.8294 68.1476 60.8744 68.2325 60.9003C68.3173 60.9262 68.407 60.9323 68.4946 60.9183Z" fill="#F18380"/>
<path d="M194.334 103.982L183.209 173.819C181.373 182.58 184.21 190.507 194.334 191.898C196.202 192.141 198.101 192.002 199.914 191.489C201.728 190.976 203.418 190.1 204.883 188.914C206.347 187.728 207.555 186.257 208.433 184.589C209.312 182.922 209.842 181.094 209.992 179.215L213.385 104.121C214.275 97.0286 211.188 92.3005 205.792 91.7164C199.173 90.9933 195.669 94.9149 194.334 103.982Z" fill="#FBBEAA"/>
<path d="M203.374 166.087L123.496 105.4C114.179 99.4482 107.838 102.619 102.887 108.988C100.626 112.071 99.5778 115.877 99.9419 119.683C100.306 123.488 102.057 127.027 104.862 129.625L184.545 188.337C187.353 190.709 190.968 191.905 194.636 191.678C198.304 191.45 201.743 189.815 204.236 187.114L204.598 186.724C205.921 185.313 206.942 183.647 207.6 181.827C208.258 180.008 208.538 178.074 208.424 176.143C208.309 174.211 207.802 172.324 206.934 170.595C206.066 168.866 204.854 167.332 203.374 166.087Z" fill="#FBBEAA"/>
<path d="M194.667 102.118C194.782 99.6116 194.111 97.1321 192.748 95.0257C190.65 92.5928 189.078 89.7519 188.131 86.6819C187.403 83.8321 186.239 81.1115 184.682 78.6161C183.57 77.0864 181.901 75.8349 181.901 74.6668C181.901 73.4987 184.126 71.2458 187.297 71.8855C188.655 72.3086 189.902 73.0267 190.951 73.9883C191.999 74.9499 192.822 76.1313 193.36 77.4481C193.664 76.6458 193.842 75.8015 193.888 74.9449L194.583 57.8958C194.594 57.4538 194.693 57.0184 194.875 56.6153C195.056 56.2122 195.317 55.8497 195.641 55.5489C195.965 55.2482 196.346 55.0154 196.761 54.8644C197.177 54.7133 197.618 54.6471 198.06 54.6695C198.763 54.6995 199.439 54.949 199.993 55.3831C200.546 55.8171 200.95 56.4138 201.147 57.0892V56.3104C201.254 55.4816 201.671 54.724 202.313 54.1896C202.956 53.6552 203.777 53.3836 204.611 53.4294C205.445 53.4751 206.232 53.8349 206.812 54.4363C207.392 55.0378 207.723 55.8365 207.739 56.672V59.0361C208.017 58.3073 208.549 57.7028 209.236 57.3328C209.923 56.9628 210.72 56.8521 211.481 57.0206C212.243 57.1892 212.919 57.6258 213.386 58.251C213.853 58.8762 214.079 59.6484 214.025 60.4267V61.9286C214.324 61.4025 214.77 60.975 215.308 60.6984C215.847 60.4218 216.454 60.3081 217.056 60.3711C217.88 60.4757 218.632 60.8971 219.151 61.546C219.67 62.1949 219.916 63.0204 219.837 63.8476L218.475 78.2268C217.582 86.3336 215.905 94.3347 213.468 102.118C213.439 103.417 213.138 104.696 212.584 105.873C212.031 107.049 211.238 108.096 210.256 108.948C209.273 109.799 208.124 110.435 206.881 110.816C205.638 111.196 204.329 111.312 203.038 111.157C201.871 111.196 200.708 110.983 199.63 110.533C198.551 110.084 197.582 109.407 196.788 108.55C195.994 107.692 195.394 106.674 195.028 105.565C194.662 104.455 194.539 103.279 194.667 102.118Z" fill="#FBBEAA"/>
<path d="M116.903 101.061L186.027 147.682C185.737 150.066 191.338 101.061 191.338 101.061L216.924 103.449C216.924 103.449 215.429 153.343 211.664 179.693C210.17 190.15 201.466 194.115 191.145 191.864C186.049 190.752 181.252 188.661 176.983 185.665C158.639 172.789 107.177 136.523 102.969 131.961C95.7099 124.09 95.7098 118.194 99.8817 111.713C104.054 105.233 112.981 100.088 116.903 101.061Z" fill="#013EA5"/>
<path d="M195.223 79.8681C194.167 79.8681 194.083 79.2006 193.61 77.9769C195.974 77.9769 202.844 78.4218 205.848 84.2069C202.816 80.035 197.003 79.8681 195.223 79.8681ZM200.619 57.8683C200.619 57.8683 200.452 58.8418 200.285 60.2602C200.285 60.9834 200.118 61.8455 200.063 62.7355C200.007 63.6255 199.924 64.5989 199.84 65.5168C199.84 67.4636 199.701 69.3827 199.701 70.829C199.701 72.2752 199.701 73.2487 199.701 73.2487C199.701 73.2949 199.711 73.3408 199.729 73.3832C199.748 73.4256 199.775 73.4637 199.809 73.4951C199.843 73.5265 199.883 73.5505 199.927 73.5655C199.97 73.5806 200.017 73.5863 200.063 73.5824C200.141 73.5785 200.216 73.5492 200.276 73.4991C200.336 73.4489 200.379 73.3806 200.397 73.3044C200.397 73.3044 200.563 72.3308 200.703 70.8846C200.842 69.4383 201.064 67.5193 201.148 65.6002C201.148 64.6268 201.148 63.6533 201.148 62.8189C201.148 61.9846 201.148 61.0668 201.148 60.3437C201.148 58.8696 201.148 57.9239 201.148 57.9239C201.148 57.8776 201.138 57.8319 201.12 57.7894C201.101 57.747 201.074 57.7089 201.04 57.6775C201.006 57.6461 200.966 57.6222 200.922 57.6071C200.879 57.5921 200.832 57.5863 200.786 57.5901C200.733 57.6208 200.689 57.6657 200.659 57.7197C200.63 57.7737 200.616 57.8347 200.619 57.8961V57.8683ZM207.072 59.8152C207.072 59.8152 206.905 60.6496 206.71 61.8733C206.71 62.513 206.515 63.2361 206.432 64.0149C206.348 64.7936 206.265 65.628 206.182 66.4624C206.182 68.1311 205.987 69.7999 205.959 71.0515C205.931 72.303 205.959 73.1652 205.959 73.1652C205.963 73.2091 205.975 73.2519 205.995 73.291C206.015 73.3302 206.043 73.365 206.076 73.3935C206.11 73.4219 206.149 73.4435 206.191 73.4568C206.233 73.4701 206.277 73.475 206.321 73.4712C206.395 73.466 206.466 73.4357 206.522 73.3852C206.577 73.3348 206.614 73.2671 206.627 73.1931C206.627 73.1931 206.794 72.3586 206.988 71.1349C207.183 69.9111 207.35 68.2146 207.489 66.5737C207.489 65.7393 207.489 64.9049 207.656 64.1261C207.823 63.3474 207.656 62.5964 207.656 61.9568C207.656 60.7052 207.656 59.8708 207.656 59.8708C207.656 59.8245 207.646 59.7788 207.628 59.7364C207.609 59.6939 207.582 59.6558 207.548 59.6244C207.514 59.593 207.474 59.5691 207.43 59.554C207.387 59.539 207.34 59.5332 207.294 59.5371C207.232 59.5625 207.179 59.6046 207.14 59.6586C207.1 59.7126 207.077 59.7764 207.072 59.843V59.8152ZM213.302 62.4574C213.302 62.4574 213.135 63.1527 212.912 64.2096C212.912 64.7102 212.69 65.3221 212.606 65.9896C212.523 66.6571 212.412 67.3524 212.3 68.0477C212.106 69.4662 212.022 70.829 211.967 71.9415C211.911 73.054 211.967 73.7215 211.967 73.7215C211.966 73.7678 211.976 73.8136 211.994 73.856C212.013 73.8984 212.04 73.9365 212.074 73.9679C212.108 73.9993 212.148 74.0233 212.192 74.0383C212.236 74.0533 212.282 74.0591 212.328 74.0553C212.399 74.0516 212.467 74.0253 212.522 73.9802C212.577 73.9352 212.617 73.8738 212.634 73.805C212.634 73.805 212.829 73.1097 213.024 72.0806C213.218 71.0515 213.496 69.6052 213.663 68.2146C213.663 67.4915 213.802 66.7962 213.858 66.1286C213.914 65.4611 213.858 64.8493 213.858 64.3208C213.858 63.264 213.858 62.5408 213.858 62.5408C213.858 62.4945 213.849 62.4488 213.83 62.4063C213.812 62.3639 213.785 62.3258 213.751 62.2944C213.717 62.263 213.676 62.2391 213.633 62.224C213.589 62.209 213.542 62.2032 213.496 62.2071C213.445 62.2357 213.401 62.2756 213.367 62.3238C213.333 62.3719 213.311 62.4271 213.302 62.4852V62.4574Z" fill="#F18380"/>
<path d="M186.568 142.044L187.869 131.637L215.623 133.805L215.189 144.212L186.568 142.044Z" fill="#CFD1CE"/>
<path d="M105.871 94.5152C105.871 94.5152 122.664 104.212 125.285 105.909C127.906 107.606 130.866 110.224 130.332 117.302C129.799 124.381 127.542 219.666 127.542 219.666C118.923 221.125 93.6834 221.125 93.6834 221.125H91.3889H89.668H87.3735H85.6526H83.9317C83.9317 221.125 46.5137 217.945 45.7614 217.508C45.0092 217.072 44.3054 216.611 44.3539 215.787C44.4025 214.963 44.8878 118.102 45.2033 113.836C45.2658 111.551 45.9855 109.332 47.2765 107.445C48.5675 105.558 50.3752 104.082 52.4834 103.194C57.5553 100.939 76.605 93.2062 76.605 93.2062L92.6048 94.5152H105.871Z" fill="#034CC9"/>
<path d="M105.871 94.5152C105.871 94.5152 122.664 104.212 125.285 105.909C127.906 107.606 130.866 110.224 130.332 117.302C129.799 124.381 127.542 219.666 127.542 219.666C118.923 221.125 105.156 221.125 105.156 221.125H102.861H101.141H98.846H97.1251H95.4042C95.4042 221.125 98.14 217.945 97.3877 217.508C96.6355 217.072 95.9317 216.611 95.9802 215.787C96.0288 214.963 96.5141 118.102 96.8296 113.836C96.8921 111.551 97.6118 109.332 98.9028 107.445C100.194 105.558 102.001 104.082 104.11 103.194C109.182 100.939 76.605 93.2062 76.605 93.2062L92.6048 94.5152H105.871Z" fill="#0045BA"/>
<path d="M107.777 94.6549C107.777 94.6549 126.342 105.387 129.24 107.265C132.137 109.143 129.822 113.283 129.822 120.74C129.822 130.492 128.101 131.065 128.101 131.065C122.295 134.198 119.756 131.755 113.357 133.361C110.245 133.71 107.83 133.79 105.738 131.751C103.645 129.712 97.1253 130.492 97.1253 130.492C97.1253 130.492 87.3063 129.202 82.7185 131.751C81.6212 132.516 80.3812 133.053 79.0723 133.33C77.7634 133.606 76.7341 133.586 75.4211 133.33C68.7675 131.961 42.1531 124.319 41.3214 123.837C40.4897 123.354 39.7117 122.844 39.7653 121.932C39.819 121.019 40.3556 120.76 40.7043 116.038C40.7734 113.509 41.5691 111.053 42.9964 108.965C44.4237 106.876 46.4222 105.243 48.753 104.26C54.3603 101.765 75.4211 93.2062 75.4211 93.2062L93.1099 93.7798L107.777 94.6549Z" fill="#9A99A1"/>
<path d="M94.6352 90.621C86.656 90.621 79.4574 87.1517 76.8555 85.4171V93.2229C77.1446 93.6565 79.3706 95.0442 85.9621 97.1257C92.5536 99.2072 102.007 98.4267 105.91 97.1257V89.32C105.91 89.7537 104.609 90.621 94.6352 90.621Z" fill="#034CC9"/>
<path d="M95.0684 220.716C97.2844 219.973 99.2238 218.54 100.621 216.615C102.018 214.689 102.805 212.365 102.874 209.96V91.0545H95.0684V220.716Z" fill="#034CC9"/>
<path d="M129.822 133.986H90.4795V125.313L129.822 125.329C129.822 129.345 129.822 130.492 129.822 133.986Z" fill="#D3D4D2"/>
<path d="M58.6731 125.313H98.285V133.986H57.861C58.3891 130.083 58.6731 128.349 58.6731 125.313Z" fill="#CFD1CE"/>
<g style="mix-blend-mode:multiply" opacity="0.4">
<path d="M94.2012 98.249L95.0685 98.4266V220.716H94.2012V98.249Z" fill="#013FA9"/>
</g>
<g filter="url(#filter0_d_14_2)">
<rect x="67.8701" y="138.67" width="49.4484" height="70.4639" rx="1" transform="rotate(-6.55484 67.8701 138.67)" fill="#EFEFEF"/>
</g>
<path d="M89.8045 169.595C92.9312 168.274 95.7585 166.317 98.1067 163.846C99.5601 162.321 101.208 160.997 103.007 159.91C104.063 159.25 104.973 158.38 105.682 157.353C106.619 155.761 107.394 154.079 107.996 152.334C108.219 150.831 108.73 149.383 109.501 148.071C110.234 147.399 112.82 147.758 114.163 150.368C114.626 151.531 114.836 152.782 114.778 154.039C114.721 155.295 114.397 156.528 113.83 157.655C113.162 159.007 112.638 160.425 112.269 161.885L112.512 162.031C114.558 160.945 116.745 160.157 119.005 159.691C119.825 159.508 120.679 159.607 121.429 159.973C122.18 160.338 122.783 160.949 123.142 161.706C123.501 162.463 123.595 163.323 123.408 164.147C123.222 164.972 122.766 165.712 122.114 166.249C125.641 166.654 125.24 172.094 122.212 172.813C122.861 173.085 123.408 173.552 123.78 174.151C124.152 174.75 124.332 175.451 124.294 176.16C124.256 176.87 124.002 177.553 123.568 178.118C123.133 178.682 122.538 179.101 121.864 179.317C124.014 181.3 122.442 184.568 118.537 184.582C115.364 184.905 106.878 186.233 103.926 186.868C100.974 187.504 95.0395 186.098 93.1333 186.688C90.2957 187.728 87.0001 187.745 84.4863 180.278C81.9725 172.812 86.8846 170.56 89.8045 169.595Z" fill="#FBBEAA"/>
<path d="M42.2185 109.018C36.1474 116.824 6.896 198.863 6.896 198.863C39.4198 188.455 23.2551 184.466 40.9439 187.442C40.9439 187.442 68.5801 128.792 69.3589 124.509C70.1716 121.132 69.8069 117.579 68.3249 114.438C66.8429 111.298 64.3327 108.757 61.2098 107.237C52.5044 102.787 48.2896 101.212 42.2185 109.018Z" fill="#0045BA"/>
<path d="M93.7747 192.208L31.2741 217.371C23.2871 221.387 10.3105 219.327 6.39853 209.985C5.68223 208.244 5.32724 206.374 5.35503 204.491C5.38283 202.608 5.79282 200.75 6.56022 199.03C7.32761 197.31 8.43639 195.764 9.81927 194.486C11.2022 193.207 12.8304 192.223 14.6051 191.592L88.4712 164.877L93.7747 192.208Z" fill="#0045BA"/>
<path d="M43.5524 180.807L54.2534 177.597L58.2644 206.175L48.3547 211.283L43.5524 180.807Z" fill="#CFD1CE"/>
<path d="M82.8978 35.739C81.5421 39.8052 79.4307 43.5784 76.6747 46.8599H69.9286C69.9286 46.8599 64.6991 40.7892 64.3069 40.292C63.7399 39.6873 63.3089 38.968 63.0428 38.1827C62.7767 37.3974 62.6817 36.5641 62.7642 35.739H82.8978Z" fill="#676575"/>
<path d="M76.6752 46.86C76.6752 59.9434 72.3529 78.5461 92.6794 82.4802C92.6794 82.4802 79.656 81.7926 74.6618 75.3818C69.6676 68.9709 69.9291 46.7553 69.9291 46.7553L76.6752 46.86Z" fill="#827F94"/>
<path d="M57.9272 37.4139H123.924C124.426 31.4476 123.859 25.4396 122.25 19.6728C119.635 12.1891 114.406 3.03075 92.5204 3.03075C70.6349 3.03075 62.9737 13.2881 61.431 21.0596C59.8883 28.8312 60.6204 31.3693 59.7053 32.2067C58.7901 33.044 57.9272 33.0702 57.9272 34.3262V37.4139Z" fill="#EFEFEF"/>
<path d="M92.5203 3.03087C97.293 2.94412 102.054 3.52541 106.666 4.75787H106.875L107.686 5.01954C109.895 5.70035 111.999 6.68678 113.935 7.95022C115.25 13.3766 115.595 18.9931 114.955 24.5399H107.686L98.0113 22.8914C98.0113 22.8914 94.9521 7.19138 84.0747 3.52803C86.8744 3.16032 89.6969 2.99418 92.5203 3.03087Z" fill="#D8D8D8"/>
<path d="M91.0034 0.518799H105.777C107.346 0.518799 114.955 6.43249 114.955 26.6856H98.1416C98.1416 20.7195 97.0957 5.09798 87.6826 3.13547C87.7088 3.18781 89.1207 0.518799 91.0034 0.518799Z" fill="#EFEFEF"/>
<path d="M134.46 37.4137V33.5934C134.458 33.0458 134.344 32.5045 134.123 32.0033C133.902 31.5022 133.581 31.0521 133.178 30.6812C132.775 30.3102 132.301 30.0265 131.783 29.8477C131.266 29.6689 130.718 29.599 130.172 29.6422H121.727C121.241 29.6649 120.757 29.5832 120.306 29.4026C119.855 29.2221 119.448 28.9469 119.112 28.5955C118.563 27.9675 114.824 24.4612 114.379 23.9379C114.074 23.5382 113.677 23.2179 113.222 23.0039C112.767 22.7898 112.267 22.6884 111.764 22.708H99.475C98.9732 22.6927 98.4749 22.796 98.0205 23.0097C97.5662 23.2234 97.1686 23.5414 96.8602 23.9379C96.4157 24.4612 92.6766 27.9675 92.1275 28.5955C91.7928 28.9482 91.3858 29.2244 90.9345 29.405C90.4832 29.5857 89.9982 29.6666 89.5128 29.6422H82.4791C81.9336 29.599 81.385 29.6689 80.8678 29.8477C80.3506 30.0265 79.8758 30.3102 79.4732 30.6812C79.0707 31.0521 78.749 31.5022 78.5283 32.0033C78.3077 32.5045 78.1928 33.0458 78.1909 33.5934V37.4137H134.46Z" fill="#D8D8D8"/>
<defs>
<filter id="filter0_d_14_2" x="67.9775" y="133.133" width="58.9541" height="75.433" filterUnits="userSpaceOnUse" color-interpolation-filters="sRGB">
<feFlood flood-opacity="0" result="BackgroundImageFix"/>
<feColorMatrix in="SourceAlpha" type="matrix" values="0 0 0 0 0 0 0 0 0 0 0 0 0 0 0 0 0 0 127 0" result="hardAlpha"/>
<feOffset dx="2"/>
<feComposite in2="hardAlpha" operator="out"/>
<feColorMatrix type="matrix" values="0 0 0 0 0.603922 0 0 0 0 0.6 0 0 0 0 0.631373 0 0 0 1 0"/>
<feBlend mode="normal" in2="BackgroundImageFix" result="effect1_dropShadow_14_2"/>
<feBlend mode="normal" in="SourceGraphic" in2="effect1_dropShadow_14_2" result="shape"/>
</filter>
</defs>
</svg>
