<svg width="232" height="515" viewBox="0 0 232 515" fill="none" xmlns="http://www.w3.org/2000/svg">
<path d="M124.428 79.1149C123.698 79.1149 122.147 79.1149 120.778 79.5711C120.778 80.6659 123.211 81.5478 124.428 81.8519C124.732 80.9396 125.157 79.1149 124.428 79.1149Z" fill="#013FA9"/>
<path d="M122.287 57.902H151.374V92.1111H122.287V57.902Z" fill="#FBBEAA"/>
<path d="M151.301 57.902H122.311V76.9876C123.577 77.1449 124.852 77.2255 126.128 77.2292C136.13 77.2292 147.315 74.4992 151.398 64.9564L151.301 57.902Z" fill="#F18380"/>
<path d="M107.26 32.5114C107.502 42.3924 107.26 50.1958 109.048 57.7334C110.836 65.2709 116.295 71.4315 128.375 71.4315C140.454 71.4315 154.225 67.4936 155.191 52.3942C157.172 50.2441 160.385 42.5857 160.506 34.0093C160.627 25.4329 159.951 7.28954 140.406 4.51127C120.861 1.73299 106.728 8.90819 107.26 32.5114Z" fill="#FBBEAA"/>
<path d="M117.479 40.2907C117.479 41.6194 116.682 42.7066 115.692 42.7066C114.701 42.7066 113.904 41.6194 113.904 40.2907C113.904 38.962 114.701 37.8748 115.692 37.8748C116.682 37.8748 117.479 38.8653 117.479 40.2907Z" fill="#403D4F"/>
<path d="M139.222 40.2907C139.222 41.6194 138.424 42.7066 137.434 42.7066C136.443 42.7066 135.646 41.6194 135.646 40.2907C135.646 38.962 136.443 37.8748 137.434 37.8748C138.424 37.8748 139.222 38.8653 139.222 40.2907Z" fill="#403D4F"/>
<path d="M134.849 35.2652C135.018 35.4827 136.299 35.2652 137.265 35.2652C138.232 35.2652 140.092 35.2652 140.092 35.0478C140.092 34.8304 139.174 33.3325 136.758 33.5983C135.018 33.7915 134.39 34.8787 134.849 35.2652Z" fill="#403D4F"/>
<path d="M117.89 35.2652C117.745 35.4826 116.658 35.2652 115.813 35.2652C114.967 35.2652 113.397 35.2652 113.397 35.0478C113.614 34.5002 114.023 34.0507 114.548 33.7838C115.073 33.5168 115.677 33.4509 116.248 33.5982C117.745 33.7915 118.156 34.8787 117.89 35.2652Z" fill="#403D4F"/>
<path d="M125.017 50.2923C123.326 50.2923 121.973 49.181 121.925 48.3838L122.481 41.5709C122.499 41.4021 122.583 41.2471 122.713 41.1388C122.844 41.0305 123.012 40.9776 123.181 40.9911C123.264 40.9972 123.345 41.0196 123.418 41.057C123.492 41.0943 123.558 41.1459 123.612 41.2088C123.666 41.2716 123.707 41.3445 123.732 41.4233C123.758 41.502 123.768 41.585 123.761 41.6676L123.23 48.2388C123.474 48.5036 123.774 48.7104 124.109 48.8442C124.443 48.9779 124.803 49.0352 125.162 49.0119C125.247 49.0053 125.332 49.0159 125.412 49.043C125.492 49.0701 125.566 49.1132 125.629 49.1696C125.693 49.226 125.744 49.2946 125.78 49.3713C125.816 49.448 125.836 49.5312 125.839 49.6159C125.839 49.7872 125.775 49.9523 125.658 50.0779C125.542 50.2034 125.382 50.2801 125.211 50.2923H125.017Z" fill="#F18380"/>
<path d="M149.954 37.0046C149.954 46.7529 154.786 43.1291 154.786 43.1291C155.994 39.5052 158.098 41.0635 160.865 41.0635C163.631 41.0635 163.275 39.0488 166.042 32.4051C168.255 27.0901 165.704 18.645 164.044 16.6007C166.795 12.9962 163.064 10.8489 163.193 11.3953C164.044 14.9973 161.095 11.3772 159.618 9.95703C143.843 -5.21101 104.091 2.40924 104.091 2.40924L108.22 7.63402L98.0514 4.82518C98.0514 4.82518 98.715 10.3272 100.467 13.2808C101.927 15.7406 105.454 18.6449 105.454 18.6449L94.3886 19.6671C94.3886 19.6671 101.581 27.3329 111.54 28.355C122.755 29.5061 134.776 24.2665 134.776 24.2665L130.35 29.3771C130.35 29.3771 141.537 27.0954 145.161 28.984C147.479 30.192 149.954 32.6467 149.954 37.0046Z" fill="#7D4A40"/>
<path d="M154.66 44.8809C154.781 42.1268 155.216 38.0681 159.13 37.9715C163.043 37.8748 163.551 40.8222 163.43 45.4607C163.309 50.0993 158.598 54.0372 154.467 52.4427L154.66 44.8809Z" fill="#FBBEAA"/>
<path d="M160.41 48.2145C160.241 48.1849 160.09 48.0897 159.99 47.9494C159.891 47.8092 159.85 47.6353 159.879 47.4656C159.878 47.3292 159.84 47.1957 159.767 47.0803C159.694 46.9649 159.591 46.8724 159.468 46.8133C159.221 46.6481 158.931 46.56 158.634 46.56C158.338 46.56 158.047 46.6481 157.801 46.8133C157.694 46.8725 157.573 46.9036 157.451 46.9036C157.328 46.9036 157.207 46.8725 157.1 46.8133C157.002 46.7482 156.923 46.6577 156.872 46.5514C156.821 46.445 156.8 46.3268 156.81 46.2093C157.149 42.3197 159.637 41.5949 159.734 41.5708C159.816 41.5453 159.903 41.5372 159.989 41.5468C160.074 41.5564 160.157 41.5836 160.232 41.6267C160.307 41.6697 160.372 41.7278 160.423 41.7971C160.475 41.8665 160.511 41.9457 160.531 42.0298C160.575 42.19 160.555 42.3613 160.473 42.5062C160.392 42.6511 160.256 42.7578 160.096 42.8029C159.613 43.0214 159.193 43.3567 158.872 43.7785C158.552 44.2003 158.341 44.6953 158.26 45.2188C158.922 45.1109 159.601 45.2484 160.168 45.6053C160.499 45.7993 160.767 46.0852 160.938 46.4283C161.11 46.7714 161.178 47.1569 161.135 47.538C161.139 47.6322 161.122 47.7261 161.087 47.8133C161.051 47.9004 160.997 47.9789 160.928 48.0432C160.859 48.1074 160.777 48.1561 160.688 48.1856C160.598 48.2152 160.504 48.225 160.41 48.2145Z" fill="#F18380"/>
<path d="M126.684 58.9897C129.016 58.8997 131.255 58.0515 133.062 56.5738" stroke="#73102A" stroke-width="0.5" stroke-miterlimit="10" stroke-linecap="round"/>
<path d="M126.602 54.7141C129.984 53.6027 133.85 52.2982 135.178 53.8685C136.217 54.9315 134.816 59.9324 129.622 60.8021C124.428 61.6718 122.567 58.0963 122.833 56.7192C123.002 55.8737 123.944 55.6079 126.602 54.7141Z" fill="#73102A"/>
<path d="M135.058 53.7963H135.178C136.217 54.8593 134.816 59.8602 129.622 60.7299C128.493 60.9919 127.32 60.9919 126.191 60.7299C127.066 58.9918 128.315 57.4687 129.848 56.27C131.381 55.0712 133.16 54.2265 135.058 53.7963Z" fill="#D65155"/>
<path d="M133.849 53.2644C132.481 54.7518 130.743 55.8504 128.812 56.4487C126.881 57.047 124.827 57.1236 122.857 56.6708C123.05 55.8494 124.016 55.5837 126.601 54.7139C128.896 53.7496 131.36 53.2566 133.849 53.2644Z" fill="white"/>
<path d="M113.123 433.638C113.123 433.638 114.306 483.547 114.601 491.012C114.897 498.478 119.65 500.509 127.31 501.17C134.969 501.831 138.196 495.785 139.28 490.988C140.363 486.19 146.915 437.26 146.915 437.26L113.123 433.638Z" fill="#FBBEAA"/>
<path d="M162.603 434.845C162.603 434.845 169.117 484.895 170.194 492.346C171.272 499.797 176.193 501.381 183.858 501.208C191.522 501.034 194.044 494.623 194.607 489.697C195.17 484.772 196.395 434.845 196.395 434.845H162.603Z" fill="#FBBEAA"/>
<path d="M182.572 475.905C179.79 475.708 177.032 476.527 174.821 478.207C172.61 479.886 171.1 482.309 170.579 485.016L157.776 497.979V506.047H198.808C198.808 506.047 196.748 491.509 196.159 488.238C195.571 484.967 193.584 475.905 182.572 475.905Z" fill="#FBBEAA"/>
<path d="M170.422 485.255C169.948 484.611 169.275 484.116 168.801 484.413C168.328 484.71 155.737 494.617 155.139 495.112C154.77 495.456 154.492 495.883 154.327 496.358C154.162 496.832 154.115 497.34 154.192 497.836V508.461H200.015C200.015 508.461 198.22 492.759 198.095 491.892C197.971 491.025 197.098 489.886 196.6 489.911C193.454 490.868 190.19 491.385 186.901 491.446C182.53 491.677 178.17 490.826 174.211 488.97C172.744 487.956 171.462 486.699 170.422 485.255Z" fill="#302D3B"/>
<path d="M161.775 499.851C163.945 498.212 171.746 492.007 174.672 489.673L173.989 489.326C173.897 489.285 173.814 489.226 173.745 489.152C170.625 491.634 163.286 497.493 161.19 499.081C159.417 500.464 158.203 502.46 157.776 504.692L158.727 504.84C159.129 502.862 160.21 501.093 161.775 499.851Z" fill="white"/>
<path d="M198.66 497.599C195.464 497.632 192.371 498.744 189.876 500.756C187.621 502.769 186.093 505.479 185.533 508.461H186.865C187.41 505.877 188.759 503.535 190.715 501.775C193.011 499.922 195.866 498.914 198.808 498.917L198.66 497.599Z" fill="white"/>
<path d="M146.378 507.254H199.345C199.715 507.254 200.015 507.59 200.015 508.003V513.746C200.015 514.16 199.715 514.495 199.345 514.495H146.378C146.008 514.495 145.708 514.16 145.708 513.746V508.003C145.708 507.59 146.008 507.254 146.378 507.254Z" fill="white"/>
<path d="M155.158 495.215C154.714 495.036 152.542 495.64 149.714 498.303C148.537 499.468 147.69 500.902 147.253 502.468C146.815 504.034 146.802 505.682 147.215 507.254H161.396C160.602 498.661 155.602 495.394 155.158 495.215Z" fill="white"/>
<path d="M161.201 494.718C161.345 494.928 161.414 495.198 161.393 495.468C161.371 495.738 161.261 495.988 161.086 496.162C161 496.246 160.901 496.31 160.795 496.349C160.688 496.387 160.577 496.401 160.466 496.388C160.355 496.375 160.248 496.337 160.15 496.274C160.051 496.212 159.965 496.127 159.894 496.024L157.971 493.25C157.827 493.04 157.758 492.77 157.78 492.5C157.802 492.229 157.912 491.98 158.087 491.806C158.171 491.718 158.27 491.653 158.377 491.612C158.483 491.571 158.596 491.557 158.707 491.57C158.819 491.583 158.927 491.623 159.025 491.687C159.123 491.751 159.21 491.838 159.279 491.943L161.201 494.718Z" fill="white"/>
<path d="M163.615 493.084C163.759 493.346 163.828 493.683 163.807 494.02C163.785 494.358 163.675 494.669 163.499 494.886C163.415 494.995 163.316 495.077 163.209 495.128C163.102 495.178 162.989 495.196 162.877 495.18C162.766 495.164 162.657 495.115 162.559 495.034C162.46 494.954 162.374 494.845 162.305 494.714L160.378 491.254C160.238 490.988 160.173 490.654 160.194 490.318C160.216 489.983 160.323 489.673 160.494 489.452C160.579 489.343 160.678 489.26 160.784 489.21C160.891 489.159 161.004 489.141 161.116 489.157C161.228 489.174 161.336 489.223 161.434 489.303C161.533 489.383 161.619 489.492 161.688 489.623L163.615 493.084Z" fill="white"/>
<path d="M167.167 490.321C167.357 490.474 167.451 490.673 167.427 490.874C167.403 491.074 167.265 491.26 167.041 491.39C166.81 491.52 166.514 491.581 166.217 491.562C165.92 491.543 165.646 491.444 165.455 491.287L162.938 489.2C162.832 489.129 162.748 489.045 162.69 488.951C162.633 488.858 162.603 488.758 162.603 488.657C162.603 488.555 162.633 488.455 162.69 488.362C162.748 488.269 162.832 488.184 162.938 488.113C163.171 487.988 163.466 487.929 163.761 487.949C164.056 487.968 164.329 488.064 164.524 488.217L167.167 490.321Z" fill="white"/>
<path d="M169.652 488.186C169.722 488.315 169.775 488.465 169.807 488.625C169.84 488.786 169.851 488.955 169.84 489.122C169.83 489.289 169.797 489.451 169.745 489.599C169.693 489.747 169.622 489.879 169.537 489.985C169.376 490.225 169.16 490.359 168.934 490.359C168.709 490.359 168.492 490.225 168.331 489.985L166.418 486.445C166.275 486.178 166.206 485.837 166.228 485.495C166.249 485.153 166.359 484.837 166.533 484.616C166.618 484.51 166.717 484.429 166.822 484.38C166.928 484.331 167.04 484.314 167.15 484.33C167.26 484.347 167.367 484.396 167.465 484.474C167.562 484.553 167.649 484.661 167.719 484.791L169.652 488.186Z" fill="white"/>
<path d="M123.428 475.905C120.644 475.708 117.885 476.527 115.672 478.207C113.46 479.886 111.95 482.309 111.427 485.016L98.6418 497.979V506.047H139.674C139.674 506.047 137.637 491.509 137.023 488.238C136.41 484.967 134.447 475.905 123.428 475.905Z" fill="#FBBEAA"/>
<path d="M112.471 485.255C111.997 484.611 111.348 484.116 110.849 484.413C110.35 484.71 97.7751 494.617 97.2012 495.112C96.6274 495.607 96.2281 496.226 96.2281 497.836V508.461H142.087C142.087 508.461 140.291 492.759 140.166 491.892C140.041 491.025 139.168 489.886 138.669 489.911C135.522 490.868 132.255 491.385 128.963 491.446C124.597 491.681 120.24 490.83 116.288 488.97C114.808 487.961 113.516 486.704 112.471 485.255Z" fill="#302D3B"/>
<path d="M105.054 499.851C107.223 498.212 115.025 492.007 117.951 489.673L117.292 489.326C117.193 489.286 117.102 489.227 117.024 489.152C113.904 491.634 106.565 497.493 104.468 499.081C102.696 500.464 101.482 502.46 101.055 504.692L102.006 504.84C102.42 502.867 103.498 501.102 105.054 499.851Z" fill="white"/>
<path d="M139.539 497.599C136.634 497.632 133.822 498.744 131.554 500.756C129.503 502.769 128.115 505.479 127.606 508.461H128.817C129.318 505.874 130.552 503.531 132.339 501.775C134.416 499.919 137.005 498.91 139.674 498.917L139.539 497.599Z" fill="white"/>
<path d="M89.6572 507.254H142.625C142.995 507.254 143.294 507.59 143.294 508.003V513.746C143.294 514.16 142.995 514.495 142.625 514.495H89.6572C89.2873 514.495 88.9874 514.16 88.9874 513.746V508.003C88.9874 507.59 89.2873 507.254 89.6572 507.254Z" fill="white"/>
<path d="M97.9178 495.215C97.4369 495.036 95.0829 495.64 92.0203 498.303C90.7451 499.468 89.8272 500.902 89.3533 502.468C88.8794 504.034 88.8652 505.682 89.312 507.254H104.676C103.815 498.661 98.3987 495.394 97.9178 495.215Z" fill="white"/>
<path d="M103.209 494.718C103.401 494.928 103.493 495.198 103.464 495.468C103.435 495.738 103.288 495.988 103.054 496.162C102.94 496.246 102.808 496.31 102.665 496.349C102.523 496.387 102.374 496.401 102.226 496.388C102.078 496.375 101.934 496.337 101.803 496.274C101.672 496.212 101.556 496.127 101.462 496.024L98.8927 493.25C98.7064 493.038 98.6186 492.769 98.6473 492.501C98.6759 492.232 98.819 491.983 99.0469 491.806C99.1601 491.718 99.2919 491.653 99.4344 491.612C99.577 491.571 99.7273 491.557 99.8763 491.57C100.025 491.583 100.17 491.623 100.301 491.687C100.432 491.751 100.547 491.838 100.64 491.943L103.209 494.718Z" fill="white"/>
<path d="M105.687 493.081C105.831 493.344 105.9 493.68 105.878 494.018C105.857 494.356 105.746 494.668 105.571 494.885C105.486 494.995 105.387 495.077 105.28 495.128C105.174 495.178 105.061 495.196 104.949 495.18C104.837 495.164 104.729 495.114 104.631 495.034C104.532 494.954 104.446 494.845 104.377 494.713L102.45 491.247C102.31 490.982 102.244 490.646 102.266 490.311C102.287 489.975 102.395 489.664 102.566 489.442C102.742 489.228 102.969 489.125 103.196 489.158C103.423 489.19 103.633 489.354 103.779 489.614L105.687 493.081Z" fill="white"/>
<path d="M109.161 490.323C109.27 490.392 109.356 490.475 109.414 490.567C109.473 490.658 109.503 490.757 109.503 490.857C109.503 490.956 109.473 491.055 109.414 491.147C109.356 491.239 109.27 491.322 109.161 491.391C108.924 491.52 108.619 491.581 108.314 491.562C108.008 491.543 107.726 491.444 107.529 491.287L104.939 489.203C104.745 489.045 104.652 488.843 104.681 488.64C104.71 488.436 104.859 488.249 105.094 488.118C105.21 488.055 105.343 488.007 105.487 487.978C105.63 487.949 105.781 487.939 105.93 487.948C106.079 487.958 106.224 487.987 106.356 488.034C106.488 488.081 106.605 488.145 106.701 488.222L109.161 490.323Z" fill="white"/>
<path d="M111.66 488.186C111.754 488.315 111.825 488.465 111.868 488.625C111.911 488.786 111.926 488.955 111.912 489.122C111.898 489.289 111.854 489.451 111.785 489.599C111.716 489.747 111.621 489.879 111.507 489.985C111.293 490.225 111.004 490.359 110.703 490.359C110.403 490.359 110.114 490.225 109.9 489.985L107.349 486.445C107.157 486.178 107.066 485.837 107.095 485.495C107.124 485.153 107.27 484.837 107.502 484.616C107.616 484.51 107.747 484.429 107.888 484.38C108.029 484.331 108.177 484.314 108.324 484.33C108.471 484.347 108.614 484.396 108.744 484.474C108.874 484.553 108.99 484.661 109.083 484.791L111.66 488.186Z" fill="white"/>
<path d="M192.573 327.732C192.982 330.919 192.767 334.156 191.939 337.257C191.112 340.359 189.688 343.262 187.751 345.8C185.814 348.338 183.401 350.459 180.654 352.042C177.906 353.625 174.877 354.637 171.742 355.021C168.607 355.404 165.429 355.151 162.391 354.277C159.353 353.402 156.515 351.922 154.042 349.924C151.57 347.926 149.51 345.449 147.984 342.635C146.458 339.822 145.495 336.729 145.151 333.534C145.151 333.534 132.718 244.65 129.77 226.693C126.821 208.736 129.942 193.706 149.697 189.429C170.189 185.002 182.99 200.283 184.538 215.589C186.086 230.895 192.573 327.732 192.573 327.732Z" fill="#013EA5"/>
<path d="M152.649 329.441C152.728 335.872 150.247 342.07 145.752 346.673C141.256 351.276 135.114 353.906 128.676 353.986C122.239 354.065 116.034 351.587 111.426 347.096C106.818 342.605 104.184 336.47 104.105 330.04C104.105 330.04 101.033 240.543 99.9844 222.41C98.9356 204.276 103.68 189.734 124.107 187.639C145.282 185.469 156.569 202.006 156.569 217.371C156.569 232.736 152.649 329.441 152.649 329.441Z" fill="#013EA5"/>
<path d="M152.949 329.638C152.909 326.457 152.229 323.315 150.949 320.392C149.668 317.468 147.813 314.82 145.487 312.599C143.161 310.378 140.412 308.627 137.395 307.446C134.378 306.265 131.153 305.677 127.904 305.716C124.656 305.756 121.447 306.421 118.46 307.675C115.474 308.928 112.77 310.745 110.501 313.022C108.232 315.299 106.443 317.991 105.237 320.944C104.031 323.898 103.431 327.055 103.471 330.236L108.561 458.39L148.495 462.602L152.949 329.638Z" fill="#013EA5"/>
<path d="M192.488 328.101C191.664 321.745 188.391 315.973 183.38 312.04C178.368 308.107 172.022 306.33 165.72 307.095C159.419 307.861 153.671 311.106 149.724 316.126C145.778 321.147 143.953 327.537 144.644 333.909L163.311 461.395H202.428L192.488 328.101Z" fill="#013EA5"/>
<path d="M145.708 332.265L163.811 460.188" stroke="#013EA5" stroke-width="0.75" stroke-miterlimit="10" stroke-linecap="round"/>
<path d="M144.501 333.471C144.501 333.471 131.82 245.12 128.812 227.271" stroke="#F5F5F5" stroke-width="0.75" stroke-miterlimit="10" stroke-linecap="round"/>
<path d="M102.262 198.307C102.262 198.307 102.262 223.489 102.262 224.874C102.262 226.258 114.369 238.132 130.447 238.132C155.168 238.132 184.757 229.075 184.321 223.174C184.031 219.288 183.668 198.307 183.668 198.307H102.262Z" fill="#013EA5"/>
<path d="M27.7628 94.9942L39.4655 168.458C41.3964 177.674 38.4122 186.012 27.7628 187.475C25.797 187.731 23.7997 187.585 21.8921 187.045C19.9845 186.506 18.2065 185.584 16.666 184.337C15.1255 183.089 13.8547 181.541 12.9308 179.787C12.0068 178.033 11.449 176.11 11.2911 174.134L7.72181 95.1405C6.78559 87.68 10.033 82.7064 15.7089 82.092C22.672 81.3313 26.3584 85.4565 27.7628 94.9942Z" fill="#FBBEAA"/>
<path d="M18.2536 160.325L102.279 96.4862C112.08 90.2252 118.751 93.5605 123.958 100.26C126.337 103.503 127.439 107.507 127.056 111.51C126.673 115.514 124.831 119.236 121.881 121.969L38.0604 183.73C35.1066 186.225 31.3041 187.483 27.4452 187.244C23.5863 187.004 19.9688 185.284 17.3466 182.443L16.9663 182.033C15.5745 180.548 14.4999 178.796 13.808 176.882C13.1161 174.968 12.8213 172.934 12.9418 170.902C13.0622 168.871 13.5954 166.885 14.5086 165.066C15.4219 163.248 16.6961 161.634 18.2536 160.325Z" fill="#FBBEAA"/>
<path d="M27.4128 93.0334C27.2922 90.397 27.998 87.7888 29.4316 85.5729C31.6387 83.0137 33.2923 80.0254 34.2882 76.7959C35.0543 73.7981 36.278 70.9363 37.9161 68.3113C39.0864 66.7022 40.8418 65.3857 40.8418 64.1569C40.8418 62.9281 38.5012 60.5583 35.166 61.2312C33.7373 61.6763 32.4247 62.4316 31.3221 63.4432C30.2195 64.4548 29.3541 65.6975 28.7879 67.0826C28.4684 66.2387 28.2809 65.3506 28.2321 64.4495L27.5007 46.5151C27.4896 46.0501 27.3854 45.5921 27.1944 45.1681C27.0033 44.7441 26.7292 44.3627 26.3883 44.0463C26.0474 43.73 25.6466 43.4851 25.2096 43.3263C24.7725 43.1674 24.308 43.0977 23.8436 43.1213C23.1041 43.1528 22.3931 43.4153 21.8106 43.8719C21.2281 44.3284 20.8033 44.9561 20.596 45.6666V44.8474C20.4835 43.9756 20.0454 43.1786 19.3695 42.6164C18.6937 42.0543 17.8302 41.7686 16.9524 41.8167C16.0747 41.8649 15.2476 42.2433 14.6373 42.876C14.027 43.5087 13.6787 44.3488 13.6622 45.2278V47.7146C13.3692 46.9479 12.8104 46.312 12.0877 45.9228C11.3651 45.5337 10.5267 45.4171 9.72525 45.5944C8.92385 45.7717 8.21284 46.231 7.72179 46.8887C7.23075 47.5464 6.99237 48.3587 7.05011 49.1774V50.7573C6.73521 50.2039 6.26593 49.7542 5.69958 49.4632C5.13324 49.1723 4.49438 49.0526 3.86112 49.1189C2.99392 49.2289 2.20366 49.6722 1.65757 50.3548C1.11149 51.0374 0.852467 51.9058 0.935436 52.776L2.36899 67.9018C3.30811 76.4295 5.07183 84.8461 7.63528 93.0334C7.66627 94.4004 7.98297 95.7458 8.565 96.9831C9.14703 98.2204 9.98149 99.3223 11.0148 100.218C12.0481 101.113 13.2574 101.783 14.5648 102.183C15.8723 102.583 17.249 102.705 18.6066 102.542C19.8351 102.583 21.0581 102.359 22.1925 101.886C23.327 101.413 24.3464 100.701 25.1817 99.7992C26.0169 98.8974 26.6485 97.8265 27.0335 96.6591C27.4184 95.4917 27.5478 94.2552 27.4128 93.0334Z" fill="#FBBEAA"/>
<path d="M109.215 91.9218L36.5007 140.963C36.8066 143.472 30.914 91.9218 30.914 91.9218L4.00003 94.4339C4.00003 94.4339 5.57237 146.918 9.53307 174.636C11.1049 185.636 20.261 189.808 31.1176 187.439C36.4778 186.27 41.524 184.07 46.0146 180.918C65.3109 167.374 119.446 129.225 123.872 124.426C131.508 116.146 131.508 109.944 127.12 103.127C122.731 96.3103 113.34 90.8978 109.215 91.9218Z" fill="#013EA5"/>
<path d="M26.8276 69.6283C27.9393 69.6283 28.027 68.9262 28.5244 67.6389C26.0376 67.6389 18.8112 68.107 15.6514 74.1924C18.8404 69.8039 24.9551 69.6283 26.8276 69.6283ZM21.1517 46.4862C21.1517 46.4862 21.3273 47.5102 21.5028 49.0023C21.5028 49.763 21.6784 50.6699 21.7369 51.6061C21.7954 52.5423 21.8831 53.5663 21.9709 54.5318C21.9709 56.5798 22.1172 58.5985 22.1172 60.1199C22.1172 61.6412 22.1172 62.6652 22.1172 62.6652C22.1173 62.7139 22.1074 62.7621 22.088 62.8067C22.0685 62.8513 22.04 62.8914 22.0042 62.9244C21.9685 62.9574 21.9262 62.9827 21.8802 62.9985C21.8342 63.0143 21.7854 63.0203 21.7369 63.0162C21.6546 63.0121 21.5758 62.9813 21.5124 62.9286C21.4491 62.8758 21.4047 62.804 21.3857 62.7238C21.3857 62.7238 21.2102 61.6997 21.064 60.1783C20.9177 58.657 20.6836 56.6383 20.5958 54.6196C20.5958 53.5956 20.5958 52.5716 20.5958 51.6939C20.5958 50.8162 20.5958 49.8507 20.5958 49.0901C20.5958 47.5394 20.5958 46.5446 20.5958 46.5446C20.5957 46.496 20.6056 46.4478 20.625 46.4032C20.6445 46.3586 20.673 46.3185 20.7088 46.2854C20.7445 46.2524 20.7868 46.2272 20.8328 46.2114C20.8788 46.1956 20.9277 46.1895 20.9762 46.1936C21.0323 46.2258 21.0783 46.273 21.1093 46.3298C21.1403 46.3866 21.155 46.4508 21.1517 46.5154V46.4862ZM14.3641 48.5342C14.3641 48.5342 14.5397 49.4118 14.7445 50.6991C14.7445 51.3721 14.9493 52.1327 15.0371 52.9519C15.1248 53.7711 15.2126 54.6488 15.3004 55.5265C15.3004 57.2819 15.5051 59.0373 15.5344 60.3539C15.5636 61.6704 15.5344 62.5774 15.5344 62.5774C15.5307 62.6236 15.5179 62.6685 15.4968 62.7097C15.4756 62.7509 15.4466 62.7876 15.4113 62.8175C15.3759 62.8474 15.3349 62.8701 15.2908 62.8841C15.2467 62.8981 15.2002 62.9033 15.1541 62.8993C15.0754 62.8938 15.0008 62.8619 14.9424 62.8088C14.884 62.7558 14.8452 62.6845 14.8322 62.6067C14.8322 62.6067 14.6567 61.7289 14.4519 60.4416C14.2471 59.1543 14.0716 57.3697 13.9253 55.6436C13.9253 54.7659 13.9253 53.8881 13.7498 53.0689C13.5742 52.2498 13.7498 51.4598 13.7498 50.7869C13.7498 49.4704 13.7498 48.5927 13.7498 48.5927C13.7496 48.544 13.7595 48.4958 13.7789 48.4512C13.7984 48.4066 13.8269 48.3665 13.8627 48.3335C13.8985 48.3004 13.9407 48.2753 13.9867 48.2594C14.0327 48.2436 14.0816 48.2375 14.1301 48.2416C14.195 48.2684 14.2512 48.3126 14.2925 48.3694C14.3338 48.4262 14.3586 48.4933 14.3641 48.5634V48.5342ZM7.81062 51.3135C7.81062 51.3135 7.98611 52.045 8.22017 53.1567C8.22017 53.6833 8.45427 54.327 8.54204 55.0292C8.62981 55.7314 8.7468 56.4627 8.86382 57.1942C9.06862 58.6863 9.15647 60.1198 9.21498 61.2901C9.27349 62.4604 9.21498 63.1626 9.21498 63.1626C9.21515 63.2113 9.20514 63.2594 9.18569 63.304C9.16625 63.3486 9.13771 63.3888 9.10194 63.4218C9.06618 63.4548 9.02396 63.48 8.97793 63.4958C8.9319 63.5116 8.88313 63.5177 8.83463 63.5137C8.75993 63.5098 8.68841 63.4821 8.63052 63.4347C8.57263 63.3874 8.53135 63.3228 8.51275 63.2504C8.51275 63.2504 8.308 62.5189 8.1032 61.4364C7.89841 60.3539 7.60581 58.8325 7.43027 57.3697C7.43027 56.609 7.28396 55.8776 7.22545 55.1754C7.16693 54.4733 7.22545 53.8296 7.22545 53.2738C7.22545 52.162 7.22545 51.4013 7.22545 51.4013C7.22528 51.3526 7.23529 51.3045 7.25473 51.2599C7.27418 51.2152 7.30263 51.1751 7.33839 51.1421C7.37416 51.1091 7.41647 51.0839 7.4625 51.0681C7.50853 51.0523 7.55729 51.0462 7.6058 51.0502C7.65981 51.0804 7.70631 51.1223 7.74178 51.173C7.77725 51.2237 7.80079 51.2817 7.81062 51.3428V51.3135Z" fill="#F18380"/>
<path d="M35.9316 135.033L34.5632 124.085L5.36829 126.366L5.82446 137.314L35.9316 135.033Z" fill="#CFD1CE"/>
<path d="M120.819 85.0361C120.819 85.0361 103.154 95.2362 100.397 97.0212C97.6404 98.8062 94.5261 101.56 95.0877 109.006C95.6493 116.452 98.0234 216.685 98.0234 216.685C107.09 218.22 133.64 218.22 133.64 218.22H136.053H137.864H140.277H142.088H143.898C143.898 218.22 183.259 214.875 184.05 214.416C184.841 213.957 185.582 213.472 185.531 212.605C185.48 211.738 184.969 109.848 184.637 105.36C184.572 102.956 183.814 100.622 182.456 98.6373C181.098 96.6522 179.197 95.0996 176.979 94.1652C171.644 91.7937 151.605 83.6591 151.605 83.6591L134.774 85.0361H120.819Z" fill="#034CC9"/>
<path d="M120.819 85.0361C120.819 85.0361 103.154 95.2362 100.397 97.0212C97.6404 98.8062 94.5261 101.56 95.0877 109.006C95.6493 116.452 98.0234 216.685 98.0234 216.685C107.09 218.22 121.572 218.22 121.572 218.22H123.985H125.795H128.209H130.019H131.83C131.83 218.22 128.952 214.875 129.743 214.416C130.534 213.957 131.275 213.472 131.224 212.605C131.173 211.738 130.662 109.848 130.33 105.36C130.264 102.956 129.507 100.622 128.149 98.6373C126.791 96.6522 124.89 95.0996 122.672 94.1652C117.337 91.7937 151.605 83.6591 151.605 83.6591L134.774 85.0361H120.819Z" fill="#0045BA"/>
<path d="M118.815 85.1831C118.815 85.1831 99.2849 96.4719 96.2369 98.4474C93.1889 100.423 95.6247 104.778 95.6247 112.623C95.6247 122.881 97.4349 123.484 97.4349 123.484C103.542 126.78 106.214 124.209 112.944 125.899C116.218 126.266 118.758 126.35 120.959 124.205C123.161 122.061 130.019 122.881 130.019 122.881C130.019 122.881 140.348 121.524 145.174 124.205C146.328 125.01 147.633 125.575 149.01 125.866C150.386 126.157 151.469 126.135 152.85 125.866C159.849 124.427 187.846 116.388 188.721 115.88C189.596 115.372 190.414 114.836 190.358 113.876C190.301 112.917 189.737 112.643 189.37 107.676C189.297 105.016 188.46 102.433 186.959 100.236C185.457 98.039 183.355 96.3207 180.903 95.2866C175.005 92.6619 152.85 83.6591 152.85 83.6591L134.243 84.2625L118.815 85.1831Z" fill="#9A99A1"/>
<path d="M132.638 80.9396C141.032 80.9396 148.604 77.2903 151.341 75.4656V83.6766C151.037 84.1328 148.696 85.5925 141.762 87.7821C134.828 89.9717 124.884 89.1506 120.778 87.7821V79.5711C120.778 80.0273 122.147 80.9396 132.638 80.9396Z" fill="#034CC9"/>
<path d="M132.182 217.79C129.851 217.008 127.811 215.501 126.341 213.476C124.871 211.45 124.044 209.005 123.971 206.475V81.3957H132.182V217.79Z" fill="#034CC9"/>
<path d="M95.6248 126.556H137.01V117.433L95.6248 117.45C95.6248 121.674 95.6248 122.881 95.6248 126.556Z" fill="#D3D4D2"/>
<path d="M170.468 117.433H128.799V126.556H171.322C170.767 122.451 170.468 120.626 170.468 117.433Z" fill="#CFD1CE"/>
<g style="mix-blend-mode:multiply" opacity="0.4">
<path d="M133.095 88.9637L132.182 89.1506V217.79H133.095V88.9637Z" fill="#013FA9"/>
</g>
<path d="M187.777 100.292C194.163 108.503 231.113 208.86 231.113 208.86C196.9 197.912 200.11 168.324 181.503 171.455C181.503 171.455 160.046 121.093 159.227 116.587C158.372 113.035 158.756 109.298 160.315 105.994C161.874 102.69 164.514 100.017 167.799 98.4187C176.957 93.7376 181.39 92.081 187.777 100.292Z" fill="#0045BA"/>
<path d="M169.409 147.716C164.231 142.479 154.547 131.186 151.27 128.436C148.03 125.994 144.49 123.979 140.738 122.438C137.891 121.484 134.947 120.847 131.961 120.536C129.883 120.273 129.035 120.887 129.035 122.145C129.087 122.895 129.326 123.619 129.73 124.253C130.133 124.887 130.689 125.409 131.346 125.773H127.514C126.197 125.773 125.349 126.827 125.963 128.523C126.521 129.645 127.319 130.629 128.299 131.408C129.28 132.186 130.42 132.74 131.639 133.029C131.639 133.029 126.46 133.526 125.144 133.79C123.827 134.053 123.418 134.55 123.418 135.808C123.429 136.677 123.671 137.528 124.118 138.273C124.565 139.018 125.202 139.632 125.963 140.051C127.827 140.807 129.805 141.242 131.814 141.338C131.814 141.338 125.407 142.947 124.12 143.415C122.833 143.883 122.686 144.732 123.359 145.843C123.743 146.627 124.296 147.314 124.98 147.856C125.663 148.397 126.459 148.779 127.309 148.974C129.737 149.618 131.375 148.564 132.253 148.711C134.139 149.318 135.986 150.041 137.783 150.876C140.481 153.562 143.781 155.568 147.408 156.727C150.108 157.86 152.585 159.465 154.722 161.467C155.718 162.401 156.891 163.126 158.172 163.599C159.452 164.072 160.815 164.284 162.179 164.221C163.543 164.158 164.88 163.823 166.112 163.234C167.344 162.645 168.445 161.815 169.351 160.794C174.032 155.82 173.242 151.666 169.409 147.716Z" fill="#FBBEAA"/>
<path d="M152.196 165.524L199.295 218.486C204.939 226.008 218.127 230.142 226.185 223.173C227.676 221.868 228.885 220.273 229.74 218.486C230.596 216.699 231.079 214.757 231.161 212.777C231.244 210.798 230.923 208.822 230.219 206.971C229.515 205.119 228.441 203.429 227.065 202.005L169.987 142.26L152.196 165.524Z" fill="#0045BA"/>
<path d="M131.989 125.803C131.981 125.851 131.983 125.9 131.995 125.948C132.007 125.996 132.029 126.04 132.059 126.079C132.089 126.117 132.128 126.149 132.171 126.172C132.214 126.195 132.262 126.209 132.311 126.212L134.71 126.446H135.88C136.29 126.446 136.67 126.592 137.08 126.622C137.513 126.751 137.933 126.918 138.338 127.119L139.684 127.675C141.498 128.406 143.312 129.079 144.657 129.577C146.003 130.074 146.939 130.367 146.939 130.367C147.014 130.398 147.097 130.4 147.173 130.373C147.248 130.346 147.311 130.291 147.349 130.22C147.404 130.149 147.433 130.061 147.433 129.972C147.433 129.882 147.404 129.794 147.349 129.723L145.155 128.582L142.873 127.499C142.054 127.119 141.147 126.739 140.24 126.388L138.865 125.861C138.422 125.661 137.962 125.504 137.489 125.393L136.085 125.247H134.886H133.101H132.428C132.354 125.188 132.26 125.162 132.167 125.173C132.074 125.184 131.989 125.231 131.931 125.305C131.872 125.379 131.846 125.473 131.857 125.566C131.868 125.659 131.915 125.744 131.989 125.803ZM132.545 132.853H133.072C133.51 132.814 133.95 132.814 134.388 132.853L135.295 133C135.63 133.041 135.962 133.1 136.29 133.175L138.279 133.819C139.625 134.258 140.942 134.814 141.936 135.223C141.936 135.223 142.258 135.223 142.229 135.369H142.58L143.107 135.516H143.429H143.604C143.692 135.537 143.769 135.591 143.818 135.668C143.867 135.744 143.885 135.836 143.867 135.925C143.855 135.995 143.819 136.059 143.766 136.107C143.713 136.155 143.646 136.183 143.575 136.189H142.083H141.615C140.591 135.925 139.216 135.516 137.87 135.048L135.91 134.316L135.003 134.082L134.213 133.848C133.809 133.729 133.398 133.631 132.984 133.556L132.486 133.409C132.442 133.396 132.401 133.374 132.365 133.345C132.33 133.315 132.3 133.279 132.278 133.238C132.257 133.198 132.243 133.153 132.239 133.107C132.234 133.061 132.239 133.015 132.252 132.97C132.287 132.927 132.332 132.894 132.383 132.874C132.435 132.853 132.49 132.846 132.545 132.853ZM132.545 141.162H133.628C133.92 141.162 134.3 141.162 134.681 141.367L135.88 141.747C136.635 142.013 137.369 142.336 138.075 142.713C138.399 142.865 138.712 143.041 139.011 143.24C139.07 143.309 139.103 143.397 139.103 143.488C139.103 143.58 139.07 143.668 139.011 143.737C138.927 143.826 138.811 143.878 138.689 143.883L137.606 143.708C136.992 143.561 136.202 143.327 135.412 143.064L134.271 142.596L133.276 142.216C132.945 142.069 132.623 141.903 132.311 141.718C132.228 141.669 132.167 141.591 132.14 141.498C132.113 141.406 132.122 141.307 132.165 141.221C132.251 141.165 132.356 141.144 132.457 141.162H132.545Z" fill="#F18380"/>
<path d="M207.849 179.21L198.269 171.455L179.11 195.632L186.865 204.755L207.849 179.21Z" fill="#CFD1CE"/>
<path d="M140.947 109.788L141.713 109.795L141.704 110.753L142.522 110.761L142.531 109.804L143.298 109.812L143.271 112.427L142.505 112.419L142.515 111.383L141.697 111.375L141.686 112.411L140.92 112.403L140.947 109.788L140.947 109.788ZM146.034 109.84L146.007 112.455L145.266 112.447L145.287 110.452L144.801 110.447L144.794 111.198C144.79 111.535 144.76 111.948 144.554 112.179C144.347 112.436 143.962 112.51 143.529 112.427L143.536 111.779C143.943 111.861 144.048 111.706 144.053 111.188L144.067 109.815L146.034 109.835L146.034 109.84ZM146.674 109.846L147.441 109.854L147.858 111.412L148.308 109.863L149.074 109.871L149.406 112.49L148.691 112.483L148.527 111.082L148.103 112.476L147.592 112.471L147.198 111.068L147.006 112.465L146.291 112.458L146.674 109.846L146.674 109.846ZM149.714 109.878L150.481 109.886L150.47 110.947L151.222 109.893L152.066 109.902L151.082 111.186L152.065 112.517L151.146 112.508L150.468 111.439L150.457 112.501L149.69 112.493L149.717 109.878L149.715 109.878L149.714 109.878ZM146.445 107.046C141.845 106.998 138.785 108.651 138.759 111.136C138.734 113.596 141.757 115.336 146.359 115.383C150.984 115.43 154.019 113.751 154.044 111.293C154.07 108.808 151.072 107.093 146.445 107.046ZM146.363 114.996C142.042 114.951 139.172 113.394 139.195 111.14C139.219 108.862 142.123 107.388 146.441 107.433C150.785 107.477 153.634 109.008 153.611 111.288C153.587 113.543 150.709 115.04 146.363 114.996ZM146.437 107.796C142.374 107.754 139.65 109.1 139.629 111.145C139.608 113.19 142.304 114.591 146.367 114.632C150.429 114.674 153.154 113.329 153.175 111.284C153.198 109.239 150.502 107.838 146.437 107.796ZM146.368 114.556C142.354 114.515 139.686 113.141 139.707 111.148C139.727 109.155 142.425 107.836 146.436 107.877C150.447 107.918 153.118 109.293 153.097 111.285C153.079 113.278 150.381 114.598 146.368 114.556L146.368 114.556Z" fill="white"/>
</svg>
