<svg width="231" height="515" viewBox="0 0 231 515" fill="none" xmlns="http://www.w3.org/2000/svg">
<path d="M141.621 507.551H89.0014C88.6339 507.551 88.3359 507.884 88.3359 508.295V514C88.3359 514.411 88.6339 514.744 89.0014 514.744H141.621C141.988 514.744 142.286 514.411 142.286 514V508.295C142.286 507.884 141.988 507.551 141.621 507.551Z" fill="white"/>
<path d="M124.245 82.2265C123.52 82.2265 121.979 82.2265 120.62 82.6796C120.62 83.7672 123.037 84.6434 124.245 84.9455C124.547 84.0391 124.97 82.2265 124.245 82.2265Z" fill="#013FA9"/>
<g clip-path="url(#clip0_203_571)">
<path d="M121.913 62.2286H150.985V95.7525H121.913V62.2286Z" fill="#FBBEAA"/>
<path d="M150.913 62.2286H121.938V80.9319C123.203 81.086 124.477 81.1651 125.753 81.1687C135.749 81.1687 146.929 78.4934 151.01 69.1417L150.913 62.2286Z" fill="#F18380"/>
<path d="M106.894 37.3465C107.135 47.0296 106.894 54.6767 108.681 62.0633C110.468 69.4499 115.925 75.4871 127.998 75.4871C140.071 75.4871 153.834 71.628 154.8 56.8311C156.78 54.724 159.991 47.219 160.112 38.8144C160.233 30.4097 159.557 12.6298 140.023 9.90713C120.488 7.1845 106.363 14.216 106.894 37.3465Z" fill="#FBBEAA"/>
<path d="M117.107 44.9694C117.107 46.2715 116.311 47.3369 115.321 47.3369C114.331 47.3369 113.534 46.2715 113.534 44.9694C113.534 43.6673 114.331 42.6019 115.321 42.6019C116.311 42.6019 117.107 43.5726 117.107 44.9694Z" fill="#403D4F"/>
<path d="M138.84 44.9694C138.84 46.2715 138.043 47.3369 137.053 47.3369C136.063 47.3369 135.266 46.2715 135.266 44.9694C135.266 43.6673 136.063 42.6019 137.053 42.6019C138.043 42.6019 138.84 43.5726 138.84 44.9694Z" fill="#403D4F"/>
<path d="M134.469 40.0451C134.638 40.2582 135.918 40.0451 136.883 40.0451C137.849 40.0451 139.708 40.0451 139.708 39.8321C139.708 39.619 138.791 38.1511 136.376 38.4116C134.638 38.601 134.01 39.6663 134.469 40.0451Z" fill="#403D4F"/>
<path d="M117.518 40.0451C117.373 40.2582 116.286 40.0451 115.441 40.0451C114.596 40.0451 113.027 40.0451 113.027 39.832C113.243 39.2954 113.653 38.8549 114.177 38.5934C114.702 38.3318 115.306 38.2671 115.876 38.4115C117.373 38.6009 117.783 39.6663 117.518 40.0451Z" fill="#403D4F"/>
<path d="M124.641 54.7713C122.951 54.7713 121.599 53.6822 121.551 52.9009L122.106 46.2246C122.124 46.0591 122.208 45.9072 122.339 45.8011C122.469 45.695 122.637 45.6431 122.806 45.6564C122.889 45.6623 122.969 45.6843 123.043 45.7209C123.117 45.7575 123.183 45.808 123.237 45.8696C123.291 45.9312 123.331 46.0027 123.357 46.0798C123.383 46.157 123.392 46.2384 123.386 46.3193L122.855 52.7589C123.099 53.0184 123.399 53.221 123.733 53.3521C124.067 53.4832 124.427 53.5394 124.786 53.5165C124.871 53.51 124.956 53.5204 125.036 53.547C125.116 53.5735 125.19 53.6157 125.253 53.671C125.316 53.7263 125.367 53.7936 125.403 53.8687C125.439 53.9439 125.459 54.0254 125.462 54.1084C125.463 54.2763 125.398 54.4381 125.282 54.5611C125.165 54.6842 125.005 54.7593 124.835 54.7713H124.641Z" fill="#F18380"/>
<path d="M150.811 50.4622C153.459 50.1498 155.16 48.0947 155.641 45.7271C156.121 43.3596 157.627 44.5434 160.47 44.5434C163.313 44.5434 164.766 39.0627 165.66 34.8934C166.823 29.4708 165.092 23.1228 163.386 20.8808C167.934 16.9572 165.66 3.50507 164.523 7.9891C163.613 11.5763 160.353 13.2205 158.837 13.5942C154.289 -2.99684 136.474 -0.0448153 128.134 3.50507C121.312 0.814631 115.436 4.62609 113.352 6.86812C103.117 3.50508 98.5689 7.98913 96.2946 10.2312C94.0203 12.4732 91.1775 25.3648 100.843 30.9699C108.576 35.454 119.985 31.7173 124.723 29.2884C130.181 33.7724 137.611 32.2778 140.643 30.9699C141.098 33.6603 146.312 37.5091 148.397 39.938C150.482 42.3668 149.604 50.6046 150.811 50.4622Z" fill="#F3E8AE"/>
<path d="M154.269 49.4677C154.389 46.7688 154.824 42.7913 158.736 42.6966C162.647 42.6019 163.155 45.4903 163.034 50.0359C162.913 54.5815 158.205 58.4406 154.076 56.878L154.269 49.4677Z" fill="#FBBEAA"/>
<path d="M160.015 52.7351C159.846 52.7061 159.695 52.6128 159.596 52.4753C159.496 52.3379 159.456 52.1675 159.484 52.0012C159.484 51.8675 159.445 51.7367 159.373 51.6236C159.3 51.5105 159.196 51.4198 159.074 51.3619C158.827 51.2001 158.537 51.1137 158.241 51.1137C157.944 51.1137 157.654 51.2001 157.408 51.3619C157.3 51.42 157.18 51.4504 157.057 51.4504C156.935 51.4504 156.815 51.42 156.707 51.3619C156.609 51.2982 156.53 51.2095 156.479 51.1053C156.428 51.001 156.407 50.8852 156.418 50.7701C156.756 46.9584 159.243 46.2481 159.339 46.2244C159.422 46.1995 159.509 46.1915 159.594 46.2009C159.68 46.2103 159.763 46.237 159.838 46.2792C159.912 46.3214 159.977 46.3783 160.029 46.4462C160.08 46.5142 160.117 46.5918 160.136 46.6743C160.181 46.8312 160.16 46.9991 160.078 47.1411C159.997 47.2832 159.861 47.3877 159.701 47.4319C159.219 47.646 158.799 47.9746 158.478 48.3879C158.158 48.8012 157.948 49.2863 157.866 49.7994C158.528 49.6937 159.206 49.8284 159.774 50.1782C160.105 50.3683 160.372 50.6485 160.543 50.9847C160.715 51.3209 160.783 51.6987 160.74 52.0722C160.744 52.1644 160.727 52.2564 160.692 52.3419C160.656 52.4273 160.602 52.5042 160.533 52.5672C160.464 52.6302 160.382 52.6778 160.293 52.7068C160.204 52.7358 160.109 52.7454 160.015 52.7351Z" fill="#F18380"/>
<path d="M126.307 63.2939C128.638 63.2057 130.876 62.3745 132.682 60.9264" stroke="#73102A" stroke-width="0.5" stroke-miterlimit="10" stroke-linecap="round"/>
</g>
<path d="M113.016 434.419C113.016 434.419 114.19 484 114.484 491.416C114.777 498.832 119.499 500.851 127.109 501.507C134.718 502.164 137.923 496.158 139 491.392C140.076 486.626 146.584 438.018 146.584 438.018L113.016 434.419Z" fill="#FBBEAA"/>
<path d="M162.17 435.618C162.17 435.618 168.64 485.339 169.711 492.741C170.781 500.143 175.67 501.716 183.284 501.544C190.898 501.372 193.404 495.003 193.963 490.11C194.523 485.216 195.739 435.618 195.739 435.618H162.17Z" fill="#FBBEAA"/>
<path d="M182.007 476.409C179.243 476.213 176.503 477.026 174.307 478.695C172.11 480.363 170.611 482.77 170.092 485.459L157.374 498.337V506.352H198.136C198.136 506.352 196.09 491.91 195.505 488.66C194.92 485.411 192.947 476.409 182.007 476.409Z" fill="#FBBEAA"/>
<path d="M169.937 485.697C169.466 485.057 168.797 484.565 168.327 484.86C167.856 485.155 155.349 494.997 154.754 495.489C154.388 495.83 154.111 496.255 153.947 496.726C153.783 497.198 153.737 497.702 153.813 498.195V508.75H199.335C199.335 508.75 197.552 493.151 197.428 492.29C197.305 491.429 196.438 490.297 195.942 490.322C192.818 491.273 189.575 491.786 186.308 491.847C181.965 492.076 177.634 491.231 173.701 489.387C172.243 488.38 170.97 487.132 169.937 485.697Z" fill="#302D3B"/>
<path d="M161.347 500.197C163.502 498.569 171.253 492.404 174.159 490.086L173.481 489.74C173.39 489.7 173.307 489.642 173.239 489.568C170.139 492.034 162.848 497.854 160.766 499.432C159.005 500.806 157.799 502.788 157.375 505.005L158.319 505.153C158.719 503.188 159.792 501.431 161.347 500.197Z" fill="white"/>
<path d="M154.774 495.591C154.333 495.413 152.174 496.013 149.366 498.659C148.196 499.816 147.354 501.241 146.92 502.797C146.485 504.353 146.472 505.989 146.882 507.551H160.971C160.182 499.015 155.215 495.769 154.774 495.591Z" fill="white"/>
<path d="M160.777 495.097C160.92 495.306 160.988 495.574 160.967 495.843C160.945 496.111 160.836 496.359 160.662 496.532C160.577 496.616 160.479 496.679 160.373 496.717C160.267 496.756 160.156 496.769 160.046 496.756C159.936 496.744 159.83 496.705 159.732 496.643C159.634 496.581 159.548 496.497 159.478 496.395L157.568 493.639C157.425 493.43 157.356 493.163 157.378 492.894C157.399 492.625 157.509 492.378 157.682 492.205C157.767 492.118 157.865 492.052 157.971 492.012C158.077 491.972 158.188 491.957 158.299 491.97C158.41 491.983 158.517 492.022 158.615 492.086C158.712 492.15 158.798 492.237 158.867 492.341L160.777 495.097Z" fill="white"/>
<path d="M163.175 493.474C163.318 493.735 163.387 494.069 163.365 494.404C163.344 494.739 163.234 495.048 163.06 495.264C162.976 495.373 162.878 495.454 162.771 495.505C162.665 495.555 162.553 495.573 162.442 495.557C162.331 495.541 162.223 495.491 162.126 495.412C162.028 495.332 161.942 495.224 161.873 495.094L159.959 491.656C159.821 491.392 159.755 491.06 159.776 490.727C159.798 490.394 159.904 490.086 160.074 489.866C160.158 489.757 160.257 489.676 160.363 489.625C160.469 489.575 160.581 489.558 160.692 489.573C160.803 489.589 160.911 489.639 161.009 489.718C161.106 489.798 161.192 489.906 161.261 490.036L163.175 493.474Z" fill="white"/>
<path d="M166.703 490.729C166.892 490.882 166.985 491.079 166.962 491.278C166.938 491.477 166.8 491.662 166.578 491.792C166.349 491.92 166.055 491.981 165.76 491.962C165.465 491.943 165.193 491.845 165.003 491.689L162.502 489.616C162.397 489.545 162.313 489.461 162.256 489.369C162.199 489.276 162.17 489.177 162.17 489.076C162.17 488.975 162.199 488.876 162.256 488.783C162.313 488.69 162.397 488.606 162.502 488.536C162.734 488.412 163.026 488.353 163.32 488.372C163.613 488.392 163.884 488.487 164.077 488.639L166.703 490.729Z" fill="white"/>
<path d="M169.172 488.608C169.242 488.737 169.295 488.885 169.327 489.045C169.359 489.204 169.37 489.372 169.359 489.538C169.349 489.704 169.317 489.865 169.265 490.012C169.213 490.16 169.143 490.29 169.058 490.396C168.898 490.633 168.683 490.767 168.459 490.767C168.235 490.767 168.02 490.633 167.86 490.396L165.96 486.879C165.817 486.614 165.749 486.275 165.77 485.935C165.792 485.595 165.901 485.281 166.074 485.062C166.158 484.956 166.256 484.876 166.361 484.828C166.467 484.779 166.577 484.762 166.687 484.778C166.796 484.794 166.902 484.843 166.999 484.921C167.096 485 167.182 485.106 167.252 485.235L169.172 488.608Z" fill="white"/>
<path d="M123.252 476.409C120.487 476.213 117.745 477.026 115.547 478.695C113.35 480.363 111.849 482.77 111.33 485.459L98.6288 498.337V506.352H139.391C139.391 506.352 137.368 491.91 136.758 488.66C136.149 485.411 134.198 476.409 123.252 476.409Z" fill="#FBBEAA"/>
<path d="M112.367 485.697C111.896 485.057 111.251 484.565 110.756 484.86C110.26 485.155 97.7676 494.997 97.1975 495.489C96.6274 495.981 96.2307 496.596 96.2307 498.195V508.75H141.789C141.789 508.75 140.004 493.151 139.88 492.29C139.756 491.429 138.889 490.297 138.393 490.322C135.266 491.273 132.021 491.786 128.751 491.847C124.413 492.08 120.085 491.235 116.159 489.387C114.689 488.385 113.405 487.136 112.367 485.697Z" fill="#302D3B"/>
<path d="M104.999 500.197C107.154 498.569 114.905 492.404 117.811 490.086L117.157 489.74C117.058 489.701 116.968 489.642 116.891 489.568C113.791 492.034 106.5 497.854 104.417 499.432C102.657 500.806 101.45 502.788 101.027 505.005L101.971 505.153C102.382 503.192 103.453 501.439 104.999 500.197Z" fill="white"/>
<path d="M97.9095 495.591C97.4317 495.413 95.0932 496.013 92.0507 498.659C90.784 499.816 89.8721 501.241 89.4013 502.797C88.9305 504.353 88.9164 505.989 89.3603 507.551H104.623C103.768 499.015 98.3872 495.769 97.9095 495.591Z" fill="white"/>
<path d="M103.166 495.097C103.357 495.306 103.448 495.574 103.42 495.843C103.391 496.111 103.245 496.359 103.013 496.532C102.899 496.616 102.767 496.679 102.626 496.717C102.485 496.756 102.337 496.769 102.19 496.756C102.043 496.744 101.9 496.705 101.77 496.643C101.639 496.581 101.524 496.497 101.43 496.395L98.8784 493.639C98.6933 493.428 98.6061 493.162 98.6345 492.895C98.663 492.628 98.8052 492.381 99.0316 492.205C99.144 492.118 99.2749 492.052 99.4165 492.012C99.5582 491.972 99.7075 491.957 99.8555 491.97C100.003 491.983 100.147 492.022 100.277 492.086C100.408 492.15 100.522 492.237 100.614 492.341L103.166 495.097Z" fill="white"/>
<path d="M105.628 493.471C105.771 493.732 105.839 494.067 105.818 494.402C105.796 494.738 105.687 495.048 105.513 495.264C105.428 495.372 105.33 495.454 105.224 495.504C105.118 495.555 105.006 495.573 104.895 495.557C104.784 495.541 104.676 495.491 104.578 495.412C104.481 495.332 104.395 495.223 104.326 495.093L102.412 491.65C102.273 491.386 102.208 491.053 102.229 490.719C102.25 490.385 102.357 490.077 102.527 489.857C102.702 489.643 102.928 489.542 103.153 489.574C103.379 489.606 103.587 489.769 103.733 490.027L105.628 493.471Z" fill="white"/>
<path d="M109.079 490.731C109.187 490.8 109.272 490.882 109.33 490.973C109.389 491.064 109.419 491.162 109.419 491.262C109.419 491.361 109.389 491.459 109.33 491.55C109.272 491.641 109.187 491.723 109.079 491.792C108.843 491.92 108.54 491.981 108.237 491.962C107.933 491.943 107.653 491.845 107.458 491.689L104.885 489.619C104.692 489.462 104.6 489.261 104.629 489.059C104.658 488.857 104.805 488.671 105.039 488.541C105.154 488.478 105.286 488.431 105.429 488.402C105.571 488.373 105.721 488.363 105.869 488.372C106.017 488.382 106.161 488.411 106.292 488.457C106.424 488.504 106.54 488.567 106.635 488.644L109.079 490.731Z" fill="white"/>
<path d="M111.562 488.608C111.655 488.737 111.725 488.885 111.768 489.045C111.811 489.204 111.826 489.372 111.812 489.538C111.798 489.704 111.755 489.865 111.686 490.012C111.617 490.16 111.523 490.29 111.41 490.396C111.197 490.633 110.91 490.767 110.611 490.767C110.313 490.767 110.026 490.633 109.813 490.396L107.279 486.879C107.089 486.614 106.998 486.275 107.026 485.935C107.055 485.595 107.2 485.281 107.431 485.062C107.544 484.956 107.674 484.876 107.814 484.828C107.955 484.779 108.102 484.762 108.248 484.778C108.394 484.794 108.536 484.843 108.665 484.921C108.794 485 108.909 485.106 109.002 485.235L111.562 488.608Z" fill="white"/>
<path d="M191.942 329.209C192.349 332.375 192.135 335.591 191.313 338.672C190.491 341.753 189.076 344.637 187.152 347.158C185.228 349.679 182.831 351.787 180.101 353.359C177.372 354.932 174.363 355.937 171.248 356.318C168.134 356.699 164.977 356.448 161.959 355.579C158.941 354.71 156.122 353.241 153.665 351.256C151.209 349.271 149.163 346.81 147.647 344.015C146.131 341.22 145.174 338.147 144.832 334.973C144.832 334.973 132.481 246.674 129.552 228.835C126.623 210.996 129.723 196.064 149.348 191.815C169.705 187.418 182.423 202.598 183.96 217.803C185.498 233.009 191.942 329.209 191.942 329.209Z" fill="#013EA5"/>
<path d="M152.281 330.907C152.36 337.295 149.895 343.453 145.429 348.025C140.963 352.598 134.861 355.211 128.466 355.29C122.071 355.369 115.906 352.907 111.328 348.446C106.751 343.985 104.134 337.89 104.056 331.502C104.056 331.502 101.004 242.594 99.9624 224.579C98.9205 206.565 103.634 192.118 123.926 190.037C144.962 187.881 156.175 204.31 156.175 219.574C156.175 234.838 152.281 330.907 152.281 330.907Z" fill="#013EA5"/>
<path d="M152.579 331.103C152.539 327.943 151.864 324.822 150.592 321.917C149.32 319.013 147.476 316.382 145.166 314.176C142.856 311.969 140.124 310.229 137.127 309.056C134.13 307.883 130.926 307.299 127.699 307.338C124.471 307.377 121.284 308.038 118.317 309.284C115.351 310.529 112.664 312.334 110.41 314.596C108.156 316.858 106.379 319.532 105.181 322.466C103.982 325.4 103.386 328.537 103.426 331.697L108.483 459.009L148.154 463.192L152.579 331.103Z" fill="#013EA5"/>
<path d="M191.858 329.575C191.04 323.261 187.788 317.528 182.809 313.621C177.831 309.714 171.526 307.948 165.266 308.708C159.006 309.468 153.296 312.692 149.376 317.68C145.455 322.667 143.642 329.015 144.329 335.346L162.873 461.993H201.733L191.858 329.575Z" fill="#013EA5"/>
<path d="M145.386 333.712L163.369 460.794" stroke="#013EA5" stroke-width="0.75" stroke-miterlimit="10" stroke-linecap="round"/>
<path d="M144.186 334.911C144.186 334.911 131.588 247.141 128.6 229.409" stroke="#F5F5F5" stroke-width="0.75" stroke-miterlimit="10" stroke-linecap="round"/>
<path d="M102.225 200.635C102.225 200.635 102.225 225.652 102.225 227.027C102.225 228.402 114.253 240.199 130.225 240.199C154.784 240.199 184.178 231.2 183.745 225.338C183.457 221.478 183.096 200.635 183.096 200.635H102.225Z" fill="#013EA5"/>
<path d="M28.2159 98.0014L39.8417 170.982C41.7599 180.138 38.7953 188.421 28.2159 189.874C26.263 190.129 24.2788 189.983 22.3838 189.448C20.4888 188.912 18.7224 187.996 17.1921 186.757C15.6617 185.517 14.3993 183.979 13.4814 182.237C12.5635 180.495 12.0093 178.584 11.8525 176.621L8.30666 98.1467C7.37659 90.7352 10.6027 85.7943 16.2412 85.1839C23.1586 84.4283 26.8208 88.5264 28.2159 98.0014Z" fill="#FBBEAA"/>
<path d="M18.7691 162.902L102.242 99.4835C111.979 93.2637 118.606 96.5771 123.779 103.233C126.142 106.454 127.237 110.432 126.857 114.409C126.476 118.386 124.646 122.084 121.716 124.799L38.4458 186.154C35.5114 188.632 31.7338 189.883 27.9003 189.644C24.0668 189.406 20.4731 187.698 17.8681 184.875L17.4903 184.468C16.1077 182.993 15.0402 181.252 14.3528 179.351C13.6654 177.45 13.3726 175.428 13.4922 173.41C13.6119 171.392 14.1415 169.42 15.0488 167.613C15.956 165.806 17.2219 164.203 18.7691 162.902Z" fill="#FBBEAA"/>
<path d="M27.8673 96.0535C27.7475 93.4344 28.4486 90.8433 29.8728 88.6421C32.0655 86.0997 33.7082 83.131 34.6975 79.9227C35.4586 76.9446 36.6742 74.1016 38.3016 71.4939C39.4641 69.8954 41.208 68.5875 41.208 67.3668C41.208 66.1461 38.8828 63.7919 35.5695 64.4604C34.1503 64.9025 32.8462 65.6529 31.7509 66.6578C30.6555 67.6627 29.7958 68.8973 29.2334 70.2733C28.9159 69.4349 28.7297 68.5526 28.6812 67.6575L27.9546 49.8409C27.9436 49.3791 27.8401 48.9241 27.6503 48.5028C27.4605 48.0816 27.1882 47.7027 26.8495 47.3884C26.5109 47.0742 26.1127 46.8309 25.6785 46.6731C25.2443 46.5153 24.7829 46.446 24.3215 46.4694C23.587 46.5008 22.8806 46.7616 22.3019 47.2151C21.7232 47.6687 21.3013 48.2922 21.0953 48.998V48.1842C20.9835 47.3181 20.5483 46.5264 19.8769 45.968C19.2055 45.4095 18.3476 45.1257 17.4757 45.1735C16.6037 45.2213 15.7821 45.5973 15.1758 46.2258C14.5695 46.8543 14.2235 47.689 14.2071 48.5621V51.0326C13.916 50.2709 13.3609 49.6392 12.643 49.2526C11.9251 48.866 11.0922 48.7502 10.296 48.9264C9.49989 49.1025 8.79354 49.5588 8.30573 50.2121C7.81792 50.8655 7.5811 51.6725 7.63846 52.4858V54.0552C7.32563 53.5055 6.85943 53.0588 6.29681 52.7697C5.73419 52.4807 5.09953 52.3618 4.47044 52.4276C3.60894 52.537 2.82387 52.9774 2.28138 53.6555C1.73888 54.3336 1.48156 55.1962 1.56399 56.0607L2.98812 71.0871C3.92107 79.5587 5.67318 87.92 8.21978 96.0535C8.25057 97.4115 8.56519 98.748 9.14339 99.9772C9.72159 101.206 10.5506 102.301 11.5771 103.191C12.6036 104.08 13.8049 104.745 15.1038 105.143C16.4027 105.541 17.7704 105.662 19.119 105.499C20.3394 105.54 21.5543 105.318 22.6813 104.848C23.8084 104.378 24.8211 103.671 25.6509 102.775C26.4806 101.879 27.108 100.815 27.4904 99.6553C27.8729 98.4956 28.0014 97.2672 27.8673 96.0535Z" fill="#FBBEAA"/>
<path d="M109.132 94.9492L36.8957 143.668C37.1996 146.16 31.3457 94.9492 31.3457 94.9492L4.6087 97.4448C4.6087 97.4448 6.17071 149.584 10.1054 177.12C11.6669 188.048 20.7627 192.192 31.548 189.839C36.873 188.677 41.886 186.492 46.3471 183.361C65.5165 169.906 119.296 132.007 123.693 127.24C131.279 119.015 131.279 112.853 126.919 106.081C122.559 99.3089 113.23 93.9319 109.132 94.9492Z" fill="#013EA5"/>
<path d="M27.2855 72.8022C28.3899 72.8022 28.4771 72.1047 28.9712 70.8259C26.5007 70.8259 19.3218 71.2909 16.1828 77.3363C19.3509 72.9766 25.4254 72.8022 27.2855 72.8022ZM21.647 49.8122C21.647 49.8122 21.8213 50.8295 21.9957 52.3118C21.9957 53.0675 22.1702 53.9684 22.2283 54.8985C22.2864 55.8286 22.3736 56.8458 22.4608 57.805C22.4608 59.8395 22.6061 61.8449 22.6061 63.3563C22.6061 64.8676 22.6061 65.8849 22.6061 65.8849C22.6062 65.9332 22.5964 65.9811 22.5771 66.0255C22.5577 66.0698 22.5294 66.1096 22.4939 66.1424C22.4583 66.1752 22.4164 66.2003 22.3707 66.216C22.3249 66.2317 22.2765 66.2377 22.2283 66.2336C22.1465 66.2295 22.0682 66.199 22.0053 66.1465C21.9424 66.0941 21.8982 66.0228 21.8794 65.9431C21.8794 65.9431 21.7051 64.9257 21.5598 63.4144C21.4145 61.903 21.1819 59.8976 21.0947 57.8921C21.0947 56.8749 21.0947 55.8576 21.0947 54.9857C21.0947 54.1138 21.0947 53.1547 21.0947 52.399C21.0947 50.8586 21.0947 49.8703 21.0947 49.8703C21.0946 49.822 21.1044 49.7741 21.1237 49.7298C21.1431 49.6855 21.1714 49.6456 21.2069 49.6128C21.2425 49.58 21.2844 49.555 21.3301 49.5393C21.3759 49.5236 21.4244 49.5175 21.4726 49.5216C21.5283 49.5536 21.5741 49.6005 21.6048 49.6569C21.6356 49.7133 21.6502 49.7771 21.647 49.8413V49.8122ZM14.904 51.8468C14.904 51.8468 15.0784 52.7187 15.2818 53.9975C15.2818 54.666 15.4853 55.4216 15.5725 56.2354C15.6597 57.0492 15.7469 57.9212 15.8341 58.7931C15.8341 60.537 16.0375 62.2809 16.0665 63.5888C16.0956 64.8967 16.0665 65.7977 16.0665 65.7977C16.0629 65.8435 16.0502 65.8882 16.0292 65.9291C16.0082 65.9701 15.9794 66.0065 15.9442 66.0362C15.9091 66.0659 15.8684 66.0884 15.8246 66.1024C15.7807 66.1163 15.7346 66.1214 15.6888 66.1174C15.6106 66.112 15.5365 66.0803 15.4785 66.0276C15.4205 65.9749 15.3819 65.9041 15.369 65.8268C15.369 65.8268 15.1946 64.9548 14.9912 63.6759C14.7877 62.3971 14.6134 60.6242 14.468 58.9094C14.468 58.0375 14.468 57.1655 14.2937 56.3517C14.1193 55.5379 14.2937 54.7532 14.2937 54.0847C14.2937 52.7768 14.2937 51.9049 14.2937 51.9049C14.2935 51.8565 14.3033 51.8087 14.3227 51.7644C14.342 51.72 14.3703 51.6802 14.4059 51.6474C14.4414 51.6146 14.4833 51.5896 14.5291 51.5738C14.5748 51.5581 14.6233 51.5521 14.6715 51.5561C14.736 51.5827 14.7918 51.6267 14.8328 51.6831C14.8739 51.7395 14.8985 51.8062 14.904 51.8758V51.8468ZM8.39357 54.6078C8.39357 54.6078 8.56791 55.3345 8.80042 56.4389C8.80042 56.9621 9.03299 57.6015 9.12018 58.2991C9.20737 58.9966 9.32359 59.7232 9.43985 60.4498C9.6433 61.9321 9.73056 63.3563 9.78869 64.5188C9.84682 65.6814 9.78869 66.379 9.78869 66.379C9.78886 66.4274 9.77892 66.4752 9.7596 66.5195C9.74028 66.5638 9.71193 66.6037 9.6764 66.6365C9.64087 66.6693 9.59893 66.6943 9.5532 66.71C9.50747 66.7257 9.45903 66.7318 9.41084 66.7278C9.33664 66.7239 9.26559 66.6964 9.20808 66.6494C9.15057 66.6023 9.10956 66.5382 9.09109 66.4662C9.09109 66.4662 8.88768 65.7396 8.68423 64.6642C8.48078 63.5888 8.1901 62.0774 8.01571 60.6242C8.01571 59.8685 7.87037 59.1419 7.81224 58.4444C7.75411 57.7468 7.81224 57.1074 7.81224 56.5552C7.81224 55.4507 7.81224 54.695 7.81224 54.695C7.81207 54.6467 7.82202 54.5989 7.84133 54.5545C7.86065 54.5102 7.88891 54.4703 7.92444 54.4375C7.95997 54.4047 8.002 54.3797 8.04773 54.364C8.09346 54.3483 8.14191 54.3422 8.19009 54.3463C8.24375 54.3762 8.28994 54.4179 8.32518 54.4682C8.36042 54.5186 8.3838 54.5763 8.39357 54.6369V54.6078Z" fill="#F18380"/>
<path d="M36.3301 137.777L34.9706 126.901L5.96763 129.167L6.4208 140.043L36.3301 137.777Z" fill="#CFD1CE"/>
<path d="M120.66 88.1087C120.66 88.1087 103.111 98.2417 100.373 100.015C97.6337 101.788 94.5399 104.524 95.0978 111.921C95.6557 119.319 98.0142 218.892 98.0142 218.892C107.021 220.417 133.396 220.417 133.396 220.417H135.794H137.593H139.99H141.789H143.587C143.587 220.417 182.689 217.094 183.475 216.638C184.262 216.182 184.997 215.7 184.946 214.839C184.896 213.978 184.388 112.757 184.059 108.299C183.993 105.911 183.241 103.593 181.892 101.621C180.543 99.6484 178.654 98.1061 176.451 97.1778C171.151 94.8218 151.244 86.7407 151.244 86.7407L134.524 88.1087H120.66Z" fill="#034CC9"/>
<path d="M120.66 88.1087C120.66 88.1087 103.111 98.2417 100.373 100.015C97.6338 101.788 94.54 104.524 95.0979 111.921C95.6558 119.319 98.0143 218.892 98.0143 218.892C107.021 220.417 121.408 220.417 121.408 220.417H123.805H125.604H128.002H129.8H131.598C131.598 220.417 128.739 217.094 129.525 216.638C130.312 216.182 131.047 215.7 130.996 214.839C130.946 213.978 130.438 112.757 130.109 108.299C130.043 105.911 129.291 103.593 127.942 101.621C126.593 99.6484 124.704 98.1061 122.501 97.1778C117.201 94.8218 151.244 86.7407 151.244 86.7407L134.524 88.1087H120.66Z" fill="#0045BA"/>
<path d="M118.669 88.2547C118.669 88.2547 99.2674 99.4693 96.2394 101.432C93.2115 103.394 95.6313 107.721 95.6313 115.514C95.6313 125.705 97.4296 126.304 97.4296 126.304C103.497 129.578 106.15 127.024 112.837 128.703C116.089 129.067 118.613 129.151 120.799 127.021C122.986 124.89 129.8 125.705 129.8 125.705C129.8 125.705 140.061 124.357 144.855 127.021C146.002 127.82 147.297 128.381 148.665 128.67C150.033 128.959 151.109 128.938 152.481 128.67C159.434 127.24 187.246 119.254 188.115 118.75C188.984 118.245 189.797 117.712 189.741 116.759C189.685 115.806 189.125 115.534 188.76 110.6C188.688 107.957 187.856 105.391 186.365 103.209C184.873 101.026 182.785 99.3192 180.349 98.2918C174.489 95.6844 152.481 86.7407 152.481 86.7407L133.996 87.3402L118.669 88.2547Z" fill="#9A99A1"/>
<path d="M132.401 84.0391C140.74 84.0391 148.262 80.4138 150.981 78.6011V86.7582C150.679 87.2113 148.353 88.6615 141.465 90.8367C134.577 93.0119 124.698 92.1962 120.619 90.8367V82.6796C120.619 83.1328 121.979 84.0391 132.401 84.0391Z" fill="#034CC9"/>
<path d="M131.949 219.99C129.633 219.213 127.606 217.716 126.146 215.704C124.686 213.692 123.864 211.263 123.792 208.749V84.4922H131.949V219.99Z" fill="#034CC9"/>
<path d="M95.6312 129.356H136.744V120.293L95.6312 120.31C95.6312 124.506 95.6312 125.705 95.6312 129.356Z" fill="#D3D4D2"/>
<path d="M169.982 120.293H128.587V129.356H170.831C170.279 125.278 169.982 123.465 169.982 120.293Z" fill="#CFD1CE"/>
<g style="mix-blend-mode:multiply" opacity="0.4">
<path d="M132.855 92.0105L131.949 92.1962V219.99H132.855V92.0105Z" fill="#013FA9"/>
</g>
<path d="M187.178 103.265C193.522 111.422 230.229 211.119 230.229 211.119C196.241 200.243 199.43 170.849 180.945 173.959C180.945 173.959 159.63 123.928 158.816 119.452C157.967 115.924 158.348 112.211 159.896 108.929C161.445 105.646 164.068 102.991 167.332 101.403C176.429 96.753 180.833 95.1073 187.178 103.265Z" fill="#0045BA"/>
<path d="M168.931 150.376C163.787 145.174 154.166 133.955 150.911 131.223C147.692 128.798 144.176 126.795 140.448 125.265C137.62 124.317 134.696 123.684 131.729 123.376C129.665 123.114 128.822 123.724 128.822 124.974C128.874 125.719 129.111 126.438 129.512 127.068C129.913 127.697 130.465 128.216 131.118 128.578H127.311C126.003 128.578 125.16 129.624 125.77 131.31C126.325 132.424 127.117 133.402 128.092 134.176C129.066 134.949 130.198 135.499 131.409 135.786C131.409 135.786 126.265 136.28 124.957 136.542C123.649 136.803 123.242 137.297 123.242 138.547C123.253 139.411 123.493 140.255 123.937 140.996C124.381 141.736 125.014 142.345 125.77 142.762C127.622 143.513 129.587 143.945 131.583 144.04C131.583 144.04 125.218 145.639 123.939 146.104C122.66 146.569 122.515 147.412 123.184 148.516C123.565 149.294 124.115 149.977 124.793 150.515C125.472 151.053 126.263 151.433 127.107 151.626C129.52 152.266 131.147 151.219 132.019 151.365C133.893 151.968 135.727 152.687 137.512 153.515C140.193 156.184 143.471 158.177 147.075 159.328C149.757 160.454 152.217 162.048 154.341 164.037C155.33 164.965 156.495 165.685 157.767 166.155C159.04 166.625 160.393 166.835 161.748 166.773C163.103 166.711 164.432 166.377 165.656 165.792C166.879 165.208 167.973 164.383 168.873 163.368C173.523 158.427 172.739 154.3 168.931 150.376Z" fill="#FBBEAA"/>
<path d="M151.831 168.068L198.62 220.681C204.227 228.154 217.329 232.261 225.334 225.338C226.814 224.041 228.016 222.457 228.865 220.681C229.715 218.906 230.195 216.977 230.277 215.01C230.359 213.044 230.04 211.081 229.341 209.242C228.641 207.402 227.575 205.724 226.207 204.308L169.505 144.956L151.831 168.068Z" fill="#0045BA"/>
<path d="M131.757 128.607C131.749 128.655 131.751 128.704 131.763 128.752C131.775 128.799 131.797 128.843 131.827 128.882C131.857 128.92 131.895 128.952 131.938 128.974C131.981 128.997 132.028 129.011 132.077 129.014L134.46 129.247H135.623C136.03 129.247 136.407 129.392 136.814 129.421C137.244 129.55 137.662 129.715 138.064 129.915L139.401 130.467C141.203 131.194 143.005 131.862 144.342 132.356C145.679 132.85 146.609 133.141 146.609 133.141C146.683 133.172 146.766 133.175 146.841 133.148C146.916 133.121 146.979 133.067 147.016 132.996C147.07 132.925 147.1 132.838 147.1 132.749C147.1 132.66 147.07 132.573 147.016 132.502L144.836 131.368L142.569 130.293C141.755 129.915 140.854 129.537 139.953 129.188L138.587 128.665C138.148 128.467 137.691 128.311 137.221 128.2L135.826 128.055H134.635H132.862H132.193C132.12 127.997 132.027 127.971 131.934 127.982C131.841 127.993 131.757 128.04 131.699 128.113C131.641 128.186 131.615 128.279 131.626 128.372C131.637 128.465 131.684 128.549 131.757 128.607ZM132.309 135.612H132.833C133.268 135.573 133.705 135.573 134.141 135.612L135.041 135.757C135.374 135.798 135.703 135.857 136.03 135.931L138.006 136.571C139.343 137.007 140.651 137.559 141.639 137.966C141.639 137.966 141.959 137.966 141.93 138.111H142.279L142.802 138.256H143.121H143.296C143.384 138.277 143.46 138.331 143.509 138.407C143.557 138.483 143.575 138.575 143.557 138.663C143.545 138.733 143.509 138.797 143.457 138.844C143.404 138.891 143.337 138.92 143.267 138.925H141.784H141.319C140.302 138.663 138.936 138.257 137.599 137.792L135.652 137.065L134.751 136.832L133.966 136.6C133.565 136.481 133.157 136.384 132.745 136.309L132.251 136.164C132.207 136.151 132.166 136.129 132.131 136.1C132.095 136.07 132.066 136.035 132.044 135.994C132.023 135.954 132.01 135.909 132.005 135.864C132.001 135.818 132.005 135.772 132.019 135.728C132.053 135.685 132.098 135.652 132.149 135.632C132.2 135.611 132.255 135.605 132.309 135.612ZM132.309 143.866H133.385C133.675 143.866 134.053 143.866 134.431 144.069L135.623 144.447C136.373 144.711 137.101 145.032 137.803 145.406C138.125 145.558 138.436 145.733 138.733 145.93C138.792 145.998 138.825 146.086 138.825 146.177C138.825 146.267 138.792 146.355 138.733 146.424C138.649 146.512 138.534 146.564 138.413 146.569L137.338 146.395C136.727 146.249 135.942 146.017 135.158 145.755L134.024 145.29L133.036 144.912C132.707 144.766 132.387 144.601 132.077 144.418C131.995 144.37 131.934 144.291 131.907 144.2C131.88 144.108 131.889 144.01 131.932 143.924C132.018 143.869 132.121 143.848 132.222 143.866H132.309Z" fill="#F18380"/>
<path d="M207.118 181.663L197.601 173.959L178.568 197.977L186.272 207.041L207.118 181.663Z" fill="#CFD1CE"/>
<path d="M141.037 112.697L141.799 112.705L141.789 113.656L142.602 113.665L142.611 112.714L143.373 112.721L143.346 115.319L142.585 115.312L142.595 114.283L141.782 114.274L141.772 115.303L141.01 115.295L141.037 112.697L141.037 112.697ZM146.091 112.749L146.064 115.347L145.328 115.34L145.349 113.358L144.866 113.353L144.859 114.098C144.855 114.433 144.825 114.844 144.62 115.073C144.415 115.328 144.033 115.402 143.602 115.32L143.609 114.675C144.014 114.758 144.118 114.603 144.123 114.089L144.137 112.725L146.091 112.745L146.091 112.749ZM146.727 112.756L147.488 112.764L147.903 114.311L148.35 112.773L149.111 112.78L149.441 115.382L148.731 115.375L148.568 113.983L148.146 115.369L147.638 115.363L147.247 113.97L147.056 115.358L146.346 115.35L146.727 112.756L146.727 112.756ZM149.747 112.787L150.509 112.795L150.498 113.85L151.245 112.802L152.083 112.811L151.106 114.087L152.082 115.409L151.169 115.4L150.495 114.338L150.484 115.393L149.723 115.385L149.75 112.787L149.747 112.787L149.747 112.787ZM146.499 109.974C141.93 109.927 138.89 111.569 138.864 114.037C138.839 116.481 141.842 118.209 146.414 118.256C151.009 118.303 154.024 116.635 154.049 114.193C154.074 111.725 151.096 110.021 146.499 109.974ZM146.418 117.871C142.126 117.827 139.274 116.281 139.297 114.041C139.321 111.778 142.205 110.314 146.495 110.358C150.811 110.403 153.641 111.923 153.618 114.188C153.595 116.428 150.736 117.916 146.418 117.871ZM146.491 110.719C142.455 110.678 139.749 112.014 139.728 114.046C139.707 116.077 142.386 117.469 146.422 117.51C150.457 117.552 153.164 116.216 153.185 114.184C153.208 112.152 150.53 110.761 146.491 110.719ZM146.422 117.435C142.435 117.394 139.785 116.029 139.805 114.049C139.825 112.069 142.506 110.759 146.491 110.8C150.475 110.84 153.128 112.206 153.108 114.186C153.09 116.165 150.409 117.476 146.422 117.435L146.422 117.435Z" fill="white"/>
<defs>
<clipPath id="clip0_203_571">
<rect width="72.039" height="95.008" fill="white" transform="matrix(-1 0 0 1 166.107 0.744522)"/>
</clipPath>
</defs>
</svg>
