<svg width="247" height="544" viewBox="0 0 247 544" fill="none" xmlns="http://www.w3.org/2000/svg">
<path d="M136.048 73.2346C136.653 73.2346 137.938 73.2346 139.072 73.6126C139.072 74.5198 137.056 75.2505 136.048 75.5025C135.796 74.7466 135.443 73.2346 136.048 73.2346Z" fill="#013FA9"/>
<path d="M101.046 21.8182C99.5638 27.4879 98.6848 33.2982 98.4233 39.1525C98.1124 44.0251 96.5004 48.7252 93.7554 52.763C91.1329 56.1459 87.6975 59.66 88.9563 70.1497H156.117C156.117 70.1497 158.739 64.9048 155.592 55.9099C151.886 44.8053 149.157 33.398 147.437 21.8182H101.046Z" fill="#BC664A"/>
<path d="M113.896 52.7631V75.0276C113.896 75.0276 115.653 82.7113 127.428 82.7113C129.765 82.9084 132.09 82.203 133.924 80.7399C135.757 79.2768 136.961 77.167 137.288 74.844V52.7631H113.896Z" fill="#FBBEAA"/>
<path d="M137.288 71.4086C129.893 74.8964 119.115 71.7757 113.896 62.099V52.7631H137.288V71.4086Z" fill="#F18380"/>
<path d="M151.895 35.7432C152.007 41.0765 151.77 46.4114 151.187 51.7138C150.216 59.2665 147.541 67.6583 134.141 67.6583C120.74 67.6583 113.948 61.6267 111.063 51.7138C109.333 45.7085 105.818 36.8709 107.261 26.6171C108.703 16.3634 114.866 9.70243 129.42 9.30906C143.975 8.91569 153.494 15.4718 151.895 35.7432Z" fill="#FBBEAA"/>
<path d="M123.572 40.3065C123.666 40.6927 123.865 41.045 124.149 41.3234C124.432 41.6018 124.788 41.7952 125.176 41.8814C125.564 41.9677 125.968 41.9435 126.343 41.8115C126.717 41.6796 127.048 41.4452 127.296 41.1349C127.544 40.8247 127.7 40.451 127.747 40.0565C127.793 39.6619 127.728 39.2622 127.559 38.9027C127.39 38.5433 127.123 38.2386 126.789 38.0232C126.455 37.8077 126.068 37.6902 125.67 37.6841C125.358 37.7132 125.055 37.8048 124.779 37.9536C124.504 38.1024 124.26 38.3052 124.065 38.5499C123.869 38.7947 123.724 39.0763 123.64 39.3781C123.555 39.6799 123.532 39.9956 123.572 40.3065Z" fill="#403D4F"/>
<path d="M143.005 40.3065C143.098 40.6927 143.298 41.045 143.581 41.3234C143.864 41.6018 144.22 41.7952 144.608 41.8814C144.996 41.9677 145.4 41.9435 145.775 41.8115C146.15 41.6796 146.48 41.4452 146.728 41.1349C146.976 40.8247 147.133 40.451 147.179 40.0565C147.226 39.6619 147.16 39.2622 146.991 38.9027C146.822 38.5433 146.555 38.2386 146.221 38.0232C145.887 37.8077 145.5 37.6902 145.103 37.6841C144.792 37.7166 144.491 37.8106 144.217 37.9604C143.942 38.1103 143.701 38.313 143.506 38.557C143.311 38.8009 143.166 39.0812 143.08 39.3815C142.994 39.6818 142.968 39.9962 143.005 40.3065Z" fill="#403D4F"/>
<path d="M129.892 32.8852C129.892 32.8852 129.892 32.8853 129.683 32.6755C129.471 32.4698 129.233 32.2934 128.975 32.151C128.644 31.9617 128.292 31.812 127.926 31.7052C127.072 31.4709 126.186 31.3822 125.303 31.4429C124.932 31.462 124.563 31.5147 124.202 31.6003L123.179 31.8887C123.01 31.9431 122.869 32.0612 122.786 32.2179C122.703 32.3746 122.684 32.5575 122.733 32.7279C122.776 32.862 122.86 32.9793 122.973 33.0639C123.086 33.1484 123.222 33.1959 123.363 33.1999H125.329C125.67 33.1741 126.012 33.1741 126.352 33.1999C126.689 33.231 127.023 33.2924 127.349 33.3835C127.69 33.3835 127.926 33.5671 128.188 33.5933C128.374 33.6717 128.567 33.7332 128.765 33.7769H129.001C129.164 33.8481 129.349 33.8522 129.516 33.7885C129.683 33.7247 129.818 33.5982 129.892 33.436C129.931 33.3448 129.951 33.2467 129.951 33.1475C129.951 33.0483 129.931 32.9502 129.892 32.859V32.8852Z" fill="#403D4F"/>
<path d="M142.664 33.8815C142.664 33.8815 142.664 33.8815 142.821 33.8815L143.214 33.7242H143.503C143.606 33.7014 143.714 33.7014 143.817 33.7242C144.049 33.6476 144.286 33.5863 144.525 33.5406C144.769 33.5133 145.016 33.5133 145.26 33.5406H146.755C146.843 33.5407 146.93 33.5229 147.012 33.4883C147.093 33.4537 147.166 33.4031 147.228 33.3394C147.289 33.2757 147.337 33.2003 147.368 33.1177C147.399 33.0351 147.414 32.947 147.41 32.8588C147.405 32.7287 147.363 32.6027 147.289 32.4958C147.214 32.389 147.111 32.3056 146.991 32.2556L146.178 31.9671C145.887 31.8803 145.588 31.8275 145.286 31.8098C144.929 31.7578 144.567 31.7578 144.211 31.8098C143.526 31.8956 142.876 32.1577 142.323 32.5703L141.824 33.0686C141.693 33.2259 141.693 33.2784 141.693 33.3046V33.5406C141.67 33.7207 141.717 33.9028 141.825 34.0492C141.932 34.1956 142.091 34.2952 142.27 34.3273C142.45 34.2299 142.589 34.0719 142.664 33.8815Z" fill="#403D4F"/>
<path d="M137.288 49.2492C137.73 49.2467 138.167 49.1548 138.573 48.979C138.978 48.8033 139.344 48.5473 139.648 48.2265C139.759 48.1076 139.845 47.967 139.899 47.8136C139.953 47.6601 139.975 47.4972 139.963 47.3349C139.963 47.0464 139.517 43.4274 139.36 42.09C139.329 41.9606 139.256 41.8456 139.15 41.7644C139.045 41.6832 138.916 41.6407 138.783 41.6442C138.648 41.6638 138.526 41.7349 138.443 41.8425C138.36 41.9502 138.322 42.0859 138.337 42.2211C138.337 42.4047 138.914 47.1513 138.966 47.466C138.752 47.7037 138.488 47.8923 138.194 48.019C137.9 48.1457 137.582 48.2075 137.262 48.2003C137.127 48.207 137 48.2652 136.908 48.3629C136.815 48.4605 136.763 48.5901 136.763 48.7248C136.77 48.8618 136.827 48.9915 136.924 49.0885C137.021 49.1856 137.151 49.2429 137.288 49.2492Z" fill="#F18380"/>
<path d="M139.7 54.4153C140.671 54.6513 141.038 56.1198 140.435 57.8244C139.84 58.9981 138.866 59.9368 137.672 60.4888C136.478 61.0408 135.132 61.1738 133.852 60.8664C133.154 60.8333 132.469 60.6607 131.838 60.3591C131.208 60.0574 130.644 59.6326 130.179 59.1097C129.715 58.5868 129.36 57.9764 129.135 57.3143C128.91 56.6522 128.82 55.9519 128.87 55.2544C128.87 54.1268 129.657 53.4712 131.125 53.4712C134.005 53.5481 136.873 53.8638 139.7 54.4153Z" fill="#73102A"/>
<path d="M128.87 55.3857V55.1496C130.789 54.706 132.805 54.9987 134.519 55.9699C136.233 56.9411 137.521 58.52 138.127 60.3945C136.778 61.0557 135.26 61.2933 133.774 61.0763C133.075 61.0335 132.392 60.8511 131.764 60.5401C131.137 60.229 130.579 59.7955 130.122 59.2652C129.665 58.7348 129.318 58.1183 129.103 57.452C128.888 56.7857 128.809 56.0831 128.87 55.3857Z" fill="#D65155"/>
<path d="M138.861 55.9888C135.54 56.0403 132.234 55.5351 129.079 54.494C129.277 54.1368 129.578 53.8478 129.943 53.6652C130.309 53.4826 130.72 53.415 131.125 53.4713C134.004 53.5482 136.873 53.8639 139.7 54.4154C139.971 54.5088 140.209 54.681 140.381 54.9099C140.554 55.1387 140.655 55.414 140.67 55.7004C140.09 55.9064 139.477 56.0041 138.861 55.9888Z" fill="white"/>
<path d="M124.281 25.4376C124.281 25.4376 121.658 38.5498 110.539 43.6373C110.539 43.6373 99.2104 37.055 100.522 24.4936C102.148 9.02118 124.124 -8.3918 145.995 8.0771C148.119 7.73619 150.427 3.25182 149.745 0C150.639 0.561738 151.342 1.38019 151.764 2.34832C152.185 3.31644 152.304 4.38916 152.106 5.42616C151.907 6.46315 151.401 7.41615 150.652 8.1605C149.903 8.90486 148.947 9.40591 147.909 9.59812C151.479 10.0955 154.719 11.9527 156.952 14.7821C159.185 17.6115 160.239 21.1941 159.894 24.782C159.782 27.0441 158.84 29.1855 157.248 30.7967C155.656 32.4078 153.526 33.3755 151.266 33.5147H147.411C144.428 32.1479 142.017 29.7827 140.592 26.8275C140.963 29.0551 141.737 31.1967 142.874 33.1476C143.084 33.541 142.612 34.2228 139.386 33.541C135.683 32.2672 132.588 29.6584 130.706 26.2244C131.411 28.4761 132.351 30.6473 133.512 32.7018C133.512 33.0951 131.807 33.6721 129.29 32.5182C127.887 31.9085 126.679 30.9261 125.796 29.6777C124.913 28.4294 124.389 26.9629 124.281 25.4376Z" fill="#BC664A"/>
<path d="M141.484 35.7435C140.54 35.7435 140.173 37.4743 140.173 39.1264C140.269 41.3643 140.937 43.5402 142.113 45.4465C142.594 46.0218 143.218 46.4603 143.923 46.7181C144.627 46.9758 145.387 47.0438 146.126 46.9151C147.025 47.0542 147.944 46.9949 148.819 46.7412C149.693 46.4875 150.501 46.0456 151.187 45.4465C152.63 43.6385 153.49 41.4344 153.652 39.1264C153.652 37.4743 153.154 35.7435 151.974 35.7435H141.484Z" stroke="#403D4F" stroke-width="0.75" stroke-miterlimit="10"/>
<path d="M133.564 35.7435C134.823 35.7435 135.321 37.4743 135.321 39.1264C135.149 41.4603 134.229 43.6766 132.699 45.4465C131.974 46.0414 131.133 46.4791 130.23 46.7319C129.327 46.9847 128.382 47.0471 127.454 46.9151C125.097 47.2182 122.707 46.6996 120.688 45.4465C118.846 43.8216 117.677 41.5679 117.41 39.1264C117.41 37.4743 118.039 35.7435 119.639 35.7435H133.564Z" stroke="#403D4F" stroke-width="0.75" stroke-miterlimit="10"/>
<path d="M140.383 37.317C139.629 36.7428 138.708 36.4318 137.76 36.4318C136.813 36.4318 135.892 36.7428 135.138 37.317" stroke="#403D4F" stroke-width="0.75" stroke-miterlimit="10"/>
<path d="M119.587 35.7435H116.388C115.706 35.7435 114.919 35.9008 114.919 36.8187V38.2873C114.919 38.6544 117.253 39.3887 117.542 40.2016" stroke="#403D4F" stroke-width="0.75" stroke-miterlimit="10"/>
<path d="M107.943 39.5727L114.919 36.8191" stroke="#403D4F" stroke-width="0.75" stroke-miterlimit="10"/>
<path d="M111.535 45.5779C111.325 42.0114 110.381 37.8417 106.028 38.4711C100.94 39.2578 100.442 53.0256 111.273 51.3735L111.535 45.5779Z" fill="#FBBEAA"/>
<path d="M105.661 46.4958C105.753 46.497 105.842 46.4733 105.921 46.427C106 46.3808 106.064 46.3138 106.107 46.2335C106.222 46.0065 106.394 45.8127 106.605 45.6704C106.816 45.5281 107.06 45.4421 107.314 45.4206C107.616 45.4239 107.913 45.5053 108.175 45.6569C108.437 45.8085 108.655 46.0252 108.808 46.286C108.871 46.3757 108.961 46.4422 109.066 46.4754C109.17 46.5086 109.282 46.5065 109.385 46.4695C109.496 46.4388 109.592 46.3685 109.655 46.2719C109.718 46.1753 109.743 46.059 109.726 45.9451C109.681 44.842 109.337 43.7719 108.733 42.8484C108.128 41.9249 107.284 41.1825 106.291 40.7002C106.224 40.6605 106.149 40.6362 106.072 40.6289C105.995 40.6217 105.917 40.6316 105.844 40.6581C105.771 40.6846 105.705 40.727 105.65 40.7822C105.596 40.8374 105.554 40.904 105.528 40.9772C105.502 41.0505 105.493 41.1285 105.501 41.2057C105.509 41.2829 105.535 41.3574 105.575 41.4237C105.615 41.49 105.67 41.5466 105.735 41.5892C105.8 41.6319 105.873 41.6597 105.95 41.6705C106.539 41.9569 107.064 42.3604 107.492 42.8564C107.921 43.3524 108.244 43.9304 108.441 44.5552C108.075 44.3747 107.668 44.2933 107.261 44.3191C106.837 44.3592 106.429 44.502 106.073 44.735C105.717 44.968 105.422 45.2843 105.216 45.6566C105.158 45.7757 105.148 45.9122 105.187 46.0387C105.226 46.1651 105.311 46.2722 105.425 46.3384L105.661 46.4958Z" fill="#F18380"/>
<g opacity="0.3" filter="url(#filter0_f_110_8)">
<ellipse cx="106.5" cy="14.5" rx="106.5" ry="14.5" transform="matrix(1 0 0 -1 17 527)" fill="#CBCBCB"/>
</g>
<path d="M82.5445 220.601C83.0778 213.886 90.2779 188.14 98.0114 173.473C98.0114 173.473 114.882 175.604 125.746 175.639C137.082 175.676 154.691 173.473 154.691 173.473C159.734 184.891 165.479 209.837 167.152 215.219C168.162 218.386 168.284 221.768 167.507 224.999C166.729 228.231 165.08 231.187 162.74 233.547C156.994 240.068 142.182 247.535 138.764 247.535C124.057 245.434 109.643 241.643 95.8053 236.238C87.9991 232.965 82.0354 227.341 82.5445 220.601Z" fill="#013EA5"/>
<path d="M216.437 80.7679C216.537 78.5833 215.952 76.4221 214.765 74.586C212.936 72.4654 211.565 69.9891 210.74 67.3131C210.105 64.8291 209.091 62.4577 207.734 60.2826C206.764 58.9493 205.31 57.8584 205.31 56.8402C205.31 55.822 207.249 53.8583 210.013 54.4159C211.197 54.7847 212.284 55.4106 213.198 56.2488C214.112 57.087 214.829 58.1168 215.298 59.2645C215.563 58.5652 215.718 57.8293 215.758 57.0826L216.365 42.2218C216.374 41.8365 216.46 41.457 216.618 41.1057C216.777 40.7543 217.004 40.4383 217.286 40.1761C217.569 39.914 217.901 39.7111 218.263 39.5795C218.625 39.4478 219.01 39.3901 219.395 39.4096C220.008 39.4357 220.597 39.6533 221.079 40.0316C221.562 40.4099 221.914 40.93 222.086 41.5187V40.8399C222.179 40.1175 222.542 39.4571 223.102 38.9913C223.662 38.5255 224.378 38.2887 225.105 38.3286C225.832 38.3685 226.518 38.6821 227.023 39.2064C227.529 39.7306 227.818 40.4268 227.831 41.1551V43.2157C228.074 42.5804 228.537 42.0535 229.136 41.731C229.735 41.4086 230.43 41.312 231.094 41.4589C231.758 41.6058 232.347 41.9864 232.754 42.5314C233.161 43.0764 233.358 43.7495 233.31 44.4279V45.7369C233.571 45.2784 233.96 44.9058 234.429 44.6647C234.899 44.4236 235.428 44.3244 235.953 44.3793C236.671 44.4706 237.326 44.8379 237.779 45.4035C238.231 45.9691 238.446 46.6886 238.377 47.4097L237.189 59.9433C236.411 67.0095 234.95 73.9837 232.825 80.7679C232.8 81.9006 232.537 83.0154 232.055 84.0407C231.573 85.0659 230.881 85.979 230.025 86.721C229.169 87.4631 228.167 88.0177 227.083 88.3494C226 88.681 224.859 88.7824 223.734 88.6468C222.716 88.6808 221.703 88.4954 220.763 88.1033C219.823 87.7112 218.978 87.1215 218.286 86.3742C217.594 85.6269 217.071 84.7395 216.752 83.7722C216.433 82.8049 216.326 81.7803 216.437 80.7679Z" fill="#FBBEAA"/>
<path d="M134.739 476.411C134.739 474.077 135.666 471.839 137.317 470.188C138.967 468.538 141.205 467.611 143.539 467.611C145.873 467.611 148.111 468.538 149.762 470.188C151.412 471.839 152.339 474.077 152.339 476.411V495.539H134.739V476.411Z" fill="#FBBEAA"/>
<path d="M151.71 479.975C153.867 479.975 154.255 480.92 154.886 482.157C155.908 485.452 157.656 488.475 160.001 491.005C163.502 493.987 167.258 496.656 171.225 498.981V509.115H132.049C132.049 509.115 132.316 501.115 132.509 495.466C132.703 489.818 133.261 482.933 133.213 482.205C133.164 481.478 133.212 479.975 134.546 479.975H151.71Z" fill="#302D3B"/>
<path d="M136.921 496.023C136.916 497.267 137.281 498.485 137.969 499.521C138.657 500.557 139.637 501.366 140.786 501.844C141.934 502.322 143.198 502.448 144.419 502.207C145.639 501.965 146.76 501.367 147.639 500.487C148.519 499.608 149.117 498.487 149.359 497.267C149.6 496.046 149.474 494.782 148.996 493.634C148.518 492.485 147.709 491.505 146.673 490.817C145.637 490.129 144.419 489.764 143.175 489.769C141.519 489.775 139.931 490.436 138.76 491.608C137.588 492.779 136.927 494.366 136.921 496.023Z" fill="#0447BA"/>
<path d="M143.176 492.339L141.745 494.448L139.297 495.151L140.848 497.163L140.776 499.708L143.176 498.836L145.576 499.708L145.479 497.163L147.055 495.151L144.606 494.448L143.176 492.339Z" fill="white"/>
<path d="M170.958 498.812C170.958 498.812 176.51 501.745 178.595 503.175C179.56 503.829 180.344 504.717 180.874 505.755C181.404 506.794 181.662 507.95 181.625 509.115H166.4C166.4 509.115 166.716 501.672 170.958 498.812Z" fill="white"/>
<path d="M132.049 509.115V513.309C132.049 514.012 132.679 514.4 133.746 514.4H179.953C180.995 514.4 181.625 514.012 181.625 513.309V509.115H132.049Z" fill="white"/>
<path d="M166.4 495.975C166.535 495.769 166.744 495.623 166.984 495.569C167.224 495.515 167.475 495.556 167.685 495.684C167.79 495.748 167.88 495.833 167.952 495.933C168.023 496.033 168.074 496.146 168.101 496.265C168.128 496.385 168.131 496.509 168.11 496.63C168.088 496.751 168.043 496.866 167.976 496.969L166.352 499.587C166.274 499.723 166.16 499.835 166.024 499.912C165.887 499.989 165.733 500.027 165.576 500.024C165.397 500.021 165.221 499.971 165.067 499.878C164.962 499.814 164.872 499.729 164.8 499.63C164.729 499.53 164.678 499.417 164.651 499.297C164.624 499.177 164.621 499.053 164.643 498.933C164.664 498.812 164.709 498.696 164.776 498.593L166.4 495.975Z" fill="white"/>
<path d="M163.54 493.963C163.619 493.87 163.716 493.795 163.825 493.74C163.934 493.685 164.053 493.652 164.174 493.643C164.296 493.634 164.418 493.649 164.534 493.687C164.65 493.726 164.757 493.786 164.849 493.866C164.941 493.945 165.017 494.042 165.072 494.151C165.127 494.26 165.16 494.379 165.169 494.5C165.178 494.622 165.163 494.744 165.124 494.86C165.086 494.975 165.026 495.083 164.946 495.175L163.055 497.405C162.968 497.507 162.86 497.59 162.739 497.649C162.618 497.707 162.486 497.74 162.352 497.745C162.176 497.741 162.005 497.689 161.858 497.594C161.71 497.499 161.592 497.364 161.516 497.206C161.441 497.047 161.411 496.871 161.43 496.696C161.449 496.522 161.517 496.356 161.625 496.217L163.54 493.963Z" fill="white"/>
<path d="M160.849 491.709C161.042 491.584 161.274 491.534 161.501 491.568C161.727 491.602 161.934 491.717 162.083 491.892C162.231 492.067 162.311 492.29 162.307 492.519C162.303 492.749 162.216 492.969 162.061 493.139L159.904 495.006C159.735 495.149 159.519 495.226 159.298 495.224C159.164 495.229 159.031 495.203 158.91 495.148C158.788 495.093 158.68 495.011 158.595 494.909C158.505 494.825 158.434 494.723 158.385 494.611C158.336 494.498 158.311 494.377 158.311 494.254C158.311 494.131 158.336 494.01 158.385 493.897C158.434 493.785 158.505 493.683 158.595 493.6L160.849 491.709Z" fill="white"/>
<path d="M156.121 490.593L158.546 489.09C158.758 488.964 159.012 488.927 159.252 488.986C159.492 489.045 159.7 489.195 159.83 489.405C159.896 489.51 159.94 489.626 159.96 489.748C159.979 489.87 159.974 489.995 159.945 490.114C159.915 490.234 159.862 490.347 159.789 490.446C159.715 490.545 159.622 490.628 159.515 490.69L157.091 492.193C156.947 492.289 156.779 492.339 156.606 492.339C156.448 492.335 156.294 492.291 156.158 492.21C156.022 492.129 155.909 492.015 155.83 491.878C155.702 491.668 155.661 491.417 155.715 491.177C155.77 490.937 155.915 490.727 156.121 490.593Z" fill="white"/>
<path d="M154.085 487.466L156.8 486.327C157.032 486.23 157.292 486.23 157.524 486.325C157.756 486.421 157.94 486.605 158.036 486.836C158.084 486.949 158.108 487.07 158.108 487.192C158.108 487.315 158.084 487.436 158.036 487.549C157.989 487.662 157.919 487.764 157.832 487.85C157.745 487.935 157.641 488.003 157.527 488.048L154.812 489.188H154.449C154.239 489.176 154.04 489.096 153.881 488.959C153.723 488.822 153.614 488.637 153.573 488.431C153.531 488.226 153.559 488.013 153.651 487.825C153.744 487.637 153.897 487.485 154.085 487.394V487.466Z" fill="white"/>
<path d="M152.388 483.975L155.394 483.223C155.632 483.165 155.883 483.204 156.092 483.332C156.302 483.459 156.452 483.664 156.509 483.902C156.567 484.14 156.528 484.391 156.401 484.6C156.274 484.809 156.069 484.959 155.831 485.017L152.849 485.793H152.631C152.422 485.791 152.219 485.721 152.053 485.594C151.887 485.468 151.767 485.291 151.709 485.09C151.657 484.852 151.699 484.604 151.825 484.396C151.952 484.189 152.153 484.038 152.388 483.975Z" fill="white"/>
<path d="M121.866 354.082C122.133 342.348 130.036 336.676 141.745 336.967C153.454 337.257 161.891 343.391 161.624 355.1L152.339 477.357H134.739L121.866 354.082Z" fill="#FBBEAA"/>
<path d="M120.34 354.009C120.405 351.223 121.019 348.478 122.145 345.929C123.271 343.38 124.888 341.078 126.904 339.155C128.92 337.231 131.295 335.723 133.894 334.718C136.493 333.712 139.264 333.228 142.049 333.293C144.835 333.359 147.581 333.972 150.129 335.098C152.678 336.224 154.98 337.842 156.903 339.858C158.827 341.874 160.335 344.249 161.34 346.847C162.346 349.446 162.83 352.217 162.765 355.003L165.678 481.465H117.75L120.34 354.009Z" fill="#013EA5"/>
<path d="M60.5562 476.411C60.5562 474.077 61.4833 471.839 63.1337 470.188C64.784 468.538 67.0224 467.611 69.3563 467.611C71.6903 467.611 73.9286 468.538 75.579 470.188C77.2293 471.839 78.1565 474.077 78.1565 476.411V495.539H60.5562V476.411Z" fill="#FBBEAA"/>
<path d="M77.5019 479.975C79.6838 479.975 80.0717 480.92 80.6778 482.157C81.7117 485.452 83.4675 488.475 85.8172 491.005C89.3136 493.993 93.0701 496.662 97.0417 498.981V509.115H57.8652C57.8652 509.115 58.1319 501.115 58.3259 495.466C58.5198 489.818 59.0532 482.933 59.0289 482.205C59.0047 481.478 59.0289 479.975 60.338 479.975H77.5019Z" fill="#302D3B"/>
<path d="M62.7142 496.023C62.7094 497.266 63.0735 498.482 63.7605 499.518C64.4476 500.554 65.4265 501.363 66.5734 501.842C67.7203 502.32 68.9835 502.448 70.2031 502.209C71.4227 501.969 72.5437 501.373 73.4243 500.496C74.3048 499.619 74.9052 498.5 75.1495 497.281C75.3937 496.063 75.2708 494.799 74.7963 493.65C74.3218 492.502 73.517 491.52 72.4839 490.829C71.4509 490.137 70.236 489.769 68.9931 489.769C67.332 489.769 65.7386 490.427 64.5618 491.599C63.385 492.771 62.7206 494.362 62.7142 496.023Z" fill="#0447BA"/>
<path d="M68.9687 492.339L67.5384 494.448L65.0898 495.151L66.6657 497.163L66.5929 499.708L68.9687 498.836L71.3688 499.708L71.296 497.163L72.8718 495.151L70.399 494.448L68.9687 492.339Z" fill="white"/>
<path d="M96.7505 498.812C96.7505 498.812 102.326 501.745 104.387 503.175C105.357 503.824 106.145 504.711 106.675 505.751C107.206 506.79 107.461 507.949 107.417 509.115H92.1201C92.1201 509.115 92.5323 501.672 96.7505 498.812Z" fill="white"/>
<path d="M57.8652 509.115V513.309C57.8652 514.012 58.4713 514.4 59.538 514.4H105.793C106.86 514.4 107.466 514.012 107.466 513.309V509.115H57.8652Z" fill="white"/>
<path d="M92.2175 495.975C92.3493 495.766 92.5587 495.618 92.7997 495.564C93.0406 495.509 93.2934 495.552 93.5023 495.684C93.7113 495.816 93.8593 496.025 93.9139 496.266C93.9685 496.507 93.9251 496.76 93.7933 496.969L92.169 499.587C92.0849 499.723 91.967 499.835 91.8267 499.911C91.6865 499.988 91.5287 500.027 91.369 500.024C91.1965 500.024 91.0278 499.974 90.8841 499.878C90.7796 499.814 90.689 499.729 90.6176 499.63C90.5462 499.53 90.4954 499.417 90.4683 499.297C90.4412 499.177 90.4383 499.053 90.4597 498.933C90.4812 498.812 90.5266 498.696 90.5932 498.593L92.2175 495.975Z" fill="white"/>
<path d="M89.3321 493.963C89.4919 493.777 89.7178 493.66 89.9621 493.637C90.2064 493.615 90.4499 493.688 90.6412 493.842C90.8289 494.006 90.9462 494.236 90.9688 494.484C90.9914 494.732 90.9175 494.98 90.7624 495.175L88.8472 497.405C88.7632 497.511 88.6563 497.597 88.5345 497.655C88.4128 497.714 88.2793 497.745 88.1442 497.745C87.9665 497.747 87.792 497.697 87.6419 497.602C87.4918 497.507 87.3724 497.37 87.298 497.209C87.2237 497.047 87.1977 496.868 87.2231 496.692C87.2485 496.516 87.3242 496.351 87.4411 496.217L89.3321 493.963Z" fill="white"/>
<path d="M86.6658 491.709C86.8587 491.584 87.0902 491.534 87.3171 491.568C87.5441 491.602 87.751 491.717 87.8994 491.892C88.0477 492.067 88.1273 492.29 88.1234 492.519C88.1195 492.749 88.0322 492.969 87.878 493.139L85.6961 495.006C85.527 495.149 85.3118 495.226 85.0901 495.224C84.9568 495.227 84.8246 495.2 84.703 495.146C84.5814 495.091 84.4734 495.01 84.387 494.909C84.3005 494.823 84.2319 494.721 84.185 494.609C84.1381 494.496 84.114 494.376 84.114 494.254C84.114 494.132 84.1381 494.012 84.185 493.899C84.2319 493.787 84.3005 493.685 84.387 493.6L86.6658 491.709Z" fill="white"/>
<path d="M81.9384 490.593L84.3627 489.09C84.5718 489.002 84.8057 488.992 85.0217 489.062C85.2376 489.132 85.4212 489.277 85.5389 489.471C85.6565 489.665 85.7004 489.895 85.6625 490.119C85.6246 490.343 85.5074 490.546 85.3324 490.69L82.9081 492.193C82.7644 492.289 82.5957 492.339 82.4233 492.339C82.2617 492.337 82.1033 492.293 81.9632 492.213C81.8232 492.132 81.7061 492.017 81.6233 491.878C81.4973 491.665 81.4598 491.412 81.5187 491.171C81.5776 490.931 81.7283 490.724 81.9384 490.593Z" fill="white"/>
<path d="M216.147 82.3926L206.45 143.266C204.85 150.903 207.322 157.812 216.147 159.024C217.776 159.236 219.431 159.115 221.011 158.668C222.592 158.221 224.065 157.458 225.342 156.424C226.618 155.39 227.671 154.107 228.437 152.654C229.202 151.201 229.665 149.607 229.795 147.969L232.753 82.5138C233.529 76.3319 230.838 72.2106 226.135 71.7015C220.365 71.0712 217.31 74.4895 216.147 82.3926Z" fill="#FBBEAA"/>
<path d="M79.9027 487.466L82.6179 486.327C82.7308 486.28 82.852 486.255 82.9744 486.255C83.0968 486.255 83.2179 486.28 83.3308 486.327C83.4436 486.374 83.5459 486.444 83.6316 486.531C83.7174 486.619 83.7848 486.722 83.8301 486.836C83.9206 487.062 83.9207 487.313 83.8304 487.539C83.7401 487.765 83.5664 487.947 83.3452 488.048L80.6058 489.188C80.494 489.213 80.3781 489.213 80.2664 489.188C80.0797 489.188 79.8972 489.132 79.7419 489.029C79.5866 488.925 79.4654 488.778 79.3936 488.606C79.32 488.387 79.3315 488.148 79.4258 487.937C79.5201 487.726 79.6904 487.558 79.9027 487.466Z" fill="white"/>
<path d="M78.2046 483.975L81.1865 483.224C81.4275 483.165 81.682 483.203 81.8952 483.33C82.1083 483.457 82.263 483.662 82.3259 483.902C82.3548 484.02 82.3601 484.142 82.3417 484.262C82.3232 484.382 82.2812 484.497 82.2181 484.601C82.155 484.704 82.0721 484.795 81.9741 484.866C81.8761 484.938 81.765 484.989 81.6471 485.017L78.6652 485.793H78.4228C78.2044 485.777 77.9985 485.684 77.8405 485.533C77.6824 485.381 77.5819 485.179 77.5561 484.962C77.5304 484.744 77.581 484.524 77.6992 484.34C77.8175 484.156 77.9961 484.018 78.2046 483.951V483.975Z" fill="white"/>
<path d="M70.181 353.718C71.3718 348.215 74.6992 343.41 79.4317 340.36C84.1641 337.309 89.9142 336.263 95.4178 337.451C106.885 339.875 113.067 351.173 110.594 362.639L78.1569 479.369H60.3384L70.181 353.718Z" fill="#FBBEAA"/>
<path d="M70.1809 351.415C71.4966 346.044 74.8552 341.398 79.5427 338.465C84.2302 335.532 89.8768 334.543 95.2822 335.708C100.688 336.873 105.425 340.1 108.488 344.704C111.551 349.308 112.698 354.924 111.685 360.36L100.286 480.331C100.286 480.331 69.4003 482.174 51 480.331L70.1809 351.415Z" fill="#013EA5"/>
<path d="M224.026 136.527L154.4 83.6288C146.279 78.4408 140.752 81.2045 136.437 86.7561C134.466 89.4432 133.552 92.7611 133.87 96.0782C134.187 99.3953 135.713 102.48 138.158 104.744L207.614 155.921C210.061 157.988 213.212 159.031 216.41 158.832C219.607 158.634 222.605 157.209 224.777 154.854L225.093 154.515C226.246 153.285 227.136 151.832 227.71 150.247C228.283 148.661 228.527 146.975 228.427 145.291C228.328 143.608 227.886 141.963 227.129 140.456C226.372 138.949 225.316 137.612 224.026 136.527Z" fill="#FBBEAA"/>
<path d="M138.158 104.72C137.515 104.167 136.93 103.55 136.412 102.878C135.954 101.152 135.895 99.3453 136.24 97.5938C136.584 95.8422 137.323 94.1921 138.4 92.7685C142.061 87.1199 149.746 82.6835 153.164 83.532L156.558 85.2532L194.983 114.345C191.582 122.337 186.988 129.767 181.358 136.381L138.158 104.72Z" fill="#F18380"/>
<path d="M148.654 79.8468L208.907 120.484C208.653 122.562 213.536 79.8468 213.536 79.8468L235.837 81.9284C235.837 81.9284 234.535 125.418 231.253 148.386C229.95 157.501 222.363 160.957 213.367 158.995C208.926 158.026 204.744 156.203 201.023 153.591C185.034 142.368 140.176 110.757 136.509 106.781C130.181 99.9199 130.181 94.7804 133.818 89.1318C137.454 83.4832 145.236 78.9983 148.654 79.8468Z" fill="#013EA5"/>
<path d="M120.339 354.009L107.902 223.801C107.902 209.425 122.715 193.764 144.558 197.134C164.291 200.213 170.303 220.043 168.679 238.832C167.055 257.62 162.667 354.93 162.667 354.93C162.602 357.716 161.988 360.462 160.862 363.01C159.736 365.559 158.118 367.861 156.103 369.784C154.087 371.708 151.712 373.216 149.113 374.221C146.514 375.227 143.743 375.711 140.957 375.646C138.172 375.581 135.426 374.967 132.878 373.841C130.329 372.715 128.027 371.097 126.104 369.081C124.18 367.066 122.672 364.691 121.666 362.092C120.661 359.493 120.177 356.722 120.242 353.936L120.339 354.009Z" fill="#013EA5"/>
<path d="M70.1811 351.415L82.545 221.231C85.1632 207.098 102.739 194.564 123.564 201.982C142.352 208.698 144.534 229.304 139.394 247.462C134.255 265.62 111.685 360.361 111.685 360.361C110.369 365.731 107.011 370.377 102.323 373.31C97.6356 376.243 91.9889 377.233 86.5836 376.068C81.1782 374.903 76.4403 371.675 73.3773 367.071C70.3143 362.468 69.1676 356.851 70.1811 351.415Z" fill="#013EA5"/>
<path d="M139.394 247.462C134.279 265.62 111.685 360.361 111.685 360.361" stroke="#E9E9E9" stroke-width="0.75" stroke-miterlimit="10"/>
<path d="M135.757 77.786C135.757 77.786 146.473 79.6527 148.558 80.2103C149.788 80.499 150.925 81.0953 151.862 81.9433C152.799 82.7913 153.506 83.8633 153.915 85.0588C155.249 88.2346 162.109 109.035 162.74 111.29C163.166 113.773 162.766 116.328 161.6 118.562C160.606 121.278 155.467 133.642 155.467 133.642L154.691 173.472L125.747 178.063L98.0114 173.472C98.0114 173.472 88.3142 99.3864 87.8294 94.8045C87.3445 90.2226 89.6233 81.374 95.1022 80.2588C100.581 79.1436 115.612 77.8345 115.612 77.8345L135.757 77.786Z" fill="#FBBEAA"/>
<path d="M156.05 157.457V171.46C137.092 173.206 106.885 171.97 95.539 171.46C95.0056 167.46 94.448 160.672 93.8662 156.163C109.309 156.551 134.814 157.99 156.05 157.457Z" fill="white"/>
<path d="M56.0712 169.909L87.1263 88.1862C91.2718 79.4588 97.4053 78.877 104.096 81.3013C107.191 82.5358 109.723 84.8671 111.207 87.8499C112.692 90.8327 113.026 94.2579 112.145 97.4713L80.1686 177.739C79.1994 180.793 77.0847 183.353 74.2685 184.88C71.4524 186.408 68.1538 186.786 65.0653 185.933L64.6047 185.812C62.9756 185.368 61.454 184.596 60.1329 183.544C58.8117 182.492 57.7185 181.183 56.9201 179.695C56.1216 178.207 55.6346 176.571 55.4887 174.889C55.3427 173.207 55.5409 171.512 56.0712 169.909Z" fill="#FBBEAA"/>
<path d="M68.9438 136.017L87.126 88.1861C87.6136 87.1372 88.1894 86.1316 88.8472 85.18C91.0744 83.7856 93.6241 82.9904 96.249 82.8715C98.874 82.7525 101.485 83.3139 103.829 84.5012C106.551 85.8258 108.739 88.0403 110.031 90.7781C111.323 93.5159 111.641 96.6128 110.932 99.556C110.932 99.8469 110.763 100.405 110.617 101.156L91.8533 148.308C83.6573 145.353 75.9388 141.212 68.9438 136.017Z" fill="#F18380"/>
<path d="M89.5552 82.6843C84.2633 89.4883 53.646 172.646 53.646 172.646C81.9953 163.574 79.3352 139.057 94.7537 141.651C94.7537 141.651 112.533 99.92 113.212 96.1866C113.92 93.2434 113.603 90.1466 112.311 87.4088C111.019 84.671 108.831 82.4564 106.109 81.1318C98.5209 77.253 94.847 75.8803 89.5552 82.6843Z" fill="#0045BA"/>
<path d="M140.996 77.7705C146.599 78.836 149.131 78.9633 150.554 79.9015C152.805 81.4118 164.397 101.876 164.397 111.111C164.397 119.28 162.42 184.631 160.772 185.696C159.124 186.762 129.622 188.144 129.622 188.144V95.604C132.616 86.3363 138.872 83.7659 140.996 77.7705Z" fill="#0045BA"/>
<path d="M150.554 79.9015C149.131 78.9633 143.541 78.08 137.938 77.0145C135.814 83.0099 132.616 86.3363 129.622 95.604V111.111H164.397C164.397 101.876 152.805 81.4118 150.554 79.9015Z" fill="#9A99A1"/>
<path d="M129.244 74.7466C122.289 74.7466 116.015 71.7226 113.747 70.2107V77.0145C113.999 77.3925 115.939 78.6021 121.684 80.4164C127.43 82.2308 135.67 81.5504 139.072 80.4164V73.6126C139.072 73.9906 137.938 74.7466 129.244 74.7466Z" fill="#034CC9"/>
<path d="M164.386 112.546H129.622V104.986L163.398 105.316C164.057 107.915 164.471 109.771 164.386 112.546Z" fill="#D3D4D2"/>
<path d="M85.1022 181.447C85.1022 173.879 83.9012 155.888 90.6418 138.473C96.5074 139.894 109.255 96.7417 96.5074 82.3585C92.2711 77.5788 88.5473 84.495 89.6642 82.7136C90.7811 80.9323 92.0191 79.1839 93.8432 78.3454C97.0975 76.7665 104.328 77.0312 110.846 77.0312C118.666 86.6204 126.767 88.7551 129.622 95.6198V188.11C129.622 188.11 85.1022 189.015 85.1022 181.447Z" fill="#034CC9"/>
<path d="M85.1022 181.447C85.1022 173.879 83.9012 155.888 90.6418 138.473C96.5074 139.894 109.255 96.7417 96.5074 82.3585C92.2711 77.5788 88.5473 84.495 89.6642 82.7136C90.7811 80.9323 92.0191 79.1839 93.8432 78.3454C97.0975 76.7665 104.328 77.0312 110.846 77.0312C118.666 86.6204 126.767 88.7551 129.622 95.6198V188.11C129.622 188.11 85.1022 189.015 85.1022 181.447Z" fill="#034CC9"/>
<path d="M89.5548 82.6844C88.4378 84.4658 92.2706 77.5787 96.5069 82.3584C101.862 88.4004 102.718 99.519 101.475 110.278H129.622L129.622 81.5504C122.062 80.7944 118.282 79.6605 113.746 77.0145C107.229 77.0145 96.9668 76.5696 93.7126 78.1485C91.8885 78.987 90.6717 80.9031 89.5548 82.6844Z" fill="#A2A0AB"/>
<path d="M129.622 188.144C131.554 187.496 133.244 186.247 134.462 184.569C135.68 182.891 136.366 180.865 136.426 178.768V75.1245H129.622V188.144Z" fill="#034CC9"/>
<path d="M101.898 104.986H136.426V112.546H101.19C101.651 109.144 101.898 107.632 101.898 104.986Z" fill="#CFD1CE"/>
<g style="mix-blend-mode:multiply" opacity="0.4">
<path d="M128.866 81.3955L129.622 81.5504V188.144H128.866V81.3955Z" fill="#013FA9"/>
</g>
<path d="M118.327 131.532L79.7323 179.606C75.1504 185.909 68.3624 188.721 61.5987 183.048C60.3477 181.985 59.3257 180.679 58.5946 179.209C57.8635 177.74 57.4386 176.137 57.3456 174.498C57.2527 172.859 57.4936 171.218 58.0539 169.675C58.6141 168.132 59.4819 166.718 60.6047 165.521L107.102 119.459C111.151 114.732 116.024 113.98 119.563 117.035C123.854 120.841 123.345 125.302 118.327 131.532Z" fill="#FBBEAA"/>
<path d="M104.775 121.981C109.066 117.641 117.09 108.283 119.805 106.005C122.49 103.982 125.423 102.311 128.533 101.035C130.892 100.244 133.331 99.7161 135.806 99.459C137.527 99.2408 138.23 99.7499 138.23 100.792C138.187 101.413 137.989 102.014 137.654 102.539C137.32 103.064 136.859 103.497 136.315 103.798H139.491C140.581 103.798 141.284 104.671 140.775 106.077C140.313 107.006 139.652 107.822 138.839 108.467C138.027 109.113 137.082 109.571 136.072 109.811C136.072 109.811 140.363 110.223 141.454 110.441C142.545 110.659 142.885 111.071 142.885 112.114C142.875 112.834 142.675 113.539 142.304 114.156C141.934 114.774 141.406 115.282 140.775 115.629C139.231 116.256 137.592 116.616 135.927 116.696C135.927 116.696 141.236 118.029 142.303 118.417C143.369 118.805 143.491 119.508 142.933 120.429C142.615 121.078 142.156 121.648 141.59 122.096C141.024 122.545 140.365 122.862 139.66 123.023C137.648 123.556 136.29 122.684 135.563 122.805C134.001 123.308 132.47 123.907 130.981 124.599C128.745 126.825 126.011 128.487 123.005 129.447C120.768 130.386 118.716 131.716 116.945 133.375C116.12 134.149 115.148 134.75 114.087 135.142C113.025 135.534 111.896 135.709 110.766 135.657C109.636 135.605 108.528 135.327 107.507 134.839C106.486 134.351 105.574 133.664 104.823 132.817C100.944 128.696 101.599 125.253 104.775 121.981Z" fill="#FBBEAA"/>
<path d="M119.038 136.737L80.0118 180.622C75.3351 186.855 64.4066 190.281 57.7295 184.506C56.4947 183.424 55.4925 182.103 54.7838 180.622C54.075 179.141 53.6744 177.532 53.6062 175.892C53.5381 174.252 53.8039 172.615 54.3874 171.08C54.9709 169.546 55.86 168.146 57.0008 166.966L104.297 117.46L119.038 136.737Z" fill="#0045BA"/>
<path d="M135.782 103.823C135.789 103.863 135.787 103.904 135.777 103.943C135.767 103.983 135.749 104.02 135.724 104.052C135.699 104.084 135.667 104.11 135.631 104.129C135.595 104.148 135.556 104.159 135.515 104.162L133.527 104.356H132.558C132.218 104.356 131.903 104.477 131.564 104.501C131.205 104.609 130.857 104.747 130.521 104.914L129.406 105.374C127.903 105.98 126.4 106.538 125.285 106.95C124.17 107.362 123.394 107.605 123.394 107.605C123.332 107.63 123.264 107.632 123.201 107.61C123.138 107.587 123.086 107.542 123.055 107.483C123.009 107.424 122.985 107.352 122.985 107.277C122.985 107.203 123.009 107.13 123.055 107.071L124.873 106.126L126.764 105.229C127.443 104.914 128.194 104.598 128.946 104.307L130.085 103.871C130.451 103.705 130.833 103.576 131.224 103.483L132.388 103.362H133.382H134.861H135.418C135.479 103.314 135.557 103.292 135.635 103.301C135.712 103.31 135.782 103.349 135.831 103.41C135.879 103.472 135.901 103.549 135.892 103.627C135.883 103.704 135.843 103.774 135.782 103.823ZM135.321 109.665H134.885C134.522 109.633 134.157 109.633 133.794 109.665L133.043 109.786C132.766 109.821 132.49 109.87 132.218 109.932L130.57 110.465C129.455 110.829 128.364 111.289 127.539 111.629C127.539 111.629 127.273 111.629 127.297 111.75H127.006L126.57 111.871H126.303H126.158C126.084 111.889 126.021 111.934 125.98 111.997C125.939 112.06 125.925 112.137 125.939 112.211C125.95 112.269 125.98 112.322 126.023 112.361C126.067 112.401 126.123 112.424 126.182 112.429H127.418H127.806C128.655 112.211 129.794 111.871 130.909 111.483L132.534 110.877L133.285 110.683L133.94 110.489C134.274 110.39 134.614 110.309 134.958 110.247L135.37 110.126C135.407 110.115 135.441 110.096 135.47 110.072C135.5 110.048 135.524 110.018 135.542 109.984C135.56 109.95 135.572 109.913 135.575 109.875C135.579 109.837 135.575 109.799 135.564 109.762C135.535 109.727 135.498 109.699 135.455 109.682C135.413 109.665 135.367 109.659 135.321 109.665ZM135.321 116.55H134.424C134.182 116.55 133.867 116.55 133.552 116.72L132.558 117.035C131.932 117.255 131.325 117.523 130.74 117.835C130.471 117.961 130.211 118.107 129.964 118.271C129.914 118.329 129.887 118.402 129.887 118.477C129.887 118.553 129.914 118.626 129.964 118.684C130.033 118.757 130.129 118.801 130.23 118.805L131.127 118.659C131.637 118.538 132.291 118.344 132.946 118.126L133.891 117.738L134.715 117.423C134.99 117.301 135.257 117.164 135.515 117.011C135.584 116.97 135.635 116.905 135.657 116.829C135.68 116.752 135.672 116.67 135.637 116.599C135.565 116.553 135.478 116.535 135.394 116.55H135.321Z" fill="#F18380"/>
<path d="M216.922 61.3739C216.001 61.3739 215.928 60.7921 215.516 59.7254C217.577 59.7254 223.565 60.1132 226.183 65.1558C223.541 61.5193 218.474 61.3739 216.922 61.3739ZM221.626 42.1978C221.626 42.1978 221.48 43.0463 221.335 44.2827C221.335 44.913 221.189 45.6645 221.141 46.4403C221.092 47.2161 221.019 48.0646 220.947 48.8646C220.947 50.5616 220.826 52.2343 220.826 53.495C220.826 54.7556 220.826 55.6041 220.826 55.6041C220.825 55.6444 220.834 55.6844 220.85 55.7213C220.866 55.7583 220.889 55.7915 220.919 55.8188C220.949 55.8462 220.984 55.8671 221.022 55.8803C221.06 55.8934 221.1 55.8983 221.141 55.895C221.209 55.8915 221.274 55.866 221.327 55.8223C221.379 55.7786 221.416 55.7191 221.432 55.6526C221.432 55.6526 221.577 54.804 221.698 53.5434C221.819 52.2828 222.013 50.61 222.086 48.9373C222.086 48.0888 222.086 47.2403 222.086 46.513C222.086 45.7857 222.086 44.9857 222.086 44.3554C222.086 43.0706 222.086 42.2462 222.086 42.2462C222.086 42.2059 222.078 42.166 222.062 42.1291C222.046 42.0921 222.022 42.0588 221.993 42.0315C221.963 42.0041 221.928 41.9832 221.89 41.9701C221.852 41.957 221.811 41.952 221.771 41.9553C221.725 41.9821 221.686 42.0212 221.661 42.0682C221.635 42.1153 221.623 42.1685 221.626 42.2221V42.1978ZM227.25 43.8948C227.25 43.8948 227.104 44.6221 226.935 45.6888C226.935 46.2463 226.765 46.8766 226.692 47.5554C226.62 48.2342 226.547 48.9615 226.474 49.6888C226.474 51.1434 226.304 52.5979 226.28 53.6889C226.256 54.7798 226.28 55.5313 226.28 55.5313C226.283 55.5696 226.294 55.6068 226.311 55.641C226.329 55.6751 226.353 55.7055 226.382 55.7303C226.411 55.7551 226.445 55.7739 226.482 55.7855C226.519 55.7971 226.557 55.8014 226.595 55.7981C226.661 55.7935 226.722 55.7671 226.771 55.7231C226.819 55.6791 226.851 55.6201 226.862 55.5556C226.862 55.5556 227.007 54.8283 227.177 53.7616C227.347 52.6949 227.492 51.2161 227.614 49.7858C227.614 49.0585 227.614 48.3312 227.759 47.6524C227.904 46.9736 227.759 46.3191 227.759 45.7615C227.759 44.6706 227.759 43.9433 227.759 43.9433C227.759 43.9029 227.751 43.8631 227.735 43.8261C227.719 43.7891 227.695 43.7559 227.665 43.7285C227.636 43.7011 227.601 43.6803 227.563 43.6672C227.524 43.6541 227.484 43.649 227.444 43.6524C227.39 43.6746 227.343 43.7112 227.309 43.7583C227.275 43.8054 227.254 43.861 227.25 43.919V43.8948ZM232.68 46.1978C232.68 46.1978 232.535 46.8039 232.341 47.7251C232.341 48.1615 232.147 48.6949 232.074 49.2767C232.001 49.8586 231.905 50.4646 231.808 51.0707C231.638 52.3071 231.565 53.4949 231.517 54.4647C231.468 55.4344 231.517 56.0162 231.517 56.0162C231.516 56.0566 231.525 56.0964 231.541 56.1334C231.557 56.1704 231.581 56.2036 231.61 56.231C231.64 56.2584 231.675 56.2792 231.713 56.2923C231.751 56.3054 231.792 56.3105 231.832 56.3071C231.894 56.3039 231.953 56.281 232.001 56.2417C232.049 56.2025 232.083 56.149 232.098 56.089C232.098 56.089 232.268 55.4829 232.438 54.5859C232.608 53.6889 232.85 52.4283 232.995 51.2161C232.995 50.5858 233.117 49.9797 233.165 49.3979C233.214 48.8161 233.165 48.2828 233.165 47.8221C233.165 46.9009 233.165 46.2706 233.165 46.2706C233.165 46.2302 233.157 46.1903 233.141 46.1534C233.125 46.1164 233.101 46.0831 233.072 46.0558C233.042 46.0284 233.007 46.0076 232.969 45.9945C232.931 45.9814 232.89 45.9763 232.85 45.9797C232.805 46.0046 232.767 46.0394 232.737 46.0814C232.708 46.1234 232.688 46.1715 232.68 46.2221V46.1978Z" fill="#F18380"/>
<path d="M57.8037 434.594L60.0717 419.853H106.187L104.675 434.972L57.8037 434.594Z" fill="#CFD1CE"/>
<path d="M118.66 434.594L119.038 419.853H164.397L164.775 434.972L118.66 434.594Z" fill="#CFD1CE"/>
<path d="M72.9236 148.077L80.8614 141.651L96.737 161.685L90.3112 169.244L72.9236 148.077Z" fill="#CFD1CE"/>
<path d="M209.378 115.57L210.512 106.498L234.704 108.388L234.326 117.46L209.378 115.57Z" fill="#CFD1CE"/>
<defs>
<filter id="filter0_f_110_8" x="0" y="481" width="247" height="63" filterUnits="userSpaceOnUse" color-interpolation-filters="sRGB">
<feFlood flood-opacity="0" result="BackgroundImageFix"/>
<feBlend mode="normal" in="SourceGraphic" in2="BackgroundImageFix" result="shape"/>
<feGaussianBlur stdDeviation="8.5" result="effect1_foregroundBlur_110_8"/>
</filter>
</defs>
</svg>
