<svg width="270" height="539" viewBox="0 0 270 539" fill="none" xmlns="http://www.w3.org/2000/svg">
<path d="M150.964 90.498C151.658 90.498 153.134 90.498 154.436 90.9321C154.436 91.9738 152.121 92.813 150.964 93.1023C150.674 92.2342 150.269 90.498 150.964 90.498Z" fill="#013FA9"/>
<path d="M152.954 70.0148H125.277V102.565H152.954V70.0148Z" fill="#FBBEAA"/>
<path d="M125.346 70.0148H152.931V88.175C151.727 88.3247 150.514 88.4014 149.299 88.4049C139.783 88.4049 129.139 85.8073 125.254 76.7272L125.346 70.0148Z" fill="#F18380"/>
<path d="M167.253 45.8552C167.023 55.2571 167.253 62.6821 165.552 69.8543C163.851 77.0264 158.655 82.8883 147.162 82.8883C135.668 82.8883 122.565 79.1413 121.645 64.774C119.76 62.7281 116.703 55.441 116.588 47.2804C116.473 39.1198 117.117 21.8561 135.714 19.2125C154.311 16.5689 167.759 23.3963 167.253 45.8552Z" fill="#FBBEAA"/>
<path d="M157.529 53.2573C157.529 54.5216 158.287 55.556 159.23 55.556C160.172 55.556 160.931 54.5216 160.931 53.2573C160.931 51.993 160.172 50.9585 159.23 50.9585C158.287 50.9585 157.529 51.901 157.529 53.2573Z" fill="#403D4F"/>
<path d="M136.84 53.2573C136.84 54.5216 137.599 55.556 138.541 55.556C139.484 55.556 140.243 54.5216 140.243 53.2573C140.243 51.993 139.484 50.9585 138.541 50.9585C137.599 50.9585 136.84 51.901 136.84 53.2573Z" fill="#403D4F"/>
<path d="M141.001 48.4755C140.84 48.6823 139.622 48.4755 138.702 48.4755C137.783 48.4755 136.013 48.4755 136.013 48.2686C136.013 48.0617 136.886 46.6365 139.185 46.8893C140.84 47.0732 141.438 48.1077 141.001 48.4755Z" fill="#403D4F"/>
<path d="M157.138 48.4754C157.276 48.6823 158.31 48.4754 159.115 48.4754C159.919 48.4754 161.413 48.4754 161.413 48.2685C161.207 47.7475 160.818 47.3198 160.318 47.0658C159.819 46.8118 159.243 46.7491 158.701 46.8893C157.276 47.0732 156.885 48.1076 157.138 48.4754Z" fill="#403D4F"/>
<path d="M150.356 62.774C151.965 62.774 153.253 61.7166 153.299 60.958L152.77 54.4755C152.753 54.3148 152.673 54.1673 152.549 54.0643C152.424 53.9613 152.264 53.9108 152.103 53.9238C152.025 53.9296 151.948 53.9509 151.878 53.9864C151.808 54.0219 151.745 54.071 151.694 54.1308C151.642 54.1907 151.603 54.26 151.579 54.3349C151.555 54.4099 151.545 54.4889 151.552 54.5674L152.057 60.82C151.825 61.072 151.539 61.2688 151.221 61.3961C150.903 61.5233 150.56 61.5779 150.218 61.5556C150.138 61.5494 150.057 61.5595 149.981 61.5853C149.904 61.611 149.834 61.652 149.774 61.7057C149.714 61.7594 149.665 61.8247 149.631 61.8977C149.597 61.9706 149.578 62.0498 149.575 62.1303C149.574 62.2934 149.636 62.4505 149.747 62.57C149.858 62.6894 150.01 62.7623 150.172 62.774H150.356Z" fill="#F18380"/>
<path d="M126.628 50.1305C126.628 59.4062 122.031 55.9581 122.031 55.9581C120.881 52.5099 118.879 53.9927 116.247 53.9927C113.615 53.9927 113.953 52.0756 111.321 45.754C109.215 40.6967 111.643 32.661 113.222 30.7159C110.604 27.2861 114.154 25.2429 114.031 25.7628C113.222 29.1902 116.028 25.7455 117.433 24.3943C132.443 9.96159 161.533 16.8668 161.533 16.8668L166.339 22.1839L161.037 22.7339C161.037 22.7339 167.002 23.1464 165.334 25.9567C163.946 28.2973 168.971 32.661 168.971 32.661L179.5 33.6335C179.5 33.6335 172.656 40.9277 163.181 41.9002C152.509 42.9955 141.07 38.01 141.07 38.01L145.282 42.8728C145.282 42.8728 134.637 40.7017 131.189 42.4988C128.984 43.6482 126.628 45.9839 126.628 50.1305Z" fill="#7D4A40"/>
<path d="M122.151 57.625C122.036 55.0044 121.622 51.1424 117.898 51.0505C114.174 50.9585 113.691 53.763 113.806 58.1767C113.921 62.5903 118.404 66.3373 122.335 64.8201L122.151 57.625Z" fill="#FBBEAA"/>
<path d="M116.679 60.7969C116.84 60.7688 116.984 60.6781 117.079 60.5447C117.173 60.4112 117.212 60.2458 117.185 60.0843C117.185 59.9546 117.222 59.8275 117.291 59.7177C117.36 59.6079 117.459 59.5198 117.576 59.4636C117.81 59.3065 118.086 59.2226 118.369 59.2226C118.651 59.2226 118.927 59.3065 119.162 59.4636C119.264 59.52 119.379 59.5495 119.495 59.5495C119.612 59.5495 119.727 59.52 119.829 59.4636C119.922 59.4017 119.997 59.3156 120.046 59.2144C120.094 59.1132 120.115 59.0007 120.104 58.8889C119.783 55.1879 117.415 54.4983 117.323 54.4753C117.244 54.4511 117.162 54.4433 117.08 54.4525C116.999 54.4616 116.92 54.4875 116.848 54.5285C116.777 54.5694 116.715 54.6247 116.666 54.6907C116.618 54.7567 116.583 54.832 116.564 54.9121C116.522 55.0645 116.542 55.2275 116.619 55.3654C116.697 55.5033 116.826 55.6048 116.978 55.6477C117.437 55.8556 117.838 56.1746 118.143 56.5759C118.448 56.9773 118.648 57.4483 118.725 57.9464C118.095 57.8438 117.449 57.9746 116.909 58.3142C116.594 58.4989 116.34 58.7709 116.177 59.0973C116.013 59.4238 115.948 59.7906 115.99 60.1533C115.986 60.2428 116.001 60.3321 116.035 60.4151C116.069 60.4981 116.121 60.5727 116.186 60.6339C116.252 60.6951 116.33 60.7413 116.415 60.7694C116.5 60.7976 116.59 60.8069 116.679 60.7969Z" fill="#F18380"/>
<path d="M148.771 71.0497C146.552 70.9641 144.421 70.157 142.702 68.7509" stroke="#73102A" stroke-width="0.5" stroke-miterlimit="10" stroke-linecap="round"/>
<path d="M148.849 66.9814C145.63 65.9239 141.952 64.6826 140.688 66.1768C139.7 67.1882 141.033 71.9467 145.975 72.7742C150.917 73.6018 152.687 70.1996 152.435 68.8893C152.274 68.0848 151.377 67.8319 148.849 66.9814Z" fill="#73102A"/>
<path d="M140.803 66.1081H140.688C139.7 67.1196 141.033 71.878 145.975 72.7056C147.049 72.9548 148.166 72.9548 149.239 72.7056C148.407 71.0517 147.219 69.6025 145.76 68.4619C144.302 67.3212 142.609 66.5174 140.803 66.1081Z" fill="#D65155"/>
<path d="M141.953 65.602C143.255 67.0173 144.909 68.0626 146.746 68.6319C148.583 69.2012 150.538 69.2741 152.412 68.8432C152.228 68.0617 151.309 67.8088 148.849 66.9813C146.666 66.0637 144.321 65.5946 141.953 65.602Z" fill="white"/>
<g opacity="0.3" filter="url(#filter0_f_110_12)">
<ellipse cx="106.5" cy="14.5" rx="106.5" ry="14.5" transform="matrix(1 0 0 -1 17 521.995)" fill="#CBCBCB"/>
</g>
<path d="M161.72 427.833C161.72 427.833 160.595 475.322 160.314 482.426C160.032 489.529 155.509 491.462 148.221 492.091C140.933 492.72 137.863 486.967 136.832 482.402C135.801 477.838 129.567 431.28 129.567 431.28L161.72 427.833Z" fill="#FBBEAA"/>
<path d="M114.639 428.981C114.639 428.981 108.441 476.605 107.416 483.695C106.391 490.784 101.708 492.292 94.415 492.127C87.1224 491.962 84.7225 485.862 84.1867 481.175C83.6508 476.488 82.4858 428.981 82.4858 428.981H114.639Z" fill="#FBBEAA"/>
<path d="M95.6385 468.052C98.2854 467.864 100.91 468.643 103.014 470.241C105.117 471.839 106.554 474.145 107.05 476.72L119.232 489.055V496.732H80.1895C80.1895 496.732 82.1498 482.899 82.7098 479.786C83.2699 476.674 85.1602 468.052 95.6385 468.052Z" fill="#FBBEAA"/>
<path d="M107.2 476.948C107.65 476.335 108.291 475.864 108.742 476.146C109.192 476.429 121.172 485.855 121.742 486.327C122.092 486.654 122.357 487.061 122.514 487.512C122.672 487.964 122.716 488.447 122.643 488.919V499.029H79.041C79.041 499.029 80.749 484.088 80.8676 483.263C80.9862 482.438 81.8165 481.354 82.291 481.378C85.2837 482.289 88.3896 482.781 91.519 482.839C95.6782 483.058 99.8271 482.248 103.594 480.482C104.99 479.518 106.21 478.322 107.2 476.948Z" fill="#302D3B"/>
<path d="M115.427 490.836C113.363 489.277 105.939 483.372 103.155 481.152L103.805 480.821C103.892 480.783 103.971 480.726 104.037 480.656C107.006 483.018 113.989 488.592 115.984 490.104C117.67 491.42 118.826 493.318 119.232 495.442L118.327 495.584C117.944 493.701 116.916 492.018 115.427 490.836Z" fill="white"/>
<path d="M80.3303 488.694C83.3716 488.725 86.3146 489.782 88.6887 491.697C90.8345 493.612 92.288 496.191 92.8209 499.029H91.5531C91.0345 496.57 89.7516 494.341 87.8904 492.667C85.7054 490.904 82.9889 489.945 80.1895 489.947L80.3303 488.694Z" fill="white"/>
<path d="M130.078 497.88H79.6784C79.3264 497.88 79.041 498.199 79.041 498.593V504.057C79.041 504.451 79.3264 504.77 79.6784 504.77H130.078C130.43 504.77 130.715 504.451 130.715 504.057V498.593C130.715 498.199 130.43 497.88 130.078 497.88Z" fill="white"/>
<path d="M121.723 486.425C122.145 486.254 124.213 486.829 126.903 489.363C128.023 490.472 128.829 491.836 129.245 493.326C129.661 494.817 129.674 496.384 129.282 497.88H115.787C116.543 489.704 121.3 486.595 121.723 486.425Z" fill="white"/>
<path d="M115.973 485.952C115.836 486.152 115.77 486.408 115.791 486.666C115.811 486.923 115.916 487.16 116.083 487.326C116.164 487.406 116.258 487.467 116.36 487.503C116.461 487.54 116.567 487.553 116.672 487.541C116.778 487.529 116.88 487.492 116.974 487.433C117.067 487.373 117.15 487.293 117.217 487.195L119.046 484.555C119.184 484.355 119.249 484.099 119.228 483.841C119.208 483.584 119.103 483.347 118.937 483.181C118.856 483.098 118.762 483.035 118.661 482.996C118.559 482.958 118.452 482.944 118.346 482.957C118.24 482.969 118.137 483.007 118.044 483.068C117.95 483.129 117.868 483.212 117.802 483.312L115.973 485.952Z" fill="white"/>
<path d="M113.676 484.397C113.539 484.647 113.473 484.967 113.494 485.288C113.515 485.609 113.62 485.905 113.786 486.112C113.867 486.215 113.961 486.294 114.063 486.342C114.165 486.39 114.272 486.407 114.378 486.392C114.484 486.376 114.588 486.329 114.681 486.253C114.775 486.177 114.857 486.073 114.923 485.948L116.756 482.655C116.889 482.403 116.952 482.085 116.931 481.766C116.911 481.447 116.809 481.152 116.646 480.941C116.565 480.837 116.471 480.759 116.37 480.711C116.268 480.663 116.161 480.646 116.054 480.661C115.948 480.676 115.845 480.723 115.751 480.8C115.658 480.876 115.575 480.979 115.51 481.104L113.676 484.397Z" fill="white"/>
<path d="M110.296 481.768C110.115 481.914 110.026 482.103 110.049 482.294C110.071 482.485 110.203 482.662 110.416 482.786C110.636 482.909 110.918 482.967 111.2 482.949C111.483 482.93 111.743 482.836 111.925 482.687L114.321 480.701C114.421 480.634 114.501 480.554 114.556 480.465C114.611 480.376 114.639 480.281 114.639 480.184C114.639 480.088 114.611 479.993 114.556 479.904C114.501 479.815 114.421 479.735 114.321 479.668C114.098 479.548 113.818 479.492 113.537 479.511C113.257 479.529 112.997 479.62 112.812 479.766L110.296 481.768Z" fill="white"/>
<path d="M107.932 479.737C107.865 479.86 107.815 480.002 107.784 480.155C107.753 480.307 107.743 480.468 107.753 480.627C107.763 480.786 107.794 480.94 107.843 481.081C107.893 481.222 107.96 481.347 108.041 481.449C108.195 481.676 108.401 481.804 108.615 481.804C108.829 481.804 109.035 481.676 109.189 481.449L111.009 478.08C111.146 477.826 111.211 477.502 111.19 477.176C111.17 476.85 111.066 476.55 110.9 476.34C110.819 476.238 110.725 476.162 110.624 476.115C110.524 476.069 110.418 476.052 110.313 476.068C110.208 476.083 110.106 476.13 110.013 476.205C109.92 476.28 109.838 476.382 109.771 476.506L107.932 479.737Z" fill="white"/>
<path d="M151.915 468.052C154.563 467.864 157.189 468.643 159.294 470.241C161.399 471.839 162.837 474.145 163.333 476.72L175.499 489.055V496.732H136.457C136.457 496.732 138.395 482.899 138.978 479.786C139.562 476.674 141.43 468.052 151.915 468.052Z" fill="#FBBEAA"/>
<path d="M162.341 476.948C162.792 476.335 163.409 475.864 163.884 476.146C164.359 476.429 176.324 485.855 176.87 486.327C177.416 486.798 177.796 487.387 177.796 488.919V499.029H134.16C134.16 499.029 135.869 484.088 135.988 483.263C136.107 482.438 136.938 481.354 137.413 481.378C140.408 482.289 143.516 482.781 146.648 482.839C150.803 483.062 154.948 482.252 158.708 480.482C160.117 479.523 161.346 478.327 162.341 476.948Z" fill="#302D3B"/>
<path d="M169.398 490.836C167.334 489.277 159.91 483.372 157.126 481.152L157.753 480.821C157.848 480.783 157.934 480.727 158.008 480.656C160.977 483.018 167.96 488.592 169.955 490.104C171.642 491.42 172.797 493.318 173.203 495.442L172.298 495.584C171.904 493.705 170.879 492.026 169.398 490.836Z" fill="white"/>
<path d="M136.585 488.694C139.349 488.725 142.025 489.782 144.183 491.697C146.134 493.612 147.455 496.191 147.94 499.029H146.787C146.31 496.567 145.136 494.338 143.436 492.667C141.46 490.901 138.996 489.941 136.457 489.947L136.585 488.694Z" fill="white"/>
<path d="M184.048 497.88H133.649C133.297 497.88 133.012 498.199 133.012 498.593V504.057C133.012 504.451 133.297 504.77 133.649 504.77H184.048C184.401 504.77 184.686 504.451 184.686 504.057V498.593C184.686 498.199 184.401 497.88 184.048 497.88Z" fill="white"/>
<path d="M176.188 486.425C176.646 486.254 178.886 486.829 181.8 489.363C183.013 490.472 183.886 491.836 184.337 493.326C184.788 494.817 184.802 496.384 184.377 497.88H169.758C170.577 489.704 175.731 486.595 176.188 486.425Z" fill="white"/>
<path d="M171.154 485.952C170.971 486.152 170.884 486.408 170.911 486.666C170.939 486.923 171.079 487.16 171.301 487.326C171.41 487.406 171.536 487.467 171.671 487.503C171.806 487.54 171.948 487.553 172.089 487.541C172.23 487.529 172.367 487.492 172.491 487.433C172.616 487.373 172.727 487.293 172.817 487.195L175.261 484.555C175.438 484.353 175.522 484.098 175.494 483.842C175.467 483.586 175.331 483.35 175.114 483.181C175.007 483.098 174.881 483.035 174.745 482.996C174.61 482.958 174.467 482.944 174.325 482.957C174.183 482.969 174.046 483.007 173.921 483.068C173.796 483.129 173.686 483.212 173.599 483.312L171.154 485.952Z" fill="white"/>
<path d="M168.796 484.394C168.659 484.644 168.593 484.965 168.614 485.286C168.634 485.608 168.739 485.904 168.906 486.111C168.987 486.215 169.081 486.294 169.183 486.342C169.284 486.39 169.392 486.407 169.498 486.392C169.604 486.376 169.707 486.329 169.801 486.253C169.894 486.176 169.977 486.073 170.043 485.948L171.876 482.649C172.009 482.397 172.071 482.078 172.051 481.758C172.031 481.439 171.928 481.143 171.766 480.932C171.598 480.728 171.382 480.63 171.166 480.661C170.95 480.692 170.75 480.848 170.611 481.096L168.796 484.394Z" fill="white"/>
<path d="M165.49 481.77C165.387 481.836 165.305 481.915 165.249 482.002C165.193 482.089 165.165 482.183 165.165 482.278C165.165 482.373 165.193 482.467 165.249 482.554C165.305 482.641 165.387 482.72 165.49 482.786C165.716 482.909 166.006 482.967 166.297 482.949C166.588 482.931 166.856 482.837 167.043 482.688L169.508 480.705C169.692 480.554 169.78 480.362 169.753 480.168C169.725 479.975 169.584 479.797 169.36 479.672C169.25 479.612 169.123 479.567 168.987 479.539C168.85 479.511 168.707 479.502 168.565 479.511C168.423 479.52 168.285 479.547 168.159 479.592C168.033 479.637 167.922 479.697 167.832 479.771L165.49 481.77Z" fill="white"/>
<path d="M163.112 479.737C163.023 479.86 162.955 480.002 162.914 480.155C162.873 480.307 162.859 480.468 162.873 480.627C162.886 480.786 162.927 480.94 162.993 481.081C163.059 481.222 163.149 481.347 163.258 481.449C163.462 481.676 163.736 481.804 164.022 481.804C164.308 481.804 164.583 481.676 164.787 481.449L167.215 478.08C167.397 477.826 167.483 477.502 167.456 477.176C167.429 476.85 167.29 476.55 167.069 476.34C166.961 476.238 166.836 476.162 166.701 476.115C166.567 476.069 166.426 476.052 166.286 476.068C166.146 476.083 166.011 476.13 165.887 476.205C165.763 476.28 165.653 476.382 165.564 476.506L163.112 479.737Z" fill="white"/>
<path d="M86.1226 327.062C85.733 330.094 85.9378 333.174 86.7253 336.125C87.5129 339.076 88.8674 341.839 90.7107 344.254C92.5539 346.668 94.8492 348.687 97.4639 350.193C100.079 351.699 102.961 352.662 105.943 353.027C108.926 353.392 111.95 353.152 114.841 352.319C117.732 351.487 120.432 350.079 122.785 348.178C125.138 346.277 127.097 343.92 128.549 341.243C130.001 338.566 130.918 335.622 131.245 332.583C131.245 332.583 143.075 248.008 145.881 230.922C148.686 213.835 145.717 199.533 126.92 195.464C107.421 191.252 95.2406 205.792 93.7677 220.356C92.2948 234.919 86.1226 327.062 86.1226 327.062Z" fill="#013EA5"/>
<path d="M124.111 328.688C124.035 334.807 126.396 340.704 130.674 345.084C134.951 349.464 140.796 351.967 146.921 352.043C153.046 352.118 158.951 349.76 163.335 345.487C167.72 341.214 170.226 335.376 170.301 329.258C170.301 329.258 173.224 244.1 174.222 226.846C175.22 209.591 170.705 195.754 151.269 193.76C131.12 191.696 120.38 207.431 120.38 222.051C120.38 236.672 124.111 328.688 124.111 328.688Z" fill="#013EA5"/>
<path d="M123.825 328.875C123.863 325.849 124.51 322.859 125.728 320.077C126.946 317.296 128.712 314.776 130.925 312.662C133.138 310.549 135.754 308.883 138.625 307.759C141.496 306.635 144.564 306.076 147.655 306.113C150.747 306.151 153.8 306.784 156.641 307.977C159.483 309.169 162.056 310.898 164.215 313.065C166.374 315.231 168.076 317.793 169.224 320.603C170.371 323.414 170.942 326.418 170.904 329.444L166.061 451.386L128.063 455.393L123.825 328.875Z" fill="#013EA5"/>
<path d="M86.2032 327.412C86.9865 321.364 90.1009 315.873 94.8698 312.131C99.6387 308.389 105.677 306.698 111.673 307.426C117.669 308.154 123.138 311.242 126.893 316.019C130.648 320.796 132.385 326.876 131.727 332.939L113.966 454.244H76.7446L86.2032 327.412Z" fill="#013EA5"/>
<path d="M130.715 331.375L113.49 453.096" stroke="#013EA5" stroke-width="0.75" stroke-miterlimit="10" stroke-linecap="round"/>
<path d="M131.864 332.523C131.864 332.523 143.93 248.455 146.792 231.471" stroke="#F5F5F5" stroke-width="0.75" stroke-miterlimit="10" stroke-linecap="round"/>
<path d="M172.055 203.912C172.055 203.912 172.055 227.873 172.055 229.19C172.055 230.507 160.535 241.806 145.237 241.806C121.713 241.806 93.5591 233.187 93.9738 227.573C94.2502 223.876 94.5958 203.912 94.5958 203.912H172.055Z" fill="#013EA5"/>
<path d="M242.943 105.607L231.807 175.51C229.97 184.279 232.809 192.213 242.943 193.605C244.813 193.848 246.713 193.709 248.529 193.196C250.344 192.683 252.036 191.806 253.501 190.618C254.967 189.431 256.176 187.958 257.055 186.29C257.935 184.621 258.465 182.791 258.616 180.91L262.012 105.747C262.903 98.6479 259.813 93.9153 254.412 93.3307C247.786 92.6069 244.279 96.5322 242.943 105.607Z" fill="#FBBEAA"/>
<path d="M251.99 167.771L172.038 107.027C162.713 101.07 156.365 104.243 151.41 110.618C149.147 113.704 148.098 117.514 148.463 121.323C148.827 125.132 150.58 128.674 153.387 131.274L233.144 190.041C235.954 192.415 239.573 193.613 243.244 193.384C246.916 193.156 250.358 191.52 252.853 188.816L253.215 188.427C254.539 187.014 255.562 185.346 256.22 183.525C256.879 181.704 257.159 179.768 257.045 177.835C256.93 175.902 256.423 174.013 255.554 172.282C254.685 170.552 253.472 169.017 251.99 167.771Z" fill="#FBBEAA"/>
<path d="M243.275 103.742C243.39 101.233 242.719 98.7515 241.355 96.643C239.254 94.2079 237.681 91.3644 236.733 88.2915C236.004 85.4391 234.84 82.716 233.281 80.2183C232.168 78.6872 230.498 77.4345 230.498 76.2653C230.498 75.0961 232.725 72.8412 235.898 73.4815C237.258 73.9049 238.507 74.6236 239.556 75.5862C240.605 76.5487 241.428 77.7312 241.967 79.0492C242.271 78.2462 242.449 77.4011 242.496 76.5437L243.192 59.4788C243.202 59.0364 243.302 58.6006 243.483 58.1971C243.665 57.7937 243.926 57.4307 244.25 57.1297C244.575 56.8287 244.956 56.5957 245.372 56.4445C245.788 56.2934 246.23 56.2271 246.672 56.2495C247.375 56.2795 248.052 56.5293 248.606 56.9637C249.16 57.3981 249.565 57.9954 249.762 58.6714V57.8919C249.869 57.0624 250.286 56.304 250.929 55.7691C251.572 55.2343 252.394 54.9624 253.229 55.0082C254.064 55.054 254.851 55.4141 255.432 56.0161C256.012 56.6181 256.344 57.4176 256.359 58.2539V60.6201C256.638 59.8906 257.17 59.2855 257.858 58.9152C258.545 58.5449 259.343 58.4341 260.106 58.6028C260.868 58.7715 261.545 59.2085 262.012 59.8343C262.479 60.4601 262.706 61.233 262.651 62.0121V63.5153C262.951 62.9887 263.397 62.5609 263.936 62.284C264.475 62.0071 265.083 61.8933 265.685 61.9563C266.511 62.0611 267.262 62.4829 267.782 63.1324C268.302 63.7819 268.548 64.6081 268.469 65.4361L267.105 79.8286C266.212 87.9429 264.533 95.9514 262.094 103.742C262.065 105.043 261.763 106.323 261.21 107.5C260.656 108.677 259.862 109.726 258.878 110.578C257.895 111.43 256.745 112.067 255.501 112.448C254.256 112.829 252.946 112.945 251.655 112.789C250.486 112.828 249.322 112.615 248.243 112.165C247.163 111.715 246.193 111.038 245.398 110.18C244.604 109.321 244.003 108.302 243.636 107.192C243.27 106.081 243.147 104.904 243.275 103.742Z" fill="#FBBEAA"/>
<path d="M165.439 102.684L234.628 149.348C234.337 151.735 239.944 102.684 239.944 102.684L265.553 105.074C265.553 105.074 264.057 155.014 260.288 181.388C258.793 191.855 250.08 195.825 239.75 193.571C234.65 192.458 229.848 190.365 225.575 187.366C207.215 174.479 155.704 138.179 151.493 133.613C144.227 125.734 144.227 119.833 148.402 113.346C152.578 106.86 161.514 101.71 165.439 102.684Z" fill="#013EA5"/>
<path d="M243.832 81.4714C242.775 81.4714 242.691 80.8033 242.218 79.5784C244.584 79.5784 251.46 80.0238 254.467 85.8142C251.432 81.6385 245.614 81.4714 243.832 81.4714ZM249.233 59.4513C249.233 59.4513 249.066 60.4256 248.899 61.8454C248.899 62.5692 248.732 63.4321 248.676 64.323C248.621 65.2138 248.537 66.1881 248.454 67.1068C248.454 69.0555 248.314 70.9764 248.314 72.424C248.314 73.8716 248.314 74.8459 248.314 74.8459C248.314 74.8922 248.324 74.9381 248.342 74.9805C248.361 75.023 248.388 75.0611 248.422 75.0925C248.456 75.1239 248.496 75.148 248.54 75.163C248.584 75.1781 248.63 75.1838 248.676 75.1799C248.755 75.176 248.83 75.1467 248.89 75.0965C248.95 75.0463 248.992 74.978 249.01 74.9016C249.01 74.9016 249.177 73.9272 249.317 72.4796C249.456 71.032 249.678 69.1112 249.762 67.1903C249.762 66.216 249.762 65.2416 249.762 64.4065C249.762 63.5713 249.762 62.6527 249.762 61.9289C249.762 60.4535 249.762 59.5069 249.762 59.5069C249.762 59.4606 249.753 59.4148 249.734 59.3723C249.716 59.3299 249.689 59.2917 249.654 59.2603C249.62 59.2289 249.58 59.2049 249.536 59.1898C249.493 59.1748 249.446 59.169 249.4 59.1729C249.347 59.2036 249.303 59.2485 249.273 59.3025C249.244 59.3565 249.23 59.4176 249.233 59.4791V59.4513ZM255.692 61.4C255.692 61.4 255.525 62.2351 255.33 63.46C255.33 64.1003 255.135 64.824 255.051 65.6035C254.968 66.383 254.884 67.2182 254.801 68.0533C254.801 69.7236 254.606 71.3939 254.578 72.6466C254.55 73.8994 254.578 74.7624 254.578 74.7624C254.582 74.8063 254.594 74.8491 254.614 74.8883C254.634 74.9275 254.662 74.9624 254.695 74.9908C254.729 75.0193 254.768 75.0408 254.81 75.0542C254.852 75.0676 254.896 75.0725 254.94 75.0686C255.015 75.0634 255.086 75.0331 255.141 74.9826C255.197 74.9321 255.234 74.8643 255.246 74.7902C255.246 74.7902 255.413 73.955 255.608 72.7301C255.803 71.5053 255.97 69.8072 256.109 68.1647C256.109 67.3295 256.109 66.4944 256.276 65.7149C256.443 64.9354 256.276 64.1838 256.276 63.5435C256.276 62.2908 256.276 61.4556 256.276 61.4556C256.276 61.4093 256.267 61.3635 256.248 61.3211C256.23 61.2786 256.203 61.2404 256.169 61.209C256.135 61.1776 256.094 61.1536 256.051 61.1386C256.007 61.1235 255.96 61.1177 255.914 61.1216C255.852 61.1471 255.799 61.1892 255.76 61.2432C255.72 61.2973 255.697 61.3611 255.692 61.4278V61.4ZM261.927 64.0446C261.927 64.0446 261.76 64.7405 261.538 65.7984C261.538 66.2995 261.315 66.912 261.231 67.5801C261.148 68.2482 261.037 68.9442 260.925 69.6401C260.73 71.0599 260.647 72.4239 260.591 73.5375C260.535 74.651 260.591 75.3192 260.591 75.3192C260.591 75.3655 260.6 75.4113 260.619 75.4537C260.637 75.4962 260.665 75.5344 260.699 75.5658C260.733 75.5972 260.773 75.6212 260.817 75.6362C260.86 75.6513 260.907 75.6571 260.953 75.6532C261.024 75.6495 261.092 75.6232 261.147 75.5781C261.202 75.5331 261.242 75.4716 261.259 75.4027C261.259 75.4027 261.454 74.7067 261.649 73.6767C261.844 72.6467 262.122 71.1991 262.289 69.8071C262.289 69.0833 262.428 68.3874 262.484 67.7193C262.54 67.0511 262.484 66.4387 262.484 65.9098C262.484 64.8519 262.484 64.1281 262.484 64.1281C262.484 64.0818 262.475 64.036 262.456 63.9935C262.438 63.9511 262.411 63.9129 262.377 63.8815C262.343 63.85 262.302 63.8261 262.259 63.811C262.215 63.796 262.168 63.7902 262.122 63.794C262.071 63.8227 262.027 63.8626 261.993 63.9109C261.959 63.9591 261.937 64.0143 261.927 64.0724V64.0446Z" fill="#F18380"/>
<path d="M235.17 143.705L236.472 133.288L264.251 135.458L263.817 145.875L235.17 143.705Z" fill="#CFD1CE"/>
<path d="M154.397 96.1321C154.397 96.1321 171.206 105.838 173.829 107.536C176.452 109.235 179.416 111.855 178.881 118.94C178.347 126.025 176.088 221.399 176.088 221.399C167.461 222.859 142.198 222.859 142.198 222.859H139.902H138.179H135.883H134.16H132.438C132.438 222.859 94.985 219.676 94.232 219.239C93.479 218.802 92.7746 218.341 92.8232 217.516C92.8718 216.691 93.3576 119.741 93.6733 115.47C93.7359 113.183 94.4563 110.963 95.7484 109.074C97.0406 107.185 98.85 105.708 100.96 104.819C106.037 102.562 125.104 94.8218 125.104 94.8218L141.119 96.1321H154.397Z" fill="#034CC9"/>
<path d="M154.397 96.1321C154.397 96.1321 171.206 105.838 173.829 107.536C176.452 109.235 179.416 111.855 178.881 118.94C178.347 126.025 176.088 221.399 176.088 221.399C167.461 222.859 153.681 222.859 153.681 222.859H151.385H149.662H147.366H145.643H143.921C143.921 222.859 146.659 219.676 145.906 219.239C145.153 218.802 144.449 218.341 144.497 217.516C144.546 216.691 145.032 119.741 145.347 115.47C145.41 113.183 146.13 110.963 147.422 109.074C148.715 107.185 150.524 105.708 152.634 104.819C157.711 102.562 125.104 94.8218 125.104 94.8218L141.119 96.1321H154.397Z" fill="#0045BA"/>
<path d="M156.305 96.2719C156.305 96.2719 174.888 107.013 177.788 108.893C180.688 110.773 178.37 114.917 178.37 122.381C178.37 132.142 176.648 132.716 176.648 132.716C170.837 135.852 168.295 133.406 161.89 135.014C158.775 135.363 156.358 135.443 154.264 133.402C152.169 131.362 145.643 132.142 145.643 132.142C145.643 132.142 135.815 130.851 131.223 133.402C130.125 134.168 128.884 134.706 127.574 134.983C126.263 135.259 125.233 135.239 123.919 134.983C117.259 133.613 90.6202 125.964 89.7877 125.481C88.9552 124.997 88.1765 124.487 88.2302 123.574C88.2839 122.661 88.821 122.401 89.1701 117.674C89.2392 115.143 90.0356 112.686 91.4643 110.595C92.8929 108.505 94.8932 106.87 97.2262 105.886C102.839 103.388 123.919 94.8218 123.919 94.8218L141.624 95.396L156.305 96.2719Z" fill="#9A99A1"/>
<path d="M143.151 92.2342C135.165 92.2342 127.959 88.7618 125.355 87.0256V94.8386C125.644 95.2726 127.872 96.6616 134.47 98.745C141.068 100.828 150.53 100.047 154.437 98.745V90.9321C154.437 91.3661 153.134 92.2342 143.151 92.2342Z" fill="#034CC9"/>
<path d="M143.585 222.45C145.803 221.706 147.744 220.272 149.143 218.345C150.541 216.418 151.329 214.091 151.398 211.684V92.6682H143.585V222.45Z" fill="#034CC9"/>
<path d="M178.37 135.639H138.991V126.958L178.37 126.975C178.37 130.994 178.37 132.142 178.37 135.639Z" fill="#D3D4D2"/>
<path d="M107.156 126.958H146.804V135.639H106.343C106.872 131.733 107.156 129.997 107.156 126.958Z" fill="#CFD1CE"/>
<g style="mix-blend-mode:multiply" opacity="0.4">
<path d="M142.717 99.8693L143.585 100.047V222.45H142.717V99.8693Z" fill="#013FA9"/>
</g>
<path d="M90.6857 110.649C84.609 118.462 49.4507 213.953 49.4507 213.953C82.0047 203.536 78.95 175.382 96.6552 178.361C96.6552 178.361 117.072 130.441 117.851 126.154C118.665 122.774 118.3 119.218 116.816 116.074C115.333 112.93 112.82 110.387 109.695 108.866C100.981 104.412 96.7625 102.835 90.6857 110.649Z" fill="#0045BA"/>
<path d="M108.163 155.773C113.09 150.79 122.304 140.044 125.422 137.428C128.505 135.105 131.873 133.187 135.444 131.721C138.153 130.813 140.954 130.206 143.796 129.911C145.772 129.661 146.58 130.245 146.58 131.442C146.53 132.156 146.303 132.845 145.919 133.448C145.534 134.051 145.006 134.548 144.38 134.894H148.027C149.28 134.894 150.087 135.897 149.503 137.511C148.972 138.578 148.213 139.515 147.279 140.256C146.346 140.997 145.261 141.523 144.102 141.798C144.102 141.798 149.029 142.271 150.282 142.522C151.535 142.773 151.925 143.246 151.925 144.443C151.914 145.27 151.684 146.079 151.258 146.788C150.833 147.497 150.227 148.081 149.503 148.479C147.729 149.199 145.847 149.613 143.935 149.704C143.935 149.704 150.032 151.235 151.256 151.681C152.481 152.126 152.621 152.934 151.98 153.991C151.615 154.737 151.089 155.391 150.438 155.906C149.788 156.422 149.031 156.785 148.222 156.97C145.911 157.583 144.352 156.58 143.517 156.72C141.723 157.298 139.966 157.986 138.256 158.78C135.688 161.336 132.549 163.245 129.097 164.347C126.528 165.426 124.171 166.953 122.137 168.857C121.19 169.746 120.074 170.436 118.855 170.886C117.637 171.336 116.34 171.538 115.043 171.478C113.745 171.418 112.472 171.099 111.3 170.539C110.128 169.979 109.08 169.189 108.218 168.217C103.764 163.484 104.516 159.531 108.163 155.773Z" fill="#FBBEAA"/>
<path d="M124.541 172.718L79.7264 223.112C74.356 230.27 61.8067 234.203 54.1393 227.572C52.7214 226.33 51.5706 224.813 50.7567 223.112C49.9428 221.412 49.4828 219.564 49.4045 217.68C49.3263 215.797 49.6314 213.917 50.3015 212.155C50.9716 210.393 51.9925 208.786 53.3025 207.43L107.613 150.582L124.541 172.718Z" fill="#0045BA"/>
<path d="M143.768 134.922C143.776 134.968 143.774 135.015 143.763 135.061C143.752 135.106 143.731 135.148 143.702 135.185C143.673 135.222 143.637 135.252 143.595 135.274C143.554 135.296 143.509 135.309 143.462 135.312L141.179 135.535H140.066C139.676 135.535 139.314 135.674 138.925 135.702C138.513 135.825 138.112 135.983 137.728 136.175L136.447 136.704C134.721 137.4 132.995 138.04 131.714 138.513C130.434 138.986 129.543 139.265 129.543 139.265C129.472 139.295 129.393 139.297 129.321 139.271C129.249 139.245 129.189 139.193 129.153 139.126C129.101 139.058 129.073 138.975 129.073 138.889C129.073 138.804 129.101 138.72 129.153 138.652L131.241 137.567L133.413 136.537C134.192 136.175 135.055 135.813 135.918 135.479L137.226 134.978C137.647 134.788 138.085 134.638 138.535 134.532L139.871 134.393H141.012H142.711H143.351C143.421 134.338 143.51 134.313 143.599 134.323C143.688 134.333 143.769 134.379 143.824 134.449C143.88 134.519 143.905 134.608 143.894 134.697C143.884 134.786 143.839 134.867 143.768 134.922ZM143.239 141.631H142.738C142.322 141.594 141.902 141.594 141.486 141.631L140.623 141.77C140.305 141.81 139.989 141.866 139.676 141.937L137.783 142.55C136.503 142.967 135.25 143.496 134.303 143.886C134.303 143.886 133.997 143.886 134.025 144.025H133.691L133.19 144.164H132.884H132.717C132.633 144.184 132.559 144.236 132.513 144.309C132.466 144.382 132.449 144.469 132.466 144.554C132.478 144.621 132.512 144.682 132.562 144.727C132.613 144.772 132.677 144.8 132.744 144.805H134.164H134.61C135.584 144.554 136.892 144.164 138.173 143.719L140.038 143.023L140.901 142.8L141.653 142.578C142.037 142.464 142.427 142.371 142.822 142.299L143.295 142.16C143.337 142.147 143.376 142.126 143.41 142.099C143.444 142.071 143.473 142.036 143.493 141.998C143.514 141.959 143.527 141.916 143.531 141.872C143.535 141.829 143.531 141.785 143.518 141.742C143.485 141.702 143.442 141.67 143.393 141.65C143.345 141.631 143.292 141.624 143.239 141.631ZM143.239 149.537H142.209C141.931 149.537 141.569 149.537 141.207 149.732L140.066 150.094C139.348 150.347 138.65 150.654 137.978 151.013C137.669 151.158 137.371 151.325 137.087 151.514C137.03 151.58 136.999 151.664 136.999 151.75C136.999 151.837 137.03 151.921 137.087 151.987C137.167 152.072 137.277 152.122 137.393 152.126L138.424 151.959C139.008 151.82 139.76 151.597 140.511 151.347L141.597 150.901L142.544 150.539C142.859 150.4 143.165 150.242 143.462 150.066C143.541 150.02 143.599 149.945 143.625 149.857C143.651 149.769 143.642 149.675 143.601 149.593C143.519 149.54 143.42 149.52 143.323 149.537H143.239Z" fill="#F18380"/>
<path d="M71.5869 185.74L80.702 178.361L98.9322 201.366L91.5533 210.047L71.5869 185.74Z" fill="#CFD1CE"/>
<path d="M131.401 35.7479C130.044 39.8179 127.931 43.5946 125.172 46.8791H118.42C118.42 46.8791 113.185 40.8028 112.793 40.3051C112.225 39.6998 111.794 38.98 111.527 38.1939C111.261 37.4078 111.166 36.5738 111.249 35.7479H131.401Z" fill="#676575"/>
<path d="M125.173 46.8792C125.173 59.9747 120.846 78.5947 141.192 82.5325C141.192 82.5325 128.156 81.8442 123.157 75.4274C118.159 69.0106 118.42 46.7745 118.42 46.7745L125.173 46.8792Z" fill="#827F94"/>
<path d="M106.407 37.4243H172.465C172.968 31.4526 172.4 25.4389 170.79 19.6668C168.173 12.1762 162.938 3.00935 141.032 3.00935C119.127 3.00935 111.458 13.2762 109.914 21.0549C108.37 28.8337 109.103 31.3742 108.187 32.2123C107.271 33.0504 106.407 33.0766 106.407 34.3338V37.4243Z" fill="#EFEFEF"/>
<path d="M141.032 3.00948C145.809 2.92266 150.575 3.50449 155.191 4.73809H155.4L156.212 4.99999C158.423 5.68144 160.528 6.66879 162.467 7.93339C163.783 13.3649 164.129 18.9865 163.487 24.5385H156.212L146.528 22.8884C146.528 22.8884 143.466 7.17385 132.579 3.50711C135.381 3.13906 138.206 2.97276 141.032 3.00948Z" fill="#D8D8D8"/>
<path d="M139.514 0.495087H154.301C155.871 0.495087 163.487 6.41425 163.487 26.6861H146.659C146.659 20.7145 145.612 5.07851 136.19 3.11419C136.216 3.16657 137.629 0.495087 139.514 0.495087Z" fill="#EFEFEF"/>
<path d="M183.012 37.4242V33.6003C183.01 33.0522 182.895 32.5104 182.674 32.0088C182.453 31.5072 182.131 31.0567 181.728 30.6854C181.325 30.3141 180.85 30.0301 180.332 29.8512C179.814 29.6722 179.265 29.6022 178.719 29.6455H170.266C169.78 29.6682 169.295 29.5864 168.844 29.4057C168.392 29.225 167.985 28.9495 167.649 28.5979C167.099 27.9693 163.357 24.4597 162.912 23.9359C162.606 23.5358 162.209 23.2152 161.753 23.001C161.298 22.7868 160.797 22.6852 160.294 22.7049H147.994C147.491 22.6895 146.993 22.793 146.538 23.0069C146.083 23.2208 145.685 23.5391 145.377 23.9359C144.932 24.4597 141.189 27.9693 140.639 28.5979C140.304 28.9509 139.897 29.2273 139.445 29.4081C138.994 29.5889 138.508 29.6699 138.022 29.6455H130.982C130.436 29.6022 129.887 29.6722 129.369 29.8512C128.852 30.0301 128.376 30.3141 127.973 30.6854C127.571 31.0567 127.249 31.5072 127.028 32.0088C126.807 32.5104 126.692 33.0522 126.69 33.6003V37.4242H183.012Z" fill="#D8D8D8"/>
<defs>
<filter id="filter0_f_110_12" x="0" y="475.995" width="247" height="63" filterUnits="userSpaceOnUse" color-interpolation-filters="sRGB">
<feFlood flood-opacity="0" result="BackgroundImageFix"/>
<feBlend mode="normal" in="SourceGraphic" in2="BackgroundImageFix" result="shape"/>
<feGaussianBlur stdDeviation="8.5" result="effect1_foregroundBlur_110_12"/>
</filter>
</defs>
</svg>
