<svg width="188" height="514" viewBox="0 0 188 514" fill="none" xmlns="http://www.w3.org/2000/svg">
<path d="M102.776 75.7336C102.175 75.7336 100.898 75.7336 99.7715 76.1092C99.7715 77.0104 101.774 77.7363 102.776 77.9867C103.026 77.2357 103.376 75.7336 102.776 75.7336Z" fill="#013FA9"/>
<path d="M121.901 19.5366C120.825 15.6568 121.221 11.5163 123.011 7.91032C124.802 4.30437 127.862 1.48724 131.604 0C133.091 1.48676 132.334 6.23397 132.334 6.23397C137.588 3.77213 143.479 3.01514 149.184 4.06903C149.081 7.71658 147.706 11.2133 145.298 13.9547C148.217 14.2489 151.024 15.2323 153.488 16.8239C153.114 18.543 152.338 20.1489 151.222 21.5093C150.107 22.8697 148.684 23.9458 147.071 24.649C148.714 26.5713 149.844 28.877 150.358 31.3524C147.556 32.1604 144.596 32.2501 141.75 31.6133C142.21 33.0528 142.396 34.5657 142.298 36.0736C139.596 36.4702 136.234 33.5721 133.619 32.7832C131.005 31.9942 128.201 29.641 126.169 27.816C123.474 24.3078 122.667 23.8935 121.901 19.5366Z" fill="#E69D7E"/>
<path d="M136.103 31.293C136.52 38.0487 142.69 50.6286 141.568 59.2101C140.003 71.3128 125.031 71.1824 119.241 71.1824H110.659V33.6221L136.103 31.293Z" fill="#E69D7E"/>
<path d="M124.875 57.2794V79.4244C124.875 79.4244 123.127 87.0408 111.441 87.0408C109.116 87.2368 106.804 86.5352 104.981 85.0799C103.157 83.6247 101.959 81.5263 101.634 79.2157V57.3055L124.875 57.2794Z" fill="#FBBEAA"/>
<path d="M101.634 75.7205C108.964 79.2157 119.684 76.0857 124.875 66.4869V57.2794H101.634V75.7205Z" fill="#F18380"/>
<path d="M87.0793 40.2726C86.9836 45.5691 87.2275 50.8662 87.8097 56.1314C88.7487 63.6696 91.4353 72.0163 104.738 72.0163C118.041 72.0163 124.848 65.991 127.691 56.1314C129.413 50.1844 132.908 41.3681 131.474 31.1955C130.039 21.023 123.909 14.3717 109.459 13.9804C95.0087 13.5891 85.5926 20.084 87.0793 40.2726Z" fill="#FBBEAA"/>
<path d="M115.276 44.8114C115.187 45.2044 114.989 45.5645 114.705 45.8502C114.421 46.1358 114.062 46.3354 113.67 46.426C113.277 46.5165 112.867 46.4944 112.486 46.3621C112.106 46.2297 111.77 45.9926 111.519 45.678C111.267 45.3634 111.109 44.9841 111.064 44.5838C111.018 44.1835 111.087 43.7785 111.261 43.4153C111.436 43.0522 111.709 42.7458 112.05 42.5313C112.391 42.3168 112.786 42.203 113.189 42.203C113.498 42.2354 113.797 42.3289 114.07 42.4779C114.343 42.6269 114.583 42.8286 114.777 43.0713C114.971 43.3139 115.115 43.5926 115.201 43.8913C115.286 44.19 115.312 44.5028 115.276 44.8114Z" fill="#403D4F"/>
<path d="M95.8956 44.8114C95.8072 45.2044 95.6095 45.5645 95.3254 45.8502C95.0413 46.1358 94.6823 46.3354 94.2897 46.426C93.8971 46.5165 93.4869 46.4944 93.1064 46.3621C92.7259 46.2297 92.3904 45.9926 92.1387 45.678C91.8871 45.3634 91.7294 44.9841 91.6838 44.5838C91.6382 44.1835 91.7066 43.7785 91.8812 43.4153C92.0557 43.0522 92.3292 42.7458 92.6703 42.5313C93.0113 42.3168 93.406 42.203 93.8089 42.203C94.118 42.2354 94.4175 42.3289 94.6901 42.4779C94.9627 42.6269 95.2031 42.8286 95.3972 43.0713C95.5913 43.3139 95.7353 43.5926 95.8209 43.8913C95.9064 44.19 95.9318 44.5028 95.8956 44.8114Z" fill="#403D4F"/>
<path d="M108.963 37.4298C108.963 37.4298 108.963 37.4298 109.198 37.1951C109.407 37.0075 109.634 36.8415 109.876 36.6995C110.2 36.5005 110.552 36.351 110.92 36.2561C111.33 36.1043 111.761 36.0163 112.198 35.9953C112.622 35.9429 113.051 35.9429 113.476 35.9953C113.835 36.0066 114.193 36.0502 114.545 36.1257L115.562 36.4126C115.73 36.4667 115.871 36.5841 115.953 36.74C116.036 36.8958 116.055 37.0778 116.006 37.2473C115.966 37.3827 115.884 37.5017 115.771 37.5864C115.658 37.671 115.521 37.7168 115.38 37.7168H114.363C114.059 37.6777 113.753 37.6777 113.45 37.7168C113.102 37.6909 112.754 37.6909 112.406 37.7168C112.067 37.7168 111.728 37.7168 111.415 37.8994C111.102 38.0819 110.841 38.108 110.58 38.1341L110.033 38.3167H109.798C109.635 38.3875 109.451 38.3916 109.285 38.3282C109.119 38.2648 108.985 38.139 108.911 37.9776C108.865 37.8889 108.841 37.7905 108.841 37.6907C108.841 37.5909 108.865 37.4925 108.911 37.4038L108.963 37.4298Z" fill="#403D4F"/>
<path d="M96.2868 38.4209H96.1303L95.7129 38.2644H95.426H95.1391C94.9086 38.1883 94.6733 38.1273 94.4348 38.0819C94.1929 38.0433 93.9464 38.0433 93.7045 38.0819C93.4801 38.0429 93.2507 38.0429 93.0263 38.0819H92.1917C92.0164 38.0751 91.8505 38.0007 91.7289 37.8742C91.6073 37.7478 91.5395 37.5791 91.5396 37.4037C91.5446 37.2743 91.5865 37.149 91.6605 37.0427C91.7345 36.9364 91.8373 36.8535 91.9569 36.8038L92.7655 36.5168C93.0605 36.4204 93.3681 36.3677 93.6784 36.3603C94.0243 36.3085 94.3759 36.3085 94.7217 36.3603C95.4069 36.429 96.0583 36.6914 96.5998 37.1168C96.7963 37.2474 96.9648 37.4158 97.0954 37.6124C97.2258 37.7689 97.2258 37.821 97.2519 37.821V38.0819C97.2663 38.2047 97.2468 38.3291 97.1956 38.4417C97.1444 38.5543 97.0633 38.6507 96.9613 38.7205C96.8592 38.7904 96.74 38.831 96.6165 38.8379C96.493 38.8449 96.37 38.818 96.2607 38.76L96.2868 38.4209Z" fill="#403D4F"/>
<path d="M101.634 53.6798C101.196 53.6899 100.761 53.6041 100.36 53.4284C99.9594 53.2526 99.6017 52.9912 99.3124 52.6625C99.1993 52.5504 99.1107 52.416 99.0523 52.2678C98.9939 52.1196 98.967 51.9609 98.9733 51.8018C98.9733 51.5148 99.4428 47.9153 99.5993 46.585C99.5993 46.4536 99.6516 46.3275 99.7445 46.2346C99.8374 46.1417 99.9635 46.0894 100.095 46.0894C100.226 46.0894 100.352 46.1417 100.445 46.2346C100.538 46.3275 100.59 46.4536 100.59 46.585C100.59 46.7937 100.043 51.5148 99.9645 51.8018C100.181 52.0342 100.444 52.2192 100.736 52.3449C101.027 52.4706 101.342 52.5343 101.66 52.5321C101.791 52.5321 101.917 52.5843 102.01 52.6772C102.103 52.7702 102.156 52.8962 102.156 53.0277C102.156 53.1591 102.103 53.2852 102.01 53.3781C101.917 53.4711 101.791 53.5233 101.66 53.5233L101.634 53.6798Z" fill="#F18380"/>
<path d="M99.1819 58.8183C98.1907 59.0791 97.8517 60.5398 98.4255 62.2352C99.0255 63.4015 99.9988 64.3332 101.19 64.8816C102.382 65.4301 103.722 65.5636 104.999 65.2609C105.691 65.2246 106.369 65.0505 106.994 64.749C107.618 64.4474 108.176 64.0244 108.635 63.5047C109.094 62.985 109.445 62.379 109.667 61.7221C109.889 61.0652 109.978 60.3707 109.928 59.679C109.928 58.5575 109.172 57.8793 107.711 57.8793C104.847 57.9543 101.994 58.2684 99.1819 58.8183Z" fill="#73102A"/>
<path d="M109.981 59.6789C109.981 59.6789 109.981 59.5224 109.981 59.4181C108.068 58.9696 106.056 59.2571 104.346 60.2236C102.635 61.1901 101.35 62.7648 100.747 64.6348C102.097 65.2961 103.616 65.5325 105.103 65.313C105.796 65.2702 106.473 65.0896 107.095 64.7819C107.717 64.4741 108.271 64.0454 108.726 63.5207C109.18 62.996 109.525 62.386 109.74 61.7263C109.956 61.0666 110.038 60.3706 109.981 59.6789Z" fill="#D65155"/>
<path d="M100.069 60.4096C103.364 60.4366 106.641 59.9256 109.772 58.8968C109.58 58.5435 109.285 58.257 108.926 58.0754C108.567 57.8937 108.162 57.8254 107.764 57.8795C104.899 57.9545 102.046 58.2686 99.2342 58.8185C98.9615 58.9102 98.7219 59.0805 98.5456 59.3079C98.3693 59.5352 98.264 59.8096 98.243 60.0966C98.8281 60.309 99.4465 60.415 100.069 60.4096Z" fill="white"/>
<path d="M112.876 27.9614C112.876 27.9614 117.493 43.9246 128.526 48.124C129.807 48.1399 131.073 47.8472 132.217 47.2706C133.361 46.6941 134.35 45.8505 135.099 44.8114C138.03 38.6477 135.027 31.5138 133.619 24.8357C131.767 16.6976 125.813 6.39031 107.972 8.84216C98.4518 7.01631 94.1741 10.2437 87.0794 19.8686C79.9846 29.4934 81.3671 41.264 87.0794 43.4811C92.6978 40.0983 98.0831 36.3426 103.199 32.2391C102.416 34.691 101.582 39.8816 102.417 39.8816C107.238 37.3143 110.957 33.0758 112.876 27.9614Z" fill="#E69D7E"/>
<path d="M127.17 50.0543C127.379 46.5069 128.344 42.2292 132.648 42.9856C137.864 43.7421 138.229 57.4359 127.431 55.7927L127.17 50.0543Z" fill="#FBBEAA"/>
<path d="M133.091 50.9674C133.001 50.9636 132.914 50.9378 132.837 50.8923C132.759 50.8468 132.694 50.7831 132.648 50.7066C132.539 50.4759 132.371 50.2789 132.159 50.1365C131.948 49.9941 131.702 49.9117 131.448 49.898C131.15 49.901 130.857 49.9791 130.597 50.125C130.338 50.2709 130.119 50.4799 129.961 50.7327C129.902 50.8265 129.814 50.8981 129.71 50.9359C129.606 50.9737 129.492 50.9756 129.387 50.9413C129.287 50.8981 129.203 50.8244 129.147 50.7309C129.09 50.6373 129.065 50.5285 129.074 50.4197C129.108 49.3198 129.445 48.2505 130.048 47.33C130.651 46.4095 131.496 45.6734 132.491 45.203C132.554 45.1784 132.621 45.1668 132.688 45.1689C132.755 45.171 132.821 45.1868 132.882 45.2153C132.943 45.2438 132.998 45.2844 133.042 45.3346C133.087 45.3849 133.121 45.4437 133.142 45.5075C133.164 45.5713 133.172 45.6388 133.166 45.7059C133.16 45.7729 133.141 45.8381 133.11 45.8975C133.078 45.9568 133.034 46.0091 132.982 46.0511C132.929 46.0932 132.869 46.1241 132.804 46.142C132.222 46.4284 131.704 46.8306 131.282 47.324C130.861 47.8173 130.544 48.3914 130.352 49.0112C130.715 48.8562 131.105 48.7764 131.5 48.7764C131.921 48.8163 132.327 48.9583 132.682 49.1901C133.036 49.4218 133.329 49.7364 133.534 50.1067C133.567 50.1632 133.588 50.2255 133.597 50.2902C133.605 50.3549 133.601 50.4207 133.584 50.4837C133.567 50.5467 133.538 50.6057 133.498 50.6574C133.458 50.7091 133.408 50.7524 133.352 50.7849C133.287 50.8727 133.196 50.9369 133.091 50.9674Z" fill="#F18380"/>
<path d="M155.927 222.132C155.397 215.461 148.245 189.884 140.562 175.313C140.562 175.313 123.802 177.431 113.009 177.466C101.748 177.502 84.2546 175.313 84.2546 175.313C79.2453 186.657 73.5375 211.439 71.8757 216.785C70.8725 219.931 70.7507 223.291 71.5235 226.501C72.2963 229.711 73.9341 232.648 76.259 234.992C81.9668 241.471 96.6818 248.889 100.078 248.889C114.687 246.802 129.007 243.036 142.754 237.666C150.508 234.414 156.433 228.827 155.927 222.132Z" fill="#013EA5"/>
<path d="M22.9143 83.2174C22.815 81.0472 23.396 78.9002 24.5761 77.0762C26.393 74.9695 27.7542 72.5095 28.574 69.8511C29.2046 67.3834 30.212 65.0276 31.5604 62.8668C32.5237 61.5422 33.9688 60.4585 33.9688 59.447C33.9688 58.4355 32.0421 56.4847 29.2965 57.0386C28.1205 57.405 27.04 58.0268 26.1323 58.8595C25.2247 59.6922 24.5123 60.7152 24.0463 61.8553C23.7832 61.1607 23.629 60.4296 23.5888 59.6878L22.9867 44.9246C22.9775 44.5419 22.8918 44.1649 22.7345 43.8158C22.5772 43.4668 22.3516 43.1528 22.071 42.8924C21.7904 42.632 21.4604 42.4305 21.1007 42.2997C20.7409 42.1689 20.3586 42.1115 19.9762 42.1309C19.3675 42.1569 18.7822 42.373 18.3027 42.7488C17.8232 43.1246 17.4736 43.6413 17.3029 44.2262V43.5518C17.2103 42.8342 16.8496 42.1781 16.2933 41.7154C15.7369 41.2526 15.0261 41.0174 14.3036 41.0571C13.581 41.0967 12.9002 41.4082 12.3979 41.929C11.8955 42.4498 11.6087 43.1414 11.5951 43.8649V45.9121C11.3539 45.2809 10.8939 44.7575 10.2991 44.4371C9.70421 44.1168 9.01404 44.0208 8.35434 44.1668C7.69465 44.3127 7.10936 44.6908 6.70514 45.2322C6.30093 45.7736 6.1047 46.4423 6.15222 47.1162V48.4167C5.893 47.9611 5.50671 47.591 5.0405 47.3515C4.5743 47.112 4.04841 47.0135 3.52713 47.068C2.81327 47.1586 2.16274 47.5235 1.71321 48.0854C1.26369 48.6473 1.05047 49.3621 1.11877 50.0785L2.29884 62.5297C3.0719 69.5495 4.52375 76.4778 6.63392 83.2174C6.65944 84.3427 6.92014 85.4502 7.39925 86.4687C7.87836 87.4872 8.56527 88.3943 9.41586 89.1314C10.2665 89.8686 11.2619 90.4196 12.3382 90.7491C13.4145 91.0786 14.5478 91.1793 15.6652 91.0446C16.6765 91.0783 17.6832 90.8942 18.6171 90.5047C19.551 90.1151 20.3902 89.5293 21.0777 88.7869C21.7653 88.0445 22.2852 87.163 22.6021 86.202C22.919 85.241 23.0254 84.2232 22.9143 83.2174Z" fill="#FBBEAA"/>
<path d="M104.076 476.261C104.076 473.942 103.155 471.719 101.515 470.079C99.8757 468.44 97.6521 467.518 95.3335 467.518C93.0149 467.518 90.7912 468.44 89.1517 470.079C87.5122 471.719 86.5911 473.942 86.5911 476.261V495.263H104.076V476.261Z" fill="#FBBEAA"/>
<path d="M87.2166 479.801C85.0732 479.801 84.6879 480.741 84.0617 481.969C83.0461 485.242 81.3097 488.246 78.9801 490.759C75.5022 493.722 71.771 496.373 67.8294 498.683V508.75H106.748C106.748 508.75 106.483 500.802 106.291 495.191C106.098 489.579 105.544 482.739 105.592 482.017C105.641 481.294 105.592 479.801 104.268 479.801H87.2166Z" fill="#302D3B"/>
<path d="M101.909 495.744C101.913 496.98 101.551 498.189 100.867 499.219C100.184 500.248 99.2098 501.051 98.069 501.526C96.9283 502.002 95.6721 502.127 94.4599 501.887C93.2477 501.647 92.1341 501.053 91.2603 500.179C90.3865 499.305 89.7919 498.191 89.552 496.979C89.3121 495.767 89.4376 494.511 89.9127 493.37C90.3878 492.229 91.191 491.255 92.2205 490.572C93.25 489.888 94.4592 489.526 95.6949 489.531C97.3409 489.537 98.9177 490.194 100.082 491.358C101.245 492.521 101.902 494.098 101.909 495.744Z" fill="#0447BA"/>
<path d="M95.6947 492.084L97.1156 494.179L99.5481 494.877L98.0068 496.876L98.079 499.405L95.6947 498.538L93.3104 499.405L93.4068 496.876L91.8413 494.877L94.2738 494.179L95.6947 492.084Z" fill="white"/>
<path d="M68.095 498.514C68.095 498.514 62.5798 501.428 60.5087 502.849C59.5498 503.499 58.7709 504.381 58.2445 505.412C57.7181 506.444 57.4614 507.592 57.4982 508.75H72.6227C72.6227 508.75 72.3096 501.356 68.095 498.514Z" fill="white"/>
<path d="M106.748 508.75V512.916C106.748 513.615 106.122 514 105.063 514H59.1593C58.1237 514 57.4976 513.615 57.4976 512.916V508.75H106.748Z" fill="white"/>
<path d="M72.6226 495.696C72.4892 495.492 72.2813 495.347 72.043 495.293C71.8046 495.239 71.5547 495.28 71.3461 495.407C71.2423 495.471 71.1523 495.555 71.0813 495.654C71.0104 495.753 70.96 495.866 70.9331 495.985C70.9062 496.104 70.9032 496.227 70.9246 496.347C70.9459 496.467 70.9909 496.581 71.0571 496.684L72.6707 499.285C72.7484 499.42 72.8611 499.531 72.9967 499.607C73.1323 499.683 73.2859 499.722 73.4414 499.718C73.6198 499.716 73.7942 499.666 73.9471 499.574C74.051 499.51 74.141 499.426 74.2119 499.327C74.2829 499.228 74.3333 499.115 74.3603 498.996C74.3872 498.877 74.39 498.754 74.3687 498.634C74.3474 498.514 74.3024 498.4 74.2362 498.297L72.6226 495.696Z" fill="white"/>
<path d="M75.4642 493.697C75.3852 493.605 75.2888 493.53 75.1807 493.476C75.0725 493.421 74.9547 493.389 74.8339 493.38C74.7132 493.371 74.5919 493.386 74.4769 493.424C74.3619 493.462 74.2555 493.522 74.1638 493.601C74.0721 493.68 73.9968 493.776 73.9423 493.884C73.8879 493.993 73.8551 494.11 73.8462 494.231C73.8373 494.352 73.8522 494.473 73.8902 494.588C73.9281 494.703 73.9884 494.81 74.0674 494.901L75.9459 497.117C76.0326 497.219 76.1395 497.301 76.2597 497.359C76.3799 497.417 76.511 497.449 76.6444 497.454C76.8188 497.451 76.9889 497.399 77.1356 497.305C77.2822 497.21 77.3997 497.076 77.4747 496.919C77.5497 496.761 77.5793 496.586 77.5603 496.413C77.5413 496.239 77.4743 496.074 77.3669 495.937L75.4642 493.697Z" fill="white"/>
<path d="M78.137 491.458C77.9454 491.334 77.7155 491.285 77.49 491.318C77.2646 491.352 77.059 491.466 76.9116 491.64C76.7642 491.814 76.6852 492.035 76.6891 492.263C76.693 492.491 76.7796 492.71 76.9329 492.879L79.0762 494.733C79.2443 494.875 79.4581 494.952 79.6783 494.95C79.811 494.955 79.9429 494.929 80.064 494.875C80.1851 494.82 80.2921 494.739 80.3768 494.637C80.4657 494.553 80.5367 494.453 80.5851 494.341C80.6336 494.229 80.6586 494.108 80.6586 493.987C80.6586 493.865 80.6336 493.744 80.5851 493.632C80.5367 493.52 80.4657 493.42 80.3768 493.336L78.137 491.458Z" fill="white"/>
<path d="M82.8341 490.35L80.4258 488.857C80.2143 488.731 79.9623 488.694 79.7237 488.753C79.4851 488.811 79.2789 488.961 79.1494 489.17C79.0842 489.273 79.0406 489.389 79.021 489.51C79.0015 489.631 79.0065 489.755 79.0357 489.874C79.0649 489.993 79.1177 490.105 79.191 490.203C79.2643 490.302 79.3566 490.384 79.4625 490.446L81.8708 491.939C82.0136 492.034 82.1812 492.084 82.3525 492.084C82.5094 492.08 82.6627 492.036 82.7977 491.956C82.9326 491.876 83.0447 491.762 83.1231 491.626C83.2504 491.418 83.2915 491.168 83.2376 490.929C83.1836 490.691 83.0389 490.483 82.8341 490.35Z" fill="white"/>
<path d="M84.8571 487.243L82.1597 486.111C81.9298 486.016 81.6712 486.015 81.4409 486.11C81.2105 486.205 81.0273 486.387 80.9315 486.617C80.8845 486.729 80.8603 486.85 80.8603 486.971C80.8603 487.093 80.8847 487.213 80.9317 487.325C80.9788 487.438 81.0478 487.539 81.1346 487.624C81.2214 487.709 81.3243 487.776 81.4373 487.821L84.1346 488.953H84.4958C84.7036 488.942 84.9018 488.862 85.0593 488.726C85.2168 488.59 85.3247 488.406 85.366 488.202C85.4074 487.998 85.3798 487.786 85.2877 487.6C85.1956 487.413 85.0441 487.262 84.8571 487.171V487.243Z" fill="white"/>
<path d="M86.5427 483.775L83.5564 483.028C83.3201 482.971 83.0706 483.009 82.8628 483.136C82.6551 483.262 82.506 483.466 82.4485 483.703C82.391 483.939 82.4298 484.188 82.5563 484.396C82.6827 484.604 82.8865 484.753 83.1229 484.81L86.0852 485.581H86.3019C86.5093 485.579 86.7104 485.509 86.8753 485.384C87.0402 485.258 87.1601 485.082 87.2171 484.883C87.2687 484.647 87.2274 484.4 87.1018 484.194C86.9763 483.987 86.776 483.837 86.5427 483.775Z" fill="white"/>
<path d="M116.864 354.736C116.599 343.079 108.748 337.444 97.1159 337.733C85.4836 338.022 77.1025 344.115 77.3674 355.747L86.5914 477.2H104.076L116.864 354.736Z" fill="#FBBEAA"/>
<path d="M118.38 354.663C118.316 351.895 117.706 349.168 116.587 346.636C115.468 344.104 113.862 341.817 111.859 339.906C109.856 337.995 107.497 336.498 104.916 335.499C102.334 334.499 99.581 334.019 96.8137 334.083C94.0463 334.148 91.3188 334.758 88.7869 335.876C86.255 336.995 83.9683 338.602 82.0573 340.605C80.1463 342.607 78.6486 344.967 77.6494 347.548C76.6503 350.13 76.1694 352.883 76.2343 355.65L73.34 481.282H120.953L118.38 354.663Z" fill="#013EA5"/>
<path d="M177.771 476.261C177.771 473.942 176.85 471.719 175.211 470.079C173.571 468.44 171.348 467.518 169.029 467.518C166.71 467.518 164.487 468.44 162.847 470.079C161.208 471.719 160.287 473.942 160.287 476.261V495.263H177.771V476.261Z" fill="#FBBEAA"/>
<path d="M160.937 479.801C158.769 479.801 158.384 480.741 157.782 481.969C156.755 485.242 155.011 488.245 152.676 490.759C149.203 493.727 145.471 496.379 141.526 498.683V508.75H180.445C180.445 508.75 180.18 500.802 179.987 495.191C179.794 489.579 179.264 482.739 179.289 482.017C179.313 481.294 179.289 479.801 177.988 479.801H160.937Z" fill="#302D3B"/>
<path d="M175.627 495.744C175.632 496.979 175.27 498.187 174.588 499.216C173.905 500.245 172.933 501.048 171.794 501.524C170.654 502 169.399 502.127 168.188 501.889C166.976 501.651 165.862 501.059 164.988 500.187C164.113 499.316 163.516 498.205 163.274 496.994C163.031 495.783 163.153 494.528 163.625 493.387C164.096 492.246 164.896 491.27 165.922 490.583C166.948 489.897 168.155 489.531 169.39 489.531C171.04 489.531 172.623 490.184 173.792 491.349C174.961 492.514 175.621 494.094 175.627 495.744Z" fill="#0447BA"/>
<path d="M169.414 492.084L170.835 494.179L173.267 494.877L171.702 496.876L171.774 499.405L169.414 498.538L167.03 499.405L167.102 496.876L165.537 494.877L167.993 494.179L169.414 492.084Z" fill="white"/>
<path d="M141.815 498.514C141.815 498.514 136.275 501.428 134.228 502.849C133.265 503.494 132.482 504.375 131.955 505.408C131.428 506.441 131.174 507.591 131.218 508.75H146.415C146.415 508.75 146.005 501.356 141.815 498.514Z" fill="white"/>
<path d="M180.445 508.75V512.916C180.445 513.615 179.842 514 178.783 514H132.831C131.772 514 131.17 513.615 131.17 512.916V508.75H180.445Z" fill="white"/>
<path d="M146.318 495.696C146.187 495.489 145.979 495.342 145.74 495.287C145.5 495.233 145.249 495.276 145.042 495.407C144.834 495.538 144.687 495.746 144.633 495.986C144.579 496.225 144.622 496.476 144.753 496.684L146.366 499.285C146.45 499.42 146.567 499.531 146.706 499.607C146.846 499.683 147.002 499.721 147.161 499.718C147.332 499.719 147.5 499.668 147.643 499.574C147.747 499.51 147.837 499.426 147.907 499.327C147.978 499.228 148.029 499.115 148.056 498.996C148.083 498.877 148.086 498.754 148.064 498.634C148.043 498.514 147.998 498.4 147.932 498.297L146.318 495.696Z" fill="white"/>
<path d="M149.184 493.697C149.025 493.512 148.801 493.396 148.558 493.374C148.316 493.351 148.074 493.424 147.884 493.577C147.697 493.74 147.581 493.968 147.558 494.215C147.536 494.462 147.609 494.707 147.763 494.901L149.666 497.117C149.749 497.222 149.856 497.307 149.977 497.366C150.098 497.424 150.23 497.454 150.364 497.454C150.541 497.456 150.714 497.407 150.863 497.312C151.013 497.218 151.131 497.082 151.205 496.922C151.279 496.761 151.305 496.583 151.279 496.408C151.254 496.234 151.179 496.07 151.063 495.937L149.184 493.697Z" fill="white"/>
<path d="M151.833 491.458C151.641 491.334 151.411 491.285 151.186 491.318C150.961 491.352 150.755 491.466 150.608 491.64C150.46 491.814 150.381 492.035 150.385 492.263C150.389 492.491 150.476 492.71 150.629 492.879L152.796 494.733C152.964 494.875 153.178 494.952 153.398 494.95C153.531 494.953 153.662 494.926 153.783 494.872C153.904 494.818 154.011 494.738 154.097 494.637C154.183 494.552 154.251 494.45 154.298 494.339C154.344 494.227 154.368 494.107 154.368 493.987C154.368 493.866 154.344 493.746 154.298 493.634C154.251 493.523 154.183 493.421 154.097 493.336L151.833 491.458Z" fill="white"/>
<path d="M156.529 490.35L154.121 488.857C153.913 488.769 153.681 488.759 153.466 488.828C153.252 488.898 153.07 489.042 152.953 489.235C152.836 489.428 152.792 489.656 152.83 489.879C152.868 490.101 152.984 490.302 153.158 490.446L155.566 491.939C155.709 492.034 155.877 492.084 156.048 492.084C156.208 492.082 156.366 492.039 156.505 491.959C156.644 491.878 156.76 491.764 156.843 491.626C156.968 491.415 157.005 491.163 156.946 490.924C156.888 490.685 156.738 490.479 156.529 490.35Z" fill="white"/>
<path d="M23.2031 84.8315L32.8365 145.305C34.426 152.892 31.9695 159.755 23.2031 160.96C21.5849 161.17 19.9407 161.05 18.3705 160.606C16.8002 160.162 15.3366 159.403 14.0685 158.376C12.8004 157.349 11.7543 156.075 10.9937 154.631C10.2331 153.187 9.77396 151.604 9.64403 149.977L6.70583 84.9519C5.93516 78.8106 8.60839 74.7164 13.2806 74.2106C19.0125 73.5845 22.0471 76.9803 23.2031 84.8315Z" fill="#FBBEAA"/>
<path d="M158.552 487.243L155.855 486.111C155.742 486.064 155.622 486.04 155.5 486.04C155.379 486.04 155.258 486.065 155.146 486.112C155.034 486.159 154.933 486.228 154.847 486.315C154.762 486.401 154.695 486.504 154.65 486.617C154.56 486.841 154.56 487.092 154.65 487.316C154.74 487.54 154.912 487.721 155.132 487.821L157.853 488.953C157.964 488.978 158.08 488.978 158.191 488.953C158.376 488.953 158.557 488.898 158.712 488.796C158.866 488.693 158.986 488.546 159.058 488.375C159.131 488.158 159.119 487.92 159.026 487.711C158.932 487.501 158.763 487.334 158.552 487.243Z" fill="white"/>
<path d="M160.239 483.775L157.277 483.028C157.037 482.97 156.784 483.008 156.573 483.134C156.361 483.26 156.207 483.464 156.145 483.703C156.116 483.82 156.111 483.941 156.129 484.06C156.147 484.18 156.189 484.294 156.252 484.397C156.314 484.5 156.397 484.589 156.494 484.66C156.591 484.731 156.702 484.782 156.819 484.811L159.781 485.581H160.022C160.239 485.565 160.444 485.473 160.601 485.323C160.758 485.172 160.858 484.971 160.883 484.755C160.909 484.539 160.858 484.321 160.741 484.138C160.623 483.955 160.446 483.818 160.239 483.751V483.775Z" fill="white"/>
<path d="M168.21 354.374C167.027 348.907 163.721 344.134 159.02 341.104C154.318 338.073 148.606 337.034 143.139 338.214C131.747 340.622 125.606 351.845 128.062 363.237L160.286 479.199H177.988L168.21 354.374Z" fill="#FBBEAA"/>
<path d="M168.21 352.086C166.903 346.75 163.566 342.135 158.909 339.221C154.253 336.308 148.643 335.325 143.273 336.482C137.904 337.64 133.197 340.846 130.154 345.419C127.111 349.993 125.972 355.572 126.979 360.973L138.303 480.155C138.303 480.155 168.985 481.986 187.265 480.155L168.21 352.086Z" fill="#013EA5"/>
<path d="M15.3758 138.61L84.5437 86.0595C92.6117 80.9057 98.1026 83.6512 102.39 89.1663C104.347 91.8357 105.255 95.1318 104.94 98.4271C104.624 101.722 103.108 104.787 100.68 107.036L31.6803 157.877C29.2488 159.93 26.1186 160.966 22.9421 160.769C19.7655 160.572 16.7877 159.156 14.6292 156.817L14.3161 156.48C13.1704 155.258 12.2858 153.815 11.7163 152.24C11.1467 150.664 10.904 148.989 11.0032 147.317C11.1024 145.645 11.5412 144.01 12.293 142.513C13.0448 141.016 14.0937 139.688 15.3758 138.61Z" fill="#FBBEAA"/>
<path d="M100.68 107.012C101.318 106.463 101.899 105.849 102.414 105.182C102.869 103.468 102.927 101.673 102.585 99.9328C102.243 98.1927 101.509 96.5534 100.439 95.1392C96.8023 89.5277 89.1678 85.1205 85.7721 85.9634L82.4004 87.6733L44.228 116.574C47.6064 124.513 52.17 131.895 57.7629 138.465L100.68 107.012Z" fill="#F18380"/>
<path d="M90.2519 82.3024L30.3956 122.672C30.6475 124.737 25.7968 82.3024 25.7968 82.3024L3.64184 84.3703C3.64184 84.3703 4.93615 127.574 8.1965 150.391C9.49042 159.446 17.0275 162.88 25.9644 160.93C30.3768 159.967 34.5307 158.157 38.2273 155.562C54.1115 144.413 98.6743 113.01 102.318 109.059C108.604 102.244 108.604 97.1379 104.991 91.5264C101.379 85.9149 93.6477 81.4594 90.2519 82.3024Z" fill="#013EA5"/>
<path d="M118.381 354.663L130.736 225.311C130.736 211.029 116.021 195.471 94.3218 198.819C74.7178 201.877 68.745 221.578 70.3586 240.242C71.9722 258.907 76.3314 355.578 76.3314 355.578C76.3962 358.346 77.0055 361.073 78.1244 363.605C79.2433 366.137 80.85 368.424 82.8526 370.335C84.8553 372.246 87.2148 373.744 89.7963 374.743C92.3778 375.742 95.1308 376.223 97.8982 376.158C100.666 376.093 103.393 375.484 105.925 374.365C108.457 373.246 110.744 371.639 112.655 369.637C114.565 367.634 116.063 365.274 117.062 362.693C118.062 360.111 118.542 357.358 118.478 354.591L118.381 354.663Z" fill="#013EA5"/>
<path d="M168.21 352.086L155.927 222.758C153.326 208.717 135.865 196.266 115.178 203.635C96.5128 210.306 94.3454 230.777 99.4511 248.816C104.557 266.855 126.979 360.973 126.979 360.973C128.286 366.308 131.622 370.924 136.279 373.838C140.935 376.751 146.545 377.734 151.915 376.577C157.285 375.419 161.991 372.213 165.034 367.64C168.077 363.066 169.216 357.486 168.21 352.086Z" fill="#013EA5"/>
<path d="M99.4513 248.816C104.533 266.855 126.979 360.973 126.979 360.973" stroke="#E9E9E9" stroke-width="0.75" stroke-miterlimit="10"/>
<path d="M103.064 80.2551C103.064 80.2551 92.4192 82.1096 90.348 82.6635C89.1257 82.9503 87.9962 83.5427 87.0653 84.3852C86.1344 85.2276 85.4326 86.2925 85.0255 87.4802C83.7009 90.6351 76.8853 111.299 76.2592 113.539C75.8358 116.006 76.2334 118.544 77.3911 120.764C78.3785 123.461 83.4842 135.744 83.4842 135.744L84.2548 175.313L113.009 179.873L140.562 175.313C140.562 175.313 150.196 101.714 150.677 97.1618C151.159 92.61 148.895 83.8195 143.452 82.7117C138.009 81.6039 123.078 80.3033 123.078 80.3033L103.064 80.2551Z" fill="#FBBEAA"/>
<path d="M82.9045 159.403V173.314C101.738 175.048 131.747 173.82 143.018 173.314C143.548 169.34 144.102 162.597 144.68 158.117C129.339 158.503 104.002 159.933 82.9045 159.403Z" fill="white"/>
<path d="M182.227 171.773L151.376 90.587C147.257 81.917 141.164 81.339 134.517 83.7473C131.443 84.9737 128.928 87.2897 127.453 90.2529C125.978 93.2161 125.646 96.6189 126.522 99.8111L158.288 179.552C159.251 182.585 161.351 185.128 164.149 186.646C166.947 188.164 170.224 188.539 173.292 187.692L173.749 187.571C175.368 187.13 176.879 186.363 178.192 185.318C179.504 184.273 180.59 182.972 181.383 181.494C182.177 180.016 182.66 178.391 182.805 176.72C182.95 175.049 182.754 173.365 182.227 171.773Z" fill="#FBBEAA"/>
<path d="M169.439 138.104L151.376 90.5869C150.892 89.5449 150.32 88.5459 149.666 87.6006C147.454 86.2153 144.921 85.4253 142.313 85.3072C139.705 85.189 137.111 85.7468 134.783 86.9263C132.078 88.2421 129.905 90.4421 128.621 93.1619C127.338 95.8817 127.022 98.9583 127.726 101.882C127.726 102.171 127.895 102.725 128.039 103.472L146.68 150.314C154.822 147.378 162.49 143.264 169.439 138.104Z" fill="#F18380"/>
<path d="M148.963 85.1213C154.22 91.8806 184.636 174.492 184.636 174.492C156.473 165.48 159.116 141.124 143.798 143.701C143.798 143.701 126.136 102.244 125.461 98.5348C124.758 95.611 125.073 92.5345 126.357 89.8147C127.64 87.0949 129.814 84.8949 132.518 83.579C140.056 79.7256 143.706 78.362 148.963 85.1213Z" fill="#0045BA"/>
<path d="M97.8601 80.2397C92.2937 81.2982 89.778 81.4247 88.3645 82.3567C86.1283 83.8571 74.6124 104.187 74.6124 113.361C74.6124 121.476 76.577 186.398 78.2141 187.456C79.8513 188.515 109.159 189.888 109.159 189.888V97.9561C106.184 88.7493 99.9697 86.1957 97.8601 80.2397Z" fill="#0045BA"/>
<path d="M88.3645 82.3567C89.778 81.4247 95.3315 80.5472 100.898 79.4887C103.008 85.4447 106.184 88.7493 109.159 97.9561V113.361H74.6124C74.6124 104.187 86.1283 83.8571 88.3645 82.3567Z" fill="#9A99A1"/>
<path d="M109.535 77.2357C116.444 77.2357 122.677 74.2316 124.93 72.7296V79.4887C124.68 79.8642 122.752 81.0658 117.045 82.8683C111.337 84.6707 103.151 83.9948 99.7714 82.8683V76.1092C99.7714 76.4847 100.898 77.2357 109.535 77.2357Z" fill="#034CC9"/>
<path d="M74.6233 114.786H109.159V107.276L75.6053 107.604C74.9506 110.186 74.5389 112.03 74.6233 114.786Z" fill="#D3D4D2"/>
<path d="M153.387 183.235C153.387 175.717 154.58 157.843 147.883 140.543C142.056 141.955 129.392 99.0863 142.056 84.7976C146.265 80.0493 149.964 86.9201 148.854 85.1504C147.745 83.3807 146.515 81.6439 144.703 80.8109C141.47 79.2424 134.287 79.5053 127.812 79.5053C120.043 89.0314 111.996 91.1521 109.159 97.9717V189.854C109.159 189.854 153.387 190.753 153.387 183.235Z" fill="#034CC9"/>
<path d="M153.387 183.235C153.387 175.717 154.58 157.843 147.883 140.543C142.056 141.955 129.392 99.0863 142.056 84.7976C146.265 80.0493 149.964 86.9201 148.854 85.1504C147.745 83.3807 146.515 81.6439 144.703 80.8109C141.47 79.2424 134.287 79.5053 127.812 79.5053C120.043 89.0314 111.996 91.1521 109.159 97.9717V189.854C109.159 189.854 153.387 190.753 153.387 183.235Z" fill="#034CC9"/>
<path d="M148.963 85.1214C150.073 86.891 146.265 80.0492 142.057 84.7975C136.737 90.7998 135.886 101.845 137.121 112.533H109.159L109.159 83.9948C116.669 83.2438 120.425 82.1173 124.931 79.4887C131.405 79.4887 141.6 79.0467 144.833 80.6152C146.645 81.4482 147.854 83.3517 148.963 85.1214Z" fill="#A2A0AB"/>
<path d="M109.159 189.888C107.24 189.244 105.561 188.004 104.351 186.336C103.141 184.669 102.46 182.656 102.4 180.574V77.6112H109.159V189.888Z" fill="#034CC9"/>
<path d="M136.701 107.276H102.4V114.786H137.404C136.947 111.407 136.701 109.905 136.701 107.276Z" fill="#CFD1CE"/>
<g style="mix-blend-mode:multiply" opacity="0.4">
<path d="M109.91 83.841L109.159 83.9948V189.888H109.91V83.841Z" fill="#013FA9"/>
</g>
<path d="M120.38 133.648L158.721 181.406C163.273 187.668 170.016 190.461 176.736 184.826C177.978 183.77 178.994 182.472 179.72 181.012C180.446 179.552 180.868 177.959 180.961 176.331C181.053 174.703 180.814 173.073 180.257 171.54C179.701 170.007 178.838 168.603 177.723 167.413L131.531 121.655C127.509 116.958 122.668 116.212 119.152 119.246C114.889 123.027 115.395 127.459 120.38 133.648Z" fill="#FBBEAA"/>
<path d="M133.843 124.159C129.58 119.848 121.609 110.552 118.911 108.288C116.244 106.279 113.33 104.619 110.241 103.351C107.897 102.566 105.475 102.041 103.016 101.786C101.306 101.569 100.608 102.075 100.608 103.11C100.651 103.727 100.847 104.324 101.18 104.845C101.512 105.367 101.969 105.797 102.51 106.097H99.3554C98.2717 106.097 97.5733 106.964 98.079 108.361C98.5384 109.283 99.195 110.094 100.002 110.735C100.81 111.376 101.748 111.831 102.751 112.069C102.751 112.069 98.4884 112.479 97.4047 112.696C96.3209 112.912 95.9838 113.322 95.9838 114.357C95.9931 115.073 96.1919 115.773 96.56 116.386C96.9281 117 97.4522 117.505 98.079 117.849C99.6133 118.472 101.242 118.83 102.896 118.909C102.896 118.909 97.6214 120.234 96.5617 120.619C95.5021 121.004 95.3816 121.703 95.9355 122.618C96.2512 123.263 96.707 123.829 97.2695 124.274C97.8321 124.72 98.4871 125.035 99.1868 125.195C101.186 125.725 102.534 124.858 103.257 124.978C104.809 125.478 106.329 126.073 107.809 126.76C110.03 128.972 112.746 130.623 115.732 131.577C117.955 132.51 119.994 133.831 121.753 135.479C122.573 136.248 123.538 136.845 124.592 137.234C125.647 137.623 126.768 137.797 127.891 137.746C129.014 137.694 130.115 137.418 131.129 136.933C132.143 136.449 133.049 135.766 133.795 134.925C137.648 130.83 136.998 127.411 133.843 124.159Z" fill="#FBBEAA"/>
<path d="M119.673 138.819L158.443 182.416C163.089 188.608 173.946 192.011 180.579 186.274C181.806 185.199 182.802 183.887 183.506 182.416C184.21 180.945 184.608 179.346 184.675 177.717C184.743 176.087 184.479 174.461 183.899 172.937C183.32 171.412 182.437 170.021 181.303 168.849L134.318 119.668L119.673 138.819Z" fill="#0045BA"/>
<path d="M103.04 106.121C103.033 106.161 103.035 106.201 103.044 106.241C103.054 106.28 103.072 106.316 103.097 106.348C103.122 106.38 103.154 106.406 103.189 106.425C103.225 106.444 103.264 106.455 103.305 106.458L105.279 106.651H106.243C106.58 106.651 106.893 106.771 107.23 106.795C107.586 106.902 107.933 107.039 108.266 107.204L109.374 107.662C110.867 108.264 112.36 108.818 113.468 109.227C114.576 109.637 115.346 109.878 115.346 109.878C115.407 109.903 115.476 109.905 115.538 109.883C115.601 109.861 115.653 109.816 115.684 109.757C115.728 109.698 115.753 109.627 115.753 109.553C115.753 109.479 115.728 109.407 115.684 109.348L113.877 108.409L111.999 107.518C111.324 107.204 110.578 106.891 109.831 106.602L108.699 106.169C108.335 106.004 107.956 105.875 107.567 105.784L106.411 105.663H105.424H103.955H103.401C103.34 105.615 103.263 105.593 103.186 105.602C103.109 105.611 103.039 105.651 102.992 105.711C102.944 105.772 102.922 105.849 102.931 105.926C102.94 106.003 102.979 106.073 103.04 106.121ZM103.497 111.925H103.931C104.291 111.893 104.654 111.893 105.015 111.925L105.761 112.045C106.036 112.08 106.31 112.128 106.58 112.19L108.218 112.72C109.326 113.081 110.409 113.538 111.228 113.876C111.228 113.876 111.493 113.876 111.469 113.996H111.758L112.191 114.116H112.456H112.601C112.674 114.134 112.737 114.178 112.777 114.241C112.818 114.304 112.832 114.38 112.818 114.454C112.807 114.511 112.778 114.564 112.734 114.603C112.691 114.642 112.635 114.666 112.577 114.67H111.349H110.963C110.12 114.454 108.988 114.116 107.881 113.731L106.267 113.129L105.52 112.936L104.87 112.744C104.538 112.645 104.2 112.565 103.859 112.503L103.449 112.382C103.413 112.371 103.379 112.353 103.349 112.329C103.32 112.305 103.296 112.275 103.278 112.242C103.26 112.208 103.249 112.171 103.245 112.134C103.241 112.096 103.245 112.058 103.256 112.021C103.285 111.986 103.322 111.958 103.364 111.941C103.406 111.925 103.452 111.919 103.497 111.925ZM103.497 118.765H104.388C104.629 118.765 104.942 118.765 105.255 118.933L106.243 119.246C106.864 119.465 107.468 119.731 108.049 120.041C108.316 120.166 108.574 120.311 108.82 120.474C108.869 120.531 108.896 120.604 108.896 120.679C108.896 120.754 108.869 120.827 108.82 120.884C108.751 120.957 108.656 121 108.555 121.004L107.664 120.86C107.158 120.739 106.508 120.547 105.857 120.33L104.918 119.945L104.099 119.632C103.827 119.511 103.561 119.374 103.305 119.222C103.236 119.182 103.186 119.117 103.164 119.041C103.142 118.965 103.149 118.884 103.184 118.813C103.256 118.767 103.342 118.75 103.425 118.765H103.497Z" fill="#F18380"/>
<path d="M22.4325 63.9509C23.3477 63.9509 23.4199 63.3729 23.8293 62.3132C21.7822 62.3132 15.8336 62.6985 13.2326 67.7079C15.8577 64.0954 20.8912 63.9509 22.4325 63.9509ZM17.7603 44.9008C17.7603 44.9008 17.9048 45.7438 18.0493 46.972C18.0493 47.5982 18.1939 48.3447 18.242 49.1154C18.2902 49.8861 18.3624 50.729 18.4347 51.5238C18.4347 53.2096 18.555 54.8714 18.555 56.1237C18.555 57.3761 18.555 58.219 18.555 58.219C18.5552 58.259 18.547 58.2987 18.531 58.3355C18.515 58.3722 18.4915 58.4052 18.4621 58.4323C18.4326 58.4595 18.3979 58.4803 18.36 58.4933C18.3221 58.5064 18.2819 58.5113 18.242 58.508C18.1743 58.5046 18.1094 58.4792 18.0572 58.4358C18.0051 58.3924 17.9685 58.3332 17.953 58.2672C17.953 58.2672 17.8085 57.4242 17.6881 56.1719C17.5677 54.9195 17.375 53.2578 17.3027 51.596C17.3027 50.7531 17.3027 49.9102 17.3027 49.1877C17.3027 48.4651 17.3027 47.6704 17.3027 47.0443C17.3027 45.7678 17.3027 44.9489 17.3027 44.9489C17.3026 44.9089 17.3108 44.8692 17.3268 44.8325C17.3428 44.7958 17.3663 44.7627 17.3957 44.7356C17.4251 44.7084 17.4599 44.6877 17.4978 44.6746C17.5357 44.6616 17.5759 44.6566 17.6158 44.6599C17.662 44.6865 17.6999 44.7253 17.7254 44.7721C17.7509 44.8188 17.763 44.8717 17.7603 44.9249V44.9008ZM12.1729 46.5867C12.1729 46.5867 12.3174 47.3091 12.486 48.3688C12.486 48.9227 12.6546 49.5489 12.7269 50.2232C12.7991 50.8976 12.8714 51.6201 12.9436 52.3426C12.9436 53.7876 13.1122 55.2326 13.1362 56.3164C13.1603 57.4001 13.1362 58.1467 13.1362 58.1467C13.1332 58.1847 13.1227 58.2217 13.1053 58.2557C13.0879 58.2896 13.064 58.3197 13.0349 58.3444C13.0058 58.369 12.9721 58.3876 12.9358 58.3992C12.8994 58.4107 12.8612 58.415 12.8232 58.4117C12.7584 58.4072 12.697 58.3809 12.649 58.3372C12.6009 58.2935 12.5689 58.2349 12.5583 58.1708C12.5583 58.1708 12.4138 57.4483 12.2452 56.3886C12.0766 55.3289 11.9321 53.8599 11.8117 52.4389C11.8117 51.7164 11.8117 50.9939 11.6672 50.3196C11.5227 49.6452 11.6672 48.995 11.6672 48.4411C11.6672 47.3573 11.6672 46.6348 11.6672 46.6348C11.6671 46.5947 11.6752 46.5551 11.6912 46.5184C11.7072 46.4817 11.7307 46.4486 11.7602 46.4214C11.7896 46.3943 11.8244 46.3735 11.8623 46.3605C11.9001 46.3475 11.9404 46.3425 11.9803 46.3458C12.0337 46.3679 12.08 46.4043 12.114 46.4511C12.148 46.4978 12.1684 46.5531 12.1729 46.6107V46.5867ZM6.77823 48.8746C6.77823 48.8746 6.9227 49.4767 7.11537 50.3918C7.11537 50.8253 7.30807 51.3552 7.38032 51.9332C7.45257 52.5112 7.54887 53.1133 7.64521 53.7154C7.81379 54.9436 7.8861 56.1237 7.93427 57.0871C7.98244 58.0504 7.93427 58.6284 7.93427 58.6284C7.93441 58.6685 7.92617 58.7081 7.91016 58.7449C7.89416 58.7816 7.87066 58.8146 7.84122 58.8418C7.81178 58.869 7.77703 58.8897 7.73914 58.9027C7.70124 58.9157 7.6611 58.9208 7.62117 58.9174C7.55968 58.9142 7.50081 58.8914 7.45316 58.8525C7.40551 58.8135 7.37152 58.7603 7.35622 58.7007C7.35622 58.7007 7.18767 58.0986 7.01908 57.2075C6.8505 56.3164 6.60964 55.064 6.46514 53.8599C6.46514 53.2337 6.3447 52.6316 6.29654 52.0536C6.24837 51.4756 6.29654 50.9458 6.29654 50.4882C6.29654 49.573 6.29654 48.9468 6.29654 48.9468C6.29639 48.9067 6.30464 48.8671 6.32064 48.8304C6.33665 48.7937 6.36007 48.7606 6.38951 48.7334C6.41895 48.7063 6.45378 48.6855 6.49167 48.6725C6.52956 48.6595 6.5697 48.6545 6.60963 48.6578C6.65409 48.6826 6.69237 48.7172 6.72157 48.7589C6.75077 48.8006 6.77014 48.8484 6.77823 48.8987V48.8746Z" fill="#F18380"/>
<path d="M180.505 434.719L178.252 420.074H132.441L133.943 435.094L180.505 434.719Z" fill="#CFD1CE"/>
<path d="M120.049 434.719L119.673 420.074H74.6124L74.2369 435.094L120.049 434.719Z" fill="#CFD1CE"/>
<path d="M165.485 150.084L157.6 143.701L141.828 163.602L148.212 171.113L165.485 150.084Z" fill="#CFD1CE"/>
<path d="M29.9273 117.791L28.8008 108.778L4.76823 110.656L5.14374 119.668L29.9273 117.791Z" fill="#CFD1CE"/>
<path d="M115.831 32.6494C116.973 36.0748 118.752 39.2533 121.073 42.0175H126.756C126.756 42.0175 131.162 36.9036 131.492 36.4848C131.97 35.9754 132.333 35.3695 132.557 34.708C132.781 34.0464 132.861 33.3445 132.792 32.6494H115.831Z" fill="#676575"/>
<path d="M121.073 42.0176C121.073 53.0389 124.714 68.7096 107.592 72.0237C107.592 72.0237 118.562 71.4444 122.769 66.044C126.976 60.6436 126.756 41.9294 126.756 41.9294L121.073 42.0176Z" fill="#827F94"/>
<path d="M136.866 34.0602H81.2717C80.8484 29.0344 81.3258 23.9732 82.6814 19.1154C84.884 12.8112 89.2893 5.0963 107.725 5.0963C126.161 5.0963 132.615 13.737 133.915 20.2836C135.214 26.8303 134.598 28.9684 135.368 29.6738C136.139 30.3791 136.866 30.4012 136.866 31.4592V34.0602Z" fill="#EFEFEF"/>
<path d="M107.725 5.09642C103.705 5.02334 99.6941 5.51301 95.8092 6.55122H95.633L94.9502 6.77165C93.089 7.34516 91.3171 8.17612 89.6859 9.24042C88.5781 13.8116 88.2873 18.5428 88.8268 23.2154H94.9502L103.1 21.8267C103.1 21.8267 105.677 8.60118 114.84 5.51522C112.482 5.20547 110.104 5.06551 107.725 5.09642Z" fill="#D8D8D8"/>
<path d="M109.003 2.98029H96.5584C95.2368 2.98029 88.8271 7.96191 88.8271 25.0229H102.99C102.99 19.9972 103.871 6.83774 111.801 5.18454C111.779 5.22863 110.589 2.98029 109.003 2.98029Z" fill="#EFEFEF"/>
<path d="M72.3952 34.0602V30.8419C72.3968 30.3806 72.4935 29.9246 72.6794 29.5025C72.8653 29.0804 73.1363 28.7012 73.4754 28.3887C73.8145 28.0762 74.2144 27.8372 74.6501 27.6866C75.0858 27.536 75.548 27.4771 76.0075 27.5135H83.122C83.5308 27.5326 83.9389 27.4638 84.3189 27.3117C84.6988 27.1596 85.0418 26.9278 85.3246 26.6318C85.7872 26.1028 88.937 23.1491 89.3114 22.7082C89.5687 22.3716 89.9032 22.1017 90.2865 21.9214C90.6698 21.7411 91.0908 21.6557 91.514 21.6722H101.866C102.289 21.6593 102.709 21.7464 103.092 21.9264C103.474 22.1064 103.809 22.3743 104.069 22.7082C104.444 23.1491 107.593 26.1028 108.056 26.6318C108.338 26.9289 108.681 27.1615 109.061 27.3137C109.441 27.4659 109.85 27.5341 110.259 27.5135H116.184C116.643 27.4771 117.105 27.536 117.541 27.6866C117.977 27.8372 118.377 28.0762 118.716 28.3887C119.055 28.7012 119.326 29.0804 119.512 29.5025C119.698 29.9246 119.794 30.3806 119.796 30.8419V34.0602H72.3952Z" fill="#D8D8D8"/>
<path d="M119.336 97.0418L120.061 97.0493L120.051 97.9541L120.825 97.962L120.834 97.0572L121.559 97.0647L121.533 99.5368L120.808 99.5293L120.819 98.5503L120.045 98.5424L120.035 99.5214L119.31 99.5139L119.336 97.0418L119.336 97.0418ZM124.145 97.0913L124.119 99.5633L123.419 99.5561L123.438 97.67L122.98 97.6653L122.972 98.3748C122.969 98.6937 122.941 99.0841 122.746 99.3021C122.55 99.5449 122.186 99.6153 121.777 99.5369L121.783 98.924C122.168 99.0021 122.267 98.8549 122.272 98.3654L122.285 97.0676L124.145 97.0868L124.145 97.0913ZM124.75 97.0975L125.474 97.1049L125.869 98.5776L126.294 97.1134L127.019 97.1208L127.332 99.5964L126.657 99.5894L126.502 98.2652L126.1 99.5836L125.617 99.5786L125.245 98.2523L125.063 99.5729L124.387 99.566L124.75 97.0974L124.75 97.0975ZM127.624 97.127L128.348 97.1345L128.338 98.1381L129.049 97.1417L129.846 97.1499L128.917 98.3641L129.846 99.6222L128.977 99.6133L128.336 98.6029L128.325 99.6066L127.601 99.5991L127.626 97.1271L127.624 97.127L127.624 97.127ZM124.533 94.45C120.185 94.4053 117.292 95.9677 117.268 98.3162C117.244 100.642 120.102 102.286 124.452 102.331C128.824 102.376 131.693 100.789 131.717 98.4647C131.741 96.1162 128.907 94.495 124.533 94.45ZM124.456 101.965C120.372 101.923 117.659 100.451 117.681 98.3204C117.703 96.1672 120.447 94.7741 124.529 94.816C128.636 94.8582 131.329 96.3051 131.307 98.4605C131.285 100.591 128.564 102.007 124.456 101.965ZM124.526 95.1595C120.685 95.12 118.11 96.3915 118.091 98.3247C118.071 100.258 120.619 101.582 124.459 101.621C128.3 101.661 130.875 100.389 130.895 98.4563C130.917 96.5232 128.368 95.199 124.526 95.1595ZM124.46 101.55C120.666 101.511 118.144 100.212 118.164 98.3276C118.183 96.4438 120.733 95.1969 124.525 95.2359C128.317 95.2749 130.841 96.574 130.821 98.4577C130.804 100.342 128.254 101.589 124.46 101.55L124.46 101.55Z" fill="white"/>
</svg>
