<svg width="221" height="494" viewBox="0 0 221 494" fill="none" xmlns="http://www.w3.org/2000/svg">
<path d="M113.352 416.838C113.352 416.838 112.227 464.327 111.946 471.431C111.665 478.534 107.142 480.467 99.8534 481.096C92.5652 481.725 89.4952 475.972 88.4641 471.407C87.4329 466.842 81.1992 420.285 81.1992 420.285L113.352 416.838Z" fill="#FBBEAA"/>
<path d="M66.271 417.986C66.271 417.986 60.0734 465.61 59.0482 472.7C58.0231 479.789 53.34 481.297 46.0473 481.132C38.7547 480.967 36.3549 474.867 35.819 470.18C35.2831 465.493 34.1182 417.986 34.1182 417.986H66.271Z" fill="#FBBEAA"/>
<path d="M47.2706 457.056C49.9175 456.869 52.5419 457.648 54.6457 459.246C56.7494 460.844 58.1858 463.15 58.6823 465.725L70.8642 478.059V485.737H31.8215C31.8215 485.737 33.7818 471.904 34.3419 468.791C34.902 465.679 36.7923 457.056 47.2706 457.056Z" fill="#FBBEAA"/>
<path d="M58.8317 465.952C59.2824 465.34 59.9229 464.868 60.3736 465.151C60.8244 465.434 72.8042 474.86 73.3736 475.332C73.7242 475.659 73.9895 476.065 74.1465 476.517C74.3036 476.969 74.3476 477.451 74.275 477.924V488.033H30.6731C30.6731 488.033 32.3811 473.093 32.4997 472.268C32.6183 471.443 33.4486 470.359 33.9231 470.383C36.9157 471.294 40.0217 471.785 43.1511 471.844C47.3103 472.063 51.4592 471.253 55.2259 469.487C56.6224 468.523 57.8421 467.327 58.8317 465.952Z" fill="#302D3B"/>
<path d="M67.0597 479.841C64.9951 478.282 57.5716 472.377 54.7878 470.156L55.4374 469.826C55.525 469.787 55.604 469.731 55.6694 469.66C58.6388 472.022 65.6214 477.597 67.6165 479.109C69.303 480.424 70.4582 482.323 70.8642 484.447L69.9595 484.588C69.5768 482.706 68.549 481.023 67.0597 479.841Z" fill="white"/>
<path d="M31.9624 477.699C35.0036 477.73 37.9466 478.787 40.3208 480.702C42.4666 482.617 43.9201 485.196 44.453 488.033H43.1852C42.6666 485.575 41.3836 483.346 39.5225 481.672C37.3375 479.909 34.621 478.95 31.8215 478.952L31.9624 477.699Z" fill="white"/>
<path d="M81.7098 486.885H31.3105C30.9585 486.885 30.6731 487.204 30.6731 487.598V493.062C30.6731 493.456 30.9585 493.775 31.3105 493.775H81.7098C82.0619 493.775 82.3472 493.456 82.3472 493.062V487.598C82.3472 487.204 82.0619 486.885 81.7098 486.885Z" fill="white"/>
<path d="M73.3552 475.43C73.7776 475.259 75.8451 475.834 78.5351 478.368C79.655 479.477 80.4613 480.841 80.8775 482.331C81.2938 483.821 81.3063 485.389 80.9138 486.885H67.4194C68.1753 478.709 72.9328 475.6 73.3552 475.43Z" fill="white"/>
<path d="M67.6051 474.956C67.468 475.157 67.4026 475.413 67.4231 475.67C67.4437 475.928 67.5485 476.165 67.7149 476.331C67.7965 476.411 67.8907 476.471 67.9919 476.508C68.0931 476.545 68.1994 476.558 68.3048 476.546C68.4102 476.534 68.5125 476.497 68.6059 476.437C68.6993 476.378 68.782 476.297 68.8492 476.2L70.6787 473.56C70.8158 473.36 70.8812 473.103 70.8607 472.846C70.8401 472.589 70.7353 472.352 70.5689 472.186C70.4884 472.103 70.3945 472.04 70.2929 472.001C70.1914 471.963 70.0843 471.949 69.9783 471.961C69.8722 471.974 69.7693 472.011 69.6759 472.073C69.5824 472.134 69.5003 472.217 69.4346 472.317L67.6051 474.956Z" fill="white"/>
<path d="M65.3086 473.402C65.1712 473.652 65.1057 473.972 65.1263 474.293C65.1469 474.614 65.2519 474.91 65.4186 475.117C65.4993 475.22 65.5935 475.299 65.6952 475.347C65.797 475.395 65.9042 475.412 66.0105 475.397C66.1168 475.381 66.2199 475.334 66.3135 475.258C66.4072 475.182 66.4894 475.078 66.5553 474.953L68.3885 471.66C68.5215 471.408 68.5842 471.089 68.5637 470.771C68.5432 470.452 68.4412 470.156 68.2785 469.946C68.1978 469.842 68.1037 469.764 68.0019 469.716C67.9002 469.667 67.7929 469.651 67.6866 469.666C67.5803 469.681 67.4772 469.728 67.3836 469.804C67.29 469.881 67.2077 469.984 67.1419 470.109L65.3086 473.402Z" fill="white"/>
<path d="M61.9287 470.773C61.7477 470.919 61.6587 471.108 61.6811 471.299C61.7036 471.49 61.8357 471.666 62.0484 471.791C62.2683 471.914 62.55 471.972 62.8325 471.954C63.115 471.935 63.3755 471.841 63.5575 471.692L65.9529 469.706C66.0536 469.639 66.1336 469.559 66.1882 469.47C66.2428 469.381 66.271 469.286 66.271 469.189C66.271 469.093 66.2428 468.998 66.1882 468.909C66.1336 468.82 66.0536 468.74 65.9529 468.672C65.7307 468.553 65.4505 468.497 65.1697 468.516C64.889 468.534 64.6292 468.625 64.4438 468.771L61.9287 470.773Z" fill="white"/>
<path d="M59.5646 468.741C59.4975 468.865 59.4472 469.007 59.4164 469.159C59.3856 469.312 59.3749 469.473 59.3851 469.632C59.3952 469.791 59.4259 469.945 59.4755 470.086C59.525 470.227 59.5924 470.352 59.6738 470.453C59.827 470.681 60.0329 470.809 60.2473 470.809C60.4618 470.809 60.6677 470.681 60.8208 470.453L62.6415 467.085C62.778 466.831 62.843 466.506 62.8226 466.181C62.8021 465.855 62.6978 465.555 62.5323 465.345C62.451 465.243 62.3573 465.167 62.2566 465.12C62.1559 465.073 62.0501 465.057 61.9452 465.073C61.8404 465.088 61.7385 465.135 61.6456 465.21C61.5526 465.285 61.4703 465.387 61.4034 465.511L59.5646 468.741Z" fill="white"/>
<path d="M103.547 457.056C106.196 456.869 108.822 457.648 110.927 459.246C113.032 460.844 114.469 463.15 114.966 465.725L127.132 478.059V485.737H88.0889C88.0889 485.737 90.027 471.904 90.6107 468.791C91.1945 465.679 93.0626 457.056 103.547 457.056Z" fill="#FBBEAA"/>
<path d="M113.973 465.952C114.424 465.34 115.041 464.868 115.516 465.151C115.991 465.434 127.956 474.86 128.502 475.332C129.049 475.803 129.428 476.392 129.428 477.924V488.033H85.7925C85.7925 488.033 87.5018 473.093 87.6205 472.268C87.7392 471.443 88.5702 470.359 89.045 470.383C92.04 471.294 95.1484 471.785 98.2803 471.844C102.435 472.067 106.581 471.257 110.341 469.487C111.749 468.528 112.978 467.331 113.973 465.952Z" fill="#302D3B"/>
<path d="M121.031 479.841C118.966 478.282 111.543 472.377 108.759 470.156L109.385 469.826C109.48 469.788 109.566 469.732 109.64 469.66C112.61 472.022 119.592 477.597 121.587 479.109C123.274 480.424 124.429 482.323 124.835 484.447L123.93 484.588C123.536 482.71 122.511 481.031 121.031 479.841Z" fill="white"/>
<path d="M88.2169 477.699C90.9817 477.73 93.6571 478.787 95.8154 480.702C97.7662 482.617 99.0876 485.196 99.572 488.033H98.4194C97.9422 485.572 96.7682 483.343 95.0684 481.672C93.0919 479.906 90.6279 478.945 88.0889 478.952L88.2169 477.699Z" fill="white"/>
<path d="M135.681 486.885H85.2814C84.9294 486.885 84.644 487.204 84.644 487.598V493.062C84.644 493.456 84.9294 493.775 85.2814 493.775H135.681C136.033 493.775 136.318 493.456 136.318 493.062V487.598C136.318 487.204 136.033 486.885 135.681 486.885Z" fill="white"/>
<path d="M127.82 475.43C128.278 475.259 130.518 475.834 133.432 478.368C134.645 479.477 135.519 480.841 135.969 482.331C136.42 483.821 136.434 485.389 136.009 486.885H121.39C122.209 478.709 127.363 475.6 127.82 475.43Z" fill="white"/>
<path d="M122.786 474.956C122.603 475.157 122.516 475.413 122.543 475.67C122.571 475.928 122.711 476.165 122.933 476.331C123.042 476.411 123.168 476.471 123.303 476.508C123.438 476.545 123.58 476.558 123.721 476.546C123.862 476.534 123.999 476.497 124.124 476.437C124.248 476.378 124.359 476.297 124.449 476.2L126.893 473.56C127.07 473.358 127.154 473.103 127.127 472.847C127.099 472.591 126.963 472.355 126.746 472.186C126.639 472.103 126.513 472.04 126.378 472.001C126.242 471.963 126.099 471.949 125.957 471.961C125.815 471.974 125.678 472.011 125.553 472.073C125.428 472.134 125.319 472.217 125.231 472.317L122.786 474.956Z" fill="white"/>
<path d="M120.428 473.399C120.291 473.649 120.225 473.97 120.246 474.291C120.266 474.613 120.371 474.909 120.538 475.116C120.619 475.22 120.713 475.298 120.815 475.347C120.916 475.395 121.024 475.412 121.13 475.397C121.236 475.381 121.339 475.334 121.433 475.258C121.527 475.181 121.609 475.077 121.675 474.952L123.508 471.654C123.641 471.401 123.704 471.083 123.683 470.763C123.663 470.444 123.561 470.148 123.398 469.937C123.23 469.733 123.014 469.635 122.798 469.666C122.582 469.697 122.382 469.853 122.243 470.101L120.428 473.399Z" fill="white"/>
<path d="M117.122 470.775C117.019 470.84 116.938 470.919 116.882 471.007C116.826 471.094 116.797 471.188 116.797 471.283C116.797 471.378 116.826 471.471 116.882 471.559C116.938 471.646 117.019 471.725 117.122 471.791C117.348 471.914 117.638 471.972 117.929 471.954C118.22 471.935 118.488 471.841 118.675 471.692L121.14 469.709C121.325 469.559 121.413 469.366 121.385 469.173C121.357 468.98 121.216 468.802 120.992 468.677C120.882 468.617 120.755 468.571 120.619 468.544C120.482 468.516 120.339 468.506 120.197 468.515C120.055 468.525 119.918 468.552 119.792 468.597C119.666 468.641 119.554 468.702 119.464 468.775L117.122 470.775Z" fill="white"/>
<path d="M114.745 468.741C114.655 468.865 114.588 469.007 114.547 469.159C114.506 469.312 114.492 469.473 114.505 469.632C114.519 469.791 114.56 469.945 114.626 470.086C114.692 470.227 114.782 470.352 114.89 470.453C115.094 470.681 115.369 470.809 115.655 470.809C115.941 470.809 116.215 470.681 116.42 470.453L118.847 467.085C119.029 466.831 119.116 466.506 119.089 466.181C119.061 465.855 118.922 465.555 118.701 465.345C118.593 465.243 118.468 465.167 118.334 465.12C118.2 465.073 118.059 465.057 117.919 465.073C117.779 465.088 117.643 465.135 117.519 465.21C117.395 465.285 117.286 465.387 117.196 465.511L114.745 468.741Z" fill="white"/>
<path d="M37.7552 316.067C37.3655 319.099 37.5704 322.179 38.3579 325.13C39.1454 328.081 40.5 330.844 42.3432 333.259C44.1865 335.673 46.4818 337.692 49.0964 339.198C51.7111 340.704 54.5931 341.667 57.5759 342.032C60.5587 342.397 63.5829 342.157 66.4737 341.324C69.3645 340.492 72.0645 339.084 74.4174 337.183C76.7704 335.282 78.7296 332.925 80.1818 330.248C81.6339 327.571 82.5502 324.627 82.8776 321.588C82.8776 321.588 94.7076 237.013 97.5131 219.927C100.319 202.84 97.3495 188.538 78.5524 184.469C59.0539 180.257 46.8732 194.797 45.4003 209.361C43.9274 223.924 37.7552 316.067 37.7552 316.067Z" fill="#013EA5"/>
<path d="M75.7431 317.693C75.6675 323.812 78.0282 329.709 82.3059 334.089C86.5837 338.469 92.4281 340.972 98.5533 341.047C104.679 341.123 110.583 338.765 114.968 334.492C119.352 330.219 121.858 324.381 121.934 318.263C121.934 318.263 124.856 233.105 125.854 215.851C126.852 198.596 122.338 184.759 102.901 182.765C82.7525 180.701 72.0127 196.436 72.0127 211.056C72.0127 225.676 75.7431 317.693 75.7431 317.693Z" fill="#013EA5"/>
<path d="M75.4575 317.88C75.4957 314.854 76.1423 311.864 77.3605 309.082C78.5788 306.301 80.3447 303.781 82.5576 301.667C84.7704 299.554 87.3868 297.888 90.2573 296.764C93.1279 295.64 96.1964 295.081 99.2877 295.118C102.379 295.156 105.432 295.789 108.274 296.982C111.115 298.174 113.689 299.903 115.847 302.07C118.006 304.236 119.708 306.798 120.856 309.608C122.004 312.419 122.575 315.423 122.537 318.449L117.693 440.39L79.6956 444.397L75.4575 317.88Z" fill="#013EA5"/>
<path d="M37.8353 316.417C38.6186 310.369 41.733 304.878 46.5018 301.136C51.2707 297.393 57.3089 295.703 63.3049 296.431C69.3009 297.159 74.7704 300.246 78.5253 305.024C82.2802 309.801 84.0173 315.881 83.3592 321.944L65.5978 443.249H28.3767L37.8353 316.417Z" fill="#013EA5"/>
<path d="M82.3473 320.38L65.1226 442.101" stroke="#013EA5" stroke-width="0.75" stroke-miterlimit="10" stroke-linecap="round"/>
<path d="M83.4958 321.528C83.4958 321.528 95.5623 237.46 98.4239 220.476" stroke="#F5F5F5" stroke-width="0.75" stroke-miterlimit="10" stroke-linecap="round"/>
<path d="M123.687 192.917C123.687 192.917 123.687 216.878 123.687 218.195C123.687 219.512 112.167 230.811 96.8687 230.811C73.3454 230.811 45.1911 222.192 45.6058 216.578C45.8823 212.881 46.2279 192.917 46.2279 192.917H123.687Z" fill="#013EA5"/>
<path d="M102.596 79.5031C103.291 79.5031 104.766 79.5031 106.069 79.9371C106.069 80.9789 103.754 81.818 102.596 82.1074C102.307 81.2393 101.902 79.5031 102.596 79.5031Z" fill="#013FA9"/>
<path d="M103.999 60.5054H76.9878V92.2724H103.999V60.5054Z" fill="#FBBEAA"/>
<path d="M77.0111 60.5054H103.932V78.2285C102.756 78.3746 101.573 78.4495 100.388 78.4529C91.0998 78.4529 80.7128 75.9178 76.9214 67.0563L77.0111 60.5054Z" fill="#F18380"/>
<path d="M117.955 36.9272C117.753 46.1028 117.955 53.3491 116.317 60.3486C114.679 67.3481 109.587 73.0689 98.3694 73.0689C87.1523 73.0689 74.3647 69.4121 73.4674 55.3906C71.6277 53.394 68.644 46.2823 68.5318 38.3181C68.4196 30.354 69.0254 13.5058 87.1971 10.9259C105.369 8.34592 118.471 15.0089 117.955 36.9272Z" fill="#FBBEAA"/>
<path d="M108.485 44.1509C108.485 45.3848 109.225 46.3943 110.145 46.3943C111.065 46.3943 111.805 45.3848 111.805 44.1509C111.805 42.917 111.065 41.9075 110.145 41.9075C109.225 41.9075 108.485 42.8273 108.485 44.1509Z" fill="#403D4F"/>
<path d="M88.2961 44.1509C88.2961 45.3848 89.0365 46.3943 89.9563 46.3943C90.8761 46.3943 91.6164 45.3848 91.6164 44.1509C91.6164 42.917 90.8537 41.9075 89.9563 41.9075C89.0589 41.9075 88.2961 42.8273 88.2961 44.1509Z" fill="#403D4F"/>
<path d="M92.4442 37.1065C92.2647 37.3084 91.0981 37.1065 90.2007 37.1065C89.3034 37.1065 87.5759 37.1065 87.5759 36.9046C87.5759 36.7027 88.4284 35.3117 90.6719 35.5585C92.1974 35.738 92.6461 36.7475 92.4442 37.1065Z" fill="#403D4F"/>
<path d="M108.148 37.1065C108.283 37.3084 109.292 37.1065 110.078 37.1065C110.863 37.1065 112.321 37.1065 112.321 36.9046C112.321 36.7027 111.603 35.3117 109.696 35.5585C108.148 35.738 107.857 36.7475 108.148 37.1065Z" fill="#403D4F"/>
<path d="M101.42 53.4386C102.99 53.4386 104.246 52.4066 104.291 51.6663L103.775 45.3398C103.758 45.183 103.681 45.0391 103.559 44.9385C103.438 44.838 103.282 44.7888 103.125 44.8014C103.048 44.8071 102.973 44.8278 102.905 44.8625C102.836 44.8972 102.775 44.9451 102.725 45.0035C102.675 45.0619 102.637 45.1296 102.613 45.2027C102.589 45.2758 102.58 45.3529 102.586 45.4295L103.08 51.5317C102.853 51.7776 102.574 51.9696 102.264 52.0938C101.953 52.2181 101.619 52.2713 101.285 52.2496C101.207 52.2435 101.128 52.2533 101.053 52.2785C100.979 52.3036 100.91 52.3436 100.851 52.396C100.793 52.4484 100.745 52.5121 100.712 52.5834C100.678 52.6546 100.66 52.7318 100.657 52.8104C100.654 52.89 100.667 52.9694 100.694 53.044C100.722 53.1186 100.764 53.1871 100.818 53.2454C100.873 53.3038 100.938 53.3509 101.01 53.384C101.082 53.4172 101.161 53.4357 101.24 53.4386H101.42Z" fill="#F18380"/>
<path d="M100.14 57.925C102.024 58.0371 105.187 59.0915 105.21 59.9216C105.18 61.4628 104.544 62.9302 103.44 64.0054C102.335 65.0806 100.851 65.6769 99.3095 65.6648C92.3997 65.6648 92.4221 60.3254 92.7138 59.1589C93.0054 57.9923 96.6398 57.7006 100.14 57.925Z" fill="#73102A"/>
<path d="M92.6931 61.0212C94.562 60.3443 96.6006 60.2957 98.4996 60.8828C100.399 61.4699 102.054 62.6606 103.215 64.2742C102.142 65.2252 100.743 65.7238 99.3112 65.6651C94.4205 65.6651 93.0072 63.0179 92.6931 61.0212Z" fill="#D65155"/>
<path d="M92.9849 58.7555C93.9495 57.9254 97.1127 57.7235 100.141 57.9254C102.003 58.0376 105.144 59.0696 105.212 59.9221C101.101 60.5048 96.911 60.105 92.9849 58.7555Z" fill="white"/>
<path d="M84.7729 28.8056C84.7729 34.3245 82.5295 36.725 80.8469 37.7794C79.1643 38.8338 77.9304 39.8882 77.9304 41.7951V48.5254C77.9304 49.2882 77.4818 49.8715 76.8985 49.6695C76.3152 49.4676 74.139 48.3684 74.139 47.2691L67.4087 42.513C65.6581 38.3665 65.009 33.8378 65.5243 29.3665C65.7245 26.8594 66.4636 24.425 67.6909 22.2297C68.9183 20.0344 70.605 18.1299 72.6359 16.6463C72.6359 11.8677 77.1228 3.36515 86.5676 0C86.7987 1.72723 86.7987 3.47753 86.5676 5.20476C90.8526 1.32362 105.278 0.134607 110.46 1.92935C109.7 3.62919 108.601 5.15596 107.23 6.41621C114.308 8.05099 120.607 12.0759 125.065 17.8128C123.645 19.6647 121.848 21.194 119.793 22.2997C122.15 25.5427 123.55 29.3827 123.831 33.3822C119.572 32.9879 115.397 31.9517 111.447 30.3087C111.668 32.2804 111.554 34.2752 111.111 36.209C106.624 35.9398 98.1437 31.3632 95.7433 27.6839C96.1189 30.6805 95.9517 33.7203 95.2497 36.6576C91.079 35.095 87.4433 32.3702 84.7729 28.8056Z" fill="#403D4F"/>
<path d="M73.9358 48.4133C73.9358 45.8557 73.4198 42.0868 69.8079 41.997C66.1959 41.9073 65.7024 44.6443 65.8145 48.9517C65.9267 53.2591 70.3014 56.9158 74.1377 55.4352L73.9358 48.4133Z" fill="#FBBEAA"/>
<path d="M68.6187 51.5092C68.7734 51.4766 68.9101 51.3869 69.0016 51.258C69.0931 51.1291 69.1326 50.9705 69.1123 50.8137C69.1128 50.6899 69.1464 50.5685 69.2095 50.4621C69.2725 50.3556 69.3629 50.2679 69.4712 50.208C69.7047 50.0555 69.9776 49.9743 70.2564 49.9743C70.5353 49.9743 70.8082 50.0555 71.0416 50.208C71.1371 50.2631 71.2454 50.2921 71.3557 50.2921C71.466 50.2921 71.5743 50.2631 71.6698 50.208C71.7672 50.1524 71.8465 50.07 71.8982 49.9705C71.9499 49.871 71.9719 49.7587 71.9614 49.6471C71.6249 46.0352 69.3366 45.3622 69.2469 45.3397C69.1703 45.3161 69.0896 45.3085 69.01 45.3174C68.9303 45.3264 68.8533 45.3516 68.7839 45.3916C68.7144 45.4316 68.6539 45.4855 68.6062 45.5499C68.5585 45.6143 68.5246 45.6879 68.5066 45.766C68.4652 45.9147 68.4844 46.0738 68.5601 46.2084C68.6358 46.343 68.7618 46.442 68.9104 46.4839C69.3562 46.6901 69.7448 47.0024 70.042 47.3935C70.3392 47.7846 70.5361 48.2425 70.6154 48.7273C70.0006 48.6272 69.3704 48.7548 68.8431 49.0863C68.5318 49.262 68.28 49.5267 68.1201 49.8465C67.9603 50.1663 67.8995 50.5265 67.9457 50.881C67.9378 50.9694 67.9501 51.0585 67.9818 51.1415C68.0135 51.2244 68.0637 51.299 68.1287 51.3596C68.1936 51.4202 68.2715 51.4652 68.3564 51.4911C68.4413 51.517 68.531 51.5232 68.6187 51.5092Z" fill="#F18380"/>
<path d="M194.575 94.6125L183.439 164.515C181.602 173.284 184.441 181.218 194.575 182.61C196.445 182.853 198.346 182.714 200.161 182.201C201.976 181.688 203.668 180.811 205.133 179.623C206.599 178.436 207.808 176.963 208.688 175.295C209.567 173.626 210.097 171.796 210.248 169.915L213.644 94.7517C214.535 87.6529 211.445 82.9204 206.044 82.3358C199.419 81.612 195.911 85.5372 194.575 94.6125Z" fill="#FBBEAA"/>
<path d="M203.623 156.776L123.671 96.0321C114.345 90.0747 107.998 93.2483 103.043 99.6233C100.78 102.709 99.7304 106.519 100.095 110.328C100.459 114.137 102.212 117.679 105.019 120.279L184.776 179.046C187.587 181.42 191.205 182.618 194.877 182.389C198.548 182.161 201.991 180.525 204.486 177.821L204.847 177.432C206.172 176.019 207.194 174.351 207.853 172.53C208.511 170.709 208.791 168.773 208.677 166.84C208.562 164.907 208.055 163.018 207.186 161.287C206.317 159.557 205.105 158.022 203.623 156.776Z" fill="#FBBEAA"/>
<path d="M194.908 92.7468C195.023 90.2382 194.351 87.7565 192.987 85.648C190.887 83.2129 189.313 80.3694 188.366 77.2965C187.637 74.4441 186.472 71.721 184.914 69.2233C183.8 67.6922 182.13 66.4395 182.13 65.2703C182.13 64.1011 184.357 61.8462 187.531 62.4865C188.89 62.9099 190.139 63.6287 191.188 64.5912C192.237 65.5537 193.061 66.7362 193.599 68.0542C193.903 67.2512 194.082 66.4061 194.128 65.5487L194.824 48.4838C194.835 48.0414 194.934 47.6056 195.116 47.2021C195.297 46.7987 195.558 46.4357 195.883 46.1347C196.207 45.8337 196.588 45.6008 197.004 45.4496C197.42 45.2984 197.862 45.2321 198.304 45.2545C199.008 45.2845 199.684 45.5343 200.238 45.9687C200.793 46.4032 201.197 47.0004 201.394 47.6764V46.897C201.501 46.0674 201.918 45.3091 202.561 44.7742C203.204 44.2393 204.026 43.9674 204.861 44.0132C205.696 44.059 206.483 44.4191 207.064 45.0211C207.645 45.6232 207.976 46.4226 207.992 47.2589V49.6252C208.271 48.8956 208.802 48.2906 209.49 47.9203C210.177 47.55 210.975 47.4391 211.738 47.6078C212.5 47.7765 213.177 48.2135 213.644 48.8393C214.111 49.4651 214.338 50.238 214.283 51.0171V52.5203C214.583 51.9937 215.029 51.5659 215.568 51.289C216.107 51.0122 216.715 50.8983 217.318 50.9613C218.143 51.0661 218.895 51.4879 219.414 52.1374C219.934 52.7869 220.18 53.6131 220.101 54.4411L218.737 68.8336C217.844 76.9479 216.166 84.9564 213.726 92.7468C213.697 94.0475 213.396 95.3277 212.842 96.505C212.288 97.6823 211.494 98.7308 210.511 99.5829C209.528 100.435 208.377 101.072 207.133 101.453C205.889 101.834 204.579 101.95 203.287 101.794C202.118 101.833 200.954 101.62 199.875 101.17C198.796 100.72 197.825 100.043 197.031 99.1846C196.236 98.3265 195.635 97.3075 195.269 96.1967C194.902 95.0859 194.779 93.9093 194.908 92.7468Z" fill="#FBBEAA"/>
<path d="M117.072 91.6891L186.26 138.353C185.969 140.74 191.576 91.6891 191.576 91.6891L217.185 94.0794C217.185 94.0794 215.689 144.019 211.92 170.393C210.425 180.86 201.713 184.83 191.382 182.576C186.282 181.463 181.48 179.37 177.208 176.371C158.847 163.484 107.336 127.184 103.125 122.618C95.859 114.739 95.859 108.838 100.035 102.351C104.21 95.8649 113.147 90.7147 117.072 91.6891Z" fill="#013EA5"/>
<path d="M195.465 70.4764C194.407 70.4764 194.323 69.8083 193.85 68.5834C196.216 68.5834 203.092 69.0288 206.099 74.8192C203.065 70.6435 197.246 70.4764 195.465 70.4764ZM200.865 48.4563C200.865 48.4563 200.698 49.4306 200.531 50.8504C200.531 51.5742 200.364 52.4371 200.309 53.328C200.253 54.2188 200.169 55.1931 200.086 56.1118C200.086 58.0605 199.947 59.9814 199.947 61.429C199.947 62.8766 199.947 63.8509 199.947 63.8509C199.947 63.8972 199.956 63.9431 199.974 63.9855C199.993 64.028 200.02 64.0661 200.054 64.0975C200.088 64.1289 200.128 64.153 200.172 64.168C200.216 64.1831 200.262 64.1888 200.309 64.1849C200.387 64.181 200.462 64.1517 200.522 64.1015C200.582 64.0513 200.625 63.9829 200.643 63.9066C200.643 63.9066 200.81 62.9322 200.949 61.4846C201.088 60.037 201.311 58.1162 201.394 56.1953C201.394 55.221 201.394 54.2466 201.394 53.4115C201.394 52.5763 201.394 51.6577 201.394 50.9339C201.394 49.4585 201.394 48.5119 201.394 48.5119C201.394 48.4656 201.385 48.4198 201.366 48.3773C201.348 48.3349 201.321 48.2967 201.287 48.2653C201.253 48.2339 201.213 48.2099 201.169 48.1948C201.125 48.1798 201.079 48.174 201.032 48.1779C200.979 48.2086 200.935 48.2535 200.906 48.3075C200.876 48.3615 200.862 48.4226 200.865 48.4841V48.4563ZM207.324 50.405C207.324 50.405 207.157 51.2401 206.962 52.465C206.962 53.1053 206.767 53.829 206.684 54.6085C206.6 55.388 206.517 56.2232 206.433 57.0583C206.433 58.7286 206.238 60.3989 206.21 61.6516C206.183 62.9044 206.21 63.7674 206.21 63.7674C206.214 63.8113 206.226 63.8541 206.246 63.8933C206.266 63.9325 206.294 63.9674 206.328 63.9958C206.361 64.0243 206.4 64.0458 206.442 64.0592C206.484 64.0725 206.528 64.0775 206.572 64.0736C206.647 64.0684 206.718 64.0381 206.774 63.9876C206.829 63.9371 206.866 63.8693 206.878 63.7952C206.878 63.7952 207.045 62.96 207.24 61.7351C207.435 60.5103 207.602 58.8122 207.741 57.1697C207.741 56.3345 207.741 55.4994 207.908 54.7199C208.075 53.9404 207.908 53.1888 207.908 52.5485C207.908 51.2958 207.908 50.4606 207.908 50.4606C207.909 50.4143 207.899 50.3685 207.881 50.3261C207.862 50.2836 207.835 50.2454 207.801 50.214C207.767 50.1826 207.727 50.1586 207.683 50.1436C207.639 50.1285 207.593 50.1227 207.547 50.1266C207.485 50.1521 207.431 50.1942 207.392 50.2482C207.353 50.3023 207.329 50.3661 207.324 50.4328V50.405ZM213.56 53.0496C213.56 53.0496 213.393 53.7455 213.17 54.8034C213.17 55.3045 212.947 55.917 212.864 56.5851C212.78 57.2532 212.669 57.9492 212.557 58.6451C212.363 60.0649 212.279 61.4289 212.223 62.5425C212.168 63.656 212.223 64.3242 212.223 64.3242C212.223 64.3705 212.233 64.4163 212.251 64.4587C212.27 64.5012 212.297 64.5394 212.331 64.5708C212.365 64.6022 212.405 64.6262 212.449 64.6412C212.493 64.6563 212.539 64.6621 212.585 64.6582C212.656 64.6545 212.724 64.6282 212.779 64.5831C212.835 64.5381 212.874 64.4766 212.892 64.4077C212.892 64.4077 213.086 63.7117 213.281 62.6817C213.476 61.6517 213.755 60.2041 213.922 58.8121C213.922 58.0883 214.061 57.3924 214.116 56.7243C214.172 56.0561 214.116 55.4437 214.116 54.9148C214.116 53.8569 214.116 53.1331 214.116 53.1331C214.117 53.0868 214.107 53.041 214.089 52.9985C214.07 52.9561 214.043 52.9179 214.009 52.8865C213.975 52.855 213.935 52.8311 213.891 52.816C213.847 52.801 213.801 52.7952 213.755 52.799C213.703 52.8277 213.659 52.8676 213.625 52.9159C213.591 52.9641 213.569 53.0193 213.56 53.0774V53.0496Z" fill="#F18380"/>
<path d="M186.802 132.71L188.104 122.293L215.883 124.463L215.449 134.88L186.802 132.71Z" fill="#CFD1CE"/>
<path d="M106.03 85.1372C106.03 85.1372 122.838 94.8427 125.461 96.5412C128.085 98.2397 131.048 100.86 130.514 107.945C129.979 115.03 127.72 210.404 127.72 210.404C119.094 211.864 93.8306 211.864 93.8306 211.864H91.534H89.8115H87.5149H85.7924H84.07C84.07 211.864 46.6173 208.681 45.8643 208.244C45.1113 207.807 44.4069 207.346 44.4555 206.521C44.5041 205.696 44.9899 108.746 45.3057 104.476C45.3682 102.189 46.0886 99.9679 47.3808 98.079C48.673 96.1901 50.4823 94.7128 52.5925 93.8237C57.6691 91.5671 76.7364 83.8269 76.7364 83.8269L92.751 85.1372H106.03Z" fill="#034CC9"/>
<path d="M106.03 85.1372C106.03 85.1372 122.838 94.8427 125.462 96.5412C128.085 98.2397 131.048 100.86 130.514 107.945C129.979 115.03 127.72 210.404 127.72 210.404C119.094 211.864 105.314 211.864 105.314 211.864H103.017H101.295H98.9982H97.2757H95.5533C95.5533 211.864 98.2916 208.681 97.5386 208.244C96.7856 207.807 96.0812 207.346 96.1298 206.521C96.1784 205.696 96.6642 108.746 96.9799 104.476C97.0425 102.189 97.7629 99.9679 99.0551 98.079C100.347 96.1901 102.157 94.7128 104.267 93.8237C109.343 91.5671 76.7366 83.8269 76.7366 83.8269L92.7512 85.1372H106.03Z" fill="#0045BA"/>
<path d="M107.937 85.277C107.937 85.277 126.52 96.0185 129.42 97.8983C132.32 99.7781 130.003 103.922 130.003 111.386C130.003 121.147 128.28 121.721 128.28 121.721C122.469 124.857 119.927 122.411 113.523 124.019C110.408 124.368 107.991 124.448 105.896 122.407C103.801 120.367 97.2756 121.147 97.2756 121.147C97.2756 121.147 87.4475 119.856 82.8555 122.407C81.7572 123.173 80.516 123.711 79.2059 123.988C77.8957 124.264 76.8656 124.244 75.5512 123.988C68.8915 122.618 42.2525 114.969 41.42 114.486C40.5875 114.002 39.8088 113.492 39.8625 112.579C39.9162 111.666 40.4533 111.406 40.8024 106.68C40.8715 104.148 41.668 101.691 43.0966 99.6002C44.5252 97.5097 46.5255 95.8747 48.8585 94.8907C54.471 92.3933 75.5512 83.8269 75.5512 83.8269L93.2565 84.4011L107.937 85.277Z" fill="#9A99A1"/>
<path d="M94.7832 81.2393C86.7967 81.2393 79.5914 77.7669 76.9871 76.0307V83.8436C77.2764 84.2777 79.5046 85.6666 86.1022 87.7501C92.6998 89.8335 102.162 89.0523 106.069 87.7501V79.9371C106.069 80.3712 104.766 81.2393 94.7832 81.2393Z" fill="#034CC9"/>
<path d="M95.2173 211.455C97.4353 210.711 99.3765 209.277 100.775 207.35C102.174 205.423 102.961 203.096 103.03 200.689V81.6733H95.2173V211.455Z" fill="#034CC9"/>
<path d="M130.003 124.644H90.624V115.963L130.003 115.98C130.003 119.999 130.003 121.147 130.003 124.644Z" fill="#D3D4D2"/>
<path d="M58.7882 115.963H98.4366V124.644H57.9752C58.5039 120.738 58.7882 119.002 58.7882 115.963Z" fill="#CFD1CE"/>
<g style="mix-blend-mode:multiply" opacity="0.4">
<path d="M94.3494 88.8744L95.2175 89.0522V211.455H94.3494V88.8744Z" fill="#013FA9"/>
</g>
<path d="M42.318 99.6537C36.2413 107.467 1.5 202.938 1.5 202.938C34.054 192.52 30.5823 164.387 48.2875 167.366C48.2875 167.366 68.704 119.446 69.4835 115.159C70.297 111.779 69.9319 108.223 68.4486 105.079C66.9653 101.935 64.4527 99.392 61.3269 97.8709C52.6135 93.4168 48.3947 91.8405 42.318 99.6537Z" fill="#0045BA"/>
<path d="M59.7951 144.778C64.7225 139.795 73.937 129.049 77.0549 126.433C80.1379 124.11 83.506 122.192 87.0768 120.726C89.7859 119.818 92.5865 119.211 95.4283 118.916C97.4048 118.666 98.2121 119.25 98.2121 120.447C98.1624 121.161 97.9352 121.85 97.5511 122.453C97.167 123.056 96.6382 123.553 96.0129 123.899H99.6597C100.912 123.899 101.72 124.902 101.135 126.516C100.604 127.583 99.8452 128.52 98.9119 129.261C97.9786 130.002 96.8939 130.528 95.7345 130.803C95.7345 130.803 100.662 131.277 101.915 131.527C103.167 131.778 103.557 132.251 103.557 133.448C103.546 134.275 103.316 135.084 102.891 135.793C102.466 136.502 101.86 137.086 101.135 137.485C99.3617 138.204 97.4792 138.618 95.5674 138.709C95.5674 138.709 101.664 140.24 102.889 140.686C104.114 141.131 104.253 141.939 103.613 142.996C103.248 143.742 102.721 144.396 102.071 144.911C101.421 145.427 100.663 145.79 99.8546 145.975C97.544 146.588 95.985 145.585 95.1499 145.725C93.3555 146.303 91.5984 146.991 89.8885 147.785C87.3207 150.341 84.1812 152.25 80.7296 153.352C78.1604 154.431 75.8038 155.958 73.77 157.862C72.8227 158.751 71.7067 159.441 70.488 159.891C69.2694 160.341 67.9729 160.543 66.6751 160.483C65.3774 160.423 64.1048 160.104 62.9326 159.544C61.7604 158.984 60.7125 158.194 59.8508 157.222C55.3967 152.489 56.1483 148.536 59.7951 144.778Z" fill="#FBBEAA"/>
<path d="M76.1739 161.723L31.3592 212.117C25.9888 219.275 13.4395 223.208 5.77207 216.577C4.35417 215.335 3.20337 213.817 2.38948 212.117C1.5756 210.417 1.11557 208.569 1.03733 206.685C0.95909 204.802 1.26426 202.922 1.93432 201.16C2.60438 199.398 3.62536 197.791 4.93535 196.435L59.2458 139.587L76.1739 161.723Z" fill="#0045BA"/>
<path d="M95.401 123.927C95.4089 123.973 95.407 124.02 95.3956 124.066C95.3841 124.111 95.3633 124.153 95.3345 124.19C95.3056 124.227 95.2693 124.257 95.228 124.279C95.1867 124.301 95.1414 124.314 95.0948 124.317L92.812 124.54H91.6985C91.3088 124.54 90.9469 124.679 90.5571 124.707C90.1454 124.83 89.745 124.988 89.3601 125.18L88.0795 125.709C86.3535 126.405 84.6275 127.045 83.347 127.518C82.0664 127.991 81.1756 128.27 81.1756 128.27C81.105 128.3 81.0258 128.302 80.9537 128.276C80.8815 128.25 80.8216 128.198 80.7858 128.131C80.7339 128.063 80.7058 127.98 80.7058 127.894C80.7058 127.809 80.7339 127.725 80.7858 127.657L82.8737 126.572L85.0451 125.542C85.8246 125.18 86.6876 124.818 87.5505 124.484L88.859 123.983C89.2798 123.793 89.7179 123.643 90.1674 123.537L91.5036 123.398H92.645H94.3431H94.9834C95.0536 123.343 95.1428 123.318 95.2316 123.328C95.3203 123.338 95.4014 123.384 95.4567 123.454C95.5121 123.524 95.5373 123.613 95.5269 123.702C95.5165 123.791 95.4711 123.872 95.401 123.927ZM94.8721 130.636H94.371C93.9542 130.599 93.535 130.599 93.1182 130.636L92.2552 130.775C91.9371 130.815 91.6212 130.871 91.3087 130.942L89.4158 131.555C88.1352 131.972 86.8825 132.501 85.936 132.891C85.936 132.891 85.6297 132.891 85.6576 133.03H85.3235L84.8224 133.169H84.5162H84.3491C84.2651 133.189 84.1921 133.241 84.1453 133.314C84.0986 133.387 84.0819 133.474 84.0986 133.559C84.1107 133.626 84.1447 133.687 84.195 133.732C84.2454 133.777 84.3094 133.805 84.377 133.81H85.7968H86.2421C87.2165 133.559 88.5249 133.17 89.8055 132.724L91.6707 132.028L92.5336 131.805L93.2852 131.583C93.6697 131.469 94.06 131.376 94.4545 131.304L94.9278 131.165C94.9699 131.152 95.009 131.131 95.043 131.104C95.077 131.076 95.1051 131.041 95.1258 131.003C95.1465 130.964 95.1593 130.921 95.1635 130.877C95.1678 130.834 95.1633 130.79 95.1505 130.748C95.1175 130.707 95.0746 130.675 95.0258 130.655C94.9771 130.636 94.9241 130.629 94.8721 130.636ZM94.8721 138.542H93.8421C93.5637 138.542 93.2018 138.542 92.8399 138.737L91.6985 139.099C90.9803 139.352 90.2823 139.659 89.6106 140.018C89.3018 140.163 89.0041 140.33 88.7198 140.519C88.663 140.585 88.6317 140.669 88.6317 140.755C88.6317 140.842 88.663 140.926 88.7198 140.992C88.7998 141.077 88.9096 141.127 89.026 141.131L90.0561 140.964C90.6407 140.825 91.3923 140.602 92.1439 140.352L93.2296 139.906L94.1761 139.544C94.4912 139.405 94.798 139.247 95.0948 139.071C95.1736 139.025 95.2317 138.95 95.2575 138.862C95.2833 138.774 95.2749 138.68 95.234 138.598C95.1515 138.545 95.0521 138.525 94.9556 138.542H94.8721Z" fill="#F18380"/>
<path d="M23.2195 174.745L32.3346 167.366L50.5648 190.371L43.1859 199.052L23.2195 174.745Z" fill="#CFD1CE"/>
</svg>
