<svg width="190" height="518" viewBox="0 0 190 518" fill="none" xmlns="http://www.w3.org/2000/svg">
    <path d="M87.0479 76.2346C87.6527 76.2346 88.9378 76.2346 90.0719 76.6126C90.0719 77.5198 88.0559 78.2505 87.0479 78.5025C86.7959 77.7466 86.4431 76.2346 87.0479 76.2346Z" fill="#013FA9"/>
    <path d="M67.7961 19.6658C68.8791 15.7603 68.4809 11.5924 66.6782 7.96264C64.8754 4.33284 61.7951 1.49707 58.0289 0C56.5323 1.4966 57.2937 6.2752 57.2937 6.2752C52.0057 3.79708 46.075 3.03509 40.3323 4.09595C40.4363 7.76762 41.8201 11.2875 44.2444 14.047C41.3063 14.3432 38.4806 15.3331 36 16.9352C36.3762 18.6657 37.1579 20.2822 38.2808 21.6516C39.4037 23.021 40.8357 24.1041 42.459 24.812C40.8061 26.7471 39.6682 29.068 39.1507 31.5598C41.9711 32.3732 44.9508 32.4635 47.8152 31.8224C47.3528 33.2714 47.1658 34.7943 47.2639 36.3122C49.9839 36.7115 53.368 33.7941 56 33C58.632 32.2059 61.4547 29.8371 63.5 28C66.2126 24.4686 67.0246 24.0515 67.7961 19.6658Z" fill="#E69D7E"/>
    <path d="M53.5 31.5C53.0799 38.3003 46.8699 50.9634 47.9989 59.6017C49.5743 71.7845 64.6452 71.6532 70.4741 71.6532H79.1124V33.8445L53.5 31.5Z" fill="#E69D7E"/>
    <path d="M64.8029 57.6583V79.9497C64.8029 79.9497 66.562 87.6165 78.3247 87.6165C80.6652 87.8139 82.9924 87.1076 84.8284 85.6427C86.6644 84.1778 87.8698 82.0655 88.197 79.7397V57.6845L64.8029 57.6583Z" fill="#FBBEAA"/>
    <path d="M88.197 76.2213C80.8191 79.7397 70.0278 76.5889 64.8029 66.9267V57.6583H88.197V76.2213Z" fill="#F18380"/>
    <path d="M102.848 40.539C102.944 45.8705 102.699 51.2027 102.113 56.5027C101.168 64.0907 98.4632 72.4927 85.0726 72.4927C71.682 72.4927 64.8292 66.4275 61.9673 56.5027C60.2344 50.5163 56.7161 41.6418 58.1602 31.4019C59.6042 21.162 65.7744 14.4667 80.3203 14.0729C94.8662 13.679 104.345 20.2168 102.848 40.539Z" fill="#FBBEAA"/>
    <path d="M74.4653 45.1078C74.5544 45.5034 74.7533 45.8659 75.0393 46.1535C75.3253 46.441 75.6867 46.6419 76.0819 46.7331C76.477 46.8242 76.8899 46.8019 77.273 46.6687C77.656 46.5355 77.9937 46.2968 78.247 45.9801C78.5004 45.6635 78.6591 45.2817 78.705 44.8787C78.7509 44.4758 78.682 44.0681 78.5063 43.7025C78.3306 43.337 78.0553 43.0285 77.712 42.8126C77.3687 42.5967 76.9714 42.4822 76.5658 42.4822C76.2547 42.5148 75.9532 42.6089 75.6788 42.7589C75.4043 42.9089 75.1624 43.1119 74.967 43.3562C74.7716 43.6004 74.6267 43.881 74.5406 44.1817C74.4544 44.4824 74.4289 44.7971 74.4653 45.1078Z" fill="#403D4F"/>
    <path d="M93.9734 45.1078C94.0624 45.5034 94.2614 45.8659 94.5474 46.1535C94.8334 46.441 95.1948 46.6419 95.59 46.7331C95.9851 46.8242 96.398 46.8019 96.781 46.6687C97.1641 46.5355 97.5018 46.2968 97.7551 45.9801C98.0085 45.6635 98.1672 45.2817 98.2131 44.8787C98.259 44.4758 98.1901 44.0681 98.0144 43.7025C97.8387 43.337 97.5634 43.0285 97.2201 42.8126C96.8768 42.5967 96.4794 42.4822 96.0739 42.4822C95.7628 42.5148 95.4613 42.6089 95.1869 42.7589C94.9124 42.9089 94.6705 43.1119 94.4751 43.3562C94.2797 43.6004 94.1347 43.881 94.0486 44.1817C93.9625 44.4824 93.9369 44.7971 93.9734 45.1078Z" fill="#403D4F"/>
    <path d="M80.8194 37.6774C80.8194 37.6774 80.8194 37.6774 80.5831 37.4411C80.3729 37.2523 80.1441 37.0852 79.9004 36.9423C79.5745 36.7419 79.2205 36.5915 78.8501 36.4959C78.4372 36.3431 78.0034 36.2546 77.5636 36.2334C77.1364 36.1806 76.7043 36.1806 76.277 36.2334C75.915 36.2447 75.5547 36.2887 75.2005 36.3646L74.1766 36.6534C74.0075 36.7079 73.8663 36.8261 73.7829 36.983C73.6996 37.1399 73.6807 37.323 73.7302 37.4936C73.77 37.63 73.8529 37.7498 73.9665 37.835C74.0801 37.9202 74.2183 37.9663 74.3604 37.9663H75.3843C75.6894 37.927 75.9982 37.927 76.3033 37.9663C76.6529 37.9402 77.004 37.9402 77.3535 37.9663C77.6949 37.9663 78.0362 37.9663 78.3513 38.15C78.6663 38.3338 78.9289 38.3601 79.1915 38.3864L79.7428 38.5701H79.9792C80.143 38.6414 80.3283 38.6456 80.4952 38.5818C80.6621 38.5179 80.7973 38.3912 80.8719 38.2288C80.9179 38.1395 80.9419 38.0405 80.9419 37.94C80.9419 37.8395 80.9179 37.7405 80.8719 37.6512L80.8194 37.6774Z" fill="#403D4F"/>
    <path d="M93.5796 38.6751H93.7372L94.1573 38.5175H94.4461H94.7349C94.9669 38.4409 95.2038 38.3795 95.4438 38.3338C95.6873 38.295 95.9355 38.295 96.179 38.3338C96.4049 38.2945 96.6358 38.2945 96.8616 38.3338H97.7018C97.8783 38.327 98.0453 38.2521 98.1677 38.1248C98.2901 37.9975 98.3583 37.8277 98.3582 37.6511C98.3532 37.5208 98.3109 37.3947 98.2365 37.2877C98.1621 37.1807 98.0585 37.0973 97.9381 37.0472L97.1242 36.7584C96.8272 36.6613 96.5176 36.6083 96.2052 36.6009C95.8571 36.5487 95.5031 36.5487 95.155 36.6009C94.4653 36.67 93.8096 36.9341 93.2646 37.3623C93.0667 37.4937 92.8971 37.6633 92.7657 37.8611C92.6344 38.0187 92.6344 38.0712 92.6082 38.0712V38.3338C92.5937 38.4574 92.6133 38.5827 92.6648 38.696C92.7164 38.8093 92.7979 38.9064 92.9007 38.9767C93.0034 39.047 93.1234 39.0878 93.2477 39.0948C93.372 39.1018 93.4959 39.0747 93.6059 39.0164L93.5796 38.6751Z" fill="#403D4F"/>
    <path d="M88.1972 54.0349C88.6379 54.0451 89.0754 53.9587 89.4791 53.7818C89.8828 53.6049 90.2429 53.3417 90.534 53.0109C90.6479 52.898 90.7371 52.7627 90.7959 52.6136C90.8546 52.4644 90.8817 52.3046 90.8754 52.1444C90.8754 51.8556 90.4027 48.2323 90.2452 46.8932C90.2452 46.7609 90.1926 46.634 90.0991 46.5404C90.0055 46.4469 89.8786 46.3943 89.7463 46.3943C89.614 46.3943 89.4872 46.4469 89.3936 46.5404C89.3001 46.634 89.2475 46.7609 89.2475 46.8932C89.2475 47.1032 89.7989 51.8556 89.8776 52.1444C89.6595 52.3784 89.3952 52.5646 89.1015 52.6911C88.8077 52.8177 88.4909 52.8818 88.171 52.8796C88.0387 52.8796 87.9118 52.9321 87.8182 53.0257C87.7247 53.1192 87.6721 53.2461 87.6721 53.3784C87.6721 53.5108 87.7247 53.6376 87.8182 53.7312C87.9118 53.8248 88.0387 53.8773 88.171 53.8773L88.1972 54.0349Z" fill="#F18380"/>
    <path d="M90.6654 59.2073C91.6631 59.4699 92.0044 60.9402 91.4268 62.6469C90.8228 63.8209 89.8431 64.7588 88.6438 65.3108C87.4445 65.8628 86.0949 65.9973 84.8103 65.6926C84.1133 65.656 83.4305 65.4808 82.802 65.1772C82.1735 64.8737 81.6118 64.4479 81.1498 63.9247C80.6877 63.4016 80.3346 62.7916 80.1111 62.1303C79.8875 61.4691 79.798 60.77 79.8479 60.0738C79.8479 58.9448 80.6093 58.2621 82.0796 58.2621C84.9629 58.3376 87.8348 58.6538 90.6654 59.2073Z" fill="#73102A"/>
    <path d="M79.795 60.0737C79.795 60.0737 79.795 59.9161 79.795 59.8111C81.7206 59.3596 83.7456 59.6491 85.4676 60.622C87.1896 61.5949 88.4826 63.18 89.0896 65.0623C87.7307 65.728 86.2019 65.966 84.7049 65.745C84.0076 65.7019 83.326 65.5202 82.6998 65.2104C82.0737 64.9006 81.5157 64.469 81.0585 63.9408C80.6012 63.4127 80.2539 62.7986 80.037 62.1346C79.82 61.4706 79.7378 60.7699 79.795 60.0737Z" fill="#D65155"/>
    <path d="M89.7725 60.8092C86.4556 60.8364 83.1565 60.322 80.0052 59.2863C80.1986 58.9308 80.4956 58.6424 80.8566 58.4595C81.2177 58.2766 81.6259 58.2078 82.027 58.2623C84.9102 58.3379 87.7821 58.654 90.6127 59.2076C90.8872 59.2999 91.1284 59.4713 91.3059 59.7001C91.4834 59.929 91.5893 60.2052 91.6104 60.4941C91.0215 60.708 90.3991 60.8147 89.7725 60.8092Z" fill="white"/>
    <path d="M76.8806 28.1464C76.8806 28.1464 72.2333 44.2151 61.127 48.4423C59.8375 48.4583 58.563 48.1637 57.4114 47.5833C56.2597 47.0029 55.2647 46.1538 54.5105 45.1078C51.5605 38.9034 54.5829 31.7223 56 25C57.8642 16.8081 63.8576 6.43258 81.8168 8.90065C91.4003 7.06272 95.7063 10.3115 102.848 20C109.99 29.6885 108.598 41.537 102.848 43.7687C97.1923 40.3636 91.7714 36.583 86.6217 32.4524C87.4094 34.9204 88.2495 40.1454 87.4093 40.1454C82.5558 37.5611 78.8122 33.2946 76.8806 28.1464Z" fill="#E69D7E"/>
    <path d="M62.4922 50.3854C62.2822 46.8145 61.3107 42.5085 56.9784 43.27C51.7272 44.0314 51.3596 57.8158 62.2297 56.1617L62.4922 50.3854Z" fill="#FBBEAA"/>
    <path d="M56.5321 51.3046C56.6223 51.3007 56.7102 51.2747 56.788 51.2289C56.8658 51.1832 56.9312 51.119 56.9784 51.042C57.0873 50.8098 57.2571 50.6114 57.4698 50.4681C57.6825 50.3248 57.9301 50.2418 58.1862 50.2281C58.4862 50.2311 58.7805 50.3097 59.0421 50.4565C59.3037 50.6034 59.524 50.8138 59.6828 51.0683C59.7418 51.1627 59.8308 51.2347 59.9354 51.2728C60.0401 51.3109 60.1545 51.3128 60.2604 51.2783C60.3613 51.2347 60.4459 51.1606 60.5024 51.0664C60.559 50.9722 60.5845 50.8627 60.5755 50.7532C60.5416 49.646 60.2024 48.5697 59.5954 47.6431C58.9885 46.7164 58.1374 45.9755 57.136 45.502C57.0729 45.4772 57.0055 45.4655 56.9378 45.4677C56.8702 45.4698 56.8036 45.4857 56.7423 45.5143C56.6809 45.543 56.626 45.5839 56.581 45.6345C56.536 45.6851 56.5017 45.7443 56.4803 45.8085C56.4588 45.8728 56.4507 45.9407 56.4564 46.0082C56.4621 46.0757 56.4815 46.1413 56.5134 46.201C56.5452 46.2608 56.5889 46.3134 56.6418 46.3558C56.6947 46.3981 56.7556 46.4292 56.8209 46.4472C57.407 46.7355 57.9282 47.1404 58.3525 47.637C58.7769 48.1336 59.0955 48.7115 59.289 49.3354C58.9238 49.1794 58.5308 49.099 58.1337 49.0991C57.7093 49.1392 57.301 49.2821 56.9442 49.5154C56.5874 49.7487 56.2927 50.0654 56.0857 50.4381C56.0528 50.495 56.0315 50.5578 56.0229 50.6229C56.0144 50.688 56.0188 50.7542 56.0358 50.8176C56.0529 50.881 56.0823 50.9405 56.1224 50.9925C56.1625 51.0445 56.2125 51.0881 56.2695 51.1208C56.3344 51.2092 56.4267 51.2738 56.5321 51.3046Z" fill="#F18380"/>
    <path d="M73.9059 32.8654C72.7563 36.3134 70.966 39.5129 68.629 42.2954H62.9086C62.9086 42.2954 58.4741 37.1477 58.1416 36.7262C57.6608 36.2134 57.2953 35.6035 57.0697 34.9376C56.844 34.2716 56.7635 33.5651 56.8334 32.8654H73.9059Z" fill="#676575"/>
    <path d="M68.6291 42.2955C68.6291 53.3897 64.964 69.1641 82.2 72.5001C82.2 72.5001 71.1567 71.917 66.9219 66.4809C62.687 61.0447 62.9087 42.2068 62.9087 42.2068L68.6291 42.2955Z" fill="#827F94"/>
    <path d="M52.7318 34.2855H108.694C109.12 29.2264 108.64 24.1318 107.275 19.2418C105.058 12.8959 100.623 5.13 82.0655 5.13C63.5074 5.13 57.011 13.8278 55.7029 20.4178C54.3947 27.0077 55.0155 29.16 54.2395 29.8701C53.4635 30.5801 52.7318 30.6023 52.7318 31.6673V34.2855Z" fill="#EFEFEF"/>
    <path d="M82.0653 5.13012C86.1123 5.05656 90.1497 5.54948 94.0604 6.59456H94.2377L94.9251 6.81644C96.7985 7.39374 98.5821 8.2302 100.224 9.30154C101.339 13.9029 101.632 18.6655 101.089 23.369H94.9251L86.7214 21.9711C86.7214 21.9711 84.1273 8.65807 74.9037 5.5517C77.2777 5.2399 79.6711 5.09901 82.0653 5.13012Z" fill="#D8D8D8"/>
    <path d="M80.779 3H93.3062C94.6365 3 101.089 8.01457 101.089 25.1884H86.832C86.832 20.1294 85.9451 6.88297 77.9631 5.21884C77.9853 5.26321 79.1826 3 80.779 3Z" fill="#EFEFEF"/>
    <path d="M117.629 34.2855V31.0459C117.628 30.5816 117.53 30.1226 117.343 29.6976C117.156 29.2727 116.883 28.891 116.542 28.5765C116.201 28.262 115.798 28.0214 115.359 27.8698C114.921 27.7182 114.456 27.6588 113.993 27.6955H106.832C106.42 27.7147 106.009 27.6454 105.627 27.4923C105.244 27.3392 104.899 27.1059 104.614 26.808C104.149 26.2754 100.978 23.3022 100.601 22.8584C100.342 22.5196 100.006 22.2479 99.6196 22.0664C99.2338 21.885 98.81 21.7989 98.384 21.8156H87.9631C87.5376 21.8026 87.115 21.8902 86.7298 22.0714C86.3445 22.2526 86.0074 22.5223 85.7459 22.8584C85.369 23.3022 82.1983 26.2754 81.7327 26.808C81.4489 27.107 81.1038 27.3412 80.7211 27.4944C80.3384 27.6476 79.9272 27.7162 79.5155 27.6955H73.5513C73.0887 27.6588 72.6235 27.7182 72.1849 27.8698C71.7463 28.0214 71.3438 28.262 71.0024 28.5765C70.661 28.891 70.3883 29.2727 70.2012 29.6976C70.014 30.1226 69.9166 30.5816 69.915 31.0459V34.2855H117.629Z" fill="#D8D8D8"/>
    <path d="M33.5446 223.601C34.0779 216.886 41.278 191.14 49.0115 176.473C49.0115 176.473 65.8824 178.604 76.7466 178.64C88.0817 178.676 105.691 176.473 105.691 176.473C110.734 187.891 116.479 212.837 118.152 218.219C119.162 221.386 119.285 224.768 118.507 227.999C117.729 231.231 116.08 234.187 113.74 236.547C107.994 243.068 93.182 250.535 89.7638 250.535C75.0574 248.434 60.6426 244.643 46.8054 239.238C38.9992 235.965 33.0355 230.341 33.5446 223.601Z" fill="#013EA5"/>
    <path d="M167.437 83.7679C167.537 81.5833 166.952 79.4221 165.764 77.586C163.936 75.4654 162.565 72.9891 161.74 70.3131C161.105 67.8291 160.091 65.4577 158.734 63.2826C157.764 61.9493 156.31 60.8584 156.31 59.8402C156.31 58.822 158.249 56.8583 161.013 57.4159C162.197 57.7847 163.284 58.4106 164.198 59.2488C165.112 60.087 165.829 61.1168 166.298 62.2645C166.563 61.5652 166.718 60.8293 166.758 60.0826L167.364 45.2218C167.374 44.8365 167.46 44.457 167.618 44.1057C167.777 43.7543 168.004 43.4383 168.286 43.1761C168.569 42.914 168.901 42.7111 169.263 42.5795C169.625 42.4478 170.01 42.3901 170.395 42.4096C171.007 42.4357 171.597 42.6533 172.079 43.0316C172.562 43.4099 172.914 43.93 173.086 44.5187V43.8399C173.179 43.1175 173.542 42.4571 174.102 41.9913C174.662 41.5255 175.378 41.2887 176.105 41.3286C176.832 41.3685 177.518 41.6821 178.023 42.2064C178.529 42.7306 178.818 43.4268 178.831 44.1551V46.2157C179.074 45.5804 179.537 45.0535 180.136 44.731C180.735 44.4086 181.429 44.312 182.094 44.4589C182.758 44.6058 183.347 44.9864 183.754 45.5314C184.161 46.0764 184.358 46.7495 184.31 47.4279V48.7369C184.571 48.2784 184.96 47.9058 185.429 47.6647C185.899 47.4236 186.428 47.3244 186.953 47.3793C187.671 47.4706 188.326 47.8379 188.779 48.4035C189.231 48.9691 189.446 49.6886 189.377 50.4097L188.189 62.9433C187.411 70.0095 185.949 76.9837 183.825 83.7679C183.8 84.9006 183.537 86.0154 183.055 87.0407C182.573 88.0659 181.881 88.979 181.025 89.721C180.169 90.4631 179.167 91.0177 178.083 91.3494C177 91.681 175.859 91.7824 174.734 91.6468C173.716 91.6808 172.703 91.4954 171.763 91.1033C170.823 90.7112 169.978 90.1215 169.286 89.3742C168.594 88.6269 168.071 87.7395 167.752 86.7722C167.433 85.8049 167.325 84.7803 167.437 83.7679Z" fill="#FBBEAA"/>
    <path d="M85.7391 479.411C85.7391 477.077 86.6663 474.839 88.3166 473.188C89.967 471.538 92.2054 470.611 94.5393 470.611C96.8732 470.611 99.1116 471.538 100.762 473.188C102.412 474.839 103.339 477.077 103.339 479.411V498.539H85.7391V479.411Z" fill="#FBBEAA"/>
    <path d="M102.71 482.975C104.867 482.975 105.255 483.92 105.886 485.157C106.908 488.452 108.656 491.475 111.001 494.005C114.502 496.987 118.258 499.656 122.225 501.981V512.115H83.0488C83.0488 512.115 83.3155 504.115 83.5094 498.466C83.7034 492.818 84.261 485.933 84.2125 485.205C84.164 484.478 84.2125 482.975 85.5458 482.975H102.71Z" fill="#302D3B"/>
    <path d="M87.9207 499.023C87.9159 500.267 88.2807 501.485 88.9688 502.521C89.6569 503.557 90.6373 504.366 91.7856 504.844C92.9339 505.322 94.1984 505.448 95.4186 505.207C96.6389 504.965 97.7598 504.367 98.6394 503.487C99.519 502.608 100.117 501.487 100.359 500.267C100.6 499.046 100.474 497.782 99.9959 496.634C99.5176 495.485 98.7091 494.505 97.6728 493.817C96.6365 493.129 95.4193 492.764 94.1754 492.769C92.5185 492.775 90.9313 493.436 89.7597 494.608C88.5881 495.779 87.9271 497.366 87.9207 499.023Z" fill="#0447BA"/>
    <path d="M94.1757 495.339L92.7454 497.448L90.2969 498.151L91.8484 500.163L91.7757 502.708L94.1757 501.836L96.5758 502.708L96.4788 500.163L98.0546 498.151L95.6061 497.448L94.1757 495.339Z" fill="white"/>
    <path d="M121.958 501.812C121.958 501.812 127.51 504.745 129.595 506.176C130.56 506.829 131.344 507.717 131.874 508.756C132.404 509.794 132.662 510.95 132.625 512.115H117.4C117.4 512.115 117.716 504.672 121.958 501.812Z" fill="white"/>
    <path d="M83.0488 512.115V516.309C83.0488 517.012 83.6792 517.4 84.7459 517.4H130.953C131.995 517.4 132.625 517.012 132.625 516.309V512.115H83.0488Z" fill="white"/>
    <path d="M117.4 498.975C117.535 498.769 117.744 498.623 117.984 498.569C118.224 498.515 118.475 498.556 118.685 498.684C118.79 498.748 118.88 498.833 118.952 498.933C119.023 499.033 119.074 499.146 119.101 499.265C119.128 499.385 119.131 499.509 119.11 499.63C119.088 499.751 119.043 499.866 118.976 499.969L117.352 502.587C117.274 502.723 117.16 502.835 117.024 502.912C116.887 502.989 116.733 503.027 116.576 503.024C116.397 503.021 116.221 502.971 116.067 502.878C115.963 502.814 115.872 502.729 115.801 502.63C115.729 502.53 115.678 502.417 115.651 502.297C115.624 502.177 115.621 502.053 115.643 501.933C115.664 501.812 115.709 501.696 115.776 501.593L117.4 498.975Z" fill="white"/>
    <path d="M114.54 496.963C114.62 496.87 114.717 496.795 114.825 496.74C114.934 496.685 115.053 496.652 115.174 496.643C115.296 496.634 115.418 496.649 115.534 496.687C115.65 496.726 115.757 496.786 115.849 496.866C115.941 496.945 116.017 497.042 116.072 497.151C116.127 497.26 116.16 497.379 116.169 497.5C116.178 497.622 116.163 497.744 116.125 497.86C116.086 497.975 116.026 498.083 115.946 498.175L114.055 500.405C113.968 500.507 113.86 500.59 113.739 500.649C113.618 500.707 113.486 500.74 113.352 500.745C113.176 500.741 113.005 500.689 112.858 500.594C112.71 500.499 112.592 500.364 112.516 500.206C112.441 500.047 112.411 499.871 112.43 499.696C112.449 499.522 112.517 499.356 112.625 499.217L114.54 496.963Z" fill="white"/>
    <path d="M111.849 494.709C112.042 494.584 112.274 494.534 112.501 494.568C112.728 494.602 112.935 494.717 113.083 494.892C113.231 495.067 113.311 495.29 113.307 495.519C113.303 495.749 113.216 495.969 113.062 496.139L110.904 498.006C110.735 498.149 110.52 498.226 110.298 498.224C110.164 498.229 110.032 498.203 109.91 498.148C109.788 498.093 109.68 498.011 109.595 497.909C109.505 497.825 109.434 497.723 109.385 497.611C109.336 497.498 109.311 497.377 109.311 497.254C109.311 497.131 109.336 497.01 109.385 496.897C109.434 496.785 109.505 496.683 109.595 496.6L111.849 494.709Z" fill="white"/>
    <path d="M107.121 493.593L109.546 492.09C109.758 491.964 110.012 491.927 110.252 491.986C110.492 492.045 110.7 492.195 110.83 492.405C110.896 492.51 110.94 492.626 110.96 492.748C110.979 492.87 110.974 492.995 110.945 493.114C110.915 493.234 110.862 493.347 110.789 493.446C110.715 493.545 110.622 493.628 110.515 493.69L108.091 495.193C107.947 495.289 107.779 495.339 107.606 495.339C107.448 495.335 107.294 495.291 107.158 495.21C107.022 495.129 106.909 495.015 106.83 494.878C106.702 494.668 106.661 494.417 106.715 494.177C106.77 493.937 106.915 493.727 107.121 493.593Z" fill="white"/>
    <path d="M105.085 490.466L107.8 489.327C108.032 489.23 108.292 489.23 108.524 489.325C108.756 489.421 108.94 489.605 109.037 489.836C109.084 489.949 109.108 490.07 109.108 490.192C109.108 490.315 109.084 490.436 109.036 490.549C108.989 490.662 108.919 490.764 108.832 490.85C108.745 490.935 108.641 491.003 108.527 491.048L105.812 492.188H105.449C105.239 492.176 105.04 492.096 104.881 491.959C104.723 491.822 104.614 491.637 104.573 491.431C104.531 491.226 104.559 491.013 104.652 490.825C104.744 490.637 104.897 490.485 105.085 490.394V490.466Z" fill="white"/>
    <path d="M103.388 486.975L106.394 486.223C106.632 486.165 106.883 486.204 107.092 486.332C107.302 486.459 107.452 486.664 107.509 486.902C107.567 487.14 107.528 487.391 107.401 487.6C107.274 487.809 107.069 487.959 106.831 488.017L103.849 488.793H103.631C103.422 488.791 103.219 488.721 103.053 488.594C102.887 488.468 102.767 488.291 102.709 488.09C102.657 487.852 102.699 487.604 102.825 487.396C102.952 487.189 103.153 487.038 103.388 486.975Z" fill="white"/>
    <path d="M72.866 357.082C73.1326 345.348 81.0358 339.676 92.745 339.967C104.454 340.257 112.891 346.391 112.624 358.1L103.339 480.357H85.7389L72.866 357.082Z" fill="#FBBEAA"/>
    <path d="M71.34 357.009C71.4052 354.223 72.0185 351.478 73.1449 348.929C74.2712 346.38 75.8885 344.078 77.9044 342.155C79.9203 340.231 82.2953 338.723 84.8939 337.718C87.4925 336.712 90.2637 336.228 93.0494 336.293C95.8351 336.359 98.5806 336.972 101.129 338.098C103.678 339.224 105.98 340.842 107.903 342.858C109.827 344.874 111.335 347.249 112.34 349.847C113.346 352.446 113.83 355.217 113.765 358.003L116.678 484.465H68.7502L71.34 357.009Z" fill="#013EA5"/>
    <path d="M11.5562 479.411C11.5562 477.077 12.4833 474.839 14.1337 473.188C15.784 471.538 18.0224 470.611 20.3563 470.611C22.6903 470.611 24.9286 471.538 26.579 473.188C28.2293 474.839 29.1565 477.077 29.1565 479.411V498.539H11.5562V479.411Z" fill="#FBBEAA"/>
    <path d="M28.5018 482.975C30.6837 482.975 31.0716 483.92 31.6776 485.157C32.7116 488.452 34.4674 491.475 36.8171 494.005C40.3135 496.993 44.0699 499.662 48.0415 501.981V512.115H8.86511C8.86511 512.115 9.13179 504.115 9.32573 498.466C9.51967 492.818 10.053 485.933 10.0288 485.205C10.0046 484.478 10.0288 482.975 11.3379 482.975H28.5018Z" fill="#302D3B"/>
    <path d="M13.7142 499.023C13.7094 500.266 14.0735 501.482 14.7605 502.518C15.4476 503.554 16.4265 504.363 17.5734 504.842C18.7203 505.32 19.9835 505.448 21.2031 505.209C22.4227 504.969 23.5437 504.373 24.4243 503.496C25.3048 502.619 25.9052 501.5 26.1495 500.281C26.3937 499.063 26.2708 497.799 25.7963 496.65C25.3218 495.502 24.517 494.52 23.4839 493.829C22.4509 493.137 21.236 492.769 19.9931 492.769C18.332 492.769 16.7386 493.427 15.5618 494.599C14.385 495.771 13.7206 497.362 13.7142 499.023Z" fill="#0447BA"/>
    <path d="M19.9687 495.339L18.5384 497.448L16.0898 498.151L17.6657 500.163L17.5929 502.708L19.9687 501.836L22.3688 502.708L22.296 500.163L23.8718 498.151L21.399 497.448L19.9687 495.339Z" fill="white"/>
    <path d="M47.7505 501.812C47.7505 501.812 53.3263 504.745 55.387 506.176C56.3571 506.825 57.1449 507.711 57.6754 508.751C58.2059 509.79 58.4613 510.949 58.4173 512.115H43.1201C43.1201 512.115 43.5323 504.672 47.7505 501.812Z" fill="white"/>
    <path d="M8.86511 512.115V516.309C8.86511 517.012 9.47119 517.4 10.5379 517.4H56.7932C57.8599 517.4 58.466 517.012 58.466 516.309V512.115H8.86511Z" fill="white"/>
    <path d="M43.2173 498.975C43.3491 498.766 43.5586 498.618 43.7995 498.564C44.0405 498.509 44.2932 498.552 44.5022 498.684C44.7112 498.816 44.8592 499.025 44.9138 499.266C44.9683 499.507 44.9249 499.76 44.7931 499.969L43.1689 502.587C43.0848 502.723 42.9669 502.835 42.8266 502.911C42.6863 502.988 42.5286 503.027 42.3689 503.024C42.1964 503.024 42.0277 502.974 41.884 502.878C41.7795 502.814 41.6889 502.729 41.6174 502.63C41.546 502.53 41.4953 502.417 41.4682 502.297C41.4411 502.177 41.4382 502.053 41.4596 501.933C41.4811 501.812 41.5264 501.696 41.5931 501.593L43.2173 498.975Z" fill="white"/>
    <path d="M40.3321 496.963C40.4919 496.777 40.7178 496.66 40.9621 496.637C41.2064 496.615 41.4499 496.688 41.6412 496.842C41.8289 497.006 41.9462 497.236 41.9688 497.484C41.9914 497.732 41.9175 497.98 41.7624 498.175L39.8472 500.405C39.7632 500.511 39.6563 500.597 39.5345 500.655C39.4128 500.714 39.2793 500.745 39.1442 500.745C38.9665 500.747 38.792 500.697 38.6419 500.602C38.4918 500.507 38.3724 500.37 38.298 500.209C38.2237 500.047 38.1977 499.868 38.2231 499.692C38.2485 499.516 38.3242 499.351 38.4411 499.217L40.3321 496.963Z" fill="white"/>
    <path d="M37.6658 494.709C37.8587 494.584 38.0902 494.534 38.3171 494.568C38.5441 494.602 38.751 494.717 38.8994 494.892C39.0477 495.067 39.1273 495.29 39.1234 495.519C39.1195 495.749 39.0322 495.969 38.878 496.139L36.6961 498.006C36.527 498.149 36.3118 498.226 36.0901 498.224C35.9568 498.227 35.8246 498.2 35.703 498.146C35.5814 498.091 35.4734 498.01 35.387 497.909C35.3005 497.823 35.2319 497.721 35.185 497.609C35.1381 497.496 35.114 497.376 35.114 497.254C35.114 497.132 35.1381 497.012 35.185 496.899C35.2319 496.787 35.3005 496.685 35.387 496.6L37.6658 494.709Z" fill="white"/>
    <path d="M32.9384 493.593L35.3627 492.09C35.5718 492.002 35.8057 491.992 36.0217 492.062C36.2376 492.132 36.4212 492.277 36.5389 492.471C36.6565 492.665 36.7004 492.895 36.6625 493.119C36.6246 493.343 36.5074 493.546 36.3324 493.69L33.9081 495.193C33.7644 495.289 33.5957 495.339 33.4233 495.339C33.2617 495.337 33.1033 495.293 32.9632 495.213C32.8232 495.132 32.7061 495.017 32.6233 494.878C32.4973 494.665 32.4598 494.412 32.5187 494.171C32.5776 493.931 32.7283 493.724 32.9384 493.593Z" fill="white"/>
    <path d="M167.147 85.3926L157.45 146.266C155.85 153.903 158.322 160.812 167.147 162.024C168.776 162.236 170.431 162.115 172.011 161.668C173.592 161.221 175.065 160.458 176.342 159.424C177.618 158.39 178.671 157.107 179.437 155.654C180.202 154.201 180.665 152.607 180.795 150.969L183.753 85.5138C184.529 79.3319 181.838 75.2106 177.135 74.7015C171.365 74.0712 168.31 77.4895 167.147 85.3926Z" fill="#FBBEAA"/>
    <path d="M30.9027 490.466L33.6179 489.327C33.7308 489.28 33.852 489.255 33.9744 489.255C34.0968 489.255 34.2179 489.28 34.3308 489.327C34.4436 489.374 34.5459 489.444 34.6316 489.531C34.7174 489.619 34.7848 489.722 34.8301 489.836C34.9206 490.062 34.9207 490.313 34.8304 490.539C34.7401 490.765 34.5664 490.947 34.3452 491.048L31.6058 492.188C31.494 492.213 31.3781 492.213 31.2664 492.188C31.0797 492.188 30.8972 492.132 30.7419 492.029C30.5866 491.925 30.4654 491.778 30.3936 491.606C30.32 491.387 30.3315 491.148 30.4258 490.937C30.5201 490.726 30.6904 490.558 30.9027 490.466Z" fill="white"/>
    <path d="M29.2045 486.975L32.1864 486.224C32.4274 486.165 32.6819 486.203 32.895 486.33C33.1082 486.457 33.2629 486.662 33.3258 486.902C33.3547 487.02 33.36 487.142 33.3415 487.262C33.323 487.382 33.281 487.497 33.218 487.601C33.1549 487.704 33.072 487.795 32.974 487.866C32.876 487.938 32.7649 487.989 32.6469 488.017L29.6651 488.793H29.4227C29.2043 488.777 28.9984 488.684 28.8404 488.533C28.6823 488.381 28.5818 488.179 28.556 487.962C28.5302 487.744 28.5808 487.524 28.6991 487.34C28.8174 487.156 28.996 487.018 29.2045 486.951V486.975Z" fill="white"/>
    <path d="M21.181 356.718C22.3718 351.215 25.6992 346.41 30.4317 343.36C35.1641 340.309 40.9142 339.263 46.4178 340.451C57.8846 342.875 64.0665 354.173 61.5938 365.639L29.1569 482.369H11.3384L21.181 356.718Z" fill="#FBBEAA"/>
    <path d="M21.1809 354.415C22.4966 349.044 25.8552 344.398 30.5427 341.465C35.2302 338.532 40.8768 337.543 46.2822 338.708C51.6876 339.873 56.4254 343.1 59.4885 347.704C62.5515 352.308 63.6981 357.924 62.6846 363.36L51.2857 483.331C51.2857 483.331 20.4003 485.174 2 483.331L21.1809 354.415Z" fill="#013EA5"/>
    <path d="M175.026 139.527L105.4 86.6288C97.2791 81.4408 91.7518 84.2045 87.4366 89.7561C85.4659 92.4432 84.5522 95.7611 84.8696 99.0782C85.187 102.395 86.7133 105.48 89.1578 107.744L158.614 158.921C161.061 160.988 164.212 162.031 167.41 161.832C170.607 161.634 173.605 160.209 175.777 157.854L176.093 157.515C177.246 156.285 178.136 154.832 178.71 153.247C179.283 151.661 179.527 149.975 179.427 148.291C179.328 146.608 178.886 144.963 178.129 143.456C177.372 141.949 176.316 140.612 175.026 139.527Z" fill="#FBBEAA"/>
    <path d="M89.1576 107.72C88.5147 107.167 87.9299 106.55 87.4122 105.878C86.9544 104.152 86.8954 102.345 87.2399 100.594C87.5843 98.8422 88.3231 97.1921 89.4001 95.7685C93.0608 90.1199 100.746 85.6835 104.164 86.532L107.558 88.2532L145.983 117.345C142.582 125.337 137.988 132.767 132.358 139.381L89.1576 107.72Z" fill="#F18380"/>
    <path d="M99.6544 82.8468L159.907 123.484C159.653 125.562 164.536 82.8468 164.536 82.8468L186.837 84.9284C186.837 84.9284 185.535 128.418 182.253 151.386C180.95 160.501 173.363 163.957 164.367 161.995C159.926 161.026 155.744 159.203 152.023 156.591C136.034 145.368 91.1764 113.757 87.5088 109.781C81.1814 102.92 81.1814 97.7804 84.8178 92.1318C88.4543 86.4832 96.2362 81.9983 99.6544 82.8468Z" fill="#013EA5"/>
    <path d="M71.3391 357.009L58.9025 226.801C58.9025 212.425 73.7148 196.764 95.5576 200.134C115.291 203.213 121.304 223.043 119.679 241.832C118.055 260.62 113.667 357.93 113.667 357.93C113.602 360.716 112.988 363.462 111.862 366.01C110.736 368.559 109.119 370.861 107.103 372.784C105.087 374.708 102.712 376.216 100.113 377.221C97.5145 378.227 94.7433 378.711 91.9576 378.646C89.1719 378.581 86.4264 377.967 83.8777 376.841C81.3291 375.715 79.0273 374.097 77.1036 372.081C75.18 370.066 73.6723 367.691 72.6666 365.092C71.6609 362.493 71.1768 359.722 71.2421 356.936L71.3391 357.009Z" fill="#013EA5"/>
    <path d="M21.1811 354.415L33.545 224.231C36.1632 210.098 53.7393 197.564 74.5639 204.982C93.3521 211.698 95.5339 232.304 90.3944 250.462C85.2549 268.62 62.6849 363.361 62.6849 363.361C61.3691 368.731 58.0105 373.377 53.3231 376.31C48.6356 379.243 42.9889 380.233 37.5836 379.068C32.1782 377.903 27.4403 374.675 24.3773 370.071C21.3143 365.468 20.1676 359.851 21.1811 354.415Z" fill="#013EA5"/>
    <path d="M90.3941 250.462C85.2789 268.62 62.6846 363.361 62.6846 363.361" stroke="#E9E9E9" stroke-width="0.75" stroke-miterlimit="10"/>
    <path d="M86.7574 80.786C86.7574 80.786 97.4728 82.6527 99.5577 83.2103C100.788 83.499 101.925 84.0953 102.862 84.9433C103.799 85.7913 104.506 86.8633 104.915 88.0588C106.249 91.2346 113.109 112.035 113.74 114.29C114.166 116.773 113.766 119.328 112.6 121.562C111.606 124.278 106.467 136.642 106.467 136.642L105.691 176.472L76.7465 181.063L49.0114 176.472C49.0114 176.472 39.3142 102.386 38.8294 97.8045C38.3445 93.2226 40.6233 84.374 46.1022 83.2588C51.5811 82.1436 66.6117 80.8345 66.6117 80.8345L86.7574 80.786Z" fill="#FBBEAA"/>
    <path d="M107.05 160.457V174.46C88.0924 176.206 57.8846 174.97 46.539 174.46C46.0056 170.46 45.448 163.672 44.8662 159.163C60.3089 159.551 85.8136 160.99 107.05 160.457Z" fill="white"/>
    <path d="M7.07125 172.909L38.1263 91.1862C42.2718 82.4588 48.4053 81.877 55.0963 84.3013C58.1911 85.5358 60.7226 87.8671 62.2073 90.8499C63.692 93.8327 64.0258 97.2579 63.1449 100.471L31.1686 180.739C30.1994 183.793 28.0847 186.353 25.2685 187.88C22.4524 189.408 19.1538 189.786 16.0653 188.933L15.6047 188.812C13.9756 188.368 12.454 187.596 11.1329 186.544C9.81168 185.492 8.71855 184.183 7.9201 182.695C7.12164 181.207 6.63461 179.571 6.48867 177.889C6.34273 176.207 6.54095 174.512 7.07125 172.909Z" fill="#FBBEAA"/>
    <path d="M19.9438 139.017L38.126 91.1861C38.6136 90.1372 39.1894 89.1316 39.8472 88.18C42.0744 86.7856 44.6241 85.9904 47.249 85.8715C49.874 85.7525 52.4852 86.3139 54.8293 87.5012C57.5514 88.8258 59.7394 91.0403 61.0312 93.7781C62.3229 96.5159 62.6409 99.6128 61.9324 102.556C61.9324 102.847 61.7628 103.405 61.6173 104.156L42.8533 151.308C34.6573 148.353 26.9388 144.212 19.9438 139.017Z" fill="#F18380"/>
    <path d="M40.5552 85.6843C35.2633 92.4883 4.646 175.646 4.646 175.646C32.9953 166.574 33.5 174.5 45.7537 144.651C45.7537 144.651 63.5332 102.92 64.212 99.1866C64.9205 96.2434 64.6025 93.1466 63.3108 90.4088C62.019 87.671 59.831 85.4564 57.1089 84.1318C49.5209 80.253 45.847 78.8803 40.5552 85.6843Z" fill="#0045BA"/>
    <path d="M91.996 80.7705C97.5992 81.836 100.132 81.9633 101.554 82.9015C103.805 84.4118 115.398 104.876 115.398 114.111C115.398 122.28 113.42 187.631 111.772 188.696C110.124 189.762 80.6223 191.144 80.6223 191.144V98.604C83.6165 89.3363 89.8725 86.7659 91.996 80.7705Z" fill="#0045BA"/>
    <path d="M101.554 82.9015C100.132 81.9633 94.5413 81.08 88.9381 80.0145C86.8146 86.0099 83.6165 89.3363 80.6223 98.604V114.111H115.398C115.398 104.876 103.805 84.4118 101.554 82.9015Z" fill="#9A99A1"/>
    <path d="M80.2442 77.7466C73.2892 77.7466 67.0145 74.7226 64.7466 73.2107V80.0145C64.9986 80.3925 66.9389 81.6021 72.6844 83.4164C78.4299 85.2308 86.6701 84.5504 90.072 83.4164V76.6126C90.072 76.9906 88.938 77.7466 80.2442 77.7466Z" fill="#034CC9"/>
    <path d="M115.387 115.546H80.6223V107.986L114.398 108.316C115.057 110.915 115.471 112.771 115.387 115.546Z" fill="#D3D4D2"/>
    <path d="M36.1021 184.447C36.1021 176.879 37 156 46.5 137C47.6612 134 60.2553 99.7417 47.5073 85.3585C43.271 80.5788 39.5471 87.495 40.6641 85.7136C41.781 83.9323 43.019 82.1839 44.8431 81.3454C48.0973 79.7665 55.3281 80.0312 61.8454 80.0312C69.6664 89.6204 77.7668 91.7551 80.6221 98.6198V191.11C80.6221 191.11 36.1021 192.015 36.1021 184.447Z" fill="#034CC9"/>
    <path d="M36.1021 184.447C36.1021 176.879 37 156 46.5 137C47.6612 134 60.2553 99.7417 47.5073 85.3585C43.271 80.5788 39.5471 87.495 40.6641 85.7136C41.781 83.9323 43.019 82.1839 44.8431 81.3454C48.0973 79.7665 55.3281 80.0312 61.8454 80.0312C69.6664 89.6204 77.7668 91.7551 80.6221 98.6198V191.11C80.6221 191.11 36.1021 192.015 36.1021 184.447Z" fill="#034CC9"/>
    <path d="M40.5548 85.6844C39.4378 87.4658 43.2706 80.5787 47.5069 85.3584C52.862 91.4004 53.7181 102.519 52.4751 113.278H80.6218L80.6218 84.5504C73.062 83.7944 69.2821 82.6605 64.7462 80.0145C58.2288 80.0145 47.9668 79.5696 44.7126 81.1485C42.8885 81.987 41.6717 83.9031 40.5548 85.6844Z" fill="#A2A0AB"/>
    <path d="M80.6223 191.144C82.5539 190.496 84.2444 189.247 85.4623 187.569C86.6802 185.891 87.3662 183.865 87.4262 181.768V78.1246H80.6223V191.144Z" fill="#034CC9"/>
    <path d="M52.8891 108H80.6001V116H52.1796C52.5454 112.4 52.8891 110.8 52.8891 108Z" fill="#CFD1CE"/>
    <g style="mix-blend-mode:multiply" opacity="0.4">
        <path d="M79.8662 84.3955L80.6222 84.5504V191.144H79.8662V84.3955Z" fill="#013FA9"/>
    </g>
    <path d="M80.3667 167.317L22.5708 188.77C15.4035 191.828 8.13434 190.758 5.24054 182.418C4.71238 180.864 4.50548 179.219 4.63234 177.582C4.7592 175.945 5.21717 174.351 5.97854 172.897C6.73991 171.443 7.78878 170.158 9.06152 169.121C10.3343 168.084 11.8044 167.317 13.3827 166.865L76.929 151.195C82.8298 149.215 87.3977 151.071 88.8679 155.509C90.5974 160.978 87.8712 164.545 80.3667 167.317Z" fill="#FBBEAA"/>
    <g filter="url(#filter0_d_110_7)">
        <rect x="59.9263" y="123.357" width="40.9288" height="58.3236" rx="1" transform="rotate(-6.55484 59.9263 123.357)" fill="#EFEFEF"/>
    </g>
    <path d="M79.1434 149.497C81.9898 148.294 84.5636 146.512 86.7013 144.263C88.0244 142.874 89.525 141.669 91.1627 140.679C92.1233 140.079 92.9524 139.286 93.5977 138.352C94.4503 136.902 95.156 135.371 95.7038 133.783C95.9068 132.415 96.3721 131.096 97.0738 129.902C97.741 129.29 100.096 129.617 101.318 131.993C101.74 133.051 101.931 134.19 101.878 135.334C101.826 136.478 101.531 137.601 101.015 138.627C100.406 139.857 99.93 141.148 99.5935 142.477L99.8155 142.61C101.678 141.621 103.668 140.904 105.726 140.48C106.472 140.313 107.25 140.404 107.933 140.736C108.616 141.069 109.165 141.625 109.492 142.314C109.819 143.004 109.904 143.787 109.735 144.537C109.565 145.287 109.149 145.961 108.556 146.45C111.767 146.819 111.402 151.771 108.646 152.426C109.236 152.673 109.734 153.099 110.073 153.644C110.412 154.189 110.575 154.827 110.54 155.473C110.506 156.119 110.275 156.741 109.879 157.255C109.484 157.768 108.942 158.15 108.328 158.346C110.286 160.151 108.855 163.126 105.3 163.139C102.412 163.433 94.6865 164.642 91.9989 165.221C89.3112 165.799 83.9091 164.52 82.1737 165.057C79.5906 166.003 76.5904 166.019 74.3019 159.222C72.0135 152.425 76.4852 150.375 79.1434 149.497Z" fill="#FBBEAA"/>
    <path d="M83.5002 168L32.5004 187.506C32.5004 187.506 14.678 194.274 8.00085 188.5C6.76608 187.418 6.06186 185.917 5.38742 184C4.7177 182.096 4.67442 180.532 4.60629 178.892C4.53815 177.252 4.80391 175.615 5.38742 174.08C5.97094 172.546 5.30375 173.5 8.00085 169.5C10.6979 165.5 76.0002 149 76.0002 149L83.5002 168Z" fill="#0045BA"/>
    <path d="M167.922 64.3739C167.001 64.3739 166.928 63.7921 166.516 62.7254C168.577 62.7254 174.565 63.1133 177.183 68.1558C174.541 64.5193 169.474 64.3739 167.922 64.3739ZM172.625 45.1978C172.625 45.1978 172.48 46.0463 172.335 47.2827C172.335 47.913 172.189 48.6645 172.141 49.4403C172.092 50.2161 172.019 51.0646 171.947 51.8646C171.947 53.5616 171.825 55.2343 171.825 56.495C171.825 57.7556 171.825 58.6041 171.825 58.6041C171.825 58.6444 171.834 58.6844 171.85 58.7213C171.866 58.7583 171.889 58.7915 171.919 58.8189C171.949 58.8462 171.984 58.8672 172.022 58.8803C172.06 58.8934 172.1 58.8983 172.141 58.895C172.209 58.8916 172.274 58.8661 172.327 58.8223C172.379 58.7786 172.416 58.7191 172.431 58.6526C172.431 58.6526 172.577 57.8041 172.698 56.5434C172.819 55.2828 173.013 53.6101 173.086 51.9373C173.086 51.0888 173.086 50.2403 173.086 49.513C173.086 48.7857 173.086 47.9858 173.086 47.3554C173.086 46.0706 173.086 45.2463 173.086 45.2463C173.086 45.2059 173.078 45.166 173.062 45.1291C173.046 45.0921 173.022 45.0588 172.992 45.0315C172.963 45.0041 172.928 44.9833 172.89 44.9702C172.852 44.957 172.811 44.952 172.771 44.9554C172.724 44.9821 172.686 45.0212 172.661 45.0683C172.635 45.1153 172.623 45.1685 172.625 45.2221V45.1978ZM178.25 46.8948C178.25 46.8948 178.104 47.6221 177.935 48.6888C177.935 49.2464 177.765 49.8766 177.692 50.5554C177.619 51.2342 177.547 51.9615 177.474 52.6888C177.474 54.1434 177.304 55.598 177.28 56.6889C177.256 57.7798 177.28 58.5314 177.28 58.5314C177.283 58.5696 177.294 58.6069 177.311 58.641C177.329 58.6751 177.353 58.7055 177.382 58.7303C177.411 58.7551 177.445 58.7739 177.482 58.7855C177.518 58.7971 177.557 58.8014 177.595 58.7981C177.66 58.7935 177.722 58.7671 177.771 58.7231C177.819 58.6791 177.851 58.6201 177.862 58.5556C177.862 58.5556 178.007 57.8283 178.177 56.7616C178.347 55.6949 178.492 54.2161 178.613 52.7858C178.613 52.0585 178.613 51.3312 178.759 50.6524C178.904 49.9736 178.759 49.3191 178.759 48.7615C178.759 47.6706 178.759 46.9433 178.759 46.9433C178.759 46.903 178.751 46.8631 178.735 46.8261C178.719 46.7891 178.695 46.7559 178.665 46.7285C178.636 46.7012 178.601 46.6803 178.562 46.6672C178.524 46.6541 178.484 46.649 178.444 46.6524C178.39 46.6746 178.343 46.7113 178.309 46.7583C178.275 46.8054 178.254 46.861 178.25 46.919V46.8948ZM183.68 49.1979C183.68 49.1979 183.535 49.8039 183.341 50.7252C183.341 51.1615 183.147 51.6949 183.074 52.2767C183.001 52.8586 182.904 53.4646 182.807 54.0707C182.638 55.3071 182.565 56.495 182.516 57.4647C182.468 58.4344 182.516 59.0162 182.516 59.0162C182.516 59.0566 182.525 59.0965 182.541 59.1334C182.557 59.1704 182.58 59.2037 182.61 59.231C182.64 59.2584 182.675 59.2792 182.713 59.2924C182.751 59.3055 182.791 59.3105 182.832 59.3071C182.894 59.3039 182.953 59.281 183.001 59.2417C183.049 59.2025 183.083 59.149 183.098 59.089C183.098 59.089 183.268 58.4829 183.438 57.5859C183.607 56.6889 183.85 55.4283 183.995 54.2161C183.995 53.5858 184.117 52.9798 184.165 52.3979C184.214 51.8161 184.165 51.2828 184.165 50.8222C184.165 49.9009 184.165 49.2706 184.165 49.2706C184.165 49.2302 184.157 49.1904 184.141 49.1534C184.125 49.1164 184.101 49.0832 184.071 49.0558C184.042 49.0284 184.007 49.0076 183.969 48.9945C183.93 48.9814 183.89 48.9763 183.85 48.9797C183.805 49.0046 183.767 49.0394 183.737 49.0814C183.708 49.1234 183.688 49.1715 183.68 49.2221V49.1979Z" fill="#F18380"/>
    <path d="M8.80383 437.594L11.0718 422.853H57.1867L55.6748 437.972L8.80383 437.594Z" fill="#CFD1CE"/>
    <path d="M69.6604 437.594L70.0384 422.853H115.397L115.775 437.972L69.6604 437.594Z" fill="#CFD1CE"/>
    <path d="M38.0398 158.944L48.4999 156.5L54.9999 179L44.9999 183L38.0398 158.944Z" fill="#CFD1CE"/>
    <path d="M160.378 118.57L161.512 109.498L185.704 111.388L185.326 120.46L160.378 118.57Z" fill="#CFD1CE"/>
    <defs>
        <filter id="filter0_d_110_7" x="60.0338" y="118.793" width="49.1041" height="62.3995" filterUnits="userSpaceOnUse" color-interpolation-filters="sRGB">
            <feFlood flood-opacity="0" result="BackgroundImageFix"/>
            <feColorMatrix in="SourceAlpha" type="matrix" values="0 0 0 0 0 0 0 0 0 0 0 0 0 0 0 0 0 0 127 0" result="hardAlpha"/>
            <feOffset dx="2"/>
            <feComposite in2="hardAlpha" operator="out"/>
            <feColorMatrix type="matrix" values="0 0 0 0 0.603922 0 0 0 0 0.6 0 0 0 0 0.631373 0 0 0 1 0"/>
            <feBlend mode="normal" in2="BackgroundImageFix" result="effect1_dropShadow_110_7"/>
            <feBlend mode="normal" in="SourceGraphic" in2="effect1_dropShadow_110_7" result="shape"/>
        </filter>
    </defs>
</svg>
