<svg width="271" height="539" viewBox="0 0 271 539" fill="none" xmlns="http://www.w3.org/2000/svg">
<path d="M152.44 90.8814C153.134 90.8814 154.608 90.8814 155.909 91.3151C155.909 92.3559 153.597 93.1942 152.44 93.4833C152.151 92.616 151.746 90.8814 152.44 90.8814Z" fill="#013FA9"/>
<path d="M154.683 70.4556H126.837V102.565H154.683V70.4556Z" fill="#FBBEAA"/>
<path d="M126.906 70.4556H154.66V88.3699C153.447 88.5175 152.227 88.5933 151.005 88.5967C141.431 88.5967 130.723 86.0342 126.814 77.0771L126.906 70.4556Z" fill="#F18380"/>
<path d="M169.069 46.6232C168.837 55.8978 169.069 63.2223 167.357 70.2973C165.646 77.3723 160.419 83.1547 148.855 83.1547C137.291 83.1547 124.109 79.4585 123.183 65.2858C121.287 63.2676 118.211 56.0792 118.095 48.0291C117.98 39.979 118.627 22.9491 137.338 20.3413C156.048 17.7336 169.577 24.4684 169.069 46.6232Z" fill="#FBBEAA"/>
<path d="M159.286 53.9245C159.286 55.1717 160.049 56.1921 160.997 56.1921C161.945 56.1921 162.709 55.1717 162.709 53.9245C162.709 52.6773 161.945 51.6569 160.997 51.6569C160.049 51.6569 159.286 52.5866 159.286 53.9245Z" fill="#403D4F"/>
<path d="M138.47 53.9245C138.47 55.1717 139.233 56.1921 140.182 56.1921C141.13 56.1921 141.893 55.1717 141.893 53.9245C141.893 52.6773 141.13 51.6569 140.182 51.6569C139.233 51.6569 138.47 52.5866 138.47 53.9245Z" fill="#403D4F"/>
<path d="M142.657 49.208C142.495 49.4121 141.269 49.208 140.344 49.208C139.419 49.208 137.638 49.208 137.638 49.0039C137.638 48.7998 138.517 47.3939 140.83 47.6433C142.495 47.8247 143.096 48.8452 142.657 49.208Z" fill="#403D4F"/>
<path d="M158.893 49.208C159.032 49.412 160.073 49.208 160.882 49.208C161.691 49.208 163.195 49.208 163.195 49.0039C162.987 48.4899 162.595 48.068 162.093 47.8174C161.59 47.5669 161.012 47.505 160.466 47.6433C159.032 47.8247 158.639 48.8451 158.893 49.208Z" fill="#403D4F"/>
<path d="M152.07 63.3128C153.688 63.3128 154.984 62.2697 155.03 61.5214L154.498 55.1267C154.48 54.9682 154.4 54.8227 154.275 54.7211C154.15 54.6195 153.989 54.5697 153.827 54.5825C153.748 54.5882 153.671 54.6092 153.6 54.6443C153.53 54.6793 153.467 54.7277 153.415 54.7867C153.363 54.8458 153.324 54.9142 153.3 54.9881C153.275 55.062 153.266 55.1399 153.272 55.2174L153.781 61.3854C153.547 61.6339 153.26 61.828 152.94 61.9536C152.62 62.0791 152.275 62.1329 151.931 62.111C151.85 62.1048 151.769 62.1148 151.692 62.1402C151.615 62.1656 151.544 62.2061 151.484 62.259C151.423 62.312 151.374 62.3764 151.34 62.4484C151.305 62.5204 151.286 62.5984 151.283 62.6779C151.283 62.8387 151.345 62.9937 151.456 63.1116C151.568 63.2294 151.721 63.3014 151.884 63.3128H152.07Z" fill="#F18380"/>
<path d="M127.004 59.1855C124.467 58.8863 122.838 56.9179 122.378 54.6503C121.918 52.3826 120.476 53.5165 117.753 53.5165C115.03 53.5165 113.638 48.267 112.781 44.2736C111.668 39.0797 113.326 32.9995 114.96 30.852C110.603 27.094 112.782 14.2094 113.871 18.5042C114.742 21.9401 117.864 23.5149 119.317 23.8728C123.673 7.98175 140.737 10.8092 148.724 14.2094C154.081 12.0968 158.829 14.1695 161.466 16.1683C165.081 15.5613 168.224 15.6755 162.883 17.4305C162.523 17.0435 162.046 16.6077 161.466 16.1683C158.446 16.6754 155.096 17.6857 156.088 18.6631C158.266 20.8105 184.122 35.147 174.864 40.5156C167.458 44.8105 156.53 41.2314 151.992 38.905C146.764 43.1999 139.648 41.7683 136.743 40.5156C136.308 43.0925 131.313 46.7789 129.316 49.1053C127.32 51.4317 128.16 59.322 127.004 59.1855Z" fill="#F3E8AE"/>
<path d="M123.692 58.233C123.577 55.6479 123.16 51.8383 119.414 51.7476C115.667 51.6569 115.181 54.4234 115.297 58.7773C115.413 63.1311 119.923 66.8273 123.877 65.3307L123.692 58.233Z" fill="#FBBEAA"/>
<path d="M118.188 61.3626C118.35 61.3348 118.495 61.2454 118.59 61.1138C118.685 60.9821 118.724 60.8189 118.697 60.6596C118.697 60.5316 118.734 60.4063 118.803 60.298C118.873 60.1897 118.972 60.1028 119.09 60.0474C119.326 59.8923 119.604 59.8096 119.888 59.8096C120.172 59.8096 120.45 59.8923 120.686 60.0474C120.788 60.1029 120.904 60.1321 121.021 60.1321C121.138 60.1321 121.254 60.1029 121.356 60.0474C121.451 59.9863 121.526 59.9013 121.575 59.8015C121.624 59.7017 121.644 59.5907 121.634 59.4804C121.31 55.8296 118.928 55.1493 118.835 55.1266C118.757 55.1027 118.673 55.095 118.591 55.1041C118.509 55.1131 118.43 55.1386 118.358 55.179C118.287 55.2195 118.224 55.2739 118.175 55.339C118.126 55.4041 118.091 55.4785 118.072 55.5574C118.03 55.7078 118.049 55.8686 118.127 56.0046C118.205 56.1406 118.335 56.2408 118.489 56.2831C118.951 56.4882 119.353 56.8029 119.66 57.1988C119.967 57.5947 120.168 58.0593 120.246 58.5507C119.612 58.4495 118.963 58.5785 118.419 58.9135C118.102 59.0956 117.846 59.364 117.682 59.686C117.518 60.0081 117.453 60.3699 117.494 60.7276C117.49 60.816 117.506 60.9041 117.54 60.986C117.574 61.0678 117.626 61.1414 117.692 61.2018C117.758 61.2621 117.836 61.3077 117.922 61.3355C118.008 61.3632 118.098 61.3725 118.188 61.3626Z" fill="#F18380"/>
<path d="M150.474 71.4759C148.242 71.3915 146.098 70.5954 144.369 69.2083" stroke="#73102A" stroke-width="0.5" stroke-miterlimit="10" stroke-linecap="round"/>
<g opacity="0.3" filter="url(#filter0_f_21_295)">
<ellipse cx="106.5" cy="14.5" rx="106.5" ry="14.5" transform="matrix(1 0 0 -1 17 521.995)" fill="#CBCBCB"/>
</g>
<path d="M132.854 35.9973C131.498 40.0673 129.384 43.844 126.626 47.1285H119.873C119.873 47.1285 114.639 41.0522 114.246 40.5546C113.679 39.9493 113.247 39.2294 112.981 38.4433C112.715 37.6573 112.62 36.8232 112.702 35.9973H132.854Z" fill="#676575"/>
<path d="M126.626 47.1287C126.626 60.2242 122.3 78.8441 142.645 82.7819C142.645 82.7819 129.61 82.0936 124.611 75.6768C119.612 69.2601 119.874 47.0239 119.874 47.0239L126.626 47.1287Z" fill="#827F94"/>
<path d="M107.861 37.6738H173.918C174.421 31.702 173.854 25.6884 172.243 19.9163C169.626 12.4256 164.392 3.25879 142.486 3.25879C120.58 3.25879 112.912 13.5257 111.368 21.3044C109.824 29.0831 110.557 31.6236 109.64 32.4618C108.724 33.2999 107.861 33.3261 107.861 34.5832V37.6738Z" fill="#EFEFEF"/>
<path d="M142.486 3.25892C147.263 3.17209 152.029 3.75392 156.645 4.98752H156.854L157.665 5.24943C159.877 5.93088 161.982 6.91822 163.92 8.18282C165.237 13.6143 165.582 19.236 164.941 24.7879H157.665L147.982 23.1379C147.982 23.1379 144.92 7.42328 134.032 3.75654C136.835 3.38849 139.66 3.22219 142.486 3.25892Z" fill="#D8D8D8"/>
<path d="M140.967 0.744522H155.754C157.325 0.744522 164.941 6.66369 164.941 26.9355H148.112C148.112 20.964 147.065 5.32795 137.644 3.36362C137.67 3.416 139.083 0.744522 140.967 0.744522Z" fill="#EFEFEF"/>
<path d="M184.465 37.6737V33.8498C184.463 33.3017 184.348 32.7598 184.127 32.2582C183.907 31.7567 183.585 31.3061 183.182 30.9348C182.779 30.5636 182.303 30.2796 181.786 30.1006C181.268 29.9217 180.719 29.8517 180.173 29.8949H171.719C171.234 29.9176 170.749 29.8358 170.297 29.6551C169.846 29.4744 169.438 29.1989 169.102 28.8473C168.553 28.2187 164.81 24.7091 164.365 24.1853C164.059 23.7853 163.662 23.4647 163.207 23.2504C162.751 23.0362 162.251 22.9346 161.748 22.9543H149.447C148.945 22.9389 148.446 23.0424 147.992 23.2563C147.537 23.4702 147.139 23.7885 146.83 24.1853C146.385 24.7091 142.643 28.2187 142.093 28.8473C141.758 29.2003 141.351 29.4767 140.899 29.6575C140.447 29.8384 139.962 29.9193 139.476 29.8949H132.436C131.89 29.8517 131.341 29.9217 130.823 30.1006C130.305 30.2796 129.83 30.5636 129.427 30.9348C129.024 31.3061 128.702 31.7567 128.481 32.2582C128.26 32.7598 128.145 33.3017 128.144 33.8498V37.6737H184.465Z" fill="#D8D8D8"/>
<path d="M163.187 427.904C163.187 427.904 162.063 475.349 161.782 482.446C161.501 489.543 156.982 491.475 149.7 492.103C142.419 492.731 139.352 486.984 138.322 482.423C137.291 477.862 131.063 431.348 131.063 431.348L163.187 427.904Z" fill="#FBBEAA"/>
<path d="M116.149 429.051C116.149 429.051 109.958 476.631 108.933 483.714C107.909 490.797 103.23 492.303 95.9445 492.138C88.6586 491.974 86.261 485.879 85.7256 481.197C85.1902 476.514 84.0264 429.051 84.0264 429.051H116.149Z" fill="#FBBEAA"/>
<path d="M97.1667 468.085C99.8111 467.898 102.433 468.677 104.535 470.273C106.637 471.87 108.072 474.173 108.568 476.746L120.738 489.069V496.739H81.7319C81.7319 496.739 83.6904 482.919 84.25 479.81C84.8096 476.7 86.6981 468.085 97.1667 468.085Z" fill="#FBBEAA"/>
<path d="M108.717 476.973C109.167 476.361 109.807 475.89 110.258 476.173C110.708 476.455 122.677 485.873 123.245 486.344C123.596 486.67 123.861 487.077 124.018 487.528C124.175 487.979 124.219 488.462 124.146 488.933V499.034H80.5845C80.5845 499.034 82.2909 484.107 82.4094 483.283C82.5279 482.459 83.3574 481.376 83.8314 481.399C86.8213 482.309 89.9244 482.801 93.0509 482.859C97.2063 483.078 101.351 482.269 105.115 480.505C106.51 479.541 107.728 478.346 108.717 476.973Z" fill="#302D3B"/>
<path d="M116.937 490.849C114.875 489.291 107.458 483.392 104.677 481.173L105.326 480.843C105.413 480.805 105.492 480.748 105.557 480.678C108.524 483.038 115.5 488.607 117.494 490.117C119.178 491.432 120.333 493.329 120.738 495.45L119.834 495.592C119.452 493.711 118.425 492.03 116.937 490.849Z" fill="white"/>
<path d="M81.8727 488.708C84.9111 488.74 87.8514 489.796 90.2233 491.709C92.3672 493.622 93.8193 496.199 94.3517 499.034H93.085C92.567 496.577 91.2852 494.351 89.4258 492.678C87.2428 490.917 84.5288 489.958 81.7319 489.961L81.8727 488.708Z" fill="white"/>
<path d="M131.574 497.887H81.2213C80.8696 497.887 80.5845 498.205 80.5845 498.599V504.058C80.5845 504.451 80.8696 504.77 81.2213 504.77H131.574C131.926 504.77 132.211 504.451 132.211 504.058V498.599C132.211 498.205 131.926 497.887 131.574 497.887Z" fill="white"/>
<path d="M123.227 486.442C123.649 486.271 125.715 486.846 128.402 489.377C129.521 490.485 130.327 491.848 130.743 493.337C131.158 494.826 131.171 496.392 130.779 497.887H117.297C118.052 489.718 122.805 486.612 123.227 486.442Z" fill="white"/>
<path d="M117.482 485.969C117.345 486.169 117.28 486.425 117.301 486.682C117.321 486.939 117.426 487.176 117.592 487.342C117.674 487.422 117.768 487.482 117.869 487.519C117.97 487.556 118.076 487.569 118.181 487.557C118.287 487.545 118.389 487.508 118.482 487.449C118.576 487.389 118.658 487.309 118.725 487.211L120.553 484.574C120.69 484.374 120.755 484.118 120.735 483.861C120.714 483.603 120.61 483.366 120.443 483.201C120.363 483.118 120.269 483.055 120.168 483.017C120.066 482.978 119.959 482.964 119.853 482.977C119.747 482.989 119.645 483.027 119.551 483.088C119.458 483.149 119.376 483.232 119.31 483.332L117.482 485.969Z" fill="white"/>
<path d="M115.188 484.416C115.051 484.665 114.985 484.985 115.006 485.306C115.026 485.627 115.131 485.922 115.298 486.129C115.378 486.232 115.472 486.311 115.574 486.359C115.676 486.407 115.783 486.424 115.889 486.409C115.995 486.393 116.098 486.346 116.192 486.27C116.285 486.194 116.368 486.09 116.433 485.966L118.265 482.676C118.398 482.424 118.46 482.106 118.44 481.787C118.419 481.468 118.317 481.173 118.155 480.963C118.074 480.859 117.98 480.781 117.879 480.733C117.777 480.685 117.67 480.668 117.564 480.683C117.457 480.698 117.354 480.746 117.261 480.822C117.167 480.898 117.085 481.001 117.019 481.126L115.188 484.416Z" fill="white"/>
<path d="M111.811 481.789C111.63 481.935 111.542 482.124 111.564 482.315C111.586 482.505 111.718 482.682 111.931 482.806C112.151 482.929 112.432 482.987 112.714 482.969C112.997 482.951 113.257 482.857 113.439 482.708L115.832 480.724C115.932 480.656 116.012 480.576 116.067 480.487C116.121 480.399 116.15 480.303 116.15 480.207C116.15 480.111 116.121 480.016 116.067 479.927C116.012 479.838 115.932 479.758 115.832 479.691C115.61 479.572 115.33 479.516 115.049 479.534C114.769 479.552 114.509 479.644 114.324 479.789L111.811 481.789Z" fill="white"/>
<path d="M109.449 479.76C109.382 479.883 109.331 480.025 109.301 480.177C109.27 480.33 109.259 480.49 109.269 480.649C109.279 480.808 109.31 480.962 109.36 481.103C109.409 481.244 109.477 481.369 109.558 481.47C109.711 481.698 109.917 481.825 110.131 481.825C110.345 481.825 110.551 481.698 110.704 481.47L112.523 478.104C112.659 477.851 112.724 477.527 112.704 477.201C112.683 476.876 112.579 476.576 112.414 476.366C112.332 476.265 112.239 476.188 112.138 476.142C112.038 476.095 111.932 476.079 111.827 476.094C111.722 476.11 111.621 476.156 111.528 476.231C111.435 476.306 111.353 476.409 111.286 476.532L109.449 479.76Z" fill="white"/>
<path d="M153.391 468.085C156.037 467.898 158.66 468.677 160.763 470.273C162.866 471.87 164.302 474.173 164.799 476.746L176.953 489.069V496.739H137.947C137.947 496.739 139.883 482.919 140.466 479.81C141.05 476.7 142.916 468.085 153.391 468.085Z" fill="#FBBEAA"/>
<path d="M163.807 476.973C164.258 476.361 164.875 475.89 165.349 476.173C165.823 476.455 177.778 485.873 178.323 486.344C178.869 486.815 179.248 487.403 179.248 488.933V499.034H135.653C135.653 499.034 137.361 484.107 137.479 483.283C137.598 482.459 138.428 481.376 138.902 481.399C141.895 482.309 145 482.801 148.129 482.859C152.28 483.082 156.422 482.273 160.178 480.505C161.586 479.546 162.814 478.351 163.807 476.973Z" fill="#302D3B"/>
<path d="M170.858 490.849C168.795 489.291 161.379 483.392 158.598 481.173L159.223 480.843C159.318 480.805 159.405 480.749 159.478 480.678C162.445 483.038 169.421 488.607 171.414 490.117C173.099 491.432 174.254 493.329 174.659 495.45L173.755 495.592C173.362 493.716 172.337 492.038 170.858 490.849Z" fill="white"/>
<path d="M138.075 488.708C140.837 488.74 143.51 489.796 145.666 491.709C147.615 493.622 148.935 496.199 149.419 499.034H148.268C147.791 496.574 146.618 494.347 144.92 492.678C142.945 490.913 140.483 489.954 137.947 489.961L138.075 488.708Z" fill="white"/>
<path d="M185.495 497.887H135.142C134.79 497.887 134.505 498.205 134.505 498.599V504.058C134.505 504.451 134.79 504.77 135.142 504.77H185.495C185.847 504.77 186.132 504.451 186.132 504.058V498.599C186.132 498.205 185.847 497.887 185.495 497.887Z" fill="white"/>
<path d="M177.642 486.442C178.099 486.271 180.337 486.846 183.248 489.377C184.46 490.485 185.333 491.848 185.783 493.337C186.234 494.826 186.247 496.392 185.823 497.887H171.217C172.035 489.718 177.185 486.612 177.642 486.442Z" fill="white"/>
<path d="M172.612 485.969C172.429 486.169 172.342 486.425 172.369 486.682C172.397 486.939 172.537 487.176 172.759 487.342C172.868 487.422 172.993 487.482 173.128 487.519C173.264 487.556 173.405 487.569 173.546 487.557C173.687 487.545 173.823 487.508 173.948 487.449C174.073 487.389 174.183 487.309 174.273 487.211L176.715 484.574C176.892 484.372 176.975 484.117 176.948 483.861C176.921 483.606 176.785 483.37 176.568 483.201C176.461 483.118 176.335 483.055 176.2 483.017C176.064 482.978 175.921 482.964 175.78 482.977C175.638 482.989 175.501 483.027 175.376 483.088C175.251 483.149 175.142 483.232 175.054 483.332L172.612 485.969Z" fill="white"/>
<path d="M170.256 484.413C170.119 484.663 170.053 484.983 170.074 485.304C170.095 485.625 170.2 485.921 170.366 486.128C170.447 486.232 170.541 486.311 170.642 486.359C170.744 486.407 170.851 486.424 170.957 486.409C171.064 486.393 171.167 486.346 171.26 486.27C171.354 486.194 171.436 486.09 171.502 485.965L173.333 482.67C173.466 482.417 173.529 482.099 173.508 481.779C173.488 481.46 173.386 481.165 173.223 480.954C173.055 480.75 172.84 480.653 172.624 480.683C172.408 480.714 172.209 480.87 172.069 481.118L170.256 484.413Z" fill="white"/>
<path d="M166.954 481.791C166.851 481.857 166.769 481.936 166.713 482.023C166.657 482.11 166.628 482.204 166.628 482.299C166.628 482.393 166.657 482.487 166.713 482.574C166.769 482.662 166.851 482.74 166.954 482.806C167.179 482.929 167.469 482.987 167.76 482.969C168.05 482.951 168.318 482.857 168.505 482.708L170.968 480.727C171.152 480.577 171.24 480.384 171.212 480.191C171.185 479.998 171.044 479.82 170.82 479.695C170.71 479.635 170.583 479.59 170.447 479.562C170.311 479.534 170.168 479.525 170.026 479.534C169.884 479.543 169.746 479.571 169.62 479.615C169.495 479.66 169.383 479.72 169.293 479.794L166.954 481.791Z" fill="white"/>
<path d="M164.578 479.76C164.489 479.883 164.422 480.025 164.381 480.177C164.34 480.33 164.325 480.49 164.339 480.649C164.352 480.808 164.393 480.962 164.459 481.103C164.525 481.244 164.615 481.369 164.724 481.47C164.928 481.698 165.202 481.825 165.488 481.825C165.773 481.825 166.048 481.698 166.252 481.47L168.677 478.104C168.859 477.851 168.945 477.527 168.918 477.201C168.891 476.876 168.752 476.576 168.531 476.366C168.423 476.265 168.298 476.188 168.164 476.142C168.03 476.095 167.889 476.079 167.749 476.094C167.61 476.11 167.474 476.156 167.35 476.231C167.226 476.306 167.117 476.409 167.028 476.532L164.578 479.76Z" fill="white"/>
<path d="M87.6601 327.226C87.2707 330.255 87.4754 333.333 88.2622 336.281C89.049 339.23 90.4023 341.99 92.2438 344.402C94.0854 346.815 96.3786 348.832 98.9908 350.336C101.603 351.841 104.482 352.803 107.462 353.168C110.442 353.532 113.464 353.292 116.352 352.46C119.24 351.629 121.938 350.223 124.288 348.323C126.639 346.423 128.597 344.068 130.047 341.394C131.498 338.719 132.414 335.779 132.741 332.742C132.741 332.742 144.56 248.245 147.363 231.175C150.166 214.104 147.199 199.816 128.419 195.75C108.939 191.542 96.7696 206.069 95.2981 220.619C93.8265 235.169 87.6601 327.226 87.6601 327.226Z" fill="#013EA5"/>
<path d="M125.612 328.851C125.537 334.964 127.895 340.856 132.169 345.232C136.443 349.608 142.282 352.108 148.401 352.184C154.521 352.259 160.42 349.903 164.8 345.634C169.181 341.365 171.685 335.533 171.76 329.42C171.76 329.42 174.68 244.341 175.677 227.103C176.674 209.864 172.164 196.04 152.745 194.048C132.615 191.985 121.885 207.706 121.885 222.313C121.885 236.92 125.612 328.851 125.612 328.851Z" fill="#013EA5"/>
<path d="M125.327 329.038C125.365 326.014 126.011 323.028 127.228 320.248C128.446 317.469 130.21 314.952 132.421 312.84C134.631 310.728 137.245 309.064 140.113 307.941C142.981 306.819 146.047 306.26 149.135 306.297C152.224 306.335 155.274 306.967 158.113 308.159C160.952 309.35 163.523 311.078 165.68 313.242C167.837 315.407 169.537 317.966 170.684 320.774C171.83 323.581 172.401 326.583 172.363 329.606L167.524 451.435L129.561 455.438L125.327 329.038Z" fill="#013EA5"/>
<path d="M87.7399 327.576C88.5225 321.534 91.6339 316.048 96.3984 312.309C101.163 308.57 107.196 306.881 113.186 307.608C119.176 308.335 124.641 311.421 128.392 316.193C132.144 320.966 133.879 327.041 133.222 333.098L115.477 454.291H78.29L87.7399 327.576Z" fill="#013EA5"/>
<path d="M132.211 331.535L115.002 453.144" stroke="#013EA5" stroke-width="0.75" stroke-miterlimit="10" stroke-linecap="round"/>
<path d="M133.358 332.682C133.358 332.682 145.413 248.692 148.272 231.724" stroke="#F5F5F5" stroke-width="0.75" stroke-miterlimit="10" stroke-linecap="round"/>
<path d="M173.512 204.19C173.512 204.19 173.512 228.129 173.512 229.445C173.512 230.761 162.003 242.049 146.718 242.049C123.217 242.049 95.0887 233.439 95.5031 227.829C95.7793 224.136 96.1245 204.19 96.1245 204.19H173.512Z" fill="#013EA5"/>
<path d="M244.334 105.977L233.209 175.814C231.373 184.575 234.21 192.502 244.334 193.893C246.202 194.136 248.101 193.997 249.914 193.484C251.728 192.971 253.418 192.095 254.883 190.909C256.347 189.723 257.555 188.252 258.433 186.584C259.312 184.917 259.842 183.089 259.992 181.21L263.385 106.116C264.275 99.0237 261.188 94.2956 255.792 93.7115C249.173 92.9884 245.669 96.91 244.334 105.977Z" fill="#FBBEAA"/>
<path d="M253.374 168.082L173.496 107.395C164.179 101.443 157.838 104.614 152.887 110.983C150.626 114.066 149.578 117.872 149.942 121.678C150.306 125.483 152.057 129.022 154.862 131.62L234.545 190.332C237.353 192.704 240.968 193.901 244.636 193.673C248.304 193.445 251.743 191.81 254.236 189.109L254.598 188.719C255.921 187.308 256.942 185.642 257.6 183.822C258.258 182.003 258.538 180.069 258.424 178.138C258.309 176.207 257.802 174.319 256.934 172.59C256.066 170.861 254.854 169.328 253.374 168.082Z" fill="#FBBEAA"/>
<path d="M244.667 104.113C244.782 101.607 244.111 99.1272 242.748 97.0208C240.65 94.5879 239.078 91.747 238.131 88.677C237.403 85.8272 236.239 83.1066 234.682 80.6112C233.57 79.0815 231.901 77.83 231.901 76.6619C231.901 75.4938 234.126 73.2409 237.297 73.8806C238.655 74.3037 239.902 75.0217 240.951 75.9834C241.999 76.945 242.822 78.1264 243.36 79.4431C243.664 78.6409 243.842 77.7966 243.888 76.94L244.583 59.8909C244.594 59.4489 244.693 59.0135 244.875 58.6104C245.056 58.2073 245.317 57.8447 245.641 57.544C245.965 57.2433 246.346 57.0105 246.761 56.8595C247.177 56.7084 247.618 56.6422 248.06 56.6646C248.763 56.6946 249.439 56.9441 249.993 57.3782C250.546 57.8122 250.95 58.4089 251.147 59.0843V58.3055C251.254 57.4767 251.671 56.7191 252.313 56.1847C252.956 55.6503 253.777 55.3787 254.611 55.4245C255.445 55.4702 256.232 55.83 256.812 56.4314C257.392 57.0329 257.723 57.8316 257.739 58.6671V61.0312C258.017 60.3024 258.549 59.6978 259.236 59.3279C259.923 58.9579 260.72 58.8472 261.481 59.0157C262.243 59.1842 262.919 59.6209 263.386 60.2461C263.853 60.8713 264.079 61.6435 264.025 62.4218V63.9237C264.324 63.3976 264.77 62.9701 265.308 62.6935C265.847 62.4169 266.454 62.3032 267.056 62.3661C267.88 62.4708 268.632 62.8922 269.151 63.5411C269.67 64.19 269.916 65.0155 269.837 65.8427L268.475 80.2219C267.582 88.3287 265.905 96.3298 263.468 104.113C263.439 105.412 263.138 106.691 262.584 107.868C262.031 109.044 261.238 110.091 260.256 110.943C259.273 111.794 258.124 112.43 256.881 112.811C255.638 113.191 254.329 113.308 253.038 113.152C251.871 113.191 250.708 112.978 249.63 112.529C248.551 112.079 247.582 111.402 246.788 110.545C245.994 109.687 245.394 108.669 245.028 107.56C244.662 106.45 244.539 105.274 244.667 104.113Z" fill="#FBBEAA"/>
<path d="M166.903 103.056L236.027 149.677C235.737 152.061 241.338 103.056 241.338 103.056L266.924 105.444C266.924 105.444 265.429 155.338 261.664 181.688C260.17 192.145 251.466 196.111 241.145 193.859C236.049 192.747 231.252 190.656 226.983 187.66C208.639 174.784 157.177 138.518 152.969 133.956C145.71 126.085 145.71 120.189 149.882 113.708C154.054 107.228 162.981 102.083 166.903 103.056Z" fill="#013EA5"/>
<path d="M245.223 81.8632C244.167 81.8632 244.083 81.1957 243.61 79.9719C245.974 79.9719 252.844 80.4169 255.848 86.2019C252.816 82.0301 247.003 81.8632 245.223 81.8632ZM250.619 59.8634C250.619 59.8634 250.452 60.8369 250.285 62.2553C250.285 62.9784 250.118 63.8406 250.063 64.7306C250.007 65.6206 249.924 66.594 249.84 67.5119C249.84 69.4587 249.701 71.3778 249.701 72.8241C249.701 74.2703 249.701 75.2438 249.701 75.2438C249.701 75.29 249.711 75.3359 249.729 75.3783C249.748 75.4207 249.775 75.4588 249.809 75.4902C249.843 75.5215 249.883 75.5456 249.927 75.5606C249.97 75.5756 250.017 75.5814 250.063 75.5775C250.141 75.5736 250.216 75.5443 250.276 75.4941C250.336 75.444 250.379 75.3757 250.397 75.2994C250.397 75.2994 250.563 74.3259 250.703 72.8797C250.842 71.4334 251.064 69.5144 251.148 67.5953C251.148 66.6218 251.148 65.6484 251.148 64.814C251.148 63.9796 251.148 63.0619 251.148 62.3387C251.148 60.8647 251.148 59.919 251.148 59.919C251.148 59.8727 251.138 59.8269 251.12 59.7845C251.101 59.7421 251.074 59.704 251.04 59.6726C251.006 59.6412 250.966 59.6172 250.922 59.6022C250.879 59.5872 250.832 59.5814 250.786 59.5852C250.733 59.6159 250.689 59.6608 250.659 59.7148C250.63 59.7687 250.616 59.8298 250.619 59.8912V59.8634ZM257.072 61.8103C257.072 61.8103 256.905 62.6446 256.71 63.8684C256.71 64.5081 256.515 65.2312 256.432 66.0099C256.348 66.7887 256.265 67.6231 256.182 68.4575C256.182 70.1262 255.987 71.795 255.959 73.0465C255.931 74.2981 255.959 75.1603 255.959 75.1603C255.963 75.2042 255.975 75.2469 255.995 75.2861C256.015 75.3253 256.043 75.3601 256.076 75.3886C256.11 75.417 256.149 75.4385 256.191 75.4519C256.233 75.4652 256.277 75.4701 256.321 75.4663C256.395 75.4611 256.466 75.4308 256.522 75.3803C256.577 75.3299 256.614 75.2622 256.627 75.1882C256.627 75.1882 256.794 74.3537 256.988 73.13C257.183 71.9062 257.35 70.2097 257.489 68.5687C257.489 67.7344 257.489 66.9 257.656 66.1212C257.823 65.3425 257.656 64.5915 257.656 63.9518C257.656 62.7003 257.656 61.8659 257.656 61.8659C257.656 61.8196 257.646 61.7739 257.628 61.7314C257.609 61.689 257.582 61.6509 257.548 61.6195C257.514 61.5881 257.474 61.5642 257.43 61.5491C257.387 61.5341 257.34 61.5283 257.294 61.5322C257.232 61.5576 257.179 61.5997 257.14 61.6537C257.1 61.7077 257.077 61.7715 257.072 61.8381V61.8103ZM263.302 64.4524C263.302 64.4524 263.135 65.1478 262.912 66.2047C262.912 66.7053 262.69 67.3172 262.606 67.9847C262.523 68.6522 262.412 69.3475 262.3 70.0428C262.106 71.4613 262.022 72.8241 261.967 73.9366C261.911 75.0491 261.967 75.7166 261.967 75.7166C261.966 75.7629 261.976 75.8086 261.994 75.8511C262.013 75.8935 262.04 75.9316 262.074 75.963C262.108 75.9944 262.148 76.0183 262.192 76.0334C262.236 76.0484 262.282 76.0542 262.328 76.0504C262.399 76.0467 262.467 76.0203 262.522 75.9753C262.577 75.9303 262.617 75.8689 262.634 75.8C262.634 75.8 262.829 75.1047 263.024 74.0757C263.218 73.0466 263.496 71.6003 263.663 70.2097C263.663 69.4866 263.802 68.7912 263.858 68.1237C263.914 67.4562 263.858 66.8444 263.858 66.3159C263.858 65.259 263.858 64.5359 263.858 64.5359C263.858 64.4896 263.849 64.4439 263.83 64.4014C263.812 64.359 263.785 64.3209 263.751 64.2895C263.717 64.2581 263.676 64.2342 263.633 64.2191C263.589 64.2041 263.542 64.1983 263.496 64.2021C263.445 64.2308 263.401 64.2707 263.367 64.3188C263.333 64.367 263.311 64.4222 263.302 64.4803V64.4524Z" fill="#F18380"/>
<path d="M236.568 144.039L237.869 133.632L265.623 135.8L265.189 146.208L236.568 144.039Z" fill="#CFD1CE"/>
<path d="M155.871 96.5103C155.871 96.5103 172.664 106.207 175.285 107.904C177.906 109.601 180.866 112.219 180.332 119.297C179.799 126.376 177.542 221.661 177.542 221.661C168.923 223.12 143.683 223.12 143.683 223.12H141.389H139.668H137.373H135.653H133.932C133.932 223.12 96.5137 219.94 95.7614 219.503C95.0092 219.067 94.3054 218.606 94.3539 217.782C94.4025 216.958 94.8878 120.097 95.2033 115.831C95.2658 113.546 95.9855 111.327 97.2765 109.44C98.5675 107.553 100.375 106.077 102.483 105.189C107.555 102.934 126.605 95.2012 126.605 95.2012L142.605 96.5103H155.871Z" fill="#034CC9"/>
<path d="M155.871 96.5103C155.871 96.5103 172.664 106.207 175.285 107.904C177.906 109.601 180.866 112.219 180.332 119.297C179.799 126.376 177.542 221.661 177.542 221.661C168.923 223.12 155.156 223.12 155.156 223.12H152.861H151.141H148.846H147.125H145.404C145.404 223.12 148.14 219.94 147.388 219.503C146.635 219.067 145.932 218.606 145.98 217.782C146.029 216.958 146.514 120.097 146.83 115.831C146.892 113.546 147.612 111.327 148.903 109.44C150.194 107.553 152.001 106.077 154.11 105.189C159.182 102.934 126.605 95.2012 126.605 95.2012L142.605 96.5103H155.871Z" fill="#0045BA"/>
<path d="M157.777 96.65C157.777 96.65 176.342 107.382 179.24 109.26C182.137 111.138 179.822 115.278 179.822 122.735C179.822 132.487 178.101 133.061 178.101 133.061C172.295 136.194 169.756 133.75 163.357 135.356C160.245 135.705 157.83 135.785 155.738 133.746C153.645 131.707 147.125 132.487 147.125 132.487C147.125 132.487 137.306 131.197 132.719 133.746C131.621 134.511 130.381 135.048 129.072 135.325C127.763 135.601 126.734 135.581 125.421 135.325C118.767 133.957 92.1531 126.315 91.3214 125.832C90.4897 125.349 89.7117 124.839 89.7653 123.927C89.819 123.015 90.3556 122.755 90.7043 118.033C90.7734 115.504 91.5691 113.049 92.9964 110.96C94.4237 108.871 96.4222 107.238 98.753 106.255C104.36 103.76 125.421 95.2012 125.421 95.2012L143.11 95.7749L157.777 96.65Z" fill="#9A99A1"/>
<path d="M144.635 92.616C136.656 92.616 129.457 89.1468 126.855 87.4122V95.218C127.145 95.6516 129.371 97.0393 135.962 99.1208C142.554 101.202 152.007 100.422 155.91 99.1208V91.3151C155.91 91.7487 154.609 92.616 144.635 92.616Z" fill="#034CC9"/>
<path d="M145.068 222.711C147.284 221.968 149.224 220.535 150.621 218.61C152.018 216.684 152.805 214.36 152.874 211.955V93.0496H145.068V222.711Z" fill="#034CC9"/>
<path d="M179.822 135.981H140.479V127.308L179.822 127.324C179.822 131.34 179.822 132.487 179.822 135.981Z" fill="#D3D4D2"/>
<path d="M108.673 127.308H148.285V135.981H107.861C108.389 132.078 108.673 130.344 108.673 127.308Z" fill="#CFD1CE"/>
<g style="mix-blend-mode:multiply" opacity="0.4">
<path d="M144.201 100.244L145.068 100.422V222.711H144.201V100.244Z" fill="#013FA9"/>
</g>
<g filter="url(#filter1_d_21_295)">
<rect x="117.87" y="140.665" width="49.4484" height="70.4639" rx="1" transform="rotate(-6.55484 117.87 140.665)" fill="#EFEFEF"/>
</g>
<path d="M139.804 171.591C142.931 170.27 145.758 168.312 148.106 165.841C149.56 164.316 151.208 162.992 153.007 161.905C154.062 161.245 154.973 160.375 155.682 159.348C156.618 157.756 157.394 156.074 157.995 154.329C158.218 152.826 158.73 151.378 159.5 150.066C160.233 149.394 162.82 149.753 164.163 152.363C164.626 153.526 164.835 154.777 164.778 156.034C164.72 157.29 164.397 158.523 163.829 159.65C163.161 161.002 162.638 162.42 162.268 163.88L162.512 164.026C164.558 162.94 166.744 162.152 169.005 161.687C169.824 161.503 170.678 161.602 171.429 161.968C172.179 162.333 172.783 162.944 173.142 163.701C173.501 164.458 173.594 165.318 173.408 166.143C173.221 166.967 172.765 167.707 172.113 168.244C175.64 168.649 175.24 174.089 172.212 174.808C172.86 175.08 173.407 175.547 173.78 176.146C174.152 176.745 174.331 177.446 174.293 178.156C174.255 178.865 174.002 179.548 173.567 180.113C173.132 180.677 172.538 181.096 171.863 181.312C174.014 183.295 172.442 186.563 168.537 186.577C165.364 186.9 156.878 188.228 153.926 188.864C150.973 189.499 145.039 188.093 143.133 188.683C140.295 189.723 137 189.74 134.486 182.274C131.972 174.807 136.884 172.555 139.804 171.591Z" fill="#FBBEAA"/>
<path d="M92.2185 111.013C86.1474 118.819 56.896 200.858 56.896 200.858C89.4198 190.451 73.2551 186.461 90.9439 189.437C90.9439 189.437 118.58 130.787 119.359 126.504C120.172 123.127 119.807 119.575 118.325 116.434C116.843 113.293 114.333 110.752 111.21 109.232C102.504 104.782 98.2896 103.207 92.2185 111.013Z" fill="#0045BA"/>
<path d="M143.775 194.203L81.2741 219.366C73.2871 223.382 60.3105 221.322 56.3985 211.98C55.6822 210.239 55.3272 208.369 55.355 206.486C55.3828 204.603 55.7928 202.745 56.5602 201.025C57.3276 199.305 58.4364 197.759 59.8193 196.481C61.2022 195.202 62.8304 194.218 64.6051 193.587L138.471 166.872L143.775 194.203Z" fill="#0045BA"/>
<path d="M93.5524 182.802L104.253 179.592L108.264 208.17L98.3547 213.278L93.5524 182.802Z" fill="#CFD1CE"/>
<defs>
<filter id="filter0_f_21_295" x="0" y="475.995" width="247" height="63" filterUnits="userSpaceOnUse" color-interpolation-filters="sRGB">
<feFlood flood-opacity="0" result="BackgroundImageFix"/>
<feBlend mode="normal" in="SourceGraphic" in2="BackgroundImageFix" result="shape"/>
<feGaussianBlur stdDeviation="8.5" result="effect1_foregroundBlur_21_295"/>
</filter>
<filter id="filter1_d_21_295" x="117.978" y="135.128" width="58.9541" height="75.433" filterUnits="userSpaceOnUse" color-interpolation-filters="sRGB">
<feFlood flood-opacity="0" result="BackgroundImageFix"/>
<feColorMatrix in="SourceAlpha" type="matrix" values="0 0 0 0 0 0 0 0 0 0 0 0 0 0 0 0 0 0 127 0" result="hardAlpha"/>
<feOffset dx="2"/>
<feComposite in2="hardAlpha" operator="out"/>
<feColorMatrix type="matrix" values="0 0 0 0 0.603922 0 0 0 0 0.6 0 0 0 0 0.631373 0 0 0 1 0"/>
<feBlend mode="normal" in2="BackgroundImageFix" result="effect1_dropShadow_21_295"/>
<feBlend mode="normal" in="SourceGraphic" in2="effect1_dropShadow_21_295" result="shape"/>
</filter>
</defs>
</svg>
