<svg width="188" height="514" viewBox="0 0 188 514" fill="none" xmlns="http://www.w3.org/2000/svg">
<path d="M102.872 73.1777C102.268 73.1777 100.984 73.1777 99.8506 73.5554C99.8506 74.4618 101.865 75.192 102.872 75.4438C103.124 74.6884 103.476 73.1777 102.872 73.1777Z" fill="#013FA9"/>
<path d="M137.847 21.8012C139.328 27.4665 140.206 33.2723 140.467 39.1221C140.778 43.9909 142.389 48.6873 145.132 52.7219C147.752 56.1022 151.185 59.6136 149.927 70.0952H82.8186C82.8186 70.0952 80.1982 64.8544 83.3427 55.8664C87.0466 44.7705 89.7735 33.3721 91.4921 21.8012H137.847Z" fill="#BC664A"/>
<path d="M125.007 52.7221V74.9692C125.007 74.9692 123.251 82.647 111.486 82.647C109.15 82.844 106.827 82.1391 104.995 80.6771C103.162 79.2152 101.959 77.1071 101.633 74.7858V52.7221H125.007Z" fill="#FBBEAA"/>
<path d="M101.633 71.3531C109.022 74.8382 119.792 71.7199 125.007 62.0507V52.7221H101.633V71.3531Z" fill="#F18380"/>
<path d="M87.0375 35.7154C86.9256 41.0446 87.1619 46.3753 87.745 51.6737C88.7146 59.2204 91.3874 67.6057 104.778 67.6057C118.168 67.6057 124.955 61.5788 127.837 51.6737C129.567 45.6729 133.078 36.8422 131.637 26.5964C130.195 16.3507 124.037 9.69489 109.494 9.30183C94.9511 8.90877 85.439 15.4598 87.0375 35.7154Z" fill="#FBBEAA"/>
<path d="M115.338 40.2752C115.245 40.6611 115.045 41.0131 114.762 41.2913C114.479 41.5695 114.123 41.7627 113.735 41.8489C113.348 41.9351 112.944 41.9109 112.57 41.779C112.195 41.6472 111.865 41.413 111.617 41.103C111.369 40.7929 111.213 40.4196 111.167 40.0253C111.12 39.631 111.185 39.2316 111.354 38.8725C111.524 38.5134 111.79 38.2089 112.124 37.9936C112.457 37.7783 112.844 37.6609 113.241 37.6548C113.553 37.6839 113.856 37.7755 114.132 37.9241C114.407 38.0727 114.65 38.2754 114.846 38.5199C115.042 38.7645 115.186 39.0459 115.27 39.3475C115.355 39.6491 115.378 39.9645 115.338 40.2752Z" fill="#403D4F"/>
<path d="M95.9207 40.2752C95.8275 40.6611 95.628 41.0131 95.3448 41.2913C95.0615 41.5695 94.706 41.7627 94.3184 41.8489C93.9309 41.9351 93.527 41.9109 93.1525 41.779C92.7781 41.6472 92.448 41.413 92.2 41.103C91.952 40.7929 91.7959 40.4196 91.7495 40.0253C91.703 39.631 91.7681 39.2316 91.9373 38.8725C92.1065 38.5134 92.373 38.2089 92.7066 37.9936C93.0402 37.7783 93.4275 37.6609 93.8244 37.6548C94.1349 37.6873 94.4358 37.7812 94.7097 37.9309C94.9836 38.0806 95.225 38.2832 95.42 38.527C95.615 38.7707 95.7596 39.0508 95.8456 39.3509C95.9316 39.651 95.9571 39.9651 95.9207 40.2752Z" fill="#403D4F"/>
<path d="M109.023 32.8597C109.023 32.8597 109.023 32.8597 109.232 32.6501C109.444 32.4446 109.682 32.2683 109.94 32.126C110.271 31.9368 110.622 31.7873 110.988 31.6805C111.841 31.4464 112.727 31.3578 113.609 31.4185C113.979 31.4376 114.348 31.4902 114.709 31.5757L115.731 31.8639C115.9 31.9183 116.041 32.0362 116.124 32.1928C116.207 32.3494 116.226 32.5322 116.177 32.7025C116.133 32.8364 116.05 32.9537 115.937 33.0382C115.824 33.1226 115.688 33.1701 115.548 33.1741H113.582C113.242 33.1484 112.901 33.1484 112.56 33.1741C112.224 33.2051 111.89 33.2665 111.565 33.3576C111.224 33.3576 110.988 33.541 110.726 33.5672C110.54 33.6456 110.347 33.707 110.15 33.7506H109.914C109.75 33.8217 109.565 33.8259 109.399 33.7622C109.232 33.6985 109.097 33.5721 109.023 33.41C108.984 33.3189 108.964 33.2208 108.964 33.1217C108.964 33.0226 108.984 32.9246 109.023 32.8335V32.8597Z" fill="#403D4F"/>
<path d="M96.2616 33.8552C96.2616 33.8552 96.2616 33.8552 96.1043 33.8552L95.7113 33.698H95.423C95.3194 33.6752 95.2122 33.6752 95.1086 33.698C94.877 33.6214 94.6407 33.5601 94.4011 33.5145C94.1573 33.4873 93.9112 33.4873 93.6674 33.5145H92.1737C92.0855 33.5146 91.998 33.4968 91.9168 33.4623C91.8356 33.4277 91.7622 33.3771 91.701 33.3135C91.6398 33.2498 91.5921 33.1745 91.5608 33.092C91.5295 33.0094 91.5151 32.9214 91.5186 32.8332C91.5237 32.7032 91.5658 32.5774 91.6401 32.4706C91.7144 32.3638 91.8178 32.2805 91.9379 32.2305L92.7502 31.9423C93.0401 31.8555 93.3391 31.8028 93.6412 31.7851C93.9974 31.7331 94.3593 31.7331 94.7155 31.7851C95.3996 31.8708 96.0497 32.1327 96.6022 32.545L97.1001 33.0429C97.2311 33.2001 97.2311 33.2525 97.2311 33.2787V33.5145C97.2541 33.6945 97.2072 33.8764 97.0999 34.0227C96.9926 34.169 96.8332 34.2685 96.6546 34.3006C96.4751 34.2032 96.3359 34.0454 96.2616 33.8552Z" fill="#403D4F"/>
<path d="M101.633 49.211C101.191 49.2084 100.755 49.1166 100.349 48.941C99.944 48.7653 99.5784 48.5096 99.2745 48.189C99.1635 48.0702 99.0783 47.9297 99.0241 47.7764C98.97 47.6231 98.9483 47.4602 98.9601 47.2981C98.9601 47.0098 99.4056 43.3937 99.5628 42.0573C99.5929 41.928 99.6667 41.8131 99.7718 41.7319C99.8768 41.6508 100.007 41.6083 100.139 41.6118C100.274 41.6314 100.395 41.7024 100.479 41.81C100.562 41.9175 100.6 42.0532 100.585 42.1883C100.585 42.3717 100.008 47.1146 99.9559 47.4291C100.17 47.6666 100.434 47.855 100.727 47.9816C101.021 48.1083 101.339 48.17 101.659 48.1628C101.794 48.1695 101.92 48.2277 102.013 48.3253C102.106 48.4228 102.157 48.5523 102.157 48.6869C102.151 48.8238 102.093 48.9534 101.996 49.0504C101.899 49.1473 101.77 49.2046 101.633 49.211Z" fill="#F18380"/>
<path d="M99.2223 54.373C98.2528 54.6088 97.8859 56.0762 98.4886 57.7795C99.0831 58.9522 100.056 59.8902 101.249 60.4418C102.443 60.9933 103.787 61.1263 105.066 60.8191C105.764 60.786 106.448 60.6136 107.078 60.3121C107.709 60.0107 108.272 59.5862 108.736 59.0638C109.2 58.5413 109.555 57.9313 109.779 57.2698C110.004 56.6082 110.094 55.9084 110.045 55.2115C110.045 54.0847 109.258 53.4296 107.791 53.4296C104.914 53.5064 102.048 53.822 99.2223 54.373Z" fill="#73102A"/>
<path d="M110.045 55.3426V55.1068C108.127 54.6635 106.112 54.956 104.399 55.9264C102.687 56.8968 101.4 58.4745 100.795 60.3476C102.143 61.0082 103.659 61.2457 105.144 61.0289C105.843 60.986 106.525 60.8038 107.152 60.493C107.779 60.1822 108.337 59.7491 108.794 59.2191C109.25 58.6892 109.596 58.0731 109.811 57.4074C110.026 56.7416 110.105 56.0395 110.045 55.3426Z" fill="#D65155"/>
<path d="M100.061 55.9453C103.38 55.9968 106.683 55.4919 109.835 54.4517C109.638 54.0947 109.337 53.8059 108.972 53.6235C108.607 53.441 108.195 53.3735 107.791 53.4297C104.914 53.5065 102.048 53.8221 99.2226 54.3731C98.9517 54.4664 98.7146 54.6385 98.5419 54.8672C98.3692 55.0959 98.2687 55.3709 98.2531 55.6571C98.8331 55.8629 99.4458 55.9606 100.061 55.9453Z" fill="white"/>
<path d="M114.63 25.4179C114.63 25.4179 117.25 38.5198 128.361 43.6034C128.361 43.6034 139.681 37.0262 138.371 24.4745C136.746 9.01417 114.787 -8.38527 92.933 8.07082C90.8105 7.73017 88.5046 3.24929 89.1859 0C88.2926 0.561301 87.5896 1.37912 87.1687 2.34649C86.7478 3.31386 86.6287 4.38575 86.8268 5.42194C87.025 6.45813 87.5313 7.41039 88.2795 8.15416C89.0276 8.89793 89.9829 9.3986 91.0202 9.59066C87.453 10.0876 84.2156 11.9435 81.9841 14.7706C79.7527 17.5978 78.6997 21.1777 79.045 24.7628C79.1568 27.0231 80.0979 29.1629 81.6885 30.7727C83.279 32.3826 85.4073 33.3496 87.6661 33.4887H91.5181C94.4981 32.1229 96.9078 29.7596 98.3311 26.8067C97.9605 29.0326 97.1879 31.1724 96.0513 33.1218C95.8417 33.5149 96.3134 34.1962 99.5365 33.5149C103.237 32.2421 106.329 29.6354 108.21 26.204C107.505 28.454 106.566 30.6234 105.406 32.6763C105.406 33.0694 107.109 33.6459 109.625 32.4929C111.026 31.8837 112.234 30.902 113.116 29.6547C113.998 28.4073 114.522 26.942 114.63 25.4179Z" fill="#BC664A"/>
<path d="M97.4403 35.7157C98.3836 35.7157 98.7505 37.4452 98.7505 39.096C98.6541 41.3322 97.9866 43.5063 96.8114 45.4112C96.3306 45.986 95.7071 46.4242 95.0033 46.6817C94.2996 46.9393 93.5405 47.0072 92.8022 46.8786C91.9032 47.0177 90.9847 46.9584 90.111 46.7049C89.2374 46.4514 88.4298 46.0098 87.7449 45.4112C86.3024 43.6046 85.4434 41.4022 85.2817 39.096C85.2817 37.4452 85.7795 35.7157 86.9587 35.7157H97.4403Z" stroke="#403D4F" stroke-width="0.75" stroke-miterlimit="10"/>
<path d="M105.354 35.7157C104.096 35.7157 103.598 37.4452 103.598 39.096C103.77 41.4281 104.689 43.6426 106.219 45.4112C106.943 46.0056 107.783 46.4429 108.685 46.6955C109.587 46.9482 110.532 47.0105 111.46 46.8786C113.815 47.1815 116.203 46.6633 118.22 45.4112C120.061 43.7875 121.229 41.5355 121.496 39.096C121.496 37.4452 120.867 35.7157 119.268 35.7157H105.354Z" stroke="#403D4F" stroke-width="0.75" stroke-miterlimit="10"/>
<path d="M98.5405 37.288C99.2935 36.7142 100.214 36.4035 101.161 36.4035C102.108 36.4035 103.028 36.7142 103.781 37.288" stroke="#403D4F" stroke-width="0.75" stroke-miterlimit="10"/>
<path d="M119.32 35.7157H122.517C123.198 35.7157 123.984 35.8729 123.984 36.7901V38.2575C123.984 38.6244 121.652 39.3581 121.364 40.1704" stroke="#403D4F" stroke-width="0.75" stroke-miterlimit="10"/>
<path d="M130.955 39.5419L123.985 36.7905" stroke="#403D4F" stroke-width="0.75" stroke-miterlimit="10"/>
<path d="M127.366 45.5424C127.576 41.9787 128.519 37.8123 132.869 38.4412C137.952 39.2273 138.45 52.9844 127.628 51.3335L127.366 45.5424Z" fill="#FBBEAA"/>
<path d="M133.235 46.4596C133.144 46.4609 133.054 46.4371 132.976 46.3909C132.897 46.3447 132.833 46.2778 132.789 46.1976C132.674 45.9707 132.503 45.7771 132.292 45.6349C132.081 45.4927 131.838 45.4068 131.584 45.3852C131.282 45.3886 130.985 45.4699 130.724 45.6214C130.462 45.7729 130.244 45.9894 130.09 46.25C130.028 46.3396 129.937 46.4061 129.833 46.4393C129.729 46.4724 129.617 46.4704 129.514 46.4334C129.403 46.4027 129.307 46.3324 129.244 46.2359C129.182 46.1394 129.156 46.0232 129.173 45.9093C129.219 44.8072 129.562 43.7379 130.166 42.8151C130.771 41.8923 131.614 41.1505 132.606 40.6685C132.673 40.6289 132.747 40.6046 132.825 40.5973C132.902 40.5901 132.98 40.6 133.053 40.6265C133.126 40.653 133.192 40.6954 133.246 40.7505C133.301 40.8056 133.342 40.8722 133.368 40.9454C133.394 41.0186 133.403 41.0965 133.395 41.1737C133.387 41.2508 133.362 41.3252 133.321 41.3915C133.281 41.4578 133.227 41.5143 133.162 41.5569C133.097 41.5996 133.024 41.6273 132.947 41.6381C132.358 41.9243 131.833 42.3275 131.405 42.8231C130.977 43.3186 130.655 43.8962 130.457 44.5205C130.823 44.3402 131.23 44.2589 131.637 44.2847C132.06 44.3248 132.468 44.4674 132.824 44.7002C133.18 44.9331 133.474 45.2491 133.68 45.6211C133.738 45.7402 133.748 45.8765 133.709 46.0029C133.67 46.1292 133.585 46.2362 133.471 46.3024L133.235 46.4596Z" fill="#F18380"/>
<path d="M156.334 220.43C155.801 213.72 148.607 187.994 140.879 173.338C140.879 173.338 124.021 175.468 113.166 175.503C101.839 175.54 84.2433 173.338 84.2433 173.338C79.2047 184.748 73.4637 209.674 71.7922 215.052C70.7832 218.216 70.6606 221.596 71.4379 224.825C72.2152 228.053 73.8626 231.007 76.201 233.365C81.9421 239.881 96.7429 247.342 100.159 247.342C114.853 245.243 129.257 241.456 143.083 236.054C150.884 232.784 156.843 227.164 156.334 220.43Z" fill="#013EA5"/>
<path d="M22.5452 80.7051C22.4453 78.5222 23.0297 76.3627 24.2166 74.528C26.0441 72.409 27.4133 69.9347 28.2378 67.2608C28.8721 64.7787 29.8854 62.4092 31.2417 60.2358C32.2106 58.9035 33.6641 57.8134 33.6641 56.796C33.6641 55.7786 31.7261 53.8165 28.9646 54.3736C27.7817 54.7421 26.6949 55.3675 25.782 56.205C24.869 57.0426 24.1525 58.0716 23.6837 59.2184C23.4191 58.5197 23.264 57.7843 23.2235 57.0383L22.6179 42.1889C22.6087 41.804 22.5225 41.4248 22.3643 41.0737C22.2061 40.7226 21.9791 40.4068 21.6969 40.1449C21.4146 39.883 21.0828 39.6802 20.7209 39.5487C20.359 39.4171 19.9745 39.3594 19.5899 39.379C18.9777 39.4051 18.389 39.6224 17.9066 40.0004C17.4243 40.3785 17.0727 40.8982 16.901 41.4864V40.8082C16.8079 40.0863 16.4451 39.4264 15.8855 38.961C15.3259 38.4955 14.611 38.259 13.8842 38.2988C13.1574 38.3387 12.4727 38.652 11.9674 39.1759C11.4621 39.6997 11.1736 40.3954 11.16 41.1231V43.1821C10.9173 42.5473 10.4547 42.0208 9.85635 41.6986C9.25801 41.3764 8.56381 41.2799 7.90027 41.4267C7.23673 41.5735 6.64802 41.9538 6.24145 42.4983C5.83488 43.0429 5.63751 43.7154 5.68531 44.3933V45.7014C5.42458 45.2432 5.03603 44.8709 4.56711 44.63C4.09819 44.3891 3.56923 44.29 3.0449 44.3448C2.32688 44.436 1.67256 44.803 1.22042 45.3682C0.768272 45.9334 0.553806 46.6523 0.622505 47.3728L1.80946 59.8967C2.58703 66.9574 4.04734 73.9262 6.16982 80.7051C6.19548 81.8369 6.4577 82.9509 6.93961 83.9753C7.42151 84.9998 8.11243 85.9121 8.96798 86.6536C9.82353 87.3951 10.8248 87.9493 11.9073 88.2807C12.9899 88.6121 14.1298 88.7133 15.2538 88.5779C16.271 88.6118 17.2836 88.4266 18.2229 88.0348C19.1622 87.643 20.0063 87.0537 20.6979 86.307C21.3894 85.5603 21.9123 84.6736 22.2311 83.7071C22.5498 82.7405 22.6569 81.7167 22.5452 80.7051Z" fill="#FBBEAA"/>
<path d="M104.18 476.041C104.18 473.709 103.253 471.472 101.604 469.823C99.9554 468.174 97.7187 467.247 95.3866 467.247C93.0545 467.247 90.8179 468.174 89.1688 469.823C87.5197 471.472 86.5933 473.709 86.5933 476.041V495.153H104.18V476.041Z" fill="#FBBEAA"/>
<path d="M87.2222 479.602C85.0663 479.602 84.6787 480.547 84.0489 481.782C83.0274 485.074 81.2808 488.096 78.9377 490.624C75.4394 493.603 71.6865 496.27 67.7219 498.593V508.719H106.868C106.868 508.719 106.601 500.725 106.408 495.081C106.214 489.437 105.657 482.557 105.705 481.83C105.754 481.104 105.705 479.602 104.373 479.602H87.2222Z" fill="#302D3B"/>
<path d="M102 495.638C102.005 496.881 101.64 498.097 100.953 499.132C100.265 500.168 99.2855 500.976 98.1381 501.454C96.9907 501.932 95.7272 502.058 94.5079 501.817C93.2886 501.575 92.1685 500.977 91.2896 500.098C90.4107 499.219 89.8126 498.099 89.5713 496.88C89.33 495.661 89.4563 494.397 89.9342 493.25C90.412 492.102 91.22 491.123 92.2554 490.435C93.2909 489.748 94.5072 489.383 95.7501 489.388C97.4057 489.394 98.9917 490.055 100.162 491.225C101.333 492.396 101.994 493.982 102 495.638Z" fill="#0447BA"/>
<path d="M95.7499 491.956L97.1791 494.063L99.6257 494.766L98.0754 496.776L98.1481 499.32L95.7499 498.448L93.3517 499.32L93.4486 496.776L91.874 494.766L94.3207 494.063L95.7499 491.956Z" fill="white"/>
<path d="M67.9891 498.424C67.9891 498.424 62.4418 501.355 60.3585 502.784C59.3941 503.438 58.6106 504.325 58.0812 505.362C57.5518 506.4 57.2935 507.555 57.3306 508.719H72.5432C72.5432 508.719 72.2283 501.282 67.9891 498.424Z" fill="white"/>
<path d="M106.868 508.719V512.91C106.868 513.612 106.238 514 105.172 514H59.0013C57.9597 514 57.3298 513.612 57.3298 512.91V508.719H106.868Z" fill="white"/>
<path d="M72.5432 495.589C72.4091 495.384 72.1999 495.238 71.9602 495.184C71.7205 495.13 71.4691 495.171 71.2593 495.299C71.1549 495.363 71.0643 495.448 70.993 495.547C70.9216 495.647 70.871 495.76 70.8439 495.88C70.8168 495.999 70.8139 496.123 70.8353 496.244C70.8567 496.364 70.9021 496.48 70.9687 496.583L72.5916 499.199C72.6698 499.334 72.7831 499.446 72.9195 499.523C73.0559 499.6 73.2104 499.638 73.3668 499.635C73.5462 499.632 73.7217 499.582 73.8755 499.49C73.9799 499.425 74.0705 499.341 74.1418 499.241C74.2132 499.141 74.264 499.028 74.291 498.909C74.3181 498.789 74.321 498.665 74.2995 498.545C74.2781 498.424 74.2328 498.309 74.1662 498.206L72.5432 495.589Z" fill="white"/>
<path d="M75.4014 493.579C75.3219 493.487 75.225 493.411 75.1162 493.356C75.0075 493.301 74.8889 493.268 74.7675 493.259C74.646 493.25 74.524 493.265 74.4083 493.304C74.2927 493.342 74.1857 493.402 74.0934 493.482C74.0012 493.561 73.9255 493.658 73.8707 493.767C73.8159 493.876 73.783 493.994 73.774 494.116C73.765 494.237 73.78 494.359 73.8182 494.475C73.8564 494.591 73.917 494.698 73.9965 494.79L75.886 497.019C75.9732 497.121 76.0806 497.204 76.2015 497.262C76.3225 497.32 76.4543 497.353 76.5885 497.358C76.764 497.354 76.935 497.302 77.0825 497.207C77.23 497.112 77.3482 496.978 77.4236 496.819C77.4991 496.661 77.5289 496.484 77.5097 496.31C77.4906 496.136 77.4232 495.97 77.3152 495.832L75.4014 493.579Z" fill="white"/>
<path d="M78.09 491.326C77.8973 491.202 77.666 491.152 77.4392 491.186C77.2124 491.22 77.0056 491.335 76.8574 491.51C76.7092 491.684 76.6296 491.907 76.6336 492.137C76.6375 492.366 76.7246 492.586 76.8788 492.756L79.0347 494.621C79.2037 494.764 79.4187 494.841 79.6403 494.839C79.7737 494.844 79.9064 494.818 80.0282 494.763C80.15 494.708 80.2576 494.627 80.3428 494.524C80.4323 494.44 80.5036 494.339 80.5524 494.226C80.6011 494.114 80.6262 493.992 80.6262 493.87C80.6262 493.747 80.6011 493.626 80.5524 493.513C80.5036 493.401 80.4323 493.3 80.3428 493.216L78.09 491.326Z" fill="white"/>
<path d="M82.8143 490.212L80.3919 488.71C80.1792 488.584 79.9258 488.547 79.6858 488.605C79.4458 488.664 79.2383 488.815 79.108 489.025C79.0425 489.129 78.9986 489.246 78.979 489.368C78.9593 489.489 78.9644 489.614 78.9938 489.733C79.0231 489.853 79.0762 489.966 79.15 490.065C79.2237 490.163 79.3165 490.246 79.423 490.309L81.8454 491.811C81.989 491.906 82.1576 491.956 82.3299 491.956C82.4877 491.952 82.6419 491.908 82.7776 491.827C82.9134 491.747 83.0261 491.632 83.105 491.496C83.2331 491.286 83.2744 491.034 83.2201 490.795C83.1658 490.555 83.0202 490.346 82.8143 490.212Z" fill="white"/>
<path d="M84.8491 487.087L82.136 485.949C81.9048 485.852 81.6447 485.852 81.413 485.947C81.1813 486.043 80.997 486.226 80.9007 486.458C80.8534 486.57 80.829 486.691 80.829 486.814C80.8291 486.936 80.8535 487.057 80.9009 487.17C80.9483 487.283 81.0176 487.385 81.1049 487.47C81.1922 487.556 81.2957 487.623 81.4094 487.669L84.1224 488.807H84.4858C84.6948 488.796 84.8941 488.716 85.0526 488.579C85.211 488.442 85.3195 488.257 85.3611 488.052C85.4026 487.846 85.3749 487.633 85.2823 487.446C85.1896 487.258 85.0372 487.106 84.8491 487.015V487.087Z" fill="white"/>
<path d="M86.5445 483.599L83.5408 482.848C83.3031 482.79 83.0521 482.829 82.8432 482.956C82.6342 483.083 82.4843 483.288 82.4264 483.526C82.3686 483.764 82.4076 484.015 82.5348 484.224C82.662 484.433 82.867 484.582 83.1047 484.64L86.0843 485.415H86.3023C86.5109 485.413 86.7132 485.343 86.8791 485.217C87.0449 485.09 87.1655 484.913 87.2228 484.713C87.2747 484.476 87.2332 484.227 87.1069 484.02C86.9806 483.812 86.7792 483.662 86.5445 483.599Z" fill="white"/>
<path d="M117.043 353.807C116.777 342.082 108.88 336.414 97.1793 336.705C85.4792 336.995 77.0492 343.124 77.3156 354.824L86.5934 476.986H104.18L117.043 353.807Z" fill="#FBBEAA"/>
<path d="M118.568 353.733C118.503 350.95 117.89 348.207 116.764 345.66C115.639 343.113 114.023 340.813 112.008 338.891C109.994 336.969 107.621 335.462 105.024 334.458C102.428 333.453 99.6588 332.969 96.8753 333.034C94.0918 333.099 91.3484 333.712 88.8017 334.838C86.255 335.963 83.9549 337.579 82.0328 339.593C80.1107 341.608 78.6042 343.981 77.5993 346.578C76.5943 349.174 76.1106 351.943 76.1758 354.727L73.2647 481.091H121.156L118.568 353.733Z" fill="#013EA5"/>
<path d="M178.305 476.041C178.305 473.709 177.379 471.472 175.73 469.823C174.081 468.174 171.844 467.247 169.512 467.247C167.18 467.247 164.943 468.174 163.294 469.823C161.645 471.472 160.719 473.709 160.719 476.041V495.153H178.305V476.041Z" fill="#FBBEAA"/>
<path d="M161.372 479.602C159.192 479.602 158.805 480.547 158.199 481.782C157.166 485.074 155.412 488.095 153.064 490.624C149.57 493.609 145.816 496.276 141.848 498.593V508.719H180.994C180.994 508.719 180.727 500.725 180.534 495.081C180.34 489.437 179.807 482.557 179.831 481.83C179.855 481.104 179.831 479.602 178.523 479.602H161.372Z" fill="#302D3B"/>
<path d="M176.149 495.638C176.154 496.88 175.79 498.095 175.103 499.13C174.417 500.165 173.439 500.973 172.293 501.451C171.147 501.93 169.884 502.058 168.666 501.818C167.447 501.579 166.327 500.983 165.447 500.107C164.567 499.23 163.967 498.112 163.723 496.895C163.479 495.677 163.602 494.414 164.076 493.267C164.55 492.119 165.354 491.137 166.387 490.447C167.419 489.756 168.633 489.388 169.875 489.388C171.535 489.388 173.127 490.046 174.303 491.217C175.479 492.388 176.142 493.978 176.149 495.638Z" fill="#0447BA"/>
<path d="M169.899 491.956L171.328 494.063L173.775 494.766L172.2 496.776L172.273 499.32L169.899 498.448L167.501 499.32L167.574 496.776L165.999 494.766L168.47 494.063L169.899 491.956Z" fill="white"/>
<path d="M142.139 498.424C142.139 498.424 136.567 501.355 134.508 502.784C133.539 503.433 132.752 504.319 132.222 505.358C131.692 506.396 131.436 507.554 131.48 508.719H146.766C146.766 508.719 146.354 501.282 142.139 498.424Z" fill="white"/>
<path d="M180.994 508.719V512.91C180.994 513.612 180.388 514 179.322 514H133.103C132.037 514 131.432 513.612 131.432 512.91V508.719H180.994Z" fill="white"/>
<path d="M146.668 495.59C146.537 495.381 146.327 495.233 146.087 495.178C145.846 495.124 145.593 495.167 145.385 495.299C145.176 495.431 145.028 495.64 144.973 495.881C144.919 496.121 144.962 496.374 145.094 496.583L146.717 499.199C146.801 499.335 146.919 499.446 147.059 499.523C147.199 499.599 147.357 499.638 147.516 499.635C147.689 499.635 147.857 499.585 148.001 499.49C148.105 499.425 148.196 499.341 148.267 499.241C148.338 499.141 148.389 499.028 148.416 498.909C148.443 498.789 148.446 498.665 148.425 498.545C148.403 498.424 148.358 498.309 148.291 498.206L146.668 495.59Z" fill="white"/>
<path d="M149.552 493.579C149.392 493.393 149.166 493.276 148.922 493.254C148.678 493.231 148.435 493.304 148.244 493.458C148.056 493.622 147.939 493.852 147.916 494.1C147.894 494.348 147.967 494.595 148.122 494.79L150.036 497.019C150.12 497.124 150.227 497.21 150.349 497.269C150.47 497.327 150.604 497.358 150.739 497.358C150.916 497.36 151.091 497.31 151.241 497.215C151.391 497.12 151.51 496.983 151.584 496.822C151.658 496.661 151.684 496.482 151.659 496.306C151.634 496.13 151.558 495.965 151.441 495.832L149.552 493.579Z" fill="white"/>
<path d="M152.216 491.326C152.023 491.202 151.792 491.152 151.565 491.186C151.338 491.22 151.131 491.335 150.983 491.51C150.835 491.684 150.755 491.907 150.759 492.137C150.763 492.366 150.85 492.586 151.005 492.756L153.185 494.621C153.354 494.764 153.569 494.841 153.79 494.839C153.923 494.842 154.056 494.815 154.177 494.761C154.299 494.706 154.406 494.625 154.493 494.524C154.579 494.438 154.648 494.336 154.695 494.224C154.742 494.112 154.766 493.991 154.766 493.87C154.766 493.748 154.742 493.628 154.695 493.515C154.648 493.403 154.579 493.301 154.493 493.216L152.216 491.326Z" fill="white"/>
<path d="M156.939 490.212L154.517 488.71C154.308 488.622 154.074 488.612 153.859 488.682C153.643 488.751 153.459 488.897 153.342 489.091C153.224 489.285 153.18 489.514 153.218 489.738C153.256 489.962 153.373 490.164 153.548 490.309L155.97 491.811C156.114 491.906 156.283 491.956 156.455 491.956C156.616 491.954 156.775 491.911 156.915 491.83C157.055 491.749 157.171 491.634 157.254 491.496C157.38 491.283 157.418 491.03 157.359 490.79C157.3 490.55 157.149 490.342 156.939 490.212Z" fill="white"/>
<path d="M22.8355 82.3286L32.5251 143.155C34.1239 150.786 31.6531 157.689 22.8355 158.901C21.2079 159.113 19.5542 158.992 17.9748 158.545C16.3953 158.098 14.9232 157.335 13.6477 156.302C12.3722 155.269 11.32 153.987 10.555 152.535C9.78996 151.083 9.3281 149.491 9.19741 147.854L6.24208 82.4497C5.46691 76.2725 8.15573 72.1545 12.8552 71.6458C18.6205 71.016 21.6728 74.4316 22.8355 82.3286Z" fill="#FBBEAA"/>
<path d="M158.974 487.087L156.261 485.949C156.148 485.902 156.027 485.877 155.904 485.877C155.782 485.877 155.661 485.902 155.548 485.949C155.436 485.996 155.333 486.066 155.248 486.153C155.162 486.24 155.095 486.344 155.049 486.457C154.959 486.683 154.959 486.935 155.049 487.16C155.139 487.386 155.313 487.568 155.534 487.669L158.271 488.807C158.383 488.832 158.499 488.832 158.61 488.807C158.797 488.807 158.979 488.752 159.134 488.649C159.29 488.545 159.411 488.398 159.482 488.226C159.556 488.007 159.544 487.768 159.45 487.557C159.356 487.346 159.186 487.179 158.974 487.087Z" fill="white"/>
<path d="M160.67 483.599L157.691 482.848C157.45 482.789 157.196 482.827 156.983 482.954C156.77 483.081 156.615 483.286 156.552 483.526C156.523 483.644 156.518 483.766 156.537 483.886C156.555 484.006 156.597 484.121 156.66 484.224C156.723 484.328 156.806 484.418 156.904 484.489C157.002 484.561 157.113 484.612 157.231 484.64L160.21 485.416H160.452C160.671 485.399 160.876 485.307 161.034 485.155C161.192 485.004 161.293 484.802 161.318 484.585C161.344 484.367 161.294 484.148 161.175 483.964C161.057 483.779 160.879 483.642 160.67 483.575V483.599Z" fill="white"/>
<path d="M168.688 353.443C167.498 347.944 164.173 343.143 159.444 340.095C154.716 337.047 148.97 336.002 143.471 337.189C132.013 339.611 125.836 350.9 128.306 362.357L160.718 478.996H178.523L168.688 353.443Z" fill="#FBBEAA"/>
<path d="M168.688 351.142C167.373 345.775 164.017 341.133 159.333 338.202C154.649 335.271 149.007 334.283 143.606 335.447C138.205 336.611 133.471 339.836 130.41 344.436C127.349 349.036 126.204 354.649 127.216 360.08L138.606 479.958C138.606 479.958 169.468 481.799 187.854 479.958L168.688 351.142Z" fill="#013EA5"/>
<path d="M14.9624 136.421L84.5337 83.5638C92.6488 78.3799 98.1718 81.1414 102.484 86.6887C104.453 89.3736 105.366 92.689 105.049 96.0035C104.731 99.318 103.206 102.4 100.764 104.663L31.362 155.8C28.9164 157.865 25.7679 158.907 22.5729 158.709C19.3778 158.51 16.3826 157.086 14.2115 154.734L13.8966 154.395C12.7442 153.165 11.8545 151.714 11.2816 150.13C10.7087 148.545 10.4646 146.86 10.5644 145.178C10.6641 143.496 11.1055 141.852 11.8617 140.347C12.6178 138.841 13.6729 137.505 14.9624 136.421Z" fill="#FBBEAA"/>
<path d="M100.764 104.639C101.406 104.086 101.991 103.469 102.508 102.798C102.966 101.074 103.025 99.2681 102.68 97.5179C102.336 95.7677 101.598 94.1189 100.522 92.6964C96.864 87.0522 89.185 82.6192 85.7694 83.4671L82.3781 85.1869L43.983 114.256C47.3812 122.242 51.9714 129.666 57.5969 136.275L100.764 104.639Z" fill="#F18380"/>
<path d="M90.2753 79.7847L30.0699 120.39C30.3232 122.467 25.4442 79.7847 25.4442 79.7847L3.16005 81.8647C3.16005 81.8647 4.46191 125.321 7.74128 148.27C9.04274 157.378 16.6237 160.832 25.6128 158.871C30.0509 157.903 34.2291 156.082 37.9472 153.472C53.924 142.258 98.7468 110.671 102.411 106.698C108.734 99.8422 108.734 94.7067 105.1 89.0625C101.467 83.4183 93.6909 78.9368 90.2753 79.7847Z" fill="#013EA5"/>
<path d="M118.569 353.734L130.996 223.627C130.996 209.262 116.195 193.613 94.3692 196.981C74.6509 200.057 68.6433 219.872 70.2663 238.646C71.8893 257.419 76.2739 354.654 76.2739 354.654C76.3391 357.438 76.9519 360.181 78.0774 362.728C79.2028 365.275 80.8188 367.575 82.8331 369.497C84.8475 371.419 87.2207 372.926 89.8173 373.93C92.4139 374.935 95.1829 375.419 97.9664 375.354C100.75 375.289 103.493 374.676 106.04 373.55C108.587 372.425 110.887 370.809 112.809 368.795C114.731 366.78 116.237 364.407 117.242 361.811C118.247 359.214 118.731 356.445 118.666 353.661L118.569 353.734Z" fill="#013EA5"/>
<path d="M168.688 351.142L156.333 221.059C153.717 206.937 136.155 194.413 115.346 201.825C96.5727 208.535 94.3926 229.126 99.5281 247.269C104.664 265.413 127.216 360.081 127.216 360.081C128.531 365.447 131.887 370.089 136.571 373.02C141.254 375.951 146.897 376.939 152.298 375.775C157.699 374.611 162.433 371.386 165.494 366.786C168.554 362.186 169.7 356.574 168.688 351.142Z" fill="#013EA5"/>
<path d="M99.5285 247.27C104.64 265.414 127.217 360.081 127.217 360.081" stroke="#E9E9E9" stroke-width="0.75" stroke-miterlimit="10"/>
<path d="M103.162 77.7255C103.162 77.7255 92.4551 79.5908 90.3719 80.1479C89.1424 80.4364 88.0064 81.0323 87.07 81.8796C86.1337 82.727 85.4278 83.7981 85.0184 84.9927C83.6861 88.166 76.8307 108.95 76.2009 111.203C75.775 113.685 76.175 116.238 77.3394 118.47C78.3326 121.183 83.4681 133.538 83.4681 133.538L84.2432 173.338L113.165 177.925L140.879 173.338C140.879 173.338 150.569 99.3091 151.053 94.7308C151.537 90.1525 149.26 81.3107 143.786 80.1964C138.311 79.0821 123.292 77.774 123.292 77.774L103.162 77.7255Z" fill="#FBBEAA"/>
<path d="M82.8852 157.335V171.327C101.828 173.071 132.013 171.836 143.35 171.327C143.882 167.33 144.44 160.548 145.021 156.042C129.59 156.429 104.105 157.868 82.8852 157.335Z" fill="white"/>
<path d="M182.786 169.777L151.755 88.1177C147.613 79.3971 141.485 78.8157 134.799 81.2381C131.706 82.4716 129.177 84.8011 127.693 87.7816C126.21 90.7621 125.876 94.1847 126.756 97.3955L158.708 177.601C159.676 180.653 161.789 183.21 164.603 184.737C167.417 186.263 170.713 186.641 173.799 185.789L174.26 185.668C175.887 185.223 177.408 184.452 178.728 183.401C180.048 182.35 181.14 181.042 181.938 179.555C182.736 178.068 183.223 176.434 183.369 174.753C183.514 173.072 183.316 171.379 182.786 169.777Z" fill="#FBBEAA"/>
<path d="M169.924 135.912L151.756 88.1176C151.269 87.0694 150.693 86.0646 150.036 85.1138C147.811 83.7205 145.263 82.9259 142.64 82.807C140.017 82.6882 137.408 83.2492 135.066 84.4355C132.346 85.7591 130.159 87.9719 128.868 90.7076C127.578 93.4432 127.26 96.5377 127.968 99.4786C127.968 99.7693 128.137 100.326 128.283 101.077L147.032 148.193C155.222 145.24 162.934 141.102 169.924 135.912Z" fill="#F18380"/>
<path d="M149.329 82.62C154.616 89.4187 185.21 172.512 185.21 172.512C156.883 163.447 159.541 138.949 144.134 141.541C144.134 141.541 126.369 99.8423 125.69 96.1118C124.982 93.1709 125.3 90.0765 126.591 87.3408C127.882 84.6052 130.068 82.3923 132.788 81.0688C140.37 77.1929 144.041 75.8213 149.329 82.62Z" fill="#0045BA"/>
<path d="M97.9281 77.71C92.3293 78.7747 89.7989 78.9019 88.3772 79.8394C86.1279 81.3485 74.5448 101.797 74.5448 111.024C74.5448 119.187 76.5209 184.487 78.1676 185.552C79.8143 186.617 109.293 187.998 109.293 187.998V95.5297C106.301 86.2692 100.05 83.7008 97.9281 77.71Z" fill="#0045BA"/>
<path d="M88.3772 79.8394C89.7989 78.9019 95.3848 78.0193 100.984 76.9546C103.106 82.9454 106.301 86.2692 109.293 95.5297V111.024H74.5448C74.5448 101.797 86.1279 81.3485 88.3772 79.8394Z" fill="#9A99A1"/>
<path d="M109.67 74.6885C116.62 74.6885 122.89 71.6669 125.156 70.1561V76.9546C124.904 77.3323 122.965 78.541 117.224 80.3539C111.483 82.1669 103.25 81.487 99.8503 80.3539V73.5554C99.8503 73.9331 100.983 74.6885 109.67 74.6885Z" fill="#034CC9"/>
<path d="M74.5558 112.458H109.293V104.904L75.5435 105.234C74.885 107.831 74.4709 109.685 74.5558 112.458Z" fill="#D3D4D2"/>
<path d="M153.778 181.306C153.778 173.744 154.978 155.766 148.243 138.365C142.382 139.785 129.644 96.6665 142.382 82.2944C146.615 77.5184 150.336 84.4293 149.22 82.6493C148.104 80.8694 146.867 79.1224 145.044 78.2845C141.792 76.7069 134.567 76.9713 128.055 76.9713C120.24 86.553 112.146 88.6861 109.293 95.5455V187.964C109.293 187.964 153.778 188.868 153.778 181.306Z" fill="#034CC9"/>
<path d="M153.778 181.306C153.778 173.744 154.978 155.766 148.243 138.365C142.382 139.785 129.644 96.6665 142.382 82.2944C146.615 77.5184 150.336 84.4293 149.22 82.6493C148.104 80.8694 146.867 79.1224 145.044 78.2845C141.792 76.7069 134.567 76.9713 128.055 76.9713C120.24 86.553 112.146 88.6861 109.293 95.5455V187.964C109.293 187.964 153.778 188.868 153.778 181.306Z" fill="#034CC9"/>
<path d="M149.329 82.6201C150.445 84.4001 146.615 77.5184 142.382 82.2944C137.031 88.3317 136.176 99.4417 137.418 110.192H109.293L109.293 81.487C116.847 80.7316 120.624 79.5985 125.156 76.9546C131.669 76.9546 141.923 76.5101 145.174 78.0877C146.997 78.9256 148.213 80.8402 149.329 82.6201Z" fill="#A2A0AB"/>
<path d="M109.293 187.998C107.363 187.35 105.674 186.102 104.457 184.425C103.24 182.748 102.554 180.724 102.494 178.629V75.0661H109.293V187.998Z" fill="#034CC9"/>
<path d="M136.995 104.904H102.494V112.458H137.703C137.243 109.059 136.995 107.548 136.995 104.904Z" fill="#CFD1CE"/>
<g style="mix-blend-mode:multiply" opacity="0.4">
<path d="M110.048 81.3323L109.293 81.487V187.998H110.048V81.3323Z" fill="#013FA9"/>
</g>
<path d="M120.579 131.43L159.144 179.466C163.722 185.764 170.505 188.574 177.264 182.906C178.514 181.844 179.535 180.539 180.265 179.07C180.996 177.601 181.42 176 181.513 174.362C181.606 172.724 181.365 171.085 180.806 169.543C180.246 168.001 179.379 166.589 178.257 165.392L131.795 119.366C127.75 114.643 122.881 113.892 119.344 116.944C115.056 120.747 115.565 125.205 120.579 131.43Z" fill="#FBBEAA"/>
<path d="M134.121 121.886C129.833 117.55 121.815 108.199 119.102 105.922C116.419 103.901 113.488 102.232 110.381 100.956C108.024 100.167 105.587 99.6385 103.114 99.3816C101.394 99.1636 100.692 99.6724 100.692 100.714C100.735 101.335 100.933 101.934 101.267 102.459C101.601 102.984 102.061 103.416 102.605 103.718H99.4321C98.342 103.718 97.6395 104.59 98.1482 105.995C98.6102 106.923 99.2707 107.738 100.083 108.383C100.895 109.028 101.839 109.486 102.848 109.725C102.848 109.725 98.56 110.137 97.4699 110.355C96.3798 110.573 96.0407 110.985 96.0407 112.027C96.0501 112.746 96.2501 113.45 96.6203 114.067C96.9905 114.684 97.5177 115.192 98.1482 115.539C99.6914 116.165 101.329 116.526 102.993 116.605C102.993 116.605 97.6879 117.937 96.6221 118.325C95.5562 118.712 95.4351 119.415 95.9922 120.335C96.3097 120.984 96.7682 121.553 97.334 122.002C97.8998 122.45 98.5587 122.766 99.2625 122.927C101.273 123.46 102.63 122.588 103.356 122.709C104.918 123.212 106.447 123.811 107.935 124.502C110.169 126.726 112.901 128.387 115.904 129.347C118.14 130.285 120.191 131.614 121.96 133.271C122.785 134.045 123.756 134.645 124.816 135.037C125.877 135.428 127.005 135.603 128.134 135.552C129.263 135.5 130.371 135.222 131.391 134.734C132.411 134.247 133.323 133.56 134.072 132.714C137.948 128.596 137.294 125.156 134.121 121.886Z" fill="#FBBEAA"/>
<path d="M119.868 136.631L158.864 180.482C163.538 186.71 174.458 190.133 181.13 184.363C182.363 183.282 183.365 181.961 184.073 180.482C184.781 179.002 185.181 177.394 185.25 175.755C185.318 174.116 185.052 172.481 184.469 170.947C183.886 169.414 182.998 168.015 181.858 166.836L134.599 117.368L119.868 136.631Z" fill="#0045BA"/>
<path d="M103.138 103.742C103.131 103.782 103.133 103.823 103.143 103.862C103.153 103.902 103.171 103.939 103.196 103.971C103.221 104.003 103.252 104.029 103.288 104.048C103.324 104.067 103.364 104.078 103.404 104.081L105.391 104.275H106.36C106.699 104.275 107.014 104.396 107.353 104.42C107.711 104.528 108.059 104.665 108.394 104.832L109.509 105.292C111.011 105.898 112.513 106.455 113.627 106.867C114.741 107.279 115.516 107.521 115.516 107.521C115.578 107.547 115.647 107.549 115.709 107.526C115.772 107.504 115.824 107.459 115.855 107.4C115.901 107.341 115.925 107.268 115.925 107.194C115.925 107.119 115.901 107.047 115.855 106.988L114.039 106.043L112.149 105.147C111.471 104.832 110.72 104.517 109.969 104.226L108.83 103.79C108.464 103.625 108.083 103.495 107.692 103.403L106.529 103.282H105.536H104.058H103.501C103.44 103.234 103.362 103.212 103.285 103.221C103.208 103.23 103.138 103.269 103.089 103.33C103.041 103.391 103.019 103.469 103.028 103.546C103.037 103.623 103.077 103.694 103.138 103.742ZM103.598 109.58H104.034C104.397 109.547 104.762 109.547 105.124 109.58L105.875 109.701C106.152 109.736 106.427 109.784 106.699 109.846L108.346 110.379C109.46 110.743 110.55 111.203 111.374 111.542C111.374 111.542 111.64 111.542 111.616 111.663H111.907L112.343 111.784H112.609H112.755C112.828 111.802 112.891 111.847 112.932 111.91C112.973 111.973 112.987 112.05 112.973 112.123C112.962 112.181 112.933 112.234 112.889 112.274C112.845 112.313 112.789 112.337 112.73 112.341H111.495H111.108C110.26 112.123 109.121 111.784 108.007 111.397L106.384 110.791L105.633 110.597L104.979 110.404C104.644 110.305 104.305 110.224 103.961 110.161L103.55 110.04C103.513 110.029 103.479 110.011 103.449 109.987C103.42 109.962 103.395 109.932 103.377 109.899C103.359 109.865 103.348 109.828 103.344 109.79C103.341 109.752 103.345 109.713 103.356 109.677C103.385 109.641 103.422 109.614 103.464 109.597C103.507 109.58 103.553 109.574 103.598 109.58ZM103.598 116.46H104.494C104.737 116.46 105.051 116.459 105.366 116.629L106.36 116.944C106.985 117.164 107.592 117.431 108.176 117.743C108.445 117.87 108.704 118.015 108.952 118.179C109.001 118.237 109.028 118.31 109.028 118.385C109.028 118.461 109.001 118.534 108.952 118.591C108.882 118.665 108.786 118.708 108.685 118.712L107.789 118.567C107.28 118.446 106.626 118.252 105.972 118.034L105.027 117.646L104.204 117.332C103.929 117.21 103.662 117.072 103.404 116.92C103.336 116.879 103.285 116.814 103.263 116.738C103.24 116.661 103.248 116.579 103.283 116.508C103.355 116.462 103.441 116.445 103.525 116.46H103.598Z" fill="#F18380"/>
<path d="M22.0604 61.3262C22.9809 61.3262 23.0535 60.7448 23.4653 59.679C21.4063 59.679 15.423 60.0665 12.8068 65.1051C15.4472 61.4715 20.51 61.3262 22.0604 61.3262ZM17.3609 42.165C17.3609 42.165 17.5062 43.0129 17.6516 44.2483C17.6516 44.8781 17.797 45.629 17.8454 46.4042C17.8939 47.1794 17.9665 48.0272 18.0392 48.8266C18.0392 50.5223 18.1603 52.1937 18.1603 53.4534C18.1603 54.713 18.1603 55.5609 18.1603 55.5609C18.1604 55.6012 18.1522 55.6411 18.1361 55.678C18.12 55.715 18.0964 55.7481 18.0668 55.7755C18.0371 55.8028 18.0022 55.8237 17.9641 55.8368C17.926 55.8499 17.8856 55.8549 17.8454 55.8515C17.7773 55.8481 17.712 55.8226 17.6596 55.7789C17.6071 55.7352 17.5703 55.6758 17.5547 55.6093C17.5547 55.6093 17.4094 54.7614 17.2882 53.5018C17.1671 52.2422 16.9733 50.5707 16.9007 48.8993C16.9007 48.0514 16.9007 47.2036 16.9007 46.4769C16.9007 45.7501 16.9007 44.9508 16.9007 44.321C16.9007 43.0371 16.9007 42.2134 16.9007 42.2134C16.9005 42.1731 16.9087 42.1333 16.9248 42.0963C16.9409 42.0594 16.9646 42.0261 16.9942 41.9988C17.0238 41.9715 17.0587 41.9506 17.0968 41.9375C17.135 41.9244 17.1754 41.9194 17.2156 41.9227C17.262 41.9494 17.3001 41.9885 17.3258 42.0355C17.3514 42.0826 17.3636 42.1357 17.3609 42.1892V42.165ZM11.7409 43.8607C11.7409 43.8607 11.8863 44.5874 12.0559 45.6532C12.0559 46.2104 12.2254 46.8402 12.2981 47.5185C12.3708 48.1967 12.4434 48.9235 12.5161 49.6502C12.5161 51.1036 12.6856 52.5571 12.7099 53.6471C12.7341 54.7372 12.7099 55.4882 12.7099 55.4882C12.7068 55.5264 12.6963 55.5636 12.6788 55.5977C12.6612 55.6319 12.6372 55.6622 12.6079 55.687C12.5787 55.7117 12.5447 55.7305 12.5082 55.7421C12.4717 55.7537 12.4332 55.758 12.395 55.7547C12.3298 55.7501 12.2681 55.7237 12.2197 55.6798C12.1714 55.6358 12.1393 55.5769 12.1285 55.5124C12.1285 55.5124 11.9832 54.7857 11.8136 53.7198C11.644 52.6539 11.4987 51.1763 11.3776 49.7471C11.3776 49.0204 11.3776 48.2937 11.2322 47.6154C11.0869 46.9371 11.2322 46.2831 11.2322 45.7259C11.2322 44.6358 11.2322 43.9091 11.2322 43.9091C11.2321 43.8688 11.2403 43.829 11.2564 43.792C11.2725 43.7551 11.2961 43.7218 11.3258 43.6945C11.3554 43.6672 11.3903 43.6463 11.4284 43.6332C11.4666 43.6201 11.507 43.6151 11.5472 43.6184C11.6009 43.6406 11.6474 43.6773 11.6816 43.7243C11.7158 43.7713 11.7364 43.8269 11.7409 43.8849V43.8607ZM6.31478 46.1619C6.31478 46.1619 6.46008 46.7675 6.65388 47.6881C6.65388 48.1241 6.84771 48.657 6.92038 49.2384C6.99305 49.8198 7.08991 50.4254 7.18681 51.031C7.35637 52.2664 7.42911 53.4534 7.47756 54.4223C7.526 55.3913 7.47756 55.9727 7.47756 55.9727C7.4777 56.013 7.46941 56.0528 7.45331 56.0898C7.43721 56.1267 7.41358 56.16 7.38397 56.1873C7.35435 56.2146 7.3194 56.2355 7.28128 56.2486C7.24317 56.2617 7.20279 56.2667 7.16263 56.2634C7.10079 56.2602 7.04157 56.2372 6.99364 56.198C6.94571 56.1588 6.91153 56.1053 6.89613 56.0454C6.89613 56.0454 6.7266 55.4398 6.55703 54.5435C6.38746 53.6472 6.1452 52.3875 5.99985 51.1763C5.99985 50.5465 5.87872 49.9409 5.83027 49.3595C5.78182 48.7781 5.83027 48.2452 5.83027 47.785C5.83027 46.8645 5.83027 46.2346 5.83027 46.2346C5.83013 46.1943 5.83842 46.1544 5.85452 46.1175C5.87062 46.0806 5.89417 46.0473 5.92378 46.02C5.9534 45.9927 5.98843 45.9718 6.02654 45.9587C6.06465 45.9456 6.10503 45.9406 6.14519 45.9439C6.18991 45.9689 6.22841 46.0036 6.25778 46.0456C6.28715 46.0875 6.30664 46.1356 6.31478 46.1862V46.1619Z" fill="#F18380"/>
<path d="M181.055 434.256L178.789 419.526H132.71L134.221 434.634L181.055 434.256Z" fill="#CFD1CE"/>
<path d="M120.246 434.256L119.868 419.526H74.5447L74.167 434.634L120.246 434.256Z" fill="#CFD1CE"/>
<path d="M165.947 147.962L158.016 141.541L142.152 161.559L148.573 169.113L165.947 147.962Z" fill="#CFD1CE"/>
<path d="M29.5988 115.48L28.4657 106.415L4.29302 108.304L4.67072 117.368L29.5988 115.48Z" fill="#CFD1CE"/>
<path d="M120.029 96.6086L120.758 96.6161L120.748 97.5261L121.526 97.5341L121.535 96.6241L122.264 96.6316L122.239 99.118L121.51 99.1105L121.52 98.1259L120.742 98.1179L120.732 99.1025L120.003 99.095L120.029 96.6086L120.029 96.6086ZM124.865 96.6583L124.84 99.1448L124.136 99.1375L124.155 97.2404L123.694 97.2357L123.686 97.9493C123.683 98.27 123.654 98.6627 123.458 98.882C123.262 99.1262 122.895 99.1971 122.484 99.1182L122.49 98.5017C122.877 98.5803 122.977 98.4322 122.982 97.9399L122.995 96.6345L124.865 96.6537L124.865 96.6583ZM125.474 96.6645L126.203 96.672L126.6 98.1532L127.027 96.6805L127.756 96.688L128.072 99.178L127.392 99.171L127.236 97.8391L126.832 99.1651L126.347 99.1601L125.972 97.8261L125.789 99.1544L125.11 99.1474L125.474 96.6644L125.474 96.6645ZM128.365 96.6943L129.094 96.7018L129.083 97.7113L129.798 96.709L130.6 96.7172L129.665 97.9385L130.6 99.204L129.726 99.195L129.081 98.1787L129.07 99.1883L128.342 99.1808L128.367 96.6943L128.365 96.6943L128.365 96.6943ZM125.256 94.0016C120.883 93.9567 117.973 95.5282 117.949 97.8904C117.925 100.23 120.799 101.884 125.175 101.929C129.572 101.974 132.458 100.377 132.482 98.0398C132.506 95.6776 129.656 94.0469 125.256 94.0016ZM125.178 101.56C121.07 101.518 118.342 100.038 118.364 97.8946C118.386 95.7288 121.147 94.3276 125.252 94.3698C129.383 94.4122 132.092 95.8675 132.069 98.0355C132.047 100.179 129.311 101.603 125.178 101.56ZM125.249 94.7153C121.386 94.6756 118.796 95.9545 118.776 97.8989C118.756 99.8433 121.319 101.175 125.182 101.215C129.045 101.255 131.635 99.9757 131.655 98.0313C131.677 96.0869 129.114 94.755 125.249 94.7153ZM125.183 101.143C121.367 101.103 118.83 99.7967 118.85 97.9018C118.869 96.0071 121.434 94.7529 125.248 94.7921C129.062 94.8313 131.601 96.138 131.581 98.0327C131.564 99.9276 128.999 101.182 125.183 101.143L125.183 101.143Z" fill="white"/>
</svg>
