<svg width="247" height="524" viewBox="0 0 247 524" fill="none" xmlns="http://www.w3.org/2000/svg">
<path d="M123.596 75.4982C124.29 75.4982 125.766 75.4982 127.068 75.9322C127.068 76.9739 124.753 77.8131 123.596 78.1025C123.306 77.2344 122.901 75.4982 123.596 75.4982Z" fill="#013FA9"/>
<path d="M125.633 55.3137H97.9561V87.8642H125.633V55.3137Z" fill="#FBBEAA"/>
<path d="M98.025 55.3137H125.61V73.474C124.405 73.6236 123.192 73.7004 121.978 73.7038C112.461 73.7038 101.818 71.1062 97.9331 62.0261L98.025 55.3137Z" fill="#F18380"/>
<path d="M139.931 31.1541C139.702 40.5561 139.931 47.9811 138.23 55.1532C136.529 62.3254 131.334 68.1872 119.84 68.1872C108.346 68.1872 95.2435 64.4402 94.324 50.073C92.439 48.0271 89.3817 40.74 89.2667 32.5794C89.1518 24.4188 89.7955 7.15505 108.392 4.51147C126.989 1.8679 140.437 8.69522 139.931 31.1541Z" fill="#FBBEAA"/>
<path d="M130.208 38.5562C130.208 39.8206 130.966 40.855 131.909 40.855C132.851 40.855 133.61 39.8206 133.61 38.5562C133.61 37.2919 132.851 36.2575 131.909 36.2575C130.966 36.2575 130.208 37.2 130.208 38.5562Z" fill="#403D4F"/>
<path d="M109.519 38.5562C109.519 39.8206 110.278 40.855 111.22 40.855C112.163 40.855 112.921 39.8206 112.921 38.5562C112.921 37.2919 112.163 36.2575 111.22 36.2575C110.278 36.2575 109.519 37.2 109.519 38.5562Z" fill="#403D4F"/>
<path d="M113.68 33.7744C113.519 33.9813 112.3 33.7744 111.381 33.7744C110.461 33.7744 108.691 33.7744 108.691 33.5675C108.691 33.3606 109.565 31.9354 111.864 32.1883C113.519 32.3722 114.116 33.4066 113.68 33.7744Z" fill="#403D4F"/>
<path d="M129.816 33.7744C129.954 33.9813 130.989 33.7744 131.793 33.7744C132.598 33.7744 134.092 33.7744 134.092 33.5675C133.886 33.0465 133.496 32.6188 132.997 32.3648C132.497 32.1108 131.922 32.048 131.38 32.1882C129.954 32.3721 129.564 33.4066 129.816 33.7744Z" fill="#403D4F"/>
<path d="M123.035 48.0729C124.644 48.0729 125.931 47.0155 125.977 46.2569L125.449 39.7744C125.431 39.6138 125.352 39.4663 125.227 39.3632C125.103 39.2602 124.943 39.2098 124.782 39.2227C124.704 39.2285 124.627 39.2498 124.557 39.2853C124.486 39.3209 124.424 39.37 124.372 39.4298C124.321 39.4896 124.282 39.559 124.258 39.6339C124.233 39.7088 124.224 39.7878 124.23 39.8664L124.736 46.119C124.504 46.3709 124.218 46.5677 123.9 46.695C123.582 46.8223 123.239 46.8768 122.897 46.8546C122.817 46.8483 122.736 46.8584 122.66 46.8842C122.583 46.91 122.513 46.951 122.453 47.0046C122.393 47.0583 122.344 47.1236 122.31 47.1966C122.275 47.2696 122.256 47.3487 122.253 47.4293C122.253 47.5923 122.314 47.7494 122.425 47.8689C122.536 47.9884 122.688 48.0613 122.851 48.0729H123.035Z" fill="#F18380"/>
<path d="M99.3071 35.4294C99.3071 44.7052 94.7096 41.257 94.7096 41.257C93.5602 37.8089 91.5578 39.2916 88.9256 39.2916C86.2934 39.2916 86.6316 37.3746 83.9995 31.053C81.8937 25.9957 84.3212 17.9599 85.9006 16.0148C83.2827 12.5851 86.8328 10.5419 86.71 11.0618C85.9006 14.4892 88.7067 11.0445 90.112 9.69321C105.122 -4.73945 142.947 2.51135 142.947 2.51135L139.018 7.48282L148.693 4.81016C148.693 4.81016 148.062 10.0455 146.395 12.8558C145.006 15.1964 141.65 17.9599 141.65 17.9599L152.179 18.9325C152.179 18.9325 145.335 26.2266 135.859 27.1992C125.188 28.2945 113.749 23.309 113.749 23.309L117.96 28.1717C117.96 28.1717 107.316 26.0007 103.868 27.7978C101.662 28.9471 99.3071 31.2828 99.3071 35.4294Z" fill="#7D4A40"/>
<path d="M94.8295 42.9239C94.7146 40.3033 94.3008 36.4414 90.5768 36.3495C86.8528 36.2575 86.37 39.062 86.485 43.4756C86.5999 47.8892 91.0825 51.6362 95.0134 50.119L94.8295 42.9239Z" fill="#FBBEAA"/>
<path d="M89.3579 46.0959C89.5192 46.0677 89.6628 45.9771 89.7575 45.8436C89.8522 45.7102 89.8904 45.5447 89.8637 45.3832C89.8638 45.2535 89.9006 45.1264 89.9697 45.0167C90.0388 44.9069 90.1375 44.8188 90.2545 44.7626C90.4891 44.6054 90.7651 44.5215 91.0475 44.5215C91.3299 44.5215 91.606 44.6054 91.8406 44.7626C91.9427 44.8189 92.0574 44.8485 92.1739 44.8485C92.2905 44.8485 92.4052 44.8189 92.5073 44.7626C92.6009 44.7007 92.676 44.6146 92.7246 44.5134C92.7732 44.4121 92.7934 44.2997 92.7831 44.1879C92.4613 40.4869 90.0936 39.7972 90.0016 39.7743C89.9231 39.75 89.8405 39.7423 89.7589 39.7514C89.6772 39.7606 89.5984 39.7864 89.5272 39.8274C89.456 39.8684 89.394 39.9236 89.3451 39.9896C89.2963 40.0556 89.2615 40.131 89.243 40.211C89.2006 40.3634 89.2203 40.5265 89.2979 40.6643C89.3754 40.8022 89.5045 40.9037 89.6568 40.9466C90.116 41.1545 90.5162 41.4736 90.8213 41.8749C91.1263 42.2762 91.3265 42.7473 91.4038 43.2454C90.7739 43.1428 90.1282 43.2735 89.5878 43.6132C89.273 43.7978 89.0185 44.0698 88.8553 44.3963C88.692 44.7227 88.6271 45.0896 88.6683 45.4522C88.6644 45.5418 88.68 45.6311 88.7139 45.7141C88.7479 45.797 88.7994 45.8717 88.8649 45.9328C88.9305 45.994 89.0085 46.0402 89.0936 46.0684C89.1787 46.0965 89.2689 46.1059 89.3579 46.0959Z" fill="#F18380"/>
<path d="M121.45 56.3486C119.23 56.263 117.1 55.456 115.381 54.0499" stroke="#73102A" stroke-width="0.5" stroke-miterlimit="10" stroke-linecap="round"/>
<path d="M121.527 52.2803C118.309 51.2229 114.631 49.9815 113.367 51.4757C112.378 52.4872 113.711 57.2456 118.654 58.0732C123.596 58.9007 125.366 55.4986 125.113 54.1883C124.952 53.3837 124.056 53.1308 121.527 52.2803Z" fill="#73102A"/>
<path d="M113.482 51.4071H113.367C112.378 52.4185 113.711 57.177 118.654 58.0045C119.728 58.2538 120.844 58.2538 121.918 58.0045C121.086 56.3506 119.897 54.9014 118.439 53.7608C116.98 52.6202 115.287 51.8164 113.482 51.4071Z" fill="#D65155"/>
<path d="M114.631 50.9009C115.934 52.3162 117.587 53.3616 119.424 53.9309C121.261 54.5002 123.216 54.5731 125.091 54.1422C124.907 53.3606 123.987 53.1078 121.528 52.2802C119.345 51.3626 116.999 50.8935 114.631 50.9009Z" fill="white"/>
<g opacity="0.3" filter="url(#filter0_f_110_11)">
<ellipse cx="106.5" cy="14.5" rx="106.5" ry="14.5" transform="matrix(1 0 0 -1 17 506.995)" fill="#CBCBCB"/>
</g>
<path d="M134.352 412.833C134.352 412.833 133.227 460.322 132.946 467.426C132.665 474.529 128.142 476.462 120.853 477.091C113.565 477.72 110.495 471.967 109.464 467.402C108.433 462.837 102.199 416.28 102.199 416.28L134.352 412.833Z" fill="#FBBEAA"/>
<path d="M87.271 413.981C87.271 413.981 81.0734 461.605 80.0482 468.695C79.0231 475.784 74.34 477.292 67.0473 477.127C59.7547 476.962 57.3549 470.862 56.819 466.175C56.2831 461.488 55.1182 413.981 55.1182 413.981H87.271Z" fill="#FBBEAA"/>
<path d="M68.2708 453.051C70.9177 452.864 73.5422 453.643 75.6459 455.241C77.7496 456.839 79.1861 459.145 79.6826 461.72L91.8645 474.055V481.732H52.8218C52.8218 481.732 54.7821 467.899 55.3422 464.786C55.9023 461.674 57.7925 453.051 68.2708 453.051Z" fill="#FBBEAA"/>
<path d="M79.8319 461.948C80.2827 461.335 80.9231 460.863 81.3739 461.146C81.8246 461.429 93.8045 470.855 94.3738 471.327C94.7244 471.654 94.9897 472.061 95.1468 472.512C95.3038 472.964 95.3479 473.447 95.2753 473.919V484.028H51.6733C51.6733 484.028 53.3813 469.088 53.4999 468.263C53.6186 467.438 54.4489 466.354 54.9233 466.378C57.916 467.289 61.0219 467.78 64.1514 467.839C68.3106 468.058 72.4595 467.248 76.2261 465.482C77.6227 464.518 78.8423 463.322 79.8319 461.948Z" fill="#302D3B"/>
<path d="M88.0595 475.836C85.9948 474.277 78.5714 468.372 75.7876 466.152L76.4371 465.821C76.5248 465.783 76.6038 465.726 76.6691 465.655C79.6385 468.018 86.6212 473.592 88.6162 475.104C90.3027 476.419 91.458 478.318 91.864 480.442L90.9593 480.584C90.5766 478.701 89.5487 477.018 88.0595 475.836Z" fill="white"/>
<path d="M52.9626 473.694C56.0039 473.725 58.9469 474.782 61.321 476.697C63.4669 478.612 64.9204 481.191 65.4532 484.028H64.1854C63.6668 481.57 62.3839 479.341 60.5227 477.667C58.3377 475.904 55.6212 474.945 52.8218 474.947L52.9626 473.694Z" fill="white"/>
<path d="M102.71 482.88H52.3107C51.9587 482.88 51.6733 483.199 51.6733 483.593V489.057C51.6733 489.451 51.9587 489.77 52.3107 489.77H102.71C103.062 489.77 103.347 489.451 103.347 489.057V483.593C103.347 483.199 103.062 482.88 102.71 482.88Z" fill="white"/>
<path d="M94.3552 471.425C94.7776 471.254 96.8451 471.829 99.5351 474.363C100.655 475.472 101.461 476.836 101.878 478.326C102.294 479.817 102.306 481.384 101.914 482.88H88.4194C89.1753 474.704 93.9328 471.595 94.3552 471.425Z" fill="white"/>
<path d="M88.6051 470.951C88.468 471.152 88.4026 471.408 88.4231 471.666C88.4437 471.923 88.5485 472.16 88.7149 472.326C88.7965 472.406 88.8907 472.467 88.9919 472.503C89.0931 472.54 89.1994 472.553 89.3048 472.541C89.4102 472.529 89.5125 472.492 89.6059 472.433C89.6993 472.373 89.782 472.292 89.8492 472.195L91.6787 469.555C91.8158 469.355 91.8812 469.099 91.8607 468.841C91.8401 468.584 91.7353 468.347 91.5689 468.181C91.4884 468.098 91.3945 468.035 91.2929 467.996C91.1914 467.958 91.0843 467.944 90.9783 467.956C90.8722 467.969 90.7693 468.007 90.6759 468.068C90.5824 468.129 90.5003 468.212 90.4346 468.312L88.6051 470.951Z" fill="white"/>
<path d="M86.3086 469.397C86.1712 469.647 86.1057 469.967 86.1263 470.288C86.1469 470.609 86.2519 470.905 86.4186 471.112C86.4993 471.215 86.5935 471.294 86.6952 471.342C86.797 471.39 86.9042 471.407 87.0105 471.392C87.1168 471.376 87.2199 471.329 87.3135 471.253C87.4072 471.177 87.4894 471.073 87.5553 470.948L89.3885 467.655C89.5215 467.403 89.5842 467.085 89.5637 466.766C89.5432 466.447 89.4412 466.152 89.2785 465.941C89.1978 465.837 89.1037 465.759 89.0019 465.711C88.9002 465.663 88.7929 465.646 88.6866 465.661C88.5803 465.676 88.4772 465.723 88.3836 465.8C88.29 465.876 88.2077 465.979 88.1419 466.104L86.3086 469.397Z" fill="white"/>
<path d="M82.9287 466.768C82.7477 466.914 82.6587 467.103 82.6811 467.294C82.7036 467.485 82.8357 467.661 83.0484 467.786C83.2683 467.909 83.55 467.967 83.8325 467.949C84.115 467.93 84.3755 467.836 84.5575 467.687L86.9529 465.701C87.0536 465.634 87.1336 465.554 87.1882 465.465C87.2428 465.376 87.271 465.281 87.271 465.184C87.271 465.088 87.2428 464.993 87.1882 464.904C87.1336 464.815 87.0536 464.735 86.9529 464.667C86.7307 464.548 86.4505 464.492 86.1697 464.511C85.889 464.529 85.6292 464.62 85.4438 464.766L82.9287 466.768Z" fill="white"/>
<path d="M80.5646 464.737C80.4975 464.86 80.4472 465.002 80.4164 465.155C80.3856 465.307 80.3749 465.468 80.3851 465.627C80.3952 465.786 80.4259 465.94 80.4755 466.081C80.525 466.222 80.5924 466.347 80.6738 466.449C80.827 466.676 81.0329 466.804 81.2473 466.804C81.4618 466.804 81.6677 466.676 81.8208 466.449L83.6415 463.08C83.778 462.826 83.843 462.502 83.8226 462.176C83.8021 461.85 83.6978 461.55 83.5323 461.34C83.451 461.238 83.3573 461.162 83.2566 461.115C83.1559 461.069 83.0501 461.052 82.9452 461.068C82.8404 461.083 82.7385 461.13 82.6456 461.205C82.5526 461.28 82.4703 461.382 82.4034 461.506L80.5646 464.737Z" fill="white"/>
<path d="M124.547 453.051C127.196 452.864 129.822 453.643 131.927 455.241C134.032 456.839 135.469 459.145 135.966 461.72L148.132 474.055V481.732H109.089C109.089 481.732 111.027 467.899 111.611 464.786C112.195 461.674 114.063 453.051 124.547 453.051Z" fill="#FBBEAA"/>
<path d="M134.973 461.948C135.424 461.335 136.041 460.863 136.516 461.146C136.991 461.429 148.956 470.855 149.502 471.327C150.049 471.798 150.428 472.387 150.428 473.919V484.028H106.792C106.792 484.028 108.502 469.088 108.621 468.263C108.739 467.438 109.57 466.354 110.045 466.378C113.04 467.289 116.148 467.78 119.28 467.839C123.435 468.062 127.581 467.252 131.341 465.482C132.749 464.523 133.978 463.326 134.973 461.948Z" fill="#302D3B"/>
<path d="M142.031 475.836C139.966 474.277 132.543 468.372 129.759 466.152L130.385 465.821C130.48 465.783 130.566 465.727 130.64 465.655C133.61 468.018 140.592 473.592 142.587 475.104C144.274 476.419 145.429 478.318 145.835 480.442L144.93 480.584C144.536 478.705 143.511 477.026 142.031 475.836Z" fill="white"/>
<path d="M109.217 473.694C111.982 473.725 114.657 474.782 116.815 476.697C118.766 478.612 120.088 481.191 120.572 484.028H119.419C118.942 481.567 117.768 479.338 116.068 477.667C114.092 475.901 111.628 474.94 109.089 474.947L109.217 473.694Z" fill="white"/>
<path d="M156.681 482.88H106.281C105.929 482.88 105.644 483.199 105.644 483.593V489.057C105.644 489.451 105.929 489.77 106.281 489.77H156.681C157.033 489.77 157.318 489.451 157.318 489.057V483.593C157.318 483.199 157.033 482.88 156.681 482.88Z" fill="white"/>
<path d="M148.82 471.425C149.278 471.254 151.518 471.829 154.432 474.363C155.645 475.472 156.519 476.836 156.97 478.326C157.421 479.817 157.434 481.384 157.009 482.88H142.39C143.209 474.704 148.363 471.595 148.82 471.425Z" fill="white"/>
<path d="M143.786 470.951C143.603 471.152 143.516 471.408 143.543 471.666C143.571 471.923 143.711 472.16 143.933 472.326C144.042 472.406 144.168 472.467 144.303 472.503C144.438 472.54 144.58 472.553 144.721 472.541C144.862 472.529 144.998 472.492 145.123 472.433C145.248 472.373 145.359 472.292 145.448 472.195L147.893 469.555C148.07 469.353 148.154 469.098 148.126 468.842C148.099 468.586 147.963 468.35 147.746 468.181C147.638 468.098 147.513 468.035 147.377 467.996C147.242 467.958 147.099 467.944 146.957 467.956C146.815 467.969 146.678 468.007 146.553 468.068C146.428 468.129 146.318 468.212 146.231 468.312L143.786 470.951Z" fill="white"/>
<path d="M141.428 469.394C141.291 469.644 141.225 469.965 141.246 470.286C141.266 470.608 141.372 470.904 141.538 471.111C141.619 471.215 141.713 471.294 141.815 471.342C141.917 471.39 142.024 471.407 142.13 471.392C142.236 471.376 142.34 471.329 142.433 471.253C142.527 471.176 142.609 471.073 142.675 470.948L144.508 467.649C144.641 467.397 144.704 467.078 144.683 466.758C144.663 466.439 144.561 466.143 144.398 465.932C144.23 465.728 144.014 465.63 143.798 465.661C143.582 465.692 143.382 465.848 143.243 466.096L141.428 469.394Z" fill="white"/>
<path d="M138.122 466.77C138.019 466.836 137.938 466.914 137.882 467.002C137.826 467.089 137.797 467.183 137.797 467.278C137.797 467.373 137.826 467.467 137.882 467.554C137.938 467.641 138.019 467.72 138.122 467.786C138.348 467.909 138.638 467.967 138.929 467.949C139.22 467.93 139.488 467.836 139.675 467.687L142.14 465.705C142.325 465.554 142.413 465.361 142.385 465.168C142.357 464.975 142.216 464.797 141.992 464.672C141.882 464.612 141.755 464.566 141.619 464.539C141.482 464.511 141.339 464.501 141.197 464.511C141.055 464.52 140.918 464.547 140.792 464.592C140.666 464.637 140.554 464.697 140.464 464.77L138.122 466.77Z" fill="white"/>
<path d="M135.744 464.737C135.655 464.86 135.588 465.002 135.547 465.155C135.506 465.307 135.491 465.468 135.505 465.627C135.518 465.786 135.56 465.94 135.626 466.081C135.692 466.222 135.781 466.347 135.89 466.449C136.094 466.676 136.369 466.804 136.655 466.804C136.941 466.804 137.215 466.676 137.419 466.449L139.847 463.08C140.029 462.826 140.116 462.502 140.088 462.176C140.061 461.85 139.922 461.55 139.701 461.34C139.593 461.238 139.468 461.162 139.334 461.115C139.199 461.069 139.058 461.052 138.918 461.068C138.779 461.083 138.643 461.13 138.519 461.205C138.395 461.28 138.285 461.382 138.196 461.506L135.744 464.737Z" fill="white"/>
<path d="M58.755 312.062C58.3653 315.094 58.5702 318.174 59.3577 321.125C60.1452 324.076 61.4997 326.839 63.343 329.254C65.1862 331.668 67.4815 333.687 70.0962 335.193C72.7108 336.699 75.5929 337.662 78.5757 338.027C81.5584 338.392 84.5827 338.152 87.4735 337.319C90.3643 336.487 93.0642 335.079 95.4172 333.178C97.7701 331.277 99.7294 328.92 101.182 326.243C102.634 323.566 103.55 320.622 103.877 317.583C103.877 317.583 115.707 233.008 118.513 215.922C121.318 198.835 118.349 184.533 99.5521 180.464C80.0537 176.252 67.873 190.792 66.4001 205.356C64.9271 219.92 58.755 312.062 58.755 312.062Z" fill="#013EA5"/>
<path d="M96.7431 313.688C96.6675 319.807 99.0282 325.704 103.306 330.084C107.584 334.464 113.428 336.967 119.553 337.043C125.679 337.118 131.583 334.76 135.968 330.487C140.352 326.214 142.858 320.376 142.934 314.258C142.934 314.258 145.856 229.1 146.854 211.846C147.852 194.591 143.338 180.754 123.901 178.761C103.752 176.696 93.0127 192.431 93.0127 207.051C93.0127 221.672 96.7431 313.688 96.7431 313.688Z" fill="#013EA5"/>
<path d="M96.4575 313.875C96.4957 310.849 97.1423 307.859 98.3605 305.077C99.5788 302.296 101.345 299.776 103.558 297.662C105.77 295.549 108.387 293.883 111.257 292.759C114.128 291.635 117.196 291.076 120.288 291.114C123.379 291.151 126.432 291.784 129.274 292.977C132.115 294.169 134.689 295.898 136.847 298.065C139.006 300.231 140.708 302.793 141.856 305.603C143.004 308.414 143.575 311.418 143.537 314.444L138.693 436.386L100.696 440.393L96.4575 313.875Z" fill="#013EA5"/>
<path d="M58.8355 312.412C59.6188 306.365 62.7332 300.873 67.5021 297.131C72.271 293.389 78.3092 291.698 84.3052 292.426C90.3012 293.154 95.7706 296.242 99.5255 301.019C103.28 305.796 105.018 311.876 104.359 317.939L86.598 439.244H49.377L58.8355 312.412Z" fill="#013EA5"/>
<path d="M103.347 316.375L86.1226 438.096" stroke="#013EA5" stroke-width="0.75" stroke-miterlimit="10" stroke-linecap="round"/>
<path d="M104.496 317.523C104.496 317.523 116.563 233.455 119.424 216.471" stroke="#F5F5F5" stroke-width="0.75" stroke-miterlimit="10" stroke-linecap="round"/>
<path d="M144.687 188.912C144.687 188.912 144.687 212.873 144.687 214.19C144.687 215.507 133.167 226.806 117.869 226.806C94.3456 226.806 66.1914 218.188 66.6061 212.573C66.8826 208.876 67.2281 188.912 67.2281 188.912H144.687Z" fill="#013EA5"/>
<path d="M215.574 90.6076L204.439 160.51C202.602 169.279 205.441 177.213 215.574 178.605C217.445 178.848 219.345 178.709 221.16 178.196C222.975 177.683 224.667 176.806 226.133 175.619C227.599 174.431 228.808 172.959 229.687 171.29C230.566 169.621 231.097 167.791 231.247 165.91L234.644 90.7468C235.535 83.648 232.445 78.9155 227.044 78.3309C220.418 77.6071 216.911 81.5323 215.574 90.6076Z" fill="#FBBEAA"/>
<path d="M224.623 152.771L144.671 92.0272C135.345 86.0698 128.998 89.2434 124.043 95.6184C121.78 98.7039 120.73 102.514 121.095 106.323C121.459 110.132 123.212 113.674 126.019 116.275L205.776 175.041C208.587 177.415 212.205 178.613 215.877 178.385C219.548 178.156 222.991 176.52 225.486 173.816L225.847 173.427C227.172 172.014 228.194 170.346 228.853 168.525C229.511 166.704 229.791 164.768 229.677 162.835C229.562 160.902 229.055 159.013 228.186 157.283C227.317 155.552 226.105 154.017 224.623 152.771Z" fill="#FBBEAA"/>
<path d="M215.908 88.7419C216.023 86.2333 215.351 83.7515 213.987 81.6431C211.887 79.208 210.313 76.3645 209.366 73.2916C208.637 70.4392 207.472 67.7161 205.914 65.2184C204.8 63.6873 203.13 62.4346 203.13 61.2654C203.13 60.0962 205.357 57.8413 208.531 58.4816C209.89 58.905 211.139 59.6237 212.188 60.5863C213.237 61.5488 214.061 62.7313 214.599 64.0492C214.903 63.2462 215.082 62.4012 215.128 61.5438L215.824 44.4789C215.835 44.0365 215.934 43.6007 216.116 43.1972C216.297 42.7938 216.558 42.4308 216.883 42.1298C217.207 41.8288 217.588 41.5958 218.004 41.4447C218.42 41.2935 218.862 41.2272 219.304 41.2496C220.008 41.2796 220.684 41.5294 221.238 41.9638C221.793 42.3983 222.197 42.9955 222.394 43.6715V42.892C222.501 42.0625 222.918 41.3041 223.561 40.7693C224.204 40.2344 225.026 39.9625 225.861 40.0083C226.696 40.0541 227.483 40.4142 228.064 41.0162C228.645 41.6182 228.976 42.4177 228.992 43.254V45.6202C229.271 44.8907 229.802 44.2856 230.49 43.9153C231.177 43.545 231.975 43.4342 232.738 43.6029C233.5 43.7716 234.177 44.2086 234.644 44.8344C235.111 45.4602 235.338 46.2331 235.283 47.0122V48.5154C235.583 47.9888 236.029 47.561 236.568 47.2841C237.107 47.0072 237.715 46.8934 238.318 46.9564C239.143 47.0612 239.895 47.483 240.414 48.1325C240.934 48.782 241.18 49.6082 241.101 50.4362L239.737 64.8287C238.844 72.943 237.166 80.9515 234.726 88.7419C234.697 90.0426 234.396 91.3228 233.842 92.5001C233.288 93.6774 232.494 94.7258 231.511 95.578C230.528 96.4301 229.377 97.067 228.133 97.4478C226.889 97.8287 225.579 97.945 224.287 97.7894C223.118 97.8284 221.954 97.6155 220.875 97.1653C219.796 96.715 218.825 96.0378 218.031 95.1797C217.236 94.3216 216.635 93.3026 216.269 92.1918C215.902 91.081 215.779 89.9044 215.908 88.7419Z" fill="#FBBEAA"/>
<path d="M138.072 87.6841L207.26 134.348C206.969 136.735 212.576 87.6841 212.576 87.6841L238.185 90.0745C238.185 90.0745 236.689 140.014 232.92 166.388C231.425 176.855 222.713 180.825 212.382 178.571C207.282 177.458 202.48 175.365 198.208 172.366C179.847 159.479 128.336 123.179 124.125 118.613C116.859 110.734 116.859 104.833 121.035 98.3463C125.21 91.8599 134.147 86.7098 138.072 87.6841Z" fill="#013EA5"/>
<path d="M216.465 66.4715C215.407 66.4715 215.323 65.8034 214.85 64.5785C217.216 64.5785 224.092 65.0239 227.099 70.8143C224.065 66.6385 218.246 66.4715 216.465 66.4715ZM221.865 44.4513C221.865 44.4513 221.698 45.4257 221.531 46.8455C221.531 47.5693 221.364 48.4322 221.309 49.3231C221.253 50.2139 221.169 51.1882 221.086 52.1069C221.086 54.0556 220.947 55.9764 220.947 57.424C220.947 58.8716 220.947 59.846 220.947 59.846C220.947 59.8923 220.956 59.9382 220.974 59.9806C220.993 60.0231 221.02 60.0612 221.054 60.0926C221.088 60.124 221.128 60.1481 221.172 60.1631C221.216 60.1782 221.262 60.1839 221.309 60.18C221.387 60.1761 221.462 60.1468 221.522 60.0966C221.582 60.0464 221.625 59.978 221.643 59.9017C221.643 59.9017 221.81 58.9273 221.949 57.4797C222.088 56.0321 222.311 54.1113 222.394 52.1904C222.394 51.2161 222.394 50.2417 222.394 49.4066C222.394 48.5714 222.394 47.6528 222.394 46.929C222.394 45.4536 222.394 44.507 222.394 44.507C222.394 44.4607 222.385 44.4149 222.366 44.3724C222.348 44.33 222.321 44.2918 222.287 44.2604C222.253 44.2289 222.213 44.205 222.169 44.1899C222.125 44.1749 222.079 44.1691 222.032 44.1729C221.979 44.2036 221.935 44.2485 221.906 44.3026C221.876 44.3566 221.862 44.4177 221.865 44.4792V44.4513ZM228.324 46.4001C228.324 46.4001 228.157 47.2352 227.962 48.4601C227.962 49.1004 227.767 49.8241 227.684 50.6036C227.6 51.3831 227.517 52.2182 227.433 53.0534C227.433 54.7237 227.238 56.394 227.21 57.6467C227.183 58.8994 227.21 59.7625 227.21 59.7625C227.214 59.8064 227.226 59.8492 227.246 59.8884C227.266 59.9276 227.294 59.9624 227.328 59.9909C227.361 60.0194 227.4 60.0409 227.442 60.0543C227.484 60.0676 227.528 60.0725 227.572 60.0687C227.647 60.0635 227.718 60.0332 227.774 59.9827C227.829 59.9322 227.866 59.8644 227.878 59.7903C227.878 59.7903 228.045 58.9551 228.24 57.7302C228.435 56.5053 228.602 54.8072 228.741 53.1648C228.741 52.3296 228.741 51.4945 228.908 50.715C229.075 49.9355 228.908 49.1839 228.908 48.5436C228.908 47.2909 228.908 46.4557 228.908 46.4557C228.909 46.4094 228.899 46.3636 228.881 46.3211C228.862 46.2787 228.835 46.2405 228.801 46.2091C228.767 46.1777 228.727 46.1537 228.683 46.1387C228.639 46.1236 228.593 46.1178 228.547 46.1217C228.485 46.1472 228.431 46.1893 228.392 46.2433C228.353 46.2974 228.329 46.3612 228.324 46.4278V46.4001ZM234.56 49.0447C234.56 49.0447 234.393 49.7406 234.17 50.7985C234.17 51.2996 233.947 51.9121 233.864 52.5802C233.78 53.2483 233.669 53.9442 233.557 54.6402C233.363 56.06 233.279 57.424 233.223 58.5376C233.168 59.6511 233.223 60.3193 233.223 60.3193C233.223 60.3656 233.233 60.4114 233.251 60.4538C233.27 60.4963 233.297 60.5345 233.331 60.5659C233.365 60.5973 233.405 60.6213 233.449 60.6363C233.493 60.6514 233.539 60.6572 233.585 60.6533C233.656 60.6496 233.724 60.6233 233.779 60.5782C233.835 60.5331 233.874 60.4717 233.892 60.4028C233.892 60.4028 234.086 59.7068 234.281 58.6768C234.476 57.6468 234.755 56.1991 234.922 54.8072C234.922 54.0834 235.061 53.3875 235.116 52.7194C235.172 52.0512 235.116 51.4388 235.116 50.9099C235.116 49.852 235.116 49.1282 235.116 49.1282C235.117 49.0819 235.107 49.0361 235.089 48.9936C235.07 48.9511 235.043 48.913 235.009 48.8815C234.975 48.8501 234.935 48.8262 234.891 48.8111C234.847 48.7961 234.801 48.7903 234.755 48.7941C234.703 48.8228 234.659 48.8627 234.625 48.9109C234.591 48.9592 234.569 49.0144 234.56 49.0725V49.0447Z" fill="#F18380"/>
<path d="M207.802 128.705L209.104 118.288L236.884 120.458L236.45 130.875L207.802 128.705Z" fill="#CFD1CE"/>
<path d="M127.03 81.1322C127.03 81.1322 143.838 90.8378 146.461 92.5363C149.085 94.2348 152.048 96.8553 151.514 103.94C150.979 111.025 148.72 206.399 148.72 206.399C140.094 207.859 114.831 207.859 114.831 207.859H112.534H110.812H108.515H106.792H105.07C105.07 207.859 67.6173 204.676 66.8643 204.239C66.1113 203.802 65.4069 203.341 65.4555 202.516C65.5041 201.691 65.9899 104.741 66.3057 100.471C66.3682 98.1836 67.0886 95.963 68.3808 94.0741C69.673 92.1852 71.4823 90.7079 73.5925 89.8188C78.6691 87.5622 97.7364 79.822 97.7364 79.822L113.751 81.1322H127.03Z" fill="#034CC9"/>
<path d="M127.03 81.1322C127.03 81.1322 143.838 90.8378 146.461 92.5363C149.085 94.2348 152.048 96.8553 151.514 103.94C150.979 111.025 148.72 206.399 148.72 206.399C140.093 207.859 126.314 207.859 126.314 207.859H124.017H122.295H119.998H118.275H116.553C116.553 207.859 119.291 204.676 118.538 204.239C117.785 203.802 117.081 203.341 117.13 202.516C117.178 201.691 117.664 104.741 117.98 100.471C118.042 98.1836 118.763 95.963 120.055 94.0741C121.347 92.1852 123.156 90.7079 125.267 89.8188C130.343 87.5622 97.7363 79.822 97.7363 79.822L113.751 81.1322H127.03Z" fill="#0045BA"/>
<path d="M128.937 81.2721C128.937 81.2721 147.52 92.0136 150.42 93.8934C153.32 95.7732 151.003 99.9175 151.003 107.382C151.003 117.142 149.28 117.716 149.28 117.716C143.469 120.852 140.927 118.406 134.523 120.014C131.408 120.363 128.991 120.443 126.896 118.403C124.801 116.362 118.276 117.142 118.276 117.142C118.276 117.142 108.447 115.851 103.855 118.403C102.757 119.169 101.516 119.706 100.206 119.983C98.8957 120.26 97.8656 120.239 96.5512 119.983C89.8915 118.613 63.2525 110.964 62.42 110.481C61.5875 109.997 60.8088 109.487 60.8625 108.574C60.9162 107.661 61.4533 107.401 61.8024 102.675C61.8715 100.143 62.668 97.6858 64.0966 95.5953C65.5252 93.5048 67.5255 91.8698 69.8585 90.8858C75.471 88.3884 96.5512 79.822 96.5512 79.822L114.256 80.3961L128.937 81.2721Z" fill="#9A99A1"/>
<path d="M115.783 77.2344C107.797 77.2344 100.592 73.762 97.9873 72.0258V79.8387C98.2767 80.2728 100.505 81.6617 107.102 83.7452C113.7 85.8286 123.162 85.0473 127.069 83.7452V75.9322C127.069 76.3663 125.767 77.2344 115.783 77.2344Z" fill="#034CC9"/>
<path d="M116.217 207.45C118.435 206.706 120.377 205.272 121.775 203.345C123.174 201.418 123.961 199.091 124.03 196.684V77.6684H116.217V207.45Z" fill="#034CC9"/>
<path d="M151.003 120.64H111.624V111.959L151.003 111.975C151.003 115.994 151.003 117.142 151.003 120.64Z" fill="#D3D4D2"/>
<path d="M79.7882 111.959H119.437V120.64H78.9752C79.5039 116.733 79.7882 114.997 79.7882 111.959Z" fill="#CFD1CE"/>
<g style="mix-blend-mode:multiply" opacity="0.4">
<path d="M115.349 84.8694L116.217 85.0473V207.45H115.349V84.8694Z" fill="#013FA9"/>
</g>
<path d="M63.3185 95.6488C57.2418 103.462 22.0835 198.953 22.0835 198.953C54.6374 188.536 51.5828 160.382 69.288 163.361C69.288 163.361 89.7045 115.441 90.484 111.154C91.2975 107.774 90.9324 104.218 89.4491 101.074C87.9657 97.9301 85.4532 95.3871 82.3274 93.866C73.614 89.4119 69.3952 87.8356 63.3185 95.6488Z" fill="#0045BA"/>
<path d="M80.7954 140.773C85.7228 135.79 94.9373 125.045 98.0552 122.428C101.138 120.105 104.506 118.187 108.077 116.721C110.786 115.813 113.587 115.207 116.429 114.911C118.405 114.661 119.212 115.245 119.212 116.443C119.163 117.156 118.935 117.845 118.551 118.448C118.167 119.051 117.638 119.548 117.013 119.894H120.66C121.913 119.894 122.72 120.897 122.135 122.511C121.604 123.578 120.845 124.515 119.912 125.256C118.979 125.997 117.894 126.523 116.735 126.798C116.735 126.798 121.662 127.272 122.915 127.522C124.168 127.773 124.557 128.246 124.557 129.443C124.547 130.27 124.317 131.079 123.891 131.788C123.466 132.497 122.86 133.081 122.135 133.48C120.362 134.199 118.479 134.613 116.568 134.704C116.568 134.704 122.664 136.236 123.889 136.681C125.114 137.126 125.253 137.934 124.613 138.992C124.248 139.737 123.721 140.391 123.071 140.906C122.421 141.422 121.664 141.785 120.855 141.97C118.544 142.583 116.985 141.581 116.15 141.72C114.356 142.298 112.599 142.986 110.889 143.78C108.321 146.336 105.181 148.245 101.73 149.347C99.1607 150.426 96.804 151.953 94.7703 153.857C93.823 154.746 92.7069 155.436 91.4883 155.886C90.2697 156.337 88.9731 156.538 87.6754 156.478C86.3776 156.418 85.105 156.099 83.9329 155.539C82.7607 154.979 81.7128 154.189 80.8511 153.217C76.3969 148.484 77.1486 144.531 80.7954 140.773Z" fill="#FBBEAA"/>
<path d="M97.1739 157.718L52.3592 208.112C46.9888 215.27 34.4395 219.203 26.7721 212.572C25.3542 211.33 24.2034 209.813 23.3895 208.112C22.5756 206.412 22.1156 204.564 22.0373 202.68C21.9591 200.797 22.2643 198.917 22.9343 197.155C23.6044 195.393 24.6254 193.786 25.9354 192.43L80.2458 135.582L97.1739 157.718Z" fill="#0045BA"/>
<path d="M116.401 119.922C116.409 119.968 116.407 120.015 116.396 120.061C116.384 120.106 116.364 120.148 116.335 120.185C116.306 120.222 116.27 120.252 116.228 120.274C116.187 120.296 116.142 120.309 116.095 120.312L113.812 120.535H112.699C112.309 120.535 111.947 120.674 111.557 120.702C111.146 120.825 110.745 120.983 110.36 121.175L109.08 121.704C107.354 122.4 105.628 123.04 104.347 123.513C103.067 123.987 102.176 124.265 102.176 124.265C102.105 124.295 102.026 124.297 101.954 124.271C101.882 124.245 101.822 124.194 101.786 124.126C101.734 124.058 101.706 123.975 101.706 123.889C101.706 123.804 101.734 123.721 101.786 123.653L103.874 122.567L106.045 121.537C106.825 121.175 107.688 120.813 108.551 120.479L109.859 119.978C110.28 119.788 110.718 119.639 111.168 119.532L112.504 119.393H113.645H115.343H115.984C116.054 119.338 116.143 119.313 116.232 119.323C116.321 119.334 116.402 119.379 116.457 119.449C116.512 119.519 116.538 119.608 116.527 119.697C116.517 119.786 116.471 119.867 116.401 119.922ZM115.872 126.631H115.371C114.954 126.594 114.535 126.594 114.118 126.631L113.255 126.77C112.937 126.81 112.621 126.866 112.309 126.937L110.416 127.55C109.135 127.968 107.883 128.496 106.936 128.886C106.936 128.886 106.63 128.886 106.658 129.025H106.324L105.823 129.165H105.516H105.349C105.265 129.184 105.192 129.236 105.146 129.309C105.099 129.382 105.082 129.47 105.099 129.554C105.111 129.621 105.145 129.682 105.195 129.727C105.246 129.772 105.31 129.8 105.377 129.805H106.797H107.242C108.217 129.554 109.525 129.165 110.806 128.719L112.671 128.023L113.534 127.8L114.285 127.578C114.67 127.464 115.06 127.371 115.455 127.299L115.928 127.16C115.97 127.147 116.009 127.127 116.043 127.099C116.077 127.071 116.105 127.036 116.126 126.998C116.147 126.959 116.16 126.916 116.164 126.873C116.168 126.829 116.164 126.785 116.151 126.743C116.118 126.702 116.075 126.67 116.026 126.651C115.977 126.631 115.924 126.624 115.872 126.631ZM115.872 134.537H114.842C114.564 134.537 114.202 134.537 113.84 134.732L112.699 135.094C111.981 135.347 111.283 135.654 110.611 136.013C110.302 136.158 110.004 136.325 109.72 136.514C109.663 136.58 109.632 136.664 109.632 136.751C109.632 136.837 109.663 136.921 109.72 136.987C109.8 137.072 109.91 137.122 110.026 137.126L111.056 136.959C111.641 136.82 112.393 136.597 113.144 136.347L114.23 135.901L115.176 135.54C115.491 135.4 115.798 135.242 116.095 135.066C116.174 135.02 116.232 134.945 116.258 134.857C116.284 134.769 116.275 134.675 116.234 134.593C116.152 134.54 116.052 134.52 115.956 134.537H115.872Z" fill="#F18380"/>
<path d="M44.2197 170.74L53.3348 163.361L71.565 186.366L64.1862 195.047L44.2197 170.74Z" fill="#CFD1CE"/>
<defs>
<filter id="filter0_f_110_11" x="0" y="460.995" width="247" height="63" filterUnits="userSpaceOnUse" color-interpolation-filters="sRGB">
<feFlood flood-opacity="0" result="BackgroundImageFix"/>
<feBlend mode="normal" in="SourceGraphic" in2="BackgroundImageFix" result="shape"/>
<feGaussianBlur stdDeviation="8.5" result="effect1_foregroundBlur_110_11"/>
</filter>
</defs>
</svg>
