<svg width="270" height="538" viewBox="0 0 270 538" fill="none" xmlns="http://www.w3.org/2000/svg">
<path d="M150.964 89.498C151.658 89.498 153.134 89.498 154.436 89.9321C154.436 90.9738 152.121 91.813 150.964 92.1023C150.674 91.2342 150.269 89.498 150.964 89.498Z" fill="#013FA9"/>
<path d="M153.229 69.7596H125.384V101.869H153.229V69.7596Z" fill="#FBBEAA"/>
<path d="M125.453 69.7596H153.206V87.6739C151.994 87.8216 150.773 87.8973 149.552 87.9007C139.977 87.9007 129.269 85.3383 125.36 76.3811L125.453 69.7596Z" fill="#F18380"/>
<path d="M167.615 45.9272C167.384 55.2018 167.615 62.5263 165.903 69.6013C164.192 76.6763 158.965 82.4588 147.401 82.4588C135.838 82.4588 122.655 78.7625 121.73 64.5898C119.833 62.5716 116.757 55.3833 116.642 47.3332C116.526 39.2831 117.174 22.2532 135.884 19.6454C154.594 17.0376 168.124 23.7725 167.615 45.9272Z" fill="#FBBEAA"/>
<path d="M157.832 53.2285C157.832 54.4757 158.595 55.4962 159.543 55.4962C160.492 55.4962 161.255 54.4757 161.255 53.2285C161.255 51.9813 160.492 50.9609 159.543 50.9609C158.595 50.9609 157.832 51.8906 157.832 53.2285Z" fill="#403D4F"/>
<path d="M137.017 53.2285C137.017 54.4757 137.78 55.4962 138.728 55.4962C139.676 55.4962 140.44 54.4757 140.44 53.2285C140.44 51.9813 139.676 50.9609 138.728 50.9609C137.78 50.9609 137.017 51.8906 137.017 53.2285Z" fill="#403D4F"/>
<path d="M141.203 48.512C141.041 48.7161 139.816 48.512 138.89 48.512C137.965 48.512 136.185 48.512 136.185 48.3079C136.185 48.1038 137.063 46.6979 139.376 46.9474C141.041 47.1288 141.643 48.1492 141.203 48.512Z" fill="#403D4F"/>
<path d="M157.439 48.512C157.578 48.7161 158.619 48.512 159.428 48.512C160.238 48.512 161.741 48.512 161.741 48.3079C161.534 47.7939 161.142 47.372 160.639 47.1215C160.137 46.8709 159.558 46.809 159.012 46.9473C157.578 47.1287 157.185 48.1492 157.439 48.512Z" fill="#403D4F"/>
<path d="M150.616 62.6169C152.235 62.6169 153.53 61.5738 153.576 60.8254L153.044 54.4307C153.027 54.2723 152.947 54.1267 152.822 54.0251C152.696 53.9235 152.536 53.8738 152.374 53.8865C152.295 53.8922 152.217 53.9132 152.147 53.9483C152.076 53.9833 152.013 54.0318 151.961 54.0908C151.91 54.1498 151.871 54.2182 151.846 54.2921C151.822 54.366 151.812 54.444 151.819 54.5214L152.327 60.6894C152.094 60.9379 151.806 61.1321 151.486 61.2576C151.166 61.3832 150.821 61.437 150.477 61.415C150.396 61.4089 150.315 61.4188 150.238 61.4442C150.161 61.4697 150.091 61.5101 150.03 61.563C149.97 61.616 149.921 61.6804 149.886 61.7524C149.852 61.8244 149.832 61.9025 149.83 61.9819C149.829 62.1428 149.891 62.2978 150.003 62.4156C150.114 62.5335 150.267 62.6054 150.431 62.6169H150.616Z" fill="#F18380"/>
<path d="M125.55 58.4896C123.014 58.1903 121.385 56.2219 120.925 53.9543C120.465 51.6867 119.022 52.8205 116.299 52.8205C113.576 52.8205 112.184 47.571 111.328 43.5776C110.214 38.3838 111.872 32.3035 113.506 30.1561C109.15 26.398 111.328 13.5134 112.417 17.8083C113.288 21.2442 116.411 22.819 117.863 23.1769C122.22 7.28578 139.283 10.1133 147.27 13.5134C152.628 11.4009 157.375 13.4736 160.012 15.4723C163.627 14.8654 166.771 14.9795 161.43 16.7346C161.07 16.3476 160.592 15.9117 160.012 15.4723C156.992 15.9794 153.643 16.9897 154.634 17.9671C156.812 20.1146 182.668 34.451 173.41 39.8196C166.004 44.1145 155.076 40.5354 150.538 38.209C145.31 42.5039 138.194 41.0723 135.29 39.8196C134.854 42.3965 129.86 46.083 127.863 48.4094C125.866 50.7358 126.706 58.626 125.55 58.4896Z" fill="#F3E8AE"/>
<path d="M122.239 57.5371C122.123 54.952 121.707 51.1423 117.96 51.0516C114.214 50.9609 113.728 53.7274 113.843 58.0813C113.959 62.4351 118.469 66.1314 122.424 64.6347L122.239 57.5371Z" fill="#FBBEAA"/>
<path d="M116.734 60.6666C116.896 60.6389 117.041 60.5494 117.136 60.4178C117.232 60.2861 117.27 60.1229 117.243 59.9636C117.243 59.8357 117.28 59.7103 117.35 59.602C117.419 59.4937 117.519 59.4068 117.636 59.3514C117.872 59.1964 118.15 59.1136 118.434 59.1136C118.718 59.1136 118.996 59.1964 119.232 59.3514C119.335 59.407 119.45 59.4361 119.567 59.4361C119.685 59.4361 119.8 59.407 119.903 59.3514C119.997 59.2903 120.073 59.2054 120.121 59.1055C120.17 59.0057 120.191 58.8947 120.18 58.7845C119.857 55.1336 117.474 54.4533 117.382 54.4306C117.303 54.4067 117.22 54.3991 117.138 54.4081C117.056 54.4171 116.976 54.4426 116.905 54.4831C116.833 54.5235 116.771 54.578 116.721 54.6431C116.672 54.7082 116.637 54.7825 116.619 54.8615C116.576 55.0118 116.596 55.1726 116.674 55.3087C116.752 55.4447 116.882 55.5448 117.035 55.5871C117.497 55.7922 117.9 56.1069 118.207 56.5028C118.513 56.8987 118.715 57.3634 118.793 57.8547C118.159 57.7535 117.509 57.8825 116.966 58.2176C116.649 58.3997 116.393 58.668 116.229 58.9901C116.064 59.3121 115.999 59.6739 116.04 60.0317C116.037 60.12 116.052 60.2081 116.086 60.29C116.121 60.3718 116.172 60.4455 116.238 60.5058C116.304 60.5661 116.383 60.6118 116.468 60.6395C116.554 60.6673 116.645 60.6765 116.734 60.6666Z" fill="#F18380"/>
<path d="M149.021 70.78C146.788 70.6955 144.644 69.8994 142.915 68.5123" stroke="#73102A" stroke-width="0.5" stroke-miterlimit="10" stroke-linecap="round"/>
<g opacity="0.3" filter="url(#filter0_f_21_294)">
<ellipse cx="106.5" cy="14.5" rx="106.5" ry="14.5" transform="matrix(1 0 0 -1 17 520.995)" fill="#CBCBCB"/>
</g>
<path d="M161.72 426.833C161.72 426.833 160.595 474.322 160.314 481.426C160.032 488.529 155.509 490.462 148.221 491.091C140.933 491.72 137.863 485.967 136.832 481.402C135.801 476.838 129.567 430.28 129.567 430.28L161.72 426.833Z" fill="#FBBEAA"/>
<path d="M114.639 427.981C114.639 427.981 108.441 475.605 107.416 482.695C106.391 489.784 101.708 491.292 94.415 491.127C87.1224 490.962 84.7225 484.862 84.1867 480.175C83.6508 475.488 82.4858 427.981 82.4858 427.981H114.639Z" fill="#FBBEAA"/>
<path d="M95.6385 467.052C98.2854 466.864 100.91 467.643 103.014 469.241C105.117 470.839 106.554 473.145 107.05 475.72L119.232 488.055V495.732H80.1895C80.1895 495.732 82.1498 481.899 82.7098 478.786C83.2699 475.674 85.1602 467.052 95.6385 467.052Z" fill="#FBBEAA"/>
<path d="M107.2 475.948C107.65 475.335 108.291 474.864 108.742 475.146C109.192 475.429 121.172 484.855 121.742 485.327C122.092 485.654 122.357 486.061 122.514 486.512C122.672 486.964 122.716 487.447 122.643 487.919V498.029H79.041C79.041 498.029 80.749 483.088 80.8676 482.263C80.9862 481.438 81.8165 480.354 82.291 480.378C85.2837 481.289 88.3896 481.781 91.519 481.839C95.6782 482.058 99.8271 481.248 103.594 479.482C104.99 478.518 106.21 477.322 107.2 475.948Z" fill="#302D3B"/>
<path d="M115.427 489.836C113.363 488.277 105.939 482.372 103.155 480.152L103.805 479.821C103.892 479.783 103.971 479.726 104.037 479.656C107.006 482.018 113.989 487.592 115.984 489.104C117.67 490.42 118.826 492.318 119.232 494.442L118.327 494.584C117.944 492.701 116.916 491.018 115.427 489.836Z" fill="white"/>
<path d="M80.3303 487.694C83.3716 487.725 86.3146 488.782 88.6887 490.697C90.8345 492.612 92.288 495.191 92.8209 498.029H91.5531C91.0345 495.57 89.7516 493.341 87.8904 491.667C85.7054 489.904 82.9889 488.945 80.1895 488.947L80.3303 487.694Z" fill="white"/>
<path d="M130.078 496.88H79.6784C79.3264 496.88 79.041 497.199 79.041 497.593V503.057C79.041 503.451 79.3264 503.77 79.6784 503.77H130.078C130.43 503.77 130.715 503.451 130.715 503.057V497.593C130.715 497.199 130.43 496.88 130.078 496.88Z" fill="white"/>
<path d="M121.723 485.425C122.145 485.254 124.213 485.829 126.903 488.363C128.023 489.472 128.829 490.836 129.245 492.326C129.661 493.817 129.674 495.384 129.282 496.88H115.787C116.543 488.704 121.3 485.595 121.723 485.425Z" fill="white"/>
<path d="M115.973 484.952C115.836 485.152 115.77 485.408 115.791 485.666C115.811 485.923 115.916 486.16 116.083 486.326C116.164 486.406 116.258 486.467 116.36 486.503C116.461 486.54 116.567 486.553 116.672 486.541C116.778 486.529 116.88 486.492 116.974 486.433C117.067 486.373 117.15 486.293 117.217 486.195L119.046 483.555C119.184 483.355 119.249 483.099 119.228 482.841C119.208 482.584 119.103 482.347 118.937 482.181C118.856 482.098 118.762 482.035 118.661 481.996C118.559 481.958 118.452 481.944 118.346 481.957C118.24 481.969 118.137 482.007 118.044 482.068C117.95 482.129 117.868 482.212 117.802 482.312L115.973 484.952Z" fill="white"/>
<path d="M113.676 483.397C113.539 483.647 113.473 483.967 113.494 484.288C113.515 484.609 113.62 484.905 113.786 485.112C113.867 485.215 113.961 485.294 114.063 485.342C114.165 485.39 114.272 485.407 114.378 485.392C114.484 485.376 114.588 485.329 114.681 485.253C114.775 485.177 114.857 485.073 114.923 484.948L116.756 481.655C116.889 481.403 116.952 481.085 116.931 480.766C116.911 480.447 116.809 480.152 116.646 479.941C116.565 479.837 116.471 479.759 116.37 479.711C116.268 479.663 116.161 479.646 116.054 479.661C115.948 479.676 115.845 479.723 115.751 479.8C115.658 479.876 115.575 479.979 115.51 480.104L113.676 483.397Z" fill="white"/>
<path d="M110.296 480.768C110.115 480.914 110.026 481.103 110.049 481.294C110.071 481.485 110.203 481.662 110.416 481.786C110.636 481.909 110.918 481.967 111.2 481.949C111.483 481.93 111.743 481.836 111.925 481.687L114.321 479.701C114.421 479.634 114.501 479.554 114.556 479.465C114.611 479.376 114.639 479.281 114.639 479.184C114.639 479.088 114.611 478.993 114.556 478.904C114.501 478.815 114.421 478.735 114.321 478.668C114.098 478.548 113.818 478.492 113.537 478.511C113.257 478.529 112.997 478.62 112.812 478.766L110.296 480.768Z" fill="white"/>
<path d="M107.932 478.737C107.865 478.86 107.815 479.002 107.784 479.155C107.753 479.307 107.743 479.468 107.753 479.627C107.763 479.786 107.794 479.94 107.843 480.081C107.893 480.222 107.96 480.347 108.041 480.449C108.195 480.676 108.401 480.804 108.615 480.804C108.829 480.804 109.035 480.676 109.189 480.449L111.009 477.08C111.146 476.826 111.211 476.502 111.19 476.176C111.17 475.85 111.066 475.55 110.9 475.34C110.819 475.238 110.725 475.162 110.624 475.115C110.524 475.069 110.418 475.052 110.313 475.068C110.208 475.083 110.106 475.13 110.013 475.205C109.92 475.28 109.838 475.382 109.771 475.506L107.932 478.737Z" fill="white"/>
<path d="M151.915 467.052C154.563 466.864 157.189 467.643 159.294 469.241C161.399 470.839 162.837 473.145 163.333 475.72L175.499 488.055V495.732H136.457C136.457 495.732 138.395 481.899 138.978 478.786C139.562 475.674 141.43 467.052 151.915 467.052Z" fill="#FBBEAA"/>
<path d="M162.341 475.948C162.792 475.335 163.409 474.864 163.884 475.146C164.359 475.429 176.324 484.855 176.87 485.327C177.416 485.798 177.796 486.387 177.796 487.919V498.029H134.16C134.16 498.029 135.869 483.088 135.988 482.263C136.107 481.438 136.938 480.354 137.413 480.378C140.408 481.289 143.516 481.781 146.648 481.839C150.803 482.062 154.948 481.252 158.708 479.482C160.117 478.523 161.346 477.327 162.341 475.948Z" fill="#302D3B"/>
<path d="M169.398 489.836C167.334 488.277 159.91 482.372 157.126 480.152L157.753 479.821C157.848 479.783 157.934 479.727 158.008 479.656C160.977 482.018 167.96 487.592 169.955 489.104C171.642 490.42 172.797 492.318 173.203 494.442L172.298 494.584C171.904 492.705 170.879 491.026 169.398 489.836Z" fill="white"/>
<path d="M136.585 487.694C139.349 487.725 142.025 488.782 144.183 490.697C146.134 492.612 147.455 495.191 147.94 498.029H146.787C146.31 495.567 145.136 493.338 143.436 491.667C141.46 489.901 138.996 488.941 136.457 488.947L136.585 487.694Z" fill="white"/>
<path d="M184.048 496.88H133.649C133.297 496.88 133.012 497.199 133.012 497.593V503.057C133.012 503.451 133.297 503.77 133.649 503.77H184.048C184.401 503.77 184.686 503.451 184.686 503.057V497.593C184.686 497.199 184.401 496.88 184.048 496.88Z" fill="white"/>
<path d="M176.188 485.425C176.646 485.254 178.886 485.829 181.8 488.363C183.013 489.472 183.886 490.836 184.337 492.326C184.788 493.817 184.802 495.384 184.377 496.88H169.758C170.577 488.704 175.731 485.595 176.188 485.425Z" fill="white"/>
<path d="M171.154 484.952C170.971 485.152 170.884 485.408 170.911 485.666C170.939 485.923 171.079 486.16 171.301 486.326C171.41 486.406 171.536 486.467 171.671 486.503C171.806 486.54 171.948 486.553 172.089 486.541C172.23 486.529 172.367 486.492 172.491 486.433C172.616 486.373 172.727 486.293 172.817 486.195L175.261 483.555C175.438 483.353 175.522 483.098 175.494 482.842C175.467 482.586 175.331 482.35 175.114 482.181C175.007 482.098 174.881 482.035 174.745 481.996C174.61 481.958 174.467 481.944 174.325 481.957C174.183 481.969 174.046 482.007 173.921 482.068C173.796 482.129 173.686 482.212 173.599 482.312L171.154 484.952Z" fill="white"/>
<path d="M168.796 483.394C168.659 483.644 168.593 483.965 168.614 484.286C168.634 484.608 168.739 484.904 168.906 485.111C168.987 485.215 169.081 485.294 169.183 485.342C169.284 485.39 169.392 485.407 169.498 485.392C169.604 485.376 169.707 485.329 169.801 485.253C169.894 485.176 169.977 485.073 170.043 484.948L171.876 481.649C172.009 481.397 172.071 481.078 172.051 480.758C172.031 480.439 171.928 480.143 171.766 479.932C171.598 479.728 171.382 479.63 171.166 479.661C170.95 479.692 170.75 479.848 170.611 480.096L168.796 483.394Z" fill="white"/>
<path d="M165.49 480.77C165.387 480.836 165.305 480.915 165.249 481.002C165.193 481.089 165.165 481.183 165.165 481.278C165.165 481.373 165.193 481.467 165.249 481.554C165.305 481.641 165.387 481.72 165.49 481.786C165.716 481.909 166.006 481.967 166.297 481.949C166.588 481.931 166.856 481.837 167.043 481.688L169.508 479.705C169.692 479.554 169.78 479.362 169.753 479.168C169.725 478.975 169.584 478.797 169.36 478.672C169.25 478.612 169.123 478.567 168.987 478.539C168.85 478.511 168.707 478.502 168.565 478.511C168.423 478.52 168.285 478.547 168.159 478.592C168.033 478.637 167.922 478.697 167.832 478.771L165.49 480.77Z" fill="white"/>
<path d="M163.112 478.737C163.023 478.86 162.955 479.002 162.914 479.155C162.873 479.307 162.859 479.468 162.873 479.627C162.886 479.786 162.927 479.94 162.993 480.081C163.059 480.222 163.149 480.347 163.258 480.449C163.462 480.676 163.736 480.804 164.022 480.804C164.308 480.804 164.583 480.676 164.787 480.449L167.215 477.08C167.397 476.826 167.483 476.502 167.456 476.176C167.429 475.85 167.29 475.55 167.069 475.34C166.961 475.238 166.836 475.162 166.701 475.115C166.567 475.069 166.426 475.052 166.286 475.068C166.146 475.083 166.011 475.13 165.887 475.205C165.763 475.28 165.653 475.382 165.564 475.506L163.112 478.737Z" fill="white"/>
<path d="M86.1226 326.062C85.733 329.094 85.9378 332.174 86.7253 335.125C87.5129 338.076 88.8674 340.839 90.7107 343.254C92.5539 345.668 94.8492 347.687 97.4639 349.193C100.079 350.699 102.961 351.662 105.943 352.027C108.926 352.392 111.95 352.152 114.841 351.319C117.732 350.487 120.432 349.079 122.785 347.178C125.138 345.277 127.097 342.92 128.549 340.243C130.001 337.566 130.918 334.622 131.245 331.583C131.245 331.583 143.075 247.008 145.881 229.922C148.686 212.835 145.717 198.533 126.92 194.464C107.421 190.252 95.2406 204.792 93.7677 219.356C92.2948 233.919 86.1226 326.062 86.1226 326.062Z" fill="#013EA5"/>
<path d="M124.111 327.688C124.035 333.807 126.396 339.704 130.674 344.084C134.951 348.464 140.796 350.967 146.921 351.043C153.046 351.118 158.951 348.76 163.335 344.487C167.72 340.214 170.226 334.376 170.301 328.258C170.301 328.258 173.224 243.1 174.222 225.846C175.22 208.591 170.705 194.754 151.269 192.76C131.12 190.696 120.38 206.431 120.38 221.051C120.38 235.672 124.111 327.688 124.111 327.688Z" fill="#013EA5"/>
<path d="M123.825 327.875C123.863 324.849 124.51 321.859 125.728 319.077C126.946 316.296 128.712 313.776 130.925 311.662C133.138 309.549 135.754 307.883 138.625 306.759C141.496 305.635 144.564 305.076 147.655 305.113C150.747 305.151 153.8 305.784 156.641 306.977C159.483 308.169 162.056 309.898 164.215 312.065C166.374 314.231 168.076 316.793 169.224 319.603C170.371 322.414 170.942 325.418 170.904 328.444L166.061 450.386L128.063 454.393L123.825 327.875Z" fill="#013EA5"/>
<path d="M86.2032 326.412C86.9865 320.364 90.1009 314.873 94.8698 311.131C99.6387 307.389 105.677 305.698 111.673 306.426C117.669 307.154 123.138 310.242 126.893 315.019C130.648 319.796 132.385 325.876 131.727 331.939L113.966 453.244H76.7446L86.2032 326.412Z" fill="#013EA5"/>
<path d="M130.715 330.375L113.49 452.096" stroke="#013EA5" stroke-width="0.75" stroke-miterlimit="10" stroke-linecap="round"/>
<path d="M131.864 331.523C131.864 331.523 143.93 247.455 146.792 230.471" stroke="#F5F5F5" stroke-width="0.75" stroke-miterlimit="10" stroke-linecap="round"/>
<path d="M172.055 202.912C172.055 202.912 172.055 226.873 172.055 228.19C172.055 229.507 160.535 240.806 145.237 240.806C121.713 240.806 93.5591 232.187 93.9738 226.573C94.2502 222.876 94.5958 202.912 94.5958 202.912H172.055Z" fill="#013EA5"/>
<path d="M242.943 104.607L231.807 174.51C229.97 183.279 232.809 191.213 242.943 192.605C244.813 192.848 246.713 192.709 248.529 192.196C250.344 191.683 252.036 190.806 253.501 189.618C254.967 188.431 256.176 186.958 257.055 185.29C257.935 183.621 258.465 181.791 258.616 179.91L262.012 104.747C262.903 97.6479 259.813 92.9153 254.412 92.3307C247.786 91.6069 244.279 95.5322 242.943 104.607Z" fill="#FBBEAA"/>
<path d="M251.99 166.771L172.038 106.027C162.713 100.07 156.365 103.243 151.41 109.618C149.147 112.704 148.098 116.514 148.463 120.323C148.827 124.132 150.58 127.674 153.387 130.274L233.144 189.041C235.954 191.415 239.573 192.613 243.244 192.384C246.916 192.156 250.358 190.52 252.853 187.816L253.215 187.427C254.539 186.014 255.562 184.346 256.22 182.525C256.879 180.704 257.159 178.768 257.045 176.835C256.93 174.902 256.423 173.013 255.554 171.282C254.685 169.552 253.472 168.017 251.99 166.771Z" fill="#FBBEAA"/>
<path d="M243.275 102.742C243.39 100.233 242.719 97.7515 241.355 95.643C239.254 93.2079 237.681 90.3644 236.733 87.2915C236.004 84.4391 234.84 81.716 233.281 79.2183C232.168 77.6872 230.498 76.4345 230.498 75.2653C230.498 74.0961 232.725 71.8412 235.898 72.4815C237.258 72.9049 238.507 73.6236 239.556 74.5862C240.605 75.5487 241.428 76.7312 241.967 78.0492C242.271 77.2462 242.449 76.4011 242.496 75.5437L243.192 58.4788C243.202 58.0364 243.302 57.6006 243.483 57.1971C243.665 56.7937 243.926 56.4307 244.25 56.1297C244.575 55.8287 244.956 55.5957 245.372 55.4445C245.788 55.2934 246.23 55.2271 246.672 55.2495C247.375 55.2795 248.052 55.5293 248.606 55.9637C249.16 56.3981 249.565 56.9954 249.762 57.6714V56.8919C249.869 56.0624 250.286 55.304 250.929 54.7691C251.572 54.2343 252.394 53.9624 253.229 54.0082C254.064 54.054 254.851 54.4141 255.432 55.0161C256.012 55.6181 256.344 56.4176 256.359 57.2539V59.6201C256.638 58.8906 257.17 58.2855 257.858 57.9152C258.545 57.5449 259.343 57.4341 260.106 57.6028C260.868 57.7715 261.545 58.2085 262.012 58.8343C262.479 59.4601 262.706 60.233 262.651 61.0121V62.5153C262.951 61.9887 263.397 61.5609 263.936 61.284C264.475 61.0071 265.083 60.8933 265.685 60.9563C266.511 61.0611 267.262 61.4829 267.782 62.1324C268.302 62.7819 268.548 63.6081 268.469 64.4361L267.105 78.8286C266.212 86.9429 264.533 94.9514 262.094 102.742C262.065 104.043 261.763 105.323 261.21 106.5C260.656 107.677 259.862 108.726 258.878 109.578C257.895 110.43 256.745 111.067 255.501 111.448C254.256 111.829 252.946 111.945 251.655 111.789C250.486 111.828 249.322 111.615 248.243 111.165C247.163 110.715 246.193 110.038 245.398 109.18C244.604 108.321 244.003 107.302 243.636 106.192C243.27 105.081 243.147 103.904 243.275 102.742Z" fill="#FBBEAA"/>
<path d="M165.439 101.684L234.628 148.348C234.337 150.735 239.944 101.684 239.944 101.684L265.553 104.074C265.553 104.074 264.057 154.014 260.288 180.388C258.793 190.855 250.08 194.825 239.75 192.571C234.65 191.458 229.848 189.365 225.575 186.366C207.215 173.479 155.704 137.179 151.493 132.613C144.227 124.734 144.227 118.833 148.402 112.346C152.578 105.86 161.514 100.71 165.439 101.684Z" fill="#013EA5"/>
<path d="M243.832 80.4714C242.775 80.4714 242.691 79.8033 242.218 78.5784C244.584 78.5784 251.46 79.0238 254.467 84.8142C251.432 80.6385 245.614 80.4714 243.832 80.4714ZM249.233 58.4513C249.233 58.4513 249.066 59.4256 248.899 60.8454C248.899 61.5692 248.732 62.4321 248.676 63.323C248.621 64.2138 248.537 65.1881 248.454 66.1068C248.454 68.0555 248.314 69.9764 248.314 71.424C248.314 72.8716 248.314 73.8459 248.314 73.8459C248.314 73.8922 248.324 73.9381 248.342 73.9805C248.361 74.023 248.388 74.0611 248.422 74.0925C248.456 74.1239 248.496 74.148 248.54 74.163C248.584 74.1781 248.63 74.1838 248.676 74.1799C248.755 74.176 248.83 74.1467 248.89 74.0965C248.95 74.0463 248.992 73.978 249.01 73.9016C249.01 73.9016 249.177 72.9272 249.317 71.4796C249.456 70.032 249.678 68.1112 249.762 66.1903C249.762 65.216 249.762 64.2416 249.762 63.4065C249.762 62.5713 249.762 61.6527 249.762 60.9289C249.762 59.4535 249.762 58.5069 249.762 58.5069C249.762 58.4606 249.753 58.4148 249.734 58.3723C249.716 58.3299 249.689 58.2917 249.654 58.2603C249.62 58.2289 249.58 58.2049 249.536 58.1898C249.493 58.1748 249.446 58.169 249.4 58.1729C249.347 58.2036 249.303 58.2485 249.273 58.3025C249.244 58.3565 249.23 58.4176 249.233 58.4791V58.4513ZM255.692 60.4C255.692 60.4 255.525 61.2351 255.33 62.46C255.33 63.1003 255.135 63.824 255.051 64.6035C254.968 65.383 254.884 66.2182 254.801 67.0533C254.801 68.7236 254.606 70.3939 254.578 71.6466C254.55 72.8994 254.578 73.7624 254.578 73.7624C254.582 73.8063 254.594 73.8491 254.614 73.8883C254.634 73.9275 254.662 73.9624 254.695 73.9908C254.729 74.0193 254.768 74.0408 254.81 74.0542C254.852 74.0676 254.896 74.0725 254.94 74.0686C255.015 74.0634 255.086 74.0331 255.141 73.9826C255.197 73.9321 255.234 73.8643 255.246 73.7902C255.246 73.7902 255.413 72.955 255.608 71.7301C255.803 70.5053 255.97 68.8072 256.109 67.1647C256.109 66.3295 256.109 65.4944 256.276 64.7149C256.443 63.9354 256.276 63.1838 256.276 62.5435C256.276 61.2908 256.276 60.4556 256.276 60.4556C256.276 60.4093 256.267 60.3635 256.248 60.3211C256.23 60.2786 256.203 60.2404 256.169 60.209C256.135 60.1776 256.094 60.1536 256.051 60.1386C256.007 60.1235 255.96 60.1177 255.914 60.1216C255.852 60.1471 255.799 60.1892 255.76 60.2432C255.72 60.2973 255.697 60.3611 255.692 60.4278V60.4ZM261.927 63.0446C261.927 63.0446 261.76 63.7405 261.538 64.7984C261.538 65.2995 261.315 65.912 261.231 66.5801C261.148 67.2482 261.037 67.9442 260.925 68.6401C260.73 70.0599 260.647 71.4239 260.591 72.5375C260.535 73.651 260.591 74.3192 260.591 74.3192C260.591 74.3655 260.6 74.4113 260.619 74.4537C260.637 74.4962 260.665 74.5344 260.699 74.5658C260.733 74.5972 260.773 74.6212 260.817 74.6362C260.86 74.6513 260.907 74.6571 260.953 74.6532C261.024 74.6495 261.092 74.6232 261.147 74.5781C261.202 74.5331 261.242 74.4716 261.259 74.4027C261.259 74.4027 261.454 73.7067 261.649 72.6767C261.844 71.6467 262.122 70.1991 262.289 68.8071C262.289 68.0833 262.428 67.3874 262.484 66.7193C262.54 66.0511 262.484 65.4387 262.484 64.9098C262.484 63.8519 262.484 63.1281 262.484 63.1281C262.484 63.0818 262.475 63.036 262.456 62.9935C262.438 62.9511 262.411 62.9129 262.377 62.8815C262.343 62.85 262.302 62.8261 262.259 62.811C262.215 62.796 262.168 62.7902 262.122 62.794C262.071 62.8227 262.027 62.8626 261.993 62.9109C261.959 62.9591 261.937 63.0143 261.927 63.0724V63.0446Z" fill="#F18380"/>
<path d="M235.17 142.705L236.472 132.288L264.251 134.458L263.817 144.875L235.17 142.705Z" fill="#CFD1CE"/>
<path d="M154.397 95.1321C154.397 95.1321 171.206 104.838 173.829 106.536C176.452 108.235 179.416 110.855 178.881 117.94C178.347 125.025 176.088 220.399 176.088 220.399C167.461 221.859 142.198 221.859 142.198 221.859H139.902H138.179H135.883H134.16H132.438C132.438 221.859 94.985 218.676 94.232 218.239C93.479 217.802 92.7746 217.341 92.8232 216.516C92.8718 215.691 93.3576 118.741 93.6733 114.47C93.7359 112.183 94.4563 109.963 95.7484 108.074C97.0406 106.185 98.85 104.708 100.96 103.819C106.037 101.562 125.104 93.8218 125.104 93.8218L141.119 95.1321H154.397Z" fill="#034CC9"/>
<path d="M154.397 95.1321C154.397 95.1321 171.206 104.838 173.829 106.536C176.452 108.235 179.416 110.855 178.881 117.94C178.347 125.025 176.088 220.399 176.088 220.399C167.461 221.859 153.681 221.859 153.681 221.859H151.385H149.662H147.366H145.643H143.921C143.921 221.859 146.659 218.676 145.906 218.239C145.153 217.802 144.449 217.341 144.497 216.516C144.546 215.691 145.032 118.741 145.347 114.47C145.41 112.183 146.13 109.963 147.422 108.074C148.715 106.185 150.524 104.708 152.634 103.819C157.711 101.562 125.104 93.8218 125.104 93.8218L141.119 95.1321H154.397Z" fill="#0045BA"/>
<path d="M156.305 95.2719C156.305 95.2719 174.888 106.013 177.788 107.893C180.688 109.773 178.37 113.917 178.37 121.381C178.37 131.142 176.648 131.716 176.648 131.716C170.837 134.852 168.295 132.406 161.89 134.014C158.775 134.363 156.358 134.443 154.264 132.402C152.169 130.362 145.643 131.142 145.643 131.142C145.643 131.142 135.815 129.851 131.223 132.402C130.125 133.168 128.884 133.706 127.574 133.983C126.263 134.259 125.233 134.239 123.919 133.983C117.259 132.613 90.6202 124.964 89.7877 124.481C88.9552 123.997 88.1765 123.487 88.2302 122.574C88.2839 121.661 88.821 121.401 89.1701 116.674C89.2392 114.143 90.0356 111.686 91.4643 109.595C92.8929 107.505 94.8932 105.87 97.2262 104.886C102.839 102.388 123.919 93.8218 123.919 93.8218L141.624 94.396L156.305 95.2719Z" fill="#9A99A1"/>
<path d="M143.151 91.2342C135.165 91.2342 127.959 87.7618 125.355 86.0256V93.8386C125.644 94.2726 127.872 95.6616 134.47 97.745C141.068 99.8285 150.53 99.0472 154.437 97.745V89.9321C154.437 90.3661 153.134 91.2342 143.151 91.2342Z" fill="#034CC9"/>
<path d="M143.585 221.45C145.803 220.706 147.744 219.272 149.143 217.345C150.541 215.418 151.329 213.091 151.398 210.684V91.6682H143.585V221.45Z" fill="#034CC9"/>
<path d="M178.37 134.639H138.991V125.958L178.37 125.975C178.37 129.994 178.37 131.142 178.37 134.639Z" fill="#D3D4D2"/>
<path d="M107.156 125.958H146.804V134.639H106.343C106.872 130.733 107.156 128.997 107.156 125.958Z" fill="#CFD1CE"/>
<g style="mix-blend-mode:multiply" opacity="0.4">
<path d="M142.717 98.8693L143.585 99.0472V221.45H142.717V98.8693Z" fill="#013FA9"/>
</g>
<path d="M90.6857 109.649C84.609 117.462 49.4507 212.953 49.4507 212.953C82.0047 202.536 78.95 174.382 96.6552 177.361C96.6552 177.361 117.072 129.441 117.851 125.154C118.665 121.774 118.3 118.218 116.816 115.074C115.333 111.93 112.82 109.387 109.695 107.866C100.981 103.412 96.7625 101.835 90.6857 109.649Z" fill="#0045BA"/>
<path d="M108.163 154.773C113.09 149.79 122.304 139.044 125.422 136.428C128.505 134.105 131.873 132.187 135.444 130.721C138.153 129.813 140.954 129.206 143.796 128.911C145.772 128.661 146.58 129.245 146.58 130.442C146.53 131.156 146.303 131.845 145.919 132.448C145.534 133.051 145.006 133.548 144.38 133.894H148.027C149.28 133.894 150.087 134.897 149.503 136.511C148.972 137.578 148.213 138.515 147.279 139.256C146.346 139.997 145.261 140.523 144.102 140.798C144.102 140.798 149.029 141.271 150.282 141.522C151.535 141.773 151.925 142.246 151.925 143.443C151.914 144.27 151.684 145.079 151.258 145.788C150.833 146.497 150.227 147.081 149.503 147.479C147.729 148.199 145.847 148.613 143.935 148.704C143.935 148.704 150.032 150.235 151.256 150.681C152.481 151.126 152.621 151.934 151.98 152.991C151.615 153.737 151.089 154.391 150.438 154.906C149.788 155.422 149.031 155.785 148.222 155.97C145.911 156.583 144.352 155.58 143.517 155.72C141.723 156.298 139.966 156.986 138.256 157.78C135.688 160.336 132.549 162.245 129.097 163.347C126.528 164.426 124.171 165.953 122.137 167.857C121.19 168.746 120.074 169.436 118.855 169.886C117.637 170.336 116.34 170.538 115.043 170.478C113.745 170.418 112.472 170.099 111.3 169.539C110.128 168.979 109.08 168.189 108.218 167.217C103.764 162.484 104.516 158.531 108.163 154.773Z" fill="#FBBEAA"/>
<path d="M124.541 171.718L79.7264 222.112C74.356 229.27 61.8067 233.203 54.1393 226.572C52.7214 225.33 51.5706 223.813 50.7567 222.112C49.9428 220.412 49.4828 218.564 49.4045 216.68C49.3263 214.797 49.6314 212.917 50.3015 211.155C50.9716 209.393 51.9925 207.786 53.3025 206.43L107.613 149.582L124.541 171.718Z" fill="#0045BA"/>
<path d="M143.768 133.922C143.776 133.968 143.774 134.015 143.763 134.061C143.752 134.106 143.731 134.148 143.702 134.185C143.673 134.222 143.637 134.252 143.595 134.274C143.554 134.296 143.509 134.309 143.462 134.312L141.179 134.535H140.066C139.676 134.535 139.314 134.674 138.925 134.702C138.513 134.825 138.112 134.983 137.728 135.175L136.447 135.704C134.721 136.4 132.995 137.04 131.714 137.513C130.434 137.986 129.543 138.265 129.543 138.265C129.472 138.295 129.393 138.297 129.321 138.271C129.249 138.245 129.189 138.193 129.153 138.126C129.101 138.058 129.073 137.975 129.073 137.889C129.073 137.804 129.101 137.72 129.153 137.652L131.241 136.567L133.413 135.537C134.192 135.175 135.055 134.813 135.918 134.479L137.226 133.978C137.647 133.788 138.085 133.638 138.535 133.532L139.871 133.393H141.012H142.711H143.351C143.421 133.338 143.51 133.313 143.599 133.323C143.688 133.333 143.769 133.379 143.824 133.449C143.88 133.519 143.905 133.608 143.894 133.697C143.884 133.786 143.839 133.867 143.768 133.922ZM143.239 140.631H142.738C142.322 140.594 141.902 140.594 141.486 140.631L140.623 140.77C140.305 140.81 139.989 140.866 139.676 140.937L137.783 141.55C136.503 141.967 135.25 142.496 134.303 142.886C134.303 142.886 133.997 142.886 134.025 143.025H133.691L133.19 143.164H132.884H132.717C132.633 143.184 132.559 143.236 132.513 143.309C132.466 143.382 132.449 143.469 132.466 143.554C132.478 143.621 132.512 143.682 132.562 143.727C132.613 143.772 132.677 143.8 132.744 143.805H134.164H134.61C135.584 143.554 136.892 143.164 138.173 142.719L140.038 142.023L140.901 141.8L141.653 141.578C142.037 141.464 142.427 141.371 142.822 141.299L143.295 141.16C143.337 141.147 143.376 141.126 143.41 141.099C143.444 141.071 143.473 141.036 143.493 140.998C143.514 140.959 143.527 140.916 143.531 140.872C143.535 140.829 143.531 140.785 143.518 140.742C143.485 140.702 143.442 140.67 143.393 140.65C143.345 140.631 143.292 140.624 143.239 140.631ZM143.239 148.537H142.209C141.931 148.537 141.569 148.537 141.207 148.732L140.066 149.094C139.348 149.347 138.65 149.654 137.978 150.013C137.669 150.158 137.371 150.325 137.087 150.514C137.03 150.58 136.999 150.664 136.999 150.75C136.999 150.837 137.03 150.921 137.087 150.987C137.167 151.072 137.277 151.122 137.393 151.126L138.424 150.959C139.008 150.82 139.76 150.597 140.511 150.347L141.597 149.901L142.544 149.539C142.859 149.4 143.165 149.242 143.462 149.066C143.541 149.02 143.599 148.945 143.625 148.857C143.651 148.769 143.642 148.675 143.601 148.593C143.519 148.54 143.42 148.52 143.323 148.537H143.239Z" fill="#F18380"/>
<path d="M71.5869 184.74L80.702 177.361L98.9322 200.366L91.5533 209.047L71.5869 184.74Z" fill="#CFD1CE"/>
<path d="M131.401 35.3014C130.044 39.3714 127.931 43.1481 125.172 46.4326H118.42C118.42 46.4326 113.185 40.3562 112.793 39.8586C112.225 39.2533 111.794 38.5334 111.527 37.7474C111.261 36.9613 111.166 36.1273 111.249 35.3014H131.401Z" fill="#676575"/>
<path d="M125.173 46.4327C125.173 59.5282 120.846 78.1481 141.192 82.0859C141.192 82.0859 128.156 81.3977 123.157 74.9809C118.159 68.5641 118.42 46.3279 118.42 46.3279L125.173 46.4327Z" fill="#827F94"/>
<path d="M106.407 36.9778H172.465C172.968 31.006 172.4 24.9924 170.79 19.2203C168.173 11.7297 162.938 2.56282 141.032 2.56282C119.127 2.56282 111.458 12.8297 109.914 20.6084C108.37 28.3871 109.103 30.9277 108.187 31.7658C107.271 32.6039 106.407 32.6301 106.407 33.8873V36.9778Z" fill="#EFEFEF"/>
<path d="M141.032 2.56295C145.809 2.47612 150.575 3.05795 155.191 4.29156H155.4L156.212 4.55346C158.423 5.23491 160.528 6.22225 162.467 7.48686C163.783 12.9183 164.129 18.54 163.487 24.0919H156.212L146.528 22.4419C146.528 22.4419 143.466 6.72732 132.579 3.06058C135.381 2.69253 138.206 2.52623 141.032 2.56295Z" fill="#D8D8D8"/>
<path d="M139.514 0.0485535H154.301C155.871 0.0485535 163.487 5.96772 163.487 26.2396H146.659C146.659 20.268 145.612 4.63198 136.19 2.66765C136.216 2.72004 137.629 0.0485535 139.514 0.0485535Z" fill="#EFEFEF"/>
<path d="M183.012 36.9777V33.1538C183.01 32.6057 182.895 32.0639 182.674 31.5623C182.453 31.0607 182.131 30.6101 181.728 30.2389C181.325 29.8676 180.85 29.5836 180.332 29.4047C179.814 29.2257 179.265 29.1557 178.719 29.199H170.266C169.78 29.2216 169.295 29.1399 168.844 28.9591C168.392 28.7784 167.985 28.503 167.649 28.1513C167.099 27.5227 163.357 24.0132 162.912 23.4893C162.606 23.0893 162.209 22.7687 161.753 22.5545C161.298 22.3402 160.797 22.2387 160.294 22.2584H147.994C147.491 22.243 146.993 22.3464 146.538 22.5603C146.083 22.7742 145.685 23.0925 145.377 23.4893C144.932 24.0132 141.189 27.5227 140.639 28.1513C140.304 28.5044 139.897 28.7807 139.445 28.9616C138.994 29.1424 138.508 29.2234 138.022 29.199H130.982C130.436 29.1557 129.887 29.2257 129.369 29.4047C128.852 29.5836 128.376 29.8676 127.973 30.2389C127.571 30.6101 127.249 31.0607 127.028 31.5623C126.807 32.0639 126.692 32.6057 126.69 33.1538V36.9777H183.012Z" fill="#D8D8D8"/>
<defs>
<filter id="filter0_f_21_294" x="0" y="474.995" width="247" height="63" filterUnits="userSpaceOnUse" color-interpolation-filters="sRGB">
<feFlood flood-opacity="0" result="BackgroundImageFix"/>
<feBlend mode="normal" in="SourceGraphic" in2="BackgroundImageFix" result="shape"/>
<feGaussianBlur stdDeviation="8.5" result="effect1_foregroundBlur_21_294"/>
</filter>
</defs>
</svg>
