<svg width="247" height="532" viewBox="0 0 247 532" fill="none" xmlns="http://www.w3.org/2000/svg">
<g opacity="0.3" filter="url(#filter0_f_1_8)">
<ellipse cx="106.5" cy="14.5" rx="106.5" ry="14.5" transform="matrix(1 0 0 -1 17 515)" fill="#CBCBCB"/>
</g>
<path d="M114.933 45.7621V66.3442C114.933 66.3442 116.557 73.4231 127.442 73.4231C129.603 73.6054 131.752 72.9533 133.447 71.6007C135.142 70.2482 136.255 68.2978 136.558 66.1503V45.7862L114.933 45.7621Z" fill="#FBBEAA"/>
<path d="M82.5446 208.601C83.0779 201.886 90.278 176.14 98.0115 161.473C98.0115 161.473 114.882 163.604 125.747 163.64C137.082 163.676 154.691 161.473 154.691 161.473C159.734 172.891 165.479 197.837 167.152 203.219C168.162 206.386 168.285 209.768 167.507 212.999C166.729 216.231 165.08 219.187 162.74 221.547C156.994 228.068 142.182 235.535 138.764 235.535C124.057 233.434 109.643 229.643 95.8054 224.238C87.9992 220.965 82.0355 215.341 82.5446 208.601Z" fill="#013EA5"/>
<path d="M216.437 68.7679C216.537 66.5833 215.952 64.4221 214.765 62.586C212.936 60.4654 211.565 57.9891 210.74 55.3131C210.105 52.8291 209.091 50.4577 207.734 48.2826C206.764 46.9493 205.31 45.8584 205.31 44.8402C205.31 43.822 207.249 41.8583 210.013 42.4159C211.197 42.7847 212.284 43.4106 213.198 44.2488C214.112 45.087 214.829 46.1168 215.298 47.2645C215.563 46.5652 215.718 45.8293 215.758 45.0826L216.364 30.2218C216.374 29.8365 216.46 29.457 216.618 29.1057C216.777 28.7543 217.004 28.4383 217.286 28.1761C217.569 27.914 217.901 27.7111 218.263 27.5795C218.625 27.4478 219.01 27.3901 219.395 27.4096C220.008 27.4357 220.597 27.6533 221.079 28.0316C221.562 28.4099 221.914 28.93 222.086 29.5187V28.8399C222.179 28.1175 222.542 27.4571 223.102 26.9913C223.662 26.5255 224.378 26.2887 225.105 26.3286C225.832 26.3685 226.518 26.6821 227.023 27.2064C227.529 27.7306 227.818 28.4268 227.831 29.1551V31.2157C228.074 30.5804 228.537 30.0535 229.136 29.731C229.735 29.4086 230.43 29.312 231.094 29.4589C231.758 29.6058 232.347 29.9864 232.754 30.5314C233.161 31.0764 233.358 31.7495 233.31 32.4279V33.7369C233.571 33.2784 233.96 32.9058 234.429 32.6647C234.899 32.4236 235.428 32.3244 235.953 32.3793C236.671 32.4706 237.326 32.8379 237.779 33.4035C238.231 33.9691 238.446 34.6886 238.377 35.4097L237.189 47.9433C236.411 55.0095 234.95 61.9837 232.825 68.7679C232.8 69.9006 232.537 71.0154 232.055 72.0407C231.573 73.0659 230.881 73.979 230.025 74.721C229.169 75.4631 228.167 76.0177 227.083 76.3494C226 76.681 224.859 76.7824 223.734 76.6468C222.716 76.6808 221.703 76.4954 220.763 76.1033C219.823 75.7112 218.978 75.1215 218.286 74.3742C217.594 73.6269 217.071 72.7395 216.752 71.7722C216.433 70.8049 216.325 69.7803 216.437 68.7679Z" fill="#FBBEAA"/>
<path d="M134.739 464.411C134.739 462.077 135.666 459.839 137.317 458.188C138.967 456.538 141.205 455.611 143.539 455.611C145.873 455.611 148.112 456.538 149.762 458.188C151.412 459.839 152.339 462.077 152.339 464.411V483.539H134.739V464.411Z" fill="#FBBEAA"/>
<path d="M151.71 467.975C153.867 467.975 154.255 468.92 154.886 470.157C155.908 473.452 157.656 476.475 160.001 479.005C163.502 481.987 167.258 484.656 171.225 486.981V497.115H132.049C132.049 497.115 132.316 489.115 132.509 483.466C132.703 477.818 133.261 470.933 133.213 470.205C133.164 469.478 133.212 467.975 134.546 467.975H151.71Z" fill="#302D3B"/>
<path d="M136.921 484.023C136.916 485.267 137.281 486.485 137.969 487.521C138.657 488.557 139.637 489.366 140.786 489.844C141.934 490.322 143.198 490.448 144.419 490.207C145.639 489.965 146.76 489.367 147.639 488.487C148.519 487.608 149.117 486.487 149.359 485.267C149.6 484.046 149.474 482.782 148.996 481.634C148.518 480.485 147.709 479.505 146.673 478.817C145.637 478.129 144.419 477.764 143.175 477.769C141.519 477.775 139.931 478.436 138.76 479.608C137.588 480.779 136.927 482.366 136.921 484.023Z" fill="#0447BA"/>
<path d="M143.176 480.339L141.745 482.448L139.297 483.151L140.848 485.163L140.776 487.708L143.176 486.836L145.576 487.708L145.479 485.163L147.054 483.151L144.606 482.448L143.176 480.339Z" fill="white"/>
<path d="M170.958 486.812C170.958 486.812 176.51 489.745 178.594 491.175C179.56 491.829 180.344 492.717 180.874 493.755C181.403 494.794 181.662 495.95 181.625 497.115H166.4C166.4 497.115 166.715 489.672 170.958 486.812Z" fill="white"/>
<path d="M132.049 497.115V501.309C132.049 502.012 132.679 502.4 133.746 502.4H179.953C180.995 502.4 181.625 502.012 181.625 501.309V497.115H132.049Z" fill="white"/>
<path d="M166.4 483.975C166.535 483.769 166.744 483.623 166.984 483.569C167.224 483.515 167.475 483.556 167.685 483.684C167.79 483.748 167.88 483.833 167.952 483.933C168.023 484.033 168.074 484.146 168.101 484.265C168.128 484.385 168.131 484.509 168.11 484.63C168.088 484.751 168.043 484.866 167.976 484.969L166.352 487.587C166.274 487.723 166.16 487.835 166.024 487.912C165.887 487.989 165.733 488.027 165.576 488.024C165.397 488.021 165.221 487.971 165.067 487.878C164.963 487.814 164.872 487.729 164.8 487.63C164.729 487.53 164.678 487.417 164.651 487.297C164.624 487.177 164.621 487.053 164.643 486.933C164.664 486.812 164.709 486.696 164.776 486.593L166.4 483.975Z" fill="white"/>
<path d="M163.54 481.963C163.62 481.87 163.717 481.795 163.825 481.74C163.934 481.685 164.053 481.652 164.174 481.643C164.296 481.634 164.418 481.649 164.534 481.687C164.65 481.726 164.757 481.786 164.849 481.866C164.941 481.945 165.017 482.042 165.072 482.151C165.127 482.26 165.16 482.379 165.169 482.5C165.178 482.622 165.163 482.744 165.124 482.86C165.086 482.975 165.026 483.083 164.946 483.175L163.055 485.405C162.968 485.507 162.86 485.59 162.739 485.649C162.618 485.707 162.486 485.74 162.352 485.745C162.176 485.741 162.005 485.689 161.858 485.594C161.71 485.499 161.592 485.364 161.516 485.206C161.441 485.047 161.411 484.871 161.43 484.696C161.449 484.522 161.517 484.356 161.625 484.217L163.54 481.963Z" fill="white"/>
<path d="M160.849 479.709C161.042 479.584 161.274 479.534 161.501 479.568C161.728 479.602 161.935 479.717 162.083 479.892C162.231 480.067 162.311 480.29 162.307 480.519C162.303 480.749 162.216 480.969 162.061 481.139L159.904 483.006C159.735 483.149 159.52 483.226 159.298 483.224C159.164 483.229 159.032 483.203 158.91 483.148C158.788 483.093 158.68 483.011 158.595 482.909C158.505 482.825 158.434 482.723 158.385 482.611C158.336 482.498 158.311 482.377 158.311 482.254C158.311 482.131 158.336 482.01 158.385 481.897C158.434 481.785 158.505 481.683 158.595 481.6L160.849 479.709Z" fill="white"/>
<path d="M156.121 478.593L158.545 477.09C158.758 476.964 159.012 476.927 159.252 476.986C159.492 477.045 159.7 477.195 159.83 477.405C159.896 477.51 159.94 477.626 159.96 477.748C159.979 477.87 159.974 477.995 159.945 478.114C159.915 478.234 159.862 478.347 159.788 478.446C159.715 478.545 159.622 478.628 159.515 478.69L157.091 480.193C156.947 480.289 156.778 480.339 156.606 480.339C156.448 480.335 156.294 480.291 156.158 480.21C156.022 480.129 155.909 480.015 155.83 479.878C155.702 479.668 155.661 479.417 155.715 479.177C155.769 478.937 155.915 478.727 156.121 478.593Z" fill="white"/>
<path d="M154.085 475.466L156.8 474.327C157.032 474.23 157.292 474.23 157.524 474.325C157.756 474.421 157.94 474.604 158.036 474.836C158.084 474.949 158.108 475.07 158.108 475.192C158.108 475.315 158.084 475.436 158.036 475.549C157.989 475.662 157.919 475.764 157.832 475.85C157.745 475.935 157.641 476.003 157.527 476.048L154.812 477.188H154.449C154.239 477.176 154.04 477.096 153.881 476.959C153.723 476.822 153.614 476.637 153.573 476.431C153.531 476.226 153.559 476.013 153.651 475.825C153.744 475.637 153.897 475.485 154.085 475.394V475.466Z" fill="white"/>
<path d="M152.388 471.975L155.394 471.223C155.632 471.165 155.883 471.204 156.092 471.332C156.301 471.459 156.452 471.664 156.509 471.902C156.567 472.14 156.528 472.391 156.401 472.6C156.274 472.809 156.068 472.959 155.831 473.017L152.849 473.793H152.631C152.422 473.791 152.219 473.721 152.053 473.594C151.887 473.468 151.767 473.291 151.709 473.09C151.657 472.852 151.699 472.604 151.825 472.396C151.952 472.189 152.153 472.038 152.388 471.975Z" fill="white"/>
<path d="M121.866 342.082C122.133 330.348 130.036 324.676 141.745 324.967C153.454 325.257 161.891 331.391 161.624 343.1L152.339 465.357H134.739L121.866 342.082Z" fill="#FBBEAA"/>
<path d="M120.34 342.009C120.405 339.223 121.018 336.478 122.145 333.929C123.271 331.38 124.888 329.078 126.904 327.155C128.92 325.231 131.295 323.723 133.894 322.718C136.492 321.712 139.264 321.228 142.049 321.293C144.835 321.359 147.581 321.972 150.129 323.098C152.678 324.224 154.98 325.842 156.903 327.858C158.827 329.874 160.335 332.249 161.34 334.847C162.346 337.446 162.83 340.217 162.765 343.003L165.678 469.465H117.75L120.34 342.009Z" fill="#013EA5"/>
<path d="M60.5561 464.411C60.5561 462.077 61.4832 459.839 63.1336 458.188C64.7839 456.538 67.0223 455.611 69.3563 455.611C71.6902 455.611 73.9286 456.538 75.5789 458.188C77.2293 459.839 78.1564 462.077 78.1564 464.411V483.539H60.5561V464.411Z" fill="#FBBEAA"/>
<path d="M77.5018 467.975C79.6837 467.975 80.0716 468.92 80.6776 470.157C81.7116 473.452 83.4674 476.475 85.8171 479.005C89.3135 481.993 93.0699 484.662 97.0415 486.981V497.115H57.8651C57.8651 497.115 58.1318 489.115 58.3257 483.466C58.5197 477.818 59.053 470.933 59.0288 470.205C59.0046 469.478 59.0288 467.975 60.3379 467.975H77.5018Z" fill="#302D3B"/>
<path d="M62.7141 484.023C62.7093 485.266 63.0735 486.482 63.7605 487.518C64.4475 488.554 65.4264 489.363 66.5733 489.842C67.7202 490.32 68.9834 490.448 70.203 490.209C71.4226 489.969 72.5437 489.373 73.4242 488.496C74.3048 487.619 74.9052 486.5 75.1494 485.281C75.3937 484.063 75.2707 482.799 74.7962 481.65C74.3217 480.502 73.517 479.52 72.4839 478.829C71.4508 478.137 70.2359 477.769 68.993 477.769C67.3319 477.769 65.7385 478.427 64.5617 479.599C63.3849 480.771 62.7205 482.362 62.7141 484.023Z" fill="#0447BA"/>
<path d="M68.9687 480.339L67.5383 482.448L65.0898 483.151L66.6656 485.163L66.5929 487.708L68.9687 486.836L71.3687 487.708L71.296 485.163L72.8718 483.151L70.399 482.448L68.9687 480.339Z" fill="white"/>
<path d="M96.7506 486.812C96.7506 486.812 102.326 489.745 104.387 491.175C105.357 491.824 106.145 492.711 106.676 493.751C107.206 494.79 107.461 495.949 107.417 497.115H92.1202C92.1202 497.115 92.5324 489.672 96.7506 486.812Z" fill="white"/>
<path d="M57.8651 497.115V501.309C57.8651 502.012 58.4712 502.4 59.5379 502.4H105.793C106.86 502.4 107.466 502.012 107.466 501.309V497.115H57.8651Z" fill="white"/>
<path d="M92.2173 483.975C92.3491 483.766 92.5586 483.618 92.7995 483.564C93.0405 483.509 93.2932 483.552 93.5022 483.684C93.7112 483.816 93.8592 484.025 93.9138 484.266C93.9683 484.507 93.9249 484.76 93.7931 484.969L92.1689 487.587C92.0848 487.723 91.9669 487.835 91.8266 487.911C91.6863 487.988 91.5286 488.027 91.3689 488.024C91.1964 488.024 91.0277 487.974 90.884 487.878C90.7795 487.814 90.6889 487.729 90.6174 487.63C90.546 487.53 90.4953 487.417 90.4682 487.297C90.4411 487.177 90.4382 487.053 90.4596 486.933C90.4811 486.812 90.5264 486.696 90.5931 486.593L92.2173 483.975Z" fill="white"/>
<path d="M89.3321 481.963C89.492 481.777 89.7179 481.66 89.9622 481.637C90.2064 481.615 90.4499 481.688 90.6412 481.842C90.829 482.006 90.9463 482.236 90.9689 482.484C90.9914 482.732 90.9175 482.98 90.7625 483.175L88.8472 485.405C88.7632 485.511 88.6563 485.597 88.5346 485.655C88.4129 485.714 88.2794 485.745 88.1442 485.745C87.9665 485.747 87.7921 485.697 87.6419 485.602C87.4918 485.507 87.3724 485.37 87.2981 485.209C87.2238 485.047 87.1977 484.868 87.2231 484.692C87.2485 484.516 87.3242 484.351 87.4412 484.217L89.3321 481.963Z" fill="white"/>
<path d="M86.666 479.709C86.8588 479.584 87.0903 479.534 87.3172 479.568C87.5442 479.602 87.7511 479.717 87.8995 479.892C88.0478 480.067 88.1274 480.29 88.1235 480.519C88.1196 480.749 88.0324 480.969 87.8781 481.139L85.6963 483.006C85.5271 483.149 85.3119 483.226 85.0902 483.224C84.957 483.227 84.8247 483.2 84.7031 483.146C84.5815 483.091 84.4735 483.01 84.3871 482.909C84.3006 482.823 84.232 482.721 84.1851 482.609C84.1383 482.496 84.1141 482.376 84.1141 482.254C84.1141 482.132 84.1383 482.012 84.1851 481.899C84.232 481.787 84.3006 481.685 84.3871 481.6L86.666 479.709Z" fill="white"/>
<path d="M81.9384 478.593L84.3626 477.09C84.5718 477.002 84.8057 476.992 85.0216 477.062C85.2376 477.132 85.4211 477.277 85.5388 477.471C85.6564 477.665 85.7003 477.895 85.6624 478.119C85.6245 478.343 85.5073 478.546 85.3323 478.69L82.9081 480.193C82.7644 480.289 82.5956 480.339 82.4232 480.339C82.2616 480.337 82.1032 480.293 81.9632 480.213C81.8231 480.132 81.7061 480.017 81.6232 479.878C81.4972 479.665 81.4597 479.412 81.5186 479.171C81.5775 478.931 81.7282 478.724 81.9384 478.593Z" fill="white"/>
<path d="M216.147 70.3926L206.45 131.266C204.85 138.903 207.322 145.812 216.147 147.024C217.776 147.236 219.431 147.115 221.011 146.668C222.592 146.221 224.065 145.458 225.342 144.424C226.618 143.39 227.671 142.107 228.437 140.654C229.202 139.201 229.665 137.607 229.795 135.969L232.753 70.5138C233.529 64.3319 230.838 60.2106 226.135 59.7015C220.365 59.0712 217.31 62.4895 216.147 70.3926Z" fill="#FBBEAA"/>
<path d="M79.9027 475.466L82.6179 474.327C82.7307 474.28 82.8519 474.255 82.9743 474.255C83.0967 474.255 83.2179 474.28 83.3307 474.327C83.4436 474.374 83.5459 474.444 83.6316 474.531C83.7173 474.619 83.7848 474.722 83.83 474.836C83.9205 475.062 83.9207 475.313 83.8304 475.539C83.7401 475.765 83.5663 475.947 83.3452 476.048L80.6057 477.187C80.494 477.213 80.3781 477.213 80.2663 477.187C80.0796 477.187 79.8971 477.132 79.7418 477.029C79.5865 476.925 79.4654 476.778 79.3936 476.606C79.32 476.387 79.3315 476.148 79.4258 475.937C79.5201 475.725 79.6903 475.558 79.9027 475.466Z" fill="white"/>
<path d="M78.2045 471.975L81.1864 471.224C81.4274 471.165 81.6819 471.203 81.895 471.33C82.1082 471.457 82.2629 471.662 82.3258 471.902C82.3547 472.02 82.36 472.142 82.3415 472.262C82.323 472.382 82.281 472.497 82.218 472.601C82.1549 472.704 82.072 472.795 81.974 472.866C81.876 472.938 81.7649 472.989 81.6469 473.017L78.6651 473.793H78.4227C78.2043 473.777 77.9984 473.684 77.8404 473.533C77.6823 473.381 77.5818 473.179 77.556 472.962C77.5302 472.744 77.5808 472.524 77.6991 472.34C77.8174 472.156 77.996 472.018 78.2045 471.951V471.975Z" fill="white"/>
<path d="M70.1809 341.718C71.3718 336.215 74.6992 331.41 79.4316 328.36C84.164 325.309 89.9141 324.263 95.4177 325.451C106.885 327.875 113.066 339.173 110.594 350.639L78.1568 467.369H60.3383L70.1809 341.718Z" fill="#FBBEAA"/>
<path d="M70.1809 339.415C71.4966 334.044 74.8552 329.398 79.5427 326.465C84.2302 323.532 89.8768 322.543 95.2822 323.708C100.688 324.873 105.425 328.1 108.488 332.704C111.551 337.308 112.698 342.924 111.685 348.36L100.286 468.331C100.286 468.331 69.4003 470.174 51 468.331L70.1809 339.415Z" fill="#013EA5"/>
<path d="M224.026 124.527L154.4 71.6288C146.279 66.4408 140.752 69.2045 136.437 74.7561C134.466 77.4432 133.552 80.7611 133.87 84.0782C134.187 87.3953 135.713 90.4798 138.158 92.7444L207.613 143.921C210.061 145.988 213.212 147.031 216.41 146.832C219.607 146.634 222.605 145.209 224.777 142.854L225.093 142.515C226.246 141.285 227.136 139.832 227.71 138.247C228.283 136.661 228.527 134.975 228.427 133.291C228.328 131.608 227.886 129.963 227.129 128.456C226.372 126.949 225.316 125.612 224.026 124.527Z" fill="#FBBEAA"/>
<path d="M138.158 92.7202C137.515 92.1669 136.93 91.5496 136.412 90.8777C135.954 89.1523 135.895 87.3453 136.24 85.5938C136.584 83.8422 137.323 82.1921 138.4 80.7685C142.061 75.1199 149.746 70.6835 153.164 71.532L156.558 73.2532L194.983 102.345C191.582 110.337 186.988 117.767 181.358 124.381L138.158 92.7202Z" fill="#F18380"/>
<path d="M148.654 67.8468L208.907 108.484C208.653 110.562 213.536 67.8468 213.536 67.8468L235.837 69.9284C235.837 69.9284 234.535 113.418 231.253 136.386C229.95 145.501 222.363 148.957 213.367 146.995C208.926 146.026 204.744 144.203 201.023 141.591C185.034 130.368 140.176 98.7573 136.509 94.7806C130.181 87.9199 130.181 82.7804 133.818 77.1318C137.454 71.4832 145.236 66.9983 148.654 67.8468Z" fill="#013EA5"/>
<path d="M120.339 342.009L107.902 211.801C107.902 197.425 122.715 181.764 144.558 185.134C164.291 188.213 170.304 208.043 168.679 226.832C167.055 245.62 162.667 342.93 162.667 342.93C162.602 345.716 161.988 348.462 160.862 351.01C159.736 353.559 158.119 355.861 156.103 357.784C154.087 359.708 151.712 361.216 149.113 362.221C146.514 363.227 143.743 363.711 140.958 363.646C138.172 363.581 135.426 362.967 132.878 361.841C130.329 360.715 128.027 359.097 126.104 357.081C124.18 355.066 122.672 352.691 121.667 350.092C120.661 347.493 120.177 344.722 120.242 341.936L120.339 342.009Z" fill="#013EA5"/>
<path d="M70.1811 339.415L82.545 209.231C85.1632 195.098 102.739 182.564 123.564 189.982C142.352 196.698 144.534 217.304 139.394 235.462C134.255 253.62 111.685 348.361 111.685 348.361C110.369 353.731 107.011 358.377 102.323 361.31C97.6356 364.243 91.9889 365.233 86.5836 364.068C81.1782 362.903 76.4403 359.675 73.3773 355.071C70.3143 350.468 69.1676 344.851 70.1811 339.415Z" fill="#013EA5"/>
<path d="M139.394 235.462C134.279 253.62 111.685 348.361 111.685 348.361" stroke="#E9E9E9" stroke-width="0.75" stroke-miterlimit="10"/>
<path d="M135.758 65.786C135.758 65.786 146.473 67.6527 148.558 68.2103C149.788 68.499 150.925 69.0953 151.862 69.9433C152.799 70.7913 153.506 71.8633 153.915 73.0588C155.249 76.2346 162.109 97.035 162.74 99.2896C163.166 101.773 162.766 104.328 161.6 106.562C160.606 109.278 155.467 121.642 155.467 121.642L154.691 161.472L125.747 166.063L98.0114 161.472C98.0114 161.472 88.3143 87.3864 87.8294 82.8045C87.3446 78.2226 89.6234 69.374 95.1023 68.2588C100.581 67.1436 115.612 65.8345 115.612 65.8345L135.758 65.786Z" fill="#FBBEAA"/>
<path d="M156.05 145.457V159.46C137.092 161.206 106.885 159.97 95.539 159.46C95.0056 155.46 94.448 148.672 93.8662 144.163C109.309 144.551 134.814 145.99 156.05 145.457Z" fill="white"/>
<path d="M56.0712 157.909L87.1263 76.1862C91.2718 67.4588 97.4053 66.877 104.096 69.3013C107.191 70.5358 109.723 72.8671 111.207 75.8499C112.692 78.8327 113.026 82.2579 112.145 85.4713L80.1686 165.739C79.1994 168.793 77.0847 171.353 74.2685 172.88C71.4524 174.408 68.1538 174.786 65.0653 173.933L64.6047 173.812C62.9756 173.368 61.454 172.596 60.1329 171.544C58.8117 170.492 57.7185 169.183 56.9201 167.695C56.1216 166.207 55.6346 164.571 55.4887 162.889C55.3427 161.207 55.5409 159.512 56.0712 157.909Z" fill="#FBBEAA"/>
<path d="M136.048 61.2346C136.653 61.2346 137.938 61.2346 139.072 61.6126C139.072 62.5198 137.056 63.2505 136.048 63.5025C135.796 62.7466 135.443 61.2346 136.048 61.2346Z" fill="#013FA9"/>
<path d="M68.9439 124.017L87.126 76.1861C87.6137 75.1372 88.1895 74.1316 88.8473 73.18C91.0744 71.7856 93.6241 70.9904 96.2491 70.8715C98.8741 70.7525 101.485 71.3139 103.829 72.5012C106.551 73.8258 108.739 76.0403 110.031 78.7781C111.323 81.5159 111.641 84.6128 110.932 87.556C110.932 87.8469 110.763 88.4045 110.617 89.1561L91.8534 136.308C83.6574 133.353 75.9389 129.212 68.9439 124.017Z" fill="#F18380"/>
<path d="M89.5551 70.6843C84.2632 77.4883 53.6459 160.646 53.6459 160.646C81.9953 151.574 79.3351 127.057 94.7536 129.651C94.7536 129.651 112.533 87.92 113.212 84.1866C113.92 81.2434 113.602 78.1466 112.311 75.4088C111.019 72.671 108.831 70.4564 106.109 69.1318C98.5208 65.253 94.847 63.8803 89.5551 70.6843Z" fill="#0045BA"/>
<path d="M136.558 62.9017C129.721 66.1502 119.757 63.2411 114.933 54.3198V45.7621H136.558V62.9017Z" fill="#F18380"/>
<path d="M140.996 65.7705C146.599 66.836 149.131 66.9633 150.554 67.9015C152.805 69.4118 164.397 89.8764 164.397 99.1108C164.397 107.28 162.42 172.631 160.772 173.696C159.124 174.762 129.622 176.144 129.622 176.144V83.604C132.616 74.3363 138.872 71.7659 140.996 65.7705Z" fill="#0045BA"/>
<path d="M150.554 67.9015C149.131 66.9633 143.541 66.08 137.938 65.0145C135.814 71.0099 132.616 74.3363 129.622 83.604V99.1108H164.397C164.397 89.8764 152.805 69.4118 150.554 67.9015Z" fill="#9A99A1"/>
<path d="M129.244 62.7466C122.289 62.7466 116.015 59.7226 113.747 58.2107V65.0145C113.999 65.3925 115.939 66.6021 121.684 68.4164C127.43 70.2308 135.67 69.5504 139.072 68.4164V61.6126C139.072 61.9906 137.938 62.7466 129.244 62.7466Z" fill="#034CC9"/>
<path d="M164.386 100.546H129.622V92.9859L163.398 93.316C164.057 95.9152 164.471 97.7706 164.386 100.546Z" fill="#D3D4D2"/>
<path d="M85.1021 169.447C85.1021 161.879 83.9011 143.888 90.6417 126.473C96.5074 127.894 109.255 84.7417 96.5074 70.3585C92.2711 65.5788 88.5472 72.495 89.6641 70.7136C90.7811 68.9323 92.0191 67.1839 93.8431 66.3454C97.0974 64.7665 104.328 65.0312 110.846 65.0312C118.666 74.6204 126.767 76.7551 129.622 83.6198V176.11C129.622 176.11 85.1021 177.015 85.1021 169.447Z" fill="#034CC9"/>
<path d="M85.1021 169.447C85.1021 161.879 83.9011 143.888 90.6417 126.473C96.5074 127.894 109.255 84.7417 96.5074 70.3585C92.2711 65.5788 88.5472 72.495 89.6641 70.7136C90.7811 68.9323 92.0191 67.1839 93.8431 66.3454C97.0974 64.7665 104.328 65.0312 110.846 65.0312C118.666 74.6204 126.767 76.7551 129.622 83.6198V176.11C129.622 176.11 85.1021 177.015 85.1021 169.447Z" fill="#034CC9"/>
<path d="M89.5549 70.6844C88.438 72.4658 92.2708 65.5787 96.5071 70.3584C101.862 76.4004 102.718 87.519 101.475 98.2777H129.622L129.622 69.5504C122.062 68.7944 118.282 67.6605 113.746 65.0145C107.229 65.0145 96.967 64.5696 93.7127 66.1485C91.8886 66.987 90.6718 68.9031 89.5549 70.6844Z" fill="#A2A0AB"/>
<path d="M129.622 176.144C131.554 175.496 133.244 174.247 134.462 172.569C135.68 170.891 136.366 168.865 136.426 166.768V63.1245H129.622V176.144Z" fill="#034CC9"/>
<path d="M101.898 92.9859H136.426V100.546H101.19C101.651 97.1438 101.898 95.6318 101.898 92.9859Z" fill="#CFD1CE"/>
<g style="mix-blend-mode:multiply" opacity="0.4">
<path d="M128.866 69.3955L129.622 69.5504V176.144H128.866V69.3955Z" fill="#013FA9"/>
</g>
<path d="M114.666 7.72411C113.381 4.62103 106.908 3.2392 103.272 4.9362C99.6354 6.6332 95.999 11.0938 95.4656 23.2152C94.9323 35.3367 95.9262 44.5974 93.7444 50.7066C95.7612 50.4516 97.6583 49.6085 99.199 48.2823C99.199 49.8824 99.4415 53.7612 99.4415 53.7612C100.615 53.6659 101.736 53.2361 102.673 52.5228C103.61 51.8096 104.322 50.8428 104.726 49.7369C105.384 51.136 105.802 52.6358 105.963 54.1734C108.096 53.0582 114.666 51.1188 114.666 39.6277V7.72411Z" fill="#1D1B24"/>
<path d="M156.921 47.9918C156.267 39.1917 153.673 24.646 153.673 24.646L147.467 24.3066C147.467 24.3066 145.818 50.5131 145.357 56.2344C144.897 61.9557 143.248 63.5072 143.248 63.5072C143.248 63.5072 151.127 62.4163 152.364 55.0222C152.545 56.47 152.642 57.927 152.654 59.386C152.654 59.386 157.6 56.792 156.921 47.9918Z" fill="#302D3B"/>
<path d="M150.06 29.9795C150.163 34.9024 149.937 39.8266 149.382 44.7192C148.509 51.7253 146.036 59.4831 133.648 59.4831C121.26 59.4831 114.981 53.883 112.314 44.7192C110.714 39.1918 107.466 30.9977 108.799 21.543C110.132 12.0883 115.829 5.90644 129.284 5.5428C142.739 5.17916 151.466 11.1913 150.06 29.9795Z" fill="#FBBEAA"/>
<path d="M123.854 34.1733C123.936 34.5376 124.119 34.8715 124.382 35.1366C124.645 35.4017 124.977 35.5874 125.341 35.6725C125.704 35.7575 126.085 35.7384 126.438 35.6173C126.791 35.4963 127.103 35.2782 127.338 34.988C127.573 34.6979 127.722 34.3474 127.767 33.9767C127.812 33.606 127.752 33.2301 127.593 32.8921C127.434 32.5541 127.184 32.2676 126.87 32.0654C126.556 31.8633 126.191 31.7536 125.818 31.7491C125.528 31.7762 125.247 31.8608 124.991 31.998C124.735 32.1352 124.509 32.3222 124.326 32.5481C124.143 32.7739 124.007 33.034 123.926 33.3131C123.845 33.5922 123.82 33.8847 123.854 34.1733Z" fill="#403D4F"/>
<path d="M141.891 34.1733C141.973 34.5387 142.157 34.8733 142.421 35.1388C142.685 35.4043 143.018 35.5898 143.383 35.674C143.748 35.7582 144.129 35.7375 144.483 35.6145C144.837 35.4915 145.149 35.2712 145.383 34.9788C145.616 34.6864 145.763 34.3339 145.805 33.9618C145.848 33.5898 145.784 33.2133 145.622 32.8758C145.46 32.5383 145.205 32.2535 144.888 32.0542C144.571 31.8548 144.205 31.7491 143.83 31.7491C143.543 31.7792 143.265 31.866 143.011 32.0045C142.758 32.143 142.534 32.3305 142.354 32.556C142.174 32.7815 142.04 33.0406 141.96 33.3182C141.881 33.5959 141.857 33.8865 141.891 34.1733Z" fill="#403D4F"/>
<path d="M129.721 27.313L129.527 27.0948C129.324 26.921 129.104 26.7668 128.872 26.6342C128.571 26.4492 128.244 26.3103 127.902 26.2221C127.522 26.0787 127.121 25.9969 126.715 25.9797C126.328 25.9312 125.937 25.9312 125.551 25.9797C125.212 25.9502 124.871 25.9502 124.533 25.9797L123.587 26.2463C123.456 26.2987 123.347 26.3934 123.276 26.5153C123.206 26.6372 123.178 26.7793 123.197 26.9189C123.217 27.0584 123.283 27.1874 123.384 27.2852C123.485 27.383 123.617 27.444 123.757 27.4584H124.727C125.008 27.4219 125.293 27.4219 125.575 27.4584C125.89 27.4344 126.206 27.4344 126.521 27.4584C126.83 27.4989 127.138 27.5556 127.442 27.6282C127.733 27.6282 127.975 27.8221 128.218 27.8463C128.389 27.9221 128.567 27.9791 128.751 28.0161H128.945C129.1 28.0829 129.274 28.0875 129.432 28.0288C129.59 27.9701 129.72 27.8526 129.793 27.7009C129.829 27.6166 129.848 27.5259 129.848 27.4342C129.848 27.3426 129.829 27.2518 129.793 27.1675L129.721 27.313Z" fill="#403D4F"/>
<path d="M141.503 28.2337H141.672L142.036 28.0883H142.303C142.393 28.0334 142.491 27.9925 142.594 27.9671C142.8 27.8964 143.01 27.8397 143.224 27.7974C143.457 27.7632 143.694 27.7632 143.927 27.7974C144.128 27.7741 144.332 27.7741 144.533 27.7974H145.309C145.472 27.7911 145.626 27.7219 145.739 27.6043C145.852 27.4868 145.915 27.3301 145.915 27.167C145.917 27.0452 145.88 26.9258 145.811 26.8257C145.741 26.7257 145.642 26.65 145.527 26.6094L144.775 26.3428C144.51 26.2508 144.232 26.2017 143.951 26.1973C143.623 26.1373 143.286 26.1373 142.957 26.1973C142.322 26.2663 141.718 26.5096 141.212 26.9004C141.04 27.0351 140.886 27.1897 140.751 27.361C140.63 27.5065 140.63 27.5549 140.63 27.5549V27.7974C140.609 27.961 140.653 28.1263 140.753 28.2578C140.853 28.3892 141 28.4764 141.163 28.5004C141.236 28.4836 141.304 28.4509 141.363 28.4048C141.421 28.3588 141.469 28.3003 141.503 28.2337Z" fill="#403D4F"/>
<path d="M136.557 42.416C136.967 42.4194 137.373 42.337 137.748 42.1742C138.124 42.0113 138.462 41.7716 138.739 41.4705C138.841 41.3651 138.92 41.2394 138.97 41.1015C139.02 40.9636 139.041 40.8168 139.03 40.6705C139.03 40.4038 138.618 37.0583 138.473 35.8219C138.455 35.6975 138.389 35.5849 138.289 35.508C138.19 35.4311 138.064 35.3959 137.939 35.4097C137.819 35.4277 137.711 35.49 137.634 35.5842C137.558 35.6784 137.52 35.7979 137.527 35.9189C137.527 36.1128 138.06 40.5008 138.109 40.7675C137.91 40.9872 137.667 41.1615 137.395 41.2786C137.123 41.3958 136.829 41.453 136.533 41.4463C136.474 41.4462 136.415 41.4582 136.36 41.4816C136.306 41.5051 136.257 41.5393 136.216 41.5825C136.175 41.6256 136.143 41.6767 136.123 41.7324C136.102 41.7882 136.094 41.8476 136.097 41.9069C136.086 41.9721 136.089 42.0389 136.108 42.1024C136.126 42.1659 136.159 42.2244 136.203 42.2734C136.248 42.3224 136.303 42.3608 136.364 42.3855C136.425 42.4102 136.491 42.4206 136.557 42.416Z" fill="#F18380"/>
<path d="M120.629 1.54267C134.06 -2.65134 143.612 2.60939 146.642 6.58522C147.871 6.18144 148.957 5.43127 149.77 4.42491C150.583 3.41855 151.088 2.19884 151.224 0.912404C151.925 1.29713 152.485 1.89551 152.823 2.62053C153.16 3.34555 153.258 4.15937 153.101 4.9436C152.944 5.72784 152.541 6.44155 151.951 6.98096C151.36 7.52036 150.613 7.85735 149.818 7.94281C154.666 9.54284 157.503 14.4157 157.357 20.4521C157.153 22.659 156.375 24.7739 155.099 26.586C153.822 28.3981 152.094 29.8439 150.084 30.7795C148.673 26.5474 146.55 22.5874 143.806 19.0703C143.051 22.1725 141.45 25.0046 139.182 27.2515C136.913 29.4984 134.066 31.0722 130.957 31.7978C131.258 29.9301 131.737 28.0955 132.387 26.3189C129.669 28.5895 126.442 30.1697 122.981 30.9251C122.739 28.867 122.797 26.7848 123.151 24.7431C120.726 29.1068 116.654 35.7251 110.641 37.5676H106.86C104.871 33.4912 103.929 28.9837 104.12 24.4522C104.169 16.0642 107.199 5.73668 120.629 1.54267Z" fill="#302D3B"/>
<path d="M112.799 39.0465C112.606 35.7495 111.733 31.7737 107.708 32.4767C103.005 33.1797 102.545 45.9072 112.557 44.3799L112.799 39.0465Z" fill="#FBBEAA"/>
<path d="M107.321 39.8953C107.405 39.8965 107.488 39.8745 107.561 39.8318C107.633 39.789 107.693 39.7271 107.733 39.6529C107.835 39.44 107.993 39.2583 108.189 39.1263C108.385 38.9942 108.612 38.9166 108.848 38.9014C109.125 38.9042 109.397 38.9768 109.638 39.1124C109.88 39.2479 110.083 39.4422 110.23 39.6771C110.284 39.7644 110.366 39.8309 110.463 39.866C110.56 39.9012 110.665 39.9029 110.763 39.8711C110.861 39.8348 110.944 39.7681 111.001 39.6808C111.058 39.5934 111.085 39.4902 111.078 39.3862C111.042 38.362 110.724 37.3676 110.16 36.5123C109.595 35.6569 108.806 34.9737 107.878 34.5377C107.763 34.4993 107.636 34.5083 107.527 34.5628C107.418 34.6174 107.335 34.7129 107.296 34.8286C107.258 34.9443 107.267 35.0706 107.322 35.1796C107.376 35.2887 107.472 35.3717 107.587 35.4104C108.132 35.6752 108.617 36.0483 109.013 36.5067C109.409 36.9652 109.708 37.4995 109.89 38.0771C109.545 37.9331 109.174 37.8589 108.799 37.8589C108.408 37.896 108.031 38.0279 107.701 38.2433C107.372 38.4588 107.1 38.7512 106.909 39.0953C106.879 39.1493 106.861 39.2086 106.855 39.2697C106.848 39.3309 106.855 39.3926 106.873 39.4513C106.891 39.5101 106.92 39.5646 106.96 39.6117C106.999 39.6588 107.048 39.6975 107.102 39.7256L107.321 39.8953Z" fill="#F18380"/>
<path d="M107.927 47.2888C109.09 38.5371 112.436 24.1368 112.436 24.1368H118.666C118.666 24.1368 118.909 50.3918 119.078 56.1374C119.248 61.8829 120.775 63.6041 120.775 63.6041C120.775 63.6041 112.969 62.1011 112.121 54.6343C111.861 56.0769 111.69 57.5343 111.612 58.998C111.612 58.998 106.787 56.0404 107.927 47.2888Z" fill="#302D3B"/>
<path d="M118.327 119.532L79.7323 167.606C75.1504 173.909 68.3624 176.721 61.5987 171.048C60.3477 169.985 59.3257 168.679 58.5946 167.209C57.8635 165.74 57.4386 164.137 57.3456 162.498C57.2527 160.859 57.4936 159.218 58.0539 157.675C58.6141 156.132 59.4819 154.718 60.6047 153.521L107.102 107.459C111.151 102.732 116.024 101.98 119.563 105.035C123.854 108.841 123.345 113.302 118.327 119.532Z" fill="#FBBEAA"/>
<path d="M104.775 109.981C109.066 105.641 117.09 96.2834 119.805 94.0046C122.49 91.9817 125.423 90.3115 128.533 89.0347C130.892 88.2445 133.331 87.7161 135.806 87.459C137.527 87.2408 138.23 87.7499 138.23 88.7924C138.187 89.4134 137.989 90.0137 137.654 90.5387C137.32 91.0638 136.859 91.4968 136.315 91.7984H139.491C140.582 91.7984 141.285 92.6712 140.776 94.0773C140.313 95.0062 139.652 95.8222 138.839 96.4674C138.027 97.1125 137.082 97.5711 136.072 97.8107C136.072 97.8107 140.363 98.2228 141.454 98.441C142.545 98.6591 142.885 99.0713 142.885 100.114C142.875 100.834 142.675 101.539 142.305 102.156C141.934 102.774 141.406 103.282 140.776 103.629C139.231 104.256 137.592 104.616 135.927 104.696C135.927 104.696 141.236 106.029 142.303 106.417C143.37 106.805 143.491 107.508 142.933 108.429C142.615 109.078 142.157 109.648 141.59 110.096C141.024 110.545 140.365 110.862 139.66 111.023C137.648 111.556 136.291 110.684 135.563 110.805C134.001 111.308 132.471 111.907 130.981 112.599C128.745 114.825 126.011 116.487 123.006 117.447C120.768 118.386 118.716 119.716 116.945 121.375C116.12 122.149 115.148 122.75 114.087 123.142C113.026 123.534 111.896 123.709 110.766 123.657C109.636 123.605 108.528 123.327 107.507 122.839C106.486 122.351 105.574 121.664 104.823 120.817C100.945 116.696 101.599 113.253 104.775 109.981Z" fill="#FBBEAA"/>
<path d="M119.038 124.737L80.0118 168.622C75.3351 174.855 64.4066 178.281 57.7295 172.506C56.4947 171.424 55.4925 170.103 54.7838 168.622C54.075 167.141 53.6744 165.532 53.6062 163.892C53.5381 162.252 53.8039 160.615 54.3874 159.08C54.9709 157.546 55.86 156.146 57.0008 154.966L104.297 105.46L119.038 124.737Z" fill="#0045BA"/>
<path d="M135.782 91.8227C135.789 91.8627 135.787 91.9038 135.777 91.9433C135.767 91.9827 135.749 92.0196 135.724 92.0516C135.699 92.0835 135.667 92.1099 135.631 92.129C135.595 92.148 135.556 92.1592 135.515 92.162L133.527 92.356H132.558C132.218 92.356 131.903 92.4772 131.564 92.5015C131.205 92.609 130.856 92.7468 130.521 92.9135L129.406 93.3742C127.903 93.9802 126.4 94.5378 125.285 94.9499C124.17 95.3621 123.394 95.6045 123.394 95.6045C123.332 95.6305 123.263 95.6324 123.201 95.6099C123.138 95.5875 123.086 95.5423 123.054 95.4833C123.009 95.4241 122.985 95.3517 122.985 95.2772C122.985 95.2028 123.009 95.1304 123.054 95.0712L124.873 94.1257L126.764 93.2287C127.442 92.9136 128.194 92.5984 128.945 92.3075L130.085 91.8711C130.451 91.7055 130.833 91.5756 131.224 91.4832L132.388 91.362H133.382H134.861H135.418C135.479 91.3138 135.557 91.2918 135.634 91.3009C135.712 91.31 135.782 91.3494 135.831 91.4105C135.879 91.4716 135.901 91.5493 135.892 91.6266C135.883 91.7039 135.843 91.7744 135.782 91.8227ZM135.321 97.6652H134.885C134.522 97.6327 134.157 97.6327 133.794 97.6652L133.043 97.7864C132.766 97.821 132.49 97.8695 132.218 97.9318L130.57 98.4652C129.455 98.8288 128.364 99.2895 127.539 99.6289C127.539 99.6289 127.273 99.6288 127.297 99.75H127.006L126.57 99.8712H126.303H126.158C126.084 99.8886 126.021 99.9337 125.98 99.997C125.939 100.06 125.925 100.137 125.939 100.211C125.95 100.269 125.979 100.322 126.023 100.361C126.067 100.401 126.123 100.424 126.182 100.429H127.418H127.806C128.655 100.211 129.794 99.8713 130.909 99.4834L132.533 98.8773L133.285 98.6834L133.94 98.4894C134.274 98.3904 134.614 98.3094 134.958 98.247L135.37 98.1257C135.407 98.1147 135.441 98.0965 135.47 98.0722C135.5 98.0479 135.524 98.018 135.542 97.9842C135.56 97.9504 135.572 97.9134 135.575 97.8753C135.579 97.8372 135.575 97.7987 135.564 97.7621C135.535 97.7265 135.498 97.6989 135.455 97.6819C135.413 97.6649 135.367 97.6592 135.321 97.6652ZM135.321 104.55H134.424C134.182 104.55 133.867 104.55 133.552 104.72L132.558 105.035C131.932 105.255 131.324 105.523 130.74 105.835C130.471 105.961 130.211 106.107 129.964 106.271C129.914 106.329 129.887 106.402 129.887 106.477C129.887 106.553 129.914 106.626 129.964 106.684C130.033 106.757 130.129 106.801 130.23 106.805L131.127 106.659C131.637 106.538 132.291 106.344 132.946 106.126L133.891 105.738L134.715 105.423C134.99 105.301 135.257 105.164 135.515 105.011C135.584 104.97 135.635 104.905 135.657 104.829C135.68 104.752 135.672 104.67 135.637 104.599C135.565 104.553 135.478 104.535 135.394 104.55H135.321Z" fill="#F18380"/>
<path d="M216.922 49.3739C216.001 49.3739 215.928 48.7921 215.516 47.7254C217.577 47.7254 223.565 48.1132 226.183 53.1558C223.541 49.5193 218.474 49.3739 216.922 49.3739ZM221.625 30.1978C221.625 30.1978 221.48 31.0463 221.335 32.2827C221.335 32.913 221.189 33.6645 221.141 34.4403C221.092 35.2161 221.019 36.0646 220.947 36.8646C220.947 38.5616 220.825 40.2343 220.825 41.495C220.825 42.7556 220.825 43.6041 220.825 43.6041C220.825 43.6444 220.834 43.6844 220.85 43.7213C220.866 43.7583 220.889 43.7915 220.919 43.8188C220.949 43.8462 220.984 43.8671 221.022 43.8803C221.06 43.8934 221.1 43.8983 221.141 43.895C221.209 43.8915 221.274 43.866 221.327 43.8223C221.379 43.7786 221.416 43.7191 221.432 43.6526C221.432 43.6526 221.577 42.804 221.698 41.5434C221.819 40.2828 222.013 38.61 222.086 36.9373C222.086 36.0888 222.086 35.2403 222.086 34.513C222.086 33.7857 222.086 32.9857 222.086 32.3554C222.086 31.0706 222.086 30.2462 222.086 30.2462C222.086 30.2059 222.078 30.166 222.062 30.1291C222.046 30.0921 222.022 30.0588 221.992 30.0315C221.963 30.0041 221.928 29.9832 221.89 29.9701C221.852 29.957 221.811 29.952 221.771 29.9553C221.724 29.9821 221.686 30.0212 221.661 30.0682C221.635 30.1153 221.623 30.1685 221.625 30.2221V30.1978ZM227.25 31.8948C227.25 31.8948 227.104 32.6221 226.935 33.6888C226.935 34.2463 226.765 34.8766 226.692 35.5554C226.619 36.2342 226.547 36.9615 226.474 37.6888C226.474 39.1434 226.304 40.5979 226.28 41.6889C226.256 42.7798 226.28 43.5313 226.28 43.5313C226.283 43.5696 226.294 43.6068 226.311 43.641C226.329 43.6751 226.353 43.7055 226.382 43.7303C226.411 43.7551 226.445 43.7739 226.482 43.7855C226.519 43.7971 226.557 43.8014 226.595 43.7981C226.66 43.7935 226.722 43.7671 226.771 43.7231C226.819 43.6791 226.851 43.6201 226.862 43.5556C226.862 43.5556 227.007 42.8283 227.177 41.7616C227.347 40.6949 227.492 39.2161 227.613 37.7858C227.613 37.0585 227.613 36.3312 227.759 35.6524C227.904 34.9736 227.759 34.3191 227.759 33.7615C227.759 32.6706 227.759 31.9433 227.759 31.9433C227.759 31.9029 227.751 31.8631 227.735 31.8261C227.719 31.7891 227.695 31.7559 227.665 31.7285C227.636 31.7011 227.601 31.6803 227.563 31.6672C227.524 31.6541 227.484 31.649 227.444 31.6524C227.39 31.6746 227.343 31.7112 227.309 31.7583C227.275 31.8054 227.254 31.861 227.25 31.919V31.8948ZM232.68 34.1978C232.68 34.1978 232.535 34.8039 232.341 35.7251C232.341 36.1615 232.147 36.6949 232.074 37.2767C232.001 37.8586 231.904 38.4646 231.807 39.0707C231.638 40.3071 231.565 41.4949 231.517 42.4647C231.468 43.4344 231.517 44.0162 231.517 44.0162C231.516 44.0566 231.525 44.0964 231.541 44.1334C231.557 44.1704 231.581 44.2036 231.61 44.231C231.64 44.2584 231.675 44.2792 231.713 44.2923C231.751 44.3054 231.791 44.3105 231.832 44.3071C231.894 44.3039 231.953 44.281 232.001 44.2417C232.049 44.2025 232.083 44.149 232.098 44.089C232.098 44.089 232.268 43.4829 232.438 42.5859C232.607 41.6889 232.85 40.4283 232.995 39.2161C232.995 38.5858 233.117 37.9797 233.165 37.3979C233.214 36.8161 233.165 36.2828 233.165 35.8221C233.165 34.9009 233.165 34.2706 233.165 34.2706C233.165 34.2302 233.157 34.1903 233.141 34.1534C233.125 34.1164 233.101 34.0831 233.071 34.0558C233.042 34.0284 233.007 34.0076 232.969 33.9945C232.931 33.9814 232.89 33.9763 232.85 33.9797C232.805 34.0046 232.767 34.0394 232.737 34.0814C232.708 34.1234 232.688 34.1715 232.68 34.2221V34.1978Z" fill="#F18380"/>
<path d="M134.571 48.4857C132.231 48.3954 129.984 47.5443 128.171 46.0614" stroke="#73102A" stroke-width="0.5" stroke-miterlimit="10" stroke-linecap="round"/>
<path d="M57.8038 422.594L60.0718 407.853H106.187L104.675 422.972L57.8038 422.594Z" fill="#CFD1CE"/>
<path d="M118.66 422.594L119.038 407.853H164.397L164.775 422.972L118.66 422.594Z" fill="#CFD1CE"/>
<path d="M72.9235 136.077L80.8613 129.651L96.7369 149.685L90.3111 157.244L72.9235 136.077Z" fill="#CFD1CE"/>
<path d="M209.378 103.57L210.512 94.4979L234.704 96.3878L234.326 105.46L209.378 103.57Z" fill="#CFD1CE"/>
<defs>
<filter id="filter0_f_1_8" x="0" y="469" width="247" height="63" filterUnits="userSpaceOnUse" color-interpolation-filters="sRGB">
<feFlood flood-opacity="0" result="BackgroundImageFix"/>
<feBlend mode="normal" in="SourceGraphic" in2="BackgroundImageFix" result="shape"/>
<feGaussianBlur stdDeviation="8.5" result="effect1_foregroundBlur_1_8"/>
</filter>
</defs>
</svg>
