<svg width="188" height="518" viewBox="0 0 188 518" fill="none" xmlns="http://www.w3.org/2000/svg">
    <path d="M85.0479 76.2346C85.6527 76.2346 86.9378 76.2346 88.0719 76.6126C88.0719 77.5198 86.0559 78.2505 85.0479 78.5025C84.7959 77.7466 84.4431 76.2346 85.0479 76.2346Z" fill="#013FA9"/>
    <path d="M65.7961 19.6658C66.8791 15.7603 66.4809 11.5924 64.6782 7.96264C62.8754 4.33284 59.7951 1.49707 56.0289 0C54.5323 1.4966 55.2937 6.2752 55.2937 6.2752C50.0057 3.79708 44.075 3.03509 38.3323 4.09595C38.4363 7.76762 39.8201 11.2875 42.2444 14.047C39.3063 14.3432 36.4806 15.3331 34 16.9352C34.3762 18.6657 35.1579 20.2822 36.2808 21.6516C37.4037 23.021 38.8357 24.1041 40.459 24.812C38.8061 26.7471 37.6682 29.068 37.1507 31.5598C39.9711 32.3732 42.9508 32.4635 45.8152 31.8224C45.3528 33.2714 45.1658 34.7943 45.2639 36.3122C47.9839 36.7115 51.368 33.7941 54 33C56.632 32.2059 59.4547 29.8371 61.5 28C64.2126 24.4686 65.0246 24.0515 65.7961 19.6658Z" fill="#E69D7E"/>
    <path d="M51.5 31.5C51.0799 38.3003 44.8699 50.9634 45.9989 59.6017C47.5743 71.7845 62.6452 71.6532 68.4741 71.6532H77.1124V33.8445L51.5 31.5Z" fill="#E69D7E"/>
    <path d="M62.8029 57.6583V79.9497C62.8029 79.9497 64.562 87.6165 76.3247 87.6165C78.6652 87.8139 80.9924 87.1076 82.8284 85.6427C84.6644 84.1778 85.8698 82.0655 86.197 79.7397V57.6845L62.8029 57.6583Z" fill="#FBBEAA"/>
    <path d="M86.197 76.2213C78.8191 79.7397 68.0278 76.5889 62.8029 66.9267V57.6583H86.197V76.2213Z" fill="#F18380"/>
    <path d="M100.848 40.539C100.944 45.8705 100.699 51.2027 100.113 56.5027C99.1676 64.0907 96.4632 72.4927 83.0726 72.4927C69.682 72.4927 62.8292 66.4275 59.9673 56.5027C58.2344 50.5163 54.7161 41.6418 56.1602 31.4019C57.6042 21.162 63.7744 14.4667 78.3203 14.0729C92.8662 13.679 102.345 20.2168 100.848 40.539Z" fill="#FBBEAA"/>
    <path d="M72.4653 45.1078C72.5544 45.5034 72.7533 45.8659 73.0393 46.1535C73.3253 46.441 73.6867 46.6419 74.0819 46.7331C74.477 46.8242 74.8899 46.8019 75.273 46.6687C75.656 46.5355 75.9937 46.2968 76.247 45.9801C76.5004 45.6635 76.6591 45.2817 76.705 44.8787C76.7509 44.4758 76.682 44.0681 76.5063 43.7025C76.3306 43.337 76.0553 43.0285 75.712 42.8126C75.3687 42.5967 74.9714 42.4822 74.5658 42.4822C74.2547 42.5148 73.9532 42.6089 73.6788 42.7589C73.4043 42.9089 73.1624 43.1119 72.967 43.3562C72.7716 43.6004 72.6267 43.881 72.5406 44.1817C72.4544 44.4824 72.4289 44.7971 72.4653 45.1078Z" fill="#403D4F"/>
    <path d="M91.9734 45.1078C92.0624 45.5034 92.2614 45.8659 92.5474 46.1535C92.8334 46.441 93.1948 46.6419 93.59 46.7331C93.9851 46.8242 94.398 46.8019 94.781 46.6687C95.1641 46.5355 95.5018 46.2968 95.7551 45.9801C96.0085 45.6635 96.1672 45.2817 96.2131 44.8787C96.259 44.4758 96.1901 44.0681 96.0144 43.7025C95.8387 43.337 95.5634 43.0285 95.2201 42.8126C94.8768 42.5967 94.4794 42.4822 94.0739 42.4822C93.7628 42.5148 93.4613 42.6089 93.1869 42.7589C92.9124 42.9089 92.6705 43.1119 92.4751 43.3562C92.2797 43.6004 92.1347 43.881 92.0486 44.1817C91.9625 44.4824 91.9369 44.7971 91.9734 45.1078Z" fill="#403D4F"/>
    <path d="M78.8194 37.6774C78.8194 37.6774 78.8194 37.6774 78.5831 37.4411C78.3729 37.2523 78.1441 37.0852 77.9004 36.9423C77.5745 36.7419 77.2205 36.5915 76.8501 36.4959C76.4372 36.3431 76.0034 36.2546 75.5636 36.2334C75.1364 36.1806 74.7043 36.1806 74.277 36.2334C73.915 36.2447 73.5547 36.2887 73.2005 36.3646L72.1766 36.6534C72.0075 36.7079 71.8663 36.8261 71.7829 36.983C71.6996 37.1399 71.6807 37.323 71.7302 37.4936C71.77 37.63 71.8529 37.7498 71.9665 37.835C72.0801 37.9202 72.2183 37.9663 72.3604 37.9663H73.3843C73.6894 37.927 73.9982 37.927 74.3033 37.9663C74.6529 37.9402 75.004 37.9402 75.3535 37.9663C75.6949 37.9663 76.0362 37.9663 76.3513 38.15C76.6663 38.3338 76.9289 38.3601 77.1915 38.3864L77.7428 38.5701H77.9792C78.143 38.6414 78.3283 38.6456 78.4952 38.5818C78.6621 38.5179 78.7973 38.3912 78.8719 38.2288C78.9179 38.1395 78.9419 38.0405 78.9419 37.94C78.9419 37.8395 78.9179 37.7405 78.8719 37.6512L78.8194 37.6774Z" fill="#403D4F"/>
    <path d="M91.5796 38.6751H91.7372L92.1573 38.5175H92.4461H92.7349C92.9669 38.4409 93.2038 38.3795 93.4438 38.3338C93.6873 38.295 93.9355 38.295 94.179 38.3338C94.4049 38.2945 94.6358 38.2945 94.8616 38.3338H95.7018C95.8783 38.327 96.0453 38.2521 96.1677 38.1248C96.2901 37.9975 96.3583 37.8277 96.3582 37.6511C96.3532 37.5208 96.3109 37.3947 96.2365 37.2877C96.1621 37.1807 96.0585 37.0973 95.9381 37.0472L95.1242 36.7584C94.8272 36.6613 94.5176 36.6083 94.2052 36.6009C93.8571 36.5487 93.5031 36.5487 93.155 36.6009C92.4653 36.67 91.8096 36.9341 91.2646 37.3623C91.0667 37.4937 90.8971 37.6633 90.7657 37.8611C90.6344 38.0187 90.6344 38.0712 90.6082 38.0712V38.3338C90.5937 38.4574 90.6133 38.5827 90.6648 38.696C90.7164 38.8093 90.7979 38.9064 90.9007 38.9767C91.0034 39.047 91.1234 39.0878 91.2477 39.0948C91.372 39.1018 91.4959 39.0747 91.6059 39.0164L91.5796 38.6751Z" fill="#403D4F"/>
    <path d="M86.1972 54.0349C86.6379 54.0451 87.0754 53.9587 87.4791 53.7818C87.8828 53.6049 88.2429 53.3417 88.534 53.0109C88.6479 52.898 88.7371 52.7627 88.7959 52.6136C88.8546 52.4644 88.8817 52.3046 88.8754 52.1444C88.8754 51.8556 88.4027 48.2323 88.2452 46.8932C88.2452 46.7609 88.1926 46.634 88.0991 46.5404C88.0055 46.4469 87.8786 46.3943 87.7463 46.3943C87.614 46.3943 87.4872 46.4469 87.3936 46.5404C87.3001 46.634 87.2475 46.7609 87.2475 46.8932C87.2475 47.1032 87.7989 51.8556 87.8776 52.1444C87.6595 52.3784 87.3952 52.5646 87.1015 52.6911C86.8077 52.8177 86.4909 52.8818 86.171 52.8796C86.0387 52.8796 85.9118 52.9321 85.8182 53.0257C85.7247 53.1192 85.6721 53.2461 85.6721 53.3784C85.6721 53.5108 85.7247 53.6376 85.8182 53.7312C85.9118 53.8248 86.0387 53.8773 86.171 53.8773L86.1972 54.0349Z" fill="#F18380"/>
    <path d="M88.6654 59.2073C89.6631 59.4699 90.0044 60.9402 89.4268 62.6469C88.8228 63.8209 87.8431 64.7588 86.6438 65.3108C85.4445 65.8628 84.0949 65.9973 82.8103 65.6926C82.1133 65.656 81.4305 65.4808 80.802 65.1772C80.1735 64.8737 79.6118 64.4479 79.1498 63.9247C78.6877 63.4016 78.3346 62.7916 78.1111 62.1303C77.8875 61.4691 77.798 60.77 77.8479 60.0738C77.8479 58.9448 78.6093 58.2621 80.0796 58.2621C82.9629 58.3376 85.8348 58.6538 88.6654 59.2073Z" fill="#73102A"/>
    <path d="M77.795 60.0737C77.795 60.0737 77.795 59.9161 77.795 59.8111C79.7206 59.3596 81.7456 59.6491 83.4676 60.622C85.1896 61.5949 86.4826 63.18 87.0896 65.0623C85.7307 65.728 84.2019 65.966 82.7049 65.745C82.0076 65.7019 81.326 65.5202 80.6998 65.2104C80.0737 64.9006 79.5157 64.469 79.0585 63.9408C78.6012 63.4127 78.2539 62.7986 78.037 62.1346C77.82 61.4706 77.7378 60.7699 77.795 60.0737Z" fill="#D65155"/>
    <path d="M87.7725 60.8092C84.4556 60.8364 81.1565 60.322 78.0052 59.2863C78.1986 58.9308 78.4956 58.6424 78.8566 58.4595C79.2177 58.2766 79.6259 58.2078 80.027 58.2623C82.9102 58.3379 85.7821 58.654 88.6127 59.2076C88.8872 59.2999 89.1284 59.4713 89.3059 59.7001C89.4834 59.929 89.5893 60.2052 89.6104 60.4941C89.0215 60.708 88.3991 60.8147 87.7725 60.8092Z" fill="white"/>
    <path d="M74.8806 28.1464C74.8806 28.1464 70.2333 44.2151 59.127 48.4423C57.8375 48.4583 56.563 48.1637 55.4114 47.5833C54.2597 47.0029 53.2647 46.1538 52.5105 45.1078C49.5605 38.9034 52.5829 31.7223 54 25C55.8642 16.8081 61.8576 6.43258 79.8168 8.90065C89.4003 7.06272 93.7063 10.3115 100.848 20C107.99 29.6885 106.598 41.537 100.848 43.7687C95.1923 40.3636 89.7714 36.583 84.6217 32.4524C85.4094 34.9204 86.2495 40.1454 85.4093 40.1454C80.5558 37.5611 76.8122 33.2946 74.8806 28.1464Z" fill="#E69D7E"/>
    <path d="M60.4922 50.3854C60.2822 46.8145 59.3107 42.5085 54.9784 43.27C49.7272 44.0314 49.3596 57.8158 60.2297 56.1617L60.4922 50.3854Z" fill="#FBBEAA"/>
    <path d="M54.5321 51.3046C54.6223 51.3007 54.7102 51.2747 54.788 51.2289C54.8658 51.1832 54.9312 51.119 54.9784 51.042C55.0873 50.8098 55.2571 50.6114 55.4698 50.4681C55.6825 50.3248 55.9301 50.2418 56.1862 50.2281C56.4862 50.2311 56.7805 50.3097 57.0421 50.4565C57.3037 50.6034 57.524 50.8138 57.6828 51.0683C57.7418 51.1627 57.8308 51.2347 57.9354 51.2728C58.0401 51.3109 58.1545 51.3128 58.2604 51.2783C58.3613 51.2347 58.4459 51.1606 58.5024 51.0664C58.559 50.9722 58.5845 50.8627 58.5755 50.7532C58.5416 49.646 58.2024 48.5697 57.5954 47.6431C56.9885 46.7164 56.1374 45.9755 55.136 45.502C55.0729 45.4772 55.0055 45.4655 54.9378 45.4677C54.8702 45.4698 54.8036 45.4857 54.7423 45.5143C54.6809 45.543 54.626 45.5839 54.581 45.6345C54.536 45.6851 54.5017 45.7443 54.4803 45.8085C54.4588 45.8728 54.4507 45.9407 54.4564 46.0082C54.4621 46.0757 54.4815 46.1413 54.5134 46.201C54.5452 46.2608 54.5889 46.3134 54.6418 46.3558C54.6947 46.3981 54.7556 46.4292 54.8209 46.4472C55.407 46.7355 55.9282 47.1404 56.3525 47.637C56.7769 48.1336 57.0955 48.7115 57.289 49.3354C56.9238 49.1794 56.5308 49.099 56.1337 49.0991C55.7093 49.1392 55.301 49.2821 54.9442 49.5154C54.5874 49.7487 54.2927 50.0654 54.0857 50.4381C54.0528 50.495 54.0315 50.5578 54.0229 50.6229C54.0144 50.688 54.0188 50.7542 54.0358 50.8176C54.0529 50.881 54.0823 50.9405 54.1224 50.9925C54.1625 51.0445 54.2125 51.0881 54.2695 51.1208C54.3344 51.2092 54.4267 51.2738 54.5321 51.3046Z" fill="#F18380"/>
    <path d="M31.5446 223.601C32.0779 216.886 39.278 191.14 47.0115 176.473C47.0115 176.473 63.8824 178.604 74.7466 178.639C86.0817 178.676 103.691 176.473 103.691 176.473C108.734 187.891 114.479 212.837 116.152 218.219C117.162 221.386 117.285 224.768 116.507 227.999C115.729 231.231 114.08 234.187 111.74 236.547C105.994 243.068 91.182 250.535 87.7638 250.535C73.0574 248.434 58.6426 244.643 44.8054 239.238C36.9992 235.965 31.0355 230.341 31.5446 223.601Z" fill="#013EA5"/>
    <path d="M165.437 83.7679C165.537 81.5833 164.952 79.4221 163.765 77.586C161.936 75.4654 160.565 72.9891 159.74 70.3131C159.105 67.8291 158.091 65.4577 156.734 63.2826C155.764 61.9493 154.31 60.8584 154.31 59.8402C154.31 58.822 156.249 56.8583 159.013 57.4159C160.197 57.7847 161.284 58.4106 162.198 59.2488C163.112 60.087 163.829 61.1168 164.298 62.2645C164.563 61.5652 164.718 60.8293 164.758 60.0826L165.365 45.2218C165.374 44.8365 165.46 44.457 165.618 44.1057C165.777 43.7543 166.004 43.4383 166.286 43.1761C166.569 42.914 166.901 42.7111 167.263 42.5795C167.625 42.4478 168.01 42.3901 168.395 42.4096C169.008 42.4357 169.597 42.6533 170.079 43.0316C170.562 43.4099 170.914 43.93 171.086 44.5187V43.8399C171.179 43.1175 171.542 42.4571 172.102 41.9913C172.662 41.5255 173.378 41.2887 174.105 41.3286C174.832 41.3685 175.518 41.6821 176.023 42.2064C176.529 42.7306 176.818 43.4268 176.831 44.1551V46.2157C177.074 45.5804 177.537 45.0535 178.136 44.731C178.735 44.4086 179.43 44.312 180.094 44.4589C180.758 44.6058 181.347 44.9864 181.754 45.5314C182.161 46.0764 182.358 46.7495 182.31 47.4279V48.7369C182.571 48.2784 182.96 47.9058 183.429 47.6647C183.899 47.4236 184.428 47.3244 184.953 47.3793C185.671 47.4706 186.326 47.8379 186.779 48.4035C187.231 48.9691 187.446 49.6886 187.377 50.4097L186.189 62.9433C185.411 70.0095 183.95 76.9837 181.825 83.7679C181.8 84.9006 181.537 86.0154 181.055 87.0407C180.573 88.0659 179.881 88.979 179.025 89.721C178.169 90.4631 177.167 91.0177 176.083 91.3494C175 91.681 173.859 91.7824 172.734 91.6468C171.716 91.6808 170.703 91.4954 169.763 91.1033C168.823 90.7112 167.978 90.1215 167.286 89.3742C166.594 88.6269 166.071 87.7395 165.752 86.7722C165.433 85.8049 165.326 84.7803 165.437 83.7679Z" fill="#FBBEAA"/>
    <path d="M83.7391 479.411C83.7391 477.077 84.6663 474.839 86.3166 473.188C87.967 471.538 90.2054 470.611 92.5393 470.611C94.8732 470.611 97.1116 471.538 98.762 473.188C100.412 474.839 101.339 477.077 101.339 479.411V498.539H83.7391V479.411Z" fill="#FBBEAA"/>
    <path d="M100.71 482.975C102.867 482.975 103.255 483.92 103.886 485.157C104.908 488.452 106.656 491.475 109.001 494.005C112.502 496.987 116.258 499.656 120.225 501.981V512.115H81.0488C81.0488 512.115 81.3155 504.115 81.5094 498.466C81.7034 492.818 82.261 485.933 82.2125 485.205C82.164 484.478 82.2125 482.975 83.5458 482.975H100.71Z" fill="#302D3B"/>
    <path d="M85.9207 499.023C85.9159 500.267 86.2807 501.485 86.9688 502.521C87.6569 503.557 88.6373 504.366 89.7856 504.844C90.9339 505.322 92.1984 505.448 93.4186 505.207C94.6389 504.965 95.7598 504.367 96.6394 503.487C97.519 502.608 98.1175 501.487 98.359 500.267C98.6005 499.046 98.4741 497.782 97.9959 496.634C97.5176 495.485 96.7091 494.505 95.6728 493.817C94.6365 493.129 93.4193 492.764 92.1754 492.769C90.5185 492.775 88.9313 493.436 87.7597 494.608C86.5881 495.779 85.9271 497.366 85.9207 499.023Z" fill="#0447BA"/>
    <path d="M92.1756 495.339L90.7453 497.448L88.2968 498.151L89.8483 500.163L89.7756 502.708L92.1756 501.836L94.5757 502.708L94.4787 500.163L96.0545 498.151L93.6059 497.448L92.1756 495.339Z" fill="white"/>
    <path d="M119.958 501.812C119.958 501.812 125.51 504.745 127.594 506.175C128.56 506.829 129.344 507.717 129.874 508.755C130.403 509.794 130.662 510.95 130.625 512.115H115.4C115.4 512.115 115.715 504.672 119.958 501.812Z" fill="white"/>
    <path d="M81.0488 512.115V516.309C81.0488 517.012 81.6792 517.4 82.7459 517.4H128.953C129.995 517.4 130.625 517.012 130.625 516.309V512.115H81.0488Z" fill="white"/>
    <path d="M115.4 498.975C115.535 498.769 115.744 498.623 115.984 498.569C116.224 498.515 116.475 498.556 116.685 498.684C116.79 498.748 116.88 498.833 116.952 498.933C117.023 499.033 117.074 499.146 117.101 499.265C117.128 499.385 117.131 499.509 117.11 499.63C117.088 499.751 117.043 499.866 116.976 499.969L115.352 502.587C115.274 502.723 115.16 502.835 115.024 502.912C114.887 502.989 114.733 503.027 114.576 503.024C114.397 503.021 114.221 502.971 114.067 502.878C113.962 502.814 113.872 502.729 113.8 502.63C113.729 502.53 113.678 502.417 113.651 502.297C113.624 502.177 113.621 502.053 113.643 501.933C113.664 501.812 113.709 501.696 113.776 501.593L115.4 498.975Z" fill="white"/>
    <path d="M112.54 496.963C112.619 496.87 112.716 496.795 112.825 496.74C112.934 496.685 113.053 496.652 113.174 496.643C113.296 496.634 113.418 496.649 113.534 496.687C113.65 496.726 113.757 496.786 113.849 496.866C113.941 496.945 114.017 497.042 114.072 497.151C114.127 497.26 114.16 497.379 114.169 497.5C114.178 497.622 114.163 497.744 114.124 497.86C114.086 497.975 114.026 498.083 113.946 498.175L112.055 500.405C111.968 500.507 111.86 500.59 111.739 500.649C111.618 500.707 111.486 500.74 111.352 500.745C111.176 500.741 111.005 500.689 110.858 500.594C110.71 500.499 110.592 500.364 110.516 500.206C110.441 500.047 110.411 499.871 110.43 499.696C110.449 499.522 110.517 499.356 110.625 499.217L112.54 496.963Z" fill="white"/>
    <path d="M109.849 494.709C110.042 494.584 110.274 494.534 110.501 494.568C110.728 494.602 110.935 494.717 111.083 494.892C111.231 495.067 111.311 495.29 111.307 495.519C111.303 495.749 111.216 495.969 111.062 496.139L108.904 498.006C108.735 498.149 108.52 498.226 108.298 498.224C108.164 498.229 108.032 498.203 107.91 498.148C107.788 498.093 107.68 498.011 107.595 497.909C107.505 497.825 107.434 497.723 107.385 497.611C107.336 497.498 107.311 497.377 107.311 497.254C107.311 497.131 107.336 497.01 107.385 496.897C107.434 496.785 107.505 496.683 107.595 496.6L109.849 494.709Z" fill="white"/>
    <path d="M105.121 493.593L107.545 492.09C107.758 491.964 108.012 491.927 108.252 491.986C108.492 492.045 108.7 492.195 108.83 492.405C108.896 492.51 108.94 492.626 108.96 492.748C108.979 492.87 108.974 492.995 108.945 493.114C108.915 493.234 108.862 493.347 108.788 493.446C108.715 493.545 108.622 493.628 108.515 493.69L106.091 495.193C105.947 495.289 105.778 495.339 105.606 495.339C105.448 495.335 105.294 495.291 105.158 495.21C105.022 495.129 104.909 495.015 104.83 494.878C104.702 494.668 104.661 494.417 104.715 494.177C104.769 493.937 104.915 493.727 105.121 493.593Z" fill="white"/>
    <path d="M103.085 490.466L105.8 489.327C106.032 489.23 106.292 489.23 106.524 489.325C106.756 489.421 106.94 489.605 107.036 489.836C107.084 489.949 107.108 490.07 107.108 490.192C107.108 490.315 107.084 490.436 107.036 490.549C106.989 490.662 106.919 490.764 106.832 490.85C106.745 490.935 106.641 491.003 106.527 491.048L103.812 492.188H103.449C103.239 492.176 103.04 492.096 102.881 491.959C102.723 491.822 102.614 491.637 102.573 491.431C102.531 491.226 102.559 491.013 102.651 490.825C102.744 490.637 102.897 490.485 103.085 490.394V490.466Z" fill="white"/>
    <path d="M101.388 486.975L104.394 486.223C104.632 486.165 104.883 486.204 105.092 486.332C105.302 486.459 105.452 486.664 105.509 486.902C105.567 487.14 105.528 487.391 105.401 487.6C105.274 487.809 105.069 487.959 104.831 488.017L101.849 488.793H101.631C101.422 488.791 101.219 488.721 101.053 488.594C100.887 488.468 100.767 488.291 100.709 488.09C100.657 487.852 100.699 487.604 100.825 487.396C100.952 487.189 101.153 487.038 101.388 486.975Z" fill="white"/>
    <path d="M70.866 357.082C71.1326 345.348 79.0358 339.676 90.745 339.967C102.454 340.257 110.891 346.391 110.624 358.1L101.339 480.357H83.7389L70.866 357.082Z" fill="#FBBEAA"/>
    <path d="M69.3398 357.009C69.4051 354.223 70.0184 351.478 71.1447 348.929C72.2711 346.38 73.8884 344.078 75.9043 342.155C77.9202 340.231 80.2952 338.723 82.8938 337.718C85.4924 336.712 88.2636 336.228 91.0493 336.293C93.8349 336.359 96.5805 336.972 99.1291 338.098C101.678 339.224 103.98 340.842 105.903 342.858C107.827 344.874 109.335 347.249 110.34 349.847C111.346 352.446 111.83 355.217 111.765 358.003L114.678 484.465H66.7501L69.3398 357.009Z" fill="#013EA5"/>
    <path d="M9.55615 479.411C9.55615 477.077 10.4833 474.839 12.1337 473.188C13.784 471.538 16.0224 470.611 18.3563 470.611C20.6903 470.611 22.9286 471.538 24.579 473.188C26.2293 474.839 27.1565 477.077 27.1565 479.411V498.539H9.55615V479.411Z" fill="#FBBEAA"/>
    <path d="M26.5018 482.975C28.6837 482.975 29.0716 483.92 29.6776 485.157C30.7116 488.452 32.4674 491.475 34.8171 494.005C38.3135 496.993 42.0699 499.662 46.0415 501.981V512.115H6.86511C6.86511 512.115 7.13179 504.115 7.32573 498.466C7.51967 492.818 8.05304 485.933 8.0288 485.205C8.00455 484.478 8.02878 482.975 9.33789 482.975H26.5018Z" fill="#302D3B"/>
    <path d="M11.7142 499.023C11.7094 500.266 12.0735 501.482 12.7605 502.518C13.4476 503.554 14.4265 504.363 15.5734 504.842C16.7203 505.32 17.9835 505.448 19.2031 505.209C20.4227 504.969 21.5437 504.373 22.4243 503.496C23.3048 502.619 23.9052 501.5 24.1495 500.281C24.3937 499.063 24.2708 497.799 23.7963 496.65C23.3218 495.502 22.517 494.52 21.4839 493.829C20.4509 493.137 19.236 492.769 17.9931 492.769C16.332 492.769 14.7386 493.427 13.5618 494.599C12.385 495.771 11.7206 497.362 11.7142 499.023Z" fill="#0447BA"/>
    <path d="M17.9687 495.339L16.5384 497.448L14.0898 498.151L15.6657 500.163L15.5929 502.708L17.9687 501.836L20.3688 502.708L20.296 500.163L21.8718 498.151L19.399 497.448L17.9687 495.339Z" fill="white"/>
    <path d="M45.7506 501.812C45.7506 501.812 51.3265 504.745 53.3871 506.175C54.3572 506.824 55.1451 507.711 55.6755 508.751C56.206 509.79 56.4614 510.949 56.4175 512.115H41.1202C41.1202 512.115 41.5324 504.672 45.7506 501.812Z" fill="white"/>
    <path d="M6.86511 512.115V516.309C6.86511 517.012 7.47119 517.4 8.53787 517.4H54.7932C55.8599 517.4 56.466 517.012 56.466 516.309V512.115H6.86511Z" fill="white"/>
    <path d="M41.2173 498.975C41.3491 498.766 41.5586 498.618 41.7995 498.564C42.0405 498.509 42.2932 498.552 42.5022 498.684C42.7112 498.816 42.8592 499.025 42.9138 499.266C42.9683 499.507 42.9249 499.76 42.7931 499.969L41.1689 502.587C41.0848 502.723 40.9669 502.835 40.8266 502.911C40.6863 502.988 40.5286 503.027 40.3689 503.024C40.1964 503.024 40.0277 502.974 39.884 502.878C39.7795 502.814 39.6889 502.729 39.6174 502.63C39.546 502.53 39.4953 502.417 39.4682 502.297C39.4411 502.177 39.4382 502.053 39.4596 501.933C39.4811 501.812 39.5264 501.696 39.5931 501.593L41.2173 498.975Z" fill="white"/>
    <path d="M38.3322 496.963C38.492 496.777 38.718 496.66 38.9622 496.637C39.2065 496.615 39.45 496.688 39.6413 496.842C39.829 497.006 39.9464 497.236 39.9689 497.484C39.9915 497.732 39.9176 497.98 39.7625 498.175L37.8473 500.405C37.7633 500.511 37.6564 500.597 37.5347 500.655C37.4129 500.714 37.2795 500.745 37.1443 500.745C36.9666 500.747 36.7921 500.697 36.642 500.602C36.4919 500.507 36.3725 500.37 36.2982 500.209C36.2239 500.047 36.1978 499.868 36.2232 499.692C36.2486 499.516 36.3243 499.351 36.4412 499.217L38.3322 496.963Z" fill="white"/>
    <path d="M35.666 494.709C35.8588 494.584 36.0903 494.534 36.3172 494.568C36.5442 494.602 36.7511 494.717 36.8995 494.892C37.0478 495.067 37.1274 495.29 37.1235 495.519C37.1196 495.749 37.0324 495.969 36.8781 496.139L34.6963 498.006C34.5271 498.149 34.3119 498.226 34.0902 498.224C33.957 498.227 33.8247 498.2 33.7031 498.146C33.5815 498.091 33.4735 498.01 33.3871 497.909C33.3006 497.823 33.232 497.721 33.1851 497.609C33.1383 497.496 33.1141 497.376 33.1141 497.254C33.1141 497.132 33.1383 497.012 33.1851 496.899C33.232 496.787 33.3006 496.685 33.3871 496.6L35.666 494.709Z" fill="white"/>
    <path d="M30.9384 493.593L33.3627 492.09C33.5718 492.002 33.8057 491.992 34.0217 492.062C34.2376 492.132 34.4212 492.277 34.5389 492.471C34.6565 492.665 34.7004 492.895 34.6625 493.119C34.6246 493.343 34.5074 493.546 34.3324 493.69L31.9081 495.193C31.7644 495.289 31.5957 495.339 31.4233 495.339C31.2617 495.337 31.1033 495.293 30.9632 495.213C30.8232 495.132 30.7061 495.017 30.6233 494.878C30.4973 494.665 30.4598 494.412 30.5187 494.171C30.5776 493.931 30.7283 493.724 30.9384 493.593Z" fill="white"/>
    <path d="M165.147 85.3926L155.45 146.266C153.85 153.903 156.322 160.812 165.147 162.024C166.776 162.236 168.431 162.115 170.011 161.668C171.592 161.221 173.065 160.458 174.342 159.424C175.618 158.39 176.671 157.107 177.437 155.654C178.202 154.201 178.665 152.607 178.795 150.969L181.753 85.5138C182.529 79.3319 179.838 75.2106 175.135 74.7015C169.365 74.0712 166.31 77.4895 165.147 85.3926Z" fill="#FBBEAA"/>
    <path d="M28.9027 490.466L31.6179 489.327C31.7308 489.28 31.852 489.255 31.9744 489.255C32.0968 489.255 32.2179 489.28 32.3308 489.327C32.4436 489.374 32.5459 489.444 32.6316 489.531C32.7174 489.619 32.7848 489.722 32.8301 489.836C32.9206 490.062 32.9207 490.313 32.8304 490.539C32.7401 490.765 32.5664 490.947 32.3452 491.048L29.6058 492.188C29.494 492.213 29.3781 492.213 29.2664 492.188C29.0797 492.188 28.8972 492.132 28.7419 492.029C28.5866 491.925 28.4654 491.778 28.3936 491.606C28.32 491.387 28.3315 491.148 28.4258 490.937C28.5201 490.726 28.6904 490.558 28.9027 490.466Z" fill="white"/>
    <path d="M27.2045 486.975L30.1864 486.224C30.4274 486.165 30.6819 486.203 30.895 486.33C31.1082 486.457 31.2629 486.662 31.3258 486.902C31.3547 487.02 31.36 487.142 31.3415 487.262C31.323 487.382 31.281 487.497 31.218 487.601C31.1549 487.704 31.072 487.795 30.974 487.866C30.876 487.938 30.7649 487.989 30.6469 488.017L27.6651 488.793H27.4227C27.2043 488.777 26.9984 488.684 26.8404 488.533C26.6823 488.381 26.5818 488.179 26.556 487.962C26.5302 487.744 26.5808 487.524 26.6991 487.34C26.8174 487.156 26.996 487.018 27.2045 486.951V486.975Z" fill="white"/>
    <path d="M19.181 356.718C20.3718 351.215 23.6992 346.41 28.4317 343.36C33.1641 340.309 38.9142 339.263 44.4178 340.451C55.8846 342.875 62.0665 354.173 59.5938 365.639L27.1569 482.369H9.33838L19.181 356.718Z" fill="#FBBEAA"/>
    <path d="M19.1809 354.415C20.4966 349.044 23.8552 344.398 28.5427 341.465C33.2302 338.532 38.8768 337.543 44.2822 338.708C49.6876 339.873 54.4254 343.1 57.4885 347.704C60.5515 352.308 61.6981 357.924 60.6846 363.36L49.2857 483.331C49.2857 483.331 18.4003 485.174 0 483.331L19.1809 354.415Z" fill="#013EA5"/>
    <path d="M173.026 139.527L103.4 86.6288C95.279 81.4408 89.7517 84.2045 85.4365 89.7561C83.4658 92.4432 82.5521 95.7611 82.8695 99.0782C83.1869 102.395 84.7132 105.48 87.1577 107.744L156.613 158.921C159.061 160.988 162.212 162.031 165.409 161.832C168.607 161.634 171.605 160.209 173.777 157.854L174.092 157.515C175.246 156.285 176.136 154.832 176.709 153.247C177.283 151.661 177.527 149.975 177.427 148.291C177.327 146.608 176.886 144.963 176.129 143.456C175.372 141.949 174.316 140.612 173.026 139.527Z" fill="#FBBEAA"/>
    <path d="M87.1575 107.72C86.5146 107.167 85.9298 106.55 85.412 105.878C84.9542 104.152 84.8953 102.345 85.2397 100.594C85.5842 98.8422 86.3229 97.1921 87.4 95.7685C91.0606 90.1199 98.7456 85.6835 102.164 86.532L105.558 88.2532L143.983 117.345C140.582 125.337 135.988 132.767 130.358 139.381L87.1575 107.72Z" fill="#F18380"/>
    <path d="M97.6544 82.8468L157.907 123.484C157.653 125.562 162.536 82.8468 162.536 82.8468L184.837 84.9284C184.837 84.9284 183.535 128.418 180.253 151.386C178.95 160.501 171.363 163.957 162.367 161.995C157.926 161.026 153.744 159.203 150.023 156.591C134.034 145.368 89.1764 113.757 85.5088 109.781C79.1814 102.92 79.1814 97.7804 82.8178 92.1318C86.4543 86.4832 94.2362 81.9983 97.6544 82.8468Z" fill="#013EA5"/>
    <path d="M69.3391 357.009L56.9025 226.801C56.9025 212.425 71.7148 196.764 93.5576 200.134C113.291 203.213 119.304 223.043 117.679 241.832C116.055 260.62 111.667 357.93 111.667 357.93C111.602 360.716 110.988 363.462 109.862 366.01C108.736 368.559 107.119 370.861 105.103 372.784C103.087 374.708 100.712 376.216 98.1131 377.221C95.5145 378.227 92.7433 378.711 89.9576 378.646C87.1719 378.581 84.4264 377.967 81.8777 376.841C79.3291 375.715 77.0273 374.097 75.1036 372.081C73.18 370.066 71.6723 367.691 70.6666 365.092C69.6609 362.493 69.1768 359.722 69.2421 356.936L69.3391 357.009Z" fill="#013EA5"/>
    <path d="M19.1811 354.415L31.545 224.231C34.1632 210.098 51.7393 197.564 72.5639 204.982C91.3521 211.698 93.5339 232.304 88.3944 250.462C83.2549 268.62 60.6849 363.361 60.6849 363.361C59.3691 368.731 56.0105 373.377 51.3231 376.31C46.6356 379.243 40.9889 380.233 35.5836 379.068C30.1782 377.903 25.4403 374.675 22.3773 370.071C19.3143 365.468 18.1676 359.851 19.1811 354.415Z" fill="#013EA5"/>
    <path d="M88.3941 250.462C83.2789 268.62 60.6846 363.361 60.6846 363.361" stroke="#E9E9E9" stroke-width="0.75" stroke-miterlimit="10"/>
    <path d="M84.7574 80.786C84.7574 80.786 95.4728 82.6527 97.5577 83.2103C98.7881 83.499 99.9251 84.0953 100.862 84.9433C101.799 85.7913 102.506 86.8633 102.915 88.0588C104.249 91.2346 111.109 112.035 111.74 114.29C112.166 116.773 111.766 119.328 110.6 121.562C109.606 124.278 104.467 136.642 104.467 136.642L103.691 176.472L74.7465 181.063L47.0114 176.472C47.0114 176.472 37.3142 102.386 36.8294 97.8045C36.3445 93.2226 38.6233 84.374 44.1022 83.2588C49.5811 82.1436 64.6117 80.8345 64.6117 80.8345L84.7574 80.786Z" fill="#FBBEAA"/>
    <path d="M105.05 160.457V174.46C86.0924 176.206 55.8846 174.97 44.539 174.46C44.0056 170.46 43.448 163.672 42.8662 159.163C58.3089 159.551 83.8136 160.99 105.05 160.457Z" fill="white"/>
    <path d="M5.07125 172.909L36.1263 91.1862C40.2718 82.4588 46.4053 81.877 53.0963 84.3013C56.1911 85.5358 58.7226 87.8671 60.2073 90.8499C61.692 93.8327 62.0258 97.2579 61.1449 100.471L29.1686 180.739C28.1994 183.793 26.0847 186.353 23.2685 187.88C20.4524 189.408 17.1538 189.786 14.0653 188.933L13.6047 188.812C11.9756 188.368 10.454 187.596 9.13286 186.544C7.81168 185.492 6.71855 184.183 5.9201 182.695C5.12164 181.207 4.63461 179.571 4.48867 177.889C4.34273 176.207 4.54095 174.512 5.07125 172.909Z" fill="#FBBEAA"/>
    <path d="M17.9438 139.017L36.126 91.1861C36.6136 90.1372 37.1894 89.1316 37.8472 88.18C40.0744 86.7856 42.6241 85.9904 45.249 85.8715C47.874 85.7525 50.4852 86.3139 52.8293 87.5012C55.5514 88.8258 57.7394 91.0403 59.0312 93.7781C60.3229 96.5159 60.6409 99.6128 59.9324 102.556C59.9324 102.847 59.7628 103.405 59.6173 104.156L40.8533 151.308C32.6573 148.353 24.9388 144.212 17.9438 139.017Z" fill="#F18380"/>
    <path d="M38.5552 85.6843C33.2633 92.4883 2.646 175.646 2.646 175.646C30.9953 166.574 28.3352 142.057 43.7537 144.651C43.7537 144.651 61.5332 102.92 62.212 99.1866C62.9205 96.2434 62.6025 93.1466 61.3108 90.4088C60.019 87.671 57.831 85.4564 55.1089 84.1318C47.5209 80.253 43.847 78.8803 38.5552 85.6843Z" fill="#0045BA"/>
    <path d="M89.9959 80.7705C95.5991 81.836 98.1315 81.9633 99.5543 82.9015C101.805 84.4118 113.397 104.876 113.397 114.111C113.397 122.28 111.42 187.631 109.772 188.696C108.124 189.762 78.6222 191.144 78.6222 191.144V98.604C81.6164 89.3363 87.8723 86.7659 89.9959 80.7705Z" fill="#0045BA"/>
    <path d="M99.5543 82.9015C98.1315 81.9633 92.5412 81.08 86.938 80.0145C84.8144 86.0099 81.6164 89.3363 78.6222 98.604V114.111H113.397C113.397 104.876 101.805 84.4118 99.5543 82.9015Z" fill="#9A99A1"/>
    <path d="M78.2442 77.7466C71.2892 77.7466 65.0145 74.7226 62.7466 73.2107V80.0145C62.9986 80.3925 64.9389 81.6021 70.6844 83.4164C76.4299 85.2308 84.6701 84.5504 88.072 83.4164V76.6126C88.072 76.9906 86.938 77.7466 78.2442 77.7466Z" fill="#034CC9"/>
    <path d="M113.386 115.546H78.6222V107.986L112.398 108.316C113.057 110.915 113.471 112.771 113.386 115.546Z" fill="#D3D4D2"/>
    <path d="M34.1022 184.447C34.1022 176.879 32.9012 158.888 39.6418 141.473C45.5074 142.894 58.2554 99.7417 45.5074 85.3585C41.2711 80.5788 37.5473 87.495 38.6642 85.7136C39.7811 83.9323 41.0191 82.1839 42.8432 81.3454C46.0975 79.7665 53.3282 80.0312 59.8456 80.0312C67.6665 89.6204 75.7669 91.7551 78.6223 98.6198V191.11C78.6223 191.11 34.1022 192.015 34.1022 184.447Z" fill="#034CC9"/>
    <path d="M34.1022 184.447C34.1022 176.879 32.9012 158.888 39.6418 141.473C45.5074 142.894 58.2554 99.7417 45.5074 85.3585C41.2711 80.5788 37.5473 87.495 38.6642 85.7136C39.7811 83.9323 41.0191 82.1839 42.8432 81.3454C46.0975 79.7665 53.3282 80.0312 59.8456 80.0312C67.6665 89.6204 75.7669 91.7551 78.6223 98.6198V191.11C78.6223 191.11 34.1022 192.015 34.1022 184.447Z" fill="#034CC9"/>
    <path d="M38.5549 85.6844C37.438 87.4658 41.2708 80.5787 45.5071 85.3584C50.8622 91.4004 51.7182 102.519 50.4752 113.278H78.6219L78.6219 84.5504C71.0622 83.7944 67.2822 82.6605 62.7463 80.0145C56.2289 80.0145 45.967 79.5696 42.7127 81.1485C40.8886 81.987 39.6718 83.9031 38.5549 85.6844Z" fill="#A2A0AB"/>
    <path d="M78.6222 191.144C80.5538 190.496 82.2442 189.247 83.4622 187.569C84.6801 185.891 85.366 183.865 85.426 181.768V78.1245H78.6222V191.144Z" fill="#034CC9"/>
    <path d="M50.8982 107.986H85.4258V115.546H50.1903C50.6507 112.144 50.8982 110.632 50.8982 107.986Z" fill="#CFD1CE"/>
    <g style="mix-blend-mode:multiply" opacity="0.4">
        <path d="M77.8662 84.3955L78.6222 84.5504V191.144H77.8662V84.3955Z" fill="#013FA9"/>
    </g>
    <path d="M67.3269 134.532L28.7323 182.606C24.1504 188.909 17.3624 191.721 10.5987 186.048C9.34769 184.985 8.32565 183.679 7.59456 182.209C6.86347 180.74 6.43856 179.137 6.34562 177.498C6.25267 175.859 6.49363 174.218 7.05386 172.675C7.61409 171.132 8.48192 169.718 9.60473 168.521L56.1025 122.459C60.151 117.732 65.0238 116.98 68.5633 120.035C72.8543 123.841 72.3452 128.302 67.3269 134.532Z" fill="#FBBEAA"/>
    <path d="M53.7749 124.981C58.0659 120.641 66.0903 111.283 68.8055 109.005C71.4902 106.982 74.4233 105.311 77.5329 104.035C79.8921 103.244 82.331 102.716 84.8058 102.459C86.527 102.241 87.23 102.75 87.23 103.792C87.1867 104.413 86.9889 105.014 86.6544 105.539C86.3199 106.064 85.8594 106.497 85.3148 106.798H88.4906C89.5816 106.798 90.2846 107.671 89.7755 109.077C89.3131 110.006 88.6522 110.822 87.8394 111.467C87.0267 112.113 86.082 112.571 85.0724 112.811C85.0724 112.811 89.3634 113.223 90.4543 113.441C91.5452 113.659 91.8846 114.071 91.8846 115.114C91.8752 115.834 91.6751 116.539 91.3046 117.156C90.9341 117.774 90.4065 118.282 89.7755 118.629C88.2311 119.256 86.5918 119.616 84.9269 119.696C84.9269 119.696 90.2361 121.029 91.3028 121.417C92.3695 121.805 92.4907 122.508 91.9332 123.429C91.6154 124.078 91.1566 124.648 90.5904 125.096C90.0241 125.545 89.3647 125.862 88.6604 126.023C86.6482 126.556 85.2906 125.684 84.5633 125.805C83.0007 126.308 81.4705 126.907 79.9815 127.599C77.7453 129.825 75.0113 131.487 72.0055 132.447C69.7682 133.386 67.7159 134.716 65.9448 136.375C65.1199 137.149 64.148 137.75 63.0867 138.142C62.0255 138.534 60.8964 138.709 59.7663 138.657C58.6362 138.605 57.5279 138.327 56.5072 137.839C55.4864 137.351 54.5738 136.664 53.8234 135.817C49.9446 131.696 50.5991 128.253 53.7749 124.981Z" fill="#FBBEAA"/>
    <path d="M68.0383 139.737L29.0118 183.622C24.3351 189.855 13.4066 193.281 6.72946 187.506C5.49468 186.424 4.49252 185.103 3.78376 183.622C3.07499 182.141 2.67438 180.532 2.60624 178.892C2.53811 177.252 2.80386 175.615 3.38738 174.08C3.97089 172.546 4.86001 171.146 6.00081 169.966L53.2966 120.46L68.0383 139.737Z" fill="#0045BA"/>
    <path d="M84.782 106.823C84.7889 106.863 84.7873 106.904 84.7773 106.943C84.7673 106.983 84.7492 107.02 84.7241 107.052C84.699 107.084 84.6674 107.11 84.6314 107.129C84.5955 107.148 84.556 107.159 84.5154 107.162L82.5275 107.356H81.5578C81.2184 107.356 80.9032 107.477 80.5638 107.501C80.2053 107.609 79.8565 107.747 79.5214 107.914L78.4062 108.374C76.9031 108.98 75.4001 109.538 74.2849 109.95C73.1697 110.362 72.394 110.605 72.394 110.605C72.3325 110.63 72.2635 110.632 72.2007 110.61C72.1379 110.587 72.0857 110.542 72.0546 110.483C72.0093 110.424 71.9849 110.352 71.9849 110.277C71.9849 110.203 72.0093 110.13 72.0546 110.071L73.8728 109.126L75.7637 108.229C76.4425 107.914 77.194 107.598 77.9455 107.307L79.085 106.871C79.4514 106.705 79.833 106.576 80.2244 106.483L81.3881 106.362H82.382H83.8608H84.4184C84.4795 106.314 84.5572 106.292 84.6345 106.301C84.7118 106.31 84.7824 106.349 84.8306 106.41C84.8788 106.472 84.9008 106.549 84.8917 106.627C84.8826 106.704 84.8431 106.774 84.782 106.823ZM84.3214 112.665H83.8851C83.5222 112.633 83.157 112.633 82.7941 112.665L82.0426 112.786C81.7656 112.821 81.4905 112.87 81.2183 112.932L79.5699 113.465C78.4547 113.829 77.3638 114.289 76.5395 114.629C76.5395 114.629 76.2728 114.629 76.2971 114.75H76.0062L75.5698 114.871H75.3031H75.1576C75.0844 114.889 75.0208 114.934 74.9802 114.997C74.9395 115.06 74.9249 115.137 74.9395 115.211C74.95 115.269 74.9796 115.322 75.0234 115.361C75.0673 115.401 75.123 115.424 75.1819 115.429H76.4183H76.8061C77.6546 115.211 78.794 114.871 79.9092 114.483L81.5335 113.877L82.285 113.683L82.9396 113.489C83.2744 113.39 83.6143 113.309 83.9578 113.247L84.37 113.126C84.4066 113.115 84.4407 113.096 84.4703 113.072C84.4999 113.048 84.5244 113.018 84.5424 112.984C84.5604 112.95 84.5716 112.913 84.5753 112.875C84.5789 112.837 84.5751 112.799 84.5639 112.762C84.5352 112.727 84.4978 112.699 84.4553 112.682C84.4129 112.665 84.3668 112.659 84.3214 112.665ZM84.3214 119.55H83.4245C83.182 119.55 82.8669 119.55 82.5517 119.72L81.5578 120.035C80.9323 120.255 80.3245 120.523 79.7396 120.835C79.4706 120.961 79.2113 121.107 78.9638 121.271C78.9143 121.329 78.8871 121.402 78.8871 121.477C78.8871 121.553 78.9143 121.626 78.9638 121.684C79.0334 121.757 79.1291 121.801 79.2304 121.805L80.1275 121.659C80.6366 121.538 81.2911 121.344 81.9457 121.126L82.8911 120.738L83.7154 120.423C83.9898 120.301 84.257 120.164 84.5154 120.011C84.584 119.97 84.6346 119.905 84.6571 119.829C84.6796 119.752 84.6723 119.67 84.6366 119.599C84.5648 119.553 84.4782 119.535 84.3942 119.55H84.3214Z" fill="#F18380"/>
    <path d="M165.922 64.3739C165.001 64.3739 164.928 63.7921 164.516 62.7254C166.577 62.7254 172.565 63.1132 175.183 68.1558C172.541 64.5193 167.474 64.3739 165.922 64.3739ZM170.626 45.1978C170.626 45.1978 170.48 46.0463 170.335 47.2827C170.335 47.913 170.189 48.6645 170.141 49.4403C170.092 50.2161 170.019 51.0646 169.947 51.8646C169.947 53.5616 169.826 55.2343 169.826 56.495C169.826 57.7556 169.826 58.6041 169.826 58.6041C169.825 58.6444 169.834 58.6844 169.85 58.7213C169.866 58.7583 169.889 58.7915 169.919 58.8188C169.949 58.8462 169.984 58.8671 170.022 58.8803C170.06 58.8934 170.1 58.8983 170.141 58.895C170.209 58.8915 170.274 58.866 170.327 58.8223C170.379 58.7786 170.416 58.7191 170.432 58.6526C170.432 58.6526 170.577 57.804 170.698 56.5434C170.819 55.2828 171.013 53.61 171.086 51.9373C171.086 51.0888 171.086 50.2403 171.086 49.513C171.086 48.7857 171.086 47.9857 171.086 47.3554C171.086 46.0706 171.086 45.2462 171.086 45.2462C171.086 45.2059 171.078 45.166 171.062 45.1291C171.046 45.0921 171.022 45.0588 170.993 45.0315C170.963 45.0041 170.928 44.9832 170.89 44.9701C170.852 44.957 170.811 44.952 170.771 44.9553C170.725 44.9821 170.686 45.0212 170.661 45.0682C170.635 45.1153 170.623 45.1685 170.626 45.2221V45.1978ZM176.25 46.8948C176.25 46.8948 176.104 47.6221 175.935 48.6888C175.935 49.2463 175.765 49.8766 175.692 50.5554C175.62 51.2342 175.547 51.9615 175.474 52.6888C175.474 54.1434 175.304 55.5979 175.28 56.6889C175.256 57.7798 175.28 58.5313 175.28 58.5313C175.283 58.5696 175.294 58.6068 175.311 58.641C175.329 58.6751 175.353 58.7055 175.382 58.7303C175.411 58.7551 175.445 58.7739 175.482 58.7855C175.519 58.7971 175.557 58.8014 175.595 58.7981C175.661 58.7935 175.722 58.7671 175.771 58.7231C175.819 58.6791 175.851 58.6201 175.862 58.5556C175.862 58.5556 176.007 57.8283 176.177 56.7616C176.347 55.6949 176.492 54.2161 176.614 52.7858C176.614 52.0585 176.614 51.3312 176.759 50.6524C176.904 49.9736 176.759 49.3191 176.759 48.7615C176.759 47.6706 176.759 46.9433 176.759 46.9433C176.759 46.9029 176.751 46.8631 176.735 46.8261C176.719 46.7891 176.695 46.7559 176.665 46.7285C176.636 46.7011 176.601 46.6803 176.563 46.6672C176.524 46.6541 176.484 46.649 176.444 46.6524C176.39 46.6746 176.343 46.7112 176.309 46.7583C176.275 46.8054 176.254 46.861 176.25 46.919V46.8948ZM181.68 49.1978C181.68 49.1978 181.535 49.8039 181.341 50.7251C181.341 51.1615 181.147 51.6949 181.074 52.2767C181.001 52.8586 180.905 53.4646 180.808 54.0707C180.638 55.3071 180.565 56.4949 180.517 57.4647C180.468 58.4344 180.517 59.0162 180.517 59.0162C180.516 59.0566 180.525 59.0964 180.541 59.1334C180.557 59.1704 180.581 59.2036 180.61 59.231C180.64 59.2584 180.675 59.2792 180.713 59.2923C180.751 59.3054 180.792 59.3105 180.832 59.3071C180.894 59.3039 180.953 59.281 181.001 59.2417C181.049 59.2025 181.083 59.149 181.098 59.089C181.098 59.089 181.268 58.4829 181.438 57.5859C181.608 56.6889 181.85 55.4283 181.995 54.2161C181.995 53.5858 182.117 52.9797 182.165 52.3979C182.214 51.8161 182.165 51.2828 182.165 50.8221C182.165 49.9009 182.165 49.2706 182.165 49.2706C182.165 49.2302 182.157 49.1903 182.141 49.1534C182.125 49.1164 182.101 49.0831 182.072 49.0558C182.042 49.0284 182.007 49.0076 181.969 48.9945C181.931 48.9814 181.89 48.9763 181.85 48.9797C181.805 49.0046 181.767 49.0394 181.737 49.0814C181.708 49.1234 181.688 49.1715 181.68 49.2221V49.1978Z" fill="#F18380"/>
    <path d="M6.80383 437.594L9.07178 422.853H55.1867L53.6748 437.972L6.80383 437.594Z" fill="#CFD1CE"/>
    <path d="M67.6604 437.594L68.0384 422.853H113.397L113.775 437.972L67.6604 437.594Z" fill="#CFD1CE"/>
    <path d="M21.9235 151.077L29.8613 144.651L45.7369 164.685L39.3111 172.244L21.9235 151.077Z" fill="#CFD1CE"/>
    <path d="M158.378 118.57L159.512 109.498L183.704 111.388L183.326 120.46L158.378 118.57Z" fill="#CFD1CE"/>
    <path d="M71.9059 32.8654C70.7563 36.3134 68.966 39.5129 66.629 42.2954H60.9086C60.9086 42.2954 56.4741 37.1477 56.1416 36.7262C55.6608 36.2134 55.2953 35.6035 55.0697 34.9376C54.844 34.2716 54.7635 33.5651 54.8334 32.8654H71.9059Z" fill="#676575"/>
    <path d="M66.6291 42.2955C66.6291 53.3897 62.964 69.1641 80.2 72.5001C80.2 72.5001 69.1567 71.917 64.9219 66.4809C60.687 61.0447 60.9087 42.2068 60.9087 42.2068L66.6291 42.2955Z" fill="#827F94"/>
    <path d="M50.7318 34.2855H106.694C107.12 29.2264 106.64 24.1318 105.275 19.2418C103.058 12.8959 98.6235 5.13 80.0655 5.13C61.5074 5.13 55.011 13.8278 53.7029 20.4178C52.3947 27.0077 53.0155 29.16 52.2395 29.8701C51.4635 30.5801 50.7318 30.6023 50.7318 31.6673V34.2855Z" fill="#EFEFEF"/>
    <path d="M80.0653 5.13012C84.1123 5.05656 88.1497 5.54948 92.0604 6.59456H92.2377L92.9251 6.81644C94.7985 7.39374 96.5821 8.2302 98.2242 9.30154C99.3393 13.9029 99.632 18.6655 99.0889 23.369H92.9251L84.7214 21.9711C84.7214 21.9711 82.1273 8.65807 72.9037 5.5517C75.2777 5.2399 77.6711 5.09901 80.0653 5.13012Z" fill="#D8D8D8"/>
    <path d="M78.779 3H91.3062C92.6365 3 99.0886 8.01457 99.0886 25.1884H84.832C84.832 20.1294 83.9451 6.88297 75.9631 5.21884C75.9853 5.26321 77.1826 3 78.779 3Z" fill="#EFEFEF"/>
    <path d="M115.629 34.2855V31.0459C115.628 30.5816 115.53 30.1226 115.343 29.6976C115.156 29.2727 114.883 28.891 114.542 28.5765C114.201 28.262 113.798 28.0214 113.359 27.8698C112.921 27.7182 112.456 27.6588 111.993 27.6955H104.832C104.42 27.7147 104.009 27.6454 103.627 27.4923C103.244 27.3392 102.899 27.1059 102.614 26.808C102.149 26.2754 98.9781 23.3022 98.6012 22.8584C98.3421 22.5196 98.0055 22.2479 97.6196 22.0664C97.2338 21.885 96.81 21.7989 96.384 21.8156H85.9631C85.5376 21.8026 85.115 21.8902 84.7298 22.0714C84.3445 22.2526 84.0074 22.5223 83.7459 22.8584C83.369 23.3022 80.1983 26.2754 79.7327 26.808C79.4489 27.107 79.1038 27.3412 78.7211 27.4944C78.3384 27.6476 77.9272 27.7162 77.5155 27.6955H71.5513C71.0887 27.6588 70.6235 27.7182 70.1849 27.8698C69.7463 28.0214 69.3438 28.262 69.0024 28.5765C68.661 28.891 68.3883 29.2727 68.2012 29.6976C68.014 30.1226 67.9166 30.5816 67.915 31.0459V34.2855H115.629Z" fill="#D8D8D8"/>
</svg>
