<svg width="190" height="506" viewBox="0 0 190 506" fill="none" xmlns="http://www.w3.org/2000/svg">
    <path d="M65.9326 48.7621V69.3442C65.9326 69.3442 67.5569 76.4231 78.4419 76.4231C80.6029 76.6054 82.7517 75.9533 84.4469 74.6007C86.1421 73.2482 87.2551 71.2978 87.5572 69.1503V48.7862L65.9326 48.7621Z" fill="#FBBEAA"/>
    <path d="M33.5445 211.601C34.0778 204.886 41.2779 179.14 49.0114 164.473C49.0114 164.473 65.8823 166.604 76.7464 166.64C88.0816 166.676 105.691 164.473 105.691 164.473C110.734 175.891 116.479 200.837 118.152 206.219C119.162 209.386 119.284 212.768 118.507 215.999C117.729 219.231 116.08 222.187 113.74 224.547C107.994 231.068 93.1819 238.535 89.7636 238.535C75.0573 236.434 60.6425 232.643 46.8053 227.238C38.9991 223.965 33.0354 218.341 33.5445 211.601Z" fill="#013EA5"/>
    <path d="M167.437 71.7679C167.537 69.5833 166.952 67.4221 165.764 65.586C163.935 63.4653 162.565 60.9891 161.74 58.3131C161.105 55.8291 160.091 53.4577 158.734 51.2826C157.764 49.9493 156.31 48.8584 156.31 47.8402C156.31 46.822 158.249 44.8583 161.013 45.4159C162.196 45.7847 163.284 46.4106 164.198 47.2488C165.111 48.087 165.829 49.1168 166.298 50.2645C166.562 49.5652 166.718 48.8293 166.758 48.0826L167.364 33.2218C167.374 32.8365 167.46 32.457 167.618 32.1056C167.776 31.7543 168.004 31.4383 168.286 31.1761C168.569 30.914 168.901 30.7111 169.263 30.5794C169.625 30.4478 170.01 30.39 170.395 30.4096C171.007 30.4357 171.597 30.6532 172.079 31.0316C172.562 31.4099 172.914 31.93 173.086 32.5187V31.8399C173.179 31.1175 173.542 30.4571 174.102 29.9913C174.662 29.5255 175.378 29.2887 176.105 29.3286C176.832 29.3685 177.517 29.6821 178.023 30.2064C178.529 30.7306 178.818 31.4268 178.831 32.1551V34.2157C179.074 33.5804 179.537 33.0535 180.136 32.731C180.735 32.4086 181.429 32.312 182.093 32.4589C182.757 32.6058 183.347 32.9864 183.754 33.5314C184.16 34.0764 184.358 34.7494 184.31 35.4279V36.7369C184.571 36.2784 184.96 35.9058 185.429 35.6647C185.898 35.4236 186.428 35.3244 186.953 35.3793C187.671 35.4705 188.326 35.8379 188.778 36.4035C189.231 36.9691 189.446 37.6886 189.377 38.4097L188.189 50.9433C187.411 58.0095 185.949 64.9837 183.825 71.7679C183.8 72.9006 183.537 74.0154 183.055 75.0407C182.573 76.0659 181.881 76.9789 181.025 77.721C180.169 78.4631 179.167 79.0177 178.083 79.3494C177 79.681 175.859 79.7824 174.734 79.6468C173.716 79.6807 172.703 79.4954 171.763 79.1033C170.823 78.7112 169.978 78.1215 169.286 77.3742C168.594 76.6269 168.07 75.7395 167.751 74.7722C167.432 73.8049 167.325 72.7803 167.437 71.7679Z" fill="#FBBEAA"/>
    <path d="M85.7393 467.411C85.7393 465.077 86.6664 462.839 88.3168 461.188C89.9671 459.538 92.2055 458.611 94.5394 458.611C96.8734 458.611 99.1117 459.538 100.762 461.188C102.412 462.839 103.34 465.077 103.34 467.411V486.539H85.7393V467.411Z" fill="#FBBEAA"/>
    <path d="M102.71 470.975C104.867 470.975 105.255 471.92 105.886 473.157C106.908 476.452 108.656 479.475 111.001 482.005C114.502 484.987 118.258 487.656 122.225 489.981V500.115H83.0488C83.0488 500.115 83.3155 492.115 83.5094 486.466C83.7034 480.818 84.261 473.933 84.2125 473.205C84.164 472.478 84.2125 470.975 85.5458 470.975H102.71Z" fill="#302D3B"/>
    <path d="M87.9205 487.023C87.9157 488.267 88.2805 489.485 88.9686 490.521C89.6567 491.557 90.637 492.366 91.7853 492.844C92.9336 493.322 94.1981 493.448 95.4184 493.207C96.6386 492.965 97.7596 492.367 98.6392 491.487C99.5187 490.608 100.117 489.487 100.359 488.267C100.6 487.046 100.474 485.782 99.9956 484.634C99.5174 483.485 98.7088 482.505 97.6726 481.817C96.6363 481.129 95.4191 480.764 94.1752 480.769C92.5183 480.775 90.9311 481.436 89.7595 482.608C88.5879 483.779 87.9268 485.366 87.9205 487.023Z" fill="#0447BA"/>
    <path d="M94.1757 483.339L92.7454 485.448L90.2969 486.151L91.8484 488.163L91.7757 490.708L94.1757 489.836L96.5758 490.708L96.4788 488.163L98.0546 486.151L95.6061 485.448L94.1757 483.339Z" fill="white"/>
    <path d="M121.958 489.812C121.958 489.812 127.51 492.745 129.595 494.175C130.56 494.829 131.344 495.717 131.874 496.755C132.404 497.794 132.662 498.95 132.625 500.115H117.4C117.4 500.115 117.716 492.672 121.958 489.812Z" fill="white"/>
    <path d="M83.0488 500.115V504.309C83.0488 505.012 83.6792 505.4 84.7459 505.4H130.953C131.995 505.4 132.625 505.012 132.625 504.309V500.115H83.0488Z" fill="white"/>
    <path d="M117.4 486.975C117.535 486.769 117.744 486.623 117.984 486.569C118.224 486.515 118.475 486.556 118.685 486.684C118.79 486.748 118.88 486.833 118.952 486.933C119.023 487.033 119.074 487.146 119.101 487.265C119.128 487.385 119.131 487.509 119.11 487.63C119.088 487.751 119.043 487.866 118.976 487.969L117.352 490.587C117.274 490.723 117.16 490.835 117.024 490.912C116.887 490.989 116.733 491.027 116.576 491.024C116.397 491.021 116.221 490.971 116.067 490.878C115.962 490.814 115.872 490.729 115.8 490.63C115.729 490.53 115.678 490.417 115.651 490.297C115.624 490.177 115.621 490.053 115.643 489.933C115.664 489.812 115.709 489.696 115.776 489.593L117.4 486.975Z" fill="white"/>
    <path d="M114.54 484.963C114.619 484.87 114.716 484.795 114.825 484.74C114.934 484.685 115.053 484.652 115.174 484.643C115.296 484.634 115.418 484.649 115.534 484.687C115.65 484.726 115.757 484.786 115.849 484.866C115.941 484.945 116.017 485.042 116.072 485.151C116.127 485.26 116.16 485.379 116.169 485.5C116.178 485.622 116.163 485.744 116.124 485.86C116.086 485.975 116.026 486.083 115.946 486.175L114.055 488.405C113.968 488.507 113.86 488.59 113.739 488.649C113.618 488.707 113.486 488.74 113.352 488.745C113.176 488.741 113.005 488.689 112.858 488.594C112.71 488.499 112.592 488.364 112.516 488.206C112.441 488.047 112.411 487.871 112.43 487.696C112.449 487.522 112.517 487.356 112.625 487.217L114.54 484.963Z" fill="white"/>
    <path d="M111.849 482.709C112.042 482.584 112.274 482.534 112.501 482.568C112.727 482.602 112.934 482.717 113.083 482.892C113.231 483.067 113.311 483.29 113.307 483.519C113.303 483.749 113.216 483.969 113.061 484.139L110.904 486.006C110.735 486.149 110.519 486.226 110.298 486.224C110.164 486.229 110.031 486.203 109.91 486.148C109.788 486.093 109.68 486.011 109.595 485.909C109.505 485.825 109.434 485.723 109.385 485.611C109.336 485.498 109.311 485.377 109.311 485.254C109.311 485.131 109.336 485.01 109.385 484.897C109.434 484.785 109.505 484.683 109.595 484.6L111.849 482.709Z" fill="white"/>
    <path d="M107.121 481.593L109.546 480.09C109.758 479.964 110.012 479.927 110.252 479.986C110.492 480.045 110.7 480.195 110.83 480.405C110.896 480.51 110.94 480.626 110.96 480.748C110.979 480.87 110.974 480.995 110.945 481.114C110.915 481.234 110.862 481.347 110.789 481.446C110.715 481.545 110.622 481.628 110.515 481.69L108.091 483.193C107.947 483.289 107.779 483.339 107.606 483.339C107.448 483.335 107.294 483.291 107.158 483.21C107.022 483.129 106.909 483.015 106.83 482.878C106.702 482.668 106.661 482.417 106.715 482.177C106.77 481.937 106.915 481.727 107.121 481.593Z" fill="white"/>
    <path d="M105.085 478.466L107.8 477.327C108.032 477.23 108.292 477.23 108.524 477.325C108.756 477.421 108.94 477.604 109.036 477.836C109.084 477.949 109.108 478.07 109.108 478.192C109.108 478.315 109.084 478.436 109.036 478.549C108.989 478.662 108.919 478.764 108.832 478.85C108.745 478.935 108.641 479.003 108.527 479.048L105.812 480.188H105.449C105.239 480.176 105.04 480.096 104.881 479.959C104.723 479.822 104.614 479.637 104.573 479.431C104.531 479.226 104.559 479.013 104.651 478.825C104.744 478.637 104.897 478.485 105.085 478.394V478.466Z" fill="white"/>
    <path d="M103.388 474.975L106.394 474.223C106.632 474.165 106.883 474.204 107.092 474.332C107.302 474.459 107.452 474.664 107.509 474.902C107.567 475.14 107.528 475.391 107.401 475.6C107.274 475.809 107.069 475.959 106.831 476.017L103.849 476.793H103.631C103.422 476.791 103.219 476.721 103.053 476.594C102.887 476.468 102.767 476.291 102.709 476.09C102.657 475.852 102.699 475.604 102.825 475.396C102.952 475.189 103.153 475.038 103.388 474.975Z" fill="white"/>
    <path d="M72.8657 345.082C73.1324 333.348 81.0355 327.676 92.7448 327.967C104.454 328.257 112.891 334.391 112.624 346.1L103.339 468.357H85.7387L72.8657 345.082Z" fill="#FBBEAA"/>
    <path d="M71.3397 345.009C71.405 342.223 72.0183 339.478 73.1446 336.929C74.2709 334.38 75.8882 332.078 77.9041 330.155C79.9201 328.231 82.2951 326.723 84.8937 325.718C87.4923 324.712 90.2635 324.228 93.0491 324.293C95.8348 324.359 98.5804 324.972 101.129 326.098C103.678 327.224 105.98 328.842 107.903 330.858C109.827 332.874 111.334 335.249 112.34 337.847C113.346 340.446 113.83 343.217 113.765 346.003L116.678 472.465H68.75L71.3397 345.009Z" fill="#013EA5"/>
    <path d="M11.5562 467.411C11.5562 465.077 12.4833 462.839 14.1337 461.188C15.784 459.538 18.0224 458.611 20.3563 458.611C22.6903 458.611 24.9286 459.538 26.579 461.188C28.2293 462.839 29.1565 465.077 29.1565 467.411V486.539H11.5562V467.411Z" fill="#FBBEAA"/>
    <path d="M28.5015 470.975C30.6833 470.975 31.0712 471.92 31.6773 473.157C32.7112 476.452 34.467 479.475 36.8167 482.005C40.3131 484.993 44.0696 487.662 48.0412 489.981V500.115H8.86475C8.86475 500.115 9.13142 492.115 9.32537 486.466C9.51931 480.818 10.0527 473.933 10.0284 473.205C10.0042 472.478 10.0284 470.975 11.3375 470.975H28.5015Z" fill="#302D3B"/>
    <path d="M13.7139 487.023C13.7091 488.266 14.0733 489.482 14.7603 490.518C15.4473 491.554 16.4263 492.363 17.5731 492.842C18.72 493.32 19.9833 493.448 21.2028 493.209C22.4224 492.969 23.5435 492.373 24.424 491.496C25.3046 490.619 25.905 489.5 26.1492 488.281C26.3935 487.063 26.2706 485.799 25.796 484.65C25.3215 483.502 24.5168 482.52 23.4837 481.829C22.4506 481.137 21.2357 480.769 19.9928 480.769C18.3318 480.769 16.7384 481.427 15.5615 482.599C14.3847 483.771 13.7203 485.362 13.7139 487.023Z" fill="#0447BA"/>
    <path d="M19.9687 483.339L18.5384 485.448L16.0898 486.151L17.6657 488.163L17.5929 490.708L19.9687 489.836L22.3688 490.708L22.296 488.163L23.8718 486.151L21.399 485.448L19.9687 483.339Z" fill="white"/>
    <path d="M47.7505 489.812C47.7505 489.812 53.3263 492.745 55.387 494.175C56.3571 494.824 57.1449 495.711 57.6754 496.751C58.2059 497.79 58.4613 498.949 58.4173 500.115H43.1201C43.1201 500.115 43.5323 492.672 47.7505 489.812Z" fill="white"/>
    <path d="M8.86475 500.115V504.309C8.86475 505.012 9.47082 505.4 10.5375 505.4H56.7929C57.8595 505.4 58.4656 505.012 58.4656 504.309V500.115H8.86475Z" fill="white"/>
    <path d="M43.2172 486.975C43.349 486.766 43.5585 486.618 43.7994 486.564C44.0404 486.509 44.2931 486.552 44.5021 486.684C44.711 486.816 44.8591 487.025 44.9137 487.266C44.9682 487.507 44.9248 487.76 44.793 487.969L43.1688 490.587C43.0847 490.723 42.9667 490.835 42.8265 490.911C42.6862 490.988 42.5285 491.027 42.3687 491.024C42.1963 491.024 42.0276 490.974 41.8839 490.878C41.7794 490.814 41.6887 490.729 41.6173 490.63C41.5459 490.53 41.4952 490.417 41.4681 490.297C41.441 490.177 41.438 490.053 41.4595 489.933C41.4809 489.812 41.5263 489.696 41.5929 489.593L43.2172 486.975Z" fill="white"/>
    <path d="M40.3318 484.963C40.4917 484.777 40.7176 484.66 40.9619 484.637C41.2061 484.615 41.4496 484.688 41.6409 484.842C41.8287 485.006 41.946 485.236 41.9686 485.484C41.9911 485.732 41.9172 485.98 41.7621 486.175L39.8469 488.405C39.7629 488.511 39.656 488.597 39.5343 488.655C39.4125 488.714 39.2791 488.745 39.1439 488.745C38.9662 488.747 38.7918 488.697 38.6416 488.602C38.4915 488.507 38.3721 488.37 38.2978 488.209C38.2235 488.047 38.1974 487.868 38.2228 487.692C38.2482 487.516 38.3239 487.351 38.4409 487.217L40.3318 484.963Z" fill="white"/>
    <path d="M37.6656 482.709C37.8585 482.584 38.0899 482.534 38.3169 482.568C38.5438 482.602 38.7508 482.717 38.8991 482.892C39.0475 483.067 39.1271 483.29 39.1231 483.519C39.1192 483.749 39.032 483.969 38.8777 484.139L36.6959 486.006C36.5267 486.149 36.3115 486.226 36.0898 486.224C35.9566 486.227 35.8244 486.2 35.7028 486.146C35.5811 486.091 35.4732 486.01 35.3868 485.909C35.3003 485.823 35.2316 485.721 35.1848 485.609C35.1379 485.496 35.1138 485.376 35.1138 485.254C35.1138 485.132 35.1379 485.012 35.1848 484.899C35.2316 484.787 35.3003 484.685 35.3868 484.6L37.6656 482.709Z" fill="white"/>
    <path d="M32.9382 481.593L35.3625 480.09C35.5716 480.002 35.8055 479.992 36.0214 480.062C36.2374 480.132 36.421 480.277 36.5386 480.471C36.6563 480.665 36.7001 480.895 36.6622 481.119C36.6243 481.343 36.5072 481.546 36.3322 481.69L33.9079 483.193C33.7642 483.289 33.5955 483.339 33.423 483.339C33.2614 483.337 33.1031 483.293 32.963 483.213C32.8229 483.132 32.7059 483.017 32.623 482.878C32.4971 482.665 32.4595 482.412 32.5184 482.171C32.5773 481.931 32.728 481.724 32.9382 481.593Z" fill="white"/>
    <path d="M167.147 73.3926L157.45 134.266C155.85 141.903 158.322 148.812 167.147 150.024C168.776 150.236 170.431 150.115 172.011 149.668C173.592 149.221 175.065 148.458 176.342 147.424C177.618 146.39 178.671 145.107 179.437 143.654C180.202 142.201 180.665 140.607 180.795 138.969L183.753 73.5138C184.529 67.3319 181.838 63.2106 177.135 62.7015C171.365 62.0712 168.31 65.4895 167.147 73.3926Z" fill="#FBBEAA"/>
    <path d="M30.9027 478.466L33.6179 477.327C33.7308 477.28 33.852 477.255 33.9744 477.255C34.0968 477.255 34.2179 477.28 34.3308 477.327C34.4436 477.374 34.5459 477.444 34.6316 477.531C34.7174 477.619 34.7848 477.722 34.8301 477.836C34.9206 478.062 34.9207 478.313 34.8304 478.539C34.7401 478.765 34.5664 478.947 34.3452 479.048L31.6058 480.187C31.494 480.213 31.3781 480.213 31.2664 480.187C31.0797 480.187 30.8972 480.132 30.7419 480.029C30.5866 479.925 30.4654 479.778 30.3936 479.606C30.32 479.387 30.3315 479.148 30.4258 478.937C30.5201 478.725 30.6904 478.558 30.9027 478.466Z" fill="white"/>
    <path d="M29.2043 474.975L32.1862 474.224C32.4272 474.165 32.6818 474.203 32.8949 474.33C33.1081 474.457 33.2628 474.662 33.3257 474.902C33.3546 475.02 33.3599 475.142 33.3414 475.262C33.3229 475.382 33.2809 475.497 33.2179 475.601C33.1548 475.704 33.0719 475.795 32.9739 475.866C32.8759 475.938 32.7647 475.989 32.6468 476.017L29.665 476.793H29.4226C29.2041 476.777 28.9983 476.684 28.8402 476.533C28.6822 476.381 28.5816 476.179 28.5559 475.962C28.5301 475.744 28.5807 475.524 28.699 475.34C28.8173 475.156 28.9959 475.018 29.2043 474.951V474.975Z" fill="white"/>
    <path d="M21.181 344.718C22.3718 339.215 25.6992 334.41 30.4316 331.36C35.1641 328.309 40.9142 327.263 46.4178 328.451C57.8846 330.875 64.0665 342.173 61.5938 353.639L29.1569 470.369H11.3384L21.181 344.718Z" fill="#FBBEAA"/>
    <path d="M21.1809 342.415C22.4966 337.044 25.8552 332.398 30.5427 329.465C35.2302 326.532 40.8768 325.543 46.2822 326.708C51.6876 327.873 56.4254 331.1 59.4885 335.704C62.5515 340.308 63.6981 345.924 62.6846 351.36L51.2857 471.331C51.2857 471.331 20.4003 473.174 2 471.331L21.1809 342.415Z" fill="#013EA5"/>
    <path d="M175.026 127.527L105.4 74.6288C97.2789 69.4408 91.7516 72.2045 87.4364 77.7561C85.4657 80.4432 84.552 83.7611 84.8694 87.0782C85.1868 90.3953 86.7131 93.4798 89.1576 95.7444L158.613 146.921C161.061 148.988 164.212 150.031 167.409 149.832C170.607 149.634 173.604 148.209 175.777 145.854L176.092 145.515C177.246 144.285 178.136 142.832 178.709 141.247C179.283 139.661 179.527 137.975 179.427 136.291C179.327 134.608 178.886 132.963 178.129 131.456C177.372 129.949 176.316 128.612 175.026 127.527Z" fill="#FBBEAA"/>
    <path d="M89.1573 95.7202C88.5144 95.1669 87.9295 94.5496 87.4118 93.8777C86.954 92.1523 86.8951 90.3453 87.2395 88.5938C87.5839 86.8422 88.3227 85.1921 89.3997 83.7685C93.0604 78.1199 100.745 73.6835 104.164 74.532L107.558 76.2532L145.982 105.345C142.582 113.337 137.988 120.767 132.358 127.381L89.1573 95.7202Z" fill="#F18380"/>
    <path d="M99.6544 70.8468L159.907 111.484C159.653 113.562 164.536 70.8468 164.536 70.8468L186.837 72.9284C186.837 72.9284 185.535 116.418 182.253 139.386C180.95 148.501 173.363 151.957 164.367 149.995V149.995C159.926 149.026 155.744 147.203 152.023 144.591C136.034 133.368 91.1764 101.757 87.5088 97.7806C81.1814 90.9199 81.1814 85.7804 84.8178 80.1318C88.4543 74.4832 96.2362 69.9983 99.6544 70.8468Z" fill="#013EA5"/>
    <path d="M71.3389 345.009L58.9023 214.801C58.9023 200.425 73.7147 184.764 95.5575 188.134C115.291 191.213 121.303 211.043 119.679 229.832C118.055 248.62 113.667 345.93 113.667 345.93C113.602 348.716 112.988 351.462 111.862 354.01C110.736 356.559 109.118 358.861 107.103 360.784C105.087 362.708 102.712 364.216 100.113 365.221C97.5144 366.227 94.7431 366.711 91.9575 366.646C89.1718 366.581 86.4263 365.967 83.8776 364.841C81.329 363.715 79.0271 362.097 77.1035 360.082C75.1799 358.066 73.6722 355.691 72.6665 353.092C71.6608 350.493 71.1767 347.722 71.242 344.936L71.3389 345.009Z" fill="#013EA5"/>
    <path d="M21.1811 342.415L33.545 212.231C36.1632 198.098 53.7393 185.564 74.5639 192.982C93.3521 199.698 95.5339 220.304 90.3944 238.462C85.2549 256.62 62.6849 351.361 62.6849 351.361C61.3691 356.731 58.0105 361.377 53.3231 364.31C48.6356 367.243 42.9889 368.233 37.5836 367.068C32.1782 365.903 27.4403 362.675 24.3773 358.071C21.3143 353.468 20.1676 347.851 21.1811 342.415Z" fill="#013EA5"/>
    <path d="M90.3941 238.462C85.2789 256.62 62.6846 351.361 62.6846 351.361" stroke="#E9E9E9" stroke-width="0.75" stroke-miterlimit="10"/>
    <path d="M86.7572 68.786C86.7572 68.786 97.4726 70.6527 99.5575 71.2103C100.788 71.499 101.925 72.0953 102.862 72.9433C103.799 73.7913 104.505 74.8633 104.915 76.0588C106.248 79.2346 113.109 100.035 113.739 102.29C114.166 104.773 113.765 107.328 112.6 109.562C111.606 112.278 106.467 124.642 106.467 124.642L105.691 164.472L76.7463 169.063L49.0111 164.472C49.0111 164.472 39.314 90.3864 38.8291 85.8045C38.3443 81.2226 40.6231 72.374 46.102 71.2588C51.5809 70.1436 66.6114 68.8345 66.6114 68.8345L86.7572 68.786Z" fill="#FBBEAA"/>
    <path d="M107.05 148.457V162.46C88.0924 164.206 57.8846 162.97 46.539 162.46C46.0056 158.46 45.448 151.672 44.8662 147.163C60.3089 147.551 85.8136 148.99 107.05 148.457Z" fill="white"/>
    <path d="M7.071 160.909L38.1261 79.1862C42.2716 70.4588 48.405 69.877 55.0961 72.3013C58.1908 73.5357 60.7223 75.8671 62.207 78.8499C63.6917 81.8327 64.0255 85.2579 63.1447 88.4713L31.1684 168.739C30.1991 171.793 28.0845 174.353 25.2683 175.88C22.4521 177.408 19.1535 177.786 16.0651 176.933L15.6045 176.812C13.9753 176.368 12.4538 175.596 11.1326 174.544C9.81143 173.492 8.7183 172.183 7.91985 170.695C7.1214 169.206 6.63436 167.571 6.48842 165.889C6.34249 164.207 6.54071 162.512 7.071 160.909Z" fill="#FBBEAA"/>
    <path d="M87.0478 64.2346C87.6526 64.2346 88.9377 64.2346 90.0717 64.6126C90.0717 65.5198 88.0558 66.2505 87.0478 66.5025C86.7958 65.7466 86.443 64.2346 87.0478 64.2346Z" fill="#013FA9"/>
    <path d="M19.9438 127.017L38.126 79.1861C38.6136 78.1372 39.1894 77.1316 39.8472 76.18C42.0744 74.7856 44.6241 73.9904 47.249 73.8715C49.874 73.7525 52.4852 74.3139 54.8293 75.5012C57.5514 76.8258 59.7394 79.0403 61.0312 81.7781C62.3229 84.5159 62.6409 87.6128 61.9324 90.556C61.9324 90.8469 61.7628 91.4045 61.6173 92.1561L42.8533 139.308C34.6573 136.353 26.9388 132.212 19.9438 127.017Z" fill="#F18380"/>
    <path d="M40.5552 73.6843C35.2633 80.4883 4.646 163.646 4.646 163.646C32.9953 154.574 33.5 162.5 45.7537 132.651C45.7537 132.651 63.5332 90.92 64.212 87.1866C64.9205 84.2434 64.6025 81.1466 63.3108 78.4088C62.019 75.671 59.831 73.4564 57.1089 72.1318C49.5209 68.253 45.847 66.8803 40.5552 73.6843Z" fill="#0045BA"/>
    <path d="M87.5572 65.9017C80.7207 69.1502 70.7569 66.2411 65.9326 57.3198V48.7621H87.5572V65.9017Z" fill="#F18380"/>
    <path d="M91.9958 68.7705C97.599 69.836 100.131 69.9633 101.554 70.9015C103.805 72.4118 115.397 92.8764 115.397 102.111C115.397 110.28 113.42 175.631 111.772 176.696C110.124 177.762 80.6221 179.144 80.6221 179.144V86.604C83.6163 77.3363 89.8722 74.7659 91.9958 68.7705Z" fill="#0045BA"/>
    <path d="M101.554 70.9015C100.131 69.9633 94.541 69.08 88.9379 68.0145C86.8143 74.0099 83.6163 77.3363 80.6221 86.604V102.111H115.397C115.397 92.8764 103.805 72.4118 101.554 70.9015Z" fill="#9A99A1"/>
    <path d="M80.2442 65.7466C73.2892 65.7466 67.0145 62.7226 64.7466 61.2107V68.0145C64.9986 68.3925 66.9389 69.6021 72.6844 71.4164C78.4299 73.2308 86.6701 72.5504 90.072 71.4164V64.6126C90.072 64.9906 88.938 65.7466 80.2442 65.7466Z" fill="#034CC9"/>
    <path d="M115.386 103.546H80.6221V95.9859L114.398 96.316C115.057 98.9152 115.471 100.771 115.386 103.546Z" fill="#D3D4D2"/>
    <path d="M36.1021 172.447C36.1021 164.879 37 144 46.5 125C47.6612 122 60.2553 87.7417 47.5073 73.3585C43.271 68.5788 39.5471 75.495 40.6641 73.7136C41.781 71.9323 43.019 70.1839 44.8431 69.3454C48.0973 67.7665 55.3281 68.0312 61.8454 68.0312C69.6664 77.6204 77.7668 79.7551 80.6221 86.6198V179.11C80.6221 179.11 36.1021 180.015 36.1021 172.447Z" fill="#034CC9"/>
    <path d="M36.1021 172.447C36.1021 164.879 37 144 46.5 125C47.6612 122 60.2553 87.7417 47.5073 73.3585C43.271 68.5788 39.5471 75.495 40.6641 73.7136C41.781 71.9323 43.019 70.1839 44.8431 69.3454C48.0973 67.7665 55.3281 68.0312 61.8454 68.0312C69.6664 77.6204 77.7668 79.7551 80.6221 86.6198V179.11C80.6221 179.11 36.1021 180.015 36.1021 172.447Z" fill="#034CC9"/>
    <path d="M40.5545 73.6844C39.4376 75.4658 43.2704 68.5787 47.5067 73.3584C52.8618 79.4004 53.7178 90.519 52.4749 101.278H80.6215L80.6216 72.5504C73.0618 71.7944 69.2818 70.6605 64.7459 68.0145C58.2286 68.0145 47.9666 67.5696 44.7123 69.1485C42.8883 69.987 41.6715 71.9031 40.5545 73.6844Z" fill="#A2A0AB"/>
    <path d="M80.6221 179.144C82.5537 178.496 84.2441 177.247 85.4621 175.569C86.68 173.891 87.3659 171.865 87.4259 169.768V66.1245H80.6221V179.144Z" fill="#034CC9"/>
    <path d="M52.8892 96H80.6002V104H52.1797C52.5455 100.4 52.8892 98.8 52.8892 96Z" fill="#CFD1CE"/>
    <g style="mix-blend-mode:multiply" opacity="0.4">
        <path d="M79.8662 72.3955L80.6222 72.5504V179.144H79.8662V72.3955Z" fill="#013FA9"/>
    </g>
    <path d="M65.6657 10.7241C64.3809 7.62103 57.908 6.2392 54.2716 7.9362C50.6352 9.6332 46.9987 14.0938 46.4654 26.2152C45.9321 38.3367 46.926 47.5974 44.7441 53.7066C46.761 53.4516 48.658 52.6085 50.1988 51.2823C50.1988 52.8824 50.4412 56.7612 50.4412 56.7612C51.6147 56.6659 52.7362 56.2361 53.6729 55.5228C54.6096 54.8096 55.3221 53.8428 55.7261 52.7369C56.384 54.136 56.8019 55.6358 56.9626 57.1734C59.0959 56.0582 65.6657 54.1188 65.6657 42.6277V10.7241Z" fill="#1D1B24"/>
    <path d="M107.921 50.9918C107.266 42.1917 104.672 27.646 104.672 27.646L98.4663 27.3066C98.4663 27.3066 96.8178 53.5131 96.3572 59.2344C95.8965 64.9557 94.248 66.5072 94.248 66.5072C94.248 66.5072 102.127 65.4163 103.363 58.0222C103.545 59.47 103.642 60.927 103.654 62.386C103.654 62.386 108.6 59.792 107.921 50.9918Z" fill="#302D3B"/>
    <path d="M101.06 32.9795C101.163 37.9024 100.937 42.8266 100.382 47.7192C99.5089 54.7253 97.0361 62.4831 84.648 62.4831C72.2599 62.4831 65.9811 56.883 63.3143 47.7192C61.7143 42.1918 58.4658 33.9977 59.7991 24.543C61.1325 15.0883 66.8296 8.90644 80.2843 8.5428C93.7391 8.17916 102.467 14.1913 101.06 32.9795Z" fill="#FBBEAA"/>
    <path d="M74.854 37.1733C74.9359 37.5376 75.1189 37.8715 75.3819 38.1366C75.6448 38.4017 75.9771 38.5874 76.3407 38.6725C76.7043 38.7575 77.0845 38.7384 77.4378 38.6173C77.791 38.4963 78.103 38.2782 78.3381 37.988C78.5731 37.6979 78.7217 37.3474 78.7667 36.9767C78.8118 36.606 78.7515 36.2301 78.5928 35.8921C78.4342 35.5541 78.1835 35.2676 77.8695 35.0654C77.5556 34.8633 77.191 34.7536 76.8176 34.7491C76.5283 34.7762 76.2473 34.8608 75.9911 34.998C75.7349 35.1352 75.5087 35.3222 75.3258 35.5481C75.1429 35.7739 75.0069 36.034 74.9259 36.3131C74.8448 36.5922 74.8204 36.8847 74.854 37.1733Z" fill="#403D4F"/>
    <path d="M92.8908 37.1733C92.973 37.5387 93.1567 37.8733 93.4208 38.1388C93.6849 38.4043 94.0185 38.5898 94.3834 38.674C94.7483 38.7582 95.1295 38.7375 95.4832 38.6145C95.8369 38.4915 96.1486 38.2712 96.3826 37.9788C96.6165 37.6864 96.763 37.3339 96.8054 36.9618C96.8477 36.5898 96.7842 36.2133 96.622 35.8758C96.4598 35.5383 96.2055 35.2535 95.8885 35.0542C95.5715 34.8548 95.2047 34.7491 94.8302 34.7491C94.543 34.7792 94.2647 34.866 94.0113 35.0045C93.7579 35.143 93.5345 35.3305 93.3541 35.556C93.1737 35.7815 93.0398 36.0406 92.9603 36.3182C92.8808 36.5959 92.8572 36.8865 92.8908 37.1733Z" fill="#403D4F"/>
    <path d="M80.7204 30.313L80.5265 30.0948C80.3233 29.921 80.1041 29.7668 79.8719 29.6342C79.571 29.4492 79.2441 29.3103 78.9022 29.2221C78.5216 29.0787 78.1206 28.9969 77.7143 28.9797C77.3279 28.9312 76.937 28.9312 76.5506 28.9797C76.2118 28.9502 75.8712 28.9502 75.5324 28.9797L74.5869 29.2463C74.4561 29.2987 74.3466 29.3934 74.2759 29.5153C74.2053 29.6372 74.1775 29.7793 74.197 29.9189C74.2165 30.0584 74.2823 30.1874 74.3837 30.2852C74.4852 30.383 74.6165 30.444 74.7567 30.4584H75.7264C76.008 30.4219 76.2932 30.4219 76.5749 30.4584C76.8896 30.4344 77.2056 30.4344 77.5203 30.4584C77.8302 30.4989 78.1376 30.5556 78.4415 30.6282C78.7325 30.6282 78.9749 30.8221 79.2173 30.8463C79.3884 30.9221 79.5672 30.9791 79.7507 31.0161H79.9446C80.0994 31.0829 80.2741 31.0875 80.4321 31.0288C80.5902 30.9701 80.7195 30.8526 80.7931 30.7009C80.8291 30.6166 80.8477 30.5259 80.8477 30.4342C80.8477 30.3426 80.8291 30.2518 80.7931 30.1675L80.7204 30.313Z" fill="#403D4F"/>
    <path d="M92.5028 31.2337H92.6725L93.0362 31.0883H93.3028C93.3931 31.0333 93.4911 30.9925 93.5937 30.9671C93.7998 30.8964 94.0104 30.8397 94.224 30.7974C94.4571 30.7632 94.694 30.7632 94.9271 30.7974C95.1285 30.7741 95.3318 30.7741 95.5332 30.7974H96.3089C96.4718 30.7911 96.626 30.7219 96.739 30.6043C96.852 30.4868 96.9151 30.3301 96.915 30.167C96.9168 30.0452 96.8805 29.9258 96.8109 29.8257C96.7413 29.7257 96.642 29.65 96.5271 29.6094L95.7755 29.3428C95.5103 29.2508 95.232 29.2017 94.9513 29.1973C94.6227 29.1373 94.2859 29.1373 93.9573 29.1973C93.3218 29.2663 92.7177 29.5096 92.2118 29.9004C92.0405 30.0351 91.886 30.1897 91.7513 30.361C91.6301 30.5065 91.63 30.5549 91.63 30.5549V30.7974C91.6092 30.961 91.6534 31.1263 91.7531 31.2578C91.8529 31.3892 92.0002 31.4764 92.1634 31.5004C92.236 31.4835 92.3041 31.4509 92.3628 31.4048C92.4214 31.3588 92.4692 31.3003 92.5028 31.2337Z" fill="#403D4F"/>
    <path d="M87.5572 45.416C87.9668 45.4194 88.3725 45.337 88.7483 45.1742C89.1241 45.0113 89.4616 44.7716 89.7391 44.4705C89.8411 44.3651 89.9198 44.2394 89.9699 44.1015C90.02 43.9636 90.0405 43.8168 90.03 43.6705C90.03 43.4038 89.6179 40.0583 89.4724 38.8219C89.4544 38.6975 89.3886 38.5849 89.289 38.508C89.1895 38.4311 89.0641 38.3959 88.9391 38.4097C88.8192 38.4277 88.7104 38.49 88.6341 38.5842C88.5578 38.6784 88.5195 38.7979 88.5269 38.9189C88.5269 39.1128 89.0603 43.5008 89.1087 43.7675C88.9103 43.9872 88.6668 44.1615 88.3949 44.2786C88.123 44.3958 87.829 44.453 87.533 44.4463C87.4736 44.4462 87.4148 44.4582 87.3602 44.4816C87.3056 44.5051 87.2564 44.5393 87.2155 44.5825C87.1747 44.6256 87.143 44.6767 87.1226 44.7324C87.1021 44.7882 87.0933 44.8476 87.0966 44.9069C87.0854 44.9721 87.0892 45.0389 87.1076 45.1024C87.1261 45.1659 87.1588 45.2244 87.2032 45.2734C87.2475 45.3224 87.3024 45.3608 87.3638 45.3855C87.4251 45.4102 87.4913 45.4206 87.5572 45.416Z" fill="#F18380"/>
    <path d="M97.6418 9.58522C94.6114 5.60939 85.0597 0.348656 71.6292 4.54267C58.1987 8.73668 55.1683 19.0642 55.1198 27.4522C54.9292 31.9837 55.8707 36.4912 57.8593 40.5676H61.6412C67.6534 38.7251 71.7262 32.1068 74.1505 27.7431C73.7963 29.7848 73.7392 31.867 73.9807 33.9251C77.4414 33.1697 80.6683 31.5894 83.387 29.3189C82.7371 31.0955 82.2581 32.9301 81.9567 34.7978C85.0659 34.0722 87.913 32.4984 90.1813 30.2515C92.4496 28.0046 94.0503 25.1725 94.8053 22.0703C97.5497 25.5874 99.6732 29.5474 101.084 33.7795C103.093 32.8439 104.822 31.3981 106.098 29.586C107.374 27.7739 104.296 24.2772 104.5 22.0703C104.645 16.0338 102.49 11.1852 97.6418 9.58522Z" fill="#302D3B"/>
    <path d="M63.7992 42.0465C63.6052 38.7495 62.7325 34.7737 58.7081 35.4767C54.005 36.1797 53.5444 48.9072 63.5567 47.3799L63.7992 42.0465Z" fill="#FBBEAA"/>
    <path d="M58.3204 42.8953C58.4047 42.8965 58.4877 42.8745 58.5604 42.8318C58.6331 42.789 58.6926 42.7271 58.7326 42.6529C58.8352 42.44 58.9925 42.2583 59.1884 42.1263C59.3844 41.9942 59.6119 41.9166 59.8477 41.9014C60.1247 41.9042 60.3964 41.9768 60.638 42.1124C60.8795 42.2479 61.0829 42.4422 61.2296 42.6771C61.284 42.7644 61.3662 42.8309 61.4628 42.866C61.5595 42.9012 61.6651 42.9029 61.7629 42.8711C61.8605 42.8348 61.9439 42.7681 62.0007 42.6808C62.0575 42.5934 62.0846 42.4902 62.078 42.3862C62.0417 41.362 61.7239 40.3676 61.1594 39.5123C60.5948 38.6569 59.8055 37.9737 58.878 37.5377C58.7623 37.4993 58.636 37.5083 58.527 37.5628C58.4179 37.6174 58.3349 37.7129 58.2962 37.8286C58.2578 37.9443 58.2668 38.0706 58.3214 38.1796C58.3759 38.2887 58.4715 38.3717 58.5871 38.4104C59.1319 38.6752 59.6171 39.0483 60.0131 39.5067C60.4091 39.9652 60.7075 40.4995 60.8902 41.0771C60.5445 40.9331 60.1737 40.8589 59.7992 40.8589C59.4074 40.896 59.0304 41.0279 58.7009 41.2433C58.3715 41.4588 58.0994 41.7512 57.9083 42.0953C57.8789 42.1493 57.8605 42.2086 57.8544 42.2697C57.8482 42.3309 57.8544 42.3926 57.8724 42.4513C57.8905 42.5101 57.9201 42.5646 57.9596 42.6117C57.9991 42.6588 58.0475 42.6975 58.1022 42.7256L58.3204 42.8953Z" fill="#F18380"/>
    <path d="M58.9266 50.2888C60.0903 41.5371 63.4358 27.1368 63.4358 27.1368H69.6662C69.6662 27.1368 69.9086 53.3918 70.0783 59.1374C70.248 64.8829 71.7753 66.6042 71.7753 66.6042C71.7753 66.6042 63.9691 65.1011 63.1206 57.6343C62.8604 59.0769 62.6903 60.5343 62.6115 61.998C62.6115 61.998 57.7872 59.0404 58.9266 50.2888Z" fill="#302D3B"/>
    <path d="M80.3666 155.317L22.5706 176.77C15.4034 179.828 8.13422 178.758 5.24042 170.418C4.71226 168.864 4.50535 167.219 4.63222 165.582C4.75908 163.945 5.21705 162.351 5.97842 160.897C6.73978 159.443 7.78866 158.158 9.0614 157.121C10.3341 156.084 11.8043 155.317 13.3825 154.865L76.9289 139.195C82.8297 137.215 87.3976 139.071 88.8677 143.509C90.5972 148.978 87.8711 152.545 80.3666 155.317Z" fill="#FBBEAA"/>
    <g filter="url(#filter0_d_1_176)">
        <rect x="59.9263" y="111.357" width="40.9288" height="58.3236" rx="1" transform="rotate(-6.55484 59.9263 111.357)" fill="#EFEFEF"/>
    </g>
    <path d="M79.1433 137.497C81.9897 136.294 84.5635 134.512 86.7012 132.263C88.0243 130.874 89.5248 129.669 91.1625 128.679C92.1232 128.079 92.9522 127.286 93.5976 126.352C94.4502 124.902 95.1559 123.371 95.7037 121.783C95.9067 120.415 96.372 119.096 97.0737 117.902C97.7409 117.29 100.096 117.617 101.318 119.993C101.739 121.051 101.93 122.19 101.878 123.334C101.826 124.478 101.531 125.601 101.015 126.627C100.406 127.857 99.9299 129.148 99.5933 130.477L99.8154 130.61C101.678 129.621 103.668 128.904 105.726 128.48C106.472 128.313 107.25 128.404 107.933 128.736C108.616 129.069 109.165 129.625 109.492 130.314C109.819 131.004 109.904 131.787 109.734 132.537C109.565 133.287 109.149 133.961 108.556 134.45C111.767 134.819 111.402 139.771 108.646 140.426C109.236 140.673 109.734 141.099 110.073 141.644C110.412 142.189 110.575 142.827 110.54 143.473C110.506 144.119 110.275 144.741 109.879 145.255C109.484 145.768 108.942 146.15 108.328 146.346C110.286 148.151 108.855 151.126 105.3 151.139C102.411 151.433 94.6864 152.642 91.9987 153.221C89.3111 153.799 83.9089 152.52 82.1736 153.057C79.5905 154.003 76.5903 154.019 74.3018 147.222C72.0134 140.425 76.4851 138.375 79.1433 137.497Z" fill="#FBBEAA"/>
    <path d="M83.5 156L32.5001 175.506C32.5001 175.506 14.6777 182.274 8.00061 176.5C6.76583 175.418 6.06161 173.917 5.38718 172C4.71746 170.096 4.67418 168.532 4.60604 166.892C4.53791 165.252 4.80366 163.615 5.38718 162.08C5.97069 160.546 5.30351 161.5 8.00061 157.5C10.6977 153.5 76 137 76 137L83.5 156Z" fill="#0045BA"/>
    <path d="M167.922 52.3739C167.001 52.3739 166.928 51.7921 166.516 50.7254C168.577 50.7254 174.565 51.1132 177.183 56.1558C174.54 52.5193 169.474 52.3739 167.922 52.3739ZM172.625 33.1978C172.625 33.1978 172.48 34.0463 172.334 35.2827C172.334 35.913 172.189 36.6645 172.14 37.4403C172.092 38.2161 172.019 39.0646 171.946 39.8646C171.946 41.5616 171.825 43.2343 171.825 44.495C171.825 45.7556 171.825 46.6041 171.825 46.6041C171.825 46.6444 171.833 46.6844 171.849 46.7213C171.866 46.7583 171.889 46.7915 171.919 46.8188C171.949 46.8462 171.984 46.8671 172.022 46.8803C172.06 46.8934 172.1 46.8983 172.14 46.895C172.209 46.8915 172.274 46.866 172.326 46.8223C172.379 46.7786 172.416 46.7191 172.431 46.6526C172.431 46.6526 172.577 45.804 172.698 44.5434C172.819 43.2828 173.013 41.61 173.086 39.9373C173.086 39.0888 173.086 38.2403 173.086 37.513C173.086 36.7857 173.086 35.9857 173.086 35.3554C173.086 34.0706 173.086 33.2462 173.086 33.2462C173.086 33.2059 173.078 33.166 173.062 33.1291C173.046 33.0921 173.022 33.0588 172.992 33.0315C172.963 33.0041 172.928 32.9832 172.89 32.9701C172.851 32.957 172.811 32.952 172.771 32.9553C172.724 32.9821 172.686 33.0212 172.66 33.0682C172.635 33.1153 172.623 33.1685 172.625 33.2221V33.1978ZM178.25 34.8948C178.25 34.8948 178.104 35.6221 177.934 36.6888C177.934 37.2463 177.765 37.8766 177.692 38.5554C177.619 39.2342 177.547 39.9615 177.474 40.6888C177.474 42.1434 177.304 43.5979 177.28 44.6889C177.256 45.7798 177.28 46.5313 177.28 46.5313C177.283 46.5696 177.294 46.6068 177.311 46.641C177.329 46.6751 177.353 46.7055 177.382 46.7303C177.411 46.7551 177.445 46.7739 177.482 46.7855C177.518 46.7971 177.557 46.8014 177.595 46.7981C177.66 46.7935 177.722 46.7671 177.77 46.7231C177.819 46.6791 177.851 46.6201 177.862 46.5556C177.862 46.5556 178.007 45.8283 178.177 44.7616C178.347 43.6949 178.492 42.2161 178.613 40.7858C178.613 40.0585 178.613 39.3312 178.759 38.6524C178.904 37.9736 178.759 37.3191 178.759 36.7615C178.759 35.6706 178.759 34.9433 178.759 34.9433C178.759 34.9029 178.751 34.8631 178.735 34.8261C178.718 34.7891 178.695 34.7559 178.665 34.7285C178.635 34.7011 178.601 34.6803 178.562 34.6672C178.524 34.6541 178.484 34.649 178.444 34.6524C178.39 34.6746 178.343 34.7112 178.309 34.7583C178.275 34.8054 178.254 34.861 178.25 34.919V34.8948ZM183.68 37.1978C183.68 37.1978 183.535 37.8039 183.341 38.7251C183.341 39.1615 183.147 39.6949 183.074 40.2767C183.001 40.8586 182.904 41.4646 182.807 42.0707C182.638 43.3071 182.565 44.4949 182.516 45.4647C182.468 46.4344 182.516 47.0162 182.516 47.0162C182.516 47.0566 182.524 47.0964 182.541 47.1334C182.557 47.1704 182.58 47.2036 182.61 47.231C182.64 47.2584 182.675 47.2792 182.713 47.2923C182.751 47.3054 182.791 47.3105 182.831 47.3071C182.893 47.3039 182.953 47.281 183.001 47.2417C183.049 47.2025 183.083 47.149 183.098 47.089C183.098 47.089 183.268 46.4829 183.438 45.5859C183.607 44.6889 183.85 43.4283 183.995 42.2161C183.995 41.5858 184.116 40.9797 184.165 40.3979C184.213 39.8161 184.165 39.2828 184.165 38.8221C184.165 37.9009 184.165 37.2706 184.165 37.2706C184.165 37.2302 184.157 37.1903 184.141 37.1534C184.125 37.1164 184.101 37.0831 184.071 37.0558C184.042 37.0284 184.007 37.0076 183.968 36.9945C183.93 36.9814 183.89 36.9763 183.85 36.9797C183.805 37.0046 183.766 37.0394 183.737 37.0814C183.708 37.1234 183.688 37.1715 183.68 37.2221V37.1978Z" fill="#F18380"/>
    <path d="M85.571 51.4857C83.2307 51.3954 80.9837 50.5443 79.1709 49.0614" stroke="#73102A" stroke-width="0.5" stroke-miterlimit="10" stroke-linecap="round"/>
    <path d="M8.80371 425.594L11.0717 410.853H57.1866L55.6746 425.972L8.80371 425.594Z" fill="#CFD1CE"/>
    <path d="M69.6602 425.594L70.0381 410.853H115.397L115.775 425.972L69.6602 425.594Z" fill="#CFD1CE"/>
    <path d="M38.0399 146.944L48.5 144.5L55 167L45 171L38.0399 146.944Z" fill="#CFD1CE"/>
    <path d="M160.378 106.57L161.512 97.4979L185.704 99.3878L185.326 108.46L160.378 106.57Z" fill="#CFD1CE"/>
    <path d="M75.0414 26.8574C74.0077 29.9581 72.3976 32.8353 70.296 35.3376H65.1518C65.1518 35.3376 61.164 30.7084 60.8649 30.3293C60.4325 29.8681 60.1039 29.3197 59.9009 28.7208C59.698 28.122 59.6256 27.4866 59.6885 26.8574H75.0414Z" fill="#676575"/>
    <path d="M70.2959 35.3377C70.2959 45.3145 67 59.5001 82.5 62.5001C82.5 62.5001 72.569 61.9757 68.7606 57.0871C64.9523 52.1985 65.1517 35.2579 65.1517 35.2579L70.2959 35.3377Z" fill="#827F94"/>
    <path d="M56 28.1345H106.326C106.709 23.5849 106.277 19.0034 105.05 14.6059C103.056 8.89922 99.068 1.91547 82.3792 1.91547C65.6903 1.91547 59.8482 9.73727 58.6718 15.6635C57.4954 21.5897 58.0537 23.5252 57.3558 24.1637C56.658 24.8022 56 24.8222 56 25.78V28.1345Z" fill="#EFEFEF"/>
    <path d="M82.3792 1.91558C86.0186 1.84943 89.6494 2.2927 93.1662 3.23252H93.3257L93.9438 3.43205C95.6285 3.95121 97.2325 4.70342 98.7092 5.66685C99.712 9.8048 99.9752 14.0877 99.4868 18.3174H93.9438L86.5664 17.0603C86.5664 17.0603 84.2336 5.0882 75.939 2.29469C78.0739 2.0143 80.2262 1.8876 82.3792 1.91558Z" fill="#D8D8D8"/>
    <path d="M81.2222 0H92.4877C93.684 0 99.4862 4.50951 99.4862 19.9536H86.6655C86.6655 15.4042 85.8679 3.49188 78.6899 1.99536C78.7099 2.03527 79.7866 0 81.2222 0Z" fill="#EFEFEF"/>
    <path d="M114.361 28.1344V25.2212C114.36 24.8036 114.272 24.3908 114.104 24.0087C113.936 23.6266 113.69 23.2833 113.383 23.0004C113.076 22.7176 112.714 22.5012 112.32 22.3649C111.925 22.2286 111.507 22.1752 111.091 22.2082H104.651C104.281 22.2255 103.911 22.1632 103.567 22.0255C103.224 21.8878 102.913 21.6779 102.657 21.4101C102.238 20.9312 99.387 18.2574 99.0481 17.8583C98.8151 17.5536 98.5124 17.3093 98.1654 17.1461C97.8184 16.9829 97.4373 16.9055 97.0542 16.9205H87.6829C87.3003 16.9088 86.9203 16.9876 86.5738 17.1506C86.2273 17.3135 85.9242 17.556 85.689 17.8583C85.3501 18.2574 82.4988 20.9312 82.08 21.4101C81.8248 21.679 81.5145 21.8896 81.1703 22.0273C80.8262 22.1651 80.4563 22.2268 80.0862 22.2082H74.7226C74.3066 22.1752 73.8883 22.2286 73.4939 22.3649C73.0995 22.5012 72.7375 22.7176 72.4305 23.0004C72.1235 23.2833 71.8782 23.6266 71.7099 24.0087C71.5417 24.3908 71.4541 24.8036 71.4526 25.2212V28.1344H114.361Z" fill="#D8D8D8"/>
    <defs>
        <filter id="filter0_d_1_176" x="60.0337" y="106.793" width="49.104" height="62.3995" filterUnits="userSpaceOnUse" color-interpolation-filters="sRGB">
            <feFlood flood-opacity="0" result="BackgroundImageFix"/>
            <feColorMatrix in="SourceAlpha" type="matrix" values="0 0 0 0 0 0 0 0 0 0 0 0 0 0 0 0 0 0 127 0" result="hardAlpha"/>
            <feOffset dx="2"/>
            <feComposite in2="hardAlpha" operator="out"/>
            <feColorMatrix type="matrix" values="0 0 0 0 0.603922 0 0 0 0 0.6 0 0 0 0 0.631373 0 0 0 1 0"/>
            <feBlend mode="normal" in2="BackgroundImageFix" result="effect1_dropShadow_1_176"/>
            <feBlend mode="normal" in="SourceGraphic" in2="effect1_dropShadow_1_176" result="shape"/>
        </filter>
    </defs>
</svg>
