<svg width="221" height="503" viewBox="0 0 221 503" fill="none" xmlns="http://www.w3.org/2000/svg">
<path d="M112.72 425.838C112.72 425.838 111.595 473.327 111.314 480.431C111.032 487.534 106.509 489.467 99.2211 490.096C91.9328 490.725 88.8629 484.972 87.8318 480.407C86.8006 475.842 80.5669 429.285 80.5669 429.285L112.72 425.838Z" fill="#FBBEAA"/>
<path d="M65.6386 426.986C65.6386 426.986 59.4411 474.61 58.4159 481.7C57.3907 488.789 52.7076 490.297 45.415 490.132C38.1224 489.967 35.7225 483.867 35.1867 479.18C34.6508 474.493 33.4858 426.986 33.4858 426.986H65.6386Z" fill="#FBBEAA"/>
<path d="M46.6383 466.056C49.2852 465.869 51.9096 466.648 54.0133 468.246C56.1171 469.844 57.5535 472.15 58.05 474.725L70.2319 487.06V494.737H31.1892C31.1892 494.737 33.1495 480.904 33.7096 477.791C34.2697 474.679 36.16 466.056 46.6383 466.056Z" fill="#FBBEAA"/>
<path d="M58.1994 474.953C58.6501 474.34 59.2906 473.868 59.7413 474.151C60.1921 474.434 72.1719 483.86 72.7413 484.332C73.0919 484.659 73.3572 485.066 73.5142 485.517C73.6713 485.969 73.7154 486.452 73.6427 486.924V497.033H30.0408C30.0408 497.033 31.7488 482.093 31.8674 481.268C31.986 480.443 32.8163 479.359 33.2907 479.383C36.2834 480.294 39.3894 480.785 42.5188 480.844C46.678 481.063 50.8269 480.253 54.5935 478.487C55.9901 477.523 57.2098 476.327 58.1994 474.953Z" fill="#302D3B"/>
<path d="M66.4274 488.841C64.3628 487.282 56.9393 481.377 54.1555 479.157L54.8051 478.826C54.8927 478.787 54.9717 478.731 55.0371 478.66C58.0064 481.022 64.9891 486.597 66.9841 488.109C68.6707 489.424 69.8259 491.323 70.2319 493.447L69.3272 493.589C68.9445 491.706 67.9167 490.023 66.4274 488.841Z" fill="white"/>
<path d="M31.3301 486.699C34.3713 486.73 37.3143 487.787 39.6884 489.702C41.8343 491.617 43.2878 494.196 43.8207 497.033H42.5528C42.0343 494.575 40.7513 492.346 38.8902 490.672C36.7051 488.909 33.9886 487.95 31.1892 487.952L31.3301 486.699Z" fill="white"/>
<path d="M81.0775 495.885H30.6782C30.3261 495.885 30.0408 496.204 30.0408 496.598V502.062C30.0408 502.456 30.3261 502.775 30.6782 502.775H81.0775C81.4296 502.775 81.7149 502.456 81.7149 502.062V496.598C81.7149 496.204 81.4296 495.885 81.0775 495.885Z" fill="white"/>
<path d="M72.7229 484.43C73.1452 484.259 75.2128 484.834 77.9027 487.368C79.0227 488.477 79.829 489.841 80.2452 491.331C80.6614 492.822 80.6739 494.389 80.2815 495.885H66.7871C67.543 487.709 72.3005 484.6 72.7229 484.43Z" fill="white"/>
<path d="M66.9728 483.956C66.8357 484.157 66.7703 484.413 66.7908 484.671C66.8114 484.928 66.9162 485.165 67.0825 485.331C67.1642 485.411 67.2583 485.471 67.3596 485.508C67.4608 485.545 67.5671 485.558 67.6725 485.546C67.7778 485.534 67.8801 485.497 67.9736 485.438C68.067 485.378 68.1496 485.297 68.2168 485.2L70.0464 482.56C70.1835 482.36 70.2489 482.104 70.2283 481.846C70.2078 481.589 70.103 481.352 69.9366 481.186C69.856 481.103 69.7621 481.04 69.6606 481.001C69.5591 480.963 69.452 480.949 69.3459 480.961C69.2399 480.974 69.137 481.012 69.0435 481.073C68.9501 481.134 68.868 481.217 68.8023 481.317L66.9728 483.956Z" fill="white"/>
<path d="M64.6763 482.402C64.5389 482.652 64.4734 482.972 64.494 483.293C64.5145 483.614 64.6196 483.91 64.7863 484.117C64.867 484.22 64.9611 484.299 65.0629 484.347C65.1646 484.395 65.2719 484.412 65.3782 484.397C65.4845 484.381 65.5876 484.334 65.6812 484.258C65.7748 484.182 65.8571 484.078 65.9229 483.953L67.7562 480.66C67.8891 480.408 67.9518 480.09 67.9314 479.771C67.9109 479.452 67.8088 479.157 67.6462 478.946C67.5654 478.842 67.4714 478.764 67.3696 478.716C67.2679 478.668 67.1606 478.651 67.0543 478.666C66.948 478.681 66.8449 478.728 66.7513 478.805C66.6576 478.881 66.5754 478.984 66.5096 479.109L64.6763 482.402Z" fill="white"/>
<path d="M61.2963 479.773C61.1154 479.919 61.0264 480.108 61.0488 480.299C61.0713 480.49 61.2034 480.666 61.4161 480.791C61.6359 480.914 61.9176 480.972 62.2002 480.954C62.4827 480.935 62.7432 480.841 62.9252 480.692L65.3206 478.706C65.4212 478.639 65.5013 478.559 65.5559 478.47C65.6105 478.381 65.6387 478.286 65.6387 478.189C65.6387 478.093 65.6105 477.998 65.5559 477.909C65.5013 477.82 65.4212 477.74 65.3206 477.672C65.0984 477.553 64.8181 477.497 64.5374 477.516C64.2567 477.534 63.9969 477.625 63.8115 477.771L61.2963 479.773Z" fill="white"/>
<path d="M58.9322 477.741C58.8652 477.865 58.8148 478.007 58.784 478.16C58.7532 478.312 58.7426 478.473 58.7527 478.632C58.7629 478.791 58.7936 478.945 58.8431 479.086C58.8927 479.227 58.9601 479.352 59.0415 479.454C59.1946 479.681 59.4005 479.809 59.615 479.809C59.8295 479.809 60.0354 479.681 60.1885 479.454L62.0092 476.085C62.1457 475.831 62.2107 475.506 62.1903 475.181C62.1698 474.855 62.0655 474.555 61.9 474.345C61.8187 474.243 61.725 474.167 61.6243 474.12C61.5235 474.074 61.4177 474.057 61.3129 474.073C61.208 474.088 61.1062 474.135 61.0133 474.21C60.9203 474.285 60.838 474.387 60.7711 474.511L58.9322 477.741Z" fill="white"/>
<path d="M102.915 466.056C105.563 465.869 108.189 466.648 110.294 468.246C112.399 469.844 113.837 472.15 114.333 474.725L126.499 487.06V494.737H87.4565C87.4565 494.737 89.3946 480.904 89.9784 477.791C90.5622 474.679 92.4303 466.056 102.915 466.056Z" fill="#FBBEAA"/>
<path d="M113.341 474.953C113.792 474.34 114.409 473.868 114.884 474.151C115.359 474.434 127.324 483.86 127.87 484.332C128.416 484.803 128.796 485.392 128.796 486.924V497.033H85.1602C85.1602 497.033 86.8695 482.093 86.9882 481.268C87.1069 480.443 87.9378 479.359 88.4127 479.383C91.4077 480.294 94.5161 480.785 97.6479 480.844C101.803 481.067 105.948 480.257 109.708 478.487C111.117 477.528 112.346 476.331 113.341 474.953Z" fill="#302D3B"/>
<path d="M120.398 488.841C118.334 487.282 110.91 481.377 108.126 479.157L108.753 478.826C108.848 478.788 108.934 478.732 109.008 478.66C111.977 481.022 118.96 486.597 120.955 488.109C122.642 489.424 123.797 491.323 124.203 493.447L123.298 493.589C122.904 491.71 121.879 490.031 120.398 488.841Z" fill="white"/>
<path d="M87.5846 486.699C90.3494 486.73 93.0248 487.787 95.1831 489.702C97.1339 491.617 98.4553 494.196 98.9397 497.033H97.7871C97.3099 494.572 96.1359 492.343 94.436 490.672C92.4596 488.906 89.9956 487.945 87.4565 487.952L87.5846 486.699Z" fill="white"/>
<path d="M135.048 495.885H84.6491C84.2971 495.885 84.0117 496.204 84.0117 496.598V502.062C84.0117 502.456 84.2971 502.775 84.6491 502.775H135.048C135.401 502.775 135.686 502.456 135.686 502.062V496.598C135.686 496.204 135.401 495.885 135.048 495.885Z" fill="white"/>
<path d="M127.188 484.43C127.646 484.259 129.886 484.834 132.8 487.368C134.013 488.477 134.886 489.841 135.337 491.331C135.788 492.822 135.802 494.389 135.377 495.885H120.758C121.577 487.709 126.731 484.6 127.188 484.43Z" fill="white"/>
<path d="M122.154 483.956C121.971 484.157 121.883 484.413 121.911 484.671C121.938 484.928 122.078 485.165 122.3 485.331C122.41 485.411 122.535 485.471 122.671 485.508C122.806 485.545 122.948 485.558 123.089 485.546C123.229 485.534 123.366 485.497 123.491 485.438C123.616 485.378 123.726 485.297 123.816 485.2L126.26 482.56C126.438 482.358 126.521 482.103 126.494 481.847C126.467 481.591 126.331 481.355 126.114 481.186C126.006 481.103 125.881 481.04 125.745 481.001C125.609 480.963 125.466 480.949 125.325 480.961C125.183 480.974 125.045 481.012 124.921 481.073C124.796 481.134 124.686 481.217 124.598 481.317L122.154 483.956Z" fill="white"/>
<path d="M119.796 482.399C119.659 482.649 119.593 482.97 119.614 483.291C119.634 483.613 119.739 483.909 119.906 484.116C119.987 484.22 120.081 484.298 120.183 484.347C120.284 484.395 120.392 484.412 120.498 484.397C120.604 484.381 120.707 484.334 120.801 484.258C120.894 484.181 120.977 484.078 121.043 483.953L122.876 480.654C123.009 480.402 123.071 480.083 123.051 479.763C123.031 479.444 122.928 479.148 122.766 478.937C122.598 478.733 122.382 478.635 122.166 478.666C121.95 478.697 121.75 478.853 121.611 479.101L119.796 482.399Z" fill="white"/>
<path d="M116.49 479.775C116.387 479.841 116.305 479.919 116.249 480.007C116.193 480.094 116.165 480.188 116.165 480.283C116.165 480.378 116.193 480.472 116.249 480.559C116.305 480.646 116.387 480.725 116.49 480.791C116.716 480.914 117.006 480.972 117.297 480.954C117.588 480.935 117.856 480.841 118.043 480.692L120.508 478.71C120.692 478.559 120.78 478.366 120.753 478.173C120.725 477.98 120.584 477.802 120.36 477.677C120.25 477.617 120.123 477.571 119.987 477.544C119.85 477.516 119.707 477.506 119.565 477.516C119.423 477.525 119.285 477.552 119.159 477.597C119.033 477.642 118.922 477.702 118.832 477.775L116.49 479.775Z" fill="white"/>
<path d="M114.112 477.741C114.023 477.865 113.955 478.007 113.914 478.16C113.873 478.312 113.859 478.473 113.873 478.632C113.886 478.791 113.927 478.945 113.993 479.086C114.059 479.227 114.149 479.352 114.258 479.454C114.462 479.681 114.736 479.809 115.022 479.809C115.308 479.809 115.583 479.681 115.787 479.454L118.215 476.085C118.397 475.831 118.483 475.506 118.456 475.181C118.429 474.855 118.29 474.555 118.069 474.345C117.961 474.243 117.836 474.167 117.701 474.12C117.567 474.074 117.426 474.057 117.286 474.073C117.146 474.088 117.011 474.135 116.887 474.21C116.763 474.285 116.653 474.387 116.564 474.511L114.112 477.741Z" fill="white"/>
<path d="M37.1229 325.067C36.7332 328.099 36.9381 331.179 37.7256 334.13C38.5131 337.081 39.8677 339.844 41.7109 342.259C43.5541 344.673 45.8495 346.692 48.4641 348.198C51.0788 349.704 53.9608 350.667 56.9436 351.032C59.9264 351.397 62.9506 351.157 65.8414 350.324C68.7322 349.492 71.4322 348.084 73.7851 346.183C76.1381 344.282 78.0973 341.924 79.5495 339.248C81.0016 336.571 81.9179 333.627 82.2453 330.588C82.2453 330.588 94.0753 246.013 96.8808 228.926C99.6863 211.84 96.7172 197.538 77.9201 193.469C58.4216 189.257 46.2409 203.797 44.768 218.361C43.2951 232.924 37.1229 325.067 37.1229 325.067Z" fill="#013EA5"/>
<path d="M75.1108 326.693C75.0352 332.812 77.3959 338.709 81.6736 343.089C85.9514 347.469 91.7958 349.972 97.921 350.047C104.046 350.123 109.951 347.765 114.335 343.492C118.72 339.219 121.226 333.381 121.301 327.263C121.301 327.263 124.224 242.105 125.222 224.851C126.22 207.596 121.705 193.759 102.269 191.765C82.1202 189.7 71.3804 205.436 71.3804 220.056C71.3804 234.676 75.1108 326.693 75.1108 326.693Z" fill="#013EA5"/>
<path d="M74.8252 326.88C74.8634 323.854 75.51 320.864 76.7282 318.082C77.9464 315.301 79.7124 312.781 81.9252 310.667C84.1381 308.554 86.7545 306.887 89.625 305.764C92.4956 304.64 95.5641 304.081 98.6553 304.118C101.747 304.156 104.8 304.789 107.641 305.982C110.483 307.174 113.056 308.903 115.215 311.07C117.374 313.236 119.076 315.798 120.224 318.608C121.371 321.419 121.942 324.423 121.904 327.449L117.061 449.391L79.0633 453.398L74.8252 326.88Z" fill="#013EA5"/>
<path d="M37.203 325.417C37.9863 319.369 41.1007 313.878 45.8695 310.136C50.6384 306.393 56.6766 304.703 62.6726 305.431C68.6686 306.159 74.1381 309.246 77.893 314.024C81.6479 318.801 83.385 324.881 82.7269 330.944L64.9654 452.249H27.7444L37.203 325.417Z" fill="#013EA5"/>
<path d="M81.715 329.38L64.4902 451.101" stroke="#013EA5" stroke-width="0.75" stroke-miterlimit="10" stroke-linecap="round"/>
<path d="M82.8638 330.528C82.8638 330.528 94.9302 246.46 97.7919 229.476" stroke="#F5F5F5" stroke-width="0.75" stroke-miterlimit="10" stroke-linecap="round"/>
<path d="M123.054 201.917C123.054 201.917 123.054 225.878 123.054 227.195C123.054 228.512 111.535 239.811 96.2364 239.811C72.7131 239.811 44.5588 231.192 44.9735 225.578C45.25 221.881 45.5956 201.917 45.5956 201.917H123.054Z" fill="#013EA5"/>
<path d="M101.964 88.5029C102.658 88.5029 104.134 88.5029 105.436 88.937C105.436 89.9787 103.121 90.8179 101.964 91.1072C101.674 90.2391 101.269 88.5029 101.964 88.5029Z" fill="#013FA9"/>
<path d="M103.366 69.5053H76.3555V101.272H103.366V69.5053Z" fill="#FBBEAA"/>
<path d="M76.3788 69.5053H103.3V87.2284C102.124 87.3745 100.94 87.4494 99.7553 87.4527C90.4675 87.4527 80.0805 84.9177 76.2891 76.0561L76.3788 69.5053Z" fill="#F18380"/>
<path d="M117.322 45.927C117.12 55.1027 117.322 62.349 115.684 69.3485C114.046 76.348 108.954 82.0687 97.7366 82.0687C86.5195 82.0687 73.7319 78.4119 72.8345 64.3905C70.9949 62.3938 68.0112 55.2822 67.899 47.318C67.7868 39.3538 68.3926 22.5056 86.5643 19.9257C104.736 17.3457 117.838 24.0087 117.322 45.927Z" fill="#FBBEAA"/>
<path d="M107.852 53.1507C107.852 54.3846 108.592 55.3942 109.512 55.3942C110.432 55.3942 111.172 54.3846 111.172 53.1507C111.172 51.9169 110.432 50.9073 109.512 50.9073C108.592 50.9073 107.852 51.8271 107.852 53.1507Z" fill="#403D4F"/>
<path d="M87.6636 53.1507C87.6636 54.3846 88.4039 55.3942 89.3237 55.3942C90.2435 55.3942 90.9839 54.3846 90.9839 53.1507C90.9839 51.9169 90.2211 50.9073 89.3237 50.9073C88.4264 50.9073 87.6636 51.8271 87.6636 53.1507Z" fill="#403D4F"/>
<path d="M91.8121 46.1063C91.6326 46.3082 90.466 46.1063 89.5687 46.1063C88.6713 46.1063 86.9438 46.1063 86.9438 45.9044C86.9438 45.7025 87.7964 44.3116 90.0398 44.5583C91.5653 44.7378 92.014 45.7474 91.8121 46.1063Z" fill="#403D4F"/>
<path d="M107.516 46.1063C107.651 46.3082 108.66 46.1063 109.446 46.1063C110.231 46.1063 111.689 46.1063 111.689 45.9044C111.689 45.7025 110.971 44.3116 109.064 44.5583C107.516 44.7378 107.225 45.7474 107.516 46.1063Z" fill="#403D4F"/>
<path d="M100.787 62.4384C102.358 62.4384 103.614 61.4065 103.659 60.6661L103.143 54.3396C103.126 54.1829 103.048 54.0389 102.927 53.9384C102.805 53.8378 102.649 53.7886 102.492 53.8012C102.415 53.8069 102.341 53.8277 102.272 53.8624C102.203 53.897 102.142 53.9449 102.092 54.0033C102.042 54.0617 102.004 54.1294 101.98 54.2025C101.957 54.2756 101.948 54.3527 101.954 54.4294L102.447 60.5315C102.221 60.7774 101.942 60.9695 101.631 61.0937C101.321 61.2179 100.986 61.2711 100.653 61.2494C100.574 61.2433 100.495 61.2531 100.421 61.2783C100.346 61.3035 100.277 61.3435 100.219 61.3959C100.16 61.4482 100.113 61.512 100.079 61.5832C100.046 61.6544 100.027 61.7317 100.024 61.8103C100.021 61.8898 100.034 61.9692 100.062 62.0438C100.089 62.1185 100.132 62.1869 100.186 62.2453C100.24 62.3036 100.305 62.3507 100.377 62.3838C100.45 62.417 100.528 62.4355 100.608 62.4384H100.787Z" fill="#F18380"/>
<path d="M99.5072 66.9248C101.392 67.037 104.555 68.0914 104.577 68.9215C104.548 70.4627 103.912 71.9301 102.807 73.0053C101.703 74.0805 100.219 74.6767 98.6772 74.6647C91.7674 74.6647 91.7898 69.3253 92.0815 68.1587C92.3731 66.9921 96.0075 66.7005 99.5072 66.9248Z" fill="#73102A"/>
<path d="M92.061 70.0211C93.9299 69.3442 95.9685 69.2956 97.8675 69.8827C99.7665 70.4698 101.422 71.6605 102.583 73.274C101.51 74.2251 100.111 74.7236 98.6792 74.665C93.7885 74.665 92.3751 72.0177 92.061 70.0211Z" fill="#D65155"/>
<path d="M92.3525 67.7553C93.3172 66.9253 96.4804 66.7233 99.5091 66.9253C101.371 67.0374 104.512 68.0694 104.579 68.9219C100.469 69.5046 96.2787 69.1048 92.3525 67.7553Z" fill="white"/>
<path d="M84.1406 37.8055C84.1406 43.3243 81.8971 45.7248 80.2146 46.7792C78.532 47.8336 77.2981 48.888 77.2981 50.7949V57.5252C77.2981 58.288 76.8494 58.8713 76.2661 58.6694C75.6828 58.4675 73.5067 57.3682 73.5067 56.2689L66.7764 51.5128C65.0258 47.3663 64.3766 42.8377 64.8919 38.3663C65.0922 35.8592 65.8313 33.4249 67.0586 31.2296C68.286 29.0342 69.9727 27.1297 72.0036 25.6461C72.0036 20.8676 76.4905 12.365 85.9353 8.99982C86.1663 10.727 86.1663 12.4773 85.9353 14.2046C90.2203 10.3234 104.646 9.13442 109.828 10.9292C109.067 12.629 107.968 14.1558 106.597 15.416C113.676 17.0508 117.206 21.0758 121.664 26.8127C120.244 28.6645 121.216 30.1938 119.161 31.2995C121.518 34.5425 122.917 38.3826 123.199 42.3821C118.939 41.9877 114.764 40.9515 110.815 39.3086C111.036 41.2802 110.922 43.275 110.478 45.2088C105.992 44.9396 97.5114 40.363 95.1109 36.6838C95.4866 39.6804 95.3194 42.7201 94.6174 45.6575C90.4467 44.0948 86.811 41.37 84.1406 37.8055Z" fill="#403D4F"/>
<path d="M73.3037 57.4131C73.3037 54.8556 72.7877 51.0866 69.1758 50.9969C65.5639 50.9072 65.0703 53.6441 65.1825 57.9515C65.2946 62.2589 69.6693 65.9157 73.5056 64.435L73.3037 57.4131Z" fill="#FBBEAA"/>
<path d="M67.9864 60.509C68.1411 60.4765 68.2778 60.3868 68.3693 60.2579C68.4608 60.129 68.5003 59.9703 68.48 59.8136C68.4805 59.6898 68.514 59.5684 68.5771 59.4619C68.6402 59.3554 68.7306 59.2677 68.8389 59.2078C69.0724 59.0553 69.3452 58.9741 69.6241 58.9741C69.903 58.9741 70.1758 59.0553 70.4093 59.2078C70.5048 59.263 70.6131 59.292 70.7234 59.292C70.8337 59.292 70.942 59.263 71.0375 59.2078C71.1348 59.1523 71.2141 59.0698 71.2659 58.9703C71.3176 58.8709 71.3396 58.7586 71.3291 58.647C70.9926 55.035 68.7043 54.362 68.6146 54.3396C68.538 54.3159 68.4573 54.3084 68.3777 54.3173C68.298 54.3262 68.221 54.3515 68.1516 54.3915C68.0821 54.4315 68.0216 54.4853 67.9739 54.5498C67.9262 54.6142 67.8923 54.6877 67.8742 54.7658C67.8328 54.9146 67.8521 55.0737 67.9278 55.2082C68.0035 55.3428 68.1294 55.4419 68.2781 55.4837C68.7239 55.6899 69.1125 56.0022 69.4097 56.3933C69.7069 56.7844 69.9038 57.2424 69.9831 57.7272C69.3683 57.627 68.7381 57.7546 68.2108 58.0861C67.8994 58.2619 67.6477 58.5266 67.4878 58.8464C67.3279 59.1661 67.2672 59.5263 67.3134 59.8809C67.3054 59.9693 67.3178 60.0584 67.3495 60.1413C67.3812 60.2243 67.4314 60.2989 67.4963 60.3595C67.5612 60.42 67.6392 60.465 67.7241 60.4909C67.809 60.5169 67.8987 60.523 67.9864 60.509Z" fill="#F18380"/>
<path d="M193.943 103.612L182.807 173.515C180.97 182.284 183.809 190.218 193.943 191.61C195.813 191.853 197.713 191.714 199.529 191.201C201.344 190.688 203.036 189.811 204.501 188.623C205.967 187.436 207.176 185.963 208.055 184.295C208.935 182.626 209.465 180.796 209.616 178.915L213.012 103.752C213.903 96.6528 210.813 91.9203 205.412 91.3357C198.786 90.6119 195.279 94.5371 193.943 103.612Z" fill="#FBBEAA"/>
<path d="M202.99 165.775L123.038 105.032C113.713 99.0746 107.365 102.248 102.41 108.623C100.147 111.709 99.098 115.519 99.4625 119.328C99.827 123.137 101.58 126.679 104.387 129.279L184.144 188.046C186.954 190.42 190.573 191.618 194.244 191.389C197.916 191.161 201.358 189.525 203.853 186.821L204.215 186.432C205.539 185.019 206.562 183.351 207.22 181.53C207.879 179.709 208.159 177.773 208.045 175.84C207.93 173.907 207.423 172.018 206.554 170.287C205.685 168.557 204.472 167.022 202.99 165.775Z" fill="#FBBEAA"/>
<path d="M194.275 101.747C194.39 99.2381 193.719 96.7564 192.355 94.648C190.254 92.2128 188.681 89.3693 187.733 86.2964C187.004 83.444 185.84 80.7209 184.281 78.2232C183.168 76.6921 181.498 75.4394 181.498 74.2702C181.498 73.101 183.725 70.8461 186.898 71.4864C188.258 71.9098 189.507 72.6286 190.556 73.5911C191.605 74.5536 192.428 75.7361 192.967 77.0541C193.271 76.2511 193.449 75.406 193.496 74.5486L194.192 57.4837C194.202 57.0413 194.302 56.6055 194.483 56.202C194.665 55.7986 194.926 55.4356 195.25 55.1346C195.575 54.8336 195.956 54.6006 196.372 54.4495C196.788 54.2983 197.23 54.232 197.672 54.2544C198.375 54.2844 199.052 54.5342 199.606 54.9686C200.16 55.4031 200.565 56.0003 200.762 56.6763V55.8969C200.869 55.0673 201.286 54.309 201.929 53.7741C202.572 53.2392 203.394 52.9673 204.229 53.0131C205.064 53.0589 205.851 53.419 206.432 54.021C207.012 54.623 207.344 55.4225 207.359 56.2588V58.6251C207.638 57.8955 208.17 57.2905 208.858 56.9202C209.545 56.5498 210.343 56.439 211.106 56.6077C211.868 56.7764 212.545 57.2134 213.012 57.8392C213.479 58.465 213.706 59.2379 213.651 60.017V61.5202C213.951 60.9936 214.397 60.5658 214.936 60.2889C215.475 60.0121 216.083 59.8982 216.685 59.9612C217.511 60.066 218.262 60.4878 218.782 61.1373C219.302 61.7868 219.548 62.613 219.469 63.441L218.105 77.8335C217.212 85.9478 215.533 93.9563 213.094 101.747C213.065 103.047 212.763 104.328 212.21 105.505C211.656 106.682 210.862 107.731 209.878 108.583C208.895 109.435 207.745 110.072 206.501 110.453C205.256 110.834 203.946 110.95 202.655 110.794C201.486 110.833 200.322 110.62 199.243 110.17C198.163 109.72 197.193 109.043 196.398 108.185C195.604 107.326 195.003 106.307 194.636 105.197C194.27 104.086 194.147 102.909 194.275 101.747Z" fill="#FBBEAA"/>
<path d="M116.439 100.689L185.628 147.353C185.337 149.74 190.944 100.689 190.944 100.689L216.553 103.079C216.553 103.079 215.057 153.019 211.288 179.393C209.793 189.86 201.08 193.83 190.75 191.576C185.65 190.463 180.848 188.37 176.575 185.371C158.215 172.484 106.704 136.184 102.493 131.617C95.2267 123.739 95.2266 117.837 99.4024 111.351C103.578 104.865 112.514 99.7146 116.439 100.689Z" fill="#013EA5"/>
<path d="M194.832 79.4764C193.775 79.4764 193.691 78.8083 193.218 77.5834C195.584 77.5834 202.46 78.0288 205.467 83.8191C202.432 79.6434 196.614 79.4764 194.832 79.4764ZM200.233 57.4562C200.233 57.4562 200.066 58.4306 199.899 59.8503C199.899 60.5741 199.732 61.4371 199.676 62.3279C199.621 63.2187 199.537 64.1931 199.454 65.1117C199.454 67.0604 199.314 68.9813 199.314 70.4289C199.314 71.8765 199.314 72.8508 199.314 72.8508C199.314 72.8971 199.324 72.943 199.342 72.9855C199.361 73.0279 199.388 73.066 199.422 73.0974C199.456 73.1288 199.496 73.1529 199.54 73.1679C199.584 73.183 199.63 73.1887 199.676 73.1848C199.755 73.1809 199.83 73.1516 199.89 73.1014C199.95 73.0512 199.992 72.9829 200.01 72.9065C200.01 72.9065 200.177 71.9321 200.317 70.4845C200.456 69.0369 200.678 67.1161 200.762 65.1952C200.762 64.2209 200.762 63.2466 200.762 62.4114C200.762 61.5762 200.762 60.6576 200.762 59.9338C200.762 58.4584 200.762 57.5118 200.762 57.5118C200.762 57.4655 200.753 57.4197 200.734 57.3772C200.716 57.3348 200.689 57.2966 200.654 57.2652C200.62 57.2338 200.58 57.2098 200.536 57.1948C200.493 57.1797 200.446 57.1739 200.4 57.1778C200.347 57.2085 200.303 57.2534 200.273 57.3074C200.244 57.3614 200.23 57.4226 200.233 57.484V57.4562ZM206.692 59.4049C206.692 59.4049 206.525 60.24 206.33 61.4649C206.33 62.1052 206.135 62.829 206.051 63.6084C205.968 64.3879 205.884 65.2231 205.801 66.0582C205.801 67.7285 205.606 69.3988 205.578 70.6515C205.55 71.9043 205.578 72.7673 205.578 72.7673C205.582 72.8112 205.594 72.854 205.614 72.8932C205.634 72.9324 205.662 72.9673 205.695 72.9957C205.729 73.0242 205.768 73.0458 205.81 73.0591C205.852 73.0725 205.896 73.0774 205.94 73.0736C206.015 73.0683 206.086 73.038 206.141 72.9875C206.197 72.937 206.234 72.8692 206.246 72.7952C206.246 72.7952 206.413 71.9599 206.608 70.7351C206.803 69.5102 206.97 67.8121 207.109 66.1696C207.109 65.3344 207.109 64.4993 207.276 63.7198C207.443 62.9403 207.276 62.1887 207.276 61.5484C207.276 60.2957 207.276 59.4605 207.276 59.4605C207.276 59.4142 207.267 59.3684 207.248 59.326C207.23 59.2835 207.203 59.2453 207.169 59.2139C207.135 59.1825 207.094 59.1585 207.051 59.1435C207.007 59.1284 206.96 59.1226 206.914 59.1265C206.852 59.152 206.799 59.1941 206.76 59.2481C206.72 59.3022 206.697 59.366 206.692 59.4327V59.4049ZM212.927 62.0495C212.927 62.0495 212.76 62.7455 212.538 63.8033C212.538 64.3044 212.315 64.9169 212.231 65.585C212.148 66.2531 212.037 66.9491 211.925 67.645C211.73 69.0648 211.647 70.4289 211.591 71.5424C211.535 72.6559 211.591 73.3241 211.591 73.3241C211.591 73.3704 211.6 73.4162 211.619 73.4587C211.637 73.5011 211.665 73.5393 211.699 73.5707C211.733 73.6021 211.773 73.6261 211.817 73.6411C211.86 73.6562 211.907 73.662 211.953 73.6581C212.024 73.6544 212.092 73.6281 212.147 73.583C212.202 73.538 212.242 73.4765 212.259 73.4076C212.259 73.4076 212.454 72.7117 212.649 71.6816C212.844 70.6516 213.122 69.204 213.289 67.8121C213.289 67.0883 213.428 66.3923 213.484 65.7242C213.54 65.0561 213.484 64.4436 213.484 63.9147C213.484 62.8568 213.484 62.133 213.484 62.133C213.484 62.0867 213.475 62.0409 213.456 61.9984C213.438 61.956 213.411 61.9178 213.377 61.8864C213.343 61.855 213.302 61.831 213.259 61.8159C213.215 61.8009 213.168 61.7951 213.122 61.799C213.071 61.8276 213.027 61.8676 212.993 61.9158C212.959 61.964 212.937 62.0192 212.927 62.0774V62.0495Z" fill="#F18380"/>
<path d="M186.17 141.71L187.472 131.293L215.251 133.463L214.817 143.88L186.17 141.71Z" fill="#CFD1CE"/>
<path d="M105.397 94.137C105.397 94.137 122.206 103.843 124.829 105.541C127.452 107.24 130.416 109.86 129.881 116.945C129.347 124.03 127.088 219.403 127.088 219.403C118.461 220.864 93.1983 220.864 93.1983 220.864H90.9017H89.1792H86.8826H85.1601H83.4377C83.4377 220.864 45.985 217.681 45.232 217.244C44.479 216.807 43.7746 216.346 43.8232 215.521C43.8718 214.696 44.3576 117.746 44.6733 113.475C44.7359 111.188 45.4563 108.968 46.7484 107.079C48.0406 105.19 49.85 103.713 51.9602 102.824C57.0367 100.567 76.1041 92.8268 76.1041 92.8268L92.1187 94.137H105.397Z" fill="#034CC9"/>
<path d="M105.397 94.137C105.397 94.137 122.206 103.843 124.829 105.541C127.452 107.24 130.416 109.86 129.881 116.945C129.347 124.03 127.088 219.403 127.088 219.403C118.461 220.864 104.681 220.864 104.681 220.864H102.385H100.662H98.3656H96.6432H94.9207C94.9207 220.864 97.659 217.681 96.906 217.244C96.1531 216.807 95.4486 216.346 95.4972 215.521C95.5458 214.696 96.0316 117.746 96.3474 113.475C96.4099 111.188 97.1303 108.968 98.4225 107.079C99.7147 105.19 101.524 103.713 103.634 102.824C108.711 100.567 76.104 92.8268 76.104 92.8268L92.1186 94.137H105.397Z" fill="#0045BA"/>
<path d="M107.305 94.2769C107.305 94.2769 125.888 105.018 128.788 106.898C131.688 108.778 129.37 112.922 129.37 120.386C129.37 130.147 127.648 130.721 127.648 130.721C121.837 133.857 119.295 131.411 112.89 133.019C109.775 133.368 107.358 133.448 105.264 131.407C103.169 129.366 96.6433 130.147 96.6433 130.147C96.6433 130.147 86.8152 128.856 82.2232 131.407C81.1249 132.173 79.8837 132.711 78.5736 132.988C77.2634 133.264 76.2332 133.244 74.9189 132.988C68.2592 131.618 41.6202 123.969 40.7877 123.485C39.9552 123.002 39.1765 122.492 39.2302 121.579C39.2839 120.666 39.821 120.406 40.1701 115.679C40.2392 113.148 41.0356 110.691 42.4643 108.6C43.8929 106.51 45.8932 104.875 48.2262 103.891C53.8387 101.393 74.9189 92.8268 74.9189 92.8268L92.6242 93.4009L107.305 94.2769Z" fill="#9A99A1"/>
<path d="M94.1511 90.2392C86.1646 90.2392 78.9593 86.7667 76.355 85.0305V92.8435C76.6443 93.2775 78.8725 94.6665 85.4701 96.7499C92.0677 98.8334 101.53 98.0521 105.437 96.7499V88.937C105.437 89.371 104.134 90.2392 94.1511 90.2392Z" fill="#034CC9"/>
<path d="M94.585 220.455C96.803 219.711 98.7442 218.277 100.143 216.35C101.541 214.422 102.329 212.096 102.398 209.689V90.6731H94.585V220.455Z" fill="#034CC9"/>
<path d="M129.37 133.644H89.9912V124.963L129.37 124.98C129.37 128.999 129.37 130.147 129.37 133.644Z" fill="#D3D4D2"/>
<path d="M58.1558 124.963H97.8043V133.644H57.3429C57.8716 129.738 58.1558 128.002 58.1558 124.963Z" fill="#CFD1CE"/>
<g style="mix-blend-mode:multiply" opacity="0.4">
<path d="M93.7168 97.8742L94.5849 98.0521V220.455H93.7168V97.8742Z" fill="#013FA9"/>
</g>
<path d="M41.6857 108.654C35.609 116.467 0.9375 211.812 0.9375 211.812C33.4915 201.395 29.95 173.387 47.6552 176.366C47.6552 176.366 68.0718 128.446 68.8512 124.158C69.6647 120.779 69.2996 117.223 67.8163 114.079C66.333 110.935 63.8204 108.392 60.6946 106.871C51.9812 102.417 47.7625 100.84 41.6857 108.654Z" fill="#0045BA"/>
<path d="M59.1628 153.778C64.0902 148.795 73.3047 138.049 76.4226 135.433C79.5056 133.11 82.8737 131.192 86.4445 129.726C89.1536 128.818 91.9542 128.211 94.796 127.916C96.7725 127.666 97.5798 128.25 97.5798 129.447C97.5301 130.16 97.3029 130.85 96.9188 131.453C96.5347 132.056 96.0059 132.553 95.3806 132.899H99.0274C100.28 132.899 101.087 133.901 100.503 135.516C99.9719 136.583 99.2129 137.52 98.2796 138.261C97.3463 139.002 96.2616 139.528 95.1022 139.803C95.1022 139.803 100.03 140.276 101.282 140.527C102.535 140.777 102.925 141.251 102.925 142.448C102.914 143.275 102.684 144.084 102.259 144.793C101.833 145.502 101.227 146.086 100.503 146.484C98.7294 147.204 96.8469 147.618 94.9351 147.709C94.9351 147.709 101.032 149.24 102.257 149.686C103.482 150.131 103.621 150.938 102.98 151.996C102.616 152.742 102.089 153.396 101.439 153.911C100.788 154.426 100.031 154.79 99.2223 154.975C96.9117 155.588 95.3527 154.585 94.5176 154.725C92.7232 155.303 90.9661 155.991 89.2562 156.785C86.6884 159.341 83.5489 161.25 80.0973 162.352C77.5281 163.43 75.1715 164.958 73.1377 166.862C72.1904 167.751 71.0744 168.441 69.8557 168.891C68.6371 169.341 67.3406 169.543 66.0428 169.483C64.7451 169.423 63.4725 169.104 62.3003 168.544C61.1281 167.984 60.0802 167.194 59.2185 166.222C54.7644 161.489 55.516 157.536 59.1628 153.778Z" fill="#FBBEAA"/>
<path d="M75.5416 170.723L30.7269 221.117C25.3565 228.275 12.8072 232.208 5.13975 225.577C3.72184 224.335 2.57105 222.817 1.75716 221.117C0.943274 219.417 0.483246 217.569 0.405005 215.685C0.326765 213.802 0.631934 211.922 1.30199 210.16C1.97205 208.398 2.99304 206.79 4.30303 205.435L58.6135 148.586L75.5416 170.723Z" fill="#0045BA"/>
<path d="M94.7689 132.927C94.7768 132.973 94.775 133.02 94.7635 133.066C94.752 133.111 94.7313 133.153 94.7024 133.19C94.6735 133.227 94.6372 133.257 94.596 133.279C94.5547 133.301 94.5093 133.314 94.4627 133.317L92.18 133.539H91.0665C90.6767 133.539 90.3148 133.679 89.9251 133.707C89.5133 133.83 89.1129 133.988 88.728 134.18L87.4474 134.709C85.7214 135.405 83.9955 136.045 82.7149 136.518C81.4343 136.991 80.5435 137.27 80.5435 137.27C80.4729 137.3 80.3937 137.302 80.3216 137.276C80.2494 137.25 80.1895 137.198 80.1538 137.131C80.1018 137.063 80.0737 136.98 80.0737 136.894C80.0737 136.808 80.1018 136.725 80.1538 136.657L82.2416 135.572L84.413 134.542C85.1925 134.18 86.0555 133.818 86.9185 133.484L88.2269 132.983C88.6477 132.793 89.0858 132.643 89.5353 132.537L90.8716 132.398H92.0129H93.711H94.3514C94.4215 132.343 94.5108 132.317 94.5995 132.328C94.6883 132.338 94.7693 132.384 94.8247 132.454C94.88 132.524 94.9053 132.613 94.8948 132.702C94.8844 132.791 94.8391 132.872 94.7689 132.927ZM94.24 139.636H93.7389C93.3222 139.599 92.9029 139.599 92.4862 139.636L91.6232 139.775C91.3051 139.815 90.9892 139.871 90.6767 139.942L88.7837 140.555C87.5031 140.972 86.2504 141.501 85.3039 141.891C85.3039 141.891 84.9976 141.891 85.0255 142.03H84.6914L84.1904 142.169H83.8841H83.7171C83.633 142.189 83.56 142.241 83.5133 142.314C83.4665 142.386 83.4498 142.474 83.4665 142.559C83.4787 142.626 83.5126 142.687 83.563 142.732C83.6133 142.777 83.6774 142.805 83.7449 142.81H85.1647H85.6101C86.5844 142.559 87.8928 142.169 89.1734 141.724L91.0386 141.028L91.9016 140.805L92.6532 140.583C93.0376 140.469 93.428 140.376 93.8224 140.304L94.2957 140.165C94.3378 140.152 94.3769 140.131 94.4109 140.103C94.4449 140.076 94.4731 140.041 94.4937 140.002C94.5144 139.964 94.5272 139.921 94.5315 139.877C94.5357 139.834 94.5313 139.789 94.5184 139.747C94.4854 139.707 94.4425 139.675 94.3938 139.655C94.345 139.636 94.292 139.629 94.24 139.636ZM94.24 147.542H93.21C92.9316 147.542 92.5697 147.542 92.2078 147.737L91.0665 148.099C90.3482 148.352 89.6503 148.659 88.9786 149.018C88.6697 149.163 88.372 149.33 88.0877 149.519C88.0309 149.584 87.9996 149.668 87.9996 149.755C87.9996 149.842 88.0309 149.926 88.0877 149.992C88.1677 150.077 88.2776 150.127 88.3939 150.131L89.424 149.964C90.0086 149.825 90.7602 149.602 91.5119 149.352L92.5975 148.906L93.544 148.544C93.8592 148.405 94.166 148.247 94.4627 148.071C94.5415 148.024 94.5996 147.95 94.6254 147.862C94.6513 147.774 94.6428 147.68 94.6019 147.598C94.5194 147.545 94.42 147.525 94.3235 147.542H94.24Z" fill="#F18380"/>
<path d="M22.5872 183.745L31.7023 176.366L49.9325 199.371L42.5536 208.052L22.5872 183.745Z" fill="#CFD1CE"/>
<path d="M82.4011 35.3063C81.0441 39.3763 78.9308 43.153 76.1722 46.4375H69.4199C69.4199 46.4375 64.1855 40.3612 63.793 39.8635C63.2254 39.2582 62.794 38.5383 62.5277 37.7523C62.2614 36.9662 62.1663 36.1322 62.2488 35.3063H82.4011Z" fill="#676575"/>
<path d="M76.1726 46.4376C76.1726 59.5331 71.8464 78.153 92.1916 82.0908C92.1916 82.0908 79.1562 81.4026 74.1574 74.9858C69.1586 68.569 69.4203 46.3328 69.4203 46.3328L76.1726 46.4376Z" fill="#827F94"/>
<path d="M57.4075 36.9827H123.465C123.968 31.0109 123.401 24.9973 121.79 19.2252C119.173 11.7346 113.938 2.56773 92.0327 2.56773C70.1269 2.56773 62.4586 12.8346 60.9145 20.6133C59.3703 28.3921 60.1031 30.9326 59.1871 31.7707C58.2711 32.6088 57.4075 32.635 57.4075 33.8922V36.9827Z" fill="#EFEFEF"/>
<path d="M92.0326 2.56786C96.8096 2.48104 101.575 3.06287 106.191 4.29647H106.401L107.212 4.55837C109.424 5.23982 111.529 6.22717 113.467 7.49177C114.783 12.9232 115.129 18.5449 114.488 24.0969H107.212L97.5286 22.4468C97.5286 22.4468 94.4666 6.73223 83.5791 3.06549C86.3814 2.69744 89.2065 2.53114 92.0326 2.56786Z" fill="#D8D8D8"/>
<path d="M90.5143 0.0534668H105.301C106.872 0.0534668 114.488 5.97263 114.488 26.2445H97.6591C97.6591 20.2729 96.6123 4.63689 87.1904 2.67257C87.2166 2.72495 88.6299 0.0534668 90.5143 0.0534668Z" fill="#EFEFEF"/>
<path d="M134.012 36.9826V33.1587C134.01 32.6106 133.895 32.0688 133.674 31.5672C133.453 31.0656 133.131 30.6151 132.728 30.2438C132.325 29.8725 131.85 29.5885 131.332 29.4096C130.814 29.2306 130.265 29.1606 129.719 29.2039H121.266C120.78 29.2266 120.295 29.1448 119.844 28.9641C119.392 28.7833 118.985 28.5079 118.649 28.1562C118.099 27.5277 114.357 24.0181 113.912 23.4942C113.606 23.0942 113.209 22.7736 112.753 22.5594C112.298 22.3451 111.797 22.2436 111.294 22.2633H98.9937C98.4915 22.2479 97.9927 22.3513 97.5379 22.5652C97.0831 22.7791 96.6852 23.0974 96.3766 23.4942C95.9316 24.0181 92.1891 27.5277 91.6394 28.1562C91.3044 28.5093 90.8971 28.7857 90.4454 28.9665C89.9936 29.1473 89.5082 29.2283 89.0223 29.2039H81.9821C81.4361 29.1606 80.887 29.2306 80.3693 29.4096C79.8516 29.5885 79.3764 29.8725 78.9734 30.2438C78.5705 30.6151 78.2485 31.0656 78.0277 31.5672C77.8068 32.0688 77.6918 32.6106 77.6899 33.1587V36.9826H134.012Z" fill="#D8D8D8"/>
</svg>
