<svg width="221" height="505" viewBox="0 0 221 505" fill="none" xmlns="http://www.w3.org/2000/svg">
    <path d="M101.962 90.8864C102.656 90.8864 104.13 90.8864 105.431 91.32C105.431 92.3608 103.118 93.1992 101.962 93.4883C101.673 92.621 101.268 90.8864 101.962 90.8864Z" fill="#013FA9"/>
    <path d="M103.976 70.0197H76.2988V102.57H103.976V70.0197Z" fill="#FBBEAA"/>
    <path d="M76.3678 70.0197H103.953V88.1799C102.748 88.3296 101.535 88.4064 100.321 88.4098C90.8041 88.4098 80.1608 85.8122 76.2759 76.7321L76.3678 70.0197Z" fill="#F18380"/>
    <path d="M118.274 45.8601C118.044 55.262 118.274 62.6871 116.573 69.8592C114.872 77.0313 109.677 82.8932 98.183 82.8932C86.6892 82.8932 73.5863 79.1462 72.6668 64.7789C70.7818 62.733 67.7244 55.4459 67.6095 47.2853C67.4946 39.1247 68.1382 21.861 86.7352 19.2174C105.332 16.5739 118.78 23.4012 118.274 45.8601Z" fill="#FBBEAA"/>
    <path d="M108.55 53.2622C108.55 54.5265 109.309 55.561 110.251 55.561C111.194 55.561 111.952 54.5265 111.952 53.2622C111.952 51.9979 111.194 50.9634 110.251 50.9634C109.309 50.9634 108.55 51.9059 108.55 53.2622Z" fill="#403D4F"/>
    <path d="M87.8618 53.2622C87.8618 54.5265 88.6204 55.561 89.5629 55.561C90.5054 55.561 91.264 54.5265 91.264 53.2622C91.264 51.9979 90.5054 50.9634 89.5629 50.9634C88.6204 50.9634 87.8618 51.9059 87.8618 53.2622Z" fill="#403D4F"/>
    <path d="M92.0225 48.4804C91.8615 48.6873 90.6432 48.4804 89.7237 48.4804C88.8042 48.4804 87.0342 48.4804 87.0342 48.2735C87.0342 48.0666 87.9077 46.6414 90.2064 46.8942C91.8615 47.0781 92.4592 48.1126 92.0225 48.4804Z" fill="#403D4F"/>
    <path d="M108.159 48.4803C108.297 48.6872 109.332 48.4803 110.136 48.4803C110.941 48.4803 112.435 48.4803 112.435 48.2735C112.229 47.7524 111.839 47.3247 111.34 47.0707C110.84 46.8168 110.265 46.754 109.722 46.8942C108.297 47.0781 107.906 48.1125 108.159 48.4803Z" fill="#403D4F"/>
    <path d="M101.378 62.7789C102.987 62.7789 104.274 61.7215 104.32 60.9629L103.791 54.4804C103.774 54.3197 103.695 54.1722 103.57 54.0692C103.446 53.9662 103.286 53.9158 103.125 53.9287C103.046 53.9345 102.97 53.9558 102.899 53.9913C102.829 54.0268 102.766 54.0759 102.715 54.1357C102.664 54.1956 102.625 54.2649 102.601 54.3399C102.576 54.4148 102.567 54.4938 102.573 54.5723L103.079 60.825C102.847 61.0769 102.561 61.2737 102.243 61.401C101.924 61.5283 101.582 61.5828 101.24 61.5606C101.159 61.5543 101.079 61.5644 101.002 61.5902C100.926 61.616 100.856 61.6569 100.795 61.7106C100.735 61.7643 100.687 61.8296 100.652 61.9026C100.618 61.9755 100.599 62.0547 100.596 62.1353C100.596 62.2983 100.657 62.4554 100.768 62.5749C100.879 62.6943 101.031 62.7673 101.194 62.7789H101.378Z" fill="#F18380"/>
    <path d="M77.6499 50.1354C77.6499 59.4111 73.0523 55.963 73.0523 55.963C71.903 52.5148 69.9006 53.9976 67.2684 53.9976C64.6362 53.9976 64.9744 52.0805 62.3422 45.7589C60.2365 40.7016 62.664 32.6659 64.2433 30.7208C61.6254 27.291 65.1756 25.2478 65.0528 25.7677C64.2433 29.1951 67.0495 25.7505 68.4548 24.3992C83.4645 9.96651 112.555 16.8717 112.555 16.8717L117.361 22.1888L112.059 22.7389C112.059 22.7389 118.023 23.1513 116.356 25.9617C114.967 28.3022 119.993 32.6659 119.993 32.6659L130.521 33.6384C130.521 33.6384 123.678 40.9326 114.202 41.9051C103.53 43.0004 92.0918 38.0149 92.0918 38.0149L96.3032 42.8777C96.3032 42.8777 85.6585 40.7066 82.2104 42.5037C80.005 43.6531 77.6499 45.9888 77.6499 50.1354Z" fill="#7D4A40"/>
    <path d="M73.1723 57.6299C73.0573 55.0093 72.6435 51.1474 68.9195 51.0554C65.1955 50.9635 64.7128 53.7679 64.8277 58.1816C64.9427 62.5952 69.4253 66.3422 73.3562 64.825L73.1723 57.6299Z" fill="#FBBEAA"/>
    <path d="M67.7007 60.8018C67.8619 60.7737 68.0055 60.6831 68.1002 60.5496C68.195 60.4161 68.2331 60.2507 68.2065 60.0892C68.2066 59.9595 68.2434 59.8324 68.3125 59.7226C68.3816 59.6128 68.4803 59.5248 68.5972 59.4685C68.8319 59.3114 69.1079 59.2275 69.3903 59.2275C69.6727 59.2275 69.9488 59.3114 70.1834 59.4685C70.2855 59.5249 70.4001 59.5544 70.5167 59.5544C70.6333 59.5544 70.748 59.5249 70.8501 59.4685C70.9437 59.4066 71.0188 59.3205 71.0674 59.2193C71.116 59.1181 71.1362 59.0056 71.1259 58.8938C70.8041 55.1928 68.4363 54.5032 68.3444 54.4802C68.2659 54.456 68.1833 54.4482 68.1016 54.4574C68.02 54.4665 67.9411 54.4924 67.87 54.5334C67.7988 54.5744 67.7368 54.6296 67.6879 54.6956C67.639 54.7616 67.6042 54.837 67.5858 54.917C67.5433 55.0694 67.5631 55.2324 67.6406 55.3703C67.7182 55.5082 67.8473 55.6097 67.9996 55.6526C68.4588 55.8605 68.859 56.1795 69.164 56.5809C69.4691 56.9822 69.6693 57.4532 69.7466 57.9514C69.1167 57.8487 68.471 57.9795 67.9306 58.3192C67.6158 58.5038 67.3613 58.7758 67.198 59.1023C67.0348 59.4287 66.9699 59.7955 67.0111 60.1582C67.0072 60.2477 67.0228 60.3371 67.0567 60.42C67.0907 60.503 67.1422 60.5776 67.2077 60.6388C67.2732 60.7 67.3512 60.7462 67.4364 60.7744C67.5215 60.8025 67.6116 60.8119 67.7007 60.8018Z" fill="#F18380"/>
    <path d="M99.7924 71.0546C97.5733 70.969 95.4426 70.1619 93.7236 68.7558" stroke="#73102A" stroke-width="0.5" stroke-miterlimit="10" stroke-linecap="round"/>
    <path d="M99.8701 66.9863C96.6518 65.9288 92.9738 64.6875 91.7095 66.1817C90.721 67.1932 92.0543 71.9516 96.9966 72.7791C101.939 73.6067 103.709 70.2045 103.456 68.8942C103.295 68.0897 102.399 67.8368 99.8701 66.9863Z" fill="#73102A"/>
    <path d="M91.8244 66.113H91.7095C90.721 67.1245 92.0543 71.8829 96.9966 72.7105C98.0704 72.9598 99.187 72.9598 100.261 72.7105C99.4283 71.0566 98.2402 69.6074 96.7816 68.4668C95.3231 67.3261 93.6302 66.5224 91.8244 66.113Z" fill="#D65155"/>
    <path d="M92.9741 65.6069C94.2764 67.0222 95.93 68.0676 97.7671 68.6368C99.6041 69.2061 101.559 69.279 103.433 68.8482C103.25 68.0666 102.33 67.8137 99.8704 66.9862C97.6874 66.0686 95.3421 65.5995 92.9741 65.6069Z" fill="white"/>
    <path d="M81.9223 35.7528C80.5654 39.8228 78.452 43.5995 75.6935 46.884H68.9411C68.9411 46.884 63.7068 40.8077 63.3142 40.3101C62.7467 39.7048 62.3153 38.9849 62.0489 38.1988C61.7826 37.4127 61.6875 36.5787 61.7701 35.7528H81.9223Z" fill="#676575"/>
    <path d="M75.6941 46.8841C75.6941 59.9796 71.3679 78.5996 91.7131 82.5374C91.7131 82.5374 78.6777 81.8491 73.6789 75.4323C68.6801 69.0155 68.9418 46.7794 68.9418 46.7794L75.6941 46.8841Z" fill="#827F94"/>
    <path d="M56.9287 37.4292H122.986C123.489 31.4575 122.922 25.4438 121.311 19.6717C118.694 12.1811 113.46 3.01427 91.5539 3.01427C69.6482 3.01427 61.9798 13.2811 60.4357 21.0599C58.8916 28.8386 59.6244 31.3791 58.7084 32.2172C57.7924 33.0553 56.9287 33.0815 56.9287 34.3387V37.4292Z" fill="#EFEFEF"/>
    <path d="M91.5536 3.0144C96.3306 2.92757 101.096 3.5094 105.712 4.743H105.922L106.733 5.00491C108.945 5.68635 111.05 6.6737 112.988 7.9383C114.304 13.3698 114.65 18.9914 114.009 24.5434H106.733L97.0496 22.8934C97.0496 22.8934 93.9875 7.17876 83.1001 3.51202C85.9024 3.14397 88.7275 2.97767 91.5536 3.0144Z" fill="#D8D8D8"/>
    <path d="M90.0352 0.5H104.822C106.393 0.5 114.009 6.41917 114.009 26.691H97.1801C97.1801 20.7195 96.1333 5.08343 86.7114 3.1191C86.7376 3.17148 88.1509 0.5 90.0352 0.5Z" fill="#EFEFEF"/>
    <path d="M133.533 37.4291V33.6053C133.531 33.0571 133.416 32.5153 133.195 32.0137C132.974 31.5121 132.652 31.0616 132.249 30.6903C131.847 30.319 131.371 30.035 130.854 29.8561C130.336 29.6772 129.787 29.6071 129.241 29.6504H120.787C120.302 29.6731 119.817 29.5913 119.365 29.4106C118.914 29.2299 118.506 28.9544 118.17 28.6028C117.621 27.9742 113.878 24.4646 113.433 23.9408C113.127 23.5408 112.73 23.2201 112.275 23.0059C111.819 22.7917 111.319 22.6901 110.816 22.7098H98.5152C98.013 22.6944 97.5142 22.7979 97.0594 23.0118C96.6046 23.2257 96.2067 23.544 95.8981 23.9408C95.4531 24.4646 91.7105 27.9742 91.1609 28.6028C90.8259 28.9558 90.4186 29.2322 89.9668 29.413C89.5151 29.5938 89.0297 29.6748 88.5438 29.6504H81.5036C80.9576 29.6071 80.4085 29.6772 79.8908 29.8561C79.3731 30.035 78.8979 30.319 78.4949 30.6903C78.092 31.0616 77.77 31.5121 77.5492 32.0137C77.3283 32.5153 77.2133 33.0571 77.2114 33.6053V37.4291H133.533Z" fill="#D8D8D8"/>
    <path d="M112.708 427.909C112.708 427.909 111.584 475.354 111.303 482.451C111.022 489.548 106.503 491.48 99.2219 492.108C91.9404 492.736 88.8733 486.989 87.8431 482.428C86.8129 477.867 80.585 431.353 80.585 431.353L112.708 427.909Z" fill="#FBBEAA"/>
    <path d="M65.6709 429.056C65.6709 429.056 59.479 476.636 58.4548 483.719C57.4306 490.802 52.7519 492.308 45.466 492.143C38.1801 491.979 35.7825 485.884 35.2471 481.201C34.7117 476.519 33.5479 429.056 33.5479 429.056H65.6709Z" fill="#FBBEAA"/>
    <path d="M46.6882 468.09C49.3326 467.903 51.9547 468.681 54.0564 470.278C56.1582 471.875 57.5933 474.178 58.0894 476.751L70.26 489.074V496.744H31.2534C31.2534 496.744 33.2119 482.924 33.7715 479.814C34.331 476.705 36.2196 468.09 46.6882 468.09Z" fill="#FBBEAA"/>
    <path d="M58.2385 476.978C58.6888 476.366 59.3287 475.895 59.779 476.178C60.2293 476.46 72.1981 485.878 72.7669 486.349C73.1172 486.675 73.3823 487.082 73.5392 487.533C73.6961 487.984 73.7401 488.467 73.6675 488.938V499.039H30.106C30.106 499.039 31.8124 484.112 31.9309 483.288C32.0494 482.464 32.8789 481.381 33.3529 481.404C36.3428 482.314 39.4459 482.806 42.5724 482.864C46.7278 483.083 50.8728 482.274 54.636 480.51C56.0313 479.546 57.2498 478.351 58.2385 476.978Z" fill="#302D3B"/>
    <path d="M66.4588 490.854C64.396 489.296 56.9795 483.397 54.1982 481.178L54.8472 480.848C54.9347 480.81 55.0136 480.753 55.079 480.683C58.0456 483.043 65.0218 488.612 67.015 490.122C68.6999 491.437 69.8541 493.334 70.2598 495.455L69.3559 495.597C68.9735 493.716 67.9466 492.035 66.4588 490.854Z" fill="white"/>
    <path d="M31.3942 488.713C34.4326 488.745 37.3729 489.801 39.7448 491.714C41.8886 493.627 43.3408 496.204 43.8732 499.039H42.6065C42.0884 496.582 40.8067 494.356 38.9473 492.683C36.7642 490.922 34.0502 489.963 31.2534 489.966L31.3942 488.713Z" fill="white"/>
    <path d="M81.0955 497.891H30.7427C30.3911 497.891 30.106 498.21 30.106 498.604V504.063C30.106 504.456 30.3911 504.775 30.7427 504.775H81.0955C81.4472 504.775 81.7323 504.456 81.7323 504.063V498.604C81.7323 498.21 81.4472 497.891 81.0955 497.891Z" fill="white"/>
    <path d="M72.7486 486.447C73.1706 486.276 75.2362 486.851 77.9237 489.382C79.0427 490.49 79.8481 491.853 80.264 493.342C80.6798 494.831 80.6923 496.397 80.3003 497.891H66.8184C67.5735 489.723 72.3266 486.617 72.7486 486.447Z" fill="white"/>
    <path d="M67.0039 485.974C66.8669 486.174 66.8015 486.43 66.8221 486.687C66.8426 486.944 66.9473 487.181 67.1135 487.347C67.1951 487.427 67.2891 487.487 67.3903 487.524C67.4914 487.561 67.5976 487.574 67.7029 487.562C67.8082 487.55 67.9104 487.513 68.0037 487.453C68.097 487.394 68.1796 487.313 68.2468 487.216L70.0746 484.579C70.2116 484.379 70.2769 484.123 70.2564 483.865C70.2359 483.608 70.1311 483.371 69.9649 483.206C69.8845 483.123 69.7906 483.06 69.6892 483.021C69.5878 482.983 69.4808 482.969 69.3748 482.982C69.2688 482.994 69.1661 483.032 69.0727 483.093C68.9793 483.154 68.8973 483.237 68.8317 483.337L67.0039 485.974Z" fill="white"/>
    <path d="M64.7093 484.421C64.572 484.67 64.5066 484.99 64.5272 485.311C64.5477 485.632 64.6527 485.927 64.8192 486.134C64.8999 486.237 64.9939 486.316 65.0956 486.364C65.1972 486.412 65.3044 486.429 65.4106 486.413C65.5167 486.398 65.6198 486.351 65.7133 486.275C65.8069 486.199 65.889 486.095 65.9548 485.971L67.7864 482.681C67.9192 482.429 67.9818 482.11 67.9614 481.792C67.941 481.473 67.839 481.178 67.6765 480.968C67.5958 480.864 67.5018 480.786 67.4001 480.738C67.2985 480.69 67.1913 480.673 67.0851 480.688C66.9789 480.703 66.8759 480.75 66.7824 480.827C66.6888 480.903 66.6067 481.006 66.5409 481.131L64.7093 484.421Z" fill="white"/>
    <path d="M61.3327 481.794C61.1519 481.94 61.063 482.129 61.0854 482.32C61.1079 482.51 61.2399 482.687 61.4524 482.811C61.672 482.934 61.9535 482.992 62.2357 482.974C62.518 482.955 62.7783 482.862 62.9601 482.712L65.3532 480.728C65.4538 480.661 65.5337 480.581 65.5883 480.492C65.6429 480.404 65.671 480.308 65.671 480.212C65.671 480.116 65.6429 480.02 65.5883 479.932C65.5337 479.843 65.4538 479.763 65.3532 479.696C65.1313 479.577 64.8513 479.521 64.5708 479.539C64.2903 479.557 64.0308 479.648 63.8456 479.794L61.3327 481.794Z" fill="white"/>
    <path d="M58.9702 479.765C58.9032 479.888 58.8529 480.03 58.8221 480.182C58.7913 480.335 58.7807 480.495 58.7908 480.654C58.801 480.813 58.8316 480.967 58.8811 481.108C58.9307 481.249 58.998 481.374 59.0793 481.475C59.2323 481.702 59.438 481.83 59.6523 481.83C59.8665 481.83 60.0723 481.702 60.2253 481.475L62.0443 478.109C62.1806 477.856 62.2456 477.532 62.2252 477.206C62.2047 476.881 62.1005 476.581 61.9351 476.371C61.854 476.27 61.7604 476.193 61.6597 476.147C61.5591 476.1 61.4534 476.084 61.3486 476.099C61.2438 476.115 61.1421 476.161 61.0493 476.236C60.9564 476.311 60.8742 476.413 60.8073 476.537L58.9702 479.765Z" fill="white"/>
    <path d="M102.912 468.09C105.558 467.903 108.182 468.681 110.285 470.278C112.388 471.875 113.824 474.178 114.32 476.751L126.475 489.074V496.744H87.4683C87.4683 496.744 89.4046 482.924 89.9878 479.814C90.571 476.705 92.4374 468.09 102.912 468.09Z" fill="#FBBEAA"/>
    <path d="M113.329 476.978C113.779 476.366 114.396 475.895 114.87 476.178C115.345 476.46 127.299 485.878 127.845 486.349C128.39 486.819 128.77 487.408 128.77 488.938V499.039H85.1743C85.1743 499.039 86.8821 484.112 87.0007 483.288C87.1192 482.464 87.9494 481.381 88.4238 481.404C91.416 482.314 94.5216 482.806 97.6505 482.864C101.802 483.087 105.943 482.278 109.7 480.51C111.107 479.551 112.335 478.356 113.329 476.978Z" fill="#302D3B"/>
    <path d="M120.38 490.854C118.317 489.296 110.9 483.397 108.119 481.178L108.745 480.848C108.84 480.81 108.926 480.754 109 480.683C111.966 483.043 118.943 488.612 120.936 490.122C122.621 491.437 123.775 493.334 124.181 495.455L123.277 495.597C122.883 493.721 121.859 492.043 120.38 490.854Z" fill="white"/>
    <path d="M87.5962 488.713C90.3584 488.745 93.0314 489.801 95.1877 491.714C97.1366 493.627 98.4568 496.204 98.9408 499.039H97.7892C97.3125 496.579 96.1396 494.352 94.4413 492.683C92.4667 490.918 90.005 489.959 87.4683 489.966L87.5962 488.713Z" fill="white"/>
    <path d="M135.016 497.891H84.6636C84.312 497.891 84.0269 498.21 84.0269 498.604V504.063C84.0269 504.456 84.312 504.775 84.6636 504.775H135.016C135.368 504.775 135.653 504.456 135.653 504.063V498.604C135.653 498.21 135.368 497.891 135.016 497.891Z" fill="white"/>
    <path d="M127.163 486.447C127.62 486.276 129.858 486.851 132.77 489.382C133.982 490.49 134.854 491.853 135.305 493.342C135.755 494.831 135.769 496.397 135.344 497.891H120.739C121.557 489.723 126.706 486.617 127.163 486.447Z" fill="white"/>
    <path d="M122.134 485.974C121.951 486.174 121.863 486.43 121.891 486.687C121.918 486.944 122.058 487.181 122.28 487.347C122.389 487.427 122.515 487.487 122.65 487.524C122.785 487.561 122.927 487.574 123.068 487.562C123.208 487.55 123.345 487.513 123.469 487.453C123.594 487.394 123.705 487.313 123.794 487.216L126.236 484.579C126.413 484.377 126.497 484.122 126.47 483.866C126.442 483.611 126.306 483.374 126.09 483.206C125.982 483.123 125.857 483.06 125.721 483.021C125.586 482.983 125.443 482.969 125.301 482.982C125.16 482.994 125.022 483.032 124.898 483.093C124.773 483.154 124.663 483.237 124.576 483.337L122.134 485.974Z" fill="white"/>
    <path d="M119.778 484.418C119.64 484.668 119.575 484.988 119.596 485.309C119.616 485.63 119.721 485.926 119.888 486.133C119.968 486.237 120.062 486.315 120.164 486.364C120.266 486.412 120.373 486.429 120.479 486.413C120.585 486.398 120.688 486.351 120.782 486.275C120.875 486.198 120.957 486.095 121.023 485.97L122.855 482.675C122.988 482.422 123.05 482.103 123.03 481.784C123.009 481.465 122.907 481.17 122.745 480.959C122.577 480.755 122.361 480.658 122.145 480.688C121.929 480.719 121.73 480.875 121.591 481.122L119.778 484.418Z" fill="white"/>
    <path d="M116.475 481.796C116.372 481.862 116.29 481.94 116.235 482.028C116.179 482.115 116.15 482.209 116.15 482.304C116.15 482.398 116.179 482.492 116.235 482.579C116.29 482.667 116.372 482.745 116.475 482.811C116.701 482.934 116.991 482.992 117.281 482.974C117.572 482.956 117.839 482.862 118.026 482.713L120.489 480.732C120.674 480.581 120.762 480.389 120.734 480.196C120.706 480.003 120.565 479.825 120.341 479.7C120.231 479.64 120.105 479.595 119.968 479.567C119.832 479.539 119.689 479.53 119.547 479.539C119.405 479.548 119.268 479.576 119.142 479.62C119.016 479.665 118.905 479.725 118.814 479.798L116.475 481.796Z" fill="white"/>
    <path d="M114.1 479.765C114.01 479.888 113.943 480.03 113.902 480.182C113.861 480.335 113.847 480.495 113.86 480.654C113.874 480.813 113.915 480.967 113.981 481.108C114.047 481.249 114.137 481.374 114.245 481.475C114.449 481.702 114.723 481.83 115.009 481.83C115.295 481.83 115.569 481.702 115.773 481.475L118.198 478.109C118.38 477.856 118.467 477.532 118.44 477.206C118.412 476.881 118.273 476.581 118.053 476.371C117.945 476.27 117.82 476.193 117.686 476.147C117.551 476.1 117.41 476.084 117.271 476.099C117.131 476.115 116.995 476.161 116.872 476.236C116.748 476.311 116.638 476.413 116.549 476.537L114.1 479.765Z" fill="white"/>
    <path d="M37.1815 327.231C36.7922 330.26 36.9969 333.338 37.7837 336.286C38.5705 339.234 39.9238 341.995 41.7653 344.407C43.6069 346.82 45.9 348.836 48.5123 350.341C51.1245 351.846 54.0039 352.808 56.9839 353.173C59.9639 353.537 62.9854 353.297 65.8735 352.465C68.7616 351.634 71.4591 350.227 73.8098 348.328C76.1606 346.428 78.118 344.073 79.5689 341.399C81.0197 338.724 81.9351 335.784 82.2622 332.747C82.2622 332.747 94.0812 248.25 96.8841 231.18C99.6871 214.109 96.7207 199.821 77.941 195.755C58.4605 191.547 46.2911 206.073 44.8196 220.624C43.348 235.174 37.1815 327.231 37.1815 327.231Z" fill="#013EA5"/>
    <path d="M75.1337 328.856C75.0582 334.969 77.4167 340.861 81.6905 345.237C85.9642 349.613 91.8032 352.113 97.9228 352.189C104.042 352.264 109.941 349.908 114.322 345.639C118.703 341.37 121.206 335.538 121.282 329.425C121.282 329.425 124.201 244.346 125.198 227.108C126.195 209.869 121.685 196.045 102.267 194.053C82.1366 191.99 71.4067 207.711 71.4067 222.318C71.4067 236.925 75.1337 328.856 75.1337 328.856Z" fill="#013EA5"/>
    <path d="M74.8486 329.043C74.8868 326.019 75.5328 323.032 76.7499 320.253C77.967 317.474 79.7313 314.957 81.9421 312.845C84.1529 310.733 86.7669 309.069 89.6348 307.946C92.5027 306.823 95.5683 306.265 98.6567 306.302C101.745 306.339 104.796 306.972 107.634 308.164C110.473 309.355 113.044 311.083 115.201 313.247C117.358 315.411 119.058 317.971 120.205 320.778C121.352 323.586 121.922 326.588 121.884 329.611L117.045 451.44L79.0828 455.443L74.8486 329.043Z" fill="#013EA5"/>
    <path d="M37.2613 327.581C38.0439 321.539 41.1554 316.053 45.9199 312.314C50.6844 308.575 56.717 306.886 62.7074 307.613C68.6979 308.34 74.1623 311.425 77.9137 316.198C81.6651 320.971 83.4006 327.046 82.7431 333.103L64.9981 454.296H27.8115L37.2613 327.581Z" fill="#013EA5"/>
    <path d="M81.7322 331.54L64.5234 453.149" stroke="#013EA5" stroke-width="0.75" stroke-miterlimit="10" stroke-linecap="round"/>
    <path d="M82.8794 332.687C82.8794 332.687 94.9347 248.697 97.7937 231.729" stroke="#F5F5F5" stroke-width="0.75" stroke-miterlimit="10" stroke-linecap="round"/>
    <path d="M123.033 204.195C123.033 204.195 123.033 228.134 123.033 229.45C123.033 230.766 111.524 242.054 96.24 242.054C72.7384 242.054 44.6102 233.444 45.0245 227.834C45.3008 224.14 45.646 204.195 45.646 204.195H123.033Z" fill="#013EA5"/>
    <path d="M193.855 105.982L182.73 175.819C180.894 184.58 183.731 192.507 193.855 193.898C195.724 194.141 197.623 194.002 199.436 193.489C201.249 192.976 202.94 192.1 204.404 190.914C205.869 189.728 207.077 188.257 207.955 186.589C208.833 184.922 209.364 183.094 209.514 181.215L212.907 106.121C213.797 99.0286 210.71 94.3005 205.314 93.7164C198.695 92.9933 195.19 96.9149 193.855 105.982Z" fill="#FBBEAA"/>
    <path d="M202.895 168.087L123.018 107.4C113.7 101.448 107.359 104.619 102.408 110.988C100.148 114.071 99.0993 117.877 99.4634 121.683C99.8276 125.488 101.579 129.027 104.383 131.625L184.066 190.337C186.874 192.709 190.489 193.905 194.158 193.678C197.826 193.45 201.265 191.815 203.758 189.114L204.119 188.724C205.442 187.313 206.464 185.647 207.122 183.827C207.779 182.008 208.06 180.074 207.945 178.143C207.83 176.211 207.324 174.324 206.455 172.595C205.587 170.866 204.376 169.332 202.895 168.087Z" fill="#FBBEAA"/>
    <path d="M194.188 104.118C194.303 101.612 193.632 99.1321 192.269 97.0257C190.171 94.5928 188.599 91.7519 187.652 88.6819C186.924 85.8321 185.761 83.1115 184.204 80.6161C183.091 79.0864 181.422 77.8349 181.422 76.6668C181.422 75.4987 183.647 73.2458 186.818 73.8855C188.176 74.3086 189.424 75.0267 190.472 75.9883C191.52 76.9499 192.343 78.1313 192.881 79.4481C193.185 78.6458 193.363 77.8015 193.41 76.9449L194.105 59.8958C194.115 59.4538 194.215 59.0184 194.396 58.6153C194.578 58.2122 194.838 57.8497 195.162 57.5489C195.486 57.2482 195.867 57.0154 196.283 56.8644C196.698 56.7133 197.14 56.6471 197.581 56.6695C198.284 56.6995 198.96 56.949 199.514 57.3831C200.068 57.8171 200.472 58.4138 200.669 59.0892V58.3104C200.776 57.4816 201.192 56.724 201.835 56.1896C202.477 55.6552 203.298 55.3836 204.133 55.4294C204.967 55.4751 205.753 55.8349 206.333 56.4363C206.913 57.0378 207.245 57.8365 207.26 58.672V61.0361C207.539 60.3073 208.07 59.7028 208.757 59.3328C209.444 58.9628 210.241 58.8521 211.003 59.0206C211.765 59.1892 212.441 59.6258 212.907 60.251C213.374 60.8762 213.601 61.6484 213.546 62.4267V63.9286C213.845 63.4025 214.291 62.975 214.83 62.6984C215.368 62.4218 215.976 62.3081 216.578 62.3711C217.402 62.4757 218.153 62.8971 218.672 63.546C219.191 64.1949 219.438 65.0204 219.359 65.8476L217.996 80.2268C217.103 88.3336 215.427 96.3347 212.99 104.118C212.96 105.417 212.659 106.696 212.106 107.873C211.553 109.049 210.759 110.096 209.777 110.948C208.795 111.799 207.645 112.435 206.402 112.816C205.159 113.196 203.851 113.312 202.56 113.157C201.392 113.196 200.23 112.983 199.151 112.533C198.073 112.084 197.103 111.407 196.309 110.55C195.515 109.692 194.915 108.674 194.549 107.565C194.183 106.455 194.06 105.279 194.188 104.118Z" fill="#FBBEAA"/>
    <path d="M116.425 103.061L185.549 149.682C185.258 152.066 190.86 103.061 190.86 103.061L216.445 105.449C216.445 105.449 214.951 155.343 211.185 181.693C209.691 192.15 200.987 196.115 190.666 193.864C185.571 192.752 180.774 190.661 176.505 187.665C158.161 174.789 106.698 138.523 102.49 133.961C95.2314 126.09 95.2313 120.194 99.4032 113.713C103.575 107.233 112.503 102.088 116.425 103.061Z" fill="#013EA5"/>
    <path d="M194.745 81.8681C193.688 81.8681 193.605 81.2006 193.132 79.9769C195.496 79.9769 202.366 80.4218 205.369 86.2069C202.338 82.035 196.525 81.8681 194.745 81.8681ZM200.141 59.8683C200.141 59.8683 199.974 60.8418 199.807 62.2602C199.807 62.9834 199.64 63.8455 199.584 64.7355C199.529 65.6255 199.445 66.5989 199.362 67.5168C199.362 69.4636 199.223 71.3827 199.223 72.829C199.223 74.2752 199.223 75.2487 199.223 75.2487C199.223 75.2949 199.232 75.3408 199.251 75.3832C199.269 75.4256 199.296 75.4637 199.33 75.4951C199.364 75.5265 199.404 75.5505 199.448 75.5655C199.492 75.5806 199.538 75.5863 199.584 75.5824C199.663 75.5785 199.737 75.5492 199.798 75.4991C199.858 75.4489 199.9 75.3806 199.918 75.3044C199.918 75.3044 200.085 74.3308 200.224 72.8846C200.363 71.4383 200.586 69.5193 200.669 67.6002C200.669 66.6268 200.669 65.6533 200.669 64.8189C200.669 63.9846 200.669 63.0668 200.669 62.3437C200.669 60.8696 200.669 59.9239 200.669 59.9239C200.669 59.8776 200.66 59.8319 200.641 59.7894C200.623 59.747 200.596 59.7089 200.562 59.6775C200.528 59.6461 200.488 59.6222 200.444 59.6071C200.4 59.5921 200.354 59.5863 200.307 59.5901C200.254 59.6208 200.21 59.6657 200.181 59.7197C200.151 59.7737 200.138 59.8347 200.141 59.8961V59.8683ZM206.593 61.8152C206.593 61.8152 206.426 62.6496 206.232 63.8733C206.232 64.513 206.037 65.2361 205.953 66.0149C205.87 66.7936 205.787 67.628 205.703 68.4624C205.703 70.1311 205.508 71.7999 205.481 73.0515C205.453 74.303 205.481 75.1652 205.481 75.1652C205.484 75.2091 205.496 75.2519 205.516 75.291C205.536 75.3302 205.564 75.365 205.598 75.3935C205.631 75.4219 205.67 75.4435 205.712 75.4568C205.754 75.4701 205.798 75.475 205.842 75.4712C205.917 75.466 205.988 75.4357 206.043 75.3852C206.099 75.3348 206.136 75.2671 206.148 75.1931C206.148 75.1931 206.315 74.3586 206.51 73.1349C206.704 71.9111 206.871 70.2146 207.01 68.5737C207.01 67.7393 207.01 66.9049 207.177 66.1261C207.344 65.3474 207.177 64.5964 207.177 63.9568C207.177 62.7052 207.177 61.8708 207.177 61.8708C207.177 61.8245 207.168 61.7788 207.149 61.7364C207.131 61.6939 207.104 61.6558 207.07 61.6244C207.036 61.593 206.996 61.5691 206.952 61.554C206.908 61.539 206.862 61.5332 206.816 61.5371C206.754 61.5625 206.7 61.6046 206.661 61.6586C206.622 61.7126 206.598 61.7764 206.593 61.843V61.8152ZM212.823 64.4574C212.823 64.4574 212.656 65.1527 212.434 66.2096C212.434 66.7102 212.211 67.3221 212.128 67.9896C212.044 68.6571 211.933 69.3524 211.822 70.0477C211.627 71.4662 211.544 72.829 211.488 73.9415C211.432 75.054 211.488 75.7215 211.488 75.7215C211.488 75.7678 211.497 75.8136 211.516 75.856C211.534 75.8984 211.562 75.9365 211.596 75.9679C211.63 75.9993 211.67 76.0233 211.713 76.0383C211.757 76.0533 211.804 76.0591 211.85 76.0553C211.921 76.0516 211.989 76.0253 212.044 75.9802C212.099 75.9352 212.138 75.8738 212.156 75.805C212.156 75.805 212.35 75.1097 212.545 74.0806C212.74 73.0515 213.018 71.6052 213.185 70.2146C213.185 69.4915 213.324 68.7962 213.379 68.1286C213.435 67.4611 213.379 66.8493 213.379 66.3208C213.379 65.264 213.379 64.5408 213.379 64.5408C213.38 64.4945 213.37 64.4488 213.352 64.4063C213.333 64.3639 213.306 64.3258 213.272 64.2944C213.238 64.263 213.198 64.2391 213.154 64.224C213.11 64.209 213.064 64.2032 213.018 64.2071C212.967 64.2357 212.922 64.2756 212.889 64.3238C212.855 64.3719 212.832 64.4271 212.823 64.4852V64.4574Z" fill="#F18380"/>
    <path d="M186.09 144.044L187.391 133.637L215.145 135.805L214.711 146.212L186.09 144.044Z" fill="#CFD1CE"/>
    <path d="M105.393 96.5152C105.393 96.5152 122.186 106.212 124.806 107.909C127.427 109.606 130.388 112.224 129.854 119.302C129.32 126.381 127.063 221.666 127.063 221.666C118.444 223.125 93.2049 223.125 93.2049 223.125H90.9104H89.1895H86.895H85.1741H83.4532C83.4532 223.125 46.0352 219.945 45.2829 219.508C44.5306 219.072 43.8269 218.611 43.8754 217.787C43.924 216.963 44.4093 120.102 44.7248 115.836C44.7873 113.551 45.507 111.332 46.798 109.445C48.089 107.558 49.8966 106.082 52.0049 105.194C57.0768 102.939 76.1265 95.2062 76.1265 95.2062L92.1262 96.5152H105.393Z" fill="#034CC9"/>
    <path d="M105.393 96.5152C105.393 96.5152 122.185 106.212 124.806 107.909C127.427 109.606 130.388 112.224 129.854 119.302C129.32 126.381 127.063 221.666 127.063 221.666C118.444 223.125 104.677 223.125 104.677 223.125H102.383H100.662H98.3675H96.6466H94.9257C94.9257 223.125 97.6615 219.945 96.9092 219.508C96.1569 219.072 95.4532 218.611 95.5017 217.787C95.5503 216.963 96.0356 120.102 96.3511 115.836C96.4136 113.551 97.1333 111.332 98.4243 109.445C99.7153 107.558 101.523 106.082 103.631 105.194C108.703 102.939 76.1265 95.2062 76.1265 95.2062L92.1262 96.5152H105.393Z" fill="#0045BA"/>
    <path d="M107.298 96.6549C107.298 96.6549 125.864 107.387 128.761 109.265C131.659 111.143 129.343 115.283 129.343 122.74C129.343 132.492 127.623 133.065 127.623 133.065C121.817 136.198 119.277 133.755 112.879 135.361C109.767 135.71 107.352 135.79 105.259 133.751C103.167 131.712 96.6468 132.492 96.6468 132.492C96.6468 132.492 86.8278 131.202 82.24 133.751C81.1427 134.516 79.9027 135.053 78.5938 135.33C77.2848 135.606 76.2556 135.586 74.9425 135.33C68.2889 133.961 41.6746 126.319 40.8429 125.837C40.0112 125.354 39.2331 124.844 39.2868 123.932C39.3405 123.019 39.8771 122.76 40.2258 118.038C40.2949 115.509 41.0906 113.053 42.5179 110.965C43.9452 108.876 45.9437 107.243 48.2745 106.26C53.8818 103.765 74.9425 95.2062 74.9425 95.2062L92.6314 95.7798L107.298 96.6549Z" fill="#9A99A1"/>
    <path d="M94.1566 92.621C86.1775 92.621 78.9789 89.1517 76.377 87.4171V95.2229C76.6661 95.6565 78.8921 97.0442 85.4836 99.1257C92.0751 101.207 101.529 100.427 105.432 99.1257V91.32C105.432 91.7537 104.131 92.621 94.1566 92.621Z" fill="#034CC9"/>
    <path d="M94.5898 222.716C96.8059 221.973 98.7452 220.54 100.143 218.615C101.54 216.689 102.327 214.365 102.396 211.96V93.0545H94.5898V222.716Z" fill="#034CC9"/>
    <path d="M129.343 135.986H90.001V127.313L129.343 127.329C129.343 131.345 129.343 132.492 129.343 135.986Z" fill="#D3D4D2"/>
    <path d="M58.1946 127.313H97.8064V135.986H57.3825C57.9106 132.083 58.1946 130.349 58.1946 127.313Z" fill="#CFD1CE"/>
    <g style="mix-blend-mode:multiply" opacity="0.4">
        <path d="M93.7227 100.249L94.59 100.427V222.716H93.7227V100.249Z" fill="#013FA9"/>
    </g>
    <g filter="url(#filter0_d_110_13)">
        <rect x="67.3916" y="140.67" width="49.4484" height="70.4639" rx="1" transform="rotate(-6.55484 67.3916 140.67)" fill="#EFEFEF"/>
    </g>
    <path d="M89.3255 171.595C92.4522 170.274 95.2795 168.317 97.6277 165.846C99.0811 164.321 100.729 162.997 102.528 161.91C103.584 161.25 104.494 160.38 105.203 159.353C106.14 157.761 106.915 156.079 107.517 154.334C107.74 152.831 108.251 151.383 109.022 150.071C109.755 149.399 112.341 149.758 113.684 152.368C114.147 153.531 114.357 154.782 114.299 156.039C114.242 157.295 113.918 158.528 113.351 159.655C112.683 161.007 112.159 162.425 111.79 163.885L112.033 164.031C114.079 162.945 116.266 162.157 118.526 161.691C119.346 161.508 120.2 161.607 120.95 161.973C121.701 162.338 122.304 162.949 122.663 163.706C123.022 164.463 123.116 165.323 122.929 166.147C122.743 166.972 122.287 167.712 121.635 168.249C125.162 168.654 124.761 174.094 121.733 174.813C122.382 175.085 122.929 175.552 123.301 176.151C123.673 176.75 123.853 177.451 123.815 178.16C123.777 178.87 123.523 179.553 123.089 180.118C122.654 180.682 122.059 181.101 121.385 181.317C123.535 183.3 121.963 186.568 118.058 186.582C114.885 186.905 106.399 188.233 103.447 188.868C100.495 189.504 94.5605 188.098 92.6542 188.688C89.8167 189.728 86.5211 189.745 84.0073 182.278C81.4935 174.812 86.4055 172.56 89.3255 171.595Z" fill="#FBBEAA"/>
    <path d="M41.74 111.018C35.6689 118.824 6.41748 200.863 6.41748 200.863C38.9413 190.455 22.7766 186.466 40.4654 189.442C40.4654 189.442 68.1016 130.792 68.8804 126.509C69.6931 123.132 69.3284 119.579 67.8464 116.438C66.3644 113.298 63.8542 110.757 60.7313 109.237C52.0259 104.787 47.8111 103.212 41.74 111.018Z" fill="#0045BA"/>
    <path d="M93.2962 194.208L30.7956 219.371C22.8085 223.387 9.83195 221.327 5.92001 211.985C5.20372 210.244 4.84872 208.374 4.87652 206.491C4.90432 204.608 5.31431 202.75 6.0817 201.03C6.8491 199.31 7.95787 197.764 9.34076 196.486C10.7236 195.207 12.3518 194.223 14.1266 193.592L87.9927 166.877L93.2962 194.208Z" fill="#0045BA"/>
    <path d="M43.0739 182.807L53.7749 179.597L57.7859 208.175L47.8762 213.283L43.0739 182.807Z" fill="#CFD1CE"/>
    <defs>
        <filter id="filter0_d_110_13" x="67.499" y="135.133" width="58.9541" height="75.433" filterUnits="userSpaceOnUse" color-interpolation-filters="sRGB">
            <feFlood flood-opacity="0" result="BackgroundImageFix"/>
            <feColorMatrix in="SourceAlpha" type="matrix" values="0 0 0 0 0 0 0 0 0 0 0 0 0 0 0 0 0 0 127 0" result="hardAlpha"/>
            <feOffset dx="2"/>
            <feComposite in2="hardAlpha" operator="out"/>
            <feColorMatrix type="matrix" values="0 0 0 0 0.603922 0 0 0 0 0.6 0 0 0 0 0.631373 0 0 0 1 0"/>
            <feBlend mode="normal" in2="BackgroundImageFix" result="effect1_dropShadow_110_13"/>
            <feBlend mode="normal" in="SourceGraphic" in2="effect1_dropShadow_110_13" result="shape"/>
        </filter>
    </defs>
</svg>
