<svg width="225" height="515" viewBox="0 0 225 515" fill="none" xmlns="http://www.w3.org/2000/svg">
<path d="M120.942 92.6245C120.235 92.6245 118.732 92.6245 117.406 93.0666C117.406 94.1274 119.763 94.982 120.942 95.2766C121.237 94.3926 121.649 92.6245 120.942 92.6245Z" fill="#013FA9"/>
<path d="M118.889 71.3555H147.1V104.534H118.889V71.3555Z" fill="#FBBEAA"/>
<path d="M147.029 71.3555H118.912V89.8659C120.14 90.0185 121.377 90.0967 122.614 90.1002C132.315 90.1002 143.163 87.4525 147.123 78.1973L147.029 71.3555Z" fill="#F18380"/>
<path d="M104.315 46.73C104.549 56.3132 104.315 63.8814 106.049 71.1919C107.783 78.5023 113.078 84.4772 124.794 84.4772C136.509 84.4772 149.865 80.658 150.802 66.0136C152.723 63.9283 155.84 56.5007 155.957 48.1827C156.074 39.8647 155.418 22.2681 136.462 19.5735C117.507 16.8789 103.799 23.8379 104.315 46.73Z" fill="#FBBEAA"/>
<path d="M114.227 54.2748C114.227 55.5635 113.453 56.6179 112.493 56.6179C111.532 56.6179 110.759 55.5635 110.759 54.2748C110.759 52.9861 111.532 51.9317 112.493 51.9317C113.453 51.9317 114.227 52.8924 114.227 54.2748Z" fill="#403D4F"/>
<path d="M135.314 54.2748C135.314 55.5635 134.541 56.6179 133.58 56.6179C132.619 56.6179 131.846 55.5635 131.846 54.2748C131.846 52.9861 132.619 51.9317 133.58 51.9317C134.541 51.9317 135.314 52.8924 135.314 54.2748Z" fill="#403D4F"/>
<path d="M131.073 49.4008C131.237 49.6117 132.479 49.4008 133.416 49.4008C134.354 49.4008 136.158 49.4008 136.158 49.1899C136.158 48.979 135.267 47.5263 132.924 47.784C131.237 47.9715 130.628 49.0259 131.073 49.4008Z" fill="#403D4F"/>
<path d="M114.625 49.4007C114.484 49.6116 113.43 49.4007 112.61 49.4007C111.79 49.4007 110.267 49.4007 110.267 49.1899C110.477 48.6588 110.874 48.2228 111.383 47.964C111.893 47.7051 112.479 47.6411 113.032 47.784C114.484 47.9715 114.883 49.0258 114.625 49.4007Z" fill="#403D4F"/>
<path d="M121.537 63.9751C119.897 63.9751 118.585 62.8972 118.538 62.124L119.077 55.5165C119.095 55.3527 119.176 55.2024 119.303 55.0974C119.43 54.9924 119.592 54.941 119.757 54.9541C119.837 54.9601 119.915 54.9818 119.986 55.018C120.058 55.0542 120.122 55.1042 120.174 55.1652C120.226 55.2262 120.266 55.2969 120.291 55.3733C120.316 55.4496 120.325 55.5302 120.319 55.6102L119.803 61.9834C120.04 62.2402 120.331 62.4408 120.656 62.5706C120.98 62.7003 121.329 62.7559 121.678 62.7332C121.76 62.7268 121.842 62.7371 121.92 62.7634C121.998 62.7897 122.07 62.8314 122.131 62.8862C122.192 62.9409 122.242 63.0074 122.277 63.0818C122.312 63.1562 122.331 63.2369 122.334 63.319C122.334 63.4852 122.272 63.6453 122.159 63.7671C122.046 63.8889 121.891 63.9632 121.725 63.9751H121.537Z" fill="#F18380"/>
<path d="M145.723 51.0877C145.723 60.5423 150.409 57.0277 150.409 57.0277C151.58 53.513 153.621 55.0244 156.304 55.0244C158.987 55.0244 158.643 53.0703 161.326 46.6268C163.472 41.472 160.998 33.2813 159.388 31.2987C162.056 27.8028 158.438 25.7202 158.563 26.2501C159.388 29.7436 156.527 26.2325 155.095 24.8552C139.796 10.1442 110.145 17.1825 110.145 17.1825L105.246 22.6021L110.65 23.1628C110.65 23.1628 104.571 23.5832 106.27 26.4478C107.686 28.8334 102.563 33.2813 102.563 33.2813L91.8314 34.2726C91.8314 34.2726 98.8071 41.7074 108.466 42.6987C119.343 43.8151 131.002 38.7335 131.002 38.7335L126.71 43.69C126.71 43.69 137.56 41.4771 141.074 43.3088C143.322 44.4804 145.723 46.8611 145.723 51.0877Z" fill="#7D4A40"/>
<path d="M150.287 58.7267C150.404 56.0556 150.826 52.1192 154.621 52.0255C158.417 51.9317 158.909 54.7903 158.792 59.2891C158.675 63.7878 154.106 67.607 150.099 66.0606L150.287 58.7267Z" fill="#FBBEAA"/>
<path d="M155.864 61.9598C155.7 61.9312 155.553 61.8388 155.457 61.7028C155.36 61.5667 155.321 61.3981 155.348 61.2335C155.348 61.1012 155.311 60.9717 155.24 60.8598C155.17 60.7479 155.069 60.6582 154.95 60.6009C154.711 60.4407 154.43 60.3552 154.142 60.3552C153.854 60.3552 153.572 60.4407 153.333 60.6009C153.229 60.6583 153.112 60.6884 152.994 60.6884C152.875 60.6884 152.758 60.6583 152.654 60.6009C152.558 60.5378 152.482 60.45 152.432 60.3468C152.383 60.2437 152.362 60.129 152.373 60.0151C152.701 56.2427 155.114 55.5398 155.208 55.5163C155.288 55.4916 155.372 55.4837 155.455 55.493C155.538 55.5024 155.619 55.5287 155.691 55.5705C155.764 55.6123 155.827 55.6686 155.877 55.7358C155.927 55.8031 155.962 55.8799 155.981 55.9615C156.024 56.1169 156.004 56.283 155.925 56.4236C155.846 56.5641 155.714 56.6676 155.559 56.7113C155.091 56.9232 154.683 57.2484 154.372 57.6575C154.061 58.0666 153.857 58.5467 153.779 59.0544C154.421 58.9498 155.079 59.0831 155.63 59.4293C155.95 59.6175 156.21 59.8948 156.376 60.2275C156.543 60.5602 156.609 60.9341 156.567 61.3038C156.571 61.3951 156.555 61.4861 156.52 61.5707C156.486 61.6553 156.433 61.7313 156.366 61.7937C156.3 61.856 156.22 61.9032 156.133 61.9318C156.047 61.9605 155.955 61.9701 155.864 61.9598Z" fill="#F18380"/>
<path d="M123.153 72.4103C125.415 72.3231 127.587 71.5004 129.339 70.0672" stroke="#73102A" stroke-width="0.5" stroke-miterlimit="10" stroke-linecap="round"/>
<path d="M123.074 68.2635C126.354 67.1857 130.103 65.9205 131.392 67.4435C132.4 68.4744 131.041 73.3246 126.003 74.1681C120.965 75.0117 119.161 71.5439 119.419 70.2083C119.583 69.3882 120.497 69.1305 123.074 68.2635Z" fill="#73102A"/>
<path d="M131.275 67.3735H131.392C132.4 68.4044 131.041 73.2546 126.003 74.0982C124.908 74.3522 123.77 74.3522 122.676 74.0982C123.524 72.4124 124.735 70.9352 126.222 69.7726C127.709 68.61 129.434 67.7907 131.275 67.3735Z" fill="#D65155"/>
<path d="M130.103 66.8576C128.776 68.3002 127.09 69.3657 125.218 69.946C123.345 70.5262 121.352 70.6005 119.442 70.1614C119.629 69.3647 120.567 69.107 123.074 68.2635C125.299 67.3282 127.689 66.8501 130.103 66.8576Z" fill="white"/>
<path d="M141.368 36.4278C142.751 40.5763 144.905 44.4258 147.717 47.7736H154.599C154.599 47.7736 159.935 41.5801 160.335 41.0729C160.913 40.4559 161.353 39.7221 161.624 38.9209C161.896 38.1197 161.993 37.2696 161.909 36.4278H141.368Z" fill="#676575"/>
<path d="M147.716 47.7737C147.716 61.1218 152.126 80.1008 131.388 84.1146C131.388 84.1146 144.675 83.413 149.77 76.8725C154.865 70.3319 154.599 47.667 154.599 47.667L147.716 47.7737Z" fill="#827F94"/>
<path d="M166.844 38.1365H99.5124C98.9997 32.0496 99.5779 25.92 101.22 20.0366C103.887 12.4015 109.223 3.05785 131.551 3.05785C153.879 3.05785 161.695 13.5227 163.269 21.4515C164.843 29.3802 164.096 31.9697 165.03 32.824C165.963 33.6783 166.844 33.705 166.844 34.9864V38.1365Z" fill="#EFEFEF"/>
<path d="M131.551 3.05797C126.682 2.96947 121.824 3.56252 117.119 4.81991H116.906L116.079 5.08687C113.825 5.78146 111.679 6.78784 109.703 8.07683C108.361 13.613 108.009 19.3431 108.663 25.0022H116.079L125.949 23.3203C125.949 23.3203 129.07 7.30265 140.167 3.56519C137.311 3.19005 134.432 3.02054 131.551 3.05797Z" fill="#D8D8D8"/>
<path d="M133.098 0.495087H118.026C116.426 0.495087 108.663 6.52841 108.663 27.1912H125.816C125.816 21.1045 126.883 5.1669 136.486 3.1647C136.46 3.21809 135.019 0.495087 133.098 0.495087Z" fill="#EFEFEF"/>
<path d="M88.7617 38.1364V34.2388C88.7636 33.6801 88.8808 33.1278 89.1059 32.6166C89.3311 32.1053 89.6592 31.6461 90.07 31.2676C90.4807 30.8892 90.965 30.5997 91.4927 30.4173C92.0204 30.2349 92.5801 30.1636 93.1366 30.2077H101.753C102.248 30.2308 102.743 30.1474 103.203 29.9632C103.663 29.779 104.078 29.4982 104.421 29.1398C104.981 28.4991 108.796 24.9218 109.249 24.3879C109.561 23.9802 109.966 23.6534 110.43 23.435C110.894 23.2167 111.404 23.1131 111.917 23.1332H124.455C124.967 23.1175 125.475 23.223 125.939 23.441C126.402 23.659 126.808 23.9835 127.122 24.3879C127.576 24.9218 131.391 28.4991 131.951 29.1398C132.292 29.4997 132.708 29.7814 133.168 29.9657C133.628 30.15 134.123 30.2325 134.619 30.2077H141.794C142.351 30.1636 142.911 30.2349 143.438 30.4173C143.966 30.5997 144.45 30.8892 144.861 31.2676C145.272 31.6461 145.6 32.1053 145.825 32.6166C146.05 33.1278 146.168 33.6801 146.169 34.2388V38.1364H88.7617Z" fill="#D8D8D8"/>
<path d="M109.988 436.147C109.988 436.147 111.134 484.507 111.42 491.741C111.707 498.975 116.313 500.943 123.735 501.584C131.157 502.224 134.283 496.366 135.333 491.717C136.383 487.068 142.731 439.657 142.731 439.657L109.988 436.147Z" fill="#FBBEAA"/>
<path d="M157.933 437.316C157.933 437.316 164.244 485.814 165.288 493.033C166.332 500.253 171.101 501.788 178.527 501.62C185.954 501.452 188.398 495.24 188.943 490.467C189.489 485.694 190.675 437.316 190.675 437.316H157.933Z" fill="#FBBEAA"/>
<path d="M177.282 477.103C174.586 476.912 171.914 477.705 169.771 479.333C167.629 480.96 166.166 483.308 165.661 485.931L153.255 498.491V506.309H193.014C193.014 506.309 191.018 492.223 190.448 489.053C189.877 485.884 187.952 477.103 177.282 477.103Z" fill="#FBBEAA"/>
<path d="M165.509 486.162C165.05 485.538 164.397 485.058 163.938 485.346C163.479 485.634 151.28 495.233 150.7 495.713C150.343 496.046 150.073 496.461 149.913 496.921C149.753 497.38 149.708 497.872 149.782 498.353V508.648H194.184C194.184 508.648 192.444 493.434 192.323 492.594C192.203 491.754 191.357 490.65 190.874 490.674C187.826 491.601 184.664 492.102 181.477 492.162C177.241 492.385 173.016 491.56 169.18 489.762C167.758 488.779 166.516 487.562 165.509 486.162Z" fill="#302D3B"/>
<path d="M157.129 500.305C159.232 498.718 166.792 492.704 169.626 490.443L168.965 490.107C168.876 490.067 168.795 490.01 168.729 489.938C165.705 492.344 158.594 498.02 156.563 499.56C154.845 500.9 153.669 502.833 153.255 504.996L154.177 505.14C154.566 503.223 155.613 501.509 157.129 500.305Z" fill="white"/>
<path d="M192.871 498.124C189.774 498.155 186.777 499.232 184.359 501.182C182.174 503.132 180.694 505.759 180.151 508.648H181.442C181.97 506.144 183.277 503.875 185.172 502.17C187.397 500.375 190.163 499.398 193.014 499.4L192.871 498.124Z" fill="white"/>
<path d="M142.211 507.479H193.535C193.893 507.479 194.184 507.804 194.184 508.205V513.769C194.184 514.17 193.893 514.495 193.535 514.495H142.211C141.852 514.495 141.562 514.17 141.562 513.769V508.205C141.562 507.804 141.852 507.479 142.211 507.479Z" fill="white"/>
<path d="M150.719 495.813C150.288 495.64 148.183 496.225 145.444 498.805C144.303 499.935 143.482 501.324 143.058 502.841C142.634 504.359 142.622 505.955 143.021 507.479H156.763C155.993 499.152 151.149 495.987 150.719 495.813Z" fill="white"/>
<path d="M156.574 495.331C156.714 495.535 156.78 495.796 156.759 496.058C156.738 496.32 156.632 496.562 156.462 496.731C156.379 496.813 156.283 496.874 156.18 496.912C156.077 496.949 155.969 496.962 155.862 496.95C155.754 496.937 155.65 496.9 155.555 496.84C155.46 496.779 155.376 496.697 155.307 496.598L153.444 493.909C153.304 493.706 153.238 493.444 153.259 493.182C153.28 492.92 153.387 492.679 153.556 492.51C153.638 492.425 153.734 492.361 153.837 492.322C153.94 492.283 154.049 492.269 154.157 492.281C154.265 492.294 154.37 492.332 154.465 492.395C154.561 492.457 154.644 492.541 154.711 492.643L156.574 495.331Z" fill="white"/>
<path d="M158.913 493.748C159.053 494.003 159.12 494.329 159.099 494.656C159.078 494.982 158.971 495.284 158.801 495.494C158.719 495.6 158.623 495.68 158.519 495.729C158.416 495.778 158.307 495.795 158.198 495.779C158.09 495.764 157.985 495.716 157.89 495.638C157.794 495.561 157.711 495.455 157.644 495.328L155.777 491.975C155.641 491.718 155.577 491.393 155.598 491.069C155.619 490.744 155.723 490.443 155.889 490.229C155.971 490.123 156.067 490.043 156.17 489.994C156.274 489.945 156.383 489.928 156.491 489.944C156.6 489.959 156.705 490.007 156.8 490.085C156.895 490.162 156.979 490.268 157.046 490.395L158.913 493.748Z" fill="white"/>
<path d="M162.355 491.071C162.539 491.22 162.63 491.412 162.607 491.607C162.584 491.801 162.449 491.981 162.233 492.107C162.009 492.233 161.722 492.292 161.434 492.274C161.147 492.255 160.881 492.159 160.696 492.007L158.257 489.985C158.154 489.916 158.073 489.834 158.017 489.744C157.962 489.654 157.933 489.557 157.933 489.458C157.933 489.36 157.962 489.263 158.017 489.173C158.073 489.082 158.154 489 158.257 488.932C158.483 488.811 158.768 488.754 159.054 488.772C159.34 488.791 159.605 488.884 159.794 489.032L162.355 491.071Z" fill="white"/>
<path d="M164.763 489.002C164.831 489.128 164.882 489.272 164.914 489.428C164.945 489.584 164.956 489.747 164.945 489.909C164.935 490.071 164.904 490.228 164.853 490.372C164.803 490.515 164.734 490.642 164.651 490.746C164.495 490.978 164.286 491.107 164.067 491.107C163.849 491.107 163.639 490.978 163.483 490.746L161.629 487.315C161.49 487.057 161.424 486.726 161.445 486.395C161.466 486.063 161.572 485.757 161.74 485.544C161.823 485.44 161.919 485.362 162.021 485.315C162.124 485.267 162.232 485.251 162.338 485.266C162.445 485.282 162.549 485.329 162.643 485.406C162.738 485.483 162.822 485.587 162.89 485.712L164.763 489.002Z" fill="white"/>
<path d="M119.973 477.103C117.276 476.912 114.602 477.705 112.458 479.333C110.315 480.96 108.851 483.308 108.345 485.931L95.956 498.491V506.309H135.715C135.715 506.309 133.741 492.223 133.147 489.053C132.552 485.884 130.65 477.103 119.973 477.103Z" fill="#FBBEAA"/>
<path d="M109.356 486.162C108.896 485.538 108.268 485.058 107.784 485.346C107.301 485.634 95.1159 495.233 94.5598 495.713C94.0038 496.193 93.6169 496.793 93.6169 498.353V508.648H138.053C138.053 508.648 136.313 493.434 136.192 492.594C136.071 491.754 135.225 490.65 134.741 490.674C131.691 491.601 128.526 492.102 125.336 492.162C121.105 492.389 116.884 491.564 113.055 489.762C111.62 488.785 110.369 487.566 109.356 486.162Z" fill="#302D3B"/>
<path d="M102.169 500.305C104.272 498.718 111.831 492.704 114.666 490.443L114.028 490.107C113.932 490.068 113.844 490.011 113.768 489.938C110.745 492.344 103.634 498.02 101.602 499.56C99.8846 500.9 98.7082 502.833 98.2947 504.996L99.2161 505.14C99.6173 503.227 100.662 501.517 102.169 500.305Z" fill="white"/>
<path d="M135.584 498.124C132.769 498.155 130.044 499.232 127.847 501.182C125.86 503.132 124.514 505.759 124.021 508.648H125.195C125.681 506.141 126.876 503.872 128.607 502.17C130.62 500.371 133.129 499.394 135.715 499.4L135.584 498.124Z" fill="white"/>
<path d="M87.2498 507.479H138.574C138.932 507.479 139.223 507.804 139.223 508.205V513.769C139.223 514.17 138.932 514.495 138.574 514.495H87.2498C86.8913 514.495 86.6007 514.17 86.6007 513.769V508.205C86.6007 507.804 86.8913 507.479 87.2498 507.479Z" fill="white"/>
<path d="M95.2544 495.813C94.7885 495.64 92.5075 496.225 89.5399 498.805C88.3044 499.935 87.4149 501.324 86.9557 502.841C86.4965 504.359 86.4827 505.955 86.9157 507.479H101.803C100.969 499.152 95.7204 495.987 95.2544 495.813Z" fill="white"/>
<path d="M100.381 495.331C100.568 495.535 100.657 495.796 100.629 496.058C100.601 496.32 100.458 496.562 100.232 496.731C100.121 496.813 99.9926 496.874 99.8549 496.912C99.7172 496.949 99.5725 496.962 99.4292 496.95C99.2858 496.937 99.1466 496.9 99.0195 496.84C98.8924 496.779 98.7799 496.697 98.6885 496.598L96.1993 493.909C96.0188 493.703 95.9337 493.443 95.9614 493.183C95.9892 492.923 96.1279 492.682 96.3487 492.51C96.4583 492.425 96.586 492.361 96.7242 492.322C96.8623 492.283 97.008 492.269 97.1523 492.281C97.2967 492.294 97.4366 492.332 97.5637 492.395C97.6909 492.457 97.8026 492.541 97.892 492.643L100.381 495.331Z" fill="white"/>
<path d="M102.783 493.745C102.923 494 102.989 494.326 102.968 494.654C102.947 494.981 102.84 495.283 102.671 495.494C102.588 495.6 102.493 495.68 102.389 495.729C102.285 495.778 102.176 495.795 102.068 495.779C101.96 495.764 101.855 495.716 101.759 495.638C101.664 495.56 101.58 495.455 101.513 495.327L99.6463 491.969C99.5109 491.711 99.4471 491.386 99.4679 491.061C99.4887 490.736 99.5927 490.435 99.7583 490.22C99.9296 490.012 100.149 489.913 100.369 489.944C100.59 489.975 100.793 490.134 100.934 490.386L102.783 493.745Z" fill="white"/>
<path d="M106.149 491.073C106.254 491.14 106.337 491.22 106.394 491.309C106.451 491.398 106.48 491.494 106.48 491.59C106.48 491.687 106.451 491.782 106.394 491.871C106.337 491.96 106.254 492.041 106.149 492.108C105.919 492.233 105.624 492.292 105.327 492.274C105.031 492.255 104.758 492.159 104.568 492.007L102.058 489.988C101.87 489.835 101.78 489.639 101.808 489.442C101.836 489.245 101.98 489.064 102.208 488.937C102.32 488.875 102.45 488.829 102.588 488.801C102.727 488.773 102.873 488.763 103.018 488.772C103.162 488.782 103.303 488.81 103.431 488.855C103.559 488.901 103.672 488.962 103.765 489.037L106.149 491.073Z" fill="white"/>
<path d="M108.57 489.002C108.661 489.128 108.729 489.272 108.771 489.428C108.813 489.584 108.828 489.747 108.814 489.909C108.8 490.071 108.758 490.228 108.691 490.372C108.624 490.515 108.532 490.642 108.422 490.746C108.214 490.978 107.934 491.107 107.643 491.107C107.352 491.107 107.072 490.978 106.864 490.746L104.392 487.315C104.207 487.057 104.119 486.726 104.146 486.395C104.174 486.063 104.316 485.757 104.541 485.544C104.651 485.44 104.778 485.362 104.915 485.315C105.052 485.267 105.195 485.251 105.338 485.266C105.48 485.282 105.618 485.329 105.745 485.406C105.871 485.483 105.982 485.587 106.073 485.712L108.57 489.002Z" fill="white"/>
<path d="M186.972 333.527C187.368 336.615 187.16 339.752 186.358 342.757C185.556 345.762 184.176 348.576 182.299 351.035C180.422 353.494 178.085 355.549 175.422 357.083C172.76 358.616 169.825 359.597 166.787 359.969C163.75 360.341 160.67 360.096 157.726 359.248C154.782 358.4 152.033 356.967 149.637 355.031C147.241 353.095 145.246 350.694 143.767 347.968C142.288 345.242 141.355 342.245 141.021 339.149C141.021 339.149 128.975 253.023 126.118 235.624C123.261 218.224 126.284 203.66 145.426 199.516C165.282 195.226 177.686 210.033 179.186 224.864C180.686 239.695 186.972 333.527 186.972 333.527Z" fill="#013EA5"/>
<path d="M148.288 335.184C148.365 341.414 145.961 347.42 141.604 351.88C137.248 356.34 131.297 358.889 125.059 358.966C118.821 359.043 112.809 356.642 108.344 352.29C103.879 347.939 101.327 341.994 101.25 335.764C101.25 335.764 98.2736 249.044 97.2573 231.473C96.2411 213.902 100.838 199.811 120.631 197.781C141.15 195.678 152.086 211.702 152.086 226.591C152.086 241.479 148.288 335.184 148.288 335.184Z" fill="#013EA5"/>
<path d="M148.578 335.374C148.539 332.292 147.881 329.248 146.64 326.415C145.4 323.582 143.601 321.016 141.348 318.864C139.094 316.711 136.43 315.015 133.507 313.87C130.584 312.726 127.459 312.157 124.311 312.195C121.163 312.233 118.053 312.877 115.16 314.092C112.267 315.307 109.646 317.067 107.447 319.273C105.249 321.48 103.516 324.088 102.347 326.95C101.178 329.812 100.597 332.871 100.636 335.953L105.568 460.131L144.262 464.212L148.578 335.374Z" fill="#013EA5"/>
<path d="M186.89 333.884C186.093 327.725 182.921 322.133 178.065 318.322C173.209 314.511 167.06 312.79 160.954 313.531C154.848 314.272 149.278 317.417 145.454 322.281C141.63 327.146 139.861 333.338 140.532 339.512L158.619 463.042H196.522L186.89 333.884Z" fill="#013EA5"/>
<path d="M141.562 337.919L159.103 461.873" stroke="#013EA5" stroke-width="0.75" stroke-miterlimit="10" stroke-linecap="round"/>
<path d="M140.393 339.089C140.393 339.089 128.105 253.479 125.191 236.183" stroke="#F5F5F5" stroke-width="0.75" stroke-miterlimit="10" stroke-linecap="round"/>
<path d="M99.4643 208.118C99.4643 208.118 99.4643 232.519 99.4643 233.86C99.4643 235.202 111.195 246.708 126.774 246.708C150.729 246.708 179.4 237.931 178.977 232.213C178.696 228.448 178.344 208.118 178.344 208.118H99.4643Z" fill="#013EA5"/>
<path d="M27.2767 108.011L38.6163 179.195C40.4874 188.125 37.5958 196.205 27.2767 197.622C25.372 197.87 23.4366 197.729 21.5882 197.206C19.7399 196.683 18.017 195.79 16.5243 194.581C15.0316 193.372 13.8003 191.873 12.905 190.173C12.0097 188.474 11.4692 186.61 11.3162 184.695L7.85764 108.153C6.95047 100.924 10.0972 96.1045 15.5969 95.5092C22.3439 94.7721 25.916 98.7694 27.2767 108.011Z" fill="#FBBEAA"/>
<path d="M18.0617 171.314L99.48 109.457C108.977 103.39 115.44 106.622 120.487 113.114C122.791 116.256 123.859 120.136 123.488 124.015C123.117 127.894 121.332 131.501 118.474 134.149L37.2539 193.994C34.3918 196.411 30.7072 197.63 26.9681 197.398C23.2289 197.166 19.7237 195.499 17.1829 192.746L16.8143 192.349C15.4658 190.911 14.4245 189.212 13.7541 187.358C13.0836 185.504 12.798 183.532 12.9147 181.564C13.0314 179.595 13.548 177.671 14.4329 175.909C15.3178 174.147 16.5526 172.584 18.0617 171.314Z" fill="#FBBEAA"/>
<path d="M26.9369 106.111C26.8201 103.557 27.5039 101.029 28.893 98.8823C31.0317 96.4025 32.634 93.5068 33.599 90.3776C34.3413 87.4728 35.527 84.6998 37.1143 82.1563C38.2483 80.5971 39.9492 79.3214 39.9492 78.1308C39.9492 76.9401 37.6813 74.6438 34.4495 75.2959C33.0652 75.7271 31.7933 76.459 30.7249 77.4392C29.6565 78.4194 28.818 79.6236 28.2694 80.9657C27.9597 80.1479 27.7781 79.2874 27.7308 78.4143L27.0221 61.0363C27.0113 60.5858 26.9104 60.142 26.7252 59.7312C26.5401 59.3203 26.2745 58.9507 25.9442 58.6442C25.6139 58.3377 25.2255 58.1004 24.802 57.9465C24.3785 57.7925 23.9285 57.725 23.4785 57.7478C22.7619 57.7784 22.073 58.0328 21.5085 58.4752C20.9441 58.9176 20.5325 59.5257 20.3317 60.2142V59.4204C20.2226 58.5756 19.7981 57.8034 19.1432 57.2587C18.4884 56.714 17.6516 56.4371 16.8011 56.4838C15.9506 56.5304 15.1492 56.8971 14.5579 57.5102C13.9665 58.1232 13.629 58.9373 13.613 59.789V62.1986C13.329 61.4557 12.7876 60.8396 12.0874 60.4625C11.3871 60.0854 10.5747 59.9725 9.79821 60.1443C9.02167 60.3161 8.33272 60.7611 7.85691 61.3984C7.38111 62.0357 7.15012 62.8228 7.20607 63.6161V65.1469C6.90094 64.6107 6.44622 64.175 5.89745 63.893C5.34868 63.6111 4.72964 63.4951 4.11603 63.5593C3.27574 63.666 2.51 64.0955 1.98086 64.757C1.45172 65.4184 1.20074 66.2598 1.28113 67.103L2.67021 81.7594C3.58018 90.0225 5.28917 98.1779 7.77308 106.111C7.80311 107.436 8.10999 108.739 8.67395 109.938C9.23792 111.137 10.0465 112.205 11.0477 113.073C12.049 113.94 13.2207 114.589 14.4876 114.977C15.7545 115.365 17.0885 115.483 18.404 115.325C19.5944 115.364 20.7794 115.148 21.8786 114.689C22.9779 114.231 23.9657 113.541 24.775 112.667C25.5844 111.793 26.1963 110.756 26.5693 109.624C26.9424 108.493 27.0677 107.295 26.9369 106.111Z" fill="#FBBEAA"/>
<path d="M106.2 105.034L35.7426 152.554C36.039 154.984 30.3292 105.034 30.3292 105.034L4.25038 107.468C4.25038 107.468 5.77393 158.324 9.61172 185.182C11.1348 195.841 20.0067 199.883 30.5265 197.588C35.7204 196.455 40.61 194.323 44.9613 191.269C63.6588 178.145 116.114 141.18 120.403 136.53C127.802 128.507 127.802 122.497 123.55 115.892C119.297 109.286 110.197 104.042 106.2 105.034Z" fill="#013EA5"/>
<path d="M26.3695 83.4324C27.4467 83.4324 27.5317 82.752 28.0137 81.5047C25.604 81.5047 18.6018 81.9582 15.5401 87.8548C18.6302 83.6025 24.5551 83.4324 26.3695 83.4324ZM20.8698 61.0083C20.8698 61.0083 21.0398 62.0006 21.2099 63.4464C21.2099 64.1834 21.3801 65.0622 21.4368 65.9694C21.4935 66.8765 21.5785 67.8688 21.6635 68.8043C21.6635 70.7887 21.8052 72.7448 21.8052 74.219C21.8052 75.6931 21.8052 76.6853 21.8052 76.6853C21.8054 76.7325 21.7958 76.7792 21.7769 76.8224C21.7581 76.8657 21.7304 76.9045 21.6958 76.9365C21.6611 76.9684 21.6202 76.9929 21.5756 77.0083C21.531 77.0236 21.4838 77.0294 21.4368 77.0255C21.357 77.0215 21.2806 76.9916 21.2193 76.9405C21.1579 76.8894 21.1148 76.8198 21.0965 76.7421C21.0965 76.7421 20.9265 75.7498 20.7847 74.2756C20.643 72.8015 20.4162 70.8454 20.3311 68.8893C20.3311 67.8971 20.3311 66.9049 20.3311 66.0544C20.3311 65.204 20.3311 64.2685 20.3311 63.5314C20.3311 62.0289 20.3311 61.065 20.3311 61.065C20.331 61.0178 20.3406 60.9712 20.3594 60.9279C20.3782 60.8847 20.4059 60.8458 20.4406 60.8138C20.4752 60.7818 20.5161 60.7574 20.5607 60.7421C20.6053 60.7268 20.6527 60.7209 20.6997 60.7248C20.754 60.7561 20.7986 60.8018 20.8287 60.8568C20.8587 60.9118 20.8729 60.9741 20.8698 61.0367V61.0083ZM14.2928 62.9928C14.2928 62.9928 14.4629 63.8432 14.6613 65.0906C14.6613 65.7426 14.8598 66.4796 14.9448 67.2734C15.0299 68.0672 15.1149 68.9177 15.2 69.7681C15.2 71.4691 15.3984 73.17 15.4267 74.4457C15.4551 75.7214 15.4267 76.6003 15.4267 76.6003C15.4231 76.645 15.4108 76.6885 15.3903 76.7285C15.3698 76.7684 15.3417 76.8039 15.3074 76.8329C15.2731 76.8619 15.2335 76.8838 15.1907 76.8974C15.1479 76.911 15.1029 76.916 15.0582 76.9121C14.982 76.9068 14.9097 76.8759 14.8531 76.8245C14.7965 76.7731 14.7589 76.7041 14.7464 76.6286C14.7464 76.6286 14.5763 75.7781 14.3778 74.5308C14.1794 73.2834 14.0093 71.5541 13.8675 69.8816C13.8675 69.0311 13.8676 68.1806 13.6975 67.3868C13.5274 66.5931 13.6975 65.8276 13.6975 65.1756C13.6975 63.8999 13.6975 63.0494 13.6975 63.0494C13.6973 63.0023 13.7069 62.9556 13.7258 62.9124C13.7446 62.8692 13.7722 62.8303 13.8069 62.7983C13.8416 62.7663 13.8825 62.7419 13.9271 62.7266C13.9717 62.7112 14.019 62.7053 14.066 62.7093C14.1289 62.7352 14.1834 62.7781 14.2234 62.8332C14.2634 62.8882 14.2874 62.9532 14.2928 63.0211V62.9928ZM7.94262 65.6859C7.94262 65.6859 8.11267 66.3946 8.33946 67.4719C8.33946 67.9822 8.5663 68.6059 8.65134 69.2863C8.73639 69.9666 8.84974 70.6753 8.96314 71.3841C9.16158 72.8299 9.2467 74.2189 9.3034 75.3529C9.3601 76.4869 9.3034 77.1673 9.3034 77.1673C9.30356 77.2144 9.29387 77.2611 9.27502 77.3043C9.25618 77.3475 9.22853 77.3864 9.19387 77.4184C9.15922 77.4504 9.11831 77.4748 9.07371 77.4901C9.0291 77.5055 8.98185 77.5114 8.93485 77.5074C8.86247 77.5037 8.79317 77.4769 8.73708 77.431C8.68098 77.3851 8.64099 77.3225 8.62296 77.2523C8.62296 77.2523 8.42457 76.5436 8.22612 75.4947C8.02768 74.4458 7.74416 72.9716 7.57407 71.5541C7.57407 70.8171 7.4323 70.1083 7.3756 69.428C7.3189 68.7476 7.3756 68.1239 7.3756 67.5853C7.3756 66.508 7.3756 65.7709 7.3756 65.7709C7.37544 65.7238 7.38514 65.6771 7.40398 65.6339C7.42282 65.5906 7.45039 65.5518 7.48504 65.5198C7.5197 65.4878 7.56069 65.4634 7.6053 65.448C7.6499 65.4327 7.69715 65.4268 7.74415 65.4307C7.79649 65.4599 7.84155 65.5006 7.87591 65.5497C7.91028 65.5988 7.93309 65.6551 7.94262 65.7143V65.6859Z" fill="#F18380"/>
<path d="M35.1915 146.808L33.8655 136.199L5.57653 138.409L6.01855 149.018L35.1915 146.808Z" fill="#CFD1CE"/>
<path d="M117.445 98.362C117.445 98.362 100.328 108.246 97.6568 109.975C94.9854 111.705 91.9677 114.373 92.5118 121.588C93.056 128.803 95.3564 225.926 95.3564 225.926C104.141 227.413 129.868 227.413 129.868 227.413H132.206H133.961H136.299H138.053H139.807C139.807 227.413 177.947 224.172 178.714 223.727C179.481 223.282 180.198 222.813 180.148 221.973C180.099 221.132 179.604 122.404 179.283 118.055C179.219 115.726 178.485 113.465 177.17 111.541C175.854 109.618 174.011 108.113 171.862 107.208C166.693 104.91 147.275 97.0277 147.275 97.0277L130.967 98.362H117.445Z" fill="#034CC9"/>
<path d="M117.445 98.362C117.445 98.362 100.328 108.246 97.6567 109.975C94.9853 111.705 91.9676 114.373 92.5118 121.588C93.056 128.803 95.3564 225.926 95.3564 225.926C104.141 227.413 118.174 227.413 118.174 227.413H120.513H122.267H124.605H126.36H128.114C128.114 227.413 125.325 224.172 126.092 223.727C126.859 223.282 127.576 222.813 127.526 221.973C127.477 221.132 126.982 122.404 126.661 118.055C126.597 115.726 125.863 113.465 124.548 111.541C123.232 109.618 121.389 108.113 119.24 107.208C114.071 104.91 147.275 97.0277 147.275 97.0277L130.967 98.362H117.445Z" fill="#0045BA"/>
<path d="M115.502 98.5044C115.502 98.5044 96.5787 109.443 93.6253 111.357C90.6719 113.271 93.0321 117.492 93.0321 125.093C93.0321 135.032 94.7861 135.617 94.7861 135.617C100.704 138.81 103.292 136.319 109.814 137.957C112.986 138.312 115.448 138.394 117.581 136.316C119.714 134.238 126.359 135.032 126.359 135.032C126.359 135.032 136.368 133.718 141.044 136.316C142.162 137.096 143.426 137.643 144.76 137.925C146.095 138.207 147.144 138.186 148.482 137.925C155.264 136.53 182.392 128.741 183.239 128.249C184.087 127.757 184.88 127.237 184.825 126.307C184.771 125.377 184.224 125.112 183.868 120.299C183.798 117.722 182.987 115.219 181.532 113.09C180.077 110.961 178.04 109.296 175.664 108.294C169.949 105.751 148.482 97.0277 148.482 97.0277L130.452 97.6124L115.502 98.5044Z" fill="#9A99A1"/>
<path d="M128.897 94.3926C137.031 94.3926 144.368 90.8565 147.02 89.0884V97.0447C146.725 97.4867 144.456 98.9012 137.738 101.023C131.019 103.144 121.383 102.349 117.405 101.023V93.0666C117.405 93.5086 118.731 94.3926 128.897 94.3926Z" fill="#034CC9"/>
<path d="M128.456 226.997C126.197 226.239 124.221 224.779 122.796 222.816C121.372 220.854 120.57 218.484 120.5 216.033V94.8345H128.456V226.997Z" fill="#034CC9"/>
<path d="M93.0325 138.594H133.133V129.754L93.0325 129.77C93.0325 133.863 93.0325 135.032 93.0325 138.594Z" fill="#D3D4D2"/>
<path d="M165.553 129.754H125.178V138.594H166.381C165.843 134.616 165.553 132.848 165.553 129.754Z" fill="#CFD1CE"/>
<g style="mix-blend-mode:multiply" opacity="0.4">
<path d="M129.34 102.168L128.456 102.349V226.997H129.34V102.168Z" fill="#013FA9"/>
</g>
<g filter="url(#filter0_d_203_574)">
<rect width="50.402" height="71.8228" rx="1" transform="matrix(-0.993463 -0.114154 -0.114154 0.993463 156.179 143.368)" fill="#EFEFEF"/>
</g>
<path d="M133.822 174.89C130.635 173.544 127.753 171.548 125.36 169.03C123.878 167.475 122.198 166.126 120.364 165.018C119.289 164.346 118.361 163.458 117.638 162.412C116.683 160.789 115.893 159.075 115.28 157.296C115.053 155.764 114.532 154.288 113.746 152.95C112.999 152.266 110.362 152.632 108.994 155.292C108.522 156.477 108.308 157.752 108.367 159.033C108.425 160.314 108.755 161.571 109.333 162.72C110.014 164.097 110.548 165.543 110.925 167.031L110.676 167.18C108.591 166.072 106.362 165.27 104.058 164.795C103.223 164.608 102.352 164.709 101.587 165.082C100.822 165.454 100.207 166.077 99.8415 166.849C99.4755 167.621 99.3799 168.497 99.5701 169.337C99.7603 170.177 100.225 170.931 100.89 171.479C97.2949 171.892 97.703 177.437 100.789 178.17C100.128 178.447 99.5706 178.923 99.1911 179.533C98.8117 180.144 98.629 180.859 98.6678 181.582C98.7065 182.305 98.9649 183.001 99.4079 183.577C99.8509 184.152 100.457 184.579 101.145 184.799C98.9526 186.82 100.555 190.151 104.535 190.166C107.77 190.495 116.419 191.848 119.428 192.496C122.437 193.144 128.486 191.711 130.429 192.312C133.321 193.372 136.681 193.39 139.243 185.779C141.805 178.169 136.798 175.873 133.822 174.89Z" fill="#FBBEAA"/>
<path d="M182.325 113.145C188.514 121.101 218.329 204.722 218.329 204.722C185.178 194.114 201.655 190.047 183.625 193.081C183.625 193.081 155.455 133.3 154.662 128.934C153.833 125.492 154.205 121.871 155.716 118.669C157.226 115.468 159.785 112.878 162.968 111.329C171.841 106.793 176.137 105.188 182.325 113.145Z" fill="#0045BA"/>
<path d="M129.775 197.939L193.481 223.587C201.622 227.681 214.849 225.581 218.836 216.059C219.566 214.284 219.928 212.378 219.9 210.459C219.871 208.539 219.453 206.646 218.671 204.893C217.889 203.139 216.759 201.564 215.349 200.26C213.94 198.957 212.28 197.954 210.471 197.311L135.181 170.08L129.775 197.939Z" fill="#0045BA"/>
<path d="M180.966 186.318L170.058 183.046L165.97 212.175L176.071 217.381L180.966 186.318Z" fill="#CFD1CE"/>
<path d="M137.717 121.982L138.461 121.99L138.451 122.918L139.244 122.926L139.254 121.998L139.998 122.006L139.971 124.542L139.228 124.535L139.238 123.53L138.445 123.522L138.434 124.526L137.691 124.519L137.717 121.982L137.717 121.982ZM142.651 122.033L142.625 124.569L141.906 124.562L141.926 122.627L141.456 122.622L141.448 123.35C141.445 123.677 141.416 124.078 141.215 124.301C141.015 124.55 140.641 124.623 140.222 124.542L140.228 123.913C140.623 123.994 140.725 123.843 140.73 123.34L140.743 122.009L142.651 122.028L142.651 122.033ZM143.272 122.039L144.015 122.047L144.42 123.558L144.856 122.056L145.6 122.063L145.922 124.603L145.228 124.596L145.069 123.237L144.657 124.59L144.162 124.585L143.78 123.224L143.593 124.579L142.9 124.572L143.272 122.039L143.272 122.039ZM146.221 122.07L146.964 122.077L146.954 123.107L147.683 122.085L148.501 122.093L147.547 123.339L148.5 124.63L147.609 124.621L146.951 123.584L146.94 124.614L146.197 124.606L146.223 122.07L146.221 122.07L146.221 122.07ZM143.049 119.323C138.588 119.277 135.62 120.88 135.596 123.29C135.571 125.676 138.503 127.363 142.966 127.409C147.452 127.455 150.396 125.827 150.42 123.442C150.445 121.033 147.538 119.369 143.049 119.323ZM142.97 127.034C138.78 126.99 135.996 125.48 136.019 123.294C136.041 121.085 138.857 119.655 143.046 119.699C147.259 119.742 150.022 121.226 149.999 123.438C149.977 125.624 147.186 127.077 142.97 127.034ZM143.042 120.051C139.102 120.01 136.46 121.315 136.439 123.299C136.419 125.282 139.034 126.641 142.974 126.681C146.914 126.722 149.556 125.417 149.576 123.434C149.599 121.45 146.985 120.092 143.042 120.051ZM142.975 126.607C139.082 126.567 136.494 125.234 136.514 123.302C136.534 121.369 139.151 120.089 143.041 120.129C146.931 120.169 149.521 121.502 149.501 123.435C149.484 125.368 146.867 126.647 142.975 126.607L142.975 126.607Z" fill="white"/>
<defs>
<filter id="filter0_d_203_574" x="98.0146" y="137.722" width="60.0566" height="76.8919" filterUnits="userSpaceOnUse" color-interpolation-filters="sRGB">
<feFlood flood-opacity="0" result="BackgroundImageFix"/>
<feColorMatrix in="SourceAlpha" type="matrix" values="0 0 0 0 0 0 0 0 0 0 0 0 0 0 0 0 0 0 127 0" result="hardAlpha"/>
<feOffset dx="2"/>
<feComposite in2="hardAlpha" operator="out"/>
<feColorMatrix type="matrix" values="0 0 0 0 0.603922 0 0 0 0 0.6 0 0 0 0 0.631373 0 0 0 1 0"/>
<feBlend mode="normal" in2="BackgroundImageFix" result="effect1_dropShadow_203_574"/>
<feBlend mode="normal" in="SourceGraphic" in2="effect1_dropShadow_203_574" result="shape"/>
</filter>
</defs>
</svg>
