<svg width="226" height="514" viewBox="0 0 226 514" fill="none" xmlns="http://www.w3.org/2000/svg">
<path d="M110.285 435.337C110.285 435.337 111.435 483.891 111.722 491.154C112.01 498.417 116.634 500.394 124.086 501.037C131.538 501.68 134.677 495.798 135.731 491.13C136.785 486.463 143.159 438.861 143.159 438.861L110.285 435.337Z" fill="#FBBEAA"/>
<path d="M158.421 436.511C158.421 436.511 164.758 485.203 165.806 492.452C166.854 499.7 171.642 501.242 179.099 501.073C186.555 500.904 189.009 494.667 189.556 489.875C190.104 485.083 191.295 436.511 191.295 436.511H158.421Z" fill="#FBBEAA"/>
<path d="M177.848 476.458C175.142 476.266 172.458 477.062 170.307 478.696C168.156 480.33 166.688 482.688 166.18 485.321L153.725 497.932V505.781H193.644C193.644 505.781 191.639 491.638 191.067 488.456C190.494 485.274 188.561 476.458 177.848 476.458Z" fill="#FBBEAA"/>
<path d="M166.028 485.553C165.567 484.927 164.912 484.445 164.451 484.734C163.99 485.023 151.742 494.661 151.159 495.143C150.801 495.477 150.53 495.893 150.369 496.355C150.209 496.817 150.163 497.31 150.238 497.793V508.13H194.818C194.818 508.13 193.072 492.854 192.95 492.01C192.829 491.167 191.98 490.059 191.495 490.083C188.435 491.014 185.26 491.517 182.06 491.577C177.807 491.801 173.565 490.973 169.714 489.167C168.286 488.181 167.039 486.959 166.028 485.553Z" fill="#302D3B"/>
<path d="M157.615 499.753C159.726 498.159 167.316 492.122 170.162 489.852L169.498 489.513C169.408 489.474 169.328 489.417 169.261 489.344C166.225 491.759 159.085 497.459 157.046 499.004C155.321 500.35 154.14 502.291 153.725 504.462L154.65 504.607C155.041 502.682 156.092 500.962 157.615 499.753Z" fill="white"/>
<path d="M193.5 497.563C190.39 497.595 187.381 498.676 184.954 500.634C182.76 502.592 181.274 505.228 180.729 508.129H182.025C182.555 505.616 183.867 503.337 185.77 501.625C188.004 499.823 190.781 498.842 193.644 498.844L193.5 497.563Z" fill="white"/>
<path d="M142.636 506.956H194.166C194.526 506.956 194.818 507.282 194.818 507.684V513.271C194.818 513.674 194.526 514 194.166 514H142.636C142.276 514 141.984 513.674 141.984 513.271V507.684C141.984 507.282 142.276 506.956 142.636 506.956Z" fill="white"/>
<path d="M151.179 495.243C150.747 495.069 148.633 495.657 145.883 498.247C144.737 499.381 143.913 500.776 143.488 502.299C143.062 503.823 143.049 505.426 143.45 506.955H157.248C156.475 498.596 151.611 495.417 151.179 495.243Z" fill="white"/>
<path d="M157.058 494.759C157.198 494.964 157.265 495.226 157.244 495.489C157.223 495.752 157.116 495.995 156.945 496.164C156.862 496.246 156.766 496.308 156.662 496.346C156.559 496.384 156.45 496.397 156.342 496.384C156.235 496.372 156.13 496.334 156.034 496.273C155.939 496.213 155.854 496.13 155.786 496.03L153.915 493.332C153.775 493.127 153.708 492.865 153.729 492.602C153.75 492.339 153.857 492.096 154.027 491.926C154.11 491.841 154.206 491.777 154.31 491.738C154.413 491.698 154.523 491.684 154.631 491.697C154.74 491.709 154.845 491.748 154.941 491.811C155.036 491.873 155.12 491.958 155.187 492.06L157.058 494.759Z" fill="white"/>
<path d="M159.405 493.17C159.546 493.425 159.613 493.753 159.592 494.081C159.571 494.409 159.463 494.712 159.293 494.923C159.21 495.029 159.114 495.109 159.01 495.158C158.906 495.207 158.797 495.225 158.688 495.209C158.579 495.194 158.474 495.145 158.378 495.067C158.282 494.989 158.198 494.884 158.131 494.756L156.256 491.389C156.121 491.131 156.056 490.806 156.077 490.479C156.098 490.153 156.203 489.852 156.369 489.636C156.451 489.53 156.548 489.45 156.652 489.401C156.756 489.352 156.865 489.334 156.974 489.35C157.083 489.366 157.188 489.414 157.284 489.492C157.38 489.57 157.464 489.676 157.531 489.803L159.405 493.17Z" fill="white"/>
<path d="M162.861 490.482C163.046 490.631 163.137 490.824 163.114 491.019C163.091 491.215 162.956 491.395 162.739 491.522C162.514 491.648 162.226 491.708 161.937 491.689C161.648 491.67 161.382 491.574 161.196 491.422L158.747 489.391C158.644 489.322 158.562 489.24 158.506 489.149C158.45 489.059 158.421 488.961 158.421 488.863C158.421 488.764 158.45 488.667 158.506 488.576C158.562 488.485 158.644 488.403 158.747 488.334C158.974 488.212 159.26 488.155 159.547 488.174C159.834 488.192 160.1 488.286 160.29 488.435L162.861 490.482Z" fill="white"/>
<path d="M165.278 488.405C165.347 488.531 165.399 488.676 165.43 488.832C165.462 488.988 165.472 489.153 165.462 489.315C165.452 489.478 165.42 489.636 165.37 489.78C165.319 489.924 165.25 490.052 165.167 490.155C165.01 490.388 164.8 490.518 164.58 490.518C164.361 490.518 164.151 490.388 163.994 490.155L162.133 486.711C161.993 486.452 161.926 486.12 161.947 485.787C161.968 485.454 162.075 485.147 162.244 484.932C162.327 484.828 162.423 484.75 162.526 484.702C162.629 484.655 162.737 484.638 162.844 484.654C162.952 484.67 163.056 484.717 163.151 484.794C163.246 484.871 163.33 484.975 163.398 485.102L165.278 488.405Z" fill="white"/>
<path d="M120.309 476.458C117.601 476.266 114.916 477.062 112.764 478.696C110.612 480.33 109.142 482.688 108.634 485.321L96.1956 497.932V505.781H136.114C136.114 505.781 134.133 491.638 133.536 488.456C132.939 485.274 131.029 476.458 120.309 476.458Z" fill="#FBBEAA"/>
<path d="M109.649 485.553C109.188 484.927 108.557 484.445 108.071 484.734C107.586 485.023 95.352 494.661 94.7937 495.143C94.2354 495.625 93.847 496.227 93.847 497.793V508.13H138.462C138.462 508.13 136.714 492.854 136.593 492.01C136.472 491.167 135.622 490.059 135.136 490.083C132.074 491.014 128.896 491.517 125.694 491.577C121.446 491.805 117.207 490.977 113.363 489.167C111.923 488.186 110.666 486.963 109.649 485.553Z" fill="#302D3B"/>
<path d="M102.433 499.753C104.544 498.159 112.134 492.122 114.98 489.852L114.34 489.513C114.243 489.475 114.155 489.417 114.079 489.344C111.043 491.759 103.904 497.459 101.864 499.004C100.14 500.35 98.9585 502.291 98.5434 504.462L99.4685 504.607C99.8712 502.687 100.92 500.97 102.433 499.753Z" fill="white"/>
<path d="M135.983 497.563C133.157 497.595 130.421 498.676 128.214 500.634C126.22 502.592 124.869 505.228 124.373 508.129H125.552C126.04 505.612 127.24 503.334 128.978 501.625C130.999 499.819 133.518 498.838 136.114 498.844L135.983 497.563Z" fill="white"/>
<path d="M87.4545 506.956H138.985C139.344 506.956 139.636 507.282 139.636 507.684V513.271C139.636 513.674 139.344 514 138.985 514H87.4545C87.0946 514 86.8028 513.674 86.8028 513.271V507.684C86.8028 507.282 87.0946 506.956 87.4545 506.956Z" fill="white"/>
<path d="M95.4913 495.243C95.0234 495.069 92.7334 495.657 89.7538 498.247C88.5133 499.381 87.6203 500.776 87.1592 502.299C86.6982 503.823 86.6843 505.426 87.119 506.955H102.066C101.229 498.596 95.9592 495.417 95.4913 495.243Z" fill="white"/>
<path d="M100.638 494.759C100.826 494.964 100.915 495.226 100.887 495.489C100.859 495.752 100.716 495.995 100.489 496.164C100.377 496.246 100.248 496.308 100.11 496.346C99.9718 496.384 99.8266 496.397 99.6827 496.384C99.5387 496.372 99.3989 496.334 99.2713 496.273C99.1437 496.213 99.0308 496.13 98.939 496.03L96.4398 493.332C96.2585 493.125 96.1731 492.864 96.201 492.602C96.2289 492.341 96.3681 492.099 96.5898 491.926C96.6998 491.841 96.8281 491.777 96.9668 491.738C97.1055 491.698 97.2517 491.684 97.3966 491.697C97.5415 491.709 97.6821 491.748 97.8097 491.811C97.9374 491.873 98.0495 491.958 98.1393 492.06L100.638 494.759Z" fill="white"/>
<path d="M103.05 493.167C103.19 493.422 103.257 493.75 103.236 494.079C103.215 494.408 103.107 494.711 102.937 494.922C102.855 495.029 102.758 495.109 102.654 495.158C102.55 495.207 102.441 495.225 102.332 495.209C102.223 495.194 102.118 495.145 102.022 495.067C101.926 494.989 101.842 494.883 101.775 494.755L99.9005 491.383C99.7646 491.125 99.7005 490.798 99.7214 490.472C99.7423 490.145 99.8467 489.843 100.013 489.627C100.185 489.418 100.405 489.319 100.627 489.35C100.848 489.381 101.051 489.541 101.194 489.794L103.05 493.167Z" fill="white"/>
<path d="M106.43 490.484C106.535 490.551 106.618 490.632 106.676 490.721C106.733 490.81 106.762 490.906 106.762 491.003C106.762 491.1 106.733 491.196 106.676 491.285C106.618 491.375 106.535 491.455 106.43 491.522C106.198 491.648 105.902 491.708 105.605 491.689C105.307 491.67 105.033 491.574 104.842 491.422L102.322 489.395C102.133 489.241 102.043 489.044 102.071 488.846C102.099 488.648 102.244 488.466 102.473 488.339C102.585 488.277 102.715 488.231 102.854 488.203C102.994 488.174 103.14 488.164 103.285 488.174C103.431 488.183 103.572 488.211 103.7 488.257C103.829 488.303 103.943 488.365 104.035 488.439L106.43 490.484Z" fill="white"/>
<path d="M108.86 488.405C108.951 488.531 109.02 488.676 109.062 488.832C109.104 488.988 109.119 489.153 109.105 489.315C109.091 489.478 109.049 489.636 108.981 489.78C108.914 489.924 108.822 490.052 108.711 490.155C108.502 490.388 108.222 490.518 107.929 490.518C107.637 490.518 107.356 490.388 107.147 490.155L104.665 486.711C104.479 486.452 104.391 486.12 104.419 485.787C104.446 485.454 104.589 485.147 104.814 484.932C104.925 484.828 105.053 484.75 105.19 484.702C105.327 484.655 105.472 484.638 105.615 484.654C105.758 484.67 105.896 484.717 106.023 484.794C106.15 484.871 106.262 484.975 106.353 485.102L108.86 488.405Z" fill="white"/>
<path d="M187.577 332.305C187.975 335.405 187.766 338.554 186.96 341.572C186.155 344.589 184.77 347.414 182.886 349.882C181.001 352.351 178.654 354.415 175.981 355.955C173.308 357.495 170.361 358.48 167.311 358.853C164.262 359.226 161.169 358.98 158.214 358.129C155.258 357.278 152.498 355.839 150.092 353.895C147.686 351.951 145.683 349.541 144.198 346.804C142.714 344.067 141.777 341.057 141.442 337.949C141.442 337.949 129.347 251.477 126.478 234.008C123.61 216.538 126.645 201.915 145.864 197.755C165.8 193.448 178.254 208.314 179.76 223.205C181.266 238.095 187.577 332.305 187.577 332.305Z" fill="#013EA5"/>
<path d="M148.737 333.968C148.814 340.223 146.401 346.254 142.027 350.732C137.653 355.21 131.678 357.769 125.415 357.846C119.153 357.923 113.116 355.512 108.633 351.143C104.15 346.775 101.588 340.806 101.51 334.55C101.51 334.55 98.5221 247.482 97.5018 229.84C96.4815 212.199 101.097 198.051 120.969 196.013C141.571 193.902 152.551 209.99 152.551 224.938C152.551 239.887 148.737 333.968 148.737 333.968Z" fill="#013EA5"/>
<path d="M149.029 334.159C148.99 331.065 148.329 328.008 147.083 325.164C145.838 322.32 144.032 319.743 141.769 317.582C139.507 315.421 136.832 313.718 133.897 312.569C130.962 311.42 127.825 310.848 124.664 310.886C121.503 310.925 118.381 311.572 115.476 312.791C112.571 314.011 109.94 315.779 107.733 317.994C105.525 320.209 103.785 322.828 102.612 325.701C101.438 328.575 100.854 331.646 100.893 334.741L105.846 459.418L144.696 463.515L149.029 334.159Z" fill="#013EA5"/>
<path d="M187.495 332.663C186.694 326.48 183.51 320.865 178.634 317.039C173.758 313.213 167.585 311.484 161.454 312.228C155.324 312.972 149.732 316.13 145.892 321.014C142.053 325.898 140.277 332.115 140.95 338.314L159.11 462.341H197.166L187.495 332.663Z" fill="#013EA5"/>
<path d="M141.985 336.714L159.596 461.167" stroke="#013EA5" stroke-width="0.75" stroke-miterlimit="10" stroke-linecap="round"/>
<path d="M140.811 337.888C140.811 337.888 128.473 251.935 125.548 234.57" stroke="#F5F5F5" stroke-width="0.75" stroke-miterlimit="10" stroke-linecap="round"/>
<path d="M99.718 206.392C99.718 206.392 99.718 230.891 99.718 232.237C99.718 233.584 111.496 245.136 127.138 245.136C151.189 245.136 179.975 236.324 179.551 230.584C179.268 226.804 178.915 206.392 178.915 206.392H99.718Z" fill="#013EA5"/>
<path d="M121.282 90.4338C120.572 90.4338 119.063 90.4338 117.731 90.8776C117.731 91.9427 120.098 92.8007 121.282 93.0965C121.578 92.2089 121.992 90.4338 121.282 90.4338Z" fill="#013FA9"/>
<path d="M119.847 71.0099H147.464V103.49H119.847V71.0099Z" fill="#FBBEAA"/>
<path d="M147.44 71.0099H119.915V89.1306C121.117 89.28 122.327 89.3566 123.539 89.36C133.035 89.36 143.655 86.768 147.532 77.7077L147.44 71.0099Z" fill="#F18380"/>
<path d="M105.579 46.9027C105.785 56.2842 105.579 63.693 107.253 70.8496C108.927 78.0061 114.134 83.8552 125.603 83.8552C137.072 83.8552 150.146 80.1164 151.064 65.7803C152.945 63.7389 155.995 56.4677 156.11 48.3248C156.225 40.182 155.605 22.9558 137.026 20.318C118.446 17.6802 105.051 24.4926 105.579 46.9027Z" fill="#FBBEAA"/>
<path d="M115.261 54.2885C115.261 55.55 114.504 56.5822 113.563 56.5822C112.623 56.5822 111.866 55.55 111.866 54.2885C111.866 53.0269 112.623 51.9947 113.563 51.9947C114.504 51.9947 115.261 52.9351 115.261 54.2885Z" fill="#403D4F"/>
<path d="M135.902 54.2885C135.902 55.55 135.145 56.5822 134.205 56.5822C133.265 56.5822 132.508 55.55 132.508 54.2885C132.508 53.0269 133.287 51.9947 134.205 51.9947C135.122 51.9947 135.902 52.9351 135.902 54.2885Z" fill="#403D4F"/>
<path d="M131.661 47.086C131.845 47.2924 133.037 47.086 133.955 47.086C134.872 47.086 136.639 47.086 136.639 46.8796C136.639 46.6731 135.767 45.251 133.473 45.5033C131.914 45.6868 131.455 46.719 131.661 47.086Z" fill="#403D4F"/>
<path d="M115.605 47.086C115.467 47.2924 114.435 47.086 113.632 47.086C112.829 47.086 111.338 47.086 111.338 46.8796C111.338 46.6731 112.072 45.251 114.022 45.5033C115.605 45.6868 115.903 46.719 115.605 47.086Z" fill="#403D4F"/>
<path d="M122.484 63.7845C120.879 63.7845 119.594 62.7294 119.548 61.9724L120.076 55.504C120.093 55.3437 120.173 55.1966 120.297 55.0938C120.421 54.991 120.58 54.9407 120.741 54.9535C120.819 54.9593 120.896 54.9806 120.966 55.016C121.036 55.0515 121.099 55.1005 121.15 55.1602C121.201 55.2199 121.24 55.2891 121.264 55.3638C121.289 55.4386 121.298 55.5174 121.292 55.5958L120.787 61.8348C121.019 62.0862 121.304 62.2826 121.621 62.4096C121.939 62.5366 122.281 62.591 122.622 62.5688C122.702 62.5626 122.783 62.5726 122.859 62.5984C122.935 62.6241 123.005 62.665 123.065 62.7185C123.125 62.7721 123.174 62.8373 123.208 62.9101C123.242 62.9829 123.261 63.0619 123.264 63.1423C123.267 63.2236 123.254 63.3048 123.226 63.3811C123.198 63.4574 123.155 63.5274 123.099 63.587C123.044 63.6467 122.977 63.6948 122.903 63.7287C122.829 63.7626 122.749 63.7816 122.668 63.7845H122.484Z" fill="#F18380"/>
<path d="M123.793 68.3715C121.866 68.4862 118.632 69.5643 118.609 70.413C118.639 71.9888 119.289 73.4891 120.419 74.5884C121.548 75.6878 123.066 76.2974 124.642 76.285C131.706 76.285 131.683 70.8259 131.385 69.6331C131.087 68.4404 127.371 68.1422 123.793 68.3715Z" fill="#73102A"/>
<path d="M131.407 71.5372C129.496 70.8452 127.412 70.7955 125.47 71.3957C123.528 71.996 121.836 73.2135 120.649 74.8632C121.745 75.8356 123.176 76.3453 124.64 76.2853C129.641 76.2853 131.086 73.5787 131.407 71.5372Z" fill="#D65155"/>
<path d="M131.108 69.2207C130.122 68.372 126.888 68.1655 123.791 68.372C121.888 68.4867 118.676 69.5418 118.607 70.4134C122.81 71.0092 127.094 70.6004 131.108 69.2207Z" fill="white"/>
<path d="M139.505 38.5989C139.505 44.2416 141.799 46.6959 143.519 47.774C145.239 48.852 146.501 49.9301 146.501 51.8798V58.7611C146.501 59.541 146.96 60.1373 147.556 59.9309C148.152 59.7245 150.377 58.6005 150.377 57.4766L157.259 52.6138C159.048 48.3742 159.712 43.744 159.185 39.1723C158.981 36.609 158.225 34.12 156.97 31.8755C155.715 29.6309 153.991 27.6837 151.914 26.1667C151.914 21.281 147.327 12.5876 137.67 9.147C137.434 10.913 137.434 12.7026 137.67 14.4685C133.289 10.5003 118.54 9.28463 113.241 11.1196C114.019 12.8576 115.143 14.4186 116.544 15.7072C109.307 17.3786 105.697 21.4939 101.14 27.3595C102.592 29.2528 101.598 30.8165 103.699 31.947C101.289 35.2628 99.8581 39.189 99.5704 43.2782C103.925 42.875 108.194 41.8155 112.232 40.1357C112.006 42.1516 112.123 44.1911 112.576 46.1683C117.164 45.8931 125.834 41.2138 128.288 37.452C127.904 40.5159 128.075 43.6238 128.793 46.6271C133.057 45.0294 136.774 42.2434 139.505 38.5989Z" fill="#403D4F"/>
<path d="M150.585 58.6464C150.585 56.0315 151.112 52.178 154.805 52.0863C158.498 51.9945 159.003 54.7929 158.888 59.1969C158.773 63.6009 154.301 67.3398 150.378 65.8259L150.585 58.6464Z" fill="#FBBEAA"/>
<path d="M156.021 61.8118C155.863 61.7785 155.723 61.6868 155.63 61.555C155.536 61.4232 155.496 61.261 155.516 61.1007C155.516 60.9742 155.482 60.8501 155.417 60.7412C155.353 60.6323 155.26 60.5426 155.149 60.4814C154.911 60.3255 154.632 60.2424 154.347 60.2424C154.062 60.2424 153.783 60.3255 153.544 60.4814C153.446 60.5378 153.335 60.5675 153.223 60.5675C153.11 60.5675 152.999 60.5378 152.902 60.4814C152.802 60.4246 152.721 60.3403 152.668 60.2386C152.615 60.1369 152.593 60.0221 152.603 59.908C152.947 56.215 155.287 55.5269 155.379 55.504C155.457 55.4798 155.54 55.472 155.621 55.4812C155.703 55.4903 155.781 55.5161 155.852 55.557C155.923 55.5979 155.985 55.653 156.034 55.7188C156.083 55.7847 156.117 55.8599 156.136 55.9398C156.178 56.0919 156.158 56.2545 156.081 56.3921C156.004 56.5297 155.875 56.631 155.723 56.6738C155.267 56.8846 154.87 57.2039 154.566 57.6037C154.262 58.0036 154.061 58.4719 153.98 58.9675C154.608 58.8651 155.253 58.9956 155.792 59.3345C156.11 59.5142 156.367 59.7849 156.531 60.1118C156.694 60.4388 156.756 60.8071 156.709 61.1695C156.717 61.26 156.705 61.351 156.672 61.4358C156.64 61.5207 156.589 61.5969 156.522 61.6589C156.456 61.7208 156.376 61.7668 156.289 61.7933C156.202 61.8198 156.111 61.8261 156.021 61.8118Z" fill="#F18380"/>
<path d="M27.2398 105.882L38.6249 177.353C40.5035 186.318 37.6003 194.43 27.2398 195.854C25.3273 196.103 23.3842 195.961 21.5284 195.436C19.6726 194.911 17.9428 194.014 16.4441 192.8C14.9454 191.587 13.7091 190.081 12.8102 188.374C11.9113 186.668 11.3687 184.797 11.2151 182.874L7.74261 106.024C6.83179 98.7664 9.99113 93.9278 15.5129 93.33C22.2871 92.59 25.8735 96.6033 27.2398 105.882Z" fill="#FBBEAA"/>
<path d="M17.9882 169.44L99.7338 107.334C109.269 101.243 115.758 104.487 120.825 111.005C123.139 114.16 124.211 118.056 123.839 121.95C123.466 125.845 121.674 129.466 118.804 132.125L37.2576 192.21C34.384 194.637 30.6846 195.862 26.9304 195.628C23.1762 195.395 19.6569 193.722 17.1059 190.958L16.7358 190.559C15.3819 189.115 14.3364 187.41 13.6633 185.548C12.9901 183.686 12.7033 181.707 12.8205 179.73C12.9377 177.754 13.4564 175.822 14.3449 174.053C15.2333 172.284 16.473 170.714 17.9882 169.44Z" fill="#FBBEAA"/>
<path d="M26.8988 103.975C26.7814 101.41 27.4681 98.8724 28.8628 96.7166C31.0101 94.2269 32.6188 91.3196 33.5876 88.1778C34.3329 85.2613 35.5234 82.4771 37.1171 79.9234C38.2556 78.358 39.9634 77.0772 39.9634 75.8817C39.9634 74.6863 37.6863 72.3808 34.4416 73.0354C33.0517 73.4684 31.7747 74.2032 30.702 75.1874C29.6293 76.1715 28.7874 77.3805 28.2366 78.728C27.9257 77.907 27.7434 77.043 27.6959 76.1664L26.9843 58.7186C26.9735 58.2663 26.8721 57.8207 26.6863 57.4082C26.5004 56.9957 26.2337 56.6246 25.9021 56.3168C25.5704 56.0091 25.1805 55.7709 24.7553 55.6163C24.3301 55.4617 23.8783 55.3939 23.4264 55.4169C22.707 55.4476 22.0153 55.7029 21.4486 56.1471C20.8819 56.5913 20.4686 57.2019 20.267 57.8931V57.0962C20.1575 56.248 19.7313 55.4726 19.0738 54.9257C18.4163 54.3789 17.5762 54.1009 16.7222 54.1477C15.8683 54.1946 15.0637 54.5627 14.47 55.1783C13.8762 55.7938 13.5373 56.6111 13.5213 57.4662V59.8856C13.2362 59.1397 12.6926 58.521 11.9895 58.1424C11.2865 57.7638 10.4708 57.6505 9.69118 57.8229C8.91152 57.9954 8.2198 58.4423 7.74208 59.0821C7.26436 59.7219 7.03245 60.5122 7.08862 61.3087V62.8457C6.78226 62.3073 6.32572 61.8698 5.77474 61.5868C5.22376 61.3037 4.60224 61.1873 3.98616 61.2517C3.14249 61.3588 2.37367 61.7901 1.84241 62.4542C1.31114 63.1182 1.05915 63.963 1.13987 64.8096L2.53453 79.525C3.44816 87.8213 5.16402 96.0095 7.65791 103.975C7.68806 105.305 7.99617 106.613 8.5624 107.817C9.12864 109.021 9.94046 110.093 10.9457 110.964C11.951 111.835 13.1275 112.487 14.3994 112.876C15.6714 113.265 17.0108 113.384 18.3315 113.225C19.5267 113.265 20.7165 113.047 21.8202 112.587C22.9238 112.127 23.9156 111.434 24.7282 110.557C25.5408 109.68 26.1552 108.638 26.5297 107.502C26.9043 106.366 27.0301 105.163 26.8988 103.975Z" fill="#FBBEAA"/>
<path d="M106.481 102.893L35.7404 150.604C36.038 153.044 30.3053 102.893 30.3053 102.893L4.1216 105.337C4.1216 105.337 5.65128 156.397 9.5045 183.363C11.0337 194.065 19.9413 198.123 30.5033 195.819C35.7181 194.681 40.6274 192.541 44.9961 189.475C63.7688 176.298 116.435 139.184 120.741 134.516C128.17 126.461 128.17 120.426 123.9 113.795C119.631 107.163 110.494 101.897 106.481 102.893Z" fill="#013EA5"/>
<path d="M26.3292 81.2047C27.4108 81.2047 27.4961 80.5216 27.98 79.2692C25.5606 79.2692 18.5303 79.7246 15.4563 85.6449C18.5588 81.3754 24.5075 81.2047 26.3292 81.2047ZM20.8073 58.6905C20.8073 58.6905 20.9781 59.6867 21.1489 61.1383C21.1489 61.8783 21.3197 62.7607 21.3766 63.6715C21.4336 64.5823 21.5189 65.5785 21.6043 66.5178C21.6043 68.5102 21.7466 70.4741 21.7466 71.9542C21.7466 73.4343 21.7466 74.4305 21.7466 74.4305C21.7468 74.4778 21.7371 74.5247 21.7182 74.5681C21.6993 74.6115 21.6715 74.6505 21.6367 74.6826C21.6019 74.7147 21.5608 74.7393 21.5161 74.7547C21.4713 74.7701 21.4238 74.7759 21.3766 74.772C21.2966 74.768 21.2199 74.738 21.1583 74.6867C21.0967 74.6354 21.0534 74.5655 21.035 74.4874C21.035 74.4874 20.8643 73.4912 20.722 72.0111C20.5796 70.531 20.3519 68.5671 20.2665 66.6031C20.2665 65.6069 20.2665 64.6107 20.2665 63.7569C20.2665 62.903 20.2665 61.9637 20.2665 61.2237C20.2665 59.7152 20.2665 58.7473 20.2665 58.7473C20.2664 58.7 20.276 58.6532 20.2949 58.6098C20.3139 58.5663 20.3416 58.5273 20.3764 58.4952C20.4112 58.4631 20.4523 58.4386 20.4971 58.4232C20.5419 58.4078 20.5894 58.4019 20.6366 58.4058C20.6911 58.4372 20.736 58.4831 20.7661 58.5384C20.7962 58.5936 20.8105 58.6561 20.8073 58.7189V58.6905ZM14.2039 60.6829C14.2039 60.6829 14.3747 61.5368 14.574 62.7891C14.574 63.4438 14.7732 64.1838 14.8586 64.9807C14.944 65.7777 15.0294 66.6316 15.1148 67.4855C15.1148 69.1933 15.314 70.901 15.3424 72.1819C15.3709 73.4627 15.3424 74.3451 15.3424 74.3451C15.3388 74.39 15.3264 74.4337 15.3059 74.4738C15.2853 74.5139 15.257 74.5495 15.2226 74.5786C15.1882 74.6077 15.1484 74.6298 15.1055 74.6434C15.0625 74.6571 15.0174 74.6621 14.9725 74.6582C14.8959 74.6529 14.8233 74.6219 14.7665 74.5702C14.7097 74.5186 14.6719 74.4493 14.6593 74.3736C14.6593 74.3736 14.4885 73.5196 14.2893 72.2672C14.0901 71.0149 13.9193 69.2787 13.777 67.5994C13.777 66.7455 13.777 65.8916 13.6062 65.0946C13.4354 64.2977 13.6062 63.5292 13.6062 62.8745C13.6062 61.5937 13.6062 60.7398 13.6062 60.7398C13.6061 60.6924 13.6157 60.6456 13.6346 60.6022C13.6535 60.5588 13.6813 60.5197 13.7161 60.4876C13.7509 60.4555 13.792 60.431 13.8368 60.4156C13.8815 60.4002 13.9291 60.3943 13.9763 60.3982C14.0394 60.4243 14.0941 60.4674 14.1343 60.5226C14.1745 60.5779 14.1986 60.6432 14.2039 60.7113V60.6829ZM7.82825 63.3868C7.82825 63.3868 7.99898 64.0984 8.22669 65.18C8.22669 65.6923 8.45444 66.3186 8.53983 67.0017C8.62521 67.6848 8.73902 68.3963 8.85287 69.1079C9.05212 70.5595 9.13758 71.9542 9.1945 73.0927C9.25143 74.2312 9.1945 74.9144 9.1945 74.9144C9.19467 74.9617 9.18493 75.0085 9.16601 75.052C9.1471 75.0954 9.11933 75.1344 9.08454 75.1665C9.04974 75.1986 9.00867 75.2231 8.96388 75.2385C8.9191 75.2539 8.87166 75.2599 8.82447 75.2559C8.7518 75.2521 8.68222 75.2252 8.6259 75.1791C8.56959 75.133 8.52943 75.0702 8.51133 74.9998C8.51133 74.9998 8.31214 74.2882 8.1129 73.2351C7.91366 72.1819 7.629 70.7018 7.45822 69.2787C7.45822 68.5386 7.31588 67.8271 7.25896 67.144C7.20203 66.4608 7.25896 65.8347 7.25896 65.2939C7.25896 64.2123 7.25896 63.4722 7.25896 63.4722C7.25879 63.4249 7.26853 63.378 7.28745 63.3346C7.30636 63.2912 7.33404 63.2522 7.36884 63.22C7.40363 63.1879 7.44479 63.1634 7.48958 63.148C7.53436 63.1326 7.5818 63.1267 7.62899 63.1307C7.68153 63.16 7.72677 63.2008 7.76128 63.2501C7.79579 63.2994 7.81869 63.3559 7.82825 63.4153V63.3868Z" fill="#F18380"/>
<path d="M35.1865 144.835L33.8551 134.184L5.45246 136.403L5.89625 147.054L35.1865 144.835Z" fill="#CFD1CE"/>
<path d="M117.771 96.1942C117.771 96.1942 100.585 106.118 97.9033 107.854C95.2212 109.591 92.1914 112.27 92.7377 119.514C93.2841 126.758 95.5937 224.271 95.5937 224.271C104.414 225.764 130.244 225.764 130.244 225.764H132.592H134.353H136.701H138.462H140.223C140.223 225.764 178.516 222.51 179.286 222.063C180.056 221.617 180.776 221.145 180.727 220.302C180.677 219.458 180.18 120.333 179.857 115.966C179.793 113.628 179.057 111.358 177.736 109.426C176.414 107.495 174.565 105.985 172.407 105.076C167.217 102.768 147.721 94.8546 147.721 94.8546L131.348 96.1942H117.771Z" fill="#034CC9"/>
<path d="M117.771 96.1942C117.771 96.1942 100.585 106.118 97.9031 107.854C95.2209 109.591 92.1911 112.27 92.7375 119.514C93.2838 126.758 95.5935 224.271 95.5935 224.271C104.414 225.764 118.503 225.764 118.503 225.764H120.851H122.612H124.96H126.721H128.482C128.482 225.764 125.683 222.51 126.452 222.063C127.222 221.617 127.943 221.145 127.893 220.302C127.843 219.458 127.347 120.333 127.024 115.966C126.96 113.628 126.223 111.358 124.902 109.426C123.581 107.495 121.731 105.985 119.573 105.076C114.383 102.768 147.721 94.8546 147.721 94.8546L131.347 96.1942H117.771Z" fill="#0045BA"/>
<path d="M115.82 96.3372C115.82 96.3372 96.8206 107.32 93.8554 109.242C90.8901 111.164 93.2598 115.401 93.2598 123.032C93.2598 133.012 95.0209 133.599 95.0209 133.599C100.962 136.805 103.561 134.304 110.109 135.948C113.294 136.305 115.766 136.387 117.907 134.301C120.049 132.214 126.721 133.012 126.721 133.012C126.721 133.012 136.77 131.692 141.465 134.301C142.588 135.084 143.857 135.633 145.196 135.916C146.536 136.199 147.589 136.178 148.933 135.916C155.742 134.516 182.979 126.695 183.83 126.201C184.681 125.707 185.477 125.185 185.422 124.252C185.367 123.318 184.818 123.052 184.461 118.22C184.39 115.632 183.576 113.119 182.115 110.982C180.655 108.844 178.61 107.173 176.224 106.167C170.486 103.613 148.933 94.8546 148.933 94.8546L130.83 95.4416L115.82 96.3372Z" fill="#9A99A1"/>
<path d="M129.269 92.2089C137.435 92.2089 144.802 88.6586 147.465 86.8835V94.8717C147.169 95.3155 144.891 96.7356 138.145 98.8658C131.4 100.996 121.725 100.197 117.731 98.8658V90.8776C117.731 91.3214 119.062 92.2089 129.269 92.2089Z" fill="#034CC9"/>
<path d="M128.826 225.346C126.558 224.585 124.574 223.119 123.144 221.149C121.714 219.178 120.908 216.799 120.838 214.338V92.6526H128.826V225.346Z" fill="#034CC9"/>
<path d="M93.2605 136.588H133.522V127.712L93.2605 127.729C93.2605 131.838 93.2605 133.012 93.2605 136.588Z" fill="#D3D4D2"/>
<path d="M166.073 127.712H125.534V136.588H166.904C166.363 132.594 166.073 130.819 166.073 127.712Z" fill="#CFD1CE"/>
<g style="mix-blend-mode:multiply" opacity="0.4">
<path d="M129.713 100.015L128.826 100.197V225.346H129.713V100.015Z" fill="#013FA9"/>
</g>
<g filter="url(#filter0_d_14_2)">
<rect width="50.6046" height="72.1115" rx="1" transform="matrix(-0.993463 -0.114154 -0.114154 0.993463 156.66 141.382)" fill="#EFEFEF"/>
</g>
<path d="M134.213 173.03C131.013 171.678 128.12 169.675 125.717 167.146C124.229 165.585 122.542 164.23 120.701 163.118C119.621 162.443 118.689 161.552 117.964 160.501C117.005 158.872 116.212 157.151 115.596 155.365C115.368 153.827 114.845 152.345 114.056 151.002C113.306 150.314 110.659 150.682 109.285 153.353C108.811 154.543 108.596 155.823 108.655 157.109C108.714 158.396 109.045 159.657 109.626 160.811C110.31 162.194 110.845 163.645 111.224 165.139L110.974 165.288C108.88 164.177 106.643 163.371 104.33 162.894C103.491 162.707 102.617 162.808 101.849 163.182C101.081 163.556 100.463 164.181 100.096 164.956C99.7284 165.731 99.6324 166.611 99.8234 167.455C100.014 168.298 100.481 169.055 101.149 169.605C97.539 170.02 97.9487 175.587 101.047 176.323C100.384 176.601 99.8238 177.079 99.4429 177.692C99.0619 178.305 98.8785 179.023 98.9174 179.749C98.9563 180.475 99.2157 181.174 99.6605 181.751C100.105 182.329 100.714 182.757 101.404 182.979C99.2034 185.008 100.812 188.352 104.809 188.367C108.056 188.697 116.74 190.057 119.761 190.707C122.783 191.357 128.856 189.919 130.806 190.522C133.71 191.586 137.083 191.604 139.656 183.963C142.228 176.322 137.201 174.017 134.213 173.03Z" fill="#FBBEAA"/>
<path d="M182.912 111.036C189.125 119.025 219.06 202.982 219.06 202.982C185.776 192.331 202.318 188.248 184.216 191.294C184.216 191.294 155.934 131.272 155.137 126.889C154.305 123.434 154.678 119.798 156.195 116.583C157.711 113.369 160.28 110.769 163.476 109.214C172.385 104.66 176.699 103.048 182.912 111.036Z" fill="#0045BA"/>
<path d="M130.15 196.172L194.112 221.923C202.286 226.033 215.566 223.924 219.569 214.364C220.302 212.582 220.666 210.669 220.637 208.742C220.609 206.815 220.189 204.913 219.404 203.153C218.618 201.393 217.484 199.811 216.068 198.502C214.653 197.194 212.987 196.186 211.171 195.541L135.577 168.201L130.15 196.172Z" fill="#0045BA"/>
<path d="M181.547 184.503L170.595 181.219L166.491 210.465L176.632 215.692L181.547 184.503Z" fill="#CFD1CE"/>
<path d="M141.281 36.0437C142.669 40.205 144.829 44.0664 147.65 47.4246H154.554C154.554 47.4246 159.905 41.212 160.307 40.7032C160.887 40.0843 161.328 39.3483 161.6 38.5446C161.873 37.7409 161.97 36.8881 161.886 36.0437H141.281Z" fill="#676575"/>
<path d="M147.649 47.4248C147.649 60.8141 152.073 79.8517 131.271 83.8779C131.271 83.8779 144.599 83.1742 149.71 76.6134C154.821 70.0527 154.553 47.3177 154.553 47.3177L147.649 47.4248Z" fill="#827F94"/>
<path d="M166.836 37.7577H99.2965C98.7823 31.652 99.3623 25.5035 101.009 19.6019C103.685 11.9432 109.037 2.57068 131.434 2.57068C153.831 2.57068 161.671 13.0679 163.25 21.0211C164.829 28.9744 164.08 31.5719 165.016 32.4288C165.953 33.2857 166.836 33.3125 166.836 34.5979V37.7577Z" fill="#EFEFEF"/>
<path d="M131.434 2.5708C126.549 2.48202 121.677 3.07691 116.957 4.33819H116.743L115.913 4.60597C113.652 5.3027 111.5 6.3122 109.518 7.60517C108.172 13.1585 107.819 18.9063 108.474 24.5828H115.913L125.814 22.8957C125.814 22.8957 128.945 6.82859 140.077 3.07959C137.211 2.70328 134.323 2.53325 131.434 2.5708Z" fill="#D8D8D8"/>
<path d="M132.986 0H117.868C116.262 0 108.475 6.05196 108.475 26.7786H125.681C125.681 20.6731 126.752 4.68625 136.385 2.67786C136.358 2.73142 134.913 0 132.986 0Z" fill="#EFEFEF"/>
<path d="M88.513 37.7576V33.8479C88.515 33.2875 88.6325 32.7335 88.8583 32.2207C89.0841 31.7079 89.4133 31.2472 89.8253 30.8676C90.2373 30.488 90.7232 30.1976 91.2525 30.0147C91.7818 29.8317 92.3432 29.7601 92.9015 29.8044H101.545C102.041 29.8276 102.537 29.7439 102.999 29.5592C103.46 29.3744 103.877 29.0928 104.22 28.7332C104.782 28.0905 108.609 24.5022 109.064 23.9666C109.376 23.5577 109.783 23.2298 110.248 23.0108C110.714 22.7918 111.226 22.6879 111.74 22.7081H124.316C124.83 22.6923 125.34 22.7981 125.805 23.0168C126.27 23.2355 126.677 23.5609 126.992 23.9666C127.447 24.5022 131.274 28.0905 131.836 28.7332C132.178 29.0942 132.595 29.3768 133.057 29.5616C133.518 29.7465 134.015 29.8293 134.512 29.8044H141.71C142.268 29.7601 142.829 29.8317 143.359 30.0147C143.888 30.1976 144.374 30.488 144.786 30.8676C145.198 31.2472 145.527 31.7079 145.753 32.2207C145.979 32.7335 146.096 33.2875 146.098 33.8479V37.7576H88.513Z" fill="#D8D8D8"/>
<path d="M138.124 118.881L138.871 118.889L138.861 119.821L139.658 119.829L139.667 118.897L140.414 118.905L140.388 121.451L139.641 121.444L139.652 120.435L138.855 120.427L138.845 121.435L138.098 121.428L138.124 118.881L138.124 118.881ZM143.078 118.932L143.052 121.479L142.331 121.471L142.35 119.528L141.878 119.523L141.87 120.254C141.867 120.583 141.838 120.985 141.637 121.21C141.436 121.46 141.06 121.532 140.639 121.451L140.645 120.82C141.042 120.9 141.144 120.749 141.149 120.245L141.163 118.908L143.078 118.927L143.078 118.932ZM143.701 118.938L144.448 118.946L144.855 120.463L145.292 118.955L146.039 118.962L146.362 121.513L145.666 121.506L145.506 120.141L145.093 121.499L144.595 121.494L144.212 120.128L144.024 121.489L143.328 121.481L143.701 118.938L143.701 118.938ZM146.662 118.969L147.409 118.977L147.398 120.01L148.13 118.984L148.952 118.992L147.994 120.243L148.951 121.539L148.056 121.53L147.395 120.489L147.385 121.523L146.638 121.515L146.664 118.969L146.662 118.969L146.662 118.969ZM143.478 116.211C138.999 116.165 136.019 117.775 135.994 120.194C135.97 122.59 138.914 124.284 143.395 124.33C147.899 124.376 150.854 122.741 150.878 120.347C150.903 117.928 147.984 116.257 143.478 116.211ZM143.399 123.953C139.191 123.909 136.396 122.393 136.419 120.198C136.442 117.98 139.269 116.545 143.474 116.588C147.704 116.632 150.479 118.122 150.456 120.343C150.433 122.538 147.631 123.996 143.399 123.953ZM143.471 116.942C139.515 116.901 136.862 118.211 136.841 120.203C136.821 122.194 139.446 123.558 143.402 123.599C147.358 123.639 150.011 122.33 150.031 120.338C150.054 118.347 147.429 116.983 143.471 116.942ZM143.403 123.525C139.495 123.485 136.897 122.146 136.917 120.206C136.937 118.265 139.564 116.981 143.47 117.021C147.376 117.061 149.976 118.399 149.956 120.34C149.938 122.28 147.311 123.565 143.403 123.525L143.403 123.525Z" fill="white"/>
<defs>
<filter id="filter0_d_14_2" x="98.2622" y="135.712" width="60.2905" height="77.2018" filterUnits="userSpaceOnUse" color-interpolation-filters="sRGB">
<feFlood flood-opacity="0" result="BackgroundImageFix"/>
<feColorMatrix in="SourceAlpha" type="matrix" values="0 0 0 0 0 0 0 0 0 0 0 0 0 0 0 0 0 0 127 0" result="hardAlpha"/>
<feOffset dx="2"/>
<feComposite in2="hardAlpha" operator="out"/>
<feColorMatrix type="matrix" values="0 0 0 0 0.603922 0 0 0 0 0.6 0 0 0 0 0.631373 0 0 0 1 0"/>
<feBlend mode="normal" in2="BackgroundImageFix" result="effect1_dropShadow_14_2"/>
<feBlend mode="normal" in="SourceGraphic" in2="effect1_dropShadow_14_2" result="shape"/>
</filter>
</defs>
</svg>
