<svg width="218" height="515" viewBox="0 0 218 515" fill="none" xmlns="http://www.w3.org/2000/svg">
<path d="M36.2321 97.0294C36.1064 94.284 36.8414 91.5681 38.3342 89.2607C40.6326 86.5957 42.3544 85.9405 43.3915 82.5777C44.1892 79.456 45.4635 76.4759 47.1693 73.7426C48.3879 72.067 50.2158 70.6961 50.2158 69.4165C50.2158 68.137 47.7786 65.6693 44.3055 66.37C42.8178 66.8334 41.451 67.6199 40.3028 68.6733C39.1546 69.7266 38.2535 71.0208 37.6639 72.4631C37.3312 71.5843 37.136 70.6595 37.0852 69.7212L36.3235 48.5892C36.312 48.105 36.2035 47.6281 36.0045 47.1866C35.8056 46.745 35.5202 46.3479 35.1652 46.0184C34.8102 45.689 34.3929 45.4341 33.9377 45.2686C33.4826 45.1032 32.999 45.0306 32.5153 45.0551C31.7453 45.088 31.0049 45.3613 30.3983 45.8368C30.0905 46.078 24.9376 52.3274 19.9079 58.5218C15.0258 64.5343 10.2599 70.495 10.1536 70.8595C11.1315 79.7395 12.9681 88.5038 15.6374 97.0294C15.6697 98.4528 15.9995 99.8538 16.6055 101.142C17.2116 102.431 18.0806 103.578 19.1565 104.511C20.2325 105.443 21.4918 106.14 22.8533 106.557C24.2148 106.974 25.6484 107.101 27.062 106.931C28.3413 106.973 29.6147 106.74 30.7961 106.248C31.9774 105.755 33.039 105.014 33.9087 104.075C34.7785 103.136 35.4361 102.02 35.837 100.805C36.2379 99.5892 36.3726 98.3016 36.2321 97.0294Z" fill="#FBBEAA"/>
<path d="M29.1784 41.5686L13.2248 56.9747C9.38059 61.2854 7.56319 65.6519 7.27588 69.6882C7.28291 69.6955 7.27862 69.6996 7.28214 69.7032C6.87343 75.349 9.45133 80.335 13.5905 83.5528C13.6687 83.6251 13.7624 83.6966 13.8491 83.7607C13.8745 83.7784 13.8956 83.8002 13.9131 83.8185C16.1844 85.5036 18.9011 86.6671 21.8271 87.1499C22.7944 87.3138 23.7926 87.3987 24.8077 87.3898C24.8926 87.3923 24.9463 87.3967 24.9584 87.3921C24.9817 87.3906 25.0164 87.3923 25.0667 87.3931C29.6211 87.331 34.4742 85.5867 38.8905 81.6034L53.9019 67.1705L29.1784 41.5686Z" fill="#0099FF"/>
<path d="M7.2775 69.7071C6.63955 78.5518 13.3215 85.7618 21.8267 87.1496C23.3131 87.2699 24.4111 87.364 24.8073 87.3896C24.8922 87.3921 24.946 87.3964 24.958 87.3918C24.9814 87.3904 25.0161 87.3921 25.0663 87.3928C25.9351 87.3352 32.6226 86.7124 41.6302 77.662C48.5613 70.7012 51.4784 68.1658 51.4784 68.1658L42.5004 64.5104C42.5004 64.5104 28.5004 79.5716 20.187 80.793C11.8687 82.0263 7.73083 75.0061 7.2775 69.7071Z" fill="#0099FF"/>
<path d="M29.1769 41.5697L13.2234 56.9758C11.1854 59.2676 9.71655 61.559 8.74967 63.823C8.7454 63.8272 8.7454 63.8272 8.73686 63.8354C7.88481 65.8337 7.41165 67.797 7.2744 69.6893L7.27842 69.7276C7.27616 69.7509 7.28092 69.7815 7.27991 69.8318C6.91039 75.4327 9.48302 80.3533 13.5848 83.558C13.0328 83.0634 12.3309 82.08 11.7249 80.7858C11.6767 80.6845 11.6284 80.5833 11.5837 80.4857C11.539 80.3881 11.5021 80.29 11.4573 80.1924C11.4008 80.057 11.345 79.9137 11.297 79.77C11.2342 79.6195 11.1765 79.4571 11.1285 79.3134C11.0848 79.1655 11.034 79.0104 10.9903 78.8626L10.9875 78.8512C10.927 78.6773 10.8891 78.5098 10.8489 78.3657C10.7908 78.1261 10.7301 77.875 10.6813 77.6194C10.6703 77.5738 10.6683 77.5546 10.6683 77.5546C10.1186 74.763 10.4059 71.4447 12.8011 68.4629C16.1861 64.2579 22.8205 58.1609 26.8614 54.5753C28.8617 52.7915 30.2325 51.6296 30.2325 51.6296C30.2325 51.6296 29.5957 49.0982 29.0978 47.3688C28.839 46.4854 28.623 45.8001 28.5466 45.7894C28.319 45.7417 29.1294 41.8197 29.1839 41.577L29.1769 41.5697Z" fill="#0099FF"/>
<path d="M29.1785 41.5694L13.2249 56.9755C11.187 59.2673 9.71813 61.5586 8.75125 63.8227C10.3897 60.9805 13.9674 55.7869 19.9407 53.2706C22.5838 52.1611 24.7084 52.9251 26.8553 54.5755C29.5707 56.6694 32.3265 60.1813 36.2343 63.151C43.2389 68.4726 52.8178 68.2112 53.1424 67.8977L53.5439 67.51L51.7844 67.8506L46.0384 66.3112L42.0711 63.5962C42.0711 63.5962 33.6259 54.851 33.3445 54.5596C33.0631 54.2682 29.0838 47.3694 29.0838 47.3694L29.1699 41.5776L29.1785 41.5694Z" fill="#0099FF"/>
<path d="M42.2588 64.7461L41.0516 66.0176C41.0516 66.0176 36.7302 64.0386 33.6655 61.0361C31.0006 58.4218 26.8594 54.5865 26.8594 54.5865L30.2305 51.6408L35.8824 58.0576L42.2588 64.7461Z" fill="#0099FF"/>
<path d="M51.4744 68.1707L51.0616 68.5553C51.743 68.4745 52.4794 68.3053 53.1414 67.9053L53.8975 67.1752L51.4744 68.1707Z" fill="#0099FF"/>
<path d="M51.4736 68.1707L51.0608 68.5552C51.0608 68.5552 49.6224 68.818 45.5263 67.7477C43.3405 67.1767 41.0414 66.0182 41.0414 66.0182L42.4878 64.5158C42.4878 64.5158 47.3861 66.8528 47.4454 66.9996C47.5168 67.1419 51.4736 68.1707 51.4736 68.1707Z" fill="#0099FF"/>
<path d="M36.1599 59.5691C29.3336 52.5003 26.2095 44.4431 29.1818 41.5727C32.1541 38.7024 40.0975 42.1058 46.9237 49.1746C53.7499 56.2434 56.8741 64.3006 53.9018 67.171C50.9294 70.0414 42.9861 66.6379 36.1599 59.5691Z" fill="#A3A9AA"/>
<path d="M30.1478 42.0108C28.8066 43.306 29.0407 45.9589 30.5059 49.1686C31.141 50.5614 32.0125 52.0708 33.087 53.6024C33.1966 53.75 33.3054 53.9054 33.4219 54.0603C34.5038 55.5567 35.773 57.0762 37.2081 58.5623C38.7065 60.1139 40.2569 61.4886 41.7696 62.6533C46.7947 66.5149 51.5503 68.0887 53.5066 66.1995C54.6428 65.1023 54.6418 62.9986 53.7073 60.4238C53.7073 60.4238 53.7073 60.4238 53.7045 60.4124C53.0345 58.5817 51.8982 56.4904 50.3679 54.3501C49.2567 52.7977 47.9369 51.2002 46.4385 49.6486C44.9401 48.097 43.3897 46.7222 41.8699 45.5502C36.8519 41.6959 32.0998 40.1258 30.1478 42.0108Z" fill="#475150"/>
<path d="M7.27783 69.8358C6.90832 75.4367 9.48095 80.3573 13.5827 83.562C13.5827 83.562 12.4474 82.2581 11.7228 80.7898C11.6746 80.6885 11.6264 80.5873 11.5816 80.4897C11.5369 80.3921 11.5 80.294 11.4553 80.1964C11.3917 80.0537 11.3394 79.9141 11.295 79.774C11.2322 79.6235 11.1744 79.4611 11.1264 79.3174C11.0764 79.1545 11.0249 79.0071 10.9882 78.8666L10.9855 78.8552C10.9249 78.6813 10.887 78.5139 10.8468 78.3697C10.7435 77.9977 10.6956 77.7344 10.6792 77.6234C10.6682 77.5778 10.6662 77.5586 10.6662 77.5586C10.6662 77.5586 9.29843 76.0568 8.45932 74.3331C7.32576 72.0138 7.30947 70.4669 7.27783 69.8358Z" fill="#0099FF"/>
<path d="M20.3089 80.1072C19.4021 81.4334 19.1171 82.5744 19.8595 83.4201C21.8476 85.7096 29.2866 84.5231 34.274 80.0798C39.2579 75.6329 42.5535 69.4378 40.5654 67.1483C40.4571 67.0276 40.3473 66.9224 40.2197 66.8416L40.2127 66.8343C37.9915 65.1923 32.9521 68.1371 28.2159 72.3448C25.1076 75.1353 21.829 77.8861 20.3089 80.1072Z" fill="#0099FF"/>
<path d="M19.8607 80.8403C19.8607 80.8403 24.5737 80.78 29.3407 77.2112C32.4078 74.9251 40.2219 66.8442 40.2219 66.8442L40.2148 66.8369C37.9936 65.195 33.0746 67.8969 28.2563 71.9938C20.4166 78.6635 19.8607 80.8403 19.8607 80.8403Z" fill="#0099FF"/>
<path d="M41.8715 45.55L33.2733 53.8533C33.2733 53.8533 35.5387 56.8744 37.2097 58.5621C38.7295 60.0931 40.2585 61.4884 41.7712 62.6531L50.3695 54.3499C49.2583 52.7975 47.9385 51.2 46.4401 49.6484C44.9382 48.0931 43.3878 46.7184 41.8715 45.55Z" fill="#5E6466"/>
<path d="M30.1495 42.0107C28.8083 43.3058 29.1482 45.9059 30.5075 49.1685C31.3142 51.1065 33.2734 53.8533 33.2734 53.8533C33.2734 53.8533 37.3224 50.1051 39.7782 47.6562C40.9829 46.4505 41.8716 45.5501 41.8716 45.5501C36.8536 41.6957 32.1015 40.1256 30.1495 42.0107Z" fill="#747A7C"/>
<path d="M30.1481 42.0109C28.8069 43.3061 29.041 45.959 30.5062 49.1687C32.6763 45.7145 35.8126 45.8252 39.7175 47.6292C39.7408 47.6277 39.7584 47.6459 39.7768 47.6564C40.525 48.0038 41.3018 48.415 42.1061 48.8632C44.3655 50.1515 47.1241 52.8372 49.3865 55.2911C51.8155 57.9431 53.6664 60.3299 53.704 60.4202C53.704 60.4202 53.7041 60.4202 53.7013 60.4088C53.0313 58.5781 51.8949 56.4868 50.3647 54.3465C49.2534 52.7941 47.9337 51.1966 46.4353 49.645C45.577 48.7563 44.7015 47.9265 43.8277 47.1584C43.1749 46.5851 42.5227 46.0464 41.8702 45.5503C36.8522 41.696 32.1001 40.1258 30.1481 42.0109Z" fill="#929799"/>
<path d="M41.8716 45.5501L39.7782 47.6562C40.5264 48.0036 41.3032 48.4148 42.1075 48.863C44.3669 50.1513 47.1255 52.837 49.3879 55.2909L50.3661 54.3463C49.2548 52.7939 47.9351 51.1964 46.4367 49.6448C45.5784 48.7561 44.7029 47.9263 43.8291 47.1582L41.8716 45.5501Z" fill="#6F7577"/>
<path d="M49.3877 55.291L50.3658 54.3464C50.3658 54.3464 51.5032 55.7891 52.3558 57.4927C53.2085 59.1963 53.7052 60.4201 53.7052 60.4201L49.3877 55.291Z" fill="#5E6466"/>
<path d="M34.7631 55.7103C36.0869 57.3461 37.7333 59.1279 39.7924 61.0038C46.1697 66.8469 50.5411 66.9544 50.5411 66.9544C50.5411 66.9544 51.9035 65.5614 46.0579 58.508C46.0579 58.508 46.9681 59.9378 47.2565 61.1938C47.4138 61.8866 47.0256 62.895 44.742 62.4536C42.9187 62.0956 37.2285 58.3061 34.7631 55.7103Z" fill="#475150"/>
<path d="M38.6997 53.054C38.5502 53.1984 38.7296 53.6235 39.0954 54.0023C39.4612 54.3811 39.8797 54.5752 40.0292 54.4308C40.1787 54.2865 40.0029 53.865 39.6336 53.4826C39.2635 53.1079 38.8449 52.9138 38.6997 53.054Z" fill="#5E6466"/>
<path d="M26.9087 54.4867C28.6392 51.7261 25.1255 48.0856 22.8962 46.6631C22.8962 46.6631 21.5545 45.1108 18.7738 47.8916C15.703 50.9625 17.5455 53.0643 17.5455 53.0643C19.552 55.198 24.2338 58.7541 26.9087 54.4867Z" fill="#FBBEAA"/>
<path d="M21.9952 59.8321C23.7256 57.0715 20.212 53.431 17.9826 52.0085C17.9826 52.0085 16.6409 50.4562 13.8602 53.237C10.7894 56.3079 12.6319 58.4097 12.6319 58.4097C14.6384 60.5434 19.3202 64.0995 21.9952 59.8321Z" fill="#FBBEAA"/>
<path d="M17.0826 64.7455C18.813 61.9848 15.2994 58.3443 13.07 56.9219C13.07 56.9219 11.7283 55.3695 8.94765 58.1503C5.87685 61.2212 7.71933 63.323 7.71933 63.323C9.72578 65.4567 14.4076 69.0129 17.0826 64.7455Z" fill="#FBBEAA"/>
<path d="M11.0198 69.1188C12.454 66.805 9.54196 63.7537 7.69431 62.5614C7.69431 62.5614 6.58241 61.2603 4.27787 63.5911C1.73289 66.1649 3.25987 67.9265 3.25987 67.9265C4.92275 69.7149 8.8029 72.6955 11.0198 69.1188Z" fill="#FBBEAA"/>
<path d="M17.5708 73.0373L17.9761 73.4427L17.4052 74.0136L17.8377 74.4461L18.4086 73.8752L18.8139 74.2805L17.254 75.8404L16.8487 75.4351L17.4664 74.8174L17.0339 74.3848L16.4161 75.0025L16.0108 74.5972L17.5707 73.0373L17.5708 73.0373ZM20.2604 75.7269L18.7004 77.2869L18.3088 76.8952L19.4989 75.705L19.2424 75.4485L18.7947 75.8962C18.5935 76.0974 18.3333 76.3302 18.0866 76.3612C17.8243 76.4078 17.5743 76.2514 17.3918 75.9753L17.7786 75.5885C17.9475 75.851 18.0956 75.812 18.4044 75.5031L19.2233 74.6842L20.2632 75.7241L20.2604 75.7269ZM20.5987 76.0653L21.0041 76.4706L20.3067 77.6265L21.4626 76.9292L21.8679 77.3345L20.4976 79.0841L20.1196 78.706L20.8599 77.7773L19.8085 78.3948L19.5383 78.1246L20.1571 77.0745L19.2285 77.8148L18.8505 77.4368L20.5988 76.0652L20.5987 76.0653ZM22.2063 77.6728L22.6116 78.0782L21.9783 78.7115L23.0033 78.4698L23.4494 78.916L22.1642 79.1751L21.9033 80.4897L21.4174 80.0038L21.6863 79.006L21.0529 79.6394L20.6476 79.234L22.2075 77.6741L22.2063 77.6729L22.2063 77.6728ZM22.1314 74.2599C19.6996 71.8281 17.0863 71.2239 15.6043 72.7058C14.1365 74.1736 14.7254 76.7999 17.1584 79.233C19.6038 81.6784 22.2191 82.2534 23.6855 80.787C25.1675 79.3051 24.5781 76.7065 22.1314 74.2599ZM17.3893 79.002C15.105 76.7177 14.4903 74.2809 15.8348 72.9364C17.1936 71.5776 19.6174 72.2078 21.9005 74.4909C24.1972 76.7876 24.8163 79.1976 23.4562 80.5577C22.1116 81.9023 19.6873 81.2999 17.3893 79.002ZM21.6837 74.7076C19.5358 72.5597 17.284 71.9458 16.0642 73.1657C14.8443 74.3856 15.4581 76.6373 17.6061 78.7852C19.754 80.9332 22.0058 81.547 23.2256 80.3272C24.4468 79.1086 23.8329 76.8569 21.6837 74.7076ZM17.6514 78.7399C15.5295 76.618 14.9149 74.3968 16.1037 73.208C17.2924 72.0193 19.5148 72.6351 21.6355 74.7558C23.7562 76.8765 24.372 79.0989 23.1833 80.2877C21.9958 81.4777 19.7733 80.8619 17.6514 78.74L17.6514 78.7399Z" fill="white"/>
<path d="M115.517 67.1408H145.204V102.055H115.517V67.1408Z" fill="#FBBEAA"/>
<path d="M145.178 67.1408H115.59V86.6197C116.882 86.7802 118.183 86.8626 119.485 86.8663C129.693 86.8663 141.109 84.0801 145.276 74.3406L145.178 67.1408Z" fill="#F18380"/>
<path d="M100.179 41.2267C100.4 51.3113 100.179 59.2755 101.978 66.9684C103.778 74.6614 109.376 80.9489 121.704 80.9489C134.032 80.9489 148.087 76.9298 149.073 61.5193C151.095 59.3248 154.374 51.5086 154.498 42.7554C154.621 34.0022 153.955 15.4849 133.983 12.6494C114.011 9.81386 99.6114 17.1369 100.179 41.2267Z" fill="#FBBEAA"/>
<path d="M110.586 49.166C110.586 50.5221 109.773 51.6317 108.762 51.6317C107.751 51.6317 106.937 50.5221 106.937 49.166C106.937 47.8099 107.751 46.7003 108.762 46.7003C109.773 46.7003 110.586 47.7112 110.586 49.166Z" fill="#403D4F"/>
<path d="M132.775 49.166C132.775 50.5221 131.961 51.6317 130.95 51.6317C129.939 51.6317 129.126 50.5221 129.126 49.166C129.126 47.8099 129.964 46.7003 130.95 46.7003C131.937 46.7003 132.775 47.7112 132.775 49.166Z" fill="#403D4F"/>
<path d="M128.216 41.4238C128.413 41.6457 129.695 41.4238 130.682 41.4238C131.668 41.4238 133.566 41.4238 133.566 41.2019C133.566 40.9799 132.629 39.4512 130.164 39.7224C128.487 39.9197 127.994 41.0293 128.216 41.4238Z" fill="#403D4F"/>
<path d="M110.956 41.4238C110.808 41.6457 109.698 41.4238 108.835 41.4238C107.972 41.4238 106.37 41.4238 106.37 41.2019C106.37 40.9799 107.159 39.4512 109.254 39.7224C110.956 39.9197 111.276 41.0293 110.956 41.4238Z" fill="#403D4F"/>
<path d="M118.352 59.3738C116.626 59.3738 115.245 58.2396 115.196 57.4259L115.763 50.4727C115.781 50.3004 115.867 50.1421 116 50.0316C116.134 49.9211 116.305 49.8671 116.478 49.8809C116.562 49.8871 116.644 49.91 116.72 49.9481C116.795 49.9862 116.862 50.0389 116.917 50.103C116.972 50.1672 117.014 50.2416 117.04 50.322C117.066 50.4023 117.076 50.4871 117.069 50.5713L116.527 57.278C116.776 57.5482 117.083 57.7593 117.424 57.8958C117.765 58.0323 118.133 58.0908 118.5 58.067C118.586 58.0603 118.672 58.0711 118.754 58.0987C118.836 58.1264 118.912 58.1703 118.976 58.2279C119.041 58.2855 119.093 58.3556 119.13 58.4338C119.166 58.5121 119.187 58.597 119.19 58.6834C119.193 58.7709 119.179 58.8581 119.149 58.9401C119.118 59.0222 119.072 59.0974 119.013 59.1615C118.953 59.2256 118.881 59.2774 118.802 59.3138C118.722 59.3502 118.636 59.3706 118.549 59.3738H118.352Z" fill="#F18380"/>
<path d="M119.758 64.3047C117.687 64.4279 114.21 65.5868 114.186 66.4991C114.218 68.193 114.917 69.8058 116.131 70.9875C117.345 72.1692 118.976 72.8246 120.67 72.8113C128.265 72.8113 128.24 66.9429 127.92 65.6608C127.599 64.3786 123.605 64.0581 119.758 64.3047Z" fill="#73102A"/>
<path d="M127.942 67.7076C125.888 66.9637 123.648 66.9103 121.561 67.5555C119.474 68.2008 117.654 69.5095 116.378 71.2829C117.557 72.3282 119.095 72.8761 120.669 72.8116C126.044 72.8116 127.597 69.9021 127.942 67.7076Z" fill="#D65155"/>
<path d="M127.621 65.2175C126.561 64.3052 123.084 64.0833 119.756 64.3052C117.709 64.4285 114.257 65.5627 114.183 66.4996C118.701 67.1401 123.306 66.7007 127.621 65.2175Z" fill="white"/>
<path d="M136.647 32.3005C136.647 38.3661 139.113 41.0044 140.962 42.1632C142.812 43.3221 144.168 44.481 144.168 46.5768V53.9739C144.168 54.8122 144.661 55.4533 145.302 55.2314C145.943 55.0095 148.335 53.8013 148.335 52.5931L155.732 47.3658C157.656 42.8085 158.369 37.8312 157.803 32.9169C157.583 30.1614 156.771 27.4859 155.422 25.0731C154.073 22.6603 152.219 20.5671 149.987 18.9365C149.987 13.6846 145.055 4.33964 134.675 0.641113C134.421 2.53946 134.421 4.46316 134.675 6.3615C129.965 2.09587 114.111 0.789056 108.415 2.7616C109.251 4.62984 110.459 6.30787 111.966 7.69297C104.186 9.48971 97.2629 13.9134 92.3637 20.2186C93.9245 22.2539 95.8994 23.9348 98.1581 25.15C95.5669 28.7143 94.0291 32.9348 93.7198 37.3305C98.401 36.8971 102.99 35.7582 107.33 33.9525C107.088 36.1195 107.213 38.3119 107.7 40.4373C112.632 40.1414 121.952 35.1114 124.59 31.0677C124.177 34.3611 124.361 37.7021 125.133 40.9304C129.717 39.2129 133.712 36.2182 136.647 32.3005Z" fill="#403D4F"/>
<path d="M148.558 53.8507C148.558 51.0398 149.125 46.8974 153.095 46.7988C157.064 46.7002 157.607 49.7083 157.484 54.4424C157.36 59.1765 152.552 63.1956 148.336 61.5682L148.558 53.8507Z" fill="#FBBEAA"/>
<path d="M154.401 57.2533C154.231 57.2175 154.081 57.1189 153.981 56.9773C153.88 56.8356 153.837 56.6612 153.859 56.4889C153.858 56.3529 153.822 56.2195 153.752 56.1024C153.683 55.9854 153.584 55.889 153.465 55.8232C153.208 55.6556 152.908 55.5663 152.602 55.5663C152.295 55.5663 151.995 55.6556 151.739 55.8232C151.634 55.8838 151.515 55.9157 151.393 55.9157C151.272 55.9157 151.153 55.8838 151.048 55.8232C150.941 55.7621 150.854 55.6715 150.797 55.5622C150.74 55.4528 150.716 55.3294 150.728 55.2068C151.097 51.237 153.612 50.4973 153.711 50.4726C153.795 50.4467 153.884 50.4383 153.971 50.4481C154.059 50.4579 154.144 50.4857 154.22 50.5297C154.296 50.5736 154.363 50.6328 154.415 50.7036C154.468 50.7744 154.505 50.8553 154.525 50.9411C154.57 51.1046 154.549 51.2795 154.466 51.4274C154.383 51.5753 154.244 51.6841 154.081 51.7301C153.591 51.9568 153.164 52.3 152.837 52.7298C152.511 53.1597 152.294 53.663 152.207 54.1958C152.883 54.0857 153.575 54.226 154.155 54.5903C154.497 54.7835 154.774 55.0745 154.949 55.4259C155.125 55.7773 155.192 56.1733 155.141 56.5629C155.15 56.6601 155.136 56.758 155.101 56.8492C155.067 56.9403 155.011 57.0223 154.94 57.0889C154.869 57.1555 154.783 57.2049 154.69 57.2334C154.596 57.2619 154.498 57.2687 154.401 57.2533Z" fill="#F18380"/>
<path d="M176.426 104.262C182.46 112.02 211.532 193.556 211.532 193.556C179.207 183.212 195.273 179.247 177.693 182.205C177.693 182.205 150.226 123.915 149.452 119.658C148.644 116.302 149.007 112.771 150.48 109.649C151.953 106.527 154.447 104.002 157.551 102.492C166.203 98.0694 170.392 96.5042 176.426 104.262Z" fill="#003399"/>
<path d="M108.73 94.3192L43.2389 138.489C43.5144 140.749 38.207 94.3192 38.207 94.3192L13.9664 96.5818C13.9664 96.5818 15.3825 143.853 18.9498 168.818C20.3656 178.725 28.6121 182.483 38.3904 180.349C43.2182 179.296 47.7632 177.315 51.8078 174.476C69.1874 162.277 117.946 127.917 121.932 123.595C128.81 116.138 128.81 110.551 124.857 104.412C120.904 98.2718 112.446 93.3969 108.73 94.3192Z" fill="#002B80"/>
<path d="M186.02 326.424C186.433 329.583 186.216 332.793 185.38 335.867C184.545 338.942 183.109 341.821 181.154 344.337C179.199 346.853 176.765 348.956 173.992 350.525C171.219 352.094 168.162 353.098 164.999 353.478C161.836 353.858 158.628 353.608 155.562 352.74C152.497 351.873 149.633 350.407 147.138 348.426C144.642 346.445 142.565 343.988 141.025 341.199C139.484 338.41 138.513 335.343 138.166 332.176C138.166 332.176 125.619 244.055 122.644 226.253C119.669 208.45 122.818 193.548 142.753 189.308C163.431 184.92 176.35 200.069 177.912 215.244C179.474 230.418 186.02 326.424 186.02 326.424Z" fill="#93929C"/>
<path d="M146.471 328.134C146.55 334.526 144.087 340.688 139.623 345.263C135.159 349.839 129.06 352.454 122.668 352.532C116.277 352.611 110.115 350.148 105.54 345.684C100.964 341.22 98.3492 335.121 98.2703 328.729C98.2703 328.729 95.2206 239.766 94.1792 221.74C93.1378 203.714 97.8488 189.259 118.131 187.176C139.157 185.019 150.364 201.458 150.364 216.731C150.364 232.005 146.471 328.134 146.471 328.134Z" fill="#93929C"/>
<path d="M107.891 432.967C107.891 432.967 109.081 483.523 109.379 491.086C109.676 498.648 114.462 500.706 122.173 501.376C129.884 502.045 133.132 495.921 134.223 491.061C135.314 486.201 141.91 436.636 141.91 436.636L107.891 432.967Z" fill="#FBBEAA"/>
<path d="M108.759 468.225L137.199 471.275C139.405 455.629 141.91 436.562 141.91 436.562L107.891 432.892C107.891 432.892 108.338 451.836 108.759 468.225Z" fill="#F18380"/>
<path d="M146.471 328.135C146.432 324.97 145.77 321.843 144.523 318.934C143.276 316.025 141.468 313.39 139.202 311.18C136.936 308.97 134.258 307.227 131.319 306.052C128.38 304.877 125.238 304.292 122.073 304.332C118.908 304.371 115.782 305.033 112.873 306.28C109.964 307.527 107.329 309.335 105.119 311.601C102.908 313.866 101.166 316.545 99.9908 319.484C98.8157 322.423 98.231 325.565 98.2701 328.73L103.229 469.645L142.132 473.835L146.471 328.135Z" fill="#93929C"/>
<path d="M158.795 434.901C158.795 434.901 165.39 485.036 166.481 492.499C167.572 499.963 172.556 501.549 180.317 501.376C188.078 501.202 190.631 494.78 191.202 489.846C191.772 484.912 193.012 434.901 193.012 434.901H158.795Z" fill="#FBBEAA"/>
<path d="M163.556 469.862H192.169C192.665 454.092 193.136 434.901 193.136 434.901H158.795C158.795 434.901 161.275 453.596 163.556 469.862Z" fill="#F18380"/>
<path d="M186.02 326.424C185.196 320.129 181.922 314.413 176.909 310.518C171.896 306.623 165.549 304.864 159.246 305.621C152.943 306.379 147.194 309.593 143.247 314.565C139.3 319.537 137.474 325.866 138.166 332.176L159.737 474.604H198.863L186.02 326.424Z" fill="#93929C"/>
<path d="M139.182 332.176L161.423 473.364" stroke="#676767" stroke-width="0.75" stroke-miterlimit="10" stroke-linecap="round"/>
<path d="M139.158 332.176C139.158 332.176 126.612 244.055 123.636 226.253" stroke="#676767" stroke-width="0.75" stroke-miterlimit="10" stroke-linecap="round"/>
<path d="M177.713 475.738C174.901 475.536 172.112 476.374 169.877 478.093C167.642 479.811 166.116 482.291 165.588 485.06L152.645 498.326V506.582H194.127C194.127 506.582 192.044 491.705 191.449 488.358C190.854 485.011 188.846 475.738 177.713 475.738Z" fill="#FBBEAA"/>
<path d="M165.614 484.961C165.143 484.317 164.473 483.821 164.002 484.118C163.531 484.416 151.01 494.334 150.415 494.83C150.048 495.174 149.771 495.602 149.607 496.077C149.443 496.552 149.397 497.06 149.473 497.557V508.194H195.045C195.045 508.194 193.26 492.474 193.136 491.606C193.012 490.739 192.144 489.598 191.649 489.623C188.521 490.581 185.274 491.099 182.003 491.16C177.656 491.391 173.32 490.539 169.383 488.681C167.923 487.666 166.648 486.408 165.614 484.961Z" fill="#2E70AC"/>
<path d="M156.96 499.268C159.167 497.632 167.101 491.433 170.077 489.102L169.382 488.755C169.289 488.715 169.204 488.656 169.134 488.581C165.961 491.061 158.497 496.912 156.365 498.499C154.563 499.881 153.328 501.874 152.894 504.103L153.861 504.252C154.27 502.275 155.368 500.509 156.96 499.268Z" fill="#1E2173"/>
<path d="M193.805 497.359C190.593 497.392 187.485 498.5 184.978 500.508C182.712 502.516 181.177 505.219 180.614 508.194H181.953C182.501 505.616 183.855 503.28 185.821 501.524C188.128 499.676 190.997 498.671 193.954 498.673L193.805 497.359Z" fill="#1E2173"/>
<path d="M142.108 508.17H195.045C195.415 508.17 195.715 508.469 195.715 508.839V513.972C195.715 514.341 195.415 514.641 195.045 514.641H142.108C141.739 514.641 141.439 514.341 141.439 513.972V508.839C141.439 508.469 141.739 508.17 142.108 508.17Z" fill="white"/>
<path d="M150.538 494.73C150.067 494.532 147.761 495.201 144.761 498.152C143.512 499.443 142.613 501.032 142.149 502.767C141.684 504.502 141.671 506.328 142.108 508.07H157.159C156.316 498.549 151.01 494.929 150.538 494.73Z" fill="white"/>
<path d="M156.316 494.88C156.502 495.107 156.59 495.399 156.562 495.691C156.535 495.984 156.392 496.253 156.167 496.442C156.056 496.533 155.929 496.602 155.792 496.644C155.654 496.686 155.51 496.7 155.367 496.686C155.225 496.672 155.086 496.63 154.959 496.563C154.833 496.496 154.721 496.404 154.63 496.293L152.15 493.293C151.964 493.065 151.876 492.774 151.904 492.481C151.931 492.189 152.074 491.919 152.299 491.731C152.408 491.636 152.535 491.565 152.673 491.521C152.811 491.477 152.956 491.462 153.1 491.476C153.243 491.489 153.383 491.532 153.509 491.602C153.636 491.671 153.747 491.766 153.836 491.879L156.316 494.88Z" fill="white"/>
<path d="M159.266 492.623C159.452 492.85 159.54 493.142 159.513 493.435C159.485 493.727 159.343 493.997 159.117 494.185C159.008 494.28 158.881 494.351 158.743 494.395C158.605 494.439 158.46 494.454 158.317 494.44C158.173 494.426 158.033 494.383 157.907 494.314C157.78 494.244 157.669 494.15 157.58 494.036L155.1 491.036C154.921 490.806 154.836 490.516 154.863 490.225C154.891 489.935 155.029 489.666 155.249 489.474C155.358 489.379 155.486 489.308 155.623 489.264C155.761 489.22 155.906 489.205 156.05 489.219C156.193 489.233 156.333 489.276 156.46 489.345C156.586 489.415 156.697 489.509 156.786 489.623L159.266 492.623Z" fill="white"/>
<path d="M162.118 490.392C162.305 490.612 162.397 490.898 162.374 491.186C162.351 491.474 162.214 491.742 161.994 491.929C161.766 492.115 161.475 492.204 161.182 492.176C160.89 492.148 160.62 492.006 160.432 491.78L157.952 488.78C157.848 488.679 157.765 488.557 157.709 488.423C157.652 488.289 157.623 488.145 157.623 487.999C157.623 487.854 157.652 487.71 157.709 487.575C157.765 487.441 157.848 487.32 157.952 487.218C158.182 487.038 158.472 486.954 158.763 486.981C159.053 487.009 159.322 487.147 159.514 487.367L162.118 490.392Z" fill="white"/>
<path d="M164.994 488.135C165.085 488.246 165.154 488.374 165.195 488.511C165.237 488.648 165.252 488.792 165.238 488.935C165.224 489.078 165.182 489.216 165.115 489.343C165.048 489.47 164.956 489.582 164.845 489.673C164.636 489.877 164.356 489.992 164.064 489.992C163.772 489.992 163.491 489.877 163.283 489.673L160.803 486.648C160.617 486.42 160.529 486.129 160.557 485.836C160.585 485.544 160.727 485.274 160.952 485.086C161.063 484.994 161.19 484.926 161.328 484.884C161.465 484.842 161.609 484.827 161.752 484.841C161.894 484.855 162.033 484.897 162.16 484.964C162.286 485.032 162.398 485.124 162.489 485.235L164.994 488.135Z" fill="white"/>
<path d="M119.446 475.738C116.633 475.536 113.845 476.374 111.61 478.093C109.375 479.811 107.849 482.291 107.321 485.06L94.4029 498.326V506.582H135.86C135.86 506.582 133.802 491.705 133.182 488.358C132.562 485.011 130.579 475.738 119.446 475.738Z" fill="#FBBEAA"/>
<path d="M107.346 484.961C106.875 484.317 106.23 483.821 105.734 484.118C105.238 484.416 92.7418 494.334 92.1715 494.83C91.6012 495.326 91.2045 495.946 91.2045 497.557V508.194H136.777C136.777 508.194 134.992 492.474 134.868 491.606C134.744 490.739 133.876 489.598 133.38 489.623C130.253 490.581 127.006 491.099 123.735 491.16C119.396 491.395 115.066 490.543 111.14 488.681C109.668 487.671 108.385 486.412 107.346 484.961Z" fill="#2E70AC"/>
<path d="M98.6922 499.268C100.899 497.632 108.833 491.433 111.809 489.102L111.139 488.755C111.038 488.715 110.945 488.656 110.866 488.581C107.693 491.061 100.229 496.912 98.0971 498.499C96.2945 499.881 95.0598 501.874 94.6258 504.103L95.5928 504.252C96.0139 502.28 97.1101 500.517 98.6922 499.268Z" fill="#1E2173"/>
<path d="M135.537 497.359C132.326 497.392 129.218 498.5 126.71 500.508C124.444 502.516 122.909 505.219 122.346 508.194H123.685C124.24 505.613 125.604 503.276 127.578 501.524C129.874 499.673 132.736 498.666 135.686 498.673L135.537 497.359Z" fill="#1E2173"/>
<path d="M83.8404 508.17H136.777C137.147 508.17 137.447 508.469 137.447 508.839V513.972C137.447 514.341 137.147 514.641 136.777 514.641H83.8404C83.4707 514.641 83.1709 514.341 83.1709 513.972V508.839C83.1709 508.469 83.4707 508.17 83.8404 508.17Z" fill="white"/>
<path d="M92.2705 494.73C91.7994 494.532 89.4934 495.201 86.4932 498.152C85.2441 499.443 84.3449 501.032 83.8806 502.767C83.4164 504.502 83.4025 506.328 83.8402 508.07H98.8906C98.0476 498.549 92.7416 494.929 92.2705 494.73Z" fill="white"/>
<path d="M98.1468 494.88C98.3326 495.107 98.4213 495.399 98.3934 495.691C98.3656 495.984 98.2235 496.253 97.998 496.442C97.8874 496.533 97.7598 496.602 97.6226 496.644C97.4854 496.686 97.3413 496.7 97.1985 496.686C97.0557 496.672 96.9171 496.63 96.7905 496.563C96.6639 496.496 96.5518 496.404 96.4607 496.293L93.9812 493.293C93.8014 493.063 93.7166 492.773 93.7443 492.482C93.772 492.191 93.9101 491.923 94.1301 491.731C94.2393 491.636 94.3665 491.565 94.5041 491.521C94.6417 491.477 94.7868 491.462 94.9305 491.476C95.0743 491.489 95.2137 491.532 95.3404 491.602C95.467 491.671 95.5783 491.766 95.6673 491.879L98.1468 494.88Z" fill="white"/>
<path d="M100.998 492.623C101.184 492.851 101.272 493.142 101.244 493.435C101.217 493.727 101.075 493.997 100.849 494.185C100.74 494.28 100.613 494.351 100.475 494.395C100.337 494.439 100.192 494.454 100.049 494.44C99.9048 494.426 99.7654 494.383 99.6387 494.314C99.5121 494.244 99.4009 494.15 99.3119 494.036L96.8324 491.036C96.6526 490.806 96.5678 490.516 96.5955 490.225C96.6231 489.935 96.7612 489.666 96.9811 489.474C97.2087 489.288 97.5003 489.2 97.7927 489.227C98.0852 489.255 98.3549 489.397 98.5432 489.623L100.998 492.623Z" fill="white"/>
<path d="M103.85 490.391C103.953 490.491 104.036 490.61 104.092 490.742C104.148 490.874 104.177 491.017 104.177 491.16C104.177 491.304 104.148 491.446 104.092 491.578C104.036 491.71 103.953 491.829 103.85 491.929C103.622 492.115 103.331 492.203 103.038 492.175C102.746 492.147 102.476 492.005 102.288 491.78L99.8083 488.78C99.6225 488.552 99.5339 488.261 99.5617 487.968C99.5896 487.676 99.7317 487.406 99.9571 487.218C100.068 487.126 100.195 487.058 100.333 487.016C100.47 486.974 100.614 486.959 100.757 486.973C100.899 486.987 101.038 487.029 101.165 487.096C101.291 487.164 101.403 487.256 101.494 487.366L103.85 490.391Z" fill="white"/>
<path d="M106.726 488.135C106.817 488.246 106.885 488.374 106.927 488.511C106.969 488.648 106.984 488.792 106.97 488.935C106.956 489.078 106.914 489.216 106.847 489.343C106.779 489.47 106.688 489.582 106.577 489.673C106.368 489.877 106.088 489.992 105.796 489.992C105.504 489.992 105.223 489.877 105.015 489.673L102.535 486.648C102.349 486.42 102.261 486.129 102.289 485.836C102.316 485.544 102.459 485.274 102.684 485.086C102.795 484.994 102.922 484.926 103.059 484.884C103.197 484.842 103.341 484.827 103.483 484.841C103.626 484.855 103.765 484.897 103.892 484.964C104.018 485.032 104.13 485.124 104.221 485.235L106.726 488.135Z" fill="white"/>
<path d="M94.9084 202.456C94.9084 202.456 94.9084 228.168 94.9084 229.582C94.9084 230.995 107.306 243.12 123.77 243.12C149.085 243.12 179.384 233.871 178.938 227.846C178.64 223.879 178.269 202.456 178.269 202.456H94.9084Z" fill="#93929C"/>
<path d="M115.656 90.2595C115.656 90.2595 98.4735 100.177 95.8205 101.913C93.1674 103.649 90.0929 106.327 90.6632 113.567C91.2335 120.807 93.5146 215.92 93.5146 215.92C98.8801 218.815 104.586 221.031 110.499 222.515C113.35 222.837 115.607 222.912 117.541 221.027C119.475 219.143 125.178 212.3 125.178 212.3C125.178 212.3 134.575 218.672 138.815 221.027C139.825 221.733 140.967 222.228 142.172 222.483C143.378 222.739 144.622 222.75 145.832 222.515C152.006 221.251 176.304 214.159 177.073 213.713C177.842 213.267 178.561 212.795 178.486 211.952C178.412 211.109 177.966 114.385 177.643 110.021C177.58 107.684 176.844 105.415 175.525 103.484C174.206 101.554 172.359 100.045 170.205 99.1361C165.023 96.8301 145.559 88.9206 145.559 88.9206L125.252 103.029L115.656 90.2595Z" fill="#003399"/>
<path d="M115.656 87.483L125.202 103.029C125.202 103.029 115.83 110.468 115.284 111.013C114.739 111.559 113.648 111.509 113.425 110.641C113.201 109.774 110.499 93.285 110.449 93.285C110.401 93.1975 110.376 93.0995 110.376 92.9998C110.376 92.9002 110.401 92.8021 110.449 92.7147C110.697 92.5411 115.656 87.483 115.656 87.483Z" fill="#F5F5F5"/>
<g filter="url(#filter0_d_203_567)">
<rect width="47.9539" height="68.3343" rx="1" transform="matrix(-0.993463 -0.114154 -0.114154 0.993463 151.454 137.482)" fill="#EFEFEF"/>
</g>
<path d="M145.658 84.6063L125.178 103.029C125.178 103.029 135.963 110.467 136.434 111.013C136.572 111.13 136.734 111.214 136.908 111.259C137.083 111.304 137.266 111.309 137.442 111.273C137.619 111.237 137.785 111.162 137.929 111.052C138.072 110.943 138.188 110.802 138.269 110.641C139.063 109.376 151.758 91.5488 151.807 91.4C151.86 91.3142 151.888 91.2155 151.888 91.1149C151.888 91.0143 151.86 90.9156 151.807 90.8298C151.534 90.681 145.658 84.6063 145.658 84.6063Z" fill="#F5F5F5"/>
<path d="M131.257 165.172C127.859 163.737 124.786 161.609 122.234 158.924C120.655 157.266 118.863 155.827 116.908 154.646C115.761 153.929 114.772 152.983 114.001 151.867C112.983 150.137 112.141 148.309 111.487 146.413C111.245 144.779 110.689 143.206 109.851 141.779C109.055 141.049 106.244 141.439 104.784 144.276C104.281 145.539 104.053 146.899 104.116 148.265C104.178 149.631 104.53 150.971 105.147 152.196C105.873 153.665 106.442 155.206 106.843 156.792L106.578 156.951C104.355 155.771 101.979 154.914 99.5221 154.409C98.6312 154.209 97.7031 154.317 96.8875 154.714C96.0718 155.111 95.4161 155.775 95.0259 156.598C94.6357 157.421 94.5337 158.356 94.7366 159.251C94.9394 160.147 95.4351 160.951 96.1438 161.535C92.3106 161.975 92.7457 167.887 96.0365 168.669C95.3318 168.965 94.737 169.472 94.3324 170.123C93.9279 170.774 93.7331 171.536 93.7744 172.307C93.8158 173.078 94.0912 173.82 94.5635 174.434C95.0359 175.047 95.6823 175.502 96.4154 175.737C94.0781 177.892 95.7866 181.444 100.031 181.459C103.479 181.81 112.701 183.254 115.91 183.944C119.119 184.635 125.568 183.107 127.64 183.748C130.723 184.878 134.305 184.897 137.037 176.782C139.769 168.668 134.431 166.221 131.257 165.172Z" fill="#FBBEAA"/>
<path d="M125.186 186.942L187.303 211.95C195.241 215.942 208.138 213.894 212.026 204.61C212.738 202.879 213.091 201.021 213.063 199.149C213.036 197.278 212.628 195.431 211.866 193.722C211.103 192.013 210.001 190.476 208.627 189.205C207.252 187.934 205.634 186.956 203.87 186.33L130.457 159.778L125.186 186.942Z" fill="#003399"/>
<defs>
<filter id="filter0_d_203_567" x="96.1206" y="132.115" width="57.2261" height="73.1467" filterUnits="userSpaceOnUse" color-interpolation-filters="sRGB">
<feFlood flood-opacity="0" result="BackgroundImageFix"/>
<feColorMatrix in="SourceAlpha" type="matrix" values="0 0 0 0 0 0 0 0 0 0 0 0 0 0 0 0 0 0 127 0" result="hardAlpha"/>
<feOffset dx="2"/>
<feComposite in2="hardAlpha" operator="out"/>
<feColorMatrix type="matrix" values="0 0 0 0 0.603922 0 0 0 0 0.6 0 0 0 0 0.631373 0 0 0 1 0"/>
<feBlend mode="normal" in2="BackgroundImageFix" result="effect1_dropShadow_203_567"/>
<feBlend mode="normal" in="SourceGraphic" in2="effect1_dropShadow_203_567" result="shape"/>
</filter>
</defs>
</svg>
