<svg width="202" height="514" viewBox="0 0 202 514" fill="none" xmlns="http://www.w3.org/2000/svg">
<path d="M171.787 70.3558C171.889 68.1208 171.291 65.9097 170.075 64.0312C168.204 61.8616 166.802 61.3282 165.958 58.5904C165.309 56.049 164.271 53.6229 162.883 51.3976C161.89 50.0335 160.402 48.9174 160.402 47.8757C160.402 46.834 162.387 44.825 165.214 45.3954C166.425 45.7727 167.538 46.413 168.473 47.2706C169.407 48.1282 170.141 49.1817 170.621 50.3559C170.892 49.6405 171.051 48.8876 171.092 48.1237L171.712 30.9197C171.722 30.5256 171.81 30.1373 171.972 29.7778C172.134 29.4184 172.366 29.095 172.655 28.8269C172.944 28.5587 173.284 28.3511 173.655 28.2164C174.025 28.0817 174.419 28.0226 174.813 28.0426C175.44 28.0694 176.042 28.2919 176.536 28.679C176.787 28.8754 180.982 33.9631 185.077 39.0061C189.051 43.901 192.931 48.7537 193.018 49.0504C192.222 56.2798 190.726 63.415 188.553 70.3558C188.527 71.5147 188.259 72.6553 187.765 73.7042C187.272 74.7531 186.564 75.6872 185.688 76.4464C184.812 77.2056 183.787 77.7731 182.679 78.1124C181.57 78.4517 180.403 78.5554 179.252 78.4167C178.211 78.4514 177.174 78.2618 176.212 77.8606C175.251 77.4595 174.386 76.8561 173.678 76.0916C172.97 75.327 172.435 74.4192 172.108 73.4295C171.782 72.4399 171.672 71.3916 171.787 70.3558Z" fill="#FBBEAA"/>
<path d="M177.529 25.2041L190.517 37.7466C193.647 41.256 195.127 44.8108 195.36 48.0969C195.355 48.1028 195.358 48.1061 195.355 48.1091C195.688 52.7054 193.589 56.7646 190.22 59.3843C190.156 59.4432 190.08 59.5013 190.009 59.5535C189.988 59.568 189.971 59.5857 189.957 59.6006C188.108 60.9725 185.896 61.9198 183.514 62.3127C182.727 62.4462 181.914 62.5153 181.088 62.5081C181.018 62.5101 180.975 62.5137 180.965 62.5099C180.946 62.5087 180.918 62.5101 180.877 62.5108C177.169 62.4602 173.218 61.0401 169.622 57.7973L157.401 46.0472L177.529 25.2041Z" fill="#0099FF"/>
<path d="M195.359 48.1123C195.879 55.3129 190.439 61.1827 183.515 62.3125C182.304 62.4104 181.411 62.487 181.088 62.5079C181.019 62.5099 180.975 62.5135 180.965 62.5097C180.946 62.5085 180.918 62.5099 180.877 62.5105C180.17 62.4636 174.725 61.9566 167.392 54.5885C161.749 48.9215 159.375 46.8574 159.375 46.8574L166.684 43.8815C166.684 43.8815 178.081 56.1432 184.849 57.1375C191.622 58.1416 194.99 52.4263 195.359 48.1123Z" fill="#0099FF"/>
<path d="M177.531 25.205L190.519 37.7475C192.178 39.6133 193.374 41.4787 194.161 43.3219C194.164 43.3253 194.164 43.3253 194.171 43.332C194.865 44.9589 195.25 46.5572 195.362 48.0977L195.359 48.129C195.36 48.1479 195.357 48.1728 195.357 48.2137C195.658 52.7735 193.564 56.7796 190.224 59.3885C190.674 58.9858 191.245 58.1853 191.739 57.1316C191.778 57.0492 191.817 56.9668 191.854 56.8873C191.89 56.8079 191.92 56.728 191.956 56.6486C192.002 56.5383 192.048 56.4217 192.087 56.3047C192.138 56.1821 192.185 56.0499 192.224 55.9329C192.26 55.8125 192.301 55.6863 192.337 55.5659L192.339 55.5566C192.388 55.4151 192.419 55.2787 192.452 55.1613C192.499 54.9663 192.549 54.7619 192.588 54.5538C192.597 54.5167 192.599 54.5011 192.599 54.5011C193.046 52.2283 192.812 49.5269 190.862 47.0993C188.107 43.676 182.705 38.7122 179.416 35.7932C177.787 34.341 176.671 33.395 176.671 33.395C176.671 33.395 177.19 31.3341 177.595 29.9262C177.806 29.207 177.982 28.6491 178.044 28.6403C178.229 28.6015 177.569 25.4086 177.525 25.211L177.531 25.205Z" fill="#0099FF"/>
<path d="M177.529 25.2048L190.517 37.7472C192.177 39.613 193.372 41.4784 194.159 43.3217C192.826 41.0077 189.913 36.7796 185.05 34.731C182.898 33.8277 181.168 34.4497 179.421 35.7933C177.21 37.498 174.966 40.3571 171.785 42.7748C166.082 47.1073 158.284 46.8945 158.02 46.6392L157.693 46.3236L159.125 46.6009L163.803 45.3476L167.033 43.1372C167.033 43.1372 173.909 36.0176 174.138 35.7804C174.367 35.5431 177.606 29.9267 177.606 29.9267L177.536 25.2115L177.529 25.2048Z" fill="#0099FF"/>
<path d="M166.88 44.0735L167.863 45.1086C167.863 45.1086 171.381 43.4975 173.876 41.053C176.046 38.9247 179.417 35.8023 179.417 35.8023L176.673 33.4041L172.072 38.6282L166.88 44.0735Z" fill="#0099FF"/>
<path d="M159.378 46.8614L159.714 47.1745C159.159 47.1087 158.56 46.9711 158.021 46.6454L157.405 46.051L159.378 46.8614Z" fill="#0099FF"/>
<path d="M159.378 46.8614L159.715 47.1745C159.715 47.1745 160.886 47.3884 164.22 46.5171C166 46.0522 167.872 45.1091 167.872 45.1091L166.694 43.8859C166.694 43.8859 162.706 45.7885 162.658 45.908C162.6 46.0239 159.378 46.8614 159.378 46.8614Z" fill="#0099FF"/>
<path d="M171.846 39.8587C177.403 34.1039 179.946 27.5443 177.527 25.2075C175.107 22.8706 168.64 25.6415 163.083 31.3963C157.525 37.1511 154.982 43.7107 157.402 46.0475C159.821 48.3843 166.288 45.6135 171.846 39.8587Z" fill="#A3A9AA"/>
<path d="M176.74 25.5642C177.832 26.6186 177.642 28.7784 176.449 31.3915C175.932 32.5254 175.222 33.7542 174.347 35.0011C174.258 35.1213 174.17 35.2478 174.075 35.3739C173.194 36.5921 172.161 37.8292 170.992 39.039C169.772 40.3022 168.51 41.4214 167.279 42.3696C163.188 45.5135 159.316 46.7947 157.723 45.2567C156.798 44.3634 156.799 42.6507 157.56 40.5545C157.56 40.5545 157.56 40.5545 157.562 40.5453C158.108 39.0549 159.033 37.3523 160.279 35.6098C161.183 34.3459 162.258 33.0454 163.478 31.7822C164.697 30.519 165.96 29.3998 167.197 28.4457C171.282 25.3078 175.151 24.0295 176.74 25.5642Z" fill="#475150"/>
<path d="M195.359 48.217C195.66 52.7768 193.566 56.7828 190.226 59.3918C190.226 59.3918 191.151 58.3302 191.74 57.1349C191.78 57.0524 191.819 56.97 191.855 56.8906C191.892 56.8111 191.922 56.7313 191.958 56.6518C192.01 56.5356 192.053 56.4219 192.089 56.3079C192.14 56.1854 192.187 56.0531 192.226 55.9361C192.267 55.8035 192.309 55.6836 192.339 55.5691L192.341 55.5598C192.39 55.4183 192.421 55.282 192.454 55.1646C192.538 54.8618 192.577 54.6474 192.59 54.5571C192.599 54.5199 192.601 54.5043 192.601 54.5043C192.601 54.5043 193.714 53.2816 194.397 51.8783C195.32 49.9902 195.333 48.7308 195.359 48.217Z" fill="#0099FF"/>
<path d="M184.75 56.5792C185.489 57.6588 185.721 58.5877 185.116 59.2763C183.498 61.1402 177.441 60.1742 173.381 56.5569C169.324 52.9366 166.641 47.893 168.259 46.029C168.347 45.9308 168.437 45.8452 168.541 45.7793L168.546 45.7734C170.355 44.4367 174.457 46.8341 178.313 50.2596C180.844 52.5314 183.513 54.7709 184.75 56.5792Z" fill="#0099FF"/>
<path d="M185.115 57.176C185.115 57.176 181.278 57.1269 177.397 54.2215C174.9 52.3603 168.539 45.7815 168.539 45.7815L168.544 45.7756C170.353 44.4388 174.358 46.6385 178.28 49.9739C184.663 55.4038 185.115 57.176 185.115 57.176Z" fill="#0099FF"/>
<path d="M167.196 28.4455L174.196 35.2053C174.196 35.2053 172.351 37.6649 170.991 39.0388C169.754 40.2853 168.509 41.4212 167.277 42.3695L160.277 35.6096C161.182 34.3458 162.256 33.0453 163.476 31.782C164.699 30.5159 165.961 29.3967 167.196 28.4455Z" fill="#5E6466"/>
<path d="M176.739 25.564C177.831 26.6185 177.554 28.7352 176.447 31.3913C175.791 32.9691 174.196 35.2053 174.196 35.2053C174.196 35.2053 170.899 32.1539 168.9 30.1601C167.919 29.1786 167.196 28.4455 167.196 28.4455C171.281 25.3076 175.15 24.0294 176.739 25.564Z" fill="#747A7C"/>
<path d="M176.74 25.5642C177.832 26.6186 177.641 28.7784 176.448 31.3915C174.682 28.5794 172.128 28.6695 168.949 30.1382C168.93 30.137 168.916 30.1518 168.901 30.1603C168.292 30.4431 167.659 30.7779 167.005 31.1428C165.165 32.1916 162.919 34.3781 161.078 36.3759C159.1 38.535 157.593 40.4781 157.563 40.5516C157.563 40.5516 157.563 40.5516 157.565 40.5423C158.11 39.0519 159.035 37.3493 160.281 35.6069C161.186 34.343 162.26 33.0425 163.48 31.7793C164.179 31.0557 164.892 30.3802 165.603 29.7549C166.135 29.2881 166.666 28.8496 167.197 28.4457C171.282 25.3078 175.151 24.0295 176.74 25.5642Z" fill="#929799"/>
<path d="M167.196 28.4455L168.9 30.1601C168.291 30.443 167.658 30.7778 167.004 31.1426C165.164 32.1915 162.918 34.3779 161.077 36.3757L160.28 35.6067C161.185 34.3428 162.259 33.0423 163.479 31.7791C164.178 31.0556 164.891 30.3801 165.602 29.7547L167.196 28.4455Z" fill="#6F7577"/>
<path d="M161.077 36.3758L160.28 35.6068C160.28 35.6068 159.354 36.7814 158.66 38.1683C157.966 39.5552 157.562 40.5515 157.562 40.5515L161.077 36.3758Z" fill="#5E6466"/>
<path d="M172.983 36.7172C171.905 38.0489 170.565 39.4995 168.888 41.0267C163.697 45.7837 160.138 45.8712 160.138 45.8712C160.138 45.8712 159.029 44.7371 163.788 38.9948C163.788 38.9948 163.047 40.1589 162.812 41.1814C162.684 41.7454 163 42.5664 164.859 42.207C166.343 41.9156 170.976 38.8304 172.983 36.7172Z" fill="#475150"/>
<path d="M169.778 34.5547C169.9 34.6722 169.754 35.0183 169.456 35.3267C169.158 35.6351 168.817 35.7931 168.696 35.6755C168.574 35.558 168.717 35.2149 169.018 34.9035C169.319 34.5985 169.66 34.4405 169.778 34.5547Z" fill="#5E6466"/>
<path d="M179.377 35.721C177.968 33.4736 180.829 30.5098 182.644 29.3517C182.644 29.3517 183.736 28.0879 186 30.3518C188.5 32.8519 187 34.563 187 34.563C185.367 36.3001 181.555 39.1952 179.377 35.721Z" fill="#FBBEAA"/>
<path d="M183.377 40.0728C181.968 37.8254 184.829 34.8616 186.644 33.7035C186.644 33.7035 187.736 32.4397 190 34.7036C192.5 37.2037 191 38.9148 191 38.9148C189.367 40.6519 185.555 43.547 183.377 40.0728Z" fill="#FBBEAA"/>
<path d="M187.377 44.0728C185.968 41.8254 188.829 38.8616 190.644 37.7035C190.644 37.7035 191.736 36.4397 194 38.7036C196.5 41.2037 195 42.9148 195 42.9148C193.367 44.6519 189.555 47.547 187.377 44.0728Z" fill="#FBBEAA"/>
<path d="M192.313 47.6332C191.145 45.7495 193.516 43.2654 195.02 42.2948C195.02 42.2948 195.925 41.2355 197.801 43.133C199.873 45.2285 198.63 46.6626 198.63 46.6626C197.276 48.1186 194.117 50.5451 192.313 47.6332Z" fill="#FBBEAA"/>
<path d="M87.2026 475.134C87.2026 472.746 88.1512 470.456 89.8397 468.768C91.5281 467.079 93.8182 466.131 96.206 466.131C98.5938 466.131 100.884 467.079 102.572 468.768C104.261 470.456 105.209 472.746 105.209 475.134V494.703H87.2026V475.134Z" fill="#FBBEAA"/>
<path d="M104.565 478.78C106.772 478.78 107.169 479.748 107.814 481.012C108.86 484.383 110.648 487.477 113.047 490.065C116.629 493.116 120.471 495.847 124.531 498.225V508.593H84.4497C84.4497 508.593 84.7225 500.408 84.921 494.629C85.1194 488.85 85.6899 481.806 85.6403 481.062C85.5907 480.318 85.6402 478.78 87.0044 478.78H104.565Z" fill="#302D3B"/>
<path d="M89.4346 495.199C89.4297 496.472 89.803 497.717 90.5069 498.777C91.2109 499.838 92.2139 500.665 93.3887 501.154C94.5636 501.643 95.8572 501.773 97.1056 501.526C98.3541 501.279 99.5009 500.666 100.401 499.766C101.301 498.866 101.913 497.72 102.16 496.471C102.407 495.223 102.278 493.929 101.789 492.754C101.299 491.579 100.472 490.576 99.4119 489.872C98.3517 489.168 97.1064 488.795 95.8337 488.8C94.1386 488.807 92.5147 489.483 91.3161 490.682C90.1174 491.88 89.4412 493.504 89.4346 495.199Z" fill="#93929C"/>
<path d="M95.8337 491.429L94.3703 493.587L91.8652 494.306L93.4526 496.365L93.3782 498.969L95.8337 498.076L98.2891 498.969L98.1899 496.365L99.8021 494.306L97.297 493.587L95.8337 491.429Z" fill="white"/>
<path d="M124.258 498.052C124.258 498.052 129.937 501.053 132.07 502.516C133.058 503.185 133.86 504.094 134.402 505.156C134.944 506.219 135.209 507.401 135.171 508.593H119.595C119.595 508.593 119.917 500.979 124.258 498.052Z" fill="white"/>
<path d="M84.4497 508.593V512.884C84.4497 513.603 85.0946 514 86.1859 514H133.46C134.526 514 135.171 513.603 135.171 512.884V508.593H84.4497Z" fill="white"/>
<path d="M119.595 495.15C119.732 494.939 119.946 494.79 120.191 494.734C120.437 494.679 120.694 494.721 120.909 494.852C121.016 494.918 121.109 495.005 121.182 495.107C121.255 495.209 121.307 495.324 121.334 495.447C121.362 495.569 121.365 495.696 121.343 495.82C121.321 495.943 121.275 496.061 121.207 496.167L119.545 498.845C119.465 498.984 119.349 499.099 119.209 499.177C119.07 499.256 118.911 499.296 118.751 499.292C118.568 499.289 118.388 499.238 118.23 499.143C118.123 499.077 118.031 498.991 117.958 498.889C117.885 498.787 117.833 498.671 117.805 498.548C117.777 498.426 117.774 498.299 117.796 498.176C117.818 498.052 117.865 497.934 117.933 497.829L119.595 495.15Z" fill="white"/>
<path d="M116.668 493.091C116.749 492.997 116.848 492.919 116.96 492.863C117.071 492.807 117.193 492.773 117.317 492.764C117.441 492.755 117.566 492.77 117.685 492.809C117.803 492.848 117.913 492.91 118.007 492.992C118.102 493.073 118.179 493.172 118.235 493.284C118.291 493.395 118.325 493.517 118.334 493.641C118.343 493.765 118.328 493.89 118.289 494.009C118.25 494.127 118.188 494.237 118.106 494.331L116.172 496.613C116.082 496.718 115.972 496.802 115.849 496.862C115.725 496.922 115.59 496.955 115.452 496.96C115.273 496.957 115.098 496.904 114.947 496.806C114.796 496.709 114.675 496.571 114.597 496.409C114.52 496.247 114.49 496.066 114.509 495.888C114.529 495.709 114.598 495.539 114.708 495.398L116.668 493.091Z" fill="white"/>
<path d="M113.915 490.785C114.112 490.658 114.349 490.607 114.581 490.641C114.814 490.676 115.025 490.793 115.177 490.973C115.329 491.152 115.41 491.38 115.406 491.614C115.402 491.849 115.313 492.074 115.155 492.248L112.948 494.158C112.775 494.305 112.555 494.384 112.328 494.381C112.191 494.386 112.055 494.36 111.931 494.304C111.806 494.248 111.696 494.164 111.609 494.059C111.517 493.973 111.444 493.869 111.394 493.754C111.344 493.639 111.318 493.515 111.318 493.389C111.318 493.264 111.344 493.139 111.394 493.024C111.444 492.909 111.517 492.805 111.609 492.719L113.915 490.785Z" fill="white"/>
<path d="M109.079 489.644L111.559 488.106C111.777 487.977 112.036 487.939 112.282 487.999C112.528 488.059 112.74 488.213 112.873 488.428C112.94 488.535 112.985 488.655 113.005 488.779C113.026 488.904 113.02 489.031 112.99 489.154C112.96 489.276 112.906 489.392 112.83 489.493C112.755 489.594 112.66 489.679 112.551 489.743L110.071 491.281C109.924 491.378 109.751 491.43 109.575 491.429C109.413 491.426 109.255 491.38 109.116 491.298C108.977 491.215 108.862 491.098 108.781 490.958C108.65 490.743 108.607 490.486 108.663 490.241C108.719 489.995 108.868 489.781 109.079 489.644Z" fill="white"/>
<path d="M106.995 486.444L109.772 485.279C110.009 485.18 110.276 485.18 110.513 485.277C110.75 485.375 110.939 485.563 111.037 485.8C111.086 485.915 111.111 486.039 111.111 486.164C111.111 486.29 111.086 486.414 111.037 486.529C110.989 486.644 110.918 486.749 110.828 486.837C110.739 486.924 110.633 486.993 110.517 487.04L107.739 488.205H107.367C107.153 488.194 106.949 488.112 106.786 487.972C106.624 487.832 106.513 487.642 106.47 487.432C106.428 487.222 106.456 487.003 106.551 486.811C106.646 486.619 106.802 486.464 106.995 486.37V486.444Z" fill="white"/>
<path d="M105.259 482.873L108.334 482.104C108.578 482.044 108.835 482.084 109.049 482.215C109.263 482.345 109.416 482.555 109.475 482.798C109.534 483.042 109.495 483.298 109.364 483.512C109.234 483.726 109.024 483.88 108.781 483.939L105.73 484.733H105.507C105.293 484.73 105.086 484.659 104.916 484.529C104.746 484.4 104.623 484.219 104.564 484.013C104.511 483.77 104.554 483.516 104.683 483.304C104.812 483.091 105.019 482.937 105.259 482.873Z" fill="white"/>
<path d="M74.0322 349.98C74.3051 337.976 82.3907 332.172 94.3703 332.47C106.35 332.767 114.981 339.043 114.708 351.022L105.209 476.102H87.2024L74.0322 349.98Z" fill="#FBBEAA"/>
<path d="M11.3062 475.134C11.3062 472.746 12.2547 470.456 13.9432 468.768C15.6316 467.079 17.9217 466.131 20.3095 466.131C22.6973 466.131 24.9874 467.079 26.6758 468.768C28.3643 470.456 29.3129 472.746 29.3129 475.134V494.703H11.3062V475.134Z" fill="#FBBEAA"/>
<path d="M28.6438 478.78C30.8761 478.78 31.2729 479.748 31.893 481.012C32.9508 484.384 34.7471 487.476 37.1511 490.065C40.7282 493.122 44.5714 495.853 48.6347 498.225V508.593H8.55371C8.55371 508.593 8.82655 500.408 9.02497 494.629C9.22339 488.85 9.76907 481.806 9.74426 481.062C9.71946 480.318 9.74425 478.78 11.0836 478.78H28.6438Z" fill="#302D3B"/>
<path d="M13.5142 495.199C13.5093 496.471 13.8819 497.715 14.5848 498.775C15.2876 499.834 16.2892 500.662 17.4625 501.152C18.6359 501.642 19.9283 501.772 21.176 501.527C22.4238 501.282 23.5707 500.672 24.4716 499.775C25.3725 498.878 25.9868 497.733 26.2367 496.486C26.4865 495.24 26.3608 493.947 25.8753 492.771C25.3898 491.596 24.5665 490.591 23.5096 489.884C22.4526 489.177 21.2097 488.8 19.9381 488.8C18.2387 488.8 16.6085 489.473 15.4045 490.673C14.2005 491.872 13.5208 493.5 13.5142 495.199Z" fill="#93929C"/>
<path d="M19.9133 491.429L18.4499 493.587L15.9448 494.306L17.557 496.365L17.4826 498.969L19.9133 498.076L22.3687 498.969L22.2943 496.365L23.9065 494.306L21.3766 493.587L19.9133 491.429Z" fill="white"/>
<path d="M48.3364 498.052C48.3364 498.052 54.041 501.053 56.1492 502.516C57.1418 503.18 57.9478 504.087 58.4905 505.151C59.0332 506.215 59.2945 507.4 59.2496 508.593H43.5991C43.5991 508.593 44.0208 500.979 48.3364 498.052Z" fill="white"/>
<path d="M8.55371 508.593V512.884C8.55371 513.603 9.17378 514 10.2651 514H57.5885C58.6798 514 59.2998 513.603 59.2998 512.884V508.593H8.55371Z" fill="white"/>
<path d="M43.6986 495.15C43.8334 494.936 44.0477 494.785 44.2942 494.729C44.5407 494.673 44.7993 494.717 45.0131 494.852C45.2269 494.987 45.3783 495.201 45.4342 495.448C45.49 495.694 45.4456 495.953 45.3107 496.167L43.649 498.846C43.563 498.985 43.4423 499.099 43.2988 499.177C43.1553 499.255 42.9939 499.295 42.8305 499.292C42.6541 499.292 42.4815 499.241 42.3344 499.143C42.2275 499.077 42.1348 498.991 42.0617 498.889C41.9887 498.787 41.9367 498.671 41.909 498.549C41.8813 498.426 41.8783 498.299 41.9002 498.176C41.9222 498.052 41.9686 497.934 42.0368 497.829L43.6986 495.15Z" fill="white"/>
<path d="M40.747 493.091C40.9105 492.901 41.1416 492.781 41.3915 492.758C41.6415 492.735 41.8906 492.81 42.0863 492.967C42.2783 493.135 42.3984 493.37 42.4215 493.624C42.4446 493.878 42.369 494.132 42.2103 494.331L40.2509 496.613C40.1649 496.721 40.0556 496.809 39.931 496.869C39.8064 496.929 39.6699 496.96 39.5316 496.96C39.3498 496.962 39.1713 496.911 39.0177 496.814C38.8641 496.717 38.742 496.577 38.666 496.412C38.5899 496.247 38.5633 496.063 38.5893 495.883C38.6152 495.703 38.6927 495.535 38.8123 495.398L40.747 493.091Z" fill="white"/>
<path d="M38.019 490.785C38.2163 490.658 38.4531 490.607 38.6853 490.641C38.9175 490.676 39.1292 490.793 39.281 490.973C39.4327 491.152 39.5142 491.38 39.5102 491.614C39.5061 491.849 39.4169 492.074 39.2591 492.248L37.0269 494.158C36.8538 494.305 36.6336 494.384 36.4068 494.381C36.2705 494.384 36.1352 494.357 36.0108 494.301C35.8864 494.245 35.7759 494.163 35.6875 494.059C35.599 493.971 35.5288 493.867 35.4808 493.752C35.4329 493.637 35.4082 493.514 35.4082 493.389C35.4082 493.265 35.4329 493.141 35.4808 493.026C35.5288 492.911 35.599 492.807 35.6875 492.719L38.019 490.785Z" fill="white"/>
<path d="M33.1824 489.644L35.6626 488.106C35.8766 488.016 36.1159 488.005 36.3368 488.077C36.5578 488.148 36.7456 488.297 36.8659 488.496C36.9863 488.694 37.0312 488.93 36.9924 489.159C36.9537 489.388 36.8338 489.595 36.6547 489.743L34.1745 491.281C34.0275 491.378 33.8548 491.43 33.6784 491.429C33.5131 491.427 33.3511 491.383 33.2078 491.301C33.0645 491.218 32.9447 491.1 32.8599 490.958C32.7311 490.74 32.6927 490.481 32.7529 490.235C32.8132 489.989 32.9674 489.777 33.1824 489.644Z" fill="white"/>
<path d="M31.0992 486.445L33.8771 485.279C33.9926 485.23 34.1165 485.206 34.2418 485.206C34.367 485.206 34.4909 485.231 34.6064 485.279C34.7219 485.328 34.8265 485.399 34.9142 485.488C35.0019 485.577 35.0709 485.683 35.1172 485.8C35.2098 486.031 35.21 486.288 35.1176 486.519C35.0252 486.75 34.8474 486.937 34.6212 487.04L31.8185 488.206C31.7041 488.231 31.5855 488.231 31.4712 488.206C31.2802 488.206 31.0935 488.149 30.9346 488.043C30.7757 487.937 30.6518 487.787 30.5783 487.61C30.503 487.386 30.5148 487.142 30.6113 486.926C30.7078 486.71 30.8819 486.538 31.0992 486.445Z" fill="white"/>
<path d="M29.3625 482.873L32.4133 482.104C32.6598 482.044 32.9202 482.083 33.1383 482.212C33.3564 482.342 33.5147 482.553 33.579 482.798C33.6086 482.919 33.614 483.044 33.5951 483.167C33.5762 483.289 33.5332 483.407 33.4687 483.513C33.4042 483.619 33.3194 483.711 33.2191 483.784C33.1189 483.858 33.0051 483.91 32.8845 483.939L29.8338 484.733H29.5858C29.3623 484.716 29.1517 484.622 28.99 484.466C28.8283 484.311 28.7255 484.105 28.6991 483.882C28.6727 483.66 28.7245 483.435 28.8455 483.246C28.9665 483.058 29.1493 482.917 29.3625 482.848V482.873Z" fill="white"/>
<path d="M21.1533 349.608C22.3717 343.978 25.7759 339.062 30.6176 335.942C35.4593 332.821 41.3422 331.75 46.9729 332.966C58.7045 335.446 65.0291 347.004 62.4993 358.736L29.3134 478.16H11.0835L21.1533 349.608Z" fill="#FBBEAA"/>
<path d="M72.4692 349.2C72.536 346.35 73.1635 343.541 74.3158 340.933C75.4681 338.326 77.1228 335.971 79.1852 334.003C81.2477 332.035 83.6776 330.492 86.3361 329.463C88.9947 328.434 91.8299 327.939 94.6799 328.006C97.5299 328.073 100.339 328.7 102.946 329.853C105.554 331.005 107.909 332.659 109.877 334.722C111.845 336.784 113.387 339.214 114.416 341.873C115.445 344.531 115.941 347.367 115.874 350.217L121.505 478.794H72.4702L72.4692 349.2Z" fill="#93929C"/>
<path d="M21.1562 346.546C22.5023 341.051 25.9384 336.298 30.7341 333.297C35.5298 330.296 41.3069 329.284 46.8371 330.476C52.3673 331.668 57.2145 334.97 60.3482 339.68C63.482 344.39 64.655 350.137 63.6181 355.698L50.4237 478.294C50.4237 478.294 18.8252 480.179 0 478.294L21.1562 346.546Z" fill="#93929C"/>
<path d="M178.551 127.402L107.318 73.2827C99.0087 67.9749 93.3538 70.8024 88.939 76.4822C86.9228 79.2313 85.988 82.6258 86.3127 86.0195C86.6374 89.4132 88.199 92.5689 90.6999 94.8858L161.759 147.244C164.263 149.359 167.487 150.426 170.758 150.223C174.03 150.019 177.097 148.561 179.32 146.153L179.642 145.806C180.822 144.547 181.733 143.061 182.319 141.439C182.906 139.816 183.156 138.091 183.054 136.369C182.952 134.647 182.5 132.964 181.725 131.422C180.951 129.88 179.871 128.512 178.551 127.402Z" fill="#FBBEAA"/>
<path d="M90.6993 94.8611C90.0416 94.295 89.4432 93.6634 88.9135 92.9761C88.4452 91.2108 88.3849 89.3621 88.7373 87.5701C89.0896 85.7781 89.8455 84.0899 90.9474 82.6334C94.6926 76.8544 102.555 72.3155 106.052 73.1836L109.524 74.9446L148.837 104.708C145.357 112.885 140.657 120.486 134.898 127.253L90.6993 94.8611Z" fill="#F18380"/>
<path d="M101.439 69.4133L163.082 110.988C162.823 113.115 169.657 69.4133 169.657 69.4133L188.993 71.9297C188.993 71.9297 188.599 116.058 185.713 139.478C184.56 148.828 176.85 152.397 167.646 150.389C163.102 149.397 158.824 147.533 155.017 144.861C138.659 133.379 92.7652 101.038 89.013 96.9691C82.5395 89.9499 82.5395 84.6918 86.2599 78.9128C89.9803 73.1338 97.9419 68.5452 101.439 69.4133Z" fill="#002A80"/>
<path d="M72.4693 349.906L59.7456 216.691C59.7456 201.983 74.9 185.961 97.2471 189.408C117.436 192.558 123.588 212.847 121.926 232.069C120.264 251.291 115.775 350.849 115.775 350.849C115.708 353.699 115.08 356.507 113.928 359.115C112.776 361.722 111.121 364.077 109.059 366.045C106.996 368.013 104.566 369.556 101.908 370.585C99.2492 371.614 96.4139 372.109 93.564 372.042C90.714 371.976 87.905 371.348 85.2975 370.196C82.6901 369.043 80.3351 367.389 78.367 365.326C76.399 363.264 74.8565 360.834 73.8276 358.175C72.7986 355.517 72.3034 352.682 72.3702 349.832L72.4693 349.906Z" fill="#93929C"/>
<path d="M21.1538 347.252L33.8031 214.062C36.4818 199.602 54.4637 186.779 75.7691 194.369C94.9911 201.239 97.2233 222.321 91.9652 240.899C86.707 259.476 63.6158 356.404 63.6158 356.404C62.2697 361.899 58.8336 366.652 54.0379 369.653C49.2422 372.654 43.4651 373.666 37.9349 372.474C32.4047 371.282 27.5575 367.98 24.4238 363.27C21.29 358.56 20.1169 352.813 21.1538 347.252Z" fill="#93929C"/>
<path d="M91.9646 240.899C86.7312 259.476 63.6152 356.404 63.6152 356.404" stroke="#5E5D63" stroke-width="0.75" stroke-miterlimit="10"/>
<path d="M88.2442 67.3049C88.2442 67.3049 99.207 69.2147 101.34 69.7852C102.599 70.0806 103.762 70.6907 104.721 71.5583C105.679 72.4259 106.402 73.5226 106.821 74.7457C108.186 77.9949 115.205 99.2755 115.85 101.582C116.286 104.123 115.876 106.737 114.684 109.023C113.667 111.801 108.409 124.45 108.409 124.45L107.615 165.201L78.0021 169.898L49.6266 165.201C49.6266 165.201 39.7056 89.4041 39.2095 84.7164C38.7135 80.0287 41.0449 70.9758 46.6503 69.8348C52.2557 68.6939 67.6333 67.3546 67.6333 67.3546L88.2442 67.3049Z" fill="#FBBEAA"/>
<path d="M109.006 148.816V163.142C89.61 164.928 58.7047 163.663 47.0971 163.142C46.5515 159.05 45.981 152.105 45.3857 147.492C61.185 147.889 87.2786 149.361 109.006 148.816Z" fill="white"/>
<path d="M6.71834 161.555L38.4905 77.9453C42.7317 69.0164 49.0068 68.4211 55.8523 70.9014C59.0185 72.1644 61.6085 74.5495 63.1274 77.6012C64.6464 80.6529 64.9879 84.1572 64.0867 87.4448L31.3721 169.566C30.3805 172.69 28.217 175.309 25.3358 176.872C22.4546 178.435 19.0799 178.821 15.9201 177.949L15.4488 177.825C13.7821 177.371 12.2254 176.581 10.8737 175.505C9.52205 174.429 8.40368 173.089 7.58679 171.566C6.7699 170.044 6.27162 168.371 6.12231 166.65C5.973 164.929 6.1758 163.195 6.71834 161.555Z" fill="#FBBEAA"/>
<path d="M19.8877 126.881L38.4896 77.9452C38.9885 76.8721 39.5776 75.8432 40.2506 74.8698C42.5292 73.4431 45.1378 72.6295 47.8234 72.5079C50.5089 72.3862 53.1804 72.9606 55.5786 74.1753C58.3635 75.5305 60.6021 77.7961 61.9237 80.5971C63.2453 83.3981 63.5706 86.5665 62.8458 89.5777C62.8458 89.8753 62.6722 90.4458 62.5234 91.2147L43.3261 139.456C34.9409 136.432 27.0442 132.195 19.8877 126.881Z" fill="#F18380"/>
<path d="M40.2262 73.4811L6 161.5C35.0039 152.219 38.5 158.5 46.293 132.645C46.293 132.645 64.4831 89.95 65.1776 86.1304C65.9024 83.1192 65.5771 79.9509 64.2555 77.1499C62.9339 74.3489 60.6953 72.0832 57.9104 70.728C50.1472 66.7596 42.4088 70.356 40.2262 73.4811Z" fill="#003399"/>
<path d="M66.6654 7.90263C65.3509 4.7279 58.7286 3.31417 55.0082 5.05035C51.2878 6.78653 47.5674 11.3502 47.0217 23.7515C46.4761 36.1528 47.493 45.6273 45.2607 51.8776C47.3241 51.6167 49.265 50.7541 50.8413 49.3973C50.8413 51.0343 51.0894 55.0027 51.0894 55.0027C52.2899 54.9052 53.4373 54.4655 54.3956 53.7357C55.354 53.006 56.083 52.0169 56.4963 50.8855C57.1693 52.3169 57.597 53.8513 57.7613 55.4244C59.9439 54.2835 66.6654 52.2993 66.6654 40.5429V7.90263Z" fill="#1D1B24"/>
<path d="M109.897 49.1002C109.227 40.0968 106.573 25.2152 106.573 25.2152L100.224 24.868C100.224 24.868 98.5373 51.6796 98.066 57.533C97.5948 63.3864 95.9082 64.9738 95.9082 64.9738C95.9082 64.9738 103.969 63.8577 105.234 56.2929C105.419 57.774 105.519 59.2647 105.532 60.7574C105.532 60.7574 110.591 58.1035 109.897 49.1002Z" fill="#302D3B"/>
<path d="M66.939 46.8185V67.8759C66.939 67.8759 68.6007 75.1182 79.7371 75.1182C81.948 75.3047 84.1464 74.6375 85.8807 73.2537C87.6151 71.8699 88.7538 69.8746 89.0629 67.6775V46.8432L66.939 46.8185Z" fill="#FBBEAA"/>
<path d="M89.0629 64.3539C82.0685 67.6774 71.8747 64.7011 66.939 55.5738V46.8185H89.0629V64.3539Z" fill="#F18380"/>
<path d="M102.877 30.6718C102.983 35.7083 102.751 40.7462 102.183 45.7517C101.29 52.9197 98.7601 60.8566 86.0859 60.8566C73.4118 60.8566 66.988 55.1271 64.2597 45.7517C62.6227 40.0967 59.2992 31.7135 60.6633 22.0404C62.0275 12.3674 67.8561 6.04283 81.6215 5.67079C95.3869 5.29876 104.316 11.4498 102.877 30.6718Z" fill="#FBBEAA"/>
<path d="M76.0662 34.9622C76.1501 35.3349 76.3373 35.6764 76.6063 35.9477C76.8753 36.219 77.2153 36.4089 77.5873 36.4959C77.9593 36.5829 78.3483 36.5634 78.7097 36.4395C79.0711 36.3157 79.3903 36.0926 79.6308 35.7957C79.8712 35.4988 80.0232 35.1403 80.0693 34.761C80.1154 34.3818 80.0538 33.9972 79.8914 33.6514C79.7291 33.3055 79.4726 33.0124 79.1514 32.8056C78.8302 32.5988 78.4572 32.4866 78.0752 32.4819C77.7792 32.5097 77.4917 32.5963 77.2296 32.7366C76.9675 32.877 76.7361 33.0684 76.5489 33.2994C76.3618 33.5304 76.2227 33.7965 76.1398 34.0821C76.0569 34.3676 76.0319 34.6669 76.0662 34.9622Z" fill="#403D4F"/>
<path d="M94.5191 34.9622C94.6032 35.336 94.7911 35.6783 95.0613 35.95C95.3315 36.2216 95.6728 36.4114 96.0461 36.4975C96.4194 36.5836 96.8095 36.5625 97.1714 36.4367C97.5332 36.3108 97.8521 36.0854 98.0915 35.7862C98.3308 35.4871 98.4807 35.1264 98.524 34.7458C98.5674 34.3651 98.5024 33.98 98.3364 33.6347C98.1704 33.2894 97.9103 32.998 97.586 32.7941C97.2617 32.5901 96.8864 32.4819 96.5033 32.4819C96.2095 32.5127 95.9246 32.6016 95.6654 32.7433C95.4061 32.885 95.1776 33.0768 94.993 33.3075C94.8085 33.5382 94.6716 33.8033 94.5902 34.0874C94.5088 34.3714 94.4847 34.6687 94.5191 34.9622Z" fill="#403D4F"/>
<path d="M82.0679 27.9436L81.8695 27.7204C81.6616 27.5426 81.4374 27.3848 81.1998 27.2492C80.892 27.0599 80.5576 26.9178 80.2077 26.8276C79.8183 26.6809 79.4081 26.5971 78.9924 26.5795C78.5971 26.53 78.1972 26.53 77.8019 26.5795C77.4553 26.5493 77.1067 26.5493 76.7602 26.5795L75.7929 26.8523C75.659 26.9059 75.547 27.0028 75.4747 27.1275C75.4024 27.2522 75.3739 27.3976 75.3939 27.5404C75.4139 27.6832 75.4812 27.8151 75.585 27.9152C75.6888 28.0152 75.8231 28.0777 75.9665 28.0924H76.9586C77.2467 28.055 77.5385 28.055 77.8267 28.0924C78.1487 28.0678 78.472 28.0678 78.794 28.0924C79.111 28.1339 79.4255 28.1918 79.7365 28.2661C80.0341 28.2661 80.2821 28.4645 80.5302 28.4893C80.7052 28.5669 80.8882 28.6251 81.0758 28.6629H81.2742C81.4326 28.7313 81.6113 28.736 81.773 28.6759C81.9347 28.6159 82.067 28.4957 82.1423 28.3405C82.1792 28.2542 82.1982 28.1615 82.1982 28.0677C82.1982 27.9739 82.1792 27.8811 82.1423 27.7948L82.0679 27.9436Z" fill="#403D4F"/>
<path d="M94.1217 28.8856H94.2953L94.6674 28.7368H94.9402C95.0325 28.6806 95.1329 28.6388 95.2378 28.6128C95.4486 28.5405 95.6641 28.4825 95.8827 28.4392C96.1212 28.4042 96.3635 28.4042 96.602 28.4392C96.808 28.4154 97.016 28.4154 97.222 28.4392H98.0157C98.1824 28.4328 98.3401 28.3619 98.4557 28.2417C98.5714 28.1214 98.6359 27.9611 98.6357 27.7943C98.6377 27.6696 98.6004 27.5475 98.5292 27.4451C98.458 27.3428 98.3565 27.2653 98.239 27.2238L97.47 26.951C97.1986 26.8569 96.9139 26.8067 96.6267 26.8022C96.2905 26.7407 95.946 26.7407 95.6098 26.8022C94.9596 26.8727 94.3416 27.1217 93.824 27.5215C93.6488 27.6593 93.4906 27.8175 93.3528 27.9927C93.2288 28.1416 93.2288 28.1911 93.2288 28.1911V28.4392C93.2075 28.6066 93.2527 28.7757 93.3547 28.9102C93.4568 29.0447 93.6074 29.1339 93.7744 29.1585C93.8488 29.1412 93.9184 29.1078 93.9784 29.0607C94.0384 29.0135 94.0874 28.9537 94.1217 28.8856Z" fill="#403D4F"/>
<path d="M33.8025 213.418C34.3482 206.547 44.088 175.006 52 160C52 160 68.885 153.464 80 153.5C91.5969 153.538 107 162.5 107 162.5C112.159 174.182 118.652 202.405 120.364 207.911C121.397 211.151 121.522 214.612 120.726 217.917C119.93 221.223 118.244 224.248 115.849 226.662C109.971 233.334 94.8169 240.973 91.3197 240.973C76.2738 238.824 61.5262 234.946 47.3695 229.415C39.3831 226.067 33.2816 220.313 33.8025 213.418Z" fill="#93929C"/>
<path d="M89.0627 43.3951C89.4816 43.3987 89.8968 43.3144 90.2812 43.1478C90.6657 42.9812 91.0109 42.7359 91.2949 42.4278C91.3993 42.32 91.4797 42.1914 91.531 42.0503C91.5823 41.9093 91.6033 41.759 91.5925 41.6094C91.5925 41.3365 91.1709 37.9138 91.0221 36.6488C91.0036 36.5215 90.9362 36.4063 90.8344 36.3277C90.7326 36.249 90.6043 36.2129 90.4764 36.2272C90.3537 36.2455 90.2424 36.3092 90.1643 36.4056C90.0863 36.502 90.0472 36.6242 90.0547 36.7481C90.0547 36.9465 90.6004 41.4358 90.65 41.7086C90.4469 41.9334 90.1978 42.1117 89.9196 42.2315C89.6414 42.3514 89.3407 42.4099 89.0378 42.4031C88.9771 42.403 88.9169 42.4153 88.8611 42.4392C88.8052 42.4632 88.7548 42.4983 88.713 42.5424C88.6712 42.5865 88.6389 42.6388 88.618 42.6958C88.597 42.7529 88.588 42.8136 88.5914 42.8743C88.58 42.941 88.5838 43.0094 88.6027 43.0744C88.6216 43.1393 88.655 43.1991 88.7004 43.2493C88.7458 43.2995 88.802 43.3387 88.8647 43.364C88.9275 43.3892 88.9952 43.3999 89.0627 43.3951Z" fill="#F18380"/>
<path d="M72.7668 1.57829C86.5074 -2.71256 96.2797 2.66964 99.38 6.73727C100.637 6.32416 101.749 5.55667 102.58 4.52708C103.412 3.49748 103.928 2.24961 104.068 0.933471C104.785 1.32708 105.358 1.93927 105.703 2.68104C106.049 3.4228 106.149 4.25541 105.988 5.05775C105.828 5.86009 105.415 6.59028 104.811 7.14214C104.207 7.69401 103.443 8.03877 102.629 8.12621C107.59 9.76318 110.492 14.7485 110.343 20.9244C110.134 23.1822 109.337 25.346 108.032 27.1999C106.726 29.0538 104.957 30.533 102.902 31.4902C101.458 27.1604 99.2858 23.1089 96.4781 19.5106C95.7056 22.6845 94.068 25.5819 91.7473 27.8807C89.4266 30.1795 86.5138 31.7896 83.3327 32.532C83.6412 30.6212 84.1311 28.7442 84.7961 26.9265C82.0147 29.2496 78.7132 30.8663 75.1727 31.6391C74.9255 29.5335 74.984 27.4032 75.3463 25.3144C72.866 29.7789 68.6992 36.55 62.5481 38.435H58.6789C56.6445 34.2645 55.6812 29.6529 55.8762 25.0168C55.9258 16.4351 59.0262 5.86914 72.7668 1.57829Z" fill="#302D3B"/>
<path d="M64.7557 39.9482C64.5573 36.5751 63.6644 32.5075 59.5471 33.2267C54.7354 33.946 54.2642 46.9674 64.5076 45.4048L64.7557 39.9482Z" fill="#FBBEAA"/>
<path d="M59.1506 40.8163C59.2368 40.8175 59.3217 40.795 59.3961 40.7513C59.4704 40.7076 59.5314 40.6442 59.5722 40.5683C59.6772 40.3505 59.8382 40.1646 60.0386 40.0295C60.2391 39.8944 60.4719 39.815 60.7131 39.7994C60.9965 39.8023 61.2745 39.8766 61.5216 40.0153C61.7687 40.154 61.9769 40.3527 62.1269 40.5931C62.1826 40.6823 62.2666 40.7504 62.3655 40.7863C62.4644 40.8223 62.5725 40.8241 62.6725 40.7915C62.7724 40.7544 62.8577 40.6862 62.9158 40.5968C62.9739 40.5075 63.0016 40.4018 62.995 40.2955C62.9578 39.2476 62.6326 38.2303 62.0551 37.3552C61.4775 36.4801 60.6699 35.7811 59.721 35.335C59.6026 35.2957 59.4735 35.3049 59.3619 35.3607C59.2503 35.4165 59.1654 35.5143 59.1258 35.6326C59.0865 35.751 59.0957 35.8802 59.1515 35.9917C59.2073 36.1033 59.3051 36.1882 59.4234 36.2278C59.9808 36.4988 60.4772 36.8804 60.8823 37.3495C61.2874 37.8186 61.5927 38.3652 61.7796 38.9561C61.426 38.8088 61.0467 38.7329 60.6635 38.7329C60.2626 38.7708 59.8769 38.9058 59.5399 39.1262C59.2028 39.3466 58.9245 39.6458 58.7289 39.9979C58.6988 40.0531 58.6801 40.1137 58.6738 40.1763C58.6675 40.2388 58.6737 40.302 58.6922 40.3621C58.7107 40.4222 58.7411 40.478 58.7814 40.5262C58.8218 40.5744 58.8714 40.614 58.9273 40.6427L59.1506 40.8163Z" fill="#F18380"/>
<path d="M59.7705 48.3806C60.961 39.4269 64.3837 24.6941 64.3837 24.6941H70.758C70.758 24.6941 71.006 51.5553 71.1796 57.4335C71.3533 63.3118 72.9158 65.0727 72.9158 65.0727C72.9158 65.0727 64.9294 63.535 64.0613 55.8958C63.7951 57.3717 63.6211 58.8627 63.5404 60.3602C63.5404 60.3602 58.6047 57.3344 59.7705 48.3806Z" fill="#302D3B"/>
<path d="M84.6401 148.821L26.2827 172.749C19.0595 176.124 11.5899 175.28 8.34349 166.852C7.74987 165.281 7.48159 163.606 7.55489 161.928C7.6282 160.25 8.04154 158.604 8.76991 157.091C9.49829 155.577 10.5265 154.228 11.7921 153.124C13.0578 152.02 14.5345 151.184 16.1328 150.668L80.5693 132.455C86.5347 130.227 91.2694 131.967 92.9256 136.454C94.8826 141.987 92.218 145.728 84.6401 148.821Z" fill="#FBBEAA"/>
<path d="M91.041 63.5021C91.041 63.5021 104.725 71.4005 106.838 72.7828C108.951 74.165 108.5 76.5 110.945 82.0635C111.645 83.6562 116.757 89.1937 116.5 98C115.8 122.019 108.674 163.576 108.674 163.576C104.401 165.881 99.8575 167.646 95.1481 168.828C92.8773 169.085 91.0804 169.144 89.5402 167.643C88 166.143 83.4584 160.693 83.4584 160.693C83.4584 160.693 75.9747 165.767 72.5981 167.643C71.7934 168.205 70.8841 168.599 69.9242 168.803C68.9642 169.006 67.9732 169.015 67.0099 168.828C62.0931 167.821 42.7419 162.174 42.1297 161.818C41.5176 161.463 40.945 161.088 41.0042 160.416C41.0635 159.745 41.4189 82.7151 41.6756 79.2398C41.7264 77.3786 42.3121 75.5714 43.3626 74.0342C44.413 72.497 45.8839 71.2948 47.5994 70.5712C51.7264 68.7348 67.2271 62.4358 67.2271 62.4358L83.3992 73.6714L91.041 63.5021Z" fill="#003399"/>
<path d="M91.0408 61.291L83.4385 73.6719C83.4385 73.6719 90.9025 79.5957 91.3369 80.0301C91.7713 80.4645 92.6402 80.425 92.8179 79.7339C92.9956 79.0428 95.148 65.9116 95.1875 65.9116C95.2255 65.842 95.2454 65.7639 95.2454 65.6845C95.2454 65.6052 95.2255 65.5271 95.1875 65.4575C94.99 65.3192 91.0408 61.291 91.0408 61.291Z" fill="#F5F5F5"/>
<path d="M67.1481 59L83.4585 73.6714C83.4585 73.6714 74.8689 79.5952 74.4937 80.0296C74.3843 80.1227 74.2553 80.1897 74.1162 80.2256C73.9772 80.2615 73.8318 80.2653 73.6911 80.2368C73.5504 80.2083 73.418 80.1481 73.3039 80.0609C73.1898 79.9737 73.097 79.8618 73.0325 79.7335C72.4006 78.7264 62.2906 64.5289 62.2511 64.4104C62.2092 64.3421 62.187 64.2635 62.187 64.1834C62.187 64.1032 62.2092 64.0246 62.2511 63.9563C62.4683 63.8378 67.1481 59 67.1481 59Z" fill="#F5F5F5"/>
<g filter="url(#filter0_d_1_420)">
<rect x="59.9263" y="108.357" width="40.9288" height="58.3236" rx="1" transform="rotate(-6.55484 59.9263 108.357)" fill="#EFEFEF"/>
</g>
<path d="M79.1433 134.497C81.9897 133.294 84.5635 131.512 86.7012 129.263C88.0243 127.874 89.5248 126.669 91.1625 125.679C92.1232 125.079 92.9522 124.286 93.5976 123.352C94.4502 121.902 95.1559 120.371 95.7037 118.783C95.9067 117.415 96.372 116.096 97.0737 114.902C97.7409 114.29 100.096 114.617 101.318 116.993C101.739 118.051 101.93 119.19 101.878 120.334C101.826 121.478 101.531 122.601 101.015 123.627C100.406 124.857 99.9299 126.148 99.5933 127.477L99.8154 127.61C101.678 126.621 103.668 125.904 105.726 125.48C106.472 125.313 107.25 125.404 107.933 125.736C108.616 126.069 109.165 126.625 109.492 127.314C109.819 128.004 109.904 128.787 109.734 129.537C109.565 130.287 109.149 130.961 108.556 131.45C111.767 131.819 111.402 136.771 108.646 137.426C109.236 137.673 109.734 138.099 110.073 138.644C110.412 139.189 110.575 139.827 110.54 140.473C110.506 141.119 110.275 141.741 109.879 142.255C109.484 142.768 108.942 143.15 108.328 143.346C110.286 145.151 108.855 148.126 105.3 148.139C102.411 148.433 94.6864 149.642 91.9987 150.221C89.3111 150.799 83.9089 149.52 82.1736 150.057C79.5905 151.003 76.5903 151.019 74.3018 144.222C72.0134 137.425 76.4851 135.375 79.1433 134.497Z" fill="#FBBEAA"/>
<path d="M87.0299 49.6052C84.6355 49.5128 82.3366 48.642 80.4819 47.1249" stroke="#73102A" stroke-width="0.5" stroke-miterlimit="10" stroke-linecap="round"/>
<path d="M78 155L25.0001 177.5C17.7763 180.873 9.24501 177.929 6.00005 169.5C5.4067 167.929 5.36657 165.36 5.44015 163.682C5.51374 162.004 5.92737 160.358 6.656 158.845C7.38464 157.332 8.73402 154.604 9.99986 153.5C11.2657 152.396 15.7765 150.359 17.3748 149.843L77 133.5L78 155Z" fill="#003399"/>
<path d="M182.301 54.0761L182.625 53.7405L183.098 54.1971L183.444 53.8389L182.971 53.3822L183.296 53.0466L184.587 54.2942L184.263 54.6299L183.752 54.1358L183.406 54.494L183.917 54.9881L183.593 55.3238L182.301 54.0762L182.301 54.0761ZM184.452 51.8486L185.744 53.0962L185.431 53.4206L184.445 52.4687L184.24 52.6812L184.611 53.0393C184.778 53.2002 184.971 53.4087 185 53.609C185.041 53.8219 184.917 54.0276 184.695 54.1801L184.375 53.8708C184.586 53.7295 184.552 53.6096 184.297 53.3626L183.618 52.7076L184.45 51.8463L184.452 51.8486ZM184.723 51.5684L185.047 51.2327L185.998 51.7839L185.414 50.8529L185.738 50.5172L187.182 51.6078L186.879 51.9209L186.113 51.3314L186.63 52.1785L186.414 52.4023L185.551 51.9135L186.167 52.6589L185.864 52.972L184.723 51.5684L184.723 51.5684ZM186.009 50.237L186.333 49.9013L186.857 50.4078L186.646 49.5769L187.003 49.2074L187.232 50.2499L188.306 50.4436L187.917 50.8461L187.101 50.6413L187.626 51.1479L187.302 51.4836L186.01 50.236L186.009 50.237L186.009 50.237ZM183.232 50.3464C181.287 52.3605 180.832 54.4963 182.059 55.6816C183.275 56.8555 185.404 56.3388 187.35 54.3238C189.306 52.2985 189.737 50.1615 188.523 48.9887C187.295 47.8034 185.188 48.3201 183.232 50.3464ZM187.159 54.1391C185.332 56.031 183.357 56.566 182.244 55.4906C181.118 54.4039 181.597 52.422 183.423 50.5311C185.26 48.629 187.213 48.0908 188.339 49.1786C189.453 50.254 188.997 52.2359 187.159 54.1391ZM183.602 50.7045C181.885 52.4834 181.417 54.3251 182.427 55.3007C183.437 56.2763 185.262 55.7447 186.98 53.9657C188.697 52.1868 189.165 50.3452 188.155 49.3695C187.146 48.3929 185.321 48.9245 183.602 50.7045ZM186.942 53.9295C185.245 55.6868 183.446 56.2187 182.461 55.2679C181.477 54.3172 181.946 52.4994 183.642 50.7431C185.338 48.9867 187.139 48.4538 188.123 49.4045C189.109 50.3542 188.639 52.1721 186.942 53.9295L186.942 53.9295Z" fill="white"/>
<defs>
<filter id="filter0_d_1_420" x="60.0337" y="103.792" width="49.104" height="62.3995" filterUnits="userSpaceOnUse" color-interpolation-filters="sRGB">
<feFlood flood-opacity="0" result="BackgroundImageFix"/>
<feColorMatrix in="SourceAlpha" type="matrix" values="0 0 0 0 0 0 0 0 0 0 0 0 0 0 0 0 0 0 127 0" result="hardAlpha"/>
<feOffset dx="2"/>
<feComposite in2="hardAlpha" operator="out"/>
<feColorMatrix type="matrix" values="0 0 0 0 0.603922 0 0 0 0 0.6 0 0 0 0 0.631373 0 0 0 1 0"/>
<feBlend mode="normal" in2="BackgroundImageFix" result="effect1_dropShadow_1_420"/>
<feBlend mode="normal" in="SourceGraphic" in2="effect1_dropShadow_1_420" result="shape"/>
</filter>
</defs>
</svg>
