<svg width="215" height="515" viewBox="0 0 215 515" fill="none" xmlns="http://www.w3.org/2000/svg">
<path d="M110.295 60.017H140.455V95.488H110.295V60.017Z" fill="#FBBEAA"/>
<path d="M140.38 60.017H110.32V79.8066C111.633 79.9697 112.954 80.0534 114.278 80.0571C124.648 80.0571 136.247 77.2264 140.48 67.3317L140.38 60.017Z" fill="#F18380"/>
<path d="M94.7134 33.6898C94.9639 43.9353 94.7134 52.0265 96.5672 59.8421C98.4209 67.6578 104.082 74.0455 116.607 74.0455C129.132 74.0455 143.411 69.9624 144.413 54.3061C146.467 52.0766 149.799 44.1357 149.924 35.2429C150.049 26.3502 149.348 7.53753 129.082 4.65676C108.817 1.776 94.1623 9.21588 94.7134 33.6898Z" fill="#FBBEAA"/>
<path d="M105.31 41.756C105.31 43.1338 104.483 44.2611 103.456 44.2611C102.429 44.2611 101.602 43.1338 101.602 41.756C101.602 40.3783 102.429 39.251 103.456 39.251C104.483 39.251 105.31 40.2781 105.31 41.756Z" fill="#403D4F"/>
<path d="M127.855 41.756C127.855 43.1338 127.028 44.2611 126.001 44.2611C124.974 44.2611 124.148 43.1338 124.148 41.756C124.148 40.3783 124.974 39.251 126.001 39.251C127.028 39.251 127.855 40.2781 127.855 41.756Z" fill="#403D4F"/>
<path d="M123.321 36.5452C123.496 36.7707 124.824 36.5452 125.826 36.5452C126.828 36.5452 128.756 36.5452 128.756 36.3198C128.756 36.0943 127.805 34.5412 125.299 34.8168C123.496 35.0172 122.845 36.1444 123.321 36.5452Z" fill="#403D4F"/>
<path d="M105.736 36.5452C105.586 36.7706 104.459 36.5452 103.582 36.5452C102.705 36.5452 101.077 36.5452 101.077 36.3197C101.302 35.7519 101.726 35.2859 102.271 35.0091C102.815 34.7323 103.442 34.6639 104.033 34.8167C105.586 35.0171 106.012 36.1444 105.736 36.5452Z" fill="#403D4F"/>
<path d="M113.126 52.1266C111.372 52.1266 109.97 50.9743 109.919 50.1477L110.496 43.0835C110.515 42.9085 110.601 42.7477 110.737 42.6355C110.872 42.5232 111.046 42.4683 111.222 42.4823C111.308 42.4887 111.391 42.5119 111.468 42.5506C111.544 42.5893 111.613 42.6428 111.669 42.708C111.724 42.7732 111.767 42.8488 111.793 42.9304C111.82 43.0121 111.83 43.0981 111.823 43.1837L111.272 49.9974C111.525 50.2719 111.837 50.4864 112.183 50.6251C112.53 50.7638 112.903 50.8232 113.276 50.799C113.364 50.7921 113.452 50.8031 113.535 50.8312C113.618 50.8593 113.695 50.904 113.76 50.9625C113.826 51.021 113.879 51.0921 113.916 51.1716C113.954 51.2512 113.974 51.3374 113.978 51.4252C113.978 51.6029 113.911 51.7741 113.79 51.9043C113.669 52.0345 113.503 52.1139 113.326 52.1266H113.126Z" fill="#F18380"/>
<path d="M138.983 38.3487C138.983 48.4566 143.993 44.6991 143.993 44.6991C145.245 40.9416 147.427 42.5574 150.296 42.5574C153.164 42.5574 152.795 40.4683 155.664 33.5796C157.958 28.0685 155.313 19.3118 153.592 17.1922C156.445 13.4547 152.576 11.2282 152.71 11.7948C153.592 15.5296 150.534 11.7759 149.003 10.3034C132.646 -5.42416 91.4278 2.4772 91.4278 2.4772L95.709 7.89471L85.1653 4.98226C85.1653 4.98226 85.8534 10.6873 87.6703 13.7498C89.1835 16.3003 92.8407 19.3118 92.8407 19.3118L81.3674 20.3716C81.3674 20.3716 88.8251 28.3202 99.151 29.38C110.78 30.5736 123.245 25.1408 123.245 25.1408L118.656 30.4398C118.656 30.4398 130.256 28.074 134.013 30.0323C136.416 31.2848 138.983 33.8301 138.983 38.3487Z" fill="#7D4A40"/>
<path d="M143.862 46.5156C143.987 43.6599 144.438 39.4515 148.496 39.3513C152.554 39.2511 153.08 42.3072 152.955 47.1168C152.83 51.9264 147.945 56.0096 143.662 54.3563L143.862 46.5156Z" fill="#FBBEAA"/>
<path d="M149.825 49.9721C149.649 49.9415 149.493 49.8427 149.389 49.6972C149.286 49.5518 149.245 49.3715 149.274 49.1956C149.273 49.0542 149.233 48.9157 149.158 48.7961C149.083 48.6764 148.975 48.5805 148.848 48.5192C148.592 48.348 148.291 48.2565 147.984 48.2565C147.676 48.2565 147.375 48.348 147.119 48.5192C147.008 48.5806 146.883 48.6128 146.756 48.6128C146.629 48.6128 146.504 48.5806 146.393 48.5192C146.291 48.4518 146.209 48.3579 146.156 48.2476C146.103 48.1373 146.081 48.0148 146.092 47.8929C146.443 43.8599 149.023 43.1084 149.123 43.0833C149.209 43.0569 149.299 43.0485 149.388 43.0584C149.477 43.0684 149.563 43.0966 149.64 43.1413C149.718 43.1859 149.785 43.2461 149.839 43.318C149.892 43.3899 149.93 43.4721 149.95 43.5593C149.996 43.7254 149.975 43.903 149.89 44.0533C149.806 44.2035 149.665 44.3142 149.499 44.3609C148.999 44.5874 148.562 44.9351 148.23 45.3724C147.898 45.8098 147.68 46.3231 147.595 46.8659C148.282 46.7541 148.985 46.8966 149.574 47.2667C149.917 47.4679 150.195 47.7643 150.372 48.1201C150.55 48.4758 150.621 48.8755 150.576 49.2707C150.58 49.3683 150.563 49.4656 150.526 49.5561C150.489 49.6465 150.433 49.7278 150.362 49.7945C150.291 49.8611 150.206 49.9115 150.113 49.9422C150.02 49.9728 149.922 49.983 149.825 49.9721Z" fill="#F18380"/>
<path d="M114.854 61.1448C117.272 61.0515 119.594 60.1721 121.467 58.6398" stroke="#73102A" stroke-width="0.5" stroke-miterlimit="10" stroke-linecap="round"/>
<path d="M114.769 56.7114C118.276 55.5591 122.284 54.2064 123.662 55.8347C124.739 56.9369 123.286 62.1222 117.9 63.024C112.514 63.9258 110.586 60.2184 110.861 58.7906C111.036 57.9138 112.013 57.6383 114.769 56.7114Z" fill="#73102A"/>
<path d="M123.536 55.7599H123.662C124.739 56.8621 123.286 62.0475 117.9 62.9493C116.73 63.2209 115.513 63.2209 114.343 62.9493C115.25 61.147 116.545 59.5678 118.134 58.3248C119.724 57.0818 121.569 56.2059 123.536 55.7599Z" fill="#D65155"/>
<path d="M122.284 55.2083C120.865 56.7506 119.063 57.8898 117.061 58.5101C115.059 59.1305 112.928 59.2099 110.886 58.7404C111.086 57.8887 112.088 57.6132 114.769 56.7113C117.148 55.7114 119.703 55.2003 122.284 55.2083Z" fill="white"/>
<path d="M28.5921 88.5105C28.4658 85.7501 29.2048 83.0193 30.7057 80.6993C33.0167 78.0198 34.748 74.8909 35.7907 71.5097C36.5928 68.371 37.874 65.3746 39.5891 62.6263C40.8144 60.9415 42.6523 59.5631 42.6523 58.2766C42.6523 56.99 40.2018 54.5088 36.7097 55.2134C35.2139 55.6793 33.8396 56.4702 32.6851 57.5293C31.5307 58.5884 30.6246 59.8896 30.0318 61.3398C29.6973 60.4562 29.501 59.5263 29.4499 58.5829L28.6841 39.8054C28.6725 39.3186 28.5634 38.8391 28.3634 38.3951C28.1633 37.9512 27.8763 37.5519 27.5194 37.2206C27.1625 36.8894 26.7429 36.6331 26.2853 36.4667C25.8277 36.3004 25.3414 36.2274 24.8551 36.2521C24.0809 36.2851 23.3364 36.5599 22.7265 37.038C22.1166 37.516 21.6719 38.1732 21.4549 38.9171V38.0594C21.3371 37.1465 20.8783 36.3121 20.1707 35.7235C19.4631 35.135 18.559 34.8358 17.64 34.8862C16.721 34.9366 15.8551 35.3328 15.2161 35.9953C14.5771 36.6577 14.2124 37.5374 14.1951 38.4576V41.0613C13.8883 40.2586 13.3032 39.5928 12.5466 39.1853C11.79 38.7779 10.9122 38.6559 10.0731 38.8415C9.23402 39.0272 8.48958 39.508 7.97546 40.1966C7.46133 40.8852 7.21174 41.7357 7.27219 42.5929V44.247C6.94249 43.6676 6.45115 43.1968 5.85819 42.8922C5.26522 42.5875 4.59633 42.4622 3.9333 42.5316C3.02534 42.6469 2.19793 43.111 1.62617 43.8257C1.05442 44.5404 0.783218 45.4495 0.87009 46.3606L2.37104 62.1975C3.3543 71.126 5.20092 79.9383 7.88487 88.5105C7.91732 89.9417 8.24891 91.3503 8.8583 92.6458C9.46769 93.9413 10.3414 95.0949 11.4233 96.0326C12.5051 96.9702 13.7713 97.671 15.1402 98.0901C16.5091 98.5092 17.9506 98.6372 19.3719 98.4659C20.6582 98.5088 21.9386 98.2746 23.1264 97.7792C24.3142 97.2837 25.3816 96.5386 26.2561 95.5943C27.1306 94.6501 27.7919 93.5288 28.1949 92.3066C28.598 91.0843 28.7334 89.7897 28.5921 88.5105Z" fill="#FBBEAA"/>
<path d="M27.9797 64.005C29.1437 64.005 29.2356 63.2699 29.7563 61.9221C27.1526 61.9221 19.5865 62.4122 16.2782 68.7836C19.6171 64.1888 26.0193 64.005 27.9797 64.005ZM22.0371 39.775C22.0371 39.775 22.2209 40.8472 22.4047 42.4094C22.4047 43.2059 22.5885 44.1554 22.6498 45.1356C22.711 46.1159 22.8029 47.188 22.8948 48.1989C22.8948 50.3431 23.0479 52.4567 23.0479 54.0496C23.0479 55.6425 23.0479 56.7146 23.0479 56.7146C23.0481 56.7655 23.0377 56.816 23.0173 56.8627C22.997 56.9095 22.9671 56.9514 22.9297 56.986C22.8922 57.0205 22.848 57.047 22.7998 57.0635C22.7516 57.0801 22.7006 57.0864 22.6498 57.0821C22.5636 57.0778 22.4811 57.0456 22.4148 56.9904C22.3485 56.9351 22.3019 56.8599 22.2821 56.7759C22.2821 56.7759 22.0984 55.7037 21.9452 54.1108C21.792 52.518 21.547 50.4044 21.4551 48.2907C21.4551 47.2186 21.4551 46.1465 21.4551 45.2275C21.4551 44.3086 21.4551 43.2978 21.4551 42.5013C21.4551 40.8778 21.4551 39.8363 21.4551 39.8363C21.4549 39.7853 21.4653 39.7349 21.4856 39.6882C21.506 39.6415 21.5359 39.5994 21.5733 39.5649C21.6108 39.5303 21.655 39.5039 21.7032 39.4874C21.7514 39.4708 21.8025 39.4644 21.8533 39.4687C21.912 39.5025 21.9603 39.5519 21.9927 39.6113C22.0251 39.6708 22.0405 39.738 22.0371 39.8057V39.775ZM14.9304 41.9193C14.9304 41.9193 15.1142 42.8382 15.3286 44.1861C15.3286 44.8906 15.5431 45.687 15.635 46.5447C15.7269 47.4024 15.8188 48.3214 15.9107 49.2403C15.9107 51.0783 16.1251 52.9162 16.1557 54.2946C16.1863 55.6731 16.1557 56.6227 16.1557 56.6227C16.1518 56.671 16.1385 56.7181 16.1163 56.7612C16.0942 56.8044 16.0638 56.8427 16.0268 56.8741C15.9898 56.9054 15.9469 56.9291 15.9007 56.9438C15.8545 56.9585 15.8058 56.9639 15.7575 56.9597C15.6751 56.9539 15.597 56.9206 15.5359 56.865C15.4748 56.8094 15.4341 56.7348 15.4205 56.6533C15.4205 56.6533 15.2367 55.7343 15.0223 54.3865C14.8079 53.0387 14.6241 51.1702 14.471 49.3629C14.471 48.4439 14.471 47.5249 14.2872 46.6672C14.1034 45.8096 14.2872 44.9825 14.2872 44.2779C14.2872 42.8995 14.2872 41.9805 14.2872 41.9805C14.287 41.9296 14.2974 41.8792 14.3177 41.8325C14.3381 41.7857 14.368 41.7437 14.4054 41.7092C14.4429 41.6746 14.4871 41.6482 14.5353 41.6317C14.5835 41.6151 14.6346 41.6087 14.6854 41.613C14.7534 41.641 14.8122 41.6874 14.8554 41.7468C14.8987 41.8063 14.9247 41.8766 14.9304 41.9499V41.9193ZM8.06885 44.8293C8.06885 44.8293 8.2526 45.5951 8.49765 46.7591C8.49765 47.3105 8.74276 47.9845 8.83466 48.7196C8.92655 49.4548 9.04904 50.2206 9.17156 50.9864C9.38599 52.5486 9.47796 54.0496 9.53923 55.2749C9.60049 56.5002 9.53923 57.2354 9.53923 57.2354C9.53941 57.2863 9.52892 57.3367 9.50857 57.3834C9.48821 57.4302 9.45833 57.4722 9.42088 57.5067C9.38343 57.5413 9.33923 57.5677 9.29103 57.5842C9.24284 57.6008 9.19178 57.6072 9.141 57.6029C9.06279 57.5989 8.98791 57.5699 8.9273 57.5203C8.86669 57.4707 8.82347 57.4031 8.804 57.3273C8.804 57.3273 8.58962 56.5615 8.37519 55.4281C8.16077 54.2947 7.85441 52.7018 7.67062 51.1702C7.67062 50.3737 7.51744 49.6079 7.45617 48.8728C7.39491 48.1376 7.45617 47.4637 7.45617 46.8817C7.45617 45.7177 7.45617 44.9212 7.45617 44.9212C7.456 44.8702 7.46648 44.8198 7.48684 44.7731C7.50719 44.7264 7.53698 44.6844 7.57443 44.6498C7.61188 44.6153 7.65617 44.5889 7.70437 44.5723C7.75256 44.5558 7.80362 44.5494 7.85441 44.5536C7.91096 44.5852 7.95964 44.6291 7.99678 44.6822C8.03391 44.7352 8.05856 44.796 8.06885 44.86V44.8293Z" fill="#F18380"/>
<path d="M171.936 96.1552C178.086 104.064 207.722 187.18 207.722 187.18C174.771 176.636 191.148 172.594 173.227 175.609C173.227 175.609 145.228 116.189 144.439 111.849C143.615 108.428 143.985 104.829 145.486 101.647C146.988 98.4644 149.531 95.8903 152.695 94.3507C161.515 89.8422 165.785 88.2467 171.936 96.1552Z" fill="#003399"/>
<path d="M102.927 86.0193L36.1652 131.046C36.4461 133.349 31.0358 86.0193 31.0358 86.0193L6.32507 88.3258C6.32507 88.3258 7.76869 136.514 11.4052 161.963C12.8484 172.062 21.2549 175.893 31.2228 173.718C36.1442 172.644 40.7773 170.624 44.9003 167.731C62.617 155.295 112.321 120.269 116.384 115.863C123.395 108.261 123.395 102.566 119.366 96.3074C115.337 90.0486 106.714 85.0791 102.927 86.0193Z" fill="#002B80"/>
<path d="M181.714 322.625C182.136 325.845 181.914 329.117 181.063 332.252C180.211 335.386 178.747 338.32 176.754 340.885C174.761 343.45 172.28 345.594 169.453 347.194C166.627 348.793 163.511 349.816 160.286 350.204C157.061 350.592 153.792 350.336 150.667 349.452C147.541 348.568 144.622 347.073 142.079 345.053C139.535 343.034 137.417 340.53 135.847 337.687C134.277 334.844 133.286 331.717 132.932 328.489C132.932 328.489 120.143 238.659 117.11 220.511C114.077 202.363 117.287 187.173 137.608 182.851C158.688 178.377 171.857 193.82 173.449 209.289C175.042 224.758 181.714 322.625 181.714 322.625Z" fill="#93929C"/>
<path d="M141.4 324.369C141.48 330.885 138.969 337.166 134.419 341.83C129.868 346.494 123.651 349.16 117.135 349.24C110.619 349.321 104.339 346.809 99.6743 342.259C95.01 337.708 92.3444 331.491 92.264 324.975C92.264 324.975 89.1551 234.286 88.0935 215.911C87.0319 197.536 91.8343 182.8 112.51 180.677C133.944 178.478 145.368 195.236 145.368 210.805C145.368 226.375 141.4 324.369 141.4 324.369Z" fill="#93929C"/>
<path d="M102.071 431.234C102.071 431.234 103.285 482.771 103.588 490.48C103.891 498.189 108.769 500.287 116.63 500.97C124.491 501.652 127.802 495.409 128.914 490.455C130.026 485.501 136.75 434.975 136.75 434.975L102.071 431.234Z" fill="#FBBEAA"/>
<path d="M102.956 467.176L131.947 470.285C134.197 454.336 136.75 434.899 136.75 434.899L102.071 431.158C102.071 431.158 102.526 450.469 102.956 467.176Z" fill="#F18380"/>
<path d="M141.399 324.369C141.36 321.143 140.685 317.956 139.413 314.99C138.142 312.025 136.299 309.339 133.989 307.086C131.68 304.833 128.949 303.056 125.953 301.858C122.957 300.661 119.754 300.065 116.528 300.104C113.302 300.144 110.115 300.819 107.15 302.091C104.184 303.362 101.498 305.205 99.2449 307.515C96.9917 309.824 95.2154 312.555 94.0176 315.551C92.8197 318.547 92.2237 321.749 92.2635 324.976L97.3187 468.624L136.976 472.895L141.399 324.369Z" fill="#93929C"/>
<path d="M153.962 433.206C153.962 433.206 160.685 484.313 161.797 491.921C162.909 499.529 167.99 501.147 175.901 500.97C183.812 500.793 186.416 494.247 186.997 489.217C187.579 484.187 188.842 433.206 188.842 433.206H153.962Z" fill="#FBBEAA"/>
<path d="M158.815 468.845H187.983C188.489 452.769 188.969 433.206 188.969 433.206H153.962C153.962 433.206 156.49 452.264 158.815 468.845Z" fill="#F18380"/>
<path d="M181.715 322.625C180.875 316.208 177.538 310.382 172.428 306.411C167.318 302.441 160.847 300.647 154.422 301.419C147.997 302.192 142.136 305.468 138.113 310.536C134.089 315.605 132.228 322.056 132.933 328.489L154.922 473.679H194.807L181.715 322.625Z" fill="#93929C"/>
<path d="M133.969 328.489L156.641 472.415" stroke="#676767" stroke-width="0.75" stroke-miterlimit="10" stroke-linecap="round"/>
<path d="M133.944 328.489C133.944 328.489 121.154 238.659 118.121 220.511" stroke="#676767" stroke-width="0.75" stroke-miterlimit="10" stroke-linecap="round"/>
<path d="M173.247 474.835C170.38 474.629 167.538 475.483 165.259 477.235C162.981 478.987 161.425 481.515 160.887 484.338L147.693 497.861V506.277H189.979C189.979 506.277 187.856 491.112 187.25 487.7C186.643 484.288 184.596 474.835 173.247 474.835Z" fill="#FBBEAA"/>
<path d="M160.913 484.237C160.433 483.58 159.751 483.075 159.27 483.378C158.79 483.681 146.026 493.791 145.419 494.297C145.046 494.648 144.763 495.084 144.596 495.568C144.428 496.053 144.382 496.571 144.459 497.077V507.92H190.916C190.916 507.92 189.096 491.896 188.969 491.011C188.843 490.126 187.958 488.964 187.453 488.989C184.264 489.966 180.955 490.493 177.621 490.556C173.189 490.791 168.768 489.923 164.755 488.029C163.267 486.994 161.968 485.711 160.913 484.237Z" fill="#2E70AC"/>
<path d="M152.092 498.821C154.342 497.153 162.43 490.834 165.463 488.458L164.755 488.104C164.66 488.063 164.574 488.003 164.502 487.927C161.267 490.455 153.659 496.42 151.485 498.038C149.648 499.446 148.389 501.478 147.947 503.75L148.933 503.902C149.35 501.887 150.469 500.086 152.092 498.821Z" fill="#1E2173"/>
<path d="M189.651 496.875C186.377 496.908 183.209 498.039 180.653 500.085C178.343 502.132 176.778 504.888 176.204 507.92H177.569C178.128 505.293 179.509 502.911 181.512 501.121C183.865 499.237 186.789 498.212 189.803 498.215L189.651 496.875Z" fill="#1E2173"/>
<path d="M136.952 507.896H190.916C191.293 507.896 191.598 508.201 191.598 508.578V513.81C191.598 514.187 191.293 514.492 190.916 514.492H136.952C136.575 514.492 136.27 514.187 136.27 513.81V508.578C136.27 508.201 136.575 507.896 136.952 507.896Z" fill="white"/>
<path d="M145.545 494.196C145.065 493.993 142.714 494.676 139.656 497.684C138.383 499 137.466 500.619 136.993 502.388C136.52 504.157 136.505 506.018 136.952 507.794H152.294C151.435 498.088 146.026 494.398 145.545 494.196Z" fill="white"/>
<path d="M151.435 494.348C151.624 494.58 151.715 494.877 151.686 495.175C151.658 495.473 151.513 495.748 151.283 495.94C151.17 496.033 151.04 496.103 150.901 496.146C150.761 496.189 150.614 496.203 150.468 496.189C150.323 496.175 150.181 496.133 150.052 496.064C149.923 495.995 149.809 495.901 149.716 495.788L147.189 492.73C146.999 492.498 146.909 492.201 146.937 491.903C146.966 491.605 147.11 491.33 147.34 491.138C147.452 491.041 147.581 490.969 147.722 490.924C147.862 490.879 148.01 490.863 148.156 490.878C148.303 490.892 148.445 490.936 148.574 491.006C148.703 491.077 148.817 491.173 148.907 491.289L151.435 494.348Z" fill="white"/>
<path d="M154.443 492.047C154.632 492.279 154.722 492.577 154.694 492.875C154.666 493.173 154.521 493.448 154.291 493.64C154.18 493.736 154.05 493.809 153.91 493.853C153.769 493.898 153.622 493.914 153.475 493.9C153.328 493.886 153.186 493.842 153.057 493.771C152.928 493.7 152.815 493.604 152.724 493.488L150.196 490.43C150.013 490.195 149.927 489.899 149.955 489.603C149.983 489.307 150.124 489.033 150.348 488.837C150.459 488.741 150.589 488.668 150.729 488.623C150.87 488.579 151.018 488.563 151.164 488.577C151.311 488.591 151.453 488.635 151.582 488.706C151.711 488.777 151.824 488.873 151.915 488.989L154.443 492.047Z" fill="white"/>
<path d="M157.349 489.773C157.54 489.998 157.634 490.289 157.611 490.583C157.587 490.877 157.448 491.149 157.223 491.34C156.991 491.529 156.694 491.62 156.396 491.591C156.098 491.563 155.823 491.418 155.631 491.188L153.103 488.13C152.997 488.026 152.913 487.903 152.855 487.766C152.797 487.629 152.768 487.482 152.768 487.334C152.768 487.185 152.797 487.039 152.855 486.902C152.913 486.765 152.997 486.641 153.103 486.538C153.338 486.354 153.633 486.268 153.93 486.296C154.226 486.324 154.5 486.465 154.696 486.689L157.349 489.773Z" fill="white"/>
<path d="M160.281 487.473C160.374 487.585 160.444 487.715 160.487 487.855C160.53 487.995 160.545 488.142 160.53 488.288C160.516 488.433 160.474 488.575 160.405 488.704C160.336 488.833 160.243 488.947 160.13 489.04C159.917 489.248 159.631 489.365 159.333 489.365C159.036 489.365 158.75 489.248 158.537 489.04L156.01 485.956C155.82 485.724 155.73 485.427 155.758 485.129C155.787 484.831 155.932 484.556 156.161 484.364C156.274 484.271 156.404 484.201 156.544 484.158C156.684 484.115 156.831 484.1 156.976 484.115C157.122 484.129 157.263 484.171 157.392 484.24C157.521 484.309 157.636 484.402 157.728 484.515L160.281 487.473Z" fill="white"/>
<path d="M113.85 474.835C110.983 474.629 108.14 475.483 105.862 477.235C103.583 478.987 102.027 481.515 101.49 484.338L88.3211 497.861V506.277H130.582C130.582 506.277 128.484 491.112 127.852 487.7C127.22 484.288 125.198 474.835 113.85 474.835Z" fill="#FBBEAA"/>
<path d="M101.515 484.237C101.035 483.58 100.378 483.075 99.8725 483.378C99.367 483.681 86.628 493.791 86.0467 494.297C85.4654 494.802 85.0609 495.434 85.0609 497.077V507.92H131.518C131.518 507.92 129.698 491.896 129.571 491.011C129.445 490.126 128.56 488.964 128.055 488.989C124.866 489.966 121.557 490.493 118.223 490.556C113.799 490.795 109.386 489.927 105.383 488.029C103.883 486.999 102.574 485.716 101.515 484.237Z" fill="#2E70AC"/>
<path d="M92.6942 498.821C94.9437 497.153 103.032 490.834 106.065 488.458L105.383 488.104C105.279 488.064 105.185 488.004 105.105 487.927C101.869 490.455 94.2612 496.42 92.0875 498.038C90.25 499.446 88.9913 501.478 88.5489 503.75L89.5347 503.902C89.9639 501.892 91.0814 500.095 92.6942 498.821Z" fill="#1E2173"/>
<path d="M130.254 496.875C126.98 496.908 123.811 498.039 121.255 500.085C118.945 502.132 117.381 504.888 116.807 507.92H118.172C118.737 505.289 120.127 502.907 122.14 501.121C124.481 499.234 127.399 498.208 130.405 498.215L130.254 496.875Z" fill="#1E2173"/>
<path d="M77.5537 507.896H131.517C131.894 507.896 132.2 508.201 132.2 508.578V513.81C132.2 514.187 131.894 514.492 131.517 514.492H77.5537C77.1768 514.492 76.8713 514.187 76.8713 513.81V508.578C76.8713 508.201 77.1768 507.896 77.5537 507.896Z" fill="white"/>
<path d="M86.1474 494.196C85.6672 493.993 83.3165 494.676 80.2582 497.684C78.9848 499 78.0682 500.619 77.5949 502.388C77.1217 504.157 77.1075 506.018 77.5537 507.794H92.896C92.0366 498.088 86.6277 494.398 86.1474 494.196Z" fill="white"/>
<path d="M92.138 494.348C92.3275 494.58 92.4178 494.877 92.3894 495.175C92.361 495.473 92.2162 495.748 91.9864 495.94C91.8736 496.033 91.7435 496.103 91.6036 496.146C91.4638 496.189 91.3169 496.203 91.1714 496.189C91.0258 496.175 90.8844 496.133 90.7554 496.064C90.6263 495.995 90.5121 495.901 90.4192 495.788L87.8917 492.73C87.7084 492.496 87.6219 492.2 87.6501 491.904C87.6784 491.607 87.8191 491.333 88.0434 491.138C88.1547 491.041 88.2844 490.969 88.4247 490.924C88.5649 490.879 88.7128 490.863 88.8594 490.878C89.0059 490.892 89.1481 490.936 89.2772 491.006C89.4063 491.077 89.5197 491.173 89.6105 491.289L92.138 494.348Z" fill="white"/>
<path d="M95.0448 492.047C95.2342 492.279 95.3245 492.577 95.2961 492.875C95.2678 493.173 95.1229 493.448 94.8931 493.64C94.7818 493.736 94.652 493.809 94.5118 493.854C94.3715 493.898 94.2236 493.914 94.077 493.9C93.9305 493.886 93.7884 493.842 93.6593 493.771C93.5302 493.7 93.4168 493.604 93.326 493.488L90.7985 490.43C90.6152 490.195 90.5287 489.899 90.557 489.603C90.5852 489.307 90.7259 489.033 90.9501 488.837C91.1821 488.648 91.4793 488.558 91.7775 488.586C92.0756 488.614 92.3505 488.759 92.5425 488.989L95.0448 492.047Z" fill="white"/>
<path d="M97.9515 489.773C98.057 489.874 98.1409 489.996 98.1982 490.13C98.2556 490.265 98.2852 490.41 98.2852 490.556C98.2852 490.702 98.2556 490.847 98.1982 490.982C98.1409 491.116 98.057 491.238 97.9515 491.34C97.7195 491.529 97.4222 491.619 97.1241 491.591C96.826 491.563 96.5511 491.418 96.3591 491.188L93.8315 488.13C93.6421 487.898 93.5517 487.6 93.5801 487.302C93.6085 487.004 93.7534 486.729 93.9832 486.537C94.096 486.444 94.2261 486.374 94.3659 486.331C94.5058 486.289 94.6526 486.274 94.7982 486.288C94.9437 486.302 95.0851 486.345 95.2142 486.414C95.3432 486.482 95.4575 486.576 95.5503 486.689L97.9515 489.773Z" fill="white"/>
<path d="M100.883 487.473C100.976 487.585 101.046 487.715 101.089 487.855C101.131 487.995 101.146 488.142 101.132 488.288C101.118 488.433 101.075 488.575 101.006 488.704C100.938 488.833 100.844 488.947 100.731 489.04C100.519 489.248 100.233 489.365 99.935 489.365C99.6373 489.365 99.3514 489.248 99.1388 489.04L96.6112 485.956C96.4218 485.724 96.3314 485.427 96.3598 485.129C96.3882 484.831 96.5331 484.556 96.7629 484.364C96.8757 484.271 97.0057 484.201 97.1455 484.158C97.2854 484.115 97.4323 484.1 97.5779 484.115C97.7234 484.129 97.8648 484.171 97.9939 484.24C98.1229 484.309 98.2371 484.402 98.3299 484.515L100.883 487.473Z" fill="white"/>
<path d="M88.8368 196.253C88.8368 196.253 88.8368 222.464 88.8368 223.905C88.8368 225.346 101.475 237.705 118.258 237.705C144.064 237.705 174.951 228.277 174.496 222.135C174.193 218.091 173.814 196.253 173.814 196.253H88.8368Z" fill="#93929C"/>
<path d="M109.987 81.8809C109.987 81.8809 92.4711 91.9911 89.7666 93.7604C87.0621 95.5297 83.9279 98.2595 84.5093 105.64C85.0906 113.02 87.416 209.978 87.416 209.978C92.8856 212.929 98.7017 215.188 104.73 216.701C107.636 217.03 109.937 217.106 111.908 215.185C113.88 213.264 119.693 206.288 119.693 206.288C119.693 206.288 129.272 212.783 133.595 215.185C134.625 215.904 135.788 216.408 137.017 216.669C138.246 216.929 139.514 216.94 140.748 216.701C147.041 215.412 171.811 208.183 172.595 207.728C173.378 207.273 174.111 206.793 174.036 205.934C173.96 205.074 173.505 106.474 173.176 102.026C173.111 99.6432 172.362 97.33 171.017 95.3623C169.672 93.3946 167.789 91.8558 165.594 90.9296C160.311 88.5789 140.47 80.516 140.47 80.516L119.769 94.8978L109.987 81.8809Z" fill="#003399"/>
<path d="M109.987 79.0505L119.718 94.8983C119.718 94.8983 110.164 102.481 109.608 103.037C109.052 103.593 107.94 103.543 107.712 102.658C107.485 101.773 104.73 84.965 104.679 84.965C104.631 84.8758 104.605 84.7759 104.605 84.6743C104.605 84.5727 104.631 84.4728 104.679 84.3836C104.932 84.2067 109.987 79.0505 109.987 79.0505Z" fill="#F5F5F5"/>
<g filter="url(#filter0_d_203_576)">
<rect width="48.8839" height="69.6595" rx="1" transform="matrix(-0.993463 -0.114154 -0.114154 0.993463 146.479 130.019)" fill="#EFEFEF"/>
</g>
<path d="M140.571 76.118L119.693 94.8978C119.693 94.8978 130.688 102.48 131.168 103.037C131.308 103.156 131.473 103.241 131.651 103.287C131.829 103.333 132.015 103.338 132.195 103.302C132.375 103.265 132.545 103.188 132.691 103.077C132.837 102.965 132.956 102.822 133.038 102.657C133.847 101.368 146.788 83.1952 146.839 83.0435C146.892 82.956 146.921 82.8554 146.921 82.7528C146.921 82.6502 146.892 82.5496 146.839 82.4622C146.561 82.3105 140.571 76.118 140.571 76.118Z" fill="#F5F5F5"/>
<path d="M125.891 158.246C122.427 156.783 119.294 154.614 116.693 151.877C115.083 150.187 113.256 148.72 111.263 147.516C110.094 146.785 109.085 145.821 108.3 144.683C107.262 142.919 106.404 141.056 105.737 139.123C105.49 137.458 104.924 135.854 104.07 134.4C103.258 133.655 100.392 134.053 98.9042 136.945C98.3914 138.233 98.1591 139.619 98.2227 141.011C98.2864 142.404 98.6447 143.77 99.2735 145.018C100.014 146.516 100.594 148.086 101.003 149.704L100.733 149.866C98.4664 148.662 96.0442 147.79 93.5401 147.274C92.6319 147.071 91.6858 147.181 90.8543 147.585C90.0228 147.99 89.3544 148.667 88.9566 149.506C88.5589 150.345 88.4549 151.298 88.6617 152.211C88.8684 153.124 89.3738 153.944 90.0962 154.538C86.1887 154.987 86.6322 161.014 89.9868 161.811C89.2685 162.113 88.6622 162.63 88.2497 163.293C87.8373 163.957 87.6388 164.734 87.6809 165.52C87.723 166.306 88.0038 167.062 88.4853 167.688C88.9668 168.313 89.6258 168.777 90.3731 169.016C87.9904 171.213 89.7321 174.834 94.0585 174.849C97.5737 175.207 106.975 176.679 110.246 177.383C113.517 178.087 120.091 176.529 122.203 177.183C125.346 178.335 128.998 178.354 131.783 170.082C134.568 161.81 129.126 159.315 125.891 158.246Z" fill="#FBBEAA"/>
<path d="M119.702 180.438L183.023 205.932C191.115 210 204.262 207.913 208.226 198.449C208.952 196.684 209.311 194.79 209.283 192.882C209.255 190.975 208.839 189.092 208.062 187.35C207.285 185.607 206.161 184.041 204.76 182.745C203.359 181.45 201.709 180.453 199.911 179.814L125.075 152.747L119.702 180.438Z" fill="#003399"/>
<defs>
<filter id="filter0_d_203_576" x="90.0703" y="124.546" width="58.3013" height="74.5694" filterUnits="userSpaceOnUse" color-interpolation-filters="sRGB">
<feFlood flood-opacity="0" result="BackgroundImageFix"/>
<feColorMatrix in="SourceAlpha" type="matrix" values="0 0 0 0 0 0 0 0 0 0 0 0 0 0 0 0 0 0 127 0" result="hardAlpha"/>
<feOffset dx="2"/>
<feComposite in2="hardAlpha" operator="out"/>
<feColorMatrix type="matrix" values="0 0 0 0 0.603922 0 0 0 0 0.6 0 0 0 0 0.631373 0 0 0 1 0"/>
<feBlend mode="normal" in2="BackgroundImageFix" result="effect1_dropShadow_203_576"/>
<feBlend mode="normal" in="SourceGraphic" in2="effect1_dropShadow_203_576" result="shape"/>
</filter>
</defs>
</svg>
