<svg width="248" height="557" viewBox="0 0 248 557" fill="none" xmlns="http://www.w3.org/2000/svg">
<path d="M128.796 19.6658C129.879 15.7603 129.481 11.5924 127.678 7.96264C125.875 4.33284 122.795 1.49707 119.029 0C117.532 1.4966 118.294 6.2752 118.294 6.2752C113.006 3.79708 107.075 3.03509 101.332 4.09595C101.436 7.76762 102.82 11.2875 105.244 14.047C102.306 14.3432 99.4806 15.3331 97 16.9352C97.3762 18.6657 98.1579 20.2822 99.2808 21.6516C100.404 23.021 101.836 24.1041 103.459 24.812C101.806 26.7471 100.668 29.068 100.151 31.5598C102.971 32.3732 105.951 32.4635 108.815 31.8224C108.353 33.2714 108.166 34.7943 108.264 36.3122C110.984 36.7115 113.758 36.5067 116.39 35.7126C119.022 34.9185 121.447 33.5544 123.492 31.7174C126.205 28.1859 128.025 24.0515 128.796 19.6658Z" fill="#E69D7E"/>
<path d="M112.57 33.8445C112.15 40.6448 107.87 50.9635 108.999 59.6017C110.574 71.7845 125.645 71.6533 131.474 71.6533H140.112V33.8445H112.57Z" fill="#E69D7E"/>
<path d="M125.803 57.6583V79.9497C125.803 79.9497 127.562 87.6165 139.325 87.6165C141.665 87.8139 143.992 87.1076 145.828 85.6427C147.664 84.1778 148.87 82.0655 149.197 79.7396V57.6845L125.803 57.6583Z" fill="#FBBEAA"/>
<path d="M149.197 76.2213C141.819 79.7396 131.028 76.5889 125.803 66.9267V57.6583H149.197V76.2213Z" fill="#F18380"/>
<path d="M163.848 40.539C163.944 45.8705 163.699 51.2027 163.113 56.5028C162.168 64.0908 159.463 72.4927 146.073 72.4927C132.682 72.4927 125.829 66.4276 122.967 56.5028C121.234 50.5164 117.716 41.6418 119.16 31.4019C120.604 21.162 126.774 14.4667 141.32 14.0729C155.866 13.6791 165.345 20.2168 163.848 40.539Z" fill="#FBBEAA"/>
<path d="M135.465 45.1078C135.554 45.5034 135.753 45.8659 136.039 46.1535C136.325 46.441 136.687 46.6419 137.082 46.7331C137.477 46.8242 137.89 46.8019 138.273 46.6687C138.656 46.5355 138.994 46.2968 139.247 45.9801C139.5 45.6635 139.659 45.2817 139.705 44.8787C139.751 44.4758 139.682 44.0681 139.506 43.7025C139.331 43.337 139.055 43.0285 138.712 42.8126C138.369 42.5967 137.971 42.4822 137.566 42.4822C137.255 42.5148 136.953 42.6089 136.679 42.7589C136.404 42.9089 136.162 43.1119 135.967 43.3562C135.772 43.6004 135.627 43.881 135.541 44.1817C135.454 44.4824 135.429 44.7971 135.465 45.1078Z" fill="#403D4F"/>
<path d="M154.973 45.1078C155.062 45.5034 155.261 45.8659 155.547 46.1535C155.833 46.441 156.195 46.6419 156.59 46.7331C156.985 46.8242 157.398 46.8019 157.781 46.6687C158.164 46.5355 158.502 46.2968 158.755 45.9801C159.008 45.6635 159.167 45.2817 159.213 44.8787C159.259 44.4758 159.19 44.0681 159.014 43.7025C158.839 43.337 158.563 43.0285 158.22 42.8126C157.877 42.5967 157.479 42.4822 157.074 42.4822C156.763 42.5148 156.461 42.6089 156.187 42.7589C155.912 42.9089 155.67 43.1119 155.475 43.3562C155.28 43.6004 155.135 43.881 155.049 44.1817C154.963 44.4824 154.937 44.7971 154.973 45.1078Z" fill="#403D4F"/>
<path d="M141.819 37.6774C141.819 37.6774 141.819 37.6774 141.583 37.4411C141.373 37.2523 141.144 37.0852 140.9 36.9423C140.575 36.7419 140.221 36.5915 139.85 36.4959C139.437 36.3431 139.003 36.2546 138.564 36.2333C138.136 36.1806 137.704 36.1806 137.277 36.2333C136.915 36.2447 136.555 36.2887 136.201 36.3646L135.177 36.6534C135.007 36.7079 134.866 36.8261 134.783 36.983C134.7 37.1398 134.681 37.323 134.73 37.4936C134.77 37.63 134.853 37.7497 134.967 37.835C135.08 37.9202 135.218 37.9662 135.36 37.9662H136.384C136.689 37.9269 136.998 37.9269 137.303 37.9662C137.653 37.9402 138.004 37.9402 138.354 37.9662C138.695 37.9662 139.036 37.9662 139.351 38.15C139.666 38.3338 139.929 38.3601 140.191 38.3863L140.743 38.5701H140.979C141.143 38.6414 141.328 38.6456 141.495 38.5817C141.662 38.5179 141.797 38.3912 141.872 38.2288C141.918 38.1395 141.942 38.0405 141.942 37.94C141.942 37.8395 141.918 37.7405 141.872 37.6512L141.819 37.6774Z" fill="#403D4F"/>
<path d="M154.58 38.6751H154.737L155.157 38.5176H155.446H155.735C155.967 38.4409 156.204 38.3795 156.444 38.3338C156.687 38.295 156.935 38.295 157.179 38.3338C157.405 38.2946 157.636 38.2946 157.862 38.3338H158.702C158.878 38.327 159.045 38.2521 159.168 38.1248C159.29 37.9975 159.358 37.8277 159.358 37.6511C159.353 37.5209 159.311 37.3948 159.236 37.2878C159.162 37.1807 159.059 37.0973 158.938 37.0472L158.124 36.7584C157.827 36.6614 157.518 36.6083 157.205 36.6009C156.857 36.5487 156.503 36.5487 156.155 36.6009C155.465 36.67 154.81 36.9341 154.265 37.3623C154.067 37.4938 153.897 37.6634 153.766 37.8612C153.634 38.0187 153.634 38.0712 153.608 38.0712V38.3338C153.594 38.4574 153.613 38.5827 153.665 38.696C153.716 38.8093 153.798 38.9064 153.901 38.9767C154.003 39.047 154.123 39.0879 154.248 39.0949C154.372 39.1019 154.496 39.0748 154.606 39.0164L154.58 38.6751Z" fill="#403D4F"/>
<path d="M149.197 54.0348C149.638 54.045 150.075 53.9587 150.479 53.7818C150.883 53.6049 151.243 53.3417 151.534 53.0108C151.648 52.898 151.737 52.7627 151.796 52.6135C151.855 52.4644 151.882 52.3046 151.875 52.1444C151.875 51.8556 151.403 48.2322 151.245 46.8932C151.245 46.7609 151.193 46.634 151.099 46.5404C151.006 46.4469 150.879 46.3943 150.746 46.3943C150.614 46.3943 150.487 46.4469 150.394 46.5404C150.3 46.634 150.248 46.7609 150.248 46.8932C150.248 47.1032 150.799 51.8556 150.878 52.1444C150.66 52.3784 150.395 52.5645 150.101 52.6911C149.808 52.8176 149.491 52.8818 149.171 52.8795C149.039 52.8795 148.912 52.9321 148.818 53.0257C148.725 53.1192 148.672 53.2461 148.672 53.3784C148.672 53.5107 148.725 53.6376 148.818 53.7312C148.912 53.8247 149.039 53.8773 149.171 53.8773L149.197 54.0348Z" fill="#F18380"/>
<path d="M151.665 59.2073C152.663 59.4699 153.004 60.9402 152.427 62.6469C151.823 63.8209 150.843 64.7587 149.644 65.3108C148.444 65.8628 147.095 65.9972 145.81 65.6926C145.113 65.656 144.431 65.4808 143.802 65.1772C143.173 64.8737 142.612 64.4479 142.15 63.9247C141.688 63.4016 141.335 62.7915 141.111 62.1303C140.888 61.4691 140.798 60.77 140.848 60.0738C140.848 58.9447 141.609 58.2621 143.08 58.2621C145.963 58.3376 148.835 58.6538 151.665 59.2073Z" fill="#73102A"/>
<path d="M140.795 60.0737C140.795 60.0737 140.795 59.9162 140.795 59.8111C142.721 59.3597 144.746 59.6491 146.468 60.622C148.19 61.5949 149.483 63.18 150.09 65.0623C148.731 65.728 147.202 65.966 145.705 65.745C145.008 65.702 144.326 65.5202 143.7 65.2104C143.074 64.9006 142.516 64.469 142.058 63.9409C141.601 63.4127 141.254 62.7986 141.037 62.1346C140.82 61.4706 140.738 60.7699 140.795 60.0737Z" fill="#D65155"/>
<path d="M150.773 60.8092C147.456 60.8363 144.156 60.322 141.005 59.2863C141.199 58.9307 141.496 58.6423 141.857 58.4595C142.218 58.2766 142.626 58.2078 143.027 58.2623C145.91 58.3378 148.782 58.654 151.613 59.2075C151.887 59.2999 152.128 59.4712 152.306 59.7001C152.483 59.929 152.589 60.2052 152.61 60.4941C152.021 60.7079 151.399 60.8146 150.773 60.8092Z" fill="white"/>
<path d="M137.881 28.1464C137.881 28.1464 133.233 44.2151 122.127 48.4423C120.837 48.4584 119.563 48.1637 118.411 47.5833C117.26 47.0029 116.265 46.1538 115.51 45.1078C112.561 38.9034 111.73 31.9017 113.147 25.1794C115.012 16.9875 124.858 6.43259 142.817 8.90066C152.4 7.06273 163.822 8.74313 170.963 18.4316C178.105 28.1201 169.598 41.537 163.848 43.7687C158.192 40.3636 152.771 36.583 147.622 32.4524C148.409 34.9205 149.25 40.1454 148.409 40.1454C143.556 37.5611 139.812 33.2946 137.881 28.1464Z" fill="#E69D7E"/>
<path d="M123.492 50.3854C123.282 46.8145 122.311 42.5085 117.978 43.27C112.727 44.0314 112.36 57.8158 123.23 56.1617L123.492 50.3854Z" fill="#FBBEAA"/>
<path d="M117.532 51.3046C117.622 51.3007 117.71 51.2747 117.788 51.2289C117.866 51.1832 117.931 51.119 117.978 51.042C118.087 50.8098 118.257 50.6114 118.47 50.4681C118.683 50.3248 118.93 50.2418 119.186 50.2281C119.486 50.2311 119.781 50.3097 120.042 50.4565C120.304 50.6034 120.524 50.8138 120.683 51.0683C120.742 51.1627 120.831 51.2347 120.935 51.2728C121.04 51.3109 121.155 51.3128 121.26 51.2783C121.361 51.2347 121.446 51.1606 121.502 51.0664C121.559 50.9722 121.585 50.8627 121.576 50.7532C121.542 49.646 121.202 48.5697 120.595 47.6431C119.989 46.7164 119.137 45.9755 118.136 45.502C118.073 45.4772 118.006 45.4655 117.938 45.4677C117.87 45.4698 117.804 45.4857 117.742 45.5143C117.681 45.543 117.626 45.5839 117.581 45.6345C117.536 45.6851 117.502 45.7443 117.48 45.8085C117.459 45.8728 117.451 45.9407 117.456 46.0082C117.462 46.0757 117.481 46.1413 117.513 46.201C117.545 46.2608 117.589 46.3134 117.642 46.3558C117.695 46.3981 117.756 46.4292 117.821 46.4472C118.407 46.7355 118.928 47.1404 119.353 47.637C119.777 48.1336 120.096 48.7115 120.289 49.3354C119.924 49.1794 119.531 49.099 119.134 49.0991C118.709 49.1392 118.301 49.2821 117.944 49.5154C117.587 49.7487 117.293 50.0654 117.086 50.4381C117.053 50.495 117.031 50.5578 117.023 50.6229C117.014 50.688 117.019 50.7542 117.036 50.8176C117.053 50.881 117.082 50.9405 117.122 50.9925C117.163 51.0445 117.213 51.0881 117.27 51.1208C117.334 51.2092 117.427 51.2738 117.532 51.3046Z" fill="#F18380"/>
<g opacity="0.3" filter="url(#filter0_f_1_1978)">
<ellipse cx="106.5" cy="14.5" rx="106.5" ry="14.5" transform="matrix(1 0 0 -1 17 540)" fill="#CBCBCB"/>
</g>
<path d="M146.174 486.979C146.174 484.592 147.122 482.303 148.81 480.615C150.498 478.927 152.788 477.979 155.175 477.979C157.562 477.979 159.851 478.927 161.539 480.615C163.227 482.303 164.175 484.592 164.175 486.979V506.542H146.174V486.979Z" fill="#FBBEAA"/>
<path d="M163.531 490.624C165.738 490.624 166.135 491.591 166.779 492.856C167.825 496.225 169.613 499.318 172.011 501.906C175.592 504.955 179.433 507.685 183.491 510.063V520.427H143.423C143.423 520.427 143.696 512.245 143.894 506.468C144.092 500.691 144.663 493.649 144.613 492.905C144.564 492.161 144.613 490.624 145.977 490.624H163.531Z" fill="#302D3B"/>
<path d="M148.406 507.038C148.401 508.31 148.774 509.555 149.478 510.615C150.181 511.675 151.184 512.502 152.358 512.991C153.533 513.48 154.826 513.609 156.074 513.362C157.322 513.115 158.469 512.503 159.368 511.603C160.268 510.704 160.88 509.557 161.127 508.309C161.374 507.061 161.245 505.768 160.756 504.594C160.266 503.419 159.439 502.416 158.38 501.713C157.32 501.009 156.075 500.636 154.803 500.641C153.108 500.647 151.485 501.323 150.286 502.522C149.088 503.72 148.412 505.343 148.406 507.038Z" fill="#93929C"/>
<path d="M154.804 503.269L153.341 505.426L150.836 506.145L152.423 508.203L152.349 510.807L154.804 509.914L157.258 510.807L157.159 508.203L158.771 506.145L156.266 505.426L154.804 503.269Z" fill="white"/>
<path d="M183.217 509.89C183.217 509.89 188.895 512.89 191.027 514.353C192.014 515.021 192.816 515.929 193.358 516.991C193.9 518.054 194.164 519.236 194.127 520.427H178.556C178.556 520.427 178.878 512.815 183.217 509.89Z" fill="white"/>
<path d="M143.423 520.427V524.717C143.423 525.436 144.068 525.832 145.159 525.832H192.417C193.483 525.832 194.128 525.436 194.128 524.717V520.427H143.423Z" fill="white"/>
<path d="M178.556 506.988C178.693 506.778 178.907 506.629 179.152 506.573C179.398 506.518 179.655 506.56 179.87 506.691C179.977 506.757 180.069 506.843 180.142 506.945C180.216 507.047 180.267 507.163 180.295 507.285C180.323 507.408 180.326 507.535 180.304 507.658C180.282 507.782 180.236 507.9 180.167 508.005L178.506 510.683C178.426 510.822 178.31 510.936 178.171 511.015C178.031 511.093 177.873 511.133 177.713 511.129C177.529 511.126 177.349 511.075 177.192 510.98C177.085 510.915 176.992 510.828 176.919 510.726C176.846 510.624 176.794 510.508 176.767 510.386C176.739 510.264 176.736 510.137 176.758 510.013C176.78 509.89 176.826 509.772 176.894 509.666L178.556 506.988Z" fill="white"/>
<path d="M175.63 504.93C175.712 504.836 175.811 504.758 175.922 504.702C176.034 504.646 176.155 504.613 176.279 504.603C176.404 504.594 176.528 504.61 176.647 504.649C176.765 504.688 176.875 504.75 176.969 504.831C177.064 504.913 177.141 505.012 177.197 505.123C177.253 505.234 177.287 505.356 177.296 505.48C177.305 505.604 177.29 505.729 177.251 505.848C177.212 505.966 177.15 506.076 177.068 506.17L175.134 508.451C175.045 508.556 174.935 508.64 174.811 508.7C174.688 508.76 174.553 508.793 174.415 508.798C174.236 508.795 174.061 508.742 173.91 508.644C173.759 508.547 173.638 508.409 173.56 508.247C173.483 508.085 173.453 507.904 173.472 507.726C173.492 507.547 173.561 507.378 173.671 507.236L175.63 504.93Z" fill="white"/>
<path d="M172.878 502.625C173.076 502.498 173.312 502.447 173.545 502.481C173.777 502.516 173.988 502.633 174.14 502.812C174.292 502.991 174.373 503.219 174.369 503.454C174.365 503.689 174.276 503.914 174.118 504.088L171.912 505.997C171.738 506.143 171.518 506.223 171.292 506.22C171.155 506.225 171.019 506.198 170.895 506.142C170.77 506.087 170.66 506.003 170.573 505.898C170.481 505.812 170.408 505.708 170.358 505.593C170.308 505.478 170.282 505.354 170.282 505.228C170.282 505.103 170.308 504.979 170.358 504.863C170.408 504.748 170.481 504.645 170.573 504.559L172.878 502.625Z" fill="white"/>
<path d="M168.043 501.484L170.522 499.947C170.74 499.818 170.999 499.78 171.245 499.84C171.491 499.9 171.703 500.054 171.836 500.269C171.903 500.376 171.948 500.495 171.968 500.62C171.988 500.745 171.983 500.872 171.953 500.994C171.923 501.117 171.869 501.232 171.793 501.333C171.718 501.435 171.623 501.52 171.514 501.583L169.034 503.12C168.888 503.218 168.715 503.27 168.539 503.269C168.377 503.265 168.219 503.22 168.08 503.137C167.941 503.055 167.826 502.938 167.745 502.798C167.614 502.583 167.572 502.326 167.627 502.081C167.683 501.835 167.832 501.621 168.043 501.484Z" fill="white"/>
<path d="M165.959 498.286L168.736 497.121C168.973 497.022 169.239 497.021 169.476 497.119C169.714 497.217 169.902 497.405 170.001 497.641C170.049 497.757 170.074 497.881 170.074 498.006C170.074 498.131 170.049 498.255 170.001 498.37C169.952 498.486 169.881 498.59 169.792 498.678C169.702 498.766 169.596 498.835 169.48 498.881L166.703 500.046H166.331C166.117 500.035 165.913 499.953 165.751 499.813C165.589 499.673 165.478 499.483 165.435 499.273C165.393 499.063 165.421 498.845 165.516 498.653C165.611 498.461 165.767 498.306 165.959 498.212V498.286Z" fill="white"/>
<path d="M164.225 494.715L167.299 493.946C167.542 493.887 167.799 493.927 168.013 494.057C168.227 494.187 168.381 494.397 168.44 494.641C168.499 494.884 168.459 495.141 168.329 495.355C168.199 495.569 167.989 495.722 167.745 495.781L164.696 496.575H164.473C164.259 496.572 164.052 496.501 163.882 496.371C163.712 496.242 163.589 496.061 163.53 495.856C163.477 495.613 163.52 495.359 163.649 495.146C163.778 494.934 163.984 494.779 164.225 494.715Z" fill="white"/>
<path d="M133.009 361.866C133.281 349.866 141.364 344.064 153.34 344.361C165.316 344.659 173.944 350.932 173.672 362.908L164.175 487.946H146.175L133.009 361.866Z" fill="#FBBEAA"/>
<path d="M70.3026 486.979C70.3026 484.592 71.2508 482.303 72.9387 480.615C74.6266 478.927 76.9159 477.979 79.303 477.979C81.69 477.979 83.9793 478.927 85.6672 480.615C87.3551 482.303 88.3034 484.592 88.3034 486.979V506.542H70.3026V486.979Z" fill="#FBBEAA"/>
<path d="M87.6337 490.624C89.8652 490.624 90.2619 491.591 90.8818 492.856C91.9393 496.226 93.735 499.317 96.1382 501.906C99.7141 504.961 103.556 507.691 107.618 510.063V520.427H67.5501C67.5501 520.427 67.8229 512.245 68.0212 506.468C68.2196 500.691 68.7651 493.649 68.7403 492.905C68.7155 492.161 68.7403 490.624 70.0792 490.624H87.6337Z" fill="#302D3B"/>
<path d="M72.5098 507.038C72.5049 508.309 72.8774 509.553 73.58 510.612C74.2827 511.671 75.2839 512.498 76.4569 512.988C77.6298 513.478 78.9218 513.609 80.1692 513.364C81.4165 513.119 82.5631 512.509 83.4636 511.612C84.3642 510.715 84.9783 509.571 85.2281 508.324C85.4779 507.078 85.3522 505.786 84.8669 504.611C84.3816 503.436 83.5585 502.431 82.5019 501.725C81.4453 501.018 80.2028 500.641 78.9316 500.641C77.2327 500.641 75.6031 501.314 74.3995 502.513C73.1959 503.712 72.5164 505.339 72.5098 507.038Z" fill="#93929C"/>
<path d="M78.9068 503.269L77.444 505.426L74.9397 506.145L76.5514 508.203L76.477 510.807L78.9068 509.914L81.3615 510.807L81.2871 508.203L82.8988 506.145L80.3697 505.426L78.9068 503.269Z" fill="white"/>
<path d="M107.32 509.89C107.32 509.89 113.023 512.89 115.131 514.353C116.123 515.016 116.929 515.923 117.471 516.987C118.014 518.05 118.275 519.234 118.23 520.427H102.585C102.585 520.427 103.006 512.815 107.32 509.89Z" fill="white"/>
<path d="M67.5501 520.427V524.717C67.5501 525.436 68.17 525.832 69.2609 525.832H116.569C117.66 525.832 118.28 525.436 118.28 524.717V520.427H67.5501Z" fill="white"/>
<path d="M102.685 506.988C102.82 506.775 103.034 506.623 103.28 506.567C103.527 506.512 103.785 506.556 103.999 506.691C104.213 506.826 104.364 507.04 104.42 507.286C104.476 507.533 104.431 507.791 104.297 508.005L102.635 510.683C102.549 510.822 102.429 510.936 102.285 511.014C102.142 511.092 101.981 511.132 101.817 511.129C101.641 511.13 101.468 511.078 101.321 510.98C101.214 510.915 101.122 510.828 101.049 510.726C100.976 510.624 100.924 510.508 100.896 510.386C100.868 510.263 100.865 510.137 100.887 510.013C100.909 509.89 100.956 509.772 101.024 509.666L102.685 506.988Z" fill="white"/>
<path d="M99.7334 504.93C99.8969 504.74 100.128 504.621 100.378 504.598C100.628 504.574 100.877 504.649 101.072 504.806C101.264 504.974 101.384 505.209 101.407 505.463C101.43 505.717 101.355 505.97 101.196 506.17L99.2375 508.451C99.1516 508.559 99.0423 508.647 98.9177 508.707C98.7932 508.767 98.6567 508.798 98.5185 508.798C98.3367 508.8 98.1583 508.749 98.0048 508.652C97.8512 508.555 97.7291 508.415 97.6531 508.25C97.5771 508.085 97.5505 507.901 97.5764 507.721C97.6024 507.542 97.6798 507.373 97.7994 507.236L99.7334 504.93Z" fill="white"/>
<path d="M97.0067 502.625C97.2039 502.498 97.4407 502.447 97.6728 502.481C97.9049 502.516 98.1166 502.633 98.2683 502.812C98.42 502.991 98.5014 503.219 98.4974 503.454C98.4934 503.689 98.4042 503.914 98.2464 504.088L96.0149 505.997C95.8419 506.143 95.6218 506.223 95.3951 506.22C95.2588 506.223 95.1236 506.196 94.9992 506.14C94.8748 506.084 94.7644 506.001 94.676 505.898C94.5875 505.81 94.5173 505.706 94.4694 505.591C94.4215 505.476 94.3968 505.353 94.3968 505.228C94.3968 505.104 94.4215 504.98 94.4694 504.866C94.5173 504.751 94.5875 504.646 94.676 504.559L97.0067 502.625Z" fill="white"/>
<path d="M92.1728 501.484L94.6522 499.947C94.8661 499.857 95.1053 499.846 95.3262 499.918C95.547 499.989 95.7348 500.138 95.8551 500.337C95.9755 500.535 96.0203 500.77 95.9816 500.999C95.9428 501.228 95.823 501.435 95.644 501.583L93.1645 503.12C93.0176 503.218 92.845 503.27 92.6687 503.269C92.5034 503.267 92.3414 503.223 92.1982 503.14C92.0549 503.058 91.9352 502.94 91.8504 502.798C91.7216 502.58 91.6832 502.321 91.7435 502.075C91.8037 501.83 91.9579 501.617 92.1728 501.484Z" fill="white"/>
<path d="M90.0891 498.286L92.8661 497.121C92.9815 497.072 93.1055 497.047 93.2307 497.047C93.3558 497.047 93.4798 497.072 93.5952 497.121C93.7106 497.169 93.8152 497.24 93.9029 497.33C93.9906 497.419 94.0595 497.525 94.1058 497.641C94.1984 497.872 94.1985 498.13 94.1062 498.36C94.0139 498.591 93.8361 498.778 93.6099 498.881L90.8081 500.046C90.6939 500.072 90.5753 500.072 90.461 500.046C90.2701 500.046 90.0835 499.99 89.9246 499.884C89.7658 499.778 89.6418 499.628 89.5684 499.451C89.4932 499.227 89.5049 498.983 89.6014 498.767C89.6978 498.551 89.8719 498.379 90.0891 498.286Z" fill="white"/>
<path d="M88.3535 494.715L91.4033 493.947C91.6498 493.886 91.9101 493.925 92.1281 494.055C92.3461 494.185 92.5043 494.395 92.5686 494.641C92.5982 494.761 92.6036 494.887 92.5847 495.009C92.5658 495.132 92.5229 495.249 92.4584 495.355C92.3939 495.461 92.3091 495.554 92.2089 495.627C92.1086 495.7 91.9949 495.752 91.8743 495.781L88.8246 496.575H88.5767C88.3533 496.558 88.1428 496.464 87.9811 496.308C87.8195 496.153 87.7167 495.947 87.6903 495.724C87.664 495.502 87.7157 495.277 87.8367 495.089C87.9576 494.9 88.1403 494.759 88.3535 494.69V494.715Z" fill="white"/>
<path d="M80.1469 361.494C81.3649 355.866 84.768 350.952 89.6081 347.832C94.4482 344.712 100.329 343.642 105.958 344.857C117.686 347.337 124.008 358.891 121.479 370.619L88.3043 490.004H70.0803L80.1469 361.494Z" fill="#FBBEAA"/>
<path d="M131.445 361.086C131.512 358.237 132.139 355.429 133.291 352.822C134.443 350.216 136.097 347.861 138.159 345.894C140.221 343.927 142.65 342.385 145.308 341.356C147.965 340.327 150.8 339.832 153.649 339.899C156.498 339.966 159.306 340.593 161.912 341.745C164.519 342.897 166.873 344.551 168.841 346.613C170.808 348.675 172.35 351.104 173.379 353.761C174.407 356.419 174.902 359.253 174.836 362.102L180.465 490.638H131.446L131.445 361.086Z" fill="#93929C"/>
<path d="M80.1495 358.433C81.4952 352.94 84.9302 348.188 89.7244 345.189C94.5185 342.189 100.294 341.177 105.822 342.369C111.35 343.56 116.196 346.861 119.329 351.569C122.462 356.278 123.634 362.022 122.598 367.582L109.407 490.138C109.407 490.138 77.8193 492.023 59.0002 490.138L80.1495 358.433Z" fill="#93929C"/>
<path d="M237.493 139.36L166.283 85.2588C157.977 79.9528 152.324 82.7794 147.91 88.4573C145.895 91.2055 144.96 94.5989 145.285 97.9915C145.61 101.384 147.171 104.539 149.671 106.855L220.707 159.196C223.21 161.31 226.433 162.377 229.703 162.174C232.974 161.97 236.039 160.513 238.262 158.105L238.584 157.758C239.763 156.5 240.674 155.014 241.261 153.392C241.847 151.771 242.097 150.046 241.995 148.325C241.893 146.603 241.441 144.92 240.667 143.379C239.893 141.838 238.813 140.47 237.493 139.36Z" fill="#FBBEAA"/>
<path d="M149.671 106.83C149.013 106.264 148.415 105.633 147.885 104.946C147.417 103.181 147.357 101.333 147.709 99.5416C148.062 97.7501 148.817 96.0625 149.919 94.6065C153.663 88.8294 161.522 84.292 165.018 85.1598L168.49 86.9202L207.789 116.674C204.311 124.848 199.613 132.447 193.854 139.212L149.671 106.83Z" fill="#F18380"/>
<path d="M160.406 81.3907L222.029 122.952C221.77 125.078 228.601 81.3907 228.601 81.3907L247.931 83.9063C247.931 83.9063 247.538 128.02 244.652 151.433C243.5 160.779 235.792 164.347 226.591 162.34C222.049 161.349 217.772 159.484 213.967 156.813C197.613 145.335 151.735 113.005 147.984 108.937C141.513 101.921 141.513 96.6642 145.232 90.887C148.951 85.1099 156.91 80.5229 160.406 81.3907Z" fill="#90A2B7"/>
<path d="M131.446 361.792L118.727 228.621C118.727 213.918 133.876 197.9 156.216 201.347C176.399 204.496 182.548 224.778 180.887 243.993C179.225 263.209 174.738 362.734 174.738 362.734C174.671 365.583 174.044 368.391 172.892 370.998C171.74 373.604 170.086 375.959 168.024 377.926C165.962 379.893 163.533 381.435 160.875 382.464C158.218 383.493 155.383 383.988 152.534 383.921C149.685 383.854 146.877 383.227 144.27 382.075C141.664 380.923 139.31 379.269 137.342 377.207C135.375 375.145 133.833 372.716 132.804 370.059C131.776 367.401 131.281 364.567 131.347 361.718L131.446 361.792Z" fill="#93929C"/>
<path d="M80.1464 359.139L92.7916 225.992C95.4694 211.537 113.445 198.718 134.744 206.306C153.96 213.174 156.191 234.249 150.935 252.82C145.678 271.391 122.595 368.288 122.595 368.288C121.249 373.781 117.814 378.532 113.02 381.532C108.226 384.532 102.45 385.544 96.922 384.352C91.3936 383.161 86.548 379.86 83.4153 375.151C80.2825 370.443 79.1098 364.698 80.1464 359.139Z" fill="#93929C"/>
<path d="M150.935 252.82C145.703 271.391 122.595 368.288 122.595 368.288" stroke="#5E5D63" stroke-width="0.75" stroke-miterlimit="10"/>
<path d="M147.216 79.283C147.216 79.283 158.176 81.1921 160.308 81.7624C161.566 82.0577 162.729 82.6676 163.688 83.5349C164.646 84.4022 165.368 85.4986 165.787 86.7213C167.151 89.9694 174.168 111.243 174.813 113.549C175.249 116.089 174.839 118.702 173.647 120.987C172.631 123.764 167.374 136.41 167.374 136.41L166.581 177.147L136.978 181.842L108.611 177.147C108.611 177.147 98.6935 101.375 98.1976 96.6888C97.7018 92.0026 100.032 82.9526 105.636 81.812C111.24 80.6715 126.612 79.3326 126.612 79.3326L147.216 79.283Z" fill="#FBBEAA"/>
<path d="M168.013 161.015V177.349C148.687 179.385 117.893 177.943 106.327 177.349C105.783 172.683 105.215 164.766 104.622 159.506C120.364 159.958 146.364 161.637 168.013 161.015Z" fill="white"/>
<path d="M152.897 105.063H153.789V106.217H154.741V105.063H155.633V108.216H154.741V106.967H153.789V108.216H152.897V105.063H152.897ZM158.816 105.063V108.216H157.954V105.81H157.389V106.715C157.389 107.122 157.359 107.62 157.122 107.901C156.885 108.213 156.437 108.308 155.933 108.213V107.431C156.407 107.526 156.527 107.337 156.527 106.712V105.057H158.816V105.063ZM159.56 105.063H160.452L160.957 106.936L161.461 105.063H162.353L162.771 108.216H161.939L161.731 106.529L161.254 108.216H160.659L160.185 106.529L159.978 108.216H159.146L159.56 105.063L159.56 105.063ZM163.098 105.063H163.99V106.343L164.852 105.063H165.833L164.704 106.624L165.864 108.216H164.794L163.993 106.936V108.216H163.101V105.063H163.098H163.098ZM159.26 101.69C153.909 101.69 150.369 103.72 150.369 106.715C150.369 109.682 153.906 111.741 159.26 111.741C164.642 111.741 168.152 109.679 168.152 106.715C168.152 103.72 164.644 101.69 159.26 101.69ZM159.26 111.274C154.233 111.274 150.876 109.433 150.876 106.715C150.876 103.969 154.236 102.156 159.26 102.156C164.314 102.156 167.647 103.966 167.647 106.715C167.647 109.433 164.317 111.274 159.26 111.274ZM159.26 102.594C154.534 102.594 151.381 104.25 151.381 106.715C151.381 109.181 154.534 110.836 159.26 110.836C163.987 110.836 167.14 109.181 167.14 106.715C167.143 104.25 163.99 102.594 159.26 102.594ZM159.26 110.744C154.591 110.744 151.471 109.121 151.471 106.718C151.471 104.316 154.593 102.692 159.26 102.692C163.927 102.692 167.05 104.316 167.05 106.718C167.053 109.121 163.93 110.745 159.26 110.745V110.744Z" fill="white"/>
<path d="M65.717 173.502L97.4788 89.9199C101.719 80.9939 107.992 80.3988 114.835 82.8783C118 84.1408 120.589 86.5252 122.108 89.5759C123.626 92.6266 123.968 96.1298 123.067 99.4162L90.3627 181.511C89.3715 184.634 87.2087 187.252 84.3284 188.814C81.4482 190.377 78.0745 190.763 74.9158 189.891L74.4447 189.767C72.7785 189.313 71.2223 188.523 69.8711 187.448C68.5198 186.372 67.4018 185.032 66.5852 183.511C65.7686 181.989 65.2705 180.316 65.1212 178.596C64.9719 176.875 65.1747 175.142 65.717 173.502Z" fill="#FBBEAA"/>
<path d="M78.882 138.839L97.4778 89.9198C97.9766 88.847 98.5655 87.8185 99.2382 86.8453C101.516 85.4192 104.124 84.6058 106.809 84.4842C109.493 84.3625 112.164 84.9367 114.561 86.1511C117.345 87.5058 119.583 89.7707 120.904 92.5708C122.225 95.3709 122.551 98.5383 121.826 101.548C121.826 101.846 121.652 102.416 121.504 103.185L102.313 151.41C93.9303 148.387 86.0361 144.152 78.882 138.839Z" fill="#F18380"/>
<path d="M99.2134 85.4572L63.9128 177.075C92.9072 167.797 89.5089 141.948 105.278 144.601C105.278 144.601 123.462 101.921 124.157 98.1023C124.881 95.0922 124.556 91.9249 123.235 89.1248C121.914 86.3246 119.676 84.0597 116.892 82.705C109.131 78.7378 101.395 82.3331 99.2134 85.4572Z" fill="#90A2B7"/>
<path d="M129.389 134.252L89.9165 183.42C85.2304 189.866 78.2879 192.743 71.3702 186.941C70.0908 185.854 69.0455 184.518 68.2977 183.014C67.55 181.511 67.1154 179.872 67.0204 178.195C66.9253 176.519 67.1718 174.841 67.7447 173.263C68.3177 171.685 69.2053 170.239 70.3537 169.014L117.91 121.905C122.05 117.07 127.034 116.301 130.654 119.425C135.043 123.318 134.522 127.88 129.389 134.252Z" fill="#FBBEAA"/>
<path d="M115.526 124.483C119.915 120.045 128.122 110.474 130.899 108.144C133.645 106.075 136.645 104.367 139.825 103.061C142.238 102.253 144.732 101.712 147.263 101.449C149.024 101.226 149.743 101.747 149.743 102.813C149.698 103.448 149.496 104.062 149.154 104.599C148.812 105.136 148.341 105.579 147.784 105.887H151.032C152.148 105.887 152.867 106.78 152.346 108.218C151.873 109.168 151.197 110.003 150.366 110.663C149.535 111.322 148.569 111.792 147.536 112.037C147.536 112.037 151.925 112.458 153.04 112.681C154.156 112.904 154.503 113.326 154.503 114.392C154.494 115.128 154.289 115.849 153.91 116.481C153.531 117.112 152.991 117.632 152.346 117.987C150.767 118.628 149.09 118.997 147.387 119.078C147.387 119.078 152.817 120.442 153.908 120.839C154.999 121.235 155.123 121.954 154.553 122.896C154.228 123.56 153.759 124.143 153.18 124.602C152.6 125.061 151.926 125.385 151.206 125.549C149.148 126.095 147.759 125.202 147.015 125.326C145.417 125.841 143.852 126.454 142.329 127.161C140.042 129.438 137.246 131.138 134.172 132.12C131.884 133.08 129.785 134.441 127.973 136.137C127.129 136.929 126.135 137.543 125.05 137.944C123.965 138.345 122.81 138.524 121.654 138.471C120.498 138.418 119.365 138.133 118.321 137.634C117.277 137.136 116.343 136.432 115.576 135.566C111.609 131.351 112.278 127.831 115.526 124.483Z" fill="#FBBEAA"/>
<path d="M147.241 105.912C147.248 105.953 147.247 105.995 147.236 106.036C147.226 106.076 147.208 106.114 147.182 106.146C147.156 106.179 147.124 106.206 147.087 106.225C147.05 106.245 147.01 106.256 146.968 106.259L144.935 106.458H143.944C143.596 106.458 143.274 106.582 142.927 106.606C142.56 106.716 142.204 106.857 141.861 107.028L140.72 107.499C139.183 108.119 137.646 108.689 136.505 109.111C135.365 109.532 134.571 109.78 134.571 109.78C134.508 109.807 134.438 109.809 134.374 109.786C134.309 109.763 134.256 109.716 134.224 109.656C134.178 109.596 134.153 109.522 134.153 109.445C134.153 109.369 134.178 109.295 134.224 109.235L136.084 108.268L138.018 107.35C138.712 107.028 139.48 106.706 140.249 106.408L141.414 105.962C141.789 105.792 142.179 105.659 142.58 105.565L143.77 105.441H144.787H146.299H146.869C146.932 105.392 147.011 105.369 147.09 105.379C147.169 105.388 147.241 105.428 147.291 105.491C147.34 105.553 147.363 105.633 147.353 105.712C147.344 105.791 147.304 105.863 147.241 105.912ZM146.77 111.888H146.324C145.953 111.854 145.579 111.854 145.208 111.888L144.439 112.012C144.156 112.047 143.875 112.097 143.596 112.16L141.91 112.706C140.77 113.078 139.654 113.549 138.811 113.896C138.811 113.896 138.538 113.896 138.563 114.02H138.266L137.819 114.144H137.547H137.398C137.323 114.162 137.258 114.208 137.216 114.273C137.175 114.337 137.16 114.416 137.175 114.491C137.185 114.55 137.216 114.605 137.26 114.645C137.305 114.685 137.362 114.71 137.423 114.714H138.687H139.084C139.952 114.491 141.117 114.144 142.257 113.747L143.919 113.127L144.687 112.929L145.357 112.731C145.699 112.629 146.047 112.547 146.398 112.483L146.82 112.359C146.857 112.347 146.892 112.329 146.922 112.304C146.953 112.279 146.978 112.248 146.996 112.214C147.015 112.179 147.026 112.142 147.03 112.103C147.033 112.064 147.029 112.024 147.018 111.987C146.989 111.95 146.95 111.922 146.907 111.905C146.864 111.887 146.816 111.882 146.77 111.888ZM146.77 118.929H145.853C145.605 118.929 145.282 118.929 144.96 119.103L143.944 119.425C143.304 119.65 142.682 119.924 142.084 120.243C141.809 120.373 141.544 120.522 141.29 120.69C141.24 120.748 141.212 120.823 141.212 120.9C141.212 120.978 141.24 121.053 141.29 121.111C141.362 121.187 141.46 121.231 141.563 121.235L142.481 121.086C143.001 120.962 143.671 120.764 144.34 120.541L145.307 120.144L146.15 119.822C146.431 119.697 146.704 119.557 146.968 119.4C147.039 119.359 147.09 119.292 147.113 119.214C147.136 119.136 147.129 119.052 147.092 118.979C147.019 118.932 146.93 118.914 146.844 118.929H146.77Z" fill="#F18380"/>
<path d="M92.7913 225.348C93.3367 218.48 100.701 192.148 108.61 177.147C108.61 177.147 126.424 176.232 137.535 176.268C149.128 176.306 166.58 177.147 166.58 177.147C171.737 188.826 177.613 214.339 179.324 219.843C180.357 223.082 180.482 226.542 179.687 229.846C178.891 233.151 177.205 236.175 174.811 238.588C168.935 245.258 153.786 252.895 150.29 252.895C135.249 250.746 120.506 246.869 106.354 241.34C98.37 237.993 92.2706 232.241 92.7913 225.348Z" fill="#93929C"/>
<path d="M116.349 121.406L111.323 126.045L124.854 142.282L128.72 137.643L116.349 121.406Z" fill="#6B6B6B"/>
<path d="M150.998 82.5382C139.8 92.1367 128.669 86.5376 125.002 81.5383L109.005 88.5373L113.004 162.526L165.996 164.526L163.996 93.5365L150.998 82.5382Z" fill="white"/>
<path d="M164.154 82.0958C162.014 80.696 149.915 79.5185 149.915 79.5185V184.982C151.452 186.479 151.766 186.444 153.972 186.194L154.075 186.182C158.844 184.985 163.445 183.198 167.773 180.863C167.773 180.863 174.768 140.188 175.43 114.096C175.711 103.011 170.858 95.9931 169.944 93.0673C168.42 88.1911 166.293 83.4956 164.154 82.0958Z" fill="#023783"/>
<path d="M128.53 186.157C129.502 185.95 130.423 185.551 131.238 184.982L125.799 78.4386C125.799 78.4386 108.599 78.4075 104.42 80.2672C102.683 81 100.987 82.0629 99.923 83.6196C98.8592 85.1764 99.2903 93.6206 99.2388 95.5054C98.9789 99.0249 99.3031 176.984 99.2431 177.663C99.1831 178.343 99.763 178.723 100.383 179.083C101.003 179.443 120.6 185.162 125.579 186.182C126.555 186.371 127.558 186.363 128.53 186.157Z" fill="#023783"/>
<circle cx="153.384" cy="116.839" r="1.82859" fill="#90A2B7"/>
<path d="M116.905 123.963C121.041 119.781 128.774 110.762 131.39 108.566C133.978 106.617 136.804 105.007 139.801 103.777C142.075 103.015 144.425 102.506 146.81 102.258C148.469 102.048 149.146 102.539 149.146 103.543C149.105 104.142 148.914 104.72 148.591 105.226C148.269 105.732 147.825 106.15 147.301 106.44H150.361C151.412 106.44 152.09 107.281 151.599 108.636C151.154 109.532 150.517 110.318 149.734 110.94C148.95 111.561 148.04 112.003 147.067 112.234C147.067 112.234 151.202 112.631 152.254 112.842C153.305 113.052 153.632 113.449 153.632 114.454C153.623 115.148 153.43 115.827 153.073 116.422C152.716 117.017 152.207 117.507 151.599 117.841C150.111 118.445 148.531 118.793 146.927 118.869C146.927 118.869 152.043 120.154 153.071 120.528C154.099 120.902 154.216 121.579 153.679 122.467C153.372 123.093 152.93 123.642 152.385 124.074C151.839 124.507 151.203 124.812 150.525 124.967C148.586 125.481 147.277 124.64 146.576 124.757C145.07 125.242 143.596 125.819 142.161 126.486C140.006 128.631 137.371 130.233 134.474 131.158C132.318 132.063 130.34 133.345 128.634 134.943C127.838 135.689 126.902 136.268 125.879 136.646C124.856 137.024 123.768 137.193 122.679 137.143C121.59 137.092 120.522 136.824 119.538 136.354C118.555 135.884 117.675 135.222 116.952 134.406C113.214 130.434 113.845 127.117 116.905 123.963Z" fill="#FBBEAA"/>
<path d="M146.786 106.463C146.793 106.502 146.792 106.542 146.782 106.58C146.772 106.618 146.755 106.653 146.731 106.684C146.706 106.715 146.676 106.74 146.641 106.759C146.607 106.777 146.569 106.788 146.53 106.791L144.614 106.977H143.679C143.352 106.977 143.048 107.094 142.721 107.118C142.376 107.221 142.04 107.354 141.717 107.515L140.642 107.959C139.193 108.543 137.745 109.08 136.67 109.477C135.596 109.874 134.848 110.108 134.848 110.108C134.789 110.133 134.722 110.135 134.662 110.113C134.601 110.092 134.551 110.048 134.521 109.991C134.477 109.934 134.454 109.864 134.454 109.793C134.454 109.721 134.477 109.651 134.521 109.594L136.273 108.683L138.095 107.818C138.75 107.515 139.474 107.211 140.198 106.931L141.296 106.51C141.649 106.351 142.017 106.225 142.394 106.136L143.516 106.02H144.474H145.899H146.436C146.495 105.973 146.57 105.952 146.644 105.961C146.719 105.969 146.787 106.007 146.833 106.066C146.88 106.125 146.901 106.2 146.892 106.275C146.883 106.349 146.845 106.417 146.786 106.463ZM146.343 112.094H145.922C145.572 112.063 145.22 112.063 144.871 112.094L144.146 112.211C143.879 112.244 143.614 112.291 143.352 112.351L141.763 112.865C140.689 113.215 139.637 113.659 138.843 113.986C138.843 113.986 138.586 113.986 138.609 114.103H138.329L137.909 114.22H137.652H137.511C137.441 114.237 137.38 114.28 137.34 114.341C137.301 114.402 137.287 114.476 137.301 114.547C137.311 114.603 137.34 114.654 137.382 114.692C137.424 114.73 137.478 114.753 137.535 114.757H138.726H139.1C139.918 114.547 141.016 114.22 142.091 113.846L143.656 113.262L144.38 113.075L145.011 112.888C145.334 112.793 145.661 112.715 145.992 112.655L146.389 112.538C146.425 112.527 146.458 112.51 146.486 112.486C146.515 112.463 146.538 112.434 146.556 112.401C146.573 112.369 146.584 112.333 146.587 112.296C146.591 112.26 146.587 112.223 146.576 112.187C146.549 112.153 146.513 112.126 146.472 112.11C146.431 112.094 146.386 112.088 146.343 112.094ZM146.343 118.729H145.478C145.245 118.729 144.941 118.729 144.637 118.893L143.679 119.196C143.076 119.409 142.491 119.666 141.927 119.967C141.668 120.089 141.418 120.23 141.179 120.388C141.132 120.443 141.105 120.513 141.105 120.586C141.105 120.659 141.132 120.73 141.179 120.785C141.246 120.856 141.339 120.898 141.436 120.902L142.301 120.762C142.791 120.645 143.422 120.458 144.053 120.248L144.964 119.874L145.759 119.57C146.023 119.453 146.28 119.32 146.53 119.173C146.596 119.134 146.644 119.071 146.666 118.997C146.688 118.924 146.681 118.844 146.646 118.776C146.577 118.731 146.494 118.715 146.413 118.729H146.343Z" fill="#F18380"/>
<path d="M128.378 137.747L90.2018 184.459C85.4186 190.834 74.2415 194.338 67.4124 188.432C66.1495 187.325 65.1245 185.974 64.3997 184.459C63.6748 182.945 63.265 181.299 63.1953 179.621C63.1257 177.944 63.3975 176.27 63.9943 174.7C64.591 173.131 67.2446 167.844 68.4114 166.637L116.248 121.711L128.378 137.747Z" fill="#90A2B7"/>
<path d="M116.097 121.588L110.796 126.351L124.427 142.586L129.615 137.003L116.097 121.588Z" fill="#023783"/>
<circle cx="153.384" cy="129.639" r="1.82859" fill="#90A2B7"/>
<circle cx="153.384" cy="141.83" r="1.82859" fill="#90A2B7"/>
<path d="M156.755 103.657H157.299V104.361H157.879V103.657H158.423V105.58H157.879V104.819H157.299V105.58H156.755V103.657H156.755ZM160.364 103.657V105.58H159.838V104.113H159.494V104.665C159.494 104.913 159.476 105.217 159.331 105.388C159.186 105.578 158.914 105.636 158.606 105.578V105.101C158.895 105.159 158.969 105.044 158.969 104.663V103.654H160.364V103.657ZM160.818 103.657H161.362L161.669 104.799L161.977 103.657H162.521L162.775 105.58H162.268L162.142 104.551L161.85 105.58H161.488L161.199 104.551L161.072 105.58H160.565L160.818 103.657L160.818 103.657ZM162.975 103.657H163.519V104.438L164.044 103.657H164.643L163.954 104.609L164.661 105.58H164.009L163.52 104.799V105.58H162.976V103.657H162.975H162.975ZM160.635 101.601C157.372 101.601 155.213 102.839 155.213 104.665C155.213 106.474 157.37 107.729 160.635 107.729C163.916 107.729 166.056 106.472 166.056 104.665C166.056 102.839 163.918 101.601 160.635 101.601ZM160.635 107.445C157.57 107.445 155.523 106.322 155.523 104.665C155.523 102.99 157.572 101.885 160.635 101.885C163.716 101.885 165.749 102.989 165.749 104.665C165.749 106.322 163.718 107.445 160.635 107.445ZM160.635 102.152C157.753 102.152 155.83 103.162 155.83 104.665C155.83 106.168 157.753 107.177 160.635 107.177C163.517 107.177 165.439 106.168 165.439 104.665C165.441 103.162 163.519 102.152 160.635 102.152ZM160.635 107.122C157.788 107.122 155.885 106.132 155.885 104.667C155.885 103.202 157.789 102.212 160.635 102.212C163.48 102.212 165.384 103.202 165.384 104.667C165.386 106.132 163.482 107.122 160.635 107.122V107.122Z" fill="white"/>
<defs>
<filter id="filter0_f_1_1978" x="0" y="494" width="247" height="63" filterUnits="userSpaceOnUse" color-interpolation-filters="sRGB">
<feFlood flood-opacity="0" result="BackgroundImageFix"/>
<feBlend mode="normal" in="SourceGraphic" in2="BackgroundImageFix" result="shape"/>
<feGaussianBlur stdDeviation="8.5" result="effect1_foregroundBlur_1_1978"/>
</filter>
</defs>
</svg>
