<svg width="212" height="518" viewBox="0 0 212 518" fill="none" xmlns="http://www.w3.org/2000/svg">
<path d="M183.715 96.529C183.84 93.7997 183.109 91.0994 181.625 88.8054C179.34 86.1559 177.628 83.0622 176.597 79.7188C175.804 76.6152 174.537 73.6525 172.841 70.9349C171.629 69.269 169.812 67.9061 169.812 66.634C169.812 65.3618 172.235 62.9084 175.688 63.6051C177.167 64.0658 178.526 64.8478 179.668 65.895C180.809 66.9423 181.705 68.2289 182.291 69.6629C182.622 68.7892 182.816 67.8697 182.866 66.9369L183.624 48.3698C183.635 47.8885 183.743 47.4143 183.941 46.9753C184.139 46.5364 184.422 46.1415 184.775 45.814C185.128 45.4865 185.543 45.233 185.996 45.0685C186.448 44.904 186.929 44.8319 187.41 44.8563C188.175 44.8889 188.911 45.1607 189.515 45.6334C190.118 46.106 190.557 46.7558 190.772 47.4914V46.6433C190.888 45.7407 191.342 44.9156 192.042 44.3337C192.741 43.7517 193.635 43.4559 194.544 43.5057C195.453 43.5556 196.309 43.9473 196.941 44.6024C197.573 45.2574 197.933 46.1272 197.95 47.0371V49.6116C198.254 48.8179 198.832 48.1596 199.58 47.7567C200.328 47.3538 201.196 47.2331 202.026 47.4167C202.856 47.6003 203.592 48.0757 204.1 48.7566C204.609 49.4375 204.855 50.2785 204.796 51.1261V52.7616C205.122 52.1887 205.608 51.7232 206.194 51.422C206.78 51.1207 207.442 50.9968 208.097 51.0655C208.995 51.1794 209.813 51.6383 210.378 52.345C210.944 53.0517 211.212 53.9507 211.126 54.8516L209.642 70.5109C208.67 79.3395 206.844 88.0529 204.19 96.529C204.158 97.9443 203.83 99.3371 203.227 100.618C202.625 101.899 201.761 103.04 200.691 103.967C199.621 104.894 198.369 105.587 197.016 106.001C195.662 106.416 194.237 106.542 192.832 106.373C191.56 106.415 190.294 106.184 189.119 105.694C187.945 105.204 186.889 104.467 186.025 103.534C185.16 102.6 184.506 101.491 184.107 100.283C183.709 99.0741 183.575 97.7939 183.715 96.529Z" fill="#FBBEAA"/>
<path d="M184.32 72.2982C183.169 72.2982 183.078 71.5713 182.563 70.2386C185.138 70.2386 192.619 70.7232 195.891 77.0233C192.589 72.48 186.259 72.2982 184.32 72.2982ZM190.196 48.3398C190.196 48.3398 190.014 49.3999 189.833 50.9446C189.833 51.7322 189.651 52.6711 189.59 53.6403C189.53 54.6095 189.439 55.6697 189.348 56.6692C189.348 58.7894 189.197 60.8793 189.197 62.4544C189.197 64.0294 189.197 65.0895 189.197 65.0895C189.197 65.1399 189.207 65.1898 189.227 65.236C189.247 65.2822 189.277 65.3236 189.314 65.3578C189.351 65.392 189.394 65.4182 189.442 65.4345C189.49 65.4509 189.54 65.4571 189.59 65.4529C189.676 65.4487 189.757 65.4168 189.823 65.3622C189.888 65.3075 189.934 65.2332 189.954 65.1501C189.954 65.1501 190.136 64.0899 190.287 62.5149C190.439 60.9399 190.681 58.85 190.772 56.7601C190.772 55.6999 190.772 54.6398 190.772 53.7312C190.772 52.8225 190.772 51.823 190.772 51.0355C190.772 49.4302 190.772 48.4003 190.772 48.4003C190.772 48.3499 190.762 48.3001 190.741 48.2539C190.721 48.2077 190.692 48.1661 190.655 48.132C190.618 48.0978 190.574 48.0717 190.526 48.0553C190.479 48.039 190.428 48.0326 190.378 48.0368C190.32 48.0702 190.272 48.1191 190.24 48.1779C190.208 48.2367 190.193 48.3032 190.196 48.3701V48.3398ZM197.223 50.46C197.223 50.46 197.042 51.3686 196.829 52.7014C196.829 53.398 196.617 54.1855 196.527 55.0336C196.436 55.8817 196.345 56.7903 196.254 57.699C196.254 59.5163 196.042 61.3336 196.012 62.6966C195.981 64.0596 196.012 64.9986 196.012 64.9986C196.016 65.0464 196.029 65.093 196.051 65.1356C196.073 65.1783 196.103 65.2162 196.139 65.2472C196.176 65.2781 196.218 65.3016 196.264 65.3161C196.31 65.3307 196.358 65.336 196.405 65.3318C196.487 65.3261 196.564 65.2932 196.625 65.2382C196.685 65.1833 196.725 65.1095 196.739 65.0289C196.739 65.0289 196.92 64.1202 197.132 62.7875C197.344 61.4548 197.526 59.6072 197.678 57.8202C197.678 56.9115 197.678 56.0028 197.859 55.1547C198.041 54.3067 197.859 53.4889 197.859 52.7922C197.859 51.4292 197.859 50.5206 197.859 50.5206C197.859 50.4702 197.849 50.4203 197.829 50.3741C197.809 50.3279 197.779 50.2864 197.742 50.2522C197.705 50.218 197.662 50.192 197.614 50.1756C197.566 50.1592 197.516 50.1529 197.466 50.1571C197.398 50.1848 197.34 50.2307 197.297 50.2895C197.255 50.3483 197.229 50.4177 197.223 50.4902V50.46ZM204.008 53.3374C204.008 53.3374 203.826 54.0946 203.584 55.2456C203.584 55.7908 203.342 56.4572 203.251 57.1841C203.16 57.9111 203.039 58.6683 202.918 59.4255C202.706 60.9702 202.615 62.4544 202.554 63.6659C202.493 64.8775 202.554 65.6044 202.554 65.6044C202.554 65.6548 202.564 65.7047 202.584 65.7509C202.604 65.797 202.634 65.8386 202.671 65.8728C202.708 65.907 202.752 65.933 202.799 65.9494C202.847 65.9658 202.898 65.9721 202.948 65.9679C203.025 65.9639 203.099 65.9352 203.159 65.8862C203.219 65.8371 203.262 65.7703 203.281 65.6953C203.281 65.6953 203.493 64.9381 203.705 63.8174C203.917 62.6967 204.22 61.1217 204.402 59.6072C204.402 58.8197 204.553 58.0625 204.614 57.3355C204.674 56.6086 204.614 55.9423 204.614 55.3668C204.614 54.2158 204.614 53.4283 204.614 53.4283C204.614 53.3779 204.604 53.328 204.583 53.2818C204.563 53.2356 204.534 53.1941 204.497 53.1599C204.46 53.1257 204.416 53.0997 204.368 53.0833C204.321 53.0669 204.27 53.0606 204.22 53.0648C204.164 53.096 204.116 53.1394 204.079 53.1919C204.042 53.2444 204.018 53.3045 204.008 53.3677V53.3374Z" fill="#F18380"/>
<path d="M103.372 67.6708H73.449V102.863H103.372V67.6708Z" fill="#FBBEAA"/>
<path d="M73.4754 67.6708H103.299V87.3049C101.997 87.4667 100.685 87.5497 99.3726 87.5535C89.0833 87.5535 77.5762 84.745 73.376 74.928L73.4754 67.6708Z" fill="#F18380"/>
<path d="M118.833 41.5502C118.61 51.7152 118.833 59.7428 117.019 67.4971C115.205 75.2513 109.563 81.5889 97.1363 81.5889C84.7096 81.5889 70.5432 77.5378 69.5491 62.0045C67.5111 59.7925 64.2056 51.914 64.0813 43.0911C63.9571 34.2681 64.6281 15.6033 84.7593 12.7451C104.891 9.88698 119.405 17.2684 118.833 41.5502Z" fill="#FBBEAA"/>
<path d="M108.342 49.5527C108.342 50.9197 109.163 52.0381 110.182 52.0381C111.201 52.0381 112.021 50.9197 112.021 49.5527C112.021 48.1858 111.201 47.0674 110.182 47.0674C109.163 47.0674 108.342 48.0864 108.342 49.5527Z" fill="#403D4F"/>
<path d="M85.9771 49.5527C85.9771 50.9197 86.7972 52.0381 87.8162 52.0381C88.8352 52.0381 89.6554 50.9197 89.6554 49.5527C89.6554 48.1858 88.8103 47.0674 87.8162 47.0674C86.8221 47.0674 85.9771 48.0864 85.9771 49.5527Z" fill="#403D4F"/>
<path d="M90.5723 41.7488C90.3735 41.9725 89.0811 41.7488 88.0869 41.7488C87.0928 41.7488 85.1791 41.7488 85.1791 41.5251C85.1791 41.3014 86.1235 39.7605 88.6089 40.0339C90.2989 40.2327 90.796 41.3511 90.5723 41.7488Z" fill="#403D4F"/>
<path d="M107.97 41.7488C108.119 41.9725 109.237 41.7488 110.107 41.7488C110.977 41.7488 112.592 41.7488 112.592 41.5251C112.592 41.3014 111.797 39.7605 109.685 40.0339C107.97 40.2327 107.647 41.3511 107.97 41.7488Z" fill="#403D4F"/>
<path d="M100.516 59.8419C102.255 59.8419 103.647 58.6986 103.697 57.8784L103.125 50.8698C103.106 50.6961 103.021 50.5366 102.886 50.4253C102.751 50.3139 102.579 50.2594 102.404 50.2733C102.32 50.2796 102.237 50.3026 102.161 50.341C102.085 50.3795 102.017 50.4325 101.962 50.4972C101.906 50.5619 101.864 50.6369 101.838 50.7179C101.811 50.7989 101.801 50.8843 101.808 50.9692L102.355 57.7293C102.104 58.0017 101.795 58.2145 101.451 58.3521C101.107 58.4897 100.736 58.5487 100.367 58.5246C100.28 58.5179 100.192 58.5288 100.11 58.5566C100.027 58.5845 99.951 58.6288 99.886 58.6869C99.821 58.7449 99.7684 58.8155 99.7314 58.8944C99.6944 58.9733 99.6737 59.0589 99.6706 59.146C99.6673 59.2341 99.6814 59.322 99.7121 59.4047C99.7427 59.4874 99.7894 59.5633 99.8494 59.6279C99.9094 59.6925 99.9816 59.7447 100.062 59.7814C100.142 59.8181 100.229 59.8387 100.317 59.8419H100.516Z" fill="#F18380"/>
<path d="M99.0972 64.812C101.185 64.9363 104.689 66.1044 104.714 67.024C104.681 68.7314 103.977 70.357 102.753 71.5482C101.529 72.7393 99.8853 73.3998 98.1776 73.3865C90.5228 73.3865 90.5476 67.4713 90.8707 66.179C91.1938 64.8866 95.2201 64.5635 99.0972 64.812Z" fill="#73102A"/>
<path d="M90.8482 68.2422C92.9185 67.4923 95.177 67.4384 97.2807 68.0888C99.3845 68.7392 101.219 70.0584 102.504 71.8459C101.316 72.8995 99.7664 73.4518 98.1799 73.3868C92.7619 73.3868 91.1961 70.4541 90.8482 68.2422Z" fill="#D65155"/>
<path d="M91.1717 65.7321C92.2404 64.8125 95.7447 64.5889 99.0999 64.8125C101.163 64.9368 104.642 66.0801 104.717 67.0245C100.163 67.67 95.5212 67.2271 91.1717 65.7321Z" fill="white"/>
<path d="M82.0735 32.5528C82.0735 38.6667 79.5882 41.3261 77.7242 42.4942C75.8602 43.6623 74.4932 44.8304 74.4932 46.9429V54.3989C74.4932 55.2439 73.9962 55.8901 73.35 55.6664C72.7038 55.4428 70.293 54.2249 70.293 53.0071L62.837 47.7382C60.8976 43.1446 60.1784 38.1276 60.7493 33.1742C60.9712 30.3967 61.7899 27.6998 63.1496 25.2678C64.5093 22.8358 66.3779 20.7259 68.6278 19.0823C68.6278 13.7885 73.5985 4.36912 84.0618 0.641113C84.3177 2.55459 84.3177 4.49362 84.0618 6.40709C88.8088 2.10746 104.789 0.790235 110.531 2.7785C109.688 4.66163 108.47 6.35303 106.952 7.74917C114.794 9.56023 121.772 14.0192 126.71 20.3747C125.137 22.4262 123.146 24.1204 120.87 25.3453C123.481 28.938 125.031 33.1921 125.343 37.6229C120.625 37.1861 115.999 36.0381 111.624 34.218C111.868 36.4023 111.742 38.6121 111.251 40.7544C106.281 40.4562 96.8861 35.3861 94.2268 31.3102C94.6429 34.6299 94.4577 37.9974 93.68 41.2515C89.0596 39.5204 85.0318 36.5017 82.0735 32.5528Z" fill="#403D4F"/>
<path d="M70.0682 54.2747C70.0682 51.4415 69.4965 47.2661 65.4952 47.1667C61.4938 47.0673 60.947 50.0994 61.0712 54.8712C61.1955 59.6431 66.0419 63.6942 70.2918 62.0538L70.0682 54.2747Z" fill="#FBBEAA"/>
<path d="M64.1782 57.7045C64.3496 57.6684 64.5011 57.569 64.6024 57.4262C64.7038 57.2834 64.7475 57.1077 64.725 56.934C64.7256 56.7969 64.7628 56.6624 64.8327 56.5444C64.9026 56.4265 65.0027 56.3293 65.1227 56.263C65.3813 56.094 65.6836 56.004 65.9925 56.004C66.3015 56.004 66.6037 56.094 66.8624 56.263C66.9682 56.324 67.0882 56.3562 67.2104 56.3562C67.3325 56.3562 67.4525 56.324 67.5583 56.263C67.6662 56.2014 67.754 56.1101 67.8113 55.9999C67.8686 55.8897 67.893 55.7653 67.8814 55.6416C67.5086 51.6402 64.9736 50.8946 64.8741 50.8698C64.7893 50.8436 64.6999 50.8352 64.6117 50.8451C64.5234 50.855 64.4382 50.8829 64.3612 50.9273C64.2842 50.9716 64.2172 51.0313 64.1644 51.1026C64.1115 51.174 64.0739 51.2555 64.054 51.342C64.0081 51.5068 64.0294 51.683 64.1133 51.8321C64.1972 51.9812 64.3367 52.0909 64.5013 52.1373C64.9953 52.3657 65.4257 52.7117 65.755 53.145C66.0843 53.5782 66.3024 54.0856 66.3902 54.6226C65.7091 54.5117 65.011 54.6531 64.4268 55.0203C64.0819 55.215 63.803 55.5083 63.6259 55.8625C63.4488 56.2168 63.3815 56.6158 63.4326 57.0086C63.4238 57.1065 63.4375 57.2052 63.4727 57.2971C63.5078 57.389 63.5634 57.4716 63.6353 57.5388C63.7072 57.6059 63.7935 57.6557 63.8876 57.6844C63.9817 57.7131 64.0811 57.72 64.1782 57.7045Z" fill="#F18380"/>
<path d="M41.9778 104.088C35.8959 111.908 6.59229 194.093 6.59229 194.093C39.1742 183.667 22.9806 179.67 40.701 182.652C40.701 182.652 68.3865 123.897 69.1667 119.606C69.9809 116.224 69.6155 112.664 68.1309 109.518C66.6462 106.371 64.1315 103.826 61.003 102.304C52.2821 97.8458 48.0598 96.2682 41.9778 104.088Z" fill="#003399"/>
<path d="M110.213 94.0657L176.226 138.588C175.949 140.865 181.298 94.0657 181.298 94.0657L205.732 96.3464C205.732 96.3464 204.305 143.994 200.709 169.158C199.282 179.145 190.97 182.932 181.113 180.781C176.247 179.72 171.666 177.723 167.589 174.861C150.071 162.565 100.924 127.932 96.9061 123.575C89.9737 116.058 89.9737 110.427 93.9578 104.239C97.9419 98.0499 106.468 93.1361 110.213 94.0657Z" fill="#002B80"/>
<path d="M32.3082 328.02C31.8917 331.204 32.1107 334.44 32.9525 337.539C33.7944 340.638 35.2424 343.54 37.2128 346.076C39.1832 348.612 41.6369 350.732 44.4319 352.313C47.2269 353.895 50.3078 354.907 53.4964 355.29C56.6849 355.673 59.9178 355.421 63.0081 354.546C66.0983 353.672 68.9845 352.194 71.4998 350.197C74.0151 348.2 76.1095 345.725 77.6618 342.913C79.2142 340.102 80.1937 337.011 80.5437 333.818C80.5437 333.818 93.1898 244.995 96.1889 227.051C99.1879 209.106 96.0139 194.086 75.92 189.812C55.0764 185.388 42.0553 200.659 40.4808 215.954C38.9062 231.249 32.3082 328.02 32.3082 328.02Z" fill="#93929C"/>
<path d="M72.1714 329.744C72.0918 336.187 74.5749 342.398 79.0744 347.01C83.5739 351.622 89.7213 354.257 96.1641 354.337C102.607 354.416 108.817 351.933 113.429 347.434C118.041 342.934 120.677 336.787 120.757 330.344C120.757 330.344 123.831 240.671 124.88 222.502C125.93 204.332 121.181 189.762 100.738 187.662C79.5441 185.488 68.2476 202.058 68.2476 217.453C68.2476 232.849 72.1714 329.744 72.1714 329.744Z" fill="#93929C"/>
<path d="M111.059 435.412C111.059 435.412 109.859 486.372 109.56 493.994C109.26 501.617 104.436 503.692 96.6635 504.366C88.8908 505.041 85.6168 498.868 84.5172 493.969C83.4175 489.071 76.7695 439.111 76.7695 439.111L111.059 435.412Z" fill="#FBBEAA"/>
<path d="M110.184 470.951L81.5181 474.025C79.2937 458.255 76.7695 439.036 76.7695 439.036L111.059 435.337C111.059 435.337 110.609 454.431 110.184 470.951Z" fill="#F18380"/>
<path d="M72.1714 329.745C72.2108 326.554 72.8781 323.403 74.1353 320.471C75.3925 317.539 77.2149 314.883 79.4986 312.655C81.7822 310.427 84.4823 308.671 87.4447 307.486C90.4071 306.302 93.5738 305.712 96.7639 305.752C99.9541 305.791 103.105 306.459 106.037 307.716C108.97 308.973 111.626 310.795 113.854 313.079C116.081 315.363 117.838 318.063 119.022 321.025C120.207 323.988 120.796 327.154 120.757 330.344L115.758 472.383L76.5451 476.607L72.1714 329.745Z" fill="#93929C"/>
<path d="M59.7498 437.362C59.7498 437.362 53.1018 487.896 52.0021 495.419C50.9025 502.942 45.879 504.541 38.0564 504.366C30.2338 504.192 27.6595 497.719 27.0847 492.745C26.5099 487.772 25.2603 437.362 25.2603 437.362H59.7498Z" fill="#FBBEAA"/>
<path d="M54.951 472.601H26.1097C25.6099 456.706 25.135 437.362 25.135 437.362H59.7495C59.7495 437.362 57.2503 456.206 54.951 472.601Z" fill="#F18380"/>
<path d="M32.3079 328.02C33.1378 321.675 36.4377 315.914 41.4906 311.988C46.5436 308.062 52.9414 306.288 59.2946 307.052C65.6477 307.816 71.4429 311.055 75.4215 316.067C79.4 321.078 81.2406 327.457 80.5433 333.818L58.8003 477.381H19.3623L32.3079 328.02Z" fill="#93929C"/>
<path d="M79.5187 333.818L57.1006 476.132" stroke="#676767" stroke-width="0.75" stroke-miterlimit="10" stroke-linecap="round"/>
<path d="M79.5434 333.818C79.5434 333.818 92.1896 244.995 95.1886 227.051" stroke="#676767" stroke-width="0.75" stroke-miterlimit="10" stroke-linecap="round"/>
<path d="M40.6807 478.524C43.5154 478.321 46.326 479.165 48.579 480.898C50.8319 482.63 52.3703 485.129 52.902 487.921L65.948 501.292V509.615H24.1357C24.1357 509.615 26.2351 494.619 26.8349 491.245C27.4347 487.871 29.4591 478.524 40.6807 478.524Z" fill="#FBBEAA"/>
<path d="M52.8764 487.821C53.3513 487.172 54.0261 486.672 54.5009 486.972C54.9758 487.271 67.597 497.268 68.1968 497.768C68.5662 498.115 68.8457 498.547 69.0111 499.026C69.1766 499.505 69.223 500.017 69.1465 500.517V511.239H23.2104C23.2104 511.239 25.0099 495.394 25.1348 494.519C25.2598 493.645 26.1345 492.495 26.6344 492.52C29.7873 493.486 33.0595 494.007 36.3564 494.069C40.7383 494.302 45.1093 493.443 49.0776 491.57C50.5489 490.547 51.8338 489.279 52.8764 487.821Z" fill="#2E70AC"/>
<path d="M61.5989 502.242C59.3746 500.592 51.377 494.344 48.3779 491.995L49.0777 491.645C49.1721 491.604 49.2572 491.545 49.3277 491.47C52.5267 493.969 60.0494 499.868 62.1987 501.467C64.0157 502.859 65.2603 504.868 65.6977 507.115L64.723 507.265C64.3107 505.273 63.2034 503.493 61.5989 502.242Z" fill="#1E2173"/>
<path d="M24.4603 500.318C27.6976 500.35 30.8303 501.468 33.3575 503.492C35.6417 505.515 37.189 508.241 37.7562 511.239H36.4066C35.8546 508.641 34.489 506.286 32.5078 504.516C30.1819 502.653 27.2902 501.64 24.3103 501.642L24.4603 500.318Z" fill="#1E2173"/>
<path d="M76.5692 511.214H23.2105C22.8378 511.214 22.5356 511.517 22.5356 511.889V517.063C22.5356 517.435 22.8378 517.738 23.2105 517.738H76.5692C76.9419 517.738 77.244 517.435 77.244 517.063V511.889C77.244 511.517 76.9419 511.214 76.5692 511.214Z" fill="white"/>
<path d="M68.0719 497.668C68.5468 497.468 70.8711 498.143 73.8951 501.117C75.1542 502.418 76.0606 504.02 76.5285 505.769C76.9965 507.518 77.0105 509.358 76.5693 511.114H61.3989C62.2487 501.517 67.597 497.868 68.0719 497.668Z" fill="white"/>
<path d="M62.2488 497.819C62.0614 498.048 61.9721 498.342 62.0002 498.637C62.0283 498.931 62.1715 499.203 62.3987 499.393C62.5102 499.485 62.6388 499.554 62.7771 499.597C62.9154 499.639 63.0606 499.653 63.2046 499.639C63.3485 499.626 63.4883 499.583 63.6159 499.515C63.7435 499.447 63.8564 499.355 63.9482 499.243L66.4475 496.219C66.6348 495.99 66.7241 495.696 66.696 495.401C66.668 495.106 66.5248 494.834 66.2975 494.645C66.1874 494.549 66.0592 494.477 65.9205 494.433C65.7818 494.389 65.6355 494.373 65.4906 494.387C65.3457 494.401 65.2052 494.445 65.0775 494.515C64.9499 494.585 64.8377 494.68 64.748 494.794L62.2488 497.819Z" fill="white"/>
<path d="M59.2746 495.544C59.0873 495.773 58.998 496.067 59.0261 496.362C59.0541 496.657 59.1973 496.929 59.4246 497.118C59.5346 497.214 59.663 497.286 59.8017 497.33C59.9404 497.374 60.0866 497.39 60.2315 497.376C60.3764 497.362 60.517 497.318 60.6446 497.248C60.7723 497.178 60.8844 497.083 60.9741 496.968L63.4734 493.944C63.6546 493.713 63.7401 493.42 63.7122 493.127C63.6843 492.834 63.5451 492.563 63.3234 492.37C63.2133 492.275 63.0851 492.203 62.9463 492.158C62.8076 492.114 62.6614 492.099 62.5165 492.113C62.3716 492.127 62.2311 492.17 62.1034 492.24C61.9757 492.31 61.8636 492.405 61.7739 492.52L59.2746 495.544Z" fill="white"/>
<path d="M56.4005 493.295C56.2117 493.517 56.1188 493.805 56.1422 494.096C56.1657 494.386 56.3035 494.656 56.5255 494.844C56.7548 495.032 57.0487 495.121 57.3435 495.093C57.6383 495.065 57.9101 494.922 58.1 494.695L60.5992 491.67C60.7042 491.568 60.7877 491.446 60.8447 491.31C60.9017 491.175 60.9311 491.03 60.9311 490.883C60.9311 490.736 60.9017 490.591 60.8447 490.456C60.7877 490.321 60.7042 490.198 60.5992 490.096C60.3674 489.915 60.075 489.829 59.7821 489.857C59.4892 489.885 59.2181 490.024 59.0247 490.246L56.4005 493.295Z" fill="white"/>
<path d="M53.5015 491.021C53.4095 491.132 53.3403 491.261 53.2981 491.399C53.2558 491.537 53.2412 491.682 53.2551 491.826C53.269 491.97 53.3112 492.11 53.3792 492.238C53.4472 492.365 53.5397 492.478 53.6515 492.57C53.8617 492.776 54.1443 492.892 54.4387 492.892C54.7331 492.892 55.0158 492.776 55.226 492.57L57.7252 489.521C57.9126 489.292 58.0019 488.998 57.9738 488.703C57.9457 488.408 57.8025 488.136 57.5753 487.946C57.4638 487.854 57.3351 487.785 57.1969 487.743C57.0586 487.701 56.9133 487.686 56.7694 487.7C56.6255 487.714 56.4857 487.756 56.3581 487.824C56.2305 487.892 56.1175 487.985 56.0257 488.096L53.5015 491.021Z" fill="white"/>
<path d="M99.4126 478.524C102.247 478.321 105.058 479.165 107.311 480.898C109.564 482.63 111.102 485.129 111.634 487.921L124.655 501.292V509.615H82.8677C82.8677 509.615 84.942 494.619 85.5668 491.245C86.1916 487.871 88.191 478.524 99.4126 478.524Z" fill="#FBBEAA"/>
<path d="M111.609 487.821C112.084 487.172 112.733 486.672 113.233 486.972C113.733 487.271 126.329 497.268 126.904 497.768C127.479 498.268 127.879 498.893 127.879 500.517V511.239H81.9429C81.9429 511.239 83.7423 495.394 83.8672 494.519C83.9922 493.645 84.867 492.495 85.3668 492.52C88.5197 493.486 91.7919 494.007 95.0889 494.069C99.463 494.306 103.827 493.447 107.785 491.57C109.268 490.552 110.562 489.284 111.609 487.821Z" fill="#2E70AC"/>
<path d="M120.331 502.242C118.107 500.592 110.109 494.344 107.11 491.995L107.785 491.645C107.887 491.605 107.98 491.546 108.06 491.47C111.259 493.969 118.782 499.868 120.931 501.467C122.748 502.859 123.993 504.868 124.43 507.115L123.455 507.265C123.031 505.278 121.926 503.501 120.331 502.242Z" fill="#1E2173"/>
<path d="M83.1924 500.318C86.4297 500.35 89.5625 501.468 92.0897 503.492C94.3739 505.515 95.9212 508.241 96.4884 511.239H95.1388C94.58 508.638 93.2053 506.282 91.215 504.516C88.9007 502.65 86.0155 501.635 83.0425 501.642L83.1924 500.318Z" fill="#1E2173"/>
<path d="M135.302 511.214H81.9429C81.5702 511.214 81.2681 511.517 81.2681 511.889V517.063C81.2681 517.435 81.5702 517.738 81.9429 517.738H135.302C135.674 517.738 135.976 517.435 135.976 517.063V511.889C135.976 511.517 135.674 511.214 135.302 511.214Z" fill="white"/>
<path d="M126.804 497.668C127.279 497.468 129.603 498.143 132.628 501.117C133.887 502.418 134.793 504.02 135.261 505.769C135.729 507.518 135.743 509.358 135.302 511.114H120.131C120.981 501.517 126.329 497.868 126.804 497.668Z" fill="white"/>
<path d="M120.881 497.819C120.694 498.048 120.604 498.342 120.632 498.637C120.661 498.931 120.804 499.203 121.031 499.393C121.143 499.485 121.271 499.554 121.409 499.597C121.548 499.639 121.693 499.653 121.837 499.639C121.981 499.626 122.121 499.583 122.248 499.515C122.376 499.447 122.489 499.355 122.581 499.243L125.08 496.219C125.261 495.987 125.347 495.695 125.319 495.402C125.291 495.109 125.152 494.838 124.93 494.645C124.82 494.549 124.692 494.477 124.553 494.433C124.414 494.389 124.268 494.373 124.123 494.387C123.978 494.401 123.838 494.445 123.71 494.515C123.582 494.585 123.47 494.68 123.38 494.794L120.881 497.819Z" fill="white"/>
<path d="M118.007 495.544C117.82 495.773 117.73 496.067 117.758 496.362C117.787 496.657 117.93 496.929 118.157 497.118C118.267 497.214 118.395 497.286 118.534 497.33C118.673 497.374 118.819 497.39 118.964 497.376C119.109 497.362 119.249 497.318 119.377 497.248C119.505 497.178 119.617 497.083 119.707 496.968L122.206 493.944C122.387 493.713 122.472 493.42 122.445 493.127C122.417 492.834 122.278 492.563 122.056 492.37C121.826 492.183 121.532 492.093 121.238 492.121C120.943 492.149 120.671 492.293 120.481 492.52L118.007 495.544Z" fill="white"/>
<path d="M115.133 493.295C115.028 493.395 114.945 493.515 114.889 493.648C114.832 493.781 114.803 493.925 114.803 494.069C114.803 494.214 114.832 494.357 114.889 494.49C114.945 494.623 115.028 494.744 115.133 494.844C115.362 495.031 115.656 495.121 115.951 495.093C116.246 495.065 116.517 494.921 116.707 494.694L119.206 491.67C119.394 491.441 119.483 491.147 119.455 490.852C119.427 490.557 119.284 490.285 119.056 490.096C118.945 490.003 118.816 489.934 118.678 489.892C118.54 489.85 118.395 489.835 118.251 489.849C118.107 489.863 117.967 489.905 117.839 489.973C117.712 490.041 117.599 490.134 117.507 490.245L115.133 493.295Z" fill="white"/>
<path d="M112.234 491.021C112.142 491.132 112.073 491.261 112.03 491.399C111.988 491.537 111.974 491.682 111.988 491.826C112.001 491.97 112.044 492.11 112.112 492.238C112.18 492.365 112.272 492.478 112.384 492.57C112.594 492.776 112.877 492.892 113.171 492.892C113.466 492.892 113.748 492.776 113.958 492.57L116.458 489.521C116.645 489.292 116.734 488.998 116.706 488.703C116.678 488.408 116.535 488.136 116.308 487.946C116.196 487.854 116.068 487.785 115.929 487.743C115.791 487.701 115.646 487.686 115.502 487.7C115.358 487.714 115.218 487.756 115.091 487.824C114.963 487.892 114.85 487.985 114.758 488.096L112.234 491.021Z" fill="white"/>
<path d="M124.145 203.064C124.145 203.064 124.145 228.982 124.145 230.406C124.145 231.831 111.649 244.052 95.0539 244.052C69.5367 244.052 38.996 234.73 39.4458 228.657C39.7457 224.658 40.1206 203.064 40.1206 203.064H124.145Z" fill="#93929C"/>
<path d="M103.232 89.9737C103.232 89.9737 120.552 99.9707 123.226 101.72C125.9 103.47 128.999 106.169 128.424 113.467C127.85 120.764 125.55 216.635 125.55 216.635C120.142 219.554 114.391 221.787 108.431 223.283C105.556 223.608 103.282 223.683 101.333 221.784C99.3833 219.884 93.6351 212.986 93.6351 212.986C93.6351 212.986 84.1629 219.409 79.8892 221.784C78.8708 222.495 77.7199 222.994 76.5049 223.251C75.2899 223.509 74.0356 223.52 72.8164 223.283C66.5932 222.009 42.1007 214.861 41.3259 214.411C40.5511 213.961 39.8264 213.486 39.9013 212.637C39.9763 211.787 40.4262 114.291 40.7511 109.893C40.8154 107.537 41.5567 105.25 42.8862 103.304C44.2158 101.358 46.0775 99.8368 48.2488 98.921C53.4722 96.5967 73.0913 88.6241 73.0913 88.6241L93.5601 102.845L103.232 89.9737Z" fill="#003399"/>
<path d="M103.232 87.175L93.6098 102.845C93.6098 102.845 103.057 110.343 103.607 110.893C104.157 111.443 105.256 111.393 105.481 110.518C105.706 109.643 108.43 93.0233 108.48 93.0233C108.528 92.9351 108.554 92.8363 108.554 92.7359C108.554 92.6354 108.528 92.5366 108.48 92.4485C108.23 92.2735 103.232 87.175 103.232 87.175Z" fill="#F5F5F5"/>
<g filter="url(#filter0_d_110_15)">
<rect x="67.1489" y="137.572" width="48.3361" height="68.8789" rx="1" transform="rotate(-6.55484 67.1489 137.572)" fill="#EFEFEF"/>
</g>
<path d="M72.9911 84.2755L93.6349 102.845C93.6349 102.845 82.7632 110.343 82.2883 110.892C82.1499 111.01 81.9865 111.095 81.8106 111.14C81.6346 111.186 81.4506 111.191 81.2725 111.155C81.0943 111.118 80.9268 111.042 80.7824 110.932C80.6379 110.822 80.5205 110.68 80.4389 110.517C79.6391 109.243 66.843 91.2733 66.793 91.1234C66.74 91.0369 66.7119 90.9374 66.7119 90.836C66.7119 90.7345 66.74 90.635 66.793 90.5486C67.0679 90.3986 72.9911 84.2755 72.9911 84.2755Z" fill="#F5F5F5"/>
<path d="M87.5065 165.484C90.9317 164.036 94.0289 161.892 96.6013 159.186C98.1934 157.515 99.9991 156.064 101.97 154.873C103.126 154.151 104.123 153.197 104.9 152.072C105.926 150.328 106.775 148.486 107.434 146.574C107.679 144.928 108.239 143.342 109.083 141.904C109.886 141.168 112.72 141.562 114.19 144.421C114.698 145.694 114.927 147.065 114.864 148.442C114.801 149.818 114.447 151.169 113.825 152.404C113.093 153.884 112.52 155.437 112.115 157.037L112.382 157.197C114.623 156.007 117.018 155.144 119.495 154.634C120.393 154.433 121.328 154.542 122.15 154.942C122.972 155.342 123.633 156.011 124.027 156.841C124.42 157.671 124.523 158.613 124.318 159.515C124.114 160.418 123.614 161.229 122.9 161.817C126.764 162.261 126.325 168.22 123.008 169.008C123.718 169.306 124.318 169.818 124.726 170.474C125.133 171.13 125.33 171.898 125.288 172.675C125.246 173.452 124.969 174.201 124.493 174.819C124.017 175.437 123.365 175.896 122.626 176.133C124.982 178.305 123.26 181.885 118.982 181.9C115.506 182.254 106.21 183.709 102.976 184.405C99.7419 185.102 93.2413 183.562 91.153 184.208C88.0447 185.347 84.4344 185.366 81.6806 177.186C78.9268 169.007 84.3078 166.54 87.5065 165.484Z" fill="#FBBEAA"/>
<path d="M93.6263 187.427L31.0142 212.634C23.0128 216.658 10.0131 214.594 6.09415 205.235C5.37658 203.49 5.02095 201.618 5.0488 199.731C5.07665 197.845 5.48737 195.984 6.25613 194.261C7.0249 192.538 8.13565 190.989 9.52101 189.708C10.9064 188.427 12.5375 187.441 14.3154 186.809L88.3133 160.046L93.6263 187.427Z" fill="#003399"/>
<defs>
<filter id="filter0_d_110_15" x="67.2564" y="132.162" width="57.6679" height="73.7313" filterUnits="userSpaceOnUse" color-interpolation-filters="sRGB">
<feFlood flood-opacity="0" result="BackgroundImageFix"/>
<feColorMatrix in="SourceAlpha" type="matrix" values="0 0 0 0 0 0 0 0 0 0 0 0 0 0 0 0 0 0 127 0" result="hardAlpha"/>
<feOffset dx="2"/>
<feComposite in2="hardAlpha" operator="out"/>
<feColorMatrix type="matrix" values="0 0 0 0 0.603922 0 0 0 0 0.6 0 0 0 0 0.631373 0 0 0 1 0"/>
<feBlend mode="normal" in2="BackgroundImageFix" result="effect1_dropShadow_110_15"/>
<feBlend mode="normal" in="SourceGraphic" in2="effect1_dropShadow_110_15" result="shape"/>
</filter>
</defs>
</svg>
