<svg width="202" height="529" viewBox="0 0 202 529" fill="none" xmlns="http://www.w3.org/2000/svg">
    <path d="M70.7961 19.6658C71.8791 15.7603 71.4809 11.5924 69.6782 7.96264C67.8754 4.33284 64.7951 1.49707 61.0289 0C59.5323 1.4966 60.2937 6.2752 60.2937 6.2752C55.0057 3.79708 49.075 3.03509 43.3323 4.09595C43.4363 7.76762 44.8201 11.2875 47.2444 14.047C44.3063 14.3432 41.4806 15.3331 39 16.9352C39.3762 18.6657 40.1579 20.2822 41.2808 21.6516C42.4037 23.021 43.8357 24.1041 45.459 24.812C43.8061 26.7471 42.6682 29.068 42.1507 31.5598C44.9711 32.3732 47.9508 32.4635 50.8152 31.8224C50.3528 33.2714 50.1658 34.7943 50.2639 36.3122C52.9839 36.7115 55.7584 36.5067 58.3904 35.7126C61.0224 34.9185 63.4471 33.5544 65.4924 31.7174C68.205 28.1859 70.0246 24.0515 70.7961 19.6658Z" fill="#E69D7E"/>
    <path d="M54.5697 33.8445C54.1496 40.6448 49.8698 50.9635 50.9988 59.6017C52.5742 71.7845 67.6452 71.6533 73.474 71.6533H82.1123V33.8445H54.5697Z" fill="#E69D7E"/>
    <path d="M67.8029 57.6583V79.9497C67.8029 79.9497 69.562 87.6165 81.3247 87.6165C83.6652 87.8139 85.9924 87.1076 87.8284 85.6427C89.6644 84.1778 90.8698 82.0655 91.197 79.7396V57.6845L67.8029 57.6583Z" fill="#FBBEAA"/>
    <path d="M91.197 76.2213C83.8191 79.7396 73.0278 76.5889 67.8029 66.9267V57.6583H91.197V76.2213Z" fill="#F18380"/>
    <path d="M105.848 40.539C105.944 45.8705 105.699 51.2027 105.113 56.5028C104.168 64.0908 101.463 72.4927 88.0726 72.4927C74.682 72.4927 67.8292 66.4276 64.9673 56.5028C63.2344 50.5164 59.7161 41.6418 61.1602 31.4019C62.6042 21.162 68.7744 14.4667 83.3203 14.0729C97.8662 13.6791 107.345 20.2168 105.848 40.539Z" fill="#FBBEAA"/>
    <path d="M77.4653 45.1078C77.5544 45.5034 77.7533 45.8659 78.0393 46.1535C78.3253 46.441 78.6867 46.6419 79.0819 46.7331C79.477 46.8242 79.8899 46.8019 80.273 46.6687C80.656 46.5355 80.9937 46.2968 81.247 45.9801C81.5004 45.6635 81.6591 45.2817 81.705 44.8787C81.7509 44.4758 81.682 44.0681 81.5063 43.7025C81.3306 43.337 81.0553 43.0285 80.712 42.8126C80.3687 42.5967 79.9714 42.4822 79.5658 42.4822C79.2547 42.5148 78.9532 42.6089 78.6788 42.7589C78.4043 42.9089 78.1624 43.1119 77.967 43.3562C77.7716 43.6004 77.6267 43.881 77.5406 44.1817C77.4544 44.4824 77.4289 44.7971 77.4653 45.1078Z" fill="#403D4F"/>
    <path d="M96.9734 45.1078C97.0624 45.5034 97.2614 45.8659 97.5474 46.1535C97.8334 46.441 98.1948 46.6419 98.59 46.7331C98.9851 46.8242 99.398 46.8019 99.781 46.6687C100.164 46.5355 100.502 46.2968 100.755 45.9801C101.008 45.6635 101.167 45.2817 101.213 44.8787C101.259 44.4758 101.19 44.0681 101.014 43.7025C100.839 43.337 100.563 43.0285 100.22 42.8126C99.8768 42.5967 99.4794 42.4822 99.0739 42.4822C98.7628 42.5148 98.4613 42.6089 98.1869 42.7589C97.9124 42.9089 97.6705 43.1119 97.4751 43.3562C97.2797 43.6004 97.1347 43.881 97.0486 44.1817C96.9625 44.4824 96.9369 44.7971 96.9734 45.1078Z" fill="#403D4F"/>
    <path d="M83.8194 37.6774C83.8194 37.6774 83.8194 37.6774 83.5831 37.4411C83.3729 37.2523 83.1441 37.0852 82.9004 36.9423C82.5745 36.7419 82.2205 36.5915 81.8501 36.4959C81.4372 36.3431 81.0034 36.2546 80.5636 36.2333C80.1364 36.1806 79.7043 36.1806 79.277 36.2333C78.915 36.2447 78.5547 36.2887 78.2005 36.3646L77.1766 36.6534C77.0075 36.7079 76.8663 36.8261 76.7829 36.983C76.6996 37.1398 76.6807 37.323 76.7302 37.4936C76.77 37.63 76.8529 37.7497 76.9665 37.835C77.0801 37.9202 77.2183 37.9662 77.3604 37.9662H78.3843C78.6894 37.9269 78.9982 37.9269 79.3033 37.9662C79.6529 37.9402 80.004 37.9402 80.3535 37.9662C80.6949 37.9662 81.0362 37.9662 81.3513 38.15C81.6663 38.3338 81.9289 38.3601 82.1915 38.3863L82.7428 38.5701H82.9792C83.143 38.6414 83.3283 38.6456 83.4952 38.5817C83.6621 38.5179 83.7973 38.3912 83.8719 38.2288C83.9179 38.1395 83.9419 38.0405 83.9419 37.94C83.9419 37.8395 83.9179 37.7405 83.8719 37.6512L83.8194 37.6774Z" fill="#403D4F"/>
    <path d="M96.5796 38.6751H96.7372L97.1573 38.5176H97.4461H97.7349C97.9669 38.4409 98.2038 38.3795 98.4438 38.3338C98.6873 38.295 98.9355 38.295 99.179 38.3338C99.4049 38.2946 99.6358 38.2946 99.8616 38.3338H100.702C100.878 38.327 101.045 38.2521 101.168 38.1248C101.29 37.9975 101.358 37.8277 101.358 37.6511C101.353 37.5209 101.311 37.3948 101.236 37.2878C101.162 37.1807 101.059 37.0973 100.938 37.0472L100.124 36.7584C99.8272 36.6614 99.5176 36.6083 99.2052 36.6009C98.8571 36.5487 98.5031 36.5487 98.155 36.6009C97.4653 36.67 96.8096 36.9341 96.2646 37.3623C96.0667 37.4938 95.8971 37.6634 95.7657 37.8612C95.6344 38.0187 95.6344 38.0712 95.6082 38.0712V38.3338C95.5937 38.4574 95.6133 38.5827 95.6648 38.696C95.7164 38.8093 95.7979 38.9064 95.9007 38.9767C96.0034 39.047 96.1234 39.0879 96.2477 39.0949C96.372 39.1019 96.4959 39.0748 96.6059 39.0164L96.5796 38.6751Z" fill="#403D4F"/>
    <path d="M91.1972 54.0348C91.6379 54.045 92.0754 53.9587 92.4791 53.7818C92.8828 53.6049 93.2429 53.3417 93.534 53.0108C93.6479 52.898 93.7371 52.7627 93.7959 52.6135C93.8546 52.4644 93.8817 52.3046 93.8754 52.1444C93.8754 51.8556 93.4027 48.2322 93.2452 46.8932C93.2452 46.7609 93.1926 46.634 93.0991 46.5404C93.0055 46.4469 92.8786 46.3943 92.7463 46.3943C92.614 46.3943 92.4872 46.4469 92.3936 46.5404C92.3001 46.634 92.2475 46.7609 92.2475 46.8932C92.2475 47.1032 92.7989 51.8556 92.8776 52.1444C92.6595 52.3784 92.3952 52.5645 92.1015 52.6911C91.8077 52.8176 91.4909 52.8818 91.171 52.8795C91.0387 52.8795 90.9118 52.9321 90.8182 53.0257C90.7247 53.1192 90.6721 53.2461 90.6721 53.3784C90.6721 53.5107 90.7247 53.6376 90.8182 53.7312C90.9118 53.8247 91.0387 53.8773 91.171 53.8773L91.1972 54.0348Z" fill="#F18380"/>
    <path d="M93.6654 59.2073C94.6631 59.4699 95.0044 60.9402 94.4268 62.6469C93.8228 63.8209 92.8431 64.7587 91.6438 65.3108C90.4445 65.8628 89.0949 65.9972 87.8103 65.6926C87.1133 65.656 86.4305 65.4808 85.802 65.1772C85.1735 64.8737 84.6118 64.4479 84.1498 63.9247C83.6877 63.4016 83.3346 62.7915 83.1111 62.1303C82.8875 61.4691 82.798 60.77 82.8479 60.0738C82.8479 58.9447 83.6093 58.2621 85.0796 58.2621C87.9629 58.3376 90.8348 58.6538 93.6654 59.2073Z" fill="#73102A"/>
    <path d="M82.795 60.0737C82.795 60.0737 82.795 59.9162 82.795 59.8111C84.7206 59.3597 86.7456 59.6491 88.4676 60.622C90.1896 61.5949 91.4826 63.18 92.0896 65.0623C90.7307 65.728 89.2019 65.966 87.7049 65.745C87.0076 65.702 86.326 65.5202 85.6998 65.2104C85.0737 64.9006 84.5157 64.469 84.0585 63.9409C83.6012 63.4127 83.2539 62.7986 83.037 62.1346C82.82 61.4706 82.7378 60.7699 82.795 60.0737Z" fill="#D65155"/>
    <path d="M92.7725 60.8092C89.4556 60.8363 86.1565 60.322 83.0052 59.2863C83.1986 58.9307 83.4956 58.6423 83.8566 58.4595C84.2177 58.2766 84.6259 58.2078 85.027 58.2623C87.9102 58.3378 90.7821 58.654 93.6127 59.2075C93.8872 59.2999 94.1284 59.4712 94.3059 59.7001C94.4834 59.929 94.5893 60.2052 94.6104 60.4941C94.0215 60.7079 93.3991 60.8146 92.7725 60.8092Z" fill="white"/>
    <path d="M79.8807 28.1464C79.8807 28.1464 75.2333 44.2151 64.127 48.4423C62.8375 48.4584 61.563 48.1637 60.4114 47.5833C59.2598 47.0029 58.2648 46.1538 57.5105 45.1078C54.5605 38.9034 53.7303 31.9017 55.1474 25.1794C57.0116 16.9875 66.8576 6.43259 84.8168 8.90066C94.4003 7.06273 105.822 8.74313 112.963 18.4316C120.105 28.1201 111.598 41.537 105.848 43.7687C100.192 40.3636 94.7714 36.583 89.6217 32.4524C90.4094 34.9205 91.2495 40.1454 90.4093 40.1454C85.5559 37.5611 81.8122 33.2946 79.8807 28.1464Z" fill="#E69D7E"/>
    <path d="M65.4922 50.3854C65.2822 46.8145 64.3107 42.5085 59.9784 43.27C54.7272 44.0314 54.3596 57.8158 65.2297 56.1617L65.4922 50.3854Z" fill="#FBBEAA"/>
    <path d="M59.5321 51.3046C59.6223 51.3007 59.7102 51.2747 59.788 51.2289C59.8658 51.1832 59.9312 51.119 59.9784 51.042C60.0873 50.8098 60.2571 50.6114 60.4698 50.4681C60.6825 50.3248 60.9301 50.2418 61.1862 50.2281C61.4862 50.2311 61.7805 50.3097 62.0421 50.4565C62.3037 50.6034 62.524 50.8138 62.6828 51.0683C62.7418 51.1627 62.8308 51.2347 62.9354 51.2728C63.0401 51.3109 63.1545 51.3128 63.2604 51.2783C63.3613 51.2347 63.4459 51.1606 63.5024 51.0664C63.559 50.9722 63.5845 50.8627 63.5755 50.7532C63.5416 49.646 63.2024 48.5697 62.5954 47.6431C61.9885 46.7164 61.1374 45.9755 60.136 45.502C60.0729 45.4772 60.0055 45.4655 59.9378 45.4677C59.8702 45.4698 59.8036 45.4857 59.7423 45.5143C59.6809 45.543 59.626 45.5839 59.581 45.6345C59.536 45.6851 59.5017 45.7443 59.4803 45.8085C59.4588 45.8728 59.4507 45.9407 59.4564 46.0082C59.4621 46.0757 59.4815 46.1413 59.5134 46.201C59.5452 46.2608 59.5889 46.3134 59.6418 46.3558C59.6947 46.3981 59.7556 46.4292 59.8209 46.4472C60.407 46.7355 60.9282 47.1404 61.3525 47.637C61.7769 48.1336 62.0955 48.7115 62.289 49.3354C61.9238 49.1794 61.5308 49.099 61.1337 49.0991C60.7093 49.1392 60.301 49.2821 59.9442 49.5154C59.5874 49.7487 59.2927 50.0654 59.0857 50.4381C59.0528 50.495 59.0315 50.5578 59.0229 50.6229C59.0144 50.688 59.0188 50.7542 59.0358 50.8176C59.0529 50.881 59.0823 50.9405 59.1224 50.9925C59.1625 51.0445 59.2125 51.0881 59.2695 51.1208C59.3344 51.2092 59.4267 51.2738 59.5321 51.3046Z" fill="#F18380"/>
    <path d="M171.787 85.3558C171.889 83.1208 171.291 80.9097 170.075 79.0312C168.204 76.8616 166.802 76.3282 165.958 73.5904C165.309 71.049 164.271 68.6229 162.883 66.3976C161.89 65.0335 160.402 63.9174 160.402 62.8757C160.402 61.834 162.387 59.825 165.214 60.3954C166.425 60.7727 167.538 61.413 168.473 62.2706C169.407 63.1282 170.141 64.1817 170.621 65.3559C170.892 64.6405 171.051 63.8876 171.092 63.1237L171.712 45.9197C171.722 45.5256 171.81 45.1373 171.972 44.7778C172.134 44.4184 172.366 44.095 172.655 43.8269C172.944 43.5587 173.284 43.3511 173.655 43.2164C174.025 43.0817 174.419 43.0226 174.813 43.0426C175.44 43.0694 176.042 43.2919 176.536 43.679C176.787 43.8754 180.982 48.9631 185.077 54.0061C189.051 58.901 192.931 63.7537 193.018 64.0504C192.222 71.2798 190.726 78.415 188.553 85.3558C188.527 86.5147 188.259 87.6553 187.765 88.7042C187.272 89.7531 186.564 90.6872 185.688 91.4464C184.812 92.2056 183.787 92.7731 182.679 93.1124C181.57 93.4517 180.403 93.5554 179.252 93.4167C178.211 93.4514 177.174 93.2618 176.212 92.8606C175.251 92.4595 174.386 91.8561 173.678 91.0916C172.97 90.327 172.435 89.4192 172.108 88.4295C171.782 87.4399 171.672 86.3916 171.787 85.3558Z" fill="#FBBEAA"/>
    <path d="M177.529 40.2041L190.517 52.7466C193.647 56.256 195.127 59.8108 195.36 63.0969C195.355 63.1028 195.358 63.1061 195.355 63.1091C195.688 67.7054 193.589 71.7646 190.22 74.3843C190.156 74.4432 190.08 74.5013 190.009 74.5535C189.988 74.568 189.971 74.5857 189.957 74.6006C188.108 75.9725 185.896 76.9198 183.514 77.3127C182.727 77.4462 181.914 77.5153 181.088 77.5081C181.018 77.5101 180.975 77.5137 180.965 77.5099C180.946 77.5087 180.918 77.5101 180.877 77.5108C177.169 77.4602 173.218 76.0401 169.622 72.7973L157.401 61.0472L177.529 40.2041Z" fill="#0099FF"/>
    <path d="M195.359 63.1123C195.879 70.3129 190.439 76.1827 183.515 77.3125C182.305 77.4104 181.411 77.487 181.088 77.5079C181.019 77.5099 180.975 77.5135 180.965 77.5097C180.946 77.5085 180.918 77.5099 180.877 77.5105C180.17 77.4636 174.725 76.9566 167.392 69.5885C161.749 63.9215 159.375 61.8574 159.375 61.8574L166.684 58.8815C166.684 58.8815 178.081 71.1432 184.85 72.1375C191.622 73.1416 194.99 67.4263 195.359 63.1123Z" fill="#0099FF"/>
    <path d="M177.531 40.205L190.519 52.7475C192.178 54.6133 193.374 56.4787 194.161 58.3219C194.164 58.3253 194.164 58.3253 194.171 58.332C194.865 59.9589 195.25 61.5572 195.362 63.0977L195.359 63.129C195.361 63.1479 195.357 63.1728 195.358 63.2137C195.658 67.7735 193.564 71.7796 190.225 74.3885C190.674 73.9858 191.245 73.1853 191.739 72.1316C191.778 72.0492 191.817 71.9668 191.854 71.8873C191.89 71.8079 191.92 71.728 191.957 71.6486C192.003 71.5383 192.048 71.4217 192.087 71.3047C192.138 71.1821 192.185 71.0499 192.224 70.9329C192.26 70.8125 192.301 70.6863 192.337 70.5659L192.339 70.5566C192.388 70.4151 192.419 70.2787 192.452 70.1613C192.499 69.9663 192.549 69.7619 192.588 69.5538C192.597 69.5167 192.599 69.5011 192.599 69.5011C193.046 67.2283 192.813 64.5269 190.863 62.0993C188.107 58.676 182.706 53.7122 179.416 50.7932C177.787 49.341 176.671 48.395 176.671 48.395C176.671 48.395 177.19 46.3341 177.595 44.9262C177.806 44.207 177.982 43.6491 178.044 43.6403C178.229 43.6015 177.569 40.4086 177.525 40.211L177.531 40.205Z" fill="#0099FF"/>
    <path d="M177.529 40.2048L190.517 52.7472C192.177 54.613 193.372 56.4784 194.159 58.3217C192.826 56.0077 189.913 51.7796 185.05 49.731C182.898 48.8277 181.168 49.4497 179.421 50.7933C177.21 52.498 174.966 55.3571 171.785 57.7748C166.082 62.1073 158.284 61.8945 158.02 61.6392L157.693 61.3236L159.125 61.6009L163.803 60.3476L167.033 58.1372C167.033 58.1372 173.909 51.0176 174.138 50.7804C174.367 50.5431 177.606 44.9267 177.606 44.9267L177.536 40.2115L177.529 40.2048Z" fill="#0099FF"/>
    <path d="M166.881 59.0735L167.863 60.1086C167.863 60.1086 171.382 58.4975 173.877 56.053C176.046 53.9247 179.418 50.8023 179.418 50.8023L176.673 48.4041L172.072 53.6282L166.881 59.0735Z" fill="#0099FF"/>
    <path d="M159.378 61.8614L159.714 62.1745C159.159 62.1087 158.56 61.9711 158.021 61.6454L157.405 61.051L159.378 61.8614Z" fill="#0099FF"/>
    <path d="M159.378 61.8614L159.715 62.1745C159.715 62.1745 160.886 62.3884 164.22 61.5171C166 61.0522 167.872 60.1091 167.872 60.1091L166.694 58.8859C166.694 58.8859 162.706 60.7885 162.658 60.908C162.6 61.0239 159.378 61.8614 159.378 61.8614Z" fill="#0099FF"/>
    <path d="M171.846 54.8587C177.403 49.1039 179.947 42.5443 177.527 40.2075C175.107 37.8706 168.64 40.6415 163.083 46.3963C157.525 52.1511 154.982 58.7107 157.402 61.0475C159.822 63.3843 166.288 60.6135 171.846 54.8587Z" fill="#A3A9AA"/>
    <path d="M176.74 40.5642C177.832 41.6186 177.642 43.7784 176.449 46.3915C175.932 47.5254 175.222 48.7542 174.348 50.0011C174.258 50.1213 174.17 50.2478 174.075 50.3739C173.194 51.5921 172.161 52.8292 170.992 54.039C169.773 55.3022 168.51 56.4214 167.279 57.3696C163.188 60.5135 159.316 61.7947 157.724 60.2567C156.799 59.3634 156.799 57.6507 157.56 55.5545C157.56 55.5545 157.56 55.5545 157.562 55.5453C158.108 54.0549 159.033 52.3523 160.279 50.6098C161.184 49.3459 162.258 48.0454 163.478 46.7822C164.698 45.519 165.96 44.3998 167.197 43.4457C171.283 40.3078 175.151 39.0295 176.74 40.5642Z" fill="#475150"/>
    <path d="M195.359 63.217C195.66 67.7768 193.566 71.7828 190.227 74.3918C190.227 74.3918 191.151 73.3302 191.741 72.1349C191.78 72.0524 191.819 71.97 191.856 71.8906C191.892 71.8111 191.922 71.7313 191.959 71.6518C192.01 71.5356 192.053 71.4219 192.089 71.3079C192.14 71.1854 192.187 71.0531 192.226 70.9361C192.267 70.8035 192.309 70.6836 192.339 70.5691L192.341 70.5598C192.39 70.4183 192.421 70.282 192.454 70.1646C192.538 69.8618 192.577 69.6474 192.59 69.5571C192.599 69.5199 192.601 69.5043 192.601 69.5043C192.601 69.5043 193.714 68.2816 194.398 66.8783C195.32 64.9902 195.334 63.7308 195.359 63.217Z" fill="#0099FF"/>
    <path d="M184.751 71.5792C185.489 72.6588 185.721 73.5877 185.116 74.2763C183.498 76.1402 177.442 75.1742 173.381 71.5569C169.324 67.9366 166.641 62.893 168.259 61.029C168.347 60.9308 168.437 60.8452 168.541 60.7793L168.546 60.7734C170.355 59.4367 174.457 61.8341 178.313 65.2596C180.844 67.5314 183.513 69.7709 184.751 71.5792Z" fill="#0099FF"/>
    <path d="M185.115 72.176C185.115 72.176 181.279 72.1269 177.398 69.2215C174.901 67.3603 168.539 60.7815 168.539 60.7815L168.545 60.7756C170.353 59.4388 174.358 61.6385 178.28 64.9739C184.663 70.4038 185.115 72.176 185.115 72.176Z" fill="#0099FF"/>
    <path d="M167.196 43.4455L174.196 50.2053C174.196 50.2053 172.351 52.6649 170.991 54.0388C169.754 55.2853 168.509 56.4212 167.277 57.3695L160.277 50.6096C161.182 49.3458 162.257 48.0453 163.476 46.782C164.699 45.5159 165.961 44.3967 167.196 43.4455Z" fill="#5E6466"/>
    <path d="M176.739 40.564C177.831 41.6185 177.554 43.7352 176.447 46.3913C175.791 47.9691 174.196 50.2053 174.196 50.2053C174.196 50.2053 170.899 47.1539 168.9 45.1601C167.919 44.1786 167.196 43.4455 167.196 43.4455C171.281 40.3076 175.15 39.0294 176.739 40.564Z" fill="#747A7C"/>
    <path d="M176.74 40.5642C177.832 41.6186 177.641 43.7784 176.449 46.3915C174.682 43.5794 172.128 43.6695 168.949 45.1382C168.93 45.137 168.916 45.1518 168.901 45.1603C168.292 45.4431 167.66 45.7779 167.005 46.1428C165.165 47.1916 162.92 49.3781 161.078 51.3759C159.1 53.535 157.593 55.4781 157.563 55.5516C157.563 55.5516 157.563 55.5516 157.565 55.5423C158.11 54.0519 159.036 52.3493 160.281 50.6069C161.186 49.343 162.261 48.0425 163.48 46.7793C164.179 46.0557 164.892 45.3802 165.603 44.7549C166.135 44.2881 166.666 43.8496 167.197 43.4457C171.282 40.3078 175.151 39.0295 176.74 40.5642Z" fill="#929799"/>
    <path d="M167.196 43.4455L168.9 45.1601C168.291 45.443 167.659 45.7778 167.004 46.1426C165.165 47.1915 162.919 49.3779 161.077 51.3757L160.281 50.6067C161.185 49.3428 162.26 48.0423 163.479 46.7791C164.178 46.0556 164.891 45.3801 165.602 44.7547L167.196 43.4455Z" fill="#6F7577"/>
    <path d="M161.077 51.3758L160.28 50.6068C160.28 50.6068 159.354 51.7814 158.66 53.1683C157.966 54.5552 157.562 55.5515 157.562 55.5515L161.077 51.3758Z" fill="#5E6466"/>
    <path d="M172.983 51.7172C171.905 53.0489 170.565 54.4995 168.889 56.0267C163.697 60.7837 160.138 60.8712 160.138 60.8712C160.138 60.8712 159.029 59.7371 163.788 53.9948C163.788 53.9948 163.047 55.1589 162.812 56.1814C162.684 56.7454 163 57.5664 164.859 57.207C166.343 56.9156 170.976 53.8304 172.983 51.7172Z" fill="#475150"/>
    <path d="M169.778 49.5547C169.9 49.6722 169.754 50.0183 169.456 50.3267C169.158 50.6351 168.817 50.7931 168.696 50.6755C168.574 50.558 168.717 50.2149 169.018 49.9035C169.319 49.5985 169.66 49.4405 169.778 49.5547Z" fill="#5E6466"/>
    <path d="M179.377 50.721C177.968 48.4736 180.829 45.5098 182.644 44.3517C182.644 44.3517 183.736 43.0879 186 45.3518C188.5 47.8519 187 49.563 187 49.563C185.367 51.3001 181.555 54.1952 179.377 50.721Z" fill="#FBBEAA"/>
    <path d="M183.377 55.0728C181.968 52.8254 184.829 49.8616 186.644 48.7035C186.644 48.7035 187.736 47.4397 190 49.7036C192.5 52.2037 191 53.9148 191 53.9148C189.367 55.6519 185.555 58.547 183.377 55.0728Z" fill="#FBBEAA"/>
    <path d="M187.377 59.0728C185.968 56.8254 188.829 53.8616 190.644 52.7035C190.644 52.7035 191.736 51.4397 194 53.7036C196.5 56.2037 195 57.9148 195 57.9148C193.367 59.6519 189.555 62.547 187.377 59.0728Z" fill="#FBBEAA"/>
    <path d="M192.313 62.6332C191.145 60.7495 193.516 58.2654 195.02 57.2948C195.02 57.2948 195.925 56.2355 197.801 58.133C199.873 60.2285 198.63 61.6626 198.63 61.6626C197.276 63.1186 194.117 65.5451 192.313 62.6332Z" fill="#FBBEAA"/>
    <path d="M87.2025 490.134C87.2025 487.746 88.1511 485.456 89.8395 483.768C91.528 482.079 93.818 481.131 96.2059 481.131C98.5937 481.131 100.884 482.079 102.572 483.768C104.261 485.456 105.209 487.746 105.209 490.134V509.703H87.2025V490.134Z" fill="#FBBEAA"/>
    <path d="M104.565 493.78C106.772 493.78 107.169 494.748 107.814 496.012C108.86 499.383 110.648 502.477 113.047 505.065C116.629 508.116 120.471 510.847 124.531 513.225V523.593H84.4497C84.4497 523.593 84.7225 515.408 84.921 509.629C85.1194 503.85 85.6899 496.806 85.6403 496.062C85.5907 495.318 85.6402 493.78 87.0044 493.78H104.565Z" fill="#302D3B"/>
    <path d="M89.4345 510.199C89.4296 511.472 89.8028 512.717 90.5068 513.777C91.2108 514.838 92.2138 515.665 93.3886 516.154C94.5634 516.643 95.8571 516.773 97.1055 516.526C98.3539 516.279 99.5008 515.666 100.401 514.766C101.301 513.866 101.913 512.72 102.16 511.471C102.407 510.223 102.278 508.929 101.788 507.754C101.299 506.579 100.472 505.576 99.4118 504.872C98.3516 504.168 97.1062 503.795 95.8336 503.8C94.1385 503.807 92.5146 504.483 91.316 505.682C90.1173 506.88 89.441 508.504 89.4345 510.199Z" fill="#93929C"/>
    <path d="M95.8334 506.429L94.3701 508.587L91.865 509.306L93.4524 511.365L93.3779 513.969L95.8334 513.076L98.2889 513.969L98.1897 511.365L99.8019 509.306L97.2968 508.587L95.8334 506.429Z" fill="white"/>
    <path d="M124.258 513.052C124.258 513.052 129.937 516.053 132.07 517.516C133.058 518.185 133.86 519.094 134.402 520.156C134.944 521.219 135.209 522.401 135.171 523.593H119.595C119.595 523.593 119.917 515.979 124.258 513.052Z" fill="white"/>
    <path d="M84.4497 523.593V527.884C84.4497 528.603 85.0946 529 86.1859 529H133.46C134.526 529 135.171 528.603 135.171 527.884V523.593H84.4497Z" fill="white"/>
    <path d="M119.594 510.15C119.732 509.939 119.946 509.79 120.191 509.734C120.437 509.679 120.694 509.721 120.909 509.852C121.016 509.918 121.109 510.005 121.182 510.107C121.255 510.209 121.307 510.324 121.334 510.447C121.362 510.569 121.365 510.696 121.343 510.82C121.321 510.943 121.275 511.061 121.207 511.167L119.545 513.845C119.465 513.984 119.349 514.099 119.209 514.177C119.07 514.256 118.911 514.296 118.751 514.292C118.567 514.289 118.388 514.238 118.23 514.143C118.123 514.077 118.031 513.991 117.958 513.889C117.885 513.787 117.833 513.671 117.805 513.548C117.777 513.426 117.774 513.299 117.796 513.176C117.818 513.052 117.864 512.934 117.933 512.829L119.594 510.15Z" fill="white"/>
    <path d="M116.668 508.091C116.749 507.997 116.849 507.919 116.96 507.863C117.071 507.807 117.193 507.773 117.317 507.764C117.441 507.755 117.566 507.77 117.685 507.809C117.803 507.848 117.913 507.91 118.007 507.992C118.102 508.073 118.179 508.172 118.235 508.284C118.291 508.395 118.325 508.517 118.334 508.641C118.344 508.765 118.328 508.89 118.289 509.009C118.25 509.127 118.188 509.237 118.106 509.331L116.172 511.613C116.083 511.718 115.973 511.802 115.849 511.862C115.725 511.922 115.59 511.955 115.453 511.96C115.273 511.957 115.098 511.904 114.947 511.806C114.796 511.709 114.675 511.571 114.597 511.409C114.52 511.247 114.49 511.066 114.509 510.888C114.529 510.709 114.598 510.539 114.709 510.398L116.668 508.091Z" fill="white"/>
    <path d="M113.915 505.785C114.112 505.658 114.349 505.607 114.581 505.641C114.814 505.676 115.025 505.793 115.177 505.973C115.329 506.152 115.41 506.38 115.406 506.614C115.402 506.849 115.313 507.074 115.155 507.248L112.948 509.158C112.775 509.305 112.555 509.384 112.328 509.381C112.191 509.386 112.055 509.36 111.931 509.304C111.806 509.248 111.696 509.164 111.609 509.059C111.517 508.973 111.444 508.869 111.394 508.754C111.344 508.639 111.318 508.515 111.318 508.389C111.318 508.264 111.344 508.139 111.394 508.024C111.444 507.909 111.517 507.805 111.609 507.719L113.915 505.785Z" fill="white"/>
    <path d="M109.078 504.644L111.559 503.106C111.776 502.977 112.036 502.939 112.282 502.999C112.527 503.059 112.74 503.213 112.873 503.428C112.94 503.535 112.985 503.655 113.005 503.779C113.025 503.904 113.02 504.031 112.99 504.154C112.96 504.276 112.906 504.392 112.83 504.493C112.755 504.594 112.66 504.679 112.551 504.743L110.07 506.281C109.923 506.378 109.751 506.43 109.574 506.429C109.413 506.426 109.255 506.38 109.116 506.298C108.977 506.215 108.861 506.098 108.781 505.958C108.65 505.743 108.607 505.486 108.663 505.241C108.718 504.995 108.867 504.781 109.078 504.644Z" fill="white"/>
    <path d="M106.995 501.444L109.772 500.279C110.009 500.18 110.276 500.18 110.513 500.277C110.75 500.375 110.939 500.563 111.037 500.8C111.086 500.915 111.111 501.039 111.111 501.164C111.111 501.29 111.086 501.414 111.037 501.529C110.989 501.644 110.918 501.749 110.828 501.837C110.739 501.924 110.633 501.993 110.517 502.04L107.739 503.205H107.367C107.153 503.194 106.949 503.112 106.786 502.972C106.624 502.832 106.513 502.642 106.47 502.432C106.428 502.222 106.456 502.003 106.551 501.811C106.646 501.619 106.802 501.464 106.995 501.37V501.444Z" fill="white"/>
    <path d="M105.259 497.873L108.334 497.104C108.577 497.044 108.834 497.084 109.048 497.215C109.262 497.345 109.416 497.555 109.475 497.798C109.534 498.042 109.494 498.298 109.364 498.512C109.234 498.726 109.024 498.88 108.781 498.939L105.73 499.733H105.507C105.293 499.73 105.086 499.659 104.916 499.529C104.746 499.4 104.623 499.219 104.564 499.013C104.511 498.77 104.553 498.516 104.683 498.304C104.812 498.091 105.018 497.937 105.259 497.873Z" fill="white"/>
    <path d="M74.0322 364.98C74.3051 352.976 82.3907 347.172 94.3703 347.47C106.35 347.767 114.981 354.043 114.708 366.022L105.209 491.102H87.2024L74.0322 364.98Z" fill="#FBBEAA"/>
    <path d="M11.3063 490.134C11.3063 487.746 12.2548 485.456 13.9433 483.768C15.6317 482.079 17.9218 481.131 20.3096 481.131C22.6975 481.131 24.9875 482.079 26.676 483.768C28.3644 485.456 29.313 487.746 29.313 490.134V509.703H11.3063V490.134Z" fill="#FBBEAA"/>
    <path d="M28.6436 493.78C30.8758 493.78 31.2727 494.748 31.8927 496.012C32.9506 499.384 34.7469 502.476 37.1509 505.065C40.728 508.122 44.5712 510.853 48.6345 513.225V523.593H8.55347C8.55347 523.593 8.8263 515.408 9.02472 509.629C9.22314 503.85 9.76882 496.806 9.74402 496.062C9.71922 495.318 9.744 493.78 11.0833 493.78H28.6436Z" fill="#302D3B"/>
    <path d="M13.5141 510.199C13.5092 511.471 13.8818 512.715 14.5846 513.775C15.2875 514.834 16.2891 515.662 17.4624 516.152C18.6358 516.642 19.9282 516.772 21.1759 516.527C22.4237 516.282 23.5706 515.672 24.4715 514.775C25.3724 513.878 25.9867 512.733 26.2365 511.486C26.4864 510.24 26.3607 508.947 25.8752 507.771C25.3897 506.596 24.5664 505.591 23.5095 504.884C22.4525 504.177 21.2096 503.8 19.938 503.8C18.2386 503.8 16.6084 504.473 15.4044 505.673C14.2004 506.872 13.5206 508.5 13.5141 510.199Z" fill="#93929C"/>
    <path d="M19.913 506.429L18.4497 508.587L15.9446 509.306L17.5568 511.365L17.4824 513.969L19.913 513.076L22.3685 513.969L22.2941 511.365L23.9062 509.306L21.3764 508.587L19.913 506.429Z" fill="white"/>
    <path d="M48.3364 513.052C48.3364 513.052 54.041 516.053 56.1492 517.516C57.1418 518.18 57.9478 519.087 58.4905 520.151C59.0332 521.215 59.2945 522.4 59.2496 523.593H43.5991C43.5991 523.593 44.0208 515.979 48.3364 513.052Z" fill="white"/>
    <path d="M8.55347 523.593V527.884C8.55347 528.603 9.17354 529 10.2649 529H57.5882C58.6795 529 59.2996 528.603 59.2996 527.884V523.593H8.55347Z" fill="white"/>
    <path d="M43.6986 510.15C43.8334 509.936 44.0477 509.785 44.2942 509.729C44.5407 509.673 44.7993 509.717 45.0131 509.852C45.2269 509.987 45.3783 510.201 45.4342 510.448C45.49 510.694 45.4456 510.953 45.3107 511.167L43.649 513.846C43.563 513.985 43.4423 514.099 43.2988 514.177C43.1553 514.255 42.9939 514.295 42.8305 514.292C42.6541 514.292 42.4815 514.241 42.3344 514.143C42.2275 514.077 42.1348 513.991 42.0617 513.889C41.9887 513.787 41.9367 513.671 41.909 513.549C41.8813 513.426 41.8783 513.299 41.9002 513.176C41.9222 513.052 41.9686 512.934 42.0368 512.829L43.6986 510.15Z" fill="white"/>
    <path d="M40.7467 508.091C40.9102 507.901 41.1414 507.781 41.3913 507.758C41.6412 507.735 41.8903 507.81 42.086 507.967C42.2781 508.135 42.3981 508.37 42.4212 508.624C42.4443 508.878 42.3687 509.132 42.2101 509.331L40.2506 511.613C40.1647 511.721 40.0553 511.809 39.9308 511.869C39.8062 511.929 39.6697 511.96 39.5314 511.96C39.3496 511.962 39.1711 511.911 39.0175 511.814C38.8639 511.717 38.7417 511.577 38.6657 511.412C38.5897 511.247 38.563 511.063 38.589 510.883C38.615 510.703 38.6924 510.535 38.8121 510.398L40.7467 508.091Z" fill="white"/>
    <path d="M38.019 505.785C38.2163 505.658 38.4531 505.607 38.6853 505.641C38.9175 505.676 39.1292 505.793 39.281 505.973C39.4327 506.152 39.5142 506.38 39.5102 506.614C39.5061 506.849 39.4169 507.074 39.2591 507.248L37.0269 509.158C36.8538 509.305 36.6336 509.384 36.4068 509.381C36.2705 509.384 36.1352 509.357 36.0108 509.301C35.8864 509.245 35.7759 509.163 35.6875 509.059C35.599 508.971 35.5288 508.867 35.4808 508.752C35.4329 508.637 35.4082 508.514 35.4082 508.389C35.4082 508.265 35.4329 508.141 35.4808 508.026C35.5288 507.911 35.599 507.807 35.6875 507.719L38.019 505.785Z" fill="white"/>
    <path d="M33.1823 504.644L35.6625 503.106C35.8765 503.016 36.1158 503.005 36.3367 503.077C36.5576 503.148 36.7455 503.297 36.8658 503.496C36.9862 503.694 37.0311 503.93 36.9923 504.159C36.9535 504.388 36.8337 504.595 36.6546 504.743L34.1744 506.281C34.0273 506.378 33.8547 506.43 33.6783 506.429C33.513 506.427 33.3509 506.383 33.2077 506.301C33.0644 506.218 32.9446 506.1 32.8598 505.958C32.731 505.74 32.6926 505.481 32.7528 505.235C32.8131 504.989 32.9673 504.777 33.1823 504.644Z" fill="white"/>
    <path d="M31.0992 501.445L33.8771 500.279C33.9926 500.23 34.1165 500.206 34.2418 500.206C34.367 500.206 34.4909 500.231 34.6064 500.279C34.7219 500.328 34.8265 500.399 34.9142 500.488C35.0019 500.577 35.0709 500.683 35.1172 500.8C35.2098 501.031 35.21 501.288 35.1176 501.519C35.0252 501.75 34.8474 501.937 34.6212 502.04L31.8185 503.206C31.7041 503.231 31.5855 503.231 31.4712 503.206C31.2802 503.206 31.0935 503.149 30.9346 503.043C30.7757 502.937 30.6518 502.787 30.5783 502.61C30.503 502.386 30.5148 502.142 30.6113 501.926C30.7078 501.71 30.8819 501.538 31.0992 501.445Z" fill="white"/>
    <path d="M29.3625 497.873L32.4133 497.104C32.6598 497.044 32.9202 497.083 33.1383 497.212C33.3564 497.342 33.5147 497.553 33.579 497.798C33.6086 497.919 33.614 498.044 33.5951 498.167C33.5762 498.289 33.5332 498.407 33.4687 498.513C33.4042 498.619 33.3194 498.711 33.2191 498.784C33.1189 498.858 33.0051 498.91 32.8845 498.939L29.8338 499.733H29.5858C29.3623 499.716 29.1517 499.622 28.99 499.466C28.8283 499.311 28.7255 499.105 28.6991 498.882C28.6727 498.66 28.7245 498.435 28.8455 498.246C28.9665 498.058 29.1493 497.917 29.3625 497.848V497.873Z" fill="white"/>
    <path d="M21.1533 364.608C22.3717 358.978 25.7759 354.062 30.6176 350.942C35.4593 347.821 41.3422 346.75 46.9729 347.966C58.7045 350.446 65.0291 362.004 62.4993 373.736L29.3134 493.16H11.0835L21.1533 364.608Z" fill="#FBBEAA"/>
    <path d="M72.4692 364.2C72.536 361.35 73.1635 358.541 74.3158 355.933C75.4681 353.326 77.1228 350.971 79.1852 349.003C81.2477 347.035 83.6776 345.492 86.3361 344.463C88.9947 343.434 91.8299 342.939 94.6799 343.006C97.5299 343.073 100.339 343.7 102.946 344.853C105.554 346.005 107.909 347.659 109.877 349.722C111.845 351.784 113.387 354.214 114.416 356.873C115.445 359.531 115.941 362.367 115.874 365.217L121.505 493.794H72.4702L72.4692 364.2Z" fill="#93929C"/>
    <path d="M21.1562 361.546C22.5023 356.051 25.9384 351.298 30.7341 348.297C35.5298 345.296 41.3069 344.284 46.8371 345.476C52.3673 346.668 57.2145 349.97 60.3482 354.68C63.482 359.39 64.655 365.137 63.6181 370.698L50.4237 493.294C50.4237 493.294 18.8252 495.179 0 493.294L21.1562 361.546Z" fill="#93929C"/>
    <path d="M178.55 142.402L107.317 88.2827C99.0085 82.9749 93.3536 85.8024 88.9387 91.4822C86.9225 94.2313 85.9877 97.6258 86.3124 101.02C86.6372 104.413 88.1987 107.569 90.6997 109.886L161.759 162.244C164.263 164.359 167.487 165.426 170.758 165.223C174.03 165.019 177.096 163.561 179.319 161.153L179.642 160.806C180.822 159.547 181.733 158.061 182.319 156.439C182.906 154.816 183.156 153.091 183.054 151.369C182.951 149.647 182.499 147.964 181.725 146.422C180.951 144.88 179.871 143.512 178.55 142.402Z" fill="#FBBEAA"/>
    <path d="M90.6996 109.861C90.0418 109.295 89.4435 108.663 88.9138 107.976C88.4454 106.211 88.3851 104.362 88.7375 102.57C89.0899 100.778 89.8457 99.0899 90.9476 97.6334C94.6928 91.8544 102.555 87.3155 106.052 88.1836L109.525 89.9446L148.837 119.708C145.358 127.885 140.658 135.486 134.898 142.253L90.6996 109.861Z" fill="#F18380"/>
    <path d="M101.439 84.4133L163.082 125.988C162.823 128.115 169.657 84.4133 169.657 84.4133L188.993 86.9297C188.993 86.9297 188.599 131.058 185.713 154.478C184.56 163.828 176.85 167.397 167.646 165.389C163.102 164.397 158.824 162.533 155.017 159.861C138.659 148.379 92.7652 116.038 89.013 111.969C82.5395 104.95 82.5395 99.6918 86.2599 93.9128C89.9803 88.1338 97.9419 83.5452 101.439 84.4133Z" fill="#002A80"/>
    <path d="M72.4696 364.906L59.7458 231.691C59.7458 216.983 74.9002 200.961 97.2474 204.408C117.437 207.558 123.588 227.847 121.926 247.069C120.264 266.291 115.775 365.849 115.775 365.849C115.708 368.699 115.081 371.507 113.928 374.115C112.776 376.722 111.121 379.077 109.059 381.045C106.996 383.013 104.567 384.556 101.908 385.585C99.2494 386.614 96.4142 387.109 93.5642 387.042C90.7142 386.976 87.9053 386.348 85.2978 385.196C82.6903 384.043 80.3353 382.389 78.3673 380.326C76.3993 378.264 74.8568 375.834 73.8278 373.175C72.7988 370.517 72.3036 367.682 72.3704 364.832L72.4696 364.906Z" fill="#93929C"/>
    <path d="M21.1536 362.252L33.8029 229.062C36.4816 214.602 54.4634 201.779 75.7689 209.369C94.9909 216.239 97.2231 237.321 91.9649 255.899C86.7068 274.476 63.6156 371.404 63.6156 371.404C62.2695 376.899 58.8333 381.652 54.0376 384.653C49.2419 387.654 43.4649 388.666 37.9347 387.474C32.4045 386.282 27.5573 382.98 24.4235 378.27C21.2898 373.56 20.1167 367.813 21.1536 362.252Z" fill="#93929C"/>
    <path d="M91.9646 255.899C86.7312 274.476 63.6152 371.404 63.6152 371.404" stroke="#5E5D63" stroke-width="0.75" stroke-miterlimit="10"/>
    <path d="M88.244 82.3049C88.244 82.3049 99.2068 84.2147 101.34 84.7852C102.599 85.0806 103.762 85.6907 104.72 86.5583C105.679 87.4259 106.402 88.5226 106.821 89.7457C108.185 92.9949 115.204 114.275 115.849 116.582C116.285 119.123 115.876 121.737 114.684 124.023C113.667 126.801 108.408 139.45 108.408 139.45L107.615 180.201L78.0019 184.898L49.6263 180.201C49.6263 180.201 39.7053 104.404 39.2093 99.7164C38.7132 95.0287 41.0447 85.9758 46.65 84.8348C52.2554 83.6939 67.633 82.3546 67.633 82.3546L88.244 82.3049Z" fill="#FBBEAA"/>
    <path d="M109.005 163.816V178.142C89.6098 179.928 58.7045 178.663 47.0969 178.142C46.5512 174.05 45.9808 167.105 45.3855 162.492C61.1847 162.889 87.2783 164.361 109.005 163.816Z" fill="white"/>
    <path d="M6.71834 176.555L38.4905 92.9453C42.7317 84.0164 49.0068 83.4211 55.8523 85.9014C59.0185 87.1644 61.6085 89.5495 63.1274 92.6012C64.6464 95.6529 64.9879 99.1572 64.0867 102.445L31.3721 184.566C30.3805 187.69 28.217 190.309 25.3358 191.872C22.4546 193.435 19.0799 193.821 15.9201 192.949L15.4488 192.825C13.7821 192.371 12.2254 191.581 10.8737 190.505C9.52205 189.429 8.40368 188.089 7.58679 186.566C6.7699 185.044 6.27162 183.371 6.12231 181.65C5.973 179.929 6.1758 178.195 6.71834 176.555Z" fill="#FBBEAA"/>
    <path d="M19.8877 141.881L38.4896 92.9452C38.9885 91.872 39.5776 90.8432 40.2506 89.8697C42.5292 88.4431 45.1378 87.6295 47.8234 87.5078C50.5089 87.3861 53.1804 87.9605 55.5786 89.1752C58.3635 90.5304 60.6021 92.796 61.9237 95.597C63.2453 98.3981 63.5706 101.566 62.8458 104.578C62.8458 104.875 62.6722 105.446 62.5234 106.215L43.3261 154.456C34.9409 151.432 27.0442 147.195 19.8877 141.881Z" fill="#F18380"/>
    <path d="M40.2262 88.4811L6 176.5C35.0039 167.219 38.5 173.5 46.293 147.645C46.293 147.645 64.4831 104.95 65.1776 101.13C65.9024 98.1192 65.5771 94.9509 64.2555 92.1499C62.9339 89.3489 60.6953 87.0832 57.9104 85.728C50.1472 81.7596 42.4088 85.356 40.2262 88.4811Z" fill="#003399"/>
    <path d="M33.8025 228.418C34.3482 221.547 44.088 190.006 52 175C52 175 68.885 168.464 80 168.5C91.5969 168.538 107 177.5 107 177.5C112.159 189.182 118.652 217.405 120.364 222.911C121.397 226.151 121.522 229.612 120.726 232.917C119.93 236.223 118.244 239.248 115.849 241.662C109.971 248.334 94.8169 255.973 91.3197 255.973C76.2738 253.824 61.5262 249.946 47.3695 244.415C39.3831 241.067 33.2816 235.313 33.8025 228.418Z" fill="#93929C"/>
    <path d="M84.6399 163.821L26.2825 187.749C19.0593 191.124 11.5897 190.28 8.34325 181.852C7.74963 180.281 7.48135 178.606 7.55465 176.928C7.62795 175.25 8.04129 173.604 8.76967 172.091C9.49804 170.577 10.5262 169.228 11.7919 168.124C13.0575 167.02 14.5343 166.184 16.1325 165.668L80.5691 147.455C86.5345 145.227 91.2691 146.967 92.9254 151.454C94.8823 156.987 92.2177 160.728 84.6399 163.821Z" fill="#FBBEAA"/>
    <path d="M91.041 78.5021C91.041 78.5021 104.725 86.4005 106.838 87.7828C108.951 89.165 108.5 91.5 110.945 97.0635C111.645 98.6562 116.757 104.194 116.5 113C115.8 137.019 108.674 178.576 108.674 178.576C104.401 180.881 99.8575 182.646 95.1481 183.828C92.8773 184.085 91.0804 184.144 89.5402 182.643C88 181.143 83.4584 175.693 83.4584 175.693C83.4584 175.693 75.9747 180.767 72.5981 182.643C71.7934 183.205 70.8841 183.599 69.9242 183.803C68.9642 184.006 67.9732 184.015 67.0099 183.828C62.0931 182.821 42.7419 177.174 42.1297 176.818C41.5176 176.463 40.945 176.088 41.0042 175.416C41.0635 174.745 41.4189 97.7151 41.6756 94.2398C41.7264 92.3786 42.3121 90.5714 43.3626 89.0342C44.413 87.497 45.8839 86.2948 47.5994 85.5712C51.7264 83.7348 67.2271 77.4358 67.2271 77.4358L83.3992 88.6714L91.041 78.5021Z" fill="#003399"/>
    <path d="M91.0408 76.291L83.4385 88.6719C83.4385 88.6719 90.9025 94.5957 91.3369 95.0301C91.7713 95.4645 92.6402 95.425 92.8179 94.7339C92.9956 94.0428 95.148 80.9116 95.1875 80.9116C95.2255 80.842 95.2454 80.7639 95.2454 80.6845C95.2454 80.6052 95.2255 80.5271 95.1875 80.4575C94.99 80.3192 91.0408 76.291 91.0408 76.291Z" fill="#F5F5F5"/>
    <path d="M67.148 74L83.4583 88.6714C83.4583 88.6714 74.8688 94.5952 74.4936 95.0296C74.3842 95.1227 74.2551 95.1897 74.1161 95.2256C73.9771 95.2615 73.8317 95.2653 73.691 95.2368C73.5502 95.2083 73.4178 95.1481 73.3037 95.0609C73.1896 94.9737 73.0969 94.8618 73.0324 94.7335C72.4005 93.7264 62.2905 79.5289 62.251 79.4104C62.2091 79.3421 62.1869 79.2635 62.1869 79.1834C62.1869 79.1032 62.2091 79.0246 62.251 78.9563C62.4682 78.8378 67.148 74 67.148 74Z" fill="#F5F5F5"/>
    <g filter="url(#filter0_d_1_1976)">
        <rect x="59.9263" y="123.357" width="40.9288" height="58.3236" rx="1" transform="rotate(-6.55484 59.9263 123.357)" fill="#EFEFEF"/>
    </g>
    <path d="M79.1433 149.497C81.9897 148.294 84.5635 146.512 86.7012 144.263C88.0243 142.874 89.5248 141.669 91.1625 140.679C92.1232 140.079 92.9522 139.286 93.5976 138.352C94.4502 136.902 95.1559 135.371 95.7037 133.783C95.9067 132.415 96.372 131.096 97.0737 129.902C97.7409 129.29 100.096 129.617 101.318 131.993C101.739 133.051 101.93 134.19 101.878 135.334C101.826 136.478 101.531 137.601 101.015 138.627C100.406 139.857 99.9299 141.148 99.5933 142.477L99.8154 142.61C101.678 141.621 103.668 140.904 105.726 140.48C106.472 140.313 107.25 140.404 107.933 140.736C108.616 141.069 109.165 141.625 109.492 142.314C109.819 143.004 109.904 143.787 109.734 144.537C109.565 145.287 109.149 145.961 108.556 146.45C111.767 146.819 111.402 151.771 108.646 152.426C109.236 152.673 109.734 153.099 110.073 153.644C110.412 154.189 110.575 154.827 110.54 155.473C110.506 156.119 110.275 156.741 109.879 157.255C109.484 157.768 108.942 158.15 108.328 158.346C110.286 160.151 108.855 163.126 105.3 163.139C102.411 163.433 94.6864 164.642 91.9987 165.221C89.3111 165.799 83.9089 164.52 82.1736 165.057C79.5905 166.003 76.5903 166.019 74.3018 159.222C72.0134 152.425 76.4851 150.375 79.1433 149.497Z" fill="#FBBEAA"/>
    <path d="M78 170L25.0001 192.5C17.7763 195.873 9.24501 192.929 6.00005 184.5C5.4067 182.929 5.36657 180.36 5.44015 178.682C5.51374 177.004 5.92737 175.358 6.656 173.845C7.38464 172.332 8.73402 169.604 9.99986 168.5C11.2657 167.396 15.7765 165.359 17.3748 164.843L77 148.5L78 170Z" fill="#003399"/>
    <path d="M182.301 69.0761L182.625 68.7405L183.098 69.1971L183.444 68.8389L182.971 68.3822L183.296 68.0466L184.587 69.2942L184.263 69.6299L183.752 69.1358L183.406 69.494L183.917 69.9881L183.593 70.3238L182.301 69.0762L182.301 69.0761ZM184.452 66.8486L185.744 68.0962L185.431 68.4206L184.445 67.4687L184.24 67.6812L184.611 68.0393C184.778 68.2002 184.971 68.4087 185 68.609C185.041 68.8219 184.917 69.0276 184.695 69.1801L184.375 68.8708C184.586 68.7295 184.552 68.6096 184.297 68.3626L183.618 67.7076L184.45 66.8463L184.452 66.8486ZM184.723 66.5684L185.047 66.2327L185.998 66.7839L185.414 65.8529L185.738 65.5172L187.182 66.6078L186.879 66.9209L186.113 66.3314L186.63 67.1785L186.414 67.4023L185.551 66.9135L186.167 67.6589L185.864 67.972L184.723 66.5684L184.723 66.5684ZM186.009 65.237L186.333 64.9013L186.857 65.4078L186.646 64.5769L187.003 64.2074L187.232 65.2499L188.306 65.4436L187.917 65.8461L187.101 65.6413L187.626 66.1479L187.302 66.4836L186.01 65.236L186.009 65.237L186.009 65.237ZM183.232 65.3464C181.287 67.3605 180.832 69.4963 182.059 70.6816C183.275 71.8555 185.404 71.3388 187.35 69.3238C189.306 67.2985 189.737 65.1615 188.523 63.9887C187.295 62.8034 185.188 63.3201 183.232 65.3464ZM187.159 69.1391C185.332 71.031 183.357 71.566 182.244 70.4906C181.118 69.4039 181.597 67.422 183.423 65.5311C185.26 63.629 187.213 63.0908 188.339 64.1786C189.453 65.254 188.997 67.2359 187.159 69.1391ZM183.602 65.7045C181.885 67.4834 181.417 69.3251 182.427 70.3007C183.437 71.2763 185.262 70.7447 186.98 68.9657C188.697 67.1868 189.165 65.3452 188.155 64.3695C187.146 63.3929 185.321 63.9245 183.602 65.7045ZM186.942 68.9295C185.245 70.6868 183.446 71.2187 182.461 70.2679C181.477 69.3172 181.946 67.4994 183.642 65.7431C185.338 63.9867 187.139 63.4538 188.123 64.4045C189.109 65.3542 188.639 67.1721 186.942 68.9295L186.942 68.9295Z" fill="white"/>
    <defs>
        <filter id="filter0_d_1_1976" x="60.0338" y="118.792" width="49.1041" height="62.3995" filterUnits="userSpaceOnUse" color-interpolation-filters="sRGB">
            <feFlood flood-opacity="0" result="BackgroundImageFix"/>
            <feColorMatrix in="SourceAlpha" type="matrix" values="0 0 0 0 0 0 0 0 0 0 0 0 0 0 0 0 0 0 127 0" result="hardAlpha"/>
            <feOffset dx="2"/>
            <feComposite in2="hardAlpha" operator="out"/>
            <feColorMatrix type="matrix" values="0 0 0 0 0.603922 0 0 0 0 0.6 0 0 0 0 0.631373 0 0 0 1 0"/>
            <feBlend mode="normal" in2="BackgroundImageFix" result="effect1_dropShadow_1_1976"/>
            <feBlend mode="normal" in="SourceGraphic" in2="effect1_dropShadow_1_1976" result="shape"/>
        </filter>
    </defs>
</svg>
