<svg width="211" height="514" viewBox="0 0 211 514" fill="none" xmlns="http://www.w3.org/2000/svg">
<path d="M103.8 67.5776H73.877V102.77H103.8V67.5776Z" fill="#FBBEAA"/>
<path d="M73.9034 67.5776H103.727V87.2118C102.425 87.3736 101.113 87.4566 99.8005 87.4603C89.5113 87.4603 78.0042 84.6519 73.804 74.8348L73.9034 67.5776Z" fill="#F18380"/>
<path d="M119.261 41.457C119.038 51.622 119.261 59.6497 117.447 67.4039C115.633 75.1582 109.991 81.4958 97.5643 81.4958C85.1376 81.4958 70.9712 77.4447 69.9771 61.9113C67.9391 59.6994 64.6336 51.8209 64.5093 42.9979C64.385 34.175 65.0561 15.5101 85.1873 12.652C105.319 9.79384 119.833 17.1753 119.261 41.457Z" fill="#FBBEAA"/>
<path d="M108.771 49.4596C108.771 50.8265 109.591 51.9449 110.61 51.9449C111.629 51.9449 112.449 50.8265 112.449 49.4596C112.449 48.0926 111.629 46.9742 110.61 46.9742C109.591 46.9742 108.771 47.9932 108.771 49.4596Z" fill="#403D4F"/>
<path d="M86.405 49.4596C86.405 50.8265 87.2252 51.9449 88.2442 51.9449C89.2632 51.9449 90.0834 50.8265 90.0834 49.4596C90.0834 48.0926 89.2383 46.9742 88.2442 46.9742C87.2501 46.9742 86.405 47.9932 86.405 49.4596Z" fill="#403D4F"/>
<path d="M91.0002 41.6557C90.8014 41.8793 89.509 41.6557 88.5149 41.6557C87.5208 41.6557 85.6071 41.6557 85.6071 41.432C85.6071 41.2083 86.5515 39.6674 89.0368 39.9408C90.7269 40.1396 91.2239 41.258 91.0002 41.6557Z" fill="#403D4F"/>
<path d="M108.398 41.6557C108.547 41.8793 109.665 41.6557 110.535 41.6557C111.405 41.6557 113.02 41.6557 113.02 41.432C113.02 41.2083 112.225 39.6674 110.113 39.9408C108.398 40.1396 108.075 41.258 108.398 41.6557Z" fill="#403D4F"/>
<path d="M100.944 59.7487C102.683 59.7487 104.075 58.6055 104.125 57.7853L103.553 50.7767C103.534 50.603 103.448 50.4435 103.314 50.3321C103.179 50.2207 103.007 50.1662 102.832 50.1802C102.747 50.1865 102.665 50.2095 102.589 50.2479C102.513 50.2863 102.445 50.3394 102.389 50.4041C102.334 50.4688 102.292 50.5437 102.266 50.6248C102.239 50.7058 102.229 50.7912 102.236 50.8761L102.783 57.6362C102.532 57.9086 102.223 58.1214 101.879 58.259C101.535 58.3966 101.164 58.4555 100.794 58.4315C100.708 58.4247 100.62 58.4356 100.538 58.4635C100.455 58.4914 100.379 58.5357 100.314 58.5937C100.249 58.6518 100.196 58.7224 100.159 58.8013C100.122 58.8802 100.102 58.9657 100.099 59.0528C100.095 59.141 100.109 59.2289 100.14 59.3116C100.171 59.3943 100.217 59.4701 100.277 59.5347C100.337 59.5994 100.41 59.6515 100.49 59.6883C100.57 59.725 100.657 59.7455 100.745 59.7487H100.944Z" fill="#F18380"/>
<path d="M99.5252 64.7189C101.613 64.8432 105.117 66.0113 105.142 66.9308C105.109 68.6382 104.405 70.2639 103.181 71.455C101.957 72.6462 100.313 73.3067 98.6056 73.2933C90.9508 73.2933 90.9756 67.3782 91.2987 66.0858C91.6218 64.7935 95.6481 64.4704 99.5252 64.7189Z" fill="#73102A"/>
<path d="M91.2762 68.149C93.3465 67.3991 95.605 67.3453 97.7088 67.9957C99.8125 68.6461 101.647 69.9652 102.932 71.7528C101.744 72.8063 100.194 73.3586 98.6079 73.2937C93.1899 73.2937 91.6241 70.361 91.2762 68.149Z" fill="#D65155"/>
<path d="M91.5997 65.639C92.6684 64.7194 96.1727 64.4957 99.5279 64.7194C101.591 64.8437 105.07 65.9869 105.145 66.9313C100.591 67.5769 95.9492 67.134 91.5997 65.639Z" fill="white"/>
<path d="M82.5015 32.4597C82.5015 38.5736 80.0161 41.2329 78.1521 42.401C76.2881 43.5691 74.9212 44.7372 74.9212 46.8498V54.3058C74.9212 55.1508 74.4241 55.797 73.778 55.5733C73.1318 55.3496 70.721 54.1318 70.721 52.914L63.265 47.6451C61.3256 43.0514 60.6064 38.0345 61.1773 33.081C61.3992 30.3036 62.2179 27.6067 63.5776 25.1747C64.9373 22.7427 66.8059 20.6328 69.0558 18.9892C69.0558 13.6954 74.0265 4.27598 84.4897 0.547974C84.7457 2.46145 84.7457 4.40048 84.4897 6.31395C89.2367 2.01432 105.217 0.697095 110.959 2.68536C110.116 4.56849 108.898 6.2599 107.38 7.65603C115.222 9.46709 122.2 13.926 127.138 20.2815C125.565 22.333 123.574 24.0273 121.298 25.2522C123.909 28.8449 125.459 33.099 125.771 37.5298C121.053 37.0929 116.427 35.945 112.052 34.1249C112.296 36.3091 112.17 38.519 111.679 40.6613C106.709 40.363 97.3141 35.293 94.6548 31.217C95.0709 34.5367 94.8857 37.9043 94.108 41.1584C89.4875 39.4272 85.4598 36.4086 82.5015 32.4597Z" fill="#403D4F"/>
<path d="M70.4961 54.1816C70.4961 51.3483 69.9245 47.173 65.9231 47.0735C61.9217 46.9741 61.375 50.0062 61.4992 54.7781C61.6235 59.5499 66.4699 63.601 70.7198 61.9607L70.4961 54.1816Z" fill="#FBBEAA"/>
<path d="M64.6062 57.6113C64.7776 57.5752 64.9291 57.4759 65.0304 57.3331C65.1318 57.1903 65.1755 57.0145 65.153 56.8409C65.1536 56.7037 65.1908 56.5693 65.2607 56.4513C65.3306 56.3333 65.4307 56.2362 65.5507 56.1698C65.8093 56.0009 66.1116 55.9109 66.4206 55.9109C66.7295 55.9109 67.0318 56.0009 67.2904 56.1698C67.3962 56.2309 67.5162 56.2631 67.6384 56.2631C67.7605 56.2631 67.8805 56.2309 67.9863 56.1698C68.0942 56.1083 68.182 56.0169 68.2393 55.9067C68.2966 55.7965 68.321 55.6722 68.3094 55.5485C67.9366 51.5471 65.4016 50.8015 65.3022 50.7766C65.2173 50.7505 65.1279 50.7421 65.0397 50.7519C64.9514 50.7618 64.8662 50.7898 64.7892 50.8341C64.7122 50.8784 64.6452 50.9381 64.5924 51.0095C64.5395 51.0808 64.502 51.1623 64.482 51.2489C64.4361 51.4136 64.4574 51.5899 64.5413 51.739C64.6252 51.8881 64.7647 51.9978 64.9294 52.0442C65.4233 52.2726 65.8537 52.6185 66.183 53.0518C66.5123 53.4851 66.7304 53.9924 66.8182 54.5295C66.1371 54.4185 65.439 54.5599 64.8548 54.9272C64.5099 55.1219 64.231 55.4151 64.0539 55.7694C63.8768 56.1236 63.8095 56.5227 63.8607 56.9154C63.8519 57.0134 63.8655 57.1121 63.9007 57.204C63.9358 57.2959 63.9914 57.3785 64.0633 57.4456C64.1353 57.5127 64.2216 57.5626 64.3156 57.5913C64.4097 57.62 64.5091 57.6268 64.6062 57.6113Z" fill="#F18380"/>
<path d="M42.8367 104.158C36.7034 112.044 1.63281 208.375 1.63281 208.375C34.4903 197.861 30.9916 169.495 48.8619 172.501C48.8619 172.501 69.4688 124.134 70.2555 119.807C71.0766 116.396 70.7081 112.807 69.211 109.634C67.7138 106.46 65.1778 103.894 62.0229 102.358C53.2282 97.8628 48.9701 96.2718 42.8367 104.158Z" fill="#90A2B7"/>
<path d="M183.15 96.6737C183.275 93.9443 182.545 91.2441 181.06 88.9501C178.775 86.3006 177.063 83.2068 176.032 79.8634C175.239 76.7598 173.972 73.797 172.276 71.0795C171.065 69.4136 169.248 68.0506 169.248 66.7785C169.248 65.5064 171.671 63.0529 175.124 63.7496C176.603 64.2103 177.962 64.9923 179.103 66.0396C180.245 67.0868 181.141 68.3735 181.727 69.8074C182.058 68.9337 182.252 68.0143 182.302 67.0814L183.059 48.5142C183.071 48.0329 183.179 47.5587 183.376 47.1198C183.574 46.6808 183.858 46.2859 184.211 45.9584C184.564 45.6309 184.979 45.3774 185.431 45.2129C185.884 45.0484 186.365 44.9763 186.845 45.0007C187.611 45.0333 188.347 45.3051 188.95 45.7778C189.553 46.2505 189.993 46.9003 190.208 47.6358V46.7877C190.324 45.8851 190.778 45.06 191.477 44.4781C192.177 43.8961 193.071 43.6003 193.98 43.6501C194.888 43.7 195.745 44.0918 196.377 44.7468C197.008 45.4018 197.369 46.2716 197.386 47.1815V49.7561C197.689 48.9623 198.268 48.304 199.016 47.9011C199.764 47.4982 200.632 47.3776 201.462 47.5611C202.292 47.7447 203.028 48.2202 203.536 48.9011C204.044 49.582 204.291 50.4229 204.231 51.2705V52.9061C204.557 52.3332 205.043 51.8677 205.63 51.5664C206.216 51.2652 206.877 51.1413 207.533 51.2099C208.431 51.3239 209.249 51.7828 209.814 52.4895C210.38 53.1962 210.648 54.0951 210.562 54.996L209.078 70.6555C208.105 79.4841 206.28 88.1976 203.626 96.6737C203.594 98.089 203.266 99.4818 202.663 100.763C202.061 102.044 201.197 103.184 200.127 104.112C199.057 105.039 197.805 105.732 196.452 106.146C195.098 106.56 193.673 106.687 192.267 106.518C190.995 106.56 189.729 106.329 188.555 105.839C187.38 105.349 186.325 104.612 185.46 103.678C184.595 102.745 183.942 101.636 183.543 100.427C183.145 99.2188 183.011 97.9386 183.15 96.6737Z" fill="#FBBEAA"/>
<path d="M183.756 72.4429C182.605 72.4429 182.514 71.716 181.999 70.3833C184.574 70.3833 192.055 70.8679 195.326 77.168C192.025 72.6246 185.694 72.4429 183.756 72.4429ZM189.632 48.4843C189.632 48.4843 189.45 49.5444 189.269 51.0892C189.269 51.8767 189.087 52.8156 189.026 53.7849C188.966 54.7541 188.875 55.8142 188.784 56.8138C188.784 58.934 188.633 61.0239 188.633 62.599C188.633 64.174 188.633 65.2341 188.633 65.2341C188.632 65.2845 188.643 65.3344 188.663 65.3806C188.683 65.4268 188.712 65.4683 188.749 65.5024C188.786 65.5366 188.83 65.5628 188.878 65.5792C188.926 65.5955 188.976 65.6018 189.026 65.5976C189.111 65.5933 189.193 65.5614 189.259 65.5068C189.324 65.4522 189.37 65.3778 189.39 65.2947C189.39 65.2947 189.571 64.2346 189.723 62.6595C189.874 61.0845 190.117 58.9946 190.208 56.9046C190.208 55.8445 190.208 54.7844 190.208 53.8757C190.208 52.9671 190.208 51.9676 190.208 51.1801C190.208 49.5747 190.208 48.5448 190.208 48.5448C190.208 48.4944 190.197 48.4446 190.177 48.3984C190.157 48.3522 190.128 48.3107 190.091 48.2765C190.054 48.2423 190.01 48.2162 189.962 48.1999C189.915 48.1835 189.864 48.1772 189.814 48.1814C189.756 48.2148 189.708 48.2636 189.676 48.3224C189.644 48.3812 189.629 48.4477 189.632 48.5146V48.4843ZM196.659 50.6046C196.659 50.6046 196.477 51.5132 196.265 52.8459C196.265 53.5426 196.053 54.33 195.962 55.1781C195.872 56.0262 195.781 56.9349 195.69 57.8436C195.69 59.6609 195.478 61.4782 195.448 62.8412C195.417 64.2043 195.448 65.1432 195.448 65.1432C195.451 65.191 195.465 65.2376 195.486 65.2802C195.508 65.3229 195.538 65.3608 195.575 65.3918C195.612 65.4228 195.654 65.4462 195.7 65.4608C195.745 65.4753 195.793 65.4806 195.841 65.4765C195.923 65.4708 196 65.4378 196.06 65.3828C196.121 65.3279 196.161 65.2541 196.174 65.1736C196.174 65.1736 196.356 64.2648 196.568 62.9321C196.78 61.5994 196.962 59.7518 197.113 57.9648C197.113 57.0561 197.113 56.1474 197.295 55.2993C197.477 54.4512 197.295 53.6334 197.295 52.9368C197.295 51.5738 197.295 50.6651 197.295 50.6651C197.295 50.6147 197.285 50.5649 197.265 50.5187C197.245 50.4725 197.215 50.4309 197.178 50.3968C197.141 50.3626 197.097 50.3365 197.05 50.3201C197.002 50.3038 196.952 50.2974 196.901 50.3016C196.834 50.3294 196.776 50.3752 196.733 50.434C196.69 50.4928 196.665 50.5623 196.659 50.6348V50.6046ZM203.444 53.482C203.444 53.482 203.262 54.2392 203.02 55.3902C203.02 55.9354 202.777 56.6018 202.687 57.3287C202.596 58.0557 202.475 58.8129 202.353 59.5701C202.141 61.1148 202.05 62.599 201.99 63.8105C201.929 65.0221 201.99 65.7491 201.99 65.7491C201.99 65.7995 202 65.8493 202.02 65.8955C202.04 65.9417 202.07 65.9832 202.107 66.0174C202.144 66.0516 202.188 66.0777 202.235 66.094C202.283 66.1104 202.333 66.1167 202.384 66.1125C202.461 66.1085 202.535 66.0798 202.595 66.0308C202.655 65.9818 202.698 65.9149 202.717 65.8399C202.717 65.8399 202.929 65.0827 203.141 63.962C203.353 62.8413 203.656 61.2663 203.838 59.7518C203.838 58.9643 203.989 58.2071 204.05 57.4801C204.11 56.7532 204.05 56.0869 204.05 55.5114C204.05 54.3604 204.05 53.5728 204.05 53.5728C204.05 53.5224 204.039 53.4726 204.019 53.4264C203.999 53.3802 203.97 53.3387 203.933 53.3045C203.896 53.2703 203.852 53.2442 203.804 53.2279C203.757 53.2115 203.706 53.2052 203.656 53.2094C203.6 53.2406 203.552 53.284 203.515 53.3365C203.478 53.3889 203.454 53.4491 203.444 53.5123V53.482Z" fill="#F18380"/>
<path d="M109.87 94.3806L175.883 138.903C175.606 141.18 180.955 94.3806 180.955 94.3806L205.389 96.6613C205.389 96.6613 203.962 144.309 200.366 169.473C198.939 179.46 190.627 183.247 180.77 181.096C175.904 180.035 171.323 178.038 167.246 175.176C149.728 162.88 100.581 128.247 96.5631 123.89C89.6307 116.373 89.6307 110.742 93.6148 104.553C97.5989 98.3648 106.125 93.451 109.87 94.3806Z" fill="#90A2B7"/>
<path d="M109.87 94.3806L175.883 138.903C175.606 141.18 180.955 94.3806 180.955 94.3806L205.389 96.6613C205.389 96.6613 203.962 144.309 200.366 169.473C198.939 179.46 190.627 183.247 180.77 181.096C175.904 180.035 171.323 178.038 167.246 175.176C149.728 162.88 100.581 128.247 96.5631 123.89C89.6307 116.373 89.6307 110.742 93.6148 104.553C97.5989 98.3648 106.125 93.451 109.87 94.3806Z" fill="#90A2B7"/>
<path d="M71.9067 327.499C71.8279 333.882 74.2878 340.035 78.7453 344.603C83.2029 349.172 89.2929 351.784 95.6755 351.862C102.058 351.941 108.211 349.481 112.78 345.024C117.349 340.566 119.96 334.476 120.039 328.094C120.039 328.094 123.084 239.258 124.124 221.258C125.164 203.258 120.459 188.823 100.206 186.744C79.2107 184.59 68.0195 201.005 68.0195 216.257C68.0195 231.508 71.9067 327.499 71.9067 327.499Z" fill="#93929C"/>
<path d="M32.4159 325.791C32.0033 328.946 32.2202 332.151 33.0542 335.221C33.8882 338.291 35.3227 341.166 37.2747 343.678C39.2267 346.19 41.6575 348.291 44.4264 349.857C47.1954 351.424 50.2475 352.427 53.4063 352.806C56.5651 353.186 59.7678 352.936 62.8292 352.07C65.8906 351.204 68.7499 349.739 71.2417 347.761C73.7335 345.783 75.8083 343.33 77.3462 340.545C78.8841 337.76 79.8544 334.698 80.2011 331.535C80.2011 331.535 92.7292 243.541 95.7003 225.764C98.6714 207.987 95.527 193.107 75.6207 188.873C54.9715 184.491 42.072 199.618 40.5122 214.771C38.9524 229.924 32.4159 325.791 32.4159 325.791Z" fill="#93929C"/>
<path d="M111.423 432.181C111.423 432.181 110.234 482.665 109.937 490.216C109.64 497.768 104.861 499.823 97.1613 500.491C89.4612 501.16 86.2178 495.044 85.1284 490.191C84.039 485.339 77.4531 435.845 77.4531 435.845L111.423 432.181Z" fill="#FBBEAA"/>
<path d="M110.556 467.388L82.1573 470.434C79.9537 454.811 77.4531 435.771 77.4531 435.771L111.423 432.107C111.423 432.107 110.977 451.022 110.556 467.388Z" fill="#F18380"/>
<path d="M71.9062 327.5C71.9453 324.339 72.6063 321.217 73.8518 318.312C75.0973 315.408 76.9027 312.776 79.165 310.569C81.4274 308.362 84.1023 306.622 87.037 305.449C89.9717 304.276 93.1089 303.692 96.2692 303.731C99.4296 303.77 102.551 304.431 105.456 305.676C108.361 306.922 110.992 308.727 113.199 310.99C115.406 313.252 117.146 315.927 118.32 318.862C119.493 321.796 120.077 324.933 120.038 328.094L115.086 468.806L76.2391 472.991L71.9062 327.5Z" fill="#93929C"/>
<path d="M60.5917 434.112C60.5917 434.112 54.0057 484.175 52.9163 491.628C51.8269 499.08 46.8504 500.665 39.1008 500.491C31.3512 500.318 28.8009 493.905 28.2315 488.978C27.662 484.051 26.4241 434.112 26.4241 434.112H60.5917Z" fill="#FBBEAA"/>
<path d="M55.8378 469.022H27.2658C26.7706 453.276 26.3002 434.112 26.3002 434.112H60.5916C60.5916 434.112 58.1157 452.78 55.8378 469.022Z" fill="#F18380"/>
<path d="M32.4152 325.791C33.2375 319.505 36.5065 313.798 41.5123 309.909C46.5181 306.019 52.8562 304.262 59.1501 305.019C65.4439 305.775 71.185 308.984 75.1264 313.949C79.0678 318.914 80.8912 325.234 80.2004 331.535L58.6604 473.758H19.5905L32.4152 325.791Z" fill="#93929C"/>
<path d="M80.1762 331.535L57.9673 472.52" stroke="#565656" stroke-width="0.75" stroke-miterlimit="10" stroke-linecap="round"/>
<path d="M80.2008 331.535C80.2008 331.535 92.7289 243.541 95.7 225.764" stroke="#565656" stroke-width="0.75" stroke-miterlimit="10" stroke-linecap="round"/>
<path d="M41.7007 474.89C44.5089 474.689 47.2933 475.526 49.5253 477.242C51.7572 478.958 53.2812 481.434 53.8079 484.2L66.7322 497.446V505.691H25.3102C25.3102 505.691 27.39 490.835 27.9842 487.493C28.5784 484.15 30.5839 474.89 41.7007 474.89Z" fill="#FBBEAA"/>
<path d="M53.7828 484.101C54.2532 483.457 54.9217 482.962 55.3921 483.259C55.8625 483.556 68.3659 493.459 68.9601 493.955C69.3261 494.298 69.6029 494.726 69.7668 495.2C69.9307 495.675 69.9768 496.182 69.901 496.678V507.3H24.3937C24.3937 507.3 26.1763 491.603 26.3001 490.736C26.4239 489.869 27.2905 488.73 27.7857 488.755C30.9091 489.712 34.1508 490.229 37.417 490.29C41.7579 490.52 46.0881 489.67 50.0194 487.814C51.477 486.801 52.7499 485.545 53.7828 484.101Z" fill="black"/>
<path d="M62.424 498.387C60.2204 496.752 52.2975 490.563 49.3264 488.235L50.0196 487.889C50.1131 487.848 50.1974 487.789 50.2672 487.715C53.4364 490.191 60.8889 496.034 63.0182 497.619C64.8181 498.998 66.0511 500.989 66.4845 503.215L65.5189 503.363C65.1104 501.39 64.0134 499.626 62.424 498.387Z" fill="white"/>
<path d="M25.6313 496.48C28.8384 496.513 31.942 497.62 34.4456 499.625C36.7085 501.63 38.2412 504.329 38.8032 507.3H37.4662C36.9194 504.726 35.5664 502.393 33.6038 500.64C31.2996 498.794 28.4349 497.79 25.4828 497.792L25.6313 496.48Z" fill="white"/>
<path d="M77.2543 507.275H24.3936C24.0244 507.275 23.7251 507.575 23.7251 507.944V513.069C23.7251 513.438 24.0244 513.738 24.3936 513.738H77.2543C77.6235 513.738 77.9229 513.438 77.9229 513.069V507.944C77.9229 507.575 77.6235 507.275 77.2543 507.275Z" fill="white"/>
<path d="M68.8363 493.856C69.3068 493.658 71.6094 494.326 74.6052 497.272C75.8526 498.562 76.7505 500.148 77.214 501.881C77.6776 503.614 77.6915 505.436 77.2545 507.176H62.2256C63.0675 497.668 68.3659 494.054 68.8363 493.856Z" fill="white"/>
<path d="M63.0676 494.005C62.882 494.232 62.7935 494.523 62.8213 494.815C62.8491 495.107 62.991 495.376 63.2161 495.565C63.3266 495.656 63.454 495.724 63.591 495.766C63.728 495.808 63.8719 495.822 64.0145 495.809C64.157 495.795 64.2955 495.753 64.4219 495.686C64.5483 495.618 64.6602 495.527 64.7512 495.416L67.2271 492.42C67.4126 492.193 67.5011 491.902 67.4733 491.61C67.4455 491.318 67.3036 491.048 67.0785 490.86C66.9695 490.766 66.8424 490.695 66.705 490.651C66.5676 490.607 66.4227 490.592 66.2791 490.606C66.1356 490.619 65.9964 490.662 65.8699 490.732C65.7435 490.801 65.6324 490.895 65.5435 491.009L63.0676 494.005Z" fill="white"/>
<path d="M60.1214 491.751C59.9358 491.978 59.8473 492.27 59.8751 492.562C59.903 492.854 60.0448 493.123 60.2699 493.311C60.379 493.406 60.5061 493.477 60.6435 493.521C60.7809 493.564 60.9258 493.58 61.0693 493.566C61.2129 493.552 61.3521 493.509 61.4786 493.44C61.605 493.37 61.7161 493.276 61.805 493.163L64.2809 490.167C64.4605 489.937 64.5452 489.647 64.5175 489.357C64.4899 489.067 64.352 488.798 64.1324 488.607C64.0233 488.512 63.8962 488.441 63.7588 488.397C63.6214 488.354 63.4765 488.338 63.333 488.352C63.1894 488.366 63.0502 488.409 62.9238 488.478C62.7973 488.548 62.6862 488.642 62.5973 488.755L60.1214 491.751Z" fill="white"/>
<path d="M57.2738 489.523C57.0868 489.743 56.9948 490.029 57.018 490.316C57.0412 490.604 57.1778 490.871 57.3976 491.058C57.6248 491.244 57.916 491.332 58.208 491.305C58.5001 491.277 58.7694 491.135 58.9574 490.91L61.4334 487.914C61.5374 487.812 61.6201 487.691 61.6766 487.557C61.733 487.423 61.7621 487.279 61.7621 487.134C61.7621 486.989 61.733 486.845 61.6766 486.711C61.6201 486.577 61.5374 486.456 61.4334 486.354C61.2037 486.174 60.914 486.09 60.6239 486.117C60.3337 486.145 60.0652 486.283 59.8736 486.503L57.2738 489.523Z" fill="white"/>
<path d="M54.4022 487.27C54.311 487.381 54.2425 487.508 54.2006 487.645C54.1587 487.782 54.1443 487.926 54.1581 488.069C54.1719 488.211 54.2136 488.35 54.281 488.476C54.3484 488.602 54.44 488.714 54.5507 488.805C54.759 489.009 55.039 489.124 55.3306 489.124C55.6223 489.124 55.9023 489.009 56.1106 488.805L58.5865 485.785C58.772 485.557 58.8605 485.266 58.8327 484.974C58.8049 484.682 58.663 484.413 58.4379 484.225C58.3274 484.134 58.2 484.065 58.063 484.023C57.9261 483.981 57.7822 483.967 57.6396 483.981C57.497 483.994 57.3585 484.036 57.2321 484.104C57.1057 484.171 56.9938 484.263 56.9028 484.373L54.4022 487.27Z" fill="white"/>
<path d="M99.8844 474.89C102.693 474.689 105.477 475.526 107.709 477.242C109.941 478.958 111.465 481.434 111.992 484.2L124.891 497.446V505.691H83.4939C83.4939 505.691 85.5489 490.835 86.1679 487.493C86.7868 484.15 88.7676 474.89 99.8844 474.89Z" fill="#FBBEAA"/>
<path d="M111.967 484.101C112.437 483.457 113.081 482.962 113.576 483.259C114.071 483.556 126.55 493.459 127.119 493.955C127.689 494.45 128.085 495.069 128.085 496.678V507.3H82.5776C82.5776 507.3 84.3603 491.603 84.4841 490.736C84.6079 489.869 85.4744 488.73 85.9696 488.755C89.0931 489.712 92.3348 490.229 95.601 490.29C99.9342 490.525 104.257 489.674 108.179 487.814C109.648 486.806 110.929 485.549 111.967 484.101Z" fill="black"/>
<path d="M120.608 498.387C118.404 496.752 110.481 490.563 107.51 488.235L108.179 487.889C108.28 487.849 108.372 487.79 108.451 487.715C111.62 490.191 119.073 496.034 121.202 497.619C123.002 498.998 124.235 500.989 124.668 503.215L123.703 503.363C123.282 501.394 122.188 499.634 120.608 498.387Z" fill="white"/>
<path d="M83.8155 496.48C87.0226 496.513 90.1262 497.62 92.6298 499.625C94.8927 501.63 96.4255 504.329 96.9874 507.3H95.6504C95.0968 504.723 93.735 502.389 91.7632 500.64C89.4705 498.791 86.6123 497.786 83.667 497.792L83.8155 496.48Z" fill="white"/>
<path d="M135.438 507.275H82.5776C82.2084 507.275 81.9091 507.575 81.9091 507.944V513.069C81.9091 513.438 82.2084 513.738 82.5776 513.738H135.438C135.808 513.738 136.107 513.438 136.107 513.069V507.944C136.107 507.575 135.808 507.275 135.438 507.275Z" fill="white"/>
<path d="M127.02 493.856C127.491 493.658 129.794 494.326 132.789 497.272C134.037 498.562 134.935 500.148 135.398 501.881C135.862 503.614 135.876 505.436 135.439 507.176H120.41C121.252 497.668 126.55 494.054 127.02 493.856Z" fill="white"/>
<path d="M121.152 494.005C120.967 494.232 120.878 494.523 120.906 494.815C120.934 495.107 121.076 495.376 121.301 495.565C121.411 495.656 121.539 495.724 121.676 495.766C121.813 495.808 121.957 495.822 122.099 495.809C122.242 495.795 122.38 495.753 122.507 495.686C122.633 495.618 122.745 495.527 122.836 495.416L125.312 492.42C125.492 492.191 125.576 491.901 125.549 491.611C125.521 491.32 125.383 491.052 125.163 490.86C125.054 490.766 124.927 490.695 124.79 490.651C124.652 490.607 124.508 490.592 124.364 490.606C124.22 490.619 124.081 490.662 123.955 490.732C123.828 490.801 123.717 490.895 123.628 491.009L121.152 494.005Z" fill="white"/>
<path d="M118.305 491.751C118.12 491.978 118.031 492.27 118.059 492.562C118.087 492.854 118.229 493.123 118.454 493.311C118.563 493.405 118.69 493.477 118.827 493.52C118.965 493.564 119.11 493.58 119.253 493.566C119.397 493.552 119.536 493.509 119.663 493.44C119.789 493.37 119.9 493.276 119.989 493.162L122.465 490.167C122.644 489.937 122.729 489.647 122.701 489.357C122.674 489.067 122.536 488.798 122.316 488.607C122.089 488.421 121.798 488.333 121.506 488.36C121.214 488.388 120.945 488.53 120.756 488.755L118.305 491.751Z" fill="white"/>
<path d="M115.458 489.523C115.354 489.622 115.272 489.741 115.216 489.873C115.16 490.005 115.131 490.147 115.131 490.29C115.131 490.434 115.16 490.576 115.216 490.707C115.272 490.839 115.354 490.959 115.458 491.058C115.685 491.243 115.976 491.332 116.268 491.304C116.56 491.276 116.829 491.134 117.018 490.909L119.493 487.913C119.679 487.686 119.768 487.395 119.74 487.103C119.712 486.811 119.57 486.542 119.345 486.354C119.234 486.262 119.107 486.194 118.97 486.152C118.833 486.11 118.689 486.096 118.547 486.11C118.404 486.123 118.266 486.165 118.139 486.233C118.013 486.3 117.901 486.392 117.81 486.502L115.458 489.523Z" fill="white"/>
<path d="M112.586 487.27C112.495 487.381 112.426 487.508 112.385 487.645C112.343 487.782 112.328 487.926 112.342 488.069C112.356 488.211 112.398 488.35 112.465 488.476C112.532 488.602 112.624 488.714 112.735 488.805C112.943 489.009 113.223 489.124 113.515 489.124C113.806 489.124 114.086 489.009 114.295 488.805L116.77 485.785C116.956 485.557 117.045 485.266 117.017 484.974C116.989 484.682 116.847 484.413 116.622 484.225C116.511 484.134 116.384 484.065 116.247 484.023C116.11 483.981 115.966 483.967 115.824 483.981C115.681 483.994 115.542 484.036 115.416 484.104C115.29 484.171 115.178 484.263 115.087 484.373L112.586 487.27Z" fill="white"/>
<path d="M123.395 202.002C123.395 202.002 123.395 227.677 123.395 229.088C123.395 230.5 111.016 242.607 94.5758 242.607C69.2967 242.607 39.0411 233.372 39.4867 227.355C39.7838 223.394 40.1552 202.002 40.1552 202.002H123.395Z" fill="#93929C"/>
<path d="M105.01 93.7053C91.1445 105.59 77.3619 98.6571 72.8227 92.4673L53.0154 101.133L57.9672 192.742L123.579 195.218L121.103 107.323L105.01 93.7053Z" fill="white"/>
<path d="M123.476 101.603C120.826 99.8702 103.668 89.9665 103.668 89.9665V220.546C105.57 222.399 105.959 222.355 108.691 222.046L108.818 222.032C114.723 220.549 120.42 218.337 125.778 215.446C125.778 215.446 128.056 120.47 128.626 113.24C129.195 106.01 126.125 103.336 123.476 101.603Z" fill="#023783"/>
<path d="M77.1907 222C78.3943 221.745 79.5345 221.251 80.5434 220.546L73.8089 88.6295C73.8089 88.6295 54.373 96.5277 49.1983 98.8303C47.0473 99.7376 45.203 101.245 43.8858 103.172C42.5686 105.1 41.8343 107.366 41.7706 109.7C41.4487 114.057 41.003 210.643 40.9288 211.484C40.8545 212.326 41.5725 212.797 42.34 213.242C43.1075 213.688 67.3715 220.769 73.5365 222.032C74.7444 222.266 75.987 222.255 77.1907 222Z" fill="#023783"/>
<path d="M60.4768 149.703C65.4502 144.673 74.7506 133.828 77.8975 131.186C81.0092 128.842 84.4087 126.906 88.0128 125.426C90.7472 124.51 93.574 123.898 96.4422 123.6C98.4372 123.347 99.252 123.937 99.252 125.145C99.2018 125.865 98.9725 126.561 98.5848 127.169C98.1971 127.778 97.6634 128.28 97.0322 128.63H100.713C101.977 128.63 102.792 129.641 102.202 131.271C101.666 132.347 100.9 133.293 99.9583 134.041C99.0163 134.789 97.9214 135.32 96.7512 135.598C96.7512 135.598 101.725 136.075 102.989 136.328C104.253 136.581 104.647 137.059 104.647 138.267C104.636 139.102 104.404 139.918 103.974 140.634C103.545 141.35 102.934 141.939 102.202 142.341C100.412 143.068 98.5122 143.486 96.5827 143.578C96.5827 143.578 102.736 145.123 103.972 145.573C105.209 146.022 105.349 146.837 104.703 147.905C104.335 148.657 103.803 149.317 103.147 149.837C102.49 150.357 101.726 150.724 100.91 150.911C98.5776 151.529 97.0041 150.518 96.1612 150.658C94.3501 151.242 92.5766 151.936 90.8507 152.738C88.259 155.318 85.0902 157.244 81.6065 158.357C79.0133 159.445 76.6347 160.987 74.582 162.909C73.6259 163.806 72.4994 164.503 71.2694 164.957C70.0394 165.411 68.7308 165.614 67.421 165.554C66.1111 165.494 64.8266 165.172 63.6435 164.606C62.4604 164.041 61.4028 163.244 60.533 162.263C56.0374 157.486 56.796 153.496 60.4768 149.703Z" fill="#FBBEAA"/>
<path d="M77.0081 166.806L31.7756 217.67C26.3551 224.894 13.6888 228.864 5.9499 222.171C4.51878 220.918 3.35725 219.386 2.53578 217.67C1.7143 215.954 1.24999 214.088 1.17102 212.187C1.09205 210.286 1.40006 208.389 2.07637 206.611C2.75267 204.832 3.78318 203.21 5.10538 201.841L59.9222 144.463L77.0081 166.806Z" fill="#90A2B7"/>
<path d="M96.4147 128.658C96.4227 128.704 96.4208 128.752 96.4092 128.797C96.3977 128.843 96.3767 128.886 96.3476 128.923C96.3184 128.96 96.2818 128.991 96.2401 129.013C96.1985 129.035 96.1527 129.048 96.1057 129.051L93.8016 129.276H92.6777C92.2844 129.276 91.9191 129.416 91.5257 129.444C91.1101 129.569 90.706 129.729 90.3175 129.922L89.0249 130.456C87.2829 131.158 85.5408 131.805 84.2483 132.282C82.9558 132.76 82.0567 133.041 82.0567 133.041C81.9854 133.071 81.9055 133.073 81.8327 133.047C81.7599 133.021 81.6994 132.969 81.6633 132.9C81.6109 132.832 81.5825 132.748 81.5825 132.662C81.5825 132.575 81.6109 132.491 81.6633 132.423L83.7706 131.327L85.9623 130.287C86.749 129.922 87.62 129.557 88.4911 129.22L89.8117 128.714C90.2364 128.522 90.6787 128.371 91.1323 128.264L92.481 128.124H93.633H95.347H95.9933C96.0641 128.068 96.1542 128.042 96.2437 128.053C96.3333 128.063 96.4151 128.109 96.471 128.18C96.5269 128.251 96.5523 128.341 96.5418 128.43C96.5313 128.52 96.4855 128.602 96.4147 128.658ZM95.8808 135.429H95.3751C94.9545 135.392 94.5313 135.392 94.1107 135.429L93.2396 135.57C92.9186 135.61 92.5997 135.666 92.2843 135.738L90.3737 136.356C89.0812 136.778 87.8168 137.312 86.8614 137.705C86.8614 137.705 86.5523 137.705 86.5804 137.846H86.2433L85.7375 137.986H85.4285H85.2598C85.175 138.006 85.1013 138.059 85.0541 138.132C85.007 138.205 84.9901 138.294 85.007 138.379C85.0192 138.447 85.0534 138.508 85.1043 138.554C85.1551 138.6 85.2197 138.627 85.288 138.632H86.7209H87.1705C88.1539 138.379 89.4745 137.986 90.767 137.537L92.6496 136.834L93.5206 136.609L94.2792 136.385C94.6673 136.27 95.0613 136.176 95.4594 136.104L95.9371 135.963C95.9796 135.95 96.0191 135.929 96.0534 135.901C96.0877 135.873 96.1161 135.838 96.137 135.799C96.1579 135.76 96.1708 135.717 96.175 135.673C96.1793 135.629 96.1748 135.584 96.1618 135.542C96.1286 135.5 96.0853 135.468 96.0361 135.449C95.9868 135.429 95.9334 135.422 95.8808 135.429ZM95.8808 143.409H94.8412C94.5603 143.409 94.195 143.409 93.8298 143.606L92.6777 143.971C91.9528 144.226 91.2483 144.536 90.5704 144.898C90.2587 145.045 89.9581 145.214 89.6712 145.404C89.6139 145.47 89.5823 145.555 89.5823 145.643C89.5823 145.73 89.6139 145.815 89.6712 145.882C89.7519 145.967 89.8628 146.017 89.9803 146.022L91.02 145.854C91.61 145.713 92.3687 145.488 93.1273 145.235L94.2231 144.786L95.1784 144.421C95.4965 144.279 95.8061 144.12 96.1057 143.943C96.1852 143.896 96.2438 143.82 96.2699 143.732C96.296 143.643 96.2875 143.548 96.2461 143.465C96.1629 143.412 96.0625 143.392 95.9651 143.409H95.8808Z" fill="#F18380"/>
<path d="M111.067 125.168H111.799V126.114H112.58V125.168H113.311V127.754H112.58V126.73H111.799V127.754H111.067V125.168H111.067ZM115.922 125.168V127.754H115.215V125.781H114.752V126.523C114.752 126.857 114.727 127.265 114.532 127.495C114.338 127.751 113.971 127.829 113.557 127.751V127.11C113.946 127.188 114.045 127.033 114.045 126.521V125.163H115.922V125.168ZM116.532 125.168H117.264L117.678 126.704L118.091 125.168H118.823L119.165 127.754H118.483L118.313 126.37L117.921 127.754H117.434L117.045 126.37L116.875 127.754H116.192L116.532 125.168L116.532 125.168ZM119.434 125.168H120.165V126.218L120.872 125.168H121.677L120.751 126.448L121.702 127.754H120.825L120.167 126.704V127.754H119.436V125.168H119.434H119.434ZM116.286 122.401C111.897 122.401 108.994 124.066 108.994 126.523C108.994 128.956 111.895 130.645 116.286 130.645C120.7 130.645 123.579 128.954 123.579 126.523C123.579 124.066 120.702 122.401 116.286 122.401ZM116.286 130.262C112.164 130.262 109.41 128.752 109.41 126.523C109.41 124.271 112.166 122.784 116.286 122.784C120.431 122.784 123.165 124.268 123.165 126.523C123.165 128.752 120.434 130.262 116.286 130.262ZM116.286 123.143C112.41 123.143 109.824 124.501 109.824 126.523C109.824 128.545 112.41 129.903 116.286 129.903C120.163 129.903 122.749 128.545 122.749 126.523C122.751 124.501 120.165 123.143 116.286 123.143ZM116.286 129.828C112.457 129.828 109.898 128.496 109.898 126.525C109.898 124.555 112.459 123.223 116.286 123.223C120.114 123.223 122.675 124.555 122.675 126.525C122.677 128.496 120.116 129.828 116.286 129.828V129.828Z" fill="white"/>
<circle cx="110.214" cy="146.343" r="2.5" fill="#90A2B7"/>
<circle cx="110.214" cy="159.143" r="2.5" fill="#90A2B7"/>
<circle cx="110.214" cy="171.333" r="2.5" fill="#90A2B7"/>
</svg>
