<svg width="189" height="514" viewBox="0 0 189 514" fill="none" xmlns="http://www.w3.org/2000/svg">
<path d="M119.958 19.1082C118.905 15.3135 119.292 11.2637 121.044 7.73686C122.795 4.20998 125.788 1.45462 129.448 0C130.902 1.45416 130.162 6.09727 130.162 6.09727C135.3 3.68941 141.063 2.94902 146.643 3.97981C146.542 7.54736 145.197 10.9674 142.841 13.6487C145.696 13.9364 148.442 14.8983 150.852 16.455C150.487 18.1364 149.727 19.707 148.636 21.0376C147.545 22.3682 146.153 23.4207 144.576 24.1085C146.182 25.9887 147.288 28.2438 147.791 30.6649C145.05 31.4552 142.155 31.5429 139.372 30.92C139.821 32.328 140.003 33.8077 139.908 35.2825C137.265 35.6705 134.569 35.4716 132.011 34.7C129.454 33.9284 127.098 32.603 125.111 30.818C122.475 27.3867 120.707 23.3695 119.958 19.1082Z" fill="#E69D7E"/>
<path d="M135.724 32.8848C136.132 39.4923 140.291 49.5184 139.194 57.9117C137.663 69.7491 123.019 69.6215 117.356 69.6215H108.962V32.8848H135.724Z" fill="#E69D7E"/>
<path d="M122.866 56.0233V77.6827C122.866 77.6827 121.157 85.132 109.727 85.132C107.453 85.3238 105.192 84.6376 103.408 83.2142C101.624 81.7909 100.453 79.7385 100.135 77.4786V56.0488L122.866 56.0233Z" fill="#FBBEAA"/>
<path d="M100.135 74.06C107.304 77.4786 117.789 74.4172 122.866 65.0289V56.0233H100.135V74.06Z" fill="#F18380"/>
<path d="M85.8996 39.3896C85.8059 44.5699 86.0445 49.7508 86.6139 54.9006C87.5323 62.2735 90.16 70.4372 103.171 70.4372C116.182 70.4372 122.84 64.544 125.621 54.9006C127.305 49.084 130.723 40.461 129.32 30.5115C127.917 20.562 121.922 14.0565 107.789 13.6739C93.6551 13.2912 84.4454 19.6436 85.8996 39.3896Z" fill="#FBBEAA"/>
<path d="M113.478 43.8287C113.391 44.2132 113.198 44.5654 112.92 44.8448C112.642 45.1242 112.291 45.3194 111.907 45.408C111.523 45.4965 111.122 45.4749 110.749 45.3454C110.377 45.216 110.049 44.9841 109.803 44.6764C109.557 44.3687 109.403 43.9977 109.358 43.6062C109.313 43.2146 109.38 42.8185 109.551 42.4633C109.722 42.1082 109.989 41.8084 110.323 41.5987C110.656 41.3889 111.043 41.2776 111.437 41.2776C111.739 41.3093 112.032 41.4007 112.298 41.5464C112.565 41.6922 112.8 41.8895 112.99 42.1268C113.18 42.3641 113.321 42.6367 113.404 42.9289C113.488 43.221 113.513 43.5269 113.478 43.8287Z" fill="#403D4F"/>
<path d="M94.5226 43.8287C94.4361 44.2132 94.2427 44.5654 93.9648 44.8448C93.687 45.1242 93.3358 45.3194 92.9518 45.408C92.5679 45.4965 92.1667 45.4749 91.7945 45.3454C91.4223 45.216 91.0942 44.9841 90.8481 44.6764C90.6019 44.3687 90.4477 43.9977 90.4031 43.6062C90.3585 43.2146 90.4254 42.8185 90.5961 42.4633C90.7668 42.1082 91.0344 41.8084 91.3679 41.5987C91.7015 41.3889 92.0876 41.2776 92.4816 41.2776C92.7839 41.3093 93.0768 41.4007 93.3435 41.5464C93.6101 41.6922 93.8452 41.8895 94.0351 42.1268C94.2249 42.3641 94.3658 42.6367 94.4495 42.9289C94.5331 43.221 94.558 43.5269 94.5226 43.8287Z" fill="#403D4F"/>
<path d="M107.304 36.609C107.304 36.609 107.304 36.609 107.533 36.3794C107.737 36.196 107.96 36.0336 108.196 35.8947C108.513 35.7001 108.857 35.5539 109.217 35.461C109.618 35.3126 110.04 35.2265 110.467 35.2059C110.882 35.1547 111.302 35.1547 111.717 35.2059C112.069 35.217 112.419 35.2597 112.763 35.3335L113.758 35.6141C113.922 35.667 114.06 35.7819 114.14 35.9343C114.221 36.0867 114.24 36.2647 114.192 36.4305C114.153 36.5629 114.073 36.6793 113.962 36.7621C113.852 36.8449 113.717 36.8897 113.579 36.8897H112.584C112.288 36.8515 111.988 36.8515 111.692 36.8897C111.352 36.8643 111.011 36.8643 110.671 36.8897C110.339 36.8897 110.008 36.8897 109.702 37.0683C109.396 37.2468 109.14 37.2723 108.885 37.2979L108.35 37.4764H108.12C107.961 37.5457 107.781 37.5497 107.619 37.4877C107.456 37.4257 107.325 37.3026 107.253 37.1448C107.208 37.058 107.184 36.9618 107.184 36.8642C107.184 36.7665 107.208 36.6703 107.253 36.5835L107.304 36.609Z" fill="#403D4F"/>
<path d="M94.9052 37.5784H94.7521L94.3439 37.4254H94.0633H93.7827C93.5572 37.3509 93.3271 37.2912 93.0939 37.2468C92.8573 37.2091 92.6162 37.2091 92.3795 37.2468C92.1601 37.2087 91.9357 37.2087 91.7163 37.2468H90.8999C90.7284 37.2402 90.5662 37.1674 90.4473 37.0437C90.3283 36.92 90.262 36.7551 90.2621 36.5835C90.267 36.4569 90.308 36.3344 90.3804 36.2304C90.4527 36.1264 90.5533 36.0454 90.6703 35.9967L91.4611 35.7161C91.7497 35.6218 92.0505 35.5702 92.354 35.563C92.6923 35.5124 93.0362 35.5124 93.3745 35.563C94.0446 35.6302 94.6817 35.8868 95.2113 36.3029C95.4035 36.4306 95.5683 36.5954 95.6961 36.7876C95.8236 36.9407 95.8236 36.9917 95.8491 36.9917V37.2468C95.8632 37.3669 95.8442 37.4886 95.7941 37.5987C95.744 37.7089 95.6647 37.8032 95.5649 37.8715C95.4651 37.9398 95.3485 37.9795 95.2277 37.9863C95.1069 37.9931 94.9866 37.9668 94.8797 37.9101L94.9052 37.5784Z" fill="#403D4F"/>
<path d="M100.135 52.5026C99.7068 52.5125 99.2816 52.4286 98.8894 52.2567C98.4971 52.0848 98.1473 51.8292 97.8644 51.5077C97.7537 51.398 97.6671 51.2666 97.61 51.1216C97.5529 50.9767 97.5266 50.8214 97.5327 50.6658C97.5327 50.3852 97.9919 46.8646 98.145 45.5635C98.145 45.4349 98.1961 45.3116 98.287 45.2207C98.3779 45.1298 98.5012 45.0787 98.6297 45.0787C98.7583 45.0787 98.8816 45.1298 98.9725 45.2207C99.0634 45.3116 99.1144 45.4349 99.1144 45.5635C99.1144 45.7676 98.5787 50.3852 98.5022 50.6658C98.7141 50.8931 98.9709 51.074 99.2563 51.197C99.5418 51.32 99.8496 51.3823 100.16 51.3801C100.289 51.3801 100.412 51.4312 100.503 51.5221C100.594 51.613 100.645 51.7363 100.645 51.8648C100.645 51.9934 100.594 52.1167 100.503 52.2076C100.412 52.2985 100.289 52.3495 100.16 52.3495L100.135 52.5026Z" fill="#F18380"/>
<path d="M97.7367 57.5285C96.7673 57.7836 96.4356 59.2122 96.9969 60.8705C97.5837 62.0112 98.5357 62.9225 99.701 63.4589C100.866 63.9953 102.178 64.1259 103.426 63.8298C104.103 63.7943 104.766 63.624 105.377 63.3291C105.988 63.0342 106.534 62.6204 106.983 62.1121C107.431 61.6038 107.775 61.0111 107.992 60.3686C108.209 59.7261 108.296 59.0468 108.247 58.3704C108.247 57.2734 107.508 56.61 106.079 56.61C103.278 56.6834 100.487 56.9906 97.7367 57.5285Z" fill="#73102A"/>
<path d="M108.299 58.3703C108.299 58.3703 108.299 58.2172 108.299 58.1152C106.428 57.6765 104.46 57.9578 102.787 58.9031C101.114 59.8483 99.8577 61.3885 99.2678 63.2175C100.588 63.8643 102.074 64.0956 103.528 63.8808C104.206 63.839 104.868 63.6624 105.476 63.3614C106.085 63.0603 106.627 62.641 107.071 62.1278C107.516 61.6146 107.853 61.018 108.064 60.3728C108.275 59.7276 108.354 59.0468 108.299 58.3703Z" fill="#D65155"/>
<path d="M98.6043 59.0849C101.827 59.1113 105.033 58.6115 108.095 57.6052C107.907 57.2597 107.618 56.9795 107.267 56.8018C106.917 56.6241 106.52 56.5573 106.13 56.6102C103.329 56.6836 100.538 56.9908 97.7879 57.5287C97.5212 57.6184 97.2869 57.7849 97.1144 58.0073C96.9419 58.2297 96.839 58.4981 96.8185 58.7787C97.3907 58.9865 97.9955 59.0902 98.6043 59.0849Z" fill="white"/>
<path d="M111.131 27.3483C111.131 27.3483 115.646 42.9613 126.438 47.0687C127.69 47.0843 128.929 46.798 130.048 46.2341C131.167 45.6701 132.134 44.8451 132.866 43.8287C135.733 37.8002 136.539 30.9971 135.162 24.4654C133.351 16.5058 123.784 6.25017 106.334 8.64826C97.0227 6.86244 85.9251 8.49519 78.9859 17.909C72.0468 27.3227 80.3126 40.3592 85.8996 42.5276C91.3949 39.219 96.662 35.5456 101.666 31.5322C100.9 33.9302 100.084 39.007 100.9 39.007C105.616 36.496 109.254 32.3505 111.131 27.3483Z" fill="#E69D7E"/>
<path d="M125.111 48.9567C125.315 45.4871 126.259 41.3032 130.468 42.043C135.571 42.7829 135.928 56.1764 125.366 54.5692L125.111 48.9567Z" fill="#FBBEAA"/>
<path d="M130.902 49.8498C130.815 49.846 130.729 49.8208 130.653 49.7763C130.578 49.7318 130.514 49.6695 130.468 49.5947C130.363 49.369 130.198 49.1763 129.991 49.0371C129.784 48.8978 129.544 48.8172 129.295 48.8038C129.003 48.8068 128.717 48.8831 128.463 49.0258C128.209 49.1685 127.995 49.3729 127.841 49.6202C127.783 49.712 127.697 49.782 127.595 49.8189C127.494 49.8559 127.382 49.8578 127.28 49.8243C127.182 49.7819 127.099 49.7099 127.044 49.6184C126.989 49.5269 126.965 49.4204 126.973 49.3141C127.006 48.2383 127.336 47.1925 127.926 46.2921C128.515 45.3918 129.342 44.6718 130.315 44.2117C130.377 44.1877 130.442 44.1763 130.508 44.1784C130.574 44.1805 130.638 44.1959 130.698 44.2238C130.758 44.2516 130.811 44.2914 130.855 44.3405C130.898 44.3896 130.932 44.4472 130.953 44.5096C130.973 44.572 130.981 44.638 130.976 44.7036C130.97 44.7692 130.951 44.8329 130.92 44.891C130.889 44.9491 130.847 45.0002 130.796 45.0413C130.744 45.0824 130.685 45.1127 130.622 45.1302C130.052 45.4103 129.546 45.8037 129.133 46.2862C128.721 46.7687 128.411 47.3302 128.223 47.9364C128.578 47.7849 128.96 47.7068 129.346 47.7068C129.758 47.7459 130.155 47.8847 130.502 48.1114C130.848 48.3381 131.135 48.6458 131.336 49.0079C131.368 49.0632 131.389 49.1242 131.397 49.1875C131.405 49.2507 131.401 49.315 131.384 49.3767C131.368 49.4383 131.339 49.496 131.3 49.5466C131.261 49.5971 131.213 49.6395 131.157 49.6712C131.094 49.7572 131.005 49.82 130.902 49.8498Z" fill="#F18380"/>
<path d="M22.8019 82.9356C22.7025 80.7639 23.2839 78.6155 24.4647 76.7903C26.2828 74.6822 27.6449 72.2206 28.4652 69.5605C29.0963 67.0912 30.1043 64.7338 31.4536 62.5716C32.4176 61.2462 33.8635 60.1617 33.8635 59.1496C33.8635 58.1374 31.9356 56.1854 29.1883 56.7396C28.0115 57.1062 26.9302 57.7284 26.022 58.5616C25.1137 59.3949 24.4009 60.4186 23.9346 61.5595C23.6713 60.8644 23.517 60.1328 23.4767 59.3906L22.8742 44.6177C22.8651 44.2347 22.7793 43.8574 22.6219 43.5082C22.4645 43.1589 22.2387 42.8447 21.9579 42.5842C21.6772 42.3236 21.347 42.1219 20.987 41.991C20.627 41.8601 20.2444 41.8027 19.8618 41.8222C19.2527 41.8481 18.667 42.0644 18.1872 42.4405C17.7074 42.8165 17.3575 43.3335 17.1868 43.9188V43.244C17.0941 42.5259 16.7332 41.8694 16.1765 41.4063C15.6198 40.9433 14.9085 40.7079 14.1855 40.7476C13.4624 40.7873 12.7812 41.099 12.2785 41.6201C11.7758 42.1413 11.4888 42.8333 11.4753 43.5573V45.6058C11.2339 44.9742 10.7736 44.4504 10.1784 44.1299C9.5831 43.8093 8.89247 43.7133 8.23235 43.8594C7.57222 44.0054 6.98654 44.3837 6.58207 44.9255C6.17759 45.4672 5.98123 46.1363 6.02878 46.8107V48.112C5.7694 47.6562 5.38284 47.2858 4.91634 47.0462C4.44983 46.8065 3.92359 46.7079 3.40197 46.7625C2.68764 46.8532 2.03669 47.2183 1.58687 47.7806C1.13705 48.3428 0.923695 49.0581 0.992039 49.7749L2.17288 62.2343C2.94645 69.2587 4.39925 76.1915 6.5108 82.9356C6.53633 84.0616 6.7972 85.1698 7.27663 86.189C7.75605 87.2082 8.44341 88.1158 9.29456 88.8535C10.1457 89.5911 11.1418 90.1425 12.2188 90.4722C13.2958 90.8019 14.4298 90.9026 15.548 90.7678C16.56 90.8016 17.5674 90.6174 18.5018 90.2276C19.4363 89.8378 20.2761 89.2515 20.9641 88.5087C21.6521 87.7658 22.1723 86.8837 22.4894 85.9221C22.8065 84.9605 22.913 83.942 22.8019 82.9356Z" fill="#FBBEAA"/>
<path d="M104.016 476.236C104.016 473.916 103.095 471.691 101.454 470.05C99.8135 468.41 97.5884 467.488 95.2683 467.488C92.9482 467.488 90.7231 468.41 89.0825 470.05C87.4419 471.691 86.5202 473.916 86.5202 476.236V495.25H104.016V476.236Z" fill="#FBBEAA"/>
<path d="M87.1466 479.779C85.0017 479.779 84.6162 480.719 83.9896 481.948C82.9733 485.223 81.2358 488.229 78.9047 490.744C75.4245 493.708 71.6908 496.361 67.7467 498.673V508.746H106.691C106.691 508.746 106.426 500.793 106.233 495.178C106.04 489.563 105.486 482.719 105.534 481.996C105.583 481.273 105.534 479.779 104.209 479.779H87.1466Z" fill="#302D3B"/>
<path d="M101.848 495.732C101.852 496.969 101.49 498.179 100.806 499.209C100.122 500.239 99.1472 501.043 98.0057 501.518C96.8642 501.994 95.6072 502.119 94.3942 501.879C93.1812 501.639 92.0669 501.044 91.1925 500.17C90.3181 499.295 89.7232 498.181 89.4831 496.968C89.243 495.755 89.3686 494.498 89.844 493.357C90.3195 492.215 91.1232 491.241 92.1534 490.556C93.1835 489.872 94.3935 489.51 95.6301 489.515C97.2771 489.521 98.855 490.178 100.02 491.343C101.184 492.507 101.841 494.085 101.848 495.732Z" fill="#93929C"/>
<path d="M95.6302 492.069L97.052 494.166L99.4861 494.865L97.9437 496.865L98.016 499.395L95.6302 498.528L93.2443 499.395L93.3408 496.865L91.7743 494.865L94.2083 494.166L95.6302 492.069Z" fill="white"/>
<path d="M68.0119 498.504C68.0119 498.504 62.4932 501.42 60.4207 502.842C59.4612 503.492 58.6817 504.374 58.155 505.407C57.6283 506.439 57.3714 507.588 57.4082 508.746H72.5426C72.5426 508.746 72.2293 501.348 68.0119 498.504Z" fill="white"/>
<path d="M106.691 508.746V512.916C106.691 513.614 106.065 514 105.004 514H59.0709C58.0346 514 57.4081 513.614 57.4081 512.916V508.746H106.691Z" fill="white"/>
<path d="M72.5429 495.684C72.4095 495.479 72.2014 495.335 71.9629 495.281C71.7245 495.227 71.4743 495.268 71.2657 495.395C71.1617 495.459 71.0717 495.543 71.0007 495.642C70.9297 495.742 70.8793 495.854 70.8523 495.973C70.8254 496.092 70.8225 496.215 70.8438 496.335C70.8651 496.455 70.9102 496.57 70.9765 496.672L72.5911 499.275C72.6689 499.41 72.7816 499.521 72.9173 499.598C73.0529 499.674 73.2066 499.712 73.3623 499.709C73.5408 499.706 73.7154 499.656 73.8683 499.564C73.9723 499.5 74.0624 499.416 74.1333 499.317C74.2043 499.218 74.2548 499.106 74.2817 498.987C74.3087 498.868 74.3115 498.744 74.2902 498.624C74.2689 498.504 74.2238 498.389 74.1576 498.287L72.5429 495.684Z" fill="white"/>
<path d="M75.3865 493.684C75.3073 493.592 75.2109 493.517 75.1027 493.462C74.9945 493.408 74.8766 493.375 74.7557 493.366C74.6349 493.357 74.5135 493.372 74.3984 493.41C74.2834 493.448 74.1769 493.508 74.0851 493.587C73.9934 493.667 73.9181 493.763 73.8635 493.871C73.809 493.979 73.7763 494.097 73.7674 494.218C73.7584 494.339 73.7734 494.46 73.8113 494.576C73.8493 494.691 73.9096 494.797 73.9887 494.889L75.8685 497.106C75.9552 497.208 76.0621 497.29 76.1824 497.348C76.3027 497.406 76.4339 497.439 76.5674 497.443C76.7419 497.44 76.9121 497.388 77.0589 497.294C77.2056 497.199 77.3231 497.065 77.3982 496.908C77.4733 496.75 77.5029 496.575 77.4839 496.401C77.4648 496.228 77.3978 496.063 77.2903 495.925L75.3865 493.684Z" fill="white"/>
<path d="M78.0612 491.443C77.8694 491.32 77.6393 491.27 77.4137 491.303C77.1881 491.337 76.9824 491.451 76.8349 491.625C76.6875 491.799 76.6083 492.021 76.6122 492.249C76.6162 492.477 76.7029 492.696 76.8562 492.865L79.001 494.721C79.1692 494.863 79.3831 494.94 79.6035 494.937C79.7362 494.942 79.8682 494.916 79.9894 494.862C80.1105 494.808 80.2176 494.726 80.3024 494.624C80.3914 494.541 80.4624 494.44 80.5109 494.328C80.5594 494.216 80.5844 494.095 80.5844 493.973C80.5844 493.852 80.5594 493.731 80.5109 493.619C80.4624 493.507 80.3914 493.406 80.3024 493.323L78.0612 491.443Z" fill="white"/>
<path d="M82.761 490.334L80.351 488.84C80.1395 488.715 79.8873 488.678 79.6485 488.736C79.4098 488.795 79.2034 488.945 79.0738 489.153C79.0086 489.257 78.9649 489.373 78.9454 489.494C78.9258 489.615 78.9309 489.739 78.9601 489.858C78.9893 489.977 79.0421 490.089 79.1155 490.188C79.1888 490.286 79.2812 490.369 79.3871 490.431L81.797 491.925C81.9399 492.02 82.1076 492.07 82.279 492.069C82.4361 492.066 82.5894 492.022 82.7245 491.941C82.8596 491.861 82.9717 491.748 83.0502 491.612C83.1776 491.403 83.2187 491.153 83.1647 490.914C83.1107 490.676 82.9659 490.468 82.761 490.334Z" fill="white"/>
<path d="M84.7854 487.226L82.0863 486.093C81.8562 485.997 81.5975 485.997 81.367 486.092C81.1365 486.186 80.9532 486.369 80.8573 486.599C80.8103 486.711 80.786 486.832 80.7861 486.953C80.7861 487.075 80.8104 487.196 80.8575 487.308C80.9047 487.42 80.9737 487.522 81.0605 487.607C81.1474 487.692 81.2503 487.759 81.3634 487.804L84.0625 488.937H84.424C84.6319 488.926 84.8302 488.846 84.9878 488.71C85.1454 488.574 85.2534 488.389 85.2947 488.185C85.3361 487.981 85.3085 487.769 85.2163 487.582C85.1242 487.395 84.9726 487.245 84.7854 487.153V487.226Z" fill="white"/>
<path d="M86.4723 483.755L83.4841 483.008C83.2476 482.951 82.9979 482.989 82.79 483.116C82.5821 483.242 82.433 483.446 82.3754 483.683C82.3179 483.919 82.3567 484.169 82.4833 484.377C82.6098 484.585 82.8137 484.734 83.0502 484.791L86.0145 485.563H86.2313C86.4389 485.56 86.6401 485.491 86.8051 485.365C86.9701 485.239 87.0901 485.063 87.1471 484.864C87.1987 484.628 87.1575 484.381 87.0318 484.174C86.9061 483.968 86.7058 483.818 86.4723 483.755Z" fill="white"/>
<path d="M116.813 354.631C116.548 342.967 108.692 337.328 97.0518 337.617C85.4119 337.906 77.0253 344.003 77.2904 355.643L86.5204 477.176H104.017L116.813 354.631Z" fill="#FBBEAA"/>
<path d="M177.76 476.236C177.76 473.916 176.839 471.691 175.198 470.05C173.558 468.41 171.333 467.488 169.012 467.488C166.692 467.488 164.467 468.41 162.827 470.05C161.186 471.691 160.264 473.916 160.264 476.236V495.25H177.76V476.236Z" fill="#FBBEAA"/>
<path d="M160.915 479.779C158.746 479.779 158.36 480.719 157.758 481.948C156.73 485.223 154.985 488.228 152.649 490.744C149.173 493.714 145.439 496.368 141.491 498.673V508.746H180.435C180.435 508.746 180.17 500.793 179.977 495.178C179.784 489.563 179.254 482.719 179.278 481.996C179.302 481.273 179.278 479.779 177.977 479.779H160.915Z" fill="#302D3B"/>
<path d="M175.615 495.732C175.62 496.968 175.258 498.177 174.575 499.206C173.892 500.236 172.919 501.04 171.779 501.516C170.639 501.992 169.383 502.119 168.171 501.881C166.958 501.643 165.844 501.05 164.969 500.178C164.093 499.306 163.496 498.194 163.254 496.983C163.011 495.771 163.133 494.515 163.605 493.373C164.076 492.231 164.876 491.255 165.903 490.568C166.93 489.881 168.138 489.515 169.374 489.515C171.025 489.515 172.609 490.169 173.779 491.334C174.948 492.5 175.609 494.081 175.615 495.732Z" fill="#93929C"/>
<path d="M169.398 492.069L170.82 494.166L173.254 494.865L171.687 496.865L171.76 499.395L169.398 498.528L167.012 499.395L167.084 496.865L165.518 494.865L167.976 494.166L169.398 492.069Z" fill="white"/>
<path d="M141.78 498.504C141.78 498.504 136.238 501.42 134.189 502.842C133.225 503.487 132.442 504.368 131.914 505.402C131.387 506.436 131.133 507.587 131.177 508.746H146.383C146.383 508.746 145.974 501.348 141.78 498.504Z" fill="white"/>
<path d="M180.435 508.746V512.916C180.435 513.614 179.833 514 178.772 514H132.791C131.73 514 131.128 513.614 131.128 512.916V508.746H180.435Z" fill="white"/>
<path d="M146.287 495.684C146.156 495.477 145.948 495.33 145.708 495.275C145.469 495.221 145.217 495.264 145.01 495.395C144.802 495.526 144.655 495.734 144.6 495.974C144.546 496.214 144.589 496.465 144.72 496.673L146.335 499.275C146.419 499.41 146.536 499.521 146.675 499.597C146.815 499.673 146.971 499.712 147.13 499.709C147.302 499.71 147.469 499.659 147.612 499.564C147.716 499.501 147.806 499.416 147.877 499.317C147.948 499.218 147.999 499.106 148.026 498.987C148.053 498.868 148.055 498.745 148.034 498.624C148.013 498.504 147.968 498.39 147.901 498.287L146.287 495.684Z" fill="white"/>
<path d="M149.155 493.684C148.996 493.499 148.771 493.383 148.529 493.361C148.286 493.338 148.044 493.411 147.854 493.564C147.667 493.727 147.55 493.955 147.528 494.202C147.505 494.449 147.579 494.695 147.733 494.889L149.637 497.106C149.721 497.211 149.827 497.296 149.948 497.355C150.069 497.413 150.201 497.444 150.336 497.444C150.512 497.445 150.686 497.396 150.835 497.301C150.984 497.207 151.103 497.071 151.177 496.911C151.251 496.75 151.277 496.572 151.251 496.397C151.226 496.222 151.151 496.058 151.035 495.925L149.155 493.684Z" fill="white"/>
<path d="M151.805 491.443C151.614 491.32 151.384 491.27 151.158 491.303C150.932 491.337 150.727 491.451 150.579 491.625C150.432 491.799 150.352 492.021 150.356 492.249C150.36 492.477 150.447 492.696 150.6 492.865L152.769 494.721C152.937 494.863 153.151 494.94 153.372 494.937C153.504 494.94 153.636 494.914 153.757 494.86C153.877 494.806 153.985 494.725 154.071 494.624C154.157 494.539 154.225 494.438 154.271 494.326C154.318 494.214 154.342 494.095 154.342 493.973C154.342 493.852 154.318 493.733 154.271 493.621C154.225 493.509 154.157 493.408 154.071 493.323L151.805 491.443Z" fill="white"/>
<path d="M156.505 490.334L154.095 488.84C153.887 488.752 153.655 488.742 153.44 488.812C153.225 488.881 153.043 489.026 152.926 489.219C152.809 489.412 152.765 489.64 152.803 489.863C152.841 490.085 152.957 490.287 153.131 490.431L155.541 491.925C155.684 492.02 155.852 492.07 156.023 492.069C156.184 492.067 156.341 492.024 156.48 491.944C156.619 491.864 156.736 491.749 156.818 491.611C156.943 491.4 156.981 491.148 156.922 490.909C156.864 490.67 156.714 490.464 156.505 490.334Z" fill="white"/>
<path d="M23.0911 84.5505L32.7308 145.064C34.3214 152.655 31.8633 159.523 23.0911 160.728C21.4719 160.939 19.8267 160.819 18.2554 160.375C16.6841 159.93 15.2195 159.171 13.9505 158.143C12.6816 157.115 11.6349 155.841 10.8738 154.396C10.1127 152.951 9.65321 151.367 9.5232 149.739L6.58308 84.671C5.8119 78.5256 8.48688 74.4288 13.1621 73.9227C18.8978 73.2961 21.9344 76.6941 23.0911 84.5505Z" fill="#FBBEAA"/>
<path d="M158.529 487.226L155.83 486.093C155.718 486.046 155.597 486.022 155.475 486.022C155.354 486.022 155.233 486.046 155.121 486.093C155.009 486.141 154.907 486.21 154.822 486.296C154.737 486.383 154.67 486.486 154.625 486.599C154.535 486.824 154.535 487.074 154.624 487.298C154.714 487.523 154.887 487.704 155.107 487.804L157.83 488.937C157.941 488.962 158.056 488.962 158.167 488.937C158.353 488.937 158.534 488.882 158.689 488.779C158.843 488.676 158.964 488.53 159.035 488.359C159.108 488.141 159.097 487.903 159.003 487.693C158.909 487.484 158.74 487.317 158.529 487.226Z" fill="white"/>
<path d="M160.216 483.755L157.252 483.008C157.012 482.95 156.759 482.988 156.548 483.114C156.336 483.24 156.182 483.444 156.119 483.683C156.091 483.8 156.085 483.922 156.104 484.041C156.122 484.16 156.164 484.274 156.227 484.377C156.289 484.48 156.372 484.57 156.469 484.641C156.566 484.712 156.677 484.763 156.794 484.792L159.758 485.563H159.999C160.216 485.546 160.421 485.455 160.578 485.304C160.735 485.153 160.835 484.952 160.861 484.736C160.887 484.52 160.836 484.302 160.719 484.118C160.601 483.935 160.424 483.798 160.216 483.731V483.755Z" fill="white"/>
<path d="M168.193 354.27C167.009 348.799 163.701 344.023 158.997 340.99C154.292 337.958 148.576 336.918 143.105 338.099C131.706 340.509 125.561 351.739 128.019 363.138L160.264 479.176H177.977L168.193 354.27Z" fill="#FBBEAA"/>
<path d="M118.332 353.873C118.267 351.103 117.657 348.374 116.538 345.841C115.418 343.307 113.81 341.019 111.806 339.107C109.802 337.194 107.441 335.696 104.858 334.696C102.275 333.696 99.5202 333.215 96.751 333.28C93.9818 333.345 91.2525 333.954 88.719 335.074C86.1854 336.194 83.8972 337.801 81.985 339.805C80.0728 341.809 78.574 344.17 77.5742 346.754C76.5745 349.337 76.0933 352.092 76.1581 354.861L70.6866 479.792H118.331L118.332 353.873Z" fill="#93929C"/>
<path d="M168.19 351.294C166.882 345.955 163.543 341.337 158.884 338.421C154.224 335.505 148.611 334.522 143.237 335.68C137.864 336.838 133.154 340.047 130.109 344.623C127.064 349.199 125.925 354.783 126.932 360.187L139.752 479.307C139.752 479.307 170.455 481.138 188.746 479.307L168.19 351.294Z" fill="#93929C"/>
<path d="M15.2587 138.364L84.4719 85.7794C92.5452 80.6221 98.0398 83.3694 102.329 88.8882C104.288 91.5593 105.197 94.8576 104.881 98.155C104.566 101.452 103.048 104.519 100.618 106.77L31.5739 157.644C29.1408 159.698 26.0086 160.735 22.83 160.538C19.6514 160.34 16.6716 158.924 14.5117 156.583L14.1983 156.246C13.052 155.023 12.1668 153.579 11.5968 152.003C11.0269 150.426 10.7841 148.75 10.8833 147.077C10.9825 145.404 11.4217 143.768 12.174 142.27C12.9262 140.772 13.9758 139.443 15.2587 138.364Z" fill="#FBBEAA"/>
<path d="M100.618 106.746C101.258 106.196 101.839 105.582 102.354 104.914C102.809 103.199 102.867 101.403 102.525 99.6617C102.182 97.9205 101.448 96.2802 100.377 94.865C96.7384 89.2499 89.099 84.8397 85.701 85.6832L82.3271 87.3942L44.1297 116.313C47.5103 124.258 52.0769 131.645 57.6735 138.22L100.618 106.746Z" fill="#F18380"/>
<path d="M90.1836 82.0198L30.2881 122.416C30.5401 124.482 23.9003 82.0198 23.9003 82.0198L5.1126 84.4648C5.1126 84.4648 5.49497 127.342 8.2997 150.098C9.41938 159.182 16.9111 162.65 25.8539 160.699C30.2692 159.736 34.4259 157.924 38.1248 155.328C54.0195 144.171 98.6115 112.747 102.257 108.794C108.547 101.974 108.547 96.865 104.932 91.2498C101.317 85.6347 93.5816 81.1763 90.1836 82.0198Z" fill="#002B80"/>
<path d="M118.332 354.559L130.694 225.122C130.694 210.831 115.97 195.263 94.2563 198.612C74.6395 201.673 68.6628 221.386 70.2775 240.063C71.8921 258.74 76.2541 355.475 76.2541 355.475C76.319 358.244 76.9287 360.973 78.0483 363.507C79.168 366.04 80.7757 368.328 82.7797 370.241C84.7836 372.153 87.1446 373.652 89.7278 374.651C92.3111 375.651 95.0659 376.132 97.835 376.068C100.604 376.003 103.334 375.393 105.867 374.273C108.401 373.154 110.689 371.546 112.601 369.542C114.513 367.538 116.012 365.177 117.012 362.594C118.012 360.011 118.493 357.256 118.428 354.487L118.332 354.559Z" fill="#93929C"/>
<path d="M168.192 351.98L155.902 222.567C153.299 208.517 135.827 196.058 115.126 203.432C96.4488 210.108 94.2799 230.592 99.389 248.642C104.498 266.693 126.934 360.873 126.934 360.873C128.242 366.212 131.581 370.83 136.241 373.746C140.901 376.662 146.514 377.645 151.887 376.487C157.261 375.329 161.97 372.12 165.015 367.544C168.06 362.967 169.2 357.384 168.192 351.98Z" fill="#93929C"/>
<path d="M99.3893 248.643C104.474 266.693 126.935 360.873 126.935 360.873" stroke="#5E5D63" stroke-width="0.75" stroke-miterlimit="10"/>
<path d="M103.004 79.9711C103.004 79.9711 92.3524 81.8268 90.2799 82.3811C89.0568 82.6681 87.9265 83.2609 86.995 84.1039C86.0635 84.9469 85.3612 86.0125 84.9539 87.2009C83.6285 90.3579 76.8084 111.035 76.1818 113.276C75.7581 115.745 76.156 118.285 77.3145 120.506C78.3026 123.205 83.4116 135.496 83.4116 135.496L84.1827 175.091L112.956 179.655L140.527 175.091C140.527 175.091 150.167 101.444 150.649 96.8889C151.131 92.3341 148.865 83.5379 143.419 82.4293C137.972 81.3207 123.031 80.0194 123.031 80.0194L103.004 79.9711Z" fill="#FBBEAA"/>
<path d="M82.8318 159.171V173.091C101.677 174.826 131.706 173.597 142.985 173.091C143.515 169.115 144.069 162.367 144.648 157.884C129.296 158.27 103.943 159.701 82.8318 159.171Z" fill="white"/>
<path d="M182.218 171.549L151.347 90.3098C147.226 81.6341 141.129 81.0557 134.478 83.4656C131.401 84.6928 128.885 87.0104 127.409 89.9755C125.933 92.9407 125.601 96.3456 126.477 99.5399L158.264 179.333C159.227 182.368 161.329 184.913 164.129 186.432C166.928 187.95 170.207 188.326 173.278 187.478L173.736 187.358C175.355 186.916 176.868 186.149 178.181 185.103C179.494 184.058 180.581 182.756 181.375 181.276C182.168 179.797 182.653 178.172 182.798 176.499C182.943 174.827 182.746 173.142 182.218 171.549Z" fill="#FBBEAA"/>
<path d="M169.422 137.858L151.348 90.3097C150.863 89.2669 150.291 88.2673 149.637 87.3214C147.423 85.9352 144.888 85.1447 142.279 85.0265C139.67 84.9082 137.074 85.4663 134.744 86.6466C132.038 87.9633 129.863 90.1647 128.578 92.8863C127.294 95.6079 126.978 98.6865 127.683 101.612C127.683 101.901 127.851 102.456 127.996 103.203L146.649 150.076C154.796 147.138 162.469 143.021 169.422 137.858Z" fill="#F18380"/>
<path d="M149.661 85.9722L182.916 171.495C154.735 162.477 151.338 168.58 143.766 143.458C143.766 143.458 126.092 101.974 125.417 98.2628C124.713 95.337 125.029 92.2585 126.313 89.5369C127.597 86.8154 129.772 84.6139 132.478 83.2972C140.021 79.4413 147.54 82.9357 149.661 85.9722Z" fill="#003399"/>
<path d="M155.902 221.941C155.372 215.265 145.908 184.618 138.221 170.038C138.221 170.038 121.815 163.687 111.015 163.722C99.7466 163.759 84.7803 172.467 84.7803 172.467C79.7676 183.818 73.4585 211.241 71.7957 216.591C70.7918 219.738 70.6699 223.101 71.4432 226.313C72.2165 229.525 73.8554 232.464 76.1818 234.81C81.8933 241.292 96.6179 248.715 100.016 248.715C114.635 246.627 128.965 242.858 142.72 237.485C150.48 234.231 156.408 228.64 155.902 221.941Z" fill="#93929C"/>
<path d="M106.506 159.176L163.209 182.426C170.227 185.704 177.485 184.884 180.64 176.696C181.216 175.169 181.477 173.541 181.406 171.911C181.335 170.28 180.933 168.681 180.225 167.211C179.518 165.741 178.518 164.429 177.289 163.356C176.059 162.284 174.624 161.472 173.071 160.97L110.462 143.273C104.665 141.109 100.065 142.8 98.4558 147.16C96.5544 152.535 99.1434 156.171 106.506 159.176Z" fill="#FBBEAA"/>
<path d="M100.287 76.2761C100.287 76.2761 86.9907 83.9506 84.9378 85.2936C82.8849 86.6367 83.3228 88.9055 80.9471 94.3112C80.267 95.8587 75.3004 101.239 75.5497 109.796C76.2296 133.134 83.1535 173.512 83.1535 173.512C87.3054 175.752 91.7202 177.467 96.2961 178.615C98.5025 178.865 100.248 178.922 101.745 177.464C103.241 176.006 107.654 170.711 107.654 170.711C107.654 170.711 114.926 175.642 118.207 177.464C118.989 178.01 119.872 178.393 120.805 178.591C121.738 178.789 122.7 178.797 123.636 178.615C128.414 177.637 147.216 172.15 147.811 171.804C148.406 171.459 148.962 171.094 148.905 170.442C148.847 169.79 148.502 94.9443 148.252 91.5675C148.203 89.7591 147.634 88.0032 146.613 86.5096C145.593 85.016 144.163 83.8478 142.497 83.1448C138.487 81.3605 123.425 75.2401 123.425 75.2401L107.712 86.157L100.287 76.2761Z" fill="#003399"/>
<path d="M100.287 74.1277L107.674 86.1575C107.674 86.1575 100.421 91.9134 99.9992 92.3355C99.5771 92.7576 98.7329 92.7192 98.5602 92.0477C98.3876 91.3762 96.2962 78.6173 96.2579 78.6173C96.2209 78.5497 96.2016 78.4738 96.2016 78.3967C96.2016 78.3196 96.2209 78.2437 96.2579 78.176C96.4497 78.0417 100.287 74.1277 100.287 74.1277Z" fill="#F5F5F5"/>
<path d="M123.502 71.9017L107.654 86.1571C107.654 86.1571 116 91.9129 116.365 92.335C116.471 92.4254 116.597 92.4905 116.732 92.5254C116.867 92.5603 117.008 92.564 117.145 92.5363C117.281 92.5086 117.41 92.4501 117.521 92.3654C117.632 92.2807 117.722 92.1719 117.785 92.0472C118.399 91.0687 128.222 77.2738 128.26 77.1587C128.301 77.0923 128.323 77.0159 128.323 76.9381C128.323 76.8602 128.301 76.7838 128.26 76.7174C128.049 76.6023 123.502 71.9017 123.502 71.9017Z" fill="#F5F5F5"/>
<g filter="url(#filter0_d_1_1977)">
<rect width="39.7683" height="56.6698" rx="1" transform="matrix(-0.993463 -0.114154 -0.114154 0.993463 130.519 119.859)" fill="#EFEFEF"/>
</g>
<path d="M111.847 145.257C109.081 144.089 106.581 142.357 104.504 140.172C103.218 138.823 101.76 137.652 100.169 136.69C99.2352 136.107 98.4297 135.337 97.8026 134.429C96.9742 133.02 96.2886 131.533 95.7563 129.989C95.559 128.66 95.1069 127.379 94.4251 126.218C93.7769 125.624 91.4888 125.942 90.3011 128.25C89.8916 129.278 89.7061 130.385 89.757 131.497C89.8078 132.609 90.0939 133.699 90.5959 134.696C91.187 135.892 91.6499 137.146 91.9769 138.437L91.7612 138.566C89.9515 137.606 88.0176 136.909 86.0183 136.497C85.2932 136.335 84.5378 136.422 83.874 136.746C83.2101 137.069 82.6764 137.609 82.3589 138.279C82.0413 138.949 81.9583 139.71 82.1234 140.439C82.2884 141.167 82.6919 141.822 83.2687 142.297C80.1489 142.655 80.5031 147.467 83.1814 148.104C82.6079 148.344 82.1237 148.757 81.7945 149.287C81.4652 149.816 81.3067 150.437 81.3403 151.064C81.3739 151.692 81.5981 152.296 81.9826 152.796C82.367 153.295 82.8931 153.665 83.4898 153.856C81.5874 155.61 82.978 158.501 86.4322 158.513C89.2388 158.799 96.7447 159.974 99.3562 160.536C101.968 161.098 107.217 159.855 108.903 160.376C111.413 161.296 114.328 161.311 116.551 154.707C118.775 148.102 114.43 146.111 111.847 145.257Z" fill="#FBBEAA"/>
<path d="M22.32 63.6563C23.2358 63.6563 23.3081 63.0779 23.7178 62.0175C21.6693 62.0175 15.7168 62.4031 13.1141 67.4157C15.7409 63.8008 20.7777 63.6563 22.32 63.6563ZM17.6448 44.5937C17.6448 44.5937 17.7894 45.4372 17.934 46.6663C17.934 47.2929 18.0786 48.0399 18.1268 48.8111C18.175 49.5823 18.2473 50.4257 18.3196 51.221C18.3196 52.908 18.44 54.5708 18.44 55.824C18.44 57.0771 18.44 57.9206 18.44 57.9206C18.4402 57.9607 18.432 58.0004 18.416 58.0372C18.4 58.0739 18.3764 58.1069 18.347 58.1341C18.3175 58.1613 18.2827 58.1821 18.2448 58.1952C18.2069 58.2082 18.1667 58.2131 18.1268 58.2098C18.059 58.2064 17.9941 58.181 17.9419 58.1376C17.8897 58.0941 17.8531 58.0349 17.8375 57.9689C17.8375 57.9689 17.693 57.1253 17.5725 55.8722C17.452 54.619 17.2592 52.9562 17.1869 51.2933C17.1869 50.4498 17.1869 49.6063 17.1869 48.8834C17.1869 48.1604 17.1869 47.3652 17.1869 46.7386C17.1869 45.4613 17.1869 44.6419 17.1869 44.6419C17.1867 44.6018 17.1949 44.5621 17.2109 44.5254C17.2269 44.4886 17.2505 44.4556 17.2799 44.4284C17.3094 44.4012 17.3442 44.3804 17.3821 44.3674C17.42 44.3544 17.4602 44.3493 17.5002 44.3527C17.5464 44.3793 17.5843 44.4181 17.6098 44.4649C17.6354 44.5117 17.6474 44.5646 17.6448 44.6178V44.5937ZM12.0537 46.2807C12.0537 46.2807 12.1983 47.0036 12.367 48.064C12.367 48.6183 12.5357 49.2448 12.608 49.9196C12.6803 50.5944 12.7526 51.3174 12.8249 52.0404C12.8249 53.4863 12.9936 54.9323 13.0177 56.0167C13.0418 57.1012 13.0177 57.8483 13.0177 57.8483C13.0146 57.8863 13.0041 57.9234 12.9867 57.9573C12.9693 57.9912 12.9454 58.0214 12.9163 58.0461C12.8871 58.0707 12.8534 58.0894 12.817 58.1009C12.7807 58.1125 12.7425 58.1167 12.7044 58.1134C12.6396 58.1089 12.5782 58.0827 12.5301 58.0389C12.482 57.9952 12.45 57.9366 12.4393 57.8724C12.4393 57.8724 12.2947 57.1494 12.126 56.089C11.9573 55.0287 11.8127 53.5587 11.6922 52.1368C11.6922 51.4138 11.6923 50.6908 11.5477 50.016C11.4031 49.3413 11.5477 48.6906 11.5477 48.1363C11.5477 47.0518 11.5477 46.3288 11.5477 46.3288C11.5475 46.2888 11.5557 46.2491 11.5717 46.2124C11.5877 46.1756 11.6112 46.1425 11.6407 46.1153C11.6701 46.0882 11.7049 46.0674 11.7428 46.0544C11.7808 46.0413 11.821 46.0363 11.861 46.0397C11.9144 46.0617 11.9607 46.0982 11.9947 46.145C12.0288 46.1918 12.0492 46.247 12.0537 46.3047V46.2807ZM6.6555 48.5701C6.6555 48.5701 6.80006 49.1726 6.99285 50.0883C6.99285 50.5221 7.18568 51.0523 7.25798 51.6307C7.33028 52.2091 7.42664 52.8116 7.52304 53.4141C7.69173 54.6431 7.76409 55.824 7.81229 56.7879C7.86049 57.7519 7.81229 58.3303 7.81229 58.3303C7.81243 58.3704 7.80418 58.4101 7.78817 58.4468C7.77215 58.4836 7.74864 58.5166 7.71918 58.5438C7.68972 58.571 7.65495 58.5918 7.61703 58.6048C7.57911 58.6178 7.53894 58.6229 7.49899 58.6195C7.43746 58.6163 7.37855 58.5935 7.33086 58.5545C7.28318 58.5155 7.24918 58.4623 7.23386 58.4026C7.23386 58.4026 7.0652 57.8002 6.89651 56.9085C6.72781 56.0168 6.48679 54.7636 6.3422 53.5586C6.3422 52.9321 6.22168 52.3296 6.17348 51.7512C6.12528 51.1728 6.17348 50.6426 6.17348 50.1848C6.17348 49.269 6.17348 48.6424 6.17348 48.6424C6.17334 48.6023 6.18159 48.5626 6.19761 48.5259C6.21362 48.4891 6.23706 48.4561 6.26652 48.4289C6.29598 48.4017 6.33083 48.3809 6.36875 48.3679C6.40666 48.3549 6.44683 48.3498 6.48679 48.3532C6.53127 48.378 6.56958 48.4126 6.59879 48.4543C6.62801 48.496 6.6474 48.5439 6.6555 48.5942V48.5701Z" fill="#F18380"/>
<path d="M112.958 165.179L164.455 187.042C171.474 190.319 179.763 187.458 182.916 179.268C183.493 177.742 183.532 175.246 183.46 173.615C183.389 171.985 182.987 170.386 182.279 168.916C181.571 167.445 180.26 164.795 179.03 163.722C177.8 162.65 173.417 160.67 171.864 160.169L113.93 144.289L112.958 165.179Z" fill="#003399"/>
<defs>
<filter id="filter0_d_1_1977" x="84.6493" y="115.427" width="47.7623" height="60.624" filterUnits="userSpaceOnUse" color-interpolation-filters="sRGB">
<feFlood flood-opacity="0" result="BackgroundImageFix"/>
<feColorMatrix in="SourceAlpha" type="matrix" values="0 0 0 0 0 0 0 0 0 0 0 0 0 0 0 0 0 0 127 0" result="hardAlpha"/>
<feOffset dx="2"/>
<feComposite in2="hardAlpha" operator="out"/>
<feColorMatrix type="matrix" values="0 0 0 0 0.603922 0 0 0 0 0.6 0 0 0 0 0.631373 0 0 0 1 0"/>
<feBlend mode="normal" in2="BackgroundImageFix" result="effect1_dropShadow_1_1977"/>
<feBlend mode="normal" in="SourceGraphic" in2="effect1_dropShadow_1_1977" result="shape"/>
</filter>
</defs>
</svg>
