<svg width="194" height="524" viewBox="0 0 194 524" fill="none" xmlns="http://www.w3.org/2000/svg">
    <path d="M54.5457 21.8182C53.0638 27.4879 52.1848 33.2982 51.9233 39.1525C51.6124 44.0251 50.0004 48.7252 47.2554 52.7629C44.6329 56.1459 41.1975 59.6599 42.4563 70.1497H109.617C109.617 70.1497 112.239 64.9048 109.092 55.9098C105.386 44.8053 102.657 33.398 100.937 21.8182H54.5457Z" fill="#BC664A"/>
    <path d="M67.396 52.7631V75.0275C67.396 75.0275 69.153 82.7113 80.9278 82.7113C83.2654 82.9084 85.5898 82.203 87.4236 80.7399C89.2574 79.2768 90.4613 77.167 90.7882 74.844V52.7631H67.396Z" fill="#FBBEAA"/>
    <path d="M90.7882 71.4086C83.3929 74.8964 72.6146 71.7757 67.396 62.0989V52.7631H90.7882V71.4086Z" fill="#F18380"/>
    <path d="M105.395 35.7432C105.507 41.0765 105.27 46.4114 104.687 51.7138C103.716 59.2664 101.041 67.6582 87.6408 67.6582C74.2401 67.6582 67.4481 61.6266 64.5634 51.7138C62.8326 45.7084 59.3185 36.8708 60.7608 26.6171C62.2032 16.3634 68.3659 9.7024 82.9204 9.30903C97.475 8.91566 106.994 15.4717 105.395 35.7432Z" fill="#FBBEAA"/>
    <path d="M77.0724 40.3065C77.1656 40.6927 77.3653 41.045 77.6488 41.3235C77.9322 41.6019 78.2881 41.7952 78.676 41.8815C79.0638 41.9678 79.468 41.9435 79.8427 41.8116C80.2175 41.6796 80.5478 41.4452 80.796 41.135C81.0442 40.8247 81.2004 40.4511 81.2469 40.0565C81.2933 39.6619 81.2282 39.2622 81.0589 38.9028C80.8896 38.5433 80.6228 38.2386 80.289 38.0232C79.9551 37.8078 79.5677 37.6903 79.1704 37.6841C78.8583 37.7132 78.5553 37.8049 78.2794 37.9536C78.0036 38.1024 77.7605 38.3052 77.5647 38.5499C77.3689 38.7947 77.2244 39.0763 77.1398 39.3781C77.0552 39.6799 77.0323 39.9957 77.0724 40.3065Z" fill="#403D4F"/>
    <path d="M96.5046 40.3065C96.5979 40.6927 96.7975 41.045 97.081 41.3235C97.3644 41.6019 97.7203 41.7952 98.1081 41.8815C98.4959 41.9678 98.9002 41.9435 99.2749 41.8116C99.6497 41.6796 99.98 41.4452 100.228 41.135C100.476 40.8247 100.633 40.4511 100.679 40.0565C100.726 39.6619 100.66 39.2622 100.491 38.9028C100.322 38.5433 100.055 38.2386 99.7212 38.0232C99.3874 37.8078 98.9998 37.6903 98.6025 37.6841C98.2918 37.7167 97.9907 37.8106 97.7166 37.9604C97.4425 38.1103 97.2008 38.3131 97.0057 38.557C96.8105 38.8009 96.6658 39.0812 96.5798 39.3815C96.4937 39.6818 96.4682 39.9963 96.5046 40.3065Z" fill="#403D4F"/>
    <path d="M83.3924 32.8852C83.3924 32.8852 83.3924 32.8852 83.1826 32.6754C82.9711 32.4698 82.7329 32.2934 82.4745 32.151C82.1436 31.9616 81.7915 31.812 81.4256 31.7051C80.5724 31.4709 79.6858 31.3822 78.8031 31.4429C78.432 31.462 78.0633 31.5147 77.7017 31.6002L76.679 31.8887C76.5101 31.9431 76.369 32.0612 76.2858 32.2178C76.2025 32.3745 76.1836 32.5575 76.2331 32.7279C76.2764 32.862 76.3602 32.9793 76.4729 33.0638C76.5856 33.1484 76.7217 33.1959 76.8625 33.1999H78.8294C79.1698 33.1741 79.5116 33.1741 79.8521 33.1999C80.1891 33.2309 80.5227 33.2924 80.8486 33.3835C81.1895 33.3835 81.4256 33.5671 81.6878 33.5933C81.8742 33.6717 82.0673 33.7332 82.2648 33.7769H82.5008C82.6644 33.848 82.8495 33.8522 83.0162 33.7885C83.1829 33.7247 83.318 33.5982 83.3924 33.436C83.4313 33.3448 83.4514 33.2466 83.4514 33.1475C83.4514 33.0483 83.4313 32.9502 83.3924 32.859V32.8852Z" fill="#403D4F"/>
    <path d="M96.1635 33.8815C96.1635 33.8815 96.1635 33.8815 96.3209 33.8815L96.7142 33.7241H97.0027C97.1064 33.7014 97.2137 33.7014 97.3174 33.7241C97.5492 33.6476 97.7856 33.5862 98.0254 33.5406C98.2694 33.5133 98.5157 33.5133 98.7597 33.5406H100.255C100.343 33.5406 100.43 33.5229 100.512 33.4883C100.593 33.4537 100.666 33.4031 100.728 33.3394C100.789 33.2757 100.837 33.2003 100.868 33.1177C100.899 33.0351 100.914 32.947 100.91 32.8587C100.905 32.7286 100.863 32.6027 100.789 32.4958C100.714 32.3889 100.611 32.3056 100.491 32.2556L99.6776 31.9671C99.3875 31.8803 99.0883 31.8275 98.786 31.8098C98.4294 31.7577 98.0673 31.7577 97.7107 31.8098C97.0261 31.8956 96.3755 32.1576 95.8226 32.5703L95.3243 33.0685C95.1932 33.2259 95.1932 33.2783 95.1932 33.3046V33.5406C95.1702 33.7207 95.2172 33.9027 95.3246 34.0492C95.4319 34.1956 95.5915 34.2952 95.7702 34.3273C95.9498 34.2298 96.0892 34.0719 96.1635 33.8815Z" fill="#403D4F"/>
    <path d="M90.7879 49.2492C91.23 49.2467 91.6669 49.1548 92.0725 48.979C92.4781 48.8033 92.844 48.5473 93.1481 48.2265C93.2592 48.1076 93.3445 47.967 93.3987 47.8136C93.4529 47.6601 93.4747 47.4972 93.4628 47.3349C93.4628 47.0464 93.017 43.4274 92.8596 42.09C92.8295 41.9606 92.7556 41.8456 92.6505 41.7644C92.5454 41.6832 92.4155 41.6407 92.2828 41.6442C92.1481 41.6638 92.0264 41.7349 91.9432 41.8425C91.86 41.9502 91.8219 42.0859 91.8369 42.2211C91.8369 42.4047 92.4138 47.1513 92.4663 47.466C92.2516 47.7037 91.9882 47.8923 91.6941 48.019C91.3999 48.1457 91.0819 48.2075 90.7617 48.2003C90.6272 48.207 90.5004 48.2652 90.4076 48.3629C90.3149 48.4605 90.2633 48.5901 90.2634 48.7248C90.2698 48.8618 90.3271 48.9915 90.4241 49.0885C90.5211 49.1856 90.6509 49.2429 90.7879 49.2492Z" fill="#F18380"/>
    <path d="M93.2004 54.4153C94.1707 54.6513 94.5378 56.1199 93.9347 57.8244C93.3397 58.9981 92.3664 59.9368 91.172 60.4888C89.9775 61.0408 88.6318 61.1739 87.3524 60.8665C86.654 60.8333 85.9692 60.6608 85.3384 60.3591C84.7076 60.0574 84.1435 59.6326 83.6793 59.1097C83.215 58.5868 82.86 57.9764 82.6351 57.3143C82.4102 56.6523 82.32 55.9519 82.3697 55.2544C82.3697 54.1268 83.1565 53.4712 84.6251 53.4712C87.5047 53.5481 90.373 53.8638 93.2004 54.4153Z" fill="#73102A"/>
    <path d="M82.3697 55.3856V55.1496C84.2892 54.706 86.3053 54.9987 88.0193 55.9699C89.7334 56.941 91.0208 58.52 91.627 60.3945C90.2779 61.0556 88.7603 61.2933 87.2737 61.0763C86.5749 61.0335 85.8917 60.8511 85.2645 60.5401C84.6372 60.229 84.0786 59.7955 83.6216 59.2652C83.1646 58.7348 82.8184 58.1183 82.6034 57.452C82.3884 56.7857 82.3089 56.0831 82.3697 55.3856Z" fill="#D65155"/>
    <path d="M92.3611 55.9888C89.0399 56.0403 85.7335 55.535 82.5793 54.494C82.7769 54.1367 83.0782 53.8477 83.4434 53.6652C83.8085 53.4826 84.2205 53.415 84.6248 53.4713C87.5045 53.5481 90.3728 53.8639 93.2002 54.4153C93.4713 54.5088 93.7086 54.6809 93.8814 54.9098C94.0542 55.1387 94.1548 55.4139 94.1705 55.7003C93.59 55.9063 92.9768 56.0041 92.3611 55.9888Z" fill="white"/>
    <path d="M77.7809 25.4376C77.7809 25.4376 75.1585 38.5498 64.0393 43.6373C64.0393 43.6373 52.7104 37.055 54.0216 24.4936C55.6476 9.02118 77.6236 -8.3918 99.4947 8.0771C101.619 7.73619 103.927 3.25182 103.245 0C104.139 0.561738 104.842 1.38019 105.264 2.34832C105.685 3.31644 105.804 4.38916 105.606 5.42616C105.407 6.46315 104.901 7.41615 104.152 8.1605C103.403 8.90486 102.447 9.40591 101.409 9.59812C104.979 10.0955 108.219 11.9527 110.452 14.7821C112.685 17.6115 113.739 21.1941 113.394 24.782C113.282 27.0441 112.34 29.1855 110.748 30.7967C109.156 32.4078 107.026 33.3755 104.766 33.5147H100.911C97.9285 32.1479 95.5169 29.7827 94.0924 26.8275C94.4634 29.0551 95.2365 31.1967 96.374 33.1476C96.5838 33.541 96.1117 34.2228 92.8861 33.541C89.183 32.2672 86.088 29.6584 84.2059 26.2244C84.9109 28.4761 85.8515 30.6473 87.0119 32.7018C87.0119 33.0951 85.3073 33.6721 82.7897 32.5182C81.3875 31.9085 80.1792 30.9261 79.2961 29.6777C78.413 28.4294 77.8889 26.9629 77.7809 25.4376Z" fill="#BC664A"/>
    <path d="M94.9838 35.7435C94.0397 35.7435 93.6726 37.4743 93.6726 39.1265C93.769 41.3643 94.4371 43.5402 95.6132 45.4465C96.0944 46.0218 96.7184 46.4603 97.4227 46.7181C98.1269 46.9759 98.8867 47.0438 99.6255 46.9151C100.525 47.0543 101.444 46.9949 102.319 46.7412C103.193 46.4875 104.001 46.0456 104.687 45.4465C106.13 43.6386 106.99 41.4344 107.152 39.1265C107.152 37.4743 106.654 35.7435 105.474 35.7435H94.9838Z" stroke="#403D4F" stroke-width="0.75" stroke-miterlimit="10"/>
    <path d="M87.0639 35.7435C88.3226 35.7435 88.8209 37.4743 88.8209 39.1265C88.649 41.4603 87.7294 43.6766 86.1985 45.4465C85.4737 46.0414 84.6333 46.4791 83.7304 46.7319C82.8275 46.9847 81.8819 47.0471 80.9536 46.9151C78.5966 47.2182 76.207 46.6996 74.1877 45.4465C72.3461 43.8216 71.1771 41.5679 70.9097 39.1265C70.9097 37.4743 71.5391 35.7435 73.1388 35.7435H87.0639Z" stroke="#403D4F" stroke-width="0.75" stroke-miterlimit="10"/>
    <path d="M93.8828 37.317C93.1292 36.7428 92.2079 36.4318 91.2604 36.4318C90.3129 36.4318 89.3916 36.7428 88.6379 37.317" stroke="#403D4F" stroke-width="0.75" stroke-miterlimit="10"/>
    <path d="M73.0871 35.7435H69.8877C69.2059 35.7435 68.4192 35.9009 68.4192 36.8187V38.2873C68.4192 38.6544 70.7532 39.3887 71.0416 40.2017" stroke="#403D4F" stroke-width="0.75" stroke-miterlimit="10"/>
    <path d="M61.4431 39.5726L68.4188 36.8191" stroke="#403D4F" stroke-width="0.75" stroke-miterlimit="10"/>
    <path d="M65.0348 45.5779C64.825 42.0113 63.8809 37.8417 59.5277 38.4711C54.4401 39.2578 53.9419 53.0256 64.7725 51.3734L65.0348 45.5779Z" fill="#FBBEAA"/>
    <path d="M59.1614 46.4958C59.2526 46.4971 59.3424 46.4733 59.4211 46.427C59.4997 46.3808 59.5641 46.3139 59.6072 46.2335C59.7225 46.0065 59.8938 45.8127 60.1049 45.6704C60.316 45.5282 60.5599 45.4422 60.8136 45.4206C61.1162 45.4239 61.4128 45.5053 61.6747 45.6569C61.9366 45.8085 62.1548 46.0252 62.3084 46.286C62.3711 46.3757 62.4615 46.4423 62.5657 46.4755C62.67 46.5086 62.7823 46.5066 62.8853 46.4696C62.9963 46.4388 63.0924 46.3685 63.1552 46.2719C63.2179 46.1753 63.2432 46.059 63.2262 45.9451C63.1808 44.842 62.8374 43.7719 62.2325 42.8484C61.6276 41.9249 60.7839 41.1826 59.7908 40.7002C59.7241 40.6606 59.6494 40.6362 59.5721 40.629C59.4948 40.6217 59.4169 40.6317 59.3439 40.6582C59.2709 40.6847 59.2048 40.727 59.1502 40.7822C59.0955 40.8374 59.0539 40.904 59.0281 40.9773C59.0024 41.0505 58.9932 41.1286 59.0013 41.2058C59.0094 41.283 59.0345 41.3574 59.0749 41.4237C59.1152 41.4901 59.1698 41.5466 59.2347 41.5893C59.2995 41.632 59.373 41.6597 59.4499 41.6705C60.0393 41.957 60.5642 42.3605 60.9925 42.8564C61.4208 43.3524 61.7436 43.9304 61.9413 44.5552C61.5753 44.3747 61.1684 44.2933 60.7611 44.3192C60.3372 44.3593 59.9295 44.502 59.5731 44.735C59.2167 44.9681 58.9224 45.2844 58.7156 45.6566C58.6582 45.7758 58.6479 45.9122 58.6868 46.0387C58.7257 46.1651 58.8109 46.2722 58.9254 46.3384L59.1614 46.4958Z" fill="#F18380"/>
    <path d="M171.287 80.3559C171.389 78.1209 170.791 75.9097 169.576 74.0313C167.705 71.8617 166.303 69.3283 165.458 66.5905C164.809 64.0491 163.772 61.623 162.383 59.3977C161.391 58.0335 159.903 56.9175 159.903 55.8757C159.903 54.834 161.887 52.825 164.714 53.3955C165.925 53.7728 167.038 54.4131 167.973 55.2707C168.908 56.1282 169.641 57.1818 170.121 58.356C170.392 57.6406 170.551 56.8877 170.592 56.1238L171.213 40.9198C171.222 40.5256 171.31 40.1374 171.472 39.7779C171.634 39.4184 171.867 39.0951 172.156 38.8269C172.445 38.5587 172.784 38.3512 173.155 38.2165C173.525 38.0818 173.919 38.0227 174.313 38.0427C174.94 38.0694 175.543 38.292 176.036 38.679C176.53 39.0661 176.89 39.5982 177.066 40.2005V39.506C177.161 38.7669 177.533 38.0913 178.106 37.6147C178.679 37.1382 179.411 36.8959 180.155 36.9367C180.899 36.9776 181.6 37.2984 182.118 37.8347C182.635 38.3711 182.93 39.0834 182.944 39.8285V41.9367C183.193 41.2867 183.666 40.7476 184.279 40.4177C184.892 40.0878 185.602 39.989 186.282 40.1393C186.961 40.2896 187.564 40.679 187.98 41.2366C188.396 41.7941 188.599 42.4827 188.55 43.1768V44.5161C188.817 44.047 189.214 43.6658 189.695 43.4191C190.175 43.1725 190.716 43.071 191.253 43.1272C191.988 43.2205 192.658 43.5963 193.121 44.175C193.584 44.7537 193.804 45.4898 193.733 46.2275L192.518 59.0505C191.722 66.2799 190.227 73.415 188.054 80.3559C188.027 81.5148 187.759 82.6553 187.265 83.7043C186.772 84.7532 186.065 85.6873 185.189 86.4465C184.313 87.2057 183.287 87.7731 182.179 88.1125C181.071 88.4518 179.903 88.5554 178.753 88.4167C177.711 88.4515 176.674 88.2619 175.713 87.8607C174.751 87.4595 173.887 86.8562 173.179 86.0916C172.47 85.3271 171.935 84.4192 171.609 83.4296C171.282 82.4399 171.173 81.3917 171.287 80.3559Z" fill="#FBBEAA"/>
    <path d="M87.7026 485.134C87.7026 482.746 88.6512 480.456 90.3397 478.768C92.0281 477.079 94.3182 476.131 96.706 476.131C99.0938 476.131 101.384 477.079 103.072 478.768C104.761 480.456 105.709 482.746 105.709 485.134V504.703H87.7026V485.134Z" fill="#FBBEAA"/>
    <path d="M105.065 488.78C107.272 488.78 107.669 489.748 108.314 491.012C109.36 494.383 111.148 497.477 113.547 500.065C117.129 503.116 120.971 505.847 125.031 508.225V518.593H84.9497C84.9497 518.593 85.2225 510.408 85.421 504.629C85.6194 498.85 86.1899 491.806 86.1403 491.062C86.0907 490.318 86.1402 488.78 87.5044 488.78H105.065Z" fill="#302D3B"/>
    <path d="M89.9346 505.199C89.9297 506.472 90.303 507.717 91.0069 508.777C91.7109 509.838 92.7139 510.665 93.8887 511.154C95.0636 511.643 96.3572 511.773 97.6056 511.526C98.8541 511.279 100.001 510.666 100.901 509.766C101.801 508.866 102.413 507.72 102.66 506.471C102.907 505.223 102.778 503.929 102.289 502.754C101.799 501.579 100.972 500.576 99.9119 499.872C98.8517 499.168 97.6064 498.795 96.3337 498.8C94.6386 498.807 93.0147 499.483 91.8161 500.682C90.6174 501.88 89.9412 503.504 89.9346 505.199Z" fill="#93929C"/>
    <path d="M96.3334 501.429L94.8701 503.587L92.365 504.306L93.9524 506.365L93.8779 508.969L96.3334 508.076L98.7889 508.969L98.6897 506.365L100.302 504.306L97.7968 503.587L96.3334 501.429Z" fill="white"/>
    <path d="M124.758 508.052C124.758 508.052 130.437 511.053 132.57 512.516C133.558 513.185 134.36 514.094 134.902 515.156C135.444 516.219 135.709 517.401 135.671 518.593H120.095C120.095 518.593 120.417 510.979 124.758 508.052Z" fill="white"/>
    <path d="M84.9497 518.593V522.884C84.9497 523.603 85.5946 524 86.6859 524H133.96C135.026 524 135.671 523.603 135.671 522.884V518.593H84.9497Z" fill="white"/>
    <path d="M120.095 505.15C120.232 504.939 120.446 504.79 120.691 504.734C120.937 504.679 121.194 504.721 121.409 504.852C121.516 504.918 121.609 505.005 121.682 505.107C121.755 505.209 121.807 505.324 121.834 505.447C121.862 505.569 121.865 505.696 121.843 505.82C121.821 505.943 121.775 506.061 121.707 506.167L120.045 508.845C119.965 508.984 119.849 509.099 119.709 509.177C119.57 509.256 119.411 509.296 119.251 509.292C119.068 509.289 118.888 509.238 118.73 509.143C118.623 509.077 118.531 508.991 118.458 508.889C118.385 508.787 118.333 508.671 118.305 508.548C118.277 508.426 118.274 508.299 118.296 508.176C118.318 508.052 118.365 507.934 118.433 507.829L120.095 505.15Z" fill="white"/>
    <path d="M117.168 503.091C117.249 502.997 117.348 502.919 117.46 502.863C117.571 502.807 117.693 502.773 117.817 502.764C117.941 502.755 118.066 502.77 118.185 502.809C118.303 502.848 118.413 502.91 118.507 502.992C118.602 503.073 118.679 503.172 118.735 503.284C118.791 503.395 118.825 503.517 118.834 503.641C118.843 503.765 118.828 503.89 118.789 504.009C118.75 504.127 118.688 504.237 118.606 504.331L116.672 506.613C116.582 506.718 116.472 506.802 116.349 506.862C116.225 506.922 116.09 506.955 115.952 506.96C115.773 506.957 115.598 506.904 115.447 506.806C115.296 506.709 115.175 506.571 115.097 506.409C115.02 506.247 114.99 506.066 115.009 505.888C115.029 505.709 115.098 505.539 115.208 505.398L117.168 503.091Z" fill="white"/>
    <path d="M114.415 500.785C114.612 500.658 114.849 500.607 115.081 500.641C115.314 500.676 115.525 500.793 115.677 500.973C115.829 501.152 115.91 501.38 115.906 501.614C115.902 501.849 115.813 502.074 115.655 502.248L113.448 504.158C113.275 504.305 113.055 504.384 112.828 504.381C112.691 504.386 112.555 504.36 112.431 504.304C112.306 504.248 112.196 504.164 112.109 504.059C112.017 503.973 111.944 503.869 111.894 503.754C111.844 503.639 111.818 503.515 111.818 503.389C111.818 503.264 111.844 503.139 111.894 503.024C111.944 502.909 112.017 502.805 112.109 502.719L114.415 500.785Z" fill="white"/>
    <path d="M109.578 499.644L112.059 498.106C112.276 497.977 112.536 497.939 112.782 497.999C113.027 498.059 113.24 498.213 113.373 498.428C113.44 498.535 113.485 498.655 113.505 498.779C113.525 498.904 113.52 499.031 113.49 499.154C113.46 499.276 113.406 499.392 113.33 499.493C113.255 499.594 113.16 499.679 113.051 499.743L110.57 501.281C110.423 501.378 110.251 501.43 110.074 501.429C109.913 501.426 109.755 501.38 109.616 501.298C109.477 501.215 109.361 501.098 109.281 500.958C109.15 500.743 109.107 500.486 109.163 500.241C109.218 499.995 109.367 499.781 109.578 499.644Z" fill="white"/>
    <path d="M107.495 496.444L110.272 495.279C110.509 495.18 110.776 495.18 111.013 495.277C111.25 495.375 111.439 495.563 111.537 495.8C111.586 495.915 111.611 496.039 111.611 496.164C111.611 496.29 111.586 496.414 111.537 496.529C111.489 496.644 111.418 496.749 111.328 496.837C111.239 496.924 111.133 496.993 111.017 497.04L108.239 498.205H107.867C107.653 498.194 107.449 498.112 107.286 497.972C107.124 497.832 107.013 497.642 106.97 497.432C106.928 497.222 106.956 497.003 107.051 496.811C107.146 496.619 107.302 496.464 107.495 496.37V496.444Z" fill="white"/>
    <path d="M105.759 492.873L108.834 492.104C109.077 492.044 109.334 492.084 109.548 492.215C109.762 492.345 109.916 492.555 109.975 492.798C110.034 493.042 109.994 493.298 109.864 493.512C109.734 493.726 109.524 493.88 109.281 493.939L106.23 494.733H106.007C105.793 494.73 105.586 494.659 105.416 494.529C105.246 494.4 105.123 494.219 105.064 494.013C105.011 493.77 105.053 493.516 105.183 493.304C105.312 493.091 105.518 492.937 105.759 492.873Z" fill="white"/>
    <path d="M74.5322 359.98C74.8051 347.976 82.8907 342.172 94.8703 342.47C106.85 342.767 115.481 349.043 115.208 361.022L105.709 486.102H87.7024L74.5322 359.98Z" fill="#FBBEAA"/>
    <path d="M11.8062 485.134C11.8062 482.746 12.7547 480.456 14.4432 478.768C16.1316 477.079 18.4217 476.131 20.8095 476.131C23.1973 476.131 25.4874 477.079 27.1758 478.768C28.8643 480.456 29.8129 482.746 29.8129 485.134V504.703H11.8062V485.134Z" fill="#FBBEAA"/>
    <path d="M29.1438 488.78C31.3761 488.78 31.7729 489.748 32.393 491.012C33.4508 494.384 35.2471 497.476 37.6511 500.065C41.2282 503.122 45.0714 505.853 49.1347 508.225V518.593H9.05371C9.05371 518.593 9.32655 510.408 9.52497 504.629C9.72339 498.85 10.2691 491.806 10.2443 491.062C10.2195 490.318 10.2442 488.78 11.5836 488.78H29.1438Z" fill="#302D3B"/>
    <path d="M14.0142 505.199C14.0093 506.471 14.3819 507.715 15.0848 508.775C15.7876 509.834 16.7892 510.662 17.9625 511.152C19.1359 511.642 20.4283 511.772 21.676 511.527C22.9238 511.282 24.0707 510.672 24.9716 509.775C25.8725 508.878 26.4868 507.733 26.7367 506.486C26.9865 505.24 26.8608 503.947 26.3753 502.771C25.8898 501.596 25.0665 500.591 24.0096 499.884C22.9526 499.177 21.7097 498.8 20.4381 498.8C18.7387 498.8 17.1085 499.473 15.9045 500.673C14.7005 501.872 14.0208 503.5 14.0142 505.199Z" fill="#93929C"/>
    <path d="M20.413 501.429L18.9497 503.587L16.4446 504.306L18.0568 506.365L17.9824 508.969L20.413 508.076L22.8685 508.969L22.7941 506.365L24.4062 504.306L21.8764 503.587L20.413 501.429Z" fill="white"/>
    <path d="M48.8364 508.052C48.8364 508.052 54.541 511.053 56.6492 512.516C57.6418 513.18 58.4478 514.087 58.9905 515.151C59.5332 516.215 59.7945 517.4 59.7496 518.593H44.0991C44.0991 518.593 44.5208 510.979 48.8364 508.052Z" fill="white"/>
    <path d="M9.05371 518.593V522.884C9.05371 523.603 9.67378 524 10.7651 524H58.0885C59.1798 524 59.7998 523.603 59.7998 522.884V518.593H9.05371Z" fill="white"/>
    <path d="M44.1986 505.15C44.3334 504.936 44.5477 504.785 44.7942 504.729C45.0407 504.673 45.2993 504.717 45.5131 504.852C45.7269 504.987 45.8783 505.201 45.9342 505.448C45.99 505.694 45.9456 505.953 45.8107 506.167L44.149 508.846C44.063 508.985 43.9423 509.099 43.7988 509.177C43.6553 509.255 43.4939 509.295 43.3305 509.292C43.1541 509.292 42.9815 509.241 42.8344 509.143C42.7275 509.077 42.6348 508.991 42.5617 508.889C42.4887 508.787 42.4367 508.671 42.409 508.549C42.3813 508.426 42.3783 508.299 42.4002 508.176C42.4222 508.052 42.4686 507.934 42.5368 507.829L44.1986 505.15Z" fill="white"/>
    <path d="M41.2467 503.091C41.4102 502.901 41.6414 502.781 41.8913 502.758C42.1412 502.735 42.3903 502.81 42.586 502.967C42.7781 503.135 42.8981 503.37 42.9212 503.624C42.9443 503.878 42.8687 504.132 42.7101 504.331L40.7506 506.613C40.6647 506.721 40.5553 506.809 40.4308 506.869C40.3062 506.929 40.1697 506.96 40.0314 506.96C39.8496 506.962 39.6711 506.911 39.5175 506.814C39.3639 506.717 39.2417 506.577 39.1657 506.412C39.0897 506.247 39.063 506.063 39.089 505.883C39.115 505.703 39.1924 505.535 39.3121 505.398L41.2467 503.091Z" fill="white"/>
    <path d="M38.519 500.785C38.7163 500.658 38.9531 500.607 39.1853 500.641C39.4175 500.676 39.6292 500.793 39.781 500.973C39.9327 501.152 40.0142 501.38 40.0102 501.614C40.0061 501.849 39.9169 502.074 39.7591 502.248L37.5269 504.158C37.3538 504.305 37.1336 504.384 36.9068 504.381C36.7705 504.384 36.6352 504.357 36.5108 504.301C36.3864 504.245 36.2759 504.163 36.1875 504.059C36.099 503.971 36.0288 503.867 35.9808 503.752C35.9329 503.637 35.9082 503.514 35.9082 503.389C35.9082 503.265 35.9329 503.141 35.9808 503.026C36.0288 502.911 36.099 502.807 36.1875 502.719L38.519 500.785Z" fill="white"/>
    <path d="M33.6824 499.644L36.1626 498.106C36.3766 498.016 36.6159 498.005 36.8368 498.077C37.0578 498.148 37.2456 498.297 37.3659 498.496C37.4863 498.694 37.5312 498.93 37.4924 499.159C37.4537 499.388 37.3338 499.595 37.1547 499.743L34.6745 501.281C34.5275 501.378 34.3548 501.43 34.1784 501.429C34.0131 501.427 33.8511 501.383 33.7078 501.301C33.5645 501.218 33.4447 501.1 33.3599 500.958C33.2311 500.74 33.1927 500.481 33.2529 500.235C33.3132 499.989 33.4674 499.777 33.6824 499.644Z" fill="white"/>
    <path d="M170.99 82.0179L161.069 144.297C159.432 152.11 161.961 159.179 170.99 160.419C172.656 160.636 174.349 160.512 175.966 160.055C177.584 159.597 179.091 158.816 180.397 157.758C181.703 156.701 182.78 155.388 183.563 153.902C184.347 152.415 184.82 150.784 184.953 149.109L187.979 82.1419C188.773 75.8172 186.02 71.6008 181.208 71.08C175.305 70.4351 172.18 73.9323 170.99 82.0179Z" fill="#FBBEAA"/>
    <path d="M31.5992 496.445L34.3771 495.279C34.4926 495.23 34.6165 495.206 34.7418 495.206C34.867 495.206 34.9909 495.231 35.1064 495.279C35.2219 495.328 35.3265 495.399 35.4142 495.488C35.5019 495.577 35.5709 495.683 35.6172 495.8C35.7098 496.031 35.71 496.288 35.6176 496.519C35.5252 496.75 35.3474 496.937 35.1212 497.04L32.3185 498.206C32.2041 498.231 32.0855 498.231 31.9712 498.206C31.7802 498.206 31.5935 498.149 31.4346 498.043C31.2757 497.937 31.1518 497.787 31.0783 497.61C31.003 497.386 31.0148 497.142 31.1113 496.926C31.2078 496.71 31.3819 496.538 31.5992 496.445Z" fill="white"/>
    <path d="M29.8625 492.873L32.9133 492.104C33.1598 492.044 33.4202 492.083 33.6383 492.212C33.8564 492.342 34.0147 492.553 34.079 492.798C34.1086 492.919 34.114 493.044 34.0951 493.167C34.0762 493.289 34.0332 493.407 33.9687 493.513C33.9042 493.619 33.8194 493.711 33.7191 493.784C33.6189 493.858 33.5051 493.91 33.3845 493.939L30.3338 494.733H30.0858C29.8623 494.716 29.6517 494.622 29.49 494.466C29.3283 494.311 29.2255 494.105 29.1991 493.882C29.1727 493.66 29.2245 493.435 29.3455 493.246C29.4665 493.058 29.6493 492.917 29.8625 492.848V492.873Z" fill="white"/>
    <path d="M21.6533 359.608C22.8717 353.978 26.2759 349.062 31.1176 345.942C35.9593 342.821 41.8422 341.75 47.4729 342.966C59.2045 345.446 65.5291 357.004 62.9993 368.736L29.8134 488.16H11.5835L21.6533 359.608Z" fill="#FBBEAA"/>
    <path d="M72.9692 359.2C73.036 356.35 73.6635 353.541 74.8158 350.933C75.9681 348.326 77.6228 345.971 79.6852 344.003C81.7477 342.035 84.1776 340.492 86.8361 339.463C89.4947 338.434 92.3299 337.939 95.1799 338.006C98.0299 338.073 100.839 338.7 103.446 339.853C106.054 341.005 108.409 342.659 110.377 344.722C112.345 346.784 113.887 349.214 114.916 351.873C115.945 354.531 116.441 357.367 116.374 360.217L122.005 488.794H72.9702L72.9692 359.2Z" fill="#93929C"/>
    <path d="M21.6562 356.546C23.0023 351.051 26.4384 346.298 31.2341 343.297C36.0298 340.296 41.8069 339.284 47.3371 340.476C52.8673 341.668 57.7145 344.97 60.8482 349.68C63.982 354.39 65.155 360.137 64.1181 365.698L50.9237 488.294C50.9237 488.294 19.3252 490.179 0.5 488.294L21.6562 356.546Z" fill="#93929C"/>
    <path d="M179.05 137.402L107.817 83.2827C99.5085 77.9749 93.8536 80.8024 89.4387 86.4822C87.4225 89.2313 86.4877 92.6258 86.8124 96.0195C87.1372 99.4132 88.6987 102.569 91.1997 104.886L162.259 157.244C164.763 159.359 167.987 160.426 171.258 160.223C174.53 160.019 177.596 158.561 179.819 156.153L180.142 155.806C181.322 154.547 182.233 153.061 182.819 151.439C183.406 149.816 183.656 148.091 183.554 146.369C183.451 144.647 182.999 142.964 182.225 141.422C181.451 139.88 180.371 138.512 179.05 137.402Z" fill="#FBBEAA"/>
    <path d="M91.1996 104.861C90.5418 104.295 89.9435 103.663 89.4138 102.976C88.9454 101.211 88.8851 99.3621 89.2375 97.5701C89.5899 95.7781 90.3457 94.0899 91.4476 92.6334C95.1928 86.8544 103.055 82.3155 106.552 83.1836L110.025 84.9446L149.337 114.708C145.858 122.885 141.158 130.486 135.398 137.253L91.1996 104.861Z" fill="#F18380"/>
    <path d="M101.939 79.4133L163.582 120.988C163.323 123.115 170.157 79.4133 170.157 79.4133L189.493 81.9297C189.493 81.9297 189.099 126.058 186.213 149.478C185.06 158.828 177.35 162.397 168.146 160.389C163.602 159.397 159.324 157.533 155.517 154.861C139.159 143.379 93.2652 111.038 89.513 106.969C83.0395 99.9499 83.0395 94.6918 86.7599 88.9128C90.4803 83.1338 98.4419 78.5452 101.939 79.4133Z" fill="#002B80"/>
    <path d="M72.9696 359.906L60.2458 226.691C60.2458 211.983 75.4002 195.961 97.7474 199.408C117.937 202.558 124.088 222.847 122.426 242.069C120.764 261.291 116.275 360.849 116.275 360.849C116.208 363.699 115.581 366.507 114.428 369.115C113.276 371.722 111.621 374.077 109.559 376.045C107.496 378.013 105.067 379.556 102.408 380.585C99.7494 381.614 96.9142 382.109 94.0642 382.042C91.2142 381.976 88.4053 381.348 85.7978 380.196C83.1903 379.043 80.8353 377.389 78.8673 375.326C76.8993 373.264 75.3568 370.834 74.3278 368.175C73.2988 365.517 72.8036 362.682 72.8704 359.832L72.9696 359.906Z" fill="#93929C"/>
    <path d="M21.6536 357.252L34.3029 224.062C36.9816 209.602 54.9634 196.779 76.2689 204.369C95.4909 211.239 97.7231 232.321 92.4649 250.899C87.2068 269.476 64.1156 366.404 64.1156 366.404C62.7695 371.899 59.3333 376.652 54.5376 379.653C49.7419 382.654 43.9649 383.666 38.4347 382.474C32.9045 381.282 28.0573 377.98 24.9235 373.27C21.7898 368.56 20.6167 362.813 21.6536 357.252Z" fill="#93929C"/>
    <path d="M92.4646 250.899C87.2312 269.476 64.1152 366.404 64.1152 366.404" stroke="#5E5D63" stroke-width="0.75" stroke-miterlimit="10"/>
    <path d="M88.7442 77.3049C88.7442 77.3049 99.707 79.2147 101.84 79.7852C103.099 80.0806 104.262 80.6907 105.221 81.5583C106.179 82.4259 106.902 83.5226 107.321 84.7457C108.686 87.9949 115.705 109.275 116.35 111.582C116.786 114.123 116.376 116.737 115.184 119.023C114.167 121.801 108.909 134.45 108.909 134.45L108.115 175.201L78.5021 179.898L50.1266 175.201C50.1266 175.201 40.2056 99.4041 39.7095 94.7164C39.2135 90.0287 41.5449 80.9758 47.1503 79.8348C52.7557 78.6939 68.1333 77.3546 68.1333 77.3546L88.7442 77.3049Z" fill="#FBBEAA"/>
    <path d="M109.505 158.816V173.142C90.1098 174.928 59.2045 173.663 47.5969 173.142C47.0512 169.05 46.4808 162.105 45.8855 157.492C61.6847 157.889 87.7783 159.361 109.505 158.816Z" fill="white"/>
    <path d="M7.21834 171.555L38.9905 87.9453C43.2317 79.0164 49.5068 78.4211 56.3523 80.9014C59.5185 82.1644 62.1085 84.5495 63.6274 87.6012C65.1464 90.6529 65.4879 94.1572 64.5867 97.4448L31.8721 179.566C30.8805 182.69 28.717 185.309 25.8358 186.872C22.9546 188.435 19.5799 188.821 16.4201 187.949L15.9488 187.825C14.2821 187.371 12.7254 186.581 11.3737 185.505C10.022 184.429 8.90368 183.089 8.08679 181.566C7.2699 180.044 6.77162 178.371 6.62231 176.65C6.473 174.929 6.6758 173.195 7.21834 171.555Z" fill="#FBBEAA"/>
    <path d="M20.3877 136.881L38.9896 87.9452C39.4885 86.872 40.0776 85.8432 40.7506 84.8697C43.0292 83.4431 45.6378 82.6295 48.3234 82.5078C51.0089 82.3861 53.6804 82.9605 56.0786 84.1752C58.8635 85.5304 61.1021 87.796 62.4237 90.597C63.7453 93.3981 64.0706 96.5665 63.3458 99.5776C63.3458 99.8752 63.1722 100.446 63.0234 101.215L43.8261 149.456C35.4409 146.432 27.5442 142.195 20.3877 136.881Z" fill="#F18380"/>
    <path d="M40.7262 83.4811L6.5 171.5C35.5039 162.219 39 168.5 46.793 142.645C46.793 142.645 64.9831 99.95 65.6776 96.1304C66.4024 93.1192 66.0771 89.9509 64.7555 87.1499C63.4339 84.3489 61.1953 82.0832 58.4104 80.728C50.6472 76.7596 42.9088 80.356 40.7262 83.4811Z" fill="#003399"/>
    <path d="M34.3025 223.418C34.8482 216.547 44.588 185.006 52.5 170C52.5 170 69.385 163.464 80.5 163.5C92.0969 163.538 107.5 172.5 107.5 172.5C112.659 184.182 119.152 212.405 120.864 217.911C121.897 221.151 122.022 224.612 121.226 227.917C120.43 231.223 118.744 234.248 116.349 236.662C110.471 243.334 95.3169 250.973 91.8197 250.973C76.7738 248.824 62.0262 244.946 47.8695 239.415C39.8831 236.067 33.7816 230.313 34.3025 223.418Z" fill="#93929C"/>
    <path d="M85.1399 158.821L26.7825 182.749C19.5593 186.124 12.0897 185.28 8.84325 176.852C8.24963 175.281 7.98135 173.606 8.05465 171.928C8.12795 170.25 8.54129 168.604 9.26967 167.091C9.99804 165.577 11.0262 164.228 12.2919 163.124C13.5575 162.02 15.0343 161.184 16.6325 160.668L81.0691 142.455C87.0345 140.227 91.7691 141.967 93.4254 146.454C95.3823 151.987 92.7177 155.728 85.1399 158.821Z" fill="#FBBEAA"/>
    <path d="M91.541 73.5021C91.541 73.5021 105.225 81.4005 107.338 82.7828C109.451 84.165 109 86.5 111.445 92.0635C112.145 93.6562 117.257 99.1937 117 108C116.3 132.019 109.174 173.576 109.174 173.576C104.901 175.881 100.357 177.646 95.6481 178.828C93.3773 179.085 91.5804 179.144 90.0402 177.643C88.5 176.143 83.9584 170.693 83.9584 170.693C83.9584 170.693 76.4747 175.767 73.0981 177.643C72.2934 178.205 71.3841 178.599 70.4242 178.803C69.4642 179.006 68.4732 179.015 67.5099 178.828C62.5931 177.821 43.2419 172.174 42.6297 171.818C42.0176 171.463 41.445 171.088 41.5042 170.416C41.5635 169.745 41.9189 92.7151 42.1756 89.2398C42.2264 87.3786 42.8121 85.5714 43.8626 84.0342C44.913 82.497 46.3839 81.2948 48.0994 80.5712C52.2264 78.7348 67.7271 72.4358 67.7271 72.4358L83.8992 83.6714L91.541 73.5021Z" fill="#003399"/>
    <path d="M91.5408 71.291L83.9385 83.6719C83.9385 83.6719 91.4025 89.5957 91.8369 90.0301C92.2713 90.4645 93.1402 90.425 93.3179 89.7339C93.4956 89.0428 95.648 75.9116 95.6875 75.9116C95.7255 75.842 95.7454 75.7639 95.7454 75.6845C95.7454 75.6052 95.7255 75.5271 95.6875 75.4575C95.49 75.3192 91.5408 71.291 91.5408 71.291Z" fill="#F5F5F5"/>
    <path d="M67.6481 69L83.9585 83.6714C83.9585 83.6714 75.3689 89.5952 74.9937 90.0296C74.8843 90.1227 74.7553 90.1897 74.6162 90.2256C74.4772 90.2615 74.3318 90.2653 74.1911 90.2368C74.0504 90.2083 73.918 90.1481 73.8039 90.0609C73.6898 89.9737 73.597 89.8618 73.5325 89.7335C72.9006 88.7264 62.7906 74.5289 62.7511 74.4104C62.7092 74.3421 62.687 74.2635 62.687 74.1834C62.687 74.1032 62.7092 74.0246 62.7511 73.9563C62.9683 73.8378 67.6481 69 67.6481 69Z" fill="#F5F5F5"/>
    <g filter="url(#filter0_d_110_18)">
        <rect x="60.4263" y="118.357" width="40.9288" height="58.3236" rx="1" transform="rotate(-6.55484 60.4263 118.357)" fill="#EFEFEF"/>
    </g>
    <path d="M79.6433 144.497C82.4897 143.294 85.0635 141.512 87.2012 139.263C88.5243 137.874 90.0248 136.669 91.6625 135.679C92.6232 135.079 93.4522 134.286 94.0976 133.352C94.9502 131.902 95.6559 130.371 96.2037 128.783C96.4067 127.415 96.872 126.096 97.5737 124.902C98.2409 124.29 100.596 124.617 101.818 126.993C102.239 128.051 102.43 129.19 102.378 130.334C102.326 131.478 102.031 132.601 101.515 133.627C100.906 134.857 100.43 136.148 100.093 137.477L100.315 137.61C102.178 136.621 104.168 135.904 106.226 135.48C106.972 135.313 107.75 135.404 108.433 135.736C109.116 136.069 109.665 136.625 109.992 137.314C110.319 138.004 110.404 138.787 110.234 139.537C110.065 140.287 109.649 140.961 109.056 141.45C112.267 141.819 111.902 146.771 109.146 147.426C109.736 147.673 110.234 148.099 110.573 148.644C110.912 149.189 111.075 149.827 111.04 150.473C111.006 151.119 110.775 151.741 110.379 152.255C109.984 152.768 109.442 153.15 108.828 153.346C110.786 155.151 109.355 158.126 105.8 158.139C102.911 158.433 95.1864 159.642 92.4987 160.221C89.8111 160.799 84.4089 159.52 82.6736 160.057C80.0905 161.003 77.0903 161.019 74.8018 154.222C72.5134 147.425 76.9851 145.375 79.6433 144.497Z" fill="#FBBEAA"/>
    <path d="M171.783 60.5139C170.841 60.5139 170.766 59.9187 170.344 58.8274C172.453 58.8274 178.579 59.2242 181.258 64.3831C178.554 60.6627 173.37 60.5139 171.783 60.5139ZM176.595 40.8951C176.595 40.8951 176.446 41.7632 176.297 43.0281C176.297 43.673 176.148 44.4418 176.099 45.2355C176.049 46.0292 175.975 46.8973 175.9 47.7158C175.9 49.452 175.776 51.1634 175.776 52.4531C175.776 53.7428 175.776 54.6109 175.776 54.6109C175.776 54.6522 175.785 54.693 175.801 54.7309C175.817 54.7687 175.842 54.8026 175.872 54.8306C175.902 54.8586 175.938 54.88 175.977 54.8935C176.016 54.9069 176.058 54.912 176.099 54.9085C176.168 54.905 176.235 54.8789 176.289 54.8342C176.343 54.7895 176.38 54.7286 176.396 54.6606C176.396 54.6606 176.545 53.7924 176.669 52.5027C176.793 51.2129 176.992 49.5016 177.066 47.7902C177.066 46.9221 177.066 46.054 177.066 45.3099C177.066 44.5659 177.066 43.7474 177.066 43.1025C177.066 41.788 177.066 40.9446 177.066 40.9446C177.066 40.9034 177.058 40.8626 177.041 40.8248C177.025 40.7869 177.001 40.7529 176.97 40.7249C176.94 40.6969 176.904 40.6756 176.865 40.6622C176.826 40.6488 176.785 40.6436 176.744 40.647C176.696 40.6744 176.657 40.7144 176.631 40.7625C176.604 40.8107 176.592 40.8651 176.595 40.9199V40.8951ZM182.349 42.6313C182.349 42.6313 182.2 43.3753 182.026 44.4667C182.026 45.0371 181.853 45.682 181.778 46.3764C181.704 47.0709 181.63 47.815 181.555 48.5591C181.555 50.0472 181.382 51.5354 181.357 52.6515C181.332 53.7676 181.357 54.5365 181.357 54.5365C181.36 54.5756 181.371 54.6137 181.389 54.6487C181.407 54.6836 181.431 54.7147 181.461 54.74C181.491 54.7654 181.526 54.7846 181.563 54.7965C181.601 54.8084 181.64 54.8128 181.679 54.8094C181.746 54.8047 181.809 54.7777 181.859 54.7327C181.908 54.6877 181.941 54.6273 181.952 54.5613C181.952 54.5613 182.101 53.8172 182.275 52.7259C182.448 51.6346 182.597 50.1216 182.721 48.6583C182.721 47.9142 182.721 47.1701 182.87 46.4757C183.019 45.7812 182.87 45.1115 182.87 44.5411C182.87 43.4249 182.87 42.6809 182.87 42.6809C182.87 42.6396 182.861 42.5988 182.845 42.561C182.829 42.5231 182.804 42.4891 182.774 42.4611C182.744 42.4331 182.708 42.4118 182.669 42.3984C182.63 42.385 182.588 42.3798 182.547 42.3832C182.492 42.406 182.445 42.4435 182.41 42.4916C182.375 42.5398 182.354 42.5967 182.349 42.656V42.6313ZM187.905 44.9875C187.905 44.9875 187.756 45.6076 187.557 46.5501C187.557 46.9965 187.359 47.5422 187.285 48.1375C187.21 48.7327 187.111 49.3528 187.012 49.9728C186.838 51.2378 186.764 52.4531 186.714 53.4452C186.665 54.4373 186.714 55.0326 186.714 55.0326C186.714 55.0738 186.722 55.1146 186.739 55.1525C186.755 55.1903 186.78 55.2243 186.81 55.2523C186.84 55.2803 186.876 55.3017 186.915 55.3151C186.954 55.3285 186.995 55.3336 187.037 55.3302C187.1 55.3269 187.161 55.3034 187.21 55.2633C187.259 55.2231 187.294 55.1684 187.309 55.107C187.309 55.107 187.483 54.4869 187.657 53.5692C187.83 52.6515 188.078 51.3618 188.227 50.1216C188.227 49.4768 188.351 48.8567 188.401 48.2614C188.45 47.6662 188.401 47.1205 188.401 46.6493C188.401 45.7068 188.401 45.0619 188.401 45.0619C188.401 45.0206 188.392 44.9798 188.376 44.942C188.359 44.9042 188.335 44.8701 188.305 44.8422C188.275 44.8142 188.239 44.7928 188.2 44.7794C188.161 44.766 188.119 44.7608 188.078 44.7643C188.033 44.7898 187.993 44.8254 187.963 44.8683C187.933 44.9113 187.913 44.9605 187.905 45.0123V44.9875Z" fill="#F18380"/>
    <path d="M78.5 165L25.5001 187.5C18.2763 190.873 9.74501 187.929 6.50005 179.5C5.9067 177.929 5.86657 175.36 5.94015 173.682C6.01374 172.004 6.42737 170.358 7.156 168.845C7.88464 167.332 9.23402 164.604 10.4999 163.5C11.7657 162.396 16.2765 160.359 17.8748 159.843L77.5 143.5L78.5 165Z" fill="#003399"/>
    <defs>
        <filter id="filter0_d_110_18" x="60.5337" y="113.792" width="49.1042" height="62.3995" filterUnits="userSpaceOnUse" color-interpolation-filters="sRGB">
            <feFlood flood-opacity="0" result="BackgroundImageFix"/>
            <feColorMatrix in="SourceAlpha" type="matrix" values="0 0 0 0 0 0 0 0 0 0 0 0 0 0 0 0 0 0 127 0" result="hardAlpha"/>
            <feOffset dx="2"/>
            <feComposite in2="hardAlpha" operator="out"/>
            <feColorMatrix type="matrix" values="0 0 0 0 0.603922 0 0 0 0 0.6 0 0 0 0 0.631373 0 0 0 1 0"/>
            <feBlend mode="normal" in2="BackgroundImageFix" result="effect1_dropShadow_110_18"/>
            <feBlend mode="normal" in="SourceGraphic" in2="effect1_dropShadow_110_18" result="shape"/>
        </filter>
    </defs>
</svg>
