<svg width="253" height="553" viewBox="0 0 253 553" fill="none" xmlns="http://www.w3.org/2000/svg">
<path d="M230.232 78.3329C230.334 76.0986 229.736 73.8882 228.521 72.0103C226.65 69.8414 225.249 67.3089 224.405 64.572C223.756 62.0314 222.719 59.6061 221.331 57.3815C220.339 56.0178 218.851 54.9021 218.851 53.8607C218.851 52.8194 220.835 50.811 223.661 51.3813C224.872 51.7584 225.984 52.3986 226.919 53.2558C227.853 54.1131 228.587 55.1663 229.066 56.3402C229.337 55.625 229.496 54.8723 229.538 54.1087L230.157 38.9096C230.167 38.5156 230.255 38.1275 230.417 37.7681C230.579 37.4088 230.811 37.0855 231.1 36.8174C231.389 36.5494 231.729 36.3418 232.099 36.2072C232.469 36.0725 232.863 36.0135 233.257 36.0335C233.883 36.0602 234.486 36.2827 234.98 36.6696C235.473 37.0565 235.833 37.5884 236.009 38.1906V37.4963C236.104 36.7575 236.476 36.082 237.048 35.6056C237.621 35.1292 238.353 34.8871 239.097 34.9279C239.841 34.9687 240.542 35.2894 241.059 35.8256C241.576 36.3618 241.871 37.0738 241.885 37.8187V39.9262C242.134 39.2765 242.607 38.7376 243.22 38.4077C243.832 38.0779 244.542 37.9792 245.222 38.1294C245.901 38.2797 246.503 38.6689 246.92 39.2263C247.336 39.7837 247.538 40.4721 247.489 41.1659V42.5048C247.756 42.0358 248.153 41.6547 248.633 41.4082C249.113 41.1616 249.655 41.0601 250.191 41.1163C250.926 41.2096 251.596 41.5853 252.059 42.1638C252.522 42.7423 252.741 43.4781 252.671 44.2156L251.456 57.0344C250.66 64.2615 249.165 71.3943 246.993 78.3329C246.967 79.4914 246.698 80.6316 246.205 81.6802C245.712 82.7288 245.004 83.6626 244.129 84.4215C243.253 85.1804 242.228 85.7477 241.12 86.0869C240.012 86.4261 238.845 86.5298 237.695 86.3911C236.654 86.4258 235.617 86.2363 234.656 85.8353C233.694 85.4342 232.831 84.8311 232.123 84.0668C231.415 83.3025 230.88 82.3949 230.553 81.4056C230.227 80.4162 230.117 79.3683 230.232 78.3329Z" fill="#FBBEAA"/>
<path d="M229.934 79.9944L220.016 142.253C218.38 150.064 220.909 157.13 229.934 158.37C231.6 158.587 233.293 158.463 234.909 158.006C236.526 157.549 238.033 156.768 239.338 155.71C240.644 154.653 241.721 153.341 242.504 151.855C243.287 150.368 243.759 148.738 243.893 147.064L246.918 80.1184C247.712 73.7958 244.959 69.5807 240.149 69.0601C234.248 68.4154 231.124 71.9114 229.934 79.9944Z" fill="#FBBEAA"/>
<path d="M230.727 58.4974C229.785 58.4974 229.711 57.9024 229.289 56.8114C231.397 56.8114 237.521 57.2081 240.199 62.3654C237.496 58.6462 232.314 58.4974 230.727 58.4974ZM235.537 38.885C235.537 38.885 235.389 39.7528 235.24 41.0173C235.24 41.662 235.091 42.4306 235.042 43.224C234.992 44.0174 234.918 44.8853 234.843 45.7035C234.843 47.4391 234.719 49.1499 234.719 50.4392C234.719 51.7285 234.719 52.5963 234.719 52.5963C234.719 52.6376 234.728 52.6785 234.744 52.7163C234.761 52.7541 234.785 52.788 234.815 52.816C234.845 52.844 234.881 52.8654 234.92 52.8788C234.959 52.8922 235 52.8973 235.042 52.8939C235.111 52.8904 235.178 52.8643 235.232 52.8196C235.285 52.7748 235.323 52.714 235.339 52.646C235.339 52.646 235.488 51.7781 235.612 50.4888C235.736 49.1995 235.934 47.4887 236.009 45.7779C236.009 44.91 236.009 44.0422 236.009 43.2984C236.009 42.5546 236.009 41.7364 236.009 41.0917C236.009 39.7776 236.009 38.9345 236.009 38.9345C236.009 38.8933 236 38.8525 235.984 38.8147C235.967 38.7769 235.943 38.7429 235.913 38.7149C235.883 38.6869 235.847 38.6656 235.808 38.6522C235.769 38.6387 235.727 38.6336 235.686 38.637C235.639 38.6644 235.6 38.7044 235.573 38.7525C235.547 38.8006 235.535 38.855 235.537 38.9098V38.885ZM241.29 40.6206C241.29 40.6206 241.141 41.3644 240.967 42.4554C240.967 43.0257 240.794 43.6703 240.72 44.3645C240.645 45.0588 240.571 45.8026 240.496 46.5465C240.496 48.0341 240.323 49.5218 240.298 50.6376C240.273 51.7533 240.298 52.522 240.298 52.522C240.301 52.5611 240.312 52.5992 240.33 52.6341C240.348 52.669 240.372 52.7001 240.402 52.7254C240.432 52.7508 240.467 52.77 240.504 52.7819C240.542 52.7938 240.581 52.7981 240.62 52.7947C240.687 52.7901 240.75 52.7631 240.8 52.7181C240.849 52.6731 240.882 52.6127 240.893 52.5468C240.893 52.5468 241.042 51.8029 241.215 50.7119C241.389 49.621 241.538 48.1085 241.662 46.6457C241.662 45.9018 241.662 45.158 241.811 44.4637C241.959 43.7695 241.811 43.1 241.811 42.5298C241.811 41.414 241.811 40.6702 241.811 40.6702C241.811 40.6289 241.802 40.5881 241.786 40.5503C241.769 40.5125 241.745 40.4785 241.715 40.4505C241.684 40.4225 241.649 40.4012 241.61 40.3878C241.571 40.3744 241.529 40.3692 241.488 40.3727C241.433 40.3954 241.386 40.4329 241.351 40.481C241.316 40.5292 241.294 40.586 241.29 40.6454V40.6206ZM246.844 42.9761C246.844 42.9761 246.695 43.5959 246.497 44.5381C246.497 44.9844 246.298 45.5299 246.224 46.125C246.15 46.7201 246.05 47.3399 245.951 47.9598C245.778 49.2243 245.703 50.4392 245.654 51.431C245.604 52.4228 245.654 53.0179 245.654 53.0179C245.653 53.0591 245.662 53.0999 245.678 53.1377C245.695 53.1756 245.719 53.2096 245.749 53.2375C245.78 53.2655 245.816 53.2869 245.855 53.3003C245.894 53.3137 245.935 53.3188 245.976 53.3154C246.039 53.3121 246.1 53.2887 246.149 53.2485C246.198 53.2084 246.233 53.1537 246.249 53.0923C246.249 53.0923 246.422 52.4724 246.596 51.555C246.769 50.6376 247.017 49.3483 247.166 48.1085C247.166 47.4639 247.29 46.844 247.34 46.249C247.389 45.6539 247.34 45.1084 247.34 44.6373C247.34 43.6951 247.34 43.0504 247.34 43.0504C247.34 43.0092 247.331 42.9684 247.315 42.9306C247.298 42.8928 247.274 42.8588 247.244 42.8308C247.214 42.8028 247.178 42.7815 247.139 42.7681C247.1 42.7546 247.058 42.7495 247.017 42.7529C246.972 42.7785 246.932 42.814 246.902 42.857C246.872 42.8999 246.852 42.9491 246.844 43.0009V42.9761Z" fill="#F18380"/>
<path d="M228.8 76.9497L228.188 83.7722L248.291 86.8648L248.291 79.5196L228.8 76.9497Z" fill="#023783"/>
<g opacity="0.3" filter="url(#filter0_f_110_17)">
<ellipse cx="106.5" cy="14.5" rx="106.5" ry="14.5" transform="matrix(1 0 0 -1 17.5 536)" fill="#CBCBCB"/>
</g>
<path d="M146.674 482.979C146.674 480.592 147.623 478.303 149.31 476.615C150.998 474.927 153.288 473.979 155.675 473.979C158.062 473.979 160.351 474.927 162.039 476.615C163.727 478.303 164.675 480.592 164.675 482.979V502.542H146.674V482.979Z" fill="#FBBEAA"/>
<path d="M164.031 486.624C166.238 486.624 166.635 487.591 167.28 488.856C168.325 492.225 170.113 495.318 172.511 497.906C176.092 500.955 179.933 503.685 183.991 506.063V516.427H143.923C143.923 516.427 144.196 508.245 144.394 502.468C144.593 496.691 145.163 489.649 145.113 488.905C145.064 488.161 145.113 486.624 146.477 486.624H164.031Z" fill="#302D3B"/>
<path d="M148.906 503.038C148.901 504.31 149.274 505.555 149.978 506.615C150.681 507.675 151.684 508.502 152.858 508.991C154.033 509.48 155.326 509.609 156.574 509.362C157.822 509.115 158.969 508.503 159.868 507.603C160.768 506.704 161.38 505.557 161.627 504.309C161.874 503.061 161.745 501.768 161.256 500.594C160.766 499.419 159.939 498.416 158.88 497.713C157.82 497.009 156.575 496.636 155.303 496.641C153.608 496.647 151.985 497.323 150.786 498.522C149.588 499.72 148.912 501.343 148.906 503.038Z" fill="#93929C"/>
<path d="M155.304 499.269L153.841 501.426L151.336 502.145L152.923 504.203L152.849 506.807L155.304 505.914L157.758 506.807L157.659 504.203L159.271 502.145L156.766 501.426L155.304 499.269Z" fill="white"/>
<path d="M183.717 505.89C183.717 505.89 189.395 508.89 191.527 510.353C192.514 511.021 193.316 511.929 193.858 512.991C194.4 514.054 194.664 515.236 194.627 516.427H179.056C179.056 516.427 179.378 508.815 183.717 505.89Z" fill="white"/>
<path d="M143.923 516.427V520.717C143.923 521.436 144.568 521.832 145.659 521.832H192.917C193.983 521.832 194.628 521.436 194.628 520.717V516.427H143.923Z" fill="white"/>
<path d="M179.056 502.988C179.193 502.778 179.407 502.629 179.653 502.573C179.898 502.518 180.155 502.56 180.37 502.691C180.477 502.757 180.57 502.843 180.643 502.945C180.716 503.047 180.768 503.163 180.795 503.285C180.823 503.408 180.826 503.535 180.804 503.658C180.782 503.782 180.736 503.9 180.667 504.005L179.006 506.683C178.926 506.822 178.81 506.936 178.671 507.015C178.531 507.093 178.373 507.133 178.213 507.129C178.029 507.126 177.85 507.075 177.692 506.98C177.585 506.915 177.493 506.828 177.42 506.726C177.347 506.624 177.295 506.508 177.267 506.386C177.239 506.264 177.236 506.137 177.258 506.013C177.28 505.89 177.326 505.772 177.395 505.666L179.056 502.988Z" fill="white"/>
<path d="M176.13 500.93C176.212 500.836 176.311 500.758 176.422 500.702C176.534 500.646 176.655 500.613 176.779 500.603C176.904 500.594 177.028 500.61 177.147 500.649C177.265 500.688 177.375 500.75 177.469 500.831C177.564 500.913 177.641 501.012 177.697 501.123C177.753 501.234 177.787 501.356 177.796 501.48C177.805 501.604 177.79 501.729 177.751 501.848C177.712 501.966 177.65 502.076 177.568 502.17L175.634 504.451C175.545 504.556 175.435 504.64 175.311 504.7C175.188 504.76 175.053 504.793 174.915 504.798C174.736 504.795 174.561 504.742 174.41 504.644C174.259 504.547 174.138 504.409 174.06 504.247C173.983 504.085 173.953 503.904 173.972 503.726C173.992 503.547 174.061 503.378 174.171 503.236L176.13 500.93Z" fill="white"/>
<path d="M173.378 498.625C173.576 498.498 173.812 498.447 174.045 498.481C174.277 498.516 174.488 498.633 174.64 498.812C174.792 498.991 174.873 499.219 174.869 499.454C174.865 499.689 174.776 499.914 174.618 500.088L172.412 501.997C172.238 502.143 172.018 502.223 171.792 502.22C171.655 502.225 171.519 502.198 171.395 502.142C171.27 502.087 171.16 502.003 171.073 501.898C170.981 501.812 170.908 501.708 170.858 501.593C170.808 501.478 170.782 501.354 170.782 501.228C170.782 501.103 170.808 500.979 170.858 500.863C170.908 500.748 170.981 500.645 171.073 500.559L173.378 498.625Z" fill="white"/>
<path d="M168.543 497.484L171.022 495.947C171.24 495.818 171.499 495.78 171.745 495.84C171.991 495.9 172.203 496.054 172.336 496.269C172.403 496.376 172.448 496.495 172.468 496.62C172.488 496.745 172.483 496.872 172.453 496.994C172.423 497.117 172.369 497.232 172.293 497.333C172.218 497.435 172.123 497.52 172.014 497.583L169.534 499.12C169.388 499.218 169.215 499.27 169.039 499.269C168.877 499.265 168.719 499.22 168.58 499.137C168.441 499.055 168.326 498.938 168.245 498.798C168.114 498.583 168.072 498.326 168.127 498.081C168.183 497.835 168.332 497.621 168.543 497.484Z" fill="white"/>
<path d="M166.459 494.286L169.236 493.121C169.473 493.022 169.739 493.021 169.976 493.119C170.213 493.217 170.402 493.405 170.501 493.641C170.549 493.757 170.574 493.881 170.574 494.006C170.574 494.131 170.549 494.255 170.5 494.37C170.452 494.486 170.381 494.59 170.292 494.678C170.202 494.766 170.096 494.835 169.98 494.881L167.203 496.046H166.831C166.617 496.035 166.413 495.953 166.251 495.813C166.089 495.673 165.978 495.483 165.935 495.273C165.893 495.063 165.921 494.845 166.016 494.653C166.111 494.461 166.267 494.306 166.459 494.212V494.286Z" fill="white"/>
<path d="M164.725 490.715L167.799 489.946C168.042 489.887 168.299 489.927 168.513 490.057C168.727 490.187 168.881 490.397 168.94 490.641C168.999 490.884 168.959 491.141 168.829 491.355C168.699 491.569 168.489 491.722 168.245 491.781L165.196 492.575H164.973C164.759 492.572 164.552 492.501 164.382 492.371C164.212 492.242 164.089 492.061 164.03 491.856C163.977 491.613 164.02 491.359 164.149 491.146C164.278 490.934 164.484 490.779 164.725 490.715Z" fill="white"/>
<path d="M133.509 357.866C133.782 345.866 141.864 340.064 153.84 340.361C165.816 340.659 174.445 346.932 174.172 358.908L164.676 483.946H146.675L133.509 357.866Z" fill="#FBBEAA"/>
<path d="M70.8025 482.979C70.8025 480.592 71.7507 478.303 73.4386 476.615C75.1266 474.927 77.4159 473.979 79.8029 473.979C82.19 473.979 84.4793 474.927 86.1672 476.615C87.8551 478.303 88.8033 480.592 88.8033 482.979V502.542H70.8025V482.979Z" fill="#FBBEAA"/>
<path d="M88.1336 486.624C90.3651 486.624 90.7618 487.591 91.3817 488.856C92.4392 492.226 94.2349 495.317 96.6381 497.906C100.214 500.961 104.056 503.691 108.118 506.063V516.427H68.05C68.05 516.427 68.3228 508.245 68.5212 502.468C68.7195 496.691 69.265 489.649 69.2402 488.905C69.2154 488.161 69.2402 486.624 70.5791 486.624H88.1336Z" fill="#302D3B"/>
<path d="M73.0098 503.038C73.0049 504.309 73.3774 505.553 74.08 506.612C74.7827 507.671 75.7839 508.498 76.9569 508.988C78.1298 509.478 79.4218 509.609 80.6692 509.364C81.9165 509.119 83.0631 508.509 83.9636 507.612C84.8642 506.715 85.4783 505.571 85.7281 504.324C85.9779 503.078 85.8522 501.786 85.3669 500.611C84.8816 499.436 84.0585 498.431 83.0019 497.725C81.9453 497.018 80.7028 496.641 79.4316 496.641C77.7327 496.641 76.1031 497.314 74.8995 498.513C73.6959 499.712 73.0164 501.339 73.0098 503.038Z" fill="#93929C"/>
<path d="M79.4068 499.269L77.944 501.426L75.4397 502.145L77.0514 504.203L76.977 506.807L79.4068 505.914L81.8615 506.807L81.7871 504.203L83.3988 502.145L80.8697 501.426L79.4068 499.269Z" fill="white"/>
<path d="M107.82 505.89C107.82 505.89 113.523 508.89 115.63 510.353C116.623 511.016 117.428 511.923 117.971 512.987C118.513 514.05 118.775 515.234 118.73 516.427H103.084C103.084 516.427 103.506 508.815 107.82 505.89Z" fill="white"/>
<path d="M68.05 516.427V520.717C68.05 521.436 68.6699 521.832 69.7609 521.832H117.069C118.16 521.832 118.78 521.436 118.78 520.717V516.427H68.05Z" fill="white"/>
<path d="M103.185 502.988C103.32 502.775 103.534 502.623 103.78 502.567C104.027 502.512 104.285 502.556 104.499 502.691C104.713 502.826 104.864 503.04 104.92 503.286C104.976 503.533 104.931 503.791 104.797 504.005L103.135 506.683C103.049 506.822 102.929 506.936 102.785 507.014C102.642 507.092 102.481 507.132 102.317 507.129C102.141 507.13 101.968 507.078 101.821 506.98C101.714 506.915 101.622 506.828 101.549 506.726C101.476 506.624 101.424 506.508 101.396 506.386C101.368 506.263 101.365 506.137 101.387 506.013C101.409 505.89 101.456 505.772 101.524 505.666L103.185 502.988Z" fill="white"/>
<path d="M100.234 500.93C100.397 500.74 100.628 500.621 100.878 500.598C101.128 500.574 101.377 500.649 101.572 500.806C101.764 500.974 101.884 501.209 101.908 501.463C101.931 501.717 101.855 501.97 101.696 502.17L99.7376 504.451C99.6517 504.559 99.5424 504.647 99.4179 504.707C99.2933 504.767 99.1569 504.798 99.0186 504.798C98.8369 504.8 98.6584 504.749 98.5049 504.652C98.3514 504.555 98.2292 504.415 98.1532 504.25C98.0772 504.085 98.0506 503.901 98.0766 503.721C98.1025 503.542 98.18 503.373 98.2995 503.236L100.234 500.93Z" fill="white"/>
<path d="M97.5066 498.625C97.7039 498.498 97.9406 498.447 98.1727 498.481C98.4048 498.516 98.6165 498.633 98.7682 498.812C98.9199 498.991 99.0014 499.219 98.9973 499.454C98.9933 499.689 98.9041 499.914 98.7464 500.088L96.5149 501.997C96.3418 502.143 96.1217 502.223 95.895 502.22C95.7587 502.223 95.6235 502.196 95.4991 502.14C95.3747 502.084 95.2643 502.001 95.1759 501.898C95.0875 501.81 95.0173 501.706 94.9693 501.591C94.9214 501.476 94.8967 501.353 94.8967 501.228C94.8967 501.104 94.9214 500.98 94.9693 500.866C95.0173 500.751 95.0875 500.646 95.1759 500.559L97.5066 498.625Z" fill="white"/>
<path d="M92.6727 497.484L95.1522 495.947C95.3661 495.857 95.6053 495.846 95.8261 495.918C96.047 495.989 96.2347 496.138 96.3551 496.337C96.4754 496.535 96.5203 496.77 96.4815 496.999C96.4428 497.228 96.3229 497.435 96.1439 497.583L93.6645 499.12C93.5175 499.218 93.345 499.27 93.1686 499.269C93.0033 499.267 92.8413 499.223 92.6981 499.14C92.5549 499.058 92.4351 498.94 92.3504 498.798C92.2216 498.58 92.1832 498.321 92.2434 498.075C92.3037 497.83 92.4578 497.617 92.6727 497.484Z" fill="white"/>
<path d="M90.5892 494.286L93.3662 493.121C93.4817 493.072 93.6056 493.047 93.7308 493.047C93.856 493.047 93.9799 493.072 94.0953 493.121C94.2107 493.169 94.3153 493.24 94.403 493.33C94.4907 493.419 94.5597 493.525 94.6059 493.641C94.6985 493.872 94.6987 494.13 94.6063 494.36C94.514 494.591 94.3362 494.778 94.1101 494.881L91.3083 496.046C91.194 496.072 91.0754 496.072 90.9611 496.046C90.7702 496.046 90.5836 495.99 90.4247 495.884C90.2659 495.778 90.142 495.628 90.0685 495.451C89.9933 495.227 90.005 494.983 90.1015 494.767C90.1979 494.551 90.3721 494.379 90.5892 494.286Z" fill="white"/>
<path d="M88.8535 490.715L91.9033 489.947C92.1498 489.886 92.4101 489.925 92.6281 490.055C92.8461 490.185 93.0043 490.395 93.0686 490.641C93.0982 490.761 93.1036 490.887 93.0847 491.009C93.0658 491.132 93.0229 491.249 92.9584 491.355C92.8939 491.461 92.8091 491.554 92.7089 491.627C92.6086 491.7 92.4949 491.752 92.3743 491.781L89.3246 492.575H89.0767C88.8533 492.558 88.6428 492.464 88.4811 492.308C88.3195 492.153 88.2167 491.947 88.1903 491.724C88.164 491.502 88.2157 491.277 88.3367 491.089C88.4576 490.9 88.6403 490.759 88.8535 490.69V490.715Z" fill="white"/>
<path d="M80.6469 357.494C81.8649 351.866 85.268 346.952 90.1081 343.832C94.9482 340.712 100.829 339.642 106.458 340.857C118.186 343.337 124.508 354.891 121.979 366.619L88.8043 486.004H70.5803L80.6469 357.494Z" fill="#FBBEAA"/>
<path d="M131.945 357.086C132.012 354.237 132.639 351.429 133.791 348.822C134.943 346.216 136.597 343.861 138.659 341.894C140.721 339.927 143.15 338.385 145.808 337.356C148.465 336.327 151.3 335.832 154.149 335.899C156.998 335.966 159.806 336.593 162.412 337.745C165.019 338.897 167.373 340.551 169.341 342.613C171.308 344.675 172.85 347.104 173.879 349.761C174.907 352.419 175.402 355.253 175.336 358.102L180.965 486.638H131.946L131.945 357.086Z" fill="#93929C"/>
<path d="M80.6495 354.433C81.9952 348.94 85.4302 344.188 90.2244 341.189C95.0185 338.189 100.794 337.177 106.322 338.369C111.85 339.56 116.696 342.861 119.829 347.569C122.962 352.278 124.134 358.022 123.098 363.582L109.907 486.138C109.907 486.138 78.3193 488.023 59.5002 486.138L80.6495 354.433Z" fill="#93929C"/>
<path d="M237.993 135.36L166.783 81.2588C158.477 75.9528 152.824 78.7794 148.41 84.4573C146.395 87.2055 145.46 90.5989 145.785 93.9915C146.11 97.384 147.671 100.539 150.171 102.855L221.207 155.196C223.71 157.31 226.933 158.377 230.203 158.174C233.474 157.97 236.539 156.513 238.762 154.105L239.084 153.758C240.263 152.5 241.174 151.014 241.761 149.392C242.347 147.771 242.597 146.046 242.495 144.325C242.393 142.603 241.941 140.92 241.167 139.379C240.393 137.838 239.313 136.47 237.993 135.36Z" fill="#FBBEAA"/>
<path d="M150.171 102.83C149.513 102.264 148.915 101.633 148.386 100.946C147.917 99.1811 147.857 97.333 148.209 95.5416C148.562 93.7501 149.317 92.0625 150.419 90.6065C154.163 84.8294 162.023 80.292 165.519 81.1598L168.99 82.9202L208.289 112.674C204.811 120.848 200.113 128.447 194.355 135.212L150.171 102.83Z" fill="#F18380"/>
<path d="M160.906 77.3907L222.529 118.952C222.27 121.078 229.101 77.3907 229.101 77.3907L248.431 79.9063C248.431 79.9063 248.038 124.02 245.152 147.433C244 156.779 236.292 160.347 227.091 158.34C222.549 157.349 218.272 155.484 214.466 152.813C198.113 141.335 152.235 109.005 148.484 104.937C142.013 97.9206 142.013 92.6642 145.732 86.887C149.451 81.1099 157.41 76.5229 160.906 77.3907Z" fill="#90A2B7"/>
<path d="M131.946 357.792L119.227 224.621C119.227 209.918 134.376 193.9 156.716 197.347C176.899 200.496 183.048 220.778 181.387 239.993C179.725 259.209 175.238 358.734 175.238 358.734C175.171 361.583 174.544 364.391 173.392 366.998C172.24 369.604 170.586 371.959 168.524 373.926C166.462 375.893 164.033 377.435 161.375 378.464C158.717 379.493 155.883 379.988 153.034 379.921C150.185 379.854 147.377 379.227 144.77 378.075C142.164 376.923 139.81 375.269 137.842 373.207C135.875 371.145 134.333 368.716 133.304 366.059C132.276 363.401 131.78 360.567 131.847 357.718L131.946 357.792Z" fill="#93929C"/>
<path d="M80.6464 355.139L93.2916 221.992C95.9694 207.537 113.945 194.718 135.244 202.306C154.46 209.174 156.691 230.249 151.435 248.82C146.178 267.391 123.095 364.288 123.095 364.288C121.749 369.781 118.314 374.532 113.52 377.532C108.726 380.532 102.95 381.544 97.422 380.352C91.8936 379.161 87.048 375.86 83.9153 371.151C80.7825 366.443 79.6098 360.698 80.6464 355.139Z" fill="#93929C"/>
<path d="M151.435 248.82C146.203 267.391 123.095 364.288 123.095 364.288" stroke="#5E5D63" stroke-width="0.75" stroke-miterlimit="10"/>
<path d="M147.716 75.283C147.716 75.283 158.676 77.1921 160.808 77.7624C162.066 78.0577 163.229 78.6676 164.188 79.5349C165.146 80.4022 165.869 81.4986 166.288 82.7213C167.651 85.9694 174.668 107.243 175.313 109.549C175.749 112.089 175.339 114.702 174.147 116.987C173.131 119.764 167.874 132.41 167.874 132.41L167.081 173.147L137.478 177.842L109.111 173.147C109.111 173.147 99.1937 97.3749 98.6978 92.6888C98.2019 88.0026 100.533 78.9526 106.136 77.812C111.74 76.6715 127.112 75.3326 127.112 75.3326L147.716 75.283Z" fill="#FBBEAA"/>
<path d="M168.513 157.015V173.349C149.187 175.385 118.393 173.943 106.827 173.349C106.284 168.683 105.715 160.766 105.122 155.506C120.864 155.958 146.864 157.637 168.513 157.015Z" fill="white"/>
<path d="M153.397 101.063H154.289V102.217H155.241V101.063H156.133V104.216H155.241V102.967H154.289V104.216H153.397V101.063H153.397ZM159.316 101.063V104.216H158.454V101.81H157.889V102.715C157.889 103.122 157.859 103.62 157.622 103.901C157.385 104.213 156.937 104.308 156.433 104.213V103.431C156.907 103.526 157.027 103.337 157.027 102.712V101.057H159.316V101.063ZM160.06 101.063H160.952L161.457 102.936L161.961 101.063H162.853L163.271 104.216H162.439L162.231 102.529L161.754 104.216H161.159L160.685 102.529L160.478 104.216H159.646L160.06 101.063L160.06 101.063ZM163.598 101.063H164.49V102.343L165.352 101.063H166.334L165.204 102.624L166.364 104.216H165.295L164.493 102.936V104.216H163.601V101.063H163.598H163.598ZM159.76 97.6896C154.409 97.6896 150.869 99.72 150.869 102.715C150.869 105.682 154.406 107.741 159.76 107.741C165.142 107.741 168.652 105.679 168.652 102.715C168.652 99.72 165.144 97.6896 159.76 97.6896ZM159.76 107.274C154.734 107.274 151.376 105.433 151.376 102.715C151.376 99.969 154.736 98.1564 159.76 98.1564C164.814 98.1564 168.147 99.9662 168.147 102.715C168.147 105.433 164.817 107.274 159.76 107.274ZM159.76 98.5945C155.034 98.5945 151.881 100.25 151.881 102.715C151.881 105.181 155.034 106.836 159.76 106.836C164.487 106.836 167.64 105.181 167.64 102.715C167.643 100.25 164.49 98.5945 159.76 98.5945ZM159.76 106.744C155.091 106.744 151.971 105.121 151.971 102.718C151.971 100.316 155.094 98.6919 159.76 98.6919C164.427 98.6919 167.55 100.316 167.55 102.718C167.553 105.121 164.43 106.745 159.76 106.745V106.744Z" fill="white"/>
<path d="M66.2172 169.502L97.9789 85.9199C102.219 76.9939 108.492 76.3988 115.335 78.8783C118.5 80.1408 121.089 82.5252 122.608 85.5759C124.126 88.6266 124.468 92.1298 123.567 95.4162L90.8629 177.511C89.8716 180.634 87.7088 183.252 84.8285 184.814C81.9483 186.377 78.5746 186.763 75.4159 185.891L74.9448 185.767C73.2786 185.313 71.7224 184.523 70.3712 183.448C69.0199 182.372 67.9019 181.032 67.0853 179.511C66.2687 177.989 65.7706 176.316 65.6213 174.596C65.4721 172.875 65.6748 171.142 66.2172 169.502Z" fill="#FBBEAA"/>
<path d="M79.3818 134.839L97.9777 85.9198C98.4765 84.847 99.0653 83.8185 99.7381 82.8453C102.016 81.4192 104.624 80.6058 107.308 80.4842C109.993 80.3625 112.664 80.9367 115.061 82.1511C117.845 83.5058 120.083 85.7707 121.404 88.5708C122.725 91.3709 123.05 94.5383 122.326 97.5484C122.326 97.846 122.152 98.4162 122.004 99.1849L102.813 147.41C94.4301 144.387 86.536 140.152 79.3818 134.839Z" fill="#F18380"/>
<path d="M99.7134 81.4572L64.4128 173.075C93.4073 163.797 90.009 137.948 105.778 140.601C105.778 140.601 123.962 97.9207 124.657 94.1023C125.381 91.0922 125.056 87.9249 123.735 85.1248C122.414 82.3246 120.176 80.0597 117.392 78.705C109.631 74.7378 101.895 78.3331 99.7134 81.4572Z" fill="#90A2B7"/>
<path d="M129.889 130.252L90.4165 179.42C85.7304 185.866 78.7879 188.743 71.8702 182.941C70.5908 181.854 69.5455 180.518 68.7977 179.014C68.05 177.511 67.6154 175.872 67.5204 174.195C67.4253 172.519 67.6718 170.841 68.2447 169.263C68.8177 167.685 69.7053 166.239 70.8537 165.014L118.41 117.905C122.55 113.07 127.534 112.301 131.154 115.425C135.543 119.318 135.022 123.88 129.889 130.252Z" fill="#FBBEAA"/>
<path d="M116.026 120.483C120.415 116.045 128.622 106.474 131.399 104.144C134.145 102.075 137.144 100.367 140.325 99.0608C142.738 98.2526 145.232 97.7122 147.763 97.4492C149.524 97.2261 150.243 97.7468 150.243 98.813C150.198 99.4481 149.996 100.062 149.654 100.599C149.312 101.136 148.841 101.579 148.284 101.887H151.532C152.648 101.887 153.367 102.78 152.846 104.218C152.373 105.168 151.697 106.003 150.866 106.663C150.035 107.322 149.069 107.792 148.036 108.037C148.036 108.037 152.425 108.458 153.54 108.681C154.656 108.904 155.003 109.326 155.003 110.392C154.994 111.128 154.789 111.849 154.41 112.481C154.031 113.112 153.491 113.632 152.846 113.987C151.266 114.628 149.59 114.997 147.887 115.078C147.887 115.078 153.317 116.442 154.408 116.839C155.499 117.235 155.623 117.954 155.053 118.896C154.728 119.56 154.259 120.143 153.679 120.602C153.1 121.061 152.426 121.385 151.705 121.549C149.648 122.095 148.259 121.202 147.515 121.326C145.917 121.841 144.352 122.454 142.829 123.161C140.542 125.438 137.746 127.138 134.672 128.12C132.383 129.08 130.284 130.441 128.473 132.137C127.629 132.929 126.635 133.543 125.55 133.944C124.465 134.345 123.31 134.524 122.154 134.471C120.998 134.418 119.865 134.133 118.821 133.634C117.777 133.136 116.843 132.432 116.076 131.566C112.109 127.351 112.778 123.831 116.026 120.483Z" fill="#FBBEAA"/>
<path d="M147.741 101.912C147.748 101.953 147.747 101.995 147.736 102.036C147.726 102.076 147.708 102.114 147.682 102.146C147.656 102.179 147.624 102.206 147.587 102.225C147.55 102.245 147.51 102.256 147.469 102.259L145.435 102.458H144.444C144.096 102.458 143.774 102.582 143.427 102.606C143.06 102.716 142.704 102.857 142.361 103.028L141.22 103.499C139.683 104.119 138.146 104.689 137.005 105.111C135.865 105.532 135.071 105.78 135.071 105.78C135.008 105.807 134.938 105.809 134.874 105.786C134.809 105.763 134.756 105.716 134.724 105.656C134.678 105.596 134.653 105.522 134.653 105.445C134.653 105.369 134.678 105.295 134.724 105.235L136.584 104.268L138.518 103.35C139.212 103.028 139.981 102.706 140.749 102.408L141.915 101.962C142.289 101.792 142.68 101.659 143.08 101.565L144.27 101.441H145.287H146.799H147.369C147.432 101.392 147.511 101.369 147.59 101.379C147.669 101.388 147.742 101.428 147.791 101.491C147.84 101.553 147.863 101.633 147.853 101.712C147.844 101.791 147.804 101.863 147.741 101.912ZM147.27 107.888H146.824C146.453 107.854 146.079 107.854 145.708 107.888L144.939 108.012C144.656 108.047 144.375 108.097 144.096 108.16L142.41 108.706C141.27 109.078 140.154 109.549 139.311 109.896C139.311 109.896 139.038 109.896 139.063 110.02H138.766L138.319 110.144H138.047H137.898C137.823 110.162 137.758 110.208 137.716 110.273C137.675 110.337 137.66 110.416 137.675 110.491C137.685 110.55 137.716 110.605 137.761 110.645C137.805 110.685 137.862 110.71 137.923 110.714H139.187H139.584C140.452 110.491 141.617 110.144 142.758 109.747L144.419 109.127L145.187 108.929L145.857 108.731C146.199 108.629 146.547 108.547 146.898 108.483L147.32 108.359C147.357 108.347 147.392 108.329 147.422 108.304C147.453 108.279 147.478 108.248 147.496 108.214C147.515 108.179 147.526 108.142 147.53 108.103C147.534 108.064 147.53 108.024 147.518 107.987C147.489 107.95 147.451 107.922 147.407 107.905C147.364 107.887 147.316 107.882 147.27 107.888ZM147.27 114.929H146.353C146.105 114.929 145.783 114.929 145.46 115.103L144.444 115.425C143.804 115.65 143.182 115.924 142.584 116.243C142.309 116.373 142.044 116.522 141.791 116.69C141.74 116.748 141.712 116.823 141.712 116.9C141.712 116.978 141.74 117.053 141.791 117.111C141.862 117.187 141.96 117.231 142.063 117.235L142.981 117.086C143.501 116.962 144.171 116.764 144.84 116.541L145.807 116.144L146.65 115.822C146.931 115.697 147.204 115.557 147.469 115.4C147.539 115.359 147.59 115.292 147.613 115.214C147.636 115.136 147.629 115.052 147.592 114.979C147.519 114.932 147.43 114.914 147.345 114.929H147.27Z" fill="#F18380"/>
<path d="M93.2913 221.348C93.8367 214.48 101.201 188.148 109.11 173.147C109.11 173.147 126.924 172.232 138.035 172.268C149.628 172.306 167.08 173.147 167.08 173.147C172.237 184.826 178.113 210.339 179.824 215.843C180.857 219.082 180.982 222.542 180.187 225.846C179.391 229.151 177.705 232.175 175.311 234.588C169.435 241.258 154.286 248.895 150.79 248.895C135.749 246.746 121.006 242.869 106.854 237.34C98.87 233.993 92.7706 228.241 93.2913 221.348Z" fill="#93929C"/>
<path d="M116.849 117.406L111.823 122.045L125.354 138.282L129.22 133.643L116.849 117.406Z" fill="#6B6B6B"/>
<path d="M151.498 78.5382C140.3 88.1367 129.169 82.5376 125.502 77.5383L109.505 84.5373L113.504 158.526L166.496 160.526L164.496 89.5365L151.498 78.5382Z" fill="white"/>
<path d="M164.654 78.0958C162.514 76.696 150.415 75.5185 150.415 75.5185V180.982C151.952 182.479 152.266 182.444 154.472 182.194L154.575 182.182C159.344 180.985 163.945 179.198 168.273 176.863C168.273 176.863 175.268 136.188 175.93 110.096C176.211 99.0114 171.358 91.9931 170.444 89.0673C168.92 84.1911 166.793 79.4956 164.654 78.0958Z" fill="#023783"/>
<path d="M129.03 182.157C130.003 181.95 130.923 181.551 131.738 180.982L126.299 74.4386C126.299 74.4386 109.099 74.4075 104.92 76.2672C103.183 77 101.487 78.0629 100.423 79.6196C99.3592 81.1764 99.7904 89.6206 99.7389 91.5054C99.4789 95.0249 99.8031 172.984 99.7432 173.663C99.6832 174.343 100.263 174.723 100.883 175.083C101.503 175.443 121.1 181.162 126.079 182.182C127.055 182.371 128.058 182.363 129.03 182.157Z" fill="#023783"/>
<circle cx="153.884" cy="112.839" r="1.82859" fill="#90A2B7"/>
<path d="M117.405 119.963C121.541 115.781 129.274 106.762 131.89 104.566C134.478 102.617 137.304 101.007 140.301 99.7768C142.575 99.0152 144.925 98.506 147.31 98.2582C148.969 98.048 149.646 98.5386 149.646 99.5432C149.605 100.142 149.414 100.72 149.092 101.226C148.769 101.732 148.325 102.15 147.801 102.44H150.861C151.913 102.44 152.59 103.281 152.099 104.636C151.654 105.532 151.017 106.318 150.234 106.94C149.45 107.561 148.54 108.003 147.567 108.234C147.567 108.234 151.702 108.631 152.754 108.842C153.805 109.052 154.132 109.449 154.132 110.454C154.123 111.148 153.93 111.827 153.573 112.422C153.216 113.017 152.707 113.507 152.099 113.841C150.611 114.445 149.031 114.793 147.427 114.869C147.427 114.869 152.543 116.154 153.571 116.528C154.599 116.902 154.716 117.579 154.179 118.467C153.873 119.093 153.43 119.642 152.885 120.074C152.339 120.507 151.704 120.812 151.025 120.967C149.086 121.481 147.777 120.64 147.076 120.757C145.57 121.242 144.096 121.819 142.661 122.486C140.506 124.631 137.871 126.233 134.974 127.158C132.818 128.063 130.84 129.345 129.134 130.943C128.339 131.689 127.402 132.268 126.379 132.646C125.356 133.024 124.268 133.193 123.179 133.143C122.09 133.092 121.022 132.824 120.038 132.354C119.055 131.884 118.175 131.222 117.452 130.406C113.714 126.434 114.345 123.117 117.405 119.963Z" fill="#FBBEAA"/>
<path d="M147.287 102.463C147.293 102.502 147.292 102.542 147.282 102.58C147.272 102.618 147.255 102.653 147.231 102.684C147.207 102.715 147.176 102.74 147.141 102.759C147.107 102.777 147.069 102.788 147.03 102.791L145.114 102.977H144.179C143.852 102.977 143.549 103.094 143.221 103.118C142.876 103.221 142.54 103.354 142.217 103.515L141.142 103.959C139.694 104.543 138.245 105.08 137.17 105.477C136.096 105.874 135.348 106.108 135.348 106.108C135.289 106.133 135.222 106.135 135.162 106.113C135.101 106.092 135.051 106.048 135.021 105.991C134.977 105.934 134.954 105.864 134.954 105.793C134.954 105.721 134.977 105.651 135.021 105.594L136.773 104.683L138.596 103.818C139.25 103.515 139.974 103.211 140.698 102.931L141.796 102.51C142.149 102.351 142.517 102.225 142.894 102.136L144.016 102.02H144.974H146.399H146.936C146.995 101.973 147.07 101.952 147.144 101.961C147.219 101.969 147.287 102.007 147.333 102.066C147.38 102.125 147.401 102.2 147.392 102.275C147.384 102.349 147.345 102.417 147.287 102.463ZM146.843 108.094H146.422C146.072 108.063 145.721 108.063 145.371 108.094L144.647 108.211C144.38 108.244 144.115 108.291 143.852 108.351L142.264 108.865C141.189 109.215 140.138 109.659 139.343 109.986C139.343 109.986 139.086 109.986 139.11 110.103H138.829L138.409 110.22H138.152H138.011C137.941 110.237 137.88 110.28 137.84 110.341C137.801 110.402 137.787 110.476 137.801 110.547C137.811 110.603 137.84 110.654 137.882 110.692C137.924 110.73 137.978 110.753 138.035 110.757H139.226H139.6C140.418 110.547 141.516 110.22 142.591 109.846L144.156 109.262L144.88 109.075L145.511 108.888C145.834 108.793 146.161 108.715 146.492 108.655L146.889 108.538C146.925 108.527 146.958 108.51 146.986 108.486C147.015 108.463 147.038 108.434 147.056 108.401C147.073 108.369 147.084 108.333 147.087 108.296C147.091 108.26 147.087 108.223 147.076 108.187C147.049 108.153 147.013 108.126 146.972 108.11C146.931 108.094 146.886 108.088 146.843 108.094ZM146.843 114.729H145.978C145.745 114.729 145.441 114.729 145.137 114.893L144.179 115.196C143.577 115.409 142.991 115.666 142.427 115.967C142.168 116.089 141.918 116.23 141.68 116.388C141.632 116.443 141.606 116.513 141.606 116.586C141.606 116.659 141.632 116.73 141.68 116.785C141.747 116.856 141.839 116.898 141.936 116.902L142.801 116.762C143.292 116.645 143.922 116.458 144.553 116.248L145.464 115.874L146.259 115.57C146.523 115.453 146.781 115.32 147.03 115.173C147.096 115.134 147.145 115.071 147.166 114.997C147.188 114.924 147.181 114.844 147.146 114.776C147.077 114.731 146.994 114.715 146.913 114.729H146.843Z" fill="#F18380"/>
<path d="M128.878 133.747L90.7018 180.459C85.9186 186.834 74.7415 190.338 67.9124 184.432C66.6495 183.325 65.6245 181.974 64.8997 180.459C64.1748 178.945 63.765 177.299 63.6953 175.621C63.6257 173.944 63.8975 172.27 64.4943 170.7C65.091 169.131 67.7446 163.844 68.9114 162.637L116.748 117.711L128.878 133.747Z" fill="#90A2B7"/>
<path d="M116.597 117.588L111.296 122.351L124.926 138.586L130.115 133.003L116.597 117.588Z" fill="#023783"/>
<circle cx="153.884" cy="125.639" r="1.82859" fill="#90A2B7"/>
<circle cx="153.884" cy="137.83" r="1.82859" fill="#90A2B7"/>
<path d="M157.255 99.6575H157.799V100.361H158.379V99.6575H158.923V101.58H158.379V100.819H157.799V101.58H157.255V99.6575H157.255ZM160.864 99.6575V101.58H160.338V100.113H159.994V100.665C159.994 100.913 159.976 101.217 159.831 101.388C159.686 101.578 159.414 101.636 159.106 101.578V101.101C159.395 101.159 159.469 101.044 159.469 100.663V99.6539H160.864V99.6575ZM161.318 99.6575H161.862L162.169 100.799L162.477 99.6575H163.021L163.275 101.58H162.768L162.642 100.551L162.35 101.58H161.988L161.699 100.551L161.572 101.58H161.065L161.318 99.6574L161.318 99.6575ZM163.475 99.6575H164.019V100.438L164.544 99.6575H165.143L164.454 100.609L165.161 101.58H164.509L164.02 100.799V101.58H163.476V99.6575H163.475H163.475ZM161.135 97.6006C157.872 97.6006 155.713 98.8386 155.713 100.665C155.713 102.474 157.87 103.729 161.135 103.729C164.416 103.729 166.556 102.472 166.556 100.665C166.556 98.8386 164.418 97.6006 161.135 97.6006ZM161.135 103.445C158.07 103.445 156.023 102.322 156.023 100.665C156.023 98.9904 158.072 97.8852 161.135 97.8852C164.216 97.8852 166.249 98.9887 166.249 100.665C166.249 102.322 164.218 103.445 161.135 103.445ZM161.135 98.1523C158.253 98.1523 156.33 99.1616 156.33 100.665C156.33 102.168 158.253 103.177 161.135 103.177C164.017 103.177 165.939 102.168 165.939 100.665C165.941 99.1616 164.019 98.1523 161.135 98.1523ZM161.135 103.122C158.288 103.122 156.385 102.132 156.385 100.667C156.385 99.2017 158.289 98.2117 161.135 98.2117C163.98 98.2117 165.884 99.2017 165.884 100.667C165.886 102.132 163.982 103.122 161.135 103.122V103.122Z" fill="white"/>
<path d="M113.546 21.8182C112.064 27.4879 111.185 33.2982 110.923 39.1525C110.612 44.0251 109 48.7252 106.255 52.7629C103.633 56.1459 100.198 59.6599 101.456 70.1497H168.617C168.617 70.1497 171.239 64.9048 168.092 55.9098C164.386 44.8053 161.657 33.398 159.937 21.8182H113.546Z" fill="#BC664A"/>
<path d="M126.396 52.7631V75.0275C126.396 75.0275 128.153 82.7113 139.928 82.7113C142.265 82.9084 144.59 82.203 146.424 80.7399C148.257 79.2768 149.461 77.167 149.788 74.844V52.7631H126.396Z" fill="#FBBEAA"/>
<path d="M149.788 71.4086C142.393 74.8964 131.615 71.7757 126.396 62.0989V52.7631H149.788V71.4086Z" fill="#F18380"/>
<path d="M164.395 35.7432C164.507 41.0765 164.27 46.4114 163.687 51.7138C162.716 59.2664 160.041 67.6582 146.641 67.6582C133.24 67.6582 126.448 61.6266 123.563 51.7138C121.833 45.7084 118.318 36.8708 119.761 26.6171C121.203 16.3634 127.366 9.7024 141.92 9.30903C156.475 8.91566 165.994 15.4717 164.395 35.7432Z" fill="#FBBEAA"/>
<path d="M136.072 40.3065C136.166 40.6927 136.365 41.045 136.649 41.3235C136.932 41.6019 137.288 41.7952 137.676 41.8815C138.064 41.9678 138.468 41.9435 138.843 41.8116C139.217 41.6796 139.548 41.4452 139.796 41.135C140.044 40.8247 140.2 40.4511 140.247 40.0565C140.293 39.6619 140.228 39.2622 140.059 38.9028C139.89 38.5433 139.623 38.2386 139.289 38.0232C138.955 37.8078 138.568 37.6903 138.17 37.6841C137.858 37.7132 137.555 37.8049 137.279 37.9536C137.004 38.1024 136.76 38.3052 136.565 38.5499C136.369 38.7947 136.224 39.0763 136.14 39.3781C136.055 39.6799 136.032 39.9957 136.072 40.3065Z" fill="#403D4F"/>
<path d="M155.505 40.3065C155.598 40.6927 155.798 41.045 156.081 41.3235C156.364 41.6019 156.72 41.7952 157.108 41.8815C157.496 41.9678 157.9 41.9435 158.275 41.8116C158.65 41.6796 158.98 41.4452 159.228 41.135C159.476 40.8247 159.633 40.4511 159.679 40.0565C159.726 39.6619 159.66 39.2622 159.491 38.9028C159.322 38.5433 159.055 38.2386 158.721 38.0232C158.387 37.8078 158 37.6903 157.603 37.6841C157.292 37.7167 156.991 37.8106 156.717 37.9604C156.442 38.1103 156.201 38.3131 156.006 38.557C155.811 38.8009 155.666 39.0812 155.58 39.3815C155.494 39.6818 155.468 39.9963 155.505 40.3065Z" fill="#403D4F"/>
<path d="M142.392 32.8852C142.392 32.8852 142.392 32.8852 142.183 32.6754C141.971 32.4698 141.733 32.2934 141.475 32.151C141.144 31.9616 140.792 31.812 140.426 31.7051C139.572 31.4709 138.686 31.3822 137.803 31.4429C137.432 31.462 137.063 31.5147 136.702 31.6002L135.679 31.8887C135.51 31.9431 135.369 32.0612 135.286 32.2178C135.203 32.3745 135.184 32.5575 135.233 32.7279C135.276 32.862 135.36 32.9793 135.473 33.0638C135.586 33.1484 135.722 33.1959 135.863 33.1999H137.829C138.17 33.1741 138.512 33.1741 138.852 33.1999C139.189 33.2309 139.523 33.2924 139.849 33.3835C140.19 33.3835 140.426 33.5671 140.688 33.5933C140.874 33.6717 141.067 33.7332 141.265 33.7769H141.501C141.664 33.848 141.849 33.8522 142.016 33.7885C142.183 33.7247 142.318 33.5982 142.392 33.436C142.431 33.3448 142.451 33.2466 142.451 33.1475C142.451 33.0483 142.431 32.9502 142.392 32.859V32.8852Z" fill="#403D4F"/>
<path d="M155.164 33.8815C155.164 33.8815 155.164 33.8815 155.321 33.8815L155.714 33.7241H156.003C156.106 33.7014 156.214 33.7014 156.317 33.7241C156.549 33.6476 156.786 33.5862 157.025 33.5406C157.269 33.5133 157.516 33.5133 157.76 33.5406H159.255C159.343 33.5406 159.43 33.5229 159.512 33.4883C159.593 33.4537 159.666 33.4031 159.728 33.3394C159.789 33.2757 159.837 33.2003 159.868 33.1177C159.899 33.0351 159.914 32.947 159.91 32.8587C159.905 32.7286 159.863 32.6027 159.789 32.4958C159.714 32.3889 159.611 32.3056 159.491 32.2556L158.678 31.9671C158.387 31.8803 158.088 31.8275 157.786 31.8098C157.429 31.7577 157.067 31.7577 156.711 31.8098C156.026 31.8956 155.376 32.1576 154.823 32.5703L154.324 33.0685C154.193 33.2259 154.193 33.2783 154.193 33.3046V33.5406C154.17 33.7207 154.217 33.9027 154.325 34.0492C154.432 34.1956 154.591 34.2952 154.77 34.3273C154.95 34.2298 155.089 34.0719 155.164 33.8815Z" fill="#403D4F"/>
<path d="M149.788 49.2492C150.23 49.2467 150.667 49.1548 151.073 48.979C151.478 48.8033 151.844 48.5473 152.148 48.2265C152.259 48.1076 152.345 47.967 152.399 47.8136C152.453 47.6601 152.475 47.4972 152.463 47.3349C152.463 47.0464 152.017 43.4274 151.86 42.09C151.829 41.9606 151.756 41.8456 151.65 41.7644C151.545 41.6832 151.416 41.6407 151.283 41.6442C151.148 41.6638 151.026 41.7349 150.943 41.8425C150.86 41.9502 150.822 42.0859 150.837 42.2211C150.837 42.4047 151.414 47.1513 151.466 47.466C151.252 47.7037 150.988 47.8923 150.694 48.019C150.4 48.1457 150.082 48.2075 149.762 48.2003C149.627 48.207 149.5 48.2652 149.408 48.3629C149.315 48.4605 149.263 48.5901 149.263 48.7248C149.27 48.8618 149.327 48.9915 149.424 49.0885C149.521 49.1856 149.651 49.2429 149.788 49.2492Z" fill="#F18380"/>
<path d="M152.2 54.4153C153.171 54.6513 153.538 56.1199 152.935 57.8244C152.34 58.9981 151.366 59.9368 150.172 60.4888C148.978 61.0408 147.632 61.1739 146.352 60.8665C145.654 60.8333 144.969 60.6608 144.338 60.3591C143.708 60.0574 143.144 59.6326 142.679 59.1097C142.215 58.5868 141.86 57.9764 141.635 57.3143C141.41 56.6523 141.32 55.9519 141.37 55.2544C141.37 54.1268 142.157 53.4712 143.625 53.4712C146.505 53.5481 149.373 53.8638 152.2 54.4153Z" fill="#73102A"/>
<path d="M141.37 55.3856V55.1496C143.289 54.706 145.305 54.9987 147.019 55.9699C148.733 56.941 150.021 58.52 150.627 60.3945C149.278 61.0556 147.76 61.2933 146.274 61.0763C145.575 61.0335 144.892 60.8511 144.264 60.5401C143.637 60.229 143.079 59.7955 142.622 59.2652C142.165 58.7348 141.818 58.1183 141.603 57.452C141.388 56.7857 141.309 56.0831 141.37 55.3856Z" fill="#D65155"/>
<path d="M151.361 55.9888C148.04 56.0403 144.734 55.535 141.579 54.494C141.777 54.1367 142.078 53.8477 142.443 53.6652C142.809 53.4826 143.22 53.415 143.625 53.4713C146.504 53.5481 149.373 53.8639 152.2 54.4153C152.471 54.5088 152.709 54.6809 152.881 54.9098C153.054 55.1387 153.155 55.4139 153.17 55.7003C152.59 55.9063 151.977 56.0041 151.361 55.9888Z" fill="white"/>
<path d="M136.781 25.4376C136.781 25.4376 134.158 38.5498 123.039 43.6373C123.039 43.6373 111.71 37.055 113.022 24.4936C114.648 9.02118 136.624 -8.3918 158.495 8.0771C160.619 7.73619 162.927 3.25182 162.245 0C163.139 0.561738 163.842 1.38019 164.264 2.34832C164.685 3.31644 164.804 4.38916 164.606 5.42616C164.407 6.46315 163.901 7.41615 163.152 8.1605C162.403 8.90486 161.447 9.40591 160.409 9.59812C163.979 10.0955 167.219 11.9527 169.452 14.7821C171.685 17.6115 172.739 21.1941 172.394 24.782C172.282 27.0441 171.34 29.1855 169.748 30.7967C168.156 32.4078 166.026 33.3755 163.766 33.5147H159.911C156.928 32.1479 154.517 29.7827 153.092 26.8275C153.463 29.0551 154.237 31.1967 155.374 33.1476C155.584 33.541 155.112 34.2228 151.886 33.541C148.183 32.2672 145.088 29.6584 143.206 26.2244C143.911 28.4761 144.851 30.6473 146.012 32.7018C146.012 33.0951 144.307 33.6721 141.79 32.5182C140.387 31.9085 139.179 30.9261 138.296 29.6777C137.413 28.4294 136.889 26.9629 136.781 25.4376Z" fill="#BC664A"/>
<path d="M153.984 35.7435C153.04 35.7435 152.673 37.4743 152.673 39.1265C152.769 41.3643 153.437 43.5402 154.613 45.4465C155.094 46.0218 155.718 46.4603 156.423 46.7181C157.127 46.9759 157.887 47.0438 158.626 46.9151C159.525 47.0543 160.444 46.9949 161.319 46.7412C162.193 46.4875 163.001 46.0456 163.687 45.4465C165.13 43.6386 165.99 41.4344 166.152 39.1265C166.152 37.4743 165.654 35.7435 164.474 35.7435H153.984Z" stroke="#403D4F" stroke-width="0.75" stroke-miterlimit="10"/>
<path d="M146.064 35.7435C147.323 35.7435 147.821 37.4743 147.821 39.1265C147.649 41.4603 146.729 43.6766 145.199 45.4465C144.474 46.0414 143.633 46.4791 142.73 46.7319C141.827 46.9847 140.882 47.0471 139.954 46.9151C137.597 47.2182 135.207 46.6996 133.188 45.4465C131.346 43.8216 130.177 41.5679 129.91 39.1265C129.91 37.4743 130.539 35.7435 132.139 35.7435H146.064Z" stroke="#403D4F" stroke-width="0.75" stroke-miterlimit="10"/>
<path d="M152.883 37.317C152.129 36.7428 151.208 36.4318 150.26 36.4318C149.313 36.4318 148.392 36.7428 147.638 37.317" stroke="#403D4F" stroke-width="0.75" stroke-miterlimit="10"/>
<path d="M132.087 35.7435H128.888C128.206 35.7435 127.419 35.9009 127.419 36.8187V38.2873C127.419 38.6544 129.753 39.3887 130.042 40.2017" stroke="#403D4F" stroke-width="0.75" stroke-miterlimit="10"/>
<path d="M120.443 39.5726L127.419 36.8191" stroke="#403D4F" stroke-width="0.75" stroke-miterlimit="10"/>
<path d="M124.035 45.5779C123.825 42.0113 122.881 37.8417 118.528 38.4711C113.44 39.2578 112.942 53.0256 123.773 51.3734L124.035 45.5779Z" fill="#FBBEAA"/>
<path d="M118.161 46.4958C118.253 46.4971 118.342 46.4733 118.421 46.427C118.5 46.3808 118.564 46.3139 118.607 46.2335C118.722 46.0065 118.894 45.8127 119.105 45.6704C119.316 45.5282 119.56 45.4422 119.814 45.4206C120.116 45.4239 120.413 45.5053 120.675 45.6569C120.937 45.8085 121.155 46.0252 121.308 46.286C121.371 46.3757 121.461 46.4423 121.566 46.4755C121.67 46.5086 121.782 46.5066 121.885 46.4696C121.996 46.4388 122.092 46.3685 122.155 46.2719C122.218 46.1753 122.243 46.059 122.226 45.9451C122.181 44.842 121.837 43.7719 121.233 42.8484C120.628 41.9249 119.784 41.1826 118.791 40.7002C118.724 40.6606 118.649 40.6362 118.572 40.629C118.495 40.6217 118.417 40.6317 118.344 40.6582C118.271 40.6847 118.205 40.727 118.15 40.7822C118.096 40.8374 118.054 40.904 118.028 40.9773C118.002 41.0505 117.993 41.1286 118.001 41.2058C118.009 41.283 118.035 41.3574 118.075 41.4237C118.115 41.4901 118.17 41.5466 118.235 41.5893C118.3 41.632 118.373 41.6597 118.45 41.6705C119.039 41.957 119.564 42.3605 119.992 42.8564C120.421 43.3524 120.744 43.9304 120.941 44.5552C120.575 44.3747 120.168 44.2933 119.761 44.3192C119.337 44.3593 118.929 44.502 118.573 44.735C118.217 44.9681 117.922 45.2844 117.716 45.6566C117.658 45.7758 117.648 45.9122 117.687 46.0387C117.726 46.1651 117.811 46.2722 117.925 46.3384L118.161 46.4958Z" fill="#F18380"/>
<defs>
<filter id="filter0_f_110_17" x="0.5" y="490" width="247" height="63" filterUnits="userSpaceOnUse" color-interpolation-filters="sRGB">
<feFlood flood-opacity="0" result="BackgroundImageFix"/>
<feBlend mode="normal" in="SourceGraphic" in2="BackgroundImageFix" result="shape"/>
<feGaussianBlur stdDeviation="8.5" result="effect1_foregroundBlur_110_17"/>
</filter>
</defs>
</svg>
