<svg width="220" height="513" viewBox="0 0 220 513" fill="none" xmlns="http://www.w3.org/2000/svg">
<path d="M183.435 97.7975C183.561 95.0303 182.821 92.2927 181.316 89.967C178.999 87.2808 177.264 86.6204 176.218 83.2307C175.414 80.0842 174.13 77.0803 172.41 74.3252C171.182 72.6362 169.34 71.2544 169.34 69.9646C169.34 68.6749 171.796 66.1875 175.297 66.8938C176.796 67.3609 178.174 68.1537 179.332 69.2155C180.489 70.2773 181.397 71.5817 181.991 73.0355C182.327 72.1497 182.524 71.2175 182.575 70.2717L183.343 48.9713C183.354 48.4833 183.464 48.0026 183.664 47.5575C183.865 47.1125 184.152 46.7121 184.51 46.3801C184.868 46.0481 185.289 45.7911 185.747 45.6243C186.206 45.4575 186.694 45.3844 187.181 45.4091C187.957 45.4422 188.704 45.7178 189.315 46.197C189.625 46.4402 194.819 52.7393 199.889 58.9831C204.81 65.0435 209.614 71.0518 209.721 71.4191C208.735 80.3699 206.884 89.204 204.194 97.7975C204.161 99.2324 203.829 100.645 203.218 101.943C202.607 103.242 201.731 104.398 200.646 105.338C199.562 106.278 198.292 106.981 196.92 107.401C195.548 107.821 194.103 107.949 192.678 107.778C191.388 107.821 190.105 107.586 188.914 107.089C187.723 106.593 186.653 105.846 185.777 104.899C184.9 103.952 184.237 102.828 183.833 101.603C183.429 100.378 183.293 99.0799 183.435 97.7975Z" fill="#FBBEAA"/>
<path d="M190.545 41.8948L206.625 57.4237C210.5 61.7687 212.332 66.17 212.622 70.2385C212.614 70.2458 212.619 70.25 212.615 70.2536C213.027 75.9444 210.429 80.9701 206.257 84.2136C206.178 84.2865 206.083 84.3585 205.996 84.4231C205.97 84.441 205.949 84.463 205.931 84.4813C203.642 86.18 200.904 87.3527 197.954 87.8393C196.979 88.0046 195.973 88.0901 194.95 88.0812C194.864 88.0837 194.81 88.0881 194.798 88.0834C194.775 88.082 194.74 88.0837 194.689 88.0845C190.098 88.0219 185.206 86.2636 180.755 82.2487L165.624 67.7007L190.545 41.8948Z" fill="#0099FF"/>
<path d="M212.62 70.2575C213.263 79.1727 206.528 86.4402 197.955 87.839C196.457 87.9602 195.35 88.0551 194.951 88.0809C194.865 88.0834 194.811 88.0878 194.799 88.0832C194.775 88.0817 194.74 88.0835 194.69 88.0842C193.814 88.0261 187.073 87.3984 177.994 78.2758C171.007 71.2595 168.067 68.7039 168.067 68.7039L177.116 65.0194C177.116 65.0194 191.228 80.2007 199.608 81.4318C207.992 82.6749 212.163 75.5988 212.62 70.2575Z" fill="#0099FF"/>
<path d="M190.546 41.8959L206.627 57.4248C208.681 59.7349 210.162 62.0445 211.136 64.3266C211.141 64.3307 211.141 64.3307 211.149 64.3391C212.008 66.3533 212.485 68.3322 212.623 70.2396L212.619 70.2783C212.621 70.3017 212.617 70.3326 212.618 70.3832C212.99 76.0287 210.397 80.9886 206.263 84.2188C206.819 83.7202 207.526 82.7291 208.137 81.4245C208.186 81.3225 208.235 81.2204 208.28 81.1221C208.325 81.0237 208.362 80.9248 208.407 80.8264C208.464 80.6899 208.52 80.5455 208.569 80.4007C208.632 80.2489 208.69 80.0852 208.738 79.9404C208.783 79.7914 208.834 79.635 208.878 79.486L208.881 79.4745C208.942 79.2993 208.98 79.1304 209.02 78.9851C209.079 78.7436 209.14 78.4906 209.189 78.2329C209.2 78.1869 209.202 78.1676 209.202 78.1676C209.756 75.3537 209.467 72.009 207.052 69.0035C203.641 64.7649 196.953 58.6193 192.88 55.0052C190.864 53.2072 189.482 52.036 189.482 52.036C189.482 52.036 190.124 49.4844 190.626 47.7412C190.887 46.8507 191.105 46.16 191.182 46.1492C191.411 46.1011 190.594 42.1479 190.539 41.9032L190.546 41.8959Z" fill="#0099FF"/>
<path d="M190.545 41.8956L206.625 57.4245C208.679 59.7346 210.16 62.0441 211.135 64.3263C209.483 61.4614 205.877 56.2264 199.856 53.6901C197.192 52.5717 195.05 53.3418 192.886 55.0054C190.149 57.1159 187.371 60.6559 183.433 63.6492C176.372 69.0132 166.717 68.7498 166.39 68.4338L165.985 68.043L167.758 68.3863L173.55 66.8346L177.549 64.0979C177.549 64.0979 186.062 55.283 186.345 54.9893C186.629 54.6956 190.64 47.7418 190.64 47.7418L190.553 41.9039L190.545 41.8956Z" fill="#0099FF"/>
<path d="M177.36 65.257L178.577 66.5386C178.577 66.5386 182.933 64.5439 186.022 61.5174C188.708 58.8823 192.882 55.0165 192.882 55.0165L189.484 52.0473L183.787 58.5152L177.36 65.257Z" fill="#0099FF"/>
<path d="M168.071 68.7089L168.487 69.0965C167.8 69.0151 167.058 68.8446 166.391 68.4414L165.629 67.7055L168.071 68.7089Z" fill="#0099FF"/>
<path d="M168.072 68.7089L168.488 69.0965C168.488 69.0965 169.938 69.3614 174.066 68.2826C176.27 67.707 178.587 66.5393 178.587 66.5393L177.129 65.0249C177.129 65.0249 172.192 67.3805 172.132 67.5285C172.06 67.6719 168.072 68.7089 168.072 68.7089Z" fill="#0099FF"/>
<path d="M183.507 60.0387C190.388 52.9136 193.537 44.7921 190.541 41.8989C187.545 39.0057 179.539 42.4363 172.658 49.5614C165.777 56.6865 162.628 64.808 165.624 67.7012C168.62 70.5944 176.627 67.1638 183.507 60.0387Z" fill="#A3A9AA"/>
<path d="M189.568 42.3406C190.919 43.6461 190.684 46.3201 189.207 49.5554C188.566 50.9593 187.688 52.4807 186.605 54.0245C186.494 54.1733 186.385 54.3299 186.267 54.4861C185.177 55.9944 183.898 57.526 182.451 59.0239C180.941 60.5879 179.378 61.9736 177.853 63.1476C172.788 67.04 167.995 68.6262 166.023 66.722C164.877 65.6161 164.878 63.4956 165.82 60.9003C165.82 60.9003 165.82 60.9003 165.823 60.8888C166.498 59.0435 167.644 56.9355 169.186 54.7782C170.306 53.2134 171.637 51.6032 173.147 50.0392C174.657 48.4752 176.22 47.0895 177.752 45.9082C182.81 42.0231 187.6 40.4405 189.568 42.3406Z" fill="#475150"/>
<path d="M212.62 70.3872C212.992 76.0328 210.399 80.9927 206.265 84.2229C206.265 84.2229 207.409 82.9086 208.14 81.4285C208.188 81.3265 208.237 81.2245 208.282 81.1261C208.327 81.0277 208.364 80.9288 208.409 80.8305C208.473 80.6866 208.526 80.5459 208.571 80.4047C208.634 80.253 208.692 80.0893 208.741 79.9444C208.791 79.7802 208.843 79.6317 208.88 79.49L208.883 79.4785C208.944 79.3033 208.982 79.1345 209.023 78.9891C209.127 78.6143 209.175 78.3488 209.191 78.237C209.203 78.191 209.205 78.1716 209.205 78.1716C209.205 78.1716 210.583 76.6578 211.429 74.9204C212.572 72.5826 212.588 71.0234 212.62 70.3872Z" fill="#0099FF"/>
<path d="M199.485 80.7405C200.399 82.0773 200.686 83.2274 199.938 84.0798C197.934 86.3875 190.436 85.1915 185.409 80.7129C180.385 76.2306 177.063 69.986 179.067 67.6783C179.176 67.5567 179.287 67.4507 179.415 67.3691L179.423 67.3618C181.661 65.7068 186.741 68.6751 191.515 72.9162C194.648 75.7289 197.953 78.5017 199.485 80.7405Z" fill="#0099FF"/>
<path d="M199.937 81.4795C199.937 81.4795 195.186 81.4186 190.381 77.8214C187.29 75.5171 179.413 67.3718 179.413 67.3718L179.42 67.3645C181.659 65.7094 186.618 68.4329 191.474 72.5624C199.376 79.2853 199.937 81.4795 199.937 81.4795Z" fill="#0099FF"/>
<path d="M177.75 45.9079L186.417 54.2773C186.417 54.2773 184.134 57.3226 182.449 59.0237C180.918 60.5669 179.376 61.9733 177.852 63.1473L169.185 54.7779C170.305 53.2131 171.635 51.6029 173.145 50.0389C174.659 48.4713 176.222 47.0856 177.75 45.9079Z" fill="#5E6466"/>
<path d="M189.566 42.3404C190.918 43.6459 190.575 46.2666 189.205 49.5552C188.392 51.5087 186.417 54.2774 186.417 54.2774C186.417 54.2774 182.336 50.4993 179.861 48.0308C178.646 46.8156 177.75 45.908 177.75 45.908C182.809 42.0229 187.598 40.4403 189.566 42.3404Z" fill="#747A7C"/>
<path d="M189.567 42.3406C190.919 43.6461 190.683 46.3201 189.206 49.5554C187.019 46.0737 183.858 46.1853 179.922 48.0037C179.898 48.0022 179.88 48.0206 179.862 48.0311C179.108 48.3812 178.325 48.7958 177.514 49.2475C175.237 50.5461 172.456 53.2532 170.176 55.7266C167.727 58.3998 165.862 60.8056 165.824 60.8966C165.824 60.8966 165.824 60.8966 165.826 60.8851C166.502 59.0398 167.647 56.9319 169.19 54.7745C170.31 53.2097 171.64 51.5995 173.15 50.0355C174.015 49.1397 174.898 48.3034 175.779 47.5291C176.437 46.9512 177.094 46.4083 177.752 45.9082C182.81 42.0232 187.6 40.4405 189.567 42.3406Z" fill="#929799"/>
<path d="M177.75 45.908L179.861 48.0309C179.106 48.3811 178.323 48.7956 177.513 49.2473C175.235 50.5459 172.455 53.253 170.174 55.7264L169.188 54.7743C170.308 53.2095 171.639 51.5993 173.149 50.0353C174.014 49.1395 174.897 48.3032 175.777 47.529L177.75 45.908Z" fill="#6F7577"/>
<path d="M170.174 55.7265L169.188 54.7744C169.188 54.7744 168.042 56.2287 167.182 57.9458C166.323 59.663 165.822 60.8965 165.822 60.8965L170.174 55.7265Z" fill="#5E6466"/>
<path d="M184.916 56.1492C183.581 57.798 181.922 59.594 179.846 61.4849C173.418 67.3745 169.012 67.4829 169.012 67.4829C169.012 67.4829 167.639 66.0788 173.531 58.9692C173.531 58.9692 172.613 60.4104 172.323 61.6764C172.164 62.3747 172.556 63.3912 174.857 62.9462C176.695 62.5854 182.431 58.7656 184.916 56.1492Z" fill="#475150"/>
<path d="M180.948 53.4717C181.098 53.6173 180.918 54.0458 180.549 54.4276C180.18 54.8094 179.758 55.005 179.608 54.8595C179.457 54.714 179.634 54.2892 180.006 53.9037C180.379 53.526 180.801 53.3304 180.948 53.4717Z" fill="#5E6466"/>
<path d="M192.832 54.9159C191.088 52.1332 194.63 48.4637 196.877 47.0299C196.877 47.0299 198.229 45.4652 201.032 48.2682C204.128 51.3636 202.27 53.4821 202.27 53.4821C200.248 55.6328 195.529 59.2173 192.832 54.9159Z" fill="#FBBEAA"/>
<path d="M197.785 60.3039C196.041 57.5212 199.582 53.8517 201.829 52.4179C201.829 52.4179 203.182 50.8532 205.985 53.6562C209.08 56.7516 207.223 58.8701 207.223 58.8701C205.2 61.0208 200.481 64.6053 197.785 60.3039Z" fill="#FBBEAA"/>
<path d="M202.737 65.2563C200.993 62.4737 204.535 58.8042 206.782 57.3704C206.782 57.3704 208.134 55.8057 210.937 58.6086C214.032 61.704 212.175 63.8225 212.175 63.8225C210.153 65.9732 205.434 69.5577 202.737 65.2563Z" fill="#FBBEAA"/>
<path d="M208.848 69.6645C207.402 67.3323 210.338 64.2567 212.2 63.0549C212.2 63.0549 213.321 61.7434 215.644 64.0927C218.209 66.6872 216.67 68.4628 216.67 68.4628C214.994 70.2654 211.083 73.2698 208.848 69.6645Z" fill="#FBBEAA"/>
<path d="M196.453 79.5135L196.854 79.0978L197.44 79.6632L197.868 79.2197L197.283 78.6544L197.684 78.2387L199.283 79.7834L198.882 80.199L198.249 79.5873L197.82 80.0309L198.454 80.6426L198.052 81.0582L196.453 79.5135L196.453 79.5135ZM199.116 76.7556L200.716 78.3002L200.328 78.7018L199.108 77.5233L198.853 77.7864L199.313 78.2297C199.519 78.429 199.758 78.6871 199.794 78.9352C199.845 79.1986 199.692 79.4534 199.417 79.6422L199.02 79.2592C199.282 79.0843 199.24 78.9358 198.923 78.63L198.084 77.819L199.113 76.7527L199.116 76.7556ZM199.451 76.4086L199.853 75.9929L201.03 76.6754L200.307 75.5228L200.708 75.1071L202.495 76.4574L202.121 76.845L201.172 76.1152L201.813 77.164L201.545 77.441L200.476 76.8359L201.239 77.7587L200.864 78.1464L199.451 76.4086L199.451 76.4086ZM201.043 74.7602L201.444 74.3446L202.094 74.9717L201.832 73.943L202.274 73.4854L202.558 74.7761L203.887 75.016L203.406 75.5143L202.396 75.2608L203.045 75.8879L202.644 76.3036L201.044 74.7589L201.043 74.7601L201.043 74.7602ZM197.605 74.8957C195.197 77.3893 194.634 80.0337 196.153 81.5012C197.658 82.9546 200.295 82.3149 202.704 79.8201C205.126 77.3126 205.659 74.6667 204.156 73.2146C202.636 71.7471 200.028 72.3869 197.605 74.8957ZM202.467 79.5914C200.205 81.9338 197.76 82.5962 196.382 81.2648C194.988 79.9193 195.581 77.4654 197.842 75.1244C200.116 72.7693 202.534 72.1029 203.929 73.4498C205.307 74.7812 204.743 77.2351 202.467 79.5914ZM198.064 75.339C195.937 77.5415 195.358 79.8217 196.609 81.0296C197.86 82.2375 200.118 81.5793 202.245 79.3768C204.372 77.1742 204.951 74.8941 203.7 73.6862C202.451 72.4769 200.192 73.1352 198.064 75.339ZM202.199 79.3319C200.097 81.5077 197.87 82.1662 196.651 80.989C195.432 79.8119 196.013 77.5613 198.113 75.3867C200.213 73.2121 202.442 72.5524 203.661 73.7295C204.881 74.9054 204.3 77.1561 202.199 79.3319L202.199 79.3319Z" fill="white"/>
<path d="M103.518 67.6708H73.5945V102.863H103.518V67.6708Z" fill="#FBBEAA"/>
<path d="M73.6209 67.6708H103.445V87.3049C102.142 87.4667 100.831 87.5497 99.5181 87.5535C89.2288 87.5535 77.7217 84.745 73.5215 74.928L73.6209 67.6708Z" fill="#F18380"/>
<path d="M118.979 41.5502C118.755 51.7152 118.979 59.7428 117.164 67.4971C115.35 75.2513 109.708 81.5889 97.2818 81.5889C84.8551 81.5889 70.6887 77.5378 69.6946 62.0045C67.6566 59.7925 64.3511 51.914 64.2268 43.0911C64.1026 34.2681 64.7736 15.6033 84.9048 12.7451C105.036 9.88698 119.55 17.2684 118.979 41.5502Z" fill="#FBBEAA"/>
<path d="M108.488 49.5527C108.488 50.9197 109.308 52.0381 110.327 52.0381C111.346 52.0381 112.166 50.9197 112.166 49.5527C112.166 48.1858 111.346 47.0674 110.327 47.0674C109.308 47.0674 108.488 48.0864 108.488 49.5527Z" fill="#403D4F"/>
<path d="M86.1226 49.5527C86.1226 50.9197 86.9427 52.0381 87.9617 52.0381C88.9807 52.0381 89.8009 50.9197 89.8009 49.5527C89.8009 48.1858 88.9558 47.0674 87.9617 47.0674C86.9676 47.0674 86.1226 48.0864 86.1226 49.5527Z" fill="#403D4F"/>
<path d="M90.7178 41.7488C90.519 41.9725 89.2266 41.7488 88.2324 41.7488C87.2383 41.7488 85.3246 41.7488 85.3246 41.5251C85.3246 41.3014 86.269 39.7605 88.7544 40.0339C90.4444 40.2327 90.9415 41.3511 90.7178 41.7488Z" fill="#403D4F"/>
<path d="M108.115 41.7488C108.264 41.9725 109.383 41.7488 110.253 41.7488C111.122 41.7488 112.738 41.7488 112.738 41.5251C112.738 41.3014 111.943 39.7605 109.83 40.0339C108.115 40.2327 107.792 41.3511 108.115 41.7488Z" fill="#403D4F"/>
<path d="M100.661 59.8419C102.401 59.8419 103.793 58.6986 103.842 57.8784L103.271 50.8698C103.252 50.6961 103.166 50.5366 103.031 50.4253C102.897 50.3139 102.724 50.2594 102.55 50.2733C102.465 50.2796 102.382 50.3026 102.306 50.341C102.23 50.3795 102.162 50.4325 102.107 50.4972C102.052 50.5619 102.009 50.6369 101.983 50.7179C101.957 50.7989 101.947 50.8843 101.953 50.9692L102.5 57.7293C102.249 58.0017 101.94 58.2145 101.596 58.3521C101.252 58.4897 100.882 58.5487 100.512 58.5246C100.425 58.5179 100.338 58.5288 100.255 58.5566C100.173 58.5845 100.097 58.6288 100.032 58.6869C99.9665 58.7449 99.9139 58.8155 99.8769 58.8944C99.8399 58.9733 99.8192 59.0589 99.8161 59.146C99.8128 59.2341 99.8269 59.322 99.8576 59.4047C99.8882 59.4874 99.9349 59.5633 99.9949 59.6279C100.055 59.6925 100.127 59.7447 100.207 59.7814C100.288 59.8181 100.374 59.8387 100.462 59.8419H100.661Z" fill="#F18380"/>
<path d="M99.2427 64.812C101.33 64.9363 104.835 66.1044 104.86 67.024C104.827 68.7314 104.122 70.357 102.899 71.5482C101.675 72.7393 100.031 73.3998 98.3231 73.3865C90.6683 73.3865 90.6931 67.4713 91.0162 66.179C91.3393 64.8866 95.3656 64.5635 99.2427 64.812Z" fill="#73102A"/>
<path d="M90.9937 68.2422C93.064 67.4923 95.3225 67.4384 97.4262 68.0888C99.53 68.7392 101.364 70.0584 102.65 71.8459C101.462 72.8995 99.9119 73.4518 98.3254 73.3868C92.9074 73.3868 91.3416 70.4541 90.9937 68.2422Z" fill="#D65155"/>
<path d="M91.3172 65.7321C92.3859 64.8125 95.8902 64.5889 99.2454 64.8125C101.308 64.9368 104.788 66.0801 104.862 67.0245C100.309 67.67 95.6667 67.2271 91.3172 65.7321Z" fill="white"/>
<path d="M82.219 32.5528C82.219 38.6667 79.7337 41.3261 77.8697 42.4942C76.0057 43.6623 74.6387 44.8304 74.6387 46.9429V54.3989C74.6387 55.2439 74.1417 55.8901 73.4955 55.6664C72.8493 55.4428 70.4385 54.2249 70.4385 53.0071L62.9825 47.7382C61.0431 43.1446 60.3239 38.1276 60.8948 33.1742C61.1167 30.3967 61.9354 27.6998 63.2951 25.2678C64.6548 22.8358 66.5234 20.7259 68.7733 19.0823C68.7733 13.7885 73.744 4.36912 84.2073 0.641113C84.4632 2.55459 84.4632 4.49362 84.2073 6.40709C88.9543 2.10746 104.935 0.790235 110.676 2.7785C109.834 4.66163 108.616 6.35303 107.097 7.74917C114.939 9.56023 121.917 14.0192 126.856 20.3747C125.282 22.4262 123.292 24.1204 121.015 25.3453C123.627 28.938 125.177 33.1921 125.489 37.6229C120.77 37.1861 116.145 36.0381 111.77 34.218C112.014 36.4023 111.888 38.6121 111.397 40.7544C106.426 40.4562 97.0316 35.3861 94.3723 31.3102C94.7884 34.6299 94.6032 37.9974 93.8255 41.2515C89.2051 39.5204 85.1773 36.5017 82.219 32.5528Z" fill="#403D4F"/>
<path d="M70.2137 54.2747C70.2137 51.4415 69.642 47.2661 65.6407 47.1667C61.6393 47.0673 61.0925 50.0994 61.2167 54.8712C61.341 59.6431 66.1874 63.6942 70.4373 62.0538L70.2137 54.2747Z" fill="#FBBEAA"/>
<path d="M64.3237 57.7045C64.4951 57.6684 64.6466 57.569 64.7479 57.4262C64.8493 57.2834 64.893 57.1077 64.8705 56.934C64.8711 56.7969 64.9083 56.6624 64.9782 56.5444C65.0481 56.4265 65.1482 56.3293 65.2682 56.263C65.5268 56.094 65.8291 56.004 66.1381 56.004C66.447 56.004 66.7493 56.094 67.0079 56.263C67.1137 56.324 67.2337 56.3562 67.3559 56.3562C67.478 56.3562 67.598 56.324 67.7038 56.263C67.8117 56.2014 67.8995 56.1101 67.9568 55.9999C68.0141 55.8897 68.0385 55.7653 68.0269 55.6416C67.6541 51.6402 65.1191 50.8946 65.0197 50.8698C64.9348 50.8436 64.8454 50.8352 64.7572 50.8451C64.6689 50.855 64.5837 50.8829 64.5067 50.9273C64.4297 50.9716 64.3627 51.0313 64.3099 51.1026C64.257 51.174 64.2195 51.2555 64.1995 51.342C64.1536 51.5068 64.1749 51.683 64.2588 51.8321C64.3427 51.9812 64.4822 52.0909 64.6469 52.1373C65.1408 52.3657 65.5712 52.7117 65.9005 53.145C66.2298 53.5782 66.4479 54.0856 66.5357 54.6226C65.8546 54.5117 65.1565 54.6531 64.5723 55.0203C64.2274 55.215 63.9485 55.5083 63.7714 55.8625C63.5943 56.2168 63.527 56.6158 63.5782 57.0086C63.5694 57.1065 63.583 57.2052 63.6182 57.2971C63.6533 57.389 63.7089 57.4716 63.7808 57.5388C63.8528 57.6059 63.9391 57.6557 64.0331 57.6844C64.1272 57.7131 64.2266 57.72 64.3237 57.7045Z" fill="#F18380"/>
<path d="M42.1233 105.088C36.0414 112.908 6.73778 195.093 6.73778 195.093C39.3197 184.667 23.1261 180.67 40.8465 183.652C40.8465 183.652 68.532 124.897 69.3122 120.606C70.1264 117.224 69.761 113.664 68.2763 110.518C66.7917 107.371 64.277 104.826 61.1485 103.304C52.4276 98.8458 48.2053 97.2682 42.1233 105.088Z" fill="#003399"/>
<path d="M110.359 95.0657L176.372 139.588C176.094 141.865 181.444 95.0657 181.444 95.0657L205.878 97.3464C205.878 97.3464 204.45 144.994 200.854 170.158C199.427 180.145 191.115 183.932 181.259 181.781C176.393 180.72 171.811 178.723 167.735 175.861C150.217 163.565 101.07 128.932 97.0516 124.575C90.1192 117.058 90.1192 111.427 94.1033 105.239C98.0874 99.0499 106.613 94.1361 110.359 95.0657Z" fill="#002B80"/>
<path d="M32.4537 329.02C32.0372 332.204 32.2562 335.44 33.098 338.539C33.9399 341.638 35.3879 344.54 37.3583 347.076C39.3287 349.612 41.7824 351.732 44.5774 353.313C47.3724 354.895 50.4533 355.907 53.6419 356.29C56.8304 356.673 60.0633 356.421 63.1536 355.546C66.2438 354.672 69.13 353.194 71.6453 351.197C74.1606 349.2 76.255 346.725 77.8073 343.913C79.3597 341.102 80.3392 338.011 80.6891 334.818C80.6891 334.818 93.3353 245.995 96.3343 228.051C99.3334 210.106 96.1594 195.086 76.0655 190.812C55.2219 186.388 42.2008 201.659 40.6263 216.954C39.0517 232.249 32.4537 329.02 32.4537 329.02Z" fill="#93929C"/>
<path d="M72.3169 330.744C72.2373 337.187 74.7204 343.398 79.2199 348.01C83.7194 352.622 89.8668 355.257 96.3096 355.337C102.752 355.416 108.963 352.933 113.575 348.434C118.187 343.934 120.823 337.787 120.902 331.344C120.902 331.344 123.976 241.671 125.026 223.502C126.076 205.332 121.327 190.762 100.883 188.662C79.6896 186.488 68.3931 203.058 68.3931 218.453C68.3931 233.849 72.3169 330.744 72.3169 330.744Z" fill="#93929C"/>
<path d="M111.205 436.412C111.205 436.412 110.005 487.372 109.705 494.994C109.405 502.617 104.582 504.692 96.809 505.366C89.0363 506.041 85.7624 499.868 84.6627 494.969C83.563 490.071 76.915 440.111 76.915 440.111L111.205 436.412Z" fill="#FBBEAA"/>
<path d="M110.33 471.951L81.6636 475.025C79.4392 459.255 76.915 440.036 76.915 440.036L111.205 436.337C111.205 436.337 110.755 455.431 110.33 471.951Z" fill="#F18380"/>
<path d="M72.3169 330.745C72.3563 327.554 73.0236 324.403 74.2808 321.471C75.538 318.539 77.3604 315.883 79.6441 313.655C81.9277 311.427 84.6278 309.671 87.5902 308.486C90.5526 307.302 93.7193 306.712 96.9094 306.752C100.1 306.791 103.251 307.459 106.183 308.716C109.115 309.973 111.771 311.795 113.999 314.079C116.227 316.363 117.983 319.063 119.168 322.025C120.352 324.988 120.942 328.154 120.902 331.344L115.904 473.383L76.6906 477.607L72.3169 330.745Z" fill="#93929C"/>
<path d="M59.8953 438.362C59.8953 438.362 53.2473 488.896 52.1476 496.419C51.048 503.942 46.0245 505.541 38.2019 505.366C30.3793 505.192 27.805 498.719 27.2302 493.745C26.6554 488.772 25.4057 438.362 25.4057 438.362H59.8953Z" fill="#FBBEAA"/>
<path d="M55.0965 473.601H26.2552C25.7554 457.706 25.2805 438.362 25.2805 438.362H59.895C59.895 438.362 57.3958 457.206 55.0965 473.601Z" fill="#F18380"/>
<path d="M32.4534 329.02C33.2833 322.675 36.5832 316.914 41.6361 312.988C46.6891 309.062 53.0869 307.288 59.4401 308.052C65.7932 308.816 71.5884 312.055 75.567 317.067C79.5455 322.078 81.3861 328.457 80.6888 334.818L58.9458 478.381H19.5078L32.4534 329.02Z" fill="#93929C"/>
<path d="M79.6642 334.818L57.2461 477.132" stroke="#676767" stroke-width="0.75" stroke-miterlimit="10" stroke-linecap="round"/>
<path d="M79.6889 334.818C79.6889 334.818 92.3351 245.995 95.3342 228.051" stroke="#676767" stroke-width="0.75" stroke-miterlimit="10" stroke-linecap="round"/>
<path d="M40.8262 479.524C43.6609 479.321 46.4715 480.165 48.7245 481.898C50.9774 483.63 52.5158 486.129 53.0475 488.921L66.0935 502.292V510.615H24.2812C24.2812 510.615 26.3806 495.619 26.9804 492.245C27.5802 488.871 29.6046 479.524 40.8262 479.524Z" fill="#FBBEAA"/>
<path d="M53.0219 488.821C53.4968 488.172 54.1716 487.672 54.6464 487.972C55.1213 488.271 67.7425 498.268 68.3423 498.768C68.7117 499.115 68.9911 499.547 69.1566 500.026C69.3221 500.505 69.3685 501.017 69.292 501.517V512.239H23.3559C23.3559 512.239 25.1554 496.394 25.2803 495.519C25.4053 494.645 26.28 493.495 26.7799 493.52C29.9328 494.486 33.205 495.007 36.5019 495.069C40.8838 495.302 45.2548 494.443 49.2231 492.57C50.6944 491.547 51.9793 490.279 53.0219 488.821Z" fill="#2E70AC"/>
<path d="M61.7444 503.242C59.5201 501.592 51.5225 495.344 48.5234 492.995L49.2232 492.645C49.3176 492.604 49.4027 492.545 49.4732 492.47C52.6722 494.969 60.1949 500.868 62.3442 502.467C64.1612 503.859 65.4058 505.868 65.8432 508.115L64.8685 508.265C64.4562 506.273 63.3489 504.493 61.7444 503.242Z" fill="#1E2173"/>
<path d="M24.6057 501.318C27.8431 501.35 30.9758 502.468 33.503 504.492C35.7872 506.515 37.3345 509.241 37.9017 512.239H36.5521C36.0001 509.641 34.6345 507.286 32.6533 505.516C30.3274 503.653 27.4357 502.64 24.4558 502.642L24.6057 501.318Z" fill="#1E2173"/>
<path d="M68.2174 498.668C68.6922 498.468 71.0165 499.143 74.0406 502.117C75.2997 503.418 76.2061 505.02 76.674 506.769C77.142 508.518 77.156 510.358 76.7148 512.114H61.5444C62.3942 502.517 67.7425 498.868 68.2174 498.668Z" fill="white"/>
<path d="M62.3942 498.819C62.2069 499.048 62.1176 499.342 62.1457 499.637C62.1738 499.931 62.317 500.203 62.5442 500.393C62.6557 500.485 62.7843 500.554 62.9226 500.597C63.0609 500.639 63.2061 500.653 63.3501 500.639C63.494 500.626 63.6338 500.583 63.7614 500.515C63.889 500.447 64.0019 500.355 64.0937 500.243L66.593 497.219C66.7803 496.99 66.8696 496.696 66.8415 496.401C66.8134 496.106 66.6702 495.834 66.443 495.645C66.3329 495.549 66.2047 495.477 66.066 495.433C65.9273 495.389 65.781 495.373 65.6361 495.387C65.4912 495.401 65.3507 495.445 65.223 495.515C65.0954 495.585 64.9832 495.68 64.8935 495.794L62.3942 498.819Z" fill="white"/>
<path d="M59.4201 496.544C59.2328 496.773 59.1435 497.067 59.1716 497.362C59.1996 497.657 59.3428 497.929 59.5701 498.118C59.6801 498.214 59.8085 498.286 59.9472 498.33C60.0859 498.374 60.2321 498.39 60.377 498.376C60.5219 498.362 60.6624 498.318 60.7901 498.248C60.9178 498.178 61.0299 498.083 61.1196 497.968L63.6189 494.944C63.8001 494.713 63.8856 494.42 63.8577 494.127C63.8298 493.834 63.6906 493.563 63.4689 493.37C63.3588 493.275 63.2306 493.203 63.0918 493.158C62.9531 493.114 62.8069 493.099 62.662 493.113C62.5171 493.127 62.3766 493.17 62.2489 493.24C62.1212 493.31 62.0091 493.405 61.9194 493.52L59.4201 496.544Z" fill="white"/>
<path d="M56.546 494.295C56.3572 494.517 56.2643 494.805 56.2877 495.096C56.3112 495.386 56.449 495.656 56.671 495.844C56.9003 496.032 57.1942 496.121 57.489 496.093C57.7838 496.065 58.0556 495.922 58.2454 495.695L60.7447 492.67C60.8497 492.568 60.9332 492.446 60.9902 492.31C61.0472 492.175 61.0766 492.03 61.0766 491.883C61.0766 491.736 61.0472 491.591 60.9902 491.456C60.9332 491.321 60.8497 491.198 60.7447 491.096C60.5129 490.915 60.2205 490.829 59.9276 490.857C59.6347 490.885 59.3636 491.024 59.1702 491.246L56.546 494.295Z" fill="white"/>
<path d="M53.647 492.021C53.555 492.132 53.4858 492.261 53.4436 492.399C53.4013 492.537 53.3867 492.682 53.4006 492.826C53.4145 492.97 53.4567 493.11 53.5247 493.238C53.5927 493.365 53.6852 493.478 53.797 493.57C54.0072 493.776 54.2898 493.892 54.5842 493.892C54.8786 493.892 55.1613 493.776 55.3715 493.57L57.8707 490.521C58.058 490.292 58.1474 489.998 58.1193 489.703C58.0912 489.408 57.948 489.136 57.7208 488.946C57.6093 488.854 57.4806 488.785 57.3424 488.743C57.2041 488.701 57.0588 488.686 56.9149 488.7C56.771 488.714 56.6312 488.756 56.5036 488.824C56.376 488.892 56.263 488.985 56.1712 489.096L53.647 492.021Z" fill="white"/>
<path d="M99.5581 479.524C102.393 479.321 105.203 480.165 107.456 481.898C109.709 483.63 111.248 486.129 111.779 488.921L124.8 502.292V510.615H83.0132C83.0132 510.615 85.0875 495.619 85.7123 492.245C86.3371 488.871 88.3365 479.524 99.5581 479.524Z" fill="#FBBEAA"/>
<path d="M111.754 488.821C112.229 488.172 112.879 487.672 113.379 487.972C113.879 488.271 126.475 498.268 127.05 498.768C127.625 499.268 128.024 499.893 128.024 501.517V512.239H82.0884C82.0884 512.239 83.8878 496.394 84.0128 495.519C84.1377 494.645 85.0125 493.495 85.5123 493.52C88.6652 494.486 91.9374 495.007 95.2344 495.069C99.6085 495.306 103.972 494.447 107.931 492.57C109.413 491.552 110.707 490.284 111.754 488.821Z" fill="#2E70AC"/>
<path d="M120.477 503.242C118.252 501.592 110.255 495.344 107.256 492.995L107.931 492.645C108.033 492.605 108.126 492.546 108.205 492.47C111.405 494.969 118.927 500.868 121.077 502.467C122.894 503.859 124.138 505.868 124.576 508.115L123.601 508.265C123.176 506.278 122.072 504.501 120.477 503.242Z" fill="#1E2173"/>
<path d="M83.3379 501.318C86.5752 501.35 89.708 502.468 92.2352 504.492C94.5194 506.515 96.0667 509.241 96.6339 512.239H95.2843C94.7255 509.638 93.3508 507.282 91.3605 505.516C89.0462 503.65 86.161 502.635 83.188 502.642L83.3379 501.318Z" fill="#1E2173"/>
<path d="M126.95 498.668C127.425 498.468 129.749 499.143 132.773 502.117C134.032 503.418 134.939 505.02 135.406 506.769C135.874 508.518 135.888 510.358 135.447 512.114H120.277C121.127 502.517 126.475 498.868 126.95 498.668Z" fill="white"/>
<path d="M121.027 498.819C120.839 499.048 120.75 499.342 120.778 499.637C120.806 499.931 120.949 500.203 121.177 500.393C121.288 500.485 121.417 500.554 121.555 500.597C121.693 500.639 121.838 500.653 121.982 500.639C122.126 500.626 122.266 500.583 122.394 500.515C122.521 500.447 122.634 500.355 122.726 500.243L125.225 497.219C125.407 496.987 125.492 496.695 125.464 496.402C125.436 496.109 125.297 495.838 125.075 495.645C124.965 495.549 124.837 495.477 124.698 495.433C124.56 495.389 124.413 495.373 124.268 495.387C124.124 495.401 123.983 495.445 123.855 495.515C123.728 495.585 123.616 495.68 123.526 495.794L121.027 498.819Z" fill="white"/>
<path d="M118.153 496.544C117.965 496.773 117.876 497.067 117.904 497.362C117.932 497.657 118.075 497.929 118.302 498.118C118.413 498.214 118.541 498.286 118.68 498.33C118.818 498.374 118.965 498.39 119.109 498.376C119.254 498.362 119.395 498.318 119.523 498.248C119.65 498.178 119.762 498.083 119.852 497.968L122.351 494.944C122.532 494.713 122.618 494.42 122.59 494.127C122.562 493.834 122.423 493.563 122.201 493.37C121.972 493.183 121.678 493.093 121.383 493.121C121.088 493.149 120.817 493.293 120.627 493.52L118.153 496.544Z" fill="white"/>
<path d="M115.278 494.295C115.174 494.395 115.091 494.515 115.034 494.648C114.977 494.781 114.948 494.925 114.948 495.069C114.948 495.214 114.977 495.357 115.034 495.49C115.091 495.623 115.174 495.744 115.278 495.844C115.508 496.031 115.801 496.121 116.096 496.093C116.391 496.065 116.663 495.921 116.853 495.694L119.352 492.67C119.539 492.441 119.629 492.147 119.601 491.852C119.572 491.557 119.429 491.285 119.202 491.096C119.09 491.003 118.962 490.934 118.824 490.892C118.685 490.85 118.54 490.835 118.396 490.849C118.252 490.863 118.112 490.905 117.985 490.973C117.857 491.041 117.744 491.134 117.652 491.245L115.278 494.295Z" fill="white"/>
<path d="M112.379 492.021C112.287 492.132 112.218 492.261 112.176 492.399C112.134 492.537 112.119 492.682 112.133 492.826C112.147 492.97 112.189 493.11 112.257 493.238C112.325 493.365 112.418 493.478 112.529 493.57C112.74 493.776 113.022 493.892 113.317 493.892C113.611 493.892 113.894 493.776 114.104 493.57L116.603 490.521C116.791 490.292 116.88 489.998 116.852 489.703C116.824 489.408 116.68 489.136 116.453 488.946C116.342 488.854 116.213 488.785 116.075 488.743C115.937 488.701 115.791 488.686 115.647 488.7C115.503 488.714 115.364 488.756 115.236 488.824C115.108 488.892 114.996 488.985 114.904 489.096L112.379 492.021Z" fill="white"/>
<path d="M124.291 204.064C124.291 204.064 124.291 229.982 124.291 231.406C124.291 232.831 111.794 245.052 95.1994 245.052C69.6822 245.052 39.1415 235.73 39.5913 229.657C39.8912 225.658 40.2661 204.064 40.2661 204.064H124.291Z" fill="#93929C"/>
<path d="M103.378 90.9737C103.378 90.9737 120.697 100.971 123.372 102.72C126.046 104.47 129.145 107.169 128.57 114.467C127.995 121.764 125.696 217.635 125.696 217.635C120.288 220.554 114.537 222.787 108.576 224.283C105.702 224.608 103.428 224.683 101.478 222.784C99.5288 220.884 93.7806 213.986 93.7806 213.986C93.7806 213.986 84.3084 220.409 80.0347 222.784C79.0163 223.495 77.8654 223.994 76.6504 224.251C75.4354 224.509 74.1811 224.52 72.9619 224.283C66.7387 223.009 42.2462 215.861 41.4714 215.411C40.6966 214.961 39.9719 214.486 40.0468 213.637C40.1218 212.787 40.5717 115.291 40.8966 110.893C40.9609 108.537 41.7022 106.25 43.0317 104.304C44.3613 102.358 46.223 100.837 48.3943 99.921C53.6177 97.5967 73.2368 89.6241 73.2368 89.6241L93.7056 103.845L103.378 90.9737Z" fill="#003399"/>
<path d="M103.377 88.175L93.7554 103.845C93.7554 103.845 103.202 111.343 103.752 111.893C104.302 112.443 105.402 112.393 105.627 111.518C105.852 110.643 108.576 94.0233 108.626 94.0233C108.674 93.9351 108.699 93.8363 108.699 93.7359C108.699 93.6354 108.674 93.5366 108.626 93.4485C108.376 93.2735 103.377 88.175 103.377 88.175Z" fill="#F5F5F5"/>
<g filter="url(#filter0_d_110_16)">
<rect x="67.2944" y="138.572" width="48.3361" height="68.8789" rx="1" transform="rotate(-6.55484 67.2944 138.572)" fill="#EFEFEF"/>
</g>
<path d="M73.1366 85.2755L93.7804 103.845C93.7804 103.845 82.9087 111.343 82.4338 111.892C82.2954 112.01 82.132 112.095 81.9561 112.14C81.7801 112.186 81.5961 112.191 81.418 112.155C81.2398 112.118 81.0722 112.042 80.9278 111.932C80.7834 111.822 80.666 111.68 80.5844 111.517C79.7846 110.243 66.9885 92.2733 66.9385 92.1234C66.8855 92.0369 66.8574 91.9374 66.8574 91.836C66.8574 91.7345 66.8855 91.635 66.9385 91.5486C67.2134 91.3986 73.1366 85.2755 73.1366 85.2755Z" fill="#F5F5F5"/>
<path d="M87.652 166.484C91.0772 165.036 94.1744 162.892 96.7468 160.186C98.3389 158.515 100.145 157.064 102.115 155.873C103.271 155.151 104.269 154.197 105.046 153.072C106.072 151.328 106.921 149.486 107.58 147.574C107.824 145.928 108.384 144.342 109.229 142.904C110.031 142.168 112.865 142.562 114.336 145.421C114.843 146.694 115.073 148.065 115.01 149.442C114.947 150.818 114.593 152.169 113.971 153.404C113.239 154.884 112.665 156.437 112.261 158.037L112.528 158.197C114.769 157.007 117.164 156.144 119.64 155.634C120.538 155.433 121.474 155.542 122.296 155.942C123.118 156.342 123.779 157.011 124.172 157.841C124.565 158.671 124.668 159.613 124.464 160.515C124.259 161.418 123.76 162.229 123.045 162.817C126.909 163.261 126.47 169.22 123.153 170.008C123.864 170.306 124.463 170.818 124.871 171.474C125.279 172.13 125.475 172.898 125.434 173.675C125.392 174.452 125.114 175.201 124.638 175.819C124.162 176.437 123.51 176.896 122.772 177.133C125.127 179.305 123.405 182.885 119.127 182.9C115.652 183.254 106.356 184.709 103.122 185.405C99.8874 186.102 93.3868 184.562 91.2985 185.208C88.1902 186.347 84.5799 186.366 81.8261 178.186C79.0723 170.007 84.4533 167.54 87.652 166.484Z" fill="#FBBEAA"/>
<path d="M93.7718 188.427L31.1597 213.634C23.1583 217.658 10.1586 215.594 6.23965 206.235C5.52208 204.49 5.16645 202.618 5.19429 200.731C5.22214 198.845 5.63287 196.984 6.40163 195.261C7.1704 193.538 8.28115 191.989 9.6665 190.708C11.0519 189.427 12.683 188.441 14.4609 187.809L88.4588 161.046L93.7718 188.427Z" fill="#003399"/>
<defs>
<filter id="filter0_d_110_16" x="67.4019" y="133.162" width="57.6679" height="73.7313" filterUnits="userSpaceOnUse" color-interpolation-filters="sRGB">
<feFlood flood-opacity="0" result="BackgroundImageFix"/>
<feColorMatrix in="SourceAlpha" type="matrix" values="0 0 0 0 0 0 0 0 0 0 0 0 0 0 0 0 0 0 127 0" result="hardAlpha"/>
<feOffset dx="2"/>
<feComposite in2="hardAlpha" operator="out"/>
<feColorMatrix type="matrix" values="0 0 0 0 0.603922 0 0 0 0 0.6 0 0 0 0 0.631373 0 0 0 1 0"/>
<feBlend mode="normal" in2="BackgroundImageFix" result="effect1_dropShadow_110_16"/>
<feBlend mode="normal" in="SourceGraphic" in2="effect1_dropShadow_110_16" result="shape"/>
</filter>
</defs>
</svg>
