<svg width="221" height="515" viewBox="0 0 221 515" fill="none" xmlns="http://www.w3.org/2000/svg">
<g clip-path="url(#clip0_21_290)">
<path d="M117.221 64.0459H147.216V98.424H117.221V64.0459Z" fill="#FBBEAA"/>
<path d="M147.142 64.0459H117.246V83.2258C118.552 83.3838 119.867 83.4649 121.183 83.4686C131.497 83.4686 143.031 80.7251 147.242 71.1352L147.142 64.0459Z" fill="#F18380"/>
<path d="M101.724 38.5298C101.973 48.4596 101.724 56.3015 103.568 63.8764C105.411 71.4512 111.042 77.6422 123.498 77.6422C135.955 77.6422 150.155 73.6848 151.152 58.5109C153.195 56.3501 156.508 48.6539 156.633 40.0351C156.757 31.4162 156.06 13.1832 135.905 10.3912C115.75 7.59921 101.176 14.8099 101.724 38.5298Z" fill="#FBBEAA"/>
<path d="M112.263 46.3469C112.263 47.6822 111.441 48.7747 110.419 48.7747C109.398 48.7747 108.576 47.6822 108.576 46.3469C108.576 45.0116 109.398 43.9191 110.419 43.9191C111.441 43.9191 112.263 44.9145 112.263 46.3469Z" fill="#403D4F"/>
<path d="M134.685 46.3469C134.685 47.6822 133.863 48.7747 132.842 48.7747C131.82 48.7747 130.998 47.6822 130.998 46.3469C130.998 45.0116 131.82 43.9191 132.842 43.9191C133.863 43.9191 134.685 44.9145 134.685 46.3469Z" fill="#403D4F"/>
<path d="M130.175 41.2972C130.35 41.5157 131.67 41.2972 132.667 41.2972C133.663 41.2972 135.582 41.2972 135.582 41.0787C135.582 40.8602 134.635 39.3549 132.144 39.622C130.35 39.8162 129.702 40.9087 130.175 41.2972Z" fill="#403D4F"/>
<path d="M112.686 41.2971C112.536 41.5156 111.415 41.2971 110.543 41.2971C109.671 41.2971 108.052 41.2971 108.052 41.0786C108.276 40.5284 108.698 40.0766 109.239 39.8084C109.78 39.5401 110.404 39.4738 110.992 39.6219C112.536 39.8162 112.96 40.9087 112.686 41.2971Z" fill="#403D4F"/>
<path d="M120.036 56.3985C118.292 56.3985 116.897 55.2817 116.847 54.4805L117.42 47.634C117.439 47.4644 117.525 47.3086 117.66 47.1998C117.795 47.091 117.968 47.0377 118.143 47.0514C118.228 47.0575 118.311 47.08 118.387 47.1175C118.463 47.155 118.531 47.2069 118.587 47.2701C118.642 47.3332 118.685 47.4065 118.711 47.4856C118.737 47.5648 118.748 47.6482 118.741 47.7311L118.193 54.3349C118.444 54.6009 118.754 54.8088 119.099 54.9432C119.444 55.0776 119.815 55.1352 120.186 55.1118C120.273 55.1052 120.36 55.1158 120.443 55.143C120.526 55.1703 120.602 55.2135 120.667 55.2702C120.733 55.3269 120.785 55.3959 120.822 55.473C120.86 55.55 120.88 55.6336 120.883 55.7187C120.884 55.8909 120.817 56.0568 120.697 56.183C120.577 56.3092 120.412 56.3862 120.236 56.3985H120.036Z" fill="#F18380"/>
<path d="M147.037 51.9796C149.769 51.6592 151.524 49.5518 152.02 47.1239C152.515 44.6961 154.069 45.91 157.002 45.91C159.935 45.91 161.435 40.2897 162.357 36.0142C163.557 30.4534 161.771 23.9436 160.011 21.6444C164.704 17.6209 162.357 3.82601 161.184 8.42429C160.245 12.1029 156.882 13.789 155.318 14.1722C150.625 -2.84158 132.244 0.185667 123.64 3.82601C116.6 1.06701 110.538 4.97559 108.387 7.27475C97.8281 3.82602 93.1351 8.42433 90.7886 10.7235C88.4421 13.0226 85.5089 26.2428 95.4816 31.9907C103.46 36.589 115.231 32.7571 120.12 30.2663C125.752 34.8646 133.417 33.3318 136.546 31.9907C137.015 34.7497 142.395 38.6965 144.546 41.1873C146.697 43.678 145.791 52.1257 147.037 51.9796Z" fill="#F3E8AE"/>
<path d="M150.604 50.9598C150.729 48.1921 151.177 44.1133 155.213 44.0162C159.249 43.9191 159.772 46.8811 159.648 51.5425C159.523 56.2039 154.665 60.1613 150.405 58.5589L150.604 50.9598Z" fill="#FBBEAA"/>
<path d="M156.533 54.3104C156.359 54.2807 156.203 54.185 156.1 54.044C155.998 53.9031 155.956 53.7283 155.985 53.5578C155.985 53.4208 155.945 53.2866 155.87 53.1706C155.796 53.0547 155.689 52.9617 155.562 52.9023C155.308 52.7363 155.008 52.6477 154.702 52.6477C154.396 52.6477 154.097 52.7363 153.843 52.9023C153.732 52.9618 153.608 52.993 153.482 52.993C153.355 52.993 153.231 52.9618 153.12 52.9023C153.019 52.8369 152.937 52.746 152.885 52.6391C152.832 52.5322 152.81 52.4134 152.821 52.2953C153.17 48.3865 155.736 47.6582 155.836 47.6339C155.921 47.6083 156.01 47.6001 156.099 47.6098C156.187 47.6194 156.273 47.6467 156.35 47.69C156.427 47.7333 156.494 47.7916 156.547 47.8613C156.6 47.931 156.638 48.0107 156.658 48.0952C156.704 48.2561 156.683 48.4283 156.599 48.574C156.515 48.7196 156.375 48.8268 156.21 48.8721C155.712 49.0917 155.278 49.4286 154.948 49.8525C154.617 50.2764 154.4 50.7738 154.316 51.2999C154.999 51.1915 155.699 51.3296 156.284 51.6884C156.626 51.8833 156.901 52.1707 157.078 52.5154C157.255 52.8602 157.326 53.2476 157.281 53.6306C157.285 53.7252 157.268 53.8196 157.231 53.9072C157.195 53.9948 157.139 54.0737 157.068 54.1383C156.997 54.2029 156.912 54.2517 156.82 54.2814C156.728 54.3111 156.63 54.321 156.533 54.3104Z" fill="#F18380"/>
<path d="M121.754 65.1383C124.159 65.0479 126.469 64.1955 128.332 62.7104" stroke="#73102A" stroke-width="0.5" stroke-miterlimit="10" stroke-linecap="round"/>
</g>
<path d="M36.7116 92.1941C36.5844 89.4147 37.3285 86.6649 38.8399 84.3289C41.1668 81.6308 42.9101 80.9675 43.96 77.5628C44.7677 74.4024 46.0578 71.3853 47.7847 68.618C49.0185 66.9215 50.8691 65.5336 50.8691 64.2381C50.8691 62.9427 48.4016 60.4443 44.8854 61.1537C43.3792 61.6229 41.9954 62.4192 40.8329 63.4857C39.6705 64.5521 38.7582 65.8623 38.1613 67.3226C37.8244 66.4329 37.6268 65.4966 37.5753 64.5466L36.8042 43.152C36.7925 42.6618 36.6827 42.179 36.4813 41.732C36.2799 41.285 35.9909 40.8828 35.6315 40.5493C35.2721 40.2158 34.8496 39.9577 34.3888 39.7902C33.928 39.6227 33.4384 39.5492 32.9487 39.5741C32.1692 39.6073 31.4195 39.8841 30.8054 40.3654C30.4938 40.6097 25.2768 46.9367 20.1845 53.2081C15.2418 59.2953 10.4167 65.3301 10.3091 65.699C11.2991 74.6894 13.1585 83.5626 15.8611 92.1941C15.8937 93.6353 16.2276 95.0536 16.8412 96.3581C17.4548 97.6625 18.3346 98.8242 19.4239 99.7683C20.5133 100.712 21.7882 101.418 23.1666 101.84C24.545 102.262 25.9964 102.391 27.4276 102.218C28.7228 102.262 30.0121 102.026 31.2081 101.527C32.4041 101.028 33.4789 100.278 34.3594 99.327C35.24 98.3762 35.9058 97.2472 36.3117 96.0165C36.7175 94.7858 36.8539 93.4822 36.7116 92.1941Z" fill="#FBBEAA"/>
<path d="M29.5704 36.0442L13.4186 51.6417C9.52659 56.0059 7.6866 60.4267 7.39572 64.5132C7.40284 64.5205 7.3985 64.5247 7.40206 64.5284C6.98827 70.2443 9.5982 75.2923 13.7888 78.5501C13.868 78.6233 13.9628 78.6956 14.0506 78.7605C14.0763 78.7785 14.0977 78.8006 14.1155 78.819C16.4149 80.5252 19.1654 81.7031 22.1278 82.1918C23.1071 82.3578 24.1177 82.4437 25.1453 82.4348C25.2313 82.4373 25.2857 82.4417 25.2979 82.437C25.3216 82.4356 25.3567 82.4373 25.4076 82.4381C30.0186 82.3752 34.932 80.6092 39.4032 76.5765L54.6011 61.9642L29.5704 36.0442Z" fill="#0099FF"/>
<path d="M7.3972 64.5324C6.75131 73.4869 13.5163 80.7865 22.1272 82.1916C23.6321 82.3133 24.7437 82.4086 25.1448 82.4346C25.2308 82.437 25.2852 82.4415 25.2974 82.4368C25.3211 82.4353 25.3562 82.4371 25.4071 82.4378C26.2867 82.3795 33.0573 81.749 42.1767 72.5861C49.194 65.5388 52.1473 62.9718 52.1473 62.9718L43.0578 59.2711C43.0578 59.2711 28.8838 74.5195 20.4671 75.756C12.0454 77.0046 7.85616 69.8972 7.3972 64.5324Z" fill="#0099FF"/>
<path d="M29.5687 36.0453L13.417 51.6428C11.3537 53.9631 9.86659 56.2829 8.8877 58.5751C8.88338 58.5793 8.88338 58.5793 8.87473 58.5877C8.01209 60.6108 7.53305 62.5985 7.3941 64.5143L7.39816 64.5531C7.39587 64.5767 7.40069 64.6077 7.39967 64.6585C7.02557 70.329 9.63015 75.3109 13.7829 78.5553C13.2241 78.0545 12.5134 77.059 11.8999 75.7487C11.8511 75.6462 11.8022 75.5437 11.757 75.4449C11.7117 75.3461 11.6743 75.2468 11.629 75.1479C11.5718 75.0108 11.5153 74.8658 11.4667 74.7203C11.4031 74.5679 11.3446 74.4035 11.2961 74.258C11.2518 74.1083 11.2004 73.9513 11.1562 73.8016L11.1534 73.79C11.0921 73.614 11.0537 73.4445 11.013 73.2985C10.9542 73.0559 10.8927 72.8018 10.8434 72.543C10.8322 72.4968 10.8301 72.4774 10.8301 72.4774C10.2737 69.651 10.5645 66.2915 12.9895 63.2727C16.4165 59.0154 23.1334 52.8426 27.2245 49.2125C29.2496 47.4066 30.6375 46.2302 30.6375 46.2302C30.6375 46.2302 29.9928 43.6673 29.4887 41.9164C29.2267 41.022 29.008 40.3282 28.9306 40.3174C28.7002 40.2691 29.5207 36.2984 29.5759 36.0527L29.5687 36.0453Z" fill="#0099FF"/>
<path d="M29.5705 36.045L13.4187 51.6426C11.3555 53.9629 9.86836 56.2826 8.88947 58.5748C10.5483 55.6973 14.1705 50.4392 20.2179 47.8916C22.8939 46.7683 25.0449 47.5418 27.2184 49.2127C29.9676 51.3326 32.7577 54.8882 36.714 57.8947C43.8057 63.2825 53.5036 63.0179 53.8322 62.7005L54.2387 62.308L52.4574 62.6528L46.64 61.0943L42.6233 58.3455C42.6233 58.3455 34.0732 49.4916 33.7883 49.1966C33.5034 48.9016 29.4747 41.9171 29.4747 41.9171L29.5619 36.0533L29.5705 36.045Z" fill="#0099FF"/>
<path d="M42.8132 59.5097L41.591 60.797C41.591 60.797 37.2158 58.7934 34.1131 55.7536C31.4151 53.1068 27.2225 49.2239 27.2225 49.2239L30.6354 46.2416L36.3575 52.7381L42.8132 59.5097Z" fill="#0099FF"/>
<path d="M52.1435 62.9768L51.7255 63.3662C52.4154 63.2844 53.161 63.1131 53.8313 62.7082L54.5967 61.969L52.1435 62.9768Z" fill="#0099FF"/>
<path d="M52.1426 62.9768L51.7246 63.3662C51.7246 63.3662 50.2683 63.6322 46.1214 62.5486C43.9084 61.9705 41.5807 60.7976 41.5807 60.7976L43.0451 59.2765C43.0451 59.2765 48.0043 61.6425 48.0643 61.7912C48.1365 61.9353 52.1426 62.9768 52.1426 62.9768Z" fill="#0099FF"/>
<path d="M36.6387 54.2684C29.7276 47.1117 26.5646 38.9544 29.5739 36.0483C32.5831 33.1423 40.6252 36.5881 47.5362 43.7447C54.4473 50.9013 57.6103 59.0587 54.601 61.9647C51.5917 64.8707 43.5497 61.425 36.6387 54.2684Z" fill="#A3A9AA"/>
<path d="M30.5517 36.4919C29.1938 37.8032 29.4308 40.4891 30.9142 43.7387C31.5572 45.1488 32.4396 46.677 33.5275 48.2276C33.6384 48.377 33.7485 48.5343 33.8665 48.6912C34.9618 50.2061 36.2468 51.7445 37.6997 53.2491C39.2167 54.82 40.7864 56.2118 42.3179 57.391C47.4055 61.3005 52.2201 62.8938 54.2007 60.9812C55.351 59.8704 55.3501 57.7405 54.4039 55.1337C54.4039 55.1337 54.4039 55.1337 54.4011 55.1222C53.7228 53.2687 52.5723 51.1514 51.023 48.9845C49.898 47.4128 48.5618 45.7955 47.0448 44.2246C45.5278 42.6537 43.9581 41.2619 42.4195 40.0753C37.3391 36.1731 32.528 34.5835 30.5517 36.4919Z" fill="#475150"/>
<path d="M7.39748 64.6626C7.02336 70.3331 9.62797 75.3149 13.7807 78.5594C13.7807 78.5594 12.6313 77.2393 11.8977 75.7527C11.8489 75.6502 11.8 75.5477 11.7548 75.4489C11.7095 75.3501 11.6721 75.2508 11.6268 75.152C11.5625 75.0075 11.5096 74.8661 11.4645 74.7243C11.4009 74.5719 11.3424 74.4075 11.2939 74.262C11.2432 74.0971 11.1911 73.9479 11.154 73.8056L11.1512 73.7941C11.0899 73.6181 11.0515 73.4485 11.0108 73.3025C10.9062 72.926 10.8577 72.6593 10.8412 72.547C10.83 72.5008 10.8279 72.4814 10.8279 72.4814C10.8279 72.4814 9.44318 70.9609 8.59364 69.2158C7.446 66.8677 7.42951 65.3015 7.39748 64.6626Z" fill="#0099FF"/>
<path d="M20.5901 75.0616C19.672 76.4043 19.3835 77.5595 20.1352 78.4157C22.1479 80.7336 29.6793 79.5323 34.7287 75.0339C39.7746 70.5318 43.1111 64.2596 41.0983 61.9417C40.9887 61.8195 40.8775 61.713 40.7483 61.6311L40.7412 61.6238C38.4924 59.9614 33.3904 62.9428 28.5954 67.2027C25.4485 70.0279 22.1291 72.8129 20.5901 75.0616Z" fill="#0099FF"/>
<path d="M20.1368 75.8039C20.1368 75.8039 24.9082 75.7428 29.7345 72.1297C32.8397 69.8152 40.7509 61.6339 40.7509 61.6339L40.7438 61.6265C38.4949 59.9641 33.5148 62.6996 28.6366 66.8474C20.6995 73.6 20.1368 75.8039 20.1368 75.8039Z" fill="#0099FF"/>
<path d="M42.4207 40.0751L33.7156 48.4815C33.7156 48.4815 36.0092 51.5402 37.7009 53.2488C39.2396 54.7989 40.7876 56.2115 42.3192 57.3907L51.0242 48.9843C49.8992 47.4126 48.563 45.7953 47.046 44.2244C45.5255 42.6498 43.9558 41.258 42.4207 40.0751Z" fill="#5E6466"/>
<path d="M30.553 36.4917C29.1951 37.803 29.5392 40.4353 30.9155 43.7384C31.7322 45.7006 33.7157 48.4815 33.7157 48.4815C33.7157 48.4815 37.815 44.6867 40.3013 42.2074C41.521 40.9867 42.4208 40.0751 42.4208 40.0751C37.3404 36.1729 32.5293 34.5832 30.553 36.4917Z" fill="#747A7C"/>
<path d="M30.552 36.492C29.1942 37.8032 29.4311 40.4891 30.9145 43.7387C33.1116 40.2416 36.2869 40.3536 40.2403 42.1801C40.264 42.1786 40.2818 42.1971 40.3003 42.2076C41.0578 42.5593 41.8443 42.9757 42.6586 43.4294C44.9461 44.7337 47.739 47.4528 50.0295 49.9372C52.4887 52.6222 54.3625 55.0386 54.4007 55.13C54.4007 55.13 54.4007 55.1301 54.3979 55.1185C53.7195 53.2651 52.5691 51.1478 51.0198 48.9809C49.8948 47.4091 48.5586 45.7919 47.0416 44.2209C46.1727 43.3212 45.2862 42.4811 44.4016 41.7035C43.7407 41.123 43.0804 40.5777 42.4198 40.0754C37.3394 36.1731 32.5283 34.5835 30.552 36.492Z" fill="#929799"/>
<path d="M42.4208 40.0751L40.3014 42.2074C41.0589 42.5591 41.8454 42.9755 42.6596 43.4292C44.9471 44.7335 47.74 47.4526 50.0305 49.937L51.0208 48.9807C49.8958 47.4089 48.5596 45.7916 47.0426 44.2207C46.1737 43.3209 45.2873 42.4809 44.4026 41.7032L42.4208 40.0751Z" fill="#6F7577"/>
<path d="M50.0306 49.9371L51.0209 48.9808C51.0209 48.9808 52.1724 50.4414 53.0357 52.1662C53.899 53.8909 54.4018 55.1299 54.4018 55.1299L50.0306 49.9371Z" fill="#5E6466"/>
<path d="M35.2241 50.3616C36.5643 52.0177 38.2312 53.8217 40.3159 55.7209C46.7724 61.6365 51.1982 61.7454 51.1982 61.7454C51.1982 61.7454 52.5774 60.3351 46.6592 53.1941C46.6592 53.1941 47.5808 54.6416 47.8727 55.9132C48.032 56.6147 47.6389 57.6356 45.327 57.1887C43.481 56.8262 37.7202 52.9896 35.2241 50.3616Z" fill="#475150"/>
<path d="M39.2101 47.6723C39.0587 47.8185 39.2403 48.2489 39.6107 48.6324C39.981 49.0159 40.4048 49.2124 40.5562 49.0663C40.7075 48.9201 40.5295 48.4934 40.1556 48.1062C39.7809 47.7269 39.3571 47.5304 39.2101 47.6723Z" fill="#5E6466"/>
<path d="M27.2726 49.1228C29.0246 46.3279 25.4673 42.6422 23.2102 41.202C23.2102 41.202 21.8519 39.6304 19.0366 42.4457C15.9277 45.5548 17.793 47.6827 17.793 47.6827C19.8244 49.8429 24.5644 53.4433 27.2726 49.1228Z" fill="#FBBEAA"/>
<path d="M22.298 54.5346C24.05 51.7397 20.4926 48.054 18.2356 46.6138C18.2356 46.6138 16.8772 45.0422 14.062 47.8575C10.953 50.9666 12.8184 53.0945 12.8184 53.0945C14.8498 55.2547 19.5898 58.8551 22.298 54.5346Z" fill="#FBBEAA"/>
<path d="M17.3239 59.509C19.0758 56.7141 15.5185 53.0283 13.2614 51.5882C13.2614 51.5882 11.9031 50.0166 9.08788 52.8319C5.97892 55.941 7.84429 58.0688 7.84429 58.0688C9.87568 60.2291 14.6157 63.8294 17.3239 59.509Z" fill="#FBBEAA"/>
<path d="M11.1859 63.9367C12.6379 61.5941 9.68972 58.5049 7.81912 57.2979C7.81912 57.2979 6.6934 55.9806 4.36022 58.3403C1.78361 60.9462 3.32957 62.7296 3.32957 62.7296C5.01312 64.5402 8.94148 67.5579 11.1859 63.9367Z" fill="#FBBEAA"/>
<path d="M17.8182 67.9088L18.2286 68.3192L17.6505 68.8973L18.0884 69.3351L18.6665 68.7571L19.0768 69.1675L17.4975 70.7468L17.0871 70.3364L17.7126 69.711L17.2746 69.273L16.6492 69.8985L16.2388 69.4881L17.8182 67.9088L17.8182 67.9088ZM20.5412 70.6318L18.9619 72.2112L18.5654 71.8146L19.7703 70.6097L19.5106 70.3499L19.0573 70.8032C18.8536 71.0069 18.5902 71.2427 18.3404 71.274C18.0749 71.3212 17.8218 71.1629 17.637 70.8833L18.0286 70.4917C18.1996 70.7575 18.3495 70.718 18.6622 70.4053L19.4913 69.5762L20.5441 70.629L20.5412 70.6318ZM20.8838 70.9744L21.2942 71.3848L20.5882 72.555L21.7584 71.849L22.1688 72.2594L20.7814 74.0307L20.3987 73.648L21.1483 72.7077L20.0838 73.3329L19.8102 73.0593L20.4367 71.9962L19.4966 72.7457L19.1138 72.3629L20.8838 70.9743L20.8838 70.9744ZM22.5113 72.6019L22.9217 73.0123L22.2805 73.6535L23.3182 73.4088L23.7699 73.8606L22.4688 74.1229L22.2045 75.4538L21.7126 74.9619L21.9849 73.9517L21.3437 74.5929L20.9333 74.1825L22.5126 72.6032L22.5114 72.602L22.5113 72.6019ZM22.4355 69.1466C19.9735 66.6846 17.3277 66.0728 15.8273 67.5732C14.3413 69.0592 14.9374 71.7182 17.4007 74.1815C19.8765 76.6573 22.5243 77.2395 24.0089 75.7548C25.5093 74.2545 24.9126 71.6236 22.4355 69.1466ZM17.6345 73.9476C15.3218 71.6349 14.6994 69.1679 16.0607 67.8066C17.4363 66.431 19.8903 67.069 22.2017 69.3804C24.527 71.7057 25.1538 74.1456 23.7768 75.5227C22.4155 76.8839 19.961 76.2741 17.6345 73.9476ZM21.9823 69.5999C19.8076 67.4252 17.5279 66.8038 16.2929 68.0388C15.0579 69.2738 15.6793 71.5535 17.854 73.7282C20.0286 75.9028 22.3083 76.5243 23.5434 75.2893C24.7797 74.0555 24.1582 71.7758 21.9823 69.5999ZM17.8999 73.6823C15.7516 71.534 15.1293 69.2852 16.3329 68.0816C17.5364 66.8781 19.7864 67.5016 21.9335 69.6487C24.0805 71.7957 24.704 74.0458 23.5005 75.2492C22.2983 76.4541 20.0481 75.8306 17.8998 73.6823L17.8999 73.6823Z" fill="white"/>
<path d="M178.647 99.5168C184.756 107.371 214.189 189.92 214.189 189.92C181.464 179.448 197.729 175.433 179.93 178.428C179.93 178.428 152.122 119.413 151.338 115.104C150.521 111.706 150.888 108.131 152.379 104.971C153.87 101.81 156.396 99.2538 159.538 97.7247C168.298 93.247 172.539 91.6624 178.647 99.5168Z" fill="#003399"/>
<path d="M110.111 89.4502L43.8057 134.169C44.0846 136.457 38.7114 89.4502 38.7114 89.4502L14.1695 91.741C14.1695 91.741 15.6032 139.6 19.2149 164.875C20.6482 174.905 28.9972 178.709 38.897 176.549C43.7848 175.483 48.3863 173.477 52.4811 170.603C70.0767 158.253 119.441 123.466 123.477 119.09C130.44 111.54 130.44 105.884 126.438 99.668C122.436 93.452 113.873 88.5165 110.111 89.4502Z" fill="#002B80"/>
<path d="M188.36 324.439C188.778 327.637 188.558 330.887 187.713 334C186.867 337.113 185.413 340.027 183.434 342.574C181.454 345.122 178.99 347.251 176.183 348.84C173.375 350.428 170.281 351.444 167.078 351.829C163.875 352.214 160.628 351.961 157.524 351.083C154.42 350.204 151.521 348.72 148.995 346.714C146.469 344.709 144.365 342.222 142.806 339.398C141.246 336.574 140.263 333.469 139.911 330.263C139.911 330.263 127.209 241.047 124.197 223.023C121.184 204.999 124.372 189.912 144.555 185.62C165.491 181.177 178.57 196.514 180.151 211.877C181.733 227.24 188.36 324.439 188.36 324.439Z" fill="#93929C"/>
<path d="M148.321 326.171C148.4 332.642 145.906 338.88 141.387 343.512C136.868 348.145 130.693 350.792 124.222 350.872C117.75 350.952 111.513 348.458 106.88 343.939C102.248 339.419 99.6004 333.245 99.5205 326.773C99.5205 326.773 96.4328 236.704 95.3785 218.454C94.3242 200.204 99.0937 185.569 119.628 183.461C140.915 181.277 152.262 197.92 152.262 213.383C152.262 228.847 148.321 326.171 148.321 326.171Z" fill="#93929C"/>
<path d="M109.261 432.306C109.261 432.306 110.466 483.491 110.767 491.147C111.068 498.804 115.913 500.887 123.72 501.565C131.527 502.243 134.816 496.042 135.92 491.122C137.025 486.202 143.702 436.021 143.702 436.021L109.261 432.306Z" fill="#FBBEAA"/>
<path d="M110.14 468.002L138.933 471.09C141.167 455.25 143.702 435.946 143.702 435.946L109.261 432.23C109.261 432.23 109.713 451.409 110.14 468.002Z" fill="#F18380"/>
<path d="M148.321 326.171C148.281 322.967 147.611 319.802 146.348 316.856C145.085 313.911 143.255 311.244 140.961 309.006C138.667 306.768 135.955 305.004 132.98 303.814C130.004 302.625 126.824 302.033 123.62 302.072C120.415 302.112 117.25 302.782 114.305 304.045C111.36 305.308 108.692 307.138 106.454 309.432C104.217 311.726 102.452 314.438 101.263 317.413C100.073 320.389 99.4812 323.569 99.5207 326.773L104.541 469.44L143.928 473.682L148.321 326.171Z" fill="#93929C"/>
<path d="M160.797 434.264C160.797 434.264 167.474 485.022 168.579 492.578C169.683 500.134 174.729 501.741 182.586 501.565C190.443 501.389 193.029 494.888 193.606 489.892C194.184 484.897 195.439 434.264 195.439 434.264H160.797Z" fill="#FBBEAA"/>
<path d="M165.618 469.659H194.586C195.088 453.694 195.565 434.264 195.565 434.264H160.798C160.798 434.264 163.308 453.192 165.618 469.659Z" fill="#F18380"/>
<path d="M188.36 324.439C187.527 318.066 184.212 312.279 179.137 308.336C174.062 304.393 167.636 302.611 161.254 303.378C154.873 304.145 149.052 307.399 145.056 312.433C141.06 317.467 139.211 323.874 139.912 330.263L161.751 474.46H201.363L188.36 324.439Z" fill="#93929C"/>
<path d="M140.941 330.263L163.458 473.205" stroke="#676767" stroke-width="0.75" stroke-miterlimit="10" stroke-linecap="round"/>
<path d="M140.916 330.263C140.916 330.263 128.214 241.047 125.202 223.023" stroke="#676767" stroke-width="0.75" stroke-miterlimit="10" stroke-linecap="round"/>
<path d="M179.951 475.608C177.104 475.404 174.28 476.252 172.018 477.992C169.755 479.732 168.209 482.243 167.675 485.047L154.572 498.477V506.836H196.569C196.569 506.836 194.46 491.774 193.858 488.386C193.255 484.997 191.222 475.608 179.951 475.608Z" fill="#FBBEAA"/>
<path d="M167.701 484.947C167.224 484.294 166.546 483.792 166.069 484.093C165.592 484.394 152.915 494.436 152.313 494.938C151.942 495.286 151.661 495.719 151.495 496.201C151.329 496.682 151.282 497.196 151.359 497.699V508.468H197.498C197.498 508.468 195.691 492.553 195.565 491.674C195.44 490.796 194.561 489.641 194.059 489.666C190.892 490.636 187.605 491.16 184.294 491.222C179.893 491.456 175.502 490.593 171.517 488.712C170.039 487.684 168.748 486.411 167.701 484.947Z" fill="#2E70AC"/>
<path d="M158.94 499.431C161.174 497.774 169.207 491.498 172.219 489.139L171.516 488.787C171.422 488.747 171.336 488.687 171.265 488.612C168.052 491.122 160.496 497.046 158.337 498.653C156.512 500.051 155.262 502.069 154.823 504.326L155.802 504.477C156.216 502.476 157.328 500.687 158.94 499.431Z" fill="#1E2173"/>
<path d="M196.242 497.498C192.991 497.531 189.844 498.654 187.306 500.686C185.012 502.719 183.457 505.456 182.888 508.468H184.243C184.798 505.858 186.169 503.493 188.159 501.715C190.496 499.844 193.4 498.826 196.393 498.828L196.242 497.498Z" fill="#1E2173"/>
<path d="M143.903 508.443H197.498C197.872 508.443 198.176 508.747 198.176 509.121V514.317C198.176 514.692 197.872 514.995 197.498 514.995H143.903C143.529 514.995 143.226 514.692 143.226 514.317V509.121C143.226 508.747 143.529 508.443 143.903 508.443Z" fill="white"/>
<path d="M152.438 494.837C151.961 494.636 149.627 495.314 146.589 498.301C145.325 499.608 144.414 501.216 143.944 502.973C143.474 504.73 143.46 506.578 143.903 508.342H159.141C158.287 498.703 152.915 495.038 152.438 494.837Z" fill="white"/>
<path d="M158.287 494.988C158.475 495.218 158.565 495.514 158.537 495.81C158.509 496.106 158.365 496.379 158.137 496.569C158.025 496.662 157.895 496.731 157.757 496.774C157.618 496.816 157.472 496.831 157.327 496.817C157.183 496.803 157.042 496.761 156.914 496.692C156.786 496.624 156.672 496.531 156.58 496.419L154.07 493.381C153.882 493.151 153.792 492.856 153.82 492.56C153.848 492.264 153.992 491.991 154.221 491.8C154.331 491.704 154.46 491.632 154.599 491.588C154.739 491.543 154.886 491.528 155.031 491.542C155.177 491.556 155.318 491.599 155.446 491.67C155.574 491.74 155.687 491.835 155.777 491.951L158.287 494.988Z" fill="white"/>
<path d="M161.275 492.703C161.463 492.934 161.552 493.229 161.524 493.525C161.496 493.821 161.352 494.094 161.124 494.285C161.013 494.381 160.884 494.453 160.745 494.497C160.606 494.542 160.459 494.557 160.313 494.543C160.168 494.529 160.027 494.486 159.899 494.415C159.77 494.345 159.658 494.249 159.568 494.134L157.057 491.097C156.875 490.864 156.789 490.57 156.817 490.276C156.845 489.982 156.985 489.71 157.208 489.515C157.318 489.42 157.447 489.347 157.587 489.303C157.726 489.258 157.873 489.243 158.018 489.257C158.164 489.271 158.305 489.315 158.433 489.385C158.561 489.455 158.674 489.551 158.764 489.666L161.275 492.703Z" fill="white"/>
<path d="M164.161 490.445C164.351 490.668 164.444 490.957 164.421 491.249C164.397 491.541 164.259 491.811 164.036 492.001C163.805 492.189 163.51 492.279 163.214 492.251C162.918 492.222 162.645 492.079 162.454 491.85L159.944 488.813C159.839 488.71 159.755 488.587 159.697 488.451C159.64 488.315 159.611 488.17 159.611 488.022C159.611 487.875 159.64 487.729 159.697 487.593C159.755 487.457 159.839 487.334 159.944 487.231C160.177 487.049 160.471 486.964 160.765 486.992C161.059 487.02 161.331 487.159 161.526 487.382L164.161 490.445Z" fill="white"/>
<path d="M167.073 488.16C167.166 488.272 167.235 488.401 167.277 488.54C167.32 488.679 167.335 488.825 167.321 488.97C167.307 489.114 167.264 489.255 167.196 489.383C167.128 489.511 167.035 489.624 166.922 489.716C166.711 489.923 166.427 490.039 166.132 490.039C165.836 490.039 165.552 489.923 165.341 489.716L162.831 486.654C162.643 486.424 162.553 486.128 162.581 485.832C162.609 485.536 162.753 485.263 162.981 485.072C163.093 484.98 163.222 484.911 163.361 484.868C163.5 484.826 163.646 484.811 163.791 484.825C163.935 484.839 164.076 484.881 164.204 484.95C164.332 485.018 164.445 485.111 164.538 485.223L167.073 488.16Z" fill="white"/>
<path d="M120.959 475.608C118.112 475.404 115.289 476.252 113.026 477.992C110.763 479.732 109.218 482.243 108.684 485.047L95.6051 498.477V506.836H137.577C137.577 506.836 135.494 491.774 134.866 488.386C134.238 484.997 132.23 475.608 120.959 475.608Z" fill="#FBBEAA"/>
<path d="M108.709 484.947C108.232 484.294 107.579 483.792 107.077 484.093C106.575 484.394 93.9231 494.436 93.3457 494.938C92.7684 495.44 92.3667 496.067 92.3667 497.699V508.468H138.506C138.506 508.468 136.698 492.553 136.573 491.674C136.447 490.796 135.569 489.641 135.067 489.666C131.9 490.636 128.613 491.16 125.302 491.222C120.908 491.46 116.525 490.597 112.549 488.712C111.06 487.69 109.76 486.416 108.709 484.947Z" fill="#2E70AC"/>
<path d="M99.9477 499.431C102.182 497.774 110.215 491.498 113.227 489.139L112.549 488.787C112.447 488.747 112.353 488.687 112.273 488.612C109.06 491.122 101.504 497.046 99.3451 498.653C97.5202 500.051 96.2701 502.069 95.8307 504.326L96.8098 504.477C97.2361 502.481 98.3459 500.696 99.9477 499.431Z" fill="#1E2173"/>
<path d="M137.251 497.498C133.999 497.531 130.852 498.654 128.314 500.686C126.02 502.719 124.466 505.456 123.896 508.468H125.252C125.813 505.855 127.194 503.489 129.193 501.715C131.517 499.841 134.415 498.822 137.401 498.828L137.251 497.498Z" fill="#1E2173"/>
<path d="M84.9111 508.443H138.506C138.88 508.443 139.184 508.747 139.184 509.121V514.317C139.184 514.692 138.88 514.995 138.506 514.995H84.9111C84.5368 514.995 84.2333 514.692 84.2333 514.317V509.121C84.2333 508.747 84.5368 508.443 84.9111 508.443Z" fill="white"/>
<path d="M93.446 494.837C92.969 494.636 90.6344 495.314 87.597 498.301C86.3323 499.608 85.4219 501.216 84.9519 502.973C84.4819 504.73 84.4678 506.578 84.911 508.342H100.148C99.2949 498.703 93.923 495.038 93.446 494.837Z" fill="white"/>
<path d="M99.3956 494.988C99.5838 495.218 99.6735 495.514 99.6453 495.81C99.6171 496.106 99.4733 496.379 99.245 496.569C99.133 496.662 99.0038 496.731 98.8649 496.774C98.726 496.816 98.5801 496.831 98.4356 496.817C98.291 496.803 98.1506 496.761 98.0224 496.692C97.8943 496.624 97.7808 496.531 97.6886 496.419L95.1783 493.381C94.9962 493.149 94.9104 492.855 94.9384 492.561C94.9664 492.266 95.1063 491.994 95.329 491.8C95.4395 491.704 95.5683 491.632 95.7076 491.588C95.847 491.543 95.9939 491.528 96.1394 491.542C96.285 491.556 96.4261 491.599 96.5543 491.67C96.6825 491.74 96.7952 491.835 96.8853 491.951L99.3956 494.988Z" fill="white"/>
<path d="M102.282 492.703C102.47 492.934 102.56 493.229 102.532 493.525C102.504 493.821 102.36 494.094 102.132 494.285C102.021 494.381 101.892 494.453 101.753 494.497C101.614 494.542 101.467 494.557 101.321 494.543C101.176 494.529 101.035 494.486 100.906 494.415C100.778 494.345 100.666 494.249 100.575 494.134L98.0651 491.097C97.883 490.864 97.7972 490.57 97.8252 490.276C97.8532 489.982 97.993 489.71 98.2157 489.515C98.446 489.327 98.7413 489.237 99.0374 489.266C99.3335 489.294 99.6065 489.438 99.7972 489.666L102.282 492.703Z" fill="white"/>
<path d="M105.17 490.444C105.274 490.545 105.358 490.666 105.415 490.799C105.472 490.933 105.501 491.077 105.501 491.222C105.501 491.368 105.472 491.511 105.415 491.645C105.358 491.779 105.274 491.9 105.17 492C104.939 492.189 104.644 492.278 104.348 492.25C104.052 492.222 103.779 492.078 103.588 491.85L101.078 488.812C100.89 488.582 100.8 488.287 100.828 487.991C100.856 487.695 101 487.422 101.228 487.231C101.34 487.138 101.47 487.069 101.609 487.027C101.747 486.984 101.893 486.969 102.038 486.983C102.182 486.997 102.323 487.04 102.451 487.108C102.579 487.176 102.693 487.269 102.785 487.382L105.17 490.444Z" fill="white"/>
<path d="M108.081 488.16C108.173 488.272 108.243 488.401 108.285 488.54C108.328 488.679 108.342 488.825 108.328 488.97C108.314 489.114 108.272 489.255 108.204 489.383C108.135 489.511 108.042 489.624 107.93 489.716C107.719 489.923 107.435 490.039 107.139 490.039C106.844 490.039 106.56 489.923 106.349 489.716L103.838 486.654C103.65 486.424 103.561 486.128 103.589 485.832C103.617 485.536 103.761 485.263 103.989 485.072C104.101 484.98 104.23 484.911 104.369 484.868C104.508 484.826 104.654 484.811 104.798 484.825C104.943 484.839 105.083 484.881 105.212 484.95C105.34 485.018 105.453 485.111 105.545 485.223L108.081 488.16Z" fill="white"/>
<path d="M96.1171 198.931C96.1171 198.931 96.1171 224.963 96.1171 226.393C96.1171 227.824 108.669 240.1 125.337 240.1C150.967 240.1 181.643 230.736 181.191 224.636C180.89 220.62 180.513 198.931 180.513 198.931H96.1171Z" fill="#93929C"/>
<path d="M117.123 85.3401C117.123 85.3401 99.7263 95.3813 97.0403 97.1385C94.3543 98.8957 91.2415 101.607 91.8189 108.937C92.3963 116.267 94.7057 212.562 94.7057 212.562C100.138 215.493 105.914 217.736 111.901 219.239C114.788 219.565 117.072 219.641 119.03 217.733C120.988 215.825 126.762 208.897 126.762 208.897C126.762 208.897 136.276 215.348 140.569 217.733C141.592 218.447 142.748 218.948 143.968 219.207C145.188 219.466 146.448 219.477 147.673 219.239C153.923 217.959 178.524 210.779 179.303 210.328C180.081 209.876 180.809 209.399 180.733 208.545C180.658 207.692 180.206 109.765 179.88 105.347C179.815 102.981 179.071 100.684 177.735 98.7294C176.4 96.7752 174.53 95.2468 172.349 94.327C167.103 91.9924 147.397 83.9846 147.397 83.9846L126.837 98.2681L117.123 85.3401Z" fill="#003399"/>
<path d="M117.123 82.5291L126.788 98.2686C126.788 98.2686 117.299 105.799 116.746 106.352C116.194 106.904 115.09 106.854 114.864 105.975C114.638 105.097 111.902 88.4031 111.851 88.4031C111.803 88.3146 111.778 88.2153 111.778 88.1145C111.778 88.0136 111.803 87.9143 111.851 87.8258C112.102 87.65 117.123 82.5291 117.123 82.5291Z" fill="#F5F5F5"/>
<g filter="url(#filter0_d_21_290)">
<rect width="48.5498" height="69.1834" rx="1" transform="matrix(-0.993463 -0.114154 -0.114154 0.993463 153.365 133.149)" fill="#EFEFEF"/>
</g>
<path d="M147.497 79.6166L126.762 98.2681C126.762 98.2681 137.682 105.799 138.159 106.351C138.298 106.47 138.462 106.555 138.639 106.6C138.816 106.646 139 106.651 139.179 106.615C139.358 106.578 139.527 106.502 139.672 106.391C139.817 106.28 139.935 106.138 140.017 105.975C140.82 104.694 153.673 86.6455 153.723 86.4948C153.776 86.408 153.804 86.3081 153.804 86.2062C153.804 86.1043 153.776 86.0043 153.723 85.9175C153.447 85.7669 147.497 79.6166 147.497 79.6166Z" fill="#F5F5F5"/>
<path d="M132.918 161.184C129.477 159.73 126.366 157.576 123.783 154.858C122.183 153.18 120.37 151.723 118.39 150.527C117.229 149.801 116.227 148.843 115.447 147.713C114.417 145.961 113.564 144.111 112.902 142.191C112.656 140.538 112.094 138.944 111.246 137.5C110.439 136.761 107.593 137.156 106.116 140.028C105.606 141.307 105.376 142.684 105.439 144.066C105.502 145.449 105.858 146.806 106.482 148.046C107.218 149.533 107.794 151.093 108.2 152.7L107.932 152.86C105.681 151.665 103.275 150.798 100.788 150.286C99.8862 150.085 98.9466 150.193 98.1208 150.596C97.295 150.998 96.6311 151.67 96.2361 152.503C95.841 153.336 95.7378 154.283 95.9431 155.189C96.1485 156.096 96.6503 156.91 97.3679 157.501C93.487 157.947 93.9276 163.933 97.2592 164.724C96.5458 165.024 95.9436 165.537 95.534 166.196C95.1244 166.855 94.9272 167.627 94.969 168.407C95.0109 169.188 95.2898 169.939 95.768 170.561C96.2462 171.182 96.9006 171.642 97.6429 171.88C95.2765 174.062 97.0062 177.658 101.303 177.673C104.794 178.029 114.131 179.49 117.38 180.189C120.628 180.888 127.157 179.342 129.255 179.991C132.377 181.135 136.003 181.154 138.769 172.938C141.535 164.723 136.13 162.245 132.918 161.184Z" fill="#FBBEAA"/>
<path d="M126.771 183.224L189.66 208.543C197.696 212.584 210.754 210.511 214.69 201.111C215.411 199.359 215.768 197.478 215.74 195.583C215.712 193.688 215.299 191.819 214.527 190.088C213.755 188.358 212.639 186.802 211.248 185.515C209.856 184.229 208.218 183.238 206.432 182.604L132.107 155.722L126.771 183.224Z" fill="#003399"/>
<defs>
<filter id="filter0_d_21_290" x="97.3428" y="127.715" width="57.915" height="74.0583" filterUnits="userSpaceOnUse" color-interpolation-filters="sRGB">
<feFlood flood-opacity="0" result="BackgroundImageFix"/>
<feColorMatrix in="SourceAlpha" type="matrix" values="0 0 0 0 0 0 0 0 0 0 0 0 0 0 0 0 0 0 127 0" result="hardAlpha"/>
<feOffset dx="2"/>
<feComposite in2="hardAlpha" operator="out"/>
<feColorMatrix type="matrix" values="0 0 0 0 0.603922 0 0 0 0 0.6 0 0 0 0 0.631373 0 0 0 1 0"/>
<feBlend mode="normal" in2="BackgroundImageFix" result="effect1_dropShadow_21_290"/>
<feBlend mode="normal" in="SourceGraphic" in2="effect1_dropShadow_21_290" result="shape"/>
</filter>
<clipPath id="clip0_21_290">
<rect width="74.3272" height="97.4289" fill="white" transform="matrix(-1 0 0 1 162.818 0.995117)"/>
</clipPath>
</defs>
</svg>
