<svg width="220" height="512" viewBox="0 0 220 512" fill="none" xmlns="http://www.w3.org/2000/svg">
<g clip-path="url(#clip0_21_290)">
<path d="M103.28 62.7732H73.4163V97H103.28V62.7732Z" fill="#FBBEAA"/>
<path d="M73.4903 62.7732H103.254V81.8686C101.954 82.026 100.646 82.1067 99.3356 82.1104C89.0669 82.1104 77.5829 79.379 73.3911 69.8313L73.4903 62.7732Z" fill="#F18380"/>
<path d="M118.708 37.3694C118.46 47.2556 118.708 55.0629 116.872 62.6044C115.037 70.1459 109.431 76.3097 97.0295 76.3097C84.6278 76.3097 70.4898 72.3697 69.4977 57.2625C67.4638 55.1113 64.1649 47.4489 64.0409 38.8681C63.9169 30.2872 64.6114 12.1344 84.6774 9.35472C104.743 6.575 119.253 13.7539 118.708 37.3694Z" fill="#FBBEAA"/>
<path d="M108.216 45.1521C108.216 46.4816 109.035 47.5693 110.051 47.5693C111.068 47.5693 111.887 46.4816 111.887 45.1521C111.887 43.8227 111.068 42.735 110.051 42.735C109.035 42.735 108.216 43.726 108.216 45.1521Z" fill="#403D4F"/>
<path d="M85.8921 45.1521C85.8921 46.4816 86.7106 47.5693 87.7275 47.5693C88.7445 47.5693 89.563 46.4816 89.563 45.1521C89.563 43.8227 88.7445 42.735 87.7275 42.735C86.7106 42.735 85.8921 43.726 85.8921 45.1521Z" fill="#403D4F"/>
<path d="M90.3821 40.1246C90.2084 40.3422 88.8939 40.1246 87.9017 40.1246C86.9096 40.1246 84.9998 40.1246 84.9998 39.9071C84.9998 39.6895 85.9422 38.1909 88.4226 38.4568C90.2084 38.6502 90.8533 39.7379 90.3821 40.1246Z" fill="#403D4F"/>
<path d="M107.794 40.1246C107.943 40.3422 109.06 40.1246 109.928 40.1246C110.796 40.1246 112.408 40.1246 112.408 39.9071C112.185 39.3592 111.765 38.9095 111.226 38.6424C110.687 38.3754 110.067 38.3093 109.481 38.4568C107.943 38.6502 107.522 39.7379 107.794 40.1246Z" fill="#403D4F"/>
<path d="M100.477 55.1595C102.213 55.1595 103.602 54.0476 103.652 53.2499L103.081 46.4336C103.062 46.2647 102.977 46.1096 102.842 46.0012C102.708 45.8929 102.536 45.8399 102.362 45.8535C102.277 45.8596 102.194 45.882 102.119 45.9193C102.043 45.9567 101.975 46.0083 101.92 46.0712C101.864 46.1341 101.822 46.2071 101.796 46.2858C101.77 46.3646 101.76 46.4477 101.767 46.5303L102.312 53.1049C102.062 53.3698 101.753 53.5768 101.41 53.7106C101.067 53.8444 100.697 53.9018 100.328 53.8784C100.241 53.8718 100.154 53.8824 100.072 53.9095C99.9893 53.9366 99.9134 53.9797 99.8485 54.0362C99.7836 54.0926 99.7311 54.1613 99.6942 54.238C99.6572 54.3147 99.6366 54.398 99.6335 54.4827C99.6331 54.6541 99.6994 54.8193 99.8191 54.9449C99.9388 55.0706 100.103 55.1472 100.278 55.1595H100.477Z" fill="#F18380"/>
<path d="M73.5946 50.7601C70.8745 50.4411 69.1273 48.3429 68.6339 45.9258C68.1406 43.5086 66.5935 44.7172 63.6732 44.7172C60.753 44.7172 59.2602 39.1216 58.3418 34.8649C57.1474 29.3286 58.9259 22.8475 60.678 20.5584C56.0056 16.5526 58.3418 2.81843 59.5099 7.39647C60.4444 11.0589 63.7929 12.7375 65.3504 13.1191C70.0228 -3.81981 88.3229 -0.805887 96.8889 2.81843C103.897 0.0715793 109.933 3.96295 112.074 6.25199C122.587 2.81844 127.259 7.39651 129.596 9.68554C131.932 11.9746 134.852 25.1365 124.923 30.8591C116.98 35.4372 105.26 31.6221 100.393 29.1423C94.7863 33.7204 87.1548 32.1944 84.0399 30.8591C83.5726 33.606 78.2165 37.5354 76.075 40.0152C73.9335 42.495 74.8348 50.9055 73.5946 50.7601Z" fill="#F3E8AE"/>
<path d="M70.0435 49.7448C69.9195 46.9892 69.473 42.9284 65.4549 42.8317C61.4367 42.735 60.9158 45.6839 61.0399 50.3249C61.1639 54.9658 66.0006 58.9057 70.242 57.3104L70.0435 49.7448Z" fill="#FBBEAA"/>
<path d="M64.1399 53.0807C64.3139 53.0511 64.4688 52.9558 64.571 52.8154C64.6732 52.6751 64.7144 52.5011 64.6856 52.3313C64.6858 52.1949 64.7254 52.0613 64.8 51.9459C64.8746 51.8304 64.9811 51.7378 65.1073 51.6787C65.3604 51.5135 65.6583 51.4253 65.963 51.4253C66.2677 51.4253 66.5655 51.5135 66.8187 51.6787C66.9288 51.738 67.0526 51.769 67.1784 51.769C67.3042 51.769 67.4279 51.738 67.538 51.6787C67.6391 51.6136 67.7201 51.5231 67.7725 51.4167C67.825 51.3102 67.8468 51.192 67.8357 51.0744C67.4884 47.1828 64.9336 46.4577 64.8344 46.4335C64.7497 46.408 64.6606 46.3999 64.5725 46.4095C64.4845 46.4191 64.3994 46.4463 64.3226 46.4894C64.2457 46.5325 64.1789 46.5906 64.1261 46.66C64.0734 46.7294 64.0358 46.8086 64.0159 46.8928C63.9701 47.053 63.9914 47.2244 64.0751 47.3694C64.1588 47.5144 64.2981 47.6212 64.4624 47.6663C64.9579 47.8849 65.3897 48.2203 65.7188 48.6423C66.048 49.0643 66.264 49.5596 66.3474 50.0834C65.6678 49.9755 64.971 50.113 64.388 50.4701C64.0483 50.6643 63.7737 50.9503 63.5976 51.2936C63.4214 51.6368 63.3513 52.0225 63.3958 52.4039C63.3916 52.498 63.4085 52.592 63.4451 52.6792C63.4817 52.7665 63.5373 52.8449 63.608 52.9092C63.6787 52.9736 63.7629 53.0222 63.8547 53.0518C63.9465 53.0814 64.0438 53.0912 64.1399 53.0807Z" fill="#F18380"/>
<path d="M98.7662 63.8608C96.3718 63.7708 94.0728 62.9222 92.218 61.4437" stroke="#73102A" stroke-width="0.5" stroke-miterlimit="10" stroke-linecap="round"/>
</g>
<path d="M183.435 90.7975C183.561 88.0303 182.82 85.2927 181.316 82.967C178.999 80.2808 177.263 79.6204 176.218 76.2307C175.414 73.0842 174.13 70.0803 172.41 67.3252C171.182 65.6362 169.339 64.2544 169.339 62.9646C169.339 61.6749 171.796 59.1875 175.297 59.8938C176.796 60.3609 178.174 61.1537 179.331 62.2155C180.489 63.2773 181.397 64.5817 181.991 66.0355C182.327 65.1497 182.523 64.2175 182.575 63.2717L183.342 41.9713C183.354 41.4833 183.463 41.0026 183.664 40.5575C183.864 40.1125 184.152 39.7121 184.51 39.3801C184.868 39.0481 185.288 38.7911 185.747 38.6243C186.206 38.4575 186.693 38.3844 187.181 38.4091C187.957 38.4422 188.703 38.7178 189.315 39.197C189.625 39.4402 194.819 45.7393 199.889 51.9831C204.81 58.0435 209.614 64.0518 209.721 64.4191C208.735 73.3699 206.884 82.204 204.193 90.7975C204.161 92.2324 203.828 93.6445 203.217 94.9432C202.607 96.2419 201.731 97.3984 200.646 98.3384C199.562 99.2783 198.292 99.9809 196.92 100.401C195.548 100.821 194.103 100.949 192.678 100.778C191.388 100.821 190.105 100.586 188.914 100.089C187.723 99.5926 186.653 98.8456 185.776 97.899C184.9 96.9525 184.237 95.8284 183.833 94.6031C183.429 93.3778 183.293 92.0799 183.435 90.7975Z" fill="#FBBEAA"/>
<path d="M190.544 34.8948L206.625 50.4237C210.5 54.7687 212.332 59.17 212.621 63.2385C212.614 63.2458 212.619 63.25 212.615 63.2536C213.027 68.9444 210.429 73.9701 206.256 77.2136C206.178 77.2865 206.083 77.3585 205.996 77.4231C205.97 77.441 205.949 77.463 205.931 77.4813C203.642 79.18 200.904 80.3527 197.954 80.8393C196.979 81.0046 195.973 81.0901 194.95 81.0812C194.864 81.0837 194.81 81.0881 194.798 81.0834C194.774 81.082 194.739 81.0837 194.689 81.0845C190.098 81.0219 185.206 79.2636 180.755 75.2487L165.624 60.7007L190.544 34.8948Z" fill="#0099FF"/>
<path d="M212.62 63.2575C213.263 72.1727 206.528 79.4402 197.955 80.839C196.457 80.9602 195.35 81.0551 194.95 81.0809C194.865 81.0834 194.811 81.0878 194.799 81.0832C194.775 81.0817 194.74 81.0835 194.689 81.0842C193.814 81.0261 187.073 80.3984 177.993 71.2758C171.007 64.2595 168.067 61.7039 168.067 61.7039L177.116 58.0194C177.116 58.0194 191.228 73.2007 199.608 74.4318C207.992 75.6749 212.163 68.5988 212.62 63.2575Z" fill="#0099FF"/>
<path d="M190.546 34.8959L206.627 50.4248C208.681 52.7349 210.162 55.0445 211.136 57.3266C211.14 57.3307 211.14 57.3307 211.149 57.3391C212.008 59.3533 212.485 61.3322 212.623 63.2396L212.619 63.2783C212.621 63.3017 212.617 63.3326 212.618 63.3832C212.99 69.0287 210.397 73.9886 206.262 77.2188C206.819 76.7202 207.526 75.7291 208.137 74.4245C208.186 74.3225 208.234 74.2204 208.279 74.1221C208.325 74.0237 208.362 73.9248 208.407 73.8264C208.464 73.6899 208.52 73.5455 208.568 73.4007C208.632 73.2489 208.69 73.0852 208.738 72.9404C208.782 72.7914 208.834 72.635 208.878 72.486L208.88 72.4745C208.941 72.2993 208.98 72.1304 209.02 71.9851C209.079 71.7436 209.14 71.4906 209.189 71.2329C209.2 71.1869 209.202 71.1676 209.202 71.1676C209.756 68.3537 209.467 65.009 207.052 62.0035C203.64 57.7649 196.953 51.6193 192.88 48.0052C190.864 46.2072 189.482 45.036 189.482 45.036C189.482 45.036 190.124 42.4844 190.626 40.7412C190.887 39.8507 191.104 39.16 191.181 39.1492C191.411 39.1011 190.594 35.1479 190.539 34.9032L190.546 34.8959Z" fill="#0099FF"/>
<path d="M190.544 34.8956L206.625 50.4245C208.679 52.7346 210.16 55.0441 211.134 57.3263C209.483 54.4614 205.877 49.2264 199.856 46.6901C197.192 45.5717 195.05 46.3418 192.886 48.0054C190.149 50.1159 187.371 53.6559 183.432 56.6492C176.372 62.0132 166.717 61.7498 166.389 61.4338L165.985 61.043L167.758 61.3863L173.55 59.8346L177.549 57.0979C177.549 57.0979 186.062 48.283 186.345 47.9893C186.629 47.6956 190.64 40.7418 190.64 40.7418L190.553 34.9039L190.544 34.8956Z" fill="#0099FF"/>
<path d="M177.36 58.257L178.577 59.5386C178.577 59.5386 182.933 57.5439 186.022 54.5174C188.708 51.8823 192.882 48.0165 192.882 48.0165L189.484 45.0473L183.787 51.5152L177.36 58.257Z" fill="#0099FF"/>
<path d="M168.071 61.7089L168.487 62.0965C167.8 62.0151 167.058 61.8446 166.391 61.4414L165.629 60.7055L168.071 61.7089Z" fill="#0099FF"/>
<path d="M168.072 61.7089L168.488 62.0965C168.488 62.0965 169.938 62.3614 174.066 61.2826C176.269 60.707 178.587 59.5393 178.587 59.5393L177.129 58.0249C177.129 58.0249 172.192 60.3805 172.132 60.5285C172.06 60.6719 168.072 61.7089 168.072 61.7089Z" fill="#0099FF"/>
<path d="M183.507 53.0387C190.388 45.9136 193.537 37.7921 190.541 34.8989C187.545 32.0057 179.538 35.4363 172.658 42.5614C165.777 49.6865 162.628 57.808 165.624 60.7012C168.62 63.5944 176.627 60.1638 183.507 53.0387Z" fill="#A3A9AA"/>
<path d="M189.567 35.3406C190.919 36.6461 190.683 39.3201 189.206 42.5554C188.566 43.9593 187.688 45.4807 186.605 47.0245C186.494 47.1733 186.385 47.3299 186.267 47.4861C185.177 48.9944 183.897 50.526 182.451 52.0239C180.94 53.5879 179.378 54.9736 177.853 56.1476C172.788 60.04 167.994 61.6262 166.022 59.722C164.877 58.6161 164.878 56.4956 165.82 53.9003C165.82 53.9003 165.82 53.9003 165.823 53.8888C166.498 52.0435 167.644 49.9355 169.186 47.7782C170.306 46.2134 171.636 44.6032 173.147 43.0392C174.657 41.4752 176.22 40.0895 177.752 38.9082C182.81 35.0231 187.6 33.4405 189.567 35.3406Z" fill="#475150"/>
<path d="M212.62 63.3872C212.992 69.0328 210.399 73.9927 206.265 77.2229C206.265 77.2229 207.409 75.9086 208.14 74.4285C208.188 74.3265 208.237 74.2245 208.282 74.1261C208.327 74.0277 208.364 73.9288 208.409 73.8305C208.473 73.6866 208.526 73.5459 208.571 73.4047C208.634 73.253 208.692 73.0893 208.741 72.9444C208.791 72.7802 208.843 72.6317 208.88 72.49L208.883 72.4785C208.944 72.3033 208.982 72.1345 209.023 71.9891C209.127 71.6143 209.175 71.3488 209.191 71.237C209.203 71.191 209.205 71.1716 209.205 71.1716C209.205 71.1716 210.583 69.6578 211.429 67.9204C212.572 65.5826 212.588 64.0234 212.62 63.3872Z" fill="#0099FF"/>
<path d="M199.485 73.7405C200.399 75.0773 200.686 76.2274 199.938 77.0798C197.934 79.3875 190.435 78.1915 185.408 73.7129C180.385 69.2306 177.063 62.986 179.067 60.6783C179.176 60.5567 179.287 60.4507 179.415 60.3691L179.422 60.3618C181.661 58.7068 186.741 61.6751 191.515 65.9162C194.648 68.7289 197.952 71.5017 199.485 73.7405Z" fill="#0099FF"/>
<path d="M199.937 74.4795C199.937 74.4795 195.186 74.4186 190.381 70.8214C187.29 68.5171 179.413 60.3718 179.413 60.3718L179.42 60.3645C181.659 58.7094 186.617 61.4329 191.474 65.5624C199.376 72.2853 199.937 74.4795 199.937 74.4795Z" fill="#0099FF"/>
<path d="M177.75 38.9079L186.417 47.2773C186.417 47.2773 184.134 50.3226 182.449 52.0237C180.917 53.5669 179.376 54.9733 177.851 56.1473L169.185 47.7779C170.305 46.2131 171.635 44.6029 173.145 43.0389C174.659 41.4713 176.222 40.0856 177.75 38.9079Z" fill="#5E6466"/>
<path d="M189.566 35.3404C190.918 36.6459 190.575 39.2666 189.205 42.5552C188.392 44.5087 186.417 47.2774 186.417 47.2774C186.417 47.2774 182.336 43.4993 179.861 41.0308C178.646 39.8156 177.75 38.908 177.75 38.908C182.808 35.0229 187.598 33.4403 189.566 35.3404Z" fill="#747A7C"/>
<path d="M189.567 35.3406C190.919 36.6461 190.683 39.3201 189.206 42.5554C187.019 39.0737 183.858 39.1853 179.922 41.0037C179.898 41.0022 179.88 41.0206 179.862 41.0311C179.108 41.3812 178.325 41.7958 177.514 42.2475C175.237 43.5461 172.456 46.2532 170.175 48.7266C167.727 51.3998 165.862 53.8056 165.824 53.8966C165.824 53.8966 165.824 53.8966 165.826 53.8851C166.502 52.0398 167.647 49.9319 169.19 47.7745C170.31 46.2097 171.64 44.5995 173.15 43.0355C174.015 42.1397 174.898 41.3034 175.779 40.5291C176.437 39.9512 177.094 39.4083 177.752 38.9082C182.81 35.0232 187.6 33.4405 189.567 35.3406Z" fill="#929799"/>
<path d="M177.75 38.908L179.86 41.0309C179.106 41.3811 178.323 41.7956 177.513 42.2473C175.235 43.5459 172.455 46.253 170.174 48.7264L169.188 47.7743C170.308 46.2095 171.639 44.5993 173.149 43.0353C174.014 42.1395 174.897 41.3032 175.777 40.529L177.75 38.908Z" fill="#6F7577"/>
<path d="M170.174 48.7265L169.188 47.7744C169.188 47.7744 168.042 49.2287 167.182 50.9458C166.323 52.663 165.822 53.8965 165.822 53.8965L170.174 48.7265Z" fill="#5E6466"/>
<path d="M184.916 49.1492C183.581 50.798 181.922 52.594 179.846 54.4849C173.418 60.3745 169.012 60.4829 169.012 60.4829C169.012 60.4829 167.639 59.0788 173.531 51.9692C173.531 51.9692 172.613 53.4104 172.323 54.6764C172.164 55.3747 172.555 56.3912 174.857 55.9462C176.695 55.5854 182.431 51.7656 184.916 49.1492Z" fill="#475150"/>
<path d="M180.948 46.4717C181.098 46.6173 180.917 47.0458 180.549 47.4276C180.18 47.8094 179.758 48.005 179.607 47.8595C179.457 47.714 179.634 47.2892 180.006 46.9037C180.379 46.526 180.801 46.3304 180.948 46.4717Z" fill="#5E6466"/>
<path d="M192.832 47.9159C191.088 45.1332 194.63 41.4637 196.877 40.0299C196.877 40.0299 198.229 38.4652 201.032 41.2682C204.127 44.3636 202.27 46.4821 202.27 46.4821C200.248 48.6328 195.529 52.2173 192.832 47.9159Z" fill="#FBBEAA"/>
<path d="M197.785 53.3039C196.04 50.5212 199.582 46.8517 201.829 45.4179C201.829 45.4179 203.182 43.8532 205.984 46.6562C209.08 49.7516 207.223 51.8701 207.223 51.8701C205.2 54.0208 200.481 57.6053 197.785 53.3039Z" fill="#FBBEAA"/>
<path d="M202.737 58.2563C200.993 55.4737 204.535 51.8042 206.782 50.3704C206.782 50.3704 208.134 48.8057 210.937 51.6086C214.032 54.704 212.175 56.8225 212.175 56.8225C210.153 58.9732 205.434 62.5577 202.737 58.2563Z" fill="#FBBEAA"/>
<path d="M208.848 62.6645C207.402 60.3323 210.337 57.2567 212.2 56.0549C212.2 56.0549 213.321 54.7434 215.643 57.0927C218.209 59.6872 216.67 61.4628 216.67 61.4628C214.993 63.2654 211.082 66.2698 208.848 62.6645Z" fill="#FBBEAA"/>
<path d="M196.453 72.5135L196.854 72.0978L197.44 72.6632L197.868 72.2197L197.282 71.6544L197.684 71.2387L199.283 72.7834L198.882 73.199L198.248 72.5873L197.82 73.0309L198.454 73.6426L198.052 74.0582L196.453 72.5135L196.453 72.5135ZM199.116 69.7556L200.716 71.3002L200.328 71.7018L199.107 70.5233L198.853 70.7864L199.312 71.2297C199.519 71.429 199.758 71.6871 199.793 71.9352C199.845 72.1986 199.692 72.4534 199.417 72.6422L199.02 72.2592C199.282 72.0843 199.24 71.9358 198.923 71.63L198.083 70.819L199.113 69.7527L199.116 69.7556ZM199.451 69.4086L199.852 68.9929L201.03 69.6754L200.307 68.5228L200.708 68.1071L202.495 69.4574L202.121 69.845L201.172 69.1152L201.813 70.164L201.545 70.441L200.476 69.8359L201.238 70.7587L200.864 71.1464L199.451 69.4086L199.451 69.4086ZM201.043 67.7602L201.444 67.3446L202.094 67.9717L201.832 66.943L202.274 66.4854L202.558 67.7761L203.887 68.016L203.406 68.5143L202.396 68.2608L203.045 68.8879L202.644 69.3036L201.044 67.7589L201.043 67.7601L201.043 67.7602ZM197.605 67.8957C195.197 70.3893 194.634 73.0337 196.153 74.5012C197.658 75.9546 200.295 75.3149 202.704 72.8201C205.126 70.3126 205.659 67.6667 204.155 66.2146C202.636 64.7471 200.027 65.3869 197.605 67.8957ZM202.467 72.5914C200.205 74.9338 197.76 75.5962 196.382 74.2648C194.988 72.9193 195.581 70.4654 197.841 68.1244C200.116 65.7693 202.534 65.1029 203.928 66.4498C205.307 67.7812 204.743 70.2351 202.467 72.5914ZM198.064 68.339C195.937 70.5415 195.358 72.8217 196.609 74.0296C197.859 75.2375 200.118 74.5793 202.245 72.3768C204.372 70.1742 204.951 67.8941 203.7 66.6862C202.45 65.4769 200.192 66.1352 198.064 68.339ZM202.198 72.3319C200.097 74.5077 197.87 75.1662 196.651 73.989C195.432 72.8119 196.013 70.5613 198.113 68.3867C200.213 66.2121 202.442 65.5524 203.661 66.7295C204.881 67.9054 204.3 70.1561 202.199 72.3319L202.198 72.3319Z" fill="white"/>
<path d="M42.1234 98.0881C36.0414 105.908 6.73779 188.093 6.73779 188.093C39.3197 177.667 23.1261 173.67 40.8465 176.652C40.8465 176.652 68.532 117.897 69.3122 113.606C70.1264 110.224 69.761 106.664 68.2764 103.518C66.7918 100.371 64.277 97.8262 61.1485 96.3038C52.4277 91.8458 48.2053 90.2682 42.1234 98.0881Z" fill="#003399"/>
<path d="M110.359 88.0657L176.372 132.588C176.094 134.865 181.444 88.0657 181.444 88.0657L205.878 90.3464C205.878 90.3464 204.45 137.994 200.854 163.158C199.427 173.145 191.115 176.932 181.259 174.781C176.393 173.72 171.811 171.723 167.735 168.861C150.217 156.565 101.07 121.932 97.0516 117.575C90.1192 110.058 90.1192 104.427 94.1033 98.2386C98.0875 92.0499 106.613 87.1361 110.359 88.0657Z" fill="#002B80"/>
<path d="M32.4537 322.02C32.0372 325.204 32.2562 328.44 33.098 331.539C33.9399 334.638 35.3879 337.54 37.3583 340.076C39.3287 342.612 41.7824 344.732 44.5774 346.313C47.3724 347.895 50.4534 348.907 53.6419 349.29C56.8304 349.673 60.0634 349.421 63.1536 348.546C66.2438 347.672 69.13 346.194 71.6453 344.197C74.1606 342.2 76.255 339.725 77.8073 336.913C79.3597 334.102 80.3392 331.011 80.6892 327.818C80.6892 327.818 93.3353 238.995 96.3344 221.051C99.3335 203.106 96.1595 188.086 76.0655 183.812C55.2219 179.388 42.2008 194.659 40.6263 209.954C39.0518 225.249 32.4537 322.02 32.4537 322.02Z" fill="#93929C"/>
<path d="M72.3169 323.744C72.2374 330.187 74.7204 336.398 79.2199 341.01C83.7194 345.622 89.8668 348.257 96.3096 348.337C102.752 348.416 108.963 345.933 113.575 341.434C118.187 336.934 120.823 330.787 120.902 324.344C120.902 324.344 123.976 234.671 125.026 216.502C126.076 198.332 121.327 183.762 100.883 181.662C79.6896 179.488 68.3931 196.058 68.3931 211.453C68.3931 226.849 72.3169 323.744 72.3169 323.744Z" fill="#93929C"/>
<path d="M111.205 429.412C111.205 429.412 110.005 480.372 109.705 487.994C109.405 495.617 104.582 497.692 96.809 498.366C89.0363 499.041 85.7624 492.868 84.6627 487.969C83.563 483.071 76.915 433.111 76.915 433.111L111.205 429.412Z" fill="#FBBEAA"/>
<path d="M110.33 464.951L81.6636 468.025C79.4393 452.255 76.915 433.036 76.915 433.036L111.205 429.337C111.205 429.337 110.755 448.431 110.33 464.951Z" fill="#F18380"/>
<path d="M72.3169 323.745C72.3563 320.554 73.0236 317.403 74.2808 314.471C75.538 311.539 77.3605 308.883 79.6441 306.655C81.9277 304.427 84.6278 302.671 87.5902 301.486C90.5526 300.302 93.7193 299.712 96.9094 299.752C100.1 299.791 103.251 300.459 106.183 301.716C109.115 302.973 111.771 304.795 113.999 307.079C116.227 309.363 117.983 312.063 119.168 315.025C120.352 317.988 120.942 321.154 120.902 324.344L115.904 466.383L76.6906 470.607L72.3169 323.745Z" fill="#93929C"/>
<path d="M59.8953 431.362C59.8953 431.362 53.2473 481.896 52.1476 489.419C51.048 496.942 46.0245 498.541 38.2019 498.366C30.3793 498.192 27.805 491.719 27.2302 486.745C26.6554 481.772 25.4058 431.362 25.4058 431.362H59.8953Z" fill="#FBBEAA"/>
<path d="M55.0962 466.601H26.255C25.7551 450.706 25.2803 431.362 25.2803 431.362H59.8948C59.8948 431.362 57.3955 450.206 55.0962 466.601Z" fill="#F18380"/>
<path d="M32.4534 322.02C33.2834 315.675 36.5832 309.914 41.6361 305.988C46.6891 302.062 53.0869 300.288 59.4401 301.052C65.7932 301.816 71.5884 305.055 75.567 310.067C79.5455 315.078 81.3861 321.457 80.6888 327.818L58.9458 471.381H19.5078L32.4534 322.02Z" fill="#93929C"/>
<path d="M79.6642 327.818L57.2461 470.132" stroke="#676767" stroke-width="0.75" stroke-miterlimit="10" stroke-linecap="round"/>
<path d="M79.689 327.818C79.689 327.818 92.3351 238.995 95.3342 221.051" stroke="#676767" stroke-width="0.75" stroke-miterlimit="10" stroke-linecap="round"/>
<path d="M40.8262 472.524C43.6609 472.321 46.4715 473.165 48.7245 474.898C50.9774 476.63 52.5158 479.129 53.0475 481.921L66.0936 495.292V503.615H24.2812C24.2812 503.615 26.3806 488.619 26.9804 485.245C27.5803 481.871 29.6046 472.524 40.8262 472.524Z" fill="#FBBEAA"/>
<path d="M53.0219 481.821C53.4968 481.172 54.1716 480.672 54.6464 480.972C55.1213 481.271 67.7425 491.268 68.3423 491.768C68.7117 492.115 68.9912 492.547 69.1566 493.026C69.3221 493.505 69.3685 494.017 69.292 494.517V505.239H23.356C23.356 505.239 25.1554 489.394 25.2803 488.519C25.4053 487.645 26.2801 486.495 26.7799 486.52C29.9328 487.486 33.205 488.007 36.502 488.069C40.8838 488.302 45.2548 487.443 49.2231 485.57C50.6944 484.547 51.9793 483.279 53.0219 481.821Z" fill="#2E70AC"/>
<path d="M61.7444 496.242C59.5201 494.592 51.5225 488.344 48.5234 485.995L49.2232 485.645C49.3176 485.604 49.4027 485.545 49.4732 485.47C52.6722 487.969 60.1949 493.868 62.3442 495.467C64.1612 496.859 65.4058 498.868 65.8432 501.115L64.8685 501.265C64.4562 499.273 63.3489 497.493 61.7444 496.242Z" fill="#1E2173"/>
<path d="M24.606 494.318C27.8433 494.35 30.9761 495.468 33.5033 497.492C35.7875 499.515 37.3347 502.241 37.9019 505.239H36.5524C36.0004 502.641 34.6347 500.286 32.6536 498.516C30.3276 496.653 27.436 495.64 24.4561 495.642L24.606 494.318Z" fill="#1E2173"/>
<path d="M76.7147 505.214H23.356C22.9833 505.214 22.6812 505.517 22.6812 505.889V511.063C22.6812 511.435 22.9833 511.738 23.356 511.738H76.7147C77.0874 511.738 77.3896 511.435 77.3896 511.063V505.889C77.3896 505.517 77.0874 505.214 76.7147 505.214Z" fill="white"/>
<path d="M68.2174 491.668C68.6923 491.468 71.0166 492.143 74.0406 495.117C75.2997 496.418 76.2061 498.02 76.674 499.769C77.142 501.518 77.156 503.358 76.7148 505.114H61.5444C62.3942 495.517 67.7425 491.868 68.2174 491.668Z" fill="white"/>
<path d="M62.3943 491.819C62.2069 492.048 62.1176 492.342 62.1457 492.637C62.1738 492.931 62.317 493.203 62.5442 493.393C62.6557 493.485 62.7843 493.554 62.9226 493.597C63.0609 493.639 63.2062 493.653 63.3501 493.639C63.494 493.626 63.6338 493.583 63.7614 493.515C63.889 493.447 64.0019 493.355 64.0937 493.243L66.593 490.219C66.7803 489.99 66.8696 489.696 66.8415 489.401C66.8135 489.106 66.6703 488.834 66.443 488.645C66.333 488.549 66.2047 488.477 66.066 488.433C65.9273 488.389 65.781 488.373 65.6361 488.387C65.4912 488.401 65.3507 488.445 65.223 488.515C65.0954 488.585 64.9833 488.68 64.8935 488.794L62.3943 491.819Z" fill="white"/>
<path d="M59.4201 489.544C59.2328 489.773 59.1435 490.067 59.1716 490.362C59.1996 490.657 59.3428 490.929 59.5701 491.118C59.6802 491.214 59.8085 491.286 59.9472 491.33C60.0859 491.374 60.2321 491.39 60.377 491.376C60.5219 491.362 60.6625 491.318 60.7901 491.248C60.9178 491.178 61.0299 491.083 61.1196 490.968L63.6189 487.944C63.8001 487.713 63.8856 487.42 63.8577 487.127C63.8298 486.834 63.6906 486.563 63.4689 486.37C63.3588 486.275 63.2306 486.203 63.0919 486.158C62.9531 486.114 62.8069 486.099 62.662 486.113C62.5171 486.127 62.3766 486.17 62.2489 486.24C62.1213 486.31 62.0091 486.405 61.9194 486.52L59.4201 489.544Z" fill="white"/>
<path d="M56.546 487.295C56.3572 487.517 56.2643 487.805 56.2877 488.096C56.3112 488.386 56.449 488.656 56.671 488.844C56.9003 489.032 57.1942 489.121 57.489 489.093C57.7838 489.065 58.0556 488.922 58.2455 488.695L60.7447 485.67C60.8497 485.568 60.9332 485.446 60.9902 485.31C61.0472 485.175 61.0766 485.03 61.0766 484.883C61.0766 484.736 61.0472 484.591 60.9902 484.456C60.9332 484.321 60.8497 484.198 60.7447 484.096C60.5129 483.915 60.2205 483.829 59.9276 483.857C59.6347 483.885 59.3636 484.024 59.1702 484.246L56.546 487.295Z" fill="white"/>
<path d="M53.647 485.021C53.555 485.132 53.4858 485.261 53.4436 485.399C53.4013 485.537 53.3867 485.682 53.4006 485.826C53.4146 485.97 53.4567 486.11 53.5247 486.238C53.5927 486.365 53.6852 486.478 53.797 486.57C54.0072 486.776 54.2898 486.892 54.5842 486.892C54.8786 486.892 55.1613 486.776 55.3715 486.57L57.8707 483.521C58.0581 483.292 58.1474 482.998 58.1193 482.703C58.0912 482.408 57.948 482.136 57.7208 481.946C57.6093 481.854 57.4807 481.785 57.3424 481.743C57.2041 481.701 57.0588 481.686 56.9149 481.7C56.771 481.714 56.6312 481.756 56.5036 481.824C56.376 481.892 56.263 481.985 56.1712 482.096L53.647 485.021Z" fill="white"/>
<path d="M99.5582 472.524C102.393 472.321 105.204 473.165 107.456 474.898C109.709 476.63 111.248 479.129 111.779 481.921L124.801 495.292V503.615H83.0132C83.0132 503.615 85.0875 488.619 85.7123 485.245C86.3371 481.871 88.3366 472.524 99.5582 472.524Z" fill="#FBBEAA"/>
<path d="M111.754 481.821C112.229 481.172 112.879 480.672 113.379 480.972C113.879 481.271 126.475 491.268 127.05 491.768C127.625 492.268 128.024 492.893 128.024 494.517V505.239H82.0884C82.0884 505.239 83.8878 489.394 84.0128 488.519C84.1377 487.645 85.0125 486.495 85.5123 486.52C88.6652 487.486 91.9375 488.007 95.2344 488.069C99.6085 488.306 103.972 487.447 107.931 485.57C109.413 484.552 110.707 483.284 111.754 481.821Z" fill="#2E70AC"/>
<path d="M120.477 496.242C118.252 494.592 110.255 488.344 107.256 485.995L107.931 485.645C108.033 485.605 108.126 485.546 108.206 485.47C111.405 487.969 118.927 493.868 121.077 495.467C122.894 496.859 124.138 498.868 124.576 501.115L123.601 501.265C123.176 499.278 122.072 497.501 120.477 496.242Z" fill="#1E2173"/>
<path d="M83.3379 494.318C86.5753 494.35 89.708 495.468 92.2352 497.492C94.5194 499.515 96.0667 502.241 96.6339 505.239H95.2843C94.7255 502.638 93.3508 500.282 91.3605 498.516C89.0462 496.65 86.161 495.635 83.188 495.642L83.3379 494.318Z" fill="#1E2173"/>
<path d="M135.447 505.214H82.0884C81.7157 505.214 81.4136 505.517 81.4136 505.889V511.063C81.4136 511.435 81.7157 511.738 82.0884 511.738H135.447C135.82 511.738 136.122 511.435 136.122 511.063V505.889C136.122 505.517 135.82 505.214 135.447 505.214Z" fill="white"/>
<path d="M126.95 491.668C127.425 491.468 129.749 492.143 132.773 495.117C134.032 496.418 134.939 498.02 135.406 499.769C135.874 501.518 135.888 503.358 135.447 505.114H120.277C121.127 495.517 126.475 491.868 126.95 491.668Z" fill="white"/>
<path d="M121.027 491.819C120.839 492.048 120.75 492.342 120.778 492.637C120.806 492.931 120.949 493.203 121.177 493.393C121.288 493.485 121.417 493.554 121.555 493.597C121.693 493.639 121.838 493.653 121.982 493.639C122.126 493.626 122.266 493.583 122.394 493.515C122.521 493.447 122.634 493.355 122.726 493.243L125.225 490.219C125.407 489.987 125.492 489.695 125.464 489.402C125.436 489.109 125.297 488.838 125.075 488.645C124.965 488.549 124.837 488.477 124.698 488.433C124.56 488.389 124.413 488.373 124.268 488.387C124.124 488.401 123.983 488.445 123.855 488.515C123.728 488.585 123.616 488.68 123.526 488.794L121.027 491.819Z" fill="white"/>
<path d="M118.153 489.544C117.965 489.773 117.876 490.067 117.904 490.362C117.932 490.657 118.075 490.929 118.303 491.118C118.413 491.214 118.541 491.286 118.68 491.33C118.818 491.374 118.965 491.39 119.109 491.376C119.254 491.362 119.395 491.318 119.523 491.248C119.65 491.178 119.762 491.083 119.852 490.968L122.351 487.944C122.533 487.713 122.618 487.42 122.59 487.127C122.562 486.834 122.423 486.563 122.201 486.37C121.972 486.183 121.678 486.093 121.383 486.121C121.088 486.149 120.817 486.293 120.627 486.52L118.153 489.544Z" fill="white"/>
<path d="M115.278 487.295C115.174 487.395 115.091 487.515 115.034 487.648C114.978 487.781 114.948 487.925 114.948 488.069C114.948 488.214 114.978 488.357 115.034 488.49C115.091 488.623 115.174 488.744 115.278 488.844C115.508 489.031 115.801 489.121 116.096 489.093C116.391 489.065 116.663 488.921 116.853 488.694L119.352 485.67C119.539 485.441 119.629 485.147 119.601 484.852C119.572 484.557 119.429 484.285 119.202 484.096C119.09 484.003 118.962 483.934 118.824 483.892C118.685 483.85 118.54 483.835 118.396 483.849C118.252 483.863 118.112 483.905 117.985 483.973C117.857 484.041 117.744 484.134 117.652 484.245L115.278 487.295Z" fill="white"/>
<path d="M112.379 485.021C112.287 485.132 112.218 485.261 112.176 485.399C112.134 485.537 112.119 485.682 112.133 485.826C112.147 485.97 112.189 486.11 112.257 486.238C112.325 486.365 112.418 486.478 112.529 486.57C112.74 486.776 113.022 486.892 113.317 486.892C113.611 486.892 113.894 486.776 114.104 486.57L116.603 483.521C116.791 483.292 116.88 482.998 116.852 482.703C116.824 482.408 116.68 482.136 116.453 481.946C116.342 481.854 116.213 481.785 116.075 481.743C115.937 481.701 115.791 481.686 115.647 481.7C115.503 481.714 115.364 481.756 115.236 481.824C115.108 481.892 114.996 481.985 114.904 482.096L112.379 485.021Z" fill="white"/>
<path d="M124.291 197.064C124.291 197.064 124.291 222.982 124.291 224.406C124.291 225.831 111.794 238.052 95.1994 238.052C69.6822 238.052 39.1415 228.73 39.5913 222.657C39.8912 218.658 40.2661 197.064 40.2661 197.064H124.291Z" fill="#93929C"/>
<path d="M103.378 83.9737C103.378 83.9737 120.697 93.9707 123.372 95.7202C126.046 97.4696 129.145 100.169 128.57 107.467C127.995 114.764 125.696 210.635 125.696 210.635C120.288 213.554 114.537 215.787 108.576 217.283C105.702 217.608 103.428 217.683 101.478 215.784C99.5288 213.884 93.7806 206.986 93.7806 206.986C93.7806 206.986 84.3084 213.409 80.0347 215.784C79.0163 216.495 77.8654 216.994 76.6504 217.251C75.4355 217.509 74.1811 217.52 72.9619 217.283C66.7388 216.009 42.2462 208.861 41.4714 208.411C40.6966 207.961 39.9719 207.486 40.0469 206.637C40.1218 205.787 40.5717 108.291 40.8966 103.893C40.9609 101.537 41.7022 99.2497 43.0318 97.3041C44.3613 95.3585 46.223 93.8368 48.3943 92.921C53.6177 90.5967 73.2368 82.6241 73.2368 82.6241L93.7056 96.8448L103.378 83.9737Z" fill="#003399"/>
<path d="M103.377 81.175L93.7554 96.8453C93.7554 96.8453 103.203 104.343 103.752 104.893C104.302 105.443 105.402 105.393 105.627 104.518C105.852 103.643 108.576 87.0233 108.626 87.0233C108.674 86.9351 108.699 86.8363 108.699 86.7359C108.699 86.6354 108.674 86.5366 108.626 86.4485C108.376 86.2735 103.377 81.175 103.377 81.175Z" fill="#F5F5F5"/>
<g filter="url(#filter0_d_21_290)">
<rect x="67.2944" y="131.572" width="48.3361" height="68.8789" rx="1" transform="rotate(-6.55484 67.2944 131.572)" fill="#EFEFEF"/>
</g>
<path d="M73.1366 78.2755L93.7804 96.8448C93.7804 96.8448 82.9087 104.343 82.4338 104.892C82.2954 105.01 82.132 105.095 81.9561 105.14C81.7801 105.186 81.5961 105.191 81.418 105.155C81.2398 105.118 81.0723 105.042 80.9279 104.932C80.7835 104.822 80.666 104.68 80.5844 104.517C79.7847 103.243 66.9885 85.2733 66.9385 85.1234C66.8855 85.0369 66.8574 84.9374 66.8574 84.836C66.8574 84.7345 66.8855 84.635 66.9385 84.5486C67.2135 84.3986 73.1366 78.2755 73.1366 78.2755Z" fill="#F5F5F5"/>
<path d="M87.652 159.484C91.0772 158.036 94.1744 155.892 96.7468 153.186C98.3389 151.515 100.145 150.064 102.115 148.873C103.271 148.151 104.269 147.197 105.046 146.072C106.072 144.328 106.921 142.486 107.58 140.574C107.824 138.928 108.384 137.342 109.229 135.904C110.031 135.168 112.865 135.562 114.336 138.421C114.843 139.694 115.073 141.065 115.01 142.442C114.947 143.818 114.593 145.169 113.971 146.404C113.239 147.884 112.666 149.437 112.261 151.037L112.528 151.197C114.769 150.007 117.164 149.144 119.64 148.634C120.538 148.433 121.474 148.542 122.296 148.942C123.118 149.342 123.779 150.011 124.172 150.841C124.565 151.671 124.668 152.613 124.464 153.515C124.259 154.418 123.76 155.229 123.045 155.817C126.909 156.261 126.47 162.22 123.153 163.008C123.864 163.306 124.463 163.818 124.871 164.474C125.279 165.13 125.475 165.898 125.434 166.675C125.392 167.452 125.114 168.201 124.638 168.819C124.162 169.437 123.51 169.896 122.772 170.133C125.127 172.305 123.405 175.885 119.127 175.9C115.652 176.254 106.356 177.709 103.122 178.405C99.8874 179.102 93.3868 177.562 91.2986 178.208C88.1902 179.347 84.5799 179.366 81.8261 171.186C79.0724 163.007 84.4534 160.54 87.652 159.484Z" fill="#FBBEAA"/>
<path d="M93.7718 181.427L31.1597 206.634C23.1583 210.658 10.1586 208.594 6.23966 199.235C5.52209 197.49 5.16646 195.618 5.1943 193.731C5.22215 191.845 5.63288 189.984 6.40164 188.261C7.17041 186.538 8.28116 184.989 9.66651 183.708C11.0519 182.427 12.683 181.441 14.4609 180.809L88.4588 154.046L93.7718 181.427Z" fill="#003399"/>
<defs>
<filter id="filter0_d_21_290" x="67.4019" y="126.162" width="57.668" height="73.7313" filterUnits="userSpaceOnUse" color-interpolation-filters="sRGB">
<feFlood flood-opacity="0" result="BackgroundImageFix"/>
<feColorMatrix in="SourceAlpha" type="matrix" values="0 0 0 0 0 0 0 0 0 0 0 0 0 0 0 0 0 0 127 0" result="hardAlpha"/>
<feOffset dx="2"/>
<feComposite in2="hardAlpha" operator="out"/>
<feColorMatrix type="matrix" values="0 0 0 0 0.603922 0 0 0 0 0.6 0 0 0 0 0.631373 0 0 0 1 0"/>
<feBlend mode="normal" in2="BackgroundImageFix" result="effect1_dropShadow_21_290"/>
<feBlend mode="normal" in="SourceGraphic" in2="effect1_dropShadow_21_290" result="shape"/>
</filter>
<clipPath id="clip0_21_290">
<rect width="74" height="97" fill="white" transform="translate(57.8828)"/>
</clipPath>
</defs>
</svg>
