<svg width="194" height="522" viewBox="0 0 194 522" fill="none" xmlns="http://www.w3.org/2000/svg">
    <path d="M171.232 78.3329C171.334 76.0986 170.736 73.8882 169.521 72.0103C167.65 69.8414 166.249 67.3089 165.405 64.572C164.756 62.0314 163.719 59.6061 162.331 57.3815C161.339 56.0178 159.851 54.9021 159.851 53.8607C159.851 52.8194 161.835 50.811 164.661 51.3813C165.872 51.7584 166.984 52.3986 167.919 53.2558C168.853 54.1131 169.587 55.1663 170.066 56.3402C170.337 55.625 170.496 54.8723 170.538 54.1087L171.157 38.9096C171.167 38.5156 171.255 38.1275 171.417 37.7681C171.579 37.4088 171.811 37.0855 172.1 36.8174C172.389 36.5494 172.729 36.3418 173.099 36.2072C173.469 36.0725 173.863 36.0135 174.257 36.0335C174.883 36.0602 175.486 36.2827 175.98 36.6696C176.473 37.0565 176.833 37.5884 177.009 38.1906V37.4963C177.104 36.7575 177.476 36.082 178.048 35.6056C178.621 35.1292 179.353 34.8871 180.097 34.9279C180.841 34.9687 181.542 35.2894 182.059 35.8256C182.576 36.3618 182.871 37.0738 182.885 37.8187V39.9262C183.134 39.2765 183.607 38.7376 184.22 38.4077C184.832 38.0779 185.542 37.9792 186.222 38.1294C186.901 38.2797 187.503 38.6689 187.92 39.2263C188.336 39.7837 188.538 40.4721 188.489 41.1659V42.5048C188.756 42.0358 189.153 41.6547 189.633 41.4082C190.113 41.1616 190.655 41.0601 191.191 41.1163C191.926 41.2096 192.596 41.5853 193.059 42.1638C193.522 42.7423 193.741 43.4781 193.671 44.2156L192.456 57.0344C191.66 64.2615 190.165 71.3943 187.993 78.3329C187.967 79.4914 187.698 80.6316 187.205 81.6802C186.712 82.7288 186.004 83.6626 185.129 84.4215C184.253 85.1804 183.228 85.7477 182.12 86.0869C181.012 86.4261 179.845 86.5298 178.695 86.3911C177.654 86.4258 176.617 86.2363 175.656 85.8353C174.694 85.4342 173.831 84.8311 173.123 84.0668C172.415 83.3025 171.88 82.3949 171.553 81.4056C171.227 80.4162 171.117 79.3683 171.232 78.3329Z" fill="#FBBEAA"/>
    <path d="M170.934 79.9944L161.016 142.253C159.38 150.064 161.909 157.13 170.934 158.37C172.6 158.587 174.293 158.463 175.909 158.006C177.526 157.549 179.033 156.768 180.338 155.71C181.644 154.653 182.721 153.341 183.504 151.855C184.287 150.368 184.759 148.738 184.893 147.064L187.918 80.1184C188.712 73.7958 185.959 69.5807 181.149 69.0601C175.248 68.4154 172.124 71.9114 170.934 79.9944Z" fill="#FBBEAA"/>
    <path d="M171.727 58.4974C170.785 58.4974 170.711 57.9024 170.289 56.8114C172.397 56.8114 178.521 57.2081 181.199 62.3654C178.496 58.6462 173.314 58.4974 171.727 58.4974ZM176.537 38.885C176.537 38.885 176.389 39.7528 176.24 41.0173C176.24 41.662 176.091 42.4306 176.042 43.224C175.992 44.0174 175.918 44.8853 175.843 45.7035C175.843 47.4391 175.719 49.1499 175.719 50.4392C175.719 51.7285 175.719 52.5963 175.719 52.5963C175.719 52.6376 175.728 52.6785 175.744 52.7163C175.761 52.7541 175.785 52.788 175.815 52.816C175.845 52.844 175.881 52.8654 175.92 52.8788C175.959 52.8922 176 52.8973 176.042 52.8939C176.111 52.8904 176.178 52.8643 176.232 52.8196C176.285 52.7748 176.323 52.714 176.339 52.646C176.339 52.646 176.488 51.7781 176.612 50.4888C176.736 49.1995 176.934 47.4887 177.009 45.7779C177.009 44.91 177.009 44.0422 177.009 43.2984C177.009 42.5546 177.009 41.7364 177.009 41.0917C177.009 39.7776 177.009 38.9345 177.009 38.9345C177.009 38.8933 177 38.8525 176.984 38.8147C176.967 38.7769 176.943 38.7429 176.913 38.7149C176.883 38.6869 176.847 38.6656 176.808 38.6522C176.769 38.6387 176.727 38.6336 176.686 38.637C176.639 38.6644 176.6 38.7044 176.573 38.7525C176.547 38.8006 176.535 38.855 176.537 38.9098V38.885ZM182.29 40.6206C182.29 40.6206 182.141 41.3644 181.967 42.4554C181.967 43.0257 181.794 43.6703 181.72 44.3645C181.645 45.0588 181.571 45.8026 181.496 46.5465C181.496 48.0341 181.323 49.5218 181.298 50.6376C181.273 51.7533 181.298 52.522 181.298 52.522C181.301 52.5611 181.312 52.5992 181.33 52.6341C181.348 52.669 181.372 52.7001 181.402 52.7254C181.432 52.7508 181.467 52.77 181.504 52.7819C181.542 52.7938 181.581 52.7981 181.62 52.7947C181.687 52.7901 181.75 52.7631 181.8 52.7181C181.849 52.6731 181.882 52.6127 181.893 52.5468C181.893 52.5468 182.042 51.8029 182.215 50.7119C182.389 49.621 182.538 48.1085 182.662 46.6457C182.662 45.9018 182.662 45.158 182.811 44.4637C182.959 43.7695 182.811 43.1 182.811 42.5298C182.811 41.414 182.811 40.6702 182.811 40.6702C182.811 40.6289 182.802 40.5881 182.786 40.5503C182.769 40.5125 182.745 40.4785 182.715 40.4505C182.684 40.4225 182.649 40.4012 182.61 40.3878C182.571 40.3744 182.529 40.3692 182.488 40.3727C182.433 40.3954 182.386 40.4329 182.351 40.481C182.316 40.5292 182.294 40.586 182.29 40.6454V40.6206ZM187.844 42.9761C187.844 42.9761 187.695 43.5959 187.497 44.5381C187.497 44.9844 187.298 45.5299 187.224 46.125C187.15 46.7201 187.05 47.3399 186.951 47.9598C186.778 49.2243 186.703 50.4392 186.654 51.431C186.604 52.4228 186.654 53.0179 186.654 53.0179C186.653 53.0591 186.662 53.0999 186.678 53.1377C186.695 53.1756 186.719 53.2096 186.749 53.2375C186.78 53.2655 186.816 53.2869 186.855 53.3003C186.894 53.3137 186.935 53.3188 186.976 53.3154C187.039 53.3121 187.1 53.2887 187.149 53.2485C187.198 53.2084 187.233 53.1537 187.249 53.0923C187.249 53.0923 187.422 52.4724 187.596 51.555C187.769 50.6376 188.017 49.3483 188.166 48.1085C188.166 47.4639 188.29 46.844 188.34 46.249C188.389 45.6539 188.34 45.1084 188.34 44.6373C188.34 43.6951 188.34 43.0504 188.34 43.0504C188.34 43.0092 188.331 42.9684 188.315 42.9306C188.298 42.8928 188.274 42.8588 188.244 42.8308C188.214 42.8028 188.178 42.7815 188.139 42.7681C188.1 42.7546 188.058 42.7495 188.017 42.7529C187.972 42.7785 187.932 42.814 187.902 42.857C187.872 42.8999 187.852 42.9491 187.844 43.0009V42.9761Z" fill="#F18380"/>
    <path d="M169.8 76.9497L169.188 83.7722L189.291 86.8648L189.291 79.5196L169.8 76.9497Z" fill="#023783"/>
    <path d="M87.6743 482.979C87.6743 480.592 88.6226 478.303 90.3105 476.615C91.9984 474.927 94.2877 473.979 96.6747 473.979C99.0618 473.979 101.351 474.927 103.039 476.615C104.727 478.303 105.675 480.592 105.675 482.979V502.542H87.6743V482.979Z" fill="#FBBEAA"/>
    <path d="M105.031 486.624C107.238 486.624 107.635 487.591 108.28 488.856C109.325 492.225 111.113 495.318 113.511 497.906C117.092 500.955 120.933 503.685 124.991 506.063V516.427H84.9231C84.9231 516.427 85.1958 508.245 85.3942 502.468C85.5926 496.691 86.1628 489.649 86.1133 488.905C86.0637 488.161 86.1132 486.624 87.4769 486.624H105.031Z" fill="#302D3B"/>
    <path d="M89.9056 503.038C89.9007 504.31 90.2738 505.555 90.9775 506.615C91.6813 507.675 92.684 508.502 93.8584 508.991C95.0328 509.48 96.3261 509.609 97.5741 509.362C98.8221 509.115 99.9686 508.503 100.868 507.603C101.768 506.704 102.38 505.557 102.627 504.309C102.874 503.061 102.745 501.768 102.256 500.594C101.766 499.419 100.939 498.416 99.8796 497.713C98.8197 497.009 97.5748 496.636 96.3026 496.641C94.608 496.647 92.9847 497.323 91.7864 498.522C90.5882 499.72 89.9121 501.343 89.9056 503.038Z" fill="#93929C"/>
    <path d="M96.3036 499.269L94.8407 501.426L92.3364 502.145L93.9233 504.203L93.8489 506.807L96.3036 505.914L98.7582 506.807L98.659 504.203L100.271 502.145L97.7664 501.426L96.3036 499.269Z" fill="white"/>
    <path d="M124.717 505.89C124.717 505.89 130.395 508.89 132.527 510.353C133.514 511.021 134.316 511.929 134.858 512.991C135.4 514.054 135.664 515.236 135.627 516.427H120.056C120.056 516.427 120.378 508.815 124.717 505.89Z" fill="white"/>
    <path d="M84.9231 516.427V520.717C84.9231 521.436 85.5678 521.832 86.6587 521.832H133.917C134.983 521.832 135.628 521.436 135.628 520.717V516.427H84.9231Z" fill="white"/>
    <path d="M120.056 502.988C120.193 502.778 120.407 502.629 120.653 502.573C120.898 502.518 121.155 502.56 121.37 502.691C121.477 502.757 121.57 502.843 121.643 502.945C121.716 503.047 121.768 503.163 121.795 503.285C121.823 503.408 121.826 503.535 121.804 503.658C121.782 503.782 121.736 503.9 121.667 504.005L120.006 506.683C119.926 506.822 119.81 506.936 119.671 507.015C119.531 507.093 119.373 507.133 119.213 507.129C119.029 507.126 118.85 507.075 118.692 506.98C118.585 506.915 118.493 506.828 118.42 506.726C118.347 506.624 118.295 506.508 118.267 506.386C118.239 506.264 118.236 506.137 118.258 506.013C118.28 505.89 118.326 505.772 118.395 505.666L120.056 502.988Z" fill="white"/>
    <path d="M117.13 500.93C117.212 500.836 117.311 500.758 117.422 500.702C117.534 500.646 117.655 500.613 117.779 500.603C117.904 500.594 118.028 500.61 118.147 500.649C118.265 500.688 118.375 500.75 118.469 500.831C118.564 500.913 118.641 501.012 118.697 501.123C118.753 501.234 118.787 501.356 118.796 501.48C118.805 501.604 118.79 501.729 118.751 501.848C118.712 501.966 118.65 502.076 118.568 502.17L116.634 504.451C116.545 504.556 116.435 504.64 116.311 504.7C116.188 504.76 116.053 504.793 115.915 504.798C115.736 504.795 115.561 504.742 115.41 504.644C115.259 504.547 115.138 504.409 115.06 504.247C114.983 504.085 114.953 503.904 114.972 503.726C114.992 503.547 115.061 503.378 115.171 503.236L117.13 500.93Z" fill="white"/>
    <path d="M114.378 498.625C114.576 498.498 114.812 498.447 115.045 498.481C115.277 498.516 115.488 498.633 115.64 498.812C115.792 498.991 115.873 499.219 115.869 499.454C115.865 499.689 115.776 499.914 115.618 500.088L113.412 501.997C113.238 502.143 113.018 502.223 112.792 502.22C112.655 502.225 112.519 502.198 112.395 502.142C112.27 502.087 112.16 502.003 112.073 501.898C111.981 501.812 111.908 501.708 111.858 501.593C111.808 501.478 111.782 501.354 111.782 501.228C111.782 501.103 111.808 500.979 111.858 500.863C111.908 500.748 111.981 500.645 112.073 500.559L114.378 498.625Z" fill="white"/>
    <path d="M109.543 497.484L112.022 495.947C112.24 495.818 112.499 495.78 112.745 495.84C112.991 495.9 113.203 496.054 113.336 496.269C113.403 496.376 113.448 496.495 113.468 496.62C113.488 496.745 113.483 496.872 113.453 496.994C113.423 497.117 113.369 497.232 113.293 497.333C113.218 497.435 113.123 497.52 113.014 497.583L110.534 499.12C110.388 499.218 110.215 499.27 110.039 499.269C109.877 499.265 109.719 499.22 109.58 499.137C109.441 499.055 109.326 498.938 109.245 498.798C109.114 498.583 109.072 498.326 109.127 498.081C109.183 497.835 109.332 497.621 109.543 497.484Z" fill="white"/>
    <path d="M107.459 494.286L110.236 493.121C110.473 493.022 110.739 493.021 110.976 493.119C111.213 493.217 111.402 493.405 111.501 493.641C111.549 493.757 111.574 493.881 111.574 494.006C111.574 494.131 111.549 494.255 111.5 494.37C111.452 494.486 111.381 494.59 111.292 494.678C111.202 494.766 111.096 494.835 110.98 494.881L108.203 496.046H107.831C107.617 496.035 107.413 495.953 107.251 495.813C107.089 495.673 106.978 495.483 106.935 495.273C106.893 495.063 106.921 494.845 107.016 494.653C107.111 494.461 107.267 494.306 107.459 494.212V494.286Z" fill="white"/>
    <path d="M105.725 490.715L108.799 489.946C109.042 489.887 109.299 489.927 109.513 490.057C109.727 490.187 109.881 490.397 109.94 490.641C109.999 490.884 109.959 491.141 109.829 491.355C109.699 491.569 109.489 491.722 109.245 491.781L106.196 492.575H105.973C105.759 492.572 105.552 492.501 105.382 492.371C105.212 492.242 105.089 492.061 105.03 491.856C104.977 491.613 105.02 491.359 105.149 491.146C105.278 490.934 105.484 490.779 105.725 490.715Z" fill="white"/>
    <path d="M74.5088 357.866C74.7815 345.866 82.8645 340.064 94.8402 340.361C106.816 340.659 115.445 346.932 115.172 358.908L105.676 483.946H87.6747L74.5088 357.866Z" fill="#FBBEAA"/>
    <path d="M11.8025 482.979C11.8025 480.592 12.7507 478.303 14.4386 476.615C16.1266 474.927 18.4159 473.979 20.8029 473.979C23.19 473.979 25.4793 474.927 27.1672 476.615C28.8551 478.303 29.8033 480.592 29.8033 482.979V502.542H11.8025V482.979Z" fill="#FBBEAA"/>
    <path d="M29.1336 486.624C31.3651 486.624 31.7618 487.591 32.3817 488.856C33.4392 492.226 35.2349 495.317 37.6381 497.906C41.2141 500.961 45.056 503.691 49.118 506.063V516.427H9.05005C9.05005 516.427 9.32279 508.245 9.52115 502.468C9.71951 496.691 10.265 489.649 10.2402 488.905C10.2154 488.161 10.2402 486.624 11.5791 486.624H29.1336Z" fill="#302D3B"/>
    <path d="M14.0098 503.038C14.0049 504.309 14.3774 505.553 15.08 506.612C15.7827 507.671 16.7839 508.498 17.9569 508.988C19.1298 509.478 20.4218 509.609 21.6692 509.364C22.9165 509.119 24.0631 508.509 24.9636 507.612C25.8642 506.715 26.4783 505.571 26.7281 504.324C26.9779 503.078 26.8522 501.786 26.3669 500.611C25.8816 499.436 25.0585 498.431 24.0019 497.725C22.9453 497.018 21.7028 496.641 20.4316 496.641C18.7327 496.641 17.1031 497.314 15.8995 498.513C14.6959 499.712 14.0164 501.339 14.0098 503.038Z" fill="#93929C"/>
    <path d="M20.4068 499.269L18.944 501.426L16.4397 502.145L18.0514 504.203L17.977 506.807L20.4068 505.914L22.8615 506.807L22.7871 504.203L24.3988 502.145L21.8697 501.426L20.4068 499.269Z" fill="white"/>
    <path d="M48.8202 505.89C48.8202 505.89 54.523 508.89 56.6305 510.353C57.6227 511.016 58.4284 511.923 58.971 512.987C59.5135 514.05 59.7747 515.234 59.7298 516.427H44.0845C44.0845 516.427 44.506 508.815 48.8202 505.89Z" fill="white"/>
    <path d="M9.05005 516.427V520.717C9.05005 521.436 9.66992 521.832 10.7609 521.832H58.0688C59.1598 521.832 59.7796 521.436 59.7796 520.717V516.427H9.05005Z" fill="white"/>
    <path d="M44.185 502.988C44.3198 502.775 44.534 502.623 44.7805 502.567C45.0269 502.512 45.2854 502.556 45.4991 502.691C45.7128 502.826 45.8643 503.04 45.9201 503.286C45.9759 503.533 45.9315 503.791 45.7967 504.005L44.1355 506.683C44.0495 506.822 43.9288 506.936 43.7854 507.014C43.6419 507.092 43.4806 507.132 43.3172 507.129C43.1409 507.13 42.9683 507.078 42.8214 506.98C42.7145 506.915 42.6218 506.828 42.5487 506.726C42.4757 506.624 42.4238 506.508 42.3961 506.386C42.3684 506.263 42.3654 506.137 42.3873 506.013C42.4092 505.89 42.4556 505.772 42.5238 505.666L44.185 502.988Z" fill="white"/>
    <path d="M41.2336 500.93C41.397 500.74 41.6281 500.621 41.8779 500.598C42.1278 500.574 42.3768 500.649 42.5724 500.806C42.7644 500.974 42.8844 501.209 42.9075 501.463C42.9306 501.717 42.855 501.97 42.6964 502.17L40.7376 504.451C40.6517 504.559 40.5424 504.647 40.4179 504.707C40.2933 504.767 40.1569 504.798 40.0186 504.798C39.8369 504.8 39.6584 504.749 39.5049 504.652C39.3514 504.555 39.2292 504.415 39.1532 504.25C39.0772 504.085 39.0506 503.901 39.0766 503.721C39.1025 503.542 39.18 503.373 39.2995 503.236L41.2336 500.93Z" fill="white"/>
    <path d="M38.5066 498.625C38.7039 498.498 38.9406 498.447 39.1727 498.481C39.4048 498.516 39.6165 498.633 39.7682 498.812C39.9199 498.991 40.0014 499.219 39.9973 499.454C39.9933 499.689 39.9041 499.914 39.7464 500.088L37.5149 501.997C37.3418 502.143 37.1217 502.223 36.895 502.22C36.7587 502.223 36.6235 502.196 36.4991 502.14C36.3747 502.084 36.2643 502.001 36.1759 501.898C36.0875 501.81 36.0173 501.706 35.9693 501.591C35.9214 501.476 35.8967 501.353 35.8967 501.228C35.8967 501.104 35.9214 500.98 35.9693 500.866C36.0173 500.751 36.0875 500.646 36.1759 500.559L38.5066 498.625Z" fill="white"/>
    <path d="M33.6727 497.484L36.1522 495.947C36.3661 495.857 36.6053 495.846 36.8261 495.918C37.047 495.989 37.2347 496.138 37.3551 496.337C37.4754 496.535 37.5203 496.77 37.4815 496.999C37.4428 497.228 37.3229 497.435 37.1439 497.583L34.6645 499.12C34.5175 499.218 34.345 499.27 34.1686 499.269C34.0033 499.267 33.8413 499.223 33.6981 499.14C33.5549 499.058 33.4351 498.94 33.3504 498.798C33.2216 498.58 33.1832 498.321 33.2434 498.075C33.3037 497.83 33.4578 497.617 33.6727 497.484Z" fill="white"/>
    <path d="M31.5892 494.286L34.3662 493.121C34.4817 493.072 34.6056 493.047 34.7308 493.047C34.856 493.047 34.9799 493.072 35.0953 493.121C35.2107 493.169 35.3153 493.24 35.403 493.33C35.4907 493.419 35.5597 493.525 35.6059 493.641C35.6985 493.872 35.6987 494.13 35.6063 494.36C35.514 494.591 35.3362 494.778 35.1101 494.881L32.3083 496.046C32.194 496.072 32.0754 496.072 31.9611 496.046C31.7702 496.046 31.5836 495.99 31.4247 495.884C31.2659 495.778 31.142 495.628 31.0685 495.451C30.9933 495.227 31.005 494.983 31.1015 494.767C31.1979 494.551 31.3721 494.379 31.5892 494.286Z" fill="white"/>
    <path d="M29.8535 490.715L32.9033 489.947C33.1498 489.886 33.4101 489.925 33.6281 490.055C33.8461 490.185 34.0043 490.395 34.0686 490.641C34.0982 490.761 34.1036 490.887 34.0847 491.009C34.0658 491.132 34.0229 491.249 33.9584 491.355C33.8939 491.461 33.8091 491.554 33.7089 491.627C33.6086 491.7 33.4949 491.752 33.3743 491.781L30.3246 492.575H30.0767C29.8533 492.558 29.6428 492.464 29.4811 492.308C29.3195 492.153 29.2167 491.947 29.1903 491.724C29.164 491.502 29.2157 491.277 29.3367 491.089C29.4576 490.9 29.6403 490.759 29.8535 490.69V490.715Z" fill="white"/>
    <path d="M21.6469 357.494C22.8649 351.866 26.268 346.952 31.1081 343.832C35.9482 340.712 41.8291 339.642 47.458 340.857C59.1858 343.337 65.5084 354.891 62.9793 366.619L29.8043 486.004H11.5803L21.6469 357.494Z" fill="#FBBEAA"/>
    <path d="M72.9453 357.086C73.0121 354.237 73.6393 351.429 74.7913 348.822C75.9432 346.216 77.5973 343.861 79.6591 341.894C81.7209 339.927 84.15 338.385 86.8077 337.356C89.4654 336.327 92.2997 335.832 95.1488 335.899C97.9978 335.966 100.806 336.593 103.412 337.745C106.019 338.897 108.373 340.551 110.341 342.613C112.308 344.675 113.85 347.104 114.879 349.761C115.907 352.419 116.402 355.253 116.336 358.102L121.965 486.638H72.9463L72.9453 357.086Z" fill="#93929C"/>
    <path d="M21.6495 354.433C22.9952 348.94 26.4302 344.188 31.2244 341.189C36.0185 338.189 41.7937 337.177 47.3221 338.369C52.8504 339.56 57.6961 342.861 60.8288 347.569C63.9615 352.278 65.1341 358.022 64.0976 363.582L50.9075 486.138C50.9075 486.138 19.3193 488.023 0.500244 486.138L21.6495 354.433Z" fill="#93929C"/>
    <path d="M178.993 135.36L107.783 81.2588C99.477 75.9528 93.8239 78.7794 89.4105 84.4573C87.3949 87.2055 86.4605 90.5989 86.7851 93.9915C87.1097 97.384 88.6708 100.539 91.1709 102.855L162.207 155.196C164.71 157.31 167.933 158.377 171.203 158.174C174.474 157.97 177.539 156.513 179.762 154.105L180.084 153.758C181.263 152.5 182.174 151.014 182.761 149.392C183.347 147.771 183.597 146.046 183.495 144.325C183.393 142.603 182.941 140.92 182.167 139.379C181.393 137.838 180.313 136.47 178.993 135.36Z" fill="#FBBEAA"/>
    <path d="M91.1708 102.83C90.5133 102.264 89.9151 101.633 89.3856 100.946C88.9174 99.1811 88.8571 97.333 89.2094 95.5416C89.5616 93.7501 90.3172 92.0625 91.4188 90.6065C95.1627 84.8294 103.023 80.292 106.519 81.1598L109.99 82.9202L149.289 112.674C145.811 120.848 141.113 128.447 135.355 135.212L91.1708 102.83Z" fill="#F18380"/>
    <path d="M101.906 77.3907L163.529 118.952C163.27 121.078 170.101 77.3907 170.101 77.3907L189.431 79.9063C189.431 79.9063 189.038 124.02 186.152 147.433C185 156.779 177.292 160.347 168.091 158.34C163.549 157.349 159.272 155.484 155.466 152.813C139.113 141.335 93.2349 109.005 89.4839 104.937C83.0126 97.9206 83.0125 92.6642 86.7317 86.887C90.4509 81.1099 98.4099 76.5229 101.906 77.3907Z" fill="#90A2B7"/>
    <path d="M72.9464 357.792L60.2268 224.621C60.2268 209.918 75.3762 193.9 97.7161 197.347C117.899 200.496 124.048 220.778 122.387 239.993C120.725 259.209 116.238 358.734 116.238 358.734C116.171 361.583 115.544 364.391 114.392 366.998C113.24 369.604 111.586 371.959 109.524 373.926C107.462 375.893 105.033 377.435 102.375 378.464C99.7175 379.493 96.8832 379.988 94.0341 379.921C91.1851 379.854 88.3771 379.227 85.7704 378.075C83.1638 376.923 80.8096 375.269 78.8422 373.207C76.8748 371.145 75.3328 368.716 74.3042 366.059C73.2755 363.401 72.7805 360.567 72.8472 357.718L72.9464 357.792Z" fill="#93929C"/>
    <path d="M21.6464 355.139L34.2916 221.992C36.9694 207.537 54.9454 194.718 76.2439 202.306C95.4596 209.174 97.6911 230.249 92.4346 248.82C87.1782 267.391 64.0945 364.288 64.0945 364.288C62.7489 369.781 59.3138 374.532 54.5197 377.532C49.7255 380.532 43.9504 381.544 38.422 380.352C32.8936 379.161 28.048 375.86 24.9153 371.151C21.7825 366.443 20.6098 360.698 21.6464 355.139Z" fill="#93929C"/>
    <path d="M92.4348 248.82C87.2032 267.391 64.0947 364.288 64.0947 364.288" stroke="#5E5D63" stroke-width="0.75" stroke-miterlimit="10"/>
    <path d="M88.7165 75.283C88.7165 75.283 99.6757 77.1921 101.808 77.7624C103.066 78.0577 104.229 78.6676 105.188 79.5349C106.146 80.4022 106.869 81.4986 107.288 82.7213C108.651 85.9694 115.668 107.243 116.313 109.549C116.749 112.089 116.339 114.702 115.147 116.987C114.131 119.764 108.874 132.41 108.874 132.41L108.081 173.147L78.4777 177.842L50.1114 173.147C50.1114 173.147 40.1937 97.3749 39.6978 92.6888C39.2019 88.0026 41.5326 78.9526 47.1361 77.812C52.7397 76.6715 68.1123 75.3326 68.1123 75.3326L88.7165 75.283Z" fill="#FBBEAA"/>
    <path d="M109.513 157.015V173.349C90.1872 175.385 59.3931 173.943 47.8273 173.349C47.2836 168.683 46.7152 160.766 46.1221 155.506C61.8645 155.958 87.8642 157.637 109.513 157.015Z" fill="white"/>
    <path d="M94.3971 101.063H95.2891V102.217H96.2408V101.063H97.1328V104.216H96.2408V102.967H95.2889V104.216H94.397V101.063H94.3971ZM100.316 101.063V104.216H99.4538V101.81H98.8893V102.715C98.8893 103.122 98.8592 103.62 98.6218 103.901C98.3846 104.213 97.9374 104.308 97.4327 104.213V103.431C97.9074 103.526 98.0274 103.337 98.0274 102.712V101.057H100.316V101.063ZM101.06 101.063H101.952L102.457 102.936L102.961 101.063H103.853L104.271 104.216H103.439L103.231 102.529L102.754 104.216H102.159L101.685 102.529L101.478 104.216H100.646L101.06 101.063L101.06 101.063ZM104.598 101.063H105.49V102.343L106.352 101.063H107.334L106.204 102.624L107.364 104.216H106.295L105.493 102.936V104.216H104.601V101.063H104.598H104.598ZM100.76 97.6896C95.4089 97.6896 91.8687 99.72 91.8687 102.715C91.8687 105.682 95.4063 107.741 100.76 107.741C106.142 107.741 109.652 105.679 109.652 102.715C109.652 99.72 106.144 97.6896 100.76 97.6896ZM100.76 107.274C95.7335 107.274 92.376 105.433 92.376 102.715C92.376 99.969 95.7363 98.1564 100.76 98.1564C105.814 98.1564 109.147 99.9662 109.147 102.715C109.147 105.433 105.817 107.274 100.76 107.274ZM100.76 98.5945C96.0336 98.5945 92.8806 100.25 92.8806 102.715C92.8806 105.181 96.0336 106.836 100.76 106.836C105.487 106.836 108.64 105.181 108.64 102.715C108.643 100.25 105.49 98.5945 100.76 98.5945ZM100.76 106.744C96.0908 106.744 92.9707 105.121 92.9707 102.718C92.9707 100.316 96.0935 98.6919 100.76 98.6919C105.427 98.6919 108.55 100.316 108.55 102.718C108.553 105.121 105.43 106.745 100.76 106.745V106.744Z" fill="white"/>
    <path d="M7.21716 169.502L38.9789 85.9199C43.2188 76.9939 49.4918 76.3988 56.3351 78.8783C59.5003 80.1408 62.0894 82.5252 63.6079 85.5759C65.1263 88.6266 65.4677 92.1298 64.5668 95.4162L31.8629 177.511C30.8716 180.634 28.7088 183.252 25.8285 184.814C22.9483 186.377 19.5746 186.763 16.4159 185.891L15.9448 185.767C14.2786 185.313 12.7224 184.523 11.3712 183.448C10.0199 182.372 8.90194 181.032 8.08532 179.511C7.2687 177.989 6.77058 176.316 6.62132 174.596C6.47206 172.875 6.67479 171.142 7.21716 169.502Z" fill="#FBBEAA"/>
    <path d="M20.3818 134.839L38.9777 85.9198C39.4765 84.847 40.0653 83.8185 40.7381 82.8453C43.0159 81.4192 45.6237 80.6058 48.3084 80.4842C50.9931 80.3625 53.6637 80.9367 56.0611 82.1511C58.8451 83.5058 61.083 85.7707 62.4041 88.5708C63.7253 91.3709 64.0505 94.5383 63.3259 97.5484C63.3259 97.846 63.1524 98.4162 63.0036 99.1849L43.8126 147.41C35.4301 144.387 27.536 140.152 20.3818 134.839Z" fill="#F18380"/>
    <path d="M40.7134 81.4572L5.41284 173.075C34.4073 163.797 31.009 137.948 46.7783 140.601C46.7783 140.601 64.9624 97.9207 65.6567 94.1023C66.3813 91.0922 66.0561 87.9249 64.7349 85.1248C63.4138 82.3246 61.1759 80.0597 58.3919 78.705C50.6312 74.7378 42.8953 78.3331 40.7134 81.4572Z" fill="#90A2B7"/>
    <path d="M70.8894 130.252L31.4165 179.42C26.7304 185.866 19.7879 188.743 12.8702 182.941C11.5908 181.854 10.5455 180.518 9.79774 179.014C9.05002 177.511 8.61543 175.872 8.52037 174.195C8.42531 172.519 8.67175 170.841 9.24473 169.263C9.81771 167.685 10.7053 166.239 11.8537 165.014L59.4095 117.905C63.5502 113.07 68.5339 112.301 72.1539 115.425C76.5425 119.318 76.0218 123.88 70.8894 130.252Z" fill="#FBBEAA"/>
    <path d="M57.0262 120.483C61.4148 116.045 69.6218 106.474 72.3988 104.144C75.1446 102.075 78.1445 100.367 81.3248 99.0608C83.7377 98.2526 86.2322 97.7122 88.7632 97.4492C90.5236 97.2261 91.2426 97.7468 91.2426 98.813C91.1984 99.4481 90.996 100.062 90.6539 100.599C90.3118 101.136 89.8408 101.579 89.2838 101.887H92.5319C93.6477 101.887 94.3667 102.78 93.846 104.218C93.3731 105.168 92.6971 106.003 91.8659 106.663C91.0347 107.322 90.0685 107.792 89.0359 108.037C89.0359 108.037 93.4245 108.458 94.5403 108.681C95.656 108.904 96.0031 109.326 96.0031 110.392C95.9935 111.128 95.7888 111.849 95.4099 112.481C95.031 113.112 94.4913 113.632 93.846 113.987C92.2665 114.628 90.5898 114.997 88.8871 115.078C88.8871 115.078 94.3171 116.442 95.4081 116.839C96.4991 117.235 96.623 117.954 96.0528 118.896C95.7278 119.56 95.2586 120.143 94.6794 120.602C94.1003 121.061 93.4259 121.385 92.7055 121.549C90.6476 122.095 89.2591 121.202 88.5152 121.326C86.917 121.841 85.352 122.454 83.8291 123.161C81.5421 125.438 78.7458 127.138 75.6717 128.12C73.3834 129.08 71.2844 130.441 69.4731 132.137C68.6293 132.929 67.6353 133.543 66.5499 133.944C65.4645 134.345 64.3098 134.524 63.1539 134.471C61.9981 134.418 60.8646 134.133 59.8206 133.634C58.7766 133.136 57.8433 132.432 57.0758 131.566C53.1087 127.351 53.7781 123.831 57.0262 120.483Z" fill="#FBBEAA"/>
    <path d="M88.7412 101.912C88.7483 101.953 88.7466 101.995 88.7364 102.036C88.7262 102.076 88.7077 102.114 88.682 102.146C88.6563 102.179 88.6239 102.206 88.5872 102.225C88.5504 102.245 88.51 102.256 88.4685 102.259L86.4354 102.458H85.4436C85.0965 102.458 84.7741 102.582 84.427 102.606C84.0603 102.716 83.7036 102.857 83.3609 103.028L82.2203 103.499C80.683 104.119 79.1457 104.689 78.0052 105.111C76.8647 105.532 76.0712 105.78 76.0712 105.78C76.0084 105.807 75.9379 105.809 75.8736 105.786C75.8093 105.763 75.756 105.716 75.7241 105.656C75.6779 105.596 75.6528 105.522 75.6528 105.445C75.6528 105.369 75.6779 105.295 75.7241 105.235L77.5837 104.268L79.5177 103.35C80.2119 103.028 80.9805 102.706 81.7492 102.408L82.9145 101.962C83.2893 101.792 83.6795 101.659 84.0798 101.565L85.27 101.441H86.2866H87.799H88.3693C88.4318 101.392 88.5113 101.369 88.5903 101.379C88.6694 101.388 88.7415 101.428 88.7909 101.491C88.8402 101.553 88.8627 101.633 88.8534 101.712C88.8441 101.791 88.8037 101.863 88.7412 101.912ZM88.2701 107.888H87.8238C87.4527 107.854 87.0792 107.854 86.7081 107.888L85.9394 108.012C85.6561 108.047 85.3748 108.097 85.0964 108.16L83.4104 108.706C82.2699 109.078 81.1541 109.549 80.3111 109.896C80.3111 109.896 80.0384 109.896 80.0631 110.02H79.7656L79.3193 110.144H79.0466H78.8978C78.8229 110.162 78.7579 110.208 78.7163 110.273C78.6747 110.337 78.6598 110.416 78.6747 110.491C78.6855 110.55 78.7157 110.605 78.7605 110.645C78.8054 110.685 78.8624 110.71 78.9226 110.714H80.1871H80.5838C81.4516 110.491 82.617 110.144 83.7575 109.747L85.4188 109.127L86.1874 108.929L86.8568 108.731C87.1992 108.629 87.5469 108.547 87.8982 108.483L88.3198 108.359C88.3572 108.347 88.3921 108.329 88.4224 108.304C88.4526 108.279 88.4777 108.248 88.4961 108.214C88.5146 108.179 88.526 108.142 88.5297 108.103C88.5335 108.064 88.5296 108.024 88.5181 107.987C88.4887 107.95 88.4505 107.922 88.4071 107.905C88.3637 107.887 88.3165 107.882 88.2701 107.888ZM88.2701 114.929H87.3527C87.1048 114.929 86.7825 114.929 86.4602 115.103L85.4436 115.425C84.8039 115.65 84.1822 115.924 83.584 116.243C83.3089 116.373 83.0437 116.522 82.7906 116.69C82.74 116.748 82.7121 116.823 82.7121 116.9C82.7121 116.978 82.74 117.053 82.7906 117.111C82.8618 117.187 82.9596 117.231 83.0633 117.235L83.9807 117.086C84.5014 116.962 85.1709 116.764 85.8403 116.541L86.8073 116.144L87.6503 115.822C87.931 115.697 88.2042 115.557 88.4685 115.4C88.5387 115.359 88.5904 115.292 88.6134 115.214C88.6364 115.136 88.6289 115.052 88.5925 114.979C88.519 114.932 88.4304 114.914 88.3445 114.929H88.2701Z" fill="#F18380"/>
    <path d="M34.2913 221.348C34.8367 214.48 42.2007 188.148 50.1101 173.147C50.1101 173.147 67.9239 172.232 79.0353 172.268C90.6284 172.306 108.08 173.147 108.08 173.147C113.237 184.826 119.113 210.339 120.824 215.843C121.857 219.082 121.982 222.542 121.187 225.846C120.391 229.151 118.705 232.175 116.311 234.588C110.435 241.258 95.2858 248.895 91.7897 248.895C76.7487 246.746 62.0059 242.869 47.8539 237.34C39.87 233.993 33.7706 228.241 34.2913 221.348Z" fill="#93929C"/>
    <path d="M57.8489 117.406L52.8232 122.045L66.354 138.282L70.2199 133.643L57.8489 117.406Z" fill="#6B6B6B"/>
    <path d="M92.4985 78.5382C81.3002 88.1367 70.1685 82.5376 66.5024 77.5383L50.5049 84.5373L54.5043 158.526L107.496 160.526L105.496 89.5365L92.4985 78.5382Z" fill="white"/>
    <path d="M105.654 78.0958C103.514 76.696 91.4154 75.5185 91.4154 75.5185V180.982C92.9516 182.479 93.2657 182.444 95.4718 182.194L95.5747 182.182C100.344 180.985 104.945 179.198 109.273 176.863C109.273 176.863 116.268 136.188 116.93 110.096C117.211 99.0114 112.358 91.9931 111.444 89.0673C109.92 84.1911 107.793 79.4956 105.654 78.0958Z" fill="#023783"/>
    <path d="M70.0304 182.157C71.0026 181.95 71.9234 181.551 72.7383 180.982L67.2991 74.4386C67.2991 74.4386 50.0992 74.4075 45.9199 76.2672C44.1826 77 42.4869 78.0629 41.423 79.6196C40.3592 81.1764 40.7904 89.6206 40.7389 91.5054C40.4789 95.0249 40.8031 172.984 40.7432 173.663C40.6832 174.343 41.2631 174.723 41.883 175.083C42.5029 175.443 62.0999 181.162 67.0791 182.182C68.0547 182.371 69.0583 182.363 70.0304 182.157Z" fill="#023783"/>
    <circle cx="94.884" cy="112.839" r="1.82859" fill="#90A2B7"/>
    <path d="M58.4053 119.963C62.5406 115.781 70.2737 106.762 72.8904 104.566C75.4777 102.617 78.3044 101.007 81.3011 99.7768C83.5747 99.0152 85.9251 98.506 88.31 98.2582C89.9688 98.048 90.6463 98.5386 90.6463 99.5432C90.6046 100.142 90.4139 100.72 90.0916 101.226C89.7692 101.732 89.3254 102.15 88.8006 102.44H91.8612C92.9125 102.44 93.59 103.281 93.0994 104.636C92.6538 105.532 92.0169 106.318 91.2336 106.94C90.4504 107.561 89.54 108.003 88.567 108.234C88.567 108.234 92.7022 108.631 93.7536 108.842C94.8049 109.052 95.132 109.449 95.132 110.454C95.1229 111.148 94.9301 111.827 94.573 112.422C94.216 113.017 93.7075 113.507 93.0994 113.841C91.6111 114.445 90.0312 114.793 88.4268 114.869C88.4268 114.869 93.5433 116.154 94.5713 116.528C95.5993 116.902 95.7161 117.579 95.1788 118.467C94.8725 119.093 94.4304 119.642 93.8847 120.074C93.339 120.507 92.7035 120.812 92.0247 120.967C90.0856 121.481 88.7773 120.64 88.0764 120.757C86.5704 121.242 85.0958 121.819 83.6608 122.486C81.5058 124.631 78.871 126.233 75.9743 127.158C73.8182 128.063 71.8404 129.345 70.1336 130.943C69.3386 131.689 68.4019 132.268 67.3792 132.646C66.3565 133.024 65.2684 133.193 64.1793 133.143C63.0902 133.092 62.0221 132.824 61.0384 132.354C60.0547 131.884 59.1752 131.222 58.4521 130.406C54.714 126.434 55.3448 123.117 58.4053 119.963Z" fill="#FBBEAA"/>
    <path d="M88.2866 102.463C88.2932 102.502 88.2917 102.542 88.2821 102.58C88.2724 102.618 88.255 102.653 88.2308 102.684C88.2066 102.715 88.1761 102.74 88.1415 102.759C88.1068 102.777 88.0688 102.788 88.0297 102.791L86.1139 102.977H85.1794C84.8523 102.977 84.5486 103.094 84.2215 103.118C83.8759 103.221 83.5399 103.354 83.2169 103.515L82.1421 103.959C80.6936 104.543 79.2451 105.08 78.1704 105.477C77.0957 105.874 76.3481 106.108 76.3481 106.108C76.2889 106.133 76.2224 106.135 76.1619 106.113C76.1013 106.092 76.051 106.048 76.021 105.991C75.9774 105.934 75.9539 105.864 75.9539 105.793C75.9539 105.721 75.9774 105.651 76.021 105.594L77.7732 104.683L79.5956 103.818C80.2497 103.515 80.974 103.211 81.6982 102.931L82.7963 102.51C83.1494 102.351 83.5172 102.225 83.8944 102.136L85.0158 102.02H85.9737H87.3988H87.9362C87.9951 101.973 88.07 101.952 88.1445 101.961C88.2189 101.969 88.2869 102.007 88.3334 102.066C88.3799 102.125 88.401 102.2 88.3923 102.275C88.3835 102.349 88.3455 102.417 88.2866 102.463ZM87.8427 108.094H87.4222C87.0725 108.063 86.7206 108.063 86.3708 108.094L85.6466 108.211C85.3796 108.244 85.1145 108.291 84.8523 108.351L83.2636 108.865C82.1889 109.215 81.1375 109.659 80.3432 109.986C80.3432 109.986 80.0862 109.986 80.1096 110.103H79.8292L79.4087 110.22H79.1517H79.0115C78.9409 110.237 78.8796 110.28 78.8404 110.341C78.8012 110.402 78.7872 110.476 78.8012 110.547C78.8114 110.603 78.8399 110.654 78.8822 110.692C78.9244 110.73 78.9782 110.753 79.0349 110.757H80.2264H80.6002C81.4179 110.547 82.5159 110.22 83.5906 109.846L85.156 109.262L85.8802 109.075L86.511 108.888C86.8336 108.793 87.1612 108.715 87.4923 108.655L87.8895 108.538C87.9248 108.527 87.9576 108.51 87.9862 108.486C88.0147 108.463 88.0383 108.434 88.0557 108.401C88.073 108.369 88.0838 108.333 88.0873 108.296C88.0909 108.26 88.0872 108.223 88.0764 108.187C88.0487 108.153 88.0127 108.126 87.9718 108.11C87.9309 108.094 87.8864 108.088 87.8427 108.094ZM87.8427 114.729H86.9783C86.7447 114.729 86.441 114.729 86.1373 114.893L85.1794 115.196C84.5766 115.409 83.9908 115.666 83.4271 115.967C83.168 116.089 82.9181 116.23 82.6795 116.388C82.6318 116.443 82.6056 116.513 82.6056 116.586C82.6056 116.659 82.6318 116.73 82.6795 116.785C82.7466 116.856 82.8388 116.898 82.9365 116.902L83.801 116.762C84.2916 116.645 84.9224 116.458 85.5532 116.248L86.4643 115.874L87.2586 115.57C87.5231 115.453 87.7806 115.32 88.0297 115.173C88.0958 115.134 88.1445 115.071 88.1662 114.997C88.1879 114.924 88.1808 114.844 88.1464 114.776C88.0772 114.731 87.9938 114.715 87.9128 114.729H87.8427Z" fill="#F18380"/>
    <path d="M69.8775 133.747L31.7018 180.459C26.9186 186.834 15.7415 190.338 8.91238 184.432C7.64951 183.325 6.62454 181.974 5.89965 180.459C5.17476 178.945 4.76503 177.299 4.69534 175.621C4.62566 173.944 4.89746 172.27 5.49425 170.7C6.09104 169.131 8.74462 163.844 9.91138 162.637L57.7478 117.711L69.8775 133.747Z" fill="#90A2B7"/>
    <path d="M57.5973 117.588L52.2964 122.351L65.9265 138.586L71.1152 133.003L57.5973 117.588Z" fill="#023783"/>
    <circle cx="94.8842" cy="125.639" r="1.82859" fill="#90A2B7"/>
    <circle cx="94.8842" cy="137.83" r="1.82859" fill="#90A2B7"/>
    <path d="M98.255 99.6575H98.7989V100.361H99.3792V99.6575H99.9231V101.58H99.3792V100.819H98.7988V101.58H98.255V99.6575H98.255ZM101.864 99.6575V101.58H101.338V100.113H100.994V100.665C100.994 100.913 100.976 101.217 100.831 101.388C100.686 101.578 100.414 101.636 100.106 101.578V101.101C100.395 101.159 100.469 101.044 100.469 100.663V99.6539H101.864V99.6575ZM102.318 99.6575H102.862L103.169 100.799L103.477 99.6575H104.021L104.275 101.58H103.768L103.642 100.551L103.35 101.58H102.988L102.699 100.551L102.572 101.58H102.065L102.318 99.6574L102.318 99.6575ZM104.475 99.6575H105.019V100.438L105.544 99.6575H106.143L105.454 100.609L106.161 101.58H105.509L105.02 100.799V101.58H104.476V99.6575H104.475H104.475ZM102.135 97.6006C98.872 97.6006 96.7134 98.8386 96.7134 100.665C96.7134 102.474 98.8704 103.729 102.135 103.729C105.416 103.729 107.556 102.472 107.556 100.665C107.556 98.8386 105.418 97.6006 102.135 97.6006ZM102.135 103.445C99.0699 103.445 97.0227 102.322 97.0227 100.665C97.0227 98.9904 99.0716 97.8852 102.135 97.8852C105.216 97.8852 107.249 98.9887 107.249 100.665C107.249 102.322 105.218 103.445 102.135 103.445ZM102.135 98.1523C99.2528 98.1523 97.3304 99.1616 97.3304 100.665C97.3304 102.168 99.2528 103.177 102.135 103.177C105.017 103.177 106.939 102.168 106.939 100.665C106.941 99.1616 105.019 98.1523 102.135 98.1523ZM102.135 103.122C99.2878 103.122 97.3853 102.132 97.3853 100.667C97.3853 99.2017 99.2894 98.2117 102.135 98.2117C104.98 98.2117 106.884 99.2017 106.884 100.667C106.886 102.132 104.982 103.122 102.135 103.122V103.122Z" fill="white"/>
    <path d="M54.5457 21.8182C53.0638 27.4879 52.1848 33.2982 51.9233 39.1525C51.6124 44.0251 50.0004 48.7252 47.2554 52.7629C44.6329 56.1459 41.1975 59.6599 42.4563 70.1497H109.617C109.617 70.1497 112.239 64.9048 109.092 55.9098C105.386 44.8053 102.657 33.398 100.937 21.8182H54.5457Z" fill="#BC664A"/>
    <path d="M67.396 52.7631V75.0275C67.396 75.0275 69.153 82.7113 80.9278 82.7113C83.2654 82.9084 85.5898 82.203 87.4236 80.7399C89.2574 79.2768 90.4613 77.167 90.7882 74.844V52.7631H67.396Z" fill="#FBBEAA"/>
    <path d="M90.7882 71.4086C83.3929 74.8964 72.6146 71.7757 67.396 62.0989V52.7631H90.7882V71.4086Z" fill="#F18380"/>
    <path d="M105.395 35.7432C105.507 41.0765 105.27 46.4114 104.687 51.7138C103.716 59.2664 101.041 67.6582 87.6408 67.6582C74.2401 67.6582 67.4481 61.6266 64.5634 51.7138C62.8326 45.7084 59.3185 36.8708 60.7608 26.6171C62.2032 16.3634 68.3659 9.7024 82.9204 9.30903C97.475 8.91566 106.994 15.4717 105.395 35.7432Z" fill="#FBBEAA"/>
    <path d="M77.0724 40.3065C77.1656 40.6927 77.3653 41.045 77.6488 41.3235C77.9322 41.6019 78.2881 41.7952 78.676 41.8815C79.0638 41.9678 79.468 41.9435 79.8427 41.8116C80.2175 41.6796 80.5478 41.4452 80.796 41.135C81.0442 40.8247 81.2004 40.4511 81.2469 40.0565C81.2933 39.6619 81.2282 39.2622 81.0589 38.9028C80.8896 38.5433 80.6228 38.2386 80.289 38.0232C79.9551 37.8078 79.5677 37.6903 79.1704 37.6841C78.8583 37.7132 78.5553 37.8049 78.2794 37.9536C78.0036 38.1024 77.7605 38.3052 77.5647 38.5499C77.3689 38.7947 77.2244 39.0763 77.1398 39.3781C77.0552 39.6799 77.0323 39.9957 77.0724 40.3065Z" fill="#403D4F"/>
    <path d="M96.5046 40.3065C96.5979 40.6927 96.7975 41.045 97.081 41.3235C97.3644 41.6019 97.7203 41.7952 98.1081 41.8815C98.4959 41.9678 98.9002 41.9435 99.2749 41.8116C99.6497 41.6796 99.98 41.4452 100.228 41.135C100.476 40.8247 100.633 40.4511 100.679 40.0565C100.726 39.6619 100.66 39.2622 100.491 38.9028C100.322 38.5433 100.055 38.2386 99.7212 38.0232C99.3874 37.8078 98.9998 37.6903 98.6025 37.6841C98.2918 37.7167 97.9907 37.8106 97.7166 37.9604C97.4425 38.1103 97.2008 38.3131 97.0057 38.557C96.8105 38.8009 96.6658 39.0812 96.5798 39.3815C96.4937 39.6818 96.4682 39.9963 96.5046 40.3065Z" fill="#403D4F"/>
    <path d="M83.3924 32.8852C83.3924 32.8852 83.3924 32.8852 83.1826 32.6754C82.9711 32.4698 82.7329 32.2934 82.4745 32.151C82.1436 31.9616 81.7915 31.812 81.4256 31.7051C80.5724 31.4709 79.6858 31.3822 78.8031 31.4429C78.432 31.462 78.0633 31.5147 77.7017 31.6002L76.679 31.8887C76.5101 31.9431 76.369 32.0612 76.2858 32.2178C76.2025 32.3745 76.1836 32.5575 76.2331 32.7279C76.2764 32.862 76.3602 32.9793 76.4729 33.0638C76.5856 33.1484 76.7217 33.1959 76.8625 33.1999H78.8294C79.1698 33.1741 79.5116 33.1741 79.8521 33.1999C80.1891 33.2309 80.5227 33.2924 80.8486 33.3835C81.1895 33.3835 81.4256 33.5671 81.6878 33.5933C81.8742 33.6717 82.0673 33.7332 82.2648 33.7769H82.5008C82.6644 33.848 82.8495 33.8522 83.0162 33.7885C83.1829 33.7247 83.318 33.5982 83.3924 33.436C83.4313 33.3448 83.4514 33.2466 83.4514 33.1475C83.4514 33.0483 83.4313 32.9502 83.3924 32.859V32.8852Z" fill="#403D4F"/>
    <path d="M96.1635 33.8815C96.1635 33.8815 96.1635 33.8815 96.3209 33.8815L96.7142 33.7241H97.0027C97.1064 33.7014 97.2137 33.7014 97.3174 33.7241C97.5492 33.6476 97.7856 33.5862 98.0254 33.5406C98.2694 33.5133 98.5157 33.5133 98.7597 33.5406H100.255C100.343 33.5406 100.43 33.5229 100.512 33.4883C100.593 33.4537 100.666 33.4031 100.728 33.3394C100.789 33.2757 100.837 33.2003 100.868 33.1177C100.899 33.0351 100.914 32.947 100.91 32.8587C100.905 32.7286 100.863 32.6027 100.789 32.4958C100.714 32.3889 100.611 32.3056 100.491 32.2556L99.6776 31.9671C99.3875 31.8803 99.0883 31.8275 98.786 31.8098C98.4294 31.7577 98.0673 31.7577 97.7107 31.8098C97.0261 31.8956 96.3755 32.1576 95.8226 32.5703L95.3243 33.0685C95.1932 33.2259 95.1932 33.2783 95.1932 33.3046V33.5406C95.1702 33.7207 95.2172 33.9027 95.3246 34.0492C95.4319 34.1956 95.5915 34.2952 95.7702 34.3273C95.9498 34.2298 96.0892 34.0719 96.1635 33.8815Z" fill="#403D4F"/>
    <path d="M90.7879 49.2492C91.23 49.2467 91.6669 49.1548 92.0725 48.979C92.4781 48.8033 92.844 48.5473 93.1481 48.2265C93.2592 48.1076 93.3445 47.967 93.3987 47.8136C93.4529 47.6601 93.4747 47.4972 93.4628 47.3349C93.4628 47.0464 93.017 43.4274 92.8596 42.09C92.8295 41.9606 92.7556 41.8456 92.6505 41.7644C92.5454 41.6832 92.4155 41.6407 92.2828 41.6442C92.1481 41.6638 92.0264 41.7349 91.9432 41.8425C91.86 41.9502 91.8219 42.0859 91.8369 42.2211C91.8369 42.4047 92.4138 47.1513 92.4663 47.466C92.2516 47.7037 91.9882 47.8923 91.6941 48.019C91.3999 48.1457 91.0819 48.2075 90.7617 48.2003C90.6272 48.207 90.5004 48.2652 90.4076 48.3629C90.3149 48.4605 90.2633 48.5901 90.2634 48.7248C90.2698 48.8618 90.3271 48.9915 90.4241 49.0885C90.5211 49.1856 90.6509 49.2429 90.7879 49.2492Z" fill="#F18380"/>
    <path d="M93.2004 54.4153C94.1707 54.6513 94.5378 56.1199 93.9347 57.8244C93.3397 58.9981 92.3664 59.9368 91.172 60.4888C89.9775 61.0408 88.6318 61.1739 87.3524 60.8665C86.654 60.8333 85.9692 60.6608 85.3384 60.3591C84.7076 60.0574 84.1435 59.6326 83.6793 59.1097C83.215 58.5868 82.86 57.9764 82.6351 57.3143C82.4102 56.6523 82.32 55.9519 82.3697 55.2544C82.3697 54.1268 83.1565 53.4712 84.6251 53.4712C87.5047 53.5481 90.373 53.8638 93.2004 54.4153Z" fill="#73102A"/>
    <path d="M82.3697 55.3856V55.1496C84.2892 54.706 86.3053 54.9987 88.0193 55.9699C89.7334 56.941 91.0208 58.52 91.627 60.3945C90.2779 61.0556 88.7603 61.2933 87.2737 61.0763C86.5749 61.0335 85.8917 60.8511 85.2645 60.5401C84.6372 60.229 84.0786 59.7955 83.6216 59.2652C83.1646 58.7348 82.8184 58.1183 82.6034 57.452C82.3884 56.7857 82.3089 56.0831 82.3697 55.3856Z" fill="#D65155"/>
    <path d="M92.3611 55.9888C89.0399 56.0403 85.7335 55.535 82.5793 54.494C82.7769 54.1367 83.0782 53.8477 83.4434 53.6652C83.8085 53.4826 84.2205 53.415 84.6248 53.4713C87.5045 53.5481 90.3728 53.8639 93.2002 54.4153C93.4713 54.5088 93.7086 54.6809 93.8814 54.9098C94.0542 55.1387 94.1548 55.4139 94.1705 55.7003C93.59 55.9063 92.9768 56.0041 92.3611 55.9888Z" fill="white"/>
    <path d="M77.7809 25.4376C77.7809 25.4376 75.1585 38.5498 64.0393 43.6373C64.0393 43.6373 52.7104 37.055 54.0216 24.4936C55.6476 9.02118 77.6236 -8.3918 99.4947 8.0771C101.619 7.73619 103.927 3.25182 103.245 0C104.139 0.561738 104.842 1.38019 105.264 2.34832C105.685 3.31644 105.804 4.38916 105.606 5.42616C105.407 6.46315 104.901 7.41615 104.152 8.1605C103.403 8.90486 102.447 9.40591 101.409 9.59812C104.979 10.0955 108.219 11.9527 110.452 14.7821C112.685 17.6115 113.739 21.1941 113.394 24.782C113.282 27.0441 112.34 29.1855 110.748 30.7967C109.156 32.4078 107.026 33.3755 104.766 33.5147H100.911C97.9285 32.1479 95.5169 29.7827 94.0924 26.8275C94.4634 29.0551 95.2365 31.1967 96.374 33.1476C96.5838 33.541 96.1117 34.2228 92.8861 33.541C89.183 32.2672 86.088 29.6584 84.2059 26.2244C84.9109 28.4761 85.8515 30.6473 87.0119 32.7018C87.0119 33.0951 85.3073 33.6721 82.7897 32.5182C81.3875 31.9085 80.1792 30.9261 79.2961 29.6777C78.413 28.4294 77.8889 26.9629 77.7809 25.4376Z" fill="#BC664A"/>
    <path d="M94.9838 35.7435C94.0397 35.7435 93.6726 37.4743 93.6726 39.1265C93.769 41.3643 94.4371 43.5402 95.6132 45.4465C96.0944 46.0218 96.7184 46.4603 97.4227 46.7181C98.1269 46.9759 98.8867 47.0438 99.6255 46.9151C100.525 47.0543 101.444 46.9949 102.319 46.7412C103.193 46.4875 104.001 46.0456 104.687 45.4465C106.13 43.6386 106.99 41.4344 107.152 39.1265C107.152 37.4743 106.654 35.7435 105.474 35.7435H94.9838Z" stroke="#403D4F" stroke-width="0.75" stroke-miterlimit="10"/>
    <path d="M87.0639 35.7435C88.3226 35.7435 88.8209 37.4743 88.8209 39.1265C88.649 41.4603 87.7294 43.6766 86.1985 45.4465C85.4737 46.0414 84.6333 46.4791 83.7304 46.7319C82.8275 46.9847 81.8819 47.0471 80.9536 46.9151C78.5966 47.2182 76.207 46.6996 74.1877 45.4465C72.3461 43.8216 71.1771 41.5679 70.9097 39.1265C70.9097 37.4743 71.5391 35.7435 73.1388 35.7435H87.0639Z" stroke="#403D4F" stroke-width="0.75" stroke-miterlimit="10"/>
    <path d="M93.8828 37.317C93.1292 36.7428 92.2079 36.4318 91.2604 36.4318C90.3129 36.4318 89.3916 36.7428 88.6379 37.317" stroke="#403D4F" stroke-width="0.75" stroke-miterlimit="10"/>
    <path d="M73.0871 35.7435H69.8877C69.2059 35.7435 68.4192 35.9009 68.4192 36.8187V38.2873C68.4192 38.6544 70.7532 39.3887 71.0416 40.2017" stroke="#403D4F" stroke-width="0.75" stroke-miterlimit="10"/>
    <path d="M61.4431 39.5726L68.4188 36.8191" stroke="#403D4F" stroke-width="0.75" stroke-miterlimit="10"/>
    <path d="M65.0348 45.5779C64.825 42.0113 63.8809 37.8417 59.5277 38.4711C54.4401 39.2578 53.9419 53.0256 64.7725 51.3734L65.0348 45.5779Z" fill="#FBBEAA"/>
    <path d="M59.1614 46.4958C59.2526 46.4971 59.3424 46.4733 59.4211 46.427C59.4997 46.3808 59.5641 46.3139 59.6072 46.2335C59.7225 46.0065 59.8938 45.8127 60.1049 45.6704C60.316 45.5282 60.5599 45.4422 60.8136 45.4206C61.1162 45.4239 61.4128 45.5053 61.6747 45.6569C61.9366 45.8085 62.1548 46.0252 62.3084 46.286C62.3711 46.3757 62.4615 46.4423 62.5657 46.4755C62.67 46.5086 62.7823 46.5066 62.8853 46.4696C62.9963 46.4388 63.0924 46.3685 63.1552 46.2719C63.2179 46.1753 63.2432 46.059 63.2262 45.9451C63.1808 44.842 62.8374 43.7719 62.2325 42.8484C61.6276 41.9249 60.7839 41.1826 59.7908 40.7002C59.7241 40.6606 59.6494 40.6362 59.5721 40.629C59.4948 40.6217 59.4169 40.6317 59.3439 40.6582C59.2709 40.6847 59.2048 40.727 59.1502 40.7822C59.0955 40.8374 59.0539 40.904 59.0281 40.9773C59.0024 41.0505 58.9932 41.1286 59.0013 41.2058C59.0094 41.283 59.0345 41.3574 59.0749 41.4237C59.1152 41.4901 59.1698 41.5466 59.2347 41.5893C59.2995 41.632 59.373 41.6597 59.4499 41.6705C60.0393 41.957 60.5642 42.3605 60.9925 42.8564C61.4208 43.3524 61.7436 43.9304 61.9413 44.5552C61.5753 44.3747 61.1684 44.2933 60.7611 44.3192C60.3372 44.3593 59.9295 44.502 59.5731 44.735C59.2167 44.9681 58.9224 45.2844 58.7156 45.6566C58.6582 45.7758 58.6479 45.9122 58.6868 46.0387C58.7257 46.1651 58.8109 46.2722 58.9254 46.3384L59.1614 46.4958Z" fill="#F18380"/>
</svg>
