<svg width="194" height="514" viewBox="0 0 194 514" fill="none" xmlns="http://www.w3.org/2000/svg">
<path d="M22.4592 70.3559C22.3569 68.1209 22.9552 65.9097 24.1706 64.0313C26.0417 61.8617 27.4435 59.3283 28.2878 56.5905C28.9373 54.0491 29.9747 51.623 31.3634 49.3977C32.3555 48.0335 33.8436 46.9175 33.8436 45.8757C33.8436 44.834 31.8594 42.825 29.0319 43.3955C27.8208 43.7728 26.708 44.4131 25.7732 45.2707C24.8385 46.1282 24.1049 47.1818 23.6249 48.356C23.354 47.6406 23.1951 46.8877 23.1537 46.1238L22.5337 30.9198C22.5242 30.5256 22.4359 30.1374 22.274 29.7779C22.112 29.4184 21.8796 29.0951 21.5906 28.8269C21.3016 28.5587 20.9619 28.3512 20.5913 28.2165C20.2208 28.0818 19.8271 28.0227 19.4333 28.0427C18.8065 28.0694 18.2037 28.292 17.7098 28.679C17.216 29.0661 16.8559 29.5982 16.6802 30.2005V29.506C16.5848 28.7669 16.2134 28.0913 15.6404 27.6147C15.0675 27.1382 14.3354 26.8959 13.5913 26.9367C12.8472 26.9776 12.1461 27.2984 11.6287 27.8347C11.1113 28.3711 10.816 29.0834 10.802 29.8285V31.9367C10.5536 31.2867 10.0799 30.7476 9.46725 30.4177C8.85462 30.0878 8.14384 29.989 7.46445 30.1393C6.78506 30.2896 6.1823 30.679 5.76601 31.2366C5.34973 31.7941 5.14764 32.4827 5.19659 33.1768V34.5161C4.92963 34.047 4.5318 33.6658 4.05168 33.4191C3.57156 33.1725 3.02996 33.071 2.49311 33.1272C1.75794 33.2205 1.08799 33.5963 0.625046 34.175C0.162102 34.7537 -0.0574875 35.4898 0.0128517 36.2275L1.22816 49.0505C2.0243 56.2799 3.51949 63.415 5.69267 70.3559C5.71894 71.5148 5.98743 72.6553 6.48084 73.7043C6.97426 74.7532 7.68168 75.6873 8.55767 76.4465C9.43365 77.2057 10.4588 77.7731 11.5672 78.1125C12.6757 78.4518 13.8428 78.5554 14.9936 78.4167C16.0351 78.4515 17.0719 78.2619 18.0336 77.8607C18.9954 77.4595 19.8596 76.8562 20.5677 76.0916C21.2758 75.3271 21.8112 74.4192 22.1376 73.4296C22.4639 72.4399 22.5736 71.3917 22.4592 70.3559Z" fill="#FBBEAA"/>
<path d="M106.044 475.134C106.044 472.746 105.095 470.456 103.407 468.768C101.718 467.079 99.4283 466.131 97.0404 466.131C94.6526 466.131 92.3625 467.079 90.6741 468.768C88.9856 470.456 88.0371 472.746 88.0371 475.134V494.703H106.044V475.134Z" fill="#FBBEAA"/>
<path d="M88.6816 478.78C86.4741 478.78 86.0773 479.748 85.4324 481.012C84.3865 484.383 82.5982 487.477 80.1991 490.065C76.6174 493.116 72.7747 495.847 68.7155 498.225V508.593H108.797C108.797 508.593 108.524 500.408 108.325 494.629C108.127 488.85 107.556 481.806 107.606 481.062C107.656 480.318 107.606 478.78 106.242 478.78H88.6816Z" fill="#302D3B"/>
<path d="M103.812 495.199C103.817 496.472 103.443 497.717 102.739 498.777C102.035 499.838 101.032 500.665 99.8577 501.154C98.6828 501.643 97.3892 501.773 96.1407 501.526C94.8923 501.279 93.7455 500.666 92.8456 499.766C91.9457 498.866 91.3334 497.72 91.0863 496.471C90.8392 495.223 90.9685 493.929 91.4578 492.754C91.9471 491.579 92.7743 490.576 93.8345 489.872C94.8947 489.168 96.14 488.795 97.4127 488.8C99.1078 488.807 100.732 489.483 101.93 490.682C103.129 491.88 103.805 493.504 103.812 495.199Z" fill="#93929C"/>
<path d="M97.4128 491.429L98.8762 493.587L101.381 494.306L99.7939 496.365L99.8683 498.969L97.4128 498.076L94.9573 498.969L95.0566 496.365L93.4444 494.306L95.9495 493.587L97.4128 491.429Z" fill="white"/>
<path d="M68.9886 498.052C68.9886 498.052 63.3089 501.053 61.1758 502.516C60.1883 503.185 59.3862 504.094 58.8441 505.156C58.302 506.219 58.0376 507.401 58.0755 508.593H73.6515C73.6515 508.593 73.3291 500.979 68.9886 498.052Z" fill="white"/>
<path d="M108.797 508.593V512.884C108.797 513.603 108.152 514 107.06 514H59.7866C58.72 514 58.0752 513.603 58.0752 512.884V508.593H108.797Z" fill="white"/>
<path d="M73.6519 495.15C73.5145 494.939 73.3004 494.79 73.0549 494.734C72.8095 494.679 72.5521 494.721 72.3373 494.852C72.2304 494.918 72.1377 495.005 72.0646 495.107C71.9915 495.209 71.9397 495.324 71.9119 495.447C71.8842 495.569 71.8812 495.696 71.9032 495.82C71.9251 495.943 71.9715 496.061 72.0397 496.167L73.7014 498.845C73.7815 498.984 73.8975 499.099 74.0371 499.177C74.1768 499.256 74.335 499.296 74.4951 499.292C74.6788 499.289 74.8585 499.238 75.016 499.143C75.1229 499.077 75.2156 498.991 75.2887 498.889C75.3617 498.787 75.4137 498.671 75.4414 498.548C75.4692 498.426 75.4721 498.299 75.4501 498.176C75.4282 498.052 75.3818 497.934 75.3137 497.829L73.6519 495.15Z" fill="white"/>
<path d="M76.5783 493.091C76.4969 492.997 76.3976 492.919 76.2863 492.863C76.1749 492.807 76.0535 492.773 75.9292 492.764C75.8048 492.755 75.6799 492.77 75.5614 492.809C75.443 492.848 75.3335 492.91 75.239 492.992C75.1445 493.073 75.067 493.172 75.0109 493.284C74.9548 493.395 74.9211 493.517 74.9119 493.641C74.9027 493.765 74.9181 493.89 74.9572 494.009C74.9963 494.127 75.0583 494.237 75.1398 494.331L77.0744 496.613C77.1636 496.718 77.2737 496.802 77.3975 496.862C77.5213 496.922 77.6563 496.955 77.7937 496.96C77.9733 496.957 78.1485 496.904 78.2995 496.806C78.4505 496.709 78.5715 496.571 78.6487 496.409C78.726 496.247 78.7565 496.066 78.7369 495.888C78.7173 495.709 78.6483 495.539 78.5377 495.398L76.5783 493.091Z" fill="white"/>
<path d="M79.331 490.785C79.1337 490.658 78.8969 490.607 78.6647 490.641C78.4325 490.676 78.2208 490.793 78.069 490.973C77.9173 491.152 77.8358 491.38 77.8398 491.614C77.8439 491.849 77.9331 492.074 78.0909 492.248L80.2983 494.158C80.4714 494.305 80.6915 494.384 80.9184 494.381C81.0549 494.386 81.1908 494.36 81.3155 494.304C81.4402 494.248 81.5504 494.164 81.6377 494.059C81.7293 493.973 81.8023 493.869 81.8522 493.754C81.9022 493.639 81.9279 493.515 81.9279 493.389C81.9279 493.264 81.9022 493.139 81.8522 493.024C81.8023 492.909 81.7293 492.805 81.6377 492.719L79.331 490.785Z" fill="white"/>
<path d="M84.168 489.644L81.6877 488.106C81.47 487.977 81.2104 487.939 80.9647 487.999C80.719 488.059 80.5066 488.213 80.3732 488.428C80.3061 488.535 80.2611 488.655 80.241 488.779C80.2209 488.904 80.2261 489.031 80.2562 489.154C80.2862 489.276 80.3406 489.392 80.4161 489.493C80.4916 489.594 80.5867 489.679 80.6956 489.743L83.1759 491.281C83.3229 491.378 83.4955 491.43 83.672 491.429C83.8336 491.426 83.9914 491.38 84.1304 491.298C84.2694 491.215 84.3848 491.098 84.4656 490.958C84.5967 490.743 84.639 490.486 84.5834 490.241C84.5279 489.995 84.3788 489.781 84.168 489.644Z" fill="white"/>
<path d="M86.2516 486.444L83.4738 485.279C83.2369 485.18 82.9706 485.18 82.7334 485.277C82.4962 485.375 82.3075 485.563 82.2089 485.8C82.1605 485.915 82.1355 486.039 82.1355 486.164C82.1356 486.29 82.1606 486.414 82.2091 486.529C82.2576 486.644 82.3286 486.749 82.418 486.837C82.5074 486.924 82.6133 486.993 82.7297 487.04L85.5076 488.205H85.8796C86.0936 488.194 86.2977 488.112 86.4599 487.972C86.6221 487.832 86.7332 487.642 86.7758 487.432C86.8184 487.222 86.79 487.003 86.6951 486.811C86.6002 486.619 86.4443 486.464 86.2516 486.37V486.444Z" fill="white"/>
<path d="M87.9877 482.873L84.9122 482.104C84.6688 482.044 84.4119 482.084 84.1979 482.215C83.9839 482.345 83.8304 482.555 83.7712 482.798C83.712 483.042 83.7519 483.298 83.8822 483.512C84.0124 483.726 84.2223 483.88 84.4657 483.939L87.5164 484.733H87.7397C87.9533 484.73 88.1604 484.659 88.3302 484.529C88.5 484.4 88.6234 484.219 88.6822 484.013C88.7353 483.77 88.6928 483.516 88.5635 483.304C88.4342 483.091 88.2279 482.937 87.9877 482.873Z" fill="white"/>
<path d="M119.214 349.98C118.941 337.976 110.856 332.172 98.876 332.47C86.8964 332.767 78.2651 339.043 78.5379 351.022L88.0372 476.102H106.044L119.214 349.98Z" fill="#FBBEAA"/>
<path d="M181.94 475.134C181.94 472.746 180.991 470.456 179.303 468.768C177.615 467.079 175.324 466.131 172.937 466.131C170.549 466.131 168.259 467.079 166.57 468.768C164.882 470.456 163.933 472.746 163.933 475.134V494.703H181.94V475.134Z" fill="#FBBEAA"/>
<path d="M164.603 478.78C162.37 478.78 161.974 479.748 161.353 481.012C160.296 484.384 158.499 487.476 156.095 490.065C152.518 493.122 148.675 495.853 144.612 498.225V508.593H184.693C184.693 508.593 184.42 500.408 184.221 494.629C184.023 488.85 183.477 481.806 183.502 481.062C183.527 480.318 183.502 478.78 182.163 478.78H164.603Z" fill="#302D3B"/>
<path d="M179.732 495.199C179.737 496.471 179.365 497.715 178.662 498.775C177.959 499.834 176.957 500.662 175.784 501.152C174.61 501.642 173.318 501.772 172.07 501.527C170.823 501.282 169.676 500.672 168.775 499.775C167.874 498.878 167.26 497.733 167.01 496.486C166.76 495.24 166.886 493.947 167.371 492.771C167.857 491.596 168.68 490.591 169.737 489.884C170.794 489.177 172.037 488.8 173.308 488.8C175.008 488.8 176.638 489.473 177.842 490.673C179.046 491.872 179.726 493.5 179.732 495.199Z" fill="#93929C"/>
<path d="M173.333 491.429L174.797 493.587L177.302 494.306L175.689 496.365L175.764 498.969L173.333 498.076L170.878 498.969L170.952 496.365L169.34 494.306L171.87 493.587L173.333 491.429Z" fill="white"/>
<path d="M144.91 498.052C144.91 498.052 139.205 501.053 137.097 502.516C136.104 503.18 135.298 504.087 134.756 505.151C134.213 506.215 133.952 507.4 133.997 508.593H149.647C149.647 508.593 149.225 500.979 144.91 498.052Z" fill="white"/>
<path d="M184.693 508.593V512.884C184.693 513.603 184.073 514 182.981 514H135.658C134.567 514 133.947 513.603 133.947 512.884V508.593H184.693Z" fill="white"/>
<path d="M149.548 495.15C149.413 494.936 149.199 494.785 148.952 494.729C148.706 494.673 148.447 494.717 148.233 494.852C148.019 494.987 147.868 495.201 147.812 495.448C147.756 495.694 147.801 495.953 147.935 496.167L149.597 498.846C149.683 498.985 149.804 499.099 149.947 499.177C150.091 499.255 150.252 499.295 150.416 499.292C150.592 499.292 150.765 499.241 150.912 499.143C151.019 499.077 151.111 498.991 151.185 498.889C151.258 498.787 151.31 498.671 151.337 498.549C151.365 498.426 151.368 498.299 151.346 498.176C151.324 498.052 151.278 497.934 151.209 497.829L149.548 495.15Z" fill="white"/>
<path d="M152.5 493.091C152.336 492.901 152.105 492.781 151.855 492.758C151.605 492.735 151.356 492.81 151.16 492.967C150.968 493.135 150.848 493.37 150.825 493.624C150.802 493.878 150.878 494.132 151.036 494.331L152.996 496.613C153.082 496.721 153.191 496.809 153.315 496.869C153.44 496.929 153.577 496.96 153.715 496.96C153.897 496.962 154.075 496.911 154.229 496.814C154.382 496.717 154.504 496.577 154.58 496.412C154.657 496.247 154.683 496.063 154.657 495.883C154.631 495.703 154.554 495.535 154.434 495.398L152.5 493.091Z" fill="white"/>
<path d="M155.227 490.785C155.03 490.658 154.793 490.607 154.561 490.641C154.329 490.676 154.117 490.793 153.965 490.973C153.814 491.152 153.732 491.38 153.736 491.614C153.74 491.849 153.829 492.074 153.987 492.248L156.219 494.158C156.392 494.305 156.613 494.384 156.839 494.381C156.976 494.384 157.111 494.357 157.235 494.301C157.36 494.245 157.47 494.163 157.559 494.059C157.647 493.971 157.717 493.867 157.765 493.752C157.813 493.637 157.838 493.514 157.838 493.389C157.838 493.265 157.813 493.141 157.765 493.026C157.717 492.911 157.647 492.807 157.559 492.719L155.227 490.785Z" fill="white"/>
<path d="M160.064 489.644L157.584 488.106C157.37 488.016 157.13 488.005 156.91 488.077C156.689 488.148 156.501 488.297 156.38 488.496C156.26 488.694 156.215 488.93 156.254 489.159C156.293 489.388 156.413 489.595 156.592 489.743L159.072 491.281C159.219 491.378 159.392 491.43 159.568 491.429C159.733 491.427 159.895 491.383 160.039 491.301C160.182 491.218 160.302 491.1 160.386 490.958C160.515 490.74 160.554 490.481 160.493 490.235C160.433 489.989 160.279 489.777 160.064 489.644Z" fill="white"/>
<path d="M22.7569 72.0179L32.6779 134.297C34.3149 142.11 31.785 149.179 22.7569 150.419C21.0904 150.636 19.3971 150.512 17.78 150.055C16.1628 149.597 14.6555 148.816 13.3495 147.758C12.0436 146.701 10.9663 145.388 10.183 143.902C9.39969 142.415 8.92679 140.784 8.79298 139.109L5.76706 72.1419C4.97338 65.8172 7.72642 61.6008 12.5381 61.08C18.4411 60.4351 21.5663 63.9323 22.7569 72.0179Z" fill="#FBBEAA"/>
<path d="M162.147 486.445L159.369 485.279C159.254 485.23 159.13 485.206 159.005 485.206C158.879 485.206 158.755 485.231 158.64 485.279C158.524 485.328 158.42 485.399 158.332 485.488C158.244 485.577 158.175 485.683 158.129 485.8C158.036 486.031 158.036 486.288 158.129 486.519C158.221 486.75 158.399 486.937 158.625 487.04L161.428 488.206C161.542 488.231 161.661 488.231 161.775 488.206C161.966 488.206 162.153 488.149 162.312 488.043C162.471 487.937 162.595 487.787 162.668 487.61C162.743 487.386 162.731 487.142 162.635 486.926C162.539 486.71 162.364 486.538 162.147 486.445Z" fill="white"/>
<path d="M163.884 482.873L160.833 482.104C160.586 482.044 160.326 482.083 160.108 482.212C159.89 482.342 159.732 482.553 159.667 482.798C159.638 482.919 159.632 483.044 159.651 483.167C159.67 483.289 159.713 483.407 159.778 483.513C159.842 483.619 159.927 483.711 160.027 483.784C160.127 483.858 160.241 483.91 160.362 483.939L163.412 484.733H163.66C163.884 484.716 164.095 484.622 164.256 484.466C164.418 484.311 164.521 484.105 164.547 483.882C164.574 483.66 164.522 483.435 164.401 483.246C164.28 483.058 164.097 482.917 163.884 482.848V482.873Z" fill="white"/>
<path d="M172.093 349.608C170.875 343.978 167.47 339.062 162.629 335.942C157.787 332.821 151.904 331.75 146.273 332.966C134.542 335.446 128.217 347.004 130.747 358.736L163.933 478.16H182.163L172.093 349.608Z" fill="#FBBEAA"/>
<path d="M120.777 349.2C120.71 346.35 120.083 343.541 118.93 340.933C117.778 338.326 116.124 335.971 114.061 334.003C111.999 332.035 109.569 330.492 106.91 329.463C104.252 328.434 101.416 327.939 98.5664 328.006C95.7164 328.073 92.9074 328.7 90.2999 329.853C87.6924 331.005 85.3374 332.659 83.3694 334.722C81.4014 336.784 79.8589 339.214 78.8299 341.873C77.801 344.531 77.3057 347.367 77.3725 350.217L71.7413 478.794H120.776L120.777 349.2Z" fill="#93929C"/>
<path d="M172.09 346.546C170.744 341.051 167.308 336.298 162.512 333.297C157.716 330.296 151.939 329.284 146.409 330.476C140.879 331.668 136.032 334.97 132.898 339.68C129.764 344.39 128.591 350.137 129.628 355.698L142.823 478.294C142.823 478.294 174.421 480.179 193.246 478.294L172.09 346.546Z" fill="#93929C"/>
<path d="M14.6958 127.402L85.9289 73.2827C94.2377 67.9749 99.8927 70.8024 104.308 76.4822C106.324 79.2313 107.259 82.6258 106.934 86.0195C106.609 89.4132 105.048 92.5689 102.547 94.8858L31.4872 147.244C28.9831 149.359 25.7594 150.426 22.488 150.223C19.2166 150.019 16.1499 148.561 13.927 146.153L13.6045 145.806C12.4247 144.547 11.5137 143.061 10.9271 141.439C10.3405 139.816 10.0906 138.091 10.1927 136.369C10.2948 134.647 10.7468 132.964 11.521 131.422C12.2952 129.88 13.3755 128.512 14.6958 127.402Z" fill="#FBBEAA"/>
<path d="M102.547 94.8611C103.204 94.295 103.803 93.6634 104.333 92.9761C104.801 91.2108 104.861 89.3621 104.509 87.5701C104.156 85.7781 103.401 84.0899 102.299 82.6334C98.5535 76.8544 90.6911 72.3155 87.1939 73.1836L83.7216 74.9446L44.4094 104.708C47.8888 112.885 52.5886 120.486 58.3485 127.253L102.547 94.8611Z" fill="#F18380"/>
<path d="M91.8072 69.4133L30.1638 110.988C30.4231 113.115 23.5896 69.4133 23.5896 69.4133L4.25362 71.9297C4.25362 71.9297 4.64714 116.058 7.53371 139.478C8.68607 148.828 16.3965 152.397 25.6002 150.389C30.1444 149.397 34.4223 147.533 38.2292 144.861C54.5877 133.379 100.481 101.038 104.233 96.9691C110.707 89.9499 110.707 84.6918 106.986 78.9128C103.266 73.1338 95.3044 68.5452 91.8072 69.4133Z" fill="#002B80"/>
<path d="M120.777 349.906L133.5 216.691C133.5 201.983 118.346 185.961 95.9989 189.408C75.8096 192.558 69.6585 212.847 71.3203 232.069C72.9821 251.291 77.4714 350.849 77.4714 350.849C77.5382 353.699 78.1656 356.507 79.318 359.115C80.4703 361.722 82.1249 364.077 84.1873 366.045C86.2498 368.013 88.6797 369.556 91.3383 370.585C93.9969 371.614 96.8321 372.109 99.6821 372.042C102.532 371.976 105.341 371.348 107.949 370.196C110.556 369.043 112.911 367.389 114.879 365.326C116.847 363.264 118.39 360.834 119.418 358.175C120.447 355.517 120.943 352.682 120.876 349.832L120.777 349.906Z" fill="#93929C"/>
<path d="M172.093 347.252L159.443 214.062C156.765 199.602 138.783 186.779 117.477 194.369C98.2554 201.239 96.0232 222.321 101.281 240.899C106.539 259.476 129.631 356.404 129.631 356.404C130.977 361.899 134.413 366.652 139.209 369.653C144.004 372.654 149.781 373.666 155.312 372.474C160.842 371.282 165.689 367.98 168.823 363.27C171.956 358.56 173.13 352.813 172.093 347.252Z" fill="#93929C"/>
<path d="M101.282 240.899C106.515 259.476 129.631 356.404 129.631 356.404" stroke="#5E5D63" stroke-width="0.75" stroke-miterlimit="10"/>
<path d="M105.002 67.3049C105.002 67.3049 94.0394 69.2147 91.9064 69.7852C90.6476 70.0806 89.4844 70.6907 88.5257 71.5583C87.567 72.4259 86.8442 73.5226 86.425 74.7457C85.0609 77.9949 78.0418 99.2755 77.3969 101.582C76.9609 104.123 77.3704 106.737 78.5627 109.023C79.5796 111.801 84.8377 124.45 84.8377 124.45L85.6313 165.201L115.244 169.898L143.62 165.201C143.62 165.201 153.541 89.4041 154.037 84.7164C154.533 80.0287 152.202 70.9758 146.596 69.8348C140.991 68.6939 125.613 67.3546 125.613 67.3546L105.002 67.3049Z" fill="#FBBEAA"/>
<path d="M84.2409 148.816V163.142C103.636 164.928 134.542 163.663 146.149 163.142C146.695 159.05 147.266 152.105 147.861 147.492C132.062 147.889 105.968 149.361 84.2409 148.816Z" fill="white"/>
<path d="M186.528 161.555L154.756 77.9453C150.515 69.0164 144.24 68.4211 137.394 70.9014C134.228 72.1644 131.638 74.5495 130.119 77.6012C128.6 80.6529 128.258 84.1572 129.16 87.4448L161.874 169.566C162.866 172.69 165.029 175.309 167.911 176.872C170.792 178.435 174.166 178.821 177.326 177.949L177.798 177.825C179.464 177.371 181.021 176.581 182.373 175.505C183.724 174.429 184.843 173.089 185.66 171.566C186.476 170.044 186.975 168.371 187.124 166.65C187.273 164.929 187.071 163.195 186.528 161.555Z" fill="#FBBEAA"/>
<path d="M173.359 126.881L154.757 77.9452C154.258 76.8721 153.669 75.8432 152.996 74.8698C150.717 73.4431 148.108 72.6295 145.423 72.5079C142.737 72.3862 140.066 72.9606 137.668 74.1753C134.883 75.5305 132.644 77.7961 131.323 80.5971C130.001 83.3981 129.676 86.5665 130.4 89.5777C130.4 89.8753 130.574 90.4458 130.723 91.2147L149.92 139.456C158.305 136.432 166.202 132.195 173.359 126.881Z" fill="#F18380"/>
<path d="M153.02 73.4811L187.246 161.5C158.242 152.219 154.746 158.5 146.953 132.645C146.953 132.645 128.763 89.95 128.069 86.1304C127.344 83.1192 127.669 79.9509 128.991 77.1499C130.312 74.3489 132.551 72.0832 135.336 70.728C143.099 66.7596 150.837 70.356 153.02 73.4811Z" fill="#003399"/>
<path d="M126.581 7.90263C127.895 4.7279 134.518 3.31417 138.238 5.05035C141.958 6.78653 145.679 11.3502 146.224 23.7515C146.77 36.1528 145.753 45.6273 147.985 51.8776C145.922 51.6167 143.981 50.7541 142.405 49.3973C142.405 51.0343 142.157 55.0027 142.157 55.0027C140.956 54.9052 139.809 54.4655 138.85 53.7357C137.892 53.006 137.163 52.0169 136.75 50.8855C136.077 52.3169 135.649 53.8513 135.485 55.4244C133.302 54.2835 126.581 52.2993 126.581 40.5429V7.90263Z" fill="#1D1B24"/>
<path d="M83.3495 49.1002C84.0191 40.0968 86.673 25.2152 86.673 25.2152L93.0224 24.868C93.0224 24.868 94.709 51.6796 95.1803 57.533C95.6515 63.3864 97.3381 64.9738 97.3381 64.9738C97.3381 64.9738 89.2773 63.8577 88.0124 56.2929C87.8269 57.774 87.7275 59.2647 87.7147 60.7574C87.7147 60.7574 82.655 58.1035 83.3495 49.1002Z" fill="#302D3B"/>
<path d="M126.307 46.8185V67.8759C126.307 67.8759 124.646 75.1182 113.509 75.1182C111.298 75.3047 109.1 74.6375 107.365 73.2537C105.631 71.8699 104.492 69.8746 104.183 67.6775V46.8432L126.307 46.8185Z" fill="#FBBEAA"/>
<path d="M104.183 64.3539C111.178 67.6774 121.372 64.7011 126.307 55.5738V46.8185H104.183V64.3539Z" fill="#F18380"/>
<path d="M90.3691 30.6718C90.2638 35.7083 90.4958 40.7462 91.0635 45.7517C91.9564 52.9197 94.4863 60.8566 107.16 60.8566C119.835 60.8566 126.258 55.1271 128.987 45.7517C130.624 40.0967 133.947 31.7135 132.583 22.0404C131.219 12.3674 125.39 6.04283 111.625 5.67079C97.8595 5.29876 88.9305 11.4498 90.3691 30.6718Z" fill="#FBBEAA"/>
<path d="M117.18 34.9622C117.096 35.3349 116.909 35.6764 116.64 35.9477C116.371 36.219 116.031 36.4089 115.659 36.4959C115.287 36.5829 114.898 36.5634 114.537 36.4395C114.175 36.3157 113.856 36.0926 113.616 35.7957C113.375 35.4988 113.223 35.1403 113.177 34.761C113.131 34.3818 113.193 33.9972 113.355 33.6514C113.517 33.3055 113.774 33.0124 114.095 32.8056C114.416 32.5988 114.789 32.4866 115.171 32.4819C115.467 32.5097 115.755 32.5963 116.017 32.7366C116.279 32.877 116.51 33.0684 116.698 33.2994C116.885 33.5304 117.024 33.7965 117.107 34.0821C117.19 34.3676 117.215 34.6669 117.18 34.9622Z" fill="#403D4F"/>
<path d="M98.727 34.9622C98.6429 35.336 98.455 35.6783 98.1848 35.95C97.9146 36.2216 97.5733 36.4114 97.2 36.4975C96.8267 36.5836 96.4366 36.5625 96.0747 36.4367C95.7129 36.3108 95.394 36.0854 95.1546 35.7862C94.9153 35.4871 94.7654 35.1264 94.7221 34.7458C94.6787 34.3651 94.7437 33.98 94.9097 33.6347C95.0757 33.2894 95.3358 32.998 95.6601 32.7941C95.9844 32.5901 96.3597 32.4819 96.7428 32.4819C97.0366 32.5127 97.3214 32.6016 97.5807 32.7433C97.84 32.885 98.0685 33.0768 98.2531 33.3075C98.4376 33.5382 98.5745 33.8033 98.6559 34.0874C98.7373 34.3714 98.7614 34.6687 98.727 34.9622Z" fill="#403D4F"/>
<path d="M111.178 27.9436L111.377 27.7204C111.584 27.5426 111.809 27.3848 112.046 27.2492C112.354 27.0599 112.688 26.9178 113.038 26.8276C113.428 26.6809 113.838 26.5971 114.254 26.5795C114.649 26.53 115.049 26.53 115.444 26.5795C115.791 26.5493 116.139 26.5493 116.486 26.5795L117.453 26.8523C117.587 26.9059 117.699 27.0028 117.771 27.1275C117.844 27.2522 117.872 27.3976 117.852 27.5404C117.832 27.6832 117.765 27.8151 117.661 27.9152C117.557 28.0152 117.423 28.0777 117.28 28.0924H116.287C115.999 28.055 115.708 28.055 115.419 28.0924C115.097 28.0678 114.774 28.0678 114.452 28.0924C114.135 28.1339 113.821 28.1918 113.51 28.2661C113.212 28.2661 112.964 28.4645 112.716 28.4893C112.541 28.5669 112.358 28.6251 112.17 28.6629H111.972C111.813 28.7313 111.635 28.736 111.473 28.6759C111.311 28.6159 111.179 28.4957 111.104 28.3405C111.067 28.2542 111.048 28.1615 111.048 28.0677C111.048 27.9739 111.067 27.8811 111.104 27.7948L111.178 27.9436Z" fill="#403D4F"/>
<path d="M99.1243 28.8856H98.9508L98.5787 28.7368H98.3059C98.2135 28.6806 98.1132 28.6388 98.0083 28.6128C97.7975 28.5405 97.582 28.4825 97.3634 28.4392C97.1249 28.4042 96.8826 28.4042 96.6441 28.4392C96.4381 28.4154 96.23 28.4154 96.024 28.4392H95.2304C95.0637 28.4328 94.906 28.3619 94.7903 28.2417C94.6747 28.1214 94.6102 27.9611 94.6103 27.7943C94.6084 27.6696 94.6456 27.5475 94.7168 27.4451C94.788 27.3428 94.8896 27.2653 95.0071 27.2238L95.7761 26.951C96.0475 26.8569 96.3321 26.8067 96.6193 26.8022C96.9555 26.7407 97.3001 26.7407 97.6363 26.8022C98.2864 26.8727 98.9045 27.1217 99.422 27.5215C99.5973 27.6593 99.7554 27.8175 99.8932 27.9927C100.017 28.1416 100.017 28.1911 100.017 28.1911V28.4392C100.039 28.6066 99.9934 28.7757 99.8913 28.9102C99.7893 29.0447 99.6386 29.1339 99.4716 29.1585C99.3973 29.1412 99.3276 29.1078 99.2676 29.0607C99.2076 29.0135 99.1587 28.9537 99.1243 28.8856Z" fill="#403D4F"/>
<path d="M159.444 213.418C158.898 206.547 149.158 175.006 141.246 160C141.246 160 124.361 153.464 113.246 153.5C101.649 153.538 86.2463 162.5 86.2463 162.5C81.0873 174.182 74.5941 202.405 72.8828 207.911C71.8496 211.151 71.7241 214.612 72.52 217.917C73.3158 221.223 75.0025 224.248 77.3968 226.662C83.2751 233.334 98.4294 240.973 101.927 240.973C116.972 238.824 131.72 234.946 145.877 229.415C153.863 226.067 159.965 220.313 159.444 213.418Z" fill="#93929C"/>
<path d="M104.184 43.3951C103.765 43.3987 103.35 43.3144 102.965 43.1478C102.581 42.9812 102.236 42.7359 101.952 42.4278C101.847 42.32 101.767 42.1914 101.715 42.0503C101.664 41.9093 101.643 41.759 101.654 41.6094C101.654 41.3365 102.076 37.9138 102.224 36.6488C102.243 36.5215 102.31 36.4063 102.412 36.3277C102.514 36.249 102.642 36.2129 102.77 36.2272C102.893 36.2455 103.004 36.3092 103.082 36.4056C103.16 36.502 103.199 36.6242 103.192 36.7481C103.192 36.9465 102.646 41.4358 102.597 41.7086C102.8 41.9334 103.049 42.1117 103.327 42.2315C103.605 42.3514 103.906 42.4099 104.209 42.4031C104.269 42.403 104.33 42.4153 104.385 42.4392C104.441 42.4632 104.492 42.4983 104.533 42.5424C104.575 42.5865 104.608 42.6388 104.629 42.6958C104.649 42.7529 104.658 42.8136 104.655 42.8743C104.667 42.941 104.663 43.0094 104.644 43.0744C104.625 43.1393 104.592 43.1991 104.546 43.2493C104.501 43.2995 104.445 43.3387 104.382 43.364C104.319 43.3892 104.251 43.3999 104.184 43.3951Z" fill="#F18380"/>
<path d="M120.48 1.57829C106.739 -2.71256 96.9667 2.66964 93.8664 6.73727C92.609 6.32416 91.4977 5.55667 90.6661 4.52708C89.8345 3.49748 89.3181 2.24961 89.1787 0.933471C88.4614 1.32708 87.8883 1.93927 87.543 2.68104C87.1976 3.4228 87.0978 4.25541 87.2583 5.05775C87.4187 5.86009 87.831 6.59028 88.4351 7.14214C89.0392 7.69401 89.8037 8.03877 90.6172 8.12621C85.6567 9.76318 82.7549 14.7485 82.9037 20.9244C83.1123 23.1822 83.909 25.346 85.2146 27.1999C86.5202 29.0538 88.2889 30.533 90.3444 31.4902C91.788 27.1604 93.9606 23.1089 96.7683 19.5106C97.5408 22.6845 99.1784 25.5819 101.499 27.8807C103.82 30.1795 106.733 31.7896 109.914 32.532C109.605 30.6212 109.115 28.7442 108.45 26.9265C111.232 29.2496 114.533 30.8663 118.074 31.6391C118.321 29.5335 118.262 27.4032 117.9 25.3144C120.38 29.7789 124.547 36.55 130.698 38.435H134.567C136.602 34.2645 137.565 29.6529 137.37 25.0168C137.321 16.4351 134.22 5.86914 120.48 1.57829Z" fill="#302D3B"/>
<path d="M128.49 39.9482C128.689 36.5751 129.582 32.5075 133.699 33.2267C138.511 33.946 138.982 46.9674 128.738 45.4048L128.49 39.9482Z" fill="#FBBEAA"/>
<path d="M134.096 40.8163C134.009 40.8175 133.925 40.795 133.85 40.7513C133.776 40.7076 133.715 40.6442 133.674 40.5683C133.569 40.3505 133.408 40.1646 133.208 40.0295C133.007 39.8944 132.774 39.815 132.533 39.7994C132.25 39.8023 131.972 39.8766 131.725 40.0153C131.478 40.154 131.269 40.3527 131.119 40.5931C131.064 40.6823 130.98 40.7504 130.881 40.7863C130.782 40.8223 130.674 40.8241 130.574 40.7915C130.474 40.7544 130.389 40.6862 130.33 40.5968C130.272 40.5075 130.245 40.4018 130.251 40.2955C130.288 39.2476 130.614 38.2303 131.191 37.3552C131.769 36.4801 132.576 35.7811 133.525 35.335C133.644 35.2957 133.773 35.3049 133.884 35.3607C133.996 35.4165 134.081 35.5143 134.121 35.6326C134.16 35.751 134.151 35.8802 134.095 35.9917C134.039 36.1033 133.941 36.1882 133.823 36.2278C133.265 36.4988 132.769 36.8804 132.364 37.3495C131.959 37.8186 131.654 38.3652 131.467 38.9561C131.82 38.8088 132.2 38.7329 132.583 38.7329C132.984 38.7708 133.369 38.9058 133.706 39.1262C134.043 39.3466 134.322 39.6458 134.517 39.9979C134.547 40.0531 134.566 40.1137 134.573 40.1763C134.579 40.2388 134.573 40.302 134.554 40.3621C134.536 40.4222 134.505 40.478 134.465 40.5262C134.424 40.5744 134.375 40.614 134.319 40.6427L134.096 40.8163Z" fill="#F18380"/>
<path d="M133.476 48.3806C132.285 39.4269 128.862 24.6941 128.862 24.6941H122.488C122.488 24.6941 122.24 51.5553 122.066 57.4335C121.893 63.3118 120.33 65.0727 120.33 65.0727C120.33 65.0727 128.317 63.535 129.185 55.8958C129.451 57.3717 129.625 58.8627 129.706 60.3602C129.706 60.3602 134.641 57.3344 133.476 48.3806Z" fill="#302D3B"/>
<path d="M108.606 148.821L166.964 172.749C174.187 176.124 181.657 175.28 184.903 166.852C185.497 165.281 185.765 163.606 185.692 161.928C185.618 160.25 185.205 158.604 184.477 157.091C183.748 155.577 182.72 154.228 181.454 153.124C180.189 152.02 178.712 151.184 177.114 150.668L112.677 132.455C106.712 130.227 101.977 131.967 100.321 136.454C98.364 141.987 101.029 145.728 108.606 148.821Z" fill="#FBBEAA"/>
<path d="M102.205 63.5021C102.205 63.5021 88.5212 71.4005 86.4084 72.7828C84.2956 74.165 84.7463 76.5 82.3012 82.0635C81.6012 83.6562 76.4897 89.1937 76.7463 98C77.4461 122.019 84.572 163.576 84.572 163.576C88.8451 165.881 93.3888 167.646 98.0981 168.828C100.369 169.085 102.166 169.144 103.706 167.643C105.246 166.143 109.788 160.693 109.788 160.693C109.788 160.693 117.272 165.767 120.648 167.643C121.453 168.205 122.362 168.599 123.322 168.803C124.282 169.006 125.273 169.015 126.236 168.828C131.153 167.821 150.504 162.174 151.117 161.818C151.729 161.463 152.301 161.088 152.242 160.416C152.183 159.745 151.827 82.7151 151.571 79.2398C151.52 77.3786 150.934 75.5714 149.884 74.0342C148.833 72.497 147.362 71.2948 145.647 70.5712C141.52 68.7348 126.019 62.4358 126.019 62.4358L109.847 73.6714L102.205 63.5021Z" fill="#003399"/>
<path d="M102.205 61.291L109.808 73.6719C109.808 73.6719 102.344 79.5957 101.909 80.0301C101.475 80.4645 100.606 80.425 100.428 79.7339C100.251 79.0428 98.0983 65.9116 98.0588 65.9116C98.0207 65.842 98.0008 65.7639 98.0008 65.6845C98.0008 65.6052 98.0207 65.5271 98.0588 65.4575C98.2562 65.3192 102.205 61.291 102.205 61.291Z" fill="#F5F5F5"/>
<path d="M126.098 59L109.788 73.6714C109.788 73.6714 118.378 79.5952 118.753 80.0296C118.862 80.1227 118.991 80.1897 119.13 80.2256C119.269 80.2615 119.415 80.2653 119.555 80.2368C119.696 80.2083 119.828 80.1481 119.943 80.0609C120.057 79.9737 120.149 79.8618 120.214 79.7335C120.846 78.7264 130.956 64.5289 130.995 64.4104C131.037 64.3421 131.059 64.2635 131.059 64.1834C131.059 64.1032 131.037 64.0246 130.995 63.9563C130.778 63.8378 126.098 59 126.098 59Z" fill="#F5F5F5"/>
<g filter="url(#filter0_d_1_273)">
<rect width="40.9288" height="58.3236" rx="1" transform="matrix(-0.993463 -0.114154 -0.114154 0.993463 133.32 108.357)" fill="#EFEFEF"/>
</g>
<path d="M114.103 134.497C111.257 133.294 108.683 131.512 106.545 129.263C105.222 127.874 103.721 126.669 102.084 125.679C101.123 125.079 100.294 124.286 99.6487 123.352C98.7961 121.902 98.0904 120.371 97.5426 118.783C97.3396 117.415 96.8743 116.096 96.1726 114.902C95.5054 114.29 93.1506 114.617 91.9282 116.993C91.5068 118.051 91.3159 119.19 91.3682 120.334C91.4205 121.478 91.715 122.601 92.2317 123.627C92.8399 124.857 93.3164 126.148 93.6529 127.477L93.4309 127.61C91.5684 126.621 89.5781 125.904 87.5204 125.48C86.7742 125.313 85.9968 125.404 85.3135 125.736C84.6303 126.069 84.081 126.625 83.7542 127.314C83.4274 128.004 83.342 128.787 83.5118 129.537C83.6817 130.287 84.097 130.961 84.6906 131.45C81.4797 131.819 81.8442 136.771 84.6007 137.426C84.0105 137.673 83.5122 138.099 83.1733 138.644C82.8345 139.189 82.6713 139.827 82.7059 140.473C82.7405 141.119 82.9713 141.741 83.3669 142.255C83.7626 142.768 84.304 143.15 84.9181 143.346C82.9603 145.151 84.3914 148.126 87.9464 148.139C90.8349 148.433 98.5599 149.642 101.248 150.221C103.935 150.799 109.337 149.52 111.073 150.057C113.656 151.003 116.656 151.019 118.944 144.222C121.233 137.425 116.761 135.375 114.103 134.497Z" fill="#FBBEAA"/>
<path d="M21.9633 50.5139C22.9058 50.5139 22.9802 49.9186 23.4019 48.8273C21.2936 48.8273 15.1674 49.2241 12.4887 54.3831C15.1922 50.6627 20.376 50.5139 21.9633 50.5139ZM17.1516 30.895C17.1516 30.895 17.3004 31.7631 17.4492 33.0281C17.4492 33.6729 17.5981 34.4418 17.6477 35.2355C17.6973 36.0291 17.7717 36.8972 17.8461 37.7157C17.8461 39.4519 17.9701 41.1633 17.9701 42.453C17.9701 43.7428 17.9701 44.6108 17.9701 44.6108C17.9702 44.6521 17.9618 44.693 17.9453 44.7308C17.9288 44.7686 17.9047 44.8026 17.8743 44.8306C17.844 44.8586 17.8082 44.88 17.7692 44.8934C17.7302 44.9068 17.6888 44.9119 17.6477 44.9085C17.5779 44.905 17.5111 44.8789 17.4574 44.8341C17.4037 44.7894 17.3661 44.7285 17.35 44.6605C17.35 44.6605 17.2012 43.7923 17.0772 42.5026C16.9532 41.2129 16.7548 39.5015 16.6804 37.7901C16.6804 36.922 16.6804 36.0539 16.6804 35.3099C16.6804 34.5658 16.6804 33.7473 16.6804 33.1025C16.6804 31.7879 16.6804 30.9446 16.6804 30.9446C16.6802 30.9033 16.6886 30.8625 16.7051 30.8247C16.7216 30.7869 16.7458 30.7528 16.7761 30.7249C16.8064 30.6969 16.8422 30.6755 16.8813 30.6621C16.9203 30.6487 16.9617 30.6435 17.0028 30.647C17.0504 30.6743 17.0894 30.7143 17.1157 30.7625C17.1419 30.8106 17.1544 30.8651 17.1516 30.9198V30.895ZM11.3974 32.6312C11.3974 32.6312 11.5462 33.3753 11.7199 34.4666C11.7199 35.037 11.8935 35.6819 11.9679 36.3764C12.0423 37.0708 12.1167 37.8149 12.1911 38.559C12.1911 40.0472 12.3647 41.5353 12.3895 42.6514C12.4143 43.7675 12.3895 44.5364 12.3895 44.5364C12.3864 44.5756 12.3756 44.6137 12.3576 44.6486C12.3397 44.6835 12.3151 44.7146 12.2851 44.74C12.2551 44.7653 12.2204 44.7845 12.183 44.7964C12.1456 44.8083 12.1062 44.8127 12.0671 44.8093C12.0004 44.8046 11.9372 44.7776 11.8877 44.7326C11.8382 44.6876 11.8052 44.6273 11.7943 44.5613C11.7943 44.5613 11.6454 43.8171 11.4718 42.7258C11.2982 41.6345 11.1494 40.1216 11.0254 38.6582C11.0254 37.9142 11.0254 37.1701 10.8766 36.4756C10.7278 35.7811 10.8766 35.1115 10.8766 34.541C10.8766 33.4249 10.8766 32.6808 10.8766 32.6808C10.8764 32.6395 10.8848 32.5987 10.9013 32.5609C10.9178 32.5231 10.942 32.4891 10.9723 32.4611C11.0026 32.4331 11.0384 32.4117 11.0775 32.3983C11.1165 32.3849 11.1579 32.3797 11.199 32.3832C11.2541 32.4059 11.3017 32.4434 11.3367 32.4916C11.3717 32.5397 11.3928 32.5966 11.3974 32.656V32.6312ZM5.84165 34.9874C5.84165 34.9874 5.99043 35.6075 6.18885 36.55C6.18885 36.9964 6.38731 37.5421 6.46172 38.1374C6.53612 38.7327 6.6353 39.3527 6.73451 39.9728C6.90812 41.2377 6.9826 42.453 7.0322 43.4451C7.08181 44.4372 7.0322 45.0325 7.0322 45.0325C7.03235 45.0738 7.02386 45.1146 7.00738 45.1524C6.99089 45.1902 6.9667 45.2243 6.93638 45.2523C6.90606 45.2802 6.87026 45.3016 6.83124 45.315C6.79222 45.3284 6.75088 45.3336 6.70976 45.3301C6.64643 45.3268 6.5858 45.3034 6.53673 45.2632C6.48765 45.2231 6.45266 45.1683 6.43689 45.1069C6.43689 45.1069 6.26331 44.4869 6.08969 43.5692C5.91607 42.6515 5.66802 41.3617 5.51921 40.1216C5.51921 39.4767 5.39517 38.8566 5.34557 38.2614C5.29596 37.6661 5.34557 37.1205 5.34557 36.6492C5.34557 35.7067 5.34557 35.0618 5.34557 35.0618C5.34542 35.0206 5.35391 34.9798 5.3704 34.9419C5.38688 34.9041 5.411 34.8701 5.44132 34.8421C5.47164 34.8141 5.50751 34.7928 5.54653 34.7793C5.58555 34.7659 5.62689 34.7608 5.66801 34.7642C5.7138 34.7898 5.75322 34.8253 5.78329 34.8683C5.81336 34.9112 5.83331 34.9605 5.84165 35.0122V34.9874Z" fill="#F18380"/>
<path d="M106.216 49.6052C108.611 49.5128 110.909 48.642 112.764 47.1249" stroke="#73102A" stroke-width="0.5" stroke-miterlimit="10" stroke-linecap="round"/>
<path d="M115.246 155L168.246 177.5C175.47 180.873 184.001 177.929 187.246 169.5C187.84 167.929 187.88 165.36 187.806 163.682C187.733 162.004 187.319 160.358 186.59 158.845C185.862 157.332 184.512 154.604 183.247 153.5C181.981 152.396 177.47 150.359 175.872 149.843L116.246 133.5L115.246 155Z" fill="#003399"/>
<defs>
<filter id="filter0_d_1_273" x="86.1084" y="103.792" width="49.1041" height="62.3995" filterUnits="userSpaceOnUse" color-interpolation-filters="sRGB">
<feFlood flood-opacity="0" result="BackgroundImageFix"/>
<feColorMatrix in="SourceAlpha" type="matrix" values="0 0 0 0 0 0 0 0 0 0 0 0 0 0 0 0 0 0 127 0" result="hardAlpha"/>
<feOffset dx="2"/>
<feComposite in2="hardAlpha" operator="out"/>
<feColorMatrix type="matrix" values="0 0 0 0 0.603922 0 0 0 0 0.6 0 0 0 0 0.631373 0 0 0 1 0"/>
<feBlend mode="normal" in2="BackgroundImageFix" result="effect1_dropShadow_1_273"/>
<feBlend mode="normal" in="SourceGraphic" in2="effect1_dropShadow_1_273" result="shape"/>
</filter>
</defs>
</svg>
