<svg width="271" height="561" viewBox="0 0 271 561" fill="none" xmlns="http://www.w3.org/2000/svg">
<path d="M139.796 19.6658C140.879 15.7603 140.481 11.5924 138.678 7.96264C136.875 4.33284 133.795 1.49707 130.029 0C128.532 1.4966 129.294 6.2752 129.294 6.2752C124.006 3.79708 118.075 3.03509 112.332 4.09595C112.436 7.76762 113.82 11.2875 116.244 14.047C113.306 14.3432 110.481 15.3331 108 16.9352C108.376 18.6657 109.158 20.2822 110.281 21.6516C111.404 23.021 112.836 24.1041 114.459 24.812C112.806 26.7471 111.668 29.068 111.151 31.5598C113.971 32.3732 116.951 32.4635 119.815 31.8224C119.353 33.2714 119.166 34.7943 119.264 36.3122C121.984 36.7115 124.758 36.5067 127.39 35.7126C130.022 34.9185 132.447 33.5544 134.492 31.7174C137.205 28.1859 139.025 24.0515 139.796 19.6658Z" fill="#E69D7E"/>
<path d="M123.57 33.8445C123.15 40.6448 118.87 50.9635 119.999 59.6017C121.574 71.7845 136.645 71.6533 142.474 71.6533H151.112V33.8445H123.57Z" fill="#E69D7E"/>
<path d="M136.803 57.6583V79.9497C136.803 79.9497 138.562 87.6165 150.325 87.6165C152.665 87.8139 154.992 87.1076 156.828 85.6427C158.664 84.1778 159.87 82.0655 160.197 79.7396V57.6845L136.803 57.6583Z" fill="#FBBEAA"/>
<path d="M160.197 76.2213C152.819 79.7396 142.028 76.5889 136.803 66.9267V57.6583H160.197V76.2213Z" fill="#F18380"/>
<path d="M174.848 40.539C174.944 45.8705 174.699 51.2027 174.113 56.5028C173.168 64.0908 170.463 72.4927 157.073 72.4927C143.682 72.4927 136.829 66.4276 133.967 56.5028C132.234 50.5164 128.716 41.6418 130.16 31.4019C131.604 21.162 137.774 14.4667 152.32 14.0729C166.866 13.6791 176.345 20.2168 174.848 40.539Z" fill="#FBBEAA"/>
<path d="M146.465 45.1078C146.554 45.5034 146.753 45.8659 147.039 46.1535C147.325 46.441 147.687 46.6419 148.082 46.7331C148.477 46.8242 148.89 46.8019 149.273 46.6687C149.656 46.5355 149.994 46.2968 150.247 45.9801C150.5 45.6635 150.659 45.2817 150.705 44.8787C150.751 44.4758 150.682 44.0681 150.506 43.7025C150.331 43.337 150.055 43.0285 149.712 42.8126C149.369 42.5967 148.971 42.4822 148.566 42.4822C148.255 42.5148 147.953 42.6089 147.679 42.7589C147.404 42.9089 147.162 43.1119 146.967 43.3562C146.772 43.6004 146.627 43.881 146.541 44.1817C146.454 44.4824 146.429 44.7971 146.465 45.1078Z" fill="#403D4F"/>
<path d="M165.973 45.1078C166.062 45.5034 166.261 45.8659 166.547 46.1535C166.833 46.441 167.195 46.6419 167.59 46.7331C167.985 46.8242 168.398 46.8019 168.781 46.6687C169.164 46.5355 169.502 46.2968 169.755 45.9801C170.008 45.6635 170.167 45.2817 170.213 44.8787C170.259 44.4758 170.19 44.0681 170.014 43.7025C169.839 43.337 169.563 43.0285 169.22 42.8126C168.877 42.5967 168.479 42.4822 168.074 42.4822C167.763 42.5148 167.461 42.6089 167.187 42.7589C166.912 42.9089 166.67 43.1119 166.475 43.3562C166.28 43.6004 166.135 43.881 166.049 44.1817C165.963 44.4824 165.937 44.7971 165.973 45.1078Z" fill="#403D4F"/>
<path d="M152.819 37.6774C152.819 37.6774 152.819 37.6774 152.583 37.4411C152.373 37.2523 152.144 37.0852 151.9 36.9423C151.575 36.7419 151.221 36.5915 150.85 36.4959C150.437 36.3431 150.003 36.2546 149.564 36.2333C149.136 36.1806 148.704 36.1806 148.277 36.2333C147.915 36.2447 147.555 36.2887 147.201 36.3646L146.177 36.6534C146.007 36.7079 145.866 36.8261 145.783 36.983C145.7 37.1398 145.681 37.323 145.73 37.4936C145.77 37.63 145.853 37.7497 145.967 37.835C146.08 37.9202 146.218 37.9662 146.36 37.9662H147.384C147.689 37.9269 147.998 37.9269 148.303 37.9662C148.653 37.9402 149.004 37.9402 149.354 37.9662C149.695 37.9662 150.036 37.9662 150.351 38.15C150.666 38.3338 150.929 38.3601 151.191 38.3863L151.743 38.5701H151.979C152.143 38.6414 152.328 38.6456 152.495 38.5817C152.662 38.5179 152.797 38.3912 152.872 38.2288C152.918 38.1395 152.942 38.0405 152.942 37.94C152.942 37.8395 152.918 37.7405 152.872 37.6512L152.819 37.6774Z" fill="#403D4F"/>
<path d="M165.58 38.6751H165.737L166.157 38.5176H166.446H166.735C166.967 38.4409 167.204 38.3795 167.444 38.3338C167.687 38.295 167.935 38.295 168.179 38.3338C168.405 38.2946 168.636 38.2946 168.862 38.3338H169.702C169.878 38.327 170.045 38.2521 170.168 38.1248C170.29 37.9975 170.358 37.8277 170.358 37.6511C170.353 37.5209 170.311 37.3948 170.236 37.2878C170.162 37.1807 170.059 37.0973 169.938 37.0472L169.124 36.7584C168.827 36.6614 168.518 36.6083 168.205 36.6009C167.857 36.5487 167.503 36.5487 167.155 36.6009C166.465 36.67 165.81 36.9341 165.265 37.3623C165.067 37.4938 164.897 37.6634 164.766 37.8612C164.634 38.0187 164.634 38.0712 164.608 38.0712V38.3338C164.594 38.4574 164.613 38.5827 164.665 38.696C164.716 38.8093 164.798 38.9064 164.901 38.9767C165.003 39.047 165.123 39.0879 165.248 39.0949C165.372 39.1019 165.496 39.0748 165.606 39.0164L165.58 38.6751Z" fill="#403D4F"/>
<path d="M160.197 54.0348C160.638 54.045 161.075 53.9587 161.479 53.7818C161.883 53.6049 162.243 53.3417 162.534 53.0108C162.648 52.898 162.737 52.7627 162.796 52.6135C162.855 52.4644 162.882 52.3046 162.875 52.1444C162.875 51.8556 162.403 48.2322 162.245 46.8932C162.245 46.7609 162.193 46.634 162.099 46.5404C162.006 46.4469 161.879 46.3943 161.746 46.3943C161.614 46.3943 161.487 46.4469 161.394 46.5404C161.3 46.634 161.248 46.7609 161.248 46.8932C161.248 47.1032 161.799 51.8556 161.878 52.1444C161.66 52.3784 161.395 52.5645 161.101 52.6911C160.808 52.8176 160.491 52.8818 160.171 52.8795C160.039 52.8795 159.912 52.9321 159.818 53.0257C159.725 53.1192 159.672 53.2461 159.672 53.3784C159.672 53.5107 159.725 53.6376 159.818 53.7312C159.912 53.8247 160.039 53.8773 160.171 53.8773L160.197 54.0348Z" fill="#F18380"/>
<path d="M162.665 59.2073C163.663 59.4699 164.004 60.9402 163.427 62.6469C162.823 63.8209 161.843 64.7587 160.644 65.3108C159.444 65.8628 158.095 65.9972 156.81 65.6926C156.113 65.656 155.431 65.4808 154.802 65.1772C154.173 64.8737 153.612 64.4479 153.15 63.9247C152.688 63.4016 152.335 62.7915 152.111 62.1303C151.888 61.4691 151.798 60.77 151.848 60.0738C151.848 58.9447 152.609 58.2621 154.08 58.2621C156.963 58.3376 159.835 58.6538 162.665 59.2073Z" fill="#73102A"/>
<path d="M151.795 60.0737C151.795 60.0737 151.795 59.9162 151.795 59.8111C153.721 59.3597 155.746 59.6491 157.468 60.622C159.19 61.5949 160.483 63.18 161.09 65.0623C159.731 65.728 158.202 65.966 156.705 65.745C156.008 65.702 155.326 65.5202 154.7 65.2104C154.074 64.9006 153.516 64.469 153.058 63.9409C152.601 63.4127 152.254 62.7986 152.037 62.1346C151.82 61.4706 151.738 60.7699 151.795 60.0737Z" fill="#D65155"/>
<path d="M161.773 60.8092C158.456 60.8363 155.156 60.322 152.005 59.2863C152.199 58.9307 152.496 58.6423 152.857 58.4595C153.218 58.2766 153.626 58.2078 154.027 58.2623C156.91 58.3378 159.782 58.654 162.613 59.2075C162.887 59.2999 163.128 59.4712 163.306 59.7001C163.483 59.929 163.589 60.2052 163.61 60.4941C163.021 60.7079 162.399 60.8146 161.773 60.8092Z" fill="white"/>
<path d="M148.881 28.1464C148.881 28.1464 144.233 44.2151 133.127 48.4423C131.837 48.4584 130.563 48.1637 129.411 47.5833C128.26 47.0029 127.265 46.1538 126.51 45.1078C123.561 38.9034 122.73 31.9017 124.147 25.1794C126.012 16.9875 135.858 6.43259 153.817 8.90066C163.4 7.06273 174.822 8.74313 181.963 18.4316C189.105 28.1201 180.598 41.537 174.848 43.7687C169.192 40.3636 163.771 36.583 158.622 32.4524C159.409 34.9205 160.25 40.1454 159.409 40.1454C154.556 37.5611 150.812 33.2946 148.881 28.1464Z" fill="#E69D7E"/>
<path d="M134.492 50.3854C134.282 46.8145 133.311 42.5085 128.978 43.27C123.727 44.0314 123.36 57.8158 134.23 56.1617L134.492 50.3854Z" fill="#FBBEAA"/>
<path d="M128.532 51.3046C128.622 51.3007 128.71 51.2747 128.788 51.2289C128.866 51.1832 128.931 51.119 128.978 51.042C129.087 50.8098 129.257 50.6114 129.47 50.4681C129.683 50.3248 129.93 50.2418 130.186 50.2281C130.486 50.2311 130.781 50.3097 131.042 50.4565C131.304 50.6034 131.524 50.8138 131.683 51.0683C131.742 51.1627 131.831 51.2347 131.935 51.2728C132.04 51.3109 132.155 51.3128 132.26 51.2783C132.361 51.2347 132.446 51.1606 132.502 51.0664C132.559 50.9722 132.585 50.8627 132.576 50.7532C132.542 49.646 132.202 48.5697 131.595 47.6431C130.989 46.7164 130.137 45.9755 129.136 45.502C129.073 45.4772 129.006 45.4655 128.938 45.4677C128.87 45.4698 128.804 45.4857 128.742 45.5143C128.681 45.543 128.626 45.5839 128.581 45.6345C128.536 45.6851 128.502 45.7443 128.48 45.8085C128.459 45.8728 128.451 45.9407 128.456 46.0082C128.462 46.0757 128.481 46.1413 128.513 46.201C128.545 46.2608 128.589 46.3134 128.642 46.3558C128.695 46.3981 128.756 46.4292 128.821 46.4472C129.407 46.7355 129.928 47.1404 130.353 47.637C130.777 48.1336 131.096 48.7115 131.289 49.3354C130.924 49.1794 130.531 49.099 130.134 49.0991C129.709 49.1392 129.301 49.2821 128.944 49.5154C128.587 49.7487 128.293 50.0654 128.086 50.4381C128.053 50.495 128.031 50.5578 128.023 50.6229C128.014 50.688 128.019 50.7542 128.036 50.8176C128.053 50.881 128.082 50.9405 128.122 50.9925C128.163 51.0445 128.213 51.0881 128.27 51.1208C128.334 51.2092 128.427 51.2738 128.532 51.3046Z" fill="#F18380"/>
<g opacity="0.3" filter="url(#filter0_f_1_1976)">
<ellipse cx="106.5" cy="14.5" rx="106.5" ry="14.5" transform="matrix(1 0 0 -1 17 544)" fill="#CBCBCB"/>
</g>
<path d="M240.787 85.3558C240.889 83.1208 240.291 80.9097 239.075 79.0312C237.204 76.8616 235.802 76.3282 234.958 73.5904C234.309 71.049 233.271 68.6229 231.883 66.3976C230.89 65.0335 229.402 63.9174 229.402 62.8757C229.402 61.834 231.387 59.825 234.214 60.3954C235.425 60.7727 236.538 61.413 237.473 62.2706C238.407 63.1282 239.141 64.1817 239.621 65.3559C239.892 64.6405 240.051 63.8876 240.092 63.1237L240.712 45.9197C240.722 45.5256 240.81 45.1373 240.972 44.7778C241.134 44.4184 241.366 44.095 241.655 43.8269C241.944 43.5587 242.284 43.3511 242.655 43.2164C243.025 43.0817 243.419 43.0226 243.813 43.0426C244.44 43.0694 245.042 43.2919 245.536 43.679C245.787 43.8754 249.982 48.9631 254.077 54.0061C258.051 58.901 261.931 63.7537 262.018 64.0504C261.222 71.2798 259.726 78.415 257.553 85.3558C257.527 86.5147 257.259 87.6553 256.765 88.7042C256.272 89.7531 255.564 90.6872 254.688 91.4464C253.812 92.2056 252.787 92.7731 251.679 93.1124C250.57 93.4517 249.403 93.5554 248.252 93.4167C247.211 93.4514 246.174 93.2618 245.212 92.8606C244.251 92.4595 243.386 91.8561 242.678 91.0916C241.97 90.327 241.435 89.4192 241.108 88.4295C240.782 87.4399 240.672 86.3916 240.787 85.3558Z" fill="#FBBEAA"/>
<path d="M246.529 40.2041L259.517 52.7466C262.647 56.256 264.127 59.8108 264.36 63.0969C264.355 63.1028 264.358 63.1061 264.355 63.1091C264.688 67.7054 262.589 71.7646 259.22 74.3843C259.156 74.4432 259.08 74.5013 259.009 74.5535C258.988 74.568 258.971 74.5857 258.957 74.6006C257.108 75.9725 254.896 76.9198 252.514 77.3127C251.727 77.4462 250.914 77.5153 250.088 77.5081C250.018 77.5101 249.975 77.5137 249.965 77.5099C249.946 77.5087 249.918 77.5101 249.877 77.5108C246.169 77.4602 242.218 76.0401 238.622 72.7973L226.401 61.0472L246.529 40.2041Z" fill="#0099FF"/>
<path d="M264.359 63.1123C264.879 70.3129 259.439 76.1827 252.515 77.3125C251.305 77.4104 250.411 77.487 250.088 77.5079C250.019 77.5099 249.975 77.5135 249.965 77.5097C249.946 77.5085 249.918 77.5099 249.877 77.5105C249.17 77.4636 243.725 76.9566 236.392 69.5885C230.749 63.9215 228.375 61.8574 228.375 61.8574L235.684 58.8815C235.684 58.8815 247.081 71.1432 253.85 72.1375C260.622 73.1416 263.99 67.4263 264.359 63.1123Z" fill="#0099FF"/>
<path d="M246.531 40.205L259.519 52.7475C261.178 54.6133 262.374 56.4787 263.161 58.3219C263.164 58.3253 263.164 58.3253 263.171 58.332C263.865 59.9589 264.25 61.5572 264.362 63.0977L264.359 63.129C264.361 63.1479 264.357 63.1728 264.358 63.2137C264.658 67.7735 262.564 71.7796 259.225 74.3885C259.674 73.9858 260.245 73.1853 260.739 72.1316C260.778 72.0492 260.817 71.9668 260.854 71.8873C260.89 71.8079 260.92 71.728 260.957 71.6486C261.003 71.5383 261.048 71.4217 261.087 71.3047C261.138 71.1821 261.185 71.0499 261.224 70.9329C261.26 70.8125 261.301 70.6863 261.337 70.5659L261.339 70.5566C261.388 70.4151 261.419 70.2787 261.452 70.1613C261.499 69.9663 261.549 69.7619 261.588 69.5538C261.597 69.5167 261.599 69.5011 261.599 69.5011C262.046 67.2283 261.813 64.5269 259.863 62.0993C257.107 58.676 251.706 53.7122 248.416 50.7932C246.787 49.341 245.671 48.395 245.671 48.395C245.671 48.395 246.19 46.3341 246.595 44.9262C246.806 44.207 246.982 43.6491 247.044 43.6403C247.229 43.6015 246.569 40.4086 246.525 40.211L246.531 40.205Z" fill="#0099FF"/>
<path d="M246.529 40.2048L259.517 52.7472C261.177 54.613 262.372 56.4784 263.159 58.3217C261.826 56.0077 258.913 51.7796 254.05 49.731C251.898 48.8277 250.168 49.4497 248.421 50.7933C246.21 52.498 243.966 55.3571 240.785 57.7748C235.082 62.1073 227.284 61.8945 227.02 61.6392L226.693 61.3236L228.125 61.6009L232.803 60.3476L236.033 58.1372C236.033 58.1372 242.909 51.0176 243.138 50.7804C243.367 50.5431 246.606 44.9267 246.606 44.9267L246.536 40.2115L246.529 40.2048Z" fill="#0099FF"/>
<path d="M235.881 59.0735L236.863 60.1086C236.863 60.1086 240.382 58.4975 242.877 56.053C245.046 53.9247 248.418 50.8023 248.418 50.8023L245.673 48.4041L241.072 53.6282L235.881 59.0735Z" fill="#0099FF"/>
<path d="M228.378 61.8614L228.714 62.1745C228.159 62.1087 227.56 61.9711 227.021 61.6454L226.405 61.051L228.378 61.8614Z" fill="#0099FF"/>
<path d="M228.378 61.8614L228.715 62.1745C228.715 62.1745 229.886 62.3884 233.22 61.5171C235 61.0522 236.872 60.1091 236.872 60.1091L235.694 58.8859C235.694 58.8859 231.706 60.7885 231.658 60.908C231.6 61.0239 228.378 61.8614 228.378 61.8614Z" fill="#0099FF"/>
<path d="M240.846 54.8587C246.403 49.1039 248.947 42.5443 246.527 40.2075C244.107 37.8706 237.64 40.6415 232.083 46.3963C226.525 52.1511 223.982 58.7107 226.402 61.0475C228.822 63.3843 235.288 60.6135 240.846 54.8587Z" fill="#A3A9AA"/>
<path d="M245.74 40.5642C246.832 41.6186 246.642 43.7784 245.449 46.3915C244.932 47.5254 244.222 48.7542 243.348 50.0011C243.258 50.1213 243.17 50.2478 243.075 50.3739C242.194 51.5921 241.161 52.8292 239.992 54.039C238.773 55.3022 237.51 56.4214 236.279 57.3696C232.188 60.5135 228.316 61.7947 226.724 60.2567C225.799 59.3634 225.799 57.6507 226.56 55.5545C226.56 55.5545 226.56 55.5545 226.562 55.5453C227.108 54.0549 228.033 52.3523 229.279 50.6098C230.184 49.3459 231.258 48.0454 232.478 46.7822C233.698 45.519 234.96 44.3998 236.197 43.4457C240.283 40.3078 244.151 39.0295 245.74 40.5642Z" fill="#475150"/>
<path d="M264.359 63.217C264.66 67.7768 262.566 71.7828 259.227 74.3918C259.227 74.3918 260.151 73.3302 260.741 72.1349C260.78 72.0524 260.819 71.97 260.856 71.8906C260.892 71.8111 260.922 71.7313 260.959 71.6518C261.01 71.5356 261.053 71.4219 261.089 71.3079C261.14 71.1854 261.187 71.0531 261.226 70.9361C261.267 70.8035 261.309 70.6836 261.339 70.5691L261.341 70.5598C261.39 70.4183 261.421 70.282 261.454 70.1646C261.538 69.8618 261.577 69.6474 261.59 69.5571C261.599 69.5199 261.601 69.5043 261.601 69.5043C261.601 69.5043 262.714 68.2816 263.398 66.8783C264.32 64.9902 264.334 63.7308 264.359 63.217Z" fill="#0099FF"/>
<path d="M253.751 71.5792C254.489 72.6588 254.721 73.5877 254.116 74.2763C252.498 76.1402 246.442 75.1742 242.381 71.5569C238.324 67.9366 235.641 62.893 237.259 61.029C237.347 60.9308 237.437 60.8452 237.541 60.7793L237.546 60.7734C239.355 59.4367 243.457 61.8341 247.313 65.2596C249.844 67.5314 252.513 69.7709 253.751 71.5792Z" fill="#0099FF"/>
<path d="M254.115 72.176C254.115 72.176 250.279 72.1269 246.398 69.2215C243.901 67.3603 237.539 60.7815 237.539 60.7815L237.545 60.7756C239.353 59.4388 243.358 61.6385 247.28 64.9739C253.663 70.4038 254.115 72.176 254.115 72.176Z" fill="#0099FF"/>
<path d="M236.196 43.4455L243.196 50.2053C243.196 50.2053 241.351 52.6649 239.991 54.0388C238.754 55.2853 237.509 56.4212 236.277 57.3695L229.277 50.6096C230.182 49.3458 231.257 48.0453 232.476 46.782C233.699 45.5159 234.961 44.3967 236.196 43.4455Z" fill="#5E6466"/>
<path d="M245.739 40.564C246.831 41.6185 246.554 43.7352 245.447 46.3913C244.791 47.9691 243.196 50.2053 243.196 50.2053C243.196 50.2053 239.899 47.1539 237.9 45.1601C236.919 44.1786 236.196 43.4455 236.196 43.4455C240.281 40.3076 244.15 39.0294 245.739 40.564Z" fill="#747A7C"/>
<path d="M245.74 40.5642C246.832 41.6186 246.641 43.7784 245.449 46.3915C243.682 43.5794 241.128 43.6695 237.949 45.1382C237.93 45.137 237.916 45.1518 237.901 45.1603C237.292 45.4431 236.66 45.7779 236.005 46.1428C234.165 47.1916 231.92 49.3781 230.078 51.3759C228.1 53.535 226.593 55.4781 226.563 55.5516C226.563 55.5516 226.563 55.5516 226.565 55.5423C227.11 54.0519 228.036 52.3493 229.281 50.6069C230.186 49.343 231.261 48.0425 232.48 46.7793C233.179 46.0557 233.892 45.3802 234.603 44.7549C235.135 44.2881 235.666 43.8496 236.197 43.4457C240.282 40.3078 244.151 39.0295 245.74 40.5642Z" fill="#929799"/>
<path d="M236.196 43.4455L237.9 45.1601C237.291 45.443 236.659 45.7778 236.004 46.1426C234.165 47.1915 231.919 49.3779 230.077 51.3757L229.281 50.6067C230.185 49.3428 231.26 48.0423 232.479 46.7791C233.178 46.0556 233.891 45.3801 234.602 44.7547L236.196 43.4455Z" fill="#6F7577"/>
<path d="M230.077 51.3758L229.28 50.6068C229.28 50.6068 228.354 51.7814 227.66 53.1683C226.966 54.5552 226.562 55.5515 226.562 55.5515L230.077 51.3758Z" fill="#5E6466"/>
<path d="M241.983 51.7172C240.905 53.0489 239.565 54.4995 237.889 56.0267C232.697 60.7837 229.138 60.8712 229.138 60.8712C229.138 60.8712 228.029 59.7371 232.788 53.9948C232.788 53.9948 232.047 55.1589 231.812 56.1814C231.684 56.7454 232 57.5664 233.859 57.207C235.343 56.9156 239.976 53.8304 241.983 51.7172Z" fill="#475150"/>
<path d="M238.778 49.5547C238.9 49.6722 238.754 50.0183 238.456 50.3267C238.158 50.6351 237.817 50.7931 237.696 50.6755C237.574 50.558 237.717 50.2149 238.018 49.9035C238.319 49.5985 238.66 49.4405 238.778 49.5547Z" fill="#5E6466"/>
<path d="M248.377 50.721C246.968 48.4736 249.829 45.5098 251.644 44.3517C251.644 44.3517 252.736 43.0879 255 45.3518C257.5 47.8519 256 49.563 256 49.563C254.367 51.3001 250.555 54.1952 248.377 50.721Z" fill="#FBBEAA"/>
<path d="M252.377 55.0728C250.968 52.8254 253.829 49.8616 255.644 48.7035C255.644 48.7035 256.736 47.4397 259 49.7036C261.5 52.2037 260 53.9148 260 53.9148C258.367 55.6519 254.555 58.547 252.377 55.0728Z" fill="#FBBEAA"/>
<path d="M256.377 59.0728C254.968 56.8254 257.829 53.8616 259.644 52.7035C259.644 52.7035 260.736 51.4397 263 53.7036C265.5 56.2037 264 57.9148 264 57.9148C262.367 59.6519 258.555 62.547 256.377 59.0728Z" fill="#FBBEAA"/>
<path d="M261.313 62.6332C260.145 60.7495 262.516 58.2654 264.02 57.2948C264.02 57.2948 264.925 56.2355 266.801 58.133C268.873 60.2285 267.63 61.6626 267.63 61.6626C266.276 63.1186 263.117 65.5451 261.313 62.6332Z" fill="#FBBEAA"/>
<path d="M156.203 490.134C156.203 487.746 157.151 485.456 158.84 483.768C160.528 482.079 162.818 481.131 165.206 481.131C167.594 481.131 169.884 482.079 171.572 483.768C173.261 485.456 174.209 487.746 174.209 490.134V509.703H156.203V490.134Z" fill="#FBBEAA"/>
<path d="M173.565 493.78C175.772 493.78 176.169 494.748 176.814 496.012C177.86 499.383 179.648 502.477 182.047 505.065C185.629 508.116 189.471 510.847 193.531 513.225V523.593H153.45C153.45 523.593 153.723 515.408 153.921 509.629C154.119 503.85 154.69 496.806 154.64 496.062C154.591 495.318 154.64 493.78 156.004 493.78H173.565Z" fill="#302D3B"/>
<path d="M158.434 510.199C158.43 511.472 158.803 512.717 159.507 513.777C160.211 514.838 161.214 515.665 162.389 516.154C163.563 516.643 164.857 516.773 166.106 516.526C167.354 516.279 168.501 515.666 169.401 514.766C170.301 513.866 170.913 512.72 171.16 511.471C171.407 510.223 171.278 508.929 170.788 507.754C170.299 506.579 169.472 505.576 168.412 504.872C167.352 504.168 166.106 503.795 164.834 503.8C163.138 503.807 161.515 504.483 160.316 505.682C159.117 506.88 158.441 508.504 158.434 510.199Z" fill="#93929C"/>
<path d="M164.833 506.429L163.37 508.587L160.865 509.306L162.452 511.365L162.378 513.969L164.833 513.076L167.289 513.969L167.19 511.365L168.802 509.306L166.297 508.587L164.833 506.429Z" fill="white"/>
<path d="M193.258 513.052C193.258 513.052 198.937 516.053 201.07 517.516C202.058 518.185 202.86 519.094 203.402 520.156C203.944 521.219 204.209 522.401 204.171 523.593H188.595C188.595 523.593 188.917 515.979 193.258 513.052Z" fill="white"/>
<path d="M153.45 523.593V527.884C153.45 528.603 154.095 529 155.186 529H202.46C203.526 529 204.171 528.603 204.171 527.884V523.593H153.45Z" fill="white"/>
<path d="M188.594 510.15C188.732 509.939 188.946 509.79 189.191 509.734C189.437 509.679 189.694 509.721 189.909 509.852C190.016 509.918 190.109 510.005 190.182 510.107C190.255 510.209 190.307 510.324 190.334 510.447C190.362 510.569 190.365 510.696 190.343 510.82C190.321 510.943 190.275 511.061 190.207 511.167L188.545 513.845C188.465 513.984 188.349 514.099 188.209 514.177C188.07 514.256 187.911 514.296 187.751 514.292C187.567 514.289 187.388 514.238 187.23 514.143C187.123 514.077 187.031 513.991 186.958 513.889C186.885 513.787 186.833 513.671 186.805 513.548C186.777 513.426 186.774 513.299 186.796 513.176C186.818 513.052 186.864 512.934 186.933 512.829L188.594 510.15Z" fill="white"/>
<path d="M185.668 508.091C185.749 507.997 185.849 507.919 185.96 507.863C186.071 507.807 186.193 507.773 186.317 507.764C186.441 507.755 186.566 507.77 186.685 507.809C186.803 507.848 186.913 507.91 187.007 507.992C187.102 508.073 187.179 508.172 187.235 508.284C187.291 508.395 187.325 508.517 187.334 508.641C187.344 508.765 187.328 508.89 187.289 509.009C187.25 509.127 187.188 509.237 187.106 509.331L185.172 511.613C185.083 511.718 184.973 511.802 184.849 511.862C184.725 511.922 184.59 511.955 184.453 511.96C184.273 511.957 184.098 511.904 183.947 511.806C183.796 511.709 183.675 511.571 183.597 511.409C183.52 511.247 183.49 511.066 183.509 510.888C183.529 510.709 183.598 510.539 183.709 510.398L185.668 508.091Z" fill="white"/>
<path d="M182.915 505.785C183.112 505.658 183.349 505.607 183.581 505.641C183.814 505.676 184.025 505.793 184.177 505.973C184.329 506.152 184.41 506.38 184.406 506.614C184.402 506.849 184.313 507.074 184.155 507.248L181.948 509.158C181.775 509.305 181.555 509.384 181.328 509.381C181.191 509.386 181.055 509.36 180.931 509.304C180.806 509.248 180.696 509.164 180.609 509.059C180.517 508.973 180.444 508.869 180.394 508.754C180.344 508.639 180.318 508.515 180.318 508.389C180.318 508.264 180.344 508.139 180.394 508.024C180.444 507.909 180.517 507.805 180.609 507.719L182.915 505.785Z" fill="white"/>
<path d="M178.078 504.644L180.559 503.106C180.776 502.977 181.036 502.939 181.282 502.999C181.527 503.059 181.74 503.213 181.873 503.428C181.94 503.535 181.985 503.655 182.005 503.779C182.025 503.904 182.02 504.031 181.99 504.154C181.96 504.276 181.906 504.392 181.83 504.493C181.755 504.594 181.66 504.679 181.551 504.743L179.07 506.281C178.923 506.378 178.751 506.43 178.574 506.429C178.413 506.426 178.255 506.38 178.116 506.298C177.977 506.215 177.861 506.098 177.781 505.958C177.65 505.743 177.607 505.486 177.663 505.241C177.718 504.995 177.867 504.781 178.078 504.644Z" fill="white"/>
<path d="M175.995 501.444L178.772 500.279C179.009 500.18 179.276 500.18 179.513 500.277C179.75 500.375 179.939 500.563 180.037 500.8C180.086 500.915 180.111 501.039 180.111 501.164C180.111 501.29 180.086 501.414 180.037 501.529C179.989 501.644 179.918 501.749 179.828 501.837C179.739 501.924 179.633 501.993 179.517 502.04L176.739 503.205H176.367C176.153 503.194 175.949 503.112 175.786 502.972C175.624 502.832 175.513 502.642 175.47 502.432C175.428 502.222 175.456 502.003 175.551 501.811C175.646 501.619 175.802 501.464 175.995 501.37V501.444Z" fill="white"/>
<path d="M174.259 497.873L177.334 497.104C177.577 497.044 177.834 497.084 178.048 497.215C178.262 497.345 178.416 497.555 178.475 497.798C178.534 498.042 178.494 498.298 178.364 498.512C178.234 498.726 178.024 498.88 177.781 498.939L174.73 499.733H174.507C174.293 499.73 174.086 499.659 173.916 499.529C173.746 499.4 173.623 499.219 173.564 499.013C173.511 498.77 173.553 498.516 173.683 498.304C173.812 498.091 174.018 497.937 174.259 497.873Z" fill="white"/>
<path d="M143.032 364.98C143.305 352.976 151.391 347.172 163.37 347.47C175.35 347.767 183.981 354.043 183.708 366.022L174.209 491.102H156.202L143.032 364.98Z" fill="#FBBEAA"/>
<path d="M80.3063 490.134C80.3063 487.746 81.2548 485.456 82.9433 483.768C84.6317 482.079 86.9218 481.131 89.3096 481.131C91.6975 481.131 93.9875 482.079 95.676 483.768C97.3644 485.456 98.313 487.746 98.313 490.134V509.703H80.3063V490.134Z" fill="#FBBEAA"/>
<path d="M97.6436 493.78C99.8758 493.78 100.273 494.748 100.893 496.012C101.951 499.384 103.747 502.476 106.151 505.065C109.728 508.122 113.571 510.853 117.634 513.225V523.593H77.5535C77.5535 523.593 77.8263 515.408 78.0247 509.629C78.2231 503.85 78.7688 496.806 78.744 496.062C78.7192 495.318 78.744 493.78 80.0833 493.78H97.6436Z" fill="#302D3B"/>
<path d="M82.5141 510.199C82.5092 511.471 82.8818 512.715 83.5846 513.775C84.2875 514.834 85.2891 515.662 86.4624 516.152C87.6358 516.642 88.9282 516.772 90.1759 516.527C91.4237 516.282 92.5706 515.672 93.4715 514.775C94.3724 513.878 94.9867 512.733 95.2365 511.486C95.4864 510.24 95.3607 508.947 94.8752 507.771C94.3897 506.596 93.5664 505.591 92.5095 504.884C91.4525 504.177 90.2096 503.8 88.938 503.8C87.2386 503.8 85.6084 504.473 84.4044 505.673C83.2004 506.872 82.5206 508.5 82.5141 510.199Z" fill="#93929C"/>
<path d="M88.913 506.429L87.4497 508.587L84.9446 509.306L86.5568 511.365L86.4824 513.969L88.913 513.076L91.3685 513.969L91.2941 511.365L92.9062 509.306L90.3764 508.587L88.913 506.429Z" fill="white"/>
<path d="M117.336 513.052C117.336 513.052 123.041 516.053 125.149 517.516C126.142 518.18 126.948 519.087 127.49 520.151C128.033 521.215 128.294 522.4 128.25 523.593H112.599C112.599 523.593 113.021 515.979 117.336 513.052Z" fill="white"/>
<path d="M77.5535 523.593V527.884C77.5535 528.603 78.1735 529 79.2649 529H126.588C127.68 529 128.3 528.603 128.3 527.884V523.593H77.5535Z" fill="white"/>
<path d="M112.699 510.15C112.833 509.936 113.048 509.785 113.294 509.729C113.541 509.673 113.799 509.717 114.013 509.852C114.227 509.987 114.378 510.201 114.434 510.448C114.49 510.694 114.446 510.953 114.311 511.167L112.649 513.846C112.563 513.985 112.442 514.099 112.299 514.177C112.155 514.255 111.994 514.295 111.83 514.292C111.654 514.292 111.481 514.241 111.334 514.143C111.228 514.077 111.135 513.991 111.062 513.889C110.989 513.787 110.937 513.671 110.909 513.549C110.881 513.426 110.878 513.299 110.9 513.176C110.922 513.052 110.969 512.934 111.037 512.829L112.699 510.15Z" fill="white"/>
<path d="M109.747 508.091C109.91 507.901 110.141 507.781 110.391 507.758C110.641 507.735 110.89 507.81 111.086 507.967C111.278 508.135 111.398 508.37 111.421 508.624C111.444 508.878 111.369 509.132 111.21 509.331L109.251 511.613C109.165 511.721 109.055 511.809 108.931 511.869C108.806 511.929 108.67 511.96 108.531 511.96C108.35 511.962 108.171 511.911 108.017 511.814C107.864 511.717 107.742 511.577 107.666 511.412C107.59 511.247 107.563 511.063 107.589 510.883C107.615 510.703 107.692 510.535 107.812 510.398L109.747 508.091Z" fill="white"/>
<path d="M107.019 505.785C107.216 505.658 107.453 505.607 107.685 505.641C107.917 505.676 108.129 505.793 108.281 505.973C108.433 506.152 108.514 506.38 108.51 506.614C108.506 506.849 108.417 507.074 108.259 507.248L106.027 509.158C105.854 509.305 105.634 509.384 105.407 509.381C105.27 509.384 105.135 509.357 105.011 509.301C104.886 509.245 104.776 509.163 104.688 509.059C104.599 508.971 104.529 508.867 104.481 508.752C104.433 508.637 104.408 508.514 104.408 508.389C104.408 508.265 104.433 508.141 104.481 508.026C104.529 507.911 104.599 507.807 104.688 507.719L107.019 505.785Z" fill="white"/>
<path d="M102.182 504.644L104.663 503.106C104.876 503.016 105.116 503.005 105.337 503.077C105.558 503.148 105.745 503.297 105.866 503.496C105.986 503.694 106.031 503.93 105.992 504.159C105.954 504.388 105.834 504.595 105.655 504.743L103.174 506.281C103.027 506.378 102.855 506.43 102.678 506.429C102.513 506.427 102.351 506.383 102.208 506.301C102.064 506.218 101.945 506.1 101.86 505.958C101.731 505.74 101.693 505.481 101.753 505.235C101.813 504.989 101.967 504.777 102.182 504.644Z" fill="white"/>
<path d="M100.099 501.445L102.877 500.279C102.993 500.23 103.117 500.206 103.242 500.206C103.367 500.206 103.491 500.231 103.606 500.279C103.722 500.328 103.826 500.399 103.914 500.488C104.002 500.577 104.071 500.683 104.117 500.8C104.21 501.031 104.21 501.288 104.118 501.519C104.025 501.75 103.847 501.937 103.621 502.04L100.818 503.206C100.704 503.231 100.586 503.231 100.471 503.206C100.28 503.206 100.094 503.149 99.9346 503.043C99.7757 502.937 99.6518 502.787 99.5783 502.61C99.503 502.386 99.5148 502.142 99.6113 501.926C99.7078 501.71 99.8819 501.538 100.099 501.445Z" fill="white"/>
<path d="M98.3625 497.873L101.413 497.104C101.66 497.044 101.92 497.083 102.138 497.212C102.356 497.342 102.515 497.553 102.579 497.798C102.609 497.919 102.614 498.044 102.595 498.167C102.576 498.289 102.533 498.407 102.469 498.513C102.404 498.619 102.319 498.711 102.219 498.784C102.119 498.858 102.005 498.91 101.884 498.939L98.8338 499.733H98.5858C98.3623 499.716 98.1517 499.622 97.99 499.466C97.8283 499.311 97.7255 499.105 97.6991 498.882C97.6727 498.66 97.7245 498.435 97.8455 498.246C97.9665 498.058 98.1493 497.917 98.3625 497.848V497.873Z" fill="white"/>
<path d="M90.1533 364.608C91.3717 358.978 94.7759 354.062 99.6176 350.942C104.459 347.821 110.342 346.75 115.973 347.966C127.704 350.446 134.029 362.004 131.499 373.736L98.3134 493.16H80.0835L90.1533 364.608Z" fill="#FBBEAA"/>
<path d="M141.469 364.2C141.536 361.35 142.163 358.541 143.316 355.933C144.468 353.326 146.123 350.971 148.185 349.003C150.248 347.035 152.678 345.492 155.336 344.463C157.995 343.434 160.83 342.939 163.68 343.006C166.53 343.073 169.339 343.7 171.946 344.853C174.554 346.005 176.909 347.659 178.877 349.722C180.845 351.784 182.387 354.214 183.416 356.873C184.445 359.531 184.941 362.367 184.874 365.217L190.505 493.794H141.47L141.469 364.2Z" fill="#93929C"/>
<path d="M90.1562 361.546C91.5023 356.051 94.9384 351.298 99.7341 348.297C104.53 345.296 110.307 344.284 115.837 345.476C121.367 346.668 126.215 349.97 129.348 354.68C132.482 359.39 133.655 365.137 132.618 370.698L119.424 493.294C119.424 493.294 87.8252 495.179 69 493.294L90.1562 361.546Z" fill="#93929C"/>
<path d="M247.55 142.402L176.317 88.2827C168.009 82.9749 162.354 85.8024 157.939 91.4822C155.923 94.2313 154.988 97.6258 155.312 101.02C155.637 104.413 157.199 107.569 159.7 109.886L230.759 162.244C233.263 164.359 236.487 165.426 239.758 165.223C243.03 165.019 246.096 163.561 248.319 161.153L248.642 160.806C249.822 159.547 250.733 158.061 251.319 156.439C251.906 154.816 252.156 153.091 252.054 151.369C251.951 149.647 251.499 147.964 250.725 146.422C249.951 144.88 248.871 143.512 247.55 142.402Z" fill="#FBBEAA"/>
<path d="M159.7 109.861C159.042 109.295 158.443 108.663 157.914 107.976C157.445 106.211 157.385 104.362 157.738 102.57C158.09 100.778 158.846 99.0899 159.948 97.6334C163.693 91.8544 171.555 87.3155 175.052 88.1836L178.525 89.9446L217.837 119.708C214.358 127.885 209.658 135.486 203.898 142.253L159.7 109.861Z" fill="#F18380"/>
<path d="M170.439 84.4133L232.082 125.988C231.823 128.115 238.657 84.4133 238.657 84.4133L257.993 86.9297C257.993 86.9297 257.599 131.058 254.713 154.478C253.56 163.828 245.85 167.397 236.646 165.389C232.102 164.397 227.824 162.533 224.017 159.861C207.659 148.379 161.765 116.038 158.013 111.969C151.54 104.95 151.539 99.6918 155.26 93.9128C158.98 88.1338 166.942 83.5452 170.439 84.4133Z" fill="#002A80"/>
<path d="M141.47 364.906L128.746 231.691C128.746 216.983 143.9 200.961 166.247 204.408C186.437 207.558 192.588 227.847 190.926 247.069C189.264 266.291 184.775 365.849 184.775 365.849C184.708 368.699 184.081 371.507 182.928 374.115C181.776 376.722 180.121 379.077 178.059 381.045C175.996 383.013 173.567 384.556 170.908 385.585C168.249 386.614 165.414 387.109 162.564 387.042C159.714 386.976 156.905 386.348 154.298 385.196C151.69 384.043 149.335 382.389 147.367 380.326C145.399 378.264 143.857 375.834 142.828 373.175C141.799 370.517 141.304 367.682 141.37 364.832L141.47 364.906Z" fill="#93929C"/>
<path d="M90.1536 362.252L102.803 229.062C105.482 214.602 123.463 201.779 144.769 209.369C163.991 216.239 166.223 237.321 160.965 255.899C155.707 274.476 132.616 371.404 132.616 371.404C131.269 376.899 127.833 381.652 123.038 384.653C118.242 387.654 112.465 388.666 106.935 387.474C101.405 386.282 96.5573 382.98 93.4235 378.27C90.2898 373.56 89.1167 367.813 90.1536 362.252Z" fill="#93929C"/>
<path d="M160.965 255.899C155.731 274.476 132.615 371.404 132.615 371.404" stroke="#5E5D63" stroke-width="0.75" stroke-miterlimit="10"/>
<path d="M157.244 82.3049C157.244 82.3049 168.207 84.2147 170.34 84.7852C171.599 85.0806 172.762 85.6907 173.72 86.5583C174.679 87.4259 175.402 88.5226 175.821 89.7457C177.185 92.9949 184.204 114.275 184.849 116.582C185.285 119.123 184.876 121.737 183.684 124.023C182.667 126.801 177.408 139.45 177.408 139.45L176.615 180.201L147.002 184.898L118.626 180.201C118.626 180.201 108.705 104.404 108.209 99.7164C107.713 95.0287 110.045 85.9758 115.65 84.8348C121.255 83.6939 136.633 82.3546 136.633 82.3546L157.244 82.3049Z" fill="#FBBEAA"/>
<path d="M178.005 163.816V178.142C158.61 179.928 127.704 178.663 116.097 178.142C115.551 174.05 114.981 167.105 114.385 162.492C130.185 162.889 156.278 164.361 178.005 163.816Z" fill="white"/>
<path d="M75.7183 176.555L107.49 92.9453C111.732 84.0164 118.007 83.4211 124.852 85.9014C128.018 87.1644 130.608 89.5495 132.127 92.6012C133.646 95.6529 133.988 99.1572 133.087 102.445L100.372 184.566C99.3805 187.69 97.217 190.309 94.3358 191.872C91.4546 193.435 88.0799 193.821 84.9201 192.949L84.4488 192.825C82.7821 192.371 81.2254 191.581 79.8737 190.505C78.522 189.429 77.4037 188.089 76.5868 186.566C75.7699 185.044 75.2716 183.371 75.1223 181.65C74.973 179.929 75.1758 178.195 75.7183 176.555Z" fill="#FBBEAA"/>
<path d="M88.8877 141.881L107.49 92.9452C107.989 91.872 108.578 90.8432 109.251 89.8697C111.529 88.4431 114.138 87.6295 116.823 87.5078C119.509 87.3861 122.18 87.9605 124.579 89.1752C127.364 90.5304 129.602 92.796 130.924 95.597C132.245 98.3981 132.571 101.566 131.846 104.578C131.846 104.875 131.672 105.446 131.523 106.215L112.326 154.456C103.941 151.432 96.0442 147.195 88.8877 141.881Z" fill="#F18380"/>
<path d="M109.226 88.4811L75 176.5C104.004 167.219 107.5 173.5 115.293 147.645C115.293 147.645 133.483 104.95 134.178 101.13C134.902 98.1192 134.577 94.9509 133.255 92.1499C131.934 89.3489 129.695 87.0832 126.91 85.728C119.147 81.7596 111.409 85.356 109.226 88.4811Z" fill="#003399"/>
<path d="M102.803 228.418C103.348 221.547 113.088 190.006 121 175C121 175 137.885 168.464 149 168.5C160.597 168.538 176 177.5 176 177.5C181.159 189.182 187.652 217.405 189.364 222.911C190.397 226.151 190.522 229.612 189.726 232.917C188.93 236.223 187.244 239.248 184.849 241.662C178.971 248.334 163.817 255.973 160.32 255.973C145.274 253.824 130.526 249.946 116.37 244.415C108.383 241.067 102.282 235.313 102.803 228.418Z" fill="#93929C"/>
<path d="M153.64 163.821L95.2825 187.749C88.0593 191.124 80.5897 190.28 77.3433 181.852C76.7496 180.281 76.4813 178.606 76.5547 176.928C76.628 175.25 77.0413 173.604 77.7697 172.091C78.498 170.577 79.5262 169.228 80.7919 168.124C82.0575 167.02 83.5343 166.184 85.1325 165.668L149.569 147.455C155.535 145.227 160.269 146.967 161.925 151.454C163.882 156.987 161.218 160.728 153.64 163.821Z" fill="#FBBEAA"/>
<path d="M160.041 78.5021C160.041 78.5021 173.725 86.4005 175.838 87.7828C177.951 89.165 177.5 91.5 179.945 97.0635C180.645 98.6562 185.757 104.194 185.5 113C184.8 137.019 177.674 178.576 177.674 178.576C173.401 180.881 168.857 182.646 164.148 183.828C161.877 184.085 160.08 184.144 158.54 182.643C157 181.143 152.458 175.693 152.458 175.693C152.458 175.693 144.975 180.767 141.598 182.643C140.793 183.205 139.884 183.599 138.924 183.803C137.964 184.006 136.973 184.015 136.01 183.828C131.093 182.821 111.742 177.174 111.13 176.818C110.518 176.463 109.945 176.088 110.004 175.416C110.063 174.745 110.419 97.7151 110.676 94.2398C110.726 92.3786 111.312 90.5714 112.363 89.0342C113.413 87.497 114.884 86.2948 116.599 85.5712C120.726 83.7348 136.227 77.4358 136.227 77.4358L152.399 88.6714L160.041 78.5021Z" fill="#003399"/>
<path d="M160.041 76.291L152.438 88.6719C152.438 88.6719 159.903 94.5957 160.337 95.0301C160.771 95.4645 161.64 95.425 161.818 94.7339C161.996 94.0428 164.148 80.9116 164.187 80.9116C164.225 80.842 164.245 80.7639 164.245 80.6845C164.245 80.6052 164.225 80.5271 164.187 80.4575C163.99 80.3192 160.041 76.291 160.041 76.291Z" fill="#F5F5F5"/>
<path d="M136.148 74L152.458 88.6714C152.458 88.6714 143.869 94.5952 143.494 95.0296C143.384 95.1227 143.255 95.1897 143.116 95.2256C142.977 95.2615 142.832 95.2653 142.691 95.2368C142.55 95.2083 142.418 95.1481 142.304 95.0609C142.19 94.9737 142.097 94.8618 142.032 94.7335C141.401 93.7264 131.29 79.5289 131.251 79.4104C131.209 79.3421 131.187 79.2635 131.187 79.1834C131.187 79.1032 131.209 79.0246 131.251 78.9563C131.468 78.8378 136.148 74 136.148 74Z" fill="#F5F5F5"/>
<g filter="url(#filter1_d_1_1976)">
<rect x="128.926" y="123.357" width="40.9288" height="58.3236" rx="1" transform="rotate(-6.55484 128.926 123.357)" fill="#EFEFEF"/>
</g>
<path d="M148.143 149.497C150.99 148.294 153.563 146.512 155.701 144.263C157.024 142.874 158.525 141.669 160.163 140.679C161.123 140.079 161.952 139.286 162.598 138.352C163.45 136.902 164.156 135.371 164.704 133.783C164.907 132.415 165.372 131.096 166.074 129.902C166.741 129.29 169.096 129.617 170.318 131.993C170.739 133.051 170.93 134.19 170.878 135.334C170.826 136.478 170.531 137.601 170.015 138.627C169.406 139.857 168.93 141.148 168.593 142.477L168.815 142.61C170.678 141.621 172.668 140.904 174.726 140.48C175.472 140.313 176.25 140.404 176.933 140.736C177.616 141.069 178.165 141.625 178.492 142.314C178.819 143.004 178.904 143.787 178.734 144.537C178.565 145.287 178.149 145.961 177.556 146.45C180.767 146.819 180.402 151.771 177.646 152.426C178.236 152.673 178.734 153.099 179.073 153.644C179.412 154.189 179.575 154.827 179.54 155.473C179.506 156.119 179.275 156.741 178.879 157.255C178.484 157.768 177.942 158.15 177.328 158.346C179.286 160.151 177.855 163.126 174.3 163.139C171.411 163.433 163.686 164.642 160.999 165.221C158.311 165.799 152.909 164.52 151.174 165.057C148.59 166.003 145.59 166.019 143.302 159.222C141.013 152.425 145.485 150.375 148.143 149.497Z" fill="#FBBEAA"/>
<path d="M147 170L94.0001 192.5C86.7763 195.873 78.245 192.929 75.0001 184.5C74.4067 182.929 74.3666 180.36 74.4402 178.682C74.5137 177.004 74.9274 175.358 75.656 173.845C76.3846 172.332 77.734 169.604 78.9999 168.5C80.2657 167.396 84.7765 165.359 86.3748 164.843L146 148.5L147 170Z" fill="#003399"/>
<path d="M251.301 69.0761L251.625 68.7405L252.098 69.1971L252.444 68.8389L251.971 68.3822L252.296 68.0466L253.587 69.2942L253.263 69.6299L252.752 69.1358L252.406 69.494L252.917 69.9881L252.593 70.3238L251.301 69.0762L251.301 69.0761ZM253.452 66.8486L254.744 68.0962L254.431 68.4206L253.445 67.4687L253.24 67.6812L253.611 68.0393C253.778 68.2002 253.971 68.4087 254 68.609C254.041 68.8219 253.917 69.0276 253.695 69.1801L253.375 68.8708C253.586 68.7295 253.552 68.6096 253.297 68.3626L252.618 67.7076L253.45 66.8463L253.452 66.8486ZM253.723 66.5684L254.047 66.2327L254.998 66.7839L254.414 65.8529L254.738 65.5172L256.182 66.6078L255.879 66.9209L255.113 66.3314L255.63 67.1785L255.414 67.4023L254.551 66.9135L255.167 67.6589L254.864 67.972L253.723 66.5684L253.723 66.5684ZM255.009 65.237L255.333 64.9013L255.857 65.4078L255.646 64.5769L256.003 64.2074L256.232 65.2499L257.306 65.4436L256.917 65.8461L256.101 65.6413L256.626 66.1479L256.302 66.4836L255.01 65.236L255.009 65.237L255.009 65.237ZM252.232 65.3464C250.287 67.3605 249.832 69.4963 251.059 70.6816C252.275 71.8555 254.404 71.3388 256.35 69.3238C258.306 67.2985 258.737 65.1615 257.523 63.9887C256.295 62.8034 254.188 63.3201 252.232 65.3464ZM256.159 69.1391C254.332 71.031 252.357 71.566 251.244 70.4906C250.118 69.4039 250.597 67.422 252.423 65.5311C254.26 63.629 256.213 63.0908 257.339 64.1786C258.453 65.254 257.997 67.2359 256.159 69.1391ZM252.602 65.7045C250.885 67.4834 250.417 69.3251 251.427 70.3007C252.437 71.2763 254.262 70.7447 255.98 68.9657C257.697 67.1868 258.165 65.3452 257.155 64.3695C256.146 63.3929 254.321 63.9245 252.602 65.7045ZM255.942 68.9295C254.245 70.6868 252.446 71.2187 251.461 70.2679C250.477 69.3172 250.946 67.4994 252.642 65.7431C254.338 63.9867 256.139 63.4538 257.123 64.4045C258.109 65.3542 257.639 67.1721 255.942 68.9295L255.942 68.9295Z" fill="white"/>
<defs>
<filter id="filter0_f_1_1976" x="0" y="498" width="247" height="63" filterUnits="userSpaceOnUse" color-interpolation-filters="sRGB">
<feFlood flood-opacity="0" result="BackgroundImageFix"/>
<feBlend mode="normal" in="SourceGraphic" in2="BackgroundImageFix" result="shape"/>
<feGaussianBlur stdDeviation="8.5" result="effect1_foregroundBlur_1_1976"/>
</filter>
<filter id="filter1_d_1_1976" x="129.034" y="118.792" width="49.1041" height="62.3995" filterUnits="userSpaceOnUse" color-interpolation-filters="sRGB">
<feFlood flood-opacity="0" result="BackgroundImageFix"/>
<feColorMatrix in="SourceAlpha" type="matrix" values="0 0 0 0 0 0 0 0 0 0 0 0 0 0 0 0 0 0 127 0" result="hardAlpha"/>
<feOffset dx="2"/>
<feComposite in2="hardAlpha" operator="out"/>
<feColorMatrix type="matrix" values="0 0 0 0 0.603922 0 0 0 0 0.6 0 0 0 0 0.631373 0 0 0 1 0"/>
<feBlend mode="normal" in2="BackgroundImageFix" result="effect1_dropShadow_1_1976"/>
<feBlend mode="normal" in="SourceGraphic" in2="effect1_dropShadow_1_1976" result="shape"/>
</filter>
</defs>
</svg>
