<svg width="194" height="514" viewBox="0 0 194 514" fill="none" xmlns="http://www.w3.org/2000/svg">
<path d="M170.787 70.3559C170.89 68.1209 170.291 65.9097 169.076 64.0313C167.205 61.8617 165.803 59.3283 164.959 56.5905C164.309 54.0491 163.272 51.623 161.883 49.3977C160.891 48.0335 159.403 46.9175 159.403 45.8757C159.403 44.834 161.387 42.825 164.215 43.3955C165.426 43.7728 166.538 44.4131 167.473 45.2707C168.408 46.1282 169.142 47.1818 169.622 48.356C169.892 47.6406 170.051 46.8877 170.093 46.1238L170.713 30.9198C170.722 30.5256 170.811 30.1374 170.973 29.7779C171.134 29.4184 171.367 29.0951 171.656 28.8269C171.945 28.5587 172.285 28.3512 172.655 28.2165C173.026 28.0818 173.419 28.0227 173.813 28.0427C174.44 28.0694 175.043 28.292 175.537 28.679C176.03 29.0661 176.391 29.5982 176.566 30.2005V29.506C176.662 28.7669 177.033 28.0913 177.606 27.6147C178.179 27.1382 178.911 26.8959 179.655 26.9367C180.399 26.9776 181.1 27.2984 181.618 27.8347C182.135 28.3711 182.43 29.0834 182.444 29.8285V31.9367C182.693 31.2867 183.167 30.7476 183.779 30.4177C184.392 30.0878 185.103 29.989 185.782 30.1393C186.461 30.2896 187.064 30.679 187.48 31.2366C187.897 31.7941 188.099 32.4827 188.05 33.1768V34.5161C188.317 34.047 188.715 33.6658 189.195 33.4191C189.675 33.1725 190.217 33.071 190.753 33.1272C191.489 33.2205 192.158 33.5963 192.621 34.175C193.084 34.7537 193.304 35.4898 193.234 36.2275L192.018 49.0505C191.222 56.2799 189.727 63.415 187.554 70.3559C187.528 71.5148 187.259 72.6553 186.766 73.7043C186.272 74.7532 185.565 75.6873 184.689 76.4465C183.813 77.2057 182.788 77.7731 181.679 78.1125C180.571 78.4518 179.404 78.5554 178.253 78.4167C177.211 78.4515 176.175 78.2619 175.213 77.8607C174.251 77.4595 173.387 76.8562 172.679 76.0916C171.971 75.3271 171.435 74.4192 171.109 73.4296C170.783 72.4399 170.673 71.3917 170.787 70.3559Z" fill="#FBBEAA"/>
<path d="M87.2026 475.134C87.2026 472.746 88.1512 470.456 89.8397 468.768C91.5281 467.079 93.8182 466.131 96.206 466.131C98.5938 466.131 100.884 467.079 102.572 468.768C104.261 470.456 105.209 472.746 105.209 475.134V494.703H87.2026V475.134Z" fill="#FBBEAA"/>
<path d="M104.565 478.78C106.772 478.78 107.169 479.748 107.814 481.012C108.86 484.383 110.648 487.477 113.047 490.065C116.629 493.116 120.471 495.847 124.531 498.225V508.593H84.4497C84.4497 508.593 84.7225 500.408 84.921 494.629C85.1194 488.85 85.6899 481.806 85.6403 481.062C85.5907 480.318 85.6402 478.78 87.0044 478.78H104.565Z" fill="#302D3B"/>
<path d="M89.4346 495.199C89.4297 496.472 89.803 497.717 90.5069 498.777C91.2109 499.838 92.2139 500.665 93.3887 501.154C94.5636 501.643 95.8572 501.773 97.1056 501.526C98.3541 501.279 99.5009 500.666 100.401 499.766C101.301 498.866 101.913 497.72 102.16 496.471C102.407 495.223 102.278 493.929 101.789 492.754C101.299 491.579 100.472 490.576 99.4119 489.872C98.3517 489.168 97.1064 488.795 95.8337 488.8C94.1386 488.807 92.5147 489.483 91.3161 490.682C90.1174 491.88 89.4412 493.504 89.4346 495.199Z" fill="#93929C"/>
<path d="M95.8337 491.429L94.3703 493.587L91.8652 494.306L93.4526 496.365L93.3782 498.969L95.8337 498.076L98.2891 498.969L98.1899 496.365L99.8021 494.306L97.297 493.587L95.8337 491.429Z" fill="white"/>
<path d="M124.258 498.052C124.258 498.052 129.937 501.053 132.07 502.516C133.058 503.185 133.86 504.094 134.402 505.156C134.944 506.219 135.209 507.401 135.171 508.593H119.595C119.595 508.593 119.917 500.979 124.258 498.052Z" fill="white"/>
<path d="M84.4497 508.593V512.884C84.4497 513.603 85.0946 514 86.1859 514H133.46C134.526 514 135.171 513.603 135.171 512.884V508.593H84.4497Z" fill="white"/>
<path d="M119.595 495.15C119.732 494.939 119.946 494.79 120.191 494.734C120.437 494.679 120.694 494.721 120.909 494.852C121.016 494.918 121.109 495.005 121.182 495.107C121.255 495.209 121.307 495.324 121.334 495.447C121.362 495.569 121.365 495.696 121.343 495.82C121.321 495.943 121.275 496.061 121.207 496.167L119.545 498.845C119.465 498.984 119.349 499.099 119.209 499.177C119.07 499.256 118.911 499.296 118.751 499.292C118.568 499.289 118.388 499.238 118.23 499.143C118.123 499.077 118.031 498.991 117.958 498.889C117.885 498.787 117.833 498.671 117.805 498.548C117.777 498.426 117.774 498.299 117.796 498.176C117.818 498.052 117.865 497.934 117.933 497.829L119.595 495.15Z" fill="white"/>
<path d="M116.668 493.091C116.749 492.997 116.848 492.919 116.96 492.863C117.071 492.807 117.193 492.773 117.317 492.764C117.441 492.755 117.566 492.77 117.685 492.809C117.803 492.848 117.913 492.91 118.007 492.992C118.102 493.073 118.179 493.172 118.235 493.284C118.291 493.395 118.325 493.517 118.334 493.641C118.343 493.765 118.328 493.89 118.289 494.009C118.25 494.127 118.188 494.237 118.106 494.331L116.172 496.613C116.082 496.718 115.972 496.802 115.849 496.862C115.725 496.922 115.59 496.955 115.452 496.96C115.273 496.957 115.098 496.904 114.947 496.806C114.796 496.709 114.675 496.571 114.597 496.409C114.52 496.247 114.49 496.066 114.509 495.888C114.529 495.709 114.598 495.539 114.708 495.398L116.668 493.091Z" fill="white"/>
<path d="M113.915 490.785C114.112 490.658 114.349 490.607 114.581 490.641C114.814 490.676 115.025 490.793 115.177 490.973C115.329 491.152 115.41 491.38 115.406 491.614C115.402 491.849 115.313 492.074 115.155 492.248L112.948 494.158C112.775 494.305 112.555 494.384 112.328 494.381C112.191 494.386 112.055 494.36 111.931 494.304C111.806 494.248 111.696 494.164 111.609 494.059C111.517 493.973 111.444 493.869 111.394 493.754C111.344 493.639 111.318 493.515 111.318 493.389C111.318 493.264 111.344 493.139 111.394 493.024C111.444 492.909 111.517 492.805 111.609 492.719L113.915 490.785Z" fill="white"/>
<path d="M109.079 489.644L111.559 488.106C111.777 487.977 112.036 487.939 112.282 487.999C112.528 488.059 112.74 488.213 112.873 488.428C112.94 488.535 112.985 488.655 113.005 488.779C113.026 488.904 113.02 489.031 112.99 489.154C112.96 489.276 112.906 489.392 112.83 489.493C112.755 489.594 112.66 489.679 112.551 489.743L110.071 491.281C109.924 491.378 109.751 491.43 109.575 491.429C109.413 491.426 109.255 491.38 109.116 491.298C108.977 491.215 108.862 491.098 108.781 490.958C108.65 490.743 108.607 490.486 108.663 490.241C108.719 489.995 108.868 489.781 109.079 489.644Z" fill="white"/>
<path d="M106.995 486.444L109.772 485.279C110.009 485.18 110.276 485.18 110.513 485.277C110.75 485.375 110.939 485.563 111.037 485.8C111.086 485.915 111.111 486.039 111.111 486.164C111.111 486.29 111.086 486.414 111.037 486.529C110.989 486.644 110.918 486.749 110.828 486.837C110.739 486.924 110.633 486.993 110.517 487.04L107.739 488.205H107.367C107.153 488.194 106.949 488.112 106.786 487.972C106.624 487.832 106.513 487.642 106.47 487.432C106.428 487.222 106.456 487.003 106.551 486.811C106.646 486.619 106.802 486.464 106.995 486.37V486.444Z" fill="white"/>
<path d="M105.259 482.873L108.334 482.104C108.578 482.044 108.835 482.084 109.049 482.215C109.263 482.345 109.416 482.555 109.475 482.798C109.534 483.042 109.495 483.298 109.364 483.512C109.234 483.726 109.024 483.88 108.781 483.939L105.73 484.733H105.507C105.293 484.73 105.086 484.659 104.916 484.529C104.746 484.4 104.623 484.219 104.564 484.013C104.511 483.77 104.554 483.516 104.683 483.304C104.812 483.091 105.019 482.937 105.259 482.873Z" fill="white"/>
<path d="M74.0322 349.98C74.3051 337.976 82.3907 332.172 94.3703 332.47C106.35 332.767 114.981 339.043 114.708 351.022L105.209 476.102H87.2024L74.0322 349.98Z" fill="#FBBEAA"/>
<path d="M11.3062 475.134C11.3062 472.746 12.2547 470.456 13.9432 468.768C15.6316 467.079 17.9217 466.131 20.3095 466.131C22.6973 466.131 24.9874 467.079 26.6758 468.768C28.3643 470.456 29.3129 472.746 29.3129 475.134V494.703H11.3062V475.134Z" fill="#FBBEAA"/>
<path d="M28.6438 478.78C30.8761 478.78 31.2729 479.748 31.893 481.012C32.9508 484.384 34.7471 487.476 37.1511 490.065C40.7282 493.122 44.5714 495.853 48.6347 498.225V508.593H8.55371C8.55371 508.593 8.82655 500.408 9.02497 494.629C9.22339 488.85 9.76907 481.806 9.74426 481.062C9.71946 480.318 9.74425 478.78 11.0836 478.78H28.6438Z" fill="#302D3B"/>
<path d="M13.5142 495.199C13.5093 496.471 13.8819 497.715 14.5848 498.775C15.2876 499.834 16.2892 500.662 17.4625 501.152C18.6359 501.642 19.9283 501.772 21.176 501.527C22.4238 501.282 23.5707 500.672 24.4716 499.775C25.3725 498.878 25.9868 497.733 26.2367 496.486C26.4865 495.24 26.3608 493.947 25.8753 492.771C25.3898 491.596 24.5665 490.591 23.5096 489.884C22.4526 489.177 21.2097 488.8 19.9381 488.8C18.2387 488.8 16.6085 489.473 15.4045 490.673C14.2005 491.872 13.5208 493.5 13.5142 495.199Z" fill="#93929C"/>
<path d="M19.9133 491.429L18.4499 493.587L15.9448 494.306L17.557 496.365L17.4826 498.969L19.9133 498.076L22.3687 498.969L22.2943 496.365L23.9065 494.306L21.3766 493.587L19.9133 491.429Z" fill="white"/>
<path d="M48.3364 498.052C48.3364 498.052 54.041 501.053 56.1492 502.516C57.1418 503.18 57.9478 504.087 58.4905 505.151C59.0332 506.215 59.2945 507.4 59.2496 508.593H43.5991C43.5991 508.593 44.0208 500.979 48.3364 498.052Z" fill="white"/>
<path d="M8.55371 508.593V512.884C8.55371 513.603 9.17378 514 10.2651 514H57.5885C58.6798 514 59.2998 513.603 59.2998 512.884V508.593H8.55371Z" fill="white"/>
<path d="M43.6986 495.15C43.8334 494.936 44.0477 494.785 44.2942 494.729C44.5407 494.673 44.7993 494.717 45.0131 494.852C45.2269 494.987 45.3783 495.201 45.4342 495.448C45.49 495.694 45.4456 495.953 45.3107 496.167L43.649 498.846C43.563 498.985 43.4423 499.099 43.2988 499.177C43.1553 499.255 42.9939 499.295 42.8305 499.292C42.6541 499.292 42.4815 499.241 42.3344 499.143C42.2275 499.077 42.1348 498.991 42.0617 498.889C41.9887 498.787 41.9367 498.671 41.909 498.549C41.8813 498.426 41.8783 498.299 41.9002 498.176C41.9222 498.052 41.9686 497.934 42.0368 497.829L43.6986 495.15Z" fill="white"/>
<path d="M40.747 493.091C40.9105 492.901 41.1416 492.781 41.3915 492.758C41.6415 492.735 41.8906 492.81 42.0863 492.967C42.2783 493.135 42.3984 493.37 42.4215 493.624C42.4446 493.878 42.369 494.132 42.2103 494.331L40.2509 496.613C40.1649 496.721 40.0556 496.809 39.931 496.869C39.8064 496.929 39.6699 496.96 39.5316 496.96C39.3498 496.962 39.1713 496.911 39.0177 496.814C38.8641 496.717 38.742 496.577 38.666 496.412C38.5899 496.247 38.5633 496.063 38.5893 495.883C38.6152 495.703 38.6927 495.535 38.8123 495.398L40.747 493.091Z" fill="white"/>
<path d="M38.019 490.785C38.2163 490.658 38.4531 490.607 38.6853 490.641C38.9175 490.676 39.1292 490.793 39.281 490.973C39.4327 491.152 39.5142 491.38 39.5102 491.614C39.5061 491.849 39.4169 492.074 39.2591 492.248L37.0269 494.158C36.8538 494.305 36.6336 494.384 36.4068 494.381C36.2705 494.384 36.1352 494.357 36.0108 494.301C35.8864 494.245 35.7759 494.163 35.6875 494.059C35.599 493.971 35.5288 493.867 35.4808 493.752C35.4329 493.637 35.4082 493.514 35.4082 493.389C35.4082 493.265 35.4329 493.141 35.4808 493.026C35.5288 492.911 35.599 492.807 35.6875 492.719L38.019 490.785Z" fill="white"/>
<path d="M33.1824 489.644L35.6626 488.106C35.8766 488.016 36.1159 488.005 36.3368 488.077C36.5578 488.148 36.7456 488.297 36.8659 488.496C36.9863 488.694 37.0312 488.93 36.9924 489.159C36.9537 489.388 36.8338 489.595 36.6547 489.743L34.1745 491.281C34.0275 491.378 33.8548 491.43 33.6784 491.429C33.5131 491.427 33.3511 491.383 33.2078 491.301C33.0645 491.218 32.9447 491.1 32.8599 490.958C32.7311 490.74 32.6927 490.481 32.7529 490.235C32.8132 489.989 32.9674 489.777 33.1824 489.644Z" fill="white"/>
<path d="M170.49 72.0179L160.569 134.297C158.932 142.11 161.461 149.179 170.49 150.419C172.156 150.636 173.849 150.512 175.466 150.055C177.084 149.597 178.591 148.816 179.897 147.758C181.203 146.701 182.28 145.388 183.063 143.902C183.847 142.415 184.32 140.784 184.453 139.109L187.479 72.1419C188.273 65.8172 185.52 61.6008 180.708 61.08C174.805 60.4351 171.68 63.9323 170.49 72.0179Z" fill="#FBBEAA"/>
<path d="M31.0992 486.445L33.8771 485.279C33.9926 485.23 34.1165 485.206 34.2418 485.206C34.367 485.206 34.4909 485.231 34.6064 485.279C34.7219 485.328 34.8265 485.399 34.9142 485.488C35.0019 485.577 35.0709 485.683 35.1172 485.8C35.2098 486.031 35.21 486.288 35.1176 486.519C35.0252 486.75 34.8474 486.937 34.6212 487.04L31.8185 488.206C31.7041 488.231 31.5855 488.231 31.4712 488.206C31.2802 488.206 31.0935 488.149 30.9346 488.043C30.7757 487.937 30.6518 487.787 30.5783 487.61C30.503 487.386 30.5148 487.142 30.6113 486.926C30.7078 486.71 30.8819 486.538 31.0992 486.445Z" fill="white"/>
<path d="M29.3625 482.873L32.4133 482.104C32.6598 482.044 32.9202 482.083 33.1383 482.212C33.3564 482.342 33.5147 482.553 33.579 482.798C33.6086 482.919 33.614 483.044 33.5951 483.167C33.5762 483.289 33.5332 483.407 33.4687 483.513C33.4042 483.619 33.3194 483.711 33.2191 483.784C33.1189 483.858 33.0051 483.91 32.8845 483.939L29.8338 484.733H29.5858C29.3623 484.716 29.1517 484.622 28.99 484.466C28.8283 484.311 28.7255 484.105 28.6991 483.882C28.6727 483.66 28.7245 483.435 28.8455 483.246C28.9665 483.058 29.1493 482.917 29.3625 482.848V482.873Z" fill="white"/>
<path d="M21.1533 349.608C22.3717 343.978 25.7759 339.062 30.6176 335.942C35.4593 332.821 41.3422 331.75 46.9729 332.966C58.7045 335.446 65.0291 347.004 62.4993 358.736L29.3134 478.16H11.0835L21.1533 349.608Z" fill="#FBBEAA"/>
<path d="M72.4692 349.2C72.536 346.35 73.1635 343.541 74.3158 340.933C75.4681 338.326 77.1228 335.971 79.1852 334.003C81.2477 332.035 83.6776 330.492 86.3361 329.463C88.9947 328.434 91.8299 327.939 94.6799 328.006C97.5299 328.073 100.339 328.7 102.946 329.853C105.554 331.005 107.909 332.659 109.877 334.722C111.845 336.784 113.387 339.214 114.416 341.873C115.445 344.531 115.941 347.367 115.874 350.217L121.505 478.794H72.4702L72.4692 349.2Z" fill="#93929C"/>
<path d="M21.1562 346.546C22.5023 341.051 25.9384 336.298 30.7341 333.297C35.5298 330.296 41.3069 329.284 46.8371 330.476C52.3673 331.668 57.2145 334.97 60.3482 339.68C63.482 344.39 64.655 350.137 63.6181 355.698L50.4237 478.294C50.4237 478.294 18.8252 480.179 0 478.294L21.1562 346.546Z" fill="#93929C"/>
<path d="M178.551 127.402L107.318 73.2827C99.0087 67.9749 93.3538 70.8024 88.939 76.4822C86.9228 79.2313 85.988 82.6258 86.3127 86.0195C86.6374 89.4132 88.199 92.5689 90.6999 94.8858L161.759 147.244C164.263 149.359 167.487 150.426 170.758 150.223C174.03 150.019 177.097 148.561 179.32 146.153L179.642 145.806C180.822 144.547 181.733 143.061 182.319 141.439C182.906 139.816 183.156 138.091 183.054 136.369C182.952 134.647 182.5 132.964 181.725 131.422C180.951 129.88 179.871 128.512 178.551 127.402Z" fill="#FBBEAA"/>
<path d="M90.6993 94.8611C90.0416 94.295 89.4432 93.6634 88.9135 92.9761C88.4452 91.2108 88.3849 89.3621 88.7373 87.5701C89.0896 85.7781 89.8455 84.0899 90.9474 82.6334C94.6926 76.8544 102.555 72.3155 106.052 73.1836L109.524 74.9446L148.837 104.708C145.357 112.885 140.657 120.486 134.898 127.253L90.6993 94.8611Z" fill="#F18380"/>
<path d="M101.439 69.4133L163.082 110.988C162.823 113.115 169.657 69.4133 169.657 69.4133L188.993 71.9297C188.993 71.9297 188.599 116.058 185.713 139.478C184.56 148.828 176.85 152.397 167.646 150.389C163.102 149.397 158.824 147.533 155.017 144.861C138.659 133.379 92.7652 101.038 89.013 96.9691C82.5395 89.9499 82.5395 84.6918 86.2599 78.9128C89.9803 73.1338 97.9419 68.5452 101.439 69.4133Z" fill="#002B80"/>
<path d="M72.4693 349.906L59.7456 216.691C59.7456 201.983 74.9 185.961 97.2471 189.408C117.436 192.558 123.588 212.847 121.926 232.069C120.264 251.291 115.775 350.849 115.775 350.849C115.708 353.699 115.08 356.507 113.928 359.115C112.776 361.722 111.121 364.077 109.059 366.045C106.996 368.013 104.566 369.556 101.908 370.585C99.2492 371.614 96.4139 372.109 93.564 372.042C90.714 371.976 87.905 371.348 85.2975 370.196C82.6901 369.043 80.3351 367.389 78.367 365.326C76.399 363.264 74.8565 360.834 73.8276 358.175C72.7986 355.517 72.3034 352.682 72.3702 349.832L72.4693 349.906Z" fill="#93929C"/>
<path d="M21.1538 347.252L33.8031 214.062C36.4818 199.602 54.4637 186.779 75.7691 194.369C94.9911 201.239 97.2233 222.321 91.9652 240.899C86.707 259.476 63.6158 356.404 63.6158 356.404C62.2697 361.899 58.8336 366.652 54.0379 369.653C49.2422 372.654 43.4651 373.666 37.9349 372.474C32.4047 371.282 27.5575 367.98 24.4238 363.27C21.29 358.56 20.1169 352.813 21.1538 347.252Z" fill="#93929C"/>
<path d="M91.9646 240.899C86.7312 259.476 63.6152 356.404 63.6152 356.404" stroke="#5E5D63" stroke-width="0.75" stroke-miterlimit="10"/>
<path d="M88.2442 67.3049C88.2442 67.3049 99.207 69.2147 101.34 69.7852C102.599 70.0806 103.762 70.6907 104.721 71.5583C105.679 72.4259 106.402 73.5226 106.821 74.7457C108.186 77.9949 115.205 99.2755 115.85 101.582C116.286 104.123 115.876 106.737 114.684 109.023C113.667 111.801 108.409 124.45 108.409 124.45L107.615 165.201L78.0021 169.898L49.6266 165.201C49.6266 165.201 39.7056 89.4041 39.2095 84.7164C38.7135 80.0287 41.0449 70.9758 46.6503 69.8348C52.2557 68.6939 67.6333 67.3546 67.6333 67.3546L88.2442 67.3049Z" fill="#FBBEAA"/>
<path d="M109.006 148.816V163.142C89.61 164.928 58.7047 163.663 47.0971 163.142C46.5515 159.05 45.981 152.105 45.3857 147.492C61.185 147.889 87.2786 149.361 109.006 148.816Z" fill="white"/>
<path d="M6.71834 161.555L38.4905 77.9453C42.7317 69.0164 49.0068 68.4211 55.8523 70.9014C59.0185 72.1644 61.6085 74.5495 63.1274 77.6012C64.6464 80.6529 64.9879 84.1572 64.0867 87.4448L31.3721 169.566C30.3805 172.69 28.217 175.309 25.3358 176.872C22.4546 178.435 19.0799 178.821 15.9201 177.949L15.4488 177.825C13.7821 177.371 12.2254 176.581 10.8737 175.505C9.52205 174.429 8.40368 173.089 7.58679 171.566C6.7699 170.044 6.27162 168.371 6.12231 166.65C5.973 164.929 6.1758 163.195 6.71834 161.555Z" fill="#FBBEAA"/>
<path d="M19.8877 126.881L38.4896 77.9452C38.9885 76.8721 39.5776 75.8432 40.2506 74.8698C42.5292 73.4431 45.1378 72.6295 47.8234 72.5079C50.5089 72.3862 53.1804 72.9606 55.5786 74.1753C58.3635 75.5305 60.6021 77.7961 61.9237 80.5971C63.2453 83.3981 63.5706 86.5665 62.8458 89.5777C62.8458 89.8753 62.6722 90.4458 62.5234 91.2147L43.3261 139.456C34.9409 136.432 27.0442 132.195 19.8877 126.881Z" fill="#F18380"/>
<path d="M40.2262 73.4811L6 161.5C35.0039 152.219 38.5 158.5 46.293 132.645C46.293 132.645 64.4831 89.95 65.1776 86.1304C65.9024 83.1192 65.5771 79.9509 64.2555 77.1499C62.9339 74.3489 60.6953 72.0832 57.9104 70.728C50.1472 66.7596 42.4088 70.356 40.2262 73.4811Z" fill="#003399"/>
<path d="M66.6654 7.90263C65.3509 4.7279 58.7286 3.31417 55.0082 5.05035C51.2878 6.78653 47.5674 11.3502 47.0217 23.7515C46.4761 36.1528 47.493 45.6273 45.2607 51.8776C47.3241 51.6167 49.265 50.7541 50.8413 49.3973C50.8413 51.0343 51.0894 55.0027 51.0894 55.0027C52.2899 54.9052 53.4373 54.4655 54.3956 53.7357C55.354 53.006 56.083 52.0169 56.4963 50.8855C57.1693 52.3169 57.597 53.8513 57.7613 55.4244C59.9439 54.2835 66.6654 52.2993 66.6654 40.5429V7.90263Z" fill="#1D1B24"/>
<path d="M109.897 49.1002C109.227 40.0968 106.573 25.2152 106.573 25.2152L100.224 24.868C100.224 24.868 98.5373 51.6796 98.066 57.533C97.5948 63.3864 95.9082 64.9738 95.9082 64.9738C95.9082 64.9738 103.969 63.8577 105.234 56.2929C105.419 57.774 105.519 59.2647 105.532 60.7574C105.532 60.7574 110.591 58.1035 109.897 49.1002Z" fill="#302D3B"/>
<path d="M66.939 46.8185V67.8759C66.939 67.8759 68.6007 75.1182 79.7371 75.1182C81.948 75.3047 84.1464 74.6375 85.8807 73.2537C87.6151 71.8699 88.7538 69.8746 89.0629 67.6775V46.8432L66.939 46.8185Z" fill="#FBBEAA"/>
<path d="M89.0629 64.3539C82.0685 67.6774 71.8747 64.7011 66.939 55.5738V46.8185H89.0629V64.3539Z" fill="#F18380"/>
<path d="M102.877 30.6718C102.983 35.7083 102.751 40.7462 102.183 45.7517C101.29 52.9197 98.7601 60.8566 86.0859 60.8566C73.4118 60.8566 66.988 55.1271 64.2597 45.7517C62.6227 40.0967 59.2992 31.7135 60.6633 22.0404C62.0275 12.3674 67.8561 6.04283 81.6215 5.67079C95.3869 5.29876 104.316 11.4498 102.877 30.6718Z" fill="#FBBEAA"/>
<path d="M76.0662 34.9622C76.1501 35.3349 76.3373 35.6764 76.6063 35.9477C76.8753 36.219 77.2153 36.4089 77.5873 36.4959C77.9593 36.5829 78.3483 36.5634 78.7097 36.4395C79.0711 36.3157 79.3903 36.0926 79.6308 35.7957C79.8712 35.4988 80.0232 35.1403 80.0693 34.761C80.1154 34.3818 80.0538 33.9972 79.8914 33.6514C79.7291 33.3055 79.4726 33.0124 79.1514 32.8056C78.8302 32.5988 78.4572 32.4866 78.0752 32.4819C77.7792 32.5097 77.4917 32.5963 77.2296 32.7366C76.9675 32.877 76.7361 33.0684 76.5489 33.2994C76.3618 33.5304 76.2227 33.7965 76.1398 34.0821C76.0569 34.3676 76.0319 34.6669 76.0662 34.9622Z" fill="#403D4F"/>
<path d="M94.5191 34.9622C94.6032 35.336 94.7911 35.6783 95.0613 35.95C95.3315 36.2216 95.6728 36.4114 96.0461 36.4975C96.4194 36.5836 96.8095 36.5625 97.1714 36.4367C97.5332 36.3108 97.8521 36.0854 98.0915 35.7862C98.3308 35.4871 98.4807 35.1264 98.524 34.7458C98.5674 34.3651 98.5024 33.98 98.3364 33.6347C98.1704 33.2894 97.9103 32.998 97.586 32.7941C97.2617 32.5901 96.8864 32.4819 96.5033 32.4819C96.2095 32.5127 95.9246 32.6016 95.6654 32.7433C95.4061 32.885 95.1776 33.0768 94.993 33.3075C94.8085 33.5382 94.6716 33.8033 94.5902 34.0874C94.5088 34.3714 94.4847 34.6687 94.5191 34.9622Z" fill="#403D4F"/>
<path d="M82.0679 27.9436L81.8695 27.7204C81.6616 27.5426 81.4374 27.3848 81.1998 27.2492C80.892 27.0599 80.5576 26.9178 80.2077 26.8276C79.8183 26.6809 79.4081 26.5971 78.9924 26.5795C78.5971 26.53 78.1972 26.53 77.8019 26.5795C77.4553 26.5493 77.1067 26.5493 76.7602 26.5795L75.7929 26.8523C75.659 26.9059 75.547 27.0028 75.4747 27.1275C75.4024 27.2522 75.3739 27.3976 75.3939 27.5404C75.4139 27.6832 75.4812 27.8151 75.585 27.9152C75.6888 28.0152 75.8231 28.0777 75.9665 28.0924H76.9586C77.2467 28.055 77.5385 28.055 77.8267 28.0924C78.1487 28.0678 78.472 28.0678 78.794 28.0924C79.111 28.1339 79.4255 28.1918 79.7365 28.2661C80.0341 28.2661 80.2821 28.4645 80.5302 28.4893C80.7052 28.5669 80.8882 28.6251 81.0758 28.6629H81.2742C81.4326 28.7313 81.6113 28.736 81.773 28.6759C81.9347 28.6159 82.067 28.4957 82.1423 28.3405C82.1792 28.2542 82.1982 28.1615 82.1982 28.0677C82.1982 27.9739 82.1792 27.8811 82.1423 27.7948L82.0679 27.9436Z" fill="#403D4F"/>
<path d="M94.1217 28.8856H94.2953L94.6674 28.7368H94.9402C95.0325 28.6806 95.1329 28.6388 95.2378 28.6128C95.4486 28.5405 95.6641 28.4825 95.8827 28.4392C96.1212 28.4042 96.3635 28.4042 96.602 28.4392C96.808 28.4154 97.016 28.4154 97.222 28.4392H98.0157C98.1824 28.4328 98.3401 28.3619 98.4557 28.2417C98.5714 28.1214 98.6359 27.9611 98.6357 27.7943C98.6377 27.6696 98.6004 27.5475 98.5292 27.4451C98.458 27.3428 98.3565 27.2653 98.239 27.2238L97.47 26.951C97.1986 26.8569 96.9139 26.8067 96.6267 26.8022C96.2905 26.7407 95.946 26.7407 95.6098 26.8022C94.9596 26.8727 94.3416 27.1217 93.824 27.5215C93.6488 27.6593 93.4906 27.8175 93.3528 27.9927C93.2288 28.1416 93.2288 28.1911 93.2288 28.1911V28.4392C93.2075 28.6066 93.2527 28.7757 93.3547 28.9102C93.4568 29.0447 93.6074 29.1339 93.7744 29.1585C93.8488 29.1412 93.9184 29.1078 93.9784 29.0607C94.0384 29.0135 94.0874 28.9537 94.1217 28.8856Z" fill="#403D4F"/>
<path d="M33.8025 213.418C34.3482 206.547 44.088 175.006 52 160C52 160 68.885 153.464 80 153.5C91.5969 153.538 107 162.5 107 162.5C112.159 174.182 118.652 202.405 120.364 207.911C121.397 211.151 121.522 214.612 120.726 217.917C119.93 221.223 118.244 224.248 115.849 226.662C109.971 233.334 94.8169 240.973 91.3197 240.973C76.2738 238.824 61.5262 234.946 47.3695 229.415C39.3831 226.067 33.2816 220.313 33.8025 213.418Z" fill="#93929C"/>
<path d="M89.0627 43.3951C89.4816 43.3987 89.8968 43.3144 90.2812 43.1478C90.6657 42.9812 91.0109 42.7359 91.2949 42.4278C91.3993 42.32 91.4797 42.1914 91.531 42.0503C91.5823 41.9093 91.6033 41.759 91.5925 41.6094C91.5925 41.3365 91.1709 37.9138 91.0221 36.6488C91.0036 36.5215 90.9362 36.4063 90.8344 36.3277C90.7326 36.249 90.6043 36.2129 90.4764 36.2272C90.3537 36.2455 90.2424 36.3092 90.1643 36.4056C90.0863 36.502 90.0472 36.6242 90.0547 36.7481C90.0547 36.9465 90.6004 41.4358 90.65 41.7086C90.4469 41.9334 90.1978 42.1117 89.9196 42.2315C89.6414 42.3514 89.3407 42.4099 89.0378 42.4031C88.9771 42.403 88.9169 42.4153 88.8611 42.4392C88.8052 42.4632 88.7548 42.4983 88.713 42.5424C88.6712 42.5865 88.6389 42.6388 88.618 42.6958C88.597 42.7529 88.588 42.8136 88.5914 42.8743C88.58 42.941 88.5838 43.0094 88.6027 43.0744C88.6216 43.1393 88.655 43.1991 88.7004 43.2493C88.7458 43.2995 88.802 43.3387 88.8647 43.364C88.9275 43.3892 88.9952 43.3999 89.0627 43.3951Z" fill="#F18380"/>
<path d="M72.7668 1.57829C86.5074 -2.71256 96.2797 2.66964 99.38 6.73727C100.637 6.32416 101.749 5.55667 102.58 4.52708C103.412 3.49748 103.928 2.24961 104.068 0.933471C104.785 1.32708 105.358 1.93927 105.703 2.68104C106.049 3.4228 106.149 4.25541 105.988 5.05775C105.828 5.86009 105.415 6.59028 104.811 7.14214C104.207 7.69401 103.443 8.03877 102.629 8.12621C107.59 9.76318 110.492 14.7485 110.343 20.9244C110.134 23.1822 109.337 25.346 108.032 27.1999C106.726 29.0538 104.957 30.533 102.902 31.4902C101.458 27.1604 99.2858 23.1089 96.4781 19.5106C95.7056 22.6845 94.068 25.5819 91.7473 27.8807C89.4266 30.1795 86.5138 31.7896 83.3327 32.532C83.6412 30.6212 84.1311 28.7442 84.7961 26.9265C82.0147 29.2496 78.7132 30.8663 75.1727 31.6391C74.9255 29.5335 74.984 27.4032 75.3463 25.3144C72.866 29.7789 68.6992 36.55 62.5481 38.435H58.6789C56.6445 34.2645 55.6812 29.6529 55.8762 25.0168C55.9258 16.4351 59.0262 5.86914 72.7668 1.57829Z" fill="#302D3B"/>
<path d="M64.7557 39.9482C64.5573 36.5751 63.6644 32.5075 59.5471 33.2267C54.7354 33.946 54.2642 46.9674 64.5076 45.4048L64.7557 39.9482Z" fill="#FBBEAA"/>
<path d="M59.1506 40.8163C59.2368 40.8175 59.3217 40.795 59.3961 40.7513C59.4704 40.7076 59.5314 40.6442 59.5722 40.5683C59.6772 40.3505 59.8382 40.1646 60.0386 40.0295C60.2391 39.8944 60.4719 39.815 60.7131 39.7994C60.9965 39.8023 61.2745 39.8766 61.5216 40.0153C61.7687 40.154 61.9769 40.3527 62.1269 40.5931C62.1826 40.6823 62.2666 40.7504 62.3655 40.7863C62.4644 40.8223 62.5725 40.8241 62.6725 40.7915C62.7724 40.7544 62.8577 40.6862 62.9158 40.5968C62.9739 40.5075 63.0016 40.4018 62.995 40.2955C62.9578 39.2476 62.6326 38.2303 62.0551 37.3552C61.4775 36.4801 60.6699 35.7811 59.721 35.335C59.6026 35.2957 59.4735 35.3049 59.3619 35.3607C59.2503 35.4165 59.1654 35.5143 59.1258 35.6326C59.0865 35.751 59.0957 35.8802 59.1515 35.9917C59.2073 36.1033 59.3051 36.1882 59.4234 36.2278C59.9808 36.4988 60.4772 36.8804 60.8823 37.3495C61.2874 37.8186 61.5927 38.3652 61.7796 38.9561C61.426 38.8088 61.0467 38.7329 60.6635 38.7329C60.2626 38.7708 59.8769 38.9058 59.5399 39.1262C59.2028 39.3466 58.9245 39.6458 58.7289 39.9979C58.6988 40.0531 58.6801 40.1137 58.6738 40.1763C58.6675 40.2388 58.6737 40.302 58.6922 40.3621C58.7107 40.4222 58.7411 40.478 58.7814 40.5262C58.8218 40.5744 58.8714 40.614 58.9273 40.6427L59.1506 40.8163Z" fill="#F18380"/>
<path d="M59.7705 48.3806C60.961 39.4269 64.3837 24.6941 64.3837 24.6941H70.758C70.758 24.6941 71.006 51.5553 71.1796 57.4335C71.3533 63.3118 72.9158 65.0727 72.9158 65.0727C72.9158 65.0727 64.9294 63.535 64.0613 55.8958C63.7951 57.3717 63.6211 58.8627 63.5404 60.3602C63.5404 60.3602 58.6047 57.3344 59.7705 48.3806Z" fill="#302D3B"/>
<path d="M84.6401 148.821L26.2827 172.749C19.0595 176.124 11.5899 175.28 8.34349 166.852C7.74987 165.281 7.48159 163.606 7.55489 161.928C7.6282 160.25 8.04154 158.604 8.76991 157.091C9.49829 155.577 10.5265 154.228 11.7921 153.124C13.0578 152.02 14.5345 151.184 16.1328 150.668L80.5693 132.455C86.5347 130.227 91.2694 131.967 92.9256 136.454C94.8826 141.987 92.218 145.728 84.6401 148.821Z" fill="#FBBEAA"/>
<path d="M91.041 63.5021C91.041 63.5021 104.725 71.4005 106.838 72.7828C108.951 74.165 108.5 76.5 110.945 82.0635C111.645 83.6562 116.757 89.1937 116.5 98C115.8 122.019 108.674 163.576 108.674 163.576C104.401 165.881 99.8575 167.646 95.1481 168.828C92.8773 169.085 91.0804 169.144 89.5402 167.643C88 166.143 83.4584 160.693 83.4584 160.693C83.4584 160.693 75.9747 165.767 72.5981 167.643C71.7934 168.205 70.8841 168.599 69.9242 168.803C68.9642 169.006 67.9732 169.015 67.0099 168.828C62.0931 167.821 42.7419 162.174 42.1297 161.818C41.5176 161.463 40.945 161.088 41.0042 160.416C41.0635 159.745 41.4189 82.7151 41.6756 79.2398C41.7264 77.3786 42.3121 75.5714 43.3626 74.0342C44.413 72.497 45.8839 71.2948 47.5994 70.5712C51.7264 68.7348 67.2271 62.4358 67.2271 62.4358L83.3992 73.6714L91.041 63.5021Z" fill="#003399"/>
<path d="M91.0408 61.291L83.4385 73.6719C83.4385 73.6719 90.9025 79.5957 91.3369 80.0301C91.7713 80.4645 92.6402 80.425 92.8179 79.7339C92.9956 79.0428 95.148 65.9116 95.1875 65.9116C95.2255 65.842 95.2454 65.7639 95.2454 65.6845C95.2454 65.6052 95.2255 65.5271 95.1875 65.4575C94.99 65.3192 91.0408 61.291 91.0408 61.291Z" fill="#F5F5F5"/>
<path d="M67.1481 59L83.4585 73.6714C83.4585 73.6714 74.8689 79.5952 74.4937 80.0296C74.3843 80.1227 74.2553 80.1897 74.1162 80.2256C73.9772 80.2615 73.8318 80.2653 73.6911 80.2368C73.5504 80.2083 73.418 80.1481 73.3039 80.0609C73.1898 79.9737 73.097 79.8618 73.0325 79.7335C72.4006 78.7264 62.2906 64.5289 62.2511 64.4104C62.2092 64.3421 62.187 64.2635 62.187 64.1834C62.187 64.1032 62.2092 64.0246 62.2511 63.9563C62.4683 63.8378 67.1481 59 67.1481 59Z" fill="#F5F5F5"/>
<g filter="url(#filter0_d_1_273)">
<rect x="59.9263" y="108.357" width="40.9288" height="58.3236" rx="1" transform="rotate(-6.55484 59.9263 108.357)" fill="#EFEFEF"/>
</g>
<path d="M79.1433 134.497C81.9897 133.294 84.5635 131.512 86.7012 129.263C88.0243 127.874 89.5248 126.669 91.1625 125.679C92.1232 125.079 92.9522 124.286 93.5976 123.352C94.4502 121.902 95.1559 120.371 95.7037 118.783C95.9067 117.415 96.372 116.096 97.0737 114.902C97.7409 114.29 100.096 114.617 101.318 116.993C101.739 118.051 101.93 119.19 101.878 120.334C101.826 121.478 101.531 122.601 101.015 123.627C100.406 124.857 99.9299 126.148 99.5933 127.477L99.8154 127.61C101.678 126.621 103.668 125.904 105.726 125.48C106.472 125.313 107.25 125.404 107.933 125.736C108.616 126.069 109.165 126.625 109.492 127.314C109.819 128.004 109.904 128.787 109.734 129.537C109.565 130.287 109.149 130.961 108.556 131.45C111.767 131.819 111.402 136.771 108.646 137.426C109.236 137.673 109.734 138.099 110.073 138.644C110.412 139.189 110.575 139.827 110.54 140.473C110.506 141.119 110.275 141.741 109.879 142.255C109.484 142.768 108.942 143.15 108.328 143.346C110.286 145.151 108.855 148.126 105.3 148.139C102.411 148.433 94.6864 149.642 91.9987 150.221C89.3111 150.799 83.9089 149.52 82.1736 150.057C79.5905 151.003 76.5903 151.019 74.3018 144.222C72.0134 137.425 76.4851 135.375 79.1433 134.497Z" fill="#FBBEAA"/>
<path d="M171.283 50.5139C170.34 50.5139 170.266 49.9186 169.844 48.8273C171.952 48.8273 178.079 49.2241 180.757 54.3831C178.054 50.6627 172.87 50.5139 171.283 50.5139ZM176.094 30.895C176.094 30.895 175.946 31.7631 175.797 33.0281C175.797 33.6729 175.648 34.4418 175.598 35.2355C175.549 36.0291 175.474 36.8972 175.4 37.7157C175.4 39.4519 175.276 41.1633 175.276 42.453C175.276 43.7428 175.276 44.6108 175.276 44.6108C175.276 44.6521 175.284 44.693 175.301 44.7308C175.317 44.7686 175.341 44.8026 175.372 44.8306C175.402 44.8586 175.438 44.88 175.477 44.8934C175.516 44.9068 175.557 44.9119 175.598 44.9085C175.668 44.905 175.735 44.8789 175.789 44.8341C175.842 44.7894 175.88 44.7285 175.896 44.6605C175.896 44.6605 176.045 43.7923 176.169 42.5026C176.293 41.2129 176.491 39.5015 176.566 37.7901C176.566 36.922 176.566 36.0539 176.566 35.3099C176.566 34.5658 176.566 33.7473 176.566 33.1025C176.566 31.7879 176.566 30.9446 176.566 30.9446C176.566 30.9033 176.557 30.8625 176.541 30.8247C176.524 30.7869 176.5 30.7528 176.47 30.7249C176.44 30.6969 176.404 30.6755 176.365 30.6621C176.326 30.6487 176.284 30.6435 176.243 30.647C176.196 30.6743 176.157 30.7143 176.13 30.7625C176.104 30.8106 176.092 30.8651 176.094 30.9198V30.895ZM181.849 32.6312C181.849 32.6312 181.7 33.3753 181.526 34.4666C181.526 35.037 181.353 35.6819 181.278 36.3764C181.204 37.0708 181.129 37.8149 181.055 38.559C181.055 40.0472 180.881 41.5353 180.857 42.6514C180.832 43.7675 180.857 44.5364 180.857 44.5364C180.86 44.5756 180.871 44.6137 180.888 44.6486C180.906 44.6835 180.931 44.7146 180.961 44.74C180.991 44.7653 181.026 44.7845 181.063 44.7964C181.1 44.8083 181.14 44.8127 181.179 44.8093C181.246 44.8046 181.309 44.7776 181.358 44.7326C181.408 44.6876 181.441 44.6273 181.452 44.5613C181.452 44.5613 181.601 43.8171 181.774 42.7258C181.948 41.6345 182.097 40.1216 182.221 38.6582C182.221 37.9142 182.221 37.1701 182.37 36.4756C182.518 35.7811 182.37 35.1115 182.37 34.541C182.37 33.4249 182.37 32.6808 182.37 32.6808C182.37 32.6395 182.361 32.5987 182.345 32.5609C182.328 32.5231 182.304 32.4891 182.274 32.4611C182.243 32.4331 182.208 32.4117 182.169 32.3983C182.13 32.3849 182.088 32.3797 182.047 32.3832C181.992 32.4059 181.944 32.4434 181.909 32.4916C181.874 32.5397 181.853 32.5966 181.849 32.656V32.6312ZM187.404 34.9874C187.404 34.9874 187.256 35.6075 187.057 36.55C187.057 36.9964 186.859 37.5421 186.784 38.1374C186.71 38.7327 186.611 39.3527 186.512 39.9728C186.338 41.2377 186.263 42.453 186.214 43.4451C186.164 44.4372 186.214 45.0325 186.214 45.0325C186.214 45.0738 186.222 45.1146 186.239 45.1524C186.255 45.1902 186.279 45.2243 186.31 45.2523C186.34 45.2802 186.376 45.3016 186.415 45.315C186.454 45.3284 186.495 45.3336 186.536 45.3301C186.6 45.3268 186.66 45.3034 186.709 45.2632C186.758 45.2231 186.793 45.1683 186.809 45.1069C186.809 45.1069 186.983 44.4869 187.156 43.5692C187.33 42.6515 187.578 41.3617 187.727 40.1216C187.727 39.4767 187.851 38.8566 187.901 38.2614C187.95 37.6661 187.901 37.1205 187.901 36.6492C187.901 35.7067 187.901 35.0618 187.901 35.0618C187.901 35.0206 187.892 34.9798 187.876 34.9419C187.859 34.9041 187.835 34.8701 187.805 34.8421C187.774 34.8141 187.739 34.7928 187.7 34.7793C187.661 34.7659 187.619 34.7608 187.578 34.7642C187.532 34.7898 187.493 34.8253 187.463 34.8683C187.433 34.9112 187.413 34.9605 187.404 35.0122V34.9874Z" fill="#F18380"/>
<path d="M87.0299 49.6052C84.6355 49.5128 82.3366 48.642 80.4819 47.1249" stroke="#73102A" stroke-width="0.5" stroke-miterlimit="10" stroke-linecap="round"/>
<path d="M78 155L25.0001 177.5C17.7763 180.873 9.24501 177.929 6.00005 169.5C5.4067 167.929 5.36657 165.36 5.44015 163.682C5.51374 162.004 5.92737 160.358 6.656 158.845C7.38464 157.332 8.73402 154.604 9.99986 153.5C11.2657 152.396 15.7765 150.359 17.3748 149.843L77 133.5L78 155Z" fill="#003399"/>
<defs>
<filter id="filter0_d_1_273" x="60.0337" y="103.792" width="49.104" height="62.3995" filterUnits="userSpaceOnUse" color-interpolation-filters="sRGB">
<feFlood flood-opacity="0" result="BackgroundImageFix"/>
<feColorMatrix in="SourceAlpha" type="matrix" values="0 0 0 0 0 0 0 0 0 0 0 0 0 0 0 0 0 0 127 0" result="hardAlpha"/>
<feOffset dx="2"/>
<feComposite in2="hardAlpha" operator="out"/>
<feColorMatrix type="matrix" values="0 0 0 0 0.603922 0 0 0 0 0.6 0 0 0 0 0.631373 0 0 0 1 0"/>
<feBlend mode="normal" in2="BackgroundImageFix" result="effect1_dropShadow_1_273"/>
<feBlend mode="normal" in="SourceGraphic" in2="effect1_dropShadow_1_273" result="shape"/>
</filter>
</defs>
</svg>
