<svg width="212" height="509" viewBox="0 0 212 509" fill="none" xmlns="http://www.w3.org/2000/svg">
<path d="M103.067 59.3549H73.2441V94.4284H103.067V59.3549Z" fill="#FBBEAA"/>
<path d="M73.3183 59.3549H103.042V78.9227C101.743 79.084 100.436 79.1667 99.128 79.1704C88.8735 79.1704 77.4053 76.3715 73.2192 66.5876L73.3183 59.3549Z" fill="#F18380"/>
<path d="M118.473 33.3228C118.225 43.4534 118.473 51.454 116.64 59.182C114.807 66.9101 109.209 73.2262 96.8245 73.2262C84.4398 73.2262 70.3213 69.1888 69.3305 53.708C67.2994 51.5035 64.0051 43.6516 63.8812 34.8585C63.7574 26.0653 64.4509 7.46352 84.4894 4.61504C104.528 1.76656 119.018 9.12306 118.473 33.3228Z" fill="#FBBEAA"/>
<path d="M107.996 41.2986C107.996 42.6609 108.813 43.7755 109.829 43.7755C110.844 43.7755 111.662 42.6609 111.662 41.2986C111.662 39.9363 110.844 38.8217 109.829 38.8217C108.813 38.8217 107.996 39.8372 107.996 41.2986Z" fill="#403D4F"/>
<path d="M85.7031 41.2986C85.7031 42.6609 86.5205 43.7755 87.536 43.7755C88.5516 43.7755 89.369 42.6609 89.369 41.2986C89.369 39.9363 88.5516 38.8217 87.536 38.8217C86.5205 38.8217 85.7031 39.8372 85.7031 41.2986Z" fill="#403D4F"/>
<path d="M90.1864 36.1461C90.0131 36.3691 88.7003 36.1461 87.7095 36.1461C86.7187 36.1461 84.8115 36.1461 84.8115 35.9232C84.8115 35.7003 85.7527 34.1646 88.2296 34.4371C90.013 34.6352 90.6571 35.7498 90.1864 36.1461Z" fill="#403D4F"/>
<path d="M107.574 36.1461C107.723 36.369 108.837 36.1461 109.704 36.1461C110.571 36.1461 112.181 36.1461 112.181 35.9232C111.959 35.3618 111.539 34.9009 111.001 34.6273C110.463 34.3536 109.843 34.2859 109.258 34.437C107.723 34.6352 107.301 35.7498 107.574 36.1461Z" fill="#403D4F"/>
<path d="M100.267 51.5529C102.001 51.5529 103.388 50.4135 103.437 49.5962L102.868 42.6112C102.849 42.4381 102.763 42.2792 102.629 42.1681C102.495 42.0571 102.323 42.0028 102.149 42.0167C102.065 42.023 101.982 42.0459 101.906 42.0842C101.831 42.1225 101.763 42.1754 101.708 42.2399C101.653 42.3043 101.611 42.3791 101.584 42.4598C101.558 42.5405 101.548 42.6256 101.555 42.7103L102.1 49.4475C101.85 49.719 101.542 49.9311 101.199 50.0682C100.856 50.2054 100.487 50.2641 100.118 50.2402C100.032 50.2334 99.9447 50.2443 99.8624 50.2721C99.7801 50.2998 99.7043 50.344 99.6395 50.4018C99.5747 50.4597 99.5222 50.53 99.4854 50.6087C99.4485 50.6873 99.4279 50.7726 99.4248 50.8594C99.4244 51.0351 99.4905 51.2044 99.6101 51.3331C99.7296 51.4618 99.8935 51.5404 100.069 51.5529H100.267Z" fill="#F18380"/>
<path d="M74.6998 37.9294C74.6998 47.9241 69.7459 44.2087 69.7459 44.2087C68.5074 40.4933 66.3498 42.091 63.5136 42.091C60.6774 42.091 61.0419 40.0253 58.2057 33.2137C55.9367 27.7645 58.5524 19.1059 60.2541 17.01C57.4333 13.3144 61.2586 11.1129 61.1263 11.6731C60.2541 15.3661 63.2778 11.6544 64.792 10.1984C80.9651 -5.35291 121.722 2.4599 121.722 2.4599L117.488 7.8167L127.914 4.93689C127.914 4.93689 127.234 10.578 125.437 13.6062C123.941 16.1281 120.325 19.1059 120.325 19.1059L131.669 20.1538C131.669 20.1538 124.295 28.0133 114.085 29.0613C102.586 30.2414 90.2611 24.8695 90.2611 24.8695L94.799 30.1092C94.799 30.1092 83.3291 27.7698 79.6137 29.7062C77.2374 30.9447 74.6998 33.4614 74.6998 37.9294Z" fill="#7D4A40"/>
<path d="M69.8754 46.0048C69.7515 43.1811 69.3057 39.0198 65.293 38.9208C61.2804 38.8217 60.7602 41.8435 60.8841 46.5993C61.0079 51.355 65.838 55.3924 70.0735 53.7576L69.8754 46.0048Z" fill="#FBBEAA"/>
<path d="M63.9792 49.4226C64.1529 49.3923 64.3077 49.2946 64.4097 49.1508C64.5118 49.007 64.5529 48.8287 64.5242 48.6548C64.5243 48.515 64.5639 48.378 64.6384 48.2597C64.7129 48.1414 64.8192 48.0466 64.9452 47.986C65.1981 47.8167 65.4955 47.7263 65.7998 47.7263C66.1041 47.7263 66.4015 47.8167 66.6543 47.986C66.7643 48.0467 66.8879 48.0785 67.0135 48.0785C67.1391 48.0785 67.2627 48.0467 67.3727 47.986C67.4736 47.9193 67.5545 47.8265 67.6068 47.7174C67.6592 47.6084 67.681 47.4872 67.6699 47.3667C67.3231 43.3789 64.7718 42.6358 64.6728 42.611C64.5882 42.5849 64.4992 42.5765 64.4112 42.5864C64.3233 42.5963 64.2383 42.6241 64.1616 42.6683C64.0849 42.7125 64.0181 42.772 63.9654 42.8431C63.9128 42.9142 63.8753 42.9954 63.8554 43.0816C63.8097 43.2459 63.8309 43.4215 63.9145 43.5701C63.9981 43.7187 64.1372 43.8281 64.3012 43.8743C64.7961 44.0983 65.2273 44.442 65.556 44.8745C65.8846 45.3069 66.1004 45.8145 66.1837 46.3512C65.5049 46.2406 64.8092 46.3815 64.2269 46.7475C63.8877 46.9464 63.6135 47.2396 63.4376 47.5913C63.2617 47.9431 63.1917 48.3383 63.2361 48.7291C63.232 48.8256 63.2487 48.9218 63.2853 49.0112C63.3219 49.1006 63.3774 49.181 63.448 49.2469C63.5186 49.3129 63.6027 49.3627 63.6944 49.393C63.7861 49.4233 63.8832 49.4334 63.9792 49.4226Z" fill="#F18380"/>
<path d="M98.5587 60.4701C96.1676 60.3779 93.8717 59.5082 92.0195 57.9932" stroke="#73102A" stroke-width="0.5" stroke-miterlimit="10" stroke-linecap="round"/>
<path d="M98.6424 56.0863C95.1746 54.9469 91.2116 53.6094 89.8493 55.2194C88.7842 56.3093 90.2208 61.4365 95.5462 62.3282C100.872 63.2199 102.779 59.5541 102.506 58.1422C102.333 57.2753 101.367 57.0028 98.6424 56.0863Z" fill="#73102A"/>
<path d="M89.9731 55.1455H89.8493C88.7842 56.2354 90.2208 61.3626 95.5462 62.2543C96.7032 62.5229 97.9064 62.5229 99.0634 62.2543C98.1664 60.4722 96.8862 58.9107 95.3146 57.6817C93.743 56.4526 91.9188 55.5865 89.9731 55.1455Z" fill="#D65155"/>
<path d="M91.2119 54.6001C92.6151 56.1251 94.3969 57.2515 96.3764 57.8649C98.3558 58.4783 100.462 58.5569 102.482 58.0926C102.284 57.2504 101.293 56.978 98.6427 56.0863C96.2905 55.0976 93.7635 54.5922 91.2119 54.6001Z" fill="white"/>
<path d="M183.853 87.529C183.978 84.7997 183.248 82.0994 181.763 79.8054C179.478 77.1559 177.766 74.0622 176.735 70.7188C175.942 67.6152 174.675 64.6525 172.98 61.9349C171.768 60.269 169.951 58.9061 169.951 57.634C169.951 56.3618 172.374 53.9084 175.827 54.6051C177.306 55.0658 178.665 55.8478 179.806 56.895C180.948 57.9423 181.844 59.2289 182.43 60.6629C182.761 59.7892 182.955 58.8697 183.005 57.9369L183.762 39.3698C183.774 38.8885 183.882 38.4143 184.08 37.9753C184.277 37.5364 184.561 37.1415 184.914 36.814C185.267 36.4865 185.682 36.233 186.134 36.0685C186.587 35.904 187.068 35.8319 187.549 35.8563C188.314 35.8889 189.05 36.1607 189.653 36.6334C190.256 37.106 190.696 37.7558 190.911 38.4914V37.6433C191.027 36.7407 191.481 35.9156 192.18 35.3337C192.88 34.7517 193.774 34.4559 194.683 34.5057C195.591 34.5556 196.448 34.9473 197.079 35.6024C197.711 36.2574 198.072 37.1272 198.089 38.0371V40.6116C198.392 39.8179 198.971 39.1596 199.719 38.7567C200.467 38.3538 201.335 38.2331 202.165 38.4167C202.995 38.6003 203.731 39.0757 204.239 39.7566C204.747 40.4375 204.994 41.2785 204.934 42.1261V43.7616C205.26 43.1887 205.746 42.7232 206.333 42.422C206.919 42.1207 207.58 41.9968 208.236 42.0655C209.134 42.1794 209.952 42.6383 210.517 43.345C211.082 44.0517 211.351 44.9507 211.265 45.8516L209.781 61.5109C208.808 70.3395 206.982 79.0529 204.329 87.529C204.296 88.9443 203.969 90.3371 203.366 91.6181C202.763 92.899 201.9 94.0397 200.83 94.9669C199.76 95.894 198.508 96.587 197.155 97.0013C195.801 97.4157 194.376 97.5423 192.97 97.3729C191.698 97.4154 190.432 97.1838 189.258 96.6939C188.083 96.204 187.028 95.4672 186.163 94.5335C185.298 93.5999 184.645 92.4912 184.246 91.2826C183.848 90.0741 183.714 88.7939 183.853 87.529Z" fill="#FBBEAA"/>
<path d="M184.459 63.2982C183.308 63.2982 183.217 62.5713 182.702 61.2386C185.277 61.2386 192.758 61.7232 196.029 68.0233C192.728 63.48 186.397 63.2982 184.459 63.2982ZM190.335 39.3398C190.335 39.3398 190.153 40.3999 189.971 41.9446C189.971 42.7322 189.79 43.6711 189.729 44.6403C189.669 45.6095 189.578 46.6697 189.487 47.6692C189.487 49.7894 189.335 51.8793 189.335 53.4544C189.335 55.0294 189.335 56.0895 189.335 56.0895C189.335 56.1399 189.346 56.1898 189.366 56.236C189.386 56.2822 189.415 56.3236 189.452 56.3578C189.489 56.392 189.533 56.4182 189.581 56.4345C189.628 56.4509 189.679 56.4571 189.729 56.4529C189.814 56.4487 189.896 56.4168 189.961 56.3622C190.027 56.3075 190.073 56.2332 190.093 56.1501C190.093 56.1501 190.274 55.0899 190.426 53.5149C190.577 51.9399 190.82 49.85 190.91 47.7601C190.91 46.6999 190.91 45.6398 190.91 44.7312C190.91 43.8225 190.91 42.823 190.91 42.0355C190.91 40.4302 190.91 39.4003 190.91 39.4003C190.911 39.3499 190.9 39.3001 190.88 39.2539C190.86 39.2077 190.83 39.1661 190.793 39.132C190.756 39.0978 190.713 39.0717 190.665 39.0553C190.617 39.039 190.567 39.0326 190.517 39.0368C190.459 39.0702 190.411 39.1191 190.379 39.1779C190.347 39.2367 190.332 39.3032 190.335 39.3701V39.3398ZM197.362 41.46C197.362 41.46 197.18 42.3686 196.968 43.7014C196.968 44.398 196.756 45.1855 196.665 46.0336C196.574 46.8817 196.484 47.7903 196.393 48.699C196.393 50.5163 196.181 52.3336 196.15 53.6966C196.12 55.0596 196.15 55.9986 196.15 55.9986C196.154 56.0464 196.167 56.093 196.189 56.1356C196.211 56.1783 196.241 56.2162 196.278 56.2472C196.314 56.2781 196.357 56.3016 196.403 56.3161C196.448 56.3307 196.496 56.336 196.544 56.3318C196.626 56.3261 196.703 56.2932 196.763 56.2382C196.824 56.1833 196.864 56.1095 196.877 56.0289C196.877 56.0289 197.059 55.1202 197.271 53.7875C197.483 52.4548 197.665 50.6072 197.816 48.8202C197.816 47.9115 197.816 47.0028 197.998 46.1547C198.18 45.3067 197.998 44.4889 197.998 43.7922C197.998 42.4292 197.998 41.5206 197.998 41.5206C197.998 41.4702 197.988 41.4203 197.968 41.3741C197.948 41.3279 197.918 41.2864 197.881 41.2522C197.844 41.218 197.8 41.192 197.753 41.1756C197.705 41.1592 197.654 41.1529 197.604 41.1571C197.537 41.1848 197.479 41.2307 197.436 41.2895C197.393 41.3483 197.368 41.4177 197.362 41.4902V41.46ZM204.147 44.3374C204.147 44.3374 203.965 45.0946 203.723 46.2456C203.723 46.7908 203.48 47.4572 203.389 48.1841C203.299 48.9111 203.177 49.6683 203.056 50.4255C202.844 51.9702 202.753 53.4544 202.693 54.6659C202.632 55.8775 202.693 56.6044 202.693 56.6044C202.693 56.6548 202.703 56.7047 202.723 56.7509C202.743 56.797 202.773 56.8386 202.81 56.8728C202.847 56.907 202.89 56.933 202.938 56.9494C202.986 56.9658 203.036 56.9721 203.086 56.9679C203.164 56.9639 203.238 56.9352 203.298 56.8862C203.358 56.8371 203.4 56.7703 203.42 56.6953C203.42 56.6953 203.632 55.9381 203.844 54.8174C204.056 53.6967 204.359 52.1217 204.54 50.6072C204.54 49.8197 204.692 49.0625 204.752 48.3355C204.813 47.6086 204.752 46.9423 204.752 46.3668C204.752 45.2158 204.752 44.4283 204.752 44.4283C204.753 44.3779 204.742 44.328 204.722 44.2818C204.702 44.2356 204.673 44.1941 204.635 44.1599C204.598 44.1257 204.555 44.0997 204.507 44.0833C204.459 44.0669 204.409 44.0606 204.359 44.0648C204.303 44.096 204.255 44.1394 204.218 44.1919C204.181 44.2444 204.157 44.3045 204.147 44.3677V44.3374Z" fill="#F18380"/>
<path d="M42.1165 95.0881C36.0346 102.908 6.73096 185.093 6.73096 185.093C39.3129 174.667 23.1192 170.67 40.8396 173.652C40.8396 173.652 68.5252 114.897 69.3053 110.606C70.1196 107.224 69.7541 103.664 68.2695 100.518C66.7849 97.3714 64.2702 94.8262 61.1417 93.3038C52.4208 88.8458 48.1985 87.2682 42.1165 95.0881Z" fill="#003399"/>
<path d="M110.352 85.0657L176.365 129.588C176.087 131.865 181.437 85.0657 181.437 85.0657L205.871 87.3464C205.871 87.3464 204.443 134.994 200.848 160.158C199.421 170.145 191.108 173.932 181.252 171.781C176.386 170.72 171.805 168.723 167.728 165.861C150.21 153.565 101.063 118.932 97.0448 114.575C90.1124 107.058 90.1124 101.427 94.0965 95.2386C98.0806 89.0499 106.607 84.1361 110.352 85.0657Z" fill="#002B80"/>
<path d="M32.4469 319.02C32.0304 322.204 32.2494 325.44 33.0912 328.539C33.9331 331.638 35.3811 334.54 37.3515 337.076C39.3219 339.612 41.7755 341.732 44.5706 343.313C47.3656 344.895 50.4465 345.907 53.6351 346.29C56.8236 346.673 60.0565 346.421 63.1468 345.546C66.237 344.672 69.1232 343.194 71.6385 341.197C74.1538 339.2 76.2482 336.725 77.8005 333.913C79.3529 331.102 80.3324 328.011 80.6823 324.818C80.6823 324.818 93.3284 235.995 96.3275 218.051C99.3266 200.106 96.1526 185.086 76.0587 180.812C55.215 176.388 42.194 191.659 40.6194 206.954C39.0449 222.249 32.4469 319.02 32.4469 319.02Z" fill="#93929C"/>
<path d="M72.3101 320.744C72.2305 327.187 74.7136 333.398 79.2131 338.01C83.7126 342.622 89.86 345.257 96.3028 345.337C102.746 345.416 108.956 342.933 113.568 338.434C118.18 333.934 120.816 327.787 120.895 321.344C120.895 321.344 123.969 231.671 125.019 213.502C126.069 195.332 121.32 180.762 100.876 178.662C79.6828 176.488 68.3862 193.058 68.3862 208.453C68.3862 223.849 72.3101 320.744 72.3101 320.744Z" fill="#93929C"/>
<path d="M111.198 426.412C111.198 426.412 109.998 477.372 109.698 484.994C109.398 492.617 104.575 494.692 96.8021 495.366C89.0295 496.041 85.7555 489.868 84.6559 484.969C83.5562 480.071 76.9082 430.111 76.9082 430.111L111.198 426.412Z" fill="#FBBEAA"/>
<path d="M110.323 461.951L81.6567 465.025C79.4324 449.255 76.9082 430.036 76.9082 430.036L111.198 426.337C111.198 426.337 110.748 445.431 110.323 461.951Z" fill="#F18380"/>
<path d="M72.3101 320.745C72.3494 317.554 73.0168 314.403 74.274 311.471C75.5312 308.539 77.3536 305.883 79.6372 303.655C81.9209 301.427 84.621 299.671 87.5834 298.486C90.5458 297.302 93.7124 296.712 96.9026 296.752C100.093 296.791 103.244 297.459 106.176 298.716C109.108 299.973 111.764 301.795 113.992 304.079C116.22 306.363 117.976 309.063 119.161 312.025C120.345 314.988 120.935 318.154 120.895 321.344L115.897 463.383L76.6837 467.607L72.3101 320.745Z" fill="#93929C"/>
<path d="M59.8885 428.362C59.8885 428.362 53.2405 478.896 52.1408 486.419C51.0411 493.942 46.0177 495.541 38.1951 495.366C30.3724 495.192 27.7982 488.719 27.2234 483.745C26.6485 478.772 25.3989 428.362 25.3989 428.362H59.8885Z" fill="#FBBEAA"/>
<path d="M55.0894 463.601H26.2481C25.7483 447.706 25.2734 428.362 25.2734 428.362H59.888C59.888 428.362 57.3887 447.206 55.0894 463.601Z" fill="#F18380"/>
<path d="M32.4465 319.02C33.2765 312.675 36.5764 306.914 41.6293 302.988C46.6822 299.062 53.0801 297.288 59.4332 298.052C65.7864 298.816 71.5816 302.055 75.5601 307.067C79.5387 312.078 81.3793 318.457 80.6819 324.818L58.939 468.381H19.501L32.4465 319.02Z" fill="#93929C"/>
<path d="M79.6573 324.818L57.2393 467.132" stroke="#676767" stroke-width="0.75" stroke-miterlimit="10" stroke-linecap="round"/>
<path d="M79.6821 324.818C79.6821 324.818 92.3282 235.995 95.3273 218.051" stroke="#676767" stroke-width="0.75" stroke-miterlimit="10" stroke-linecap="round"/>
<path d="M40.8194 469.524C43.6541 469.321 46.4647 470.165 48.7176 471.898C50.9706 473.63 52.509 476.129 53.0407 478.921L66.0867 492.292V500.615H24.2744C24.2744 500.615 26.3738 485.619 26.9736 482.245C27.5734 478.871 29.5978 469.524 40.8194 469.524Z" fill="#FBBEAA"/>
<path d="M53.0151 478.821C53.49 478.172 54.1647 477.672 54.6396 477.972C55.1145 478.271 67.7357 488.268 68.3355 488.768C68.7049 489.115 68.9843 489.547 69.1498 490.026C69.3152 490.505 69.3617 491.017 69.2852 491.517V502.239H23.3491C23.3491 502.239 25.1485 486.394 25.2735 485.519C25.3985 484.645 26.2732 483.495 26.7731 483.52C29.926 484.486 33.1982 485.007 36.4951 485.069C40.877 485.302 45.248 484.443 49.2163 482.57C50.6876 481.547 51.9725 480.279 53.0151 478.821Z" fill="#2E70AC"/>
<path d="M61.7376 493.242C59.5133 491.592 51.5157 485.344 48.5166 482.995L49.2164 482.645C49.3108 482.604 49.3959 482.545 49.4663 482.47C52.6654 484.969 60.1881 490.868 62.3374 492.467C64.1544 493.859 65.399 495.868 65.8364 498.115L64.8617 498.265C64.4494 496.273 63.342 494.493 61.7376 493.242Z" fill="#1E2173"/>
<path d="M24.5992 491.318C27.8365 491.35 30.9693 492.468 33.4965 494.492C35.7807 496.515 37.3279 499.241 37.8951 502.239H36.5455C35.9935 499.641 34.6279 497.286 32.6467 495.516C30.3208 493.653 27.4291 492.64 24.4492 492.642L24.5992 491.318Z" fill="#1E2173"/>
<path d="M76.7079 502.214H23.3491C22.9764 502.214 22.6743 502.517 22.6743 502.889V508.063C22.6743 508.435 22.9764 508.738 23.3491 508.738H76.7079C77.0806 508.738 77.3827 508.435 77.3827 508.063V502.889C77.3827 502.517 77.0806 502.214 76.7079 502.214Z" fill="white"/>
<path d="M68.2106 488.668C68.6854 488.468 71.0097 489.143 74.0338 492.117C75.2929 493.418 76.1993 495.02 76.6672 496.769C77.1351 498.518 77.1492 500.358 76.708 502.114H61.5376C62.3873 492.517 67.7357 488.868 68.2106 488.668Z" fill="white"/>
<path d="M62.3874 488.819C62.2001 489.048 62.1108 489.342 62.1389 489.637C62.1669 489.931 62.3101 490.203 62.5374 490.393C62.6489 490.485 62.7775 490.554 62.9158 490.597C63.0541 490.639 63.1993 490.653 63.3433 490.639C63.4872 490.626 63.6269 490.583 63.7545 490.515C63.8821 490.447 63.9951 490.355 64.0869 490.243L66.5861 487.219C66.7735 486.99 66.8628 486.696 66.8347 486.401C66.8066 486.106 66.6634 485.834 66.4362 485.645C66.3261 485.549 66.1978 485.477 66.0591 485.433C65.9204 485.389 65.7742 485.373 65.6293 485.387C65.4844 485.401 65.3439 485.445 65.2162 485.515C65.0885 485.585 64.9764 485.68 64.8867 485.794L62.3874 488.819Z" fill="white"/>
<path d="M59.4133 486.544C59.226 486.773 59.1367 487.067 59.1647 487.362C59.1928 487.657 59.336 487.929 59.5633 488.118C59.6733 488.214 59.8016 488.286 59.9403 488.33C60.079 488.374 60.2253 488.39 60.3702 488.376C60.5151 488.362 60.6556 488.318 60.7833 488.248C60.9109 488.178 61.0231 488.083 61.1128 487.968L63.612 484.944C63.7933 484.713 63.8787 484.42 63.8509 484.127C63.823 483.834 63.6838 483.563 63.4621 483.37C63.352 483.275 63.2237 483.203 63.085 483.158C62.9463 483.114 62.8001 483.099 62.6552 483.113C62.5103 483.127 62.3697 483.17 62.2421 483.24C62.1144 483.31 62.0023 483.405 61.9125 483.52L59.4133 486.544Z" fill="white"/>
<path d="M56.5392 484.295C56.3504 484.517 56.2575 484.805 56.2809 485.096C56.3043 485.386 56.4422 485.656 56.6641 485.844C56.8935 486.032 57.1874 486.121 57.4822 486.093C57.777 486.065 58.0488 485.922 58.2386 485.695L60.7379 482.67C60.8429 482.568 60.9264 482.446 60.9834 482.31C61.0404 482.175 61.0698 482.03 61.0698 481.883C61.0698 481.736 61.0404 481.591 60.9834 481.456C60.9264 481.321 60.8429 481.198 60.7379 481.096C60.5061 480.915 60.2136 480.829 59.9207 480.857C59.6278 480.885 59.3568 481.024 59.1634 481.246L56.5392 484.295Z" fill="white"/>
<path d="M53.6402 482.021C53.5481 482.132 53.479 482.261 53.4367 482.399C53.3944 482.537 53.3799 482.682 53.3938 482.826C53.4077 482.97 53.4499 483.11 53.5179 483.238C53.5859 483.365 53.6784 483.478 53.7901 483.57C54.0004 483.776 54.283 483.892 54.5774 483.892C54.8718 483.892 55.1544 483.776 55.3647 483.57L57.8639 480.521C58.0512 480.292 58.1405 479.998 58.1125 479.703C58.0844 479.408 57.9412 479.136 57.714 478.946C57.6024 478.854 57.4738 478.785 57.3355 478.743C57.1973 478.701 57.052 478.686 56.9081 478.7C56.7641 478.714 56.6244 478.756 56.4968 478.824C56.3692 478.892 56.2562 478.985 56.1644 479.096L53.6402 482.021Z" fill="white"/>
<path d="M99.5513 469.524C102.386 469.321 105.197 470.165 107.45 471.898C109.703 473.63 111.241 476.129 111.773 478.921L124.794 492.292V500.615H83.0063C83.0063 500.615 85.0807 485.619 85.7055 482.245C86.3303 478.871 88.3297 469.524 99.5513 469.524Z" fill="#FBBEAA"/>
<path d="M111.748 478.821C112.222 478.172 112.872 477.672 113.372 477.972C113.872 478.271 126.468 488.268 127.043 488.768C127.618 489.268 128.018 489.893 128.018 491.517V502.239H82.0815C82.0815 502.239 83.881 486.394 84.0059 485.519C84.1309 484.645 85.0056 483.495 85.5055 483.52C88.6584 484.486 91.9306 485.007 95.2276 485.069C99.6017 485.306 103.966 484.447 107.924 482.57C109.407 481.552 110.701 480.284 111.748 478.821Z" fill="#2E70AC"/>
<path d="M120.47 493.242C118.246 491.592 110.248 485.344 107.249 482.995L107.924 482.645C108.026 482.605 108.119 482.546 108.199 482.47C111.398 484.969 118.92 490.868 121.07 492.467C122.887 493.859 124.131 495.868 124.569 498.115L123.594 498.265C123.17 496.278 122.065 494.501 120.47 493.242Z" fill="#1E2173"/>
<path d="M83.3311 491.318C86.5684 491.35 89.7012 492.468 92.2284 494.492C94.5126 496.515 96.0599 499.241 96.6271 502.239H95.2775C94.7187 499.638 93.344 497.282 91.3536 495.516C89.0394 493.65 86.1542 492.635 83.1812 492.642L83.3311 491.318Z" fill="#1E2173"/>
<path d="M135.44 502.214H82.0815C81.7089 502.214 81.4067 502.517 81.4067 502.889V508.063C81.4067 508.435 81.7089 508.738 82.0815 508.738H135.44C135.813 508.738 136.115 508.435 136.115 508.063V502.889C136.115 502.517 135.813 502.214 135.44 502.214Z" fill="white"/>
<path d="M126.943 488.668C127.418 488.468 129.742 489.143 132.766 492.117C134.025 493.418 134.932 495.02 135.4 496.769C135.868 498.518 135.882 500.358 135.44 502.114H120.27C121.12 492.517 126.468 488.868 126.943 488.668Z" fill="white"/>
<path d="M121.02 488.819C120.832 489.048 120.743 489.342 120.771 489.637C120.799 489.931 120.942 490.203 121.17 490.393C121.281 490.485 121.41 490.554 121.548 490.597C121.686 490.639 121.832 490.653 121.976 490.639C122.12 490.626 122.259 490.583 122.387 490.515C122.515 490.447 122.627 490.355 122.719 490.243L125.219 487.219C125.4 486.987 125.485 486.695 125.457 486.402C125.429 486.109 125.29 485.838 125.069 485.645C124.958 485.549 124.83 485.477 124.692 485.433C124.553 485.389 124.407 485.373 124.262 485.387C124.117 485.401 123.976 485.445 123.849 485.515C123.721 485.585 123.609 485.68 123.519 485.794L121.02 488.819Z" fill="white"/>
<path d="M118.146 486.544C117.958 486.773 117.869 487.067 117.897 487.362C117.925 487.657 118.068 487.929 118.296 488.118C118.406 488.214 118.534 488.286 118.673 488.33C118.811 488.374 118.958 488.39 119.103 488.376C119.248 488.362 119.388 488.318 119.516 488.248C119.643 488.178 119.755 488.083 119.845 487.968L122.344 484.944C122.526 484.713 122.611 484.42 122.583 484.127C122.555 483.834 122.416 483.563 122.194 483.37C121.965 483.183 121.671 483.093 121.376 483.121C121.082 483.149 120.81 483.293 120.62 483.52L118.146 486.544Z" fill="white"/>
<path d="M115.271 484.295C115.167 484.395 115.084 484.515 115.027 484.648C114.971 484.781 114.941 484.925 114.941 485.069C114.941 485.214 114.971 485.357 115.027 485.49C115.084 485.623 115.167 485.744 115.271 485.844C115.501 486.031 115.795 486.121 116.089 486.093C116.384 486.065 116.656 485.921 116.846 485.694L119.345 482.67C119.532 482.441 119.622 482.147 119.594 481.852C119.566 481.557 119.422 481.285 119.195 481.096C119.084 481.003 118.955 480.934 118.817 480.892C118.678 480.85 118.533 480.835 118.389 480.849C118.245 480.863 118.106 480.905 117.978 480.973C117.85 481.041 117.737 481.134 117.646 481.245L115.271 484.295Z" fill="white"/>
<path d="M112.373 482.021C112.281 482.132 112.211 482.261 112.169 482.399C112.127 482.537 112.112 482.682 112.126 482.826C112.14 482.97 112.182 483.11 112.25 483.238C112.318 483.365 112.411 483.478 112.523 483.57C112.733 483.776 113.015 483.892 113.31 483.892C113.604 483.892 113.887 483.776 114.097 483.57L116.596 480.521C116.784 480.292 116.873 479.998 116.845 479.703C116.817 479.408 116.674 479.136 116.446 478.946C116.335 478.854 116.206 478.785 116.068 478.743C115.93 478.701 115.784 478.686 115.641 478.7C115.497 478.714 115.357 478.756 115.229 478.824C115.102 478.892 114.989 478.985 114.897 479.096L112.373 482.021Z" fill="white"/>
<path d="M124.284 194.064C124.284 194.064 124.284 219.982 124.284 221.406C124.284 222.831 111.788 235.052 95.1926 235.052C69.6754 235.052 39.1346 225.73 39.5845 219.657C39.8844 215.658 40.2593 194.064 40.2593 194.064H124.284Z" fill="#93929C"/>
<path d="M103.371 80.9737C103.371 80.9737 120.691 90.9707 123.365 92.7202C126.039 94.4696 129.138 97.1688 128.563 104.467C127.988 111.764 125.689 207.635 125.689 207.635C120.281 210.554 114.53 212.787 108.569 214.283C105.695 214.608 103.421 214.683 101.471 212.784C99.5219 210.884 93.7737 203.986 93.7737 203.986C93.7737 203.986 84.3016 210.409 80.0279 212.784C79.0095 213.495 77.8586 213.994 76.6436 214.251C75.4286 214.509 74.1743 214.52 72.955 214.283C66.7319 213.009 42.2393 205.861 41.4646 205.411C40.6898 204.961 39.965 204.486 40.04 203.637C40.115 202.787 40.5649 105.291 40.8898 100.893C40.9541 98.537 41.6953 96.2497 43.0249 94.3041C44.3545 92.3585 46.2162 90.8368 48.3875 89.921C53.6109 87.5967 73.2299 79.6241 73.2299 79.6241L93.6988 93.8448L103.371 80.9737Z" fill="#003399"/>
<path d="M103.371 78.175L93.7485 93.8453C93.7485 93.8453 103.196 101.343 103.746 101.893C104.295 102.443 105.395 102.393 105.62 101.518C105.845 100.643 108.569 84.0233 108.619 84.0233C108.667 83.9351 108.692 83.8363 108.692 83.7359C108.692 83.6354 108.667 83.5366 108.619 83.4485C108.369 83.2735 103.371 78.175 103.371 78.175Z" fill="#F5F5F5"/>
<g filter="url(#filter0_d_110_21)">
<rect x="67.2876" y="128.572" width="48.3361" height="68.8789" rx="1" transform="rotate(-6.55484 67.2876 128.572)" fill="#EFEFEF"/>
</g>
<path d="M73.1298 75.2755L93.7736 93.8448C93.7736 93.8448 82.9018 101.343 82.427 101.892C82.2886 102.01 82.1252 102.095 81.9492 102.14C81.7732 102.186 81.5893 102.191 81.4111 102.155C81.233 102.118 81.0654 102.042 80.921 101.932C80.7766 101.822 80.6592 101.68 80.5776 101.517C79.7778 100.243 66.9817 82.2733 66.9317 82.1234C66.8787 82.0369 66.8506 81.9374 66.8506 81.836C66.8506 81.7345 66.8787 81.635 66.9317 81.5486C67.2066 81.3986 73.1298 75.2755 73.1298 75.2755Z" fill="#F5F5F5"/>
<path d="M87.6452 156.484C91.0704 155.036 94.1676 152.892 96.74 150.186C98.3321 148.515 100.138 147.064 102.109 145.873C103.265 145.151 104.262 144.197 105.039 143.072C106.065 141.328 106.914 139.486 107.573 137.574C107.817 135.928 108.377 134.342 109.222 132.904C110.025 132.168 112.858 132.562 114.329 135.421C114.836 136.694 115.066 138.065 115.003 139.442C114.94 140.818 114.586 142.169 113.964 143.404C113.232 144.884 112.659 146.437 112.254 148.037L112.521 148.197C114.762 147.007 117.157 146.144 119.633 145.634C120.531 145.433 121.467 145.542 122.289 145.942C123.111 146.342 123.772 147.011 124.165 147.841C124.559 148.671 124.661 149.613 124.457 150.515C124.253 151.418 123.753 152.229 123.038 152.817C126.902 153.261 126.464 159.22 123.147 160.008C123.857 160.306 124.456 160.818 124.864 161.474C125.272 162.13 125.468 162.898 125.427 163.675C125.385 164.452 125.107 165.201 124.631 165.819C124.155 166.437 123.504 166.896 122.765 167.133C125.121 169.305 123.399 172.885 119.121 172.9C115.645 173.254 106.349 174.709 103.115 175.405C99.8806 176.102 93.38 174.562 91.2917 175.208C88.1834 176.347 84.5731 176.366 81.8193 168.186C79.0655 160.007 84.4465 157.54 87.6452 156.484Z" fill="#FBBEAA"/>
<path d="M93.765 178.427L31.1528 203.634C23.1515 207.658 10.1517 205.594 6.23283 196.235C5.51525 194.49 5.15962 192.618 5.18747 190.731C5.21532 188.845 5.62604 186.984 6.39481 185.261C7.16357 183.538 8.27432 181.989 9.65968 180.708C11.045 179.427 12.6761 178.441 14.454 177.809L88.452 151.046L93.765 178.427Z" fill="#003399"/>
<defs>
<filter id="filter0_d_110_21" x="67.395" y="123.162" width="57.668" height="73.7313" filterUnits="userSpaceOnUse" color-interpolation-filters="sRGB">
<feFlood flood-opacity="0" result="BackgroundImageFix"/>
<feColorMatrix in="SourceAlpha" type="matrix" values="0 0 0 0 0 0 0 0 0 0 0 0 0 0 0 0 0 0 127 0" result="hardAlpha"/>
<feOffset dx="2"/>
<feComposite in2="hardAlpha" operator="out"/>
<feColorMatrix type="matrix" values="0 0 0 0 0.603922 0 0 0 0 0.6 0 0 0 0 0.631373 0 0 0 1 0"/>
<feBlend mode="normal" in2="BackgroundImageFix" result="effect1_dropShadow_110_21"/>
<feBlend mode="normal" in="SourceGraphic" in2="effect1_dropShadow_110_21" result="shape"/>
</filter>
</defs>
</svg>
