<svg width="210" height="515" viewBox="0 0 210 515" fill="none" xmlns="http://www.w3.org/2000/svg">
<g clip-path="url(#clip0_21_292)">
<path d="M107.959 64.4177H138.131V98.9985H107.959V64.4177Z" fill="#FBBEAA"/>
<path d="M138.057 64.4177H107.985V83.7106C109.299 83.8696 110.621 83.9512 111.944 83.9549C122.319 83.9549 133.922 81.1952 138.157 71.5487L138.057 64.4177Z" fill="#F18380"/>
<path d="M92.3716 38.7511C92.6222 48.7395 92.3717 56.6277 94.2261 64.2472C96.0806 71.8667 101.744 78.0942 114.274 78.0942C126.804 78.0942 141.088 74.1134 142.091 58.85C144.146 56.6765 147.479 48.9349 147.604 40.2653C147.729 31.5956 147.028 13.2551 126.754 10.4466C106.48 7.63815 91.8203 14.8913 92.3716 38.7511Z" fill="#FBBEAA"/>
<path d="M102.972 46.6143C102.972 47.9575 102.145 49.0565 101.117 49.0565C100.09 49.0565 99.2628 47.9575 99.2628 46.6143C99.2628 45.2711 100.09 44.1722 101.117 44.1722C102.145 44.1722 102.972 45.1735 102.972 46.6143Z" fill="#403D4F"/>
<path d="M125.527 46.6143C125.527 47.9575 124.7 49.0565 123.672 49.0565C122.645 49.0565 121.818 47.9575 121.818 46.6143C121.818 45.2711 122.645 44.1722 123.672 44.1722C124.7 44.1722 125.527 45.1735 125.527 46.6143Z" fill="#403D4F"/>
<path d="M120.99 41.5348C121.166 41.7546 122.494 41.5348 123.496 41.5348C124.499 41.5348 126.428 41.5348 126.428 41.315C126.428 41.0952 125.476 39.5811 122.97 39.8498C121.166 40.0451 120.514 41.1441 120.99 41.5348Z" fill="#403D4F"/>
<path d="M103.398 41.5348C103.247 41.7546 102.12 41.5348 101.243 41.5348C100.366 41.5348 98.7366 41.5348 98.7366 41.315C98.9615 40.7614 99.3862 40.3071 99.9307 40.0372C100.475 39.7674 101.102 39.7007 101.694 39.8497C103.247 40.0451 103.673 41.144 103.398 41.5348Z" fill="#403D4F"/>
<path d="M110.791 56.7252C109.037 56.7252 107.633 55.6018 107.583 54.7959L108.16 47.909C108.179 47.7384 108.265 47.5817 108.401 47.4722C108.537 47.3628 108.711 47.3092 108.886 47.3229C108.972 47.3291 109.056 47.3517 109.132 47.3895C109.209 47.4272 109.277 47.4794 109.333 47.5429C109.389 47.6065 109.431 47.6802 109.458 47.7598C109.485 47.8393 109.495 47.9233 109.488 48.0067L108.937 54.6494C109.19 54.917 109.501 55.1261 109.848 55.2613C110.195 55.3965 110.569 55.4545 110.941 55.4308C111.029 55.4242 111.117 55.4349 111.2 55.4623C111.284 55.4897 111.36 55.5332 111.426 55.5903C111.491 55.6473 111.544 55.7167 111.582 55.7942C111.619 55.8717 111.64 55.9558 111.643 56.0414C111.644 56.2146 111.577 56.3815 111.456 56.5084C111.335 56.6353 111.169 56.7128 110.992 56.7252H110.791Z" fill="#F18380"/>
<path d="M137.951 52.2802C140.7 51.958 142.465 49.8381 142.963 47.3959C143.462 44.9538 145.025 46.1749 147.975 46.1749C150.926 46.1749 152.434 40.5214 153.362 36.2207C154.569 30.6271 152.772 24.0789 151.002 21.7662C155.722 17.719 153.362 3.8427 152.182 8.4681C151.238 12.1684 147.854 13.8644 146.281 14.2499C141.56 -2.8642 123.071 0.180894 114.416 3.8427C107.335 1.06744 101.237 4.99906 99.0738 7.31178C88.4522 3.84271 83.7315 8.46814 81.3712 10.7808C79.0108 13.0936 76.0604 26.3917 86.0919 32.1734C94.1171 36.7989 105.958 32.9444 110.876 30.4389C116.54 35.0643 124.251 33.5225 127.398 32.1734C127.87 34.9487 133.282 38.9188 135.445 41.4243C137.609 43.9297 136.698 52.4272 137.951 52.2802Z" fill="#F3E8AE"/>
<path d="M141.539 51.2545C141.665 48.4704 142.116 44.3676 146.176 44.2699C150.235 44.1722 150.762 47.1516 150.636 51.8406C150.511 56.5295 145.624 60.5102 141.339 58.8984L141.539 51.2545Z" fill="#FBBEAA"/>
<path d="M147.504 54.6248C147.328 54.5949 147.171 54.4986 147.068 54.3568C146.965 54.2151 146.923 54.0393 146.952 53.8677C146.952 53.7299 146.912 53.5949 146.837 53.4783C146.761 53.3616 146.654 53.2681 146.526 53.2084C146.27 53.0414 145.97 52.9523 145.662 52.9523C145.354 52.9523 145.053 53.0414 144.797 53.2084C144.686 53.2682 144.561 53.2996 144.434 53.2996C144.307 53.2996 144.182 53.2682 144.07 53.2084C143.968 53.1426 143.886 53.0511 143.833 52.9436C143.78 52.8361 143.758 52.7166 143.77 52.5978C144.12 48.666 146.702 47.9333 146.802 47.9089C146.887 47.8832 146.978 47.8749 147.067 47.8846C147.156 47.8943 147.241 47.9218 147.319 47.9654C147.397 48.0089 147.464 48.0676 147.518 48.1377C147.571 48.2078 147.609 48.2879 147.629 48.3729C147.675 48.5348 147.654 48.708 147.569 48.8545C147.485 49.001 147.344 49.1088 147.178 49.1544C146.677 49.3753 146.241 49.7142 145.908 50.1406C145.576 50.5669 145.358 51.0673 145.273 51.5965C145.96 51.4875 146.664 51.6264 147.253 51.9873C147.596 52.1834 147.874 52.4724 148.052 52.8192C148.23 53.166 148.3 53.5557 148.255 53.941C148.26 54.0362 148.243 54.1311 148.206 54.2192C148.169 54.3073 148.113 54.3866 148.041 54.4516C147.97 54.5166 147.885 54.5657 147.792 54.5956C147.699 54.6255 147.601 54.6355 147.504 54.6248Z" fill="#F18380"/>
<path d="M112.519 65.5166C114.939 65.4256 117.261 64.5682 119.135 63.0744" stroke="#73102A" stroke-width="0.5" stroke-miterlimit="10" stroke-linecap="round"/>
</g>
<path d="M170.134 101.495C175.853 108.849 208.944 198.726 208.944 198.726C178.304 188.921 181.179 162.423 164.515 165.226C164.515 165.226 145.299 120.123 144.565 116.088C143.799 112.907 144.143 109.56 145.539 106.601C146.935 103.642 149.3 101.249 152.242 99.8169C160.443 95.6246 164.414 94.141 170.134 101.495Z" fill="#90A2B7"/>
<path d="M27.7674 93.6171C27.6412 90.8595 28.3794 88.1313 29.879 85.8136C32.1877 83.1367 33.9173 80.0109 34.959 76.6329C35.7603 73.4972 37.0403 70.5038 38.7537 67.7581C39.9778 66.075 41.814 64.6979 41.814 63.4126C41.814 62.1273 39.3658 59.6486 35.8771 60.3524C34.3828 60.8179 33.0098 61.608 31.8564 62.6661C30.7031 63.7242 29.7979 65.0241 29.2057 66.4729C28.8715 65.5901 28.6754 64.6612 28.6244 63.7187L27.8593 44.9594C27.8477 44.4731 27.7387 43.994 27.5389 43.5505C27.3391 43.107 27.0523 42.7081 26.6957 42.3772C26.3392 42.0463 25.92 41.7902 25.4628 41.624C25.0056 41.4578 24.5198 41.3849 24.034 41.4096C23.2606 41.4425 22.5168 41.7171 21.9075 42.1947C21.2982 42.6723 20.8539 43.3288 20.6371 44.0719V43.2151C20.5194 42.3031 20.0611 41.4695 19.3542 40.8815C18.6473 40.2935 17.744 39.9947 16.8259 40.045C15.9078 40.0954 15.0428 40.4912 14.4044 41.153C13.766 41.8148 13.4016 42.6936 13.3844 43.6129V46.2141C13.0779 45.4122 12.4934 44.747 11.7375 44.34C10.9816 43.9329 10.1046 43.811 9.26639 43.9965C8.42813 44.1819 7.68441 44.6623 7.17079 45.3503C6.65717 46.0382 6.40782 46.8879 6.46821 47.7443V49.3967C6.13883 48.8179 5.64797 48.3475 5.05558 48.0432C4.46319 47.7389 3.79495 47.6137 3.13257 47.683C2.22548 47.7981 1.39888 48.2618 0.827679 48.9758C0.256481 49.6898 -0.0144539 50.5981 0.0723343 51.5083L1.57182 67.3297C2.55413 76.2496 4.39895 85.0533 7.0803 93.6171C7.11271 95.047 7.44398 96.4542 8.05278 97.7485C8.66157 99.0427 9.53441 100.195 10.6152 101.132C11.6961 102.069 12.961 102.769 14.3286 103.187C15.6962 103.606 17.1362 103.734 18.5562 103.563C19.8412 103.606 21.1204 103.372 22.307 102.877C23.4937 102.382 24.56 101.637 25.4337 100.694C26.3073 99.7508 26.9679 98.6306 27.3706 97.4095C27.7733 96.1885 27.9085 94.8951 27.7674 93.6171Z" fill="#FBBEAA"/>
<path d="M27.1558 69.1357C28.3187 69.1357 28.4104 68.4012 28.9307 67.0547C26.3295 67.0547 18.7707 67.5443 15.4657 73.9096C18.8013 69.3193 25.1972 69.1357 27.1558 69.1357ZM21.2189 44.9292C21.2189 44.9292 21.4025 46.0003 21.5861 47.5611C21.5861 48.3567 21.7698 49.3053 21.831 50.2846C21.8922 51.2639 21.984 52.335 22.0758 53.3448C22.0758 55.487 22.2287 57.5986 22.2287 59.1899C22.2287 60.7812 22.2287 61.8523 22.2287 61.8523C22.2289 61.9032 22.2185 61.9536 22.1982 62.0003C22.1779 62.047 22.148 62.0889 22.1106 62.1234C22.0732 62.1579 22.029 62.1844 21.9809 62.2009C21.9327 62.2175 21.8817 62.2237 21.831 62.2195C21.7449 62.2152 21.6624 62.183 21.5962 62.1278C21.53 62.0726 21.4835 61.9975 21.4637 61.9136C21.4637 61.9136 21.2801 60.8424 21.1271 59.2511C20.9741 57.6598 20.7293 55.5482 20.6375 53.4366C20.6375 52.3656 20.6375 51.2945 20.6375 50.3764C20.6375 49.4583 20.6375 48.4485 20.6375 47.6529C20.6375 46.0309 20.6375 44.9904 20.6375 44.9904C20.6373 44.9395 20.6477 44.8891 20.668 44.8424C20.6883 44.7958 20.7182 44.7538 20.7556 44.7193C20.793 44.6847 20.8372 44.6584 20.8853 44.6418C20.9335 44.6253 20.9846 44.6189 21.0353 44.6232C21.094 44.6569 21.1421 44.7063 21.1746 44.7657C21.207 44.8251 21.2223 44.8923 21.2189 44.9598V44.9292ZM14.1191 47.0714C14.1191 47.0714 14.3028 47.9894 14.517 49.3359C14.517 50.0398 14.7312 50.8354 14.823 51.6923C14.9148 52.5492 15.0066 53.4672 15.0984 54.3853C15.0984 56.2215 15.3126 58.0576 15.3432 59.4347C15.3738 60.8118 15.3432 61.7605 15.3432 61.7605C15.3394 61.8088 15.326 61.8558 15.3039 61.8989C15.2818 61.942 15.2514 61.9803 15.2144 62.0116C15.1775 62.0429 15.1346 62.0666 15.0885 62.0813C15.0423 62.096 14.9937 62.1014 14.9455 62.0972C14.8631 62.0914 14.7851 62.0581 14.724 62.0026C14.663 61.947 14.6224 61.8725 14.6088 61.7911C14.6088 61.7911 14.4252 60.873 14.211 59.5265C13.9967 58.18 13.8131 56.3133 13.6601 54.5077C13.6601 53.5897 13.6601 52.6716 13.4765 51.8147C13.2929 50.9579 13.4765 50.1316 13.4765 49.4278C13.4765 48.0506 13.4765 47.1326 13.4765 47.1326C13.4763 47.0817 13.4867 47.0313 13.5071 46.9846C13.5274 46.938 13.5573 46.896 13.5947 46.8615C13.6321 46.8269 13.6762 46.8006 13.7244 46.784C13.7725 46.7675 13.8236 46.7611 13.8744 46.7654C13.9423 46.7934 14.001 46.8397 14.0442 46.8991C14.0875 46.9585 14.1134 47.0287 14.1191 47.1019V47.0714ZM7.26426 49.9786C7.26426 49.9786 7.44782 50.7436 7.69264 51.9065C7.69264 52.4574 7.93751 53.1307 8.02931 53.8651C8.12112 54.5996 8.24349 55.3646 8.3659 56.1297C8.58011 57.6904 8.672 59.1899 8.7332 60.414C8.79441 61.6381 8.7332 62.3726 8.7332 62.3726C8.73338 62.4235 8.72291 62.4738 8.70257 62.5205C8.68223 62.5672 8.65238 62.6092 8.61497 62.6437C8.57756 62.6782 8.5334 62.7046 8.48525 62.7211C8.4371 62.7377 8.38609 62.744 8.33536 62.7398C8.25723 62.7357 8.18242 62.7068 8.12186 62.6572C8.06131 62.6077 8.01814 62.5402 7.99868 62.4644C7.99868 62.4644 7.78452 61.6993 7.5703 60.567C7.35608 59.4348 7.05003 57.8434 6.86641 56.3133C6.86641 55.5176 6.71338 54.7526 6.65217 54.0181C6.59097 53.2836 6.65217 52.6104 6.65217 52.029C6.65217 50.8661 6.65217 50.0704 6.65217 50.0704C6.65199 50.0195 6.66247 49.9691 6.6828 49.9224C6.70314 49.8758 6.7329 49.8338 6.77031 49.7993C6.80772 49.7647 6.85198 49.7384 6.90013 49.7218C6.94827 49.7053 6.99928 49.6989 7.05002 49.7032C7.10651 49.7347 7.15515 49.7786 7.19225 49.8316C7.22935 49.8846 7.25397 49.9453 7.26426 50.0092V49.9786Z" fill="#F18380"/>
<path d="M101.806 91.3003L35.1096 136.283C35.3902 138.584 29.9852 91.3003 29.9852 91.3003L5.2986 93.6046C5.2986 93.6046 6.74081 141.745 10.3737 167.169C11.8155 177.259 20.2138 181.086 30.172 178.913C35.0886 177.84 39.7172 175.823 43.8361 172.932C61.5355 160.509 111.191 125.517 115.25 121.115C122.254 113.52 122.254 107.831 118.229 101.578C114.204 95.3257 105.59 90.3611 101.806 91.3003Z" fill="#90A2B7"/>
<path d="M101.806 91.3003L35.1096 136.283C35.3902 138.584 29.9852 91.3003 29.9852 91.3003L5.2986 93.6046C5.2986 93.6046 6.74081 141.745 10.3737 167.169C11.8155 177.259 20.2138 181.086 30.172 178.913C35.0886 177.84 39.7172 175.823 43.8361 172.932C61.5355 160.509 111.191 125.517 115.25 121.115C122.254 113.52 122.254 107.831 118.229 101.578C114.204 95.3257 105.59 90.3611 101.806 91.3003Z" fill="#90A2B7"/>
<path d="M140.162 326.83C140.242 333.279 137.756 339.495 133.253 344.112C128.749 348.728 122.596 351.366 116.147 351.445C109.699 351.525 103.482 349.04 98.8662 344.536C94.25 340.032 91.6119 333.879 91.5323 327.431C91.5323 327.431 88.4554 237.676 87.4048 219.49C86.3541 201.304 91.107 186.72 111.57 184.619C132.782 182.442 144.089 199.027 144.089 214.437C144.089 229.846 140.162 326.83 140.162 326.83Z" fill="#93929C"/>
<path d="M180.061 325.104C180.478 328.292 180.258 331.53 179.416 334.632C178.573 337.734 177.124 340.638 175.152 343.176C173.179 345.715 170.724 347.837 167.926 349.42C165.128 351.003 162.045 352.016 158.853 352.399C155.662 352.783 152.426 352.53 149.333 351.655C146.24 350.78 143.351 349.3 140.833 347.302C138.316 345.303 136.219 342.825 134.666 340.011C133.112 337.197 132.132 334.103 131.781 330.908C131.781 330.908 119.124 242.004 116.122 224.043C113.12 206.082 116.297 191.048 136.409 186.77C157.272 182.342 170.305 197.627 171.881 212.936C173.457 228.245 180.061 325.104 180.061 325.104Z" fill="#93929C"/>
<path d="M100.238 432.595C100.238 432.595 101.438 483.601 101.739 491.23C102.039 498.86 106.867 500.936 114.646 501.612C122.426 502.287 125.703 496.108 126.804 491.205C127.905 486.302 134.559 436.297 134.559 436.297L100.238 432.595Z" fill="#FBBEAA"/>
<path d="M101.113 468.166L129.806 471.243C132.032 455.459 134.559 436.222 134.559 436.222L100.238 432.52C100.238 432.52 100.688 451.631 101.113 468.166Z" fill="#F18380"/>
<path d="M140.163 326.831C140.123 323.638 139.455 320.483 138.197 317.549C136.939 314.614 135.114 311.955 132.829 309.725C130.543 307.495 127.84 305.737 124.875 304.552C121.91 303.366 118.741 302.777 115.548 302.816C112.355 302.855 109.201 303.523 106.266 304.782C103.331 306.04 100.672 307.864 98.4424 310.15C96.2124 312.436 94.4544 315.138 93.2689 318.103C92.0834 321.068 91.4935 324.238 91.5329 327.431L96.536 469.599L135.785 473.827L140.163 326.831Z" fill="#93929C"/>
<path d="M151.594 434.546C151.594 434.546 158.248 485.127 159.348 492.656C160.449 500.186 165.477 501.787 173.307 501.612C181.137 501.437 183.713 494.958 184.289 489.98C184.864 485.002 186.115 434.546 186.115 434.546H151.594Z" fill="#FBBEAA"/>
<path d="M156.397 469.818H185.264C185.764 453.908 186.24 434.546 186.24 434.546H151.594C151.594 434.546 154.095 453.407 156.397 469.818Z" fill="#F18380"/>
<path d="M180.062 325.104C179.231 318.754 175.928 312.987 170.87 309.058C165.813 305.128 159.409 303.353 153.05 304.117C146.691 304.882 140.891 308.124 136.909 313.14C132.926 318.157 131.084 324.541 131.782 330.908L153.545 474.602H193.019L180.062 325.104Z" fill="#93929C"/>
<path d="M131.807 330.908L154.245 473.351" stroke="#565656" stroke-width="0.75" stroke-miterlimit="10" stroke-linecap="round"/>
<path d="M131.782 330.908C131.782 330.908 119.124 242.004 116.122 224.043" stroke="#565656" stroke-width="0.75" stroke-miterlimit="10" stroke-linecap="round"/>
<path d="M170.68 475.746C167.843 475.542 165.03 476.388 162.775 478.122C160.52 479.856 158.98 482.357 158.448 485.152L145.39 498.535V506.865H187.24C187.24 506.865 185.139 491.856 184.539 488.479C183.938 485.102 181.912 475.746 170.68 475.746Z" fill="#FBBEAA"/>
<path d="M158.473 485.052C157.998 484.401 157.323 483.901 156.847 484.201C156.372 484.501 143.739 494.507 143.139 495.008C142.769 495.355 142.49 495.787 142.324 496.266C142.158 496.745 142.112 497.258 142.188 497.759V508.491H188.167C188.167 508.491 186.365 492.631 186.24 491.756C186.115 490.88 185.24 489.729 184.739 489.754C181.584 490.721 178.308 491.243 175.008 491.305C170.623 491.538 166.248 490.678 162.276 488.804C160.803 487.78 159.517 486.511 158.473 485.052Z" fill="black"/>
<path d="M149.742 499.485C151.969 497.834 159.974 491.581 162.976 489.229L162.275 488.879C162.181 488.838 162.095 488.779 162.025 488.704C158.823 491.205 151.293 497.109 149.142 498.71C147.324 500.103 146.078 502.114 145.64 504.363L146.616 504.513C147.028 502.519 148.137 500.737 149.742 499.485Z" fill="white"/>
<path d="M186.915 497.559C183.675 497.592 180.539 498.711 178.01 500.736C175.724 502.762 174.175 505.49 173.607 508.491H174.958C175.511 505.89 176.877 503.533 178.86 501.762C181.188 499.897 184.083 498.883 187.065 498.885L186.915 497.559Z" fill="white"/>
<path d="M134.759 508.466H188.166C188.539 508.466 188.842 508.769 188.842 509.142V514.32C188.842 514.693 188.539 514.995 188.166 514.995H134.759C134.386 514.995 134.083 514.693 134.083 514.32V509.142C134.083 508.769 134.386 508.466 134.759 508.466Z" fill="white"/>
<path d="M143.264 494.908C142.789 494.707 140.462 495.383 137.435 498.36C136.175 499.662 135.268 501.265 134.799 503.016C134.331 504.766 134.317 506.608 134.759 508.366H149.943C149.092 498.76 143.739 495.108 143.264 494.908Z" fill="white"/>
<path d="M149.092 495.058C149.28 495.288 149.369 495.582 149.341 495.877C149.313 496.172 149.17 496.444 148.942 496.634C148.831 496.726 148.702 496.796 148.563 496.838C148.425 496.88 148.28 496.895 148.136 496.881C147.992 496.867 147.852 496.825 147.724 496.757C147.596 496.689 147.483 496.596 147.391 496.484L144.89 493.457C144.702 493.228 144.613 492.934 144.641 492.638C144.669 492.343 144.812 492.071 145.04 491.881C145.15 491.786 145.278 491.714 145.417 491.67C145.556 491.625 145.702 491.61 145.848 491.624C145.993 491.638 146.133 491.681 146.261 491.751C146.389 491.821 146.501 491.917 146.591 492.031L149.092 495.058Z" fill="white"/>
<path d="M152.069 492.781C152.256 493.011 152.346 493.305 152.318 493.6C152.29 493.895 152.146 494.167 151.919 494.357C151.809 494.453 151.68 494.525 151.541 494.569C151.403 494.613 151.256 494.629 151.111 494.615C150.966 494.601 150.825 494.557 150.698 494.487C150.57 494.417 150.458 494.322 150.368 494.207L147.866 491.181C147.685 490.949 147.599 490.656 147.627 490.363C147.655 490.069 147.794 489.798 148.016 489.605C148.127 489.509 148.255 489.437 148.394 489.393C148.533 489.349 148.679 489.333 148.824 489.347C148.969 489.361 149.11 489.405 149.238 489.475C149.365 489.545 149.478 489.64 149.567 489.755L152.069 492.781Z" fill="white"/>
<path d="M154.946 490.53C155.135 490.753 155.228 491.041 155.204 491.332C155.181 491.622 155.043 491.892 154.821 492.081C154.591 492.269 154.297 492.358 154.002 492.33C153.707 492.302 153.435 492.159 153.245 491.931L150.743 488.904C150.638 488.802 150.555 488.679 150.498 488.544C150.441 488.409 150.411 488.263 150.411 488.116C150.411 487.969 150.441 487.824 150.498 487.689C150.555 487.553 150.638 487.431 150.743 487.328C150.975 487.147 151.268 487.061 151.561 487.089C151.854 487.117 152.126 487.257 152.319 487.478L154.946 490.53Z" fill="white"/>
<path d="M157.847 488.254C157.94 488.366 158.009 488.494 158.051 488.633C158.093 488.771 158.108 488.916 158.094 489.061C158.08 489.205 158.038 489.344 157.97 489.472C157.902 489.6 157.809 489.713 157.697 489.805C157.487 490.011 157.204 490.127 156.909 490.127C156.615 490.127 156.332 490.011 156.121 489.805L153.62 486.753C153.432 486.523 153.343 486.229 153.371 485.934C153.399 485.639 153.542 485.367 153.77 485.177C153.882 485.085 154.01 485.016 154.149 484.973C154.287 484.931 154.432 484.916 154.576 484.93C154.721 484.944 154.86 484.987 154.988 485.055C155.116 485.123 155.229 485.215 155.321 485.327L157.847 488.254Z" fill="white"/>
<path d="M111.895 475.746C109.058 475.542 106.244 476.388 103.989 478.122C101.734 479.856 100.195 482.357 99.6625 485.152L86.6296 498.535V506.865H128.455C128.455 506.865 126.379 491.856 125.753 488.479C125.128 485.102 123.127 475.746 111.895 475.746Z" fill="#FBBEAA"/>
<path d="M99.6873 485.052C99.212 484.401 98.5616 483.901 98.0613 484.201C97.561 484.501 84.9533 494.507 84.378 495.008C83.8026 495.508 83.4023 496.133 83.4023 497.759V508.491H129.38C129.38 508.491 127.579 492.631 127.454 491.756C127.329 490.88 126.454 489.729 125.953 489.754C122.798 490.721 119.522 491.243 116.222 491.305C111.844 491.542 107.476 490.682 103.515 488.804C102.03 487.785 100.735 486.515 99.6873 485.052Z" fill="black"/>
<path d="M90.9569 499.485C93.1833 497.834 101.188 491.581 104.19 489.229L103.515 488.879C103.412 488.839 103.319 488.779 103.239 488.704C100.037 491.205 92.5078 497.109 90.3565 498.71C88.5379 500.103 87.2922 502.114 86.8544 504.363L87.83 504.513C88.2548 502.524 89.3607 500.746 90.9569 499.485Z" fill="white"/>
<path d="M128.13 497.559C124.89 497.592 121.754 498.711 119.225 500.736C116.938 502.762 115.39 505.49 114.822 508.491H116.173C116.732 505.887 118.108 503.53 120.1 501.762C122.417 499.894 125.305 498.878 128.28 498.885L128.13 497.559Z" fill="white"/>
<path d="M75.9732 508.466H129.381C129.754 508.466 130.056 508.769 130.056 509.142V514.32C130.056 514.693 129.754 514.995 129.381 514.995H75.9732C75.6002 514.995 75.2978 514.693 75.2978 514.32V509.142C75.2978 508.769 75.6002 508.466 75.9732 508.466Z" fill="white"/>
<path d="M84.4777 494.908C84.0024 494.707 81.676 495.383 78.6491 498.36C77.3889 499.662 76.4817 501.265 76.0133 503.016C75.5449 504.766 75.5309 506.608 75.9725 508.366H91.1567C90.3062 498.76 84.953 495.108 84.4777 494.908Z" fill="white"/>
<path d="M90.4068 495.058C90.5943 495.288 90.6837 495.582 90.6556 495.877C90.6275 496.172 90.4841 496.444 90.2567 496.634C90.1451 496.726 90.0163 496.796 89.8779 496.838C89.7395 496.88 89.5941 496.895 89.4501 496.881C89.306 496.867 89.1661 496.825 89.0384 496.757C88.9106 496.689 88.7976 496.596 88.7057 496.484L86.2042 493.457C86.0228 493.225 85.9372 492.933 85.9651 492.639C85.9931 492.346 86.1324 492.075 86.3543 491.881C86.4645 491.786 86.5928 491.714 86.7317 491.67C86.8705 491.625 87.0169 491.61 87.1619 491.624C87.307 491.638 87.4476 491.681 87.5754 491.751C87.7032 491.821 87.8154 491.917 87.9053 492.031L90.4068 495.058Z" fill="white"/>
<path d="M93.2828 492.781C93.4702 493.011 93.5596 493.305 93.5315 493.6C93.5034 493.895 93.3601 494.167 93.1327 494.357C93.0225 494.453 92.8941 494.525 92.7552 494.569C92.6164 494.613 92.47 494.629 92.325 494.615C92.1799 494.601 92.0393 494.557 91.9115 494.487C91.7838 494.417 91.6716 494.322 91.5817 494.207L89.0802 491.18C88.8988 490.948 88.8133 490.656 88.8412 490.363C88.8691 490.069 89.0084 489.798 89.2303 489.604C89.4598 489.417 89.7541 489.328 90.0491 489.356C90.3442 489.384 90.6162 489.527 90.8063 489.755L93.2828 492.781Z" fill="white"/>
<path d="M96.1605 490.53C96.2649 490.63 96.3479 490.751 96.4047 490.884C96.4614 491.017 96.4907 491.161 96.4907 491.305C96.4907 491.45 96.4614 491.594 96.4047 491.727C96.3479 491.86 96.2649 491.981 96.1605 492.081C95.9309 492.268 95.6367 492.358 95.3416 492.33C95.0466 492.302 94.7745 492.158 94.5845 491.931L92.083 488.904C91.8955 488.674 91.8061 488.38 91.8342 488.085C91.8623 487.79 92.0056 487.518 92.2331 487.328C92.3447 487.236 92.4735 487.167 92.6119 487.124C92.7503 487.082 92.8956 487.067 93.0397 487.081C93.1837 487.095 93.3237 487.138 93.4514 487.206C93.5791 487.274 93.6922 487.366 93.7841 487.478L96.1605 490.53Z" fill="white"/>
<path d="M99.0622 488.254C99.1543 488.366 99.2235 488.494 99.2659 488.633C99.3082 488.771 99.3228 488.916 99.3088 489.061C99.2949 489.205 99.2526 489.344 99.1846 489.472C99.1165 489.6 99.0239 489.713 98.9121 489.805C98.7017 490.011 98.4188 490.127 98.1241 490.127C97.8295 490.127 97.5466 490.011 97.3361 489.805L94.8346 486.753C94.6471 486.523 94.5577 486.229 94.5858 485.934C94.6139 485.639 94.7572 485.367 94.9847 485.177C95.0963 485.085 95.225 485.016 95.3634 484.973C95.5018 484.931 95.6472 484.916 95.7913 484.93C95.9354 484.944 96.0753 484.987 96.203 485.055C96.3307 485.123 96.4437 485.215 96.5356 485.327L99.0622 488.254Z" fill="white"/>
<path d="M88.1403 200.035C88.1403 200.035 88.1403 225.976 88.1403 227.401C88.1403 228.827 100.648 241.06 117.258 241.06C142.799 241.06 173.367 231.729 172.917 225.65C172.617 221.648 172.242 200.035 172.242 200.035H88.1403Z" fill="#93929C"/>
<path d="M106.716 90.618C120.725 102.625 134.65 95.6211 139.236 89.3672L159.248 98.1226L154.245 190.679L87.9546 193.181L90.4561 104.376L106.716 90.618Z" fill="white"/>
<path d="M88.0591 98.5977C90.7358 96.8467 108.071 86.8406 108.071 86.8406V218.771C106.15 220.643 105.757 220.599 102.997 220.286L102.868 220.272C96.9022 218.774 91.146 216.539 85.7327 213.618C85.7327 213.618 83.4313 117.659 82.856 110.355C82.2806 103.05 85.3825 100.349 88.0591 98.5977Z" fill="#023783"/>
<path d="M134.823 220.24C133.607 219.982 132.455 219.483 131.436 218.771L138.24 85.4897C138.24 85.4897 157.877 93.4696 163.105 95.796C165.278 96.7127 167.142 98.2357 168.472 100.183C169.803 102.131 170.545 104.42 170.609 106.778C170.935 111.18 171.385 208.765 171.46 209.615C171.535 210.466 170.81 210.941 170.034 211.392C169.259 211.842 144.744 218.996 138.515 220.272C137.295 220.509 136.039 220.498 134.823 220.24Z" fill="#023783"/>
<path d="M153.684 143.966C149.046 139.276 140.373 129.162 137.439 126.699C134.537 124.513 131.367 122.708 128.006 121.328C125.456 120.474 122.82 119.903 120.145 119.625C118.285 119.389 117.525 119.939 117.525 121.066C117.572 121.737 117.786 122.386 118.147 122.954C118.509 123.521 119.007 123.989 119.595 124.315H116.163C114.984 124.315 114.224 125.258 114.774 126.778C115.274 127.782 115.988 128.664 116.867 129.361C117.745 130.059 118.766 130.554 119.857 130.813C119.857 130.813 115.219 131.259 114.04 131.494C112.861 131.73 112.494 132.176 112.494 133.302C112.505 134.081 112.721 134.842 113.121 135.51C113.522 136.177 114.092 136.726 114.774 137.102C116.443 137.779 118.215 138.169 120.014 138.254C120.014 138.254 114.276 139.696 113.123 140.115C111.97 140.534 111.839 141.294 112.442 142.289C112.785 142.991 113.281 143.607 113.893 144.092C114.505 144.577 115.218 144.919 115.979 145.093C118.154 145.67 119.621 144.726 120.407 144.857C122.096 145.401 123.75 146.049 125.359 146.796C127.776 149.202 130.731 150.999 133.98 152.037C136.398 153.051 138.616 154.489 140.53 156.281C141.422 157.118 142.472 157.767 143.619 158.191C144.766 158.615 145.987 158.804 147.208 158.748C148.43 158.692 149.627 158.391 150.731 157.864C151.834 157.337 152.82 156.594 153.631 155.679C157.824 151.224 157.116 147.504 153.684 143.966Z" fill="#FBBEAA"/>
<path d="M138.268 159.915L180.448 207.347C185.502 214.083 197.314 217.786 204.531 211.544C205.865 210.375 206.948 208.947 207.714 207.347C208.48 205.746 208.913 204.007 208.987 202.234C209.061 200.461 208.773 198.692 208.143 197.034C207.512 195.375 206.551 193.862 205.318 192.586L154.201 139.08L138.268 159.915Z" fill="#90A2B7"/>
<path d="M120.172 124.341C120.164 124.385 120.166 124.429 120.177 124.472C120.188 124.514 120.207 124.554 120.234 124.589C120.261 124.623 120.296 124.652 120.334 124.672C120.373 124.693 120.416 124.705 120.46 124.708L122.608 124.918H123.656C124.023 124.918 124.364 125.049 124.731 125.075C125.118 125.191 125.495 125.34 125.857 125.52L127.063 126.018C128.687 126.673 130.312 127.276 131.517 127.721C132.722 128.167 133.561 128.429 133.561 128.429C133.627 128.457 133.702 128.459 133.77 128.435C133.838 128.41 133.894 128.362 133.928 128.298C133.976 128.234 134.003 128.156 134.003 128.075C134.003 127.995 133.976 127.916 133.928 127.852L131.962 126.83L129.919 125.861C129.185 125.52 128.373 125.18 127.561 124.865L126.329 124.394C125.933 124.215 125.521 124.074 125.098 123.974L123.84 123.843H122.766H121.167H120.565C120.499 123.791 120.415 123.768 120.331 123.777C120.248 123.787 120.171 123.83 120.119 123.896C120.067 123.962 120.043 124.046 120.053 124.129C120.063 124.213 120.106 124.289 120.172 124.341ZM120.67 130.656H121.141C121.533 130.621 121.928 130.621 122.32 130.656L123.132 130.787C123.432 130.824 123.729 130.877 124.023 130.944L125.805 131.521C127.01 131.914 128.189 132.411 129.08 132.778C129.08 132.778 129.368 132.778 129.342 132.909H129.657L130.128 133.04H130.417H130.574C130.653 133.059 130.722 133.108 130.766 133.176C130.81 133.245 130.825 133.327 130.81 133.407C130.798 133.47 130.766 133.527 130.719 133.57C130.671 133.612 130.611 133.638 130.548 133.643H129.211H128.792C127.875 133.407 126.644 133.04 125.438 132.621L123.683 131.966L122.87 131.756L122.163 131.547C121.801 131.44 121.434 131.352 121.063 131.285L120.617 131.154C120.577 131.142 120.541 131.122 120.509 131.096C120.477 131.07 120.45 131.037 120.431 131.001C120.411 130.964 120.399 130.924 120.395 130.883C120.391 130.842 120.395 130.8 120.407 130.761C120.438 130.722 120.479 130.692 120.525 130.674C120.571 130.656 120.621 130.65 120.67 130.656ZM120.67 138.097H121.639C121.901 138.097 122.242 138.097 122.582 138.281L123.656 138.621C124.332 138.859 124.989 139.148 125.622 139.486C125.912 139.622 126.193 139.78 126.46 139.958C126.514 140.019 126.543 140.098 126.543 140.18C126.543 140.262 126.514 140.341 126.46 140.403C126.385 140.483 126.281 140.53 126.172 140.534L125.202 140.377C124.652 140.246 123.945 140.036 123.237 139.8L122.215 139.381L121.325 139.04C121.028 138.909 120.739 138.76 120.46 138.595C120.386 138.551 120.331 138.481 120.307 138.398C120.282 138.316 120.29 138.227 120.329 138.15C120.407 138.1 120.5 138.081 120.591 138.097H120.67Z" fill="#F18380"/>
<path d="M91.5243 122.696L92.073 122.726L92.0348 123.436L92.6202 123.467L92.6584 122.757L93.2071 122.787L93.1028 124.726L92.5541 124.697L92.5954 123.929L92.0099 123.897L91.9685 124.665L91.4198 124.636L91.5242 122.696L91.5243 122.696ZM95.1651 122.892L95.0607 124.832L94.5306 124.803L94.6102 123.324L94.2629 123.305L94.2329 123.861C94.2195 124.112 94.1845 124.417 94.0292 124.582C93.8729 124.766 93.5947 124.809 93.2874 124.735L93.3132 124.254C93.6021 124.328 93.6822 124.215 93.7029 123.831L93.7576 122.813L95.1653 122.889L95.1651 122.892ZM95.6232 122.917L96.1718 122.946L96.4202 124.115L96.7925 122.98L97.3412 123.009L97.4936 124.963L96.9818 124.935L96.9102 123.891L96.5606 124.912L96.1949 124.893L95.9588 123.84L95.7755 124.87L95.2638 124.843L95.6231 122.917L95.6232 122.917ZM97.7992 123.034L98.3479 123.064L98.3055 123.851L98.8781 123.092L99.482 123.125L98.7359 124.047L99.3963 125.065L98.7386 125.03L98.2876 124.216L98.2453 125.003L97.6966 124.974L97.8009 123.034L97.7993 123.034L97.7992 123.034ZM95.5502 120.832C92.2583 120.655 90.0134 121.787 89.9142 123.629C89.816 125.454 91.924 126.838 95.2175 127.015C98.5278 127.193 100.755 126.041 100.854 124.218C100.953 122.375 98.8621 121.01 95.5502 120.832ZM95.233 126.728C92.1408 126.561 90.1364 125.318 90.2263 123.646C90.3172 121.957 92.4443 120.953 95.5348 121.119C98.6438 121.286 100.634 122.51 100.543 124.201C100.453 125.873 98.3436 126.895 95.233 126.728ZM95.5203 121.389C92.6126 121.232 90.6183 122.146 90.5367 123.663C90.4551 125.179 92.3399 126.302 95.2475 126.458C98.1551 126.615 100.149 125.701 100.231 124.184C100.314 122.668 98.4296 121.545 95.5203 121.389ZM95.2505 126.402C92.3781 126.247 90.5125 125.145 90.592 123.667C90.6715 122.189 92.6463 121.294 95.517 121.448C98.3878 121.603 100.255 122.705 100.176 124.183C100.098 125.661 98.1229 126.557 95.2505 126.402L95.2505 126.402Z" fill="white"/>
<circle cx="2.52586" cy="2.52586" r="2.52586" transform="matrix(-1 0 0 1 103.984 141.274)" fill="#90A2B7"/>
<circle cx="2.52586" cy="2.52586" r="2.52586" transform="matrix(-1 0 0 1 103.984 154.206)" fill="#90A2B7"/>
<circle cx="2.52586" cy="2.52586" r="2.52586" transform="matrix(-1 0 0 1 103.984 166.523)" fill="#90A2B7"/>
<defs>
<clipPath id="clip0_21_292">
<rect width="74.7655" height="98.0034" fill="white" transform="matrix(-1 0 0 1 153.826 0.995117)"/>
</clipPath>
</defs>
</svg>
