<svg width="212" height="512" viewBox="0 0 212 512" fill="none" xmlns="http://www.w3.org/2000/svg">
<g clip-path="url(#clip0_21_291)">
<path d="M102.78 62.7732H72.9163V97H102.78V62.7732Z" fill="#FBBEAA"/>
<path d="M72.9903 62.7732H102.754V81.8686C101.454 82.026 100.146 82.1067 98.8356 82.1104C88.5669 82.1104 77.0829 79.379 72.8911 69.8313L72.9903 62.7732Z" fill="#F18380"/>
<path d="M118.208 37.3694C117.96 47.2556 118.208 55.0629 116.372 62.6044C114.537 70.1459 108.931 76.3097 96.5295 76.3097C84.1278 76.3097 69.9898 72.3697 68.9977 57.2625C66.9638 55.1113 63.6649 47.4489 63.5409 38.8681C63.4169 30.2872 64.1114 12.1344 84.1774 9.35472C104.243 6.575 118.753 13.7539 118.208 37.3694Z" fill="#FBBEAA"/>
<path d="M107.716 45.1521C107.716 46.4816 108.535 47.5693 109.551 47.5693C110.568 47.5693 111.387 46.4816 111.387 45.1521C111.387 43.8227 110.568 42.735 109.551 42.735C108.535 42.735 107.716 43.726 107.716 45.1521Z" fill="#403D4F"/>
<path d="M85.3921 45.1521C85.3921 46.4816 86.2106 47.5693 87.2275 47.5693C88.2445 47.5693 89.063 46.4816 89.063 45.1521C89.063 43.8227 88.2445 42.735 87.2275 42.735C86.2106 42.735 85.3921 43.726 85.3921 45.1521Z" fill="#403D4F"/>
<path d="M89.8821 40.1246C89.7084 40.3422 88.3939 40.1246 87.4017 40.1246C86.4096 40.1246 84.4998 40.1246 84.4998 39.9071C84.4998 39.6895 85.4422 38.1909 87.9226 38.4568C89.7084 38.6502 90.3533 39.7379 89.8821 40.1246Z" fill="#403D4F"/>
<path d="M107.294 40.1246C107.443 40.3422 108.56 40.1246 109.428 40.1246C110.296 40.1246 111.908 40.1246 111.908 39.9071C111.685 39.3592 111.265 38.9095 110.726 38.6424C110.187 38.3754 109.567 38.3093 108.981 38.4568C107.443 38.6502 107.022 39.7379 107.294 40.1246Z" fill="#403D4F"/>
<path d="M99.9769 55.1595C101.713 55.1595 103.102 54.0476 103.152 53.2499L102.581 46.4336C102.562 46.2647 102.477 46.1096 102.342 46.0012C102.208 45.8929 102.036 45.8399 101.862 45.8535C101.777 45.8596 101.694 45.882 101.619 45.9193C101.543 45.9567 101.475 46.0083 101.42 46.0712C101.364 46.1341 101.322 46.2071 101.296 46.2858C101.27 46.3646 101.26 46.4477 101.267 46.5303L101.812 53.1049C101.562 53.3698 101.253 53.5768 100.91 53.7106C100.567 53.8444 100.197 53.9018 99.828 53.8784C99.7413 53.8718 99.6541 53.8824 99.5717 53.9095C99.4893 53.9366 99.4134 53.9797 99.3485 54.0362C99.2836 54.0926 99.2311 54.1613 99.1942 54.238C99.1572 54.3147 99.1366 54.398 99.1335 54.4827C99.1331 54.6541 99.1994 54.8193 99.3191 54.9449C99.4388 55.0706 99.6029 55.1472 99.7784 55.1595H99.9769Z" fill="#F18380"/>
<path d="M73.0946 50.7601C70.3745 50.4411 68.6273 48.3429 68.1339 45.9258C67.6406 43.5086 66.0935 44.7172 63.1732 44.7172C60.253 44.7172 58.7602 39.1216 57.8418 34.8649C56.6474 29.3286 58.4259 22.8475 60.178 20.5584C55.5056 16.5526 57.8418 2.81843 59.0099 7.39647C59.9444 11.0589 63.2929 12.7375 64.8504 13.1191C69.5228 -3.81981 87.8229 -0.805887 96.3889 2.81843C103.397 0.0715793 109.433 3.96295 111.574 6.25199C122.087 2.81844 126.759 7.39651 129.096 9.68554C131.432 11.9746 134.352 25.1365 124.423 30.8591C116.48 35.4372 104.76 31.6221 99.8932 29.1423C94.2863 33.7204 86.6548 32.1944 83.5399 30.8591C83.0726 33.606 77.7165 37.5354 75.575 40.0152C73.4335 42.495 74.3348 50.9055 73.0946 50.7601Z" fill="#F3E8AE"/>
<path d="M69.5435 49.7448C69.4195 46.9892 68.973 42.9284 64.9549 42.8317C60.9367 42.735 60.4158 45.6839 60.5399 50.3249C60.6639 54.9658 65.5006 58.9057 69.742 57.3104L69.5435 49.7448Z" fill="#FBBEAA"/>
<path d="M63.6399 53.0807C63.8139 53.0511 63.9688 52.9558 64.071 52.8154C64.1732 52.6751 64.2144 52.5011 64.1856 52.3313C64.1858 52.1949 64.2254 52.0613 64.3 51.9459C64.3746 51.8304 64.4811 51.7378 64.6073 51.6787C64.8604 51.5135 65.1583 51.4253 65.463 51.4253C65.7677 51.4253 66.0655 51.5135 66.3187 51.6787C66.4288 51.738 66.5526 51.769 66.6784 51.769C66.8042 51.769 66.9279 51.738 67.038 51.6787C67.1391 51.6136 67.2201 51.5231 67.2725 51.4167C67.325 51.3102 67.3468 51.192 67.3357 51.0744C66.9884 47.1828 64.4336 46.4577 64.3344 46.4335C64.2497 46.408 64.1606 46.3999 64.0725 46.4095C63.9845 46.4191 63.8994 46.4463 63.8226 46.4894C63.7457 46.5325 63.6789 46.5906 63.6261 46.66C63.5734 46.7294 63.5358 46.8086 63.5159 46.8928C63.4701 47.053 63.4914 47.2244 63.5751 47.3694C63.6588 47.5144 63.7981 47.6212 63.9624 47.6663C64.4579 47.8849 64.8897 48.2203 65.2188 48.6423C65.548 49.0643 65.764 49.5596 65.8474 50.0834C65.1678 49.9755 64.471 50.113 63.888 50.4701C63.5483 50.6643 63.2737 50.9503 63.0976 51.2936C62.9214 51.6368 62.8513 52.0225 62.8958 52.4039C62.8916 52.498 62.9085 52.592 62.9451 52.6792C62.9817 52.7665 63.0373 52.8449 63.108 52.9092C63.1787 52.9736 63.2629 53.0222 63.3547 53.0518C63.4465 53.0814 63.5438 53.0912 63.6399 53.0807Z" fill="#F18380"/>
<path d="M98.2662 63.8608C95.8718 63.7708 93.5728 62.9222 91.718 61.4437" stroke="#73102A" stroke-width="0.5" stroke-miterlimit="10" stroke-linecap="round"/>
</g>
<path d="M183.715 90.529C183.84 87.7997 183.109 85.0994 181.625 82.8054C179.34 80.1559 177.628 77.0622 176.597 73.7188C175.804 70.6152 174.537 67.6525 172.841 64.9349C171.629 63.269 169.812 61.9061 169.812 60.634C169.812 59.3618 172.235 56.9084 175.688 57.6051C177.167 58.0658 178.526 58.8478 179.668 59.895C180.809 60.9423 181.705 62.2289 182.291 63.6629C182.622 62.7892 182.816 61.8697 182.867 60.9369L183.624 42.3698C183.635 41.8885 183.743 41.4143 183.941 40.9753C184.139 40.5364 184.422 40.1415 184.775 39.814C185.128 39.4865 185.543 39.233 185.996 39.0685C186.448 38.904 186.929 38.8319 187.41 38.8563C188.175 38.8889 188.911 39.1607 189.515 39.6334C190.118 40.106 190.557 40.7558 190.772 41.4914V40.6433C190.888 39.7407 191.342 38.9156 192.042 38.3337C192.741 37.7517 193.635 37.4559 194.544 37.5057C195.453 37.5556 196.309 37.9473 196.941 38.6024C197.573 39.2574 197.933 40.1272 197.95 41.0371V43.6116C198.254 42.8179 198.832 42.1596 199.58 41.7567C200.329 41.3538 201.197 41.2331 202.026 41.4167C202.856 41.6003 203.592 42.0757 204.1 42.7566C204.609 43.4375 204.855 44.2785 204.796 45.1261V46.7616C205.122 46.1887 205.608 45.7232 206.194 45.422C206.78 45.1207 207.442 44.9968 208.097 45.0655C208.995 45.1794 209.813 45.6383 210.378 46.345C210.944 47.0517 211.212 47.9507 211.126 48.8516L209.642 64.5109C208.67 73.3395 206.844 82.0529 204.19 90.529C204.158 91.9443 203.83 93.3371 203.227 94.6181C202.625 95.899 201.761 97.0397 200.691 97.9669C199.621 98.894 198.369 99.587 197.016 100.001C195.662 100.416 194.237 100.542 192.832 100.373C191.56 100.415 190.294 100.184 189.119 99.6939C187.945 99.204 186.889 98.4672 186.025 97.5335C185.16 96.5999 184.506 95.4912 184.107 94.2826C183.709 93.0741 183.575 91.7939 183.715 90.529Z" fill="#FBBEAA"/>
<path d="M184.32 66.2982C183.169 66.2982 183.078 65.5713 182.563 64.2386C185.138 64.2386 192.619 64.7232 195.891 71.0233C192.589 66.48 186.259 66.2982 184.32 66.2982ZM190.196 42.3398C190.196 42.3398 190.015 43.3999 189.833 44.9446C189.833 45.7322 189.651 46.6711 189.59 47.6403C189.53 48.6095 189.439 49.6697 189.348 50.6692C189.348 52.7894 189.197 54.8793 189.197 56.4544C189.197 58.0294 189.197 59.0895 189.197 59.0895C189.197 59.1399 189.207 59.1898 189.227 59.236C189.247 59.2822 189.277 59.3236 189.314 59.3578C189.351 59.392 189.394 59.4182 189.442 59.4345C189.49 59.4509 189.54 59.4571 189.59 59.4529C189.676 59.4487 189.757 59.4168 189.823 59.3622C189.888 59.3075 189.934 59.2332 189.954 59.1501C189.954 59.1501 190.136 58.0899 190.287 56.5149C190.439 54.9399 190.681 52.85 190.772 50.7601C190.772 49.6999 190.772 48.6398 190.772 47.7312C190.772 46.8225 190.772 45.823 190.772 45.0355C190.772 43.4302 190.772 42.4003 190.772 42.4003C190.772 42.3499 190.762 42.3001 190.742 42.2539C190.721 42.2077 190.692 42.1661 190.655 42.132C190.618 42.0978 190.574 42.0717 190.526 42.0553C190.479 42.039 190.428 42.0326 190.378 42.0368C190.32 42.0702 190.272 42.1191 190.24 42.1779C190.208 42.2367 190.193 42.3032 190.196 42.3701V42.3398ZM197.223 44.46C197.223 44.46 197.042 45.3686 196.829 46.7014C196.829 47.398 196.617 48.1855 196.527 49.0336C196.436 49.8817 196.345 50.7903 196.254 51.699C196.254 53.5163 196.042 55.3336 196.012 56.6966C195.981 58.0596 196.012 58.9986 196.012 58.9986C196.016 59.0464 196.029 59.093 196.051 59.1356C196.073 59.1783 196.103 59.2162 196.139 59.2472C196.176 59.2781 196.218 59.3016 196.264 59.3161C196.31 59.3307 196.358 59.336 196.405 59.3318C196.487 59.3261 196.564 59.2932 196.625 59.2382C196.685 59.1833 196.725 59.1095 196.739 59.0289C196.739 59.0289 196.92 58.1202 197.132 56.7875C197.344 55.4548 197.526 53.6072 197.678 51.8202C197.678 50.9115 197.678 50.0028 197.859 49.1547C198.041 48.3067 197.859 47.4889 197.859 46.7922C197.859 45.4292 197.859 44.5206 197.859 44.5206C197.859 44.4702 197.849 44.4203 197.829 44.3741C197.809 44.3279 197.779 44.2864 197.742 44.2522C197.705 44.218 197.662 44.192 197.614 44.1756C197.566 44.1592 197.516 44.1529 197.466 44.1571C197.398 44.1848 197.34 44.2307 197.297 44.2895C197.255 44.3483 197.229 44.4177 197.223 44.4902V44.46ZM204.008 47.3374C204.008 47.3374 203.826 48.0946 203.584 49.2456C203.584 49.7908 203.342 50.4572 203.251 51.1841C203.16 51.9111 203.039 52.6683 202.918 53.4255C202.706 54.9702 202.615 56.4544 202.554 57.6659C202.493 58.8775 202.554 59.6044 202.554 59.6044C202.554 59.6548 202.564 59.7047 202.584 59.7509C202.604 59.797 202.634 59.8386 202.671 59.8728C202.708 59.907 202.752 59.933 202.799 59.9494C202.847 59.9658 202.898 59.9721 202.948 59.9679C203.025 59.9639 203.099 59.9352 203.159 59.8862C203.219 59.8371 203.262 59.7703 203.281 59.6953C203.281 59.6953 203.493 58.9381 203.705 57.8174C203.917 56.6967 204.22 55.1217 204.402 53.6072C204.402 52.8197 204.553 52.0625 204.614 51.3355C204.674 50.6086 204.614 49.9423 204.614 49.3668C204.614 48.2158 204.614 47.4283 204.614 47.4283C204.614 47.3779 204.604 47.328 204.583 47.2818C204.563 47.2356 204.534 47.1941 204.497 47.1599C204.46 47.1257 204.416 47.0997 204.368 47.0833C204.321 47.0669 204.27 47.0606 204.22 47.0648C204.164 47.096 204.116 47.1394 204.079 47.1919C204.042 47.2444 204.018 47.3045 204.008 47.3677V47.3374Z" fill="#F18380"/>
<path d="M41.9778 98.0881C35.8959 105.908 6.59229 188.093 6.59229 188.093C39.1742 177.667 22.9806 173.67 40.701 176.652C40.701 176.652 68.3865 117.897 69.1667 113.606C69.9809 110.224 69.6155 106.664 68.1309 103.518C66.6462 100.371 64.1315 97.8262 61.003 96.3038C52.2821 91.8458 48.0598 90.2682 41.9778 98.0881Z" fill="#003399"/>
<path d="M110.213 88.0657L176.226 132.588C175.949 134.865 181.298 88.0657 181.298 88.0657L205.732 90.3464C205.732 90.3464 204.305 137.994 200.709 163.158C199.282 173.145 190.97 176.932 181.113 174.781C176.247 173.72 171.666 171.723 167.589 168.861C150.071 156.565 100.924 121.932 96.9061 117.575C89.9737 110.058 89.9737 104.427 93.9578 98.2386C97.9419 92.0499 106.468 87.1361 110.213 88.0657Z" fill="#002B80"/>
<path d="M32.3082 322.02C31.8917 325.204 32.1107 328.44 32.9525 331.539C33.7944 334.638 35.2424 337.54 37.2128 340.076C39.1832 342.612 41.6369 344.732 44.4319 346.313C47.2269 347.895 50.3078 348.907 53.4964 349.29C56.6849 349.673 59.9178 349.421 63.0081 348.546C66.0983 347.672 68.9845 346.194 71.4998 344.197C74.0151 342.2 76.1095 339.725 77.6618 336.913C79.2142 334.102 80.1937 331.011 80.5437 327.818C80.5437 327.818 93.1898 238.995 96.1889 221.051C99.1879 203.106 96.0139 188.086 75.92 183.812C55.0764 179.388 42.0553 194.659 40.4808 209.954C38.9062 225.249 32.3082 322.02 32.3082 322.02Z" fill="#93929C"/>
<path d="M72.1714 323.744C72.0918 330.187 74.5749 336.398 79.0744 341.01C83.5739 345.622 89.7213 348.257 96.1641 348.337C102.607 348.416 108.817 345.933 113.429 341.434C118.041 336.934 120.677 330.787 120.757 324.344C120.757 324.344 123.831 234.671 124.88 216.502C125.93 198.332 121.181 183.762 100.738 181.662C79.5441 179.488 68.2476 196.058 68.2476 211.453C68.2476 226.849 72.1714 323.744 72.1714 323.744Z" fill="#93929C"/>
<path d="M111.059 429.412C111.059 429.412 109.859 480.372 109.56 487.994C109.26 495.617 104.436 497.692 96.6635 498.366C88.8908 499.041 85.6169 492.868 84.5172 487.969C83.4175 483.071 76.7695 433.111 76.7695 433.111L111.059 429.412Z" fill="#FBBEAA"/>
<path d="M110.184 464.951L81.5181 468.025C79.2938 452.255 76.7695 433.036 76.7695 433.036L111.059 429.337C111.059 429.337 110.609 448.431 110.184 464.951Z" fill="#F18380"/>
<path d="M72.1714 323.745C72.2108 320.554 72.8781 317.403 74.1353 314.471C75.3925 311.539 77.2149 308.883 79.4986 306.655C81.7822 304.427 84.4823 302.671 87.4447 301.486C90.4071 300.302 93.5738 299.712 96.7639 299.752C99.9541 299.791 103.105 300.459 106.037 301.716C108.97 302.973 111.626 304.795 113.854 307.079C116.081 309.363 117.838 312.063 119.022 315.025C120.207 317.988 120.796 321.154 120.757 324.344L115.758 466.383L76.5451 470.607L72.1714 323.745Z" fill="#93929C"/>
<path d="M59.7498 431.362C59.7498 431.362 53.1018 481.896 52.0021 489.419C50.9025 496.942 45.879 498.541 38.0564 498.366C30.2338 498.192 27.6595 491.719 27.0847 486.745C26.5099 481.772 25.2603 431.362 25.2603 431.362H59.7498Z" fill="#FBBEAA"/>
<path d="M54.9507 466.601H26.1095C25.6096 450.706 25.1348 431.362 25.1348 431.362H59.7493C59.7493 431.362 57.25 450.206 54.9507 466.601Z" fill="#F18380"/>
<path d="M32.3079 322.02C33.1378 315.675 36.4377 309.914 41.4906 305.988C46.5436 302.062 52.9414 300.288 59.2946 301.052C65.6477 301.816 71.4429 305.055 75.4215 310.067C79.4 315.078 81.2406 321.457 80.5433 327.818L58.8003 471.381H19.3623L32.3079 322.02Z" fill="#93929C"/>
<path d="M79.5187 327.818L57.1006 470.132" stroke="#676767" stroke-width="0.75" stroke-miterlimit="10" stroke-linecap="round"/>
<path d="M79.5435 327.818C79.5435 327.818 92.1896 238.995 95.1887 221.051" stroke="#676767" stroke-width="0.75" stroke-miterlimit="10" stroke-linecap="round"/>
<path d="M40.6807 472.524C43.5154 472.321 46.326 473.165 48.579 474.898C50.8319 476.63 52.3703 479.129 52.902 481.921L65.948 495.292V503.615H24.1357C24.1357 503.615 26.2351 488.619 26.8349 485.245C27.4347 481.871 29.4591 472.524 40.6807 472.524Z" fill="#FBBEAA"/>
<path d="M52.8764 481.821C53.3513 481.172 54.0261 480.672 54.5009 480.972C54.9758 481.271 67.597 491.268 68.1968 491.768C68.5662 492.115 68.8457 492.547 69.0111 493.026C69.1766 493.505 69.223 494.017 69.1465 494.517V505.239H23.2104C23.2104 505.239 25.0099 489.394 25.1348 488.519C25.2598 487.645 26.1345 486.495 26.6344 486.52C29.7873 487.486 33.0595 488.007 36.3564 488.069C40.7383 488.302 45.1093 487.443 49.0776 485.57C50.5489 484.547 51.8338 483.279 52.8764 481.821Z" fill="#2E70AC"/>
<path d="M61.5989 496.242C59.3746 494.592 51.377 488.344 48.3779 485.995L49.0777 485.645C49.1721 485.604 49.2572 485.545 49.3277 485.47C52.5267 487.969 60.0494 493.868 62.1987 495.467C64.0157 496.859 65.2603 498.868 65.6977 501.115L64.723 501.265C64.3107 499.273 63.2034 497.493 61.5989 496.242Z" fill="#1E2173"/>
<path d="M24.4605 494.318C27.6978 494.35 30.8306 495.468 33.3578 497.492C35.642 499.515 37.1892 502.241 37.7564 505.239H36.4069C35.8549 502.641 34.4892 500.286 32.5081 498.516C30.1821 496.653 27.2905 495.64 24.3105 495.642L24.4605 494.318Z" fill="#1E2173"/>
<path d="M76.5692 505.214H23.2105C22.8378 505.214 22.5356 505.517 22.5356 505.889V511.063C22.5356 511.435 22.8378 511.738 23.2105 511.738H76.5692C76.9419 511.738 77.244 511.435 77.244 511.063V505.889C77.244 505.517 76.9419 505.214 76.5692 505.214Z" fill="white"/>
<path d="M68.0719 491.668C68.5468 491.468 70.8711 492.143 73.8951 495.117C75.1542 496.418 76.0606 498.02 76.5285 499.769C76.9965 501.518 77.0105 503.358 76.5693 505.114H61.3989C62.2487 495.517 67.597 491.868 68.0719 491.668Z" fill="white"/>
<path d="M62.2488 491.819C62.0614 492.048 61.9721 492.342 62.0002 492.637C62.0283 492.931 62.1715 493.203 62.3987 493.393C62.5102 493.485 62.6388 493.554 62.7771 493.597C62.9154 493.639 63.0606 493.653 63.2046 493.639C63.3485 493.626 63.4883 493.583 63.6159 493.515C63.7435 493.447 63.8564 493.355 63.9482 493.243L66.4475 490.219C66.6348 489.99 66.7241 489.696 66.696 489.401C66.668 489.106 66.5248 488.834 66.2975 488.645C66.1874 488.549 66.0592 488.477 65.9205 488.433C65.7818 488.389 65.6355 488.373 65.4906 488.387C65.3457 488.401 65.2052 488.445 65.0775 488.515C64.9499 488.585 64.8377 488.68 64.748 488.794L62.2488 491.819Z" fill="white"/>
<path d="M59.2746 489.544C59.0873 489.773 58.998 490.067 59.0261 490.362C59.0541 490.657 59.1973 490.929 59.4246 491.118C59.5346 491.214 59.663 491.286 59.8017 491.33C59.9404 491.374 60.0866 491.39 60.2315 491.376C60.3764 491.362 60.517 491.318 60.6446 491.248C60.7723 491.178 60.8844 491.083 60.9741 490.968L63.4734 487.944C63.6546 487.713 63.7401 487.42 63.7122 487.127C63.6843 486.834 63.5451 486.563 63.3234 486.37C63.2133 486.275 63.0851 486.203 62.9463 486.158C62.8076 486.114 62.6614 486.099 62.5165 486.113C62.3716 486.127 62.2311 486.17 62.1034 486.24C61.9757 486.31 61.8636 486.405 61.7739 486.52L59.2746 489.544Z" fill="white"/>
<path d="M56.4005 487.295C56.2117 487.517 56.1188 487.805 56.1422 488.096C56.1657 488.386 56.3035 488.656 56.5255 488.844C56.7548 489.032 57.0487 489.121 57.3435 489.093C57.6383 489.065 57.9101 488.922 58.1 488.695L60.5992 485.67C60.7042 485.568 60.7877 485.446 60.8447 485.31C60.9017 485.175 60.9311 485.03 60.9311 484.883C60.9311 484.736 60.9017 484.591 60.8447 484.456C60.7877 484.321 60.7042 484.198 60.5992 484.096C60.3674 483.915 60.075 483.829 59.7821 483.857C59.4892 483.885 59.2181 484.024 59.0247 484.246L56.4005 487.295Z" fill="white"/>
<path d="M53.5015 485.021C53.4095 485.132 53.3403 485.261 53.2981 485.399C53.2558 485.537 53.2412 485.682 53.2551 485.826C53.269 485.97 53.3112 486.11 53.3792 486.238C53.4472 486.365 53.5397 486.478 53.6515 486.57C53.8617 486.776 54.1443 486.892 54.4387 486.892C54.7331 486.892 55.0158 486.776 55.226 486.57L57.7252 483.521C57.9126 483.292 58.0019 482.998 57.9738 482.703C57.9457 482.408 57.8025 482.136 57.5753 481.946C57.4638 481.854 57.3351 481.785 57.1969 481.743C57.0586 481.701 56.9133 481.686 56.7694 481.7C56.6255 481.714 56.4857 481.756 56.3581 481.824C56.2305 481.892 56.1175 481.985 56.0257 482.096L53.5015 485.021Z" fill="white"/>
<path d="M99.4126 472.524C102.247 472.321 105.058 473.165 107.311 474.898C109.564 476.63 111.102 479.129 111.634 481.921L124.655 495.292V503.615H82.8677C82.8677 503.615 84.942 488.619 85.5668 485.245C86.1916 481.871 88.191 472.524 99.4126 472.524Z" fill="#FBBEAA"/>
<path d="M111.609 481.821C112.084 481.172 112.734 480.672 113.233 480.972C113.733 481.271 126.329 491.268 126.904 491.768C127.479 492.268 127.879 492.893 127.879 494.517V505.239H81.9429C81.9429 505.239 83.7423 489.394 83.8673 488.519C83.9922 487.645 84.867 486.495 85.3668 486.52C88.5197 487.486 91.7919 488.007 95.0889 488.069C99.463 488.306 103.827 487.447 107.785 485.57C109.268 484.552 110.562 483.284 111.609 481.821Z" fill="#2E70AC"/>
<path d="M120.331 496.242C118.107 494.592 110.109 488.344 107.11 485.995L107.785 485.645C107.887 485.605 107.981 485.546 108.06 485.47C111.259 487.969 118.782 493.868 120.931 495.467C122.748 496.859 123.993 498.868 124.43 501.115L123.455 501.265C123.031 499.278 121.926 497.501 120.331 496.242Z" fill="#1E2173"/>
<path d="M83.1924 494.318C86.4298 494.35 89.5625 495.468 92.0897 497.492C94.3739 499.515 95.9212 502.241 96.4884 505.239H95.1388C94.58 502.638 93.2053 500.282 91.215 498.516C88.9007 496.65 86.0155 495.635 83.0425 495.642L83.1924 494.318Z" fill="#1E2173"/>
<path d="M135.302 505.214H81.9429C81.5702 505.214 81.2681 505.517 81.2681 505.889V511.063C81.2681 511.435 81.5702 511.738 81.9429 511.738H135.302C135.674 511.738 135.976 511.435 135.976 511.063V505.889C135.976 505.517 135.674 505.214 135.302 505.214Z" fill="white"/>
<path d="M126.804 491.668C127.279 491.468 129.603 492.143 132.628 495.117C133.887 496.418 134.793 498.02 135.261 499.769C135.729 501.518 135.743 503.358 135.302 505.114H120.131C120.981 495.517 126.329 491.868 126.804 491.668Z" fill="white"/>
<path d="M120.881 491.819C120.694 492.048 120.604 492.342 120.633 492.637C120.661 492.931 120.804 493.203 121.031 493.393C121.143 493.485 121.271 493.554 121.409 493.597C121.548 493.639 121.693 493.653 121.837 493.639C121.981 493.626 122.121 493.583 122.248 493.515C122.376 493.447 122.489 493.355 122.581 493.243L125.08 490.219C125.261 489.987 125.347 489.695 125.319 489.402C125.291 489.109 125.152 488.838 124.93 488.645C124.82 488.549 124.692 488.477 124.553 488.433C124.414 488.389 124.268 488.373 124.123 488.387C123.978 488.401 123.838 488.445 123.71 488.515C123.582 488.585 123.47 488.68 123.38 488.794L120.881 491.819Z" fill="white"/>
<path d="M118.007 489.544C117.82 489.773 117.73 490.067 117.758 490.362C117.787 490.657 117.93 490.929 118.157 491.118C118.267 491.214 118.395 491.286 118.534 491.33C118.673 491.374 118.819 491.39 118.964 491.376C119.109 491.362 119.249 491.318 119.377 491.248C119.505 491.178 119.617 491.083 119.707 490.968L122.206 487.944C122.387 487.713 122.472 487.42 122.445 487.127C122.417 486.834 122.278 486.563 122.056 486.37C121.826 486.183 121.533 486.093 121.238 486.121C120.943 486.149 120.671 486.293 120.481 486.52L118.007 489.544Z" fill="white"/>
<path d="M115.133 487.295C115.028 487.395 114.945 487.515 114.889 487.648C114.832 487.781 114.803 487.925 114.803 488.069C114.803 488.214 114.832 488.357 114.889 488.49C114.945 488.623 115.028 488.744 115.133 488.844C115.362 489.031 115.656 489.121 115.951 489.093C116.246 489.065 116.517 488.921 116.707 488.694L119.206 485.67C119.394 485.441 119.483 485.147 119.455 484.852C119.427 484.557 119.284 484.285 119.057 484.096C118.945 484.003 118.816 483.934 118.678 483.892C118.54 483.85 118.395 483.835 118.251 483.849C118.107 483.863 117.967 483.905 117.839 483.973C117.712 484.041 117.599 484.134 117.507 484.245L115.133 487.295Z" fill="white"/>
<path d="M112.234 485.021C112.142 485.132 112.073 485.261 112.03 485.399C111.988 485.537 111.974 485.682 111.988 485.826C112.001 485.97 112.044 486.11 112.112 486.238C112.18 486.365 112.272 486.478 112.384 486.57C112.594 486.776 112.877 486.892 113.171 486.892C113.466 486.892 113.748 486.776 113.958 486.57L116.458 483.521C116.645 483.292 116.734 482.998 116.706 482.703C116.678 482.408 116.535 482.136 116.308 481.946C116.196 481.854 116.068 481.785 115.929 481.743C115.791 481.701 115.646 481.686 115.502 481.7C115.358 481.714 115.218 481.756 115.091 481.824C114.963 481.892 114.85 481.985 114.758 482.096L112.234 485.021Z" fill="white"/>
<path d="M124.145 197.064C124.145 197.064 124.145 222.982 124.145 224.406C124.145 225.831 111.649 238.052 95.0539 238.052C69.5367 238.052 38.996 228.73 39.4458 222.657C39.7457 218.658 40.1206 197.064 40.1206 197.064H124.145Z" fill="#93929C"/>
<path d="M103.232 83.9737C103.232 83.9737 120.552 93.9707 123.226 95.7202C125.9 97.4696 128.999 100.169 128.424 107.467C127.85 114.764 125.55 210.635 125.55 210.635C120.142 213.554 114.391 215.787 108.431 217.283C105.556 217.608 103.282 217.683 101.333 215.784C99.3833 213.884 93.6351 206.986 93.6351 206.986C93.6351 206.986 84.1629 213.409 79.8892 215.784C78.8708 216.495 77.7199 216.994 76.5049 217.251C75.2899 217.509 74.0356 217.52 72.8164 217.283C66.5932 216.009 42.1007 208.861 41.3259 208.411C40.5511 207.961 39.8264 207.486 39.9013 206.637C39.9763 205.787 40.4262 108.291 40.7511 103.893C40.8154 101.537 41.5567 99.2497 42.8862 97.3041C44.2158 95.3585 46.0775 93.8368 48.2488 92.921C53.4722 90.5967 73.0913 82.6241 73.0913 82.6241L93.5601 96.8448L103.232 83.9737Z" fill="#003399"/>
<path d="M103.232 81.175L93.6099 96.8453C93.6099 96.8453 103.057 104.343 103.607 104.893C104.157 105.443 105.256 105.393 105.481 104.518C105.706 103.643 108.43 87.0233 108.48 87.0233C108.529 86.9351 108.554 86.8363 108.554 86.7359C108.554 86.6354 108.529 86.5366 108.48 86.4485C108.23 86.2735 103.232 81.175 103.232 81.175Z" fill="#F5F5F5"/>
<g filter="url(#filter0_d_21_291)">
<rect x="67.1489" y="131.572" width="48.3361" height="68.8789" rx="1" transform="rotate(-6.55484 67.1489 131.572)" fill="#EFEFEF"/>
</g>
<path d="M72.9911 78.2755L93.6349 96.8448C93.6349 96.8448 82.7632 104.343 82.2883 104.892C82.1499 105.01 81.9865 105.095 81.8106 105.14C81.6346 105.186 81.4506 105.191 81.2725 105.155C81.0943 105.118 80.9268 105.042 80.7824 104.932C80.6379 104.822 80.5205 104.68 80.4389 104.517C79.6391 103.243 66.843 85.2733 66.793 85.1234C66.74 85.0369 66.7119 84.9374 66.7119 84.836C66.7119 84.7345 66.74 84.635 66.793 84.5486C67.0679 84.3986 72.9911 78.2755 72.9911 78.2755Z" fill="#F5F5F5"/>
<path d="M87.5065 159.484C90.9317 158.036 94.0289 155.892 96.6013 153.186C98.1934 151.515 99.9992 150.064 101.97 148.873C103.126 148.151 104.124 147.197 104.9 146.072C105.926 144.328 106.775 142.486 107.434 140.574C107.679 138.928 108.239 137.342 109.083 135.904C109.886 135.168 112.72 135.562 114.19 138.421C114.698 139.694 114.927 141.065 114.864 142.442C114.801 143.818 114.447 145.169 113.825 146.404C113.093 147.884 112.52 149.437 112.115 151.037L112.382 151.197C114.623 150.007 117.018 149.144 119.495 148.634C120.393 148.433 121.328 148.542 122.15 148.942C122.972 149.342 123.633 150.011 124.027 150.841C124.42 151.671 124.523 152.613 124.318 153.515C124.114 154.418 123.614 155.229 122.9 155.817C126.764 156.261 126.325 162.22 123.008 163.008C123.718 163.306 124.318 163.818 124.726 164.474C125.133 165.13 125.33 165.898 125.288 166.675C125.246 167.452 124.969 168.201 124.493 168.819C124.017 169.437 123.365 169.896 122.626 170.133C124.982 172.305 123.26 175.885 118.982 175.9C115.506 176.254 106.21 177.709 102.976 178.405C99.7419 179.102 93.2413 177.562 91.1531 178.208C88.0447 179.347 84.4344 179.366 81.6806 171.186C78.9269 163.007 84.3079 160.54 87.5065 159.484Z" fill="#FBBEAA"/>
<path d="M93.6263 181.427L31.0142 206.634C23.0128 210.658 10.0131 208.594 6.09415 199.235C5.37658 197.49 5.02095 195.618 5.0488 193.731C5.07665 191.845 5.48737 189.984 6.25613 188.261C7.0249 186.538 8.13565 184.989 9.52101 183.708C10.9064 182.427 12.5375 181.441 14.3154 180.809L88.3133 154.046L93.6263 181.427Z" fill="#003399"/>
<defs>
<filter id="filter0_d_21_291" x="67.2563" y="126.162" width="57.668" height="73.7313" filterUnits="userSpaceOnUse" color-interpolation-filters="sRGB">
<feFlood flood-opacity="0" result="BackgroundImageFix"/>
<feColorMatrix in="SourceAlpha" type="matrix" values="0 0 0 0 0 0 0 0 0 0 0 0 0 0 0 0 0 0 127 0" result="hardAlpha"/>
<feOffset dx="2"/>
<feComposite in2="hardAlpha" operator="out"/>
<feColorMatrix type="matrix" values="0 0 0 0 0.603922 0 0 0 0 0.6 0 0 0 0 0.631373 0 0 0 1 0"/>
<feBlend mode="normal" in2="BackgroundImageFix" result="effect1_dropShadow_21_291"/>
<feBlend mode="normal" in="SourceGraphic" in2="effect1_dropShadow_21_291" result="shape"/>
</filter>
<clipPath id="clip0_21_291">
<rect width="74" height="97" fill="white" transform="translate(57.3828)"/>
</clipPath>
</defs>
</svg>
