<svg width="271" height="556" viewBox="0 0 271 556" fill="none" xmlns="http://www.w3.org/2000/svg">
<path d="M124.546 21.8182C123.064 27.4879 122.185 33.2982 121.923 39.1525C121.612 44.0251 120 48.7252 117.255 52.7629C114.633 56.1459 111.198 59.6599 112.456 70.1497H179.617C179.617 70.1497 182.239 64.9048 179.092 55.9098C175.386 44.8053 172.657 33.398 170.937 21.8182H124.546Z" fill="#BC664A"/>
<path d="M137.396 52.7631V75.0275C137.396 75.0275 139.153 82.7113 150.928 82.7113C153.265 82.9084 155.59 82.203 157.424 80.7399C159.257 79.2768 160.461 77.167 160.788 74.844V52.7631H137.396Z" fill="#FBBEAA"/>
<path d="M160.788 71.4086C153.393 74.8964 142.615 71.7757 137.396 62.0989V52.7631H160.788V71.4086Z" fill="#F18380"/>
<path d="M175.395 35.7432C175.507 41.0765 175.27 46.4114 174.687 51.7138C173.716 59.2664 171.041 67.6582 157.641 67.6582C144.24 67.6582 137.448 61.6266 134.563 51.7138C132.833 45.7084 129.318 36.8708 130.761 26.6171C132.203 16.3634 138.366 9.7024 152.92 9.30903C167.475 8.91566 176.994 15.4717 175.395 35.7432Z" fill="#FBBEAA"/>
<path d="M147.072 40.3065C147.166 40.6927 147.365 41.045 147.649 41.3235C147.932 41.6019 148.288 41.7952 148.676 41.8815C149.064 41.9678 149.468 41.9435 149.843 41.8116C150.217 41.6796 150.548 41.4452 150.796 41.135C151.044 40.8247 151.2 40.4511 151.247 40.0565C151.293 39.6619 151.228 39.2622 151.059 38.9028C150.89 38.5433 150.623 38.2386 150.289 38.0232C149.955 37.8078 149.568 37.6903 149.17 37.6841C148.858 37.7132 148.555 37.8049 148.279 37.9536C148.004 38.1024 147.76 38.3052 147.565 38.5499C147.369 38.7947 147.224 39.0763 147.14 39.3781C147.055 39.6799 147.032 39.9957 147.072 40.3065Z" fill="#403D4F"/>
<path d="M166.504 40.3065C166.598 40.6927 166.797 41.045 167.081 41.3235C167.364 41.6019 167.72 41.7952 168.108 41.8815C168.496 41.9678 168.9 41.9435 169.275 41.8116C169.649 41.6796 169.98 41.4452 170.228 41.135C170.476 40.8247 170.632 40.4511 170.679 40.0565C170.725 39.6619 170.66 39.2622 170.491 38.9028C170.322 38.5433 170.055 38.2386 169.721 38.0232C169.387 37.8078 169 37.6903 168.602 37.6841C168.292 37.7167 167.99 37.8106 167.716 37.9604C167.442 38.1103 167.201 38.3131 167.005 38.557C166.81 38.8009 166.666 39.0812 166.58 39.3815C166.493 39.6818 166.468 39.9963 166.504 40.3065Z" fill="#403D4F"/>
<path d="M153.392 32.8852C153.392 32.8852 153.392 32.8852 153.183 32.6754C152.971 32.4698 152.733 32.2934 152.475 32.151C152.144 31.9616 151.792 31.812 151.426 31.7051C150.572 31.4709 149.686 31.3822 148.803 31.4429C148.432 31.462 148.063 31.5147 147.702 31.6002L146.679 31.8887C146.51 31.9431 146.369 32.0612 146.286 32.2178C146.203 32.3745 146.184 32.5575 146.233 32.7279C146.276 32.862 146.36 32.9793 146.473 33.0638C146.586 33.1484 146.722 33.1959 146.863 33.1999H148.829C149.17 33.1741 149.512 33.1741 149.852 33.1999C150.189 33.2309 150.523 33.2924 150.849 33.3835C151.19 33.3835 151.426 33.5671 151.688 33.5933C151.874 33.6717 152.067 33.7332 152.265 33.7769H152.501C152.664 33.848 152.849 33.8522 153.016 33.7885C153.183 33.7247 153.318 33.5982 153.392 33.436C153.431 33.3448 153.451 33.2466 153.451 33.1475C153.451 33.0483 153.431 32.9502 153.392 32.859V32.8852Z" fill="#403D4F"/>
<path d="M166.164 33.8815C166.164 33.8815 166.164 33.8815 166.321 33.8815L166.714 33.7241H167.003C167.106 33.7014 167.214 33.7014 167.317 33.7241C167.549 33.6476 167.786 33.5862 168.025 33.5406C168.269 33.5133 168.516 33.5133 168.76 33.5406H170.255C170.343 33.5406 170.43 33.5229 170.512 33.4883C170.593 33.4537 170.666 33.4031 170.728 33.3394C170.789 33.2757 170.837 33.2003 170.868 33.1177C170.899 33.0351 170.914 32.947 170.91 32.8587C170.905 32.7286 170.863 32.6027 170.789 32.4958C170.714 32.3889 170.611 32.3056 170.491 32.2556L169.678 31.9671C169.387 31.8803 169.088 31.8275 168.786 31.8098C168.429 31.7577 168.067 31.7577 167.711 31.8098C167.026 31.8956 166.376 32.1576 165.823 32.5703L165.324 33.0685C165.193 33.2259 165.193 33.2783 165.193 33.3046V33.5406C165.17 33.7207 165.217 33.9027 165.325 34.0492C165.432 34.1956 165.591 34.2952 165.77 34.3273C165.95 34.2298 166.089 34.0719 166.164 33.8815Z" fill="#403D4F"/>
<path d="M160.788 49.2492C161.23 49.2467 161.667 49.1548 162.072 48.979C162.478 48.8033 162.844 48.5473 163.148 48.2265C163.259 48.1076 163.344 47.967 163.398 47.8136C163.453 47.6601 163.474 47.4972 163.463 47.3349C163.463 47.0464 163.017 43.4274 162.859 42.09C162.829 41.9606 162.755 41.8456 162.65 41.7644C162.545 41.6832 162.415 41.6407 162.283 41.6442C162.148 41.6638 162.026 41.7349 161.943 41.8425C161.86 41.9502 161.822 42.0859 161.837 42.2211C161.837 42.4047 162.414 47.1513 162.466 47.466C162.251 47.7037 161.988 47.8923 161.694 48.019C161.4 48.1457 161.082 48.2075 160.761 48.2003C160.627 48.207 160.5 48.2652 160.407 48.3629C160.315 48.4605 160.263 48.5901 160.263 48.7248C160.27 48.8618 160.327 48.9915 160.424 49.0885C160.521 49.1856 160.651 49.2429 160.788 49.2492Z" fill="#F18380"/>
<path d="M163.2 54.4153C164.171 54.6513 164.538 56.1199 163.935 57.8244C163.34 58.9981 162.366 59.9368 161.172 60.4888C159.978 61.0408 158.632 61.1739 157.352 60.8665C156.654 60.8333 155.969 60.6608 155.338 60.3591C154.708 60.0574 154.144 59.6326 153.679 59.1097C153.215 58.5868 152.86 57.9764 152.635 57.3143C152.41 56.6523 152.32 55.9519 152.37 55.2544C152.37 54.1268 153.157 53.4712 154.625 53.4712C157.505 53.5481 160.373 53.8638 163.2 54.4153Z" fill="#73102A"/>
<path d="M152.37 55.3856V55.1496C154.289 54.706 156.305 54.9987 158.02 55.9699C159.734 56.941 161.021 58.52 161.627 60.3945C160.278 61.0556 158.761 61.2933 157.274 61.0763C156.575 61.0335 155.892 60.8511 155.265 60.5401C154.637 60.229 154.079 59.7955 153.622 59.2652C153.165 58.7348 152.819 58.1183 152.604 57.452C152.389 56.7857 152.309 56.0831 152.37 55.3856Z" fill="#D65155"/>
<path d="M162.361 55.9888C159.04 56.0403 155.734 55.535 152.58 54.494C152.777 54.1367 153.078 53.8477 153.444 53.6652C153.809 53.4826 154.221 53.415 154.625 53.4713C157.505 53.5481 160.373 53.8639 163.2 54.4153C163.472 54.5088 163.709 54.6809 163.882 54.9098C164.054 55.1387 164.155 55.4139 164.171 55.7003C163.59 55.9063 162.977 56.0041 162.361 55.9888Z" fill="white"/>
<path d="M147.781 25.4376C147.781 25.4376 145.158 38.5498 134.039 43.6373C134.039 43.6373 122.71 37.055 124.022 24.4936C125.648 9.02118 147.624 -8.3918 169.495 8.0771C171.619 7.73619 173.927 3.25182 173.245 0C174.139 0.561738 174.842 1.38019 175.264 2.34832C175.685 3.31644 175.804 4.38916 175.606 5.42616C175.407 6.46315 174.901 7.41615 174.152 8.1605C173.403 8.90486 172.447 9.40591 171.409 9.59812C174.979 10.0955 178.219 11.9527 180.452 14.7821C182.685 17.6115 183.739 21.1941 183.394 24.782C183.282 27.0441 182.34 29.1855 180.748 30.7967C179.156 32.4078 177.026 33.3755 174.766 33.5147H170.911C167.928 32.1479 165.517 29.7827 164.092 26.8275C164.463 29.0551 165.237 31.1967 166.374 33.1476C166.584 33.541 166.112 34.2228 162.886 33.541C159.183 32.2672 156.088 29.6584 154.206 26.2244C154.911 28.4761 155.851 30.6473 157.012 32.7018C157.012 33.0951 155.307 33.6721 152.79 32.5182C151.387 31.9085 150.179 30.9261 149.296 29.6777C148.413 28.4294 147.889 26.9629 147.781 25.4376Z" fill="#BC664A"/>
<path d="M164.984 35.7435C164.04 35.7435 163.672 37.4743 163.672 39.1265C163.769 41.3643 164.437 43.5402 165.613 45.4465C166.094 46.0218 166.718 46.4603 167.422 46.7181C168.127 46.9759 168.886 47.0438 169.625 46.9151C170.525 47.0543 171.444 46.9949 172.319 46.7412C173.193 46.4875 174.001 46.0456 174.687 45.4465C176.13 43.6386 176.99 41.4344 177.152 39.1265C177.152 37.4743 176.653 35.7435 175.473 35.7435H164.984Z" stroke="#403D4F" stroke-width="0.75" stroke-miterlimit="10"/>
<path d="M157.064 35.7435C158.323 35.7435 158.821 37.4743 158.821 39.1265C158.649 41.4603 157.729 43.6766 156.199 45.4465C155.474 46.0414 154.633 46.4791 153.73 46.7319C152.827 46.9847 151.882 47.0471 150.954 46.9151C148.597 47.2182 146.207 46.6996 144.188 45.4465C142.346 43.8216 141.177 41.5679 140.91 39.1265C140.91 37.4743 141.539 35.7435 143.139 35.7435H157.064Z" stroke="#403D4F" stroke-width="0.75" stroke-miterlimit="10"/>
<path d="M163.883 37.317C163.129 36.7428 162.208 36.4318 161.26 36.4318C160.313 36.4318 159.391 36.7428 158.638 37.317" stroke="#403D4F" stroke-width="0.75" stroke-miterlimit="10"/>
<path d="M143.087 35.7435H139.888C139.206 35.7435 138.419 35.9009 138.419 36.8187V38.2873C138.419 38.6544 140.753 39.3887 141.041 40.2017" stroke="#403D4F" stroke-width="0.75" stroke-miterlimit="10"/>
<path d="M131.443 39.5726L138.419 36.8191" stroke="#403D4F" stroke-width="0.75" stroke-miterlimit="10"/>
<path d="M135.035 45.5779C134.825 42.0113 133.881 37.8417 129.528 38.4711C124.44 39.2578 123.942 53.0256 134.773 51.3734L135.035 45.5779Z" fill="#FBBEAA"/>
<path d="M129.161 46.4958C129.253 46.4971 129.342 46.4733 129.421 46.427C129.5 46.3808 129.564 46.3139 129.607 46.2335C129.722 46.0065 129.894 45.8127 130.105 45.6704C130.316 45.5282 130.56 45.4422 130.814 45.4206C131.116 45.4239 131.413 45.5053 131.675 45.6569C131.937 45.8085 132.155 46.0252 132.308 46.286C132.371 46.3757 132.461 46.4423 132.566 46.4755C132.67 46.5086 132.782 46.5066 132.885 46.4696C132.996 46.4388 133.092 46.3685 133.155 46.2719C133.218 46.1753 133.243 46.059 133.226 45.9451C133.181 44.842 132.837 43.7719 132.233 42.8484C131.628 41.9249 130.784 41.1826 129.791 40.7002C129.724 40.6606 129.649 40.6362 129.572 40.629C129.495 40.6217 129.417 40.6317 129.344 40.6582C129.271 40.6847 129.205 40.727 129.15 40.7822C129.096 40.8374 129.054 40.904 129.028 40.9773C129.002 41.0505 128.993 41.1286 129.001 41.2058C129.009 41.283 129.035 41.3574 129.075 41.4237C129.115 41.4901 129.17 41.5466 129.235 41.5893C129.3 41.632 129.373 41.6597 129.45 41.6705C130.039 41.957 130.564 42.3605 130.992 42.8564C131.421 43.3524 131.744 43.9304 131.941 44.5552C131.575 44.3747 131.168 44.2933 130.761 44.3192C130.337 44.3593 129.929 44.502 129.573 44.735C129.217 44.9681 128.922 45.2844 128.716 45.6566C128.658 45.7758 128.648 45.9122 128.687 46.0387C128.726 46.1651 128.811 46.2722 128.925 46.3384L129.161 46.4958Z" fill="#F18380"/>
<g opacity="0.3" filter="url(#filter0_f_110_19)">
<ellipse cx="106.5" cy="14.5" rx="106.5" ry="14.5" transform="matrix(1 0 0 -1 17.5 539)" fill="#CBCBCB"/>
</g>
<path d="M241.287 80.3558C241.389 78.1208 240.791 75.9097 239.575 74.0312C237.704 71.8616 236.302 71.3282 235.458 68.5904C234.809 66.049 233.771 63.6229 232.383 61.3976C231.39 60.0335 229.902 58.9174 229.902 57.8757C229.902 56.834 231.887 54.825 234.714 55.3954C235.925 55.7727 237.038 56.413 237.973 57.2706C238.907 58.1282 239.641 59.1817 240.121 60.3559C240.392 59.6405 240.551 58.8876 240.592 58.1237L241.212 40.9197C241.222 40.5256 241.31 40.1373 241.472 39.7778C241.634 39.4184 241.866 39.095 242.155 38.8269C242.444 38.5587 242.784 38.3511 243.155 38.2164C243.525 38.0817 243.919 38.0226 244.313 38.0426C244.94 38.0694 245.542 38.2919 246.036 38.679C246.287 38.8754 250.482 43.9631 254.577 49.0061C258.551 53.901 262.431 58.7537 262.518 59.0504C261.722 66.2798 260.226 73.415 258.053 80.3558C258.027 81.5147 257.759 82.6553 257.265 83.7042C256.772 84.7531 256.064 85.6872 255.188 86.4464C254.312 87.2056 253.287 87.7731 252.179 88.1124C251.07 88.4517 249.903 88.5554 248.752 88.4167C247.711 88.4514 246.674 88.2618 245.712 87.8606C244.751 87.4595 243.886 86.8561 243.178 86.0916C242.47 85.327 241.935 84.4192 241.608 83.4295C241.282 82.4399 241.172 81.3916 241.287 80.3558Z" fill="#FBBEAA"/>
<path d="M247.029 35.2041L260.017 47.7466C263.147 51.256 264.627 54.8108 264.86 58.0969C264.855 58.1028 264.858 58.1061 264.855 58.1091C265.188 62.7054 263.089 66.7646 259.72 69.3843C259.656 69.4432 259.58 69.5013 259.509 69.5535C259.488 69.568 259.471 69.5857 259.457 69.6006C257.608 70.9725 255.396 71.9198 253.014 72.3127C252.227 72.4462 251.414 72.5153 250.588 72.5081C250.518 72.5101 250.475 72.5137 250.465 72.5099C250.446 72.5087 250.418 72.5101 250.377 72.5108C246.669 72.4602 242.718 71.0401 239.122 67.7973L226.901 56.0472L247.029 35.2041Z" fill="#0099FF"/>
<path d="M264.859 58.1123C265.379 65.3129 259.939 71.1827 253.015 72.3125C251.804 72.4104 250.911 72.487 250.588 72.5079C250.519 72.5099 250.475 72.5135 250.465 72.5097C250.446 72.5085 250.418 72.5099 250.377 72.5105C249.67 72.4636 244.225 71.9566 236.892 64.5885C231.249 58.9215 228.875 56.8574 228.875 56.8574L236.184 53.8815C236.184 53.8815 247.581 66.1432 254.349 67.1375C261.122 68.1416 264.49 62.4263 264.859 58.1123Z" fill="#0099FF"/>
<path d="M247.031 35.205L260.019 47.7475C261.678 49.6133 262.874 51.4787 263.661 53.3219C263.664 53.3253 263.664 53.3253 263.671 53.332C264.365 54.9589 264.75 56.5572 264.862 58.0977L264.859 58.129C264.86 58.1479 264.857 58.1728 264.857 58.2137C265.158 62.7735 263.064 66.7796 259.724 69.3885C260.174 68.9858 260.745 68.1853 261.239 67.1316C261.278 67.0492 261.317 66.9668 261.354 66.8873C261.39 66.8079 261.42 66.728 261.456 66.6486C261.502 66.5383 261.548 66.4217 261.587 66.3047C261.638 66.1821 261.685 66.0499 261.724 65.9329C261.76 65.8125 261.801 65.6863 261.837 65.5659L261.839 65.5566C261.888 65.4151 261.919 65.2787 261.952 65.1613C261.999 64.9663 262.049 64.7619 262.088 64.5538C262.097 64.5167 262.099 64.5011 262.099 64.5011C262.546 62.2283 262.312 59.5269 260.362 57.0993C257.607 53.676 252.205 48.7122 248.916 45.7932C247.287 44.341 246.171 43.395 246.171 43.395C246.171 43.395 246.69 41.3341 247.095 39.9262C247.306 39.207 247.482 38.6491 247.544 38.6403C247.729 38.6015 247.069 35.4086 247.025 35.211L247.031 35.205Z" fill="#0099FF"/>
<path d="M247.029 35.2048L260.017 47.7472C261.677 49.613 262.872 51.4784 263.659 53.3217C262.326 51.0077 259.413 46.7796 254.55 44.731C252.398 43.8277 250.668 44.4497 248.921 45.7933C246.71 47.498 244.466 50.3571 241.285 52.7748C235.582 57.1073 227.784 56.8945 227.52 56.6392L227.193 56.3236L228.625 56.6009L233.303 55.3476L236.533 53.1372C236.533 53.1372 243.409 46.0176 243.638 45.7804C243.867 45.5431 247.106 39.9267 247.106 39.9267L247.036 35.2115L247.029 35.2048Z" fill="#0099FF"/>
<path d="M236.38 54.0735L237.363 55.1086C237.363 55.1086 240.881 53.4975 243.376 51.053C245.546 48.9247 248.917 45.8023 248.917 45.8023L246.173 43.4041L241.572 48.6282L236.38 54.0735Z" fill="#0099FF"/>
<path d="M228.878 56.8614L229.214 57.1745C228.659 57.1087 228.06 56.9711 227.521 56.6454L226.905 56.051L228.878 56.8614Z" fill="#0099FF"/>
<path d="M228.878 56.8614L229.215 57.1745C229.215 57.1745 230.386 57.3884 233.72 56.5171C235.5 56.0522 237.372 55.1091 237.372 55.1091L236.194 53.8859C236.194 53.8859 232.206 55.7885 232.158 55.908C232.1 56.0239 228.878 56.8614 228.878 56.8614Z" fill="#0099FF"/>
<path d="M241.346 49.8587C246.903 44.1039 249.446 37.5443 247.027 35.2075C244.607 32.8706 238.14 35.6415 232.583 41.3963C227.025 47.1511 224.482 53.7107 226.902 56.0475C229.321 58.3843 235.788 55.6135 241.346 49.8587Z" fill="#A3A9AA"/>
<path d="M246.24 35.5642C247.332 36.6186 247.142 38.7784 245.949 41.3915C245.432 42.5254 244.722 43.7542 243.847 45.0011C243.758 45.1213 243.67 45.2478 243.575 45.3739C242.694 46.5921 241.661 47.8292 240.492 49.039C239.272 50.3022 238.01 51.4214 236.779 52.3696C232.688 55.5135 228.816 56.7947 227.223 55.2567C226.298 54.3634 226.299 52.6507 227.06 50.5545C227.06 50.5545 227.06 50.5545 227.062 50.5453C227.608 49.0549 228.533 47.3523 229.779 45.6098C230.683 44.3459 231.758 43.0454 232.978 41.7822C234.197 40.519 235.46 39.3998 236.697 38.4457C240.782 35.3078 244.651 34.0295 246.24 35.5642Z" fill="#475150"/>
<path d="M264.859 58.217C265.16 62.7768 263.066 66.7828 259.726 69.3918C259.726 69.3918 260.651 68.3302 261.24 67.1349C261.28 67.0524 261.319 66.97 261.355 66.8906C261.392 66.8111 261.422 66.7313 261.458 66.6518C261.51 66.5356 261.553 66.4219 261.589 66.3079C261.64 66.1854 261.687 66.0531 261.726 65.9361C261.767 65.8035 261.809 65.6836 261.839 65.5691L261.841 65.5598C261.89 65.4183 261.921 65.282 261.954 65.1646C262.038 64.8618 262.077 64.6474 262.09 64.5571C262.099 64.5199 262.101 64.5043 262.101 64.5043C262.101 64.5043 263.214 63.2816 263.897 61.8783C264.82 59.9902 264.833 58.7308 264.859 58.217Z" fill="#0099FF"/>
<path d="M254.25 66.5792C254.989 67.6588 255.221 68.5877 254.616 69.2763C252.998 71.1402 246.941 70.1742 242.881 66.5569C238.824 62.9366 236.141 57.893 237.759 56.029C237.847 55.9308 237.937 55.8452 238.041 55.7793L238.046 55.7734C239.855 54.4367 243.957 56.8341 247.813 60.2596C250.344 62.5314 253.013 64.7709 254.25 66.5792Z" fill="#0099FF"/>
<path d="M254.615 67.176C254.615 67.176 250.778 67.1269 246.897 64.2215C244.4 62.3603 238.039 55.7815 238.039 55.7815L238.044 55.7756C239.853 54.4388 243.858 56.6385 247.78 59.9739C254.163 65.4038 254.615 67.176 254.615 67.176Z" fill="#0099FF"/>
<path d="M236.696 38.4455L243.696 45.2053C243.696 45.2053 241.851 47.6649 240.491 49.0388C239.254 50.2853 238.009 51.4212 236.777 52.3695L229.777 45.6096C230.682 44.3458 231.756 43.0453 232.976 41.782C234.199 40.5159 235.461 39.3967 236.696 38.4455Z" fill="#5E6466"/>
<path d="M246.239 35.564C247.331 36.6185 247.054 38.7352 245.947 41.3913C245.291 42.9691 243.696 45.2053 243.696 45.2053C243.696 45.2053 240.399 42.1539 238.4 40.1601C237.419 39.1786 236.696 38.4455 236.696 38.4455C240.781 35.3076 244.65 34.0294 246.239 35.564Z" fill="#747A7C"/>
<path d="M246.24 35.5642C247.332 36.6186 247.141 38.7784 245.948 41.3915C244.182 38.5794 241.628 38.6695 238.449 40.1382C238.43 40.137 238.416 40.1518 238.401 40.1603C237.792 40.4431 237.159 40.7779 236.505 41.1428C234.665 42.1916 232.419 44.3781 230.578 46.3759C228.6 48.535 227.093 50.4781 227.063 50.5516C227.063 50.5516 227.063 50.5516 227.065 50.5423C227.61 49.0519 228.535 47.3493 229.781 45.6069C230.686 44.343 231.76 43.0425 232.98 41.7793C233.679 41.0557 234.392 40.3802 235.103 39.7549C235.635 39.2881 236.166 38.8496 236.697 38.4457C240.782 35.3078 244.651 34.0295 246.24 35.5642Z" fill="#929799"/>
<path d="M236.696 38.4455L238.4 40.1601C237.791 40.443 237.158 40.7778 236.504 41.1426C234.664 42.1915 232.418 44.3779 230.577 46.3757L229.78 45.6067C230.685 44.3428 231.759 43.0423 232.979 41.7791C233.678 41.0556 234.391 40.3801 235.102 39.7547L236.696 38.4455Z" fill="#6F7577"/>
<path d="M230.577 46.3758L229.78 45.6068C229.78 45.6068 228.854 46.7814 228.16 48.1683C227.466 49.5552 227.062 50.5515 227.062 50.5515L230.577 46.3758Z" fill="#5E6466"/>
<path d="M242.483 46.7172C241.405 48.0489 240.065 49.4995 238.388 51.0267C233.197 55.7837 229.638 55.8712 229.638 55.8712C229.638 55.8712 228.529 54.7371 233.288 48.9948C233.288 48.9948 232.547 50.1589 232.312 51.1814C232.184 51.7454 232.5 52.5664 234.359 52.207C235.843 51.9156 240.476 48.8304 242.483 46.7172Z" fill="#475150"/>
<path d="M239.278 44.5547C239.4 44.6722 239.254 45.0183 238.956 45.3267C238.658 45.6351 238.317 45.7931 238.196 45.6755C238.074 45.558 238.217 45.2149 238.518 44.9035C238.819 44.5985 239.16 44.4405 239.278 44.5547Z" fill="#5E6466"/>
<path d="M248.877 45.721C247.468 43.4736 250.329 40.5098 252.144 39.3517C252.144 39.3517 253.236 38.0879 255.5 40.3518C258 42.8519 256.5 44.563 256.5 44.563C254.867 46.3001 251.055 49.1952 248.877 45.721Z" fill="#FBBEAA"/>
<path d="M252.877 50.0728C251.468 47.8254 254.329 44.8616 256.144 43.7035C256.144 43.7035 257.236 42.4397 259.5 44.7036C262 47.2037 260.5 48.9148 260.5 48.9148C258.867 50.6519 255.055 53.547 252.877 50.0728Z" fill="#FBBEAA"/>
<path d="M256.877 54.0728C255.468 51.8254 258.329 48.8616 260.144 47.7035C260.144 47.7035 261.236 46.4397 263.5 48.7036C266 51.2037 264.5 52.9148 264.5 52.9148C262.867 54.6519 259.055 57.547 256.877 54.0728Z" fill="#FBBEAA"/>
<path d="M261.813 57.6332C260.645 55.7495 263.016 53.2654 264.52 52.2948C264.52 52.2948 265.425 51.2355 267.301 53.133C269.373 55.2285 268.13 56.6626 268.13 56.6626C266.776 58.1186 263.617 60.5451 261.813 57.6332Z" fill="#FBBEAA"/>
<path d="M156.703 485.134C156.703 482.746 157.651 480.456 159.34 478.768C161.028 477.079 163.318 476.131 165.706 476.131C168.094 476.131 170.384 477.079 172.072 478.768C173.761 480.456 174.709 482.746 174.709 485.134V504.703H156.703V485.134Z" fill="#FBBEAA"/>
<path d="M174.065 488.78C176.272 488.78 176.669 489.748 177.314 491.012C178.36 494.383 180.148 497.477 182.547 500.065C186.129 503.116 189.971 505.847 194.031 508.225V518.593H153.95C153.95 518.593 154.223 510.408 154.421 504.629C154.619 498.85 155.19 491.806 155.14 491.062C155.091 490.318 155.14 488.78 156.504 488.78H174.065Z" fill="#302D3B"/>
<path d="M158.935 505.199C158.93 506.472 159.303 507.717 160.007 508.777C160.711 509.838 161.714 510.665 162.889 511.154C164.064 511.643 165.357 511.773 166.606 511.526C167.854 511.279 169.001 510.666 169.901 509.766C170.801 508.866 171.413 507.72 171.66 506.471C171.907 505.223 171.778 503.929 171.289 502.754C170.799 501.579 169.972 500.576 168.912 499.872C167.852 499.168 166.606 498.795 165.334 498.8C163.639 498.807 162.015 499.483 160.816 500.682C159.617 501.88 158.941 503.504 158.935 505.199Z" fill="#93929C"/>
<path d="M165.334 501.429L163.87 503.587L161.365 504.306L162.953 506.365L162.878 508.969L165.334 508.076L167.789 508.969L167.69 506.365L169.302 504.306L166.797 503.587L165.334 501.429Z" fill="white"/>
<path d="M193.758 508.052C193.758 508.052 199.437 511.053 201.57 512.516C202.558 513.185 203.36 514.094 203.902 515.156C204.444 516.219 204.709 517.401 204.671 518.593H189.095C189.095 518.593 189.417 510.979 193.758 508.052Z" fill="white"/>
<path d="M153.95 518.593V522.884C153.95 523.603 154.595 524 155.686 524H202.96C204.026 524 204.671 523.603 204.671 522.884V518.593H153.95Z" fill="white"/>
<path d="M189.095 505.15C189.232 504.939 189.446 504.79 189.691 504.734C189.937 504.679 190.194 504.721 190.409 504.852C190.516 504.918 190.609 505.005 190.682 505.107C190.755 505.209 190.807 505.324 190.834 505.447C190.862 505.569 190.865 505.696 190.843 505.82C190.821 505.943 190.775 506.061 190.707 506.167L189.045 508.845C188.965 508.984 188.849 509.099 188.709 509.177C188.57 509.256 188.411 509.296 188.251 509.292C188.068 509.289 187.888 509.238 187.73 509.143C187.623 509.077 187.531 508.991 187.458 508.889C187.385 508.787 187.333 508.671 187.305 508.548C187.277 508.426 187.274 508.299 187.296 508.176C187.318 508.052 187.365 507.934 187.433 507.829L189.095 505.15Z" fill="white"/>
<path d="M186.168 503.091C186.249 502.997 186.348 502.919 186.46 502.863C186.571 502.807 186.693 502.773 186.817 502.764C186.941 502.755 187.066 502.77 187.185 502.809C187.303 502.848 187.413 502.91 187.507 502.992C187.602 503.073 187.679 503.172 187.735 503.284C187.791 503.395 187.825 503.517 187.834 503.641C187.843 503.765 187.828 503.89 187.789 504.009C187.75 504.127 187.688 504.237 187.606 504.331L185.672 506.613C185.582 506.718 185.472 506.802 185.349 506.862C185.225 506.922 185.09 506.955 184.952 506.96C184.773 506.957 184.598 506.904 184.447 506.806C184.296 506.709 184.175 506.571 184.097 506.409C184.02 506.247 183.99 506.066 184.009 505.888C184.029 505.709 184.098 505.539 184.208 505.398L186.168 503.091Z" fill="white"/>
<path d="M183.415 500.785C183.612 500.658 183.849 500.607 184.081 500.641C184.314 500.676 184.525 500.793 184.677 500.973C184.829 501.152 184.91 501.38 184.906 501.614C184.902 501.849 184.813 502.074 184.655 502.248L182.448 504.158C182.275 504.305 182.055 504.384 181.828 504.381C181.691 504.386 181.555 504.36 181.431 504.304C181.306 504.248 181.196 504.164 181.109 504.059C181.017 503.973 180.944 503.869 180.894 503.754C180.844 503.639 180.818 503.515 180.818 503.389C180.818 503.264 180.844 503.139 180.894 503.024C180.944 502.909 181.017 502.805 181.109 502.719L183.415 500.785Z" fill="white"/>
<path d="M178.578 499.644L181.058 498.106C181.276 497.977 181.536 497.939 181.781 497.999C182.027 498.059 182.239 498.213 182.373 498.428C182.44 498.535 182.485 498.655 182.505 498.779C182.525 498.904 182.52 499.031 182.49 499.154C182.46 499.276 182.405 499.392 182.33 499.493C182.254 499.594 182.159 499.679 182.05 499.743L179.57 501.281C179.423 501.378 179.25 501.43 179.074 501.429C178.912 501.426 178.755 501.38 178.616 501.298C178.477 501.215 178.361 501.098 178.28 500.958C178.149 500.743 178.107 500.486 178.163 500.241C178.218 499.995 178.367 499.781 178.578 499.644Z" fill="white"/>
<path d="M176.495 496.444L179.272 495.279C179.509 495.18 179.776 495.18 180.013 495.277C180.25 495.375 180.439 495.563 180.537 495.8C180.586 495.915 180.611 496.039 180.611 496.164C180.611 496.29 180.586 496.414 180.537 496.529C180.489 496.644 180.418 496.749 180.328 496.837C180.239 496.924 180.133 496.993 180.017 497.04L177.239 498.205H176.867C176.653 498.194 176.449 498.112 176.286 497.972C176.124 497.832 176.013 497.642 175.97 497.432C175.928 497.222 175.956 497.003 176.051 496.811C176.146 496.619 176.302 496.464 176.495 496.37V496.444Z" fill="white"/>
<path d="M174.759 492.873L177.834 492.104C178.078 492.044 178.335 492.084 178.549 492.215C178.763 492.345 178.916 492.555 178.975 492.798C179.034 493.042 178.995 493.298 178.864 493.512C178.734 493.726 178.524 493.88 178.281 493.939L175.23 494.733H175.007C174.793 494.73 174.586 494.659 174.416 494.529C174.246 494.4 174.123 494.219 174.064 494.013C174.011 493.77 174.054 493.516 174.183 493.304C174.312 493.091 174.519 492.937 174.759 492.873Z" fill="white"/>
<path d="M143.532 359.98C143.805 347.976 151.891 342.172 163.87 342.47C175.85 342.767 184.481 349.043 184.208 361.022L174.709 486.102H156.702L143.532 359.98Z" fill="#FBBEAA"/>
<path d="M80.8062 485.134C80.8062 482.746 81.7547 480.456 83.4432 478.768C85.1316 477.079 87.4217 476.131 89.8095 476.131C92.1973 476.131 94.4874 477.079 96.1758 478.768C97.8643 480.456 98.8129 482.746 98.8129 485.134V504.703H80.8062V485.134Z" fill="#FBBEAA"/>
<path d="M98.1438 488.78C100.376 488.78 100.773 489.748 101.393 491.012C102.451 494.384 104.247 497.476 106.651 500.065C110.228 503.122 114.071 505.853 118.135 508.225V518.593H78.0537C78.0537 518.593 78.3265 510.408 78.525 504.629C78.7234 498.85 79.2691 491.806 79.2443 491.062C79.2195 490.318 79.2442 488.78 80.5836 488.78H98.1438Z" fill="#302D3B"/>
<path d="M83.0142 505.199C83.0093 506.471 83.3819 507.715 84.0848 508.775C84.7876 509.834 85.7892 510.662 86.9625 511.152C88.1359 511.642 89.4283 511.772 90.676 511.527C91.9238 511.282 93.0707 510.672 93.9716 509.775C94.8725 508.878 95.4868 507.733 95.7367 506.486C95.9865 505.24 95.8608 503.947 95.3753 502.771C94.8898 501.596 94.0665 500.591 93.0096 499.884C91.9526 499.177 90.7097 498.8 89.4381 498.8C87.7387 498.8 86.1085 499.473 84.9045 500.673C83.7005 501.872 83.0208 503.5 83.0142 505.199Z" fill="#93929C"/>
<path d="M89.4128 501.429L87.9494 503.587L85.4443 504.306L87.0565 506.365L86.9821 508.969L89.4128 508.076L91.8682 508.969L91.7938 506.365L93.406 504.306L90.8761 503.587L89.4128 501.429Z" fill="white"/>
<path d="M117.836 508.052C117.836 508.052 123.541 511.053 125.649 512.516C126.642 513.18 127.448 514.087 127.99 515.151C128.533 516.215 128.794 517.4 128.75 518.593H113.099C113.099 518.593 113.521 510.979 117.836 508.052Z" fill="white"/>
<path d="M78.0537 518.593V522.884C78.0537 523.603 78.6738 524 79.7651 524H127.088C128.18 524 128.8 523.603 128.8 522.884V518.593H78.0537Z" fill="white"/>
<path d="M113.199 505.15C113.333 504.936 113.548 504.785 113.794 504.729C114.041 504.673 114.299 504.717 114.513 504.852C114.727 504.987 114.878 505.201 114.934 505.448C114.99 505.694 114.946 505.953 114.811 506.167L113.149 508.846C113.063 508.985 112.942 509.099 112.799 509.177C112.655 509.255 112.494 509.295 112.33 509.292C112.154 509.292 111.981 509.241 111.834 509.143C111.728 509.077 111.635 508.991 111.562 508.889C111.489 508.787 111.437 508.671 111.409 508.549C111.381 508.426 111.378 508.299 111.4 508.176C111.422 508.052 111.469 507.934 111.537 507.829L113.199 505.15Z" fill="white"/>
<path d="M110.246 503.091C110.41 502.901 110.641 502.781 110.891 502.758C111.141 502.735 111.39 502.81 111.586 502.967C111.778 503.135 111.898 503.37 111.921 503.624C111.944 503.878 111.868 504.132 111.71 504.331L109.75 506.613C109.664 506.721 109.555 506.809 109.431 506.869C109.306 506.929 109.169 506.96 109.031 506.96C108.849 506.962 108.671 506.911 108.517 506.814C108.364 506.717 108.242 506.577 108.165 506.412C108.089 506.247 108.063 506.063 108.089 505.883C108.115 505.703 108.192 505.535 108.312 505.398L110.246 503.091Z" fill="white"/>
<path d="M107.519 500.785C107.716 500.658 107.953 500.607 108.185 500.641C108.417 500.676 108.629 500.793 108.781 500.973C108.933 501.152 109.014 501.38 109.01 501.614C109.006 501.849 108.917 502.074 108.759 502.248L106.527 504.158C106.354 504.305 106.134 504.384 105.907 504.381C105.77 504.384 105.635 504.357 105.511 504.301C105.386 504.245 105.276 504.163 105.188 504.059C105.099 503.971 105.029 503.867 104.981 503.752C104.933 503.637 104.908 503.514 104.908 503.389C104.908 503.265 104.933 503.141 104.981 503.026C105.029 502.911 105.099 502.807 105.188 502.719L107.519 500.785Z" fill="white"/>
<path d="M102.682 499.644L105.163 498.106C105.377 498.016 105.616 498.005 105.837 498.077C106.058 498.148 106.246 498.297 106.366 498.496C106.486 498.694 106.531 498.93 106.492 499.159C106.454 499.388 106.334 499.595 106.155 499.743L103.674 501.281C103.527 501.378 103.355 501.43 103.178 501.429C103.013 501.427 102.851 501.383 102.708 501.301C102.564 501.218 102.445 501.1 102.36 500.958C102.231 500.74 102.193 500.481 102.253 500.235C102.313 499.989 102.467 499.777 102.682 499.644Z" fill="white"/>
<path d="M100.599 496.445L103.377 495.279C103.493 495.23 103.617 495.206 103.742 495.206C103.867 495.206 103.991 495.231 104.106 495.279C104.222 495.328 104.326 495.399 104.414 495.488C104.502 495.577 104.571 495.683 104.617 495.8C104.71 496.031 104.71 496.288 104.618 496.519C104.525 496.75 104.347 496.937 104.121 497.04L101.318 498.206C101.204 498.231 101.086 498.231 100.971 498.206C100.78 498.206 100.594 498.149 100.435 498.043C100.276 497.937 100.152 497.787 100.078 497.61C100.003 497.386 100.015 497.142 100.111 496.926C100.208 496.71 100.382 496.538 100.599 496.445Z" fill="white"/>
<path d="M98.8625 492.873L101.913 492.104C102.16 492.044 102.42 492.083 102.638 492.212C102.856 492.342 103.015 492.553 103.079 492.798C103.109 492.919 103.114 493.044 103.095 493.167C103.076 493.289 103.033 493.407 102.969 493.513C102.904 493.619 102.819 493.711 102.719 493.784C102.619 493.858 102.505 493.91 102.384 493.939L99.3338 494.733H99.0858C98.8623 494.716 98.6517 494.622 98.49 494.466C98.3283 494.311 98.2255 494.105 98.1991 493.882C98.1727 493.66 98.2245 493.435 98.3455 493.246C98.4665 493.058 98.6493 492.917 98.8625 492.848V492.873Z" fill="white"/>
<path d="M90.6533 359.608C91.8717 353.978 95.2759 349.062 100.118 345.942C104.959 342.821 110.842 341.75 116.473 342.966C128.204 345.446 134.529 357.004 131.999 368.736L98.8134 488.16H80.5835L90.6533 359.608Z" fill="#FBBEAA"/>
<path d="M141.969 359.2C142.036 356.35 142.663 353.541 143.816 350.933C144.968 348.326 146.623 345.971 148.685 344.003C150.748 342.035 153.178 340.492 155.836 339.463C158.495 338.434 161.33 337.939 164.18 338.006C167.03 338.073 169.839 338.7 172.446 339.853C175.054 341.005 177.409 342.659 179.377 344.722C181.345 346.784 182.887 349.214 183.916 351.873C184.945 354.531 185.441 357.367 185.374 360.217L191.005 488.794H141.97L141.969 359.2Z" fill="#93929C"/>
<path d="M90.6562 356.546C92.0023 351.051 95.4384 346.298 100.234 343.297C105.03 340.296 110.807 339.284 116.337 340.476C121.867 341.668 126.715 344.97 129.848 349.68C132.982 354.39 134.155 360.137 133.118 365.698L119.924 488.294C119.924 488.294 88.3252 490.179 69.5 488.294L90.6562 356.546Z" fill="#93929C"/>
<path d="M248.05 137.402L176.817 83.2827C168.508 77.9749 162.853 80.8024 158.438 86.4822C156.422 89.2313 155.487 92.6258 155.812 96.0195C156.137 99.4132 157.698 102.569 160.199 104.886L231.259 157.244C233.763 159.359 236.987 160.426 240.258 160.223C243.529 160.019 246.596 158.561 248.819 156.153L249.141 155.806C250.321 154.547 251.232 153.061 251.819 151.439C252.406 149.816 252.655 148.091 252.553 146.369C252.451 144.647 251.999 142.964 251.225 141.422C250.451 139.88 249.371 138.512 248.05 137.402Z" fill="#FBBEAA"/>
<path d="M160.2 104.861C159.542 104.295 158.944 103.663 158.414 102.976C157.946 101.211 157.885 99.3621 158.238 97.5701C158.59 95.7781 159.346 94.0899 160.448 92.6334C164.193 86.8544 172.055 82.3155 175.553 83.1836L179.025 84.9446L218.337 114.708C214.858 122.885 210.158 130.486 204.398 137.253L160.2 104.861Z" fill="#F18380"/>
<path d="M170.939 79.4133L232.582 120.988C232.323 123.115 239.157 79.4133 239.157 79.4133L258.493 81.9297C258.493 81.9297 258.099 126.058 255.213 149.478C254.06 158.828 246.35 162.397 237.146 160.389C232.602 159.397 228.324 157.533 224.517 154.861C208.159 143.379 162.265 111.038 158.513 106.969C152.04 99.9499 152.039 94.6918 155.76 88.9128C159.48 83.1338 167.442 78.5452 170.939 79.4133Z" fill="#002A80"/>
<path d="M141.97 359.906L129.246 226.691C129.246 211.983 144.4 195.961 166.748 199.408C186.937 202.558 193.088 222.847 191.426 242.069C189.764 261.291 185.275 360.849 185.275 360.849C185.208 363.699 184.581 366.507 183.429 369.115C182.276 371.722 180.622 374.077 178.559 376.045C176.497 378.013 174.067 379.556 171.408 380.585C168.75 381.614 165.914 382.109 163.064 382.042C160.214 381.976 157.406 381.348 154.798 380.196C152.191 379.043 149.836 377.389 147.868 375.326C145.9 373.264 144.357 370.834 143.328 368.175C142.299 365.517 141.804 362.682 141.871 359.832L141.97 359.906Z" fill="#93929C"/>
<path d="M90.6533 357.252L103.303 224.062C105.981 209.602 123.963 196.779 145.269 204.369C164.491 211.239 166.723 232.321 161.465 250.899C156.207 269.476 133.115 366.404 133.115 366.404C131.769 371.899 128.333 376.652 123.537 379.653C118.742 382.654 112.965 383.666 107.434 382.474C101.904 381.282 97.057 377.98 93.9233 373.27C90.7895 368.56 89.6164 362.813 90.6533 357.252Z" fill="#93929C"/>
<path d="M161.465 250.899C156.231 269.476 133.115 366.404 133.115 366.404" stroke="#5E5D63" stroke-width="0.75" stroke-miterlimit="10"/>
<path d="M157.744 77.3049C157.744 77.3049 168.707 79.2147 170.84 79.7852C172.099 80.0806 173.262 80.6907 174.221 81.5583C175.179 82.4259 175.902 83.5226 176.321 84.7457C177.686 87.9949 184.705 109.275 185.35 111.582C185.786 114.123 185.376 116.737 184.184 119.023C183.167 121.801 177.909 134.45 177.909 134.45L177.115 175.201L147.502 179.898L119.127 175.201C119.127 175.201 109.206 99.4041 108.71 94.7164C108.213 90.0287 110.545 80.9758 116.15 79.8348C121.756 78.6939 137.133 77.3546 137.133 77.3546L157.744 77.3049Z" fill="#FBBEAA"/>
<path d="M178.506 158.816V173.142C159.11 174.928 128.205 173.663 116.597 173.142C116.051 169.05 115.481 162.105 114.886 157.492C130.685 157.889 156.779 159.361 178.506 158.816Z" fill="white"/>
<path d="M76.2183 171.555L107.99 87.9453C112.232 79.0164 118.507 78.4211 125.352 80.9014C128.518 82.1644 131.108 84.5495 132.627 87.6012C134.146 90.6529 134.488 94.1572 133.587 97.4448L100.872 179.566C99.8805 182.69 97.717 185.309 94.8358 186.872C91.9546 188.435 88.5799 188.821 85.4201 187.949L84.9488 187.825C83.2821 187.371 81.7254 186.581 80.3737 185.505C79.022 184.429 77.9037 183.089 77.0868 181.566C76.2699 180.044 75.7716 178.371 75.6223 176.65C75.473 174.929 75.6758 173.195 76.2183 171.555Z" fill="#FBBEAA"/>
<path d="M89.3877 136.881L107.99 87.9452C108.489 86.872 109.078 85.8432 109.751 84.8697C112.029 83.4431 114.638 82.6295 117.323 82.5078C120.009 82.3861 122.68 82.9605 125.079 84.1752C127.864 85.5304 130.102 87.796 131.424 90.597C132.745 93.3981 133.071 96.5665 132.346 99.5776C132.346 99.8752 132.172 100.446 132.023 101.215L112.826 149.456C104.441 146.432 96.5442 142.195 89.3877 136.881Z" fill="#F18380"/>
<path d="M109.726 83.4811L75.5 171.5C104.504 162.219 108 168.5 115.793 142.645C115.793 142.645 133.983 99.95 134.678 96.1304C135.402 93.1192 135.077 89.9509 133.755 87.1499C132.434 84.3489 130.195 82.0832 127.41 80.728C119.647 76.7596 111.909 80.356 109.726 83.4811Z" fill="#003399"/>
<path d="M103.303 223.418C103.848 216.547 113.588 185.006 121.5 170C121.5 170 138.385 163.464 149.5 163.5C161.097 163.538 176.5 172.5 176.5 172.5C181.659 184.182 188.152 212.405 189.864 217.911C190.897 221.151 191.022 224.612 190.226 227.917C189.43 231.223 187.744 234.248 185.349 236.662C179.471 243.334 164.317 250.973 160.82 250.973C145.774 248.824 131.026 244.946 116.87 239.415C108.883 236.067 102.782 230.313 103.303 223.418Z" fill="#93929C"/>
<path d="M154.14 158.821L95.7827 182.749C88.5595 186.124 81.0899 185.28 77.8435 176.852C77.2499 175.281 76.9816 173.606 77.0549 171.928C77.1282 170.25 77.5415 168.604 78.2699 167.091C78.9983 165.577 80.0265 164.228 81.2921 163.124C82.5578 162.02 84.0345 161.184 85.6328 160.668L150.069 142.455C156.035 140.227 160.769 141.967 162.426 146.454C164.383 151.987 161.718 155.728 154.14 158.821Z" fill="#FBBEAA"/>
<path d="M160.541 73.5021C160.541 73.5021 174.225 81.4005 176.338 82.7828C178.451 84.165 178 86.5 180.445 92.0635C181.145 93.6562 186.257 99.1937 186 108C185.3 132.019 178.174 173.576 178.174 173.576C173.901 175.881 169.357 177.646 164.648 178.828C162.377 179.085 160.58 179.144 159.04 177.643C157.5 176.143 152.958 170.693 152.958 170.693C152.958 170.693 145.475 175.767 142.098 177.643C141.293 178.205 140.384 178.599 139.424 178.803C138.464 179.006 137.473 179.015 136.51 178.828C131.593 177.821 112.242 172.174 111.63 171.818C111.018 171.463 110.445 171.088 110.504 170.416C110.563 169.745 110.919 92.7151 111.176 89.2398C111.226 87.3786 111.812 85.5714 112.863 84.0342C113.913 82.497 115.384 81.2948 117.099 80.5712C121.226 78.7348 136.727 72.4358 136.727 72.4358L152.899 83.6714L160.541 73.5021Z" fill="#003399"/>
<path d="M160.541 71.291L152.938 83.6719C152.938 83.6719 160.403 89.5957 160.837 90.0301C161.271 90.4645 162.14 90.425 162.318 89.7339C162.496 89.0428 164.648 75.9116 164.687 75.9116C164.725 75.842 164.745 75.7639 164.745 75.6845C164.745 75.6052 164.725 75.5271 164.687 75.4575C164.49 75.3192 160.541 71.291 160.541 71.291Z" fill="#F5F5F5"/>
<path d="M136.648 69L152.958 83.6714C152.958 83.6714 144.369 89.5952 143.994 90.0296C143.884 90.1227 143.755 90.1897 143.616 90.2256C143.477 90.2615 143.332 90.2653 143.191 90.2368C143.05 90.2083 142.918 90.1481 142.804 90.0609C142.69 89.9737 142.597 89.8618 142.533 89.7335C141.901 88.7264 131.791 74.5289 131.751 74.4104C131.709 74.3421 131.687 74.2635 131.687 74.1834C131.687 74.1032 131.709 74.0246 131.751 73.9563C131.968 73.8378 136.648 69 136.648 69Z" fill="#F5F5F5"/>
<g filter="url(#filter1_d_110_19)">
<rect x="129.426" y="118.357" width="40.9288" height="58.3236" rx="1" transform="rotate(-6.55484 129.426 118.357)" fill="#EFEFEF"/>
</g>
<path d="M148.643 144.497C151.49 143.294 154.063 141.512 156.201 139.263C157.524 137.874 159.025 136.669 160.663 135.679C161.623 135.079 162.452 134.286 163.098 133.352C163.95 131.902 164.656 130.371 165.204 128.783C165.407 127.415 165.872 126.096 166.574 124.902C167.241 124.29 169.596 124.617 170.818 126.993C171.239 128.051 171.43 129.19 171.378 130.334C171.326 131.478 171.031 132.601 170.515 133.627C169.906 134.857 169.43 136.148 169.093 137.477L169.315 137.61C171.178 136.621 173.168 135.904 175.226 135.48C175.972 135.313 176.75 135.404 177.433 135.736C178.116 136.069 178.665 136.625 178.992 137.314C179.319 138.004 179.404 138.787 179.234 139.537C179.065 140.287 178.649 140.961 178.056 141.45C181.267 141.819 180.902 146.771 178.146 147.426C178.736 147.673 179.234 148.099 179.573 148.644C179.912 149.189 180.075 149.827 180.04 150.473C180.006 151.119 179.775 151.741 179.379 152.255C178.984 152.768 178.442 153.15 177.828 153.346C179.786 155.151 178.355 158.126 174.8 158.139C171.911 158.433 164.186 159.642 161.499 160.221C158.811 160.799 153.409 159.52 151.674 160.057C149.09 161.003 146.09 161.019 143.802 154.222C141.513 147.425 145.985 145.375 148.643 144.497Z" fill="#FBBEAA"/>
<path d="M147.5 165L94.5001 187.5C87.2763 190.873 78.745 187.929 75.5001 179.5C74.9067 177.929 74.8666 175.36 74.9402 173.682C75.0137 172.004 75.4274 170.358 76.156 168.845C76.8846 167.332 78.234 164.604 79.4999 163.5C80.7657 162.396 85.2765 160.359 86.8748 159.843L146.5 143.5L147.5 165Z" fill="#003399"/>
<path d="M251.801 64.0761L252.125 63.7405L252.598 64.1971L252.944 63.8389L252.471 63.3822L252.796 63.0466L254.087 64.2942L253.763 64.6299L253.252 64.1358L252.906 64.494L253.417 64.9881L253.093 65.3238L251.801 64.0762L251.801 64.0761ZM253.952 61.8486L255.244 63.0962L254.931 63.4206L253.945 62.4687L253.74 62.6812L254.111 63.0393C254.278 63.2002 254.471 63.4087 254.5 63.609C254.541 63.8219 254.417 64.0276 254.195 64.1801L253.875 63.8708C254.086 63.7295 254.052 63.6096 253.797 63.3626L253.118 62.7076L253.95 61.8463L253.952 61.8486ZM254.223 61.5684L254.547 61.2327L255.498 61.7839L254.914 60.8529L255.238 60.5172L256.682 61.6078L256.379 61.9209L255.613 61.3314L256.13 62.1785L255.914 62.4023L255.051 61.9135L255.667 62.6589L255.364 62.972L254.223 61.5684L254.223 61.5684ZM255.509 60.237L255.833 59.9013L256.357 60.4078L256.146 59.5769L256.503 59.2074L256.732 60.2499L257.806 60.4436L257.417 60.8461L256.601 60.6413L257.126 61.1479L256.802 61.4836L255.51 60.236L255.509 60.237L255.509 60.237ZM252.732 60.3464C250.787 62.3605 250.332 64.4963 251.559 65.6816C252.775 66.8555 254.904 66.3388 256.85 64.3238C258.806 62.2985 259.237 60.1615 258.023 58.9887C256.795 57.8034 254.688 58.3201 252.732 60.3464ZM256.659 64.1391C254.832 66.031 252.857 66.566 251.744 65.4906C250.618 64.4039 251.097 62.422 252.923 60.5311C254.76 58.629 256.713 58.0908 257.839 59.1786C258.953 60.254 258.497 62.2359 256.659 64.1391ZM253.102 60.7045C251.385 62.4834 250.917 64.3251 251.927 65.3007C252.937 66.2763 254.762 65.7447 256.48 63.9657C258.197 62.1868 258.665 60.3452 257.655 59.3695C256.646 58.3929 254.821 58.9245 253.102 60.7045ZM256.442 63.9295C254.745 65.6868 252.946 66.2187 251.961 65.2679C250.977 64.3172 251.446 62.4994 253.142 60.7431C254.838 58.9867 256.639 58.4538 257.623 59.4045C258.609 60.3542 258.139 62.1721 256.442 63.9295L256.442 63.9295Z" fill="white"/>
<defs>
<filter id="filter0_f_110_19" x="0.5" y="493" width="247" height="63" filterUnits="userSpaceOnUse" color-interpolation-filters="sRGB">
<feFlood flood-opacity="0" result="BackgroundImageFix"/>
<feBlend mode="normal" in="SourceGraphic" in2="BackgroundImageFix" result="shape"/>
<feGaussianBlur stdDeviation="8.5" result="effect1_foregroundBlur_110_19"/>
</filter>
<filter id="filter1_d_110_19" x="129.534" y="113.792" width="49.104" height="62.3995" filterUnits="userSpaceOnUse" color-interpolation-filters="sRGB">
<feFlood flood-opacity="0" result="BackgroundImageFix"/>
<feColorMatrix in="SourceAlpha" type="matrix" values="0 0 0 0 0 0 0 0 0 0 0 0 0 0 0 0 0 0 127 0" result="hardAlpha"/>
<feOffset dx="2"/>
<feComposite in2="hardAlpha" operator="out"/>
<feColorMatrix type="matrix" values="0 0 0 0 0.603922 0 0 0 0 0.6 0 0 0 0 0.631373 0 0 0 1 0"/>
<feBlend mode="normal" in2="BackgroundImageFix" result="effect1_dropShadow_110_19"/>
<feBlend mode="normal" in="SourceGraphic" in2="effect1_dropShadow_110_19" result="shape"/>
</filter>
</defs>
</svg>
