<svg width="253" height="556" viewBox="0 0 253 556" fill="none" xmlns="http://www.w3.org/2000/svg">
<path d="M113.546 21.8182C112.064 27.4879 111.185 33.2982 110.923 39.1525C110.612 44.0251 109 48.7252 106.255 52.7629C103.633 56.1459 100.198 59.6599 101.456 70.1497H168.617C168.617 70.1497 171.239 64.9048 168.092 55.9098C164.386 44.8053 161.657 33.398 159.937 21.8182H113.546Z" fill="#BC664A"/>
<path d="M126.396 52.7631V75.0275C126.396 75.0275 128.153 82.7113 139.928 82.7113C142.265 82.9084 144.59 82.203 146.424 80.7399C148.257 79.2768 149.461 77.167 149.788 74.844V52.7631H126.396Z" fill="#FBBEAA"/>
<path d="M149.788 71.4086C142.393 74.8964 131.615 71.7757 126.396 62.0989V52.7631H149.788V71.4086Z" fill="#F18380"/>
<path d="M164.395 35.7432C164.507 41.0765 164.27 46.4114 163.687 51.7138C162.716 59.2664 160.041 67.6582 146.641 67.6582C133.24 67.6582 126.448 61.6266 123.563 51.7138C121.833 45.7084 118.318 36.8708 119.761 26.6171C121.203 16.3634 127.366 9.7024 141.92 9.30903C156.475 8.91566 165.994 15.4717 164.395 35.7432Z" fill="#FBBEAA"/>
<path d="M136.072 40.3065C136.166 40.6927 136.365 41.045 136.649 41.3235C136.932 41.6019 137.288 41.7952 137.676 41.8815C138.064 41.9678 138.468 41.9435 138.843 41.8116C139.217 41.6796 139.548 41.4452 139.796 41.135C140.044 40.8247 140.2 40.4511 140.247 40.0565C140.293 39.6619 140.228 39.2622 140.059 38.9028C139.89 38.5433 139.623 38.2386 139.289 38.0232C138.955 37.8078 138.568 37.6903 138.17 37.6841C137.858 37.7132 137.555 37.8049 137.279 37.9536C137.004 38.1024 136.76 38.3052 136.565 38.5499C136.369 38.7947 136.224 39.0763 136.14 39.3781C136.055 39.6799 136.032 39.9957 136.072 40.3065Z" fill="#403D4F"/>
<path d="M155.505 40.3065C155.598 40.6927 155.798 41.045 156.081 41.3235C156.364 41.6019 156.72 41.7952 157.108 41.8815C157.496 41.9678 157.9 41.9435 158.275 41.8116C158.65 41.6796 158.98 41.4452 159.228 41.135C159.476 40.8247 159.633 40.4511 159.679 40.0565C159.726 39.6619 159.66 39.2622 159.491 38.9028C159.322 38.5433 159.055 38.2386 158.721 38.0232C158.387 37.8078 158 37.6903 157.603 37.6841C157.292 37.7167 156.991 37.8106 156.717 37.9604C156.442 38.1103 156.201 38.3131 156.006 38.557C155.811 38.8009 155.666 39.0812 155.58 39.3815C155.494 39.6818 155.468 39.9963 155.505 40.3065Z" fill="#403D4F"/>
<path d="M142.392 32.8852C142.392 32.8852 142.392 32.8852 142.183 32.6754C141.971 32.4698 141.733 32.2934 141.475 32.151C141.144 31.9616 140.792 31.812 140.426 31.7051C139.572 31.4709 138.686 31.3822 137.803 31.4429C137.432 31.462 137.063 31.5147 136.702 31.6002L135.679 31.8887C135.51 31.9431 135.369 32.0612 135.286 32.2178C135.203 32.3745 135.184 32.5575 135.233 32.7279C135.276 32.862 135.36 32.9793 135.473 33.0638C135.586 33.1484 135.722 33.1959 135.863 33.1999H137.829C138.17 33.1741 138.512 33.1741 138.852 33.1999C139.189 33.2309 139.523 33.2924 139.849 33.3835C140.19 33.3835 140.426 33.5671 140.688 33.5933C140.874 33.6717 141.067 33.7332 141.265 33.7769H141.501C141.664 33.848 141.849 33.8522 142.016 33.7885C142.183 33.7247 142.318 33.5982 142.392 33.436C142.431 33.3448 142.451 33.2466 142.451 33.1475C142.451 33.0483 142.431 32.9502 142.392 32.859V32.8852Z" fill="#403D4F"/>
<path d="M155.164 33.8815C155.164 33.8815 155.164 33.8815 155.321 33.8815L155.714 33.7241H156.003C156.106 33.7014 156.214 33.7014 156.317 33.7241C156.549 33.6476 156.786 33.5862 157.025 33.5406C157.269 33.5133 157.516 33.5133 157.76 33.5406H159.255C159.343 33.5406 159.43 33.5229 159.512 33.4883C159.593 33.4537 159.666 33.4031 159.728 33.3394C159.789 33.2757 159.837 33.2003 159.868 33.1177C159.899 33.0351 159.914 32.947 159.91 32.8587C159.905 32.7286 159.863 32.6027 159.789 32.4958C159.714 32.3889 159.611 32.3056 159.491 32.2556L158.678 31.9671C158.387 31.8803 158.088 31.8275 157.786 31.8098C157.429 31.7577 157.067 31.7577 156.711 31.8098C156.026 31.8956 155.376 32.1576 154.823 32.5703L154.324 33.0685C154.193 33.2259 154.193 33.2783 154.193 33.3046V33.5406C154.17 33.7207 154.217 33.9027 154.325 34.0492C154.432 34.1956 154.591 34.2952 154.77 34.3273C154.95 34.2298 155.089 34.0719 155.164 33.8815Z" fill="#403D4F"/>
<path d="M149.788 49.2492C150.23 49.2467 150.667 49.1548 151.073 48.979C151.478 48.8033 151.844 48.5473 152.148 48.2265C152.259 48.1076 152.345 47.967 152.399 47.8136C152.453 47.6601 152.475 47.4972 152.463 47.3349C152.463 47.0464 152.017 43.4274 151.86 42.09C151.829 41.9606 151.756 41.8456 151.65 41.7644C151.545 41.6832 151.416 41.6407 151.283 41.6442C151.148 41.6638 151.026 41.7349 150.943 41.8425C150.86 41.9502 150.822 42.0859 150.837 42.2211C150.837 42.4047 151.414 47.1513 151.466 47.466C151.252 47.7037 150.988 47.8923 150.694 48.019C150.4 48.1457 150.082 48.2075 149.762 48.2003C149.627 48.207 149.5 48.2652 149.408 48.3629C149.315 48.4605 149.263 48.5901 149.263 48.7248C149.27 48.8618 149.327 48.9915 149.424 49.0885C149.521 49.1856 149.651 49.2429 149.788 49.2492Z" fill="#F18380"/>
<path d="M152.2 54.4153C153.171 54.6513 153.538 56.1199 152.935 57.8244C152.34 58.9981 151.366 59.9368 150.172 60.4888C148.978 61.0408 147.632 61.1739 146.352 60.8665C145.654 60.8333 144.969 60.6608 144.338 60.3591C143.708 60.0574 143.144 59.6326 142.679 59.1097C142.215 58.5868 141.86 57.9764 141.635 57.3143C141.41 56.6523 141.32 55.9519 141.37 55.2544C141.37 54.1268 142.157 53.4712 143.625 53.4712C146.505 53.5481 149.373 53.8638 152.2 54.4153Z" fill="#73102A"/>
<path d="M141.37 55.3856V55.1496C143.289 54.706 145.305 54.9987 147.019 55.9699C148.733 56.941 150.021 58.52 150.627 60.3945C149.278 61.0556 147.76 61.2933 146.274 61.0763C145.575 61.0335 144.892 60.8511 144.264 60.5401C143.637 60.229 143.079 59.7955 142.622 59.2652C142.165 58.7348 141.818 58.1183 141.603 57.452C141.388 56.7857 141.309 56.0831 141.37 55.3856Z" fill="#D65155"/>
<path d="M151.361 55.9888C148.04 56.0403 144.734 55.535 141.579 54.494C141.777 54.1367 142.078 53.8477 142.443 53.6652C142.809 53.4826 143.22 53.415 143.625 53.4713C146.504 53.5481 149.373 53.8639 152.2 54.4153C152.471 54.5088 152.709 54.6809 152.881 54.9098C153.054 55.1387 153.155 55.4139 153.17 55.7003C152.59 55.9063 151.977 56.0041 151.361 55.9888Z" fill="white"/>
<path d="M136.781 25.4376C136.781 25.4376 134.158 38.5498 123.039 43.6373C123.039 43.6373 111.71 37.055 113.022 24.4936C114.648 9.02118 136.624 -8.3918 158.495 8.0771C160.619 7.73619 162.927 3.25182 162.245 0C163.139 0.561738 163.842 1.38019 164.264 2.34832C164.685 3.31644 164.804 4.38916 164.606 5.42616C164.407 6.46315 163.901 7.41615 163.152 8.1605C162.403 8.90486 161.447 9.40591 160.409 9.59812C163.979 10.0955 167.219 11.9527 169.452 14.7821C171.685 17.6115 172.739 21.1941 172.394 24.782C172.282 27.0441 171.34 29.1855 169.748 30.7967C168.156 32.4078 166.026 33.3755 163.766 33.5147H159.911C156.928 32.1479 154.517 29.7827 153.092 26.8275C153.463 29.0551 154.237 31.1967 155.374 33.1476C155.584 33.541 155.112 34.2228 151.886 33.541C148.183 32.2672 145.088 29.6584 143.206 26.2244C143.911 28.4761 144.851 30.6473 146.012 32.7018C146.012 33.0951 144.307 33.6721 141.79 32.5182C140.387 31.9085 139.179 30.9261 138.296 29.6777C137.413 28.4294 136.889 26.9629 136.781 25.4376Z" fill="#BC664A"/>
<path d="M153.984 35.7435C153.04 35.7435 152.673 37.4743 152.673 39.1265C152.769 41.3643 153.437 43.5402 154.613 45.4465C155.094 46.0218 155.718 46.4603 156.423 46.7181C157.127 46.9759 157.887 47.0438 158.626 46.9151C159.525 47.0543 160.444 46.9949 161.319 46.7412C162.193 46.4875 163.001 46.0456 163.687 45.4465C165.13 43.6386 165.99 41.4344 166.152 39.1265C166.152 37.4743 165.654 35.7435 164.474 35.7435H153.984Z" stroke="#403D4F" stroke-width="0.75" stroke-miterlimit="10"/>
<path d="M146.064 35.7435C147.323 35.7435 147.821 37.4743 147.821 39.1265C147.649 41.4603 146.729 43.6766 145.199 45.4465C144.474 46.0414 143.633 46.4791 142.73 46.7319C141.827 46.9847 140.882 47.0471 139.954 46.9151C137.597 47.2182 135.207 46.6996 133.188 45.4465C131.346 43.8216 130.177 41.5679 129.91 39.1265C129.91 37.4743 130.539 35.7435 132.139 35.7435H146.064Z" stroke="#403D4F" stroke-width="0.75" stroke-miterlimit="10"/>
<path d="M152.883 37.317C152.129 36.7428 151.208 36.4318 150.26 36.4318C149.313 36.4318 148.392 36.7428 147.638 37.317" stroke="#403D4F" stroke-width="0.75" stroke-miterlimit="10"/>
<path d="M132.087 35.7435H128.888C128.206 35.7435 127.419 35.9009 127.419 36.8187V38.2873C127.419 38.6544 129.753 39.3887 130.042 40.2017" stroke="#403D4F" stroke-width="0.75" stroke-miterlimit="10"/>
<path d="M120.443 39.5726L127.419 36.8191" stroke="#403D4F" stroke-width="0.75" stroke-miterlimit="10"/>
<path d="M124.035 45.5779C123.825 42.0113 122.881 37.8417 118.528 38.4711C113.44 39.2578 112.942 53.0256 123.773 51.3734L124.035 45.5779Z" fill="#FBBEAA"/>
<path d="M118.161 46.4958C118.253 46.4971 118.342 46.4733 118.421 46.427C118.5 46.3808 118.564 46.3139 118.607 46.2335C118.722 46.0065 118.894 45.8127 119.105 45.6704C119.316 45.5282 119.56 45.4422 119.814 45.4206C120.116 45.4239 120.413 45.5053 120.675 45.6569C120.937 45.8085 121.155 46.0252 121.308 46.286C121.371 46.3757 121.461 46.4423 121.566 46.4755C121.67 46.5086 121.782 46.5066 121.885 46.4696C121.996 46.4388 122.092 46.3685 122.155 46.2719C122.218 46.1753 122.243 46.059 122.226 45.9451C122.181 44.842 121.837 43.7719 121.233 42.8484C120.628 41.9249 119.784 41.1826 118.791 40.7002C118.724 40.6606 118.649 40.6362 118.572 40.629C118.495 40.6217 118.417 40.6317 118.344 40.6582C118.271 40.6847 118.205 40.727 118.15 40.7822C118.096 40.8374 118.054 40.904 118.028 40.9773C118.002 41.0505 117.993 41.1286 118.001 41.2058C118.009 41.283 118.035 41.3574 118.075 41.4237C118.115 41.4901 118.17 41.5466 118.235 41.5893C118.3 41.632 118.373 41.6597 118.45 41.6705C119.039 41.957 119.564 42.3605 119.992 42.8564C120.421 43.3524 120.744 43.9304 120.941 44.5552C120.575 44.3747 120.168 44.2933 119.761 44.3192C119.337 44.3593 118.929 44.502 118.573 44.735C118.217 44.9681 117.922 45.2844 117.716 45.6566C117.658 45.7758 117.648 45.9122 117.687 46.0387C117.726 46.1651 117.811 46.2722 117.925 46.3384L118.161 46.4958Z" fill="#F18380"/>
<g opacity="0.3" filter="url(#filter0_f_110_18)">
<ellipse cx="106.5" cy="14.5" rx="106.5" ry="14.5" transform="matrix(1 0 0 -1 17.5 539)" fill="#CBCBCB"/>
</g>
<path d="M230.287 80.3559C230.389 78.1209 229.791 75.9097 228.576 74.0313C226.705 71.8617 225.303 69.3283 224.458 66.5905C223.809 64.0491 222.772 61.623 221.383 59.3977C220.391 58.0335 218.903 56.9175 218.903 55.8757C218.903 54.834 220.887 52.825 223.714 53.3955C224.925 53.7728 226.038 54.4131 226.973 55.2707C227.908 56.1282 228.641 57.1818 229.121 58.356C229.392 57.6406 229.551 56.8877 229.592 56.1238L230.213 40.9198C230.222 40.5256 230.31 40.1374 230.472 39.7779C230.634 39.4184 230.867 39.0951 231.156 38.8269C231.445 38.5587 231.784 38.3512 232.155 38.2165C232.525 38.0818 232.919 38.0227 233.313 38.0427C233.94 38.0694 234.543 38.292 235.036 38.679C235.53 39.0661 235.89 39.5982 236.066 40.2005V39.506C236.161 38.7669 236.533 38.0913 237.106 37.6147C237.679 37.1382 238.411 36.8959 239.155 36.9367C239.899 36.9776 240.6 37.2984 241.118 37.8347C241.635 38.3711 241.93 39.0834 241.944 39.8285V41.9367C242.193 41.2867 242.666 40.7476 243.279 40.4177C243.892 40.0878 244.602 39.989 245.282 40.1393C245.961 40.2896 246.564 40.679 246.98 41.2366C247.396 41.7941 247.599 42.4827 247.55 43.1768V44.5161C247.817 44.047 248.214 43.6658 248.695 43.4191C249.175 43.1725 249.716 43.071 250.253 43.1272C250.988 43.2205 251.658 43.5963 252.121 44.175C252.584 44.7537 252.804 45.4898 252.733 46.2275L251.518 59.0505C250.722 66.2799 249.227 73.415 247.054 80.3559C247.027 81.5148 246.759 82.6553 246.265 83.7043C245.772 84.7532 245.065 85.6873 244.189 86.4465C243.313 87.2057 242.287 87.7731 241.179 88.1125C240.071 88.4518 238.903 88.5554 237.753 88.4167C236.711 88.4515 235.674 88.2619 234.713 87.8607C233.751 87.4595 232.887 86.8562 232.179 86.0916C231.47 85.3271 230.935 84.4192 230.609 83.4296C230.282 82.4399 230.173 81.3917 230.287 80.3559Z" fill="#FBBEAA"/>
<path d="M146.703 485.134C146.703 482.746 147.651 480.456 149.34 478.768C151.028 477.079 153.318 476.131 155.706 476.131C158.094 476.131 160.384 477.079 162.072 478.768C163.761 480.456 164.709 482.746 164.709 485.134V504.703H146.703V485.134Z" fill="#FBBEAA"/>
<path d="M164.065 488.78C166.272 488.78 166.669 489.748 167.314 491.012C168.36 494.383 170.148 497.477 172.547 500.065C176.129 503.116 179.971 505.847 184.031 508.225V518.593H143.95C143.95 518.593 144.223 510.408 144.421 504.629C144.619 498.85 145.19 491.806 145.14 491.062C145.091 490.318 145.14 488.78 146.504 488.78H164.065Z" fill="#302D3B"/>
<path d="M148.935 505.199C148.93 506.472 149.303 507.717 150.007 508.777C150.711 509.838 151.714 510.665 152.889 511.154C154.064 511.643 155.357 511.773 156.606 511.526C157.854 511.279 159.001 510.666 159.901 509.766C160.801 508.866 161.413 507.72 161.66 506.471C161.907 505.223 161.778 503.929 161.289 502.754C160.799 501.579 159.972 500.576 158.912 499.872C157.852 499.168 156.606 498.795 155.334 498.8C153.639 498.807 152.015 499.483 150.816 500.682C149.617 501.88 148.941 503.504 148.935 505.199Z" fill="#93929C"/>
<path d="M155.333 501.429L153.87 503.587L151.365 504.306L152.952 506.365L152.878 508.969L155.333 508.076L157.789 508.969L157.69 506.365L159.302 504.306L156.797 503.587L155.333 501.429Z" fill="white"/>
<path d="M183.758 508.052C183.758 508.052 189.437 511.053 191.57 512.516C192.558 513.185 193.36 514.094 193.902 515.156C194.444 516.219 194.709 517.401 194.671 518.593H179.095C179.095 518.593 179.417 510.979 183.758 508.052Z" fill="white"/>
<path d="M143.95 518.593V522.884C143.95 523.603 144.595 524 145.686 524H192.96C194.026 524 194.671 523.603 194.671 522.884V518.593H143.95Z" fill="white"/>
<path d="M179.095 505.15C179.232 504.939 179.446 504.79 179.691 504.734C179.937 504.679 180.194 504.721 180.409 504.852C180.516 504.918 180.609 505.005 180.682 505.107C180.755 505.209 180.807 505.324 180.834 505.447C180.862 505.569 180.865 505.696 180.843 505.82C180.821 505.943 180.775 506.061 180.707 506.167L179.045 508.845C178.965 508.984 178.849 509.099 178.709 509.177C178.57 509.256 178.411 509.296 178.251 509.292C178.068 509.289 177.888 509.238 177.73 509.143C177.623 509.077 177.531 508.991 177.458 508.889C177.385 508.787 177.333 508.671 177.305 508.548C177.277 508.426 177.274 508.299 177.296 508.176C177.318 508.052 177.365 507.934 177.433 507.829L179.095 505.15Z" fill="white"/>
<path d="M176.168 503.091C176.249 502.997 176.348 502.919 176.46 502.863C176.571 502.807 176.693 502.773 176.817 502.764C176.941 502.755 177.066 502.77 177.185 502.809C177.303 502.848 177.413 502.91 177.507 502.992C177.602 503.073 177.679 503.172 177.735 503.284C177.791 503.395 177.825 503.517 177.834 503.641C177.843 503.765 177.828 503.89 177.789 504.009C177.75 504.127 177.688 504.237 177.606 504.331L175.672 506.613C175.582 506.718 175.472 506.802 175.349 506.862C175.225 506.922 175.09 506.955 174.952 506.96C174.773 506.957 174.598 506.904 174.447 506.806C174.296 506.709 174.175 506.571 174.097 506.409C174.02 506.247 173.99 506.066 174.009 505.888C174.029 505.709 174.098 505.539 174.208 505.398L176.168 503.091Z" fill="white"/>
<path d="M173.415 500.785C173.612 500.658 173.849 500.607 174.081 500.641C174.314 500.676 174.525 500.793 174.677 500.973C174.829 501.152 174.91 501.38 174.906 501.614C174.902 501.849 174.813 502.074 174.655 502.248L172.448 504.158C172.275 504.305 172.055 504.384 171.828 504.381C171.691 504.386 171.555 504.36 171.431 504.304C171.306 504.248 171.196 504.164 171.109 504.059C171.017 503.973 170.944 503.869 170.894 503.754C170.844 503.639 170.818 503.515 170.818 503.389C170.818 503.264 170.844 503.139 170.894 503.024C170.944 502.909 171.017 502.805 171.109 502.719L173.415 500.785Z" fill="white"/>
<path d="M168.578 499.644L171.059 498.106C171.276 497.977 171.536 497.939 171.782 497.999C172.027 498.059 172.24 498.213 172.373 498.428C172.44 498.535 172.485 498.655 172.505 498.779C172.525 498.904 172.52 499.031 172.49 499.154C172.46 499.276 172.406 499.392 172.33 499.493C172.255 499.594 172.16 499.679 172.051 499.743L169.57 501.281C169.423 501.378 169.251 501.43 169.074 501.429C168.913 501.426 168.755 501.38 168.616 501.298C168.477 501.215 168.361 501.098 168.281 500.958C168.15 500.743 168.107 500.486 168.163 500.241C168.218 499.995 168.367 499.781 168.578 499.644Z" fill="white"/>
<path d="M166.495 496.444L169.272 495.279C169.509 495.18 169.776 495.18 170.013 495.277C170.25 495.375 170.439 495.563 170.537 495.8C170.586 495.915 170.611 496.039 170.611 496.164C170.611 496.29 170.586 496.414 170.537 496.529C170.489 496.644 170.418 496.749 170.328 496.837C170.239 496.924 170.133 496.993 170.017 497.04L167.239 498.205H166.867C166.653 498.194 166.449 498.112 166.286 497.972C166.124 497.832 166.013 497.642 165.97 497.432C165.928 497.222 165.956 497.003 166.051 496.811C166.146 496.619 166.302 496.464 166.495 496.37V496.444Z" fill="white"/>
<path d="M164.759 492.873L167.834 492.104C168.077 492.044 168.334 492.084 168.548 492.215C168.762 492.345 168.916 492.555 168.975 492.798C169.034 493.042 168.994 493.298 168.864 493.512C168.734 493.726 168.524 493.88 168.281 493.939L165.23 494.733H165.007C164.793 494.73 164.586 494.659 164.416 494.529C164.246 494.4 164.123 494.219 164.064 494.013C164.011 493.77 164.053 493.516 164.183 493.304C164.312 493.091 164.518 492.937 164.759 492.873Z" fill="white"/>
<path d="M133.532 359.98C133.805 347.976 141.891 342.172 153.87 342.47C165.85 342.767 174.481 349.043 174.208 361.022L164.709 486.102H146.702L133.532 359.98Z" fill="#FBBEAA"/>
<path d="M70.8062 485.134C70.8062 482.746 71.7547 480.456 73.4432 478.768C75.1316 477.079 77.4217 476.131 79.8095 476.131C82.1973 476.131 84.4874 477.079 86.1758 478.768C87.8643 480.456 88.8129 482.746 88.8129 485.134V504.703H70.8062V485.134Z" fill="#FBBEAA"/>
<path d="M88.1438 488.78C90.3761 488.78 90.7729 489.748 91.393 491.012C92.4508 494.384 94.2471 497.476 96.6511 500.065C100.228 503.122 104.071 505.853 108.135 508.225V518.593H68.0537C68.0537 518.593 68.3265 510.408 68.525 504.629C68.7234 498.85 69.2691 491.806 69.2443 491.062C69.2195 490.318 69.2442 488.78 70.5836 488.78H88.1438Z" fill="#302D3B"/>
<path d="M73.0142 505.199C73.0093 506.471 73.3819 507.715 74.0848 508.775C74.7876 509.834 75.7892 510.662 76.9625 511.152C78.1359 511.642 79.4283 511.772 80.676 511.527C81.9238 511.282 83.0707 510.672 83.9716 509.775C84.8725 508.878 85.4868 507.733 85.7367 506.486C85.9865 505.24 85.8608 503.947 85.3753 502.771C84.8898 501.596 84.0665 500.591 83.0096 499.884C81.9526 499.177 80.7097 498.8 79.4381 498.8C77.7387 498.8 76.1085 499.473 74.9045 500.673C73.7005 501.872 73.0208 503.5 73.0142 505.199Z" fill="#93929C"/>
<path d="M79.413 501.429L77.9497 503.587L75.4446 504.306L77.0568 506.365L76.9824 508.969L79.413 508.076L81.8685 508.969L81.7941 506.365L83.4062 504.306L80.8764 503.587L79.413 501.429Z" fill="white"/>
<path d="M107.836 508.052C107.836 508.052 113.541 511.053 115.649 512.516C116.642 513.18 117.448 514.087 117.99 515.151C118.533 516.215 118.794 517.4 118.75 518.593H103.099C103.099 518.593 103.521 510.979 107.836 508.052Z" fill="white"/>
<path d="M68.0537 518.593V522.884C68.0537 523.603 68.6738 524 69.7651 524H117.088C118.18 524 118.8 523.603 118.8 522.884V518.593H68.0537Z" fill="white"/>
<path d="M103.199 505.15C103.333 504.936 103.548 504.785 103.794 504.729C104.041 504.673 104.299 504.717 104.513 504.852C104.727 504.987 104.878 505.201 104.934 505.448C104.99 505.694 104.946 505.953 104.811 506.167L103.149 508.846C103.063 508.985 102.942 509.099 102.799 509.177C102.655 509.255 102.494 509.295 102.33 509.292C102.154 509.292 101.981 509.241 101.834 509.143C101.728 509.077 101.635 508.991 101.562 508.889C101.489 508.787 101.437 508.671 101.409 508.549C101.381 508.426 101.378 508.299 101.4 508.176C101.422 508.052 101.469 507.934 101.537 507.829L103.199 505.15Z" fill="white"/>
<path d="M100.247 503.091C100.41 502.901 100.641 502.781 100.891 502.758C101.141 502.735 101.39 502.81 101.586 502.967C101.778 503.135 101.898 503.37 101.921 503.624C101.944 503.878 101.869 504.132 101.71 504.331L99.7506 506.613C99.6647 506.721 99.5553 506.809 99.4308 506.869C99.3062 506.929 99.1697 506.96 99.0314 506.96C98.8496 506.962 98.6711 506.911 98.5175 506.814C98.3639 506.717 98.2417 506.577 98.1657 506.412C98.0897 506.247 98.063 506.063 98.089 505.883C98.115 505.703 98.1924 505.535 98.3121 505.398L100.247 503.091Z" fill="white"/>
<path d="M97.519 500.785C97.7163 500.658 97.9531 500.607 98.1853 500.641C98.4175 500.676 98.6292 500.793 98.781 500.973C98.9327 501.152 99.0142 501.38 99.0102 501.614C99.0061 501.849 98.9169 502.074 98.7591 502.248L96.5269 504.158C96.3538 504.305 96.1336 504.384 95.9068 504.381C95.7705 504.384 95.6352 504.357 95.5108 504.301C95.3864 504.245 95.2759 504.163 95.1875 504.059C95.099 503.971 95.0288 503.867 94.9808 503.752C94.9329 503.637 94.9082 503.514 94.9082 503.389C94.9082 503.265 94.9329 503.141 94.9808 503.026C95.0288 502.911 95.099 502.807 95.1875 502.719L97.519 500.785Z" fill="white"/>
<path d="M92.6824 499.644L95.1626 498.106C95.3766 498.016 95.6159 498.005 95.8368 498.077C96.0578 498.148 96.2456 498.297 96.3659 498.496C96.4863 498.694 96.5312 498.93 96.4924 499.159C96.4537 499.388 96.3338 499.595 96.1547 499.743L93.6745 501.281C93.5275 501.378 93.3548 501.43 93.1784 501.429C93.0131 501.427 92.8511 501.383 92.7078 501.301C92.5645 501.218 92.4447 501.1 92.3599 500.958C92.2311 500.74 92.1927 500.481 92.2529 500.235C92.3132 499.989 92.4674 499.777 92.6824 499.644Z" fill="white"/>
<path d="M229.99 82.0179L220.069 144.297C218.432 152.11 220.961 159.179 229.99 160.419C231.656 160.636 233.349 160.512 234.966 160.055C236.584 159.597 238.091 158.816 239.397 157.758C240.703 156.701 241.78 155.388 242.563 153.902C243.347 152.415 243.82 150.784 243.953 149.109L246.979 82.1419C247.773 75.8172 245.02 71.6008 240.208 71.08C234.305 70.4351 231.18 73.9323 229.99 82.0179Z" fill="#FBBEAA"/>
<path d="M90.5992 496.445L93.3771 495.279C93.4926 495.23 93.6165 495.206 93.7418 495.206C93.867 495.206 93.9909 495.231 94.1064 495.279C94.2219 495.328 94.3265 495.399 94.4142 495.488C94.5019 495.577 94.5709 495.683 94.6172 495.8C94.7098 496.031 94.71 496.288 94.6176 496.519C94.5252 496.75 94.3474 496.937 94.1212 497.04L91.3185 498.206C91.2041 498.231 91.0855 498.231 90.9712 498.206C90.7802 498.206 90.5935 498.149 90.4346 498.043C90.2757 497.937 90.1518 497.787 90.0783 497.61C90.003 497.386 90.0148 497.142 90.1113 496.926C90.2078 496.71 90.3819 496.538 90.5992 496.445Z" fill="white"/>
<path d="M88.8625 492.873L91.9133 492.104C92.1598 492.044 92.4202 492.083 92.6383 492.212C92.8564 492.342 93.0147 492.553 93.079 492.798C93.1086 492.919 93.114 493.044 93.0951 493.167C93.0762 493.289 93.0332 493.407 92.9687 493.513C92.9042 493.619 92.8194 493.711 92.7191 493.784C92.6189 493.858 92.5051 493.91 92.3845 493.939L89.3338 494.733H89.0858C88.8623 494.716 88.6517 494.622 88.49 494.466C88.3283 494.311 88.2255 494.105 88.1991 493.882C88.1727 493.66 88.2245 493.435 88.3455 493.246C88.4665 493.058 88.6493 492.917 88.8625 492.848V492.873Z" fill="white"/>
<path d="M80.6533 359.608C81.8717 353.978 85.2759 349.062 90.1176 345.942C94.9593 342.821 100.842 341.75 106.473 342.966C118.204 345.446 124.529 357.004 121.999 368.736L88.8134 488.16H70.5835L80.6533 359.608Z" fill="#FBBEAA"/>
<path d="M131.969 359.2C132.036 356.35 132.663 353.541 133.816 350.933C134.968 348.326 136.623 345.971 138.685 344.003C140.748 342.035 143.178 340.492 145.836 339.463C148.495 338.434 151.33 337.939 154.18 338.006C157.03 338.073 159.839 338.7 162.446 339.853C165.054 341.005 167.409 342.659 169.377 344.722C171.345 346.784 172.887 349.214 173.916 351.873C174.945 354.531 175.441 357.367 175.374 360.217L181.005 488.794H131.97L131.969 359.2Z" fill="#93929C"/>
<path d="M80.6562 356.546C82.0023 351.051 85.4384 346.298 90.2341 343.297C95.0298 340.296 100.807 339.284 106.337 340.476C111.867 341.668 116.715 344.97 119.848 349.68C122.982 354.39 124.155 360.137 123.118 365.698L109.924 488.294C109.924 488.294 78.3252 490.179 59.5 488.294L80.6562 356.546Z" fill="#93929C"/>
<path d="M238.05 137.402L166.817 83.2827C158.509 77.9749 152.854 80.8024 148.439 86.4822C146.423 89.2313 145.488 92.6258 145.812 96.0195C146.137 99.4132 147.699 102.569 150.2 104.886L221.259 157.244C223.763 159.359 226.987 160.426 230.258 160.223C233.53 160.019 236.596 158.561 238.819 156.153L239.142 155.806C240.322 154.547 241.233 153.061 241.819 151.439C242.406 149.816 242.656 148.091 242.554 146.369C242.451 144.647 241.999 142.964 241.225 141.422C240.451 139.88 239.371 138.512 238.05 137.402Z" fill="#FBBEAA"/>
<path d="M150.2 104.861C149.542 104.295 148.943 103.663 148.414 102.976C147.945 101.211 147.885 99.3621 148.238 97.5701C148.59 95.7781 149.346 94.0899 150.448 92.6334C154.193 86.8544 162.055 82.3155 165.552 83.1836L169.025 84.9446L208.337 114.708C204.858 122.885 200.158 130.486 194.398 137.253L150.2 104.861Z" fill="#F18380"/>
<path d="M160.939 79.4133L222.582 120.988C222.323 123.115 229.157 79.4133 229.157 79.4133L248.493 81.9297C248.493 81.9297 248.099 126.058 245.213 149.478C244.06 158.828 236.35 162.397 227.146 160.389C222.602 159.397 218.324 157.533 214.517 154.861C198.159 143.379 152.265 111.038 148.513 106.969C142.04 99.9499 142.039 94.6918 145.76 88.9128C149.48 83.1338 157.442 78.5452 160.939 79.4133Z" fill="#002B80"/>
<path d="M131.97 359.906L119.246 226.691C119.246 211.983 134.4 195.961 156.747 199.408C176.937 202.558 183.088 222.847 181.426 242.069C179.764 261.291 175.275 360.849 175.275 360.849C175.208 363.699 174.581 366.507 173.428 369.115C172.276 371.722 170.621 374.077 168.559 376.045C166.496 378.013 164.067 379.556 161.408 380.585C158.749 381.614 155.914 382.109 153.064 382.042C150.214 381.976 147.405 381.348 144.798 380.196C142.19 379.043 139.835 377.389 137.867 375.326C135.899 373.264 134.357 370.834 133.328 368.175C132.299 365.517 131.804 362.682 131.87 359.832L131.97 359.906Z" fill="#93929C"/>
<path d="M80.6536 357.252L93.3029 224.062C95.9816 209.602 113.963 196.779 135.269 204.369C154.491 211.239 156.723 232.321 151.465 250.899C146.207 269.476 123.116 366.404 123.116 366.404C121.769 371.899 118.333 376.652 113.538 379.653C108.742 382.654 102.965 383.666 97.4347 382.474C91.9045 381.282 87.0573 377.98 83.9235 373.27C80.7898 368.56 79.6167 362.813 80.6536 357.252Z" fill="#93929C"/>
<path d="M151.465 250.899C146.231 269.476 123.115 366.404 123.115 366.404" stroke="#5E5D63" stroke-width="0.75" stroke-miterlimit="10"/>
<path d="M147.744 77.3049C147.744 77.3049 158.707 79.2147 160.84 79.7852C162.099 80.0806 163.262 80.6907 164.221 81.5583C165.179 82.4259 165.902 83.5226 166.321 84.7457C167.686 87.9949 174.705 109.275 175.35 111.582C175.786 114.123 175.376 116.737 174.184 119.023C173.167 121.801 167.909 134.45 167.909 134.45L167.115 175.201L137.502 179.898L109.127 175.201C109.127 175.201 99.2056 99.4041 98.7095 94.7164C98.2135 90.0287 100.545 80.9758 106.15 79.8348C111.756 78.6939 127.133 77.3546 127.133 77.3546L147.744 77.3049Z" fill="#FBBEAA"/>
<path d="M168.505 158.816V173.142C149.11 174.928 118.204 173.663 106.597 173.142C106.051 169.05 105.481 162.105 104.885 157.492C120.685 157.889 146.778 159.361 168.505 158.816Z" fill="white"/>
<path d="M66.2183 171.555L97.9905 87.9453C102.232 79.0164 108.507 78.4211 115.352 80.9014C118.518 82.1644 121.108 84.5495 122.627 87.6012C124.146 90.6529 124.488 94.1572 123.587 97.4448L90.8721 179.566C89.8805 182.69 87.717 185.309 84.8358 186.872C81.9546 188.435 78.5799 188.821 75.4201 187.949L74.9488 187.825C73.2821 187.371 71.7254 186.581 70.3737 185.505C69.022 184.429 67.9037 183.089 67.0868 181.566C66.2699 180.044 65.7716 178.371 65.6223 176.65C65.473 174.929 65.6758 173.195 66.2183 171.555Z" fill="#FBBEAA"/>
<path d="M79.3877 136.881L97.9896 87.9452C98.4885 86.872 99.0776 85.8432 99.7506 84.8697C102.029 83.4431 104.638 82.6295 107.323 82.5078C110.009 82.3861 112.68 82.9605 115.079 84.1752C117.864 85.5304 120.102 87.796 121.424 90.597C122.745 93.3981 123.071 96.5665 122.346 99.5776C122.346 99.8752 122.172 100.446 122.023 101.215L102.826 149.456C94.4409 146.432 86.5442 142.195 79.3877 136.881Z" fill="#F18380"/>
<path d="M99.7262 83.4811L65.5 171.5C94.5039 162.219 98 168.5 105.793 142.645C105.793 142.645 123.983 99.95 124.678 96.1304C125.402 93.1192 125.077 89.9509 123.755 87.1499C122.434 84.3489 120.195 82.0832 117.41 80.728C109.647 76.7596 101.909 80.356 99.7262 83.4811Z" fill="#003399"/>
<path d="M93.3025 223.418C93.8482 216.547 103.588 185.006 111.5 170C111.5 170 128.385 163.464 139.5 163.5C151.097 163.538 166.5 172.5 166.5 172.5C171.659 184.182 178.152 212.405 179.864 217.911C180.897 221.151 181.022 224.612 180.226 227.917C179.43 231.223 177.744 234.248 175.349 236.662C169.471 243.334 154.317 250.973 150.82 250.973C135.774 248.824 121.026 244.946 106.87 239.415C98.8831 236.067 92.7816 230.313 93.3025 223.418Z" fill="#93929C"/>
<path d="M144.14 158.821L85.7825 182.749C78.5593 186.124 71.0897 185.28 67.8433 176.852C67.2496 175.281 66.9813 173.606 67.0547 171.928C67.128 170.25 67.5413 168.604 68.2697 167.091C68.998 165.577 70.0262 164.228 71.2919 163.124C72.5575 162.02 74.0343 161.184 75.6325 160.668L140.069 142.455C146.035 140.227 150.769 141.967 152.425 146.454C154.382 151.987 151.718 155.728 144.14 158.821Z" fill="#FBBEAA"/>
<path d="M150.541 73.5021C150.541 73.5021 164.225 81.4005 166.338 82.7828C168.451 84.165 168 86.5 170.445 92.0635C171.145 93.6562 176.257 99.1937 176 108C175.3 132.019 168.174 173.576 168.174 173.576C163.901 175.881 159.357 177.646 154.648 178.828C152.377 179.085 150.58 179.144 149.04 177.643C147.5 176.143 142.958 170.693 142.958 170.693C142.958 170.693 135.475 175.767 132.098 177.643C131.293 178.205 130.384 178.599 129.424 178.803C128.464 179.006 127.473 179.015 126.51 178.828C121.593 177.821 102.242 172.174 101.63 171.818C101.018 171.463 100.445 171.088 100.504 170.416C100.563 169.745 100.919 92.7151 101.176 89.2398C101.226 87.3786 101.812 85.5714 102.863 84.0342C103.913 82.497 105.384 81.2948 107.099 80.5712C111.226 78.7348 126.727 72.4358 126.727 72.4358L142.899 83.6714L150.541 73.5021Z" fill="#003399"/>
<path d="M150.541 71.291L142.938 83.6719C142.938 83.6719 150.403 89.5957 150.837 90.0301C151.271 90.4645 152.14 90.425 152.318 89.7339C152.496 89.0428 154.648 75.9116 154.687 75.9116C154.725 75.842 154.745 75.7639 154.745 75.6845C154.745 75.6052 154.725 75.5271 154.687 75.4575C154.49 75.3192 150.541 71.291 150.541 71.291Z" fill="#F5F5F5"/>
<path d="M126.648 69L142.958 83.6714C142.958 83.6714 134.369 89.5952 133.994 90.0296C133.884 90.1227 133.755 90.1897 133.616 90.2256C133.477 90.2615 133.332 90.2653 133.191 90.2368C133.05 90.2083 132.918 90.1481 132.804 90.0609C132.69 89.9737 132.597 89.8618 132.533 89.7335C131.901 88.7264 121.791 74.5289 121.751 74.4104C121.709 74.3421 121.687 74.2635 121.687 74.1834C121.687 74.1032 121.709 74.0246 121.751 73.9563C121.968 73.8378 126.648 69 126.648 69Z" fill="#F5F5F5"/>
<g filter="url(#filter1_d_110_18)">
<rect x="119.426" y="118.357" width="40.9288" height="58.3236" rx="1" transform="rotate(-6.55484 119.426 118.357)" fill="#EFEFEF"/>
</g>
<path d="M138.643 144.497C141.49 143.294 144.063 141.512 146.201 139.263C147.524 137.874 149.025 136.669 150.663 135.679C151.623 135.079 152.452 134.286 153.098 133.352C153.95 131.902 154.656 130.371 155.204 128.783C155.407 127.415 155.872 126.096 156.574 124.902C157.241 124.29 159.596 124.617 160.818 126.993C161.239 128.051 161.43 129.19 161.378 130.334C161.326 131.478 161.031 132.601 160.515 133.627C159.906 134.857 159.43 136.148 159.093 137.477L159.315 137.61C161.178 136.621 163.168 135.904 165.226 135.48C165.972 135.313 166.75 135.404 167.433 135.736C168.116 136.069 168.665 136.625 168.992 137.314C169.319 138.004 169.404 138.787 169.234 139.537C169.065 140.287 168.649 140.961 168.056 141.45C171.267 141.819 170.902 146.771 168.146 147.426C168.736 147.673 169.234 148.099 169.573 148.644C169.912 149.189 170.075 149.827 170.04 150.473C170.006 151.119 169.775 151.741 169.379 152.255C168.984 152.768 168.442 153.15 167.828 153.346C169.786 155.151 168.355 158.126 164.8 158.139C161.911 158.433 154.186 159.642 151.499 160.221C148.811 160.799 143.409 159.52 141.674 160.057C139.09 161.003 136.09 161.019 133.802 154.222C131.513 147.425 135.985 145.375 138.643 144.497Z" fill="#FBBEAA"/>
<path d="M230.783 60.5139C229.841 60.5139 229.766 59.9187 229.344 58.8274C231.453 58.8274 237.579 59.2242 240.258 64.3831C237.554 60.6627 232.37 60.5139 230.783 60.5139ZM235.595 40.8951C235.595 40.8951 235.446 41.7632 235.297 43.0281C235.297 43.673 235.148 44.4418 235.099 45.2355C235.049 46.0292 234.975 46.8973 234.9 47.7158C234.9 49.452 234.776 51.1634 234.776 52.4531C234.776 53.7428 234.776 54.6109 234.776 54.6109C234.776 54.6522 234.785 54.693 234.801 54.7309C234.817 54.7687 234.842 54.8026 234.872 54.8306C234.902 54.8586 234.938 54.88 234.977 54.8935C235.016 54.9069 235.058 54.912 235.099 54.9085C235.168 54.905 235.235 54.8789 235.289 54.8342C235.343 54.7895 235.38 54.7286 235.396 54.6606C235.396 54.6606 235.545 53.7924 235.669 52.5027C235.793 51.2129 235.992 49.5016 236.066 47.7902C236.066 46.9221 236.066 46.054 236.066 45.3099C236.066 44.5659 236.066 43.7474 236.066 43.1025C236.066 41.788 236.066 40.9446 236.066 40.9446C236.066 40.9034 236.058 40.8626 236.041 40.8248C236.025 40.7869 236.001 40.7529 235.97 40.7249C235.94 40.6969 235.904 40.6756 235.865 40.6622C235.826 40.6488 235.785 40.6436 235.744 40.647C235.696 40.6744 235.657 40.7144 235.631 40.7625C235.604 40.8107 235.592 40.8651 235.595 40.9199V40.8951ZM241.349 42.6313C241.349 42.6313 241.2 43.3753 241.026 44.4667C241.026 45.0371 240.853 45.682 240.778 46.3764C240.704 47.0709 240.63 47.815 240.555 48.5591C240.555 50.0472 240.382 51.5354 240.357 52.6515C240.332 53.7676 240.357 54.5365 240.357 54.5365C240.36 54.5756 240.371 54.6137 240.389 54.6487C240.407 54.6836 240.431 54.7147 240.461 54.74C240.491 54.7654 240.526 54.7846 240.563 54.7965C240.601 54.8084 240.64 54.8128 240.679 54.8094C240.746 54.8047 240.809 54.7777 240.859 54.7327C240.908 54.6877 240.941 54.6273 240.952 54.5613C240.952 54.5613 241.101 53.8172 241.275 52.7259C241.448 51.6346 241.597 50.1216 241.721 48.6583C241.721 47.9142 241.721 47.1701 241.87 46.4757C242.019 45.7812 241.87 45.1115 241.87 44.5411C241.87 43.4249 241.87 42.6809 241.87 42.6809C241.87 42.6396 241.861 42.5988 241.845 42.561C241.829 42.5231 241.804 42.4891 241.774 42.4611C241.744 42.4331 241.708 42.4118 241.669 42.3984C241.63 42.385 241.588 42.3798 241.547 42.3832C241.492 42.406 241.445 42.4435 241.41 42.4916C241.375 42.5398 241.354 42.5967 241.349 42.656V42.6313ZM246.905 44.9875C246.905 44.9875 246.756 45.6076 246.557 46.5501C246.557 46.9965 246.359 47.5422 246.285 48.1375C246.21 48.7327 246.111 49.3528 246.012 49.9728C245.838 51.2378 245.764 52.4531 245.714 53.4452C245.665 54.4373 245.714 55.0326 245.714 55.0326C245.714 55.0738 245.722 55.1146 245.739 55.1525C245.755 55.1903 245.78 55.2243 245.81 55.2523C245.84 55.2803 245.876 55.3017 245.915 55.3151C245.954 55.3285 245.995 55.3336 246.037 55.3302C246.1 55.3269 246.161 55.3034 246.21 55.2633C246.259 55.2231 246.294 55.1684 246.309 55.107C246.309 55.107 246.483 54.4869 246.657 53.5692C246.83 52.6515 247.078 51.3618 247.227 50.1216C247.227 49.4768 247.351 48.8567 247.401 48.2614C247.45 47.6662 247.401 47.1205 247.401 46.6493C247.401 45.7068 247.401 45.0619 247.401 45.0619C247.401 45.0206 247.392 44.9798 247.376 44.942C247.359 44.9042 247.335 44.8701 247.305 44.8422C247.275 44.8142 247.239 44.7928 247.2 44.7794C247.161 44.766 247.119 44.7608 247.078 44.7643C247.033 44.7898 246.993 44.8254 246.963 44.8683C246.933 44.9113 246.913 44.9605 246.905 45.0123V44.9875Z" fill="#F18380"/>
<path d="M137.5 165L84.5001 187.5C77.2763 190.873 68.745 187.929 65.5001 179.5C64.9067 177.929 64.8666 175.36 64.9402 173.682C65.0137 172.004 65.4274 170.358 66.156 168.845C66.8846 167.332 68.234 164.604 69.4999 163.5C70.7657 162.396 75.2765 160.359 76.8748 159.843L136.5 143.5L137.5 165Z" fill="#003399"/>
<defs>
<filter id="filter0_f_110_18" x="0.5" y="493" width="247" height="63" filterUnits="userSpaceOnUse" color-interpolation-filters="sRGB">
<feFlood flood-opacity="0" result="BackgroundImageFix"/>
<feBlend mode="normal" in="SourceGraphic" in2="BackgroundImageFix" result="shape"/>
<feGaussianBlur stdDeviation="8.5" result="effect1_foregroundBlur_110_18"/>
</filter>
<filter id="filter1_d_110_18" x="119.534" y="113.792" width="49.1042" height="62.3995" filterUnits="userSpaceOnUse" color-interpolation-filters="sRGB">
<feFlood flood-opacity="0" result="BackgroundImageFix"/>
<feColorMatrix in="SourceAlpha" type="matrix" values="0 0 0 0 0 0 0 0 0 0 0 0 0 0 0 0 0 0 127 0" result="hardAlpha"/>
<feOffset dx="2"/>
<feComposite in2="hardAlpha" operator="out"/>
<feColorMatrix type="matrix" values="0 0 0 0 0.603922 0 0 0 0 0.6 0 0 0 0 0.631373 0 0 0 1 0"/>
<feBlend mode="normal" in2="BackgroundImageFix" result="effect1_dropShadow_110_18"/>
<feBlend mode="normal" in="SourceGraphic" in2="effect1_dropShadow_110_18" result="shape"/>
</filter>
</defs>
</svg>
