<svg width="211" height="515" viewBox="0 0 211 515" fill="none" xmlns="http://www.w3.org/2000/svg">
<path d="M28.1171 95.9549C27.993 93.2418 28.7192 90.5578 30.1945 88.2775C32.4659 85.6439 34.1675 82.5686 35.1924 79.2452C35.9808 76.1603 37.24 73.2152 38.9258 70.514C40.1301 68.8581 41.9365 67.5033 41.9365 66.2388C41.9365 64.9743 39.5279 62.5356 36.0957 63.228C34.6255 63.686 33.2747 64.4633 32.14 65.5043C31.0053 66.5453 30.1148 67.8242 29.5322 69.2495C29.2033 68.3811 29.0105 67.4671 28.9602 66.5399L28.2075 48.084C28.1961 47.6055 28.0889 47.1342 27.8923 46.6979C27.6957 46.2615 27.4136 45.869 27.0628 45.5435C26.712 45.2179 26.2995 44.966 25.8498 44.8025C25.4 44.639 24.922 44.5672 24.4441 44.5915C23.6831 44.624 22.9514 44.8941 22.352 45.3639C21.7525 45.8338 21.3154 46.4797 21.1021 47.2108V46.3678C20.9863 45.4706 20.5354 44.6505 19.8399 44.072C19.1444 43.4935 18.2558 43.1995 17.3525 43.249C16.4493 43.2986 15.5982 43.688 14.9702 44.3391C14.3421 44.9902 13.9836 45.8548 13.9666 46.7592V49.3184C13.6651 48.5294 13.0901 47.875 12.3464 47.4745C11.6028 47.074 10.74 46.9541 9.91525 47.1366C9.09055 47.3191 8.35886 47.7917 7.85354 48.4685C7.34822 49.1453 7.10291 49.9812 7.16232 50.8238V52.4495C6.83826 51.88 6.35534 51.4173 5.77253 51.1179C5.18972 50.8185 4.53229 50.6953 3.88062 50.7635C2.9882 50.8768 2.17496 51.333 1.613 52.0354C1.05104 52.7379 0.784485 53.6314 0.869869 54.5269L2.3451 70.0925C3.31153 78.8682 5.12653 87.5295 7.76451 95.9549C7.7964 97.3616 8.12231 98.7461 8.72126 100.019C9.32021 101.293 10.1789 102.427 11.2423 103.348C12.3056 104.27 13.5501 104.959 14.8956 105.37C16.241 105.782 17.6578 105.908 19.0548 105.74C20.3191 105.782 21.5776 105.552 22.745 105.065C23.9125 104.578 24.9616 103.845 25.8211 102.917C26.6806 101.989 27.3305 100.887 27.7267 99.686C28.1229 98.4846 28.256 97.2122 28.1171 95.9549Z" fill="#FBBEAA"/>
<path d="M27.5153 71.8691C28.6594 71.8691 28.7496 71.1466 29.2615 69.8219C26.7023 69.8219 19.2658 70.3036 16.0142 76.5659C19.2959 72.0498 25.5884 71.8691 27.5153 71.8691ZM21.6744 48.0541C21.6744 48.0541 21.8551 49.1079 22.0357 50.6434C22.0357 51.4262 22.2164 52.3595 22.2766 53.3229C22.3368 54.2864 22.4271 55.3401 22.5174 56.3337C22.5174 58.4412 22.6679 60.5186 22.6679 62.0842C22.6679 63.6498 22.6679 64.7036 22.6679 64.7036C22.6681 64.7536 22.6579 64.8033 22.6379 64.8492C22.6179 64.8951 22.5885 64.9363 22.5517 64.9703C22.5149 65.0043 22.4714 65.0303 22.4241 65.0465C22.3767 65.0628 22.3265 65.069 22.2766 65.0648C22.1919 65.0606 22.1108 65.0289 22.0456 64.9746C21.9805 64.9203 21.9347 64.8464 21.9152 64.7638C21.9152 64.7638 21.7346 63.71 21.5841 62.1444C21.4336 60.5788 21.1927 58.5014 21.1024 56.424C21.1024 55.3702 21.1024 54.3165 21.1024 53.4132C21.1024 52.51 21.1024 51.5165 21.1024 50.7337C21.1024 49.138 21.1024 48.1143 21.1024 48.1143C21.1022 48.0642 21.1124 48.0147 21.1324 47.9688C21.1524 47.9228 21.1818 47.8815 21.2186 47.8476C21.2554 47.8136 21.2989 47.7877 21.3462 47.7714C21.3936 47.7551 21.4439 47.7489 21.4938 47.753C21.5515 47.7862 21.5989 47.8348 21.6308 47.8932C21.6627 47.9517 21.6777 48.0178 21.6744 48.0843V48.0541ZM14.6895 50.1617C14.6895 50.1617 14.8701 51.0649 15.0809 52.3896C15.0809 53.0821 15.2916 53.8648 15.382 54.7078C15.4723 55.5509 15.5626 56.4541 15.6529 57.3573C15.6529 59.1638 15.8636 60.9702 15.8937 62.325C15.9239 63.6799 15.8937 64.6132 15.8937 64.6132C15.89 64.6607 15.8768 64.707 15.8551 64.7494C15.8333 64.7918 15.8034 64.8295 15.767 64.8603C15.7307 64.8911 15.6885 64.9144 15.6431 64.9288C15.5977 64.9433 15.5499 64.9486 15.5024 64.9445C15.4214 64.9388 15.3447 64.906 15.2846 64.8514C15.2245 64.7968 15.1845 64.7235 15.1712 64.6434C15.1712 64.6434 14.9905 63.7401 14.7798 62.4154C14.569 61.0906 14.3884 59.2541 14.2379 57.4778C14.2379 56.5746 14.2379 55.6713 14.0572 54.8283C13.8766 53.9853 14.0572 53.1724 14.0572 52.4799C14.0572 51.1251 14.0572 50.2219 14.0572 50.2219C14.0571 50.1718 14.0673 50.1222 14.0873 50.0763C14.1073 50.0304 14.1367 49.9891 14.1735 49.9551C14.2103 49.9212 14.2537 49.8952 14.3011 49.879C14.3485 49.8627 14.3987 49.8564 14.4486 49.8606C14.5155 49.8882 14.5733 49.9337 14.6158 49.9922C14.6583 50.0506 14.6838 50.1197 14.6895 50.1917V50.1617ZM7.94542 53.0218C7.94542 53.0218 8.12602 53.7745 8.36688 54.9186C8.36688 55.4606 8.60778 56.123 8.69811 56.8455C8.78843 57.5681 8.90882 58.3208 9.02925 59.0735C9.24 60.6089 9.3304 62.0842 9.39061 63.2885C9.45083 64.4928 9.39061 65.2154 9.39061 65.2154C9.39079 65.2655 9.38048 65.315 9.36048 65.361C9.34047 65.4069 9.3111 65.4482 9.27429 65.4822C9.23749 65.5161 9.19404 65.542 9.14667 65.5583C9.0993 65.5746 9.04911 65.5809 8.9992 65.5767C8.92233 65.5727 8.84873 65.5442 8.78916 65.4955C8.72959 65.4467 8.68711 65.3803 8.66797 65.3057C8.66797 65.3057 8.45727 64.5531 8.24651 63.4391C8.03576 62.3251 7.73465 60.7595 7.55401 59.2541C7.55401 58.4713 7.40345 57.7186 7.34323 56.996C7.28302 56.2735 7.34323 55.6111 7.34323 55.0391C7.34323 53.895 7.34323 53.1122 7.34323 53.1122C7.34306 53.0621 7.35336 53.0125 7.37337 52.9666C7.39338 52.9207 7.42266 52.8794 7.45946 52.8454C7.49627 52.8114 7.53981 52.7855 7.58718 52.7693C7.63455 52.753 7.68473 52.7467 7.73465 52.7509C7.79023 52.7819 7.83808 52.8251 7.87458 52.8772C7.91108 52.9294 7.9353 52.9891 7.94542 53.052V53.0218Z" fill="#F18380"/>
<path d="M107.978 67.2694H137.722V102.251H107.978V67.2694Z" fill="#FBBEAA"/>
<path d="M137.697 67.2694H108.051V86.786C109.346 86.9468 110.65 87.0293 111.954 87.033C122.182 87.033 133.62 84.2414 137.795 74.4831L137.697 67.2694Z" fill="#F18380"/>
<path d="M92.6101 41.3052C92.8324 51.4094 92.6101 59.3889 94.4135 67.0968C96.2169 74.8046 101.825 81.1042 114.177 81.1042C126.529 81.1042 140.611 77.0774 141.599 61.6371C143.625 59.4383 146.911 51.607 147.034 42.8369C147.158 34.0668 146.491 15.5137 126.48 12.6727C106.469 9.83165 92.0419 17.1689 92.6101 41.3052Z" fill="#FBBEAA"/>
<path d="M103.038 49.2598C103.038 50.6186 102.223 51.7303 101.21 51.7303C100.197 51.7303 99.3818 50.6186 99.3818 49.2598C99.3818 47.9011 100.197 46.7894 101.21 46.7894C102.223 46.7894 103.038 47.8023 103.038 49.2598Z" fill="#403D4F"/>
<path d="M125.27 49.2598C125.27 50.6186 124.454 51.7303 123.441 51.7303C122.428 51.7303 121.613 50.6186 121.613 49.2598C121.613 47.9011 122.453 46.7894 123.441 46.7894C124.43 46.7894 125.27 47.8023 125.27 49.2598Z" fill="#403D4F"/>
<path d="M120.702 41.5026C120.899 41.725 122.184 41.5026 123.172 41.5026C124.16 41.5026 126.062 41.5026 126.062 41.2803C126.062 41.0579 125.124 39.5263 122.653 39.798C120.973 39.9956 120.479 41.1073 120.702 41.5026Z" fill="#403D4F"/>
<path d="M103.408 41.5026C103.26 41.725 102.148 41.5026 101.284 41.5026C100.419 41.5026 98.8132 41.5026 98.8132 41.2803C98.8132 41.0579 99.6037 39.5263 101.704 39.798C103.408 39.9956 103.729 41.1073 103.408 41.5026Z" fill="#403D4F"/>
<path d="M110.818 59.4874C109.089 59.4874 107.706 58.351 107.656 57.5357L108.224 50.569C108.243 50.3964 108.328 50.2379 108.462 50.1272C108.596 50.0164 108.768 49.9623 108.941 49.9761C109.025 49.9824 109.108 50.0053 109.183 50.0434C109.259 50.0816 109.326 50.1344 109.381 50.1987C109.436 50.263 109.478 50.3375 109.504 50.418C109.53 50.4986 109.54 50.5835 109.534 50.6679L108.99 57.3875C109.24 57.6583 109.547 57.8698 109.889 58.0065C110.231 58.1433 110.599 58.2019 110.966 58.178C111.053 58.1713 111.14 58.1821 111.222 58.2099C111.304 58.2376 111.379 58.2816 111.444 58.3393C111.509 58.397 111.561 58.4672 111.598 58.5456C111.635 58.624 111.655 58.7091 111.658 58.7957C111.662 58.8833 111.648 58.9707 111.617 59.0529C111.587 59.135 111.54 59.2104 111.48 59.2747C111.421 59.3389 111.349 59.3908 111.269 59.4273C111.19 59.4638 111.104 59.4842 111.016 59.4874H110.818Z" fill="#F18380"/>
<path d="M112.228 64.4278C110.153 64.5513 106.67 65.7124 106.645 66.6265C106.677 68.3237 107.378 69.9396 108.594 71.1236C109.81 72.3076 111.445 72.9642 113.142 72.9509C120.751 72.9509 120.726 67.0712 120.405 65.7865C120.084 64.5019 116.082 64.1807 112.228 64.4278Z" fill="#73102A"/>
<path d="M120.428 67.8373C118.37 67.092 116.125 67.0384 114.034 67.685C111.943 68.3315 110.119 69.6427 108.841 71.4195C110.022 72.4668 111.563 73.0158 113.14 72.9512C118.525 72.9512 120.082 70.0361 120.428 67.8373Z" fill="#D65155"/>
<path d="M120.106 65.3423C119.044 64.4283 115.56 64.2059 112.225 64.4283C110.175 64.5518 106.716 65.6882 106.642 66.627C111.168 67.2686 115.783 66.8284 120.106 65.3423Z" fill="white"/>
<path d="M129.15 32.3617C129.15 38.439 131.62 41.0824 133.473 42.2435C135.326 43.4047 136.684 44.5658 136.684 46.6657V54.077C136.684 54.917 137.179 55.5593 137.821 55.3369C138.463 55.1146 140.86 53.9041 140.86 52.6936L148.271 47.4562C150.199 42.8901 150.914 37.9032 150.346 32.9793C150.126 30.2185 149.312 27.5378 147.96 25.1204C146.609 22.7029 144.751 20.6057 142.515 18.9719C142.515 13.7098 137.574 4.34679 127.173 0.641113C126.919 2.54313 126.919 4.47055 127.173 6.37256C122.455 2.09868 106.57 0.789342 100.863 2.7657C101.7 4.63756 102.911 6.31883 104.42 7.70661C96.6252 9.50682 89.6889 13.9391 84.7803 20.2565C86.344 22.2957 88.3228 23.9798 90.5858 25.1974C87.9897 28.7686 86.4489 32.9972 86.139 37.4015C90.8292 36.9672 95.4269 35.8261 99.7759 34.0169C99.533 36.1881 99.6583 38.3847 100.146 40.5142C105.087 40.2178 114.426 35.1781 117.069 31.1265C116.655 34.4264 116.84 37.7737 117.613 41.0083C122.205 39.2875 126.209 36.287 129.15 32.3617Z" fill="#403D4F"/>
<path d="M141.083 53.9536C141.083 51.1373 141.651 46.9869 145.629 46.8881C149.606 46.7893 150.15 49.8032 150.026 54.5465C149.903 59.2898 145.085 63.3166 140.861 61.6861L141.083 53.9536Z" fill="#FBBEAA"/>
<path d="M146.938 57.3628C146.767 57.3269 146.617 57.2281 146.516 57.0862C146.415 56.9442 146.372 56.7695 146.394 56.5969C146.394 56.4606 146.357 56.3269 146.287 56.2097C146.218 56.0924 146.118 55.9958 145.999 55.9299C145.742 55.762 145.441 55.6725 145.134 55.6725C144.827 55.6725 144.527 55.762 144.27 55.9299C144.164 55.9906 144.045 56.0226 143.924 56.0226C143.802 56.0226 143.683 55.9906 143.578 55.9299C143.471 55.8687 143.383 55.7779 143.326 55.6684C143.269 55.5588 143.245 55.4352 143.257 55.3123C143.627 51.3349 146.147 50.5937 146.246 50.569C146.33 50.543 146.419 50.5346 146.507 50.5445C146.594 50.5543 146.679 50.5821 146.756 50.6261C146.832 50.6702 146.899 50.7295 146.951 50.8005C147.004 50.8714 147.041 50.9524 147.061 51.0384C147.107 51.2022 147.086 51.3774 147.002 51.5256C146.919 51.6738 146.78 51.7829 146.616 51.8289C146.125 52.056 145.698 52.3999 145.37 52.8306C145.043 53.2612 144.826 53.7656 144.739 54.2994C145.416 54.1891 146.11 54.3296 146.691 54.6947C147.033 54.8882 147.311 55.1797 147.487 55.5318C147.663 55.884 147.73 56.2806 147.679 56.671C147.687 56.7684 147.674 56.8665 147.639 56.9579C147.604 57.0492 147.549 57.1313 147.477 57.1981C147.406 57.2648 147.32 57.3143 147.226 57.3428C147.133 57.3714 147.034 57.3782 146.938 57.3628Z" fill="#F18380"/>
<path d="M169.006 103.469C175.051 111.242 204.179 192.935 204.179 192.935C171.792 182.571 187.889 178.598 170.275 181.562C170.275 181.562 142.755 123.159 141.98 118.894C141.17 115.532 141.533 111.994 143.009 108.866C144.485 105.738 146.985 103.208 150.094 101.695C158.763 97.2638 162.96 95.6956 169.006 103.469Z" fill="#003399"/>
<path d="M101.179 93.5063L35.5607 137.762C35.8368 140.026 30.5192 93.5063 30.5192 93.5063L6.23161 95.7733C6.23161 95.7733 7.65051 143.136 11.2247 168.149C12.6432 178.076 20.9057 181.84 30.7029 179.703C35.54 178.647 40.0938 176.662 44.1462 173.818C61.5594 161.596 110.412 127.17 114.406 122.839C121.297 115.367 121.297 109.77 117.337 103.618C113.376 97.4666 104.901 92.5823 101.179 93.5063Z" fill="#002B80"/>
<path d="M178.617 326.06C179.031 329.225 178.813 332.441 177.976 335.522C177.14 338.602 175.7 341.486 173.742 344.007C171.783 346.528 169.344 348.635 166.566 350.208C163.787 351.78 160.725 352.785 157.556 353.166C154.386 353.547 151.173 353.296 148.101 352.427C145.029 351.558 142.16 350.089 139.66 348.104C137.16 346.119 135.078 343.658 133.535 340.864C131.992 338.069 131.018 334.996 130.67 331.823C130.67 331.823 118.1 243.532 115.119 225.695C112.138 207.858 115.293 192.927 135.266 188.679C155.985 184.282 168.928 199.461 170.493 214.665C172.058 229.869 178.617 326.06 178.617 326.06Z" fill="#93929C"/>
<path d="M138.993 327.774C139.072 334.178 136.604 340.351 132.131 344.936C127.658 349.52 121.548 352.14 115.144 352.219C108.739 352.298 102.566 349.83 97.9818 345.357C93.3974 340.885 90.7775 334.774 90.6984 328.37C90.6984 328.37 87.6428 239.234 86.5994 221.173C85.556 203.113 90.2761 188.629 110.597 186.543C131.664 184.381 142.893 200.852 142.893 216.155C142.893 231.458 138.993 327.774 138.993 327.774Z" fill="#93929C"/>
<path d="M100.338 432.809C100.338 432.809 101.53 483.463 101.828 491.04C102.126 498.617 106.921 500.679 114.647 501.35C122.373 502.021 125.628 495.885 126.721 491.015C127.814 486.146 134.422 436.486 134.422 436.486L100.338 432.809Z" fill="#FBBEAA"/>
<path d="M101.207 468.135L129.702 471.191C131.913 455.515 134.422 436.411 134.422 436.411L100.338 432.734C100.338 432.734 100.785 451.714 101.207 468.135Z" fill="#F18380"/>
<path d="M138.993 327.774C138.954 324.603 138.29 321.471 137.041 318.556C135.791 315.641 133.979 313.001 131.709 310.787C129.439 308.572 126.755 306.826 123.811 305.649C120.866 304.471 117.718 303.886 114.547 303.925C111.376 303.964 108.244 304.627 105.329 305.877C102.415 307.127 99.7747 308.938 97.5601 311.208C95.3455 313.478 93.5997 316.162 92.4224 319.107C91.245 322.051 90.6592 325.199 90.6983 328.37L95.6669 469.558L134.645 473.756L138.993 327.774Z" fill="#93929C"/>
<path d="M151.34 434.747C151.34 434.747 157.948 484.979 159.041 492.456C160.134 499.934 165.127 501.524 172.903 501.35C180.679 501.176 183.238 494.742 183.809 489.798C184.38 484.855 185.623 434.747 185.623 434.747H151.34Z" fill="#FBBEAA"/>
<path d="M156.11 469.775H184.779C185.276 453.975 185.748 434.747 185.748 434.747H151.34C151.34 434.747 153.825 453.478 156.11 469.775Z" fill="#F18380"/>
<path d="M178.617 326.06C177.792 319.753 174.512 314.026 169.49 310.124C164.467 306.221 158.107 304.458 151.792 305.217C145.477 305.976 139.717 309.196 135.762 314.178C131.807 319.16 129.978 325.5 130.671 331.823L152.283 474.527H191.485L178.617 326.06Z" fill="#93929C"/>
<path d="M131.689 331.823L153.973 473.285" stroke="#676767" stroke-width="0.75" stroke-miterlimit="10" stroke-linecap="round"/>
<path d="M131.665 331.823C131.665 331.823 119.094 243.532 116.113 225.695" stroke="#676767" stroke-width="0.75" stroke-miterlimit="10" stroke-linecap="round"/>
<path d="M170.295 475.662C167.477 475.46 164.683 476.3 162.444 478.022C160.204 479.744 158.675 482.228 158.147 485.003L145.179 498.294V506.567H186.741C186.741 506.567 184.654 491.661 184.058 488.307C183.461 484.954 181.449 475.662 170.295 475.662Z" fill="#FBBEAA"/>
<path d="M158.172 484.904C157.7 484.258 157.029 483.761 156.557 484.059C156.085 484.357 143.539 494.295 142.943 494.791C142.576 495.136 142.298 495.565 142.134 496.041C141.969 496.517 141.923 497.026 141.999 497.524V508.182H187.66C187.66 508.182 185.872 492.431 185.747 491.562C185.623 490.692 184.754 489.55 184.257 489.574C181.123 490.535 177.87 491.053 174.593 491.115C170.237 491.346 165.892 490.492 161.948 488.63C160.485 487.613 159.208 486.353 158.172 484.904Z" fill="#2E70AC"/>
<path d="M149.502 499.238C151.713 497.599 159.662 491.388 162.644 489.053L161.948 488.705C161.854 488.665 161.77 488.605 161.7 488.531C158.52 491.015 151.042 496.878 148.906 498.468C147.099 499.852 145.862 501.849 145.427 504.083L146.396 504.232C146.806 502.251 147.907 500.481 149.502 499.238Z" fill="#1E2173"/>
<path d="M186.418 497.325C183.2 497.358 180.086 498.469 177.574 500.48C175.304 502.492 173.766 505.201 173.202 508.182H174.543C175.092 505.599 176.45 503.258 178.419 501.499C180.731 499.647 183.605 498.64 186.567 498.642L186.418 497.325Z" fill="#1E2173"/>
<path d="M134.621 508.157H187.66C188.031 508.157 188.331 508.458 188.331 508.828V513.97C188.331 514.341 188.031 514.641 187.66 514.641H134.621C134.251 514.641 133.95 514.341 133.95 513.97V508.828C133.95 508.458 134.251 508.157 134.621 508.157Z" fill="white"/>
<path d="M143.068 494.692C142.596 494.493 140.285 495.164 137.279 498.12C136.028 499.414 135.127 501.005 134.662 502.744C134.197 504.483 134.183 506.312 134.621 508.057H149.701C148.856 498.518 143.54 494.891 143.068 494.692Z" fill="white"/>
<path d="M148.856 494.841C149.042 495.069 149.131 495.362 149.103 495.655C149.075 495.948 148.933 496.218 148.707 496.407C148.596 496.498 148.468 496.567 148.331 496.609C148.193 496.651 148.049 496.665 147.906 496.651C147.763 496.638 147.624 496.596 147.497 496.528C147.37 496.46 147.258 496.368 147.167 496.257L144.682 493.251C144.496 493.024 144.407 492.731 144.435 492.438C144.463 492.145 144.605 491.875 144.831 491.686C144.941 491.592 145.068 491.52 145.206 491.476C145.344 491.432 145.489 491.417 145.633 491.431C145.777 491.445 145.917 491.488 146.044 491.557C146.171 491.627 146.282 491.722 146.372 491.835L148.856 494.841Z" fill="white"/>
<path d="M151.812 492.58C151.998 492.808 152.087 493.101 152.059 493.394C152.031 493.687 151.889 493.957 151.663 494.146C151.553 494.24 151.426 494.312 151.288 494.356C151.15 494.4 151.005 494.415 150.861 494.401C150.717 494.387 150.577 494.344 150.45 494.275C150.323 494.205 150.212 494.11 150.123 493.996L147.638 490.99C147.458 490.76 147.373 490.469 147.401 490.178C147.429 489.887 147.567 489.618 147.787 489.425C147.897 489.331 148.024 489.259 148.162 489.215C148.3 489.171 148.445 489.156 148.589 489.17C148.733 489.184 148.873 489.227 149 489.296C149.127 489.366 149.238 489.46 149.328 489.574L151.812 492.58Z" fill="white"/>
<path d="M154.669 490.345C154.857 490.566 154.949 490.852 154.926 491.141C154.902 491.43 154.765 491.697 154.545 491.885C154.317 492.071 154.025 492.16 153.732 492.132C153.439 492.104 153.168 491.962 152.98 491.736L150.495 488.73C150.391 488.628 150.308 488.507 150.251 488.372C150.195 488.238 150.165 488.094 150.165 487.948C150.165 487.802 150.195 487.657 150.251 487.523C150.308 487.389 150.391 487.267 150.495 487.165C150.726 486.985 151.016 486.9 151.308 486.928C151.599 486.955 151.868 487.094 152.06 487.314L154.669 490.345Z" fill="white"/>
<path d="M157.551 488.084C157.642 488.195 157.711 488.323 157.753 488.46C157.795 488.598 157.81 488.742 157.796 488.885C157.782 489.028 157.74 489.167 157.672 489.294C157.605 489.421 157.513 489.533 157.402 489.624C157.193 489.829 156.912 489.944 156.619 489.944C156.327 489.944 156.046 489.829 155.837 489.624L153.352 486.594C153.166 486.366 153.077 486.073 153.105 485.78C153.133 485.487 153.276 485.217 153.501 485.028C153.612 484.937 153.74 484.868 153.878 484.826C154.015 484.784 154.159 484.77 154.302 484.784C154.446 484.797 154.584 484.839 154.711 484.907C154.838 484.975 154.95 485.066 155.042 485.178L157.551 488.084Z" fill="white"/>
<path d="M111.914 475.662C109.097 475.46 106.303 476.3 104.063 478.022C101.824 479.744 100.295 482.228 99.7663 485.003L86.8232 498.294V506.567H128.36C128.36 506.567 126.298 491.661 125.677 488.307C125.056 484.954 123.069 475.662 111.914 475.662Z" fill="#FBBEAA"/>
<path d="M99.7914 484.904C99.3194 484.258 98.6735 483.761 98.1767 484.059C97.6798 484.357 85.1591 494.295 84.5877 494.791C84.0163 495.288 83.6188 495.909 83.6188 497.524V508.182H129.28C129.28 508.182 127.491 492.431 127.367 491.562C127.243 490.692 126.373 489.55 125.876 489.574C122.742 490.535 119.49 491.053 116.212 491.115C111.865 491.35 107.527 490.496 103.592 488.63C102.118 487.619 100.832 486.358 99.7914 484.904Z" fill="#2E70AC"/>
<path d="M91.1209 499.238C93.3319 497.599 101.282 491.388 104.263 489.053L103.592 488.705C103.491 488.665 103.398 488.606 103.319 488.531C100.139 491.015 92.6611 496.878 90.5246 498.468C88.7186 499.852 87.4815 501.849 87.0467 504.083L88.0156 504.232C88.4374 502.256 89.5357 500.49 91.1209 499.238Z" fill="#1E2173"/>
<path d="M128.037 497.325C124.82 497.358 121.706 498.469 119.193 500.48C116.923 502.492 115.385 505.201 114.821 508.182H116.163C116.718 505.596 118.085 503.254 120.063 501.499C122.363 499.644 125.231 498.635 128.187 498.642L128.037 497.325Z" fill="#1E2173"/>
<path d="M76.2402 508.157H129.279C129.65 508.157 129.95 508.458 129.95 508.828V513.97C129.95 514.341 129.65 514.641 129.279 514.641H76.2402C75.8697 514.641 75.5694 514.341 75.5694 513.97V508.828C75.5694 508.458 75.8697 508.157 76.2402 508.157Z" fill="white"/>
<path d="M84.6868 494.692C84.2148 494.493 81.9044 495.164 78.8984 498.12C77.6469 499.414 76.7459 501.005 76.2808 502.744C75.8157 504.483 75.8017 506.312 76.2402 508.057H91.3198C90.4752 498.518 85.1589 494.891 84.6868 494.692Z" fill="white"/>
<path d="M90.5745 494.841C90.7607 495.069 90.8495 495.362 90.8216 495.655C90.7937 495.948 90.6514 496.218 90.4255 496.407C90.3146 496.498 90.1868 496.567 90.0493 496.609C89.9118 496.651 89.7675 496.665 89.6244 496.651C89.4814 496.638 89.3424 496.596 89.2156 496.528C89.0887 496.46 88.9764 496.368 88.8852 496.257L86.4009 493.251C86.2207 493.021 86.1358 492.73 86.1635 492.439C86.1913 492.148 86.3296 491.879 86.55 491.686C86.6594 491.592 86.7869 491.52 86.9248 491.476C87.0627 491.432 87.208 491.417 87.3521 491.431C87.4961 491.445 87.6358 491.488 87.7627 491.557C87.8896 491.627 88.0011 491.722 88.0903 491.835L90.5745 494.841Z" fill="white"/>
<path d="M93.4315 492.58C93.6177 492.808 93.7065 493.101 93.6786 493.394C93.6506 493.687 93.5083 493.957 93.2824 494.145C93.173 494.24 93.0455 494.312 92.9076 494.356C92.7697 494.4 92.6244 494.415 92.4803 494.401C92.3363 494.387 92.1966 494.344 92.0697 494.275C91.9428 494.205 91.8314 494.11 91.7422 493.996L89.2579 490.99C89.0778 490.76 88.9928 490.469 89.0205 490.178C89.0483 489.887 89.1866 489.618 89.407 489.425C89.6349 489.239 89.9271 489.15 90.2201 489.178C90.5132 489.206 90.7833 489.349 90.9721 489.574L93.4315 492.58Z" fill="white"/>
<path d="M96.2887 490.345C96.3924 490.444 96.4749 490.564 96.5313 490.696C96.5876 490.829 96.6167 490.971 96.6167 491.115C96.6167 491.259 96.5876 491.401 96.5313 491.533C96.4749 491.666 96.3924 491.785 96.2887 491.885C96.0608 492.071 95.7686 492.16 95.4755 492.132C95.1825 492.104 94.9123 491.962 94.7236 491.736L92.2393 488.73C92.0531 488.502 91.9644 488.21 91.9923 487.917C92.0202 487.624 92.1625 487.353 92.3884 487.165C92.4993 487.073 92.6271 487.004 92.7646 486.962C92.902 486.92 93.0464 486.906 93.1894 486.92C93.3325 486.934 93.4715 486.976 93.5983 487.043C93.7252 487.111 93.8375 487.203 93.9287 487.314L96.2887 490.345Z" fill="white"/>
<path d="M99.1699 488.084C99.2614 488.195 99.3301 488.323 99.3722 488.46C99.4142 488.598 99.4287 488.742 99.4148 488.885C99.401 489.028 99.359 489.167 99.2914 489.294C99.2238 489.421 99.1319 489.533 99.0208 489.624C98.8119 489.829 98.5309 489.944 98.2383 489.944C97.9457 489.944 97.6647 489.829 97.4557 489.624L94.9714 486.594C94.7853 486.366 94.6965 486.073 94.7244 485.78C94.7523 485.487 94.8946 485.217 95.1205 485.028C95.2314 484.937 95.3592 484.868 95.4966 484.826C95.6341 484.784 95.7785 484.77 95.9216 484.784C96.0646 484.797 96.2036 484.839 96.3304 484.907C96.4573 484.975 96.5695 485.066 96.6607 485.178L99.1699 488.084Z" fill="white"/>
<path d="M87.3299 201.852C87.3299 201.852 87.3299 227.614 87.3299 229.03C87.3299 230.446 99.7513 242.594 116.247 242.594C141.611 242.594 171.969 233.328 171.522 227.291C171.224 223.316 170.851 201.852 170.851 201.852H87.3299Z" fill="#93929C"/>
<path d="M108.118 89.4388C108.118 89.4388 90.9018 99.3759 88.2436 101.115C85.5854 102.854 82.505 105.537 83.0764 112.791C83.6477 120.045 85.9333 215.342 85.9333 215.342C91.3092 218.243 97.0257 220.463 102.951 221.95C105.807 222.273 108.068 222.348 110.006 220.46C111.944 218.571 117.657 211.715 117.657 211.715C117.657 211.715 127.073 218.099 131.321 220.46C132.333 221.166 133.477 221.662 134.685 221.918C135.893 222.174 137.14 222.185 138.351 221.95C144.537 220.683 168.883 213.578 169.653 213.131C170.423 212.684 171.144 212.212 171.069 211.367C170.995 210.522 170.548 113.611 170.225 109.238C170.161 106.897 169.424 104.623 168.102 102.689C166.781 100.755 164.93 99.2428 162.772 98.3325C157.58 96.0221 138.078 88.0973 138.078 88.0973L117.732 102.233L108.118 89.4388Z" fill="#003399"/>
<path d="M108.118 86.6569L117.683 102.233C117.683 102.233 108.292 109.686 107.746 110.233C107.199 110.779 106.106 110.73 105.882 109.86C105.659 108.991 102.951 92.4701 102.901 92.4701C102.853 92.3824 102.828 92.2842 102.828 92.1844C102.828 92.0845 102.853 91.9863 102.901 91.8987C103.15 91.7248 108.118 86.6569 108.118 86.6569Z" fill="#F5F5F5"/>
<g filter="url(#filter0_d_203_566)">
<rect width="48.0466" height="68.4665" rx="1" transform="matrix(-0.993463 -0.114154 -0.114154 0.993463 143.985 136.752)" fill="#EFEFEF"/>
</g>
<path d="M138.178 83.7747L117.658 102.233C117.658 102.233 128.464 109.686 128.936 110.232C129.074 110.349 129.236 110.434 129.411 110.479C129.586 110.524 129.769 110.529 129.946 110.493C130.123 110.457 130.29 110.381 130.433 110.272C130.577 110.162 130.694 110.021 130.775 109.86C131.57 108.593 144.289 90.7306 144.339 90.5816C144.392 90.4956 144.419 90.3967 144.419 90.2959C144.419 90.195 144.392 90.0962 144.339 90.0102C144.066 89.8611 138.178 83.7747 138.178 83.7747Z" fill="#F5F5F5"/>
<path d="M123.749 164.496C120.344 163.058 117.266 160.926 114.709 158.236C113.126 156.575 111.331 155.134 109.372 153.95C108.223 153.232 107.232 152.284 106.46 151.166C105.44 149.432 104.596 147.601 103.94 145.7C103.698 144.064 103.141 142.487 102.302 141.058C101.504 140.327 98.687 140.718 97.2249 143.56C96.7208 144.825 96.4925 146.188 96.5551 147.557C96.6177 148.925 96.9698 150.268 97.5879 151.495C98.3154 152.967 98.8854 154.511 99.2879 156.1L99.0223 156.259C96.7945 155.077 94.4138 154.219 91.9526 153.712C91.0599 153.512 90.1301 153.62 89.3128 154.018C88.4956 154.416 87.8386 155.081 87.4476 155.906C87.0567 156.73 86.9546 157.667 87.1578 158.564C87.3609 159.461 87.8576 160.267 88.5677 160.852C84.7271 161.293 85.1631 167.217 88.4602 168C87.7542 168.296 87.1582 168.805 86.7529 169.457C86.3475 170.109 86.1523 170.873 86.1938 171.645C86.2352 172.418 86.5112 173.161 86.9844 173.776C87.4577 174.391 88.1053 174.847 88.8399 175.082C86.498 177.241 88.2098 180.8 92.4621 180.815C95.9171 181.167 105.157 182.613 108.372 183.305C111.587 183.997 118.049 182.466 120.124 183.109C123.214 184.241 126.803 184.259 129.54 176.129C132.277 167.999 126.929 165.547 123.749 164.496Z" fill="#FBBEAA"/>
<path d="M117.666 186.308L179.903 211.365C187.857 215.364 200.779 213.313 204.674 204.01C205.388 202.276 205.741 200.414 205.713 198.539C205.686 196.664 205.277 194.814 204.513 193.101C203.749 191.389 202.645 189.849 201.268 188.576C199.891 187.303 198.27 186.322 196.502 185.695L122.947 159.091L117.666 186.308Z" fill="#003399"/>
<defs>
<filter id="filter0_d_203_566" x="88.5439" y="131.375" width="57.3335" height="73.2886" filterUnits="userSpaceOnUse" color-interpolation-filters="sRGB">
<feFlood flood-opacity="0" result="BackgroundImageFix"/>
<feColorMatrix in="SourceAlpha" type="matrix" values="0 0 0 0 0 0 0 0 0 0 0 0 0 0 0 0 0 0 127 0" result="hardAlpha"/>
<feOffset dx="2"/>
<feComposite in2="hardAlpha" operator="out"/>
<feColorMatrix type="matrix" values="0 0 0 0 0.603922 0 0 0 0 0.6 0 0 0 0 0.631373 0 0 0 1 0"/>
<feBlend mode="normal" in2="BackgroundImageFix" result="effect1_dropShadow_203_566"/>
<feBlend mode="normal" in="SourceGraphic" in2="effect1_dropShadow_203_566" result="shape"/>
</filter>
</defs>
</svg>
