<svg width="223" height="515" viewBox="0 0 223 515" fill="none" xmlns="http://www.w3.org/2000/svg">
<path d="M118.354 60.017H148.514V95.488H118.354V60.017Z" fill="#FBBEAA"/>
<path d="M148.439 60.017H118.379V79.8066C119.692 79.9697 121.014 80.0534 122.337 80.0571C132.708 80.0571 144.306 77.2264 148.54 67.3317L148.439 60.017Z" fill="#F18380"/>
<path d="M102.773 33.6898C103.023 43.9353 102.773 52.0265 104.627 59.8421C106.48 67.6578 112.142 74.0455 124.667 74.0455C137.192 74.0455 151.47 69.9624 152.472 54.3061C154.526 52.0766 157.858 44.1357 157.983 35.2429C158.109 26.3502 157.407 7.53753 137.142 4.65676C116.876 1.776 102.222 9.21588 102.773 33.6898Z" fill="#FBBEAA"/>
<path d="M113.369 41.756C113.369 43.1338 112.543 44.2611 111.515 44.2611C110.488 44.2611 109.662 43.1338 109.662 41.756C109.662 40.3783 110.488 39.251 111.515 39.251C112.543 39.251 113.369 40.2781 113.369 41.756Z" fill="#403D4F"/>
<path d="M135.914 41.756C135.914 43.1338 135.087 44.2611 134.06 44.2611C133.033 44.2611 132.207 43.1338 132.207 41.756C132.207 40.3783 133.033 39.251 134.06 39.251C135.087 39.251 135.914 40.2781 135.914 41.756Z" fill="#403D4F"/>
<path d="M131.38 36.5452C131.555 36.7707 132.883 36.5452 133.885 36.5452C134.887 36.5452 136.816 36.5452 136.816 36.3198C136.816 36.0943 135.864 34.5412 133.359 34.8168C131.555 35.0172 130.904 36.1444 131.38 36.5452Z" fill="#403D4F"/>
<path d="M113.795 36.5452C113.645 36.7706 112.518 36.5452 111.641 36.5452C110.764 36.5452 109.136 36.5452 109.136 36.3197C109.361 35.7519 109.785 35.2859 110.33 35.0091C110.874 34.7323 111.501 34.6639 112.092 34.8167C113.645 35.0171 114.071 36.1444 113.795 36.5452Z" fill="#403D4F"/>
<path d="M121.185 52.1266C119.432 52.1266 118.029 50.9743 117.979 50.1477L118.555 43.0835C118.574 42.9085 118.661 42.7477 118.796 42.6355C118.932 42.5232 119.106 42.4683 119.282 42.4823C119.367 42.4887 119.451 42.5119 119.527 42.5506C119.604 42.5893 119.672 42.6428 119.728 42.708C119.784 42.7732 119.826 42.8488 119.853 42.9304C119.879 43.0121 119.89 43.0981 119.883 43.1837L119.332 49.9974C119.585 50.2719 119.896 50.4864 120.243 50.6251C120.59 50.7638 120.963 50.8232 121.336 50.799C121.423 50.7921 121.511 50.8031 121.595 50.8312C121.678 50.8593 121.754 50.904 121.82 50.9625C121.886 51.021 121.939 51.0921 121.976 51.1716C122.013 51.2512 122.034 51.3374 122.037 51.4252C122.038 51.6029 121.971 51.7741 121.85 51.9043C121.729 52.0345 121.563 52.1139 121.386 52.1266H121.185Z" fill="#F18380"/>
<path d="M147.042 38.3487C147.042 48.4566 152.052 44.6991 152.052 44.6991C153.305 40.9416 155.487 42.5574 158.355 42.5574C161.223 42.5574 160.855 40.4683 163.723 33.5796C166.018 28.0685 163.373 19.3118 161.652 17.1922C164.504 13.4547 160.636 11.2282 160.77 11.7948C161.652 15.5296 158.594 11.7759 157.062 10.3034C140.706 -5.42416 99.4874 2.4772 99.4874 2.4772L103.769 7.89471L93.2249 4.98226C93.2249 4.98226 93.9129 10.6873 95.7299 13.7498C97.2431 16.3003 100.9 19.3118 100.9 19.3118L89.4269 20.3716C89.4269 20.3716 96.8846 28.3202 107.211 29.38C118.84 30.5736 131.305 25.1408 131.305 25.1408L126.715 30.4398C126.715 30.4398 138.315 28.074 142.073 30.0323C144.476 31.2848 147.042 33.8301 147.042 38.3487Z" fill="#7D4A40"/>
<path d="M151.921 46.5156C152.047 43.6599 152.498 39.4515 156.556 39.3513C160.614 39.2511 161.14 42.3072 161.015 47.1168C160.889 51.9264 156.005 56.0096 151.721 54.3563L151.921 46.5156Z" fill="#FBBEAA"/>
<path d="M157.884 49.9721C157.709 49.9415 157.552 49.8427 157.449 49.6972C157.346 49.5518 157.304 49.3715 157.333 49.1956C157.333 49.0542 157.293 48.9157 157.218 48.7961C157.142 48.6764 157.035 48.5805 156.907 48.5192C156.652 48.348 156.351 48.2565 156.043 48.2565C155.735 48.2565 155.435 48.348 155.179 48.5192C155.068 48.5806 154.943 48.6128 154.816 48.6128C154.689 48.6128 154.564 48.5806 154.452 48.5192C154.35 48.4518 154.268 48.3579 154.216 48.2476C154.163 48.1373 154.141 48.0148 154.152 47.8929C154.502 43.8599 157.083 43.1084 157.183 43.0833C157.268 43.0569 157.358 43.0485 157.447 43.0584C157.536 43.0684 157.622 43.0966 157.7 43.1413C157.777 43.1859 157.845 43.2461 157.898 43.318C157.951 43.3899 157.989 43.4721 158.01 43.5593C158.056 43.7254 158.034 43.903 157.95 44.0533C157.865 44.2035 157.725 44.3142 157.559 44.3609C157.058 44.5874 156.622 44.9351 156.29 45.3724C155.957 45.8098 155.739 46.3231 155.655 46.8659C156.341 46.7541 157.045 46.8966 157.634 47.2667C157.977 47.4679 158.254 47.7643 158.432 48.1201C158.61 48.4758 158.681 48.8755 158.636 49.2707C158.64 49.3683 158.623 49.4656 158.586 49.5561C158.549 49.6465 158.493 49.7278 158.422 49.7945C158.35 49.8611 158.265 49.9115 158.172 49.9422C158.08 49.9728 157.981 49.983 157.884 49.9721Z" fill="#F18380"/>
<path d="M122.913 61.1448C125.331 61.0515 127.653 60.1721 129.526 58.6398" stroke="#73102A" stroke-width="0.5" stroke-miterlimit="10" stroke-linecap="round"/>
<path d="M122.828 56.7114C126.336 55.5591 130.343 54.2064 131.721 55.8347C132.798 56.9369 131.346 62.1222 125.96 63.024C120.574 63.9258 118.645 60.2184 118.921 58.7906C119.096 57.9138 120.073 57.6383 122.828 56.7114Z" fill="#73102A"/>
<path d="M131.596 55.7599H131.721C132.798 56.8621 131.346 62.0475 125.96 62.9493C124.79 63.2209 123.573 63.2209 122.403 62.9493C123.31 61.147 124.605 59.5678 126.194 58.3248C127.783 57.0818 129.628 56.2059 131.596 55.7599Z" fill="#D65155"/>
<path d="M130.343 55.2083C128.924 56.7506 127.122 57.8898 125.12 58.5101C123.118 59.1305 120.988 59.2099 118.945 58.7404C119.145 57.8887 120.147 57.6132 122.828 56.7113C125.207 55.7114 127.762 55.2003 130.343 55.2083Z" fill="white"/>
<path d="M36.935 88.7819C36.8069 85.9834 37.5561 83.2147 39.0779 80.8626C41.4208 78.146 43.1761 77.4781 44.2333 74.05C45.0465 70.8678 46.3454 67.8299 48.0843 65.0436C49.3266 63.3355 51.1899 61.938 51.1899 60.6336C51.1899 59.3292 48.7054 56.8137 45.165 57.528C43.6485 58.0004 42.2551 58.8022 41.0847 59.876C39.9143 60.9498 38.9957 62.269 38.3946 63.7393C38.0554 62.8434 37.8565 61.9007 37.8047 60.9442L37.0282 39.4023C37.0164 38.9088 36.9059 38.4226 36.7031 37.9726C36.5003 37.5225 36.2093 37.1176 35.8474 36.7818C35.4856 36.446 35.0601 36.1861 34.5962 36.0174C34.1322 35.8487 33.6392 35.7748 33.1462 35.7998C32.3613 35.8333 31.6065 36.1119 30.9881 36.5966C30.6744 36.8425 25.4214 43.2131 20.2942 49.5277C15.3175 55.6568 10.4591 61.7331 10.3508 62.1045C11.3476 71.1568 13.2198 80.091 15.941 88.7819C15.9739 90.233 16.31 91.6612 16.9279 92.9746C17.5457 94.288 18.4315 95.4576 19.5283 96.4082C20.6252 97.3588 21.9089 98.0694 23.2967 98.4943C24.6846 98.9191 26.146 99.0489 27.5871 98.8753C28.8912 98.9188 30.1893 98.6814 31.3936 98.179C32.5978 97.6767 33.68 96.9212 34.5666 95.9639C35.4532 95.0066 36.1236 93.8698 36.5323 92.6306C36.9409 91.3914 37.0782 90.0789 36.935 88.7819Z" fill="#FBBEAA"/>
<path d="M29.7443 32.2456L13.4814 47.9505C9.56261 52.3448 7.70996 56.796 7.41708 60.9105C7.42425 60.918 7.41988 60.9222 7.42346 60.9259C7.00682 66.6811 9.63472 71.7638 13.8542 75.044C13.9338 75.1178 14.0294 75.1906 14.1178 75.2559C14.1436 75.274 14.1651 75.2963 14.1831 75.3148C16.4983 77.0327 19.2677 78.2188 22.2505 78.7108C23.2365 78.878 24.2541 78.9645 25.2888 78.9555C25.3754 78.958 25.4302 78.9624 25.4425 78.9577C25.4663 78.9563 25.5017 78.958 25.5529 78.9588C30.1956 78.8955 35.1429 77.1173 39.6448 73.0568L54.9473 58.3441L29.7443 32.2456Z" fill="#0099FF"/>
<path d="M7.41836 60.9299C6.76803 69.9461 13.5796 77.2959 22.2497 78.7106C23.7649 78.8332 24.8842 78.9291 25.2881 78.9553C25.3747 78.9578 25.4295 78.9622 25.4417 78.9575C25.4656 78.9561 25.5009 78.9578 25.5521 78.9586C26.4378 78.8998 33.255 78.265 42.4372 69.039C49.5028 61.9432 52.4764 59.3586 52.4764 59.3586L43.3243 55.6324C43.3243 55.6324 29.0528 70.9857 20.5782 72.2308C12.0986 73.488 7.88048 66.3316 7.41836 60.9299Z" fill="#0099FF"/>
<path d="M29.7426 32.2468L13.4797 47.9517C11.4022 50.2879 9.90484 52.6237 8.91921 54.9317C8.91486 54.9359 8.91486 54.9359 8.90615 54.9443C8.03758 56.9814 7.55524 58.9827 7.41534 60.9117L7.41943 60.9508C7.41712 60.9745 7.42197 61.0057 7.42095 61.0569C7.04426 66.7664 9.66678 71.7826 13.8481 75.0494C13.2854 74.5451 12.5699 73.5427 11.9521 72.2234C11.903 72.1202 11.8538 72.017 11.8082 71.9175C11.7626 71.818 11.725 71.718 11.6794 71.6185C11.6218 71.4804 11.5649 71.3344 11.516 71.1879C11.452 71.0345 11.3931 70.8689 11.3441 70.7224C11.2996 70.5717 11.2479 70.4136 11.2033 70.2629L11.2005 70.2512C11.1388 70.0741 11.1001 69.9033 11.0591 69.7563C11 69.5121 10.938 69.2562 10.8883 68.9956C10.8771 68.9491 10.875 68.9296 10.875 68.9296C10.3147 66.0838 10.6076 62.7011 13.0493 59.6615C16.4999 55.375 23.2629 49.1597 27.3822 45.5046C29.4213 43.6862 30.8187 42.5018 30.8187 42.5018C30.8187 42.5018 30.1695 39.9213 29.6619 38.1583C29.3982 37.2578 29.1779 36.5592 29.1001 36.5483C28.868 36.4997 29.6941 32.5016 29.7497 32.2542L29.7426 32.2468Z" fill="#0099FF"/>
<path d="M29.7445 32.2465L13.4816 47.9514C11.4041 50.2876 9.90676 52.6234 8.92113 54.9314C10.5914 52.034 14.2385 46.7397 20.3276 44.1746C23.022 43.0436 25.1877 43.8224 27.3762 45.5048C30.1443 47.6393 32.9536 51.2194 36.9372 54.2466C44.0776 59.6715 53.8422 59.405 54.1732 59.0854L54.5825 58.6902L52.7888 59.0374L46.9314 57.4681L42.8871 54.7004C42.8871 54.7004 34.2782 45.7856 33.9913 45.4886C33.7045 45.1915 29.648 38.159 29.648 38.159L29.7358 32.2549L29.7445 32.2465Z" fill="#0099FF"/>
<path d="M43.0782 55.8727L41.8475 57.1688C41.8475 57.1688 37.4423 55.1515 34.3182 52.0907C31.6016 49.4257 27.3801 45.516 27.3801 45.516L30.8166 42.5132L36.5781 49.0545L43.0782 55.8727Z" fill="#0099FF"/>
<path d="M52.4728 59.3636L52.052 59.7557C52.7466 59.6733 53.4973 59.5009 54.1722 59.0931L54.9429 58.3489L52.4728 59.3636Z" fill="#0099FF"/>
<path d="M52.4717 59.3636L52.0508 59.7557C52.0508 59.7557 50.5845 60.0236 46.409 58.9325C44.1808 58.3504 41.8371 57.1695 41.8371 57.1695L43.3116 55.6379C43.3116 55.6379 48.3049 58.0202 48.3653 58.1699C48.4381 58.3149 52.4717 59.3636 52.4717 59.3636Z" fill="#0099FF"/>
<path d="M36.8613 50.5952C29.9027 43.3894 26.718 35.1759 29.7479 32.2498C32.7779 29.3238 40.8753 32.7933 47.8339 39.9992C54.7925 47.205 57.9773 55.4185 54.9473 58.3445C51.9173 61.2706 43.82 57.8011 36.8613 50.5952Z" fill="#A3A9AA"/>
<path d="M30.7328 32.6965C29.3656 34.0168 29.6042 36.7211 31.0978 39.9931C31.7452 41.4129 32.6337 42.9516 33.729 44.5129C33.8407 44.6634 33.9516 44.8218 34.0704 44.9797C35.1732 46.5051 36.4671 48.054 37.93 49.5689C39.4575 51.1506 41.0379 52.552 42.58 53.7393C47.7025 57.6758 52.5503 59.2801 54.5446 57.3543C55.7028 56.2358 55.7018 54.0913 54.7491 51.4665C54.7491 51.4665 54.7492 51.4666 54.7463 51.4549C54.0633 49.5887 52.905 47.4568 51.345 45.2751C50.2122 43.6925 48.8669 42.0641 47.3394 40.4824C45.812 38.9007 44.2315 37.4993 42.6822 36.3045C37.5669 32.3755 32.7227 30.7749 30.7328 32.6965Z" fill="#475150"/>
<path d="M7.41883 61.061C7.04214 66.7705 9.66467 71.7866 13.846 75.0534C13.846 75.0534 12.6886 73.7242 11.95 72.2274C11.9008 72.1242 11.8517 72.0211 11.8061 71.9216C11.7605 71.8221 11.7228 71.7221 11.6773 71.6226C11.6125 71.4771 11.5592 71.3348 11.5139 71.192C11.4498 71.0385 11.3909 70.873 11.342 70.7265C11.2911 70.5604 11.2386 70.4102 11.2012 70.2669L11.1984 70.2553C11.1366 70.0781 11.098 69.9074 11.057 69.7604C10.9517 69.3813 10.9028 69.1128 10.8862 68.9997C10.8749 68.9532 10.8729 68.9336 10.8729 68.9336C10.8729 68.9336 9.47861 67.4027 8.62322 65.6455C7.46768 63.2813 7.45108 61.7044 7.41883 61.061Z" fill="#0099FF"/>
<path d="M20.7028 71.5316C19.7784 72.8835 19.4879 74.0467 20.2447 74.9088C22.2714 77.2427 29.8546 76.0331 34.9387 71.5037C40.0193 66.9706 43.3788 60.6553 41.3522 58.3214C41.2418 58.1984 41.1299 58.0912 40.9998 58.0087L40.9926 58.0013C38.7283 56.3275 33.5912 59.3294 28.7632 63.6187C25.5946 66.4633 22.2524 69.2674 20.7028 71.5316Z" fill="#0099FF"/>
<path d="M20.2457 72.279C20.2457 72.279 25.05 72.2175 29.9095 68.5795C33.036 66.2491 41.0016 58.0114 41.0016 58.0114L40.9945 58.004C38.7302 56.3302 33.7158 59.0845 28.804 63.2609C20.8123 70.0599 20.2457 72.279 20.2457 72.279Z" fill="#0099FF"/>
<path d="M42.6835 36.3043L33.9185 44.7685C33.9185 44.7685 36.2279 47.8483 37.9313 49.5687C39.4805 51.1294 41.0392 52.5518 42.5813 53.7391L51.3463 45.2748C50.2135 43.6923 48.8681 42.0639 47.3407 40.4821C45.8096 38.8967 44.2292 37.4953 42.6835 36.3043Z" fill="#5E6466"/>
<path d="M30.7342 32.6963C29.3669 34.0166 29.7134 36.667 31.0991 39.9929C31.9215 41.9685 33.9186 44.7686 33.9186 44.7686C33.9186 44.7686 38.0461 40.9477 40.5495 38.4513C41.7777 37.2222 42.6836 36.3043 42.6836 36.3043C37.5682 32.3752 32.724 30.7747 30.7342 32.6963Z" fill="#747A7C"/>
<path d="M30.7326 32.6965C29.3654 34.0168 29.604 36.7212 31.0976 39.9931C33.3098 36.472 36.5069 36.5848 40.4875 38.4238C40.5113 38.4223 40.5293 38.4409 40.548 38.4515C41.3107 38.8057 42.1026 39.2249 42.9224 39.6817C45.2257 40.995 48.0378 43.7328 50.3441 46.2343C52.8201 48.9378 54.7069 51.3708 54.7453 51.4629C54.7453 51.4629 54.7453 51.4629 54.7425 51.4512C54.0595 49.585 52.9011 47.4532 51.3412 45.2714C50.2084 43.6888 48.8631 42.0604 47.3356 40.4787C46.4607 39.5727 45.5682 38.7269 44.6774 37.9439C44.012 37.3594 43.3472 36.8103 42.682 36.3046C37.5667 32.3755 32.7224 30.7749 30.7326 32.6965Z" fill="#929799"/>
<path d="M42.6837 36.3044L40.5496 38.4513C41.3123 38.8054 42.1043 39.2247 42.9241 39.6815C45.2273 40.9948 48.0394 43.7326 50.3457 46.2341L51.3428 45.2712C50.2101 43.6886 48.8647 42.0602 47.3373 40.4785C46.4624 39.5725 45.5698 38.7267 44.6791 37.9437L42.6837 36.3044Z" fill="#6F7577"/>
<path d="M50.3455 46.2342L51.3426 45.2713C51.3426 45.2713 52.502 46.742 53.3712 48.4786C54.2404 50.2152 54.7467 51.4628 54.7467 51.4628L50.3455 46.2342Z" fill="#5E6466"/>
<path d="M35.4374 46.6616C36.7868 48.3291 38.4651 50.1455 40.5642 52.0577C47.0651 58.0141 51.5214 58.1237 51.5214 58.1237C51.5214 58.1237 52.9101 56.7037 46.9512 49.5135C46.9512 49.5135 47.8791 50.9711 48.173 52.2514C48.3333 52.9577 47.9376 53.9856 45.6098 53.5356C43.7511 53.1707 37.9506 49.3077 35.4374 46.6616Z" fill="#475150"/>
<path d="M39.4504 43.9538C39.298 44.101 39.4809 44.5343 39.8538 44.9205C40.2267 45.3066 40.6534 45.5045 40.8058 45.3573C40.9582 45.2101 40.7789 44.7805 40.4024 44.3907C40.0251 44.0087 39.5984 43.8108 39.4504 43.9538Z" fill="#5E6466"/>
<path d="M27.4305 45.4143C29.1945 42.6001 25.6127 38.889 23.3401 37.439C23.3401 37.439 21.9725 35.8565 19.1378 38.6912C16.0075 41.8217 17.8857 43.9642 17.8857 43.9642C19.9311 46.1393 24.7037 49.7644 27.4305 45.4143Z" fill="#FBBEAA"/>
<path d="M22.4217 50.8634C24.1857 48.0492 20.6039 44.3381 18.3313 42.8881C18.3313 42.8881 16.9637 41.3056 14.1291 44.1403C10.9987 47.2708 12.8769 49.4133 12.8769 49.4133C14.9223 51.5884 19.6949 55.2135 22.4217 50.8634Z" fill="#FBBEAA"/>
<path d="M17.4134 55.8719C19.1774 53.0578 15.5956 49.3467 13.323 47.8966C13.323 47.8966 11.9554 46.3142 9.12075 49.1489C5.9904 52.2794 7.86861 54.4219 7.86861 54.4219C9.91397 56.5969 14.6866 60.2221 17.4134 55.8719Z" fill="#FBBEAA"/>
<path d="M11.2336 60.3301C12.6955 57.9714 9.72705 54.861 7.84357 53.6456C7.84357 53.6456 6.7101 52.3193 4.36086 54.6952C1.76653 57.319 3.32313 59.1147 3.32313 59.1147C5.01826 60.9378 8.97365 63.9762 11.2336 60.3301Z" fill="#FBBEAA"/>
<path d="M17.9113 64.3297L18.3245 64.7429L17.7424 65.3249L18.1833 65.7658L18.7654 65.1837L19.1786 65.5969L17.5884 67.1871L17.1752 66.7739L17.8049 66.1442L17.364 65.7032L16.7342 66.333L16.321 65.9198L17.9112 64.3296L17.9113 64.3297ZM20.653 67.0714L19.0628 68.6616L18.6636 68.2623L19.8768 67.0491L19.6153 66.7875L19.1589 67.244C18.9538 67.449 18.6885 67.6864 18.4371 67.718C18.1698 67.7655 17.9149 67.6061 17.7288 67.3246L18.1231 66.9303C18.2953 67.1979 18.4462 67.1581 18.7611 66.8433L19.5959 66.0085L20.6559 67.0685L20.653 67.0714ZM20.998 67.4164L21.4112 67.8296L20.7003 69.0078L21.8786 68.297L22.2918 68.7102L20.8949 70.4936L20.5095 70.1083L21.2642 69.1616L20.1924 69.791L19.917 69.5156L20.5478 68.4451L19.6012 69.1998L19.2158 68.8144L20.998 67.4162L20.998 67.4164ZM22.6367 69.0551L23.0499 69.4683L22.4042 70.1139L23.4491 69.8675L23.9039 70.3223L22.5938 70.5864L22.3278 71.9265L21.8325 71.4312L22.1066 70.4141L21.461 71.0597L21.0478 70.6465L22.638 69.0564L22.6367 69.0551L22.6367 69.0551ZM22.5604 65.5759C20.0814 63.097 17.4174 62.481 15.9067 63.9917C14.4104 65.488 15.0107 68.1652 17.4909 70.6454C19.9837 73.1383 22.6498 73.7245 24.1446 72.2297C25.6553 70.7189 25.0545 68.07 22.5604 65.5759ZM17.7263 70.41C15.3977 68.0814 14.771 65.5974 16.1417 64.2267C17.5268 62.8416 19.9976 63.4841 22.3249 65.8114C24.6662 68.1526 25.2973 70.6094 23.9108 71.9959C22.5402 73.3665 20.0688 72.7525 17.7263 70.41ZM22.104 66.0323C19.9144 63.8427 17.619 63.217 16.3754 64.4605C15.1319 65.704 15.7577 67.9994 17.9473 70.189C20.1369 72.3786 22.4323 73.0044 23.6758 71.7609C24.9206 70.5186 24.2949 68.2232 22.104 66.0323ZM17.9935 70.1428C15.8304 67.9797 15.2039 65.7155 16.4157 64.5036C17.6275 63.2919 19.893 63.9196 22.0548 66.0815C24.2167 68.2433 24.8444 70.5088 23.6327 71.7206C22.4221 72.9337 20.1565 72.306 17.9934 70.1429L17.9935 70.1428Z" fill="white"/>
<path d="M179.848 96.1552C185.999 104.064 215.634 187.18 215.634 187.18C182.683 176.636 199.06 172.594 181.139 175.609C181.139 175.609 153.14 116.189 152.351 111.849C151.527 108.428 151.897 104.829 153.398 101.647C154.9 98.4644 157.443 95.8903 160.607 94.3507C169.427 89.8422 173.697 88.2467 179.848 96.1552Z" fill="#003399"/>
<path d="M110.839 86.0193L44.0778 131.046C44.3587 133.349 38.9484 86.0193 38.9484 86.0193L14.2377 88.3258C14.2377 88.3258 15.6813 136.514 19.3178 161.963C20.7609 172.062 29.1675 175.893 39.1354 173.718C44.0568 172.644 48.6899 170.624 52.8129 167.731C70.5296 155.295 120.233 120.269 124.297 115.863C131.308 108.261 131.308 102.566 127.279 96.3074C123.249 90.0486 114.627 85.0791 110.839 86.0193Z" fill="#002B80"/>
<path d="M189.627 322.625C190.048 325.845 189.827 329.117 188.975 332.252C188.124 335.386 186.66 338.32 184.667 340.885C182.674 343.45 180.193 345.594 177.366 347.194C174.539 348.793 171.423 349.816 168.199 350.204C164.974 350.592 161.704 350.336 158.579 349.452C155.454 348.568 152.535 347.073 149.991 345.053C147.447 343.034 145.329 340.53 143.759 337.687C142.189 334.844 141.199 331.717 140.845 328.489C140.845 328.489 128.055 238.659 125.022 220.511C121.989 202.363 125.199 187.173 145.521 182.851C166.601 178.377 179.769 193.82 181.362 209.289C182.954 224.758 189.627 322.625 189.627 322.625Z" fill="#93929C"/>
<path d="M149.312 324.369C149.392 330.885 146.881 337.166 142.331 341.83C137.78 346.494 131.563 349.16 125.047 349.24C118.532 349.321 112.251 346.809 107.586 342.259C102.922 337.708 100.257 331.491 100.176 324.975C100.176 324.975 97.0672 234.286 96.0056 215.911C94.9441 197.536 99.7464 182.8 120.422 180.677C141.856 178.478 153.28 195.236 153.28 210.805C153.28 226.375 149.312 324.369 149.312 324.369Z" fill="#93929C"/>
<path d="M109.983 431.234C109.983 431.234 111.197 482.771 111.5 490.48C111.803 498.189 116.681 500.287 124.542 500.97C132.403 501.652 135.714 495.409 136.826 490.455C137.938 485.501 144.662 434.975 144.662 434.975L109.983 431.234Z" fill="#FBBEAA"/>
<path d="M110.868 467.176L139.859 470.285C142.109 454.336 144.662 434.899 144.662 434.899L109.983 431.158C109.983 431.158 110.438 450.469 110.868 467.176Z" fill="#F18380"/>
<path d="M149.312 324.369C149.272 321.143 148.597 317.956 147.326 314.99C146.054 312.025 144.211 309.339 141.902 307.086C139.592 304.833 136.862 303.056 133.866 301.858C130.87 300.661 127.667 300.065 124.441 300.104C121.214 300.144 118.028 300.819 115.062 302.091C112.097 303.362 109.411 305.205 107.157 307.515C104.904 309.824 103.128 312.555 101.93 315.551C100.732 318.547 100.136 321.749 100.176 324.976L105.231 468.624L144.889 472.895L149.312 324.369Z" fill="#93929C"/>
<path d="M161.874 433.206C161.874 433.206 168.597 484.313 169.709 491.921C170.822 499.529 175.902 501.147 183.813 500.97C191.725 500.793 194.328 494.247 194.909 489.217C195.491 484.187 196.754 433.206 196.754 433.206H161.874Z" fill="#FBBEAA"/>
<path d="M166.727 468.845H195.896C196.401 452.769 196.881 433.206 196.881 433.206H161.875C161.875 433.206 164.402 452.264 166.727 468.845Z" fill="#F18380"/>
<path d="M189.627 322.625C188.788 316.208 185.45 310.382 180.34 306.411C175.23 302.441 168.76 300.647 162.334 301.419C155.909 302.192 150.048 305.468 146.025 310.536C142.001 315.605 140.14 322.056 140.845 328.489L162.834 473.679H202.719L189.627 322.625Z" fill="#93929C"/>
<path d="M141.881 328.489L164.553 472.415" stroke="#676767" stroke-width="0.75" stroke-miterlimit="10" stroke-linecap="round"/>
<path d="M141.856 328.489C141.856 328.489 129.067 238.659 126.034 220.511" stroke="#676767" stroke-width="0.75" stroke-miterlimit="10" stroke-linecap="round"/>
<path d="M181.16 474.835C178.293 474.629 175.45 475.483 173.172 477.235C170.893 478.987 169.338 481.515 168.8 484.338L155.606 497.861V506.277H197.892C197.892 506.277 195.769 491.112 195.162 487.7C194.556 484.288 192.508 474.835 181.16 474.835Z" fill="#FBBEAA"/>
<path d="M168.825 484.237C168.345 483.58 167.663 483.075 167.183 483.378C166.702 483.681 153.938 493.791 153.331 494.297C152.958 494.648 152.675 495.084 152.508 495.568C152.341 496.053 152.294 496.571 152.371 497.077V507.92H198.828C198.828 507.92 197.008 491.896 196.881 491.011C196.755 490.126 195.87 488.964 195.365 488.989C192.176 489.966 188.867 490.493 185.533 490.556C181.101 490.791 176.681 489.923 172.667 488.029C171.179 486.994 169.88 485.711 168.825 484.237Z" fill="#2E70AC"/>
<path d="M160.004 498.821C162.254 497.153 170.342 490.834 173.375 488.458L172.667 488.104C172.572 488.063 172.486 488.003 172.415 487.927C169.179 490.455 161.571 496.42 159.398 498.038C157.56 499.446 156.301 501.478 155.859 503.75L156.845 503.902C157.262 501.887 158.382 500.086 160.004 498.821Z" fill="#1E2173"/>
<path d="M197.564 496.875C194.29 496.908 191.121 498.039 188.566 500.085C186.255 502.132 184.691 504.888 184.117 507.92H185.482C186.04 505.293 187.421 502.911 189.425 501.121C191.777 499.237 194.702 498.212 197.715 498.215L197.564 496.875Z" fill="#1E2173"/>
<path d="M144.864 507.896H198.828C199.205 507.896 199.51 508.201 199.51 508.578V513.81C199.51 514.187 199.205 514.492 198.828 514.492H144.864C144.487 514.492 144.182 514.187 144.182 513.81V508.578C144.182 508.201 144.487 507.896 144.864 507.896Z" fill="white"/>
<path d="M153.458 494.196C152.978 493.993 150.627 494.676 147.569 497.684C146.295 499 145.379 500.619 144.905 502.388C144.432 504.157 144.418 506.018 144.864 507.794H160.207C159.347 498.088 153.938 494.398 153.458 494.196Z" fill="white"/>
<path d="M159.347 494.348C159.536 494.58 159.627 494.877 159.598 495.175C159.57 495.473 159.425 495.748 159.195 495.94C159.083 496.033 158.953 496.103 158.813 496.146C158.673 496.189 158.526 496.203 158.38 496.189C158.235 496.175 158.093 496.133 157.964 496.064C157.835 495.995 157.721 495.901 157.628 495.788L155.101 492.73C154.911 492.498 154.821 492.201 154.849 491.903C154.878 491.605 155.023 491.33 155.252 491.138C155.364 491.041 155.493 490.969 155.634 490.924C155.774 490.879 155.922 490.863 156.068 490.878C156.215 490.892 156.357 490.936 156.486 491.006C156.615 491.077 156.729 491.173 156.819 491.289L159.347 494.348Z" fill="white"/>
<path d="M162.355 492.047C162.544 492.279 162.635 492.577 162.606 492.875C162.578 493.173 162.433 493.448 162.203 493.64C162.092 493.736 161.962 493.809 161.822 493.853C161.682 493.898 161.534 493.914 161.387 493.9C161.241 493.886 161.098 493.842 160.969 493.771C160.84 493.7 160.727 493.604 160.636 493.488L158.108 490.43C157.925 490.195 157.839 489.899 157.867 489.603C157.895 489.307 158.036 489.033 158.26 488.837C158.371 488.741 158.501 488.668 158.641 488.623C158.782 488.579 158.93 488.563 159.076 488.577C159.223 488.591 159.365 488.635 159.494 488.706C159.623 488.777 159.736 488.873 159.827 488.989L162.355 492.047Z" fill="white"/>
<path d="M165.262 489.773C165.453 489.998 165.546 490.289 165.523 490.583C165.499 490.877 165.36 491.149 165.135 491.34C164.903 491.529 164.606 491.62 164.308 491.591C164.01 491.563 163.735 491.418 163.543 491.188L161.015 488.13C160.909 488.026 160.825 487.903 160.767 487.766C160.709 487.629 160.68 487.482 160.68 487.334C160.68 487.185 160.709 487.039 160.767 486.902C160.825 486.765 160.909 486.641 161.015 486.538C161.25 486.354 161.545 486.268 161.842 486.296C162.138 486.324 162.412 486.465 162.608 486.689L165.262 489.773Z" fill="white"/>
<path d="M168.193 487.473C168.286 487.585 168.356 487.715 168.399 487.855C168.442 487.995 168.457 488.142 168.443 488.288C168.428 488.433 168.386 488.575 168.317 488.704C168.248 488.833 168.155 488.947 168.042 489.04C167.829 489.248 167.543 489.365 167.246 489.365C166.948 489.365 166.662 489.248 166.449 489.04L163.922 485.956C163.732 485.724 163.642 485.427 163.67 485.129C163.699 484.831 163.844 484.556 164.073 484.364C164.186 484.271 164.316 484.201 164.456 484.158C164.596 484.115 164.743 484.1 164.888 484.115C165.034 484.129 165.175 484.171 165.304 484.24C165.433 484.309 165.548 484.402 165.641 484.515L168.193 487.473Z" fill="white"/>
<path d="M121.762 474.835C118.895 474.629 116.052 475.483 113.774 477.235C111.495 478.987 109.94 481.515 109.402 484.338L96.2332 497.861V506.277H138.494C138.494 506.277 136.396 491.112 135.764 487.7C135.133 484.288 133.11 474.835 121.762 474.835Z" fill="#FBBEAA"/>
<path d="M109.427 484.237C108.947 483.58 108.29 483.075 107.785 483.378C107.279 483.681 94.5401 493.791 93.9588 494.297C93.3775 494.802 92.973 495.434 92.973 497.077V507.92H139.43C139.43 507.92 137.61 491.896 137.483 491.011C137.357 490.126 136.472 488.964 135.967 488.989C132.778 489.966 129.469 490.493 126.135 490.556C121.711 490.795 117.298 489.927 113.295 488.029C111.795 486.999 110.486 485.716 109.427 484.237Z" fill="#2E70AC"/>
<path d="M100.606 498.821C102.856 497.153 110.944 490.834 113.977 488.458L113.295 488.104C113.191 488.064 113.097 488.004 113.017 487.927C109.781 490.455 102.173 496.42 99.9996 498.038C98.1621 499.446 96.9034 501.478 96.461 503.75L97.4468 503.902C97.876 501.892 98.9935 500.095 100.606 498.821Z" fill="#1E2173"/>
<path d="M138.166 496.875C134.892 496.908 131.723 498.039 129.168 500.085C126.858 502.132 125.293 504.888 124.719 507.92H126.084C126.649 505.289 128.039 502.907 130.052 501.121C132.393 499.234 135.311 498.208 138.317 498.215L138.166 496.875Z" fill="#1E2173"/>
<path d="M85.4663 507.896H139.43C139.807 507.896 140.112 508.201 140.112 508.578V513.81C140.112 514.187 139.807 514.492 139.43 514.492H85.4663C85.0894 514.492 84.7839 514.187 84.7839 513.81V508.578C84.7839 508.201 85.0894 507.896 85.4663 507.896Z" fill="white"/>
<path d="M94.06 494.196C93.5798 493.993 91.2291 494.676 88.1708 497.684C86.8974 499 85.9808 500.619 85.5075 502.388C85.0343 504.157 85.0201 506.018 85.4663 507.794H100.809C99.9492 498.088 94.5403 494.398 94.06 494.196Z" fill="white"/>
<path d="M100.05 494.348C100.24 494.58 100.33 494.877 100.302 495.175C100.273 495.473 100.128 495.748 99.8985 495.94C99.7857 496.033 99.6556 496.103 99.5157 496.146C99.3759 496.189 99.229 496.203 99.0835 496.189C98.9379 496.175 98.7965 496.133 98.6675 496.064C98.5384 495.995 98.4242 495.901 98.3313 495.788L95.8038 492.73C95.6205 492.496 95.534 492.2 95.5623 491.904C95.5905 491.607 95.7312 491.333 95.9555 491.138C96.0668 491.041 96.1965 490.969 96.3368 490.924C96.477 490.879 96.625 490.863 96.7715 490.878C96.918 490.892 97.0602 490.936 97.1893 491.006C97.3184 491.077 97.4318 491.173 97.5226 491.289L100.05 494.348Z" fill="white"/>
<path d="M102.957 492.047C103.146 492.279 103.237 492.577 103.208 492.875C103.18 493.173 103.035 493.448 102.805 493.64C102.694 493.736 102.564 493.809 102.424 493.854C102.284 493.898 102.136 493.914 101.989 493.9C101.843 493.886 101.7 493.842 101.571 493.771C101.442 493.7 101.329 493.604 101.238 493.488L98.7106 490.43C98.5273 490.195 98.4409 489.899 98.4691 489.603C98.4973 489.307 98.638 489.033 98.8622 488.837C99.0942 488.648 99.3915 488.558 99.6896 488.586C99.9877 488.614 100.263 488.759 100.455 488.989L102.957 492.047Z" fill="white"/>
<path d="M105.864 489.773C105.969 489.874 106.053 489.996 106.11 490.13C106.168 490.265 106.197 490.41 106.197 490.556C106.197 490.702 106.168 490.847 106.11 490.982C106.053 491.116 105.969 491.238 105.864 491.34C105.632 491.529 105.334 491.619 105.036 491.591C104.738 491.563 104.463 491.418 104.271 491.188L101.744 488.13C101.554 487.898 101.464 487.6 101.492 487.302C101.521 487.004 101.665 486.729 101.895 486.537C102.008 486.444 102.138 486.374 102.278 486.331C102.418 486.289 102.565 486.274 102.71 486.288C102.856 486.302 102.997 486.345 103.126 486.414C103.255 486.482 103.37 486.576 103.462 486.689L105.864 489.773Z" fill="white"/>
<path d="M108.795 487.473C108.888 487.585 108.958 487.715 109.001 487.855C109.044 487.995 109.059 488.142 109.045 488.288C109.031 488.433 108.988 488.575 108.919 488.704C108.85 488.833 108.757 488.947 108.644 489.04C108.431 489.248 108.145 489.365 107.848 489.365C107.55 489.365 107.264 489.248 107.051 489.04L104.524 485.956C104.334 485.724 104.244 485.427 104.272 485.129C104.301 484.831 104.446 484.556 104.675 484.364C104.788 484.271 104.918 484.201 105.058 484.158C105.198 484.115 105.345 484.1 105.49 484.115C105.636 484.129 105.777 484.171 105.906 484.24C106.036 484.309 106.15 484.402 106.243 484.515L108.795 487.473Z" fill="white"/>
<path d="M96.7489 196.253C96.7489 196.253 96.7489 222.464 96.7489 223.905C96.7489 225.346 109.387 237.705 126.17 237.705C151.976 237.705 182.863 228.277 182.408 222.135C182.105 218.091 181.726 196.253 181.726 196.253H96.7489Z" fill="#93929C"/>
<path d="M117.899 81.8809C117.899 81.8809 100.383 91.9911 97.6787 93.7604C94.9742 95.5297 91.84 98.2595 92.4214 105.64C93.0027 113.02 95.3281 209.978 95.3281 209.978C100.798 212.929 106.614 215.188 112.642 216.701C115.549 217.03 117.849 217.106 119.82 215.185C121.792 213.264 127.605 206.288 127.605 206.288C127.605 206.288 137.185 212.783 141.507 215.185C142.537 215.904 143.701 216.408 144.929 216.669C146.158 216.929 147.427 216.94 148.66 216.701C154.953 215.412 179.723 208.183 180.507 207.728C181.291 207.273 182.024 206.793 181.948 205.934C181.872 205.074 181.417 106.474 181.088 102.026C181.023 99.6432 180.274 97.33 178.929 95.3623C177.584 93.3946 175.702 91.8558 173.506 90.9296C168.223 88.5789 148.382 80.516 148.382 80.516L127.681 94.8978L117.899 81.8809Z" fill="#003399"/>
<path d="M117.899 79.0505L127.63 94.8983C127.63 94.8983 118.076 102.481 117.52 103.037C116.964 103.593 115.852 103.543 115.624 102.658C115.397 101.773 112.642 84.965 112.591 84.965C112.543 84.8758 112.517 84.7759 112.517 84.6743C112.517 84.5727 112.543 84.4728 112.591 84.3836C112.844 84.2067 117.899 79.0505 117.899 79.0505Z" fill="#F5F5F5"/>
<g filter="url(#filter0_d_203_577)">
<rect width="48.8839" height="69.6595" rx="1" transform="matrix(-0.993463 -0.114154 -0.114154 0.993463 154.391 130.019)" fill="#EFEFEF"/>
</g>
<path d="M148.483 76.118L127.605 94.8978C127.605 94.8978 138.6 102.48 139.08 103.037C139.22 103.156 139.385 103.241 139.563 103.287C139.741 103.333 139.927 103.338 140.107 103.302C140.288 103.265 140.457 103.188 140.603 103.077C140.749 102.965 140.868 102.822 140.95 102.657C141.759 101.368 154.7 83.1952 154.751 83.0435C154.805 82.956 154.833 82.8554 154.833 82.7528C154.833 82.6502 154.805 82.5496 154.751 82.4622C154.473 82.3105 148.483 76.118 148.483 76.118Z" fill="#F5F5F5"/>
<path d="M133.803 158.246C130.339 156.783 127.206 154.614 124.605 151.877C122.995 150.187 121.168 148.72 119.175 147.516C118.006 146.785 116.997 145.821 116.212 144.683C115.174 142.919 114.316 141.056 113.649 139.123C113.402 137.458 112.836 135.854 111.982 134.4C111.17 133.655 108.304 134.053 106.816 136.945C106.304 138.233 106.071 139.619 106.135 141.011C106.199 142.404 106.557 143.77 107.186 145.018C107.926 146.516 108.506 148.086 108.915 149.704L108.645 149.866C106.378 148.662 103.956 147.79 101.452 147.274C100.544 147.071 99.5979 147.181 98.7664 147.585C97.935 147.99 97.2665 148.667 96.8687 149.506C96.471 150.345 96.3671 151.298 96.5738 152.211C96.7805 153.124 97.2859 153.944 98.0083 154.538C94.1008 154.987 94.5444 161.014 97.8989 161.811C97.1806 162.113 96.5743 162.63 96.1619 163.293C95.7494 163.957 95.5509 164.734 95.593 165.52C95.6351 166.306 95.9159 167.062 96.3974 167.688C96.8789 168.313 97.5379 168.777 98.2852 169.016C95.9025 171.213 97.6442 174.834 101.971 174.849C105.486 175.207 114.887 176.679 118.158 177.383C121.429 178.087 128.003 176.529 130.115 177.183C133.258 178.335 136.91 178.354 139.695 170.082C142.48 161.81 137.038 159.315 133.803 158.246Z" fill="#FBBEAA"/>
<path d="M127.614 180.438L190.935 205.932C199.027 210 212.175 207.913 216.138 198.449C216.864 196.684 217.223 194.79 217.195 192.882C217.167 190.975 216.752 189.092 215.974 187.35C215.197 185.607 214.073 184.041 212.672 182.745C211.271 181.45 209.622 180.453 207.824 179.814L132.987 152.747L127.614 180.438Z" fill="#003399"/>
<defs>
<filter id="filter0_d_203_577" x="97.9824" y="124.546" width="58.3013" height="74.5694" filterUnits="userSpaceOnUse" color-interpolation-filters="sRGB">
<feFlood flood-opacity="0" result="BackgroundImageFix"/>
<feColorMatrix in="SourceAlpha" type="matrix" values="0 0 0 0 0 0 0 0 0 0 0 0 0 0 0 0 0 0 127 0" result="hardAlpha"/>
<feOffset dx="2"/>
<feComposite in2="hardAlpha" operator="out"/>
<feColorMatrix type="matrix" values="0 0 0 0 0.603922 0 0 0 0 0.6 0 0 0 0 0.631373 0 0 0 1 0"/>
<feBlend mode="normal" in2="BackgroundImageFix" result="effect1_dropShadow_203_577"/>
<feBlend mode="normal" in="SourceGraphic" in2="effect1_dropShadow_203_577" result="shape"/>
</filter>
</defs>
</svg>
