<svg width="208" height="505" viewBox="0 0 208 505" fill="none" xmlns="http://www.w3.org/2000/svg">
<path d="M100.802 59.7318H70.9795V94.8052H100.802V59.7318Z" fill="#FBBEAA"/>
<path d="M71.0537 59.7318H100.777V79.2996C99.4786 79.4608 98.1717 79.5436 96.8634 79.5473C86.6089 79.5473 75.1406 76.7483 70.9546 66.9644L71.0537 59.7318Z" fill="#F18380"/>
<path d="M116.208 33.6996C115.961 43.8303 116.208 51.8308 114.375 59.5588C112.542 67.2869 106.945 73.6031 94.5598 73.6031C82.1751 73.6031 68.0566 69.5657 67.0658 54.0848C65.0348 51.8803 61.7404 44.0284 61.6166 35.2353C61.4927 26.4422 62.1863 7.84035 82.2247 4.99187C102.263 2.14339 116.753 9.4999 116.208 33.6996Z" fill="#FBBEAA"/>
<path d="M105.731 41.6754C105.731 43.0377 106.548 44.1524 107.564 44.1524C108.579 44.1524 109.397 43.0377 109.397 41.6754C109.397 40.3131 108.579 39.1985 107.564 39.1985C106.548 39.1985 105.731 40.214 105.731 41.6754Z" fill="#403D4F"/>
<path d="M83.4385 41.6754C83.4385 43.0377 84.2558 44.1524 85.2714 44.1524C86.2869 44.1524 87.1044 43.0377 87.1044 41.6754C87.1044 40.3131 86.2869 39.1985 85.2714 39.1985C84.2558 39.1985 83.4385 40.214 83.4385 41.6754Z" fill="#403D4F"/>
<path d="M87.9218 36.523C87.7484 36.7459 86.4356 36.523 85.4449 36.523C84.4541 36.523 82.5469 36.523 82.5469 36.3001C82.5469 36.0771 83.488 34.5414 85.965 34.8139C87.7484 35.012 88.3924 36.1267 87.9218 36.523Z" fill="#403D4F"/>
<path d="M105.309 36.5229C105.458 36.7459 106.573 36.5229 107.439 36.5229C108.306 36.5229 109.916 36.5229 109.916 36.3C109.694 35.7386 109.274 35.2778 108.736 35.0041C108.198 34.7304 107.578 34.6628 106.994 34.8139C105.458 35.012 105.037 36.1266 105.309 36.5229Z" fill="#403D4F"/>
<path d="M98.0023 51.9298C99.7362 51.9298 101.123 50.7904 101.173 49.973L100.603 42.988C100.584 42.8149 100.499 42.656 100.365 42.545C100.23 42.434 100.058 42.3796 99.8848 42.3936C99.8001 42.3998 99.7175 42.4228 99.6418 42.4611C99.566 42.4993 99.4985 42.5522 99.4433 42.6167C99.388 42.6811 99.3461 42.7559 99.3198 42.8366C99.2936 42.9174 99.2835 43.0025 99.2903 43.0871L99.8352 49.8244C99.5849 50.0958 99.277 50.3079 98.9342 50.445C98.5913 50.5822 98.2222 50.6409 97.8537 50.617C97.7671 50.6103 97.68 50.6211 97.5978 50.6489C97.5155 50.6767 97.4396 50.7208 97.3748 50.7787C97.31 50.8365 97.2576 50.9069 97.2207 50.9855C97.1838 51.0641 97.1632 51.1494 97.1602 51.2362C97.1597 51.4119 97.2259 51.5812 97.3454 51.7099C97.465 51.8387 97.6289 51.9172 97.8041 51.9298H98.0023Z" fill="#F18380"/>
<path d="M72.4351 38.3063C72.4351 48.3009 67.4812 44.5855 67.4812 44.5855C66.2428 40.8701 64.0852 42.4678 61.249 42.4678C58.4128 42.4678 58.7772 40.4021 55.941 33.5906C53.6721 28.1413 56.2877 19.4827 57.9894 17.3868C55.1686 13.6912 58.994 11.4897 58.8617 12.0499C57.9894 15.7429 61.0131 12.0313 62.5274 10.5752C78.7005 -4.97608 119.457 2.83673 119.457 2.83673L115.224 8.19353L125.649 5.31372C125.649 5.31372 124.969 10.9548 123.172 13.983C121.676 16.505 118.06 19.4827 118.06 19.4827L129.405 20.5306C129.405 20.5306 122.031 28.3902 111.82 29.4381C100.322 30.6183 87.9964 25.2463 87.9964 25.2463L92.5343 30.486C92.5343 30.486 81.0645 28.1467 77.3491 30.0831C74.9728 31.3215 72.4351 33.8382 72.4351 38.3063Z" fill="#7D4A40"/>
<path d="M67.6107 46.3816C67.4869 43.5579 67.041 39.3967 63.0284 39.2976C59.0157 39.1985 58.4956 42.2204 58.6194 46.9761C58.7433 51.7318 63.5733 55.7692 67.8089 54.1345L67.6107 46.3816Z" fill="#FBBEAA"/>
<path d="M61.7146 49.7994C61.8883 49.7691 62.043 49.6715 62.1451 49.5277C62.2471 49.3839 62.2883 49.2056 62.2595 49.0316C62.2597 48.8918 62.2993 48.7549 62.3738 48.6366C62.4483 48.5183 62.5546 48.4234 62.6806 48.3628C62.9334 48.1935 63.2308 48.1031 63.5351 48.1031C63.8394 48.1031 64.1369 48.1935 64.3897 48.3628C64.4997 48.4235 64.6232 48.4554 64.7488 48.4554C64.8745 48.4554 64.998 48.4235 65.108 48.3628C65.2089 48.2961 65.2899 48.2033 65.3422 48.0943C65.3945 47.9852 65.4163 47.864 65.4052 47.7436C65.0585 43.7557 62.5072 43.0126 62.4081 42.9878C62.3236 42.9618 62.2345 42.9534 62.1466 42.9632C62.0586 42.9731 61.9736 43.001 61.8969 43.0451C61.8202 43.0893 61.7535 43.1488 61.7008 43.2199C61.6481 43.291 61.6106 43.3722 61.5907 43.4585C61.545 43.6227 61.5663 43.7983 61.6498 43.9469C61.7334 44.0955 61.8725 44.2049 62.0366 44.2511C62.5314 44.4751 62.9627 44.8189 63.2913 45.2513C63.62 45.6838 63.8357 46.1913 63.9191 46.728C63.2403 46.6174 62.5445 46.7584 61.9623 47.1243C61.623 47.3233 61.3488 47.6164 61.1729 47.9681C60.9971 48.3199 60.9271 48.7151 60.9715 49.1059C60.9673 49.2024 60.9841 49.2986 61.0207 49.388C61.0572 49.4775 61.1127 49.5579 61.1833 49.6238C61.2539 49.6897 61.338 49.7395 61.4297 49.7698C61.5214 49.8002 61.6186 49.8103 61.7146 49.7994Z" fill="#F18380"/>
<path d="M96.294 60.8469C93.9029 60.7547 91.6071 59.8851 89.7549 58.37" stroke="#73102A" stroke-width="0.5" stroke-miterlimit="10" stroke-linecap="round"/>
<path d="M96.3777 56.4632C92.91 55.3238 88.9469 53.9862 87.5846 55.5962C86.5195 56.6861 87.9561 61.8134 93.2815 62.705C98.607 63.5967 100.514 59.9309 100.242 58.519C100.068 57.6521 99.1023 57.3796 96.3777 56.4632Z" fill="#73102A"/>
<path d="M87.7084 55.5223H87.5846C86.5195 56.6122 87.9561 61.7395 93.2815 62.6312C94.4386 62.8997 95.6417 62.8997 96.7987 62.6312C95.9017 60.8491 94.6216 59.2875 93.0499 58.0585C91.4783 56.8295 89.6542 55.9634 87.7084 55.5223Z" fill="#D65155"/>
<path d="M88.9473 54.977C90.3505 56.5019 92.1323 57.6283 94.1117 58.2417C96.0912 58.8551 98.1977 58.9337 100.217 58.4694C100.019 57.6273 99.0284 57.3548 96.3781 56.4631C94.0259 55.4744 91.4988 54.969 88.9473 54.977Z" fill="white"/>
<path d="M39.3808 95.4707C33.7198 102.749 0.967285 191.707 0.967285 191.707C31.2937 182.002 28.4481 155.775 44.9418 158.55C44.9418 158.55 63.9613 113.908 64.6874 109.915C65.4453 106.766 65.1052 103.453 63.7233 100.525C62.3415 97.596 60.0008 95.227 57.0889 93.81C48.9717 89.6606 45.0417 88.1922 39.3808 95.4707Z" fill="#90A2B7"/>
<path d="M180.289 87.6737C180.414 84.9443 179.683 82.2441 178.199 79.9501C175.914 77.3006 174.202 74.2068 173.171 70.8634C172.378 67.7598 171.111 64.797 169.415 62.0795C168.204 60.4136 166.386 59.0506 166.386 57.7785C166.386 56.5064 168.809 54.0529 172.262 54.7496C173.741 55.2103 175.1 55.9923 176.242 57.0396C177.383 58.0868 178.279 59.3735 178.865 60.8074C179.196 59.9337 179.39 59.0143 179.441 58.0814L180.198 39.5142C180.21 39.0329 180.317 38.5587 180.515 38.1198C180.713 37.6808 180.997 37.2859 181.35 36.9584C181.703 36.6309 182.117 36.3774 182.57 36.2129C183.022 36.0484 183.503 35.9763 183.984 36.0007C184.75 36.0333 185.486 36.3051 186.089 36.7778C186.692 37.2505 187.132 37.9003 187.346 38.6358V37.7877C187.463 36.8851 187.916 36.06 188.616 35.4781C189.316 34.8961 190.21 34.6003 191.118 34.6501C192.027 34.7 192.883 35.0918 193.515 35.7468C194.147 36.4018 194.508 37.2716 194.525 38.1815V40.7561C194.828 39.9623 195.407 39.304 196.155 38.9011C196.903 38.4982 197.771 38.3776 198.601 38.5611C199.43 38.7447 200.166 39.2202 200.675 39.9011C201.183 40.582 201.43 41.4229 201.37 42.2705V43.9061C201.696 43.3332 202.182 42.8677 202.768 42.5664C203.355 42.2652 204.016 42.1413 204.672 42.2099C205.569 42.3239 206.388 42.7828 206.953 43.4895C207.518 44.1962 207.786 45.0951 207.701 45.996L206.216 61.6555C205.244 70.4841 203.418 79.1976 200.764 87.6737C200.732 89.089 200.404 90.4818 199.802 91.7628C199.199 93.0437 198.335 94.1845 197.266 95.1116C196.196 96.0387 194.944 96.7317 193.59 97.1461C192.237 97.5605 190.811 97.6871 189.406 97.5177C188.134 97.5601 186.868 97.3286 185.693 96.8386C184.519 96.3487 183.464 95.6119 182.599 94.6783C181.734 93.7446 181.08 92.6359 180.682 91.4273C180.283 90.2188 180.149 88.9386 180.289 87.6737Z" fill="#FBBEAA"/>
<path d="M180.894 63.4429C179.743 63.4429 179.653 62.716 179.138 61.3833C181.712 61.3833 189.194 61.8679 192.465 68.168C189.163 63.6246 182.833 63.4429 180.894 63.4429ZM186.77 39.4843C186.77 39.4843 186.589 40.5444 186.407 42.0892C186.407 42.8767 186.225 43.8156 186.165 44.7849C186.104 45.7541 186.013 46.8142 185.922 47.8138C185.922 49.934 185.771 52.0239 185.771 53.599C185.771 55.174 185.771 56.2341 185.771 56.2341C185.771 56.2845 185.781 56.3344 185.801 56.3806C185.821 56.4268 185.851 56.4683 185.888 56.5024C185.925 56.5366 185.969 56.5628 186.016 56.5792C186.064 56.5955 186.114 56.6018 186.165 56.5976C186.25 56.5933 186.332 56.5614 186.397 56.5068C186.463 56.4522 186.509 56.3778 186.528 56.2947C186.528 56.2947 186.71 55.2346 186.861 53.6595C187.013 52.0845 187.255 49.9946 187.346 47.9046C187.346 46.8445 187.346 45.7844 187.346 44.8757C187.346 43.9671 187.346 42.9676 187.346 42.1801C187.346 40.5747 187.346 39.5448 187.346 39.5448C187.346 39.4944 187.336 39.4446 187.316 39.3984C187.296 39.3522 187.266 39.3107 187.229 39.2765C187.192 39.2423 187.148 39.2162 187.101 39.1999C187.053 39.1835 187.002 39.1772 186.952 39.1814C186.894 39.2148 186.846 39.2636 186.814 39.3224C186.782 39.3812 186.767 39.4477 186.77 39.5146V39.4843ZM193.798 41.6046C193.798 41.6046 193.616 42.5132 193.404 43.8459C193.404 44.5426 193.192 45.33 193.101 46.1781C193.01 47.0262 192.919 47.9349 192.828 48.8436C192.828 50.6609 192.616 52.4782 192.586 53.8412C192.556 55.2043 192.586 56.1432 192.586 56.1432C192.59 56.191 192.603 56.2376 192.625 56.2802C192.647 56.3229 192.677 56.3608 192.713 56.3918C192.75 56.4228 192.792 56.4462 192.838 56.4608C192.884 56.4753 192.932 56.4806 192.98 56.4765C193.061 56.4708 193.138 56.4378 193.199 56.3828C193.259 56.3279 193.3 56.2541 193.313 56.1736C193.313 56.1736 193.495 55.2648 193.707 53.9321C193.919 52.5994 194.1 50.7518 194.252 48.9648C194.252 48.0561 194.252 47.1474 194.434 46.2993C194.615 45.4512 194.434 44.6334 194.434 43.9368C194.434 42.5738 194.434 41.6651 194.434 41.6651C194.434 41.6147 194.424 41.5649 194.403 41.5187C194.383 41.4725 194.354 41.4309 194.317 41.3968C194.28 41.3626 194.236 41.3365 194.188 41.3201C194.141 41.3038 194.09 41.2974 194.04 41.3016C193.973 41.3294 193.914 41.3752 193.872 41.434C193.829 41.4928 193.803 41.5623 193.798 41.6348V41.6046ZM200.582 44.482C200.582 44.482 200.401 45.2392 200.158 46.3902C200.158 46.9354 199.916 47.6018 199.825 48.3287C199.734 49.0557 199.613 49.8129 199.492 50.5701C199.28 52.1148 199.189 53.599 199.128 54.8105C199.068 56.0221 199.128 56.7491 199.128 56.7491C199.128 56.7995 199.139 56.8493 199.159 56.8955C199.179 56.9417 199.208 56.9832 199.245 57.0174C199.282 57.0516 199.326 57.0777 199.374 57.094C199.421 57.1104 199.472 57.1167 199.522 57.1125C199.599 57.1085 199.674 57.0798 199.733 57.0308C199.793 56.9818 199.836 56.9149 199.855 56.8399C199.855 56.8399 200.067 56.0827 200.279 54.962C200.491 53.8413 200.794 52.2663 200.976 50.7518C200.976 49.9643 201.128 49.2071 201.188 48.4801C201.249 47.7532 201.188 47.0869 201.188 46.5114C201.188 45.3604 201.188 44.5728 201.188 44.5728C201.188 44.5224 201.178 44.4726 201.158 44.4264C201.138 44.3802 201.108 44.3387 201.071 44.3045C201.034 44.2703 200.99 44.2442 200.943 44.2279C200.895 44.2115 200.845 44.2052 200.794 44.2094C200.738 44.2406 200.69 44.284 200.654 44.3365C200.617 44.3889 200.592 44.4491 200.582 44.5123V44.482Z" fill="#F18380"/>
<path d="M107.009 85.3806L173.022 129.903C172.745 132.18 178.094 85.3806 178.094 85.3806L202.528 87.6613C202.528 87.6613 201.101 135.309 197.505 160.473C196.078 170.46 187.766 174.247 177.909 172.096C173.043 171.035 168.462 169.038 164.385 166.176C146.867 153.88 97.7202 119.247 93.702 114.89C86.7696 107.373 86.7696 101.742 90.7537 95.5535C94.7378 89.3648 103.264 84.451 107.009 85.3806Z" fill="#90A2B7"/>
<path d="M107.009 85.3806L173.022 129.903C172.745 132.18 178.094 85.3806 178.094 85.3806L202.528 87.6613C202.528 87.6613 201.101 135.309 197.505 160.473C196.078 170.46 187.766 174.247 177.909 172.096C173.043 171.035 168.462 169.038 164.385 166.176C146.867 153.88 97.7202 119.247 93.702 114.89C86.7696 107.373 86.7696 101.742 90.7537 95.5535C94.7378 89.3648 103.264 84.451 107.009 85.3806Z" fill="#90A2B7"/>
<path d="M69.0454 318.499C68.9666 324.882 71.4265 331.035 75.884 335.603C80.3415 340.172 86.4315 342.784 92.8142 342.862C99.1969 342.941 105.349 340.481 109.918 336.024C114.487 331.566 117.098 325.476 117.177 319.094C117.177 319.094 120.223 230.258 121.262 212.258C122.302 194.258 117.598 179.823 97.3451 177.744C76.3493 175.59 65.1582 192.005 65.1582 207.257C65.1582 222.508 69.0454 318.499 69.0454 318.499Z" fill="#93929C"/>
<path d="M29.5553 316.791C29.1427 319.946 29.3596 323.151 30.1936 326.221C31.0276 329.291 32.4621 332.166 34.4141 334.678C36.3661 337.19 38.7969 339.291 41.5658 340.857C44.3348 342.424 47.3869 343.427 50.5457 343.806C53.7045 344.186 56.9072 343.936 59.9686 343.07C63.03 342.204 65.8893 340.739 68.3811 338.761C70.8729 336.783 72.9478 334.33 74.4856 331.545C76.0235 328.76 76.9938 325.698 77.3405 322.535C77.3405 322.535 89.8686 234.541 92.8397 216.764C95.8108 198.987 92.6664 184.107 72.7601 179.873C52.111 175.491 39.2114 190.618 37.6516 205.771C36.0918 220.924 29.5553 316.791 29.5553 316.791Z" fill="#93929C"/>
<path d="M108.561 423.181C108.561 423.181 107.373 473.665 107.076 481.216C106.779 488.768 102 490.823 94.3001 491.491C86.6 492.16 83.3565 486.044 82.2671 481.191C81.1777 476.339 74.5918 426.845 74.5918 426.845L108.561 423.181Z" fill="#FBBEAA"/>
<path d="M107.695 458.388L79.296 461.434C77.0925 445.811 74.5918 426.771 74.5918 426.771L108.561 423.107C108.561 423.107 108.116 442.022 107.695 458.388Z" fill="#F18380"/>
<path d="M69.0449 318.5C69.0839 315.339 69.745 312.217 70.9905 309.312C72.236 306.408 74.0414 303.776 76.3037 301.569C78.566 299.362 81.2409 297.622 84.1757 296.449C87.1104 295.276 90.2475 294.692 93.4079 294.731C96.5683 294.77 99.69 295.431 102.595 296.676C105.5 297.922 108.131 299.727 110.338 301.99C112.545 304.252 114.285 306.927 115.458 309.862C116.632 312.796 117.216 315.933 117.177 319.094L112.225 459.806L73.3778 463.991L69.0449 318.5Z" fill="#93929C"/>
<path d="M57.7311 425.112C57.7311 425.112 51.1452 475.175 50.0557 482.628C48.9663 490.08 43.9898 491.665 36.2402 491.491C28.4906 491.318 25.9403 484.905 25.3709 479.978C24.8014 475.051 23.5635 425.112 23.5635 425.112H57.7311Z" fill="#FBBEAA"/>
<path d="M52.9771 460.022H24.4051C23.9099 444.276 23.4395 425.112 23.4395 425.112H57.7309C57.7309 425.112 55.255 443.78 52.9771 460.022Z" fill="#F18380"/>
<path d="M29.5542 316.791C30.3765 310.505 33.6455 304.798 38.6513 300.909C43.657 297.019 49.9952 295.262 56.289 296.019C62.5829 296.775 68.324 299.984 72.2654 304.949C76.2068 309.914 78.0302 316.234 77.3394 322.535L55.7994 464.758H16.7295L29.5542 316.791Z" fill="#93929C"/>
<path d="M77.3153 322.535L55.1064 463.52" stroke="#565656" stroke-width="0.75" stroke-miterlimit="10" stroke-linecap="round"/>
<path d="M77.3398 322.535C77.3398 322.535 89.8679 234.541 92.839 216.764" stroke="#565656" stroke-width="0.75" stroke-miterlimit="10" stroke-linecap="round"/>
<path d="M38.8398 465.89C41.648 465.689 44.4324 466.526 46.6643 468.242C48.8962 469.958 50.4202 472.434 50.947 475.2L63.8712 488.446V496.691H22.4492C22.4492 496.691 24.529 481.835 25.1232 478.493C25.7174 475.15 27.7229 465.89 38.8398 465.89Z" fill="#FBBEAA"/>
<path d="M50.9218 475.101C51.3922 474.457 52.0607 473.962 52.5311 474.259C53.0016 474.556 65.5049 484.459 66.0992 484.955C66.4651 485.298 66.742 485.726 66.9059 486.2C67.0698 486.675 67.1158 487.182 67.04 487.678V498.3H21.5327C21.5327 498.3 23.3153 482.603 23.4391 481.736C23.5629 480.869 24.4295 479.73 24.9247 479.755C28.0482 480.712 31.2898 481.229 34.556 481.29C38.897 481.52 43.2272 480.67 47.1584 478.814C48.616 477.801 49.8889 476.545 50.9218 475.101Z" fill="black"/>
<path d="M59.5629 489.387C57.3594 487.752 49.4364 481.563 46.4653 479.235L47.1586 478.889C47.2521 478.848 47.3364 478.789 47.4062 478.715C50.5754 481.191 58.0278 487.034 60.1571 488.619C61.9571 489.998 63.1901 491.989 63.6234 494.215L62.6578 494.363C62.2494 492.39 61.1524 490.626 59.5629 489.387Z" fill="white"/>
<path d="M22.7706 487.48C25.9777 487.513 29.0813 488.62 31.5849 490.625C33.8477 492.63 35.3805 495.329 35.9425 498.3H34.6055C34.0586 495.726 32.7057 493.393 30.7431 491.64C28.4388 489.794 25.5742 488.79 22.6221 488.792L22.7706 487.48Z" fill="white"/>
<path d="M74.3935 498.275H21.5328C21.1636 498.275 20.8643 498.575 20.8643 498.944V504.069C20.8643 504.438 21.1636 504.738 21.5328 504.738H74.3935C74.7627 504.738 75.062 504.438 75.062 504.069V498.944C75.062 498.575 74.7627 498.275 74.3935 498.275Z" fill="white"/>
<path d="M65.9754 484.856C66.4459 484.658 68.7485 485.326 71.7443 488.272C72.9917 489.562 73.8896 491.148 74.3531 492.881C74.8167 494.614 74.8306 496.436 74.3936 498.176H59.3647C60.2066 488.668 65.505 485.054 65.9754 484.856Z" fill="white"/>
<path d="M60.2068 485.005C60.0213 485.232 59.9328 485.523 59.9606 485.815C59.9884 486.107 60.1303 486.376 60.3554 486.565C60.4659 486.656 60.5933 486.724 60.7303 486.766C60.8673 486.808 61.0112 486.822 61.1537 486.809C61.2963 486.795 61.4348 486.753 61.5612 486.686C61.6876 486.618 61.7995 486.527 61.8904 486.416L64.3664 483.42C64.5519 483.193 64.6404 482.902 64.6126 482.61C64.5848 482.318 64.4429 482.048 64.2178 481.86C64.1088 481.766 63.9817 481.695 63.8443 481.651C63.7069 481.607 63.562 481.592 63.4184 481.606C63.2749 481.619 63.1357 481.662 63.0092 481.732C62.8827 481.801 62.7717 481.895 62.6827 482.009L60.2068 485.005Z" fill="white"/>
<path d="M57.2605 482.751C57.075 482.978 56.9865 483.27 57.0143 483.562C57.0421 483.854 57.184 484.123 57.4091 484.311C57.5181 484.406 57.6452 484.477 57.7827 484.521C57.9201 484.564 58.0649 484.58 58.2085 484.566C58.352 484.552 58.4913 484.509 58.6177 484.44C58.7442 484.37 58.8553 484.276 58.9442 484.163L61.4201 481.167C61.5996 480.937 61.6843 480.647 61.6567 480.357C61.629 480.067 61.4912 479.798 61.2715 479.607C61.1625 479.512 61.0354 479.441 60.898 479.397C60.7606 479.354 60.6157 479.338 60.4721 479.352C60.3286 479.366 60.1894 479.409 60.0629 479.478C59.9364 479.548 59.8254 479.642 59.7365 479.755L57.2605 482.751Z" fill="white"/>
<path d="M54.4132 480.523C54.2261 480.743 54.1341 481.029 54.1573 481.316C54.1806 481.604 54.3171 481.871 54.537 482.058C54.7642 482.244 55.0554 482.332 55.3474 482.305C55.6394 482.277 55.9087 482.135 56.0968 481.91L58.5727 478.914C58.6768 478.812 58.7595 478.691 58.8159 478.557C58.8724 478.423 58.9015 478.279 58.9015 478.134C58.9015 477.989 58.8724 477.845 58.8159 477.711C58.7595 477.577 58.6768 477.456 58.5727 477.354C58.3431 477.174 58.0534 477.09 57.7632 477.117C57.473 477.145 57.2045 477.283 57.0129 477.503L54.4132 480.523Z" fill="white"/>
<path d="M51.5412 478.27C51.45 478.381 51.3815 478.508 51.3396 478.645C51.2977 478.782 51.2833 478.926 51.2971 479.069C51.3109 479.211 51.3526 479.35 51.42 479.476C51.4874 479.602 51.579 479.714 51.6897 479.805C51.898 480.009 52.178 480.124 52.4696 480.124C52.7613 480.124 53.0413 480.009 53.2495 479.805L55.7255 476.785C55.911 476.557 55.9995 476.266 55.9717 475.974C55.9439 475.682 55.802 475.413 55.5769 475.225C55.4664 475.134 55.339 475.065 55.202 475.023C55.065 474.981 54.9211 474.967 54.7785 474.981C54.636 474.994 54.4975 475.036 54.3711 475.104C54.2447 475.171 54.1328 475.263 54.0418 475.373L51.5412 478.27Z" fill="white"/>
<path d="M97.0234 465.89C99.8316 465.689 102.616 466.526 104.848 468.242C107.08 469.958 108.604 472.434 109.131 475.2L122.03 488.446V496.691H80.6328C80.6328 496.691 82.6878 481.835 83.3068 478.493C83.9257 475.15 85.9065 465.89 97.0234 465.89Z" fill="#FBBEAA"/>
<path d="M109.106 475.101C109.576 474.457 110.22 473.962 110.715 474.259C111.21 474.556 123.689 484.459 124.258 484.955C124.828 485.45 125.224 486.069 125.224 487.678V498.3H79.7168C79.7168 498.3 81.4994 482.603 81.6232 481.736C81.747 480.869 82.6136 479.73 83.1088 479.755C86.2322 480.712 89.4739 481.229 92.7401 481.29C97.0734 481.525 101.397 480.674 105.318 478.814C106.787 477.806 108.069 476.549 109.106 475.101Z" fill="black"/>
<path d="M117.747 489.387C115.543 487.752 107.621 481.563 104.649 479.235L105.318 478.889C105.419 478.849 105.511 478.79 105.59 478.715C108.759 481.191 116.212 487.034 118.341 488.619C120.141 489.998 121.374 491.989 121.807 494.215L120.842 494.363C120.421 492.394 119.327 490.634 117.747 489.387Z" fill="white"/>
<path d="M80.9542 487.48C84.1613 487.513 87.2648 488.62 89.7685 490.625C92.0313 492.63 93.5642 495.329 94.1261 498.3H92.7891C92.2355 495.723 90.8737 493.389 88.9019 491.64C86.6092 489.791 83.751 488.786 80.8057 488.792L80.9542 487.48Z" fill="white"/>
<path d="M132.577 498.275H79.7164C79.3472 498.275 79.0479 498.575 79.0479 498.944V504.069C79.0479 504.438 79.3472 504.738 79.7164 504.738H132.577C132.946 504.738 133.246 504.438 133.246 504.069V498.944C133.246 498.575 132.946 498.275 132.577 498.275Z" fill="white"/>
<path d="M124.159 484.856C124.63 484.658 126.933 485.326 129.928 488.272C131.176 489.562 132.074 491.148 132.537 492.881C133.001 494.614 133.015 496.436 132.578 498.176H117.549C118.391 488.668 123.689 485.054 124.159 484.856Z" fill="white"/>
<path d="M118.291 485.005C118.106 485.232 118.017 485.523 118.045 485.815C118.073 486.107 118.215 486.376 118.44 486.565C118.55 486.656 118.678 486.724 118.815 486.766C118.952 486.808 119.096 486.822 119.238 486.809C119.381 486.795 119.519 486.753 119.646 486.686C119.772 486.618 119.884 486.527 119.975 486.416L122.451 483.42C122.63 483.191 122.715 482.901 122.687 482.611C122.66 482.32 122.522 482.052 122.302 481.86C122.193 481.766 122.066 481.695 121.929 481.651C121.791 481.607 121.646 481.592 121.503 481.606C121.359 481.619 121.22 481.662 121.094 481.732C120.967 481.801 120.856 481.895 120.767 482.009L118.291 485.005Z" fill="white"/>
<path d="M115.445 482.751C115.259 482.978 115.171 483.27 115.198 483.562C115.226 483.854 115.368 484.123 115.593 484.311C115.702 484.405 115.829 484.477 115.967 484.52C116.104 484.564 116.249 484.58 116.393 484.566C116.536 484.552 116.675 484.509 116.802 484.44C116.928 484.37 117.039 484.276 117.128 484.162L119.604 481.167C119.784 480.937 119.868 480.647 119.841 480.357C119.813 480.067 119.675 479.798 119.456 479.607C119.228 479.421 118.937 479.333 118.645 479.36C118.353 479.388 118.084 479.53 117.896 479.755L115.445 482.751Z" fill="white"/>
<path d="M112.596 480.523C112.493 480.622 112.411 480.741 112.355 480.873C112.299 481.005 112.27 481.147 112.27 481.29C112.27 481.434 112.299 481.576 112.355 481.707C112.411 481.839 112.493 481.959 112.596 482.058C112.824 482.243 113.115 482.332 113.407 482.304C113.699 482.276 113.968 482.134 114.156 481.909L116.632 478.913C116.818 478.686 116.906 478.395 116.878 478.103C116.851 477.811 116.709 477.542 116.484 477.354C116.373 477.262 116.246 477.194 116.109 477.152C115.972 477.11 115.828 477.096 115.685 477.11C115.543 477.123 115.404 477.165 115.278 477.233C115.151 477.3 115.039 477.392 114.948 477.502L112.596 480.523Z" fill="white"/>
<path d="M109.725 478.27C109.634 478.381 109.565 478.508 109.523 478.645C109.481 478.782 109.467 478.926 109.481 479.069C109.494 479.211 109.536 479.35 109.604 479.476C109.671 479.602 109.763 479.714 109.873 479.805C110.082 480.009 110.362 480.124 110.653 480.124C110.945 480.124 111.225 480.009 111.433 479.805L113.909 476.785C114.095 476.557 114.183 476.266 114.155 475.974C114.128 475.682 113.986 475.413 113.761 475.225C113.65 475.134 113.523 475.065 113.386 475.023C113.249 474.981 113.105 474.967 112.962 474.981C112.82 474.994 112.681 475.036 112.555 475.104C112.428 475.171 112.316 475.263 112.225 475.373L109.725 478.27Z" fill="white"/>
<path d="M120.535 193.002C120.535 193.002 120.535 218.677 120.535 220.088C120.535 221.5 108.155 233.607 91.715 233.607C66.4359 233.607 36.1803 224.372 36.626 218.355C36.9231 214.394 37.2944 193.002 37.2944 193.002H120.535Z" fill="#93929C"/>
<path d="M102.149 84.7053C88.2839 96.5897 74.5013 89.6571 69.9621 83.4673L50.1548 92.133L55.1066 183.742L120.718 186.218L118.242 98.3228L102.149 84.7053Z" fill="white"/>
<path d="M120.615 92.6033C117.966 90.8702 100.807 80.9665 100.807 80.9665V211.546C102.709 213.399 103.098 213.355 105.83 213.046L105.957 213.032C111.862 211.549 117.56 209.337 122.917 206.446C122.917 206.446 125.195 111.47 125.765 104.24C126.334 97.0104 123.264 94.3364 120.615 92.6033Z" fill="#023783"/>
<path d="M74.3297 213C75.5334 212.745 76.6735 212.251 77.6824 211.546L70.9479 79.6295C70.9479 79.6295 51.512 87.5277 46.3373 89.8303C44.1863 90.7376 42.342 92.245 41.0248 94.1725C39.7077 96.0999 38.9733 98.3659 38.9096 100.7C38.5877 105.057 38.1421 201.643 38.0678 202.484C37.9935 203.326 38.7115 203.797 39.4791 204.242C40.2466 204.688 64.5106 211.769 70.6756 213.032C71.8835 213.266 73.1261 213.255 74.3297 213Z" fill="#023783"/>
<path d="M55.6623 137.508C60.2525 132.865 68.8365 122.855 71.7411 120.417C74.6131 118.253 77.7507 116.467 81.0772 115.101C83.6009 114.256 86.2099 113.69 88.8572 113.415C90.6985 113.182 91.4506 113.727 91.4506 114.842C91.4042 115.506 91.1926 116.148 90.8348 116.71C90.4769 117.271 89.9843 117.735 89.4018 118.057H92.7991C93.9661 118.057 94.7182 118.991 94.1735 120.495C93.6789 121.489 92.9719 122.362 92.1025 123.052C91.233 123.742 90.2225 124.233 89.1424 124.489C89.1424 124.489 93.7327 124.93 94.8997 125.163C96.0667 125.397 96.4298 125.837 96.4298 126.953C96.4197 127.723 96.2056 128.477 95.8093 129.137C95.4129 129.798 94.8485 130.342 94.1735 130.713C92.5215 131.383 90.7678 131.769 88.9868 131.854C88.9868 131.854 94.6663 133.28 95.8074 133.695C96.9485 134.11 97.0781 134.862 96.4817 135.848C96.1417 136.542 95.651 137.151 95.0452 137.631C94.4395 138.112 93.7341 138.45 92.9806 138.623C90.8281 139.193 89.3759 138.26 88.5979 138.389C86.9262 138.928 85.2894 139.569 83.6965 140.308C81.3044 142.69 78.3797 144.468 75.1643 145.495C72.7709 146.499 70.5755 147.922 68.6809 149.696C67.7984 150.525 66.7588 151.167 65.6235 151.587C64.4883 152.006 63.2805 152.193 62.0715 152.138C60.8626 152.082 59.677 151.785 58.5851 151.263C57.4931 150.741 56.5169 150.006 55.7142 149.1C51.5648 144.691 52.265 141.009 55.6623 137.508Z" fill="#FBBEAA"/>
<path d="M70.9203 153.293L29.1721 200.239C24.1692 206.907 12.4786 210.571 5.33579 204.394C4.0149 203.236 2.94285 201.823 2.18465 200.239C1.42646 198.655 0.99791 196.933 0.925023 195.179C0.852136 193.424 1.13642 191.673 1.76063 190.032C2.38484 188.39 3.33597 186.893 4.55632 185.63L55.1505 132.671L70.9203 153.293Z" fill="#90A2B7"/>
<path d="M88.8313 118.083C88.8386 118.126 88.8369 118.17 88.8262 118.212C88.8155 118.255 88.7962 118.294 88.7693 118.328C88.7424 118.362 88.7086 118.391 88.6701 118.411C88.6317 118.431 88.5894 118.443 88.546 118.446L86.4195 118.654H85.3821C85.0191 118.654 84.6819 118.784 84.3188 118.809C83.9353 118.925 83.5623 119.072 83.2037 119.25L82.0107 119.743C80.4028 120.391 78.795 120.988 77.602 121.429C76.4091 121.87 75.5792 122.129 75.5792 122.129C75.5135 122.157 75.4397 122.159 75.3725 122.135C75.3053 122.111 75.2495 122.062 75.2162 121.999C75.1678 121.936 75.1416 121.859 75.1416 121.779C75.1416 121.699 75.1678 121.622 75.2162 121.558L77.1612 120.547L79.184 119.587C79.9101 119.25 80.714 118.913 81.518 118.602L82.7369 118.135C83.1289 117.958 83.5371 117.819 83.9557 117.72L85.2006 117.591H86.2639H87.8458H88.4423C88.5076 117.539 88.5908 117.515 88.6734 117.525C88.7561 117.535 88.8316 117.577 88.8832 117.642C88.9348 117.708 88.9583 117.791 88.9485 117.874C88.9388 117.956 88.8966 118.032 88.8313 118.083ZM88.3385 124.333H87.8717C87.4835 124.299 87.0929 124.299 86.7047 124.333L85.9008 124.463C85.6044 124.5 85.3101 124.552 85.019 124.619L83.2556 125.189C82.0626 125.578 80.8956 126.071 80.0139 126.434C80.0139 126.434 79.7286 126.434 79.7545 126.564H79.4433L78.9765 126.693H78.6913H78.5356C78.4573 126.712 78.3893 126.76 78.3458 126.828C78.3023 126.895 78.2867 126.977 78.3023 127.056C78.3136 127.118 78.3451 127.175 78.3921 127.217C78.439 127.26 78.4986 127.285 78.5616 127.29H79.8842H80.2991C81.2068 127.056 82.4256 126.693 83.6186 126.278L85.3562 125.63L86.1601 125.422L86.8603 125.215C87.2184 125.109 87.5821 125.022 87.9495 124.956L88.3904 124.826C88.4296 124.814 88.4661 124.795 88.4977 124.769C88.5294 124.743 88.5556 124.711 88.5749 124.675C88.5942 124.638 88.6061 124.599 88.6101 124.558C88.614 124.517 88.6099 124.476 88.5979 124.437C88.5672 124.399 88.5272 124.369 88.4818 124.351C88.4363 124.333 88.387 124.327 88.3385 124.333ZM88.3385 131.698H87.379C87.1196 131.698 86.7826 131.698 86.4454 131.88L85.3821 132.217C84.7131 132.453 84.0628 132.739 83.4371 133.073C83.1494 133.208 82.872 133.364 82.6072 133.54C82.5543 133.601 82.5252 133.679 82.5252 133.76C82.5252 133.841 82.5543 133.919 82.6072 133.981C82.6817 134.059 82.7841 134.106 82.8925 134.11L83.8521 133.955C84.3967 133.825 85.0969 133.618 85.7971 133.384L86.8084 132.969L87.6902 132.632C87.9838 132.502 88.2696 132.355 88.546 132.191C88.6194 132.148 88.6735 132.078 88.6976 131.996C88.7216 131.914 88.7138 131.827 88.6757 131.75C88.5988 131.701 88.5062 131.683 88.4163 131.698H88.3385Z" fill="#F18380"/>
<path d="M108.207 116.168H108.938V117.114H109.719V116.168H110.45V118.754H109.719V117.73H108.938V118.754H108.206V116.168H108.207ZM113.061 116.168V118.754H112.354V116.781H111.891V117.523C111.891 117.857 111.866 118.265 111.671 118.495C111.477 118.751 111.11 118.829 110.696 118.751V118.11C111.085 118.188 111.184 118.033 111.184 117.521V116.163H113.061V116.168ZM113.671 116.168H114.403L114.817 117.704L115.23 116.168H115.962L116.304 118.754H115.622L115.452 117.37L115.06 118.754H114.573L114.184 117.37L114.014 118.754H113.331L113.671 116.168L113.671 116.168ZM116.573 116.168H117.304V117.218L118.011 116.168H118.816L117.89 117.448L118.841 118.754H117.964L117.307 117.704V118.754H116.575V116.168H116.573H116.573ZM113.425 113.401C109.036 113.401 106.133 115.066 106.133 117.523C106.133 119.956 109.034 121.645 113.425 121.645C117.839 121.645 120.718 119.954 120.718 117.523C120.718 115.066 117.841 113.401 113.425 113.401ZM113.425 121.262C109.303 121.262 106.549 119.752 106.549 117.523C106.549 115.271 109.305 113.784 113.425 113.784C117.57 113.784 120.304 115.268 120.304 117.523C120.304 119.752 117.573 121.262 113.425 121.262ZM113.425 114.143C109.549 114.143 106.963 115.501 106.963 117.523C106.963 119.545 109.549 120.903 113.425 120.903C117.302 120.903 119.888 119.545 119.888 117.523C119.89 115.501 117.304 114.143 113.425 114.143ZM113.425 120.828C109.596 120.828 107.037 119.496 107.037 117.525C107.037 115.555 109.598 114.223 113.425 114.223C117.253 114.223 119.814 115.555 119.814 117.525C119.816 119.496 117.255 120.828 113.425 120.828V120.828Z" fill="white"/>
<circle cx="107.353" cy="137.343" r="2.5" fill="#90A2B7"/>
<circle cx="107.353" cy="150.143" r="2.5" fill="#90A2B7"/>
<circle cx="107.353" cy="162.333" r="2.5" fill="#90A2B7"/>
</svg>
