<svg width="190" height="514" viewBox="0 0 190 514" fill="none" xmlns="http://www.w3.org/2000/svg">
<path d="M136.544 21.4018C137.998 26.9633 138.86 32.6627 139.117 38.4053C139.421 43.1849 141.003 47.7953 143.695 51.756C146.268 55.0744 149.638 58.5214 148.403 68.8109H82.5239C82.5239 68.8109 79.9516 63.6661 83.0385 54.8429C86.6745 43.9502 89.3514 32.7606 91.0385 21.4018H136.544Z" fill="#BC664A"/>
<path d="M123.939 51.7561V73.5957C123.939 73.5957 122.215 81.1328 110.665 81.1328C108.372 81.3262 106.092 80.6342 104.294 79.199C102.495 77.7638 101.314 75.6943 100.993 73.4156V51.7561H123.939Z" fill="#FBBEAA"/>
<path d="M100.993 70.0458C108.247 73.4671 118.82 70.4059 123.939 60.9138V51.7561H100.993V70.0458Z" fill="#F18380"/>
<path d="M86.6655 35.061C86.5556 40.2925 86.7877 45.5256 87.36 50.7269C88.3118 58.1354 90.9357 66.367 104.081 66.367C117.225 66.367 123.888 60.4505 126.718 50.7269C128.415 44.8361 131.862 36.1672 130.448 26.1091C129.033 16.0511 122.988 9.5172 108.711 9.13135C94.4341 8.74549 85.0963 15.1765 86.6655 35.061Z" fill="#FBBEAA"/>
<path d="M114.447 39.5373C114.356 39.9161 114.16 40.2617 113.882 40.5348C113.604 40.8079 113.255 40.9976 112.874 41.0822C112.494 41.1668 112.097 41.1431 111.73 41.0136C111.362 40.8842 111.038 40.6543 110.795 40.3499C110.551 40.0456 110.398 39.6791 110.352 39.292C110.307 38.905 110.371 38.5129 110.537 38.1603C110.703 37.8078 110.965 37.5088 111.292 37.2975C111.62 37.0862 112 36.971 112.389 36.9649C112.695 36.9935 112.993 37.0834 113.263 37.2293C113.534 37.3752 113.772 37.5742 113.964 37.8142C114.156 38.0543 114.298 38.3306 114.381 38.6266C114.464 38.9227 114.487 39.2324 114.447 39.5373Z" fill="#403D4F"/>
<path d="M95.3861 39.5373C95.2946 39.9161 95.0987 40.2617 94.8207 40.5348C94.5426 40.8079 94.1936 40.9976 93.8132 41.0822C93.4328 41.1668 93.0362 41.1431 92.6686 41.0136C92.301 40.8842 91.977 40.6543 91.7336 40.3499C91.4901 40.0456 91.3369 39.6791 91.2913 39.292C91.2457 38.905 91.3096 38.5129 91.4757 38.1603C91.6418 37.8078 91.9034 37.5088 92.2309 37.2975C92.5583 37.0862 92.9385 36.971 93.3282 36.9649C93.633 36.9969 93.9283 37.089 94.1972 37.236C94.4661 37.383 94.7031 37.5819 94.8946 37.8212C95.086 38.0605 95.228 38.3354 95.3124 38.6299C95.3967 38.9245 95.4218 39.2329 95.3861 39.5373Z" fill="#403D4F"/>
<path d="M108.248 32.2576C108.248 32.2576 108.248 32.2576 108.454 32.0518C108.661 31.8501 108.895 31.6771 109.148 31.5374C109.473 31.3517 109.818 31.2049 110.177 31.1001C111.014 30.8703 111.884 30.7833 112.75 30.8428C113.114 30.8616 113.475 30.9132 113.83 30.9972L114.833 31.2801C114.999 31.3335 115.137 31.4493 115.219 31.603C115.301 31.7567 115.319 31.9361 115.271 32.1033C115.228 32.2348 115.146 32.3499 115.035 32.4328C114.925 32.5157 114.791 32.5624 114.653 32.5663H112.724C112.39 32.541 112.055 32.541 111.721 32.5663C111.39 32.5967 111.063 32.657 110.743 32.7464C110.409 32.7464 110.177 32.9264 109.92 32.9522C109.737 33.0291 109.548 33.0894 109.354 33.1322H109.123C108.962 33.2021 108.781 33.2061 108.617 33.1436C108.453 33.0811 108.321 32.9569 108.248 32.7978C108.21 32.7084 108.19 32.6121 108.19 32.5149C108.19 32.4176 108.21 32.3213 108.248 32.2319V32.2576Z" fill="#403D4F"/>
<path d="M95.7206 33.2349C95.7206 33.2349 95.7206 33.2349 95.5662 33.2349L95.1804 33.0805H94.8974C94.7957 33.0582 94.6904 33.0582 94.5887 33.0805C94.3614 33.0054 94.1294 32.9453 93.8942 32.9005C93.6549 32.8737 93.4133 32.8737 93.1739 32.9005H91.7077C91.621 32.9005 91.5352 32.8831 91.4554 32.8492C91.3757 32.8153 91.3036 32.7656 91.2436 32.7031C91.1835 32.6406 91.1367 32.5667 91.1059 32.4857C91.0752 32.4046 91.0611 32.3182 91.0646 32.2317C91.0695 32.104 91.1109 31.9805 91.1838 31.8757C91.2568 31.7708 91.3582 31.689 91.4762 31.64L92.2736 31.357C92.5582 31.2719 92.8517 31.2201 93.1482 31.2027C93.4979 31.1517 93.8532 31.1517 94.2029 31.2027C94.8744 31.2869 95.5126 31.5439 96.055 31.9487L96.5438 32.4374C96.6724 32.5918 96.6724 32.6432 96.6724 32.669V32.9005C96.695 33.0771 96.6489 33.2557 96.5435 33.3994C96.4382 33.543 96.2817 33.6407 96.1064 33.6722C95.9302 33.5766 95.7935 33.4216 95.7206 33.2349Z" fill="#403D4F"/>
<path d="M100.994 48.3094C100.56 48.3069 100.131 48.2167 99.7335 48.0443C99.3356 47.8719 98.9767 47.6208 98.6784 47.3061C98.5694 47.1895 98.4857 47.0516 98.4326 46.9011C98.3795 46.7506 98.3581 46.5907 98.3697 46.4315C98.3697 46.1486 98.8071 42.5987 98.9614 41.2867C98.991 41.1598 99.0634 41.047 99.1665 40.9674C99.2696 40.8877 99.397 40.846 99.5273 40.8494C99.6593 40.8686 99.7788 40.9384 99.8604 41.044C99.9419 41.1496 99.9793 41.2827 99.9646 41.4154C99.9646 41.5954 99.3987 46.2515 99.3473 46.5601C99.5579 46.7933 99.8162 46.9783 100.105 47.1026C100.393 47.2269 100.705 47.2875 101.019 47.2804C101.151 47.287 101.276 47.3441 101.367 47.4399C101.458 47.5357 101.508 47.6628 101.508 47.7949C101.502 47.9293 101.446 48.0566 101.35 48.1517C101.255 48.2469 101.128 48.3031 100.994 48.3094Z" fill="#F18380"/>
<path d="M98.6272 53.3768C97.6754 53.6083 97.3152 55.0489 97.9069 56.7209C98.4905 57.8722 99.4452 58.7929 100.617 59.3344C101.789 59.8759 103.109 60.0064 104.364 59.7049C105.049 59.6723 105.72 59.5031 106.339 59.2072C106.958 58.9112 107.511 58.4946 107.967 57.9817C108.422 57.4688 108.77 56.87 108.991 56.2206C109.211 55.5711 109.3 54.8841 109.251 54.2C109.251 53.0938 108.479 52.4507 107.039 52.4507C104.214 52.5262 101.401 52.8359 98.6272 53.3768Z" fill="#73102A"/>
<path d="M109.251 54.3286V54.0971C107.368 53.662 105.391 53.9491 103.709 54.9017C102.028 55.8544 100.765 57.4031 100.17 59.2419C101.494 59.8904 102.982 60.1236 104.441 59.9107C105.126 59.8687 105.796 59.6898 106.412 59.3847C107.027 59.0796 107.575 58.6544 108.023 58.1341C108.471 57.6139 108.811 57.0091 109.022 56.3556C109.233 55.702 109.311 55.0128 109.251 54.3286Z" fill="#D65155"/>
<path d="M99.4504 54.9203C102.708 54.9708 105.951 54.4752 109.045 53.454C108.852 53.1036 108.556 52.8201 108.198 52.641C107.84 52.4619 107.436 52.3956 107.039 52.4508C104.214 52.5262 101.401 52.836 98.6273 53.3769C98.3613 53.4685 98.1286 53.6374 97.959 53.8619C97.7895 54.0864 97.6908 54.3564 97.6755 54.6373C98.2449 54.8394 98.8464 54.9353 99.4504 54.9203Z" fill="white"/>
<path d="M113.752 24.9522C113.752 24.9522 116.325 37.8141 127.232 42.8046C127.232 42.8046 138.344 36.3479 137.058 24.0261C135.463 8.84902 113.907 -8.23165 92.453 7.92296C90.3694 7.58855 88.1057 3.18976 88.7745 0C87.8976 0.551018 87.2074 1.35385 86.7943 2.3035C86.3811 3.25315 86.2641 4.30539 86.4586 5.3226C86.6532 6.33981 87.1502 7.27462 87.8847 8.00477C88.6191 8.73492 89.5569 9.22641 90.5752 9.41495C87.0733 9.90282 83.8952 11.7246 81.7047 14.5C79.5141 17.2754 78.4804 20.7897 78.8194 24.3091C78.9291 26.528 79.853 28.6286 81.4144 30.209C82.9758 31.7893 85.0651 32.7386 87.2825 32.8751H91.064C93.9894 31.5344 96.3549 29.2144 97.7522 26.3155C97.3883 28.5007 96.6299 30.6013 95.5141 32.515C95.3083 32.9009 95.7714 33.5697 98.9355 32.9009C102.568 31.6514 105.604 29.0924 107.45 25.7239C106.758 27.9327 105.836 30.0624 104.698 32.0777C104.698 32.4636 106.37 33.0295 108.839 31.8976C110.215 31.2995 111.4 30.3359 112.266 29.1114C113.132 27.8868 113.646 26.4484 113.752 24.9522Z" fill="#BC664A"/>
<path d="M96.8776 35.0614C97.8037 35.0614 98.1638 36.7592 98.1638 38.3798C98.0692 40.5749 97.4139 42.7093 96.2603 44.5792C95.7883 45.1435 95.1762 45.5737 94.4853 45.8265C93.7945 46.0794 93.0493 46.146 92.3245 46.0198C91.442 46.1563 90.5403 46.0981 89.6827 45.8492C88.825 45.6004 88.0322 45.1669 87.3598 44.5792C85.9438 42.8058 85.1005 40.6437 84.9418 38.3798C84.9418 36.7592 85.4305 35.0614 86.5881 35.0614H96.8776Z" stroke="#403D4F" stroke-width="0.75" stroke-miterlimit="10"/>
<path d="M104.647 35.0614C103.412 35.0614 102.923 36.7592 102.923 38.3798C103.092 40.6691 103.994 42.8431 105.495 44.5792C106.206 45.1627 107.031 45.5921 107.916 45.8401C108.802 46.0881 109.73 46.1493 110.64 46.0198C112.952 46.3171 115.296 45.8084 117.277 44.5792C119.083 42.9853 120.23 40.7746 120.492 38.3798C120.492 36.7592 119.875 35.0614 118.306 35.0614H104.647Z" stroke="#403D4F" stroke-width="0.75" stroke-miterlimit="10"/>
<path d="M97.9578 36.6048C98.697 36.0416 99.6007 35.7365 100.53 35.7365C101.46 35.7365 102.363 36.0416 103.103 36.6048" stroke="#403D4F" stroke-width="0.75" stroke-miterlimit="10"/>
<path d="M118.356 35.0614H121.495C122.164 35.0614 122.935 35.2157 122.935 36.1161V37.5566C122.935 37.9168 120.646 38.637 120.363 39.4345" stroke="#403D4F" stroke-width="0.75" stroke-miterlimit="10"/>
<path d="M129.778 38.8175L122.936 36.1165" stroke="#403D4F" stroke-width="0.75" stroke-miterlimit="10"/>
<path d="M126.255 44.708C126.461 41.2096 127.387 37.1195 131.657 37.7369C136.648 38.5086 137.136 52.0136 126.512 50.393L126.255 44.708Z" fill="#FBBEAA"/>
<path d="M132.017 45.6085C131.927 45.6097 131.839 45.5864 131.762 45.541C131.685 45.4957 131.622 45.43 131.579 45.3512C131.466 45.1285 131.298 44.9384 131.091 44.7988C130.884 44.6593 130.645 44.5749 130.396 44.5538C130.099 44.557 129.808 44.6369 129.551 44.7856C129.294 44.9343 129.08 45.1469 128.93 45.4027C128.868 45.4906 128.779 45.556 128.677 45.5885C128.575 45.621 128.465 45.619 128.364 45.5827C128.255 45.5526 128.161 45.4836 128.099 45.3888C128.037 45.2941 128.013 45.18 128.029 45.0683C128.074 43.9863 128.411 42.9366 129.004 42.0307C129.597 41.1248 130.425 40.3966 131.399 39.9235C131.465 39.8846 131.538 39.8607 131.614 39.8536C131.69 39.8464 131.766 39.8562 131.838 39.8822C131.909 39.9082 131.974 39.9498 132.028 40.0039C132.081 40.0581 132.122 40.1234 132.147 40.1953C132.173 40.2671 132.181 40.3436 132.174 40.4194C132.166 40.4951 132.141 40.5681 132.101 40.6332C132.062 40.6983 132.008 40.7537 131.945 40.7956C131.881 40.8374 131.809 40.8647 131.734 40.8753C131.155 41.1563 130.641 41.5521 130.22 42.0385C129.8 42.525 129.484 43.092 129.29 43.7049C129.649 43.5278 130.048 43.448 130.447 43.4734C130.863 43.5127 131.263 43.6527 131.613 43.8813C131.962 44.1099 132.251 44.4201 132.454 44.7853C132.51 44.9022 132.52 45.036 132.482 45.1601C132.444 45.2841 132.36 45.3891 132.248 45.4541L132.017 45.6085Z" fill="#F18380"/>
<path d="M22.0306 78.8224C21.9302 76.63 22.5171 74.4611 23.7093 72.6184C25.5447 70.4902 26.9198 68.0052 27.7479 65.3197C28.385 62.8268 29.4026 60.4469 30.7648 58.2641C31.738 56.926 33.1978 55.8312 33.1978 54.8094C33.1978 53.7876 31.2514 51.8169 28.4779 52.3765C27.2899 52.7465 26.1983 53.3747 25.2814 54.2159C24.3645 55.0571 23.6449 56.0905 23.174 57.2423C22.9083 56.5405 22.7525 55.802 22.7118 55.0527L22.1036 40.1389C22.0944 39.7522 22.0077 39.3714 21.8489 39.0188C21.69 38.6662 21.462 38.349 21.1786 38.0859C20.8951 37.8229 20.5618 37.6192 20.1984 37.4871C19.8349 37.355 19.4487 37.297 19.0625 37.3166C18.4476 37.3429 17.8563 37.5612 17.3719 37.9408C16.8874 38.3205 16.5343 38.8425 16.3619 39.4333V38.7521C16.2683 38.0271 15.904 37.3643 15.3419 36.8969C14.7799 36.4294 14.0618 36.1918 13.3319 36.2318C12.602 36.2719 11.9143 36.5866 11.4068 37.1127C10.8993 37.6388 10.6096 38.3375 10.5959 39.0684V41.1364C10.3522 40.4988 9.88752 39.97 9.28658 39.6464C8.68564 39.3227 7.98843 39.2259 7.322 39.3733C6.65558 39.5207 6.06431 39.9027 5.65598 40.4496C5.24764 40.9965 5.0494 41.672 5.09741 42.3528V43.6666C4.83555 43.2064 4.44531 42.8324 3.97435 42.5905C3.5034 42.3485 2.97214 42.249 2.44553 42.3041C1.72439 42.3957 1.06723 42.7643 0.613117 43.3319C0.159008 43.8996 -0.0563889 44.6216 0.0126076 45.3453L1.20472 57.9235C1.98567 65.015 3.45233 72.014 5.58403 78.8224C5.6098 79.9591 5.87317 81.0779 6.35716 82.1068C6.84116 83.1357 7.53508 84.052 8.39435 84.7967C9.25362 85.5414 10.2592 86.0981 11.3465 86.4309C12.4337 86.7637 13.5786 86.8654 14.7075 86.7294C15.7291 86.7635 16.7461 86.5775 17.6895 86.184C18.6329 85.7904 19.4806 85.1986 20.1752 84.4487C20.8698 83.6987 21.395 82.8081 21.7151 81.8374C22.0352 80.8666 22.1428 79.8384 22.0306 78.8224Z" fill="#FBBEAA"/>
<path d="M104.02 475.876C104.02 473.533 103.09 471.287 101.433 469.631C99.7771 467.975 97.5308 467.044 95.1885 467.044C92.8462 467.044 90.5999 467.975 88.9436 469.631C87.2874 471.287 86.357 473.533 86.357 475.876V495.071H104.02V475.876Z" fill="#FBBEAA"/>
<path d="M86.9894 479.452C84.8241 479.452 84.4348 480.401 83.8023 481.642C82.7763 484.949 81.0222 487.983 78.6688 490.522C75.1554 493.515 71.3861 496.193 67.4044 498.527V508.696H106.72C106.72 508.696 106.453 500.667 106.258 494.999C106.064 489.33 105.504 482.421 105.553 481.691C105.601 480.961 105.553 479.452 104.215 479.452H86.9894Z" fill="#302D3B"/>
<path d="M101.831 495.558C101.835 496.806 101.469 498.028 100.779 499.068C100.088 500.108 99.1043 500.919 97.9519 501.399C96.7995 501.879 95.5305 502.006 94.3059 501.764C93.0813 501.521 91.9563 500.921 91.0736 500.038C90.1909 499.155 89.5903 498.03 89.3479 496.806C89.1055 495.581 89.2324 494.312 89.7123 493.16C90.1922 492.007 91.0037 491.023 92.0437 490.333C93.0836 489.642 94.3052 489.276 95.5535 489.281C97.2163 489.287 98.8092 489.951 99.985 491.126C101.161 492.302 101.824 493.895 101.831 495.558Z" fill="#93929C"/>
<path d="M95.5538 491.86L96.9893 493.977L99.4465 494.682L97.8895 496.701L97.9624 499.256L95.5538 498.38L93.1452 499.256L93.2426 496.701L91.6611 494.682L94.1184 493.977L95.5538 491.86Z" fill="white"/>
<path d="M67.6722 498.356C67.6722 498.356 62.1008 501.3 60.0085 502.736C59.0398 503.392 58.253 504.283 57.7212 505.325C57.1895 506.367 56.9302 507.527 56.9673 508.696H72.2461C72.2461 508.696 71.9298 501.227 67.6722 498.356Z" fill="white"/>
<path d="M106.72 508.696V512.905C106.72 513.611 106.088 514 105.017 514H58.6458C57.5997 514 56.9671 513.611 56.9671 512.905V508.696H106.72Z" fill="white"/>
<path d="M72.2462 495.51C72.1115 495.303 71.9014 495.157 71.6607 495.102C71.4199 495.048 71.1674 495.089 70.9568 495.218C70.8519 495.282 70.7609 495.367 70.6892 495.467C70.6176 495.567 70.5667 495.681 70.5395 495.801C70.5123 495.921 70.5093 496.045 70.5309 496.167C70.5524 496.288 70.5979 496.404 70.6648 496.507L72.2948 499.135C72.3734 499.271 72.4871 499.383 72.6241 499.46C72.7611 499.537 72.9163 499.576 73.0734 499.573C73.2536 499.57 73.4298 499.519 73.5843 499.427C73.6892 499.362 73.7801 499.277 73.8518 499.177C73.9235 499.077 73.9744 498.963 74.0016 498.843C74.0288 498.723 74.0317 498.599 74.0102 498.478C73.9886 498.356 73.9432 498.241 73.8763 498.137L72.2462 495.51Z" fill="white"/>
<path d="M75.1171 493.49C75.0372 493.397 74.9399 493.321 74.8307 493.266C74.7214 493.211 74.6024 493.178 74.4804 493.169C74.3584 493.16 74.2359 493.175 74.1197 493.214C74.0035 493.252 73.896 493.313 73.8034 493.393C73.7107 493.473 73.6347 493.57 73.5797 493.679C73.5246 493.788 73.4916 493.907 73.4826 494.029C73.4735 494.151 73.4886 494.274 73.527 494.39C73.5653 494.506 73.6262 494.614 73.7061 494.707L75.6037 496.945C75.6913 497.047 75.7992 497.131 75.9207 497.189C76.0422 497.248 76.1745 497.281 76.3093 497.285C76.4855 497.282 76.6573 497.23 76.8055 497.134C76.9536 497.039 77.0723 496.904 77.1481 496.745C77.2239 496.586 77.2538 496.408 77.2346 496.233C77.2153 496.058 77.1477 495.892 77.0391 495.753L75.1171 493.49Z" fill="white"/>
<path d="M77.8172 491.228C77.6237 491.103 77.3914 491.053 77.1636 491.087C76.9359 491.121 76.7282 491.236 76.5793 491.412C76.4304 491.588 76.3505 491.811 76.3545 492.042C76.3584 492.272 76.446 492.493 76.6008 492.663L78.766 494.537C78.9358 494.68 79.1518 494.758 79.3743 494.756C79.5082 494.76 79.6415 494.734 79.7638 494.68C79.8862 494.625 79.9943 494.542 80.0798 494.439C80.1697 494.355 80.2414 494.253 80.2903 494.14C80.3393 494.027 80.3645 493.906 80.3645 493.782C80.3645 493.659 80.3393 493.537 80.2903 493.424C80.2414 493.311 80.1697 493.21 80.0798 493.126L77.8172 491.228Z" fill="white"/>
<path d="M82.5617 490.108L80.1288 488.6C79.9152 488.474 79.6606 488.436 79.4196 488.495C79.1785 488.554 78.9702 488.705 78.8393 488.916C78.7735 489.021 78.7294 489.138 78.7097 489.261C78.69 489.383 78.6951 489.508 78.7246 489.628C78.7541 489.748 78.8074 489.861 78.8814 489.961C78.9555 490.06 79.0487 490.143 79.1556 490.206L81.5886 491.714C81.7328 491.81 81.9021 491.861 82.0752 491.86C82.2337 491.856 82.3885 491.812 82.5249 491.731C82.6612 491.65 82.7744 491.535 82.8537 491.398C82.9823 491.187 83.0238 490.935 82.9693 490.694C82.9147 490.453 82.7685 490.243 82.5617 490.108Z" fill="white"/>
<path d="M84.6056 486.97L81.8807 485.827C81.6484 485.73 81.3872 485.729 81.1545 485.825C80.9218 485.921 80.7368 486.105 80.64 486.338C80.5925 486.451 80.568 486.573 80.568 486.695C80.5681 486.818 80.5927 486.94 80.6402 487.053C80.6878 487.166 80.7575 487.269 80.8451 487.355C80.9328 487.441 81.0368 487.509 81.1509 487.554L83.8758 488.698H84.2407C84.4506 488.686 84.6508 488.606 84.8099 488.468C84.969 488.331 85.078 488.145 85.1198 487.939C85.1615 487.733 85.1337 487.519 85.0406 487.33C84.9476 487.142 84.7945 486.989 84.6056 486.897V486.97Z" fill="white"/>
<path d="M86.3086 483.466L83.2918 482.712C83.053 482.654 82.801 482.693 82.5911 482.821C82.3812 482.949 82.2307 483.155 82.1726 483.394C82.1145 483.632 82.1537 483.884 82.2814 484.094C82.4092 484.304 82.6151 484.455 82.8538 484.513L85.8463 485.291H86.0653C86.2748 485.289 86.478 485.219 86.6446 485.092C86.8111 484.965 86.9322 484.787 86.9898 484.586C87.0419 484.347 87.0003 484.098 86.8734 483.89C86.7465 483.681 86.5443 483.53 86.3086 483.466Z" fill="white"/>
<path d="M116.939 353.111C116.671 341.335 108.74 335.642 96.989 335.934C85.238 336.226 76.7714 342.381 77.039 354.132L86.3571 476.825H104.02L116.939 353.111Z" fill="#FBBEAA"/>
<path d="M178.468 475.876C178.468 473.533 177.538 471.287 175.881 469.631C174.225 467.975 171.979 467.044 169.636 467.044C167.294 467.044 165.048 467.975 163.392 469.631C161.735 471.287 160.805 473.533 160.805 475.876V495.071H178.468V475.876Z" fill="#FBBEAA"/>
<path d="M161.461 479.452C159.272 479.452 158.882 480.401 158.274 481.642C157.236 484.949 155.474 487.982 153.116 490.522C149.607 493.521 145.838 496.199 141.852 498.527V508.696H181.168C181.168 508.696 180.9 500.667 180.706 494.999C180.511 489.33 179.976 482.421 180 481.691C180.024 480.961 180 479.452 178.686 479.452H161.461Z" fill="#302D3B"/>
<path d="M176.302 495.558C176.307 496.805 175.942 498.026 175.252 499.065C174.563 500.105 173.58 500.916 172.429 501.397C171.278 501.877 170.011 502.006 168.787 501.765C167.563 501.525 166.438 500.927 165.554 500.046C164.67 499.166 164.068 498.043 163.823 496.82C163.577 495.597 163.701 494.329 164.177 493.176C164.653 492.024 165.461 491.038 166.498 490.345C167.534 489.651 168.754 489.281 170.001 489.281C171.668 489.281 173.267 489.941 174.448 491.118C175.629 492.294 176.296 493.891 176.302 495.558Z" fill="#93929C"/>
<path d="M170.026 491.86L171.461 493.977L173.918 494.682L172.337 496.701L172.41 499.256L170.026 498.38L167.617 499.256L167.69 496.701L166.109 494.682L168.59 493.977L170.026 491.86Z" fill="white"/>
<path d="M142.144 498.356C142.144 498.356 136.549 501.3 134.481 502.736C133.507 503.387 132.716 504.277 132.184 505.32C131.652 506.363 131.395 507.526 131.44 508.696H146.791C146.791 508.696 146.378 501.227 142.144 498.356Z" fill="white"/>
<path d="M181.168 508.696V512.905C181.168 513.611 180.56 514 179.489 514H133.069C131.999 514 131.39 513.611 131.39 512.905V508.696H181.168Z" fill="white"/>
<path d="M146.694 495.51C146.561 495.3 146.351 495.151 146.109 495.097C145.868 495.042 145.614 495.085 145.404 495.218C145.195 495.35 145.046 495.56 144.991 495.802C144.936 496.044 144.98 496.297 145.112 496.507L146.742 499.135C146.827 499.271 146.945 499.383 147.086 499.46C147.227 499.537 147.385 499.576 147.545 499.573C147.718 499.573 147.888 499.522 148.032 499.427C148.137 499.362 148.228 499.277 148.299 499.177C148.371 499.077 148.422 498.963 148.449 498.843C148.476 498.723 148.479 498.599 148.458 498.478C148.436 498.356 148.391 498.241 148.324 498.137L146.694 495.51Z" fill="white"/>
<path d="M149.589 493.49C149.429 493.303 149.202 493.186 148.957 493.164C148.712 493.141 148.468 493.214 148.276 493.369C148.087 493.533 147.969 493.764 147.947 494.013C147.924 494.262 147.998 494.511 148.154 494.707L150.076 496.945C150.16 497.051 150.268 497.137 150.39 497.196C150.512 497.255 150.646 497.286 150.781 497.285C150.96 497.287 151.135 497.237 151.286 497.142C151.436 497.047 151.556 496.91 151.631 496.748C151.705 496.586 151.731 496.405 151.706 496.229C151.68 496.052 151.604 495.887 151.487 495.753L149.589 493.49Z" fill="white"/>
<path d="M152.265 491.228C152.071 491.103 151.839 491.053 151.611 491.087C151.384 491.121 151.176 491.236 151.027 491.412C150.878 491.588 150.798 491.811 150.802 492.042C150.806 492.272 150.894 492.493 151.049 492.663L153.238 494.537C153.408 494.68 153.624 494.758 153.846 494.756C153.98 494.759 154.113 494.732 154.235 494.677C154.357 494.622 154.465 494.541 154.552 494.439C154.639 494.353 154.708 494.251 154.755 494.138C154.802 494.026 154.826 493.905 154.826 493.782C154.826 493.66 154.802 493.539 154.755 493.427C154.708 493.314 154.639 493.211 154.552 493.126L152.265 491.228Z" fill="white"/>
<path d="M157.009 490.108L154.576 488.6C154.366 488.511 154.132 488.501 153.915 488.572C153.698 488.642 153.514 488.788 153.396 488.982C153.278 489.177 153.234 489.408 153.272 489.633C153.31 489.857 153.427 490.061 153.603 490.206L156.036 491.714C156.18 491.81 156.35 491.861 156.523 491.86C156.685 491.858 156.844 491.815 156.984 491.734C157.125 491.653 157.242 491.537 157.325 491.398C157.452 491.184 157.49 490.93 157.43 490.689C157.371 490.448 157.22 490.239 157.009 490.108Z" fill="white"/>
<path d="M22.3225 80.4527L32.0542 141.543C33.6599 149.207 31.1783 156.141 22.3225 157.357C20.6878 157.57 19.0268 157.449 17.4406 157C15.8543 156.552 14.3757 155.785 13.0947 154.748C11.8136 153.71 10.7569 152.423 9.98854 150.965C9.22019 149.506 8.75632 147.907 8.62507 146.263L5.65689 80.5743C4.87836 74.3704 7.57886 70.2344 12.2987 69.7235C18.0891 69.0909 21.1546 72.5214 22.3225 80.4527Z" fill="#FBBEAA"/>
<path d="M159.053 486.97L156.328 485.827C156.215 485.779 156.093 485.755 155.97 485.755C155.847 485.755 155.726 485.78 155.613 485.827C155.499 485.875 155.397 485.944 155.311 486.032C155.225 486.12 155.157 486.224 155.111 486.338C155.021 486.564 155.02 486.817 155.111 487.043C155.202 487.27 155.376 487.453 155.598 487.554L158.347 488.698C158.459 488.723 158.576 488.723 158.688 488.698C158.875 488.698 159.058 488.642 159.214 488.538C159.37 488.434 159.492 488.287 159.564 488.114C159.638 487.894 159.626 487.654 159.531 487.442C159.437 487.231 159.266 487.062 159.053 486.97Z" fill="white"/>
<path d="M160.756 483.467L157.764 482.713C157.522 482.653 157.266 482.692 157.052 482.819C156.839 482.946 156.683 483.153 156.62 483.394C156.591 483.512 156.586 483.635 156.604 483.755C156.623 483.875 156.665 483.991 156.728 484.095C156.792 484.199 156.875 484.289 156.973 484.361C157.072 484.433 157.183 484.484 157.301 484.513L160.294 485.291H160.537C160.756 485.275 160.963 485.182 161.122 485.03C161.28 484.878 161.381 484.675 161.407 484.457C161.433 484.239 161.382 484.018 161.263 483.833C161.145 483.648 160.965 483.51 160.756 483.442V483.467Z" fill="white"/>
<path d="M168.809 352.745C167.614 347.223 164.274 342.401 159.525 339.34C154.776 336.278 149.005 335.228 143.482 336.42C131.974 338.853 125.77 350.191 128.252 361.699L160.805 478.844H178.687L168.809 352.745Z" fill="#FBBEAA"/>
<path d="M118.472 352.345C118.407 349.549 117.791 346.794 116.661 344.236C115.53 341.678 113.907 339.368 111.884 337.438C109.861 335.507 107.478 333.994 104.87 332.985C102.262 331.976 99.4809 331.49 96.6854 331.555C93.8898 331.621 91.1344 332.236 88.5767 333.367C86.019 334.497 83.7089 336.12 81.7784 338.143C79.8479 340.166 78.3349 342.55 77.3256 345.158C76.3163 347.766 75.8305 350.547 75.896 353.342L70.3723 479.466H118.471L118.472 352.345Z" fill="#93929C"/>
<path d="M168.806 349.741C167.486 344.352 164.115 339.689 159.411 336.746C154.707 333.802 149.04 332.809 143.615 333.979C138.19 335.148 133.436 338.387 130.362 343.007C127.288 347.627 126.137 353.264 127.154 358.719L140.097 478.976C140.097 478.976 171.092 480.825 189.558 478.976L168.806 349.741Z" fill="#93929C"/>
<path d="M14.4154 134.78L84.289 81.6933C92.4393 76.4868 97.9863 79.2604 102.317 84.8318C104.295 87.5284 105.212 90.8582 104.893 94.1871C104.575 97.516 103.043 100.612 100.59 102.884L30.8863 154.243C28.43 156.318 25.2679 157.364 22.0589 157.165C18.85 156.966 15.8417 155.535 13.6612 153.173L13.3449 152.832C12.1876 151.597 11.294 150.14 10.7186 148.549C10.1432 146.957 9.89806 145.265 9.99823 143.576C10.0984 141.886 10.5418 140.235 11.3012 138.723C12.0606 137.211 13.1203 135.869 14.4154 134.78Z" fill="#FBBEAA"/>
<path d="M100.59 102.86C101.235 102.305 101.822 101.685 102.341 101.011C102.801 99.2793 102.86 97.4659 102.514 95.7081C102.169 93.9502 101.427 92.2943 100.346 90.8656C96.6727 85.1969 88.9603 80.7446 85.5299 81.5961L82.1238 83.3235L43.562 112.519C46.9749 120.539 51.585 127.996 57.235 134.634L100.59 102.86Z" fill="#F18380"/>
<path d="M90.0551 77.8978L29.5881 118.679C29.8425 120.765 23.1394 77.8978 23.1394 77.8978L4.17244 80.3662C4.17244 80.3662 4.55846 123.653 7.38994 146.625C8.52031 155.797 16.0835 159.298 25.1116 157.328C29.5691 156.355 33.7654 154.526 37.4997 151.905C53.546 140.642 98.5634 108.919 102.244 104.928C108.594 98.0425 108.594 92.8847 104.945 87.216C101.295 81.5472 93.4856 77.0463 90.0551 77.8978Z" fill="#002B80"/>
<path d="M118.472 353.038L130.953 222.365C130.953 207.938 116.087 192.221 94.1668 195.603C74.3628 198.693 68.3291 218.594 69.9592 237.449C71.5892 256.304 75.9928 353.962 75.9928 353.962C76.0583 356.758 76.6738 359.513 77.8042 362.071C78.9345 364.628 80.5575 366.938 82.5806 368.869C84.6037 370.799 86.9873 372.312 89.5951 373.322C92.203 374.331 94.9841 374.817 97.7797 374.751C100.575 374.686 103.331 374.07 105.888 372.94C108.446 371.81 110.756 370.187 112.687 368.164C114.617 366.14 116.13 363.757 117.139 361.149C118.149 358.541 118.635 355.76 118.569 352.965L118.472 353.038Z" fill="#93929C"/>
<path d="M168.809 350.434L156.401 219.786C153.773 205.602 136.134 193.024 115.236 200.469C96.3803 207.208 94.1907 227.888 99.3485 246.11C104.506 264.333 127.157 359.412 127.157 359.412C128.477 364.802 131.848 369.464 136.552 372.407C141.256 375.351 146.923 376.344 152.348 375.175C157.772 374.005 162.527 370.766 165.601 366.146C168.675 361.526 169.826 355.889 168.809 350.434Z" fill="#93929C"/>
<path d="M99.3489 246.111C104.482 264.333 127.157 359.412 127.157 359.412" stroke="#5E5D63" stroke-width="0.75" stroke-miterlimit="10"/>
<path d="M102.998 75.8297C102.998 75.8297 92.2446 77.703 90.1523 78.2626C88.9176 78.5523 87.7766 79.1508 86.8362 80.0018C85.8958 80.8528 85.1868 81.9286 84.7756 83.1284C83.4375 86.3156 76.5523 107.19 75.9198 109.453C75.4921 111.945 75.8937 114.509 77.0632 116.751C78.0607 119.476 83.2185 131.884 83.2185 131.884L83.997 171.857L113.045 176.464L140.879 171.857C140.879 171.857 150.611 97.5071 151.097 92.9088C151.584 88.3106 149.297 79.4304 143.798 78.3113C138.3 77.1921 123.216 75.8784 123.216 75.8784L102.998 75.8297Z" fill="#FBBEAA"/>
<path d="M82.6333 155.785V169.838C101.659 171.59 131.974 170.349 143.36 169.838C143.896 165.824 144.455 159.012 145.039 154.486C129.541 154.876 103.946 156.32 82.6333 155.785Z" fill="white"/>
<path d="M182.968 168.281L151.802 86.267C147.642 77.5085 141.487 76.9246 134.772 79.3575C131.666 80.5964 129.126 82.936 127.636 85.9295C126.146 88.9229 125.811 92.3603 126.695 95.5851L158.785 176.139C159.758 179.204 161.88 181.773 164.706 183.306C167.532 184.839 170.843 185.218 173.942 184.363L174.404 184.241C176.039 183.795 177.566 183.02 178.892 181.965C180.218 180.909 181.315 179.595 182.116 178.101C182.918 176.608 183.406 174.967 183.553 173.279C183.699 171.59 183.5 169.89 182.968 168.281Z" fill="#FBBEAA"/>
<path d="M170.05 134.268L151.803 86.2668C151.314 85.2142 150.736 84.2049 150.076 83.25C147.841 81.8506 145.282 81.0526 142.648 80.9332C140.013 80.8139 137.393 81.3773 135.04 82.5688C132.309 83.8981 130.113 86.1205 128.817 88.8681C127.52 91.6156 127.201 94.7236 127.912 97.6773C127.912 97.9692 128.082 98.5288 128.228 99.283L147.059 146.603C155.284 143.637 163.03 139.481 170.05 134.268Z" fill="#F18380"/>
<path d="M150.1 81.888L183.673 168.227C155.222 159.123 151.793 165.284 144.149 139.922C144.149 139.922 126.306 98.0425 125.625 94.2958C124.914 91.3422 125.233 88.2343 126.529 85.4867C127.825 82.7392 130.021 80.5167 132.753 79.1874C140.368 75.2947 147.959 78.8225 150.1 81.888Z" fill="#003399"/>
<path d="M156.401 219.154C155.866 212.415 146.312 181.475 138.551 166.756C138.551 166.756 121.988 160.344 111.085 160.38C99.7095 160.417 84.6004 169.208 84.6004 169.208C79.5399 180.667 73.1706 208.352 71.4919 213.753C70.4784 216.93 70.3553 220.325 71.136 223.568C71.9167 226.811 73.5712 229.777 75.9198 232.146C81.6858 238.69 96.551 246.184 99.9814 246.184C114.74 244.075 129.206 240.271 143.093 234.846C150.927 231.562 156.912 225.917 156.401 219.154Z" fill="#93929C"/>
<path d="M106.534 155.79L163.777 179.262C170.863 182.572 178.19 181.744 181.374 173.477C181.957 171.936 182.22 170.292 182.148 168.647C182.076 167.001 181.67 165.386 180.956 163.902C180.242 162.417 179.233 161.094 177.991 160.011C176.75 158.928 175.301 158.108 173.734 157.602L110.527 139.736C104.675 137.551 100.031 139.258 98.4063 143.659C96.4868 149.086 99.1005 152.756 106.534 155.79Z" fill="#FBBEAA"/>
<path d="M100.255 72.0994C100.255 72.0994 86.8319 79.8471 84.7594 81.2029C82.6869 82.5588 83.129 84.8492 80.7306 90.3065C80.044 91.8688 75.03 97.3007 75.2817 105.939C75.9681 129.5 82.9581 170.263 82.9581 170.263C87.1496 172.525 91.6066 174.256 96.2261 175.415C98.4535 175.667 100.216 175.725 101.727 174.253C103.238 172.781 107.693 167.435 107.693 167.435C107.693 167.435 115.034 172.413 118.346 174.253C119.135 174.804 120.027 175.191 120.969 175.39C121.91 175.59 122.882 175.599 123.827 175.415C128.65 174.427 147.632 168.888 148.233 168.539C148.833 168.191 149.395 167.822 149.337 167.164C149.279 166.505 148.93 90.9457 148.678 87.5367C148.628 85.711 148.054 83.9384 147.023 82.4305C145.993 80.9226 144.55 79.7433 142.867 79.0336C138.819 77.2322 123.614 71.0534 123.614 71.0534L107.751 82.0745L100.255 72.0994Z" fill="#003399"/>
<path d="M100.255 69.9305L107.712 82.075C107.712 82.075 100.391 87.8858 99.9647 88.312C99.5386 88.7381 98.6863 88.6993 98.512 88.0214C98.3377 87.3435 96.2264 74.4629 96.1876 74.4629C96.1503 74.3946 96.1308 74.318 96.1308 74.2402C96.1308 74.1623 96.1503 74.0857 96.1876 74.0174C96.3813 73.8818 100.255 69.9305 100.255 69.9305Z" fill="#F5F5F5"/>
<path d="M123.692 67.6832L107.693 82.0746C107.693 82.0746 116.118 87.8854 116.486 88.3115C116.594 88.4028 116.72 88.4686 116.857 88.5038C116.993 88.539 117.136 88.5427 117.274 88.5147C117.412 88.4867 117.541 88.4278 117.653 88.3422C117.765 88.2567 117.856 88.1469 117.92 88.021C118.539 87.0332 128.457 73.1066 128.495 72.9904C128.536 72.9234 128.558 72.8463 128.558 72.7677C128.558 72.689 128.536 72.612 128.495 72.5449C128.282 72.4287 123.692 67.6832 123.692 67.6832Z" fill="#F5F5F5"/>
<g filter="url(#filter0_d_203_226)">
<rect width="40.1477" height="57.2105" rx="1" transform="matrix(-0.993463 -0.114154 -0.114154 0.993463 130.776 116.098)" fill="#EFEFEF"/>
</g>
<path d="M111.926 141.739C109.133 140.559 106.609 138.811 104.512 136.605C103.214 135.243 101.742 134.061 100.136 133.09C99.1934 132.501 98.3801 131.724 97.7471 130.807C96.9107 129.385 96.2186 127.883 95.6812 126.325C95.4821 124.983 95.0256 123.69 94.3373 122.518C93.6829 121.918 91.373 122.239 90.1739 124.569C89.7606 125.607 89.5733 126.725 89.6246 127.847C89.676 128.969 89.9648 130.07 90.4716 131.077C91.0683 132.284 91.5356 133.55 91.8658 134.854L91.648 134.984C89.821 134.014 87.8687 133.311 85.8503 132.895C85.1183 132.731 84.3557 132.82 83.6855 133.146C83.0153 133.472 82.4765 134.018 82.1559 134.694C81.8353 135.37 81.7516 136.138 81.9182 136.874C82.0848 137.61 82.4921 138.271 83.0745 138.75C79.9249 139.112 80.2824 143.97 82.9863 144.612C82.4073 144.855 81.9186 145.272 81.5862 145.807C81.2538 146.341 81.0937 146.968 81.1277 147.601C81.1616 148.235 81.3879 148.845 81.776 149.349C82.1641 149.853 82.6953 150.227 83.2976 150.42C81.3772 152.191 82.781 155.109 86.2682 155.121C89.1015 155.41 96.6791 156.596 99.3154 157.163C101.952 157.731 107.251 156.475 108.953 157.002C111.487 157.931 114.43 157.946 116.675 151.279C118.919 144.611 114.533 142.6 111.926 141.739Z" fill="#FBBEAA"/>
<path d="M21.5443 59.3591C22.4688 59.3591 22.5417 58.7752 22.9553 57.7047C20.8873 57.7047 14.878 58.0939 12.2505 63.1544C14.9024 59.505 19.9872 59.3591 21.5443 59.3591ZM16.8244 40.1146C16.8244 40.1146 16.9703 40.9662 17.1163 42.207C17.1163 42.8395 17.2623 43.5937 17.311 44.3722C17.3596 45.1508 17.4326 46.0023 17.5056 46.8052C17.5056 48.5082 17.6272 50.1869 17.6272 51.4521C17.6272 52.7172 17.6272 53.5687 17.6272 53.5687C17.6273 53.6092 17.6191 53.6493 17.6029 53.6864C17.5868 53.7235 17.563 53.7568 17.5333 53.7842C17.5035 53.8117 17.4684 53.8327 17.4302 53.8459C17.3919 53.859 17.3513 53.864 17.311 53.8606C17.2425 53.8572 17.177 53.8316 17.1243 53.7877C17.0717 53.7438 17.0347 53.6841 17.019 53.6174C17.019 53.6174 16.873 52.7658 16.7514 51.5007C16.6297 50.2356 16.4351 48.5569 16.3621 46.8782C16.3621 46.0266 16.3621 45.1751 16.3621 44.4452C16.3621 43.7153 16.3621 42.9125 16.3621 42.28C16.3621 40.9905 16.3621 40.1633 16.3621 40.1633C16.362 40.1228 16.3702 40.0828 16.3864 40.0456C16.4026 40.0085 16.4263 39.9752 16.456 39.9477C16.4858 39.9203 16.5209 39.8993 16.5592 39.8862C16.5974 39.873 16.6381 39.8679 16.6784 39.8713C16.725 39.8981 16.7633 39.9374 16.7891 39.9846C16.8149 40.0318 16.8271 40.0852 16.8244 40.139V40.1146ZM11.18 41.8177C11.18 41.8177 11.326 42.5476 11.4963 43.618C11.4963 44.1776 11.6666 44.8101 11.7396 45.4914C11.8126 46.1726 11.8855 46.9025 11.9585 47.6324C11.9585 49.0921 12.1288 50.5519 12.1531 51.6467C12.1775 52.7415 12.1531 53.4957 12.1531 53.4957C12.1501 53.5341 12.1394 53.5715 12.1219 53.6057C12.1043 53.64 12.0801 53.6705 12.0507 53.6954C12.0213 53.7202 11.9873 53.7391 11.9506 53.7508C11.9139 53.7624 11.8753 53.7667 11.8369 53.7634C11.7714 53.7588 11.7094 53.7323 11.6609 53.6882C11.6123 53.644 11.58 53.5848 11.5692 53.5201C11.5692 53.5201 11.4233 52.7901 11.253 51.7197C11.0826 50.6492 10.9367 49.1651 10.815 47.7297C10.815 46.9998 10.8151 46.2699 10.6691 45.5887C10.5231 44.9075 10.6691 44.2506 10.6691 43.691C10.6691 42.5962 10.6691 41.8663 10.6691 41.8663C10.6689 41.8259 10.6772 41.7858 10.6934 41.7487C10.7095 41.7116 10.7333 41.6782 10.763 41.6508C10.7927 41.6233 10.8278 41.6024 10.8661 41.5892C10.9044 41.5761 10.945 41.571 10.9854 41.5744C11.0394 41.5967 11.0861 41.6335 11.1204 41.6807C11.1548 41.728 11.1754 41.7837 11.18 41.842V41.8177ZM5.73024 44.1289C5.73024 44.1289 5.87618 44.7372 6.07081 45.6617C6.07081 46.0996 6.26548 46.6349 6.33847 47.2188C6.41146 47.8027 6.50874 48.4109 6.60606 49.0191C6.77636 50.2599 6.84941 51.4521 6.89807 52.4252C6.94673 53.3984 6.89807 53.9823 6.89807 53.9823C6.89821 54.0228 6.88989 54.0628 6.87372 54.0999C6.85755 54.137 6.83381 54.1704 6.80407 54.1979C6.77433 54.2253 6.73922 54.2463 6.70094 54.2594C6.66267 54.2726 6.62211 54.2776 6.58178 54.2743C6.51966 54.271 6.46019 54.248 6.41205 54.2086C6.36391 54.1692 6.32958 54.1156 6.31412 54.0553C6.31412 54.0553 6.14385 53.4471 5.97355 52.5469C5.80324 51.6467 5.55992 50.3816 5.41395 49.1651C5.41395 48.5325 5.29228 47.9243 5.24362 47.3404C5.19497 46.7565 5.24362 46.2213 5.24362 45.759C5.24362 44.8345 5.24362 44.2019 5.24362 44.2019C5.24348 44.1614 5.25181 44.1214 5.26798 44.0843C5.28415 44.0472 5.30781 44.0138 5.33755 43.9864C5.36729 43.9589 5.40247 43.938 5.44075 43.9248C5.47903 43.9117 5.51958 43.9066 5.55992 43.91C5.60483 43.935 5.6435 43.9699 5.67299 44.0121C5.70249 44.0542 5.72206 44.1025 5.73024 44.1533V44.1289Z" fill="#F18380"/>
<path d="M113.047 161.851L165.036 183.922C172.121 187.23 180.49 184.342 183.673 176.075C184.255 174.533 184.294 172.013 184.222 170.367C184.15 168.721 183.744 167.107 183.03 165.623C182.315 164.139 180.991 161.463 179.749 160.38C178.508 159.297 174.083 157.299 172.515 156.793L114.028 140.761L113.047 161.851Z" fill="#003399"/>
<defs>
<filter id="filter0_d_203_226" x="84.4673" y="111.623" width="48.2012" height="61.2045" filterUnits="userSpaceOnUse" color-interpolation-filters="sRGB">
<feFlood flood-opacity="0" result="BackgroundImageFix"/>
<feColorMatrix in="SourceAlpha" type="matrix" values="0 0 0 0 0 0 0 0 0 0 0 0 0 0 0 0 0 0 127 0" result="hardAlpha"/>
<feOffset dx="2"/>
<feComposite in2="hardAlpha" operator="out"/>
<feColorMatrix type="matrix" values="0 0 0 0 0.603922 0 0 0 0 0.6 0 0 0 0 0.631373 0 0 0 1 0"/>
<feBlend mode="normal" in2="BackgroundImageFix" result="effect1_dropShadow_203_226"/>
<feBlend mode="normal" in="SourceGraphic" in2="effect1_dropShadow_203_226" result="shape"/>
</filter>
</defs>
</svg>
