<svg width="253" height="561" viewBox="0 0 253 561" fill="none" xmlns="http://www.w3.org/2000/svg">
<path d="M129.796 19.6658C130.879 15.7603 130.481 11.5924 128.678 7.96264C126.875 4.33284 123.795 1.49707 120.029 0C118.532 1.4966 119.294 6.2752 119.294 6.2752C114.006 3.79708 108.075 3.03509 102.332 4.09595C102.436 7.76762 103.82 11.2875 106.244 14.047C103.306 14.3432 100.481 15.3331 98 16.9352C98.3762 18.6657 99.1579 20.2822 100.281 21.6516C101.404 23.021 102.836 24.1041 104.459 24.812C102.806 26.7471 101.668 29.068 101.151 31.5598C103.971 32.3732 106.951 32.4635 109.815 31.8224C109.353 33.2714 109.166 34.7943 109.264 36.3122C111.984 36.7115 114.758 36.5067 117.39 35.7126C120.022 34.9185 122.447 33.5544 124.492 31.7174C127.205 28.1859 129.025 24.0515 129.796 19.6658Z" fill="#E69D7E"/>
<path d="M113.57 33.8445C113.15 40.6448 108.87 50.9635 109.999 59.6017C111.574 71.7845 126.645 71.6533 132.474 71.6533H141.112V33.8445H113.57Z" fill="#E69D7E"/>
<path d="M126.803 57.6583V79.9497C126.803 79.9497 128.562 87.6165 140.325 87.6165C142.665 87.8139 144.992 87.1076 146.828 85.6427C148.664 84.1778 149.87 82.0655 150.197 79.7396V57.6845L126.803 57.6583Z" fill="#FBBEAA"/>
<path d="M150.197 76.2213C142.819 79.7396 132.028 76.5889 126.803 66.9267V57.6583H150.197V76.2213Z" fill="#F18380"/>
<path d="M164.848 40.539C164.944 45.8705 164.699 51.2027 164.113 56.5028C163.168 64.0908 160.463 72.4927 147.073 72.4927C133.682 72.4927 126.829 66.4276 123.967 56.5028C122.234 50.5164 118.716 41.6418 120.16 31.4019C121.604 21.162 127.774 14.4667 142.32 14.0729C156.866 13.6791 166.345 20.2168 164.848 40.539Z" fill="#FBBEAA"/>
<path d="M136.465 45.1078C136.554 45.5034 136.753 45.8659 137.039 46.1535C137.325 46.441 137.687 46.6419 138.082 46.7331C138.477 46.8242 138.89 46.8019 139.273 46.6687C139.656 46.5355 139.994 46.2968 140.247 45.9801C140.5 45.6635 140.659 45.2817 140.705 44.8787C140.751 44.4758 140.682 44.0681 140.506 43.7025C140.331 43.337 140.055 43.0285 139.712 42.8126C139.369 42.5967 138.971 42.4822 138.566 42.4822C138.255 42.5148 137.953 42.6089 137.679 42.7589C137.404 42.9089 137.162 43.1119 136.967 43.3562C136.772 43.6004 136.627 43.881 136.541 44.1817C136.454 44.4824 136.429 44.7971 136.465 45.1078Z" fill="#403D4F"/>
<path d="M155.973 45.1078C156.062 45.5034 156.261 45.8659 156.547 46.1535C156.833 46.441 157.195 46.6419 157.59 46.7331C157.985 46.8242 158.398 46.8019 158.781 46.6687C159.164 46.5355 159.502 46.2968 159.755 45.9801C160.008 45.6635 160.167 45.2817 160.213 44.8787C160.259 44.4758 160.19 44.0681 160.014 43.7025C159.839 43.337 159.563 43.0285 159.22 42.8126C158.877 42.5967 158.479 42.4822 158.074 42.4822C157.763 42.5148 157.461 42.6089 157.187 42.7589C156.912 42.9089 156.67 43.1119 156.475 43.3562C156.28 43.6004 156.135 43.881 156.049 44.1817C155.963 44.4824 155.937 44.7971 155.973 45.1078Z" fill="#403D4F"/>
<path d="M142.819 37.6774C142.819 37.6774 142.819 37.6774 142.583 37.4411C142.373 37.2523 142.144 37.0852 141.9 36.9423C141.575 36.7419 141.221 36.5915 140.85 36.4959C140.437 36.3431 140.003 36.2546 139.564 36.2333C139.136 36.1806 138.704 36.1806 138.277 36.2333C137.915 36.2447 137.555 36.2887 137.201 36.3646L136.177 36.6534C136.007 36.7079 135.866 36.8261 135.783 36.983C135.7 37.1398 135.681 37.323 135.73 37.4936C135.77 37.63 135.853 37.7497 135.967 37.835C136.08 37.9202 136.218 37.9662 136.36 37.9662H137.384C137.689 37.9269 137.998 37.9269 138.303 37.9662C138.653 37.9402 139.004 37.9402 139.354 37.9662C139.695 37.9662 140.036 37.9662 140.351 38.15C140.666 38.3338 140.929 38.3601 141.191 38.3863L141.743 38.5701H141.979C142.143 38.6414 142.328 38.6456 142.495 38.5817C142.662 38.5179 142.797 38.3912 142.872 38.2288C142.918 38.1395 142.942 38.0405 142.942 37.94C142.942 37.8395 142.918 37.7405 142.872 37.6512L142.819 37.6774Z" fill="#403D4F"/>
<path d="M155.58 38.6751H155.737L156.157 38.5176H156.446H156.735C156.967 38.4409 157.204 38.3795 157.444 38.3338C157.687 38.295 157.935 38.295 158.179 38.3338C158.405 38.2946 158.636 38.2946 158.862 38.3338H159.702C159.878 38.327 160.045 38.2521 160.168 38.1248C160.29 37.9975 160.358 37.8277 160.358 37.6511C160.353 37.5209 160.311 37.3948 160.236 37.2878C160.162 37.1807 160.059 37.0973 159.938 37.0472L159.124 36.7584C158.827 36.6614 158.518 36.6083 158.205 36.6009C157.857 36.5487 157.503 36.5487 157.155 36.6009C156.465 36.67 155.81 36.9341 155.265 37.3623C155.067 37.4938 154.897 37.6634 154.766 37.8612C154.634 38.0187 154.634 38.0712 154.608 38.0712V38.3338C154.594 38.4574 154.613 38.5827 154.665 38.696C154.716 38.8093 154.798 38.9064 154.901 38.9767C155.003 39.047 155.123 39.0879 155.248 39.0949C155.372 39.1019 155.496 39.0748 155.606 39.0164L155.58 38.6751Z" fill="#403D4F"/>
<path d="M150.197 54.0348C150.638 54.045 151.075 53.9587 151.479 53.7818C151.883 53.6049 152.243 53.3417 152.534 53.0108C152.648 52.898 152.737 52.7627 152.796 52.6135C152.855 52.4644 152.882 52.3046 152.875 52.1444C152.875 51.8556 152.403 48.2322 152.245 46.8932C152.245 46.7609 152.193 46.634 152.099 46.5404C152.006 46.4469 151.879 46.3943 151.746 46.3943C151.614 46.3943 151.487 46.4469 151.394 46.5404C151.3 46.634 151.248 46.7609 151.248 46.8932C151.248 47.1032 151.799 51.8556 151.878 52.1444C151.66 52.3784 151.395 52.5645 151.101 52.6911C150.808 52.8176 150.491 52.8818 150.171 52.8795C150.039 52.8795 149.912 52.9321 149.818 53.0257C149.725 53.1192 149.672 53.2461 149.672 53.3784C149.672 53.5107 149.725 53.6376 149.818 53.7312C149.912 53.8247 150.039 53.8773 150.171 53.8773L150.197 54.0348Z" fill="#F18380"/>
<path d="M152.665 59.2073C153.663 59.4699 154.004 60.9402 153.427 62.6469C152.823 63.8209 151.843 64.7587 150.644 65.3108C149.444 65.8628 148.095 65.9972 146.81 65.6926C146.113 65.656 145.431 65.4808 144.802 65.1772C144.173 64.8737 143.612 64.4479 143.15 63.9247C142.688 63.4016 142.335 62.7915 142.111 62.1303C141.888 61.4691 141.798 60.77 141.848 60.0738C141.848 58.9447 142.609 58.2621 144.08 58.2621C146.963 58.3376 149.835 58.6538 152.665 59.2073Z" fill="#73102A"/>
<path d="M141.795 60.0737C141.795 60.0737 141.795 59.9162 141.795 59.8111C143.721 59.3597 145.746 59.6491 147.468 60.622C149.19 61.5949 150.483 63.18 151.09 65.0623C149.731 65.728 148.202 65.966 146.705 65.745C146.008 65.702 145.326 65.5202 144.7 65.2104C144.074 64.9006 143.516 64.469 143.058 63.9409C142.601 63.4127 142.254 62.7986 142.037 62.1346C141.82 61.4706 141.738 60.7699 141.795 60.0737Z" fill="#D65155"/>
<path d="M151.773 60.8092C148.456 60.8363 145.156 60.322 142.005 59.2863C142.199 58.9307 142.496 58.6423 142.857 58.4595C143.218 58.2766 143.626 58.2078 144.027 58.2623C146.91 58.3378 149.782 58.654 152.613 59.2075C152.887 59.2999 153.128 59.4712 153.306 59.7001C153.483 59.929 153.589 60.2052 153.61 60.4941C153.021 60.7079 152.399 60.8146 151.773 60.8092Z" fill="white"/>
<path d="M138.881 28.1464C138.881 28.1464 134.233 44.2151 123.127 48.4423C121.837 48.4584 120.563 48.1637 119.411 47.5833C118.26 47.0029 117.265 46.1538 116.51 45.1078C113.561 38.9034 112.73 31.9017 114.147 25.1794C116.012 16.9875 125.858 6.43259 143.817 8.90066C153.4 7.06273 164.822 8.74313 171.963 18.4316C179.105 28.1201 170.598 41.537 164.848 43.7687C159.192 40.3636 153.771 36.583 148.622 32.4524C149.409 34.9205 150.25 40.1454 149.409 40.1454C144.556 37.5611 140.812 33.2946 138.881 28.1464Z" fill="#E69D7E"/>
<path d="M124.492 50.3854C124.282 46.8145 123.311 42.5085 118.978 43.27C113.727 44.0314 113.36 57.8158 124.23 56.1617L124.492 50.3854Z" fill="#FBBEAA"/>
<path d="M118.532 51.3046C118.622 51.3007 118.71 51.2747 118.788 51.2289C118.866 51.1832 118.931 51.119 118.978 51.042C119.087 50.8098 119.257 50.6114 119.47 50.4681C119.683 50.3248 119.93 50.2418 120.186 50.2281C120.486 50.2311 120.781 50.3097 121.042 50.4565C121.304 50.6034 121.524 50.8138 121.683 51.0683C121.742 51.1627 121.831 51.2347 121.935 51.2728C122.04 51.3109 122.155 51.3128 122.26 51.2783C122.361 51.2347 122.446 51.1606 122.502 51.0664C122.559 50.9722 122.585 50.8627 122.576 50.7532C122.542 49.646 122.202 48.5697 121.595 47.6431C120.989 46.7164 120.137 45.9755 119.136 45.502C119.073 45.4772 119.006 45.4655 118.938 45.4677C118.87 45.4698 118.804 45.4857 118.742 45.5143C118.681 45.543 118.626 45.5839 118.581 45.6345C118.536 45.6851 118.502 45.7443 118.48 45.8085C118.459 45.8728 118.451 45.9407 118.456 46.0082C118.462 46.0757 118.481 46.1413 118.513 46.201C118.545 46.2608 118.589 46.3134 118.642 46.3558C118.695 46.3981 118.756 46.4292 118.821 46.4472C119.407 46.7355 119.928 47.1404 120.353 47.637C120.777 48.1336 121.096 48.7115 121.289 49.3354C120.924 49.1794 120.531 49.099 120.134 49.0991C119.709 49.1392 119.301 49.2821 118.944 49.5154C118.587 49.7487 118.293 50.0654 118.086 50.4381C118.053 50.495 118.031 50.5578 118.023 50.6229C118.014 50.688 118.019 50.7542 118.036 50.8176C118.053 50.881 118.082 50.9405 118.122 50.9925C118.163 51.0445 118.213 51.0881 118.27 51.1208C118.334 51.2092 118.427 51.2738 118.532 51.3046Z" fill="#F18380"/>
<g opacity="0.3" filter="url(#filter0_f_1_1977)">
<ellipse cx="106.5" cy="14.5" rx="106.5" ry="14.5" transform="matrix(1 0 0 -1 17 544)" fill="#CBCBCB"/>
</g>
<path d="M229.787 85.3559C229.889 83.1209 229.291 80.9097 228.076 79.0313C226.205 76.8617 224.803 74.3283 223.958 71.5905C223.309 69.0491 222.272 66.623 220.883 64.3977C219.891 63.0335 218.403 61.9175 218.403 60.8757C218.403 59.834 220.387 57.825 223.214 58.3955C224.425 58.7728 225.538 59.4131 226.473 60.2707C227.408 61.1282 228.141 62.1818 228.621 63.356C228.892 62.6406 229.051 61.8877 229.092 61.1238L229.713 45.9198C229.722 45.5256 229.81 45.1374 229.972 44.7779C230.134 44.4184 230.367 44.0951 230.656 43.8269C230.945 43.5587 231.284 43.3512 231.655 43.2165C232.025 43.0818 232.419 43.0227 232.813 43.0427C233.44 43.0694 234.043 43.292 234.536 43.679C235.03 44.0661 235.39 44.5982 235.566 45.2005V44.506C235.661 43.7669 236.033 43.0913 236.606 42.6147C237.179 42.1382 237.911 41.8959 238.655 41.9367C239.399 41.9776 240.1 42.2984 240.618 42.8347C241.135 43.3711 241.43 44.0834 241.444 44.8285V46.9367C241.693 46.2867 242.166 45.7476 242.779 45.4177C243.392 45.0878 244.102 44.989 244.782 45.1393C245.461 45.2896 246.064 45.679 246.48 46.2366C246.896 46.7941 247.099 47.4827 247.05 48.1768V49.5161C247.317 49.047 247.714 48.6658 248.195 48.4191C248.675 48.1725 249.216 48.071 249.753 48.1272C250.488 48.2205 251.158 48.5963 251.621 49.175C252.084 49.7537 252.304 50.4898 252.233 51.2275L251.018 64.0505C250.222 71.2799 248.727 78.415 246.554 85.3559C246.527 86.5148 246.259 87.6553 245.765 88.7043C245.272 89.7532 244.565 90.6873 243.689 91.4465C242.813 92.2057 241.787 92.7731 240.679 93.1125C239.571 93.4518 238.403 93.5554 237.253 93.4167C236.211 93.4515 235.174 93.2619 234.213 92.8607C233.251 92.4595 232.387 91.8562 231.679 91.0916C230.97 90.3271 230.435 89.4192 230.109 88.4296C229.782 87.4399 229.673 86.3917 229.787 85.3559Z" fill="#FBBEAA"/>
<path d="M146.203 490.134C146.203 487.746 147.151 485.456 148.84 483.768C150.528 482.079 152.818 481.131 155.206 481.131C157.594 481.131 159.884 482.079 161.572 483.768C163.261 485.456 164.209 487.746 164.209 490.134V509.703H146.203V490.134Z" fill="#FBBEAA"/>
<path d="M163.565 493.78C165.772 493.78 166.169 494.748 166.814 496.012C167.86 499.383 169.648 502.477 172.047 505.065C175.629 508.116 179.471 510.847 183.531 513.225V523.593H143.45C143.45 523.593 143.723 515.408 143.921 509.629C144.119 503.85 144.69 496.806 144.64 496.062C144.591 495.318 144.64 493.78 146.004 493.78H163.565Z" fill="#302D3B"/>
<path d="M148.434 510.199C148.43 511.472 148.803 512.717 149.507 513.777C150.211 514.838 151.214 515.665 152.389 516.154C153.563 516.643 154.857 516.773 156.106 516.526C157.354 516.279 158.501 515.666 159.401 514.766C160.301 513.866 160.913 512.72 161.16 511.471C161.407 510.223 161.278 508.929 160.788 507.754C160.299 506.579 159.472 505.576 158.412 504.872C157.352 504.168 156.106 503.795 154.834 503.8C153.138 503.807 151.515 504.483 150.316 505.682C149.117 506.88 148.441 508.504 148.434 510.199Z" fill="#93929C"/>
<path d="M154.833 506.429L153.37 508.587L150.865 509.306L152.452 511.365L152.378 513.969L154.833 513.076L157.289 513.969L157.19 511.365L158.802 509.306L156.297 508.587L154.833 506.429Z" fill="white"/>
<path d="M183.258 513.052C183.258 513.052 188.937 516.053 191.07 517.516C192.058 518.185 192.86 519.094 193.402 520.156C193.944 521.219 194.209 522.401 194.171 523.593H178.595C178.595 523.593 178.917 515.979 183.258 513.052Z" fill="white"/>
<path d="M143.45 523.593V527.884C143.45 528.603 144.095 529 145.186 529H192.46C193.526 529 194.171 528.603 194.171 527.884V523.593H143.45Z" fill="white"/>
<path d="M178.594 510.15C178.732 509.939 178.946 509.79 179.191 509.734C179.437 509.679 179.694 509.721 179.909 509.852C180.016 509.918 180.109 510.005 180.182 510.107C180.255 510.209 180.307 510.324 180.334 510.447C180.362 510.569 180.365 510.696 180.343 510.82C180.321 510.943 180.275 511.061 180.207 511.167L178.545 513.845C178.465 513.984 178.349 514.099 178.209 514.177C178.07 514.256 177.911 514.296 177.751 514.292C177.567 514.289 177.388 514.238 177.23 514.143C177.123 514.077 177.031 513.991 176.958 513.889C176.885 513.787 176.833 513.671 176.805 513.548C176.777 513.426 176.774 513.299 176.796 513.176C176.818 513.052 176.864 512.934 176.933 512.829L178.594 510.15Z" fill="white"/>
<path d="M175.668 508.091C175.749 507.997 175.849 507.919 175.96 507.863C176.071 507.807 176.193 507.773 176.317 507.764C176.441 507.755 176.566 507.77 176.685 507.809C176.803 507.848 176.913 507.91 177.007 507.992C177.102 508.073 177.179 508.172 177.235 508.284C177.291 508.395 177.325 508.517 177.334 508.641C177.344 508.765 177.328 508.89 177.289 509.009C177.25 509.127 177.188 509.237 177.106 509.331L175.172 511.613C175.083 511.718 174.973 511.802 174.849 511.862C174.725 511.922 174.59 511.955 174.453 511.96C174.273 511.957 174.098 511.904 173.947 511.806C173.796 511.709 173.675 511.571 173.597 511.409C173.52 511.247 173.49 511.066 173.509 510.888C173.529 510.709 173.598 510.539 173.709 510.398L175.668 508.091Z" fill="white"/>
<path d="M172.915 505.785C173.112 505.658 173.349 505.607 173.581 505.641C173.814 505.676 174.025 505.793 174.177 505.973C174.329 506.152 174.41 506.38 174.406 506.614C174.402 506.849 174.313 507.074 174.155 507.248L171.948 509.158C171.775 509.305 171.555 509.384 171.328 509.381C171.191 509.386 171.055 509.36 170.931 509.304C170.806 509.248 170.696 509.164 170.609 509.059C170.517 508.973 170.444 508.869 170.394 508.754C170.344 508.639 170.318 508.515 170.318 508.389C170.318 508.264 170.344 508.139 170.394 508.024C170.444 507.909 170.517 507.805 170.609 507.719L172.915 505.785Z" fill="white"/>
<path d="M168.078 504.644L170.559 503.106C170.776 502.977 171.036 502.939 171.282 502.999C171.527 503.059 171.74 503.213 171.873 503.428C171.94 503.535 171.985 503.655 172.005 503.779C172.025 503.904 172.02 504.031 171.99 504.154C171.96 504.276 171.906 504.392 171.83 504.493C171.755 504.594 171.66 504.679 171.551 504.743L169.07 506.281C168.923 506.378 168.751 506.43 168.574 506.429C168.413 506.426 168.255 506.38 168.116 506.298C167.977 506.215 167.861 506.098 167.781 505.958C167.65 505.743 167.607 505.486 167.663 505.241C167.718 504.995 167.867 504.781 168.078 504.644Z" fill="white"/>
<path d="M165.995 501.444L168.772 500.279C169.009 500.18 169.276 500.18 169.513 500.277C169.75 500.375 169.939 500.563 170.037 500.8C170.086 500.915 170.111 501.039 170.111 501.164C170.111 501.29 170.086 501.414 170.037 501.529C169.989 501.644 169.918 501.749 169.828 501.837C169.739 501.924 169.633 501.993 169.517 502.04L166.739 503.205H166.367C166.153 503.194 165.949 503.112 165.786 502.972C165.624 502.832 165.513 502.642 165.47 502.432C165.428 502.222 165.456 502.003 165.551 501.811C165.646 501.619 165.802 501.464 165.995 501.37V501.444Z" fill="white"/>
<path d="M164.259 497.873L167.334 497.104C167.577 497.044 167.834 497.084 168.048 497.215C168.262 497.345 168.416 497.555 168.475 497.798C168.534 498.042 168.494 498.298 168.364 498.512C168.234 498.726 168.024 498.88 167.781 498.939L164.73 499.733H164.507C164.293 499.73 164.086 499.659 163.916 499.529C163.746 499.4 163.623 499.219 163.564 499.013C163.511 498.77 163.553 498.516 163.683 498.304C163.812 498.091 164.018 497.937 164.259 497.873Z" fill="white"/>
<path d="M133.032 364.98C133.305 352.976 141.391 347.172 153.37 347.47C165.35 347.767 173.981 354.043 173.708 366.022L164.209 491.102H146.202L133.032 364.98Z" fill="#FBBEAA"/>
<path d="M70.3063 490.134C70.3063 487.746 71.2548 485.456 72.9433 483.768C74.6317 482.079 76.9218 481.131 79.3096 481.131C81.6975 481.131 83.9875 482.079 85.676 483.768C87.3644 485.456 88.313 487.746 88.313 490.134V509.703H70.3063V490.134Z" fill="#FBBEAA"/>
<path d="M87.6437 493.78C89.8759 493.78 90.2728 494.748 90.8928 496.012C91.9507 499.384 93.747 502.476 96.151 505.065C99.7281 508.122 103.571 510.853 107.635 513.225V523.593H67.5536C67.5536 523.593 67.8264 515.408 68.0248 509.629C68.2233 503.85 68.7689 496.806 68.7441 496.062C68.7193 495.318 68.7441 493.78 70.0835 493.78H87.6437Z" fill="#302D3B"/>
<path d="M72.5141 510.199C72.5092 511.471 72.8818 512.715 73.5846 513.775C74.2875 514.834 75.2891 515.662 76.4624 516.152C77.6358 516.642 78.9282 516.772 80.1759 516.527C81.4237 516.282 82.5706 515.672 83.4715 514.775C84.3724 513.878 84.9867 512.733 85.2365 511.486C85.4864 510.24 85.3607 508.947 84.8752 507.771C84.3897 506.596 83.5664 505.591 82.5095 504.884C81.4525 504.177 80.2096 503.8 78.938 503.8C77.2386 503.8 75.6084 504.473 74.4044 505.673C73.2004 506.872 72.5206 508.5 72.5141 510.199Z" fill="#93929C"/>
<path d="M78.913 506.429L77.4497 508.587L74.9446 509.306L76.5568 511.365L76.4824 513.969L78.913 513.076L81.3685 513.969L81.2941 511.365L82.9062 509.306L80.3764 508.587L78.913 506.429Z" fill="white"/>
<path d="M107.336 513.052C107.336 513.052 113.041 516.053 115.149 517.516C116.142 518.18 116.948 519.087 117.49 520.151C118.033 521.215 118.294 522.4 118.25 523.593H102.599C102.599 523.593 103.021 515.979 107.336 513.052Z" fill="white"/>
<path d="M67.5536 523.593V527.884C67.5536 528.603 68.1737 529 69.265 529H116.588C117.68 529 118.3 528.603 118.3 527.884V523.593H67.5536Z" fill="white"/>
<path d="M102.699 510.15C102.833 509.936 103.048 509.785 103.294 509.729C103.541 509.673 103.799 509.717 104.013 509.852C104.227 509.987 104.378 510.201 104.434 510.448C104.49 510.694 104.446 510.953 104.311 511.167L102.649 513.846C102.563 513.985 102.442 514.099 102.299 514.177C102.155 514.255 101.994 514.295 101.83 514.292C101.654 514.292 101.481 514.241 101.334 514.143C101.228 514.077 101.135 513.991 101.062 513.889C100.989 513.787 100.937 513.671 100.909 513.549C100.881 513.426 100.878 513.299 100.9 513.176C100.922 513.052 100.969 512.934 101.037 512.829L102.699 510.15Z" fill="white"/>
<path d="M99.7467 508.091C99.9102 507.901 100.141 507.781 100.391 507.758C100.641 507.735 100.89 507.81 101.086 507.967C101.278 508.135 101.398 508.37 101.421 508.624C101.444 508.878 101.369 509.132 101.21 509.331L99.2506 511.613C99.1647 511.721 99.0553 511.809 98.9308 511.869C98.8062 511.929 98.6697 511.96 98.5314 511.96C98.3496 511.962 98.1711 511.911 98.0175 511.814C97.8639 511.717 97.7417 511.577 97.6657 511.412C97.5897 511.247 97.563 511.063 97.589 510.883C97.615 510.703 97.6924 510.535 97.8121 510.398L99.7467 508.091Z" fill="white"/>
<path d="M97.019 505.785C97.2163 505.658 97.4531 505.607 97.6853 505.641C97.9175 505.676 98.1292 505.793 98.281 505.973C98.4327 506.152 98.5142 506.38 98.5102 506.614C98.5061 506.849 98.4169 507.074 98.2591 507.248L96.0269 509.158C95.8538 509.305 95.6336 509.384 95.4068 509.381C95.2705 509.384 95.1352 509.357 95.0108 509.301C94.8864 509.245 94.7759 509.163 94.6875 509.059C94.599 508.971 94.5288 508.867 94.4808 508.752C94.4329 508.637 94.4082 508.514 94.4082 508.389C94.4082 508.265 94.4329 508.141 94.4808 508.026C94.5288 507.911 94.599 507.807 94.6875 507.719L97.019 505.785Z" fill="white"/>
<path d="M92.1823 504.644L94.6625 503.106C94.8765 503.016 95.1158 503.005 95.3367 503.077C95.5576 503.148 95.7455 503.297 95.8658 503.496C95.9862 503.694 96.0311 503.93 95.9923 504.159C95.9535 504.388 95.8337 504.595 95.6546 504.743L93.1744 506.281C93.0273 506.378 92.8547 506.43 92.6783 506.429C92.513 506.427 92.3509 506.383 92.2077 506.301C92.0644 506.218 91.9446 506.1 91.8598 505.958C91.731 505.74 91.6926 505.481 91.7528 505.235C91.8131 504.989 91.9673 504.777 92.1823 504.644Z" fill="white"/>
<path d="M229.489 87.0179L219.568 149.297C217.931 157.11 220.461 164.179 229.489 165.419C231.156 165.636 232.849 165.512 234.466 165.055C236.083 164.597 237.591 163.816 238.897 162.758C240.203 161.701 241.28 160.388 242.063 158.902C242.847 157.415 243.319 155.784 243.453 154.109L246.479 87.1419C247.273 80.8172 244.52 76.6008 239.708 76.08C233.805 75.4351 230.68 78.9323 229.489 87.0179Z" fill="#FBBEAA"/>
<path d="M90.0992 501.445L92.8771 500.279C92.9926 500.23 93.1165 500.206 93.2418 500.206C93.367 500.206 93.4909 500.231 93.6064 500.279C93.7219 500.328 93.8265 500.399 93.9142 500.488C94.0019 500.577 94.0709 500.683 94.1172 500.8C94.2098 501.031 94.21 501.288 94.1176 501.519C94.0252 501.75 93.8474 501.937 93.6212 502.04L90.8185 503.206C90.7041 503.231 90.5855 503.231 90.4712 503.206C90.2802 503.206 90.0935 503.149 89.9346 503.043C89.7757 502.937 89.6518 502.787 89.5783 502.61C89.503 502.386 89.5148 502.142 89.6113 501.926C89.7078 501.71 89.8819 501.538 90.0992 501.445Z" fill="white"/>
<path d="M88.3625 497.873L91.4133 497.104C91.6598 497.044 91.9202 497.083 92.1383 497.212C92.3564 497.342 92.5147 497.553 92.579 497.798C92.6086 497.919 92.614 498.044 92.5951 498.167C92.5762 498.289 92.5332 498.407 92.4687 498.513C92.4042 498.619 92.3194 498.711 92.2191 498.784C92.1189 498.858 92.0051 498.91 91.8845 498.939L88.8338 499.733H88.5858C88.3623 499.716 88.1517 499.622 87.99 499.466C87.8283 499.311 87.7255 499.105 87.6991 498.882C87.6727 498.66 87.7245 498.435 87.8455 498.246C87.9665 498.058 88.1493 497.917 88.3625 497.848V497.873Z" fill="white"/>
<path d="M80.1533 364.608C81.3717 358.978 84.7759 354.062 89.6176 350.942C94.4593 347.821 100.342 346.75 105.973 347.966C117.704 350.446 124.029 362.004 121.499 373.736L88.3134 493.16H70.0835L80.1533 364.608Z" fill="#FBBEAA"/>
<path d="M131.469 364.2C131.536 361.35 132.163 358.541 133.316 355.933C134.468 353.326 136.123 350.971 138.185 349.003C140.248 347.035 142.678 345.492 145.336 344.463C147.995 343.434 150.83 342.939 153.68 343.006C156.53 343.073 159.339 343.7 161.946 344.853C164.554 346.005 166.909 347.659 168.877 349.722C170.845 351.784 172.387 354.214 173.416 356.873C174.445 359.531 174.941 362.367 174.874 365.217L180.505 493.794H131.47L131.469 364.2Z" fill="#93929C"/>
<path d="M80.1562 361.546C81.5023 356.051 84.9384 351.298 89.7341 348.297C94.5298 345.296 100.307 344.284 105.837 345.476C111.367 346.668 116.215 349.97 119.348 354.68C122.482 359.39 123.655 365.137 122.618 370.698L109.424 493.294C109.424 493.294 77.8252 495.179 59 493.294L80.1562 361.546Z" fill="#93929C"/>
<path d="M237.55 142.402L166.317 88.2827C158.009 82.9749 152.354 85.8024 147.939 91.4822C145.923 94.2313 144.988 97.6258 145.312 101.02C145.637 104.413 147.199 107.569 149.7 109.886L220.759 162.244C223.263 164.359 226.487 165.426 229.758 165.223C233.03 165.019 236.096 163.561 238.319 161.153L238.642 160.806C239.822 159.547 240.733 158.061 241.319 156.439C241.906 154.816 242.156 153.091 242.054 151.369C241.951 149.647 241.499 147.964 240.725 146.422C239.951 144.88 238.871 143.512 237.55 142.402Z" fill="#FBBEAA"/>
<path d="M149.7 109.861C149.042 109.295 148.443 108.663 147.914 107.976C147.445 106.211 147.385 104.362 147.738 102.57C148.09 100.778 148.846 99.0899 149.948 97.6334C153.693 91.8544 161.555 87.3155 165.052 88.1836L168.525 89.9446L207.837 119.708C204.358 127.885 199.658 135.486 193.898 142.253L149.7 109.861Z" fill="#F18380"/>
<path d="M160.439 84.4133L222.082 125.988C221.823 128.115 228.657 84.4133 228.657 84.4133L247.993 86.9297C247.993 86.9297 247.599 131.058 244.713 154.478C243.56 163.828 235.85 167.397 226.646 165.389C222.102 164.397 217.824 162.533 214.017 159.861C197.659 148.379 151.765 116.038 148.013 111.969C141.54 104.95 141.539 99.6918 145.26 93.9128C148.98 88.1338 156.942 83.5452 160.439 84.4133Z" fill="#002B80"/>
<path d="M131.47 364.906L118.746 231.691C118.746 216.983 133.9 200.961 156.247 204.408C176.437 207.558 182.588 227.847 180.926 247.069C179.264 266.291 174.775 365.849 174.775 365.849C174.708 368.699 174.081 371.507 172.928 374.115C171.776 376.722 170.121 379.077 168.059 381.045C165.996 383.013 163.567 384.556 160.908 385.585C158.249 386.614 155.414 387.109 152.564 387.042C149.714 386.976 146.905 386.348 144.298 385.196C141.69 384.043 139.335 382.389 137.367 380.326C135.399 378.264 133.857 375.834 132.828 373.175C131.799 370.517 131.304 367.682 131.37 364.832L131.47 364.906Z" fill="#93929C"/>
<path d="M80.1536 362.252L92.8029 229.062C95.4816 214.602 113.463 201.779 134.769 209.369C153.991 216.239 156.223 237.321 150.965 255.899C145.707 274.476 122.616 371.404 122.616 371.404C121.269 376.899 117.833 381.652 113.038 384.653C108.242 387.654 102.465 388.666 96.9347 387.474C91.4045 386.282 86.5573 382.98 83.4235 378.27C80.2898 373.56 79.1167 367.813 80.1536 362.252Z" fill="#93929C"/>
<path d="M150.965 255.899C145.731 274.476 122.615 371.404 122.615 371.404" stroke="#5E5D63" stroke-width="0.75" stroke-miterlimit="10"/>
<path d="M147.244 82.3049C147.244 82.3049 158.207 84.2147 160.34 84.7852C161.599 85.0806 162.762 85.6907 163.721 86.5583C164.679 87.4259 165.402 88.5226 165.821 89.7457C167.185 92.9949 174.205 114.275 174.849 116.582C175.285 119.123 174.876 121.737 173.684 124.023C172.667 126.801 167.409 139.45 167.409 139.45L166.615 180.201L137.002 184.898L108.626 180.201C108.626 180.201 98.7054 104.404 98.2094 99.7164C97.7133 95.0287 100.045 85.9758 105.65 84.8348C111.256 83.6939 126.633 82.3546 126.633 82.3546L147.244 82.3049Z" fill="#FBBEAA"/>
<path d="M168.005 163.816V178.142C148.61 179.928 117.704 178.663 106.097 178.142C105.551 174.05 104.981 167.105 104.385 162.492C120.185 162.889 146.278 164.361 168.005 163.816Z" fill="white"/>
<path d="M65.7182 176.555L97.4903 92.9453C101.732 84.0164 108.007 83.4211 114.852 85.9014C118.018 87.1644 120.608 89.5495 122.127 92.6012C123.646 95.6529 123.988 99.1572 123.087 102.445L90.372 184.566C89.3804 187.69 87.2169 190.309 84.3357 191.872C81.4545 193.435 78.0797 193.821 74.92 192.949L74.4487 192.825C72.7819 192.371 71.2253 191.581 69.8736 190.505C68.5219 189.429 67.4036 188.089 66.5867 186.566C65.7698 185.044 65.2715 183.371 65.1222 181.65C64.9729 179.929 65.1757 178.195 65.7182 176.555Z" fill="#FBBEAA"/>
<path d="M78.8877 141.881L97.4896 92.9452C97.9885 91.872 98.5776 90.8432 99.2506 89.8697C101.529 88.4431 104.138 87.6295 106.823 87.5078C109.509 87.3861 112.18 87.9605 114.579 89.1752C117.364 90.5304 119.602 92.796 120.924 95.597C122.245 98.3981 122.571 101.566 121.846 104.578C121.846 104.875 121.672 105.446 121.523 106.215L102.326 154.456C93.9409 151.432 86.0442 147.195 78.8877 141.881Z" fill="#F18380"/>
<path d="M99.2262 88.4811L65 176.5C94.0039 167.219 97.5 173.5 105.293 147.645C105.293 147.645 123.483 104.95 124.178 101.13C124.902 98.1192 124.577 94.9509 123.255 92.1499C121.934 89.3489 119.695 87.0832 116.91 85.728C109.147 81.7596 101.409 85.356 99.2262 88.4811Z" fill="#003399"/>
<path d="M92.8025 228.418C93.3482 221.547 103.088 190.006 111 175C111 175 127.885 168.464 139 168.5C150.597 168.538 166 177.5 166 177.5C171.159 189.182 177.652 217.405 179.364 222.911C180.397 226.151 180.522 229.612 179.726 232.917C178.93 236.223 177.244 239.248 174.849 241.662C168.971 248.334 153.817 255.973 150.32 255.973C135.274 253.824 120.526 249.946 106.37 244.415C98.3831 241.067 92.2816 235.313 92.8025 228.418Z" fill="#93929C"/>
<path d="M143.64 163.821L85.2825 187.749C78.0593 191.124 70.5897 190.28 67.3433 181.852C66.7496 180.281 66.4813 178.606 66.5547 176.928C66.628 175.25 67.0413 173.604 67.7697 172.091C68.498 170.577 69.5262 169.228 70.7919 168.124C72.0575 167.02 73.5343 166.184 75.1325 165.668L139.569 147.455C145.535 145.227 150.269 146.967 151.925 151.454C153.882 156.987 151.218 160.728 143.64 163.821Z" fill="#FBBEAA"/>
<path d="M150.041 78.5021C150.041 78.5021 163.725 86.4005 165.838 87.7828C167.951 89.165 167.5 91.5 169.945 97.0635C170.645 98.6562 175.757 104.194 175.5 113C174.8 137.019 167.674 178.576 167.674 178.576C163.401 180.881 158.857 182.646 154.148 183.828C151.877 184.085 150.08 184.144 148.54 182.643C147 181.143 142.458 175.693 142.458 175.693C142.458 175.693 134.975 180.767 131.598 182.643C130.793 183.205 129.884 183.599 128.924 183.803C127.964 184.006 126.973 184.015 126.01 183.828C121.093 182.821 101.742 177.174 101.13 176.818C100.518 176.463 99.945 176.088 100.004 175.416C100.063 174.745 100.419 97.7151 100.676 94.2398C100.726 92.3786 101.312 90.5714 102.363 89.0342C103.413 87.497 104.884 86.2948 106.599 85.5712C110.726 83.7348 126.227 77.4358 126.227 77.4358L142.399 88.6714L150.041 78.5021Z" fill="#003399"/>
<path d="M150.041 76.291L142.438 88.6719C142.438 88.6719 149.903 94.5957 150.337 95.0301C150.771 95.4645 151.64 95.425 151.818 94.7339C151.996 94.0428 154.148 80.9116 154.187 80.9116C154.225 80.842 154.245 80.7639 154.245 80.6845C154.245 80.6052 154.225 80.5271 154.187 80.4575C153.99 80.3192 150.041 76.291 150.041 76.291Z" fill="#F5F5F5"/>
<path d="M126.148 74L142.458 88.6714C142.458 88.6714 133.869 94.5952 133.494 95.0296C133.384 95.1227 133.255 95.1897 133.116 95.2256C132.977 95.2615 132.832 95.2653 132.691 95.2368C132.55 95.2083 132.418 95.1481 132.304 95.0609C132.19 94.9737 132.097 94.8618 132.032 94.7335C131.401 93.7264 121.29 79.5289 121.251 79.4104C121.209 79.3421 121.187 79.2635 121.187 79.1834C121.187 79.1032 121.209 79.0246 121.251 78.9563C121.468 78.8378 126.148 74 126.148 74Z" fill="#F5F5F5"/>
<g filter="url(#filter1_d_1_1977)">
<rect x="118.926" y="123.357" width="40.9288" height="58.3236" rx="1" transform="rotate(-6.55484 118.926 123.357)" fill="#EFEFEF"/>
</g>
<path d="M138.143 149.497C140.99 148.294 143.563 146.512 145.701 144.263C147.024 142.874 148.525 141.669 150.163 140.679C151.123 140.079 151.952 139.286 152.598 138.352C153.45 136.902 154.156 135.371 154.704 133.783C154.907 132.415 155.372 131.096 156.074 129.902C156.741 129.29 159.096 129.617 160.318 131.993C160.739 133.051 160.93 134.19 160.878 135.334C160.826 136.478 160.531 137.601 160.015 138.627C159.406 139.857 158.93 141.148 158.593 142.477L158.815 142.61C160.678 141.621 162.668 140.904 164.726 140.48C165.472 140.313 166.25 140.404 166.933 140.736C167.616 141.069 168.165 141.625 168.492 142.314C168.819 143.004 168.904 143.787 168.734 144.537C168.565 145.287 168.149 145.961 167.556 146.45C170.767 146.819 170.402 151.771 167.646 152.426C168.236 152.673 168.734 153.099 169.073 153.644C169.412 154.189 169.575 154.827 169.54 155.473C169.506 156.119 169.275 156.741 168.879 157.255C168.484 157.768 167.942 158.15 167.328 158.346C169.286 160.151 167.855 163.126 164.3 163.139C161.411 163.433 153.686 164.642 150.999 165.221C148.311 165.799 142.909 164.52 141.174 165.057C138.59 166.003 135.59 166.019 133.302 159.222C131.013 152.425 135.485 150.375 138.143 149.497Z" fill="#FBBEAA"/>
<path d="M230.283 65.5139C229.341 65.5139 229.266 64.9187 228.844 63.8274C230.953 63.8274 237.079 64.2242 239.758 69.3831C237.054 65.6627 231.87 65.5139 230.283 65.5139ZM235.095 45.8951C235.095 45.8951 234.946 46.7632 234.797 48.0281C234.797 48.673 234.648 49.4418 234.599 50.2355C234.549 51.0292 234.475 51.8973 234.4 52.7158C234.4 54.452 234.276 56.1634 234.276 57.4531C234.276 58.7428 234.276 59.6109 234.276 59.6109C234.276 59.6522 234.285 59.693 234.301 59.7309C234.317 59.7687 234.342 59.8026 234.372 59.8306C234.402 59.8586 234.438 59.88 234.477 59.8935C234.516 59.9069 234.558 59.912 234.599 59.9085C234.668 59.905 234.735 59.8789 234.789 59.8342C234.843 59.7895 234.88 59.7286 234.896 59.6606C234.896 59.6606 235.045 58.7924 235.169 57.5027C235.293 56.2129 235.492 54.5016 235.566 52.7902C235.566 51.9221 235.566 51.054 235.566 50.3099C235.566 49.5659 235.566 48.7474 235.566 48.1025C235.566 46.788 235.566 45.9446 235.566 45.9446C235.566 45.9034 235.558 45.8626 235.541 45.8248C235.525 45.7869 235.501 45.7529 235.47 45.7249C235.44 45.6969 235.404 45.6756 235.365 45.6622C235.326 45.6488 235.285 45.6436 235.244 45.647C235.196 45.6744 235.157 45.7144 235.131 45.7625C235.104 45.8107 235.092 45.8651 235.095 45.9199V45.8951ZM240.849 47.6313C240.849 47.6313 240.7 48.3753 240.526 49.4667C240.526 50.0371 240.353 50.682 240.278 51.3764C240.204 52.0709 240.13 52.815 240.055 53.5591C240.055 55.0472 239.882 56.5354 239.857 57.6515C239.832 58.7676 239.857 59.5365 239.857 59.5365C239.86 59.5756 239.871 59.6137 239.889 59.6487C239.907 59.6836 239.931 59.7147 239.961 59.74C239.991 59.7654 240.026 59.7846 240.063 59.7965C240.101 59.8084 240.14 59.8128 240.179 59.8094C240.246 59.8047 240.309 59.7777 240.359 59.7327C240.408 59.6877 240.441 59.6273 240.452 59.5613C240.452 59.5613 240.601 58.8172 240.775 57.7259C240.948 56.6346 241.097 55.1216 241.221 53.6583C241.221 52.9142 241.221 52.1701 241.37 51.4757C241.519 50.7812 241.37 50.1115 241.37 49.5411C241.37 48.4249 241.37 47.6809 241.37 47.6809C241.37 47.6396 241.361 47.5988 241.345 47.561C241.329 47.5231 241.304 47.4891 241.274 47.4611C241.244 47.4331 241.208 47.4118 241.169 47.3984C241.13 47.385 241.088 47.3798 241.047 47.3832C240.992 47.406 240.945 47.4435 240.91 47.4916C240.875 47.5398 240.854 47.5967 240.849 47.656V47.6313ZM246.405 49.9875C246.405 49.9875 246.256 50.6076 246.057 51.5501C246.057 51.9965 245.859 52.5422 245.785 53.1375C245.71 53.7327 245.611 54.3528 245.512 54.9728C245.338 56.2378 245.264 57.4531 245.214 58.4452C245.165 59.4373 245.214 60.0326 245.214 60.0326C245.214 60.0738 245.222 60.1146 245.239 60.1525C245.255 60.1903 245.28 60.2243 245.31 60.2523C245.34 60.2803 245.376 60.3017 245.415 60.3151C245.454 60.3285 245.495 60.3336 245.537 60.3302C245.6 60.3269 245.661 60.3034 245.71 60.2633C245.759 60.2231 245.794 60.1684 245.809 60.107C245.809 60.107 245.983 59.4869 246.157 58.5692C246.33 57.6515 246.578 56.3618 246.727 55.1216C246.727 54.4768 246.851 53.8567 246.901 53.2614C246.95 52.6662 246.901 52.1205 246.901 51.6493C246.901 50.7068 246.901 50.0619 246.901 50.0619C246.901 50.0206 246.892 49.9798 246.876 49.942C246.859 49.9042 246.835 49.8701 246.805 49.8422C246.775 49.8142 246.739 49.7928 246.7 49.7794C246.661 49.766 246.619 49.7608 246.578 49.7643C246.533 49.7898 246.493 49.8254 246.463 49.8683C246.433 49.9113 246.413 49.9605 246.405 50.0123V49.9875Z" fill="#F18380"/>
<path d="M137 170L83.9999 192.5C76.7762 195.873 68.2449 192.929 64.9999 184.5C64.4066 182.929 64.3664 180.36 64.44 178.682C64.5136 177.004 64.9272 175.358 65.6559 173.845C66.3845 172.332 67.7339 169.604 68.9997 168.5C70.2656 167.396 74.7764 165.359 76.3747 164.843L136 148.5L137 170Z" fill="#003399"/>
<defs>
<filter id="filter0_f_1_1977" x="0" y="498" width="247" height="63" filterUnits="userSpaceOnUse" color-interpolation-filters="sRGB">
<feFlood flood-opacity="0" result="BackgroundImageFix"/>
<feBlend mode="normal" in="SourceGraphic" in2="BackgroundImageFix" result="shape"/>
<feGaussianBlur stdDeviation="8.5" result="effect1_foregroundBlur_1_1977"/>
</filter>
<filter id="filter1_d_1_1977" x="119.034" y="118.792" width="49.1041" height="62.3995" filterUnits="userSpaceOnUse" color-interpolation-filters="sRGB">
<feFlood flood-opacity="0" result="BackgroundImageFix"/>
<feColorMatrix in="SourceAlpha" type="matrix" values="0 0 0 0 0 0 0 0 0 0 0 0 0 0 0 0 0 0 127 0" result="hardAlpha"/>
<feOffset dx="2"/>
<feComposite in2="hardAlpha" operator="out"/>
<feColorMatrix type="matrix" values="0 0 0 0 0.603922 0 0 0 0 0.6 0 0 0 0 0.631373 0 0 0 1 0"/>
<feBlend mode="normal" in2="BackgroundImageFix" result="effect1_dropShadow_1_1977"/>
<feBlend mode="normal" in="SourceGraphic" in2="effect1_dropShadow_1_1977" result="shape"/>
</filter>
</defs>
</svg>
