<svg width="207" height="522" viewBox="0 0 207 522" fill="none" xmlns="http://www.w3.org/2000/svg">
    <path d="M55.2009 21.2059C53.7606 26.7165 52.9062 32.3638 52.652 38.0538C52.3499 42.7897 50.7832 47.3579 48.1151 51.2823C45.5663 54.5703 42.2273 57.9858 43.4507 68.1811H108.727C108.727 68.1811 111.275 63.0835 108.217 54.3409C104.614 43.548 101.962 32.4608 100.29 21.2059H55.2009Z" fill="#BC664A"/>
    <path d="M67.5 51V74.7641C67.5 74.7641 69.2276 82.9653 80.8049 82.9653C83.1034 83.1757 85.3888 82.4228 87.1918 80.8612C88.9949 79.2995 90.1786 77.0477 90.5 74.5681V51H67.5Z" fill="#FBBEAA"/>
    <path d="M90.4262 69.4046C83.2384 72.7946 72.7626 69.7615 67.6904 60.3562V51.2823H90.4262V69.4046Z" fill="#F18380"/>
    <path d="M104.623 34.7402C104.732 39.9238 104.502 45.109 103.935 50.2626C102.992 57.6033 100.392 65.7596 87.3672 65.7596C74.3426 65.7596 67.7411 59.8973 64.9374 50.2626C63.2551 44.4258 59.8397 35.8362 61.2415 25.8702C62.6434 15.9042 68.6332 9.43015 82.7793 9.04782C96.9254 8.6655 106.178 15.0376 104.623 34.7402Z" fill="#FBBEAA"/>
    <path d="M77.0953 39.1753C77.1859 39.5507 77.38 39.8931 77.6555 40.1637C77.931 40.4343 78.2769 40.6222 78.6539 40.7061C79.0308 40.7899 79.4237 40.7664 79.7879 40.6381C80.1521 40.5099 80.4732 40.282 80.7144 39.9805C80.9556 39.679 81.1074 39.3158 81.1526 38.9323C81.1978 38.5488 81.1345 38.1603 80.9699 37.811C80.8053 37.4616 80.5461 37.1654 80.2216 36.956C79.8972 36.7467 79.5205 36.6325 79.1344 36.6265C78.8311 36.6548 78.5366 36.7439 78.2684 36.8885C78.0003 37.033 77.7641 37.2302 77.5738 37.468C77.3835 37.7059 77.243 37.9797 77.1608 38.273C77.0786 38.5663 77.0563 38.8732 77.0953 39.1753Z" fill="#403D4F"/>
    <path d="M95.9824 39.1753C96.0731 39.5507 96.2671 39.8931 96.5426 40.1637C96.8181 40.4343 97.164 40.6222 97.5409 40.7061C97.9179 40.7899 98.3108 40.7664 98.675 40.6381C99.0393 40.5099 99.3603 40.282 99.6015 39.9805C99.8427 39.679 99.9946 39.3158 100.04 38.9323C100.085 38.5488 100.022 38.1603 99.857 37.811C99.6925 37.4616 99.4332 37.1654 99.1088 36.956C98.7843 36.7467 98.4076 36.6325 98.0215 36.6265C97.7195 36.6581 97.4268 36.7494 97.1604 36.8951C96.894 37.0407 96.6591 37.2378 96.4694 37.4749C96.2798 37.712 96.1391 37.9844 96.0555 38.2763C95.9719 38.5682 95.947 38.8737 95.9824 39.1753Z" fill="#403D4F"/>
    <path d="M83.2381 31.9625C83.2381 31.9625 83.2381 31.9625 83.0342 31.7586C82.8286 31.5587 82.5971 31.3872 82.346 31.2488C82.0243 31.0648 81.6821 30.9194 81.3264 30.8155C80.4972 30.5878 79.6355 30.5016 78.7776 30.5606C78.4169 30.5792 78.0586 30.6304 77.7071 30.7135L76.713 30.9939C76.5489 31.0468 76.4118 31.1615 76.3309 31.3138C76.25 31.4661 76.2316 31.6439 76.2797 31.8095C76.3218 31.9398 76.4032 32.0539 76.5128 32.1361C76.6223 32.2182 76.7546 32.2644 76.8915 32.2683H78.8031C79.134 32.2433 79.4663 32.2433 79.7971 32.2683C80.1247 32.2985 80.4489 32.3582 80.7657 32.4467C81.097 32.4467 81.3265 32.6252 81.5813 32.6507C81.7625 32.7269 81.9502 32.7866 82.1421 32.8291H82.3715C82.5306 32.8982 82.7104 32.9023 82.8724 32.8403C83.0344 32.7784 83.1657 32.6554 83.2381 32.4977C83.2759 32.4091 83.2955 32.3137 83.2955 32.2174C83.2955 32.121 83.2759 32.0256 83.2381 31.937V31.9625Z" fill="#403D4F"/>
    <path d="M95.6508 32.9307C95.6508 32.9307 95.6508 32.9307 95.8037 32.9307L96.186 32.7777H96.4664C96.5672 32.7556 96.6715 32.7556 96.7723 32.7777C96.9975 32.7033 97.2274 32.6437 97.4604 32.5993C97.6976 32.5728 97.937 32.5728 98.1741 32.5993H99.627C99.7128 32.5994 99.7979 32.5821 99.8769 32.5485C99.9559 32.5149 100.027 32.4656 100.087 32.4038C100.146 32.3419 100.193 32.2686 100.223 32.1883C100.254 32.108 100.268 32.0224 100.264 31.9366C100.259 31.8102 100.218 31.6878 100.146 31.5839C100.074 31.48 99.9732 31.399 99.8564 31.3504L99.0662 31.07C98.7843 30.9856 98.4934 30.9343 98.1996 30.9171C97.8531 30.8665 97.5011 30.8665 97.1546 30.9171C96.4892 31.0005 95.8569 31.2552 95.3194 31.6562L94.8351 32.1405C94.7077 32.2935 94.7077 32.3444 94.7077 32.3699V32.5993C94.6853 32.7743 94.731 32.9513 94.8354 33.0936C94.9397 33.2359 95.0948 33.3327 95.2685 33.364C95.4431 33.2692 95.5785 33.1157 95.6508 32.9307Z" fill="#403D4F"/>
    <path d="M90.4263 47.8671C90.8559 47.8646 91.2806 47.7753 91.6748 47.6044C92.069 47.4336 92.4247 47.1848 92.7202 46.873C92.8282 46.7575 92.9112 46.6208 92.9638 46.4717C93.0164 46.3226 93.0376 46.1641 93.0261 46.0064C93.0261 45.726 92.5928 42.2086 92.4398 40.9087C92.4105 40.783 92.3387 40.6712 92.2366 40.5923C92.1344 40.5133 92.0082 40.472 91.8792 40.4754C91.7483 40.4944 91.63 40.5636 91.5491 40.6682C91.4683 40.7728 91.4312 40.9047 91.4458 41.0362C91.4458 41.2146 92.0065 45.828 92.0575 46.1338C91.8489 46.3648 91.5929 46.5482 91.307 46.6713C91.0211 46.7945 90.712 46.8546 90.4008 46.8475C90.2701 46.8541 90.1468 46.9107 90.0567 47.0056C89.9665 47.1005 89.9163 47.2264 89.9165 47.3573C89.9227 47.4905 89.9784 47.6166 90.0727 47.7109C90.167 47.8052 90.2931 47.8609 90.4263 47.8671Z" fill="#F18380"/>
    <path d="M92.7706 52.8883C93.7137 53.1177 94.0705 54.545 93.4843 56.2018C92.906 57.3425 91.96 58.2548 90.7991 58.7914C89.6382 59.3279 88.3302 59.4572 87.0867 59.1584C86.4079 59.1262 85.7423 58.9585 85.1292 58.6653C84.5161 58.3721 83.9679 57.9592 83.5167 57.451C83.0654 56.9428 82.7204 56.3495 82.5018 55.706C82.2832 55.0625 82.1955 54.3818 82.2439 53.7039C82.2439 52.6079 83.0086 51.9707 84.4359 51.9707C87.2348 52.0454 90.0225 52.3523 92.7706 52.8883Z" fill="#73102A"/>
    <path d="M82.2439 53.8314V53.602C84.1095 53.1709 86.069 53.4554 87.735 54.3993C89.401 55.3432 90.6523 56.8778 91.2414 58.6997C89.9301 59.3423 88.4552 59.5733 87.0103 59.3624C86.3311 59.3207 85.667 59.1435 85.0574 58.8412C84.4478 58.5389 83.9049 58.1175 83.4607 57.6021C83.0164 57.0866 82.68 56.4874 82.471 55.8398C82.262 55.1922 82.1848 54.5093 82.2439 53.8314Z" fill="#D65155"/>
    <path d="M91.955 54.4177C88.727 54.4677 85.5134 53.9766 82.4478 52.9648C82.6398 52.6176 82.9326 52.3367 83.2875 52.1592C83.6424 51.9818 84.0428 51.9161 84.4358 51.9708C87.2347 52.0455 90.0225 52.3524 92.7705 52.8884C93.0341 52.9792 93.2647 53.1465 93.4326 53.369C93.6006 53.5914 93.6984 53.8589 93.7136 54.1373C93.1495 54.3375 92.5534 54.4326 91.955 54.4177Z" fill="white"/>
    <path d="M77.784 24.7238C77.784 24.7238 75.2352 37.468 64.4281 42.4128C64.4281 42.4128 53.4171 36.0152 54.6915 23.8062C56.2718 8.76803 77.6312 -8.1563 98.8885 7.85044C100.953 7.51909 103.196 3.16057 102.533 0C103.402 0.545974 104.086 1.34146 104.495 2.28242C104.905 3.22337 105.021 4.26599 104.828 5.27389C104.635 6.28178 104.143 7.20804 103.415 7.9315C102.687 8.65497 101.758 9.14196 100.749 9.32877C104.219 9.81218 107.368 11.6173 109.538 14.3673C111.709 17.1172 112.733 20.5994 112.397 24.0866C112.289 26.2852 111.373 28.3665 109.826 29.9325C108.279 31.4984 106.209 32.4389 104.012 32.5742H100.265C97.3662 31.2458 95.0223 28.947 93.6378 26.0747C93.9984 28.2398 94.7498 30.3212 95.8554 32.2174C96.0593 32.5997 95.6005 33.2624 92.4654 32.5997C88.8662 31.3617 85.858 28.8261 84.0287 25.4884C84.714 27.677 85.6282 29.7872 86.756 31.7841C86.756 32.1664 85.0992 32.7272 82.6523 31.6057C81.2894 31.013 80.115 30.0582 79.2567 28.8449C78.3984 27.6316 77.889 26.2063 77.784 24.7238Z" fill="#BC664A"/>
    <path d="M94.5044 34.7406C93.5868 34.7406 93.23 36.4228 93.23 38.0286C93.3237 40.2037 93.973 42.3185 95.1161 44.1713C95.5838 44.7304 96.1903 45.1567 96.8748 45.4072C97.5593 45.6577 98.2977 45.7238 99.0158 45.5987C99.8903 45.7339 100.784 45.6762 101.634 45.4297C102.483 45.1831 103.269 44.7536 103.935 44.1713C105.338 42.4141 106.174 40.2718 106.331 38.0286C106.331 36.4228 105.847 34.7406 104.7 34.7406H94.5044Z" stroke="#403D4F" stroke-width="0.75" stroke-miterlimit="10"/>
    <path d="M86.8064 34.7406C88.0298 34.7406 88.5141 36.4228 88.5141 38.0286C88.347 40.297 87.4532 42.451 85.9653 44.1713C85.2608 44.7495 84.4439 45.1749 83.5664 45.4206C82.6888 45.6663 81.7698 45.727 80.8676 45.5987C78.5767 45.8933 76.2542 45.3892 74.2915 44.1713C72.5016 42.592 71.3654 40.4015 71.1055 38.0286C71.1055 36.4228 71.7172 34.7406 73.272 34.7406H86.8064Z" stroke="#403D4F" stroke-width="0.75" stroke-miterlimit="10"/>
    <path d="M93.4341 36.2697C92.7016 35.7116 91.8062 35.4093 90.8853 35.4093C89.9644 35.4093 89.0689 35.7116 88.3364 36.2697" stroke="#403D4F" stroke-width="0.75" stroke-miterlimit="10"/>
    <path d="M73.222 34.7406H70.1124C69.4497 34.7406 68.6851 34.8935 68.6851 35.7856V37.213C68.6851 37.5698 70.9535 38.2835 71.2339 39.0736" stroke="#403D4F" stroke-width="0.75" stroke-miterlimit="10"/>
    <path d="M61.9048 38.4622L68.6847 35.7859" stroke="#403D4F" stroke-width="0.75" stroke-miterlimit="10"/>
    <path d="M65.3956 44.2988C65.1917 40.8324 64.2741 36.7797 60.043 37.3915C55.0982 38.1561 54.6139 51.5375 65.1407 49.9318L65.3956 44.2988Z" fill="#FBBEAA"/>
    <path d="M59.687 45.1909C59.7757 45.1921 59.8629 45.169 59.9393 45.1241C60.0158 45.0791 60.0783 45.0141 60.1203 44.936C60.2323 44.7154 60.3988 44.527 60.604 44.3887C60.8092 44.2504 61.0463 44.1668 61.2928 44.1459C61.5869 44.1491 61.8752 44.2282 62.1297 44.3756C62.3843 44.5229 62.5964 44.7335 62.7457 44.987C62.8066 45.0742 62.8944 45.1389 62.9958 45.1711C63.0971 45.2034 63.2063 45.2014 63.3064 45.1654C63.4143 45.1355 63.5076 45.0672 63.5687 44.9733C63.6297 44.8794 63.6542 44.7664 63.6377 44.6556C63.5936 43.5836 63.2598 42.5435 62.6719 41.6459C62.084 40.7483 61.2639 40.0268 60.2988 39.5579C60.2339 39.5194 60.1613 39.4958 60.0861 39.4887C60.011 39.4816 59.9353 39.4913 59.8644 39.5171C59.7934 39.5428 59.7291 39.584 59.676 39.6377C59.623 39.6913 59.5825 39.7561 59.5575 39.8272C59.5325 39.8984 59.5235 39.9743 59.5314 40.0493C59.5393 40.1244 59.5637 40.1967 59.6029 40.2612C59.6421 40.3256 59.6952 40.3806 59.7582 40.4221C59.8212 40.4635 59.8927 40.4905 59.9674 40.501C60.5402 40.7794 61.0504 41.1716 61.4667 41.6537C61.883 42.1357 62.1968 42.6975 62.3888 43.3047C62.0331 43.1293 61.6376 43.0502 61.2418 43.0753C60.8298 43.1143 60.4335 43.2531 60.0871 43.4796C59.7407 43.706 59.4547 44.0135 59.2537 44.3753C59.1979 44.4911 59.1879 44.6237 59.2257 44.7466C59.2635 44.8695 59.3463 44.9736 59.4576 45.038L59.687 45.1909Z" fill="#F18380"/>
    <path d="M172.287 78.356C172.389 76.1209 171.791 73.9098 170.575 72.0313C168.704 69.8617 167.302 69.3283 166.458 66.5905C165.809 64.0492 164.771 61.623 163.383 59.3977C162.39 58.0336 160.902 56.9175 160.902 55.8758C160.902 54.8341 162.887 52.8251 165.714 53.3955C166.925 53.7728 168.038 54.4132 168.973 55.2707C169.907 56.1283 170.641 57.1819 171.121 58.3561C171.392 57.6406 171.551 56.8877 171.592 56.1238L172.212 38.9198C172.222 38.5257 172.31 38.1374 172.472 37.778C172.634 37.4185 172.866 37.0952 173.155 36.827C173.444 36.5588 173.784 36.3512 174.155 36.2165C174.525 36.0818 174.919 36.0227 175.313 36.0427C175.94 36.0695 176.542 36.292 177.036 36.6791C177.287 36.8755 181.482 41.9632 185.577 47.0062C189.551 51.9011 193.431 56.7539 193.518 57.0505C192.722 64.2799 191.226 71.4151 189.053 78.356C189.027 79.5148 188.759 80.6554 188.265 81.7043C187.772 82.7533 187.064 83.6874 186.188 84.4466C185.312 85.2057 184.287 85.7732 183.179 86.1125C182.07 86.4518 180.903 86.5555 179.752 86.4168C178.711 86.4515 177.674 86.2619 176.712 85.8608C175.751 85.4596 174.886 84.8563 174.178 84.0917C173.47 83.3272 172.935 82.4193 172.608 81.4296C172.282 80.44 172.172 79.3917 172.287 78.356Z" fill="#FBBEAA"/>
    <path d="M176.285 31.8014L159.029 48.7278C158.846 48.4676 158.663 48.1935 158.481 47.9333C157.932 47.1387 157.377 46.3373 156.828 45.5427C156.624 45.2482 156.427 44.9604 156.224 44.6659C155.401 43.481 155.561 41.8765 156.585 40.8693L168.475 29.2027C169.499 28.1955 171.107 28.0723 172.278 28.9146C172.564 29.1252 172.849 29.322 173.135 29.5327C173.922 30.0964 174.71 30.6601 175.497 31.2238C175.755 31.421 176.02 31.6112 176.285 31.8014Z" fill="#E2874A"/>
    <g opacity="0.53">
        <path d="M175.497 31.2367L158.473 47.9254C157.925 47.1308 157.369 46.3295 156.821 45.5349L173.128 29.5387C173.922 30.1092 174.71 30.6729 175.497 31.2367Z" fill="#D46424"/>
    </g>
    <path d="M179.322 34.0595C179.953 34.8116 180.591 35.5567 181.229 36.3157C182.126 37.3685 183.009 38.4215 183.899 39.4813C187.333 43.5424 190.754 47.6037 194.188 51.6649C196.031 53.8459 197.874 56.0269 199.718 58.2079C200.895 59.6027 200.796 61.6623 199.499 62.9353L189.69 72.5526C188.393 73.8256 186.329 73.8853 184.953 72.6795C182.81 70.7923 180.659 68.912 178.516 67.0248C174.522 63.5092 170.528 60.0075 166.534 56.4919C165.494 55.5859 164.453 54.6661 163.42 53.7531C162.687 53.1058 161.94 52.4588 161.199 51.8047C160.243 50.9667 159.862 49.7211 160.076 48.5649C160.192 47.8866 160.529 47.2332 161.054 46.7087L174.208 33.8041C174.747 33.2794 175.399 32.9606 176.089 32.8555C177.268 32.6823 178.502 33.0817 179.322 34.0595Z" fill="#F5F5F5"/>
    <path d="M183.9 39.4795C187.334 43.5407 190.755 47.602 194.189 51.6632L178.524 67.0299C174.53 63.5143 170.536 60.0126 166.535 56.504L183.9 39.4795Z" fill="#E2874A"/>
    <g opacity="0.52">
        <path d="M176.001 58.6393C173.948 56.8408 171.909 55.0421 169.863 53.2503L166.553 56.5027C170.547 60.0182 174.54 63.52 178.541 67.0285L194.206 51.6618C193.653 51.0124 193.113 50.3627 192.559 49.7133L183.665 58.4353C181.556 60.4987 178.214 60.5809 176.001 58.6393Z" fill="#E2874A"/>
    </g>
    <path d="M179.347 33.6984L160.863 51.8279C159.887 52.7862 158.312 52.7777 157.354 51.7878L157.263 51.6991C156.304 50.7231 156.32 49.1549 157.303 48.1897L175.787 30.0602C176.763 29.1019 178.331 29.1173 179.297 30.1003L179.387 30.1889C180.339 31.172 180.323 32.7402 179.347 33.6984Z" fill="#E2874A"/>
    <g opacity="0.53">
        <path d="M178.299 29.498C178.642 30.4056 178.44 31.4649 177.703 32.1784L159.273 50.252C158.577 50.9374 157.585 51.1291 156.718 50.8427C156.839 51.1659 157.022 51.4675 157.281 51.72L157.316 51.7541C158.288 52.7438 159.891 52.7657 160.881 51.7935L179.311 33.7199C180.3 32.7477 180.322 31.1449 179.35 30.1552L179.315 30.1211C179.021 29.8345 178.673 29.6177 178.299 29.498Z" fill="#D46424"/>
    </g>
    <path d="M179.766 53.1576C181.452 52.688 182.925 52.2832 184.581 54.3905C183.574 55.6461 181.538 56.3203 179.358 55.9531C176.568 55.4829 174.561 53.4973 174.765 51.4571C175.613 52.5313 176.955 53.7582 178.526 53.4628C178.939 53.3886 179.366 53.2729 179.766 53.1576Z" fill="#5B2500"/>
    <path d="M180.632 48.3532C183.505 48.8363 185.554 50.9319 185.2 53.0292C185.194 53.0914 185.174 53.1538 185.161 53.2092C183.123 50.9753 181.106 51.5318 179.44 51.9942C179.041 52.1096 178.669 52.2108 178.297 52.2706C177.125 52.4921 175.927 51.1045 175.266 50.0903C176.223 48.7178 178.341 47.9736 180.632 48.3532Z" fill="#5B2500"/>
    <path d="M179.877 43.7212C178.468 41.4737 181.329 38.5099 183.144 37.3518C183.144 37.3518 184.236 36.088 186.5 38.3519C189 40.852 187.5 42.5631 187.5 42.5631C185.867 44.3002 182.055 47.1953 179.877 43.7212Z" fill="#FBBEAA"/>
    <path d="M183.877 48.073C182.468 45.8255 185.329 42.8617 187.144 41.7036C187.144 41.7036 188.236 40.4398 190.5 42.7037C193 45.2038 191.5 46.9149 191.5 46.9149C189.867 48.652 186.055 51.5471 183.877 48.073Z" fill="#FBBEAA"/>
    <path d="M187.877 52.073C186.468 49.8255 189.329 46.8617 191.144 45.7036C191.144 45.7036 192.236 44.4398 194.5 46.7037C197 49.2038 195.5 50.9149 195.5 50.9149C193.867 52.652 190.055 55.5471 187.877 52.073Z" fill="#FBBEAA"/>
    <path d="M192.813 55.6334C191.645 53.7496 194.016 51.2655 195.52 50.2949C195.52 50.2949 196.425 49.2356 198.301 51.1331C200.373 53.2286 199.13 54.6627 199.13 54.6627C197.776 56.1187 194.617 58.5453 192.813 55.6334Z" fill="#FBBEAA"/>
    <path d="M87.7026 483.134C87.7026 480.746 88.6512 478.456 90.3397 476.768C92.0281 475.079 94.3182 474.131 96.706 474.131C99.0938 474.131 101.384 475.079 103.072 476.768C104.761 478.456 105.709 480.746 105.709 483.134V502.703H87.7026V483.134Z" fill="#FBBEAA"/>
    <path d="M105.065 486.78C107.272 486.78 107.669 487.748 108.314 489.012C109.36 492.383 111.148 495.477 113.547 498.065C117.129 501.116 120.971 503.847 125.031 506.225V516.593H84.9497C84.9497 516.593 85.2225 508.408 85.421 502.629C85.6194 496.85 86.1899 489.806 86.1403 489.062C86.0907 488.318 86.1402 486.78 87.5044 486.78H105.065Z" fill="#302D3B"/>
    <path d="M89.9346 503.199C89.9297 504.472 90.303 505.717 91.0069 506.777C91.7109 507.838 92.7139 508.665 93.8887 509.154C95.0636 509.643 96.3572 509.773 97.6056 509.526C98.8541 509.279 100.001 508.666 100.901 507.766C101.801 506.866 102.413 505.72 102.66 504.471C102.907 503.223 102.778 501.929 102.289 500.754C101.799 499.579 100.972 498.576 99.9119 497.872C98.8517 497.168 97.6064 496.795 96.3337 496.8C94.6386 496.807 93.0147 497.483 91.8161 498.682C90.6174 499.88 89.9412 501.504 89.9346 503.199Z" fill="#93929C"/>
    <path d="M96.3337 499.429L94.8703 501.587L92.3652 502.306L93.9526 504.365L93.8782 506.969L96.3337 506.076L98.7891 506.969L98.6899 504.365L100.302 502.306L97.797 501.587L96.3337 499.429Z" fill="white"/>
    <path d="M124.758 506.052C124.758 506.052 130.437 509.053 132.57 510.516C133.558 511.185 134.36 512.094 134.902 513.156C135.444 514.219 135.709 515.401 135.671 516.593H120.095C120.095 516.593 120.417 508.979 124.758 506.052Z" fill="white"/>
    <path d="M84.9497 516.593V520.884C84.9497 521.603 85.5946 522 86.6859 522H133.96C135.026 522 135.671 521.603 135.671 520.884V516.593H84.9497Z" fill="white"/>
    <path d="M120.095 503.15C120.232 502.939 120.446 502.79 120.691 502.734C120.937 502.679 121.194 502.721 121.409 502.852C121.516 502.918 121.609 503.005 121.682 503.107C121.755 503.209 121.807 503.324 121.834 503.447C121.862 503.569 121.865 503.696 121.843 503.82C121.821 503.943 121.775 504.061 121.707 504.167L120.045 506.845C119.965 506.984 119.849 507.099 119.709 507.177C119.57 507.256 119.411 507.296 119.251 507.292C119.068 507.289 118.888 507.238 118.73 507.143C118.623 507.077 118.531 506.991 118.458 506.889C118.385 506.787 118.333 506.671 118.305 506.548C118.277 506.426 118.274 506.299 118.296 506.176C118.318 506.052 118.365 505.934 118.433 505.829L120.095 503.15Z" fill="white"/>
    <path d="M117.168 501.091C117.249 500.997 117.348 500.919 117.46 500.863C117.571 500.807 117.693 500.773 117.817 500.764C117.941 500.755 118.066 500.77 118.185 500.809C118.303 500.848 118.413 500.91 118.507 500.992C118.602 501.073 118.679 501.172 118.735 501.284C118.791 501.395 118.825 501.517 118.834 501.641C118.843 501.765 118.828 501.89 118.789 502.009C118.75 502.127 118.688 502.237 118.606 502.331L116.672 504.613C116.582 504.718 116.472 504.802 116.349 504.862C116.225 504.922 116.09 504.955 115.952 504.96C115.773 504.957 115.598 504.904 115.447 504.806C115.296 504.709 115.175 504.571 115.097 504.409C115.02 504.247 114.99 504.066 115.009 503.888C115.029 503.709 115.098 503.539 115.208 503.398L117.168 501.091Z" fill="white"/>
    <path d="M114.415 498.785C114.612 498.658 114.849 498.607 115.081 498.641C115.314 498.676 115.525 498.793 115.677 498.973C115.829 499.152 115.91 499.38 115.906 499.614C115.902 499.849 115.813 500.074 115.655 500.248L113.448 502.158C113.275 502.305 113.055 502.384 112.828 502.381C112.691 502.386 112.555 502.36 112.431 502.304C112.306 502.248 112.196 502.164 112.109 502.059C112.017 501.973 111.944 501.869 111.894 501.754C111.844 501.639 111.818 501.515 111.818 501.389C111.818 501.264 111.844 501.139 111.894 501.024C111.944 500.909 112.017 500.805 112.109 500.719L114.415 498.785Z" fill="white"/>
    <path d="M109.579 497.644L112.059 496.106C112.277 495.977 112.536 495.939 112.782 495.999C113.028 496.059 113.24 496.213 113.373 496.428C113.44 496.535 113.485 496.655 113.505 496.779C113.526 496.904 113.52 497.031 113.49 497.154C113.46 497.276 113.406 497.392 113.33 497.493C113.255 497.594 113.16 497.679 113.051 497.743L110.571 499.281C110.424 499.378 110.251 499.43 110.075 499.429C109.913 499.426 109.755 499.38 109.616 499.298C109.477 499.215 109.362 499.098 109.281 498.958C109.15 498.743 109.107 498.486 109.163 498.241C109.219 497.995 109.368 497.781 109.579 497.644Z" fill="white"/>
    <path d="M107.495 494.444L110.272 493.279C110.509 493.18 110.776 493.18 111.013 493.277C111.25 493.375 111.439 493.563 111.537 493.8C111.586 493.915 111.611 494.039 111.611 494.164C111.611 494.29 111.586 494.414 111.537 494.529C111.489 494.644 111.418 494.749 111.328 494.837C111.239 494.924 111.133 494.993 111.017 495.04L108.239 496.205H107.867C107.653 496.194 107.449 496.112 107.286 495.972C107.124 495.832 107.013 495.642 106.97 495.432C106.928 495.222 106.956 495.003 107.051 494.811C107.146 494.619 107.302 494.464 107.495 494.37V494.444Z" fill="white"/>
    <path d="M105.759 490.873L108.834 490.104C109.078 490.044 109.335 490.084 109.549 490.215C109.763 490.345 109.916 490.555 109.975 490.798C110.034 491.042 109.995 491.298 109.864 491.512C109.734 491.726 109.524 491.88 109.281 491.939L106.23 492.733H106.007C105.793 492.73 105.586 492.659 105.416 492.529C105.246 492.4 105.123 492.219 105.064 492.013C105.011 491.77 105.054 491.516 105.183 491.304C105.312 491.091 105.519 490.937 105.759 490.873Z" fill="white"/>
    <path d="M74.5322 357.98C74.8051 345.976 82.8907 340.172 94.8703 340.47C106.85 340.768 115.481 347.043 115.208 359.022L105.709 484.102H87.7024L74.5322 357.98Z" fill="#FBBEAA"/>
    <path d="M72.9692 357.906C73.036 355.056 73.6635 352.247 74.8158 349.639C75.9681 347.032 77.6228 344.677 79.6852 342.709C81.7477 340.741 84.1776 339.198 86.8361 338.169C89.4947 337.14 92.3299 336.645 95.1799 336.712C98.0299 336.779 100.839 337.406 103.446 338.558C106.054 339.711 108.409 341.365 110.377 343.428C112.345 345.49 113.887 347.92 114.916 350.579C115.945 353.237 116.441 356.072 116.374 358.922L122.005 487.5H72.9702L72.9692 357.906Z" fill="#93929C"/>
    <path d="M11.8062 483.134C11.8062 480.746 12.7547 478.456 14.4432 476.768C16.1316 475.079 18.4217 474.131 20.8095 474.131C23.1973 474.131 25.4874 475.079 27.1758 476.768C28.8643 478.456 29.8129 480.746 29.8129 483.134V502.703H11.8062V483.134Z" fill="#FBBEAA"/>
    <path d="M29.1438 486.78C31.3761 486.78 31.7729 487.748 32.393 489.012C33.4508 492.384 35.2471 495.476 37.6511 498.065C41.2282 501.122 45.0714 503.853 49.1347 506.225V516.593H9.05371C9.05371 516.593 9.32655 508.408 9.52497 502.629C9.72339 496.85 10.2691 489.806 10.2443 489.062C10.2195 488.318 10.2442 486.78 11.5836 486.78H29.1438Z" fill="#302D3B"/>
    <path d="M14.0142 503.199C14.0093 504.471 14.3819 505.715 15.0848 506.775C15.7876 507.834 16.7892 508.662 17.9625 509.152C19.1359 509.642 20.4283 509.772 21.676 509.527C22.9238 509.282 24.0707 508.672 24.9716 507.775C25.8725 506.878 26.4868 505.733 26.7367 504.486C26.9865 503.24 26.8608 501.947 26.3753 500.771C25.8898 499.596 25.0665 498.591 24.0096 497.884C22.9526 497.177 21.7097 496.8 20.4381 496.8C18.7387 496.8 17.1085 497.473 15.9045 498.673C14.7005 499.872 14.0208 501.5 14.0142 503.199Z" fill="#93929C"/>
    <path d="M20.4133 499.429L18.9499 501.587L16.4448 502.306L18.057 504.365L17.9826 506.969L20.4133 506.076L22.8687 506.969L22.7943 504.365L24.4065 502.306L21.8766 501.587L20.4133 499.429Z" fill="white"/>
    <path d="M48.8364 506.052C48.8364 506.052 54.541 509.053 56.6492 510.516C57.6418 511.18 58.4478 512.087 58.9905 513.151C59.5332 514.215 59.7945 515.4 59.7496 516.593H44.0991C44.0991 516.593 44.5208 508.979 48.8364 506.052Z" fill="white"/>
    <path d="M9.05371 516.593V520.884C9.05371 521.603 9.67378 522 10.7651 522H58.0885C59.1798 522 59.7998 521.603 59.7998 520.884V516.593H9.05371Z" fill="white"/>
    <path d="M44.1986 503.15C44.3334 502.936 44.5477 502.785 44.7942 502.729C45.0407 502.673 45.2993 502.717 45.5131 502.852C45.7269 502.987 45.8783 503.201 45.9342 503.448C45.99 503.694 45.9456 503.953 45.8107 504.167L44.149 506.846C44.063 506.985 43.9423 507.099 43.7988 507.177C43.6553 507.255 43.4939 507.295 43.3305 507.292C43.1541 507.292 42.9815 507.241 42.8344 507.143C42.7275 507.077 42.6348 506.991 42.5617 506.889C42.4887 506.787 42.4367 506.671 42.409 506.549C42.3813 506.426 42.3783 506.299 42.4002 506.176C42.4222 506.052 42.4686 505.934 42.5368 505.829L44.1986 503.15Z" fill="white"/>
    <path d="M41.247 501.091C41.4105 500.901 41.6416 500.781 41.8915 500.758C42.1415 500.735 42.3906 500.81 42.5863 500.967C42.7783 501.135 42.8984 501.37 42.9215 501.624C42.9446 501.878 42.869 502.132 42.7103 502.331L40.7509 504.613C40.6649 504.721 40.5556 504.809 40.431 504.869C40.3064 504.929 40.1699 504.96 40.0316 504.96C39.8498 504.962 39.6713 504.911 39.5177 504.814C39.3641 504.717 39.242 504.577 39.166 504.412C39.0899 504.247 39.0633 504.063 39.0893 503.883C39.1152 503.703 39.1927 503.535 39.3123 503.398L41.247 501.091Z" fill="white"/>
    <path d="M38.519 498.785C38.7163 498.658 38.9531 498.607 39.1853 498.641C39.4175 498.676 39.6292 498.793 39.781 498.973C39.9327 499.152 40.0142 499.38 40.0102 499.614C40.0061 499.849 39.9169 500.074 39.7591 500.248L37.5269 502.158C37.3538 502.305 37.1336 502.384 36.9068 502.381C36.7705 502.384 36.6352 502.357 36.5108 502.301C36.3864 502.245 36.2759 502.163 36.1875 502.059C36.099 501.971 36.0288 501.867 35.9808 501.752C35.9329 501.637 35.9082 501.514 35.9082 501.389C35.9082 501.265 35.9329 501.141 35.9808 501.026C36.0288 500.911 36.099 500.807 36.1875 500.719L38.519 498.785Z" fill="white"/>
    <path d="M33.6824 497.644L36.1626 496.106C36.3766 496.016 36.6159 496.005 36.8368 496.077C37.0578 496.148 37.2456 496.297 37.3659 496.496C37.4863 496.694 37.5312 496.93 37.4924 497.159C37.4537 497.388 37.3338 497.595 37.1547 497.743L34.6745 499.281C34.5275 499.378 34.3548 499.43 34.1784 499.429C34.0131 499.427 33.8511 499.383 33.7078 499.301C33.5645 499.218 33.4447 499.1 33.3599 498.958C33.2311 498.74 33.1927 498.481 33.2529 498.235C33.3132 497.989 33.4674 497.777 33.6824 497.644Z" fill="white"/>
    <path d="M171.071 88.8421L160.974 144.5C159.308 151.482 161.883 157.799 171.071 158.907C172.767 159.101 174.49 158.99 176.136 158.582C177.782 158.173 179.316 157.475 180.645 156.529C181.974 155.584 183.071 154.412 183.868 153.083C184.665 151.754 185.146 150.297 185.283 148.8L188.362 88.9529C189.17 83.3007 186.368 79.5326 181.471 79.0671C175.463 78.4908 172.283 81.6161 171.071 88.8421Z" fill="#FBBEAA"/>
    <path d="M31.5992 494.445L34.3771 493.279C34.4926 493.23 34.6165 493.206 34.7418 493.206C34.867 493.206 34.9909 493.231 35.1064 493.279C35.2219 493.328 35.3265 493.399 35.4142 493.488C35.5019 493.577 35.5709 493.683 35.6172 493.8C35.7098 494.031 35.71 494.288 35.6176 494.519C35.5252 494.75 35.3474 494.937 35.1212 495.04L32.3185 496.206C32.2041 496.231 32.0855 496.231 31.9712 496.206C31.7802 496.206 31.5935 496.149 31.4346 496.043C31.2757 495.937 31.1518 495.787 31.0783 495.61C31.003 495.386 31.0148 495.142 31.1113 494.926C31.2078 494.71 31.3819 494.538 31.5992 494.445Z" fill="white"/>
    <path d="M29.8625 490.873L32.9133 490.104C33.1598 490.044 33.4202 490.083 33.6383 490.212C33.8564 490.342 34.0147 490.553 34.079 490.798C34.1086 490.919 34.114 491.044 34.0951 491.167C34.0762 491.289 34.0332 491.407 33.9687 491.513C33.9042 491.619 33.8194 491.711 33.7191 491.784C33.6189 491.858 33.5051 491.91 33.3845 491.939L30.3338 492.733H30.0858C29.8623 492.716 29.6517 492.622 29.49 492.466C29.3283 492.311 29.2255 492.105 29.1991 491.882C29.1727 491.66 29.2245 491.435 29.3455 491.246C29.4665 491.058 29.6493 490.917 29.8625 490.848V490.873Z" fill="white"/>
    <path d="M21.6533 357.608C22.8717 351.978 26.2759 347.062 31.1176 343.942C35.9593 340.821 41.8422 339.75 47.4729 340.966C59.2045 343.446 65.5291 355.004 62.9993 366.736L29.8134 486.16H11.5835L21.6533 357.608Z" fill="#FBBEAA"/>
    <path d="M21.6562 355.252C23.0023 349.757 26.4384 345.004 31.2341 342.003C36.0298 339.002 41.8069 337.99 47.3371 339.182C52.8673 340.374 57.7145 343.676 60.8482 348.386C63.982 353.096 65.155 358.842 64.1181 364.404L50.9237 487C50.9237 487 19.3252 488.885 0.5 487L21.6562 355.252Z" fill="#93929C"/>
    <path d="M179.051 135.402L107.818 81.2827C99.5087 75.9749 93.8538 78.8024 89.439 84.4822C87.4228 87.2313 86.488 90.6258 86.8127 94.0195C87.1374 97.4132 88.699 100.569 91.1999 102.886L162.259 155.244C164.763 157.359 167.987 158.426 171.258 158.223C174.53 158.019 177.597 156.561 179.82 154.153L180.142 153.806C181.322 152.547 182.233 151.061 182.819 149.439C183.406 147.816 183.656 146.091 183.554 144.369C183.452 142.647 183 140.964 182.225 139.422C181.451 137.88 180.371 136.512 179.051 135.402Z" fill="#FBBEAA"/>
    <path d="M91.1993 102.861C90.5416 102.295 89.9432 101.663 89.4135 100.976C88.9452 99.2109 88.8849 97.3622 89.2373 95.5702C89.5896 93.7781 90.3455 92.0899 91.4474 90.6335C95.1926 84.8545 103.055 80.3156 106.552 81.1837L110.024 82.9447L149.337 112.708C145.857 120.885 141.157 128.486 135.398 135.253L91.1993 102.861Z" fill="#F18380"/>
    <path d="M101.939 77.4133L163.582 118.988C163.323 121.115 170.157 77.4133 170.157 77.4133L189.493 79.9297C189.493 79.9297 189.099 124.058 186.213 147.478C185.06 156.828 177.35 160.397 168.146 158.389C163.602 157.397 159.324 155.533 155.517 152.861C139.159 141.379 93.2652 109.038 89.513 104.969C83.0395 97.9499 83.0395 92.6918 86.7599 86.9128C90.4803 81.1338 98.4419 76.5452 101.939 77.4133Z" fill="#002776"/>
    <path d="M72.9693 357.906L60.2456 224.691C60.2456 209.983 75.4 193.961 97.7471 197.408C117.936 200.558 124.088 220.847 122.426 240.069C120.764 259.291 116.275 358.849 116.275 358.849C116.208 361.699 115.58 364.507 114.428 367.115C113.276 369.722 111.621 372.077 109.559 374.045C107.496 376.013 105.066 377.556 102.408 378.585C99.7492 379.614 96.9139 380.109 94.064 380.042C91.214 379.976 88.405 379.348 85.7975 378.196C83.1901 377.043 80.8351 375.389 78.867 373.326C76.899 371.264 75.3565 368.834 74.3276 366.175C73.2986 363.517 72.8034 360.682 72.8702 357.832L72.9693 357.906Z" fill="#93929C"/>
    <path d="M21.6538 355.252L34.3031 222.062C36.9818 207.602 54.9637 194.779 76.2691 202.369C95.4911 209.239 97.7233 230.321 92.4652 248.899C87.207 267.476 64.1158 364.404 64.1158 364.404C62.7697 369.899 59.3336 374.652 54.5379 377.653C49.7422 380.654 43.9651 381.666 38.4349 380.474C32.9047 379.282 28.0575 375.98 24.9238 371.27C21.79 366.56 20.6169 360.813 21.6538 355.252Z" fill="#93929C"/>
    <path d="M92.4646 248.899C87.2312 267.476 64.1152 364.405 64.1152 364.405" stroke="#5E5D63" stroke-width="0.75" stroke-miterlimit="10"/>
    <path d="M88.7442 75.3049C88.7442 75.3049 99.707 77.2147 101.84 77.7852C103.099 78.0806 104.262 78.6907 105.221 79.5583C106.179 80.4259 106.902 81.5226 107.321 82.7457C108.686 85.9949 115.705 107.275 116.35 109.582C116.786 112.123 116.376 114.737 115.184 117.023C114.167 119.801 108.909 132.45 108.909 132.45L108.115 173.201L78.5021 177.898L50.1266 173.201C50.1266 173.201 40.2056 97.4041 39.7095 92.7164C39.2135 88.0287 41.5449 78.9758 47.1503 77.8348C52.7557 76.6939 68.1333 75.3546 68.1333 75.3546L88.7442 75.3049Z" fill="#FBBEAA"/>
    <path d="M109.506 156.816V171.142C90.11 172.928 59.2047 171.663 47.5971 171.142C47.0515 167.05 46.481 160.105 45.8857 155.492C61.685 155.889 87.7786 157.361 109.506 156.816Z" fill="white"/>
    <path d="M7.21834 169.555L38.9905 85.9453C43.2317 77.0164 49.5068 76.4211 56.3523 78.9014C59.5185 80.1644 62.1085 82.5495 63.6274 85.6012C65.1464 88.6529 65.4879 92.1572 64.5867 95.4448L31.8721 177.566C30.8805 180.69 28.717 183.309 25.8358 184.872C22.9546 186.435 19.5799 186.821 16.4201 185.949L15.9488 185.825C14.2821 185.371 12.7254 184.581 11.3737 183.505C10.022 182.429 8.90368 181.089 8.08679 179.566C7.2699 178.044 6.77162 176.371 6.62231 174.65C6.473 172.929 6.6758 171.195 7.21834 169.555Z" fill="#FBBEAA"/>
    <path d="M20.3877 134.881L38.9896 85.9452C39.4885 84.872 40.0776 83.8432 40.7506 82.8697C43.0292 81.4431 45.6378 80.6295 48.3234 80.5078C51.0089 80.3861 53.6804 80.9605 56.0786 82.1752C58.8635 83.5304 61.1021 85.796 62.4237 88.597C63.7453 91.3981 64.0706 94.5665 63.3458 97.5776C63.3458 97.8752 63.1722 98.4457 63.0234 99.2146L43.8261 147.456C35.4409 144.432 27.5442 140.195 20.3877 134.881Z" fill="#F18380"/>
    <path d="M40.7262 81.4811L5.41406 173.129C34.418 163.848 36 168.5 41.5 154C41.5 154 64.9831 97.95 65.6776 94.1304C66.4024 91.1192 66.0771 87.9509 64.7555 85.1499C63.4339 82.3489 61.1953 80.0832 58.4104 78.728C50.6472 74.7596 42.9088 78.356 40.7262 81.4811Z" fill="#002776"/>
    <path d="M34.5309 221.611C35.0736 214.782 42.4002 188.6 50.2696 173.685C50.2696 173.685 67.4351 170.964 78.4902 171C90.0246 171.038 107.945 173.685 107.945 173.685C113.077 185.297 118.923 210.665 120.625 216.138C121.653 219.358 121.778 222.797 120.986 226.083C120.195 229.369 118.517 232.375 116.135 234.775C110.289 241.407 95.2163 249 91.738 249C76.7732 246.864 62.1051 243.009 48.0247 237.512C40.0814 234.184 34.0128 228.464 34.5309 221.611Z" fill="#93929C"/>
    <path d="M89.2648 75.4453C89.2648 75.4453 100.307 77.3689 102.48 77.9435C103.745 78.2475 104.914 78.8642 105.878 79.7372C106.843 80.6102 107.573 81.7114 108.001 82.9399C109.35 86.2125 116.42 107.647 117.095 109.97C117.534 112.53 117.121 115.162 115.92 117.465C114.921 120.188 109.6 132.904 109.6 132.904L108.801 173.949H50.3681C50.3681 173.949 40.4503 97.6292 39.9756 92.9326C39.5009 88.236 41.8243 79.0927 47.4702 77.9435C53.1161 76.7943 68.5798 75.4453 68.5798 75.4453H89.2648Z" fill="white"/>
    <path d="M67.8302 75.4453C70.1411 83.5821 71.4416 91.9725 71.7024 100.427V210.972C71.7024 214.369 70.2285 214.594 68.4548 214.594H36.9526C35.3288 214.594 32.8556 213.545 33.655 211.222C34.4544 208.898 41.4993 187.789 48.3693 173.374C48.3693 173.374 38.5265 94.0568 38.5265 90.3095C38.5265 86.5622 41.2745 78.9677 46.021 77.8185C50.7676 76.6694 67.9301 74.6958 67.9301 74.6958L67.8302 75.4453Z" fill="#002776"/>
    <path d="M90.0891 75.7206C91.4878 86.3445 92.3217 97.0351 92.5873 107.747V211.472C92.5873 213.82 93.1869 214.545 95.4103 214.545H120.567C122.241 214.545 122.865 213.521 122.441 211.447C122.016 209.374 110.874 173.974 110.874 173.974L111.848 133.229C111.848 133.229 117.569 114.043 117.794 112.519C118.066 110.614 117.887 108.671 117.269 106.848C116.57 105.024 108.576 83.6149 107.826 82.066C107.321 81.0119 106.596 80.0784 105.7 79.3285C104.804 78.5786 103.757 78.0298 102.63 77.7191C99.932 77.0696 90.0142 75.2209 90.0142 75.2209L90.0891 75.7206Z" fill="#002776"/>
    <path d="M71.7027 139.799C71.7027 139.799 57.2881 108.696 56.2639 106.673C55.2396 104.649 55.8392 102.626 58.2874 103C60.7356 103.375 72.1773 106.348 72.1773 106.348L71.7027 139.799Z" fill="#003399"/>
    <path d="M72.152 107.422C72.152 107.422 59.4112 97.7541 58.287 96.9547C57.7511 96.5392 57.3574 95.9675 57.1605 95.3186C56.9636 94.6697 56.9732 93.9756 57.1878 93.3324C57.6625 92.2581 64.1078 73.3468 64.9072 72.0478C65.7889 70.9469 66.7671 69.927 67.8301 69C67.8301 69 70.2034 79.5673 71.0028 84.7386C71.7943 92.2735 72.1779 99.8458 72.152 107.422Z" fill="#003399"/>
    <path d="M92.6124 139.799C92.6124 139.799 107.027 108.696 108.026 106.673C109.025 104.649 108.451 102.626 106.003 103C103.554 103.375 92.1377 106.348 92.1377 106.348L92.6124 139.799Z" fill="#003399"/>
    <path d="M92.1375 107.422C92.1375 107.422 103.479 97.7544 104.479 96.955C104.959 96.4984 105.277 95.8978 105.385 95.2442C105.493 94.5906 105.385 93.9195 105.078 93.3326C104.454 92.2584 94.4109 75.4456 93.4366 74.2714C92.4046 73.167 91.2851 72.1477 90.089 71.2236C90.089 71.2236 89.8642 74.0716 89.9391 76.5198C90.0141 78.968 92.1375 107.422 92.1375 107.422Z" fill="#003399"/>
    <g filter="url(#filter0_d_110_31)">
        <rect x="57.5" y="116.672" width="40.9288" height="58.3236" rx="1" transform="rotate(-6.55484 57.5 116.672)" fill="#EFEFEF"/>
    </g>
    <path d="M76.717 142.811C79.5634 141.609 82.1372 139.827 84.2749 137.578C85.598 136.189 87.0986 134.984 88.7363 133.994C89.6969 133.394 90.526 132.601 91.1714 131.667C92.024 130.217 92.7296 128.686 93.2774 127.098C93.4804 125.73 93.9457 124.411 94.6475 123.217C95.3146 122.605 97.6694 122.932 98.8918 125.308C99.3132 126.366 99.5041 127.505 99.4518 128.649C99.3995 129.793 99.1051 130.916 98.5883 131.942C97.9801 133.172 97.5036 134.463 97.1671 135.792L97.3891 135.925C99.2516 134.936 101.242 134.219 103.3 133.795C104.046 133.628 104.823 133.719 105.506 134.051C106.19 134.384 106.739 134.94 107.066 135.629C107.393 136.319 107.478 137.102 107.308 137.852C107.138 138.602 106.723 139.276 106.129 139.765C109.34 140.134 108.976 145.086 106.219 145.741C106.81 145.988 107.308 146.414 107.647 146.959C107.986 147.504 108.149 148.142 108.114 148.788C108.079 149.434 107.849 150.056 107.453 150.569C107.057 151.083 106.516 151.464 105.902 151.661C107.86 153.466 106.429 156.441 102.874 156.454C99.9851 156.748 92.2601 157.957 89.5725 158.536C86.8848 159.114 81.4827 157.835 79.7473 158.372C77.1642 159.318 74.164 159.334 71.8756 152.537C69.5871 145.74 74.0588 143.69 76.717 142.811Z" fill="#FBBEAA"/>
    <path d="M78.5 163L25.5001 185.5C18.2763 188.873 9.74501 185.929 6.50005 177.5C5.9067 175.929 5.86657 173.36 5.94015 171.682C6.01374 170.004 6.42737 168.359 7.156 166.845C7.88464 165.332 9.23402 162.604 10.4999 161.5C11.7657 160.396 16.2765 158.359 17.8748 157.843L77.5 141.5L78.5 163Z" fill="#002776"/>
    <defs>
        <filter id="filter0_d_110_31" x="57.6074" y="112.107" width="49.104" height="62.3995" filterUnits="userSpaceOnUse" color-interpolation-filters="sRGB">
            <feFlood flood-opacity="0" result="BackgroundImageFix"/>
            <feColorMatrix in="SourceAlpha" type="matrix" values="0 0 0 0 0 0 0 0 0 0 0 0 0 0 0 0 0 0 127 0" result="hardAlpha"/>
            <feOffset dx="2"/>
            <feComposite in2="hardAlpha" operator="out"/>
            <feColorMatrix type="matrix" values="0 0 0 0 0.603922 0 0 0 0 0.6 0 0 0 0 0.631373 0 0 0 1 0"/>
            <feBlend mode="normal" in2="BackgroundImageFix" result="effect1_dropShadow_110_31"/>
            <feBlend mode="normal" in="SourceGraphic" in2="effect1_dropShadow_110_31" result="shape"/>
        </filter>
    </defs>
</svg>
