<svg width="212" height="527" viewBox="0 0 212 527" fill="none" xmlns="http://www.w3.org/2000/svg">
    <path d="M100.87 69.4668H70.2657V105.46H100.87V69.4668Z" fill="#FBBEAA"/>
    <path d="M70.3839 69.4668H100.864V89.5476C99.5322 89.7131 98.192 89.798 96.8504 89.8018C86.3349 89.8018 74.5748 86.9295 70.2823 76.8891L70.3839 69.4668Z" fill="#F18380"/>
    <path d="M116.683 42.7517C116.454 53.148 116.683 61.3583 114.827 69.289C112.972 77.2196 107.202 83.7014 94.4921 83.7014C81.7827 83.7014 67.294 79.5582 66.2773 63.6714C64.1929 61.4091 60.8122 53.3514 60.6851 44.3277C60.558 35.304 61.2444 16.2145 81.8336 13.2914C102.423 10.3682 117.267 17.9176 116.683 42.7517Z" fill="#FBBEAA"/>
    <path d="M105.953 50.9364C105.953 52.3344 106.792 53.4783 107.834 53.4783C108.876 53.4783 109.715 52.3344 109.715 50.9364C109.715 49.5384 108.876 48.3945 107.834 48.3945C106.792 48.3945 105.953 49.4367 105.953 50.9364Z" fill="#403D4F"/>
    <path d="M83.0789 50.9364C83.0789 52.3344 83.9178 53.4783 84.9599 53.4783C86.0021 53.4783 86.8409 52.3344 86.8409 50.9364C86.8409 49.5384 85.9767 48.3945 84.9599 48.3945C83.9432 48.3945 83.0789 49.4367 83.0789 50.9364Z" fill="#403D4F"/>
    <path d="M87.7787 42.955C87.5753 43.1838 86.2536 42.955 85.2368 42.955C84.2201 42.955 82.2628 42.955 82.2628 42.7262C82.2628 42.4975 83.2287 40.9215 85.7706 41.2011C87.4991 41.4044 88.0075 42.5483 87.7787 42.955Z" fill="#403D4F"/>
    <path d="M105.572 42.955C105.724 43.1838 106.868 42.955 107.758 42.955C108.648 42.955 110.3 42.955 110.3 42.7262C110.3 42.4975 109.486 40.9215 107.326 41.2011C105.572 41.4044 105.242 42.5483 105.572 42.955Z" fill="#403D4F"/>
    <path d="M97.9483 61.4599C99.7277 61.4599 101.151 60.2907 101.202 59.4518L100.617 52.2838C100.598 52.1061 100.51 51.943 100.373 51.8291C100.235 51.7152 100.058 51.6594 99.8801 51.6737C99.7933 51.6801 99.7085 51.7037 99.6308 51.743C99.553 51.7823 99.4838 51.8365 99.4271 51.9027C99.3704 51.9688 99.3274 52.0455 99.3004 52.1284C99.2735 52.2112 99.2632 52.2986 99.2701 52.3854L99.8293 59.2993C99.5725 59.5779 99.2565 59.7955 98.9047 59.9363C98.5528 60.077 98.174 60.1373 97.7958 60.1127C97.707 60.1058 97.6176 60.117 97.5332 60.1455C97.4487 60.174 97.3709 60.2193 97.3044 60.2787C97.2379 60.338 97.1841 60.4102 97.1463 60.4909C97.1084 60.5716 97.0873 60.6591 97.0841 60.7482C97.0807 60.8384 97.0951 60.9283 97.1265 61.0129C97.1579 61.0974 97.2056 61.175 97.267 61.2411C97.3284 61.3072 97.4022 61.3605 97.4842 61.3981C97.5662 61.4356 97.6548 61.4567 97.745 61.4599H97.9483Z" fill="#F18380"/>
    <path d="M96.4978 66.5429C98.6329 66.67 102.217 67.8646 102.242 68.8051C102.209 70.5514 101.488 72.214 100.237 73.4322C98.9853 74.6505 97.3038 75.3261 95.5573 75.3124C87.7283 75.3124 87.7537 69.2627 88.0842 67.9409C88.4146 66.6191 92.5324 66.2887 96.4978 66.5429Z" fill="#73102A"/>
    <path d="M88.061 70.0511C90.1785 69.2842 92.4884 69.2291 94.64 69.8943C96.7915 70.5595 98.6673 71.9087 99.9825 73.7369C98.7675 74.8144 97.1822 75.3793 95.5596 75.3128C90.0183 75.3128 88.4169 72.3134 88.061 70.0511Z" fill="#D65155"/>
    <path d="M88.3918 67.484C89.4849 66.5435 93.0689 66.3147 96.5004 66.5435C98.6102 66.6706 102.169 67.8398 102.245 68.8058C97.5878 69.466 92.8403 69.013 88.3918 67.484Z" fill="white"/>
    <path d="M79.0866 33.5498C79.0866 39.8029 76.5448 42.5227 74.6384 43.7174C72.732 44.912 71.3339 46.1067 71.3339 48.2673V55.893C71.3339 56.7572 70.8256 57.4181 70.1647 57.1893C69.5038 56.9605 67.0381 55.715 67.0381 54.4695L59.4125 49.0807C57.429 44.3826 56.6935 39.2515 57.2773 34.1853C57.5042 31.3447 58.3416 28.5865 59.7322 26.0991C61.1229 23.6118 63.034 21.4539 65.3351 19.7729C65.3351 14.3587 70.4188 4.72493 81.1202 0.912109C81.3819 2.86912 81.3819 4.85226 81.1202 6.80927C85.9751 2.41182 102.319 1.06462 108.191 3.09813C107.33 5.0241 106.084 6.75398 104.531 8.18189C112.551 10.0341 119.688 14.5945 124.739 21.0946C123.13 23.1928 121.094 24.9256 118.765 26.1784C121.437 29.8528 123.022 34.2037 123.341 38.7353C118.515 38.2885 113.784 37.1144 109.31 35.2529C109.559 37.4869 109.431 39.747 108.928 41.938C103.845 41.633 94.2362 36.4476 91.5164 32.2789C91.942 35.6742 91.7526 39.1183 90.9572 42.4464C86.2317 40.6759 82.1123 37.5886 79.0866 33.5498Z" fill="#403D4F"/>
    <path d="M66.8084 55.7661C66.8084 52.8684 66.2238 48.598 62.1314 48.4963C58.0389 48.3946 57.4797 51.4957 57.6068 56.3761C57.7339 61.2565 62.6906 65.3998 67.0372 63.7222L66.8084 55.7661Z" fill="#FBBEAA"/>
    <path d="M60.7842 59.2737C60.9595 59.2368 61.1144 59.1352 61.2181 58.9891C61.3217 58.8431 61.3665 58.6633 61.3435 58.4857C61.344 58.3455 61.3821 58.2079 61.4535 58.0873C61.525 57.9666 61.6274 57.8673 61.7502 57.7994C62.0147 57.6266 62.3238 57.5346 62.6398 57.5346C62.9558 57.5346 63.2649 57.6266 63.5295 57.7994C63.6377 57.8619 63.7604 57.8948 63.8853 57.8948C64.0103 57.8948 64.133 57.8619 64.2412 57.7994C64.3515 57.7364 64.4414 57.643 64.5 57.5303C64.5586 57.4176 64.5835 57.2904 64.5716 57.1639C64.1904 53.0715 61.5977 52.3089 61.496 52.2835C61.4092 52.2567 61.3178 52.2481 61.2275 52.2583C61.1373 52.2684 61.0501 52.297 60.9714 52.3423C60.8926 52.3876 60.8241 52.4487 60.7701 52.5217C60.716 52.5946 60.6776 52.678 60.6572 52.7665C60.6102 52.935 60.632 53.1153 60.7178 53.2677C60.8036 53.4202 60.9463 53.5325 61.1147 53.5799C61.6199 53.8135 62.0601 54.1673 62.3969 54.6105C62.7336 55.0536 62.9567 55.5725 63.0465 56.1218C62.35 56.0083 61.6359 56.1529 61.0384 56.5285C60.6857 56.7276 60.4005 57.0275 60.2193 57.3898C60.0382 57.7521 59.9694 58.1603 60.0217 58.562C60.0127 58.6622 60.0267 58.7631 60.0626 58.8571C60.0985 58.9511 60.1554 59.0356 60.229 59.1042C60.3025 59.1729 60.3908 59.2238 60.487 59.2532C60.5832 59.2826 60.6849 59.2896 60.7842 59.2737Z" fill="#F18380"/>
    <path d="M39.362 106.523C33.701 113.801 0.948486 202.759 0.948486 202.759C31.2749 193.054 28.4293 166.827 44.923 169.602C44.923 169.602 63.9425 124.96 64.6686 120.967C65.4265 117.818 65.0864 114.505 63.7045 111.577C62.3227 108.648 59.982 106.279 57.0701 104.862C48.9529 100.713 45.0229 99.2441 39.362 106.523Z" fill="#002366"/>
    <path d="M184.131 100.253C184.256 97.5232 183.525 94.823 182.041 92.529C179.756 89.8795 178.044 86.7857 177.013 83.4423C176.22 80.3387 174.953 77.3759 173.257 74.6584C172.045 72.9925 170.228 71.6296 170.228 70.3574C170.228 69.0853 172.651 66.6319 176.104 67.3285C177.583 67.7892 178.942 68.5712 180.083 69.6185C181.225 70.6658 182.121 71.9524 182.707 73.3863C183.038 72.5126 183.232 71.5932 183.282 70.6603L184.04 52.0931C184.051 51.6118 184.159 51.1376 184.357 50.6987C184.555 50.2597 184.838 49.8648 185.191 49.5373C185.544 49.2098 185.959 48.9563 186.412 48.7918C186.864 48.6273 187.345 48.5552 187.826 48.5796C188.591 48.6123 189.327 48.884 189.931 49.3567C190.534 49.8294 190.973 50.4792 191.188 51.2147V50.3667C191.304 49.4641 191.758 48.639 192.458 48.057C193.157 47.475 194.051 47.1792 194.96 47.229C195.869 47.2789 196.725 47.6707 197.357 48.3257C197.989 48.9807 198.349 49.8505 198.366 50.7604V53.335C198.67 52.5413 199.248 51.8829 199.996 51.48C200.745 51.0771 201.613 50.9565 202.442 51.1401C203.272 51.3236 204.008 51.7991 204.516 52.48C205.025 53.1609 205.272 54.0018 205.212 54.8495V56.485C205.538 55.9121 206.024 55.4466 206.61 55.1453C207.196 54.8441 207.858 54.7202 208.513 54.7888C209.411 54.9028 210.229 55.3617 210.795 56.0684C211.36 56.7751 211.628 57.674 211.542 58.5749L210.058 74.2344C209.086 83.063 207.26 91.7765 204.606 100.253C204.574 101.668 204.246 103.061 203.643 104.342C203.041 105.623 202.177 106.763 201.107 107.691C200.037 108.618 198.786 109.311 197.432 109.725C196.078 110.139 194.653 110.266 193.248 110.097C191.976 110.139 190.71 109.907 189.535 109.418C188.361 108.928 187.305 108.191 186.44 107.257C185.576 106.324 184.922 105.215 184.523 104.006C184.125 102.798 183.991 101.518 184.131 100.253Z" fill="#FBBEAA"/>
    <path d="M184.736 76.0218C183.585 76.0218 183.494 75.2949 182.98 73.9622C185.554 73.9622 193.036 74.4468 196.307 80.7469C193.005 76.2036 186.675 76.0218 184.736 76.0218ZM190.612 52.0632C190.612 52.0632 190.431 53.1234 190.249 54.6681C190.249 55.4556 190.067 56.3945 190.007 57.3638C189.946 58.333 189.855 59.3931 189.764 60.3927C189.764 62.5129 189.613 64.6029 189.613 66.1779C189.613 67.7529 189.613 68.813 189.613 68.813C189.613 68.8634 189.623 68.9133 189.643 68.9595C189.663 69.0057 189.693 69.0472 189.73 69.0814C189.767 69.1155 189.811 69.1417 189.858 69.1581C189.906 69.1745 189.956 69.1807 190.007 69.1765C190.092 69.1722 190.173 69.1403 190.239 69.0857C190.304 69.0311 190.351 68.9567 190.37 68.8737C190.37 68.8737 190.552 67.8135 190.703 66.2384C190.855 64.6634 191.097 62.5735 191.188 60.4835C191.188 59.4234 191.188 58.3633 191.188 57.4546C191.188 56.546 191.188 55.5465 191.188 54.759C191.188 53.1537 191.188 52.1237 191.188 52.1237C191.188 52.0734 191.178 52.0235 191.158 51.9773C191.138 51.9311 191.108 51.8896 191.071 51.8554C191.034 51.8212 190.99 51.7952 190.943 51.7788C190.895 51.7624 190.844 51.7561 190.794 51.7603C190.736 51.7937 190.688 51.8426 190.656 51.9014C190.624 51.9601 190.609 52.0266 190.612 52.0935V52.0632ZM197.639 54.1835C197.639 54.1835 197.458 55.0921 197.246 56.4248C197.246 57.1215 197.034 57.909 196.943 58.7571C196.852 59.6051 196.761 60.5138 196.67 61.4225C196.67 63.2398 196.458 65.0572 196.428 66.4202C196.398 67.7832 196.428 68.7222 196.428 68.7222C196.432 68.77 196.445 68.8165 196.467 68.8592C196.489 68.9018 196.519 68.9398 196.555 68.9707C196.592 69.0017 196.634 69.0252 196.68 69.0397C196.726 69.0542 196.774 69.0595 196.822 69.0554C196.903 69.0497 196.98 69.0167 197.041 68.9618C197.101 68.9068 197.141 68.8331 197.155 68.7525C197.155 68.7525 197.337 67.8437 197.549 66.511C197.761 65.1783 197.942 63.3307 198.094 61.5437C198.094 60.635 198.094 59.7263 198.275 58.8782C198.457 58.0301 198.275 57.2123 198.275 56.5157C198.275 55.1527 198.275 54.244 198.275 54.244C198.276 54.1936 198.265 54.1438 198.245 54.0976C198.225 54.0514 198.196 54.0099 198.159 53.9757C198.122 53.9415 198.078 53.9154 198.03 53.8991C197.983 53.8827 197.932 53.8764 197.882 53.8806C197.815 53.9083 197.756 53.9541 197.714 54.0129C197.671 54.0717 197.645 54.1412 197.639 54.2137V54.1835ZM204.424 57.0609C204.424 57.0609 204.242 57.8181 204 58.9691C204 59.5143 203.758 60.1807 203.667 60.9076C203.576 61.6346 203.455 62.3918 203.334 63.149C203.122 64.6937 203.031 66.1779 202.97 67.3894C202.91 68.601 202.97 69.328 202.97 69.328C202.97 69.3784 202.98 69.4282 203.001 69.4744C203.021 69.5206 203.05 69.5621 203.087 69.5963C203.124 69.6305 203.168 69.6566 203.216 69.6729C203.263 69.6893 203.314 69.6956 203.364 69.6914C203.441 69.6874 203.515 69.6588 203.575 69.6097C203.635 69.5607 203.678 69.4938 203.697 69.4188C203.697 69.4188 203.909 68.6616 204.121 67.5409C204.333 66.4202 204.636 64.8452 204.818 63.3307C204.818 62.5432 204.969 61.786 205.03 61.059C205.091 60.3321 205.03 59.6658 205.03 59.0903C205.03 57.9393 205.03 57.1517 205.03 57.1517C205.03 57.1013 205.02 57.0515 205 57.0053C204.98 56.9591 204.95 56.9176 204.913 56.8834C204.876 56.8492 204.832 56.8231 204.785 56.8068C204.737 56.7904 204.686 56.7841 204.636 56.7883C204.58 56.8195 204.532 56.8629 204.495 56.9154C204.459 56.9678 204.434 57.028 204.424 57.0912V57.0609Z" fill="#F18380"/>
    <path d="M110.851 97.9595L176.864 142.482C176.586 144.759 181.936 97.9595 181.936 97.9595L206.37 100.24C206.37 100.24 204.942 147.888 201.347 173.052C199.92 183.039 191.607 186.826 181.751 184.675C176.885 183.614 172.304 181.617 168.227 178.755C150.709 166.459 101.562 131.826 97.5437 127.469C90.6113 119.952 90.6113 114.321 94.5954 108.132C98.5795 101.944 107.106 97.0299 110.851 97.9595Z" fill="#001A4B"/>
    <path d="M27.8991 333.992C27.4765 337.224 27.6987 340.507 28.5529 343.651C29.4072 346.796 30.8765 349.74 32.8758 352.314C34.8752 354.887 37.365 357.038 40.2011 358.643C43.0372 360.248 46.1635 361.274 49.3989 361.663C52.6343 362.052 55.9148 361.796 59.0505 360.909C62.1861 360.022 65.1148 358.522 67.6671 356.496C70.2193 354.47 72.3445 351.957 73.9197 349.105C75.4949 346.252 76.4888 343.115 76.8439 339.876C76.8439 339.876 89.676 249.747 92.7192 231.538C95.7624 213.33 92.5417 198.088 72.1523 193.752C51.0021 189.263 37.7895 204.758 36.1919 220.278C34.5942 235.799 27.8991 333.992 27.8991 333.992Z" fill="#93929C"/>
    <path d="M68.3484 335.742C68.2677 342.28 70.7873 348.582 75.353 353.261C79.9186 357.941 86.1564 360.616 92.694 360.696C99.2315 360.777 105.533 358.257 110.213 353.692C114.893 349.126 117.567 342.888 117.648 336.351C117.648 336.351 120.767 245.359 121.833 226.923C122.898 208.486 118.079 193.701 97.3348 191.571C75.8296 189.365 64.3669 206.178 64.3669 221.8C64.3669 237.422 68.3484 335.742 68.3484 335.742Z" fill="#93929C"/>
    <path d="M108.823 442.964C108.823 442.964 107.605 494.673 107.301 502.408C106.997 510.143 102.102 512.247 94.2152 512.932C86.3282 513.617 83.0061 507.353 81.8903 502.382C80.7744 497.412 74.0287 446.717 74.0287 446.717L108.823 442.964Z" fill="#FBBEAA"/>
    <path d="M107.935 479.026L78.8471 482.145C76.59 466.143 74.0287 446.641 74.0287 446.641L108.823 442.888C108.823 442.888 108.366 462.263 107.935 479.026Z" fill="#F18380"/>
    <path d="M68.3482 335.743C68.3882 332.506 69.0653 329.308 70.341 326.333C71.6167 323.357 73.4659 320.662 75.7831 318.402C78.1004 316.141 80.8402 314.359 83.8461 313.157C86.8521 311.955 90.0653 311.357 93.3024 311.397C96.5395 311.437 99.7369 312.114 102.712 313.39C105.688 314.666 108.383 316.515 110.643 318.832C112.904 321.149 114.686 323.889 115.888 326.895C117.09 329.901 117.688 333.114 117.648 336.351L112.576 480.478L72.7862 484.764L68.3482 335.743Z" fill="#93929C"/>
    <path d="M56.7587 444.942C56.7587 444.942 50.0129 496.22 48.8971 503.853C47.7813 511.487 42.684 513.11 34.7463 512.932C26.8086 512.755 24.1965 506.187 23.6132 501.14C23.0299 496.093 21.762 444.942 21.762 444.942H56.7587Z" fill="#FBBEAA"/>
    <path d="M51.8894 480.7H22.624C22.1168 464.571 21.6349 444.942 21.6349 444.942H56.7585C56.7585 444.942 54.2225 464.064 51.8894 480.7Z" fill="#F18380"/>
    <path d="M27.8984 333.992C28.7406 327.554 32.089 321.709 37.2162 317.725C42.3434 313.741 48.8354 311.941 55.282 312.716C61.7285 313.491 67.609 316.778 71.646 321.864C75.6831 326.949 77.5507 333.422 76.8431 339.876L54.7805 485.55H14.7625L27.8984 333.992Z" fill="#93929C"/>
    <path d="M76.8183 339.876L54.0706 484.282" stroke="#676767" stroke-width="0.75" stroke-miterlimit="10" stroke-linecap="round"/>
    <path d="M76.8438 339.876C76.8438 339.876 89.6758 249.747 92.719 231.538" stroke="#676767" stroke-width="0.75" stroke-miterlimit="10" stroke-linecap="round"/>
    <path d="M37.4091 486.71C40.2854 486.504 43.1374 487.361 45.4235 489.119C47.7096 490.876 49.2706 493.412 49.8101 496.245L63.048 509.813V518.258H20.6208C20.6208 518.258 22.751 503.042 23.3597 499.618C23.9683 496.195 26.0224 486.71 37.4091 486.71Z" fill="#FBBEAA"/>
    <path d="M49.7845 496.144C50.2663 495.484 50.951 494.977 51.4329 495.281C51.9147 495.586 64.7215 505.73 65.3302 506.237C65.705 506.589 65.9886 507.027 66.1564 507.513C66.3243 507.999 66.3715 508.518 66.2938 509.027V519.906H19.6823C19.6823 519.906 21.5081 503.828 21.6349 502.94C21.7617 502.053 22.6494 500.886 23.1566 500.911C26.3558 501.892 29.6761 502.421 33.0216 502.484C37.4679 502.719 41.9031 501.848 45.9298 499.948C47.4228 498.909 48.7266 497.623 49.7845 496.144Z" fill="#2E70AC"/>
    <path d="M58.6353 510.776C56.3783 509.103 48.2631 502.763 45.2199 500.379L45.93 500.024C46.0258 499.983 46.1121 499.922 46.1836 499.846C49.4297 502.382 57.063 508.367 59.244 509.99C61.0876 511.403 62.3505 513.442 62.7944 515.722L61.8053 515.874C61.387 513.852 60.2634 512.045 58.6353 510.776Z" fill="#1E2173"/>
    <path d="M20.9505 508.824C24.2354 508.857 27.4143 509.991 29.9786 512.044C32.2964 514.098 33.8664 516.863 34.442 519.906H33.0725C32.5124 517.269 31.1267 514.88 29.1164 513.084C26.7563 511.194 23.8221 510.165 20.7983 510.168L20.9505 508.824Z" fill="#1E2173"/>
    <path d="M73.8257 519.881H19.6822C19.3041 519.881 18.9975 520.188 18.9975 520.566V525.815C18.9975 526.193 19.3041 526.5 19.6822 526.5H73.8257C74.2039 526.5 74.5104 526.193 74.5104 525.815V520.566C74.5104 520.188 74.2039 519.881 73.8257 519.881Z" fill="white"/>
    <path d="M65.2034 506.136C65.6853 505.933 68.0437 506.617 71.1123 509.635C72.3899 510.956 73.3096 512.58 73.7844 514.355C74.2592 516.13 74.2735 517.997 73.8258 519.779H58.4323C59.2946 510.041 64.7216 506.338 65.2034 506.136Z" fill="white"/>
    <path d="M59.2945 506.288C59.1045 506.521 59.0138 506.819 59.0423 507.118C59.0708 507.417 59.2161 507.693 59.4467 507.886C59.5599 507.979 59.6904 508.049 59.8307 508.092C59.971 508.135 60.1184 508.15 60.2644 508.136C60.4105 508.122 60.5523 508.079 60.6818 508.01C60.8112 507.941 60.9258 507.847 61.019 507.734L63.555 504.665C63.7451 504.432 63.8357 504.134 63.8072 503.835C63.7787 503.536 63.6334 503.26 63.4028 503.067C63.2912 502.971 63.161 502.898 63.0202 502.853C62.8795 502.808 62.7311 502.792 62.5841 502.806C62.437 502.821 62.2944 502.865 62.1649 502.936C62.0354 503.007 61.9216 503.103 61.8305 503.22L59.2945 506.288Z" fill="white"/>
    <path d="M56.2769 503.98C56.0868 504.213 55.9962 504.511 56.0247 504.81C56.0532 505.109 56.1985 505.385 56.4291 505.578C56.5407 505.675 56.6709 505.747 56.8117 505.792C56.9524 505.837 57.1008 505.853 57.2478 505.839C57.3949 505.825 57.5375 505.781 57.667 505.71C57.7966 505.639 57.9103 505.542 58.0014 505.426L60.5374 502.357C60.7213 502.122 60.808 501.825 60.7797 501.528C60.7514 501.231 60.6102 500.956 60.3852 500.759C60.2735 500.663 60.1434 500.59 60.0026 500.545C59.8619 500.5 59.7135 500.484 59.5664 500.498C59.4194 500.513 59.2768 500.557 59.1473 500.628C59.0177 500.699 58.904 500.795 58.8129 500.912L56.2769 503.98Z" fill="white"/>
    <path d="M53.3604 501.698C53.1688 501.923 53.0746 502.216 53.0983 502.51C53.1221 502.805 53.262 503.079 53.4872 503.27C53.7199 503.46 54.0182 503.551 54.3173 503.523C54.6164 503.494 54.8922 503.349 55.0848 503.118L57.6208 500.05C57.7274 499.946 57.8121 499.821 57.87 499.684C57.9278 499.547 57.9576 499.4 57.9576 499.251C57.9576 499.102 57.9278 498.955 57.87 498.817C57.8121 498.68 57.7274 498.556 57.6208 498.452C57.3856 498.268 57.0889 498.181 56.7917 498.21C56.4945 498.238 56.2194 498.379 56.0232 498.604L53.3604 501.698Z" fill="white"/>
    <path d="M50.4185 499.39C50.3251 499.503 50.255 499.634 50.2121 499.774C50.1692 499.914 50.1544 500.062 50.1685 500.208C50.1827 500.354 50.2254 500.496 50.2944 500.625C50.3635 500.755 50.4573 500.869 50.5707 500.962C50.784 501.172 51.0708 501.289 51.3695 501.289C51.6682 501.289 51.9551 501.172 52.1684 500.962L54.7044 497.869C54.8944 497.636 54.9851 497.338 54.9566 497.038C54.9281 496.739 54.7828 496.464 54.5522 496.271C54.4391 496.177 54.3086 496.107 54.1682 496.064C54.0279 496.021 53.8805 496.007 53.7345 496.021C53.5884 496.035 53.4466 496.078 53.3172 496.147C53.1877 496.216 53.073 496.31 52.9799 496.423L50.4185 499.39Z" fill="white"/>
    <path d="M97.005 486.71C99.8814 486.504 102.733 487.361 105.019 489.119C107.306 490.876 108.867 493.412 109.406 496.245L122.619 509.813V518.258H80.2167C80.2167 518.258 82.3216 503.042 82.9556 499.618C83.5896 496.195 85.6184 486.71 97.005 486.71Z" fill="#FBBEAA"/>
    <path d="M109.38 496.144C109.862 495.484 110.522 494.977 111.029 495.281C111.536 495.586 124.317 505.73 124.901 506.237C125.484 506.744 125.89 507.378 125.89 509.027V519.906H79.2782C79.2782 519.906 81.1041 503.828 81.2309 502.94C81.3577 502.053 82.2453 500.886 82.7525 500.911C85.9517 501.892 89.2721 502.421 92.6176 502.484C97.056 502.724 101.484 501.852 105.5 499.948C107.005 498.915 108.318 497.628 109.38 496.144Z" fill="#2E70AC"/>
    <path d="M118.231 510.776C115.974 509.103 107.859 502.763 104.816 500.379L105.501 500.024C105.604 499.983 105.699 499.923 105.78 499.846C109.026 502.382 116.659 508.367 118.84 509.99C120.684 511.403 121.947 513.442 122.39 515.722L121.401 515.874C120.971 513.857 119.849 512.054 118.231 510.776Z" fill="#1E2173"/>
    <path d="M80.5464 508.824C83.8314 508.857 87.0102 509.991 89.5746 512.044C91.8924 514.098 93.4624 516.863 94.038 519.906H92.6685C92.1015 517.266 90.7066 514.876 88.687 513.084C86.3386 511.19 83.4111 510.161 80.3943 510.168L80.5464 508.824Z" fill="#1E2173"/>
    <path d="M133.422 519.881H79.2782C78.9 519.881 78.5934 520.188 78.5934 520.566V525.815C78.5934 526.193 78.9 526.5 79.2782 526.5H133.422C133.8 526.5 134.106 526.193 134.106 525.815V520.566C134.106 520.188 133.8 519.881 133.422 519.881Z" fill="white"/>
    <path d="M124.799 506.136C125.281 505.933 127.64 506.617 130.708 509.635C131.986 510.956 132.906 512.58 133.38 514.355C133.855 516.13 133.869 517.997 133.422 519.779H118.028C118.891 510.041 124.318 506.338 124.799 506.136Z" fill="white"/>
    <path d="M118.789 506.288C118.599 506.521 118.508 506.819 118.537 507.118C118.565 507.417 118.71 507.693 118.941 507.886C119.054 507.979 119.185 508.049 119.325 508.092C119.465 508.135 119.613 508.15 119.759 508.136C119.905 508.122 120.047 508.079 120.176 508.01C120.306 507.941 120.42 507.847 120.513 507.734L123.049 504.665C123.233 504.43 123.32 504.133 123.292 503.836C123.263 503.539 123.122 503.264 122.897 503.067C122.786 502.971 122.655 502.898 122.515 502.853C122.374 502.808 122.226 502.792 122.078 502.806C121.931 502.821 121.789 502.865 121.659 502.936C121.53 503.007 121.416 503.103 121.325 503.22L118.789 506.288Z" fill="white"/>
    <path d="M115.873 503.98C115.683 504.213 115.592 504.511 115.621 504.81C115.649 505.109 115.794 505.385 116.025 505.578C116.137 505.674 116.267 505.747 116.408 505.792C116.548 505.837 116.697 505.853 116.844 505.839C116.991 505.824 117.133 505.78 117.263 505.709C117.393 505.638 117.506 505.542 117.597 505.425L120.133 502.357C120.317 502.122 120.404 501.825 120.376 501.528C120.347 501.23 120.206 500.955 119.981 500.759C119.748 500.569 119.45 500.478 119.151 500.507C118.852 500.535 118.576 500.681 118.383 500.911L115.873 503.98Z" fill="white"/>
    <path d="M112.956 501.698C112.851 501.799 112.766 501.922 112.709 502.057C112.651 502.192 112.622 502.337 112.622 502.484C112.622 502.631 112.651 502.776 112.709 502.911C112.766 503.046 112.851 503.168 112.956 503.27C113.189 503.46 113.487 503.551 113.786 503.522C114.086 503.494 114.361 503.348 114.554 503.118L117.09 500.049C117.28 499.817 117.371 499.518 117.342 499.219C117.314 498.92 117.168 498.644 116.938 498.452C116.825 498.358 116.694 498.288 116.554 498.245C116.414 498.202 116.266 498.187 116.12 498.202C115.974 498.216 115.832 498.259 115.703 498.328C115.573 498.397 115.459 498.49 115.366 498.604L112.956 501.698Z" fill="white"/>
    <path d="M110.015 499.39C109.921 499.503 109.851 499.634 109.808 499.774C109.765 499.914 109.751 500.062 109.765 500.208C109.779 500.354 109.822 500.496 109.891 500.625C109.96 500.755 110.054 500.869 110.167 500.962C110.38 501.172 110.667 501.289 110.966 501.289C111.264 501.289 111.551 501.172 111.765 500.962L114.301 497.869C114.491 497.636 114.581 497.338 114.553 497.038C114.524 496.739 114.379 496.464 114.148 496.271C114.035 496.177 113.905 496.107 113.765 496.064C113.624 496.021 113.477 496.007 113.331 496.021C113.185 496.035 113.043 496.078 112.913 496.147C112.784 496.216 112.669 496.31 112.576 496.423L110.015 499.39Z" fill="white"/>
    <path d="M121.086 207.199C121.086 207.199 121.086 233.498 121.086 234.943C121.086 236.389 108.625 248.79 92.0763 248.79C66.6302 248.79 36.1747 239.331 36.6233 233.168C36.9224 229.11 37.2962 207.199 37.2962 207.199H121.086Z" fill="#93929C"/>
    <path d="M102.894 94.1625C102.894 94.1625 118.455 102.589 121.168 104.365C123.882 106.14 127.026 108.879 126.443 116.284C125.86 123.689 123.527 222.314 123.527 222.314C117.167 222.314 106.155 222.314 106.155 222.314H98.953C98.953 222.314 94.1925 222.314 91.1422 222.314C85.6952 222.314 77.1942 222.314 77.1942 222.314H73.7602H70.0174C70.0174 222.314 38.85 222.77 38.0638 222.314C36.916 222.314 34.5431 223.18 34.543 222.314C34.619 221.452 37.1509 117.121 37.4805 112.657C37.5458 110.267 38.298 107.946 39.6471 105.972C40.9962 103.998 42.8853 102.454 45.0885 101.524C50.3888 99.1658 66.2279 93.0513 66.2279 93.0513C66.2279 93.0513 80.7476 111.358 89.9773 107.843C95.9394 105.572 102.894 94.1625 102.894 94.1625Z" fill="#002366"/>
    <path d="M34.7132 216.036L34.4213 224.17C34.4213 224.17 66.8421 226.412 86.2381 226.346C104.1 226.286 123.507 224.405 123.507 224.405L123.669 217.088C123.669 217.088 102.89 217.993 84.2727 217.993C59.213 217.993 34.7132 216.036 34.7132 216.036Z" fill="#00163F"/>
    <path d="M113.374 93.7735C115.817 103.293 100.872 111.83 87.675 108.357C101.566 99.3275 100.872 93.7711 100.872 93.7711V84.0472C105.039 83.3527 111.836 87.7819 113.374 93.7735Z" fill="#001A4B"/>
    <path d="M70.3121 80.5746C66.1448 79.88 52.6575 81.29 48.0864 88.9091C46.0027 92.3821 50.2991 99.2963 50.2991 99.2963C50.2991 99.2963 50.6055 99.2963 54.9388 97.6768C58.4116 105.317 75.8685 111.83 88.6709 108.428C70.3121 98.6331 70.3121 93.7706 70.3121 93.7706V80.5746Z" fill="#001A4B"/>
    <path d="M68.6684 142.272H71.4021V145.749H74.3191V142.272H77.0527V151.77H74.3191V148.009H71.4017V151.77H68.668V142.272H68.6684ZM86.8078 142.272V151.77H84.1664V144.524H82.436V147.25C82.436 148.475 82.3438 149.976 81.6163 150.821C80.8894 151.761 79.5187 152.046 77.972 151.761V149.406C79.4268 149.691 79.7946 149.122 79.7946 147.241V142.255H86.8078V142.272ZM89.09 142.272H91.8237L93.3699 147.914L94.9162 142.272H97.6498L98.9287 151.77H96.3791L95.744 146.689L94.2806 151.77H92.4584L91.004 146.689L90.3689 151.77H87.8193L89.0896 142.272L89.09 142.272ZM99.9316 142.272H102.665V146.128L105.307 142.272H108.316L104.856 146.974L108.409 151.77H105.132L102.674 147.914V151.77H99.9402V142.272H99.9321H99.9316ZM88.1703 132.11C71.7695 132.11 60.9193 138.226 60.9193 147.25C60.9193 156.186 71.7613 162.389 88.1703 162.389C104.663 162.389 115.421 156.178 115.421 147.25C115.421 138.226 104.671 132.11 88.1703 132.11ZM88.1703 160.983C72.7642 160.983 62.4741 155.436 62.4741 147.25C62.4741 138.977 72.7728 133.516 88.1703 133.516C103.66 133.516 113.875 138.968 113.875 147.25C113.875 155.436 103.668 160.983 88.1703 160.983ZM88.1703 134.836C73.6839 134.836 64.0207 139.822 64.0207 147.25C64.0207 154.677 73.6839 159.663 88.1703 159.663C102.657 159.663 112.32 154.677 112.32 147.25C112.329 139.822 102.665 134.836 88.1703 134.836ZM88.1703 159.387C73.8594 159.387 64.2967 154.496 64.2967 147.258C64.2967 140.02 73.8676 135.13 88.1703 135.13C102.473 135.13 112.044 140.02 112.044 147.258C112.053 154.496 102.481 159.387 88.1703 159.387V159.387Z" fill="white"/>
    <path d="M55.6435 148.559C60.2337 143.917 68.8177 133.907 71.7223 131.469C74.5943 129.305 77.7319 127.518 81.0584 126.153C83.5821 125.307 86.1911 124.742 88.8384 124.467C90.6797 124.234 91.4318 124.778 91.4318 125.893C91.3854 126.558 91.1738 127.2 90.816 127.762C90.4581 128.323 89.9655 128.786 89.383 129.109H92.7803C93.9473 129.109 94.6994 130.043 94.1548 131.547C93.6601 132.541 92.9531 133.414 92.0837 134.104C91.2142 134.794 90.2037 135.284 89.1236 135.541C89.1236 135.541 93.7139 135.982 94.8809 136.215C96.0479 136.448 96.411 136.889 96.411 138.004C96.4009 138.775 96.1868 139.529 95.7905 140.189C95.3941 140.85 94.8297 141.393 94.1548 141.765C92.5027 142.435 90.749 142.821 88.968 142.906C88.968 142.906 94.6475 144.332 95.7886 144.747C96.9297 145.162 97.0593 145.914 96.4629 146.9C96.1229 147.594 95.6322 148.203 95.0264 148.683C94.4207 149.163 93.7153 149.502 92.9618 149.674C90.8093 150.245 89.3571 149.311 88.5791 149.441C86.9074 149.98 85.2706 150.62 83.6777 151.36C81.2856 153.742 78.3609 155.52 75.1455 156.547C72.7521 157.551 70.5567 158.974 68.6621 160.748C67.7796 161.576 66.74 162.219 65.6047 162.638C64.4695 163.058 63.2617 163.245 62.0527 163.19C60.8438 163.134 59.6582 162.836 58.5663 162.315C57.4743 161.793 56.4981 161.057 55.6954 160.152C51.546 155.743 52.2462 152.06 55.6435 148.559Z" fill="#FBBEAA"/>
    <path d="M70.9015 164.345L29.1533 211.291C24.1504 217.958 12.4598 221.623 5.31699 215.445C3.9961 214.288 2.92405 212.875 2.16586 211.291C1.40766 209.707 0.979111 207.985 0.906224 206.231C0.833337 204.476 1.11763 202.725 1.74183 201.083C2.36604 199.442 3.31717 197.944 4.53752 196.682L55.1317 143.723L70.9015 164.345Z" fill="#002366"/>
    <path d="M88.8129 129.135C88.8203 129.178 88.8186 129.222 88.8079 129.264C88.7972 129.306 88.7779 129.346 88.751 129.38C88.7241 129.414 88.6903 129.443 88.6518 129.463C88.6134 129.483 88.5711 129.495 88.5277 129.498L86.4011 129.706H85.3638C85.0008 129.706 84.6636 129.835 84.3005 129.861C83.917 129.976 83.5439 130.124 83.1854 130.302L81.9924 130.795C80.3845 131.443 78.7767 132.04 77.5837 132.481C76.3908 132.921 75.5609 133.181 75.5609 133.181C75.4951 133.209 75.4214 133.211 75.3542 133.187C75.287 133.163 75.2312 133.114 75.1978 133.051C75.1495 132.988 75.1233 132.91 75.1233 132.831C75.1233 132.751 75.1495 132.674 75.1978 132.61L77.1429 131.599L79.1657 130.639C79.8918 130.302 80.6957 129.965 81.4997 129.654L82.7186 129.187C83.1106 129.01 83.5187 128.871 83.9374 128.772L85.1823 128.642H86.2456H87.8275H88.424C88.4893 128.591 88.5725 128.567 88.6551 128.577C88.7378 128.587 88.8133 128.629 88.8649 128.694C88.9164 128.76 88.94 128.843 88.9302 128.925C88.9205 129.008 88.8783 129.084 88.8129 129.135ZM88.3202 135.385H87.8534C87.4652 135.35 87.0746 135.35 86.6864 135.385L85.8824 135.515C85.5861 135.552 85.2918 135.604 85.0007 135.67L83.2373 136.241C82.0443 136.63 80.8773 137.123 79.9956 137.486C79.9956 137.486 79.7103 137.486 79.7362 137.615H79.425L78.9582 137.745H78.673H78.5173C78.439 137.764 78.371 137.812 78.3275 137.88C78.2839 137.947 78.2683 138.029 78.2839 138.108C78.2952 138.17 78.3268 138.227 78.3738 138.269C78.4207 138.311 78.4803 138.337 78.5433 138.342H79.8659H80.2808C81.1885 138.108 82.4073 137.745 83.6003 137.33L85.3379 136.682L86.1418 136.474L86.842 136.267C87.2001 136.161 87.5637 136.074 87.9312 136.008L88.3721 135.878C88.4113 135.866 88.4478 135.847 88.4794 135.821C88.5111 135.795 88.5373 135.763 88.5566 135.726C88.5759 135.69 88.5878 135.651 88.5917 135.61C88.5957 135.569 88.5915 135.528 88.5796 135.489C88.5488 135.451 88.5089 135.421 88.4635 135.403C88.418 135.385 88.3687 135.379 88.3202 135.385ZM88.3202 142.75H87.3607C87.1013 142.75 86.7642 142.75 86.4271 142.932L85.3638 143.269C84.6947 143.505 84.0445 143.791 83.4188 144.125C83.1311 144.26 82.8537 144.416 82.5889 144.592C82.536 144.653 82.5068 144.731 82.5068 144.812C82.5068 144.893 82.536 144.971 82.5889 145.032C82.6634 145.111 82.7658 145.158 82.8741 145.162L83.8338 145.007C84.3784 144.877 85.0786 144.669 85.7788 144.436L86.7901 144.021L87.6719 143.684C87.9654 143.554 88.2512 143.407 88.5277 143.243C88.6011 143.2 88.6552 143.13 88.6793 143.048C88.7033 142.966 88.6955 142.878 88.6574 142.802C88.5805 142.753 88.4879 142.734 88.398 142.75H88.3202Z" fill="#F18380"/>
</svg>
