<svg width="191" height="514" viewBox="0 0 191 514" fill="none" xmlns="http://www.w3.org/2000/svg">
<path d="M136.422 20.881C137.841 26.3071 138.682 31.8678 138.932 37.4706C139.23 42.1339 140.772 46.6321 143.4 50.4964C145.909 53.734 149.197 57.0971 147.992 67.1363H83.717C83.717 67.1363 81.2072 62.1167 84.219 53.5081C87.7665 42.8806 90.3782 31.9634 92.0244 20.881H136.422Z" fill="#BC664A"/>
<path d="M124.312 50.2184V76.5432C124.312 76.5432 122.611 85.6282 111.211 85.6282C108.948 85.8613 106.697 85.0273 104.922 83.2973C103.146 81.5674 101.981 79.0729 101.664 76.3262V50.2184H124.312Z" fill="#FBBEAA"/>
<path d="M101.737 68.341C108.815 71.679 119.13 68.6924 124.124 59.4313V50.4965H101.737V68.341Z" fill="#F18380"/>
<path d="M87.7577 34.2077C87.6505 39.3119 87.8769 44.4176 88.4354 49.4923C89.364 56.7205 91.924 64.7518 104.749 64.7518C117.574 64.7518 124.074 58.9793 126.835 49.4923C128.491 43.7449 131.855 35.2869 130.474 25.4737C129.094 15.6605 123.196 9.28562 109.267 8.90915C95.3372 8.53268 86.2267 14.8071 87.7577 34.2077Z" fill="#FBBEAA"/>
<path d="M114.863 38.575C114.774 38.9446 114.583 39.2818 114.312 39.5482C114.041 39.8147 113.7 39.9997 113.329 40.0823C112.958 40.1648 112.571 40.1417 112.212 40.0154C111.853 39.8891 111.537 39.6647 111.3 39.3678C111.062 39.0709 110.913 38.7133 110.868 38.3357C110.824 37.9581 110.886 37.5755 111.048 37.2315C111.21 36.8875 111.466 36.5959 111.785 36.3897C112.105 36.1835 112.475 36.0711 112.856 36.0652C113.154 36.0931 113.444 36.1808 113.708 36.3232C113.972 36.4655 114.205 36.6596 114.392 36.8938C114.58 37.1281 114.718 37.3976 114.799 37.6865C114.88 37.9753 114.902 38.2775 114.863 38.575Z" fill="#403D4F"/>
<path d="M96.2661 38.575C96.1769 38.9446 95.9858 39.2818 95.7145 39.5482C95.4432 39.8147 95.1027 39.9997 94.7315 40.0823C94.3603 40.1648 93.9734 40.1417 93.6148 40.0154C93.2561 39.8891 92.94 39.6647 92.7025 39.3678C92.4649 39.0709 92.3154 38.7133 92.271 38.3357C92.2265 37.9581 92.2888 37.5755 92.4509 37.2315C92.6129 36.8875 92.8682 36.5959 93.1877 36.3897C93.5072 36.1835 93.8781 36.0711 94.2583 36.0652C94.5556 36.0964 94.8438 36.1863 95.1062 36.3297C95.3685 36.4731 95.5998 36.6671 95.7866 36.9006C95.9733 37.1341 96.1119 37.4023 96.1942 37.6897C96.2765 37.9771 96.3009 38.278 96.2661 38.575Z" fill="#403D4F"/>
<path d="M108.815 31.4726C108.815 31.4726 108.815 31.4726 109.016 31.2718C109.218 31.075 109.446 30.9061 109.693 30.7698C110.01 30.5887 110.347 30.4454 110.697 30.3432C111.514 30.119 112.362 30.0341 113.207 30.0922C113.562 30.1105 113.915 30.1609 114.261 30.2428L115.24 30.5189C115.401 30.5709 115.536 30.6839 115.616 30.8338C115.696 30.9838 115.714 31.1589 115.666 31.322C115.625 31.4503 115.545 31.5626 115.437 31.6435C115.329 31.7244 115.199 31.7699 115.064 31.7737H113.182C112.856 31.749 112.529 31.749 112.203 31.7737C111.88 31.8034 111.561 31.8622 111.249 31.9494C110.923 31.9494 110.697 32.1251 110.446 32.1502C110.268 32.2253 110.083 32.2841 109.894 32.3259H109.668C109.511 32.394 109.334 32.398 109.175 32.337C109.015 32.276 108.886 32.1549 108.815 31.9996C108.777 31.9124 108.758 31.8184 108.758 31.7235C108.758 31.6286 108.777 31.5347 108.815 31.4475V31.4726Z" fill="#403D4F"/>
<path d="M96.5925 32.4259C96.5925 32.4259 96.5925 32.4259 96.4419 32.4259L96.0655 32.2754H95.7894C95.6902 32.2536 95.5874 32.2536 95.4882 32.2754C95.2664 32.2021 95.0401 32.1434 94.8106 32.0997C94.5771 32.0736 94.3414 32.0736 94.1079 32.0997H92.6773C92.5927 32.0997 92.509 32.0827 92.4312 32.0496C92.3534 32.0165 92.2831 31.9681 92.2245 31.9071C92.1659 31.8462 92.1202 31.774 92.0902 31.695C92.0602 31.6159 92.0464 31.5316 92.0498 31.4471C92.0547 31.3226 92.095 31.2021 92.1662 31.0998C92.2373 30.9975 92.3363 30.9177 92.4514 30.8699L93.2294 30.5938C93.5071 30.5107 93.7934 30.4602 94.0827 30.4432C94.4239 30.3934 94.7706 30.3934 95.1118 30.4432C95.7669 30.5254 96.3896 30.7761 96.9188 31.1711L97.3957 31.6479C97.5212 31.7985 97.5211 31.8487 97.5211 31.8738V32.0997C97.5432 32.272 97.4982 32.4463 97.3954 32.5864C97.2927 32.7265 97.14 32.8218 96.969 32.8526C96.797 32.7593 96.6637 32.6082 96.5925 32.4259Z" fill="#403D4F"/>
<path d="M101.737 47.1334C101.314 47.131 100.896 47.043 100.508 46.8748C100.119 46.7066 99.7693 46.4616 99.4782 46.1546C99.3719 46.0408 99.2903 45.9063 99.2384 45.7594C99.1866 45.6126 99.1657 45.4566 99.1771 45.3013C99.1771 45.0252 99.6038 41.5617 99.7544 40.2817C99.7832 40.1579 99.8539 40.0478 99.9545 39.9701C100.055 39.8924 100.179 39.8517 100.306 39.855C100.435 39.8738 100.552 39.9418 100.631 40.0449C100.711 40.1479 100.748 40.2778 100.733 40.4072C100.733 40.5829 100.181 45.1256 100.131 45.4268C100.336 45.6542 100.588 45.8347 100.87 45.956C101.151 46.0773 101.456 46.1364 101.762 46.1295C101.891 46.1359 102.012 46.1917 102.101 46.2851C102.19 46.3786 102.239 46.5026 102.239 46.6315C102.233 46.7626 102.178 46.8868 102.085 46.9796C101.992 47.0725 101.868 47.1273 101.737 47.1334Z" fill="#F18380"/>
<path d="M99.4285 52.0777C98.4999 52.3036 98.1485 53.7091 98.7258 55.3404C99.2952 56.4637 100.227 57.362 101.37 57.8903C102.513 58.4186 103.801 58.546 105.025 58.2518C105.694 58.22 106.349 58.0549 106.953 57.7662C107.557 57.4775 108.096 57.0709 108.541 56.5705C108.985 56.0701 109.325 55.4859 109.54 54.8523C109.755 54.2186 109.842 53.5483 109.794 52.8808C109.794 51.8016 109.041 51.1742 107.635 51.1742C104.88 51.2478 102.134 51.55 99.4285 52.0777Z" fill="#73102A"/>
<path d="M109.794 53.0064V52.7805C107.956 52.356 106.027 52.6361 104.387 53.5656C102.746 54.495 101.514 56.0061 100.934 57.8001C102.225 58.4328 103.677 58.6603 105.1 58.4526C105.769 58.4116 106.423 58.2371 107.023 57.9394C107.623 57.6417 108.158 57.2268 108.595 56.7193C109.033 56.2117 109.364 55.6217 109.57 54.984C109.776 54.3463 109.852 53.6739 109.794 53.0064Z" fill="#D65155"/>
<path d="M100.231 53.5836C103.41 53.6329 106.574 53.1494 109.593 52.153C109.404 51.8111 109.115 51.5345 108.766 51.3598C108.416 51.185 108.022 51.1203 107.635 51.1742C104.879 51.2478 102.134 51.55 99.4282 52.0777C99.1687 52.1672 98.9416 52.3319 98.7762 52.551C98.6108 52.77 98.5146 53.0334 98.4996 53.3075C99.0551 53.5047 99.642 53.5983 100.231 53.5836Z" fill="white"/>
<path d="M114.185 24.3449C114.185 24.3449 116.695 36.8938 127.336 41.7628C127.336 41.7628 138.179 35.4632 136.924 23.4414C135.368 8.63365 114.336 -8.0313 93.4042 7.73013C91.3712 7.40385 89.1627 3.11213 89.8152 0C88.9596 0.537607 88.2863 1.3209 87.8832 2.24744C87.48 3.17397 87.3659 4.20061 87.5557 5.19306C87.7455 6.18551 88.2304 7.09757 88.947 7.80995C89.6636 8.52232 90.5785 9.00185 91.5721 9.1858C88.1554 9.6618 85.0547 11.4393 82.9174 14.1471C80.7802 16.8549 79.7716 20.2837 80.1024 23.7174C80.2094 25.8823 81.1109 27.9318 82.6343 29.4737C84.1577 31.0156 86.1961 31.9418 88.3596 32.075H92.0489C94.9031 30.7669 97.2111 28.5033 98.5744 25.6751C98.2194 27.807 97.4794 29.8565 96.3908 31.7236C96.19 32.1001 96.6418 32.7526 99.7289 32.1001C103.273 30.8811 106.235 28.3844 108.036 25.0978C107.361 27.2528 106.461 29.3307 105.351 31.297C105.351 31.6734 106.982 32.2256 109.392 31.1213C110.734 30.5377 111.89 29.5975 112.735 28.4028C113.58 27.2081 114.082 25.8046 114.185 24.3449Z" fill="#BC664A"/>
<path d="M97.7214 34.2081C98.6249 34.2081 98.9763 35.8646 98.9763 37.4457C98.884 39.5875 98.2447 41.6699 97.1191 43.4943C96.6586 44.0449 96.0614 44.4646 95.3873 44.7113C94.7133 44.958 93.9862 45.023 93.2791 44.8998C92.4181 45.033 91.5383 44.9762 90.7016 44.7334C89.8648 44.4906 89.0913 44.0677 88.4353 43.4943C87.0537 41.764 86.2309 39.6545 86.0761 37.4457C86.0761 35.8646 86.5529 34.2081 87.6823 34.2081H97.7214Z" stroke="#403D4F" stroke-width="0.75" stroke-miterlimit="10"/>
<path d="M105.301 34.2081C104.097 34.2081 103.62 35.8646 103.62 37.4458C103.784 39.6793 104.664 41.8004 106.129 43.4943C106.823 44.0636 107.627 44.4825 108.492 44.7245C109.356 44.9664 110.261 45.0261 111.149 44.8998C113.405 45.1899 115.692 44.6935 117.624 43.4943C119.387 41.9392 120.506 39.7823 120.761 37.4458C120.761 35.8646 120.159 34.2081 118.628 34.2081H105.301Z" stroke="#403D4F" stroke-width="0.75" stroke-miterlimit="10"/>
<path d="M98.7754 35.7138C99.4966 35.1642 100.378 34.8666 101.285 34.8666C102.192 34.8666 103.074 35.1642 103.795 35.7138" stroke="#403D4F" stroke-width="0.75" stroke-miterlimit="10"/>
<path d="M118.678 34.2081H121.74C122.392 34.2081 123.145 34.3587 123.145 35.2371V36.6426C123.145 36.994 120.911 37.6967 120.635 38.4748" stroke="#403D4F" stroke-width="0.75" stroke-miterlimit="10"/>
<path d="M129.822 37.8727L123.146 35.2374" stroke="#403D4F" stroke-width="0.75" stroke-miterlimit="10"/>
<path d="M126.384 43.6199C126.584 40.2066 127.488 36.216 131.654 36.8184C136.523 37.5713 137 50.7477 126.635 49.1665L126.384 43.6199Z" fill="#FBBEAA"/>
<path d="M132.005 44.4984C131.918 44.4996 131.832 44.4768 131.757 44.4326C131.681 44.3883 131.62 44.3243 131.578 44.2474C131.468 44.0301 131.304 43.8446 131.102 43.7085C130.9 43.5723 130.667 43.49 130.424 43.4694C130.134 43.4725 129.85 43.5504 129.6 43.6955C129.349 43.8406 129.14 44.048 128.993 44.2976C128.933 44.3834 128.847 44.4471 128.747 44.4789C128.647 44.5107 128.54 44.5087 128.441 44.4733C128.335 44.4438 128.243 44.3765 128.183 44.2841C128.123 44.1916 128.099 44.0804 128.115 43.9713C128.158 42.9157 128.487 41.8915 129.066 41.0077C129.645 40.1238 130.452 39.4134 131.403 38.9518C131.466 38.9138 131.538 38.8905 131.612 38.8836C131.686 38.8766 131.761 38.8861 131.83 38.9115C131.9 38.9369 131.964 38.9774 132.016 39.0302C132.068 39.0831 132.108 39.1468 132.133 39.2169C132.157 39.287 132.166 39.3617 132.158 39.4356C132.15 39.5095 132.126 39.5807 132.088 39.6442C132.049 39.7077 131.997 39.7618 131.935 39.8026C131.873 39.8435 131.802 39.87 131.729 39.8804C131.165 40.1545 130.662 40.5407 130.253 41.0153C129.843 41.49 129.534 42.0432 129.345 42.6411C129.695 42.4684 130.084 42.3905 130.474 42.4152C130.88 42.4536 131.27 42.5902 131.611 42.8133C131.952 43.0363 132.234 43.339 132.432 43.6952C132.487 43.8093 132.496 43.9399 132.459 44.0609C132.422 44.1819 132.34 44.2844 132.231 44.3478L132.005 44.4984Z" fill="#F18380"/>
<path d="M22.115 77.1549C22.0143 74.9542 22.6034 72.7769 23.8001 70.9272C25.6426 68.7909 27.0229 66.2963 27.8543 63.6005C28.4938 61.0981 29.5153 58.7091 30.8827 56.5179C31.8596 55.1747 33.325 54.0757 33.325 53.05C33.325 52.0242 31.3711 50.046 28.587 50.6077C27.3944 50.9792 26.2987 51.6097 25.3783 52.4542C24.4578 53.2986 23.7355 54.336 23.2628 55.4922C22.9961 54.7877 22.8396 54.0464 22.7989 53.2942L22.1883 38.3232C22.179 37.9351 22.0921 37.5528 21.9326 37.1988C21.7731 36.8449 21.5443 36.5265 21.2597 36.2624C20.9752 35.9983 20.6406 35.794 20.2758 35.6613C19.9109 35.5287 19.5232 35.4705 19.1355 35.4902C18.5182 35.5165 17.9247 35.7357 17.4384 36.1168C16.9522 36.4979 16.5976 37.0218 16.4246 37.6149V36.9311C16.3306 36.2033 15.9649 35.5381 15.4007 35.0688C14.8366 34.5995 14.1157 34.361 13.383 34.4012C12.6503 34.4414 11.9599 34.7573 11.4505 35.2855C10.941 35.8136 10.6502 36.5149 10.6365 37.2486V39.3245C10.3918 38.6845 9.9254 38.1537 9.32216 37.8288C8.71893 37.504 8.01904 37.4067 7.35006 37.5547C6.68108 37.7027 6.08755 38.0861 5.67765 38.6351C5.26775 39.1841 5.06875 39.8622 5.11695 40.5457V41.8644C4.85408 41.4025 4.46235 41.0271 3.98959 40.7842C3.51682 40.5414 2.98353 40.4415 2.45491 40.4968C1.731 40.5887 1.07132 40.9587 0.615471 41.5285C0.159622 42.0983 -0.0566025 42.8232 0.012661 43.5496L1.20934 56.176C1.99328 63.2946 3.46556 70.3205 5.60543 77.1549C5.6313 78.2961 5.89567 79.4191 6.38153 80.452C6.86738 81.4848 7.56396 82.4046 8.42652 83.1522C9.28908 83.8997 10.2985 84.4585 11.39 84.7926C12.4814 85.1267 13.6306 85.2288 14.7639 85.0922C15.7894 85.1264 16.8103 84.9398 17.7573 84.5447C18.7043 84.1497 19.5553 83.5556 20.2525 82.8028C20.9497 82.0499 21.4769 81.156 21.7983 80.1815C22.1196 79.207 22.2276 78.1748 22.115 77.1549Z" fill="#FBBEAA"/>
<path d="M104.419 475.73C104.419 473.378 103.485 471.123 101.822 469.461C100.16 467.798 97.9046 466.864 95.5533 466.864C93.2021 466.864 90.9471 467.798 89.2846 469.461C87.622 471.123 86.688 473.378 86.688 475.73V494.999H104.419V475.73Z" fill="#FBBEAA"/>
<path d="M87.3227 479.32C85.1491 479.32 84.7584 480.272 84.1234 481.518C83.0935 484.837 81.3326 487.883 78.9703 490.432C75.4434 493.436 71.6597 496.125 67.6627 498.467V508.676H107.129C107.129 508.676 106.861 500.616 106.665 494.926C106.47 489.235 105.908 482.299 105.957 481.567C106.006 480.834 105.957 479.32 104.614 479.32H87.3227Z" fill="#302D3B"/>
<path d="M102.221 495.487C102.226 496.74 101.858 497.967 101.165 499.011C100.472 500.055 99.4842 500.869 98.3274 501.351C97.1706 501.833 95.8967 501.96 94.6674 501.717C93.4382 501.473 92.3089 500.87 91.4228 499.984C90.5367 499.098 89.9337 497.969 89.6904 496.74C89.4472 495.51 89.5745 494.237 90.0562 493.08C90.538 491.923 91.3526 490.935 92.3965 490.242C93.4405 489.549 94.6667 489.181 95.9199 489.186C97.589 489.193 99.188 489.859 100.368 491.039C101.549 492.219 102.214 493.818 102.221 495.487Z" fill="#93929C"/>
<path d="M95.92 491.775L97.3609 493.9L99.8276 494.608L98.2646 496.635L98.3379 499.2L95.92 498.32L93.5022 499.2L93.5999 496.635L92.0124 494.608L94.4791 493.9L95.92 491.775Z" fill="white"/>
<path d="M67.9318 498.296C67.9318 498.296 62.339 501.251 60.2387 502.692C59.2663 503.351 58.4765 504.245 57.9427 505.292C57.4089 506.338 57.1486 507.502 57.1859 508.676H72.5232C72.5232 508.676 72.2057 501.178 67.9318 498.296Z" fill="white"/>
<path d="M107.129 508.676V512.901C107.129 513.609 106.494 514 105.42 514H58.8706C57.8204 514 57.1854 513.609 57.1854 512.901V508.676H107.129Z" fill="white"/>
<path d="M72.5233 495.439C72.3881 495.231 72.1772 495.084 71.9356 495.03C71.6939 494.975 71.4404 495.016 71.2289 495.146C71.1236 495.21 71.0323 495.296 70.9604 495.396C70.8885 495.497 70.8374 495.611 70.8101 495.731C70.7828 495.852 70.7798 495.977 70.8014 496.098C70.823 496.22 70.8687 496.336 70.9359 496.44L72.5721 499.078C72.651 499.214 72.7652 499.327 72.9027 499.405C73.0402 499.482 73.196 499.521 73.3537 499.517C73.5346 499.514 73.7115 499.464 73.8665 499.371C73.9718 499.306 74.0631 499.221 74.1351 499.12C74.207 499.02 74.2582 498.906 74.2855 498.785C74.3128 498.665 74.3157 498.54 74.294 498.418C74.2724 498.296 74.2268 498.18 74.1597 498.076L72.5233 495.439Z" fill="white"/>
<path d="M75.4051 493.411C75.3249 493.318 75.2273 493.242 75.1176 493.187C75.0079 493.132 74.8884 493.099 74.7659 493.089C74.6435 493.08 74.5205 493.096 74.4039 493.134C74.2873 493.173 74.1794 493.234 74.0864 493.314C73.9934 493.394 73.917 493.492 73.8618 493.601C73.8066 493.711 73.7734 493.83 73.7643 493.953C73.7552 494.075 73.7704 494.198 73.8089 494.315C73.8474 494.432 73.9085 494.54 73.9887 494.633L75.8936 496.879C75.9815 496.982 76.0899 497.066 76.2118 497.125C76.3337 497.184 76.4666 497.217 76.6019 497.221C76.7788 497.218 76.9512 497.165 77.1 497.07C77.2487 496.974 77.3678 496.838 77.4439 496.679C77.5199 496.519 77.55 496.341 77.5307 496.165C77.5114 495.989 77.4434 495.822 77.3345 495.683L75.4051 493.411Z" fill="white"/>
<path d="M78.1156 491.141C77.9213 491.015 77.6881 490.965 77.4595 490.999C77.2308 491.033 77.0224 491.149 76.8729 491.325C76.7235 491.502 76.6433 491.726 76.6472 491.958C76.6512 492.189 76.7391 492.41 76.8945 492.582L79.068 494.462C79.2385 494.606 79.4552 494.684 79.6786 494.682C79.8131 494.687 79.9469 494.661 80.0696 494.606C80.1924 494.551 80.301 494.468 80.3869 494.364C80.4771 494.28 80.549 494.178 80.5982 494.064C80.6473 493.951 80.6726 493.829 80.6726 493.705C80.6726 493.581 80.6473 493.459 80.5982 493.346C80.549 493.232 80.4771 493.13 80.3869 493.046L78.1156 491.141Z" fill="white"/>
<path d="M82.8782 490.017L80.4359 488.503C80.2215 488.376 79.966 488.338 79.724 488.397C79.482 488.457 79.2729 488.608 79.1415 488.82C79.0755 488.925 79.0312 489.043 79.0114 489.166C78.9916 489.288 78.9967 489.414 79.0263 489.535C79.0559 489.655 79.1095 489.769 79.1838 489.868C79.2581 489.968 79.3517 490.052 79.459 490.115L81.9013 491.629C82.0461 491.725 82.2161 491.776 82.3898 491.775C82.5489 491.771 82.7043 491.727 82.8412 491.645C82.9781 491.564 83.0917 491.449 83.1712 491.311C83.3004 491.1 83.342 490.846 83.2873 490.605C83.2326 490.363 83.0858 490.152 82.8782 490.017Z" fill="white"/>
<path d="M84.93 486.867L82.1947 485.719C81.9615 485.622 81.6993 485.621 81.4657 485.717C81.2321 485.814 81.0463 485.999 80.9492 486.232C80.9015 486.345 80.8769 486.468 80.877 486.591C80.877 486.714 80.9017 486.836 80.9494 486.95C80.9971 487.064 81.0671 487.167 81.1551 487.253C81.2431 487.339 81.3475 487.407 81.462 487.453L84.1973 488.601H84.5637C84.7744 488.589 84.9754 488.508 85.1351 488.371C85.2948 488.233 85.4042 488.046 85.4461 487.839C85.488 487.632 85.4601 487.417 85.3667 487.228C85.2732 487.039 85.1196 486.886 84.93 486.794V486.867Z" fill="white"/>
<path d="M86.6394 483.35L83.611 482.593C83.3714 482.534 83.1184 482.573 82.9077 482.702C82.697 482.83 82.5458 483.037 82.4875 483.276C82.4293 483.516 82.4686 483.769 82.5968 483.98C82.7251 484.19 82.9317 484.341 83.1714 484.4L86.1754 485.181H86.3952C86.6055 485.179 86.8094 485.109 86.9767 484.981C87.1439 484.853 87.2654 484.675 87.3232 484.473C87.3755 484.234 87.3337 483.984 87.2064 483.774C87.079 483.565 86.876 483.413 86.6394 483.35Z" fill="white"/>
<path d="M117.387 352.494C117.119 340.674 109.157 334.959 97.3608 335.252C85.5648 335.545 77.0657 341.724 77.3344 353.52L86.6881 476.682H104.419L117.387 352.494Z" fill="#FBBEAA"/>
<path d="M118.926 352.42C118.861 349.614 118.243 346.848 117.108 344.281C115.973 341.713 114.344 339.394 112.313 337.456C110.282 335.519 107.89 334 105.272 332.986C102.654 331.973 99.8623 331.486 97.056 331.551C94.2497 331.617 91.4838 332.235 88.9162 333.37C86.3487 334.504 84.0298 336.134 82.0919 338.164C80.1541 340.195 78.6352 342.588 77.622 345.206C76.6089 347.824 76.1212 350.615 76.1869 353.422L70.6421 480.029H118.925L118.926 352.42Z" fill="#93929C"/>
<path d="M179.152 475.73C179.152 473.378 178.218 471.123 176.555 469.461C174.893 467.798 172.638 466.864 170.287 466.864C167.935 466.864 165.681 467.798 164.018 469.461C162.355 471.123 161.421 473.378 161.421 475.73V494.999H179.152V475.73Z" fill="#FBBEAA"/>
<path d="M162.08 479.32C159.882 479.32 159.491 480.272 158.881 481.518C157.839 484.837 156.07 487.883 153.703 490.432C150.181 493.442 146.397 496.131 142.396 498.467V508.676H181.862C181.862 508.676 181.594 500.616 181.398 494.926C181.203 489.235 180.666 482.299 180.69 481.567C180.714 480.834 180.69 479.32 179.371 479.32H162.08Z" fill="#302D3B"/>
<path d="M176.978 495.487C176.983 496.739 176.616 497.965 175.924 499.008C175.231 500.051 174.245 500.866 173.09 501.349C171.935 501.831 170.662 501.96 169.433 501.718C168.205 501.477 167.075 500.877 166.188 499.993C165.301 499.109 164.696 497.982 164.45 496.755C164.204 495.527 164.328 494.254 164.806 493.097C165.284 491.939 166.095 490.95 167.136 490.254C168.176 489.558 169.4 489.186 170.652 489.186C172.326 489.186 173.931 489.849 175.116 491.03C176.302 492.211 176.971 493.814 176.978 495.487Z" fill="#93929C"/>
<path d="M170.677 491.775L172.118 493.9L174.584 494.608L172.997 496.635L173.07 499.2L170.677 498.32L168.259 499.2L168.332 496.635L166.745 494.608L169.236 493.9L170.677 491.775Z" fill="white"/>
<path d="M142.689 498.296C142.689 498.296 137.072 501.251 134.996 502.692C134.019 503.346 133.225 504.239 132.691 505.287C132.156 506.334 131.899 507.501 131.943 508.676H147.354C147.354 508.676 146.939 501.178 142.689 498.296Z" fill="white"/>
<path d="M181.862 508.676V512.901C181.862 513.609 181.252 514 180.177 514H133.579C132.504 514 131.894 513.609 131.894 512.901V508.676H181.862Z" fill="white"/>
<path d="M147.256 495.439C147.123 495.228 146.912 495.079 146.669 495.024C146.427 494.969 146.172 495.013 145.962 495.146C145.751 495.278 145.602 495.489 145.547 495.732C145.492 495.975 145.536 496.23 145.669 496.44L147.305 499.078C147.389 499.215 147.508 499.327 147.65 499.404C147.791 499.481 147.95 499.52 148.111 499.517C148.284 499.518 148.454 499.467 148.599 499.371C148.704 499.306 148.796 499.221 148.868 499.12C148.94 499.02 148.991 498.906 149.018 498.785C149.045 498.665 149.048 498.54 149.027 498.418C149.005 498.296 148.959 498.18 148.892 498.076L147.256 495.439Z" fill="white"/>
<path d="M150.162 493.412C150.001 493.224 149.774 493.107 149.528 493.084C149.282 493.061 149.036 493.135 148.844 493.289C148.655 493.455 148.536 493.687 148.514 493.937C148.491 494.187 148.565 494.436 148.722 494.633L150.651 496.88C150.736 496.986 150.843 497.072 150.966 497.132C151.089 497.191 151.223 497.222 151.359 497.221C151.538 497.223 151.714 497.173 151.865 497.077C152.016 496.982 152.137 496.844 152.212 496.681C152.286 496.519 152.313 496.338 152.287 496.161C152.262 495.984 152.185 495.818 152.067 495.683L150.162 493.412Z" fill="white"/>
<path d="M152.849 491.141C152.654 491.015 152.421 490.965 152.193 490.999C151.964 491.033 151.755 491.149 151.606 491.325C151.457 491.502 151.376 491.726 151.38 491.958C151.384 492.189 151.472 492.41 151.628 492.582L153.826 494.462C153.996 494.606 154.213 494.684 154.436 494.682C154.57 494.685 154.704 494.658 154.826 494.603C154.949 494.548 155.057 494.467 155.144 494.364C155.232 494.278 155.301 494.175 155.348 494.062C155.395 493.949 155.419 493.828 155.419 493.705C155.419 493.582 155.395 493.461 155.348 493.348C155.301 493.235 155.232 493.132 155.144 493.046L152.849 491.141Z" fill="white"/>
<path d="M157.611 490.017L155.169 488.503C154.958 488.414 154.722 488.404 154.505 488.474C154.287 488.545 154.102 488.691 153.984 488.887C153.865 489.082 153.821 489.314 153.859 489.539C153.898 489.765 154.016 489.969 154.192 490.115L156.634 491.629C156.779 491.725 156.949 491.776 157.123 491.775C157.285 491.773 157.445 491.73 157.586 491.648C157.727 491.567 157.845 491.451 157.929 491.311C158.055 491.097 158.093 490.841 158.034 490.599C157.975 490.357 157.823 490.148 157.611 490.017Z" fill="white"/>
<path d="M22.4082 78.7915L32.1772 140.116C33.789 147.809 31.298 154.77 22.4082 155.991C20.7672 156.205 19.0999 156.083 17.5076 155.632C15.9152 155.182 14.431 154.413 13.145 153.371C11.8591 152.33 10.7983 151.038 10.027 149.573C9.25571 148.109 8.79006 146.504 8.6583 144.854L5.67876 78.9136C4.89724 72.6859 7.60809 68.5341 12.346 68.0212C18.1586 67.3862 21.2359 70.8298 22.4082 78.7915Z" fill="#FBBEAA"/>
<path d="M159.662 486.867L156.927 485.719C156.813 485.671 156.691 485.647 156.568 485.647C156.445 485.647 156.323 485.671 156.209 485.719C156.095 485.767 155.992 485.837 155.906 485.925C155.82 486.013 155.752 486.117 155.706 486.232C155.615 486.459 155.615 486.713 155.706 486.94C155.797 487.168 155.972 487.351 156.194 487.453L158.954 488.601C159.067 488.626 159.184 488.626 159.296 488.601C159.484 488.601 159.668 488.545 159.825 488.441C159.981 488.336 160.103 488.188 160.175 488.015C160.249 487.794 160.238 487.553 160.143 487.341C160.048 487.128 159.876 486.959 159.662 486.867Z" fill="white"/>
<path d="M161.372 483.35L158.368 482.593C158.126 482.533 157.869 482.572 157.654 482.7C157.44 482.828 157.284 483.035 157.22 483.277C157.191 483.395 157.186 483.518 157.205 483.639C157.223 483.76 157.266 483.876 157.329 483.98C157.393 484.085 157.476 484.175 157.575 484.247C157.674 484.32 157.786 484.371 157.904 484.4L160.908 485.182H161.153C161.373 485.165 161.58 485.072 161.739 484.919C161.898 484.766 162 484.563 162.026 484.344C162.052 484.125 162.001 483.903 161.881 483.718C161.762 483.532 161.582 483.393 161.372 483.325V483.35Z" fill="white"/>
<path d="M169.456 352.128C168.256 346.584 164.904 341.743 160.137 338.67C155.369 335.597 149.576 334.544 144.032 335.74C132.48 338.182 126.252 349.563 128.744 361.115L161.421 478.709H179.371L169.456 352.128Z" fill="#FBBEAA"/>
<path d="M169.453 349.807C168.128 344.397 164.744 339.716 160.022 336.762C155.3 333.807 149.611 332.81 144.166 333.984C138.72 335.158 133.947 338.409 130.862 343.047C127.776 347.684 126.621 353.343 127.642 358.819L140.634 479.536C140.634 479.536 171.748 481.392 190.285 479.536L169.453 349.807Z" fill="#93929C"/>
<path d="M14.4706 133.327L84.612 80.037C92.7935 74.8106 98.3617 77.5947 102.709 83.1875C104.694 85.8944 105.615 89.2369 105.295 92.5786C104.975 95.9203 103.438 99.0277 100.975 101.309L31.0046 152.865C28.5389 154.947 25.3647 155.998 22.1434 155.798C18.9221 155.598 15.9024 154.162 13.7135 151.79L13.396 151.448C12.2342 150.209 11.3372 148.746 10.7596 147.148C10.182 145.551 9.93595 143.852 10.0365 142.156C10.1371 140.461 10.5821 138.803 11.3445 137.285C12.1068 135.767 13.1705 134.42 14.4706 133.327Z" fill="#FBBEAA"/>
<path d="M100.976 101.285C101.623 100.727 102.212 100.105 102.734 99.4286C103.195 97.6904 103.255 95.87 102.908 94.1055C102.561 92.3409 101.816 90.6786 100.731 89.2445C97.0435 83.554 89.3016 79.0847 85.858 79.9395L82.4389 81.6735L43.7293 110.98C47.1553 119.032 51.7831 126.517 57.4547 133.18L100.976 101.285Z" fill="#F18380"/>
<path d="M90.4005 76.2269L29.7018 117.165C29.9572 119.259 23.2284 76.2269 23.2284 76.2269L4.18874 78.7047C4.18874 78.7047 4.57624 122.157 7.41858 145.218C8.55328 154.424 16.1455 157.939 25.2082 155.961C29.6827 154.985 33.8951 153.149 37.6436 150.518C53.7514 139.212 98.9414 107.366 102.636 103.36C109.01 96.4487 109.01 91.2712 105.347 85.5807C101.684 79.8903 93.8441 75.3721 90.4005 76.2269Z" fill="#002776"/>
<path d="M118.926 352.421L131.455 221.248C131.455 206.765 116.533 190.988 94.5283 194.383C74.6484 197.485 68.5916 217.462 70.2279 236.39C71.8642 255.317 76.2847 353.349 76.2847 353.349C76.3505 356.155 76.9683 358.921 78.103 361.489C79.2377 364.056 80.8669 366.375 82.8977 368.313C84.9286 370.251 87.3213 371.77 89.9391 372.783C92.557 373.796 95.3487 374.284 98.155 374.218C100.961 374.152 103.727 373.534 106.295 372.4C108.862 371.265 111.181 369.636 113.119 367.605C115.057 365.574 116.576 363.181 117.589 360.564C118.602 357.946 119.09 355.154 119.024 352.348L118.926 352.421Z" fill="#93929C"/>
<path d="M169.455 349.808L157 218.659C154.362 204.421 136.656 191.794 115.677 199.267C96.7496 206.032 94.5517 226.792 99.7292 245.084C104.907 263.376 127.644 358.819 127.644 358.819C128.97 364.23 132.353 368.91 137.075 371.865C141.797 374.82 147.486 375.816 152.931 374.643C158.377 373.469 163.15 370.218 166.235 365.58C169.321 360.942 170.476 355.284 169.455 349.808Z" fill="#93929C"/>
<path d="M99.7297 245.084C104.883 263.377 127.645 358.82 127.645 358.82" stroke="#5E5D63" stroke-width="0.75" stroke-miterlimit="10"/>
<path d="M103.393 74.1509C103.393 74.1509 92.5982 76.0314 90.4979 76.5931C89.2584 76.884 88.113 77.4847 87.169 78.339C86.225 79.1933 85.5133 80.2732 85.1006 81.4776C83.7573 84.677 76.8458 105.631 76.2108 107.903C75.7815 110.405 76.1847 112.979 77.3587 115.23C78.36 117.965 83.5376 130.42 83.5376 130.42L84.319 170.546L113.478 175.171L141.419 170.546C141.419 170.546 151.188 95.9114 151.676 91.2955C152.165 86.6797 149.869 77.7655 144.35 76.642C138.83 75.5186 123.688 74.1998 123.688 74.1998L103.393 74.1509Z" fill="#FBBEAA"/>
<path d="M82.9498 154.412V168.519C102.048 170.278 132.48 169.032 143.91 168.519C144.447 164.49 145.009 157.651 145.595 153.109C130.038 153.5 104.344 154.95 82.9498 154.412Z" fill="white"/>
<path d="M183.669 166.956L152.384 84.6282C148.208 75.8361 142.029 75.25 135.289 77.6922C132.171 78.9358 129.621 81.2844 128.125 84.2894C126.629 87.2943 126.293 90.7449 127.18 93.982L159.394 174.845C160.37 177.921 162.5 180.5 165.337 182.039C168.174 183.578 171.497 183.958 174.609 183.1L175.073 182.977C176.714 182.53 178.247 181.752 179.578 180.693C180.909 179.633 182.01 178.314 182.814 176.815C183.619 175.315 184.109 173.668 184.256 171.973C184.403 170.279 184.204 168.571 183.669 166.956Z" fill="#FBBEAA"/>
<path d="M170.702 132.814L152.385 84.628C151.894 83.5713 151.314 82.5582 150.651 81.5996C148.408 80.1949 145.839 79.3937 143.195 79.2739C140.55 79.1541 137.92 79.7197 135.558 80.9158C132.816 82.2502 130.612 84.4811 129.31 87.2392C128.009 89.9973 127.689 93.1171 128.402 96.0821C128.402 96.3752 128.573 96.9369 128.72 97.694L147.623 145.196C155.88 142.218 163.655 138.046 170.702 132.814Z" fill="#F18380"/>
<path d="M150.675 80.2323L185.446 170.476C156.887 161.337 155.329 165.918 149.913 151.64C149.913 151.64 126.79 96.4488 126.106 92.6877C125.393 89.7227 125.713 86.6029 127.014 83.8448C128.316 81.0867 130.52 78.8558 133.262 77.5214C140.906 73.6138 148.526 77.1551 150.675 80.2323Z" fill="#002776"/>
<path d="M21.6272 57.6172C22.5553 57.6172 22.6285 57.031 23.0437 55.9564C20.9678 55.9564 14.9355 56.3472 12.2978 61.4271C14.9599 57.7637 20.0642 57.6172 21.6272 57.6172ZM16.8893 38.299C16.8893 38.299 17.0358 39.1538 17.1823 40.3993C17.1823 41.0343 17.3289 41.7914 17.3777 42.5729C17.4266 43.3544 17.4998 44.2092 17.5731 45.0151C17.5731 46.7247 17.6952 48.4099 17.6952 49.6799C17.6952 50.9498 17.6952 51.8046 17.6952 51.8046C17.6953 51.8452 17.687 51.8855 17.6708 51.9227C17.6546 51.96 17.6307 51.9934 17.6009 52.021C17.571 52.0485 17.5358 52.0696 17.4974 52.0828C17.4589 52.096 17.4182 52.101 17.3777 52.0977C17.309 52.0942 17.2432 52.0685 17.1904 52.0245C17.1375 51.9804 17.1004 51.9205 17.0846 51.8535C17.0846 51.8535 16.9381 50.9986 16.816 49.7287C16.6939 48.4587 16.4985 46.7736 16.4252 45.0884C16.4252 44.2336 16.4252 43.3788 16.4252 42.6462C16.4252 41.9135 16.4252 41.1076 16.4252 40.4726C16.4252 39.1782 16.4252 38.3478 16.4252 38.3478C16.4251 38.3072 16.4334 38.267 16.4496 38.2297C16.4658 38.1925 16.4897 38.159 16.5195 38.1314C16.5494 38.1039 16.5846 38.0828 16.623 38.0696C16.6615 38.0564 16.7022 38.0513 16.7427 38.0547C16.7895 38.0817 16.828 38.1211 16.8539 38.1685C16.8797 38.2159 16.892 38.2695 16.8893 38.3234V38.299ZM11.2232 40.0086C11.2232 40.0086 11.3698 40.7412 11.5407 41.8158C11.5407 42.3775 11.7117 43.0125 11.785 43.6963C11.8582 44.3801 11.9315 45.1128 12.0048 45.8455C12.0048 47.3109 12.1757 48.7762 12.2001 49.8752C12.2245 50.9742 12.2001 51.7313 12.2001 51.7313C12.197 51.7699 12.1864 51.8074 12.1687 51.8418C12.1511 51.8762 12.1268 51.9068 12.0973 51.9317C12.0678 51.9567 12.0336 51.9756 11.9968 51.9873C11.96 51.9991 11.9212 52.0034 11.8827 52C11.817 51.9954 11.7547 51.9688 11.706 51.9245C11.6572 51.8802 11.6248 51.8208 11.614 51.7558C11.614 51.7558 11.4675 51.0231 11.2965 49.9485C11.1255 48.8739 10.979 47.3841 10.8569 45.9432C10.8569 45.2105 10.8569 44.4779 10.7104 43.794C10.5638 43.1102 10.7104 42.4508 10.7104 41.8891C10.7104 40.7901 10.7104 40.0574 10.7104 40.0574C10.7102 40.0168 10.7185 39.9766 10.7348 39.9393C10.751 39.9021 10.7748 39.8686 10.8047 39.841C10.8345 39.8135 10.8698 39.7924 10.9082 39.7792C10.9466 39.766 10.9874 39.7609 11.0279 39.7643C11.0821 39.7867 11.129 39.8236 11.1635 39.8711C11.1979 39.9185 11.2186 39.9745 11.2232 40.0329V40.0086ZM5.75262 42.3287C5.75262 42.3287 5.89912 42.9392 6.0945 43.8673C6.0945 44.3069 6.28992 44.8442 6.36318 45.4304C6.43645 46.0165 6.5341 46.627 6.63179 47.2376C6.80275 48.4831 6.87608 49.6798 6.92493 50.6567C6.97377 51.6336 6.92493 52.2198 6.92493 52.2198C6.92507 52.2604 6.91671 52.3006 6.90048 52.3379C6.88425 52.3751 6.86043 52.4086 6.83057 52.4362C6.80071 52.4637 6.76547 52.4848 6.72705 52.498C6.68862 52.5112 6.64791 52.5163 6.60742 52.5129C6.54507 52.5096 6.48537 52.4865 6.43704 52.447C6.38872 52.4074 6.35426 52.3536 6.33874 52.2931C6.33874 52.2931 6.16782 51.6825 5.99686 50.7789C5.8259 49.8753 5.58165 48.6053 5.43512 47.3841C5.43512 46.7491 5.31299 46.1386 5.26414 45.5524C5.2153 44.9663 5.26414 44.429 5.26414 43.965C5.26414 43.0369 5.26414 42.4019 5.26414 42.4019C5.264 42.3613 5.27236 42.3211 5.28859 42.2839C5.30482 42.2466 5.32857 42.2131 5.35842 42.1856C5.38828 42.158 5.4236 42.137 5.46202 42.1238C5.50045 42.1106 5.54116 42.1055 5.58165 42.1089C5.62673 42.134 5.66555 42.1691 5.69516 42.2113C5.72477 42.2536 5.74441 42.3021 5.75262 42.3531V42.3287Z" fill="#F18380"/>
<path d="M156.776 218.214C156.241 211.49 149.027 185.71 141.278 171.023C141.278 171.023 124.376 168.344 113.49 168.38C102.132 168.416 84.486 171.023 84.486 171.023C79.4335 182.457 73.6767 207.436 72.0006 212.825C70.9887 215.996 70.8659 219.383 71.6453 222.618C72.4247 225.854 74.0766 228.814 76.4215 231.177C82.1785 237.707 97.0201 245.184 100.445 245.184C115.181 243.08 129.624 239.285 143.488 233.872C151.31 230.595 157.286 224.963 156.776 218.214Z" fill="#93929C"/>
<path d="M102.881 74.2891C102.881 74.2891 92.0079 76.1832 89.8677 76.749C88.6221 77.0483 87.4716 77.6556 86.5218 78.5152C85.5719 79.3748 84.8532 80.4591 84.4314 81.6688C83.103 84.8912 76.1415 105.997 75.4773 108.285C75.0449 110.805 75.451 113.397 76.6335 115.665C77.6175 118.346 82.857 130.867 82.857 130.867L83.6442 171.283H141.181C141.181 171.283 150.947 96.133 151.414 91.5084C151.882 86.8838 149.594 77.8805 144.035 76.749C138.475 75.6174 123.249 74.2891 123.249 74.2891H102.881Z" fill="white"/>
<path d="M123.987 74.289C121.711 82.3012 120.431 90.5629 120.174 98.888V207.739C120.174 211.084 121.625 211.305 123.372 211.305H154.391C155.99 211.305 158.425 210.272 157.638 207.985C156.851 205.697 149.914 184.911 143.149 170.717C143.149 170.717 152.841 92.6153 152.841 88.9254C152.841 85.2356 150.135 77.7575 145.462 76.6259C140.788 75.4943 123.888 73.551 123.888 73.551L123.987 74.289Z" fill="#002776"/>
<path d="M102.069 74.5601C100.692 85.0212 99.8704 95.5479 99.6089 106.096V208.231C99.6089 210.543 99.0185 211.257 96.8292 211.257H72.058C70.4099 211.257 69.7949 210.248 70.2131 208.207C70.6313 206.165 81.6024 171.308 81.6024 171.308L80.643 131.187C80.643 131.187 75.0099 112.295 74.7885 110.794C74.5202 108.918 74.6972 107.005 75.305 105.21C75.9938 103.415 83.8655 82.3334 84.6035 80.8082C85.1005 79.7703 85.8145 78.8511 86.6972 78.1127C87.5799 77.3743 88.6107 76.8339 89.7201 76.528C92.3768 75.8884 102.143 74.0681 102.143 74.0681L102.069 74.5601Z" fill="#002776"/>
<path d="M120.174 137.656C120.174 137.656 134.367 107.03 135.376 105.038C136.384 103.045 135.794 101.053 133.383 101.422C130.973 101.791 119.706 104.718 119.706 104.718L120.174 137.656Z" fill="#003399"/>
<path d="M119.731 105.776C119.731 105.776 132.277 96.256 133.384 95.4688C133.911 95.0597 134.299 94.4967 134.493 93.8577C134.687 93.2188 134.677 92.5354 134.466 91.902C133.998 90.8442 127.652 72.2227 126.865 70.9436C125.997 69.8596 125.033 68.8553 123.987 67.9425C123.987 67.9425 121.65 78.3479 120.863 83.4399C120.083 90.8594 119.706 98.3155 119.731 105.776Z" fill="#003399"/>
<path d="M99.5844 137.656C99.5844 137.656 85.3907 107.03 84.4068 105.038C83.4228 103.045 83.9886 101.053 86.3993 101.422C88.81 101.791 100.052 104.718 100.052 104.718L99.5844 137.656Z" fill="#003399"/>
<path d="M100.052 105.776C100.052 105.776 88.8839 96.2562 87.9 95.4691C87.4273 95.0195 87.114 94.4281 87.0074 93.7845C86.9009 93.1409 87.007 92.4801 87.3096 91.9022C87.9246 90.8444 97.8134 74.2893 98.7728 73.1332C99.7889 72.0456 100.891 71.042 102.069 70.1321C102.069 70.1321 102.29 72.9364 102.217 75.3471C102.143 77.7578 100.052 105.776 100.052 105.776Z" fill="#003399"/>
<g filter="url(#filter0_d_203_229)">
<rect width="40.3016" height="57.4297" rx="1" transform="matrix(-0.993463 -0.114154 -0.114154 0.993463 134.158 114.884)" fill="#EFEFEF"/>
</g>
<path d="M115.236 140.623C112.433 139.439 109.899 137.684 107.794 135.469C106.491 134.102 105.013 132.915 103.401 131.941C102.455 131.35 101.639 130.569 101.003 129.649C100.164 128.222 99.4687 126.714 98.9293 125.15C98.7294 123.803 98.2712 122.505 97.5802 121.328C96.9233 120.726 94.6046 121.048 93.4009 123.388C92.986 124.429 92.798 125.551 92.8495 126.678C92.9011 127.804 93.191 128.91 93.6998 129.92C94.2987 131.131 94.7679 132.402 95.0992 133.711L94.8806 133.842C93.0467 132.868 91.0868 132.162 89.0607 131.745C88.3259 131.581 87.5604 131.669 86.8877 131.997C86.2149 132.324 85.6741 132.872 85.3522 133.551C85.0304 134.23 84.9463 135.001 85.1136 135.739C85.2808 136.478 85.6897 137.141 86.2743 137.623C83.1126 137.986 83.4715 142.862 86.1858 143.507C85.6046 143.751 85.114 144.17 84.7803 144.706C84.4466 145.243 84.2859 145.872 84.32 146.508C84.3541 147.144 84.5813 147.756 84.9709 148.262C85.3605 148.768 85.8936 149.143 86.4983 149.337C84.5705 151.114 85.9796 154.044 89.4802 154.056C92.3244 154.346 99.931 155.537 102.577 156.106C105.224 156.676 110.543 155.416 112.252 155.945C114.796 156.877 117.75 156.892 120.003 150.199C122.257 143.506 117.853 141.488 115.236 140.623Z" fill="#FBBEAA"/>
<path d="M113.48 160.502L165.668 182.657C172.781 185.979 181.182 183.079 184.377 174.78C184.961 173.233 185.001 170.703 184.928 169.051C184.856 167.399 184.448 165.778 183.731 164.288C183.013 162.798 181.685 160.112 180.438 159.025C179.192 157.938 174.75 155.932 173.176 155.424L114.465 139.332L113.48 160.502Z" fill="#002776"/>
<defs>
<filter id="filter0_d_203_229" x="87.6721" y="110.391" width="48.3789" height="61.4398" filterUnits="userSpaceOnUse" color-interpolation-filters="sRGB">
<feFlood flood-opacity="0" result="BackgroundImageFix"/>
<feColorMatrix in="SourceAlpha" type="matrix" values="0 0 0 0 0 0 0 0 0 0 0 0 0 0 0 0 0 0 127 0" result="hardAlpha"/>
<feOffset dx="2"/>
<feComposite in2="hardAlpha" operator="out"/>
<feColorMatrix type="matrix" values="0 0 0 0 0.603922 0 0 0 0 0.6 0 0 0 0 0.631373 0 0 0 1 0"/>
<feBlend mode="normal" in2="BackgroundImageFix" result="effect1_dropShadow_203_229"/>
<feBlend mode="normal" in="SourceGraphic" in2="effect1_dropShadow_203_229" result="shape"/>
</filter>
</defs>
</svg>
