<svg width="212" height="515" viewBox="0 0 212 515" fill="none" xmlns="http://www.w3.org/2000/svg">
<path d="M171.925 96.4855C177.658 103.857 205.281 181.329 205.281 181.329C174.568 171.5 189.833 167.733 173.129 170.543C173.129 170.543 147.031 115.158 146.296 111.114C145.528 107.925 145.873 104.57 147.272 101.604C148.671 98.6378 151.042 96.2386 153.991 94.8035C162.212 90.6013 166.192 89.1141 171.925 96.4855Z" fill="#002776"/>
<path d="M25.8292 95.9183C25.7155 93.4325 26.381 90.9732 27.7327 88.8839C29.8138 86.4709 31.3729 83.6532 32.3119 80.6082C33.0343 77.7816 34.1881 75.0833 35.7326 72.6083C36.8361 71.091 38.4912 69.8497 38.4912 68.6911C38.4912 67.5325 36.2843 65.2981 33.1396 65.9325C31.7925 66.3521 30.5548 67.0643 29.5152 68.0181C28.4756 68.9719 27.6596 70.1437 27.1258 71.4497C26.8245 70.654 26.6478 69.8166 26.6017 68.967L25.9121 52.0569C25.9016 51.6185 25.8034 51.1866 25.6232 50.7869C25.4431 50.3871 25.1846 50.0274 24.8632 49.7292C24.5418 49.4309 24.1639 49.2 23.7518 49.0502C23.3397 48.9004 22.9018 48.8347 22.4639 48.8569C21.7666 48.8867 21.0962 49.1342 20.547 49.5647C19.9977 49.9951 19.5972 50.5869 19.4018 51.2569V50.4845C19.2957 49.6624 18.8826 48.911 18.2453 48.3809C17.6081 47.8509 16.7939 47.5815 15.9663 47.6269C15.1387 47.6723 14.3589 48.0291 13.7834 48.6257C13.208 49.2222 12.8795 50.0144 12.864 50.8431V53.1879C12.5877 52.465 12.0608 51.8654 11.3794 51.4985C10.6981 51.1315 9.90753 51.0217 9.1519 51.1888C8.39627 51.356 7.72586 51.7891 7.26287 52.4092C6.79987 53.0293 6.57511 53.7952 6.62954 54.5672V56.0568C6.33263 55.535 5.89015 55.111 5.35616 54.8367C4.82216 54.5623 4.21979 54.4495 3.6227 54.512C2.80503 54.6158 2.0599 55.0337 1.54501 55.6773C1.03011 56.321 0.785885 57.1397 0.864117 57.9602L2.21579 72.2221C3.10128 80.2627 4.76426 88.1986 7.18129 95.9183C7.21051 97.2072 7.50913 98.4758 8.05791 99.6424C8.6067 100.809 9.3935 101.848 10.3678 102.692C11.3421 103.537 12.4823 104.168 13.7151 104.545C14.9479 104.923 16.246 105.038 17.526 104.884C18.6843 104.922 19.8374 104.711 20.9071 104.265C21.9768 103.819 22.938 103.148 23.7255 102.298C24.5131 101.447 25.1086 100.438 25.4715 99.3369C25.8345 98.2362 25.9565 97.0703 25.8292 95.9183Z" fill="#FBBEAA"/>
<path d="M25.2775 73.8501C26.3258 73.8501 26.4085 73.1881 26.8774 71.9743C24.5326 71.9743 17.719 72.4156 14.7397 78.1535C17.7466 74.0156 23.512 73.8501 25.2775 73.8501ZM19.9258 52.0297C19.9258 52.0297 20.0913 52.9953 20.2569 54.4021C20.2569 55.1194 20.4224 55.9745 20.4776 56.8572C20.5328 57.74 20.6155 58.7055 20.6982 59.6158C20.6982 61.5468 20.8361 63.4502 20.8361 64.8847C20.8361 66.3192 20.8361 67.2847 20.8361 67.2847C20.8363 67.3306 20.8269 67.376 20.8086 67.4181C20.7903 67.4602 20.7634 67.4979 20.7296 67.5291C20.6959 67.5602 20.6561 67.584 20.6127 67.5989C20.5693 67.6138 20.5233 67.6195 20.4776 67.6157C20.4 67.6118 20.3257 67.5828 20.266 67.533C20.2063 67.4833 20.1643 67.4155 20.1465 67.3399C20.1465 67.3399 19.981 66.3743 19.8431 64.9399C19.7052 63.5054 19.4845 61.602 19.4017 59.6986C19.4017 58.7331 19.4017 57.7676 19.4017 56.94C19.4017 56.1124 19.4017 55.2021 19.4017 54.4849C19.4017 53.0228 19.4017 52.0849 19.4017 52.0849C19.4016 52.039 19.4109 51.9936 19.4292 51.9515C19.4476 51.9094 19.4745 51.8716 19.5082 51.8405C19.5419 51.8093 19.5817 51.7856 19.6251 51.7707C19.6685 51.7558 19.7146 51.75 19.7603 51.7538C19.8132 51.7843 19.8567 51.8288 19.8859 51.8823C19.9151 51.9358 19.9289 51.9964 19.9258 52.0573V52.0297ZM13.5259 53.9608C13.5259 53.9608 13.6914 54.7883 13.8845 56.0021C13.8845 56.6365 14.0777 57.3537 14.1604 58.1262C14.2432 58.8986 14.3259 59.7261 14.4087 60.5537C14.4087 62.2089 14.6017 63.864 14.6293 65.1054C14.6569 66.3467 14.6293 67.2019 14.6293 67.2019C14.6259 67.2454 14.6138 67.2878 14.5939 67.3267C14.574 67.3655 14.5466 67.4001 14.5132 67.4283C14.4799 67.4565 14.4413 67.4779 14.3997 67.4911C14.3581 67.5043 14.3143 67.5092 14.2708 67.5054C14.1966 67.5002 14.1262 67.4702 14.0712 67.4201C14.0161 67.3701 13.9795 67.3029 13.9673 67.2295C13.9673 67.2295 13.8018 66.4019 13.6087 65.1881C13.4156 63.9743 13.2501 62.2916 13.1121 60.6641C13.1121 59.8365 13.1122 59.0089 12.9466 58.2365C12.7811 57.4641 12.9466 56.7193 12.9466 56.0848C12.9466 54.8435 12.9466 54.0159 12.9466 54.0159C12.9465 53.97 12.9558 53.9246 12.9742 53.8825C12.9925 53.8405 13.0194 53.8026 13.0531 53.7715C13.0869 53.7404 13.1267 53.7166 13.1701 53.7017C13.2135 53.6868 13.2595 53.6811 13.3053 53.6849C13.3665 53.7101 13.4194 53.7519 13.4584 53.8054C13.4974 53.859 13.5207 53.9223 13.5259 53.9883V53.9608ZM7.34672 56.5814C7.34672 56.5814 7.5122 57.271 7.73288 58.3193C7.73288 58.8158 7.95361 59.4227 8.03637 60.0848C8.11913 60.7469 8.22943 61.4365 8.33977 62.1261C8.53287 63.533 8.6157 64.8847 8.67087 65.9881C8.72605 67.0916 8.67087 67.7537 8.67087 67.7537C8.67103 67.7996 8.66159 67.8449 8.64326 67.887C8.62493 67.9291 8.59802 67.9669 8.56429 67.998C8.53057 68.0292 8.49076 68.0529 8.44736 68.0678C8.40396 68.0828 8.35798 68.0885 8.31224 68.0847C8.24182 68.081 8.17438 68.0549 8.1198 68.0103C8.06521 67.9656 8.02629 67.9047 8.00876 67.8364C8.00876 67.8364 7.8157 67.1468 7.6226 66.1261C7.4295 65.1054 7.15361 63.6709 6.98809 62.2916C6.98809 61.5744 6.85015 60.8848 6.79497 60.2227C6.7398 59.5606 6.79497 58.9538 6.79497 58.4296C6.79497 57.3814 6.79497 56.6641 6.79497 56.6641C6.79482 56.6182 6.80425 56.5728 6.82259 56.5308C6.84092 56.4887 6.86775 56.4508 6.90147 56.4197C6.93519 56.3886 6.97508 56.3648 7.01849 56.3499C7.06189 56.335 7.10787 56.3293 7.1536 56.3331C7.20453 56.3615 7.24837 56.4011 7.28182 56.4488C7.31526 56.4966 7.33745 56.5514 7.34672 56.609V56.5814Z" fill="#F18380"/>
<path d="M92.569 93.8299L32.4472 134.379C32.7001 136.453 27.8279 93.8299 27.8279 93.8299L5.57471 95.907C5.57471 95.907 6.87477 139.303 10.1496 162.221C11.4492 171.316 19.0197 174.765 27.9963 172.807C32.4283 171.84 36.6006 170.021 40.3136 167.415C56.2683 156.216 101.029 124.674 104.688 120.705C111.002 113.86 111.002 108.731 107.374 103.095C103.745 97.4585 95.9799 92.9832 92.569 93.8299Z" fill="#001A4B"/>
<path d="M143.629 324.574C143.709 331.071 141.205 337.334 136.668 341.985C132.13 346.636 125.931 349.294 119.434 349.374C112.936 349.454 106.673 346.95 102.022 342.412C97.3715 337.875 94.7135 331.676 94.6333 325.178C94.6333 325.178 91.5333 234.748 90.4747 216.425C89.4162 198.102 94.2048 183.409 114.821 181.291C136.194 179.099 147.586 195.809 147.586 211.334C147.586 226.859 143.629 324.574 143.629 324.574Z" fill="#7C7C7C"/>
<path d="M183.829 322.835C184.249 326.046 184.028 329.309 183.179 332.434C182.33 335.559 180.87 338.486 178.883 341.043C176.896 343.6 174.422 345.738 171.603 347.333C168.784 348.928 165.678 349.949 162.462 350.335C159.247 350.722 155.986 350.467 152.87 349.585C149.754 348.704 146.843 347.213 144.307 345.199C141.77 343.186 139.658 340.689 138.092 337.854C136.527 335.019 135.539 331.901 135.186 328.682C135.186 328.682 122.433 239.109 119.409 221.012C116.385 202.916 119.585 187.769 139.849 183.459C160.869 178.998 174 194.398 175.588 209.822C177.175 225.247 183.829 322.835 183.829 322.835Z" fill="#7C7C7C"/>
<path d="M103.404 431.134C103.404 431.134 104.614 482.524 104.916 490.211C105.219 497.898 110.083 499.99 117.921 500.671C125.76 501.351 129.061 495.126 130.17 490.186C131.279 485.246 137.983 434.864 137.983 434.864L103.404 431.134Z" fill="#FBBEAA"/>
<path d="M104.286 466.973L133.195 470.073C135.438 454.17 137.983 434.788 137.983 434.788L103.404 431.058C103.404 431.058 103.858 450.314 104.286 466.973Z" fill="#F18380"/>
<path d="M143.629 324.574C143.59 321.357 142.917 318.179 141.649 315.222C140.381 312.265 138.543 309.586 136.24 307.34C133.937 305.093 131.214 303.322 128.227 302.127C125.24 300.933 122.046 300.339 118.829 300.378C115.612 300.418 112.434 301.091 109.477 302.359C106.52 303.627 103.842 305.465 101.595 307.767C99.3484 310.07 97.5772 312.793 96.3828 315.781C95.1883 318.768 94.594 321.962 94.6337 325.179L99.6744 468.417L139.219 472.676L143.629 324.574Z" fill="#7C7C7C"/>
<path d="M155.147 433.1C155.147 433.1 161.851 484.062 162.96 491.648C164.069 499.234 169.135 500.847 177.024 500.671C184.913 500.494 187.509 493.967 188.088 488.951C188.668 483.936 189.928 433.1 189.928 433.1H155.147Z" fill="#FBBEAA"/>
<path d="M159.986 468.637H189.071C189.575 452.608 190.054 433.1 190.054 433.1H155.147C155.147 433.1 157.668 452.104 159.986 468.637Z" fill="#F18380"/>
<path d="M183.829 322.835C182.992 316.436 179.665 310.627 174.569 306.667C169.473 302.708 163.021 300.919 156.615 301.69C150.208 302.46 144.364 305.727 140.352 310.781C136.339 315.835 134.483 322.267 135.186 328.682L157.113 473.458H196.884L183.829 322.835Z" fill="#7C7C7C"/>
<path d="M135.211 328.682L157.819 472.197" stroke="#565656" stroke-width="0.75" stroke-miterlimit="10" stroke-linecap="round"/>
<path d="M135.187 328.682C135.187 328.682 122.434 239.109 119.409 221.012" stroke="#565656" stroke-width="0.75" stroke-miterlimit="10" stroke-linecap="round"/>
<path d="M174.377 474.61C171.519 474.405 168.684 475.257 166.412 477.004C164.14 478.751 162.589 481.271 162.053 484.087L148.897 497.57V505.963H191.062C191.062 505.963 188.945 490.841 188.34 487.439C187.735 484.036 185.694 474.61 174.377 474.61Z" fill="#FBBEAA"/>
<path d="M162.079 483.986C161.6 483.331 160.919 482.827 160.44 483.129C159.961 483.431 147.234 493.513 146.629 494.017C146.256 494.367 145.974 494.802 145.808 495.285C145.641 495.768 145.594 496.284 145.671 496.789V507.602H191.995C191.995 507.602 190.18 491.623 190.054 490.741C189.928 489.858 189.046 488.699 188.542 488.724C185.363 489.698 182.063 490.224 178.738 490.287C174.319 490.521 169.911 489.655 165.909 487.767C164.426 486.735 163.13 485.456 162.079 483.986Z" fill="black"/>
<path d="M153.282 498.528C155.525 496.864 163.59 490.564 166.615 488.194L165.909 487.842C165.814 487.801 165.728 487.741 165.657 487.665C162.431 490.186 154.845 496.134 152.677 497.747C150.845 499.151 149.59 501.177 149.149 503.443L150.132 503.594C150.547 501.585 151.664 499.789 153.282 498.528Z" fill="white"/>
<path d="M190.735 496.588C187.47 496.621 184.311 497.748 181.763 499.788C179.459 501.829 177.899 504.578 177.327 507.601H178.688C179.244 504.981 180.622 502.606 182.619 500.822C184.965 498.943 187.881 497.921 190.886 497.923L190.735 496.588Z" fill="white"/>
<path d="M138.185 507.577H191.995C192.371 507.577 192.675 507.881 192.675 508.257V513.474C192.675 513.85 192.371 514.155 191.995 514.155H138.185C137.809 514.155 137.505 513.85 137.505 513.474V508.257C137.505 507.881 137.809 507.577 138.185 507.577Z" fill="white"/>
<path d="M146.755 493.916C146.276 493.714 143.932 494.395 140.882 497.394C139.612 498.706 138.698 500.321 138.226 502.085C137.755 503.849 137.74 505.704 138.185 507.475H153.484C152.627 497.797 147.233 494.117 146.755 493.916Z" fill="white"/>
<path d="M152.627 494.067C152.815 494.299 152.906 494.595 152.877 494.892C152.849 495.19 152.704 495.464 152.475 495.655C152.363 495.748 152.233 495.818 152.094 495.86C151.954 495.903 151.808 495.918 151.663 495.904C151.518 495.89 151.377 495.847 151.248 495.778C151.119 495.71 151.005 495.617 150.913 495.504L148.392 492.454C148.203 492.223 148.113 491.927 148.142 491.629C148.17 491.332 148.314 491.058 148.544 490.866C148.655 490.77 148.784 490.698 148.924 490.653C149.064 490.609 149.211 490.593 149.357 490.607C149.503 490.621 149.645 490.665 149.774 490.735C149.903 490.806 150.016 490.902 150.106 491.018L152.627 494.067Z" fill="white"/>
<path d="M155.626 491.773C155.814 492.005 155.905 492.301 155.876 492.598C155.848 492.896 155.704 493.17 155.474 493.361C155.363 493.457 155.234 493.53 155.094 493.574C154.954 493.619 154.807 493.635 154.661 493.621C154.515 493.606 154.373 493.563 154.244 493.492C154.115 493.422 154.002 493.326 153.912 493.21L151.391 490.16C151.209 489.927 151.122 489.632 151.151 489.336C151.179 489.041 151.319 488.768 151.543 488.573C151.654 488.476 151.783 488.404 151.923 488.359C152.063 488.315 152.21 488.299 152.356 488.313C152.502 488.327 152.644 488.371 152.773 488.442C152.902 488.512 153.015 488.608 153.105 488.724L155.626 491.773Z" fill="white"/>
<path d="M158.524 489.505C158.714 489.729 158.808 490.02 158.784 490.313C158.761 490.606 158.622 490.877 158.398 491.068C158.167 491.257 157.87 491.347 157.573 491.319C157.276 491.29 157.002 491.146 156.81 490.917L154.29 487.867C154.184 487.764 154.1 487.64 154.042 487.504C153.985 487.368 153.955 487.221 153.955 487.073C153.955 486.925 153.985 486.779 154.042 486.643C154.1 486.506 154.184 486.383 154.29 486.279C154.524 486.097 154.819 486.01 155.114 486.039C155.409 486.067 155.683 486.207 155.878 486.431L158.524 489.505Z" fill="white"/>
<path d="M161.448 487.212C161.54 487.325 161.61 487.454 161.653 487.594C161.695 487.733 161.71 487.88 161.696 488.025C161.682 488.17 161.639 488.311 161.571 488.44C161.502 488.568 161.409 488.682 161.296 488.775C161.084 488.983 160.799 489.099 160.502 489.099C160.206 489.099 159.92 488.983 159.708 488.775L157.188 485.7C156.999 485.469 156.909 485.172 156.937 484.875C156.966 484.578 157.11 484.304 157.339 484.112C157.452 484.019 157.582 483.95 157.721 483.907C157.86 483.864 158.007 483.85 158.152 483.864C158.297 483.878 158.438 483.92 158.567 483.989C158.695 484.057 158.809 484.151 158.902 484.263L161.448 487.212Z" fill="white"/>
<path d="M115.149 474.61C112.291 474.405 109.456 475.257 107.184 477.004C104.912 478.751 103.361 481.271 102.825 484.087L89.6937 497.57V505.963H131.834C131.834 505.963 129.742 490.841 129.112 487.439C128.482 484.036 126.466 474.61 115.149 474.61Z" fill="#FBBEAA"/>
<path d="M102.85 483.986C102.371 483.331 101.715 482.827 101.211 483.129C100.707 483.431 88.0047 493.513 87.425 494.017C86.8453 494.521 86.442 495.151 86.442 496.789V507.602H132.766C132.766 507.602 130.951 491.623 130.825 490.741C130.699 489.858 129.817 488.699 129.313 488.724C126.134 489.698 122.834 490.224 119.509 490.287C115.098 490.525 110.697 489.659 106.706 487.767C105.21 486.74 103.905 485.461 102.85 483.986Z" fill="black"/>
<path d="M94.0541 498.528C96.2972 496.864 104.362 490.564 107.387 488.194L106.706 487.842C106.603 487.801 106.509 487.741 106.429 487.665C103.203 490.186 95.6167 496.134 93.4492 497.747C91.6169 499.151 90.3618 501.177 89.9207 503.443L90.9037 503.594C91.3316 501.59 92.4459 499.798 94.0541 498.528Z" fill="white"/>
<path d="M131.507 496.588C128.242 496.621 125.083 497.748 122.535 499.788C120.231 501.829 118.671 504.578 118.099 507.601H119.46C120.023 504.978 121.409 502.603 123.417 500.822C125.751 498.94 128.66 497.916 131.658 497.923L131.507 496.588Z" fill="white"/>
<path d="M78.9572 507.577H132.767C133.143 507.577 133.447 507.881 133.447 508.257V513.474C133.447 513.85 133.143 514.155 132.767 514.155H78.9572C78.5814 514.155 78.2767 513.85 78.2767 513.474V508.257C78.2767 507.881 78.5814 507.577 78.9572 507.577Z" fill="white"/>
<path d="M87.5261 493.916C87.0472 493.714 84.7032 494.395 81.6536 497.394C80.3839 498.706 79.4698 500.321 78.998 502.085C78.5261 503.849 78.5119 505.704 78.9568 507.475H94.2554C93.3985 497.797 88.0049 494.117 87.5261 493.916Z" fill="white"/>
<path d="M93.4996 494.067C93.6885 494.299 93.7786 494.595 93.7503 494.892C93.7219 495.19 93.5775 495.464 93.3484 495.655C93.2359 495.748 93.1062 495.818 92.9667 495.86C92.8273 495.903 92.6808 495.918 92.5357 495.904C92.3905 495.89 92.2496 495.847 92.1209 495.778C91.9922 495.71 91.8783 495.617 91.7857 495.504L89.2653 492.454C89.0826 492.221 88.9964 491.926 89.0245 491.63C89.0527 491.335 89.193 491.061 89.4166 490.866C89.5276 490.77 89.6569 490.698 89.7968 490.653C89.9367 490.609 90.0842 490.593 90.2303 490.607C90.3764 490.621 90.5182 490.665 90.6469 490.735C90.7756 490.806 90.8887 490.902 90.9792 491.018L93.4996 494.067Z" fill="white"/>
<path d="M96.3975 491.774C96.5864 492.005 96.6765 492.301 96.6482 492.599C96.6199 492.896 96.4755 493.17 96.2463 493.361C96.1353 493.458 96.0059 493.53 95.8661 493.575C95.7262 493.619 95.5787 493.635 95.4326 493.621C95.2864 493.607 95.1447 493.563 95.016 493.492C94.8873 493.422 94.7742 493.326 94.6837 493.21L92.1634 490.161C91.9806 489.927 91.8944 489.632 91.9225 489.337C91.9507 489.041 92.091 488.768 92.3146 488.573C92.5459 488.384 92.8423 488.294 93.1396 488.322C93.4368 488.35 93.711 488.495 93.9024 488.724L96.3975 491.774Z" fill="white"/>
<path d="M99.2962 489.505C99.4014 489.606 99.4851 489.728 99.5422 489.862C99.5994 489.996 99.6289 490.141 99.6289 490.287C99.6289 490.433 99.5994 490.577 99.5422 490.711C99.4851 490.845 99.4014 490.967 99.2962 491.068C99.0649 491.257 98.7685 491.347 98.4712 491.319C98.1739 491.29 97.8998 491.146 97.7083 490.917L95.188 487.867C94.9991 487.636 94.909 487.339 94.9373 487.042C94.9656 486.745 95.11 486.471 95.3392 486.279C95.4517 486.186 95.5814 486.117 95.7209 486.074C95.8603 486.031 96.0067 486.017 96.1519 486.031C96.297 486.045 96.438 486.087 96.5667 486.156C96.6954 486.225 96.8093 486.318 96.9019 486.431L99.2962 489.505Z" fill="white"/>
<path d="M102.219 487.212C102.312 487.325 102.382 487.454 102.425 487.594C102.467 487.733 102.482 487.88 102.468 488.025C102.454 488.17 102.411 488.311 102.343 488.44C102.274 488.568 102.181 488.682 102.068 488.775C101.856 488.983 101.571 489.099 101.274 489.099C100.977 489.099 100.692 488.983 100.48 488.775L97.9601 485.7C97.7712 485.469 97.6811 485.172 97.7094 484.875C97.7377 484.578 97.8821 484.304 98.1113 484.112C98.2238 484.019 98.3534 483.95 98.4929 483.907C98.6323 483.864 98.7788 483.85 98.924 483.864C99.0691 483.878 99.2101 483.92 99.3388 483.989C99.4675 484.057 99.5813 484.151 99.6739 484.263L102.219 487.212Z" fill="white"/>
<path d="M91.216 196.823C91.216 196.823 91.216 222.96 91.216 224.396C91.216 225.833 103.818 238.157 120.553 238.157C146.286 238.157 177.084 228.756 176.631 222.632C176.328 218.599 174.34 196.823 174.34 196.823H91.216Z" fill="#7C7C7C"/>
<path d="M111.273 60.0438H141.618V95.732H111.273V60.0438Z" fill="#FBBEAA"/>
<path d="M109.931 86.5833C124.045 98.681 138.075 91.624 142.696 85.3231L162.859 94.1444L157.818 187.397L91.0288 189.918L93.5492 100.445L109.931 86.5833Z" fill="white"/>
<path d="M141.542 60.0438H111.298V79.9546C112.619 80.1187 113.948 80.2029 115.28 80.2067C125.714 80.2067 137.383 77.3587 141.643 67.4033L141.542 60.0438Z" fill="#F18380"/>
<path d="M91.1345 94.6232C93.8313 92.8589 111.297 82.7775 111.297 82.7775V215.701C109.361 217.587 108.965 217.543 106.185 217.228L106.055 217.213C100.044 215.704 94.2446 213.452 88.7906 210.509C88.7906 210.509 86.4719 113.828 85.8922 106.469C85.3125 99.1094 88.4377 96.3874 91.1345 94.6232Z" fill="#002776"/>
<path d="M138.25 217.181C137.025 216.921 135.864 216.418 134.837 215.701L141.693 81.4165C141.693 81.4165 161.478 89.4564 166.745 91.8004C168.935 92.7239 170.812 94.2584 172.153 96.2205C173.494 98.1825 174.241 100.489 174.306 102.865C174.634 107.301 175.087 205.62 175.163 206.476C175.239 207.333 174.508 207.812 173.726 208.266C172.945 208.72 148.246 215.928 141.97 217.213C140.74 217.452 139.476 217.441 138.25 217.181Z" fill="#002776"/>
<path d="M95.5959 33.5555C95.8479 43.8637 95.5959 52.0045 97.461 59.868C99.326 67.7315 105.022 74.1584 117.624 74.1584C130.226 74.1584 144.592 70.0502 145.6 54.298C147.666 52.0549 151.018 44.0653 151.144 35.1181C151.27 26.1708 150.565 7.24296 130.175 4.34456C109.785 1.44615 95.0414 8.93159 95.5959 33.5555Z" fill="#FBBEAA"/>
<path d="M106.257 41.6711C106.257 43.0573 105.425 44.1915 104.392 44.1915C103.358 44.1915 102.527 43.0573 102.527 41.6711C102.527 40.2849 103.358 39.1508 104.392 39.1508C105.425 39.1508 106.257 40.1841 106.257 41.6711Z" fill="#403D4F"/>
<path d="M128.94 41.6711C128.94 43.0573 128.108 44.1915 127.075 44.1915C126.042 44.1915 125.21 43.0573 125.21 41.6711C125.21 40.2849 126.042 39.1508 127.075 39.1508C128.108 39.1508 128.94 40.1841 128.94 41.6711Z" fill="#403D4F"/>
<path d="M124.378 36.4281C124.554 36.655 125.89 36.4281 126.898 36.4281C127.907 36.4281 129.847 36.4281 129.847 36.2013C129.847 35.9745 128.889 34.4119 126.369 34.6891C124.554 34.8907 123.899 36.0249 124.378 36.4281Z" fill="#403D4F"/>
<path d="M106.685 36.4282C106.534 36.6551 105.4 36.4282 104.518 36.4282C103.636 36.4282 101.998 36.4282 101.998 36.2014C102.224 35.6302 102.651 35.1612 103.199 34.8828C103.746 34.6043 104.377 34.5355 104.972 34.6892C106.534 34.8908 106.963 36.025 106.685 36.4282Z" fill="#403D4F"/>
<path d="M114.121 52.1049C112.356 52.1049 110.945 50.9456 110.895 50.1139L111.474 43.0065C111.493 42.8303 111.58 42.6686 111.717 42.5557C111.853 42.4427 112.029 42.3874 112.205 42.4016C112.291 42.408 112.375 42.4313 112.452 42.4703C112.53 42.5092 112.598 42.5631 112.654 42.6286C112.711 42.6942 112.753 42.7703 112.78 42.8524C112.807 42.9346 112.817 43.0212 112.81 43.1073L112.256 49.9627C112.51 50.2389 112.824 50.4547 113.172 50.5942C113.521 50.7337 113.897 50.7935 114.272 50.7692C114.36 50.7623 114.449 50.7734 114.532 50.8016C114.616 50.8299 114.693 50.8748 114.759 50.9337C114.825 50.9925 114.878 51.0641 114.916 51.1441C114.953 51.2241 114.974 51.3109 114.978 51.3993C114.978 51.578 114.911 51.7503 114.789 51.8813C114.667 52.0122 114.501 52.0922 114.322 52.1049H114.121Z" fill="#F18380"/>
<path d="M140.136 38.243C140.136 48.4128 145.176 44.6323 145.176 44.6323C146.437 40.8517 148.632 42.4774 151.518 42.4774C154.404 42.4774 154.033 40.3756 156.919 33.4446C159.228 27.8998 156.566 19.0894 154.835 16.9568C157.705 13.1965 153.812 10.9563 153.947 11.5263C154.835 15.2841 151.758 11.5074 150.217 10.0259C133.761 -5.79805 92.2896 2.15171 92.2896 2.15171L96.5971 7.6024L85.9888 4.67211C85.9888 4.67211 86.681 10.4121 88.5091 13.4934C90.0316 16.0595 93.7112 19.0894 93.7112 19.0894L82.1676 20.1557C82.1676 20.1557 89.6709 28.153 100.06 29.2193C111.76 30.4202 124.302 24.9541 124.302 24.9541L119.684 30.2856C119.684 30.2856 131.355 27.9053 135.136 29.8756C137.554 31.1358 140.136 33.6966 140.136 38.243Z" fill="#7D4A40"/>
<path d="M145.045 46.4598C145.171 43.5866 145.625 39.3524 149.708 39.2516C153.791 39.1507 154.32 42.2256 154.194 47.0646C154.068 51.9037 149.154 56.0119 144.844 54.3485L145.045 46.4598Z" fill="#FBBEAA"/>
<path d="M151.044 49.9373C150.867 49.9064 150.709 49.8071 150.606 49.6607C150.502 49.5144 150.46 49.333 150.489 49.156C150.489 49.0137 150.449 48.8744 150.373 48.754C150.297 48.6337 150.189 48.5371 150.061 48.4755C149.803 48.3032 149.501 48.2112 149.191 48.2112C148.882 48.2112 148.579 48.3032 148.322 48.4755C148.21 48.5372 148.084 48.5696 147.956 48.5696C147.828 48.5696 147.703 48.5372 147.591 48.4755C147.488 48.4076 147.406 48.3132 147.352 48.2022C147.299 48.0913 147.277 47.9679 147.288 47.8454C147.641 43.7876 150.237 43.0315 150.338 43.0063C150.424 42.9797 150.515 42.9712 150.604 42.9812C150.694 42.9913 150.78 43.0196 150.858 43.0646C150.936 43.1095 151.004 43.17 151.058 43.2424C151.111 43.3148 151.149 43.3974 151.17 43.4852C151.216 43.6523 151.195 43.831 151.11 43.9822C151.024 44.1334 150.883 44.2447 150.716 44.2917C150.212 44.5196 149.774 44.8694 149.439 45.3094C149.105 45.7495 148.885 46.2659 148.801 46.812C149.491 46.6995 150.199 46.8429 150.792 47.2153C151.137 47.4177 151.416 47.716 151.595 48.0739C151.774 48.4318 151.845 48.834 151.8 49.2316C151.804 49.3298 151.787 49.4277 151.75 49.5187C151.713 49.6096 151.656 49.6915 151.584 49.7585C151.512 49.8256 151.427 49.8763 151.334 49.9072C151.24 49.938 151.141 49.9483 151.044 49.9373Z" fill="#F18380"/>
<path d="M115.859 61.1786C118.292 61.0847 120.629 60.1998 122.513 58.6582" stroke="#73102A" stroke-width="0.5" stroke-miterlimit="10" stroke-linecap="round"/>
<path d="M115.773 56.718C119.302 55.5587 123.334 54.1977 124.721 55.8359C125.804 56.9449 124.343 62.162 118.924 63.0693C113.505 63.9766 111.564 60.2465 111.842 58.8099C112.018 57.9278 113.001 57.6506 115.773 56.718Z" fill="#73102A"/>
<path d="M124.595 55.7607H124.721C125.804 56.8697 124.343 62.0868 118.924 62.9942C117.747 63.2675 116.522 63.2675 115.345 62.9942C116.258 61.1808 117.56 59.5919 119.16 58.3414C120.759 57.0908 122.615 56.2095 124.595 55.7607Z" fill="#D65155"/>
<path d="M123.335 55.2057C121.907 56.7574 120.094 57.9035 118.08 58.5277C116.066 59.1518 113.922 59.2318 111.867 58.7593C112.069 57.9024 113.077 57.6252 115.774 56.7179C118.167 55.7118 120.739 55.1975 123.335 55.2057Z" fill="white"/>
<g filter="url(#filter0_d_203_579)">
<rect width="45.5639" height="64.9286" rx="1" transform="matrix(-0.993463 -0.114154 -0.114154 0.993463 148.197 128.049)" fill="#EFEFEF"/>
</g>
<path d="M129.007 154.36C125.779 152.996 122.859 150.974 120.434 148.423C118.933 146.848 117.231 145.481 115.373 144.358C114.284 143.677 113.343 142.779 112.611 141.718C111.644 140.074 110.844 138.338 110.222 136.535C109.992 134.984 109.464 133.488 108.668 132.133C107.911 131.439 105.24 131.81 103.854 134.505C103.376 135.706 103.159 136.998 103.218 138.296C103.278 139.593 103.612 140.867 104.198 142.03C104.888 143.426 105.428 144.89 105.81 146.398L105.558 146.549C103.446 145.427 101.188 144.614 98.8538 144.133C98.0073 143.944 97.1255 144.046 96.3505 144.423C95.5755 144.801 94.9524 145.431 94.5817 146.213C94.2109 146.995 94.1141 147.883 94.3068 148.734C94.4995 149.585 94.9705 150.35 95.6439 150.904C92.0017 151.323 92.4152 156.94 95.5419 157.683C94.8724 157.964 94.3072 158.446 93.9228 159.064C93.5384 159.682 93.3533 160.407 93.3926 161.139C93.4319 161.872 93.6936 162.577 94.1424 163.16C94.5912 163.743 95.2054 164.176 95.902 164.399C93.6811 166.446 95.3045 169.821 99.3371 169.836C102.614 170.169 111.376 171.541 114.425 172.197C117.474 172.853 123.601 171.402 125.57 172.011C128.5 173.084 131.903 173.102 134.499 165.392C137.095 157.682 132.023 155.356 129.007 154.36Z" fill="#FBBEAA"/>
<path d="M123.238 175.045L182.26 198.807C189.802 202.599 202.056 200.654 205.75 191.832C206.427 190.187 206.762 188.422 206.736 186.644C206.71 184.865 206.322 183.111 205.598 181.487C204.873 179.863 203.826 178.403 202.52 177.195C201.214 175.988 199.677 175.058 198.001 174.463L128.247 149.234L123.238 175.045Z" fill="#002776"/>
<defs>
<filter id="filter0_d_203_579" x="95.627" y="122.955" width="54.4629" height="69.4904" filterUnits="userSpaceOnUse" color-interpolation-filters="sRGB">
<feFlood flood-opacity="0" result="BackgroundImageFix"/>
<feColorMatrix in="SourceAlpha" type="matrix" values="0 0 0 0 0 0 0 0 0 0 0 0 0 0 0 0 0 0 127 0" result="hardAlpha"/>
<feOffset dx="2"/>
<feComposite in2="hardAlpha" operator="out"/>
<feColorMatrix type="matrix" values="0 0 0 0 0.603922 0 0 0 0 0.6 0 0 0 0 0.631373 0 0 0 1 0"/>
<feBlend mode="normal" in2="BackgroundImageFix" result="effect1_dropShadow_203_579"/>
<feBlend mode="normal" in="SourceGraphic" in2="effect1_dropShadow_203_579" result="shape"/>
</filter>
</defs>
</svg>
