<svg width="209" height="515" viewBox="0 0 209 515" fill="none" xmlns="http://www.w3.org/2000/svg">
<path d="M109.874 68.2347H139.928V103.581H109.874V68.2347Z" fill="#FBBEAA"/>
<path d="M139.812 68.2347H109.88V87.9547C111.187 88.1172 112.503 88.2006 113.821 88.2043C124.147 88.2043 135.696 85.3836 139.912 75.5236L139.812 68.2347Z" fill="#F18380"/>
<path d="M94.3456 41.9998C94.5702 52.2093 94.3455 60.272 96.1678 68.0601C97.99 75.8483 103.656 82.2135 116.137 82.2135C128.618 82.2135 142.847 78.1447 143.845 62.5435C145.892 60.3219 149.212 52.409 149.337 43.5475C149.462 34.686 148.788 15.9395 128.568 13.0689C108.349 10.1983 93.7714 17.612 94.3456 41.9998Z" fill="#FBBEAA"/>
<path d="M104.882 50.0373C104.882 51.4102 104.058 52.5335 103.035 52.5335C102.011 52.5335 101.187 51.4102 101.187 50.0373C101.187 48.6644 102.011 47.5411 103.035 47.5411C104.058 47.5411 104.882 48.5646 104.882 50.0373Z" fill="#403D4F"/>
<path d="M127.345 50.0373C127.345 51.4102 126.521 52.5335 125.498 52.5335C124.475 52.5335 123.651 51.4102 123.651 50.0373C123.651 48.6644 124.5 47.5411 125.498 47.5411C126.496 47.5411 127.345 48.5646 127.345 50.0373Z" fill="#403D4F"/>
<path d="M122.729 42.1994C122.929 42.424 124.227 42.1994 125.225 42.1994C126.224 42.1994 128.146 42.1994 128.146 41.9747C128.146 41.7501 127.197 40.2024 124.701 40.477C123.004 40.6767 122.505 41.8 122.729 42.1994Z" fill="#403D4F"/>
<path d="M105.256 42.1994C105.106 42.424 103.983 42.1994 103.109 42.1994C102.236 42.1994 100.613 42.1994 100.613 41.9747C100.613 41.7501 101.412 40.2024 103.534 40.477C105.256 40.6767 105.581 41.8 105.256 42.1994Z" fill="#403D4F"/>
<path d="M112.743 60.3717C110.995 60.3717 109.597 59.2234 109.547 58.3997L110.122 51.3604C110.141 51.186 110.227 51.0258 110.362 50.9139C110.497 50.802 110.671 50.7473 110.846 50.7613C110.931 50.7676 111.014 50.7907 111.09 50.8293C111.167 50.8679 111.235 50.9212 111.29 50.9862C111.346 51.0511 111.388 51.1265 111.415 51.2078C111.441 51.2892 111.451 51.375 111.445 51.4602L110.895 58.2499C111.148 58.5235 111.458 58.7372 111.803 58.8754C112.149 59.0136 112.521 59.0728 112.892 59.0487C112.98 59.0419 113.067 59.0528 113.15 59.0808C113.233 59.1088 113.31 59.1533 113.375 59.2116C113.44 59.2699 113.493 59.3408 113.53 59.4201C113.567 59.4993 113.588 59.5853 113.591 59.6727C113.595 59.7613 113.581 59.8496 113.55 59.9326C113.519 60.0157 113.472 60.0918 113.412 60.1568C113.351 60.2217 113.279 60.2741 113.198 60.3109C113.118 60.3478 113.031 60.3685 112.942 60.3717H112.743Z" fill="#F18380"/>
<path d="M114.167 65.3633C112.07 65.4882 108.551 66.6614 108.526 67.585C108.559 69.2998 109.266 70.9326 110.495 72.1289C111.724 73.3253 113.376 73.9887 115.091 73.9752C122.779 73.9752 122.754 68.0343 122.43 66.7363C122.105 65.4382 118.061 65.1137 114.167 65.3633Z" fill="#73102A"/>
<path d="M122.453 68.8086C120.373 68.0554 118.105 68.0013 115.992 68.6546C113.879 69.3078 112.037 70.6327 110.745 72.4281C111.939 73.4863 113.495 74.041 115.089 73.9757C120.531 73.9757 122.103 71.0302 122.453 68.8086Z" fill="#D65155"/>
<path d="M122.127 66.2875C121.054 65.3639 117.534 65.1392 114.165 65.3639C112.093 65.4887 108.598 66.637 108.523 67.5855C113.097 68.2339 117.759 67.789 122.127 66.2875Z" fill="white"/>
<path d="M131.266 32.9633C131.266 39.1039 133.762 41.7749 135.634 42.9481C137.506 44.1213 138.879 45.2945 138.879 47.4163V54.9049C138.879 55.7536 139.378 56.4026 140.027 56.1779C140.676 55.9533 143.098 54.7301 143.098 53.507L150.586 48.2151C152.534 43.6013 153.256 38.5625 152.683 33.5873C152.46 30.7977 151.638 28.0891 150.272 25.6465C148.907 23.2038 147.03 21.0847 144.77 19.4339C144.77 14.117 139.778 4.65641 129.269 0.912109C129.012 2.83394 129.012 4.78145 129.269 6.70329C124.501 2.38487 108.45 1.06188 102.684 3.05884C103.53 4.9502 104.753 6.64899 106.279 8.05124C98.4023 9.87021 91.3937 14.3486 86.4339 20.7319C88.014 22.7924 90.0134 24.494 92.2999 25.7243C89.6768 29.3327 88.1199 33.6054 87.8068 38.0555C92.5459 37.6168 97.1915 36.4638 101.586 34.6357C101.34 36.8295 101.467 39.049 101.96 41.2007C106.953 40.9012 116.388 35.8089 119.059 31.7152C118.641 35.0494 118.827 38.4317 119.608 41.7C124.249 39.9613 128.294 36.9294 131.266 32.9633Z" fill="#403D4F"/>
<path d="M143.323 54.7802C143.323 51.9345 143.897 47.7409 147.916 47.6411C151.935 47.5412 152.484 50.5866 152.359 55.3793C152.235 60.172 147.367 64.2408 143.099 62.5933L143.323 54.7802Z" fill="#FBBEAA"/>
<path d="M149.239 58.2247C149.067 58.1885 148.915 58.0887 148.813 57.9452C148.711 57.8018 148.668 57.6253 148.69 57.4509C148.69 57.3131 148.652 57.1781 148.582 57.0596C148.512 56.9411 148.411 56.8435 148.291 56.7769C148.031 56.6072 147.727 56.5168 147.417 56.5168C147.107 56.5168 146.803 56.6072 146.543 56.7769C146.437 56.8382 146.317 56.8705 146.194 56.8705C146.071 56.8705 145.951 56.8382 145.844 56.7769C145.736 56.7151 145.648 56.6233 145.59 56.5126C145.533 56.402 145.508 56.277 145.52 56.1528C145.894 52.134 148.44 51.3851 148.54 51.3601C148.626 51.3338 148.715 51.3254 148.804 51.3353C148.893 51.3453 148.978 51.3734 149.056 51.4179C149.133 51.4624 149.2 51.5223 149.253 51.594C149.306 51.6657 149.344 51.7475 149.364 51.8344C149.41 51.9999 149.389 52.1769 149.305 52.3267C149.22 52.4764 149.08 52.5866 148.915 52.6332C148.419 52.8626 147.986 53.2101 147.656 53.6453C147.325 54.0804 147.106 54.59 147.018 55.1294C147.702 55.018 148.403 55.16 148.99 55.5288C149.336 55.7244 149.616 56.0189 149.794 56.3747C149.972 56.7305 150.04 57.1313 149.988 57.5258C149.997 57.6242 149.983 57.7233 149.948 57.8156C149.913 57.9078 149.857 57.9909 149.785 58.0583C149.712 58.1257 149.626 58.1757 149.531 58.2046C149.437 58.2334 149.337 58.2403 149.239 58.2247Z" fill="#F18380"/>
<path d="M169.79 102.429C175.452 109.708 202.732 186.218 202.732 186.218C172.4 176.512 187.475 172.792 170.979 175.567C170.979 175.567 145.205 120.87 144.479 116.875C143.721 113.726 144.061 110.413 145.443 107.483C146.825 104.554 149.166 102.185 152.079 100.768C160.197 96.6174 164.128 95.1487 169.79 102.429Z" fill="#002776"/>
<path d="M25.5084 101.869C25.3961 99.4136 26.0533 96.9849 27.3882 94.9216C29.4435 92.5385 30.9833 89.7558 31.9106 86.7486C32.624 83.9571 33.7635 81.2922 35.2889 78.848C36.3786 77.3496 38.0132 76.1237 38.0132 74.9795C38.0132 73.8352 35.8337 71.6285 32.728 72.2551C31.3977 72.6695 30.1754 73.3729 29.1486 74.3148C28.1219 75.2568 27.3161 76.414 26.7889 77.7038C26.4913 76.918 26.3168 76.091 26.2713 75.2519L25.5902 58.5517C25.5799 58.1188 25.4829 57.6923 25.305 57.2975C25.1271 56.9027 24.8718 56.5475 24.5544 56.2529C24.237 55.9583 23.8638 55.7303 23.4568 55.5824C23.0498 55.4344 22.6173 55.3695 22.1848 55.3915C21.4963 55.4209 20.8342 55.6653 20.2917 56.0905C19.7493 56.5156 19.3538 57.1001 19.1608 57.7617V56.9988C19.056 56.187 18.648 55.4449 18.0187 54.9214C17.3894 54.398 16.5853 54.1319 15.7679 54.1767C14.9506 54.2216 14.1805 54.574 13.6122 55.1631C13.0439 55.7523 12.7195 56.5346 12.7041 57.353V59.6687C12.4313 58.9548 11.9109 58.3627 11.238 58.0003C10.5651 57.6379 9.78439 57.5294 9.03815 57.6945C8.2919 57.8596 7.62981 58.2873 7.17257 58.8997C6.71532 59.5121 6.49334 60.2685 6.5471 61.0309V62.502C6.25388 61.9867 5.81689 61.568 5.28953 61.297C4.76216 61.0261 4.16727 60.9146 3.57759 60.9763C2.77007 61.0788 2.0342 61.4916 1.5257 62.1273C1.0172 62.7629 0.775997 63.5714 0.85326 64.3818L2.18816 78.4666C3.06264 86.4074 4.70498 94.2447 7.092 101.869C7.12086 103.142 7.41577 104.394 7.95774 105.546C8.49971 106.699 9.27675 107.725 10.2389 108.559C11.2011 109.392 12.3272 110.016 13.5447 110.388C14.7622 110.761 16.0441 110.875 17.3082 110.723C18.4522 110.761 19.591 110.553 20.6474 110.112C21.7038 109.671 22.6531 109.009 23.4308 108.169C24.2086 107.329 24.7967 106.332 25.1552 105.245C25.5136 104.158 25.6341 103.006 25.5084 101.869Z" fill="#FBBEAA"/>
<path d="M24.9634 80.0743C25.9986 80.0743 26.0803 79.4205 26.5435 78.2218C24.2278 78.2218 17.4987 78.6576 14.5564 84.3242C17.5259 80.2377 23.2198 80.0743 24.9634 80.0743ZM19.6782 58.5248C19.6782 58.5248 19.8416 59.4784 20.0051 60.8678C20.0051 61.5761 20.1686 62.4206 20.2231 63.2924C20.2776 64.1642 20.3593 65.1177 20.441 66.0167C20.441 67.9237 20.5772 69.8035 20.5772 71.2202C20.5772 72.6369 20.5772 73.5904 20.5772 73.5904C20.5773 73.6357 20.5681 73.6806 20.55 73.7221C20.5319 73.7637 20.5053 73.801 20.472 73.8317C20.4387 73.8625 20.3994 73.886 20.3565 73.9007C20.3136 73.9154 20.2682 73.921 20.2231 73.9173C20.1464 73.9134 20.073 73.8848 20.0141 73.8356C19.9551 73.7865 19.9137 73.7196 19.8961 73.6449C19.8961 73.6449 19.7327 72.6913 19.5964 71.2747C19.4602 69.858 19.2423 67.9782 19.1605 66.0984C19.1605 65.1449 19.1605 64.1914 19.1605 63.3741C19.1605 62.5568 19.1605 61.6578 19.1605 60.9495C19.1605 59.5056 19.1605 58.5793 19.1605 58.5793C19.1604 58.5339 19.1696 58.4891 19.1877 58.4476C19.2058 58.406 19.2324 58.3686 19.2657 58.3379C19.299 58.3072 19.3383 58.2837 19.3812 58.269C19.4241 58.2543 19.4696 58.2486 19.5147 58.2524C19.5669 58.2824 19.6098 58.3263 19.6387 58.3792C19.6675 58.4321 19.6812 58.4919 19.6782 58.5521V58.5248ZM13.3577 60.4319C13.3577 60.4319 13.5212 61.2491 13.7119 62.4478C13.7119 63.0744 13.9026 63.7827 13.9843 64.5456C14.0661 65.3084 14.1478 66.1257 14.2295 66.943C14.2295 68.5776 14.4202 70.2122 14.4474 71.4381C14.4747 72.6641 14.4474 73.5086 14.4474 73.5086C14.444 73.5516 14.4321 73.5935 14.4124 73.6318C14.3927 73.6702 14.3657 73.7043 14.3328 73.7322C14.2999 73.76 14.2617 73.7811 14.2206 73.7942C14.1795 73.8073 14.1363 73.8121 14.0933 73.8083C14.02 73.8032 13.9506 73.7736 13.8962 73.7241C13.8418 73.6747 13.8057 73.6084 13.7936 73.5359C13.7936 73.5359 13.6301 72.7185 13.4394 71.5198C13.2487 70.3211 13.0853 68.6593 12.9491 67.052C12.9491 66.2347 12.9491 65.4174 12.7856 64.6546C12.6222 63.8917 12.7856 63.1562 12.7856 62.5296C12.7856 61.3036 12.7856 60.4863 12.7856 60.4863C12.7855 60.441 12.7947 60.3962 12.8128 60.3546C12.8309 60.3131 12.8575 60.2757 12.8908 60.245C12.9241 60.2142 12.9634 60.1908 13.0063 60.176C13.0491 60.1613 13.0946 60.1556 13.1398 60.1594C13.2003 60.1844 13.2526 60.2256 13.291 60.2785C13.3295 60.3314 13.3526 60.3939 13.3577 60.4591V60.4319ZM7.25523 63.0199C7.25523 63.0199 7.41865 63.701 7.63659 64.7363C7.63659 65.2267 7.85458 65.8261 7.93631 66.4799C8.01804 67.1337 8.12698 67.8148 8.23595 68.4959C8.42665 69.8853 8.50845 71.2202 8.56294 72.3099C8.61742 73.3996 8.56294 74.0535 8.56294 74.0535C8.5631 74.0989 8.55377 74.1437 8.53567 74.1852C8.51756 74.2268 8.49099 74.2641 8.45768 74.2949C8.42438 74.3256 8.38507 74.3491 8.3422 74.3638C8.29934 74.3785 8.25393 74.3842 8.20876 74.3804C8.13921 74.3768 8.07261 74.351 8.0187 74.3069C7.9648 74.2628 7.92636 74.2027 7.90904 74.1353C7.90904 74.1353 7.71838 73.4542 7.52768 72.4462C7.33698 71.4382 7.06451 70.0215 6.90105 68.6593C6.90105 67.951 6.76482 67.2699 6.71033 66.6161C6.65584 65.9622 6.71033 65.3629 6.71033 64.8453C6.71033 63.81 6.71033 63.1017 6.71033 63.1017C6.71017 63.0563 6.71949 63.0115 6.7376 62.97C6.7557 62.9284 6.7822 62.891 6.8155 62.8603C6.84881 62.8296 6.8882 62.8061 6.93107 62.7914C6.97393 62.7767 7.01934 62.771 7.06451 62.7748C7.1148 62.8028 7.1581 62.8419 7.19113 62.8891C7.22416 62.9363 7.24607 62.9903 7.25523 63.0472V63.0199Z" fill="#F18380"/>
<path d="M91.4195 99.806L32.0442 139.851C32.294 141.9 27.4823 99.806 27.4823 99.806L5.50533 101.857C5.50533 101.857 6.78924 144.714 10.0234 167.348C11.3069 176.33 18.7834 179.736 27.6485 177.802C32.0255 176.847 36.146 175.051 39.8129 172.477C55.5695 161.418 99.7742 130.267 103.388 126.348C109.624 119.587 109.624 114.522 106.04 108.956C102.457 103.39 94.788 98.9699 91.4195 99.806Z" fill="#001A4B"/>
<path d="M141.846 327.685C141.925 334.101 139.452 340.287 134.971 344.88C130.489 349.473 124.367 352.098 117.951 352.177C111.534 352.256 105.349 349.783 100.756 345.302C96.1624 340.821 93.5374 334.699 93.4582 328.282C93.4582 328.282 90.3967 238.975 89.3513 220.879C88.3059 202.784 93.0351 188.272 113.396 186.182C134.503 184.016 145.753 200.519 145.753 215.851C145.753 231.184 141.846 327.685 141.846 327.685Z" fill="#7C7C7C"/>
<path d="M181.547 325.968C181.961 329.139 181.743 332.361 180.905 335.448C180.067 338.534 178.624 341.424 176.662 343.95C174.7 346.475 172.256 348.587 169.472 350.162C166.689 351.737 163.62 352.745 160.445 353.126C157.269 353.508 154.049 353.256 150.972 352.386C147.894 351.515 145.02 350.043 142.515 348.054C140.01 346.066 137.924 343.6 136.378 340.8C134.832 338 133.856 334.921 133.508 331.742C133.508 331.742 120.913 243.281 117.926 225.409C114.939 207.538 118.1 192.579 138.112 188.322C158.871 183.917 171.839 199.125 173.407 214.358C174.975 229.591 181.547 325.968 181.547 325.968Z" fill="#7C7C7C"/>
<path d="M102.12 432.922C102.12 432.922 103.314 483.674 103.613 491.266C103.912 498.858 108.716 500.924 116.457 501.596C124.198 502.268 127.458 496.12 128.553 491.241C129.649 486.363 136.27 436.606 136.27 436.606L102.12 432.922Z" fill="#FBBEAA"/>
<path d="M102.991 468.317L131.54 471.378C133.756 455.672 136.27 436.531 136.27 436.531L102.12 432.847C102.12 432.847 102.568 451.864 102.991 468.317Z" fill="#F18380"/>
<path d="M141.846 327.685C141.806 324.508 141.142 321.369 139.89 318.449C138.638 315.529 136.823 312.884 134.548 310.665C132.274 308.446 129.585 306.697 126.635 305.517C123.684 304.338 120.531 303.751 117.353 303.79C114.176 303.829 111.038 304.494 108.118 305.746C105.197 306.998 102.552 308.813 100.333 311.087C98.1145 313.362 96.3653 316.051 95.1857 319.001C94.0061 321.951 93.4191 325.105 93.4583 328.282L98.4365 469.742L137.49 473.949L141.846 327.685Z" fill="#7C7C7C"/>
<path d="M153.22 434.864C153.22 434.864 159.841 485.193 160.936 492.685C162.032 500.177 167.035 501.77 174.825 501.596C182.616 501.422 185.18 494.975 185.752 490.022C186.325 485.068 187.569 434.864 187.569 434.864H153.22Z" fill="#FBBEAA"/>
<path d="M157.999 469.96H186.723C187.221 454.129 187.694 434.864 187.694 434.864H153.22C153.22 434.864 155.709 453.632 157.999 469.96Z" fill="#F18380"/>
<path d="M181.546 325.968C180.72 319.649 177.433 313.911 172.401 310.001C167.368 306.091 160.997 304.324 154.669 305.085C148.342 305.845 142.57 309.072 138.608 314.063C134.646 319.054 132.813 325.407 133.507 331.742L155.162 474.72H194.439L181.546 325.968Z" fill="#7C7C7C"/>
<path d="M133.532 331.742L155.859 473.476" stroke="#565656" stroke-width="0.75" stroke-miterlimit="10" stroke-linecap="round"/>
<path d="M133.507 331.742C133.507 331.742 120.913 243.281 117.926 225.41" stroke="#565656" stroke-width="0.75" stroke-miterlimit="10" stroke-linecap="round"/>
<path d="M172.212 475.859C169.389 475.656 166.59 476.497 164.346 478.223C162.102 479.948 160.57 482.437 160.04 485.217L147.047 498.534V506.823H188.689C188.689 506.823 186.599 491.888 186.001 488.528C185.404 485.168 183.388 475.859 172.212 475.859Z" fill="#FBBEAA"/>
<path d="M160.066 485.118C159.593 484.471 158.921 483.973 158.448 484.272C157.975 484.57 145.405 494.527 144.808 495.024C144.44 495.37 144.162 495.8 143.997 496.277C143.832 496.754 143.786 497.263 143.862 497.762V508.44H189.611C189.611 508.44 187.819 492.66 187.694 491.789C187.57 490.917 186.699 489.772 186.201 489.797C183.061 490.759 179.802 491.279 176.518 491.341C172.154 491.572 167.801 490.717 163.849 488.851C162.384 487.832 161.104 486.57 160.066 485.118Z" fill="black"/>
<path d="M151.379 499.479C153.594 497.837 161.559 491.614 164.546 489.274L163.849 488.926C163.755 488.885 163.67 488.826 163.6 488.751C160.414 491.241 152.922 497.115 150.781 498.708C148.972 500.094 147.732 502.095 147.297 504.333L148.267 504.482C148.678 502.498 149.781 500.725 151.379 499.479Z" fill="white"/>
<path d="M188.366 497.563C185.142 497.596 182.022 498.709 179.505 500.724C177.23 502.74 175.689 505.454 175.124 508.44H176.469C177.018 505.852 178.378 503.507 180.352 501.745C182.668 499.89 185.548 498.88 188.516 498.882L188.366 497.563Z" fill="white"/>
<path d="M136.469 508.416H189.611C189.982 508.416 190.283 508.717 190.283 509.088V514.24C190.283 514.611 189.982 514.912 189.611 514.912H136.469C136.098 514.912 135.797 514.611 135.797 514.24V509.088C135.797 508.717 136.098 508.416 136.469 508.416Z" fill="white"/>
<path d="M144.932 494.925C144.459 494.725 142.145 495.397 139.133 498.359C137.879 499.656 136.976 501.25 136.51 502.992C136.044 504.734 136.03 506.567 136.47 508.316H151.578C150.732 498.758 145.405 495.124 144.932 494.925Z" fill="white"/>
<path d="M150.731 495.074C150.918 495.303 151.007 495.596 150.979 495.889C150.951 496.183 150.808 496.453 150.582 496.642C150.471 496.734 150.343 496.803 150.205 496.845C150.067 496.887 149.923 496.902 149.779 496.888C149.636 496.874 149.497 496.832 149.37 496.764C149.243 496.696 149.13 496.604 149.039 496.493L146.55 493.481C146.363 493.253 146.274 492.96 146.302 492.667C146.33 492.373 146.473 492.102 146.699 491.913C146.809 491.818 146.936 491.747 147.075 491.703C147.213 491.659 147.358 491.643 147.503 491.657C147.647 491.671 147.787 491.714 147.914 491.784C148.041 491.854 148.153 491.948 148.242 492.063L150.731 495.074Z" fill="white"/>
<path d="M153.693 492.809C153.88 493.037 153.969 493.33 153.941 493.623C153.913 493.917 153.77 494.188 153.544 494.377C153.434 494.472 153.306 494.543 153.168 494.587C153.03 494.631 152.885 494.647 152.74 494.633C152.596 494.619 152.456 494.576 152.329 494.506C152.202 494.436 152.09 494.342 152.001 494.227L149.512 491.216C149.331 490.985 149.246 490.694 149.274 490.402C149.302 490.11 149.44 489.84 149.661 489.648C149.771 489.553 149.898 489.481 150.036 489.437C150.175 489.393 150.32 489.377 150.465 489.391C150.609 489.405 150.749 489.449 150.876 489.518C151.003 489.588 151.115 489.683 151.204 489.797L153.693 492.809Z" fill="white"/>
<path d="M156.556 490.569C156.744 490.79 156.836 491.077 156.813 491.366C156.79 491.656 156.652 491.924 156.431 492.112C156.203 492.299 155.91 492.388 155.616 492.36C155.323 492.332 155.052 492.189 154.863 491.963L152.374 488.951C152.269 488.849 152.186 488.727 152.13 488.593C152.073 488.458 152.044 488.313 152.044 488.167C152.044 488.021 152.073 487.876 152.13 487.742C152.186 487.607 152.269 487.485 152.374 487.383C152.605 487.203 152.896 487.117 153.188 487.145C153.48 487.173 153.75 487.312 153.942 487.532L156.556 490.569Z" fill="white"/>
<path d="M159.443 488.304C159.535 488.415 159.603 488.543 159.645 488.681C159.688 488.819 159.702 488.963 159.688 489.107C159.674 489.25 159.632 489.389 159.565 489.516C159.497 489.643 159.405 489.756 159.294 489.847C159.084 490.053 158.803 490.168 158.509 490.168C158.216 490.168 157.935 490.053 157.725 489.847L155.236 486.811C155.05 486.582 154.961 486.289 154.989 485.996C155.017 485.702 155.159 485.432 155.386 485.243C155.497 485.151 155.625 485.082 155.763 485.04C155.9 484.998 156.045 484.983 156.188 484.997C156.332 485.011 156.471 485.053 156.598 485.121C156.725 485.189 156.838 485.281 156.929 485.392L159.443 488.304Z" fill="white"/>
<path d="M113.719 475.859C110.896 475.656 108.097 476.497 105.853 478.223C103.609 479.948 102.077 482.437 101.548 485.217L88.5797 498.534V506.823H130.197C130.197 506.823 128.131 491.888 127.509 488.528C126.886 485.168 124.895 475.859 113.719 475.859Z" fill="#FBBEAA"/>
<path d="M101.573 485.118C101.1 484.471 100.452 483.973 99.9547 484.272C99.4568 484.57 86.912 494.527 86.3395 495.024C85.767 495.522 85.3687 496.144 85.3687 497.762V508.44H131.118C131.118 508.44 129.326 492.66 129.201 491.789C129.077 490.917 128.205 489.772 127.708 489.797C124.568 490.759 121.309 491.279 118.025 491.341C113.669 491.576 109.323 490.721 105.381 488.851C103.904 487.838 102.615 486.574 101.573 485.118Z" fill="black"/>
<path d="M92.8861 499.479C95.1014 497.837 103.066 491.614 106.053 489.274L105.381 488.926C105.28 488.886 105.187 488.827 105.107 488.751C101.921 491.241 94.4293 497.115 92.2887 498.708C90.4792 500.094 89.2397 502.095 88.804 504.333L89.7748 504.482C90.1975 502.503 91.2979 500.734 92.8861 499.479Z" fill="white"/>
<path d="M129.874 497.563C126.649 497.596 123.529 498.709 121.013 500.724C118.738 502.74 117.197 505.454 116.632 508.44H117.976C118.532 505.849 119.901 503.504 121.884 501.745C124.189 499.886 127.062 498.875 130.023 498.882L129.874 497.563Z" fill="white"/>
<path d="M77.9765 508.416H131.118C131.489 508.416 131.79 508.717 131.79 509.088V514.24C131.79 514.611 131.489 514.912 131.118 514.912H77.9765C77.6054 514.912 77.3045 514.611 77.3045 514.24V509.088C77.3045 508.717 77.6054 508.416 77.9765 508.416Z" fill="white"/>
<path d="M86.4392 494.925C85.9663 494.725 83.6514 495.397 80.6397 498.359C79.3857 499.656 78.483 501.25 78.017 502.992C77.5509 504.734 77.537 506.567 77.9763 508.316H93.085C92.2387 498.758 86.9121 495.124 86.4392 494.925Z" fill="white"/>
<path d="M92.3387 495.074C92.5253 495.303 92.6142 495.596 92.5863 495.889C92.5583 496.183 92.4157 496.453 92.1894 496.642C92.0783 496.734 91.9502 496.803 91.8125 496.845C91.6747 496.887 91.5301 496.902 91.3868 496.888C91.2434 496.874 91.1042 496.832 90.9771 496.764C90.85 496.696 90.7375 496.604 90.6461 496.493L88.157 493.481C87.9765 493.25 87.8914 492.959 87.9192 492.667C87.947 492.376 88.0856 492.106 88.3064 491.913C88.4161 491.818 88.5438 491.747 88.6819 491.703C88.8201 491.659 88.9657 491.643 89.11 491.657C89.2543 491.671 89.3943 491.714 89.5214 491.784C89.6486 491.854 89.7603 491.948 89.8496 492.063L92.3387 495.074Z" fill="white"/>
<path d="M95.2005 492.809C95.3871 493.037 95.476 493.33 95.4481 493.624C95.4201 493.917 95.2775 494.188 95.0512 494.377C94.9416 494.472 94.8138 494.544 94.6756 494.588C94.5375 494.632 94.3918 494.647 94.2475 494.633C94.1032 494.619 93.9633 494.576 93.8361 494.506C93.709 494.437 93.5974 494.342 93.508 494.228L91.0189 491.216C90.8384 490.985 90.7533 490.694 90.7811 490.402C90.8089 490.11 90.9474 489.84 91.1683 489.648C91.3967 489.461 91.6894 489.372 91.983 489.4C92.2766 489.428 92.5473 489.571 92.7364 489.797L95.2005 492.809Z" fill="white"/>
<path d="M98.064 490.569C98.1679 490.669 98.2505 490.789 98.307 490.921C98.3634 491.054 98.3926 491.196 98.3926 491.34C98.3926 491.485 98.3634 491.627 98.307 491.76C98.2505 491.892 98.1679 492.012 98.064 492.112C97.8356 492.299 97.5428 492.388 97.2492 492.36C96.9556 492.332 96.6849 492.189 96.4959 491.963L94.0068 488.951C93.8202 488.723 93.7313 488.43 93.7592 488.136C93.7872 487.843 93.9298 487.572 94.1561 487.383C94.2672 487.291 94.3953 487.222 94.533 487.18C94.6708 487.138 94.8154 487.124 94.9587 487.137C95.1021 487.151 95.2413 487.193 95.3684 487.261C95.4955 487.329 95.608 487.421 95.6994 487.532L98.064 490.569Z" fill="white"/>
<path d="M100.95 488.304C101.041 488.415 101.11 488.543 101.152 488.681C101.194 488.819 101.209 488.963 101.195 489.107C101.181 489.25 101.139 489.389 101.071 489.516C101.004 489.643 100.912 489.756 100.8 489.847C100.591 490.053 100.309 490.168 100.016 490.168C99.7231 490.168 99.4416 490.053 99.2322 489.847L96.7432 486.811C96.5566 486.582 96.4676 486.289 96.4956 485.996C96.5236 485.702 96.6662 485.432 96.8925 485.243C97.0036 485.151 97.1316 485.082 97.2693 485.04C97.407 484.998 97.5517 484.983 97.6951 484.997C97.8384 485.011 97.9777 485.053 98.1047 485.121C98.2318 485.189 98.3443 485.281 98.4357 485.392L100.95 488.304Z" fill="white"/>
<path d="M90.0827 201.521C90.0827 201.521 90.0827 227.332 90.0827 228.751C90.0827 230.17 102.528 242.341 119.055 242.341C144.469 242.341 174.885 233.057 174.437 227.009C174.138 223.026 172.411 201.521 172.411 201.521H90.0827Z" fill="#7C7C7C"/>
<path d="M108.567 92.6494C122.505 104.597 136.361 97.6276 140.924 91.4049L160.837 100.117L155.859 192.212L89.8987 194.701L92.3877 106.339L108.567 92.6494Z" fill="white"/>
<path d="M90.0025 100.59C92.6658 98.8472 109.915 88.891 109.915 88.891V220.164C108.003 222.027 107.612 221.983 104.866 221.672L104.738 221.658C98.8015 220.167 93.074 217.943 87.6877 215.037C87.6877 215.037 85.3978 119.556 84.8253 112.288C84.2528 105.02 87.3392 102.332 90.0025 100.59Z" fill="#002776"/>
<path d="M136.533 221.626C135.323 221.369 134.177 220.872 133.163 220.164L139.933 87.5469C139.933 87.5469 159.472 95.487 164.674 97.8018C166.837 98.7139 168.691 100.229 170.015 102.167C171.339 104.105 172.077 106.383 172.142 108.729C172.465 113.11 172.913 210.208 172.988 211.054C173.063 211.9 172.341 212.373 171.569 212.821C170.797 213.269 146.405 220.388 140.207 221.658C138.993 221.893 137.743 221.882 136.533 221.626Z" fill="#002776"/>
<g filter="url(#filter0_d_203_569)">
<rect width="44.9982" height="64.1225" rx="1" transform="matrix(-0.993463 -0.114154 -0.114154 0.993463 146.357 133.6)" fill="#EFEFEF"/>
</g>
<path d="M127.405 159.585C124.216 158.238 121.333 156.241 118.938 153.722C117.456 152.166 115.775 150.816 113.941 149.707C112.864 149.035 111.936 148.147 111.213 147.1C110.258 145.476 109.467 143.761 108.853 141.981C108.626 140.449 108.105 138.972 107.319 137.634C106.571 136.948 103.933 137.315 102.564 139.976C102.092 141.162 101.878 142.438 101.937 143.72C101.995 145.001 102.325 146.259 102.904 147.408C103.585 148.786 104.119 150.232 104.496 151.721L104.247 151.87C102.161 150.763 99.9311 149.959 97.6261 149.484C96.7901 149.297 95.9192 149.398 95.1538 149.771C94.3884 150.144 93.7731 150.767 93.407 151.539C93.0408 152.311 92.9452 153.188 93.1355 154.029C93.3258 154.869 93.7909 155.624 94.456 156.172C90.859 156.585 91.2673 162.133 94.3553 162.866C93.6941 163.144 93.1359 163.62 92.7563 164.23C92.3766 164.841 92.1938 165.556 92.2326 166.28C92.2714 167.003 92.5299 167.7 92.9731 168.276C93.4164 168.851 94.0229 169.278 94.7108 169.499C92.5176 171.521 94.1208 174.854 98.1033 174.868C101.339 175.197 109.993 176.552 113.004 177.2C116.015 177.848 122.066 176.415 124.01 177.016C126.904 178.076 130.265 178.094 132.829 170.479C135.392 162.865 130.383 160.569 127.405 159.585Z" fill="#FBBEAA"/>
<path d="M121.708 180.012L179.996 203.479C187.445 207.225 199.547 205.304 203.196 196.591C203.864 194.967 204.195 193.224 204.169 191.468C204.143 189.711 203.761 187.979 203.045 186.375C202.329 184.771 201.295 183.329 200.005 182.136C198.716 180.944 197.197 180.026 195.542 179.438L126.654 154.523L121.708 180.012Z" fill="#002776"/>
<defs>
<filter id="filter0_d_203_569" x="94.4404" y="128.571" width="53.8091" height="68.6249" filterUnits="userSpaceOnUse" color-interpolation-filters="sRGB">
<feFlood flood-opacity="0" result="BackgroundImageFix"/>
<feColorMatrix in="SourceAlpha" type="matrix" values="0 0 0 0 0 0 0 0 0 0 0 0 0 0 0 0 0 0 127 0" result="hardAlpha"/>
<feOffset dx="2"/>
<feComposite in2="hardAlpha" operator="out"/>
<feColorMatrix type="matrix" values="0 0 0 0 0.603922 0 0 0 0 0.6 0 0 0 0 0.631373 0 0 0 1 0"/>
<feBlend mode="normal" in2="BackgroundImageFix" result="effect1_dropShadow_203_569"/>
<feBlend mode="normal" in="SourceGraphic" in2="effect1_dropShadow_203_569" result="shape"/>
</filter>
</defs>
</svg>
