<svg width="209" height="515" viewBox="0 0 209 515" fill="none" xmlns="http://www.w3.org/2000/svg">
<g clip-path="url(#clip0_21_289)">
<path d="M109.596 63.8959H139.738V98.2272H109.596V63.8959Z" fill="#FBBEAA"/>
<path d="M139.664 63.8959H109.621V83.0497C110.933 83.2075 112.254 83.2885 113.577 83.2921C123.941 83.2921 135.533 80.5524 139.764 70.9755L139.664 63.8959Z" fill="#F18380"/>
<path d="M94.023 38.4145C94.2733 48.3308 94.023 56.1621 95.8756 63.7266C97.7283 71.2912 103.386 77.4737 115.904 77.4737C128.422 77.4737 142.692 73.5217 143.693 58.3684C145.746 56.2106 149.076 48.5248 149.201 39.9177C149.326 31.3106 148.625 13.1024 128.372 10.3142C108.118 7.526 93.4722 14.7268 94.023 38.4145Z" fill="#FBBEAA"/>
<path d="M104.613 46.221C104.613 47.5545 103.787 48.6456 102.76 48.6456C101.734 48.6456 100.908 47.5545 100.908 46.221C100.908 44.8875 101.734 43.7965 102.76 43.7965C103.787 43.7965 104.613 44.7906 104.613 46.221Z" fill="#403D4F"/>
<path d="M127.146 46.221C127.146 47.5545 126.319 48.6456 125.293 48.6456C124.266 48.6456 123.44 47.5545 123.44 46.221C123.44 44.8875 124.266 43.7965 125.293 43.7965C126.319 43.7965 127.146 44.7906 127.146 46.221Z" fill="#403D4F"/>
<path d="M122.614 41.1781C122.789 41.3964 124.116 41.1781 125.117 41.1781C126.119 41.1781 128.046 41.1781 128.046 40.9599C128.046 40.7417 127.095 39.2385 124.592 39.5052C122.789 39.6992 122.138 40.7902 122.614 41.1781Z" fill="#403D4F"/>
<path d="M105.039 41.178C104.888 41.3963 103.762 41.178 102.885 41.178C102.009 41.178 100.382 41.178 100.382 40.9598C100.607 40.4103 101.031 39.9592 101.575 39.6913C102.119 39.4234 102.745 39.3572 103.336 39.5051C104.888 39.6991 105.314 40.7901 105.039 41.178Z" fill="#403D4F"/>
<path d="M112.425 56.2589C110.672 56.2589 109.27 55.1436 109.22 54.3435L109.796 47.5063C109.815 47.3369 109.901 47.1813 110.037 47.0727C110.173 46.964 110.347 46.9108 110.522 46.9245C110.608 46.9306 110.691 46.953 110.768 46.9905C110.844 47.028 110.912 47.0798 110.968 47.1429C111.024 47.206 111.066 47.2791 111.093 47.3581C111.12 47.4372 111.13 47.5205 111.123 47.6033L110.572 54.198C110.825 54.4638 111.136 54.6713 111.483 54.8056C111.829 54.9398 112.202 54.9973 112.575 54.9739C112.662 54.9673 112.75 54.9779 112.834 55.0051C112.917 55.0323 112.993 55.0755 113.059 55.1322C113.124 55.1888 113.177 55.2576 113.215 55.3346C113.252 55.4116 113.273 55.4951 113.276 55.58C113.276 55.752 113.209 55.9177 113.089 56.0437C112.968 56.1697 112.802 56.2466 112.625 56.2589H112.425Z" fill="#F18380"/>
<path d="M139.558 51.8461C142.304 51.5261 144.067 49.4215 144.565 46.997C145.063 44.5725 146.625 45.7847 149.572 45.7847C152.52 45.7847 154.027 40.172 154.954 35.9023C156.159 30.3491 154.364 23.8482 152.596 21.5521C157.312 17.5341 154.954 3.75795 153.775 8.34998C152.831 12.0236 149.452 13.7074 147.88 14.09C143.163 -2.90057 124.692 0.122559 116.046 3.75795C108.972 1.00271 102.88 4.90597 100.719 7.202C90.1076 3.75796 85.3916 8.35002 83.0335 10.646C80.6755 12.9421 77.7279 26.1442 87.7496 31.8843C95.7669 36.4764 107.596 32.6497 112.509 30.1623C118.168 34.7543 125.871 33.2237 129.015 31.8843C129.487 34.6395 134.893 38.581 137.055 41.0684C139.216 43.5557 138.306 51.9919 139.558 51.8461Z" fill="#F3E8AE"/>
<path d="M143.143 50.8276C143.268 48.0636 143.718 43.9904 147.774 43.8934C151.83 43.7964 152.356 46.7544 152.231 51.4095C152.105 56.0646 147.223 60.0166 142.942 58.4164L143.143 50.8276Z" fill="#FBBEAA"/>
<path d="M149.101 54.1737C148.925 54.1441 148.769 54.0485 148.666 53.9077C148.563 53.767 148.521 53.5924 148.55 53.4221C148.55 53.2853 148.51 53.1513 148.435 53.0355C148.359 52.9197 148.252 52.8268 148.125 52.7675C147.869 52.6018 147.568 52.5133 147.261 52.5133C146.953 52.5133 146.653 52.6018 146.397 52.7675C146.286 52.827 146.161 52.8581 146.034 52.8581C145.907 52.8581 145.782 52.827 145.671 52.7675C145.569 52.7022 145.487 52.6114 145.434 52.5047C145.382 52.3979 145.36 52.2793 145.371 52.1614C145.721 48.2579 148.3 47.5305 148.4 47.5063C148.486 47.4807 148.575 47.4725 148.664 47.4822C148.753 47.4918 148.839 47.5191 148.917 47.5624C148.994 47.6056 149.062 47.6638 149.115 47.7334C149.168 47.803 149.206 47.8825 149.226 47.967C149.272 48.1277 149.251 48.2996 149.166 48.4451C149.082 48.5905 148.941 48.6976 148.776 48.7428C148.275 48.9621 147.84 49.2986 147.507 49.7219C147.175 50.1452 146.957 50.6419 146.873 51.1673C147.559 51.0591 148.262 51.197 148.851 51.5553C149.194 51.75 149.471 52.0369 149.648 52.3812C149.826 52.7255 149.897 53.1124 149.852 53.4949C149.856 53.5893 149.839 53.6836 149.802 53.7711C149.765 53.8586 149.709 53.9373 149.638 54.0018C149.567 54.0663 149.482 54.1151 149.389 54.1448C149.296 54.1745 149.198 54.1843 149.101 54.1737Z" fill="#F18380"/>
<path d="M114.151 64.9868C116.568 64.8965 118.889 64.0453 120.761 62.5623" stroke="#73102A" stroke-width="0.5" stroke-miterlimit="10" stroke-linecap="round"/>
</g>
<path d="M170.18 102.181C175.743 109.334 207.932 196.761 207.932 196.761C178.128 187.223 180.924 161.447 164.714 164.174C164.714 164.174 146.022 120.301 145.309 116.376C144.564 113.282 144.898 110.026 146.256 107.148C147.614 104.269 149.914 101.941 152.776 100.549C160.754 96.4706 164.616 95.0274 170.18 102.181Z" fill="#002366"/>
<path d="M27.9019 96.0186C27.7792 93.3361 28.4973 90.6824 29.9559 88.4278C32.2017 85.8239 33.8841 82.7834 34.8974 79.4975C35.6769 76.4474 36.9219 73.5355 38.5887 70.8648C39.7794 69.2275 41.5654 67.888 41.5654 66.6378C41.5654 65.3875 39.184 62.9763 35.7905 63.661C34.3369 64.1138 33.0013 64.8823 31.8795 65.9116C30.7576 66.9408 29.8771 68.2053 29.301 69.6146C28.9759 68.7559 28.7852 67.8523 28.7355 66.9355L27.9913 48.6878C27.98 48.2148 27.874 47.7488 27.6796 47.3173C27.4853 46.8859 27.2063 46.4978 26.8595 46.176C26.5127 45.8541 26.1049 45.605 25.6602 45.4433C25.2155 45.2817 24.7429 45.2107 24.2703 45.2347C23.518 45.2668 22.7945 45.5339 22.2018 45.9985C21.6091 46.463 21.177 47.1016 20.9661 47.8245V46.991C20.8516 46.104 20.4058 45.2931 19.7182 44.7211C19.0305 44.1491 18.1519 43.8584 17.2588 43.9074C16.3657 43.9564 15.5243 44.3415 14.9033 44.9852C14.2824 45.6289 13.9279 46.4838 13.9111 47.378V49.9083C13.613 49.1282 13.0445 48.4812 12.3092 48.0852C11.5739 47.6893 10.7208 47.5707 9.90545 47.7511C9.09005 47.9315 8.36661 48.3988 7.867 49.068C7.36738 49.7372 7.12483 50.5637 7.18357 51.3967V53.0041C6.86317 52.441 6.3857 51.9835 5.80947 51.6875C5.23323 51.3914 4.58321 51.2697 3.9389 51.3371C3.05655 51.4491 2.25248 51.9001 1.69687 52.5947C1.14124 53.2892 0.877697 54.1727 0.962116 55.0581L2.42071 70.4481C3.37623 79.1247 5.17075 87.6883 7.77897 96.0186C7.8105 97.4095 8.13274 98.7783 8.72493 100.037C9.31712 101.296 10.1662 102.417 11.2175 103.328C12.2689 104.24 13.4993 104.921 14.8296 105.328C16.1599 105.735 17.5606 105.86 18.9419 105.693C20.1919 105.735 21.4362 105.507 22.5905 105.026C23.7447 104.544 24.782 103.82 25.6318 102.903C26.4817 101.985 27.1242 100.895 27.5159 99.7076C27.9076 98.5198 28.0392 97.2617 27.9019 96.0186Z" fill="#FBBEAA"/>
<path d="M27.3067 72.2048C28.4379 72.2048 28.5272 71.4904 29.0332 70.1806C26.5029 70.1806 19.1503 70.6568 15.9354 76.8485C19.1801 72.3834 25.4016 72.2048 27.3067 72.2048ZM21.5318 48.6584C21.5318 48.6584 21.7103 49.7004 21.889 51.2185C21.889 51.9925 22.0676 52.9152 22.1271 53.8678C22.1867 54.8204 22.2759 55.8622 22.3652 56.8446C22.3652 58.9283 22.5141 60.9823 22.5141 62.5302C22.5141 64.0782 22.5141 65.12 22.5141 65.12C22.5142 65.1695 22.5041 65.2186 22.4843 65.264C22.4646 65.3094 22.4355 65.3501 22.3991 65.3837C22.3627 65.4173 22.3198 65.443 22.273 65.4591C22.2261 65.4752 22.1765 65.4813 22.1271 65.4772C22.0434 65.473 21.9632 65.4417 21.8988 65.388C21.8343 65.3343 21.7891 65.2612 21.7699 65.1796C21.7699 65.1796 21.5913 64.1377 21.4425 62.5897C21.2936 61.0418 21.0555 58.9879 20.9662 56.9339C20.9662 55.892 20.9662 54.8501 20.9662 53.9571C20.9662 53.0641 20.9662 52.0818 20.9662 51.3078C20.9662 49.7301 20.9662 48.7179 20.9662 48.7179C20.966 48.6684 20.9761 48.6194 20.9959 48.574C21.0156 48.5286 21.0447 48.4878 21.0811 48.4542C21.1175 48.4206 21.1604 48.395 21.2073 48.3789C21.2541 48.3628 21.3038 48.3566 21.3532 48.3607C21.4102 48.3936 21.4571 48.4416 21.4886 48.4994C21.5201 48.5571 21.535 48.6225 21.5318 48.6882V48.6584ZM14.6256 50.7422C14.6256 50.7422 14.8042 51.6352 15.0126 52.945C15.0126 53.6297 15.221 54.4036 15.3103 55.2371C15.3996 56.0706 15.4889 56.9636 15.5782 57.8567C15.5782 59.6427 15.7865 61.4288 15.8163 62.7683C15.8461 64.1079 15.8163 65.0307 15.8163 65.0307C15.8126 65.0777 15.7996 65.1234 15.7781 65.1653C15.7565 65.2073 15.727 65.2446 15.691 65.275C15.6551 65.3054 15.6134 65.3285 15.5685 65.3428C15.5236 65.357 15.4763 65.3623 15.4294 65.3582C15.3493 65.3526 15.2734 65.3202 15.214 65.2662C15.1546 65.2122 15.1151 65.1397 15.1019 65.0605C15.1019 65.0605 14.9233 64.1674 14.7149 62.8576C14.5065 61.5479 14.3279 59.7321 14.1791 57.9758C14.1791 57.0827 14.1791 56.1897 14.0005 55.3562C13.8219 54.5227 14.0005 53.719 14.0005 53.0343C14.0005 51.6948 14.0005 50.8017 14.0005 50.8017C14.0003 50.7522 14.0104 50.7032 14.0302 50.6578C14.05 50.6124 14.079 50.5716 14.1154 50.538C14.1518 50.5044 14.1948 50.4788 14.2416 50.4627C14.2884 50.4466 14.3382 50.4404 14.3875 50.4445C14.4536 50.4718 14.5107 50.5168 14.5528 50.5746C14.5948 50.6324 14.62 50.7007 14.6256 50.7719V50.7422ZM7.95765 53.5701C7.95765 53.5701 8.13621 54.3143 8.37436 55.4455C8.37436 55.9813 8.61255 56.6362 8.70185 57.3507C8.79115 58.0651 8.91018 58.8093 9.02925 59.5535C9.23763 61.0716 9.32701 62.5302 9.38654 63.7209C9.44608 64.9116 9.38654 65.6261 9.38654 65.6261C9.38671 65.6756 9.37653 65.7246 9.35674 65.77C9.33696 65.8154 9.30792 65.8562 9.27153 65.8898C9.23514 65.9234 9.19219 65.949 9.14535 65.9651C9.09851 65.9812 9.0489 65.9874 8.99955 65.9833C8.92355 65.9794 8.85078 65.9512 8.79188 65.903C8.73298 65.8548 8.69098 65.7891 8.67205 65.7154C8.67205 65.7154 8.46372 64.9712 8.25535 63.8698C8.04698 62.7684 7.74927 61.2204 7.57066 59.7321C7.57066 58.9581 7.4218 58.2139 7.36226 57.4995C7.30273 56.785 7.36226 56.1302 7.36226 55.5646C7.36226 54.4334 7.36226 53.6594 7.36226 53.6594C7.36209 53.6099 7.37228 53.5609 7.39206 53.5155C7.41184 53.4701 7.44079 53.4293 7.47718 53.3957C7.51357 53.3621 7.55662 53.3365 7.60345 53.3204C7.65029 53.3043 7.69991 53.2981 7.74926 53.3022C7.80421 53.3329 7.85152 53.3756 7.88761 53.4271C7.9237 53.4787 7.94765 53.5378 7.95765 53.5999V53.5701Z" fill="#F18380"/>
<path d="M99.9207 93.7649L35.0434 137.521C35.3163 139.759 30.0587 93.7649 30.0587 93.7649L6.04532 96.0064C6.04532 96.0064 7.4482 142.834 10.982 167.565C12.3845 177.38 20.5538 181.102 30.2404 178.988C35.0229 177.945 39.5253 175.982 43.5319 173.17C60.7486 161.086 109.05 127.048 112.999 122.766C119.812 115.379 119.812 109.845 115.896 103.763C111.981 97.6806 103.601 92.8513 99.9207 93.7649Z" fill="#001A4B"/>
<path d="M181.445 325.736C181.86 328.912 181.642 332.138 180.802 335.229C179.963 338.319 178.519 341.213 176.554 343.742C174.589 346.271 172.142 348.385 169.355 349.962C166.567 351.54 163.495 352.549 160.315 352.931C157.135 353.313 153.911 353.061 150.83 352.189C147.748 351.318 144.87 349.843 142.361 347.852C139.853 345.861 137.764 343.392 136.216 340.588C134.668 337.785 133.691 334.702 133.342 331.518C133.342 331.518 120.731 242.94 117.74 225.045C114.749 207.15 117.915 192.171 137.953 187.909C158.739 183.497 171.725 198.726 173.295 213.979C174.865 229.232 181.445 325.736 181.445 325.736Z" fill="#93929C"/>
<path d="M141.692 327.456C141.771 333.881 139.295 340.074 134.808 344.673C130.321 349.273 124.19 351.901 117.765 351.98C111.34 352.06 105.147 349.584 100.548 345.096C95.9484 340.609 93.3199 334.479 93.2406 328.054C93.2406 328.054 90.175 238.628 89.1282 220.509C88.0814 202.389 92.8169 187.859 113.204 185.765C134.34 183.597 145.605 200.121 145.605 215.474C145.605 230.827 141.692 327.456 141.692 327.456Z" fill="#93929C"/>
<path d="M101.914 432.833C101.914 432.833 103.111 483.652 103.41 491.253C103.709 498.855 108.519 500.924 116.27 501.597C124.021 502.27 127.286 496.113 128.383 491.228C129.48 486.343 136.109 436.521 136.109 436.521L101.914 432.833Z" fill="#FBBEAA"/>
<path d="M102.787 468.274L131.374 471.339C133.592 455.612 136.109 436.446 136.109 436.446L101.914 432.758C101.914 432.758 102.363 451.799 102.787 468.274Z" fill="#F18380"/>
<path d="M141.692 327.456C141.653 324.275 140.988 321.132 139.734 318.208C138.48 315.284 136.663 312.635 134.385 310.413C132.108 308.192 129.415 306.44 126.461 305.259C123.507 304.078 120.349 303.49 117.168 303.529C113.986 303.569 110.844 304.234 107.92 305.488C104.995 306.742 102.347 308.559 100.125 310.836C97.9033 313.114 96.1518 315.806 94.9706 318.761C93.7895 321.715 93.2017 324.873 93.241 328.054L98.2257 469.701L137.331 473.913L141.692 327.456Z" fill="#93929C"/>
<path d="M153.082 434.777C153.082 434.777 159.711 485.172 160.808 492.674C161.905 500.176 166.914 501.771 174.715 501.597C182.516 501.422 185.083 494.967 185.657 490.007C186.23 485.047 187.476 434.777 187.476 434.777H153.082Z" fill="#FBBEAA"/>
<path d="M157.868 469.919H186.63C187.128 454.067 187.602 434.777 187.602 434.777H153.082C153.082 434.777 155.575 453.569 157.868 469.919Z" fill="#F18380"/>
<path d="M181.446 325.736C180.618 319.409 177.327 313.664 172.288 309.748C167.249 305.833 160.869 304.064 154.533 304.826C148.198 305.587 142.418 308.818 138.451 313.816C134.483 318.814 132.648 325.175 133.343 331.518L155.026 474.686H194.355L181.446 325.736Z" fill="#93929C"/>
<path d="M133.368 331.518L155.724 473.44" stroke="#676767" stroke-width="0.75" stroke-miterlimit="10" stroke-linecap="round"/>
<path d="M133.343 331.518C133.343 331.518 120.732 242.94 117.741 225.045" stroke="#676767" stroke-width="0.75" stroke-miterlimit="10" stroke-linecap="round"/>
<path d="M172.099 475.826C169.272 475.623 166.469 476.465 164.222 478.193C161.976 479.92 160.441 482.413 159.911 485.197L146.901 498.531V506.83H188.598C188.598 506.83 186.505 491.876 185.906 488.512C185.308 485.147 183.289 475.826 172.099 475.826Z" fill="#FBBEAA"/>
<path d="M159.936 485.097C159.463 484.449 158.79 483.95 158.316 484.249C157.843 484.549 145.256 494.518 144.658 495.016C144.29 495.362 144.011 495.793 143.846 496.27C143.681 496.748 143.635 497.259 143.711 497.758V508.45H189.521C189.521 508.45 187.726 492.649 187.601 491.776C187.477 490.904 186.604 489.758 186.106 489.783C182.962 490.746 179.699 491.266 176.411 491.328C172.041 491.559 167.682 490.703 163.725 488.835C162.257 487.815 160.976 486.551 159.936 485.097Z" fill="#2E70AC"/>
<path d="M151.238 499.478C153.456 497.833 161.432 491.602 164.422 489.259L163.725 488.91C163.63 488.87 163.546 488.81 163.475 488.736C160.285 491.228 152.783 497.11 150.64 498.705C148.828 500.094 147.587 502.097 147.15 504.338L148.122 504.487C148.533 502.501 149.638 500.725 151.238 499.478Z" fill="#1E2173"/>
<path d="M188.274 497.559C185.045 497.592 181.921 498.706 179.401 500.724C177.123 502.742 175.58 505.46 175.014 508.45H176.36C176.911 505.859 178.273 503.511 180.248 501.746C182.568 499.888 185.452 498.877 188.423 498.88L188.274 497.559Z" fill="#1E2173"/>
<path d="M136.309 508.426H189.52C189.892 508.426 190.193 508.727 190.193 509.099V514.258C190.193 514.63 189.892 514.931 189.52 514.931H136.309C135.937 514.931 135.636 514.63 135.636 514.258V509.099C135.636 508.727 135.937 508.426 136.309 508.426Z" fill="white"/>
<path d="M144.783 494.917C144.309 494.717 141.991 495.39 138.976 498.356C137.72 499.654 136.816 501.251 136.35 502.995C135.883 504.74 135.869 506.574 136.309 508.326H151.438C150.59 498.755 145.256 495.116 144.783 494.917Z" fill="white"/>
<path d="M150.59 495.067C150.777 495.295 150.866 495.589 150.838 495.883C150.81 496.177 150.667 496.448 150.44 496.637C150.329 496.729 150.201 496.798 150.063 496.84C149.925 496.882 149.78 496.897 149.637 496.883C149.493 496.869 149.354 496.827 149.226 496.759C149.099 496.691 148.987 496.599 148.895 496.487L146.403 493.472C146.216 493.243 146.127 492.95 146.155 492.656C146.183 492.362 146.326 492.091 146.552 491.901C146.662 491.806 146.79 491.735 146.928 491.691C147.067 491.647 147.212 491.631 147.357 491.645C147.501 491.659 147.642 491.702 147.769 491.772C147.896 491.842 148.008 491.937 148.097 492.051L150.59 495.067Z" fill="white"/>
<path d="M153.556 492.799C153.742 493.027 153.832 493.32 153.804 493.614C153.776 493.908 153.633 494.179 153.406 494.369C153.296 494.464 153.168 494.536 153.03 494.58C152.892 494.624 152.746 494.639 152.601 494.625C152.457 494.611 152.317 494.568 152.189 494.498C152.062 494.428 151.95 494.333 151.861 494.219L149.368 491.203C149.188 490.972 149.103 490.681 149.13 490.389C149.158 490.096 149.297 489.826 149.518 489.633C149.628 489.538 149.756 489.466 149.894 489.422C150.032 489.378 150.178 489.363 150.323 489.377C150.467 489.391 150.607 489.434 150.735 489.504C150.862 489.574 150.974 489.668 151.063 489.783L153.556 492.799Z" fill="white"/>
<path d="M156.422 490.556C156.61 490.777 156.703 491.064 156.68 491.354C156.656 491.644 156.519 491.912 156.297 492.101C156.069 492.288 155.776 492.377 155.482 492.349C155.188 492.321 154.917 492.178 154.727 491.951L152.235 488.936C152.13 488.833 152.047 488.711 151.99 488.576C151.933 488.442 151.904 488.297 151.904 488.15C151.904 488.004 151.933 487.859 151.99 487.725C152.047 487.59 152.13 487.468 152.235 487.365C152.466 487.185 152.758 487.099 153.05 487.127C153.342 487.155 153.612 487.294 153.805 487.515L156.422 490.556Z" fill="white"/>
<path d="M159.313 488.288C159.405 488.399 159.474 488.527 159.516 488.665C159.558 488.803 159.573 488.948 159.559 489.091C159.545 489.235 159.503 489.374 159.435 489.501C159.367 489.629 159.275 489.741 159.164 489.833C158.954 490.038 158.672 490.153 158.379 490.153C158.085 490.153 157.803 490.038 157.593 489.833L155.101 486.792C154.914 486.563 154.825 486.27 154.853 485.976C154.881 485.682 155.024 485.411 155.251 485.222C155.362 485.13 155.49 485.061 155.628 485.019C155.766 484.977 155.911 484.962 156.054 484.976C156.198 484.99 156.337 485.032 156.464 485.1C156.592 485.168 156.704 485.26 156.796 485.371L159.313 488.288Z" fill="white"/>
<path d="M113.528 475.826C110.701 475.623 107.898 476.465 105.651 478.193C103.405 479.92 101.871 482.413 101.34 485.197L88.3552 498.531V506.83H130.027C130.027 506.83 127.959 491.876 127.336 488.512C126.713 485.147 124.719 475.826 113.528 475.826Z" fill="#FBBEAA"/>
<path d="M101.365 485.097C100.892 484.449 100.244 483.95 99.7455 484.249C99.247 484.549 86.6855 494.518 86.1123 495.016C85.539 495.515 85.1402 496.138 85.1402 497.758V508.45H130.95C130.95 508.45 129.155 492.649 129.031 491.776C128.906 490.904 128.034 489.758 127.535 489.783C124.391 490.746 121.128 491.266 117.84 491.328C113.478 491.564 109.126 490.707 105.179 488.835C103.7 487.82 102.41 486.555 101.365 485.097Z" fill="#2E70AC"/>
<path d="M92.6675 499.478C94.8857 497.833 102.861 491.602 105.852 489.259L105.179 488.91C105.077 488.87 104.984 488.811 104.905 488.736C101.715 491.228 94.2128 497.11 92.0693 498.705C90.2574 500.094 89.0163 502.097 88.58 504.338L89.5521 504.487C89.9753 502.506 91.0772 500.734 92.6675 499.478Z" fill="#1E2173"/>
<path d="M129.703 497.559C126.475 497.592 123.351 498.706 120.831 500.724C118.553 502.742 117.01 505.46 116.444 508.45H117.79C118.347 505.856 119.718 503.507 121.703 501.746C124.011 499.885 126.888 498.873 129.853 498.88L129.703 497.559Z" fill="#1E2173"/>
<path d="M77.7388 508.426H130.951C131.322 508.426 131.624 508.727 131.624 509.099V514.258C131.624 514.63 131.322 514.931 130.951 514.931H77.7388C77.3672 514.931 77.0659 514.63 77.0659 514.258V509.099C77.0659 508.727 77.3672 508.426 77.7388 508.426Z" fill="white"/>
<path d="M86.2122 494.917C85.7386 494.717 83.4207 495.39 80.4049 498.356C79.1493 499.654 78.2454 501.251 77.7788 502.995C77.3121 504.74 77.2981 506.574 77.7381 508.326H92.8667C92.0193 498.755 86.6857 495.116 86.2122 494.917Z" fill="white"/>
<path d="M92.1196 495.067C92.3064 495.295 92.3955 495.589 92.3675 495.883C92.3395 496.177 92.1967 496.448 91.9701 496.637C91.8589 496.729 91.7306 496.798 91.5927 496.84C91.4548 496.882 91.31 496.897 91.1664 496.883C91.0229 496.869 90.8835 496.827 90.7562 496.759C90.629 496.691 90.5163 496.599 90.4248 496.487L87.9324 493.472C87.7517 493.241 87.6664 492.949 87.6943 492.657C87.7221 492.365 87.8609 492.094 88.082 491.901C88.1918 491.806 88.3197 491.735 88.458 491.691C88.5963 491.647 88.7422 491.631 88.8867 491.645C89.0312 491.659 89.1713 491.702 89.2986 491.772C89.4259 491.842 89.5378 491.937 89.6273 492.051L92.1196 495.067Z" fill="white"/>
<path d="M94.9853 492.798C95.1721 493.027 95.2612 493.32 95.2332 493.614C95.2052 493.908 95.0624 494.179 94.8358 494.369C94.726 494.464 94.5981 494.535 94.4598 494.579C94.3214 494.623 94.1756 494.639 94.0311 494.625C93.8866 494.611 93.7464 494.568 93.6191 494.498C93.4918 494.428 93.3801 494.333 93.2906 494.219L90.7982 491.203C90.6175 490.972 90.5322 490.68 90.5601 490.388C90.5879 490.096 90.7266 489.826 90.9477 489.633C91.1764 489.446 91.4696 489.357 91.7636 489.385C92.0575 489.413 92.3286 489.556 92.5179 489.783L94.9853 492.798Z" fill="white"/>
<path d="M97.8516 490.555C97.9557 490.655 98.0384 490.775 98.0949 490.908C98.1515 491.041 98.1807 491.184 98.1807 491.328C98.1807 491.472 98.1515 491.615 98.0949 491.748C98.0384 491.881 97.9557 492.001 97.8516 492.101C97.6229 492.287 97.3298 492.376 97.0358 492.348C96.7418 492.32 96.4708 492.178 96.2814 491.951L93.7891 488.935C93.6023 488.707 93.5132 488.413 93.5412 488.119C93.5692 487.825 93.712 487.554 93.9386 487.365C94.0498 487.273 94.1781 487.204 94.316 487.162C94.4539 487.12 94.5987 487.105 94.7423 487.119C94.8858 487.133 95.0252 487.175 95.1525 487.243C95.2797 487.311 95.3924 487.403 95.4839 487.515L97.8516 490.555Z" fill="white"/>
<path d="M100.742 488.288C100.834 488.399 100.903 488.527 100.945 488.665C100.987 488.803 101.002 488.948 100.988 489.091C100.974 489.235 100.932 489.374 100.864 489.501C100.796 489.629 100.704 489.741 100.593 489.833C100.383 490.038 100.101 490.153 99.8077 490.153C99.5141 490.153 99.2322 490.038 99.0226 489.833L96.5302 486.792C96.3434 486.563 96.2543 486.27 96.2823 485.976C96.3103 485.682 96.4531 485.411 96.6798 485.222C96.791 485.13 96.9192 485.061 97.0571 485.019C97.195 484.977 97.3399 484.962 97.4834 484.976C97.627 484.99 97.7664 485.032 97.8936 485.1C98.0209 485.168 98.1335 485.26 98.225 485.371L100.742 488.288Z" fill="white"/>
<path d="M89.8616 201.125C89.8616 201.125 89.8616 226.971 89.8616 228.391C89.8616 229.812 102.109 242 118.372 242C143.381 242 173.312 232.703 172.871 226.647C172.577 222.659 172.21 201.125 172.21 201.125H89.8616Z" fill="#93929C"/>
<path d="M107.741 90.0333C107.741 90.0333 92.4477 98.3152 89.7808 100.06C87.114 101.804 84.0235 104.496 84.5968 111.774C85.17 119.052 87.463 215.979 87.463 215.979C93.7136 215.979 104.536 215.979 104.536 215.979H111.614C111.614 215.979 116.292 215.979 119.29 215.979C124.644 215.979 132.998 215.979 132.998 215.979H136.373H140.052C140.052 215.979 170.683 216.428 171.455 215.979C172.583 215.979 174.915 216.83 174.916 215.979C174.841 215.132 172.353 112.596 172.029 108.21C171.964 105.861 171.225 103.58 169.899 101.639C168.573 99.6991 166.717 98.1817 164.551 97.2684C159.342 94.9505 143.776 88.9412 143.776 88.9412C143.776 88.9412 129.506 106.933 120.435 103.478C114.576 101.246 107.741 90.0333 107.741 90.0333Z" fill="#002366"/>
<path d="M174.748 209.81L175.035 217.804C175.035 217.804 143.172 220.007 124.11 219.942C106.555 219.883 87.4824 218.034 87.4824 218.034L87.3229 210.844C87.3229 210.844 107.745 211.733 126.042 211.733C150.67 211.733 174.748 209.81 174.748 209.81Z" fill="#00163F"/>
<path d="M97.4415 89.6509C95.04 99.0065 109.728 107.396 122.698 103.983C109.046 95.1094 109.728 89.6486 109.728 89.6486V80.092C105.633 79.4094 98.953 83.7625 97.4415 89.6509Z" fill="#001A4B"/>
<path d="M139.762 76.6792C143.857 75.9966 157.113 77.3823 161.605 84.8703C163.653 88.2835 159.43 95.0787 159.43 95.0787C159.43 95.0787 159.129 95.0787 154.87 93.4871C151.457 100.996 134.301 107.396 121.719 104.054C139.762 94.427 139.762 89.6481 139.762 89.6481V76.6792Z" fill="#001A4B"/>
<path d="M154.178 143.494C149.667 138.932 141.231 129.094 138.376 126.698C135.553 124.571 132.47 122.815 129.201 121.473C126.72 120.642 124.156 120.087 121.554 119.816C119.745 119.587 119.006 120.122 119.006 121.218C119.051 121.871 119.259 122.502 119.611 123.054C119.963 123.606 120.447 124.061 121.019 124.378H117.68C116.533 124.378 115.794 125.296 116.33 126.774C116.816 127.751 117.511 128.609 118.365 129.287C119.219 129.965 120.213 130.447 121.274 130.699C121.274 130.699 116.763 131.133 115.616 131.362C114.469 131.591 114.112 132.025 114.112 133.121C114.122 133.878 114.332 134.619 114.722 135.268C115.111 135.917 115.666 136.451 116.33 136.816C117.953 137.475 119.677 137.854 121.427 137.938C121.427 137.938 115.845 139.339 114.724 139.747C113.602 140.155 113.475 140.894 114.061 141.863C114.395 142.545 114.878 143.144 115.473 143.616C116.068 144.088 116.761 144.42 117.502 144.59C119.617 145.151 121.045 144.233 121.809 144.36C123.452 144.89 125.061 145.52 126.626 146.246C128.977 148.587 131.852 150.334 135.012 151.344C137.364 152.331 139.521 153.729 141.383 155.473C142.251 156.287 143.273 156.919 144.388 157.331C145.504 157.743 146.691 157.927 147.879 157.872C149.067 157.818 150.232 157.525 151.306 157.012C152.379 156.5 153.338 155.777 154.127 154.887C158.205 150.554 157.517 146.935 154.178 143.494Z" fill="#FBBEAA"/>
<path d="M139.182 159.008L180.212 205.146C185.129 211.699 196.618 215.3 203.638 209.229C204.936 208.092 205.99 206.703 206.735 205.146C207.48 203.589 207.901 201.897 207.973 200.173C208.045 198.448 207.765 196.727 207.152 195.114C206.538 193.501 205.603 192.029 204.404 190.788L154.681 138.741L139.182 159.008Z" fill="#002366"/>
<path d="M121.58 124.404C121.572 124.446 121.574 124.489 121.585 124.531C121.595 124.572 121.614 124.611 121.641 124.645C121.667 124.678 121.7 124.706 121.738 124.726C121.776 124.746 121.817 124.758 121.86 124.761L123.95 124.965H124.969C125.326 124.965 125.658 125.092 126.014 125.118C126.391 125.231 126.758 125.376 127.11 125.551L128.283 126.035C129.863 126.672 131.443 127.259 132.616 127.692C133.788 128.125 134.604 128.38 134.604 128.38C134.668 128.407 134.741 128.409 134.807 128.386C134.873 128.362 134.928 128.315 134.96 128.253C135.008 128.19 135.034 128.114 135.034 128.036C135.034 127.958 135.008 127.882 134.96 127.819L133.049 126.825L131.061 125.882C130.347 125.551 129.557 125.22 128.767 124.914L127.569 124.455C127.184 124.281 126.783 124.144 126.371 124.047L125.148 123.92H124.103H122.548H121.962C121.898 123.869 121.816 123.846 121.735 123.856C121.653 123.865 121.579 123.907 121.529 123.971C121.478 124.035 121.455 124.117 121.464 124.198C121.474 124.279 121.515 124.353 121.58 124.404ZM122.064 130.547H122.523C122.904 130.512 123.288 130.512 123.67 130.547L124.46 130.674C124.751 130.71 125.04 130.761 125.326 130.827L127.059 131.388C128.232 131.77 129.379 132.254 130.245 132.611C130.245 132.611 130.526 132.611 130.5 132.738H130.806L131.265 132.866H131.545H131.698C131.775 132.884 131.842 132.932 131.885 132.998C131.927 133.065 131.943 133.145 131.927 133.223C131.916 133.284 131.885 133.339 131.839 133.381C131.793 133.422 131.734 133.447 131.673 133.452H130.373H129.965C129.073 133.223 127.875 132.866 126.703 132.458L124.995 131.821L124.205 131.617L123.517 131.413C123.165 131.309 122.807 131.224 122.446 131.158L122.013 131.031C121.974 131.019 121.939 131 121.907 130.974C121.876 130.949 121.85 130.917 121.832 130.882C121.813 130.846 121.801 130.808 121.797 130.767C121.793 130.727 121.797 130.687 121.809 130.648C121.839 130.611 121.878 130.582 121.923 130.564C121.968 130.546 122.016 130.54 122.064 130.547ZM122.064 137.785H123.007C123.262 137.785 123.593 137.785 123.924 137.963L124.969 138.295C125.627 138.526 126.266 138.807 126.881 139.136C127.164 139.268 127.436 139.422 127.697 139.595C127.749 139.655 127.777 139.732 127.777 139.811C127.777 139.891 127.749 139.968 127.697 140.028C127.623 140.105 127.523 140.151 127.416 140.155L126.473 140.002C125.938 139.875 125.25 139.671 124.562 139.442L123.568 139.034L122.701 138.702C122.413 138.574 122.132 138.43 121.86 138.269C121.788 138.226 121.735 138.158 121.711 138.078C121.687 137.997 121.695 137.911 121.733 137.836C121.808 137.787 121.899 137.769 121.987 137.785H122.064Z" fill="#F18380"/>
<path d="M164.216 124.593L164.814 124.316L165.172 125.089L165.81 124.794L165.451 124.02L166.049 123.743L167.028 125.856L166.431 126.133L166.043 125.297L165.405 125.592L165.793 126.429L165.195 126.706L164.216 124.593L164.216 124.593ZM168.182 122.755L169.162 124.868L168.584 125.135L167.837 123.523L167.458 123.699L167.74 124.305C167.866 124.578 168 124.921 167.929 125.183C167.867 125.466 167.596 125.668 167.229 125.761L166.986 125.237C167.333 125.153 167.355 124.989 167.161 124.571L166.647 123.462L168.181 122.751L168.182 122.755ZM168.681 122.523L169.279 122.246L170.199 123.345L169.955 121.933L170.553 121.656L171.812 123.639L171.255 123.898L170.592 122.832L170.796 124.11L170.397 124.295L169.555 123.312L169.94 124.507L169.383 124.765L168.681 122.523L168.681 122.523ZM171.052 121.425L171.65 121.148L172.047 122.006L172.227 120.88L172.885 120.575L172.614 121.972L173.885 122.679L173.168 123.011L172.233 122.402L172.631 123.26L172.033 123.537L171.054 121.424L171.052 121.425L171.052 121.425ZM167.433 120.356C163.846 122.018 162.104 124.478 163.035 126.486C163.956 128.474 166.966 128.755 170.554 127.092C174.161 125.421 175.873 122.949 174.952 120.962C174.022 118.955 171.041 118.684 167.433 120.356ZM170.409 126.779C167.041 128.34 164.219 128.149 163.375 126.328C162.522 124.488 164.211 122.229 167.578 120.669C170.965 119.099 173.76 119.277 174.614 121.119C175.458 122.94 173.798 125.209 170.409 126.779ZM167.714 120.962C164.546 122.43 162.947 124.519 163.713 126.171C164.479 127.824 167.106 127.954 170.273 126.486C173.441 125.018 175.04 122.929 174.274 121.277C173.51 119.623 170.883 119.493 167.714 120.962ZM170.245 126.424C167.116 127.874 164.52 127.755 163.774 126.145C163.028 124.535 164.616 122.477 167.744 121.028C170.871 119.578 173.468 119.696 174.215 121.306C174.963 122.916 173.374 124.974 170.245 126.424L170.245 126.424Z" fill="white"/>
<defs>
<clipPath id="clip0_21_289">
<rect width="74.6922" height="97.2964" fill="white" transform="matrix(-1 0 0 1 155.417 0.930908)"/>
</clipPath>
</defs>
</svg>
