<svg width="211" height="514" viewBox="0 0 211 514" fill="none" xmlns="http://www.w3.org/2000/svg">
    <path d="M39.6845 96.4092C33.9562 103.774 6.35645 181.181 6.35645 181.181C37.0439 171.361 21.7918 167.597 38.4819 170.405C38.4819 170.405 64.5576 115.066 65.2924 111.025C66.0593 107.839 65.7151 104.487 64.3168 101.523C62.9186 98.5597 60.55 96.1625 57.6035 94.7287C49.3897 90.5299 45.4128 89.044 39.6845 96.4092Z" fill="#002776"/>
    <path d="M185.657 95.8426C185.771 93.3589 185.106 90.9017 183.755 88.8142C181.676 86.4032 180.118 83.5878 179.18 80.5454C178.458 77.7212 177.305 75.0251 175.762 72.5522C174.66 71.0362 173.006 69.796 173.006 68.6383C173.006 67.4807 175.211 65.2481 178.353 65.8821C179.699 66.3013 180.936 67.0129 181.974 67.9659C183.013 68.9189 183.828 70.0897 184.362 71.3946C184.663 70.5996 184.839 69.7629 184.885 68.914L185.574 52.0181C185.585 51.5801 185.683 51.1486 185.863 50.7492C186.043 50.3497 186.301 49.9904 186.622 49.6923C186.944 49.3943 187.321 49.1636 187.733 49.014C188.145 48.8643 188.582 48.7986 189.02 48.8208C189.716 48.8506 190.386 49.0979 190.935 49.528C191.484 49.9581 191.884 50.5494 192.079 51.2188V50.447C192.185 49.6257 192.598 48.8748 193.235 48.3453C193.871 47.8157 194.685 47.5465 195.512 47.5918C196.339 47.6372 197.118 47.9937 197.693 48.5898C198.268 49.1858 198.596 49.9773 198.612 50.8053V53.1482C198.888 52.4259 199.414 51.8268 200.095 51.4602C200.776 51.0935 201.565 50.9838 202.32 51.1508C203.075 51.3178 203.745 51.7505 204.208 52.3701C204.671 52.9897 204.895 53.755 204.841 54.5263V56.0146C205.137 55.4933 205.579 55.0697 206.113 54.7956C206.647 54.5214 207.248 54.4087 207.845 54.4711C208.662 54.5748 209.406 54.9925 209.921 55.6355C210.435 56.2786 210.679 57.0966 210.601 57.9165L209.251 72.1663C208.366 80.2002 206.704 88.1294 204.289 95.8426C204.26 97.1305 203.962 98.3979 203.414 99.5636C202.865 100.729 202.079 101.767 201.106 102.611C200.132 103.455 198.993 104.085 197.761 104.462C196.529 104.839 195.232 104.955 193.953 104.8C192.796 104.839 191.644 104.628 190.575 104.183C189.506 103.737 188.546 103.066 187.759 102.217C186.972 101.367 186.377 100.358 186.015 99.2583C185.652 98.1585 185.53 96.9936 185.657 95.8426Z" fill="#FBBEAA"/>
    <path d="M186.208 73.7929C185.161 73.7929 185.078 73.1314 184.61 71.9187C186.953 71.9187 193.761 72.3597 196.737 78.0927C193.733 73.9583 187.972 73.7929 186.208 73.7929ZM191.556 51.9909C191.556 51.9909 191.39 52.9556 191.225 54.3613C191.225 55.078 191.059 55.9324 191.004 56.8144C190.949 57.6964 190.867 58.661 190.784 59.5706C190.784 61.5 190.646 63.4018 190.646 64.8351C190.646 66.2683 190.646 67.233 190.646 67.233C190.646 67.2789 190.655 67.3243 190.674 67.3663C190.692 67.4084 190.719 67.4461 190.752 67.4772C190.786 67.5083 190.826 67.5321 190.869 67.547C190.913 67.5619 190.959 67.5676 191.004 67.5638C191.082 67.5598 191.156 67.5309 191.216 67.4811C191.275 67.4314 191.317 67.3638 191.335 67.2882C191.335 67.2882 191.5 66.3234 191.638 64.8902C191.776 63.4569 191.997 61.5551 192.079 59.6533C192.079 58.6886 192.079 57.7239 192.079 56.897C192.079 56.0702 192.079 55.1606 192.079 54.444C192.079 52.9832 192.079 52.046 192.079 52.046C192.079 52.0001 192.07 51.9548 192.052 51.9128C192.033 51.8707 192.007 51.8329 191.973 51.8018C191.939 51.7707 191.899 51.747 191.856 51.7321C191.813 51.7172 191.767 51.7114 191.721 51.7153C191.668 51.7457 191.625 51.7901 191.596 51.8436C191.566 51.8971 191.553 51.9576 191.556 52.0185V51.9909ZM197.95 53.9203C197.95 53.9203 197.785 54.7472 197.592 55.9599C197.592 56.5939 197.399 57.3105 197.316 58.0822C197.233 58.854 197.151 59.6809 197.068 60.5077C197.068 62.1615 196.875 63.8152 196.848 65.0555C196.82 66.2959 196.848 67.1503 196.848 67.1503C196.851 67.1938 196.863 67.2362 196.883 67.275C196.903 67.3138 196.93 67.3483 196.964 67.3765C196.997 67.4047 197.036 67.426 197.077 67.4393C197.119 67.4525 197.162 67.4573 197.206 67.4536C197.28 67.4484 197.35 67.4184 197.405 67.3684C197.46 67.3183 197.497 67.2512 197.509 67.1779C197.509 67.1779 197.675 66.351 197.867 65.1382C198.06 63.9255 198.226 62.2442 198.364 60.618C198.364 59.7911 198.364 58.9642 198.529 58.1925C198.694 57.4207 198.529 56.6765 198.529 56.0426C198.529 54.8023 198.529 53.9754 198.529 53.9754C198.529 53.9296 198.52 53.8842 198.501 53.8422C198.483 53.8001 198.456 53.7623 198.423 53.7312C198.389 53.7001 198.349 53.6764 198.306 53.6615C198.262 53.6466 198.216 53.6409 198.171 53.6447C198.109 53.6699 198.057 53.7116 198.018 53.7651C197.979 53.8186 197.955 53.8819 197.95 53.9478V53.9203ZM204.124 56.5387C204.124 56.5387 203.959 57.2278 203.738 58.2752C203.738 58.7713 203.518 59.3777 203.435 60.0392C203.352 60.7007 203.242 61.3898 203.132 62.0788C202.939 63.4845 202.856 64.8351 202.801 65.9376C202.746 67.0401 202.801 67.7016 202.801 67.7016C202.801 67.7475 202.81 67.7928 202.829 67.8349C202.847 67.8769 202.874 67.9147 202.908 67.9458C202.941 67.9769 202.981 68.0006 203.024 68.0155C203.068 68.0304 203.114 68.0362 203.159 68.0324C203.23 68.0287 203.297 68.0026 203.352 67.958C203.406 67.9134 203.445 67.8526 203.463 67.7843C203.463 67.7843 203.656 67.0952 203.848 66.0754C204.041 65.0556 204.317 63.6223 204.482 62.2442C204.482 61.5276 204.62 60.8385 204.675 60.177C204.731 59.5155 204.675 58.9091 204.675 58.3854C204.675 57.3381 204.675 56.6214 204.675 56.6214C204.676 56.5755 204.666 56.5302 204.648 56.4882C204.63 56.4461 204.603 56.4083 204.569 56.3772C204.535 56.3461 204.495 56.3224 204.452 56.3075C204.409 56.2926 204.363 56.2868 204.317 56.2907C204.266 56.3191 204.222 56.3586 204.189 56.4063C204.156 56.4541 204.133 56.5088 204.124 56.5663V56.5387Z" fill="#F18380"/>
    <path d="M118.974 93.756L179.045 134.271C178.792 136.343 183.66 93.756 183.66 93.756L205.895 95.8313C205.895 95.8313 204.596 139.19 201.324 162.089C200.025 171.177 192.461 174.623 183.492 172.666C179.064 171.7 174.895 169.883 171.185 167.279C155.244 156.09 110.521 124.574 106.864 120.609C100.556 113.769 100.556 108.645 104.182 103.013C107.807 97.3815 115.566 92.91 118.974 93.756Z" fill="#001A4B"/>
    <path d="M67.9566 324.305C67.8764 330.797 70.3784 337.055 74.9121 341.702C79.4458 346.349 85.6399 349.005 92.1316 349.085C98.6234 349.165 104.881 346.663 109.528 342.129C114.175 337.595 116.831 331.401 116.911 324.91C116.911 324.91 120.008 234.556 121.066 216.248C122.124 197.94 117.339 183.259 96.7399 181.144C75.3853 178.953 64.0029 195.649 64.0029 211.161C64.0029 226.673 67.9566 324.305 67.9566 324.305Z" fill="#7C7C7C"/>
    <path d="M27.7903 322.568C27.3705 325.777 27.5912 329.036 28.4395 332.159C29.2877 335.282 30.7467 338.206 32.7321 340.761C34.7175 343.316 37.1898 345.452 40.0061 347.046C42.8223 348.639 45.9266 349.659 49.1394 350.045C52.3522 350.431 55.6097 350.177 58.7234 349.296C61.8371 348.415 64.7452 346.926 67.2796 344.914C69.814 342.902 71.9243 340.407 73.4885 337.574C75.0526 334.742 76.0396 331.627 76.3922 328.41C76.3922 328.41 89.1344 238.912 92.1563 220.831C95.1781 202.75 91.98 187.616 71.7334 183.31C50.7314 178.852 37.6114 194.239 36.0249 209.65C34.4384 225.062 27.7903 322.568 27.7903 322.568Z" fill="#7C7C7C"/>
    <path d="M108.147 430.776C108.147 430.776 106.939 482.123 106.636 489.803C106.334 497.484 101.474 499.574 93.6423 500.254C85.8106 500.934 82.5117 494.714 81.4037 489.778C80.2957 484.843 73.5972 434.503 73.5972 434.503L108.147 430.776Z" fill="#FBBEAA"/>
    <path d="M107.266 466.585L78.3818 469.683C76.1406 453.793 73.5972 434.427 73.5972 434.427L108.147 430.7C108.147 430.7 107.694 449.94 107.266 466.585Z" fill="#F18380"/>
    <path d="M67.9561 324.305C67.9957 321.091 68.6681 317.916 69.9349 314.961C71.2016 312.007 73.0379 309.331 75.3389 307.086C77.6399 304.841 80.3605 303.071 83.3454 301.878C86.3303 300.685 89.5211 300.091 92.7354 300.13C95.9498 300.17 99.1249 300.843 102.079 302.109C105.034 303.376 107.71 305.212 109.955 307.513C112.2 309.814 113.969 312.535 115.163 315.52C116.356 318.505 116.95 321.695 116.91 324.91L111.874 468.027L72.363 472.283L67.9561 324.305Z" fill="#7C7C7C"/>
    <path d="M56.4479 432.74C56.4479 432.74 49.7494 483.659 48.6414 491.239C47.5333 498.819 42.4717 500.431 34.5897 500.254C26.7076 500.078 24.1138 493.556 23.5346 488.545C22.9554 483.533 21.6963 432.74 21.6963 432.74H56.4479Z" fill="#FBBEAA"/>
    <path d="M51.6128 468.248H22.5524C22.0488 452.232 21.5703 432.74 21.5703 432.74H56.4478C56.4478 432.74 53.9296 451.728 51.6128 468.248Z" fill="#F18380"/>
    <path d="M27.79 322.568C28.6263 316.175 31.9513 310.37 37.0426 306.414C42.1339 302.458 48.5804 300.671 54.9818 301.441C61.3832 302.21 67.2224 305.474 71.2312 310.524C75.24 315.574 77.0946 322.001 76.3919 328.41L54.4838 473.064H14.7461L27.79 322.568Z" fill="#7C7C7C"/>
    <path d="M76.3672 328.41L53.7788 471.805" stroke="#565656" stroke-width="0.75" stroke-miterlimit="10" stroke-linecap="round"/>
    <path d="M76.3921 328.41C76.3921 328.41 89.1343 238.912 92.1562 220.831" stroke="#565656" stroke-width="0.75" stroke-miterlimit="10" stroke-linecap="round"/>
    <path d="M37.2342 474.216C40.0904 474.011 42.9224 474.862 45.1924 476.607C47.4625 478.353 49.0126 480.871 49.5483 483.684L62.6935 497.157V505.542H20.5635C20.5635 505.542 22.6788 490.433 23.2832 487.033C23.8875 483.634 25.9273 474.216 37.2342 474.216Z" fill="#FBBEAA"/>
    <path d="M49.5227 483.583C50.0012 482.929 50.6811 482.425 51.1596 482.727C51.638 483.029 64.3551 493.102 64.9595 493.606C65.3317 493.955 65.6133 494.39 65.78 494.873C65.9467 495.355 65.9935 495.871 65.9164 496.376V507.179H19.6313C19.6313 507.179 21.4444 491.214 21.5704 490.332C21.6963 489.451 22.5777 488.293 23.0813 488.318C26.2582 489.291 29.5552 489.817 32.8772 489.879C37.2924 490.113 41.6966 489.248 45.695 487.361C47.1775 486.33 48.4722 485.052 49.5227 483.583Z" fill="black"/>
    <path d="M58.3117 498.113C56.0705 496.451 48.0121 490.156 44.9902 487.788L45.6953 487.436C45.7905 487.395 45.8762 487.335 45.9472 487.26C49.1705 489.778 56.7504 495.721 58.9161 497.333C60.7468 498.735 62.0009 500.76 62.4416 503.024L61.4595 503.175C61.0441 501.168 59.9283 499.373 58.3117 498.113Z" fill="white"/>
    <path d="M20.8903 496.174C24.1523 496.208 27.3088 497.334 29.8552 499.373C32.1568 501.412 33.7158 504.158 34.2873 507.179H32.9275C32.3713 504.561 30.9953 502.188 28.9991 500.405C26.6555 498.528 23.7418 497.507 20.7393 497.509L20.8903 496.174Z" fill="white"/>
    <path d="M73.3958 507.154H19.6316C19.2561 507.154 18.9517 507.459 18.9517 507.834V513.047C18.9517 513.422 19.2561 513.727 19.6316 513.727H73.3958C73.7713 513.727 74.0758 513.422 74.0758 513.047V507.834C74.0758 507.459 73.7713 507.154 73.3958 507.154Z" fill="white"/>
    <path d="M64.8335 493.505C65.312 493.304 67.654 493.983 70.701 496.98C71.9697 498.291 72.8829 499.905 73.3544 501.667C73.8259 503.43 73.8401 505.284 73.3956 507.053H58.1099C58.9661 497.383 64.3551 493.707 64.8335 493.505Z" fill="white"/>
    <path d="M58.9665 493.656C58.7778 493.888 58.6878 494.184 58.716 494.481C58.7443 494.778 58.8886 495.052 59.1176 495.243C59.23 495.336 59.3595 495.405 59.4989 495.448C59.6382 495.491 59.7846 495.505 59.9296 495.491C60.0746 495.477 60.2154 495.435 60.344 495.366C60.4726 495.298 60.5864 495.204 60.6789 495.092L63.1971 492.045C63.3859 491.814 63.4759 491.517 63.4476 491.22C63.4193 490.923 63.275 490.65 63.046 490.458C62.9351 490.362 62.8059 490.29 62.6661 490.245C62.5264 490.201 62.379 490.185 62.233 490.199C62.087 490.213 61.9454 490.257 61.8168 490.327C61.6881 490.398 61.5752 490.494 61.4847 490.609L58.9665 493.656Z" fill="white"/>
    <path d="M55.9699 491.364C55.7812 491.595 55.6912 491.892 55.7195 492.189C55.7478 492.486 55.892 492.76 56.121 492.951C56.2319 493.047 56.3612 493.119 56.501 493.164C56.6407 493.208 56.788 493.224 56.934 493.21C57.08 493.196 57.2217 493.152 57.3503 493.082C57.4789 493.011 57.5919 492.915 57.6823 492.8L60.2006 489.753C60.3832 489.519 60.4693 489.224 60.4412 488.929C60.4131 488.634 60.2729 488.361 60.0494 488.166C59.9385 488.07 59.8093 487.998 59.6695 487.953C59.5298 487.909 59.3824 487.893 59.2364 487.907C59.0904 487.921 58.9488 487.965 58.8202 488.035C58.6916 488.106 58.5786 488.202 58.4882 488.317L55.9699 491.364Z" fill="white"/>
    <path d="M53.0739 489.098C52.8836 489.322 52.79 489.612 52.8136 489.905C52.8373 490.198 52.9761 490.469 53.1998 490.66C53.4309 490.848 53.727 490.938 54.024 490.91C54.3211 490.882 54.5949 490.738 54.7862 490.509L57.3045 487.461C57.4103 487.358 57.4944 487.235 57.5519 487.099C57.6093 486.962 57.6389 486.816 57.6389 486.668C57.6389 486.52 57.6093 486.374 57.5519 486.238C57.4944 486.102 57.4103 485.978 57.3045 485.875C57.0709 485.692 56.7763 485.606 56.4811 485.634C56.186 485.662 55.9129 485.803 55.718 486.026L53.0739 489.098Z" fill="white"/>
    <path d="M50.1528 486.807C50.0601 486.919 49.9904 487.049 49.9478 487.188C49.9052 487.328 49.8905 487.474 49.9046 487.619C49.9186 487.764 49.9611 487.905 50.0296 488.033C50.0981 488.162 50.1914 488.276 50.3039 488.368C50.5157 488.576 50.8006 488.692 51.0972 488.692C51.3938 488.692 51.6786 488.576 51.8904 488.368L54.4087 485.296C54.5974 485.065 54.6874 484.769 54.6591 484.472C54.6308 484.175 54.4865 483.901 54.2576 483.71C54.1452 483.617 54.0156 483.547 53.8763 483.505C53.7369 483.462 53.5906 483.447 53.4456 483.461C53.3005 483.475 53.1597 483.518 53.0311 483.586C52.9026 483.655 52.7887 483.748 52.6962 483.861L50.1528 486.807Z" fill="white"/>
    <path d="M96.4124 474.216C99.2686 474.011 102.101 474.862 104.371 476.607C106.641 478.353 108.191 480.871 108.727 483.684L121.847 497.157V505.542H79.7417C79.7417 505.542 81.8318 490.433 82.4614 487.033C83.0909 483.634 85.1055 474.216 96.4124 474.216Z" fill="#FBBEAA"/>
    <path d="M108.701 483.583C109.18 482.929 109.835 482.425 110.338 482.727C110.842 483.029 123.534 493.102 124.113 493.606C124.692 494.11 125.095 494.739 125.095 496.376V507.179H78.8101C78.8101 507.179 80.6232 491.214 80.7491 490.332C80.875 489.451 81.7564 488.293 82.26 488.318C85.4369 489.291 88.734 489.817 92.056 489.879C96.4633 490.117 100.86 489.252 104.849 487.361C106.343 486.335 107.646 485.057 108.701 483.583Z" fill="black"/>
    <path d="M117.49 498.113C115.249 496.451 107.19 490.156 104.168 487.788L104.848 487.436C104.951 487.396 105.045 487.336 105.125 487.26C108.349 489.778 115.929 495.721 118.094 497.333C119.925 498.735 121.179 500.76 121.62 503.024L120.638 503.175C120.21 501.173 119.097 499.382 117.49 498.113Z" fill="white"/>
    <path d="M80.0686 496.174C83.3305 496.208 86.4871 497.334 89.0335 499.373C91.335 501.412 92.894 504.158 93.4656 507.179H92.1057C91.5427 504.558 90.1576 502.185 88.1521 500.405C85.8202 498.525 82.9131 497.502 79.9175 497.509L80.0686 496.174Z" fill="white"/>
    <path d="M132.574 507.154H78.8098C78.4343 507.154 78.1299 507.459 78.1299 507.834V513.047C78.1299 513.422 78.4343 513.727 78.8098 513.727H132.574C132.95 513.727 133.254 513.422 133.254 513.047V507.834C133.254 507.459 132.95 507.154 132.574 507.154Z" fill="white"/>
    <path d="M124.012 493.505C124.491 493.304 126.833 493.983 129.88 496.98C131.148 498.291 132.062 499.905 132.533 501.667C133.005 503.43 133.019 505.284 132.574 507.053H117.289C118.145 497.383 123.534 493.707 124.012 493.505Z" fill="white"/>
    <path d="M118.044 493.656C117.855 493.888 117.765 494.184 117.793 494.481C117.821 494.778 117.966 495.052 118.195 495.243C118.307 495.336 118.437 495.405 118.576 495.448C118.715 495.491 118.862 495.505 119.007 495.491C119.152 495.477 119.293 495.435 119.421 495.366C119.55 495.298 119.664 495.204 119.756 495.092L122.274 492.045C122.457 491.811 122.543 491.517 122.515 491.221C122.487 490.926 122.347 490.653 122.123 490.458C122.012 490.362 121.883 490.29 121.743 490.245C121.604 490.201 121.456 490.185 121.31 490.199C121.164 490.213 121.023 490.257 120.894 490.327C120.765 490.398 120.652 490.494 120.562 490.609L118.044 493.656Z" fill="white"/>
    <path d="M115.148 491.365C114.959 491.596 114.869 491.892 114.898 492.189C114.926 492.486 115.07 492.76 115.299 492.951C115.41 493.047 115.539 493.12 115.679 493.164C115.819 493.209 115.966 493.224 116.112 493.21C116.258 493.196 116.4 493.152 116.529 493.082C116.657 493.011 116.77 492.915 116.861 492.8L119.379 489.753C119.561 489.519 119.647 489.225 119.619 488.93C119.591 488.634 119.451 488.361 119.228 488.166C118.997 487.978 118.7 487.888 118.403 487.916C118.106 487.944 117.832 488.089 117.641 488.318L115.148 491.365Z" fill="white"/>
    <path d="M112.251 489.098C112.146 489.199 112.063 489.321 112.006 489.455C111.948 489.589 111.919 489.733 111.919 489.879C111.919 490.025 111.948 490.169 112.006 490.303C112.063 490.437 112.146 490.559 112.251 490.66C112.482 490.848 112.779 490.938 113.076 490.91C113.373 490.882 113.647 490.737 113.838 490.508L116.356 487.461C116.545 487.23 116.635 486.934 116.607 486.637C116.578 486.34 116.434 486.066 116.205 485.875C116.093 485.782 115.963 485.712 115.824 485.67C115.684 485.627 115.538 485.613 115.393 485.627C115.248 485.641 115.107 485.683 114.979 485.752C114.85 485.82 114.736 485.913 114.644 486.026L112.251 489.098Z" fill="white"/>
    <path d="M109.331 486.807C109.238 486.919 109.169 487.049 109.126 487.188C109.083 487.328 109.069 487.474 109.083 487.619C109.097 487.764 109.139 487.905 109.208 488.033C109.276 488.162 109.37 488.276 109.482 488.368C109.694 488.576 109.979 488.692 110.275 488.692C110.572 488.692 110.857 488.576 111.069 488.368L113.587 485.296C113.776 485.065 113.866 484.769 113.837 484.472C113.809 484.175 113.665 483.901 113.436 483.71C113.323 483.617 113.194 483.547 113.055 483.505C112.915 483.462 112.769 483.447 112.624 483.461C112.479 483.475 112.338 483.518 112.209 483.586C112.081 483.655 111.967 483.748 111.875 483.861L109.331 486.807Z" fill="white"/>
    <path d="M120.325 196.663C120.325 196.663 120.325 222.777 120.325 224.212C120.325 225.648 107.734 237.962 91.0131 237.962C65.302 237.962 34.5292 228.569 34.9825 222.45C35.2847 218.42 37.2715 196.663 37.2715 196.663H120.325Z" fill="#7C7C7C"/>
    <path d="M100.286 59.9983H69.9663V95.6565H100.286V59.9983Z" fill="#FBBEAA"/>
    <path d="M101.626 86.5155C87.5234 98.603 73.5053 91.5519 68.8885 85.2563L48.7427 94.0702L53.7791 187.245L120.512 189.763L117.994 100.366L101.626 86.5155Z" fill="white"/>
    <path d="M70.0421 59.9983H100.261V79.8923C98.9409 80.0563 97.6123 80.1404 96.2821 80.1441C85.8566 80.1441 74.1972 77.2985 69.9414 67.3515L70.0421 59.9983Z" fill="#F18380"/>
    <path d="M120.407 94.5486C117.713 92.7858 100.261 82.7129 100.261 82.7129V215.524C102.196 217.409 102.591 217.365 105.369 217.05L105.499 217.035C111.505 215.528 117.3 213.278 122.749 210.337C122.749 210.337 125.066 113.737 125.645 106.384C126.224 99.031 123.102 96.3113 120.407 94.5486Z" fill="#002776"/>
    <path d="M73.3309 217.003C74.5552 216.744 75.7148 216.241 76.741 215.524L69.8914 81.353C69.8914 81.353 50.1232 89.3862 44.8601 91.7282C42.6723 92.6509 40.7965 94.1841 39.4568 96.1445C38.1171 98.1049 37.3703 100.41 37.3054 102.783C36.9781 107.215 36.5248 205.452 36.4492 206.308C36.3737 207.164 37.104 207.642 37.8846 208.096C38.6653 208.549 63.344 215.751 69.6143 217.035C70.8429 217.274 72.1067 217.263 73.3309 217.003Z" fill="#002776"/>
    <path d="M115.949 33.5322C115.697 43.8318 115.949 51.9657 114.086 59.8225C112.222 67.6794 106.531 74.1009 93.9398 74.1009C81.3486 74.1009 66.9947 69.9962 65.9874 54.2572C63.9225 52.016 60.5732 44.0332 60.4473 35.0935C60.3214 26.1538 61.0265 7.24186 81.399 4.34589C101.772 1.44993 116.503 8.92907 115.949 33.5322Z" fill="#FBBEAA"/>
    <path d="M105.297 41.641C105.297 43.0261 106.128 44.1593 107.161 44.1593C108.193 44.1593 109.024 43.0261 109.024 41.641C109.024 40.256 108.193 39.1228 107.161 39.1228C106.128 39.1228 105.297 40.1553 105.297 41.641Z" fill="#403D4F"/>
    <path d="M82.6333 41.641C82.6333 43.0261 83.4643 44.1593 84.4968 44.1593C85.5292 44.1593 86.3603 43.0261 86.3603 41.641C86.3603 40.256 85.5292 39.1228 84.4968 39.1228C83.4643 39.1228 82.6333 40.1553 82.6333 41.641Z" fill="#403D4F"/>
    <path d="M87.1911 36.4025C87.0148 36.6291 85.6801 36.4025 84.6729 36.4025C83.6656 36.4025 81.7266 36.4025 81.7266 36.1758C81.7266 35.9492 82.6834 34.3879 85.2017 34.6649C87.0148 34.8664 87.6695 35.9996 87.1911 36.4025Z" fill="#403D4F"/>
    <path d="M104.869 36.4025C105.02 36.6292 106.153 36.4025 107.035 36.4025C107.916 36.4025 109.553 36.4025 109.553 36.1759C109.327 35.6051 108.9 35.1366 108.353 34.8584C107.806 34.5801 107.176 34.5113 106.582 34.665C105.02 34.8664 104.592 35.9996 104.869 36.4025Z" fill="#403D4F"/>
    <path d="M97.4402 52.0661C99.2029 52.0661 100.613 50.9078 100.664 50.0767L100.084 42.9753C100.065 42.7993 99.9782 42.6378 99.8418 42.5249C99.7055 42.412 99.5305 42.3568 99.3541 42.371C99.268 42.3773 99.184 42.4006 99.107 42.4396C99.03 42.4785 98.9613 42.5323 98.9052 42.5978C98.849 42.6633 98.8064 42.7393 98.7797 42.8214C98.753 42.9035 98.7428 42.99 98.7496 43.0761L99.3036 49.9256C99.0491 50.2016 98.7362 50.4172 98.3876 50.5567C98.039 50.6961 97.6637 50.7558 97.2891 50.7315C97.201 50.7246 97.1125 50.7357 97.0289 50.7639C96.9452 50.7922 96.8681 50.837 96.8022 50.8959C96.7364 50.9547 96.6831 51.0262 96.6455 51.1061C96.608 51.1861 96.5871 51.2728 96.584 51.361C96.5835 51.5396 96.6508 51.7118 96.7723 51.8426C96.8939 51.9735 97.0605 52.0534 97.2387 52.0661H97.4402Z" fill="#F18380"/>
    <path d="M71.447 38.2158C71.447 48.377 66.4105 44.5997 66.4105 44.5997C65.1514 40.8224 62.9579 42.4467 60.0744 42.4467C57.1909 42.4467 57.5614 40.3466 54.6779 33.4214C52.3712 27.8813 55.0304 19.0784 56.7605 16.9476C53.8927 13.1904 57.7818 10.9521 57.6473 11.5217C56.7605 15.2763 59.8346 11.5027 61.3741 10.0224C77.8168 -5.78815 119.253 2.15491 119.253 2.15491L114.949 7.60101L125.548 4.67319C125.548 4.67319 124.857 10.4083 123.03 13.487C121.509 16.051 117.833 19.0784 117.833 19.0784L129.366 20.1438C129.366 20.1438 121.869 28.1343 111.489 29.1997C99.7985 30.3996 87.2677 24.9381 87.2677 24.9381L91.8813 30.2651C91.8813 30.2651 80.2202 27.8868 76.4429 29.8555C74.027 31.1146 71.447 33.6732 71.447 38.2158Z" fill="#7D4A40"/>
    <path d="M66.5412 46.4256C66.4152 43.5548 65.9619 39.3242 61.8824 39.2235C57.8029 39.1227 57.274 42.195 57.4 47.03C57.5259 51.865 62.4364 55.9697 66.7426 54.3077L66.5412 46.4256Z" fill="#FBBEAA"/>
    <path d="M60.548 49.9003C60.7246 49.8695 60.8819 49.7702 60.9857 49.624C61.0894 49.4778 61.1312 49.2965 61.102 49.1196C61.1022 48.9775 61.1424 48.8383 61.2182 48.718C61.2939 48.5978 61.402 48.5013 61.5301 48.4397C61.7871 48.2676 62.0895 48.1757 62.3989 48.1757C62.7083 48.1757 63.0106 48.2676 63.2677 48.4397C63.3795 48.5014 63.5051 48.5338 63.6328 48.5338C63.7606 48.5338 63.8862 48.5014 63.998 48.4397C64.1006 48.3719 64.1829 48.2776 64.2361 48.1667C64.2893 48.0558 64.3114 47.9326 64.3002 47.8102C63.9476 43.7558 61.3538 43.0003 61.2531 42.9751C61.1671 42.9486 61.0766 42.9401 60.9872 42.9501C60.8978 42.9601 60.8114 42.9885 60.7334 43.0334C60.6554 43.0783 60.5875 43.1388 60.534 43.2111C60.4804 43.2834 60.4423 43.3659 60.4221 43.4536C60.3756 43.6206 60.3972 43.7992 60.4822 43.9502C60.5671 44.1013 60.7085 44.2125 60.8754 44.2594C61.3785 44.4872 61.8169 44.8367 62.151 45.2763C62.4852 45.716 62.7045 46.232 62.7892 46.7777C62.0991 46.6652 61.3918 46.8085 60.7998 47.1806C60.4549 47.3828 60.1761 47.6808 59.9973 48.0385C59.8185 48.3961 59.7473 48.7979 59.7925 49.1952C59.7883 49.2933 59.8053 49.3911 59.8425 49.482C59.8797 49.5729 59.9361 49.6547 60.0079 49.7217C60.0797 49.7887 60.1651 49.8394 60.2584 49.8702C60.3516 49.901 60.4504 49.9113 60.548 49.9003Z" fill="#F18380"/>
    <path d="M95.7029 61.1321C93.2719 61.0383 90.9378 60.1542 89.0547 58.6139" stroke="#73102A" stroke-width="0.5" stroke-miterlimit="10" stroke-linecap="round"/>
    <path d="M95.7886 56.6753C92.263 55.5169 88.2339 54.157 86.8489 55.7939C85.766 56.9019 87.2266 62.1146 92.6408 63.0212C98.055 63.9278 99.994 60.2008 99.717 58.7654C99.5407 57.884 98.5586 57.607 95.7886 56.6753Z" fill="#73102A"/>
    <path d="M86.9747 55.7189H86.8489C85.766 56.8269 87.2266 62.0396 92.6408 62.9462C93.8171 63.2193 95.0403 63.2193 96.2166 62.9462C95.3046 61.1344 94.0031 59.5468 92.4053 58.2973C90.8075 57.0478 88.9529 56.1673 86.9747 55.7189Z" fill="#D65155"/>
    <path d="M88.2334 55.1642C89.66 56.7146 91.4715 57.8597 93.484 58.4834C95.4964 59.107 97.638 59.1869 99.6913 58.7149C99.4899 57.8587 98.4826 57.5817 95.7881 56.6751C93.3967 55.6699 90.8275 55.156 88.2334 55.1642Z" fill="white"/>
    <g filter="url(#filter0_d_110_33)">
        <rect x="63.3921" y="127.946" width="45.5256" height="64.8739" rx="1" transform="rotate(-6.55484 63.3921 127.946)" fill="#EFEFEF"/>
    </g>
    <path d="M82.5661 154.235C85.7921 152.872 88.7092 150.852 91.132 148.303C92.6316 146.73 94.3323 145.364 96.1884 144.242C97.2772 143.562 98.2169 142.663 98.9483 141.604C99.9146 139.961 100.714 138.226 101.335 136.425C101.565 134.875 102.093 133.381 102.888 132.027C103.644 131.334 106.313 131.704 107.698 134.397C108.176 135.596 108.392 136.888 108.333 138.184C108.274 139.481 107.94 140.753 107.355 141.916C106.665 143.31 106.125 144.773 105.744 146.28L105.995 146.43C108.106 145.31 110.362 144.497 112.694 144.017C113.54 143.827 114.421 143.93 115.195 144.307C115.97 144.684 116.592 145.314 116.963 146.095C117.333 146.877 117.43 147.764 117.237 148.614C117.045 149.464 116.574 150.228 115.901 150.782C119.541 151.2 119.127 156.813 116.003 157.555C116.672 157.836 117.237 158.318 117.621 158.935C118.005 159.553 118.19 160.277 118.151 161.009C118.112 161.741 117.85 162.446 117.402 163.028C116.953 163.61 116.34 164.042 115.644 164.265C117.863 166.311 116.241 169.683 112.211 169.698C108.938 170.031 100.182 171.401 97.1362 172.057C94.0901 172.713 87.9674 171.262 86.0006 171.871C83.0729 172.944 79.6726 172.961 77.0789 165.257C74.4853 157.554 79.5534 155.231 82.5661 154.235Z" fill="#FBBEAA"/>
    <path d="M88.3299 174.902L29.3583 198.644C21.8222 202.434 9.57835 200.49 5.8873 191.676C5.21145 190.032 4.87649 188.268 4.90272 186.492C4.92895 184.715 5.3158 182.962 6.03986 181.339C6.76392 179.716 7.81009 178.257 9.11489 177.051C10.4197 175.845 11.956 174.916 13.6305 174.321L83.3258 149.114L88.3299 174.902Z" fill="#002776"/>
    <defs>
        <filter id="filter0_d_110_33" x="63.4995" y="122.857" width="54.4185" height="69.4316" filterUnits="userSpaceOnUse" color-interpolation-filters="sRGB">
            <feFlood flood-opacity="0" result="BackgroundImageFix"/>
            <feColorMatrix in="SourceAlpha" type="matrix" values="0 0 0 0 0 0 0 0 0 0 0 0 0 0 0 0 0 0 127 0" result="hardAlpha"/>
            <feOffset dx="2"/>
            <feComposite in2="hardAlpha" operator="out"/>
            <feColorMatrix type="matrix" values="0 0 0 0 0.603922 0 0 0 0 0.6 0 0 0 0 0.631373 0 0 0 1 0"/>
            <feBlend mode="normal" in2="BackgroundImageFix" result="effect1_dropShadow_110_33"/>
            <feBlend mode="normal" in="SourceGraphic" in2="effect1_dropShadow_110_33" result="shape"/>
        </filter>
    </defs>
</svg>
