<svg width="207" height="515" viewBox="0 0 207 515" fill="none" xmlns="http://www.w3.org/2000/svg">
<path d="M108.566 67.9553H138.495V103.155H108.566V67.9553Z" fill="#FBBEAA"/>
<path d="M138.38 67.9553H108.572V87.5934C109.874 87.7553 111.185 87.8383 112.497 87.842C122.781 87.842 134.282 85.033 138.479 75.214L138.38 67.9553Z" fill="#F18380"/>
<path d="M93.1019 41.8293C93.3256 51.9964 93.1019 60.0257 94.9166 67.7815C96.7312 75.5373 102.374 81.8762 114.803 81.8762C127.232 81.8762 141.402 77.8242 142.396 62.2878C144.434 60.0754 147.741 52.1953 147.865 43.3706C147.989 34.5458 147.318 15.8772 127.183 13.0185C107.047 10.1598 92.5302 17.5427 93.1019 41.8293Z" fill="#FBBEAA"/>
<path d="M103.595 49.8335C103.595 51.2007 102.775 52.3193 101.755 52.3193C100.736 52.3193 99.9159 51.2007 99.9159 49.8335C99.9159 48.4663 100.736 47.3477 101.755 47.3477C102.775 47.3477 103.595 48.3668 103.595 49.8335Z" fill="#403D4F"/>
<path d="M125.965 49.8335C125.965 51.2007 125.145 52.3193 124.125 52.3193C123.106 52.3193 122.286 51.2007 122.286 49.8335C122.286 48.4663 123.131 47.3477 124.125 47.3477C125.12 47.3477 125.965 48.3668 125.965 49.8335Z" fill="#403D4F"/>
<path d="M121.369 42.028C121.568 42.2517 122.86 42.028 123.855 42.028C124.849 42.028 126.763 42.028 126.763 41.8043C126.763 41.5806 125.818 40.0393 123.332 40.3128C121.642 40.5117 121.145 41.6303 121.369 42.028Z" fill="#403D4F"/>
<path d="M103.968 42.028C103.818 42.2517 102.7 42.028 101.83 42.028C100.96 42.028 99.3439 42.028 99.3439 41.8043C99.3439 41.5806 100.139 40.0393 102.252 40.3128C103.968 40.5117 104.291 41.6303 103.968 42.028Z" fill="#403D4F"/>
<path d="M111.423 60.125C109.683 60.125 108.291 58.9815 108.242 58.1612L108.813 51.1511C108.832 50.9774 108.918 50.8179 109.053 50.7065C109.187 50.5951 109.36 50.5406 109.534 50.5545C109.619 50.5608 109.702 50.5838 109.778 50.6223C109.854 50.6607 109.922 50.7138 109.977 50.7785C110.033 50.8431 110.075 50.9182 110.101 50.9992C110.127 51.0802 110.138 51.1656 110.131 51.2505L109.584 58.012C109.835 58.2845 110.144 58.4973 110.488 58.6349C110.832 58.7726 111.203 58.8315 111.573 58.8075C111.659 58.8007 111.747 58.8116 111.829 58.8395C111.912 58.8674 111.988 58.9117 112.053 58.9698C112.118 59.0278 112.171 59.0984 112.208 59.1773C112.245 59.2562 112.265 59.3418 112.269 59.429C112.272 59.5171 112.258 59.605 112.227 59.6878C112.196 59.7705 112.15 59.8463 112.09 59.911C112.03 59.9756 111.957 60.0278 111.877 60.0645C111.797 60.1012 111.71 60.1218 111.622 60.125H111.423Z" fill="#F18380"/>
<path d="M112.842 65.0958C110.754 65.2201 107.249 66.3884 107.224 67.3082C107.256 69.0159 107.961 70.6419 109.185 71.8333C110.409 73.0247 112.054 73.6854 113.762 73.6719C121.418 73.6719 121.393 67.7557 121.07 66.463C120.747 65.1704 116.72 64.8472 112.842 65.0958Z" fill="#73102A"/>
<path d="M121.093 68.5268C119.022 67.7767 116.763 67.7229 114.659 68.3734C112.555 69.024 110.72 70.3433 109.434 72.1312C110.622 73.185 112.172 73.7374 113.759 73.6724C119.178 73.6724 120.745 70.7392 121.093 68.5268Z" fill="#D65155"/>
<path d="M120.769 66.0162C119.7 65.0965 116.195 64.8728 112.839 65.0965C110.776 65.2208 107.296 66.3643 107.221 67.3089C111.776 67.9545 116.419 67.5116 120.769 66.0162Z" fill="white"/>
<path d="M129.869 32.8303C129.869 38.9454 132.355 41.6053 134.219 42.7736C136.084 43.9419 137.451 45.1103 137.451 47.2233V54.6808C137.451 55.526 137.948 56.1723 138.594 55.9485C139.241 55.7248 141.652 54.5068 141.652 53.2887L149.11 48.0187C151.049 43.4241 151.769 38.4062 151.198 33.4517C150.976 30.6737 150.157 27.9763 148.797 25.5438C147.437 23.1113 145.568 21.001 143.318 19.357C143.318 14.0622 138.346 4.64086 127.881 0.912109C127.625 2.82597 127.625 4.76539 127.881 6.67925C123.133 2.37875 107.149 1.06126 101.406 3.04993C102.249 4.93344 103.467 6.62518 104.986 8.0216C97.1423 9.83303 90.1628 14.2929 85.2236 20.6497C86.7971 22.7016 88.7882 24.3961 91.0653 25.6213C88.453 29.2148 86.9026 33.4697 86.5908 37.9014C91.3102 37.4644 95.9365 36.3162 100.313 34.4958C100.068 36.6805 100.194 38.8908 100.685 41.0335C105.657 40.7352 115.054 35.6641 117.713 31.5873C117.297 34.9077 117.482 38.276 118.26 41.5307C122.882 39.7992 126.91 36.7799 129.869 32.8303Z" fill="#403D4F"/>
<path d="M141.877 54.5567C141.877 51.7228 142.449 47.5466 146.451 47.4472C150.453 47.3478 151 50.3805 150.876 55.1533C150.751 59.9261 145.904 63.978 141.653 62.3374L141.877 54.5567Z" fill="#FBBEAA"/>
<path d="M147.768 57.987C147.597 57.9509 147.445 57.8515 147.344 57.7087C147.242 57.5658 147.199 57.3901 147.221 57.2164C147.221 57.0792 147.183 56.9447 147.114 56.8267C147.044 56.7087 146.944 56.6115 146.823 56.5452C146.565 56.3762 146.262 56.2862 145.953 56.2862C145.644 56.2862 145.342 56.3762 145.083 56.5452C144.978 56.6063 144.858 56.6384 144.735 56.6384C144.613 56.6384 144.493 56.6063 144.387 56.5452C144.279 56.4836 144.192 56.3922 144.134 56.282C144.077 56.1718 144.053 56.0474 144.064 55.9237C144.437 51.9215 146.973 51.1758 147.072 51.1509C147.157 51.1247 147.246 51.1163 147.335 51.1262C147.423 51.1361 147.508 51.1641 147.585 51.2084C147.662 51.2527 147.729 51.3124 147.782 51.3838C147.835 51.4552 147.872 51.5367 147.892 51.6232C147.938 51.788 147.917 51.9643 147.833 52.1134C147.749 52.2625 147.61 52.3723 147.445 52.4187C146.951 52.6472 146.52 52.9932 146.191 53.4265C145.862 53.8599 145.644 54.3674 145.556 54.9045C146.237 54.7935 146.935 54.935 147.52 55.3023C147.864 55.497 148.143 55.7903 148.321 56.1447C148.498 56.499 148.565 56.8981 148.514 57.2909C148.523 57.3889 148.509 57.4876 148.474 57.5795C148.439 57.6714 148.383 57.7541 148.311 57.8212C148.239 57.8884 148.153 57.9382 148.059 57.9669C147.965 57.9956 147.865 58.0025 147.768 57.987Z" fill="#F18380"/>
<path d="M168.718 104.194C174.254 111.312 206.285 198.308 206.285 198.308C176.627 188.818 179.41 163.169 163.28 165.882C163.28 165.882 144.68 122.225 143.969 118.32C143.228 115.241 143.561 112.001 144.912 109.137C146.264 106.273 148.553 103.956 151.4 102.57C159.339 98.5121 163.182 97.0761 168.718 104.194Z" fill="#002366"/>
<path d="M27.1411 98.0624C27.0189 95.3931 27.7335 92.7524 29.185 90.509C31.4196 87.9179 33.0938 84.8923 34.1021 81.6226C34.8777 78.5875 36.1167 75.69 37.7752 73.0324C38.96 71.4033 40.7373 70.0703 40.7373 68.8263C40.7373 67.5822 38.3676 65.1828 34.9908 65.8641C33.5444 66.3147 32.2154 67.0795 31.099 68.1036C29.9827 69.1278 29.1065 70.386 28.5333 71.7884C28.2098 70.934 28.02 70.0348 27.9706 69.1225L27.23 50.9647C27.2188 50.494 27.1133 50.0302 26.9199 49.6009C26.7265 49.1717 26.4489 48.7855 26.1038 48.4652C25.7586 48.1449 25.3529 47.897 24.9104 47.7361C24.4678 47.5753 23.9976 47.5047 23.5274 47.5286C22.7787 47.5605 22.0588 47.8263 21.469 48.2886C20.8793 48.7508 20.4493 49.3863 20.2394 50.1056V49.2762C20.1254 48.3935 19.6819 47.5866 18.9976 47.0175C18.3133 46.4483 17.4391 46.1591 16.5504 46.2078C15.6617 46.2566 14.8244 46.6397 14.2065 47.2803C13.5886 47.9208 13.2359 48.7715 13.2192 49.6613V52.1791C12.9225 51.4029 12.3568 50.7591 11.6251 50.3651C10.8935 49.971 10.0446 49.8531 9.23321 50.0326C8.42183 50.2121 7.70195 50.6771 7.2048 51.343C6.70764 52.0089 6.46629 52.8313 6.52474 53.6602V55.2597C6.20592 54.6994 5.7308 54.2442 5.1574 53.9496C4.584 53.655 3.93718 53.5338 3.29604 53.6009C2.41804 53.7124 1.61793 54.1612 1.06505 54.8523C0.512161 55.5434 0.249912 56.4225 0.33392 57.3036L1.78533 72.6178C2.73615 81.2517 4.52182 89.7731 7.1172 98.0624C7.14858 99.4464 7.46923 100.809 8.0585 102.061C8.64778 103.314 9.49264 104.43 10.5388 105.336C11.585 106.243 12.8093 106.921 14.1331 107.326C15.4568 107.731 16.8507 107.855 18.2252 107.689C19.469 107.731 20.7072 107.504 21.8558 107.025C23.0044 106.546 24.0365 105.826 24.8822 104.912C25.7278 103.999 26.3672 102.915 26.757 101.733C27.1468 100.551 27.2777 99.2994 27.1411 98.0624Z" fill="#FBBEAA"/>
<path d="M26.5486 74.3658C27.6742 74.3658 27.763 73.6549 28.2666 72.3516C25.7488 72.3516 18.4324 72.8255 15.2333 78.9867C18.462 74.5435 24.6529 74.3658 26.5486 74.3658ZM20.8021 50.9354C20.8021 50.9354 20.9798 51.9722 21.1575 53.4829C21.1575 54.253 21.3353 55.1712 21.3945 56.1191C21.4538 57.067 21.5426 58.1037 21.6315 59.0812C21.6315 61.1547 21.7795 63.1986 21.7795 64.7389C21.7795 66.2792 21.7795 67.3159 21.7795 67.3159C21.7797 67.3652 21.7697 67.414 21.75 67.4592C21.7303 67.5044 21.7014 67.5449 21.6652 67.5784C21.629 67.6118 21.5862 67.6374 21.5396 67.6534C21.493 67.6694 21.4437 67.6755 21.3945 67.6714C21.3112 67.6672 21.2314 67.636 21.1673 67.5826C21.1032 67.5292 21.0582 67.4565 21.039 67.3752C21.039 67.3752 20.8613 66.3384 20.7132 64.7981C20.5651 63.2578 20.3281 61.214 20.2393 59.1701C20.2393 58.1334 20.2393 57.0966 20.2393 56.208C20.2393 55.3193 20.2393 54.3419 20.2393 53.5717C20.2393 52.0018 20.2393 50.9946 20.2393 50.9946C20.2391 50.9453 20.2492 50.8966 20.2688 50.8514C20.2885 50.8062 20.3174 50.7656 20.3536 50.7322C20.3898 50.6988 20.4326 50.6733 20.4792 50.6573C20.5258 50.6412 20.5753 50.6351 20.6244 50.6392C20.6811 50.6718 20.7278 50.7196 20.7592 50.7771C20.7905 50.8346 20.8054 50.8996 20.8021 50.9651V50.9354ZM13.9299 53.0089C13.9299 53.0089 14.1077 53.8975 14.315 55.2009C14.315 55.8822 14.5224 56.6523 14.6113 57.4817C14.7001 58.3111 14.789 59.1997 14.8778 60.0883C14.8778 61.8656 15.0852 63.6429 15.1148 64.9758C15.1444 66.3088 15.1148 67.2271 15.1148 67.2271C15.111 67.2738 15.0981 67.3193 15.0767 67.361C15.0553 67.4028 15.0259 67.4399 14.9901 67.4701C14.9543 67.5004 14.9129 67.5234 14.8682 67.5376C14.8235 67.5518 14.7765 67.557 14.7298 67.553C14.6501 67.5474 14.5746 67.5151 14.5154 67.4614C14.4563 67.4076 14.417 67.3355 14.4039 67.2567C14.4039 67.2567 14.2262 66.368 14.0188 65.0647C13.8115 63.7614 13.6338 61.9545 13.4856 60.2069C13.4856 59.3182 13.4857 58.4296 13.3079 57.6002C13.1302 56.7708 13.3079 55.971 13.3079 55.2897C13.3079 53.9568 13.3079 53.0681 13.3079 53.0681C13.3078 53.0189 13.3178 52.9701 13.3375 52.9249C13.3572 52.8798 13.3861 52.8391 13.4223 52.8057C13.4585 52.7723 13.5012 52.7468 13.5478 52.7308C13.5944 52.7148 13.6439 52.7086 13.693 52.7127C13.7587 52.7398 13.8156 52.7846 13.8574 52.8421C13.8993 52.8997 13.9244 52.9676 13.9299 53.0385V53.0089ZM7.29482 55.8229C7.29482 55.8229 7.4725 56.5634 7.70947 57.689C7.70947 58.2222 7.94649 58.8739 8.03535 59.5848C8.12422 60.2957 8.24266 61.0363 8.36114 61.7768C8.56849 63.2875 8.65743 64.7389 8.71667 65.9237C8.77592 67.1086 8.71667 67.8195 8.71667 67.8195C8.71684 67.8688 8.70671 67.9175 8.68702 67.9627C8.66734 68.0079 8.63844 68.0485 8.60223 68.082C8.56602 68.1154 8.52328 68.1409 8.47667 68.1569C8.43007 68.1729 8.38069 68.1791 8.33158 68.175C8.25596 68.171 8.18355 68.143 8.12494 68.0951C8.06633 68.0471 8.02453 67.9817 8.0057 67.9084C8.0057 67.9084 7.7984 67.1679 7.59105 66.0719C7.38371 64.9759 7.08746 63.4356 6.90973 61.9545C6.90973 61.1843 6.7616 60.4438 6.70236 59.7329C6.64312 59.022 6.70236 58.3704 6.70236 57.8075C6.70236 56.6819 6.70236 55.9117 6.70236 55.9117C6.70219 55.8625 6.71233 55.8137 6.73201 55.7686C6.7517 55.7234 6.7805 55.6828 6.81672 55.6493C6.85293 55.6159 6.89576 55.5904 6.94237 55.5744C6.98897 55.5584 7.03834 55.5522 7.08745 55.5563C7.14214 55.5868 7.18922 55.6293 7.22513 55.6806C7.26104 55.7319 7.28487 55.7907 7.29482 55.8525V55.8229Z" fill="#F18380"/>
<path d="M98.8053 95.8198L34.2475 139.36C34.5191 141.588 29.2874 95.8198 29.2874 95.8198L5.39221 98.0502C5.39221 98.0502 6.78819 144.648 10.3046 169.257C11.7002 179.023 19.8292 182.727 29.4681 180.624C34.2271 179.585 38.7073 177.632 42.6942 174.834C59.8261 162.809 107.889 128.939 111.819 124.678C118.598 117.327 118.598 111.821 114.702 105.768C110.806 99.7162 102.468 94.9107 98.8053 95.8198Z" fill="#001A4B"/>
<path d="M179.928 326.649C180.342 329.809 180.124 333.019 179.289 336.095C178.453 339.17 177.017 342.05 175.061 344.566C173.106 347.083 170.671 349.186 167.897 350.756C165.124 352.325 162.067 353.329 158.902 353.71C155.738 354.09 152.53 353.839 149.464 352.972C146.397 352.104 143.533 350.637 141.037 348.656C138.541 346.675 136.463 344.218 134.922 341.428C133.382 338.638 132.41 335.571 132.063 332.403C132.063 332.403 119.513 244.26 116.537 226.453C113.561 208.647 116.711 193.741 136.651 189.5C157.335 185.111 170.256 200.264 171.818 215.442C173.381 230.62 179.928 326.649 179.928 326.649Z" fill="#93929C"/>
<path d="M140.371 328.36C140.45 334.753 137.986 340.916 133.521 345.493C129.056 350.07 122.955 352.685 116.562 352.764C110.168 352.843 104.006 350.379 99.4289 345.914C94.8523 341.449 92.2368 335.349 92.1578 328.955C92.1578 328.955 89.1074 239.97 88.0657 221.94C87.0241 203.909 91.7363 189.451 112.023 187.367C133.054 185.21 144.264 201.653 144.264 216.93C144.264 232.207 140.371 328.36 140.371 328.36Z" fill="#93929C"/>
<path d="M100.789 433.218C100.789 433.218 101.979 483.787 102.277 491.351C102.574 498.915 107.361 500.974 115.074 501.643C122.787 502.313 126.036 496.187 127.127 491.326C128.218 486.465 134.815 436.888 134.815 436.888L100.789 433.218Z" fill="#FBBEAA"/>
<path d="M101.657 468.485L130.103 471.535C132.311 455.886 134.815 436.814 134.815 436.814L100.789 433.143C100.789 433.143 101.235 452.091 101.657 468.485Z" fill="#F18380"/>
<path d="M140.371 328.36C140.332 325.195 139.67 322.068 138.422 319.158C137.174 316.248 135.366 313.613 133.1 311.402C130.834 309.191 128.154 307.448 125.215 306.273C122.275 305.097 119.133 304.513 115.967 304.552C112.801 304.591 109.674 305.253 106.764 306.501C103.855 307.748 101.219 309.557 99.0082 311.823C96.7974 314.089 95.0545 316.768 93.8791 319.708C92.7038 322.648 92.119 325.79 92.158 328.956L97.1182 469.905L136.031 474.097L140.371 328.36Z" fill="#93929C"/>
<path d="M151.705 435.152C151.705 435.152 158.302 485.3 159.393 492.765C160.484 500.23 165.469 501.817 173.232 501.643C180.995 501.47 183.549 495.046 184.119 490.111C184.69 485.176 185.93 435.152 185.93 435.152H151.705Z" fill="#FBBEAA"/>
<path d="M156.467 470.122H185.087C185.583 454.348 186.054 435.152 186.054 435.152H151.705C151.705 435.152 154.185 453.852 156.467 470.122Z" fill="#F18380"/>
<path d="M179.929 326.649C179.105 320.353 175.831 314.636 170.816 310.74C165.802 306.844 159.453 305.084 153.149 305.842C146.845 306.599 141.094 309.814 137.146 314.787C133.198 319.761 131.371 326.091 132.063 332.403L153.639 474.865H192.775L179.929 326.649Z" fill="#93929C"/>
<path d="M132.088 332.403L154.334 473.625" stroke="#676767" stroke-width="0.75" stroke-miterlimit="10" stroke-linecap="round"/>
<path d="M132.062 332.403C132.062 332.403 119.513 244.261 116.537 226.454" stroke="#676767" stroke-width="0.75" stroke-miterlimit="10" stroke-linecap="round"/>
<path d="M170.628 475.999C167.815 475.797 165.026 476.636 162.79 478.355C160.554 480.074 159.028 482.554 158.5 485.324L145.554 498.593V506.851H187.046C187.046 506.851 184.963 491.971 184.367 488.623C183.772 485.275 181.763 475.999 170.628 475.999Z" fill="#FBBEAA"/>
<path d="M158.525 485.225C158.054 484.58 157.384 484.084 156.913 484.382C156.442 484.679 143.917 494.6 143.322 495.096C142.956 495.44 142.678 495.868 142.514 496.343C142.35 496.819 142.304 497.327 142.38 497.824V508.463H187.964C187.964 508.463 186.178 492.74 186.054 491.872C185.93 491.004 185.062 489.863 184.566 489.888C181.437 490.846 178.19 491.364 174.918 491.425C170.57 491.656 166.233 490.804 162.295 488.945C160.835 487.93 159.56 486.671 158.525 485.225Z" fill="#2E70AC"/>
<path d="M149.87 499.535C152.077 497.898 160.013 491.698 162.989 489.367L162.295 489.02C162.201 488.979 162.117 488.92 162.047 488.846C158.872 491.326 151.407 497.179 149.274 498.766C147.471 500.148 146.236 502.142 145.802 504.371L146.769 504.52C147.179 502.543 148.277 500.776 149.87 499.535Z" fill="#1E2173"/>
<path d="M186.724 497.625C183.511 497.658 180.402 498.767 177.894 500.775C175.628 502.783 174.092 505.488 173.529 508.463H174.869C175.416 505.885 176.772 503.548 178.738 501.792C181.046 499.944 183.915 498.937 186.872 498.94L186.724 497.625Z" fill="#1E2173"/>
<path d="M135.014 508.439H187.964C188.333 508.439 188.633 508.739 188.633 509.109V514.242C188.633 514.612 188.333 514.912 187.964 514.912H135.014C134.644 514.912 134.344 514.612 134.344 514.242V509.109C134.344 508.739 134.644 508.439 135.014 508.439Z" fill="white"/>
<path d="M143.446 494.997C142.975 494.798 140.669 495.468 137.668 498.419C136.418 499.71 135.519 501.299 135.054 503.035C134.59 504.771 134.576 506.597 135.014 508.339H150.068C149.225 498.816 143.918 495.195 143.446 494.997Z" fill="white"/>
<path d="M149.225 495.146C149.411 495.373 149.499 495.665 149.472 495.958C149.444 496.25 149.302 496.52 149.076 496.708C148.965 496.8 148.838 496.868 148.701 496.91C148.563 496.952 148.419 496.967 148.276 496.953C148.134 496.939 147.995 496.897 147.868 496.83C147.742 496.762 147.63 496.67 147.538 496.559L145.058 493.559C144.872 493.331 144.784 493.039 144.812 492.747C144.84 492.454 144.982 492.185 145.207 491.996C145.316 491.902 145.444 491.83 145.581 491.786C145.719 491.742 145.864 491.727 146.008 491.741C146.152 491.755 146.291 491.798 146.418 491.867C146.544 491.937 146.656 492.031 146.745 492.145L149.225 495.146Z" fill="white"/>
<path d="M152.176 492.889C152.362 493.116 152.451 493.408 152.423 493.701C152.395 493.993 152.253 494.263 152.027 494.451C151.918 494.546 151.791 494.617 151.653 494.661C151.515 494.705 151.37 494.72 151.227 494.706C151.083 494.692 150.943 494.649 150.817 494.58C150.69 494.511 150.579 494.416 150.49 494.302L148.009 491.301C147.83 491.071 147.745 490.781 147.773 490.491C147.8 490.2 147.938 489.931 148.158 489.739C148.268 489.644 148.395 489.573 148.532 489.529C148.67 489.485 148.815 489.47 148.959 489.484C149.103 489.498 149.242 489.541 149.369 489.61C149.496 489.68 149.607 489.774 149.696 489.888L152.176 492.889Z" fill="white"/>
<path d="M155.028 490.657C155.216 490.877 155.308 491.163 155.285 491.451C155.261 491.74 155.125 492.007 154.904 492.195C154.677 492.38 154.385 492.469 154.092 492.441C153.8 492.413 153.53 492.271 153.342 492.046L150.862 489.045C150.758 488.943 150.675 488.822 150.618 488.687C150.562 488.553 150.532 488.409 150.532 488.264C150.532 488.118 150.562 487.974 150.618 487.84C150.675 487.706 150.758 487.584 150.862 487.482C151.092 487.303 151.382 487.218 151.673 487.245C151.963 487.273 152.232 487.411 152.424 487.631L155.028 490.657Z" fill="white"/>
<path d="M157.905 488.4C157.997 488.511 158.065 488.638 158.107 488.775C158.149 488.913 158.164 489.057 158.15 489.2C158.136 489.342 158.094 489.481 158.027 489.608C157.959 489.734 157.867 489.846 157.756 489.938C157.548 490.142 157.267 490.257 156.975 490.257C156.683 490.257 156.403 490.142 156.194 489.938L153.714 486.912C153.528 486.684 153.439 486.393 153.467 486.1C153.495 485.808 153.637 485.538 153.863 485.349C153.973 485.258 154.101 485.189 154.238 485.148C154.375 485.106 154.52 485.091 154.662 485.105C154.805 485.119 154.944 485.161 155.07 485.228C155.197 485.296 155.309 485.387 155.4 485.498L157.905 488.4Z" fill="white"/>
<path d="M112.346 475.999C109.533 475.797 106.744 476.636 104.508 478.355C102.272 480.074 100.746 482.554 100.218 485.324L87.2969 498.593V506.851H128.764C128.764 506.851 126.705 491.971 126.085 488.623C125.465 485.275 123.481 475.999 112.346 475.999Z" fill="#FBBEAA"/>
<path d="M100.243 485.225C99.7719 484.58 99.127 484.084 98.631 484.382C98.135 484.679 85.6354 494.6 85.065 495.096C84.4946 495.592 84.0977 496.212 84.0977 497.824V508.463H129.682C129.682 508.463 127.896 492.74 127.772 491.872C127.648 491.004 126.78 489.863 126.284 489.888C123.155 490.846 119.908 491.364 116.636 491.425C112.296 491.66 107.965 490.807 104.038 488.945C102.566 487.935 101.282 486.676 100.243 485.225Z" fill="#2E70AC"/>
<path d="M91.5874 499.535C93.7947 497.898 101.731 491.698 104.707 489.367L104.037 489.02C103.936 488.98 103.844 488.921 103.765 488.846C100.59 491.326 93.125 497.179 90.9922 498.766C89.1892 500.148 87.9541 502.142 87.5201 504.371L88.4873 504.52C88.9085 502.548 90.0049 500.785 91.5874 499.535Z" fill="#1E2173"/>
<path d="M128.442 497.625C125.229 497.658 122.12 498.767 119.612 500.775C117.346 502.783 115.81 505.488 115.247 508.463H116.587C117.141 505.882 118.505 503.545 120.48 501.792C122.777 499.94 125.64 498.933 128.59 498.94L128.442 497.625Z" fill="#1E2173"/>
<path d="M76.7319 508.439H129.682C130.052 508.439 130.351 508.739 130.351 509.109V514.242C130.351 514.612 130.052 514.912 129.682 514.912H76.7319C76.3621 514.912 76.0623 514.612 76.0623 514.242V509.109C76.0623 508.739 76.3621 508.439 76.7319 508.439Z" fill="white"/>
<path d="M85.1644 494.997C84.6931 494.798 82.3866 495.468 79.3857 498.419C78.1363 499.71 77.2369 501.299 76.7725 503.035C76.3082 504.771 76.2942 506.597 76.732 508.339H91.7861C90.9429 498.816 85.6356 495.195 85.1644 494.997Z" fill="white"/>
<path d="M91.0423 495.146C91.2281 495.373 91.3168 495.665 91.2889 495.958C91.2611 496.25 91.119 496.52 90.8935 496.708C90.7828 496.8 90.6551 496.868 90.5179 496.91C90.3807 496.952 90.2366 496.967 90.0938 496.953C89.9509 496.939 89.8122 496.897 89.6856 496.83C89.559 496.762 89.4468 496.67 89.3557 496.559L86.8757 493.559C86.6958 493.329 86.611 493.038 86.6387 492.748C86.6664 492.457 86.8045 492.188 87.0245 491.996C87.1338 491.902 87.261 491.83 87.3986 491.786C87.5363 491.742 87.6814 491.727 87.8252 491.741C87.969 491.755 88.1085 491.798 88.2351 491.867C88.3618 491.937 88.4731 492.031 88.5622 492.145L91.0423 495.146Z" fill="white"/>
<path d="M93.8941 492.888C94.0799 493.116 94.1686 493.408 94.1407 493.7C94.1129 493.993 93.9708 494.263 93.7453 494.451C93.636 494.545 93.5087 494.617 93.3711 494.661C93.2334 494.705 93.0883 494.72 92.9445 494.706C92.8007 494.692 92.6613 494.649 92.5346 494.58C92.4079 494.51 92.2967 494.416 92.2076 494.302L89.7275 491.301C89.5477 491.071 89.4629 490.781 89.4906 490.49C89.5182 490.2 89.6563 489.931 89.8763 489.739C90.1039 489.553 90.3956 489.464 90.6881 489.492C90.9807 489.52 91.2504 489.662 91.4388 489.888L93.8941 492.888Z" fill="white"/>
<path d="M96.7461 490.657C96.8496 490.756 96.9319 490.875 96.9882 491.008C97.0444 491.14 97.0735 491.282 97.0735 491.425C97.0735 491.569 97.0444 491.711 96.9882 491.843C96.9319 491.975 96.8496 492.095 96.7461 492.194C96.5185 492.38 96.2268 492.469 95.9343 492.441C95.6417 492.413 95.372 492.271 95.1836 492.045L92.7035 489.044C92.5176 488.817 92.429 488.525 92.4569 488.233C92.4847 487.94 92.6268 487.67 92.8523 487.482C92.963 487.391 93.0907 487.322 93.2279 487.28C93.3651 487.238 93.5092 487.224 93.652 487.237C93.7948 487.251 93.9336 487.293 94.0602 487.361C94.1868 487.428 94.2989 487.52 94.39 487.631L96.7461 490.657Z" fill="white"/>
<path d="M99.6229 488.4C99.7143 488.511 99.7829 488.638 99.8249 488.775C99.8668 488.913 99.8813 489.057 99.8675 489.2C99.8537 489.342 99.8118 489.481 99.7443 489.608C99.6768 489.734 99.585 489.846 99.4741 489.938C99.2655 490.142 98.985 490.257 98.6929 490.257C98.4008 490.257 98.1203 490.142 97.9117 489.938L95.4316 486.912C95.2457 486.684 95.1571 486.393 95.1849 486.1C95.2128 485.808 95.3549 485.538 95.5804 485.349C95.6911 485.258 95.8187 485.189 95.9559 485.148C96.0931 485.106 96.2373 485.091 96.3801 485.105C96.5229 485.119 96.6616 485.161 96.7883 485.228C96.9149 485.296 97.0269 485.387 97.118 485.498L99.6229 488.4Z" fill="white"/>
<path d="M88.7955 202.651C88.7955 202.651 88.7955 228.37 88.7955 229.783C88.7955 231.197 100.982 243.325 117.166 243.325C142.051 243.325 171.835 234.074 171.396 228.047C171.104 224.079 170.738 202.651 170.738 202.651H88.7955Z" fill="#93929C"/>
<path d="M106.587 92.1065C106.587 92.1065 91.3688 100.348 88.7152 102.084C86.0615 103.82 82.9862 106.498 83.5566 113.74C84.127 120.982 86.4087 217.432 86.4087 217.432C92.6286 217.432 103.397 217.432 103.397 217.432H110.441C110.441 217.432 115.096 217.432 118.079 217.432C123.406 217.432 131.72 217.432 131.72 217.432H135.078H138.738C138.738 217.432 169.219 217.879 169.987 217.432C171.11 217.432 173.431 218.279 173.431 217.432C173.356 216.589 170.88 114.559 170.558 110.194C170.494 107.856 169.758 105.586 168.439 103.655C167.12 101.725 165.272 100.215 163.118 99.306C157.934 96.9995 142.444 91.0198 142.444 91.0198C142.444 91.0198 128.245 108.923 119.219 105.485C113.388 103.264 106.587 92.1065 106.587 92.1065Z" fill="#002366"/>
<path d="M173.264 211.293L173.55 219.248C173.55 219.248 141.844 221.441 122.875 221.376C105.407 221.317 86.4281 219.477 86.4281 219.477L86.2694 212.322C86.2694 212.322 106.591 213.207 124.797 213.207C149.305 213.207 173.264 211.293 173.264 211.293Z" fill="#00163F"/>
<path d="M96.3383 91.7262C93.9486 101.036 108.565 109.384 121.47 105.988C107.885 97.1578 108.565 91.7238 108.565 91.7238V82.2143C104.489 81.5351 97.8424 85.8667 96.3383 91.7262Z" fill="#001A4B"/>
<path d="M138.45 78.8182C142.526 78.139 155.716 79.5178 160.186 86.9689C162.224 90.3653 158.022 97.1272 158.022 97.1272C158.022 97.1272 157.722 97.1272 153.485 95.5433C150.088 103.015 133.016 109.384 120.496 106.058C138.45 96.4786 138.45 91.7233 138.45 91.7233V78.8182Z" fill="#001A4B"/>
<path d="M152.795 145.304C148.306 140.764 139.912 130.975 137.071 128.591C134.262 126.474 131.194 124.727 127.941 123.391C125.473 122.565 122.921 122.012 120.332 121.743C118.532 121.515 117.796 122.047 117.796 123.138C117.841 123.788 118.048 124.416 118.398 124.965C118.748 125.514 119.23 125.967 119.8 126.283H116.477C115.336 126.283 114.601 127.196 115.133 128.667C115.617 129.639 116.308 130.492 117.159 131.167C118.009 131.842 118.997 132.322 120.053 132.572C120.053 132.572 115.564 133.004 114.423 133.232C113.282 133.46 112.927 133.891 112.927 134.982C112.937 135.735 113.146 136.472 113.534 137.118C113.921 137.764 114.473 138.296 115.133 138.659C116.749 139.315 118.464 139.692 120.206 139.775C120.206 139.775 114.651 141.17 113.535 141.576C112.419 141.982 112.293 142.717 112.876 143.681C113.208 144.36 113.688 144.956 114.281 145.425C114.873 145.895 115.563 146.226 116.3 146.395C118.405 146.953 119.825 146.04 120.586 146.166C122.221 146.693 123.822 147.32 125.379 148.043C127.719 150.372 130.579 152.111 133.723 153.115C136.064 154.098 138.211 155.489 140.064 157.224C140.927 158.034 141.944 158.663 143.054 159.073C144.164 159.483 145.345 159.666 146.527 159.612C147.71 159.557 148.869 159.266 149.937 158.756C151.005 158.246 151.96 157.526 152.745 156.641C156.803 152.329 156.118 148.728 152.795 145.304Z" fill="#FBBEAA"/>
<path d="M137.874 160.742L178.702 206.652C183.594 213.173 195.027 216.757 202.012 210.716C203.304 209.584 204.352 208.201 205.094 206.652C205.835 205.103 206.255 203.42 206.326 201.704C206.397 199.988 206.119 198.275 205.509 196.67C204.898 195.065 203.968 193.6 202.775 192.365L153.296 140.574L137.874 160.742Z" fill="#002366"/>
<path d="M120.357 126.308C120.35 126.35 120.352 126.393 120.362 126.434C120.373 126.476 120.392 126.514 120.418 126.548C120.444 126.581 120.477 126.609 120.515 126.629C120.552 126.649 120.594 126.66 120.636 126.663L122.716 126.866H123.73C124.085 126.866 124.415 126.993 124.77 127.018C125.145 127.131 125.51 127.275 125.861 127.449L127.027 127.931C128.6 128.565 130.172 129.149 131.339 129.58C132.506 130.011 133.317 130.265 133.317 130.265C133.381 130.292 133.454 130.294 133.519 130.27C133.585 130.247 133.64 130.199 133.672 130.138C133.72 130.076 133.745 130 133.745 129.922C133.745 129.844 133.72 129.769 133.672 129.707L131.77 128.717L129.792 127.779C129.082 127.449 128.296 127.12 127.509 126.815L126.317 126.359C125.934 126.186 125.535 126.05 125.125 125.953L123.908 125.826H122.868H121.321H120.738C120.674 125.776 120.592 125.753 120.512 125.762C120.431 125.772 120.357 125.813 120.307 125.877C120.256 125.941 120.233 126.022 120.243 126.103C120.252 126.184 120.293 126.258 120.357 126.308ZM120.839 132.42H121.296C121.675 132.386 122.057 132.386 122.437 132.42L123.223 132.547C123.513 132.583 123.801 132.634 124.085 132.699L125.81 133.257C126.977 133.638 128.118 134.12 128.98 134.475C128.98 134.475 129.259 134.475 129.234 134.601H129.538L129.995 134.728H130.274H130.426C130.502 134.746 130.569 134.794 130.612 134.86C130.654 134.926 130.669 135.006 130.654 135.083C130.643 135.144 130.612 135.199 130.566 135.241C130.52 135.282 130.462 135.307 130.401 135.312H129.107H128.701C127.814 135.083 126.622 134.728 125.455 134.322L123.756 133.688L122.97 133.486L122.285 133.283C121.935 133.179 121.579 133.094 121.22 133.029L120.788 132.902C120.75 132.891 120.714 132.872 120.683 132.846C120.652 132.821 120.627 132.789 120.608 132.754C120.589 132.719 120.577 132.68 120.574 132.64C120.57 132.6 120.574 132.56 120.586 132.522C120.616 132.485 120.655 132.456 120.699 132.438C120.743 132.42 120.792 132.414 120.839 132.42ZM120.839 139.623H121.778C122.031 139.623 122.361 139.623 122.691 139.801L123.73 140.13C124.385 140.361 125.021 140.641 125.632 140.967C125.914 141.099 126.185 141.252 126.444 141.424C126.496 141.484 126.524 141.56 126.524 141.639C126.524 141.718 126.496 141.795 126.444 141.855C126.371 141.932 126.271 141.978 126.165 141.982L125.227 141.83C124.694 141.703 124.009 141.5 123.325 141.272L122.336 140.866L121.473 140.536C121.186 140.409 120.907 140.265 120.636 140.105C120.564 140.062 120.512 139.994 120.488 139.914C120.464 139.834 120.472 139.748 120.509 139.674C120.585 139.626 120.675 139.608 120.763 139.623H120.839Z" fill="#F18380"/>
<path d="M162.783 125.94L163.378 125.664L163.735 126.434L164.369 126.139L164.013 125.37L164.608 125.094L165.582 127.197L164.987 127.472L164.601 126.64L163.966 126.934L164.352 127.767L163.758 128.042L162.783 125.94L162.783 125.94ZM166.73 124.11L167.705 126.213L167.13 126.479L166.386 124.875L166.01 125.05L166.29 125.653C166.415 125.924 166.549 126.266 166.478 126.526C166.416 126.808 166.147 127.009 165.781 127.102L165.539 126.581C165.885 126.497 165.907 126.334 165.714 125.918L165.202 124.814L166.728 124.107L166.73 124.11ZM167.227 123.88L167.822 123.605L168.737 124.698L168.494 123.293L169.089 123.017L170.342 124.991L169.787 125.248L169.128 124.187L169.33 125.459L168.934 125.643L168.096 124.665L168.479 125.854L167.925 126.111L167.227 123.88L167.227 123.88ZM169.586 122.787L170.181 122.511L170.576 123.365L170.755 122.245L171.41 121.941L171.139 123.331L172.405 124.035L171.692 124.365L170.761 123.759L171.157 124.613L170.562 124.889L169.588 122.786L169.586 122.787L169.586 122.787ZM165.984 121.723C162.415 123.377 160.682 125.825 161.608 127.823C162.525 129.801 165.52 130.081 169.09 128.426C172.679 126.763 174.383 124.303 173.467 122.327C172.541 120.329 169.574 120.059 165.984 121.723ZM168.946 128.115C165.594 129.669 162.786 129.478 161.946 127.666C161.097 125.835 162.778 123.587 166.128 122.035C169.499 120.473 172.281 120.65 173.13 122.483C173.97 124.295 172.318 126.552 168.946 128.115ZM166.264 122.327C163.112 123.788 161.521 125.866 162.283 127.51C163.045 129.154 165.659 129.284 168.811 127.823C171.963 126.362 173.554 124.284 172.792 122.64C172.032 120.995 169.418 120.865 166.264 122.327ZM168.782 127.762C165.669 129.205 163.086 129.087 162.343 127.484C161.601 125.882 163.182 123.834 166.294 122.392C169.406 120.949 171.99 121.067 172.733 122.669C173.477 124.271 171.896 126.319 168.783 127.762L168.782 127.762Z" fill="white"/>
</svg>
