<svg width="222" height="515" viewBox="0 0 222 515" fill="none" xmlns="http://www.w3.org/2000/svg">
<path d="M123.832 67.7722H153.68V102.876H123.832V67.7722Z" fill="#FBBEAA"/>
<path d="M153.565 67.7722H123.839V87.3567C125.138 87.5181 126.445 87.6009 127.753 87.6046C138.009 87.6046 149.478 84.8033 153.665 75.011L153.565 67.7722Z" fill="#F18380"/>
<path d="M108.411 41.7176C108.635 51.8569 108.411 59.8642 110.221 67.5988C112.031 75.3335 117.658 81.655 130.053 81.655C142.449 81.655 156.579 77.6142 157.571 62.1201C159.604 59.9138 162.901 52.0552 163.025 43.2546C163.149 34.454 162.479 15.8363 142.399 12.9854C122.319 10.1345 107.841 17.4973 108.411 41.7176Z" fill="#FBBEAA"/>
<path d="M118.875 49.6999C118.875 51.0633 118.057 52.1789 117.041 52.1789C116.025 52.1789 115.206 51.0633 115.206 49.6999C115.206 48.3364 116.025 47.2208 117.041 47.2208C118.057 47.2208 118.875 48.2372 118.875 49.6999Z" fill="#403D4F"/>
<path d="M141.184 49.6999C141.184 51.0633 140.366 52.1789 139.35 52.1789C138.333 52.1789 137.515 51.0633 137.515 49.6999C137.515 48.3364 138.358 47.2208 139.35 47.2208C140.341 47.2208 141.184 48.2372 141.184 49.6999Z" fill="#403D4F"/>
<path d="M136.6 41.9157C136.799 42.1388 138.088 41.9157 139.079 41.9157C140.071 41.9157 141.98 41.9157 141.98 41.6926C141.98 41.4695 141.038 39.9325 138.559 40.2052C136.873 40.4035 136.377 41.5191 136.6 41.9157Z" fill="#403D4F"/>
<path d="M119.247 41.9157C119.098 42.1388 117.983 41.9157 117.115 41.9157C116.248 41.9157 114.636 41.9157 114.636 41.6926C114.636 41.4695 115.429 39.9325 117.537 40.2052C119.247 40.4035 119.569 41.5191 119.247 41.9157Z" fill="#403D4F"/>
<path d="M126.682 59.9632C124.947 59.9632 123.558 58.8229 123.509 58.0048L124.079 51.0139C124.098 50.8406 124.183 50.6815 124.318 50.5704C124.452 50.4593 124.624 50.405 124.798 50.4189C124.883 50.4252 124.965 50.4481 125.041 50.4864C125.117 50.5248 125.185 50.5777 125.24 50.6422C125.295 50.7067 125.337 50.7815 125.363 50.8623C125.39 50.9431 125.4 51.0283 125.393 51.113L124.848 57.856C125.098 58.1277 125.406 58.34 125.749 58.4772C126.092 58.6145 126.462 58.6733 126.831 58.6493C126.917 58.6426 127.005 58.6534 127.087 58.6813C127.169 58.7091 127.245 58.7532 127.31 58.8111C127.375 58.869 127.427 58.9395 127.464 59.0182C127.501 59.0969 127.522 59.1822 127.525 59.2691C127.528 59.357 127.514 59.4447 127.484 59.5272C127.453 59.6097 127.406 59.6853 127.347 59.7498C127.287 59.8143 127.215 59.8663 127.135 59.9029C127.055 59.9395 126.968 59.96 126.88 59.9632H126.682Z" fill="#F18380"/>
<path d="M128.097 64.9206C126.015 65.0445 122.519 66.2097 122.495 67.1269C122.527 68.83 123.23 70.4515 124.451 71.6396C125.671 72.8278 127.311 73.4866 129.014 73.4733C136.65 73.4733 136.625 67.5731 136.303 66.284C135.981 64.9949 131.965 64.6726 128.097 64.9206Z" fill="#73102A"/>
<path d="M136.326 68.3421C134.261 67.5941 132.008 67.5404 129.909 68.1892C127.811 68.838 125.982 70.1537 124.699 71.9367C125.884 72.9877 127.43 73.5386 129.012 73.4738C134.417 73.4738 135.979 70.5485 136.326 68.3421Z" fill="#D65155"/>
<path d="M136.002 65.8383C134.936 64.9211 131.441 64.698 128.094 64.9211C126.037 65.045 122.566 66.1854 122.492 67.1274C127.034 67.7713 131.664 67.3296 136.002 65.8383Z" fill="white"/>
<path d="M145.078 32.7431C145.078 38.8416 147.557 41.4941 149.416 42.6593C151.276 43.8244 152.639 44.9896 152.639 47.0968V54.5339C152.639 55.3768 153.135 56.0214 153.78 55.7982C154.424 55.5751 156.829 54.3604 156.829 53.1457L164.266 47.8901C166.2 43.3081 166.918 38.3038 166.348 33.3629C166.127 30.5924 165.31 27.9024 163.954 25.4765C162.598 23.0507 160.734 20.9461 158.49 19.3067C158.49 14.0263 153.532 4.63068 143.095 0.912109C142.84 2.82074 142.84 4.75487 143.095 6.6635C138.36 2.37475 122.42 1.06085 116.693 3.04409C117.533 4.92246 118.748 6.60958 120.263 8.00219C112.441 9.80867 105.48 14.2563 100.554 20.5958C102.124 22.6421 104.109 24.332 106.38 25.5538C103.775 29.1375 102.229 33.3808 101.918 37.8004C106.624 37.3646 111.238 36.2196 115.602 34.404C115.359 36.5828 115.484 38.787 115.974 40.924C120.932 40.6265 130.303 35.5692 132.956 31.5036C132.54 34.8149 132.725 38.1739 133.501 41.4198C138.11 39.693 142.127 36.682 145.078 32.7431Z" fill="#403D4F"/>
<path d="M157.053 54.4101C157.053 51.584 157.623 47.4192 161.614 47.32C165.606 47.2208 166.151 50.2453 166.027 55.005C165.903 59.7648 161.069 63.8057 156.83 62.1695L157.053 54.4101Z" fill="#FBBEAA"/>
<path d="M162.928 57.831C162.757 57.795 162.606 57.6959 162.505 57.5535C162.404 57.411 162.36 57.2357 162.383 57.0625C162.382 56.9257 162.345 56.7916 162.275 56.6739C162.206 56.5563 162.106 56.4593 161.986 56.3932C161.728 56.2246 161.427 56.1349 161.118 56.1349C160.81 56.1349 160.509 56.2246 160.251 56.3932C160.145 56.4541 160.026 56.4862 159.904 56.4862C159.782 56.4862 159.662 56.4541 159.557 56.3932C159.449 56.3318 159.361 56.2406 159.304 56.1307C159.247 56.0208 159.223 55.8968 159.234 55.7734C159.606 51.7821 162.135 51.0384 162.234 51.0136C162.319 50.9875 162.408 50.9791 162.496 50.989C162.584 50.9989 162.669 51.0268 162.746 51.071C162.822 51.1152 162.889 51.1747 162.942 51.2459C162.995 51.3171 163.032 51.3983 163.052 51.4847C163.098 51.649 163.077 51.8248 162.993 51.9735C162.909 52.1222 162.77 52.2317 162.606 52.2779C162.113 52.5058 161.684 52.8509 161.355 53.283C161.027 53.7152 160.809 54.2213 160.722 54.757C161.401 54.6463 162.097 54.7874 162.68 55.1536C163.024 55.3479 163.302 55.6404 163.479 55.9937C163.656 56.3471 163.723 56.7451 163.672 57.1369C163.681 57.2346 163.667 57.333 163.632 57.4247C163.597 57.5164 163.541 57.5988 163.47 57.6657C163.398 57.7327 163.312 57.7824 163.218 57.811C163.124 57.8397 163.025 57.8465 162.928 57.831Z" fill="#F18380"/>
<path d="M40.7718 104.539C40.6493 101.861 41.3662 99.2115 42.8226 96.9604C45.0648 94.3606 46.7447 93.7214 47.7564 90.4406C48.5346 87.3952 49.7778 84.4879 51.4419 81.8213C52.6308 80.1866 54.4141 78.8492 54.4141 77.6009C54.4141 76.3526 52.0363 73.9452 48.6481 74.6288C47.1968 75.0809 45.8633 75.8482 44.7431 76.8758C43.623 77.9035 42.7439 79.166 42.1687 80.5731C41.8441 79.7158 41.6537 78.8135 41.6041 77.8982L40.8611 57.2822C40.8498 56.8099 40.7439 56.3446 40.5499 55.9139C40.3558 55.4831 40.0773 55.0956 39.731 54.7743C39.3847 54.4529 38.9776 54.2042 38.5335 54.0428C38.0895 53.8814 37.6177 53.8106 37.1459 53.8345C36.3947 53.8666 35.6723 54.1332 35.0806 54.597C34.7803 54.8324 29.7531 60.9292 24.8462 66.9723C20.0834 72.838 15.4339 78.6531 15.3302 79.0086C16.2843 87.6718 18.076 96.222 20.6801 104.539C20.7116 105.928 21.0334 107.295 21.6246 108.552C22.2159 109.809 23.0636 110.928 24.1133 111.838C25.163 112.748 26.3915 113.428 27.7198 113.834C29.048 114.241 30.4466 114.365 31.8257 114.199C33.0737 114.241 34.3161 114.013 35.4686 113.533C36.6211 113.052 37.6567 112.329 38.5052 111.413C39.3538 110.496 39.9953 109.409 40.3864 108.223C40.7775 107.037 40.9089 105.781 40.7718 104.539Z" fill="#FBBEAA"/>
<path d="M35.9814 48.7522L56.6593 69.0355C56.8783 68.7237 57.0975 68.3953 57.3165 68.0834C57.9738 67.1312 58.6394 66.1709 59.2966 65.2187C59.541 64.8658 59.7769 64.521 60.0213 64.1681C61.007 62.7481 60.8153 60.8254 59.5884 59.6185L45.3397 45.6381C44.1128 44.4312 42.186 44.2836 40.7831 45.2929C40.4406 45.5453 40.0984 45.7811 39.7559 46.0336C38.8123 46.7091 37.8688 47.3846 36.9252 48.0601C36.616 48.2964 36.2987 48.5243 35.9814 48.7522Z" fill="#E2874A"/>
<g opacity="0.53">
<path d="M36.9245 48.0751L57.3244 68.0737C57.9817 67.1215 58.6473 66.1612 59.3045 65.209L39.7636 46.0404C38.8117 46.7241 37.8681 47.3996 36.9245 48.0751Z" fill="#D46424"/>
</g>
<path d="M32.341 51.4578C31.5851 52.3591 30.821 53.252 30.0566 54.1614C28.9818 55.423 27.9234 56.6848 26.8567 57.9548C22.7415 62.8214 18.6428 67.6882 14.5275 72.5548C12.3187 75.1683 10.1099 77.7819 7.90108 80.3954C6.4901 82.0668 6.609 84.5349 8.1631 86.0603L19.9171 97.585C21.4712 99.1105 23.9453 99.182 25.5936 97.737C28.1623 95.4755 30.7392 93.2224 33.3079 90.9608C38.094 86.7481 42.8798 82.5519 47.6658 78.3391C48.9124 77.2534 50.1591 76.1512 51.3975 75.0571C52.2761 74.2815 53.1712 73.5061 54.0582 72.7222C55.2044 71.7181 55.6613 70.2255 55.4051 68.84C55.266 68.0271 54.8616 67.2441 54.232 66.6157L38.47 51.1517C37.8238 50.523 37.0421 50.141 36.2159 50.0151C34.803 49.8075 33.3238 50.2861 32.341 51.4578Z" fill="#F5F5F5"/>
<path d="M26.8552 57.9529C22.74 62.8195 18.6413 67.6863 14.526 72.5529L33.298 90.9671C38.0841 86.7544 42.8699 82.5581 47.6641 78.3538L26.8552 57.9529Z" fill="#E2874A"/>
<g opacity="0.52">
<path d="M36.3215 80.9124C38.7814 78.7572 41.2246 76.6017 43.6761 74.4547L47.6431 78.3521C42.857 82.5648 38.0712 86.761 33.277 90.9654L14.505 72.5511C15.1684 71.7729 15.8153 70.9944 16.4787 70.2162L27.1366 80.668C29.6642 83.1406 33.6692 83.2391 36.3215 80.9124Z" fill="#E2874A"/>
</g>
<path d="M32.3111 51.0255L54.4613 72.7505C55.6309 73.8987 57.5183 73.8886 58.6667 72.7024L58.7757 72.5961C59.9239 71.4265 59.9054 69.5473 58.7276 68.3907L36.5774 46.6657C35.4077 45.5174 33.5285 45.5359 32.3719 46.7137L32.263 46.82C31.1229 47.998 31.1414 49.8772 32.3111 51.0255Z" fill="#E2874A"/>
<g opacity="0.53">
<path d="M33.5672 45.9917C33.1566 47.0793 33.3977 48.3487 34.2812 49.2038L56.3661 70.8618C57.2003 71.6831 58.3895 71.9128 59.4283 71.5696C59.2829 71.9569 59.0633 72.3184 58.7533 72.6208L58.7114 72.6617C57.5464 73.8477 55.6258 73.874 54.4398 72.709L32.3549 51.051C31.1689 49.886 31.1427 47.9653 32.3077 46.7793L32.3496 46.7384C32.7014 46.395 33.1184 46.1353 33.5672 45.9917Z" fill="#D46424"/>
</g>
<path d="M31.8094 74.3434C29.7883 73.7808 28.0229 73.2957 26.0386 75.8209C27.2453 77.3256 29.6856 78.1334 32.2983 77.6934C35.641 77.13 38.0456 74.7506 37.8022 72.3058C36.785 73.5929 35.1778 75.0632 33.2949 74.7092C32.7993 74.6204 32.2878 74.4817 31.8094 74.3434Z" fill="#5B2500"/>
<path d="M30.771 68.5862C27.3288 69.1651 24.8729 71.6763 25.2975 74.1895C25.3049 74.2641 25.3288 74.3389 25.3446 74.4053C27.7859 71.7283 30.203 72.3952 32.1994 72.9493C32.6778 73.0875 33.1233 73.2088 33.5694 73.2805C34.9734 73.5459 36.409 71.8831 37.2019 70.6678C36.0549 69.0231 33.5163 68.1313 30.771 68.5862Z" fill="#5B2500"/>
<path d="M31.6764 63.0358C33.3646 60.3426 29.9368 56.791 27.7618 55.4033C27.7618 55.4033 26.4529 53.8888 23.7402 56.6017C20.7444 59.5976 22.5418 61.648 22.5418 61.648C24.4993 63.7296 29.0668 67.199 31.6764 63.0358Z" fill="#FBBEAA"/>
<path d="M26.8829 68.2505C28.5711 65.5573 25.1433 62.0057 22.9684 60.618C22.9684 60.618 21.6595 59.1035 18.9467 61.8164C15.9509 64.8123 17.7484 66.8628 17.7484 66.8628C19.7058 68.9444 24.2733 72.4137 26.8829 68.2505Z" fill="#FBBEAA"/>
<path d="M22.09 73.0438C23.7782 70.3506 20.3503 66.799 18.1754 65.4113C18.1754 65.4113 16.8665 63.8969 14.1537 66.6098C11.1579 69.6057 12.9554 71.6561 12.9554 71.6561C14.9129 73.7377 19.4803 77.207 22.09 73.0438Z" fill="#FBBEAA"/>
<path d="M16.1752 77.3105C17.5743 75.0532 14.7334 72.0764 12.9309 70.9133C12.9309 70.9133 11.8462 69.644 9.59789 71.9178C7.11507 74.4288 8.60476 76.1474 8.60476 76.1474C10.227 77.8921 14.0124 80.7999 16.1752 77.3105Z" fill="#FBBEAA"/>
<path d="M183.17 105.262C188.793 112.492 215.886 188.476 215.886 188.476C185.762 178.837 200.734 175.142 184.351 177.898C184.351 177.898 158.754 123.577 158.033 119.61C157.28 116.482 157.618 113.192 158.99 110.282C160.363 107.373 162.688 105.02 165.58 103.613C173.643 99.4911 177.547 98.0325 183.17 105.262Z" fill="#002776"/>
<path d="M105.338 102.658L46.3704 142.428C46.6185 144.462 41.8399 102.658 41.8399 102.658L20.0139 104.695C20.0139 104.695 21.289 147.257 24.501 169.735C25.7757 178.656 33.2008 182.039 42.005 180.118C46.3519 179.17 50.4441 177.386 54.0858 174.83C69.7341 163.846 113.635 132.909 117.225 129.017C123.417 122.303 123.417 117.273 119.858 111.745C116.299 106.217 108.683 101.827 105.338 102.658Z" fill="#001A4B"/>
<path d="M155.417 328.971C155.496 335.343 153.04 341.486 148.59 346.048C144.139 350.609 138.059 353.216 131.686 353.295C125.314 353.374 119.171 350.918 114.61 346.467C110.048 342.017 107.441 335.937 107.362 329.564C107.362 329.564 104.322 240.87 103.284 222.899C102.245 204.928 106.942 190.516 127.163 188.44C148.125 186.289 159.298 202.678 159.298 217.906C159.298 233.133 155.417 328.971 155.417 328.971Z" fill="#7C7C7C"/>
<path d="M194.845 327.266C195.257 330.415 195.041 333.615 194.208 336.681C193.375 339.746 191.943 342.616 189.994 345.124C188.045 347.632 185.619 349.729 182.854 351.294C180.09 352.858 177.042 353.859 173.888 354.238C170.735 354.617 167.537 354.367 164.481 353.502C161.424 352.638 158.569 351.176 156.082 349.201C153.594 347.226 151.522 344.777 149.987 341.996C148.451 339.216 147.483 336.158 147.136 333.001C147.136 333.001 134.628 245.147 131.662 227.398C128.696 209.65 131.835 194.793 151.71 190.566C172.326 186.191 185.205 201.294 186.762 216.423C188.319 231.551 194.845 327.266 194.845 327.266Z" fill="#7C7C7C"/>
<path d="M115.965 433.486C115.965 433.486 117.151 483.889 117.448 491.428C117.744 498.968 122.515 501.02 130.203 501.687C137.891 502.354 141.129 496.249 142.217 491.404C143.304 486.559 149.88 437.144 149.88 437.144L115.965 433.486Z" fill="#FBBEAA"/>
<path d="M116.83 468.637L145.183 471.677C147.383 456.079 149.88 437.07 149.88 437.07L115.965 433.411C115.965 433.411 116.41 452.297 116.83 468.637Z" fill="#F18380"/>
<path d="M155.417 328.971C155.379 325.816 154.719 322.699 153.475 319.799C152.232 316.898 150.429 314.272 148.17 312.068C145.912 309.864 143.241 308.127 140.311 306.956C137.381 305.784 134.249 305.201 131.093 305.24C127.938 305.279 124.821 305.939 121.921 307.183C119.021 308.426 116.394 310.229 114.19 312.487C111.987 314.746 110.25 317.417 109.078 320.347C107.906 323.277 107.324 326.409 107.363 329.564L112.306 470.052L151.092 474.23L155.417 328.971Z" fill="#7C7C7C"/>
<path d="M166.715 435.414C166.715 435.414 173.29 485.397 174.378 492.837C175.465 500.278 180.434 501.86 188.171 501.687C195.908 501.514 198.455 495.112 199.023 490.193C199.592 485.273 200.828 435.414 200.828 435.414H166.715Z" fill="#FBBEAA"/>
<path d="M171.461 470.268H199.987C200.482 454.547 200.951 435.414 200.951 435.414H166.714C166.714 435.414 169.186 454.052 171.461 470.268Z" fill="#F18380"/>
<path d="M194.846 327.266C194.025 320.99 190.761 315.292 185.764 311.409C180.766 307.525 174.438 305.771 168.154 306.526C161.87 307.282 156.138 310.486 152.203 315.443C148.268 320.4 146.448 326.709 147.137 333L168.643 474.996H207.65L194.846 327.266Z" fill="#7C7C7C"/>
<path d="M147.161 333L169.334 473.76" stroke="#565656" stroke-width="0.75" stroke-miterlimit="10" stroke-linecap="round"/>
<path d="M147.136 333.001C147.136 333.001 134.628 245.147 131.662 227.398" stroke="#565656" stroke-width="0.75" stroke-miterlimit="10" stroke-linecap="round"/>
<path d="M185.575 476.127C182.771 475.926 179.991 476.761 177.763 478.475C175.535 480.188 174.013 482.66 173.487 485.421L160.584 498.646V506.878H201.939C201.939 506.878 199.863 492.046 199.27 488.709C198.676 485.372 196.674 476.127 185.575 476.127Z" fill="#FBBEAA"/>
<path d="M173.512 485.323C173.043 484.68 172.375 484.185 171.906 484.482C171.436 484.779 158.952 494.667 158.359 495.161C157.994 495.504 157.717 495.931 157.554 496.405C157.39 496.878 157.344 497.385 157.42 497.88V508.485H202.854C202.854 508.485 201.075 492.813 200.951 491.947C200.828 491.082 199.962 489.945 199.468 489.97C196.349 490.925 193.113 491.441 189.852 491.502C185.518 491.732 181.195 490.883 177.27 489.03C175.814 488.018 174.544 486.764 173.512 485.323Z" fill="black"/>
<path d="M164.885 499.585C167.085 497.954 174.996 491.774 177.962 489.45L177.27 489.104C177.176 489.064 177.092 489.005 177.023 488.931C173.858 491.403 166.418 497.237 164.292 498.819C162.495 500.196 161.264 502.183 160.831 504.406L161.795 504.554C162.203 502.584 163.298 500.822 164.885 499.585Z" fill="white"/>
<path d="M201.619 497.682C198.417 497.715 195.318 498.82 192.819 500.822C190.559 502.823 189.029 505.519 188.468 508.485H189.803C190.349 505.915 191.7 503.586 193.659 501.835C195.96 499.993 198.82 498.99 201.767 498.993L201.619 497.682Z" fill="white"/>
<path d="M150.078 508.46H202.855C203.223 508.46 203.522 508.759 203.522 509.128V514.245C203.522 514.613 203.223 514.912 202.855 514.912H150.078C149.71 514.912 149.411 514.613 149.411 514.245V509.128C149.411 508.759 149.71 508.46 150.078 508.46Z" fill="white"/>
<path d="M158.483 495.062C158.013 494.864 155.714 495.532 152.723 498.473C151.478 499.76 150.581 501.344 150.119 503.074C149.656 504.804 149.642 506.624 150.078 508.361H165.083C164.243 498.869 158.953 495.26 158.483 495.062Z" fill="white"/>
<path d="M164.242 495.211C164.428 495.437 164.516 495.728 164.488 496.02C164.46 496.311 164.319 496.58 164.094 496.768C163.984 496.859 163.856 496.927 163.72 496.969C163.583 497.011 163.439 497.025 163.297 497.012C163.155 496.998 163.016 496.956 162.89 496.889C162.764 496.822 162.652 496.73 162.561 496.62L160.089 493.629C159.904 493.402 159.816 493.111 159.844 492.819C159.871 492.528 160.013 492.259 160.238 492.071C160.347 491.977 160.473 491.906 160.611 491.862C160.748 491.818 160.893 491.803 161.036 491.817C161.179 491.831 161.318 491.874 161.444 491.943C161.571 492.012 161.682 492.106 161.77 492.22L164.242 495.211Z" fill="white"/>
<path d="M167.184 492.961C167.369 493.187 167.457 493.478 167.43 493.77C167.402 494.061 167.26 494.33 167.035 494.518C166.927 494.612 166.8 494.683 166.662 494.727C166.525 494.771 166.381 494.786 166.237 494.772C166.094 494.758 165.955 494.716 165.829 494.646C165.702 494.577 165.592 494.483 165.503 494.37L163.031 491.379C162.852 491.149 162.767 490.86 162.795 490.57C162.822 490.281 162.96 490.012 163.179 489.821C163.288 489.727 163.415 489.656 163.552 489.612C163.689 489.568 163.834 489.553 163.977 489.567C164.121 489.581 164.26 489.624 164.386 489.693C164.512 489.762 164.623 489.856 164.712 489.969L167.184 492.961Z" fill="white"/>
<path d="M170.027 490.736C170.213 490.956 170.305 491.241 170.282 491.528C170.259 491.816 170.123 492.082 169.903 492.269C169.676 492.454 169.386 492.543 169.094 492.515C168.802 492.487 168.534 492.345 168.346 492.121L165.874 489.129C165.77 489.028 165.687 488.907 165.631 488.773C165.575 488.64 165.546 488.496 165.546 488.351C165.546 488.206 165.575 488.062 165.631 487.928C165.687 487.795 165.77 487.673 165.874 487.572C166.103 487.393 166.392 487.308 166.682 487.336C166.972 487.364 167.24 487.501 167.431 487.72L170.027 490.736Z" fill="white"/>
<path d="M172.894 488.487C172.985 488.597 173.053 488.724 173.095 488.861C173.137 488.998 173.151 489.142 173.138 489.284C173.124 489.426 173.082 489.565 173.015 489.691C172.948 489.817 172.856 489.929 172.746 490.02C172.538 490.223 172.258 490.338 171.967 490.338C171.676 490.338 171.396 490.223 171.188 490.02L168.716 487.004C168.531 486.777 168.443 486.486 168.47 486.195C168.498 485.903 168.64 485.634 168.865 485.446C168.975 485.355 169.102 485.287 169.239 485.245C169.376 485.203 169.519 485.189 169.662 485.203C169.804 485.216 169.942 485.258 170.068 485.325C170.195 485.393 170.306 485.484 170.397 485.595L172.894 488.487Z" fill="white"/>
<path d="M127.484 476.127C124.681 475.926 121.901 476.761 119.672 478.475C117.444 480.188 115.922 482.66 115.396 485.421L102.517 498.646V506.878H143.849C143.849 506.878 141.797 492.046 141.179 488.709C140.561 485.372 138.583 476.127 127.484 476.127Z" fill="#FBBEAA"/>
<path d="M115.421 485.323C114.951 484.68 114.309 484.185 113.814 484.482C113.32 484.779 100.861 494.667 100.293 495.161C99.7241 495.655 99.3285 496.273 99.3285 497.88V508.485H144.763C144.763 508.485 142.983 492.813 142.86 491.947C142.736 491.082 141.871 489.945 141.377 489.97C138.258 490.925 135.022 491.441 131.761 491.502C127.434 491.736 123.118 490.887 119.203 489.03C117.736 488.024 116.457 486.769 115.421 485.323Z" fill="black"/>
<path d="M106.794 499.585C108.994 497.954 116.904 491.774 119.871 489.45L119.203 489.104C119.102 489.065 119.01 489.006 118.931 488.931C115.767 491.403 108.327 497.237 106.201 498.819C104.404 500.196 103.173 502.183 102.74 504.406L103.704 504.554C104.124 502.588 105.217 500.831 106.794 499.585Z" fill="white"/>
<path d="M143.528 497.682C140.326 497.715 137.227 498.82 134.728 500.822C132.469 502.823 130.938 505.519 130.377 508.485H131.712C132.265 505.912 133.624 503.582 135.593 501.835C137.882 499.989 140.736 498.986 143.676 498.993L143.528 497.682Z" fill="white"/>
<path d="M91.9873 508.46H144.764C145.132 508.46 145.431 508.759 145.431 509.128V514.245C145.431 514.613 145.132 514.912 144.764 514.912H91.9873C91.6187 514.912 91.3199 514.613 91.3199 514.245V509.128C91.3199 508.759 91.6187 508.46 91.9873 508.46Z" fill="white"/>
<path d="M100.392 495.062C99.9219 494.864 97.623 495.532 94.6319 498.473C93.3865 499.76 92.4901 501.344 92.0272 503.074C91.5644 504.804 91.5505 506.624 91.9869 508.361H106.992C106.151 498.869 100.861 495.26 100.392 495.062Z" fill="white"/>
<path d="M106.251 495.211C106.436 495.437 106.524 495.728 106.496 496.02C106.469 496.311 106.327 496.58 106.102 496.768C105.992 496.859 105.865 496.927 105.728 496.969C105.591 497.011 105.448 497.025 105.305 497.012C105.163 496.998 105.025 496.956 104.898 496.889C104.772 496.822 104.66 496.73 104.57 496.62L102.098 493.629C101.918 493.399 101.834 493.11 101.861 492.82C101.889 492.531 102.027 492.263 102.246 492.071C102.355 491.977 102.482 491.906 102.619 491.862C102.756 491.818 102.901 491.803 103.044 491.817C103.187 491.831 103.326 491.874 103.453 491.943C103.579 492.012 103.69 492.106 103.779 492.22L106.251 495.211Z" fill="white"/>
<path d="M109.093 492.961C109.278 493.188 109.367 493.478 109.339 493.77C109.311 494.062 109.169 494.33 108.945 494.518C108.836 494.612 108.709 494.684 108.572 494.727C108.434 494.771 108.29 494.786 108.146 494.773C108.003 494.759 107.864 494.716 107.738 494.647C107.612 494.577 107.501 494.483 107.412 494.37L104.94 491.379C104.761 491.15 104.676 490.86 104.704 490.571C104.731 490.281 104.869 490.013 105.088 489.821C105.315 489.636 105.606 489.548 105.897 489.576C106.189 489.603 106.458 489.745 106.646 489.97L109.093 492.961Z" fill="white"/>
<path d="M111.936 490.736C112.039 490.835 112.121 490.954 112.177 491.086C112.233 491.218 112.262 491.359 112.262 491.502C112.262 491.645 112.233 491.787 112.177 491.919C112.121 492.05 112.039 492.169 111.936 492.269C111.709 492.454 111.418 492.542 111.127 492.514C110.835 492.487 110.566 492.345 110.379 492.12L107.907 489.129C107.721 488.902 107.633 488.612 107.661 488.32C107.688 488.029 107.83 487.76 108.055 487.572C108.165 487.481 108.292 487.412 108.429 487.371C108.566 487.329 108.71 487.314 108.852 487.328C108.994 487.342 109.133 487.384 109.259 487.451C109.385 487.518 109.497 487.61 109.588 487.72L111.936 490.736Z" fill="white"/>
<path d="M114.802 488.487C114.894 488.597 114.962 488.724 115.004 488.861C115.046 488.998 115.06 489.142 115.046 489.284C115.032 489.426 114.991 489.565 114.923 489.691C114.856 489.817 114.765 489.929 114.654 490.02C114.446 490.223 114.167 490.338 113.875 490.338C113.584 490.338 113.305 490.223 113.097 490.02L110.625 487.004C110.44 486.777 110.351 486.486 110.379 486.195C110.407 485.903 110.548 485.634 110.773 485.446C110.883 485.355 111.011 485.287 111.147 485.245C111.284 485.203 111.428 485.189 111.57 485.203C111.713 485.216 111.851 485.258 111.977 485.325C112.103 485.393 112.215 485.484 112.306 485.595L114.802 488.487Z" fill="white"/>
<path d="M104.011 203.674C104.011 203.674 104.011 229.308 104.011 230.717C104.011 232.126 116.371 244.214 132.785 244.214C158.023 244.214 188.231 234.994 187.786 228.987C187.489 225.032 185.003 203.674 185.003 203.674H104.011Z" fill="#7C7C7C"/>
<path d="M122.367 95.5504C136.21 107.416 149.971 100.494 154.503 94.3145L174.278 102.966L169.334 194.429L103.827 196.901L106.299 109.146L122.367 95.5504Z" fill="white"/>
<path d="M103.93 103.436C106.575 101.705 123.706 91.8176 123.706 91.8176V222.189C121.807 224.039 121.418 223.995 118.691 223.686L118.564 223.672C112.669 222.192 106.98 219.983 101.631 217.097C101.631 217.097 99.357 122.272 98.7885 115.054C98.2199 107.836 101.285 105.166 103.93 103.436Z" fill="#002776"/>
<path d="M150.141 223.64C148.94 223.386 147.801 222.892 146.794 222.189L153.518 90.4828C153.518 90.4828 172.923 98.3684 178.089 100.667C180.237 101.573 182.078 103.078 183.393 105.003C184.708 106.927 185.441 109.189 185.505 111.519C185.826 115.87 186.271 212.301 186.345 213.142C186.419 213.982 185.703 214.452 184.936 214.897C184.17 215.342 159.945 222.411 153.79 223.672C152.584 223.906 151.343 223.895 150.141 223.64Z" fill="#002776"/>
<g filter="url(#filter0_d_203_570)">
<rect width="44.6891" height="63.6819" rx="1" transform="matrix(-0.993463 -0.114154 -0.114154 0.993463 159.898 136.22)" fill="#EFEFEF"/>
</g>
<path d="M141.076 162.026C137.91 160.688 135.046 158.705 132.668 156.203C131.196 154.658 129.526 153.317 127.704 152.216C126.635 151.548 125.713 150.667 124.995 149.627C124.046 148.014 123.261 146.311 122.652 144.543C122.426 143.021 121.908 141.555 121.128 140.226C120.385 139.545 117.766 139.909 116.406 142.552C115.937 143.73 115.724 144.997 115.783 146.27C115.841 147.543 116.168 148.791 116.743 149.933C117.42 151.302 117.95 152.738 118.325 154.217L118.077 154.364C116.005 153.264 113.791 152.466 111.502 151.995C110.672 151.809 109.807 151.91 109.047 152.28C108.286 152.65 107.675 153.268 107.312 154.035C106.948 154.802 106.853 155.673 107.042 156.508C107.231 157.343 107.693 158.092 108.353 158.636C104.781 159.047 105.187 164.556 108.253 165.285C107.597 165.56 107.042 166.033 106.665 166.64C106.288 167.246 106.107 167.956 106.145 168.675C106.184 169.393 106.441 170.085 106.881 170.657C107.321 171.229 107.923 171.653 108.607 171.872C106.428 173.88 108.021 177.19 111.976 177.204C115.189 177.531 123.784 178.876 126.774 179.52C129.764 180.164 135.774 178.74 137.705 179.337C140.579 180.39 143.917 180.408 146.463 172.846C149.009 165.283 144.034 163.003 141.076 162.026Z" fill="#FBBEAA"/>
<path d="M135.419 182.313L193.307 205.619C200.704 209.339 212.723 207.431 216.346 198.778C217.01 197.165 217.339 195.434 217.313 193.69C217.287 191.945 216.907 190.225 216.197 188.632C215.486 187.039 214.459 185.607 213.178 184.422C211.897 183.238 210.389 182.326 208.745 181.743L140.331 156.999L135.419 182.313Z" fill="#002776"/>
<defs>
<filter id="filter0_d_203_570" x="108.339" y="131.226" width="53.4517" height="68.152" filterUnits="userSpaceOnUse" color-interpolation-filters="sRGB">
<feFlood flood-opacity="0" result="BackgroundImageFix"/>
<feColorMatrix in="SourceAlpha" type="matrix" values="0 0 0 0 0 0 0 0 0 0 0 0 0 0 0 0 0 0 127 0" result="hardAlpha"/>
<feOffset dx="2"/>
<feComposite in2="hardAlpha" operator="out"/>
<feColorMatrix type="matrix" values="0 0 0 0 0.603922 0 0 0 0 0.6 0 0 0 0 0.631373 0 0 0 1 0"/>
<feBlend mode="normal" in2="BackgroundImageFix" result="effect1_dropShadow_203_570"/>
<feBlend mode="normal" in="SourceGraphic" in2="effect1_dropShadow_203_570" result="shape"/>
</filter>
</defs>
</svg>
