<svg width="227" height="525" viewBox="0 0 227 525" fill="none" xmlns="http://www.w3.org/2000/svg">
    <path d="M100.448 69.0234H70.0413V104.784H100.448V69.0234Z" fill="#FBBEAA"/>
    <path d="M70.1587 69.0234H100.441V88.9745C99.1187 89.1389 97.7872 89.2233 96.4542 89.227C86.0067 89.227 74.3226 86.3733 70.0578 76.3977L70.1587 69.0234Z" fill="#F18380"/>
    <path d="M116.158 42.4811C115.931 52.8102 116.158 60.9674 114.315 68.8468C112.471 76.7262 106.738 83.1661 94.111 83.1661C81.4837 83.1661 67.0887 79.0496 66.0785 63.2655C64.0076 61.0179 60.6488 53.0122 60.5225 44.0469C60.3962 35.0815 61.0781 16.1154 81.5343 13.2111C101.99 10.3068 116.739 17.8074 116.158 42.4811Z" fill="#FBBEAA"/>
    <path d="M105.498 50.6129C105.498 52.0019 106.332 53.1383 107.367 53.1383C108.402 53.1383 109.236 52.0019 109.236 50.6129C109.236 49.2239 108.402 48.0874 107.367 48.0874C106.332 48.0874 105.498 49.1228 105.498 50.6129Z" fill="#403D4F"/>
    <path d="M82.7715 50.6129C82.7715 52.0019 83.6049 53.1383 84.6403 53.1383C85.6758 53.1383 86.5092 52.0019 86.5092 50.6129C86.5092 49.2239 85.6505 48.0874 84.6403 48.0874C83.6301 48.0874 82.7715 49.1228 82.7715 50.6129Z" fill="#403D4F"/>
    <path d="M87.441 42.6829C87.239 42.9102 85.9258 42.6829 84.9156 42.6829C83.9054 42.6829 81.9608 42.6829 81.9608 42.4557C81.9608 42.2284 82.9205 40.6626 85.446 40.9404C87.1633 41.1424 87.6683 42.2789 87.441 42.6829Z" fill="#403D4F"/>
    <path d="M105.119 42.6829C105.271 42.9102 106.407 42.6829 107.291 42.6829C108.175 42.6829 109.816 42.6829 109.816 42.4557C109.816 42.2284 109.008 40.6626 106.862 40.9404C105.119 41.1424 104.791 42.2789 105.119 42.6829Z" fill="#403D4F"/>
    <path d="M97.545 61.0683C99.3128 61.0683 100.727 59.9066 100.778 59.0732L100.197 51.9514C100.178 51.7749 100.09 51.6129 99.9535 51.4997C99.8168 51.3865 99.6413 51.3311 99.4643 51.3453C99.378 51.3517 99.2938 51.3751 99.2166 51.4141C99.1393 51.4532 99.0705 51.5071 99.0142 51.5728C98.9579 51.6385 98.9151 51.7148 98.8883 51.7971C98.8615 51.8794 98.8513 51.9662 98.8582 52.0524L99.4138 58.9217C99.1586 59.1985 98.8447 59.4147 98.4951 59.5545C98.1456 59.6943 97.7692 59.7542 97.3934 59.7298C97.3052 59.723 97.2164 59.734 97.1325 59.7623C97.0486 59.7907 96.9713 59.8357 96.9052 59.8947C96.8391 59.9536 96.7857 60.0254 96.7481 60.1055C96.7105 60.1857 96.6895 60.2727 96.6863 60.3612C96.6829 60.4507 96.6973 60.5401 96.7284 60.6241C96.7596 60.7081 96.807 60.7852 96.868 60.8509C96.929 60.9165 97.0024 60.9696 97.0839 61.0069C97.1653 61.0442 97.2534 61.0651 97.3429 61.0683H97.545Z" fill="#F18380"/>
    <path d="M96.1038 66.1184C98.2252 66.2447 101.786 67.4316 101.811 68.3661C101.778 70.101 101.062 71.7529 99.8187 72.9633C98.5752 74.1736 96.9046 74.8448 95.1694 74.8312C87.391 74.8312 87.4162 68.8206 87.7445 67.5074C88.0728 66.1942 92.1641 65.8659 96.1038 66.1184Z" fill="#73102A"/>
    <path d="M87.7212 69.604C89.825 68.842 92.1199 68.7873 94.2576 69.4482C96.3953 70.1091 98.259 71.4496 99.5656 73.2659C98.3584 74.3365 96.7834 74.8977 95.1713 74.8317C89.6658 74.8317 88.0748 71.8517 87.7212 69.604Z" fill="#D65155"/>
    <path d="M88.0501 67.0534C89.1361 66.119 92.6969 65.8917 96.1063 66.119C98.2024 66.2453 101.738 67.407 101.814 68.3667C97.1866 69.0226 92.4698 68.5726 88.0501 67.0534Z" fill="white"/>
    <path d="M78.8051 33.3387C78.8051 39.5513 76.2796 42.2535 74.3855 43.4405C72.4914 44.6274 71.1024 45.8144 71.1024 47.961V55.5374C71.1024 56.396 70.5974 57.0526 69.9407 56.8254C69.2841 56.5981 66.8344 55.3606 66.8344 54.1231L59.2581 48.7692C57.2874 44.1014 56.5566 39.0035 57.1367 33.97C57.3621 31.1477 58.1941 28.4074 59.5757 25.9361C60.9574 23.4648 62.8562 21.3209 65.1424 19.6507C65.1424 14.2715 70.1933 4.70004 80.8254 0.911865C81.0855 2.85622 81.0855 4.82655 80.8254 6.77091C85.649 2.40188 101.888 1.06339 107.721 3.08375C106.866 4.99728 105.628 6.71598 104.085 8.13466C112.053 9.97495 119.144 14.5059 124.162 20.9639C122.564 23.0486 120.541 24.7701 118.227 26.0148C120.881 29.6655 122.456 33.9883 122.773 38.4906C117.978 38.0467 113.278 36.8802 108.833 35.0307C109.081 37.2502 108.953 39.4957 108.454 41.6726C103.403 41.3696 93.8567 36.2177 91.1545 32.0759C91.5774 35.4492 91.3892 38.8711 90.5989 42.1777C85.9039 40.4187 81.8111 37.3513 78.8051 33.3387Z" fill="#403D4F"/>
    <path d="M66.6063 55.4112C66.6063 52.5322 66.0255 48.2895 61.9595 48.1884C57.8935 48.0874 57.3379 51.1685 57.4642 56.0173C57.5904 60.8662 62.5151 64.9827 66.8336 63.3159L66.6063 55.4112Z" fill="#FBBEAA"/>
    <path d="M60.6209 58.8962C60.7951 58.8595 60.949 58.7586 61.052 58.6135C61.1549 58.4683 61.1994 58.2897 61.1765 58.1133C61.1771 57.974 61.2149 57.8373 61.2859 57.7174C61.357 57.5976 61.4587 57.4988 61.5806 57.4314C61.8434 57.2597 62.1506 57.1683 62.4645 57.1683C62.7785 57.1683 63.0856 57.2597 63.3484 57.4314C63.4559 57.4935 63.5779 57.5261 63.702 57.5261C63.8261 57.5261 63.9481 57.4935 64.0555 57.4314C64.1652 57.3689 64.2544 57.276 64.3127 57.1641C64.3709 57.0521 64.3956 56.9257 64.3839 56.8C64.0051 52.7341 61.4291 51.9764 61.3281 51.9512C61.2418 51.9246 61.1511 51.916 61.0614 51.9261C60.9717 51.9361 60.8851 51.9646 60.8068 52.0096C60.7286 52.0546 60.6606 52.1153 60.6068 52.1878C60.5531 52.2603 60.515 52.3431 60.4947 52.431C60.4481 52.5985 60.4697 52.7776 60.5549 52.929C60.6402 53.0805 60.782 53.1921 60.9493 53.2392C61.4512 53.4713 61.8885 53.8228 62.2231 54.2631C62.5577 54.7033 62.7793 55.2189 62.8686 55.7646C62.1765 55.6519 61.4671 55.7955 60.8735 56.1687C60.523 56.3665 60.2396 56.6645 60.0597 57.0245C59.8797 57.3845 59.8113 57.79 59.8633 58.189C59.8544 58.2886 59.8683 58.3889 59.904 58.4822C59.9397 58.5756 59.9962 58.6596 60.0693 58.7278C60.1423 58.796 60.23 58.8466 60.3256 58.8758C60.4212 58.905 60.5222 58.9119 60.6209 58.8962Z" fill="#F18380"/>
    <path d="M185.064 106.479C185.189 103.75 184.458 101.051 182.975 98.758C180.69 96.1095 178.979 95.4583 177.948 92.1161C177.156 89.0137 175.889 86.052 174.194 83.3355C172.983 81.6702 171.166 80.3078 171.166 79.0361C171.166 77.7644 173.588 75.3119 177.04 76.0083C178.518 76.4689 179.877 77.2506 181.018 78.2974C182.159 79.3443 183.055 80.6305 183.641 82.0639C183.971 81.1905 184.165 80.2714 184.216 79.3389L184.973 58.3371C184.984 57.8559 185.092 57.3819 185.29 56.9431C185.487 56.5043 185.771 56.1096 186.124 55.7822C186.477 55.4548 186.892 55.2014 187.344 55.037C187.796 54.8725 188.277 54.8004 188.757 54.8248C189.523 54.8575 190.259 55.1291 190.861 55.6016C191.167 55.8414 196.289 62.0523 201.287 68.2086C206.139 74.184 210.876 80.108 210.981 80.4702C210.01 89.2955 208.184 98.0057 205.531 106.479C205.499 107.894 205.172 109.286 204.569 110.566C203.967 111.847 203.103 112.987 202.034 113.914C200.965 114.841 199.713 115.533 198.36 115.948C197.007 116.362 195.582 116.488 194.177 116.319C192.906 116.362 191.64 116.13 190.466 115.64C189.292 115.151 188.237 114.414 187.373 113.481C186.508 112.547 185.855 111.439 185.456 110.231C185.058 109.023 184.924 107.743 185.064 106.479Z" fill="#FBBEAA"/>
    <path d="M189.944 49.6474L168.879 70.3104C168.656 69.9927 168.432 69.6582 168.209 69.3405C167.54 68.3705 166.862 67.3922 166.192 66.4222C165.943 66.0626 165.703 65.7114 165.454 65.3519C164.45 63.9053 164.645 61.9466 165.895 60.7171L180.41 46.4751C181.66 45.2456 183.623 45.0952 185.052 46.1234C185.401 46.3805 185.75 46.6208 186.099 46.8779C187.06 47.5661 188.021 48.2542 188.982 48.9424C189.297 49.1831 189.621 49.4153 189.944 49.6474Z" fill="#E2874A"/>
    <g opacity="0.53">
        <path d="M188.982 48.9577L168.201 69.3305C167.531 68.3605 166.853 67.3822 166.184 66.4122L186.09 46.8848C187.06 47.5813 188.021 48.2695 188.982 48.9577Z" fill="#D46424"/>
    </g>
    <path d="M193.652 52.4037C194.422 53.3218 195.201 54.2314 195.979 55.1579C197.074 56.4432 198.152 57.7286 199.239 59.0223C203.431 63.98 207.607 68.9379 211.799 73.8956C214.049 76.558 216.299 79.2205 218.55 81.883C219.987 83.5856 219.866 86.0999 218.283 87.6539L206.309 99.3943C204.725 100.948 202.205 101.021 200.526 99.5492C197.909 97.2453 195.284 94.95 192.667 92.6462C187.792 88.3545 182.916 84.0798 178.041 79.7882C176.771 78.6822 175.501 77.5593 174.239 76.4448C173.344 75.6546 172.432 74.8647 171.529 74.0662C170.361 73.0432 169.895 71.5227 170.156 70.1113C170.298 69.2832 170.71 68.4855 171.351 67.8453L187.408 52.0919C188.067 51.4514 188.863 51.0623 189.705 50.934C191.144 50.7225 192.651 51.2101 193.652 52.4037Z" fill="#F5F5F5"/>
    <path d="M199.24 59.0204C203.432 63.9781 207.608 68.936 211.8 73.8936L192.677 92.6526C187.801 88.3609 182.926 84.0862 178.042 79.8031L199.24 59.0204Z" fill="#E2874A"/>
    <g opacity="0.52">
        <path d="M189.597 82.4096C187.091 80.214 184.602 78.0182 182.105 75.831L178.063 79.8013C182.939 84.0929 187.814 88.3676 192.698 92.6507L211.822 73.8918C211.146 73.0989 210.487 72.3059 209.811 71.5131L198.954 82.1605C196.379 84.6795 192.299 84.7798 189.597 82.4096Z" fill="#E2874A"/>
    </g>
    <path d="M193.682 51.9632L171.118 74.0949C169.926 75.2647 168.003 75.2544 166.833 74.0459L166.722 73.9377C165.553 72.7461 165.572 70.8318 166.771 69.6535L189.336 47.5218C190.528 46.3521 192.442 46.3709 193.62 47.5708L193.731 47.679C194.893 48.8791 194.874 50.7935 193.682 51.9632Z" fill="#E2874A"/>
    <g opacity="0.53">
        <path d="M192.403 46.8352C192.821 47.9432 192.576 49.2364 191.675 50.1074L169.177 72.1708C168.327 73.0075 167.116 73.2416 166.058 72.8919C166.206 73.2864 166.43 73.6546 166.745 73.9628L166.788 74.0044C167.975 75.2127 169.931 75.2394 171.14 74.0526L193.638 51.9892C194.846 50.8024 194.873 48.8457 193.686 47.6375L193.643 47.5959C193.285 47.2461 192.86 46.9814 192.403 46.8352Z" fill="#D46424"/>
    </g>
    <path d="M194.193 75.7177C196.252 75.1445 198.05 74.6504 200.072 77.2229C198.843 78.7557 196.357 79.5786 193.695 79.1305C190.29 78.5564 187.84 76.1325 188.088 73.6419C189.124 74.9532 190.762 76.451 192.68 76.0903C193.185 75.9998 193.706 75.8586 194.193 75.7177Z" fill="#5B2500"/>
    <path d="M195.251 69.8527C198.758 70.4424 201.26 73.0006 200.827 75.5609C200.819 75.6369 200.795 75.7131 200.779 75.7807C198.292 73.0537 195.83 73.733 193.796 74.2975C193.309 74.4383 192.855 74.5619 192.4 74.6349C190.97 74.9053 189.507 73.2114 188.7 71.9732C189.868 70.2978 192.454 69.3893 195.251 69.8527Z" fill="#5B2500"/>
    <path d="M194.329 64.1984C192.61 61.4548 196.102 57.8367 198.317 56.423C198.317 56.423 199.651 54.8802 202.414 57.6439C205.466 60.6959 203.635 62.7847 203.635 62.7847C201.641 64.9052 196.988 68.4395 194.329 64.1984Z" fill="#FBBEAA"/>
    <path d="M199.213 69.5107C197.493 66.7671 200.985 63.1491 203.201 61.7354C203.201 61.7354 204.534 60.1926 207.297 62.9563C210.349 66.0082 208.518 68.097 208.518 68.097C206.524 70.2176 201.871 73.7519 199.213 69.5107Z" fill="#FBBEAA"/>
    <path d="M204.096 74.3938C202.376 71.6502 205.868 68.0321 208.083 66.6184C208.083 66.6184 209.417 65.0756 212.18 67.8393C215.232 70.8913 213.401 72.9801 213.401 72.9801C211.407 75.1007 206.754 78.6349 204.096 74.3938Z" fill="#FBBEAA"/>
    <path d="M210.12 78.7403C208.695 76.4408 211.589 73.4083 213.425 72.2234C213.425 72.2234 214.53 70.9303 216.821 73.2467C219.35 75.8047 217.833 77.5554 217.833 77.5554C216.18 79.3328 212.324 82.295 210.12 78.7403Z" fill="#FBBEAA"/>
    <path d="M40 107.215C34.2717 114.581 6.67196 191.987 6.67196 191.987C37.3594 182.167 22.1073 178.403 38.7974 181.211C38.7974 181.211 64.8732 125.873 65.6079 121.831C66.3748 118.645 66.0306 115.293 64.6324 112.329C63.2341 109.366 60.8656 106.969 57.919 105.535C49.7052 101.336 45.7283 99.8502 40 107.215Z" fill="#002776"/>
    <path d="M119.289 104.562L179.36 145.077C179.108 147.149 183.976 104.562 183.976 104.562L206.21 106.637C206.21 106.637 204.911 149.996 201.639 172.895C200.341 181.983 192.776 185.429 183.807 183.472C179.379 182.506 175.21 180.689 171.501 178.085C155.559 166.896 110.836 135.38 107.18 131.415C100.872 124.575 100.872 119.451 104.497 113.819C108.123 108.188 115.881 103.716 119.289 104.562Z" fill="#001A4B"/>
    <path d="M68.2722 335.111C68.1921 341.603 70.694 347.861 75.2277 352.508C79.7614 357.155 85.9555 359.811 92.4473 359.891C98.939 359.971 105.197 357.469 109.844 352.935C114.491 348.402 117.146 342.207 117.227 335.716C117.227 335.716 120.324 245.362 121.382 227.054C122.439 208.746 117.655 194.065 97.0556 191.95C75.701 189.759 64.3186 206.455 64.3186 221.967C64.3186 237.479 68.2722 335.111 68.2722 335.111Z" fill="#7C7C7C"/>
    <path d="M28.106 333.374C27.6862 336.583 27.9069 339.842 28.7552 342.965C29.6034 346.088 31.0624 349.012 33.0478 351.567C35.0332 354.122 37.5055 356.258 40.3218 357.852C43.138 359.446 46.2423 360.465 49.4551 360.851C52.6679 361.237 55.9254 360.983 59.0391 360.102C62.1528 359.221 65.0609 357.732 67.5953 355.72C70.1297 353.708 72.24 351.213 73.8042 348.38C75.3683 345.548 76.3553 342.433 76.7079 339.216C76.7079 339.216 89.4501 249.718 92.472 231.637C95.4938 213.556 92.2957 198.422 72.0491 194.116C51.0471 189.658 37.9271 205.045 36.3406 220.456C34.7541 235.868 28.106 333.374 28.106 333.374Z" fill="#7C7C7C"/>
    <path d="M108.463 441.582C108.463 441.582 107.254 492.929 106.952 500.61C106.65 508.29 101.79 510.38 93.958 511.06C86.1263 511.74 82.8274 505.52 81.7194 500.584C80.6114 495.649 73.9129 445.309 73.9129 445.309L108.463 441.582Z" fill="#FBBEAA"/>
    <path d="M107.582 477.391L78.6975 480.489C76.4563 464.599 73.9129 445.233 73.9129 445.233L108.463 441.506C108.463 441.506 108.01 460.746 107.582 477.391Z" fill="#F18380"/>
    <path d="M68.2718 335.111C68.3115 331.897 68.9839 328.722 70.2506 325.767C71.5174 322.813 73.3537 320.137 75.6547 317.892C77.9557 315.647 80.6763 313.877 83.6612 312.684C86.6461 311.491 89.8368 310.897 93.0512 310.936C96.2656 310.976 99.4407 311.649 102.395 312.915C105.35 314.182 108.026 316.018 110.271 318.319C112.516 320.62 114.285 323.341 115.479 326.326C116.672 329.311 117.266 332.501 117.226 335.716L112.19 478.833L72.6787 483.089L68.2718 335.111Z" fill="#7C7C7C"/>
    <path d="M56.7636 443.547C56.7636 443.547 50.0651 494.465 48.9571 502.045C47.849 509.625 42.7874 511.237 34.9054 511.06C27.0233 510.884 24.4295 504.362 23.8503 499.351C23.2711 494.339 22.012 443.547 22.012 443.547H56.7636Z" fill="#FBBEAA"/>
    <path d="M51.9285 479.054H22.8681C22.3645 463.038 21.886 443.547 21.886 443.547H56.7635C56.7635 443.547 54.2453 462.534 51.9285 479.054Z" fill="#F18380"/>
    <path d="M28.1057 333.374C28.942 326.981 32.267 321.176 37.3583 317.22C42.4496 313.264 48.8961 311.477 55.2975 312.247C61.6989 313.016 67.5381 316.28 71.5469 321.33C75.5557 326.38 77.4103 332.807 76.7076 339.216L54.7995 483.87H15.0618L28.1057 333.374Z" fill="#7C7C7C"/>
    <path d="M76.6828 339.216L54.0944 482.611" stroke="#565656" stroke-width="0.75" stroke-miterlimit="10" stroke-linecap="round"/>
    <path d="M76.7078 339.216C76.7078 339.216 89.45 249.718 92.4719 231.638" stroke="#565656" stroke-width="0.75" stroke-miterlimit="10" stroke-linecap="round"/>
    <path d="M37.5497 485.022C40.406 484.817 43.2379 485.668 45.508 487.413C47.7781 489.159 49.3281 491.677 49.8639 494.49L63.0091 507.963V516.348H20.8791C20.8791 516.348 22.9944 501.239 23.5987 497.839C24.2031 494.44 26.2429 485.022 37.5497 485.022Z" fill="#FBBEAA"/>
    <path d="M49.8382 494.389C50.3167 493.735 50.9966 493.231 51.475 493.533C51.9535 493.835 64.6706 503.908 65.275 504.412C65.6472 504.762 65.9288 505.196 66.0955 505.679C66.2622 506.161 66.309 506.677 66.2319 507.182V517.985H19.9468C19.9468 517.985 21.7599 502.02 21.8858 501.138C22.0117 500.257 22.8931 499.099 23.3968 499.124C26.5736 500.097 29.8707 500.623 33.1927 500.685C37.6078 500.919 42.012 500.054 46.0105 498.167C47.493 497.136 48.7877 495.858 49.8382 494.389Z" fill="black"/>
    <path d="M58.6272 508.919C56.386 507.257 48.3276 500.962 45.3058 498.595L46.0109 498.242C46.106 498.201 46.1917 498.141 46.2627 498.066C49.486 500.584 57.0659 506.527 59.2316 508.139C61.0623 509.541 62.3164 511.566 62.7571 513.83L61.775 513.981C61.3596 511.974 60.2438 510.18 58.6272 508.919Z" fill="white"/>
    <path d="M21.206 506.981C24.4679 507.014 27.6245 508.14 30.1709 510.179C32.4724 512.218 34.0314 514.964 34.603 517.985H33.2431C32.6869 515.367 31.3109 512.994 29.3147 511.211C26.9711 509.334 24.0575 508.313 21.0549 508.315L21.206 506.981Z" fill="white"/>
    <path d="M73.7112 517.96H19.9469C19.5714 517.96 19.267 518.265 19.267 518.64V523.853C19.267 524.228 19.5714 524.533 19.9469 524.533H73.7112C74.0867 524.533 74.3911 524.228 74.3911 523.853V518.64C74.3911 518.265 74.0867 517.96 73.7112 517.96Z" fill="white"/>
    <path d="M65.1489 504.311C65.6274 504.11 67.9694 504.79 71.0164 507.786C72.2851 509.098 73.1983 510.711 73.6698 512.473C74.1413 514.236 74.1555 516.09 73.7109 517.859H58.4253C59.2815 508.189 64.6705 504.513 65.1489 504.311Z" fill="white"/>
    <path d="M59.2818 504.463C59.0931 504.694 59.0031 504.99 59.0314 505.287C59.0597 505.584 59.204 505.858 59.4329 506.049C59.5453 506.142 59.6749 506.211 59.8142 506.254C59.9535 506.297 60.0999 506.311 60.2449 506.297C60.3899 506.283 60.5308 506.241 60.6593 506.172C60.7879 506.104 60.9017 506.011 60.9942 505.898L63.5124 502.851C63.7012 502.62 63.7912 502.324 63.7629 502.027C63.7346 501.73 63.5903 501.456 63.3614 501.264C63.2505 501.168 63.1212 501.096 62.9814 501.051C62.8417 501.007 62.6943 500.991 62.5483 501.005C62.4023 501.019 62.2607 501.063 62.1321 501.134C62.0035 501.204 61.8905 501.3 61.8001 501.416L59.2818 504.463Z" fill="white"/>
    <path d="M56.2854 502.17C56.0967 502.402 56.0067 502.698 56.035 502.995C56.0633 503.292 56.2076 503.566 56.4365 503.757C56.5474 503.853 56.6767 503.925 56.8165 503.97C56.9562 504.015 57.1036 504.03 57.2496 504.016C57.3956 504.002 57.5372 503.958 57.6658 503.888C57.7944 503.817 57.9074 503.721 57.9979 503.606L60.5161 500.559C60.6987 500.325 60.7848 500.031 60.7567 499.735C60.7286 499.44 60.5884 499.167 60.365 498.972C60.2541 498.876 60.1248 498.804 59.985 498.759C59.8453 498.715 59.6979 498.699 59.5519 498.713C59.4059 498.727 59.2643 498.771 59.1357 498.841C59.0071 498.912 58.8941 499.008 58.8037 499.123L56.2854 502.17Z" fill="white"/>
    <path d="M53.3893 499.905C53.1991 500.128 53.1055 500.418 53.1291 500.711C53.1527 501.004 53.2916 501.275 53.5152 501.466C53.7463 501.655 54.0425 501.745 54.3395 501.716C54.6365 501.688 54.9104 501.544 55.1017 501.315L57.6199 498.268C57.7258 498.164 57.8099 498.041 57.8673 497.905C57.9247 497.769 57.9543 497.622 57.9543 497.474C57.9543 497.327 57.9247 497.18 57.8673 497.044C57.8099 496.908 57.7258 496.784 57.6199 496.681C57.3864 496.499 57.0917 496.412 56.7966 496.441C56.5015 496.469 56.2283 496.609 56.0335 496.832L53.3893 499.905Z" fill="white"/>
    <path d="M50.4685 497.613C50.3757 497.725 50.3061 497.855 50.2635 497.994C50.2209 498.134 50.2062 498.28 50.2202 498.425C50.2342 498.57 50.2767 498.711 50.3452 498.839C50.4138 498.968 50.507 499.082 50.6196 499.174C50.8314 499.382 51.1162 499.498 51.4128 499.498C51.7094 499.498 51.9942 499.382 52.2061 499.174L54.7243 496.102C54.913 495.871 55.003 495.575 54.9747 495.278C54.9465 494.981 54.8022 494.707 54.5732 494.516C54.4608 494.423 54.3312 494.353 54.1919 494.311C54.0526 494.268 53.9062 494.253 53.7612 494.267C53.6162 494.281 53.4754 494.324 53.3468 494.392C53.2182 494.461 53.1044 494.554 53.0119 494.667L50.4685 497.613Z" fill="white"/>
    <path d="M96.728 485.022C99.5842 484.817 102.416 485.668 104.686 487.413C106.956 489.159 108.506 491.677 109.042 494.49L122.162 507.963V516.348H80.0573C80.0573 516.348 82.1474 501.239 82.777 497.839C83.4065 494.44 85.4212 485.022 96.728 485.022Z" fill="#FBBEAA"/>
    <path d="M109.017 494.389C109.495 493.735 110.15 493.231 110.654 493.533C111.157 493.835 123.849 503.908 124.428 504.412C125.007 504.916 125.41 505.545 125.41 507.182V517.985H79.1253C79.1253 517.985 80.9384 502.02 81.0643 501.138C81.1903 500.257 82.0716 499.099 82.5753 499.124C85.7521 500.097 89.0492 500.623 92.3713 500.685C96.7786 500.923 101.176 500.058 105.164 498.167C106.658 497.141 107.962 495.863 109.017 494.389Z" fill="black"/>
    <path d="M117.805 508.919C115.564 507.257 107.506 500.962 104.484 498.595L105.164 498.242C105.267 498.202 105.361 498.142 105.441 498.066C108.664 500.584 116.244 506.527 118.41 508.139C120.241 509.541 121.495 511.566 121.935 513.83L120.953 513.981C120.526 511.979 119.412 510.188 117.805 508.919Z" fill="white"/>
    <path d="M80.384 506.981C83.6459 507.014 86.8025 508.14 89.3489 510.179C91.6505 512.218 93.2095 514.964 93.781 517.985H92.4212C91.8581 515.364 90.473 512.991 88.4675 511.211C86.1357 509.331 83.2286 508.308 80.2329 508.315L80.384 506.981Z" fill="white"/>
    <path d="M132.889 517.96H79.1252C78.7497 517.96 78.4453 518.265 78.4453 518.64V523.853C78.4453 524.228 78.7497 524.533 79.1252 524.533H132.889C133.265 524.533 133.569 524.228 133.569 523.853V518.64C133.569 518.265 133.265 517.96 132.889 517.96Z" fill="white"/>
    <path d="M124.328 504.311C124.806 504.11 127.148 504.79 130.195 507.786C131.464 509.098 132.377 510.711 132.849 512.473C133.32 514.236 133.334 516.09 132.89 517.859H117.604C118.46 508.189 123.849 504.513 124.328 504.311Z" fill="white"/>
    <path d="M118.359 504.463C118.171 504.694 118.081 504.99 118.109 505.287C118.137 505.584 118.281 505.858 118.51 506.049C118.623 506.142 118.752 506.211 118.892 506.254C119.031 506.297 119.177 506.311 119.322 506.297C119.467 506.283 119.608 506.241 119.737 506.172C119.865 506.104 119.979 506.011 120.072 505.898L122.59 502.851C122.773 502.617 122.859 502.323 122.831 502.028C122.802 501.732 122.662 501.459 122.439 501.264C122.328 501.168 122.199 501.096 122.059 501.051C121.919 501.007 121.772 500.991 121.626 501.005C121.48 501.019 121.338 501.063 121.21 501.134C121.081 501.204 120.968 501.3 120.878 501.416L118.359 504.463Z" fill="white"/>
    <path d="M115.463 502.171C115.275 502.402 115.185 502.698 115.213 502.995C115.241 503.292 115.386 503.566 115.615 503.757C115.725 503.853 115.855 503.926 115.995 503.97C116.134 504.015 116.282 504.03 116.428 504.016C116.574 504.002 116.715 503.959 116.844 503.888C116.972 503.818 117.085 503.722 117.176 503.606L119.694 500.559C119.877 500.326 119.963 500.031 119.935 499.736C119.907 499.441 119.766 499.167 119.543 498.973C119.312 498.784 119.016 498.694 118.719 498.722C118.422 498.75 118.148 498.895 117.956 499.124L115.463 502.171Z" fill="white"/>
    <path d="M112.567 499.904C112.462 500.005 112.378 500.127 112.321 500.261C112.264 500.395 112.235 500.539 112.235 500.685C112.235 500.831 112.264 500.975 112.321 501.109C112.378 501.243 112.462 501.365 112.567 501.466C112.798 501.654 113.094 501.744 113.391 501.716C113.688 501.688 113.962 501.543 114.154 501.314L116.672 498.267C116.861 498.036 116.951 497.74 116.922 497.443C116.894 497.146 116.75 496.872 116.521 496.681C116.408 496.588 116.279 496.519 116.139 496.476C116 496.433 115.854 496.419 115.709 496.433C115.564 496.447 115.423 496.489 115.294 496.558C115.166 496.626 115.052 496.719 114.959 496.832L112.567 499.904Z" fill="white"/>
    <path d="M109.647 497.613C109.554 497.725 109.484 497.855 109.442 497.994C109.399 498.134 109.384 498.28 109.398 498.425C109.413 498.57 109.455 498.711 109.524 498.839C109.592 498.968 109.685 499.082 109.798 499.174C110.01 499.382 110.295 499.498 110.591 499.498C110.888 499.498 111.173 499.382 111.384 499.174L113.903 496.102C114.091 495.871 114.181 495.575 114.153 495.278C114.125 494.981 113.98 494.707 113.752 494.516C113.639 494.423 113.51 494.353 113.37 494.311C113.231 494.268 113.085 494.253 112.94 494.267C112.794 494.281 112.654 494.324 112.525 494.392C112.396 494.461 112.283 494.554 112.19 494.667L109.647 497.613Z" fill="white"/>
    <path d="M120.641 207.469C120.641 207.469 120.641 233.583 120.641 235.018C120.641 236.454 108.05 248.768 91.3288 248.768C65.6177 248.768 34.8449 239.375 35.2982 233.256C35.6004 229.226 38.1331 207.469 38.1331 207.469H120.641Z" fill="#7C7C7C"/>
    <path d="M101.941 97.3216C87.8388 109.409 73.8207 102.358 69.2039 96.0625L49.0581 104.876L54.0945 198.051L120.828 200.569L118.309 111.172L101.941 97.3216Z" fill="white"/>
    <path d="M120.723 105.355C118.028 103.592 100.577 93.519 100.577 93.519V226.331C102.511 228.215 102.907 228.171 105.685 227.856L105.815 227.842C111.821 226.334 117.615 224.084 123.065 221.143C123.065 221.143 125.381 124.544 125.961 117.19C126.54 109.837 123.417 107.117 120.723 105.355Z" fill="#002776"/>
    <path d="M73.6466 227.809C74.8709 227.55 76.0305 227.047 77.0567 226.331L70.2071 92.1592C70.2071 92.1592 50.4389 100.192 45.1758 102.534C42.988 103.457 41.1122 104.99 39.7725 106.951C38.4328 108.911 37.686 111.216 37.6211 113.589C37.2938 118.021 36.8405 216.258 36.7649 217.114C36.6894 217.97 37.4197 218.449 38.2003 218.902C38.981 219.355 63.6597 226.557 69.93 227.842C71.1586 228.08 72.4224 228.069 73.6466 227.809Z" fill="#002776"/>
    <g filter="url(#filter0_d_110_25)">
        <rect x="63.7076" y="138.752" width="45.5256" height="64.8739" rx="1" transform="rotate(-6.55484 63.7076 138.752)" fill="#EFEFEF"/>
    </g>
    <path d="M82.8816 165.041C86.1076 163.678 89.0247 161.658 91.4476 159.11C92.9471 157.536 94.6478 156.17 96.504 155.048C97.5927 154.368 98.5324 153.469 99.2638 152.41C100.23 150.767 101.03 149.032 101.651 147.232C101.881 145.681 102.408 144.187 103.204 142.833C103.96 142.14 106.629 142.51 108.014 145.203C108.492 146.403 108.708 147.694 108.649 148.99C108.589 150.287 108.256 151.559 107.67 152.722C106.981 154.116 106.441 155.579 106.059 157.086L106.311 157.236C108.422 156.116 110.678 155.303 113.01 154.823C113.855 154.634 114.737 154.736 115.511 155.113C116.285 155.49 116.908 156.12 117.278 156.901C117.649 157.683 117.745 158.57 117.553 159.42C117.36 160.271 116.89 161.034 116.217 161.588C119.856 162.006 119.443 167.619 116.319 168.361C116.988 168.642 117.552 169.124 117.937 169.742C118.321 170.359 118.506 171.083 118.466 171.815C118.427 172.547 118.166 173.252 117.717 173.834C117.269 174.417 116.655 174.848 115.959 175.071C118.178 177.117 116.556 180.489 112.527 180.504C109.253 180.837 100.498 182.207 97.4517 182.863C94.4056 183.519 88.2829 182.068 86.3161 182.677C83.3885 183.75 79.9881 183.767 77.3944 176.064C74.8008 168.36 79.8689 166.037 82.8816 165.041Z" fill="#FBBEAA"/>
    <path d="M88.6454 185.708L29.6739 209.45C22.1378 213.24 9.89387 211.296 6.20282 202.482C5.52697 200.838 5.19201 199.075 5.21824 197.298C5.24447 195.521 5.63131 193.768 6.35538 192.145C7.07944 190.522 8.12561 189.063 9.43041 187.857C10.7352 186.651 12.2715 185.722 13.946 185.127L83.6413 159.92L88.6454 185.708Z" fill="#002776"/>
    <defs>
        <filter id="filter0_d_110_25" x="63.8151" y="133.663" width="54.4185" height="69.4316" filterUnits="userSpaceOnUse" color-interpolation-filters="sRGB">
            <feFlood flood-opacity="0" result="BackgroundImageFix"/>
            <feColorMatrix in="SourceAlpha" type="matrix" values="0 0 0 0 0 0 0 0 0 0 0 0 0 0 0 0 0 0 127 0" result="hardAlpha"/>
            <feOffset dx="2"/>
            <feComposite in2="hardAlpha" operator="out"/>
            <feColorMatrix type="matrix" values="0 0 0 0 0.603922 0 0 0 0 0.6 0 0 0 0 0.631373 0 0 0 1 0"/>
            <feBlend mode="normal" in2="BackgroundImageFix" result="effect1_dropShadow_110_25"/>
            <feBlend mode="normal" in="SourceGraphic" in2="effect1_dropShadow_110_25" result="shape"/>
        </filter>
    </defs>
</svg>
