<svg width="203" height="514" viewBox="0 0 203 514" fill="none" xmlns="http://www.w3.org/2000/svg">
<path d="M148.545 20.881C149.963 26.3071 150.804 31.8678 151.054 37.4706C151.352 42.1339 152.895 46.6321 155.522 50.4964C158.032 53.734 161.319 57.0971 160.115 67.1363H95.8393C95.8393 67.1363 93.3295 62.1167 96.3413 53.5081C99.8889 42.8806 102.501 31.9634 104.147 20.881H148.545Z" fill="#BC664A"/>
<path d="M136.434 50.2184V73.6183C136.434 73.6183 134.733 81.6938 123.333 81.6938C121.07 81.901 118.819 81.1596 117.044 79.6219C115.269 78.0842 114.103 75.8668 113.787 73.4253V50.2184H136.434Z" fill="#FBBEAA"/>
<path d="M113.859 68.341C120.937 71.679 131.252 68.6924 136.247 59.4313V50.4965H113.859V68.341Z" fill="#F18380"/>
<path d="M99.8802 34.2077C99.7731 39.3119 99.9995 44.4176 100.558 49.4923C101.487 56.7205 104.047 64.7518 116.872 64.7518C129.696 64.7518 136.197 58.9793 138.958 49.4923C140.614 43.7449 143.977 35.2869 142.597 25.4737C141.216 15.6605 135.318 9.28562 121.389 8.90915C107.46 8.53268 98.3493 14.8071 99.8802 34.2077Z" fill="#FBBEAA"/>
<path d="M126.986 38.575C126.897 38.9446 126.705 39.2818 126.434 39.5482C126.163 39.8147 125.822 39.9997 125.451 40.0823C125.08 40.1648 124.693 40.1417 124.334 40.0154C123.976 39.8891 123.66 39.6647 123.422 39.3678C123.185 39.0709 123.035 38.7133 122.991 38.3357C122.946 37.9581 123.009 37.5755 123.171 37.2315C123.333 36.8875 123.588 36.5959 123.907 36.3897C124.227 36.1835 124.598 36.0711 124.978 36.0652C125.277 36.0931 125.567 36.1808 125.831 36.3232C126.095 36.4655 126.327 36.6596 126.515 36.8938C126.702 37.1281 126.84 37.3976 126.921 37.6865C127.002 37.9753 127.024 38.2775 126.986 38.575Z" fill="#403D4F"/>
<path d="M108.388 38.575C108.299 38.9446 108.108 39.2818 107.837 39.5482C107.566 39.8147 107.225 39.9997 106.854 40.0823C106.483 40.1648 106.096 40.1417 105.737 40.0154C105.378 39.8891 105.062 39.6647 104.825 39.3678C104.587 39.0709 104.438 38.7133 104.393 38.3357C104.349 37.9581 104.411 37.5755 104.573 37.2315C104.735 36.8875 104.991 36.5959 105.31 36.3897C105.63 36.1835 106 36.0711 106.381 36.0652C106.678 36.0964 106.966 36.1863 107.228 36.3297C107.491 36.4731 107.722 36.6671 107.909 36.9006C108.096 37.1341 108.234 37.4023 108.316 37.6897C108.399 37.9771 108.423 38.278 108.388 38.575Z" fill="#403D4F"/>
<path d="M120.937 31.4726C120.937 31.4726 120.937 31.4726 121.138 31.2718C121.341 31.075 121.568 30.9061 121.816 30.7698C122.132 30.5887 122.469 30.4454 122.82 30.3432C123.636 30.119 124.485 30.0341 125.329 30.0922C125.685 30.1105 126.037 30.1609 126.384 30.2428L127.362 30.5189C127.524 30.5709 127.659 30.6839 127.739 30.8338C127.818 30.9838 127.836 31.1589 127.789 31.322C127.748 31.4503 127.667 31.5626 127.56 31.6435C127.452 31.7244 127.321 31.7699 127.187 31.7737H125.304C124.979 31.749 124.651 31.749 124.326 31.7737C124.003 31.8034 123.684 31.8622 123.372 31.9494C123.046 31.9494 122.82 32.1251 122.569 32.1502C122.39 32.2253 122.205 32.2841 122.017 32.3259H121.791C121.634 32.394 121.457 32.398 121.297 32.337C121.138 32.276 121.009 32.1549 120.937 31.9996C120.9 31.9124 120.881 31.8184 120.881 31.7235C120.881 31.6286 120.9 31.5347 120.937 31.4475V31.4726Z" fill="#403D4F"/>
<path d="M108.715 32.4259C108.715 32.4259 108.715 32.4259 108.564 32.4259L108.188 32.2754H107.912C107.812 32.2536 107.71 32.2536 107.611 32.2754C107.389 32.2021 107.162 32.1434 106.933 32.0997C106.699 32.0736 106.464 32.0736 106.23 32.0997H104.8C104.715 32.0997 104.631 32.0827 104.553 32.0496C104.476 32.0165 104.405 31.9681 104.347 31.9071C104.288 31.8462 104.243 31.774 104.213 31.695C104.182 31.6159 104.169 31.5316 104.172 31.4471C104.177 31.3226 104.217 31.2021 104.288 31.0998C104.36 30.9975 104.459 30.9177 104.574 30.8699L105.352 30.5938C105.629 30.5107 105.916 30.4602 106.205 30.4432C106.546 30.3934 106.893 30.3934 107.234 30.4432C107.889 30.5254 108.512 30.7761 109.041 31.1711L109.518 31.6479C109.643 31.7985 109.643 31.8487 109.643 31.8738V32.0997C109.665 32.272 109.621 32.4463 109.518 32.5864C109.415 32.7265 109.262 32.8218 109.091 32.8526C108.919 32.7593 108.786 32.6082 108.715 32.4259Z" fill="#403D4F"/>
<path d="M113.859 47.1334C113.436 47.131 113.018 47.043 112.63 46.8748C112.242 46.7066 111.892 46.4616 111.601 46.1546C111.494 46.0408 111.413 45.9063 111.361 45.7594C111.309 45.6126 111.288 45.4566 111.299 45.3013C111.299 45.0252 111.726 41.5617 111.877 40.2817C111.906 40.1579 111.976 40.0478 112.077 39.9701C112.177 39.8924 112.302 39.8517 112.429 39.855C112.558 39.8738 112.674 39.9418 112.754 40.0449C112.833 40.1479 112.87 40.2778 112.855 40.4072C112.855 40.5829 112.303 45.1256 112.253 45.4268C112.459 45.6542 112.711 45.8347 112.992 45.956C113.274 46.0773 113.578 46.1364 113.884 46.1295C114.013 46.1359 114.135 46.1917 114.223 46.2851C114.312 46.3786 114.361 46.5026 114.361 46.6315C114.355 46.7626 114.3 46.8868 114.208 46.9796C114.115 47.0725 113.99 47.1273 113.859 47.1334Z" fill="#F18380"/>
<path d="M111.551 52.0777C110.622 52.3036 110.271 53.7091 110.848 55.3404C111.417 56.4637 112.349 57.362 113.492 57.8903C114.635 58.4186 115.923 58.546 117.148 58.2518C117.816 58.22 118.471 58.0549 119.075 57.7662C119.679 57.4775 120.219 57.0709 120.663 56.5705C121.107 56.0701 121.447 55.4859 121.662 54.8523C121.877 54.2186 121.964 53.5483 121.916 52.8808C121.916 51.8016 121.163 51.1742 119.758 51.1742C117.002 51.2478 114.257 51.55 111.551 52.0777Z" fill="#73102A"/>
<path d="M121.916 53.0064V52.7805C120.079 52.356 118.149 52.6361 116.509 53.5656C114.868 54.495 113.636 56.0061 113.056 57.8001C114.347 58.4328 115.8 58.6603 117.222 58.4526C117.891 58.4116 118.545 58.2371 119.145 57.9394C119.746 57.6417 120.28 57.2268 120.718 56.7193C121.155 56.2117 121.486 55.6217 121.692 54.984C121.898 54.3463 121.974 53.6739 121.916 53.0064Z" fill="#D65155"/>
<path d="M112.354 53.5836C115.532 53.6329 118.696 53.1494 121.715 52.153C121.526 51.8111 121.238 51.5345 120.888 51.3598C120.539 51.185 120.144 51.1203 119.757 51.1742C117.002 51.2478 114.256 51.55 111.551 52.0777C111.291 52.1672 111.064 52.3319 110.899 52.551C110.733 52.77 110.637 53.0334 110.622 53.3075C111.177 53.5047 111.764 53.5983 112.354 53.5836Z" fill="white"/>
<path d="M126.308 24.3449C126.308 24.3449 128.818 36.8938 139.459 41.7628C139.459 41.7628 150.301 35.4632 149.046 23.4414C147.49 8.63365 126.458 -8.0313 105.527 7.73013C103.494 7.40385 101.285 3.11213 101.938 0C101.082 0.537607 100.409 1.3209 100.006 2.24744C99.6026 3.17397 99.4885 4.20061 99.6783 5.19306C99.8681 6.18551 100.353 7.09757 101.07 7.80995C101.786 8.52232 102.701 9.00185 103.695 9.1858C100.278 9.6618 97.1772 11.4393 95.04 14.1471C92.9027 16.8549 91.8942 20.2837 92.2249 23.7174C92.332 25.8823 93.2334 27.9318 94.7568 29.4737C96.2802 31.0156 98.3187 31.9418 100.482 32.075H104.171C107.026 30.7669 109.334 28.5033 110.697 25.6751C110.342 27.807 109.602 29.8565 108.513 31.7236C108.313 32.1001 108.764 32.7526 111.851 32.1001C115.395 30.8811 118.358 28.3844 120.159 25.0978C119.484 27.2528 118.584 29.3307 117.473 31.297C117.473 31.6734 119.105 32.2256 121.514 31.1213C122.856 30.5377 124.013 29.5975 124.858 28.4028C125.703 27.2081 126.204 25.8046 126.308 24.3449Z" fill="#BC664A"/>
<path d="M109.844 34.2081C110.747 34.2081 111.099 35.8646 111.099 37.4457C111.006 39.5875 110.367 41.6699 109.241 43.4943C108.781 44.0449 108.184 44.4646 107.51 44.7113C106.836 44.958 106.109 45.023 105.401 44.8998C104.54 45.033 103.661 44.9762 102.824 44.7334C101.987 44.4906 101.214 44.0677 100.558 43.4943C99.176 41.764 98.3532 39.6545 98.1984 37.4457C98.1984 35.8646 98.6752 34.2081 99.8046 34.2081H109.844Z" stroke="#403D4F" stroke-width="0.75" stroke-miterlimit="10"/>
<path d="M117.424 34.2081C116.219 34.2081 115.742 35.8646 115.742 37.4458C115.906 39.6793 116.787 41.8004 118.252 43.4943C118.945 44.0636 119.75 44.4825 120.614 44.7245C121.478 44.9664 122.383 45.0261 123.271 44.8998C125.527 45.1899 127.814 44.6935 129.747 43.4943C131.509 41.9392 132.628 39.7823 132.884 37.4458C132.884 35.8646 132.281 34.2081 130.75 34.2081H117.424Z" stroke="#403D4F" stroke-width="0.75" stroke-miterlimit="10"/>
<path d="M110.898 35.7138C111.619 35.1642 112.501 34.8666 113.407 34.8666C114.314 34.8666 115.196 35.1642 115.917 35.7138" stroke="#403D4F" stroke-width="0.75" stroke-miterlimit="10"/>
<path d="M130.8 34.2081H133.862C134.515 34.2081 135.268 34.3587 135.268 35.2371V36.6426C135.268 36.994 133.034 37.6967 132.758 38.4748" stroke="#403D4F" stroke-width="0.75" stroke-miterlimit="10"/>
<path d="M141.944 37.8727L135.268 35.2374" stroke="#403D4F" stroke-width="0.75" stroke-miterlimit="10"/>
<path d="M138.506 43.6199C138.707 40.2066 139.61 36.216 143.777 36.8184C148.646 37.5713 149.123 50.7477 138.757 49.1665L138.506 43.6199Z" fill="#FBBEAA"/>
<path d="M144.127 44.4984C144.04 44.4996 143.954 44.4768 143.879 44.4326C143.804 44.3883 143.742 44.3243 143.701 44.2474C143.59 44.0301 143.426 43.8446 143.224 43.7085C143.022 43.5723 142.789 43.49 142.546 43.4694C142.257 43.4725 141.973 43.5504 141.722 43.6955C141.471 43.8406 141.262 44.048 141.116 44.2976C141.056 44.3834 140.969 44.4471 140.869 44.4789C140.769 44.5107 140.662 44.5087 140.563 44.4733C140.457 44.4438 140.365 44.3765 140.305 44.2841C140.245 44.1916 140.221 44.0804 140.237 43.9713C140.281 42.9157 140.609 41.8915 141.188 41.0077C141.767 40.1238 142.575 39.4134 143.525 38.9518C143.589 38.9138 143.66 38.8905 143.734 38.8836C143.808 38.8766 143.883 38.8861 143.953 38.9115C144.022 38.9369 144.086 38.9774 144.138 39.0302C144.19 39.0831 144.23 39.1468 144.255 39.2169C144.279 39.287 144.288 39.3617 144.281 39.4356C144.273 39.5095 144.249 39.5807 144.21 39.6442C144.172 39.7077 144.119 39.7618 144.057 39.8026C143.995 39.8435 143.925 39.87 143.851 39.8804C143.287 40.1545 142.785 40.5407 142.375 41.0153C141.965 41.49 141.656 42.0432 141.467 42.6411C141.817 42.4684 142.207 42.3905 142.596 42.4152C143.002 42.4536 143.392 42.5902 143.733 42.8133C144.074 43.0363 144.356 43.339 144.554 43.6952C144.609 43.8093 144.619 43.9399 144.582 44.0609C144.544 44.1819 144.463 44.2844 144.353 44.3478L144.127 44.4984Z" fill="#F18380"/>
<path d="M33.2532 77.155C33.1524 74.9543 33.7416 72.777 34.9383 70.9273C36.7808 68.791 38.1611 68.2658 38.9925 65.57C39.632 63.0675 40.6535 60.6786 42.0209 58.4874C42.9978 57.1441 44.4631 56.0452 44.4631 55.0194C44.4631 53.9937 42.5093 52.0155 39.7252 52.5772C38.5326 52.9487 37.4369 53.5792 36.5164 54.4236C35.596 55.268 34.8736 56.3055 34.401 57.4617C34.1343 56.7572 33.9778 56.0158 33.9371 55.2637L33.3265 38.3233C33.3172 37.9352 33.2303 37.5529 33.0708 37.1989C32.9113 36.845 32.6825 36.5266 32.3979 36.2625C32.1133 35.9985 31.7788 35.7941 31.4139 35.6614C31.0491 35.5288 30.6614 35.4706 30.2737 35.4903C29.6564 35.5166 29.0629 35.7358 28.5766 36.1169C28.3298 36.3103 24.199 41.3201 20.167 46.2858C16.2533 51.1056 12.4328 55.884 12.3475 56.1762C13.1315 63.2948 14.6037 70.3206 16.7436 77.155C16.7695 78.2962 17.0339 79.4192 17.5197 80.4521C18.0056 81.485 18.7021 82.4047 19.5647 83.1523C20.4273 83.8999 21.4367 84.4586 22.5281 84.7927C23.6196 85.1269 24.7688 85.2289 25.902 85.0924C26.9276 85.1266 27.9484 84.9399 28.8954 84.5448C29.8425 84.1498 30.6935 83.5557 31.3907 82.8029C32.0879 82.0501 32.6151 81.1561 32.9365 80.1816C33.2578 79.2071 33.3658 78.1749 33.2532 77.155Z" fill="#FBBEAA"/>
<path d="M29.3166 31.314L46.3078 47.981C46.4878 47.7248 46.6679 47.4549 46.8479 47.1986C47.388 46.4162 47.9349 45.6271 48.475 44.8447C48.6758 44.5547 48.8696 44.2714 49.0704 43.9814C49.8804 42.8146 49.7229 41.2347 48.7147 40.243L37.0064 28.7551C35.9983 27.7634 34.415 27.6421 33.2622 28.4714C32.9808 28.6789 32.6996 28.8727 32.4182 29.0801C31.6428 29.6351 30.8675 30.1902 30.0921 30.7453C29.8381 30.9395 29.5773 31.1267 29.3166 31.314Z" fill="#E2874A"/>
<g opacity="0.53">
<path d="M30.0919 30.7579L46.8548 47.1909C47.3948 46.4085 47.9418 45.6194 48.4818 44.837L32.4249 29.0859C31.6426 29.6477 30.8673 30.2028 30.0919 30.7579Z" fill="#D46424"/>
</g>
<path d="M26.3256 33.5375C25.7044 34.2781 25.0766 35.0118 24.4485 35.7591C23.5653 36.7958 22.6956 37.8326 21.8191 38.8762C18.4375 42.8751 15.0696 46.8742 11.6881 50.8731C9.87307 53.0207 8.05805 55.1683 6.24304 57.3159C5.08363 58.6893 5.18133 60.7173 6.45835 61.9708L16.1168 71.4408C17.3938 72.6942 19.4268 72.753 20.7812 71.5656C22.8919 69.7073 25.0094 67.8559 27.1201 65.9976C31.0528 62.5359 34.9854 59.0879 38.9181 55.6262C39.9424 54.7341 40.9669 53.8283 41.9845 52.9293C42.7065 52.292 43.442 51.6548 44.1708 51.0107C45.1127 50.1856 45.4881 48.9591 45.2776 47.8207C45.1633 47.1527 44.831 46.5093 44.3136 45.9929L31.3619 33.286C30.8309 32.7694 30.1885 32.4555 29.5096 32.352C28.3486 32.1814 27.1331 32.5747 26.3256 33.5375Z" fill="#F5F5F5"/>
<path d="M21.8179 38.8745C18.4363 42.8734 15.0684 46.8725 11.6869 50.8714L27.112 66.0026C31.0448 62.5409 34.9773 59.0929 38.9167 55.6381L21.8179 38.8745Z" fill="#E2874A"/>
<g opacity="0.52">
<path d="M29.5966 57.7406C31.6179 55.9696 33.6256 54.1985 35.6399 52.4342L38.8997 55.6367C34.9669 59.0984 31.0344 62.5465 27.0949 66.0013L11.6698 50.87C12.2149 50.2305 12.7464 49.5909 13.2915 48.9514L22.0493 57.5397C24.1262 59.5715 27.4172 59.6525 29.5966 57.7406Z" fill="#E2874A"/>
</g>
<path d="M26.3007 33.182L44.5017 51.0337C45.4629 51.9772 47.0137 51.9689 47.9574 50.9942L48.0469 50.9069C48.9905 49.9457 48.9753 48.4016 48.0074 47.4512L29.8064 29.5995C28.8453 28.656 27.3011 28.6712 26.3507 29.639L26.2612 29.7263C25.3244 30.6943 25.3396 32.2385 26.3007 33.182Z" fill="#E2874A"/>
<g opacity="0.53">
<path d="M27.3329 29.0459C26.9955 29.9396 27.1936 30.9827 27.9196 31.6853L46.067 49.4819C46.7525 50.1568 47.7296 50.3456 48.5833 50.0635C48.4638 50.3817 48.2833 50.6788 48.0286 50.9273L47.9942 50.9609C47.0369 51.9355 45.4587 51.9571 44.4841 50.9998L26.3368 33.2032C25.3622 32.2459 25.3406 30.6676 26.2979 29.6931L26.3324 29.6595C26.6215 29.3773 26.9642 29.1639 27.3329 29.0459Z" fill="#D46424"/>
</g>
<path d="M25.8895 52.3429C24.2287 51.8805 22.778 51.4819 21.1476 53.557C22.1391 54.7933 24.1443 55.4571 26.2912 55.0956C29.0379 54.6326 31.0138 52.6774 30.8138 50.6685C29.9779 51.7262 28.6573 52.9343 27.1101 52.6434C26.7029 52.5704 26.2826 52.4565 25.8895 52.3429Z" fill="#5B2500"/>
<path d="M25.0357 47.6122C22.2072 48.0878 20.1892 50.1513 20.5381 52.2164C20.5442 52.2777 20.5638 52.3392 20.5768 52.3937C22.5828 50.1941 24.569 50.742 26.2095 51.1973C26.6026 51.3109 26.9686 51.4106 27.3352 51.4695C28.4888 51.6876 29.6686 50.3213 30.3201 49.3226C29.3775 47.9712 27.2916 47.2384 25.0357 47.6122Z" fill="#5B2500"/>
<path d="M25.7792 43.0511C27.1664 40.8381 24.3497 37.9197 22.5625 36.7794C22.5625 36.7794 21.487 35.535 19.2579 37.7642C16.7962 40.226 18.2732 41.9108 18.2732 41.9108C19.8817 43.6213 23.6348 46.4721 25.7792 43.0511Z" fill="#FBBEAA"/>
<path d="M21.8405 47.3362C23.2277 45.1231 20.411 42.2048 18.6238 41.0644C18.6238 41.0644 17.5483 39.82 15.3192 42.0492C12.8575 44.511 14.3345 46.1959 14.3345 46.1959C15.943 47.9063 19.6961 50.7571 21.8405 47.3362Z" fill="#FBBEAA"/>
<path d="M17.9018 51.2749C19.289 49.0619 16.4723 46.1435 14.6851 45.0032C14.6851 45.0032 13.6096 43.7587 11.3805 45.9879C8.91879 48.4497 10.3958 50.1346 10.3958 50.1346C12.0043 51.845 15.7574 54.6958 17.9018 51.2749Z" fill="#FBBEAA"/>
<path d="M13.042 54.7808C14.1917 52.9259 11.8573 50.4799 10.3762 49.5241C10.3762 49.5241 9.48482 48.4811 7.63739 50.3495C5.59723 52.4129 6.82133 53.825 6.82133 53.825C8.15437 55.2587 11.2649 57.6481 13.042 54.7808Z" fill="#FBBEAA"/>
<path d="M116.541 475.73C116.541 473.378 115.607 471.123 113.944 469.461C112.282 467.798 110.027 466.864 107.676 466.864C105.324 466.864 103.069 467.798 101.407 469.461C99.7443 471.123 98.8103 473.378 98.8103 475.73V494.999H116.541V475.73Z" fill="#FBBEAA"/>
<path d="M99.4453 479.32C97.2717 479.32 96.8809 480.272 96.246 481.518C95.216 484.837 93.4552 487.883 91.0928 490.432C87.566 493.436 83.7822 496.125 79.7852 498.467V508.676H119.252C119.252 508.676 118.983 500.616 118.788 494.926C118.593 489.235 118.031 482.299 118.08 481.567C118.128 480.834 118.08 479.32 116.736 479.32H99.4453Z" fill="#302D3B"/>
<path d="M114.343 495.487C114.348 496.74 113.981 497.967 113.287 499.011C112.594 500.055 111.607 500.869 110.45 501.351C109.293 501.833 108.019 501.96 106.79 501.717C105.56 501.473 104.431 500.87 103.545 499.984C102.659 499.098 102.056 497.969 101.813 496.74C101.569 495.51 101.697 494.237 102.179 493.08C102.66 491.923 103.475 490.935 104.519 490.242C105.563 489.549 106.789 489.181 108.042 489.186C109.711 489.193 111.31 489.859 112.491 491.039C113.671 492.219 114.337 493.818 114.343 495.487Z" fill="#93929C"/>
<path d="M108.042 491.775L109.483 493.9L111.95 494.608L110.387 496.635L110.46 499.2L108.042 498.32L105.625 499.2L105.722 496.635L104.135 494.608L106.601 493.9L108.042 491.775Z" fill="white"/>
<path d="M80.0541 498.296C80.0541 498.296 74.4613 501.251 72.361 502.692C71.3886 503.351 70.5988 504.245 70.065 505.292C69.5312 506.338 69.2709 507.502 69.3082 508.676H84.6455C84.6455 508.676 84.328 501.178 80.0541 498.296Z" fill="white"/>
<path d="M119.252 508.676V512.901C119.252 513.609 118.617 514 117.542 514H70.9931C69.943 514 69.308 513.609 69.308 512.901V508.676H119.252Z" fill="white"/>
<path d="M84.6456 495.439C84.5104 495.231 84.2996 495.084 84.0579 495.03C83.8162 494.975 83.5627 495.016 83.3513 495.146C83.2459 495.21 83.1546 495.296 83.0827 495.396C83.0108 495.497 82.9597 495.611 82.9324 495.731C82.9051 495.852 82.9021 495.977 82.9237 496.098C82.9453 496.22 82.9911 496.336 83.0582 496.44L84.6945 499.078C84.7733 499.214 84.8875 499.327 85.025 499.405C85.1625 499.482 85.3183 499.521 85.476 499.517C85.6569 499.514 85.8338 499.464 85.9888 499.371C86.0941 499.306 86.1854 499.221 86.2574 499.12C86.3293 499.02 86.3805 498.906 86.4078 498.785C86.4351 498.665 86.438 498.54 86.4164 498.418C86.3948 498.296 86.3491 498.18 86.282 498.076L84.6456 495.439Z" fill="white"/>
<path d="M87.5274 493.411C87.4473 493.318 87.3496 493.242 87.2399 493.187C87.1302 493.132 87.0107 493.099 86.8883 493.089C86.7658 493.08 86.6428 493.096 86.5262 493.134C86.4096 493.173 86.3017 493.234 86.2087 493.314C86.1157 493.394 86.0394 493.492 85.9841 493.601C85.9289 493.711 85.8957 493.83 85.8866 493.953C85.8776 494.075 85.8927 494.198 85.9312 494.315C85.9697 494.432 86.0308 494.54 86.111 494.633L88.0159 496.879C88.1038 496.982 88.2122 497.066 88.3341 497.125C88.456 497.184 88.5889 497.217 88.7242 497.221C88.9011 497.218 89.0736 497.165 89.2223 497.07C89.371 496.974 89.4901 496.838 89.5662 496.679C89.6422 496.519 89.6723 496.341 89.653 496.165C89.6337 495.989 89.5658 495.822 89.4568 495.683L87.5274 493.411Z" fill="white"/>
<path d="M90.2379 491.141C90.0436 491.015 89.8104 490.965 89.5818 490.999C89.3532 491.033 89.1447 491.149 88.9952 491.325C88.8458 491.502 88.7656 491.726 88.7696 491.958C88.7735 492.189 88.8614 492.41 89.0168 492.582L91.1903 494.462C91.3608 494.606 91.5776 494.684 91.8009 494.682C91.9354 494.687 92.0692 494.661 92.192 494.606C92.3148 494.551 92.4233 494.468 92.5092 494.364C92.5994 494.28 92.6713 494.178 92.7205 494.064C92.7696 493.951 92.7949 493.829 92.7949 493.705C92.7949 493.581 92.7696 493.459 92.7205 493.346C92.6713 493.232 92.5994 493.13 92.5092 493.046L90.2379 491.141Z" fill="white"/>
<path d="M95.0005 490.017L92.5582 488.503C92.3438 488.376 92.0883 488.338 91.8463 488.397C91.6044 488.457 91.3952 488.608 91.2639 488.82C91.1978 488.925 91.1535 489.043 91.1337 489.166C91.1139 489.288 91.119 489.414 91.1486 489.535C91.1782 489.655 91.2318 489.769 91.3061 489.868C91.3805 489.968 91.4741 490.052 91.5814 490.115L94.0236 491.629C94.1684 491.725 94.3384 491.776 94.5121 491.775C94.6712 491.771 94.8267 491.727 94.9635 491.645C95.1004 491.564 95.214 491.449 95.2936 491.311C95.4227 491.1 95.4643 490.846 95.4096 490.605C95.3549 490.363 95.2081 490.152 95.0005 490.017Z" fill="white"/>
<path d="M97.0525 486.867L94.3172 485.719C94.084 485.622 93.8218 485.621 93.5882 485.717C93.3547 485.814 93.1689 485.999 93.0717 486.232C93.0241 486.345 92.9995 486.468 92.9995 486.591C92.9996 486.714 93.0242 486.836 93.072 486.95C93.1197 487.064 93.1896 487.167 93.2777 487.253C93.3657 487.339 93.47 487.407 93.5846 487.453L96.3199 488.601H96.6862C96.8969 488.589 97.0979 488.508 97.2576 488.371C97.4174 488.233 97.5267 488.046 97.5687 487.839C97.6106 487.632 97.5826 487.417 97.4892 487.228C97.3958 487.039 97.2422 486.886 97.0525 486.794V486.867Z" fill="white"/>
<path d="M98.7617 483.35L95.7334 482.593C95.4937 482.534 95.2407 482.573 95.03 482.702C94.8193 482.83 94.6682 483.037 94.6099 483.276C94.5516 483.516 94.5909 483.769 94.7191 483.98C94.8474 484.19 95.054 484.341 95.2937 484.4L98.2977 485.181H98.5175C98.7278 485.179 98.9318 485.109 99.099 484.981C99.2662 484.853 99.3877 484.675 99.4455 484.473C99.4979 484.234 99.456 483.984 99.3287 483.774C99.2013 483.565 98.9983 483.413 98.7617 483.35Z" fill="white"/>
<path d="M129.51 352.494C129.241 340.674 121.279 334.959 109.483 335.252C97.6873 335.545 89.1883 341.724 89.4569 353.52L98.8107 476.682H116.541L129.51 352.494Z" fill="#FBBEAA"/>
<path d="M131.049 352.42C130.983 349.614 130.365 346.848 129.23 344.281C128.096 341.713 126.466 339.394 124.436 337.456C122.405 335.519 120.012 334 117.394 332.986C114.776 331.973 111.985 331.486 109.178 331.551C106.372 331.617 103.606 332.235 101.039 333.37C98.471 334.504 96.1521 336.134 94.2142 338.164C92.2764 340.195 90.7575 342.588 89.7444 345.206C88.7312 347.824 88.2435 350.615 88.3093 353.422L82.7644 480.029H131.048L131.049 352.42Z" fill="#93929C"/>
<path d="M191.274 475.73C191.274 473.378 190.34 471.123 188.678 469.461C187.015 467.798 184.76 466.864 182.409 466.864C180.058 466.864 177.803 467.798 176.14 469.461C174.478 471.123 173.544 473.378 173.544 475.73V494.999H191.274V475.73Z" fill="#FBBEAA"/>
<path d="M174.202 479.32C172.004 479.32 171.614 480.272 171.003 481.518C169.961 484.837 168.193 487.883 165.826 490.432C162.303 493.442 158.519 496.131 154.518 498.467V508.676H193.985C193.985 508.676 193.716 500.616 193.521 494.926C193.325 489.235 192.788 482.299 192.812 481.567C192.837 480.834 192.812 479.32 191.494 479.32H174.202Z" fill="#302D3B"/>
<path d="M189.1 495.487C189.105 496.739 188.738 497.965 188.046 499.008C187.354 500.051 186.368 500.866 185.212 501.349C184.057 501.831 182.784 501.96 181.556 501.718C180.327 501.477 179.198 500.877 178.311 499.993C177.424 499.109 176.819 497.982 176.573 496.755C176.327 495.527 176.451 494.254 176.929 493.097C177.407 491.939 178.217 490.95 179.258 490.254C180.299 489.558 181.523 489.186 182.775 489.186C184.448 489.186 186.053 489.849 187.239 491.03C188.425 492.211 189.094 493.814 189.1 495.487Z" fill="#93929C"/>
<path d="M182.799 491.775L184.24 493.9L186.707 494.608L185.119 496.635L185.193 499.2L182.799 498.32L180.381 499.2L180.455 496.635L178.867 494.608L181.358 493.9L182.799 491.775Z" fill="white"/>
<path d="M154.812 498.296C154.812 498.296 149.194 501.251 147.119 502.692C146.141 503.346 145.348 504.239 144.813 505.287C144.279 506.334 144.021 507.501 144.066 508.676H159.476C159.476 508.676 159.061 501.178 154.812 498.296Z" fill="white"/>
<path d="M193.985 508.676V512.901C193.985 513.609 193.374 514 192.299 514H145.701C144.627 514 144.016 513.609 144.016 512.901V508.676H193.985Z" fill="white"/>
<path d="M159.379 495.439C159.246 495.228 159.035 495.079 158.792 495.024C158.549 494.969 158.295 495.013 158.084 495.146C157.874 495.278 157.724 495.489 157.67 495.732C157.615 495.975 157.658 496.23 157.791 496.44L159.427 499.078C159.512 499.215 159.631 499.327 159.772 499.404C159.913 499.481 160.072 499.52 160.233 499.517C160.407 499.518 160.577 499.467 160.722 499.371C160.827 499.306 160.918 499.221 160.99 499.12C161.062 499.02 161.113 498.906 161.141 498.785C161.168 498.665 161.171 498.54 161.149 498.418C161.128 498.296 161.082 498.18 161.015 498.076L159.379 495.439Z" fill="white"/>
<path d="M162.285 493.412C162.124 493.224 161.896 493.107 161.65 493.084C161.404 493.061 161.159 493.135 160.966 493.289C160.777 493.455 160.659 493.687 160.636 493.937C160.613 494.187 160.688 494.436 160.844 494.633L162.773 496.88C162.858 496.986 162.966 497.072 163.088 497.132C163.211 497.191 163.345 497.222 163.482 497.221C163.661 497.223 163.836 497.173 163.988 497.077C164.139 496.982 164.259 496.844 164.334 496.681C164.409 496.519 164.435 496.338 164.409 496.161C164.384 495.984 164.308 495.818 164.19 495.683L162.285 493.412Z" fill="white"/>
<path d="M164.971 491.141C164.777 491.015 164.544 490.965 164.315 490.999C164.086 491.033 163.878 491.149 163.728 491.325C163.579 491.502 163.499 491.726 163.503 491.958C163.507 492.189 163.594 492.41 163.75 492.582L165.948 494.462C166.118 494.606 166.335 494.684 166.558 494.682C166.693 494.685 166.826 494.658 166.948 494.603C167.071 494.548 167.18 494.467 167.267 494.364C167.354 494.278 167.423 494.175 167.47 494.062C167.517 493.949 167.542 493.828 167.542 493.705C167.542 493.582 167.517 493.461 167.47 493.348C167.423 493.235 167.354 493.132 167.267 493.046L164.971 491.141Z" fill="white"/>
<path d="M169.734 490.017L167.291 488.503C167.081 488.414 166.845 488.404 166.627 488.474C166.41 488.545 166.225 488.691 166.106 488.887C165.988 489.082 165.944 489.314 165.982 489.539C166.02 489.765 166.138 489.969 166.314 490.115L168.757 491.629C168.901 491.725 169.071 491.776 169.245 491.775C169.408 491.773 169.567 491.73 169.709 491.648C169.85 491.567 169.968 491.451 170.051 491.311C170.178 491.097 170.216 490.841 170.156 490.599C170.097 490.357 169.945 490.148 169.734 490.017Z" fill="white"/>
<path d="M34.4502 87.4806L44.3924 142.285C46.0329 149.16 43.4976 155.381 34.4502 156.472C32.7802 156.663 31.0833 156.554 29.4627 156.151C27.8421 155.749 26.3315 155.061 25.0228 154.131C23.7141 153.2 22.6345 152.045 21.8495 150.737C21.0645 149.428 20.5906 147.993 20.4565 146.519L17.4242 87.5897C16.6288 82.0241 19.3877 78.3137 24.2097 77.8554C30.1253 77.2879 33.2571 80.3654 34.4502 87.4806Z" fill="#FBBEAA"/>
<path d="M171.785 486.867L169.049 485.719C168.936 485.671 168.814 485.647 168.69 485.647C168.567 485.647 168.445 485.671 168.331 485.719C168.218 485.767 168.115 485.837 168.028 485.925C167.942 486.013 167.874 486.117 167.828 486.232C167.737 486.459 167.737 486.713 167.828 486.94C167.919 487.168 168.094 487.351 168.317 487.453L171.077 488.601C171.189 488.626 171.306 488.626 171.418 488.601C171.607 488.601 171.79 488.545 171.947 488.441C172.103 488.336 172.225 488.188 172.298 488.015C172.372 487.794 172.36 487.553 172.265 487.341C172.17 487.128 171.999 486.959 171.785 486.867Z" fill="white"/>
<path d="M173.495 483.35L170.491 482.593C170.248 482.533 169.991 482.572 169.777 482.7C169.562 482.828 169.406 483.035 169.343 483.277C169.314 483.395 169.308 483.518 169.327 483.639C169.346 483.76 169.388 483.876 169.451 483.98C169.515 484.085 169.598 484.175 169.697 484.247C169.796 484.32 169.908 484.371 170.027 484.4L173.031 485.182H173.275C173.495 485.165 173.702 485.072 173.861 484.919C174.021 484.766 174.122 484.563 174.148 484.344C174.174 484.125 174.123 483.903 174.004 483.718C173.885 483.532 173.705 483.393 173.495 483.325V483.35Z" fill="white"/>
<path d="M181.578 352.128C180.378 346.584 177.026 341.743 172.259 338.67C167.491 335.597 161.699 334.544 156.154 335.74C144.603 338.182 138.375 349.563 140.866 361.115L173.543 478.709H191.494L181.578 352.128Z" fill="#FBBEAA"/>
<path d="M181.575 349.807C180.25 344.397 176.866 339.716 172.144 336.762C167.422 333.807 161.733 332.81 156.288 333.984C150.843 335.158 146.07 338.409 142.984 343.047C139.898 347.684 138.743 353.343 139.764 358.819L152.756 479.536C152.756 479.536 183.871 481.392 202.407 479.536L181.575 349.807Z" fill="#93929C"/>
<path d="M26.5929 133.327L96.7343 80.037C104.916 74.8106 110.484 77.5947 114.831 83.1875C116.817 85.8944 117.737 89.2369 117.417 92.5786C117.098 95.9203 115.56 99.0277 113.097 101.309L43.1269 152.865C40.6612 154.947 37.487 155.998 34.2657 155.798C31.0445 155.598 28.0247 154.162 25.8358 151.79L25.5183 151.448C24.3566 150.209 23.4595 148.746 22.8819 147.148C22.3043 145.551 22.0583 143.852 22.1588 142.156C22.2594 140.461 22.7044 138.803 23.4668 137.285C24.2291 135.767 25.2928 134.42 26.5929 133.327Z" fill="#FBBEAA"/>
<path d="M113.098 101.285C113.746 100.727 114.335 100.105 114.856 99.4286C115.317 97.6904 115.377 95.87 115.03 94.1055C114.683 92.3409 113.939 90.6786 112.854 89.2445C109.166 83.554 101.424 79.0847 97.9804 79.9395L94.5612 81.6735L55.8516 110.98C59.2776 119.032 63.9054 126.517 69.577 133.18L113.098 101.285Z" fill="#F18380"/>
<path d="M102.523 76.2269L41.8241 117.165C42.0795 119.259 35.3507 76.2269 35.3507 76.2269L16.3111 78.7047C16.3111 78.7047 16.6986 122.157 19.5409 145.218C20.6756 154.424 28.2678 157.939 37.3305 155.961C41.805 154.985 46.0174 153.149 49.766 150.518C65.8737 139.212 111.064 107.366 114.758 103.36C121.133 96.4487 121.133 91.2712 117.469 85.5807C113.806 79.8903 105.966 75.3721 102.523 76.2269Z" fill="#002776"/>
<path d="M131.049 352.421L143.577 221.248C143.577 206.765 128.655 190.988 106.651 194.383C86.7707 197.485 80.7139 217.462 82.3502 236.39C83.9865 255.317 88.407 353.349 88.407 353.349C88.4728 356.155 89.0906 358.921 90.2253 361.489C91.36 364.056 92.9892 366.375 95.0201 368.313C97.0509 370.251 99.4436 371.77 102.061 372.783C104.679 373.796 107.471 374.284 110.277 374.218C113.084 374.152 115.85 373.534 118.417 372.4C120.985 371.265 123.303 369.636 125.241 367.605C127.179 365.574 128.698 363.181 129.711 360.564C130.724 357.946 131.212 355.154 131.146 352.348L131.049 352.421Z" fill="#93929C"/>
<path d="M181.578 349.808L169.122 218.659C166.485 204.421 148.778 191.794 127.799 199.267C108.872 206.032 106.674 226.792 111.852 245.084C117.029 263.376 139.766 358.819 139.766 358.819C141.092 364.23 144.475 368.91 149.198 371.865C153.92 374.82 159.608 375.816 165.054 374.643C170.499 373.469 175.272 370.218 178.358 365.58C181.444 360.942 182.599 355.284 181.578 349.808Z" fill="#93929C"/>
<path d="M111.852 245.084C117.005 263.377 139.767 358.82 139.767 358.82" stroke="#5E5D63" stroke-width="0.75" stroke-miterlimit="10"/>
<path d="M115.516 74.1509C115.516 74.1509 104.721 76.0314 102.62 76.5931C101.381 76.884 100.236 77.4847 99.2916 78.339C98.3476 79.1933 97.6359 80.2732 97.2231 81.4776C95.8799 84.677 88.9684 105.631 88.3334 107.903C87.904 110.405 88.3073 112.979 89.4812 115.23C90.4826 117.965 95.6601 130.42 95.6601 130.42L96.4416 170.546L125.601 175.171L153.541 170.546C153.541 170.546 163.31 95.9114 163.799 91.2955C164.287 86.6797 161.992 77.7655 156.472 76.642C150.953 75.5186 135.811 74.1998 135.811 74.1998L115.516 74.1509Z" fill="#FBBEAA"/>
<path d="M95.0721 154.412V168.519C114.171 170.278 144.602 169.032 156.032 168.519C156.569 164.49 157.131 157.651 157.717 153.109C142.16 153.5 116.466 154.95 95.0721 154.412Z" fill="white"/>
<path d="M195.792 166.956L164.507 84.6282C160.331 75.8361 154.152 75.25 147.411 77.6922C144.293 78.9358 141.743 81.2844 140.247 84.2894C138.752 87.2943 138.415 90.7449 139.303 93.982L171.516 174.845C172.493 177.921 174.623 180.5 177.46 182.039C180.297 183.578 183.62 183.958 186.731 183.1L187.195 182.977C188.837 182.53 190.369 181.752 191.7 180.693C193.031 179.633 194.133 178.314 194.937 176.815C195.741 175.315 196.232 173.668 196.379 171.973C196.526 170.279 196.326 168.571 195.792 166.956Z" fill="#FBBEAA"/>
<path d="M182.824 132.814L164.508 84.628C164.016 83.5713 163.436 82.5582 162.774 81.5996C160.53 80.1949 157.961 79.3937 155.317 79.2739C152.673 79.1541 150.042 79.7197 147.681 80.9158C144.938 82.2502 142.734 84.4811 141.433 87.2392C140.131 89.9973 139.811 93.1171 140.525 96.0821C140.525 96.3752 140.696 96.9369 140.842 97.694L159.745 145.196C168.002 142.218 175.778 138.046 182.824 132.814Z" fill="#F18380"/>
<path d="M162.798 80.2323L197.569 170.476C169.009 161.337 167.451 165.918 162.036 151.64C162.036 151.64 138.913 96.4488 138.229 92.6877C137.515 89.7227 137.835 86.6029 139.137 83.8448C140.438 81.0867 142.642 78.8558 145.384 77.5214C153.029 73.6138 160.649 77.1551 162.798 80.2323Z" fill="#002776"/>
<path d="M168.898 218.214C168.364 211.49 161.149 185.71 153.401 171.023C153.401 171.023 136.498 168.344 125.612 168.38C114.255 168.416 96.6086 171.023 96.6086 171.023C91.5561 182.457 85.7992 207.436 84.1232 212.825C83.1113 215.996 82.9884 219.383 83.7679 222.618C84.5473 225.854 86.1992 228.814 88.5441 231.177C94.301 237.707 109.143 245.184 112.568 245.184C127.303 243.08 141.746 239.285 155.611 233.872C163.433 230.595 169.408 224.963 168.898 218.214Z" fill="#93929C"/>
<path d="M115.003 74.2891C115.003 74.2891 104.13 76.1832 101.99 76.749C100.745 77.0483 99.5942 77.6556 98.6443 78.5152C97.6945 79.3748 96.9757 80.4591 96.5539 81.6688C95.2256 84.8912 88.2641 105.997 87.5999 108.285C87.1674 110.805 87.5736 113.397 88.7561 115.665C89.74 118.346 94.9796 130.867 94.9796 130.867L95.7668 171.283H153.304C153.304 171.283 163.07 96.133 163.537 91.5084C164.004 86.8838 161.717 77.8805 156.157 76.749C150.598 75.6174 135.371 74.2891 135.371 74.2891H115.003Z" fill="white"/>
<path d="M136.109 74.289C133.834 82.3012 132.553 90.5629 132.296 98.888V207.739C132.296 211.084 133.748 211.305 135.494 211.305H166.513C168.112 211.305 170.548 210.272 169.76 207.985C168.973 205.697 162.036 184.911 155.272 170.717C155.272 170.717 164.964 92.6153 164.964 88.9254C164.964 85.2356 162.258 77.7575 157.584 76.6259C152.91 75.4943 136.011 73.551 136.011 73.551L136.109 74.289Z" fill="#002776"/>
<path d="M114.191 74.5601C112.814 85.0212 111.993 95.5479 111.731 106.096V208.231C111.731 210.543 111.141 211.257 108.951 211.257H84.1803C82.5322 211.257 81.9172 210.248 82.3354 208.207C82.7536 206.165 93.7247 171.308 93.7247 171.308L92.7653 131.187C92.7653 131.187 87.1322 112.295 86.9108 110.794C86.6425 108.918 86.8195 107.005 87.4274 105.21C88.1161 103.415 95.9878 82.3334 96.7258 80.8082C97.2228 79.7703 97.9368 78.8511 98.8195 78.1127C99.7022 77.3743 100.733 76.8339 101.842 76.528C104.499 75.8884 114.265 74.0681 114.265 74.0681L114.191 74.5601Z" fill="#002776"/>
<path d="M132.296 137.656C132.296 137.656 146.49 107.03 147.498 105.038C148.507 103.045 147.916 101.053 145.506 101.422C143.095 101.791 131.829 104.718 131.829 104.718L132.296 137.656Z" fill="#003399"/>
<path d="M131.853 105.776C131.853 105.776 144.399 96.256 145.506 95.4688C146.034 95.0597 146.421 94.4967 146.615 93.8577C146.809 93.2188 146.8 92.5354 146.588 91.902C146.121 90.8442 139.774 72.2227 138.987 70.9436C138.119 69.8596 137.156 68.8553 136.109 67.9425C136.109 67.9425 133.772 78.3479 132.985 83.4399C132.206 90.8594 131.828 98.3155 131.853 105.776Z" fill="#003399"/>
<path d="M111.707 137.656C111.707 137.656 97.5131 107.03 96.5291 105.038C95.5451 103.045 96.111 101.053 98.5217 101.422C100.932 101.791 112.174 104.718 112.174 104.718L111.707 137.656Z" fill="#003399"/>
<path d="M112.174 105.776C112.174 105.776 101.006 96.2562 100.022 95.4691C99.5496 95.0195 99.2363 94.4281 99.1298 93.7845C99.0232 93.1409 99.1293 92.4801 99.4319 91.9022C100.047 90.8444 109.936 74.2893 110.895 73.1332C111.911 72.0456 113.014 71.042 114.191 70.1321C114.191 70.1321 114.413 72.9364 114.339 75.3471C114.265 77.7578 112.174 105.776 112.174 105.776Z" fill="#003399"/>
<g filter="url(#filter0_d_203_230)">
<rect width="40.3016" height="57.4297" rx="1" transform="matrix(-0.993463 -0.114154 -0.114154 0.993463 146.281 114.884)" fill="#EFEFEF"/>
</g>
<path d="M127.358 140.623C124.556 139.439 122.021 137.684 119.916 135.469C118.614 134.102 117.136 132.915 115.523 131.941C114.577 131.35 113.761 130.569 113.126 129.649C112.286 128.222 111.591 126.714 111.052 125.15C110.852 123.803 110.394 122.505 109.703 121.328C109.046 120.726 106.727 121.048 105.523 123.388C105.109 124.429 104.921 125.551 104.972 126.678C105.024 127.804 105.314 128.91 105.822 129.92C106.421 131.131 106.89 132.402 107.222 133.711L107.003 133.842C105.169 132.868 103.209 132.162 101.183 131.745C100.448 131.581 99.683 131.669 99.0102 131.997C98.3375 132.324 97.7966 132.872 97.4748 133.551C97.1529 134.23 97.0689 135.001 97.2361 135.739C97.4034 136.478 97.8123 137.141 98.3968 137.623C95.2352 137.986 95.5941 142.862 98.3083 143.507C97.7271 143.751 97.2365 144.17 96.9028 144.706C96.5691 145.243 96.4085 145.872 96.4426 146.508C96.4767 147.144 96.7038 147.756 97.0934 148.262C97.483 148.768 98.0162 149.143 98.6209 149.337C96.693 151.114 98.1022 154.044 101.603 154.056C104.447 154.346 112.054 155.537 114.7 156.106C117.346 156.676 122.666 155.416 124.375 155.945C126.918 156.877 129.872 156.892 132.126 150.199C134.379 143.506 129.976 141.488 127.358 140.623Z" fill="#FBBEAA"/>
<path d="M125.603 160.502L177.79 182.657C184.903 185.979 193.304 183.079 196.499 174.78C197.083 173.233 197.123 170.703 197.05 169.051C196.978 167.399 196.571 165.778 195.853 164.288C195.136 162.798 193.807 160.112 192.561 159.025C191.314 157.938 186.872 155.932 185.299 155.424L126.587 139.332L125.603 160.502Z" fill="#002776"/>
<defs>
<filter id="filter0_d_203_230" x="99.7944" y="110.391" width="48.3789" height="61.4398" filterUnits="userSpaceOnUse" color-interpolation-filters="sRGB">
<feFlood flood-opacity="0" result="BackgroundImageFix"/>
<feColorMatrix in="SourceAlpha" type="matrix" values="0 0 0 0 0 0 0 0 0 0 0 0 0 0 0 0 0 0 127 0" result="hardAlpha"/>
<feOffset dx="2"/>
<feComposite in2="hardAlpha" operator="out"/>
<feColorMatrix type="matrix" values="0 0 0 0 0.603922 0 0 0 0 0.6 0 0 0 0 0.631373 0 0 0 1 0"/>
<feBlend mode="normal" in2="BackgroundImageFix" result="effect1_dropShadow_203_230"/>
<feBlend mode="normal" in="SourceGraphic" in2="effect1_dropShadow_203_230" result="shape"/>
</filter>
</defs>
</svg>
