<svg width="211" height="518" viewBox="0 0 211 518" fill="none" xmlns="http://www.w3.org/2000/svg">
    <g clip-path="url(#clip0_21_288)">
        <path d="M99.9933 64.5675H69.7263V99.5H99.9933V64.5675Z" fill="#FBBEAA"/>
        <path d="M69.8012 64.5675H99.9676V84.0567C98.6499 84.2173 97.3236 84.2997 95.9957 84.3034C85.5883 84.3034 73.9491 81.5157 69.7007 71.7711L69.8012 64.5675Z" fill="#F18380"/>
        <path d="M115.63 38.64C115.378 48.7299 115.63 56.6983 113.769 64.3953C111.909 72.0923 106.228 78.3831 93.6585 78.3831C81.0892 78.3831 66.7602 74.3619 65.7547 58.9433C63.6933 56.7477 60.3498 48.9273 60.2242 40.1695C60.0985 31.4117 60.8024 12.8847 81.1395 10.0476C101.477 7.21062 116.183 14.5376 115.63 38.64Z" fill="#FBBEAA"/>
        <path d="M104.996 46.5831C104.996 47.9399 105.826 49.0501 106.857 49.0501C107.887 49.0501 108.717 47.9399 108.717 46.5831C108.717 45.2262 107.887 44.1161 106.857 44.1161C105.826 44.1161 104.996 45.1276 104.996 46.5831Z" fill="#403D4F"/>
        <path d="M82.3708 46.5831C82.3708 47.9399 83.2004 49.0501 84.2311 49.0501C85.2618 49.0501 86.0914 47.9399 86.0914 46.5831C86.0914 45.2262 85.2618 44.1161 84.2311 44.1161C83.2004 44.1161 82.3708 45.1276 82.3708 46.5831Z" fill="#403D4F"/>
        <path d="M86.9214 41.4519C86.7454 41.6739 85.413 41.4519 84.4075 41.4519C83.4019 41.4519 81.4663 41.4519 81.4663 41.2299C81.4663 41.0078 82.4215 39.4783 84.9354 39.7497C86.7454 39.947 87.399 41.0572 86.9214 41.4519Z" fill="#403D4F"/>
        <path d="M104.569 41.452C104.72 41.674 105.851 41.452 106.731 41.452C107.611 41.452 109.245 41.452 109.245 41.2299C109.019 40.6708 108.593 40.2118 108.047 39.9392C107.501 39.6666 106.872 39.5993 106.279 39.7498C104.72 39.9471 104.293 41.0573 104.569 41.452Z" fill="#403D4F"/>
        <path d="M97.1526 56.7968C98.9123 56.7968 100.32 55.662 100.37 54.8478L99.7921 47.891C99.773 47.7186 99.6862 47.5603 99.55 47.4497C99.4139 47.3391 99.2393 47.285 99.0631 47.2989C98.9772 47.3051 98.8934 47.328 98.8165 47.3661C98.7396 47.4042 98.6711 47.4569 98.615 47.5211C98.5589 47.5853 98.5164 47.6598 98.4897 47.7402C98.4631 47.8206 98.4529 47.9054 98.4597 47.9896L99.0128 54.6998C98.7587 54.9702 98.4463 55.1814 98.0983 55.318C97.7504 55.4546 97.3757 55.5131 97.0017 55.4893C96.9138 55.4826 96.8255 55.4934 96.742 55.521C96.6584 55.5487 96.5815 55.5927 96.5157 55.6503C96.45 55.7079 96.3967 55.778 96.3593 55.8563C96.3219 55.9346 96.301 56.0196 96.2979 56.106C96.2974 56.281 96.3646 56.4496 96.4859 56.5778C96.6072 56.706 96.7736 56.7843 96.9514 56.7968H97.1526Z" fill="#F18380"/>
        <path d="M69.9071 52.3067C67.1502 51.9811 65.3794 49.8397 64.8793 47.3727C64.3793 44.9057 62.8113 46.1392 59.8516 46.1392C56.8919 46.1392 55.3789 40.4282 54.4481 36.0838C53.2375 30.4333 55.0401 23.8185 56.8159 21.4823C52.0804 17.3939 54.4481 3.37654 55.632 8.04898C56.5791 11.7869 59.9729 13.5002 61.5514 13.8895C66.2869 -3.39857 84.8343 -0.322504 93.5161 3.37654C100.619 0.573055 106.736 4.54466 108.907 6.8809C119.561 3.37655 124.297 8.04901 126.665 10.3852C129.032 12.7215 131.992 26.1548 121.929 31.9954C113.879 36.6679 102.001 32.7741 97.0677 30.2432C91.3851 34.9157 83.6505 33.3582 80.4934 31.9954C80.0199 34.7989 74.5914 38.8094 72.4209 41.3403C70.2505 43.8712 71.164 52.4551 69.9071 52.3067Z" fill="#F3E8AE"/>
        <path d="M66.308 51.2705C66.1823 48.4581 65.7298 44.3136 61.6573 44.2149C57.5849 44.1162 57.057 47.1259 57.1826 51.8625C57.3083 56.5991 62.2104 60.6203 66.5091 58.9921L66.308 51.2705Z" fill="#FBBEAA"/>
        <path d="M60.3247 54.6751C60.501 54.645 60.6581 54.5477 60.7616 54.4045C60.8652 54.2612 60.907 54.0837 60.8778 53.9104C60.878 53.7711 60.9181 53.6348 60.9937 53.517C61.0693 53.3991 61.1773 53.3046 61.3051 53.2443C61.5617 53.0757 61.8636 52.9856 62.1724 52.9856C62.4813 52.9856 62.7831 53.0757 63.0397 53.2443C63.1513 53.3048 63.2767 53.3365 63.4042 53.3365C63.5317 53.3365 63.6571 53.3048 63.7688 53.2443C63.8712 53.1779 63.9533 53.0854 64.0064 52.9768C64.0595 52.8682 64.0817 52.7475 64.0704 52.6275C63.7185 48.6557 61.1292 47.9156 61.0286 47.8909C60.9428 47.8649 60.8524 47.8566 60.7632 47.8664C60.6739 47.8762 60.5877 47.904 60.5098 47.948C60.432 47.992 60.3642 48.0512 60.3107 48.1221C60.2573 48.1929 60.2192 48.2738 60.199 48.3597C60.1526 48.5232 60.1742 48.6982 60.259 48.8462C60.3438 48.9941 60.485 49.1031 60.6515 49.1491C61.1538 49.3722 61.5914 49.7146 61.925 50.1453C62.2585 50.576 62.4775 51.0815 62.5621 51.6161C61.8732 51.5059 61.1671 51.6463 60.5761 52.0108C60.2318 52.2089 59.9535 52.5009 59.775 52.8512C59.5965 53.2015 59.5255 53.5952 59.5706 53.9844C59.5663 54.0805 59.5834 54.1764 59.6205 54.2654C59.6576 54.3545 59.7139 54.4345 59.7856 54.5002C59.8572 54.5658 59.9425 54.6155 60.0356 54.6457C60.1287 54.6759 60.2273 54.6859 60.3247 54.6751Z" fill="#F18380"/>
        <path d="M95.4186 65.6776C92.9918 65.5857 90.6618 64.7195 88.782 63.2106" stroke="#73102A" stroke-width="0.5" stroke-miterlimit="10" stroke-linecap="round"/>
    </g>
    <path d="M39.5351 100.618C33.8068 107.983 6.20703 185.39 6.20703 185.39C36.8944 175.57 21.6424 171.806 38.3325 174.614C38.3325 174.614 64.4082 119.275 65.143 115.234C65.9099 112.048 65.5657 108.696 64.1674 105.732C62.7691 102.769 60.4006 100.372 57.4541 98.9377C49.2402 94.7389 45.2634 93.253 39.5351 100.618Z" fill="#002776"/>
    <path d="M185.508 100.052C185.621 97.5679 184.957 95.1107 183.606 93.0232C181.527 90.6122 179.969 87.7968 179.031 84.7544C178.309 81.9302 177.156 79.2341 175.613 76.7612C174.51 75.2452 172.856 74.005 172.856 72.8473C172.856 71.6897 175.061 69.4571 178.204 70.0911C179.549 70.5103 180.786 71.2219 181.825 72.1749C182.864 73.1279 183.679 74.2987 184.212 75.6036C184.513 74.8085 184.69 73.9719 184.736 73.123L185.425 56.2271C185.435 55.7891 185.534 55.3576 185.714 54.9581C185.894 54.5587 186.152 54.1994 186.473 53.9013C186.794 53.6033 187.172 53.3726 187.583 53.2229C187.995 53.0733 188.433 53.0076 188.87 53.0298C189.567 53.0595 190.237 53.3068 190.786 53.737C191.334 54.1671 191.735 54.7584 191.93 55.4278V54.656C192.036 53.8347 192.449 53.0838 193.085 52.5542C193.722 52.0246 194.535 51.7555 195.362 51.8008C196.189 51.8462 196.968 52.2027 197.543 52.7988C198.118 53.3948 198.447 54.1863 198.462 55.0143V57.3572C198.738 56.6349 199.265 56.0358 199.945 55.6692C200.626 55.3025 201.416 55.1928 202.171 55.3598C202.926 55.5268 203.596 55.9595 204.058 56.5791C204.521 57.1987 204.746 57.964 204.691 58.7353V60.2236C204.988 59.7023 205.43 59.2787 205.964 59.0045C206.497 58.7304 207.099 58.6177 207.696 58.6801C208.513 58.7838 209.257 59.2014 209.772 59.8445C210.286 60.4876 210.53 61.3056 210.452 62.1254L209.101 76.3753C208.217 84.4092 206.555 92.3384 204.14 100.052C204.111 101.339 203.812 102.607 203.264 103.773C202.716 104.938 201.93 105.976 200.956 106.82C199.983 107.664 198.843 108.294 197.612 108.671C196.38 109.048 195.083 109.164 193.804 109.009C192.647 109.048 191.495 108.837 190.426 108.392C189.357 107.946 188.397 107.275 187.61 106.426C186.823 105.576 186.228 104.567 185.865 103.467C185.502 102.368 185.381 101.203 185.508 100.052Z" fill="#FBBEAA"/>
    <path d="M186.059 78.0019C185.012 78.0019 184.929 77.3404 184.46 76.1277C186.803 76.1277 193.611 76.5686 196.588 82.3017C193.584 78.1673 187.823 78.0019 186.059 78.0019ZM191.406 56.1999C191.406 56.1999 191.241 57.1646 191.075 58.5703C191.075 59.2869 190.91 60.1413 190.855 61.0233C190.8 61.9053 190.717 62.87 190.634 63.7796C190.634 65.709 190.497 67.6108 190.497 69.0441C190.497 70.4773 190.497 71.442 190.497 71.442C190.497 71.4879 190.506 71.5333 190.524 71.5753C190.542 71.6174 190.569 71.6551 190.603 71.6862C190.637 71.7173 190.677 71.7411 190.72 71.756C190.763 71.7709 190.809 71.7766 190.855 71.7727C190.932 71.7688 191.007 71.7398 191.066 71.6901C191.126 71.6404 191.168 71.5728 191.186 71.4972C191.186 71.4972 191.351 70.5324 191.489 69.0992C191.627 67.6659 191.847 65.7641 191.93 63.8623C191.93 62.8976 191.93 61.9329 191.93 61.106C191.93 60.2791 191.93 59.3696 191.93 58.653C191.93 57.1922 191.93 56.255 191.93 56.255C191.93 56.2091 191.921 56.1638 191.902 56.1217C191.884 56.0797 191.857 56.0419 191.823 56.0108C191.79 55.9797 191.75 55.956 191.707 55.9411C191.663 55.9262 191.617 55.9204 191.572 55.9242C191.519 55.9546 191.475 55.9991 191.446 56.0526C191.417 56.1061 191.403 56.1666 191.406 56.2275V56.1999ZM197.801 58.1293C197.801 58.1293 197.635 58.9562 197.442 60.1689C197.442 60.8028 197.249 61.5194 197.167 62.2912C197.084 63.0629 197.001 63.8898 196.919 64.7167C196.919 66.3705 196.726 68.0242 196.698 69.2645C196.671 70.5048 196.698 71.3593 196.698 71.3593C196.702 71.4028 196.714 71.4452 196.734 71.484C196.754 71.5228 196.781 71.5573 196.814 71.5855C196.848 71.6137 196.886 71.635 196.928 71.6482C196.969 71.6615 197.013 71.6663 197.056 71.6625C197.131 71.6574 197.201 71.6273 197.256 71.5773C197.311 71.5273 197.348 71.4602 197.36 71.3869C197.36 71.3869 197.525 70.56 197.718 69.3472C197.911 68.1345 198.076 66.4532 198.214 64.827C198.214 64.0001 198.214 63.1732 198.38 62.4015C198.545 61.6297 198.38 60.8855 198.38 60.2516C198.38 59.0113 198.38 58.1844 198.38 58.1844C198.38 58.1385 198.37 58.0932 198.352 58.0512C198.334 58.0091 198.307 57.9713 198.273 57.9402C198.239 57.9091 198.2 57.8854 198.156 57.8705C198.113 57.8556 198.067 57.8498 198.021 57.8537C197.96 57.8789 197.907 57.9206 197.868 57.9741C197.829 58.0276 197.806 58.0908 197.801 58.1568V58.1293ZM203.975 60.7477C203.975 60.7477 203.809 61.4368 203.589 62.4842C203.589 62.9803 203.368 63.5867 203.286 64.2482C203.203 64.9097 203.093 65.5987 202.983 66.2878C202.79 67.6935 202.707 69.044 202.652 70.1466C202.597 71.2491 202.652 71.9106 202.652 71.9106C202.652 71.9565 202.661 72.0018 202.679 72.0438C202.698 72.0859 202.724 72.1237 202.758 72.1548C202.792 72.1859 202.832 72.2096 202.875 72.2245C202.918 72.2394 202.964 72.2452 203.01 72.2413C203.08 72.2377 203.148 72.2116 203.202 72.167C203.257 72.1224 203.296 72.0615 203.313 71.9933C203.313 71.9933 203.506 71.3042 203.699 70.2844C203.892 69.2646 204.168 67.8313 204.333 66.4532C204.333 65.7365 204.471 65.0475 204.526 64.386C204.581 63.7245 204.526 63.1181 204.526 62.5944C204.526 61.547 204.526 60.8304 204.526 60.8304C204.526 60.7845 204.517 60.7392 204.498 60.6971C204.48 60.6551 204.453 60.6173 204.42 60.5862C204.386 60.5551 204.346 60.5314 204.303 60.5165C204.259 60.5016 204.213 60.4958 204.168 60.4996C204.117 60.528 204.073 60.5676 204.04 60.6153C204.006 60.663 203.984 60.7178 203.975 60.7753V60.7477Z" fill="#F18380"/>
    <path d="M118.824 97.9649L178.895 138.48C178.643 140.552 183.511 97.9649 183.511 97.9649L205.745 100.04C205.745 100.04 204.446 143.399 201.174 166.298C199.876 175.386 192.312 178.832 183.343 176.875C178.914 175.909 174.745 174.092 171.036 171.488C155.094 160.299 110.372 128.783 106.715 124.818C100.407 117.978 100.407 112.854 104.032 107.222C107.658 101.59 115.416 97.119 118.824 97.9649Z" fill="#001A4B"/>
    <path d="M67.8072 328.514C67.727 335.006 70.229 341.264 74.7627 345.911C79.2963 350.558 85.4904 353.213 91.9822 353.294C98.474 353.374 104.732 350.872 109.379 346.338C114.026 341.804 116.681 335.61 116.762 329.119C116.762 329.119 119.859 238.764 120.917 220.457C121.974 202.149 117.19 187.468 96.5905 185.353C75.2359 183.162 63.8535 199.858 63.8535 215.37C63.8535 230.882 67.8072 328.514 67.8072 328.514Z" fill="#7C7C7C"/>
    <path d="M27.6409 326.777C27.2211 329.985 27.4418 333.245 28.29 336.368C29.1383 339.491 30.5973 342.414 32.5827 344.97C34.5681 347.525 37.0404 349.661 39.8566 351.255C42.6729 352.848 45.7772 353.868 48.99 354.254C52.2028 354.64 55.4602 354.386 58.574 353.505C61.6877 352.624 64.5958 351.134 67.1302 349.122C69.6646 347.111 71.7749 344.616 73.3391 341.783C74.9032 338.951 75.8901 335.836 76.2428 332.619C76.2428 332.619 88.985 243.121 92.0069 225.04C95.0287 206.959 91.8306 191.825 71.584 187.519C50.582 183.061 37.462 198.448 35.8755 213.859C34.289 229.271 27.6409 326.777 27.6409 326.777Z" fill="#7C7C7C"/>
    <path d="M107.998 434.985C107.998 434.985 106.79 486.332 106.487 494.012C106.185 501.693 101.325 503.783 93.4933 504.463C85.6616 505.143 82.3628 498.923 81.2548 493.987C80.1468 489.052 73.4482 438.712 73.4482 438.712L107.998 434.985Z" fill="#FBBEAA"/>
    <path d="M107.117 470.794L78.2329 473.892C75.9916 458.001 73.4482 438.636 73.4482 438.636L107.998 434.909C107.998 434.909 107.545 454.149 107.117 470.794Z" fill="#F18380"/>
    <path d="M67.8071 328.514C67.8468 325.3 68.5192 322.125 69.7859 319.17C71.0527 316.216 72.889 313.54 75.19 311.295C77.491 309.05 80.2116 307.28 83.1965 306.087C86.1814 304.893 89.3721 304.3 92.5865 304.339C95.8009 304.379 98.976 305.051 101.931 306.318C104.885 307.585 107.561 309.421 109.806 311.722C112.051 314.023 113.821 316.744 115.014 319.729C116.207 322.714 116.801 325.904 116.762 329.119L111.725 472.236L72.214 476.492L67.8071 328.514Z" fill="#7C7C7C"/>
    <path d="M56.2985 436.949C56.2985 436.949 49.6 487.868 48.4919 495.448C47.3839 503.028 42.3223 504.64 34.4402 504.463C26.5582 504.287 23.9644 497.765 23.3852 492.754C22.806 487.742 21.5469 436.949 21.5469 436.949H56.2985Z" fill="#FBBEAA"/>
    <path d="M51.4634 472.457H22.403C21.8994 456.441 21.4209 436.949 21.4209 436.949H56.2984C56.2984 436.949 53.7802 455.937 51.4634 472.457Z" fill="#F18380"/>
    <path d="M27.6406 326.777C28.4769 320.384 31.8018 314.579 36.8932 310.623C41.9845 306.667 48.431 304.88 54.8324 305.649C61.2338 306.419 67.073 309.683 71.0818 314.733C75.0906 319.783 76.9451 326.21 76.2425 332.619L54.3344 477.273H14.5967L27.6406 326.777Z" fill="#7C7C7C"/>
    <path d="M76.2178 332.619L53.6294 476.014" stroke="#565656" stroke-width="0.75" stroke-miterlimit="10" stroke-linecap="round"/>
    <path d="M76.2432 332.619C76.2432 332.619 88.9854 243.121 92.0072 225.04" stroke="#565656" stroke-width="0.75" stroke-miterlimit="10" stroke-linecap="round"/>
    <path d="M37.0847 478.424C39.941 478.22 42.773 479.071 45.043 480.816C47.3131 482.562 48.8631 485.08 49.3989 487.893L62.5441 501.366V509.751H20.4141C20.4141 509.751 22.5294 494.642 23.1338 491.242C23.7381 487.843 25.7779 478.424 37.0847 478.424Z" fill="#FBBEAA"/>
    <path d="M49.3733 487.792C49.8518 487.138 50.5317 486.634 51.0102 486.936C51.4886 487.238 64.2057 497.311 64.8101 497.815C65.1823 498.164 65.4639 498.599 65.6306 499.082C65.7973 499.564 65.8441 500.08 65.767 500.585V511.388H19.4819C19.4819 511.388 21.295 495.423 21.4209 494.541C21.5469 493.66 22.4283 492.501 22.9319 492.527C26.1087 493.5 29.4058 494.025 32.7278 494.088C37.143 494.322 41.5472 493.457 45.5456 491.57C47.0281 490.539 48.3228 489.261 49.3733 487.792Z" fill="black"/>
    <path d="M58.1623 502.322C55.9211 500.66 47.8627 494.364 44.8408 491.997L45.5459 491.645C45.6411 491.604 45.7268 491.544 45.7978 491.469C49.0211 493.987 56.601 499.93 58.7666 501.541C60.5974 502.944 61.8515 504.969 62.2922 507.233L61.3101 507.384C60.8947 505.376 59.7789 503.582 58.1623 502.322Z" fill="white"/>
    <path d="M20.7409 500.383C24.0029 500.417 27.1594 501.543 29.7058 503.582C32.0074 505.621 33.5664 508.367 34.1379 511.388H32.7781C32.2219 508.77 30.8458 506.397 28.8496 504.614C26.506 502.737 23.5924 501.716 20.5898 501.718L20.7409 500.383Z" fill="white"/>
    <path d="M73.2464 511.363H19.4822C19.1067 511.363 18.8022 511.668 18.8022 512.043V517.256C18.8022 517.631 19.1067 517.936 19.4822 517.936H73.2464C73.6219 517.936 73.9263 517.631 73.9263 517.256V512.043C73.9263 511.668 73.6219 511.363 73.2464 511.363Z" fill="white"/>
    <path d="M64.6841 497.714C65.1626 497.513 67.5045 498.192 70.5516 501.189C71.8203 502.5 72.7335 504.114 73.205 505.876C73.6765 507.639 73.6907 509.493 73.2461 511.262H57.9604C58.8166 501.592 64.2057 497.916 64.6841 497.714Z" fill="white"/>
    <path d="M58.8171 497.865C58.6283 498.096 58.5383 498.393 58.5666 498.69C58.5949 498.987 58.7392 499.261 58.9682 499.452C59.0805 499.545 59.2101 499.614 59.3495 499.657C59.4888 499.7 59.6352 499.714 59.7802 499.7C59.9252 499.686 60.066 499.644 60.1946 499.575C60.3232 499.507 60.437 499.413 60.5295 499.301L63.0477 496.254C63.2364 496.023 63.3264 495.726 63.2982 495.429C63.2699 495.132 63.1256 494.859 62.8966 494.667C62.7857 494.571 62.6565 494.499 62.5167 494.454C62.3769 494.41 62.2296 494.394 62.0836 494.408C61.9376 494.422 61.796 494.466 61.6674 494.536C61.5387 494.607 61.4258 494.703 61.3353 494.818L58.8171 497.865Z" fill="white"/>
    <path d="M55.8205 495.573C55.6318 495.804 55.5418 496.101 55.57 496.398C55.5983 496.695 55.7426 496.968 55.9716 497.16C56.0825 497.256 56.2118 497.328 56.3515 497.373C56.4913 497.417 56.6386 497.433 56.7846 497.419C56.9306 497.405 57.0723 497.361 57.2009 497.291C57.3295 497.22 57.4425 497.124 57.5329 497.009L60.0512 493.962C60.2338 493.728 60.3199 493.433 60.2918 493.138C60.2637 492.843 60.1234 492.57 59.9 492.375C59.7891 492.279 59.6599 492.207 59.5201 492.162C59.3804 492.118 59.233 492.102 59.087 492.116C58.941 492.13 58.7994 492.174 58.6708 492.244C58.5421 492.315 58.4292 492.411 58.3387 492.526L55.8205 495.573Z" fill="white"/>
    <path d="M52.9244 493.307C52.7342 493.531 52.6406 493.821 52.6642 494.114C52.6878 494.407 52.8267 494.678 53.0504 494.869C53.2814 495.057 53.5776 495.147 53.8746 495.119C54.1716 495.091 54.4455 494.947 54.6368 494.718L57.1551 491.67C57.2609 491.567 57.345 491.444 57.4024 491.308C57.4599 491.171 57.4895 491.025 57.4895 490.877C57.4895 490.729 57.4599 490.583 57.4024 490.447C57.345 490.311 57.2609 490.187 57.1551 490.084C56.9215 489.901 56.6269 489.815 56.3317 489.843C56.0366 489.871 55.7635 490.012 55.5686 490.235L52.9244 493.307Z" fill="white"/>
    <path d="M50.0034 491.016C49.9107 491.128 49.841 491.258 49.7984 491.397C49.7558 491.536 49.7411 491.683 49.7552 491.828C49.7692 491.973 49.8117 492.114 49.8802 492.242C49.9487 492.371 50.0419 492.485 50.1545 492.577C50.3663 492.785 50.6511 492.901 50.9478 492.901C51.2444 492.901 51.5292 492.785 51.741 492.577L54.2592 489.505C54.448 489.274 54.538 488.978 54.5097 488.681C54.4814 488.384 54.3371 488.11 54.1081 487.918C53.9958 487.826 53.8662 487.756 53.7269 487.713C53.5875 487.671 53.4412 487.656 53.2961 487.67C53.1511 487.684 53.0103 487.727 52.8817 487.795C52.7532 487.864 52.6393 487.957 52.5468 488.07L50.0034 491.016Z" fill="white"/>
    <path d="M96.263 478.424C99.1192 478.22 101.951 479.071 104.221 480.816C106.491 482.562 108.041 485.08 108.577 487.893L121.697 501.366V509.751H79.5923C79.5923 509.751 81.6824 494.642 82.3119 491.242C82.9415 487.843 84.9561 478.424 96.263 478.424Z" fill="#FBBEAA"/>
    <path d="M108.552 487.792C109.031 487.138 109.685 486.634 110.189 486.936C110.693 487.238 123.384 497.311 123.964 497.815C124.543 498.319 124.946 498.948 124.946 500.585V511.388H78.6606C78.6606 511.388 80.4737 495.423 80.5997 494.541C80.7256 493.66 81.607 492.501 82.1106 492.527C85.2875 493.5 88.5846 494.025 91.9066 494.088C96.3139 494.326 100.711 493.461 104.699 491.57C106.193 490.544 107.497 489.266 108.552 487.792Z" fill="black"/>
    <path d="M117.34 502.322C115.099 500.66 107.041 494.364 104.019 491.997L104.699 491.645C104.802 491.604 104.896 491.545 104.976 491.469C108.199 493.987 115.779 499.93 117.945 501.541C119.776 502.944 121.03 504.969 121.47 507.233L120.488 507.384C120.061 505.381 118.947 503.591 117.34 502.322Z" fill="white"/>
    <path d="M79.9192 500.383C83.1811 500.417 86.3376 501.543 88.8841 503.582C91.1856 505.621 92.7446 508.367 93.3162 511.388H91.9563C91.3933 508.767 90.0081 506.394 88.0027 504.614C85.6708 502.734 82.7637 501.711 79.7681 501.718L79.9192 500.383Z" fill="white"/>
    <path d="M132.425 511.363H78.6604C78.2849 511.363 77.9805 511.668 77.9805 512.043V517.256C77.9805 517.631 78.2849 517.936 78.6604 517.936H132.425C132.8 517.936 133.105 517.631 133.105 517.256V512.043C133.105 511.668 132.8 511.363 132.425 511.363Z" fill="white"/>
    <path d="M123.863 497.714C124.341 497.513 126.683 498.192 129.73 501.189C130.999 502.5 131.912 504.114 132.384 505.876C132.855 507.639 132.869 509.493 132.425 511.262H117.139C117.995 501.592 123.384 497.916 123.863 497.714Z" fill="white"/>
    <path d="M117.894 497.865C117.705 498.096 117.615 498.393 117.644 498.69C117.672 498.987 117.816 499.261 118.045 499.452C118.158 499.545 118.287 499.614 118.427 499.657C118.566 499.7 118.712 499.714 118.857 499.7C119.002 499.686 119.143 499.644 119.272 499.575C119.4 499.507 119.514 499.413 119.607 499.301L122.125 496.254C122.308 496.02 122.394 495.726 122.366 495.43C122.337 495.135 122.197 494.862 121.974 494.667C121.863 494.571 121.734 494.499 121.594 494.454C121.454 494.41 121.307 494.394 121.161 494.408C121.015 494.422 120.873 494.466 120.745 494.536C120.616 494.607 120.503 494.703 120.412 494.818L117.894 497.865Z" fill="white"/>
    <path d="M114.999 495.574C114.81 495.805 114.72 496.101 114.748 496.398C114.777 496.695 114.921 496.969 115.15 497.16C115.261 497.256 115.39 497.329 115.53 497.373C115.67 497.418 115.817 497.433 115.963 497.419C116.109 497.405 116.25 497.361 116.379 497.291C116.508 497.22 116.621 497.124 116.711 497.009L119.229 493.962C119.412 493.728 119.498 493.434 119.47 493.139C119.442 492.843 119.302 492.57 119.078 492.375C118.847 492.187 118.551 492.097 118.254 492.125C117.957 492.153 117.683 492.298 117.492 492.527L114.999 495.574Z" fill="white"/>
    <path d="M112.102 493.307C111.997 493.408 111.913 493.529 111.856 493.664C111.799 493.798 111.77 493.942 111.77 494.088C111.77 494.234 111.799 494.378 111.856 494.512C111.913 494.646 111.997 494.767 112.102 494.868C112.333 495.057 112.629 495.147 112.926 495.119C113.223 495.091 113.497 494.946 113.688 494.717L116.207 491.67C116.395 491.439 116.485 491.143 116.457 490.846C116.429 490.549 116.285 490.275 116.056 490.084C115.943 489.991 115.814 489.921 115.674 489.879C115.535 489.836 115.389 489.821 115.244 489.835C115.099 489.85 114.958 489.892 114.829 489.961C114.701 490.029 114.587 490.122 114.494 490.235L112.102 493.307Z" fill="white"/>
    <path d="M109.182 491.016C109.089 491.128 109.02 491.258 108.977 491.397C108.935 491.536 108.92 491.683 108.934 491.828C108.948 491.973 108.99 492.114 109.059 492.242C109.128 492.371 109.221 492.485 109.333 492.577C109.545 492.785 109.83 492.901 110.127 492.901C110.423 492.901 110.708 492.785 110.92 492.577L113.438 489.505C113.627 489.274 113.717 488.978 113.688 488.681C113.66 488.384 113.516 488.11 113.287 487.918C113.175 487.826 113.045 487.756 112.906 487.713C112.766 487.671 112.62 487.656 112.475 487.67C112.33 487.684 112.189 487.727 112.06 487.795C111.932 487.864 111.818 487.957 111.726 488.07L109.182 491.016Z" fill="white"/>
    <path d="M120.176 200.872C120.176 200.872 120.176 226.986 120.176 228.421C120.176 229.857 107.585 242.171 90.8637 242.171C65.1526 242.171 34.3798 232.778 34.8331 226.658C35.1353 222.629 37.5078 200.872 37.5078 200.872H120.176Z" fill="#7C7C7C"/>
    <path d="M101.476 90.7244C87.374 102.812 73.3559 95.7609 68.7391 89.4653L48.5933 98.2791L53.6297 191.454L120.363 193.972L117.845 104.575L101.476 90.7244Z" fill="white"/>
    <path d="M120.258 98.7575C117.563 96.9948 100.112 86.9219 100.112 86.9219V219.733C102.046 221.618 102.442 221.574 105.22 221.259L105.35 221.244C111.356 219.737 117.15 217.487 122.6 214.546C122.6 214.546 124.916 117.946 125.496 110.593C126.075 103.24 122.952 100.52 120.258 98.7575Z" fill="#002776"/>
    <path d="M73.1815 221.212C74.4058 220.953 75.5654 220.45 76.5915 219.733L69.7419 85.562C69.7419 85.562 49.9738 93.5952 44.7107 95.9371C42.5229 96.8599 40.6471 98.3931 39.3074 100.354C37.9677 102.314 37.2208 104.619 37.156 106.992C36.8286 111.424 36.3754 209.66 36.2998 210.517C36.2243 211.373 36.9545 211.851 37.7352 212.305C38.5159 212.758 63.1945 219.96 69.4649 221.244C70.6935 221.483 71.9573 221.472 73.1815 221.212Z" fill="#002776"/>
    <g filter="url(#filter0_d_21_288)">
        <rect x="63.2427" y="132.155" width="45.5256" height="64.8739" rx="1" transform="rotate(-6.55484 63.2427 132.155)" fill="#EFEFEF"/>
    </g>
    <path d="M82.4167 158.444C85.6427 157.081 88.5598 155.061 90.9826 152.512C92.4822 150.939 94.1829 149.573 96.039 148.451C97.1278 147.77 98.0674 146.872 98.7989 145.813C99.7652 144.17 100.565 142.435 101.186 140.634C101.416 139.084 101.943 137.59 102.739 136.236C103.495 135.543 106.164 135.913 107.549 138.606C108.027 139.805 108.243 141.097 108.184 142.393C108.124 143.69 107.791 144.962 107.205 146.125C106.516 147.519 105.976 148.982 105.594 150.489L105.846 150.639C107.957 149.519 110.213 148.706 112.545 148.226C113.391 148.036 114.272 148.139 115.046 148.516C115.82 148.893 116.443 149.523 116.813 150.304C117.184 151.086 117.281 151.973 117.088 152.823C116.895 153.673 116.425 154.437 115.752 154.991C119.391 155.409 118.978 161.022 115.854 161.764C116.523 162.045 117.088 162.527 117.472 163.144C117.856 163.762 118.041 164.486 118.001 165.218C117.962 165.95 117.701 166.654 117.252 167.237C116.804 167.819 116.19 168.251 115.494 168.474C117.713 170.52 116.091 173.892 112.062 173.907C108.788 174.24 100.033 175.61 96.9868 176.266C93.9406 176.922 87.818 175.471 85.8512 176.08C82.9235 177.153 79.5232 177.17 76.9295 169.466C74.3359 161.763 79.404 159.439 82.4167 158.444Z" fill="#FBBEAA"/>
    <path d="M88.1805 179.111L29.2089 202.853C21.6728 206.643 9.42894 204.699 5.73788 195.885C5.06204 194.241 4.72708 192.477 4.75331 190.701C4.77954 188.924 5.16638 187.171 5.89045 185.548C6.61451 183.925 7.66068 182.466 8.96548 181.26C10.2703 180.054 11.8066 179.125 13.4811 178.53L83.1764 153.323L88.1805 179.111Z" fill="#002776"/>
    <defs>
        <filter id="filter0_d_21_288" x="63.3501" y="127.066" width="54.4187" height="69.4316" filterUnits="userSpaceOnUse" color-interpolation-filters="sRGB">
            <feFlood flood-opacity="0" result="BackgroundImageFix"/>
            <feColorMatrix in="SourceAlpha" type="matrix" values="0 0 0 0 0 0 0 0 0 0 0 0 0 0 0 0 0 0 127 0" result="hardAlpha"/>
            <feOffset dx="2"/>
            <feComposite in2="hardAlpha" operator="out"/>
            <feColorMatrix type="matrix" values="0 0 0 0 0.603922 0 0 0 0 0.6 0 0 0 0 0.631373 0 0 0 1 0"/>
            <feBlend mode="normal" in2="BackgroundImageFix" result="effect1_dropShadow_21_288"/>
            <feBlend mode="normal" in="SourceGraphic" in2="effect1_dropShadow_21_288" result="shape"/>
        </filter>
        <clipPath id="clip0_21_288">
            <rect width="75" height="99" fill="white" transform="translate(53.9829 0.5)"/>
        </clipPath>
    </defs>
</svg>
