<svg width="206" height="526" viewBox="0 0 206 526" fill="none" xmlns="http://www.w3.org/2000/svg">
    <path d="M69.9677 19.1534C71.0224 15.3497 70.6347 11.2904 68.8788 7.75518C67.123 4.21995 64.123 1.45807 60.4549 0C58.9973 1.4576 59.7389 6.11171 59.7389 6.11171C54.5887 3.69815 48.8125 2.95601 43.2194 3.98923C43.3207 7.56523 44.6685 10.9934 47.0296 13.681C44.1681 13.9694 41.416 14.9336 39 16.4939C39.3664 18.1794 40.1277 19.7537 41.2214 21.0874C42.315 22.4211 43.7097 23.4761 45.2907 24.1655C43.6808 26.0502 42.5726 28.3107 42.0686 30.7375C44.8155 31.5297 47.7176 31.6176 50.5074 30.9933C50.057 32.4046 49.8748 33.8877 49.9704 35.3661C52.6195 35.7549 55.3218 35.5556 57.8852 34.7821C60.4486 34.0087 62.8102 32.6802 64.8021 30.891C67.4441 27.4515 69.2162 23.4248 69.9677 19.1534Z" fill="#E69D7E"/>
    <path d="M54.164 32.9628C53.7548 39.5859 49.5866 49.6357 50.6862 58.0489C52.2205 69.9143 66.8988 69.7864 72.5758 69.7864H80.989V32.9628H54.164Z" fill="#E69D7E"/>
    <path d="M67.0524 56.1561V77.8668C67.0524 77.8668 68.7657 85.3338 80.2219 85.3338C82.5014 85.526 84.768 84.8381 86.5561 83.4114C88.3443 81.9847 89.5183 79.9274 89.837 77.6622V56.1817L67.0524 56.1561Z" fill="#FBBEAA"/>
    <path d="M89.837 74.2355C82.6513 77.6622 72.1412 74.5935 67.0524 65.183V56.1561H89.837V74.2355Z" fill="#F18380"/>
    <path d="M104.106 39.4827C104.2 44.6753 103.961 49.8685 103.39 55.0305C102.47 62.4208 99.8358 70.6038 86.7941 70.6038C73.7524 70.6038 67.0781 64.6967 64.2908 55.0305C62.603 49.2001 59.1764 40.5567 60.5828 30.5837C61.9893 20.6106 67.9987 14.0897 82.1656 13.7061C96.3325 13.3226 105.564 19.69 104.106 39.4827Z" fill="#FBBEAA"/>
    <path d="M76.4632 43.9326C76.5499 44.3179 76.7437 44.6709 77.0222 44.951C77.3008 45.231 77.6527 45.4267 78.0376 45.5155C78.4225 45.6043 78.8246 45.5826 79.1977 45.4528C79.5708 45.3231 79.8996 45.0906 80.1464 44.7822C80.3931 44.4738 80.5477 44.1019 80.5924 43.7095C80.6371 43.317 80.57 42.9199 80.3989 42.5639C80.2278 42.2079 79.9596 41.9075 79.6253 41.6972C79.2909 41.4869 78.9039 41.3754 78.5089 41.3754C78.206 41.4071 77.9123 41.4987 77.645 41.6449C77.3778 41.791 77.1421 41.9887 76.9518 42.2266C76.7615 42.4644 76.6204 42.7377 76.5365 43.0306C76.4526 43.3234 76.4277 43.63 76.4632 43.9326Z" fill="#403D4F"/>
    <path d="M95.463 43.9326C95.5497 44.3179 95.7434 44.6709 96.022 44.951C96.3005 45.231 96.6525 45.4267 97.0374 45.5155C97.4223 45.6043 97.8244 45.5826 98.1975 45.4528C98.5705 45.3231 98.8994 45.0906 99.1461 44.7822C99.3929 44.4738 99.5475 44.1019 99.5922 43.7095C99.6369 43.317 99.5698 42.9199 99.3987 42.5639C99.2276 42.2079 98.9594 41.9075 98.625 41.6972C98.2907 41.4869 97.9037 41.3754 97.5087 41.3754C97.2058 41.4071 96.9121 41.4987 96.6448 41.6449C96.3775 41.791 96.1419 41.9887 95.9516 42.2266C95.7613 42.4644 95.6201 42.7377 95.5362 43.0306C95.4524 43.3234 95.4274 43.63 95.463 43.9326Z" fill="#403D4F"/>
    <path d="M82.6515 36.6958C82.6515 36.6958 82.6515 36.6958 82.4214 36.4657C82.2167 36.2818 81.9939 36.119 81.7565 35.9798C81.4391 35.7847 81.0944 35.6382 80.7336 35.5451C80.3315 35.3963 79.9089 35.3101 79.4806 35.2894C79.0645 35.238 78.6436 35.238 78.2276 35.2894C77.8749 35.3005 77.5241 35.3433 77.1791 35.4172L76.1818 35.6985C76.0171 35.7515 75.8796 35.8667 75.7984 36.0195C75.7172 36.1723 75.6988 36.3507 75.7471 36.5168C75.7858 36.6496 75.8666 36.7663 75.9772 36.8493C76.0879 36.9323 76.2225 36.9771 76.3608 36.9771H77.3581C77.6552 36.9389 77.956 36.9389 78.2531 36.9771C78.5936 36.9517 78.9355 36.9517 79.276 36.9771C79.6084 36.9771 79.9409 36.9771 80.2477 37.1561C80.5546 37.3351 80.8103 37.3607 81.066 37.3863L81.6031 37.5653H81.8332C81.9928 37.6347 82.1732 37.6388 82.3358 37.5766C82.4984 37.5144 82.6301 37.391 82.7027 37.2329C82.7475 37.1459 82.7709 37.0494 82.7709 36.9516C82.7709 36.8537 82.7475 36.7572 82.7027 36.6703L82.6515 36.6958Z" fill="#403D4F"/>
    <path d="M95.0793 37.6674H95.2328L95.6419 37.514H95.9232H96.2045C96.4305 37.4393 96.6612 37.3795 96.895 37.335C97.1321 37.2972 97.3738 37.2972 97.611 37.335C97.831 37.2968 98.0559 37.2968 98.2758 37.335H99.0941C99.266 37.3284 99.4286 37.2554 99.5478 37.1314C99.6671 37.0075 99.7335 36.8421 99.7334 36.6701C99.7285 36.5432 99.6874 36.4204 99.6149 36.3162C99.5424 36.212 99.4415 36.1307 99.3243 36.082L98.5316 35.8007C98.2423 35.7061 97.9408 35.6544 97.6365 35.6472C97.2975 35.5964 96.9527 35.5964 96.6137 35.6472C95.942 35.7146 95.3033 35.9718 94.7725 36.3888C94.5798 36.5168 94.4146 36.682 94.2866 36.8747C94.1588 37.0281 94.1588 37.0793 94.1332 37.0793V37.335C94.1191 37.4554 94.1381 37.5774 94.1884 37.6878C94.2386 37.7981 94.318 37.8927 94.4181 37.9611C94.5181 38.0296 94.635 38.0694 94.7561 38.0762C94.8772 38.0831 94.9978 38.0566 95.1049 37.9999L95.0793 37.6674Z" fill="#403D4F"/>
    <path d="M89.8372 52.627C90.2664 52.637 90.6925 52.5528 91.0857 52.3805C91.4789 52.2082 91.8296 51.952 92.1131 51.6297C92.2241 51.5198 92.3109 51.388 92.3682 51.2427C92.4254 51.0975 92.4518 50.9418 92.4456 50.7858C92.4456 50.5045 91.9853 46.9756 91.8319 45.6714C91.8319 45.5426 91.7807 45.419 91.6895 45.3279C91.5984 45.2367 91.4748 45.1855 91.346 45.1855C91.2171 45.1855 91.0936 45.2367 91.0024 45.3279C90.9113 45.419 90.8601 45.5426 90.8601 45.6714C90.8601 45.876 91.3971 50.5045 91.4738 50.7858C91.2614 51.0137 91.004 51.195 90.7179 51.3183C90.4318 51.4415 90.1232 51.504 89.8117 51.5018C89.6828 51.5018 89.5592 51.553 89.4681 51.6441C89.377 51.7353 89.3258 51.8588 89.3258 51.9877C89.3258 52.1166 89.377 52.2401 89.4681 52.3313C89.5592 52.4224 89.6828 52.4736 89.8117 52.4736L89.8372 52.627Z" fill="#F18380"/>
    <path d="M92.2411 57.6646C93.2128 57.9203 93.5453 59.3524 92.9827 61.0145C92.3945 62.158 91.4402 63.0714 90.2722 63.609C89.1041 64.1467 87.7897 64.2776 86.5386 63.9809C85.8597 63.9452 85.1948 63.7746 84.5826 63.479C83.9705 63.1833 83.4234 62.7686 82.9734 62.2591C82.5234 61.7496 82.1795 61.1555 81.9618 60.5115C81.7441 59.8675 81.6569 59.1866 81.7054 58.5085C81.7054 57.4089 82.447 56.744 83.8791 56.744C86.6872 56.8176 89.4842 57.1255 92.2411 57.6646Z" fill="#73102A"/>
    <path d="M81.6539 58.5085C81.6539 58.5085 81.6539 58.355 81.6539 58.2527C83.5293 57.813 85.5016 58.0949 87.1787 59.0425C88.8559 59.99 90.1151 61.5338 90.7064 63.3671C89.3828 64.0155 87.8938 64.2473 86.4359 64.032C85.7568 63.9901 85.0929 63.8131 84.4831 63.5113C83.8733 63.2096 83.3298 62.7892 82.8844 62.2749C82.4391 61.7605 82.1009 61.1624 81.8896 60.5157C81.6783 59.8689 81.5982 59.1865 81.6539 58.5085Z" fill="#D65155"/>
    <path d="M91.3714 59.2248C88.1409 59.2512 84.9278 58.7502 81.8586 57.7416C82.047 57.3953 82.3362 57.1144 82.6879 56.9363C83.0395 56.7581 83.4371 56.6912 83.8277 56.7443C86.6358 56.8178 89.4329 57.1257 92.1897 57.6649C92.4571 57.7548 92.692 57.9217 92.8648 58.1446C93.0377 58.3675 93.1409 58.6365 93.1615 58.9179C92.5879 59.1261 91.9816 59.2301 91.3714 59.2248Z" fill="white"/>
    <path d="M78.8155 27.413C78.8155 27.413 74.2892 43.063 63.4723 47.1801C62.2163 47.1957 60.9751 46.9087 59.8535 46.3435C58.7318 45.7782 57.7628 44.9512 57.0281 43.9325C54.155 37.8897 53.3464 31.0704 54.7267 24.5233C56.5423 16.5449 66.1318 6.26492 83.623 8.66868C92.9568 6.87864 104.081 8.51525 111.036 17.9513C117.992 27.3874 109.706 40.4547 104.106 42.6283C98.5979 39.3118 93.3182 35.6297 88.3027 31.6068C89.0699 34.0105 89.8881 39.0994 89.0698 39.0994C84.3428 36.5824 80.6967 32.427 78.8155 27.413Z" fill="#E69D7E"/>
    <path d="M64.8019 49.0725C64.5973 45.5948 63.6512 41.4009 59.4318 42.1425C54.3174 42.8841 53.9594 56.3094 64.5462 54.6984L64.8019 49.0725Z" fill="#FBBEAA"/>
    <path d="M58.9972 49.9678C59.0851 49.964 59.1707 49.9387 59.2465 49.8941C59.3223 49.8495 59.386 49.787 59.4319 49.7121C59.538 49.4859 59.7034 49.2927 59.9105 49.1531C60.1177 49.0135 60.3588 48.9327 60.6082 48.9193C60.9004 48.9223 61.1871 48.9988 61.4418 49.1418C61.6966 49.2849 61.9112 49.4898 62.0659 49.7376C62.1233 49.8296 62.21 49.8998 62.3119 49.9369C62.4139 49.9739 62.5253 49.9758 62.6284 49.9422C62.7267 49.8998 62.8091 49.8276 62.8641 49.7359C62.9192 49.6441 62.9441 49.5374 62.9353 49.4308C62.9022 48.3524 62.5719 47.3042 61.9808 46.4017C61.3896 45.4992 60.5607 44.7776 59.5854 44.3164C59.524 44.2923 59.4583 44.2809 59.3924 44.283C59.3265 44.285 59.2617 44.3005 59.2019 44.3284C59.1422 44.3564 59.0887 44.3962 59.0449 44.4454C59.001 44.4947 58.9676 44.5524 58.9467 44.6149C58.9259 44.6775 58.918 44.7437 58.9235 44.8094C58.9291 44.8751 58.9479 44.939 58.979 44.9972C59.01 45.0554 59.0526 45.1067 59.1041 45.1479C59.1556 45.1891 59.2149 45.2194 59.2785 45.237C59.8493 45.5178 60.3569 45.9121 60.7702 46.3958C61.1835 46.8794 61.4939 47.4422 61.6823 48.0499C61.3266 47.898 60.9439 47.8197 60.5571 47.8197C60.1437 47.8589 59.7461 47.998 59.3986 48.2253C59.0511 48.4525 58.7641 48.7609 58.5625 49.1239C58.5305 49.1793 58.5097 49.2404 58.5013 49.3039C58.493 49.3673 58.4973 49.4318 58.5139 49.4935C58.5305 49.5553 58.5592 49.6132 58.5982 49.6638C58.6373 49.7145 58.686 49.757 58.7415 49.7888C58.8047 49.875 58.8946 49.9379 58.9972 49.9678Z" fill="#F18380"/>
    <path d="M171.787 82.356C171.889 80.1209 171.291 77.9098 170.076 76.0313C168.204 73.8617 166.803 73.3283 165.958 70.5905C165.309 68.0492 164.271 65.623 162.883 63.3977C161.891 62.0336 160.402 60.9175 160.402 59.8758C160.402 58.8341 162.387 56.8251 165.214 57.3955C166.425 57.7728 167.538 58.4132 168.473 59.2707C169.408 60.1283 170.141 61.1819 170.621 62.3561C170.892 61.6406 171.051 60.8877 171.092 60.1238L171.712 42.9198C171.722 42.5257 171.81 42.1374 171.972 41.778C172.134 41.4185 172.366 41.0952 172.655 40.827C172.944 40.5588 173.284 40.3512 173.655 40.2165C174.025 40.0818 174.419 40.0227 174.813 40.0427C175.44 40.0695 176.042 40.292 176.536 40.6791C176.787 40.8755 180.982 45.9632 185.077 51.0062C189.051 55.9011 192.931 60.7539 193.018 61.0505C192.222 68.2799 190.727 75.4151 188.553 82.356C188.527 83.5148 188.259 84.6554 187.765 85.7043C187.272 86.7533 186.564 87.6874 185.688 88.4466C184.812 89.2057 183.787 89.7732 182.679 90.1125C181.57 90.4518 180.403 90.5555 179.252 90.4168C178.211 90.4515 177.174 90.2619 176.212 89.8608C175.251 89.4596 174.386 88.8563 173.678 88.0917C172.97 87.3272 172.435 86.4193 172.109 85.4296C171.782 84.44 171.673 83.3917 171.787 82.356Z" fill="#FBBEAA"/>
    <path d="M175.785 35.8014L158.529 52.7278C158.347 52.4676 158.164 52.1935 157.981 51.9333C157.432 51.1387 156.877 50.3373 156.328 49.5427C156.124 49.2482 155.928 48.9604 155.724 48.6659C154.901 47.481 155.061 45.8765 156.085 44.8693L167.975 33.2027C168.999 32.1955 170.607 32.0723 171.778 32.9146C172.064 33.1252 172.349 33.322 172.635 33.5327C173.423 34.0964 174.21 34.6601 174.997 35.2238C175.255 35.421 175.52 35.6112 175.785 35.8014Z" fill="#E2874A"/>
    <g opacity="0.53">
        <path d="M174.997 35.2367L157.974 51.9254C157.425 51.1308 156.87 50.3295 156.321 49.5349L172.628 33.5387C173.423 34.1092 174.21 34.6729 174.997 35.2367Z" fill="#D46424"/>
    </g>
    <path d="M178.822 38.0595C179.453 38.8116 180.091 39.5567 180.729 40.3157C181.626 41.3685 182.509 42.4215 183.399 43.4813C186.833 47.5424 190.254 51.6037 193.688 55.6649C195.531 57.8459 197.374 60.0269 199.217 62.2079C200.395 63.6027 200.296 65.6623 198.999 66.9353L189.19 76.5526C187.893 77.8256 185.829 77.8853 184.453 76.6795C182.309 74.7923 180.159 72.912 178.015 71.0248C174.022 67.5092 170.028 64.0075 166.034 60.4919C164.994 59.5859 163.953 58.6661 162.92 57.7531C162.187 57.1058 161.44 56.4588 160.699 55.8047C159.743 54.9667 159.362 53.7211 159.575 52.5649C159.691 51.8866 160.029 51.2332 160.554 50.7087L173.708 37.8041C174.247 37.2794 174.899 36.9606 175.589 36.8555C176.768 36.6823 178.002 37.0817 178.822 38.0595Z" fill="#F5F5F5"/>
    <path d="M183.4 43.4795C186.835 47.5407 190.255 51.602 193.689 55.6632L178.024 71.0299C174.03 67.5143 170.036 64.0126 166.035 60.504L183.4 43.4795Z" fill="#E2874A"/>
    <g opacity="0.52">
        <path d="M175.501 62.6393C173.448 60.8408 171.409 59.0421 169.363 57.2503L166.053 60.5027C170.047 64.0182 174.04 67.52 178.041 71.0285L193.706 55.6618C193.153 55.0124 192.613 54.3627 192.059 53.7133L183.165 62.4353C181.056 64.4987 177.714 64.5809 175.501 62.6393Z" fill="#E2874A"/>
    </g>
    <path d="M178.848 37.6984L160.363 55.8279C159.387 56.7862 157.812 56.7777 156.854 55.7878L156.763 55.6991C155.805 54.7231 155.82 53.1549 156.803 52.1897L175.287 34.0602C176.264 33.1019 177.832 33.1173 178.797 34.1003L178.888 34.1889C179.839 35.172 179.824 36.7402 178.848 37.6984Z" fill="#E2874A"/>
    <g opacity="0.53">
        <path d="M177.799 33.498C178.142 34.4056 177.941 35.4649 177.203 36.1784L158.774 54.252C158.077 54.9374 157.085 55.1291 156.218 54.8427C156.339 55.1659 156.523 55.4675 156.781 55.72L156.816 55.7541C157.789 56.7438 159.391 56.7657 160.381 55.7935L178.811 37.7199C179.801 36.7477 179.822 35.1449 178.85 34.1552L178.815 34.1211C178.522 33.8345 178.174 33.6177 177.799 33.498Z" fill="#D46424"/>
    </g>
    <path d="M179.266 57.1576C180.952 56.688 182.425 56.2832 184.081 58.3905C183.074 59.6461 181.038 60.3203 178.858 59.9531C176.068 59.4829 174.061 57.4973 174.265 55.4571C175.113 56.5313 176.455 57.7582 178.026 57.4628C178.439 57.3886 178.866 57.2729 179.266 57.1576Z" fill="#5B2500"/>
    <path d="M180.132 52.3532C183.005 52.8363 185.054 54.9319 184.7 57.0292C184.694 57.0914 184.674 57.1538 184.661 57.2092C182.623 54.9753 180.606 55.5318 178.94 55.9942C178.541 56.1096 178.169 56.2108 177.797 56.2706C176.625 56.4921 175.427 55.1045 174.766 54.0903C175.723 52.7178 177.841 51.9736 180.132 52.3532Z" fill="#5B2500"/>
    <path d="M179.377 47.7212C177.969 45.4737 180.829 42.5099 182.644 41.3518C182.644 41.3518 183.736 40.088 186 42.3519C188.5 44.852 187 46.5631 187 46.5631C185.367 48.3002 181.555 51.1953 179.377 47.7212Z" fill="#FBBEAA"/>
    <path d="M183.377 52.073C181.969 49.8255 184.829 46.8617 186.644 45.7036C186.644 45.7036 187.736 44.4398 190 46.7037C192.5 49.2038 191 50.9149 191 50.9149C189.367 52.652 185.555 55.5471 183.377 52.073Z" fill="#FBBEAA"/>
    <path d="M187.377 56.073C185.969 53.8255 188.829 50.8617 190.644 49.7036C190.644 49.7036 191.736 48.4398 194 50.7037C196.5 53.2038 195 54.9149 195 54.9149C193.367 56.652 189.555 59.5471 187.377 56.073Z" fill="#FBBEAA"/>
    <path d="M192.313 59.6334C191.145 57.7496 193.516 55.2655 195.02 54.2949C195.02 54.2949 195.925 53.2356 197.801 55.1331C199.873 57.2286 198.63 58.6627 198.63 58.6627C197.276 60.1187 194.118 62.5453 192.313 59.6334Z" fill="#FBBEAA"/>
    <path d="M87.2026 487.134C87.2026 484.746 88.1512 482.456 89.8397 480.768C91.5281 479.079 93.8182 478.131 96.206 478.131C98.5938 478.131 100.884 479.079 102.572 480.768C104.261 482.456 105.209 484.746 105.209 487.134V506.703H87.2026V487.134Z" fill="#FBBEAA"/>
    <path d="M104.565 490.78C106.772 490.78 107.169 491.748 107.814 493.012C108.86 496.383 110.648 499.477 113.047 502.065C116.629 505.116 120.471 507.847 124.531 510.225V520.593H84.4497C84.4497 520.593 84.7225 512.408 84.921 506.629C85.1194 500.85 85.6899 493.806 85.6403 493.062C85.5907 492.318 85.6402 490.78 87.0044 490.78H104.565Z" fill="#302D3B"/>
    <path d="M89.4346 507.199C89.4297 508.472 89.803 509.717 90.5069 510.777C91.2109 511.838 92.2139 512.665 93.3887 513.154C94.5636 513.643 95.8572 513.773 97.1056 513.526C98.3541 513.279 99.5009 512.666 100.401 511.766C101.301 510.866 101.913 509.72 102.16 508.471C102.407 507.223 102.278 505.929 101.789 504.754C101.299 503.579 100.472 502.576 99.4119 501.872C98.3517 501.168 97.1064 500.795 95.8337 500.8C94.1386 500.807 92.5147 501.483 91.3161 502.682C90.1174 503.88 89.4412 505.504 89.4346 507.199Z" fill="#93929C"/>
    <path d="M95.8337 503.429L94.3703 505.587L91.8652 506.306L93.4526 508.365L93.3782 510.969L95.8337 510.076L98.2891 510.969L98.1899 508.365L99.8021 506.306L97.297 505.587L95.8337 503.429Z" fill="white"/>
    <path d="M124.258 510.052C124.258 510.052 129.937 513.053 132.07 514.516C133.058 515.185 133.86 516.094 134.402 517.156C134.944 518.219 135.209 519.401 135.171 520.593H119.595C119.595 520.593 119.917 512.979 124.258 510.052Z" fill="white"/>
    <path d="M84.4497 520.593V524.884C84.4497 525.603 85.0946 526 86.1859 526H133.46C134.526 526 135.171 525.603 135.171 524.884V520.593H84.4497Z" fill="white"/>
    <path d="M119.595 507.15C119.732 506.939 119.946 506.79 120.191 506.734C120.437 506.679 120.694 506.721 120.909 506.852C121.016 506.918 121.109 507.005 121.182 507.107C121.255 507.209 121.307 507.324 121.334 507.447C121.362 507.569 121.365 507.696 121.343 507.82C121.321 507.943 121.275 508.061 121.207 508.167L119.545 510.845C119.465 510.984 119.349 511.099 119.209 511.177C119.07 511.256 118.911 511.296 118.751 511.292C118.568 511.289 118.388 511.238 118.23 511.143C118.123 511.077 118.031 510.991 117.958 510.889C117.885 510.787 117.833 510.671 117.805 510.548C117.777 510.426 117.774 510.299 117.796 510.176C117.818 510.052 117.865 509.934 117.933 509.829L119.595 507.15Z" fill="white"/>
    <path d="M116.668 505.091C116.749 504.997 116.848 504.919 116.96 504.863C117.071 504.807 117.193 504.773 117.317 504.764C117.441 504.755 117.566 504.77 117.685 504.809C117.803 504.848 117.913 504.91 118.007 504.992C118.102 505.073 118.179 505.172 118.235 505.284C118.291 505.395 118.325 505.517 118.334 505.641C118.343 505.765 118.328 505.89 118.289 506.009C118.25 506.127 118.188 506.237 118.106 506.331L116.172 508.613C116.082 508.718 115.972 508.802 115.849 508.862C115.725 508.922 115.59 508.955 115.452 508.96C115.273 508.957 115.098 508.904 114.947 508.806C114.796 508.709 114.675 508.571 114.597 508.409C114.52 508.247 114.49 508.066 114.509 507.888C114.529 507.709 114.598 507.539 114.708 507.398L116.668 505.091Z" fill="white"/>
    <path d="M113.915 502.785C114.112 502.658 114.349 502.607 114.581 502.641C114.814 502.676 115.025 502.793 115.177 502.973C115.329 503.152 115.41 503.38 115.406 503.614C115.402 503.849 115.313 504.074 115.155 504.248L112.948 506.158C112.775 506.305 112.555 506.384 112.328 506.381C112.191 506.386 112.055 506.36 111.931 506.304C111.806 506.248 111.696 506.164 111.609 506.059C111.517 505.973 111.444 505.869 111.394 505.754C111.344 505.639 111.318 505.515 111.318 505.389C111.318 505.264 111.344 505.139 111.394 505.024C111.444 504.909 111.517 504.805 111.609 504.719L113.915 502.785Z" fill="white"/>
    <path d="M109.079 501.644L111.559 500.106C111.777 499.977 112.036 499.939 112.282 499.999C112.528 500.059 112.74 500.213 112.873 500.428C112.94 500.535 112.985 500.655 113.005 500.779C113.026 500.904 113.02 501.031 112.99 501.154C112.96 501.276 112.906 501.392 112.83 501.493C112.755 501.594 112.66 501.679 112.551 501.743L110.071 503.281C109.924 503.378 109.751 503.43 109.575 503.429C109.413 503.426 109.255 503.38 109.116 503.298C108.977 503.215 108.862 503.098 108.781 502.958C108.65 502.743 108.607 502.486 108.663 502.241C108.719 501.995 108.868 501.781 109.079 501.644Z" fill="white"/>
    <path d="M106.995 498.444L109.772 497.279C110.009 497.18 110.276 497.18 110.513 497.277C110.75 497.375 110.939 497.563 111.037 497.8C111.086 497.915 111.111 498.039 111.111 498.164C111.111 498.29 111.086 498.414 111.037 498.529C110.989 498.644 110.918 498.749 110.828 498.837C110.739 498.924 110.633 498.993 110.517 499.04L107.739 500.205H107.367C107.153 500.194 106.949 500.112 106.786 499.972C106.624 499.832 106.513 499.642 106.47 499.432C106.428 499.222 106.456 499.003 106.551 498.811C106.646 498.619 106.802 498.464 106.995 498.37V498.444Z" fill="white"/>
    <path d="M105.259 494.873L108.334 494.104C108.578 494.044 108.835 494.084 109.049 494.215C109.263 494.345 109.416 494.555 109.475 494.798C109.534 495.042 109.495 495.298 109.364 495.512C109.234 495.726 109.024 495.88 108.781 495.939L105.73 496.733H105.507C105.293 496.73 105.086 496.659 104.916 496.529C104.746 496.4 104.623 496.219 104.564 496.013C104.511 495.77 104.554 495.516 104.683 495.304C104.812 495.091 105.019 494.937 105.259 494.873Z" fill="white"/>
    <path d="M74.0322 361.98C74.3051 349.976 82.3907 344.172 94.3703 344.47C106.35 344.768 114.981 351.043 114.708 363.022L105.209 488.102H87.2024L74.0322 361.98Z" fill="#FBBEAA"/>
    <path d="M72.4691 361.906C72.5359 359.056 73.1634 356.247 74.3157 353.639C75.468 351.032 77.1227 348.677 79.1851 346.709C81.2476 344.741 83.6774 343.198 86.336 342.169C88.9946 341.14 91.8298 340.645 94.6798 340.712C97.5298 340.779 100.339 341.406 102.946 342.558C105.554 343.711 107.909 345.365 109.877 347.428C111.845 349.49 113.387 351.92 114.416 354.579C115.445 357.237 115.94 360.072 115.874 362.922L121.505 491.5H72.4701L72.4691 361.906Z" fill="#93929C"/>
    <path d="M11.3062 487.134C11.3062 484.746 12.2547 482.456 13.9432 480.768C15.6316 479.079 17.9217 478.131 20.3095 478.131C22.6973 478.131 24.9874 479.079 26.6758 480.768C28.3643 482.456 29.3129 484.746 29.3129 487.134V506.703H11.3062V487.134Z" fill="#FBBEAA"/>
    <path d="M28.6438 490.78C30.8761 490.78 31.2729 491.748 31.893 493.012C32.9508 496.384 34.7471 499.476 37.1511 502.065C40.7282 505.122 44.5714 507.853 48.6347 510.225V520.593H8.55371C8.55371 520.593 8.82655 512.408 9.02497 506.629C9.22339 500.85 9.76907 493.806 9.74426 493.062C9.71946 492.318 9.74425 490.78 11.0836 490.78H28.6438Z" fill="#302D3B"/>
    <path d="M13.5142 507.199C13.5093 508.471 13.8819 509.715 14.5848 510.775C15.2876 511.834 16.2892 512.662 17.4625 513.152C18.6359 513.642 19.9283 513.772 21.176 513.527C22.4238 513.282 23.5707 512.672 24.4716 511.775C25.3725 510.878 25.9868 509.733 26.2367 508.486C26.4865 507.24 26.3608 505.947 25.8753 504.771C25.3898 503.596 24.5665 502.591 23.5096 501.884C22.4526 501.177 21.2097 500.8 19.9381 500.8C18.2387 500.8 16.6085 501.473 15.4045 502.673C14.2005 503.872 13.5208 505.5 13.5142 507.199Z" fill="#93929C"/>
    <path d="M19.9133 503.429L18.4499 505.587L15.9448 506.306L17.557 508.365L17.4826 510.969L19.9133 510.076L22.3687 510.969L22.2943 508.365L23.9065 506.306L21.3766 505.587L19.9133 503.429Z" fill="white"/>
    <path d="M48.3364 510.052C48.3364 510.052 54.041 513.053 56.1492 514.516C57.1418 515.18 57.9478 516.087 58.4905 517.151C59.0332 518.215 59.2945 519.4 59.2496 520.593H43.5991C43.5991 520.593 44.0208 512.979 48.3364 510.052Z" fill="white"/>
    <path d="M8.55371 520.593V524.884C8.55371 525.603 9.17378 526 10.2651 526H57.5885C58.6798 526 59.2998 525.603 59.2998 524.884V520.593H8.55371Z" fill="white"/>
    <path d="M43.6986 507.15C43.8334 506.936 44.0477 506.785 44.2942 506.729C44.5407 506.673 44.7993 506.717 45.0131 506.852C45.2269 506.987 45.3783 507.201 45.4342 507.448C45.49 507.694 45.4456 507.953 45.3107 508.167L43.649 510.846C43.563 510.985 43.4423 511.099 43.2988 511.177C43.1553 511.255 42.9939 511.295 42.8305 511.292C42.6541 511.292 42.4815 511.241 42.3344 511.143C42.2275 511.077 42.1348 510.991 42.0617 510.889C41.9887 510.787 41.9367 510.671 41.909 510.549C41.8813 510.426 41.8783 510.299 41.9002 510.176C41.9222 510.052 41.9686 509.934 42.0368 509.829L43.6986 507.15Z" fill="white"/>
    <path d="M40.747 505.091C40.9105 504.901 41.1416 504.781 41.3915 504.758C41.6415 504.735 41.8906 504.81 42.0863 504.967C42.2783 505.135 42.3984 505.37 42.4215 505.624C42.4446 505.878 42.369 506.132 42.2103 506.331L40.2509 508.613C40.1649 508.721 40.0556 508.809 39.931 508.869C39.8064 508.929 39.6699 508.96 39.5316 508.96C39.3498 508.962 39.1713 508.911 39.0177 508.814C38.8641 508.717 38.742 508.577 38.666 508.412C38.5899 508.247 38.5633 508.063 38.5893 507.883C38.6152 507.703 38.6927 507.535 38.8123 507.398L40.747 505.091Z" fill="white"/>
    <path d="M38.019 502.785C38.2163 502.658 38.4531 502.607 38.6853 502.641C38.9175 502.676 39.1292 502.793 39.281 502.973C39.4327 503.152 39.5142 503.38 39.5102 503.614C39.5061 503.849 39.4169 504.074 39.2591 504.248L37.0269 506.158C36.8538 506.305 36.6336 506.384 36.4068 506.381C36.2705 506.384 36.1352 506.357 36.0108 506.301C35.8864 506.245 35.7759 506.163 35.6875 506.059C35.599 505.971 35.5288 505.867 35.4808 505.752C35.4329 505.637 35.4082 505.514 35.4082 505.389C35.4082 505.265 35.4329 505.141 35.4808 505.026C35.5288 504.911 35.599 504.807 35.6875 504.719L38.019 502.785Z" fill="white"/>
    <path d="M33.1824 501.644L35.6626 500.106C35.8766 500.016 36.1159 500.005 36.3368 500.077C36.5578 500.148 36.7456 500.297 36.8659 500.496C36.9863 500.694 37.0312 500.93 36.9924 501.159C36.9537 501.388 36.8338 501.595 36.6547 501.743L34.1745 503.281C34.0275 503.378 33.8548 503.43 33.6784 503.429C33.5131 503.427 33.3511 503.383 33.2078 503.301C33.0645 503.218 32.9447 503.1 32.8599 502.958C32.7311 502.74 32.6927 502.481 32.7529 502.235C32.8132 501.989 32.9674 501.777 33.1824 501.644Z" fill="white"/>
    <path d="M170.571 92.8421L160.474 148.5C158.808 155.482 161.383 161.799 170.571 162.907C172.267 163.101 173.99 162.99 175.636 162.582C177.282 162.173 178.816 161.475 180.145 160.529C181.474 159.584 182.571 158.412 183.368 157.083C184.165 155.754 184.646 154.297 184.783 152.8L187.862 92.9529C188.67 87.3007 185.868 83.5326 180.971 83.0671C174.963 82.4908 171.783 85.6161 170.571 92.8421Z" fill="#FBBEAA"/>
    <path d="M31.0992 498.445L33.8771 497.279C33.9926 497.23 34.1165 497.206 34.2418 497.206C34.367 497.206 34.4909 497.231 34.6064 497.279C34.7219 497.328 34.8265 497.399 34.9142 497.488C35.0019 497.577 35.0709 497.683 35.1172 497.8C35.2098 498.031 35.21 498.288 35.1176 498.519C35.0252 498.75 34.8474 498.937 34.6212 499.04L31.8185 500.206C31.7041 500.231 31.5855 500.231 31.4712 500.206C31.2802 500.206 31.0935 500.149 30.9346 500.043C30.7757 499.937 30.6518 499.787 30.5783 499.61C30.503 499.386 30.5148 499.142 30.6113 498.926C30.7078 498.71 30.8819 498.538 31.0992 498.445Z" fill="white"/>
    <path d="M29.3625 494.873L32.4133 494.104C32.6598 494.044 32.9202 494.083 33.1383 494.212C33.3564 494.342 33.5147 494.553 33.579 494.798C33.6086 494.919 33.614 495.044 33.5951 495.167C33.5762 495.289 33.5332 495.407 33.4687 495.513C33.4042 495.619 33.3194 495.711 33.2191 495.784C33.1189 495.858 33.0051 495.91 32.8845 495.939L29.8338 496.733H29.5858C29.3623 496.716 29.1517 496.622 28.99 496.466C28.8283 496.311 28.7255 496.105 28.6991 495.882C28.6727 495.66 28.7245 495.435 28.8455 495.246C28.9665 495.058 29.1493 494.917 29.3625 494.848V494.873Z" fill="white"/>
    <path d="M21.1533 361.608C22.3717 355.978 25.7759 351.062 30.6176 347.942C35.4593 344.821 41.3422 343.75 46.9729 344.966C58.7045 347.446 65.0291 359.004 62.4993 370.736L29.3134 490.16H11.0835L21.1533 361.608Z" fill="#FBBEAA"/>
    <path d="M21.1562 359.252C22.5023 353.757 25.9384 349.004 30.7341 346.003C35.5298 343.002 41.3069 341.99 46.8371 343.182C52.3673 344.374 57.2145 347.676 60.3482 352.386C63.482 357.096 64.655 362.842 63.6181 368.404L50.4237 491C50.4237 491 18.8252 492.885 0 491L21.1562 359.252Z" fill="#93929C"/>
    <path d="M178.551 139.402L107.318 85.2827C99.0087 79.9749 93.3538 82.8024 88.939 88.4822C86.9228 91.2313 85.988 94.6258 86.3127 98.0195C86.6374 101.413 88.199 104.569 90.6999 106.886L161.759 159.244C164.263 161.359 167.487 162.426 170.758 162.223C174.03 162.019 177.097 160.561 179.32 158.153L179.642 157.806C180.822 156.547 181.733 155.061 182.319 153.439C182.906 151.816 183.156 150.091 183.054 148.369C182.952 146.647 182.5 144.964 181.725 143.422C180.951 141.88 179.871 140.512 178.551 139.402Z" fill="#FBBEAA"/>
    <path d="M90.6993 106.861C90.0416 106.295 89.4432 105.663 88.9135 104.976C88.4452 103.211 88.3849 101.362 88.7373 99.5702C89.0896 97.7781 89.8455 96.0899 90.9474 94.6335C94.6926 88.8545 102.555 84.3156 106.052 85.1837L109.524 86.9447L148.837 116.708C145.357 124.885 140.657 132.486 134.898 139.253L90.6993 106.861Z" fill="#F18380"/>
    <path d="M101.439 81.4133L163.082 122.988C162.823 125.115 169.657 81.4133 169.657 81.4133L188.993 83.9297C188.993 83.9297 188.599 128.058 185.713 151.478C184.56 160.828 176.85 164.397 167.646 162.389C163.102 161.397 158.824 159.533 155.017 156.861C138.659 145.379 92.7652 113.038 89.013 108.969C82.5395 101.95 82.5395 96.6918 86.2599 90.9128C89.9803 85.1338 97.9419 80.5452 101.439 81.4133Z" fill="#002776"/>
    <path d="M72.4693 361.906L59.7456 228.691C59.7456 213.983 74.9 197.961 97.2471 201.408C117.436 204.558 123.588 224.847 121.926 244.069C120.264 263.291 115.775 362.849 115.775 362.849C115.708 365.699 115.08 368.507 113.928 371.115C112.776 373.722 111.121 376.077 109.059 378.045C106.996 380.013 104.566 381.556 101.908 382.585C99.2492 383.614 96.4139 384.109 93.564 384.042C90.714 383.976 87.905 383.348 85.2975 382.196C82.6901 381.043 80.3351 379.389 78.367 377.326C76.399 375.264 74.8565 372.834 73.8276 370.175C72.7986 367.517 72.3034 364.682 72.3702 361.832L72.4693 361.906Z" fill="#93929C"/>
    <path d="M21.1538 359.252L33.8031 226.062C36.4818 211.602 54.4637 198.779 75.7691 206.369C94.9911 213.239 97.2233 234.321 91.9652 252.899C86.707 271.476 63.6158 368.404 63.6158 368.404C62.2697 373.899 58.8336 378.652 54.0379 381.653C49.2422 384.654 43.4651 385.666 37.9349 384.474C32.4047 383.282 27.5575 379.98 24.4238 375.27C21.29 370.56 20.1169 364.813 21.1538 359.252Z" fill="#93929C"/>
    <path d="M91.9646 252.899C86.7312 271.476 63.6152 368.405 63.6152 368.405" stroke="#5E5D63" stroke-width="0.75" stroke-miterlimit="10"/>
    <path d="M88.2442 79.3049C88.2442 79.3049 99.207 81.2147 101.34 81.7852C102.599 82.0806 103.762 82.6907 104.721 83.5583C105.679 84.4259 106.402 85.5226 106.821 86.7457C108.186 89.9949 115.205 111.275 115.85 113.582C116.286 116.123 115.876 118.737 114.684 121.023C113.667 123.801 108.409 136.45 108.409 136.45L107.615 177.201L78.0021 181.898L49.6266 177.201C49.6266 177.201 39.7056 101.404 39.2095 96.7164C38.7135 92.0287 41.0449 82.9758 46.6503 81.8348C52.2557 80.6939 67.6333 79.3546 67.6333 79.3546L88.2442 79.3049Z" fill="#FBBEAA"/>
    <path d="M109.006 160.816V175.142C89.61 176.928 58.7047 175.663 47.0971 175.142C46.5515 171.05 45.981 164.105 45.3857 159.492C61.185 159.889 87.2786 161.361 109.006 160.816Z" fill="white"/>
    <path d="M6.71834 173.555L38.4905 89.9453C42.7317 81.0164 49.0068 80.4211 55.8523 82.9014C59.0185 84.1644 61.6085 86.5495 63.1274 89.6012C64.6464 92.6529 64.9879 96.1572 64.0867 99.4448L31.3721 181.566C30.3805 184.69 28.217 187.309 25.3358 188.872C22.4546 190.435 19.0799 190.821 15.9201 189.949L15.4488 189.825C13.7821 189.371 12.2254 188.581 10.8737 187.505C9.52205 186.429 8.40368 185.089 7.58679 183.566C6.7699 182.044 6.27162 180.371 6.12231 178.65C5.973 176.929 6.1758 175.195 6.71834 173.555Z" fill="#FBBEAA"/>
    <path d="M19.8877 138.881L38.4896 89.9452C38.9885 88.872 39.5776 87.8432 40.2506 86.8697C42.5292 85.4431 45.1378 84.6295 47.8234 84.5078C50.5089 84.3861 53.1804 84.9605 55.5786 86.1752C58.3635 87.5304 60.6021 89.796 61.9237 92.597C63.2453 95.3981 63.5706 98.5665 62.8458 101.578C62.8458 101.875 62.6722 102.446 62.5234 103.215L43.3261 151.456C34.9409 148.432 27.0442 144.195 19.8877 138.881Z" fill="#F18380"/>
    <path d="M40.2262 85.4811L4.91406 177.129C33.918 167.848 35.5 172.5 41 158C41 158 64.4831 101.95 65.1776 98.1304C65.9024 95.1192 65.5771 91.9509 64.2555 89.1499C62.9339 86.3489 60.6953 84.0832 57.9104 82.728C50.1472 78.7596 42.4088 82.356 40.2262 85.4811Z" fill="#002776"/>
    <path d="M34.0309 225.611C34.5736 218.782 41.9002 192.6 49.7696 177.685C49.7696 177.685 66.9351 174.964 77.9902 175C89.5246 175.038 107.445 177.685 107.445 177.685C112.577 189.297 118.423 214.665 120.125 220.138C121.153 223.358 121.278 226.797 120.486 230.083C119.695 233.369 118.017 236.375 115.635 238.775C109.789 245.407 94.7163 253 91.238 253C76.2732 250.864 61.6051 247.009 47.5247 241.512C39.5814 238.184 33.5128 232.464 34.0309 225.611Z" fill="#93929C"/>
    <path d="M88.7646 79.4453C88.7646 79.4453 99.8066 81.3689 101.98 81.9435C103.245 82.2475 104.413 82.8642 105.378 83.7372C106.343 84.6102 107.073 85.7114 107.501 86.9399C108.85 90.2125 115.92 111.647 116.594 113.97C117.034 116.53 116.621 119.162 115.42 121.465C114.421 124.188 109.1 136.904 109.1 136.904L108.3 177.949H49.8678C49.8678 177.949 39.95 101.629 39.4754 96.9326C39.0007 92.236 41.324 83.0927 46.9699 81.9435C52.6158 80.7943 68.0796 79.4453 68.0796 79.4453H88.7646Z" fill="white"/>
    <path d="M67.3302 79.4453C69.6411 87.5821 70.9416 95.9725 71.2024 104.427V214.972C71.2024 218.369 69.7285 218.594 67.9548 218.594H36.4526C34.8288 218.594 32.3556 217.545 33.155 215.222C33.9544 212.898 40.9993 191.789 47.8693 177.374C47.8693 177.374 38.0265 98.0568 38.0265 94.3095C38.0265 90.5622 40.7745 82.9677 45.521 81.8185C50.2676 80.6694 67.4301 78.6958 67.4301 78.6958L67.3302 79.4453Z" fill="#002776"/>
    <path d="M89.5891 79.7206C90.9878 90.3445 91.8217 101.035 92.0873 111.747V215.472C92.0873 217.82 92.6869 218.545 94.9103 218.545H120.067C121.741 218.545 122.365 217.521 121.941 215.447C121.516 213.374 110.374 177.974 110.374 177.974L111.348 137.229C111.348 137.229 117.069 118.043 117.294 116.519C117.566 114.614 117.387 112.671 116.769 110.848C116.07 109.024 108.076 87.6149 107.326 86.066C106.821 85.0119 106.096 84.0784 105.2 83.3285C104.304 82.5786 103.257 82.0298 102.13 81.7191C99.432 81.0696 89.5142 79.2209 89.5142 79.2209L89.5891 79.7206Z" fill="#002776"/>
    <path d="M71.2027 143.799C71.2027 143.799 56.7881 112.696 55.7639 110.673C54.7396 108.649 55.3392 106.626 57.7874 107C60.2356 107.375 71.6773 110.348 71.6773 110.348L71.2027 143.799Z" fill="#003399"/>
    <path d="M71.6521 111.422C71.6521 111.422 58.9113 101.754 57.7872 100.955C57.2512 100.539 56.8576 99.9675 56.6607 99.3186C56.4637 98.6697 56.4733 97.9756 56.688 97.3324C57.1626 96.2581 63.6079 77.3468 64.4074 76.0478C65.2891 74.9469 66.2672 73.927 67.3302 73C67.3302 73 69.7035 83.5673 70.5029 88.7386C71.2944 96.2735 71.678 103.846 71.6521 111.422Z" fill="#003399"/>
    <path d="M92.1122 143.799C92.1122 143.799 106.527 112.696 107.526 110.673C108.525 108.649 107.951 106.626 105.502 107C103.054 107.375 91.6376 110.348 91.6376 110.348L92.1122 143.799Z" fill="#003399"/>
    <path d="M91.6377 111.422C91.6377 111.422 102.979 101.754 103.979 100.955C104.459 100.498 104.777 99.8978 104.885 99.2442C104.993 98.5906 104.886 97.9195 104.578 97.3326C103.954 96.2584 93.911 79.4456 92.9367 78.2714C91.9048 77.167 90.7853 76.1477 89.5891 75.2236C89.5891 75.2236 89.3643 78.0716 89.4392 80.5198C89.5142 82.968 91.6377 111.422 91.6377 111.422Z" fill="#003399"/>
    <g filter="url(#filter0_d_110_28)">
        <rect x="57" y="120.672" width="40.9288" height="58.3236" rx="1" transform="rotate(-6.55484 57 120.672)" fill="#EFEFEF"/>
    </g>
    <path d="M76.217 146.811C79.0634 145.609 81.6372 143.827 83.7749 141.578C85.098 140.189 86.5986 138.984 88.2363 137.994C89.1969 137.394 90.026 136.601 90.6714 135.667C91.524 134.217 92.2296 132.686 92.7774 131.098C92.9804 129.73 93.4457 128.411 94.1475 127.217C94.8146 126.605 97.1694 126.932 98.3918 129.308C98.8132 130.366 99.0041 131.505 98.9518 132.649C98.8995 133.793 98.6051 134.916 98.0883 135.942C97.4801 137.172 97.0036 138.463 96.6671 139.792L96.8891 139.925C98.7516 138.936 100.742 138.219 102.8 137.795C103.546 137.628 104.323 137.719 105.006 138.051C105.69 138.384 106.239 138.94 106.566 139.629C106.893 140.319 106.978 141.102 106.808 141.852C106.638 142.602 106.223 143.276 105.629 143.765C108.84 144.134 108.476 149.086 105.719 149.741C106.31 149.988 106.808 150.414 107.147 150.959C107.486 151.504 107.649 152.142 107.614 152.788C107.579 153.434 107.349 154.056 106.953 154.569C106.557 155.083 106.016 155.464 105.402 155.661C107.36 157.466 105.929 160.441 102.374 160.454C99.4851 160.748 91.7601 161.957 89.0725 162.536C86.3848 163.114 80.9827 161.835 79.2473 162.372C76.6642 163.318 73.664 163.334 71.3756 156.537C69.0871 149.74 73.5588 147.69 76.217 146.811Z" fill="#FBBEAA"/>
    <path d="M78 167L25.0001 189.5C17.7763 192.873 9.24501 189.929 6.00005 181.5C5.4067 179.929 5.36657 177.36 5.44015 175.682C5.51374 174.004 5.92737 172.359 6.656 170.845C7.38464 169.332 8.73402 166.604 9.99986 165.5C11.2657 164.396 15.7765 162.359 17.3748 161.843L77 145.5L78 167Z" fill="#002776"/>
    <defs>
        <filter id="filter0_d_110_28" x="57.1075" y="116.107" width="49.1041" height="62.3995" filterUnits="userSpaceOnUse" color-interpolation-filters="sRGB">
            <feFlood flood-opacity="0" result="BackgroundImageFix"/>
            <feColorMatrix in="SourceAlpha" type="matrix" values="0 0 0 0 0 0 0 0 0 0 0 0 0 0 0 0 0 0 127 0" result="hardAlpha"/>
            <feOffset dx="2"/>
            <feComposite in2="hardAlpha" operator="out"/>
            <feColorMatrix type="matrix" values="0 0 0 0 0.603922 0 0 0 0 0.6 0 0 0 0 0.631373 0 0 0 1 0"/>
            <feBlend mode="normal" in2="BackgroundImageFix" result="effect1_dropShadow_110_28"/>
            <feBlend mode="normal" in="SourceGraphic" in2="effect1_dropShadow_110_28" result="shape"/>
        </filter>
    </defs>
</svg>
