<svg width="212" height="524" viewBox="0 0 212 524" fill="none" xmlns="http://www.w3.org/2000/svg">
    <g clip-path="url(#clip0_21_289)">
        <path d="M101.006 65.0033H70.3359V99.9358H101.006V65.0033Z" fill="#FBBEAA"/>
        <path d="M70.4119 65.0033H100.981V84.4925C99.6453 84.6531 98.3012 84.7355 96.9557 84.7392C86.4095 84.7392 74.6151 81.9515 70.3101 72.2069L70.4119 65.0033Z" fill="#F18380"/>
        <path d="M116.852 39.0758C116.597 49.1657 116.852 57.1341 114.967 64.8311C113.082 72.5281 107.325 78.8189 94.5876 78.8189C81.8507 78.8189 67.3306 74.7977 66.3117 59.3791C64.2228 57.1834 60.8348 49.3631 60.7074 40.6053C60.5801 31.8475 61.2934 13.3205 81.9017 10.4834C102.51 7.64641 117.412 14.9733 116.852 39.0758Z" fill="#FBBEAA"/>
        <path d="M106.076 47.0189C106.076 48.3757 106.917 49.4858 107.961 49.4858C109.006 49.4858 109.847 48.3757 109.847 47.0189C109.847 45.662 109.006 44.5519 107.961 44.5519C106.917 44.5519 106.076 45.5633 106.076 47.0189Z" fill="#403D4F"/>
        <path d="M83.1492 47.0189C83.1492 48.3757 83.9898 49.4858 85.0342 49.4858C86.0786 49.4858 86.9193 48.3757 86.9193 47.0189C86.9193 45.662 86.0786 44.5519 85.0342 44.5519C83.9898 44.5519 83.1492 45.5633 83.1492 47.0189Z" fill="#403D4F"/>
        <path d="M87.7604 41.8877C87.5821 42.1097 86.232 41.8877 85.2131 41.8877C84.1941 41.8877 82.2327 41.8877 82.2327 41.6657C82.2327 41.4436 83.2006 39.9141 85.748 40.1855C87.5821 40.3828 88.2445 41.493 87.7604 41.8877Z" fill="#403D4F"/>
        <path d="M105.644 41.8878C105.796 42.1098 106.943 41.8878 107.834 41.8878C108.726 41.8878 110.382 41.8878 110.382 41.6657C110.153 41.1066 109.721 40.6476 109.168 40.375C108.614 40.1024 107.977 40.0351 107.376 40.1856C105.796 40.3829 105.363 41.4931 105.644 41.8878Z" fill="#403D4F"/>
        <path d="M98.1281 57.2326C99.9112 57.2326 101.338 56.0977 101.389 55.2836L100.803 48.3267C100.783 48.1543 100.695 47.996 100.558 47.8855C100.42 47.7749 100.243 47.7208 100.064 47.7347C99.977 47.7409 99.8921 47.7638 99.8142 47.8019C99.7363 47.84 99.6668 47.8927 99.61 47.9569C99.5532 48.0211 99.5101 48.0956 99.4831 48.176C99.4561 48.2564 99.4457 48.3411 99.4527 48.4254L100.013 55.1356C99.7557 55.406 99.4391 55.6172 99.0864 55.7538C98.7338 55.8904 98.3542 55.9489 97.9752 55.9251C97.8862 55.9184 97.7966 55.9292 97.712 55.9568C97.6274 55.9845 97.5494 56.0285 97.4827 56.0861C97.4161 56.1437 97.3622 56.2138 97.3242 56.2921C97.2863 56.3704 97.2651 56.4554 97.262 56.5418C97.2615 56.7168 97.3296 56.8854 97.4525 57.0136C97.5754 57.1418 97.744 57.2201 97.9242 57.2326H98.1281Z" fill="#F18380"/>
        <path d="M70.5193 52.7424C67.7257 52.4169 65.9312 50.2755 65.4245 47.8085C64.9178 45.3415 63.3289 46.575 60.3297 46.575C57.3306 46.575 55.7974 40.864 54.8542 36.5195C53.6275 30.8691 55.4541 24.2543 57.2536 21.9181C52.4549 17.8297 54.8542 3.81233 56.0539 8.48477C57.0136 12.2227 60.4527 13.936 62.0522 14.3253C66.8509 -2.96277 85.6456 0.113288 94.4431 3.81233C101.641 1.00885 107.839 4.98045 110.039 7.31669C120.836 3.81234 125.634 8.48481 128.034 10.821C130.433 13.1573 133.432 26.5906 123.235 32.4312C115.077 37.1036 103.041 33.2099 98.0421 30.679C92.2837 35.3515 84.4459 33.794 81.2468 32.4312C80.767 35.2347 75.2661 39.2451 73.0667 41.7761C70.8673 44.307 71.793 52.8909 70.5193 52.7424Z" fill="#F3E8AE"/>
        <path d="M66.872 51.7062C66.7446 48.8939 66.2861 44.7493 62.1593 44.6507C58.0326 44.552 57.4976 47.5617 57.625 52.2983C57.7524 57.0349 62.7198 61.0561 67.0758 59.4279L66.872 51.7062Z" fill="#FBBEAA"/>
        <path d="M60.8091 55.1109C60.9877 55.0808 61.1469 54.9835 61.2518 54.8402C61.3568 54.697 61.3991 54.5194 61.3695 54.3462C61.3697 54.2069 61.4104 54.0706 61.487 53.9528C61.5636 53.8349 61.673 53.7404 61.8026 53.6801C62.0626 53.5114 62.3685 53.4214 62.6814 53.4214C62.9944 53.4214 63.3002 53.5114 63.5603 53.6801C63.6734 53.7406 63.8005 53.7723 63.9296 53.7723C64.0588 53.7723 64.1859 53.7406 64.299 53.6801C64.4028 53.6137 64.486 53.5212 64.5399 53.4126C64.5937 53.304 64.6161 53.1833 64.6047 53.0633C64.2481 49.0915 61.6242 48.3514 61.5223 48.3267C61.4354 48.3007 61.3438 48.2924 61.2534 48.3022C61.1629 48.312 61.0755 48.3398 60.9966 48.3838C60.9178 48.4278 60.8491 48.487 60.7949 48.5578C60.7407 48.6287 60.7022 48.7096 60.6817 48.7955C60.6347 48.959 60.6565 49.134 60.7425 49.2819C60.8285 49.4299 60.9715 49.5389 61.1403 49.5849C61.6492 49.808 62.0927 50.1504 62.4307 50.5811C62.7687 51.0118 62.9905 51.5173 63.0763 52.0519C62.3782 51.9417 61.6626 52.0821 61.0638 52.4466C60.7149 52.6447 60.4329 52.9367 60.252 53.287C60.0712 53.6373 59.9992 54.031 60.0449 54.4202C60.0406 54.5163 60.0578 54.6122 60.0954 54.7012C60.133 54.7902 60.1901 54.8703 60.2627 54.936C60.3354 55.0016 60.4218 55.0513 60.5161 55.0815C60.6104 55.1117 60.7104 55.1217 60.8091 55.1109Z" fill="#F18380"/>
        <path d="M96.3711 66.1133C93.912 66.0215 91.5509 65.1553 89.646 63.6464" stroke="#73102A" stroke-width="0.5" stroke-miterlimit="10" stroke-linecap="round"/>
    </g>
    <path d="M39.3617 103.958C33.7008 111.237 0.948242 200.194 0.948242 200.194C31.2747 190.49 28.429 164.263 44.9227 167.037C44.9227 167.037 63.9423 122.396 64.6684 118.402C65.4262 115.254 65.0861 111.941 63.7043 109.012C62.3224 106.084 59.9818 103.715 57.0699 102.298C48.9527 98.1483 45.0226 96.6799 39.3617 103.958Z" fill="#002366"/>
    <path d="M184.131 97.6884C184.256 94.959 183.525 92.2588 182.041 89.9648C179.756 87.3153 178.044 84.2215 177.013 80.8781C176.22 77.7745 174.953 74.8117 173.257 72.0942C172.045 70.4283 170.228 69.0653 170.228 67.7932C170.228 66.5211 172.651 64.0677 176.104 64.7643C177.583 65.225 178.942 66.007 180.084 67.0543C181.225 68.1015 182.121 69.3882 182.707 70.8221C183.038 69.9484 183.232 69.029 183.283 68.0961L184.04 49.5289C184.051 49.0476 184.159 48.5734 184.357 48.1345C184.555 47.6955 184.839 47.3006 185.191 46.9731C185.544 46.6456 185.959 46.3921 186.412 46.2276C186.864 46.0631 187.345 45.991 187.826 46.0154C188.591 46.0481 189.328 46.3198 189.931 46.7925C190.534 47.2652 190.973 47.915 191.188 48.6505V47.8024C191.305 46.8998 191.758 46.0748 192.458 45.4928C193.158 44.9108 194.052 44.615 194.96 44.6648C195.869 44.7147 196.725 45.1065 197.357 45.7615C197.989 46.4165 198.349 47.2863 198.367 48.1962V50.7708C198.67 49.9771 199.248 49.3187 199.997 48.9158C200.745 48.5129 201.613 48.3923 202.442 48.5758C203.272 48.7594 204.008 49.2349 204.517 49.9158C205.025 50.5967 205.272 51.4376 205.212 52.2852V53.9208C205.538 53.3479 206.024 52.8824 206.61 52.5811C207.196 52.2799 207.858 52.156 208.513 52.2246C209.411 52.3386 210.229 52.7975 210.795 53.5042C211.36 54.2109 211.628 55.1098 211.542 56.0107L210.058 71.6702C209.086 80.4988 207.26 89.2123 204.606 97.6884C204.574 99.1037 204.246 100.497 203.644 101.777C203.041 103.058 202.177 104.199 201.107 105.126C200.038 106.053 198.786 106.746 197.432 107.161C196.078 107.575 194.653 107.702 193.248 107.532C191.976 107.575 190.71 107.343 189.535 106.853C188.361 106.363 187.305 105.627 186.441 104.693C185.576 103.759 184.922 102.651 184.524 101.442C184.125 100.233 183.991 98.9533 184.131 97.6884Z" fill="#FBBEAA"/>
    <path d="M184.736 73.4576C183.585 73.4576 183.495 72.7307 182.98 71.398C185.554 71.398 193.036 71.8826 196.307 78.1827C193.005 73.6393 186.675 73.4576 184.736 73.4576ZM190.613 49.499C190.613 49.499 190.431 50.5592 190.249 52.1039C190.249 52.8914 190.067 53.8303 190.007 54.7996C189.946 55.7688 189.855 56.8289 189.764 57.8285C189.764 59.9487 189.613 62.0387 189.613 63.6137C189.613 65.1887 189.613 66.2488 189.613 66.2488C189.613 66.2992 189.623 66.3491 189.643 66.3953C189.663 66.4415 189.693 66.483 189.73 66.5172C189.767 66.5513 189.811 66.5775 189.858 66.5939C189.906 66.6103 189.957 66.6165 190.007 66.6123C190.092 66.608 190.174 66.5761 190.239 66.5215C190.305 66.4669 190.351 66.3925 190.37 66.3095C190.37 66.3095 190.552 65.2493 190.703 63.6742C190.855 62.0992 191.097 60.0093 191.188 57.9193C191.188 56.8592 191.188 55.7991 191.188 54.8904C191.188 53.9818 191.188 52.9823 191.188 52.1948C191.188 50.5894 191.188 49.5595 191.188 49.5595C191.188 49.5091 191.178 49.4593 191.158 49.4131C191.138 49.3669 191.108 49.3254 191.071 49.2912C191.034 49.257 190.99 49.2309 190.943 49.2146C190.895 49.1982 190.844 49.1919 190.794 49.1961C190.736 49.2295 190.689 49.2783 190.656 49.3371C190.624 49.3959 190.609 49.4624 190.613 49.5293V49.499ZM197.64 51.6193C197.64 51.6193 197.458 52.5279 197.246 53.8606C197.246 54.5573 197.034 55.3447 196.943 56.1928C196.852 57.0409 196.761 57.9496 196.67 58.8583C196.67 60.6756 196.458 62.493 196.428 63.856C196.398 65.219 196.428 66.158 196.428 66.158C196.432 66.2057 196.445 66.2523 196.467 66.2949C196.489 66.3376 196.519 66.3755 196.556 66.4065C196.592 66.4375 196.635 66.4609 196.68 66.4755C196.726 66.49 196.774 66.4953 196.822 66.4912C196.903 66.4855 196.98 66.4525 197.041 66.3975C197.101 66.3426 197.142 66.2689 197.155 66.1883C197.155 66.1883 197.337 65.2795 197.549 63.9468C197.761 62.6141 197.942 60.7665 198.094 58.9795C198.094 58.0708 198.094 57.1621 198.276 56.314C198.457 55.4659 198.276 54.6481 198.276 53.9515C198.276 52.5885 198.276 51.6798 198.276 51.6798C198.276 51.6294 198.266 51.5796 198.245 51.5334C198.225 51.4872 198.196 51.4456 198.159 51.4115C198.122 51.3773 198.078 51.3512 198.03 51.3348C197.983 51.3185 197.932 51.3122 197.882 51.3164C197.815 51.3441 197.757 51.3899 197.714 51.4487C197.671 51.5075 197.645 51.577 197.64 51.6495V51.6193ZM204.424 54.4967C204.424 54.4967 204.243 55.2539 204 56.4049C204 56.9501 203.758 57.6165 203.667 58.3434C203.576 59.0704 203.455 59.8276 203.334 60.5848C203.122 62.1295 203.031 63.6137 202.97 64.8252C202.91 66.0368 202.97 66.7638 202.97 66.7638C202.97 66.8142 202.981 66.864 203.001 66.9102C203.021 66.9564 203.05 66.9979 203.087 67.0321C203.124 67.0663 203.168 67.0924 203.216 67.1087C203.263 67.1251 203.314 67.1314 203.364 67.1272C203.442 67.1232 203.516 67.0945 203.575 67.0455C203.635 66.9965 203.678 66.9296 203.697 66.8546C203.697 66.8546 203.909 66.0974 204.121 64.9767C204.333 63.856 204.636 62.281 204.818 60.7665C204.818 59.979 204.97 59.2218 205.03 58.4948C205.091 57.7679 205.03 57.1016 205.03 56.5261C205.03 55.3751 205.03 54.5875 205.03 54.5875C205.03 54.5371 205.02 54.4873 205 54.4411C204.98 54.3949 204.95 54.3534 204.913 54.3192C204.876 54.285 204.832 54.2589 204.785 54.2426C204.737 54.2262 204.687 54.2199 204.636 54.2241C204.58 54.2553 204.532 54.2987 204.496 54.3512C204.459 54.4036 204.434 54.4638 204.424 54.527V54.4967Z" fill="#F18380"/>
    <path d="M110.851 95.3953L176.864 139.918C176.586 142.195 181.936 95.3953 181.936 95.3953L206.37 97.676C206.37 97.676 204.942 145.324 201.347 170.488C199.92 180.474 191.607 184.262 181.751 182.111C176.885 181.049 172.304 179.052 168.227 176.191C150.709 163.895 101.562 129.261 97.5438 124.904C90.6114 117.388 90.6114 111.757 94.5955 105.568C98.5796 99.3795 107.106 94.4657 110.851 95.3953Z" fill="#001A4B"/>
    <path d="M27.8991 331.428C27.4765 334.659 27.6987 337.942 28.5529 341.087C29.4072 344.232 30.8765 347.176 32.8758 349.749C34.8752 352.323 37.365 354.474 40.2011 356.079C43.0372 357.684 46.1635 358.71 49.3989 359.099C52.6343 359.488 55.9148 359.232 59.0505 358.345C62.1861 357.458 65.1148 355.958 67.6671 353.931C70.2193 351.905 72.3445 349.393 73.9197 346.541C75.4949 343.688 76.4888 340.551 76.8439 337.312C76.8439 337.312 89.676 247.182 92.7192 228.974C95.7624 210.766 92.5417 195.524 72.1523 191.188C51.0021 186.699 37.7895 202.194 36.1919 217.714C34.5942 233.234 27.8991 331.428 27.8991 331.428Z" fill="#93929C"/>
    <path d="M68.3482 333.178C68.2675 339.716 70.7871 346.017 75.3528 350.697C79.9185 355.377 86.1562 358.051 92.6938 358.132C99.2314 358.213 105.533 355.693 110.213 351.128C114.893 346.562 117.567 340.324 117.648 333.787C117.648 333.787 120.767 242.795 121.832 224.358C122.897 205.922 118.079 191.137 97.3346 189.007C75.8294 186.8 64.3667 203.614 64.3667 219.236C64.3667 234.857 68.3482 333.178 68.3482 333.178Z" fill="#93929C"/>
    <path d="M108.823 440.4C108.823 440.4 107.605 492.109 107.301 499.844C106.997 507.578 102.102 509.683 94.2153 510.368C86.3284 511.053 83.0062 504.789 81.8904 499.818C80.7746 494.848 74.0288 444.153 74.0288 444.153L108.823 440.4Z" fill="#FBBEAA"/>
    <path d="M107.935 476.462L78.8472 479.581C76.5901 463.579 74.0288 444.077 74.0288 444.077L108.823 440.324C108.823 440.324 108.366 459.699 107.935 476.462Z" fill="#F18380"/>
    <path d="M68.3481 333.178C68.3881 329.941 69.0652 326.744 70.3409 323.768C71.6166 320.793 73.4659 318.098 75.7831 315.837C78.1003 313.577 80.8401 311.795 83.8461 310.593C86.852 309.391 90.0653 308.793 93.3023 308.833C96.5394 308.873 99.7369 309.55 102.712 310.826C105.688 312.101 108.383 313.951 110.643 316.268C112.904 318.585 114.686 321.325 115.888 324.331C117.09 327.337 117.688 330.55 117.648 333.787L112.576 477.914L72.7861 482.2L68.3481 333.178Z" fill="#93929C"/>
    <path d="M56.7589 442.378C56.7589 442.378 50.0132 493.656 48.8973 501.289C47.7815 508.923 42.6842 510.546 34.7465 510.368C26.8089 510.191 24.1968 503.622 23.6135 498.576C23.0302 493.529 21.7622 442.378 21.7622 442.378H56.7589Z" fill="#FBBEAA"/>
    <path d="M51.8892 478.136H22.6238C22.1166 462.007 21.6348 442.378 21.6348 442.378H56.7583C56.7583 442.378 54.2223 461.499 51.8892 478.136Z" fill="#F18380"/>
    <path d="M27.8986 331.428C28.7408 324.99 32.0892 319.144 37.2164 315.161C42.3437 311.177 48.8356 309.377 55.2822 310.152C61.7288 310.927 67.6092 314.214 71.6463 319.299C75.6833 324.385 77.551 330.857 76.8434 337.312L54.7807 482.986H14.7627L27.8986 331.428Z" fill="#93929C"/>
    <path d="M76.8181 337.312L54.0703 481.718" stroke="#676767" stroke-width="0.75" stroke-miterlimit="10" stroke-linecap="round"/>
    <path d="M76.8438 337.312C76.8438 337.312 89.6758 247.183 92.719 228.974" stroke="#676767" stroke-width="0.75" stroke-miterlimit="10" stroke-linecap="round"/>
    <path d="M37.4089 484.146C40.2852 483.939 43.1372 484.797 45.4233 486.554C47.7094 488.312 49.2704 490.848 49.8099 493.681L63.0478 507.249V515.694H20.6206C20.6206 515.694 22.7508 500.478 23.3595 497.054C23.9681 493.63 26.0223 484.146 37.4089 484.146Z" fill="#FBBEAA"/>
    <path d="M49.7844 493.579C50.2662 492.92 50.9509 492.413 51.4328 492.717C51.9146 493.022 64.7214 503.166 65.33 503.673C65.7049 504.025 65.9884 504.463 66.1563 504.949C66.3242 505.435 66.3713 505.954 66.2937 506.462V517.342H19.6821C19.6821 517.342 21.508 501.264 21.6348 500.376C21.7616 499.488 22.6492 498.322 23.1564 498.347C26.3557 499.327 29.676 499.857 33.0215 499.919C37.4677 500.155 41.903 499.284 45.9297 497.383C47.4226 496.345 48.7265 495.059 49.7844 493.579Z" fill="#2E70AC"/>
    <path d="M58.6352 508.212C56.3781 506.538 48.2629 500.198 45.2197 497.815L45.9298 497.46C46.0256 497.418 46.1119 497.358 46.1834 497.282C49.4295 499.818 57.0628 505.803 59.2438 507.426C61.0874 508.839 62.3504 510.877 62.7942 513.157L61.8052 513.309C61.3868 511.288 60.2632 509.481 58.6352 508.212Z" fill="#1E2173"/>
    <path d="M20.9505 506.26C24.2354 506.293 27.4143 507.427 29.9786 509.48C32.2964 511.534 33.8664 514.299 34.442 517.342H33.0725C32.5124 514.705 31.1267 512.316 29.1164 510.52C26.7563 508.63 23.8221 507.601 20.7983 507.604L20.9505 506.26Z" fill="#1E2173"/>
    <path d="M73.8258 517.317H19.6823C19.3041 517.317 18.9976 517.623 18.9976 518.002V523.251C18.9976 523.629 19.3041 523.936 19.6823 523.936H73.8258C74.2039 523.936 74.5105 523.629 74.5105 523.251V518.002C74.5105 517.623 74.2039 517.317 73.8258 517.317Z" fill="white"/>
    <path d="M65.2032 503.571C65.6851 503.368 68.0436 504.053 71.1121 507.071C72.3897 508.392 73.3094 510.016 73.7842 511.791C74.259 513.566 74.2733 515.433 73.8256 517.215H58.4321C59.2944 507.477 64.7214 503.774 65.2032 503.571Z" fill="white"/>
    <path d="M59.2945 503.724C59.1044 503.957 59.0138 504.255 59.0423 504.554C59.0707 504.853 59.216 505.129 59.4466 505.322C59.5598 505.415 59.6903 505.485 59.8306 505.528C59.9709 505.571 60.1183 505.586 60.2644 505.572C60.4104 505.558 60.5522 505.515 60.6817 505.446C60.8112 505.377 60.9258 505.283 61.0189 505.169L63.5549 502.101C63.745 501.868 63.8356 501.57 63.8072 501.271C63.7787 500.972 63.6334 500.696 63.4028 500.503C63.2911 500.407 63.1609 500.334 63.0202 500.289C62.8794 500.244 62.731 500.228 62.584 500.242C62.437 500.256 62.2944 500.3 62.1648 500.371C62.0353 500.442 61.9215 500.539 61.8305 500.655L59.2945 503.724Z" fill="white"/>
    <path d="M56.2769 501.416C56.0868 501.649 55.9962 501.947 56.0247 502.246C56.0532 502.545 56.1985 502.821 56.4291 503.014C56.5407 503.11 56.6709 503.183 56.8117 503.228C56.9524 503.273 57.1008 503.289 57.2478 503.275C57.3949 503.26 57.5375 503.216 57.667 503.145C57.7966 503.074 57.9103 502.978 58.0014 502.861L60.5374 499.793C60.7213 499.558 60.808 499.261 60.7797 498.964C60.7514 498.666 60.6102 498.391 60.3852 498.195C60.2735 498.099 60.1434 498.026 60.0026 497.981C59.8619 497.936 59.7135 497.92 59.5664 497.934C59.4194 497.949 59.2768 497.992 59.1473 498.063C59.0177 498.134 58.904 498.231 58.8129 498.347L56.2769 501.416Z" fill="white"/>
    <path d="M53.3604 499.134C53.1688 499.359 53.0746 499.651 53.0983 499.946C53.1221 500.241 53.262 500.514 53.4872 500.706C53.7199 500.896 54.0182 500.987 54.3173 500.958C54.6164 500.93 54.8922 500.785 55.0848 500.554L57.6208 497.485C57.7274 497.381 57.8121 497.257 57.87 497.12C57.9278 496.983 57.9576 496.835 57.9576 496.687C57.9576 496.538 57.9278 496.39 57.87 496.253C57.8121 496.116 57.7274 495.992 57.6208 495.888C57.3856 495.704 57.0889 495.617 56.7917 495.645C56.4945 495.674 56.2194 495.815 56.0232 496.04L53.3604 499.134Z" fill="white"/>
    <path d="M50.4183 496.826C50.3249 496.939 50.2548 497.07 50.2118 497.21C50.1689 497.35 50.1541 497.498 50.1683 497.644C50.1824 497.79 50.2252 497.932 50.2942 498.061C50.3632 498.19 50.4571 498.305 50.5704 498.398C50.7838 498.607 51.0706 498.724 51.3693 498.724C51.668 498.724 51.9548 498.607 52.1681 498.398L54.7041 495.304C54.8942 495.072 54.9848 494.773 54.9564 494.474C54.9279 494.175 54.7826 493.899 54.552 493.707C54.4388 493.613 54.3083 493.543 54.168 493.5C54.0277 493.457 53.8803 493.442 53.7342 493.457C53.5882 493.471 53.4464 493.514 53.3169 493.583C53.1874 493.652 53.0728 493.745 52.9796 493.859L50.4183 496.826Z" fill="white"/>
    <path d="M97.0051 484.146C99.8814 483.939 102.733 484.797 105.02 486.554C107.306 488.312 108.867 490.848 109.406 493.681L122.619 507.249V515.694H80.2168C80.2168 515.694 82.3216 500.478 82.9556 497.054C83.5896 493.63 85.6185 484.146 97.0051 484.146Z" fill="#FBBEAA"/>
    <path d="M109.381 493.579C109.862 492.92 110.522 492.413 111.029 492.717C111.536 493.022 124.318 503.166 124.901 503.673C125.484 504.18 125.89 504.814 125.89 506.462V517.342H79.2783C79.2783 517.342 81.1042 501.264 81.231 500.376C81.3578 499.488 82.2454 498.322 82.7526 498.347C85.9519 499.327 89.2722 499.857 92.6177 499.919C97.0561 500.16 101.484 499.288 105.501 497.383C107.005 496.351 108.318 495.063 109.381 493.579Z" fill="#2E70AC"/>
    <path d="M118.231 508.212C115.974 506.538 107.859 500.198 104.816 497.815L105.501 497.46C105.604 497.419 105.699 497.359 105.78 497.282C109.026 499.818 116.659 505.803 118.84 507.426C120.684 508.839 121.947 510.877 122.39 513.157L121.401 513.309C120.971 511.293 119.849 509.49 118.231 508.212Z" fill="#1E2173"/>
    <path d="M80.5467 506.26C83.8316 506.293 87.0105 507.427 89.5748 509.48C91.8926 511.534 93.4626 514.299 94.0382 517.342H92.6687C92.1017 514.702 90.7068 512.312 88.6872 510.52C86.3389 508.626 83.4113 507.597 80.3945 507.604L80.5467 506.26Z" fill="#1E2173"/>
    <path d="M133.421 517.317H79.278C78.8998 517.317 78.5933 517.623 78.5933 518.002V523.251C78.5933 523.629 78.8998 523.936 79.278 523.936H133.421C133.8 523.936 134.106 523.629 134.106 523.251V518.002C134.106 517.623 133.8 517.317 133.421 517.317Z" fill="white"/>
    <path d="M124.799 503.571C125.281 503.368 127.64 504.053 130.708 507.071C131.986 508.392 132.906 510.016 133.38 511.791C133.855 513.566 133.869 515.433 133.422 517.215H118.028C118.891 507.477 124.318 503.774 124.799 503.571Z" fill="white"/>
    <path d="M118.789 503.724C118.599 503.957 118.508 504.255 118.537 504.554C118.565 504.853 118.711 505.129 118.941 505.322C119.054 505.415 119.185 505.485 119.325 505.528C119.466 505.571 119.613 505.586 119.759 505.572C119.905 505.558 120.047 505.515 120.176 505.446C120.306 505.377 120.42 505.283 120.514 505.169L123.05 502.101C123.234 501.866 123.32 501.569 123.292 501.272C123.264 500.975 123.122 500.699 122.897 500.503C122.786 500.407 122.656 500.334 122.515 500.289C122.374 500.244 122.226 500.228 122.079 500.242C121.932 500.256 121.789 500.3 121.66 500.371C121.53 500.442 121.416 500.539 121.325 500.655L118.789 503.724Z" fill="white"/>
    <path d="M115.873 501.416C115.683 501.648 115.592 501.947 115.62 502.246C115.649 502.545 115.794 502.821 116.025 503.013C116.136 503.11 116.267 503.183 116.407 503.228C116.548 503.273 116.697 503.289 116.844 503.274C116.991 503.26 117.133 503.216 117.263 503.145C117.392 503.074 117.506 502.978 117.597 502.861L120.133 499.793C120.317 499.557 120.404 499.261 120.375 498.963C120.347 498.666 120.206 498.391 119.981 498.195C119.748 498.005 119.45 497.914 119.151 497.943C118.852 497.971 118.576 498.117 118.383 498.347L115.873 501.416Z" fill="white"/>
    <path d="M112.956 499.134C112.851 499.235 112.766 499.357 112.709 499.492C112.651 499.628 112.622 499.773 112.622 499.92C112.622 500.066 112.651 500.212 112.709 500.347C112.766 500.482 112.851 500.604 112.956 500.706C113.189 500.896 113.487 500.987 113.786 500.958C114.086 500.93 114.361 500.784 114.554 500.554L117.09 497.485C117.28 497.252 117.371 496.954 117.342 496.655C117.314 496.356 117.168 496.08 116.938 495.887C116.825 495.794 116.694 495.724 116.554 495.681C116.414 495.638 116.266 495.623 116.12 495.637C115.974 495.652 115.832 495.694 115.703 495.763C115.573 495.832 115.459 495.926 115.366 496.04L112.956 499.134Z" fill="white"/>
    <path d="M110.015 496.826C109.922 496.939 109.851 497.07 109.809 497.21C109.766 497.35 109.751 497.498 109.765 497.644C109.779 497.79 109.822 497.932 109.891 498.061C109.96 498.19 110.054 498.305 110.167 498.398C110.38 498.607 110.667 498.724 110.966 498.724C111.265 498.724 111.552 498.607 111.765 498.398L114.301 495.304C114.491 495.072 114.582 494.773 114.553 494.474C114.525 494.175 114.379 493.899 114.149 493.707C114.036 493.613 113.905 493.543 113.765 493.5C113.624 493.457 113.477 493.442 113.331 493.457C113.185 493.471 113.043 493.514 112.914 493.583C112.784 493.652 112.67 493.745 112.576 493.859L110.015 496.826Z" fill="white"/>
    <path d="M121.086 204.635C121.086 204.635 121.086 230.934 121.086 232.379C121.086 233.825 108.625 246.226 92.076 246.226C66.63 246.226 36.1745 236.766 36.6231 230.604C36.9221 226.546 37.296 204.635 37.296 204.635H121.086Z" fill="#93929C"/>
    <path d="M102.894 91.5983C102.894 91.5983 118.455 100.025 121.168 101.8C123.882 103.576 127.026 106.314 126.443 113.72C125.86 121.125 123.527 219.75 123.527 219.75C117.167 219.75 106.155 219.75 106.155 219.75H98.953C98.953 219.75 94.1925 219.75 91.1422 219.75C85.6952 219.75 77.1942 219.75 77.1942 219.75H73.7602H70.0174C70.0174 219.75 38.85 220.206 38.0638 219.75C36.916 219.75 34.5431 220.616 34.543 219.75C34.619 218.887 37.1509 114.556 37.4805 110.093C37.5458 107.703 38.298 105.382 39.6471 103.408C40.9962 101.433 42.8853 99.8894 45.0885 98.9601C50.3888 96.6016 66.2279 90.4871 66.2279 90.4871C66.2279 90.4871 80.7476 108.794 89.9773 105.278C95.9394 103.008 102.894 91.5983 102.894 91.5983Z" fill="#002366"/>
    <path d="M34.713 213.472L34.4211 221.606C34.4211 221.606 66.842 223.848 86.238 223.782C104.1 223.721 123.507 221.841 123.507 221.841L123.669 214.524C123.669 214.524 102.89 215.429 84.2725 215.429C59.2129 215.429 34.713 213.472 34.713 213.472Z" fill="#00163F"/>
    <path d="M113.374 91.2093C115.817 100.729 100.872 109.265 87.6753 105.793C101.566 96.7633 100.872 91.2069 100.872 91.2069V81.483C105.039 80.7885 111.836 85.2177 113.374 91.2093Z" fill="#001A4B"/>
    <path d="M70.3121 78.0104C66.1448 77.3158 52.6576 78.7258 48.0864 86.3449C46.0027 89.8178 50.2992 96.7321 50.2992 96.7321C50.2992 96.7321 50.6056 96.7321 54.9389 95.1126C58.4116 102.753 75.8686 109.265 88.671 105.864C70.3121 96.0689 70.3121 91.2064 70.3121 91.2064V78.0104Z" fill="#001A4B"/>
    <path d="M68.6686 139.708H71.4023V143.184H74.3192V139.708H77.0529V149.206H74.3192V145.445H71.4019V149.206H68.6682V139.708H68.6686ZM86.808 139.708V149.206H84.1665V141.959H82.4362V144.685C82.4362 145.91 82.3439 147.411 81.6165 148.257C80.8895 149.197 79.5188 149.482 77.9722 149.197V146.842C79.427 147.127 79.7948 146.557 79.7948 144.677V139.691H86.808V139.708ZM89.0902 139.708H91.8239L93.3701 145.35L94.9163 139.708H97.65L98.9289 149.206H96.3793L95.7442 144.125L94.2808 149.205H92.4586L91.0042 144.125L90.3691 149.205H87.8195L89.0898 139.708L89.0902 139.708ZM99.9318 139.708H102.666V143.564L105.307 139.708H108.316L104.856 144.409L108.409 149.206H105.132L102.674 145.35V149.206H99.9404V139.708H99.9323H99.9318ZM88.1705 129.546C71.7697 129.546 60.9194 135.662 60.9194 144.685C60.9194 153.622 71.7615 159.825 88.1705 159.825C104.663 159.825 115.422 153.614 115.422 144.685C115.422 135.662 104.671 129.546 88.1705 129.546ZM88.1705 158.419C72.7644 158.419 62.4742 152.872 62.4742 144.685C62.4742 136.413 72.773 130.952 88.1705 130.952C103.66 130.952 113.875 136.404 113.875 144.685C113.875 152.872 103.668 158.419 88.1705 158.419ZM88.1705 132.272C73.6841 132.272 64.0209 137.258 64.0209 144.685C64.0209 152.113 73.6841 157.099 88.1705 157.099C102.657 157.099 112.32 152.113 112.32 144.685C112.329 137.258 102.666 132.272 88.1705 132.272ZM88.1705 156.823C73.8596 156.823 64.2969 151.932 64.2969 144.694C64.2969 137.456 73.8678 132.565 88.1705 132.565C102.473 132.565 112.044 137.456 112.044 144.694C112.053 151.932 102.481 156.823 88.1705 156.823V156.823Z" fill="white"/>
    <path d="M55.6432 145.995C60.2335 141.353 68.8175 131.343 71.722 128.905C74.594 126.741 77.7316 124.954 81.0581 123.589C83.5818 122.743 86.1909 122.178 88.8382 121.903C90.6794 121.669 91.4315 122.214 91.4315 123.329C91.3852 123.994 91.1735 124.636 90.8157 125.197C90.4579 125.759 89.9653 126.222 89.3827 126.545H92.78C93.947 126.545 94.6991 127.479 94.1545 128.983C93.6599 129.976 92.9528 130.849 92.0834 131.54C91.214 132.23 90.2035 132.72 89.1234 132.977C89.1234 132.977 93.7136 133.417 94.8806 133.651C96.0477 133.884 96.4107 134.325 96.4107 135.44C96.4007 136.21 96.1866 136.964 95.7902 137.625C95.3939 138.285 94.8295 138.829 94.1545 139.201C92.5024 139.871 90.7487 140.257 88.9678 140.342C88.9678 140.342 94.6473 141.768 95.7883 142.183C96.9294 142.598 97.0591 143.35 96.4626 144.335C96.1227 145.029 95.6319 145.639 95.0262 146.119C94.4204 146.599 93.715 146.938 92.9616 147.11C90.8091 147.681 89.3568 146.747 88.5788 146.877C86.9072 147.415 85.2703 148.056 83.6774 148.796C81.2853 151.177 78.3606 152.955 75.1453 153.983C72.7519 154.987 70.5565 156.41 68.6619 158.184C67.7794 159.012 66.7397 159.655 65.6045 160.074C64.4692 160.493 63.2614 160.681 62.0525 160.625C60.8435 160.57 59.658 160.272 58.566 159.75C57.4741 159.229 56.4979 158.493 55.6951 157.587C51.5458 153.179 52.2459 149.496 55.6432 145.995Z" fill="#FBBEAA"/>
    <path d="M70.9017 161.781L29.1535 208.726C24.1506 215.394 12.46 219.059 5.31723 212.881C3.99635 211.724 2.9243 210.311 2.1661 208.726C1.40791 207.142 0.979355 205.421 0.906468 203.666C0.833581 201.912 1.11787 200.161 1.74208 198.519C2.36629 196.878 3.31741 195.38 4.53777 194.117L55.132 141.159L70.9017 161.781Z" fill="#002366"/>
    <path d="M88.8127 126.571C88.8201 126.614 88.8183 126.658 88.8076 126.7C88.797 126.742 88.7776 126.782 88.7507 126.816C88.7239 126.85 88.69 126.878 88.6516 126.899C88.6131 126.919 88.5709 126.931 88.5275 126.934L86.4009 127.142H85.3636C85.0005 127.142 84.6634 127.271 84.3003 127.297C83.9167 127.412 83.5437 127.56 83.1852 127.738L81.9922 128.231C80.3843 128.879 78.7764 129.476 77.5835 129.916C76.3905 130.357 75.5607 130.617 75.5607 130.617C75.4949 130.644 75.4212 130.646 75.3539 130.622C75.2867 130.598 75.2309 130.55 75.1976 130.487C75.1492 130.424 75.123 130.346 75.123 130.267C75.123 130.187 75.1492 130.109 75.1976 130.046L77.1426 129.035L79.1654 128.075C79.8916 127.738 80.6955 127.401 81.4994 127.09L82.7183 126.623C83.1103 126.446 83.5185 126.307 83.9372 126.208L85.182 126.078H86.2453H87.8272H88.4237C88.4891 126.027 88.5722 126.003 88.6549 126.013C88.7376 126.023 88.813 126.065 88.8646 126.13C88.9162 126.195 88.9397 126.279 88.93 126.361C88.9203 126.444 88.878 126.519 88.8127 126.571ZM88.32 132.821H87.8532C87.4649 132.786 87.0744 132.786 86.6861 132.821L85.8822 132.951C85.5859 132.988 85.2916 133.04 85.0005 133.106L83.237 133.677C82.0441 134.066 80.8771 134.559 79.9953 134.922C79.9953 134.922 79.71 134.922 79.736 135.051H79.4248L78.958 135.181H78.6727H78.5171C78.4388 135.199 78.3707 135.248 78.3272 135.315C78.2837 135.383 78.2681 135.465 78.2837 135.544C78.295 135.606 78.3266 135.663 78.3735 135.705C78.4205 135.747 78.4801 135.773 78.543 135.777H79.8656H80.2805C81.1882 135.544 82.4071 135.181 83.6 134.766L85.3376 134.118L86.1416 133.91L86.8417 133.703C87.1999 133.597 87.5635 133.51 87.931 133.443L88.3719 133.314C88.4111 133.302 88.4475 133.282 88.4792 133.256C88.5109 133.23 88.5371 133.198 88.5564 133.162C88.5756 133.126 88.5876 133.087 88.5915 133.046C88.5954 133.005 88.5913 132.964 88.5793 132.925C88.5486 132.887 88.5086 132.857 88.4632 132.839C88.4178 132.821 88.3685 132.815 88.32 132.821ZM88.32 140.186H87.3604C87.1011 140.186 86.764 140.186 86.4269 140.368L85.3636 140.705C84.6945 140.94 84.0443 141.226 83.4186 141.561C83.1309 141.696 82.8535 141.852 82.5887 142.027C82.5357 142.089 82.5066 142.167 82.5066 142.248C82.5066 142.329 82.5357 142.407 82.5887 142.468C82.6632 142.547 82.7655 142.594 82.8739 142.598L83.8335 142.442C84.3781 142.313 85.0783 142.105 85.7785 141.872L86.7899 141.457L87.6716 141.12C87.9652 140.989 88.251 140.842 88.5275 140.679C88.6008 140.635 88.655 140.566 88.679 140.484C88.7031 140.402 88.6953 140.314 88.6571 140.238C88.5803 140.189 88.4876 140.17 88.3978 140.186H88.32Z" fill="#F18380"/>
    <defs>
        <clipPath id="clip0_21_289">
            <rect width="76" height="99" fill="white" transform="translate(54.3828 0.935791)"/>
        </clipPath>
    </defs>
</svg>
