<svg width="210" height="515" viewBox="0 0 210 515" fill="none" xmlns="http://www.w3.org/2000/svg">
<g clip-path="url(#clip0_21_288)">
<path d="M109.975 64.573H140.041V99.2735H109.975V64.573Z" fill="#FBBEAA"/>
<path d="M139.966 64.573H110V83.9328C111.309 84.0923 112.626 84.1742 113.945 84.1778C124.284 84.1778 135.846 81.4086 140.066 71.7288L139.966 64.573Z" fill="#F18380"/>
<path d="M94.4418 38.8176C94.6915 48.8406 94.4418 56.7561 96.2897 64.4019C98.1377 72.0478 103.781 78.2969 116.267 78.2969C128.753 78.2969 142.987 74.3024 143.986 58.9861C146.033 56.8051 149.355 49.0367 149.48 40.337C149.604 31.6374 148.905 13.2333 128.703 10.4152C108.501 7.59696 93.8924 14.8752 94.4418 38.8176Z" fill="#FBBEAA"/>
<path d="M105.004 46.708C105.004 48.0559 104.18 49.1587 103.157 49.1587C102.133 49.1587 101.309 48.0559 101.309 46.708C101.309 45.3602 102.133 44.2574 103.157 44.2574C104.18 44.2574 105.004 45.2622 105.004 46.708Z" fill="#403D4F"/>
<path d="M127.48 46.708C127.48 48.0559 126.656 49.1587 125.632 49.1587C124.608 49.1587 123.784 48.0559 123.784 46.708C123.784 45.3602 124.608 44.2574 125.632 44.2574C126.656 44.2574 127.48 45.2622 127.48 46.708Z" fill="#403D4F"/>
<path d="M122.96 41.6109C123.134 41.8315 124.458 41.6109 125.457 41.6109C126.456 41.6109 128.378 41.6109 128.378 41.3904C128.378 41.1698 127.43 39.6504 124.932 39.92C123.134 40.116 122.485 41.2188 122.96 41.6109Z" fill="#403D4F"/>
<path d="M105.429 41.6109C105.279 41.8315 104.155 41.6109 103.281 41.6109C102.407 41.6109 100.784 41.6109 100.784 41.3904C101.008 40.8349 101.431 40.379 101.974 40.1082C102.517 39.8374 103.141 39.7705 103.731 39.92C105.279 40.1161 105.704 41.2188 105.429 41.6109Z" fill="#403D4F"/>
<path d="M112.796 56.8539C111.048 56.8539 109.65 55.7266 109.6 54.9179L110.174 48.0072C110.193 47.836 110.28 47.6787 110.415 47.5689C110.55 47.4591 110.724 47.4053 110.899 47.4191C110.984 47.4253 111.067 47.448 111.144 47.4859C111.22 47.5238 111.288 47.5761 111.344 47.6399C111.399 47.7036 111.442 47.7776 111.468 47.8575C111.495 47.9373 111.505 48.0216 111.498 48.1053L110.949 54.7709C111.201 55.0395 111.511 55.2493 111.857 55.385C112.203 55.5207 112.575 55.5788 112.946 55.5551C113.034 55.5484 113.121 55.5592 113.204 55.5867C113.287 55.6142 113.364 55.6578 113.429 55.7151C113.494 55.7723 113.547 55.8419 113.584 55.9197C113.622 55.9975 113.642 56.0819 113.646 56.1678C113.646 56.3416 113.579 56.5091 113.459 56.6364C113.338 56.7638 113.173 56.8415 112.996 56.8539H112.796Z" fill="#F18380"/>
<path d="M139.861 52.3936C142.599 52.0702 144.358 49.943 144.855 47.4924C145.352 45.0418 146.909 46.2671 149.849 46.2671C152.79 46.2671 154.292 40.594 155.217 36.2784C156.42 30.6655 154.629 24.0946 152.865 21.7739C157.569 17.7126 155.217 3.78835 154.041 8.42976C153.1 12.1429 149.729 13.8448 148.161 14.2315C143.457 -2.94177 125.033 0.113866 116.408 3.78835C109.352 1.00348 103.276 4.94871 101.12 7.26944C90.5361 3.78836 85.832 8.4298 83.48 10.7505C81.128 13.0712 78.1879 26.4154 88.1841 32.2172C96.181 36.8586 107.98 32.9907 112.88 30.4766C118.525 35.1181 126.209 33.5709 129.345 32.2172C129.815 35.002 135.208 38.9859 137.364 41.5C139.52 44.0141 138.612 52.541 139.861 52.3936Z" fill="#F3E8AE"/>
<path d="M143.436 51.3642C143.561 48.5705 144.01 44.4535 148.056 44.3555C152.101 44.2575 152.625 47.2472 152.501 51.9524C152.376 56.6575 147.506 60.652 143.236 59.0346L143.436 51.3642Z" fill="#FBBEAA"/>
<path d="M149.379 54.7462C149.204 54.7163 149.048 54.6196 148.945 54.4773C148.842 54.3351 148.801 54.1587 148.83 53.9866C148.83 53.8482 148.79 53.7128 148.715 53.5957C148.64 53.4787 148.532 53.3848 148.405 53.3249C148.151 53.1574 147.851 53.0679 147.544 53.0679C147.237 53.0679 146.937 53.1574 146.682 53.3249C146.572 53.385 146.447 53.4165 146.32 53.4165C146.194 53.4165 146.069 53.385 145.958 53.3249C145.856 53.2589 145.775 53.1671 145.722 53.0592C145.669 52.9513 145.647 52.8314 145.659 52.7122C146.008 48.7668 148.58 48.0316 148.68 48.0071C148.765 47.9813 148.855 47.973 148.944 47.9827C149.032 47.9925 149.118 48.0201 149.195 48.0637C149.273 48.1074 149.34 48.1663 149.393 48.2367C149.446 48.307 149.484 48.3874 149.504 48.4727C149.55 48.6352 149.529 48.809 149.445 48.956C149.36 49.103 149.22 49.2112 149.055 49.2569C148.556 49.4785 148.121 49.8186 147.79 50.2465C147.458 50.6743 147.241 51.1765 147.157 51.7075C147.841 51.5981 148.543 51.7375 149.13 52.0996C149.472 52.2964 149.748 52.5864 149.925 52.9344C150.103 53.2824 150.173 53.6735 150.128 54.0601C150.133 54.1555 150.116 54.2508 150.079 54.3392C150.042 54.4277 149.986 54.5072 149.915 54.5724C149.844 54.6377 149.759 54.687 149.667 54.717C149.574 54.747 149.476 54.7569 149.379 54.7462Z" fill="#F18380"/>
<path d="M114.519 65.6757C116.929 65.5844 119.244 64.7241 121.111 63.2251" stroke="#73102A" stroke-width="0.5" stroke-miterlimit="10" stroke-linecap="round"/>
</g>
<path d="M170.031 100.384C175.721 107.701 203.138 184.593 203.138 184.593C172.654 174.838 187.805 171.099 171.226 173.889C171.226 173.889 145.323 118.918 144.593 114.903C143.831 111.738 144.173 108.408 145.562 105.465C146.951 102.521 149.304 100.139 152.231 98.715C160.39 94.5441 164.341 93.0681 170.031 100.384Z" fill="#002776"/>
<path d="M25.0279 99.8215C24.915 97.3543 25.5755 94.9134 26.9171 92.8397C28.9827 90.4447 30.5301 87.6481 31.4621 84.6259C32.1791 81.8204 33.3243 79.1422 34.8573 76.6857C35.9524 75.1799 37.5952 73.9478 37.5952 72.7979C37.5952 71.6479 35.4048 69.4302 32.2836 70.0599C30.9466 70.4764 29.7182 71.1833 28.6863 72.1299C27.6545 73.0766 26.8446 74.2396 26.3148 75.5358C26.0157 74.7461 25.8403 73.9149 25.7946 73.0717L25.1101 56.288C25.0997 55.8529 25.0022 55.4243 24.8235 55.0275C24.6447 54.6307 24.3881 54.2737 24.0691 53.9777C23.7501 53.6816 23.375 53.4525 22.966 53.3038C22.557 53.1551 22.1223 53.0899 21.6877 53.112C20.9957 53.1415 20.3303 53.3871 19.7851 53.8144C19.24 54.2417 18.8425 54.8291 18.6485 55.494V54.7273C18.5432 53.9114 18.1332 53.1656 17.5007 52.6395C16.8682 52.1135 16.0601 51.8461 15.2387 51.8911C14.4172 51.9362 13.6433 52.2903 13.0722 52.8824C12.501 53.4745 12.175 54.2608 12.1596 55.0833V57.4106C11.8853 56.6931 11.3624 56.098 10.6861 55.7338C10.0099 55.3696 9.22523 55.2605 8.47525 55.4265C7.72527 55.5924 7.05988 56.0222 6.60034 56.6377C6.14081 57.2532 5.91772 58.0133 5.97175 58.7796V60.258C5.67706 59.7401 5.23789 59.3193 4.70789 59.047C4.17788 58.7747 3.58001 58.6627 2.98738 58.7247C2.17583 58.8277 1.43627 59.2426 0.925228 59.8814C0.414185 60.5202 0.17178 61.3328 0.249428 62.1472L1.591 76.3025C2.46986 84.283 4.12041 92.1595 6.51937 99.8215C6.54838 101.101 6.84476 102.36 7.38944 103.518C7.93412 104.676 8.71505 105.707 9.68205 106.545C10.649 107.383 11.7807 108.009 13.0043 108.384C14.2279 108.759 15.5163 108.873 16.7867 108.72C17.9364 108.758 19.0809 108.549 20.1426 108.106C21.2043 107.663 22.1583 106.997 22.9399 106.153C23.7216 105.309 24.3126 104.307 24.6729 103.215C25.0332 102.122 25.1542 100.965 25.0279 99.8215Z" fill="#FBBEAA"/>
<path d="M24.4799 77.9182C25.5203 77.9182 25.6024 77.2611 26.0679 76.0564C23.7406 76.0564 16.9779 76.4944 14.0209 82.1894C17.0052 78.0824 22.7276 77.9182 24.4799 77.9182ZM19.1682 56.2609C19.1682 56.2609 19.3325 57.2192 19.4968 58.6156C19.4968 59.3275 19.6611 60.1762 19.7159 61.0523C19.7706 61.9285 19.8527 62.8868 19.9349 63.7903C19.9349 65.7069 20.0717 67.5961 20.0717 69.0198C20.0717 70.4435 20.0717 71.4018 20.0717 71.4018C20.0719 71.4474 20.0626 71.4925 20.0444 71.5343C20.0262 71.576 19.9995 71.6135 19.966 71.6444C19.9326 71.6753 19.8931 71.6989 19.85 71.7137C19.8069 71.7285 19.7613 71.7342 19.7159 71.7304C19.6388 71.7265 19.5651 71.6977 19.5058 71.6483C19.4466 71.5989 19.405 71.5317 19.3872 71.4566C19.3872 71.4566 19.223 70.4983 19.0861 69.0745C18.9492 67.6508 18.7302 65.7616 18.648 63.8724C18.648 62.9141 18.648 61.9559 18.648 61.1345C18.648 60.3131 18.648 59.4096 18.648 58.6977C18.648 57.2466 18.648 56.3156 18.648 56.3156C18.6479 56.2701 18.6572 56.225 18.6754 56.1833C18.6935 56.1415 18.7203 56.104 18.7537 56.0731C18.7872 56.0422 18.8267 56.0186 18.8698 56.0038C18.9129 55.989 18.9586 55.9833 19.004 55.9871C19.0564 56.0173 19.0996 56.0615 19.1286 56.1146C19.1575 56.1678 19.1713 56.2279 19.1682 56.2883V56.2609ZM12.8162 58.1775C12.8162 58.1775 12.9805 58.9989 13.1721 60.2036C13.1721 60.8333 13.3638 61.5452 13.4459 62.3118C13.5281 63.0784 13.6102 63.8998 13.6923 64.7212C13.6923 66.364 13.884 68.0067 13.9113 69.2388C13.9387 70.4709 13.9113 71.3197 13.9113 71.3197C13.9079 71.3629 13.8959 71.405 13.8762 71.4435C13.8564 71.4821 13.8292 71.5164 13.7961 71.5444C13.763 71.5724 13.7247 71.5936 13.6834 71.6067C13.6421 71.6198 13.5986 71.6247 13.5555 71.6209C13.4818 71.6158 13.412 71.5859 13.3574 71.5363C13.3027 71.4866 13.2664 71.4199 13.2543 71.3471C13.2543 71.3471 13.09 70.5256 12.8983 69.3209C12.7066 68.1162 12.5424 66.4461 12.4055 64.8307C12.4055 64.0093 12.4055 63.1879 12.2412 62.4213C12.0769 61.6547 12.2412 60.9154 12.2412 60.2857C12.2412 59.0536 12.2412 58.2322 12.2412 58.2322C12.2411 58.1867 12.2503 58.1417 12.2685 58.0999C12.2867 58.0581 12.3134 58.0206 12.3469 57.9897C12.3804 57.9588 12.4199 57.9352 12.463 57.9204C12.5061 57.9056 12.5518 57.8999 12.5972 57.9037C12.6579 57.9288 12.7105 57.9702 12.7492 58.0234C12.7878 58.0765 12.811 58.1393 12.8162 58.2048V58.1775ZM6.68317 60.7785C6.68317 60.7785 6.8474 61.463 7.06644 62.5035C7.06644 62.9963 7.28552 63.5987 7.36766 64.2558C7.4498 64.9129 7.55928 65.5974 7.66879 66.2819C7.86045 67.6782 7.94266 69.0198 7.99742 70.115C8.05218 71.2102 7.99742 71.8673 7.99742 71.8673C7.99758 71.9129 7.98821 71.9579 7.97001 71.9997C7.95182 72.0414 7.92511 72.079 7.89164 72.1099C7.85817 72.1408 7.81866 72.1643 7.77558 72.1791C7.7325 72.1939 7.68686 72.1996 7.64147 72.1958C7.57157 72.1922 7.50464 72.1663 7.45046 72.122C7.39629 72.0777 7.35766 72.0172 7.34025 71.9494C7.34025 71.9494 7.14864 71.265 6.95698 70.2519C6.76533 69.2389 6.4915 67.8151 6.32722 66.4461C6.32722 65.7343 6.19031 65.0498 6.13555 64.3927C6.08079 63.7355 6.13555 63.1332 6.13555 62.613C6.13555 61.5726 6.13555 60.8607 6.13555 60.8607C6.13539 60.8151 6.14476 60.7701 6.16295 60.7283C6.18115 60.6866 6.20777 60.649 6.24124 60.6181C6.27472 60.5872 6.31431 60.5636 6.35739 60.5488C6.40047 60.534 6.4461 60.5283 6.49149 60.5321C6.54204 60.5603 6.58556 60.5996 6.61875 60.647C6.65194 60.6944 6.67397 60.7488 6.68317 60.8059V60.7785Z" fill="#F18380"/>
<path d="M91.2684 97.7487L31.596 137.994C31.8471 140.053 27.0113 97.7487 27.0113 97.7487L4.92445 99.8103C4.92445 99.8103 6.21478 142.881 9.46512 165.628C10.7551 174.655 18.2689 178.079 27.1784 176.135C31.5772 175.175 35.7184 173.37 39.4036 170.783C55.239 159.669 99.6649 128.362 103.297 124.423C109.564 117.629 109.564 112.539 105.962 106.944C102.361 101.35 94.6537 96.9084 91.2684 97.7487Z" fill="#001A4B"/>
<path d="M141.947 326.767C142.026 333.216 139.541 339.432 135.037 344.048C130.534 348.664 124.381 351.302 117.932 351.382C111.483 351.462 105.267 348.976 100.651 344.473C96.035 339.969 93.3969 333.816 93.3172 327.367C93.3172 327.367 90.2404 237.613 89.1898 219.427C88.1391 201.241 92.892 186.657 113.354 184.556C134.567 182.38 145.874 198.965 145.874 214.374C145.874 229.784 141.947 326.767 141.947 326.767Z" fill="#7C7C7C"/>
<path d="M181.846 325.041C182.263 328.229 182.044 331.467 181.201 334.569C180.359 337.671 178.91 340.575 176.937 343.113C174.965 345.652 172.509 347.774 169.712 349.357C166.914 350.94 163.83 351.952 160.639 352.336C157.448 352.72 154.212 352.467 151.119 351.592C148.026 350.717 145.137 349.237 142.619 347.239C140.102 345.24 138.005 342.762 136.452 339.948C134.898 337.134 133.917 334.04 133.567 330.845C133.567 330.845 120.91 241.941 117.908 223.98C114.906 206.019 118.083 190.985 138.195 186.708C159.058 182.28 172.09 197.564 173.666 212.874C175.242 228.183 181.846 325.041 181.846 325.041Z" fill="#7C7C7C"/>
<path d="M102.023 432.531C102.023 432.531 103.223 483.537 103.523 491.166C103.824 498.796 108.652 500.872 116.431 501.548C124.211 502.223 127.488 496.044 128.589 491.141C129.689 486.238 136.343 436.233 136.343 436.233L102.023 432.531Z" fill="#FBBEAA"/>
<path d="M102.898 468.102L131.59 471.179C133.817 455.395 136.343 436.158 136.343 436.158L102.023 432.456C102.023 432.456 102.473 451.567 102.898 468.102Z" fill="#F18380"/>
<path d="M141.947 326.767C141.907 323.574 141.239 320.42 139.981 317.485C138.723 314.55 136.899 311.892 134.613 309.662C132.327 307.432 129.625 305.674 126.66 304.489C123.695 303.303 120.525 302.713 117.332 302.753C114.139 302.792 110.985 303.46 108.05 304.718C105.115 305.977 102.457 307.801 100.227 310.087C97.9968 312.372 96.2389 315.075 95.0534 318.04C93.8679 321.005 93.278 324.175 93.3174 327.368L98.3204 469.535L137.569 473.763L141.947 326.767Z" fill="#7C7C7C"/>
<path d="M153.379 434.482C153.379 434.482 160.033 485.063 161.134 492.593C162.234 500.122 167.262 501.723 175.092 501.548C182.922 501.373 185.498 494.894 186.074 489.916C186.649 484.938 187.9 434.482 187.9 434.482H153.379Z" fill="#FBBEAA"/>
<path d="M158.182 469.754H187.049C187.55 453.844 188.025 434.482 188.025 434.482H153.379C153.379 434.482 155.88 453.344 158.182 469.754Z" fill="#F18380"/>
<path d="M181.846 325.041C181.016 318.691 177.713 312.924 172.655 308.995C167.598 305.065 161.194 303.29 154.835 304.054C148.476 304.819 142.676 308.061 138.694 313.077C134.711 318.093 132.869 324.478 133.567 330.845L155.33 474.538H194.804L181.846 325.041Z" fill="#7C7C7C"/>
<path d="M133.592 330.845L156.03 473.287" stroke="#565656" stroke-width="0.75" stroke-miterlimit="10" stroke-linecap="round"/>
<path d="M133.567 330.845C133.567 330.845 120.909 241.941 117.907 223.98" stroke="#565656" stroke-width="0.75" stroke-miterlimit="10" stroke-linecap="round"/>
<path d="M172.465 475.682C169.628 475.478 166.815 476.324 164.56 478.058C162.305 479.792 160.765 482.293 160.233 485.088L147.175 498.471V506.801H189.025C189.025 506.801 186.924 491.792 186.324 488.415C185.723 485.038 183.697 475.682 172.465 475.682Z" fill="#FBBEAA"/>
<path d="M160.258 484.988C159.783 484.337 159.108 483.837 158.632 484.137C158.157 484.437 145.524 494.443 144.924 494.944C144.554 495.291 144.275 495.723 144.109 496.202C143.943 496.682 143.897 497.194 143.973 497.695V508.427H189.951C189.951 508.427 188.15 492.567 188.025 491.692C187.9 490.816 187.024 489.665 186.524 489.691C183.368 490.657 180.093 491.179 176.793 491.241C172.407 491.474 168.032 490.614 164.061 488.74C162.588 487.716 161.302 486.447 160.258 484.988Z" fill="black"/>
<path d="M151.528 499.421C153.754 497.77 161.759 491.516 164.761 489.165L164.06 488.815C163.966 488.774 163.881 488.714 163.81 488.639C160.608 491.141 153.079 497.044 150.927 498.645C149.109 500.039 147.863 502.05 147.425 504.299L148.401 504.449C148.814 502.455 149.922 500.673 151.528 499.421Z" fill="white"/>
<path d="M188.701 497.495C185.46 497.528 182.325 498.647 179.795 500.672C177.509 502.698 175.96 505.425 175.392 508.427H176.743C177.296 505.826 178.663 503.469 180.646 501.698C182.974 499.833 185.868 498.818 188.851 498.821L188.701 497.495Z" fill="white"/>
<path d="M136.544 508.402H189.951C190.324 508.402 190.626 508.704 190.626 509.077V514.256C190.626 514.629 190.324 514.931 189.951 514.931H136.544C136.171 514.931 135.868 514.629 135.868 514.256V509.077C135.868 508.704 136.171 508.402 136.544 508.402Z" fill="white"/>
<path d="M145.049 494.843C144.574 494.643 142.247 495.319 139.22 498.296C137.96 499.598 137.053 501.201 136.585 502.951C136.116 504.702 136.102 506.544 136.544 508.302H151.728C150.878 498.696 145.524 495.044 145.049 494.843Z" fill="white"/>
<path d="M150.877 494.994C151.064 495.223 151.154 495.518 151.126 495.813C151.098 496.108 150.954 496.38 150.727 496.57C150.615 496.662 150.487 496.731 150.348 496.773C150.21 496.816 150.064 496.83 149.92 496.816C149.776 496.802 149.636 496.76 149.509 496.692C149.381 496.624 149.268 496.531 149.176 496.42L146.674 493.393C146.487 493.163 146.398 492.869 146.426 492.574C146.454 492.279 146.597 492.007 146.825 491.817C146.935 491.721 147.063 491.649 147.202 491.605C147.341 491.561 147.487 491.545 147.632 491.559C147.777 491.573 147.918 491.617 148.046 491.687C148.173 491.757 148.286 491.852 148.375 491.967L150.877 494.994Z" fill="white"/>
<path d="M153.854 492.717C154.042 492.946 154.131 493.241 154.103 493.536C154.075 493.831 153.931 494.103 153.704 494.293C153.594 494.388 153.465 494.46 153.327 494.504C153.188 494.549 153.041 494.564 152.896 494.55C152.751 494.536 152.611 494.493 152.483 494.423C152.355 494.353 152.243 494.257 152.153 494.143L149.651 491.116C149.47 490.884 149.385 490.591 149.412 490.298C149.44 490.005 149.58 489.734 149.802 489.54C149.912 489.445 150.04 489.373 150.179 489.328C150.318 489.284 150.464 489.269 150.609 489.283C150.754 489.297 150.895 489.34 151.023 489.41C151.15 489.48 151.263 489.575 151.353 489.69L153.854 492.717Z" fill="white"/>
<path d="M156.731 490.466C156.92 490.688 157.013 490.977 156.989 491.267C156.966 491.558 156.828 491.828 156.606 492.017C156.376 492.204 156.082 492.294 155.787 492.266C155.492 492.238 155.22 492.094 155.03 491.867L152.528 488.84C152.423 488.738 152.339 488.615 152.282 488.48C152.225 488.344 152.196 488.199 152.196 488.052C152.196 487.905 152.225 487.76 152.282 487.625C152.339 487.489 152.423 487.367 152.528 487.264C152.76 487.083 153.053 486.997 153.346 487.025C153.639 487.053 153.91 487.192 154.104 487.414L156.731 490.466Z" fill="white"/>
<path d="M159.633 488.19C159.725 488.301 159.794 488.43 159.836 488.569C159.878 488.707 159.893 488.852 159.879 488.996C159.865 489.14 159.823 489.28 159.755 489.408C159.687 489.536 159.594 489.649 159.482 489.741C159.272 489.947 158.989 490.063 158.694 490.063C158.4 490.063 158.117 489.947 157.906 489.741L155.405 486.689C155.217 486.459 155.128 486.165 155.156 485.87C155.184 485.575 155.328 485.303 155.555 485.113C155.667 485.021 155.795 484.952 155.934 484.909C156.072 484.867 156.218 484.852 156.362 484.866C156.506 484.88 156.646 484.922 156.773 484.991C156.901 485.059 157.014 485.151 157.106 485.263L159.633 488.19Z" fill="white"/>
<path d="M113.68 475.682C110.843 475.478 108.029 476.324 105.774 478.058C103.519 479.792 101.98 482.293 101.447 485.088L88.4145 498.471V506.801H130.24C130.24 506.801 128.164 491.792 127.538 488.415C126.913 485.038 124.912 475.682 113.68 475.682Z" fill="#FBBEAA"/>
<path d="M101.473 484.988C100.997 484.337 100.347 483.837 99.8466 484.137C99.3463 484.437 86.7387 494.443 86.1634 494.944C85.588 495.444 85.1877 496.069 85.1877 497.695V508.427H131.166C131.166 508.427 129.364 492.567 129.239 491.692C129.114 490.816 128.239 489.665 127.738 489.691C124.583 490.657 121.308 491.179 118.008 491.241C113.629 491.478 109.262 490.618 105.3 488.74C103.816 487.721 102.521 486.451 101.473 484.988Z" fill="black"/>
<path d="M92.7426 499.421C94.969 497.77 102.974 491.516 105.976 489.165L105.3 488.815C105.198 488.774 105.105 488.715 105.025 488.639C101.823 491.141 94.2935 497.044 92.1422 498.645C90.3236 500.039 89.0779 502.05 88.6401 504.299L89.6158 504.449C90.0405 502.46 91.1465 500.682 92.7426 499.421Z" fill="white"/>
<path d="M129.915 497.495C126.675 497.528 123.539 498.647 121.01 500.672C118.724 502.698 117.175 505.425 116.607 508.427H117.958C118.517 505.823 119.893 503.465 121.886 501.698C124.202 499.83 127.09 498.814 130.065 498.821L129.915 497.495Z" fill="white"/>
<path d="M77.7582 508.402H131.165C131.538 508.402 131.841 508.704 131.841 509.077V514.256C131.841 514.629 131.538 514.931 131.165 514.931H77.7582C77.3851 514.931 77.0827 514.629 77.0827 514.256V509.077C77.0827 508.704 77.3851 508.402 77.7582 508.402Z" fill="white"/>
<path d="M86.2634 494.843C85.7881 494.643 83.4617 495.319 80.4348 498.296C79.1746 499.598 78.2674 501.201 77.799 502.951C77.3307 504.702 77.3166 506.544 77.7582 508.302H92.9424C92.0919 498.696 86.7387 495.044 86.2634 494.843Z" fill="white"/>
<path d="M92.1924 494.994C92.3799 495.223 92.4693 495.518 92.4412 495.813C92.4131 496.108 92.2698 496.38 92.0423 496.57C91.9307 496.662 91.8019 496.731 91.6635 496.773C91.5251 496.816 91.3798 496.83 91.2357 496.816C91.0917 496.802 90.9518 496.76 90.824 496.692C90.6963 496.624 90.5832 496.531 90.4913 496.42L87.9898 493.393C87.8084 493.161 87.7229 492.868 87.7508 492.575C87.7787 492.282 87.9181 492.01 88.14 491.817C88.2502 491.721 88.3785 491.649 88.5173 491.605C88.6562 491.561 88.8026 491.545 88.9476 491.559C89.0926 491.573 89.2333 491.617 89.361 491.687C89.4888 491.757 89.6011 491.852 89.6909 491.967L92.1924 494.994Z" fill="white"/>
<path d="M95.0684 492.717C95.2559 492.947 95.3453 493.241 95.3172 493.536C95.2891 493.831 95.1458 494.103 94.9183 494.293C94.8081 494.389 94.6797 494.461 94.5409 494.505C94.4021 494.549 94.2557 494.565 94.1106 494.551C93.9656 494.537 93.825 494.493 93.6972 494.423C93.5694 494.353 93.4572 494.258 93.3674 494.143L90.8659 491.116C90.6845 490.884 90.5989 490.592 90.6269 490.298C90.6548 490.005 90.794 489.734 91.016 489.54C91.2455 489.353 91.5397 489.263 91.8348 489.292C92.1298 489.32 92.4019 489.463 92.5919 489.69L95.0684 492.717Z" fill="white"/>
<path d="M97.9461 490.466C98.0505 490.566 98.1336 490.687 98.1903 490.82C98.2471 490.953 98.2764 491.096 98.2764 491.241C98.2764 491.386 98.2471 491.529 98.1903 491.663C98.1336 491.796 98.0505 491.916 97.9461 492.017C97.7166 492.204 97.4223 492.294 97.1273 492.266C96.8322 492.237 96.5602 492.094 96.3702 491.867L93.8686 488.84C93.6812 488.61 93.5918 488.316 93.6199 488.021C93.648 487.726 93.7913 487.454 94.0187 487.264C94.1304 487.172 94.2591 487.103 94.3975 487.06C94.5359 487.018 94.6813 487.003 94.8253 487.017C94.9694 487.031 95.1093 487.073 95.237 487.141C95.3648 487.21 95.4778 487.302 95.5697 487.414L97.9461 490.466Z" fill="white"/>
<path d="M100.846 488.19C100.938 488.301 101.008 488.43 101.05 488.569C101.092 488.707 101.107 488.852 101.093 488.996C101.079 489.14 101.037 489.28 100.969 489.408C100.901 489.536 100.808 489.649 100.696 489.741C100.486 489.947 100.203 490.063 99.9083 490.063C99.6137 490.063 99.3307 489.947 99.1203 489.741L96.6188 486.689C96.4313 486.459 96.3419 486.165 96.37 485.87C96.3981 485.575 96.5414 485.303 96.7689 485.113C96.8805 485.021 97.0092 484.952 97.1476 484.909C97.286 484.867 97.4314 484.852 97.5755 484.866C97.7196 484.88 97.8595 484.922 97.9872 484.991C98.1149 485.059 98.2279 485.151 98.3198 485.263L100.846 488.19Z" fill="white"/>
<path d="M89.9259 199.972C89.9259 199.972 89.9259 225.913 89.9259 227.339C89.9259 228.765 102.433 240.997 119.044 240.997C144.584 240.997 175.152 231.666 174.702 225.588C174.402 221.585 172.045 199.972 172.045 199.972H89.9259Z" fill="#7C7C7C"/>
<path d="M108.501 90.5563C122.51 102.564 136.435 95.5593 141.021 89.3055L161.033 98.0608L156.03 190.617L89.7401 193.118L92.2417 104.315L108.501 90.5563Z" fill="white"/>
<path d="M89.8448 98.536C92.5214 96.785 109.857 86.7789 109.857 86.7789V218.709C107.935 220.581 107.542 220.537 104.782 220.224L104.654 220.21C98.6877 218.712 92.9316 216.477 87.5184 213.555C87.5184 213.555 85.217 117.598 84.6417 110.293C84.0663 102.989 87.1681 100.287 89.8448 98.536Z" fill="#002776"/>
<path d="M136.608 220.178C135.392 219.92 134.24 219.42 133.221 218.709L140.025 85.4281C140.025 85.4281 159.662 93.4079 164.89 95.7343C167.063 96.651 168.927 98.174 170.258 100.121C171.588 102.069 172.33 104.358 172.395 106.716C172.72 111.119 173.17 208.703 173.245 209.553C173.32 210.404 172.595 210.879 171.819 211.329C171.044 211.779 146.529 218.934 140.3 220.21C139.08 220.446 137.824 220.435 136.608 220.178Z" fill="#002776"/>
<g filter="url(#filter0_d_21_288)">
<rect width="45.2233" height="64.4432" rx="1" transform="matrix(-0.993463 -0.114154 -0.114154 0.993463 146.481 131.712)" fill="#EFEFEF"/>
</g>
<path d="M127.434 157.826C124.23 156.472 121.332 154.466 118.925 151.934C117.436 150.371 115.746 149.014 113.902 147.899C112.821 147.224 111.887 146.331 111.161 145.279C110.201 143.647 109.406 141.924 108.79 140.135C108.561 138.595 108.037 137.111 107.247 135.765C106.496 135.077 103.845 135.445 102.469 138.12C101.994 139.311 101.779 140.594 101.838 141.882C101.897 143.17 102.229 144.434 102.81 145.589C103.495 146.974 104.032 148.427 104.41 149.924L104.161 150.073C102.064 148.96 99.8228 148.153 97.5062 147.676C96.666 147.488 95.7908 147.589 95.0216 147.964C94.2524 148.338 93.634 148.964 93.266 149.74C92.898 150.517 92.8019 151.398 92.9931 152.243C93.1844 153.087 93.6519 153.846 94.3203 154.396C90.7053 154.811 91.1157 160.387 94.2191 161.124C93.5545 161.403 92.9936 161.882 92.612 162.495C92.2305 163.109 92.0468 163.828 92.0858 164.555C92.1248 165.282 92.3845 165.982 92.83 166.561C93.2754 167.139 93.885 167.568 94.5764 167.79C92.3722 169.822 93.9834 173.172 97.9858 173.186C101.238 173.517 109.935 174.878 112.961 175.53C115.987 176.181 122.069 174.74 124.023 175.345C126.931 176.41 130.309 176.428 132.885 168.775C135.461 161.123 130.427 158.815 127.434 157.826Z" fill="#FBBEAA"/>
<path d="M121.709 178.356L180.289 201.94C187.775 205.705 199.937 203.774 203.604 195.018C204.275 193.386 204.608 191.634 204.582 189.869C204.556 188.103 204.171 186.362 203.452 184.75C202.733 183.138 201.694 181.689 200.398 180.491C199.101 179.292 197.575 178.37 195.912 177.779L126.679 152.739L121.709 178.356Z" fill="#002776"/>
<defs>
<filter id="filter0_d_21_288" x="94.3042" y="126.657" width="54.0693" height="68.9694" filterUnits="userSpaceOnUse" color-interpolation-filters="sRGB">
<feFlood flood-opacity="0" result="BackgroundImageFix"/>
<feColorMatrix in="SourceAlpha" type="matrix" values="0 0 0 0 0 0 0 0 0 0 0 0 0 0 0 0 0 0 127 0" result="hardAlpha"/>
<feOffset dx="2"/>
<feComposite in2="hardAlpha" operator="out"/>
<feColorMatrix type="matrix" values="0 0 0 0 0.603922 0 0 0 0 0.6 0 0 0 0 0.631373 0 0 0 1 0"/>
<feBlend mode="normal" in2="BackgroundImageFix" result="effect1_dropShadow_21_288"/>
<feBlend mode="normal" in="SourceGraphic" in2="effect1_dropShadow_21_288" result="shape"/>
</filter>
<clipPath id="clip0_21_288">
<rect width="74.502" height="98.3427" fill="white" transform="matrix(-1 0 0 1 155.679 0.930908)"/>
</clipPath>
</defs>
</svg>
