<svg width="210" height="515" viewBox="0 0 210 515" fill="none" xmlns="http://www.w3.org/2000/svg">
<path d="M109.86 60.0525H140.209V95.7458H109.86V60.0525Z" fill="#FBBEAA"/>
<path d="M140.134 60.0525H109.885V79.9661C111.206 80.1302 112.536 80.2144 113.868 80.2182C124.303 80.2182 135.974 77.3698 140.234 67.413L140.134 60.0525Z" fill="#F18380"/>
<path d="M94.1802 33.5603C94.4323 43.8701 94.1802 52.012 96.0456 59.8766C97.9109 67.7412 103.608 74.169 116.211 74.169C128.815 74.169 143.183 70.0603 144.191 54.3058C146.258 52.0624 149.611 44.0717 149.737 35.1232C149.863 26.1746 149.157 7.24407 128.764 4.34525C108.372 1.44643 93.6256 8.93295 94.1802 33.5603Z" fill="#FBBEAA"/>
<path d="M104.843 41.677C104.843 43.0634 104.011 44.1977 102.977 44.1977C101.944 44.1977 101.112 43.0634 101.112 41.677C101.112 40.2906 101.944 39.1562 102.977 39.1562C104.011 39.1562 104.843 40.1897 104.843 41.677Z" fill="#403D4F"/>
<path d="M127.53 41.677C127.53 43.0634 126.698 44.1977 125.664 44.1977C124.631 44.1977 123.799 43.0634 123.799 41.677C123.799 40.2906 124.631 39.1562 125.664 39.1562C126.698 39.1562 127.53 40.1897 127.53 41.677Z" fill="#403D4F"/>
<path d="M122.967 36.4335C123.144 36.6604 124.48 36.4335 125.488 36.4335C126.496 36.4335 128.437 36.4335 128.437 36.2066C128.437 35.9798 127.479 34.4169 124.958 34.6942C123.144 34.8959 122.488 36.0302 122.967 36.4335Z" fill="#403D4F"/>
<path d="M105.272 36.4334C105.121 36.6603 103.987 36.4334 103.105 36.4334C102.222 36.4334 100.584 36.4334 100.584 36.2065C100.81 35.6352 101.237 35.1662 101.785 34.8877C102.333 34.6092 102.963 34.5403 103.558 34.6941C105.121 34.8958 105.55 36.0301 105.272 36.4334Z" fill="#403D4F"/>
<path d="M112.709 52.1126C110.944 52.1126 109.533 50.953 109.482 50.1212L110.062 43.0128C110.081 42.8366 110.168 42.6749 110.305 42.5619C110.441 42.4489 110.616 42.3937 110.793 42.4078C110.879 42.4142 110.963 42.4375 111.04 42.4765C111.118 42.5155 111.186 42.5693 111.242 42.6349C111.299 42.7005 111.341 42.7766 111.368 42.8587C111.395 42.9409 111.405 43.0275 111.398 43.1136L110.844 49.97C111.098 50.2462 111.412 50.462 111.761 50.6016C112.109 50.7412 112.485 50.801 112.86 50.7766C112.948 50.7697 113.037 50.7808 113.121 50.8091C113.204 50.8373 113.282 50.8823 113.347 50.9411C113.413 51 113.467 51.0716 113.504 51.1516C113.542 51.2316 113.563 51.3184 113.566 51.4068C113.566 51.5855 113.499 51.7578 113.377 51.8888C113.256 52.0198 113.089 52.0998 112.911 52.1126H112.709Z" fill="#F18380"/>
<path d="M138.728 38.2484C138.728 48.4197 143.769 44.6386 143.769 44.6386C145.03 40.8576 147.225 42.4835 150.112 42.4835C152.998 42.4835 152.627 40.3813 155.514 33.4494C157.823 27.9038 155.161 19.0922 153.429 16.9592C156.3 13.1983 152.407 10.9579 152.541 11.528C153.429 15.2863 150.352 11.509 148.811 10.0273C132.352 -5.7989 90.875 2.15199 90.875 2.15199L95.183 7.60347L84.5732 4.67276C84.5732 4.67276 85.2655 10.4136 87.0939 13.4953C88.6166 16.0618 92.2967 19.0922 92.2967 19.0922L80.7514 20.1586C80.7514 20.1586 88.2559 28.157 98.6466 29.2235C110.348 30.4245 122.892 24.9577 122.892 24.9577L118.274 30.2899C118.274 30.2899 129.946 27.9092 133.727 29.8799C136.145 31.1402 138.728 33.7014 138.728 38.2484Z" fill="#7D4A40"/>
<path d="M143.637 46.4663C143.763 43.5927 144.217 39.3579 148.3 39.257C152.384 39.1562 152.913 42.2315 152.787 47.0713C152.661 51.911 147.746 56.0198 143.435 54.3561L143.637 46.4663Z" fill="#FBBEAA"/>
<path d="M149.637 49.9447C149.46 49.9139 149.303 49.8145 149.199 49.6682C149.095 49.5218 149.053 49.3404 149.082 49.1633C149.082 49.0211 149.042 48.8817 148.966 48.7613C148.89 48.6409 148.782 48.5444 148.654 48.4827C148.396 48.3104 148.094 48.2184 147.784 48.2184C147.474 48.2184 147.172 48.3104 146.914 48.4827C146.803 48.5445 146.677 48.5769 146.549 48.5769C146.421 48.5769 146.295 48.5445 146.183 48.4827C146.081 48.4149 145.998 48.3204 145.945 48.2094C145.892 48.0985 145.87 47.9751 145.881 47.8525C146.234 43.7942 148.83 43.038 148.931 43.0128C149.017 42.9862 149.108 42.9777 149.197 42.9877C149.287 42.9977 149.373 43.0261 149.451 43.0711C149.529 43.116 149.597 43.1765 149.651 43.2489C149.704 43.3213 149.743 43.4039 149.763 43.4917C149.809 43.6588 149.788 43.8376 149.703 43.9888C149.618 44.14 149.476 44.2513 149.309 44.2983C148.806 44.5263 148.367 44.8761 148.032 45.3162C147.698 45.7563 147.478 46.2728 147.393 46.8191C148.084 46.7065 148.792 46.8499 149.385 47.2224C149.73 47.4248 150.009 47.7231 150.188 48.0811C150.367 48.439 150.438 48.8413 150.393 49.2389C150.397 49.3371 150.38 49.4351 150.343 49.5261C150.306 49.6171 150.249 49.6989 150.177 49.766C150.106 49.833 150.02 49.8838 149.927 49.9146C149.833 49.9455 149.734 49.9557 149.637 49.9447Z" fill="#F18380"/>
<path d="M114.447 61.1877C116.88 61.0938 119.217 60.2088 121.102 58.667" stroke="#73102A" stroke-width="0.5" stroke-miterlimit="10" stroke-linecap="round"/>
<path d="M114.362 56.7263C117.891 55.5668 121.925 54.2056 123.311 55.8441C124.395 56.9532 122.933 62.1711 117.513 63.0785C112.094 63.986 110.153 60.2553 110.43 58.8185C110.607 57.9363 111.59 57.659 114.362 56.7263Z" fill="#73102A"/>
<path d="M123.185 55.7688H123.311C124.395 56.8779 122.933 62.0958 117.513 63.0033C116.336 63.2766 115.111 63.2766 113.934 63.0033C114.847 61.1897 116.15 59.6005 117.749 58.3498C119.348 57.099 121.205 56.2176 123.185 55.7688Z" fill="#D65155"/>
<path d="M121.924 55.214C120.496 56.7659 118.683 57.9122 116.668 58.5364C114.654 59.1607 112.51 59.2406 110.455 58.7682C110.656 57.9111 111.665 57.6338 114.362 56.7264C116.755 55.7202 119.327 55.2058 121.924 55.214Z" fill="white"/>
<path d="M170.744 98.496C176.347 105.7 208.763 193.742 208.763 193.742C178.748 184.138 181.565 158.18 165.24 160.926C165.24 160.926 146.416 116.744 145.698 112.791C144.948 109.675 145.284 106.397 146.652 103.498C148.02 100.599 150.336 98.2548 153.218 96.8524C161.252 92.7457 165.142 91.2923 170.744 98.496Z" fill="#002366"/>
<path d="M27.4639 92.2905C27.3402 89.5891 28.0634 86.9167 29.5323 84.6463C31.7939 82.024 33.4882 78.962 34.5086 75.653C35.2936 72.5814 36.5474 69.649 38.2259 66.9594C39.425 65.3107 41.2236 63.9617 41.2236 62.7027C41.2236 61.4436 38.8254 59.0154 35.408 59.7049C33.9442 60.1609 32.5992 60.9348 31.4694 61.9713C30.3396 63.0078 29.4529 64.2812 28.8728 65.7004C28.5454 64.8357 28.3534 63.9257 28.3033 63.0025L27.5539 44.6262C27.5425 44.1498 27.4357 43.6805 27.24 43.2461C27.0442 42.8116 26.7634 42.4208 26.4141 42.0967C26.0648 41.7725 25.6541 41.5216 25.2063 41.3588C24.7585 41.196 24.2826 41.1246 23.8067 41.1488C23.049 41.1811 22.3204 41.4501 21.7236 41.9179C21.1267 42.3857 20.6915 43.0288 20.4791 43.7568V42.9175C20.3638 42.0241 19.9149 41.2075 19.2224 40.6315C18.5299 40.0556 17.6451 39.7628 16.7457 39.8121C15.8464 39.8615 14.999 40.2492 14.3736 40.8975C13.7483 41.5458 13.3914 42.4066 13.3745 43.3072V45.8553C13.0742 45.0697 12.5017 44.4181 11.7612 44.0194C11.0208 43.6206 10.1617 43.5012 9.34055 43.6829C8.51941 43.8646 7.79087 44.3352 7.28774 45.0091C6.7846 45.683 6.54034 46.5153 6.5995 47.3542V48.9729C6.27684 48.4059 5.79601 47.9451 5.21571 47.647C4.63541 47.3489 3.98082 47.2263 3.33196 47.2942C2.44339 47.4069 1.63366 47.8612 1.07413 48.5606C0.514591 49.26 0.249187 50.1497 0.334202 51.0414L1.80307 66.5398C2.76533 75.2776 4.57249 83.9015 7.19909 92.2905C7.23085 93.6912 7.55535 95.0697 8.15171 96.3375C8.74808 97.6053 9.6031 98.7343 10.6619 99.6519C11.7206 100.569 12.9597 101.255 14.2994 101.665C15.639 102.076 17.0497 102.201 18.4407 102.033C19.6995 102.075 20.9525 101.846 22.115 101.361C23.2774 100.876 24.3219 100.147 25.1778 99.223C26.0336 98.2989 26.6807 97.2016 27.0751 96.0055C27.4696 94.8093 27.6021 93.5424 27.4639 92.2905Z" fill="#FBBEAA"/>
<path d="M26.8644 68.3088C28.0035 68.3088 28.0934 67.5894 28.603 66.2704C26.0549 66.2704 18.6505 66.75 15.4129 72.9853C18.6805 68.4887 24.9458 68.3088 26.8644 68.3088ZM21.0487 44.5966C21.0487 44.5966 21.2286 45.6458 21.4084 47.1747C21.4084 47.9541 21.5884 48.8834 21.6483 49.8426C21.7083 50.8019 21.7982 51.8511 21.8881 52.8404C21.8881 54.9388 22.0379 57.0073 22.0379 58.5661C22.0379 60.125 22.0379 61.1742 22.0379 61.1742C22.0381 61.224 22.0279 61.2734 22.008 61.3192C21.9881 61.3649 21.9589 61.4059 21.9222 61.4397C21.8856 61.4736 21.8423 61.4995 21.7951 61.5157C21.748 61.5319 21.698 61.538 21.6483 61.5339C21.564 61.5296 21.4832 61.4981 21.4183 61.444C21.3534 61.39 21.3079 61.3164 21.2885 61.2342C21.2885 61.2342 21.1087 60.1849 20.9588 58.626C20.8089 57.0672 20.5691 54.9988 20.4791 52.9303C20.4791 51.8811 20.4791 50.8319 20.4791 49.9326C20.4791 49.0332 20.4791 48.044 20.4791 47.2646C20.4791 45.6758 20.4791 44.6565 20.4791 44.6565C20.479 44.6066 20.4891 44.5573 20.5091 44.5116C20.529 44.4659 20.5582 44.4247 20.5949 44.3909C20.6315 44.3571 20.6748 44.3313 20.7219 44.3151C20.7691 44.2989 20.8192 44.2926 20.8689 44.2968C20.9263 44.3298 20.9735 44.3782 21.0053 44.4364C21.037 44.4946 21.052 44.5604 21.0487 44.6266V44.5966ZM14.0939 46.695C14.0939 46.695 14.2738 47.5943 14.4836 48.9134C14.4836 49.6028 14.6935 50.3822 14.7834 51.2216C14.8734 52.061 14.9633 52.9603 15.0532 53.8596C15.0532 55.6583 15.263 57.4569 15.293 58.8059C15.323 60.1549 15.293 61.0842 15.293 61.0842C15.2892 61.1315 15.2761 61.1776 15.2545 61.2198C15.2328 61.262 15.2031 61.2996 15.1668 61.3302C15.1306 61.3609 15.0886 61.3841 15.0434 61.3985C14.9982 61.4129 14.9506 61.4181 14.9034 61.414C14.8227 61.4084 14.7463 61.3757 14.6864 61.3214C14.6266 61.267 14.5868 61.194 14.5736 61.1142C14.5736 61.1142 14.3937 60.2148 14.1838 58.8958C13.974 57.5768 13.7941 55.7482 13.6443 53.9796C13.6443 53.0802 13.6443 52.1809 13.4644 51.3415C13.2845 50.5022 13.4644 49.6928 13.4644 49.0033C13.4644 47.6543 13.4644 46.755 13.4644 46.755C13.4642 46.7051 13.4744 46.6558 13.4943 46.6101C13.5142 46.5643 13.5435 46.5232 13.5801 46.4894C13.6168 46.4556 13.66 46.4298 13.7072 46.4135C13.7544 46.3973 13.8044 46.3911 13.8541 46.3952C13.9206 46.4227 13.9782 46.468 14.0205 46.5263C14.0629 46.5845 14.0883 46.6532 14.0939 46.725V46.695ZM7.37896 49.5429C7.37896 49.5429 7.55878 50.2923 7.7986 51.4315C7.7986 51.9711 8.03847 52.6306 8.1284 53.3501C8.21833 54.0695 8.3382 54.8189 8.45811 55.5684C8.66795 57.0972 8.75796 58.5661 8.81792 59.7652C8.87787 60.9643 8.81792 61.6838 8.81792 61.6838C8.81809 61.7337 8.80783 61.783 8.78791 61.8287C8.76799 61.8745 8.73875 61.9156 8.7021 61.9494C8.66545 61.9832 8.62219 62.009 8.57503 62.0252C8.52786 62.0414 8.4779 62.0477 8.4282 62.0435C8.35166 62.0396 8.27838 62.0112 8.21906 61.9627C8.15975 61.9141 8.11745 61.848 8.0984 61.7737C8.0984 61.7737 7.8886 61.0243 7.67876 59.9152C7.46891 58.806 7.16911 57.2471 6.98924 55.7482C6.98924 54.9688 6.83933 54.2194 6.77938 53.4999C6.71942 52.7805 6.77938 52.121 6.77938 51.5514C6.77938 50.4122 6.77938 49.6328 6.77938 49.6328C6.7792 49.5829 6.78946 49.5336 6.80938 49.4879C6.82931 49.4422 6.85846 49.401 6.8951 49.3672C6.93175 49.3334 6.9751 49.3076 7.02227 49.2914C7.06943 49.2752 7.1194 49.2689 7.1691 49.2731C7.22444 49.3039 7.27209 49.3469 7.30843 49.3989C7.34477 49.4508 7.36889 49.5103 7.37896 49.5729V49.5429Z" fill="#F18380"/>
<path d="M99.9901 90.021L34.6556 134.085C34.9305 136.339 29.6359 90.021 29.6359 90.021L5.45325 92.2782C5.45325 92.2782 6.86602 139.436 10.4248 164.341C11.8371 174.225 20.0639 177.973 29.8188 175.845C34.635 174.794 39.1692 172.818 43.204 169.986C60.542 157.816 109.183 123.539 113.16 119.227C120.021 111.787 120.021 106.214 116.078 100.089C112.135 93.9642 103.697 89.1009 99.9901 90.021Z" fill="#001A4B"/>
<path d="M182.089 323.627C182.507 326.825 182.287 330.074 181.442 333.186C180.596 336.299 179.142 339.213 177.163 341.759C175.185 344.306 172.72 346.435 169.913 348.024C167.106 349.612 164.012 350.628 160.81 351.013C157.608 351.398 154.361 351.144 151.258 350.266C148.154 349.388 145.256 347.904 142.73 345.899C140.204 343.893 138.1 341.407 136.542 338.584C134.983 335.76 133.999 332.656 133.647 329.45C133.647 329.45 120.947 240.247 117.935 222.226C114.923 204.205 118.111 189.12 138.291 184.828C159.223 180.386 172.3 195.721 173.881 211.082C175.463 226.443 182.089 323.627 182.089 323.627Z" fill="#93929C"/>
<path d="M142.056 325.358C142.135 331.829 139.642 338.066 135.123 342.698C130.604 347.329 124.431 349.976 117.96 350.056C111.49 350.136 105.253 347.642 100.621 343.123C95.9896 338.605 93.3426 332.431 93.2627 325.961C93.2627 325.961 90.1755 235.905 89.1214 217.658C88.0672 199.411 92.836 184.778 113.367 182.67C134.651 180.486 145.996 197.127 145.996 212.588C145.996 228.049 142.056 325.358 142.056 325.358Z" fill="#93929C"/>
<path d="M101.998 431.478C101.998 431.478 103.202 482.655 103.503 490.31C103.805 497.966 108.649 500.049 116.455 500.726C124.261 501.404 127.548 495.205 128.653 490.285C129.757 485.366 136.434 435.192 136.434 435.192L101.998 431.478Z" fill="#FBBEAA"/>
<path d="M102.876 467.169L131.665 470.256C133.899 454.418 136.434 435.117 136.434 435.117L101.998 431.402C101.998 431.402 102.449 450.578 102.876 467.169Z" fill="#F18380"/>
<path d="M142.056 325.359C142.016 322.155 141.346 318.991 140.083 316.046C138.821 313.101 136.991 310.434 134.697 308.196C132.404 305.959 129.692 304.195 126.717 303.006C123.742 301.816 120.562 301.224 117.358 301.264C114.154 301.303 110.99 301.973 108.045 303.236C105.1 304.499 102.433 306.329 100.195 308.622C97.958 310.916 96.1942 313.627 95.0047 316.602C93.8152 319.577 93.2233 322.758 93.2629 325.961L98.2827 468.606L137.663 472.848L142.056 325.359Z" fill="#93929C"/>
<path d="M153.526 433.436C153.526 433.436 160.202 484.186 161.306 491.741C162.411 499.296 167.456 500.902 175.312 500.727C183.168 500.551 185.753 494.05 186.33 489.055C186.908 484.061 188.163 433.436 188.163 433.436H153.526Z" fill="#FBBEAA"/>
<path d="M158.345 468.825H187.31C187.812 452.862 188.289 433.436 188.289 433.436H153.526C153.526 433.436 156.036 452.36 158.345 468.825Z" fill="#F18380"/>
<path d="M182.089 323.627C181.256 317.255 177.942 311.469 172.867 307.526C167.793 303.584 161.368 301.802 154.987 302.569C148.607 303.336 142.787 306.589 138.792 311.622C134.796 316.656 132.948 323.062 133.648 329.45L155.484 473.626H195.09L182.089 323.627Z" fill="#93929C"/>
<path d="M133.673 329.45L156.187 472.371" stroke="#676767" stroke-width="0.75" stroke-miterlimit="10" stroke-linecap="round"/>
<path d="M133.647 329.45C133.647 329.45 120.947 240.247 117.935 222.226" stroke="#676767" stroke-width="0.75" stroke-miterlimit="10" stroke-linecap="round"/>
<path d="M172.677 474.774C169.83 474.57 167.007 475.418 164.745 477.158C162.482 478.897 160.937 481.407 160.403 484.211L147.302 497.639V505.997H189.292C189.292 505.997 187.184 490.938 186.582 487.549C185.979 484.161 183.946 474.774 172.677 474.774Z" fill="#FBBEAA"/>
<path d="M160.428 484.111C159.952 483.458 159.274 482.956 158.797 483.257C158.32 483.558 145.645 493.598 145.043 494.1C144.672 494.448 144.391 494.882 144.225 495.363C144.059 495.844 144.012 496.358 144.089 496.861V507.629H190.221C190.221 507.629 188.414 491.716 188.289 490.837C188.163 489.959 187.285 488.804 186.783 488.829C183.616 489.799 180.33 490.323 177.019 490.385C172.618 490.619 168.229 489.756 164.244 487.875C162.766 486.848 161.476 485.574 160.428 484.111Z" fill="#2E70AC"/>
<path d="M151.669 498.593C153.903 496.936 161.934 490.661 164.946 488.302L164.244 487.951C164.149 487.91 164.063 487.85 163.993 487.775C160.78 490.285 153.225 496.208 151.066 497.815C149.242 499.213 147.992 501.231 147.553 503.487L148.531 503.638C148.945 501.637 150.058 499.849 151.669 498.593Z" fill="#1E2173"/>
<path d="M188.966 496.66C185.715 496.693 182.569 497.816 180.031 499.848C177.737 501.88 176.183 504.617 175.613 507.628H176.969C177.523 505.019 178.895 502.654 180.884 500.877C183.22 499.006 186.124 497.988 189.117 497.99L188.966 496.66Z" fill="#1E2173"/>
<path d="M136.635 507.604H190.221C190.596 507.604 190.899 507.907 190.899 508.282V513.477C190.899 513.851 190.596 514.155 190.221 514.155H136.635C136.26 514.155 135.957 513.851 135.957 513.477V508.282C135.957 507.907 136.26 507.604 136.635 507.604Z" fill="white"/>
<path d="M145.168 494C144.691 493.799 142.357 494.477 139.32 497.463C138.056 498.77 137.145 500.378 136.675 502.135C136.205 503.892 136.191 505.739 136.634 507.503H151.87C151.016 497.865 145.645 494.2 145.168 494Z" fill="white"/>
<path d="M151.016 494.151C151.204 494.381 151.294 494.676 151.266 494.972C151.238 495.268 151.094 495.541 150.866 495.732C150.754 495.824 150.625 495.894 150.486 495.936C150.347 495.979 150.201 495.993 150.056 495.979C149.912 495.965 149.771 495.923 149.643 495.855C149.515 495.786 149.402 495.694 149.31 495.581L146.8 492.544C146.612 492.314 146.522 492.019 146.55 491.723C146.578 491.427 146.722 491.154 146.95 490.963C147.061 490.867 147.19 490.795 147.329 490.751C147.468 490.706 147.615 490.691 147.761 490.705C147.906 490.719 148.047 490.762 148.175 490.833C148.304 490.903 148.416 490.999 148.506 491.114L151.016 494.151Z" fill="white"/>
<path d="M154.003 491.866C154.191 492.097 154.28 492.392 154.252 492.688C154.224 492.984 154.08 493.257 153.852 493.448C153.741 493.543 153.613 493.616 153.473 493.66C153.334 493.704 153.187 493.72 153.042 493.706C152.896 493.692 152.755 493.648 152.627 493.578C152.499 493.508 152.386 493.412 152.296 493.297L149.786 490.26C149.604 490.027 149.518 489.734 149.546 489.439C149.574 489.145 149.714 488.873 149.937 488.679C150.047 488.583 150.176 488.511 150.315 488.466C150.455 488.422 150.601 488.406 150.747 488.421C150.892 488.435 151.034 488.478 151.162 488.548C151.29 488.619 151.403 488.714 151.493 488.829L154.003 491.866Z" fill="white"/>
<path d="M156.889 489.608C157.079 489.831 157.172 490.12 157.149 490.412C157.125 490.704 156.987 490.974 156.764 491.164C156.534 491.352 156.238 491.442 155.942 491.414C155.646 491.385 155.373 491.242 155.183 491.013L152.673 487.976C152.567 487.873 152.483 487.75 152.426 487.615C152.369 487.479 152.339 487.333 152.339 487.186C152.339 487.038 152.369 486.892 152.426 486.757C152.483 486.621 152.567 486.498 152.673 486.395C152.906 486.213 153.199 486.127 153.493 486.155C153.788 486.183 154.06 486.323 154.254 486.546L156.889 489.608Z" fill="white"/>
<path d="M159.801 487.324C159.894 487.436 159.963 487.565 160.005 487.704C160.048 487.843 160.063 487.988 160.049 488.133C160.035 488.278 159.992 488.418 159.924 488.546C159.856 488.674 159.763 488.788 159.651 488.88C159.439 489.087 159.156 489.203 158.86 489.203C158.564 489.203 158.28 489.087 158.069 488.88L155.559 485.818C155.371 485.587 155.282 485.292 155.31 484.996C155.338 484.7 155.482 484.427 155.71 484.237C155.822 484.144 155.951 484.075 156.09 484.032C156.229 483.99 156.375 483.975 156.519 483.989C156.664 484.003 156.804 484.045 156.932 484.114C157.06 484.182 157.174 484.275 157.266 484.387L159.801 487.324Z" fill="white"/>
<path d="M113.693 474.774C110.847 474.57 108.024 475.418 105.761 477.158C103.499 478.897 101.954 481.407 101.42 484.211L88.3433 497.639V505.997H130.309C130.309 505.997 128.226 490.938 127.598 487.549C126.971 484.161 124.963 474.774 113.693 474.774Z" fill="#FBBEAA"/>
<path d="M101.445 484.111C100.968 483.458 100.316 482.956 99.8137 483.257C99.3117 483.558 86.6617 493.598 86.0844 494.1C85.5071 494.602 85.1055 495.23 85.1055 496.861V507.629H131.238C131.238 507.629 129.431 491.716 129.305 490.837C129.18 489.959 128.301 488.804 127.799 488.829C124.633 489.799 121.347 490.323 118.036 490.385C113.643 490.623 109.26 489.76 105.285 487.875C103.796 486.853 102.497 485.579 101.445 484.111Z" fill="#2E70AC"/>
<path d="M92.6855 498.593C94.9193 496.936 102.951 490.661 105.963 488.302L105.285 487.951C105.183 487.911 105.089 487.851 105.009 487.775C101.796 490.285 94.2416 496.208 92.083 497.815C90.2583 499.213 89.0085 501.231 88.5692 503.487L89.5481 503.638C89.9743 501.642 91.0839 499.858 92.6855 498.593Z" fill="#1E2173"/>
<path d="M129.983 496.66C126.732 496.693 123.585 497.816 121.047 499.848C118.753 501.88 117.2 504.617 116.63 507.628H117.985C118.546 505.016 119.927 502.65 121.926 500.877C124.25 499.002 127.148 497.984 130.133 497.99L129.983 496.66Z" fill="#1E2173"/>
<path d="M77.6516 507.604H131.238C131.613 507.604 131.916 507.907 131.916 508.282V513.477C131.916 513.851 131.613 514.155 131.238 514.155H77.6516C77.2773 514.155 76.9739 513.851 76.9739 513.477V508.282C76.9739 507.907 77.2773 507.604 77.6516 507.604Z" fill="white"/>
<path d="M86.1848 494C85.7079 493.799 83.3736 494.477 80.3366 497.463C79.0722 498.77 78.1619 500.378 77.692 502.135C77.2221 503.892 77.2079 505.739 77.651 507.503H92.8862C92.0329 497.865 86.6617 494.2 86.1848 494Z" fill="white"/>
<path d="M92.1335 494.151C92.3216 494.381 92.4113 494.676 92.3831 494.972C92.3549 495.268 92.2111 495.541 91.9829 495.732C91.8709 495.824 91.7417 495.894 91.6028 495.936C91.4639 495.979 91.3181 495.993 91.1736 495.979C91.029 495.965 90.8886 495.923 90.7605 495.855C90.6323 495.786 90.5189 495.694 90.4267 495.581L87.9167 492.544C87.7347 492.312 87.6489 492.018 87.6769 491.724C87.7049 491.43 87.8447 491.157 88.0674 490.963C88.1779 490.867 88.3067 490.795 88.446 490.751C88.5853 490.706 88.7322 490.691 88.8777 490.705C89.0233 490.719 89.1644 490.762 89.2926 490.833C89.4208 490.903 89.5334 490.999 89.6235 491.114L92.1335 494.151Z" fill="white"/>
<path d="M95.0197 491.866C95.2078 492.096 95.2975 492.392 95.2693 492.688C95.2411 492.984 95.0973 493.257 94.8691 493.447C94.7586 493.543 94.6297 493.615 94.4904 493.66C94.3511 493.704 94.2042 493.72 94.0587 493.706C93.9132 493.692 93.7721 493.648 93.6439 493.578C93.5157 493.507 93.4031 493.412 93.313 493.297L90.8031 490.26C90.621 490.027 90.5352 489.733 90.5632 489.439C90.5912 489.145 90.731 488.873 90.9536 488.679C91.184 488.49 91.4792 488.401 91.7752 488.429C92.0713 488.457 92.3442 488.601 92.5349 488.829L95.0197 491.866Z" fill="white"/>
<path d="M97.9059 489.608C98.0107 489.708 98.094 489.829 98.151 489.963C98.2079 490.096 98.2373 490.24 98.2373 490.386C98.2373 490.531 98.2079 490.675 98.151 490.808C98.094 490.942 98.0107 491.063 97.9059 491.164C97.6756 491.352 97.3804 491.441 97.0844 491.413C96.7883 491.385 96.5154 491.241 96.3247 491.013L93.8148 487.976C93.6267 487.746 93.5369 487.451 93.5651 487.154C93.5933 486.858 93.7371 486.585 93.9654 486.395C94.0774 486.302 94.2066 486.233 94.3454 486.19C94.4843 486.148 94.6301 486.133 94.7747 486.147C94.9192 486.161 95.0596 486.204 95.1878 486.272C95.3159 486.34 95.4294 486.433 95.5216 486.545L97.9059 489.608Z" fill="white"/>
<path d="M100.817 487.324C100.91 487.436 100.979 487.565 101.022 487.704C101.064 487.843 101.079 487.988 101.065 488.133C101.051 488.278 101.008 488.418 100.94 488.546C100.872 488.674 100.779 488.788 100.667 488.88C100.455 489.087 100.172 489.203 99.876 489.203C99.5803 489.203 99.2965 489.087 99.0854 488.88L96.5754 485.818C96.3873 485.587 96.2976 485.292 96.3258 484.996C96.354 484.7 96.4978 484.427 96.726 484.237C96.838 484.144 96.9672 484.075 97.106 484.032C97.2449 483.99 97.3908 483.975 97.5353 483.989C97.6799 484.003 97.8203 484.045 97.9484 484.114C98.0766 484.182 98.19 484.275 98.2822 484.387L100.817 487.324Z" fill="white"/>
<path d="M89.8602 198.138C89.8602 198.138 89.8602 224.165 89.8602 225.596C89.8602 227.027 102.193 239.3 118.572 239.3C143.756 239.3 173.899 229.938 173.455 223.839C173.159 219.823 172.789 198.138 172.789 198.138H89.8602Z" fill="#93929C"/>
<path d="M107.865 86.263C107.865 86.263 92.4642 94.6033 89.7786 96.3602C87.093 98.1172 83.9807 100.828 84.558 108.157C85.1352 115.486 87.4444 213.096 87.4444 213.096C93.7391 213.096 104.637 213.096 104.637 213.096H111.765C111.765 213.096 116.477 213.096 119.496 213.096C124.887 213.096 133.301 213.096 133.301 213.096H136.699H140.404C140.404 213.096 171.25 213.548 172.029 213.096C173.165 213.096 175.513 213.954 175.513 213.096C175.438 212.243 172.932 108.985 172.606 104.568C172.541 102.202 171.797 99.9049 170.462 97.9509C169.126 95.997 167.257 94.4689 165.076 93.5491C159.83 91.2149 144.154 85.1632 144.154 85.1632C144.154 85.1632 129.784 103.282 120.649 99.8024C114.748 97.5549 107.865 86.263 107.865 86.263Z" fill="#002366"/>
<path d="M175.345 206.884L175.634 214.934C175.634 214.934 143.546 217.153 124.35 217.088C106.671 217.027 87.4642 215.166 87.4642 215.166L87.3037 207.925C87.3037 207.925 107.869 208.82 126.295 208.82C151.097 208.82 175.345 206.884 175.345 206.884Z" fill="#00163F"/>
<path d="M97.493 85.878C95.0746 95.2995 109.866 103.748 122.927 100.311C109.179 91.3749 109.866 85.8756 109.866 85.8756V76.2517C105.742 75.5643 99.0152 79.948 97.493 85.878Z" fill="#001A4B"/>
<path d="M140.112 72.8148C144.237 72.1274 157.585 73.5229 162.109 81.0636C164.172 84.5008 159.919 91.344 159.919 91.344C159.919 91.344 159.616 91.344 155.327 89.7411C151.89 97.3029 134.613 103.748 121.942 100.382C140.112 90.6877 140.112 85.8751 140.112 85.8751V72.8148Z" fill="#001A4B"/>
<path d="M103.471 148.848L106.574 149.147L106.194 153.092L109.505 153.411L109.885 149.465L112.988 149.764L111.949 160.545L108.847 160.246L109.258 155.977L105.946 155.658L105.535 159.927L102.432 159.628L103.47 148.848L103.471 148.848ZM124.06 150.83L123.022 161.611L120.024 161.322L120.816 153.097L118.852 152.908L118.554 156.002C118.42 157.393 118.151 159.086 117.233 159.966C116.305 160.954 114.718 161.128 112.994 160.635L113.251 157.962C114.871 158.445 115.351 157.838 115.557 155.704L116.102 150.044L124.062 150.811L124.06 150.83ZM126.651 151.08L129.754 151.379L130.892 157.951L133.264 151.717L136.367 152.015L136.78 162.936L133.886 162.657L133.721 156.82L131.504 162.427L129.436 162.228L128.341 156.302L127.064 162L124.17 161.721L126.65 151.079L126.651 151.08ZM138.957 152.265L142.06 152.564L141.638 156.941L145.058 152.852L148.474 153.181L144.032 158.139L147.541 163.972L143.821 163.614L141.453 158.968L141.031 163.345L137.928 163.047L138.967 152.266L138.957 152.265L138.957 152.265ZM126.718 139.445C108.101 137.652 95.1171 143.408 94.1309 153.65C93.1541 163.794 104.783 172.02 123.408 173.813C142.128 175.616 155.019 169.742 155.995 159.608C156.981 149.366 145.447 141.248 126.718 139.445ZM123.562 172.217C106.075 170.533 95.0009 163.113 95.8957 153.82C96.7999 144.43 109.087 139.358 126.564 141.041C144.146 142.734 155.144 150.039 154.239 159.439C153.344 168.731 141.153 173.911 123.562 172.217ZM126.42 142.539C109.977 140.955 98.4631 145.559 97.6513 153.989C96.8394 162.42 107.263 169.136 123.706 170.719C140.149 172.303 151.663 167.699 152.474 159.269C153.296 150.839 142.873 144.123 126.42 142.539ZM123.736 170.406C107.492 168.842 97.1724 162.245 97.9636 154.029C98.7546 145.814 110.153 141.309 126.388 142.872C142.622 144.435 152.951 151.033 152.16 159.248C151.379 167.465 139.98 171.971 123.736 170.406L123.736 170.406Z" fill="white"/>
<path d="M154.63 140.1C150.087 135.506 141.591 125.599 138.716 123.186C135.874 121.044 132.769 119.276 129.476 117.924C126.978 117.088 124.396 116.528 121.776 116.256C119.954 116.025 119.21 116.564 119.21 117.668C119.255 118.325 119.465 118.961 119.819 119.517C120.173 120.072 120.661 120.531 121.237 120.85H117.875C116.72 120.85 115.976 121.774 116.515 123.263C117.004 124.247 117.704 125.11 118.564 125.794C119.425 126.477 120.425 126.962 121.494 127.216C121.494 127.216 116.951 127.652 115.796 127.883C114.641 128.114 114.282 128.55 114.282 129.654C114.291 130.416 114.503 131.163 114.896 131.816C115.288 132.47 115.847 133.008 116.515 133.376C118.15 134.039 119.885 134.421 121.648 134.505C121.648 134.505 116.027 135.917 114.898 136.327C113.768 136.738 113.64 137.482 114.23 138.458C114.567 139.145 115.052 139.748 115.652 140.223C116.251 140.698 116.949 141.033 117.695 141.204C119.826 141.769 121.263 140.845 122.033 140.973C123.687 141.506 125.307 142.14 126.884 142.872C129.251 145.23 132.146 146.989 135.328 148.006C137.697 149 139.87 150.408 141.745 152.164C142.618 152.984 143.647 153.62 144.771 154.035C145.895 154.45 147.09 154.635 148.286 154.58C149.483 154.525 150.656 154.231 151.737 153.714C152.818 153.198 153.784 152.47 154.578 151.574C158.685 147.21 157.992 143.565 154.63 140.1Z" fill="#FBBEAA"/>
<path d="M139.528 155.724L180.847 202.187C185.798 208.786 197.369 212.413 204.438 206.299C205.746 205.153 206.807 203.754 207.557 202.187C208.307 200.619 208.731 198.915 208.804 197.179C208.876 195.442 208.594 193.709 207.977 192.084C207.359 190.46 206.417 188.978 205.21 187.728L155.136 135.314L139.528 155.724Z" fill="#002366"/>
<path d="M121.802 120.876C121.794 120.918 121.796 120.962 121.807 121.004C121.817 121.045 121.836 121.085 121.863 121.118C121.89 121.152 121.923 121.18 121.961 121.2C121.999 121.22 122.041 121.232 122.084 121.235L124.189 121.441H125.215C125.575 121.441 125.908 121.569 126.268 121.595C126.647 121.709 127.017 121.854 127.371 122.031L128.552 122.519C130.143 123.16 131.735 123.751 132.915 124.187C134.096 124.623 134.917 124.88 134.917 124.88C134.983 124.907 135.056 124.91 135.122 124.886C135.189 124.862 135.244 124.814 135.277 124.752C135.325 124.689 135.351 124.612 135.351 124.534C135.351 124.455 135.325 124.378 135.277 124.315L133.352 123.314L131.35 122.365C130.631 122.031 129.835 121.697 129.04 121.389L127.833 120.927C127.445 120.752 127.041 120.614 126.627 120.517L125.395 120.388H124.343H122.777H122.187C122.122 120.337 122.04 120.314 121.958 120.324C121.876 120.333 121.801 120.375 121.75 120.44C121.699 120.504 121.676 120.587 121.686 120.668C121.695 120.75 121.737 120.825 121.802 120.876ZM122.289 127.062H122.751C123.136 127.027 123.522 127.027 123.906 127.062L124.702 127.19C124.995 127.227 125.287 127.278 125.575 127.344L127.32 127.909C128.501 128.294 129.656 128.781 130.528 129.141C130.528 129.141 130.811 129.141 130.785 129.269H131.093L131.555 129.397H131.837H131.991C132.069 129.416 132.136 129.464 132.179 129.531C132.222 129.598 132.238 129.679 132.222 129.757C132.211 129.818 132.18 129.874 132.134 129.916C132.087 129.958 132.028 129.983 131.966 129.988H130.657H130.246C129.348 129.757 128.141 129.397 126.961 128.987L125.241 128.345L124.445 128.14L123.752 127.934C123.398 127.83 123.038 127.744 122.674 127.678L122.238 127.549C122.199 127.538 122.163 127.518 122.132 127.493C122.1 127.467 122.074 127.435 122.055 127.4C122.036 127.364 122.025 127.325 122.021 127.284C122.017 127.244 122.021 127.203 122.033 127.164C122.063 127.127 122.103 127.097 122.148 127.079C122.193 127.061 122.241 127.055 122.289 127.062ZM122.289 134.351H123.239C123.496 134.351 123.829 134.351 124.163 134.531L125.215 134.864C125.878 135.098 126.521 135.381 127.14 135.711C127.425 135.845 127.7 136 127.962 136.173C128.014 136.234 128.043 136.311 128.043 136.392C128.043 136.472 128.014 136.549 127.962 136.61C127.888 136.688 127.787 136.734 127.679 136.738L126.73 136.584C126.191 136.456 125.498 136.25 124.805 136.019L123.804 135.609L122.931 135.275C122.64 135.146 122.358 135.001 122.084 134.839C122.011 134.796 121.958 134.727 121.934 134.646C121.91 134.565 121.918 134.478 121.956 134.402C122.032 134.354 122.123 134.335 122.212 134.351H122.289Z" fill="#F18380"/>
<path d="M164.738 121.498L165.34 121.219L165.701 121.998L166.343 121.7L165.982 120.921L166.584 120.642L167.57 122.77L166.968 123.049L166.578 122.206L165.935 122.504L166.326 123.347L165.724 123.626L164.738 121.498L164.738 121.498ZM168.732 119.646L169.718 121.774L169.137 122.044L168.384 120.42L168.003 120.597L168.286 121.208C168.413 121.482 168.549 121.828 168.476 122.091C168.414 122.376 168.142 122.58 167.772 122.674L167.527 122.146C167.877 122.062 167.899 121.897 167.704 121.475L167.186 120.358L168.73 119.643L168.732 119.646ZM169.235 119.414L169.837 119.135L170.763 120.241L170.518 118.819L171.12 118.54L172.387 120.537L171.826 120.798L171.158 119.724L171.364 121.012L170.962 121.198L170.115 120.208L170.502 121.411L169.941 121.671L169.234 119.414L169.235 119.414ZM171.622 118.307L172.224 118.028L172.624 118.892L172.806 117.759L173.468 117.451L173.194 118.858L174.475 119.57L173.753 119.904L172.812 119.291L173.212 120.155L172.61 120.434L171.624 118.306L171.622 118.307L171.622 118.307ZM167.977 117.231C164.365 118.905 162.611 121.382 163.548 123.404C164.476 125.406 167.507 125.689 171.121 124.014C174.753 122.331 176.477 119.842 175.55 117.841C174.613 115.82 171.611 115.547 167.977 117.231ZM170.975 123.699C167.582 125.272 164.74 125.079 163.89 123.245C163.031 121.392 164.732 119.117 168.123 117.546C171.534 115.965 174.349 116.144 175.209 117.999C176.059 119.833 174.388 122.118 170.975 123.699ZM168.26 117.841C165.07 119.32 163.46 121.423 164.231 123.087C165.002 124.751 167.648 124.882 170.838 123.404C174.028 121.925 175.638 119.822 174.867 118.158C174.098 116.493 171.452 116.362 168.26 117.841ZM170.809 123.342C167.658 124.802 165.044 124.682 164.293 123.061C163.541 121.439 165.141 119.367 168.29 117.907C171.44 116.448 174.055 116.567 174.807 118.188C175.56 119.809 173.961 121.881 170.809 123.342L170.809 123.342Z" fill="white"/>
</svg>
