<svg width="227" height="515" viewBox="0 0 227 515" fill="none" xmlns="http://www.w3.org/2000/svg">
<path d="M41.5746 95.7483C41.4496 93.0176 42.1806 90.3161 43.6655 88.021C45.9516 85.3702 47.6644 84.7185 48.6959 81.3735C49.4894 78.2685 50.7569 75.3043 52.4536 72.5855C53.6657 70.9188 55.4839 69.5552 55.4839 68.2825C55.4839 67.0097 53.0596 64.5551 49.605 65.2521C48.1253 65.7131 46.7657 66.4954 45.6236 67.5432C44.4816 68.5909 43.5853 69.8782 42.9988 71.3128C42.6679 70.4387 42.4737 69.5188 42.4232 68.5855L41.6656 47.566C41.654 47.0844 41.5462 46.61 41.3483 46.1709C41.1504 45.7317 40.8665 45.3366 40.5134 45.009C40.1603 44.6813 39.7452 44.4277 39.2925 44.2631C38.8398 44.0985 38.3587 44.0264 37.8777 44.0508C37.1118 44.0835 36.3753 44.3554 35.7719 44.8282C35.4657 45.0682 30.3402 51.2843 25.3373 57.4457C20.4812 63.4262 15.7407 69.3552 15.6349 69.7177C16.6076 78.5505 18.4344 87.2681 21.0896 95.7483C21.1217 97.1642 21.4497 98.5577 22.0526 99.8392C22.6554 101.121 23.5197 102.262 24.59 103.19C25.6602 104.117 26.9128 104.811 28.267 105.225C29.6213 105.64 31.0472 105.766 32.4533 105.597C33.7258 105.639 34.9925 105.408 36.1675 104.918C37.3426 104.427 38.3985 103.69 39.2636 102.756C40.1288 101.822 40.7829 100.713 41.1816 99.5036C41.5804 98.2945 41.7143 97.0138 41.5746 95.7483Z" fill="#FBBEAA"/>
<path d="M36.6904 38.8691L57.7731 59.5495C57.9964 59.2316 58.2199 58.8967 58.4432 58.5787C59.1133 57.6079 59.792 56.6288 60.4621 55.658C60.7112 55.2981 60.9518 54.9466 61.2009 54.5868C62.206 53.139 62.0105 51.1787 60.7596 49.9481L46.2319 35.6941C44.981 34.4635 43.0165 34.313 41.5861 35.3421C41.2369 35.5994 40.888 35.8399 40.5388 36.0973C39.5768 36.786 38.6147 37.4747 37.6527 38.1635C37.3375 38.4044 37.014 38.6368 36.6904 38.8691Z" fill="#E2874A"/>
<g opacity="0.53">
<path d="M37.6526 38.1787L58.4518 58.5688C59.1219 57.598 59.8006 56.6188 60.4707 55.648L40.5473 36.1042C39.5767 36.8013 38.6146 37.49 37.6526 38.1787Z" fill="#D46424"/>
</g>
<path d="M32.9788 41.6277C32.2081 42.5466 31.429 43.457 30.6497 44.3842C29.5538 45.6706 28.4747 46.9571 27.3871 48.2519C23.1913 53.2138 19.0124 58.1758 14.8166 63.1377C12.5645 65.8024 10.3125 68.4671 8.06042 71.1318C6.62182 72.8359 6.74304 75.3523 8.32757 76.9076L20.3117 88.6579C21.8962 90.2132 24.4187 90.2862 26.0993 88.8129C28.7183 86.5071 31.3456 84.2099 33.9646 81.9041C38.8444 77.6088 43.7239 73.3305 48.6036 69.0353C49.8745 67.9283 51.1457 66.8045 52.4083 65.689C53.3041 64.8982 54.2168 64.1076 55.1211 63.3084C56.2898 62.2846 56.7556 60.7628 56.4944 59.3502C56.3525 58.5214 55.9403 57.7231 55.2983 57.0823L39.2278 41.3156C38.5689 40.6746 37.7719 40.2852 36.9295 40.1567C35.489 39.9451 33.9808 40.4331 32.9788 41.6277Z" fill="#F5F5F5"/>
<path d="M27.3858 48.25C23.19 53.2118 19.0111 58.1739 14.8153 63.1357L33.9548 81.9105C38.8345 77.6152 43.714 73.3369 48.6021 69.0502L27.3858 48.25Z" fill="#E2874A"/>
<g opacity="0.52">
<path d="M37.0374 71.6588C39.5454 69.4614 42.0365 67.2638 44.5359 65.0747L48.5806 69.0483C43.7009 73.3436 38.8214 77.6219 33.9333 81.9086L14.7938 63.1339C15.4702 62.3404 16.1297 61.5467 16.8061 60.7532L27.6727 71.4096C30.2497 73.9307 34.3332 74.0311 37.0374 71.6588Z" fill="#E2874A"/>
</g>
<path d="M32.9481 41.1868L55.5319 63.3371C56.7245 64.5079 58.6488 64.4976 59.8197 63.2881L59.9308 63.1798C61.1015 61.9872 61.0827 60.0713 59.8818 58.892L37.2979 36.7417C36.1054 35.5709 34.1894 35.5898 33.0101 36.7907L32.8991 36.899C31.7367 38.1001 31.7555 40.0161 32.9481 41.1868Z" fill="#E2874A"/>
<g opacity="0.53">
<path d="M34.2289 36.0546C33.8103 37.1635 34.0561 38.4577 34.957 39.3295L57.4741 61.4115C58.3247 62.2489 59.5372 62.4831 60.5964 62.1331C60.4481 62.528 60.2242 62.8966 59.9081 63.205L59.8654 63.2467C58.6776 64.4559 56.7194 64.4827 55.5101 63.2948L32.9929 41.2129C31.7837 40.025 31.757 38.0668 32.9448 36.8575L32.9875 36.8159C33.3462 36.4658 33.7714 36.2009 34.2289 36.0546Z" fill="#D46424"/>
</g>
<path d="M32.4369 64.9614C30.3763 64.3877 28.5763 63.8931 26.5532 66.4678C27.7835 68.0019 30.2715 68.8256 32.9354 68.377C36.3435 67.8025 38.7951 65.3765 38.547 62.8838C37.5099 64.1962 35.8712 65.6953 33.9515 65.3343C33.4462 65.2437 32.9247 65.1024 32.4369 64.9614Z" fill="#5B2500"/>
<path d="M31.3784 59.0914C27.8688 59.6816 25.3648 62.242 25.7978 64.8044C25.8053 64.8804 25.8297 64.9567 25.8457 65.0244C28.3349 62.2951 30.7993 62.975 32.8348 63.5399C33.3225 63.6809 33.7768 63.8046 34.2316 63.8776C35.663 64.1483 37.1268 62.4529 37.9352 61.2137C36.7657 59.5369 34.1775 58.6276 31.3784 59.0914Z" fill="#5B2500"/>
<path d="M32.3013 53.4323C34.0226 50.6864 30.5276 47.0653 28.3101 45.6504C28.3101 45.6504 26.9756 44.1063 24.2097 46.8723C21.1553 49.9269 22.988 52.0174 22.988 52.0174C24.9837 54.1398 29.6406 57.677 32.3013 53.4323Z" fill="#FBBEAA"/>
<path d="M27.4141 58.7491C29.1354 56.0032 25.6404 52.3821 23.4229 50.9672C23.4229 50.9672 22.0884 49.4231 19.3225 52.1891C16.2681 55.2437 18.1007 57.3342 18.1007 57.3342C20.0965 59.4566 24.7534 62.9938 27.4141 58.7491Z" fill="#FBBEAA"/>
<path d="M22.5269 63.6363C24.2482 60.8904 20.7532 57.2693 18.5357 55.8544C18.5357 55.8544 17.2012 54.3103 14.4353 57.0763C11.3809 60.1309 13.2135 62.2214 13.2135 62.2214C15.2093 64.3438 19.8662 67.881 22.5269 63.6363Z" fill="#FBBEAA"/>
<path d="M16.497 67.9865C17.9235 65.685 15.027 62.6499 13.1892 61.464C13.1892 61.464 12.0832 60.1699 9.7909 62.4882C7.25947 65.0484 8.77833 66.8006 8.77833 66.8006C10.4324 68.5794 14.2918 71.5442 16.497 67.9865Z" fill="#FBBEAA"/>
<path d="M186.761 96.4855C192.494 103.857 220.117 181.329 220.117 181.329C189.403 171.5 204.668 167.733 187.964 170.543C187.964 170.543 161.866 115.158 161.131 111.114C160.364 107.925 160.708 104.57 162.107 101.604C163.507 98.6378 165.877 96.2386 168.826 94.8035C177.047 90.6013 181.027 89.1141 186.761 96.4855Z" fill="#002776"/>
<path d="M107.404 93.8299L47.2827 134.379C47.5356 136.453 42.6634 93.8299 42.6634 93.8299L20.4102 95.907C20.4102 95.907 21.7102 139.303 24.985 162.221C26.2847 171.316 33.8552 174.765 42.8317 172.807C47.2637 171.84 51.4361 170.021 55.149 167.415C71.1037 156.216 115.864 124.674 119.524 120.705C125.837 113.86 125.838 108.731 122.209 103.095C118.58 97.4585 110.815 92.9832 107.404 93.8299Z" fill="#001A4B"/>
<path d="M158.465 324.574C158.545 331.071 156.041 337.334 151.504 341.985C146.966 346.636 140.767 349.294 134.269 349.374C127.772 349.454 121.509 346.95 116.858 342.412C112.207 337.875 109.549 331.676 109.469 325.178C109.469 325.178 106.369 234.748 105.311 216.425C104.252 198.102 109.041 183.409 129.657 181.291C151.03 179.099 162.422 195.809 162.422 211.334C162.422 226.859 158.465 324.574 158.465 324.574Z" fill="#7C7C7C"/>
<path d="M198.665 322.835C199.085 326.046 198.864 329.309 198.015 332.434C197.166 335.559 195.706 338.486 193.719 341.043C191.732 343.6 189.258 345.738 186.439 347.333C183.62 348.928 180.513 349.949 177.298 350.335C174.083 350.722 170.822 350.467 167.706 349.585C164.59 348.704 161.679 347.213 159.142 345.199C156.606 343.186 154.494 340.689 152.928 337.854C151.363 335.019 150.375 331.901 150.022 328.682C150.022 328.682 137.269 239.109 134.245 221.012C131.22 202.916 134.421 187.769 154.685 183.459C175.705 178.998 188.836 194.398 190.424 209.822C192.011 225.247 198.665 322.835 198.665 322.835Z" fill="#7C7C7C"/>
<path d="M118.24 431.134C118.24 431.134 119.45 482.524 119.752 490.211C120.055 497.898 124.919 499.99 132.757 500.671C140.596 501.351 143.897 495.126 145.006 490.186C146.115 485.246 152.819 434.864 152.819 434.864L118.24 431.134Z" fill="#FBBEAA"/>
<path d="M119.122 466.973L148.031 470.073C150.274 454.17 152.819 434.788 152.819 434.788L118.24 431.058C118.24 431.058 118.694 450.314 119.122 466.973Z" fill="#F18380"/>
<path d="M158.465 324.574C158.426 321.357 157.753 318.179 156.485 315.222C155.217 312.265 153.379 309.586 151.076 307.34C148.773 305.093 146.05 303.322 143.063 302.127C140.076 300.933 136.882 300.339 133.665 300.378C130.448 300.418 127.27 301.091 124.313 302.359C121.356 303.627 118.678 305.465 116.431 307.767C114.184 310.07 112.413 312.793 111.219 315.781C110.024 318.768 109.43 321.962 109.47 325.179L114.51 468.417L154.055 472.676L158.465 324.574Z" fill="#7C7C7C"/>
<path d="M169.983 433.1C169.983 433.1 176.687 484.062 177.796 491.648C178.905 499.234 183.971 500.847 191.86 500.671C199.749 500.494 202.345 493.967 202.924 488.951C203.504 483.936 204.764 433.1 204.764 433.1H169.983Z" fill="#FBBEAA"/>
<path d="M174.822 468.637H203.907C204.411 452.608 204.89 433.1 204.89 433.1H169.983C169.983 433.1 172.504 452.104 174.822 468.637Z" fill="#F18380"/>
<path d="M198.665 322.835C197.828 316.436 194.501 310.627 189.405 306.667C184.309 302.708 177.857 300.919 171.451 301.69C165.044 302.46 159.2 305.727 155.188 310.781C151.175 315.835 149.319 322.267 150.022 328.682L171.949 473.458H211.72L198.665 322.835Z" fill="#7C7C7C"/>
<path d="M150.047 328.682L172.655 472.197" stroke="#565656" stroke-width="0.75" stroke-miterlimit="10" stroke-linecap="round"/>
<path d="M150.022 328.682C150.022 328.682 137.27 239.109 134.245 221.012" stroke="#565656" stroke-width="0.75" stroke-miterlimit="10" stroke-linecap="round"/>
<path d="M189.213 474.61C186.355 474.405 183.52 475.257 181.248 477.004C178.976 478.751 177.425 481.271 176.889 484.087L163.732 497.57V505.963H205.898C205.898 505.963 203.781 490.841 203.176 487.439C202.571 484.036 200.53 474.61 189.213 474.61Z" fill="#FBBEAA"/>
<path d="M176.914 483.986C176.436 483.331 175.755 482.827 175.276 483.129C174.797 483.431 162.07 493.513 161.465 494.017C161.092 494.367 160.81 494.802 160.644 495.285C160.477 495.768 160.43 496.284 160.507 496.789V507.602H206.831C206.831 507.602 205.016 491.623 204.89 490.741C204.764 489.858 203.882 488.699 203.378 488.724C200.199 489.698 196.899 490.224 193.574 490.287C189.155 490.521 184.747 489.655 180.745 487.767C179.262 486.735 177.966 485.456 176.914 483.986Z" fill="black"/>
<path d="M168.118 498.528C170.361 496.864 178.426 490.564 181.451 488.194L180.745 487.842C180.65 487.801 180.564 487.741 180.493 487.665C177.267 490.186 169.681 496.134 167.513 497.747C165.681 499.151 164.426 501.177 163.985 503.443L164.968 503.594C165.383 501.585 166.5 499.789 168.118 498.528Z" fill="white"/>
<path d="M205.571 496.588C202.306 496.621 199.147 497.748 196.598 499.788C194.295 501.829 192.735 504.578 192.163 507.601H193.524C194.08 504.981 195.458 502.606 197.455 500.822C199.801 498.943 202.717 497.921 205.722 497.923L205.571 496.588Z" fill="white"/>
<path d="M153.021 507.577H206.831C207.207 507.577 207.511 507.881 207.511 508.257V513.474C207.511 513.85 207.207 514.155 206.831 514.155H153.021C152.645 514.155 152.341 513.85 152.341 513.474V508.257C152.341 507.881 152.645 507.577 153.021 507.577Z" fill="white"/>
<path d="M161.59 493.916C161.112 493.714 158.768 494.395 155.718 497.394C154.448 498.706 153.534 500.321 153.062 502.085C152.591 503.849 152.576 505.704 153.021 507.475H168.32C167.463 497.797 162.069 494.117 161.59 493.916Z" fill="white"/>
<path d="M167.462 494.067C167.651 494.299 167.741 494.595 167.713 494.892C167.685 495.19 167.54 495.464 167.311 495.655C167.199 495.748 167.069 495.818 166.93 495.86C166.79 495.903 166.644 495.918 166.499 495.904C166.353 495.89 166.213 495.847 166.084 495.778C165.955 495.71 165.841 495.617 165.749 495.504L163.228 492.454C163.039 492.223 162.949 491.927 162.978 491.629C163.006 491.332 163.15 491.058 163.38 490.866C163.491 490.77 163.62 490.698 163.76 490.653C163.9 490.609 164.047 490.593 164.193 490.607C164.339 490.621 164.481 490.665 164.61 490.735C164.739 490.806 164.852 490.902 164.942 491.018L167.462 494.067Z" fill="white"/>
<path d="M170.462 491.773C170.65 492.005 170.74 492.301 170.712 492.598C170.684 492.896 170.539 493.17 170.31 493.361C170.199 493.457 170.07 493.53 169.93 493.574C169.79 493.619 169.643 493.635 169.497 493.621C169.35 493.606 169.209 493.563 169.08 493.492C168.951 493.422 168.838 493.326 168.748 493.21L166.227 490.16C166.045 489.927 165.958 489.632 165.986 489.336C166.015 489.041 166.155 488.768 166.379 488.573C166.49 488.476 166.619 488.404 166.759 488.359C166.899 488.315 167.046 488.299 167.192 488.313C167.338 488.327 167.48 488.371 167.609 488.442C167.738 488.512 167.851 488.608 167.941 488.724L170.462 491.773Z" fill="white"/>
<path d="M173.36 489.505C173.55 489.729 173.644 490.02 173.62 490.313C173.597 490.606 173.458 490.877 173.234 491.068C173.003 491.257 172.706 491.347 172.409 491.319C172.112 491.29 171.838 491.146 171.646 490.917L169.126 487.867C169.02 487.764 168.936 487.64 168.878 487.504C168.821 487.368 168.791 487.221 168.791 487.073C168.791 486.925 168.821 486.779 168.878 486.643C168.936 486.506 169.02 486.383 169.126 486.279C169.36 486.097 169.654 486.01 169.95 486.039C170.245 486.067 170.519 486.207 170.714 486.431L173.36 489.505Z" fill="white"/>
<path d="M176.283 487.212C176.376 487.325 176.446 487.454 176.489 487.594C176.531 487.733 176.546 487.88 176.532 488.025C176.518 488.17 176.475 488.311 176.407 488.44C176.338 488.568 176.245 488.682 176.132 488.775C175.92 488.983 175.635 489.099 175.338 489.099C175.041 489.099 174.756 488.983 174.544 488.775L172.024 485.7C171.835 485.469 171.745 485.172 171.773 484.875C171.802 484.578 171.946 484.304 172.175 484.112C172.288 484.019 172.417 483.95 172.557 483.907C172.696 483.864 172.843 483.85 172.988 483.864C173.133 483.878 173.274 483.92 173.403 483.989C173.531 484.057 173.645 484.151 173.738 484.263L176.283 487.212Z" fill="white"/>
<path d="M129.985 474.61C127.127 474.405 124.292 475.257 122.02 477.004C119.748 478.751 118.197 481.271 117.661 484.087L104.53 497.57V505.963H146.67C146.67 505.963 144.578 490.841 143.948 487.439C143.318 484.036 141.302 474.61 129.985 474.61Z" fill="#FBBEAA"/>
<path d="M117.685 483.986C117.207 483.331 116.551 482.827 116.047 483.129C115.543 483.431 102.841 493.513 102.261 494.017C101.681 494.521 101.278 495.151 101.278 496.789V507.602H147.602C147.602 507.602 145.787 491.623 145.661 490.741C145.535 489.858 144.653 488.699 144.149 488.724C140.97 489.698 137.67 490.224 134.345 490.287C129.934 490.525 125.533 489.659 121.542 487.767C120.046 486.74 118.741 485.461 117.685 483.986Z" fill="black"/>
<path d="M108.89 498.528C111.133 496.864 119.198 490.564 122.223 488.194L121.542 487.842C121.439 487.801 121.345 487.741 121.265 487.665C118.039 490.186 110.453 496.134 108.285 497.747C106.453 499.151 105.198 501.177 104.757 503.443L105.74 503.594C106.168 501.59 107.282 499.798 108.89 498.528Z" fill="white"/>
<path d="M146.343 496.588C143.078 496.621 139.919 497.748 137.37 499.788C135.067 501.829 133.507 504.578 132.935 507.601H134.296C134.859 504.978 136.245 502.603 138.253 500.822C140.586 498.94 143.496 497.916 146.494 497.923L146.343 496.588Z" fill="white"/>
<path d="M93.7932 507.577H147.603C147.979 507.577 148.283 507.881 148.283 508.257V513.474C148.283 513.85 147.979 514.155 147.603 514.155H93.7932C93.4173 514.155 93.1127 513.85 93.1127 513.474V508.257C93.1127 507.881 93.4173 507.577 93.7932 507.577Z" fill="white"/>
<path d="M102.362 493.916C101.883 493.714 99.5392 494.395 96.4895 497.394C95.2198 498.706 94.3058 500.321 93.8339 502.085C93.362 503.849 93.3478 505.704 93.7927 507.475H109.091C108.234 497.797 102.841 494.117 102.362 493.916Z" fill="white"/>
<path d="M108.336 494.067C108.524 494.299 108.615 494.595 108.586 494.892C108.558 495.19 108.413 495.464 108.184 495.655C108.072 495.748 107.942 495.818 107.803 495.86C107.663 495.903 107.517 495.918 107.372 495.904C107.226 495.89 107.086 495.847 106.957 495.778C106.828 495.71 106.714 495.617 106.622 495.504L104.101 492.454C103.919 492.221 103.832 491.926 103.86 491.63C103.889 491.335 104.029 491.061 104.253 490.866C104.364 490.77 104.493 490.698 104.633 490.653C104.773 490.609 104.92 490.593 105.066 490.607C105.212 490.621 105.354 490.665 105.483 490.735C105.612 490.806 105.725 490.902 105.815 491.018L108.336 494.067Z" fill="white"/>
<path d="M111.233 491.774C111.422 492.005 111.512 492.301 111.484 492.599C111.456 492.896 111.311 493.17 111.082 493.361C110.971 493.458 110.842 493.53 110.702 493.575C110.562 493.619 110.415 493.635 110.269 493.621C110.122 493.607 109.981 493.563 109.852 493.492C109.723 493.422 109.61 493.326 109.52 493.21L106.999 490.161C106.817 489.927 106.73 489.632 106.758 489.337C106.787 489.041 106.927 488.768 107.151 488.573C107.382 488.384 107.678 488.294 107.976 488.322C108.273 488.35 108.547 488.495 108.738 488.724L111.233 491.774Z" fill="white"/>
<path d="M114.133 489.505C114.238 489.606 114.321 489.728 114.379 489.862C114.436 489.996 114.465 490.141 114.465 490.287C114.465 490.433 114.436 490.577 114.379 490.711C114.321 490.845 114.238 490.967 114.133 491.068C113.901 491.257 113.605 491.347 113.308 491.319C113.01 491.29 112.736 491.146 112.545 490.917L110.024 487.867C109.836 487.636 109.745 487.339 109.774 487.042C109.802 486.745 109.946 486.471 110.176 486.279C110.288 486.186 110.418 486.117 110.557 486.074C110.697 486.031 110.843 486.017 110.988 486.031C111.133 486.045 111.274 486.087 111.403 486.156C111.532 486.225 111.646 486.318 111.738 486.431L114.133 489.505Z" fill="white"/>
<path d="M117.055 487.212C117.148 487.325 117.218 487.454 117.261 487.594C117.303 487.733 117.318 487.88 117.304 488.025C117.29 488.17 117.247 488.311 117.179 488.44C117.11 488.568 117.017 488.682 116.904 488.775C116.692 488.983 116.407 489.099 116.11 489.099C115.813 489.099 115.528 488.983 115.316 488.775L112.796 485.7C112.607 485.469 112.517 485.172 112.545 484.875C112.574 484.578 112.718 484.304 112.947 484.112C113.06 484.019 113.189 483.95 113.329 483.907C113.468 483.864 113.615 483.85 113.76 483.864C113.905 483.878 114.046 483.92 114.175 483.989C114.303 484.057 114.417 484.151 114.51 484.263L117.055 487.212Z" fill="white"/>
<path d="M106.052 196.823C106.052 196.823 106.052 222.96 106.052 224.396C106.052 225.833 118.654 238.157 135.389 238.157C161.122 238.157 191.92 228.756 191.467 222.632C191.164 218.599 188.39 198.32 188.39 198.32L106.052 196.823Z" fill="#7C7C7C"/>
<path d="M126.109 60.0438H156.454V95.732H126.109V60.0438Z" fill="#FBBEAA"/>
<path d="M124.767 86.5833C138.881 98.681 152.911 91.624 157.532 85.3231L177.695 94.1444L172.654 187.397L105.865 189.918L108.385 100.445L124.767 86.5833Z" fill="white"/>
<path d="M156.378 60.0438H126.133V79.9546C127.455 80.1187 128.784 80.2029 130.116 80.2067C140.55 80.2067 152.219 77.3587 156.479 67.4033L156.378 60.0438Z" fill="#F18380"/>
<path d="M105.97 94.6232C108.667 92.8589 126.133 82.7775 126.133 82.7775V215.701C124.197 217.587 123.801 217.543 121.021 217.228L120.891 217.213C114.88 215.704 109.081 213.452 103.627 210.509C103.627 210.509 101.308 113.828 100.728 106.469C100.148 99.1094 103.274 96.3874 105.97 94.6232Z" fill="#002776"/>
<path d="M153.086 217.181C151.861 216.921 150.7 216.418 149.673 215.701L156.529 81.4165C156.529 81.4165 176.313 89.4564 181.581 91.8004C183.771 92.7239 185.648 94.2584 186.989 96.2205C188.33 98.1825 189.077 100.489 189.142 102.865C189.47 107.301 189.923 205.62 189.999 206.476C190.075 207.333 189.344 207.812 188.562 208.266C187.781 208.72 163.082 215.928 156.806 217.213C155.576 217.452 154.311 217.441 153.086 217.181Z" fill="#002776"/>
<path d="M110.432 33.5555C110.684 43.8637 110.432 52.0045 112.297 59.868C114.162 67.7315 119.858 74.1584 132.46 74.1584C145.062 74.1584 159.427 70.0502 160.436 54.298C162.502 52.0549 165.854 44.0653 165.98 35.1181C166.106 26.1708 165.401 7.24296 145.011 4.34456C124.621 1.44615 109.877 8.93159 110.432 33.5555Z" fill="#FBBEAA"/>
<path d="M121.093 41.6711C121.093 43.0573 120.261 44.1915 119.228 44.1915C118.194 44.1915 117.363 43.0573 117.363 41.6711C117.363 40.2849 118.194 39.1508 119.228 39.1508C120.261 39.1508 121.093 40.1841 121.093 41.6711Z" fill="#403D4F"/>
<path d="M143.776 41.6711C143.776 43.0573 142.944 44.1915 141.911 44.1915C140.877 44.1915 140.046 43.0573 140.046 41.6711C140.046 40.2849 140.877 39.1508 141.911 39.1508C142.944 39.1508 143.776 40.1841 143.776 41.6711Z" fill="#403D4F"/>
<path d="M139.214 36.4281C139.39 36.655 140.726 36.4281 141.734 36.4281C142.742 36.4281 144.683 36.4281 144.683 36.2013C144.683 35.9745 143.725 34.4119 141.205 34.6891C139.39 34.8907 138.735 36.0249 139.214 36.4281Z" fill="#403D4F"/>
<path d="M121.521 36.4282C121.37 36.6551 120.236 36.4282 119.354 36.4282C118.472 36.4282 116.834 36.4282 116.834 36.2014C117.06 35.6302 117.487 35.1612 118.034 34.8828C118.582 34.6043 119.213 34.5355 119.808 34.6892C121.37 34.8908 121.799 36.025 121.521 36.4282Z" fill="#403D4F"/>
<path d="M128.957 52.1049C127.192 52.1049 125.781 50.9456 125.731 50.1139L126.31 43.0065C126.329 42.8303 126.416 42.6686 126.553 42.5557C126.689 42.4427 126.864 42.3874 127.041 42.4016C127.127 42.408 127.211 42.4313 127.288 42.4703C127.365 42.5092 127.434 42.5631 127.49 42.6286C127.547 42.6942 127.589 42.7703 127.616 42.8524C127.643 42.9346 127.653 43.0212 127.646 43.1073L127.092 49.9627C127.346 50.2389 127.659 50.4547 128.008 50.5942C128.357 50.7337 128.733 50.7935 129.108 50.7692C129.196 50.7623 129.284 50.7734 129.368 50.8016C129.452 50.8299 129.529 50.8748 129.595 50.9337C129.661 50.9925 129.714 51.0641 129.752 51.1441C129.789 51.2241 129.81 51.3109 129.813 51.3993C129.814 51.578 129.747 51.7503 129.625 51.8813C129.503 52.0122 129.337 52.0922 129.158 52.1049H128.957Z" fill="#F18380"/>
<path d="M154.972 38.243C154.972 48.4128 160.012 44.6323 160.012 44.6323C161.273 40.8517 163.468 42.4774 166.354 42.4774C169.24 42.4774 168.869 40.3756 171.755 33.4446C174.064 27.8998 171.402 19.0894 169.671 16.9568C172.541 13.1965 168.648 10.9563 168.783 11.5263C169.671 15.2841 166.594 11.5074 165.053 10.0259C148.597 -5.79805 107.126 2.15171 107.126 2.15171L111.433 7.6024L100.825 4.67211C100.825 4.67211 101.517 10.4121 103.345 13.4934C104.868 16.0595 108.547 19.0894 108.547 19.0894L97.0035 20.1557C97.0035 20.1557 104.507 28.153 114.896 29.2193C126.596 30.4202 139.138 24.9541 139.138 24.9541L134.52 30.2856C134.52 30.2856 146.191 27.9053 149.972 29.8756C152.39 31.1358 154.972 33.6966 154.972 38.243Z" fill="#7D4A40"/>
<path d="M159.881 46.4598C160.007 43.5866 160.461 39.3524 164.544 39.2516C168.627 39.1507 169.156 42.2256 169.03 47.0646C168.904 51.9037 163.989 56.0119 159.68 54.3485L159.881 46.4598Z" fill="#FBBEAA"/>
<path d="M165.88 49.9373C165.703 49.9064 165.545 49.8071 165.442 49.6607C165.338 49.5144 165.296 49.333 165.325 49.156C165.325 49.0137 165.285 48.8744 165.209 48.754C165.133 48.6337 165.025 48.5371 164.897 48.4755C164.639 48.3032 164.337 48.2112 164.027 48.2112C163.718 48.2112 163.415 48.3032 163.158 48.4755C163.046 48.5372 162.92 48.5696 162.792 48.5696C162.664 48.5696 162.539 48.5372 162.427 48.4755C162.324 48.4076 162.242 48.3132 162.188 48.2022C162.135 48.0913 162.113 47.9679 162.124 47.8454C162.477 43.7876 165.073 43.0315 165.174 43.0063C165.26 42.9797 165.351 42.9712 165.44 42.9812C165.53 42.9913 165.616 43.0196 165.694 43.0646C165.772 43.1095 165.84 43.17 165.894 43.2424C165.947 43.3148 165.985 43.3974 166.006 43.4852C166.052 43.6523 166.031 43.831 165.945 43.9822C165.86 44.1334 165.719 44.2447 165.552 44.2917C165.048 44.5196 164.61 44.8694 164.275 45.3094C163.941 45.7495 163.721 46.2659 163.636 46.812C164.327 46.6995 165.035 46.8429 165.628 47.2153C165.973 47.4177 166.252 47.716 166.431 48.0739C166.61 48.4318 166.681 48.834 166.636 49.2316C166.64 49.3298 166.623 49.4277 166.586 49.5187C166.548 49.6096 166.492 49.6915 166.42 49.7585C166.348 49.8256 166.263 49.8763 166.169 49.9072C166.076 49.938 165.977 49.9483 165.88 49.9373Z" fill="#F18380"/>
<path d="M130.695 61.1786C133.128 61.0847 135.464 60.1998 137.349 58.6582" stroke="#73102A" stroke-width="0.5" stroke-miterlimit="10" stroke-linecap="round"/>
<path d="M130.609 56.718C134.138 55.5587 138.17 54.1977 139.557 55.8359C140.64 56.9449 139.179 62.162 133.76 63.0693C128.341 63.9766 126.4 60.2465 126.678 58.8099C126.854 57.9278 127.837 57.6506 130.609 56.718Z" fill="#73102A"/>
<path d="M139.431 55.7607H139.557C140.64 56.8697 139.179 62.0868 133.76 62.9942C132.583 63.2675 131.358 63.2675 130.181 62.9942C131.094 61.1808 132.396 59.5919 133.996 58.3414C135.595 57.0908 137.451 56.2095 139.431 55.7607Z" fill="#D65155"/>
<path d="M138.171 55.2057C136.743 56.7574 134.93 57.9035 132.916 58.5277C130.902 59.1518 128.758 59.2318 126.703 58.7593C126.905 57.9024 127.913 57.6252 130.61 56.7179C133.003 55.7118 135.575 55.1975 138.171 55.2057Z" fill="white"/>
<g filter="url(#filter0_d_203_580)">
<rect width="45.5639" height="64.9286" rx="1" transform="matrix(-0.993463 -0.114154 -0.114154 0.993463 163.033 128.049)" fill="#EFEFEF"/>
</g>
<path d="M143.843 154.36C140.614 152.996 137.694 150.974 135.27 148.423C133.769 146.848 132.067 145.481 130.209 144.358C129.119 143.677 128.179 142.779 127.447 141.718C126.48 140.074 125.679 138.338 125.058 136.535C124.827 134.984 124.3 133.488 123.504 132.133C122.747 131.439 120.076 131.81 118.689 134.505C118.211 135.706 117.995 136.998 118.054 138.296C118.113 139.593 118.447 140.867 119.033 142.03C119.723 143.426 120.264 144.89 120.646 146.398L120.394 146.549C118.281 145.427 116.023 144.614 113.689 144.133C112.843 143.944 111.961 144.046 111.186 144.423C110.411 144.801 109.788 145.431 109.417 146.213C109.046 146.995 108.95 147.883 109.142 148.734C109.335 149.585 109.806 150.35 110.479 150.904C106.837 151.323 107.251 156.94 110.377 157.683C109.708 157.964 109.143 158.446 108.758 159.064C108.374 159.682 108.189 160.407 108.228 161.139C108.267 161.872 108.529 162.577 108.978 163.16C109.427 163.743 110.041 164.176 110.737 164.399C108.517 166.446 110.14 169.821 114.173 169.836C117.449 170.169 126.212 171.541 129.26 172.197C132.309 172.853 138.437 171.402 140.405 172.011C143.335 173.084 146.739 173.102 149.335 165.392C151.93 157.682 146.858 155.356 143.843 154.36Z" fill="#FBBEAA"/>
<path d="M138.074 175.045L197.095 198.807C204.638 202.599 216.892 200.654 220.586 191.832C221.263 190.187 221.598 188.422 221.572 186.644C221.545 184.865 221.158 183.111 220.434 181.487C219.709 179.863 218.662 178.403 217.356 177.195C216.05 175.988 214.513 175.058 212.837 174.463L143.083 149.234L138.074 175.045Z" fill="#002776"/>
<defs>
<filter id="filter0_d_203_580" x="110.463" y="122.955" width="54.4629" height="69.4904" filterUnits="userSpaceOnUse" color-interpolation-filters="sRGB">
<feFlood flood-opacity="0" result="BackgroundImageFix"/>
<feColorMatrix in="SourceAlpha" type="matrix" values="0 0 0 0 0 0 0 0 0 0 0 0 0 0 0 0 0 0 127 0" result="hardAlpha"/>
<feOffset dx="2"/>
<feComposite in2="hardAlpha" operator="out"/>
<feColorMatrix type="matrix" values="0 0 0 0 0.603922 0 0 0 0 0.6 0 0 0 0 0.631373 0 0 0 1 0"/>
<feBlend mode="normal" in2="BackgroundImageFix" result="effect1_dropShadow_203_580"/>
<feBlend mode="normal" in="SourceGraphic" in2="effect1_dropShadow_203_580" result="shape"/>
</filter>
</defs>
</svg>
