<svg width="195" height="514" viewBox="0 0 195 514" fill="none" xmlns="http://www.w3.org/2000/svg">
<path d="M160.324 213.417C159.778 206.547 152.412 180.207 144.5 165.201C144.5 165.201 127.239 167.382 116.124 167.418C104.527 167.455 86.5113 165.201 86.5113 165.201C81.3524 176.883 75.4742 202.405 73.7628 207.911C72.7296 211.151 72.6042 214.611 73.4 217.917C74.1959 221.223 75.8826 224.247 78.2769 226.662C84.1551 233.334 99.3095 240.973 102.807 240.973C117.853 238.824 132.6 234.945 146.757 229.415C154.743 226.067 160.845 220.312 160.324 213.417Z" fill="#93929C"/>
<path d="M23.339 70.3559C23.2367 68.1209 23.835 65.9098 25.0504 64.0313C26.9215 61.8617 28.3234 59.3283 29.1676 56.5905C29.8171 54.0491 30.8545 51.623 32.2432 49.3977C33.2353 48.0336 34.7234 46.9175 34.7234 45.8758C34.7234 44.8341 32.7392 42.8251 29.9117 43.3955C28.7006 43.7728 27.5878 44.4132 26.6531 45.2707C25.7183 46.1283 24.9847 47.1818 24.5047 48.3561C24.2338 47.6406 24.0749 46.8877 24.0335 46.1238L23.4135 30.9198C23.404 30.5257 23.3157 30.1374 23.1538 29.778C22.9918 29.4185 22.7594 29.0952 22.4704 28.827C22.1814 28.5588 21.8417 28.3512 21.4712 28.2165C21.1006 28.0818 20.7069 28.0227 20.3132 28.0427C19.6863 28.0695 19.0835 28.292 18.5897 28.6791C18.0958 29.0661 17.7358 29.5982 17.56 30.2005V29.5061C17.4646 28.767 17.0932 28.0913 16.5203 27.6148C15.9473 27.1382 15.2153 26.896 14.4711 26.9368C13.727 26.9776 13.0259 27.2984 12.5085 27.8348C11.9911 28.3712 11.6958 29.0834 11.6818 29.8285V31.9368C11.4334 31.2868 10.9597 30.7477 10.3471 30.4178C9.73446 30.0879 9.02368 29.9891 8.34429 30.1394C7.6649 30.2897 7.06213 30.6791 6.64585 31.2366C6.22957 31.7942 6.02748 32.4828 6.07642 33.1769V34.5162C5.80947 34.047 5.41163 33.6658 4.93151 33.4192C4.4514 33.1725 3.9098 33.0711 3.37295 33.1272C2.63778 33.2205 1.96783 33.5963 1.50489 34.175C1.04194 34.7537 0.822353 35.4898 0.892693 36.2276L2.108 49.0505C2.90414 56.2799 4.39933 63.4151 6.57251 70.3559C6.59878 71.5148 6.86727 72.6554 7.36068 73.7043C7.8541 74.7532 8.56152 75.6873 9.4375 76.4465C10.3135 77.2057 11.3387 77.7732 12.4471 78.1125C13.5555 78.4518 14.7226 78.5555 15.8735 78.4168C16.915 78.4515 17.9517 78.2619 18.9135 77.8607C19.8752 77.4596 20.7395 76.8562 21.4475 76.0917C22.1556 75.3271 22.691 74.4193 23.0174 73.4296C23.3437 72.44 23.4534 71.3917 23.339 70.3559Z" fill="#FBBEAA"/>
<path d="M106.923 475.134C106.923 472.746 105.975 470.456 104.286 468.768C102.598 467.079 100.308 466.131 97.9201 466.131C95.5323 466.131 93.2423 467.079 91.5538 468.768C89.8654 470.456 88.9168 472.746 88.9168 475.134V494.703H106.923V475.134Z" fill="#FBBEAA"/>
<path d="M89.5617 478.78C87.3543 478.78 86.9575 479.747 86.3126 481.012C85.2667 484.383 83.4784 487.477 81.0793 490.065C77.4975 493.116 73.6549 495.847 69.5957 498.225V508.593H109.677C109.677 508.593 109.404 500.408 109.205 494.629C109.007 488.85 108.437 481.806 108.486 481.062C108.536 480.318 108.486 478.78 107.122 478.78H89.5617Z" fill="#302D3B"/>
<path d="M104.691 495.199C104.696 496.472 104.323 497.717 103.619 498.777C102.915 499.838 101.912 500.665 100.737 501.154C99.5624 501.643 98.2687 501.773 97.0203 501.526C95.7719 501.278 94.6251 500.666 93.7252 499.766C92.8253 498.866 92.213 497.72 91.9659 496.471C91.7188 495.223 91.8481 493.929 92.3374 492.754C92.8267 491.579 93.6539 490.576 94.7141 489.872C95.7743 489.168 97.0196 488.795 98.2923 488.8C99.9874 488.807 101.611 489.483 102.81 490.682C104.009 491.88 104.685 493.504 104.691 495.199Z" fill="#93929C"/>
<path d="M98.293 491.429L99.7564 493.587L102.261 494.306L100.674 496.365L100.748 498.969L98.293 498.076L95.8375 498.969L95.9368 496.365L94.3246 494.306L96.8297 493.587L98.293 491.429Z" fill="white"/>
<path d="M69.8687 498.052C69.8687 498.052 64.1889 501.053 62.0559 502.516C61.0684 503.185 60.2662 504.093 59.7241 505.156C59.182 506.218 58.9177 507.401 58.9555 508.593H74.5316C74.5316 508.593 74.2091 500.978 69.8687 498.052Z" fill="white"/>
<path d="M109.677 508.593V512.884C109.677 513.603 109.032 514 107.94 514H60.6667C59.6002 514 58.9553 513.603 58.9553 512.884V508.593H109.677Z" fill="white"/>
<path d="M74.532 495.149C74.3947 494.938 74.1806 494.789 73.9351 494.734C73.6897 494.678 73.4323 494.72 73.2175 494.852C73.1106 494.917 73.0178 495.004 72.9448 495.106C72.8717 495.208 72.8198 495.324 72.7921 495.446C72.7644 495.569 72.7614 495.695 72.7833 495.819C72.8053 495.943 72.8517 496.061 72.9199 496.166L74.5816 498.845C74.6617 498.984 74.7777 499.098 74.9173 499.177C75.057 499.255 75.2151 499.295 75.3753 499.291C75.559 499.288 75.7387 499.237 75.8962 499.142C76.0031 499.077 76.0958 498.99 76.1689 498.888C76.2419 498.786 76.2939 498.67 76.3216 498.548C76.3493 498.425 76.3523 498.299 76.3303 498.175C76.3084 498.051 76.262 497.933 76.1938 497.828L74.532 495.149Z" fill="white"/>
<path d="M77.4581 493.091C77.3766 492.996 77.2774 492.919 77.1661 492.863C77.0547 492.806 76.9333 492.773 76.8089 492.764C76.6846 492.754 76.5597 492.77 76.4412 492.809C76.3228 492.848 76.2132 492.91 76.1188 492.991C76.0243 493.073 75.9468 493.172 75.8907 493.283C75.8346 493.395 75.8009 493.516 75.7917 493.64C75.7825 493.765 75.7979 493.89 75.837 494.008C75.8761 494.127 75.9381 494.236 76.0196 494.331L77.9542 496.612C78.0434 496.717 78.1535 496.802 78.2773 496.862C78.4011 496.922 78.536 496.955 78.6735 496.96C78.8531 496.956 79.0283 496.903 79.1793 496.806C79.3303 496.708 79.4513 496.571 79.5285 496.409C79.6058 496.246 79.6363 496.066 79.6167 495.887C79.5971 495.708 79.5281 495.539 79.4175 495.397L77.4581 493.091Z" fill="white"/>
<path d="M80.2108 490.785C80.0135 490.657 79.7767 490.606 79.5445 490.641C79.3123 490.675 79.1006 490.793 78.9488 490.972C78.797 491.151 78.7156 491.379 78.7196 491.614C78.7236 491.849 78.8128 492.074 78.9707 492.248L81.1781 494.158C81.3511 494.304 81.5713 494.383 81.7981 494.381C81.9347 494.386 82.0706 494.359 82.1953 494.303C82.32 494.247 82.4302 494.164 82.5174 494.058C82.609 493.973 82.6821 493.869 82.732 493.754C82.7819 493.638 82.8076 493.514 82.8076 493.389C82.8076 493.263 82.7819 493.139 82.732 493.024C82.6821 492.909 82.609 492.805 82.5174 492.719L80.2108 490.785Z" fill="white"/>
<path d="M85.0478 489.644L82.5676 488.106C82.3498 487.977 82.0903 487.939 81.8446 487.999C81.5988 488.059 81.3865 488.213 81.253 488.428C81.1859 488.535 81.141 488.655 81.1209 488.779C81.1008 488.904 81.106 489.031 81.136 489.154C81.1661 489.276 81.2205 489.392 81.296 489.493C81.3715 489.594 81.4665 489.679 81.5755 489.743L84.0557 491.281C84.2028 491.378 84.3754 491.43 84.5518 491.429C84.7134 491.426 84.8713 491.38 85.0103 491.298C85.1493 491.215 85.2647 491.098 85.3455 490.958C85.4766 490.743 85.5189 490.486 85.4633 490.241C85.4077 489.995 85.2587 489.781 85.0478 489.644Z" fill="white"/>
<path d="M87.1317 486.444L84.3538 485.279C84.117 485.18 83.8507 485.18 83.6135 485.277C83.3762 485.375 83.1876 485.563 83.0889 485.8C83.0405 485.915 83.0155 486.039 83.0156 486.164C83.0156 486.29 83.0406 486.414 83.0891 486.529C83.1376 486.644 83.2087 486.749 83.298 486.837C83.3874 486.924 83.4934 486.993 83.6097 487.04L86.3876 488.205H86.7596C86.9736 488.194 87.1778 488.112 87.34 487.972C87.5022 487.832 87.6133 487.642 87.6558 487.432C87.6984 487.222 87.67 487.003 87.5751 486.811C87.4803 486.619 87.3243 486.464 87.1317 486.37V486.444Z" fill="white"/>
<path d="M88.8672 482.873L85.7917 482.104C85.5483 482.044 85.2914 482.084 85.0774 482.215C84.8634 482.345 84.7099 482.555 84.6507 482.798C84.5915 483.042 84.6314 483.298 84.7617 483.512C84.8919 483.726 85.1018 483.88 85.3452 483.939L88.3959 484.733H88.6191C88.8327 484.73 89.0399 484.659 89.2097 484.529C89.3795 484.4 89.5029 484.219 89.5617 484.013C89.6148 483.77 89.5723 483.516 89.443 483.304C89.3136 483.091 89.1074 482.937 88.8672 482.873Z" fill="white"/>
<path d="M120.094 349.98C119.821 337.976 111.735 332.172 99.7556 332.47C87.776 332.767 79.1446 339.042 79.4175 351.022L88.9168 476.102H106.924L120.094 349.98Z" fill="#FBBEAA"/>
<path d="M121.657 349.905C121.59 347.055 120.963 344.247 119.81 341.639C118.658 339.032 117.003 336.677 114.941 334.709C112.878 332.741 110.448 331.198 107.79 330.169C105.131 329.14 102.296 328.645 99.4461 328.712C96.5961 328.778 93.7872 329.406 91.1797 330.558C88.5722 331.711 86.2172 333.365 84.2492 335.428C82.2812 337.49 80.7387 339.92 79.7097 342.579C78.6808 345.237 78.1855 348.072 78.2523 350.922L72.6211 479.5H121.656L121.657 349.905Z" fill="#93929C"/>
<path d="M182.82 475.134C182.82 472.746 181.871 470.456 180.183 468.768C178.495 467.079 176.204 466.131 173.817 466.131C171.429 466.131 169.139 467.079 167.45 468.768C165.762 470.456 164.813 472.746 164.813 475.134V494.703H182.82V475.134Z" fill="#FBBEAA"/>
<path d="M165.482 478.78C163.25 478.78 162.853 479.747 162.233 481.012C161.175 484.383 159.379 487.476 156.975 490.065C153.398 493.122 149.555 495.853 145.491 498.225V508.593H185.572C185.572 508.593 185.299 500.408 185.101 494.629C184.903 488.85 184.357 481.806 184.382 481.062C184.407 480.318 184.382 478.78 183.042 478.78H165.482Z" fill="#302D3B"/>
<path d="M180.611 495.199C180.616 496.471 180.244 497.715 179.541 498.775C178.838 499.834 177.837 500.662 176.663 501.152C175.49 501.642 174.197 501.772 172.95 501.527C171.702 501.282 170.555 500.672 169.654 499.775C168.753 498.878 168.139 497.733 167.889 496.486C167.639 495.24 167.765 493.947 168.25 492.771C168.736 491.596 169.559 490.591 170.616 489.884C171.673 489.177 172.916 488.8 174.188 488.8C175.887 488.8 177.517 489.473 178.721 490.673C179.925 491.872 180.605 493.5 180.611 495.199Z" fill="#93929C"/>
<path d="M174.213 491.429L175.676 493.587L178.181 494.306L176.569 496.365L176.644 498.969L174.213 498.076L171.758 498.969L171.832 496.365L170.22 494.306L172.75 493.587L174.213 491.429Z" fill="white"/>
<path d="M145.79 498.052C145.79 498.052 140.085 501.053 137.977 502.516C136.984 503.18 136.178 504.087 135.636 505.151C135.093 506.215 134.832 507.399 134.877 508.593H150.527C150.527 508.593 150.105 500.978 145.79 498.052Z" fill="white"/>
<path d="M185.572 508.593V512.884C185.572 513.603 184.952 514 183.861 514H136.538C135.446 514 134.826 513.603 134.826 512.884V508.593H185.572Z" fill="white"/>
<path d="M150.427 495.15C150.292 494.936 150.078 494.784 149.832 494.729C149.585 494.673 149.326 494.717 149.113 494.852C148.899 494.987 148.747 495.201 148.692 495.448C148.636 495.694 148.68 495.953 148.815 496.167L150.477 498.845C150.563 498.984 150.683 499.099 150.827 499.177C150.97 499.255 151.132 499.295 151.295 499.292C151.472 499.292 151.644 499.24 151.791 499.143C151.898 499.077 151.991 498.991 152.064 498.889C152.137 498.786 152.189 498.671 152.217 498.548C152.244 498.426 152.247 498.299 152.226 498.175C152.204 498.052 152.157 497.934 152.089 497.828L150.427 495.15Z" fill="white"/>
<path d="M153.379 493.091C153.215 492.9 152.984 492.781 152.734 492.758C152.485 492.735 152.235 492.81 152.04 492.967C151.848 493.135 151.728 493.37 151.705 493.624C151.681 493.878 151.757 494.131 151.916 494.331L153.875 496.613C153.961 496.721 154.07 496.808 154.195 496.869C154.32 496.929 154.456 496.96 154.594 496.96C154.776 496.962 154.955 496.911 155.108 496.814C155.262 496.716 155.384 496.577 155.46 496.411C155.536 496.246 155.563 496.063 155.537 495.883C155.511 495.703 155.433 495.534 155.314 495.397L153.379 493.091Z" fill="white"/>
<path d="M156.107 490.785C155.91 490.657 155.673 490.606 155.441 490.641C155.209 490.675 154.997 490.793 154.845 490.972C154.693 491.151 154.612 491.379 154.616 491.614C154.62 491.849 154.709 492.074 154.867 492.248L157.099 494.158C157.272 494.304 157.492 494.383 157.719 494.381C157.855 494.384 157.991 494.357 158.115 494.301C158.24 494.245 158.35 494.162 158.438 494.058C158.527 493.971 158.597 493.866 158.645 493.752C158.693 493.637 158.718 493.513 158.718 493.389C158.718 493.264 158.693 493.141 158.645 493.026C158.597 492.911 158.527 492.807 158.438 492.719L156.107 490.785Z" fill="white"/>
<path d="M160.944 489.643L158.464 488.106C158.25 488.015 158.011 488.005 157.79 488.077C157.569 488.148 157.381 488.297 157.261 488.496C157.14 488.694 157.095 488.929 157.134 489.158C157.173 489.387 157.293 489.595 157.472 489.743L159.952 491.28C160.099 491.378 160.272 491.43 160.448 491.429C160.614 491.427 160.776 491.383 160.919 491.3C161.062 491.218 161.182 491.1 161.267 490.958C161.396 490.74 161.434 490.481 161.374 490.235C161.313 489.989 161.159 489.777 160.944 489.643Z" fill="white"/>
<path d="M23.6366 72.018L33.5577 134.297C35.1946 142.11 32.6648 149.179 23.6366 150.419C21.9701 150.636 20.2769 150.512 18.6598 150.055C17.0426 149.597 15.5353 148.816 14.2293 147.758C12.9234 146.701 11.846 145.388 11.0628 143.902C10.2795 142.415 9.80657 140.784 9.67276 139.109L6.64684 72.142C5.85316 65.8174 8.60619 61.6009 13.4179 61.0801C19.3209 60.4352 22.4461 63.9324 23.6366 72.018Z" fill="#FBBEAA"/>
<path d="M163.027 486.444L160.249 485.279C160.134 485.23 160.01 485.205 159.885 485.205C159.759 485.205 159.635 485.23 159.52 485.279C159.405 485.327 159.3 485.398 159.212 485.488C159.125 485.577 159.056 485.683 159.009 485.799C158.917 486.03 158.916 486.288 159.009 486.519C159.101 486.75 159.279 486.936 159.505 487.04L162.308 488.205C162.422 488.231 162.541 488.231 162.655 488.205C162.846 488.205 163.033 488.149 163.192 488.043C163.351 487.937 163.475 487.786 163.548 487.61C163.623 487.386 163.612 487.141 163.515 486.925C163.419 486.71 163.244 486.538 163.027 486.444Z" fill="white"/>
<path d="M164.764 482.873L161.713 482.104C161.466 482.043 161.206 482.082 160.988 482.212C160.77 482.342 160.611 482.553 160.547 482.798C160.518 482.919 160.512 483.044 160.531 483.167C160.55 483.289 160.593 483.407 160.657 483.513C160.722 483.619 160.807 483.711 160.907 483.784C161.007 483.857 161.121 483.91 161.242 483.939L164.292 484.733H164.54C164.764 484.716 164.974 484.622 165.136 484.466C165.298 484.311 165.401 484.105 165.427 483.882C165.453 483.66 165.402 483.435 165.281 483.246C165.16 483.057 164.977 482.917 164.764 482.848V482.873Z" fill="white"/>
<path d="M172.973 349.608C171.755 343.978 168.351 339.062 163.509 335.941C158.667 332.821 152.784 331.75 147.154 332.965C135.422 335.446 129.097 347.004 131.627 358.735L164.813 478.16H183.043L172.973 349.608Z" fill="#FBBEAA"/>
<path d="M172.97 347.251C171.624 341.757 168.188 337.004 163.392 334.003C158.596 331.002 152.819 329.99 147.289 331.182C141.759 332.374 136.912 335.676 133.778 340.386C130.644 345.096 129.471 350.842 130.508 356.404L143.702 479C143.702 479 175.301 480.885 194.126 479L172.97 347.251Z" fill="#93929C"/>
<path d="M15.5758 127.402L86.8088 73.2827C95.1177 67.9749 100.773 70.8024 105.187 76.4822C107.204 79.2313 108.138 82.6258 107.814 86.0195C107.489 89.4132 105.927 92.5689 103.426 94.8858L32.3671 147.244C29.863 149.359 26.6394 150.426 23.368 150.223C20.0966 150.019 17.0299 148.561 14.8069 146.153L14.4845 145.805C13.3046 144.547 12.3936 143.061 11.8071 141.439C11.2205 139.816 10.9706 138.091 11.0727 136.369C11.1748 134.647 11.6268 132.964 12.401 131.422C13.1752 129.88 14.2555 128.512 15.5758 127.402Z" fill="#FBBEAA"/>
<path d="M103.427 94.8614C104.084 94.2953 104.683 93.6637 105.212 92.9764C105.681 91.2111 105.741 89.3624 105.389 87.5704C105.036 85.7784 104.28 84.0902 103.179 82.6337C99.4333 76.8547 91.5709 72.3158 88.0738 73.1839L84.6014 74.9449L45.2893 104.708C48.7687 112.885 53.4685 120.487 59.2284 127.254L103.427 94.8614Z" fill="#F18380"/>
<path d="M92.6867 69.4132L31.0433 110.988C31.3026 113.115 24.4691 69.4132 24.4691 69.4132L5.13315 71.9296C5.13315 71.9296 5.52668 116.058 8.41325 139.478C9.56561 148.827 17.276 152.397 26.4797 150.389C31.0239 149.397 35.3018 147.532 39.1087 144.86C55.4672 133.378 101.361 101.037 105.113 96.9689C111.586 89.9498 111.586 84.6916 107.866 78.9126C104.145 73.1336 96.1838 68.5451 92.6867 69.4132Z" fill="#001A4B"/>
<path d="M121.657 349.906L134.381 216.691C134.381 201.983 119.226 185.961 96.8793 189.408C76.69 192.558 70.5389 212.847 72.2007 232.069C73.8625 251.291 78.3518 350.848 78.3518 350.848C78.4185 353.698 79.046 356.507 80.1983 359.115C81.3507 361.722 83.0053 364.077 85.0677 366.045C87.1302 368.013 89.5601 369.556 92.2187 370.585C94.8773 371.614 97.7125 372.109 100.562 372.042C103.412 371.975 106.221 371.348 108.829 370.196C111.436 369.043 113.791 367.389 115.759 365.326C117.727 363.264 119.27 360.834 120.299 358.175C121.328 355.517 121.823 352.681 121.756 349.831L121.657 349.906Z" fill="#93929C"/>
<path d="M172.973 347.252L160.323 214.062C157.645 199.602 139.663 186.779 118.357 194.369C99.1353 201.239 96.9031 222.321 102.161 240.898C107.419 259.475 130.511 356.404 130.511 356.404C131.857 361.898 135.293 366.651 140.089 369.652C144.884 372.653 150.661 373.665 156.191 372.473C161.722 371.281 166.569 367.979 169.703 363.269C172.836 358.559 174.009 352.813 172.973 347.252Z" fill="#93929C"/>
<path d="M102.162 240.899C107.395 259.476 130.511 356.405 130.511 356.405" stroke="#5E5D63" stroke-width="0.75" stroke-miterlimit="10"/>
<path d="M105.882 67.3051C105.882 67.3051 94.9192 69.2149 92.7861 69.7853C91.5274 70.0807 90.3642 70.6908 89.4055 71.5584C88.4468 72.426 87.724 73.5227 87.3048 74.7458C85.9407 77.995 78.9216 99.2756 78.2767 101.582C77.8407 104.123 78.2502 106.737 79.4424 109.023C80.4593 111.801 85.7175 124.45 85.7175 124.45L86.5111 165.201L116.124 169.898L144.5 165.201C144.5 165.201 154.421 89.4042 154.917 84.7165C155.413 80.0288 153.081 70.9759 147.476 69.835C141.87 68.694 126.493 67.3547 126.493 67.3547L105.882 67.3051Z" fill="#FBBEAA"/>
<path d="M85.1208 148.816V163.142C104.516 164.928 135.422 163.663 147.029 163.142C147.575 159.05 148.145 152.105 148.741 147.492C132.941 147.889 106.848 149.361 85.1208 148.816Z" fill="white"/>
<path d="M102.728 67.676C103.502 72.3167 107.939 77.5544 114.126 78.0002C122.634 78.6133 125.545 75.4104 129.025 67.2893C129.025 67.2893 145.368 68.6195 147.749 68.8675C153.388 70.3831 154.965 74.8278 155.709 79.6643C156.453 84.5008 154.162 168.906 154.162 168.906C154.162 168.906 102.974 171.833 79.1384 168.906C79.1384 168.906 77.7064 107.325 77.5824 105.961C77.4834 104.475 77.5713 99.3672 78.7517 94.7463C80.8981 86.3437 86.2385 75.5394 87.6522 73.1584C88.7359 71.2642 90.5154 69.8673 92.6127 69.2644C94.0761 68.7931 102.728 67.676 102.728 67.676Z" fill="#002366"/>
<path d="M92.9997 121.365L95.8944 121.644L95.54 125.325L98.6287 125.622L98.9832 121.941L101.878 122.22L100.909 132.277L98.0147 131.998L98.3983 128.015L95.3091 127.718L94.9255 131.701L92.0308 131.422L92.9993 121.365L92.9997 121.365ZM112.208 123.214L111.239 133.272L108.442 133.002L109.181 125.329L107.349 125.153L107.071 128.039C106.946 129.336 106.695 130.916 105.839 131.737C104.973 132.659 103.492 132.821 101.884 132.361L102.124 129.868C103.635 130.318 104.083 129.752 104.275 127.761L104.783 122.481L112.209 123.196L112.208 123.214ZM114.624 123.447L117.519 123.726L118.581 129.858L120.794 124.041L123.688 124.32L124.074 134.508L121.374 134.248L121.22 128.803L119.152 134.033L117.223 133.847L116.201 128.319L115.01 133.634L112.31 133.374L114.624 123.447L114.624 123.447ZM126.104 124.553L128.999 124.831L128.606 128.915L131.796 125.101L134.983 125.408L130.839 130.033L134.112 135.474L130.642 135.14L128.433 130.806L128.04 134.89L125.145 134.611L126.114 124.554L126.105 124.553L126.104 124.553ZM114.687 112.593C97.3196 110.92 85.2067 116.291 84.2866 125.845C83.3753 135.308 94.2235 142.982 111.599 144.655C129.063 146.337 141.089 140.857 141.999 131.403C142.919 121.848 132.159 114.275 114.687 112.593ZM111.742 143.166C95.4289 141.595 85.0982 134.672 85.933 126.004C86.7765 117.244 98.2387 112.512 114.543 114.082C130.945 115.661 141.206 122.476 140.361 131.245C139.527 139.914 128.153 144.746 111.742 143.166ZM114.409 115.479C99.0689 114.002 88.3281 118.297 87.5707 126.161C86.8134 134.026 96.5374 140.291 111.877 141.769C127.217 143.246 137.958 138.951 138.715 131.086C139.481 123.223 129.757 116.957 114.409 115.479ZM111.905 141.476C96.7514 140.017 87.124 133.863 87.8621 126.199C88.6001 118.535 99.2335 114.332 114.379 115.79C129.524 117.248 139.16 123.403 138.422 131.067C137.693 138.732 127.059 142.936 111.905 141.477L111.905 141.476Z" fill="white"/>
<path d="M187.408 161.555L155.636 77.9454C151.395 69.0165 145.12 68.4213 138.274 70.9015C135.108 72.1645 132.518 74.5497 130.999 77.6013C129.48 80.653 129.139 84.1573 130.04 87.4449L162.754 169.566C163.746 172.69 165.909 175.309 168.791 176.872C171.672 178.435 175.047 178.822 178.206 177.949L178.678 177.825C180.344 177.371 181.901 176.581 183.253 175.505C184.604 174.429 185.723 173.089 186.54 171.567C187.357 170.044 187.855 168.371 188.004 166.65C188.153 164.929 187.951 163.195 187.408 161.555Z" fill="#FBBEAA"/>
<path d="M174.238 126.881L155.636 77.9454C155.137 76.8723 154.548 75.8434 153.875 74.8699C151.597 73.4433 148.988 72.6297 146.302 72.5081C143.617 72.3864 140.945 72.9608 138.547 74.1755C135.762 75.5306 133.524 77.7963 132.202 80.5973C130.88 83.3983 130.555 86.5667 131.28 89.5778C131.28 89.8755 131.454 90.4459 131.602 91.2148L150.8 139.456C159.185 136.432 167.082 132.195 174.238 126.881Z" fill="#F18380"/>
<path d="M153.9 73.4811L189.212 165.129C160.208 155.848 163.607 129.991 147.833 132.645C147.833 132.645 129.643 89.95 128.948 86.1304C128.223 83.1192 128.549 79.9509 129.87 77.1499C131.192 74.3489 133.43 72.0832 136.215 70.728C143.978 66.7596 151.717 70.356 153.9 73.4811Z" fill="#002366"/>
<path d="M127.461 7.90239C128.776 4.72766 135.398 3.31393 139.118 5.05011C142.839 6.78629 146.559 11.3499 147.105 23.7512C147.65 36.1525 146.633 45.6271 148.866 51.8773C146.802 51.6165 144.861 50.7538 143.285 49.3971C143.285 51.034 143.037 55.0025 143.037 55.0025C141.836 54.9049 140.689 54.4652 139.731 53.7355C138.772 53.0057 138.043 52.0166 137.63 50.8852C136.957 52.3166 136.529 53.851 136.365 55.4241C134.182 54.2832 127.461 52.299 127.461 40.5426V7.90239Z" fill="#1D1B24"/>
<path d="M84.2296 49.0999C84.8992 40.0966 87.5531 25.215 87.5531 25.215L93.9025 24.8678C93.9025 24.8678 95.5891 51.6794 96.0604 57.5328C96.5316 63.3862 98.2182 64.9735 98.2182 64.9735C98.2182 64.9735 90.1574 63.8574 88.8925 56.2926C88.707 57.7738 88.6076 59.2645 88.5948 60.7571C88.5948 60.7571 83.5351 58.1032 84.2296 49.0999Z" fill="#302D3B"/>
<path d="M127.187 46.818V67.8754C127.187 67.8754 125.525 75.1177 114.389 75.1177C112.178 75.3042 109.979 74.637 108.245 73.2532C106.511 71.8694 105.372 69.8741 105.063 67.677V46.8427L127.187 46.818Z" fill="#FBBEAA"/>
<path d="M105.063 64.3534C112.057 67.6769 122.251 64.7007 127.187 55.5733V46.818H105.063V64.3534Z" fill="#F18380"/>
<path d="M96.1269 67.5017C94.3678 74.3546 105.127 80.5 114.627 78C104.627 71.5 105.127 67.5 105.127 67.5V60.4999C102.127 59.9999 97.2341 63.1885 96.1269 67.5017Z" fill="#001A4B"/>
<path d="M127.126 57.9998C130.126 57.4998 139.836 58.5148 143.126 63.9997C144.626 66.4998 143.126 68.4996 143.126 68.4996C143.126 68.4996 141.126 68.4999 138.126 67.9999C135.626 73.5 123.126 80.4999 113.91 78.0513C127.126 70.9999 127.126 67.4994 127.126 67.4994V57.9998Z" fill="#001A4B"/>
<path d="M91.2493 30.6719C91.144 35.7084 91.376 40.7463 91.9437 45.7518C92.8366 52.9198 95.3665 60.8567 108.041 60.8567C120.715 60.8567 127.139 55.1272 129.867 45.7518C131.504 40.0968 134.827 31.7136 133.463 22.0406C132.099 12.3676 126.271 6.04296 112.505 5.67092C98.7397 5.29888 89.8107 11.4499 91.2493 30.6719Z" fill="#FBBEAA"/>
<path d="M118.06 34.9626C117.976 35.3353 117.788 35.6768 117.519 35.9481C117.25 36.2193 116.91 36.4093 116.538 36.4963C116.166 36.5833 115.777 36.5638 115.416 36.4399C115.055 36.3161 114.735 36.0929 114.495 35.7961C114.255 35.4992 114.103 35.1406 114.056 34.7614C114.01 34.3821 114.072 33.9976 114.234 33.6517C114.397 33.3059 114.653 33.0128 114.974 32.806C115.296 32.5991 115.669 32.487 116.051 32.4823C116.347 32.51 116.634 32.5966 116.896 32.737C117.158 32.8774 117.39 33.0687 117.577 33.2998C117.764 33.5308 117.903 33.7969 117.986 34.0824C118.069 34.368 118.094 34.6672 118.06 34.9626Z" fill="#403D4F"/>
<path d="M99.6075 34.9626C99.5234 35.3363 99.3355 35.6787 99.0653 35.9503C98.7952 36.222 98.4538 36.4118 98.0805 36.4979C97.7072 36.584 97.3171 36.5629 96.9553 36.437C96.5934 36.3112 96.2745 36.0858 96.0352 35.7866C95.7959 35.4875 95.6459 35.1268 95.6026 34.7462C95.5593 34.3655 95.6243 33.9804 95.7903 33.6351C95.9562 33.2898 96.2164 32.9984 96.5407 32.7945C96.865 32.5905 97.2402 32.4823 97.6233 32.4823C97.9172 32.5131 98.202 32.6019 98.4613 32.7437C98.7205 32.8854 98.949 33.0772 99.1336 33.3079C99.3182 33.5386 99.4551 33.8037 99.5365 34.0877C99.6178 34.3718 99.642 34.6691 99.6075 34.9626Z" fill="#403D4F"/>
<path d="M112.057 27.9437L112.256 27.7205C112.464 27.5427 112.688 27.3849 112.926 27.2493C113.233 27.06 113.568 26.9179 113.918 26.8277C114.307 26.681 114.717 26.5973 115.133 26.5796C115.528 26.5301 115.928 26.5301 116.324 26.5796C116.67 26.5494 117.019 26.5494 117.365 26.5796L118.333 26.8524C118.466 26.906 118.578 27.0029 118.651 27.1276C118.723 27.2524 118.751 27.3978 118.731 27.5405C118.711 27.6833 118.644 27.8152 118.54 27.9153C118.437 28.0154 118.302 28.0778 118.159 28.0926H117.167C116.879 28.0552 116.587 28.0552 116.299 28.0926C115.977 28.068 115.653 28.068 115.331 28.0926C115.014 28.134 114.7 28.1919 114.389 28.2662C114.091 28.2662 113.843 28.4646 113.595 28.4894C113.42 28.567 113.237 28.6252 113.05 28.663H112.851C112.693 28.7315 112.514 28.7361 112.352 28.6761C112.191 28.616 112.058 28.4958 111.983 28.3406C111.946 28.2544 111.927 28.1616 111.927 28.0678C111.927 27.974 111.946 27.8812 111.983 27.7949L112.057 27.9437Z" fill="#403D4F"/>
<path d="M100.005 28.8857H99.8312L99.4591 28.7369H99.1863C99.0939 28.6807 98.9936 28.6389 98.8886 28.6129C98.6778 28.5406 98.4624 28.4826 98.2438 28.4393C98.0053 28.4043 97.7629 28.4043 97.5245 28.4393C97.3185 28.4155 97.1104 28.4155 96.9044 28.4393H96.1108C95.9441 28.4329 95.7863 28.3621 95.6707 28.2418C95.5551 28.1216 95.4906 27.9612 95.4907 27.7944C95.4888 27.6697 95.526 27.5476 95.5972 27.4452C95.6684 27.3429 95.7699 27.2655 95.8875 27.2239L96.6564 26.9511C96.9278 26.857 97.2125 26.8068 97.4997 26.8023C97.8359 26.7409 98.1804 26.7409 98.5166 26.8023C99.1668 26.8728 99.7849 27.1218 100.302 27.5216C100.478 27.6594 100.636 27.8176 100.774 27.9929C100.898 28.1417 100.898 28.1913 100.898 28.1913V28.4393C100.919 28.6067 100.874 28.7758 100.772 28.9103C100.67 29.0448 100.519 29.134 100.352 29.1586C100.278 29.1413 100.208 29.1079 100.148 29.0608C100.088 29.0137 100.039 28.9539 100.005 28.8857Z" fill="#403D4F"/>
<path d="M105.063 43.3953C104.644 43.3988 104.229 43.3145 103.845 43.1479C103.46 42.9813 103.115 42.736 102.831 42.4279C102.727 42.3201 102.646 42.1915 102.595 42.0504C102.544 41.9094 102.523 41.7592 102.533 41.6095C102.533 41.3366 102.955 37.9139 103.104 36.649C103.122 36.5216 103.19 36.4065 103.291 36.3278C103.393 36.2491 103.522 36.2131 103.649 36.2273C103.772 36.2457 103.883 36.3093 103.962 36.4058C104.04 36.5022 104.079 36.6244 104.071 36.7482C104.071 36.9466 103.526 41.4359 103.476 41.7087C103.679 41.9335 103.928 42.1118 104.206 42.2317C104.484 42.3515 104.785 42.41 105.088 42.4032C105.149 42.4031 105.209 42.4154 105.265 42.4394C105.321 42.4633 105.371 42.4984 105.413 42.5425C105.455 42.5866 105.487 42.6389 105.508 42.6959C105.529 42.753 105.538 42.8137 105.534 42.8744C105.546 42.9411 105.542 43.0095 105.523 43.0745C105.504 43.1394 105.471 43.1992 105.425 43.2494C105.38 43.2996 105.324 43.3388 105.261 43.3641C105.198 43.3893 105.131 43.4 105.063 43.3953Z" fill="#F18380"/>
<path d="M121.359 1.57829C107.619 -2.71256 97.8464 2.66964 94.7461 6.73727C93.4887 6.32416 92.3774 5.55667 91.5458 4.52707C90.7142 3.49748 90.1978 2.24961 90.0584 0.93347C89.3411 1.32708 88.768 1.93927 88.4227 2.68104C88.0773 3.4228 87.9775 4.2554 88.138 5.05775C88.2985 5.86009 88.7107 6.59028 89.3148 7.14214C89.9189 7.694 90.6834 8.03877 91.4969 8.1262C86.5364 9.76317 83.6346 14.7485 83.7834 20.9243C83.992 23.1822 84.7887 25.3459 86.0943 27.1998C87.3999 29.0537 89.1686 30.533 91.2242 31.4902C92.6677 27.1603 94.8403 23.1089 97.648 19.5106C98.4205 22.6845 100.058 25.5819 102.379 27.8807C104.7 30.1795 107.612 31.7896 110.793 32.5319C110.485 30.6212 109.995 28.7442 109.33 26.9265C112.111 29.2495 115.413 30.8663 118.953 31.6391C119.201 29.5335 119.142 27.4032 118.78 25.3144C121.26 29.7788 125.427 36.55 131.578 38.435H135.447C137.482 34.2645 138.445 29.6529 138.25 25.0168C138.2 16.4351 135.1 5.86913 121.359 1.57829Z" fill="#302D3B"/>
<path d="M129.37 39.9482C129.569 36.5751 130.462 32.5075 134.579 33.2267C139.39 33.946 139.862 46.9674 129.618 45.4048L129.37 39.9482Z" fill="#FBBEAA"/>
<path d="M134.976 40.8163C134.889 40.8175 134.805 40.795 134.73 40.7512C134.656 40.7075 134.595 40.6442 134.554 40.5682C134.449 40.3505 134.288 40.1645 134.088 40.0294C133.887 39.8943 133.654 39.8149 133.413 39.7993C133.13 39.8022 132.852 39.8765 132.605 40.0152C132.358 40.1539 132.149 40.3526 131.999 40.593C131.944 40.6823 131.86 40.7503 131.761 40.7863C131.662 40.8222 131.554 40.824 131.454 40.7914C131.354 40.7543 131.269 40.6861 131.21 40.5967C131.152 40.5074 131.125 40.4018 131.131 40.2954C131.168 39.2476 131.494 38.2302 132.071 37.3551C132.649 36.48 133.456 35.781 134.405 35.3349C134.524 35.2956 134.653 35.3048 134.764 35.3606C134.876 35.4164 134.961 35.5142 135.001 35.6325C135.04 35.7509 135.031 35.8801 134.975 35.9917C134.919 36.1033 134.821 36.1881 134.703 36.2278C134.145 36.4987 133.649 36.8804 133.244 37.3494C132.839 37.8185 132.534 38.3651 132.347 38.9561C132.7 38.8087 133.08 38.7328 133.463 38.7328C133.864 38.7708 134.249 38.9057 134.586 39.1261C134.923 39.3465 135.202 39.6457 135.397 39.9978C135.427 40.053 135.446 40.1136 135.453 40.1762C135.459 40.2388 135.453 40.3019 135.434 40.362C135.416 40.4221 135.385 40.4779 135.345 40.5261C135.304 40.5743 135.255 40.6139 135.199 40.6426L134.976 40.8163Z" fill="#F18380"/>
<path d="M134.355 48.3807C133.165 39.427 129.742 24.6942 129.742 24.6942H123.368C123.368 24.6942 123.12 51.5554 122.946 57.4337C122.773 63.3119 121.21 65.0728 121.21 65.0728C121.21 65.0728 129.197 63.5351 130.065 55.8959C130.331 57.3718 130.505 58.8628 130.586 60.3603C130.586 60.3603 135.521 57.3345 134.355 48.3807Z" fill="#302D3B"/>
<path d="M123.715 122.292L163.201 171.476C167.888 177.924 174.833 180.801 181.753 174.998C183.033 173.91 184.078 172.574 184.826 171.07C185.574 169.566 186.009 167.926 186.104 166.249C186.199 164.573 185.953 162.894 185.38 161.315C184.806 159.736 183.919 158.291 182.77 157.065L135.198 109.94C131.056 105.104 126.071 104.335 122.45 107.46C118.06 111.354 118.581 115.918 123.715 122.292Z" fill="#FBBEAA"/>
<path d="M137.58 112.52C133.19 108.08 124.98 98.5065 122.203 96.175C119.456 94.1055 116.455 92.3967 113.274 91.0904C110.86 90.2819 108.365 89.7413 105.833 89.4783C104.072 89.2551 103.353 89.776 103.353 90.8425C103.397 91.4778 103.599 92.092 103.941 92.6292C104.284 93.1663 104.755 93.6093 105.312 93.918H102.063C100.947 93.918 100.227 94.8109 100.748 96.2494C101.221 97.1998 101.898 98.0346 102.729 98.6947C103.561 99.3548 104.527 99.8239 105.56 100.069C105.56 100.069 101.17 100.491 100.054 100.714C98.9377 100.937 98.5905 101.359 98.5905 102.425C98.6001 103.162 98.8048 103.883 99.1839 104.515C99.563 105.146 100.103 105.666 100.748 106.022C102.328 106.663 104.006 107.032 105.709 107.113C105.709 107.113 100.277 108.477 99.1857 108.874C98.0944 109.271 97.9704 109.99 98.5408 110.932C98.8659 111.596 99.3353 112.179 99.9146 112.638C100.494 113.098 101.169 113.421 101.889 113.586C103.948 114.132 105.337 113.239 106.081 113.363C107.68 113.878 109.245 114.491 110.768 115.199C113.056 117.476 115.853 119.177 118.929 120.159C121.218 121.12 123.317 122.48 125.129 124.177C125.973 124.969 126.968 125.584 128.053 125.985C129.139 126.386 130.294 126.565 131.45 126.512C132.607 126.459 133.74 126.174 134.785 125.675C135.829 125.176 136.763 124.473 137.53 123.607C141.499 119.39 140.829 115.868 137.58 112.52Z" fill="#FBBEAA"/>
<path d="M124.726 125.788L162.914 172.516C167.699 178.893 178.88 182.397 185.711 176.489C186.974 175.382 188 174.031 188.725 172.516C189.45 171.001 189.86 169.354 189.929 167.676C189.999 165.998 189.727 164.323 189.13 162.754C188.533 161.184 185.879 155.895 184.712 154.688L136.86 109.747L124.726 125.788Z" fill="#002366"/>
<path d="M105.857 93.9431C105.85 93.9841 105.852 94.0261 105.862 94.0664C105.872 94.1068 105.891 94.1445 105.916 94.1772C105.942 94.21 105.975 94.237 106.011 94.2564C106.048 94.2759 106.088 94.2874 106.13 94.2903L108.164 94.4887H109.156C109.503 94.4887 109.826 94.6127 110.173 94.6375C110.54 94.7476 110.896 94.8886 111.239 95.0591L112.38 95.5304C113.918 96.1505 115.456 96.7209 116.597 97.1425C117.738 97.5642 118.531 97.8123 118.531 97.8123C118.594 97.8388 118.665 97.8407 118.729 97.8178C118.793 97.7948 118.847 97.7486 118.879 97.6882C118.925 97.6277 118.95 97.5536 118.95 97.4774C118.95 97.4012 118.925 97.3271 118.879 97.2666L117.018 96.2993L115.084 95.3816C114.389 95.0591 113.62 94.7367 112.852 94.4391L111.686 93.9926C111.311 93.8232 110.921 93.6903 110.52 93.5958L109.33 93.4718H108.313H106.8H106.229C106.167 93.4225 106.087 93.4 106.008 93.4093C105.929 93.4186 105.857 93.4589 105.808 93.5214C105.758 93.5839 105.736 93.6634 105.745 93.7425C105.754 93.8216 105.795 93.8937 105.857 93.9431ZM106.328 99.9205H106.775C107.146 99.8872 107.52 99.8872 107.891 99.9205L108.66 100.044C108.943 100.08 109.225 100.13 109.503 100.193L111.19 100.739C112.331 101.111 113.447 101.582 114.29 101.929C114.29 101.929 114.563 101.929 114.538 102.053H114.836L115.282 102.177H115.555H115.704C115.779 102.195 115.844 102.241 115.885 102.306C115.927 102.371 115.942 102.449 115.927 102.525C115.916 102.584 115.886 102.638 115.841 102.679C115.796 102.719 115.739 102.743 115.679 102.748H114.414H114.017C113.149 102.525 111.983 102.178 110.843 101.781L109.181 101.161L108.412 100.962L107.742 100.764C107.4 100.662 107.052 100.58 106.7 100.516L106.279 100.392C106.241 100.38 106.206 100.362 106.176 100.337C106.146 100.312 106.121 100.281 106.102 100.247C106.084 100.212 106.073 100.174 106.069 100.135C106.065 100.096 106.069 100.057 106.08 100.02C106.11 99.9832 106.148 99.955 106.191 99.9376C106.235 99.9202 106.282 99.9144 106.328 99.9205ZM106.328 106.964H107.246C107.494 106.964 107.817 106.964 108.139 107.138L109.156 107.46C109.796 107.686 110.418 107.959 111.016 108.279C111.291 108.408 111.557 108.557 111.81 108.725C111.86 108.784 111.888 108.859 111.888 108.936C111.888 109.014 111.86 109.088 111.81 109.147C111.739 109.222 111.641 109.267 111.537 109.271L110.619 109.122C110.098 108.998 109.429 108.8 108.759 108.577L107.792 108.18L106.949 107.857C106.668 107.733 106.394 107.592 106.13 107.436C106.06 107.394 106.008 107.327 105.985 107.249C105.962 107.171 105.97 107.087 106.006 107.014C106.08 106.967 106.168 106.949 106.254 106.964H106.328Z" fill="#F18380"/>
<path d="M22.8433 50.5142C23.7858 50.5142 23.8602 49.9189 24.2819 48.8276C22.1736 48.8276 16.0474 49.2244 13.3687 54.3834C16.0722 50.663 21.256 50.5142 22.8433 50.5142ZM18.0316 30.8953C18.0316 30.8953 18.1804 31.7634 18.3293 33.0284C18.3293 33.6732 18.4781 34.4421 18.5277 35.2358C18.5773 36.0294 18.6517 36.8975 18.7261 37.716C18.7261 39.4522 18.8501 41.1636 18.8501 42.4533C18.8501 43.7431 18.8501 44.6111 18.8501 44.6111C18.8502 44.6524 18.8418 44.6933 18.8253 44.7311C18.8089 44.7689 18.7847 44.8029 18.7543 44.8309C18.724 44.8589 18.6882 44.8803 18.6492 44.8937C18.6102 44.9071 18.5688 44.9122 18.5277 44.9088C18.4579 44.9053 18.3911 44.8792 18.3374 44.8344C18.2838 44.7897 18.2461 44.7288 18.23 44.6608C18.23 44.6608 18.0812 43.7926 17.9572 42.5029C17.8332 41.2132 17.6348 39.5018 17.5604 37.7904C17.5604 36.9223 17.5604 36.0542 17.5604 35.3102C17.5604 34.5661 17.5604 33.7476 17.5604 33.1028C17.5604 31.7882 17.5604 30.9449 17.5604 30.9449C17.5602 30.9036 17.5686 30.8628 17.5851 30.825C17.6016 30.7872 17.6258 30.7531 17.6561 30.7252C17.6865 30.6972 17.7222 30.6758 17.7613 30.6624C17.8003 30.649 17.8417 30.6438 17.8828 30.6473C17.9304 30.6746 17.9694 30.7146 17.9957 30.7628C18.0219 30.8109 18.0344 30.8654 18.0316 30.9201V30.8953ZM12.2774 32.6315C12.2774 32.6315 12.4262 33.3756 12.5999 34.4669C12.5999 35.0374 12.7735 35.6822 12.8479 36.3767C12.9223 37.0711 12.9967 37.8152 13.0711 38.5593C13.0711 40.0475 13.2447 41.5356 13.2695 42.6517C13.2943 43.7678 13.2695 44.5367 13.2695 44.5367C13.2664 44.5759 13.2556 44.614 13.2376 44.6489C13.2197 44.6838 13.1951 44.7149 13.1651 44.7403C13.1352 44.7656 13.1004 44.7848 13.063 44.7967C13.0256 44.8086 12.9862 44.813 12.9471 44.8096C12.8804 44.8049 12.8172 44.7779 12.7677 44.7329C12.7182 44.6879 12.6853 44.6276 12.6743 44.5616C12.6743 44.5616 12.5254 43.8174 12.3518 42.7261C12.1782 41.6348 12.0294 40.1219 11.9054 38.6585C11.9054 37.9145 11.9054 37.1704 11.7566 36.4759C11.6078 35.7814 11.7566 35.1118 11.7566 34.5413C11.7566 33.4252 11.7566 32.6811 11.7566 32.6811C11.7564 32.6398 11.7649 32.599 11.7813 32.5612C11.7978 32.5234 11.822 32.4894 11.8523 32.4614C11.8827 32.4334 11.9184 32.412 11.9575 32.3986C11.9965 32.3852 12.0379 32.38 12.079 32.3835C12.1341 32.4062 12.1817 32.4437 12.2167 32.4919C12.2517 32.54 12.2728 32.5969 12.2774 32.6563V32.6315ZM6.72167 34.9877C6.72167 34.9877 6.87044 35.6078 7.06886 36.5503C7.06886 36.9967 7.26732 37.5424 7.34173 38.1377C7.41614 38.733 7.51531 39.353 7.61452 39.9731C7.78814 41.238 7.86261 42.4533 7.91222 43.4454C7.96182 44.4375 7.91222 45.0328 7.91222 45.0328C7.91236 45.0741 7.90387 45.1149 7.88739 45.1527C7.87091 45.1905 7.84671 45.2246 7.81639 45.2526C7.78607 45.2805 7.75028 45.3019 7.71126 45.3153C7.67223 45.3287 7.63089 45.3339 7.58977 45.3304C7.52645 45.3271 7.46582 45.3037 7.41674 45.2635C7.36766 45.2234 7.33267 45.1686 7.3169 45.1072C7.3169 45.1072 7.14332 44.4872 6.96971 43.5695C6.79609 42.6518 6.54803 41.362 6.39922 40.1219C6.39922 39.477 6.27519 38.8569 6.22558 38.2617C6.17598 37.6664 6.22558 37.1208 6.22558 36.6495C6.22558 35.707 6.22558 35.0621 6.22558 35.0621C6.22544 35.0209 6.23393 34.9801 6.25041 34.9422C6.26689 34.9044 6.29101 34.8704 6.32133 34.8424C6.35165 34.8144 6.38752 34.7931 6.42654 34.7797C6.46557 34.7662 6.50691 34.7611 6.54803 34.7645C6.59382 34.7901 6.63324 34.8256 6.66331 34.8686C6.69338 34.9115 6.71333 34.9608 6.72167 35.0126V34.9877Z" fill="#F18380"/>
<path d="M107.096 49.6053C109.491 49.5129 111.79 48.6421 113.644 47.125" stroke="#73102A" stroke-width="0.5" stroke-miterlimit="10" stroke-linecap="round"/>
<path d="M136.759 109.441L141.786 114.082L128.251 130.324L124.384 125.684L136.759 109.441Z" fill="#00163F"/>
<path d="M24.7718 68.9722L25.3839 75.797L5.27451 78.8906L5.27451 71.543L24.7718 68.9722Z" fill="#00163F"/>
<path d="M154.454 162.15L154.161 168.996C154.161 168.996 130.368 170.595 115.103 170.543C101.045 170.495 79.1379 168.996 79.1379 168.996L79.1379 163.195C79.1379 163.195 101.997 163.969 116.65 163.969C136.372 163.969 154.454 162.15 154.454 162.15Z" fill="#00163F"/>
<path d="M146.905 97.8069L147.508 97.5277L147.869 98.3071L148.512 98.0092L148.15 97.2298L148.753 96.9507L149.74 99.0799L149.137 99.3591L148.746 98.5159L148.104 98.8138L148.494 99.657L147.892 99.9362L146.905 97.8069L146.905 97.8069ZM150.902 95.9545L151.889 98.0837L151.307 98.3535L150.554 96.7289L150.173 96.9056L150.456 97.5168C150.583 97.7914 150.719 98.1373 150.647 98.4011C150.584 98.6861 150.312 98.89 149.941 98.9841L149.697 98.4561C150.047 98.3714 150.069 98.2062 149.873 97.7846L149.355 96.6668L150.9 95.9506L150.902 95.9545ZM151.405 95.7214L152.008 95.4422L152.934 96.5491L152.689 95.1264L153.291 94.8473L154.56 96.8459L153.998 97.1063L153.33 96.032L153.536 97.3205L153.134 97.5066L152.286 96.5161L152.674 97.72L152.112 97.9803L151.405 95.7214L151.405 95.7214ZM153.794 94.6142L154.397 94.3351L154.797 95.1995L154.979 94.0653L155.642 93.758L155.368 95.1653L156.649 95.8778L155.927 96.2125L154.985 95.599L155.385 96.4634L154.783 96.7426L153.796 94.6134L153.794 94.6142L153.794 94.6142ZM150.147 93.5371C146.533 95.212 144.777 97.6913 145.715 99.7141C146.643 101.718 149.677 102.001 153.293 100.325C156.927 98.6409 158.652 96.1498 157.724 94.1482C156.787 92.1254 153.783 91.852 150.147 93.5371ZM153.147 100.01C149.752 101.583 146.908 101.391 146.057 99.5553C145.198 97.7007 146.9 95.4248 150.293 93.8524C153.706 92.2705 156.523 92.4496 157.384 94.3062C158.234 96.1414 156.562 98.4273 153.147 100.01ZM150.43 94.1483C147.238 95.6276 145.627 97.7323 146.398 99.3974C147.17 101.062 149.817 101.193 153.009 99.7141C156.202 98.2347 157.813 96.13 157.041 94.465C156.271 92.799 153.624 92.668 150.43 94.1483ZM152.981 99.6522C149.827 101.114 147.212 100.994 146.46 99.3711C145.708 97.7485 147.309 95.6747 150.46 94.214C153.612 92.7534 156.229 92.8725 156.981 94.495C157.735 96.1168 156.134 98.1908 152.981 99.6523L152.981 99.6522Z" fill="white"/>
</svg>
