<svg width="31" height="27" viewBox="0 0 31 27" fill="none" xmlns="http://www.w3.org/2000/svg">
<g clip-path="url(#clip0_774_9025)">
<path d="M25.3663 0.379639V1.78237H28.0974L15.2785 14.5747C14.4402 15.4206 13.442 16.0921 12.3418 16.5501C11.2415 17.0081 10.0611 17.2436 8.86898 17.243H0.5V18.6457H8.86898C10.2442 18.6509 11.6067 18.384 12.878 17.8606C14.1492 17.3372 15.3039 16.5676 16.2754 15.5963L29.0791 2.77725V5.49886H30.4885V0.379639H25.3663Z" fill="white"/>
<path d="M16.8178 16.389C15.761 17.4497 14.5038 18.2907 13.119 18.8632C11.7343 19.4357 10.2495 19.7284 8.75058 19.7243H0.5V21.1271H8.75058C10.4346 21.1316 12.1029 20.8028 13.6588 20.1596C15.2146 19.5164 16.6272 18.5717 17.8148 17.3801L28.3533 6.86719L27.3564 5.87231L16.8178 16.389Z" fill="white"/>
<path d="M18.3533 18.1617C17.072 19.447 15.5481 20.4662 13.8697 21.1604C12.1913 21.8546 10.3917 22.2099 8.57487 22.206H0.5V23.6087H8.57487C10.5767 23.6141 12.5597 23.2234 14.4092 22.4592C16.2588 21.695 17.9382 20.5725 19.3503 19.1566L25.8667 12.6537L24.8698 11.6626L18.3533 18.1617Z" fill="white"/>
<path d="M19.9119 19.9189C18.4 21.4357 16.6016 22.6382 14.6208 23.4567C12.6401 24.2752 10.5164 24.6936 8.37251 24.6875H0.503906V26.0902H8.37251C10.7016 26.0972 13.0089 25.643 15.1608 24.7538C17.3128 23.8646 19.2665 22.5581 20.9088 20.91L23.4718 18.3523L22.4787 17.3574L19.9119 19.9189Z" fill="white"/>
<path d="M9.62149 15.8668C10.6866 15.8691 11.7284 15.5559 12.6151 14.967C13.5017 14.378 14.1933 13.5398 14.6023 12.5584C15.0113 11.577 15.1193 10.4966 14.9126 9.45387C14.7059 8.41118 14.1939 7.45313 13.4413 6.70102C12.6887 5.94891 11.7294 5.43655 10.6848 5.22882C9.64024 5.02109 8.55739 5.12732 7.57336 5.53407C6.58933 5.94082 5.74837 6.6298 5.15695 7.51377C4.56552 8.39774 4.25022 9.43695 4.25098 10.4998C4.25299 11.9213 4.81922 13.2841 5.82573 14.29C6.83225 15.2958 8.19706 15.8628 9.62149 15.8668ZM9.62149 5.9562C10.528 5.9562 11.4143 6.22447 12.168 6.72708C12.9218 7.2297 13.5093 7.94408 13.8562 8.7799C14.2032 9.61571 14.2939 10.5354 14.1171 11.4227C13.9402 12.31 13.5037 13.125 12.8626 13.7647C12.2216 14.4044 11.4049 14.8401 10.5157 15.0166C9.62658 15.1931 8.70496 15.1025 7.8674 14.7563C7.02985 14.4101 6.31398 13.8238 5.81032 13.0716C5.30667 12.3194 5.03784 11.435 5.03784 10.5303C5.03583 9.92838 5.15291 9.33193 5.38235 8.77521C5.6118 8.21849 5.94911 7.71244 6.37495 7.28608C6.80078 6.85971 7.30675 6.52142 7.86386 6.2906C8.42097 6.05977 9.01827 5.94095 9.62149 5.94096V5.9562Z" fill="white"/>
<path d="M10.0219 12.9441C11.3774 12.7245 12.298 11.4499 12.0779 10.0971C11.8579 8.74432 10.5806 7.82569 9.22502 8.04527C7.86943 8.26486 6.94889 9.53951 7.16893 10.8923C7.38897 12.2451 8.66628 13.1637 10.0219 12.9441Z" fill="white"/>
</g>
<defs>
<clipPath id="clip0_774_9025">
<rect width="30" height="25.7143" fill="white" transform="translate(0.5 0.379639)"/>
</clipPath>
</defs>
</svg>
