<svg width="31" height="29" viewBox="0 0 31 29" fill="none" xmlns="http://www.w3.org/2000/svg">
<g clip-path="url(#clip0_774_9038)">
<path d="M10.9065 0.398193L5.5226 5.7295V20.2002L5.24571 20.223H4.65733C4.53042 20.223 4.40351 20.2002 4.27276 20.2002C3.2976 20.2311 2.37282 20.6364 1.69404 21.3304C1.01527 22.0244 0.635742 22.9526 0.635742 23.9188C0.635742 24.8849 1.01527 25.8131 1.69404 26.5071C2.37282 27.2011 3.2976 27.6064 4.27276 27.6373H20.4245C21.1733 27.6404 21.9054 27.4187 22.5243 27.0014C22.9248 26.7355 23.2695 26.3954 23.5395 25.9999C23.8145 25.5967 24.0066 25.1438 24.1048 24.667C24.157 24.4165 24.1828 24.1612 24.1817 23.9054V0.398193H10.9065ZM1.91537 23.9549C1.91831 23.3974 2.12402 22.8595 2.4948 22.4399C2.86559 22.0203 3.37665 21.747 3.93435 21.6701H4.5535H4.64579L4.82269 21.7006H5.00344L5.29571 21.6739H17.448C16.9267 22.3318 16.645 23.1448 16.6484 23.9811C16.6519 24.8174 16.9404 25.628 17.4672 26.2817H4.25353C3.945 26.2812 3.63961 26.2203 3.3549 26.1026C3.0702 25.9849 2.81178 25.8126 2.59451 25.5957C2.37724 25.3788 2.2054 25.1215 2.08885 24.8386C1.9723 24.5557 1.91335 24.2528 1.91537 23.9473V23.9549ZM21.8897 25.7409C21.715 25.8829 21.5208 25.9996 21.3129 26.0875C20.8502 26.2804 20.337 26.3208 19.8493 26.2026C19.3616 26.0843 18.9253 25.8138 18.6049 25.4309C18.2846 25.0481 18.0972 24.5733 18.0705 24.0768C18.0438 23.5803 18.1792 23.0885 18.4566 22.6741C18.7341 22.2598 19.1389 21.9449 19.6112 21.776C20.0835 21.6071 20.5981 21.5933 21.0789 21.7365C21.5597 21.8797 21.9812 22.1724 22.281 22.5713C22.5807 22.9701 22.7429 23.4539 22.7435 23.9511C22.743 24.2549 22.6819 24.5556 22.5638 24.8359C22.4456 25.1163 22.2728 25.3707 22.0551 25.5848L21.8897 25.7409ZM11.5065 1.80337H22.755V21.0379C22.0902 20.5117 21.2641 20.2256 20.413 20.2268C20.273 20.2269 20.133 20.2345 19.9938 20.2497H6.91858V6.32355L7.35314 5.89324H11.1334V2.14991L11.5065 1.80337Z" fill="white"/>
<path d="M20.4012 22.7061C20.1532 22.7061 19.9108 22.7789 19.7046 22.9153C19.4985 23.0517 19.3378 23.2456 19.2429 23.4724C19.148 23.6993 19.1232 23.9489 19.1716 24.1897C19.2199 24.4305 19.3393 24.6517 19.5147 24.8253C19.69 24.9989 19.9134 25.1172 20.1566 25.1651C20.3998 25.213 20.6518 25.1884 20.8809 25.0944C21.11 25.0005 21.3058 24.8413 21.4436 24.6372C21.5813 24.433 21.6548 24.193 21.6548 23.9475C21.6548 23.6182 21.5227 23.3025 21.2876 23.0697C21.0525 22.8368 20.7337 22.7061 20.4012 22.7061Z" fill="white"/>
<path d="M25.9543 23.9473C25.9605 25.1359 25.5743 26.2939 24.8545 27.2451L25.989 28.0867C26.8959 26.8939 27.3847 25.4404 27.3811 23.9473V0.398193H25.9659L25.9543 23.9473Z" fill="white"/>
<path d="M29.085 0.398193V23.9549C29.0878 25.1448 28.6975 26.303 27.9736 27.2527L29.1081 28.0943C30.0151 26.9015 30.5039 25.448 30.5002 23.9549V0.398193H29.085Z" fill="white"/>
<path d="M10.5137 12.386V13.1933H12.2481L10.7906 16.3235L11.3251 16.571L10.8559 17.5764L11.5981 17.9153L12.0673 16.91L13.8017 13.1895H17.2282L18.9587 16.91L19.4279 17.9153L20.174 17.5764L19.701 16.571L20.2393 16.3235L18.778 13.1933H20.5124V12.386H18.4011L16.4475 8.19708C16.7108 8.01963 16.9166 7.77051 17.04 7.47979C17.1635 7.18907 17.1993 6.86918 17.1432 6.55874C17.0871 6.2483 16.9414 5.96058 16.7238 5.73031C16.5062 5.50004 16.2259 5.33706 15.9168 5.26106V4.00439H15.0977V5.26106C14.7883 5.33656 14.5076 5.49915 14.2896 5.7292C14.0715 5.95925 13.9254 6.2469 13.8689 6.55741C13.8123 6.86792 13.8478 7.18799 13.971 7.47896C14.0942 7.76994 14.2999 8.01936 14.5631 8.19708L12.6096 12.386H10.5137ZM14.1863 12.386L15.463 9.64796H15.5823L16.8552 12.386H14.1863ZM15.5207 6.00744C15.6882 6.00669 15.8522 6.05518 15.9918 6.14678C16.1314 6.23837 16.2405 6.36895 16.3051 6.52197C16.3697 6.67498 16.387 6.84355 16.3548 7.00631C16.3226 7.16907 16.2423 7.31871 16.1242 7.43625C16.006 7.5538 15.8553 7.63397 15.691 7.66661C15.5268 7.69924 15.3565 7.68287 15.2017 7.61958C15.0469 7.55628 14.9145 7.44891 14.8214 7.31105C14.7282 7.1732 14.6785 7.01108 14.6785 6.84522C14.6785 6.62368 14.7671 6.41117 14.925 6.25416C15.0828 6.09716 15.297 6.00845 15.5207 6.00744Z" fill="white"/>
</g>
<defs>
<clipPath id="clip0_774_9038">
<rect width="30" height="27.6923" fill="white" transform="translate(0.5 0.390625)"/>
</clipPath>
</defs>
</svg>
