<svg width="31" height="29" viewBox="0 0 31 29" fill="none" xmlns="http://www.w3.org/2000/svg">
<g clip-path="url(#clip0_774_9064)">
<path d="M30.5 18.4857H30.4731C30.4115 17.7842 30.1766 17.1051 29.7866 16.5004C29.3965 15.8956 28.8617 15.3814 28.223 14.9972C28.7551 14.4096 29.0461 13.6678 29.0447 12.9019V11.4448C29.0438 10.5904 28.681 9.77024 28.0338 9.15956C27.3866 8.54888 26.5064 8.19613 25.5813 8.17668C24.6562 8.15724 23.7595 8.47264 23.0829 9.0555C22.4063 9.63835 22.0034 10.4424 21.9604 11.2959H20.4974V12.0475H21.9335V12.9126C21.9333 13.6789 22.2256 14.4208 22.7591 15.0078C22.1204 15.3921 21.5855 15.9063 21.1955 16.511C20.8055 17.1157 20.5706 17.7949 20.509 18.4964H20.4552C20.394 17.7952 20.1597 17.1162 19.7704 16.5115C19.381 15.9068 18.8469 15.3925 18.2089 15.0078C18.7396 14.4195 19.0304 13.6782 19.0307 12.9126V11.4448C19.0307 10.576 18.6569 9.74276 17.9915 9.12842C17.3261 8.51408 16.4237 8.16895 15.4827 8.16895C14.5701 8.16903 13.6927 8.49417 13.0332 9.07666C12.3737 9.65915 11.983 10.4541 11.9425 11.2959H10.4834V12.0475H11.9502V12.9126C11.9505 13.6782 12.2412 14.4195 12.7719 15.0078C12.1339 15.3925 11.5998 15.9068 11.2105 16.5115C10.8211 17.1162 10.5868 17.7952 10.5256 18.4964H10.4718C10.4135 17.7921 10.1805 17.1096 9.79106 16.5017C9.40158 15.8937 8.86597 15.3765 8.22558 14.9901C8.75626 14.4018 9.047 13.6604 9.0473 12.8948V11.4448C9.0473 10.576 8.6735 9.74276 8.00813 9.12842C7.34277 8.51408 6.44034 8.16895 5.49937 8.16895C4.58673 8.16903 3.7093 8.49417 3.04983 9.07666C2.39035 9.65915 1.99965 10.4541 1.95911 11.2959H0.5V12.0475H1.96679V12.9126C1.96563 13.6706 2.25079 14.4053 2.77314 14.9901C2.1352 15.3747 1.60108 15.8891 1.21173 16.4938C0.822373 17.0985 0.58811 17.7775 0.526881 18.4787H0.5V28.0758H30.4962V18.858L30.5 18.4857ZM25.5083 18.3262L23.2928 16.277C23.5125 16.1135 23.7522 15.9742 24.007 15.8622C24.4769 16.0676 24.9903 16.1742 25.5102 16.1742C26.0302 16.1742 26.5436 16.0676 27.0135 15.8622C27.2678 15.9751 27.5074 16.1142 27.7277 16.277L25.5083 18.3262ZM27.9389 15.2737C27.9511 15.2601 27.9653 15.2482 27.9811 15.2383C27.9603 15.2504 27.942 15.2661 27.9274 15.2843L27.9389 15.2737ZM28.3229 16.7982C28.7455 17.2788 29.0118 17.8603 29.0908 18.4751H26.522L28.3229 16.7982ZM25.5237 9.45589C26.0611 9.45619 26.5786 9.64361 26.9729 9.98074C27.3672 10.3179 27.6094 10.7799 27.6509 11.2746H23.3734C23.4168 10.7821 23.6593 10.3227 24.0527 9.98773C24.4461 9.65273 24.9616 9.46668 25.4968 9.46653L25.5237 9.45589ZM27.6586 12.0262V12.8913C27.6352 13.3991 27.4003 13.879 27.0029 14.2308C26.6054 14.5825 26.0761 14.7789 25.5256 14.7789C24.9751 14.7789 24.4458 14.5825 24.0484 14.2308C23.6509 13.879 23.416 13.3991 23.3926 12.8913V12.0262H27.6586ZM22.7015 16.8088L24.5138 18.4822H21.9335C22.0132 17.8687 22.2795 17.2885 22.7015 16.8088ZM15.4981 18.3262L13.2825 16.277C13.5009 16.1135 13.7393 15.9743 13.9929 15.8622C14.4636 16.0675 14.9776 16.174 15.4981 16.1742C16.0186 16.174 16.5326 16.0675 17.0033 15.8622C17.2569 15.9743 17.4953 16.1135 17.7136 16.277L15.4981 18.3262ZM17.9287 15.2737C17.9408 15.2601 17.955 15.2482 17.9709 15.2383C17.9542 15.2514 17.9399 15.2669 17.9287 15.2843V15.2737ZM18.2934 16.7982C18.7159 17.2789 18.9821 17.8604 19.0614 18.4751H16.4887L18.2934 16.7982ZM15.4981 9.45589C16.0351 9.45625 16.5521 9.64379 16.9458 9.981C17.3395 10.3182 17.5808 10.7802 17.6215 11.2746H13.3747C13.4181 10.7821 13.6606 10.3227 14.054 9.98773C14.4474 9.65273 14.9629 9.46668 15.4981 9.46653V9.45589ZM17.633 12.0262V12.8913C17.6096 13.3991 17.3747 13.879 16.9773 14.2308C16.5798 14.5825 16.0505 14.7789 15.5 14.7789C14.9495 14.7789 14.4202 14.5825 14.0227 14.2308C13.6253 13.879 13.3904 13.3991 13.367 12.8913V12.0262H17.633ZM12.7181 16.8088L14.5305 18.4822H11.9502C12.0301 17.8687 12.2963 17.2886 12.7181 16.8088ZM5.49937 18.3227L3.27999 16.277C3.50027 16.1142 3.73987 15.9751 3.99418 15.8622C4.46485 16.0675 4.97886 16.174 5.49937 16.1742C6.01988 16.174 6.53388 16.0675 7.00455 15.8622C7.25814 15.9743 7.49656 16.1135 7.7149 16.277L5.49937 18.3227ZM8.31006 16.7982C8.7309 17.2798 8.99696 17.8608 9.07801 18.4751H6.50538L8.31006 16.7982ZM5.51472 9.45589C6.05172 9.45625 6.56879 9.64379 6.96248 9.981C7.35617 10.3182 7.59746 10.7802 7.6381 11.2746H3.37598C3.41938 10.7821 3.66187 10.3227 4.05528 9.98773C4.44868 9.65273 4.9642 9.46668 5.49937 9.46653L5.51472 9.45589ZM7.64579 12.0262V12.8913C7.62245 13.3991 7.38752 13.879 6.99006 14.2308C6.5926 14.5825 6.06334 14.7789 5.5128 14.7789C4.96226 14.7789 4.433 14.5825 4.03554 14.2308C3.63809 13.879 3.40316 13.3991 3.37982 12.8913V12.0262H7.64579ZM2.71938 16.7982L4.53174 18.4716H1.95911C2.03446 17.864 2.2925 17.288 2.70403 16.8088L2.71938 16.7982ZM1.91303 19.2444H5.09235V26.7888H1.91303V19.2444ZM5.90638 26.7853V19.2444H9.08185V26.7853H5.90638ZM11.9118 19.2444H15.0911V26.7888H11.9118V19.2444ZM15.9051 26.7853V19.2444H19.0844V26.7853H15.9051ZM21.9335 19.2444H25.109V26.7888H21.9335V19.2444ZM25.9269 26.7853V19.2444H29.1023V26.7853H25.9269Z" fill="white"/>
<path d="M16.9417 5.13421C16.9417 6.00302 17.3155 6.83625 17.9808 7.45059C18.6462 8.06493 19.5486 8.41006 20.4896 8.41006C21.4306 8.41006 22.333 8.06493 22.9984 7.45059C23.6637 6.83625 24.0375 6.00302 24.0375 5.13421V3.66646C24.0589 2.79859 23.706 1.95842 23.0565 1.33078C22.407 0.703139 21.514 0.339441 20.5741 0.319696C19.6341 0.29995 18.7242 0.62578 18.0444 1.22549C17.3646 1.82521 16.9707 2.64969 16.9493 3.51756H15.4902V4.2727H16.9417V5.13421ZM20.4896 7.10185C19.9247 7.10091 19.3833 6.89331 18.9838 6.5245C18.5844 6.1557 18.3595 5.65578 18.3585 5.13421V4.2727H22.6245V5.13421C22.6225 5.65488 22.3978 6.15373 21.9995 6.52223C21.6011 6.89073 21.0612 7.09905 20.4973 7.10185H20.4896ZM20.4896 1.69882C21.0267 1.69994 21.5438 1.88764 21.9379 2.22461C22.332 2.56158 22.5744 3.02315 22.6168 3.51756H18.3739C18.4154 3.02346 18.657 2.56192 19.0505 2.22487C19.444 1.88783 19.9605 1.70001 20.4973 1.69882H20.4896Z" fill="white"/>
<path d="M6.95826 5.13421C6.95826 6.00302 7.33206 6.83625 7.99743 7.45059C8.66279 8.06493 9.56522 8.41006 10.5062 8.41006C11.4472 8.41006 12.3496 8.06493 13.015 7.45059C13.6803 6.83625 14.0541 6.00302 14.0541 5.13421V3.66646C14.0647 3.23673 13.9835 2.80928 13.8152 2.40853C13.6469 2.00777 13.3947 1.64155 13.0731 1.33078C12.7515 1.02 12.3667 0.770758 11.9408 0.597277C11.5149 0.423795 11.0561 0.329472 10.5907 0.319695C10.1252 0.309917 9.6623 0.384875 9.22826 0.540291C8.79422 0.695707 8.39758 0.928545 8.061 1.22549C7.72441 1.52244 7.45446 1.87769 7.26657 2.27096C7.07868 2.66423 6.97653 3.08783 6.96594 3.51756H5.50684V4.2727H6.95826V5.13421ZM10.5062 7.10185C9.94131 7.10091 9.39986 6.8933 9.00043 6.5245C8.601 6.1557 8.37615 5.65578 8.37513 5.13421V4.2727H12.6373V5.13421C12.6368 5.39307 12.581 5.6493 12.4733 5.88828C12.3655 6.12726 12.2078 6.3443 12.0092 6.52701C11.8106 6.70973 11.575 6.85453 11.3158 6.95316C11.0566 7.05179 10.7789 7.10231 10.4985 7.10185H10.5062ZM10.5062 1.69882C11.0432 1.69919 11.5603 1.88672 11.9539 2.22393C12.3476 2.56114 12.5889 3.02316 12.6296 3.51756H8.37513C8.41577 3.02316 8.65707 2.56114 9.05076 2.22393C9.44445 1.88672 9.96151 1.69919 10.4985 1.69882H10.5062Z" fill="white"/>
</g>
<defs>
<clipPath id="clip0_774_9064">
<rect width="30" height="27.6923" fill="white" transform="translate(0.5 0.390625)"/>
</clipPath>
</defs>
</svg>
