<svg width="242" height="418" viewBox="0 0 242 418" fill="none" xmlns="http://www.w3.org/2000/svg">
<path d="M93.7294 444.171L78.2119 277.482C78.2119 259.079 97.2674 239.061 125.199 243.344C150.461 247.316 158.096 272.703 155.985 296.786C153.875 320.869 148.04 445.381 148.04 445.381C147.588 452.378 144.45 458.93 139.282 463.668C134.113 468.406 127.314 470.963 120.305 470.807C113.295 470.651 106.617 467.793 101.665 462.829C96.7126 457.866 93.8696 451.181 93.7294 444.171Z" fill="#FBBEAA"/>
<path d="M164.426 361.557C163.371 334.246 160.795 310.753 158.561 294.615C155.209 270.687 150.275 244.959 125.012 241.111C97.0807 236.704 76.039 260.259 76.1321 278.663L82.5253 366.585C95.9324 367.267 138.854 364.505 164.426 361.557Z" fill="#BC664A"/>
<path d="M165.978 350.229C138.047 353.333 94.8774 356.033 80.291 355.381L81.8117 371.985C96.3982 372.637 138.792 369.843 166.63 366.647L165.978 350.229Z" fill="#EB9477"/>
<path d="M103.318 441.782C103.402 438.216 104.187 434.701 105.629 431.438C107.071 428.175 109.141 425.229 111.722 422.766C114.303 420.304 117.343 418.373 120.67 417.086C123.996 415.798 127.544 415.179 131.11 415.262C134.676 415.346 138.191 416.131 141.454 417.573C144.716 419.015 147.663 421.085 150.126 423.666C152.588 426.247 154.518 429.287 155.806 432.614C157.093 435.94 157.713 439.488 157.629 443.054L144.409 599.687H121.877L103.318 441.782Z" fill="#FBBEAA"/>
<path d="M42.5209 438.461L58.3176 271.804C61.7004 253.71 84.2008 237.665 110.829 247.162C134.881 255.79 137.674 282.138 131.126 305.415C124.577 328.691 95.6526 449.944 95.6526 449.944C94.9698 453.503 93.5825 456.889 91.5723 459.903C89.5621 462.918 86.9695 465.5 83.947 467.499C80.9245 469.497 77.533 470.871 73.9718 471.54C70.4107 472.209 66.7518 472.159 63.2102 471.394C59.6686 470.628 56.3156 469.163 53.3486 467.083C50.3815 465.003 47.8601 462.351 45.9325 459.283C44.005 456.215 42.7102 452.792 42.1244 449.217C41.5385 445.641 41.6733 441.984 42.5209 438.461Z" fill="#FBBEAA"/>
<path d="M131.126 305.414C124.547 328.659 95.6533 449.944 95.6533 449.944" stroke="#F18380" stroke-width="0.75" stroke-miterlimit="10"/>
<path d="M127.464 370.432C131.53 343.401 133.392 319.845 134.168 303.552C135.347 279.438 135.254 253.369 111.202 244.586C84.5429 235.058 59.5287 254.269 56.1459 272.517L46.0596 360.191C59.1253 363.263 101.798 368.57 127.464 370.432Z" fill="#BC664A"/>
<path d="M127.464 370.433C131.529 343.402 133.392 319.846 134.167 303.553" stroke="#95463B" stroke-width="0.75" stroke-miterlimit="10" stroke-linecap="round"/>
<path d="M131.125 359.57C103.194 357.553 60.1796 352.029 45.9656 348.708L44.3828 365.281C58.5968 368.632 100.742 373.784 128.705 375.832L131.125 359.57Z" fill="#EB9477"/>
<path d="M39.262 438.461C40.7848 431.42 45.0424 425.271 51.0983 421.369C57.1542 417.466 64.5123 416.13 71.5539 417.652C78.5955 419.175 84.7438 423.433 88.6462 429.488C92.5486 435.544 93.8855 442.902 92.3628 449.944L49.4415 602.263H26.9102L39.262 438.461Z" fill="#FBBEAA"/>
<path d="M55.0595 271.028C55.7422 262.4 64.9286 229.472 74.8598 210.665H147.419C153.875 225.282 161.23 257.217 163.371 264.138C164.664 268.191 164.821 272.522 163.825 276.658C162.829 280.795 160.719 284.579 157.723 287.6C150.368 295.949 131.405 305.476 127.029 305.476C108.192 302.808 89.7269 297.966 72.0045 291.045C62.0113 286.824 54.4077 279.686 55.0595 271.028Z" fill="#6D3826"/>
<path d="M150.429 217.741H71.4453" stroke="#000F2B" stroke-width="0.5" stroke-miterlimit="10" stroke-linecap="round"/>
<path d="M92.3627 217.616C89.5696 236.237 79.0798 249.924 59.8691 249.924" stroke="#000F2B" stroke-width="0.5" stroke-miterlimit="10" stroke-linecap="round"/>
<path d="M144.999 217.616C146.613 228.479 150.865 237.665 157.91 243.406" stroke="#000F2B" stroke-width="0.5" stroke-miterlimit="10" stroke-linecap="round"/>
<path d="M16.1413 463.692C17.1344 460.092 48.759 290.269 56.1763 264.138H163.309C163.309 264.138 167.25 292.069 168.057 315.563C168.864 339.056 175.413 464.965 176.002 469.589C176.592 474.213 175.412 475.423 172.433 476.013C169.454 476.603 153.812 482.22 103.256 482.22C52.7005 482.22 21.5104 472.754 19.4621 471.42C18.1177 470.696 17.0578 469.538 16.4549 468.135C15.852 466.732 15.7415 465.166 16.1413 463.692Z" fill="#6D3826"/>
<path d="M187.982 206.133L148.226 101.484C142.919 90.3421 135.068 89.5972 126.502 92.7007C122.54 94.2811 119.299 97.2655 117.399 101.084C115.498 104.903 115.071 109.287 116.198 113.401L157.133 216.065C158.381 219.969 161.089 223.241 164.692 225.196C168.295 227.151 172.515 227.637 176.468 226.554H177.058C179.148 225.982 181.1 224.99 182.794 223.638C184.488 222.287 185.889 220.604 186.911 218.693C187.934 216.782 188.556 214.683 188.74 212.523C188.924 210.364 188.666 208.19 187.982 206.133Z" fill="#F69605"/>
<path d="M22.8332 206.015L62.5579 101.366C67.8649 90.224 75.7167 89.4792 84.2823 92.5827C88.2499 94.1573 91.4976 97.1394 93.4043 100.958C95.311 104.778 95.7427 109.166 94.617 113.283L53.6819 215.946C52.4345 219.851 49.7262 223.123 46.1231 225.078C42.5199 227.033 38.3008 227.519 34.3472 226.436H33.7575C31.6623 225.872 29.7049 224.885 28.0059 223.535C26.3069 222.185 24.9024 220.502 23.8789 218.588C22.8553 216.675 22.2345 214.572 22.0547 212.41C21.8748 210.248 22.1398 208.071 22.8332 206.015Z" fill="#FFA30F"/>
<path d="M2.57907 83.9806C4.81359 83.1737 7.54466 84.9427 8.78606 87.9531L9.43776 89.629H9.65503V88.1703C9.63832 87.9327 9.63832 87.6942 9.65503 87.4565C9.60876 87.1375 9.60876 86.8135 9.65503 86.4944L10.3378 82.553C10.5183 81.653 11.005 80.8433 11.715 80.2615C12.4251 79.6797 13.3147 79.3618 14.2327 79.3618C15.1506 79.3618 16.0403 79.6797 16.7503 80.2615C17.4604 80.8433 17.947 81.653 18.1275 82.553L18.3137 82.3047C18.9348 81.4644 19.8576 80.8977 20.8879 80.7241C21.9183 80.5504 22.9758 80.7833 23.838 81.3737C24.2613 81.6567 24.6233 82.0222 24.9021 82.4483C25.1809 82.8744 25.3709 83.3524 25.4607 83.8536C25.5506 84.3549 25.5384 84.8691 25.4248 85.3655C25.3113 85.8619 25.0988 86.3303 24.8 86.7427L23.6828 88.2634C23.3067 88.762 23.1198 89.3779 23.1552 90.0014V91.7393C23.187 92.3823 23.3676 93.0091 23.6828 93.5704L23.9621 94.0049C24.1809 92.8657 24.633 91.7842 25.2899 90.8281C25.9469 89.8721 26.7944 89.0623 27.7794 88.4496C29.6872 87.3179 31.9108 86.8361 34.116 87.0767C36.3211 87.3174 38.3885 88.2675 40.0072 89.7841C41.8072 92.2669 40.0072 95.7428 35.9726 94.6256C35.3959 94.4449 34.7871 94.3903 34.1875 94.4652C33.5878 94.5402 33.0112 94.743 32.4967 95.0601C29.7346 99.436 33.7381 106.202 37.6796 105.643C38.3023 104.989 38.7684 104.203 39.0426 103.342C39.3168 102.482 39.3919 101.571 39.2623 100.677C38.5175 93.8807 44.4762 94.0359 45.8728 97.2015C47.1417 100.482 47.3758 104.073 46.5436 107.49C45.7114 110.908 43.8527 113.989 41.2175 116.319C41.6804 117.595 41.9422 118.935 41.9934 120.291L43.8865 136.368L14.962 138.912L13.4723 121.843C13.4413 121.378 13.4413 120.912 13.4723 120.447C7.26533 113.06 9.9964 109.988 4.50322 99.405L0.623857 90.9014C-0.0169624 89.7206 -0.171186 88.3362 0.194059 87.0434C0.559303 85.7505 1.41513 84.6515 2.57907 83.9806Z" fill="#FBBEAA"/>
<path d="M20.7964 108.622C21.0447 107.97 22.7826 101.36 33.5517 103.377C34.0245 104.05 34.6589 104.593 35.3964 104.956C36.134 105.319 36.951 105.491 37.7725 105.456C35.4859 106.024 33.0799 105.872 30.8827 105.022C29.0398 104.426 27.0515 104.456 25.2273 105.107C23.4031 105.758 21.8454 106.994 20.7964 108.622ZM23.6206 96.0527C22.6564 95.8161 21.6646 95.7117 20.6723 95.7423L18.5619 91.1802C18.3139 90.6345 18.1869 90.0416 18.1895 89.4423V83.4525L17.4756 89.1009C17.3274 90.1921 17.5932 91.2993 18.2205 92.2044L20.6723 95.8044C18.7657 95.8105 16.8824 96.2231 15.148 97.0148L11.7032 93.9113C11.2937 93.5068 10.9576 93.0343 10.71 92.5147L9.59277 90.0319L10.1204 92.5147C10.2439 93.0707 10.4779 93.5962 10.8084 94.06C11.139 94.5238 11.5593 94.9165 12.0445 95.2148L15.148 97.1389C14.0361 97.6205 12.9926 98.2466 12.0445 99.001C15.5909 97.0528 19.5744 96.0383 23.6206 96.0527ZM36.0345 119.67C32.9063 121.131 29.4513 121.752 26.0102 121.47C28.5507 122.233 31.2627 122.209 33.789 121.4C36.3152 120.591 38.5372 119.036 40.1622 116.939C39.0148 118.126 37.6293 119.057 36.0966 119.67H36.0345Z" fill="#F18380"/>
<path d="M123.181 88.2009C123.181 88.2009 136.899 90.5906 139.568 91.3044C141.14 91.6794 142.593 92.4446 143.792 93.5295C144.991 94.6144 145.897 95.9838 146.426 97.5114C148.133 101.577 156.916 128.236 157.723 131.122C158.266 134.302 157.754 137.572 156.264 140.433C154.992 143.909 148.413 159.705 148.413 159.705L147.42 210.696H74.8599C74.8599 210.696 63.1207 112.366 62.5 106.5C61.8793 100.634 64.1219 92.7941 71.1358 91.3665C78.1496 89.9389 97.3913 88.263 97.3913 88.263L123.181 88.2009Z" fill="white"/>
<path d="M96.5217 88.2011V223.824C96.5217 227.517 94.6596 229.1 90.3147 229.1H69.7075C66.9144 229.1 65.2385 228.013 65.642 225.81C66.0454 223.606 73.7111 208.43 73.7111 208.43C73.7111 208.43 61.5143 106.76 61.5764 104.929C61.8729 101.412 62.932 98.0019 64.6799 94.9357C66.3287 92.695 68.694 91.0852 71.3835 90.3735C73.3697 89.846 96.5217 86.7114 96.5217 86.7114V88.2011Z" fill="#FFA30F"/>
<path d="M124.205 88.3874C125.458 92.603 126.157 96.9639 126.284 101.36V222.396C126.284 225.5 127.029 229.1 130.909 229.1H153.843C155.147 229.1 156.109 228.293 155.519 225.996C154.93 223.7 148.847 210.479 148.847 210.479C148.847 210.479 151.143 168.52 151.268 166.13C151.392 163.74 158.964 136.057 159.088 134.164C159.303 132.402 159.145 130.615 158.623 128.919C158.002 127.336 148.102 99.5599 146.985 97.1082C146.323 95.3239 145.188 93.7539 143.7 92.5672C142.213 91.3804 140.43 90.622 138.543 90.3736C133.019 89.2564 124.205 87.6736 124.205 87.6736V88.3874Z" fill="#FFA30F"/>
<path d="M207.844 287.756L162.161 223.421C155.954 215.569 154.898 206.227 164.24 199.865C165.997 198.722 167.964 197.942 170.027 197.571C172.09 197.2 174.206 197.246 176.251 197.706C178.296 198.166 180.228 199.03 181.934 200.249C183.639 201.467 185.084 203.014 186.182 204.8L226.744 278.166C231.151 284.839 230.375 291.077 225.255 294.335C219.079 298.308 213.772 296.104 207.844 287.756Z" fill="#FBBEAA"/>
<path d="M224.447 274.411C228.265 281.238 237.017 294.397 238.848 298.525C240.431 302.506 241.474 306.681 241.951 310.939C242.107 314.16 241.888 317.389 241.299 320.559C240.989 322.763 240.151 323.291 238.879 323.011C238.111 322.758 237.421 322.311 236.878 321.713C236.334 321.115 235.954 320.386 235.775 319.597C235.775 319.597 234.968 322.173 234.534 323.477C234.099 324.78 232.827 325.37 231.275 324.284C230.302 323.374 229.535 322.266 229.026 321.035C228.517 319.803 228.279 318.477 228.327 317.146C228.327 317.146 226.31 322.297 225.658 323.57C225.006 324.842 224.385 325.122 223.113 324.718C222.228 324.468 221.427 323.985 220.794 323.319C220.16 322.653 219.718 321.828 219.513 320.932C219.287 318.773 219.424 316.591 219.916 314.477C219.916 314.477 216.409 320.528 215.571 321.739C214.733 322.949 213.802 322.825 212.871 321.739C212.192 321.108 211.657 320.338 211.303 319.48C210.95 318.623 210.786 317.7 210.823 316.773C210.823 314.104 212.406 312.739 212.53 311.808C212.443 309.728 212.236 307.656 211.909 305.601C209.97 302.077 208.906 298.139 208.806 294.118C208.423 291.032 207.498 288.038 206.075 285.273C205.413 283.984 205.016 282.576 204.906 281.132C204.797 279.688 204.977 278.236 205.437 276.863C205.896 275.489 206.626 274.221 207.583 273.134C208.54 272.047 209.705 271.162 211.009 270.531C217.434 267.273 221.437 269.321 224.447 274.411Z" fill="#FBBEAA"/>
<path d="M203 288.5L228.728 272.983L187.267 204.302C184.695 200.634 180.829 198.076 176.447 197.143C172.065 196.211 167.493 196.972 163.65 199.275C154.339 205.482 155.425 216.189 161.601 224.103L203 288.5Z" fill="#F69605"/>
<path d="M235.869 318.914C235.821 318.911 235.774 318.897 235.732 318.874C235.69 318.852 235.653 318.82 235.623 318.782C235.594 318.744 235.573 318.7 235.562 318.654C235.551 318.607 235.55 318.558 235.558 318.511C235.558 318.511 235.745 317.487 235.993 315.966C235.993 315.594 236.148 315.19 236.21 314.725C236.272 314.259 236.21 313.887 236.21 313.452C236.25 312.977 236.25 312.5 236.21 312.025L236.024 310.504C235.807 308.425 235.62 306.376 235.496 304.887C235.372 303.397 235.496 302.311 235.496 302.311C235.487 302.225 235.511 302.139 235.563 302.07C235.615 302 235.691 301.954 235.776 301.938C235.823 301.925 235.872 301.921 235.921 301.928C235.969 301.935 236.016 301.952 236.057 301.979C236.098 302.005 236.133 302.04 236.16 302.081C236.186 302.123 236.203 302.169 236.21 302.218C236.21 302.218 236.458 303.211 236.769 304.763C236.769 305.538 237.079 306.438 237.203 307.401C237.327 308.363 237.483 309.387 237.576 310.504C237.576 311.032 237.576 311.559 237.731 312.056C237.765 312.572 237.765 313.091 237.731 313.607C237.731 314.135 237.545 314.663 237.452 315.097C237.358 315.532 237.203 315.935 237.11 316.308C237.017 316.68 236.645 317.673 236.521 318.108L236.272 318.79C236.229 318.853 236.165 318.9 236.092 318.922C236.019 318.945 235.94 318.942 235.869 318.914ZM228.855 316.339V315.811C228.855 315.501 229.072 315.066 229.165 314.445C229.258 313.825 229.165 313.825 229.165 313.483C229.165 313.142 229.165 312.739 229.165 312.428C229.165 312.118 229.165 310.97 229.165 310.225C229.165 308.704 228.917 307.121 228.762 306.066C228.762 306.066 228.762 305.694 228.762 305.725V304.763C228.762 304.576 228.762 304.514 228.762 304.421V304.235C228.771 304.188 228.769 304.139 228.758 304.092C228.747 304.046 228.726 304.002 228.697 303.964C228.668 303.926 228.631 303.894 228.588 303.871C228.546 303.849 228.499 303.835 228.451 303.831C228.371 303.827 228.291 303.849 228.224 303.893C228.157 303.938 228.106 304.004 228.079 304.08C228.017 304.21 227.965 304.345 227.924 304.483C227.935 304.68 227.935 304.877 227.924 305.073C227.924 305.073 227.924 305.321 227.924 305.445C227.924 305.569 227.924 305.756 227.924 305.911C227.924 307.059 227.924 308.58 227.924 310.101L228.11 312.304C228.11 312.707 228.11 312.987 228.11 313.297C228.11 313.607 228.11 313.918 228.11 314.166C228.11 314.414 228.11 315.221 228.11 315.532V316.059C228.133 316.136 228.18 316.204 228.244 316.251C228.309 316.299 228.387 316.325 228.467 316.325C228.547 316.325 228.625 316.299 228.69 316.251C228.754 316.204 228.801 316.136 228.824 316.059L228.855 316.339ZM220.32 314.011C220.414 313.633 220.487 313.249 220.538 312.863C220.538 312.552 220.538 312.149 220.538 311.714C220.538 311.28 220.538 310.845 220.538 310.38C220.478 309.547 220.375 308.719 220.227 307.897C220.162 307.518 220.068 307.145 219.948 306.78C219.934 306.733 219.91 306.689 219.879 306.651C219.848 306.613 219.81 306.582 219.767 306.559C219.723 306.536 219.676 306.522 219.627 306.517C219.578 306.512 219.529 306.517 219.482 306.532C219.414 306.551 219.353 306.591 219.308 306.647C219.264 306.703 219.238 306.771 219.234 306.842C219.234 306.842 219.234 307.307 219.079 307.959C219.034 308.776 219.034 309.594 219.079 310.411C219.079 310.845 219.079 311.28 219.079 311.683C219.079 312.087 219.079 312.521 219.079 312.832C219.13 313.218 219.202 313.602 219.296 313.98C219.325 314.076 219.389 314.158 219.475 314.21C219.561 314.261 219.663 314.279 219.762 314.259C219.869 314.3 219.987 314.296 220.092 314.25C220.197 314.203 220.279 314.118 220.32 314.011Z" fill="#F18380"/>
<path d="M81.315 25.8206C79.5613 32.5303 78.521 39.4064 78.2116 46.3346C77.8437 52.1011 75.936 57.6633 72.6873 62.4418C69.5839 66.4453 65.5183 70.6039 67.0079 83.0179H146.488C146.488 83.0179 149.592 76.8109 145.868 66.1659C141.481 53.0244 138.251 39.5246 136.216 25.8206H81.315Z" fill="#BC664A"/>
<path d="M96.5215 62.4419V88.7905C96.5215 88.7905 98.6008 97.8838 112.536 97.8838C115.302 98.1171 118.053 97.2823 120.223 95.5507C122.393 93.8192 123.818 91.3225 124.205 88.5733V62.4419H96.5215Z" fill="#FBBEAA"/>
<path d="M124.205 84.5077C115.453 88.6354 102.697 84.9422 96.5215 73.4903V62.4419H124.205V84.5077Z" fill="#F18380"/>
<path d="M141.492 42.2998C141.624 48.6115 141.344 54.925 140.654 61.2001C139.505 70.1382 136.34 80.0693 120.481 80.0693C104.622 80.0693 96.5842 72.9313 93.1704 61.2001C91.1221 54.0931 86.9633 43.6343 88.6703 31.4997C90.3772 19.365 97.6704 11.4822 114.895 11.0167C132.119 10.5511 143.385 18.3099 141.492 42.2998Z" fill="#FBBEAA"/>
<path d="M107.974 47.7003C108.084 48.1574 108.321 48.5743 108.656 48.9038C108.991 49.2332 109.413 49.462 109.872 49.5642C110.331 49.6663 110.809 49.6376 111.252 49.4814C111.696 49.3253 112.087 49.0479 112.38 48.6807C112.674 48.3135 112.859 47.8714 112.914 47.4044C112.969 46.9374 112.892 46.4644 112.692 46.039C112.491 45.6137 112.176 45.253 111.78 44.9981C111.385 44.7432 110.927 44.6041 110.457 44.5968C110.087 44.6313 109.729 44.7398 109.402 44.9158C109.076 45.0918 108.788 45.3319 108.556 45.6215C108.325 45.9111 108.154 46.2445 108.054 46.6016C107.954 46.9588 107.926 47.3324 107.974 47.7003Z" fill="#403D4F"/>
<path d="M130.97 47.7003C131.081 48.1574 131.317 48.5743 131.652 48.9038C131.988 49.2332 132.409 49.462 132.868 49.5642C133.327 49.6663 133.805 49.6376 134.249 49.4814C134.692 49.3253 135.083 49.0479 135.377 48.6807C135.671 48.3135 135.855 47.8714 135.91 47.4044C135.965 46.9374 135.888 46.4644 135.688 46.039C135.488 45.6137 135.172 45.253 134.777 44.9981C134.382 44.7432 133.923 44.6041 133.453 44.5968C133.085 44.6354 132.729 44.7465 132.405 44.9239C132.08 45.1012 131.794 45.3412 131.563 45.6299C131.332 45.9185 131.161 46.2502 131.059 46.6056C130.957 46.961 130.927 47.3331 130.97 47.7003Z" fill="#403D4F"/>
<path d="M115.453 38.9177C115.453 38.9177 115.453 38.9177 115.205 38.6694C114.954 38.426 114.672 38.2173 114.367 38.0487C113.975 37.8247 113.558 37.6476 113.125 37.5211C112.116 37.2439 111.066 37.139 110.022 37.2108C109.582 37.2334 109.146 37.2957 108.718 37.397L107.508 37.7384C107.308 37.8027 107.141 37.9424 107.043 38.1279C106.944 38.3133 106.922 38.5298 106.98 38.7315C107.031 38.8901 107.131 39.029 107.264 39.129C107.397 39.2291 107.559 39.2853 107.725 39.2901H110.053C110.456 39.2596 110.86 39.2596 111.263 39.2901C111.662 39.3268 112.057 39.3995 112.442 39.5073C112.846 39.5073 113.125 39.7246 113.436 39.7556C113.656 39.8485 113.885 39.9212 114.118 39.9729H114.398C114.591 40.0571 114.81 40.062 115.008 39.9866C115.205 39.9112 115.365 39.7614 115.453 39.5694C115.499 39.4615 115.523 39.3454 115.523 39.228C115.523 39.1107 115.499 38.9946 115.453 38.8866V38.9177Z" fill="#403D4F"/>
<path d="M130.567 40.0967C130.567 40.0967 130.567 40.0967 130.753 40.0967L131.219 39.9105H131.56C131.683 39.8836 131.81 39.8836 131.933 39.9105C132.207 39.8198 132.487 39.7473 132.771 39.6932C133.059 39.6609 133.351 39.6609 133.64 39.6932H135.409C135.513 39.6933 135.617 39.6723 135.713 39.6313C135.809 39.5904 135.896 39.5305 135.969 39.4551C136.041 39.3798 136.097 39.2905 136.135 39.1928C136.172 39.095 136.189 38.9908 136.184 38.8863C136.179 38.7323 136.129 38.5833 136.041 38.4568C135.953 38.3303 135.83 38.2317 135.688 38.1725L134.726 37.8311C134.383 37.7284 134.028 37.6659 133.671 37.6449C133.249 37.5834 132.82 37.5834 132.398 37.6449C131.588 37.7465 130.818 38.0566 130.164 38.5449L129.574 39.1346C129.419 39.3208 129.419 39.3829 129.419 39.4139V39.6932C129.392 39.9064 129.447 40.1218 129.574 40.2951C129.701 40.4684 129.89 40.5862 130.102 40.6243C130.314 40.5089 130.479 40.322 130.567 40.0967Z" fill="#403D4F"/>
<path d="M124.205 58.2834C124.728 58.2804 125.245 58.1717 125.725 57.9637C126.205 57.7557 126.638 57.4527 126.998 57.0731C127.129 56.9324 127.23 56.766 127.294 56.5844C127.358 56.4028 127.384 56.21 127.37 56.0179C127.37 55.6765 126.843 51.3937 126.656 49.8109C126.621 49.6578 126.533 49.5217 126.409 49.4256C126.285 49.3295 126.131 49.2792 125.974 49.2833C125.814 49.3065 125.67 49.3906 125.572 49.518C125.473 49.6454 125.428 49.8061 125.446 49.9661C125.446 50.1833 126.129 55.8006 126.191 56.1731C125.937 56.4543 125.625 56.6775 125.277 56.8275C124.929 56.9775 124.553 57.0506 124.174 57.042C124.014 57.05 123.864 57.1189 123.755 57.2345C123.645 57.35 123.584 57.5034 123.584 57.6627C123.592 57.8249 123.659 57.9785 123.774 58.0933C123.889 58.2081 124.043 58.2759 124.205 58.2834Z" fill="#F18380"/>
<path d="M127.06 64.3972C128.208 64.6765 128.642 66.4144 127.929 68.4317C127.225 69.8206 126.073 70.9315 124.659 71.5848C123.246 72.2381 121.653 72.3955 120.139 72.0318C119.312 71.9925 118.502 71.7883 117.755 71.4313C117.009 71.0743 116.341 70.5716 115.792 69.9528C115.243 69.334 114.822 68.6116 114.556 67.828C114.29 67.0445 114.183 66.2157 114.242 65.3903C114.242 64.0558 115.173 63.2799 116.911 63.2799C120.319 63.3709 123.714 63.7446 127.06 64.3972Z" fill="#73102A"/>
<path d="M114.243 65.5455V65.2662C116.515 64.7412 118.901 65.0876 120.929 66.2369C122.958 67.3862 124.481 69.2548 125.199 71.4732C123.602 72.2556 121.806 72.5369 120.047 72.2801C119.22 72.2294 118.411 72.0136 117.669 71.6455C116.927 71.2774 116.266 70.7643 115.725 70.1367C115.184 69.509 114.774 68.7794 114.52 67.9909C114.265 67.2024 114.171 66.3709 114.243 65.5455Z" fill="#D65155"/>
<path d="M126.067 66.2593C122.137 66.3202 118.224 65.7223 114.491 64.4903C114.725 64.0675 115.082 63.7255 115.514 63.5094C115.946 63.2933 116.433 63.2133 116.912 63.2799C120.32 63.3709 123.714 63.7446 127.06 64.3972C127.381 64.5077 127.662 64.7115 127.866 64.9824C128.071 65.2532 128.19 65.579 128.209 65.9179C127.522 66.1617 126.796 66.2774 126.067 66.2593Z" fill="white"/>
<path d="M108.812 30.1039C108.812 30.1039 105.708 45.6213 92.5497 51.6421C92.5497 51.6421 79.1426 43.8523 80.6943 28.9866C82.6185 10.676 108.626 -9.93117 134.509 9.55875C137.023 9.1553 139.754 3.84833 138.947 0C140.005 0.664782 140.837 1.63338 141.336 2.77909C141.834 3.9248 141.976 5.1943 141.741 6.42152C141.506 7.64874 140.907 8.77656 140.02 9.65745C139.134 10.5383 138.003 11.1313 136.774 11.3588C140.999 11.9474 144.834 14.1453 147.476 17.4937C150.119 20.8421 151.366 25.082 150.957 29.328C150.825 32.005 149.71 34.5393 147.827 36.446C145.943 38.3527 143.422 39.4979 140.747 39.6626H136.185C132.655 38.0451 129.801 35.246 128.116 31.7487C128.555 34.385 129.47 36.9194 130.816 39.2281C131.064 39.6937 130.505 40.5006 126.688 39.6936C122.306 38.1863 118.643 35.0989 116.416 31.0349C117.25 33.6997 118.363 36.2691 119.736 38.7005C119.736 39.1661 117.719 39.8488 114.74 38.4833C113.08 37.7617 111.65 36.5991 110.605 35.1218C109.56 33.6444 108.94 31.9089 108.812 30.1039Z" fill="#BC664A"/>
<path d="M129.171 42.3002C128.054 42.3002 127.619 44.3485 127.619 46.3037C127.733 48.9521 128.524 51.527 129.916 53.7831C130.485 54.4639 131.224 54.9828 132.057 55.2879C132.891 55.593 133.79 55.6734 134.664 55.5211C135.729 55.6857 136.817 55.6155 137.851 55.3153C138.886 55.015 139.843 54.4921 140.654 53.7831C142.362 51.6435 143.38 49.035 143.571 46.3037C143.571 44.3485 142.981 42.3002 141.585 42.3002H129.171Z" stroke="#403D4F" stroke-width="0.75" stroke-miterlimit="10"/>
<path d="M119.797 42.3002C121.287 42.3002 121.877 44.3485 121.877 46.3037C121.673 49.0656 120.585 51.6885 118.773 53.7831C117.915 54.487 116.921 55.0051 115.852 55.3042C114.784 55.6034 113.665 55.6773 112.566 55.5211C109.777 55.8798 106.949 55.266 104.559 53.7831C102.38 51.8601 100.996 49.1929 100.68 46.3037C100.68 44.3485 101.425 42.3002 103.318 42.3002H119.797Z" stroke="#403D4F" stroke-width="0.75" stroke-miterlimit="10"/>
<path d="M127.867 44.1624C126.975 43.4828 125.885 43.1147 124.764 43.1147C123.642 43.1147 122.552 43.4828 121.66 44.1624" stroke="#403D4F" stroke-width="0.75" stroke-miterlimit="10"/>
<path d="M103.257 42.3002H99.4704C98.6635 42.3002 97.7324 42.4864 97.7324 43.5726V45.3106C97.7324 45.7451 100.495 46.614 100.836 47.5761" stroke="#403D4F" stroke-width="0.75" stroke-miterlimit="10"/>
<path d="M89.4766 46.8318L97.7319 43.5731" stroke="#403D4F" stroke-width="0.75" stroke-miterlimit="10"/>
<path d="M93.7285 53.9386C93.4803 49.7179 92.363 44.7833 87.2112 45.5282C81.1904 46.4592 80.6007 62.7526 93.4182 60.7974L93.7285 53.9386Z" fill="#FBBEAA"/>
<path d="M86.7767 55.0249C86.8846 55.0264 86.9909 54.9982 87.0839 54.9435C87.177 54.8888 87.2532 54.8096 87.3043 54.7145C87.4406 54.4459 87.6434 54.2165 87.8932 54.0481C88.143 53.8797 88.4317 53.778 88.7319 53.7524C89.09 53.7564 89.441 53.8527 89.7509 54.0321C90.0609 54.2116 90.3192 54.468 90.5009 54.7766C90.5751 54.8827 90.6821 54.9615 90.8055 55.0008C90.9289 55.0401 91.0618 55.0376 91.1836 54.9938C91.3151 54.9574 91.4287 54.8742 91.503 54.7599C91.5773 54.6456 91.6072 54.508 91.5871 54.3731C91.5334 53.0678 91.127 51.8013 90.4111 50.7084C89.6953 49.6155 88.6967 48.737 87.5215 48.1662C87.4426 48.1192 87.3541 48.0904 87.2627 48.0818C87.1712 48.0732 87.079 48.085 86.9926 48.1164C86.9063 48.1478 86.828 48.1979 86.7633 48.2632C86.6987 48.3285 86.6494 48.4074 86.6189 48.494C86.5885 48.5807 86.5777 48.6731 86.5872 48.7644C86.5968 48.8558 86.6265 48.9439 86.6743 49.0224C86.722 49.1009 86.7866 49.1678 86.8634 49.2183C86.9401 49.2688 87.0271 49.3017 87.1181 49.3144C87.8156 49.6535 88.4367 50.131 88.9436 50.7179C89.4505 51.3048 89.8326 51.9889 90.0664 52.7283C89.6333 52.5147 89.1518 52.4184 88.6698 52.449C88.1681 52.4964 87.6856 52.6654 87.2638 52.9411C86.8421 53.2169 86.4938 53.5912 86.2491 54.0318C86.1811 54.1728 86.1689 54.3343 86.215 54.4839C86.261 54.6336 86.3619 54.7603 86.4974 54.8387L86.7767 55.0249Z" fill="#F18380"/>
<path d="M52.6697 210.665C52.7716 212.721 52.4675 214.777 51.7748 216.715C51.082 218.654 50.0143 220.437 48.6324 221.963C47.2506 223.489 45.5817 224.728 43.7211 225.609C41.8605 226.49 39.8446 226.996 37.7884 227.098C35.7323 227.2 33.6762 226.895 31.7376 226.203C29.799 225.51 28.0159 224.442 26.4899 223.06C23.4082 220.27 21.5612 216.369 21.3554 212.216L14.1484 127.726L43.073 125.181L52.6697 210.665Z" fill="#FFA30F"/>
</svg>
