<svg width="242" height="417" viewBox="0 0 242 417" fill="none" xmlns="http://www.w3.org/2000/svg">
<path d="M77.3557 388.498C77.2597 396.279 80.2583 403.779 85.6921 409.349C91.1259 414.918 98.5497 418.101 106.33 418.197C114.111 418.293 121.611 415.294 127.18 409.861C132.75 404.427 135.933 397.003 136.029 389.223C136.029 389.223 139.741 280.931 141.009 258.988C142.277 237.046 136.542 219.45 111.853 216.915C86.2593 214.289 72.6172 234.3 72.6172 252.892C72.6172 271.484 77.3557 388.498 77.3557 388.498Z" fill="#7C7C7C"/>
<path d="M29.2156 386.416C28.7125 390.261 28.977 394.168 29.9937 397.911C31.0103 401.654 32.759 405.158 35.1385 408.22C37.518 411.283 40.4812 413.843 43.8566 415.753C47.232 417.663 50.9526 418.885 54.8032 419.348C58.6538 419.811 62.558 419.506 66.2898 418.45C70.0217 417.394 73.5072 415.609 76.5448 413.198C79.5823 410.786 82.1116 407.797 83.9862 404.401C85.8609 401.006 87.0438 397.273 87.4664 393.418C87.4664 393.418 102.738 286.152 106.36 264.481C109.982 242.811 106.149 224.672 81.8828 219.511C56.7112 214.168 40.9865 232.61 39.085 251.081C37.1836 269.552 29.2156 386.416 29.2156 386.416Z" fill="#7C7C7C"/>
<path d="M77.3555 388.499C77.403 384.646 78.2089 380.841 79.7271 377.299C81.2454 373.758 83.4462 370.551 86.204 367.86C88.9618 365.17 92.2226 363.049 95.8001 361.619C99.3776 360.188 103.202 359.476 107.054 359.524C110.907 359.572 114.712 360.377 118.253 361.896C121.794 363.414 125.002 365.615 127.692 368.373C130.383 371.13 132.504 374.391 133.934 377.969C135.365 381.546 136.076 385.37 136.029 389.223L129.992 560.754L82.6373 565.854L77.3555 388.499Z" fill="#7C7C7C"/>
<path d="M29.2156 386.416C30.2179 378.754 34.2029 371.796 40.305 367.055C46.4071 362.314 54.1334 360.172 61.8057 361.094C69.478 362.016 76.4765 365.928 81.2811 371.981C86.0858 378.033 88.3085 385.737 87.4664 393.418L61.2088 566.79H13.582L29.2156 386.416Z" fill="#7C7C7C"/>
<path d="M87.4362 393.418L60.3633 565.281" stroke="#565656" stroke-width="0.75" stroke-miterlimit="10" stroke-linecap="round"/>
<path d="M87.4668 393.418C87.4668 393.418 102.739 286.152 106.361 264.482" stroke="#565656" stroke-width="0.75" stroke-miterlimit="10" stroke-linecap="round"/>
<path d="M140.122 235.515C140.122 235.515 140.122 266.813 140.122 268.534C140.122 270.254 125.031 285.013 104.99 285.013C74.1748 285.013 37.2927 273.755 37.836 266.421C38.1982 261.592 38.6509 235.515 38.6509 235.515H140.122Z" fill="#7C7C7C"/>
<path d="M113.267 133.894C111.83 129.603 112.156 124.917 114.174 120.868C116.192 116.818 119.736 113.735 124.027 112.298C128.317 110.862 133.003 111.188 137.053 113.206C141.102 115.224 144.185 118.768 145.622 123.058L178.429 220.847C179.87 225.138 179.548 229.825 177.533 233.878C175.517 237.93 171.975 241.016 167.685 242.457C163.394 243.898 158.707 243.576 154.654 241.561C150.602 239.546 147.515 236.003 146.074 231.713L113.267 133.894Z" fill="#FBBEAA"/>
<path d="M196.508 154.688L150.571 212.697C143.176 221.571 141.516 232.376 152.171 240.072C154.161 241.477 156.414 242.466 158.795 242.98C161.176 243.494 163.637 243.522 166.029 243.063C168.422 242.603 170.697 241.666 172.718 240.307C174.74 238.948 176.467 237.195 177.795 235.153L218.057 166.459C223.4 158.914 222.736 151.64 216.911 147.656C209.908 142.887 203.6 145.211 196.508 154.688Z" fill="#FBBEAA"/>
<path d="M199.462 151.533C200.547 147.015 200.704 142.324 199.922 137.743C199.399 134.925 199.276 132.047 199.556 129.195C199.689 127.493 199.472 125.782 198.919 124.168C197.917 121.864 196.692 119.664 195.26 117.6C193.769 115.727 191.83 113.767 191.725 112.491C191.62 111.214 194.105 108.581 197.97 109.175C199.636 109.596 201.193 110.367 202.537 111.438C203.881 112.509 204.98 113.855 205.763 115.385C206.712 117.162 207.838 118.84 209.122 120.393L209.468 120.172C209.956 117.029 210.882 113.97 212.218 111.084C212.698 110.041 213.513 109.188 214.532 108.66C215.552 108.131 216.719 107.959 217.848 108.168C218.977 108.378 220.004 108.958 220.766 109.817C221.528 110.676 221.982 111.765 222.056 112.911C225.294 109.325 231.053 114.144 229.4 118.036C230.236 117.552 231.199 117.333 232.163 117.408C233.126 117.484 234.044 117.85 234.794 118.459C235.545 119.068 236.092 119.89 236.365 120.817C236.638 121.744 236.622 122.732 236.321 123.65C240.269 122.858 242.609 127.2 239.447 131.547C237.197 135.313 231.736 145.751 229.999 149.517C228.262 153.283 221.861 158.706 220.949 161.313C219.804 165.296 217.107 168.944 206.778 165.727C196.448 162.51 198.104 155.534 199.462 151.533Z" fill="#FBBEAA"/>
<path d="M209.434 120.744C209.476 120.706 209.524 120.677 209.577 120.659C209.63 120.64 209.687 120.632 209.743 120.636C209.799 120.639 209.854 120.653 209.904 120.678C209.955 120.703 210 120.738 210.036 120.78L210.793 121.279C211.228 121.577 211.96 121.983 212.837 122.489C213.714 122.995 214.383 123.428 215.255 124.025L220.362 114.443C220.365 114.403 220.383 114.365 220.413 114.339C220.443 114.312 220.482 114.299 220.522 114.301C220.562 114.303 220.599 114.322 220.626 114.351C220.652 114.381 220.666 114.421 220.664 114.461L216.562 124.919C217.362 125.577 218.098 126.31 218.76 127.106L219.153 127.614C219.229 127.646 219.314 127.651 219.394 127.628L219.923 127.871C220.074 127.88 220.285 127.893 220.466 127.904L221.55 127.968L222.062 127.999L228.101 119.531L228.282 119.542C228.282 119.542 228.433 119.551 228.269 119.752L223.432 128.867C223.485 129.047 223.525 129.232 223.55 129.418C223.604 129.553 223.678 129.68 223.769 129.794L223.989 130.17C223.989 130.17 224.155 130.422 224.24 130.518L224.523 130.837C224.645 130.931 224.77 131.02 224.901 131.101L225.25 131.334C225.38 131.415 225.518 131.484 225.661 131.54L226.082 131.565C226.384 131.583 226.715 131.603 227.006 131.801C227.296 132 227.608 131.837 227.909 131.855C228.129 131.883 228.351 131.897 228.572 131.895L234.586 125.36L234.797 125.373C234.797 125.373 234.797 125.373 234.785 125.584L229.714 133.021L229.68 133.594C229.711 133.851 229.756 134.106 229.816 134.358C229.802 134.599 230 134.822 230.078 135.039C230.155 135.255 230.386 135.45 230.524 135.67C230.606 135.762 230.704 135.84 230.812 135.899L231.129 136.16L231.866 136.476L232.65 136.523L233.614 136.58C233.664 136.575 233.715 136.58 233.763 136.595C233.812 136.61 233.856 136.636 233.894 136.669C233.932 136.703 233.962 136.744 233.983 136.79C234.004 136.836 234.015 136.886 234.016 136.937C234.031 136.991 234.034 137.048 234.025 137.104C234.016 137.16 233.995 137.213 233.963 137.26C233.932 137.307 233.891 137.347 233.842 137.376C233.794 137.406 233.74 137.424 233.684 137.431L232.737 137.586C232.365 137.594 231.992 137.572 231.623 137.52C231.268 137.45 230.92 137.348 230.583 137.216L230.085 136.944C229.918 136.851 229.763 136.741 229.621 136.614C229.327 136.363 229.07 136.073 228.856 135.752C228.655 135.425 228.483 135.081 228.343 134.723C228.231 134.366 228.162 133.996 228.136 133.623L226.69 133.536C226.299 133.513 225.877 133.488 225.498 133.253L224.938 133.008C224.741 132.953 224.552 132.871 224.378 132.763L223.856 132.399C223.672 132.296 223.507 132.163 223.365 132.007L222.94 131.528C222.777 131.387 222.643 131.215 222.547 131.021L222.278 130.461C222.291 130.25 222.029 130.083 222.011 129.87C222.049 129.744 222.058 129.609 222.034 129.479L221.402 129.441C221.16 129.456 220.917 129.441 220.679 129.398C220.457 129.416 220.234 129.403 220.016 129.358C220.251 129.8 220.456 130.256 220.63 130.725C220.84 131.334 220.994 131.961 221.092 132.597C221.187 133.151 221.244 133.71 221.265 134.271C221.232 134.813 221.203 135.295 221.178 135.717C221.153 136.138 221.131 136.5 221.113 136.801L221.058 137.735C221.039 137.834 220.988 137.924 220.913 137.99C220.838 138.057 220.743 138.097 220.643 138.104C220.587 138.104 220.532 138.094 220.48 138.073C220.428 138.053 220.381 138.022 220.341 137.983C220.301 137.944 220.27 137.898 220.248 137.847C220.226 137.796 220.215 137.741 220.214 137.685C220.214 137.685 220.234 137.353 220.268 136.781C220.269 136.449 220.289 136.117 220.327 135.787C220.351 135.395 220.227 134.934 220.164 134.477C220.121 133.963 220.04 133.453 219.922 132.951C219.802 132.43 219.53 131.929 219.383 131.346C219.142 130.792 218.871 130.251 218.573 129.726C218.247 129.195 217.883 128.688 217.484 128.209C216.728 127.22 215.845 126.334 214.86 125.573C213.909 124.791 212.983 124.101 212.17 123.538C211.357 122.975 210.694 122.422 210.204 122.03C209.969 121.822 209.75 121.597 209.549 121.356C209.499 121.325 209.456 121.284 209.423 121.235C209.39 121.187 209.368 121.133 209.357 121.075C209.346 121.018 209.347 120.958 209.361 120.902C209.374 120.845 209.399 120.791 209.434 120.744Z" fill="#F18380"/>
<path d="M150.103 242.823C148.258 242.524 146.734 241.221 146.151 239.445L111.696 134.406C110.807 132.055 110.401 129.549 110.503 127.037C110.605 124.525 111.213 122.06 112.29 119.788C113.367 117.517 114.892 115.486 116.772 113.818C118.653 112.15 120.851 110.878 123.235 110.08C125.618 109.281 128.139 108.972 130.645 109.17C133.151 109.369 135.591 110.071 137.819 111.235C140.047 112.399 142.018 114 143.613 115.944C145.207 117.887 146.393 120.132 147.1 122.545L168.64 191.027L197.69 150.282L221.835 165.373L177.808 242.065C176.151 244.952 172.878 246.511 169.591 245.979L150.103 242.823Z" fill="#0083DB"/>
<path d="M116.104 71.7186H79.7646V114.456H116.104V71.7186Z" fill="#FBBEAA"/>
<path d="M117.709 103.5C100.807 117.987 84.0059 109.536 78.4726 101.991L54.3271 112.555L60.3635 224.227L140.345 227.245L137.327 120.1L117.709 103.5Z" fill="white"/>
<path d="M79.8551 71.7186H116.073V95.5622C114.491 95.7587 112.899 95.8595 111.305 95.864C98.8093 95.864 84.8351 92.4535 79.7344 80.5317L79.8551 71.7186Z" fill="#F18380"/>
<path d="M140.219 113.128C136.99 111.015 116.074 98.9424 116.074 98.9424V258.121C118.393 260.38 118.867 260.326 122.196 259.949L122.352 259.932C129.55 258.125 136.495 255.428 143.026 251.904C143.026 251.904 145.803 136.126 146.497 127.313C147.191 118.5 143.449 115.241 140.219 113.128Z" fill="#0099FF"/>
<path d="M83.7972 259.893C85.2645 259.582 86.6543 258.98 87.8842 258.121L79.6747 97.3126C79.6747 97.3126 55.9821 106.941 49.6741 109.748C47.0519 110.853 44.8037 112.691 43.198 115.041C41.5924 117.39 40.6972 120.153 40.6195 122.997C40.2272 128.309 39.6839 246.048 39.5934 247.074C39.5028 248.101 40.3781 248.674 41.3137 249.217C42.2493 249.761 71.8275 258.393 79.3427 259.932C80.8152 260.217 82.3299 260.204 83.7972 259.893Z" fill="#0099FF"/>
<path d="M63.92 289.782L38.024 220.364C34.2513 209.408 25.9513 202.466 13.8786 207.567C11.6456 208.542 9.63234 209.958 7.95953 211.73C6.28673 213.502 4.98876 215.594 4.14334 217.879C3.29792 220.165 2.92246 222.597 3.03943 225.031C3.15641 227.465 3.76341 229.85 4.82411 232.044L42.7928 302.006C46.5051 310.487 53.0847 313.686 59.4833 310.758C67.1192 307.499 68.3265 300.798 63.92 289.782Z" fill="#FBBEAA"/>
<path d="M65.6693 295.245C67.6311 304.088 72.8525 321.654 73.5165 326.845C73.8959 331.829 73.622 336.842 72.7017 341.755C71.7776 345.387 70.4409 348.901 68.7177 352.228C67.6311 354.552 66.5144 354.884 65.1864 354.13C64.4431 353.574 63.8517 352.841 63.4667 351.997C63.0816 351.153 62.9153 350.226 62.9831 349.301C62.9831 349.301 61.2024 351.896 60.2668 353.194C59.3311 354.492 57.7617 354.733 56.4035 352.983C55.6208 351.651 55.1371 350.165 54.986 348.627C54.8349 347.09 55.0199 345.538 55.5282 344.079C55.5282 344.079 51.5443 349.119 50.3974 350.296C49.2504 351.474 48.4657 351.594 47.1679 350.719C46.2809 350.131 45.5653 349.318 45.0936 348.364C44.6218 347.41 44.4107 346.348 44.4817 345.286C44.9528 342.811 45.8407 340.433 47.1075 338.254C47.1075 338.254 41.0712 343.807 39.8337 344.864C38.5963 345.92 37.4796 345.467 36.8156 344.019C36.2846 343.116 35.9556 342.109 35.8514 341.067C35.7472 340.025 35.8701 338.972 36.2119 337.982C37.1475 334.964 39.2301 334.029 39.7734 333.033C40.3978 330.669 40.8816 328.27 41.2221 325.849C39.4715 318.243 41.373 315.225 41.5843 311.996C42.2188 308.453 42.2188 304.825 41.5843 301.281C41.2864 299.629 41.3215 297.933 41.6874 296.294C42.0534 294.655 42.743 293.106 43.7157 291.737C44.6883 290.368 45.9245 289.207 47.3517 288.322C48.7789 287.437 50.3685 286.845 52.0271 286.583C60.3271 284.983 64.0395 288.575 65.6693 295.245Z" fill="#FBBEAA"/>
<path d="M63.2856 348.485C63.2358 348.46 63.1916 348.425 63.1555 348.382C63.1194 348.339 63.0921 348.29 63.0753 348.236C63.0584 348.183 63.0523 348.127 63.0573 348.071C63.0624 348.015 63.0784 347.961 63.1046 347.912L64.4627 345.226C64.6438 344.843 64.8551 344.421 65.0966 343.958C65.338 343.475 65.4587 343.053 65.7002 342.57C65.8579 342.047 65.969 341.512 66.0322 340.97C66.0322 340.366 66.2435 339.793 66.3642 339.189C66.7867 336.835 67.2998 334.511 67.6922 332.791C68.0846 331.07 68.4166 329.773 68.4166 329.773C68.4381 329.679 68.493 329.597 68.5708 329.542C68.6486 329.486 68.744 329.461 68.8391 329.471C68.9484 329.485 69.0486 329.54 69.1209 329.623C69.1931 329.706 69.2324 329.813 69.2314 329.923C69.2314 329.923 69.2314 331.131 68.99 332.942C68.99 333.847 68.7486 334.903 68.5977 335.96C68.4467 337.016 68.2053 338.224 67.9638 339.401L67.6017 341.181C67.5079 341.775 67.3666 342.361 67.1791 342.932C66.9075 343.475 66.6358 344.018 66.3642 344.471L65.5795 345.709C65.0966 346.463 64.6438 347.097 64.342 347.519L63.8289 348.183C63.794 348.294 63.7183 348.386 63.6173 348.442C63.5163 348.498 63.3976 348.514 63.2856 348.485ZM56.4042 343.234L56.7362 342.721C56.9173 342.358 57.2493 341.936 57.5511 341.302C57.8529 340.668 57.8529 340.638 58.0038 340.276C58.1806 339.904 58.3319 339.521 58.4566 339.129C58.6679 338.344 58.9093 337.499 59.1508 336.654C59.5733 334.934 59.8751 333.213 60.1166 331.915C60.1166 331.765 60.1166 331.493 60.1166 331.523C60.1166 331.553 60.1166 331.221 60.2675 331.101C60.3446 330.884 60.4052 330.662 60.4486 330.437C60.4403 330.316 60.4403 330.195 60.4486 330.074C60.4787 329.966 60.4676 329.851 60.4174 329.75C60.3672 329.65 60.2815 329.572 60.1769 329.531C60.1092 329.488 60.0307 329.465 59.9506 329.465C59.8704 329.465 59.7919 329.488 59.7242 329.531C59.6096 329.661 59.5084 329.803 59.4224 329.954C59.2993 330.158 59.1884 330.37 59.0904 330.587C59.0089 330.701 58.9382 330.823 58.8791 330.95C58.8095 331.128 58.749 331.309 58.698 331.493C58.2755 332.73 57.7926 334.511 57.37 336.141C57.1889 336.986 56.9777 337.861 56.8267 338.646L56.4646 339.763C56.4646 340.095 56.2533 340.427 56.1627 340.729C56.0722 341.03 55.7704 341.845 55.6799 342.207C55.5893 342.57 55.4686 342.781 55.4686 342.781C55.4385 342.889 55.4496 343.004 55.4998 343.105C55.5499 343.205 55.6356 343.283 55.7402 343.324C55.8411 343.398 55.9667 343.43 56.0905 343.413C56.2143 343.396 56.3267 343.332 56.4042 343.234ZM47.7421 337.68C47.9588 337.301 48.1504 336.908 48.3155 336.503C48.3155 336.141 48.6777 335.718 48.8286 335.266C48.9795 334.813 49.0701 334.27 49.221 333.787C49.4404 332.791 49.6016 331.783 49.7038 330.769C49.7379 330.327 49.7379 329.883 49.7038 329.441C49.6962 329.326 49.6451 329.218 49.561 329.14C49.4769 329.061 49.3662 329.018 49.2511 329.018C49.1753 329.025 49.1024 329.05 49.0391 329.092C48.9758 329.135 48.9242 329.192 48.889 329.26C48.6773 329.658 48.4957 330.072 48.3457 330.497C48.0222 331.376 47.7501 332.273 47.5308 333.183C47.5308 333.696 47.3497 334.209 47.2591 334.662C47.1686 335.115 47.0781 335.598 46.9875 335.99C46.897 336.382 46.9875 337.288 46.9875 337.288C46.9866 337.406 47.0291 337.521 47.107 337.61C47.1849 337.699 47.2927 337.756 47.4101 337.771C47.5281 337.782 47.6463 337.75 47.7421 337.68Z" fill="#F18380"/>
<path d="M39.834 122.605C40.6049 120.503 41.7824 118.572 43.2993 116.925C44.8162 115.277 46.6427 113.945 48.6746 113.003C50.7065 112.061 52.904 111.529 55.1416 111.437C57.3792 111.344 59.6131 111.693 61.7158 112.464C63.8184 113.235 65.7487 114.413 67.3962 115.93C69.0438 117.446 70.3765 119.273 71.3182 121.305C72.2598 123.337 72.7921 125.534 72.8845 127.772C72.977 130.009 72.6278 132.243 71.8569 134.346L36.3329 231.199C34.5642 235.137 31.368 238.257 27.3889 239.931C23.4099 241.605 18.9442 241.707 14.8926 240.217C10.8411 238.728 7.50528 235.757 5.55809 231.904C3.6109 228.052 3.19726 223.604 4.40062 219.459L39.834 122.605Z" fill="#FBBEAA"/>
<path d="M1.42964 228.486C0.519158 226.735 0.390075 224.681 1.07417 222.83L38.3246 122.032C40.1686 117.571 43.6676 113.997 48.0884 112.059C52.5092 110.12 57.5087 109.968 62.0391 111.635C66.5695 113.301 70.2791 116.656 72.3906 120.997C74.5021 125.337 74.8515 130.327 73.3656 134.92L42.2545 228.755L67.909 293.645L39.2363 301.191L1.42964 228.486Z" fill="#0099FF"/>
<path d="M134.877 39.9981C134.575 52.3424 134.877 62.0911 132.643 71.5078C130.41 80.9245 123.589 88.6209 108.498 88.6209C93.4069 88.6209 76.2034 83.7012 74.9961 64.8376C72.5212 62.1515 68.507 52.5838 68.3561 41.8693C68.2052 31.1548 69.0503 8.4883 93.4673 5.0174C117.884 1.5465 135.541 10.5105 134.877 39.9981Z" fill="#FBBEAA"/>
<path d="M122.11 49.7167C122.11 51.3767 123.106 52.7348 124.344 52.7348C125.581 52.7348 126.577 51.3767 126.577 49.7167C126.577 48.0567 125.581 46.6985 124.344 46.6985C123.106 46.6985 122.11 47.9359 122.11 49.7167Z" fill="#403D4F"/>
<path d="M94.9463 49.7167C94.9463 51.3767 95.9423 52.7348 97.1797 52.7348C98.4172 52.7348 99.4132 51.3767 99.4132 49.7167C99.4132 48.0567 98.4172 46.6985 97.1797 46.6985C95.9423 46.6985 94.9463 47.9359 94.9463 49.7167Z" fill="#403D4F"/>
<path d="M100.409 43.4384C100.197 43.71 98.5979 43.4384 97.3906 43.4384C96.1833 43.4384 93.8594 43.4384 93.8594 43.1668C93.8594 42.8951 95.0062 41.0239 98.0244 41.3559C100.197 41.5973 100.982 42.9555 100.409 43.4384Z" fill="#403D4F"/>
<path d="M121.596 43.4383C121.777 43.71 123.136 43.4383 124.192 43.4383C125.248 43.4383 127.21 43.4383 127.21 43.1667C126.939 42.4826 126.428 41.9211 125.772 41.5876C125.116 41.2541 124.361 41.1717 123.649 41.3558C121.777 41.5973 121.264 42.9554 121.596 43.4383Z" fill="#403D4F"/>
<path d="M112.693 62.2117C114.806 62.2117 116.496 60.8233 116.556 59.8273L115.862 51.3161C115.839 51.1052 115.735 50.9115 115.572 50.7762C115.408 50.641 115.198 50.5748 114.987 50.5917C114.884 50.5993 114.783 50.6273 114.691 50.674C114.599 50.7206 114.516 50.7851 114.449 50.8636C114.382 50.9421 114.331 51.0332 114.299 51.1316C114.267 51.23 114.254 51.3337 114.263 51.4368L114.927 59.6462C114.622 59.977 114.246 60.2354 113.829 60.4025C113.411 60.5696 112.961 60.6412 112.512 60.6121C112.407 60.6039 112.3 60.6171 112.2 60.6509C112.1 60.6848 112.008 60.7386 111.929 60.8091C111.85 60.8796 111.786 60.9653 111.741 61.0611C111.696 61.1569 111.671 61.2608 111.667 61.3666C111.666 61.5807 111.747 61.7869 111.893 61.9438C112.038 62.1007 112.238 62.1964 112.452 62.2117H112.693Z" fill="#F18380"/>
<path d="M81.5391 45.6114C81.5391 57.79 75.5028 53.2627 75.5028 53.2627C73.9937 48.7354 71.3646 50.6822 67.9087 50.6822C64.4528 50.6822 64.8968 48.1652 61.4409 39.8652C58.6762 33.2252 61.8634 22.6746 63.9369 20.1208C60.4998 15.6177 65.161 12.9351 64.9998 13.6177C63.9369 18.1177 67.6213 13.595 69.4664 11.8208C89.1735 -7.12864 138.836 2.39135 138.836 2.39135L133.678 8.91867L146.381 5.40959C146.381 5.40959 145.552 12.2833 143.363 15.9732C141.54 19.0462 137.134 22.6746 137.134 22.6746L150.957 23.9516C150.957 23.9516 141.972 33.5285 129.531 34.8054C115.519 36.2434 100.501 29.6977 100.501 29.6977L106.03 36.0823C106.03 36.0823 92.0541 33.2318 87.5269 35.5913C84.6313 37.1004 81.5391 40.167 81.5391 45.6114Z" fill="#7D4A40"/>
<path d="M75.6599 55.4513C75.509 52.0106 74.9657 46.94 70.0763 46.8193C65.1869 46.6986 64.553 50.3807 64.704 56.1756C64.8549 61.9705 70.7403 66.8901 75.9014 64.8982L75.6599 55.4513Z" fill="#FBBEAA"/>
<path d="M68.477 59.6159C68.6886 59.5789 68.8772 59.4599 69.0015 59.2847C69.1259 59.1095 69.176 58.8922 69.141 58.6802C69.1412 58.5099 69.1894 58.3431 69.2802 58.1989C69.3709 58.0548 69.5005 57.9391 69.6541 57.8653C69.9621 57.659 70.3245 57.5489 70.6953 57.5489C71.0661 57.5489 71.4285 57.659 71.7366 57.8653C71.8706 57.9393 72.0212 57.9781 72.1742 57.9781C72.3273 57.9781 72.4779 57.9393 72.6119 57.8653C72.7349 57.7841 72.8335 57.671 72.8972 57.5381C72.961 57.4052 72.9876 57.2575 72.9741 57.1108C72.5515 52.2515 69.4428 51.3461 69.322 51.3159C69.219 51.2841 69.1105 51.2739 69.0034 51.2859C68.8962 51.2979 68.7926 51.3319 68.6992 51.3857C68.6057 51.4395 68.5243 51.512 68.4602 51.5986C68.396 51.6853 68.3503 51.7843 68.326 51.8893C68.2703 52.0894 68.2962 52.3035 68.3981 52.4845C68.4999 52.6656 68.6694 52.7989 68.8693 52.8552C69.4723 53.1281 69.9978 53.547 70.3982 54.0739C70.7987 54.6009 71.0616 55.2193 71.1631 55.8733C70.3361 55.7386 69.4883 55.9103 68.7788 56.3562C68.3654 56.5986 68.0313 56.9558 67.817 57.3844C67.6027 57.813 67.5174 58.2946 67.5715 58.7708C67.5664 58.8884 67.5869 59.0057 67.6314 59.1146C67.676 59.2235 67.7436 59.3215 67.8296 59.4018C67.9157 59.4821 68.0181 59.5429 68.1299 59.5798C68.2416 59.6167 68.36 59.629 68.477 59.6159Z" fill="#F18380"/>
<path d="M110.611 73.0774C107.697 72.965 104.899 71.9053 102.643 70.0592" stroke="#73102A" stroke-width="0.5" stroke-miterlimit="10" stroke-linecap="round"/>
<path d="M110.713 67.7358C106.488 66.3474 101.659 64.7176 99.999 66.6794C98.7012 68.0074 100.452 74.255 106.941 75.3416C113.43 76.4281 115.754 71.9612 115.422 70.2409C115.211 69.1845 114.033 68.8525 110.713 67.7358Z" fill="#73102A"/>
<path d="M100.15 66.5894H99.999C98.7012 67.9174 100.452 74.165 106.941 75.2515C108.351 75.5788 109.817 75.5788 111.227 75.2515C110.133 73.08 108.574 71.1773 106.659 69.6797C104.744 68.1821 102.521 67.1268 100.15 66.5894Z" fill="#D65155"/>
<path d="M101.658 65.9248C103.368 67.783 105.539 69.1555 107.951 69.903C110.363 70.6504 112.93 70.7461 115.391 70.1804C115.149 69.1542 113.942 68.8222 110.713 67.7357C107.847 66.5309 104.767 65.9151 101.658 65.9248Z" fill="white"/>
</svg>
