<svg width="71" height="72" viewBox="0 0 71 72" fill="none" xmlns="http://www.w3.org/2000/svg">
<mask id="path-1-inside-1_774_8154" fill="white">
<path fill-rule="evenodd" clip-rule="evenodd" d="M70.4189 11.7598C70.4189 11.7637 70.4189 11.7676 70.4189 11.7715L70.4189 61.7715C70.4189 67.2943 65.9418 71.7715 60.4189 71.7715L45.4189 71.7715C39.8961 71.7715 35.4189 67.2943 35.4189 61.7715L35.4189 35.7715L10.4189 35.7715C4.89609 35.7715 0.418941 31.2943 0.418942 25.7715L0.418943 10.7715C0.418943 5.24863 4.89609 0.771479 10.4189 0.771479L60.4189 0.771484C65.9418 0.771484 70.4189 5.24863 70.4189 10.7715L70.4189 11.7598Z"/>
</mask>
<path d="M70.4189 11.7598L69.9189 11.7598L69.9189 11.7604L70.4189 11.7598ZM70.4189 11.7715L70.9189 11.7715L70.4189 11.7715ZM70.4189 61.7715L70.9189 61.7715L70.4189 61.7715ZM60.4189 71.7715L60.4189 72.2715L60.4189 71.7715ZM45.4189 71.7715L45.4189 71.2715L45.4189 71.7715ZM35.4189 61.7715L35.9189 61.7715L35.4189 61.7715ZM35.4189 35.7715L35.9189 35.7715L35.9189 35.2715L35.4189 35.2715L35.4189 35.7715ZM0.418942 25.7715L-0.0810583 25.7715L0.418942 25.7715ZM0.418943 10.7715L0.918943 10.7715L0.418943 10.7715ZM69.9189 11.7604C69.9189 11.7641 69.9189 11.7678 69.9189 11.7715L70.9189 11.7715C70.9189 11.7674 70.9189 11.7633 70.9189 11.7592L69.9189 11.7604ZM69.9189 11.7715L69.9189 12.733L70.9189 12.733L70.9189 11.7715L69.9189 11.7715ZM69.9189 14.6561L69.9189 16.5792L70.9189 16.5792L70.9189 14.6561L69.9189 14.6561ZM69.9189 18.5023L69.9189 20.4253L70.9189 20.4253L70.9189 18.5023L69.9189 18.5023ZM69.9189 22.3484L69.9189 24.2715L70.9189 24.2715L70.9189 22.3484L69.9189 22.3484ZM69.9189 26.1946L69.9189 28.1176L70.9189 28.1176L70.9189 26.1946L69.9189 26.1946ZM69.9189 30.0407L69.9189 31.9638L70.9189 31.9638L70.9189 30.0407L69.9189 30.0407ZM69.9189 33.8869L69.9189 35.8099L70.9189 35.8099L70.9189 33.8869L69.9189 33.8869ZM69.9189 37.733L69.9189 39.6561L70.9189 39.6561L70.9189 37.733L69.9189 37.733ZM69.9189 41.5792L69.9189 43.5023L70.9189 43.5023L70.9189 41.5792L69.9189 41.5792ZM69.9189 45.4253L69.9189 47.3484L70.9189 47.3484L70.9189 45.4253L69.9189 45.4253ZM69.9189 49.2715L69.9189 51.1946L70.9189 51.1946L70.9189 49.2715L69.9189 49.2715ZM69.9189 53.1176L69.9189 55.0407L70.9189 55.0407L70.9189 53.1176L69.9189 53.1176ZM69.9189 56.9638L69.9189 58.8869L70.9189 58.8869L70.9189 56.9638L69.9189 56.9638ZM69.9189 60.8099L69.9189 61.7715L70.9189 61.7715L70.9189 60.8099L69.9189 60.8099ZM69.9189 61.7715C69.9189 62.0861 69.9037 62.3971 69.8738 62.7036L70.8691 62.8005C70.9021 62.4618 70.9189 62.1185 70.9189 61.7715L69.9189 61.7715ZM69.5123 64.5303C69.3303 65.1309 69.0905 65.7063 68.7992 66.2502L69.6807 66.7224C70.0028 66.1211 70.2681 65.4846 70.4693 64.8203L69.5123 64.5303ZM67.763 67.7981C67.3679 68.279 66.9265 68.7204 66.4456 69.1156L67.0804 69.8882C67.6116 69.4517 68.0992 68.9642 68.5357 68.4329L67.763 67.7981ZM64.8977 70.1517C64.3538 70.443 63.7783 70.6829 63.1778 70.8648L63.4678 71.8219C64.1321 71.6206 64.7685 71.3553 65.3698 71.0332L64.8977 70.1517ZM61.3511 71.2264C61.0445 71.2562 60.7336 71.2715 60.4189 71.2715L60.4189 72.2715C60.766 72.2715 61.1093 72.2546 61.4479 72.2217L61.3511 71.2264ZM60.4189 71.2715L59.4814 71.2715L59.4814 72.2715L60.4189 72.2715L60.4189 71.2715ZM57.6064 71.2715L55.7314 71.2715L55.7314 72.2715L57.6064 72.2715L57.6064 71.2715ZM53.8564 71.2715L51.9814 71.2715L51.9814 72.2715L53.8564 72.2715L53.8564 71.2715ZM50.1064 71.2715L48.2314 71.2715L48.2314 72.2715L50.1064 72.2715L50.1064 71.2715ZM46.3564 71.2715L45.4189 71.2715L45.4189 72.2715L46.3564 72.2715L46.3564 71.2715ZM45.4189 71.2715C45.1043 71.2715 44.7934 71.2562 44.4868 71.2264L44.39 72.2217C44.7286 72.2546 45.0719 72.2715 45.4189 72.2715L45.4189 71.2715ZM42.6601 70.8648C42.0596 70.6829 41.4841 70.443 40.9402 70.1517L40.4681 71.0332C41.0694 71.3553 41.7058 71.6206 42.3701 71.8219L42.6601 70.8648ZM39.3923 69.1156C38.9114 68.7204 38.47 68.279 38.0749 67.7981L37.3022 68.4329C37.7387 68.9642 38.2263 69.4517 38.7575 69.8882L39.3923 69.1156ZM37.0387 66.2502C36.7474 65.7063 36.5075 65.1309 36.3256 64.5303L35.3686 64.8203C35.5698 65.4846 35.8351 66.121 36.1572 66.7224L37.0387 66.2502ZM35.9641 62.7036C35.9342 62.3971 35.9189 62.0861 35.9189 61.7715L34.9189 61.7715C34.9189 62.1185 34.9358 62.4618 34.9688 62.8005L35.9641 62.7036ZM35.9189 61.7715L35.9189 60.8429L34.9189 60.8429L34.9189 61.7715L35.9189 61.7715ZM35.9189 58.9858L35.9189 57.1286L34.9189 57.1286L34.9189 58.9858L35.9189 58.9858ZM35.9189 55.2715L35.9189 53.4143L34.9189 53.4143L34.9189 55.2715L35.9189 55.2715ZM35.9189 51.5572L35.9189 49.7001L34.9189 49.7001L34.9189 51.5572L35.9189 51.5572ZM35.9189 47.8429L35.9189 45.9858L34.9189 45.9858L34.9189 47.8429L35.9189 47.8429ZM35.9189 44.1286L35.9189 42.2715L34.9189 42.2715L34.9189 44.1286L35.9189 44.1286ZM35.9189 40.4143L35.9189 38.5572L34.9189 38.5572L34.9189 40.4143L35.9189 40.4143ZM35.9189 36.7L35.9189 35.7715L34.9189 35.7715L34.9189 36.7001L35.9189 36.7ZM35.4189 35.2715L34.3773 35.2715L34.3773 36.2715L35.4189 36.2715L35.4189 35.2715ZM32.2939 35.2715L30.2106 35.2715L30.2106 36.2715L32.2939 36.2715L32.2939 35.2715ZM28.1273 35.2715L26.0439 35.2715L26.0439 36.2715L28.1273 36.2715L28.1273 35.2715ZM23.9606 35.2715L21.8773 35.2715L21.8773 36.2715L23.9606 36.2715L23.9606 35.2715ZM19.7939 35.2715L17.7106 35.2715L17.7106 36.2715L19.7939 36.2715L19.7939 35.2715ZM15.6273 35.2715L13.5439 35.2715L13.5439 36.2715L15.6273 36.2715L15.6273 35.2715ZM11.4606 35.2715L10.4189 35.2715L10.4189 36.2715L11.4606 36.2715L11.4606 35.2715ZM10.4189 35.2715C10.1043 35.2715 9.79336 35.2562 9.48682 35.2264L9.38996 36.2217C9.72864 36.2546 10.0719 36.2715 10.4189 36.2715L10.4189 35.2715ZM7.66009 34.8648C7.05955 34.6829 6.4841 34.443 5.94021 34.1517L5.46806 35.0332C6.06938 35.3553 6.7058 35.6206 7.37013 35.8219L7.66009 34.8648ZM4.39232 33.1156C3.91142 32.7204 3.46999 32.279 3.07487 31.7981L2.30221 32.4329C2.73868 32.9641 3.22627 33.4517 3.7575 33.8882L4.39232 33.1156ZM2.03871 30.2502C1.74739 29.7063 1.50754 29.1309 1.3256 28.5303L0.368557 28.8203C0.569828 29.4846 0.835117 30.121 1.15719 30.7224L2.03871 30.2502ZM0.964054 26.7036C0.934223 26.3971 0.918942 26.0861 0.918942 25.7715L-0.0810583 25.7715C-0.0810583 26.1185 -0.064205 26.4618 -0.0312461 26.8005L0.964054 26.7036ZM0.918942 25.7715L0.918942 24.834L-0.0810582 24.834L-0.0810583 25.7715L0.918942 25.7715ZM0.918942 22.959L0.918942 21.084L-0.0810579 21.084L-0.081058 22.959L0.918942 22.959ZM0.918942 19.209L0.918942 17.334L-0.0810576 17.334L-0.0810577 19.209L0.918942 19.209ZM0.918943 15.459L0.918943 13.584L-0.0810572 13.584L-0.0810574 15.459L0.918943 15.459ZM0.918943 11.709L0.918943 10.7715L-0.081057 10.7715L-0.0810571 11.709L0.918943 11.709ZM0.918943 10.7715C0.918943 10.4568 0.934225 10.1459 0.964056 9.83936L-0.0312446 9.7425C-0.0642036 10.0812 -0.081057 10.4244 -0.081057 10.7715L0.918943 10.7715ZM1.3256 8.01262C1.50754 7.41209 1.7474 6.83664 2.03871 6.29275L1.15719 5.8206C0.835119 6.42191 0.56983 7.05834 0.368559 7.72267L1.3256 8.01262ZM3.07487 4.74486C3.46999 4.26396 3.91142 3.82253 4.39232 3.4274L3.7575 2.65475C3.22627 3.09121 2.73868 3.57881 2.30221 4.11003L3.07487 4.74486ZM5.94021 2.39124C6.48411 2.09993 7.05955 1.86008 7.66009 1.67813L7.37013 0.721094C6.70581 0.922365 6.06938 1.18765 5.46806 1.50973L5.94021 2.39124ZM9.48683 1.31659C9.79336 1.28676 10.1043 1.27148 10.4189 1.27148L10.4189 0.271479C10.0719 0.271479 9.72864 0.288332 9.38996 0.321291L9.48683 1.31659ZM10.4189 1.27148L11.3805 1.27148L11.3805 0.271479L10.4189 0.271479L10.4189 1.27148ZM13.3036 1.27148L15.2266 1.27148L15.2266 0.27148L13.3036 0.271479L13.3036 1.27148ZM17.1497 1.27148L19.0728 1.27148L19.0728 0.27148L17.1497 0.27148L17.1497 1.27148ZM20.9959 1.27148L22.9189 1.27148L22.9189 0.27148L20.9959 0.27148L20.9959 1.27148ZM24.842 1.27148L26.7651 1.27148L26.7651 0.271481L24.842 0.27148L24.842 1.27148ZM28.6882 1.27148L30.6113 1.27148L30.6113 0.271481L28.6882 0.271481L28.6882 1.27148ZM32.5343 1.27148L34.4574 1.27148L34.4574 0.271481L32.5343 0.271481L32.5343 1.27148ZM36.3805 1.27148L38.3036 1.27148L38.3036 0.271482L36.3805 0.271481L36.3805 1.27148ZM40.2266 1.27148L42.1497 1.27148L42.1497 0.271482L40.2266 0.271482L40.2266 1.27148ZM44.0728 1.27148L45.9959 1.27148L45.9959 0.271482L44.0728 0.271482L44.0728 1.27148ZM47.9189 1.27148L49.842 1.27148L49.842 0.271483L47.9189 0.271482L47.9189 1.27148ZM51.7651 1.27148L53.6882 1.27148L53.6882 0.271483L51.7651 0.271483L51.7651 1.27148ZM55.6112 1.27148L57.5343 1.27148L57.5343 0.271483L55.6112 0.271483L55.6112 1.27148ZM59.4574 1.27148L60.4189 1.27148L60.4189 0.271484L59.4574 0.271483L59.4574 1.27148ZM60.4189 1.27148C60.7336 1.27148 61.0445 1.28677 61.3511 1.3166L61.4479 0.321296C61.1092 0.288337 60.766 0.271484 60.4189 0.271484L60.4189 1.27148ZM63.1778 1.67814C63.7783 1.86008 64.3538 2.09994 64.8977 2.39125L65.3698 1.50973C64.7685 1.18766 64.1321 0.92237 63.4678 0.721099L63.1778 1.67814ZM66.4456 3.42741C66.9265 3.82253 67.3679 4.26396 67.763 4.74487L68.5357 4.11004C68.0992 3.57881 67.6116 3.09122 67.0804 2.65475L66.4456 3.42741ZM68.7992 6.29275C69.0905 6.83665 69.3303 7.41209 69.5123 8.01263L70.4693 7.72268C70.2681 7.05834 70.0028 6.42192 69.6807 5.8206L68.7992 6.29275ZM69.8738 9.83937C69.9037 10.1459 69.9189 10.4568 69.9189 10.7715L70.9189 10.7715C70.9189 10.4244 70.9021 10.0812 70.8691 9.7425L69.8738 9.83937ZM69.9189 10.7715L69.9189 11.0186L70.9189 11.0186L70.9189 10.7715L69.9189 10.7715ZM69.9189 11.5127L69.9189 11.7598L70.9189 11.7598L70.9189 11.5127L69.9189 11.5127ZM70.4189 11.7598L69.4189 11.7598L69.4189 11.7609L70.4189 11.7598ZM70.4189 11.7715L71.4189 11.7715L70.4189 11.7715ZM70.4189 61.7715L71.4189 61.7715L70.4189 61.7715ZM60.4189 71.7715L60.4189 72.7715L60.4189 71.7715ZM45.4189 71.7715L45.4189 70.7715L45.4189 71.7715ZM35.4189 61.7715L36.4189 61.7715L35.4189 61.7715ZM35.4189 35.7715L36.4189 35.7715L36.4189 34.7715L35.4189 34.7715L35.4189 35.7715ZM0.418942 25.7715L-0.581058 25.7715L0.418942 25.7715ZM0.418943 10.7715L1.41894 10.7715L0.418943 10.7715ZM69.4189 11.7609C69.4189 11.7644 69.4189 11.768 69.4189 11.7715L71.4189 11.7715C71.4189 11.7672 71.4189 11.7629 71.4189 11.7586L69.4189 11.7609ZM69.4189 11.7715L69.4189 12.733L71.4189 12.733L71.4189 11.7715L69.4189 11.7715ZM69.4189 14.6561L69.4189 16.5792L71.4189 16.5792L71.4189 14.6561L69.4189 14.6561ZM69.4189 18.5023L69.4189 20.4253L71.4189 20.4253L71.4189 18.5023L69.4189 18.5023ZM69.4189 22.3484L69.4189 24.2715L71.4189 24.2715L71.4189 22.3484L69.4189 22.3484ZM69.4189 26.1946L69.4189 28.1176L71.4189 28.1176L71.4189 26.1946L69.4189 26.1946ZM69.4189 30.0407L69.4189 31.9638L71.4189 31.9638L71.4189 30.0407L69.4189 30.0407ZM69.4189 33.8869L69.4189 35.8099L71.4189 35.8099L71.4189 33.8869L69.4189 33.8869ZM69.4189 37.733L69.4189 39.6561L71.4189 39.6561L71.4189 37.733L69.4189 37.733ZM69.4189 41.5792L69.4189 43.5023L71.4189 43.5023L71.4189 41.5792L69.4189 41.5792ZM69.4189 45.4253L69.4189 47.3484L71.4189 47.3484L71.4189 45.4253L69.4189 45.4253ZM69.4189 49.2715L69.4189 51.1946L71.4189 51.1946L71.4189 49.2715L69.4189 49.2715ZM69.4189 53.1176L69.4189 55.0407L71.4189 55.0407L71.4189 53.1176L69.4189 53.1176ZM69.4189 56.9638L69.4189 58.8869L71.4189 58.8869L71.4189 56.9638L69.4189 56.9638ZM69.4189 60.8099L69.4189 61.7715L71.4189 61.7715L71.4189 60.8099L69.4189 60.8099ZM69.4189 61.7715C69.4189 62.0699 69.4045 62.3647 69.3762 62.6552L71.3668 62.8489C71.4013 62.4942 71.4189 62.1347 71.4189 61.7715L69.4189 61.7715ZM69.0338 64.3854C68.8615 64.954 68.6344 65.499 68.3584 66.0141L70.1215 66.9584C70.4589 66.3284 70.7369 65.6615 70.9479 64.9653L69.0338 64.3854ZM67.3767 67.4807C67.0022 67.9364 66.5839 68.3548 66.1281 68.7292L67.3978 70.2745C67.9542 69.8174 68.4649 69.3067 68.922 68.7503L67.3767 67.4807ZM64.6616 69.711C64.1464 69.9869 63.6015 70.214 63.0328 70.3863L63.6127 72.3004C64.309 72.0895 64.9759 71.8114 65.6059 71.474L64.6616 69.711ZM61.3026 70.7287C61.0122 70.757 60.7174 70.7715 60.4189 70.7715L60.4189 72.7715C60.7822 72.7715 61.1416 72.7538 61.4964 72.7193L61.3026 70.7287ZM60.4189 70.7715L59.4814 70.7715L59.4814 72.7715L60.4189 72.7715L60.4189 70.7715ZM57.6064 70.7715L55.7314 70.7715L55.7314 72.7715L57.6064 72.7715L57.6064 70.7715ZM53.8564 70.7715L51.9814 70.7715L51.9814 72.7715L53.8564 72.7715L53.8564 70.7715ZM50.1064 70.7715L48.2314 70.7715L48.2314 72.7715L50.1064 72.7715L50.1064 70.7715ZM46.3564 70.7715L45.4189 70.7715L45.4189 72.7715L46.3564 72.7715L46.3564 70.7715ZM45.4189 70.7715C45.1205 70.7715 44.8257 70.757 44.5353 70.7287L44.3415 72.7193C44.6963 72.7538 45.0557 72.7715 45.4189 72.7715L45.4189 70.7715ZM42.8051 70.3863C42.2364 70.214 41.6915 69.9869 41.1763 69.711L40.232 71.474C40.862 71.8114 41.5289 72.0895 42.2252 72.3004L42.8051 70.3863ZM39.7097 68.7292C39.254 68.3548 38.8356 67.9364 38.4612 67.4807L36.9159 68.7503C37.373 69.3067 37.8837 69.8174 38.4401 70.2745L39.7097 68.7292ZM37.4795 66.0141C37.2035 65.499 36.9764 64.954 36.8041 64.3854L34.89 64.9653C35.101 65.6615 35.379 66.3284 35.7164 66.9584L37.4795 66.0141ZM36.4617 62.6552C36.4334 62.3647 36.4189 62.0699 36.4189 61.7715L34.4189 61.7715C34.4189 62.1347 34.4366 62.4941 34.4711 62.8489L36.4617 62.6552ZM36.4189 61.7715L36.4189 60.8429L34.4189 60.8429L34.4189 61.7715L36.4189 61.7715ZM36.4189 58.9858L36.4189 57.1286L34.4189 57.1286L34.4189 58.9858L36.4189 58.9858ZM36.4189 55.2715L36.4189 53.4143L34.4189 53.4143L34.4189 55.2715L36.4189 55.2715ZM36.4189 51.5572L36.4189 49.7001L34.4189 49.7001L34.4189 51.5572L36.4189 51.5572ZM36.4189 47.8429L36.4189 45.9858L34.4189 45.9858L34.4189 47.8429L36.4189 47.8429ZM36.4189 44.1286L36.4189 42.2715L34.4189 42.2715L34.4189 44.1286L36.4189 44.1286ZM36.4189 40.4143L36.4189 38.5572L34.4189 38.5572L34.4189 40.4143L36.4189 40.4143ZM36.4189 36.7L36.4189 35.7715L34.4189 35.7715L34.4189 36.7001L36.4189 36.7ZM35.4189 34.7715L34.3773 34.7715L34.3773 36.7715L35.4189 36.7715L35.4189 34.7715ZM32.2939 34.7715L30.2106 34.7715L30.2106 36.7715L32.2939 36.7715L32.2939 34.7715ZM28.1273 34.7715L26.0439 34.7715L26.0439 36.7715L28.1273 36.7715L28.1273 34.7715ZM23.9606 34.7715L21.8773 34.7715L21.8773 36.7715L23.9606 36.7715L23.9606 34.7715ZM19.7939 34.7715L17.7106 34.7715L17.7106 36.7715L19.7939 36.7715L19.7939 34.7715ZM15.6273 34.7715L13.5439 34.7715L13.5439 36.7715L15.6273 36.7715L15.6273 34.7715ZM11.4606 34.7715L10.4189 34.7715L10.4189 36.7715L11.4606 36.7715L11.4606 34.7715ZM10.4189 34.7715C10.1205 34.7715 9.82572 34.757 9.53525 34.7287L9.34153 36.7193C9.69628 36.7538 10.0557 36.7715 10.4189 36.7715L10.4189 34.7715ZM7.80506 34.3863C7.23643 34.214 6.69147 33.9869 6.17629 33.711L5.23198 35.474C5.86201 35.8114 6.52893 36.0894 7.22515 36.3004L7.80506 34.3863ZM4.70974 32.7292C4.25399 32.3548 3.83564 31.9364 3.46119 31.4807L1.91589 32.7503C2.37302 33.3067 2.8837 33.8174 3.44008 34.2745L4.70974 32.7292ZM2.47947 30.0141C2.20353 29.499 1.9764 28.954 1.80411 28.3854L-0.109966 28.9653C0.100971 29.6615 0.378979 30.3284 0.716434 30.9584L2.47947 30.0141ZM1.4617 26.6552C1.43344 26.3647 1.41894 26.0699 1.41894 25.7715L-0.581058 25.7715C-0.581058 26.1347 -0.563419 26.4941 -0.528896 26.8489L1.4617 26.6552ZM1.41894 25.7715L1.41894 24.834L-0.581058 24.834L-0.581058 25.7715L1.41894 25.7715ZM1.41894 22.959L1.41894 21.084L-0.581058 21.084L-0.581058 22.959L1.41894 22.959ZM1.41894 19.209L1.41894 17.334L-0.581058 17.334L-0.581058 19.209L1.41894 19.209ZM1.41894 15.459L1.41894 13.584L-0.581057 13.584L-0.581057 15.459L1.41894 15.459ZM1.41894 11.709L1.41894 10.7715L-0.581057 10.7715L-0.581057 11.709L1.41894 11.709ZM1.41894 10.7715C1.41894 10.473 1.43344 10.1783 1.46171 9.88779L-0.528895 9.69406C-0.563418 10.0488 -0.581057 10.4082 -0.581057 10.7715L1.41894 10.7715ZM1.80411 8.1576C1.97639 7.58897 2.20353 7.044 2.47947 6.52883L0.716436 5.58452C0.378981 6.21455 0.100973 6.88146 -0.109964 7.57769L1.80411 8.1576ZM3.4612 5.06227C3.83565 4.60653 4.254 4.18818 4.70974 3.81373L3.44008 2.26842C2.8837 2.72556 2.37302 3.23623 1.91589 3.79262L3.4612 5.06227ZM6.17629 2.832C6.69147 2.55606 7.23643 2.32893 7.80507 2.15665L7.22516 0.242571C6.52893 0.453509 5.86201 0.731516 5.23199 1.06897L6.17629 2.832ZM9.53526 1.81424C9.82572 1.78597 10.1205 1.77148 10.4189 1.77148L10.4189 -0.228521C10.0557 -0.228521 9.69628 -0.210882 9.34153 -0.176359L9.53526 1.81424ZM10.4189 1.77148L11.3805 1.77148L11.3805 -0.228521L10.4189 -0.228521L10.4189 1.77148ZM13.3036 1.77148L15.2266 1.77148L15.2266 -0.22852L13.3036 -0.228521L13.3036 1.77148ZM17.1497 1.77148L19.0728 1.77148L19.0728 -0.22852L17.1497 -0.22852L17.1497 1.77148ZM20.9959 1.77148L22.9189 1.77148L22.9189 -0.22852L20.9959 -0.22852L20.9959 1.77148ZM24.842 1.77148L26.7651 1.77148L26.7651 -0.228519L24.842 -0.22852L24.842 1.77148ZM28.6882 1.77148L30.6113 1.77148L30.6113 -0.228519L28.6882 -0.228519L28.6882 1.77148ZM32.5343 1.77148L34.4574 1.77148L34.4574 -0.228519L32.5343 -0.228519L32.5343 1.77148ZM36.3805 1.77148L38.3036 1.77148L38.3036 -0.228518L36.3805 -0.228519L36.3805 1.77148ZM40.2266 1.77148L42.1497 1.77148L42.1497 -0.228518L40.2266 -0.228518L40.2266 1.77148ZM44.0728 1.77148L45.9959 1.77148L45.9959 -0.228518L44.0728 -0.228518L44.0728 1.77148ZM47.9189 1.77148L49.842 1.77148L49.842 -0.228517L47.9189 -0.228518L47.9189 1.77148ZM51.7651 1.77148L53.6882 1.77148L53.6882 -0.228517L51.7651 -0.228517L51.7651 1.77148ZM55.6112 1.77148L57.5343 1.77148L57.5343 -0.228517L55.6112 -0.228517L55.6112 1.77148ZM59.4574 1.77148L60.4189 1.77148L60.4189 -0.228516L59.4574 -0.228517L59.4574 1.77148ZM60.4189 1.77148C60.7174 1.77148 61.0122 1.78598 61.3026 1.81425L61.4964 -0.176354C61.1416 -0.210877 60.7822 -0.228516 60.4189 -0.228516L60.4189 1.77148ZM63.0328 2.15665C63.6015 2.32894 64.1464 2.55607 64.6616 2.83201L65.6059 1.06898C64.9759 0.731521 64.309 0.453514 63.6127 0.242576L63.0328 2.15665ZM66.1281 3.81374C66.5839 4.18819 67.0022 4.60654 67.3767 5.06228L68.922 3.79263C68.4649 3.23624 67.9542 2.72556 67.3978 2.26843L66.1281 3.81374ZM68.3584 6.52883C68.6344 7.04401 68.8615 7.58897 69.0338 8.15761L70.9479 7.5777C70.7369 6.88147 70.4589 6.21455 70.1214 5.58453L68.3584 6.52883ZM69.3762 9.8878C69.4044 10.1783 69.4189 10.473 69.4189 10.7715L71.4189 10.7715C71.4189 10.4082 71.4013 10.0488 71.3668 9.69407L69.3762 9.8878ZM69.4189 10.7715L69.4189 11.0186L71.4189 11.0186L71.4189 10.7715L69.4189 10.7715ZM69.4189 11.5127L69.4189 11.7598L71.4189 11.7598L71.4189 11.5127L69.4189 11.5127Z" fill="#003399" mask="url(#path-1-inside-1_774_8154)"/>
</svg>
