<svg width="71" height="71" viewBox="0 0 71 71" fill="none" xmlns="http://www.w3.org/2000/svg">
<mask id="path-1-inside-1_774_8142" fill="white">
<path fill-rule="evenodd" clip-rule="evenodd" d="M0.418948 60.7715C0.418948 66.2943 4.8961 70.7715 10.4189 70.7715H25.4189H60.4189C65.9418 70.7715 70.4189 66.2943 70.4189 60.7715V45.7715C70.4189 40.2486 65.9418 35.7715 60.4189 35.7715H35.4189L35.4189 10.7715C35.4189 5.24864 30.9418 0.771484 25.4189 0.771484H10.4189C4.8961 0.771484 0.418945 5.24864 0.418945 10.7715L0.418948 45.7715V60.7715Z"/>
</mask>
<path d="M35.4189 35.7715H34.9189V36.2715H35.4189V35.7715ZM35.4189 10.7715H34.9189H35.4189ZM0.418945 10.7715H-0.0810547H0.418945ZM0.418948 45.7715H0.918948H0.418948ZM10.4189 70.2715C10.1043 70.2715 9.79336 70.2562 9.48683 70.2264L9.38997 71.2217C9.72864 71.2546 10.0719 71.2715 10.4189 71.2715V70.2715ZM7.66009 69.8648C7.05956 69.6829 6.48411 69.443 5.94022 69.1517L5.46806 70.0332C6.06938 70.3553 6.70581 70.6206 7.37014 70.8219L7.66009 69.8648ZM4.39233 68.1156C3.91143 67.7204 3.46999 67.279 3.07487 66.7981L2.30222 67.4329C2.73868 67.9642 3.22628 68.4518 3.7575 68.8882L4.39233 68.1156ZM2.03872 65.2502C1.7474 64.7063 1.50754 64.1309 1.3256 63.5303L0.36856 63.8203C0.569833 64.4846 0.835124 65.121 1.1572 65.7224L2.03872 65.2502ZM0.96406 61.7036C0.934228 61.3971 0.918948 61.0861 0.918948 60.7715H-0.0810521C-0.0810521 61.1185 -0.064198 61.4618 -0.0312377 61.8005L0.96406 61.7036ZM0.918948 60.7715V59.834H-0.0810521V60.7715H0.918948ZM0.918948 57.959V56.084H-0.0810521V57.959H0.918948ZM0.918948 54.209V52.334H-0.0810521V54.209H0.918948ZM0.918948 50.459V48.584H-0.0810521V50.459H0.918948ZM0.918948 46.709V45.7715H-0.0810521V46.709H0.918948ZM0.918948 45.7715L0.918948 44.7993H-0.0810521L-0.0810521 45.7715H0.918948ZM0.918948 42.8548L0.918948 40.9104H-0.0810524L-0.0810523 42.8548H0.918948ZM0.918947 38.9659L0.918947 37.0215H-0.0810527L-0.0810526 38.9659L0.918947 38.9659ZM0.918947 35.077L0.918947 33.1326H-0.081053L-0.0810529 35.077L0.918947 35.077ZM0.918947 31.1882L0.918947 29.2437H-0.0810533L-0.0810532 31.1882H0.918947ZM0.918947 27.2993L0.918946 25.3548H-0.0810536L-0.0810534 27.2993H0.918947ZM0.918946 23.4104L0.918946 21.4659H-0.0810539L-0.0810537 23.4104H0.918946ZM0.918946 19.5215L0.918946 17.577H-0.0810542L-0.081054 19.5215H0.918946ZM0.918946 15.6326L0.918946 13.6881H-0.0810545L-0.0810543 15.6326H0.918946ZM0.918945 11.7437L0.918945 10.7715H-0.0810547L-0.0810546 11.7437H0.918945ZM0.918945 10.7715C0.918945 10.4568 0.934225 10.1459 0.964057 9.83937L-0.0312403 9.7425C-0.0642006 10.0812 -0.0810547 10.4244 -0.0810547 10.7715H0.918945ZM1.3256 8.01263C1.50754 7.4121 1.7474 6.83665 2.03871 6.29276L1.1572 5.8206C0.835122 6.42192 0.569831 7.05834 0.368558 7.72267L1.3256 8.01263ZM3.07487 4.74487C3.46999 4.26396 3.91142 3.82253 4.39233 3.42741L3.7575 2.65476C3.22628 3.09122 2.73868 3.57881 2.30222 4.11004L3.07487 4.74487ZM5.94022 2.39125C6.48411 2.09993 7.05956 1.86008 7.66009 1.67814L7.37014 0.721096C6.70581 0.92237 6.06938 1.18766 5.46806 1.50974L5.94022 2.39125ZM9.48683 1.3166C9.79336 1.28676 10.1043 1.27148 10.4189 1.27148V0.271484C10.0719 0.271484 9.72864 0.288338 9.38996 0.321299L9.48683 1.3166ZM10.4189 1.27148H11.3564V0.271484H10.4189V1.27148ZM13.2314 1.27148H15.1064V0.271484H13.2314V1.27148ZM16.9814 1.27148H18.8564V0.271484H16.9814V1.27148ZM20.7314 1.27148H22.6064V0.271484H20.7314V1.27148ZM24.4814 1.27148H25.4189V0.271484H24.4814V1.27148ZM25.4189 1.27148C25.7336 1.27148 26.0445 1.28676 26.3511 1.3166L26.4479 0.321299C26.1093 0.288338 25.766 0.271484 25.4189 0.271484V1.27148ZM28.1778 1.67814C28.7783 1.86008 29.3538 2.09994 29.8977 2.39125L30.3698 1.50974C29.7685 1.18766 29.1321 0.92237 28.4678 0.721097L28.1778 1.67814ZM31.4456 3.42741C31.9265 3.82253 32.3679 4.26396 32.763 4.74487L33.5357 4.11004C33.0992 3.57882 32.6116 3.09122 32.0804 2.65476L31.4456 3.42741ZM33.7992 6.29276C34.0905 6.83665 34.3303 7.4121 34.5123 8.01263L35.4693 7.72268C35.2681 7.05834 35.0028 6.42192 34.6807 5.8206L33.7992 6.29276ZM34.8738 9.83937C34.9037 10.1459 34.9189 10.4568 34.9189 10.7715H35.9189C35.9189 10.4244 35.9021 10.0812 35.8691 9.7425L34.8738 9.83937ZM34.9189 10.7715V11.8132H35.9189V10.7715H34.9189ZM34.9189 13.8965V15.9798H35.9189V13.8965H34.9189ZM34.9189 18.0632V20.1465H35.9189V18.0632H34.9189ZM34.9189 22.2298V24.3132H35.9189V22.2298H34.9189ZM34.9189 26.3965V28.4798H35.9189V26.3965H34.9189ZM34.9189 30.5632L34.9189 32.6465H35.9189L35.9189 30.5632H34.9189ZM34.9189 34.7298V35.7715H35.9189V34.7298H34.9189ZM35.4189 36.2715H36.4606V35.2715H35.4189V36.2715ZM38.5439 36.2715H40.6273V35.2715H38.5439V36.2715ZM42.7106 36.2715H44.7939V35.2715H42.7106V36.2715ZM46.8773 36.2715H48.9606V35.2715H46.8773V36.2715ZM51.0439 36.2715H53.1273V35.2715H51.0439V36.2715ZM55.2106 36.2715H57.2939V35.2715H55.2106V36.2715ZM59.3773 36.2715H60.4189V35.2715H59.3773V36.2715ZM60.4189 36.2715C60.7336 36.2715 61.0445 36.2868 61.3511 36.3166L61.4479 35.3213C61.1093 35.2883 60.766 35.2715 60.4189 35.2715V36.2715ZM63.1778 36.6781C63.7783 36.8601 64.3538 37.0999 64.8977 37.3913L65.3698 36.5097C64.7685 36.1877 64.1321 35.9224 63.4678 35.7211L63.1778 36.6781ZM66.4456 38.4274C66.9265 38.8225 67.3679 39.264 67.763 39.7449L68.5357 39.11C68.0992 38.5788 67.6116 38.0912 67.0804 37.6548L66.4456 38.4274ZM68.7992 41.2928C69.0905 41.8366 69.3304 42.4121 69.5123 43.0126L70.4693 42.7227C70.2681 42.0583 70.0028 41.4219 69.6807 40.8206L68.7992 41.2928ZM69.8738 44.8394C69.9037 45.1459 69.9189 45.4568 69.9189 45.7715H70.9189C70.9189 45.4244 70.9021 45.0812 70.8691 44.7425L69.8738 44.8394ZM69.9189 45.7715V46.709H70.9189V45.7715H69.9189ZM69.9189 48.584V50.459H70.9189V48.584H69.9189ZM69.9189 52.334V54.209H70.9189V52.334H69.9189ZM69.9189 56.084V57.959H70.9189V56.084H69.9189ZM69.9189 59.834V60.7715H70.9189V59.834H69.9189ZM69.9189 60.7715C69.9189 61.0861 69.9037 61.3971 69.8738 61.7036L70.8691 61.8005C70.9021 61.4618 70.9189 61.1185 70.9189 60.7715H69.9189ZM69.5123 63.5303C69.3304 64.1309 69.0905 64.7063 68.7992 65.2502L69.6807 65.7224C70.0028 65.121 70.2681 64.4846 70.4693 63.8203L69.5123 63.5303ZM67.763 66.7981C67.3679 67.279 66.9265 67.7204 66.4456 68.1156L67.0804 68.8882C67.6116 68.4518 68.0992 67.9642 68.5357 67.4329L67.763 66.7981ZM64.8977 69.1517C64.3538 69.443 63.7783 69.6829 63.1778 69.8648L63.4678 70.8219C64.1321 70.6206 64.7685 70.3553 65.3698 70.0332L64.8977 69.1517ZM61.3511 70.2264C61.0445 70.2562 60.7336 70.2715 60.4189 70.2715V71.2715C60.766 71.2715 61.1093 71.2546 61.4479 71.2217L61.3511 70.2264ZM60.4189 70.2715H59.4467V71.2715H60.4189V70.2715ZM57.5023 70.2715H55.5578V71.2715H57.5023V70.2715ZM53.6134 70.2715H51.6689V71.2715H53.6134V70.2715ZM49.7245 70.2715H47.7801V71.2715H49.7245V70.2715ZM45.8356 70.2715H43.8912V71.2715H45.8356V70.2715ZM41.9467 70.2715H40.0023V71.2715H41.9467V70.2715ZM38.0578 70.2715H36.1134V71.2715H38.0578V70.2715ZM34.1689 70.2715H32.2245V71.2715H34.1689V70.2715ZM30.2801 70.2715H28.3356V71.2715H30.2801V70.2715ZM26.3912 70.2715H25.4189V71.2715H26.3912V70.2715ZM25.4189 70.2715H24.4814V71.2715H25.4189V70.2715ZM22.6064 70.2715H20.7314V71.2715H22.6064V70.2715ZM18.8564 70.2715H16.9814V71.2715H18.8564V70.2715ZM15.1064 70.2715H13.2314V71.2715H15.1064V70.2715ZM11.3564 70.2715H10.4189V71.2715H11.3564V70.2715ZM35.4189 35.7715H34.4189V36.7715H35.4189V35.7715ZM35.4189 10.7715H34.4189H35.4189ZM0.418945 10.7715H-0.581055H0.418945ZM0.418948 45.7715H1.41895H0.418948ZM10.4189 69.7715C10.1205 69.7715 9.82572 69.757 9.53526 69.7287L9.34153 71.7193C9.69628 71.7538 10.0557 71.7715 10.4189 71.7715V69.7715ZM7.80507 69.3863C7.23643 69.214 6.69147 68.9869 6.1763 68.711L5.23199 70.474C5.86202 70.8114 6.52893 71.0895 7.22516 71.3004L7.80507 69.3863ZM4.70974 67.7292C4.254 67.3548 3.83565 66.9364 3.4612 66.4807L1.91589 67.7503C2.37303 68.3067 2.8837 68.8174 3.44009 69.2745L4.70974 67.7292ZM2.47947 65.0141C2.20354 64.499 1.9764 63.954 1.80412 63.3854L-0.10996 63.9653C0.100977 64.6615 0.378986 65.3284 0.716442 65.9584L2.47947 65.0141ZM1.46171 61.6552C1.43344 61.3647 1.41895 61.0699 1.41895 60.7715H-0.581052C-0.581052 61.1347 -0.563411 61.4941 -0.528887 61.8489L1.46171 61.6552ZM1.41895 60.7715V59.834H-0.581052V60.7715H1.41895ZM1.41895 57.959V56.084H-0.581052V57.959H1.41895ZM1.41895 54.209V52.334H-0.581052V54.209H1.41895ZM1.41895 50.459V48.584H-0.581052V50.459H1.41895ZM1.41895 46.709V45.7715H-0.581052V46.709H1.41895ZM1.41895 45.7715L1.41895 44.7993H-0.581052L-0.581052 45.7715H1.41895ZM1.41895 42.8548L1.41895 40.9104H-0.581052L-0.581052 42.8548H1.41895ZM1.41895 38.9659L1.41895 37.0215H-0.581053L-0.581053 38.9659L1.41895 38.9659ZM1.41895 35.077L1.41895 33.1326H-0.581053L-0.581053 35.077L1.41895 35.077ZM1.41895 31.1882L1.41895 29.2437H-0.581053L-0.581053 31.1882H1.41895ZM1.41895 27.2993L1.41895 25.3548H-0.581054L-0.581053 27.2993H1.41895ZM1.41895 23.4104L1.41895 21.4659H-0.581054L-0.581054 23.4104H1.41895ZM1.41895 19.5215L1.41895 17.577H-0.581054L-0.581054 19.5215L1.41895 19.5215ZM1.41895 15.6326L1.41895 13.6881H-0.581054L-0.581054 15.6326H1.41895ZM1.41895 11.7437L1.41895 10.7715H-0.581055L-0.581055 11.7437H1.41895ZM1.41895 10.7715C1.41895 10.473 1.43344 10.1783 1.46171 9.8878L-0.528889 9.69407C-0.563414 10.0488 -0.581055 10.4082 -0.581055 10.7715H1.41895ZM1.80412 8.15761C1.9764 7.58897 2.20353 7.04401 2.47947 6.52883L0.71644 5.58452C0.378985 6.21455 0.100975 6.88147 -0.109962 7.5777L1.80412 8.15761ZM3.4612 5.06228C3.83565 4.60654 4.254 4.18818 4.70974 3.81374L3.44009 2.26843C2.8837 2.72557 2.37303 3.23624 1.91589 3.79263L3.4612 5.06228ZM6.1763 2.83201C6.69147 2.55607 7.23643 2.32894 7.80507 2.15666L7.22516 0.242576C6.52893 0.453514 5.86202 0.731523 5.23199 1.06898L6.1763 2.83201ZM9.53526 1.81425C9.82572 1.78598 10.1205 1.77148 10.4189 1.77148V-0.228516C10.0557 -0.228516 9.69628 -0.210874 9.34153 -0.17635L9.53526 1.81425ZM10.4189 1.77148H11.3564V-0.228516H10.4189V1.77148ZM13.2314 1.77148H15.1064V-0.228516H13.2314V1.77148ZM16.9814 1.77148H18.8564V-0.228516H16.9814V1.77148ZM20.7314 1.77148H22.6064V-0.228516H20.7314V1.77148ZM24.4814 1.77148H25.4189V-0.228516H24.4814V1.77148ZM25.4189 1.77148C25.7174 1.77148 26.0122 1.78598 26.3026 1.81425L26.4964 -0.17635C26.1416 -0.210874 25.7822 -0.228516 25.4189 -0.228516V1.77148ZM28.0328 2.15666C28.6015 2.32894 29.1464 2.55607 29.6616 2.83201L30.6059 1.06898C29.9759 0.731524 29.309 0.453514 28.6127 0.242577L28.0328 2.15666ZM31.1281 3.81374C31.5839 4.18819 32.0022 4.60654 32.3767 5.06228L33.922 3.79263C33.4649 3.23624 32.9542 2.72557 32.3978 2.26843L31.1281 3.81374ZM33.3584 6.52883C33.6344 7.04401 33.8615 7.58897 34.0338 8.15761L35.9479 7.5777C35.7369 6.88147 35.4589 6.21455 35.1214 5.58452L33.3584 6.52883ZM34.3762 9.8878C34.4044 10.1783 34.4189 10.473 34.4189 10.7715H36.4189C36.4189 10.4082 36.4013 10.0488 36.3668 9.69407L34.3762 9.8878ZM34.4189 10.7715V11.8132H36.4189V10.7715H34.4189ZM34.4189 13.8965V15.9798H36.4189V13.8965H34.4189ZM34.4189 18.0632V20.1465H36.4189V18.0632H34.4189ZM34.4189 22.2298V24.3132H36.4189V22.2298H34.4189ZM34.4189 26.3965V28.4798H36.4189V26.3965H34.4189ZM34.4189 30.5632L34.4189 32.6465H36.4189L36.4189 30.5632H34.4189ZM34.4189 34.7298V35.7715H36.4189V34.7298H34.4189ZM35.4189 36.7715H36.4606V34.7715H35.4189V36.7715ZM38.5439 36.7715H40.6273V34.7715H38.5439V36.7715ZM42.7106 36.7715H44.7939V34.7715H42.7106V36.7715ZM46.8773 36.7715H48.9606V34.7715H46.8773V36.7715ZM51.0439 36.7715H53.1273V34.7715H51.0439V36.7715ZM55.2106 36.7715H57.2939V34.7715H55.2106V36.7715ZM59.3773 36.7715H60.4189V34.7715H59.3773V36.7715ZM60.4189 36.7715C60.7174 36.7715 61.0122 36.786 61.3026 36.8142L61.4964 34.8237C61.1416 34.7891 60.7822 34.7715 60.4189 34.7715V36.7715ZM63.0328 37.1567C63.6015 37.3289 64.1464 37.5561 64.6616 37.832L65.6059 36.069C64.9759 35.7315 64.309 35.4535 63.6127 35.2426L63.0328 37.1567ZM66.1282 38.8137C66.5839 39.1882 67.0023 39.6065 67.3767 40.0623L68.922 38.7926C68.4649 38.2362 67.9542 37.7256 67.3978 37.2684L66.1282 38.8137ZM68.3584 41.5288C68.6344 42.044 68.8615 42.589 69.0338 43.1576L70.9479 42.5777C70.7369 41.8815 70.4589 41.2146 70.1215 40.5845L68.3584 41.5288ZM69.3762 44.8878C69.4045 45.1783 69.4189 45.473 69.4189 45.7715H71.4189C71.4189 45.4082 71.4013 45.0488 71.3668 44.6941L69.3762 44.8878ZM69.4189 45.7715V46.709H71.4189V45.7715H69.4189ZM69.4189 48.584V50.459H71.4189V48.584H69.4189ZM69.4189 52.334V54.209H71.4189V52.334H69.4189ZM69.4189 56.084V57.959H71.4189V56.084H69.4189ZM69.4189 59.834V60.7715H71.4189V59.834H69.4189ZM69.4189 60.7715C69.4189 61.0699 69.4045 61.3647 69.3762 61.6552L71.3668 61.8489C71.4013 61.4941 71.4189 61.1347 71.4189 60.7715H69.4189ZM69.0338 63.3854C68.8615 63.954 68.6344 64.499 68.3584 65.0141L70.1215 65.9584C70.4589 65.3284 70.7369 64.6615 70.9479 63.9653L69.0338 63.3854ZM67.3767 66.4807C67.0023 66.9364 66.5839 67.3548 66.1282 67.7292L67.3978 69.2745C67.9542 68.8174 68.4649 68.3067 68.922 67.7503L67.3767 66.4807ZM64.6616 68.711C64.1464 68.9869 63.6015 69.214 63.0328 69.3863L63.6127 71.3004C64.309 71.0895 64.9759 70.8114 65.6059 70.474L64.6616 68.711ZM61.3026 69.7287C61.0122 69.757 60.7174 69.7715 60.4189 69.7715V71.7715C60.7822 71.7715 61.1416 71.7538 61.4964 71.7193L61.3026 69.7287ZM60.4189 69.7715H59.4467V71.7715H60.4189V69.7715ZM57.5023 69.7715H55.5578V71.7715H57.5023V69.7715ZM53.6134 69.7715H51.6689V71.7715H53.6134V69.7715ZM49.7245 69.7715H47.7801V71.7715H49.7245V69.7715ZM45.8356 69.7715H43.8912V71.7715H45.8356V69.7715ZM41.9467 69.7715H40.0023V71.7715H41.9467V69.7715ZM38.0578 69.7715H36.1134V71.7715H38.0578V69.7715ZM34.1689 69.7715H32.2245V71.7715H34.1689V69.7715ZM30.2801 69.7715H28.3356V71.7715H30.2801V69.7715ZM26.3912 69.7715H25.4189V71.7715H26.3912V69.7715ZM25.4189 69.7715H24.4814V71.7715H25.4189V69.7715ZM22.6064 69.7715H20.7314V71.7715H22.6064V69.7715ZM18.8564 69.7715H16.9814V71.7715H18.8564V69.7715ZM15.1064 69.7715H13.2314V71.7715H15.1064V69.7715ZM11.3564 69.7715H10.4189V71.7715H11.3564V69.7715Z" fill="#003399" mask="url(#path-1-inside-1_774_8142)"/>
</svg>
