<svg width="33" height="34" viewBox="0 0 33 34" fill="none" xmlns="http://www.w3.org/2000/svg">
<path fill-rule="evenodd" clip-rule="evenodd" d="M32.6992 5.77151C32.6992 3.01009 30.4606 0.771515 27.6992 0.771514L21.5592 0.771514L5.41922 0.771513C2.6578 0.771512 0.419223 3.01008 0.419222 5.77151L0.419222 11.9115C0.419222 14.6729 2.65779 16.9115 5.41922 16.9115L16.5592 16.9115L16.5592 28.0515C16.5592 30.8129 18.7978 33.0515 21.5592 33.0515L27.6992 33.0515C30.4606 33.0515 32.6992 30.8129 32.6992 28.0515L32.6992 11.9115L32.6992 5.77151Z" fill="#2562B7"/>
<rect x="2.0918" y="3.97144" width="1.23996" height="7.04" rx="0.619981" fill="#5F97E5"/>
<rect x="2.0918" y="12.291" width="1.23996" height="1.28" rx="0.619981" fill="#5F97E5"/>
</svg>
