<svg width="33" height="33" viewBox="0 0 33 33" fill="none" xmlns="http://www.w3.org/2000/svg">
<path fill-rule="evenodd" clip-rule="evenodd" d="M32.6992 27.3315C32.6992 30.0929 30.4606 32.3315 27.6992 32.3315L21.5592 32.3315L5.41922 32.3315C2.6578 32.3315 0.419223 30.0929 0.419222 27.3315L0.419222 21.1915C0.419222 18.4301 2.65779 16.1915 5.41922 16.1915L16.5592 16.1915L16.5592 5.05152C16.5592 2.29009 18.7978 0.0515148 21.5592 0.0515146L27.6992 0.0515144C30.4606 0.0515143 32.6992 2.29009 32.6992 5.05151L32.6992 21.1915L32.6992 27.3315Z" fill="#5B5082"/>
<rect width="1.23996" height="7.04" rx="0.619981" transform="matrix(-1 -8.74228e-08 -8.74228e-08 1 3.33203 19.5361)" fill="#887ABA"/>
<rect width="1.23996" height="1.28" rx="0.619981" transform="matrix(-1 -8.74228e-08 -8.74228e-08 1 3.33203 27.8555)" fill="#887ABA"/>
</svg>
