<svg version="1.0" xmlns="http://www.w3.org/2000/svg" width="512" height="512" viewBox="0 0 512 512" preserveAspectRatio="xMidYMid meet">
    <g transform="translate(0.000000,512.000000) scale(0.100000,-0.100000)" fill="#FF6600" stroke="none">
        <path d="M1161 4754 c-481 -70 -817 -296 -1009 -680 -143 -287 -190 -707 -112 -1016 75 -298 256 -627 534 -973 344 -427 874 -921 1471 -1371 101 -76 462 -333 503 -358 14 -8 87 41 352 237 731 543 1359 1135 1742 1645 362 481 511 883 469 1262 -82 729 -680 1269 -1406 1270 -373 0 -713 -140 -985 -405 -41 -40 -93 -96 -115 -124 -22 -27 -42 -50 -45 -50 -3 0 -23 23 -45 50 -173 220 -456 407 -730 482 -167 46 -431 59 -624 31z"/>
    </g>
</svg>
