<svg width="23" height="23" viewBox="0 0 23 23" fill="none" xmlns="http://www.w3.org/2000/svg">
<path d="M11.196 7.70057C10.4067 7.70057 9.75067 8.04191 9.228 8.72457L8.14 7.49257C8.43867 7.00191 8.87067 6.60724 9.436 6.30857C10.0013 6.00991 10.6253 5.86057 11.308 5.86057C12.3533 5.86057 13.1693 6.13257 13.756 6.67657C14.364 7.20991 14.668 7.87657 14.668 8.67657C14.668 9.38057 14.5293 9.95124 14.252 10.3886C13.9747 10.8152 13.5853 11.2312 13.084 11.6366C13.02 11.6899 12.9347 11.7592 12.828 11.8446C12.732 11.9299 12.652 11.9992 12.588 12.0526C12.5347 12.0952 12.46 12.1592 12.364 12.2446C12.2787 12.3299 12.2147 12.3992 12.172 12.4526C12.1293 12.4952 12.0707 12.5646 11.996 12.6606C11.932 12.7459 11.8893 12.8206 11.868 12.8846C11.8467 12.9486 11.8147 13.0339 11.772 13.1406C11.74 13.2472 11.7293 13.3432 11.74 13.4286C11.7613 13.5139 11.772 13.6206 11.772 13.7486L10.092 13.7646C10.028 13.3699 10.0227 13.0232 10.076 12.7246C10.14 12.4152 10.2733 12.1379 10.476 11.8926C10.6893 11.6366 10.86 11.4552 10.988 11.3486C11.1267 11.2312 11.3453 11.0606 11.644 10.8366C12.348 10.3459 12.7 9.75924 12.7 9.07657C12.7 8.69257 12.556 8.36724 12.268 8.10057C11.98 7.83391 11.6227 7.70057 11.196 7.70057ZM9.74 16.0366C9.74 15.7272 9.85733 15.4552 10.092 15.2206C10.3373 14.9752 10.6413 14.8526 11.004 14.8526C11.3347 14.8526 11.612 14.9752 11.836 15.2206C12.0707 15.4552 12.188 15.7272 12.188 16.0366C12.188 16.3886 12.076 16.6926 11.852 16.9486C11.628 17.1939 11.3453 17.3166 11.004 17.3166C10.6413 17.3166 10.3373 17.1939 10.092 16.9486C9.85733 16.6926 9.74 16.3886 9.74 16.0366Z" fill="white"/>
<circle cx="11.5" cy="11.2366" r="10.5" stroke="white"/>
</svg>
