<svg width="23" height="17" viewBox="0 0 23 17" fill="none" xmlns="http://www.w3.org/2000/svg">
    <path d="M1.14283 7.77148C1.12848 7.69008 1.05331 7.64459 0.980056 7.6575C0.898664 7.67185 0.853175 7.74702 0.866092 7.82027L1.78029 13.0049C1.79464 13.0863 1.8698 13.1318 1.94305 13.1189C2.02444 13.1046 2.06994 13.0294 2.05702 12.9561L1.14283 7.77148Z" fill="#4E4E54"/>
    <path d="M1.82051 12.4188L1.85352 12.606L2.69186 12.4581L2.65885 12.2709L1.82051 12.4188Z" fill="#4E4E54"/>
    <path d="M1.07051 8.17022L1.10352 8.35742L1.94186 8.2096L1.90885 8.02239L1.07051 8.17022Z" fill="#4E4E54"/>
    <path d="M1.3166 9.57012L1.34961 9.75732L2.18795 9.6095L2.15494 9.4223L1.3166 9.57012Z" fill="#4E4E54"/>
    <path d="M1.5666 10.9783L1.59961 11.1655L2.43795 11.0177L2.40494 10.8305L1.5666 10.9783Z" fill="#4E4E54"/>
    <path d="M21.1504 6.8785C21.1519 6.88664 21.1519 6.88663 21.1519 6.88663C21.2045 7.13751 21.7049 9.64247 21.2366 10.1279C20.7468 10.6339 20.8516 11.228 20.8516 11.228C20.8516 11.228 21.068 11.1227 21.3193 10.9777C21.791 10.7015 22.0888 10.1539 22.0966 9.53146C22.1024 8.85066 22.0183 7.85003 21.8289 6.77565C21.6366 5.685 21.3719 4.7078 21.1322 4.06191C20.9201 3.47827 20.4515 3.05737 19.9057 2.96059C19.6199 2.91028 19.3805 2.88535 19.3805 2.88535C19.3805 2.88535 19.4853 3.47951 20.1187 3.78745C20.7247 4.08341 21.1112 6.60846 21.1476 6.86221C21.1476 6.86221 21.149 6.87036 21.1504 6.8785Z" fill="#25303D"/>
    <path d="M21.4618 8.73727C21.3432 7.82664 21.0327 6.0183 20.8246 5.12346C20.4437 3.48699 19.6902 2.54563 18.2415 2.80109L3.75707 5.13689C2.3083 5.39235 1.42 6.73228 1.58302 8.46591C1.63083 8.92745 1.7212 9.72556 1.83171 10.3523C1.94365 10.9871 2.1006 11.6392 2.22023 12.0797C2.62314 13.6032 3.94485 14.7213 5.40177 14.4644L19.8115 11.7054C21.2589 11.4418 21.6808 10.3603 21.4618 8.73727Z" fill="#2D3857"/>
    <path d="M5.70784 5.29638C5.35739 5.30782 2.58905 6.12326 2.58905 6.12326L1.79362 7.65663C1.79362 7.65663 1.82937 8.71613 2.08914 10.1893C2.3489 11.6625 2.66617 12.7479 2.66617 12.7479L3.816 13.9383C3.816 13.9383 6.4071 13.7835 7.01754 13.6759C7.62798 13.5683 8.03213 13.0522 8.03213 13.0522L6.71178 5.56415C6.45184 5.375 6.05016 5.28637 5.70784 5.29638Z" fill="#414D7A"/>
    <path d="M10.8636 13.4089C10.8037 13.4026 10.7793 13.407 10.7793 13.407L10.7569 13.1843L10.472 13.2346C10.4878 13.3241 10.4892 13.4749 10.4892 13.4749C10.4892 13.4749 10.359 13.4979 10.4288 13.8464C10.4987 14.195 10.6288 14.6 10.8002 14.7628C10.9701 14.9175 11.2459 14.9108 11.2771 14.7543C11.3068 14.5896 10.9234 13.4151 10.8636 13.4089Z" fill="#273552"/>
    <path d="M4.83311 11.384L2.92558 12.2742L3.08498 12.4643L4.94703 11.5066L6.52366 11.1195L4.83311 11.384Z" fill="#5665A1"/>
    <path d="M18.1582 9.08473L17.5913 5.86974C17.5181 5.45465 17.1255 5.17978 16.7104 5.25297L8.83801 6.01167L9.88281 11.937L17.54 9.95743C17.9565 9.89238 18.2299 9.49169 18.1582 9.08473Z" fill="#414D7A"/>
    <path d="M9.17854 2.84661C9.09573 2.71016 8.83432 2.79821 8.72752 3.00167C8.62073 3.20513 8.63838 3.63841 8.69196 3.98983C8.74553 4.34126 8.87576 4.3183 8.87576 4.3183C8.87576 4.3183 8.926 4.4605 8.94179 4.55003L9.22666 4.4998L9.17164 4.28291C9.17164 4.28291 9.19605 4.2786 9.25016 4.25228C9.30283 4.21782 9.26134 2.98307 9.17854 2.84661Z" fill="#384BA1"/>
    <path d="M10.4355 10.9332C10.1776 10.2318 9.94691 9.39969 9.85363 8.87064C9.75891 8.33345 9.66999 7.4008 9.68062 6.65202C9.68312 5.90467 9.67886 5.5949 9.26138 5.55941C8.8439 5.52393 7.25634 5.32551 6.9571 5.43702C6.65642 5.54039 6.46964 6.05168 6.43696 6.91345C6.40428 7.77522 6.54441 8.80794 6.65492 9.43466C6.76399 10.0532 6.98696 11.0797 7.31241 11.8784C7.63786 12.677 7.98825 13.0936 8.30615 13.0879C8.62405 13.0822 10.0643 12.3498 10.4459 12.1819C10.8165 11.999 10.6935 11.6347 10.4355 10.9332Z" fill="#273043"/>
    <path opacity="0.59" d="M10.1696 10.7535C9.93509 10.0899 9.74274 9.28459 9.64849 8.79768C9.56525 8.3256 9.47726 7.63617 9.47066 6.93238C9.46405 6.2286 9.56035 5.77522 9.20942 5.73639C8.85849 5.69756 7.31353 5.55037 7.06169 5.64513C6.80985 5.73989 6.66758 6.21815 6.65071 7.02678C6.64198 7.83398 6.77208 8.80973 6.88355 9.39431C6.98688 9.98034 7.19835 10.9417 7.48263 11.6973C7.76691 12.4528 8.07088 12.844 8.33995 12.8469C8.60901 12.8498 9.98172 12.163 10.2982 12.0064C10.6147 11.8499 10.396 11.4185 10.1696 10.7535Z" fill="url(#paint0_linear_1040_21897)"/>
    <path d="M9.17658 2.83856C9.09378 2.7021 8.83236 2.79016 8.72557 2.99362C8.61878 3.19708 8.63643 3.63036 8.69 3.98178C8.74358 4.3332 8.8738 4.31024 8.8738 4.31024C8.8738 4.31024 8.92405 4.45244 8.93983 4.54197L9.22471 4.49174L9.16968 4.27485C9.16968 4.27485 9.1941 4.27055 9.2482 4.24422C9.30231 4.2179 9.25939 2.97502 9.17658 2.83856Z" fill="#273552"/>
    <path d="M2.26154 7.78411L2.17676 8.01726L4.27374 8.20139L5.95281 7.87176L4.33887 8.04724L2.26154 7.78411Z" fill="#5665A1"/>
    <path d="M21.6605 9.53278C21.5451 9.40206 21.2703 9.50926 21.0472 9.76681C20.824 10.0244 20.7373 10.3418 20.8527 10.4725C20.9681 10.6032 21.2429 10.496 21.466 10.2384C21.6973 9.97947 21.7759 9.6635 21.6605 9.53278Z" fill="#D83432"/>
    <path d="M21.327 9.54112C21.2351 9.5909 21.1394 9.66653 21.0479 9.76657C20.8248 10.0241 20.738 10.3415 20.8534 10.4722C20.9453 10.4225 21.0411 10.3468 21.1311 10.2387C21.3624 9.97967 21.4424 9.67184 21.327 9.54112Z" fill="#FE9D6D"/>
    <path d="M20.2321 3.19646C19.9344 3.03077 19.6394 3.02403 19.5757 3.18632C19.512 3.34861 19.7021 3.61722 19.9998 3.78292C20.2976 3.94861 20.5925 3.95535 20.6562 3.79306C20.7118 3.6322 20.5313 3.3703 20.2321 3.19646Z" fill="#D83432"/>
    <path d="M19.917 3.31101C19.7969 3.24827 19.6796 3.20182 19.5762 3.18649C19.5125 3.34878 19.7025 3.61739 20.0003 3.78309C20.1204 3.84582 20.2377 3.89227 20.3411 3.90761C20.3967 3.74675 20.2148 3.4767 19.917 3.31101Z" fill="#FE9D6D"/>
    <path d="M2.01166 8.13853L2.93118 6.07135L1.92954 6.48294C1.63982 7.02917 1.50901 7.71523 1.58407 8.47408C1.63189 8.93562 1.72226 9.73373 1.83277 10.3604C1.94471 10.9953 2.10166 11.6474 2.22129 12.0879C2.39738 12.7534 2.7535 13.3452 3.21545 13.7757L4.16626 13.885L2.712 12.2531C2.712 12.2531 2.42343 11.3305 2.2139 10.1422C2.00293 8.94573 2.01166 8.13853 2.01166 8.13853Z" fill="#4C5478"/>
    <path opacity="0.59" d="M9.2 5.73798C8.84907 5.69916 7.30412 5.55196 7.05228 5.64672C6.80043 5.74148 6.65817 6.21975 6.6413 7.02838C6.63357 7.5081 6.67802 8.04576 6.73828 8.53027C6.91687 8.44843 8.06023 7.93631 9.48939 7.61718C9.47649 7.40125 9.46073 7.16905 9.46268 6.94211C9.45607 6.23833 9.55906 5.77538 9.2 5.73798Z" fill="url(#paint1_linear_1040_21897)"/>
    <path d="M4.39983 13.1558C4.16625 12.7354 3.70524 12.4055 3.29879 12.2422C2.98235 12.1133 2.70801 12.1281 2.60456 12.3981C2.4877 12.6873 2.92856 13.3313 3.33115 13.6631C3.77204 14.0218 4.28143 14.1502 4.48637 13.9798C4.65348 13.8328 4.64298 13.5829 4.39983 13.1558Z" fill="#2D3857"/>
    <path d="M4.22984 13.1439C4.0446 12.8073 3.67934 12.5444 3.35476 12.417C3.10246 12.3189 2.88653 12.3317 2.80559 12.539C2.71124 12.7655 3.06259 13.2826 3.38715 13.5527C3.74044 13.8429 4.14355 13.9396 4.30396 13.8022C4.43467 13.6869 4.42465 13.4872 4.22984 13.1439Z" fill="#D6E5FE"/>
    <path d="M4.3056 13.8104C4.43632 13.695 4.42629 13.4954 4.23962 13.1506C4.21473 13.1047 4.19128 13.0668 4.15825 13.0223C4.16543 13.063 4.23431 13.4537 4.11364 13.626C4.00637 13.7792 3.82301 13.7864 3.74688 13.783C3.9829 13.8841 4.20313 13.8956 4.3056 13.8104Z" fill="#D5FAFC"/>
    <path d="M3.13583 12.3631C2.98215 12.3482 2.8658 12.4023 2.80737 12.5469C2.71302 12.7733 3.06436 13.2904 3.38893 13.5605C3.50669 13.6572 3.62829 13.7281 3.74702 13.7827C3.74702 13.7827 2.89252 13.0774 3.13056 12.3808C3.12913 12.3727 3.12769 12.3645 3.13583 12.3631Z" fill="#78C2FC"/>
    <path d="M3.278 6.7989C3.36042 6.3144 3.2848 6.07596 3.07751 5.99502C2.83478 5.90354 2.39045 6.19169 2.10025 6.68765C1.83543 7.13718 1.64143 7.89312 1.85014 8.12487C2.03826 8.33507 2.30111 8.25516 2.55585 8.034C2.88193 7.74153 3.19415 7.27525 3.278 6.7989Z" fill="#2D3857"/>
    <path d="M3.12195 6.86013C3.1876 6.47091 3.12874 6.27987 2.95831 6.21761C2.76059 6.14337 2.40675 6.37361 2.18215 6.76569C1.9681 7.12234 1.8148 7.72844 1.98234 7.9171C2.13744 8.08277 2.33662 8.02247 2.54012 7.84392C2.8097 7.61175 3.06301 7.23979 3.12195 6.86013Z" fill="#D6E5FE"/>
    <path d="M3.09741 7.0073C3.11321 6.95416 3.12231 6.91059 3.12998 6.85888C3.19562 6.46966 3.13676 6.27862 2.96633 6.21636C2.83133 6.16463 2.6379 6.25748 2.45068 6.43317C2.51292 6.40541 2.69581 6.34799 2.849 6.45525C3.02134 6.57593 3.09023 6.9666 3.09741 7.0073Z" fill="#D5FAFC"/>
    <path d="M2.45033 6.44122C2.35743 6.53313 2.26741 6.64131 2.18983 6.77248C1.97577 7.12913 1.82248 7.73523 1.99002 7.92389C2.09437 8.03976 2.22077 8.04265 2.36154 7.98426C2.3601 7.97612 2.3601 7.97613 2.35053 7.96942C1.87903 7.38957 2.45033 6.44122 2.45033 6.44122Z" fill="#78C2FC"/>
    <path d="M20.3957 9.16001C20.3671 8.42654 20.2337 7.52692 20.139 6.98973C20.0442 6.45255 19.8619 5.56154 19.638 4.86251C19.414 4.16348 19.1958 3.78236 19.0177 3.7718C18.8381 3.75311 17.9873 4.30596 17.7833 4.43424C17.5793 4.56252 17.7181 4.87374 17.9019 5.48754C18.1153 6.22199 18.2995 7.31408 18.2995 7.31408C18.2995 7.31408 18.5133 8.52682 18.5506 9.16645C18.5878 9.80609 18.5074 10.0636 18.8454 10.1719C19.0771 10.2485 20.0236 10.4761 20.1859 10.3971C20.3482 10.3181 20.4244 9.89348 20.3957 9.16001Z" fill="#273043"/>
    <path opacity="0.59" d="M20.1552 9.07661C20.1094 8.38814 19.9831 7.52922 19.8941 7.02459C19.8037 6.51182 19.6382 5.66821 19.4458 5.00558C19.252 4.3348 19.0706 3.97235 18.925 3.95605C18.7876 3.93832 18.0723 4.45049 17.909 4.5716C17.7524 4.68313 17.9281 5.01302 18.0898 5.59714C18.2516 6.18125 18.4616 7.27718 18.4616 7.27718C18.4616 7.27718 18.6238 8.33957 18.6716 8.94378C18.7193 9.54799 18.6743 9.95877 18.8677 10.0086C19.0611 10.0584 19.9032 10.3127 20.0263 10.2491C20.1546 10.1677 20.2011 9.76508 20.1552 9.07661Z" fill="url(#paint2_linear_1040_21897)"/>
    <path opacity="0.59" d="M19.4441 4.99753C19.2503 4.32676 19.0689 3.9643 18.9233 3.948C18.7859 3.93027 18.0624 4.44389 17.9073 4.56356C17.7507 4.67509 17.902 4.86662 18.0637 5.45073C18.1102 5.61879 18.1905 5.93191 18.2374 6.15023C18.8335 5.9612 19.61 6.17675 19.734 6.21364C19.6556 5.81625 19.5537 5.38104 19.4441 4.99753Z" fill="url(#paint3_linear_1040_21897)"/>
    <path d="M18.9299 10.7531L18.2084 10.1837C18.14 10.1286 18.0543 10.1186 17.9743 10.1411L17.067 10.4689C16.9248 10.5191 16.864 10.6977 16.9401 10.8437L17.2555 11.4427C17.3082 11.5509 17.4269 11.6055 17.5394 11.5773L18.8527 11.2198C19.0519 11.1595 19.0955 10.8833 18.9299 10.7531Z" fill="#25303D"/>
    <path d="M12.9622 12.3171L12.8842 11.8273C12.8598 11.6889 12.7583 11.5893 12.6539 11.6161L11.1884 11.9668C11.1884 11.9668 9.64425 12.7762 9.56764 12.8653C9.48959 12.9462 9.50919 13.1525 9.66574 13.1836L12.8515 12.5464C12.9315 12.5239 12.9808 12.4229 12.9622 12.3171Z" fill="#25303D"/>
    <path opacity="0.59" d="M12.8346 12.3057L12.7696 11.8892C12.7567 11.8159 12.7059 11.7661 12.6489 11.7762L11.3136 12.104C11.2648 12.1126 11.2188 12.1374 11.1714 12.1542L9.71923 12.9138C9.67327 12.9387 9.69719 13.0268 9.74603 13.0182C10.4757 12.8727 12.4502 12.4574 12.7987 12.3876C12.8231 12.3833 12.8418 12.3464 12.8346 12.3057Z" fill="url(#paint4_linear_1040_21897)"/>
    <path d="M16.9282 11.534L16.4763 10.7324C16.4419 10.6798 16.3859 10.6477 16.3222 10.6673L13.1737 11.5162C13.1263 11.533 13.089 11.6067 13.1047 11.6962L13.2057 12.3162C13.2215 12.4058 13.2751 12.4718 13.3321 12.4618L16.831 11.7441C16.9353 11.7173 16.9765 11.6177 16.9282 11.534Z" fill="#25303D"/>
    <path opacity="0.59" d="M16.6839 11.4766L16.3676 10.9198C16.3427 10.8738 16.2977 10.8566 16.2488 10.8652L13.3172 11.659C13.2698 11.6758 13.2392 11.7399 13.2535 11.8213L13.2999 12.1321C13.3172 12.2297 13.3789 12.2944 13.4359 12.2843C13.9147 12.1915 15.8188 11.8054 16.604 11.6418C16.6839 11.6193 16.7198 11.5374 16.6839 11.4766Z" fill="url(#paint5_linear_1040_21897)"/>
    <path opacity="0.59" d="M18.7816 10.8551L18.1598 10.3269C18.1215 10.3001 18.0779 10.291 18.0387 10.3063L17.1692 10.6107C17.0907 10.6413 17.0643 10.7299 17.1031 10.8069L17.4113 11.3652C17.4377 11.4193 17.5018 11.45 17.5574 11.4318L18.7404 11.0973C18.8448 11.0705 18.8611 10.925 18.7816 10.8551Z" fill="url(#paint6_linear_1040_21897)"/>
    <path d="M17.4908 3.48739L16.1344 3.60066C16.019 3.61262 15.9261 3.70453 15.9137 3.82422L15.8221 4.49495C15.8006 4.65821 15.9188 4.80521 16.0696 4.8038L17.0343 4.80154C17.1186 4.80346 17.1942 4.75656 17.2397 4.6814L17.7229 3.89964C17.834 3.72059 17.6971 3.46779 17.4908 3.48739Z" fill="#25303D"/>
    <path d="M11.5783 4.47095C11.5596 4.36514 11.4787 4.28709 11.3973 4.30144L8.1857 4.79221C8.04924 4.87501 8.10954 5.07419 8.20241 5.12495C8.30342 5.17428 10.0327 5.41486 10.0327 5.41486L11.5298 5.24319C11.6371 5.23267 11.6984 5.10437 11.674 4.96601L11.5783 4.47095Z" fill="#25303D"/>
    <path opacity="0.59" d="M11.4605 4.51669C11.4534 4.47599 11.4232 4.44774 11.3988 4.45204C11.0555 4.50418 9.04849 4.78254 8.31453 4.90357C8.26569 4.91218 8.27334 5.00314 8.32505 5.01081L9.94946 5.22792C10.0012 5.23558 10.0514 5.23512 10.1003 5.2265L11.4672 5.0778C11.5241 5.06775 11.5548 5.0036 11.5419 4.93035L11.4605 4.51669Z" fill="url(#paint7_linear_1040_21897)"/>
    <path d="M15.5731 3.85042C15.5899 3.75515 15.5076 3.66896 15.418 3.68475L11.8847 4.20707C11.8277 4.21711 11.7999 4.29754 11.8157 4.38708L11.9329 5.00422C11.9473 5.08561 12.0009 5.15169 12.0593 5.14978L15.3082 4.87063C15.3667 4.86872 15.4165 4.81799 15.4308 4.75671L15.5731 3.85042Z" fill="#25303D"/>
    <path opacity="0.59" d="M15.3634 3.98818C15.3763 3.91876 15.3146 3.85413 15.248 3.85747C14.4542 3.97226 12.5329 4.26069 12.0512 4.33723C11.9943 4.34727 11.9583 4.42913 11.9756 4.5268L12.0382 4.83466C12.0512 4.90792 12.1033 4.96585 12.1536 4.96538L15.1799 4.70871C15.2302 4.70823 15.2651 4.6685 15.2728 4.61679L15.3634 3.98818Z" fill="url(#paint8_linear_1040_21897)"/>
    <path opacity="0.59" d="M17.4257 3.64173L16.1995 3.73205C16.1411 3.73395 16.0913 3.78469 16.0851 3.84454L15.9864 4.47458C15.9763 4.56028 16.0314 4.63449 16.1156 4.63642L17.0368 4.62506C17.0789 4.62602 17.1249 4.60113 17.1435 4.56427L17.5472 3.85527C17.5966 3.75426 17.5329 3.63121 17.4257 3.64173Z" fill="url(#paint9_linear_1040_21897)"/>
    <path d="M14.9753 6.88495C14.9064 6.49427 14.533 6.2328 14.1423 6.30169L12.9458 6.51266C12.5551 6.58155 12.2937 6.95495 12.3626 7.34564L12.7228 9.38857C12.7917 9.77925 13.1651 10.0407 13.5558 9.97182L14.7522 9.76085C15.1429 9.69196 15.4044 9.31857 15.3355 8.92789L14.9753 6.88495Z" fill="#273043"/>
    <defs>
        <linearGradient id="paint0_linear_1040_21897" x1="7.31444" y1="12.4918" x2="9.70969" y2="5.91088" gradientUnits="userSpaceOnUse">
            <stop stop-color="#72B3DD"/>
            <stop offset="0.9946" stop-color="#2E81BA"/>
        </linearGradient>
        <linearGradient id="paint1_linear_1040_21897" x1="8.27472" y1="8.2573" x2="7.79112" y2="5.51466" gradientUnits="userSpaceOnUse">
            <stop stop-color="#72B3DD"/>
            <stop offset="0.9946" stop-color="#2E81BA"/>
        </linearGradient>
        <linearGradient id="paint2_linear_1040_21897" x1="18.1289" y1="9.7307" x2="20.0807" y2="4.36805" gradientUnits="userSpaceOnUse">
            <stop stop-color="#72B3DD"/>
            <stop offset="0.9946" stop-color="#2E81BA"/>
        </linearGradient>
        <linearGradient id="paint3_linear_1040_21897" x1="18.9472" y1="6.35826" x2="18.5341" y2="4.01553" gradientUnits="userSpaceOnUse">
            <stop stop-color="#72B3DD"/>
            <stop offset="0.9946" stop-color="#2E81BA"/>
        </linearGradient>
        <linearGradient id="paint4_linear_1040_21897" x1="11.1637" y1="12.0416" x2="11.2888" y2="12.7515" gradientUnits="userSpaceOnUse">
            <stop stop-color="#72B3DD"/>
            <stop offset="0.9946" stop-color="#2E81BA"/>
        </linearGradient>
        <linearGradient id="paint5_linear_1040_21897" x1="14.8729" y1="11.1046" x2="15.0305" y2="11.9987" gradientUnits="userSpaceOnUse">
            <stop stop-color="#72B3DD"/>
            <stop offset="0.9946" stop-color="#2E81BA"/>
        </linearGradient>
        <linearGradient id="paint6_linear_1040_21897" x1="18.0465" y1="11.3472" x2="17.8682" y2="10.3361" gradientUnits="userSpaceOnUse">
            <stop stop-color="#72B3DD"/>
            <stop offset="0.9946" stop-color="#2E81BA"/>
        </linearGradient>
        <linearGradient id="paint7_linear_1040_21897" x1="9.85647" y1="4.63195" x2="9.98163" y2="5.34177" gradientUnits="userSpaceOnUse">
            <stop stop-color="#72B3DD"/>
            <stop offset="0.9946" stop-color="#2E81BA"/>
        </linearGradient>
        <linearGradient id="paint8_linear_1040_21897" x1="13.6306" y1="4.06035" x2="13.7883" y2="4.95446" gradientUnits="userSpaceOnUse">
            <stop stop-color="#72B3DD"/>
            <stop offset="0.9946" stop-color="#2E81BA"/>
        </linearGradient>
        <linearGradient id="paint9_linear_1040_21897" x1="16.8659" y1="4.65269" x2="16.6877" y2="3.64159" gradientUnits="userSpaceOnUse">
            <stop stop-color="#72B3DD"/>
            <stop offset="0.9946" stop-color="#2E81BA"/>
        </linearGradient>
    </defs>
</svg>
