<svg width="114" height="174" viewBox="0 0 114 174" fill="none" xmlns="http://www.w3.org/2000/svg">
    <path d="M58.0584 166.794L63.0786 164.282L45.6797 85.2402L44.1039 86.4709L58.0584 166.794Z" fill="#003399"/>
    <path d="M58.0572 166.794L53.1033 166.17L42.4182 85.9393L44.1026 86.4708L58.0572 166.794Z" fill="#002366"/>
    <path d="M42.4204 85.9395L43.9982 84.7203L45.6807 85.2403L44.1049 86.471L42.4204 85.9395Z" fill="#F7F7F7"/>
    <path d="M52.3744 74.4784C49.5352 71.1322 43.8599 72.3696 43.1525 72.6838L52.5058 82.7289C53.007 81.9481 55.2053 77.8143 52.3744 74.4784Z" fill="#003399"/>
    <path d="M53.0599 80.6543C52.7494 77.821 49.8222 74.4193 46.5048 73.0571C44.7607 72.3349 43.4936 72.3216 42.5391 72.7503C40.3423 73.8241 40.0141 74.5508 40.0141 74.5508C40.3786 74.1061 40.9007 73.7895 41.4865 73.6579C42.6694 73.4559 43.8792 73.6174 44.9249 74.1169C48.2296 75.4813 51.1642 78.8876 51.4811 81.7198C51.5699 82.5564 51.4668 84.0423 50.0447 84.6659C50.6431 84.4775 51.1988 84.1843 51.6797 83.8029C52.1607 83.4215 52.5575 82.9596 52.8474 82.4436C53.0864 81.8689 53.1596 81.2523 53.0599 80.6543Z" fill="white"/>
    <path d="M44.953 74.1298C43.8945 73.626 42.6712 73.4629 41.4747 73.666C40.984 73.7718 40.535 74.0098 40.1869 74.3488C40.1254 74.407 36.4436 76.5239 30.6047 82.0098C28.0153 84.4431 40.0974 92.8826 40.9489 92.2768C41.2261 92.074 48.2905 87.7332 51.1686 83.9056C51.5709 83.2692 51.7157 82.5301 51.577 81.8214C51.2667 78.9525 48.2997 75.5104 44.953 74.1298Z" fill="#003399"/>
    <path d="M47.5438 75.6614C46.7638 75.044 45.8922 74.5288 44.9528 74.1298C43.8943 73.626 42.6709 73.4629 41.4744 73.666C40.9837 73.7718 40.5348 74.0098 40.1866 74.3488C40.1252 74.407 36.4434 76.5239 30.6045 82.0098C29.6149 82.9419 30.7756 84.7553 32.6329 86.5998C37.9539 83.3792 42.9463 79.7168 47.5438 75.6614Z" fill="#003399"/>
    <path d="M36.6169 89.9332C38.7312 91.4602 40.6299 92.5043 40.942 92.2777C41.254 92.051 48.2898 87.7329 51.1617 83.9064C51.5639 83.2701 51.7087 82.531 51.57 81.8223C51.4518 80.9462 51.1637 80.1013 50.7192 79.3268C45.7126 84.3938 37.3104 89.5032 36.6169 89.9332Z" fill="#002366"/>
    <path d="M42.1694 89.0382C41.6715 86.2142 38.4906 82.9638 35.0805 81.7778C33.2819 81.1539 32.0017 81.2139 31.0626 81.6932C28.9271 82.8924 28.6472 83.6342 28.6472 83.6342C28.9867 83.1668 29.4949 82.821 30.0791 82.6597C31.2532 82.3908 32.479 82.485 33.562 82.9273C36.9765 84.1008 40.1531 87.3638 40.651 90.1878C40.7988 91.0258 40.7903 92.5305 39.374 93.2241C39.9629 93.0029 40.502 92.6791 40.9604 92.2712C41.4188 91.8634 41.7874 91.3795 42.0451 90.8474C42.2589 90.2594 42.3018 89.6356 42.1694 89.0382Z" fill="white"/>
    <path d="M33.5513 82.9287C32.4618 82.477 31.2247 82.3802 30.0411 82.654C28.6647 83.0565 27.9293 84.21 28.233 85.9319C28.739 88.8018 31.9209 92.058 35.391 93.2512C37.8143 94.0904 39.7096 93.6734 40.4493 92.3593C40.7874 91.6966 40.886 90.959 40.7303 90.2561C40.1937 87.3975 36.9951 84.1206 33.5513 82.9287Z" fill="white"/>
    <path d="M36.5503 91.4775C33.619 90.4557 30.8989 87.6743 30.4718 85.2522C30.3346 84.6566 30.4139 84.0301 30.698 83.4664C29.5326 83.808 28.9037 84.7889 29.1598 86.241C29.5858 88.6575 32.3069 91.4445 35.2309 92.4618C37.313 93.1777 38.9058 92.8199 39.5305 91.7036C38.526 91.9307 37.4785 91.8513 36.5503 91.4775Z" fill="white"/>
    <path d="M33.6851 83.6975C32.7569 83.3158 31.7047 83.2346 30.6976 83.4667C30.4135 84.0304 30.3342 84.657 30.4714 85.2525C30.8985 87.6747 33.6186 90.456 36.5499 91.4779C37.4679 91.8492 38.5035 91.9326 39.4994 91.7153C39.7893 91.1424 39.8692 90.5048 39.7269 89.8997C39.3365 87.5007 36.6154 84.7136 33.6851 83.6975Z" fill="#33495E"/>
    <path d="M34.0354 85.0207C33.4053 84.7676 32.6951 84.712 32.0126 84.8625C31.2749 85.3048 30.6007 85.8316 30.0071 86.4293C29.7153 86.9188 30.0775 90.7846 30.8246 91.5465C31.5718 92.3084 35.2538 92.4108 36.2813 91.768C36.3627 91.7122 37.9646 90.5183 38.0061 90.4577C38.2008 90.0759 38.2562 89.6507 38.1641 89.2462C37.86 87.5954 36.0219 85.712 34.0354 85.0207Z" fill="#002366"/>
    <path d="M32.5658 85.298C33.253 85.1461 33.9689 85.2167 34.5894 85.4975C34.792 85.5743 35.2703 85.6616 35.4949 85.7522C35.1808 82.6768 34.0294 78.0328 32.7308 72.6276C30.2768 62.4076 27.1716 53.4859 25.7975 52.6807C24.4233 51.8755 25.2899 59.4519 27.7388 69.6433C28.9778 74.9766 30.5445 80.2326 32.4315 85.3868L32.5658 85.298Z" fill="#002366"/>
    <path d="M30.6545 86.2865C31.3383 86.137 32.0501 86.2223 32.6526 86.526C32.851 86.6105 33.0439 86.7049 33.2305 86.8088C32.9403 82.2687 32.3751 77.755 31.5375 73.2883C29.6875 62.796 27.12 53.5961 25.8019 52.7396C24.4839 51.883 24.9162 59.6958 26.7663 70.1881C27.6855 75.6314 28.935 81.0143 30.5091 86.3122C30.5571 86.3011 30.6056 86.2925 30.6545 86.2865Z" fill="#003399"/>
    <path d="M25.9979 54.1783C26.7693 54.6341 27.8758 57.4336 29.0415 61.5306C27.794 56.6372 26.5732 53.1891 25.7937 52.6874C25.1305 52.2539 24.9149 54.026 25.0935 57.2199C25.0996 54.9995 25.3962 53.8346 25.9979 54.1783Z" fill="#003399"/>
    <path d="M36.1032 91.1193C36.4538 91.4066 37.2615 90.7374 37.5081 89.9542C37.5715 89.7595 37.8115 89.3089 37.854 89.1061C40.0421 90.6082 44.9866 94.9503 48.3947 98.2317C54.7706 104.369 59.8509 110.516 59.6648 111.975C59.4788 113.434 54.1367 109.647 47.7418 103.513C43.8203 99.7603 38.3542 94.4567 36.3407 91.7639C36.3693 91.7411 35.6312 90.7349 36.1032 91.1193Z" fill="#002366"/>
    <path d="M33.9393 92.0095C34.3713 91.6493 35.3703 91.917 35.5896 91.1267C35.6467 90.9332 35.6839 90.7372 35.721 90.5413C39.7332 93.1332 43.5696 95.9405 47.2108 98.9491C54.1839 104.739 59.7737 110.559 59.6595 111.982C59.5453 113.404 53.7604 109.879 46.7597 104.118C42.4799 100.588 36.0468 94.6444 33.8114 92.0972C33.8557 92.07 33.8984 92.0408 33.9393 92.0095Z" fill="#003399"/>
    <path d="M58.6284 111.204C58.7467 110.396 57.2381 108.348 54.7642 105.743C57.7994 108.758 59.7308 111.134 59.6585 111.981C59.5956 112.697 58.1049 112.155 55.7385 110.714C57.4604 111.606 58.5323 111.843 58.6284 111.204Z" fill="#003399"/>
    <path d="M32.8866 86.4487C33.089 87.0049 32.5491 87.899 33.1988 88.4414C33.36 88.5787 35.7028 89.7753 35.8735 89.8932C24.9605 97.9191 9.99489 103.334 8.71382 102.613C7.43275 101.892 12.8699 97.4174 20.3164 92.9145C24.8753 90.1517 29.7801 87.4285 32.8373 86.2799C32.86 86.3351 32.8702 86.3925 32.8866 86.4487Z" fill="#002366"/>
    <path d="M31.7545 87.867C31.9758 88.4198 31.4754 89.2419 32.1315 89.7832C32.2926 89.9205 34.6228 91.1193 34.8018 91.2475C24.422 98.5995 9.99168 103.316 8.71567 102.624C7.43966 101.931 12.5913 97.7975 19.7088 93.684C24.0648 91.1759 28.7805 88.711 31.6945 87.7119C31.7269 87.7476 31.736 87.7993 31.7545 87.867Z" fill="#003399"/>
    <path d="M9.69008 101.973C10.4236 102.435 13.7405 101.762 16.7812 100.557C13.2296 102.118 9.47214 103.029 8.71413 102.612C8.06942 102.247 8.95226 101.079 10.8875 99.4831C9.62322 100.706 9.13162 101.616 9.69008 101.973Z" fill="#003399"/>
    <path d="M32.6053 86.2564C31.9886 86.004 31.291 85.9481 30.6214 86.0972C30.3534 86.1667 30.1111 86.306 29.9246 86.4978C29.7382 86.6896 29.6159 86.9253 29.5729 87.1757C29.5281 87.4026 29.4214 91.3452 30.1488 92.0691C30.8763 92.7931 36.06 92.317 36.4641 91.577C36.6574 91.1951 36.7106 90.77 36.6158 90.3666C36.3744 88.7758 34.5497 86.9314 32.6053 86.2564Z" fill="#003399"/>
    <path d="M30.8022 91.8944C30.6454 91.995 30.48 92.0835 30.3078 92.1592C31.3771 92.7518 36.0851 92.2767 36.4827 91.5734C36.6759 91.1915 36.7292 90.7664 36.6343 90.363C36.4494 89.5734 36.0567 88.8427 35.4895 88.2331C34.0918 89.6203 32.5175 90.85 30.8022 91.8944Z" fill="#003399"/>
    <path d="M102.322 118.372L107.342 115.86L89.9434 36.8181L88.3675 38.0488L102.322 118.372Z" fill="#003399"/>
    <path d="M102.321 118.372L97.367 117.748L86.6818 37.5171L88.3663 38.0487L102.321 118.372Z" fill="#002366"/>
    <path d="M86.6841 37.5174L88.2619 36.2982L89.9444 36.8182L88.3685 38.0489L86.6841 37.5174Z" fill="#F7F7F7"/>
    <path d="M96.6381 26.0563C93.7989 22.7101 88.1236 23.9475 87.4162 24.2616L96.7695 34.3068C97.2707 33.526 99.469 29.3921 96.6381 26.0563Z" fill="#003399"/>
    <path d="M97.3236 32.2322C97.0131 29.3988 94.0858 25.9971 90.7685 24.635C89.0243 23.9127 87.7572 23.8995 86.8028 24.3282C84.606 25.402 84.2778 26.1286 84.2778 26.1286C84.6423 25.6839 85.1644 25.3674 85.7502 25.2358C86.933 25.0338 88.1429 25.1953 89.1886 25.6948C92.4933 27.0591 95.4279 30.4655 95.7447 33.2977C95.8336 34.1343 95.7305 35.6202 94.3084 36.2438C94.9068 36.0554 95.4624 35.7621 95.9434 35.3808C96.4244 34.9994 96.8212 34.5374 97.111 34.0215C97.35 33.4468 97.4233 32.8302 97.3236 32.2322Z" fill="white"/>
    <path d="M89.2167 25.7077C88.1582 25.2039 86.9348 25.0408 85.7383 25.2439C85.2477 25.3497 84.7987 25.5877 84.4505 25.9267C84.3891 25.9848 80.7073 28.1018 74.8684 33.5877C72.2789 36.021 84.3611 44.4605 85.2126 43.8547C85.4898 43.6519 92.5542 39.3111 95.4323 35.4834C95.8346 34.8471 95.9794 34.108 95.8406 33.3993C95.5303 30.5304 92.5634 27.0883 89.2167 25.7077Z" fill="#003399"/>
    <path d="M91.8075 27.2393C91.0274 26.6219 90.1558 26.1067 89.2165 25.7077C88.158 25.2039 86.9346 25.0408 85.7381 25.2439C85.2474 25.3497 84.7984 25.5877 84.4503 25.9267C84.3888 25.9848 80.7071 28.1017 74.8681 33.5877C73.8785 34.5197 75.0393 36.3332 76.8966 38.1777C82.2175 34.9571 87.21 31.2947 91.8075 27.2393Z" fill="#003399"/>
    <path d="M80.8806 41.5111C82.9948 43.0381 84.8935 44.0822 85.2056 43.8556C85.5177 43.6289 92.5535 39.3108 95.4253 35.4843C95.8276 34.848 95.9724 34.1089 95.8337 33.4001C95.7154 32.5241 95.4274 31.6792 94.9829 30.9047C89.9763 35.9717 81.5741 41.0811 80.8806 41.5111Z" fill="#002366"/>
    <path d="M86.4331 40.6161C85.9352 37.7921 82.7543 34.5417 79.3441 33.3557C77.5456 32.7318 76.2653 32.7918 75.3263 33.2711C73.1908 34.4703 72.9108 35.2121 72.9108 35.2121C73.2504 34.7447 73.7586 34.3989 74.3428 34.2376C75.5169 33.9687 76.7427 34.0629 77.8257 34.5052C81.2402 35.6786 84.4168 38.9417 84.9147 41.7656C85.0625 42.6036 85.054 44.1084 83.6377 44.802C84.2266 44.5808 84.7657 44.2569 85.2241 43.8491C85.6824 43.4413 86.0511 42.9574 86.3088 42.4253C86.5226 41.8373 86.5654 41.2135 86.4331 40.6161Z" fill="white"/>
    <path d="M77.815 34.5066C76.7255 34.0549 75.4884 33.9581 74.3048 34.2319C72.9284 34.6344 72.193 35.7879 72.4966 37.5098C73.0027 40.3797 76.1846 43.6359 79.6547 44.8291C82.0779 45.6683 83.9732 45.2513 84.7129 43.9372C85.0511 43.2745 85.1497 42.5369 84.994 41.834C84.4574 38.9754 81.2588 35.6985 77.815 34.5066Z" fill="white"/>
    <path d="M80.814 43.0554C77.8826 42.0335 75.1626 39.2522 74.7355 36.83C74.5982 36.2345 74.6776 35.6079 74.9617 35.0443C73.7963 35.3859 73.1674 36.3668 73.4234 37.8189C73.8495 40.2354 76.5706 43.0224 79.4946 44.0396C81.5767 44.7556 83.1695 44.3978 83.7941 43.2815C82.7897 43.5086 81.7422 43.4291 80.814 43.0554Z" fill="white"/>
    <path d="M77.9488 35.2754C77.0206 34.8937 75.9684 34.8124 74.9613 35.0446C74.6772 35.6083 74.5978 36.2348 74.7351 36.8304C75.1622 39.2526 77.8822 42.0339 80.8136 43.0557C81.7315 43.4271 82.7672 43.5105 83.7631 43.2932C84.053 42.7203 84.1329 42.0827 83.9906 41.4776C83.6002 39.0786 80.8791 36.2915 77.9488 35.2754Z" fill="#33495E"/>
    <path d="M78.2991 36.5986C77.669 36.3455 76.9587 36.2899 76.2763 36.4404C75.5386 36.8827 74.8643 37.4094 74.2708 38.0072C73.9789 38.4966 74.3411 42.3625 75.0883 43.1244C75.8355 43.8863 79.5174 43.9887 80.545 43.3459C80.6264 43.2901 82.2283 42.0962 82.2698 42.0356C82.4645 41.6538 82.5199 41.2286 82.4278 40.8241C82.1236 39.1733 80.2856 37.2899 78.2991 36.5986Z" fill="#002366"/>
    <path d="M76.8295 36.8759C77.5167 36.724 78.2325 36.7945 78.8531 37.0754C79.0557 37.1521 79.5339 37.2395 79.7585 37.33C79.4445 34.2547 78.2931 29.6107 76.9945 24.2055C74.5405 13.9854 71.4353 5.06382 70.0612 4.2586C68.687 3.45337 69.5535 11.0298 72.0025 21.2212C73.2415 26.5544 74.8082 31.8105 76.6952 36.9647L76.8295 36.8759Z" fill="#002366"/>
    <path d="M74.9182 37.8644C75.6019 37.7149 76.3138 37.8002 76.9162 38.1039C77.1147 38.1884 77.3076 38.2828 77.4942 38.3867C77.204 33.8466 76.6388 29.3329 75.8012 24.8662C73.9511 14.3739 71.3836 5.17401 70.0656 4.31745C68.7476 3.4609 69.1799 11.2737 71.03 21.766C71.9492 27.2093 73.1987 32.5922 74.7728 37.8901C74.8208 37.879 74.8693 37.8704 74.9182 37.8644Z" fill="#003399"/>
    <path d="M70.2616 5.75615C71.033 6.21194 72.1395 9.01147 73.3052 13.1085C72.0577 8.21509 70.8369 4.76698 70.0574 4.26526C69.3942 3.8318 69.1786 5.60387 69.3571 8.79781C69.3633 6.5774 69.6599 5.41246 70.2616 5.75615Z" fill="#003399"/>
    <path d="M80.3669 42.6971C80.7174 42.9845 81.5252 42.3153 81.7717 41.5321C81.8352 41.3374 82.0752 40.8868 82.1177 40.684C84.3058 42.1861 89.2503 46.5282 92.6583 49.8096C99.0343 55.947 104.115 62.0939 103.928 63.553C103.742 65.012 98.4003 61.2254 92.0054 55.0913C88.084 51.3382 82.6178 46.0346 80.6044 43.3418C80.633 43.319 79.8949 42.3128 80.3669 42.6971Z" fill="#002366"/>
    <path d="M78.203 43.5874C78.635 43.2271 79.634 43.4948 79.8532 42.7046C79.9104 42.511 79.9475 42.3151 79.9847 42.1192C83.9969 44.7111 87.8333 47.5184 91.4745 50.527C98.4476 56.3165 104.037 62.1368 103.923 63.5595C103.809 64.9823 98.024 61.4572 91.0234 55.6962C86.7436 52.1661 80.3105 46.2222 78.075 43.675C78.1193 43.6479 78.1621 43.6186 78.203 43.5874Z" fill="#003399"/>
    <path d="M102.892 62.7822C103.01 61.9743 101.502 59.9262 99.0278 57.3205C102.063 60.3362 103.994 62.7121 103.922 63.5593C103.859 64.2747 102.369 63.7327 100.002 62.2916C101.724 63.1835 102.796 63.4206 102.892 62.7822Z" fill="#003399"/>
    <path d="M77.1503 38.0266C77.3526 38.5828 76.8127 39.4769 77.4625 40.0193C77.6236 40.1566 79.9665 41.3532 80.1372 41.4711C69.2242 49.497 54.2586 54.9115 52.9775 54.1905C51.6964 53.4694 57.1335 48.9953 64.5801 44.4924C69.1389 41.7296 74.0438 39.0064 77.1009 37.8578C77.1237 37.913 77.1338 37.9703 77.1503 38.0266Z" fill="#002366"/>
    <path d="M76.0182 39.4449C76.2395 39.9977 75.739 40.8198 76.3951 41.361C76.5562 41.4983 78.8864 42.6972 79.0655 42.8254C68.6856 50.1774 54.2554 54.8938 52.9793 54.2015C51.7033 53.5092 56.8549 49.3754 63.9724 45.2618C68.3285 42.7538 73.0442 40.2889 75.9582 39.2898C75.9906 39.3255 75.9997 39.3771 76.0182 39.4449Z" fill="#003399"/>
    <path d="M53.9538 53.5506C54.6872 54.0131 58.0042 53.3395 61.0449 52.1345C57.4933 53.6959 53.7358 54.607 52.9778 54.1902C52.3331 53.8245 53.2159 52.6569 55.1511 51.061C53.8869 52.2841 53.3953 53.1934 53.9538 53.5506Z" fill="#003399"/>
    <path d="M76.8689 37.8342C76.2523 37.5819 75.5547 37.526 74.8851 37.6751C74.617 37.7446 74.3747 37.8839 74.1883 38.0757C74.0019 38.2675 73.8795 38.5032 73.8365 38.7536C73.7918 38.9805 73.6851 42.9231 74.4125 43.647C75.14 44.371 80.3237 43.8949 80.7278 43.1549C80.921 42.773 80.9743 42.3479 80.8795 41.9445C80.6381 40.3536 78.8134 38.5093 76.8689 37.8342Z" fill="#003399"/>
    <path d="M75.0659 43.4723C74.9091 43.5728 74.7437 43.6614 74.5715 43.737C75.6408 44.3297 80.3488 43.8546 80.7463 43.1513C80.9396 42.7693 80.9929 42.3443 80.898 41.9409C80.7131 41.1513 80.3203 40.4206 79.7532 39.811C78.3555 41.1981 76.7812 42.4279 75.0659 43.4723Z" fill="#003399"/>
</svg>
