<svg width="16" height="23" viewBox="0 0 16 23" fill="none" xmlns="http://www.w3.org/2000/svg">
    <path d="M7.06762 21.7493C6.98623 21.7636 6.94073 21.8388 6.95365 21.912C6.968 21.9934 7.04316 22.0389 7.11641 22.026L12.3011 21.1118C12.3825 21.0974 12.428 21.0223 12.4151 20.949C12.4007 20.8676 12.3255 20.8221 12.2523 20.8351L7.06762 21.7493Z" fill="#4E4E54"/>
    <path d="M11.7151 21.0726L11.9023 21.0396L11.7545 20.2012L11.5673 20.2342L11.7151 21.0726Z" fill="#4E4E54"/>
    <path d="M7.46709 21.8216L7.6543 21.7886L7.50647 20.9502L7.31927 20.9832L7.46709 21.8216Z" fill="#4E4E54"/>
    <path d="M8.86553 21.5745L9.05273 21.5415L8.90491 20.7032L8.71771 20.7362L8.86553 21.5745Z" fill="#4E4E54"/>
    <path d="M10.2737 21.3265L10.4609 21.2935L10.3131 20.4551L10.1259 20.4881L10.2737 21.3265Z" fill="#4E4E54"/>
    <path d="M6.17391 1.74043C6.18205 1.739 6.18204 1.739 6.18204 1.739C6.43292 1.68637 8.93788 1.18593 9.42329 1.65423C9.92927 2.14407 10.5234 2.03931 10.5234 2.03931C10.5234 2.03931 10.4181 1.82289 10.2731 1.57152C9.99693 1.0999 9.44926 0.802027 8.82687 0.79428C8.14607 0.78844 7.14544 0.872565 6.07106 1.06201C4.98041 1.25432 4.00321 1.51894 3.35732 1.75871C2.77368 1.97072 2.35278 2.43937 2.256 2.98515C2.20569 3.27097 2.18076 3.51035 2.18076 3.51035C2.18076 3.51035 2.77492 3.40558 3.08286 2.77221C3.37882 2.16614 5.90387 1.77966 6.15762 1.7433C6.15762 1.7433 6.16577 1.74187 6.17391 1.74043Z" fill="#25303D"/>
    <path d="M8.03243 1.42934C7.12181 1.54795 5.31347 1.85841 4.41863 2.06655C2.78216 2.44742 1.8408 3.20087 2.09626 4.64964L4.43205 19.134C4.68751 20.5828 6.02745 21.4711 7.76108 21.3081C8.22261 21.2603 9.02073 21.1699 9.64745 21.0594C10.2823 20.9475 10.9344 20.7905 11.3749 20.6709C12.8984 20.268 14.0165 18.9463 13.7596 17.4893L11.0005 3.07958C10.737 1.63224 9.65548 1.21029 8.03243 1.42934Z" fill="#2D3857"/>
    <path d="M4.59179 17.1842C4.60323 17.5347 5.41867 20.303 5.41867 20.303L6.95204 21.0985C6.95204 21.0985 8.01154 21.0627 9.48474 20.803C10.9579 20.5432 12.0433 20.2259 12.0433 20.2259L13.2337 19.0761C13.2337 19.0761 13.0789 16.485 12.9713 15.8746C12.8637 15.2641 12.3476 14.86 12.3476 14.86L4.85956 16.1803C4.67042 16.4403 4.58178 16.8419 4.59179 17.1842Z" fill="#414D7A"/>
    <path d="M12.7055 12.0275C12.6993 12.0874 12.7036 12.1118 12.7036 12.1118L12.481 12.1343L12.5312 12.4191C12.6207 12.4033 12.7715 12.4019 12.7715 12.4019C12.7715 12.4019 12.7945 12.5322 13.143 12.4623C13.4916 12.3924 13.8966 12.2623 14.0594 12.0909C14.2141 11.921 14.2074 11.6452 14.0509 11.6141C13.8862 11.5844 12.7117 11.9677 12.7055 12.0275Z" fill="#273552"/>
    <path d="M10.6794 18.0575L11.5696 19.965L11.7597 19.8056L10.802 17.9436L10.4149 16.367L10.6794 18.0575Z" fill="#5665A1"/>
    <path d="M8.38014 4.73342L5.16516 5.30031C4.75006 5.3735 4.47519 5.76606 4.54838 6.18116L5.30708 14.0536L11.2324 13.0088L9.25284 5.35164C9.18779 4.9351 8.7871 4.66167 8.38014 4.73342Z" fill="#414D7A"/>
    <path d="M2.14178 13.7136C2.00532 13.7964 2.09338 14.0578 2.29684 14.1646C2.5003 14.2714 2.93358 14.2537 3.285 14.2001C3.63642 14.1466 3.61346 14.0163 3.61346 14.0163C3.61346 14.0163 3.75567 13.9661 3.8452 13.9503L3.79497 13.6654L3.57807 13.7205C3.57807 13.7205 3.57377 13.696 3.54745 13.6419C3.51298 13.5893 2.27824 13.6307 2.14178 13.7136Z" fill="#384BA1"/>
    <path d="M10.2301 12.4556C9.52868 12.7136 8.69656 12.9442 8.16752 13.0375C7.63033 13.1322 6.69768 13.2211 5.94889 13.2105C5.20154 13.208 4.89178 13.2123 4.85629 13.6297C4.8208 14.0472 4.62238 15.6348 4.73389 15.934C4.83726 16.2347 5.34856 16.4215 6.21033 16.4542C7.0721 16.4868 8.10482 16.3467 8.73153 16.2362C9.35011 16.1271 10.3766 15.9042 11.1752 15.5787C11.9739 15.2533 12.3904 14.9029 12.3847 14.585C12.379 14.2671 11.6467 12.8268 11.4787 12.4452C11.2959 12.0746 10.9315 12.1976 10.2301 12.4556Z" fill="#273043"/>
    <path opacity="0.59" d="M10.0487 12.722C9.38507 12.9565 8.57976 13.1489 8.09284 13.2431C7.62077 13.3263 6.93134 13.4143 6.22755 13.4209C5.52377 13.4276 5.07038 13.3313 5.03156 13.6822C4.99273 14.0331 4.84553 15.5781 4.94029 15.8299C5.03505 16.0818 5.51332 16.224 6.32195 16.2409C7.12915 16.2496 8.10489 16.1195 8.68948 16.0081C9.2755 15.9047 10.2369 15.6932 10.9924 15.409C11.7479 15.1247 12.1391 14.8207 12.1421 14.5517C12.145 14.2826 11.4581 12.9099 11.3016 12.5934C11.1451 12.2769 10.7137 12.4956 10.0487 12.722Z" fill="url(#paint0_linear_1040_21439)"/>
    <path d="M2.13397 13.715C1.99751 13.7978 2.08557 14.0592 2.28903 14.166C2.49249 14.2728 2.92577 14.2552 3.27719 14.2016C3.62861 14.148 3.60565 14.0178 3.60565 14.0178C3.60565 14.0178 3.74785 13.9676 3.83738 13.9518L3.78715 13.6669L3.57026 13.7219C3.57026 13.7219 3.56596 13.6975 3.53963 13.6434C3.51331 13.5893 2.27043 13.6322 2.13397 13.715Z" fill="#273552"/>
    <path d="M7.07928 20.631L7.31242 20.7158L7.49656 18.6188L7.16692 16.9398L7.34241 18.5537L7.07928 20.631Z" fill="#5665A1"/>
    <path d="M8.82941 1.23036C8.69869 1.34572 8.80589 1.62054 9.06344 1.84368C9.32098 2.06682 9.63839 2.15353 9.76911 2.03816C9.89983 1.9228 9.79263 1.64797 9.53508 1.42483C9.2761 1.19355 8.96013 1.11499 8.82941 1.23036Z" fill="#D83432"/>
    <path d="M8.8375 1.56456C8.88728 1.65649 8.96291 1.75225 9.06296 1.84371C9.32051 2.06685 9.63792 2.15355 9.76863 2.03819C9.71886 1.94626 9.64323 1.85049 9.53504 1.76047C9.27606 1.52919 8.96822 1.4492 8.8375 1.56456Z" fill="#FE9D6D"/>
    <path d="M2.49236 2.65801C2.32667 2.95578 2.31992 3.2507 2.48222 3.3144C2.64451 3.37809 2.91312 3.18806 3.07882 2.89029C3.24451 2.59252 3.25125 2.2976 3.08896 2.2339C2.9281 2.17834 2.66619 2.3588 2.49236 2.65801Z" fill="#D83432"/>
    <path d="M2.60788 2.97359C2.54515 3.09375 2.4987 3.21105 2.48336 3.31446C2.64565 3.37815 2.91427 3.18812 3.07996 2.89035C3.1427 2.77019 3.18915 2.65289 3.20448 2.54948C3.04363 2.49392 2.77358 2.67582 2.60788 2.97359Z" fill="#FE9D6D"/>
    <path d="M7.43345 20.879L5.36627 19.9594L5.77787 20.9611C6.3241 21.2508 7.01015 21.3816 7.769 21.3066C8.23054 21.2587 9.02865 21.1684 9.65537 21.0579C10.2902 20.9459 10.9423 20.789 11.3828 20.6693C12.0483 20.4932 12.6401 20.1371 13.0706 19.6752L13.1799 18.7244L11.5481 20.1786C11.5481 20.1786 10.6254 20.4672 9.43711 20.6767C8.24065 20.8877 7.43345 20.879 7.43345 20.879Z" fill="#4C5478"/>
    <path opacity="0.59" d="M5.03388 13.6906C4.99505 14.0416 4.84786 15.5865 4.94262 15.8383C5.03738 16.0902 5.51564 16.2325 6.32428 16.2493C6.804 16.2571 7.34165 16.2126 7.82617 16.1523C7.74433 15.9738 7.23221 14.8304 6.91307 13.4012C6.69715 13.4141 6.46495 13.4299 6.23801 13.4279C5.53423 13.4346 5.07128 13.3316 5.03388 13.6906Z" fill="url(#paint1_linear_1040_21439)"/>
    <path d="M12.4517 18.4923C12.0313 18.7258 11.7014 19.1868 11.5381 19.5933C11.4092 19.9097 11.424 20.1841 11.694 20.2875C11.9832 20.4044 12.6272 19.9635 12.959 19.5609C13.3177 19.12 13.4461 18.6107 13.2757 18.4057C13.1287 18.2386 12.8788 18.2491 12.4517 18.4923Z" fill="#2D3857"/>
    <path d="M12.4388 18.6623C12.1023 18.8475 11.8394 19.2127 11.712 19.5373C11.6138 19.7896 11.6267 20.0056 11.834 20.0865C12.0604 20.1808 12.5775 19.8295 12.8476 19.5049C13.1378 19.1516 13.2345 18.7485 13.0972 18.5881C12.9818 18.4574 12.7821 18.4674 12.4388 18.6623Z" fill="#D6E5FE"/>
    <path d="M13.1072 18.5865C12.9919 18.4558 12.7922 18.4658 12.4475 18.6525C12.4015 18.6774 12.3637 18.7008 12.3192 18.7338C12.3599 18.7267 12.7506 18.6578 12.9229 18.7785C13.0761 18.8857 13.0832 19.0691 13.0799 19.1452C13.1809 18.9092 13.1925 18.689 13.1072 18.5865Z" fill="#D5FAFC"/>
    <path d="M11.6597 19.7563C11.6449 19.9099 11.6989 20.0263 11.8435 20.0847C12.07 20.1791 12.5871 19.8277 12.8571 19.5032C12.9539 19.3854 13.0247 19.2638 13.0793 19.1451C13.0793 19.1451 12.374 19.9996 11.6774 19.7615C11.6693 19.763 11.6611 19.7644 11.6597 19.7563Z" fill="#78C2FC"/>
    <path d="M6.09504 19.6131C5.61054 19.5307 5.37211 19.6063 5.29117 19.8136C5.19969 20.0563 5.48784 20.5007 5.9838 20.7909C6.43332 21.0557 7.18926 21.2497 7.42101 21.041C7.63122 20.8529 7.5513 20.59 7.33015 20.3353C7.03767 20.0092 6.5714 19.697 6.09504 19.6131Z" fill="#2D3857"/>
    <path d="M6.15603 19.7701C5.76681 19.7045 5.57577 19.7633 5.51351 19.9338C5.43927 20.1315 5.66951 20.4853 6.06159 20.7099C6.41824 20.924 7.02434 21.0773 7.21299 20.9097C7.37867 20.7546 7.31836 20.5555 7.13981 20.352C6.90765 20.0824 6.53569 19.8291 6.15603 19.7701Z" fill="#D6E5FE"/>
    <path d="M6.3032 19.7947C6.25006 19.7789 6.20649 19.7698 6.15478 19.7621C5.76555 19.6965 5.57452 19.7553 5.51226 19.9258C5.46053 20.0608 5.55338 20.2542 5.72906 20.4414C5.7013 20.3792 5.64389 20.1963 5.75115 20.0431C5.87182 19.8707 6.2625 19.8019 6.3032 19.7947Z" fill="#D5FAFC"/>
    <path d="M5.73736 20.4398C5.82927 20.5327 5.93745 20.6227 6.06862 20.7003C6.42527 20.9144 7.03137 21.0677 7.22003 20.9001C7.3359 20.7958 7.33879 20.6694 7.2804 20.5286C7.27227 20.53 7.27227 20.53 7.26556 20.5396C6.68572 21.0111 5.73736 20.4398 5.73736 20.4398Z" fill="#78C2FC"/>
    <path d="M8.45591 2.4961C7.72244 2.52472 6.82282 2.65817 6.28563 2.75289C5.74844 2.84762 4.85744 3.0299 4.15841 3.25387C3.45938 3.47783 3.07826 3.69609 3.0677 3.87419C3.049 4.05372 3.60185 4.90457 3.73014 5.10855C3.85842 5.31252 4.16963 5.17371 4.78344 4.98995C5.51789 4.77653 6.60998 4.59235 6.60998 4.59235C6.60998 4.59235 7.82272 4.37852 8.46235 4.34126C9.10199 4.30401 9.35955 4.38447 9.4678 4.04648C9.54443 3.81477 9.77198 2.86828 9.693 2.70597C9.61403 2.54366 9.18938 2.46748 8.45591 2.4961Z" fill="#273043"/>
    <path opacity="0.59" d="M8.37251 2.73735C7.68404 2.78322 6.82512 2.90949 6.32049 2.99847C5.80772 3.08888 4.96411 3.25442 4.30147 3.44679C3.6307 3.64059 3.26825 3.822 3.25195 3.96754C3.23422 4.10494 3.74639 4.82029 3.8675 4.98356C3.97903 5.14014 4.30892 4.96448 4.89303 4.80273C5.47715 4.64099 6.57308 4.43097 6.57308 4.43097C6.57308 4.43097 7.63547 4.26881 8.23968 4.22102C8.84389 4.17323 9.25467 4.21829 9.30449 4.02488C9.35431 3.83146 9.60864 2.98936 9.54498 2.86631C9.46361 2.73799 9.06098 2.69149 8.37251 2.73735Z" fill="url(#paint2_linear_1040_21439)"/>
    <path opacity="0.59" d="M4.29246 3.44825C3.62168 3.64206 3.25922 3.82346 3.24292 3.969C3.22519 4.1064 3.73881 4.82989 3.85848 4.98503C3.97001 5.1416 4.16154 4.99033 4.74565 4.82859C4.91371 4.78218 5.22683 4.70179 5.44515 4.6549C5.25612 4.05881 5.47168 3.28229 5.50856 3.1583C5.11117 3.23676 4.67596 3.33867 4.29246 3.44825Z" fill="url(#paint3_linear_1040_21439)"/>
    <path d="M10.0495 3.96101L9.48009 4.68243C9.42503 4.75088 9.41496 4.83658 9.43745 4.91653L9.76528 5.82384C9.81553 5.96604 9.9941 6.02687 10.1401 5.95077L10.7391 5.63535C10.8473 5.5827 10.9019 5.46396 10.8737 5.35145L10.5162 4.03816C10.4559 3.83898 10.1797 3.79537 10.0495 3.96101Z" fill="#25303D"/>
    <path d="M11.6122 9.92896L11.1224 10.0069C10.9841 10.0313 10.8845 10.1328 10.9113 10.2372L11.262 11.7027C11.262 11.7027 12.0714 13.2469 12.1604 13.3235C12.2413 13.4015 12.4477 13.3819 12.4788 13.2254L11.8415 10.0396C11.819 9.95962 11.718 9.9103 11.6122 9.92896Z" fill="#25303D"/>
    <path opacity="0.59" d="M11.6006 10.0567L11.1841 10.1218C11.1109 10.1347 11.0611 10.1854 11.0711 10.2424L11.3989 11.5777C11.4075 11.6266 11.4324 11.6725 11.4491 11.7199L12.2087 13.1721C12.2336 13.2181 12.3217 13.1942 12.3131 13.1453C12.1676 12.4157 11.7524 10.4412 11.6825 10.0926C11.6782 10.0682 11.6413 10.0496 11.6006 10.0567Z" fill="url(#paint4_linear_1040_21439)"/>
    <path d="M10.8303 5.96318L10.0288 6.41502C9.97616 6.44948 9.94408 6.5055 9.9637 6.56918L10.8126 9.71765C10.8293 9.76505 10.9031 9.80241 10.9926 9.78662L11.6126 9.68569C11.7021 9.6699 11.7682 9.61628 11.7582 9.55931L11.0405 6.0604C11.0137 5.95602 10.9141 5.91484 10.8303 5.96318Z" fill="#25303D"/>
    <path opacity="0.59" d="M10.7732 6.20839L10.2164 6.52478C10.1704 6.54967 10.1532 6.59467 10.1618 6.6435L10.9557 9.57509C10.9724 9.62249 11.0366 9.65315 11.118 9.63879L11.4287 9.59239C11.5264 9.57517 11.591 9.51342 11.581 9.45644C11.4881 8.97766 11.102 7.07357 10.9384 6.28837C10.9159 6.20841 10.8341 6.17249 10.7732 6.20839Z" fill="url(#paint5_linear_1040_21439)"/>
    <path opacity="0.59" d="M10.1512 4.11069L9.62303 4.73253C9.59622 4.77083 9.58712 4.81439 9.60243 4.85365L9.90681 5.72313C9.93744 5.80165 10.026 5.82801 10.1031 5.78924L10.6614 5.48099C10.7155 5.45466 10.7461 5.39051 10.7279 5.33497L10.3935 4.1519C10.3667 4.04753 10.2211 4.03123 10.1512 4.11069Z" fill="url(#paint6_linear_1040_21439)"/>
    <path d="M2.78402 5.40132L2.89729 6.75766C2.90925 6.87305 3.00116 6.96595 3.12085 6.97841L3.79158 7.06995C3.95484 7.09152 4.10184 6.97328 4.10043 6.82247L4.09817 5.85776C4.1001 5.77349 4.05319 5.69785 3.97803 5.65235L3.19627 5.16917C3.01723 5.05807 2.76442 5.19497 2.78402 5.40132Z" fill="#25303D"/>
    <path d="M3.76758 11.3124C3.66178 11.331 3.58372 11.4119 3.59807 11.4933L4.08884 14.7049C4.17165 14.8414 4.37082 14.7811 4.42158 14.6882C4.47091 14.5872 4.71149 12.8579 4.71149 12.8579L4.53982 11.3608C4.5293 11.2536 4.401 11.1923 4.26264 11.2167L3.76758 11.3124Z" fill="#25303D"/>
    <path opacity="0.59" d="M3.81381 11.4301C3.77311 11.4373 3.74486 11.4674 3.74916 11.4918C3.8013 11.8351 4.07966 13.8421 4.20069 14.5761C4.2093 14.6249 4.30026 14.6173 4.30793 14.5656L4.52504 12.9412C4.5327 12.8895 4.53223 12.8392 4.52362 12.7904L4.37492 11.4235C4.36487 11.3665 4.30072 11.3358 4.22747 11.3487L3.81381 11.4301Z" fill="url(#paint7_linear_1040_21439)"/>
    <path d="M3.14608 7.31797C3.05081 7.3012 2.96461 7.38354 2.9804 7.47307L3.50272 11.0064C3.51277 11.0634 3.5932 11.0912 3.68273 11.0754L4.29987 10.9582C4.38126 10.9438 4.44734 10.8902 4.44543 10.8318L4.16629 7.58287C4.16438 7.52446 4.11364 7.47466 4.05236 7.46029L3.14608 7.31797Z" fill="#25303D"/>
    <path opacity="0.59" d="M3.28457 7.52871C3.21515 7.51577 3.15052 7.57753 3.15386 7.64408C3.26865 8.43789 3.55708 10.3592 3.63361 10.8409C3.64366 10.8978 3.72552 10.9337 3.82319 10.9165L4.13105 10.8538C4.2043 10.8409 4.26223 10.7888 4.26176 10.7385L4.00509 7.71218C4.00462 7.66191 3.96489 7.62695 3.91318 7.61929L3.28457 7.52871Z" fill="url(#paint8_linear_1040_21439)"/>
    <path opacity="0.59" d="M2.93787 5.46643L3.02819 6.69255C3.0301 6.75096 3.08084 6.80077 3.14068 6.807L3.77073 6.90572C3.85642 6.91578 3.93064 6.86073 3.93256 6.77647L3.9212 5.85532C3.92217 5.81319 3.89728 5.76722 3.86042 5.74855L3.15141 5.34486C3.0504 5.29553 2.92736 5.35919 2.93787 5.46643Z" fill="url(#paint9_linear_1040_21439)"/>
    <path d="M6.18085 7.91586C5.79017 7.98475 5.5287 8.35814 5.59759 8.74882L5.80856 9.94529C5.87745 10.336 6.25085 10.5974 6.64153 10.5285L8.68447 10.1683C9.07515 10.0994 9.33661 9.72603 9.26772 9.33535L9.05675 8.13888C8.98786 7.7482 8.61447 7.48675 8.22379 7.55563L6.18085 7.91586Z" fill="#273043"/>
    <defs>
        <linearGradient id="paint0_linear_1040_21439" x1="11.787" y1="15.5772" x2="5.20605" y2="13.1819" gradientUnits="userSpaceOnUse">
            <stop stop-color="#72B3DD"/>
            <stop offset="0.9946" stop-color="#2E81BA"/>
        </linearGradient>
        <linearGradient id="paint1_linear_1040_21439" x1="7.5532" y1="14.6159" x2="4.81056" y2="15.0995" gradientUnits="userSpaceOnUse">
            <stop stop-color="#72B3DD"/>
            <stop offset="0.9946" stop-color="#2E81BA"/>
        </linearGradient>
        <linearGradient id="paint2_linear_1040_21439" x1="9.0266" y1="4.76369" x2="3.66395" y2="2.81185" gradientUnits="userSpaceOnUse">
            <stop stop-color="#72B3DD"/>
            <stop offset="0.9946" stop-color="#2E81BA"/>
        </linearGradient>
        <linearGradient id="paint3_linear_1040_21439" x1="5.65319" y1="3.94515" x2="3.31045" y2="4.35824" gradientUnits="userSpaceOnUse">
            <stop stop-color="#72B3DD"/>
            <stop offset="0.9946" stop-color="#2E81BA"/>
        </linearGradient>
        <linearGradient id="paint4_linear_1040_21439" x1="11.3366" y1="11.7277" x2="12.0464" y2="11.6025" gradientUnits="userSpaceOnUse">
            <stop stop-color="#72B3DD"/>
            <stop offset="0.9946" stop-color="#2E81BA"/>
        </linearGradient>
        <linearGradient id="paint5_linear_1040_21439" x1="10.4013" y1="8.01947" x2="11.2954" y2="7.86182" gradientUnits="userSpaceOnUse">
            <stop stop-color="#72B3DD"/>
            <stop offset="0.9946" stop-color="#2E81BA"/>
        </linearGradient>
        <linearGradient id="paint6_linear_1040_21439" x1="10.6433" y1="4.84583" x2="9.6322" y2="5.02411" gradientUnits="userSpaceOnUse">
            <stop stop-color="#72B3DD"/>
            <stop offset="0.9946" stop-color="#2E81BA"/>
        </linearGradient>
        <linearGradient id="paint7_linear_1040_21439" x1="3.92907" y1="13.0342" x2="4.63889" y2="12.909" gradientUnits="userSpaceOnUse">
            <stop stop-color="#72B3DD"/>
            <stop offset="0.9946" stop-color="#2E81BA"/>
        </linearGradient>
        <linearGradient id="paint8_linear_1040_21439" x1="3.35674" y1="9.26147" x2="4.25084" y2="9.10382" gradientUnits="userSpaceOnUse">
            <stop stop-color="#72B3DD"/>
            <stop offset="0.9946" stop-color="#2E81BA"/>
        </linearGradient>
        <linearGradient id="paint9_linear_1040_21439" x1="3.94883" y1="6.02615" x2="2.93773" y2="6.20444" gradientUnits="userSpaceOnUse">
            <stop stop-color="#72B3DD"/>
            <stop offset="0.9946" stop-color="#2E81BA"/>
        </linearGradient>
    </defs>
</svg>
