<svg width="16" height="23" viewBox="0 0 16 23" fill="none" xmlns="http://www.w3.org/2000/svg">
    <path d="M8.74879 1.25147C8.83018 1.23712 8.87568 1.16195 8.86276 1.0887C8.84841 1.00731 8.77324 0.961819 8.69999 0.974735L3.51533 1.88893C3.43393 1.90328 3.38843 1.97844 3.40135 2.05169C3.4157 2.13308 3.49087 2.17858 3.56412 2.16567L8.74879 1.25147Z" fill="#4E4E54"/>
    <path d="M4.10127 1.92817L3.91406 1.96118L4.06188 2.79952L4.24909 2.76651L4.10127 1.92817Z" fill="#4E4E54"/>
    <path d="M8.34931 1.17915L8.16211 1.21216L8.30993 2.0505L8.49714 2.01749L8.34931 1.17915Z" fill="#4E4E54"/>
    <path d="M6.95088 1.42597L6.76367 1.45898L6.91149 2.29733L7.0987 2.26432L6.95088 1.42597Z" fill="#4E4E54"/>
    <path d="M5.54267 1.67427L5.35547 1.70728L5.50329 2.54562L5.6905 2.51261L5.54267 1.67427Z" fill="#4E4E54"/>
    <path d="M9.6425 21.2605C9.63436 21.262 9.63436 21.262 9.63436 21.262C9.38348 21.3146 6.87852 21.8151 6.39312 21.3468C5.88713 20.8569 5.29297 20.9617 5.29297 20.9617C5.29297 20.9617 5.39827 21.1781 5.5433 21.4295C5.81948 21.9011 6.36714 22.1989 6.98954 22.2067C7.67034 22.2125 8.67097 22.1284 9.74534 21.939C10.836 21.7467 11.8132 21.482 12.4591 21.2423C13.0427 21.0303 13.4636 20.5616 13.5604 20.0158C13.6107 19.73 13.6356 19.4906 13.6356 19.4906C13.6356 19.4906 13.0415 19.5954 12.7335 20.2288C12.4376 20.8348 9.91253 21.2213 9.65878 21.2577C9.65878 21.2577 9.65064 21.2591 9.6425 21.2605Z" fill="#25303D"/>
    <path d="M7.78397 21.5716C8.6946 21.453 10.5029 21.1426 11.3978 20.9344C13.0342 20.5536 13.9756 19.8001 13.7201 18.3513L11.3844 3.86694C11.1289 2.41816 9.78896 1.52986 8.05533 1.69288C7.59379 1.74069 6.79568 1.83107 6.16896 1.94158C5.5341 2.05352 4.882 2.21046 4.44152 2.33009C2.91804 2.733 1.79994 4.05472 2.05683 5.51163L4.81586 19.9214C5.07946 21.3687 6.16093 21.7907 7.78397 21.5716Z" fill="#2D3857"/>
    <path d="M11.2246 5.81698C11.2132 5.46652 10.3977 2.69819 10.3977 2.69819L8.86437 1.90275C8.86437 1.90275 7.80486 1.9385 6.33167 2.19827C4.85847 2.45803 3.77306 2.7753 3.77306 2.7753L2.5827 3.92513C2.5827 3.92513 2.73746 6.51623 2.84509 7.12667C2.95273 7.73711 3.46878 8.14126 3.46878 8.14126L10.9568 6.82091C11.146 6.56097 11.2346 6.15929 11.2246 5.81698Z" fill="#414D7A"/>
    <path d="M3.1109 10.9735C3.11713 10.9136 3.11282 10.8892 3.11282 10.8892L3.33545 10.8667L3.28522 10.5818C3.19569 10.5976 3.04488 10.5991 3.04488 10.5991C3.04488 10.5991 3.02191 10.4688 2.67336 10.5387C2.32481 10.6085 1.91976 10.7387 1.75696 10.9101C1.6023 11.08 1.60896 11.3558 1.76551 11.3869C1.9302 11.4166 3.10467 11.0333 3.1109 10.9735Z" fill="#273552"/>
    <path d="M5.13702 4.94321L4.24677 3.03568L4.05668 3.19509L5.01443 5.05714L5.40154 6.63377L5.13702 4.94321Z" fill="#5665A1"/>
    <path d="M7.43627 18.2676L10.6513 17.7007C11.0663 17.6275 11.3412 17.2349 11.268 16.8198L10.5093 8.94739L4.58398 9.99219L6.56357 17.6493C6.62862 18.0659 7.02931 18.3393 7.43627 18.2676Z" fill="#414D7A"/>
    <path d="M13.6746 9.28742C13.8111 9.20462 13.723 8.9432 13.5196 8.83641C13.3161 8.72962 12.8828 8.74727 12.5314 8.80084C12.18 8.85441 12.2029 8.98464 12.2029 8.98464C12.2029 8.98464 12.0607 9.03489 11.9712 9.05067L12.0214 9.33555L12.2383 9.28052C12.2383 9.28052 12.2426 9.30494 12.269 9.35904C12.3034 9.41171 13.5382 9.37023 13.6746 9.28742Z" fill="#384BA1"/>
    <path d="M5.5863 10.5454C6.28772 10.2874 7.11984 10.0568 7.64889 9.96349C8.18608 9.86877 9.11873 9.77985 9.86751 9.79049C10.6149 9.79298 10.9246 9.78872 10.9601 9.37124C10.9956 8.95377 11.194 7.36621 11.0825 7.06696C10.9791 6.76628 10.4679 6.5795 9.60608 6.54682C8.74431 6.51415 7.71159 6.65428 7.08487 6.76478C6.46629 6.87386 5.43979 7.09682 4.64117 7.42227C3.84254 7.74772 3.42597 8.09811 3.43167 8.41601C3.43737 8.73391 4.16968 10.1741 4.33768 10.5557C4.52051 10.9263 4.88487 10.8033 5.5863 10.5454Z" fill="#273043"/>
    <path opacity="0.59" d="M5.76774 10.2787C6.43134 10.0442 7.23665 9.85187 7.72356 9.75762C8.19564 9.67438 8.88507 9.58639 9.58886 9.57979C10.2926 9.57318 10.746 9.66948 10.7849 9.31855C10.8237 8.96762 10.9709 7.42267 10.8761 7.17082C10.7814 6.91898 10.3031 6.77671 9.49446 6.75984C8.68726 6.75111 7.71151 6.88121 7.12693 6.99268C6.5409 7.09601 5.57952 7.30748 4.82399 7.59176C4.06846 7.87605 3.67726 8.18001 3.67435 8.44908C3.67144 8.71814 4.35828 10.0909 4.51479 10.4073C4.67131 10.7238 5.1027 10.5051 5.76774 10.2787Z" fill="url(#paint0_linear_1040_21383)"/>
    <path d="M13.6824 9.28596C13.8189 9.20315 13.7308 8.94174 13.5274 8.83494C13.3239 8.72815 12.8906 8.7458 12.5392 8.79938C12.1878 8.85295 12.2108 8.98318 12.2108 8.98318C12.2108 8.98318 12.0686 9.03342 11.979 9.04921L12.0293 9.33408L12.2461 9.27906C12.2461 9.27906 12.2504 9.30348 12.2768 9.35758C12.3031 9.41168 13.546 9.36877 13.6824 9.28596Z" fill="#273552"/>
    <path d="M8.73713 2.36994L8.50398 2.28516L8.31985 4.38213L8.64948 6.0612L8.474 4.44727L8.73713 2.36994Z" fill="#5665A1"/>
    <path d="M6.987 21.7706C7.11772 21.6553 7.01051 21.3804 6.75297 21.1573C6.49542 20.9342 6.17801 20.8474 6.04729 20.9628C5.91658 21.0782 6.02378 21.353 6.28133 21.5761C6.5403 21.8074 6.85628 21.886 6.987 21.7706Z" fill="#D83432"/>
    <path d="M6.9789 21.4364C6.92912 21.3445 6.85349 21.2487 6.75345 21.1573C6.4959 20.9341 6.17849 20.8474 6.04777 20.9628C6.09755 21.0547 6.17318 21.1505 6.28137 21.2405C6.54035 21.4718 6.84818 21.5518 6.9789 21.4364Z" fill="#FE9D6D"/>
    <path d="M13.324 20.343C13.4897 20.0452 13.4965 19.7503 13.3342 19.6866C13.1719 19.6229 12.9033 19.8129 12.7376 20.1107C12.5719 20.4085 12.5652 20.7034 12.7274 20.7671C12.8883 20.8226 13.1502 20.6422 13.324 20.343Z" fill="#D83432"/>
    <path d="M13.2085 20.0274C13.2713 19.9072 13.3177 19.7899 13.333 19.6865C13.1708 19.6228 12.9021 19.8129 12.7364 20.1106C12.6737 20.2308 12.6273 20.3481 12.6119 20.4515C12.7728 20.5071 13.0428 20.3252 13.2085 20.0274Z" fill="#FE9D6D"/>
    <path d="M8.38296 2.12177L10.4501 3.04129L10.0385 2.03965C9.49231 1.74992 8.80626 1.61912 8.0474 1.69418C7.58587 1.74199 6.78776 1.83237 6.16104 1.94288C5.52618 2.05482 4.87408 2.21176 4.4336 2.33139C3.76809 2.50749 3.17628 2.86361 2.74581 3.32556L2.63652 4.27637L4.26836 2.8221C4.26836 2.8221 5.19097 2.53354 6.37929 2.324C7.57576 2.11304 8.38296 2.12177 8.38296 2.12177Z" fill="#4C5478"/>
    <path opacity="0.59" d="M10.7825 9.31035C10.8214 8.95942 10.9685 7.41447 10.8738 7.16263C10.779 6.91079 10.3008 6.76852 9.49213 6.75165C9.01241 6.74393 8.47475 6.78838 7.99023 6.84863C8.07208 7.02722 8.58419 8.17058 8.90333 9.59974C9.11926 9.58684 9.35146 9.57108 9.57839 9.57303C10.2822 9.56643 10.7451 9.66942 10.7825 9.31035Z" fill="url(#paint1_linear_1040_21383)"/>
    <path d="M3.3647 4.50872C3.78509 4.27514 4.11503 3.81413 4.27834 3.40768C4.40717 3.09123 4.39237 2.8169 4.12236 2.71345C3.8332 2.59659 3.1892 3.03744 2.85736 3.44004C2.49871 3.88093 2.37032 4.39032 2.54073 4.59525C2.68769 4.76236 2.93761 4.75187 3.3647 4.50872Z" fill="#2D3857"/>
    <path d="M3.37756 4.33873C3.71416 4.15349 3.97705 3.78823 4.10444 3.46364C4.20263 3.21135 4.18973 2.99542 3.98244 2.91448C3.756 2.82013 3.23888 3.17148 2.96881 3.49604C2.67863 3.84933 2.58186 4.25244 2.71925 4.41284C2.83461 4.54356 3.03426 4.53353 3.37756 4.33873Z" fill="#D6E5FE"/>
    <path d="M2.70916 4.41424C2.82453 4.54496 3.02417 4.53493 3.36891 4.34826C3.41487 4.32337 3.45269 4.29992 3.49722 4.26689C3.45653 4.27407 3.06585 4.34295 2.89351 4.22228C2.74032 4.11501 2.73317 3.93165 2.73653 3.85553C2.63548 4.09154 2.62396 4.31177 2.70916 4.41424Z" fill="#D5FAFC"/>
    <path d="M4.15669 3.24447C4.17156 3.09079 4.11747 2.97444 3.97289 2.91601C3.74645 2.82166 3.22934 3.17301 2.95927 3.49757C2.86255 3.61533 2.79167 3.73694 2.73708 3.85566C2.73708 3.85566 3.44241 3.00116 4.13898 3.23921C4.14712 3.23777 4.15526 3.23633 4.15669 3.24447Z" fill="#78C2FC"/>
    <path d="M9.72137 3.38787C10.2059 3.47028 10.4443 3.39466 10.5252 3.18737C10.6167 2.94465 10.3286 2.50032 9.83261 2.21012C9.38309 1.9453 8.62715 1.75129 8.39539 1.96C8.18519 2.14812 8.2651 2.41098 8.48626 2.66571C8.77874 2.99179 9.24501 3.30402 9.72137 3.38787Z" fill="#2D3857"/>
    <path d="M9.66037 3.23109C10.0496 3.29673 10.2406 3.23787 10.3029 3.06744C10.3771 2.86972 10.1469 2.51588 9.75482 2.29128C9.39817 2.07723 8.79207 1.92393 8.60341 2.09148C8.43774 2.24657 8.49804 2.44575 8.67659 2.64925C8.90876 2.91883 9.28072 3.17214 9.66037 3.23109Z" fill="#D6E5FE"/>
    <path d="M9.51321 3.20629C9.56635 3.2221 9.60992 3.2312 9.66163 3.23887C10.0509 3.30451 10.2419 3.24565 10.3042 3.07522C10.3559 2.94022 10.263 2.74678 10.0873 2.55956C10.1151 2.62181 10.1725 2.8047 10.0653 2.95789C9.94458 3.13023 9.5539 3.19912 9.51321 3.20629Z" fill="#D5FAFC"/>
    <path d="M10.079 2.56117C9.98713 2.46827 9.87895 2.37825 9.74778 2.30067C9.39113 2.08661 8.78503 1.93332 8.59638 2.10086C8.4805 2.20521 8.47761 2.33161 8.536 2.47238C8.54414 2.47094 8.54414 2.47094 8.55084 2.46137C9.13069 1.98987 10.079 2.56117 10.079 2.56117Z" fill="#78C2FC"/>
    <path d="M7.3605 20.5049C8.09397 20.4763 8.99359 20.3428 9.53077 20.2481C10.068 20.1534 10.959 19.9711 11.658 19.7471C12.357 19.5231 12.7381 19.3049 12.7487 19.1268C12.7674 18.9473 12.2146 18.0964 12.0863 17.8924C11.958 17.6885 11.6468 17.8273 11.033 18.011C10.2985 18.2245 9.20643 18.4086 9.20643 18.4086C9.20643 18.4086 7.99369 18.6225 7.35406 18.6597C6.71442 18.697 6.45686 18.6165 6.34861 18.9545C6.27198 19.1862 6.04443 20.1327 6.1234 20.295C6.20238 20.4573 6.62703 20.5335 7.3605 20.5049Z" fill="#273043"/>
    <path opacity="0.59" d="M7.4439 20.2636C8.13237 20.2178 8.99129 20.0915 9.49592 20.0025C10.0087 19.9121 10.8523 19.7466 11.5149 19.5542C12.1857 19.3604 12.5482 19.179 12.5645 19.0334C12.5822 18.896 12.07 18.1807 11.9489 18.0174C11.8374 17.8608 11.5075 18.0365 10.9234 18.1982C10.3393 18.36 9.24333 18.57 9.24333 18.57C9.24333 18.57 8.18094 18.7322 7.57673 18.78C6.97252 18.8277 6.56174 18.7827 6.51192 18.9761C6.4621 19.1695 6.20776 20.0116 6.27142 20.1347C6.3528 20.263 6.75543 20.3095 7.4439 20.2636Z" fill="url(#paint2_linear_1040_21383)"/>
    <path opacity="0.59" d="M11.524 19.5527C12.1947 19.3589 12.5572 19.1775 12.5735 19.032C12.5912 18.8946 12.0776 18.1711 11.9579 18.016C11.8464 17.8594 11.6549 18.0106 11.0708 18.1724C10.9027 18.2188 10.5896 18.2992 10.3713 18.3461C10.5603 18.9422 10.3447 19.7187 10.3078 19.8427C10.7052 19.7642 11.1404 19.6623 11.524 19.5527Z" fill="url(#paint3_linear_1040_21383)"/>
    <path d="M5.76696 19.04L6.33631 18.3185C6.39138 18.2501 6.40145 18.1644 6.37895 18.0844L6.05113 17.1771C6.00088 17.0349 5.82231 16.9741 5.67628 17.0502L5.07729 17.3656C4.96908 17.4183 4.91449 17.537 4.94273 17.6495L5.30018 18.9628C5.36048 19.162 5.63671 19.2056 5.76696 19.04Z" fill="#25303D"/>
    <path d="M4.20418 13.072L4.69397 12.9941C4.83234 12.9697 4.93193 12.8682 4.90514 12.7638L4.55441 11.2983C4.55441 11.2983 3.74503 9.75412 3.65599 9.6775C3.57509 9.59945 3.36874 9.61905 3.3376 9.7756L3.97487 12.9614C3.99736 13.0414 4.09837 13.0907 4.20418 13.072Z" fill="#25303D"/>
    <path opacity="0.59" d="M4.21576 12.9442L4.6323 12.8792C4.70555 12.8663 4.75535 12.8155 4.7453 12.7586L4.41753 11.4232C4.40892 11.3744 4.38404 11.3284 4.36729 11.281L3.60769 9.82885C3.5828 9.78289 3.4947 9.80681 3.50331 9.85565C3.64876 10.5853 4.06405 12.5598 4.1339 12.9083C4.1382 12.9328 4.17507 12.9514 4.21576 12.9442Z" fill="url(#paint4_linear_1040_21383)"/>
    <path d="M4.98606 17.0378L5.78758 16.586C5.84025 16.5515 5.87233 16.4955 5.85271 16.4318L5.00382 13.2833C4.98707 13.2359 4.91334 13.1986 4.82381 13.2144L4.2038 13.3153C4.11427 13.3311 4.04819 13.3847 4.05824 13.4417L4.7759 16.9406C4.8027 17.045 4.90227 17.0861 4.98606 17.0378Z" fill="#25303D"/>
    <path opacity="0.59" d="M5.04316 16.7926L5.6 16.4762C5.64597 16.4513 5.66321 16.4063 5.6546 16.3575L4.86073 13.4259C4.84398 13.3785 4.77984 13.3478 4.69845 13.3622L4.38772 13.4086C4.29005 13.4258 4.22541 13.4876 4.23545 13.5445C4.32827 14.0233 4.71437 15.9274 4.87799 16.7126C4.90048 16.7926 4.98235 16.8285 5.04316 16.7926Z" fill="url(#paint5_linear_1040_21383)"/>
    <path opacity="0.59" d="M5.66521 18.8903L6.19337 18.2684C6.22019 18.2302 6.22929 18.1866 6.21398 18.1473L5.9096 17.2778C5.87897 17.1993 5.7904 17.173 5.71332 17.2117L5.15503 17.52C5.10093 17.5463 5.07028 17.6105 5.08846 17.666L5.42296 18.8491C5.44975 18.9535 5.5953 18.9697 5.66521 18.8903Z" fill="url(#paint6_linear_1040_21383)"/>
    <path d="M13.0324 17.5997L12.9191 16.2433C12.9072 16.1279 12.8152 16.035 12.6956 16.0226L12.0248 15.931C11.8616 15.9095 11.7146 16.0277 11.716 16.1785L11.7182 17.1432C11.7163 17.2275 11.7632 17.3031 11.8384 17.3486L12.6201 17.8318C12.7992 17.9429 13.052 17.806 13.0324 17.5997Z" fill="#25303D"/>
    <path d="M12.0488 11.6886C12.1546 11.67 12.2327 11.5891 12.2183 11.5077L11.7276 8.29605C11.6448 8.15959 11.4456 8.21989 11.3948 8.31276C11.3455 8.41377 11.1049 10.143 11.1049 10.143L11.2766 11.6402C11.2871 11.7474 11.4154 11.8087 11.5538 11.7843L12.0488 11.6886Z" fill="#25303D"/>
    <path opacity="0.59" d="M12.0026 11.5709C12.0433 11.5637 12.0715 11.5336 12.0672 11.5091C12.0151 11.1659 11.7367 9.15884 11.6157 8.42488C11.6071 8.37604 11.5161 8.38369 11.5085 8.4354L11.2914 10.0598C11.2837 10.1115 11.2842 10.1618 11.2928 10.2106L11.4415 11.5775C11.4515 11.6345 11.5157 11.6651 11.5889 11.6522L12.0026 11.5709Z" fill="url(#paint7_linear_1040_21383)"/>
    <path d="M12.6703 15.683C12.7656 15.6998 12.8518 15.6174 12.836 15.5279L12.3137 11.9946C12.3036 11.9376 12.2232 11.9098 12.1337 11.9256L11.5165 12.0428C11.4351 12.0572 11.3691 12.1108 11.371 12.1692L11.6501 15.4181C11.652 15.4765 11.7028 15.5263 11.764 15.5407L12.6703 15.683Z" fill="#25303D"/>
    <path opacity="0.59" d="M12.5318 15.4723C12.6013 15.4852 12.6659 15.4234 12.6625 15.3569C12.5478 14.5631 12.2593 12.6418 12.1828 12.1601C12.1727 12.1031 12.0909 12.0672 11.9932 12.0845L11.6854 12.1471C11.6121 12.16 11.5542 12.2122 11.5546 12.2625L11.8113 15.2888C11.8118 15.3391 11.8515 15.374 11.9032 15.3817L12.5318 15.4723Z" fill="url(#paint8_linear_1040_21383)"/>
    <path opacity="0.59" d="M12.8785 17.5345L12.7882 16.3084C12.7863 16.25 12.7356 16.2002 12.6757 16.194L12.0457 16.0953C11.96 16.0852 11.8858 16.1402 11.8838 16.2245L11.8952 17.1457C11.8942 17.1878 11.9191 17.2338 11.956 17.2524L12.665 17.6561C12.766 17.7054 12.8891 17.6418 12.8785 17.5345Z" fill="url(#paint9_linear_1040_21383)"/>
    <path d="M9.63556 15.0851C10.0262 15.0162 10.2877 14.6428 10.2188 14.2522L10.0078 13.0557C9.93896 12.665 9.56555 12.4035 9.17487 12.4724L7.13193 12.8327C6.74125 12.9015 6.4798 13.2749 6.54869 13.6656L6.75966 14.8621C6.82854 15.2528 7.20194 15.5142 7.59262 15.4453L9.63556 15.0851Z" fill="#273043"/>
    <defs>
        <linearGradient id="paint0_linear_1040_21383" x1="4.02944" y1="7.42357" x2="10.6104" y2="9.81882" gradientUnits="userSpaceOnUse">
            <stop stop-color="#72B3DD"/>
            <stop offset="0.9946" stop-color="#2E81BA"/>
        </linearGradient>
        <linearGradient id="paint1_linear_1040_21383" x1="8.26321" y1="8.38507" x2="11.0058" y2="7.90147" gradientUnits="userSpaceOnUse">
            <stop stop-color="#72B3DD"/>
            <stop offset="0.9946" stop-color="#2E81BA"/>
        </linearGradient>
        <linearGradient id="paint2_linear_1040_21383" x1="6.78981" y1="18.2373" x2="12.1525" y2="20.1891" gradientUnits="userSpaceOnUse">
            <stop stop-color="#72B3DD"/>
            <stop offset="0.9946" stop-color="#2E81BA"/>
        </linearGradient>
        <linearGradient id="paint3_linear_1040_21383" x1="10.1632" y1="19.0558" x2="12.506" y2="18.6427" gradientUnits="userSpaceOnUse">
            <stop stop-color="#72B3DD"/>
            <stop offset="0.9946" stop-color="#2E81BA"/>
        </linearGradient>
        <linearGradient id="paint4_linear_1040_21383" x1="4.47984" y1="11.2733" x2="3.77002" y2="11.3985" gradientUnits="userSpaceOnUse">
            <stop stop-color="#72B3DD"/>
            <stop offset="0.9946" stop-color="#2E81BA"/>
        </linearGradient>
        <linearGradient id="paint5_linear_1040_21383" x1="5.41514" y1="14.9815" x2="4.52104" y2="15.1392" gradientUnits="userSpaceOnUse">
            <stop stop-color="#72B3DD"/>
            <stop offset="0.9946" stop-color="#2E81BA"/>
        </linearGradient>
        <linearGradient id="paint6_linear_1040_21383" x1="5.1731" y1="18.1552" x2="6.1842" y2="17.9769" gradientUnits="userSpaceOnUse">
            <stop stop-color="#72B3DD"/>
            <stop offset="0.9946" stop-color="#2E81BA"/>
        </linearGradient>
        <linearGradient id="paint7_linear_1040_21383" x1="11.8873" y1="9.96682" x2="11.1775" y2="10.092" gradientUnits="userSpaceOnUse">
            <stop stop-color="#72B3DD"/>
            <stop offset="0.9946" stop-color="#2E81BA"/>
        </linearGradient>
        <linearGradient id="paint8_linear_1040_21383" x1="12.4597" y1="13.7395" x2="11.5656" y2="13.8972" gradientUnits="userSpaceOnUse">
            <stop stop-color="#72B3DD"/>
            <stop offset="0.9946" stop-color="#2E81BA"/>
        </linearGradient>
        <linearGradient id="paint9_linear_1040_21383" x1="11.8676" y1="16.9748" x2="12.8787" y2="16.7965" gradientUnits="userSpaceOnUse">
            <stop stop-color="#72B3DD"/>
            <stop offset="0.9946" stop-color="#2E81BA"/>
        </linearGradient>
    </defs>
</svg>
