<svg width="70" height="108" viewBox="0 0 70 108" fill="none" xmlns="http://www.w3.org/2000/svg">
    <path d="M64.9411 75.3268L55.983 24.5228C53.6924 11.5324 40.1817 3.04729 26.229 5.50752C12.2763 7.96776 2.47981 20.547 4.77302 33.5525L13.7311 84.3565C16.0217 97.3469 29.5324 105.832 43.4851 103.372C57.4378 100.912 67.2343 88.3323 64.9411 75.3268Z" fill="#003399"/>
    <path d="M6.09607 34.1102C3.85853 21.4204 12.9837 9.25409 26.45 6.84862C39.9268 4.50329 52.6629 12.8149 54.9004 25.5046L63.5908 74.7901L63.4554 74.814L63.3201 74.8378L54.6298 25.5524C52.3913 13.0333 39.8366 4.78275 26.5004 7.13429C13.1641 9.48583 4.19105 21.5478 6.36671 34.0624L15.0571 83.3479C17.2955 95.8669 29.8502 104.118 43.1865 101.766C56.5227 99.4144 65.4958 87.3524 63.3201 74.8378L63.4554 74.814L63.6058 74.7874C65.8433 87.4772 56.7181 99.6435 43.2519 102.049C29.775 104.394 17.039 96.0827 14.8015 83.393L6.11111 34.1075L6.09607 34.1102Z" fill="white"/>
    <path d="M9.10149 35.3317C7.01771 23.514 15.047 12.254 27.0425 10.1234C39.0282 8.02551 50.4244 15.8603 52.5082 27.6779L60.5967 73.5504L60.4614 73.5743L60.3261 73.5981L52.2375 27.7257C50.1679 16.076 38.9229 8.30762 27.0902 10.394C15.2575 12.4805 7.34493 23.6114 9.38716 35.2813L17.4757 81.1538C19.5454 92.8034 30.7877 100.557 42.6204 98.4704C54.4531 96.3839 62.3657 85.2531 60.3261 73.5981L60.4614 73.5743L60.5967 73.5504C62.6778 85.3531 54.6512 96.6281 42.6557 98.7587C30.6674 100.842 19.2561 93.0095 17.175 81.2068L9.08646 35.3344L9.10149 35.3317Z" fill="white"/>
    <path d="M7.65527 34.6875C5.49461 22.4337 14.0467 10.7095 26.7461 8.43926C39.4385 6.21676 51.4997 14.3063 53.663 26.575L62.0618 74.2066L61.9265 74.2305L61.7911 74.2543L53.3924 26.6228C51.2432 14.5221 39.3659 6.5086 26.8115 8.72228C14.2571 10.936 5.85455 22.5408 7.95597 34.6344L16.3547 82.266C18.5189 94.3641 30.3812 102.38 42.9356 100.166C55.49 97.9528 63.9076 86.3453 61.7911 74.2543L61.9265 74.2305L62.0618 74.2066C64.2224 86.4603 55.6704 98.1845 42.9709 100.455C30.2786 102.677 18.2323 94.5851 16.054 82.319L7.65527 34.6875Z" fill="white"/>
    <path d="M54.2513 46.0977L52.5996 36.7307L12.1248 43.8675L13.7764 53.2345L54.2513 46.0977Z" fill="#2C8100"/>
    <path d="M55.9036 55.4641L54.252 46.0972L13.7771 53.234L15.4288 62.6009L55.9036 55.4641Z" fill="#308C00"/>
    <path d="M46.1424 18.5681L11.9824 24.5915C10.7234 27.6504 10.1879 31.0314 10.5368 34.5045L50.8763 27.3916C50.0135 23.9936 48.3539 20.9997 46.1424 18.5681Z" fill="#2C8100"/>
    <path d="M27.3969 12.1381C26.8406 12.2361 26.2896 12.3643 25.7563 12.5049L29.064 11.9216C28.4998 11.9746 27.9532 12.04 27.3969 12.1381Z" fill="#2C8100"/>
    <path d="M29.0641 11.9215L25.7564 12.5047C19.3539 14.1762 14.367 18.7762 11.9819 24.5917L46.1419 18.5684C41.8939 13.907 35.6371 11.3051 29.0641 11.9215Z" fill="#308C00"/>
    <path d="M51.2216 28.9125C51.1314 28.4013 51.0112 27.8954 50.891 27.3895L10.5515 34.5025C10.6116 35.019 10.6717 35.5355 10.7618 36.0466L12.143 43.88L52.6028 36.7459L51.2216 28.9125Z" fill="#308C00"/>
    <path d="M57.5559 64.8313L55.9043 55.4644L15.4295 62.6012L17.0811 71.9681L57.5559 64.8313Z" fill="#2C8100"/>
    <path d="M45.4902 95.9333L39.0552 97.068C40.1368 97.0478 41.2202 96.9498 42.3178 96.7563C43.4153 96.5627 44.4669 96.2843 45.4902 95.9333Z" fill="#2C8100"/>
    <path d="M57.8223 84.1008L23.4217 90.1666C27.3231 94.5325 32.9802 97.1627 39.0561 97.068L45.4912 95.9333C51.2153 93.9318 55.6494 89.5378 57.8223 84.1008Z" fill="#308C00"/>
    <path d="M58.9677 72.8453L57.5547 64.8315L17.0799 71.9683L18.4929 79.9821C18.5724 80.4332 18.667 80.8816 18.7766 81.3273L59.1462 74.2091C59.0967 73.7527 59.0473 73.2964 58.9677 72.8453Z" fill="#308C00"/>
    <path d="M59.1465 74.2087L18.7769 81.327C19.6069 84.7152 21.2364 87.7145 23.4206 90.1664L57.8212 84.1006C59.035 81.0496 59.5228 77.6615 59.1465 74.2087Z" fill="#2C8100"/>
    <path opacity="0.7" d="M46.3086 23.5466L13.5168 29.3287L23.3948 85.3499L56.1866 79.5679L46.3086 23.5466ZM28.2676 55.4852C27.7118 51.8936 30.1073 48.5102 33.698 47.8615C37.2915 47.2279 40.7023 49.603 41.4084 53.1681L28.2676 55.4852ZM41.4482 53.3937C42.019 56.9827 39.6085 60.3687 36.0178 61.0174C32.4217 61.6359 29.0135 59.2759 28.3074 55.7107L41.4482 53.3937ZM24.0387 27.7214L25.131 33.916C25.1734 34.1565 25.4157 34.2998 25.6713 34.2548L35.6096 32.5024C35.8502 32.46 36.0289 32.2424 36.0015 31.9992L34.9092 25.8047L37.9012 25.2771L39.6722 35.3206C39.7066 35.5161 39.5554 35.7133 39.3148 35.7557L23.3023 38.5792C23.0617 38.6216 22.8495 38.473 22.8177 38.2925L21.0467 28.249L24.0387 27.7214ZM34.6536 25.8498L35.7459 32.0443C35.7618 32.1345 35.6875 32.2406 35.5672 32.2618L25.6289 34.0142C25.5086 34.0354 25.4025 33.9611 25.3866 33.8709L24.2943 27.6764L34.6536 25.8498ZM15.5288 29.222C15.6781 30.1568 15.0589 31.0411 14.1117 31.2082L14.1488 31.4186C15.2013 31.2331 15.9072 30.2249 15.7367 29.1698L20.7885 28.2791L22.5594 38.3226C22.6204 38.6684 22.9688 38.886 23.3297 38.8224L39.3422 35.9989C39.703 35.9353 39.956 35.6117 39.895 35.2658L38.1267 25.2374L44.1709 24.1716C44.3715 25.2214 45.3796 25.9273 46.4321 25.7417L46.395 25.5312C45.4628 25.6956 44.5635 25.0791 44.3841 24.1495L46.0981 23.8473L50.9735 51.4971L41.6216 53.1461C40.9092 49.458 37.3596 46.9989 33.6459 47.6537C29.9322 48.3085 27.4377 51.8334 28.0297 55.5427L18.6778 57.1917L13.7998 29.5269L15.5288 29.222ZM23.5903 85.0519L18.7149 57.4022L28.0668 55.7532C28.7791 59.4412 32.3288 61.9004 36.0425 61.2455C39.7562 60.5907 42.2507 57.0658 41.6587 53.3566L51.0106 51.7076L55.886 79.3573L54.172 79.6596C54.0226 78.7247 54.6418 77.8404 55.5891 77.6734L55.5519 77.4629C54.4995 77.6485 53.7909 78.6416 53.9615 79.6967L47.9173 80.7624L46.1464 70.7189C46.0854 70.3731 45.737 70.1555 45.3761 70.2191L29.3636 73.0425C29.0028 73.1062 28.7498 73.4298 28.8108 73.7756L30.5817 83.8192L25.5299 84.7099C25.3293 83.6601 24.3211 82.9542 23.2687 83.1398L23.3058 83.3503C24.238 83.1859 25.1373 83.8025 25.3167 84.732L23.5877 85.0369L23.5903 85.0519ZM44.6847 81.3324L43.5925 75.1379C43.5501 74.8973 43.3078 74.754 43.0522 74.7991L33.1139 76.5515C32.8733 76.5939 32.6946 76.8114 32.722 77.0547L33.8143 83.2492L30.8223 83.7767L29.0513 73.7332C29.0169 73.5378 29.1681 73.3406 29.4087 73.2981L45.4212 70.4747C45.6618 70.4323 45.874 70.5809 45.9058 70.7613L47.6767 80.8048L44.6847 81.3324ZM34.0699 83.2041L32.9776 77.0096C32.9617 76.9194 33.036 76.8133 33.1563 76.7921L43.0946 75.0397C43.2149 75.0185 43.321 75.0928 43.3369 75.183L44.4291 81.3775L34.0699 83.2041Z" fill="white"/>
</svg>
