<svg width="172" height="146" viewBox="0 0 172 146" fill="none" xmlns="http://www.w3.org/2000/svg">
    <path d="M58.3924 118.34L63.4126 115.827L46.0137 36.7859L44.4379 38.0165L58.3924 118.34Z" fill="#003399"/>
    <path d="M58.3912 118.34L53.4373 117.716L42.7522 37.4849L44.4366 38.0165L58.3912 118.34Z" fill="#002366"/>
    <path d="M42.7544 37.4851L44.3322 36.2659L46.0147 36.786L44.4388 38.0167L42.7544 37.4851Z" fill="#F7F7F7"/>
    <path d="M52.7084 26.0241C49.8692 22.6779 44.1939 23.9153 43.4865 24.2294L52.8398 34.2746C53.341 33.4938 55.5393 29.3599 52.7084 26.0241Z" fill="#003399"/>
    <path d="M53.3939 32.2C53.0834 29.3666 50.1561 25.9649 46.8388 24.6027C45.0946 23.8805 43.8275 23.8672 42.8731 24.2959C40.6763 25.3698 40.3481 26.0964 40.3481 26.0964C40.7126 25.6517 41.2347 25.3351 41.8205 25.2035C43.0033 25.0015 44.2132 25.163 45.2589 25.6625C48.5636 27.0269 51.4982 30.4332 51.815 33.2655C51.9039 34.102 51.8008 35.5879 50.3787 36.2115C50.9771 36.0232 51.5328 35.7299 52.0137 35.3485C52.4947 34.9672 52.8915 34.5052 53.1813 33.9892C53.4203 33.4146 53.4936 32.798 53.3939 32.2Z" fill="white"/>
    <path d="M45.287 25.6754C44.2285 25.1717 43.0052 25.0086 41.8086 25.2116C41.318 25.3174 40.869 25.5555 40.5209 25.8944C40.4594 25.9526 36.7776 28.0695 30.9387 33.5555C28.3493 35.9888 40.4314 44.4283 41.2829 43.8224C41.5601 43.6197 48.6245 39.2788 51.5026 35.4512C51.9049 34.8149 52.0497 34.0758 51.9109 33.367C51.6007 30.4981 48.6337 27.0561 45.287 25.6754Z" fill="#003399"/>
    <path d="M47.8778 27.2071C47.0977 26.5897 46.2262 26.0744 45.2868 25.6754C44.2283 25.1717 43.0049 25.0086 41.8084 25.2116C41.3177 25.3174 40.8688 25.5555 40.5206 25.8944C40.4592 25.9526 36.7774 28.0695 30.9384 33.5555C29.9488 34.4875 31.1096 36.301 32.9669 38.1454C38.2878 34.9249 43.2803 31.2625 47.8778 27.2071Z" fill="#003399"/>
    <path d="M36.9509 41.4789C39.0651 43.0058 40.9639 44.05 41.2759 43.8233C41.588 43.5967 48.6238 39.2786 51.4957 35.4521C51.8979 34.8158 52.0427 34.0767 51.904 33.3679C51.7858 32.4918 51.4977 31.647 51.0532 30.8725C46.0466 35.9394 37.6444 41.0489 36.9509 41.4789Z" fill="#002366"/>
    <path d="M42.5034 40.5839C42.0055 37.7599 38.8246 34.5095 35.4144 33.3235C33.6159 32.6996 32.3357 32.7596 31.3966 33.2388C29.2611 34.438 28.9812 35.1798 28.9812 35.1798C29.3207 34.7125 29.8289 34.3666 30.4131 34.2053C31.5872 33.9365 32.813 34.0307 33.896 34.473C37.3105 35.6464 40.4871 38.9095 40.985 41.7334C41.1328 42.5714 41.1243 44.0761 39.708 44.7697C40.2969 44.5485 40.836 44.2247 41.2944 43.8169C41.7528 43.409 42.1214 42.9252 42.3791 42.3931C42.5929 41.8051 42.6357 41.1812 42.5034 40.5839Z" fill="white"/>
    <path d="M33.8853 34.4744C32.7958 34.0226 31.5587 33.9258 30.3751 34.1997C28.9987 34.6022 28.2633 35.7557 28.567 37.4776C29.073 40.3475 32.2549 43.6037 35.725 44.7969C38.1482 45.6361 40.0436 45.219 40.7832 43.905C41.1214 43.2423 41.22 42.5047 41.0643 41.8018C40.5277 38.9432 37.3291 35.6663 33.8853 34.4744Z" fill="white"/>
    <path d="M36.8843 43.0232C33.9529 42.0013 31.2329 39.22 30.8058 36.7978C30.6686 36.2023 30.7479 35.5757 31.032 35.012C29.8666 35.3537 29.2377 36.3345 29.4937 37.7867C29.9198 40.2031 32.6409 42.9902 35.5649 44.0074C37.647 44.7233 39.2398 44.3655 39.8644 43.2493C38.86 43.4764 37.8125 43.3969 36.8843 43.0232Z" fill="white"/>
    <path d="M34.0191 35.2432C33.0909 34.8615 32.0387 34.7802 31.0316 35.0124C30.7475 35.5761 30.6682 36.2026 30.8054 36.7982C31.2325 39.2203 33.9525 42.0017 36.8839 43.0235C37.8019 43.3949 38.8375 43.4783 39.8334 43.261C40.1233 42.6881 40.2032 42.0505 40.0609 41.4454C39.6705 39.0463 36.9494 36.2593 34.0191 35.2432Z" fill="#33495E"/>
    <path d="M34.3694 36.5664C33.7393 36.3132 33.0291 36.2577 32.3466 36.4081C31.6089 36.8505 30.9347 37.3772 30.3411 37.975C30.0493 38.4644 30.4114 42.3302 31.1586 43.0921C31.9058 43.8541 35.5877 43.9564 36.6153 43.3136C36.6967 43.2578 38.2986 42.064 38.3401 42.0034C38.5348 41.6216 38.5902 41.1963 38.4981 40.7919C38.1939 39.1411 36.3559 37.2577 34.3694 36.5664Z" fill="#002366"/>
    <path d="M32.8998 36.8437C33.587 36.6917 34.3028 36.7623 34.9234 37.0432C35.126 37.1199 35.6043 37.2072 35.8289 37.2978C35.5148 34.2225 34.3634 29.5785 33.0648 24.1733C30.6108 13.9532 27.5056 5.03159 26.1315 4.22637C24.7573 3.42114 25.6238 10.9976 28.0728 21.1889C29.3118 26.5222 30.8785 31.7782 32.7655 36.9325L32.8998 36.8437Z" fill="#002366"/>
    <path d="M30.9885 37.8322C31.6723 37.6826 32.3841 37.768 32.9866 38.0717C33.185 38.1562 33.3779 38.2506 33.5645 38.3545C33.2743 33.8143 32.7091 29.3006 31.8715 24.8339C30.0214 14.3417 27.4539 5.14178 26.1359 4.28523C24.8179 3.42868 25.2502 11.2414 27.1003 21.7337C28.0195 27.1771 29.269 32.56 30.8431 37.8578C30.8911 37.8468 30.9396 37.8382 30.9885 37.8322Z" fill="#003399"/>
    <path d="M26.3319 5.72392C27.1033 6.17972 28.2098 8.97925 29.3755 13.0762C28.128 8.18287 26.9072 4.73475 26.1277 4.23304C25.4645 3.79958 25.2489 5.57164 25.4274 8.76559C25.4336 6.54517 25.7302 5.38023 26.3319 5.72392Z" fill="#003399"/>
    <path d="M36.4372 42.6649C36.7878 42.9523 37.5955 42.2831 37.8421 41.4999C37.9055 41.3052 38.1455 40.8545 38.188 40.6517C40.3761 42.1538 45.3206 46.4959 48.7287 49.7773C55.1046 55.9147 60.1848 62.0616 59.9988 63.5207C59.8128 64.9798 54.4707 61.1931 48.0758 55.0591C44.1543 51.306 38.6881 46.0024 36.6747 43.3095C36.7033 43.2867 35.9652 42.2806 36.4372 42.6649Z" fill="#002366"/>
    <path d="M34.2733 43.5551C34.7053 43.1949 35.7043 43.4626 35.9235 42.6723C35.9807 42.4788 36.0178 42.2829 36.055 42.0869C40.0672 44.6788 43.9036 47.4862 47.5448 50.4948C54.5179 56.2843 60.1077 62.1046 59.9935 63.5273C59.8793 64.9501 54.0943 61.4249 47.0937 55.664C42.8139 52.1339 36.3808 46.19 34.1454 43.6428C34.1897 43.6157 34.2324 43.5864 34.2733 43.5551Z" fill="#003399"/>
    <path d="M58.9623 62.75C59.0806 61.942 57.5721 59.894 55.0982 57.2883C58.1334 60.304 60.0648 62.6799 59.9925 63.5271C59.9296 64.2425 58.4389 63.7005 56.0725 62.2594C57.7944 63.1513 58.8663 63.3884 58.9623 62.75Z" fill="#003399"/>
    <path d="M33.2206 37.9944C33.423 38.5505 32.883 39.4447 33.5328 39.987C33.6939 40.1243 36.0368 41.321 36.2075 41.4388C25.2945 49.4648 10.3289 54.8793 9.0478 54.1582C7.76673 53.4372 13.2038 48.9631 20.6504 44.4601C25.2092 41.6974 30.1141 38.9742 33.1713 37.8256C33.194 37.8807 33.2041 37.9381 33.2206 37.9944Z" fill="#002366"/>
    <path d="M32.0885 39.4127C32.3098 39.9655 31.8093 40.7876 32.4654 41.3288C32.6266 41.4661 34.9568 42.665 35.1358 42.7932C24.7559 50.1451 10.3257 54.8616 9.04966 54.1693C7.77365 53.4769 12.9252 49.3431 20.0428 45.2296C24.3988 42.7216 29.1145 40.2566 32.0285 39.2575C32.0609 39.2933 32.07 39.3449 32.0885 39.4127Z" fill="#003399"/>
    <path d="M10.0241 53.5184C10.7576 53.9809 14.0745 53.3072 17.1152 52.1023C13.5636 53.6636 9.80613 54.5747 9.04811 54.158C8.4034 53.7923 9.28625 52.6246 11.2214 51.0287C9.95721 52.2518 9.4656 53.1612 10.0241 53.5184Z" fill="#003399"/>
    <path d="M32.9392 37.802C32.3226 37.5497 31.625 37.4937 30.9554 37.6429C30.6874 37.7124 30.4451 37.8517 30.2586 38.0435C30.0722 38.2352 29.9499 38.471 29.9068 38.7214C29.8621 38.9482 29.7554 42.8908 30.4828 43.6148C31.2103 44.3388 36.394 43.8627 36.7981 43.1227C36.9914 42.7407 37.0446 42.3157 36.9498 41.9123C36.7084 40.3214 34.8837 38.4771 32.9392 37.802Z" fill="#003399"/>
    <path d="M31.1362 43.4401C30.9794 43.5406 30.814 43.6292 30.6418 43.7048C31.7111 44.2975 36.4191 43.8224 36.8167 43.1191C37.0099 42.7371 37.0632 42.3121 36.9683 41.9087C36.7834 41.1191 36.3907 40.3884 35.8235 39.7788C34.4258 41.1659 32.8515 42.3956 31.1362 43.4401Z" fill="#003399"/>
    <path d="M112.342 139.34L117.362 136.828L99.9629 57.7863L98.3871 59.017L112.342 139.34Z" fill="#003399"/>
    <path d="M112.34 139.34L107.386 138.717L96.7014 58.4854L98.3858 59.0169L112.34 139.34Z" fill="#002366"/>
    <path d="M96.7036 58.4856L98.2815 57.2664L99.9639 57.7865L98.3881 59.0172L96.7036 58.4856Z" fill="#F7F7F7"/>
    <path d="M106.658 47.0246C103.818 43.6783 98.1431 44.9158 97.4357 45.2299L106.789 55.2751C107.29 54.4943 109.489 50.3604 106.658 47.0246Z" fill="#003399"/>
    <path d="M107.343 53.2004C107.033 50.3671 104.105 46.9654 100.788 45.6032C99.0439 44.881 97.7768 44.8677 96.8223 45.2964C94.6255 46.3703 94.2973 47.0969 94.2973 47.0969C94.6619 46.6522 95.1839 46.3356 95.7697 46.204C96.9526 46.002 98.1624 46.1635 99.2081 46.663C102.513 48.0274 105.447 51.4337 105.764 54.266C105.853 55.1025 105.75 56.5884 104.328 57.212C104.926 57.0237 105.482 56.7304 105.963 56.349C106.444 55.9676 106.841 55.5057 107.131 54.9897C107.37 54.4151 107.443 53.7985 107.343 53.2004Z" fill="white"/>
    <path d="M99.2363 46.6759C98.1777 46.1722 96.9544 46.0091 95.7579 46.2121C95.2672 46.3179 94.8182 46.556 94.4701 46.8949C94.4086 46.9531 90.7268 49.07 84.8879 54.556C82.2985 56.9893 94.3806 65.4288 95.2321 64.8229C95.5093 64.6202 102.574 60.2793 105.452 56.4517C105.854 55.8154 105.999 55.0763 105.86 54.3675C105.55 51.4986 102.583 48.0566 99.2363 46.6759Z" fill="#003399"/>
    <path d="M101.827 48.2076C101.047 47.5902 100.175 47.0749 99.236 46.6759C98.1775 46.1722 96.9541 46.009 95.7576 46.2121C95.2669 46.3179 94.818 46.556 94.4698 46.8949C94.4084 46.9531 90.7266 49.07 84.8877 54.556C83.8981 55.488 85.0588 57.3014 86.9161 59.1459C92.2371 55.9254 97.2295 52.263 101.827 48.2076Z" fill="#003399"/>
    <path d="M90.9001 62.4794C93.0144 64.0063 94.9131 65.0505 95.2252 64.8238C95.5372 64.5972 102.573 60.2791 105.445 56.4526C105.847 55.8163 105.992 55.0772 105.853 54.3684C105.735 53.4923 105.447 52.6475 105.002 51.873C99.9958 56.9399 91.5936 62.0493 90.9001 62.4794Z" fill="#002366"/>
    <path d="M96.4526 61.5843C95.9547 58.7604 92.7738 55.5099 89.3637 54.3239C87.5651 53.7001 86.2849 53.7601 85.3458 54.2393C83.2103 55.4385 82.9304 56.1803 82.9304 56.1803C83.2699 55.713 83.7781 55.3671 84.3623 55.2058C85.5364 54.937 86.7622 55.0312 87.8452 55.4735C91.2597 56.6469 94.4363 59.9099 94.9342 62.7339C95.082 63.5719 95.0735 65.0766 93.6572 65.7702C94.2461 65.549 94.7852 65.2252 95.2436 64.8174C95.702 64.4095 96.0706 63.9257 96.3283 63.3936C96.5421 62.8056 96.585 62.1817 96.4526 61.5843Z" fill="white"/>
    <path d="M87.8345 55.4749C86.745 55.0231 85.5079 54.9263 84.3243 55.2002C82.9479 55.6026 82.2125 56.7562 82.5162 58.4781C83.0222 61.348 86.2041 64.6042 89.6742 65.7973C92.0975 66.6366 93.9928 66.2195 94.7325 64.9054C95.0707 64.2428 95.1692 63.5052 95.0136 62.8023C94.4769 59.9437 91.2783 56.6668 87.8345 55.4749Z" fill="white"/>
    <path d="M90.8335 64.0237C87.9022 63.0018 85.1821 60.2205 84.755 57.7983C84.6178 57.2028 84.6972 56.5762 84.9813 56.0125C83.8158 56.3541 83.1869 57.335 83.443 58.7872C83.869 61.2036 86.5901 63.9907 89.5141 65.0079C91.5962 65.7238 93.189 65.366 93.8137 64.2498C92.8092 64.4769 91.7617 64.3974 90.8335 64.0237Z" fill="white"/>
    <path d="M87.9683 56.2436C87.0401 55.862 85.9879 55.7807 84.9808 56.0129C84.6967 56.5765 84.6174 57.2031 84.7546 57.7987C85.1817 60.2208 87.9018 63.0021 90.8331 64.024C91.7511 64.3954 92.7867 64.4788 93.7826 64.2614C94.0725 63.6885 94.1524 63.051 94.0101 62.4459C93.6197 60.0468 90.8987 57.2598 87.9683 56.2436Z" fill="#33495E"/>
    <path d="M88.3186 57.5668C87.6885 57.3137 86.9783 57.2582 86.2958 57.4086C85.5581 57.8509 84.8839 58.3777 84.2903 58.9755C83.9985 59.4649 84.3607 63.3307 85.1078 64.0926C85.855 64.8545 89.537 64.9569 90.5645 64.3141C90.6459 64.2583 92.2478 63.0645 92.2893 63.0039C92.484 62.622 92.5394 62.1968 92.4473 61.7924C92.1432 60.1416 90.3051 58.2582 88.3186 57.5668Z" fill="#002366"/>
    <path d="M86.849 57.8442C87.5362 57.6922 88.2521 57.7628 88.8726 58.0437C89.0752 58.1204 89.5535 58.2077 89.7781 58.2983C89.464 55.223 88.3126 50.579 87.014 45.1738C84.56 34.9537 81.4548 26.0321 80.0807 25.2269C78.7065 24.4216 79.5731 31.998 82.022 42.1894C83.261 47.5227 84.8277 52.7787 86.7147 57.933L86.849 57.8442Z" fill="#002366"/>
    <path d="M84.9377 58.8327C85.6215 58.6831 86.3333 58.7684 86.9358 59.0722C87.1342 59.1567 87.3271 59.2511 87.5137 59.355C87.2235 54.8148 86.6583 50.3011 85.8207 45.8344C83.9707 35.3422 81.4032 26.1423 80.0852 25.2857C78.7671 24.4292 79.1994 32.2419 81.0495 42.7342C81.9687 48.1776 83.2182 53.5605 84.7923 58.8583C84.8403 58.8472 84.8888 58.8387 84.9377 58.8327Z" fill="#003399"/>
    <path d="M80.2811 26.7244C81.0525 27.1802 82.159 29.9797 83.3247 34.0767C82.0773 29.1834 80.8564 25.7352 80.0769 25.2335C79.4137 24.8001 79.1981 26.5721 79.3767 29.7661C79.3828 27.5457 79.6794 26.3807 80.2811 26.7244Z" fill="#003399"/>
    <path d="M90.3864 63.6654C90.737 63.9528 91.5447 63.2836 91.7913 62.5003C91.8547 62.3057 92.0947 61.855 92.1372 61.6522C94.3253 63.1543 99.2699 67.4964 102.678 70.7778C109.054 76.9152 114.134 83.0621 113.948 84.5212C113.762 85.9803 108.42 82.1936 102.025 76.0596C98.1035 72.3065 92.6374 67.0029 90.624 64.31C90.6525 64.2872 89.9144 63.2811 90.3864 63.6654Z" fill="#002366"/>
    <path d="M88.2225 64.5556C88.6545 64.1954 89.6535 64.4631 89.8728 63.6728C89.9299 63.4793 89.9671 63.2834 90.0042 63.0874C94.0164 65.6793 97.8528 68.4866 101.494 71.4953C108.467 77.2847 114.057 83.1051 113.943 84.5278C113.829 85.9506 108.044 82.4254 101.043 76.6645C96.7631 73.1343 90.33 67.1905 88.0946 64.6433C88.1389 64.6162 88.1816 64.5869 88.2225 64.5556Z" fill="#003399"/>
    <path d="M112.912 83.7505C113.03 82.9425 111.521 80.8945 109.047 78.2888C112.083 81.3045 114.014 83.6804 113.942 84.5276C113.879 85.243 112.388 84.701 110.022 83.2599C111.744 84.1517 112.815 84.3889 112.912 83.7505Z" fill="#003399"/>
    <path d="M87.1698 58.9949C87.3722 59.551 86.8323 60.4452 87.482 60.9875C87.6432 61.1248 89.986 62.3215 90.1567 62.4393C79.2437 70.4653 64.2781 75.8798 62.997 75.1587C61.716 74.4377 67.1531 69.9636 74.5996 65.4606C79.1585 62.6979 84.0633 59.9747 87.1205 58.826C87.1432 58.8812 87.1534 58.9386 87.1698 58.9949Z" fill="#002366"/>
    <path d="M86.0377 60.4132C86.259 60.966 85.7586 61.7881 86.4147 62.3293C86.5758 62.4666 88.906 63.6655 89.085 63.7937C78.7052 71.1456 64.2749 75.8621 62.9989 75.1697C61.7229 74.4774 66.8745 70.3436 73.992 66.2301C78.348 63.7221 83.0637 61.2571 85.9777 60.258C86.0101 60.2937 86.0192 60.3454 86.0377 60.4132Z" fill="#003399"/>
    <path d="M63.9733 74.5189C64.7068 74.9814 68.0237 74.3077 71.0644 73.1028C67.5129 74.6641 63.7553 75.5752 62.9973 75.1585C62.3526 74.7928 63.2355 73.6251 65.1707 72.0292C63.9064 73.2523 63.4148 74.1616 63.9733 74.5189Z" fill="#003399"/>
    <path d="M86.8885 58.8025C86.2718 58.5502 85.5743 58.4942 84.9046 58.6434C84.6366 58.7129 84.3943 58.8522 84.2078 59.0439C84.0214 59.2357 83.8991 59.4715 83.8561 59.7219C83.8113 59.9487 83.7046 63.8913 84.4321 64.6153C85.1595 65.3392 90.3432 64.8632 90.7473 64.1232C90.9406 63.7412 90.9938 63.3162 90.899 62.9128C90.6576 61.3219 88.8329 59.4776 86.8885 58.8025Z" fill="#003399"/>
    <path d="M85.0854 64.4406C84.9286 64.5411 84.7632 64.6297 84.591 64.7053C85.6604 65.2979 90.3683 64.8229 90.7659 64.1195C90.9591 63.7376 91.0124 63.3126 90.9175 62.9092C90.7326 62.1196 90.3399 61.3889 89.7727 60.7792C88.375 62.1664 86.8007 63.3961 85.0854 64.4406Z" fill="#003399"/>
    <path d="M160.531 123.423L165.551 120.91L148.152 41.8684L146.577 43.0991L160.531 123.423Z" fill="#003399"/>
    <path d="M160.53 123.422L155.576 122.798L144.891 42.5672L146.575 43.0987L160.53 123.422Z" fill="#002366"/>
    <path d="M144.893 42.5677L146.471 41.3484L148.153 41.8685L146.578 43.0992L144.893 42.5677Z" fill="#F7F7F7"/>
    <path d="M154.847 31.1066C152.008 27.7604 146.333 28.9978 145.625 29.3119L154.978 39.3571C155.48 38.5763 157.678 34.4424 154.847 31.1066Z" fill="#003399"/>
    <path d="M155.533 37.2825C155.222 34.4491 152.295 31.0474 148.977 29.6853C147.233 28.963 145.966 28.9497 145.012 29.3784C142.815 30.4523 142.487 31.1789 142.487 31.1789C142.851 30.7342 143.373 30.4177 143.959 30.2861C145.142 30.0841 146.352 30.2455 147.398 30.7451C150.702 32.1094 153.637 35.5158 153.954 38.348C154.043 39.1845 153.939 40.6705 152.517 41.2941C153.116 41.1057 153.671 40.8124 154.152 40.4311C154.633 40.0497 155.03 39.5877 155.32 39.0717C155.559 38.4971 155.632 37.8805 155.533 37.2825Z" fill="white"/>
    <path d="M147.426 30.758C146.367 30.2542 145.144 30.0911 143.947 30.2942C143.457 30.4 143.008 30.638 142.66 30.977C142.598 31.0351 138.916 33.152 133.077 38.638C130.488 41.0713 142.57 49.5108 143.422 48.905C143.699 48.7022 150.763 44.3613 153.641 40.5337C154.044 39.8974 154.188 39.1583 154.05 38.4495C153.739 35.5807 150.772 32.1386 147.426 30.758Z" fill="#003399"/>
    <path d="M150.016 32.2896C149.236 31.6722 148.365 31.157 147.425 30.7579C146.367 30.2542 145.144 30.0911 143.947 30.2942C143.456 30.3999 143.007 30.638 142.659 30.9769C142.598 31.0351 138.916 33.152 133.077 38.638C132.088 39.57 133.248 41.3835 135.106 43.228C140.427 40.0074 145.419 36.345 150.016 32.2896Z" fill="#003399"/>
    <path d="M139.09 46.5614C141.204 48.0884 143.103 49.1325 143.415 48.9058C143.727 48.6792 150.762 44.3611 153.634 40.5346C154.037 39.8983 154.181 39.1592 154.043 38.4504C153.924 37.5744 153.636 36.7295 153.192 35.955C148.185 41.022 139.783 46.1314 139.09 46.5614Z" fill="#002366"/>
    <path d="M144.642 45.6664C144.144 42.8424 140.963 39.592 137.553 38.406C135.755 37.7821 134.474 37.8421 133.535 38.3214C131.4 39.5206 131.12 40.2624 131.12 40.2624C131.459 39.795 131.968 39.4492 132.552 39.2878C133.726 39.019 134.952 39.1132 136.035 39.5555C139.449 40.7289 142.626 43.992 143.124 46.8159C143.271 47.6539 143.263 49.1587 141.847 49.8523C142.436 49.6311 142.975 49.3072 143.433 48.8994C143.891 48.4915 144.26 48.0077 144.518 47.4756C144.732 46.8876 144.774 46.2638 144.642 45.6664Z" fill="white"/>
    <path d="M136.024 39.5569C134.934 39.1052 133.697 39.0083 132.514 39.2822C131.137 39.6847 130.402 40.8382 130.706 42.5601C131.212 45.43 134.394 48.6862 137.864 49.8794C140.287 50.7186 142.182 50.3015 142.922 48.9875C143.26 48.3248 143.359 47.5872 143.203 46.8843C142.666 44.0257 139.468 40.7488 136.024 39.5569Z" fill="white"/>
    <path d="M139.023 48.1057C136.092 47.0838 133.372 44.3025 132.944 41.8803C132.807 41.2848 132.887 40.6582 133.171 40.0946C132.005 40.4362 131.376 41.4171 131.632 42.8692C132.059 45.2857 134.78 48.0727 137.704 49.0899C139.786 49.8058 141.378 49.448 142.003 48.3318C140.999 48.5589 139.951 48.4794 139.023 48.1057Z" fill="white"/>
    <path d="M136.158 40.3257C135.23 39.944 134.177 39.8627 133.17 40.0949C132.886 40.6586 132.807 41.2851 132.944 41.8807C133.371 44.3029 136.091 47.0842 139.023 48.106C139.941 48.4774 140.976 48.5608 141.972 48.3435C142.262 47.7706 142.342 47.133 142.2 46.5279C141.809 44.1288 139.088 41.3418 136.158 40.3257Z" fill="#33495E"/>
    <path d="M136.508 41.6489C135.878 41.3958 135.168 41.3402 134.485 41.4907C133.748 41.933 133.073 42.4597 132.48 43.0575C132.188 43.5469 132.55 47.4128 133.297 48.1747C134.044 48.9366 137.726 49.039 138.754 48.3962C138.835 48.3404 140.437 47.1465 140.479 47.0859C140.673 46.7041 140.729 46.2789 140.637 45.8744C140.333 44.2236 138.495 42.3402 136.508 41.6489Z" fill="#002366"/>
    <path d="M135.038 41.9262C135.726 41.7743 136.442 41.8448 137.062 42.1257C137.265 42.2024 137.743 42.2897 137.968 42.3803C137.653 39.305 136.502 34.661 135.203 29.2558C132.749 19.0357 129.644 10.1141 128.27 9.30889C126.896 8.50366 127.763 16.0801 130.211 26.2715C131.45 31.6047 133.017 36.8608 134.904 42.015L135.038 41.9262Z" fill="#002366"/>
    <path d="M133.127 42.9147C133.811 42.7651 134.523 42.8505 135.125 43.1542C135.324 43.2387 135.517 43.3331 135.703 43.437C135.413 38.8969 134.848 34.3832 134.01 29.9165C132.16 19.4242 129.593 10.2243 128.275 9.36775C126.957 8.5112 127.389 16.324 129.239 26.8162C130.158 32.2596 131.408 37.6425 132.982 42.9403C133.03 42.9293 133.078 42.9207 133.127 42.9147Z" fill="#003399"/>
    <path d="M128.471 10.8064C129.242 11.2622 130.348 14.0618 131.514 18.1588C130.267 13.2654 129.046 9.81727 128.266 9.31556C127.603 8.8821 127.388 10.6542 127.566 13.8481C127.572 11.6277 127.869 10.4628 128.471 10.8064Z" fill="#003399"/>
    <path d="M138.576 47.7474C138.926 48.0348 139.734 47.3656 139.981 46.5824C140.044 46.3877 140.284 45.9371 140.327 45.7343C142.515 47.2364 147.459 51.5784 150.867 54.8599C157.243 60.9973 162.324 67.1442 162.137 68.6032C161.951 70.0623 156.609 66.2757 150.214 60.1416C146.293 56.3885 140.827 51.0849 138.813 48.3921C138.842 48.3693 138.104 47.3631 138.576 47.7474Z" fill="#002366"/>
    <path d="M136.412 48.6377C136.844 48.2774 137.843 48.5451 138.062 47.7549C138.119 47.5613 138.157 47.3654 138.194 47.1695C142.206 49.7614 146.042 52.5687 149.683 55.5773C156.657 61.3668 162.246 67.1871 162.132 68.6098C162.018 70.0326 156.233 66.5074 149.232 60.7465C144.953 57.2164 138.519 51.2725 136.284 48.7253C136.328 48.6982 136.371 48.6689 136.412 48.6377Z" fill="#003399"/>
    <path d="M161.101 67.8325C161.219 67.0246 159.711 64.9765 157.237 62.3708C160.272 65.3865 162.203 67.7624 162.131 68.6096C162.068 69.325 160.578 68.783 158.211 67.3419C159.933 68.2338 161.005 68.4709 161.101 67.8325Z" fill="#003399"/>
    <path d="M135.359 43.0769C135.562 43.6331 135.022 44.5272 135.671 45.0696C135.833 45.2069 138.175 46.4035 138.346 46.5214C127.433 54.5473 112.468 59.9618 111.186 59.2408C109.905 58.5197 115.343 54.0456 122.789 49.5427C127.348 46.7799 132.253 44.0567 135.31 42.9081C135.333 42.9632 135.343 43.0206 135.359 43.0769Z" fill="#002366"/>
    <path d="M134.227 44.4952C134.448 45.048 133.948 45.8701 134.604 46.4113C134.765 46.5486 137.095 47.7475 137.275 47.8757C126.895 55.2277 112.464 59.9441 111.188 59.2518C109.912 58.5594 115.064 54.4256 122.181 50.3121C126.537 47.8041 131.253 45.3392 134.167 44.3401C134.2 44.3758 134.209 44.4274 134.227 44.4952Z" fill="#003399"/>
    <path d="M112.163 58.6009C112.896 59.0634 116.213 58.3898 119.254 57.1848C115.702 58.7462 111.945 59.6573 111.187 59.2405C110.542 58.8748 111.425 57.7072 113.36 56.1113C112.096 57.3344 111.604 58.2437 112.163 58.6009Z" fill="#003399"/>
    <path d="M135.078 42.8845C134.461 42.6322 133.764 42.5763 133.094 42.7254C132.826 42.7949 132.584 42.9342 132.397 43.126C132.211 43.3177 132.089 43.5535 132.046 43.8039C132.001 44.0308 131.894 47.9734 132.622 48.6973C133.349 49.4213 138.533 48.9452 138.937 48.2052C139.13 47.8233 139.183 47.3982 139.088 46.9948C138.847 45.4039 137.022 43.5596 135.078 42.8845Z" fill="#003399"/>
    <path d="M133.275 48.5226C133.118 48.6231 132.953 48.7117 132.78 48.7873C133.85 49.38 138.558 48.9049 138.955 48.2016C139.149 47.8196 139.202 47.3946 139.107 46.9912C138.922 46.2016 138.529 45.4709 137.962 44.8613C136.564 46.2484 134.99 47.4782 133.275 48.5226Z" fill="#003399"/>
</svg>
