<svg width="67" height="30" viewBox="0 0 67 30" fill="none" xmlns="http://www.w3.org/2000/svg">
    <path d="M36.2206 27.8528C42.5902 27.8154 59.767 24.9055 60.1832 19.1907C60.5995 13.4758 44.0257 8.10758 37.7288 7.1476C28.9922 5.8194 2.39679 6.02788 2.39679 6.02788C1.88585 8.63766 1.47549 11.6558 1.23939 14.8972C1.00329 18.1386 0.971947 21.1844 1.09931 23.8407C1.10929 23.8414 27.3838 27.9009 36.2206 27.8528Z" fill="#0E657A"/>
    <path d="M65.4606 15.564C65.8768 9.8491 49.303 4.48088 43.0061 3.52089C34.2695 2.19269 7.67413 2.40117 7.67413 2.40117C7.16319 5.01095 6.75284 8.02911 6.51673 11.2705C6.28063 14.5119 6.24929 17.5577 6.37666 20.214C6.37666 20.214 32.6611 24.2742 41.498 24.226C47.8675 24.1887 65.0443 21.2788 65.4606 15.564Z" fill="#003399"/>
    <path d="M65.4606 15.564C65.8768 9.8491 49.303 4.48088 43.0061 3.52089C34.2695 2.19269 7.67413 2.40117 7.67413 2.40117C7.16319 5.01095 6.75284 8.02911 6.51673 11.2705C6.28063 14.5119 6.24929 17.5577 6.37666 20.214C6.37666 20.214 32.6611 24.2742 41.498 24.226C47.8675 24.1887 65.0443 21.2788 65.4606 15.564ZM36.9771 23.3854C27.0833 22.6647 10.1821 20.1402 7.00868 19.6584C6.90543 17.0841 6.95433 14.2101 7.16501 11.3177C7.37569 8.4254 7.7338 5.57387 8.21898 3.04243C11.4287 3.02556 28.5174 2.9769 38.4112 3.69755C40.2663 3.83268 41.7793 3.98297 42.9098 4.15555C49.7822 5.19757 65.1826 10.5706 64.8223 15.5175C64.4619 20.4644 48.4455 23.549 41.4946 23.5841C40.3511 23.591 38.8322 23.5205 36.9771 23.3854Z" fill="#031843"/>
    <path d="M33.3362 21.0748C29.5163 20.7966 24.1436 20.2248 17.3464 19.3888L17.2274 19.3701L18.2874 4.81862L18.4078 4.81736C25.2451 4.96446 30.6532 5.18794 34.4631 5.46546C36.1088 5.58532 37.453 5.71332 38.4752 5.85797C41.7413 6.30642 48.5074 7.98237 53.3532 10.2805L53.4116 10.3048L53.4272 10.3661C53.7437 11.8029 53.8478 13.2643 53.7424 14.7105C53.6371 16.1566 53.3223 17.5876 52.801 18.9633L52.7767 19.0217L52.7154 19.0373C47.5877 20.6089 40.6508 21.2768 37.3535 21.2572C36.3312 21.2529 34.9718 21.194 33.3362 21.0748ZM17.4949 19.1389C24.2224 19.9698 29.5551 20.5387 33.3451 20.8148C34.9808 20.9339 36.3294 21.0021 37.3517 21.0064C40.6184 21.0338 47.4847 20.3708 52.5711 18.8162C53.0696 17.4789 53.3707 16.0971 53.4731 14.6909C53.5756 13.2846 53.4778 11.8738 53.1784 10.4783C48.361 8.20234 41.6632 6.5514 38.4371 6.10585C37.4249 5.96194 36.0806 5.83394 34.445 5.7148C30.655 5.43874 25.2968 5.21889 18.5193 5.07614L17.4949 19.1389Z" fill="#836161"/>
    <path d="M18.109 4.09363C13.0912 4.0189 9.42269 4.00236 9.42269 4.00236C8.95369 6.17402 8.57894 8.70348 8.38207 11.4063C8.1852 14.1092 8.17947 16.6655 8.3388 18.8829C8.3388 18.8829 11.971 19.3982 16.9467 20.0514L25.5067 12.6537L18.109 4.09363Z" fill="#4F91D3"/>
    <path d="M18.9049 5.55526C14.4492 5.47134 11.1826 5.44397 11.1826 5.44397C10.7711 7.23882 10.459 9.32164 10.297 11.5458C10.1342 13.7798 10.142 15.8759 10.289 17.7115C10.289 17.7115 13.5152 18.157 17.946 18.7204L25.5166 12.6543L18.9049 5.55526Z" fill="#367AB2"/>
    <path d="M20.235 6.55466C16.6599 6.49478 14.043 6.49469 14.043 6.49469C13.7095 8.04456 13.4483 9.84031 13.3074 11.7752C13.1672 13.7001 13.1646 15.5247 13.27 17.1066C13.27 17.1066 15.86 17.4757 19.4061 17.9345L25.5051 12.6637L20.235 6.55466Z" fill="#031843"/>
    <path d="M40.3449 9.78419C39.7029 8.27356 37.1101 6.8414 36.6014 6.80435L33.9595 6.87261L33.698 10.4631L40.3449 9.78419Z" fill="#4F91D3"/>
    <path d="M33.3316 15.3494L40.0855 17.0545C40.3814 16.4344 40.6033 15.7286 40.6577 14.9806C40.7021 14.3722 40.7907 13.1555 40.835 12.5471C40.8895 11.799 40.7815 11.0793 40.5694 10.4121L33.6396 11.1206L33.3316 15.3494Z" fill="#4F91D3"/>
    <path d="M33.2831 16.0076L33.0216 19.5981L35.6257 20.0484C36.1344 20.0855 38.9166 19.0549 39.7614 17.6425L33.2831 16.0076Z" fill="#4F91D3"/>
    <path d="M41.4116 7.23474L41.3266 8.40163C41.5752 8.42976 41.8039 8.45644 42.0226 8.4824C43.2849 8.6345 45.1846 8.98344 47.2052 9.46149L47.2713 8.55389C45.2443 8.02524 43.1923 7.56497 41.4116 7.23474Z" fill="#4F91D3"/>
    <path d="M40.5436 19.1531L40.4586 20.32C42.2691 20.2414 44.3554 20.0925 46.4483 19.8539L46.5137 18.9563C44.4451 19.1365 42.5149 19.2065 41.2439 19.174C41.033 19.1787 40.7937 19.1613 40.5436 19.1531Z" fill="#4F91D3"/>
    <path d="M48.1125 9.67803C49.7371 10.0871 51.3965 10.569 52.8221 11.0939L53.0525 10.4088C53.0532 10.3989 53.0447 10.3782 53.0454 10.3682C51.5721 9.80973 49.8964 9.27657 48.1857 8.81106L48.1225 9.67876L48.1125 9.67803Z" fill="#4F91D3"/>
    <path d="M47.4427 18.8736L47.3788 19.7513C49.1396 19.5286 50.8741 19.2539 52.4128 18.9148C52.4135 18.9049 52.425 18.8856 52.4257 18.8757L52.297 18.1644C50.8204 18.478 49.1087 18.7142 47.4427 18.8736Z" fill="#4F91D3"/>
    <path d="M61.1032 16.6103L55.2088 16.1809L55.4064 13.4681L61.3008 13.8975L61.1032 16.6103ZM55.3479 16.0607L60.983 16.4712L61.1617 14.0177L55.5266 13.6072L55.3479 16.0607Z" fill="#836161"/>
    <path d="M61.5104 12.1279C61.3769 12.3087 61.1239 12.3404 60.9432 12.2069L59.3183 10.9757C59.1375 10.8422 59.1058 10.5892 59.2393 10.4084C59.3728 10.2276 59.6258 10.1959 59.8065 10.3294L61.4314 11.5607C61.6122 11.6942 61.6439 11.9472 61.5104 12.1279Z" fill="#836161"/>
    <path d="M58.5564 19.7737C58.6623 19.9719 58.908 20.0399 59.1062 19.934L60.8923 18.9512C61.0905 18.8453 61.1593 18.5896 61.0527 18.4014C60.9468 18.2032 60.7011 18.1351 60.5029 18.241L58.7167 19.2238C58.5185 19.3297 58.4505 19.5754 58.5564 19.7737Z" fill="#5D5D5D"/>
    <path d="M27.3691 19.5674L33.3034 19.9997L27.6009 16.3859L27.3691 19.5674Z" fill="#4F91D3"/>
    <path d="M26.3918 15.6262L25.0308 14.765L20.3442 18.8152C20.8412 19.0119 21.384 19.1316 21.9525 19.173L26.1214 19.4767L26.4018 15.6269L26.3918 15.6262Z" fill="#4F91D3"/>
    <path d="M28.1191 9.2647L34.2852 6.51538L28.3509 6.08313L28.1191 9.2647Z" fill="#4F91D3"/>
    <path d="M27.0938 5.9917L22.9248 5.68803C22.3563 5.64663 21.8112 5.69715 21.2817 5.80898L25.3319 10.4956L26.8034 9.84079L27.0838 5.99097L27.0938 5.9917Z" fill="#4F91D3"/>
    <path d="M36.5377 14.6805C36.3307 17.523 33.859 19.6591 33.081 19.6024L21.9705 18.7931C19.128 18.5861 16.9919 16.1144 17.1989 13.2719L17.3762 10.8383C17.5832 7.99586 20.055 5.85977 22.8974 6.06682L34.008 6.87611C34.7959 6.9335 36.922 9.40449 36.715 12.247C36.6707 12.8553 36.582 14.0721 36.5377 14.6805Z" fill="#003399"/>
    <path d="M33.0466 13.614L28.7469 13.0401L28.7687 12.7409L33.1055 12.8062L33.0466 13.614Z" fill="#031843"/>
</svg>
