<svg width="17" height="29" viewBox="0 0 17 29" fill="none" xmlns="http://www.w3.org/2000/svg">
<path d="M10.7742 26.9407C10.8006 26.9264 10.8023 26.9357 10.7742 26.9407V26.9407Z" fill="#CACAE3"/>
<path d="M10.4113 1.82129C9.93092 1.51577 9.29263 1.13827 8.14328 1.25925C8.14328 1.25925 6.64652 1.46871 6.15364 1.55562C5.64316 1.64563 4.13862 1.96538 4.13862 1.96538C3.0084 2.24635 2.54652 2.81784 2.19958 3.26924C1.8511 3.71184 1.54917 4.41849 1.51957 5.02266L5.35297 25.8365C5.69594 27.7816 6.63874 27.57 8.45545 27.3223C8.83701 27.2732 9.902 27.0854 10.4565 26.9876C10.4829 26.983 10.5445 26.9721 10.6149 26.9597C10.6941 26.9457 10.7469 26.9364 10.7733 26.9317C11.3278 26.834 12.3928 26.6462 12.7682 26.5619C14.5585 26.1645 15.5184 26.0497 15.1754 24.1046L11.6588 3.23484C11.4171 2.68758 10.8902 2.11801 10.4113 1.82129Z" fill="#315EB9"/>
<path d="M10.4496 26.9978C10.4198 26.9933 10.4214 27.0027 10.4496 26.9978V26.9978Z" fill="#CACAE3"/>
<path d="M8.72032 1.70173C8.72032 1.70173 7.68746 1.71142 6.26162 1.96284C4.83579 2.21425 3.79046 2.61637 3.79046 2.61637L2.66012 3.82301C2.66012 3.82301 2.88336 6.7875 3.00751 7.49162C3.13166 8.19573 3.64155 8.66848 3.64155 8.66848L10.9115 7.38658C11.0866 7.09254 11.1617 6.64369 11.1462 6.24712C11.1307 5.85054 10.3034 2.39362 10.3034 2.39362L8.72032 1.70173Z" fill="#08399B"/>
<path d="M2.41349 10.1467C2.11579 10.2083 1.75699 10.3351 1.62495 10.5126C1.49291 10.6902 1.50581 10.9693 1.6487 11.0076C1.78278 11.0475 2.80636 10.6764 2.8043 10.6133C2.81104 10.5485 2.80638 10.5221 2.80638 10.5221L3.00312 10.5056L2.95191 10.2151C2.8727 10.2291 2.74482 10.2244 2.74482 10.2244C2.74482 10.2244 2.71119 10.0852 2.41349 10.1467Z" fill="#08399B"/>
<path d="M12.5623 8.35749C12.2615 8.40146 12.2863 8.54228 12.2863 8.54228C12.2863 8.54228 12.1678 8.59042 12.0886 8.60438L12.1398 8.89482L12.3303 8.84308C12.3303 8.84308 12.335 8.86949 12.3634 8.92799C12.3919 8.9865 13.4703 8.97785 13.5842 8.90331C13.6966 8.81997 13.622 8.55179 13.4372 8.4301C13.2348 8.31151 12.8631 8.31353 12.5623 8.35749Z" fill="#08399B"/>
<path d="M10.7742 26.9407C10.8006 26.9264 10.8023 26.9357 10.7742 26.9407V26.9407Z" fill="#787878"/>
<path d="M6.69406 27.4696C7.15586 27.5152 7.7383 27.4216 8.45742 27.3311C8.83899 27.282 9.90397 27.0942 10.4585 26.9964C10.4849 26.9917 10.5465 26.9809 10.6169 26.9685C10.6961 26.9545 10.7489 26.9452 10.7753 26.9405C11.3298 26.8428 12.3948 26.655 12.7701 26.5706C13.4432 26.4247 14.0034 26.3078 14.416 26.1261L14.4016 25.8383L6.62109 27.2102L6.69406 27.4696Z" fill="#2F3556"/>
<path d="M10.4496 26.9978C10.4198 26.9933 10.4214 27.0027 10.4496 26.9978V26.9978Z" fill="#787878"/>
<path d="M10.1359 23.9946L10.0566 24.0085L10.5145 26.605L10.5937 26.591L10.1359 23.9946Z" fill="#273043"/>
<path d="M9.81201 25.1317C9.41439 25.1928 8.53579 25.3568 8.00045 25.4602C7.72761 25.5083 7.4853 25.6781 7.32736 25.9147L6.96384 26.4779C6.85665 26.642 6.99537 26.8626 7.1802 26.83L10.0231 26.3287C10.1375 26.3085 10.2172 26.1947 10.1955 26.0714L10.0636 25.3233C10.0315 25.1928 9.92642 25.1116 9.81201 25.1317Z" fill="#273043"/>
<path d="M9.78402 25.2907C9.47441 25.3362 8.60462 25.4986 8.11174 25.5855C7.89171 25.6243 7.64008 25.7413 7.50649 25.9101L7.11812 26.4867C7.05857 26.5608 7.13156 26.6659 7.22837 26.6488L9.93921 26.1708C10.0008 26.16 10.0459 26.1066 10.0366 26.0538L9.91706 25.3761C9.8974 25.3161 9.84563 25.2798 9.78402 25.2907Z" fill="url(#paint0_linear_1040_28813)"/>
<path d="M13.3382 24.8549C13.1073 24.6778 12.8231 24.6099 12.5503 24.658C12.0206 24.7424 11.1405 24.8976 10.7356 24.9689C10.6212 24.9891 10.5503 25.1015 10.572 25.2247L10.7039 25.9728C10.7256 26.096 10.8395 26.1758 10.954 26.1556L13.7968 25.6543C13.9816 25.6217 14.0366 25.367 13.8797 25.2495L13.3382 24.8549Z" fill="#273043"/>
<path d="M13.1673 24.9121C12.9841 24.7992 12.7076 24.7754 12.4876 24.8142C11.9947 24.9011 11.1218 25.0459 10.8153 25.1091C10.7537 25.1199 10.7174 25.1717 10.7267 25.2245L10.8462 25.9022C10.8556 25.955 10.9161 25.9897 10.9777 25.9788L13.6886 25.5009C13.7854 25.4838 13.8196 25.3689 13.7367 25.3109L13.1673 24.9121Z" fill="url(#paint1_linear_1040_28813)"/>
<path d="M7.53911 24.5733L6.1582 27.1084L6.22884 27.1469L7.60976 24.6117L7.53911 24.5733Z" fill="#273043"/>
<path d="M12.688 23.6729L12.6348 23.7332L14.7987 25.6438L14.852 25.5835L12.688 23.6729Z" fill="#273043"/>
<path d="M10.7742 26.9407C10.8006 26.9264 10.8023 26.9357 10.7742 26.9407V26.9407Z" fill="#D6D6F0"/>
<path d="M10.4496 26.9978C10.4198 26.9933 10.4214 27.0027 10.4496 26.9978V26.9978Z" fill="#D6D6F0"/>
<path d="M10.4591 26.9961C10.4216 27.0028 10.4293 26.9917 10.4591 26.9961V26.9961Z" fill="#D6D6F0"/>
<path d="M13.015 13.7131L12.0469 13.8838L12.8275 18.3109L13.7957 18.1402L13.015 13.7131Z" fill="#273043"/>
<path d="M12.8788 13.9189L12.2363 14.0322L12.9471 18.0633L13.5896 17.95L12.8788 13.9189Z" fill="url(#paint2_linear_1040_28813)"/>
<path d="M13.851 18.457L12.8828 18.6277L13.6634 23.0548L14.6316 22.8841L13.851 18.457Z" fill="#273043"/>
<path d="M13.7167 18.6716L13.0742 18.7849L13.785 22.816L14.4275 22.7027L13.7167 18.6716Z" fill="url(#paint3_linear_1040_28813)"/>
<path d="M11.4724 7.95001L11.3463 9.70558C11.3453 9.75114 11.3442 9.79669 11.352 9.8407L12.0131 13.5901L12.9461 13.4256L11.9777 7.93352C11.9218 7.61667 11.4957 7.61919 11.4724 7.95001Z" fill="#273043"/>
<path d="M11.6032 8.01822L11.4963 9.77949L12.1015 13.3663L12.7704 13.2484L11.8455 8.00273C11.8191 7.85311 11.6208 7.86084 11.6032 8.01822Z" fill="url(#paint4_linear_1040_28813)"/>
<path d="M4.82949 15.1564L3.86133 15.3271L4.64195 19.7543L5.61011 19.5836L4.82949 15.1564Z" fill="#273043"/>
<path d="M4.69524 15.3621L4.05273 15.4753L4.76352 19.5064L5.40603 19.3931L4.69524 15.3621Z" fill="url(#paint5_linear_1040_28813)"/>
<path d="M5.66738 19.9001L4.69922 20.0708L5.47984 24.4979L6.448 24.3272L5.66738 19.9001Z" fill="#273043"/>
<path d="M5.53313 20.115L4.89062 20.2283L5.60141 24.2593L6.24392 24.146L5.53313 20.115Z" fill="url(#paint6_linear_1040_28813)"/>
<path d="M3.3322 9.38594C3.19711 9.08306 2.79431 9.21761 2.85328 9.55207L3.82169 15.0442L4.75464 14.8797L4.09352 11.1302C4.08576 11.0862 4.06919 11.0438 4.05263 11.0013L3.3322 9.38594Z" fill="#273043"/>
<path d="M3.23362 9.49393C3.17203 9.35051 2.97426 9.41261 3.00219 9.57104L3.92714 14.8167L4.59605 14.6987L3.93801 11.1212L3.23362 9.49393Z" fill="url(#paint7_linear_1040_28813)"/>
<path d="M4.49118 10.3977L6.88426 23.9695C6.97272 24.4712 7.34491 24.8321 7.63535 24.7808L12.7842 23.873C13.0746 23.8218 13.2409 23.375 13.1509 22.8645L10.7407 9.19587C10.7407 9.19587 9.41338 8.66761 7.7323 8.96403C6.05123 9.26045 4.49118 10.3977 4.49118 10.3977Z" fill="#08399B"/>
<path d="M9.67308 5.77166C8.75879 5.73322 7.6493 5.8744 6.98039 5.99234C6.32028 6.10874 5.22061 6.3571 4.37461 6.70592C3.5286 7.05475 3.07814 7.43365 3.08586 7.78622C3.09358 8.13879 3.93874 10.0498 4.13076 10.4697C4.32277 10.8896 4.64071 10.4796 5.38885 10.1934C6.13699 9.90722 7.62444 9.64494 7.62444 9.64494C7.62444 9.64494 9.11188 9.38267 9.91279 9.39573C10.7137 9.40878 11.1599 9.67495 11.1895 9.22505C11.2263 8.76481 11.3669 6.67998 11.2536 6.34603C11.1403 6.01209 10.5874 5.8101 9.67308 5.77166Z" fill="#273043"/>
<path d="M9.59823 5.96642C8.715 5.94972 7.65107 6.09195 7.00856 6.20524C6.36606 6.31853 5.31765 6.54877 4.49494 6.87533C3.67224 7.2019 3.24198 7.54095 3.24193 7.84951C3.24189 8.15807 4.03635 9.833 4.21026 10.2016C4.38416 10.5703 4.82479 10.2385 5.54963 9.97455C6.27448 9.71062 7.58538 9.42501 7.58538 9.42501C7.58538 9.42501 8.96461 9.21812 9.72566 9.21098C10.4955 9.20228 10.9733 9.39028 11.0122 8.99319C11.0496 8.58731 11.2144 6.74322 11.1089 6.45328C11.0033 6.16335 10.4742 5.99346 9.59823 5.96642Z" fill="url(#paint8_linear_1040_28813)"/>
<path d="M9.59922 5.96662C9.09807 5.95516 8.53427 6.00013 8.01758 6.05493C8.133 6.29776 8.84982 7.84117 8.98475 9.22402C9.2695 9.19196 9.66763 9.18529 9.89387 9.1817C10.6653 9.1818 10.9671 9.40084 11.0044 8.99495C11.0417 8.58906 11.2066 6.74497 11.0995 6.44623C11.0027 6.15474 10.4736 5.98486 9.59922 5.96662Z" fill="url(#paint9_linear_1040_28813)"/>
<path opacity="0.44" d="M3.61736 7.60198C3.42574 8.00784 4.37085 9.76511 4.37085 9.76511C4.37085 9.76511 3.88493 8.2445 3.84923 8.04206C3.81199 7.83083 3.73279 7.69052 5.12916 7.1176C6.52708 6.55348 9.38957 6.42082 9.38957 6.42082C9.38957 6.42082 8.99146 6.27322 7.66247 6.35328C6.35108 6.43024 3.80897 7.19611 3.61736 7.60198Z" fill="#C7CCEA"/>
<path d="M5.81565 12.4599C5.72763 12.4755 5.67843 12.5567 5.6924 12.636L7.56248 23.2417C7.578 23.3297 7.65928 23.3789 7.73849 23.3649C7.8177 23.351 7.87569 23.2681 7.86173 23.1889L5.99165 12.5832C5.98493 12.4936 5.90366 12.4444 5.81565 12.4599Z" fill="#315EB9"/>
<path d="M10.216 11.6841C10.128 11.6996 10.0788 11.7809 10.0928 11.8601L11.9629 22.4658C11.9784 22.5538 12.0597 22.603 12.1389 22.589C12.2269 22.5735 12.2761 22.4923 12.2621 22.413L10.392 11.8073C10.3765 11.7193 10.2953 11.6701 10.216 11.6841Z" fill="#315EB9"/>
<path d="M6.28002 27.0883C5.98545 27.0132 5.79182 27.0473 5.8472 27.1555C5.90258 27.2638 6.19196 27.4124 6.48653 27.4875C6.78111 27.5626 6.97474 27.5285 6.91936 27.4202C6.86398 27.312 6.57459 27.1634 6.28002 27.0883Z" fill="#D80505"/>
<path d="M6.61756 27.2012C6.51868 27.1551 6.4022 27.1121 6.28002 27.0883C5.98545 27.0132 5.79182 27.0473 5.8472 27.1555C5.94608 27.2016 6.06256 27.2446 6.18474 27.2685C6.47931 27.3436 6.67449 27.3182 6.61756 27.2012Z" fill="#F52206"/>
<path d="M14.6681 25.6094C14.4169 25.7808 14.1958 26.0194 14.1808 26.14C14.1658 26.2606 14.3506 26.2281 14.6105 26.0552C14.8617 25.8838 15.0828 25.6452 15.0978 25.5246C15.1128 25.404 14.9192 25.4381 14.6681 25.6094Z" fill="#D80505"/>
<path d="M14.6687 25.6093C14.5708 25.6719 14.4761 25.7521 14.3901 25.8308C14.3751 25.9514 14.5599 25.9189 14.8198 25.746C14.9177 25.6833 15.0124 25.6031 15.0984 25.5244C15.1134 25.4038 14.9198 25.4379 14.6687 25.6093Z" fill="#F52206"/>
<path d="M6.05662 1.06416C6.04781 1.06572 6.04781 1.06572 6.05662 1.06416C6.04781 1.06572 6.03902 1.06727 6.03902 1.06727C5.36131 1.18677 3.33075 1.66279 3.13191 1.92473C2.93307 2.18666 2.81803 2.92388 2.81803 2.92388C2.81803 2.92388 3.30211 2.83853 3.57553 2.38194C3.82565 1.9476 5.91935 1.6238 6.12178 1.58811C6.12178 1.58811 6.12178 1.58811 6.13058 1.58655C6.13938 1.585 6.13938 1.585 6.13938 1.585C6.34906 1.53896 8.41999 1.1375 8.80358 1.46009C9.20787 1.79718 9.70075 1.71027 9.70075 1.71027C9.70075 1.71027 9.34051 1.05686 9.06407 0.878726C8.80524 0.697489 6.72708 0.955019 6.05662 1.06416Z" fill="#273043"/>
<path d="M3.76392 2.57541L3.61427 2.75607L4.00228 4.80215L5.05249 6.48643L4.18608 4.66083L3.76392 2.57541Z" fill="#C8CBD6"/>
<path d="M9.01854 3.80875L8.82877 5.82058L9.2396 3.87868L8.9044 1.82328L8.70199 1.7047L9.01854 3.80875Z" fill="#C8CBD6"/>
<path d="M2.29492 3.40625C1.9894 3.88665 2.21605 4.70883 2.21605 4.70883C2.21605 4.70883 2.73134 3.56526 3.64469 2.87785C3.74099 2.80642 3.79123 2.67958 3.7695 2.55636L3.71363 2.23951C3.72399 2.24676 2.76978 2.65096 2.29492 3.40625Z" fill="#88C4FF"/>
<path d="M2.1682 4.3361C2.18785 4.55043 2.21578 4.70887 2.21578 4.70887C2.21578 4.70887 2.73107 3.5653 3.64442 2.87789C3.74073 2.80646 3.79096 2.67962 3.76924 2.5564C2.94911 3.00049 2.34013 4.02445 2.1682 4.3361Z" fill="#D5FAFC"/>
<path d="M8.63477 1.38062L8.69063 1.69746C8.71236 1.82068 8.80295 1.92269 8.91788 1.95688C10.0113 2.29044 10.8866 3.18881 10.8866 3.18881C10.8866 3.18881 10.8184 2.3387 10.367 1.99176C9.66968 1.43408 8.63477 1.38062 8.63477 1.38062Z" fill="#88C4FF"/>
<path d="M8.69141 1.69727C8.71313 1.82049 8.80372 1.92249 8.91865 1.95668C10.012 2.29024 10.8874 3.18861 10.8874 3.18861C10.8874 3.18861 10.8682 3.02862 10.8046 2.82205C10.5437 2.57765 9.62121 1.82372 8.69141 1.69727Z" fill="#D5FAFC"/>
<defs>
<linearGradient id="paint0_linear_1040_28813" x1="8.42599" y1="25.5284" x2="8.58095" y2="26.4072" gradientUnits="userSpaceOnUse">
<stop stop-color="#414751"/>
<stop offset="0.9838" stop-color="#292B2E"/>
</linearGradient>
<linearGradient id="paint1_linear_1040_28813" x1="12.3299" y1="25.7464" x2="12.1749" y2="24.8676" gradientUnits="userSpaceOnUse">
<stop stop-color="#414751"/>
<stop offset="0.9838" stop-color="#292B2E"/>
</linearGradient>
<linearGradient id="paint2_linear_1040_28813" x1="14.1571" y1="17.4766" x2="11.6689" y2="14.5113" gradientUnits="userSpaceOnUse">
<stop stop-color="#414751"/>
<stop offset="0.9838" stop-color="#292B2E"/>
</linearGradient>
<linearGradient id="paint3_linear_1040_28813" x1="14.1052" y1="22.756" x2="13.3948" y2="18.7273" gradientUnits="userSpaceOnUse">
<stop stop-color="#414751"/>
<stop offset="0.9838" stop-color="#292B2E"/>
</linearGradient>
<linearGradient id="paint4_linear_1040_28813" x1="13.5754" y1="12.5827" x2="10.4855" y2="8.9003" gradientUnits="userSpaceOnUse">
<stop stop-color="#414751"/>
<stop offset="0.9838" stop-color="#292B2E"/>
</linearGradient>
<linearGradient id="paint5_linear_1040_28813" x1="5.97652" y1="18.9192" x2="3.48832" y2="15.9539" gradientUnits="userSpaceOnUse">
<stop stop-color="#414751"/>
<stop offset="0.9838" stop-color="#292B2E"/>
</linearGradient>
<linearGradient id="paint6_linear_1040_28813" x1="5.92461" y1="24.1989" x2="5.21424" y2="20.1701" gradientUnits="userSpaceOnUse">
<stop stop-color="#414751"/>
<stop offset="0.9838" stop-color="#292B2E"/>
</linearGradient>
<linearGradient id="paint7_linear_1040_28813" x1="5.25519" y1="14.1449" x2="2.02676" y2="10.2974" gradientUnits="userSpaceOnUse">
<stop stop-color="#414751"/>
<stop offset="0.9838" stop-color="#292B2E"/>
</linearGradient>
<linearGradient id="paint8_linear_1040_28813" x1="3.59701" y1="6.80861" x2="10.8581" y2="9.45142" gradientUnits="userSpaceOnUse">
<stop stop-color="#414751"/>
<stop offset="0.9838" stop-color="#292B2E"/>
</linearGradient>
<linearGradient id="paint9_linear_1040_28813" x1="8.33214" y1="7.83711" x2="11.2659" y2="7.31982" gradientUnits="userSpaceOnUse">
<stop stop-color="#414751"/>
<stop offset="0.9838" stop-color="#292B2E"/>
</linearGradient>
</defs>
</svg>
