<svg width="135" height="111" viewBox="0 0 135 111" fill="none" xmlns="http://www.w3.org/2000/svg">
    <path d="M23.8387 42.1922L53.6345 63.0554L54.2974 69.7715L68.1499 79.4712L70.6037 75.9669L84.7444 85.8683L95.451 85.9133C114.796 98.9472 125.048 89.3681 125.048 89.3681C125.048 89.3681 130.729 76.0558 110.796 62.0989L31.0987 6.29397C25.3253 2.25139 20.6571 2.72567 20.6571 2.72567L7.92715 20.906C7.92715 20.906 9.07811 25.4548 14.8515 29.4974L16.8141 30.8716L9.4901 37.0472L15.2772 41.0994L23.9462 35.8656L26.8467 37.8965L23.8387 42.1922Z" fill="#0E657A"/>
    <path d="M108.49 67.3902L28.7921 11.5852C23.0187 7.54266 18.3505 8.01692 18.3505 8.01692L5.62052 26.1972C5.62052 26.1972 6.77148 30.7461 12.5449 34.7887L92.2426 90.5936C112.175 104.55 122.742 94.6593 122.742 94.6593C122.742 94.6593 128.422 81.347 108.49 67.3902Z" fill="#1A3B91"/>
    <path d="M113.57 74.125C111.983 72.5362 103.6 66.3873 101.258 64.7472L87.2821 84.7071C89.6244 86.3472 98.2694 92.121 100.305 93.0693L113.57 74.125Z" fill="#14316B"/>
    <path d="M86.8968 84.771L101.193 64.3536L101.422 64.5138C103.787 66.1699 112.165 72.3156 113.772 73.925L113.937 74.0883L100.406 93.4123L100.196 93.313C98.139 92.3565 89.4985 86.5859 87.1288 84.9266L86.9 84.7664L86.8968 84.771ZM101.327 65.136L87.6746 84.6339C90.2292 86.409 97.9406 91.5494 100.218 92.7077L113.207 74.1569C111.332 72.4144 103.864 66.9262 101.327 65.136Z" fill="#D5754D"/>
    <path d="M119.244 82.2356L109.875 95.6169C116.528 95.9395 119.973 92.7135 119.973 92.7135C119.973 92.7135 121.823 88.3773 119.244 82.2356Z" fill="#5796CB"/>
    <path d="M102.247 68.0578L102.68 67.4402L102.254 67.1423L101.822 67.7599L102.247 68.0578Z" fill="#4F91D3"/>
    <path d="M101.155 69.6178L101.588 69.0002L101.162 68.7023L100.73 69.3199L101.155 69.6178Z" fill="#4F91D3"/>
    <path d="M100.062 71.1779L100.494 70.5603L100.069 70.2624L99.6362 70.88L100.062 71.1779Z" fill="#4F91D3"/>
    <path d="M98.9679 72.7424L99.4004 72.1248L98.9749 71.8268L98.5425 72.4444L98.9679 72.7424Z" fill="#4F91D3"/>
    <path d="M97.8742 74.3024L98.3066 73.6848L97.8812 73.3869L97.4487 74.0045L97.8742 74.3024Z" fill="#4F91D3"/>
    <path d="M96.7785 75.8669L97.2109 75.2493L96.7855 74.9514L96.353 75.5689L96.7785 75.8669Z" fill="#4F91D3"/>
    <path d="M103.911 69.224L104.344 68.6064L103.918 68.3085L103.486 68.9261L103.911 69.224Z" fill="#4F91D3"/>
    <path d="M102.82 70.7844L103.252 70.1667L102.826 69.8688L102.394 70.4864L102.82 70.7844Z" fill="#4F91D3"/>
    <path d="M101.726 72.3442L102.158 71.7266L101.733 71.4287L101.3 72.0462L101.726 72.3442Z" fill="#4F91D3"/>
    <path d="M100.63 73.9089L101.062 73.2913L100.637 72.9934L100.205 73.611L100.63 73.9089Z" fill="#4F91D3"/>
    <path d="M99.5383 75.4687L99.9707 74.8511L99.5452 74.5532L99.1128 75.1708L99.5383 75.4687Z" fill="#4F91D3"/>
    <path d="M98.4426 77.0336L98.875 76.416L98.4495 76.1181L98.0171 76.7357L98.4426 77.0336Z" fill="#4F91D3"/>
    <path d="M105.577 70.3898L106.01 69.7722L105.584 69.4743L105.152 70.0919L105.577 70.3898Z" fill="#4F91D3"/>
    <path d="M104.486 71.9499L104.918 71.3323L104.493 71.0344L104.06 71.652L104.486 71.9499Z" fill="#4F91D3"/>
    <path d="M103.392 73.5099L103.824 72.8923L103.399 72.5944L102.966 73.212L103.392 73.5099Z" fill="#4F91D3"/>
    <path d="M102.296 75.0744L102.729 74.4568L102.303 74.1589L101.871 74.7765L102.296 75.0744Z" fill="#4F91D3"/>
    <path d="M101.204 76.6347L101.637 76.0171L101.211 75.7192L100.779 76.3368L101.204 76.6347Z" fill="#4F91D3"/>
    <path d="M100.109 78.1991L100.541 77.5815L100.116 77.2836L99.6831 77.9012L100.109 78.1991Z" fill="#4F91D3"/>
    <path d="M108.071 72.1552L108.504 71.5376L108.078 71.2397L107.646 71.8573L108.071 72.1552Z" fill="#4F91D3"/>
    <path d="M106.976 73.7194L107.408 73.1018L106.983 72.8039L106.55 73.4215L106.976 73.7194Z" fill="#4F91D3"/>
    <path d="M105.884 75.2797L106.316 74.6621L105.891 74.3642L105.458 74.9818L105.884 75.2797Z" fill="#4F91D3"/>
    <path d="M104.79 76.8395L105.223 76.2219L104.797 75.924L104.365 76.5416L104.79 76.8395Z" fill="#4F91D3"/>
    <path d="M103.696 78.4042L104.129 77.7866L103.703 77.4887L103.271 78.1063L103.696 78.4042Z" fill="#4F91D3"/>
    <path d="M102.603 79.964L103.035 79.3464L102.61 79.0485L102.177 79.6661L102.603 79.964Z" fill="#4F91D3"/>
    <path d="M109.736 73.3217L110.168 72.7041L109.743 72.4062L109.31 73.0238L109.736 73.3217Z" fill="#4F91D3"/>
    <path d="M108.64 74.8866L109.072 74.269L108.647 73.9711L108.214 74.5887L108.64 74.8866Z" fill="#4F91D3"/>
    <path d="M107.548 76.4465L107.98 75.8289L107.555 75.5309L107.123 76.1486L107.548 76.4465Z" fill="#4F91D3"/>
    <path d="M106.456 78.0063L106.889 77.3887L106.463 77.0908L106.031 77.7084L106.456 78.0063Z" fill="#4F91D3"/>
    <path d="M105.361 79.5712L105.793 78.9536L105.368 78.6557L104.935 79.2733L105.361 79.5712Z" fill="#4F91D3"/>
    <path d="M104.267 81.131L104.699 80.5134L104.274 80.2155L103.841 80.8331L104.267 81.131Z" fill="#4F91D3"/>
    <path d="M111.402 74.4872L111.834 73.8696L111.409 73.5717L110.976 74.1893L111.402 74.4872Z" fill="#4F91D3"/>
    <path d="M110.306 76.0514L110.738 75.4338L110.313 75.1359L109.88 75.7535L110.306 76.0514Z" fill="#4F91D3"/>
    <path d="M109.214 77.6117L109.646 76.9941L109.221 76.6962L108.789 77.3138L109.214 77.6117Z" fill="#4F91D3"/>
    <path d="M108.12 79.1716L108.553 78.554L108.127 78.256L107.695 78.8736L108.12 79.1716Z" fill="#4F91D3"/>
    <path d="M107.027 80.7363L107.459 80.1187L107.034 79.8207L106.601 80.4383L107.027 80.7363Z" fill="#4F91D3"/>
    <path d="M105.933 82.2961L106.365 81.6785L105.94 81.3806L105.507 81.9981L105.933 82.2961Z" fill="#4F91D3"/>
    <path d="M95.7804 77.2944L96.2129 76.6768L95.7874 76.3788L95.355 76.9965L95.7804 77.2944Z" fill="#4F91D3"/>
    <path d="M94.6887 78.8542L95.1211 78.2366L94.6956 77.9387L94.2632 78.5563L94.6887 78.8542Z" fill="#4F91D3"/>
    <path d="M93.5929 80.4191L94.0254 79.8015L93.5999 79.5036L93.1675 80.1212L93.5929 80.4191Z" fill="#4F91D3"/>
    <path d="M92.5011 81.9789L92.9336 81.3613L92.5081 81.0634L92.0757 81.681L92.5011 81.9789Z" fill="#4F91D3"/>
    <path d="M91.4074 83.539L91.8398 82.9214L91.4144 82.6235L90.9819 83.2411L91.4074 83.539Z" fill="#4F91D3"/>
    <path d="M90.3117 85.1034L90.7441 84.4858L90.3187 84.1879L89.8862 84.8055L90.3117 85.1034Z" fill="#4F91D3"/>
    <path d="M97.4445 78.4606L97.877 77.843L97.4515 77.5451L97.019 78.1627L97.4445 78.4606Z" fill="#4F91D3"/>
    <path d="M96.3527 80.0207L96.7852 79.4031L96.3597 79.1052L95.9273 79.7228L96.3527 80.0207Z" fill="#4F91D3"/>
    <path d="M95.257 81.5851L95.6895 80.9675L95.264 80.6696L94.8315 81.2872L95.257 81.5851Z" fill="#4F91D3"/>
    <path d="M94.1652 83.1454L94.5977 82.5278L94.1722 82.2299L93.7397 82.8475L94.1652 83.1454Z" fill="#4F91D3"/>
    <path d="M93.0715 84.7052L93.5039 84.0876L93.0784 83.7897L92.646 84.4073L93.0715 84.7052Z" fill="#4F91D3"/>
    <path d="M91.9758 86.2699L92.4082 85.6523L91.9827 85.3544L91.5503 85.972L91.9758 86.2699Z" fill="#4F91D3"/>
    <path d="M99.1105 79.6264L99.543 79.0088L99.1175 78.7109L98.6851 79.3285L99.1105 79.6264Z" fill="#4F91D3"/>
    <path d="M98.0187 81.1864L98.4512 80.5688L98.0257 80.2709L97.5933 80.8885L98.0187 81.1864Z" fill="#4F91D3"/>
    <path d="M96.923 82.7511L97.3555 82.1335L96.93 81.8356L96.4976 82.4532L96.923 82.7511Z" fill="#4F91D3"/>
    <path d="M95.8312 84.311L96.2637 83.6934L95.8382 83.3955L95.4058 84.0131L95.8312 84.311Z" fill="#4F91D3"/>
    <path d="M94.7375 85.8713L95.1699 85.2537L94.7445 84.9558L94.312 85.5734L94.7375 85.8713Z" fill="#4F91D3"/>
    <path d="M93.6418 87.4357L94.0742 86.8181L93.6488 86.5202L93.2163 87.1378L93.6418 87.4357Z" fill="#4F91D3"/>
    <path d="M101.601 81.3964L102.033 80.7788L101.608 80.4809L101.175 81.0985L101.601 81.3964Z" fill="#4F91D3"/>
    <path d="M100.509 82.9562L100.941 82.3386L100.516 82.0407L100.083 82.6583L100.509 82.9562Z" fill="#4F91D3"/>
    <path d="M99.4152 84.516L99.8477 83.8984L99.4222 83.6005L98.9897 84.2181L99.4152 84.516Z" fill="#4F91D3"/>
    <path d="M98.3215 86.0807L98.7539 85.4631L98.3284 85.1652L97.896 85.7828L98.3215 86.0807Z" fill="#4F91D3"/>
    <path d="M97.2277 87.6408L97.6602 87.0232L97.2347 86.7253L96.8022 87.3429L97.2277 87.6408Z" fill="#4F91D3"/>
    <path d="M96.1359 89.2011L96.5684 88.5835L96.1429 88.2856L95.7105 88.9032L96.1359 89.2011Z" fill="#4F91D3"/>
    <path d="M103.265 82.5627L103.697 81.9451L103.272 81.6472L102.839 82.2647L103.265 82.5627Z" fill="#4F91D3"/>
    <path d="M102.173 84.1222L102.605 83.5046L102.18 83.2067L101.748 83.8243L102.173 84.1222Z" fill="#4F91D3"/>
    <path d="M101.079 85.6825L101.512 85.0649L101.086 84.767L100.654 85.3846L101.079 85.6825Z" fill="#4F91D3"/>
    <path d="M99.9855 87.247L100.418 86.6294L99.9925 86.3315L99.5601 86.9491L99.9855 87.247Z" fill="#4F91D3"/>
    <path d="M98.8918 88.8071L99.3242 88.1895L98.8988 87.8915L98.4663 88.5091L98.8918 88.8071Z" fill="#4F91D3"/>
    <path d="M97.8 90.3671L98.2324 89.7495L97.807 89.4516L97.3745 90.0692L97.8 90.3671Z" fill="#4F91D3"/>
    <path d="M104.931 83.7289L105.363 83.1113L104.938 82.8134L104.505 83.431L104.931 83.7289Z" fill="#4F91D3"/>
    <path d="M103.839 85.2885L104.271 84.6709L103.846 84.373L103.414 84.9906L103.839 85.2885Z" fill="#4F91D3"/>
    <path d="M102.745 86.8483L103.178 86.2307L102.752 85.9328L102.32 86.5504L102.745 86.8483Z" fill="#4F91D3"/>
    <path d="M101.652 88.4133L102.084 87.7957L101.659 87.4977L101.226 88.1153L101.652 88.4133Z" fill="#4F91D3"/>
    <path d="M100.558 89.9731L100.99 89.3555L100.565 89.0576L100.132 89.6752L100.558 89.9731Z" fill="#4F91D3"/>
    <path d="M99.466 91.5334L99.8984 90.9158L99.473 90.6179L99.0405 91.2355L99.466 91.5334Z" fill="#4F91D3"/>
    <path d="M20.1203 10.5639L20.5527 9.94629L20.1273 9.64838L19.6948 10.266L20.1203 10.5639Z" fill="#4F91D3"/>
    <path d="M19.0285 12.1237L19.4609 11.5061L19.0355 11.2082L18.603 11.8258L19.0285 12.1237Z" fill="#4F91D3"/>
    <path d="M17.9347 13.6838L18.3672 13.0662L17.9417 12.7683L17.5093 13.3859L17.9347 13.6838Z" fill="#4F91D3"/>
    <path d="M16.839 15.2482L17.2715 14.6306L16.846 14.3327L16.4136 14.9503L16.839 15.2482Z" fill="#4F91D3"/>
    <path d="M15.7472 16.8085L16.1797 16.1909L15.7542 15.893L15.3218 16.5106L15.7472 16.8085Z" fill="#4F91D3"/>
    <path d="M14.6554 18.3686L15.0879 17.751L14.6624 17.4531L14.23 18.0707L14.6554 18.3686Z" fill="#4F91D3"/>
    <path d="M21.7843 11.7302L22.2168 11.1125L21.7913 10.8146L21.3589 11.4322L21.7843 11.7302Z" fill="#4F91D3"/>
    <path d="M20.6926 13.29L21.125 12.6724L20.6995 12.3745L20.2671 12.9921L20.6926 13.29Z" fill="#4F91D3"/>
    <path d="M19.5988 14.8503L20.0312 14.2327L19.6058 13.9348L19.1733 14.5524L19.5988 14.8503Z" fill="#4F91D3"/>
    <path d="M18.5031 16.4147L18.9355 15.7971L18.5101 15.4992L18.0777 16.1168L18.5031 16.4147Z" fill="#4F91D3"/>
    <path d="M17.4113 17.9748L17.8438 17.3572L17.4183 17.0593L16.9858 17.6769L17.4113 17.9748Z" fill="#4F91D3"/>
    <path d="M16.3195 19.5348L16.752 18.9172L16.3265 18.6193L15.894 19.2369L16.3195 19.5348Z" fill="#4F91D3"/>
    <path d="M23.4504 12.8964L23.8828 12.2788L23.4574 11.9809L23.0249 12.5985L23.4504 12.8964Z" fill="#4F91D3"/>
    <path d="M22.3586 14.456L22.791 13.8384L22.3656 13.5405L21.9331 14.1581L22.3586 14.456Z" fill="#4F91D3"/>
    <path d="M21.2648 16.016L21.6973 15.3984L21.2718 15.1005L20.8394 15.7181L21.2648 16.016Z" fill="#4F91D3"/>
    <path d="M20.1711 17.5805L20.6035 16.9629L20.1781 16.665L19.7456 17.2826L20.1711 17.5805Z" fill="#4F91D3"/>
    <path d="M19.0773 19.1408L19.5098 18.5232L19.0843 18.2253L18.6519 18.8429L19.0773 19.1408Z" fill="#4F91D3"/>
    <path d="M17.9855 20.7009L18.418 20.0833L17.9925 19.7853L17.5601 20.4029L17.9855 20.7009Z" fill="#4F91D3"/>
    <path d="M13.6535 19.8002L14.0859 19.1826L13.6605 18.8847L13.228 19.5023L13.6535 19.8002Z" fill="#4F91D3"/>
    <path d="M12.5617 21.36L12.9941 20.7424L12.5687 20.4445L12.1362 21.0621L12.5617 21.36Z" fill="#4F91D3"/>
    <path d="M11.466 22.925L11.8984 22.3074L11.473 22.0095L11.0405 22.6271L11.466 22.925Z" fill="#4F91D3"/>
    <path d="M10.3722 24.4848L10.8047 23.8672L10.3792 23.5693L9.94678 24.1869L10.3722 24.4848Z" fill="#4F91D3"/>
    <path d="M9.28044 26.0448L9.71289 25.4272L9.28744 25.1293L8.85499 25.7469L9.28044 26.0448Z" fill="#4F91D3"/>
    <path d="M8.18474 27.6093L8.61719 26.9917L8.19173 26.6938L7.75928 27.3114L8.18474 27.6093Z" fill="#4F91D3"/>
    <path d="M15.3176 20.9665L15.75 20.3489L15.3245 20.051L14.8921 20.6686L15.3176 20.9665Z" fill="#4F91D3"/>
    <path d="M14.2258 22.5268L14.6582 21.9092L14.2327 21.6113L13.8003 22.2289L14.2258 22.5268Z" fill="#4F91D3"/>
    <path d="M13.1301 24.0912L13.5625 23.4736L13.137 23.1757L12.7046 23.7933L13.1301 24.0912Z" fill="#4F91D3"/>
    <path d="M12.0383 25.6513L12.4707 25.0337L12.0452 24.7358L11.6128 25.3534L12.0383 25.6513Z" fill="#4F91D3"/>
    <path d="M10.9445 27.2111L11.377 26.5935L10.9515 26.2956L10.519 26.9132L10.9445 27.2111Z" fill="#4F91D3"/>
    <path d="M9.8488 28.776L10.2812 28.1584L9.8558 27.8605L9.42335 28.4781L9.8488 28.776Z" fill="#4F91D3"/>
    <path d="M16.9836 22.1323L17.416 21.5146L16.9906 21.2167L16.5581 21.8343L16.9836 22.1323Z" fill="#4F91D3"/>
    <path d="M15.8918 23.6921L16.3242 23.0745L15.8988 22.7766L15.4663 23.3942L15.8918 23.6921Z" fill="#4F91D3"/>
    <path d="M14.7961 25.257L15.2285 24.6394L14.8031 24.3415L14.3706 24.9591L14.7961 25.257Z" fill="#4F91D3"/>
    <path d="M13.7043 26.8168L14.1367 26.1992L13.7113 25.9013L13.2788 26.5189L13.7043 26.8168Z" fill="#4F91D3"/>
    <path d="M12.6105 28.3769L13.043 27.7593L12.6175 27.4614L12.1851 28.079L12.6105 28.3769Z" fill="#4F91D3"/>
    <path d="M11.5148 29.9413L11.9473 29.3237L11.5218 29.0258L11.0894 29.6434L11.5148 29.9413Z" fill="#4F91D3"/>
    <path d="M87.2837 84.7072L101.26 64.7473L26.1506 12.1553L12.1745 32.1152L87.2837 84.7072Z" fill="#E08A3D"/>
    <path d="M11.7827 32.1759L26.0791 11.7585L101.65 64.6741L87.354 85.0914L11.7827 32.1759ZM26.2131 12.5409L12.5573 32.0433L87.2136 84.3182L100.869 64.8158L26.2131 12.5409Z" fill="#D5754D"/>
    <path d="M74.6072 74.1063L86.9688 56.4521L38.828 22.7437L26.4664 40.3978L74.6072 74.1063Z" fill="#FFB061"/>
    <path d="M26.0734 40.471L38.7553 22.3594L87.3535 56.3882L74.6716 74.4999L26.0734 40.471ZM38.8957 23.1326L26.8544 40.3293L74.5376 73.7175L86.5789 56.5208L38.8957 23.1326Z" fill="#D5754D"/>
    <path d="M73.7974 75.2638L87.7734 55.304L72.8596 44.8611L58.8835 64.821L73.7974 75.2638Z" fill="#14316B"/>
    <path d="M76.8949 70.84L84.6758 59.7278L69.7619 49.285L61.9811 60.3972L76.8949 70.84Z" fill="#1A3B91"/>
    <path d="M61.5939 60.4611L69.6951 48.8914L85.0664 59.6545L76.9652 71.2242L61.5939 60.4611ZM69.829 49.6738L62.3685 60.3285L76.8249 70.451L84.2854 59.7963L69.829 49.6738Z" fill="#D5754D"/>
    <path d="M58.4963 64.8849L72.7927 44.4676L88.1641 55.2307L73.8677 75.6481L58.4963 64.8849ZM72.9267 45.25L59.2709 64.7524L73.7273 74.8748L87.383 55.3724L72.9267 45.25Z" fill="#D5754D"/>
    <path d="M43.0316 44.5587L48.4004 36.8914L39.3789 30.5744L34.0101 38.2418L43.0316 44.5587Z" fill="#4F91D3"/>
    <path d="M57.4594 54.662L62.8281 46.9946L53.8066 40.6777L48.4379 48.3451L57.4594 54.662Z" fill="#4F91D3"/>
    <path d="M43.3677 44.0783L48.0605 37.3762L39.039 31.0593L34.3462 37.7614L43.3677 44.0783Z" fill="#86BFEF"/>
    <path d="M57.7974 54.1818L62.4902 47.4797L53.4687 41.1628L48.7759 47.8649L57.7974 54.1818Z" fill="#86BFEF"/>
    <path d="M42.3289 31.3852L42.6973 30.8591L42.1666 30.4875L41.7982 31.0137L42.3289 31.3852Z" fill="#14316B"/>
    <path d="M42.6978 30.859L43.0117 30.4106L42.481 30.0391L42.1671 30.4874L42.6978 30.859Z" fill="#D2D5DA"/>
    <path d="M42.2212 31.5408L42.3301 31.3853L41.7994 31.0137L41.6905 31.1692L42.2212 31.5408Z" fill="#D2D5DA"/>
    <path d="M43.4265 32.1543L43.7949 31.6282L43.2642 31.2566L42.8959 31.7827L43.4265 32.1543Z" fill="#14316B"/>
    <path d="M43.7955 31.6283L44.1094 31.1799L43.5787 30.8083L43.2648 31.2567L43.7955 31.6283Z" fill="#D2D5DA"/>
    <path d="M43.3188 32.3098L43.4277 32.1543L42.8971 31.7827L42.7881 31.9383L43.3188 32.3098Z" fill="#D2D5DA"/>
    <path d="M44.53 32.9263L44.8984 32.4001L44.3678 32.0286L43.9994 32.5547L44.53 32.9263Z" fill="#14316B"/>
    <path d="M44.899 32.4002L45.2129 31.9519L44.6822 31.5803L44.3683 32.0286L44.899 32.4002Z" fill="#D2D5DA"/>
    <path d="M44.4223 33.0818L44.5312 32.9263L44.0006 32.5547L43.8917 32.7102L44.4223 33.0818Z" fill="#D2D5DA"/>
    <path d="M45.6277 33.6948L45.9961 33.1687L45.4654 32.7971L45.097 33.3232L45.6277 33.6948Z" fill="#14316B"/>
    <path d="M45.9966 33.1688L46.3105 32.7205L45.7799 32.3489L45.4659 32.7972L45.9966 33.1688Z" fill="#D2D5DA"/>
    <path d="M45.52 33.8504L45.6289 33.6948L45.0982 33.3232L44.9893 33.4788L45.52 33.8504Z" fill="#D2D5DA"/>
    <path d="M46.1474 29.0278C46.0175 29.0868 45.8944 29.1847 45.8047 29.3128C45.715 29.4409 45.6683 29.5855 45.6541 29.7323L46.5092 29.8061L46.1474 29.0278Z" fill="#1A3B91"/>
    <path d="M47.002 29.1016C46.7412 28.919 46.4131 28.9006 46.1468 29.0278L46.5086 29.8061L47.002 29.1016Z" fill="#D5754D"/>
    <path d="M47.3686 29.8833C47.3924 29.5863 47.2675 29.2876 47.0068 29.105L46.5135 29.8095L47.3686 29.8833Z" fill="#1A3B91"/>
    <path d="M45.6566 29.728C45.6328 30.0249 45.7577 30.3237 46.0184 30.5063L46.5117 29.8018L45.6566 29.728Z" fill="#D5754D"/>
    <path d="M46.0193 30.506C46.2801 30.6886 46.6081 30.7069 46.8744 30.5798L46.5127 29.8015L46.0193 30.506Z" fill="#1A3B91"/>
    <path d="M47.3688 29.8832L46.5137 29.8094L46.8755 30.5877C47.0086 30.5241 47.1285 30.4308 47.2182 30.3027C47.3065 30.1668 47.3578 30.0255 47.3688 29.8832Z" fill="#D5754D"/>
    <path d="M42.3583 27.4184C42.2252 27.482 42.1053 27.5753 42.0156 27.7034C41.9259 27.8315 41.8792 27.9761 41.865 28.123L42.7201 28.1967L42.3583 27.4184Z" fill="#1A3B91"/>
    <path d="M43.2129 27.4924C42.9521 27.3098 42.6241 27.2915 42.3578 27.4186L42.7196 28.1969L43.2129 27.4924Z" fill="#D5754D"/>
    <path d="M43.5756 28.2705C43.5994 27.9735 43.4746 27.6748 43.2138 27.4922L42.7205 28.1967L43.5756 28.2705Z" fill="#1A3B91"/>
    <path d="M41.8656 28.123C41.8418 28.4199 41.9666 28.7187 42.2274 28.9013L42.7207 28.1968L41.8656 28.123Z" fill="#D5754D"/>
    <path d="M42.2264 28.901C42.4871 29.0836 42.8152 29.102 43.0815 28.9748L42.7197 28.1965L42.2264 28.901Z" fill="#1A3B91"/>
    <path d="M43.5758 28.2706L42.7207 28.1968L43.0825 28.9751C43.2156 28.9116 43.3355 28.8182 43.4252 28.6901C43.5149 28.5621 43.5662 28.4207 43.5758 28.2706Z" fill="#D5754D"/>
    <path d="M48.1298 32.5278C47.9967 32.5914 47.8768 32.6847 47.7871 32.8128C47.6974 32.9409 47.6507 33.0855 47.6365 33.2323L48.4916 33.3061L48.1298 32.5278Z" fill="#1A3B91"/>
    <path d="M48.9883 32.6052C48.7275 32.4226 48.3995 32.4043 48.1332 32.5315L48.495 33.3097L48.9883 32.6052Z" fill="#D5754D"/>
    <path d="M49.351 33.3835C49.3748 33.0866 49.25 32.7878 48.9892 32.6052L48.4959 33.3097L49.351 33.3835Z" fill="#1A3B91"/>
    <path d="M47.639 33.228C47.6152 33.5249 47.7401 33.8237 48.0008 34.0063L48.4941 33.3018L47.639 33.228Z" fill="#D5754D"/>
    <path d="M48.0057 34.0097C48.2664 34.1923 48.5945 34.2106 48.8608 34.0835L48.499 33.3052L48.0057 34.0097Z" fill="#1A3B91"/>
    <path d="M49.3512 33.3834L48.4961 33.3096L48.8579 34.0879C48.991 34.0243 49.1109 33.931 49.2006 33.8029C49.2857 33.6716 49.3402 33.5257 49.3512 33.3834Z" fill="#D5754D"/>
    <path d="M39.3015 43.9846L39.6699 43.4585L39.1392 43.0869L38.7709 43.613L39.3015 43.9846Z" fill="#14316B"/>
    <path d="M38.9888 44.4332L39.3027 43.9849L38.7721 43.6133L38.4581 44.0616L38.9888 44.4332Z" fill="#D2D5DA"/>
    <path d="M39.6704 43.4588L39.7793 43.3032L39.2486 42.9316L39.1397 43.0872L39.6704 43.4588Z" fill="#D2D5DA"/>
    <path d="M38.2039 43.2158L38.5723 42.6897L38.0416 42.3181L37.6732 42.8442L38.2039 43.2158Z" fill="#14316B"/>
    <path d="M37.8912 43.6644L38.2051 43.2161L37.6744 42.8445L37.3605 43.2928L37.8912 43.6644Z" fill="#D2D5DA"/>
    <path d="M38.5727 42.6897L38.6816 42.5342L38.151 42.1626L38.042 42.3181L38.5727 42.6897Z" fill="#D2D5DA"/>
    <path d="M37.1004 42.4433L37.4688 41.9172L36.9381 41.5457L36.5697 42.0718L37.1004 42.4433Z" fill="#14316B"/>
    <path d="M36.7876 42.8919L37.1016 42.4436L36.5709 42.072L36.257 42.5203L36.7876 42.8919Z" fill="#D2D5DA"/>
    <path d="M37.4692 41.9178L37.5781 41.7622L37.0474 41.3906L36.9385 41.5462L37.4692 41.9178Z" fill="#D2D5DA"/>
    <path d="M36.0027 41.6748L36.3711 41.1487L35.8404 40.7771L35.472 41.3032L36.0027 41.6748Z" fill="#14316B"/>
    <path d="M35.69 42.1234L36.0039 41.675L35.4732 41.3035L35.1593 41.7518L35.69 42.1234Z" fill="#D2D5DA"/>
    <path d="M36.3715 41.1492L36.4805 40.9937L35.9498 40.6221L35.8409 40.7776L36.3715 41.1492Z" fill="#D2D5DA"/>
    <path d="M35.3169 45.4493C35.45 45.3857 35.5699 45.2924 35.6596 45.1643C35.7493 45.0362 35.796 44.8916 35.8102 44.7447L34.9551 44.671L35.3169 45.4493Z" fill="#1A3B91"/>
    <path d="M34.4607 45.3754C34.7215 45.558 35.0496 45.5763 35.3158 45.4492L34.954 44.6709L34.4607 45.3754Z" fill="#D5754D"/>
    <path d="M34.0941 44.5939C34.0703 44.8909 34.1952 45.1896 34.4559 45.3722L34.9492 44.6677L34.0941 44.5939Z" fill="#1A3B91"/>
    <path d="M35.81 44.7446C35.8338 44.4477 35.709 44.1489 35.4482 43.9663L34.9549 44.6708L35.81 44.7446Z" fill="#D5754D"/>
    <path d="M35.4473 43.9666C35.1865 43.784 34.8585 43.7656 34.5922 43.8928L34.954 44.6711L35.4473 43.9666Z" fill="#1A3B91"/>
    <path d="M34.0955 44.5939L34.9506 44.6677L34.5888 43.8894C34.4557 43.953 34.3358 44.0463 34.2461 44.1744C34.161 44.3057 34.1097 44.447 34.0955 44.5939Z" fill="#D5754D"/>
    <path d="M39.1098 47.0542C39.243 46.9907 39.3629 46.8973 39.4526 46.7692C39.5423 46.6412 39.5889 46.4966 39.6032 46.3497L38.748 46.2759L39.1098 47.0542Z" fill="#1A3B91"/>
    <path d="M38.2537 46.9804C38.5145 47.163 38.8425 47.1813 39.1088 47.0542L38.747 46.2759L38.2537 46.9804Z" fill="#D5754D"/>
    <path d="M37.8871 46.1989C37.8633 46.4958 37.9881 46.7946 38.2489 46.9772L38.7422 46.2727L37.8871 46.1989Z" fill="#1A3B91"/>
    <path d="M39.6029 46.3498C39.6268 46.0529 39.5019 45.7541 39.2412 45.5715L38.7478 46.276L39.6029 46.3498Z" fill="#D5754D"/>
    <path d="M39.2402 45.5715C38.9795 45.3889 38.6514 45.3706 38.3851 45.4978L38.7469 46.2761L39.2402 45.5715Z" fill="#1A3B91"/>
    <path d="M37.8885 46.1986L38.7436 46.2724L38.3818 45.4941C38.2486 45.5577 38.1288 45.651 38.0391 45.7791C37.9539 45.9104 37.9027 46.0518 37.8885 46.1986Z" fill="#D5754D"/>
    <path d="M33.3383 41.9451C33.4715 41.8815 33.5914 41.7882 33.6811 41.6601C33.7708 41.532 33.8175 41.3875 33.8317 41.2406L32.9766 41.1668L33.3383 41.9451Z" fill="#1A3B91"/>
    <path d="M32.4783 41.8678C32.7391 42.0504 33.0671 42.0688 33.3334 41.9416L32.9716 41.1633L32.4783 41.8678Z" fill="#D5754D"/>
    <path d="M32.1175 41.0896C32.0937 41.3865 32.2186 41.6853 32.4793 41.8679L32.9727 41.1633L32.1175 41.0896Z" fill="#1A3B91"/>
    <path d="M33.8295 41.2448C33.8533 40.9479 33.7285 40.6491 33.4677 40.4665L32.9744 41.1711L33.8295 41.2448Z" fill="#D5754D"/>
    <path d="M33.4629 40.4634C33.2021 40.2808 32.8741 40.2625 32.6078 40.3896L32.9696 41.1679L33.4629 40.4634Z" fill="#1A3B91"/>
    <path d="M32.117 41.0895L32.9721 41.1633L32.6103 40.385C32.4772 40.4486 32.3573 40.5419 32.2676 40.67C32.1747 40.8026 32.128 40.9472 32.117 41.0895Z" fill="#D5754D"/>
    <path d="M54.6492 54.7329L55.0176 54.2068L54.4869 53.8352L54.1185 54.3613L54.6492 54.7329Z" fill="#14316B"/>
    <path d="M54.3365 55.181L54.6504 54.7327L54.1197 54.3611L53.8058 54.8094L54.3365 55.181Z" fill="#D2D5DA"/>
    <path d="M55.018 54.2066L55.127 54.051L54.5963 53.6794L54.4874 53.835L55.018 54.2066Z" fill="#D2D5DA"/>
    <path d="M53.5476 53.9609L53.916 53.4348L53.3853 53.0632L53.017 53.5893L53.5476 53.9609Z" fill="#14316B"/>
    <path d="M53.2349 54.4095L53.5488 53.9612L53.0181 53.5896L52.7042 54.0379L53.2349 54.4095Z" fill="#D2D5DA"/>
    <path d="M53.9165 53.4349L54.0254 53.2793L53.4947 52.9077L53.3858 53.0633L53.9165 53.4349Z" fill="#D2D5DA"/>
    <path d="M52.448 53.1919L52.8164 52.6658L52.2857 52.2942L51.9173 52.8203L52.448 53.1919Z" fill="#14316B"/>
    <path d="M52.1353 53.6402L52.4492 53.1919L51.9185 52.8203L51.6046 53.2686L52.1353 53.6402Z" fill="#D2D5DA"/>
    <path d="M52.8169 52.6658L52.9258 52.5103L52.3951 52.1387L52.2862 52.2942L52.8169 52.6658Z" fill="#D2D5DA"/>
    <path d="M51.3504 52.4236L51.7188 51.8975L51.1881 51.5259L50.8197 52.052L51.3504 52.4236Z" fill="#14316B"/>
    <path d="M51.0376 52.8717L51.3516 52.4233L50.8209 52.0518L50.507 52.5001L51.0376 52.8717Z" fill="#D2D5DA"/>
    <path d="M51.7192 51.8973L51.8281 51.7417L51.2975 51.3701L51.1885 51.5257L51.7192 51.8973Z" fill="#D2D5DA"/>
    <path d="M50.6645 56.1973C50.7977 56.1337 50.9176 56.0404 51.0072 55.9123C51.0969 55.7842 51.1436 55.6397 51.1578 55.4928L50.3027 55.419L50.6645 56.1973Z" fill="#1A3B91"/>
    <path d="M49.8084 56.1237C50.0692 56.3063 50.3972 56.3246 50.6635 56.1975L50.3017 55.4192L49.8084 56.1237Z" fill="#D5754D"/>
    <path d="M49.4418 55.3422C49.4179 55.6392 49.5428 55.9379 49.8036 56.1205L50.2969 55.416L49.4418 55.3422Z" fill="#1A3B91"/>
    <path d="M51.1576 55.4929C51.1815 55.1959 51.0566 54.8972 50.7958 54.7146L50.3025 55.4191L51.1576 55.4929Z" fill="#D5754D"/>
    <path d="M50.7949 54.7144C50.5342 54.5318 50.2061 54.5134 49.9398 54.6406L50.3016 55.4189L50.7949 54.7144Z" fill="#1A3B91"/>
    <path d="M49.4432 55.342L50.2983 55.4157L49.9365 54.6374C49.8033 54.701 49.6834 54.7943 49.5937 54.9224C49.5086 55.0537 49.4574 55.1951 49.4432 55.342Z" fill="#D5754D"/>
    <path d="M54.4575 57.8023C54.5906 57.7387 54.7105 57.6454 54.8002 57.5173C54.8899 57.3892 54.9366 57.2446 54.9508 57.0978L54.0957 57.024L54.4575 57.8023Z" fill="#1A3B91"/>
    <path d="M53.6014 57.7287C53.8621 57.9113 54.1902 57.9296 54.4565 57.8025L54.0947 57.0242L53.6014 57.7287Z" fill="#D5754D"/>
    <path d="M53.2347 56.9472C53.2109 57.2441 53.3358 57.5429 53.5965 57.7255L54.0898 57.021L53.2347 56.9472Z" fill="#1A3B91"/>
    <path d="M54.9506 57.0981C54.979 56.8044 54.8496 56.5024 54.5888 56.3198L54.0955 57.0243L54.9506 57.0981Z" fill="#D5754D"/>
    <path d="M54.5879 56.3196C54.3271 56.137 53.9991 56.1187 53.7328 56.2458L54.0946 57.0241L54.5879 56.3196Z" fill="#1A3B91"/>
    <path d="M53.2361 56.9469L54.0912 57.0207L53.7294 56.2424C53.5963 56.306 53.4764 56.3993 53.3867 56.5274C53.3016 56.6587 53.2503 56.8001 53.2361 56.9469Z" fill="#D5754D"/>
    <path d="M48.6821 52.6888C48.8152 52.6252 48.9351 52.5319 49.0248 52.4038C49.1145 52.2757 49.1612 52.1311 49.1754 51.9842L48.3203 51.9105L48.6821 52.6888Z" fill="#1A3B91"/>
    <path d="M47.8279 52.6152C48.0887 52.7977 48.4167 52.8161 48.683 52.6889L48.3212 51.9106L47.8279 52.6152Z" fill="#D5754D"/>
    <path d="M47.4652 51.8366C47.4414 52.1336 47.5662 52.4323 47.827 52.6149L48.3203 51.9104L47.4652 51.8366Z" fill="#1A3B91"/>
    <path d="M49.1733 51.9887C49.1971 51.6918 49.0722 51.393 48.8115 51.2104L48.3182 51.915L49.1733 51.9887Z" fill="#D5754D"/>
    <path d="M48.8105 51.2107C48.5498 51.0281 48.2217 51.0098 47.9554 51.1369L48.3172 51.9152L48.8105 51.2107Z" fill="#1A3B91"/>
    <path d="M47.4666 51.8368L48.3217 51.9106L47.9599 51.1323C47.8268 51.1959 47.7069 51.2892 47.6172 51.4173C47.5243 51.55 47.4776 51.6945 47.4666 51.8368Z" fill="#D5754D"/>
    <path d="M57.6765 42.1328L58.0449 41.6067L57.5142 41.2351L57.1459 41.7612L57.6765 42.1328Z" fill="#14316B"/>
    <path d="M58.0455 41.6065L58.3594 41.1582L57.8287 40.7866L57.5148 41.2349L58.0455 41.6065Z" fill="#D2D5DA"/>
    <path d="M57.572 42.284L57.6777 42.1331L57.1471 41.7615L57.0413 41.9124L57.572 42.284Z" fill="#D2D5DA"/>
    <path d="M58.7742 42.9016L59.1426 42.3755L58.6119 42.0039L58.2435 42.53L58.7742 42.9016Z" fill="#14316B"/>
    <path d="M59.1431 42.3753L59.457 41.927L58.9264 41.5554L58.6124 42.0037L59.1431 42.3753Z" fill="#D2D5DA"/>
    <path d="M58.6697 43.0523L58.7754 42.9014L58.2447 42.5298L58.139 42.6807L58.6697 43.0523Z" fill="#D2D5DA"/>
    <path d="M59.8777 43.6731L60.2461 43.147L59.7154 42.7754L59.347 43.3015L59.8777 43.6731Z" fill="#14316B"/>
    <path d="M60.2466 43.1473L60.5605 42.699L60.0299 42.3274L59.7159 42.7757L60.2466 43.1473Z" fill="#D2D5DA"/>
    <path d="M59.7732 43.8243L59.8789 43.6733L59.3482 43.3018L59.2425 43.4527L59.7732 43.8243Z" fill="#D2D5DA"/>
    <path d="M60.9754 44.4419L61.3438 43.9158L60.8131 43.5442L60.4447 44.0703L60.9754 44.4419Z" fill="#14316B"/>
    <path d="M61.3443 43.9156L61.6582 43.4673L61.1275 43.0957L60.8136 43.544L61.3443 43.9156Z" fill="#D2D5DA"/>
    <path d="M60.8709 44.5931L60.9766 44.4421L60.4459 44.0706L60.3402 44.2215L60.8709 44.5931Z" fill="#D2D5DA"/>
    <path d="M61.4951 39.7756C61.3651 39.8346 61.242 39.9325 61.1523 40.0606C61.0627 40.1887 61.016 40.3333 61.0018 40.4801L61.8569 40.5539L61.4951 39.7756Z" fill="#1A3B91"/>
    <path d="M62.3496 39.8494C62.0888 39.6668 61.7608 39.6484 61.4945 39.7756L61.8563 40.5539L62.3496 39.8494Z" fill="#D5754D"/>
    <path d="M62.7123 40.6279C62.7362 40.331 62.6113 40.0322 62.3505 39.8496L61.8572 40.5541L62.7123 40.6279Z" fill="#1A3B91"/>
    <path d="M61.0043 40.4758C60.9804 40.7727 61.1053 41.0715 61.3661 41.2541L61.8594 40.5496L61.0043 40.4758Z" fill="#D5754D"/>
    <path d="M61.367 41.2538C61.6278 41.4364 61.9558 41.4548 62.2221 41.3276L61.8603 40.5493L61.367 41.2538Z" fill="#1A3B91"/>
    <path d="M62.7125 40.6276L61.8574 40.5538L62.2192 41.3321C62.3524 41.2685 62.4722 41.1752 62.5619 41.0471C62.6548 40.9144 62.7015 40.7698 62.7125 40.6276Z" fill="#D5754D"/>
    <path d="M57.706 38.1658C57.5729 38.2293 57.453 38.3226 57.3633 38.4507C57.2736 38.5788 57.2269 38.7234 57.2127 38.8703L58.0678 38.9441L57.706 38.1658Z" fill="#1A3B91"/>
    <path d="M58.5605 38.2395C58.2998 38.0569 57.9717 38.0386 57.7054 38.1657L58.0672 38.944L58.5605 38.2395Z" fill="#D5754D"/>
    <path d="M58.9233 39.018C58.9471 38.7211 58.8222 38.4223 58.5615 38.2397L58.0682 38.9442L58.9233 39.018Z" fill="#1A3B91"/>
    <path d="M57.2132 38.8703C57.1894 39.1673 57.3143 39.466 57.575 39.6486L58.0684 38.9441L57.2132 38.8703Z" fill="#D5754D"/>
    <path d="M57.574 39.6486C57.8348 39.8312 58.1628 39.8495 58.4291 39.7224L58.0673 38.9441L57.574 39.6486Z" fill="#1A3B91"/>
    <path d="M58.9235 39.0177L58.0684 38.9439L58.4302 39.7222C58.5633 39.6586 58.6832 39.5653 58.7729 39.4372C58.8626 39.3091 58.9093 39.1646 58.9235 39.0177Z" fill="#D5754D"/>
    <path d="M63.4775 43.2756C63.3443 43.3392 63.2245 43.4325 63.1348 43.5606C63.0451 43.6887 62.9984 43.8333 62.9842 43.9801L63.8393 44.0539L63.4775 43.2756Z" fill="#1A3B91"/>
    <path d="M64.332 43.3494C64.0713 43.1668 63.7432 43.1484 63.4769 43.2756L63.8387 44.0539L64.332 43.3494Z" fill="#D5754D"/>
    <path d="M64.6987 44.1311C64.7225 43.8341 64.5976 43.5354 64.3369 43.3528L63.8435 44.0573L64.6987 44.1311Z" fill="#1A3B91"/>
    <path d="M62.9867 43.9758C62.9629 44.2727 63.0877 44.5715 63.3485 44.7541L63.8418 44.0496L62.9867 43.9758Z" fill="#D5754D"/>
    <path d="M63.3475 44.7541C63.6082 44.9367 63.9363 44.955 64.2026 44.8279L63.8408 44.0495L63.3475 44.7541Z" fill="#1A3B91"/>
    <path d="M64.6989 44.131L63.8438 44.0572L64.2056 44.8355C64.3387 44.7719 64.4586 44.6786 64.5483 44.5505C64.6334 44.4192 64.6879 44.2733 64.6989 44.131Z" fill="#D5754D"/>
    <path d="M70.7307 58.2406C68.8823 60.8803 65.2422 61.5222 62.6025 59.6738C59.9629 57.8255 59.321 54.1854 61.1693 51.5457C63.0176 48.906 66.6578 48.2642 69.2975 50.1125C71.9371 51.9608 72.579 55.601 70.7307 58.2406Z" fill="#1A3B91"/>
    <path d="M60.9398 51.3856C62.8746 48.6224 66.6936 47.949 69.4568 49.8838L69.6855 50.0439L62.6703 60.0628L62.4415 59.9026C59.6829 57.971 59.0049 54.1488 60.9398 51.3856ZM68.9045 50.1857C66.4195 48.6229 63.1014 49.2721 61.3972 51.7059C59.6931 54.1397 60.2165 57.4719 62.5395 59.2758L68.9045 50.1857Z" fill="#D5754D"/>
    <path d="M72.2649 49.6139L72.502 49.2754L71.5412 48.6027L71.3042 48.9412L72.2649 49.6139Z" fill="#4F91D3"/>
    <path d="M74.6946 51.3148L74.9316 50.9763L73.9709 50.3036L73.7339 50.6422L74.6946 51.3148Z" fill="#4F91D3"/>
    <path d="M77.1184 53.0128L77.3555 52.6743L76.3948 52.0016L76.1577 52.3401L77.1184 53.0128Z" fill="#4F91D3"/>
    <path d="M79.5442 54.7104L79.7812 54.3718L78.8205 53.6991L78.5835 54.0377L79.5442 54.7104Z" fill="#4F91D3"/>
    <path d="M81.9739 56.4115L82.2109 56.073L81.2548 55.4035L81.0178 55.742L81.9739 56.4115Z" fill="#4F91D3"/>
    <path d="M84.3977 58.109L84.6348 57.7705L83.6741 57.0978L83.437 57.4363L84.3977 58.109Z" fill="#4F91D3"/>
    <path d="M73.1868 48.2961L73.4238 47.9575L72.4631 47.2848L72.2261 47.6234L73.1868 48.2961Z" fill="#4F91D3"/>
    <path d="M75.6165 49.997L75.8535 49.6584L74.8928 48.9857L74.6558 49.3243L75.6165 49.997Z" fill="#4F91D3"/>
    <path d="M78.0403 51.695L78.2773 51.3564L77.3166 50.6837L77.0796 51.0223L78.0403 51.695Z" fill="#4F91D3"/>
    <path d="M80.4661 53.3925L80.7031 53.054L79.7424 52.3813L79.5054 52.7198L80.4661 53.3925Z" fill="#4F91D3"/>
    <path d="M82.8958 55.0937L83.1328 54.7551L82.1767 54.0856L81.9396 54.4242L82.8958 55.0937Z" fill="#4F91D3"/>
    <path d="M85.3196 56.7914L85.5566 56.4529L84.5959 55.7802L84.3589 56.1187L85.3196 56.7914Z" fill="#4F91D3"/>
    <path d="M74.1126 46.9743L74.3496 46.6357L73.3889 45.963L73.1518 46.3016L74.1126 46.9743Z" fill="#4F91D3"/>
    <path d="M76.5422 48.6752L76.7793 48.3367L75.8186 47.664L75.5815 48.0025L76.5422 48.6752Z" fill="#4F91D3"/>
    <path d="M78.9661 50.373L79.2031 50.0344L78.2424 49.3617L78.0054 49.7003L78.9661 50.373Z" fill="#4F91D3"/>
    <path d="M81.3919 52.0705L81.6289 51.7319L80.6682 51.0592L80.4311 51.3978L81.3919 52.0705Z" fill="#4F91D3"/>
    <path d="M83.8215 53.7717L84.0586 53.4331L83.1025 52.7636L82.8654 53.1022L83.8215 53.7717Z" fill="#4F91D3"/>
    <path d="M86.2454 55.4692L86.4824 55.1306L85.5217 54.4579L85.2847 54.7965L86.2454 55.4692Z" fill="#4F91D3"/>
    <path d="M61.0618 65.6117L61.2988 65.2732L60.3381 64.6005L60.1011 64.939L61.0618 65.6117Z" fill="#4F91D3"/>
    <path d="M63.4915 67.3127L63.7285 66.9741L62.7678 66.3014L62.5308 66.64L63.4915 67.3127Z" fill="#4F91D3"/>
    <path d="M65.9153 69.0107L66.1523 68.6721L65.1916 67.9994L64.9546 68.338L65.9153 69.0107Z" fill="#4F91D3"/>
    <path d="M68.3411 70.7082L68.5781 70.3696L67.6174 69.6969L67.3804 70.0355L68.3411 70.7082Z" fill="#4F91D3"/>
    <path d="M70.7708 72.4093L71.0078 72.0708L70.0517 71.4013L69.8146 71.7398L70.7708 72.4093Z" fill="#4F91D3"/>
    <path d="M73.1946 74.1068L73.4316 73.7683L72.4709 73.0956L72.2339 73.4341L73.1946 74.1068Z" fill="#4F91D3"/>
    <path d="M61.9876 64.2895L62.2246 63.9509L61.2639 63.2782L61.0269 63.6168L61.9876 64.2895Z" fill="#4F91D3"/>
    <path d="M64.4173 65.9906L64.6543 65.6521L63.6936 64.9794L63.4565 65.3179L64.4173 65.9906Z" fill="#4F91D3"/>
    <path d="M66.8411 67.6881L67.0781 67.3496L66.1174 66.6769L65.8804 67.0154L66.8411 67.6881Z" fill="#4F91D3"/>
    <path d="M69.2669 69.3861L69.5039 69.0476L68.5432 68.3749L68.3062 68.7134L69.2669 69.3861Z" fill="#4F91D3"/>
    <path d="M71.6966 71.0868L71.9336 70.7483L70.9775 70.0788L70.7404 70.4173L71.6966 71.0868Z" fill="#4F91D3"/>
    <path d="M74.1204 72.7848L74.3574 72.4463L73.3967 71.7736L73.1597 72.1121L74.1204 72.7848Z" fill="#4F91D3"/>
    <path d="M62.9075 62.9767L63.1445 62.6382L62.1838 61.9655L61.9468 62.304L62.9075 62.9767Z" fill="#4F91D3"/>
    <path d="M65.3372 64.6774L65.5742 64.3389L64.6135 63.6662L64.3765 64.0047L65.3372 64.6774Z" fill="#4F91D3"/>
    <path d="M67.761 66.3754L67.998 66.0369L67.0373 65.3642L66.8003 65.7027L67.761 66.3754Z" fill="#4F91D3"/>
    <path d="M70.1868 68.0729L70.4238 67.7344L69.4631 67.0617L69.2261 67.4002L70.1868 68.0729Z" fill="#4F91D3"/>
    <path d="M72.6165 69.7741L72.8535 69.4355L71.8974 68.7661L71.6603 69.1046L72.6165 69.7741Z" fill="#4F91D3"/>
    <path d="M75.0403 71.4718L75.2773 71.1333L74.3166 70.4606L74.0796 70.7991L75.0403 71.4718Z" fill="#4F91D3"/>
    <path d="M69.363 53.566L70.5098 51.9282L69.8235 51.4477L68.6768 53.0855L69.363 53.566Z" fill="black"/>
    <path d="M70.3356 54.2484L71.4824 52.6106L70.7962 52.1301L69.6494 53.7679L70.3356 54.2484Z" fill="black"/>
    <path d="M71.3102 54.9307L72.457 53.293L71.7708 52.8125L70.624 54.4502L71.3102 54.9307Z" fill="black"/>
    <path d="M72.2849 55.6129L73.4316 53.9751L72.7454 53.4946L71.5986 55.1324L72.2849 55.6129Z" fill="black"/>
    <path d="M73.2595 56.2952L74.4062 54.6575L73.7155 54.1738L72.5687 55.8115L73.2595 56.2952Z" fill="black"/>
    <path d="M74.2341 56.9774L75.3809 55.3396L74.6901 54.8559L73.5433 56.4937L74.2341 56.9774Z" fill="black"/>
    <path d="M68.0551 55.4326L69.2051 53.7903L68.5189 53.3098L67.3689 54.9521L68.0551 55.4326Z" fill="black"/>
    <path d="M69.0297 56.1148L70.1797 54.4724L69.4935 53.9919L68.3435 55.6343L69.0297 56.1148Z" fill="black"/>
    <path d="M70.0043 56.7971L71.1543 55.1548L70.4681 54.6743L69.3181 56.3166L70.0043 56.7971Z" fill="black"/>
    <path d="M70.9789 57.4795L72.1289 55.8372L71.4427 55.3567L70.2927 56.999L70.9789 57.4795Z" fill="black"/>
    <path d="M71.9535 58.1619L73.1035 56.5195L72.4127 56.0358L71.2627 57.6782L71.9535 58.1619Z" fill="black"/>
    <path d="M72.9281 58.844L74.0781 57.2017L73.3873 56.718L72.2373 58.3603L72.9281 58.844Z" fill="black"/>
    <path d="M76.7126 58.7137L77.8594 57.0759L77.1732 56.5954L76.0264 58.2332L76.7126 58.7137Z" fill="black"/>
    <path d="M77.6872 59.3963L78.834 57.7585L78.1478 57.278L77.001 58.9158L77.6872 59.3963Z" fill="black"/>
    <path d="M78.6618 60.0782L79.8086 58.4404L79.1224 57.9599L77.9756 59.5977L78.6618 60.0782Z" fill="black"/>
    <path d="M79.6364 60.7606L80.7832 59.1228L80.097 58.6423L78.9502 60.2801L79.6364 60.7606Z" fill="black"/>
    <path d="M80.611 61.443L81.7578 59.8052L81.067 59.3215L79.9202 60.9593L80.611 61.443Z" fill="black"/>
    <path d="M81.5856 62.1251L82.7324 60.4873L82.0416 60.0036L80.8948 61.6414L81.5856 62.1251Z" fill="black"/>
    <path d="M75.4067 60.5801L76.5566 58.9377L75.8704 58.4572L74.7204 60.0996L75.4067 60.5801Z" fill="black"/>
    <path d="M76.3813 61.2627L77.5312 59.6204L76.845 59.1399L75.695 60.7822L76.3813 61.2627Z" fill="black"/>
    <path d="M77.3559 61.9448L78.5059 60.3025L77.8196 59.822L76.6696 61.4643L77.3559 61.9448Z" fill="black"/>
    <path d="M78.3305 62.627L79.4805 60.9846L78.7942 60.5041L77.6443 62.1465L78.3305 62.627Z" fill="black"/>
    <path d="M79.3051 63.3093L80.4551 61.667L79.7643 61.1833L78.6143 62.8256L79.3051 63.3093Z" fill="black"/>
    <path d="M80.2797 63.9917L81.4297 62.3494L80.7389 61.8657L79.5889 63.508L80.2797 63.9917Z" fill="black"/>
    <path d="M66.031 58.3238L67.1777 56.686L66.4915 56.2055L65.3447 57.8433L66.031 58.3238Z" fill="black"/>
    <path d="M67.0036 59.0064L68.1504 57.3687L67.4642 56.8882L66.3174 58.5259L67.0036 59.0064Z" fill="black"/>
    <path d="M67.9782 59.6886L69.125 58.0508L68.4388 57.5703L67.292 59.2081L67.9782 59.6886Z" fill="black"/>
    <path d="M68.9528 60.3712L70.0996 58.7334L69.4134 58.2529L68.2666 59.8907L68.9528 60.3712Z" fill="black"/>
    <path d="M69.9274 61.0531L71.0742 59.4153L70.3834 58.9316L69.2366 60.5694L69.9274 61.0531Z" fill="black"/>
    <path d="M70.902 61.7352L72.0488 60.0974L71.358 59.6137L70.2113 61.2515L70.902 61.7352Z" fill="black"/>
    <path d="M64.7192 60.1946L65.8691 58.5522L65.1829 58.0717L64.0329 59.7141L64.7192 60.1946Z" fill="black"/>
    <path d="M65.6938 60.877L66.8438 59.2346L66.1575 58.7541L65.0075 60.3965L65.6938 60.877Z" fill="black"/>
    <path d="M66.6684 61.5591L67.8184 59.9167L67.1321 59.4363L65.9821 61.0786L66.6684 61.5591Z" fill="black"/>
    <path d="M67.643 62.2415L68.793 60.5991L68.1067 60.1186L66.9568 61.761L67.643 62.2415Z" fill="black"/>
    <path d="M68.6176 62.9238L69.7676 61.2815L69.0768 60.7978L67.9268 62.4401L68.6176 62.9238Z" fill="black"/>
    <path d="M69.5922 63.6062L70.7422 61.9639L70.0514 61.4802L68.9014 63.1225L69.5922 63.6062Z" fill="black"/>
    <path d="M73.3806 63.4718L74.5273 61.834L73.8411 61.3535L72.6943 62.9913L73.3806 63.4718Z" fill="black"/>
    <path d="M74.3552 64.1541L75.502 62.5164L74.8157 62.0359L73.6689 63.6736L74.3552 64.1541Z" fill="black"/>
    <path d="M75.3298 64.836L76.4766 63.1982L75.7903 62.7177L74.6436 64.3555L75.3298 64.836Z" fill="black"/>
    <path d="M76.3044 65.5186L77.4512 63.8809L76.765 63.4004L75.6182 65.0381L76.3044 65.5186Z" fill="black"/>
    <path d="M77.279 66.2008L78.4258 64.563L77.735 64.0793L76.5882 65.7171L77.279 66.2008Z" fill="black"/>
    <path d="M78.2536 66.8834L79.4004 65.2456L78.7096 64.7619L77.5628 66.3997L78.2536 66.8834Z" fill="black"/>
    <path d="M72.0707 65.3428L73.2207 63.7004L72.5345 63.2199L71.3845 64.8623L72.0707 65.3428Z" fill="black"/>
    <path d="M73.0453 66.0252L74.1953 64.3828L73.5091 63.9023L72.3591 65.5447L73.0453 66.0252Z" fill="black"/>
    <path d="M74.0199 66.7073L75.1699 65.0649L74.4837 64.5844L73.3337 66.2268L74.0199 66.7073Z" fill="black"/>
    <path d="M74.9945 67.3897L76.1445 65.7473L75.4583 65.2668L74.3083 66.9092L74.9945 67.3897Z" fill="black"/>
    <path d="M75.9692 68.072L77.1191 66.4297L76.4283 65.946L75.2784 67.5883L75.9692 68.072Z" fill="black"/>
    <path d="M76.9438 68.7542L78.0938 67.1118L77.4029 66.6281L76.253 68.2705L76.9438 68.7542Z" fill="black"/>
    <path d="M34.3667 26.3015L36.5098 23.241L25.9191 15.8253L23.7761 18.8858L34.3667 26.3015Z" fill="#1A3B91"/>
    <path d="M26.1382 38.054L28.2812 34.9934L17.6906 27.5777L15.5475 30.6383L26.1382 38.054Z" fill="#1A3B91"/>
    <path d="M30.4097 23.5303L32.5527 20.4697L25.9193 15.8249L23.7762 18.8855L30.4097 23.5303Z" fill="#B55939"/>
    <path d="M22.1812 35.2832L24.3242 32.2227L17.6907 27.5778L15.5477 30.6384L22.1812 35.2832Z" fill="#B55939"/>
    <path d="M30.2904 23.0104L32.0234 20.5354L25.9435 16.2782L24.2105 18.7532L30.2904 23.0104Z" fill="black"/>
    <path d="M22.0619 34.7628L23.7949 32.2878L17.715 28.0306L15.982 30.5056L22.0619 34.7628Z" fill="black"/>
    <path d="M94.8644 68.3689C94.0956 69.4669 92.5788 69.7343 91.4809 68.9655C90.3829 68.1967 90.1155 66.68 90.8843 65.5821C91.6531 64.4841 93.1698 64.2167 94.2678 64.9855C95.3703 65.7575 95.6332 67.271 94.8644 68.3689Z" fill="#1A3B91"/>
    <path d="M88.503 77.4546C87.7342 78.5526 86.2175 78.82 85.1196 78.0512C84.0216 77.2825 83.7542 75.7657 84.523 74.6678C85.2918 73.5698 86.8085 73.3024 87.9064 74.0712C89.009 74.8432 89.2718 76.3567 88.503 77.4546Z" fill="#1A3B91"/>
    <path d="M92.2919 67.816L93.3906 66.2468L85.984 61.0607L84.8853 62.6298L92.2919 67.816Z" fill="#1A3B91"/>
    <path d="M86.0028 76.7962L87.1016 75.2271L79.6949 70.0409L78.5962 71.6101L86.0028 76.7962Z" fill="#1A3B91"/>
    <path d="M113.729 79.0217L114.177 79.3356L114.549 78.8049L114.1 78.491L113.574 78.1226L113.423 78.0169L113.052 78.5476L113.203 78.6533L113.729 79.0217Z" fill="#14316B"/>
    <path d="M112.957 80.1242L113.406 80.4382L113.777 79.9075L113.329 79.5935L112.803 79.2252L112.652 79.1195L112.28 79.6501L112.431 79.7558L112.957 80.1242Z" fill="#14316B"/>
    <path d="M112.188 81.2219L112.636 81.5358L113.008 81.0051L112.559 80.6912L112.033 80.3228L111.882 80.2171L111.511 80.7478L111.662 80.8535L112.188 81.2219Z" fill="#14316B"/>
    <path d="M111.418 82.3198L111.867 82.6337L112.238 82.103L111.79 81.7891L111.264 81.4207L111.113 81.315L110.741 81.8457L110.892 81.9514L111.418 82.3198Z" fill="#14316B"/>
    <path d="M114.579 82.0717C114.282 82.0478 113.983 82.1727 113.801 82.4335C113.618 82.6942 113.6 83.0223 113.727 83.2886C113.791 83.4217 113.884 83.5416 114.012 83.6313C114.14 83.721 114.281 83.7723 114.432 83.7819C114.728 83.8057 115.027 83.6809 115.21 83.4201C115.392 83.1593 115.408 82.8359 115.284 82.565C115.22 82.4318 115.127 82.312 114.999 82.2223C114.867 82.1371 114.721 82.0827 114.579 82.0717Z" fill="#14316B"/>
    <path d="M115.329 79.5012C115.392 79.6344 115.485 79.7543 115.614 79.844C115.742 79.9337 115.886 79.9803 116.033 79.9945C116.33 80.0184 116.629 79.8935 116.811 79.6327C116.994 79.372 117.012 79.0439 116.885 78.7776C116.822 78.6445 116.728 78.5246 116.6 78.4349C116.472 78.3452 116.327 78.2985 116.181 78.2843C115.884 78.2605 115.585 78.3854 115.402 78.6461C115.223 78.9023 115.205 79.2304 115.329 79.5012Z" fill="#14316B"/>
    <path d="M110.223 85.2734C110.287 85.4066 110.38 85.5265 110.508 85.6162C110.636 85.7059 110.781 85.7525 110.928 85.7668C111.225 85.7906 111.523 85.6657 111.706 85.4049C111.889 85.1442 111.907 84.8161 111.78 84.5498C111.716 84.4167 111.623 84.2968 111.495 84.2071C111.367 84.1174 111.222 84.0707 111.075 84.0565C110.778 84.0327 110.479 84.1576 110.297 84.4183C110.114 84.6791 110.099 85.0026 110.223 85.2734Z" fill="#14316B"/>
    <path d="M107.899 87.3474L108.347 87.6613L108.719 87.1306L108.27 86.8167L107.744 86.4483L107.593 86.3426L107.222 86.8733L107.373 86.979L107.899 87.3474Z" fill="#14316B"/>
    <path d="M107.126 88.4501L107.574 88.764L107.949 88.2288L107.501 87.9148L106.975 87.5465L106.824 87.4407L106.449 87.976L106.6 88.0817L107.126 88.4501Z" fill="#14316B"/>
    <path d="M106.358 89.5481L106.806 89.862L107.178 89.3313L106.729 89.0174L106.203 88.649L106.052 88.5433L105.681 89.074L105.832 89.1797L106.358 89.5481Z" fill="#14316B"/>
    <path d="M106.408 90.4292L105.96 90.1153L105.434 89.7469L105.283 89.6412L104.911 90.1719L105.062 90.2776L105.588 90.646L106.037 90.9599L106.408 90.4292Z" fill="#14316B"/>
    <path d="M109.454 90.8907C109.39 90.7575 109.297 90.6376 109.169 90.5479C109.04 90.4583 108.896 90.4116 108.749 90.3974C108.452 90.3735 108.153 90.4984 107.971 90.7591C107.788 91.0199 107.77 91.348 107.897 91.6143C107.96 91.7474 108.054 91.8673 108.182 91.957C108.31 92.0467 108.455 92.0934 108.601 92.1076C108.898 92.1314 109.197 92.0065 109.38 91.7458C109.562 91.485 109.577 91.1615 109.454 90.8907Z" fill="#14316B"/>
    <path d="M110.774 86.7562C110.646 86.6665 110.501 86.6198 110.354 86.6056C110.058 86.5818 109.759 86.7067 109.576 86.9674C109.394 87.2282 109.375 87.5562 109.502 87.8225C109.566 87.9557 109.659 88.0756 109.787 88.1652C109.915 88.2549 110.06 88.3016 110.207 88.3158C110.504 88.3397 110.803 88.2148 110.985 87.954C111.168 87.6933 111.186 87.3652 111.059 87.0989C110.995 86.9658 110.902 86.8459 110.774 86.7562Z" fill="#14316B"/>
    <path d="M105.954 92.8714C105.89 92.7382 105.797 92.6184 105.669 92.5287C105.54 92.439 105.396 92.3923 105.249 92.3781C104.952 92.3542 104.653 92.4791 104.471 92.7399C104.288 93.0006 104.27 93.3287 104.397 93.595C104.46 93.7281 104.554 93.848 104.682 93.9377C104.81 94.0274 104.955 94.0741 105.101 94.0883C105.398 94.1121 105.697 93.9872 105.88 93.7265C106.059 93.4703 106.077 93.1423 105.954 92.8714Z" fill="#14316B"/>
    <path d="M113.746 79.3195L114.117 78.7888L113.591 78.4204L113.219 78.9511L113.746 79.3195Z" fill="#14316B"/>
    <path d="M114.189 79.6303L114.561 79.0996L114.112 78.7857L113.741 79.3164L114.189 79.6303Z" fill="#D2D5DA"/>
    <path d="M113.214 78.9479L113.586 78.4172L113.43 78.3083L113.059 78.839L113.214 78.9479Z" fill="#D2D5DA"/>
    <path d="M112.974 80.422L113.346 79.8914L112.82 79.523L112.448 80.0537L112.974 80.422Z" fill="#14316B"/>
    <path d="M113.417 80.7328L113.789 80.2021L113.341 79.8882L112.969 80.4189L113.417 80.7328Z" fill="#D2D5DA"/>
    <path d="M112.443 80.0505L112.814 79.5198L112.659 79.4109L112.287 79.9415L112.443 80.0505Z" fill="#D2D5DA"/>
    <path d="M112.205 81.5199L112.576 80.9893L112.05 80.6209L111.678 81.1516L112.205 81.5199Z" fill="#14316B"/>
    <path d="M112.648 81.831L113.02 81.3003L112.571 80.9864L112.2 81.517L112.648 81.831Z" fill="#D2D5DA"/>
    <path d="M111.673 81.1484L112.045 80.6177L111.889 80.5088L111.518 81.0394L111.673 81.1484Z" fill="#D2D5DA"/>
    <path d="M111.435 82.6181L111.807 82.0874L111.281 81.719L110.909 82.2497L111.435 82.6181Z" fill="#14316B"/>
    <path d="M111.878 82.9286L112.25 82.3979L111.802 82.084L111.43 82.6147L111.878 82.9286Z" fill="#D2D5DA"/>
    <path d="M110.904 82.2465L111.275 81.7158L111.12 81.6069L110.748 82.1376L110.904 82.2465Z" fill="#D2D5DA"/>
    <path d="M115.579 82.7697C115.516 82.6365 115.422 82.5166 115.294 82.4269C115.166 82.3372 115.025 82.286 114.875 82.2763L114.801 83.1315L115.579 82.7697Z" fill="#1A3B91"/>
    <path d="M115.504 83.6248C115.686 83.3641 115.701 83.0406 115.577 82.7697L114.799 83.1315L115.504 83.6248Z" fill="#D5754D"/>
    <path d="M114.724 83.9914C115.021 84.0153 115.319 83.8904 115.502 83.6296L114.797 83.1363L114.724 83.9914Z" fill="#1A3B91"/>
    <path d="M114.874 82.2765C114.577 82.2527 114.279 82.3776 114.096 82.6383L114.801 83.1317L114.874 82.2765Z" fill="#D5754D"/>
    <path d="M114.096 82.6385C113.914 82.8993 113.895 83.2273 114.022 83.4936L114.801 83.1318L114.096 82.6385Z" fill="#1A3B91"/>
    <path d="M114.722 83.9915L114.796 83.1364L114.018 83.4982C114.081 83.6314 114.175 83.7512 114.303 83.8409C114.434 83.926 114.576 83.9773 114.722 83.9915Z" fill="#D5754D"/>
    <path d="M117.183 78.9781C117.119 78.845 117.026 78.7251 116.898 78.6354C116.77 78.5457 116.625 78.499 116.478 78.4848L116.404 79.3399L117.183 78.9781Z" fill="#1A3B91"/>
    <path d="M117.109 79.8333C117.292 79.5725 117.31 79.2445 117.183 78.9782L116.405 79.34L117.109 79.8333Z" fill="#D5754D"/>
    <path d="M116.327 80.1999C116.624 80.2238 116.923 80.0989 117.105 79.8381L116.401 79.3448L116.327 80.1999Z" fill="#1A3B91"/>
    <path d="M116.478 78.485C116.181 78.4612 115.882 78.5861 115.7 78.8468L116.404 79.3401L116.478 78.485Z" fill="#D5754D"/>
    <path d="M115.7 78.847C115.517 79.1078 115.499 79.4358 115.626 79.7021L116.404 79.3403L115.7 78.847Z" fill="#1A3B91"/>
    <path d="M116.326 80.2L116.4 79.3449L115.621 79.7067C115.685 79.8398 115.778 79.9597 115.906 80.0494C116.038 80.1345 116.179 80.1858 116.326 80.2Z" fill="#D5754D"/>
    <path d="M112.077 84.7504C112.014 84.6172 111.92 84.4973 111.792 84.4076C111.664 84.3179 111.52 84.2713 111.373 84.2571L111.299 85.1122L112.077 84.7504Z" fill="#1A3B91"/>
    <path d="M112 85.6102C112.182 85.3494 112.201 85.0213 112.074 84.7551L111.295 85.1168L112 85.6102Z" fill="#D5754D"/>
    <path d="M111.222 85.9722C111.519 85.996 111.817 85.8711 112 85.6104L111.295 85.117L111.222 85.9722Z" fill="#1A3B91"/>
    <path d="M111.372 84.2572C111.075 84.2334 110.777 84.3583 110.594 84.6191L111.299 85.1124L111.372 84.2572Z" fill="#D5754D"/>
    <path d="M110.59 84.6236C110.408 84.8844 110.389 85.2124 110.517 85.4787L111.295 85.1169L110.59 84.6236Z" fill="#1A3B91"/>
    <path d="M111.22 85.9722L111.294 85.1171L110.516 85.4789C110.579 85.6121 110.673 85.7319 110.801 85.8216C110.929 85.9113 111.074 85.958 111.22 85.9722Z" fill="#D5754D"/>
    <path d="M107.917 87.6459L108.289 87.1152L107.763 86.7469L107.391 87.2775L107.917 87.6459Z" fill="#14316B"/>
    <path d="M108.361 87.9565L108.732 87.4258L108.284 87.1119L107.913 87.6425L108.361 87.9565Z" fill="#D2D5DA"/>
    <path d="M107.386 87.2743L107.758 86.7437L107.602 86.6347L107.231 87.1654L107.386 87.2743Z" fill="#D2D5DA"/>
    <path d="M107.148 88.7438L107.52 88.2131L106.993 87.8448L106.622 88.3754L107.148 88.7438Z" fill="#14316B"/>
    <path d="M107.591 89.0546L107.963 88.5239L107.515 88.21L107.143 88.7407L107.591 89.0546Z" fill="#D2D5DA"/>
    <path d="M106.617 88.3722L106.988 87.8416L106.833 87.7326L106.461 88.2633L106.617 88.3722Z" fill="#D2D5DA"/>
    <path d="M106.376 89.8461L106.748 89.3154L106.222 88.947L105.85 89.4777L106.376 89.8461Z" fill="#14316B"/>
    <path d="M106.82 90.1569L107.191 89.6262L106.743 89.3123L106.371 89.843L106.82 90.1569Z" fill="#D2D5DA"/>
    <path d="M105.845 89.4745L106.217 88.9438L106.061 88.8349L105.69 89.3656L105.845 89.4745Z" fill="#D2D5DA"/>
    <path d="M105.609 90.9438L105.98 90.4131L105.454 90.0447L105.083 90.5754L105.609 90.9438Z" fill="#14316B"/>
    <path d="M106.052 91.2548L106.424 90.7241L105.975 90.4102L105.604 90.9409L106.052 91.2548Z" fill="#D2D5DA"/>
    <path d="M105.078 90.5724L105.449 90.0417L105.294 89.9328L104.922 90.4635L105.078 90.5724Z" fill="#D2D5DA"/>
    <path d="M109.747 91.0953C109.684 90.9622 109.59 90.8423 109.462 90.7526C109.334 90.6629 109.19 90.6162 109.043 90.602L108.969 91.4571L109.747 91.0953Z" fill="#1A3B91"/>
    <path d="M109.674 91.9505C109.856 91.6897 109.875 91.3617 109.747 91.0954L108.969 91.4572L109.674 91.9505Z" fill="#D5754D"/>
    <path d="M108.892 92.3171C109.189 92.3409 109.487 92.2161 109.67 91.9553L108.965 91.462L108.892 92.3171Z" fill="#1A3B91"/>
    <path d="M109.042 90.6022C108.745 90.5784 108.447 90.7032 108.264 90.964L108.968 91.4573L109.042 90.6022Z" fill="#D5754D"/>
    <path d="M108.264 90.964C108.082 91.2247 108.063 91.5528 108.19 91.8191L108.969 91.4573L108.264 90.964Z" fill="#1A3B91"/>
    <path d="M108.892 92.3172L108.966 91.4621L108.188 91.8239C108.251 91.957 108.345 92.0769 108.473 92.1666C108.604 92.2517 108.745 92.303 108.892 92.3172Z" fill="#D5754D"/>
    <path d="M111.353 87.3043C111.289 87.1712 111.196 87.0513 111.068 86.9616C110.94 86.8719 110.795 86.8252 110.648 86.811L110.574 87.6661L111.353 87.3043Z" fill="#1A3B91"/>
    <path d="M111.277 88.159C111.46 87.8982 111.478 87.5702 111.351 87.3039L110.573 87.6657L111.277 88.159Z" fill="#D5754D"/>
    <path d="M110.497 88.5256C110.794 88.5494 111.093 88.4246 111.275 88.1638L110.571 87.6705L110.497 88.5256Z" fill="#1A3B91"/>
    <path d="M110.648 86.8107C110.351 86.7869 110.052 86.9117 109.869 87.1725L110.574 87.6658L110.648 86.8107Z" fill="#D5754D"/>
    <path d="M109.87 87.1727C109.687 87.4335 109.669 87.7615 109.796 88.0278L110.574 87.666L109.87 87.1727Z" fill="#1A3B91"/>
    <path d="M110.496 88.5257L110.57 87.6706L109.791 88.0324C109.855 88.1655 109.948 88.2854 110.076 88.3751C110.208 88.4602 110.349 88.5115 110.496 88.5257Z" fill="#D5754D"/>
    <path d="M106.247 93.076C106.184 92.9429 106.09 92.823 105.962 92.7333C105.834 92.6436 105.69 92.5969 105.543 92.5827L105.469 93.4378L106.247 93.076Z" fill="#1A3B91"/>
    <path d="M106.17 93.9358C106.352 93.6751 106.371 93.347 106.243 93.0807L105.465 93.4425L106.17 93.9358Z" fill="#D5754D"/>
    <path d="M105.392 94.2978C105.689 94.3217 105.987 94.1968 106.17 93.936L105.465 93.4427L105.392 94.2978Z" fill="#1A3B91"/>
    <path d="M105.542 92.5829C105.245 92.5591 104.947 92.684 104.764 92.9447L105.468 93.438L105.542 92.5829Z" fill="#D5754D"/>
    <path d="M104.76 92.9493C104.578 93.2101 104.559 93.5381 104.687 93.8044L105.465 93.4426L104.76 92.9493Z" fill="#1A3B91"/>
    <path d="M105.39 94.2979L105.464 93.4428L104.686 93.8046C104.749 93.9377 104.843 94.0576 104.971 94.1473C105.099 94.237 105.244 94.2837 105.39 94.2979Z" fill="#D5754D"/>
    <path d="M51.1816 41.9144L51.457 41.521L48.3736 39.362L48.0981 39.7554L51.1816 41.9144Z" fill="#1A3B91"/>
    <path d="M50.9022 42.3126L51.1777 41.9192L48.0943 39.7602L47.8188 40.1536L50.9022 42.3126Z" fill="#D5754D"/>
    <path d="M50.6269 42.7059L50.9023 42.3125L47.8189 40.1535L47.5434 40.5469L50.6269 42.7059Z" fill="#1A3B91"/>
    <path d="M50.3515 43.0995L50.627 42.7061L47.5435 40.547L47.268 40.9405L50.3515 43.0995Z" fill="#D5754D"/>
    <path d="M50.0858 43.4794L50.3613 43.0859L47.2779 40.9269L47.0024 41.3203L50.0858 43.4794Z" fill="#1A3B91"/>
    <path d="M49.8104 43.8724L50.0859 43.479L47.0025 41.32L46.727 41.7134L49.8104 43.8724Z" fill="#D5754D"/>
    <path d="M49.5312 44.2706L49.8066 43.8772L46.7232 41.7182L46.4477 42.1116L49.5312 44.2706Z" fill="#1A3B91"/>
    <path d="M49.2558 44.6637L49.5312 44.2703L46.4478 42.1112L46.1723 42.5047L49.2558 44.6637Z" fill="#D5754D"/>
    <path d="M48.9804 45.0575L49.2559 44.6641L46.1724 42.505L45.8969 42.8985L48.9804 45.0575Z" fill="#1A3B91"/>
    <path d="M48.705 45.4508L48.9805 45.0574L45.897 42.8983L45.6216 43.2918L48.705 45.4508Z" fill="#D5754D"/>
    <path d="M48.4296 45.8446L48.7051 45.4512L45.6217 43.2921L45.3462 43.6856L48.4296 45.8446Z" fill="#1A3B91"/>
    <path d="M46.6608 46.7454L47.0645 46.1689L45.5136 45.083L45.11 45.6595L46.6608 46.7454Z" fill="#1A3B91"/>
    <path d="M51.2936 40.1304L51.6973 39.554L50.1464 38.468L49.7428 39.0445L51.2936 40.1304Z" fill="#1A3B91"/>
    <path d="M39.6017 27.4032L40.7324 25.7883L39.1175 24.6576L37.9867 26.2725L39.6017 27.4032Z" fill="#8CD150"/>
    <path d="M29.9747 41.1506L31.1055 39.5356L29.4906 38.4049L28.3598 40.0198L29.9747 41.1506Z" fill="#8CD150"/>
    <path d="M53.4591 37.1061L54.5898 35.4912L52.9749 34.3604L51.8442 35.9753L53.4591 37.1061Z" fill="#8CD150"/>
    <path d="M43.8321 50.8532L44.9629 49.2383L43.348 48.1075L42.2172 49.7224L43.8321 50.8532Z" fill="#8CD150"/>
    <path d="M69.0587 48.0297L70.1895 46.4148L68.5745 45.284L67.4438 46.8989L69.0587 48.0297Z" fill="#8CD150"/>
    <path d="M59.4317 61.777L60.5625 60.1621L58.9476 59.0313L57.8168 60.6462L59.4317 61.777Z" fill="#8CD150"/>
    <path d="M29.6633 33.3301L33.2734 28.1743L22.9252 20.9284L19.3151 26.0842L29.6633 33.3301Z" fill="black"/>
    <path d="M21.8254 27.6225L25.2305 22.7595L22.9705 21.1771L19.5654 26.0401L21.8254 27.6225Z" fill="#4F91D3"/>
    <path d="M24.423 29.4421L27.8281 24.5791L25.5682 22.9967L22.1631 27.8597L24.423 29.4421Z" fill="#4F91D3"/>
    <path d="M27.0226 31.2612L30.4277 26.3982L28.1678 24.8158L24.7627 29.6788L27.0226 31.2612Z" fill="#4F91D3"/>
    <path d="M29.6203 33.0808L33.0254 28.2178L30.7654 26.6353L27.3603 31.4983L29.6203 33.0808Z" fill="#4F91D3"/>
</svg>
