<svg width="23" height="16" viewBox="0 0 23 16" fill="none" xmlns="http://www.w3.org/2000/svg">
    <path d="M21.9744 8.88429C21.9887 8.96568 22.0639 9.01118 22.1371 8.99826C22.2185 8.98391 22.264 8.90874 22.2511 8.83549L21.3369 3.65082C21.3225 3.56943 21.2474 3.52393 21.1741 3.53685C21.0927 3.5512 21.0472 3.62637 21.0602 3.69962L21.9744 8.88429Z" fill="#4E4E54"/>
    <path d="M21.2967 4.23701L21.2637 4.0498L20.4253 4.19763L20.4583 4.38483L21.2967 4.23701Z" fill="#4E4E54"/>
    <path d="M22.0467 8.48555L22.0137 8.29834L21.1753 8.44616L21.2083 8.63337L22.0467 8.48555Z" fill="#4E4E54"/>
    <path d="M21.8006 7.08564L21.7676 6.89844L20.9292 7.04626L20.9622 7.23347L21.8006 7.08564Z" fill="#4E4E54"/>
    <path d="M21.5506 5.67744L21.5176 5.49023L20.6792 5.63806L20.7122 5.82526L21.5506 5.67744Z" fill="#4E4E54"/>
    <path d="M1.96675 9.77727C1.96532 9.76913 1.96532 9.76913 1.96532 9.76913C1.91269 9.51825 1.41224 7.01329 1.88054 6.52789C2.37039 6.0219 2.26562 5.42773 2.26562 5.42773C2.26562 5.42773 2.04921 5.53303 1.79784 5.67806C1.32622 5.95424 1.02835 6.50191 1.0206 7.1243C1.01476 7.8051 1.09888 8.80574 1.28832 9.88011C1.48064 10.9708 1.74526 11.948 1.98503 12.5938C2.19704 13.1775 2.66569 13.5984 3.21147 13.6952C3.49729 13.7455 3.73666 13.7704 3.73666 13.7704C3.73666 13.7704 3.63189 13.1762 2.99853 12.8683C2.39246 12.5724 2.00597 10.0473 1.96962 9.79355C1.96962 9.79355 1.96819 9.7854 1.96675 9.77727Z" fill="#25303D"/>
    <path d="M1.65541 7.91849C1.77402 8.82912 2.08449 10.6375 2.29262 11.5323C2.67349 13.1688 3.42694 14.1101 4.87572 13.8547L19.3601 11.5189C20.8089 11.2634 21.6972 9.92348 21.5342 8.18985C21.4864 7.72831 21.396 6.9302 21.2855 6.30348C21.1735 5.66862 21.0166 5.01652 20.897 4.57604C20.4941 3.05256 19.1723 1.93446 17.7154 2.19135L3.30565 4.95038C1.85831 5.21398 1.43636 6.29545 1.65541 7.91849Z" fill="#2D3857"/>
    <path d="M17.4093 11.3594C17.7598 11.3479 20.5281 10.5325 20.5281 10.5325L21.3236 8.99914C21.3236 8.99914 21.2878 7.93963 21.0281 6.46643C20.7683 4.99324 20.451 3.90783 20.451 3.90783L19.3012 2.71746C19.3012 2.71746 16.7101 2.87222 16.0997 2.97986C15.4892 3.0875 15.0851 3.60354 15.0851 3.60354L16.4054 11.0916C16.6654 11.2808 17.067 11.3694 17.4093 11.3594Z" fill="#414D7A"/>
    <path d="M12.2536 3.24688C12.3134 3.25312 12.3379 3.24881 12.3379 3.24881L12.3603 3.47144L12.6452 3.42121C12.6294 3.33168 12.628 3.18087 12.628 3.18087C12.628 3.18087 12.7582 3.1579 12.6884 2.80935C12.6185 2.4608 12.4884 2.05575 12.317 1.89295C12.147 1.73828 11.8713 1.74494 11.8401 1.90149C11.8104 2.06619 12.1938 3.24065 12.2536 3.24688Z" fill="#273552"/>
    <path d="M18.2841 5.27179L20.1916 4.38154L20.0322 4.19145L18.1702 5.1492L16.5935 5.5363L18.2841 5.27179Z" fill="#5665A1"/>
    <path d="M4.95901 7.57103L5.5259 10.786C5.59909 11.2011 5.99165 11.476 6.40675 11.4028L14.2792 10.6441L13.2344 4.71875L5.57722 6.69833C5.16069 6.76339 4.88725 7.16407 4.95901 7.57103Z" fill="#414D7A"/>
    <path d="M13.9387 13.8091C14.0215 13.9456 14.2829 13.8575 14.3897 13.6541C14.4965 13.4506 14.4788 13.0173 14.4252 12.6659C14.3717 12.3145 14.2414 12.3375 14.2414 12.3375C14.2414 12.3375 14.1912 12.1953 14.1754 12.1057L13.8905 12.156L13.9456 12.3729C13.9456 12.3729 13.9211 12.3772 13.867 12.4035C13.8144 12.4379 13.8558 13.6727 13.9387 13.8091Z" fill="#384BA1"/>
    <path d="M12.6817 5.72253C12.9396 6.42395 13.1703 7.25607 13.2636 7.78512C13.3583 8.32231 13.4472 9.25496 13.4366 10.0037C13.4341 10.7511 13.4383 11.0609 13.8558 11.0963C14.2733 11.1318 15.8608 11.3303 16.1601 11.2187C16.4608 11.1154 16.6476 10.6041 16.6802 9.74231C16.7129 8.88054 16.5728 7.84782 16.4623 7.2211C16.3532 6.60252 16.1302 5.57602 15.8048 4.7774C15.4793 3.97877 15.1289 3.5622 14.811 3.5679C14.4931 3.5736 13.0529 4.30591 12.6713 4.47391C12.3007 4.65674 12.4237 5.0211 12.6817 5.72253Z" fill="#273043"/>
    <path opacity="0.59" d="M12.9476 5.90226C13.1821 6.56586 13.3744 7.37117 13.4687 7.85809C13.5519 8.33016 13.6399 9.01959 13.6465 9.72338C13.6531 10.4272 13.5568 10.8805 13.9078 10.9194C14.2587 10.9582 15.8037 11.1054 16.0555 11.0106C16.3073 10.9159 16.4496 10.4376 16.4665 9.62898C16.4752 8.82178 16.3451 7.84604 16.2336 7.26145C16.1303 6.67543 15.9188 5.71404 15.6346 4.95851C15.3503 4.20298 15.0463 3.81179 14.7772 3.80888C14.5082 3.80597 13.1355 4.4928 12.819 4.64932C12.5025 4.80583 12.7212 5.23722 12.9476 5.90226Z" fill="url(#paint0_linear_1040_5888)"/>
    <path d="M13.9406 13.8172C14.0234 13.9537 14.2848 13.8656 14.3916 13.6621C14.4984 13.4587 14.4808 13.0254 14.4272 12.674C14.3736 12.3226 14.2434 12.3455 14.2434 12.3455C14.2434 12.3455 14.1931 12.2033 14.1774 12.1138L13.8925 12.164L13.9475 12.3809C13.9475 12.3809 13.9231 12.3852 13.869 12.4115C13.8149 12.4379 13.8578 13.6807 13.9406 13.8172Z" fill="#273552"/>
    <path d="M20.8556 8.87165L20.9404 8.6385L18.8435 8.45437L17.1644 8.78401L18.7783 8.60852L20.8556 8.87165Z" fill="#5665A1"/>
    <path d="M1.45668 7.12298C1.57204 7.2537 1.84686 7.1465 2.07 6.88895C2.29314 6.63141 2.37985 6.314 2.26448 6.18328C2.14912 6.05256 1.87429 6.15977 1.65115 6.41731C1.41987 6.67629 1.34131 6.99226 1.45668 7.12298Z" fill="#D83432"/>
    <path d="M1.79015 7.11464C1.88208 7.06486 1.97784 6.98924 2.06929 6.88919C2.29243 6.63164 2.37914 6.31423 2.26377 6.18351C2.17184 6.23329 2.07608 6.30892 1.98605 6.41711C1.75477 6.67609 1.67478 6.98392 1.79015 7.11464Z" fill="#FE9D6D"/>
    <path d="M2.88506 13.4593C3.18283 13.625 3.47775 13.6317 3.54145 13.4694C3.60515 13.3072 3.41511 13.0385 3.11734 12.8728C2.81957 12.7072 2.52465 12.7004 2.46095 12.8627C2.40539 13.0236 2.58585 13.2855 2.88506 13.4593Z" fill="#D83432"/>
    <path d="M3.20015 13.3448C3.32031 13.4075 3.43761 13.4539 3.54102 13.4693C3.60472 13.307 3.41468 13.0384 3.11691 12.8727C2.99675 12.8099 2.87946 12.7635 2.77605 12.7482C2.72049 12.909 2.90238 13.1791 3.20015 13.3448Z" fill="#FE9D6D"/>
    <path d="M21.1055 8.51724L20.186 10.5844L21.1876 10.1728C21.4774 9.62659 21.6082 8.94054 21.5331 8.18168C21.4853 7.72015 21.3949 6.92203 21.2844 6.29531C21.1725 5.66046 21.0155 5.00836 20.8959 4.56788C20.7198 3.90237 20.3637 3.31056 19.9017 2.88009L18.9509 2.7708L20.4052 4.40263C20.4052 4.40263 20.6938 5.32525 20.9033 6.51357C21.1143 7.71003 21.1055 8.51724 21.1055 8.51724Z" fill="#4C5478"/>
    <path opacity="0.59" d="M13.9172 10.9178C14.2681 10.9566 15.8131 11.1038 16.0649 11.009C16.3168 10.9143 16.459 10.436 16.4759 9.62738C16.4836 9.14766 16.4392 8.61001 16.3789 8.12549C16.2003 8.20733 15.057 8.71945 13.6278 9.03859C13.6407 9.25451 13.6565 9.48671 13.6545 9.71365C13.6611 10.4174 13.5581 10.8804 13.9172 10.9178Z" fill="url(#paint1_linear_1040_5888)"/>
    <path d="M18.7174 3.49995C18.9509 3.92034 19.4119 4.25028 19.8184 4.4136C20.1348 4.54243 20.4092 4.52762 20.5126 4.25761C20.6295 3.96846 20.1886 3.32446 19.786 2.99262C19.3451 2.63396 18.8358 2.50558 18.6308 2.67599C18.4637 2.82294 18.4742 3.07286 18.7174 3.49995Z" fill="#2D3857"/>
    <path d="M18.8873 3.51184C19.0726 3.84843 19.4378 4.11132 19.7624 4.23872C20.0147 4.3369 20.2307 4.32401 20.3116 4.11672C20.4059 3.89028 20.0546 3.37316 19.73 3.10309C19.3767 2.81291 18.9736 2.71614 18.8132 2.85352C18.6825 2.96889 18.6925 3.16853 18.8873 3.51184Z" fill="#D6E5FE"/>
    <path d="M18.8116 2.84539C18.6809 2.96076 18.6909 3.1604 18.8776 3.50514C18.9025 3.5511 18.9259 3.58893 18.9589 3.63346C18.9518 3.59276 18.8829 3.20208 19.0036 3.02974C19.1108 2.87655 19.2942 2.8694 19.3703 2.87276C19.1343 2.77171 18.9141 2.76019 18.8116 2.84539Z" fill="#D5FAFC"/>
    <path d="M19.9814 4.29268C20.135 4.30754 20.2514 4.25346 20.3098 4.10888C20.4042 3.88244 20.0528 3.36533 19.7283 3.09526C19.6105 2.99853 19.4889 2.92766 19.3702 2.87306C19.3702 2.87306 20.2247 3.5784 19.9866 4.27497C19.9881 4.28311 19.9895 4.29124 19.9814 4.29268Z" fill="#78C2FC"/>
    <path d="M19.8392 9.85687C19.7568 10.3414 19.8324 10.5798 20.0397 10.6607C20.2824 10.7522 20.7267 10.4641 21.0169 9.96811C21.2818 9.51858 21.4758 8.76264 21.2671 8.53089C21.0789 8.32069 20.8161 8.4006 20.5613 8.62176C20.2353 8.91424 19.923 9.38051 19.8392 9.85687Z" fill="#2D3857"/>
    <path d="M19.9952 9.79563C19.9296 10.1849 19.9884 10.3759 20.1589 10.4382C20.3566 10.5124 20.7104 10.2821 20.935 9.89007C21.1491 9.53342 21.3024 8.92732 21.1348 8.73867C20.9797 8.57299 20.7806 8.6333 20.5771 8.81185C20.3075 9.04401 20.0542 9.41597 19.9952 9.79563Z" fill="#D6E5FE"/>
    <path d="M20.0198 9.64846C20.004 9.7016 19.9949 9.74517 19.9872 9.79688C19.9216 10.1861 19.9804 10.3771 20.1509 10.4394C20.2859 10.4911 20.4793 10.3983 20.6665 10.2226C20.6043 10.2504 20.4214 10.3078 20.2682 10.2005C20.0958 10.0798 20.027 9.68916 20.0198 9.64846Z" fill="#D5FAFC"/>
    <path d="M20.6669 10.2145C20.7598 10.1226 20.8498 10.0145 20.9274 9.88328C21.1414 9.52663 21.2947 8.92053 21.1272 8.73188C21.0228 8.616 20.8964 8.61311 20.7557 8.6715C20.7571 8.67964 20.7571 8.67964 20.7667 8.68634C21.2382 9.26619 20.6669 10.2145 20.6669 10.2145Z" fill="#78C2FC"/>
    <path d="M2.72144 7.49575C2.75007 8.22922 2.88352 9.12884 2.97824 9.66603C3.07296 10.2032 3.25524 11.0942 3.47921 11.7933C3.70317 12.4923 3.92143 12.8734 4.09953 12.884C4.27907 12.9027 5.12992 12.3498 5.33389 12.2215C5.53786 12.0932 5.39905 11.782 5.21529 11.1682C5.00187 10.4338 4.81769 9.34168 4.81769 9.34168C4.81769 9.34168 4.60386 8.12894 4.5666 7.48931C4.52935 6.84967 4.60981 6.59211 4.27182 6.48386C4.04011 6.40723 3.09362 6.17969 2.93131 6.25866C2.769 6.33763 2.69282 6.76228 2.72144 7.49575Z" fill="#273043"/>
    <path opacity="0.59" d="M2.96196 7.57915C3.00783 8.26762 3.1341 9.12654 3.22308 9.63117C3.31349 10.1439 3.47903 10.9875 3.6714 11.6502C3.8652 12.321 4.0466 12.6834 4.19215 12.6997C4.32955 12.7174 5.0449 12.2053 5.20817 12.0842C5.36475 11.9726 5.18909 11.6427 5.02734 11.0586C4.8656 10.4745 4.65558 9.37858 4.65558 9.37858C4.65558 9.37858 4.49342 8.31619 4.44563 7.71198C4.39784 7.10777 4.4429 6.69699 4.24949 6.64717C4.05607 6.59735 3.21397 6.34302 3.09092 6.40668C2.9626 6.48805 2.9161 6.89068 2.96196 7.57915Z" fill="url(#paint2_linear_1040_5888)"/>
    <path opacity="0.59" d="M3.6731 11.6582C3.86691 12.329 4.04831 12.6915 4.19385 12.7078C4.33126 12.7255 5.05474 12.2119 5.20988 12.0922C5.36645 11.9807 5.21519 11.7891 5.05345 11.205C5.00703 11.037 4.92664 10.7239 4.87976 10.5055C4.28367 10.6946 3.50714 10.479 3.38315 10.4421C3.46161 10.8395 3.56352 11.2747 3.6731 11.6582Z" fill="url(#paint3_linear_1040_5888)"/>
    <path d="M4.18732 5.9027L4.90875 6.47205C4.9772 6.52712 5.0629 6.53719 5.14285 6.5147L6.05016 6.18687C6.19236 6.13662 6.25319 5.95805 6.17709 5.81202L5.86166 5.21304C5.80901 5.10483 5.69028 5.05024 5.57777 5.07847L4.26447 5.43592C4.0653 5.49622 4.02169 5.77245 4.18732 5.9027Z" fill="#25303D"/>
    <path d="M10.155 4.3387L10.233 4.82849C10.2574 4.96686 10.3589 5.06645 10.4633 5.03966L11.9288 4.68893C11.9288 4.68893 13.4729 3.87955 13.5495 3.79051C13.6276 3.70961 13.608 3.50326 13.4514 3.47212L10.2657 4.10939C10.1857 4.13188 10.1364 4.23289 10.155 4.3387Z" fill="#25303D"/>
    <path opacity="0.59" d="M10.2826 4.35004L10.3476 4.76657C10.3605 4.83983 10.4113 4.88962 10.4682 4.87958L11.8036 4.55181C11.8524 4.5432 11.8984 4.51832 11.9458 4.50157L13.398 3.74197C13.4439 3.71708 13.42 3.62898 13.3712 3.63759C12.6415 3.78303 10.667 4.19832 10.3185 4.26818C10.2941 4.27248 10.2754 4.30934 10.2826 4.35004Z" fill="url(#paint4_linear_1040_5888)"/>
    <path d="M6.18901 5.1218L6.64085 5.92332C6.67531 5.97599 6.73133 6.00807 6.79501 5.98845L9.94348 5.13956C9.99088 5.12281 10.0282 5.04908 10.0125 4.95955L9.91152 4.33954C9.89573 4.25001 9.84211 4.18393 9.78514 4.19398L6.28623 4.91165C6.18185 4.93844 6.14067 5.03801 6.18901 5.1218Z" fill="#25303D"/>
    <path opacity="0.59" d="M6.43324 5.17915L6.74963 5.73599C6.77452 5.78195 6.81952 5.7992 6.86836 5.79059L9.79994 4.99672C9.84734 4.97997 9.878 4.91582 9.86365 4.83443L9.81725 4.5237C9.80003 4.42603 9.73827 4.36139 9.6813 4.37144C9.20252 4.46425 7.29842 4.85035 6.51322 5.01398C6.43327 5.03647 6.39734 5.11834 6.43324 5.17915Z" fill="url(#paint5_linear_1040_5888)"/>
    <path opacity="0.59" d="M4.33555 5.80071L4.95738 6.32887C4.99568 6.35569 5.03925 6.36479 5.07851 6.34947L5.94799 6.0451C6.02651 6.01447 6.05286 5.9259 6.01409 5.84881L5.70584 5.29053C5.67952 5.23642 5.61536 5.20578 5.55982 5.22396L4.37675 5.55845C4.27238 5.58525 4.25608 5.7308 4.33555 5.80071Z" fill="url(#paint6_linear_1040_5888)"/>
    <path d="M5.62641 13.1684L6.98276 13.0551C7.09815 13.0431 7.19105 12.9512 7.20351 12.8315L7.29505 12.1608C7.31662 11.9976 7.19838 11.8505 7.04757 11.852L6.08286 11.8542C5.99859 11.8523 5.92295 11.8992 5.87745 11.9744L5.39427 12.7561C5.28317 12.9352 5.42006 13.188 5.62641 13.1684Z" fill="#25303D"/>
    <path d="M11.5389 12.1848C11.5576 12.2906 11.6385 12.3687 11.7199 12.3543L14.9315 11.8636C15.0679 11.7807 15.0077 11.5816 14.9148 11.5308C14.8138 11.4815 13.0845 11.2409 13.0845 11.2409L11.5874 11.4126C11.4801 11.4231 11.4188 11.5514 11.4432 11.6898L11.5389 12.1848Z" fill="#25303D"/>
    <path opacity="0.59" d="M11.6566 12.1391C11.6638 12.1798 11.694 12.208 11.7184 12.2037C12.0617 12.1516 14.0687 11.8732 14.8027 11.7522C14.8515 11.7436 14.8438 11.6526 14.7921 11.645L13.1677 11.4278C13.116 11.4202 13.0658 11.4206 13.0169 11.4293L11.65 11.578C11.593 11.588 11.5624 11.6522 11.5753 11.7254L11.6566 12.1391Z" fill="url(#paint7_linear_1040_5888)"/>
    <path d="M7.54405 12.8053C7.52728 12.9006 7.60961 12.9868 7.69914 12.971L11.2325 12.4487C11.2895 12.4386 11.3173 12.3582 11.3015 12.2687L11.1843 11.6515C11.1699 11.5702 11.1163 11.5041 11.0579 11.506L7.80894 11.7851C7.75053 11.787 7.70074 11.8378 7.68636 11.8991L7.54405 12.8053Z" fill="#25303D"/>
    <path opacity="0.59" d="M7.75381 12.6676C7.74087 12.737 7.80263 12.8016 7.86918 12.7983C8.66299 12.6835 10.5843 12.3951 11.066 12.3185C11.1229 12.3085 11.1588 12.2266 11.1416 12.129L11.0789 11.8211C11.066 11.7478 11.0139 11.6899 10.9636 11.6904L7.93728 11.9471C7.88701 11.9475 7.85205 11.9873 7.84438 12.039L7.75381 12.6676Z" fill="url(#paint8_linear_1040_5888)"/>
    <path opacity="0.59" d="M5.69153 13.014L6.91765 12.9237C6.97606 12.9218 7.02587 12.8711 7.0321 12.8112L7.13081 12.1812C7.14088 12.0955 7.08583 12.0213 7.00156 12.0193L6.08042 12.0307C6.03829 12.0297 5.99232 12.0546 5.97364 12.0915L5.56995 12.8005C5.52063 12.9015 5.58428 13.0245 5.69153 13.014Z" fill="url(#paint9_linear_1040_5888)"/>
    <path d="M8.14193 9.77081C8.21082 10.1615 8.58422 10.423 8.9749 10.3541L10.1714 10.1431C10.562 10.0742 10.8235 9.70081 10.7546 9.31013L10.3944 7.26719C10.3255 6.87651 9.95211 6.61505 9.56142 6.68394L8.36496 6.89491C7.97427 6.9638 7.71282 7.33719 7.78171 7.72787L8.14193 9.77081Z" fill="#273043"/>
    <defs>
        <linearGradient id="paint0_linear_1040_5888" x1="15.8027" y1="4.16396" x2="13.4075" y2="10.7449" gradientUnits="userSpaceOnUse">
            <stop stop-color="#72B3DD"/>
            <stop offset="0.9946" stop-color="#2E81BA"/>
        </linearGradient>
        <linearGradient id="paint1_linear_1040_5888" x1="14.8425" y1="8.39846" x2="15.3261" y2="11.1411" gradientUnits="userSpaceOnUse">
            <stop stop-color="#72B3DD"/>
            <stop offset="0.9946" stop-color="#2E81BA"/>
        </linearGradient>
        <linearGradient id="paint2_linear_1040_5888" x1="4.9883" y1="6.92506" x2="3.03646" y2="12.2877" gradientUnits="userSpaceOnUse">
            <stop stop-color="#72B3DD"/>
            <stop offset="0.9946" stop-color="#2E81BA"/>
        </linearGradient>
        <linearGradient id="paint3_linear_1040_5888" x1="4.17001" y1="10.2975" x2="4.58309" y2="12.6402" gradientUnits="userSpaceOnUse">
            <stop stop-color="#72B3DD"/>
            <stop offset="0.9946" stop-color="#2E81BA"/>
        </linearGradient>
        <linearGradient id="paint4_linear_1040_5888" x1="11.9535" y1="4.61412" x2="11.8283" y2="3.90429" gradientUnits="userSpaceOnUse">
            <stop stop-color="#72B3DD"/>
            <stop offset="0.9946" stop-color="#2E81BA"/>
        </linearGradient>
        <linearGradient id="paint5_linear_1040_5888" x1="8.24432" y1="5.55112" x2="8.08667" y2="4.65702" gradientUnits="userSpaceOnUse">
            <stop stop-color="#72B3DD"/>
            <stop offset="0.9946" stop-color="#2E81BA"/>
        </linearGradient>
        <linearGradient id="paint6_linear_1040_5888" x1="5.07068" y1="5.3086" x2="5.24896" y2="6.3197" gradientUnits="userSpaceOnUse">
            <stop stop-color="#72B3DD"/>
            <stop offset="0.9946" stop-color="#2E81BA"/>
        </linearGradient>
        <linearGradient id="paint7_linear_1040_5888" x1="13.2607" y1="12.0238" x2="13.1356" y2="11.314" gradientUnits="userSpaceOnUse">
            <stop stop-color="#72B3DD"/>
            <stop offset="0.9946" stop-color="#2E81BA"/>
        </linearGradient>
        <linearGradient id="paint8_linear_1040_5888" x1="9.48657" y1="12.5954" x2="9.32892" y2="11.7013" gradientUnits="userSpaceOnUse">
            <stop stop-color="#72B3DD"/>
            <stop offset="0.9946" stop-color="#2E81BA"/>
        </linearGradient>
        <linearGradient id="paint9_linear_1040_5888" x1="6.25125" y1="12.0031" x2="6.42954" y2="13.0142" gradientUnits="userSpaceOnUse">
            <stop stop-color="#72B3DD"/>
            <stop offset="0.9946" stop-color="#2E81BA"/>
        </linearGradient>
    </defs>
</svg>
