<svg width="188" height="506" viewBox="0 0 188 506" fill="none" xmlns="http://www.w3.org/2000/svg">
    <path d="M63.9331 48.7621V69.3442C63.9331 69.3442 65.5573 76.4231 76.4424 76.4231C78.6034 76.6054 80.7522 75.9533 82.4474 74.6007C84.1426 73.2482 85.2556 71.2978 85.5577 69.1503V48.7862L63.9331 48.7621Z" fill="#FBBEAA"/>
    <path d="M31.5445 211.601C32.0778 204.886 39.2779 179.14 47.0114 164.473C47.0114 164.473 63.8823 166.604 74.7464 166.64C86.0816 166.676 103.691 164.473 103.691 164.473C108.734 175.891 114.479 200.837 116.152 206.219C117.162 209.386 117.284 212.768 116.507 215.999C115.729 219.231 114.08 222.187 111.74 224.547C105.994 231.068 91.1819 238.535 87.7636 238.535C73.0573 236.434 58.6425 232.643 44.8053 227.238C36.9991 223.965 31.0354 218.341 31.5445 211.601Z" fill="#013EA5"/>
    <path d="M165.437 71.7679C165.537 69.5833 164.952 67.4221 163.764 65.586C161.935 63.4654 160.565 60.9891 159.74 58.3131C159.105 55.8291 158.091 53.4577 156.734 51.2826C155.764 49.9493 154.31 48.8584 154.31 47.8402C154.31 46.822 156.249 44.8583 159.013 45.4159C160.196 45.7847 161.284 46.4106 162.198 47.2488C163.111 48.087 163.829 49.1168 164.298 50.2645C164.562 49.5652 164.718 48.8293 164.758 48.0826L165.364 33.2218C165.374 32.8365 165.46 32.457 165.618 32.1057C165.776 31.7543 166.004 31.4383 166.286 31.1761C166.569 30.914 166.901 30.7111 167.263 30.5795C167.625 30.4478 168.01 30.3901 168.395 30.4096C169.007 30.4357 169.597 30.6533 170.079 31.0316C170.562 31.4099 170.914 31.93 171.086 32.5187V31.8399C171.179 31.1175 171.542 30.4571 172.102 29.9913C172.662 29.5255 173.378 29.2887 174.105 29.3286C174.832 29.3685 175.517 29.6821 176.023 30.2064C176.529 30.7306 176.818 31.4268 176.831 32.1551V34.2157C177.074 33.5804 177.537 33.0535 178.136 32.731C178.735 32.4086 179.429 32.312 180.093 32.4589C180.757 32.6058 181.347 32.9864 181.754 33.5314C182.16 34.0764 182.358 34.7495 182.31 35.4279V36.7369C182.571 36.2784 182.96 35.9058 183.429 35.6647C183.898 35.4236 184.428 35.3244 184.953 35.3793C185.671 35.4706 186.326 35.8379 186.778 36.4035C187.231 36.9691 187.446 37.6886 187.377 38.4097L186.189 50.9433C185.411 58.0095 183.949 64.9837 181.825 71.7679C181.8 72.9006 181.537 74.0154 181.055 75.0407C180.573 76.0659 179.881 76.979 179.025 77.721C178.169 78.4631 177.167 79.0177 176.083 79.3494C175 79.681 173.859 79.7824 172.734 79.6468C171.716 79.6808 170.703 79.4954 169.763 79.1033C168.823 78.7112 167.978 78.1215 167.286 77.3742C166.594 76.6269 166.07 75.7395 165.751 74.7722C165.432 73.8049 165.325 72.7803 165.437 71.7679Z" fill="#FBBEAA"/>
    <path d="M83.7393 467.411C83.7393 465.077 84.6664 462.839 86.3168 461.188C87.9671 459.538 90.2055 458.611 92.5394 458.611C94.8734 458.611 97.1117 459.538 98.7621 461.188C100.412 462.839 101.34 465.077 101.34 467.411V486.539H83.7393V467.411Z" fill="#FBBEAA"/>
    <path d="M100.71 470.975C102.867 470.975 103.255 471.92 103.886 473.157C104.908 476.452 106.656 479.475 109.001 482.005C112.502 484.987 116.258 487.656 120.225 489.981V500.115H81.0488C81.0488 500.115 81.3155 492.115 81.5094 486.466C81.7034 480.818 82.261 473.933 82.2125 473.205C82.164 472.478 82.2125 470.975 83.5458 470.975H100.71Z" fill="#302D3B"/>
    <path d="M85.9209 487.023C85.9162 488.267 86.281 489.485 86.9691 490.521C87.6572 491.557 88.6375 492.366 89.7858 492.844C90.9341 493.322 92.1986 493.448 93.4189 493.207C94.6391 492.965 95.7601 492.367 96.6396 491.487C97.5192 490.608 98.1177 489.487 98.3592 488.267C98.6007 487.046 98.4744 485.782 97.9961 484.634C97.5179 483.485 96.7093 482.505 95.673 481.817C94.6368 481.129 93.4195 480.764 92.1756 480.769C90.5188 480.775 88.9315 481.436 87.7599 482.608C86.5884 483.779 85.9273 485.366 85.9209 487.023Z" fill="#0447BA"/>
    <path d="M92.1757 483.339L90.7454 485.448L88.2969 486.151L89.8484 488.163L89.7757 490.708L92.1757 489.836L94.5758 490.708L94.4788 488.163L96.0546 486.151L93.6061 485.448L92.1757 483.339Z" fill="white"/>
    <path d="M119.958 489.812C119.958 489.812 125.51 492.745 127.595 494.175C128.56 494.829 129.344 495.717 129.874 496.755C130.404 497.794 130.662 498.95 130.625 500.115H115.4C115.4 500.115 115.716 492.672 119.958 489.812Z" fill="white"/>
    <path d="M81.0488 500.115V504.309C81.0488 505.012 81.6792 505.4 82.7459 505.4H128.953C129.995 505.4 130.625 505.012 130.625 504.309V500.115H81.0488Z" fill="white"/>
    <path d="M115.4 486.975C115.535 486.769 115.744 486.623 115.984 486.569C116.224 486.515 116.475 486.556 116.685 486.684C116.79 486.748 116.88 486.833 116.952 486.933C117.023 487.033 117.074 487.146 117.101 487.265C117.128 487.385 117.131 487.509 117.11 487.63C117.088 487.751 117.043 487.866 116.976 487.969L115.352 490.587C115.274 490.723 115.16 490.835 115.024 490.912C114.887 490.989 114.733 491.027 114.576 491.024C114.397 491.021 114.221 490.971 114.067 490.878C113.962 490.814 113.872 490.729 113.8 490.63C113.729 490.53 113.678 490.417 113.651 490.297C113.624 490.177 113.621 490.053 113.643 489.933C113.664 489.812 113.709 489.696 113.776 489.593L115.4 486.975Z" fill="white"/>
    <path d="M112.54 484.963C112.619 484.87 112.716 484.795 112.825 484.74C112.934 484.685 113.053 484.652 113.174 484.643C113.296 484.634 113.418 484.649 113.534 484.687C113.65 484.726 113.757 484.786 113.849 484.866C113.941 484.945 114.017 485.042 114.072 485.151C114.127 485.26 114.16 485.379 114.169 485.5C114.178 485.622 114.163 485.744 114.124 485.86C114.086 485.975 114.026 486.083 113.946 486.175L112.055 488.405C111.968 488.507 111.86 488.59 111.739 488.649C111.618 488.707 111.486 488.74 111.352 488.745C111.176 488.741 111.005 488.689 110.858 488.594C110.71 488.499 110.592 488.364 110.516 488.206C110.441 488.047 110.411 487.871 110.43 487.696C110.449 487.522 110.517 487.356 110.625 487.217L112.54 484.963Z" fill="white"/>
    <path d="M109.849 482.709C110.042 482.584 110.274 482.534 110.501 482.568C110.727 482.602 110.934 482.717 111.083 482.892C111.231 483.067 111.311 483.29 111.307 483.519C111.303 483.749 111.216 483.969 111.061 484.139L108.904 486.006C108.735 486.149 108.519 486.226 108.298 486.224C108.164 486.229 108.031 486.203 107.91 486.148C107.788 486.093 107.68 486.011 107.595 485.909C107.505 485.825 107.434 485.723 107.385 485.611C107.336 485.498 107.311 485.377 107.311 485.254C107.311 485.131 107.336 485.01 107.385 484.897C107.434 484.785 107.505 484.683 107.595 484.6L109.849 482.709Z" fill="white"/>
    <path d="M105.121 481.593L107.546 480.09C107.758 479.964 108.012 479.927 108.252 479.986C108.492 480.045 108.7 480.195 108.83 480.405C108.896 480.51 108.94 480.626 108.96 480.748C108.979 480.87 108.974 480.995 108.945 481.114C108.915 481.234 108.862 481.347 108.789 481.446C108.715 481.545 108.622 481.628 108.515 481.69L106.091 483.193C105.947 483.289 105.779 483.339 105.606 483.339C105.448 483.335 105.294 483.291 105.158 483.21C105.022 483.129 104.909 483.015 104.83 482.878C104.702 482.668 104.661 482.417 104.715 482.177C104.77 481.937 104.915 481.727 105.121 481.593Z" fill="white"/>
    <path d="M103.085 478.466L105.8 477.327C106.032 477.23 106.292 477.23 106.524 477.325C106.756 477.421 106.94 477.604 107.036 477.836C107.084 477.949 107.108 478.07 107.108 478.192C107.108 478.315 107.084 478.436 107.036 478.549C106.989 478.662 106.919 478.764 106.832 478.85C106.745 478.935 106.641 479.003 106.527 479.048L103.812 480.188H103.449C103.239 480.176 103.04 480.096 102.881 479.959C102.723 479.822 102.614 479.637 102.573 479.431C102.531 479.226 102.559 479.013 102.651 478.825C102.744 478.637 102.897 478.485 103.085 478.394V478.466Z" fill="white"/>
    <path d="M101.388 474.975L104.394 474.223C104.632 474.165 104.883 474.204 105.092 474.332C105.302 474.459 105.452 474.664 105.509 474.902C105.567 475.14 105.528 475.391 105.401 475.6C105.274 475.809 105.069 475.959 104.831 476.017L101.849 476.793H101.631C101.422 476.791 101.219 476.721 101.053 476.594C100.887 476.468 100.767 476.291 100.709 476.09C100.657 475.852 100.699 475.604 100.825 475.396C100.952 475.189 101.153 475.038 101.388 474.975Z" fill="white"/>
    <path d="M70.8662 345.082C71.1329 333.348 79.036 327.676 90.7453 327.967C102.455 328.257 110.891 334.391 110.624 346.1L101.339 468.357H83.7392L70.8662 345.082Z" fill="#FBBEAA"/>
    <path d="M69.3397 345.009C69.405 342.223 70.0183 339.478 71.1446 336.929C72.2709 334.38 73.8882 332.078 75.9041 330.155C77.9201 328.231 80.2951 326.723 82.8937 325.718C85.4923 324.712 88.2635 324.228 91.0491 324.293C93.8348 324.359 96.5804 324.972 99.129 326.098C101.678 327.224 103.98 328.842 105.903 330.858C107.827 332.874 109.334 335.249 110.34 337.847C111.346 340.446 111.83 343.217 111.765 346.003L114.678 472.465H66.75L69.3397 345.009Z" fill="#013EA5"/>
    <path d="M9.55615 467.411C9.55615 465.077 10.4833 462.839 12.1337 461.188C13.784 459.538 16.0224 458.611 18.3563 458.611C20.6903 458.611 22.9286 459.538 24.579 461.188C26.2293 462.839 27.1565 465.077 27.1565 467.411V486.539H9.55615V467.411Z" fill="#FBBEAA"/>
    <path d="M26.5019 470.975C28.6838 470.975 29.0717 471.92 29.6778 473.157C30.7117 476.452 32.4675 479.475 34.8172 482.005C38.3136 484.993 42.0701 487.662 46.0417 489.981V500.115H6.86523C6.86523 500.115 7.13191 492.115 7.32585 486.466C7.5198 480.818 8.05316 473.933 8.02892 473.205C8.00467 472.478 8.0289 470.975 9.33801 470.975H26.5019Z" fill="#302D3B"/>
    <path d="M11.7139 487.023C11.7091 488.266 12.0733 489.482 12.7603 490.518C13.4473 491.554 14.4263 492.363 15.5731 492.842C16.72 493.32 17.9833 493.448 19.2028 493.209C20.4224 492.969 21.5435 492.373 22.424 491.496C23.3046 490.619 23.905 489.5 24.1492 488.281C24.3935 487.063 24.2706 485.799 23.796 484.65C23.3215 483.502 22.5168 482.52 21.4837 481.829C20.4506 481.137 19.2357 480.769 17.9928 480.769C16.3318 480.769 14.7384 481.427 13.5615 482.599C12.3847 483.771 11.7203 485.362 11.7139 487.023Z" fill="#0447BA"/>
    <path d="M17.9687 483.339L16.5384 485.448L14.0898 486.151L15.6657 488.163L15.5929 490.708L17.9687 489.836L20.3688 490.708L20.296 488.163L21.8718 486.151L19.399 485.448L17.9687 483.339Z" fill="white"/>
    <path d="M45.7505 489.812C45.7505 489.812 51.3263 492.745 53.387 494.175C54.3571 494.824 55.1449 495.711 55.6754 496.751C56.2059 497.79 56.4613 498.949 56.4173 500.115H41.1201C41.1201 500.115 41.5323 492.672 45.7505 489.812Z" fill="white"/>
    <path d="M6.86523 500.115V504.309C6.86523 505.012 7.47131 505.4 8.538 505.4H54.7933C55.86 505.4 56.4661 505.012 56.4661 504.309V500.115H6.86523Z" fill="white"/>
    <path d="M41.2172 486.975C41.349 486.766 41.5585 486.618 41.7994 486.564C42.0404 486.509 42.2931 486.552 42.5021 486.684C42.711 486.816 42.8591 487.025 42.9137 487.266C42.9682 487.507 42.9248 487.76 42.793 487.969L41.1688 490.587C41.0847 490.723 40.9667 490.835 40.8265 490.911C40.6862 490.988 40.5285 491.027 40.3687 491.024C40.1963 491.024 40.0276 490.974 39.8839 490.878C39.7794 490.814 39.6887 490.729 39.6173 490.63C39.5459 490.53 39.4952 490.417 39.4681 490.297C39.441 490.177 39.438 490.053 39.4595 489.933C39.4809 489.812 39.5263 489.696 39.5929 489.593L41.2172 486.975Z" fill="white"/>
    <path d="M38.3323 484.963C38.4922 484.777 38.7181 484.66 38.9624 484.637C39.2066 484.615 39.4501 484.688 39.6414 484.842C39.8291 485.006 39.9465 485.236 39.969 485.484C39.9916 485.732 39.9177 485.98 39.7626 486.175L37.8474 488.405C37.7634 488.511 37.6565 488.597 37.5348 488.655C37.413 488.714 37.2796 488.745 37.1444 488.745C36.9667 488.747 36.7923 488.697 36.6421 488.602C36.492 488.507 36.3726 488.37 36.2983 488.209C36.224 488.047 36.1979 487.868 36.2233 487.692C36.2487 487.516 36.3244 487.351 36.4413 487.217L38.3323 484.963Z" fill="white"/>
    <path d="M35.6661 482.709C35.8589 482.584 36.0904 482.534 36.3174 482.568C36.5443 482.602 36.7513 482.717 36.8996 482.892C37.048 483.067 37.1276 483.29 37.1236 483.519C37.1197 483.749 37.0325 483.969 36.8782 484.139L34.6964 486.006C34.5272 486.149 34.312 486.226 34.0903 486.224C33.9571 486.227 33.8249 486.2 33.7032 486.146C33.5816 486.091 33.4737 486.01 33.3873 485.909C33.3008 485.823 33.2321 485.721 33.1852 485.609C33.1384 485.496 33.1143 485.376 33.1143 485.254C33.1143 485.132 33.1384 485.012 33.1852 484.899C33.2321 484.787 33.3008 484.685 33.3873 484.6L35.6661 482.709Z" fill="white"/>
    <path d="M30.9382 481.593L33.3625 480.09C33.5716 480.002 33.8055 479.992 34.0214 480.062C34.2374 480.132 34.421 480.277 34.5386 480.471C34.6563 480.665 34.7001 480.895 34.6622 481.119C34.6243 481.343 34.5072 481.546 34.3322 481.69L31.9079 483.193C31.7642 483.289 31.5955 483.339 31.423 483.339C31.2614 483.337 31.1031 483.293 30.963 483.213C30.8229 483.132 30.7059 483.017 30.623 482.878C30.4971 482.665 30.4595 482.412 30.5184 482.171C30.5773 481.931 30.728 481.724 30.9382 481.593Z" fill="white"/>
    <path d="M165.147 73.3926L155.45 134.266C153.85 141.903 156.322 148.812 165.147 150.024C166.776 150.236 168.431 150.115 170.011 149.668C171.592 149.221 173.065 148.458 174.342 147.424C175.618 146.39 176.671 145.107 177.437 143.654C178.202 142.201 178.665 140.607 178.795 138.969L181.753 73.5138C182.529 67.3319 179.838 63.2106 175.135 62.7015C169.365 62.0712 166.31 65.4895 165.147 73.3926Z" fill="#FBBEAA"/>
    <path d="M28.9027 478.466L31.6179 477.327C31.7308 477.28 31.852 477.255 31.9744 477.255C32.0968 477.255 32.2179 477.28 32.3308 477.327C32.4436 477.374 32.5459 477.444 32.6316 477.531C32.7174 477.619 32.7848 477.722 32.8301 477.836C32.9206 478.062 32.9207 478.313 32.8304 478.539C32.7401 478.765 32.5664 478.947 32.3452 479.048L29.6058 480.187C29.494 480.213 29.3781 480.213 29.2664 480.187C29.0797 480.187 28.8972 480.132 28.7419 480.029C28.5866 479.925 28.4654 479.778 28.3936 479.606C28.32 479.387 28.3315 479.148 28.4258 478.937C28.5201 478.725 28.6904 478.558 28.9027 478.466Z" fill="white"/>
    <path d="M27.2043 474.975L30.1862 474.224C30.4272 474.165 30.6818 474.203 30.8949 474.33C31.1081 474.457 31.2628 474.662 31.3257 474.902C31.3546 475.02 31.3599 475.142 31.3414 475.262C31.3229 475.382 31.2809 475.497 31.2179 475.601C31.1548 475.704 31.0719 475.795 30.9739 475.866C30.8759 475.938 30.7647 475.989 30.6468 476.017L27.665 476.793H27.4226C27.2041 476.777 26.9983 476.684 26.8402 476.533C26.6822 476.381 26.5816 476.179 26.5559 475.962C26.5301 475.744 26.5807 475.524 26.699 475.34C26.8173 475.156 26.9959 475.018 27.2043 474.951V474.975Z" fill="white"/>
    <path d="M19.181 344.718C20.3718 339.215 23.6992 334.41 28.4317 331.36C33.1641 328.309 38.9142 327.263 44.4178 328.451C55.8846 330.875 62.0665 342.173 59.5938 353.639L27.1569 470.369H9.33838L19.181 344.718Z" fill="#FBBEAA"/>
    <path d="M19.1809 342.415C20.4966 337.044 23.8552 332.398 28.5427 329.465C33.2302 326.532 38.8768 325.543 44.2822 326.708C49.6876 327.873 54.4254 331.1 57.4885 335.704C60.5515 340.308 61.6981 345.924 60.6846 351.36L49.2857 471.331C49.2857 471.331 18.4003 473.174 0 471.331L19.1809 342.415Z" fill="#013EA5"/>
    <path d="M173.026 127.527L103.4 74.6288C95.2789 69.4408 89.7516 72.2045 85.4364 77.7561C83.4657 80.4432 82.552 83.7611 82.8694 87.0782C83.1868 90.3953 84.7131 93.4798 87.1576 95.7444L156.613 146.921C159.061 148.988 162.212 150.031 165.409 149.832C168.607 149.634 171.604 148.209 173.777 145.854L174.092 145.515C175.246 144.285 176.136 142.832 176.709 141.247C177.283 139.661 177.527 137.975 177.427 136.291C177.327 134.608 176.886 132.963 176.129 131.456C175.372 129.949 174.316 128.612 173.026 127.527Z" fill="#FBBEAA"/>
    <path d="M87.1578 95.7202C86.5149 95.1669 85.93 94.5496 85.4123 93.8777C84.9545 92.1523 84.8955 90.3453 85.24 88.5938C85.5844 86.8422 86.3232 85.1921 87.4002 83.7685C91.0609 78.1199 98.7458 73.6835 102.164 74.532L105.558 76.2532L143.983 105.345C140.582 113.337 135.988 120.767 130.359 127.381L87.1578 95.7202Z" fill="#F18380"/>
    <path d="M97.6544 70.8468L157.907 111.484C157.653 113.562 162.536 70.8468 162.536 70.8468L184.837 72.9284C184.837 72.9284 183.535 116.418 180.253 139.386C178.95 148.501 171.363 151.957 162.367 149.995C157.926 149.026 153.744 147.203 150.023 144.591C134.034 133.368 89.1764 101.757 85.5088 97.7806C79.1814 90.9199 79.1814 85.7804 82.8178 80.1318C86.4543 74.4832 94.2362 69.9983 97.6544 70.8468Z" fill="#013EA5"/>
    <path d="M69.3389 345.009L56.9023 214.801C56.9023 200.425 71.7147 184.764 93.5575 188.134C113.291 191.213 119.303 211.043 117.679 229.832C116.055 248.62 111.667 345.93 111.667 345.93C111.602 348.716 110.988 351.462 109.862 354.01C108.736 356.559 107.118 358.861 105.103 360.784C103.087 362.708 100.712 364.216 98.113 365.221C95.5144 366.227 92.7431 366.711 89.9575 366.646C87.1718 366.581 84.4263 365.967 81.8776 364.841C79.329 363.715 77.0271 362.097 75.1035 360.081C73.1799 358.066 71.6722 355.691 70.6665 353.092C69.6608 350.493 69.1767 347.722 69.242 344.936L69.3389 345.009Z" fill="#013EA5"/>
    <path d="M19.1811 342.415L31.545 212.231C34.1632 198.098 51.7393 185.564 72.5639 192.982C91.3521 199.698 93.5339 220.304 88.3944 238.462C83.2549 256.62 60.6849 351.361 60.6849 351.361C59.3691 356.731 56.0105 361.377 51.3231 364.31C46.6356 367.243 40.9889 368.233 35.5836 367.068C30.1782 365.903 25.4403 362.675 22.3773 358.071C19.3143 353.468 18.1676 347.851 19.1811 342.415Z" fill="#013EA5"/>
    <path d="M88.3941 238.462C83.2789 256.62 60.6846 351.361 60.6846 351.361" stroke="#E9E9E9" stroke-width="0.75" stroke-miterlimit="10"/>
    <path d="M84.7577 68.786C84.7577 68.786 95.4731 70.6527 97.558 71.2103C98.7884 71.499 99.9253 72.0953 100.862 72.9433C101.799 73.7913 102.506 74.8633 102.916 76.0588C104.249 79.2346 111.11 100.035 111.74 102.29C112.166 104.773 111.766 107.328 110.601 109.562C109.607 112.278 104.467 124.642 104.467 124.642L103.691 164.472L74.7468 169.063L47.0116 164.472C47.0116 164.472 37.3145 90.3864 36.8296 85.8045C36.3448 81.2226 38.6236 72.374 44.1025 71.2588C49.5814 70.1436 64.6119 68.8345 64.6119 68.8345L84.7577 68.786Z" fill="#FBBEAA"/>
    <path d="M105.05 148.457V162.46C86.0924 164.206 55.8846 162.97 44.539 162.46C44.0056 158.46 43.448 151.672 42.8662 147.163C58.3089 147.551 83.8136 148.99 105.05 148.457Z" fill="white"/>
    <path d="M5.071 160.909L36.1261 79.1862C40.2716 70.4588 46.405 69.877 53.0961 72.3013C56.1908 73.5358 58.7223 75.8671 60.207 78.8499C61.6917 81.8327 62.0255 85.2579 61.1447 88.4713L29.1684 168.739C28.1991 171.793 26.0845 174.353 23.2683 175.88C20.4521 177.408 17.1535 177.786 14.0651 176.933L13.6045 176.812C11.9753 176.368 10.4538 175.596 9.13261 174.544C7.81143 173.492 6.7183 172.183 5.91985 170.695C5.1214 169.207 4.63436 167.571 4.48842 165.889C4.34249 164.207 4.54071 162.512 5.071 160.909Z" fill="#FBBEAA"/>
    <path d="M85.0478 64.2346C85.6526 64.2346 86.9377 64.2346 88.0717 64.6126C88.0717 65.5198 86.0558 66.2505 85.0478 66.5025C84.7958 65.7466 84.443 64.2346 85.0478 64.2346Z" fill="#013FA9"/>
    <path d="M17.9438 127.017L36.126 79.1861C36.6136 78.1372 37.1894 77.1316 37.8472 76.18C40.0744 74.7856 42.6241 73.9904 45.249 73.8715C47.874 73.7525 50.4852 74.3139 52.8293 75.5012C55.5514 76.8258 57.7394 79.0403 59.0312 81.7781C60.3229 84.5159 60.6409 87.6128 59.9324 90.556C59.9324 90.8469 59.7628 91.4045 59.6173 92.1561L40.8533 139.308C32.6573 136.353 24.9388 132.212 17.9438 127.017Z" fill="#F18380"/>
    <path d="M38.5552 73.6843C33.2633 80.4883 2.646 163.646 2.646 163.646C30.9953 154.574 28.3352 130.057 43.7537 132.651C43.7537 132.651 61.5332 90.92 62.212 87.1866C62.9205 84.2434 62.6025 81.1466 61.3108 78.4088C60.019 75.671 57.831 73.4564 55.1089 72.1318C47.5209 68.253 43.847 66.8803 38.5552 73.6843Z" fill="#0045BA"/>
    <path d="M85.5577 65.9017C78.7212 69.1502 68.7574 66.2411 63.9331 57.3198V48.7621H85.5577V65.9017Z" fill="#F18380"/>
    <path d="M89.9958 68.7705C95.599 69.836 98.1313 69.9633 99.5541 70.9015C101.805 72.4118 113.397 92.8764 113.397 102.111C113.397 110.28 111.42 175.631 109.772 176.696C108.124 177.762 78.6221 179.144 78.6221 179.144V86.604C81.6163 77.3363 87.8722 74.7659 89.9958 68.7705Z" fill="#0045BA"/>
    <path d="M99.5541 70.9015C98.1313 69.9633 92.541 69.08 86.9379 68.0145C84.8143 74.0099 81.6163 77.3363 78.6221 86.604V102.111H113.397C113.397 92.8764 101.805 72.4118 99.5541 70.9015Z" fill="#9A99A1"/>
    <path d="M78.2442 65.7466C71.2892 65.7466 65.0145 62.7226 62.7466 61.2107V68.0145C62.9986 68.3925 64.9389 69.6021 70.6844 71.4164C76.4299 73.2308 84.6701 72.5504 88.072 71.4164V64.6126C88.072 64.9906 86.938 65.7466 78.2442 65.7466Z" fill="#034CC9"/>
    <path d="M113.386 103.546H78.6221V95.9859L112.398 96.316C113.057 98.9152 113.471 100.771 113.386 103.546Z" fill="#D3D4D2"/>
    <path d="M34.1019 172.447C34.1019 164.879 32.901 146.888 39.6415 129.473C45.5072 130.894 58.2552 87.7417 45.5072 73.3585C41.2709 68.5788 37.547 75.495 38.664 73.7136C39.7809 71.9323 41.0189 70.1839 42.8429 69.3454C46.0972 67.7665 53.328 68.0312 59.8453 68.0312C67.6662 77.6204 75.7666 79.7551 78.622 86.6198V179.11C78.622 179.11 34.1019 180.015 34.1019 172.447Z" fill="#034CC9"/>
    <path d="M34.1019 172.447C34.1019 164.879 32.901 146.888 39.6415 129.473C45.5072 130.894 58.2552 87.7417 45.5072 73.3585C41.2709 68.5788 37.547 75.495 38.664 73.7136C39.7809 71.9323 41.0189 70.1839 42.8429 69.3454C46.0972 67.7665 53.328 68.0312 59.8453 68.0312C67.6662 77.6204 75.7666 79.7551 78.622 86.6198V179.11C78.622 179.11 34.1019 180.015 34.1019 172.447Z" fill="#034CC9"/>
    <path d="M38.555 73.6844C37.4381 75.4658 41.2709 68.5787 45.5072 73.3584C50.8623 79.4004 51.7183 90.519 50.4754 101.278H78.622L78.6221 72.5504C71.0623 71.7944 67.2823 70.6605 62.7464 68.0145C56.2291 68.0145 45.9671 67.5696 42.7128 69.1485C40.8888 69.987 39.672 71.9031 38.555 73.6844Z" fill="#A2A0AB"/>
    <path d="M78.6221 179.144C80.5537 178.496 82.2441 177.247 83.4621 175.569C84.68 173.891 85.3659 171.865 85.4259 169.768V66.1245H78.6221V179.144Z" fill="#034CC9"/>
    <path d="M50.898 95.9859H85.4256V103.546H50.1901C50.6504 100.144 50.898 98.6318 50.898 95.9859Z" fill="#CFD1CE"/>
    <g style="mix-blend-mode:multiply" opacity="0.4">
        <path d="M77.8662 72.3955L78.6222 72.5504V179.144H77.8662V72.3955Z" fill="#013FA9"/>
    </g>
    <path d="M63.6662 10.7241C62.3813 7.62103 55.9085 6.2392 52.2721 7.9362C48.6357 9.6332 44.9992 14.0938 44.4659 26.2152C43.9325 38.3367 44.9265 47.5974 42.7446 53.7066C44.7614 53.4516 46.6585 52.6085 48.1993 51.2823C48.1993 52.8824 48.4417 56.7612 48.4417 56.7612C49.6152 56.6659 50.7367 56.2361 51.6734 55.5228C52.6101 54.8096 53.3226 53.8428 53.7266 52.7369C54.3845 54.136 54.8024 55.6358 54.963 57.1734C57.0964 56.0582 63.6662 54.1188 63.6662 42.6277V10.7241Z" fill="#1D1B24"/>
    <path d="M105.921 50.9918C105.267 42.1917 102.673 27.646 102.673 27.646L96.4668 27.3066C96.4668 27.3066 94.8183 53.5131 94.3577 59.2344C93.897 64.9557 92.2485 66.5072 92.2485 66.5072C92.2485 66.5072 100.127 65.4163 101.364 58.0222C101.545 59.47 101.642 60.927 101.655 62.386C101.655 62.386 106.6 59.792 105.921 50.9918Z" fill="#302D3B"/>
    <path d="M99.0605 32.9795C99.1634 37.9024 98.9366 42.8266 98.3817 47.7192C97.5089 54.7253 95.0361 62.4831 82.648 62.4831C70.2599 62.4831 63.9811 56.883 61.3143 47.7192C59.7143 42.1918 56.4658 33.9977 57.7991 24.543C59.1325 15.0883 64.8296 8.90644 78.2843 8.5428C91.7391 8.17916 100.467 14.1913 99.0605 32.9795Z" fill="#FBBEAA"/>
    <path d="M72.854 37.1733C72.9359 37.5376 73.1189 37.8715 73.3819 38.1366C73.6448 38.4017 73.9771 38.5874 74.3407 38.6725C74.7043 38.7575 75.0845 38.7384 75.4378 38.6173C75.791 38.4963 76.103 38.2782 76.3381 37.988C76.5731 37.6979 76.7217 37.3474 76.7667 36.9767C76.8118 36.606 76.7515 36.2301 76.5928 35.8921C76.4342 35.5541 76.1835 35.2676 75.8695 35.0654C75.5556 34.8633 75.191 34.7536 74.8176 34.7491C74.5283 34.7762 74.2473 34.8608 73.9911 34.998C73.7349 35.1352 73.5087 35.3222 73.3258 35.5481C73.1429 35.7739 73.0069 36.034 72.9259 36.3131C72.8448 36.5922 72.8204 36.8847 72.854 37.1733Z" fill="#403D4F"/>
    <path d="M90.8908 37.1733C90.973 37.5387 91.1567 37.8733 91.4208 38.1388C91.6849 38.4043 92.0185 38.5898 92.3834 38.674C92.7483 38.7582 93.1295 38.7375 93.4832 38.6145C93.8369 38.4915 94.1486 38.2712 94.3826 37.9788C94.6165 37.6864 94.763 37.3339 94.8054 36.9618C94.8477 36.5898 94.7842 36.2133 94.622 35.8758C94.4598 35.5383 94.2055 35.2535 93.8885 35.0542C93.5715 34.8548 93.2047 34.7491 92.8302 34.7491C92.543 34.7792 92.2647 34.866 92.0113 35.0045C91.7579 35.143 91.5345 35.3305 91.3541 35.556C91.1737 35.7815 91.0398 36.0406 90.9603 36.3182C90.8808 36.5959 90.8572 36.8865 90.8908 37.1733Z" fill="#403D4F"/>
    <path d="M78.7209 30.313L78.5269 30.0948C78.3238 29.921 78.1046 29.7668 77.8723 29.6342C77.5715 29.4492 77.2446 29.3103 76.9026 29.2221C76.5221 29.0787 76.1211 28.9969 75.7148 28.9797C75.3284 28.9312 74.9375 28.9312 74.5511 28.9797C74.2123 28.9502 73.8717 28.9502 73.5329 28.9797L72.5874 29.2463C72.4566 29.2987 72.3471 29.3934 72.2764 29.5153C72.2058 29.6372 72.178 29.7793 72.1975 29.9189C72.217 30.0584 72.2828 30.1874 72.3842 30.2852C72.4857 30.383 72.617 30.444 72.7571 30.4584H73.7268C74.0085 30.4219 74.2937 30.4219 74.5754 30.4584C74.8901 30.4344 75.2061 30.4344 75.5208 30.4584C75.8306 30.4989 76.1381 30.5556 76.442 30.6282C76.7329 30.6282 76.9754 30.8221 77.2178 30.8463C77.3889 30.9221 77.5677 30.9791 77.7512 31.0161H77.9451C78.0999 31.0829 78.2745 31.0875 78.4326 31.0288C78.5907 30.9701 78.72 30.8526 78.7936 30.7009C78.8296 30.6166 78.8482 30.5259 78.8482 30.4342C78.8482 30.3426 78.8296 30.2518 78.7936 30.1675L78.7209 30.313Z" fill="#403D4F"/>
    <path d="M90.5028 31.2337H90.6725L91.0362 31.0883H91.3028C91.3931 31.0334 91.4911 30.9925 91.5937 30.9671C91.7998 30.8964 92.0104 30.8397 92.224 30.7974C92.4571 30.7632 92.694 30.7632 92.9271 30.7974C93.1285 30.7741 93.3318 30.7741 93.5332 30.7974H94.3089C94.4718 30.7911 94.626 30.7219 94.739 30.6043C94.852 30.4868 94.9151 30.3301 94.915 30.167C94.9168 30.0452 94.8805 29.9258 94.8109 29.8257C94.7413 29.7257 94.642 29.65 94.5271 29.6094L93.7755 29.3428C93.5103 29.2508 93.232 29.2017 92.9513 29.1973C92.6227 29.1373 92.2859 29.1373 91.9573 29.1973C91.3218 29.2663 90.7177 29.5096 90.2118 29.9004C90.0405 30.0351 89.886 30.1897 89.7513 30.361C89.6301 30.5065 89.63 30.5549 89.63 30.5549V30.7974C89.6092 30.961 89.6534 31.1263 89.7531 31.2578C89.8529 31.3892 90.0002 31.4764 90.1634 31.5004C90.236 31.4836 90.3041 31.4509 90.3628 31.4048C90.4214 31.3588 90.4692 31.3003 90.5028 31.2337Z" fill="#403D4F"/>
    <path d="M85.5572 45.416C85.9668 45.4194 86.3725 45.337 86.7483 45.1742C87.1241 45.0113 87.4616 44.7716 87.7391 44.4705C87.8411 44.3651 87.9198 44.2394 87.9699 44.1015C88.02 43.9636 88.0405 43.8168 88.03 43.6705C88.03 43.4038 87.6179 40.0583 87.4724 38.8219C87.4544 38.6975 87.3886 38.5849 87.289 38.508C87.1895 38.4311 87.0641 38.3959 86.9391 38.4097C86.8192 38.4277 86.7104 38.49 86.6341 38.5842C86.5578 38.6784 86.5195 38.7979 86.5269 38.9189C86.5269 39.1128 87.0603 43.5008 87.1087 43.7675C86.9103 43.9872 86.6668 44.1615 86.3949 44.2786C86.123 44.3958 85.829 44.453 85.533 44.4463C85.4736 44.4462 85.4148 44.4582 85.3602 44.4816C85.3056 44.5051 85.2564 44.5393 85.2155 44.5825C85.1747 44.6256 85.143 44.6767 85.1226 44.7324C85.1021 44.7882 85.0933 44.8476 85.0966 44.9069C85.0854 44.9721 85.0892 45.0389 85.1076 45.1024C85.1261 45.1659 85.1588 45.2244 85.2032 45.2734C85.2475 45.3224 85.3024 45.3608 85.3638 45.3855C85.4251 45.4102 85.4913 45.4206 85.5572 45.416Z" fill="#F18380"/>
    <path d="M95.6423 9.58522C92.6119 5.60939 83.0602 0.348656 69.6297 4.54267C56.1991 8.73668 53.1688 19.0642 53.1203 27.4522C52.9297 31.9837 53.8712 36.4912 55.8598 40.5676H59.6416C65.6539 38.7251 69.7267 32.1068 72.151 27.7431C71.7968 29.7848 71.7396 31.867 71.9812 33.9251C75.4419 33.1697 78.6688 31.5894 81.3875 29.3189C80.7376 31.0955 80.2586 32.9301 79.9571 34.7978C83.0664 34.0722 85.9135 32.4984 88.1818 30.2515C90.4501 28.0046 92.0508 25.1725 92.8058 22.0703C95.5502 25.5874 97.6737 29.5474 99.0847 33.7795C101.094 32.8439 102.823 31.3981 104.099 29.586C105.375 27.7739 102.296 24.2772 102.5 22.0703C102.645 16.0338 100.491 11.1852 95.6423 9.58522Z" fill="#302D3B"/>
    <path d="M61.7996 42.0465C61.6057 38.7495 60.7329 34.7737 56.7086 35.4767C52.0055 36.1797 51.5449 48.9072 61.5572 47.3799L61.7996 42.0465Z" fill="#FBBEAA"/>
    <path d="M56.3204 42.8953C56.4047 42.8965 56.4877 42.8745 56.5604 42.8318C56.6331 42.789 56.6926 42.7271 56.7326 42.6529C56.8352 42.44 56.9925 42.2583 57.1884 42.1263C57.3844 41.9942 57.6119 41.9166 57.8477 41.9014C58.1247 41.9042 58.3964 41.9768 58.638 42.1124C58.8795 42.2479 59.0829 42.4422 59.2296 42.6771C59.284 42.7644 59.3662 42.8309 59.4628 42.866C59.5595 42.9012 59.6651 42.9029 59.7629 42.8711C59.8605 42.8348 59.9439 42.7681 60.0007 42.6808C60.0575 42.5934 60.0846 42.4902 60.078 42.3862C60.0417 41.362 59.7239 40.3676 59.1594 39.5123C58.5948 38.6569 57.8055 37.9737 56.878 37.5377C56.7623 37.4993 56.636 37.5083 56.527 37.5628C56.4179 37.6174 56.3349 37.7129 56.2962 37.8286C56.2578 37.9443 56.2668 38.0706 56.3214 38.1796C56.3759 38.2887 56.4715 38.3717 56.5871 38.4104C57.1319 38.6752 57.6171 39.0483 58.0131 39.5067C58.4091 39.9652 58.7075 40.4995 58.8902 41.0771C58.5445 40.9331 58.1737 40.8589 57.7992 40.8589C57.4074 40.896 57.0304 41.0279 56.7009 41.2433C56.3715 41.4588 56.0994 41.7512 55.9083 42.0953C55.8789 42.1493 55.8605 42.2086 55.8544 42.2697C55.8482 42.3309 55.8544 42.3926 55.8724 42.4513C55.8905 42.5101 55.9201 42.5646 55.9596 42.6117C55.9991 42.6588 56.0475 42.6975 56.1022 42.7256L56.3204 42.8953Z" fill="#F18380"/>
    <path d="M56.9266 50.2888C58.0903 41.5371 61.4358 27.1368 61.4358 27.1368H67.6662C67.6662 27.1368 67.9086 53.3918 68.0783 59.1374C68.248 64.8829 69.7753 66.6041 69.7753 66.6041C69.7753 66.6041 61.9691 65.1011 61.1206 57.6343C60.8604 59.0769 60.6903 60.5343 60.6115 61.998C60.6115 61.998 55.7872 59.0404 56.9266 50.2888Z" fill="#302D3B"/>
    <path d="M67.3269 122.532L28.7323 170.606C24.1504 176.909 17.3624 179.721 10.5987 174.048C9.34769 172.985 8.32565 171.679 7.59456 170.209C6.86347 168.74 6.43856 167.137 6.34562 165.498C6.25267 163.859 6.49363 162.218 7.05386 160.675C7.61409 159.132 8.48192 157.718 9.60473 156.521L56.1025 110.459C60.151 105.732 65.0238 104.98 68.5633 108.035C72.8543 111.841 72.3452 116.302 67.3269 122.532Z" fill="#FBBEAA"/>
    <path d="M53.775 112.981C58.066 108.641 66.0904 99.2834 68.8056 97.0046C71.4903 94.9817 74.4234 93.3115 77.533 92.0347C79.8922 91.2445 82.3312 90.7161 84.8059 90.459C86.5271 90.2408 87.2302 90.7499 87.2302 91.7924C87.1869 92.4134 86.989 93.0137 86.6545 93.5387C86.32 94.0638 85.8595 94.4968 85.315 94.7984H88.4908C89.5817 94.7984 90.2847 95.6712 89.7756 97.0773C89.3133 98.0062 88.6523 98.8222 87.8396 99.4674C87.0268 100.113 86.0822 100.571 85.0725 100.811C85.0725 100.811 89.3635 101.223 90.4544 101.441C91.5454 101.659 91.8848 102.071 91.8848 103.114C91.8754 103.834 91.6752 104.539 91.3047 105.156C90.9342 105.774 90.4066 106.282 89.7756 106.629C88.2312 107.256 86.5919 107.616 84.9271 107.696C84.9271 107.696 90.2363 109.029 91.3029 109.417C92.3696 109.805 92.4909 110.508 91.9333 111.429C91.6155 112.078 91.1567 112.648 90.5905 113.096C90.0242 113.545 89.3648 113.862 88.6605 114.023C86.6483 114.556 85.2907 113.684 84.5634 113.805C83.0008 114.308 81.4706 114.907 79.9816 115.599C77.7454 117.825 75.0114 119.487 72.0057 120.447C69.7683 121.386 67.716 122.716 65.945 124.375C65.12 125.149 64.1481 125.75 63.0869 126.142C62.0256 126.534 60.8966 126.709 59.7664 126.657C58.6363 126.605 57.5281 126.327 56.5073 125.839C55.4865 125.351 54.5739 124.664 53.8235 123.817C49.9447 119.696 50.5992 116.253 53.775 112.981Z" fill="#FBBEAA"/>
    <path d="M68.0383 127.737L29.0118 171.622C24.3351 177.855 13.4066 181.281 6.72946 175.506C5.49468 174.424 4.49252 173.103 3.78376 171.622C3.07499 170.141 2.67438 168.532 2.60624 166.892C2.53811 165.252 2.80386 163.615 3.38738 162.08C3.97089 160.546 4.86001 159.146 6.00081 157.966L53.2966 108.46L68.0383 127.737Z" fill="#0045BA"/>
    <path d="M84.782 94.8227C84.7889 94.8627 84.7873 94.9038 84.7773 94.9433C84.7673 94.9827 84.7492 95.0196 84.7241 95.0516C84.699 95.0835 84.6674 95.1099 84.6314 95.129C84.5955 95.148 84.556 95.1592 84.5154 95.162L82.5275 95.356H81.5578C81.2184 95.356 80.9032 95.4772 80.5638 95.5015C80.2053 95.609 79.8565 95.7468 79.5214 95.9135L78.4062 96.3742C76.9031 96.9802 75.4001 97.5378 74.2849 97.9499C73.1697 98.3621 72.394 98.6045 72.394 98.6045C72.3325 98.6305 72.2635 98.6324 72.2007 98.6099C72.1379 98.5875 72.0857 98.5423 72.0546 98.4833C72.0093 98.4241 71.9849 98.3517 71.9849 98.2772C71.9849 98.2028 72.0093 98.1304 72.0546 98.0712L73.8728 97.1257L75.7637 96.2287C76.4425 95.9136 77.194 95.5984 77.9455 95.3075L79.085 94.8711C79.4514 94.7055 79.833 94.5756 80.2244 94.4832L81.3881 94.362H82.382H83.8608H84.4184C84.4795 94.3138 84.5572 94.2918 84.6345 94.3009C84.7118 94.31 84.7824 94.3494 84.8306 94.4105C84.8788 94.4716 84.9008 94.5493 84.8917 94.6266C84.8826 94.7039 84.8431 94.7744 84.782 94.8227ZM84.3214 100.665H83.8851C83.5222 100.633 83.157 100.633 82.7941 100.665L82.0426 100.786C81.7656 100.821 81.4905 100.87 81.2183 100.932L79.5699 101.465C78.4547 101.829 77.3638 102.289 76.5395 102.629C76.5395 102.629 76.2728 102.629 76.2971 102.75H76.0062L75.5698 102.871H75.3031H75.1576C75.0844 102.889 75.0208 102.934 74.9802 102.997C74.9395 103.06 74.9249 103.137 74.9395 103.211C74.95 103.269 74.9796 103.322 75.0234 103.361C75.0673 103.401 75.123 103.424 75.1819 103.429H76.4183H76.8061C77.6546 103.211 78.794 102.871 79.9092 102.483L81.5335 101.877L82.285 101.683L82.9396 101.489C83.2744 101.39 83.6143 101.309 83.9578 101.247L84.37 101.126C84.4066 101.115 84.4407 101.096 84.4703 101.072C84.4999 101.048 84.5244 101.018 84.5424 100.984C84.5604 100.95 84.5716 100.913 84.5753 100.875C84.5789 100.837 84.5751 100.799 84.5639 100.762C84.5352 100.727 84.4978 100.699 84.4553 100.682C84.4129 100.665 84.3668 100.659 84.3214 100.665ZM84.3214 107.55H83.4245C83.182 107.55 82.8669 107.55 82.5517 107.72L81.5578 108.035C80.9323 108.255 80.3245 108.523 79.7396 108.835C79.4706 108.961 79.2113 109.107 78.9638 109.271C78.9143 109.329 78.8871 109.402 78.8871 109.477C78.8871 109.553 78.9143 109.626 78.9638 109.684C79.0334 109.757 79.1291 109.801 79.2304 109.805L80.1275 109.659C80.6366 109.538 81.2911 109.344 81.9457 109.126L82.8911 108.738L83.7154 108.423C83.9898 108.301 84.257 108.164 84.5154 108.011C84.584 107.97 84.6346 107.905 84.6571 107.829C84.6796 107.752 84.6723 107.67 84.6366 107.599C84.5648 107.553 84.4782 107.535 84.3942 107.55H84.3214Z" fill="#F18380"/>
    <path d="M165.922 52.3739C165.001 52.3739 164.928 51.7921 164.516 50.7254C166.577 50.7254 172.565 51.1132 175.183 56.1558C172.54 52.5193 167.474 52.3739 165.922 52.3739ZM170.625 33.1978C170.625 33.1978 170.48 34.0463 170.334 35.2827C170.334 35.913 170.189 36.6645 170.14 37.4403C170.092 38.2161 170.019 39.0646 169.946 39.8646C169.946 41.5616 169.825 43.2343 169.825 44.495C169.825 45.7556 169.825 46.6041 169.825 46.6041C169.825 46.6444 169.833 46.6844 169.849 46.7213C169.866 46.7583 169.889 46.7915 169.919 46.8188C169.949 46.8462 169.984 46.8671 170.022 46.8803C170.06 46.8934 170.1 46.8983 170.14 46.895C170.209 46.8915 170.274 46.866 170.326 46.8223C170.379 46.7786 170.416 46.7191 170.431 46.6526C170.431 46.6526 170.577 45.804 170.698 44.5434C170.819 43.2828 171.013 41.61 171.086 39.9373C171.086 39.0888 171.086 38.2403 171.086 37.513C171.086 36.7857 171.086 35.9857 171.086 35.3554C171.086 34.0706 171.086 33.2462 171.086 33.2462C171.086 33.2059 171.078 33.166 171.062 33.1291C171.046 33.0921 171.022 33.0588 170.992 33.0315C170.963 33.0041 170.928 32.9832 170.89 32.9701C170.851 32.957 170.811 32.952 170.771 32.9553C170.724 32.9821 170.686 33.0212 170.66 33.0682C170.635 33.1153 170.623 33.1685 170.625 33.2221V33.1978ZM176.25 34.8948C176.25 34.8948 176.104 35.6221 175.934 36.6888C175.934 37.2463 175.765 37.8766 175.692 38.5554C175.619 39.2342 175.547 39.9615 175.474 40.6888C175.474 42.1434 175.304 43.5979 175.28 44.6889C175.256 45.7798 175.28 46.5313 175.28 46.5313C175.283 46.5696 175.294 46.6068 175.311 46.641C175.329 46.6751 175.353 46.7055 175.382 46.7303C175.411 46.7551 175.445 46.7739 175.482 46.7855C175.518 46.7971 175.557 46.8014 175.595 46.7981C175.66 46.7935 175.722 46.7671 175.77 46.7231C175.819 46.6791 175.851 46.6201 175.862 46.5556C175.862 46.5556 176.007 45.8283 176.177 44.7616C176.347 43.6949 176.492 42.2161 176.613 40.7858C176.613 40.0585 176.613 39.3312 176.759 38.6524C176.904 37.9736 176.759 37.3191 176.759 36.7615C176.759 35.6706 176.759 34.9433 176.759 34.9433C176.759 34.9029 176.751 34.8631 176.735 34.8261C176.718 34.7891 176.695 34.7559 176.665 34.7285C176.635 34.7011 176.601 34.6803 176.562 34.6672C176.524 34.6541 176.484 34.649 176.444 34.6524C176.39 34.6746 176.343 34.7112 176.309 34.7583C176.275 34.8054 176.254 34.861 176.25 34.919V34.8948ZM181.68 37.1978C181.68 37.1978 181.535 37.8039 181.341 38.7251C181.341 39.1615 181.147 39.6949 181.074 40.2767C181.001 40.8586 180.904 41.4646 180.807 42.0707C180.638 43.3071 180.565 44.4949 180.516 45.4647C180.468 46.4344 180.516 47.0162 180.516 47.0162C180.516 47.0566 180.524 47.0964 180.541 47.1334C180.557 47.1704 180.58 47.2036 180.61 47.231C180.64 47.2584 180.675 47.2792 180.713 47.2923C180.751 47.3054 180.791 47.3105 180.831 47.3071C180.893 47.3039 180.953 47.281 181.001 47.2417C181.049 47.2025 181.083 47.149 181.098 47.089C181.098 47.089 181.268 46.4829 181.438 45.5859C181.607 44.6889 181.85 43.4283 181.995 42.2161C181.995 41.5858 182.116 40.9797 182.165 40.3979C182.213 39.8161 182.165 39.2828 182.165 38.8221C182.165 37.9009 182.165 37.2706 182.165 37.2706C182.165 37.2302 182.157 37.1903 182.141 37.1534C182.125 37.1164 182.101 37.0831 182.071 37.0558C182.042 37.0284 182.007 37.0076 181.968 36.9945C181.93 36.9814 181.89 36.9763 181.85 36.9797C181.805 37.0046 181.766 37.0394 181.737 37.0814C181.708 37.1234 181.688 37.1715 181.68 37.2221V37.1978Z" fill="#F18380"/>
    <path d="M83.571 51.4857C81.2307 51.3954 78.9837 50.5443 77.1709 49.0614" stroke="#73102A" stroke-width="0.5" stroke-miterlimit="10" stroke-linecap="round"/>
    <path d="M6.80371 425.594L9.07166 410.853H55.1866L53.6746 425.972L6.80371 425.594Z" fill="#CFD1CE"/>
    <path d="M67.6606 425.594L68.0386 410.853H113.398L113.776 425.972L67.6606 425.594Z" fill="#CFD1CE"/>
    <path d="M21.9233 139.077L29.8612 132.651L45.7368 152.685L39.3109 160.244L21.9233 139.077Z" fill="#CFD1CE"/>
    <path d="M158.378 106.57L159.512 97.4979L183.704 99.3878L183.326 108.46L158.378 106.57Z" fill="#CFD1CE"/>
    <path d="M73.0414 26.8574C72.0077 29.9581 70.3976 32.8353 68.296 35.3376H63.1518C63.1518 35.3376 59.164 30.7084 58.8649 30.3293C58.4325 29.8681 58.1039 29.3197 57.9009 28.7208C57.698 28.122 57.6256 27.4866 57.6885 26.8574H73.0414Z" fill="#676575"/>
    <path d="M68.2959 35.3377C68.2959 45.3145 65 59.5001 80.5 62.5001C80.5 62.5001 70.569 61.9757 66.7606 57.0871C62.9523 52.1985 63.1517 35.2579 63.1517 35.2579L68.2959 35.3377Z" fill="#827F94"/>
    <path d="M54 28.1345H104.326C104.709 23.5849 104.277 19.0034 103.05 14.6059C101.056 8.89922 97.068 1.91547 80.3792 1.91547C63.6903 1.91547 57.8482 9.73727 56.6718 15.6635C55.4954 21.5897 56.0537 23.5252 55.3558 24.1637C54.658 24.8022 54 24.8222 54 25.78V28.1345Z" fill="#EFEFEF"/>
    <path d="M80.3792 1.91558C84.0186 1.84943 87.6494 2.2927 91.1662 3.23252H91.3257L91.9438 3.43205C93.6285 3.95121 95.2325 4.70342 96.7092 5.66685C97.712 9.8048 97.9752 14.0877 97.4868 18.3174H91.9438L84.5664 17.0603C84.5664 17.0603 82.2336 5.0882 73.939 2.29469C76.0739 2.0143 78.2262 1.8876 80.3792 1.91558Z" fill="#D8D8D8"/>
    <path d="M79.2222 0H90.4877C91.684 0 97.4862 4.50951 97.4862 19.9536H84.6655C84.6655 15.4042 83.8679 3.49188 76.6899 1.99536C76.7099 2.03527 77.7866 0 79.2222 0Z" fill="#EFEFEF"/>
    <path d="M112.361 28.1344V25.2212C112.36 24.8036 112.272 24.3908 112.104 24.0087C111.936 23.6266 111.69 23.2833 111.383 23.0004C111.076 22.7176 110.714 22.5012 110.32 22.3649C109.925 22.2286 109.507 22.1752 109.091 22.2082H102.651C102.281 22.2255 101.911 22.1632 101.567 22.0255C101.224 21.8878 100.913 21.6779 100.657 21.4101C100.238 20.9312 97.387 18.2574 97.0481 17.8583C96.8151 17.5536 96.5124 17.3093 96.1654 17.1461C95.8184 16.9829 95.4373 16.9055 95.0542 16.9205H85.6829C85.3003 16.9088 84.9203 16.9876 84.5738 17.1506C84.2273 17.3135 83.9242 17.556 83.689 17.8583C83.3501 18.2574 80.4988 20.9312 80.08 21.4101C79.8248 21.679 79.5145 21.8896 79.1703 22.0273C78.8262 22.1651 78.4563 22.2268 78.0862 22.2082H72.7226C72.3066 22.1752 71.8883 22.2286 71.4939 22.3649C71.0995 22.5012 70.7375 22.7176 70.4305 23.0004C70.1235 23.2833 69.8782 23.6266 69.7099 24.0087C69.5417 24.3908 69.4541 24.8036 69.4526 25.2212V28.1344H112.361Z" fill="#D8D8D8"/>
</svg>
