<svg width="221" height="504" viewBox="0 0 221 504" fill="none" xmlns="http://www.w3.org/2000/svg">
    <path d="M102.346 89.5029C103.041 89.5029 104.517 89.5029 105.819 89.937C105.819 90.9787 103.504 91.8179 102.346 92.1072C102.057 91.2391 101.652 89.5029 102.346 89.5029Z" fill="#013FA9"/>
    <path d="M104.612 69.7646H76.7666V101.874H104.612V69.7646Z" fill="#FBBEAA"/>
    <path d="M76.8357 69.7646H104.589V87.6788C103.376 87.8265 102.156 87.9022 100.935 87.9056C91.3598 87.9056 80.6517 85.3432 76.7432 76.386L76.8357 69.7646Z" fill="#F18380"/>
    <path d="M118.998 45.9321C118.767 55.2068 118.998 62.5312 117.286 69.6062C115.575 76.6812 110.348 82.4637 98.7842 82.4637C87.2205 82.4637 74.0378 78.7674 73.1127 64.5947C71.2162 62.5766 68.1402 55.3882 68.0246 47.3381C67.909 39.288 68.5566 22.2581 87.2668 19.6503C105.977 17.0425 119.507 23.7774 118.998 45.9321Z" fill="#FBBEAA"/>
    <path d="M109.215 53.2335C109.215 54.4806 109.978 55.5011 110.926 55.5011C111.874 55.5011 112.638 54.4806 112.638 53.2335C112.638 51.9863 111.874 50.9658 110.926 50.9658C109.978 50.9658 109.215 51.8955 109.215 53.2335Z" fill="#403D4F"/>
    <path d="M88.3994 53.2335C88.3994 54.4806 89.1626 55.5011 90.1108 55.5011C91.0591 55.5011 91.8223 54.4806 91.8223 53.2335C91.8223 51.9863 91.0591 50.9658 90.1108 50.9658C89.1626 50.9658 88.3994 51.8955 88.3994 53.2335Z" fill="#403D4F"/>
    <path d="M92.586 48.5169C92.4241 48.721 91.1984 48.5169 90.2733 48.5169C89.3482 48.5169 87.5674 48.5169 87.5674 48.3128C87.5674 48.1088 88.4462 46.7028 90.7589 46.9523C92.4241 47.1337 93.0254 48.1541 92.586 48.5169Z" fill="#403D4F"/>
    <path d="M108.822 48.5169C108.961 48.721 110.002 48.5169 110.811 48.5169C111.621 48.5169 113.124 48.5169 113.124 48.3128C112.916 47.7988 112.525 47.3769 112.022 47.1264C111.519 46.8758 110.941 46.8139 110.395 46.9522C108.961 47.1336 108.568 48.1541 108.822 48.5169Z" fill="#403D4F"/>
    <path d="M101.999 62.6218C103.618 62.6218 104.913 61.5787 104.959 60.8304L104.427 54.4356C104.41 54.2772 104.33 54.1317 104.204 54.03C104.079 53.9284 103.919 53.8787 103.756 53.8914C103.677 53.8971 103.6 53.9181 103.53 53.9532C103.459 53.9883 103.396 54.0367 103.344 54.0957C103.293 54.1547 103.253 54.2231 103.229 54.297C103.204 54.3709 103.195 54.4489 103.201 54.5263L103.71 60.6943C103.476 60.9428 103.189 61.137 102.869 61.2625C102.549 61.3881 102.204 61.4419 101.86 61.4199C101.779 61.4138 101.698 61.4237 101.621 61.4491C101.544 61.4746 101.473 61.515 101.413 61.568C101.352 61.6209 101.303 61.6853 101.269 61.7573C101.234 61.8293 101.215 61.9074 101.212 61.9869C101.212 62.1477 101.274 62.3027 101.385 62.4205C101.497 62.5384 101.65 62.6103 101.814 62.6218H101.999Z" fill="#F18380"/>
    <path d="M76.9329 58.4945C74.3966 58.1953 72.7675 56.2268 72.3074 53.9592C71.8474 51.6916 70.4048 52.8254 67.6819 52.8254C64.959 52.8254 63.567 47.5759 62.7107 43.5825C61.597 38.3887 63.2553 32.3084 64.889 30.161C60.5324 26.403 62.7107 13.5183 63.7999 17.8132C64.6712 21.2491 67.7935 22.8239 69.2457 23.1818C73.6024 7.29069 90.666 10.1182 98.6533 13.5183C104.011 11.4058 108.758 13.4785 111.395 15.4773C115.01 14.8703 118.153 14.9844 112.812 16.7395C112.453 16.3525 111.975 15.9167 111.395 15.4773C108.375 15.9843 105.025 16.9946 106.017 17.972C108.195 20.1195 134.051 34.4559 124.793 39.8245C117.387 44.1194 106.459 40.5403 101.921 38.2139C96.6928 42.5088 89.5769 41.0772 86.6724 39.8245C86.2367 42.4015 81.2425 46.0879 79.2457 48.4143C77.2489 50.7407 78.0893 58.6309 76.9329 58.4945Z" fill="#F3E8AE"/>
    <path d="M73.6216 57.542C73.506 54.9569 73.0896 51.1473 69.343 51.0565C65.5963 50.9658 65.1106 53.7323 65.2263 58.0862C65.3419 62.4401 69.8518 66.1363 73.8066 64.6397L73.6216 57.542Z" fill="#FBBEAA"/>
    <path d="M68.1171 60.6715C68.2793 60.6438 68.4238 60.5544 68.5191 60.4227C68.6143 60.2911 68.6528 60.1278 68.6259 59.9686C68.6261 59.8406 68.663 59.7152 68.7326 59.6069C68.8021 59.4986 68.9014 59.4118 69.0191 59.3563C69.2551 59.2013 69.5329 59.1185 69.817 59.1185C70.1011 59.1185 70.3788 59.2013 70.6149 59.3563C70.7176 59.4119 70.833 59.441 70.9502 59.441C71.0675 59.441 71.1829 59.4119 71.2856 59.3563C71.3798 59.2952 71.4554 59.2103 71.5043 59.1104C71.5531 59.0106 71.5735 58.8997 71.5631 58.7894C71.2393 55.1385 68.8572 54.4582 68.7647 54.4355C68.6857 54.4116 68.6026 54.404 68.5205 54.413C68.4383 54.422 68.359 54.4475 68.2874 54.488C68.2158 54.5284 68.1534 54.5829 68.1042 54.648C68.055 54.7131 68.02 54.7874 68.0015 54.8664C67.9588 55.0167 67.9786 55.1775 68.0567 55.3136C68.1347 55.4496 68.2646 55.5497 68.4178 55.592C68.8798 55.7971 69.2824 56.1118 69.5893 56.5077C69.8962 56.9036 70.0976 57.3683 70.1755 57.8597C69.5417 57.7584 68.892 57.8874 68.3484 58.2225C68.0316 58.4046 67.7756 58.6729 67.6114 58.995C67.4471 59.317 67.3818 59.6789 67.4233 60.0366C67.4194 60.1249 67.435 60.2131 67.4692 60.2949C67.5033 60.3767 67.5551 60.4504 67.6211 60.5107C67.687 60.571 67.7655 60.6167 67.8511 60.6444C67.9368 60.6722 68.0275 60.6814 68.1171 60.6715Z" fill="#F18380"/>
    <path d="M100.404 70.7849C98.1709 70.7004 96.0273 69.9043 94.2979 68.5173" stroke="#73102A" stroke-width="0.5" stroke-miterlimit="10" stroke-linecap="round"/>
    <path d="M113.103 426.838C113.103 426.838 111.978 474.327 111.696 481.431C111.415 488.534 106.892 490.467 99.6039 491.096C92.3157 491.725 89.2457 485.972 88.2146 481.407C87.1834 476.842 80.9497 430.285 80.9497 430.285L113.103 426.838Z" fill="#FBBEAA"/>
    <path d="M66.0215 427.986C66.0215 427.986 59.8239 475.61 58.7987 482.7C57.7736 489.789 53.0905 491.297 45.7978 491.132C38.5052 490.967 36.1054 484.867 35.5695 480.18C35.0336 475.493 33.8687 427.986 33.8687 427.986H66.0215Z" fill="#FBBEAA"/>
    <path d="M47.0213 467.056C49.6682 466.869 52.2927 467.648 54.3964 469.246C56.5001 470.844 57.9366 473.15 58.4331 475.725L70.615 488.06V495.737H31.5723C31.5723 495.737 33.5326 481.904 34.0927 478.791C34.6527 475.679 36.543 467.056 47.0213 467.056Z" fill="#FBBEAA"/>
    <path d="M58.5824 475.953C59.0332 475.34 59.6737 474.868 60.1244 475.151C60.5751 475.434 72.555 484.86 73.1243 485.332C73.475 485.659 73.7402 486.066 73.8973 486.517C74.0543 486.969 74.0984 487.452 74.0258 487.924V498.033H30.4238C30.4238 498.033 32.1318 483.093 32.2504 482.268C32.369 481.443 33.1993 480.359 33.6738 480.383C36.6665 481.294 39.7724 481.785 42.9019 481.844C47.0611 482.063 51.21 481.253 54.9766 479.487C56.3732 478.523 57.5928 477.327 58.5824 475.953Z" fill="#302D3B"/>
    <path d="M66.81 489.841C64.7453 488.282 57.3219 482.377 54.5381 480.157L55.1876 479.826C55.2753 479.787 55.3542 479.731 55.4196 479.66C58.389 482.022 65.3717 487.597 67.3667 489.109C69.0532 490.424 70.2085 492.323 70.6145 494.447L69.7098 494.589C69.3271 492.706 68.2992 491.023 66.81 489.841Z" fill="white"/>
    <path d="M31.7131 487.699C34.7544 487.73 37.6974 488.787 40.0715 490.702C42.2174 492.617 43.6709 495.196 44.2037 498.033H42.9359C42.4173 495.575 41.1344 493.346 39.2732 491.672C37.0882 489.909 34.3717 488.95 31.5723 488.952L31.7131 487.699Z" fill="white"/>
    <path d="M81.4606 496.885H31.0612C30.7092 496.885 30.4238 497.204 30.4238 497.598V503.062C30.4238 503.456 30.7092 503.775 31.0612 503.775H81.4606C81.8126 503.775 82.098 503.456 82.098 503.062V497.598C82.098 497.204 81.8126 496.885 81.4606 496.885Z" fill="white"/>
    <path d="M73.1057 485.43C73.5281 485.259 75.5956 485.834 78.2856 488.368C79.4055 489.477 80.2118 490.841 80.628 492.331C81.0443 493.822 81.0568 495.389 80.6643 496.885H67.1699C67.9258 488.709 72.6833 485.6 73.1057 485.43Z" fill="white"/>
    <path d="M67.3556 484.956C67.2185 485.157 67.1531 485.413 67.1736 485.671C67.1942 485.928 67.299 486.165 67.4654 486.331C67.547 486.411 67.6411 486.471 67.7424 486.508C67.8436 486.545 67.9499 486.558 68.0553 486.546C68.1607 486.534 68.263 486.497 68.3564 486.438C68.4498 486.378 68.5325 486.297 68.5997 486.2L70.4292 483.56C70.5663 483.36 70.6317 483.104 70.6112 482.846C70.5906 482.589 70.4858 482.352 70.3194 482.186C70.2389 482.103 70.145 482.04 70.0434 482.001C69.9419 481.963 69.8348 481.949 69.7287 481.961C69.6227 481.974 69.5198 482.012 69.4264 482.073C69.3329 482.134 69.2508 482.217 69.1851 482.317L67.3556 484.956Z" fill="white"/>
    <path d="M65.0591 483.402C64.9217 483.652 64.8562 483.972 64.8768 484.293C64.8974 484.614 65.0024 484.91 65.1691 485.117C65.2498 485.22 65.3439 485.299 65.4457 485.347C65.5474 485.395 65.6547 485.412 65.761 485.397C65.8673 485.381 65.9704 485.334 66.064 485.258C66.1577 485.182 66.2399 485.078 66.3057 484.953L68.139 481.66C68.272 481.408 68.3347 481.09 68.3142 480.771C68.2937 480.452 68.1916 480.157 68.029 479.946C67.9483 479.842 67.8542 479.764 67.7524 479.716C67.6507 479.668 67.5434 479.651 67.4371 479.666C67.3308 479.681 67.2277 479.728 67.1341 479.805C67.0405 479.881 66.9582 479.984 66.8924 480.109L65.0591 483.402Z" fill="white"/>
    <path d="M61.6792 480.773C61.4982 480.919 61.4092 481.108 61.4316 481.299C61.4541 481.49 61.5862 481.667 61.7989 481.791C62.0187 481.914 62.3005 481.972 62.583 481.954C62.8655 481.935 63.126 481.841 63.308 481.692L65.7034 479.706C65.8041 479.639 65.8841 479.559 65.9387 479.47C65.9933 479.381 66.0215 479.286 66.0215 479.189C66.0215 479.093 65.9933 478.998 65.9387 478.909C65.8841 478.82 65.8041 478.74 65.7034 478.672C65.4812 478.553 65.2009 478.497 64.9202 478.516C64.6395 478.534 64.3797 478.625 64.1943 478.771L61.6792 480.773Z" fill="white"/>
    <path d="M59.3151 478.741C59.248 478.865 59.1976 479.007 59.1668 479.16C59.136 479.312 59.1254 479.473 59.1356 479.632C59.1457 479.791 59.1764 479.945 59.226 480.086C59.2755 480.227 59.3429 480.352 59.4243 480.454C59.5774 480.681 59.7834 480.809 59.9978 480.809C60.2123 480.809 60.4182 480.681 60.5713 480.454L62.392 477.085C62.5285 476.831 62.5935 476.506 62.5731 476.181C62.5526 475.855 62.4483 475.555 62.2828 475.345C62.2015 475.243 62.1078 475.167 62.0071 475.12C61.9064 475.074 61.8005 475.057 61.6957 475.073C61.5908 475.088 61.489 475.135 61.3961 475.21C61.3031 475.285 61.2208 475.387 61.1539 475.511L59.3151 478.741Z" fill="white"/>
    <path d="M103.298 467.056C105.946 466.869 108.572 467.648 110.677 469.246C112.782 470.844 114.219 473.15 114.716 475.725L126.882 488.06V495.737H87.8394C87.8394 495.737 89.7774 481.904 90.3612 478.791C90.945 475.679 92.8131 467.056 103.298 467.056Z" fill="#FBBEAA"/>
    <path d="M113.724 475.953C114.175 475.34 114.792 474.868 115.267 475.151C115.741 475.434 127.707 484.86 128.253 485.332C128.799 485.803 129.179 486.392 129.179 487.924V498.033H85.543C85.543 498.033 87.2523 483.093 87.371 482.268C87.4897 481.443 88.3207 480.359 88.7955 480.383C91.7905 481.294 94.8989 481.785 98.0308 481.844C102.186 482.067 106.331 481.257 110.091 479.487C111.5 478.528 112.729 477.331 113.724 475.953Z" fill="#302D3B"/>
    <path d="M120.781 489.841C118.716 488.282 111.293 482.377 108.509 480.157L109.136 479.826C109.23 479.788 109.317 479.732 109.391 479.66C112.36 482.022 119.343 487.597 121.338 489.109C123.024 490.424 124.18 492.323 124.586 494.447L123.681 494.589C123.287 492.71 122.261 491.031 120.781 489.841Z" fill="white"/>
    <path d="M87.9674 487.699C90.7322 487.73 93.4076 488.787 95.5659 490.702C97.5167 492.617 98.8381 495.196 99.3225 498.033H98.1699C97.6927 495.572 96.5187 493.343 94.8189 491.672C92.8424 489.906 90.3784 488.946 87.8394 488.952L87.9674 487.699Z" fill="white"/>
    <path d="M135.431 496.885H85.0319C84.6799 496.885 84.3945 497.204 84.3945 497.598V503.062C84.3945 503.456 84.6799 503.775 85.0319 503.775H135.431C135.783 503.775 136.069 503.456 136.069 503.062V497.598C136.069 497.204 135.783 496.885 135.431 496.885Z" fill="white"/>
    <path d="M127.571 485.43C128.029 485.259 130.268 485.834 133.183 488.368C134.396 489.477 135.269 490.841 135.72 492.331C136.171 493.822 136.185 495.389 135.76 496.885H121.141C121.959 488.709 127.113 485.6 127.571 485.43Z" fill="white"/>
    <path d="M122.537 484.956C122.354 485.157 122.267 485.413 122.294 485.671C122.321 485.928 122.462 486.165 122.684 486.331C122.793 486.411 122.919 486.471 123.054 486.508C123.189 486.545 123.331 486.558 123.472 486.546C123.613 486.534 123.749 486.497 123.874 486.438C123.999 486.378 124.11 486.297 124.199 486.2L126.644 483.56C126.821 483.358 126.905 483.103 126.877 482.847C126.85 482.591 126.714 482.355 126.497 482.186C126.389 482.103 126.264 482.04 126.128 482.001C125.993 481.963 125.85 481.949 125.708 481.961C125.566 481.974 125.429 482.012 125.304 482.073C125.179 482.134 125.069 482.217 124.981 482.317L122.537 484.956Z" fill="white"/>
    <path d="M120.179 483.399C120.041 483.649 119.976 483.97 119.996 484.291C120.017 484.613 120.122 484.909 120.289 485.116C120.369 485.22 120.464 485.298 120.565 485.347C120.667 485.395 120.774 485.412 120.881 485.397C120.987 485.381 121.09 485.334 121.184 485.258C121.277 485.181 121.36 485.078 121.425 484.953L123.259 481.654C123.392 481.402 123.454 481.083 123.434 480.763C123.413 480.444 123.311 480.148 123.149 479.937C122.98 479.733 122.765 479.635 122.549 479.666C122.332 479.697 122.133 479.853 121.994 480.101L120.179 483.399Z" fill="white"/>
    <path d="M116.873 480.775C116.77 480.841 116.688 480.919 116.632 481.007C116.576 481.094 116.547 481.188 116.547 481.283C116.547 481.378 116.576 481.472 116.632 481.559C116.688 481.646 116.77 481.725 116.873 481.791C117.099 481.914 117.389 481.972 117.68 481.954C117.97 481.935 118.238 481.842 118.426 481.693L120.89 479.71C121.075 479.559 121.163 479.366 121.136 479.173C121.108 478.98 120.967 478.802 120.743 478.677C120.633 478.617 120.506 478.571 120.369 478.544C120.233 478.516 120.09 478.506 119.948 478.516C119.806 478.525 119.668 478.552 119.542 478.597C119.416 478.642 119.305 478.702 119.214 478.775L116.873 480.775Z" fill="white"/>
    <path d="M114.495 478.741C114.405 478.865 114.338 479.007 114.297 479.16C114.256 479.312 114.242 479.473 114.255 479.632C114.269 479.791 114.31 479.945 114.376 480.086C114.442 480.227 114.532 480.352 114.64 480.454C114.845 480.681 115.119 480.809 115.405 480.809C115.691 480.809 115.966 480.681 116.17 480.454L118.597 477.085C118.779 476.831 118.866 476.506 118.839 476.181C118.812 475.855 118.672 475.555 118.452 475.345C118.343 475.243 118.219 475.167 118.084 475.12C117.95 475.074 117.809 475.057 117.669 475.073C117.529 475.088 117.393 475.135 117.269 475.21C117.146 475.285 117.036 475.387 116.947 475.511L114.495 478.741Z" fill="white"/>
    <path d="M37.5054 326.067C37.1158 329.099 37.3206 332.179 38.1082 335.13C38.8957 338.081 40.2502 340.844 42.0935 343.259C43.9367 345.673 46.232 347.692 48.8467 349.198C51.4613 350.704 54.3434 351.667 57.3262 352.032C60.3089 352.397 63.3332 352.157 66.224 351.324C69.1148 350.492 71.8147 349.084 74.1677 347.183C76.5206 345.282 78.4799 342.924 79.932 340.248C81.3842 337.571 82.3005 334.627 82.6279 331.588C82.6279 331.588 94.4578 247.013 97.2634 229.926C100.069 212.84 97.0998 198.538 78.3027 194.469C58.8042 190.257 46.6235 204.797 45.1505 219.361C43.6776 233.924 37.5054 326.067 37.5054 326.067Z" fill="#013EA5"/>
    <path d="M75.4936 327.693C75.418 333.812 77.7787 339.709 82.0564 344.089C86.3342 348.469 92.1786 350.972 98.3038 351.047C104.429 351.123 110.333 348.765 114.718 344.492C119.103 340.219 121.609 334.381 121.684 328.263C121.684 328.263 124.607 243.105 125.605 225.851C126.603 208.596 122.088 194.759 102.652 192.765C82.503 190.7 71.7632 206.436 71.7632 221.056C71.7632 235.676 75.4936 327.693 75.4936 327.693Z" fill="#013EA5"/>
    <path d="M75.208 327.88C75.2462 324.854 75.8928 321.864 77.111 319.082C78.3293 316.301 80.0952 313.781 82.308 311.667C84.5209 309.554 87.1373 307.887 90.0078 306.764C92.8784 305.64 95.9469 305.081 99.0382 305.118C102.129 305.156 105.183 305.789 108.024 306.982C110.866 308.174 113.439 309.903 115.598 312.07C117.757 314.236 119.459 316.798 120.606 319.608C121.754 322.419 122.325 325.423 122.287 328.449L117.444 450.391L79.4461 454.398L75.208 327.88Z" fill="#013EA5"/>
    <path d="M37.586 326.417C38.3693 320.369 41.4837 314.878 46.2526 311.136C51.0215 307.393 57.0597 305.703 63.0557 306.431C69.0517 307.159 74.5211 310.246 78.276 315.024C82.0309 319.801 83.768 325.881 83.1099 331.944L65.3485 453.249H28.1274L37.586 326.417Z" fill="#013EA5"/>
    <path d="M82.0978 330.38L64.873 452.101" stroke="#013EA5" stroke-width="0.75" stroke-miterlimit="10" stroke-linecap="round"/>
    <path d="M83.2466 331.528C83.2466 331.528 95.313 247.46 98.1747 230.476" stroke="#F5F5F5" stroke-width="0.75" stroke-miterlimit="10" stroke-linecap="round"/>
    <path d="M123.437 202.917C123.437 202.917 123.437 226.878 123.437 228.195C123.437 229.512 111.918 240.811 96.6195 240.811C73.0961 240.811 44.9419 232.192 45.3566 226.578C45.6331 222.881 45.9786 202.917 45.9786 202.917H123.437Z" fill="#013EA5"/>
    <path d="M194.325 104.612L183.19 174.515C181.353 183.284 184.192 191.218 194.325 192.61C196.196 192.853 198.096 192.714 199.911 192.201C201.726 191.688 203.418 190.811 204.884 189.623C206.35 188.436 207.559 186.963 208.438 185.295C209.317 183.626 209.848 181.796 209.998 179.915L213.395 104.752C214.286 97.6528 211.196 92.9203 205.795 92.3357C199.169 91.6119 195.662 95.5371 194.325 104.612Z" fill="#FBBEAA"/>
    <path d="M203.373 166.775L123.421 106.032C114.095 100.075 107.748 103.248 102.793 109.623C100.53 112.709 99.4808 116.519 99.8453 120.328C100.21 124.137 101.962 127.679 104.77 130.279L184.527 189.046C187.337 191.42 190.955 192.618 194.627 192.389C198.299 192.161 201.741 190.525 204.236 187.821L204.598 187.432C205.922 186.019 206.945 184.351 207.603 182.53C208.262 180.709 208.542 178.773 208.427 176.84C208.313 174.907 207.805 173.018 206.937 171.287C206.068 169.557 204.855 168.022 203.373 166.775Z" fill="#FBBEAA"/>
    <path d="M194.658 102.747C194.773 100.238 194.102 97.7564 192.737 95.648C190.637 93.2128 189.064 90.3693 188.116 87.2964C187.387 84.444 186.223 81.7209 184.664 79.2232C183.551 77.6921 181.88 76.4394 181.88 75.2702C181.88 74.101 184.107 71.8461 187.281 72.4864C188.64 72.9098 189.889 73.6286 190.939 74.5911C191.988 75.5536 192.811 76.7361 193.35 78.0541C193.654 77.2511 193.832 76.406 193.879 75.5486L194.575 58.4837C194.585 58.0413 194.684 57.6055 194.866 57.202C195.048 56.7986 195.309 56.4356 195.633 56.1346C195.958 55.8336 196.339 55.6006 196.755 55.4495C197.171 55.2983 197.613 55.232 198.054 55.2544C198.758 55.2844 199.435 55.5342 199.989 55.9686C200.543 56.4031 200.947 57.0003 201.145 57.6763V56.8969C201.252 56.0673 201.669 55.309 202.312 54.7741C202.955 54.2392 203.776 53.9673 204.612 54.0131C205.447 54.0589 206.234 54.419 206.814 55.021C207.395 55.623 207.727 56.4225 207.742 57.2588V59.6251C208.021 58.8955 208.553 58.2905 209.24 57.9202C209.928 57.5498 210.726 57.439 211.488 57.6077C212.251 57.7764 212.927 58.2134 213.395 58.8392C213.862 59.465 214.089 60.2379 214.034 61.017V62.5202C214.333 61.9936 214.78 61.5658 215.319 61.2889C215.858 61.0121 216.466 60.8982 217.068 60.9612C217.893 61.066 218.645 61.4878 219.165 62.1373C219.684 62.7868 219.931 63.613 219.852 64.441L218.488 78.8335C217.594 86.9478 215.916 94.9563 213.477 102.747C213.447 104.047 213.146 105.328 212.592 106.505C212.039 107.682 211.245 108.731 210.261 109.583C209.278 110.435 208.127 111.072 206.883 111.453C205.639 111.834 204.329 111.95 203.038 111.794C201.869 111.833 200.705 111.62 199.625 111.17C198.546 110.72 197.576 110.043 196.781 109.185C195.986 108.326 195.386 107.307 195.019 106.197C194.653 105.086 194.53 103.909 194.658 102.747Z" fill="#FBBEAA"/>
    <path d="M116.822 101.689L186.011 148.353C185.72 150.74 191.327 101.689 191.327 101.689L216.936 104.079C216.936 104.079 215.44 154.019 211.671 180.393C210.175 190.86 201.463 194.83 191.133 192.576C186.033 191.463 181.231 189.37 176.958 186.371C158.597 173.484 107.087 137.184 102.875 132.617C95.6095 124.739 95.6095 118.837 99.7852 112.351C103.961 105.865 112.897 100.715 116.822 101.689Z" fill="#013EA5"/>
    <path d="M195.215 80.4764C194.157 80.4764 194.074 79.8083 193.601 78.5834C195.967 78.5834 202.843 79.0288 205.849 84.8191C202.815 80.6434 196.997 80.4764 195.215 80.4764ZM200.616 58.4562C200.616 58.4562 200.449 59.4306 200.282 60.8503C200.282 61.5741 200.115 62.4371 200.059 63.3279C200.003 64.2187 199.92 65.1931 199.836 66.1117C199.836 68.0604 199.697 69.9813 199.697 71.4289C199.697 72.8765 199.697 73.8508 199.697 73.8508C199.697 73.8971 199.706 73.943 199.725 73.9855C199.743 74.0279 199.771 74.066 199.805 74.0974C199.839 74.1288 199.879 74.1529 199.923 74.1679C199.966 74.183 200.013 74.1887 200.059 74.1848C200.137 74.1809 200.212 74.1516 200.273 74.1014C200.333 74.0512 200.375 73.9829 200.393 73.9065C200.393 73.9065 200.56 72.9321 200.699 71.4845C200.839 70.0369 201.061 68.1161 201.145 66.1952C201.145 65.2209 201.145 64.2466 201.145 63.4114C201.145 62.5762 201.145 61.6576 201.145 60.9338C201.145 59.4584 201.145 58.5118 201.145 58.5118C201.145 58.4655 201.135 58.4197 201.117 58.3772C201.098 58.3348 201.071 58.2966 201.037 58.2652C201.003 58.2338 200.963 58.2098 200.919 58.1948C200.875 58.1797 200.829 58.1739 200.783 58.1778C200.73 58.2085 200.686 58.2534 200.656 58.3074C200.627 58.3614 200.613 58.4226 200.616 58.484V58.4562ZM207.074 60.4049C207.074 60.4049 206.907 61.24 206.712 62.4649C206.712 63.1052 206.518 63.829 206.434 64.6084C206.351 65.3879 206.267 66.2231 206.184 67.0582C206.184 68.7285 205.989 70.3988 205.961 71.6515C205.933 72.9043 205.961 73.7673 205.961 73.7673C205.964 73.8112 205.976 73.854 205.997 73.8932C206.017 73.9324 206.044 73.9673 206.078 73.9957C206.112 74.0242 206.151 74.0458 206.193 74.0591C206.235 74.0725 206.279 74.0774 206.323 74.0736C206.398 74.0683 206.469 74.038 206.524 73.9875C206.58 73.937 206.617 73.8692 206.629 73.7952C206.629 73.7952 206.796 72.9599 206.991 71.7351C207.186 70.5102 207.353 68.8121 207.492 67.1696C207.492 66.3344 207.492 65.4993 207.659 64.7198C207.826 63.9403 207.659 63.1887 207.659 62.5484C207.659 61.2957 207.659 60.4605 207.659 60.4605C207.659 60.4142 207.65 60.3684 207.631 60.326C207.613 60.2835 207.586 60.2453 207.551 60.2139C207.517 60.1825 207.477 60.1585 207.433 60.1435C207.39 60.1284 207.343 60.1226 207.297 60.1265C207.235 60.152 207.182 60.1941 207.142 60.2481C207.103 60.3022 207.08 60.366 207.074 60.4327V60.4049ZM213.31 63.0495C213.31 63.0495 213.143 63.7455 212.92 64.8033C212.92 65.3044 212.698 65.9169 212.614 66.585C212.531 67.2531 212.419 67.9491 212.308 68.645C212.113 70.0648 212.03 71.4289 211.974 72.5424C211.918 73.6559 211.974 74.3241 211.974 74.3241C211.974 74.3704 211.983 74.4162 212.002 74.4587C212.02 74.5011 212.047 74.5393 212.081 74.5707C212.115 74.6021 212.156 74.6261 212.199 74.6411C212.243 74.6562 212.29 74.662 212.336 74.6581C212.407 74.6544 212.475 74.6281 212.53 74.583C212.585 74.538 212.624 74.4765 212.642 74.4076C212.642 74.4076 212.837 73.7117 213.032 72.6816C213.227 71.6516 213.505 70.204 213.672 68.8121C213.672 68.0883 213.811 67.3923 213.867 66.7242C213.923 66.0561 213.867 65.4436 213.867 64.9147C213.867 63.8568 213.867 63.133 213.867 63.133C213.867 63.0867 213.858 63.0409 213.839 62.9984C213.821 62.956 213.794 62.9178 213.759 62.8864C213.725 62.855 213.685 62.831 213.641 62.8159C213.598 62.8009 213.551 62.7951 213.505 62.799C213.454 62.8276 213.409 62.8676 213.376 62.9158C213.342 62.964 213.319 63.0192 213.31 63.0774V63.0495Z" fill="#F18380"/>
    <path d="M186.553 142.71L187.855 132.293L215.634 134.463L215.2 144.88L186.553 142.71Z" fill="#CFD1CE"/>
    <path d="M105.78 95.137C105.78 95.137 122.589 104.843 125.212 106.541C127.835 108.24 130.799 110.86 130.264 117.945C129.73 125.03 127.471 220.403 127.471 220.403C118.844 221.864 93.5811 221.864 93.5811 221.864H91.2845H89.562H87.2654H85.5429H83.8205C83.8205 221.864 46.3678 218.681 45.6148 218.244C44.8618 217.807 44.1574 217.346 44.206 216.521C44.2546 215.696 44.7404 118.746 45.0561 114.475C45.1187 112.188 45.8391 109.968 47.1313 108.079C48.4235 106.19 50.2328 104.713 52.343 103.824C57.4196 101.567 76.4869 93.8268 76.4869 93.8268L92.5015 95.137H105.78Z" fill="#034CC9"/>
    <path d="M105.78 95.137C105.78 95.137 122.589 104.843 125.212 106.541C127.835 108.24 130.798 110.86 130.264 117.945C129.73 125.03 127.471 220.403 127.471 220.403C118.844 221.864 105.064 221.864 105.064 221.864H102.768H101.045H98.7484H97.026H95.3035C95.3035 221.864 98.0418 218.681 97.2888 218.244C96.5359 217.807 95.8315 217.346 95.88 216.521C95.9286 215.696 96.4144 118.746 96.7302 114.475C96.7927 112.188 97.5131 109.968 98.8053 108.079C100.098 106.19 101.907 104.713 104.017 103.824C109.094 101.567 76.4868 93.8268 76.4868 93.8268L92.5014 95.137H105.78Z" fill="#0045BA"/>
    <path d="M107.687 95.2769C107.687 95.2769 126.27 106.018 129.171 107.898C132.071 109.778 129.753 113.922 129.753 121.386C129.753 131.147 128.031 131.721 128.031 131.721C122.219 134.857 119.678 132.411 113.273 134.019C110.158 134.368 107.741 134.448 105.647 132.407C103.552 130.366 97.0261 131.147 97.0261 131.147C97.0261 131.147 87.198 129.856 82.606 132.407C81.5077 133.173 80.2665 133.711 78.9564 133.988C77.6462 134.264 76.6161 134.244 75.3018 133.988C68.642 132.618 42.003 124.969 41.1705 124.485C40.338 124.002 39.5593 123.492 39.613 122.579C39.6667 121.666 40.2038 121.406 40.5529 116.679C40.622 114.148 41.4185 111.691 42.8471 109.6C44.2757 107.51 46.276 105.875 48.609 104.891C54.2215 102.393 75.3018 93.8268 75.3018 93.8268L93.007 94.4009L107.687 95.2769Z" fill="#9A99A1"/>
    <path d="M94.534 91.2392C86.5474 91.2392 79.3421 87.7667 76.7378 86.0305V93.8435C77.0272 94.2775 79.2553 95.6665 85.8529 97.7499C92.4505 99.8334 101.913 99.0521 105.819 97.7499V89.937C105.819 90.371 104.517 91.2392 94.534 91.2392Z" fill="#034CC9"/>
    <path d="M94.9678 221.455C97.1858 220.711 99.127 219.277 100.526 217.35C101.924 215.422 102.712 213.096 102.781 210.689V91.6731H94.9678V221.455Z" fill="#034CC9"/>
    <path d="M129.753 134.644H90.374V125.963L129.753 125.98C129.753 129.999 129.753 131.147 129.753 134.644Z" fill="#D3D4D2"/>
    <path d="M58.5386 125.963H98.1872V134.644H57.7257C58.2544 130.738 58.5386 129.002 58.5386 125.963Z" fill="#CFD1CE"/>
    <g style="mix-blend-mode:multiply" opacity="0.4">
        <path d="M94.0996 98.8742L94.9677 99.0521V221.455H94.0996V98.8742Z" fill="#013FA9"/>
    </g>
    <path d="M42.0683 109.654C35.9915 117.467 0.833252 212.958 0.833252 212.958C33.3872 202.541 30.3326 174.387 48.0378 177.366C48.0378 177.366 68.4543 129.446 69.2338 125.158C70.0473 121.779 69.6822 118.223 68.1989 115.079C66.7155 111.935 64.203 109.392 61.0772 107.871C52.3637 103.417 48.145 101.84 42.0683 109.654Z" fill="#0045BA"/>
    <path d="M59.5454 154.778C64.4728 149.795 73.6873 139.049 76.8052 136.433C79.8881 134.11 83.2562 132.192 86.827 130.726C89.5361 129.818 92.3368 129.211 95.1786 128.916C97.1551 128.666 97.9624 129.25 97.9624 130.447C97.9127 131.16 97.6855 131.85 97.3014 132.453C96.9173 133.056 96.3885 133.553 95.7631 133.899H99.41C100.663 133.899 101.47 134.901 100.885 136.516C100.354 137.583 99.5955 138.52 98.6622 139.261C97.7289 140.002 96.6441 140.528 95.4847 140.803C95.4847 140.803 100.412 141.276 101.665 141.527C102.918 141.777 103.307 142.251 103.307 143.448C103.297 144.275 103.067 145.084 102.641 145.793C102.216 146.502 101.61 147.086 100.885 147.484C99.1119 148.204 97.2294 148.618 95.3177 148.709C95.3177 148.709 101.414 150.24 102.639 150.686C103.864 151.131 104.003 151.938 103.363 152.996C102.998 153.742 102.471 154.396 101.821 154.911C101.171 155.426 100.414 155.79 99.6049 155.975C97.2943 156.588 95.7353 155.585 94.9002 155.725C93.1057 156.303 91.3487 156.991 89.6387 157.785C87.0709 160.341 83.9314 162.25 80.4799 163.352C77.9107 164.43 75.554 165.958 73.5203 167.862C72.573 168.751 71.4569 169.441 70.2383 169.891C69.0197 170.341 67.7231 170.543 66.4254 170.483C65.1276 170.423 63.855 170.104 62.6829 169.544C61.5107 168.984 60.4628 168.194 59.6011 167.222C55.1469 162.489 55.8986 158.536 59.5454 154.778Z" fill="#FBBEAA"/>
    <path d="M75.9241 171.723L31.1095 222.117C25.7391 229.275 13.1898 233.208 5.52232 226.577C4.10441 225.335 2.95361 223.817 2.13973 222.117C1.32584 220.417 0.865814 218.569 0.787574 216.685C0.709333 214.802 1.0145 212.922 1.68456 211.16C2.35462 209.398 3.37561 207.79 4.6856 206.435L58.9961 149.586L75.9241 171.723Z" fill="#0045BA"/>
    <path d="M95.1512 133.927C95.1591 133.973 95.1573 134.02 95.1458 134.066C95.1343 134.111 95.1136 134.153 95.0847 134.19C95.0559 134.227 95.0196 134.257 94.9783 134.279C94.937 134.301 94.8917 134.314 94.8451 134.317L92.5623 134.539H91.4488C91.059 134.539 90.6971 134.679 90.3074 134.707C89.8957 134.83 89.4952 134.988 89.1104 135.18L87.8297 135.709C86.1038 136.405 84.3778 137.045 83.0972 137.518C81.8166 137.991 80.9258 138.27 80.9258 138.27C80.8552 138.3 80.7761 138.302 80.7039 138.276C80.6318 138.25 80.5719 138.198 80.5361 138.131C80.4842 138.063 80.4561 137.98 80.4561 137.894C80.4561 137.808 80.4842 137.725 80.5361 137.657L82.624 136.572L84.7954 135.542C85.5748 135.18 86.4378 134.818 87.3008 134.484L88.6092 133.983C89.03 133.793 89.4682 133.643 89.9176 133.537L91.2539 133.398H92.3953H94.0934H94.7337C94.8038 133.343 94.8931 133.317 94.9818 133.328C95.0706 133.338 95.1516 133.384 95.207 133.454C95.2624 133.524 95.2876 133.613 95.2772 133.702C95.2667 133.791 95.2214 133.872 95.1512 133.927ZM94.6223 140.636H94.1212C93.7045 140.599 93.2852 140.599 92.8685 140.636L92.0055 140.775C91.6874 140.815 91.3715 140.871 91.059 140.942L89.166 141.555C87.8854 141.972 86.6327 142.501 85.6862 142.891C85.6862 142.891 85.38 142.891 85.4078 143.03H85.0738L84.5727 143.169H84.2665H84.0994C84.0153 143.189 83.9423 143.241 83.8956 143.314C83.8489 143.386 83.8321 143.474 83.8489 143.559C83.861 143.626 83.8949 143.687 83.9453 143.732C83.9957 143.777 84.0597 143.805 84.1273 143.81H85.547H85.9924C86.9667 143.559 88.2751 143.169 89.5557 142.724L91.4209 142.028L92.2839 141.805L93.0355 141.583C93.4199 141.469 93.8103 141.376 94.2048 141.304L94.678 141.165C94.7201 141.152 94.7593 141.131 94.7932 141.103C94.8272 141.076 94.8554 141.041 94.8761 141.002C94.8968 140.964 94.9096 140.921 94.9138 140.877C94.918 140.834 94.9136 140.789 94.9007 140.747C94.8677 140.707 94.8248 140.675 94.7761 140.655C94.7273 140.636 94.6744 140.629 94.6223 140.636ZM94.6223 148.542H93.5923C93.3139 148.542 92.9521 148.542 92.5902 148.737L91.4488 149.099C90.7306 149.352 90.0326 149.659 89.3609 150.018C89.0521 150.163 88.7543 150.33 88.47 150.519C88.4132 150.584 88.3819 150.668 88.3819 150.755C88.3819 150.842 88.4132 150.926 88.47 150.992C88.55 151.077 88.6599 151.127 88.7762 151.131L89.8063 150.964C90.3909 150.825 91.1426 150.602 91.8942 150.352L92.9799 149.906L93.9263 149.544C94.2415 149.405 94.5483 149.247 94.8451 149.071C94.9238 149.024 94.9819 148.95 95.0078 148.862C95.0336 148.774 95.0252 148.68 94.9842 148.598C94.9017 148.545 94.8023 148.525 94.7058 148.542H94.6223Z" fill="#F18380"/>
    <path d="M22.9697 184.745L32.0848 177.366L50.3151 200.371L42.9362 209.052L22.9697 184.745Z" fill="#CFD1CE"/>
    <path d="M82.7836 35.3063C81.4267 39.3763 79.3134 43.153 76.5548 46.4375H69.8025C69.8025 46.4375 64.5681 40.3612 64.1755 39.8635C63.608 39.2582 63.1766 38.5383 62.9103 37.7523C62.6439 36.9662 62.5488 36.1322 62.6314 35.3063H82.7836Z" fill="#676575"/>
    <path d="M76.5552 46.4376C76.5552 59.5331 72.229 78.153 92.5742 82.0908C92.5742 82.0908 79.5388 81.4026 74.54 74.9858C69.5412 68.569 69.8029 46.3328 69.8029 46.3328L76.5552 46.4376Z" fill="#827F94"/>
    <path d="M57.79 36.9827H123.848C124.35 31.0109 123.783 24.9973 122.173 19.2252C119.555 11.7346 114.321 2.56773 92.4153 2.56773C70.5095 2.56773 62.8412 12.8346 61.297 20.6133C59.7529 28.3921 60.4857 30.9326 59.5697 31.7707C58.6537 32.6088 57.79 32.635 57.79 33.8922V36.9827Z" fill="#EFEFEF"/>
    <path d="M92.4151 2.56786C97.1922 2.48104 101.958 3.06287 106.574 4.29647H106.783L107.595 4.55837C109.806 5.23982 111.912 6.22717 113.85 7.49177C115.166 12.9232 115.512 18.5449 114.871 24.0969H107.595L97.9112 22.4468C97.9112 22.4468 94.8491 6.73223 83.9617 3.06549C86.764 2.69744 89.589 2.53114 92.4151 2.56786Z" fill="#D8D8D8"/>
    <path d="M90.8968 0.0534668H105.684C107.254 0.0534668 114.87 5.97263 114.87 26.2445H98.0417C98.0417 20.2729 96.9948 4.63689 87.573 2.67257C87.5992 2.72495 89.0125 0.0534668 90.8968 0.0534668Z" fill="#EFEFEF"/>
    <path d="M134.394 36.9826V33.1587C134.392 32.6106 134.277 32.0688 134.056 31.5672C133.835 31.0656 133.514 30.6151 133.111 30.2438C132.708 29.8725 132.232 29.5885 131.715 29.4096C131.197 29.2306 130.648 29.1606 130.102 29.2039H121.648C121.163 29.2266 120.678 29.1448 120.226 28.9641C119.775 28.7833 119.367 28.5079 119.031 28.1562C118.482 27.5277 114.739 24.0181 114.294 23.4942C113.988 23.0942 113.591 22.7736 113.136 22.5594C112.68 22.3451 112.18 22.2436 111.677 22.2633H99.3763C98.8741 22.2479 98.3753 22.3513 97.9205 22.5652C97.4657 22.7791 97.0678 23.0974 96.7591 23.4942C96.3142 24.0181 92.5716 27.5277 92.022 28.1562C91.687 28.5093 91.2796 28.7857 90.8279 28.9665C90.3762 29.1473 89.8907 29.2283 89.4048 29.2039H82.3647C81.8187 29.1606 81.2696 29.2306 80.7519 29.4096C80.2342 29.5885 79.759 29.8725 79.356 30.2438C78.9531 30.6151 78.6311 31.0656 78.4102 31.5672C78.1894 32.0688 78.0744 32.6106 78.0725 33.1587V36.9826H134.394Z" fill="#D8D8D8"/>
</svg>
