<svg width="193" height="514" viewBox="0 0 193 514" fill="none" xmlns="http://www.w3.org/2000/svg">
<path d="M30.9658 105.961L29.8057 96.68L5.05562 98.6135L5.44233 107.895L30.9658 105.961Z" fill="#CFD1CE"/>
<path d="M127.591 46.8187V67.876C127.591 67.876 125.93 75.1184 114.793 75.1184C112.582 75.3049 110.384 74.6377 108.65 73.2539C106.915 71.8701 105.777 69.8748 105.467 67.6777V46.8434L127.591 46.8187Z" fill="#FBBEAA"/>
<path d="M160.728 213.418C160.182 206.547 152.816 180.207 144.904 165.201C144.904 165.201 127.643 167.382 116.528 167.418C104.931 167.456 86.9152 165.201 86.9152 165.201C81.7563 176.883 75.8781 202.405 74.1667 207.911C73.1336 211.151 73.0081 214.612 73.8039 217.918C74.5998 221.223 76.2865 224.248 78.6808 226.662C84.559 233.334 99.7134 240.973 103.211 240.973C118.256 238.824 133.004 234.946 147.161 229.415C155.147 226.067 161.249 220.313 160.728 213.418Z" fill="#003399"/>
<path d="M23.7436 70.3557C23.6413 68.1207 24.2396 65.9096 25.455 64.0311C27.3261 61.8615 28.728 59.3281 29.5722 56.5903C30.2217 54.0489 31.2591 51.6228 32.6478 49.3975C33.6399 48.0334 35.1281 46.9173 35.1281 45.8756C35.1281 44.8339 33.1438 42.8249 30.3163 43.3953C29.1052 43.7726 27.9924 44.413 27.0577 45.2705C26.1229 46.1281 25.3893 47.1816 24.9093 48.3559C24.6384 47.6404 24.4795 46.8875 24.4381 46.1236L23.8181 30.9196C23.8086 30.5255 23.7203 30.1372 23.5584 29.7777C23.3964 29.4183 23.164 29.0949 22.875 28.8268C22.586 28.5586 22.2463 28.351 21.8758 28.2163C21.5052 28.0816 21.1115 28.0225 20.7178 28.0425C20.0909 28.0693 19.4881 28.2918 18.9943 28.6789C18.5004 29.0659 18.1404 29.598 17.9646 30.2003V29.5059C17.8692 28.7668 17.4978 28.0911 16.9249 27.6146C16.3519 27.138 15.6199 26.8958 14.8757 26.9366C14.1316 26.9774 13.4305 27.2982 12.9131 27.8346C12.3957 28.371 12.1004 29.0832 12.0864 29.8283V31.9365C11.838 31.2866 11.3643 30.7475 10.7517 30.4176C10.1391 30.0876 9.42827 29.9889 8.74888 30.1392C8.06949 30.2895 7.46672 30.6788 7.05044 31.2364C6.63416 31.794 6.43207 32.4826 6.48102 33.1767V34.516C6.21406 34.0468 5.81623 33.6656 5.33611 33.419C4.85599 33.1723 4.31439 33.0708 3.77754 33.127C3.04237 33.2203 2.37242 33.5961 1.90948 34.1748C1.44653 34.7535 1.22694 35.4896 1.29728 36.2273L2.51258 49.0503C3.30873 56.2797 4.80392 63.4149 6.9771 70.3557C7.00337 71.5146 7.27186 72.6552 7.76527 73.7041C8.25869 74.753 8.96611 75.6871 9.8421 76.4463C10.7181 77.2055 11.7433 77.773 12.8517 78.1123C13.9601 78.4516 15.1272 78.5553 16.2781 78.4166C17.3196 78.4513 18.3563 78.2617 19.3181 77.8605C20.2798 77.4594 21.1441 76.856 21.8521 76.0915C22.5602 75.3269 23.0956 74.4191 23.422 73.4294C23.7483 72.4398 23.858 71.3915 23.7436 70.3557Z" fill="#FBBEAA"/>
<path d="M107.328 475.134C107.328 472.746 106.38 470.456 104.691 468.768C103.003 467.079 100.713 466.131 98.3248 466.131C95.9369 466.131 93.6469 467.079 91.9584 468.768C90.27 470.456 89.3214 472.746 89.3214 475.134V494.703H107.328V475.134Z" fill="#FBBEAA"/>
<path d="M89.9654 478.78C87.758 478.78 87.3612 479.748 86.7163 481.013C85.6704 484.384 83.8821 487.477 81.483 490.066C77.9012 493.116 74.0586 495.847 69.9994 498.226V508.593H110.08C110.08 508.593 109.808 500.408 109.609 494.629C109.411 488.85 108.84 481.806 108.89 481.062C108.939 480.318 108.89 478.78 107.526 478.78H89.9654Z" fill="#302D3B"/>
<path d="M105.096 495.199C105.101 496.472 104.728 497.717 104.024 498.777C103.32 499.838 102.317 500.665 101.142 501.154C99.967 501.643 98.6733 501.773 97.4249 501.526C96.1765 501.279 95.0296 500.666 94.1297 499.766C93.2298 498.866 92.6175 497.72 92.3704 496.471C92.1233 495.223 92.2526 493.929 92.7419 492.754C93.2312 491.579 94.0584 490.576 95.1186 489.873C96.1788 489.169 97.4242 488.795 98.6968 488.8C100.392 488.807 102.016 489.483 103.214 490.682C104.413 491.88 105.089 493.504 105.096 495.199Z" fill="#003399"/>
<path d="M98.6967 491.429L100.16 493.587L102.665 494.306L101.078 496.365L101.152 498.969L98.6967 498.076L96.2412 498.969L96.3404 496.365L94.7282 494.306L97.2333 493.587L98.6967 491.429Z" fill="white"/>
<path d="M70.273 498.052C70.273 498.052 64.5932 501.053 62.4602 502.517C61.4727 503.186 60.6705 504.094 60.1285 505.156C59.5864 506.219 59.322 507.401 59.3599 508.593H74.9359C74.9359 508.593 74.6135 500.979 70.273 498.052Z" fill="white"/>
<path d="M110.08 508.593V512.884C110.08 513.603 109.435 514 108.344 514H61.0704C60.0039 514 59.359 513.603 59.359 512.884V508.593H110.08Z" fill="white"/>
<path d="M74.9358 495.15C74.7985 494.939 74.5844 494.79 74.3389 494.735C74.0935 494.679 73.8361 494.721 73.6213 494.852C73.5144 494.918 73.4217 495.005 73.3486 495.107C73.2755 495.209 73.2237 495.324 73.1959 495.447C73.1682 495.569 73.1652 495.696 73.1871 495.82C73.2091 495.943 73.2555 496.061 73.3237 496.167L74.9854 498.846C75.0655 498.984 75.1815 499.099 75.3211 499.178C75.4608 499.256 75.6189 499.296 75.7791 499.292C75.9628 499.289 76.1425 499.238 76.3 499.143C76.4069 499.077 76.4996 498.991 76.5727 498.889C76.6457 498.787 76.6977 498.671 76.7254 498.549C76.7532 498.426 76.7561 498.299 76.7341 498.176C76.7122 498.052 76.6658 497.934 76.5977 497.829L74.9358 495.15Z" fill="white"/>
<path d="M77.8621 493.091C77.7806 492.997 77.6814 492.919 77.57 492.863C77.4587 492.807 77.3373 492.773 77.2129 492.764C77.0886 492.755 76.9637 492.77 76.8452 492.809C76.7268 492.848 76.6172 492.91 76.5228 492.992C76.4283 493.073 76.3508 493.172 76.2947 493.284C76.2386 493.395 76.2049 493.516 76.1957 493.641C76.1865 493.765 76.2019 493.89 76.241 494.009C76.2801 494.127 76.3421 494.237 76.4235 494.331L78.3581 496.613C78.4474 496.717 78.5575 496.802 78.6813 496.862C78.8051 496.922 78.94 496.955 79.0774 496.96C79.2571 496.957 79.4323 496.903 79.5833 496.806C79.7343 496.709 79.8553 496.571 79.9325 496.409C80.0098 496.247 80.0403 496.066 80.0207 495.887C80.0011 495.709 79.9321 495.539 79.8215 495.398L77.8621 493.091Z" fill="white"/>
<path d="M80.6151 490.785C80.4178 490.658 80.181 490.607 79.9488 490.641C79.7166 490.676 79.5049 490.794 79.3531 490.973C79.2013 491.152 79.1199 491.38 79.1239 491.615C79.1279 491.849 79.2171 492.075 79.375 492.248L81.5824 494.158C81.7554 494.305 81.9756 494.384 82.2024 494.381C82.339 494.386 82.4749 494.36 82.5996 494.304C82.7243 494.248 82.8345 494.164 82.9217 494.059C83.0133 493.973 83.0864 493.869 83.1363 493.754C83.1862 493.639 83.2119 493.515 83.2119 493.389C83.2119 493.264 83.1862 493.14 83.1363 493.024C83.0864 492.909 83.0133 492.805 82.9217 492.72L80.6151 490.785Z" fill="white"/>
<path d="M85.4521 489.644L82.9719 488.106C82.7541 487.977 82.4946 487.939 82.2489 487.999C82.0031 488.059 81.7907 488.213 81.6573 488.428C81.5902 488.535 81.5453 488.655 81.5252 488.779C81.5051 488.904 81.5102 489.031 81.5403 489.154C81.5704 489.277 81.6248 489.392 81.7003 489.493C81.7758 489.594 81.8708 489.679 81.9798 489.743L84.46 491.281C84.6071 491.378 84.7797 491.43 84.9561 491.43C85.1177 491.426 85.2756 491.38 85.4146 491.298C85.5536 491.215 85.669 491.098 85.7498 490.958C85.8809 490.744 85.9232 490.486 85.8676 490.241C85.812 489.995 85.663 489.781 85.4521 489.644Z" fill="white"/>
<path d="M87.5354 486.445L84.7575 485.279C84.5207 485.18 84.2544 485.18 84.0172 485.277C83.78 485.375 83.5913 485.563 83.4927 485.8C83.4442 485.915 83.4193 486.039 83.4193 486.165C83.4194 486.29 83.4444 486.414 83.4929 486.529C83.5414 486.645 83.6124 486.749 83.7018 486.837C83.7912 486.925 83.8971 486.994 84.0135 487.04L86.7914 488.206H87.1634C87.3774 488.194 87.5815 488.112 87.7437 487.972C87.9059 487.832 88.017 487.642 88.0596 487.432C88.1022 487.222 88.0738 487.004 87.9789 486.812C87.884 486.619 87.728 486.464 87.5354 486.37V486.445Z" fill="white"/>
<path d="M89.2714 482.873L86.1959 482.104C85.9525 482.045 85.6955 482.085 85.4816 482.215C85.2676 482.345 85.1141 482.555 85.0549 482.798C84.9957 483.042 85.0356 483.299 85.1658 483.513C85.2961 483.727 85.506 483.88 85.7494 483.939L88.8001 484.733H89.0233C89.2369 484.731 89.4441 484.659 89.6139 484.53C89.7837 484.4 89.9071 484.219 89.9658 484.014C90.019 483.771 89.9765 483.517 89.8471 483.304C89.7178 483.092 89.5116 482.937 89.2714 482.873Z" fill="white"/>
<path d="M120.498 349.981C120.226 337.976 112.14 332.172 100.16 332.47C88.1807 332.768 79.5493 339.043 79.8222 351.022L89.3215 476.102H107.328L120.498 349.981Z" fill="#FBBEAA"/>
<path d="M122.06 349.906C121.993 347.056 121.366 344.247 120.213 341.639C119.061 339.032 117.406 336.677 115.344 334.709C113.282 332.741 110.852 331.198 108.193 330.169C105.534 329.14 102.699 328.645 99.8493 328.712C96.9993 328.779 94.1904 329.406 91.5829 330.558C88.9754 331.711 86.6204 333.365 84.6523 335.428C82.6843 337.49 81.1418 339.92 80.1129 342.579C79.0839 345.237 78.5887 348.072 78.6554 350.922L75.6747 480.305H124.709L122.06 349.906Z" fill="#003399"/>
<path d="M183.224 475.134C183.224 472.746 182.275 470.456 180.587 468.768C178.898 467.079 176.608 466.131 174.22 466.131C171.833 466.131 169.543 467.079 167.854 468.768C166.166 470.456 165.217 472.746 165.217 475.134V494.703H183.224V475.134Z" fill="#FBBEAA"/>
<path d="M165.887 478.78C163.655 478.78 163.258 479.748 162.638 481.013C161.58 484.384 159.783 487.476 157.379 490.066C153.802 493.122 149.959 495.853 145.896 498.226V508.593H185.977C185.977 508.593 185.704 500.408 185.506 494.629C185.307 488.85 184.762 481.806 184.786 481.062C184.811 480.318 184.786 478.78 183.447 478.78H165.887Z" fill="#302D3B"/>
<path d="M181.016 495.199C181.021 496.471 180.649 497.715 179.946 498.775C179.243 499.835 178.241 500.662 177.068 501.152C175.895 501.642 174.602 501.773 173.354 501.528C172.107 501.282 170.96 500.673 170.059 499.775C169.158 498.878 168.544 497.733 168.294 496.486C168.044 495.24 168.17 493.947 168.655 492.772C169.141 491.596 169.964 490.591 171.021 489.884C172.078 489.178 173.321 488.8 174.592 488.8C176.292 488.8 177.922 489.474 179.126 490.673C180.33 491.872 181.01 493.5 181.016 495.199Z" fill="#003399"/>
<path d="M174.617 491.429L176.08 493.587L178.585 494.306L176.973 496.365L177.048 498.969L174.617 498.076L172.162 498.969L172.236 496.365L170.624 494.306L173.154 493.587L174.617 491.429Z" fill="white"/>
<path d="M146.194 498.052C146.194 498.052 140.489 501.053 138.381 502.517C137.388 503.181 136.582 504.088 136.04 505.151C135.497 506.215 135.236 507.4 135.281 508.593H150.931C150.931 508.593 150.509 500.979 146.194 498.052Z" fill="white"/>
<path d="M185.977 508.593V512.884C185.977 513.603 185.357 514 184.265 514H136.942C135.851 514 135.231 513.603 135.231 512.884V508.593H185.977Z" fill="white"/>
<path d="M150.832 495.15C150.697 494.936 150.483 494.785 150.236 494.729C149.989 494.673 149.731 494.717 149.517 494.852C149.303 494.987 149.152 495.201 149.096 495.448C149.04 495.694 149.085 495.953 149.219 496.167L150.881 498.845C150.967 498.984 151.088 499.099 151.231 499.177C151.375 499.255 151.536 499.295 151.7 499.292C151.876 499.292 152.049 499.241 152.196 499.143C152.303 499.077 152.395 498.991 152.468 498.889C152.542 498.787 152.593 498.671 152.621 498.548C152.649 498.426 152.652 498.299 152.63 498.176C152.608 498.052 152.562 497.934 152.493 497.829L150.832 495.15Z" fill="white"/>
<path d="M153.783 493.091C153.62 492.901 153.388 492.781 153.138 492.758C152.889 492.735 152.639 492.81 152.444 492.967C152.252 493.135 152.132 493.37 152.109 493.624C152.085 493.878 152.161 494.131 152.32 494.331L154.279 496.613C154.365 496.721 154.474 496.809 154.599 496.869C154.724 496.929 154.86 496.96 154.998 496.96C155.18 496.962 155.359 496.911 155.512 496.814C155.666 496.717 155.788 496.577 155.864 496.412C155.94 496.247 155.967 496.063 155.941 495.883C155.915 495.703 155.837 495.535 155.718 495.398L153.783 493.091Z" fill="white"/>
<path d="M156.511 490.785C156.314 490.658 156.077 490.607 155.845 490.641C155.613 490.676 155.401 490.794 155.249 490.973C155.097 491.152 155.016 491.38 155.02 491.615C155.024 491.849 155.113 492.075 155.271 492.248L157.503 494.158C157.676 494.305 157.896 494.384 158.123 494.381C158.26 494.384 158.395 494.357 158.519 494.301C158.644 494.246 158.754 494.163 158.842 494.059C158.931 493.971 159.001 493.867 159.049 493.752C159.097 493.637 159.122 493.514 159.122 493.389C159.122 493.265 159.097 493.141 159.049 493.026C159.001 492.912 158.931 492.807 158.842 492.72L156.511 490.785Z" fill="white"/>
<path d="M161.348 489.644L158.868 488.106C158.654 488.016 158.415 488.006 158.194 488.077C157.973 488.149 157.785 488.297 157.665 488.496C157.544 488.695 157.499 488.93 157.538 489.159C157.577 489.388 157.697 489.595 157.876 489.743L160.356 491.281C160.503 491.378 160.676 491.43 160.852 491.43C161.018 491.428 161.18 491.383 161.323 491.301C161.466 491.218 161.586 491.1 161.671 490.958C161.8 490.741 161.838 490.481 161.778 490.235C161.717 489.99 161.563 489.777 161.348 489.644Z" fill="white"/>
<path d="M24.0405 72.0181L33.9616 134.297C35.5986 142.11 33.0687 149.179 24.0405 150.419C22.3741 150.636 20.6808 150.512 19.0637 150.055C17.4465 149.598 15.9392 148.816 14.6332 147.759C13.3273 146.701 12.25 145.389 11.4667 143.902C10.6834 142.415 10.2105 140.784 10.0767 139.109L7.05075 72.1421C6.25707 65.8174 9.01011 61.601 13.8218 61.0802C19.7248 60.4353 22.85 63.9325 24.0405 72.0181Z" fill="#FBBEAA"/>
<path d="M163.431 486.445L160.653 485.279C160.537 485.23 160.413 485.206 160.288 485.206C160.163 485.206 160.039 485.231 159.923 485.279C159.808 485.328 159.703 485.399 159.616 485.488C159.528 485.577 159.459 485.683 159.413 485.8C159.32 486.031 159.32 486.288 159.412 486.519C159.505 486.75 159.682 486.937 159.909 487.04L162.711 488.206C162.826 488.231 162.944 488.231 163.059 488.206C163.25 488.206 163.436 488.149 163.595 488.043C163.754 487.937 163.878 487.787 163.951 487.61C164.027 487.386 164.015 487.142 163.918 486.926C163.822 486.71 163.648 486.538 163.431 486.445Z" fill="white"/>
<path d="M165.168 482.873L162.117 482.104C161.871 482.044 161.61 482.083 161.392 482.213C161.174 482.342 161.016 482.553 160.952 482.798C160.922 482.919 160.917 483.044 160.935 483.167C160.954 483.289 160.997 483.407 161.062 483.513C161.126 483.619 161.211 483.711 161.311 483.784C161.412 483.858 161.525 483.91 161.646 483.939L164.697 484.733H164.945C165.168 484.716 165.379 484.622 165.541 484.467C165.702 484.311 165.805 484.105 165.831 483.882C165.858 483.66 165.806 483.435 165.685 483.246C165.564 483.058 165.381 482.917 165.168 482.848V482.873Z" fill="white"/>
<path d="M173.377 349.608C172.159 343.978 168.755 339.063 163.913 335.942C159.071 332.821 153.188 331.751 147.558 332.966C135.826 335.446 129.501 347.004 132.031 358.736L165.217 478.16H183.447L173.377 349.608Z" fill="#FBBEAA"/>
<path d="M173.377 347.252C172.03 341.757 168.594 337.004 163.799 334.003C159.003 331.002 153.226 329.99 147.696 331.182C142.166 332.374 137.318 335.676 134.185 340.386C131.051 345.096 129.878 350.842 130.915 356.404L142.577 479.145C142.577 479.145 174.175 481.03 193 479.145L173.377 347.252Z" fill="#003399"/>
<path d="M15.9799 127.402L87.213 73.2827C95.5218 67.9749 101.177 70.8024 105.592 76.4822C107.608 79.2313 108.543 82.6258 108.218 86.0195C107.893 89.4132 106.332 92.5689 103.831 94.8858L32.7713 147.244C30.2672 149.359 27.0435 150.426 23.7721 150.223C20.5008 150.019 17.434 148.561 15.2111 146.153L14.8886 145.805C13.7088 144.547 12.7978 143.061 12.2112 141.439C11.6246 139.816 11.3747 138.091 11.4768 136.369C11.5789 134.647 12.0309 132.964 12.8051 131.422C13.5793 129.88 14.6596 128.512 15.9799 127.402Z" fill="#FBBEAA"/>
<path d="M103.83 94.8614C104.488 94.2954 105.087 93.6638 105.616 92.9764C106.085 91.2111 106.145 89.3624 105.793 87.5704C105.44 85.7784 104.684 84.0902 103.582 82.6338C99.8372 76.8547 91.9748 72.3159 88.4776 73.184L85.0053 74.9449L45.6932 104.708C49.1725 112.885 53.8723 120.487 59.6322 127.254L103.83 94.8614Z" fill="#F18380"/>
<path d="M93.0915 69.4135L31.448 110.989C31.7074 113.115 26.7119 69.4135 26.7119 69.4135L3.89545 71.5432C3.89545 71.5432 5.22842 116.037 8.58611 139.535C9.91866 148.861 17.6807 152.397 26.8845 150.389C31.4286 149.397 35.7066 147.533 39.5135 144.861C55.872 133.379 101.765 101.038 105.518 96.9692C111.991 89.9501 111.991 84.6919 108.271 78.9129C104.55 73.1339 96.5886 68.5454 93.0915 69.4135Z" fill="#003399"/>
<path d="M122.06 349.906L134.784 216.692C134.784 201.984 119.63 185.961 97.2827 189.409C77.0934 192.559 70.9423 212.847 72.6041 232.069C74.2659 251.291 78.7552 350.849 78.7552 350.849C78.822 353.699 79.4494 356.508 80.6018 359.115C81.7541 361.723 83.4087 364.078 85.4711 366.046C87.5336 368.014 89.9635 369.556 92.6221 370.585C95.2807 371.614 98.1159 372.109 100.966 372.043C103.816 371.976 106.625 371.348 109.232 370.196C111.84 369.044 114.195 367.389 116.163 365.327C118.131 363.264 119.673 360.834 120.702 358.176C121.731 355.517 122.226 352.682 122.16 349.832L122.06 349.906Z" fill="#003399"/>
<path d="M173.377 347.252L160.727 214.062C158.049 199.602 140.067 186.779 118.761 194.369C99.5393 201.239 97.3071 222.322 102.565 240.899C107.823 259.476 130.915 356.404 130.915 356.404C132.261 361.899 135.697 366.652 140.493 369.653C145.288 372.654 151.065 373.666 156.596 372.474C162.126 371.282 166.973 367.98 170.107 363.27C173.24 358.56 174.414 352.814 173.377 347.252Z" fill="#003399"/>
<path d="M102.566 240.899C107.799 259.476 130.915 356.405 130.915 356.405" stroke="#E9E9E9" stroke-width="0.75" stroke-miterlimit="10"/>
<path d="M106.286 67.3049C106.286 67.3049 95.3232 69.2147 93.1902 69.7852C91.9314 70.0805 90.7682 70.6906 89.8095 71.5582C88.8508 72.4258 88.128 73.5225 87.7088 74.7457C86.3447 77.9948 79.3256 99.2755 78.6807 101.582C78.2447 104.123 78.6542 106.737 79.8464 109.023C80.8633 111.801 86.1215 124.45 86.1215 124.45L86.9151 165.201L116.528 169.897L144.904 165.201C144.904 165.201 154.825 89.4041 155.321 84.7164C155.817 80.0287 153.485 70.9757 147.88 69.8348C142.275 68.6939 126.897 67.3546 126.897 67.3546L106.286 67.3049Z" fill="#FBBEAA"/>
<path d="M85.5249 148.816V163.143C104.921 164.928 135.826 163.663 147.433 163.143C147.979 159.05 148.55 152.105 149.145 147.492C133.346 147.889 107.252 149.361 85.5249 148.816Z" fill="white"/>
<path d="M187.813 161.555L156.041 77.9453C151.799 69.0164 145.524 68.4211 138.679 70.9014C135.513 72.1643 132.923 74.5495 131.404 77.6012C129.885 80.6529 129.543 84.1572 130.444 87.4447L163.159 169.566C164.151 172.69 166.314 175.309 169.195 176.872C172.076 178.435 175.451 178.821 178.611 177.949L179.082 177.825C180.749 177.37 182.306 176.581 183.657 175.505C185.009 174.429 186.127 173.089 186.944 171.566C187.761 170.044 188.259 168.371 188.409 166.65C188.558 164.929 188.355 163.195 187.813 161.555Z" fill="#FBBEAA"/>
<path d="M105.989 62.6486C105.37 62.6486 104.056 62.6486 102.895 63.0353C102.895 63.9635 104.958 64.7111 105.989 64.9689C106.247 64.1955 106.608 62.6486 105.989 62.6486Z" fill="#003399"/>
<path d="M174.642 126.881L156.04 77.9454C155.541 76.8722 154.952 75.8433 154.279 74.8699C152.001 73.4432 149.392 72.6297 146.707 72.508C144.021 72.3863 141.35 72.9607 138.951 74.1754C136.166 75.5306 133.928 77.7962 132.606 80.5972C131.285 83.3982 130.959 86.5666 131.684 89.5778C131.684 89.8754 131.858 90.4459 132.007 91.2148L151.204 139.456C159.589 136.432 167.486 132.195 174.642 126.881Z" fill="#F18380"/>
<path d="M153.555 72.3163C158.969 79.2774 190.293 164.355 190.293 164.355C161.289 155.074 164.011 129.991 148.237 132.645C148.237 132.645 130.046 89.95 129.352 86.1304C128.627 83.1192 128.952 79.9509 130.274 77.1499C131.596 74.3489 133.834 72.0832 136.619 70.728C144.382 66.7596 148.141 65.3552 153.555 72.3163Z" fill="#003399"/>
<path d="M105.467 64.354C112.462 67.6776 122.656 64.7013 127.591 55.574V46.8187H105.467V64.354Z" fill="#F18380"/>
<path d="M100.927 67.2894C95.1942 68.3795 92.6033 68.5097 91.1477 69.4696C88.8447 71.0148 76.9849 91.9519 76.9849 101.399C76.9849 109.757 79.0082 176.617 80.6942 177.707C82.3802 178.797 112.563 180.211 112.563 180.211V85.5347C109.5 76.053 103.099 73.4232 100.927 67.2894Z" fill="#003399"/>
<path d="M91.1477 69.4693C92.6033 68.5094 98.3227 67.6057 104.055 66.5156C106.228 72.6495 109.5 76.0527 112.563 85.5344V101.399H76.9849C76.9849 91.9516 88.8447 71.0145 91.1477 69.4693Z" fill="#90A2B7"/>
<path d="M112.95 64.1953C120.065 64.1953 126.485 61.1016 128.805 59.5547V66.5157C128.547 66.9024 126.562 68.1399 120.684 69.9961C114.806 71.8524 106.375 71.1563 102.895 69.9961V63.0352C102.895 63.4219 104.055 64.1953 112.95 64.1953Z" fill="#003399"/>
<path d="M76.9962 102.867H112.563V95.1329L78.0075 95.4707C77.3333 98.13 76.9093 100.028 76.9962 102.867Z" fill="#D3D4D2"/>
<path d="M158.111 173.359C158.111 165.617 159.34 147.21 152.444 129.393C146.443 130.847 133.4 86.6984 146.443 71.983C150.777 67.0929 154.587 74.1688 153.444 72.3464C152.301 70.5239 151.035 68.7351 149.169 67.8773C145.839 66.262 138.441 66.5327 131.774 66.5327C123.772 76.3433 115.485 78.5273 112.563 85.5505V180.177C112.563 180.177 158.111 181.102 158.111 173.359Z" fill="#003399"/>
<path d="M158.111 173.359C158.111 165.617 159.34 147.21 152.444 129.393C146.443 130.847 133.4 86.6984 146.443 71.983C150.777 67.0929 154.587 74.1688 153.444 72.3464C152.301 70.5239 151.035 68.7351 149.169 67.8773C145.839 66.262 138.441 66.5327 131.774 66.5327C123.772 76.3433 115.485 78.5273 112.563 85.5505V180.177C112.563 180.177 158.111 181.102 158.111 173.359Z" fill="#003399"/>
<path d="M153.555 72.3168C154.698 74.1393 150.777 67.0931 146.443 71.9832C140.964 78.1648 140.088 89.5401 141.36 100.547H112.563L112.563 71.1566C120.298 70.3831 124.165 69.223 128.805 66.5159C135.473 66.5159 145.972 66.0607 149.302 67.6761C151.168 68.5339 152.413 70.4943 153.555 72.3168Z" fill="#90A2B7"/>
<path d="M112.563 180.211C110.587 179.548 108.857 178.271 107.611 176.554C106.365 174.836 105.663 172.764 105.602 170.619V64.5822H112.563V180.211Z" fill="#003399"/>
<path d="M140.927 95.1329H105.603V102.867H141.652C141.181 99.3869 140.927 97.84 140.927 95.1329Z" fill="#BCC8D6"/>
<g style="mix-blend-mode:multiply" opacity="0.4">
<path d="M113.336 70.9978L112.563 71.1563V180.211H113.336V70.9978Z" fill="#003399"/>
</g>
<path d="M127.865 7.90256C129.179 4.72783 135.801 3.31409 139.522 5.05027C143.242 6.78646 146.963 11.3501 147.508 23.7514C148.054 36.1527 147.037 45.6273 149.269 51.8775C147.206 51.6166 145.265 50.754 143.689 49.3973C143.689 51.0342 143.441 55.0027 143.441 55.0027C142.24 54.9051 141.093 54.4654 140.134 53.7357C139.176 53.0059 138.447 52.0168 138.034 50.8854C137.361 52.3168 136.933 53.8512 136.769 55.4243C134.586 54.2834 127.865 52.2992 127.865 40.5428V7.90256Z" fill="#1D1B24"/>
<path d="M84.6335 49.1C85.3032 40.0966 87.957 25.2151 87.957 25.2151L94.3065 24.8679C94.3065 24.8679 95.9931 51.6794 96.4643 57.5328C96.9356 63.3863 98.6221 64.9736 98.6221 64.9736C98.6221 64.9736 90.5613 63.8575 89.2964 56.2927C89.1109 57.7739 89.0116 59.2646 88.9988 60.7572C88.9988 60.7572 83.939 58.1033 84.6335 49.1Z" fill="#302D3B"/>
<path d="M91.6528 30.6719C91.5475 35.7084 91.7795 40.7463 92.3473 45.7518C93.2402 52.9198 95.7701 60.8567 108.444 60.8567C121.118 60.8567 127.542 55.1272 130.27 45.7518C131.907 40.0968 135.231 31.7135 133.867 22.0405C132.503 12.3675 126.674 6.04293 112.909 5.67089C99.1432 5.29885 90.2143 11.4499 91.6528 30.6719Z" fill="#FBBEAA"/>
<path d="M118.465 34.9625C118.381 35.3352 118.193 35.6767 117.924 35.948C117.655 36.2192 117.315 36.4092 116.943 36.4962C116.571 36.5832 116.182 36.5636 115.821 36.4398C115.46 36.316 115.14 36.0928 114.9 35.796C114.66 35.4991 114.508 35.1405 114.461 34.7613C114.415 34.382 114.477 33.9975 114.639 33.6516C114.802 33.3058 115.058 33.0127 115.379 32.8058C115.701 32.599 116.074 32.4869 116.456 32.4822C116.752 32.5099 117.039 32.5965 117.301 32.7369C117.563 32.8773 117.795 33.0686 117.982 33.2997C118.169 33.5307 118.308 33.7968 118.391 34.0823C118.474 34.3679 118.499 34.6671 118.465 34.9625Z" fill="#403D4F"/>
<path d="M100.011 34.9625C99.9271 35.3362 99.7392 35.6786 99.469 35.9502C99.1989 36.2219 98.8575 36.4117 98.4842 36.4978C98.1109 36.5839 97.7208 36.5628 97.359 36.4369C96.9971 36.3111 96.6782 36.0857 96.4389 35.7865C96.1996 35.4874 96.0496 35.1267 96.0063 34.7461C95.963 34.3654 96.028 33.9803 96.1939 33.635C96.3599 33.2897 96.62 32.9983 96.9443 32.7943C97.2686 32.5904 97.6439 32.4822 98.027 32.4822C98.3209 32.513 98.6057 32.6018 98.8649 32.7436C99.1242 32.8853 99.3527 33.077 99.5373 33.3078C99.7219 33.5385 99.8588 33.8036 99.9401 34.0876C100.021 34.3716 100.046 34.669 100.011 34.9625Z" fill="#403D4F"/>
<path d="M112.462 27.9439L112.661 27.7206C112.868 27.5428 113.093 27.385 113.33 27.2494C113.638 27.0601 113.972 26.918 114.322 26.8278C114.712 26.6811 115.122 26.5974 115.538 26.5797C115.933 26.5302 116.333 26.5302 116.728 26.5797C117.075 26.5496 117.423 26.5496 117.77 26.5797L118.737 26.8525C118.871 26.9061 118.983 27.003 119.055 27.1277C119.128 27.2525 119.156 27.3979 119.136 27.5406C119.116 27.6834 119.049 27.8153 118.945 27.9154C118.841 28.0155 118.707 28.0779 118.564 28.0927H117.571C117.283 28.0553 116.991 28.0553 116.703 28.0927C116.381 28.0681 116.058 28.0681 115.736 28.0927C115.419 28.1341 115.104 28.1921 114.794 28.2663C114.496 28.2663 114.248 28.4647 114 28.4895C113.825 28.5671 113.642 28.6253 113.454 28.6632H113.256C113.097 28.7316 112.919 28.7362 112.757 28.6762C112.595 28.6161 112.463 28.4959 112.388 28.3407C112.351 28.2545 112.332 28.1617 112.332 28.0679C112.332 27.9741 112.351 27.8813 112.388 27.795L112.462 27.9439Z" fill="#403D4F"/>
<path d="M100.408 28.8859H100.235L99.8627 28.7371H99.5899C99.4975 28.6809 99.3972 28.6391 99.2922 28.6131C99.0814 28.5408 98.866 28.4828 98.6474 28.4395C98.4089 28.4045 98.1665 28.4045 97.9281 28.4395C97.7221 28.4157 97.514 28.4157 97.308 28.4395H96.5144C96.3477 28.433 96.1899 28.3622 96.0743 28.242C95.9587 28.1217 95.8942 27.9614 95.8943 27.7946C95.8924 27.6699 95.9296 27.5478 96.0008 27.4454C96.072 27.3431 96.1735 27.2656 96.2911 27.2241L97.06 26.9513C97.3314 26.8572 97.6161 26.807 97.9033 26.8025C98.2395 26.741 98.584 26.741 98.9202 26.8025C99.5704 26.873 100.188 27.122 100.706 27.5218C100.881 27.6596 101.039 27.8178 101.177 27.993C101.301 28.1419 101.301 28.1914 101.301 28.1914V28.4395C101.323 28.6069 101.277 28.776 101.175 28.9105C101.073 29.045 100.923 29.1341 100.756 29.1588C100.681 29.1415 100.612 29.1081 100.552 29.061C100.492 29.0138 100.443 28.954 100.408 28.8859Z" fill="#403D4F"/>
<path d="M105.468 43.3954C105.049 43.3989 104.634 43.3146 104.25 43.148C103.865 42.9814 103.52 42.7362 103.236 42.4281C103.131 42.3203 103.051 42.1916 103 42.0506C102.948 41.9095 102.928 41.7593 102.938 41.6096C102.938 41.3368 103.36 37.914 103.509 36.6491C103.527 36.5218 103.595 36.4066 103.696 36.3279C103.798 36.2493 103.926 36.2132 104.054 36.2274C104.177 36.2458 104.288 36.3095 104.366 36.4059C104.444 36.5023 104.484 36.6245 104.476 36.7483C104.476 36.9467 103.93 41.436 103.881 41.7088C104.084 41.9336 104.333 42.112 104.611 42.2318C104.889 42.3516 105.19 42.4102 105.493 42.4033C105.554 42.4032 105.614 42.4155 105.67 42.4395C105.726 42.4635 105.776 42.4985 105.818 42.5427C105.86 42.5868 105.892 42.639 105.913 42.6961C105.934 42.7531 105.943 42.8139 105.939 42.8746C105.951 42.9412 105.947 43.0096 105.928 43.0746C105.909 43.1396 105.876 43.1994 105.83 43.2495C105.785 43.2997 105.729 43.339 105.666 43.3642C105.603 43.3895 105.536 43.4001 105.468 43.3954Z" fill="#F18380"/>
<path d="M121.763 1.57838C108.023 -2.71247 98.2505 2.66973 95.1502 6.73736C93.8928 6.32425 92.7815 5.55677 91.9499 4.52717C91.1183 3.49757 90.6018 2.2497 90.4625 0.933562C89.7452 1.32717 89.1721 1.93936 88.8268 2.68113C88.4814 3.42289 88.3816 4.2555 88.5421 5.05784C88.7025 5.86018 89.1148 6.59037 89.7189 7.14223C90.323 7.6941 91.0875 8.03887 91.901 8.1263C86.9405 9.76327 84.0387 14.7486 84.1875 20.9244C84.3961 23.1823 85.1928 25.3461 86.4984 27.2C87.804 29.0539 89.5727 30.5331 91.6282 31.4903C93.0718 27.1605 95.2444 23.109 98.0521 19.5107C98.8246 22.6846 100.462 25.582 102.783 27.8808C105.104 30.1796 108.016 31.7897 111.197 32.532C110.889 30.6213 110.399 28.7443 109.734 26.9266C112.516 29.2497 115.817 30.8664 119.358 31.6392C119.605 29.5336 119.546 27.4033 119.184 25.3145C121.664 29.7789 125.831 36.5501 131.982 38.4351H135.851C137.886 34.2646 138.849 29.653 138.654 25.0169C138.604 16.4352 135.504 5.86923 121.763 1.57838Z" fill="#302D3B"/>
<path d="M129.774 39.9482C129.973 36.575 130.866 32.5074 134.983 33.2267C139.794 33.9459 140.266 46.9673 130.022 45.4048L129.774 39.9482Z" fill="#FBBEAA"/>
<path d="M135.38 40.8166C135.294 40.8178 135.209 40.7953 135.134 40.7516C135.06 40.7079 134.999 40.6446 134.958 40.5686C134.853 40.3508 134.692 40.1649 134.492 40.0298C134.291 39.8947 134.059 39.8153 133.817 39.7997C133.534 39.8026 133.256 39.8769 133.009 40.0156C132.762 40.1543 132.554 40.353 132.404 40.5934C132.348 40.6827 132.264 40.7507 132.165 40.7866C132.066 40.8226 131.958 40.8244 131.858 40.7918C131.758 40.7547 131.673 40.6865 131.615 40.5971C131.557 40.5078 131.529 40.4021 131.536 40.2958C131.573 39.2479 131.898 38.2306 132.475 37.3555C133.053 36.4804 133.861 35.7814 134.809 35.3353C134.928 35.296 135.057 35.3052 135.169 35.361C135.28 35.4168 135.365 35.5146 135.405 35.6329C135.444 35.7513 135.435 35.8805 135.379 35.992C135.323 36.1036 135.225 36.1885 135.107 36.2281C134.55 36.4991 134.053 36.8807 133.648 37.3498C133.243 37.8189 132.938 38.3655 132.751 38.9564C133.104 38.8091 133.484 38.7332 133.867 38.7332C134.268 38.7712 134.654 38.9061 134.991 39.1265C135.328 39.3469 135.606 39.6461 135.802 39.9982C135.832 40.0534 135.85 40.114 135.857 40.1766C135.863 40.2391 135.857 40.3023 135.838 40.3624C135.82 40.4225 135.789 40.4783 135.749 40.5265C135.709 40.5747 135.659 40.6143 135.603 40.643L135.38 40.8166Z" fill="#F18380"/>
<path d="M134.76 48.3807C133.569 39.427 130.146 24.6942 130.146 24.6942H123.772C123.772 24.6942 123.524 51.5554 123.35 57.4336C123.177 63.3118 121.614 65.0728 121.614 65.0728C121.614 65.0728 129.601 63.5351 130.469 55.8959C130.735 57.3718 130.909 58.8628 130.99 60.3603C130.99 60.3603 135.925 57.3344 134.76 48.3807Z" fill="#302D3B"/>
<path d="M124.119 122.292L163.605 171.476C168.293 177.925 175.237 180.802 182.157 174.998C183.437 173.91 184.483 172.574 185.231 171.07C185.979 169.567 186.413 167.927 186.509 166.25C186.604 164.573 186.357 162.894 185.784 161.315C185.211 159.737 184.323 158.291 183.174 157.066L135.603 109.941C131.461 105.104 126.476 104.335 122.854 107.46C118.464 111.354 118.985 115.918 124.119 122.292Z" fill="#FBBEAA"/>
<path d="M137.984 112.52C133.594 108.08 125.384 98.5067 122.606 96.1753C119.86 94.1057 116.859 92.3969 113.677 91.0907C111.264 90.2822 108.768 89.7416 106.237 89.4785C104.476 89.2553 103.756 89.7762 103.756 90.8427C103.801 91.4781 104.003 92.0923 104.345 92.6294C104.687 93.1666 105.159 93.6096 105.716 93.9182H102.467C101.35 93.9182 100.631 94.8111 101.152 96.2497C101.625 97.2001 102.301 98.0349 103.133 98.695C103.964 99.355 104.931 99.8242 105.964 100.069C105.964 100.069 101.574 100.491 100.458 100.714C99.3415 100.937 98.9943 101.359 98.9943 102.425C99.0039 103.162 99.2086 103.883 99.5877 104.515C99.9668 105.147 100.507 105.667 101.152 106.022C102.732 106.663 104.409 107.032 106.113 107.113C106.113 107.113 100.681 108.477 99.5895 108.874C98.4982 109.271 98.3741 109.99 98.9446 110.933C99.2697 111.597 99.7391 112.18 100.318 112.639C100.898 113.098 101.572 113.422 102.293 113.587C104.352 114.132 105.741 113.239 106.485 113.363C108.083 113.879 109.649 114.491 111.172 115.199C113.46 117.476 116.257 119.177 119.332 120.159C121.621 121.12 123.721 122.481 125.533 124.177C126.377 124.969 127.371 125.584 128.457 125.985C129.543 126.386 130.698 126.566 131.854 126.512C133.01 126.459 134.144 126.175 135.189 125.676C136.233 125.177 137.167 124.473 137.934 123.607C141.903 119.39 141.233 115.869 137.984 112.52Z" fill="#FBBEAA"/>
<path d="M123.391 127.617L163.319 172.516C168.104 178.893 179.285 182.397 186.116 176.489C187.379 175.382 188.404 174.031 189.13 172.516C189.855 171.001 190.265 169.354 190.334 167.676C190.404 165.998 190.132 164.323 189.535 162.753C188.938 161.184 188.028 159.751 186.861 158.544L138.473 107.895L123.391 127.617Z" fill="#003399"/>
<path d="M106.261 93.9428C106.254 93.9838 106.256 94.0258 106.266 94.0661C106.276 94.1065 106.294 94.1442 106.32 94.177C106.346 94.2097 106.378 94.2367 106.415 94.2561C106.452 94.2756 106.492 94.2871 106.534 94.29L108.568 94.4884H109.56C109.907 94.4884 110.229 94.6124 110.577 94.6372C110.943 94.7473 111.3 94.8883 111.643 95.0588L112.784 95.5301C114.322 96.1502 115.86 96.7206 117 97.1423C118.141 97.5639 118.935 97.812 118.935 97.812C118.998 97.8385 119.068 97.8405 119.133 97.8175C119.197 97.7945 119.25 97.7483 119.282 97.6879C119.329 97.6274 119.354 97.5533 119.354 97.4771C119.354 97.4009 119.329 97.3269 119.282 97.2663L117.422 96.299L115.487 95.3813C114.793 95.0589 114.024 94.7364 113.255 94.4388L112.09 93.9923C111.715 93.8229 111.324 93.69 110.924 93.5955L109.733 93.4715H108.716H107.203H106.633C106.57 93.4222 106.491 93.3997 106.412 93.409C106.333 93.4183 106.261 93.4586 106.211 93.5211C106.162 93.5836 106.139 93.6631 106.149 93.7422C106.158 93.8213 106.198 93.8934 106.261 93.9428ZM106.732 99.9202H107.179C107.55 99.8869 107.923 99.8869 108.295 99.9202L109.064 100.044C109.347 100.08 109.628 100.129 109.907 100.193L111.593 100.739C112.734 101.111 113.85 101.582 114.694 101.929C114.694 101.929 114.967 101.929 114.942 102.053H115.239L115.686 102.177H115.959H116.108C116.182 102.195 116.248 102.241 116.289 102.306C116.331 102.371 116.346 102.449 116.331 102.524C116.32 102.584 116.29 102.638 116.245 102.678C116.2 102.719 116.143 102.743 116.083 102.748H114.818H114.421C113.553 102.524 112.387 102.177 111.246 101.78L109.584 101.16L108.816 100.962L108.146 100.763C107.803 100.662 107.456 100.579 107.104 100.515L106.683 100.391C106.645 100.38 106.61 100.361 106.58 100.337C106.55 100.312 106.525 100.281 106.506 100.247C106.488 100.212 106.476 100.174 106.472 100.135C106.469 100.096 106.473 100.057 106.484 100.019C106.513 99.9829 106.552 99.9547 106.595 99.9373C106.639 99.9199 106.686 99.9141 106.732 99.9202ZM106.732 106.964H107.65C107.898 106.964 108.22 106.964 108.543 107.138L109.56 107.46C110.2 107.685 110.821 107.959 111.42 108.279C111.695 108.408 111.96 108.557 112.214 108.725C112.264 108.784 112.292 108.858 112.292 108.936C112.292 109.013 112.264 109.088 112.214 109.147C112.142 109.222 112.044 109.267 111.941 109.271L111.023 109.122C110.502 108.998 109.832 108.8 109.163 108.576L108.196 108.179L107.352 107.857C107.071 107.732 106.798 107.592 106.534 107.435C106.464 107.394 106.412 107.327 106.389 107.249C106.366 107.171 106.373 107.087 106.41 107.014C106.483 106.967 106.572 106.949 106.658 106.964H106.732Z" fill="#F18380"/>
<path d="M23.2473 50.514C24.1898 50.514 24.2641 49.9188 24.6858 48.8275C22.5776 48.8275 16.4513 49.2243 13.7727 54.3832C16.4761 50.6628 21.6599 50.514 23.2473 50.514ZM18.4356 30.8951C18.4356 30.8951 18.5844 31.7633 18.7332 33.0282C18.7332 33.6731 18.882 34.4419 18.9316 35.2356C18.9813 36.0293 19.0556 36.8974 19.13 37.7159C19.13 39.452 19.254 41.1634 19.254 42.4532C19.254 43.7429 19.254 44.611 19.254 44.611C19.2542 44.6522 19.2457 44.6931 19.2293 44.731C19.2128 44.7688 19.1886 44.8027 19.1583 44.8307C19.1279 44.8587 19.0922 44.8801 19.0531 44.8935C19.0141 44.9069 18.9728 44.912 18.9316 44.9086C18.8619 44.9051 18.795 44.879 18.7414 44.8343C18.6877 44.7895 18.65 44.7286 18.634 44.6606C18.634 44.6606 18.4852 43.7925 18.3612 42.5027C18.2371 41.213 18.0387 39.5016 17.9643 37.7903C17.9643 36.9222 17.9643 36.0541 17.9643 35.31C17.9643 34.5659 17.9643 33.7475 17.9643 33.1026C17.9643 31.7881 17.9643 30.9447 17.9643 30.9447C17.9642 30.9035 17.9726 30.8627 17.9891 30.8248C18.0055 30.787 18.0297 30.753 18.0601 30.725C18.0904 30.697 18.1262 30.6757 18.1652 30.6622C18.2042 30.6488 18.2456 30.6437 18.2868 30.6471C18.3343 30.6745 18.3734 30.7145 18.3996 30.7626C18.4259 30.8108 18.4383 30.8652 18.4356 30.92V30.8951ZM12.6813 32.6314C12.6813 32.6314 12.8302 33.3754 13.0038 34.4667C13.0038 35.0372 13.1774 35.682 13.2518 36.3765C13.3262 37.071 13.4006 37.8151 13.475 38.5591C13.475 40.0473 13.6486 41.5354 13.6734 42.6516C13.6982 43.7677 13.6734 44.5366 13.6734 44.5366C13.6703 44.5757 13.6595 44.6138 13.6416 44.6488C13.6236 44.6837 13.599 44.7148 13.5691 44.7401C13.5391 44.7655 13.5044 44.7847 13.4669 44.7966C13.4295 44.8085 13.3902 44.8128 13.3511 44.8094C13.2843 44.8048 13.2211 44.7778 13.1716 44.7328C13.1221 44.6878 13.0892 44.6274 13.0782 44.5614C13.0782 44.5614 12.9294 43.8173 12.7558 42.726C12.5821 41.6346 12.4333 40.1217 12.3093 38.6584C12.3093 37.9143 12.3093 37.1702 12.1605 36.4757C12.0117 35.7813 12.1605 35.1116 12.1605 34.5411C12.1605 33.425 12.1605 32.6809 12.1605 32.6809C12.1604 32.6397 12.1688 32.5989 12.1853 32.561C12.2017 32.5232 12.2259 32.4892 12.2563 32.4612C12.2866 32.4332 12.3224 32.4119 12.3614 32.3985C12.4004 32.385 12.4418 32.3799 12.483 32.3833C12.538 32.406 12.5856 32.4436 12.6206 32.4917C12.6557 32.5399 12.6767 32.5967 12.6813 32.6561V32.6314ZM7.12559 34.9876C7.12559 34.9876 7.27437 35.6076 7.47279 36.5501C7.47279 36.9966 7.67125 37.5423 7.74566 38.1375C7.82006 38.7328 7.91924 39.3528 8.01845 39.9729C8.19206 41.2378 8.26654 42.4532 8.31614 43.4453C8.36575 44.4374 8.31614 45.0327 8.31614 45.0327C8.31628 45.0739 8.3078 45.1147 8.29132 45.1526C8.27483 45.1904 8.25064 45.2244 8.22032 45.2524C8.18999 45.2804 8.1542 45.3017 8.11518 45.3151C8.07616 45.3285 8.03481 45.3337 7.99369 45.3303C7.93037 45.327 7.86974 45.3035 7.82066 45.2634C7.77159 45.2232 7.73659 45.1685 7.72083 45.1071C7.72083 45.1071 7.54725 44.487 7.37363 43.5693C7.20001 42.6516 6.95196 41.3618 6.80314 40.1217C6.80314 39.4768 6.67911 38.8568 6.62951 38.2615C6.5799 37.6663 6.62951 37.1206 6.62951 36.6494C6.62951 35.7069 6.62951 35.062 6.62951 35.062C6.62936 35.0207 6.63785 34.9799 6.65433 34.9421C6.67082 34.9042 6.69494 34.8702 6.72526 34.8422C6.75558 34.8142 6.79144 34.7929 6.83047 34.7795C6.86949 34.7661 6.91083 34.7609 6.95195 34.7643C6.99774 34.7899 7.03716 34.8255 7.06723 34.8684C7.0973 34.9114 7.11725 34.9606 7.12559 35.0124V34.9876Z" fill="#F18380"/>
<path d="M107.5 49.6054C109.894 49.513 112.193 48.6422 114.048 47.1251" stroke="#73102A" stroke-width="0.5" stroke-miterlimit="10" stroke-linecap="round"/>
<path d="M186.04 432.352L183.72 417.27H136.54L138.087 432.738L186.04 432.352Z" fill="#CFD1CE"/>
<path d="M123.778 432.352L123.391 417.27H76.985L76.5983 432.738L123.778 432.352Z" fill="#CFD1CE"/>
<path d="M170.571 139.219L162.45 132.645L146.208 153.141L152.782 160.875L170.571 139.219Z" fill="#BCC8D6"/>
<path d="M122.78 84.593L123.526 84.6006L123.516 85.5324L124.313 85.5406L124.322 84.6088L125.069 84.6165L125.042 87.1624L124.296 87.1547L124.306 86.1465L123.51 86.1383L123.5 87.1465L122.753 87.1388L122.779 84.593L122.78 84.593ZM127.732 84.6439L127.706 87.1897L126.985 87.1823L127.004 85.2399L126.532 85.2351L126.525 85.9658C126.521 86.2941 126.492 86.6962 126.291 86.9207C126.09 87.1707 125.715 87.2433 125.293 87.1626L125.3 86.5313C125.696 86.6117 125.798 86.4601 125.803 85.9561L125.817 84.6195L127.732 84.6392L127.732 84.6439ZM128.355 84.6503L129.101 84.6579L129.508 86.1745L129.946 84.6666L130.692 84.6743L131.015 87.2238L130.319 87.2166L130.159 85.8528L129.746 87.2106L129.248 87.2055L128.865 85.8395L128.678 87.1996L127.982 87.1925L128.355 84.6502L128.355 84.6503ZM131.315 84.6807L132.061 84.6884L132.051 85.722L132.782 84.6958L133.604 84.7042L132.646 85.9547L133.603 87.2504L132.708 87.2412L132.048 86.2006L132.037 87.2343L131.291 87.2266L131.317 84.6807L131.315 84.6807L131.315 84.6807ZM128.132 81.9237C123.654 81.8777 120.675 83.4867 120.65 85.9054C120.626 88.3009 123.569 89.9939 128.048 90.04C132.551 90.0863 135.505 88.4515 135.53 86.0583C135.555 83.6397 132.637 81.97 128.132 81.9237ZM128.052 89.663C123.846 89.6198 121.052 88.1041 121.075 85.9097C121.098 83.6922 123.924 82.2575 128.128 82.3007C132.357 82.3441 135.131 83.8342 135.108 86.054C135.085 88.2484 132.283 89.7065 128.052 89.663ZM128.124 82.6544C124.169 82.6138 121.517 83.9232 121.497 85.9141C121.477 87.9049 124.101 89.2686 128.056 89.3093C132.011 89.3499 134.663 88.0405 134.683 86.0496C134.706 84.0588 132.082 82.6951 128.124 82.6544ZM128.057 89.2353C124.15 89.1951 121.552 87.8573 121.572 85.9171C121.592 83.9771 124.219 82.693 128.124 82.7331C132.028 82.7732 134.628 84.1111 134.608 86.0511C134.59 87.9913 131.964 89.2756 128.057 89.2354L128.057 89.2353Z" fill="white"/>
</svg>
