<svg width="192" height="514" viewBox="0 0 192 514" fill="none" xmlns="http://www.w3.org/2000/svg">
<path d="M126.979 49.5918V70.5242C126.979 70.5242 125.327 77.7236 114.257 77.7236C112.059 77.9089 109.874 77.2457 108.15 75.8702C106.426 74.4946 105.294 72.5111 104.987 70.327V49.6164L126.979 49.5918Z" fill="#FBBEAA"/>
<path d="M159.919 215.202C159.376 208.372 152.054 182.188 144.189 167.272C144.189 167.272 127.031 169.439 115.982 169.475C104.453 169.513 86.5442 167.272 86.5442 167.272C81.4159 178.884 75.5726 204.255 73.8714 209.728C72.8444 212.949 72.7197 216.389 73.5108 219.675C74.3019 222.961 75.9786 225.968 78.3587 228.368C84.202 235 99.2664 242.594 102.743 242.594C117.699 240.457 132.359 236.602 146.432 231.105C154.371 227.776 160.436 222.056 159.919 215.202Z" fill="#013EA5"/>
<path d="M23.7475 72.9891C23.6459 70.7674 24.2406 68.5694 25.4488 66.702C27.3088 64.5453 28.7023 62.027 29.5416 59.3054C30.1872 56.7791 31.2184 54.3674 32.5989 52.1553C33.5851 50.7992 35.0644 49.6898 35.0644 48.6543C35.0644 47.6187 33.092 45.6217 30.2813 46.1887C29.0773 46.5638 27.9711 47.2003 27.0419 48.0528C26.1128 48.9053 25.3835 49.9526 24.9063 51.1198C24.6371 50.4086 24.4791 49.6602 24.438 48.9008L23.8216 33.7871C23.8122 33.3953 23.7244 33.0093 23.5634 32.652C23.4024 32.2947 23.1714 31.9732 22.8841 31.7066C22.5969 31.4401 22.2591 31.2337 21.8908 31.0998C21.5225 30.9659 21.1311 30.9072 20.7397 30.9271C20.1165 30.9536 19.5173 31.1749 19.0264 31.5596C18.5355 31.9444 18.1776 32.4733 18.0029 33.0721V32.3817C17.908 31.647 17.5388 30.9754 16.9693 30.5016C16.3997 30.0279 15.672 29.7871 14.9323 29.8277C14.1926 29.8683 13.4957 30.1872 12.9814 30.7204C12.467 31.2536 12.1735 31.9616 12.1596 32.7022V34.798C11.9126 34.1519 11.4417 33.616 10.8327 33.288C10.2238 32.96 9.51719 32.8619 8.84184 33.0113C8.16648 33.1607 7.56729 33.5477 7.15347 34.102C6.73966 34.6562 6.53877 35.3408 6.58743 36.0307V37.3621C6.32205 36.8957 5.92658 36.5168 5.44931 36.2716C4.97204 36.0264 4.43366 35.9255 3.9 35.9814C3.16919 36.0741 2.50322 36.4477 2.04302 37.023C1.58283 37.5982 1.36454 38.33 1.43446 39.0633L2.64255 51.8102C3.43397 58.9966 4.92029 66.0895 7.08056 72.9891C7.10668 74.1411 7.37358 75.2749 7.86406 76.3176C8.35455 77.3603 9.05777 78.2889 9.92856 79.0436C10.7993 79.7982 11.8184 80.3623 12.9203 80.6996C14.0221 81.0369 15.1823 81.14 16.3263 81.0021C17.3616 81.0366 18.3922 80.8482 19.3483 80.4494C20.3043 80.0506 21.1634 79.4508 21.8673 78.6908C22.5712 77.9308 23.1034 77.0283 23.4278 76.0445C23.7523 75.0608 23.8613 74.0187 23.7475 72.9891Z" fill="#FBBEAA"/>
<path d="M106.836 475.365C106.836 472.991 105.893 470.715 104.215 469.036C102.536 467.358 100.26 466.415 97.886 466.415C95.5124 466.415 93.2359 467.358 91.5575 469.036C89.879 470.715 88.9361 472.991 88.9361 475.365V494.818H106.836V475.365Z" fill="#FBBEAA"/>
<path d="M89.5764 478.989C87.3821 478.989 86.9876 479.951 86.3466 481.208C85.3068 484.559 83.5292 487.634 81.1443 490.208C77.5838 493.24 73.764 495.954 69.7289 498.319V508.625H109.572C109.572 508.625 109.301 500.489 109.104 494.744C108.906 488.999 108.339 481.997 108.388 481.258C108.438 480.518 108.389 478.989 107.032 478.989H89.5764Z" fill="#302D3B"/>
<path d="M104.617 495.311C104.622 496.576 104.251 497.814 103.551 498.868C102.851 499.922 101.854 500.744 100.687 501.23C99.5187 501.717 98.2327 501.845 96.9917 501.6C95.7507 501.354 94.6107 500.745 93.7161 499.851C92.8216 498.956 92.2129 497.816 91.9673 496.575C91.7217 495.334 91.8502 494.048 92.3366 492.88C92.8229 491.713 93.6453 490.715 94.6992 490.016C95.7531 489.316 96.991 488.945 98.2561 488.95C99.9412 488.956 101.555 489.628 102.747 490.82C103.938 492.012 104.611 493.626 104.617 495.311Z" fill="#0447BA"/>
<path d="M98.2559 491.563L99.7105 493.708L102.201 494.423L100.623 496.47L100.697 499.058L98.2559 498.171L95.815 499.058L95.9136 496.47L94.311 494.423L96.8012 493.708L98.2559 491.563Z" fill="white"/>
<path d="M70.0008 498.147C70.0008 498.147 64.3547 501.13 62.2343 502.585C61.2527 503.25 60.4553 504.152 59.9164 505.209C59.3776 506.265 59.1148 507.44 59.1524 508.625H74.636C74.636 508.625 74.3155 501.056 70.0008 498.147Z" fill="white"/>
<path d="M109.572 508.625V512.891C109.572 513.606 108.931 514 107.846 514H60.8529C59.7927 514 59.1517 513.606 59.1517 512.891V508.625H109.572Z" fill="white"/>
<path d="M74.6359 495.262C74.4994 495.052 74.2865 494.904 74.0426 494.849C73.7986 494.794 73.5427 494.836 73.3292 494.966C73.2229 495.031 73.1307 495.117 73.0581 495.219C72.9855 495.32 72.9339 495.435 72.9063 495.557C72.8788 495.679 72.8758 495.805 72.8976 495.928C72.9194 496.051 72.9656 496.168 73.0333 496.273L74.6852 498.935C74.7648 499.073 74.8801 499.187 75.0189 499.265C75.1577 499.344 75.315 499.383 75.4742 499.379C75.6568 499.376 75.8354 499.325 75.9919 499.231C76.0982 499.166 76.1904 499.08 76.263 498.978C76.3356 498.877 76.3873 498.762 76.4149 498.64C76.4424 498.518 76.4453 498.392 76.4235 498.27C76.4017 498.147 76.3556 498.029 76.2879 497.925L74.6359 495.262Z" fill="white"/>
<path d="M77.545 493.215C77.4641 493.121 77.3654 493.044 77.2547 492.988C77.144 492.933 77.0234 492.899 76.8997 492.89C76.7761 492.881 76.6519 492.896 76.5342 492.935C76.4165 492.974 76.3076 493.036 76.2137 493.117C76.1198 493.197 76.0428 493.296 75.987 493.407C75.9312 493.518 75.8977 493.638 75.8886 493.762C75.8794 493.885 75.8947 494.01 75.9336 494.127C75.9724 494.245 76.0341 494.354 76.115 494.448L78.0382 496.716C78.1269 496.82 78.2363 496.905 78.3594 496.964C78.4825 497.023 78.6166 497.057 78.7532 497.061C78.9318 497.058 79.1059 497.005 79.256 496.908C79.4062 496.811 79.5264 496.675 79.6032 496.513C79.68 496.352 79.7103 496.173 79.6909 495.995C79.6714 495.817 79.6028 495.649 79.4928 495.508L77.545 493.215Z" fill="white"/>
<path d="M80.2814 490.923C80.0852 490.796 79.8498 490.745 79.619 490.78C79.3882 490.814 79.1777 490.931 79.0269 491.109C78.876 491.287 78.795 491.514 78.799 491.747C78.803 491.981 78.8917 492.205 79.0486 492.377L81.2429 494.276C81.415 494.421 81.6338 494.5 81.8593 494.498C81.995 494.502 82.1301 494.476 82.2541 494.421C82.378 494.365 82.4876 494.282 82.5743 494.177C82.6654 494.092 82.738 493.989 82.7876 493.874C82.8373 493.76 82.8628 493.636 82.8628 493.511C82.8628 493.387 82.8373 493.263 82.7876 493.149C82.738 493.034 82.6654 492.931 82.5743 492.846L80.2814 490.923Z" fill="white"/>
<path d="M85.09 489.788L82.6245 488.26C82.408 488.132 82.15 488.093 81.9057 488.153C81.6615 488.213 81.4503 488.366 81.3177 488.58C81.251 488.686 81.2063 488.805 81.1864 488.929C81.1664 489.053 81.1715 489.179 81.2014 489.301C81.2313 489.423 81.2853 489.538 81.3604 489.638C81.4354 489.739 81.5299 489.824 81.6383 489.887L84.1038 491.416C84.2499 491.512 84.4216 491.564 84.5969 491.563C84.7576 491.56 84.9145 491.514 85.0527 491.432C85.1908 491.35 85.3055 491.234 85.3858 491.095C85.5162 490.881 85.5582 490.626 85.503 490.382C85.4478 490.138 85.2996 489.925 85.09 489.788Z" fill="white"/>
<path d="M87.1609 486.608L84.3995 485.449C84.1641 485.351 83.8994 485.351 83.6636 485.448C83.4277 485.545 83.2402 485.732 83.1421 485.967C83.094 486.082 83.0692 486.205 83.0692 486.33C83.0693 486.454 83.0942 486.577 83.1424 486.692C83.1906 486.807 83.2612 486.911 83.35 486.998C83.4389 487.085 83.5442 487.154 83.6599 487.2L86.4213 488.359H86.7911C87.0038 488.347 87.2067 488.266 87.368 488.126C87.5292 487.987 87.6396 487.798 87.6819 487.59C87.7243 487.381 87.696 487.164 87.6017 486.973C87.5074 486.782 87.3524 486.628 87.1609 486.534V486.608Z" fill="white"/>
<path d="M88.8867 483.057L85.8294 482.293C85.5875 482.234 85.3321 482.274 85.1194 482.403C84.9067 482.533 84.7541 482.741 84.6952 482.983C84.6364 483.225 84.6761 483.481 84.8055 483.693C84.935 483.906 85.1436 484.059 85.3856 484.117L88.4182 484.906H88.6401C88.8524 484.904 89.0583 484.833 89.2271 484.704C89.3959 484.575 89.5186 484.396 89.577 484.191C89.6298 483.95 89.5876 483.697 89.459 483.486C89.3305 483.275 89.1255 483.121 88.8867 483.057Z" fill="white"/>
<path d="M119.928 350.954C119.657 339.021 111.619 333.252 99.7108 333.547C87.8022 333.843 79.2221 340.081 79.4933 351.99L88.9363 476.327H106.836L119.928 350.954Z" fill="#FBBEAA"/>
<path d="M121.48 350.88C121.414 348.046 120.79 345.254 119.645 342.662C118.499 340.07 116.854 337.729 114.804 335.773C112.754 333.817 110.338 332.283 107.696 331.26C105.053 330.237 102.234 329.745 99.4013 329.812C96.5683 329.878 93.776 330.502 91.184 331.647C88.592 332.793 86.251 334.437 84.2946 336.488C82.3383 338.538 80.805 340.953 79.7821 343.596C78.7593 346.239 78.2669 349.057 78.3333 351.89L75.3703 480.505H124.114L121.48 350.88Z" fill="#013EA5"/>
<path d="M182.281 475.365C182.281 472.991 181.338 470.715 179.66 469.036C177.982 467.358 175.705 466.415 173.331 466.415C170.958 466.415 168.681 467.358 167.003 469.036C165.324 470.715 164.381 472.991 164.381 475.365V494.818H182.281V475.365Z" fill="#FBBEAA"/>
<path d="M165.047 478.989C162.828 478.989 162.434 479.951 161.817 481.208C160.766 484.559 158.98 487.634 156.59 490.208C153.035 493.246 149.214 495.961 145.175 498.319V508.625H185.018C185.018 508.625 184.747 500.489 184.55 494.744C184.352 488.999 183.81 481.997 183.835 481.258C183.859 480.518 183.835 478.989 182.503 478.989H165.047Z" fill="#302D3B"/>
<path d="M180.087 495.311C180.091 496.575 179.721 497.812 179.022 498.865C178.324 499.919 177.328 500.741 176.162 501.228C174.995 501.715 173.711 501.845 172.47 501.601C171.23 501.358 170.09 500.752 169.194 499.86C168.299 498.967 167.688 497.83 167.44 496.59C167.191 495.351 167.316 494.066 167.799 492.897C168.281 491.729 169.1 490.73 170.151 490.028C171.201 489.325 172.437 488.95 173.701 488.95C175.39 488.95 177.011 489.619 178.208 490.811C179.404 492.004 180.08 493.621 180.087 495.311Z" fill="#0447BA"/>
<path d="M173.726 491.563L175.18 493.708L177.67 494.423L176.068 496.47L176.142 499.058L173.726 498.171L171.285 499.058L171.359 496.47L169.756 494.423L172.271 493.708L173.726 491.563Z" fill="white"/>
<path d="M145.471 498.147C145.471 498.147 139.8 501.13 137.704 502.585C136.718 503.245 135.917 504.146 135.377 505.204C134.838 506.261 134.578 507.439 134.623 508.625H150.18C150.18 508.625 149.761 501.056 145.471 498.147Z" fill="white"/>
<path d="M185.018 508.625V512.891C185.018 513.606 184.402 514 183.317 514H136.274C135.19 514 134.573 513.606 134.573 512.891V508.625H185.018Z" fill="white"/>
<path d="M150.081 495.262C149.947 495.049 149.734 494.899 149.489 494.843C149.244 494.788 148.987 494.832 148.775 494.966C148.562 495.1 148.411 495.313 148.356 495.558C148.3 495.803 148.345 496.06 148.479 496.273L150.131 498.935C150.216 499.074 150.336 499.187 150.479 499.265C150.621 499.343 150.782 499.382 150.944 499.379C151.12 499.38 151.291 499.328 151.437 499.231C151.544 499.166 151.636 499.08 151.708 498.978C151.781 498.877 151.833 498.762 151.86 498.64C151.888 498.518 151.891 498.392 151.869 498.27C151.847 498.147 151.801 498.029 151.733 497.925L150.081 495.262Z" fill="white"/>
<path d="M153.016 493.215C152.853 493.026 152.623 492.907 152.375 492.884C152.126 492.861 151.879 492.936 151.684 493.092C151.493 493.259 151.374 493.493 151.351 493.745C151.328 493.998 151.403 494.249 151.561 494.448L153.509 496.716C153.594 496.824 153.703 496.911 153.827 496.971C153.95 497.03 154.086 497.062 154.224 497.061C154.404 497.063 154.582 497.013 154.734 496.916C154.887 496.819 155.009 496.681 155.084 496.516C155.16 496.352 155.186 496.17 155.16 495.991C155.135 495.812 155.058 495.644 154.939 495.508L153.016 493.215Z" fill="white"/>
<path d="M155.727 490.923C155.531 490.796 155.296 490.745 155.065 490.78C154.834 490.814 154.624 490.931 154.473 491.109C154.322 491.287 154.241 491.514 154.245 491.747C154.249 491.981 154.338 492.205 154.494 492.377L156.713 494.276C156.885 494.421 157.104 494.5 157.33 494.498C157.465 494.501 157.6 494.473 157.723 494.418C157.847 494.363 157.957 494.28 158.045 494.177C158.133 494.09 158.203 493.986 158.25 493.872C158.298 493.758 158.322 493.635 158.322 493.511C158.322 493.388 158.298 493.265 158.25 493.151C158.203 493.036 158.133 492.933 158.045 492.846L155.727 490.923Z" fill="white"/>
<path d="M160.535 489.788L158.07 488.26C157.857 488.17 157.619 488.16 157.399 488.231C157.18 488.302 156.993 488.45 156.873 488.647C156.754 488.845 156.709 489.078 156.748 489.306C156.786 489.534 156.905 489.74 157.083 489.887L159.549 491.416C159.695 491.512 159.867 491.564 160.042 491.563C160.206 491.561 160.367 491.517 160.51 491.435C160.652 491.353 160.771 491.236 160.856 491.095C160.984 490.879 161.022 490.621 160.962 490.376C160.902 490.132 160.749 489.921 160.535 489.788Z" fill="white"/>
<path d="M24.0431 74.6415L33.9052 136.551C35.5325 144.318 33.0176 151.344 24.0431 152.577C22.3865 152.793 20.7033 152.67 19.0957 152.215C17.4882 151.76 15.9898 150.984 14.6916 149.932C13.3934 148.881 12.3225 147.576 11.5438 146.098C10.7652 144.62 10.2951 143 10.1621 141.334L7.15412 74.7648C6.36515 68.4776 9.10184 64.2863 13.885 63.7685C19.753 63.1275 22.8596 66.6039 24.0431 74.6415Z" fill="#FBBEAA"/>
<path d="M162.605 486.608L159.844 485.449C159.729 485.401 159.606 485.376 159.482 485.376C159.357 485.377 159.234 485.401 159.119 485.45C159.004 485.498 158.9 485.568 158.813 485.657C158.726 485.746 158.657 485.851 158.611 485.967C158.519 486.197 158.519 486.453 158.611 486.682C158.703 486.912 158.88 487.097 159.104 487.2L161.89 488.359C162.004 488.384 162.122 488.384 162.236 488.359C162.426 488.359 162.611 488.302 162.769 488.197C162.927 488.092 163.05 487.942 163.123 487.767C163.198 487.544 163.186 487.301 163.09 487.086C162.995 486.872 162.821 486.701 162.605 486.608Z" fill="white"/>
<path d="M164.333 483.057L161.3 482.293C161.055 482.233 160.796 482.272 160.579 482.401C160.362 482.53 160.205 482.739 160.141 482.984C160.112 483.103 160.106 483.228 160.125 483.35C160.144 483.472 160.187 483.589 160.251 483.694C160.315 483.799 160.399 483.891 160.499 483.964C160.599 484.036 160.712 484.089 160.832 484.118L163.864 484.907H164.111C164.333 484.89 164.542 484.796 164.703 484.642C164.864 484.487 164.966 484.282 164.992 484.061C165.018 483.84 164.967 483.616 164.847 483.429C164.726 483.241 164.545 483.101 164.333 483.033V483.057Z" fill="white"/>
<path d="M172.493 350.584C171.282 344.987 167.898 340.101 163.085 336.998C158.272 333.896 152.424 332.832 146.826 334.04C135.164 336.506 128.877 347.995 131.392 359.657L164.381 478.373H182.503L172.493 350.584Z" fill="#FBBEAA"/>
<path d="M172.493 348.241C171.155 342.779 167.739 338.055 162.972 335.072C158.204 332.088 152.462 331.082 146.964 332.267C141.467 333.452 136.648 336.735 133.533 341.417C130.418 346.099 129.252 351.811 130.283 357.339L141.876 479.352C141.876 479.352 173.287 481.225 192 479.352L172.493 348.241Z" fill="#013EA5"/>
<path d="M16.0299 129.697L86.8401 75.8987C95.0996 70.6225 100.721 73.4332 105.11 79.0793C107.114 81.812 108.043 85.1864 107.72 88.56C107.398 91.9335 105.845 95.0705 103.359 97.3736L32.7215 149.421C30.2323 151.523 27.0278 152.584 23.7758 152.382C20.5239 152.18 17.4753 150.731 15.2656 148.336L14.945 147.991C13.7722 146.74 12.8666 145.263 12.2835 143.65C11.7004 142.037 11.452 140.323 11.5535 138.611C11.655 136.899 12.1043 135.225 12.8739 133.693C13.6435 132.16 14.7174 130.801 16.0299 129.697Z" fill="#FBBEAA"/>
<path d="M103.359 97.349C104.013 96.7864 104.608 96.1585 105.134 95.4752C105.6 93.7204 105.66 91.8827 105.31 90.1013C104.959 88.32 104.208 86.6418 103.113 85.194C99.3898 79.4493 91.574 74.9373 88.0976 75.8003L84.6459 77.5508L45.5671 107.137C49.0258 115.266 53.6977 122.822 59.4234 129.549L103.359 97.349Z" fill="#F18380"/>
<path d="M92.6839 72.0523L31.4064 113.381C31.6641 115.494 26.6983 72.0523 26.6983 72.0523L4.01732 74.1694C4.01732 74.1694 5.34237 118.399 8.68013 141.758C10.0048 151.028 17.7207 154.543 26.8699 152.547C31.387 151.562 35.6396 149.708 39.4239 147.052C55.6853 135.638 101.306 103.489 105.036 99.4445C111.471 92.467 111.471 87.2401 107.773 81.4954C104.075 75.7507 96.1603 71.1894 92.6839 72.0523Z" fill="#013EA5"/>
<path d="M121.481 350.88L134.129 218.456C134.129 203.835 119.065 187.908 96.8504 191.335C76.7809 194.466 70.6663 214.635 72.3182 233.742C73.9702 252.85 78.4328 351.817 78.4328 351.817C78.4992 354.65 79.1229 357.442 80.2684 360.034C81.4139 362.626 83.0587 364.967 85.1089 366.924C87.1591 368.88 89.5746 370.413 92.2174 371.436C94.8602 372.459 97.6786 372.951 100.512 372.885C103.345 372.819 106.137 372.195 108.729 371.049C111.321 369.904 113.662 368.259 115.618 366.209C117.575 364.159 119.108 361.743 120.131 359.1C121.154 356.458 121.646 353.639 121.58 350.806L121.481 350.88Z" fill="#013EA5"/>
<path d="M172.492 348.242L159.918 215.843C157.255 201.468 139.38 188.722 118.201 196.266C99.0934 203.096 96.8745 224.053 102.101 242.52C107.328 260.987 130.282 357.34 130.282 357.34C131.621 362.802 135.036 367.527 139.804 370.51C144.571 373.493 150.314 374.499 155.811 373.314C161.308 372.129 166.127 368.847 169.242 364.165C172.357 359.483 173.523 353.77 172.492 348.242Z" fill="#013EA5"/>
<path d="M102.102 242.52C107.304 260.987 130.283 357.34 130.283 357.34" stroke="#E9E9E9" stroke-width="0.75" stroke-miterlimit="10"/>
<path d="M105.8 69.9565C105.8 69.9565 94.9025 71.8549 92.7821 72.422C91.5308 72.7157 90.3745 73.3221 89.4215 74.1846C88.4685 75.047 87.75 76.1372 87.3333 77.3531C85.9773 80.5829 78.9998 101.737 78.3588 104.03C77.9253 106.556 78.3324 109.155 79.5176 111.427C80.5285 114.188 85.7554 126.762 85.7554 126.762L86.5443 167.271L115.981 171.94L144.189 167.271C144.189 167.271 154.051 91.9245 154.544 87.2646C155.037 82.6047 152.719 73.6055 147.147 72.4714C141.575 71.3372 126.289 70.0058 126.289 70.0058L105.8 69.9565Z" fill="#FBBEAA"/>
<path d="M85.1621 150.983V165.225C104.443 167 135.164 165.743 146.703 165.225C147.246 161.157 147.813 154.253 148.404 149.667C132.699 150.062 106.76 151.526 85.1621 150.983Z" fill="white"/>
<path d="M186.842 163.647L155.259 80.5337C151.043 71.6578 144.805 71.0661 138 73.5316C134.853 74.7871 132.278 77.1581 130.768 80.1917C129.258 83.2252 128.919 86.7088 129.815 89.9768L162.335 171.611C163.321 174.716 165.471 177.319 168.336 178.873C171.2 180.427 174.554 180.811 177.695 179.944L178.164 179.821C179.821 179.369 181.368 178.584 182.712 177.514C184.055 176.445 185.167 175.113 185.979 173.599C186.791 172.086 187.287 170.423 187.435 168.712C187.583 167.001 187.382 165.278 186.842 163.647Z" fill="#FBBEAA"/>
<path d="M105.505 65.3276C104.89 65.3276 103.583 65.3276 102.429 65.7121C102.429 66.6347 104.48 67.3779 105.505 67.6342C105.761 66.8653 106.12 65.3276 105.505 65.3276Z" fill="#013FA9"/>
<path d="M173.751 129.179L155.259 80.5336C154.763 79.4668 154.178 78.4441 153.509 77.4764C151.244 76.0582 148.651 75.2495 145.981 75.1285C143.311 75.0076 140.656 75.5785 138.272 76.786C135.503 78.1332 133.278 80.3853 131.964 83.1697C130.651 85.9541 130.327 89.1037 131.048 92.097C131.048 92.3928 131.22 92.9599 131.368 93.7242L150.451 141.679C158.787 138.673 166.637 134.461 173.751 129.179Z" fill="#F18380"/>
<path d="M152.789 74.9382C158.171 81.858 189.309 166.431 189.309 166.431C160.477 157.205 163.183 132.27 147.502 134.908C147.502 134.908 129.42 92.4672 128.729 88.6702C128.009 85.677 128.332 82.5274 129.646 79.743C130.96 76.9586 133.185 74.7064 135.953 73.3593C143.671 69.4144 147.407 68.0184 152.789 74.9382Z" fill="#0045BA"/>
<path d="M104.987 67.0231C111.939 70.3269 122.073 67.3683 126.979 58.2952V49.5918H104.987V67.0231Z" fill="#F18380"/>
<path d="M100.473 69.9407C94.7741 71.0243 92.1987 71.1538 90.7517 72.108C88.4624 73.644 76.673 94.4568 76.673 103.848C76.673 112.156 78.6842 178.62 80.3602 179.703C82.0363 180.787 112.04 182.192 112.04 182.192V88.0777C108.995 78.6523 102.632 76.0381 100.473 69.9407Z" fill="#0045BA"/>
<path d="M90.7517 72.108C92.1987 71.1538 97.8841 70.2555 103.583 69.1719C105.742 75.2693 108.995 78.6523 112.04 88.0777V103.848H76.673C76.673 94.4568 88.4624 73.644 90.7517 72.108Z" fill="#9A99A1"/>
<path d="M112.424 66.8653C119.498 66.8653 125.879 63.79 128.186 62.2523V69.1719C127.929 69.5563 125.956 70.7865 120.113 72.6317C114.27 74.4769 105.889 73.785 102.429 72.6317V65.7121C102.429 66.0965 103.583 66.8653 112.424 66.8653Z" fill="#034CC9"/>
<path d="M76.6841 105.308H112.04V97.6192L77.6894 97.955C77.0192 100.598 76.5978 102.485 76.6841 105.308Z" fill="#D3D4D2"/>
<path d="M157.318 175.381C157.318 167.685 158.539 149.387 151.684 131.676C145.718 133.121 132.753 89.2348 145.718 74.6068C150.027 69.7457 153.814 76.7797 152.678 74.968C151.542 73.1563 150.283 71.3782 148.428 70.5255C145.118 68.9197 137.764 69.1888 131.136 69.1888C123.182 78.9412 114.944 81.1122 112.04 88.0938V182.158C112.04 182.158 157.318 183.078 157.318 175.381Z" fill="#034CC9"/>
<path d="M157.318 175.381C157.318 167.685 158.539 149.387 151.684 131.676C145.718 133.121 132.753 89.2348 145.718 74.6068C150.027 69.7457 153.814 76.7797 152.678 74.968C151.542 73.1563 150.283 71.3782 148.428 70.5255C145.118 68.9197 137.764 69.1888 131.136 69.1888C123.182 78.9412 114.944 81.1122 112.04 88.0938V182.158C112.04 182.158 157.318 183.078 157.318 175.381Z" fill="#034CC9"/>
<path d="M152.789 74.9383C153.925 76.7499 150.027 69.7457 145.719 74.6067C140.272 80.7516 139.402 92.0594 140.666 103.001H112.04L112.04 73.785C119.729 73.0161 123.573 71.8629 128.186 69.1719C134.814 69.1719 145.251 68.7194 148.561 70.3251C150.416 71.1779 151.653 73.1266 152.789 74.9383Z" fill="#A2A0AB"/>
<path d="M112.04 182.192C110.075 181.533 108.356 180.263 107.118 178.556C105.879 176.85 105.181 174.789 105.12 172.657V67.2498H112.04V182.192Z" fill="#034CC9"/>
<path d="M140.236 97.6192H105.121V105.308H140.956C140.487 101.848 140.236 100.31 140.236 97.6192Z" fill="#CFD1CE"/>
<g style="mix-blend-mode:multiply" opacity="0.4">
<path d="M112.809 73.6275L112.04 73.785V182.192H112.809V73.6275Z" fill="#013FA9"/>
</g>
<path d="M127.251 10.9066C128.557 7.75071 135.14 6.34537 138.839 8.07125C142.537 9.79712 146.235 14.3337 146.778 26.6613C147.32 38.989 146.309 48.4074 148.528 54.6205C146.477 54.3612 144.548 53.5037 142.981 52.155C142.981 53.7822 142.734 57.7271 142.734 57.7271C141.541 57.6301 140.4 57.193 139.448 56.4676C138.495 55.7422 137.77 54.759 137.359 53.6343C136.69 55.0572 136.265 56.5825 136.102 58.1463C133.932 57.0121 127.251 55.0397 127.251 43.3531V10.9066Z" fill="#1D1B24"/>
<path d="M84.2764 51.8595C84.9421 42.9096 87.5802 28.1164 87.5802 28.1164L93.8919 27.7713C93.8919 27.7713 95.5685 54.4237 96.0369 60.2424C96.5054 66.061 98.1819 67.639 98.1819 67.639C98.1819 67.639 90.169 66.5295 88.9116 59.0096C88.7272 60.4819 88.6284 61.9638 88.6157 63.4476C88.6157 63.4476 83.586 60.8094 84.2764 51.8595Z" fill="#302D3B"/>
<path d="M91.2539 33.5408C91.1492 38.5474 91.3799 43.5554 91.9442 48.5312C92.8318 55.6566 95.3467 63.5464 107.946 63.5464C120.545 63.5464 126.93 57.8509 129.642 48.5312C131.27 42.9098 134.573 34.5762 133.217 24.9607C131.861 15.3451 126.067 9.058 112.384 8.68817C98.6998 8.31834 89.8239 14.4328 91.2539 33.5408Z" fill="#FBBEAA"/>
<path d="M117.906 37.8059C117.823 38.1764 117.637 38.5159 117.369 38.7856C117.102 39.0552 116.764 39.2441 116.394 39.3305C116.024 39.417 115.638 39.3976 115.279 39.2745C114.919 39.1514 114.602 38.9296 114.363 38.6345C114.124 38.3394 113.973 37.9829 113.927 37.6059C113.881 37.2289 113.942 36.8466 114.104 36.5029C114.265 36.1591 114.52 35.8677 114.839 35.6621C115.159 35.4565 115.53 35.345 115.909 35.3404C116.204 35.3679 116.489 35.454 116.75 35.5936C117.01 35.7331 117.24 35.9233 117.426 36.153C117.613 36.3826 117.751 36.6471 117.833 36.931C117.916 37.2148 117.94 37.5123 117.906 37.8059Z" fill="#403D4F"/>
<path d="M99.5626 37.8059C99.479 38.1774 99.2922 38.5178 99.0236 38.7878C98.7551 39.0578 98.4157 39.2465 98.0446 39.3321C97.6736 39.4177 97.2858 39.3967 96.9261 39.2716C96.5664 39.1465 96.2493 38.9224 96.0114 38.6251C95.7735 38.3277 95.6245 37.9692 95.5814 37.5908C95.5384 37.2124 95.603 36.8295 95.768 36.4863C95.9329 36.1431 96.1915 35.8534 96.5139 35.6507C96.8363 35.4479 97.2093 35.3404 97.5902 35.3404C97.8823 35.371 98.1654 35.4593 98.4231 35.6002C98.6808 35.7411 98.908 35.9317 99.0915 36.161C99.275 36.3904 99.411 36.6539 99.4919 36.9363C99.5728 37.2186 99.5968 37.5142 99.5626 37.8059Z" fill="#403D4F"/>
<path d="M111.94 30.8288L112.137 30.6069C112.344 30.4301 112.567 30.2733 112.803 30.1385C113.109 29.9503 113.441 29.8091 113.789 29.7194C114.176 29.5736 114.584 29.4903 114.997 29.4728C115.39 29.4235 115.788 29.4235 116.181 29.4728C116.525 29.4428 116.872 29.4428 117.216 29.4728L118.178 29.744C118.311 29.7972 118.422 29.8936 118.494 30.0175C118.566 30.1415 118.594 30.2861 118.574 30.428C118.554 30.5699 118.487 30.701 118.384 30.8005C118.281 30.9 118.148 30.962 118.005 30.9767H117.019C116.732 30.9396 116.442 30.9396 116.156 30.9767C115.836 30.9523 115.514 30.9523 115.194 30.9767C114.879 31.0179 114.567 31.0755 114.257 31.1493C113.962 31.1493 113.715 31.3466 113.468 31.3712C113.294 31.4483 113.113 31.5062 112.926 31.5438H112.729C112.571 31.6118 112.394 31.6165 112.233 31.5568C112.072 31.4971 111.941 31.3776 111.866 31.2233C111.829 31.1376 111.81 31.0453 111.81 30.9521C111.81 30.8589 111.829 30.7666 111.866 30.6809L111.94 30.8288Z" fill="#403D4F"/>
<path d="M99.9572 31.7652H99.7847L99.4148 31.6173H99.1436C99.0518 31.5614 98.9521 31.5199 98.8478 31.494C98.6382 31.4222 98.424 31.3645 98.2067 31.3214C97.9696 31.2867 97.7288 31.2867 97.4917 31.3214C97.2869 31.2978 97.0801 31.2978 96.8753 31.3214H96.0864C95.9207 31.315 95.7639 31.2447 95.6489 31.1251C95.534 31.0056 95.4699 30.8462 95.47 30.6804C95.4681 30.5564 95.5051 30.435 95.5759 30.3333C95.6467 30.2315 95.7476 30.1546 95.8644 30.1133L96.6288 29.8421C96.8986 29.7486 97.1816 29.6986 97.4671 29.6942C97.8013 29.6331 98.1438 29.6331 98.478 29.6942C99.1243 29.7643 99.7387 30.0117 100.253 30.4092C100.427 30.5462 100.585 30.7034 100.722 30.8776C100.845 31.0256 100.845 31.0749 100.845 31.0749V31.3214C100.866 31.4879 100.821 31.656 100.72 31.7897C100.618 31.9233 100.468 32.012 100.302 32.0365C100.229 32.0193 100.159 31.9861 100.1 31.9392C100.04 31.8924 99.9914 31.8329 99.9572 31.7652Z" fill="#403D4F"/>
<path d="M104.987 46.1888C104.57 46.1923 104.158 46.1085 103.775 45.9429C103.393 45.7773 103.05 45.5335 102.768 45.2272C102.664 45.12 102.584 44.9922 102.533 44.852C102.482 44.7118 102.461 44.5624 102.472 44.4136C102.472 44.1424 102.891 40.7399 103.039 39.4825C103.057 39.356 103.124 39.2415 103.225 39.1633C103.327 39.0851 103.454 39.0492 103.581 39.0633C103.703 39.0816 103.814 39.1449 103.892 39.2408C103.969 39.3366 104.008 39.4581 104.001 39.5812C104.001 39.7784 103.458 44.241 103.409 44.5122C103.611 44.7357 103.858 44.913 104.135 45.0321C104.411 45.1512 104.71 45.2094 105.011 45.2026C105.072 45.2025 105.132 45.2147 105.187 45.2386C105.243 45.2624 105.293 45.2972 105.334 45.3411C105.376 45.385 105.408 45.4369 105.429 45.4936C105.45 45.5503 105.459 45.6107 105.455 45.671C105.467 45.7373 105.463 45.8053 105.444 45.8699C105.425 45.9345 105.392 45.9939 105.347 46.0438C105.302 46.0937 105.246 46.1327 105.183 46.1578C105.121 46.1829 105.054 46.1935 104.987 46.1888Z" fill="#F18380"/>
<path d="M94.7304 9.74833C97.8124 5.70485 107.527 0.354595 121.186 4.61997C134.845 8.88535 137.927 19.3886 137.976 27.9193C138.17 32.5279 137.212 37.1122 135.19 41.2579H131.344C125.229 39.3841 121.087 32.6531 118.622 28.2152C118.982 30.2916 119.04 32.4093 118.794 34.5023C115.275 33.7342 111.993 32.127 109.228 29.8178C109.889 31.6247 110.376 33.4905 110.682 35.3899C107.52 34.652 104.625 33.0514 102.318 30.7663C100.011 28.4811 98.383 25.6009 97.6152 22.4458C94.8241 26.0228 92.6645 30.0502 91.2294 34.3543C89.1861 33.4028 87.4279 31.9324 86.13 30.0895C84.8322 28.2466 87.9634 24.6903 87.756 22.4458C87.6081 16.3066 89.7994 11.3756 94.7304 9.74833Z" fill="#302D3B"/>
<path d="M129.149 42.762C129.346 39.4089 130.234 35.3654 134.327 36.0804C139.11 36.7954 139.578 49.7395 129.395 48.1862L129.149 42.762Z" fill="#FBBEAA"/>
<path d="M134.721 43.6253C134.635 43.6265 134.551 43.6041 134.477 43.5606C134.403 43.5171 134.342 43.4542 134.302 43.3787C134.197 43.1622 134.037 42.9774 133.838 42.8431C133.639 42.7088 133.408 42.6299 133.168 42.6144C132.886 42.6172 132.61 42.6911 132.364 42.829C132.118 42.9669 131.911 43.1644 131.762 43.4034C131.707 43.4921 131.623 43.5597 131.525 43.5955C131.427 43.6312 131.319 43.633 131.22 43.6006C131.121 43.5637 131.036 43.4959 130.978 43.4071C130.92 43.3182 130.893 43.2132 130.899 43.1075C130.936 42.0659 131.26 41.0546 131.834 40.1847C132.408 39.3147 133.211 38.6199 134.154 38.1764C134.272 38.1374 134.4 38.1466 134.511 38.202C134.622 38.2575 134.706 38.3547 134.746 38.4723C134.785 38.59 134.775 38.7184 134.72 38.8293C134.665 38.9402 134.567 39.0246 134.45 39.064C133.896 39.3333 133.402 39.7127 133 40.179C132.597 40.6453 132.293 41.1887 132.108 41.7761C132.459 41.6296 132.836 41.5542 133.217 41.5542C133.616 41.5919 133.999 41.7261 134.334 41.9452C134.669 42.1643 134.946 42.4617 135.14 42.8117C135.17 42.8665 135.189 42.9268 135.195 42.989C135.201 43.0512 135.195 43.114 135.177 43.1737C135.158 43.2335 135.128 43.2889 135.088 43.3368C135.048 43.3848 134.999 43.4241 134.943 43.4526L134.721 43.6253Z" fill="#F18380"/>
<path d="M134.105 51.1445C132.921 42.2439 129.519 27.5986 129.519 27.5986H123.182C123.182 27.5986 122.936 54.3004 122.763 60.1437C122.591 65.987 121.037 67.7375 121.037 67.7375C121.037 67.7375 128.976 66.2089 129.839 58.6151C130.104 60.0822 130.277 61.5644 130.357 63.053C130.357 63.053 135.263 60.0451 134.105 51.1445Z" fill="#302D3B"/>
<path d="M123.527 124.617L162.779 173.509C167.439 179.919 174.342 182.779 181.221 177.01C182.493 175.929 183.533 174.601 184.276 173.106C185.02 171.611 185.452 169.981 185.546 168.314C185.641 166.647 185.396 164.978 184.826 163.409C184.256 161.839 183.374 160.402 182.232 159.184L134.943 112.339C130.825 107.531 125.87 106.767 122.27 109.873C117.906 113.744 118.424 118.281 123.527 124.617Z" fill="#FBBEAA"/>
<path d="M137.31 114.903C132.946 110.49 124.785 100.973 122.024 98.6552C119.293 96.598 116.31 94.8993 113.148 93.6008C110.748 92.7971 108.268 92.2597 105.751 91.9983C104.001 91.7764 103.286 92.2942 103.286 93.3543C103.33 93.9859 103.531 94.5965 103.871 95.1304C104.211 95.6644 104.68 96.1048 105.233 96.4116H102.004C100.894 96.4116 100.179 97.2992 100.697 98.7292C101.167 99.674 101.839 100.504 102.666 101.16C103.492 101.816 104.453 102.283 105.48 102.526C105.48 102.526 101.116 102.945 100.006 103.167C98.897 103.389 98.5518 103.808 98.5518 104.868C98.5614 105.601 98.7649 106.317 99.1417 106.945C99.5185 107.573 100.055 108.09 100.697 108.443C102.268 109.081 103.935 109.448 105.628 109.528C105.628 109.528 100.228 110.884 99.1435 111.279C98.0587 111.673 97.9354 112.388 98.5025 113.325C98.8256 113.985 99.2922 114.564 99.8681 115.021C100.444 115.477 101.115 115.799 101.831 115.963C103.877 116.506 105.258 115.618 105.998 115.741C107.587 116.253 109.143 116.863 110.658 117.566C112.932 119.83 115.712 121.52 118.769 122.497C121.045 123.452 123.132 124.804 124.933 126.491C125.772 127.279 126.76 127.89 127.84 128.288C128.919 128.687 130.067 128.865 131.217 128.812C132.366 128.759 133.493 128.477 134.531 127.98C135.569 127.484 136.498 126.785 137.261 125.924C141.206 121.733 140.54 118.232 137.31 114.903Z" fill="#FBBEAA"/>
<path d="M122.804 129.911L162.495 174.543C167.251 180.882 178.365 184.365 185.156 178.493C186.412 177.392 187.431 176.049 188.152 174.543C188.873 173.037 189.28 171.4 189.349 169.732C189.419 168.064 189.148 166.399 188.555 164.838C187.962 163.278 187.057 161.854 185.897 160.654L137.796 110.305L122.804 129.911Z" fill="#0045BA"/>
<path d="M105.775 96.4362C105.768 96.477 105.77 96.5188 105.78 96.5589C105.79 96.599 105.809 96.6365 105.834 96.669C105.86 96.7015 105.892 96.7284 105.928 96.7477C105.965 96.7671 106.005 96.7785 106.046 96.7814L108.068 96.9786H109.054C109.4 96.9786 109.72 97.1019 110.065 97.1266C110.43 97.2359 110.785 97.3761 111.125 97.5457L112.26 98.0141C113.788 98.6305 115.317 99.1976 116.451 99.6167C117.585 100.036 118.374 100.282 118.374 100.282C118.437 100.309 118.507 100.311 118.571 100.288C118.635 100.265 118.688 100.219 118.719 100.159C118.765 100.099 118.79 100.025 118.79 99.9496C118.79 99.8738 118.765 99.8002 118.719 99.74L116.87 98.7784L114.947 97.8662C114.257 97.5457 113.492 97.2251 112.728 96.9293L111.569 96.4855C111.197 96.3171 110.809 96.1849 110.41 96.091L109.227 95.9678H108.216H106.712H106.145C106.083 95.9187 106.004 95.8964 105.925 95.9056C105.847 95.9149 105.775 95.9549 105.726 96.017C105.677 96.0792 105.655 96.1582 105.664 96.2368C105.673 96.3154 105.713 96.3872 105.775 96.4362ZM106.244 102.378H106.688C107.057 102.345 107.428 102.345 107.797 102.378L108.561 102.501C108.843 102.537 109.123 102.586 109.4 102.649L111.076 103.192C112.21 103.562 113.32 104.03 114.158 104.375C114.158 104.375 114.429 104.375 114.405 104.498H114.701L115.144 104.622H115.415H115.563C115.638 104.639 115.703 104.685 115.744 104.75C115.785 104.814 115.8 104.892 115.785 104.967C115.775 105.026 115.745 105.08 115.7 105.12C115.655 105.16 115.599 105.184 115.539 105.189H114.281H113.887C113.024 104.967 111.865 104.622 110.731 104.227L109.079 103.611L108.315 103.414L107.649 103.216C107.309 103.116 106.963 103.033 106.614 102.97L106.194 102.847C106.157 102.835 106.122 102.817 106.092 102.792C106.062 102.767 106.037 102.737 106.019 102.703C106.001 102.668 105.989 102.631 105.986 102.592C105.982 102.553 105.986 102.514 105.997 102.477C106.026 102.441 106.064 102.412 106.108 102.395C106.151 102.378 106.198 102.372 106.244 102.378ZM106.244 109.38H107.156C107.403 109.38 107.723 109.38 108.044 109.553L109.054 109.873C109.691 110.097 110.309 110.369 110.904 110.687C111.177 110.815 111.441 110.964 111.693 111.131C111.743 111.189 111.771 111.263 111.771 111.34C111.771 111.417 111.743 111.492 111.693 111.55C111.622 111.625 111.524 111.669 111.421 111.673L110.509 111.525C109.991 111.402 109.326 111.205 108.66 110.983L107.698 110.588L106.86 110.268C106.581 110.144 106.309 110.004 106.046 109.849C105.977 109.807 105.925 109.741 105.902 109.663C105.879 109.586 105.887 109.502 105.923 109.43C105.996 109.383 106.084 109.365 106.17 109.38H106.244Z" fill="#F18380"/>
<path d="M23.2542 53.2651C24.1911 53.2651 24.2651 52.6734 24.6842 51.5886C22.5885 51.5886 16.4986 51.983 13.8359 57.1113C16.5233 53.413 21.6763 53.2651 23.2542 53.2651ZM18.4711 33.7627C18.4711 33.7627 18.619 34.6257 18.7669 35.8831C18.7669 36.5241 18.9149 37.2884 18.9642 38.0774C19.0135 38.8664 19.0875 39.7293 19.1614 40.5429C19.1614 42.2688 19.2847 43.97 19.2847 45.2521C19.2847 46.5342 19.2847 47.3971 19.2847 47.3971C19.2848 47.4381 19.2765 47.4788 19.2601 47.5164C19.2437 47.554 19.2196 47.5877 19.1895 47.6155C19.1594 47.6434 19.1238 47.6647 19.085 47.678C19.0462 47.6913 19.0051 47.6964 18.9642 47.693C18.8948 47.6895 18.8284 47.6635 18.7751 47.6191C18.7217 47.5746 18.6842 47.5141 18.6683 47.4465C18.6683 47.4465 18.5204 46.5835 18.3971 45.3014C18.2738 44.0193 18.0766 42.3181 18.0026 40.6169C18.0026 39.754 18.0026 38.891 18.0026 38.1514C18.0026 37.4117 18.0026 36.5981 18.0026 35.9571C18.0026 34.6503 18.0026 33.812 18.0026 33.812C18.0025 33.771 18.0108 33.7304 18.0272 33.6928C18.0436 33.6552 18.0677 33.6214 18.0978 33.5936C18.1279 33.5657 18.1635 33.5445 18.2023 33.5312C18.2411 33.5179 18.2823 33.5127 18.3232 33.5161C18.3704 33.5433 18.4092 33.5831 18.4353 33.631C18.4614 33.6788 18.4738 33.7329 18.4711 33.7874V33.7627ZM12.751 35.4886C12.751 35.4886 12.899 36.2282 13.0715 37.3131C13.0715 37.8802 13.2441 38.5212 13.3181 39.2115C13.3921 39.9019 13.466 40.6415 13.54 41.3812C13.54 42.8605 13.7126 44.3398 13.7372 45.4493C13.7619 46.5588 13.7372 47.3232 13.7372 47.3232C13.7341 47.3621 13.7234 47.3999 13.7055 47.4347C13.6877 47.4694 13.6632 47.5003 13.6335 47.5255C13.6037 47.5507 13.5691 47.5698 13.532 47.5816C13.4948 47.5934 13.4556 47.5978 13.4168 47.5944C13.3504 47.5898 13.2876 47.5629 13.2384 47.5182C13.1892 47.4735 13.1564 47.4134 13.1455 47.3478C13.1455 47.3478 12.9976 46.6081 12.825 45.5233C12.6524 44.4384 12.5045 42.9345 12.3812 41.4798C12.3812 40.7402 12.3812 40.0005 12.2333 39.3102C12.0853 38.6198 12.2333 37.9541 12.2333 37.387C12.2333 36.2776 12.2333 35.5379 12.2333 35.5379C12.2331 35.4969 12.2415 35.4563 12.2579 35.4187C12.2743 35.3811 12.2983 35.3473 12.3285 35.3195C12.3586 35.2916 12.3942 35.2704 12.433 35.2571C12.4718 35.2438 12.5129 35.2386 12.5538 35.242C12.6085 35.2646 12.6559 35.3019 12.6907 35.3498C12.7255 35.3977 12.7464 35.4542 12.751 35.5132V35.4886ZM7.22824 37.8308C7.22824 37.8308 7.37613 38.4472 7.57337 39.3841C7.57337 39.8279 7.77065 40.3704 7.84462 40.9621C7.91859 41.5538 8.01717 42.1702 8.11579 42.7866C8.28838 44.044 8.36241 45.2521 8.41172 46.2383C8.46103 47.2245 8.41172 47.8163 8.41172 47.8163C8.41186 47.8573 8.40343 47.8979 8.38704 47.9355C8.37066 47.9731 8.34661 48.0069 8.31647 48.0347C8.28632 48.0625 8.25075 48.0838 8.21195 48.0971C8.17316 48.1104 8.13206 48.1156 8.09119 48.1121C8.02824 48.1089 7.96797 48.0855 7.91919 48.0456C7.8704 48.0057 7.83562 47.9513 7.81994 47.8903C7.81994 47.8903 7.64739 47.2739 7.47481 46.3616C7.30222 45.4494 7.05564 44.1673 6.90771 42.9345C6.90771 42.2935 6.78441 41.6771 6.7351 41.0854C6.68579 40.4936 6.7351 39.9512 6.7351 39.4828C6.7351 38.5459 6.7351 37.9048 6.7351 37.9048C6.73496 37.8638 6.74339 37.8232 6.75978 37.7856C6.77617 37.748 6.80014 37.7142 6.83028 37.6864C6.86042 37.6585 6.89607 37.6373 6.93487 37.624C6.97366 37.6107 7.01476 37.6055 7.05563 37.6089C7.10115 37.6343 7.14033 37.6697 7.17023 37.7124C7.20012 37.7551 7.21995 37.804 7.22824 37.8555V37.8308Z" fill="#F18380"/>
<path d="M107.007 52.3618C109.387 52.27 111.672 51.4044 113.516 49.8963" stroke="#73102A" stroke-width="0.5" stroke-miterlimit="10" stroke-linecap="round"/>
<path d="M185.08 432.836L182.774 417.844H135.874L137.412 433.221L185.08 432.836Z" fill="#CFD1CE"/>
<path d="M123.188 432.836L122.804 417.844H76.673L76.2886 433.221L123.188 432.836Z" fill="#CFD1CE"/>
<path d="M169.703 141.443L161.631 134.908L145.485 155.283L152.02 162.971L169.703 141.443Z" fill="#CFD1CE"/>
<path d="M30.9268 108.383L29.7736 99.157L5.17045 101.079L5.55487 110.305L30.9268 108.383Z" fill="#CFD1CE"/>
<path d="M117.716 27.3144C118.767 30.4679 120.405 33.3941 122.542 35.939H127.774C127.774 35.939 131.829 31.231 132.134 30.8454C132.573 30.3764 132.907 29.8186 133.114 29.2096C133.32 28.6005 133.394 27.9543 133.33 27.3144H117.716Z" fill="#676575"/>
<path d="M122.542 35.939C122.542 46.0856 125.894 60.5126 110.13 63.5636C110.13 63.5636 120.23 63.0303 124.103 58.0585C127.976 53.0867 127.773 35.8578 127.773 35.8578L122.542 35.939Z" fill="#827F94"/>
<path d="M137.081 28.6132H85.8989C85.5093 23.9862 85.9488 19.3268 87.1967 14.8545C89.2246 9.05065 93.2802 1.94806 110.253 1.94806C127.226 1.94806 133.167 9.90296 134.364 15.93C135.56 21.9571 134.992 23.9255 135.702 24.5749C136.412 25.2243 137.081 25.2446 137.081 26.2186V28.6132Z" fill="#EFEFEF"/>
<path d="M110.253 1.94818C106.552 1.8809 102.859 2.33171 99.2827 3.28752H99.1205L98.4918 3.49045C96.7784 4.01844 95.1472 4.78345 93.6453 5.76328C92.6255 9.97165 92.3578 14.3274 92.8545 18.6291H98.4918L105.995 17.3506C105.995 17.3506 108.367 5.17478 116.803 2.33374C114.632 2.04857 112.443 1.91972 110.253 1.94818Z" fill="#D8D8D8"/>
<path d="M111.43 0H99.9724C98.7557 0 92.8547 4.58625 92.8547 20.2931H105.894C105.894 15.6663 106.705 3.5513 114.005 2.02931C113.985 2.0699 112.89 0 111.43 0Z" fill="#EFEFEF"/>
<path d="M77.7269 28.6132V25.6504C77.7284 25.2257 77.8175 24.8059 77.9886 24.4172C78.1597 24.0286 78.4092 23.6795 78.7214 23.3918C79.0336 23.1042 79.4018 22.8841 79.8029 22.7455C80.2041 22.6068 80.6295 22.5526 81.0526 22.5861H87.6024C87.9787 22.6037 88.3545 22.5403 88.7043 22.4003C89.0541 22.2603 89.3698 22.0468 89.6302 21.7744C90.0561 21.2874 92.9558 18.5681 93.3006 18.1622C93.5375 17.8523 93.8454 17.6038 94.1983 17.4379C94.5512 17.2719 94.9388 17.1932 95.3284 17.2084H104.859C105.248 17.1965 105.635 17.2767 105.987 17.4424C106.339 17.6081 106.648 17.8548 106.887 18.1622C107.232 18.5681 110.132 21.2874 110.557 21.7744C110.817 22.0479 111.133 22.2621 111.483 22.4022C111.833 22.5423 112.209 22.605 112.585 22.5861H118.04C118.463 22.5526 118.888 22.6068 119.29 22.7455C119.691 22.8841 120.059 23.1042 120.371 23.3918C120.683 23.6795 120.933 24.0286 121.104 24.4172C121.275 24.8059 121.364 25.2257 121.366 25.6504V28.6132H77.7269Z" fill="#D8D8D8"/>
<path d="M122.196 87.1418L122.938 87.1494L122.928 88.0757L123.72 88.0838L123.729 87.1575L124.471 87.1652L124.445 89.6959L123.703 89.6883L123.714 88.6861L122.922 88.6779L122.911 89.6802L122.17 89.6725L122.196 87.1418L122.196 87.1418ZM127.119 87.1924L127.093 89.7231L126.376 89.7158L126.396 87.7849L125.926 87.7801L125.918 88.5064C125.915 88.8328 125.886 89.2325 125.686 89.4557C125.486 89.7042 125.114 89.7764 124.695 89.6961L124.701 89.0686C125.095 89.1486 125.196 88.9978 125.202 88.4968L125.215 87.1682L127.119 87.1877L127.119 87.1924ZM127.738 87.1987L128.48 87.2064L128.884 88.7139L129.319 87.215L130.061 87.2226L130.382 89.7569L129.69 89.7498L129.532 88.3942L129.121 89.7439L128.626 89.7388L128.245 88.3809L128.059 89.7329L127.367 89.7258L127.738 87.1986L127.738 87.1987ZM130.68 87.229L131.422 87.2366L131.412 88.2641L132.139 87.244L132.956 87.2524L132.004 88.4954L132.955 89.7834L132.066 89.7743L131.409 88.7399L131.398 89.7674L130.657 89.7598L130.683 87.229L130.68 87.229L130.68 87.229ZM127.516 84.4884C123.065 84.4426 120.104 86.0421 120.079 88.4464C120.055 90.8277 122.98 92.5107 127.433 92.5564C131.909 92.6025 134.846 90.9775 134.87 88.5984C134.895 86.1942 131.994 84.5344 127.516 84.4884ZM127.437 92.1818C123.256 92.1388 120.479 90.6321 120.501 88.4507C120.524 86.2464 123.334 84.8201 127.512 84.8631C131.716 84.9063 134.473 86.3875 134.451 88.5941C134.428 90.7755 131.643 92.225 127.437 92.1818ZM127.509 85.2148C123.577 85.1743 120.941 86.476 120.921 88.455C120.9 90.4341 123.509 91.7897 127.441 91.8301C131.372 91.8705 134.008 90.5688 134.029 88.5898C134.051 86.6108 131.443 85.2552 127.509 85.2148ZM127.441 91.7565C123.558 91.7166 120.976 90.3867 120.996 88.4581C121.015 86.5296 123.626 85.253 127.508 85.2929C131.39 85.3328 133.974 86.6628 133.954 88.5913C133.936 90.5199 131.325 91.7966 127.441 91.7566L127.441 91.7565Z" fill="white"/>
</svg>
