<svg width="230" height="514" viewBox="0 0 230 514" fill="none" xmlns="http://www.w3.org/2000/svg">
<path d="M112.062 433.912C112.062 433.912 113.233 483.346 113.526 490.74C113.819 498.135 118.527 500.147 126.114 500.802C133.7 501.456 136.896 495.468 137.97 490.716C139.043 485.964 145.532 437.5 145.532 437.5L112.062 433.912Z" fill="#FBBEAA"/>
<path d="M161.072 435.107C161.072 435.107 167.523 484.682 168.591 492.062C169.658 499.441 174.533 501.011 182.124 500.839C189.715 500.667 192.213 494.317 192.771 489.438C193.329 484.559 194.542 435.107 194.542 435.107H161.072Z" fill="#FBBEAA"/>
<path d="M180.851 475.777C178.095 475.582 175.363 476.393 173.173 478.057C170.983 479.72 169.488 482.12 168.971 484.801L156.291 497.641V505.633H196.932C196.932 505.633 194.892 491.233 194.309 487.993C193.726 484.753 191.758 475.777 180.851 475.777Z" fill="#FBBEAA"/>
<path d="M168.816 485.038C168.347 484.4 167.68 483.909 167.211 484.204C166.741 484.498 154.271 494.311 153.678 494.801C153.313 495.142 153.037 495.565 152.874 496.035C152.71 496.505 152.664 497.008 152.74 497.5V508.023H198.128C198.128 508.023 196.35 492.471 196.226 491.612C196.103 490.754 195.238 489.625 194.745 489.65C191.629 490.598 188.396 491.11 185.139 491.171C180.809 491.399 176.49 490.556 172.569 488.717C171.115 487.713 169.846 486.469 168.816 485.038Z" fill="#302D3B"/>
<path d="M160.252 499.495C162.401 497.872 170.128 491.725 173.026 489.414L172.35 489.07C172.258 489.03 172.176 488.971 172.108 488.898C169.017 491.356 161.749 497.159 159.672 498.732C157.917 500.102 156.714 502.079 156.292 504.289L157.233 504.437C157.632 502.477 158.701 500.725 160.252 499.495Z" fill="white"/>
<path d="M196.786 497.265C193.62 497.298 190.557 498.398 188.085 500.391C185.852 502.385 184.339 505.069 183.784 508.023H185.104C185.644 505.463 186.979 503.144 188.916 501.401C191.191 499.566 194.018 498.567 196.932 498.57L196.786 497.265Z" fill="white"/>
<path d="M145 506.828H197.464C197.831 506.828 198.128 507.16 198.128 507.57V513.258C198.128 513.668 197.831 514 197.464 514H145C144.634 514 144.337 513.668 144.337 513.258V507.57C144.337 507.16 144.634 506.828 145 506.828Z" fill="white"/>
<path d="M153.698 494.903C153.258 494.726 151.106 495.324 148.306 497.962C147.14 499.116 146.301 500.536 145.868 502.087C145.435 503.638 145.421 505.27 145.83 506.827H159.876C159.09 498.316 154.138 495.081 153.698 494.903Z" fill="white"/>
<path d="M159.683 494.41C159.826 494.619 159.894 494.886 159.873 495.154C159.851 495.422 159.742 495.669 159.569 495.841C159.484 495.925 159.386 495.987 159.281 496.026C159.175 496.064 159.065 496.078 158.955 496.065C158.845 496.052 158.739 496.014 158.641 495.952C158.544 495.89 158.458 495.806 158.388 495.705L156.484 492.957C156.341 492.749 156.273 492.482 156.294 492.214C156.316 491.946 156.425 491.699 156.598 491.527C156.682 491.44 156.78 491.375 156.885 491.335C156.991 491.294 157.103 491.28 157.213 491.293C157.323 491.306 157.43 491.345 157.528 491.409C157.625 491.472 157.71 491.559 157.779 491.663L159.683 494.41Z" fill="white"/>
<path d="M162.073 492.792C162.216 493.052 162.285 493.386 162.263 493.72C162.242 494.054 162.132 494.362 161.959 494.577C161.875 494.685 161.777 494.767 161.671 494.817C161.565 494.867 161.453 494.884 161.343 494.869C161.232 494.853 161.125 494.804 161.027 494.724C160.93 494.645 160.844 494.537 160.776 494.407L158.867 490.979C158.729 490.717 158.664 490.385 158.685 490.053C158.706 489.721 158.813 489.414 158.982 489.195C159.066 489.087 159.164 489.005 159.27 488.955C159.376 488.905 159.487 488.887 159.598 488.903C159.709 488.919 159.816 488.968 159.914 489.048C160.011 489.127 160.097 489.235 160.165 489.365L162.073 492.792Z" fill="white"/>
<path d="M165.592 490.056C165.78 490.208 165.873 490.404 165.85 490.603C165.826 490.802 165.689 490.986 165.467 491.115C165.239 491.243 164.945 491.304 164.651 491.285C164.357 491.266 164.086 491.168 163.897 491.012L161.403 488.945C161.298 488.875 161.215 488.792 161.158 488.699C161.101 488.607 161.072 488.508 161.072 488.407C161.072 488.307 161.101 488.208 161.158 488.115C161.215 488.023 161.298 487.939 161.403 487.869C161.634 487.745 161.926 487.687 162.218 487.706C162.511 487.725 162.781 487.82 162.974 487.972L165.592 490.056Z" fill="white"/>
<path d="M168.053 487.941C168.123 488.069 168.175 488.217 168.207 488.376C168.24 488.535 168.251 488.702 168.24 488.868C168.229 489.033 168.197 489.194 168.146 489.341C168.094 489.488 168.024 489.617 167.939 489.723C167.78 489.96 167.566 490.093 167.342 490.093C167.119 490.093 166.905 489.96 166.746 489.723L164.85 486.216C164.708 485.953 164.641 485.614 164.662 485.275C164.683 484.936 164.792 484.624 164.964 484.406C165.049 484.3 165.146 484.22 165.251 484.172C165.356 484.123 165.466 484.106 165.575 484.122C165.684 484.138 165.79 484.187 165.887 484.265C165.984 484.343 166.069 484.45 166.139 484.578L168.053 487.941Z" fill="white"/>
<path d="M122.269 475.777C119.512 475.582 116.778 476.393 114.587 478.057C112.396 479.72 110.9 482.12 110.383 484.801L97.7185 497.641V505.633H138.36C138.36 505.633 136.343 491.233 135.735 487.993C135.128 484.753 133.183 475.777 122.269 475.777Z" fill="#FBBEAA"/>
<path d="M111.416 485.038C110.947 484.4 110.304 483.909 109.81 484.204C109.316 484.498 96.86 494.311 96.2916 494.801C95.7232 495.292 95.3277 495.905 95.3277 497.5V508.023H140.751C140.751 508.023 138.972 492.471 138.848 491.612C138.725 490.754 137.86 489.625 137.365 489.65C134.248 490.598 131.012 491.11 127.752 491.171C123.426 491.403 119.111 490.56 115.197 488.717C113.731 487.718 112.451 486.473 111.416 485.038Z" fill="#302D3B"/>
<path d="M104.07 499.495C106.219 497.872 113.946 491.725 116.844 489.414L116.192 489.07C116.093 489.03 116.003 488.972 115.926 488.898C112.835 491.356 105.567 497.159 103.49 498.732C101.735 500.102 100.532 502.079 100.11 504.289L101.051 504.437C101.461 502.482 102.529 500.734 104.07 499.495Z" fill="white"/>
<path d="M138.227 497.265C135.349 497.298 132.564 498.398 130.318 500.391C128.287 502.385 126.912 505.069 126.407 508.023H127.607C128.104 505.46 129.326 503.14 131.095 501.401C133.153 499.562 135.717 498.563 138.36 498.57L138.227 497.265Z" fill="white"/>
<path d="M88.8188 506.828H141.283C141.649 506.828 141.946 507.16 141.946 507.57V513.258C141.946 513.668 141.649 514 141.283 514H88.8188C88.4524 514 88.1553 513.668 88.1553 513.258V507.57C88.1553 507.16 88.4524 506.828 88.8188 506.828Z" fill="white"/>
<path d="M97.0019 494.903C96.5256 494.726 94.1941 495.324 91.1607 497.962C89.8978 499.116 88.9886 500.536 88.5192 502.087C88.0499 503.638 88.0358 505.27 88.4783 506.827H103.695C102.843 498.316 97.4782 495.081 97.0019 494.903Z" fill="white"/>
<path d="M102.242 494.41C102.432 494.619 102.523 494.886 102.495 495.154C102.466 495.422 102.32 495.669 102.089 495.841C101.975 495.925 101.844 495.987 101.704 496.026C101.563 496.064 101.415 496.078 101.268 496.065C101.122 496.052 100.98 496.014 100.85 495.952C100.72 495.89 100.605 495.806 100.511 495.705L97.967 492.957C97.7825 492.747 97.6955 492.481 97.7239 492.215C97.7523 491.949 97.894 491.702 98.1197 491.527C98.2318 491.44 98.3623 491.375 98.5035 491.335C98.6447 491.294 98.7936 491.28 98.9411 491.293C99.0887 491.306 99.2317 491.345 99.3617 491.409C99.4916 491.472 99.6058 491.559 99.6972 491.663L102.242 494.41Z" fill="white"/>
<path d="M104.696 492.789C104.839 493.049 104.908 493.383 104.886 493.718C104.865 494.052 104.755 494.361 104.582 494.577C104.498 494.685 104.4 494.766 104.294 494.817C104.188 494.867 104.076 494.884 103.966 494.869C103.855 494.853 103.748 494.803 103.65 494.724C103.553 494.644 103.467 494.536 103.399 494.406L101.491 490.973C101.352 490.71 101.287 490.378 101.308 490.045C101.33 489.713 101.436 489.405 101.605 489.186C101.78 488.973 102.005 488.872 102.23 488.903C102.455 488.935 102.662 489.098 102.807 489.356L104.696 492.789Z" fill="white"/>
<path d="M108.138 490.058C108.245 490.126 108.33 490.208 108.388 490.299C108.447 490.39 108.477 490.488 108.477 490.586C108.477 490.685 108.447 490.783 108.388 490.874C108.33 490.965 108.245 491.047 108.138 491.115C107.902 491.243 107.601 491.304 107.298 491.285C106.995 491.266 106.716 491.168 106.521 491.013L103.956 488.949C103.763 488.792 103.672 488.592 103.701 488.39C103.729 488.189 103.876 488.004 104.11 487.874C104.224 487.811 104.356 487.764 104.498 487.735C104.64 487.706 104.789 487.696 104.937 487.706C105.085 487.715 105.228 487.744 105.359 487.791C105.49 487.837 105.606 487.9 105.7 487.976L108.138 490.058Z" fill="white"/>
<path d="M110.613 487.941C110.706 488.069 110.776 488.217 110.818 488.376C110.861 488.535 110.876 488.702 110.862 488.868C110.848 489.033 110.805 489.194 110.736 489.341C110.667 489.488 110.574 489.617 110.461 489.723C110.248 489.96 109.963 490.093 109.665 490.093C109.367 490.093 109.082 489.96 108.869 489.723L106.342 486.216C106.153 485.953 106.063 485.614 106.091 485.275C106.119 484.936 106.264 484.624 106.494 484.406C106.607 484.3 106.737 484.22 106.876 484.172C107.016 484.123 107.163 484.106 107.309 484.122C107.454 484.138 107.595 484.187 107.724 484.265C107.853 484.343 107.968 484.45 108.06 484.578L110.613 487.941Z" fill="white"/>
<path d="M190.756 329.013C191.161 332.169 190.948 335.376 190.128 338.448C189.309 341.519 187.899 344.395 185.98 346.909C184.061 349.423 181.672 351.524 178.95 353.092C176.228 354.659 173.228 355.662 170.123 356.042C167.018 356.422 163.87 356.171 160.861 355.305C157.852 354.438 155.041 352.973 152.592 350.994C150.143 349.015 148.103 346.561 146.591 343.775C145.08 340.988 144.126 337.924 143.785 334.76C143.785 334.76 131.471 246.721 128.55 228.935C125.63 211.149 128.72 196.261 148.287 192.025C168.585 187.64 181.264 202.776 182.797 217.936C184.331 233.096 190.756 329.013 190.756 329.013Z" fill="#013EA5"/>
<path d="M151.212 330.706C151.29 337.075 148.833 343.214 144.38 347.773C139.927 352.333 133.843 354.938 127.467 355.017C121.091 355.095 114.945 352.641 110.381 348.193C105.816 343.745 103.208 337.668 103.129 331.299C103.129 331.299 100.087 242.653 99.0481 224.692C98.0093 206.731 102.709 192.327 122.941 190.252C143.915 188.102 155.095 204.482 155.095 219.701C155.095 234.92 151.212 330.706 151.212 330.706Z" fill="#013EA5"/>
<path d="M151.509 330.901C151.47 327.75 150.796 324.638 149.528 321.742C148.26 318.847 146.422 316.224 144.118 314.024C141.815 311.823 139.091 310.089 136.103 308.919C133.115 307.75 129.921 307.168 126.703 307.207C123.485 307.245 120.307 307.904 117.349 309.146C114.391 310.388 111.712 312.187 109.465 314.443C107.218 316.698 105.446 319.364 104.251 322.29C103.057 325.215 102.462 328.342 102.502 331.493L107.544 458.429L147.098 462.6L151.509 330.901Z" fill="#013EA5"/>
<path d="M190.673 329.378C189.857 323.082 186.615 317.366 181.651 313.47C176.687 309.575 170.401 307.815 164.16 308.572C157.918 309.33 152.225 312.545 148.316 317.517C144.407 322.49 142.599 328.82 143.284 335.131L161.773 461.405H200.519L190.673 329.378Z" fill="#013EA5"/>
<path d="M144.337 333.502L162.267 460.209" stroke="#013EA5" stroke-width="0.75" stroke-miterlimit="10" stroke-linecap="round"/>
<path d="M143.142 334.698C143.142 334.698 130.581 247.186 127.602 229.507" stroke="#F5F5F5" stroke-width="0.75" stroke-miterlimit="10" stroke-linecap="round"/>
<path d="M101.304 200.819C101.304 200.819 101.304 225.761 101.304 227.132C101.304 228.503 113.296 240.265 129.221 240.265C153.708 240.265 183.015 231.293 182.583 225.449C182.296 221.6 181.936 200.819 181.936 200.819H101.304Z" fill="#013EA5"/>
<path d="M123.259 82.7596C122.536 82.7596 121 82.7596 119.645 83.2114C119.645 84.2958 122.054 85.1693 123.259 85.4705C123.56 84.5668 123.982 82.7596 123.259 82.7596Z" fill="#013FA9"/>
<path d="M121.799 62.9838H149.916V96.052H121.799V62.9838Z" fill="#FBBEAA"/>
<path d="M149.891 62.9838H121.868V81.4328C123.092 81.5849 124.324 81.6629 125.557 81.6664C135.226 81.6664 146.038 79.0275 149.985 69.8029L149.891 62.9838Z" fill="#F18380"/>
<path d="M107.271 38.4398C107.482 47.9913 107.271 55.5344 108.976 62.8206C110.681 70.1068 115.982 76.0618 127.659 76.0618C139.335 76.0618 152.647 72.2553 153.581 57.6595C155.496 55.5811 158.602 48.1781 158.719 39.8877C158.835 31.5973 158.205 14.0591 139.289 11.3735C120.373 8.68785 106.734 15.6237 107.271 38.4398Z" fill="#FBBEAA"/>
<path d="M117.129 45.9593C117.129 47.2436 116.359 48.2945 115.401 48.2945C114.444 48.2945 113.673 47.2436 113.673 45.9593C113.673 44.6749 114.444 43.6241 115.401 43.6241C116.359 43.6241 117.129 44.5815 117.129 45.9593Z" fill="#403D4F"/>
<path d="M138.144 45.9593C138.144 47.2436 137.374 48.2945 136.416 48.2945C135.459 48.2945 134.688 47.2436 134.688 45.9593C134.688 44.6749 135.482 43.6241 136.416 43.6241C137.35 43.6241 138.144 44.5815 138.144 45.9593Z" fill="#403D4F"/>
<path d="M133.827 38.6264C134.014 38.8365 135.228 38.6264 136.162 38.6264C137.096 38.6264 138.895 38.6264 138.895 38.4162C138.895 38.206 138.007 36.7582 135.672 37.015C134.084 37.2019 133.617 38.2527 133.827 38.6264Z" fill="#403D4F"/>
<path d="M117.479 38.6264C117.339 38.8365 116.289 38.6264 115.471 38.6264C114.654 38.6264 113.136 38.6264 113.136 38.4162C113.136 38.206 113.883 36.7582 115.868 37.015C117.479 37.2019 117.783 38.2527 117.479 38.6264Z" fill="#403D4F"/>
<path d="M124.484 55.6271C122.849 55.6271 121.542 54.5529 121.495 53.7823L122.032 47.197C122.05 47.0338 122.13 46.8839 122.257 46.7793C122.383 46.6746 122.546 46.6234 122.709 46.6365C122.789 46.6424 122.867 46.664 122.938 46.7001C123.01 46.7362 123.073 46.7861 123.125 46.8469C123.177 46.9076 123.217 46.9781 123.242 47.0542C123.267 47.1303 123.276 47.2106 123.27 47.2904L122.756 53.6422C122.992 53.8981 123.282 54.098 123.605 54.2273C123.929 54.3566 124.277 54.412 124.624 54.3894C124.706 54.3831 124.788 54.3933 124.865 54.4195C124.943 54.4457 125.014 54.4873 125.075 54.5419C125.137 54.5964 125.186 54.6627 125.221 54.7368C125.256 54.811 125.275 54.8914 125.278 54.9732C125.281 55.056 125.268 55.1387 125.239 55.2163C125.21 55.294 125.166 55.3653 125.11 55.426C125.053 55.4868 124.986 55.5358 124.91 55.5703C124.835 55.6048 124.754 55.6241 124.671 55.6271H124.484Z" fill="#F18380"/>
<path d="M125.816 60.2976C123.855 60.4144 120.562 61.5119 120.539 62.376C120.569 63.9802 121.231 65.5077 122.381 66.6269C123.531 67.7461 125.076 68.3667 126.68 68.3541C133.873 68.3541 133.849 62.7963 133.546 61.582C133.242 60.3677 129.459 60.0641 125.816 60.2976Z" fill="#73102A"/>
<path d="M133.568 63.5206C131.622 62.8161 129.5 62.7655 127.524 63.3766C125.547 63.9877 123.824 65.2272 122.615 66.9067C123.732 67.8967 125.188 68.4156 126.679 68.3545C131.77 68.3545 133.241 65.599 133.568 63.5206Z" fill="#D65155"/>
<path d="M133.264 61.1621C132.26 60.2981 128.967 60.0879 125.815 60.2981C123.876 60.4148 120.607 61.489 120.537 62.3764C124.816 62.983 129.177 62.5668 133.264 61.1621Z" fill="white"/>
<path d="M141.812 29.9856C141.812 35.7305 144.148 38.2293 145.899 39.3269C147.651 40.4245 148.935 41.5221 148.935 43.5071V50.5131C148.935 51.3071 149.402 51.9142 150.009 51.7041C150.616 51.4939 152.882 50.3496 152.882 49.2053L159.888 44.2544C161.71 39.938 162.386 35.2239 161.849 30.5694C161.641 27.9596 160.872 25.4255 159.594 23.1403C158.316 20.8551 156.56 18.8726 154.446 17.3281C154.446 12.3539 149.776 3.50304 139.944 6.10352e-05C139.704 1.79804 139.704 3.62003 139.944 5.418C135.484 1.3779 120.467 0.140182 115.073 2.00844C115.864 3.7779 117.009 5.36721 118.436 6.67908C111.067 8.38082 104.51 12.5706 99.8699 18.5425C101.348 20.4702 103.219 22.0622 105.358 23.2131C102.904 26.589 101.447 30.5863 101.154 34.7496C105.588 34.3392 109.934 33.2605 114.045 31.5502C113.816 33.6027 113.934 35.6791 114.396 37.6921C119.066 37.4119 127.894 32.6478 130.393 28.8179C130.002 31.9373 130.176 35.1015 130.906 38.1592C135.248 36.5326 139.033 33.6961 141.812 29.9856Z" fill="#403D4F"/>
<path d="M153.094 50.396C153.094 47.7339 153.631 43.8107 157.39 43.7173C161.15 43.6239 161.664 46.4729 161.547 50.9565C161.43 55.4401 156.877 59.2465 152.884 57.7053L153.094 50.396Z" fill="#FBBEAA"/>
<path d="M158.628 53.6187C158.467 53.5849 158.325 53.4915 158.229 53.3573C158.134 53.2231 158.093 53.058 158.114 52.8948C158.114 52.766 158.079 52.6396 158.013 52.5288C157.947 52.418 157.853 52.3267 157.741 52.2643C157.498 52.1056 157.214 52.021 156.923 52.021C156.633 52.021 156.349 52.1056 156.106 52.2643C156.007 52.3217 155.894 52.3519 155.779 52.3519C155.664 52.3519 155.552 52.3217 155.452 52.2643C155.351 52.2065 155.268 52.1207 155.214 52.0171C155.161 51.9136 155.138 51.7967 155.149 51.6805C155.499 47.9208 157.881 47.2203 157.974 47.1969C158.054 47.1723 158.138 47.1644 158.221 47.1737C158.304 47.183 158.384 47.2093 158.456 47.2509C158.528 47.2925 158.591 47.3486 158.641 47.4157C158.691 47.4827 158.726 47.5593 158.745 47.6406C158.788 47.7954 158.768 47.961 158.689 48.1011C158.61 48.2412 158.479 48.3443 158.324 48.3879C157.86 48.6025 157.456 48.9276 157.147 49.3347C156.837 49.7417 156.632 50.2185 156.55 50.7231C157.19 50.6188 157.846 50.7517 158.394 51.0967C158.719 51.2797 158.981 51.5552 159.147 51.8881C159.313 52.2209 159.377 52.5959 159.329 52.9649C159.337 53.0569 159.324 53.1497 159.291 53.236C159.258 53.3223 159.206 53.4 159.138 53.4631C159.071 53.5261 158.989 53.5729 158.901 53.5999C158.813 53.6269 158.719 53.6333 158.628 53.6187Z" fill="#F18380"/>
<path d="M27.5126 98.4879L39.104 171.253C41.0166 180.382 38.0608 188.64 27.5126 190.089C25.5655 190.343 23.5871 190.198 21.6977 189.664C19.8083 189.13 18.0471 188.217 16.5213 186.981C14.9955 185.745 13.7368 184.212 12.8216 182.475C11.9064 180.737 11.3539 178.832 11.1976 176.875L7.66216 98.6328C6.73485 91.2432 9.95142 86.3169 15.5733 85.7083C22.4702 84.9549 26.1216 89.0409 27.5126 98.4879Z" fill="#FBBEAA"/>
<path d="M18.0947 163.197L101.321 99.9657C111.029 93.7642 117.636 97.0678 122.794 103.704C125.15 106.916 126.242 110.882 125.863 114.847C125.484 118.812 123.659 122.499 120.737 125.206L37.7132 186.38C34.7875 188.851 31.0211 190.098 27.1989 189.86C23.3767 189.623 19.7936 187.919 17.1964 185.105L16.8197 184.699C15.4412 183.229 14.3768 181.493 13.6914 179.597C13.0061 177.701 12.7141 175.686 12.8334 173.674C12.9527 171.662 13.4808 169.695 14.3854 167.894C15.2899 166.093 16.5521 164.494 18.0947 163.197Z" fill="#FBBEAA"/>
<path d="M27.1663 96.5458C27.0468 93.9344 27.7458 91.351 29.1658 89.1562C31.352 86.6214 32.9898 83.6614 33.9763 80.4627C34.7351 77.4934 35.9471 74.6587 37.5697 72.0588C38.7288 70.4649 40.4675 69.161 40.4675 67.9439C40.4675 66.7267 38.1492 64.3795 34.8457 65.046C33.4306 65.4868 32.1305 66.2349 31.0383 67.2369C29.9462 68.2388 29.0891 69.4698 28.5283 70.8417C28.2117 70.0058 28.0261 69.1262 27.9777 68.2337L27.2533 50.4697C27.2423 50.0092 27.1391 49.5556 26.9498 49.1356C26.7606 48.7156 26.4891 48.3378 26.1515 48.0245C25.8138 47.7111 25.4168 47.4686 24.9839 47.3112C24.551 47.1539 24.091 47.0848 23.6309 47.1082C22.8985 47.1394 22.1942 47.3995 21.6173 47.8517C21.0403 48.3039 20.6196 48.9256 20.4143 49.6293V48.8179C20.3028 47.9544 19.8688 47.165 19.1994 46.6082C18.53 46.0514 17.6747 45.7684 16.8053 45.8161C15.9359 45.8638 15.1167 46.2386 14.5122 46.8653C13.9077 47.4919 13.5627 48.3241 13.5463 49.1947V51.6579C13.2561 50.8985 12.7026 50.2686 11.9869 49.8831C11.2711 49.4977 10.4406 49.3823 9.64685 49.5579C8.85307 49.7335 8.14881 50.1884 7.66244 50.8398C7.17607 51.4913 6.93995 52.2958 6.99714 53.1068V54.6716C6.68523 54.1235 6.22042 53.6781 5.65946 53.3899C5.0985 53.1017 4.46571 52.9831 3.83847 53.0488C2.97952 53.1578 2.19677 53.5969 1.65588 54.273C1.11499 54.9491 0.858429 55.8092 0.940609 56.6711L2.36053 71.6531C3.29073 80.0997 5.03767 88.4363 7.57674 96.5458C7.60744 97.8998 7.92113 99.2324 8.49763 100.458C9.07412 101.683 9.90065 102.775 10.9241 103.662C11.9476 104.549 13.1454 105.212 14.4404 105.608C15.7355 106.005 17.0991 106.126 18.4437 105.964C19.6606 106.004 20.8719 105.783 21.9956 105.314C23.1193 104.845 24.129 104.141 24.9563 103.247C25.7836 102.354 26.4092 101.293 26.7905 100.137C27.1718 98.9807 27.2999 97.7559 27.1663 96.5458Z" fill="#FBBEAA"/>
<path d="M108.19 95.4447L36.1677 144.02C36.4707 146.504 30.6341 95.4447 30.6341 95.4447L3.976 97.933C3.976 97.933 5.53339 149.918 9.45642 177.373C11.0133 188.268 20.0823 192.4 30.8357 190.054C36.145 188.896 41.1432 186.717 45.5911 183.595C64.7039 170.18 118.324 132.394 122.708 127.64C130.272 119.439 130.272 113.296 125.925 106.544C121.578 99.7915 112.276 94.4304 108.19 95.4447Z" fill="#013EA5"/>
<path d="M26.5864 73.3632C27.6876 73.3632 27.7745 72.6677 28.2671 71.3927C25.8039 71.3927 18.6462 71.8563 15.5165 77.8839C18.6752 73.5371 24.7317 73.3632 26.5864 73.3632ZM20.9645 50.4411C20.9645 50.4411 21.1384 51.4554 21.3122 52.9333C21.3122 53.6867 21.4862 54.585 21.5441 55.5123C21.6021 56.4397 21.689 57.4539 21.7759 58.4102C21.7759 60.4387 21.9208 62.4383 21.9208 63.9451C21.9208 65.452 21.9208 66.4663 21.9208 66.4663C21.9209 66.5145 21.9111 66.5622 21.8918 66.6064C21.8726 66.6506 21.8443 66.6903 21.8089 66.723C21.7735 66.7557 21.7316 66.7807 21.6861 66.7964C21.6405 66.8121 21.5922 66.818 21.5441 66.814C21.4626 66.8099 21.3845 66.7794 21.3218 66.7272C21.2591 66.6749 21.215 66.6037 21.1963 66.5243C21.1963 66.5243 21.0225 65.51 20.8776 64.0031C20.7327 62.4962 20.5008 60.4967 20.4139 58.4971C20.4139 57.4829 20.4139 56.4686 20.4139 55.5993C20.4139 54.7299 20.4139 53.7737 20.4139 53.0202C20.4139 51.4844 20.4139 50.499 20.4139 50.499C20.4137 50.4508 20.4236 50.4031 20.4428 50.3589C20.4621 50.3147 20.4903 50.275 20.5258 50.2423C20.5612 50.2096 20.603 50.1846 20.6486 50.169C20.6942 50.1533 20.7426 50.1473 20.7906 50.1513C20.8462 50.1832 20.8918 50.23 20.9225 50.2862C20.9532 50.3425 20.9677 50.4061 20.9645 50.4701V50.4411ZM14.2414 52.4696C14.2414 52.4696 14.4153 53.339 14.6182 54.614C14.6182 55.2805 14.821 56.0339 14.908 56.8453C14.9949 57.6567 15.0818 58.5261 15.1688 59.3955C15.1688 61.1342 15.3716 62.8729 15.4006 64.1769C15.4295 65.481 15.4006 66.3793 15.4006 66.3793C15.3969 66.4251 15.3843 66.4696 15.3633 66.5104C15.3424 66.5512 15.3136 66.5875 15.2786 66.6171C15.2436 66.6468 15.203 66.6692 15.1593 66.6831C15.1156 66.697 15.0696 66.7021 15.0239 66.6982C14.9459 66.6927 14.8721 66.6611 14.8142 66.6086C14.7564 66.556 14.7179 66.4854 14.7051 66.4083C14.7051 66.4083 14.5312 65.5389 14.3284 64.2639C14.1255 62.9888 13.9517 61.2212 13.8068 59.5114C13.8068 58.6421 13.8068 57.7727 13.6329 56.9613C13.459 56.1499 13.6329 55.3675 13.6329 54.7009C13.6329 53.3969 13.6329 52.5275 13.6329 52.5275C13.6327 52.4793 13.6426 52.4317 13.6618 52.3875C13.6811 52.3433 13.7094 52.3035 13.7448 52.2708C13.7802 52.2381 13.822 52.2132 13.8676 52.1975C13.9132 52.1818 13.9616 52.1758 14.0096 52.1798C14.074 52.2064 14.1296 52.2502 14.1705 52.3065C14.2114 52.3627 14.236 52.4292 14.2414 52.4985V52.4696ZM7.75025 55.2225C7.75025 55.2225 7.92407 55.947 8.1559 57.0482C8.1559 57.5698 8.38778 58.2074 8.47471 58.9029C8.56165 59.5984 8.67752 60.3228 8.79344 61.0473C8.99629 62.5252 9.0833 63.9451 9.14125 65.1043C9.19921 66.2634 9.14125 66.9589 9.14125 66.9589C9.14142 67.0072 9.13151 67.0548 9.11225 67.099C9.09299 67.1432 9.06472 67.183 9.02929 67.2157C8.99387 67.2484 8.95205 67.2733 8.90646 67.289C8.86086 67.3047 8.81256 67.3107 8.76452 67.3067C8.69053 67.3028 8.61969 67.2754 8.56235 67.2285C8.50501 67.1816 8.46413 67.1176 8.44571 67.0459C8.44571 67.0459 8.2429 66.3214 8.04005 65.2492C7.8372 64.177 7.54738 62.6701 7.37351 61.2211C7.37351 60.4677 7.2286 59.7432 7.17064 59.0477C7.11268 58.3523 7.17064 57.7147 7.17064 57.1642C7.17064 56.063 7.17064 55.3095 7.17064 55.3095C7.17047 55.2613 7.18039 55.2136 7.19965 55.1694C7.2189 55.1252 7.24709 55.0854 7.28251 55.0527C7.31794 55.02 7.35984 54.9951 7.40544 54.9794C7.45103 54.9638 7.49933 54.9577 7.54738 54.9617C7.60087 54.9916 7.64693 55.0332 7.68206 55.0833C7.7172 55.1335 7.74051 55.1911 7.75025 55.2515V55.2225Z" fill="#F18380"/>
<path d="M35.6043 138.146L34.2488 127.302L5.33154 129.561L5.78337 140.405L35.6043 138.146Z" fill="#CFD1CE"/>
<path d="M119.685 88.6244C119.685 88.6244 102.188 98.7276 99.4576 100.496C96.7269 102.264 93.6421 104.992 94.1984 112.367C94.7547 119.742 97.1061 219.022 97.1061 219.022C106.086 220.542 132.384 220.542 132.384 220.542H134.775H136.568H138.958H140.751H142.544C142.544 220.542 181.531 217.228 182.315 216.774C183.099 216.319 183.832 215.839 183.781 214.98C183.731 214.122 183.225 113.2 182.896 108.755C182.831 106.374 182.081 104.063 180.736 102.096C179.391 100.13 177.508 98.5923 175.311 97.6667C170.027 95.3178 150.178 87.2605 150.178 87.2605L133.508 88.6244H119.685Z" fill="#034CC9"/>
<path d="M119.684 88.6244C119.684 88.6244 102.187 98.7276 99.4568 100.496C96.726 102.264 93.6413 104.992 94.1976 112.367C94.7538 119.742 97.1053 219.022 97.1053 219.022C106.085 220.542 120.43 220.542 120.43 220.542H122.82H124.613H127.004H128.797H130.59C130.59 220.542 127.74 217.228 128.523 216.774C129.307 216.319 130.041 215.839 129.99 214.98C129.939 214.122 129.434 113.2 129.105 108.755C129.04 106.374 128.29 104.063 126.945 102.096C125.6 100.13 123.716 98.5923 121.52 97.6667C116.235 95.3178 150.177 87.2605 150.177 87.2605L133.507 88.6244H119.684Z" fill="#0045BA"/>
<path d="M117.699 88.77C117.699 88.77 98.355 99.9515 95.336 101.908C92.3169 103.865 94.7296 108.179 94.7296 115.949C94.7296 126.109 96.5226 126.707 96.5226 126.707C102.572 129.971 105.218 127.425 111.885 129.099C115.127 129.462 117.643 129.546 119.823 127.421C122.004 125.297 128.797 126.109 128.797 126.109C128.797 126.109 139.028 124.766 143.808 127.421C144.951 128.219 146.243 128.778 147.607 129.066C148.971 129.354 150.043 129.333 151.411 129.066C158.344 127.641 186.074 119.678 186.94 119.175C187.807 118.672 188.618 118.141 188.562 117.19C188.506 116.24 187.947 115.969 187.583 111.049C187.511 108.414 186.682 105.856 185.195 103.68C183.708 101.504 181.626 99.8018 179.197 98.7775C173.355 96.1778 151.411 87.2605 151.411 87.2605L132.981 87.8582L117.699 88.77Z" fill="#9A99A1"/>
<path d="M131.392 84.5669C139.706 84.5669 147.206 80.9523 149.917 79.1449V87.2779C149.616 87.7297 147.296 89.1756 140.429 91.3444C133.561 93.5132 123.711 92.6999 119.644 91.3444V83.2114C119.644 83.6632 121 84.5669 131.392 84.5669Z" fill="#034CC9"/>
<path d="M130.94 220.116C128.631 219.342 126.61 217.849 125.154 215.843C123.699 213.837 122.879 211.415 122.807 208.909V85.0187H130.94V220.116Z" fill="#034CC9"/>
<path d="M94.73 129.75H135.721V120.713L94.73 120.73C94.73 124.914 94.73 126.109 94.73 129.75Z" fill="#D3D4D2"/>
<path d="M168.861 120.713H127.589V129.75H169.708C169.157 125.683 168.861 123.876 168.861 120.713Z" fill="#CFD1CE"/>
<g style="mix-blend-mode:multiply" opacity="0.4">
<path d="M131.844 92.5147L130.94 92.6998V220.116H131.844V92.5147Z" fill="#013FA9"/>
</g>
<path d="M186.006 103.736C192.332 111.869 228.496 211.25 228.496 211.25C194.608 200.406 198.222 171.121 179.792 174.221C179.792 174.221 158.539 124.338 157.728 119.876C156.881 116.357 157.261 112.656 158.805 109.383C160.349 106.11 162.965 103.463 166.218 101.88C175.289 97.2432 179.68 95.6024 186.006 103.736Z" fill="#0045BA"/>
<path d="M167.813 150.708C162.684 145.521 153.092 134.335 149.846 131.611C146.637 129.193 143.131 127.197 139.414 125.671C136.594 124.726 133.678 124.094 130.72 123.787C128.663 123.526 127.822 124.135 127.822 125.381C127.874 126.123 128.111 126.841 128.511 127.469C128.91 128.096 129.461 128.614 130.112 128.974H126.316C125.012 128.974 124.171 130.018 124.78 131.698C125.332 132.809 126.123 133.784 127.094 134.555C128.066 135.327 129.195 135.875 130.402 136.161C130.402 136.161 125.272 136.654 123.968 136.914C122.664 137.175 122.259 137.668 122.259 138.914C122.27 139.775 122.509 140.617 122.952 141.355C123.395 142.093 124.026 142.701 124.78 143.116C126.626 143.865 128.585 144.296 130.575 144.391C130.575 144.391 124.229 145.985 122.954 146.448C121.679 146.912 121.534 147.752 122.201 148.854C122.58 149.629 123.129 150.31 123.806 150.847C124.483 151.383 125.271 151.762 126.113 151.954C128.518 152.592 130.141 151.549 131.01 151.694C132.878 152.295 134.707 153.012 136.487 153.838C139.16 156.499 142.428 158.486 146.021 159.634C148.695 160.756 151.149 162.346 153.266 164.328C154.252 165.254 155.414 165.972 156.682 166.441C157.951 166.909 159.3 167.119 160.651 167.056C162.002 166.994 163.327 166.662 164.547 166.079C165.767 165.496 166.858 164.674 167.755 163.662C172.392 158.735 171.609 154.62 167.813 150.708Z" fill="#FBBEAA"/>
<path d="M150.764 168.348L197.414 220.805C203.004 228.256 216.068 232.351 224.049 225.448C225.525 224.155 226.723 222.576 227.57 220.805C228.417 219.035 228.896 217.112 228.978 215.151C229.059 213.191 228.742 211.234 228.044 209.4C227.347 207.565 226.284 205.892 224.92 204.481L168.385 145.304L150.764 168.348Z" fill="#0045BA"/>
<path d="M130.75 129.003C130.742 129.051 130.743 129.1 130.755 129.147C130.767 129.195 130.789 129.239 130.819 129.277C130.849 129.315 130.887 129.347 130.93 129.369C130.973 129.392 131.02 129.406 131.068 129.409L133.445 129.641H134.604C135.009 129.641 135.386 129.786 135.792 129.815C136.22 129.943 136.637 130.108 137.038 130.307L138.371 130.858C140.167 131.582 141.964 132.249 143.297 132.741C144.63 133.234 145.557 133.524 145.557 133.524C145.631 133.555 145.713 133.557 145.788 133.53C145.863 133.503 145.926 133.449 145.963 133.379C146.017 133.308 146.046 133.221 146.046 133.132C146.046 133.043 146.017 132.957 145.963 132.886L143.79 131.756L141.529 130.684C140.718 130.307 139.82 129.93 138.921 129.583L137.559 129.061C137.121 128.863 136.665 128.708 136.197 128.598L134.807 128.453H133.618H131.851H131.184C131.111 128.395 131.018 128.369 130.926 128.38C130.834 128.39 130.749 128.438 130.692 128.511C130.634 128.584 130.608 128.677 130.619 128.769C130.63 128.861 130.677 128.946 130.75 129.003ZM131.3 135.987H131.822C132.256 135.948 132.692 135.948 133.126 135.987L134.024 136.132C134.355 136.173 134.684 136.231 135.009 136.305L136.98 136.943C138.313 137.378 139.617 137.928 140.602 138.334C140.602 138.334 140.921 138.334 140.892 138.479H141.24L141.761 138.624H142.08H142.254C142.341 138.644 142.417 138.698 142.466 138.774C142.515 138.85 142.532 138.941 142.515 139.029C142.502 139.099 142.467 139.162 142.414 139.209C142.362 139.256 142.295 139.285 142.225 139.29H140.747H140.283C139.269 139.029 137.907 138.624 136.574 138.16L134.633 137.436L133.734 137.204L132.952 136.972C132.552 136.854 132.146 136.757 131.735 136.682L131.242 136.537C131.198 136.524 131.158 136.502 131.122 136.473C131.087 136.444 131.058 136.408 131.036 136.368C131.015 136.328 131.001 136.283 130.997 136.238C130.992 136.192 130.997 136.146 131.011 136.103C131.045 136.06 131.09 136.027 131.14 136.007C131.191 135.986 131.246 135.98 131.3 135.987ZM131.3 144.216H132.372C132.662 144.216 133.039 144.216 133.416 144.419L134.604 144.796C135.351 145.059 136.078 145.379 136.777 145.752C137.098 145.903 137.408 146.077 137.704 146.274C137.763 146.342 137.796 146.43 137.796 146.52C137.796 146.61 137.763 146.698 137.704 146.766C137.621 146.854 137.507 146.906 137.386 146.911L136.313 146.737C135.705 146.592 134.922 146.361 134.14 146.1L133.01 145.636L132.025 145.259C131.697 145.114 131.377 144.95 131.068 144.767C130.986 144.718 130.926 144.641 130.899 144.549C130.872 144.458 130.881 144.359 130.924 144.274C131.009 144.219 131.113 144.199 131.213 144.216H131.3Z" fill="#F18380"/>
<path d="M205.887 181.902L196.399 174.221L177.422 198.168L185.103 207.205L205.887 181.902Z" fill="#CFD1CE"/>
<path d="M140.002 112.094L140.761 112.102L140.751 113.05L141.561 113.059L141.571 112.111L142.331 112.118L142.304 114.709L141.545 114.701L141.555 113.675L140.745 113.667L140.734 114.692L139.975 114.685L140.002 112.094L140.002 112.094ZM145.04 112.146L145.014 114.736L144.28 114.729L144.3 112.753L143.82 112.748L143.812 113.491C143.808 113.825 143.779 114.234 143.574 114.463C143.37 114.717 142.988 114.791 142.559 114.709L142.566 114.066C142.969 114.148 143.073 113.994 143.078 113.481L143.092 112.121L145.04 112.141L145.04 112.146ZM145.674 112.153L146.433 112.161L146.847 113.704L147.292 112.169L148.052 112.177L148.38 114.771L147.672 114.764L147.51 113.376L147.089 114.758L146.583 114.752L146.193 113.363L146.003 114.746L145.295 114.739L145.674 112.153L145.674 112.153ZM148.686 112.184L149.445 112.191L149.434 113.243L150.179 112.199L151.015 112.208L150.04 113.48L151.014 114.798L150.103 114.789L149.432 113.73L149.421 114.782L148.661 114.774L148.688 112.184L148.686 112.184L148.686 112.184ZM145.447 109.379C140.892 109.332 137.861 110.969 137.835 113.43C137.81 115.867 140.804 117.589 145.362 117.636C149.943 117.683 152.949 116.02 152.974 113.585C153 111.125 150.031 109.426 145.447 109.379ZM145.366 117.253C141.087 117.209 138.244 115.667 138.267 113.434C138.29 111.178 141.166 109.718 145.443 109.762C149.746 109.806 152.568 111.322 152.545 113.581C152.522 115.813 149.671 117.297 145.366 117.253ZM145.44 110.122C141.416 110.081 138.718 111.413 138.697 113.439C138.676 115.464 141.346 116.851 145.37 116.893C149.394 116.934 152.092 115.602 152.113 113.576C152.136 111.551 149.466 110.163 145.44 110.122ZM145.371 116.818C141.396 116.777 138.753 115.416 138.773 113.442C138.794 111.468 141.466 110.161 145.439 110.202C149.412 110.243 152.056 111.604 152.036 113.578C152.018 115.552 149.346 116.859 145.371 116.818L145.371 116.818Z" fill="white"/>
</svg>
