<svg width="221" height="488" viewBox="0 0 221 488" fill="none" xmlns="http://www.w3.org/2000/svg">
<path d="M102.596 78.4982C103.29 78.4982 104.766 78.4982 106.068 78.9322C106.068 79.9739 103.753 80.8131 102.596 81.1025C102.306 80.2344 101.901 78.4982 102.596 78.4982Z" fill="#013FA9"/>
<g clip-path="url(#clip0_21_293)">
<path d="M104.829 59.344H76.9839V91.4536H104.829V59.344Z" fill="#FBBEAA"/>
<path d="M77.0529 59.3439H104.806V77.2582C103.594 77.4059 102.374 77.4816 101.152 77.485C91.5771 77.485 80.869 74.9226 76.9604 65.9654L77.0529 59.3439Z" fill="#F18380"/>
<path d="M119.215 35.5115C118.984 44.7861 119.215 52.1106 117.504 59.1856C115.792 66.2606 110.565 72.0431 99.0015 72.0431C87.4377 72.0431 74.255 68.3468 73.3299 54.1741C71.4335 52.1559 68.3575 44.9676 68.2419 36.9175C68.1263 28.8674 68.7738 11.8375 87.484 9.22969C106.194 6.62191 119.724 13.3568 119.215 35.5115Z" fill="#FBBEAA"/>
<path d="M109.432 42.8128C109.432 44.06 110.195 45.0805 111.144 45.0805C112.092 45.0805 112.855 44.06 112.855 42.8128C112.855 41.5656 112.092 40.5452 111.144 40.5452C110.195 40.5452 109.432 41.4749 109.432 42.8128Z" fill="#403D4F"/>
<path d="M88.6167 42.8128C88.6167 44.06 89.3799 45.0805 90.3281 45.0805C91.2763 45.0805 92.0396 44.06 92.0396 42.8128C92.0396 41.5656 91.2763 40.5452 90.3281 40.5452C89.3799 40.5452 88.6167 41.4749 88.6167 42.8128Z" fill="#403D4F"/>
<path d="M92.8033 38.0963C92.6414 38.3004 91.4157 38.0963 90.4906 38.0963C89.5655 38.0963 87.7847 38.0963 87.7847 37.8922C87.7847 37.6881 88.6635 36.2822 90.9762 36.5317C92.6414 36.7131 93.2427 37.7335 92.8033 38.0963Z" fill="#403D4F"/>
<path d="M109.039 38.0963C109.178 38.3004 110.219 38.0963 111.029 38.0963C111.838 38.0963 113.341 38.0963 113.341 37.8922C113.134 37.3782 112.742 36.9563 112.239 36.7058C111.737 36.4552 111.158 36.3933 110.612 36.5316C109.178 36.713 108.785 37.7335 109.039 38.0963Z" fill="#403D4F"/>
<path d="M102.216 52.2012C103.835 52.2012 105.13 51.1581 105.176 50.4097L104.644 44.015C104.627 43.8566 104.547 43.7111 104.422 43.6094C104.296 43.5078 104.136 43.4581 103.974 43.4708C103.895 43.4765 103.818 43.4975 103.747 43.5326C103.676 43.5676 103.613 43.6161 103.561 43.6751C103.51 43.7341 103.471 43.8025 103.446 43.8764C103.422 43.9503 103.412 44.0283 103.419 44.1057L103.927 50.2737C103.694 50.5222 103.406 50.7164 103.086 50.8419C102.766 50.9675 102.421 51.0213 102.077 50.9993C101.996 50.9932 101.915 51.0031 101.838 51.0285C101.761 51.054 101.691 51.0944 101.63 51.1474C101.57 51.2003 101.521 51.2647 101.486 51.3367C101.452 51.4087 101.433 51.4868 101.43 51.5662C101.429 51.7271 101.491 51.8821 101.603 51.9999C101.714 52.1178 101.867 52.1897 102.031 52.2012H102.216Z" fill="#F18380"/>
<path d="M77.1502 48.0739C74.6139 47.7746 72.9848 45.8062 72.5247 43.5386C72.0647 41.271 70.6221 42.4048 67.8992 42.4048C65.1763 42.4048 63.7843 37.1553 62.928 33.1619C61.8142 27.9681 63.4726 21.8878 65.1063 19.7404C60.7497 15.9823 62.928 3.09771 64.0172 7.39257C64.8885 10.8285 68.0108 12.4033 69.463 12.7612C73.8197 -3.12992 90.8833 -0.302425 98.8705 3.09771C105.406 0.520765 111.033 4.17143 113.03 6.31888C122.832 3.09772 127.189 7.39261 129.367 9.54005C131.546 11.6875 134.269 24.0353 125.011 29.4039C117.604 33.6988 106.676 30.1197 102.138 27.7933C96.91 32.0882 89.7941 30.6566 86.8897 29.4039C86.454 31.9809 81.4598 35.6673 79.463 37.9937C77.4662 40.3201 78.3066 48.2103 77.1502 48.0739Z" fill="#F3E8AE"/>
<path d="M73.8389 47.1214C73.7232 44.5363 73.3069 40.7267 69.5603 40.636C65.8136 40.5452 65.3279 43.3118 65.4436 47.6656C65.5592 52.0195 70.0691 55.7157 74.0239 54.2191L73.8389 47.1214Z" fill="#FBBEAA"/>
<path d="M68.3344 50.2509C68.4966 50.2232 68.6411 50.1338 68.7363 50.0021C68.8316 49.8704 68.87 49.7072 68.8432 49.548C68.8434 49.42 68.8803 49.2946 68.9499 49.1863C69.0194 49.078 69.1187 48.9911 69.2364 48.9357C69.4724 48.7807 69.7501 48.6979 70.0343 48.6979C70.3184 48.6979 70.5961 48.7807 70.8322 48.9357C70.9349 48.9913 71.0502 49.0204 71.1675 49.0204C71.2848 49.0204 71.4002 48.9913 71.5029 48.9357C71.5971 48.8746 71.6727 48.7897 71.7215 48.6898C71.7704 48.59 71.7908 48.4791 71.7804 48.3688C71.4566 44.7179 69.0745 44.0376 68.982 44.0149C68.903 43.991 68.8199 43.9834 68.7378 43.9924C68.6556 44.0014 68.5763 44.0269 68.5047 44.0674C68.433 44.1078 68.3707 44.1623 68.3215 44.2274C68.2723 44.2925 68.2373 44.3668 68.2187 44.4458C68.1761 44.5961 68.1959 44.7569 68.2739 44.893C68.352 45.029 68.4818 45.1291 68.6351 45.1714C69.0971 45.3765 69.4997 45.6912 69.8066 46.0871C70.1135 46.483 70.3149 46.9477 70.3927 47.4391C69.759 47.3378 69.1093 47.4668 68.5657 47.8019C68.2489 47.984 67.9929 48.2523 67.8286 48.5744C67.6644 48.8964 67.5991 49.2582 67.6406 49.616C67.6366 49.7043 67.6523 49.7924 67.6865 49.8743C67.7206 49.9561 67.7724 50.0298 67.8384 50.0901C67.9043 50.1504 67.9828 50.1961 68.0684 50.2238C68.154 50.2516 68.2448 50.2608 68.3344 50.2509Z" fill="#F18380"/>
<path d="M100.621 60.3643C98.3882 60.2798 96.2446 59.4837 94.5151 58.0966" stroke="#73102A" stroke-width="0.5" stroke-miterlimit="10" stroke-linecap="round"/>
</g>
<path d="M113.352 415.833C113.352 415.833 112.227 463.322 111.946 470.426C111.665 477.529 107.142 479.462 99.8534 480.091C92.5652 480.72 89.4952 474.967 88.4641 470.402C87.4329 465.837 81.1992 419.28 81.1992 419.28L113.352 415.833Z" fill="#FBBEAA"/>
<path d="M66.271 416.981C66.271 416.981 60.0734 464.605 59.0482 471.695C58.0231 478.784 53.34 480.292 46.0473 480.127C38.7547 479.962 36.3549 473.862 35.819 469.175C35.2831 464.488 34.1182 416.981 34.1182 416.981H66.271Z" fill="#FBBEAA"/>
<path d="M47.2708 456.051C49.9177 455.864 52.5422 456.643 54.6459 458.241C56.7496 459.839 58.1861 462.145 58.6826 464.72L70.8645 477.055V484.732H31.8218C31.8218 484.732 33.7821 470.899 34.3422 467.786C34.9023 464.674 36.7925 456.051 47.2708 456.051Z" fill="#FBBEAA"/>
<path d="M58.8319 464.948C59.2827 464.335 59.9231 463.863 60.3739 464.146C60.8246 464.429 72.8045 473.855 73.3738 474.327C73.7244 474.654 73.9897 475.061 74.1468 475.512C74.3038 475.964 74.3479 476.447 74.2753 476.919V487.028H30.6733C30.6733 487.028 32.3813 472.088 32.4999 471.263C32.6186 470.438 33.4489 469.354 33.9233 469.378C36.916 470.289 40.0219 470.78 43.1514 470.839C47.3106 471.058 51.4595 470.248 55.2261 468.482C56.6227 467.518 57.8423 466.322 58.8319 464.948Z" fill="#302D3B"/>
<path d="M67.0595 478.836C64.9948 477.277 57.5714 471.372 54.7876 469.152L55.4371 468.821C55.5248 468.783 55.6038 468.726 55.6691 468.655C58.6385 471.018 65.6212 476.592 67.6162 478.104C69.3027 479.419 70.458 481.318 70.864 483.442L69.9593 483.584C69.5766 481.701 68.5487 480.018 67.0595 478.836Z" fill="white"/>
<path d="M73.3552 474.425C73.7776 474.254 75.8451 474.829 78.5351 477.363C79.655 478.472 80.4613 479.836 80.8775 481.326C81.2938 482.817 81.3063 484.384 80.9138 485.88H67.4194C68.1753 477.704 72.9328 474.595 73.3552 474.425Z" fill="white"/>
<path d="M67.6051 473.951C67.468 474.152 67.4026 474.408 67.4231 474.666C67.4437 474.923 67.5485 475.16 67.7149 475.326C67.7965 475.406 67.8907 475.467 67.9919 475.503C68.0931 475.54 68.1994 475.553 68.3048 475.541C68.4102 475.529 68.5125 475.492 68.6059 475.433C68.6993 475.373 68.782 475.292 68.8492 475.195L70.6787 472.555C70.8158 472.355 70.8812 472.099 70.8607 471.841C70.8401 471.584 70.7353 471.347 70.5689 471.181C70.4884 471.098 70.3945 471.035 70.2929 470.996C70.1914 470.958 70.0843 470.944 69.9783 470.956C69.8722 470.969 69.7693 471.007 69.6759 471.068C69.5824 471.129 69.5003 471.212 69.4346 471.312L67.6051 473.951Z" fill="white"/>
<path d="M65.3086 472.397C65.1712 472.647 65.1057 472.967 65.1263 473.288C65.1469 473.609 65.2519 473.905 65.4186 474.112C65.4993 474.215 65.5935 474.294 65.6952 474.342C65.797 474.39 65.9042 474.407 66.0105 474.392C66.1168 474.376 66.2199 474.329 66.3135 474.253C66.4072 474.177 66.4894 474.073 66.5553 473.948L68.3885 470.655C68.5215 470.403 68.5842 470.085 68.5637 469.766C68.5432 469.447 68.4412 469.152 68.2785 468.941C68.1978 468.837 68.1037 468.759 68.0019 468.711C67.9002 468.663 67.7929 468.646 67.6866 468.661C67.5803 468.676 67.4772 468.723 67.3836 468.8C67.29 468.876 67.2077 468.979 67.1419 469.104L65.3086 472.397Z" fill="white"/>
<path d="M61.9287 469.768C61.7477 469.914 61.6587 470.103 61.6811 470.294C61.7036 470.485 61.8357 470.661 62.0484 470.786C62.2683 470.909 62.55 470.967 62.8325 470.949C63.115 470.93 63.3755 470.836 63.5575 470.687L65.9529 468.701C66.0536 468.634 66.1336 468.554 66.1882 468.465C66.2428 468.376 66.271 468.281 66.271 468.184C66.271 468.088 66.2428 467.993 66.1882 467.904C66.1336 467.815 66.0536 467.735 65.9529 467.667C65.7307 467.548 65.4505 467.492 65.1697 467.511C64.889 467.529 64.6292 467.62 64.4438 467.766L61.9287 469.768Z" fill="white"/>
<path d="M59.5646 467.737C59.4975 467.86 59.4472 468.002 59.4164 468.155C59.3856 468.307 59.3749 468.468 59.3851 468.627C59.3952 468.786 59.4259 468.94 59.4755 469.081C59.525 469.222 59.5924 469.347 59.6738 469.449C59.827 469.676 60.0329 469.804 60.2473 469.804C60.4618 469.804 60.6677 469.676 60.8208 469.449L62.6415 466.08C62.778 465.826 62.843 465.502 62.8226 465.176C62.8021 464.85 62.6978 464.55 62.5323 464.34C62.451 464.238 62.3573 464.162 62.2566 464.115C62.1559 464.069 62.0501 464.052 61.9452 464.068C61.8404 464.083 61.7385 464.13 61.6456 464.205C61.5526 464.28 61.4703 464.382 61.4034 464.506L59.5646 467.737Z" fill="white"/>
<path d="M103.547 456.051C106.196 455.864 108.822 456.643 110.927 458.241C113.032 459.839 114.469 462.145 114.966 464.72L127.132 477.055V484.732H88.0889C88.0889 484.732 90.027 470.899 90.6107 467.786C91.1945 464.674 93.0626 456.051 103.547 456.051Z" fill="#FBBEAA"/>
<path d="M113.973 464.948C114.424 464.335 115.041 463.863 115.516 464.146C115.991 464.429 127.956 473.855 128.502 474.327C129.049 474.798 129.428 475.387 129.428 476.919V487.028H85.7925C85.7925 487.028 87.5018 472.088 87.6205 471.263C87.7392 470.438 88.5702 469.354 89.045 469.378C92.04 470.289 95.1484 470.78 98.2803 470.839C102.435 471.062 106.581 470.252 110.341 468.482C111.749 467.523 112.978 466.326 113.973 464.948Z" fill="#302D3B"/>
<path d="M121.031 478.836C118.966 477.277 111.543 471.372 108.759 469.152L109.385 468.821C109.48 468.783 109.566 468.727 109.64 468.655C112.61 471.018 119.592 476.592 121.587 478.104C123.274 479.419 124.429 481.318 124.835 483.442L123.93 483.584C123.536 481.705 122.511 480.026 121.031 478.836Z" fill="white"/>
<path d="M127.82 474.425C128.278 474.254 130.518 474.829 133.432 477.363C134.645 478.472 135.519 479.836 135.97 481.326C136.421 482.817 136.434 484.384 136.009 485.88H121.39C122.209 477.704 127.363 474.595 127.82 474.425Z" fill="white"/>
<path d="M122.786 473.951C122.603 474.152 122.516 474.408 122.543 474.666C122.571 474.923 122.711 475.16 122.933 475.326C123.042 475.406 123.168 475.467 123.303 475.503C123.438 475.54 123.58 475.553 123.721 475.541C123.862 475.529 123.998 475.492 124.123 475.433C124.248 475.373 124.359 475.292 124.448 475.195L126.893 472.555C127.07 472.353 127.154 472.098 127.126 471.842C127.099 471.586 126.963 471.35 126.746 471.181C126.638 471.098 126.513 471.035 126.377 470.996C126.242 470.958 126.099 470.944 125.957 470.956C125.815 470.969 125.678 471.007 125.553 471.068C125.428 471.129 125.318 471.212 125.231 471.312L122.786 473.951Z" fill="white"/>
<path d="M120.428 472.394C120.291 472.644 120.225 472.965 120.246 473.286C120.266 473.608 120.372 473.904 120.538 474.111C120.619 474.215 120.713 474.294 120.815 474.342C120.917 474.39 121.024 474.407 121.13 474.392C121.236 474.376 121.34 474.329 121.433 474.253C121.527 474.176 121.609 474.073 121.675 473.948L123.508 470.649C123.641 470.397 123.704 470.078 123.683 469.758C123.663 469.439 123.561 469.143 123.398 468.932C123.23 468.728 123.014 468.63 122.798 468.661C122.582 468.692 122.382 468.848 122.243 469.096L120.428 472.394Z" fill="white"/>
<path d="M117.122 469.77C117.019 469.836 116.938 469.914 116.882 470.002C116.826 470.089 116.797 470.183 116.797 470.278C116.797 470.373 116.826 470.467 116.882 470.554C116.938 470.641 117.019 470.72 117.122 470.786C117.348 470.909 117.638 470.967 117.929 470.949C118.22 470.93 118.488 470.836 118.675 470.687L121.14 468.705C121.325 468.554 121.413 468.361 121.385 468.168C121.357 467.975 121.216 467.797 120.992 467.672C120.882 467.612 120.755 467.566 120.619 467.539C120.482 467.511 120.339 467.501 120.197 467.511C120.055 467.52 119.918 467.547 119.792 467.592C119.666 467.637 119.554 467.697 119.464 467.77L117.122 469.77Z" fill="white"/>
<path d="M114.744 467.737C114.655 467.86 114.588 468.002 114.547 468.155C114.506 468.307 114.491 468.468 114.505 468.627C114.518 468.786 114.56 468.94 114.626 469.081C114.692 469.222 114.781 469.347 114.89 469.449C115.094 469.676 115.369 469.804 115.655 469.804C115.941 469.804 116.215 469.676 116.419 469.449L118.847 466.08C119.029 465.826 119.116 465.502 119.088 465.176C119.061 464.85 118.922 464.55 118.701 464.34C118.593 464.238 118.468 464.162 118.334 464.115C118.199 464.069 118.058 464.052 117.918 464.068C117.779 464.083 117.643 464.13 117.519 464.205C117.395 464.28 117.285 464.382 117.196 464.506L114.744 467.737Z" fill="white"/>
<path d="M37.755 315.062C37.3653 318.094 37.5702 321.174 38.3577 324.125C39.1452 327.076 40.4997 329.839 42.343 332.254C44.1862 334.668 46.4815 336.687 49.0962 338.193C51.7108 339.699 54.5929 340.662 57.5757 341.027C60.5584 341.392 63.5827 341.152 66.4735 340.319C69.3643 339.487 72.0642 338.079 74.4172 336.178C76.7701 334.277 78.7294 331.92 80.1815 329.243C81.6337 326.566 82.55 323.622 82.8774 320.583C82.8774 320.583 94.7073 236.008 97.5129 218.922C100.318 201.835 97.3492 187.533 78.5521 183.464C59.0537 179.252 46.873 193.792 45.4001 208.356C43.9271 222.92 37.755 315.062 37.755 315.062Z" fill="#013EA5"/>
<path d="M75.7431 316.688C75.6675 322.807 78.0282 328.704 82.3059 333.084C86.5837 337.464 92.4281 339.967 98.5533 340.043C104.679 340.118 110.583 337.76 114.968 333.487C119.352 329.214 121.858 323.376 121.934 317.258C121.934 317.258 124.856 232.1 125.854 214.846C126.852 197.591 122.338 183.754 102.901 181.761C82.7525 179.696 72.0127 195.431 72.0127 210.051C72.0127 224.672 75.7431 316.688 75.7431 316.688Z" fill="#013EA5"/>
<path d="M75.4575 316.875C75.4957 313.849 76.1423 310.859 77.3605 308.077C78.5788 305.296 80.3447 302.776 82.5576 300.662C84.7704 298.549 87.3868 296.883 90.2573 295.759C93.1279 294.635 96.1964 294.076 99.2877 294.114C102.379 294.151 105.432 294.784 108.274 295.977C111.115 297.169 113.689 298.898 115.847 301.065C118.006 303.231 119.708 305.793 120.856 308.603C122.004 311.414 122.575 314.418 122.537 317.444L117.693 439.386L79.6956 443.393L75.4575 316.875Z" fill="#013EA5"/>
<path d="M37.8355 315.412C38.6188 309.365 41.7332 303.873 46.5021 300.131C51.271 296.389 57.3092 294.698 63.3052 295.426C69.3012 296.154 74.7706 299.242 78.5255 304.019C82.2804 308.796 84.0175 314.876 83.3594 320.939L65.598 442.244H28.377L37.8355 315.412Z" fill="#013EA5"/>
<path d="M82.3473 319.375L65.1226 441.096" stroke="#013EA5" stroke-width="0.75" stroke-miterlimit="10" stroke-linecap="round"/>
<path d="M83.4961 320.523C83.4961 320.523 95.5626 236.455 98.4242 219.471" stroke="#F5F5F5" stroke-width="0.75" stroke-miterlimit="10" stroke-linecap="round"/>
<path d="M123.687 191.912C123.687 191.912 123.687 215.873 123.687 217.19C123.687 218.507 112.167 229.806 96.8689 229.806C73.3456 229.806 45.1914 221.188 45.6061 215.573C45.8826 211.876 46.2281 191.912 46.2281 191.912H123.687Z" fill="#013EA5"/>
<path d="M194.574 93.6076L183.439 163.51C181.602 172.279 184.441 180.213 194.574 181.605C196.445 181.848 198.345 181.709 200.16 181.196C201.975 180.683 203.667 179.806 205.133 178.619C206.599 177.431 207.808 175.959 208.687 174.29C209.566 172.621 210.097 170.791 210.247 168.91L213.644 93.7468C214.535 86.648 211.445 81.9155 206.044 81.3309C199.418 80.6071 195.911 84.5323 194.574 93.6076Z" fill="#FBBEAA"/>
<path d="M203.623 155.771L123.671 95.0272C114.345 89.0698 107.998 92.2434 103.043 98.6184C100.78 101.704 99.7304 105.514 100.095 109.323C100.459 113.132 102.212 116.674 105.019 119.275L184.776 178.041C187.587 180.415 191.205 181.613 194.877 181.385C198.548 181.156 201.991 179.52 204.486 176.816L204.847 176.427C206.172 175.014 207.194 173.346 207.853 171.525C208.511 169.704 208.791 167.768 208.677 165.835C208.562 163.902 208.055 162.013 207.186 160.283C206.317 158.552 205.105 157.017 203.623 155.771Z" fill="#FBBEAA"/>
<path d="M194.908 91.7419C195.023 89.2333 194.351 86.7515 192.987 84.6431C190.887 82.208 189.313 79.3645 188.366 76.2916C187.637 73.4392 186.472 70.7161 184.914 68.2184C183.8 66.6873 182.13 65.4346 182.13 64.2654C182.13 63.0962 184.357 60.8413 187.531 61.4816C188.89 61.905 190.139 62.6237 191.188 63.5863C192.237 64.5488 193.061 65.7313 193.599 67.0492C193.903 66.2462 194.082 65.4012 194.128 64.5438L194.824 47.4789C194.835 47.0365 194.934 46.6007 195.116 46.1972C195.297 45.7938 195.558 45.4308 195.883 45.1298C196.207 44.8288 196.588 44.5958 197.004 44.4447C197.42 44.2935 197.862 44.2272 198.304 44.2496C199.008 44.2796 199.684 44.5294 200.238 44.9638C200.793 45.3983 201.197 45.9955 201.394 46.6715V45.892C201.501 45.0625 201.918 44.3041 202.561 43.7693C203.204 43.2344 204.026 42.9625 204.861 43.0083C205.696 43.0541 206.483 43.4142 207.064 44.0162C207.645 44.6182 207.976 45.4177 207.992 46.254V48.6202C208.271 47.8907 208.802 47.2856 209.49 46.9153C210.177 46.545 210.975 46.4342 211.738 46.6029C212.5 46.7716 213.177 47.2086 213.644 47.8344C214.111 48.4602 214.338 49.2331 214.283 50.0122V51.5154C214.583 50.9888 215.029 50.561 215.568 50.2841C216.107 50.0072 216.715 49.8934 217.318 49.9564C218.143 50.0612 218.895 50.483 219.414 51.1325C219.934 51.782 220.18 52.6082 220.101 53.4362L218.737 67.8287C217.844 75.943 216.166 83.9515 213.726 91.7419C213.697 93.0426 213.396 94.3228 212.842 95.5001C212.288 96.6774 211.494 97.7258 210.511 98.578C209.528 99.4301 208.377 100.067 207.133 100.448C205.889 100.829 204.579 100.945 203.287 100.789C202.118 100.828 200.954 100.616 199.875 100.165C198.796 99.715 197.825 99.0378 197.031 98.1797C196.236 97.3216 195.635 96.3026 195.269 95.1918C194.902 94.081 194.779 92.9044 194.908 91.7419Z" fill="#FBBEAA"/>
<path d="M117.072 90.6841L186.26 137.348C185.969 139.735 191.576 90.6841 191.576 90.6841L217.185 93.0745C217.185 93.0745 215.689 143.014 211.92 169.388C210.425 179.855 201.713 183.825 191.382 181.571C186.282 180.458 181.48 178.365 177.208 175.366C158.847 162.479 107.336 126.179 103.125 121.613C95.859 113.734 95.859 107.833 100.035 101.346C104.21 94.8599 113.147 89.7098 117.072 90.6841Z" fill="#013EA5"/>
<path d="M195.465 69.4715C194.407 69.4715 194.323 68.8034 193.85 67.5785C196.216 67.5785 203.092 68.0239 206.099 73.8143C203.065 69.6385 197.246 69.4715 195.465 69.4715ZM200.865 47.4513C200.865 47.4513 200.698 48.4257 200.531 49.8455C200.531 50.5693 200.364 51.4322 200.309 52.3231C200.253 53.2139 200.169 54.1882 200.086 55.1069C200.086 57.0556 199.947 58.9764 199.947 60.424C199.947 61.8716 199.947 62.846 199.947 62.846C199.947 62.8923 199.956 62.9382 199.974 62.9806C199.993 63.0231 200.02 63.0612 200.054 63.0926C200.088 63.124 200.128 63.1481 200.172 63.1631C200.216 63.1782 200.262 63.1839 200.309 63.18C200.387 63.1761 200.462 63.1468 200.522 63.0966C200.582 63.0464 200.625 62.978 200.643 62.9017C200.643 62.9017 200.81 61.9273 200.949 60.4797C201.088 59.0321 201.311 57.1113 201.394 55.1904C201.394 54.2161 201.394 53.2417 201.394 52.4066C201.394 51.5714 201.394 50.6528 201.394 49.929C201.394 48.4536 201.394 47.507 201.394 47.507C201.394 47.4607 201.385 47.4149 201.366 47.3724C201.348 47.33 201.321 47.2918 201.287 47.2604C201.253 47.2289 201.213 47.205 201.169 47.1899C201.125 47.1749 201.079 47.1691 201.032 47.1729C200.979 47.2036 200.935 47.2485 200.906 47.3026C200.876 47.3566 200.862 47.4177 200.865 47.4792V47.4513ZM207.324 49.4001C207.324 49.4001 207.157 50.2352 206.962 51.4601C206.962 52.1004 206.767 52.8241 206.684 53.6036C206.6 54.3831 206.517 55.2182 206.433 56.0534C206.433 57.7237 206.238 59.394 206.21 60.6467C206.183 61.8994 206.21 62.7625 206.21 62.7625C206.214 62.8064 206.226 62.8492 206.246 62.8884C206.266 62.9276 206.294 62.9624 206.328 62.9909C206.361 63.0194 206.4 63.0409 206.442 63.0543C206.484 63.0676 206.528 63.0725 206.572 63.0687C206.647 63.0635 206.718 63.0332 206.774 62.9827C206.829 62.9322 206.866 62.8644 206.878 62.7903C206.878 62.7903 207.045 61.9551 207.24 60.7302C207.435 59.5053 207.602 57.8072 207.741 56.1648C207.741 55.3296 207.741 54.4945 207.908 53.715C208.075 52.9355 207.908 52.1839 207.908 51.5436C207.908 50.2909 207.908 49.4557 207.908 49.4557C207.909 49.4094 207.899 49.3636 207.881 49.3211C207.862 49.2787 207.835 49.2405 207.801 49.2091C207.767 49.1777 207.727 49.1537 207.683 49.1387C207.639 49.1236 207.593 49.1178 207.547 49.1217C207.485 49.1472 207.431 49.1893 207.392 49.2433C207.353 49.2974 207.329 49.3612 207.324 49.4278V49.4001ZM213.56 52.0447C213.56 52.0447 213.393 52.7406 213.17 53.7985C213.17 54.2996 212.947 54.9121 212.864 55.5802C212.78 56.2483 212.669 56.9442 212.557 57.6402C212.363 59.06 212.279 60.424 212.223 61.5376C212.168 62.6511 212.223 63.3193 212.223 63.3193C212.223 63.3656 212.233 63.4114 212.251 63.4538C212.27 63.4963 212.297 63.5345 212.331 63.5659C212.365 63.5973 212.405 63.6213 212.449 63.6363C212.493 63.6514 212.539 63.6572 212.585 63.6533C212.656 63.6496 212.724 63.6233 212.779 63.5782C212.835 63.5331 212.874 63.4717 212.892 63.4028C212.892 63.4028 213.086 62.7068 213.281 61.6768C213.476 60.6468 213.755 59.1991 213.922 57.8072C213.922 57.0834 214.061 56.3875 214.116 55.7194C214.172 55.0512 214.116 54.4388 214.116 53.9099C214.116 52.852 214.116 52.1282 214.116 52.1282C214.117 52.0819 214.107 52.0361 214.089 51.9936C214.07 51.9511 214.043 51.913 214.009 51.8815C213.975 51.8501 213.935 51.8262 213.891 51.8111C213.847 51.7961 213.801 51.7903 213.755 51.7941C213.703 51.8228 213.659 51.8627 213.625 51.9109C213.591 51.9592 213.569 52.0144 213.56 52.0725V52.0447Z" fill="#F18380"/>
<path d="M186.802 131.705L188.104 121.288L215.884 123.458L215.45 133.875L186.802 131.705Z" fill="#CFD1CE"/>
<path d="M106.03 84.1322C106.03 84.1322 122.838 93.8378 125.461 95.5363C128.085 97.2348 131.048 99.8553 130.514 106.94C129.979 114.025 127.72 209.399 127.72 209.399C119.094 210.859 93.8306 210.859 93.8306 210.859H91.534H89.8115H87.5149H85.7924H84.07C84.07 210.859 46.6173 207.676 45.8643 207.239C45.1113 206.802 44.4069 206.341 44.4555 205.516C44.5041 204.691 44.9899 107.741 45.3057 103.471C45.3682 101.184 46.0886 98.963 47.3808 97.0741C48.673 95.1852 50.4823 93.7079 52.5925 92.8188C57.6691 90.5622 76.7364 82.822 76.7364 82.822L92.751 84.1322H106.03Z" fill="#034CC9"/>
<path d="M106.03 84.1322C106.03 84.1322 122.838 93.8378 125.461 95.5363C128.085 97.2348 131.048 99.8553 130.514 106.94C129.979 114.025 127.72 209.399 127.72 209.399C119.093 210.859 105.314 210.859 105.314 210.859H103.017H101.295H98.9979H97.2755H95.553C95.553 210.859 98.2913 207.676 97.5383 207.239C96.7854 206.802 96.081 206.341 96.1295 205.516C96.1781 204.691 96.6639 107.741 96.9797 103.471C97.0422 101.184 97.7626 98.963 99.0548 97.0741C100.347 95.1852 102.156 93.7079 104.267 92.8188C109.343 90.5622 76.7363 82.822 76.7363 82.822L92.7509 84.1322H106.03Z" fill="#0045BA"/>
<path d="M107.937 84.2721C107.937 84.2721 126.52 95.0136 129.42 96.8934C132.32 98.7732 130.003 102.917 130.003 110.382C130.003 120.142 128.28 120.716 128.28 120.716C122.469 123.852 119.927 121.406 113.523 123.014C110.408 123.363 107.991 123.443 105.896 121.403C103.801 119.362 97.2756 120.142 97.2756 120.142C97.2756 120.142 87.4475 118.851 82.8555 121.403C81.7572 122.169 80.516 122.706 79.2059 122.983C77.8957 123.26 76.8656 123.239 75.5512 122.983C68.8915 121.613 42.2525 113.964 41.42 113.481C40.5875 112.997 39.8088 112.487 39.8625 111.574C39.9162 110.661 40.4533 110.401 40.8024 105.675C40.8715 103.143 41.668 100.686 43.0966 98.5953C44.5252 96.5048 46.5255 94.8698 48.8585 93.8858C54.471 91.3884 75.5512 82.822 75.5512 82.822L93.2565 83.3961L107.937 84.2721Z" fill="#9A99A1"/>
<path d="M94.7835 80.2344C86.7969 80.2344 79.5916 76.762 76.9873 75.0258V82.8387C77.2767 83.2728 79.5048 84.6617 86.1024 86.7452C92.7 88.8286 102.162 88.0473 106.069 86.7452V78.9322C106.069 79.3663 104.767 80.2344 94.7835 80.2344Z" fill="#034CC9"/>
<path d="M95.2173 210.45C97.4353 209.706 99.3765 208.272 100.775 206.345C102.174 204.418 102.961 202.091 103.03 199.684V80.6684H95.2173V210.45Z" fill="#034CC9"/>
<path d="M130.003 123.64H90.624V114.959L130.003 114.975C130.003 118.994 130.003 120.142 130.003 123.64Z" fill="#D3D4D2"/>
<path d="M58.7882 114.959H98.4366V123.64H57.9752C58.5039 119.733 58.7882 117.997 58.7882 114.959Z" fill="#CFD1CE"/>
<g style="mix-blend-mode:multiply" opacity="0.4">
<path d="M94.3491 87.8694L95.2172 88.0473V210.45H94.3491V87.8694Z" fill="#013FA9"/>
</g>
<path d="M42.3185 98.6488C36.2418 106.462 1.0835 201.953 1.0835 201.953C33.6374 191.536 30.5828 163.382 48.288 166.361C48.288 166.361 68.7045 118.441 69.484 114.154C70.2975 110.774 69.9324 107.218 68.4491 104.074C66.9657 100.93 64.4532 98.3871 61.3274 96.866C52.614 92.4119 48.3952 90.8356 42.3185 98.6488Z" fill="#0045BA"/>
<path d="M59.7954 143.773C64.7228 138.79 73.9373 128.045 77.0552 125.428C80.1381 123.105 83.5062 121.187 87.077 119.721C89.7861 118.813 92.5868 118.207 95.4285 117.911C97.4051 117.661 98.2124 118.245 98.2124 119.443C98.1627 120.156 97.9354 120.845 97.5513 121.448C97.1672 122.051 96.6384 122.548 96.0131 122.894H99.6599C100.913 122.894 101.72 123.897 101.135 125.511C100.604 126.578 99.8454 127.515 98.9122 128.256C97.9789 128.997 96.8941 129.523 95.7347 129.798C95.7347 129.798 100.662 130.272 101.915 130.522C103.168 130.773 103.557 131.246 103.557 132.443C103.547 133.27 103.317 134.079 102.891 134.788C102.466 135.497 101.86 136.081 101.135 136.48C99.3619 137.199 97.4794 137.613 95.5677 137.704C95.5677 137.704 101.664 139.236 102.889 139.681C104.114 140.126 104.253 140.934 103.613 141.992C103.248 142.737 102.721 143.391 102.071 143.906C101.421 144.422 100.664 144.785 99.8548 144.97C97.5442 145.583 95.9853 144.581 95.1501 144.72C93.3557 145.298 91.5986 145.986 89.8887 146.78C87.3209 149.336 84.1814 151.245 80.7299 152.347C78.1607 153.426 75.804 154.953 73.7703 156.857C72.823 157.746 71.7069 158.436 70.4883 158.886C69.2697 159.337 67.9731 159.538 66.6754 159.478C65.3776 159.418 64.105 159.099 62.9329 158.539C61.7607 157.979 60.7128 157.189 59.8511 156.217C55.3969 151.484 56.1486 147.531 59.7954 143.773Z" fill="#FBBEAA"/>
<path d="M76.1739 160.718L31.3592 211.112C25.9888 218.27 13.4395 222.203 5.77207 215.572C4.35417 214.33 3.20337 212.813 2.38948 211.112C1.5756 209.412 1.11557 207.564 1.03733 205.68C0.95909 203.797 1.26426 201.917 1.93432 200.155C2.60438 198.393 3.62536 196.786 4.93535 195.43L59.2458 138.582L76.1739 160.718Z" fill="#0045BA"/>
<path d="M95.4012 122.922C95.4091 122.968 95.4073 123.015 95.3958 123.061C95.3843 123.106 95.3636 123.148 95.3347 123.185C95.3059 123.222 95.2695 123.252 95.2283 123.274C95.187 123.296 95.1417 123.309 95.0951 123.312L92.8123 123.535H91.6988C91.309 123.535 90.9471 123.674 90.5574 123.702C90.1457 123.825 89.7452 123.983 89.3604 124.175L88.0797 124.704C86.3537 125.4 84.6278 126.04 83.3472 126.513C82.0666 126.987 81.1758 127.265 81.1758 127.265C81.1052 127.295 81.0261 127.297 80.9539 127.271C80.8818 127.245 80.8219 127.194 80.7861 127.126C80.7342 127.058 80.7061 126.975 80.7061 126.889C80.7061 126.804 80.7342 126.721 80.7861 126.653L82.874 125.567L85.0454 124.537C85.8248 124.175 86.6878 123.813 87.5508 123.479L88.8592 122.978C89.28 122.788 89.7182 122.639 90.1676 122.532L91.5039 122.393H92.6453H94.3434H94.9837C95.0538 122.338 95.1431 122.313 95.2318 122.323C95.3206 122.334 95.4016 122.379 95.457 122.449C95.5123 122.519 95.5376 122.608 95.5271 122.697C95.5167 122.786 95.4714 122.867 95.4012 122.922ZM94.8723 129.631H94.3712C93.9545 129.594 93.5352 129.594 93.1185 129.631L92.2555 129.77C91.9374 129.81 91.6215 129.866 91.309 129.937L89.416 130.55C88.1354 130.968 86.8827 131.496 85.9362 131.886C85.9362 131.886 85.63 131.886 85.6578 132.025H85.3238L84.8227 132.165H84.5165H84.3494C84.2653 132.184 84.1923 132.236 84.1456 132.309C84.0989 132.382 84.0821 132.47 84.0989 132.554C84.111 132.621 84.1449 132.682 84.1953 132.727C84.2457 132.772 84.3097 132.8 84.3773 132.805H85.797H86.2424C87.2167 132.554 88.5251 132.165 89.8057 131.719L91.6709 131.023L92.5339 130.8L93.2855 130.578C93.6699 130.464 94.0603 130.371 94.4547 130.299L94.928 130.16C94.9701 130.147 95.0092 130.127 95.0432 130.099C95.0772 130.071 95.1054 130.036 95.1261 129.998C95.1468 129.959 95.1596 129.916 95.1638 129.873C95.168 129.829 95.1636 129.785 95.1507 129.743C95.1177 129.702 95.0748 129.67 95.0261 129.651C94.9773 129.631 94.9244 129.624 94.8723 129.631ZM94.8723 137.537H93.8423C93.5639 137.537 93.2021 137.537 92.8402 137.732L91.6988 138.094C90.9805 138.347 90.2826 138.654 89.6109 139.013C89.3021 139.158 89.0043 139.325 88.72 139.514C88.6632 139.58 88.6319 139.664 88.6319 139.751C88.6319 139.837 88.6632 139.921 88.72 139.987C88.8 140.072 88.9099 140.122 89.0262 140.126L90.0563 139.959C90.6409 139.82 91.3926 139.597 92.1442 139.347L93.2298 138.901L94.1763 138.54C94.4915 138.4 94.7983 138.242 95.0951 138.066C95.1738 138.02 95.2319 137.945 95.2577 137.857C95.2836 137.769 95.2752 137.675 95.2342 137.593C95.1517 137.54 95.0523 137.52 94.9558 137.537H94.8723Z" fill="#F18380"/>
<path d="M23.2197 173.74L32.3348 166.361L50.565 189.366L43.1862 198.047L23.2197 173.74Z" fill="#CFD1CE"/>
<defs>
<clipPath id="clip0_21_293">
<rect width="69" height="91" fill="white" transform="translate(62.5 0.453613)"/>
</clipPath>
</defs>
</svg>
