<svg width="194" height="514" viewBox="0 0 194 514" fill="none" xmlns="http://www.w3.org/2000/svg">
<path d="M126.945 49.5918V70.5242C126.945 70.5242 125.293 77.7236 114.223 77.7236C112.025 77.9089 109.84 77.2457 108.116 75.8702C106.392 74.4946 105.26 72.5111 104.952 70.327V49.6164L126.945 49.5918Z" fill="#FBBEAA"/>
<path d="M159.885 215.202C159.342 208.372 152.02 182.188 144.155 167.272C144.155 167.272 126.997 169.439 115.948 169.475C104.419 169.513 86.5102 167.272 86.5102 167.272C81.3819 178.884 75.5386 204.255 73.8374 209.728C72.8104 212.949 72.6856 216.389 73.4768 219.675C74.2679 222.961 75.9446 225.968 78.3247 228.368C84.168 235 99.2324 242.594 102.709 242.594C117.665 240.457 132.325 236.602 146.398 231.104C154.337 227.776 160.402 222.056 159.885 215.202Z" fill="#013EA5"/>
<path d="M23.7136 72.9891C23.6119 70.7673 24.2067 68.5693 25.4148 66.702C27.2749 64.5453 28.6684 62.0269 29.5076 59.3054C30.1532 56.7791 31.1845 54.3674 32.565 52.1553C33.5512 50.7992 35.0305 49.6898 35.0305 48.6543C35.0305 47.6187 33.0581 45.6216 30.2473 46.1887C29.0434 46.5637 27.9372 47.2003 27.008 48.0528C26.0788 48.9052 25.3496 49.9526 24.8724 51.1198C24.6031 50.4086 24.4452 49.6602 24.404 48.9008L23.7876 33.7871C23.7783 33.3953 23.6905 33.0093 23.5295 32.652C23.3685 32.2947 23.1375 31.9732 22.8502 31.7066C22.5629 31.44 22.2252 31.2337 21.8569 31.0998C21.4885 30.9659 21.0971 30.9072 20.7057 30.927C20.0826 30.9536 19.4834 31.1748 18.9925 31.5596C18.5016 31.9444 18.1436 32.4733 17.9689 33.072V32.3817C17.8741 31.647 17.5049 30.9754 16.9353 30.5016C16.3658 30.0279 15.6381 29.7871 14.8984 29.8277C14.1587 29.8683 13.4617 30.1872 12.9474 30.7204C12.4331 31.2535 12.1395 31.9616 12.1256 32.7022V34.798C11.8787 34.1518 11.4078 33.616 10.7988 33.288C10.1898 32.96 9.48326 32.8618 8.8079 33.0113C8.13255 33.1607 7.53336 33.5477 7.11954 34.102C6.70573 34.6562 6.50484 35.3407 6.5535 36.0307V37.3621C6.28812 36.8957 5.89265 36.5168 5.41538 36.2716C4.93811 36.0264 4.39973 35.9255 3.86607 35.9814C3.13526 36.0741 2.46929 36.4477 2.00909 37.0229C1.5489 37.5982 1.33061 38.3299 1.40054 39.0633L2.60862 51.8101C3.40004 58.9966 4.88636 66.0894 7.04663 72.9891C7.07275 74.1411 7.33965 75.2749 7.83013 76.3176C8.32062 77.3603 9.02384 78.2888 9.89463 79.0435C10.7654 79.7982 11.7845 80.3623 12.8863 80.6996C13.9882 81.0369 15.1484 81.14 16.2924 81.0021C17.3277 81.0366 18.3583 80.8481 19.3143 80.4494C20.2704 80.0506 21.1295 79.4508 21.8334 78.6908C22.5373 77.9308 23.0695 77.0283 23.3939 76.0445C23.7183 75.0608 23.8273 74.0187 23.7136 72.9891Z" fill="#FBBEAA"/>
<path d="M106.802 475.365C106.802 472.991 105.859 470.715 104.181 469.036C102.502 467.358 100.226 466.415 97.852 466.415C95.4783 466.415 93.2019 467.358 91.5234 469.036C89.845 470.715 88.9021 472.991 88.9021 475.365V494.818H106.802V475.365Z" fill="#FBBEAA"/>
<path d="M89.5424 478.989C87.348 478.989 86.9536 479.951 86.3125 481.208C85.2728 484.559 83.4952 487.634 81.1103 490.207C77.5498 493.24 73.73 495.954 69.6948 498.319V508.625H109.538C109.538 508.625 109.267 500.489 109.069 494.744C108.872 488.999 108.305 481.997 108.354 481.258C108.404 480.518 108.354 478.989 106.998 478.989H89.5424Z" fill="#302D3B"/>
<path d="M104.583 495.311C104.588 496.576 104.217 497.814 103.517 498.868C102.817 499.922 101.82 500.744 100.652 501.23C99.4847 501.717 98.1987 501.845 96.9577 501.6C95.7167 501.354 94.5766 500.745 93.6821 499.851C92.7875 498.956 92.1788 497.816 91.9332 496.575C91.6876 495.334 91.8161 494.048 92.3025 492.88C92.7889 491.712 93.6112 490.715 94.6651 490.016C95.719 489.316 96.957 488.945 98.222 488.95C99.9071 488.956 101.521 489.628 102.713 490.82C103.904 492.011 104.577 493.626 104.583 495.311Z" fill="#0447BA"/>
<path d="M98.2218 491.563L99.6764 493.708L102.167 494.423L100.589 496.47L100.663 499.058L98.2218 498.171L95.7809 499.058L95.8795 496.47L94.2769 494.423L96.7671 493.708L98.2218 491.563Z" fill="white"/>
<path d="M69.9667 498.147C69.9667 498.147 64.3207 501.13 62.2003 502.585C61.2187 503.25 60.4213 504.152 59.8824 505.208C59.3435 506.265 59.0807 507.44 59.1184 508.625H74.602C74.602 508.625 74.2814 501.056 69.9667 498.147Z" fill="white"/>
<path d="M109.538 508.625V512.891C109.538 513.606 108.897 514 107.812 514H60.8189C59.7587 514 59.1177 513.606 59.1177 512.891V508.625H109.538Z" fill="white"/>
<path d="M74.6019 495.262C74.4653 495.052 74.2525 494.904 74.0085 494.849C73.7645 494.793 73.5086 494.835 73.2951 494.966C73.1888 495.031 73.0967 495.117 73.024 495.219C72.9514 495.32 72.8998 495.435 72.8723 495.557C72.8447 495.679 72.8417 495.805 72.8635 495.928C72.8854 496.05 72.9315 496.168 72.9993 496.273L74.6512 498.935C74.7307 499.073 74.846 499.187 74.9849 499.265C75.1237 499.343 75.2809 499.383 75.4401 499.379C75.6228 499.376 75.8014 499.325 75.9579 499.231C76.0642 499.166 76.1564 499.08 76.229 498.978C76.3016 498.877 76.3533 498.762 76.3808 498.64C76.4084 498.518 76.4113 498.392 76.3895 498.269C76.3677 498.147 76.3216 498.029 76.2538 497.924L74.6019 495.262Z" fill="white"/>
<path d="M77.5109 493.215C77.43 493.121 77.3314 493.044 77.2206 492.988C77.1099 492.933 76.9893 492.899 76.8657 492.89C76.742 492.881 76.6179 492.896 76.5001 492.935C76.3824 492.974 76.2735 493.035 76.1796 493.116C76.0857 493.197 76.0087 493.296 75.9529 493.407C75.8971 493.517 75.8636 493.638 75.8545 493.762C75.8453 493.885 75.8606 494.01 75.8995 494.127C75.9383 494.245 76 494.354 76.081 494.448L78.0041 496.716C78.0928 496.82 78.2022 496.904 78.3253 496.964C78.4484 497.023 78.5825 497.056 78.7191 497.061C78.8977 497.058 79.0718 497.005 79.2219 496.908C79.3721 496.811 79.4923 496.675 79.5691 496.513C79.6459 496.352 79.6763 496.173 79.6568 495.995C79.6373 495.817 79.5687 495.649 79.4587 495.508L77.5109 493.215Z" fill="white"/>
<path d="M80.2473 490.923C80.0512 490.796 79.8158 490.745 79.585 490.78C79.3542 490.814 79.1437 490.931 78.9928 491.109C78.842 491.287 78.761 491.514 78.765 491.747C78.769 491.98 78.8577 492.204 79.0146 492.377L81.2089 494.276C81.3809 494.421 81.5998 494.5 81.8252 494.497C81.961 494.502 82.0961 494.476 82.22 494.42C82.344 494.365 82.4536 494.282 82.5403 494.177C82.6313 494.092 82.704 493.989 82.7536 493.874C82.8032 493.76 82.8287 493.636 82.8287 493.511C82.8287 493.386 82.8032 493.263 82.7536 493.149C82.704 493.034 82.6313 492.931 82.5403 492.846L80.2473 490.923Z" fill="white"/>
<path d="M85.0559 489.788L82.5904 488.26C82.3739 488.131 82.116 488.093 81.8717 488.153C81.6274 488.213 81.4163 488.366 81.2837 488.58C81.217 488.686 81.1723 488.805 81.1523 488.929C81.1323 489.053 81.1374 489.179 81.1673 489.301C81.1972 489.423 81.2513 489.538 81.3263 489.638C81.4014 489.739 81.4959 489.823 81.6042 489.887L84.0697 491.415C84.2159 491.512 84.3875 491.564 84.5629 491.563C84.7235 491.559 84.8804 491.514 85.0186 491.432C85.1568 491.35 85.2715 491.234 85.3518 491.095C85.4821 490.881 85.5242 490.625 85.4689 490.382C85.4137 490.138 85.2655 489.925 85.0559 489.788Z" fill="white"/>
<path d="M87.1269 486.608L84.3655 485.449C84.1301 485.351 83.8653 485.351 83.6295 485.448C83.3937 485.545 83.2062 485.732 83.1081 485.967C83.06 486.082 83.0351 486.205 83.0352 486.329C83.0352 486.454 83.0601 486.577 83.1083 486.692C83.1565 486.807 83.2271 486.911 83.316 486.998C83.4049 487.085 83.5102 487.154 83.6258 487.2L86.3872 488.359H86.757C86.9698 488.347 87.1727 488.265 87.3339 488.126C87.4952 487.987 87.6056 487.798 87.6479 487.589C87.6902 487.381 87.662 487.164 87.5677 486.973C87.4734 486.782 87.3183 486.627 87.1269 486.534V486.608Z" fill="white"/>
<path d="M88.8526 483.057L85.7954 482.293C85.5534 482.234 85.298 482.274 85.0853 482.403C84.8726 482.533 84.72 482.741 84.6612 482.983C84.6023 483.225 84.642 483.481 84.7715 483.693C84.9009 483.906 85.1096 484.059 85.3515 484.117L88.3842 484.906H88.606C88.8184 484.904 89.0243 484.833 89.1931 484.704C89.3619 484.575 89.4846 484.395 89.543 484.191C89.5958 483.95 89.5535 483.697 89.425 483.486C89.2964 483.275 89.0914 483.121 88.8526 483.057Z" fill="white"/>
<path d="M119.894 350.954C119.623 339.021 111.585 333.251 99.6767 333.547C87.7682 333.843 79.1881 340.081 79.4593 351.99L88.9023 476.327H106.802L119.894 350.954Z" fill="#FBBEAA"/>
<path d="M121.446 350.879C121.38 348.046 120.756 345.254 119.611 342.662C118.465 340.07 116.82 337.729 114.77 335.773C112.72 333.816 110.304 332.283 107.662 331.26C105.019 330.237 102.2 329.745 99.3673 329.812C96.5342 329.878 93.742 330.502 91.15 331.647C88.5579 332.793 86.2169 334.437 84.2606 336.488C82.3042 338.538 80.7709 340.953 79.748 343.596C78.7252 346.239 78.2329 349.057 78.2993 351.89L75.3363 480.505H124.08L121.446 350.879Z" fill="#013EA5"/>
<path d="M182.247 475.365C182.247 472.991 181.304 470.715 179.626 469.036C177.947 467.358 175.671 466.415 173.297 466.415C170.924 466.415 168.647 467.358 166.969 469.036C165.29 470.715 164.347 472.991 164.347 475.365V494.818H182.247V475.365Z" fill="#FBBEAA"/>
<path d="M165.013 478.989C162.794 478.989 162.4 479.951 161.783 481.208C160.732 484.559 158.946 487.634 156.556 490.207C153.001 493.246 149.18 495.961 145.141 498.319V508.625H184.984C184.984 508.625 184.713 500.489 184.516 494.744C184.318 488.999 183.776 481.997 183.801 481.258C183.825 480.518 183.801 478.989 182.469 478.989H165.013Z" fill="#302D3B"/>
<path d="M180.053 495.311C180.057 496.575 179.687 497.812 178.988 498.865C178.29 499.918 177.294 500.741 176.128 501.228C174.961 501.715 173.677 501.845 172.436 501.601C171.196 501.358 170.056 500.752 169.16 499.859C168.265 498.967 167.654 497.83 167.406 496.59C167.157 495.351 167.282 494.066 167.765 492.897C168.247 491.729 169.066 490.73 170.117 490.027C171.167 489.325 172.403 488.95 173.667 488.95C175.356 488.95 176.977 489.619 178.174 490.811C179.37 492.003 180.046 493.621 180.053 495.311Z" fill="#0447BA"/>
<path d="M173.692 491.563L175.146 493.708L177.636 494.423L176.034 496.47L176.108 499.058L173.692 498.171L171.251 499.058L171.325 496.47L169.722 494.423L172.237 493.708L173.692 491.563Z" fill="white"/>
<path d="M145.437 498.147C145.437 498.147 139.766 501.13 137.67 502.585C136.684 503.245 135.883 504.146 135.343 505.204C134.804 506.261 134.544 507.439 134.589 508.625H150.146C150.146 508.625 149.727 501.056 145.437 498.147Z" fill="white"/>
<path d="M184.984 508.625V512.891C184.984 513.606 184.368 514 183.283 514H136.24C135.156 514 134.539 513.606 134.539 512.891V508.625H184.984Z" fill="white"/>
<path d="M150.047 495.262C149.913 495.049 149.7 494.899 149.455 494.843C149.21 494.788 148.953 494.832 148.741 494.966C148.528 495.1 148.377 495.313 148.322 495.558C148.266 495.803 148.311 496.06 148.445 496.273L150.097 498.935C150.182 499.074 150.302 499.187 150.445 499.265C150.587 499.343 150.748 499.382 150.91 499.379C151.086 499.38 151.257 499.328 151.403 499.231C151.51 499.166 151.602 499.08 151.674 498.978C151.747 498.877 151.799 498.762 151.826 498.64C151.854 498.518 151.857 498.392 151.835 498.269C151.813 498.147 151.767 498.029 151.699 497.924L150.047 495.262Z" fill="white"/>
<path d="M152.982 493.215C152.819 493.026 152.589 492.907 152.341 492.884C152.092 492.861 151.845 492.936 151.65 493.092C151.459 493.259 151.34 493.493 151.317 493.745C151.294 493.998 151.369 494.249 151.527 494.448L153.475 496.716C153.56 496.824 153.669 496.911 153.793 496.971C153.916 497.03 154.052 497.061 154.19 497.061C154.37 497.063 154.548 497.013 154.7 496.916C154.853 496.819 154.975 496.68 155.05 496.516C155.126 496.352 155.152 496.17 155.126 495.991C155.101 495.812 155.024 495.644 154.905 495.508L152.982 493.215Z" fill="white"/>
<path d="M155.693 490.923C155.497 490.796 155.262 490.745 155.031 490.78C154.8 490.814 154.589 490.931 154.439 491.109C154.288 491.287 154.207 491.514 154.211 491.747C154.215 491.98 154.303 492.204 154.46 492.377L156.679 494.276C156.851 494.421 157.07 494.5 157.296 494.497C157.431 494.501 157.566 494.473 157.689 494.418C157.813 494.363 157.923 494.28 158.011 494.177C158.099 494.09 158.169 493.986 158.216 493.872C158.264 493.758 158.288 493.635 158.288 493.511C158.288 493.387 158.264 493.265 158.216 493.151C158.169 493.036 158.099 492.933 158.011 492.846L155.693 490.923Z" fill="white"/>
<path d="M160.501 489.788L158.036 488.26C157.823 488.17 157.585 488.16 157.365 488.231C157.146 488.302 156.959 488.45 156.839 488.647C156.72 488.845 156.675 489.078 156.714 489.306C156.752 489.534 156.871 489.74 157.049 489.887L159.515 491.415C159.661 491.512 159.833 491.564 160.008 491.563C160.172 491.561 160.333 491.517 160.476 491.435C160.618 491.353 160.737 491.236 160.822 491.095C160.95 490.878 160.988 490.62 160.928 490.376C160.868 490.132 160.715 489.921 160.501 489.788Z" fill="white"/>
<path d="M24.0091 74.6415L33.8713 136.551C35.4985 144.318 32.9837 151.344 24.0091 152.577C22.3525 152.793 20.6693 152.67 19.0618 152.215C17.4543 151.76 15.9558 150.984 14.6576 149.932C13.3595 148.881 12.2885 147.576 11.5099 146.098C10.7312 144.62 10.2612 143 10.1281 141.334L7.12019 74.7647C6.33122 68.4776 9.06791 64.2862 13.8511 63.7685C19.719 63.1274 22.8257 66.6039 24.0091 74.6415Z" fill="#FBBEAA"/>
<path d="M162.571 486.608L159.81 485.449C159.695 485.401 159.572 485.376 159.448 485.376C159.323 485.376 159.2 485.401 159.085 485.449C158.97 485.498 158.866 485.568 158.779 485.657C158.692 485.746 158.623 485.851 158.577 485.967C158.485 486.196 158.485 486.453 158.577 486.682C158.669 486.912 158.845 487.097 159.07 487.2L161.856 488.359C161.97 488.384 162.088 488.384 162.202 488.359C162.392 488.359 162.577 488.302 162.735 488.197C162.893 488.092 163.016 487.942 163.089 487.767C163.164 487.544 163.152 487.301 163.056 487.086C162.961 486.872 162.787 486.701 162.571 486.608Z" fill="white"/>
<path d="M164.299 483.057L161.266 482.293C161.021 482.233 160.762 482.272 160.545 482.401C160.328 482.53 160.171 482.739 160.107 482.983C160.078 483.103 160.072 483.228 160.091 483.35C160.11 483.471 160.153 483.588 160.217 483.694C160.281 483.799 160.365 483.891 160.465 483.964C160.565 484.036 160.678 484.089 160.798 484.118L163.83 484.907H164.077C164.299 484.89 164.508 484.796 164.669 484.642C164.83 484.487 164.932 484.282 164.958 484.061C164.984 483.84 164.933 483.616 164.813 483.429C164.692 483.241 164.511 483.101 164.299 483.033V483.057Z" fill="white"/>
<path d="M172.459 350.584C171.248 344.987 167.864 340.101 163.051 336.998C158.238 333.896 152.39 332.832 146.792 334.04C135.13 336.506 128.843 347.995 131.358 359.657L164.347 478.373H182.469L172.459 350.584Z" fill="#FBBEAA"/>
<path d="M172.459 348.241C171.121 342.779 167.705 338.055 162.938 335.071C158.17 332.088 152.428 331.082 146.93 332.267C141.433 333.452 136.614 336.735 133.499 341.416C130.384 346.098 129.218 351.811 130.249 357.339L141.842 479.352C141.842 479.352 173.253 481.225 191.966 479.352L172.459 348.241Z" fill="#013EA5"/>
<path d="M15.9958 129.697L86.806 75.8987C95.0656 70.6225 100.687 73.4332 105.076 79.0793C107.08 81.812 108.009 85.1864 107.686 88.5599C107.363 91.9335 105.811 95.0705 103.325 97.3736L32.6875 149.421C30.1982 151.523 26.9938 152.584 23.7418 152.382C20.4898 152.18 17.4413 150.731 15.2315 148.336L14.911 147.991C13.7381 146.74 12.8325 145.263 12.2494 143.65C11.6663 142.037 11.4179 140.323 11.5194 138.611C11.6209 136.899 12.0702 135.225 12.8399 133.693C13.6095 132.16 14.6833 130.801 15.9958 129.697Z" fill="#FBBEAA"/>
<path d="M103.325 97.349C103.979 96.7863 104.574 96.1585 105.1 95.4752C105.566 93.7204 105.626 91.8827 105.276 90.1013C104.925 88.3199 104.174 86.6418 103.079 85.1939C99.3557 79.4492 91.5399 74.9373 88.0635 75.8002L84.6118 77.5508L45.533 107.137C48.9917 115.266 53.6636 122.822 59.3893 129.549L103.325 97.349Z" fill="#F18380"/>
<path d="M92.6498 72.0523L31.3723 113.381C31.6301 115.494 26.6643 72.0523 26.6643 72.0523L3.98329 74.1694C3.98329 74.1694 5.30834 118.399 8.6461 141.758C9.97074 151.028 17.6867 154.543 26.8358 152.547C31.353 151.561 35.6056 149.708 39.3899 147.052C55.6513 135.638 101.272 103.489 105.002 99.4445C111.437 92.467 111.437 87.2401 107.739 81.4954C104.041 75.7507 96.1262 71.1894 92.6498 72.0523Z" fill="#013EA5"/>
<path d="M121.447 350.88L134.095 218.456C134.095 203.835 119.031 187.908 96.8163 191.335C76.7469 194.466 70.6323 214.635 72.2842 233.742C73.9361 252.85 78.3988 351.817 78.3988 351.817C78.4651 354.65 79.0889 357.442 80.2344 360.034C81.3799 362.626 83.0247 364.967 85.0749 366.924C87.1251 368.88 89.5406 370.413 92.1834 371.436C94.8262 372.459 97.6446 372.951 100.478 372.885C103.311 372.819 106.103 372.195 108.695 371.049C111.287 369.904 113.628 368.259 115.584 366.209C117.541 364.159 119.074 361.743 120.097 359.1C121.12 356.458 121.612 353.639 121.546 350.806L121.447 350.88Z" fill="#013EA5"/>
<path d="M172.458 348.242L159.884 215.842C157.221 201.468 139.346 188.722 118.167 196.266C99.0594 203.096 96.8405 224.053 102.067 242.52C107.294 260.986 130.248 357.34 130.248 357.34C131.587 362.802 135.002 367.527 139.77 370.51C144.537 373.493 150.28 374.499 155.777 373.314C161.274 372.129 166.093 368.846 169.208 364.165C172.323 359.483 173.489 353.77 172.458 348.242Z" fill="#013EA5"/>
<path d="M102.068 242.52C107.27 260.987 130.249 357.34 130.249 357.34" stroke="#E9E9E9" stroke-width="0.75" stroke-miterlimit="10"/>
<path d="M105.766 69.9565C105.766 69.9565 94.8685 71.8549 92.7481 72.422C91.4968 72.7156 90.3405 73.3221 89.3875 74.1846C88.4345 75.047 87.716 76.1372 87.2993 77.3531C85.9433 80.5829 78.9658 101.737 78.3248 104.03C77.8913 106.556 78.2984 109.154 79.4836 111.427C80.4945 114.188 85.7214 126.762 85.7214 126.762L86.5103 167.271L115.947 171.94L144.155 167.271C144.155 167.271 154.017 91.9244 154.51 87.2646C155.003 82.6047 152.685 73.6055 147.113 72.4714C141.541 71.3372 126.255 70.0058 126.255 70.0058L105.766 69.9565Z" fill="#FBBEAA"/>
<path d="M85.1281 150.983V165.225C104.409 167 135.13 165.743 146.669 165.225C147.212 161.157 147.779 154.253 148.37 149.667C132.665 150.062 106.726 151.526 85.1281 150.983Z" fill="white"/>
<path d="M186.808 163.647L155.225 80.5337C151.009 71.6578 144.771 71.066 137.966 73.5316C134.819 74.7871 132.244 77.1581 130.734 80.1916C129.224 83.2252 128.885 86.7087 129.781 89.9767L162.301 171.611C163.287 174.716 165.437 177.319 168.301 178.873C171.166 180.427 174.52 180.811 177.661 179.944L178.13 179.821C179.787 179.369 181.334 178.584 182.678 177.514C184.021 176.445 185.133 175.112 185.945 173.599C186.757 172.086 187.253 170.423 187.401 168.712C187.549 167.001 187.348 165.277 186.808 163.647Z" fill="#FBBEAA"/>
<path d="M105.471 65.3276C104.856 65.3276 103.549 65.3276 102.395 65.7121C102.395 66.6347 104.446 67.3779 105.471 67.6342C105.727 66.8653 106.086 65.3276 105.471 65.3276Z" fill="#013FA9"/>
<path d="M173.717 129.179L155.225 80.5336C154.729 79.4668 154.144 78.4441 153.475 77.4763C151.21 76.0582 148.617 75.2494 145.947 75.1285C143.277 75.0075 140.622 75.5785 138.238 76.786C135.469 78.1331 133.244 80.3853 131.93 83.1697C130.617 85.9541 130.293 89.1037 131.014 92.097C131.014 92.3928 131.186 92.9599 131.334 93.7242L150.417 141.679C158.753 138.673 166.603 134.461 173.717 129.179Z" fill="#F18380"/>
<path d="M152.755 74.9381C158.137 81.8579 189.275 166.431 189.275 166.431C160.443 157.205 159.93 165.265 147.468 134.908C147.468 134.908 129.386 92.4671 128.695 88.6702C127.975 85.6769 128.298 82.5274 129.612 79.743C130.926 76.9586 133.151 74.7064 135.919 73.3592C143.637 69.4144 147.373 68.0183 152.755 74.9381Z" fill="#0045BA"/>
<path d="M104.952 67.0231C111.905 70.3269 122.039 67.3683 126.945 58.2952V49.5918H104.952V67.0231Z" fill="#F18380"/>
<path d="M100.439 69.9407C94.7401 71.0243 92.1646 71.1538 90.7176 72.108C88.4283 73.644 76.6389 94.4568 76.6389 103.848C76.6389 112.156 78.6502 178.62 80.3262 179.703C82.0022 180.787 112.006 182.192 112.006 182.192V88.0777C108.961 78.6523 102.598 76.0381 100.439 69.9407Z" fill="#0045BA"/>
<path d="M90.7176 72.108C92.1646 71.1538 97.85 70.2555 103.549 69.1718C105.708 75.2693 108.961 78.6523 112.006 88.0777V103.848H76.6389C76.6389 94.4568 88.4283 73.644 90.7176 72.108Z" fill="#9A99A1"/>
<path d="M112.39 66.8653C119.464 66.8653 125.845 63.7899 128.152 62.2522V69.1719C127.895 69.5563 125.922 70.7864 120.079 72.6317C114.236 74.4769 105.855 73.7849 102.395 72.6317V65.7121C102.395 66.0965 103.549 66.8653 112.39 66.8653Z" fill="#034CC9"/>
<path d="M76.6501 105.308H112.006V97.6192L77.6554 97.955C76.9852 100.598 76.5637 102.485 76.6501 105.308Z" fill="#D3D4D2"/>
<path d="M157.284 175.381C157.284 167.685 156.37 146.45 146.709 127.127C145.528 124.076 132.719 89.2348 145.684 74.6068C149.993 69.7457 153.78 76.7796 152.644 74.968C151.508 73.1563 150.249 71.3782 148.394 70.5254C145.084 68.9197 137.73 69.1888 131.102 69.1888C123.148 78.9412 114.91 81.1122 112.006 88.0937V182.158C112.006 182.158 157.284 183.078 157.284 175.381Z" fill="#034CC9"/>
<path d="M157.284 175.381C157.284 167.685 156.37 146.45 146.709 127.127C145.528 124.076 132.719 89.2348 145.684 74.6068C149.993 69.7457 153.78 76.7796 152.644 74.968C151.508 73.1563 150.249 71.3782 148.394 70.5254C145.084 68.9197 137.73 69.1888 131.102 69.1888C123.148 78.9412 114.91 81.1122 112.006 88.0937V182.158C112.006 182.158 157.284 183.078 157.284 175.381Z" fill="#034CC9"/>
<path d="M152.755 74.9383C153.891 76.7499 149.993 69.7456 145.685 74.6067C140.238 80.7515 139.368 92.0593 140.632 103.001H112.006L112.006 73.785C119.695 73.0161 123.539 71.8628 128.152 69.1719C134.78 69.1719 145.217 68.7194 148.527 70.3251C150.382 71.1779 151.619 73.1266 152.755 74.9383Z" fill="#A2A0AB"/>
<path d="M112.006 182.192C110.041 181.533 108.322 180.263 107.084 178.556C105.845 176.85 105.147 174.789 105.086 172.657V67.2497H112.006V182.192Z" fill="#034CC9"/>
<path d="M140.211 97.6336H112.028V105.77H140.933C140.56 102.108 140.211 100.481 140.211 97.6336Z" fill="#CFD1CE"/>
<g style="mix-blend-mode:multiply" opacity="0.4">
<path d="M112.775 73.6274L112.006 73.7849V182.192H112.775V73.6274Z" fill="#013FA9"/>
</g>
<path d="M127.217 10.9066C128.523 7.75071 135.106 6.34537 138.805 8.07125C142.503 9.79712 146.201 14.3337 146.744 26.6613C147.286 38.989 146.275 48.4074 148.494 54.6205C146.443 54.3612 144.514 53.5037 142.947 52.155C142.947 53.7822 142.7 57.7271 142.7 57.7271C141.507 57.6301 140.366 57.193 139.414 56.4676C138.461 55.7422 137.736 54.759 137.325 53.6343C136.656 55.0572 136.231 56.5825 136.068 58.1463C133.898 57.0121 127.217 55.0397 127.217 43.3531V10.9066Z" fill="#1D1B24"/>
<path d="M84.2423 51.8595C84.908 42.9096 87.5461 28.1164 87.5461 28.1164L93.8579 27.7713C93.8579 27.7713 95.5344 54.4237 96.0029 60.2423C96.4713 66.061 98.1479 67.639 98.1479 67.639C98.1479 67.639 90.1349 66.5295 88.8775 59.0096C88.6931 60.4819 88.5944 61.9638 88.5816 63.4476C88.5816 63.4476 83.5519 60.8094 84.2423 51.8595Z" fill="#302D3B"/>
<path d="M91.2199 33.5407C91.1152 38.5474 91.3459 43.5554 91.9102 48.5312C92.7978 55.6566 95.3127 63.5464 107.912 63.5464C120.511 63.5464 126.896 57.8509 129.608 48.5312C131.236 42.9098 134.539 34.5762 133.183 24.9607C131.827 15.3451 126.033 9.058 112.35 8.68817C98.6658 8.31834 89.7899 14.4328 91.2199 33.5407Z" fill="#FBBEAA"/>
<path d="M117.872 37.8059C117.789 38.1764 117.603 38.5159 117.335 38.7856C117.068 39.0552 116.73 39.2441 116.36 39.3305C115.99 39.417 115.604 39.3976 115.244 39.2745C114.885 39.1514 114.568 38.9296 114.329 38.6345C114.09 38.3394 113.939 37.9829 113.893 37.6059C113.847 37.2289 113.908 36.8466 114.07 36.5029C114.231 36.1591 114.486 35.8677 114.805 35.6621C115.125 35.4565 115.495 35.345 115.875 35.3404C116.169 35.3679 116.455 35.454 116.716 35.5936C116.976 35.7331 117.206 35.9233 117.392 36.153C117.578 36.3826 117.717 36.6471 117.799 36.931C117.882 37.2148 117.906 37.5123 117.872 37.8059Z" fill="#403D4F"/>
<path d="M99.5285 37.8059C99.4449 38.1774 99.2581 38.5178 98.9896 38.7878C98.721 39.0578 98.3817 39.2465 98.0106 39.3321C97.6395 39.4177 97.2517 39.3967 96.892 39.2716C96.5323 39.1465 96.2153 38.9224 95.9774 38.6251C95.7395 38.3277 95.5905 37.9692 95.5474 37.5908C95.5043 37.2124 95.5689 36.8295 95.7339 36.4863C95.8989 36.1431 96.1575 35.8534 96.4799 35.6507C96.8022 35.4479 97.1753 35.3404 97.5561 35.3404C97.8482 35.371 98.1313 35.4593 98.3891 35.6002C98.6468 35.7411 98.874 35.9317 99.0574 36.161C99.2409 36.3904 99.377 36.6539 99.4579 36.9362C99.5387 37.2186 99.5628 37.5142 99.5285 37.8059Z" fill="#403D4F"/>
<path d="M111.906 30.8288L112.103 30.6069C112.31 30.4301 112.533 30.2733 112.769 30.1385C113.075 29.9503 113.407 29.8091 113.755 29.7194C114.142 29.5736 114.55 29.4903 114.963 29.4728C115.356 29.4235 115.754 29.4235 116.146 29.4728C116.491 29.4428 116.837 29.4428 117.182 29.4728L118.144 29.744C118.277 29.7972 118.388 29.8936 118.46 30.0175C118.532 30.1415 118.56 30.2861 118.54 30.428C118.52 30.5699 118.453 30.701 118.35 30.8005C118.247 30.9 118.114 30.962 117.971 30.9767H116.985C116.698 30.9396 116.408 30.9396 116.122 30.9767C115.802 30.9523 115.48 30.9523 115.16 30.9767C114.845 31.0179 114.532 31.0755 114.223 31.1493C113.928 31.1493 113.681 31.3466 113.434 31.3712C113.26 31.4483 113.079 31.5062 112.892 31.5438H112.695C112.537 31.6118 112.36 31.6165 112.199 31.5568C112.038 31.4971 111.907 31.3776 111.832 31.2233C111.795 31.1376 111.776 31.0453 111.776 30.9521C111.776 30.8589 111.795 30.7666 111.832 30.6809L111.906 30.8288Z" fill="#403D4F"/>
<path d="M99.9232 31.7652H99.7506L99.3808 31.6173H99.1096C99.0178 31.5614 98.918 31.5199 98.8137 31.494C98.6042 31.4222 98.39 31.3645 98.1727 31.3214C97.9356 31.2867 97.6947 31.2867 97.4576 31.3214C97.2529 31.2978 97.046 31.2978 96.8413 31.3214H96.0523C95.8866 31.315 95.7298 31.2446 95.6149 31.1251C95.4999 31.0056 95.4358 30.8462 95.436 30.6803C95.434 30.5564 95.471 30.435 95.5418 30.3333C95.6126 30.2315 95.7135 30.1545 95.8304 30.1132L96.5948 29.8421C96.8646 29.7485 97.1475 29.6986 97.433 29.6941C97.7672 29.6331 98.1097 29.6331 98.4439 29.6941C99.0902 29.7643 99.7046 30.0117 100.219 30.4092C100.393 30.5461 100.551 30.7034 100.687 30.8776C100.811 31.0256 100.811 31.0748 100.811 31.0748V31.3214C100.832 31.4879 100.787 31.656 100.686 31.7896C100.584 31.9233 100.434 32.012 100.268 32.0364C100.194 32.0193 100.125 31.9861 100.066 31.9392C100.006 31.8924 99.9573 31.8329 99.9232 31.7652Z" fill="#403D4F"/>
<path d="M104.953 46.1888C104.536 46.1923 104.123 46.1085 103.741 45.9429C103.359 45.7773 103.016 45.5335 102.734 45.2272C102.63 45.12 102.55 44.9922 102.499 44.852C102.448 44.7118 102.427 44.5624 102.438 44.4136C102.438 44.1424 102.857 40.7399 103.005 39.4825C103.023 39.356 103.09 39.2415 103.191 39.1633C103.293 39.0851 103.42 39.0492 103.547 39.0633C103.669 39.0816 103.78 39.1449 103.857 39.2408C103.935 39.3366 103.974 39.4581 103.966 39.5812C103.966 39.7784 103.424 44.241 103.375 44.5122C103.577 44.7357 103.824 44.913 104.101 45.0321C104.377 45.1512 104.676 45.2094 104.977 45.2026C105.038 45.2025 105.097 45.2147 105.153 45.2386C105.209 45.2624 105.259 45.2972 105.3 45.3411C105.342 45.385 105.374 45.4369 105.395 45.4936C105.415 45.5503 105.424 45.6107 105.421 45.671C105.432 45.7373 105.429 45.8053 105.41 45.8699C105.391 45.9345 105.358 45.9939 105.313 46.0438C105.268 46.0937 105.212 46.1327 105.149 46.1578C105.087 46.1829 105.02 46.1935 104.953 46.1888Z" fill="#F18380"/>
<path d="M94.6964 9.74833C97.7784 5.70485 107.493 0.354596 121.152 4.61997C134.811 8.88535 137.893 19.3886 137.942 27.9193C138.136 32.5279 137.178 37.1122 135.156 41.2579H131.31C125.195 39.3841 121.053 32.6531 118.587 28.2152C118.948 30.2916 119.006 32.4093 118.76 34.5023C115.241 33.7341 111.959 32.127 109.194 29.8178C109.855 31.6246 110.342 33.4905 110.648 35.3899C107.486 34.652 104.591 33.0514 102.284 30.7663C99.9769 28.4811 98.349 25.6009 97.5811 22.4458C94.7901 26.0228 92.6304 30.0502 91.1954 34.3543C89.1521 33.4028 87.3938 31.9324 86.096 30.0895C84.7982 28.2466 87.9294 24.6903 87.722 22.4458C87.5741 16.3066 89.7654 11.3756 94.6964 9.74833Z" fill="#302D3B"/>
<path d="M129.115 42.762C129.312 39.4088 130.2 35.3654 134.293 36.0804C139.076 36.7954 139.544 49.7395 129.361 48.1862L129.115 42.762Z" fill="#FBBEAA"/>
<path d="M134.687 43.6252C134.601 43.6264 134.517 43.6041 134.443 43.5606C134.369 43.5171 134.308 43.4542 134.268 43.3787C134.163 43.1622 134.003 42.9774 133.804 42.8431C133.605 42.7088 133.373 42.6298 133.134 42.6144C132.852 42.6172 132.576 42.6911 132.33 42.8289C132.084 42.9668 131.877 43.1644 131.728 43.4033C131.673 43.4921 131.589 43.5597 131.491 43.5954C131.393 43.6312 131.285 43.633 131.186 43.6006C131.087 43.5637 131.002 43.4958 130.944 43.407C130.886 43.3182 130.859 43.2132 130.865 43.1075C130.902 42.0659 131.226 41.0545 131.8 40.1846C132.374 39.3147 133.177 38.6199 134.12 38.1764C134.238 38.1374 134.366 38.1465 134.477 38.202C134.588 38.2575 134.672 38.3547 134.712 38.4723C134.751 38.59 134.741 38.7184 134.686 38.8293C134.631 38.9402 134.533 39.0246 134.416 39.064C133.862 39.3333 133.368 39.7127 132.965 40.179C132.563 40.6453 132.259 41.1887 132.073 41.7761C132.425 41.6296 132.802 41.5542 133.183 41.5542C133.582 41.5919 133.965 41.7261 134.3 41.9452C134.635 42.1642 134.912 42.4617 135.106 42.8116C135.136 42.8665 135.155 42.9268 135.161 42.989C135.167 43.0512 135.161 43.114 135.143 43.1737C135.124 43.2334 135.094 43.2889 135.054 43.3368C135.014 43.3847 134.964 43.4241 134.909 43.4526L134.687 43.6252Z" fill="#F18380"/>
<path d="M134.071 51.1445C132.887 42.2439 129.485 27.5986 129.485 27.5986H123.148C123.148 27.5986 122.902 54.3004 122.729 60.1437C122.556 65.987 121.003 67.7375 121.003 67.7375C121.003 67.7375 128.942 66.2089 129.805 58.6151C130.07 60.0822 130.243 61.5644 130.323 63.053C130.323 63.053 135.229 60.0451 134.071 51.1445Z" fill="#302D3B"/>
<path d="M112.266 157.96L171.045 179.778C178.334 182.888 185.727 181.8 188.67 173.318C189.207 171.738 189.418 170.064 189.289 168.4C189.16 166.735 188.694 165.114 187.92 163.635C187.145 162.156 186.079 160.849 184.784 159.795C183.49 158.74 181.995 157.96 180.39 157.5L115.762 141.563C109.761 139.55 105.115 141.437 103.62 145.951C101.861 151.513 104.634 155.141 112.266 157.96Z" fill="#FBBEAA"/>
<g filter="url(#filter0_d_1_176)">
<rect width="41.6253" height="59.316" rx="1" transform="matrix(-0.993463 -0.114154 -0.114154 0.993463 133.054 113.252)" fill="#EFEFEF"/>
</g>
<path d="M113.51 139.836C110.615 138.613 107.997 136.801 105.823 134.513C104.478 133.101 102.952 131.875 101.286 130.869C100.309 130.258 99.4659 129.452 98.8096 128.502C97.9425 127.028 97.2248 125.471 96.6677 123.855C96.4612 122.464 95.988 121.123 95.2743 119.908C94.5958 119.286 92.2009 119.618 90.9577 122.035C90.5292 123.111 90.335 124.27 90.3882 125.433C90.4414 126.597 90.7409 127.738 91.2664 128.782C91.885 130.033 92.3696 131.346 92.7118 132.698L92.486 132.833C90.5918 131.827 88.5676 131.098 86.475 130.667C85.716 130.497 84.9254 130.589 84.2305 130.927C83.5357 131.265 82.9771 131.831 82.6446 132.532C82.3122 133.233 82.2254 134.029 82.3982 134.792C82.5709 135.555 82.9932 136.24 83.597 136.738C80.3315 137.113 80.7022 142.149 83.5056 142.815C82.9053 143.067 82.3986 143.5 82.0539 144.054C81.7093 144.608 81.5433 145.258 81.5785 145.914C81.6137 146.571 81.8484 147.204 82.2508 147.726C82.6532 148.249 83.2038 148.636 83.8284 148.837C81.8372 150.672 83.2927 153.698 86.9082 153.711C89.8458 154.01 97.7023 155.24 100.436 155.828C103.169 156.417 108.663 155.115 110.428 155.661C113.055 156.624 116.106 156.64 118.434 149.727C120.761 142.814 116.213 140.729 113.51 139.836Z" fill="#FBBEAA"/>
<path d="M109.079 158.655L160.947 178.492C160.947 178.492 179.072 185.376 185.863 179.503C187.119 178.403 187.835 176.876 188.521 174.927C189.202 172.991 189.246 171.4 189.315 169.732C189.385 168.064 189.114 166.399 188.521 164.838C187.928 163.278 188.606 164.248 185.863 160.18C183.12 156.112 116.707 139.331 116.707 139.331L109.079 158.655Z" fill="#0045BA"/>
<path d="M23.2203 53.2651C24.1572 53.2651 24.2312 52.6734 24.6503 51.5885C22.5546 51.5885 16.4647 51.983 13.802 57.1113C16.4894 53.413 21.6424 53.2651 23.2203 53.2651ZM18.4372 33.7627C18.4372 33.7627 18.5851 34.6257 18.733 35.8831C18.733 36.5241 18.881 37.2884 18.9303 38.0774C18.9796 38.8663 19.0536 39.7293 19.1275 40.5429C19.1275 42.2688 19.2508 43.97 19.2508 45.2521C19.2508 46.5342 19.2508 47.3971 19.2508 47.3971C19.2509 47.4381 19.2426 47.4788 19.2262 47.5164C19.2098 47.554 19.1857 47.5877 19.1556 47.6155C19.1254 47.6434 19.0899 47.6646 19.0511 47.678C19.0123 47.6913 18.9712 47.6964 18.9303 47.693C18.8609 47.6895 18.7945 47.6635 18.7412 47.6191C18.6878 47.5746 18.6503 47.5141 18.6344 47.4465C18.6344 47.4465 18.4865 46.5835 18.3632 45.3014C18.2399 44.0193 18.0427 42.3181 17.9687 40.6169C17.9687 39.7539 17.9687 38.891 17.9687 38.1513C17.9687 37.4117 17.9687 36.5981 17.9687 35.9571C17.9687 34.6503 17.9687 33.812 17.9687 33.812C17.9686 33.771 17.9769 33.7304 17.9933 33.6928C18.0097 33.6552 18.0338 33.6214 18.0639 33.5935C18.094 33.5657 18.1296 33.5445 18.1684 33.5312C18.2072 33.5178 18.2484 33.5127 18.2892 33.5161C18.3365 33.5433 18.3753 33.5831 18.4014 33.6309C18.4275 33.6788 18.4399 33.7329 18.4372 33.7874V33.7627ZM12.7171 35.4886C12.7171 35.4886 12.8651 36.2282 13.0376 37.3131C13.0376 37.8801 13.2102 38.5212 13.2842 39.2115C13.3582 39.9019 13.4321 40.6415 13.5061 41.3812C13.5061 42.8605 13.6787 44.3398 13.7033 45.4493C13.728 46.5588 13.7033 47.3231 13.7033 47.3231C13.7002 47.362 13.6895 47.3999 13.6716 47.4346C13.6538 47.4694 13.6293 47.5003 13.5996 47.5255C13.5698 47.5507 13.5352 47.5698 13.4981 47.5816C13.4609 47.5934 13.4217 47.5978 13.3829 47.5944C13.3165 47.5897 13.2537 47.5629 13.2045 47.5182C13.1553 47.4734 13.1225 47.4134 13.1116 47.3478C13.1116 47.3478 12.9637 46.6081 12.7911 45.5233C12.6185 44.4384 12.4706 42.9345 12.3473 41.4798C12.3473 40.7402 12.3473 40.0005 12.1994 39.3101C12.0514 38.6198 12.1994 37.9541 12.1994 37.387C12.1994 36.2775 12.1994 35.5379 12.1994 35.5379C12.1992 35.4969 12.2076 35.4563 12.224 35.4187C12.2404 35.3811 12.2644 35.3473 12.2946 35.3194C12.3247 35.2916 12.3603 35.2704 12.3991 35.2571C12.4379 35.2437 12.479 35.2386 12.5199 35.242C12.5746 35.2646 12.622 35.3019 12.6568 35.3498C12.6916 35.3976 12.7125 35.4542 12.7171 35.5132V35.4886ZM7.19434 37.8308C7.19434 37.8308 7.34223 38.4472 7.53947 39.3841C7.53947 39.8279 7.73675 40.3704 7.81072 40.9621C7.88469 41.5538 7.98327 42.1702 8.08189 42.7866C8.25448 44.044 8.32851 45.2521 8.37782 46.2383C8.42713 47.2245 8.37782 47.8163 8.37782 47.8163C8.37796 47.8573 8.36953 47.8979 8.35314 47.9355C8.33676 47.9731 8.3127 48.0069 8.28256 48.0347C8.25242 48.0625 8.21684 48.0837 8.17805 48.0971C8.13926 48.1104 8.09817 48.1155 8.05729 48.1121C7.99434 48.1089 7.93407 48.0855 7.88529 48.0456C7.8365 48.0057 7.80171 47.9513 7.78604 47.8902C7.78604 47.8902 7.61349 47.2739 7.4409 46.3616C7.26832 45.4494 7.02174 44.1673 6.8738 42.9345C6.8738 42.2934 6.75051 41.6771 6.7012 41.0853C6.65189 40.4936 6.7012 39.9512 6.7012 39.4827C6.7012 38.5458 6.7012 37.9048 6.7012 37.9048C6.70106 37.8638 6.70949 37.8232 6.72588 37.7856C6.74226 37.748 6.76624 37.7142 6.79638 37.6863C6.82652 37.6585 6.86217 37.6373 6.90097 37.624C6.93976 37.6106 6.98086 37.6055 7.02173 37.6089C7.06725 37.6343 7.10643 37.6697 7.13632 37.7124C7.16622 37.7551 7.18605 37.804 7.19434 37.8555V37.8308Z" fill="#F18380"/>
<path d="M106.973 52.3618C109.353 52.27 111.638 51.4044 113.482 49.8963" stroke="#73102A" stroke-width="0.5" stroke-miterlimit="10" stroke-linecap="round"/>
<path d="M185.046 432.836L182.74 417.844H135.84L137.378 433.221L185.046 432.836Z" fill="#CFD1CE"/>
<path d="M123.154 432.836L122.77 417.844H76.639L76.2546 433.221L123.154 432.836Z" fill="#CFD1CE"/>
<path d="M155.313 149.445L144.675 146.959L138.064 169.842L148.234 173.91L155.313 149.445Z" fill="#CFD1CE"/>
<path d="M30.8928 108.383L29.7396 99.1569L5.13644 101.079L5.52087 110.305L30.8928 108.383Z" fill="#CFD1CE"/>
<path d="M117.682 27.3144C118.733 30.4679 120.37 33.3941 122.508 35.939H127.74C127.74 35.939 131.795 31.231 132.099 30.8454C132.539 30.3764 132.873 29.8186 133.08 29.2096C133.286 28.6005 133.36 27.9543 133.296 27.3144H117.682Z" fill="#676575"/>
<path d="M122.508 35.939C122.508 46.0856 125.86 60.5125 110.096 63.5636C110.096 63.5636 120.196 63.0303 124.069 58.0585C127.942 53.0867 127.739 35.8578 127.739 35.8578L122.508 35.939Z" fill="#827F94"/>
<path d="M137.047 28.6132H85.8649C85.4753 23.9862 85.9148 19.3268 87.1627 14.8545C89.1906 9.05065 93.2462 1.94806 110.219 1.94806C127.192 1.94806 133.133 9.90296 134.33 15.93C135.526 21.9571 134.958 23.9255 135.668 24.5749C136.378 25.2243 137.047 25.2446 137.047 26.2186V28.6132Z" fill="#EFEFEF"/>
<path d="M110.219 1.94818C106.518 1.8809 102.825 2.33171 99.2487 3.28752H99.0865L98.4578 3.49045C96.7444 4.01844 95.1131 4.78345 93.6113 5.76328C92.5915 9.97165 92.3238 14.3274 92.8205 18.6291H98.4578L105.961 17.3506C105.961 17.3506 108.333 5.17478 116.769 2.33374C114.598 2.04857 112.409 1.91972 110.219 1.94818Z" fill="#D8D8D8"/>
<path d="M111.396 0H99.9384C98.7217 0 92.8207 4.58624 92.8207 20.2931H105.86C105.86 15.6663 106.671 3.5513 113.971 2.02931C113.951 2.0699 112.856 0 111.396 0Z" fill="#EFEFEF"/>
<path d="M77.6929 28.6131V25.6504C77.6944 25.2257 77.7835 24.8059 77.9546 24.4172C78.1257 24.0286 78.3752 23.6795 78.6874 23.3918C78.9996 23.1042 79.3678 22.8841 79.7689 22.7455C80.17 22.6068 80.5955 22.5526 81.0185 22.5861H87.5684C87.9447 22.6037 88.3205 22.5403 88.6703 22.4003C89.0201 22.2603 89.3358 22.0468 89.5962 21.7744C90.0221 21.2873 92.9218 18.5681 93.2666 18.1622C93.5035 17.8523 93.8113 17.6038 94.1643 17.4378C94.5172 17.2719 94.9047 17.1932 95.2944 17.2084H104.825C105.214 17.1965 105.601 17.2767 105.953 17.4424C106.305 17.6081 106.614 17.8547 106.853 18.1622C107.198 18.5681 110.097 21.2873 110.523 21.7744C110.783 22.0479 111.099 22.262 111.449 22.4022C111.799 22.5423 112.175 22.605 112.551 22.5861H118.006C118.429 22.5526 118.854 22.6068 119.256 22.7455C119.657 22.8841 120.025 23.1042 120.337 23.3918C120.649 23.6795 120.899 24.0286 121.07 24.4172C121.241 24.8059 121.33 25.2257 121.332 25.6504V28.6131H77.6929Z" fill="#D8D8D8"/>
<path d="M122.162 87.1418L122.904 87.1494L122.894 88.0757L123.686 88.0838L123.695 87.1575L124.437 87.1651L124.411 89.6959L123.669 89.6883L123.68 88.6861L122.888 88.6779L122.877 89.6801L122.136 89.6725L122.162 87.1418L122.162 87.1418ZM127.085 87.1924L127.059 89.7231L126.342 89.7157L126.362 87.7849L125.892 87.78L125.884 88.5064C125.881 88.8328 125.852 89.2325 125.652 89.4557C125.452 89.7042 125.08 89.7763 124.661 89.6961L124.667 89.0686C125.061 89.1486 125.163 88.9978 125.168 88.4968L125.181 87.1682L127.085 87.1877L127.085 87.1924ZM127.704 87.1987L128.446 87.2064L128.85 88.7139L129.285 87.215L130.027 87.2226L130.348 89.7569L129.656 89.7498L129.498 88.3942L129.087 89.7438L128.592 89.7388L128.211 88.3809L128.025 89.7329L127.333 89.7258L127.704 87.1986L127.704 87.1987ZM130.646 87.229L131.388 87.2366L131.378 88.2641L132.105 87.244L132.922 87.2524L131.97 88.4954L132.921 89.7834L132.032 89.7742L131.375 88.7399L131.364 89.7674L130.623 89.7598L130.649 87.229L130.646 87.229L130.646 87.229ZM127.482 84.4884C123.031 84.4426 120.07 86.0421 120.045 88.4464C120.021 90.8276 122.946 92.5107 127.399 92.5564C131.875 92.6024 134.812 90.9774 134.836 88.5984C134.861 86.1942 131.96 84.5344 127.482 84.4884ZM127.403 92.1817C123.222 92.1388 120.445 90.6321 120.467 88.4507C120.49 86.2464 123.3 84.8201 127.478 84.8631C131.682 84.9063 134.439 86.3875 134.417 88.5941C134.394 90.7755 131.609 92.225 127.403 92.1817ZM127.475 85.2147C123.543 85.1743 120.907 86.476 120.887 88.455C120.866 90.4341 123.475 91.7897 127.407 91.8301C131.338 91.8705 133.974 90.5688 133.995 88.5898C134.017 86.6108 131.409 85.2552 127.475 85.2147ZM127.407 91.7565C123.524 91.7166 120.942 90.3867 120.962 88.4581C120.981 86.5296 123.592 85.253 127.474 85.2929C131.356 85.3328 133.94 86.6628 133.92 88.5913C133.902 90.5199 131.291 91.7966 127.407 91.7566L127.407 91.7565Z" fill="white"/>
<defs>
<filter id="filter0_d_1_176" x="85.0372" y="108.608" width="49.9093" height="63.465" filterUnits="userSpaceOnUse" color-interpolation-filters="sRGB">
<feFlood flood-opacity="0" result="BackgroundImageFix"/>
<feColorMatrix in="SourceAlpha" type="matrix" values="0 0 0 0 0 0 0 0 0 0 0 0 0 0 0 0 0 0 127 0" result="hardAlpha"/>
<feOffset dx="2"/>
<feComposite in2="hardAlpha" operator="out"/>
<feColorMatrix type="matrix" values="0 0 0 0 0.603922 0 0 0 0 0.6 0 0 0 0 0.631373 0 0 0 1 0"/>
<feBlend mode="normal" in2="BackgroundImageFix" result="effect1_dropShadow_1_176"/>
<feBlend mode="normal" in="SourceGraphic" in2="effect1_dropShadow_1_176" result="shape"/>
</filter>
</defs>
</svg>
