<svg width="191" height="517" viewBox="0 0 191 517" fill="none" xmlns="http://www.w3.org/2000/svg">
    <path d="M87.5478 75.2346C88.1526 75.2346 89.4377 75.2346 90.5717 75.6126C90.5717 76.5198 88.5558 77.2505 87.5478 77.5025C87.2958 76.7466 86.943 75.2346 87.5478 75.2346Z" fill="#013FA9"/>
    <path d="M55.5 26.5C54.0181 32.1697 50.0969 35.2982 49.8354 41.1525C49.5245 46.0251 47.9126 50.7252 45.1675 54.763C42.545 58.1459 39.1096 61.66 40.3684 72.1497H107.529C107.529 72.1497 110.151 66.9048 107.004 57.9099C103.298 46.8053 100.569 35.398 98.8487 23.8182L55.5 26.5Z" fill="#BC664A"/>
    <path d="M65.3081 54.7631V77.0276C65.3081 77.0276 67.0651 84.7113 78.8399 84.7113C81.1775 84.9084 83.5019 84.203 85.3357 82.7399C87.1695 81.2768 88.3734 79.167 88.7003 76.844V54.7631H65.3081Z" fill="#FBBEAA"/>
    <path d="M88.7003 73.4086C81.305 76.8964 70.5268 73.7757 65.3081 64.099V54.7631H88.7003V73.4086Z" fill="#F18380"/>
    <path d="M103.307 37.7432C103.419 43.0765 103.182 48.4114 102.599 53.7138C101.628 61.2665 98.9535 69.6583 85.5529 69.6583C72.1523 69.6583 65.3602 63.6267 62.4755 53.7138C60.7447 47.7085 57.2306 38.8709 58.6729 28.6171C60.1153 18.3634 66.278 11.7024 80.8325 11.3091C95.3871 10.9157 104.907 17.4718 103.307 37.7432Z" fill="#FBBEAA"/>
    <path d="M74.9845 42.3065C75.0778 42.6927 75.2774 43.045 75.5609 43.3234C75.8443 43.6018 76.2003 43.7952 76.5881 43.8814C76.9759 43.9677 77.3801 43.9435 77.7548 43.8115C78.1296 43.6796 78.4599 43.4452 78.7081 43.1349C78.9563 42.8247 79.1125 42.451 79.159 42.0565C79.2055 41.6619 79.1403 41.2622 78.971 40.9027C78.8017 40.5433 78.5349 40.2386 78.2011 40.0232C77.8673 39.8077 77.4798 39.6902 77.0825 39.6841C76.7704 39.7132 76.4674 39.8048 76.1915 39.9536C75.9157 40.1024 75.6726 40.3052 75.4768 40.5499C75.281 40.7947 75.1365 41.0763 75.0519 41.3781C74.9673 41.6799 74.9444 41.9956 74.9845 42.3065Z" fill="#403D4F"/>
    <path d="M94.4165 42.3065C94.5097 42.6927 94.7094 43.045 94.9929 43.3234C95.2763 43.6018 95.6321 43.7952 96.02 43.8814C96.4078 43.9677 96.8121 43.9435 97.1868 43.8115C97.5616 43.6796 97.8919 43.4452 98.1401 43.1349C98.3882 42.8247 98.5445 42.451 98.5909 42.0565C98.6374 41.6619 98.5723 41.2622 98.403 40.9027C98.2336 40.5433 97.9669 40.2386 97.6331 40.0232C97.2992 39.8077 96.9117 39.6902 96.5144 39.6841C96.2037 39.7166 95.9026 39.8106 95.6285 39.9604C95.3543 40.1103 95.1127 40.313 94.9175 40.557C94.7224 40.8009 94.5776 41.0812 94.4916 41.3815C94.4056 41.6818 94.3801 41.9962 94.4165 42.3065Z" fill="#403D4F"/>
    <path d="M81.3045 34.8852C81.3045 34.8852 81.3045 34.8853 81.0947 34.6755C80.8832 34.4698 80.645 34.2934 80.3866 34.151C80.0557 33.9617 79.7036 33.812 79.3377 33.7052C78.4845 33.4709 77.5979 33.3822 76.7152 33.4429C76.3441 33.462 75.9754 33.5147 75.6138 33.6003L74.5911 33.8887C74.4222 33.9431 74.2811 34.0612 74.1979 34.2179C74.1146 34.3746 74.0957 34.5575 74.1452 34.7279C74.1885 34.862 74.2723 34.9793 74.385 35.0639C74.4977 35.1484 74.6338 35.1959 74.7747 35.1999H76.7415C77.0819 35.1741 77.4238 35.1741 77.7642 35.1999C78.1012 35.231 78.4348 35.2924 78.7607 35.3835C79.1016 35.3835 79.3377 35.5671 79.5999 35.5933C79.7863 35.6717 79.9794 35.7332 80.1769 35.7769H80.4129C80.5765 35.8481 80.7616 35.8522 80.9283 35.7885C81.095 35.7247 81.2301 35.5982 81.3045 35.436C81.3434 35.3448 81.3636 35.2467 81.3636 35.1475C81.3636 35.0483 81.3434 34.9502 81.3045 34.859V34.8852Z" fill="#403D4F"/>
    <path d="M94.0756 35.8815C94.0756 35.8815 94.0756 35.8815 94.233 35.8815L94.6263 35.7242H94.9148C95.0185 35.7014 95.1258 35.7014 95.2295 35.7242C95.4613 35.6476 95.6978 35.5863 95.9375 35.5406C96.1815 35.5133 96.4278 35.5133 96.6718 35.5406H98.1666C98.255 35.5407 98.3425 35.5229 98.4238 35.4883C98.5051 35.4537 98.5785 35.4031 98.6398 35.3394C98.701 35.2757 98.7487 35.2003 98.7801 35.1177C98.8114 35.0351 98.8258 34.947 98.8222 34.8588C98.8172 34.7287 98.775 34.6027 98.7007 34.4958C98.6263 34.389 98.5229 34.3056 98.4026 34.2556L97.5897 33.9671C97.2996 33.8803 97.0004 33.8275 96.6981 33.8098C96.3416 33.7578 95.9794 33.7578 95.6229 33.8098C94.9383 33.8956 94.2877 34.1577 93.7347 34.5703L93.2364 35.0686C93.1053 35.2259 93.1053 35.2784 93.1053 35.3046V35.5406C93.0823 35.7207 93.1293 35.9028 93.2367 36.0492C93.344 36.1956 93.5036 36.2952 93.6823 36.3273C93.8619 36.2299 94.0013 36.0719 94.0756 35.8815Z" fill="#403D4F"/>
    <path d="M88.6998 51.2492C89.1419 51.2467 89.5788 51.1548 89.9844 50.979C90.39 50.8033 90.7559 50.5473 91.06 50.2265C91.1711 50.1076 91.2564 49.967 91.3106 49.8136C91.3647 49.6601 91.3865 49.4972 91.3747 49.3349C91.3747 49.0464 90.9288 45.4274 90.7715 44.09C90.7413 43.9606 90.6675 43.8456 90.5624 43.7644C90.4572 43.6832 90.3274 43.6407 90.1946 43.6442C90.06 43.6638 89.9382 43.7349 89.8551 43.8425C89.7719 43.9502 89.7338 44.0859 89.7488 44.2211C89.7488 44.4047 90.3257 49.1513 90.3781 49.466C90.1634 49.7037 89.9001 49.8923 89.6059 50.019C89.3118 50.1457 88.9938 50.2075 88.6736 50.2003C88.5391 50.207 88.4123 50.2652 88.3195 50.3629C88.2268 50.4605 88.1751 50.5901 88.1753 50.7248C88.1817 50.8618 88.239 50.9915 88.336 51.0885C88.433 51.1856 88.5628 51.2429 88.6998 51.2492Z" fill="#F18380"/>
    <path d="M91.1125 56.4153C92.0828 56.6513 92.45 58.1198 91.8468 59.8244C91.2518 60.9981 90.2785 61.9368 89.0841 62.4888C87.8896 63.0408 86.5439 63.1738 85.2645 62.8664C84.5661 62.8333 83.8813 62.6607 83.2505 62.3591C82.6197 62.0574 82.0556 61.6326 81.5914 61.1097C81.1271 60.5868 80.7721 59.9764 80.5472 59.3143C80.3223 58.6522 80.2321 57.9519 80.2818 57.2544C80.2818 56.1268 81.0686 55.4712 82.5372 55.4712C85.4168 55.5481 88.2851 55.8638 91.1125 56.4153Z" fill="#73102A"/>
    <path d="M80.282 57.3857V57.1496C82.2015 56.706 84.2176 56.9987 85.9317 57.9699C87.6458 58.9411 88.9332 60.52 89.5393 62.3945C88.1902 63.0557 86.6727 63.2933 85.1861 63.0763C84.4872 63.0335 83.804 62.8511 83.1768 62.5401C82.5496 62.229 81.991 61.7955 81.5339 61.2652C81.0769 60.7348 80.7307 60.1183 80.5157 59.452C80.3007 58.7857 80.2212 58.0831 80.282 57.3857Z" fill="#D65155"/>
    <path d="M90.2734 57.9888C86.9523 58.0403 83.6459 57.5351 80.4917 56.494C80.6893 56.1368 80.9905 55.8478 81.3557 55.6652C81.7209 55.4826 82.1328 55.415 82.5372 55.4713C85.4168 55.5482 88.2851 55.8639 91.1125 56.4154C91.3837 56.5088 91.6209 56.681 91.7938 56.9099C91.9666 57.1387 92.0672 57.414 92.0828 57.7004C91.5024 57.9064 90.8891 58.0041 90.2734 57.9888Z" fill="white"/>
    <path d="M75.693 27.4376C75.693 27.4376 73.0706 40.5498 61.9515 45.6373C61.9515 45.6373 53.6888 40.7858 55 28.2244C62.0662 30.7308 75.5357 -6.3918 97.4068 10.0771C99.531 9.73619 94.6818 16.7518 94 13.5C94.894 14.0617 98.0788 12.5319 98.5 13.5C98.9212 14.4681 102.262 12.963 102.064 14C101.866 15.037 102.813 9.41615 102.064 10.1605C101.315 10.9049 100.359 11.4059 99.3212 11.5981C102.891 12.0955 101.267 14.6706 103.5 17.5C105.733 20.3293 107.846 22.9121 107.5 26.5C107.388 28.7621 110.252 31.1855 108.66 32.7967C107.068 34.4078 104.938 35.3755 102.678 35.5147H98.8229C95.8406 34.1479 93.429 31.7827 92.0045 28.8275C92.3755 31.0551 93.1486 33.1967 94.2861 35.1476C94.4959 35.541 94.0238 36.2228 90.7982 35.541C87.0952 34.2672 84.0001 31.6584 82.118 28.2244C82.8231 30.4761 83.7636 32.6473 84.924 34.7018C84.924 35.0951 83.2194 35.6721 80.7018 34.5182C79.2996 33.9085 78.0913 32.9261 77.2082 31.6777C76.3251 30.4294 75.801 28.9629 75.693 27.4376Z" fill="#BC664A"/>
    <path d="M92.8957 37.7435C91.9516 37.7435 91.5845 39.4743 91.5845 41.1264C91.6809 43.3643 92.349 45.5401 93.525 47.4465C94.0062 48.0217 94.6303 48.4603 95.3345 48.7181C96.0388 48.9758 96.7985 49.0438 97.5374 48.9151C98.4371 49.0542 99.3563 48.9949 100.231 48.7412C101.105 48.4875 101.913 48.0456 102.599 47.4465C104.042 45.6385 104.902 43.4344 105.064 41.1264C105.064 39.4743 104.566 37.7435 103.385 37.7435H92.8957Z" stroke="#403D4F" stroke-width="0.75" stroke-miterlimit="10"/>
    <path d="M84.976 37.7435C86.2348 37.7435 86.7331 39.4743 86.7331 41.1264C86.5611 43.4603 85.6415 45.6765 84.1106 47.4465C83.3859 48.0413 82.5454 48.479 81.6425 48.7319C80.7396 48.9847 79.794 49.0471 78.8657 48.9151C76.5087 49.2182 74.1191 48.6995 72.0998 47.4465C70.2582 45.8216 69.0892 43.5678 68.8218 41.1264C68.8218 39.4743 69.4512 37.7435 71.0509 37.7435H84.976Z" stroke="#403D4F" stroke-width="0.75" stroke-miterlimit="10"/>
    <path d="M91.7947 39.317C91.041 38.7428 90.1197 38.4318 89.1722 38.4318C88.2248 38.4318 87.3035 38.7428 86.5498 39.317" stroke="#403D4F" stroke-width="0.75" stroke-miterlimit="10"/>
    <path d="M70.999 37.7435H67.7996C67.1178 37.7435 66.3311 37.9008 66.3311 38.8187V40.2873C66.3311 40.6544 68.665 41.3887 68.9535 42.2016" stroke="#403D4F" stroke-width="0.75" stroke-miterlimit="10"/>
    <path d="M59.355 41.5727L66.3307 38.8191" stroke="#403D4F" stroke-width="0.75" stroke-miterlimit="10"/>
    <path d="M62.9472 47.5779C62.7374 44.0114 61.7933 39.8417 57.44 40.4711C52.3525 41.2578 51.8542 55.0256 62.6849 53.3735L62.9472 47.5779Z" fill="#FBBEAA"/>
    <path d="M57.0735 48.4958C57.1647 48.497 57.2546 48.4733 57.3332 48.427C57.4118 48.3808 57.4762 48.3138 57.5194 48.2335C57.6346 48.0065 57.8059 47.8127 58.017 47.6704C58.2281 47.5281 58.472 47.4421 58.7257 47.4206C59.0283 47.4239 59.3249 47.5053 59.5868 47.6569C59.8487 47.8085 60.067 48.0252 60.2205 48.286C60.2832 48.3757 60.3736 48.4422 60.4778 48.4754C60.5821 48.5086 60.6944 48.5065 60.7974 48.4695C60.9084 48.4388 61.0045 48.3685 61.0673 48.2719C61.1301 48.1753 61.1553 48.059 61.1383 47.9451C61.0929 46.842 60.7495 45.7719 60.1446 44.8484C59.5397 43.9249 58.696 43.1825 57.7029 42.7002C57.6362 42.6605 57.5615 42.6362 57.4842 42.6289C57.4069 42.6217 57.329 42.6316 57.256 42.6581C57.183 42.6846 57.1169 42.727 57.0623 42.7822C57.0077 42.8374 56.966 42.904 56.9403 42.9772C56.9145 43.0505 56.9054 43.1285 56.9134 43.2057C56.9215 43.2829 56.9466 43.3574 56.987 43.4237C57.0273 43.49 57.0819 43.5466 57.1468 43.5892C57.2116 43.6319 57.2851 43.6597 57.362 43.6705C57.9514 43.9569 58.4763 44.3604 58.9046 44.8564C59.3329 45.3524 59.6557 45.9304 59.8534 46.5552C59.4874 46.3747 59.0805 46.2933 58.6732 46.3191C58.2493 46.3592 57.8416 46.502 57.4852 46.735C57.1288 46.968 56.8345 47.2843 56.6277 47.6566C56.5703 47.7757 56.56 47.9122 56.5989 48.0387C56.6378 48.1651 56.723 48.2722 56.8375 48.3384L57.0735 48.4958Z" fill="#F18380"/>
    <path d="M74.406 29.8654C73.2565 33.3134 71.4661 36.5129 69.1291 39.2954H63.4087C63.4087 39.2954 58.9743 34.1477 58.6417 33.7262C58.1609 33.2134 57.7954 32.6035 57.5698 31.9376C57.3441 31.2716 57.2636 30.5651 57.3335 29.8654H74.406Z" fill="#676575"/>
    <path d="M69.1291 39.2955C69.1291 50.3897 65.464 66.1641 82.7 69.5001C82.7 69.5001 71.6567 68.917 67.4219 63.4809C63.187 58.0447 63.4087 39.2068 63.4087 39.2068L69.1291 39.2955Z" fill="#827F94"/>
    <path d="M53.2319 31.2855H109.194C109.62 26.2264 109.14 21.1318 107.775 16.2418C105.558 9.89594 101.124 2.13 82.5656 2.13C64.0076 2.13 57.5111 10.8278 56.203 17.4178C54.8948 24.0077 55.5156 26.16 54.7396 26.8701C53.9636 27.5801 53.2319 27.6023 53.2319 28.6673V31.2855Z" fill="#EFEFEF"/>
    <path d="M82.5654 2.13012C86.6124 2.05656 90.6498 2.54948 94.5605 3.59456H94.7378L95.4252 3.81644C97.2986 4.39374 99.0822 5.2302 100.724 6.30154C101.839 10.9029 102.132 15.6655 101.589 20.369H95.4252L87.2215 18.9711C87.2215 18.9711 84.6274 5.65807 75.4038 2.5517C77.7778 2.2399 80.1712 2.09901 82.5654 2.13012Z" fill="#D8D8D8"/>
    <path d="M81.2792 0H93.8064C95.1368 0 101.589 5.01457 101.589 22.1884H87.3322C87.3322 17.1294 86.4453 3.88297 78.4634 2.21884C78.4856 2.26321 79.6829 0 81.2792 0Z" fill="#EFEFEF"/>
    <path d="M118.129 31.2855V28.0459C118.128 27.5816 118.03 27.1226 117.843 26.6976C117.656 26.2727 117.383 25.891 117.042 25.5765C116.701 25.262 116.298 25.0214 115.859 24.8698C115.421 24.7182 114.956 24.6588 114.493 24.6955H107.332C106.92 24.7147 106.509 24.6454 106.127 24.4923C105.744 24.3392 105.399 24.1059 105.114 23.808C104.649 23.2754 101.478 20.3022 101.101 19.8584C100.842 19.5196 100.506 19.2479 100.12 19.0664C99.7338 18.885 99.31 18.7989 98.884 18.8156H88.4631C88.0376 18.8026 87.615 18.8902 87.2298 19.0714C86.8445 19.2526 86.5074 19.5223 86.2459 19.8584C85.869 20.3022 82.6983 23.2754 82.2327 23.808C81.9489 24.107 81.6038 24.3412 81.2211 24.4944C80.8384 24.6476 80.4272 24.7162 80.0155 24.6955H74.0513C73.5887 24.6588 73.1235 24.7182 72.6849 24.8698C72.2463 25.0214 71.8438 25.262 71.5024 25.5765C71.161 25.891 70.8883 26.2727 70.7012 26.6976C70.514 27.1226 70.4166 27.5816 70.415 28.0459V31.2855H118.129Z" fill="#D8D8D8"/>
    <path d="M34.0445 222.601C34.5778 215.886 41.7779 190.14 49.5114 175.473C49.5114 175.473 66.3823 177.604 77.2464 177.64C88.5816 177.676 106.191 175.473 106.191 175.473C111.234 186.891 116.979 211.837 118.652 217.219C119.662 220.386 119.784 223.768 119.007 226.999C118.229 230.231 116.58 233.187 114.24 235.547C108.494 242.068 93.6819 249.535 90.2636 249.535C75.5573 247.434 61.1425 243.643 47.3053 238.238C39.4991 234.965 33.5354 229.341 34.0445 222.601Z" fill="#013EA5"/>
    <path d="M167.937 82.7679C168.037 80.5833 167.452 78.4221 166.264 76.586C164.435 74.4654 163.065 71.9891 162.24 69.3131C161.605 66.8291 160.591 64.4577 159.234 62.2826C158.264 60.9493 156.81 59.8584 156.81 58.8402C156.81 57.822 158.749 55.8583 161.513 56.4159C162.696 56.7847 163.784 57.4106 164.698 58.2488C165.611 59.087 166.329 60.1168 166.798 61.2645C167.062 60.5652 167.218 59.8293 167.258 59.0826L167.864 44.2218C167.874 43.8365 167.96 43.457 168.118 43.1057C168.276 42.7543 168.504 42.4383 168.786 42.1761C169.069 41.914 169.401 41.7111 169.763 41.5795C170.125 41.4478 170.51 41.3901 170.895 41.4096C171.507 41.4357 172.097 41.6533 172.579 42.0316C173.062 42.4099 173.414 42.93 173.586 43.5187V42.8399C173.679 42.1175 174.042 41.4571 174.602 40.9913C175.162 40.5255 175.878 40.2887 176.605 40.3286C177.332 40.3685 178.017 40.6821 178.523 41.2064C179.029 41.7306 179.318 42.4268 179.331 43.1551V45.2157C179.574 44.5804 180.037 44.0535 180.636 43.731C181.235 43.4086 181.929 43.312 182.593 43.4589C183.257 43.6058 183.847 43.9864 184.254 44.5314C184.66 45.0764 184.858 45.7495 184.81 46.4279V47.7369C185.071 47.2784 185.46 46.9058 185.929 46.6647C186.398 46.4236 186.928 46.3244 187.453 46.3793C188.171 46.4706 188.826 46.8379 189.278 47.4035C189.731 47.9691 189.946 48.6886 189.877 49.4097L188.689 61.9433C187.911 69.0095 186.449 75.9837 184.325 82.7679C184.3 83.9006 184.037 85.0154 183.555 86.0407C183.073 87.0659 182.381 87.979 181.525 88.721C180.669 89.4631 179.667 90.0177 178.583 90.3494C177.5 90.681 176.359 90.7824 175.234 90.6468C174.216 90.6808 173.203 90.4954 172.263 90.1033C171.323 89.7112 170.478 89.1215 169.786 88.3742C169.094 87.6269 168.57 86.7395 168.251 85.7722C167.932 84.8049 167.825 83.7803 167.937 82.7679Z" fill="#FBBEAA"/>
    <path d="M86.2393 478.411C86.2393 476.077 87.1664 473.839 88.8168 472.188C90.4671 470.538 92.7055 469.611 95.0394 469.611C97.3734 469.611 99.6117 470.538 101.262 472.188C102.912 473.839 103.84 476.077 103.84 478.411V497.539H86.2393V478.411Z" fill="#FBBEAA"/>
    <path d="M103.21 481.975C105.367 481.975 105.755 482.92 106.386 484.157C107.408 487.452 109.156 490.475 111.501 493.005C115.002 495.987 118.758 498.656 122.725 500.981V511.115H83.5488C83.5488 511.115 83.8155 503.115 84.0094 497.466C84.2034 491.818 84.761 484.933 84.7125 484.205C84.664 483.478 84.7125 481.975 86.0458 481.975H103.21Z" fill="#302D3B"/>
    <path d="M88.4205 498.023C88.4157 499.267 88.7805 500.485 89.4686 501.521C90.1567 502.557 91.137 503.366 92.2853 503.844C93.4336 504.322 94.6981 504.448 95.9184 504.207C97.1386 503.965 98.2596 503.367 99.1392 502.487C100.019 501.608 100.617 500.487 100.859 499.267C101.1 498.046 100.974 496.782 100.496 495.634C100.017 494.485 99.2088 493.505 98.1726 492.817C97.1363 492.129 95.9191 491.764 94.6752 491.769C93.0183 491.775 91.4311 492.436 90.2595 493.608C89.0879 494.779 88.4268 496.366 88.4205 498.023Z" fill="#0447BA"/>
    <path d="M94.6757 494.339L93.2454 496.448L90.7969 497.151L92.3484 499.163L92.2757 501.708L94.6757 500.836L97.0758 501.708L96.9788 499.163L98.5546 497.151L96.1061 496.448L94.6757 494.339Z" fill="white"/>
    <path d="M122.458 500.812C122.458 500.812 128.01 503.745 130.095 505.176C131.06 505.829 131.844 506.717 132.374 507.756C132.904 508.794 133.162 509.95 133.125 511.115H117.9C117.9 511.115 118.216 503.672 122.458 500.812Z" fill="white"/>
    <path d="M83.5488 511.115V515.309C83.5488 516.012 84.1792 516.4 85.2459 516.4H131.453C132.495 516.4 133.125 516.012 133.125 515.309V511.115H83.5488Z" fill="white"/>
    <path d="M117.9 497.975C118.035 497.769 118.244 497.623 118.484 497.569C118.724 497.515 118.975 497.556 119.185 497.684C119.29 497.748 119.38 497.833 119.452 497.933C119.523 498.033 119.574 498.146 119.601 498.265C119.628 498.385 119.631 498.509 119.61 498.63C119.588 498.751 119.543 498.866 119.476 498.969L117.852 501.587C117.774 501.723 117.66 501.835 117.524 501.912C117.387 501.989 117.233 502.027 117.076 502.024C116.897 502.021 116.721 501.971 116.567 501.878C116.462 501.814 116.372 501.729 116.3 501.63C116.229 501.53 116.178 501.417 116.151 501.297C116.124 501.177 116.121 501.053 116.143 500.933C116.164 500.812 116.209 500.696 116.276 500.593L117.9 497.975Z" fill="white"/>
    <path d="M115.04 495.963C115.119 495.87 115.216 495.795 115.325 495.74C115.434 495.685 115.553 495.652 115.674 495.643C115.796 495.634 115.918 495.649 116.034 495.687C116.15 495.726 116.257 495.786 116.349 495.866C116.441 495.945 116.517 496.042 116.572 496.151C116.627 496.26 116.66 496.379 116.669 496.5C116.678 496.622 116.663 496.744 116.624 496.86C116.586 496.975 116.526 497.083 116.446 497.175L114.555 499.405C114.468 499.507 114.36 499.59 114.239 499.649C114.118 499.707 113.986 499.74 113.852 499.745C113.676 499.741 113.505 499.689 113.358 499.594C113.21 499.499 113.092 499.364 113.016 499.206C112.941 499.047 112.911 498.871 112.93 498.696C112.949 498.522 113.017 498.356 113.125 498.217L115.04 495.963Z" fill="white"/>
    <path d="M112.349 493.709C112.542 493.584 112.774 493.534 113.001 493.568C113.227 493.602 113.434 493.717 113.583 493.892C113.731 494.067 113.811 494.29 113.807 494.519C113.803 494.749 113.716 494.969 113.561 495.139L111.404 497.006C111.235 497.149 111.019 497.226 110.798 497.224C110.664 497.229 110.531 497.203 110.41 497.148C110.288 497.093 110.18 497.011 110.095 496.909C110.005 496.825 109.934 496.723 109.885 496.611C109.836 496.498 109.811 496.377 109.811 496.254C109.811 496.131 109.836 496.01 109.885 495.897C109.934 495.785 110.005 495.683 110.095 495.6L112.349 493.709Z" fill="white"/>
    <path d="M107.621 492.593L110.046 491.09C110.258 490.964 110.512 490.927 110.752 490.986C110.992 491.045 111.2 491.195 111.33 491.405C111.396 491.51 111.44 491.626 111.46 491.748C111.479 491.87 111.474 491.995 111.445 492.114C111.415 492.234 111.362 492.347 111.289 492.446C111.215 492.545 111.122 492.628 111.015 492.69L108.591 494.193C108.447 494.289 108.279 494.339 108.106 494.339C107.948 494.335 107.794 494.291 107.658 494.21C107.522 494.129 107.409 494.015 107.33 493.878C107.202 493.668 107.161 493.417 107.215 493.177C107.27 492.937 107.415 492.727 107.621 492.593Z" fill="white"/>
    <path d="M105.585 489.466L108.3 488.327C108.532 488.23 108.792 488.23 109.024 488.325C109.256 488.421 109.44 488.605 109.536 488.836C109.584 488.949 109.608 489.07 109.608 489.192C109.608 489.315 109.584 489.436 109.536 489.549C109.489 489.662 109.419 489.764 109.332 489.85C109.245 489.935 109.141 490.003 109.027 490.048L106.312 491.188H105.949C105.739 491.176 105.54 491.096 105.381 490.959C105.223 490.822 105.114 490.637 105.073 490.431C105.031 490.226 105.059 490.013 105.151 489.825C105.244 489.637 105.397 489.485 105.585 489.394V489.466Z" fill="white"/>
    <path d="M103.888 485.975L106.894 485.223C107.132 485.165 107.383 485.204 107.592 485.332C107.802 485.459 107.952 485.664 108.009 485.902C108.067 486.14 108.028 486.391 107.901 486.6C107.774 486.809 107.569 486.959 107.331 487.017L104.349 487.793H104.131C103.922 487.791 103.719 487.721 103.553 487.594C103.387 487.468 103.267 487.291 103.209 487.09C103.157 486.852 103.199 486.604 103.325 486.396C103.452 486.189 103.653 486.038 103.888 485.975Z" fill="white"/>
    <path d="M73.3657 356.082C73.6324 344.348 81.5355 338.676 93.2448 338.967C104.954 339.257 113.391 345.391 113.124 357.1L103.839 479.357H86.2387L73.3657 356.082Z" fill="#FBBEAA"/>
    <path d="M71.8397 356.009C71.905 353.223 72.5183 350.478 73.6446 347.929C74.7709 345.38 76.3882 343.078 78.4041 341.155C80.4201 339.231 82.7951 337.723 85.3937 336.718C87.9923 335.712 90.7635 335.228 93.5491 335.293C96.3348 335.359 99.0804 335.972 101.629 337.098C104.178 338.224 106.48 339.842 108.403 341.858C110.327 343.874 111.834 346.249 112.84 348.847C113.846 351.446 114.33 354.217 114.265 357.003L117.178 483.465H69.25L71.8397 356.009Z" fill="#013EA5"/>
    <path d="M12.0562 478.411C12.0562 476.077 12.9833 473.839 14.6337 472.188C16.284 470.538 18.5224 469.611 20.8563 469.611C23.1903 469.611 25.4286 470.538 27.079 472.188C28.7293 473.839 29.6565 476.077 29.6565 478.411V497.539H12.0562V478.411Z" fill="#FBBEAA"/>
    <path d="M29.0019 481.975C31.1838 481.975 31.5717 482.92 32.1778 484.157C33.2117 487.452 34.9675 490.475 37.3172 493.005C40.8136 495.993 44.5701 498.662 48.5417 500.981V511.115H9.36523C9.36523 511.115 9.63191 503.115 9.82585 497.466C10.0198 491.818 10.5532 484.933 10.5289 484.205C10.5047 483.478 10.5289 481.975 11.838 481.975H29.0019Z" fill="#302D3B"/>
    <path d="M14.2139 498.023C14.2091 499.266 14.5733 500.482 15.2603 501.518C15.9473 502.554 16.9263 503.363 18.0731 503.842C19.22 504.32 20.4833 504.448 21.7028 504.209C22.9224 503.969 24.0435 503.373 24.924 502.496C25.8046 501.619 26.405 500.5 26.6492 499.281C26.8935 498.063 26.7706 496.799 26.296 495.65C25.8215 494.502 25.0168 493.52 23.9837 492.829C22.9506 492.137 21.7357 491.769 20.4928 491.769C18.8318 491.769 17.2384 492.427 16.0615 493.599C14.8847 494.771 14.2203 496.362 14.2139 498.023Z" fill="#0447BA"/>
    <path d="M20.4687 494.339L19.0384 496.448L16.5898 497.151L18.1657 499.163L18.0929 501.708L20.4687 500.836L22.8688 501.708L22.796 499.163L24.3718 497.151L21.899 496.448L20.4687 494.339Z" fill="white"/>
    <path d="M48.2505 500.812C48.2505 500.812 53.8263 503.745 55.887 505.176C56.8571 505.825 57.6449 506.711 58.1754 507.751C58.7059 508.79 58.9613 509.949 58.9173 511.115H43.6201C43.6201 511.115 44.0323 503.672 48.2505 500.812Z" fill="white"/>
    <path d="M9.36523 511.115V515.309C9.36523 516.012 9.97131 516.4 11.038 516.4H57.2933C58.36 516.4 58.9661 516.012 58.9661 515.309V511.115H9.36523Z" fill="white"/>
    <path d="M43.7172 497.975C43.849 497.766 44.0585 497.618 44.2994 497.564C44.5404 497.509 44.7931 497.552 45.0021 497.684C45.211 497.816 45.3591 498.025 45.4137 498.266C45.4682 498.507 45.4248 498.76 45.293 498.969L43.6688 501.587C43.5847 501.723 43.4667 501.835 43.3265 501.911C43.1862 501.988 43.0285 502.027 42.8687 502.024C42.6963 502.024 42.5276 501.974 42.3839 501.878C42.2794 501.814 42.1887 501.729 42.1173 501.63C42.0459 501.53 41.9952 501.417 41.9681 501.297C41.941 501.177 41.938 501.053 41.9595 500.933C41.9809 500.812 42.0263 500.696 42.0929 500.593L43.7172 497.975Z" fill="white"/>
    <path d="M40.8318 495.963C40.9917 495.777 41.2176 495.66 41.4619 495.637C41.7061 495.615 41.9496 495.688 42.1409 495.842C42.3287 496.006 42.446 496.236 42.4686 496.484C42.4911 496.732 42.4172 496.98 42.2621 497.175L40.3469 499.405C40.2629 499.511 40.156 499.597 40.0343 499.655C39.9125 499.714 39.7791 499.745 39.6439 499.745C39.4662 499.747 39.2918 499.697 39.1416 499.602C38.9915 499.507 38.8721 499.37 38.7978 499.209C38.7235 499.047 38.6974 498.868 38.7228 498.692C38.7482 498.516 38.8239 498.351 38.9409 498.217L40.8318 495.963Z" fill="white"/>
    <path d="M38.1656 493.709C38.3585 493.584 38.5899 493.534 38.8169 493.568C39.0438 493.602 39.2508 493.717 39.3991 493.892C39.5475 494.067 39.6271 494.29 39.6231 494.519C39.6192 494.749 39.532 494.969 39.3777 495.139L37.1959 497.006C37.0267 497.149 36.8115 497.226 36.5898 497.224C36.4566 497.227 36.3244 497.2 36.2028 497.146C36.0811 497.091 35.9732 497.01 35.8868 496.909C35.8003 496.823 35.7316 496.721 35.6848 496.609C35.6379 496.496 35.6138 496.376 35.6138 496.254C35.6138 496.132 35.6379 496.012 35.6848 495.899C35.7316 495.787 35.8003 495.685 35.8868 495.6L38.1656 493.709Z" fill="white"/>
    <path d="M33.4382 492.593L35.8625 491.09C36.0716 491.002 36.3055 490.992 36.5214 491.062C36.7374 491.132 36.921 491.277 37.0386 491.471C37.1563 491.665 37.2001 491.895 37.1622 492.119C37.1243 492.343 37.0072 492.546 36.8322 492.69L34.4079 494.193C34.2642 494.289 34.0955 494.339 33.923 494.339C33.7614 494.337 33.6031 494.293 33.463 494.213C33.3229 494.132 33.2059 494.017 33.123 493.878C32.9971 493.665 32.9595 493.412 33.0184 493.171C33.0773 492.931 33.228 492.724 33.4382 492.593Z" fill="white"/>
    <path d="M167.647 84.3926L157.95 145.266C156.35 152.903 158.822 159.812 167.647 161.024C169.276 161.236 170.931 161.115 172.511 160.668C174.092 160.221 175.565 159.458 176.842 158.424C178.118 157.39 179.171 156.107 179.937 154.654C180.702 153.201 181.165 151.607 181.295 149.969L184.253 84.5138C185.029 78.3319 182.338 74.2106 177.635 73.7015C171.865 73.0712 168.81 76.4895 167.647 84.3926Z" fill="#FBBEAA"/>
    <path d="M31.4027 489.466L34.1179 488.327C34.2308 488.28 34.352 488.255 34.4744 488.255C34.5968 488.255 34.7179 488.28 34.8308 488.327C34.9436 488.374 35.0459 488.444 35.1316 488.531C35.2174 488.619 35.2848 488.722 35.3301 488.836C35.4206 489.062 35.4207 489.313 35.3304 489.539C35.2401 489.765 35.0664 489.947 34.8452 490.048L32.1058 491.188C31.994 491.213 31.8781 491.213 31.7664 491.188C31.5797 491.188 31.3972 491.132 31.2419 491.029C31.0866 490.925 30.9654 490.778 30.8936 490.606C30.82 490.387 30.8315 490.148 30.9258 489.937C31.0201 489.726 31.1904 489.558 31.4027 489.466Z" fill="white"/>
    <path d="M29.7043 485.975L32.6862 485.224C32.9272 485.165 33.1818 485.203 33.3949 485.33C33.6081 485.457 33.7628 485.662 33.8257 485.902C33.8546 486.02 33.8599 486.142 33.8414 486.262C33.8229 486.382 33.7809 486.497 33.7179 486.601C33.6548 486.704 33.5719 486.795 33.4739 486.866C33.3759 486.938 33.2647 486.989 33.1468 487.017L30.165 487.793H29.9226C29.7041 487.777 29.4983 487.684 29.3402 487.533C29.1822 487.381 29.0816 487.179 29.0559 486.962C29.0301 486.744 29.0807 486.524 29.199 486.34C29.3173 486.156 29.4959 486.018 29.7043 485.951V485.975Z" fill="white"/>
    <path d="M21.681 355.718C22.8718 350.215 26.1992 345.41 30.9317 342.36C35.6641 339.309 41.4142 338.263 46.9178 339.451C58.3846 341.875 64.5665 353.173 62.0938 364.639L29.6569 481.369H11.8384L21.681 355.718Z" fill="#FBBEAA"/>
    <path d="M21.6809 353.415C22.9966 348.044 26.3552 343.398 31.0427 340.465C35.7302 337.532 41.3768 336.543 46.7822 337.708C52.1876 338.873 56.9254 342.1 59.9885 346.704C63.0515 351.308 64.1981 356.924 63.1846 362.36L51.7857 482.331C51.7857 482.331 20.9003 484.174 2.5 482.331L21.6809 353.415Z" fill="#013EA5"/>
    <path d="M175.526 138.527L105.9 85.6288C97.7789 80.4408 92.2516 83.2045 87.9364 88.7561C85.9657 91.4432 85.052 94.7611 85.3694 98.0782C85.6868 101.395 87.2131 104.48 89.6576 106.744L159.113 157.921C161.561 159.988 164.712 161.031 167.909 160.832C171.107 160.634 174.104 159.209 176.277 156.854L176.592 156.515C177.746 155.285 178.636 153.832 179.209 152.247C179.783 150.661 180.027 148.975 179.927 147.291C179.827 145.608 179.386 143.963 178.629 142.456C177.872 140.949 176.816 139.612 175.526 138.527Z" fill="#FBBEAA"/>
    <path d="M89.6578 106.72C89.0149 106.167 88.43 105.55 87.9123 104.878C87.4545 103.152 87.3955 101.345 87.74 99.5938C88.0844 97.8422 88.8232 96.1921 89.9002 94.7685C93.5609 89.1199 101.246 84.6835 104.664 85.532L108.058 87.2532L146.483 116.345C143.082 124.337 138.488 131.767 132.859 138.381L89.6578 106.72Z" fill="#F18380"/>
    <path d="M100.154 81.8468L160.407 122.484C160.153 124.562 165.036 81.8468 165.036 81.8468L187.337 83.9284C187.337 83.9284 186.035 127.418 182.753 150.386C181.45 159.501 173.863 162.957 164.867 160.995C160.426 160.026 156.244 158.203 152.523 155.591C136.534 144.368 91.6764 112.757 88.0088 108.781C81.6814 101.92 81.6814 96.7804 85.3178 91.1318C88.9543 85.4832 96.7362 80.9983 100.154 81.8468Z" fill="#013EA5"/>
    <path d="M71.8389 356.009L59.4023 225.801C59.4023 211.425 74.2147 195.764 96.0575 199.134C115.791 202.213 121.803 222.043 120.179 240.832C118.555 259.62 114.167 356.93 114.167 356.93C114.102 359.716 113.488 362.462 112.362 365.01C111.236 367.559 109.618 369.861 107.603 371.784C105.587 373.708 103.212 375.216 100.613 376.221C98.0144 377.227 95.2431 377.711 92.4575 377.646C89.6718 377.581 86.9263 376.967 84.3776 375.841C81.829 374.715 79.5271 373.097 77.6035 371.081C75.6799 369.066 74.1722 366.691 73.1665 364.092C72.1608 361.493 71.6767 358.722 71.742 355.936L71.8389 356.009Z" fill="#013EA5"/>
    <path d="M21.6811 353.415L34.045 223.231C36.6632 209.098 54.2393 196.564 75.0639 203.982C93.8521 210.698 96.0339 231.304 90.8944 249.462C85.7549 267.62 63.1849 362.361 63.1849 362.361C61.8691 367.731 58.5105 372.377 53.8231 375.31C49.1356 378.243 43.4889 379.233 38.0836 378.068C32.6782 376.903 27.9403 373.675 24.8773 369.071C21.8143 364.468 20.6676 358.851 21.6811 353.415Z" fill="#013EA5"/>
    <path d="M90.8941 249.462C85.7789 267.62 63.1846 362.361 63.1846 362.361" stroke="#E9E9E9" stroke-width="0.75" stroke-miterlimit="10"/>
    <path d="M87.2572 79.786C87.2572 79.786 97.9726 81.6527 100.057 82.2103C101.288 82.499 102.425 83.0953 103.362 83.9433C104.299 84.7913 105.005 85.8633 105.415 87.0588C106.748 90.2346 113.609 111.035 114.239 113.29C114.666 115.773 114.265 118.328 113.1 120.562C112.106 123.278 106.967 135.642 106.967 135.642L106.191 175.472L77.2463 180.063L49.5111 175.472C49.5111 175.472 39.814 101.386 39.3291 96.8045C38.8443 92.2226 41.1231 83.374 46.602 82.2588C52.0809 81.1436 67.1114 79.8345 67.1114 79.8345L87.2572 79.786Z" fill="#FBBEAA"/>
    <path d="M107.55 159.457V173.46C88.5924 175.206 58.3846 173.97 47.039 173.46C46.5056 169.46 45.948 162.672 45.3662 158.163C60.8089 158.551 86.3136 159.99 107.55 159.457Z" fill="white"/>
    <path d="M7.571 171.909L38.6261 90.1862C42.7716 81.4588 48.905 80.877 55.5961 83.3013C58.6908 84.5358 61.2223 86.8671 62.707 89.8499C64.1917 92.8327 64.5255 96.2579 63.6447 99.4713L31.6684 179.739C30.6991 182.793 28.5845 185.353 25.7683 186.88C22.9521 188.408 19.6535 188.786 16.5651 187.933L16.1045 187.812C14.4753 187.368 12.9538 186.596 11.6326 185.544C10.3114 184.492 9.2183 183.183 8.41985 181.695C7.6214 180.207 7.13436 178.571 6.98842 176.889C6.84249 175.207 7.04071 173.512 7.571 171.909Z" fill="#FBBEAA"/>
    <path d="M20.4438 138.017L38.626 90.1861C39.1136 89.1372 39.6894 88.1316 40.3472 87.18C42.5744 85.7856 45.1241 84.9904 47.749 84.8715C50.374 84.7525 52.9852 85.3139 55.3293 86.5012C58.0514 87.8258 60.2394 90.0403 61.5312 92.7781C62.8229 95.5159 63.1409 98.6128 62.4324 101.556C62.4324 101.847 62.2628 102.405 62.1173 103.156L43.3533 150.308C35.1573 147.353 27.4388 143.212 20.4438 138.017Z" fill="#F18380"/>
    <path d="M41.0552 84.6843C35.7633 91.4883 5.146 174.646 5.146 174.646C33.4953 165.574 34 173.5 46.2537 143.651C46.2537 143.651 64.0332 101.92 64.712 98.1866C65.4205 95.2434 65.1025 92.1466 63.8108 89.4088C62.519 86.671 60.331 84.4564 57.6089 83.1318C50.0209 79.253 46.347 77.8803 41.0552 84.6843Z" fill="#0045BA"/>
    <path d="M92.4958 79.7705C98.099 80.836 100.631 80.9633 102.054 81.9015C104.305 83.4118 115.897 103.876 115.897 113.111C115.897 121.28 113.92 186.631 112.272 187.696C110.624 188.762 81.1221 190.144 81.1221 190.144V97.604C84.1163 88.3363 90.3722 85.7659 92.4958 79.7705Z" fill="#0045BA"/>
    <path d="M102.054 81.9015C100.631 80.9633 95.041 80.08 89.4379 79.0145C87.3143 85.0099 84.1163 88.3363 81.1221 97.604V113.111H115.897C115.897 103.876 104.305 83.4118 102.054 81.9015Z" fill="#9A99A1"/>
    <path d="M80.7442 76.7466C73.7892 76.7466 67.5145 73.7226 65.2466 72.2107V79.0145C65.4986 79.3925 67.4389 80.6021 73.1844 82.4164C78.9299 84.2308 87.1701 83.5504 90.572 82.4164V75.6126C90.572 75.9906 89.438 76.7466 80.7442 76.7466Z" fill="#034CC9"/>
    <path d="M115.886 114.546H81.1221V106.986L114.898 107.316C115.557 109.915 115.971 111.771 115.886 114.546Z" fill="#D3D4D2"/>
    <path d="M36.6021 183.447C36.6021 175.879 37.5 155 47 136C48.1612 133 60.7553 98.7417 48.0073 84.3585C43.771 79.5788 40.0471 86.495 41.1641 84.7136C42.281 82.9323 43.519 81.1839 45.3431 80.3454C48.5973 78.7665 55.8281 79.0312 62.3454 79.0312C70.1664 88.6204 78.2668 90.7551 81.1221 97.6198V190.11C81.1221 190.11 36.6021 191.015 36.6021 183.447Z" fill="#034CC9"/>
    <path d="M36.6021 183.447C36.6021 175.879 37.5 155 47 136C48.1612 133 60.7553 98.7417 48.0073 84.3585C43.771 79.5788 40.0471 86.495 41.1641 84.7136C42.281 82.9323 43.519 81.1839 45.3431 80.3454C48.5973 78.7665 55.8281 79.0312 62.3454 79.0312C70.1664 88.6204 78.2668 90.7551 81.1221 97.6198V190.11C81.1221 190.11 36.6021 191.015 36.6021 183.447Z" fill="#034CC9"/>
    <path d="M41.0545 84.6844C39.9376 86.4658 43.7704 79.5787 48.0067 84.3584C53.3618 90.4004 54.2178 101.519 52.9749 112.278H81.1215L81.1216 83.5504C73.5618 82.7944 69.7818 81.6605 65.2459 79.0145C58.7286 79.0145 48.4666 78.5696 45.2123 80.1485C43.3883 80.987 42.1715 82.9031 41.0545 84.6844Z" fill="#A2A0AB"/>
    <path d="M81.1221 190.144C83.0537 189.496 84.7441 188.247 85.9621 186.569C87.18 184.891 87.8659 182.865 87.9259 180.768V77.1246H81.1221V190.144Z" fill="#034CC9"/>
    <path d="M53.3892 107H81.1002V115H52.6797C53.0455 111.4 53.3892 109.8 53.3892 107Z" fill="#CFD1CE"/>
    <g style="mix-blend-mode:multiply" opacity="0.4">
        <path d="M80.3662 83.3955L81.1222 83.5504V190.144H80.3662V83.3955Z" fill="#013FA9"/>
    </g>
    <path d="M80.8666 166.317L23.0706 187.77C15.9034 190.828 8.63422 189.758 5.74042 181.418C5.21226 179.864 5.00535 178.219 5.13222 176.582C5.25908 174.945 5.71705 173.351 6.47842 171.897C7.23978 170.443 8.28866 169.158 9.5614 168.121C10.8341 167.084 12.3043 166.317 13.8825 165.865L77.4289 150.195C83.3297 148.215 87.8976 150.071 89.3677 154.509C91.0972 159.978 88.3711 163.545 80.8666 166.317Z" fill="#FBBEAA"/>
    <g filter="url(#filter0_d_110_10)">
        <rect x="60.4263" y="122.357" width="40.9288" height="58.3236" rx="1" transform="rotate(-6.55484 60.4263 122.357)" fill="#EFEFEF"/>
    </g>
    <path d="M79.6433 148.497C82.4897 147.294 85.0635 145.512 87.2012 143.263C88.5243 141.874 90.0248 140.669 91.6625 139.679C92.6232 139.079 93.4522 138.286 94.0976 137.352C94.9502 135.902 95.6559 134.371 96.2037 132.783C96.4067 131.415 96.872 130.096 97.5737 128.902C98.2409 128.29 100.596 128.617 101.818 130.993C102.239 132.051 102.43 133.19 102.378 134.334C102.326 135.478 102.031 136.601 101.515 137.627C100.906 138.857 100.43 140.148 100.093 141.477L100.315 141.61C102.178 140.621 104.168 139.904 106.226 139.48C106.972 139.313 107.75 139.404 108.433 139.736C109.116 140.069 109.665 140.625 109.992 141.314C110.319 142.004 110.404 142.787 110.234 143.537C110.065 144.287 109.649 144.961 109.056 145.45C112.267 145.819 111.902 150.771 109.146 151.426C109.736 151.673 110.234 152.099 110.573 152.644C110.912 153.189 111.075 153.827 111.04 154.473C111.006 155.119 110.775 155.741 110.379 156.255C109.984 156.768 109.442 157.15 108.828 157.346C110.786 159.151 109.355 162.126 105.8 162.139C102.911 162.433 95.1864 163.642 92.4987 164.221C89.8111 164.799 84.4089 163.52 82.6736 164.057C80.0905 165.003 77.0903 165.019 74.8018 158.222C72.5134 151.425 76.9851 149.375 79.6433 148.497Z" fill="#FBBEAA"/>
    <path d="M84 167L33.0001 186.506C33.0001 186.506 15.1777 193.274 8.50061 187.5C7.26583 186.418 6.56161 184.917 5.88718 183C5.21746 181.096 5.17418 179.532 5.10604 177.892C5.03791 176.252 5.30366 174.615 5.88718 173.08C6.47069 171.546 5.80351 172.5 8.50061 168.5C11.1977 164.5 76.5 148 76.5 148L84 167Z" fill="#0045BA"/>
    <path d="M168.422 63.3739C167.501 63.3739 167.428 62.7921 167.016 61.7254C169.077 61.7254 175.065 62.1133 177.683 67.1558C175.04 63.5193 169.974 63.3739 168.422 63.3739ZM173.125 44.1978C173.125 44.1978 172.98 45.0463 172.834 46.2827C172.834 46.913 172.689 47.6645 172.64 48.4403C172.592 49.2161 172.519 50.0646 172.446 50.8646C172.446 52.5616 172.325 54.2343 172.325 55.495C172.325 56.7556 172.325 57.6041 172.325 57.6041C172.325 57.6444 172.333 57.6844 172.349 57.7213C172.366 57.7583 172.389 57.7915 172.419 57.8189C172.449 57.8462 172.484 57.8672 172.522 57.8803C172.56 57.8934 172.6 57.8983 172.64 57.895C172.709 57.8916 172.774 57.8661 172.826 57.8223C172.879 57.7786 172.916 57.7191 172.931 57.6526C172.931 57.6526 173.077 56.8041 173.198 55.5434C173.319 54.2828 173.513 52.6101 173.586 50.9373C173.586 50.0888 173.586 49.2403 173.586 48.513C173.586 47.7857 173.586 46.9858 173.586 46.3554C173.586 45.0706 173.586 44.2463 173.586 44.2463C173.586 44.2059 173.578 44.166 173.562 44.1291C173.546 44.0921 173.522 44.0588 173.492 44.0315C173.463 44.0041 173.428 43.9833 173.39 43.9702C173.351 43.957 173.311 43.952 173.271 43.9554C173.224 43.9821 173.186 44.0212 173.16 44.0683C173.135 44.1153 173.123 44.1685 173.125 44.2221V44.1978ZM178.75 45.8948C178.75 45.8948 178.604 46.6221 178.434 47.6888C178.434 48.2464 178.265 48.8766 178.192 49.5554C178.119 50.2342 178.047 50.9615 177.974 51.6888C177.974 53.1434 177.804 54.598 177.78 55.6889C177.756 56.7798 177.78 57.5314 177.78 57.5314C177.783 57.5696 177.794 57.6069 177.811 57.641C177.829 57.6751 177.853 57.7055 177.882 57.7303C177.911 57.7551 177.945 57.7739 177.982 57.7855C178.018 57.7971 178.057 57.8014 178.095 57.7981C178.16 57.7935 178.222 57.7671 178.27 57.7231C178.319 57.6791 178.351 57.6201 178.362 57.5556C178.362 57.5556 178.507 56.8283 178.677 55.7616C178.847 54.6949 178.992 53.2161 179.113 51.7858C179.113 51.0585 179.113 50.3312 179.259 49.6524C179.404 48.9736 179.259 48.3191 179.259 47.7615C179.259 46.6706 179.259 45.9433 179.259 45.9433C179.259 45.903 179.251 45.8631 179.235 45.8261C179.218 45.7891 179.195 45.7559 179.165 45.7285C179.135 45.7012 179.101 45.6803 179.062 45.6672C179.024 45.6541 178.984 45.649 178.944 45.6524C178.89 45.6746 178.843 45.7113 178.809 45.7583C178.775 45.8054 178.754 45.861 178.75 45.919V45.8948ZM184.18 48.1979C184.18 48.1979 184.035 48.8039 183.841 49.7252C183.841 50.1615 183.647 50.6949 183.574 51.2767C183.501 51.8586 183.404 52.4646 183.307 53.0707C183.138 54.3071 183.065 55.495 183.016 56.4647C182.968 57.4344 183.016 58.0162 183.016 58.0162C183.016 58.0566 183.024 58.0965 183.041 58.1334C183.057 58.1704 183.08 58.2037 183.11 58.231C183.14 58.2584 183.175 58.2792 183.213 58.2924C183.251 58.3055 183.291 58.3105 183.331 58.3071C183.393 58.3039 183.453 58.281 183.501 58.2417C183.549 58.2025 183.583 58.149 183.598 58.089C183.598 58.089 183.768 57.4829 183.938 56.5859C184.107 55.6889 184.35 54.4283 184.495 53.2161C184.495 52.5858 184.616 51.9798 184.665 51.3979C184.713 50.8161 184.665 50.2828 184.665 49.8222C184.665 48.9009 184.665 48.2706 184.665 48.2706C184.665 48.2302 184.657 48.1904 184.641 48.1534C184.625 48.1164 184.601 48.0832 184.571 48.0558C184.542 48.0284 184.507 48.0076 184.468 47.9945C184.43 47.9814 184.39 47.9763 184.35 47.9797C184.305 48.0046 184.266 48.0394 184.237 48.0814C184.208 48.1234 184.188 48.1715 184.18 48.2221V48.1979Z" fill="#F18380"/>
    <path d="M9.30371 436.594L11.5717 421.853H57.6866L56.1746 436.972L9.30371 436.594Z" fill="#CFD1CE"/>
    <path d="M70.1602 436.594L70.5381 421.853H115.897L116.275 436.972L70.1602 436.594Z" fill="#CFD1CE"/>
    <path d="M38.5399 157.944L49 155.5L55.5 178L45.5 182L38.5399 157.944Z" fill="#CFD1CE"/>
    <path d="M160.878 117.57L162.012 108.498L186.204 110.388L185.826 119.46L160.878 117.57Z" fill="#CFD1CE"/>
    <defs>
        <filter id="filter0_d_110_10" x="60.5337" y="117.793" width="49.104" height="62.3995" filterUnits="userSpaceOnUse" color-interpolation-filters="sRGB">
            <feFlood flood-opacity="0" result="BackgroundImageFix"/>
            <feColorMatrix in="SourceAlpha" type="matrix" values="0 0 0 0 0 0 0 0 0 0 0 0 0 0 0 0 0 0 127 0" result="hardAlpha"/>
            <feOffset dx="2"/>
            <feComposite in2="hardAlpha" operator="out"/>
            <feColorMatrix type="matrix" values="0 0 0 0 0.603922 0 0 0 0 0.6 0 0 0 0 0.631373 0 0 0 1 0"/>
            <feBlend mode="normal" in2="BackgroundImageFix" result="effect1_dropShadow_110_10"/>
            <feBlend mode="normal" in="SourceGraphic" in2="effect1_dropShadow_110_10" result="shape"/>
        </filter>
    </defs>
</svg>
