<svg width="189" height="517" viewBox="0 0 189 517" fill="none" xmlns="http://www.w3.org/2000/svg">
    <path d="M85.5478 75.2346C86.1526 75.2346 87.4377 75.2346 88.5717 75.6126C88.5717 76.5198 86.5558 77.2505 85.5478 77.5025C85.2958 76.7466 84.943 75.2346 85.5478 75.2346Z" fill="#013FA9"/>
    <path d="M53.5 26.5C52.0181 32.1697 48.0969 35.2982 47.8354 41.1525C47.5245 46.0251 45.9126 50.7252 43.1675 54.763C40.545 58.1459 37.1096 61.66 38.3684 72.1497H105.529C105.529 72.1497 108.151 66.9048 105.004 57.9099C101.298 46.8053 98.5687 35.398 96.8487 23.8182L53.5 26.5Z" fill="#BC664A"/>
    <path d="M63.3081 54.7631V77.0276C63.3081 77.0276 65.0651 84.7113 76.8399 84.7113C79.1775 84.9084 81.5019 84.203 83.3357 82.7399C85.1695 81.2768 86.3734 79.167 86.7003 76.844V54.7631H63.3081Z" fill="#FBBEAA"/>
    <path d="M86.7003 73.4086C79.305 76.8964 68.5268 73.7757 63.3081 64.099V54.7631H86.7003V73.4086Z" fill="#F18380"/>
    <path d="M101.307 37.7432C101.419 43.0765 101.182 48.4114 100.599 53.7138C99.6284 61.2665 96.9535 69.6583 83.5529 69.6583C70.1523 69.6583 63.3602 63.6267 60.4755 53.7138C58.7447 47.7085 55.2306 38.8709 56.6729 28.6171C58.1153 18.3634 64.278 11.7024 78.8325 11.3091C93.3871 10.9157 102.907 17.4718 101.307 37.7432Z" fill="#FBBEAA"/>
    <path d="M72.9845 42.3065C73.0778 42.6927 73.2774 43.045 73.5609 43.3234C73.8443 43.6018 74.2003 43.7952 74.5881 43.8814C74.9759 43.9677 75.3801 43.9435 75.7548 43.8115C76.1296 43.6796 76.4599 43.4452 76.7081 43.1349C76.9563 42.8247 77.1125 42.451 77.159 42.0565C77.2055 41.6619 77.1403 41.2622 76.971 40.9027C76.8017 40.5433 76.5349 40.2386 76.2011 40.0232C75.8673 39.8077 75.4798 39.6902 75.0825 39.6841C74.7704 39.7132 74.4674 39.8048 74.1915 39.9536C73.9157 40.1024 73.6726 40.3052 73.4768 40.5499C73.281 40.7947 73.1365 41.0763 73.0519 41.3781C72.9673 41.6799 72.9444 41.9956 72.9845 42.3065Z" fill="#403D4F"/>
    <path d="M92.4167 42.3065C92.51 42.6927 92.7096 43.045 92.9931 43.3234C93.2766 43.6018 93.6324 43.7952 94.0202 43.8814C94.408 43.9677 94.8123 43.9435 95.1871 43.8115C95.5618 43.6796 95.8921 43.4452 96.1403 43.1349C96.3885 42.8247 96.5447 42.451 96.5912 42.0565C96.6377 41.6619 96.5725 41.2622 96.4032 40.9027C96.2339 40.5433 95.9671 40.2386 95.6333 40.0232C95.2995 39.8077 94.9119 39.6902 94.5146 39.6841C94.2039 39.7166 93.9028 39.8106 93.6287 39.9604C93.3546 40.1103 93.1129 40.313 92.9178 40.557C92.7226 40.8009 92.5779 41.0812 92.4919 41.3815C92.4059 41.6818 92.3803 41.9962 92.4167 42.3065Z" fill="#403D4F"/>
    <path d="M79.3045 34.8852C79.3045 34.8852 79.3045 34.8853 79.0947 34.6755C78.8832 34.4698 78.645 34.2934 78.3866 34.151C78.0557 33.9617 77.7036 33.812 77.3377 33.7052C76.4845 33.4709 75.5979 33.3822 74.7152 33.4429C74.3441 33.462 73.9754 33.5147 73.6138 33.6003L72.5911 33.8887C72.4222 33.9431 72.2811 34.0612 72.1979 34.2179C72.1146 34.3746 72.0957 34.5575 72.1452 34.7279C72.1885 34.862 72.2723 34.9793 72.385 35.0639C72.4977 35.1484 72.6338 35.1959 72.7747 35.1999H74.7415C75.0819 35.1741 75.4238 35.1741 75.7642 35.1999C76.1012 35.231 76.4348 35.2924 76.7607 35.3835C77.1016 35.3835 77.3377 35.5671 77.5999 35.5933C77.7863 35.6717 77.9794 35.7332 78.1769 35.7769H78.4129C78.5765 35.8481 78.7616 35.8522 78.9283 35.7885C79.095 35.7247 79.2301 35.5982 79.3045 35.436C79.3434 35.3448 79.3636 35.2467 79.3636 35.1475C79.3636 35.0483 79.3434 34.9502 79.3045 34.859V34.8852Z" fill="#403D4F"/>
    <path d="M92.0756 35.8815C92.0756 35.8815 92.0756 35.8815 92.233 35.8815L92.6263 35.7242H92.9148C93.0185 35.7014 93.1258 35.7014 93.2295 35.7242C93.4613 35.6476 93.6978 35.5863 93.9375 35.5406C94.1815 35.5133 94.4278 35.5133 94.6718 35.5406H96.1666C96.255 35.5407 96.3425 35.5229 96.4238 35.4883C96.5051 35.4537 96.5785 35.4031 96.6398 35.3394C96.701 35.2757 96.7487 35.2003 96.7801 35.1177C96.8114 35.0351 96.8258 34.947 96.8222 34.8588C96.8172 34.7287 96.775 34.6027 96.7007 34.4958C96.6263 34.389 96.5229 34.3056 96.4026 34.2556L95.5897 33.9671C95.2996 33.8803 95.0004 33.8275 94.6981 33.8098C94.3416 33.7578 93.9794 33.7578 93.6229 33.8098C92.9383 33.8956 92.2877 34.1577 91.7347 34.5703L91.2364 35.0686C91.1053 35.2259 91.1053 35.2784 91.1053 35.3046V35.5406C91.0823 35.7207 91.1293 35.9028 91.2367 36.0492C91.344 36.1956 91.5036 36.2952 91.6823 36.3273C91.8619 36.2299 92.0013 36.0719 92.0756 35.8815Z" fill="#403D4F"/>
    <path d="M86.7001 51.2492C87.1421 51.2467 87.579 51.1548 87.9846 50.979C88.3902 50.8033 88.7561 50.5473 89.0602 50.2265C89.1713 50.1076 89.2567 49.967 89.3108 49.8136C89.365 49.6601 89.3868 49.4972 89.3749 49.3349C89.3749 49.0464 88.9291 45.4274 88.7717 44.09C88.7416 43.9606 88.6677 43.8456 88.5626 43.7644C88.4575 43.6832 88.3277 43.6407 88.1949 43.6442C88.0602 43.6638 87.9385 43.7349 87.8553 43.8425C87.7721 43.9502 87.734 44.0859 87.749 44.2211C87.749 44.4047 88.3259 49.1513 88.3784 49.466C88.1637 49.7037 87.9003 49.8923 87.6062 50.019C87.312 50.1457 86.994 50.2075 86.6738 50.2003C86.5393 50.207 86.4125 50.2652 86.3198 50.3629C86.227 50.4605 86.1754 50.5901 86.1755 50.7248C86.1819 50.8618 86.2392 50.9915 86.3362 51.0885C86.4332 51.1856 86.563 51.2429 86.7001 51.2492Z" fill="#F18380"/>
    <path d="M89.1125 56.4153C90.0828 56.6513 90.45 58.1198 89.8468 59.8244C89.2518 60.9981 88.2785 61.9368 87.0841 62.4888C85.8896 63.0408 84.5439 63.1738 83.2645 62.8664C82.5661 62.8333 81.8813 62.6607 81.2505 62.3591C80.6197 62.0574 80.0556 61.6326 79.5914 61.1097C79.1271 60.5868 78.7721 59.9764 78.5472 59.3143C78.3223 58.6522 78.2321 57.9519 78.2818 57.2544C78.2818 56.1268 79.0686 55.4712 80.5372 55.4712C83.4168 55.5481 86.2851 55.8638 89.1125 56.4153Z" fill="#73102A"/>
    <path d="M78.2818 57.3857V57.1496C80.2013 56.706 82.2174 56.9987 83.9315 57.9699C85.6455 58.9411 86.933 60.52 87.5391 62.3945C86.19 63.0557 84.6724 63.2933 83.1858 63.0763C82.487 63.0335 81.8038 62.8511 81.1766 62.5401C80.5493 62.229 79.9907 61.7955 79.5337 61.2652C79.0767 60.7348 78.7305 60.1183 78.5155 59.452C78.3005 58.7857 78.221 58.0831 78.2818 57.3857Z" fill="#D65155"/>
    <path d="M88.2732 57.9888C84.952 58.0403 81.6457 57.5351 78.4915 56.494C78.689 56.1368 78.9903 55.8478 79.3555 55.6652C79.7206 55.4826 80.1326 55.415 80.537 55.4713C83.4166 55.5482 86.2849 55.8639 89.1123 56.4154C89.3835 56.5088 89.6207 56.681 89.7935 56.9099C89.9663 57.1387 90.0669 57.414 90.0826 57.7004C89.5021 57.9064 88.8889 58.0041 88.2732 57.9888Z" fill="white"/>
    <path d="M73.693 27.4376C73.693 27.4376 71.0706 40.5498 59.9515 45.6373C59.9515 45.6373 51.6888 40.7858 53 28.2244C60.0662 30.7308 73.5357 -6.3918 95.4068 10.0771C97.531 9.73619 92.6818 16.7518 92 13.5C92.894 14.0617 96.0788 12.5319 96.5 13.5C96.9212 14.4681 100.262 12.963 100.064 14C99.8657 15.037 100.813 9.41615 100.064 10.1605C99.3153 10.9049 98.3593 11.4059 97.3212 11.5981C100.891 12.0955 99.2668 14.6706 101.5 17.5C103.733 20.3293 105.846 22.9121 105.5 26.5C105.388 28.7621 108.252 31.1855 106.66 32.7967C105.068 34.4078 102.938 35.3755 100.678 35.5147H96.8229C93.8406 34.1479 91.429 31.7827 90.0045 28.8275C90.3755 31.0551 91.1486 33.1967 92.2861 35.1476C92.4959 35.541 92.0238 36.2228 88.7982 35.541C85.0952 34.2672 82.0001 31.6584 80.118 28.2244C80.8231 30.4761 81.7636 32.6473 82.924 34.7018C82.924 35.0951 81.2194 35.6721 78.7018 34.5182C77.2996 33.9085 76.0913 32.9261 75.2082 31.6777C74.3251 30.4294 73.801 28.9629 73.693 27.4376Z" fill="#BC664A"/>
    <path d="M90.8959 37.7435C89.9519 37.7435 89.5847 39.4743 89.5847 41.1264C89.6811 43.3643 90.3492 45.5401 91.5253 47.4465C92.0065 48.0217 92.6305 48.4603 93.3348 48.7181C94.0391 48.9758 94.7988 49.0438 95.5376 48.9151C96.4373 49.0542 97.3566 48.9949 98.2309 48.7412C99.1052 48.4875 99.9134 48.0456 100.599 47.4465C102.042 45.6385 102.902 43.4344 103.064 41.1264C103.064 39.4743 102.566 37.7435 101.386 37.7435H90.8959Z" stroke="#403D4F" stroke-width="0.75" stroke-miterlimit="10"/>
    <path d="M82.976 37.7435C84.2348 37.7435 84.7331 39.4743 84.7331 41.1264C84.5611 43.4603 83.6415 45.6765 82.1106 47.4465C81.3859 48.0413 80.5454 48.479 79.6425 48.7319C78.7396 48.9847 77.794 49.0471 76.8657 48.9151C74.5087 49.2182 72.1191 48.6995 70.0998 47.4465C68.2582 45.8216 67.0892 43.5678 66.8218 41.1264C66.8218 39.4743 67.4512 37.7435 69.0509 37.7435H82.976Z" stroke="#403D4F" stroke-width="0.75" stroke-miterlimit="10"/>
    <path d="M89.7949 39.317C89.0413 38.7428 88.12 38.4318 87.1725 38.4318C86.225 38.4318 85.3037 38.7428 84.55 39.317" stroke="#403D4F" stroke-width="0.75" stroke-miterlimit="10"/>
    <path d="M68.9992 37.7435H65.7999C65.118 37.7435 64.3313 37.9008 64.3313 38.8187V40.2873C64.3313 40.6544 66.6653 41.3887 66.9537 42.2016" stroke="#403D4F" stroke-width="0.75" stroke-miterlimit="10"/>
    <path d="M57.3552 41.5727L64.3309 38.8191" stroke="#403D4F" stroke-width="0.75" stroke-miterlimit="10"/>
    <path d="M60.9469 47.5779C60.7371 44.0114 59.793 39.8417 55.4398 40.4711C50.3523 41.2578 49.854 55.0256 60.6847 53.3735L60.9469 47.5779Z" fill="#FBBEAA"/>
    <path d="M55.0735 48.4958C55.1647 48.497 55.2546 48.4733 55.3332 48.427C55.4118 48.3808 55.4762 48.3138 55.5194 48.2335C55.6346 48.0065 55.8059 47.8127 56.017 47.6704C56.2281 47.5281 56.472 47.4421 56.7257 47.4206C57.0283 47.4239 57.3249 47.5053 57.5868 47.6569C57.8487 47.8085 58.067 48.0252 58.2205 48.286C58.2832 48.3757 58.3736 48.4422 58.4778 48.4754C58.5821 48.5086 58.6944 48.5065 58.7974 48.4695C58.9084 48.4388 59.0045 48.3685 59.0673 48.2719C59.1301 48.1753 59.1553 48.059 59.1383 47.9451C59.0929 46.842 58.7495 45.7719 58.1446 44.8484C57.5397 43.9249 56.696 43.1825 55.7029 42.7002C55.6362 42.6605 55.5615 42.6362 55.4842 42.6289C55.4069 42.6217 55.329 42.6316 55.256 42.6581C55.183 42.6846 55.1169 42.727 55.0623 42.7822C55.0077 42.8374 54.966 42.904 54.9403 42.9772C54.9145 43.0505 54.9054 43.1285 54.9134 43.2057C54.9215 43.2829 54.9466 43.3574 54.987 43.4237C55.0273 43.49 55.0819 43.5466 55.1468 43.5892C55.2116 43.6319 55.2851 43.6597 55.362 43.6705C55.9514 43.9569 56.4763 44.3604 56.9046 44.8564C57.3329 45.3524 57.6557 45.9304 57.8534 46.5552C57.4874 46.3747 57.0805 46.2933 56.6732 46.3191C56.2493 46.3592 55.8416 46.502 55.4852 46.735C55.1288 46.968 54.8345 47.2843 54.6277 47.6566C54.5703 47.7757 54.56 47.9122 54.5989 48.0387C54.6378 48.1651 54.723 48.2722 54.8375 48.3384L55.0735 48.4958Z" fill="#F18380"/>
    <path d="M32.0445 222.601C32.5778 215.886 39.7779 190.14 47.5114 175.473C47.5114 175.473 64.3823 177.604 75.2464 177.639C86.5816 177.676 104.191 175.473 104.191 175.473C109.234 186.891 114.979 211.837 116.652 217.219C117.662 220.386 117.784 223.768 117.007 226.999C116.229 230.231 114.58 233.187 112.24 235.547C106.494 242.068 91.6819 249.535 88.2636 249.535C73.5573 247.434 59.1425 243.643 45.3053 238.238C37.4991 234.965 31.5354 229.341 32.0445 222.601Z" fill="#013EA5"/>
    <path d="M165.937 82.7679C166.037 80.5833 165.452 78.4221 164.265 76.586C162.436 74.4654 161.065 71.9891 160.24 69.3131C159.605 66.8291 158.591 64.4577 157.234 62.2826C156.264 60.9493 154.81 59.8584 154.81 58.8402C154.81 57.822 156.749 55.8583 159.513 56.4159C160.697 56.7847 161.784 57.4106 162.698 58.2488C163.612 59.087 164.329 60.1168 164.798 61.2645C165.063 60.5652 165.218 59.8293 165.258 59.0826L165.865 44.2218C165.874 43.8365 165.96 43.457 166.118 43.1057C166.277 42.7543 166.504 42.4383 166.786 42.1761C167.069 41.914 167.401 41.7111 167.763 41.5795C168.125 41.4478 168.51 41.3901 168.895 41.4096C169.508 41.4357 170.097 41.6533 170.579 42.0316C171.062 42.4099 171.414 42.93 171.586 43.5187V42.8399C171.679 42.1175 172.042 41.4571 172.602 40.9913C173.162 40.5255 173.878 40.2887 174.605 40.3286C175.332 40.3685 176.018 40.6821 176.523 41.2064C177.029 41.7306 177.318 42.4268 177.331 43.1551V45.2157C177.574 44.5804 178.037 44.0535 178.636 43.731C179.235 43.4086 179.93 43.312 180.594 43.4589C181.258 43.6058 181.847 43.9864 182.254 44.5314C182.661 45.0764 182.858 45.7495 182.81 46.4279V47.7369C183.071 47.2784 183.46 46.9058 183.929 46.6647C184.399 46.4236 184.928 46.3244 185.453 46.3793C186.171 46.4706 186.826 46.8379 187.279 47.4035C187.731 47.9691 187.946 48.6886 187.877 49.4097L186.689 61.9433C185.911 69.0095 184.45 75.9837 182.325 82.7679C182.3 83.9006 182.037 85.0154 181.555 86.0407C181.073 87.0659 180.381 87.979 179.525 88.721C178.669 89.4631 177.667 90.0177 176.583 90.3494C175.5 90.681 174.359 90.7824 173.234 90.6468C172.216 90.6808 171.203 90.4954 170.263 90.1033C169.323 89.7112 168.478 89.1215 167.786 88.3742C167.094 87.6269 166.571 86.7395 166.252 85.7722C165.933 84.8049 165.826 83.7803 165.937 82.7679Z" fill="#FBBEAA"/>
    <path d="M84.239 478.411C84.239 476.077 85.1662 473.839 86.8165 472.188C88.4669 470.538 90.7052 469.611 93.0392 469.611C95.3731 469.611 97.6115 470.538 99.2618 472.188C100.912 473.839 101.839 476.077 101.839 478.411V497.539H84.239V478.411Z" fill="#FBBEAA"/>
    <path d="M101.21 481.975C103.367 481.975 103.755 482.92 104.386 484.157C105.408 487.452 107.156 490.475 109.501 493.005C113.002 495.987 116.758 498.656 120.725 500.981V511.115H81.5488C81.5488 511.115 81.8155 503.115 82.0094 497.466C82.2034 491.818 82.761 484.933 82.7125 484.205C82.664 483.478 82.7125 481.975 84.0458 481.975H101.21Z" fill="#302D3B"/>
    <path d="M86.4207 498.023C86.4159 499.267 86.7807 500.485 87.4688 501.521C88.1569 502.557 89.1373 503.366 90.2856 503.844C91.4339 504.322 92.6984 504.448 93.9186 504.207C95.1389 503.965 96.2598 503.367 97.1394 502.487C98.019 501.608 98.6175 500.487 98.859 499.267C99.1005 498.046 98.9741 496.782 98.4959 495.634C98.0176 494.485 97.2091 493.505 96.1728 492.817C95.1365 492.129 93.9193 491.764 92.6754 491.769C91.0185 491.775 89.4313 492.436 88.2597 493.608C87.0881 494.779 86.4271 496.366 86.4207 498.023Z" fill="#0447BA"/>
    <path d="M92.6757 494.339L91.2454 496.448L88.7969 497.151L90.3484 499.163L90.2757 501.708L92.6757 500.836L95.0758 501.708L94.9788 499.163L96.5546 497.151L94.1061 496.448L92.6757 494.339Z" fill="white"/>
    <path d="M120.458 500.812C120.458 500.812 126.01 503.745 128.095 505.175C129.06 505.829 129.844 506.717 130.374 507.755C130.904 508.794 131.162 509.95 131.125 511.115H115.9C115.9 511.115 116.216 503.672 120.458 500.812Z" fill="white"/>
    <path d="M81.5488 511.115V515.309C81.5488 516.012 82.1792 516.4 83.2459 516.4H129.453C130.495 516.4 131.125 516.012 131.125 515.309V511.115H81.5488Z" fill="white"/>
    <path d="M115.9 497.975C116.035 497.769 116.244 497.623 116.484 497.569C116.724 497.515 116.975 497.556 117.185 497.684C117.29 497.748 117.38 497.833 117.452 497.933C117.523 498.033 117.574 498.146 117.601 498.265C117.628 498.385 117.631 498.509 117.61 498.63C117.588 498.751 117.543 498.866 117.476 498.969L115.852 501.587C115.774 501.723 115.66 501.835 115.524 501.912C115.387 501.989 115.233 502.027 115.076 502.024C114.897 502.021 114.721 501.971 114.567 501.878C114.462 501.814 114.372 501.729 114.3 501.63C114.229 501.53 114.178 501.417 114.151 501.297C114.124 501.177 114.121 501.053 114.143 500.933C114.164 500.812 114.209 500.696 114.276 500.593L115.9 497.975Z" fill="white"/>
    <path d="M113.04 495.963C113.119 495.87 113.216 495.795 113.325 495.74C113.434 495.685 113.553 495.652 113.674 495.643C113.796 495.634 113.918 495.649 114.034 495.687C114.15 495.726 114.257 495.786 114.349 495.866C114.441 495.945 114.517 496.042 114.572 496.151C114.627 496.26 114.66 496.379 114.669 496.5C114.678 496.622 114.663 496.744 114.624 496.86C114.586 496.975 114.526 497.083 114.446 497.175L112.555 499.405C112.468 499.507 112.36 499.59 112.239 499.649C112.118 499.707 111.986 499.74 111.852 499.745C111.676 499.741 111.505 499.689 111.358 499.594C111.21 499.499 111.092 499.364 111.016 499.206C110.941 499.047 110.911 498.871 110.93 498.696C110.949 498.522 111.017 498.356 111.125 498.217L113.04 495.963Z" fill="white"/>
    <path d="M110.349 493.709C110.542 493.584 110.774 493.534 111.001 493.568C111.227 493.602 111.434 493.717 111.583 493.892C111.731 494.067 111.811 494.29 111.807 494.519C111.803 494.749 111.716 494.969 111.561 495.139L109.404 497.006C109.235 497.149 109.019 497.226 108.798 497.224C108.664 497.229 108.531 497.203 108.41 497.148C108.288 497.093 108.18 497.011 108.095 496.909C108.005 496.825 107.934 496.723 107.885 496.611C107.836 496.498 107.811 496.377 107.811 496.254C107.811 496.131 107.836 496.01 107.885 495.897C107.934 495.785 108.005 495.683 108.095 495.6L110.349 493.709Z" fill="white"/>
    <path d="M105.621 492.593L108.046 491.09C108.258 490.964 108.512 490.927 108.752 490.986C108.992 491.045 109.2 491.195 109.33 491.405C109.396 491.51 109.44 491.626 109.46 491.748C109.479 491.87 109.474 491.995 109.445 492.114C109.415 492.234 109.362 492.347 109.289 492.446C109.215 492.545 109.122 492.628 109.015 492.69L106.591 494.193C106.447 494.289 106.279 494.339 106.106 494.339C105.948 494.335 105.794 494.291 105.658 494.21C105.522 494.129 105.409 494.015 105.33 493.878C105.202 493.668 105.161 493.417 105.215 493.177C105.27 492.937 105.415 492.727 105.621 492.593Z" fill="white"/>
    <path d="M103.585 489.466L106.3 488.327C106.532 488.23 106.792 488.23 107.024 488.325C107.256 488.421 107.44 488.605 107.536 488.836C107.584 488.949 107.608 489.07 107.608 489.192C107.608 489.315 107.584 489.436 107.536 489.549C107.489 489.662 107.419 489.764 107.332 489.85C107.245 489.935 107.141 490.003 107.027 490.048L104.312 491.188H103.949C103.739 491.176 103.54 491.096 103.381 490.959C103.223 490.822 103.114 490.637 103.073 490.431C103.031 490.226 103.059 490.013 103.151 489.825C103.244 489.637 103.397 489.485 103.585 489.394V489.466Z" fill="white"/>
    <path d="M101.888 485.975L104.894 485.223C105.132 485.165 105.383 485.204 105.592 485.332C105.802 485.459 105.952 485.664 106.009 485.902C106.067 486.14 106.028 486.391 105.901 486.6C105.774 486.809 105.569 486.959 105.331 487.017L102.349 487.793H102.131C101.922 487.791 101.719 487.721 101.553 487.594C101.387 487.468 101.267 487.291 101.209 487.09C101.157 486.852 101.199 486.604 101.325 486.396C101.452 486.189 101.653 486.038 101.888 485.975Z" fill="white"/>
    <path d="M71.366 356.082C71.6326 344.348 79.5358 338.676 91.245 338.967C102.954 339.257 111.391 345.391 111.124 357.1L101.839 479.357H84.2389L71.366 356.082Z" fill="#FBBEAA"/>
    <path d="M69.84 356.009C69.9052 353.223 70.5185 350.478 71.6449 347.929C72.7712 345.38 74.3885 343.078 76.4044 341.155C78.4203 339.231 80.7953 337.723 83.3939 336.718C85.9925 335.712 88.7637 335.228 91.5494 335.293C94.3351 335.359 97.0806 335.972 99.6292 337.098C102.178 338.224 104.48 339.842 106.403 341.858C108.327 343.874 109.835 346.249 110.84 348.847C111.846 351.446 112.33 354.217 112.265 357.003L115.178 483.465H67.2502L69.84 356.009Z" fill="#013EA5"/>
    <path d="M10.0562 478.411C10.0562 476.077 10.9833 473.839 12.6337 472.188C14.284 470.538 16.5224 469.611 18.8563 469.611C21.1903 469.611 23.4286 470.538 25.079 472.188C26.7293 473.839 27.6565 476.077 27.6565 478.411V497.539H10.0562V478.411Z" fill="#FBBEAA"/>
    <path d="M27.0019 481.975C29.1838 481.975 29.5717 482.92 30.1778 484.157C31.2117 487.452 32.9675 490.475 35.3172 493.005C38.8136 495.993 42.5701 498.662 46.5417 500.981V511.115H7.36523C7.36523 511.115 7.63191 503.115 7.82585 497.466C8.0198 491.818 8.55316 484.933 8.52892 484.205C8.50467 483.478 8.5289 481.975 9.83801 481.975H27.0019Z" fill="#302D3B"/>
    <path d="M12.2142 498.023C12.2094 499.266 12.5735 500.482 13.2605 501.518C13.9476 502.554 14.9265 503.363 16.0734 503.842C17.2203 504.32 18.4835 504.448 19.7031 504.209C20.9227 503.969 22.0437 503.373 22.9243 502.496C23.8048 501.619 24.4052 500.5 24.6495 499.281C24.8937 498.063 24.7708 496.799 24.2963 495.65C23.8218 494.502 23.017 493.52 21.9839 492.829C20.9509 492.137 19.736 491.769 18.4931 491.769C16.832 491.769 15.2386 492.427 14.0618 493.599C12.885 494.771 12.2206 496.362 12.2142 498.023Z" fill="#0447BA"/>
    <path d="M18.4687 494.339L17.0384 496.448L14.5898 497.151L16.1657 499.163L16.0929 501.708L18.4687 500.836L20.8688 501.708L20.796 499.163L22.3718 497.151L19.899 496.448L18.4687 494.339Z" fill="white"/>
    <path d="M46.2505 500.812C46.2505 500.812 51.8263 503.745 53.887 505.175C54.8571 505.824 55.6449 506.711 56.1754 507.751C56.7059 508.79 56.9613 509.949 56.9173 511.115H41.6201C41.6201 511.115 42.0323 503.672 46.2505 500.812Z" fill="white"/>
    <path d="M7.36523 511.115V515.309C7.36523 516.012 7.97131 516.4 9.038 516.4H55.2933C56.36 516.4 56.9661 516.012 56.9661 515.309V511.115H7.36523Z" fill="white"/>
    <path d="M41.7175 497.975C41.8493 497.766 42.0587 497.618 42.2997 497.564C42.5406 497.509 42.7934 497.552 43.0023 497.684C43.2113 497.816 43.3593 498.025 43.4139 498.266C43.4685 498.507 43.4251 498.76 43.2933 498.969L41.669 501.587C41.5849 501.723 41.467 501.835 41.3267 501.911C41.1865 501.988 41.0287 502.027 40.869 502.024C40.6965 502.024 40.5278 501.974 40.3841 501.878C40.2796 501.814 40.189 501.729 40.1176 501.63C40.0462 501.53 39.9954 501.417 39.9683 501.297C39.9412 501.177 39.9383 501.053 39.9597 500.933C39.9812 500.812 40.0266 500.696 40.0932 500.593L41.7175 497.975Z" fill="white"/>
    <path d="M38.8321 495.963C38.9919 495.777 39.2178 495.66 39.4621 495.637C39.7064 495.615 39.9499 495.688 40.1412 495.842C40.3289 496.006 40.4462 496.236 40.4688 496.484C40.4914 496.732 40.4175 496.98 40.2624 497.175L38.3472 499.405C38.2632 499.511 38.1563 499.597 38.0345 499.655C37.9128 499.714 37.7793 499.745 37.6442 499.745C37.4665 499.747 37.292 499.697 37.1419 499.602C36.9918 499.507 36.8724 499.37 36.798 499.209C36.7237 499.047 36.6977 498.868 36.7231 498.692C36.7485 498.516 36.8242 498.351 36.9411 498.217L38.8321 495.963Z" fill="white"/>
    <path d="M36.1658 493.709C36.3587 493.584 36.5902 493.534 36.8171 493.568C37.0441 493.602 37.251 493.717 37.3994 493.892C37.5477 494.067 37.6273 494.29 37.6234 494.519C37.6195 494.749 37.5322 494.969 37.378 495.139L35.1961 497.006C35.027 497.149 34.8118 497.226 34.5901 497.224C34.4568 497.227 34.3246 497.2 34.203 497.146C34.0814 497.091 33.9734 497.01 33.887 496.909C33.8005 496.823 33.7319 496.721 33.685 496.609C33.6381 496.496 33.614 496.376 33.614 496.254C33.614 496.132 33.6381 496.012 33.685 495.899C33.7319 495.787 33.8005 495.685 33.887 495.6L36.1658 493.709Z" fill="white"/>
    <path d="M31.4384 492.593L33.8627 491.09C34.0718 491.002 34.3057 490.992 34.5217 491.062C34.7376 491.132 34.9212 491.277 35.0389 491.471C35.1565 491.665 35.2004 491.895 35.1625 492.119C35.1246 492.343 35.0074 492.546 34.8324 492.69L32.4081 494.193C32.2644 494.289 32.0957 494.339 31.9233 494.339C31.7617 494.337 31.6033 494.293 31.4632 494.213C31.3232 494.132 31.2061 494.017 31.1233 493.878C30.9973 493.665 30.9598 493.412 31.0187 493.171C31.0776 492.931 31.2283 492.724 31.4384 492.593Z" fill="white"/>
    <path d="M165.647 84.3926L155.95 145.266C154.35 152.903 156.822 159.812 165.647 161.024C167.276 161.236 168.931 161.115 170.511 160.668C172.092 160.221 173.565 159.458 174.842 158.424C176.118 157.39 177.171 156.107 177.937 154.654C178.702 153.201 179.165 151.607 179.295 149.969L182.253 84.5138C183.029 78.3319 180.338 74.2106 175.635 73.7015C169.865 73.0712 166.81 76.4895 165.647 84.3926Z" fill="#FBBEAA"/>
    <path d="M29.4027 489.466L32.1179 488.327C32.2308 488.28 32.352 488.255 32.4744 488.255C32.5968 488.255 32.7179 488.28 32.8308 488.327C32.9436 488.374 33.0459 488.444 33.1316 488.531C33.2174 488.619 33.2848 488.722 33.3301 488.836C33.4206 489.062 33.4207 489.313 33.3304 489.539C33.2401 489.765 33.0664 489.947 32.8452 490.048L30.1058 491.188C29.994 491.213 29.8781 491.213 29.7664 491.188C29.5797 491.188 29.3972 491.132 29.2419 491.029C29.0866 490.925 28.9654 490.778 28.8936 490.606C28.82 490.387 28.8315 490.148 28.9258 489.937C29.0201 489.726 29.1904 489.558 29.4027 489.466Z" fill="white"/>
    <path d="M27.7046 485.975L30.6865 485.224C30.9275 485.165 31.182 485.203 31.3952 485.33C31.6083 485.457 31.763 485.662 31.8259 485.902C31.8548 486.02 31.8601 486.142 31.8417 486.262C31.8232 486.382 31.7812 486.497 31.7181 486.601C31.655 486.704 31.5721 486.795 31.4741 486.866C31.3761 486.938 31.265 486.989 31.1471 487.017L28.1652 487.793H27.9228C27.7044 487.777 27.4985 487.684 27.3405 487.533C27.1824 487.381 27.0819 487.179 27.0561 486.962C27.0304 486.744 27.081 486.524 27.1992 486.34C27.3175 486.156 27.4961 486.018 27.7046 485.951V485.975Z" fill="white"/>
    <path d="M19.681 355.718C20.8718 350.215 24.1992 345.41 28.9317 342.36C33.6641 339.309 39.4142 338.263 44.9178 339.451C56.3846 341.875 62.5665 353.173 60.0938 364.639L27.6569 481.369H9.83838L19.681 355.718Z" fill="#FBBEAA"/>
    <path d="M19.6809 353.415C20.9966 348.044 24.3552 343.398 29.0427 340.465C33.7302 337.532 39.3768 336.543 44.7822 337.708C50.1876 338.873 54.9254 342.1 57.9885 346.704C61.0515 351.308 62.1981 356.924 61.1846 362.36L49.7857 482.331C49.7857 482.331 18.9003 484.174 0.5 482.331L19.6809 353.415Z" fill="#013EA5"/>
    <path d="M173.526 138.527L103.9 85.6288C95.7791 80.4408 90.2518 83.2045 85.9366 88.7561C83.9659 91.4432 83.0522 94.7611 83.3696 98.0782C83.687 101.395 85.2133 104.48 87.6578 106.744L157.114 157.921C159.561 159.988 162.712 161.031 165.91 160.832C169.107 160.634 172.105 159.209 174.277 156.854L174.593 156.515C175.746 155.285 176.636 153.832 177.21 152.247C177.783 150.661 178.027 148.975 177.927 147.291C177.828 145.608 177.386 143.963 176.629 142.456C175.872 140.949 174.816 139.612 173.526 138.527Z" fill="#FBBEAA"/>
    <path d="M87.6575 106.72C87.0146 106.167 86.4298 105.55 85.912 104.878C85.4542 103.152 85.3953 101.345 85.7397 99.5938C86.0842 97.8422 86.8229 96.1921 87.9 94.7685C91.5606 89.1199 99.2456 84.6835 102.664 85.532L106.058 87.2532L144.483 116.345C141.082 124.337 136.488 131.767 130.858 138.381L87.6575 106.72Z" fill="#F18380"/>
    <path d="M98.1544 81.8468L158.407 122.484C158.153 124.562 163.036 81.8468 163.036 81.8468L185.337 83.9284C185.337 83.9284 184.035 127.418 180.753 150.386C179.45 159.501 171.863 162.957 162.867 160.995C158.426 160.026 154.244 158.203 150.523 155.591C134.534 144.368 89.6764 112.757 86.0088 108.781C79.6814 101.92 79.6814 96.7804 83.3178 91.1318C86.9543 85.4832 94.7362 80.9983 98.1544 81.8468Z" fill="#013EA5"/>
    <path d="M69.8389 356.009L57.4023 225.801C57.4023 211.425 72.2147 195.764 94.0575 199.134C113.791 202.213 119.803 222.043 118.179 240.832C116.555 259.62 112.167 356.93 112.167 356.93C112.102 359.716 111.488 362.462 110.362 365.01C109.236 367.559 107.618 369.861 105.603 371.784C103.587 373.708 101.212 375.216 98.613 376.221C96.0144 377.227 93.2431 377.711 90.4575 377.646C87.6718 377.581 84.9263 376.967 82.3776 375.841C79.829 374.715 77.5271 373.097 75.6035 371.081C73.6799 369.066 72.1722 366.691 71.1665 364.092C70.1608 361.493 69.6767 358.722 69.742 355.936L69.8389 356.009Z" fill="#013EA5"/>
    <path d="M19.6811 353.415L32.045 223.231C34.6632 209.098 52.2393 196.564 73.0639 203.982C91.8521 210.698 94.0339 231.304 88.8944 249.462C83.7549 267.62 61.1849 362.361 61.1849 362.361C59.8691 367.731 56.5105 372.377 51.8231 375.31C47.1356 378.243 41.4889 379.233 36.0836 378.068C30.6782 376.903 25.9403 373.675 22.8773 369.071C19.8143 364.468 18.6676 358.851 19.6811 353.415Z" fill="#013EA5"/>
    <path d="M88.8941 249.462C83.7789 267.62 61.1846 362.361 61.1846 362.361" stroke="#E9E9E9" stroke-width="0.75" stroke-miterlimit="10"/>
    <path d="M85.2574 79.786C85.2574 79.786 95.9728 81.6527 98.0577 82.2103C99.2881 82.499 100.425 83.0953 101.362 83.9433C102.299 84.7913 103.006 85.8633 103.415 87.0588C104.749 90.2346 111.609 111.035 112.24 113.29C112.666 115.773 112.266 118.328 111.1 120.562C110.106 123.278 104.967 135.642 104.967 135.642L104.191 175.472L75.2465 180.063L47.5114 175.472C47.5114 175.472 37.8142 101.386 37.3294 96.8045C36.8445 92.2226 39.1233 83.374 44.6022 82.2588C50.0811 81.1436 65.1117 79.8345 65.1117 79.8345L85.2574 79.786Z" fill="#FBBEAA"/>
    <path d="M105.55 159.457V173.46C86.5924 175.206 56.3846 173.97 45.039 173.46C44.5056 169.46 43.948 162.672 43.3662 158.163C58.8089 158.551 84.3136 159.99 105.55 159.457Z" fill="white"/>
    <path d="M5.57125 171.909L36.6263 90.1862C40.7718 81.4588 46.9053 80.877 53.5963 83.3013C56.6911 84.5358 59.2226 86.8671 60.7073 89.8499C62.192 92.8327 62.5258 96.2579 61.6449 99.4713L29.6686 179.739C28.6994 182.793 26.5847 185.353 23.7685 186.88C20.9524 188.408 17.6538 188.786 14.5653 187.933L14.1047 187.812C12.4756 187.368 10.954 186.596 9.63286 185.544C8.31168 184.492 7.21855 183.183 6.4201 181.695C5.62164 180.207 5.13461 178.571 4.98867 176.889C4.84273 175.207 5.04095 173.512 5.57125 171.909Z" fill="#FBBEAA"/>
    <path d="M18.4438 138.017L36.626 90.1861C37.1136 89.1372 37.6894 88.1316 38.3472 87.18C40.5744 85.7856 43.1241 84.9904 45.749 84.8715C48.374 84.7525 50.9852 85.3139 53.3293 86.5012C56.0514 87.8258 58.2394 90.0403 59.5312 92.7781C60.8229 95.5159 61.1409 98.6128 60.4324 101.556C60.4324 101.847 60.2628 102.405 60.1173 103.156L41.3533 150.308C33.1573 147.353 25.4388 143.212 18.4438 138.017Z" fill="#F18380"/>
    <path d="M39.0552 84.6843C33.7633 91.4883 3.146 174.646 3.146 174.646C31.4953 165.574 28.8352 141.057 44.2537 143.651C44.2537 143.651 62.0332 101.92 62.712 98.1866C63.4205 95.2434 63.1025 92.1466 61.8108 89.4088C60.519 86.671 58.331 84.4564 55.6089 83.1318C48.0209 79.253 44.347 77.8803 39.0552 84.6843Z" fill="#0045BA"/>
    <path d="M90.4958 79.7705C96.099 80.836 98.6313 80.9633 100.054 81.9015C102.305 83.4118 113.897 103.876 113.897 113.111C113.897 121.28 111.92 186.631 110.272 187.696C108.624 188.762 79.1221 190.144 79.1221 190.144V97.604C82.1163 88.3363 88.3722 85.7659 90.4958 79.7705Z" fill="#0045BA"/>
    <path d="M100.054 81.9015C98.6313 80.9633 93.041 80.08 87.4379 79.0145C85.3143 85.0099 82.1163 88.3363 79.1221 97.604V113.111H113.897C113.897 103.876 102.305 83.4118 100.054 81.9015Z" fill="#9A99A1"/>
    <path d="M78.7442 76.7466C71.7892 76.7466 65.5145 73.7226 63.2466 72.2107V79.0145C63.4986 79.3925 65.4389 80.6021 71.1844 82.4164C76.9299 84.2308 85.1701 83.5504 88.572 82.4164V75.6126C88.572 75.9906 87.438 76.7466 78.7442 76.7466Z" fill="#034CC9"/>
    <path d="M113.886 114.546H79.1221V106.986L112.898 107.316C113.557 109.915 113.971 111.771 113.886 114.546Z" fill="#D3D4D2"/>
    <path d="M34.6022 183.447C34.6022 175.879 33.4012 157.888 40.1418 140.473C46.0074 141.894 58.7554 98.7417 46.0074 84.3585C41.7711 79.5788 38.0473 86.495 39.1642 84.7136C40.2811 82.9323 41.5191 81.1839 43.3432 80.3454C46.5975 78.7665 53.8282 79.0312 60.3456 79.0312C68.1665 88.6204 76.2669 90.7551 79.1223 97.6198V190.11C79.1223 190.11 34.6022 191.015 34.6022 183.447Z" fill="#034CC9"/>
    <path d="M34.6022 183.447C34.6022 175.879 33.4012 157.888 40.1418 140.473C46.0074 141.894 58.7554 98.7417 46.0074 84.3585C41.7711 79.5788 38.0473 86.495 39.1642 84.7136C40.2811 82.9323 41.5191 81.1839 43.3432 80.3454C46.5975 78.7665 53.8282 79.0312 60.3456 79.0312C68.1665 88.6204 76.2669 90.7551 79.1223 97.6198V190.11C79.1223 190.11 34.6022 191.015 34.6022 183.447Z" fill="#034CC9"/>
    <path d="M39.0548 84.6844C37.9378 86.4658 41.7706 79.5787 46.0069 84.3584C51.362 90.4004 52.2181 101.519 50.9751 112.278H79.1218L79.1218 83.5504C71.562 82.7944 67.7821 81.6605 63.2462 79.0145C56.7288 79.0145 46.4668 78.5696 43.2126 80.1485C41.3885 80.987 40.1717 82.9031 39.0548 84.6844Z" fill="#A2A0AB"/>
    <path d="M79.1221 190.144C81.0537 189.496 82.7441 188.247 83.9621 186.569C85.18 184.891 85.8659 182.865 85.9259 180.768V77.1245H79.1221V190.144Z" fill="#034CC9"/>
    <path d="M51.3982 106.986H85.9258V114.546H50.6903C51.1507 111.144 51.3982 109.632 51.3982 106.986Z" fill="#CFD1CE"/>
    <g style="mix-blend-mode:multiply" opacity="0.4">
        <path d="M78.3662 83.3955L79.1222 83.5504V190.144H78.3662V83.3955Z" fill="#013FA9"/>
    </g>
    <path d="M67.8269 133.532L29.2323 181.606C24.6504 187.909 17.8624 190.721 11.0987 185.048C9.84769 183.985 8.82565 182.679 8.09456 181.209C7.36347 179.74 6.93856 178.137 6.84562 176.498C6.75267 174.859 6.99363 173.218 7.55386 171.675C8.11409 170.132 8.98192 168.718 10.1047 167.521L56.6025 121.459C60.651 116.732 65.5238 115.98 69.0633 119.035C73.3543 122.841 72.8452 127.302 67.8269 133.532Z" fill="#FBBEAA"/>
    <path d="M54.275 123.981C58.566 119.641 66.5904 110.283 69.3056 108.005C71.9903 105.982 74.9234 104.311 78.033 103.035C80.3922 102.244 82.8312 101.716 85.3059 101.459C87.0271 101.241 87.7302 101.75 87.7302 102.792C87.6869 103.413 87.489 104.014 87.1545 104.539C86.82 105.064 86.3595 105.497 85.815 105.798H88.9908C90.0817 105.798 90.7847 106.671 90.2756 108.077C89.8133 109.006 89.1523 109.822 88.3396 110.467C87.5268 111.113 86.5822 111.571 85.5725 111.811C85.5725 111.811 89.8635 112.223 90.9544 112.441C92.0454 112.659 92.3848 113.071 92.3848 114.114C92.3754 114.834 92.1752 115.539 91.8047 116.156C91.4342 116.774 90.9066 117.282 90.2756 117.629C88.7312 118.256 87.0919 118.616 85.4271 118.696C85.4271 118.696 90.7363 120.029 91.8029 120.417C92.8696 120.805 92.9909 121.508 92.4333 122.429C92.1155 123.078 91.6567 123.648 91.0905 124.096C90.5242 124.545 89.8648 124.862 89.1605 125.023C87.1483 125.556 85.7907 124.684 85.0634 124.805C83.5008 125.308 81.9706 125.907 80.4816 126.599C78.2454 128.825 75.5114 130.487 72.5057 131.447C70.2683 132.386 68.216 133.716 66.445 135.375C65.62 136.149 64.6481 136.75 63.5869 137.142C62.5256 137.534 61.3966 137.709 60.2664 137.657C59.1363 137.605 58.0281 137.327 57.0073 136.839C55.9865 136.351 55.0739 135.664 54.3235 134.817C50.4447 130.696 51.0992 127.253 54.275 123.981Z" fill="#FBBEAA"/>
    <path d="M68.5383 138.737L29.5118 182.622C24.8351 188.855 13.9066 192.281 7.22946 186.506C5.99468 185.424 4.99252 184.103 4.28376 182.622C3.57499 181.141 3.17438 179.532 3.10624 177.892C3.03811 176.252 3.30386 174.615 3.88738 173.08C4.47089 171.546 5.36001 170.146 6.50081 168.966L53.7966 119.46L68.5383 138.737Z" fill="#0045BA"/>
    <path d="M85.282 105.823C85.2889 105.863 85.2873 105.904 85.2773 105.943C85.2673 105.983 85.2492 106.02 85.2241 106.052C85.199 106.084 85.1674 106.11 85.1314 106.129C85.0955 106.148 85.056 106.159 85.0154 106.162L83.0275 106.356H82.0578C81.7184 106.356 81.4032 106.477 81.0638 106.501C80.7053 106.609 80.3565 106.747 80.0214 106.914L78.9062 107.374C77.4031 107.98 75.9001 108.538 74.7849 108.95C73.6697 109.362 72.894 109.605 72.894 109.605C72.8325 109.63 72.7635 109.632 72.7007 109.61C72.6379 109.587 72.5857 109.542 72.5546 109.483C72.5093 109.424 72.4849 109.352 72.4849 109.277C72.4849 109.203 72.5093 109.13 72.5546 109.071L74.3728 108.126L76.2637 107.229C76.9425 106.914 77.694 106.598 78.4455 106.307L79.585 105.871C79.9514 105.705 80.333 105.576 80.7244 105.483L81.8881 105.362H82.882H84.3608H84.9184C84.9795 105.314 85.0572 105.292 85.1345 105.301C85.2118 105.31 85.2824 105.349 85.3306 105.41C85.3788 105.472 85.4008 105.549 85.3917 105.627C85.3826 105.704 85.3431 105.774 85.282 105.823ZM84.8214 111.665H84.3851C84.0222 111.633 83.657 111.633 83.2941 111.665L82.5426 111.786C82.2656 111.821 81.9905 111.87 81.7183 111.932L80.0699 112.465C78.9547 112.829 77.8638 113.289 77.0395 113.629C77.0395 113.629 76.7728 113.629 76.7971 113.75H76.5062L76.0698 113.871H75.8031H75.6576C75.5844 113.889 75.5208 113.934 75.4802 113.997C75.4395 114.06 75.4249 114.137 75.4395 114.211C75.45 114.269 75.4796 114.322 75.5234 114.361C75.5673 114.401 75.623 114.424 75.6819 114.429H76.9183H77.3061C78.1546 114.211 79.294 113.871 80.4092 113.483L82.0335 112.877L82.785 112.683L83.4396 112.489C83.7744 112.39 84.1143 112.309 84.4578 112.247L84.87 112.126C84.9066 112.115 84.9407 112.096 84.9703 112.072C84.9999 112.048 85.0244 112.018 85.0424 111.984C85.0604 111.95 85.0716 111.913 85.0753 111.875C85.0789 111.837 85.0751 111.799 85.0639 111.762C85.0352 111.727 84.9978 111.699 84.9553 111.682C84.9129 111.665 84.8668 111.659 84.8214 111.665ZM84.8214 118.55H83.9245C83.682 118.55 83.3669 118.55 83.0517 118.72L82.0578 119.035C81.4323 119.255 80.8245 119.523 80.2396 119.835C79.9706 119.961 79.7113 120.107 79.4638 120.271C79.4143 120.329 79.3871 120.402 79.3871 120.477C79.3871 120.553 79.4143 120.626 79.4638 120.684C79.5334 120.757 79.6291 120.801 79.7304 120.805L80.6275 120.659C81.1366 120.538 81.7911 120.344 82.4457 120.126L83.3911 119.738L84.2154 119.423C84.4898 119.301 84.757 119.164 85.0154 119.011C85.084 118.97 85.1346 118.905 85.1571 118.829C85.1796 118.752 85.1723 118.67 85.1366 118.599C85.0648 118.553 84.9782 118.535 84.8942 118.55H84.8214Z" fill="#F18380"/>
    <path d="M166.422 63.3739C165.501 63.3739 165.428 62.7921 165.016 61.7254C167.077 61.7254 173.065 62.1132 175.683 67.1558C173.041 63.5193 167.974 63.3739 166.422 63.3739ZM171.126 44.1978C171.126 44.1978 170.98 45.0463 170.835 46.2827C170.835 46.913 170.689 47.6645 170.641 48.4403C170.592 49.2161 170.519 50.0646 170.447 50.8646C170.447 52.5616 170.326 54.2343 170.326 55.495C170.326 56.7556 170.326 57.6041 170.326 57.6041C170.325 57.6444 170.334 57.6844 170.35 57.7213C170.366 57.7583 170.389 57.7915 170.419 57.8188C170.449 57.8462 170.484 57.8671 170.522 57.8803C170.56 57.8934 170.6 57.8983 170.641 57.895C170.709 57.8915 170.774 57.866 170.827 57.8223C170.879 57.7786 170.916 57.7191 170.932 57.6526C170.932 57.6526 171.077 56.804 171.198 55.5434C171.319 54.2828 171.513 52.61 171.586 50.9373C171.586 50.0888 171.586 49.2403 171.586 48.513C171.586 47.7857 171.586 46.9857 171.586 46.3554C171.586 45.0706 171.586 44.2462 171.586 44.2462C171.586 44.2059 171.578 44.166 171.562 44.1291C171.546 44.0921 171.522 44.0588 171.493 44.0315C171.463 44.0041 171.428 43.9832 171.39 43.9701C171.352 43.957 171.311 43.952 171.271 43.9553C171.225 43.9821 171.186 44.0212 171.161 44.0682C171.135 44.1153 171.123 44.1685 171.126 44.2221V44.1978ZM176.75 45.8948C176.75 45.8948 176.604 46.6221 176.435 47.6888C176.435 48.2463 176.265 48.8766 176.192 49.5554C176.12 50.2342 176.047 50.9615 175.974 51.6888C175.974 53.1434 175.804 54.5979 175.78 55.6889C175.756 56.7798 175.78 57.5313 175.78 57.5313C175.783 57.5696 175.794 57.6068 175.811 57.641C175.829 57.6751 175.853 57.7055 175.882 57.7303C175.911 57.7551 175.945 57.7739 175.982 57.7855C176.019 57.7971 176.057 57.8014 176.095 57.7981C176.161 57.7935 176.222 57.7671 176.271 57.7231C176.319 57.6791 176.351 57.6201 176.362 57.5556C176.362 57.5556 176.507 56.8283 176.677 55.7616C176.847 54.6949 176.992 53.2161 177.114 51.7858C177.114 51.0585 177.114 50.3312 177.259 49.6524C177.404 48.9736 177.259 48.3191 177.259 47.7615C177.259 46.6706 177.259 45.9433 177.259 45.9433C177.259 45.9029 177.251 45.8631 177.235 45.8261C177.219 45.7891 177.195 45.7559 177.165 45.7285C177.136 45.7011 177.101 45.6803 177.063 45.6672C177.024 45.6541 176.984 45.649 176.944 45.6524C176.89 45.6746 176.843 45.7112 176.809 45.7583C176.775 45.8054 176.754 45.861 176.75 45.919V45.8948ZM182.18 48.1978C182.18 48.1978 182.035 48.8039 181.841 49.7251C181.841 50.1615 181.647 50.6949 181.574 51.2767C181.501 51.8586 181.405 52.4646 181.308 53.0707C181.138 54.3071 181.065 55.4949 181.017 56.4647C180.968 57.4344 181.017 58.0162 181.017 58.0162C181.016 58.0566 181.025 58.0964 181.041 58.1334C181.057 58.1704 181.081 58.2036 181.11 58.231C181.14 58.2584 181.175 58.2792 181.213 58.2923C181.251 58.3054 181.292 58.3105 181.332 58.3071C181.394 58.3039 181.453 58.281 181.501 58.2417C181.549 58.2025 181.583 58.149 181.598 58.089C181.598 58.089 181.768 57.4829 181.938 56.5859C182.108 55.6889 182.35 54.4283 182.495 53.2161C182.495 52.5858 182.617 51.9797 182.665 51.3979C182.714 50.8161 182.665 50.2828 182.665 49.8221C182.665 48.9009 182.665 48.2706 182.665 48.2706C182.665 48.2302 182.657 48.1903 182.641 48.1534C182.625 48.1164 182.601 48.0831 182.572 48.0558C182.542 48.0284 182.507 48.0076 182.469 47.9945C182.431 47.9814 182.39 47.9763 182.35 47.9797C182.305 48.0046 182.267 48.0394 182.237 48.0814C182.208 48.1234 182.188 48.1715 182.18 48.2221V48.1978Z" fill="#F18380"/>
    <path d="M7.30371 436.594L9.57166 421.853H55.6866L54.1746 436.972L7.30371 436.594Z" fill="#CFD1CE"/>
    <path d="M68.1604 436.594L68.5384 421.853H113.897L114.275 436.972L68.1604 436.594Z" fill="#CFD1CE"/>
    <path d="M22.4236 150.077L30.3614 143.651L46.237 163.685L39.8112 171.244L22.4236 150.077Z" fill="#CFD1CE"/>
    <path d="M158.878 117.57L160.012 108.498L184.204 110.388L183.826 119.46L158.878 117.57Z" fill="#CFD1CE"/>
    <path d="M72.406 29.8654C71.2565 33.3134 69.4661 36.5129 67.1291 39.2954H61.4087C61.4087 39.2954 56.9743 34.1477 56.6417 33.7262C56.1609 33.2134 55.7954 32.6035 55.5698 31.9376C55.3441 31.2716 55.2636 30.5651 55.3335 29.8654H72.406Z" fill="#676575"/>
    <path d="M67.1294 39.2955C67.1294 50.3897 63.4643 66.1641 80.7003 69.5001C80.7003 69.5001 69.657 68.917 65.4221 63.4809C61.1872 58.0447 61.409 39.2068 61.409 39.2068L67.1294 39.2955Z" fill="#827F94"/>
    <path d="M51.2319 31.2855H107.194C107.62 26.2264 107.14 21.1318 105.775 16.2418C103.558 9.89594 99.1236 2.13 80.5656 2.13C62.0076 2.13 55.5111 10.8278 54.203 17.4178C52.8948 24.0077 53.5156 26.16 52.7396 26.8701C51.9636 27.5801 51.2319 27.6023 51.2319 28.6673V31.2855Z" fill="#EFEFEF"/>
    <path d="M80.5654 2.13012C84.6124 2.05656 88.6498 2.54948 92.5605 3.59456H92.7378L93.4252 3.81644C95.2986 4.39374 97.0822 5.2302 98.7243 6.30154C99.8394 10.9029 100.132 15.6655 99.589 20.369H93.4252L85.2215 18.9711C85.2215 18.9711 82.6274 5.65807 73.4038 2.5517C75.7778 2.2399 78.1712 2.09901 80.5654 2.13012Z" fill="#D8D8D8"/>
    <path d="M79.2792 0H91.8064C93.1368 0 99.5889 5.01457 99.5889 22.1884H85.3322C85.3322 17.1294 84.4453 3.88297 76.4634 2.21884C76.4856 2.26321 77.6829 0 79.2792 0Z" fill="#EFEFEF"/>
    <path d="M116.129 31.2855V28.0459C116.128 27.5816 116.03 27.1226 115.843 26.6976C115.656 26.2727 115.383 25.891 115.042 25.5765C114.701 25.262 114.298 25.0214 113.859 24.8698C113.421 24.7182 112.956 24.6588 112.493 24.6955H105.332C104.92 24.7147 104.509 24.6454 104.127 24.4923C103.744 24.3392 103.399 24.1059 103.114 23.808C102.649 23.2754 99.4781 20.3022 99.1012 19.8584C98.8421 19.5196 98.5055 19.2479 98.1196 19.0664C97.7338 18.885 97.31 18.7989 96.884 18.8156H86.4631C86.0376 18.8026 85.615 18.8902 85.2298 19.0714C84.8445 19.2526 84.5074 19.5223 84.2459 19.8584C83.869 20.3022 80.6983 23.2754 80.2327 23.808C79.9489 24.107 79.6038 24.3412 79.2211 24.4944C78.8384 24.6476 78.4272 24.7162 78.0155 24.6955H72.0513C71.5887 24.6588 71.1235 24.7182 70.6849 24.8698C70.2463 25.0214 69.8438 25.262 69.5024 25.5765C69.161 25.891 68.8883 26.2727 68.7012 26.6976C68.514 27.1226 68.4166 27.5816 68.415 28.0459V31.2855H116.129Z" fill="#D8D8D8"/>
</svg>
