<svg width="226" height="514" viewBox="0 0 226 514" fill="none" xmlns="http://www.w3.org/2000/svg">
<path d="M110.125 435.337C110.125 435.337 111.275 483.891 111.563 491.154C111.851 498.417 116.475 500.394 123.927 501.037C131.379 501.68 134.517 495.798 135.572 491.13C136.626 486.463 143 438.861 143 438.861L110.125 435.337Z" fill="#FBBEAA"/>
<path d="M158.262 436.511C158.262 436.511 164.599 485.203 165.647 492.452C166.695 499.7 171.483 501.242 178.939 501.073C186.396 500.905 188.849 494.667 189.397 489.875C189.945 485.083 191.136 436.511 191.136 436.511H158.262Z" fill="#FBBEAA"/>
<path d="M177.689 476.458C174.982 476.266 172.299 477.063 170.148 478.696C167.997 480.33 166.529 482.688 166.021 485.321L153.566 497.932V505.781H193.484C193.484 505.781 191.48 491.638 190.907 488.456C190.335 485.274 188.402 476.458 177.689 476.458Z" fill="#FBBEAA"/>
<path d="M165.868 485.553C165.408 484.927 164.753 484.445 164.292 484.734C163.831 485.023 151.582 494.661 151 495.143C150.642 495.477 150.371 495.893 150.21 496.355C150.049 496.817 150.004 497.31 150.079 497.793V508.13H194.659C194.659 508.13 192.912 492.854 192.791 492.011C192.67 491.167 191.821 490.059 191.336 490.083C188.276 491.014 185.1 491.517 181.901 491.577C177.648 491.801 173.406 490.973 169.555 489.167C168.127 488.181 166.88 486.959 165.868 485.553Z" fill="#302D3B"/>
<path d="M157.456 499.753C159.567 498.159 167.157 492.122 170.003 489.852L169.339 489.513C169.249 489.474 169.168 489.417 169.102 489.344C166.066 491.759 158.926 497.459 156.886 499.005C155.162 500.35 153.981 502.291 153.566 504.462L154.491 504.607C154.882 502.682 155.933 500.962 157.456 499.753Z" fill="white"/>
<path d="M193.34 497.563C190.231 497.595 187.222 498.676 184.794 500.634C182.6 502.592 181.114 505.228 180.57 508.13H181.866C182.396 505.616 183.708 503.337 185.611 501.625C187.845 499.823 190.622 498.842 193.484 498.844L193.34 497.563Z" fill="white"/>
<path d="M142.477 506.956H194.007C194.367 506.956 194.659 507.282 194.659 507.684V513.271C194.659 513.674 194.367 514 194.007 514H142.477C142.117 514 141.825 513.674 141.825 513.271V507.684C141.825 507.282 142.117 506.956 142.477 506.956Z" fill="white"/>
<path d="M151.019 495.243C150.588 495.069 148.474 495.657 145.723 498.247C144.578 499.381 143.754 500.776 143.328 502.299C142.903 503.823 142.89 505.426 143.291 506.956H157.088C156.316 498.596 151.451 495.417 151.019 495.243Z" fill="white"/>
<path d="M156.899 494.759C157.039 494.964 157.106 495.226 157.085 495.489C157.064 495.752 156.956 495.995 156.786 496.164C156.703 496.247 156.607 496.308 156.503 496.346C156.4 496.384 156.291 496.397 156.183 496.384C156.075 496.372 155.971 496.334 155.875 496.274C155.78 496.213 155.695 496.13 155.627 496.031L153.756 493.332C153.616 493.127 153.549 492.865 153.57 492.602C153.591 492.339 153.698 492.096 153.868 491.927C153.951 491.842 154.047 491.777 154.15 491.738C154.254 491.698 154.364 491.685 154.472 491.697C154.581 491.71 154.686 491.748 154.781 491.811C154.877 491.873 154.961 491.958 155.028 492.06L156.899 494.759Z" fill="white"/>
<path d="M159.246 493.17C159.386 493.425 159.453 493.753 159.432 494.081C159.411 494.409 159.304 494.712 159.133 494.923C159.051 495.029 158.955 495.109 158.851 495.158C158.747 495.208 158.637 495.225 158.528 495.209C158.42 495.194 158.314 495.145 158.218 495.067C158.123 494.99 158.039 494.884 157.971 494.756L156.097 491.389C155.961 491.131 155.897 490.806 155.918 490.479C155.939 490.153 156.043 489.852 156.209 489.636C156.292 489.53 156.388 489.45 156.492 489.401C156.596 489.352 156.706 489.334 156.814 489.35C156.923 489.366 157.029 489.414 157.124 489.492C157.22 489.57 157.304 489.676 157.371 489.803L159.246 493.17Z" fill="white"/>
<path d="M162.702 490.482C162.887 490.631 162.978 490.824 162.955 491.019C162.932 491.215 162.797 491.395 162.579 491.522C162.355 491.648 162.067 491.708 161.778 491.689C161.489 491.67 161.223 491.574 161.037 491.422L158.587 489.391C158.484 489.322 158.403 489.24 158.347 489.15C158.291 489.059 158.262 488.961 158.262 488.863C158.262 488.764 158.291 488.667 158.347 488.576C158.403 488.485 158.484 488.403 158.587 488.334C158.815 488.212 159.101 488.155 159.388 488.174C159.675 488.193 159.941 488.286 160.13 488.435L162.702 490.482Z" fill="white"/>
<path d="M165.119 488.405C165.188 488.531 165.239 488.676 165.271 488.832C165.302 488.988 165.313 489.153 165.303 489.315C165.292 489.478 165.261 489.636 165.21 489.78C165.16 489.924 165.091 490.052 165.008 490.155C164.851 490.388 164.641 490.518 164.421 490.518C164.202 490.518 163.991 490.388 163.835 490.155L161.973 486.711C161.834 486.452 161.767 486.12 161.788 485.787C161.809 485.454 161.916 485.147 162.085 484.932C162.168 484.828 162.264 484.75 162.367 484.702C162.47 484.655 162.578 484.638 162.685 484.654C162.792 484.67 162.897 484.717 162.992 484.794C163.087 484.871 163.171 484.975 163.239 485.102L165.119 488.405Z" fill="white"/>
<path d="M120.15 476.458C117.442 476.266 114.757 477.063 112.604 478.696C110.452 480.33 108.983 482.688 108.475 485.321L96.036 497.932V505.781H135.955C135.955 505.781 133.973 491.638 133.376 488.456C132.779 485.274 130.869 476.458 120.15 476.458Z" fill="#FBBEAA"/>
<path d="M109.49 485.553C109.029 484.927 108.398 484.445 107.913 484.734C107.427 485.023 95.1933 494.661 94.635 495.143C94.0767 495.625 93.6883 496.227 93.6883 497.793V508.13H138.303C138.303 508.13 136.556 492.854 136.434 492.011C136.313 491.167 135.463 490.059 134.978 490.083C131.916 491.014 128.737 491.517 125.535 491.577C121.287 491.805 117.049 490.977 113.204 489.167C111.764 488.186 110.507 486.963 109.49 485.553Z" fill="#302D3B"/>
<path d="M102.274 499.753C104.385 498.159 111.975 492.122 114.821 489.852L114.18 489.513C114.084 489.475 113.995 489.417 113.92 489.344C110.884 491.759 103.744 497.459 101.704 499.005C99.98 500.35 98.7988 502.291 98.3837 504.462L99.3088 504.607C99.7115 502.687 100.76 500.97 102.274 499.753Z" fill="white"/>
<path d="M135.824 497.563C132.997 497.595 130.261 498.676 128.055 500.634C126.06 502.592 124.709 505.228 124.214 508.13H125.392C125.88 505.613 127.081 503.334 128.819 501.625C130.839 499.819 133.359 498.838 135.955 498.844L135.824 497.563Z" fill="white"/>
<path d="M87.2948 506.956H138.825C139.185 506.956 139.477 507.282 139.477 507.684V513.271C139.477 513.674 139.185 514 138.825 514H87.2948C86.9349 514 86.6431 513.674 86.6431 513.271V507.684C86.6431 507.282 86.9349 506.956 87.2948 506.956Z" fill="white"/>
<path d="M95.3321 495.243C94.8643 495.069 92.5742 495.657 89.5946 498.247C88.3541 499.381 87.4611 500.776 87 502.299C86.539 503.823 86.5252 505.426 86.9598 506.956H101.907C101.07 498.596 95.8 495.417 95.3321 495.243Z" fill="white"/>
<path d="M100.479 494.759C100.666 494.964 100.755 495.226 100.727 495.489C100.699 495.752 100.556 495.995 100.329 496.164C100.217 496.247 100.089 496.308 99.9504 496.346C99.8121 496.384 99.6669 496.397 99.523 496.384C99.3791 496.372 99.2393 496.334 99.1117 496.274C98.9841 496.213 98.8711 496.13 98.7793 496.031L96.2801 493.332C96.0989 493.125 96.0134 492.864 96.0413 492.602C96.0692 492.341 96.2084 492.099 96.4301 491.927C96.5402 491.842 96.6684 491.777 96.8071 491.738C96.9458 491.698 97.0921 491.685 97.237 491.697C97.3819 491.71 97.5224 491.748 97.65 491.811C97.7777 491.873 97.8899 491.958 97.9796 492.06L100.479 494.759Z" fill="white"/>
<path d="M102.89 493.167C103.031 493.422 103.098 493.75 103.077 494.079C103.056 494.408 102.948 494.711 102.778 494.922C102.695 495.029 102.599 495.109 102.495 495.158C102.391 495.208 102.281 495.225 102.173 495.209C102.064 495.194 101.959 495.145 101.863 495.067C101.767 494.989 101.683 494.883 101.616 494.755L99.7413 491.383C99.6054 491.125 99.5413 490.798 99.5622 490.472C99.5831 490.145 99.6875 489.843 99.8538 489.627C100.026 489.418 100.246 489.319 100.467 489.35C100.688 489.381 100.892 489.541 101.035 489.794L102.89 493.167Z" fill="white"/>
<path d="M106.27 490.484C106.375 490.551 106.459 490.632 106.516 490.721C106.573 490.81 106.603 490.906 106.603 491.003C106.603 491.1 106.573 491.196 106.516 491.285C106.459 491.375 106.375 491.455 106.27 491.523C106.039 491.648 105.742 491.708 105.445 491.689C105.148 491.67 104.874 491.574 104.682 491.422L102.162 489.395C101.973 489.241 101.883 489.044 101.911 488.846C101.94 488.648 102.084 488.466 102.313 488.339C102.426 488.277 102.555 488.231 102.695 488.203C102.834 488.174 102.981 488.164 103.126 488.174C103.271 488.183 103.412 488.211 103.541 488.257C103.669 488.303 103.783 488.365 103.876 488.44L106.27 490.484Z" fill="white"/>
<path d="M108.701 488.405C108.793 488.531 108.861 488.676 108.903 488.832C108.945 488.988 108.96 489.153 108.946 489.315C108.932 489.478 108.89 489.636 108.823 489.78C108.755 489.924 108.663 490.052 108.552 490.155C108.344 490.388 108.063 490.518 107.771 490.518C107.478 490.518 107.198 490.388 106.989 490.155L104.507 486.711C104.321 486.452 104.232 486.12 104.26 485.787C104.288 485.454 104.43 485.147 104.656 484.932C104.766 484.828 104.894 484.75 105.031 484.702C105.169 484.655 105.313 484.638 105.456 484.654C105.599 484.67 105.738 484.717 105.864 484.794C105.991 484.871 106.103 484.975 106.195 485.102L108.701 488.405Z" fill="white"/>
<path d="M187.418 332.305C187.816 335.405 187.607 338.555 186.802 341.572C185.997 344.589 184.612 347.414 182.727 349.882C180.842 352.351 178.496 354.415 175.822 355.955C173.149 357.495 170.202 358.48 167.153 358.853C164.103 359.226 161.011 358.98 158.055 358.129C155.099 357.278 152.339 355.839 149.933 353.895C147.527 351.951 145.524 349.541 144.04 346.804C142.555 344.067 141.618 341.057 141.283 337.949C141.283 337.949 129.188 251.477 126.319 234.008C123.451 216.538 126.487 201.915 145.706 197.755C165.641 193.448 178.095 208.314 179.601 223.205C181.107 238.095 187.418 332.305 187.418 332.305Z" fill="#013EA5"/>
<path d="M148.577 333.968C148.655 340.223 146.241 346.254 141.867 350.732C137.494 355.21 131.518 357.769 125.256 357.846C118.993 357.923 112.956 355.512 108.473 351.143C103.99 346.775 101.428 340.806 101.351 334.55C101.351 334.55 98.3624 247.482 97.3421 229.84C96.3218 212.199 100.938 198.051 120.81 196.013C141.411 193.902 152.392 209.99 152.392 224.938C152.392 239.887 148.577 333.968 148.577 333.968Z" fill="#013EA5"/>
<path d="M148.87 334.159C148.831 331.065 148.169 328.008 146.924 325.164C145.678 322.32 143.873 319.743 141.61 317.582C139.348 315.421 136.673 313.718 133.738 312.569C130.803 311.42 127.665 310.848 124.505 310.887C121.344 310.925 118.222 311.572 115.317 312.792C112.412 314.011 109.781 315.779 107.574 317.994C105.366 320.209 103.626 322.828 102.453 325.701C101.279 328.575 100.695 331.646 100.734 334.741L105.687 459.418L144.536 463.515L148.87 334.159Z" fill="#013EA5"/>
<path d="M187.336 332.663C186.535 326.48 183.351 320.865 178.475 317.039C173.599 313.213 167.425 311.484 161.295 312.228C155.164 312.972 149.572 316.13 145.733 321.014C141.894 325.898 140.118 332.115 140.791 338.314L158.951 462.341H197.007L187.336 332.663Z" fill="#013EA5"/>
<path d="M141.825 336.714L159.436 461.167" stroke="#013EA5" stroke-width="0.75" stroke-miterlimit="10" stroke-linecap="round"/>
<path d="M140.651 337.888C140.651 337.888 128.314 251.935 125.388 234.57" stroke="#F5F5F5" stroke-width="0.75" stroke-miterlimit="10" stroke-linecap="round"/>
<path d="M99.5583 206.392C99.5583 206.392 99.5583 230.891 99.5583 232.237C99.5583 233.584 111.336 245.136 126.978 245.136C151.029 245.136 179.815 236.324 179.391 230.584C179.108 226.804 178.755 206.392 178.755 206.392H99.5583Z" fill="#013EA5"/>
<path d="M121.122 90.4338C120.412 90.4338 118.903 90.4338 117.572 90.8776C117.572 91.9427 119.939 92.8007 121.122 93.0966C121.418 92.209 121.832 90.4338 121.122 90.4338Z" fill="#013FA9"/>
<path d="M119.688 71.01H147.305V103.49H119.688V71.01Z" fill="#FBBEAA"/>
<path d="M147.281 71.01H119.756V89.1307C120.958 89.28 122.168 89.3566 123.38 89.3601C132.876 89.3601 143.496 86.7681 147.373 77.7077L147.281 71.01Z" fill="#F18380"/>
<path d="M105.419 46.9027C105.626 56.2842 105.419 63.6931 107.094 70.8496C108.768 78.0062 113.975 83.8552 125.444 83.8552C136.913 83.8552 149.987 80.1164 150.905 65.7804C152.786 63.7389 155.836 56.4677 155.951 48.3249C156.066 40.182 155.446 22.9559 136.867 20.318C118.287 17.6802 104.892 24.4927 105.419 46.9027Z" fill="#FBBEAA"/>
<path d="M115.102 54.2885C115.102 55.5501 114.345 56.5823 113.404 56.5823C112.464 56.5823 111.707 55.5501 111.707 54.2885C111.707 53.0269 112.464 51.9948 113.404 51.9948C114.345 51.9948 115.102 52.9352 115.102 54.2885Z" fill="#403D4F"/>
<path d="M135.743 54.2885C135.743 55.5501 134.986 56.5823 134.046 56.5823C133.105 56.5823 132.348 55.5501 132.348 54.2885C132.348 53.0269 133.128 51.9948 134.046 51.9948C134.963 51.9948 135.743 52.9352 135.743 54.2885Z" fill="#403D4F"/>
<path d="M131.502 47.086C131.686 47.2925 132.878 47.086 133.796 47.086C134.713 47.086 136.479 47.086 136.479 46.8796C136.479 46.6732 135.608 45.251 133.314 45.5033C131.754 45.6868 131.296 46.719 131.502 47.086Z" fill="#403D4F"/>
<path d="M115.445 47.086C115.308 47.2925 114.276 47.086 113.473 47.086C112.67 47.086 111.179 47.086 111.179 46.8796C111.179 46.6732 111.913 45.251 113.863 45.5033C115.445 45.6868 115.744 46.719 115.445 47.086Z" fill="#403D4F"/>
<path d="M122.325 63.7846C120.72 63.7846 119.435 62.7294 119.389 61.9725L119.917 55.5041C119.934 55.3438 120.013 55.1966 120.138 55.0938C120.262 54.991 120.421 54.9407 120.582 54.9536C120.66 54.9594 120.737 54.9806 120.807 55.0161C120.877 55.0515 120.94 55.1005 120.991 55.1602C121.042 55.2199 121.081 55.2891 121.105 55.3639C121.129 55.4386 121.139 55.5175 121.132 55.5958L120.628 61.8349C120.86 62.0863 121.145 62.2826 121.462 62.4096C121.78 62.5366 122.122 62.591 122.463 62.5689C122.543 62.5626 122.624 62.5727 122.7 62.5984C122.776 62.6241 122.846 62.665 122.906 62.7186C122.966 62.7722 123.015 62.8373 123.049 62.9101C123.083 62.9829 123.102 63.0619 123.105 63.1423C123.108 63.2237 123.095 63.3048 123.067 63.3811C123.038 63.4574 122.995 63.5274 122.94 63.5871C122.885 63.6467 122.818 63.6949 122.744 63.7288C122.67 63.7626 122.59 63.7816 122.509 63.7846H122.325Z" fill="#F18380"/>
<path d="M123.634 68.3716C121.707 68.4863 118.473 69.5643 118.45 70.413C118.48 71.9888 119.131 73.4892 120.26 74.5885C121.389 75.6878 122.907 76.2974 124.483 76.2851C131.548 76.2851 131.525 70.8259 131.227 69.6332C130.928 68.4404 127.212 68.1422 123.634 68.3716Z" fill="#73102A"/>
<path d="M131.248 71.5373C129.337 70.8452 127.252 70.7955 125.311 71.3958C123.369 71.9961 121.677 73.2135 120.49 74.8632C121.586 75.8356 123.017 76.3453 124.481 76.2854C129.481 76.2854 130.926 73.5787 131.248 71.5373Z" fill="#D65155"/>
<path d="M130.949 69.2207C129.962 68.372 126.728 68.1656 123.632 68.372C121.728 68.4867 118.517 69.5419 118.448 70.4135C122.65 71.0093 126.935 70.6005 130.949 69.2207Z" fill="white"/>
<path d="M139.346 38.599C139.346 44.2416 141.639 46.6959 143.36 47.774C145.08 48.8521 146.342 49.9302 146.342 51.8799V58.7611C146.342 59.541 146.8 60.1374 147.397 59.931C147.993 59.7245 150.218 58.6006 150.218 57.4766L157.099 52.6139C158.889 48.3743 159.553 43.7441 159.026 39.1724C158.821 36.609 158.066 34.1201 156.811 31.8755C155.556 29.631 153.831 27.6837 151.755 26.1668C151.755 21.2811 147.167 12.5877 137.511 9.14706C137.274 10.913 137.274 12.7026 137.511 14.4686C133.13 10.5004 118.381 9.28469 113.082 11.1197C113.859 12.8577 114.983 14.4187 116.385 15.7072C109.147 17.3787 105.538 21.4939 100.981 27.3595C102.433 29.2529 101.439 30.8165 103.54 31.9471C101.13 35.2628 99.6989 39.189 99.4112 43.2782C103.766 42.8751 108.035 41.8156 112.073 40.1358C111.847 42.1517 111.964 44.1912 112.417 46.1684C117.004 45.8931 125.675 41.2139 128.129 37.4521C127.745 40.5159 127.916 43.6239 128.634 46.6271C132.898 45.0294 136.615 42.2435 139.346 38.599Z" fill="#403D4F"/>
<path d="M150.425 58.6465C150.425 56.0316 150.953 52.1781 154.646 52.0863C158.339 51.9946 158.844 54.793 158.729 59.197C158.614 63.601 154.141 67.3398 150.219 65.826L150.425 58.6465Z" fill="#FBBEAA"/>
<path d="M155.861 61.8119C155.703 61.7786 155.564 61.6869 155.47 61.5551C155.376 61.4233 155.336 61.2611 155.357 61.1008C155.356 60.9742 155.322 60.8501 155.257 60.7413C155.193 60.6324 155.101 60.5427 154.99 60.4815C154.751 60.3255 154.472 60.2425 154.187 60.2425C153.902 60.2425 153.623 60.3255 153.384 60.4815C153.287 60.5378 153.176 60.5675 153.063 60.5675C152.95 60.5675 152.84 60.5378 152.742 60.4815C152.642 60.4247 152.561 60.3404 152.508 60.2387C152.456 60.137 152.433 60.0222 152.444 59.908C152.788 56.2151 155.127 55.5269 155.219 55.504C155.297 55.4798 155.38 55.4721 155.461 55.4812C155.543 55.4903 155.622 55.5162 155.693 55.5571C155.764 55.5979 155.825 55.653 155.874 55.7189C155.923 55.7848 155.958 55.86 155.976 55.9398C156.018 56.0919 155.999 56.2546 155.921 56.3922C155.844 56.5298 155.715 56.631 155.563 56.6738C155.107 56.8846 154.71 57.2039 154.406 57.6038C154.102 58.0037 153.901 58.4719 153.82 58.9676C154.449 58.8652 155.093 58.9957 155.632 59.3346C155.95 59.5143 156.208 59.785 156.371 60.1119C156.535 60.4388 156.597 60.8071 156.55 61.1696C156.558 61.26 156.545 61.3511 156.513 61.4359C156.48 61.5207 156.429 61.597 156.363 61.6589C156.296 61.7209 156.216 61.7669 156.13 61.7934C156.043 61.8199 155.951 61.8262 155.861 61.8119Z" fill="#F18380"/>
<path d="M27.0801 105.882L38.4653 177.353C40.3438 186.318 37.4406 194.43 27.0801 195.854C25.1677 196.103 23.2245 195.961 21.3687 195.436C19.5129 194.911 17.7831 194.014 16.2844 192.8C14.7858 191.587 13.5495 190.081 12.6506 188.374C11.7517 186.668 11.209 184.797 11.0554 182.874L7.58294 106.025C6.67213 98.7665 9.83146 93.9278 15.3533 93.3301C22.1275 92.59 25.7139 96.6033 27.0801 105.882Z" fill="#FBBEAA"/>
<path d="M17.829 169.44L99.5746 107.334C109.11 101.243 115.599 104.487 120.666 111.005C122.979 114.16 124.052 118.056 123.679 121.95C123.307 125.845 121.515 129.466 118.645 132.125L37.0984 192.21C34.2248 194.637 30.5254 195.862 26.7712 195.628C23.017 195.395 19.4977 193.722 16.9467 190.958L16.5767 190.559C15.2227 189.115 14.1772 187.41 13.5041 185.548C12.8309 183.686 12.5442 181.707 12.6614 179.73C12.7785 177.754 13.2972 175.822 14.1857 174.053C15.0742 172.284 16.3139 170.714 17.829 169.44Z" fill="#FBBEAA"/>
<path d="M26.7394 103.975C26.622 101.41 27.3086 98.8724 28.7033 96.7167C30.8506 94.2269 32.4593 91.3196 33.4282 88.1778C34.1735 85.2614 35.364 82.4772 36.9577 79.9235C38.0962 78.358 39.804 77.0772 39.804 75.8818C39.804 74.6863 37.5269 72.3808 34.2821 73.0355C32.8923 73.4684 31.6152 74.2033 30.5426 75.1874C29.4699 76.1715 28.628 77.3806 28.0771 78.7281C27.7663 77.9071 27.5839 77.043 27.5364 76.1664L26.8249 58.7186C26.814 58.2663 26.7127 57.8207 26.5268 57.4082C26.341 56.9957 26.0743 56.6247 25.7426 56.3169C25.411 56.0091 25.0211 55.7709 24.5959 55.6163C24.1707 55.4618 23.7188 55.394 23.267 55.4169C22.5476 55.4476 21.8558 55.703 21.2891 56.1472C20.7224 56.5913 20.3092 57.202 20.1076 57.8932V57.0962C19.9981 56.248 19.5718 55.4727 18.9143 54.9258C18.2568 54.3789 17.4167 54.1009 16.5628 54.1478C15.7089 54.1946 14.9043 54.5628 14.3106 55.1783C13.7168 55.7938 13.3779 56.6112 13.3618 57.4662V59.8856C13.0768 59.1397 12.5332 58.5211 11.8301 58.1425C11.1271 57.7639 10.3114 57.6505 9.53175 57.823C8.7521 57.9955 8.06037 58.4423 7.58265 59.0821C7.10494 59.722 6.87302 60.5122 6.92919 61.3088V62.8457C6.62284 62.3073 6.16629 61.8699 5.61531 61.5868C5.06434 61.3037 4.44281 61.1873 3.82674 61.2518C2.98307 61.3589 2.21425 61.7901 1.68298 62.4542C1.15172 63.1183 0.899723 63.9631 0.980446 64.8097L2.3751 79.525C3.28874 87.8213 5.00459 96.0095 7.49849 103.975C7.52864 105.305 7.83675 106.613 8.40298 107.817C8.96921 109.021 9.78104 110.093 10.7863 110.964C11.7916 111.835 12.968 112.487 14.24 112.876C15.512 113.265 16.8514 113.384 18.1721 113.225C19.3673 113.265 20.557 113.047 21.6607 112.587C22.7644 112.127 23.7562 111.434 24.5688 110.557C25.3814 109.68 25.9958 108.638 26.3703 107.502C26.7448 106.366 26.8707 105.163 26.7394 103.975Z" fill="#FBBEAA"/>
<path d="M106.321 102.893L35.5807 150.604C35.8783 153.044 30.1456 102.893 30.1456 102.893L3.96195 105.337C3.96195 105.337 5.49162 156.397 9.34484 183.363C10.8741 194.065 19.7816 198.123 30.3437 195.819C35.5584 194.681 40.4677 192.541 44.8365 189.475C63.6091 176.298 116.275 139.185 120.581 134.516C128.01 126.461 128.01 120.426 123.741 113.795C119.471 107.163 110.335 101.897 106.321 102.893Z" fill="#013EA5"/>
<path d="M26.17 81.2047C27.2516 81.2047 27.3369 80.5216 27.8208 79.2693C25.4014 79.2693 18.3711 79.7246 15.2971 85.6449C18.3996 81.3755 24.3484 81.2047 26.17 81.2047ZM20.6482 58.6905C20.6482 58.6905 20.8189 59.6868 20.9897 61.1384C20.9897 61.8784 21.1605 62.7607 21.2175 63.6715C21.2744 64.5823 21.3597 65.5785 21.4451 66.5178C21.4451 68.5102 21.5874 70.4742 21.5874 71.9543C21.5874 73.4343 21.5874 74.4305 21.5874 74.4305C21.5876 74.4779 21.5779 74.5248 21.559 74.5682C21.5401 74.6116 21.5123 74.6506 21.4775 74.6827C21.4427 74.7148 21.4017 74.7394 21.3569 74.7548C21.3121 74.7702 21.2647 74.776 21.2175 74.7721C21.1374 74.768 21.0607 74.7381 20.9991 74.6868C20.9375 74.6354 20.8942 74.5655 20.8758 74.4875C20.8758 74.4875 20.7051 73.4912 20.5628 72.0112C20.4205 70.5311 20.1928 68.5672 20.1074 66.6032C20.1074 65.607 20.1074 64.6108 20.1074 63.7569C20.1074 62.903 20.1074 61.9638 20.1074 61.2238C20.1074 59.7152 20.1074 58.7474 20.1074 58.7474C20.1072 58.7001 20.1169 58.6532 20.1358 58.6098C20.1547 58.5664 20.1825 58.5274 20.2172 58.4952C20.252 58.4631 20.2931 58.4386 20.3379 58.4232C20.3827 58.4078 20.4302 58.4019 20.4774 58.4059C20.5319 58.4373 20.5768 58.4832 20.6069 58.5384C20.637 58.5937 20.6513 58.6561 20.6482 58.719V58.6905ZM14.0447 60.683C14.0447 60.683 14.2155 61.5368 14.4148 62.7892C14.4148 63.4438 14.614 64.1838 14.6994 64.9808C14.7848 65.7778 14.8702 66.6317 14.9556 67.4856C14.9556 69.1933 15.1548 70.9011 15.1832 72.1819C15.2117 73.4628 15.1832 74.3451 15.1832 74.3451C15.1797 74.39 15.1672 74.4338 15.1467 74.4739C15.1261 74.5139 15.0979 74.5496 15.0635 74.5787C15.0291 74.6078 14.9892 74.6299 14.9463 74.6435C14.9033 74.6572 14.8582 74.6622 14.8133 74.6583C14.7367 74.6529 14.6642 74.6219 14.6073 74.5703C14.5505 74.5186 14.5128 74.4494 14.5002 74.3736C14.5002 74.3736 14.3294 73.5197 14.1301 72.2673C13.9309 71.0149 13.7601 69.2787 13.6178 67.5994C13.6178 66.7455 13.6178 65.8916 13.447 65.0947C13.2763 64.2977 13.447 63.5292 13.447 62.8746C13.447 61.5937 13.447 60.7398 13.447 60.7398C13.4469 60.6925 13.4565 60.6457 13.4754 60.6023C13.4944 60.5588 13.5221 60.5198 13.5569 60.4877C13.5917 60.4556 13.6328 60.4311 13.6776 60.4157C13.7224 60.4003 13.7699 60.3944 13.8171 60.3983C13.8802 60.4244 13.9349 60.4674 13.9751 60.5227C14.0153 60.578 14.0394 60.6432 14.0447 60.7114V60.683ZM7.66907 63.3869C7.66907 63.3869 7.8398 64.0985 8.0675 65.1801C8.0675 65.6924 8.29525 66.3186 8.38064 67.0017C8.46603 67.6848 8.57984 68.3964 8.69369 69.108C8.89293 70.5596 8.9784 71.9542 9.03532 73.0928C9.09225 74.2313 9.03532 74.9144 9.03532 74.9144C9.03549 74.9618 9.02575 75.0086 9.00683 75.052C8.98792 75.0954 8.96015 75.1345 8.92536 75.1666C8.89056 75.1987 8.84949 75.2232 8.8047 75.2386C8.75992 75.254 8.71248 75.2599 8.66529 75.256C8.59262 75.2522 8.52304 75.2253 8.46672 75.1792C8.4104 75.1331 8.37025 75.0703 8.35215 74.9998C8.35215 74.9998 8.15296 74.2883 7.95372 73.2351C7.75448 72.182 7.46981 70.7019 7.29904 69.2787C7.29904 68.5387 7.1567 67.8271 7.09978 67.144C7.04285 66.4609 7.09978 65.8347 7.09978 65.2939C7.09978 64.2123 7.09978 63.4723 7.09978 63.4723C7.09961 63.4249 7.10935 63.3781 7.12827 63.3347C7.14718 63.2913 7.17486 63.2522 7.20966 63.2201C7.24445 63.188 7.28561 63.1635 7.33039 63.1481C7.37518 63.1327 7.42262 63.1268 7.46981 63.1307C7.52235 63.16 7.56759 63.2009 7.6021 63.2502C7.63661 63.2995 7.6595 63.356 7.66907 63.4154V63.3869Z" fill="#F18380"/>
<path d="M35.0268 144.835L33.6955 134.184L5.2928 136.403L5.73659 147.054L35.0268 144.835Z" fill="#CFD1CE"/>
<path d="M117.612 96.1943C117.612 96.1943 100.426 106.118 97.7441 107.854C95.062 109.591 92.0322 112.27 92.5785 119.514C93.1249 126.758 95.4345 224.271 95.4345 224.271C104.255 225.764 130.085 225.764 130.085 225.764H132.433H134.194H136.542H138.303H140.064C140.064 225.764 178.357 222.51 179.127 222.063C179.897 221.617 180.617 221.145 180.567 220.302C180.518 219.458 180.021 120.333 179.698 115.967C179.634 113.628 178.898 111.358 177.576 109.426C176.255 107.495 174.405 105.985 172.248 105.076C167.057 102.768 147.562 94.8546 147.562 94.8546L131.188 96.1943H117.612Z" fill="#034CC9"/>
<path d="M117.612 96.1943C117.612 96.1943 100.426 106.118 97.7439 107.854C95.0618 109.591 92.0319 112.27 92.5783 119.514C93.1247 126.758 95.4343 224.271 95.4343 224.271C104.255 225.764 118.344 225.764 118.344 225.764H120.692H122.453H124.801H126.562H128.323C128.323 225.764 125.523 222.51 126.293 222.063C127.063 221.617 127.783 221.145 127.734 220.302C127.684 219.458 127.187 120.333 126.864 115.967C126.801 113.628 126.064 111.358 124.743 109.426C123.422 107.495 121.572 105.985 119.414 105.076C114.224 102.768 147.562 94.8546 147.562 94.8546L131.188 96.1943H117.612Z" fill="#0045BA"/>
<path d="M115.661 96.3373C115.661 96.3373 96.6615 107.32 93.6962 109.242C90.7309 111.164 93.1006 115.401 93.1006 123.032C93.1006 133.012 94.8617 133.599 94.8617 133.599C100.803 136.805 103.402 134.304 109.95 135.948C113.135 136.305 115.606 136.387 117.748 134.301C119.89 132.214 126.562 133.012 126.562 133.012C126.562 133.012 136.61 131.692 141.305 134.301C142.428 135.084 143.697 135.633 145.037 135.916C146.376 136.199 147.43 136.178 148.774 135.916C155.583 134.516 182.819 126.695 183.67 126.201C184.522 125.707 185.318 125.185 185.263 124.252C185.208 123.318 184.659 123.052 184.302 118.22C184.231 115.632 183.417 113.119 181.956 110.982C180.496 108.844 178.45 107.173 176.065 106.167C170.327 103.613 148.774 94.8546 148.774 94.8546L130.671 95.4417L115.661 96.3373Z" fill="#9A99A1"/>
<path d="M129.11 92.209C137.276 92.209 144.643 88.6586 147.306 86.8835V94.8717C147.01 95.3155 144.732 96.7356 137.986 98.8658C131.24 100.996 121.566 100.197 117.572 98.8658V90.8776C117.572 91.3214 118.903 92.209 129.11 92.209Z" fill="#034CC9"/>
<path d="M128.667 225.346C126.399 224.585 124.414 223.119 122.984 221.149C121.555 219.178 120.749 216.8 120.679 214.338V92.6527H128.667V225.346Z" fill="#034CC9"/>
<path d="M93.1013 136.588H133.363V127.712L93.1013 127.729C93.1013 131.838 93.1013 133.012 93.1013 136.588Z" fill="#D3D4D2"/>
<path d="M165.913 127.712H125.375V136.588H166.744C166.204 132.594 165.913 130.819 165.913 127.712Z" fill="#CFD1CE"/>
<g style="mix-blend-mode:multiply" opacity="0.4">
<path d="M129.554 100.015L128.667 100.197V225.346H129.554V100.015Z" fill="#013FA9"/>
</g>
<path d="M182.752 111.036C188.965 119.025 224.415 216.51 224.415 216.51C191.13 205.859 194.751 177.222 176.649 180.268C176.649 180.268 155.774 131.273 154.977 126.889C154.145 123.434 154.519 119.798 156.035 116.583C157.552 113.369 160.121 110.769 163.317 109.214C172.226 104.66 176.539 103.048 182.752 111.036Z" fill="#0045BA"/>
<path d="M164.884 157.173C159.846 152.078 150.424 141.092 147.237 138.416C144.084 136.041 140.641 134.08 136.99 132.581C134.22 131.654 131.356 131.033 128.451 130.731C126.43 130.475 125.605 131.073 125.605 132.297C125.655 133.026 125.888 133.731 126.281 134.347C126.673 134.964 127.214 135.472 127.853 135.826H124.125C122.844 135.826 122.018 136.851 122.616 138.502C123.159 139.592 123.935 140.55 124.889 141.308C125.843 142.065 126.952 142.604 128.138 142.885C128.138 142.885 123.1 143.369 121.819 143.625C120.538 143.881 120.14 144.365 120.14 145.589C120.151 146.434 120.386 147.262 120.821 147.987C121.256 148.712 121.875 149.308 122.616 149.716C124.429 150.452 126.354 150.875 128.309 150.968C128.309 150.968 122.075 152.534 120.823 152.989C119.571 153.445 119.428 154.27 120.083 155.352C120.456 156.114 120.995 156.782 121.659 157.309C122.324 157.836 123.098 158.208 123.925 158.397C126.288 159.023 127.882 157.999 128.736 158.141C130.57 158.732 132.367 159.436 134.115 160.247C136.74 162.861 139.95 164.812 143.479 165.94C146.106 167.042 148.516 168.604 150.595 170.551C151.564 171.46 152.705 172.165 153.951 172.626C155.197 173.086 156.522 173.292 157.849 173.23C159.176 173.169 160.477 172.843 161.676 172.27C162.874 171.698 163.946 170.89 164.827 169.896C169.381 165.058 168.612 161.016 164.884 157.173Z" fill="#FBBEAA"/>
<path d="M148.138 174.499L193.958 226.023C199.449 233.341 212.279 237.363 220.119 230.583C221.569 229.313 222.745 227.762 223.577 226.023C224.41 224.285 224.88 222.395 224.96 220.469C225.04 218.544 224.728 216.622 224.043 214.82C223.358 213.019 222.314 211.375 220.974 209.989L165.445 151.865L148.138 174.499Z" fill="#0045BA"/>
<path d="M128.479 135.855C128.47 135.902 128.472 135.95 128.484 135.996C128.496 136.042 128.517 136.086 128.547 136.123C128.576 136.161 128.613 136.192 128.655 136.214C128.698 136.237 128.744 136.25 128.792 136.253L131.126 136.481H132.264C132.663 136.481 133.033 136.623 133.431 136.652C133.852 136.778 134.261 136.94 134.655 137.135L135.964 137.676C137.729 138.388 139.494 139.042 140.803 139.526C142.112 140.01 143.023 140.295 143.023 140.295C143.095 140.325 143.176 140.327 143.25 140.301C143.324 140.275 143.385 140.222 143.422 140.152C143.475 140.083 143.503 139.998 143.503 139.911C143.503 139.823 143.475 139.738 143.422 139.669L141.287 138.558L139.067 137.505C138.27 137.135 137.387 136.765 136.505 136.424L135.167 135.911C134.737 135.717 134.289 135.564 133.83 135.456L132.463 135.314H131.296H129.56H128.905C128.834 135.257 128.742 135.231 128.652 135.242C128.561 135.253 128.478 135.299 128.422 135.371C128.365 135.442 128.339 135.534 128.35 135.624C128.36 135.715 128.407 135.798 128.479 135.855ZM129.019 142.714H129.532C129.958 142.676 130.386 142.676 130.813 142.714L131.695 142.856C132.02 142.897 132.343 142.954 132.663 143.027L134.598 143.653C135.907 144.08 137.188 144.621 138.156 145.02C138.156 145.02 138.469 145.02 138.441 145.162H138.782L139.294 145.304H139.608H139.778C139.864 145.325 139.939 145.378 139.987 145.452C140.034 145.526 140.052 145.616 140.034 145.703C140.022 145.771 139.987 145.833 139.936 145.879C139.884 145.926 139.819 145.954 139.75 145.959H138.298H137.843C136.847 145.703 135.509 145.304 134.2 144.849L132.293 144.137L131.41 143.91L130.642 143.682C130.249 143.566 129.85 143.471 129.446 143.397L128.962 143.255C128.919 143.242 128.879 143.22 128.845 143.192C128.81 143.163 128.781 143.128 128.76 143.089C128.739 143.049 128.726 143.006 128.721 142.961C128.717 142.916 128.722 142.871 128.735 142.828C128.768 142.786 128.812 142.754 128.862 142.734C128.912 142.714 128.966 142.707 129.019 142.714ZM129.019 150.798H130.072C130.357 150.798 130.727 150.798 131.097 150.997L132.264 151.367C132.998 151.625 133.712 151.939 134.399 152.306C134.715 152.454 135.019 152.626 135.31 152.818C135.368 152.886 135.4 152.972 135.4 153.06C135.4 153.149 135.368 153.235 135.31 153.302C135.228 153.389 135.116 153.44 134.997 153.445L133.943 153.274C133.346 153.132 132.577 152.904 131.809 152.648L130.699 152.192L129.731 151.822C129.409 151.679 129.095 151.518 128.792 151.338C128.711 151.291 128.652 151.214 128.625 151.124C128.599 151.035 128.607 150.938 128.649 150.855C128.734 150.8 128.835 150.78 128.934 150.798H129.019Z" fill="#F18380"/>
<path d="M202.28 187.812L192.96 180.268L174.321 203.789L181.865 212.665L202.28 187.812Z" fill="#CFD1CE"/>
<path d="M141.124 36.0437C142.511 40.205 144.672 44.0664 147.493 47.4246H154.396C154.396 47.4246 159.748 41.212 160.15 40.7032C160.73 40.0843 161.171 39.3483 161.443 38.5446C161.715 37.7409 161.813 36.8881 161.728 36.0437H141.124Z" fill="#676575"/>
<path d="M147.492 47.4247C147.492 60.814 151.915 79.8517 131.113 83.8779C131.113 83.8779 144.441 83.1742 149.552 76.6134C154.663 70.0527 154.396 47.3176 154.396 47.3176L147.492 47.4247Z" fill="#827F94"/>
<path d="M166.678 37.7577H99.1388C98.6246 31.652 99.2045 25.5035 100.851 19.6019C103.527 11.9432 108.879 2.57068 131.276 2.57068C153.673 2.57068 161.514 13.0679 163.093 21.0211C164.671 28.9744 163.922 31.5719 164.859 32.4288C165.795 33.2857 166.678 33.3125 166.678 34.5979V37.7577Z" fill="#EFEFEF"/>
<path d="M131.276 2.5708C126.392 2.48202 121.519 3.07691 116.8 4.33819H116.586L115.756 4.60597C113.495 5.3027 111.343 6.3122 109.361 7.60517C108.015 13.1585 107.662 18.9063 108.317 24.5828H115.756L125.657 22.8957C125.657 22.8957 128.788 6.82859 139.919 3.07959C137.054 2.70328 134.166 2.53325 131.276 2.5708Z" fill="#D8D8D8"/>
<path d="M132.829 0H117.71C116.104 0 108.317 6.05196 108.317 26.7786H125.523C125.523 20.6731 126.594 4.68625 136.227 2.67786C136.2 2.73142 134.755 0 132.829 0Z" fill="#EFEFEF"/>
<path d="M88.3553 37.7576V33.848C88.3572 33.2875 88.4748 32.7336 88.7006 32.2207C88.9264 31.7079 89.2556 31.2472 89.6676 30.8676C90.0796 30.488 90.5654 30.1977 91.0948 30.0147C91.6241 29.8317 92.1855 29.7601 92.7438 29.8044H101.387C101.883 29.8276 102.379 29.744 102.841 29.5592C103.302 29.3744 103.719 29.0928 104.063 28.7332C104.625 28.0906 108.451 24.5022 108.906 23.9667C109.219 23.5577 109.625 23.2298 110.091 23.0108C110.556 22.7918 111.068 22.6879 111.582 22.7081H124.159C124.672 22.6923 125.182 22.7981 125.647 23.0168C126.112 23.2355 126.519 23.561 126.835 23.9667C127.289 24.5022 131.116 28.0906 131.678 28.7332C132.021 29.0942 132.437 29.3768 132.899 29.5617C133.361 29.7465 133.857 29.8293 134.354 29.8044H141.552C142.11 29.7601 142.672 29.8317 143.201 30.0147C143.73 30.1977 144.216 30.488 144.628 30.8676C145.04 31.2472 145.369 31.7079 145.595 32.2207C145.821 32.7336 145.938 33.2875 145.94 33.848V37.7576H88.3553Z" fill="#D8D8D8"/>
<path d="M137.191 119.247L137.937 119.254L137.928 120.186L138.723 120.194L138.733 119.263L139.479 119.27L139.453 121.815L138.707 121.807L138.717 120.799L137.921 120.791L137.911 121.799L137.165 121.791L137.191 119.247L137.191 119.247ZM142.14 119.298L142.114 121.842L141.394 121.835L141.413 119.893L140.941 119.889L140.934 120.619C140.93 120.947 140.901 121.349 140.7 121.573C140.499 121.823 140.125 121.895 139.703 121.815L139.71 121.184C140.106 121.264 140.208 121.113 140.213 120.609L140.227 119.273L142.14 119.293L142.14 119.298ZM142.763 119.304L143.509 119.312L143.915 120.827L144.353 119.32L145.098 119.328L145.421 121.876L144.726 121.869L144.566 120.506L144.153 121.863L143.656 121.858L143.273 120.493L143.086 121.852L142.39 121.845L142.763 119.304L142.763 119.304ZM145.721 119.335L146.467 119.342L146.456 120.375L147.188 119.35L148.009 119.358L147.052 120.608L148.008 121.903L147.114 121.893L146.454 120.853L146.443 121.886L145.697 121.879L145.723 119.335L145.721 119.335L145.721 119.335ZM142.54 116.579C138.065 116.533 135.088 118.141 135.063 120.558C135.039 122.952 137.98 124.644 142.457 124.69C146.957 124.737 149.909 123.103 149.934 120.711C149.958 118.294 147.042 116.626 142.54 116.579ZM142.461 124.314C138.257 124.27 135.465 122.756 135.488 120.563C135.51 118.347 138.335 116.913 142.536 116.956C146.762 116.999 149.534 118.489 149.512 120.707C149.489 122.9 146.689 124.357 142.461 124.314ZM142.533 117.31C138.58 117.269 135.93 118.578 135.909 120.567C135.889 122.557 138.512 123.919 142.464 123.96C146.417 124.001 149.067 122.692 149.087 120.703C149.11 118.713 146.487 117.35 142.533 117.31ZM142.465 123.886C138.56 123.846 135.965 122.509 135.985 120.57C136.005 118.631 138.629 117.348 142.532 117.388C146.434 117.428 149.032 118.765 149.012 120.704C148.994 122.643 146.37 123.926 142.465 123.886L142.465 123.886Z" fill="white"/>
</svg>
