<svg width="188" height="514" viewBox="0 0 188 514" fill="none" xmlns="http://www.w3.org/2000/svg">
<path d="M102.474 74.8849C101.872 74.8849 100.593 74.8849 99.4639 75.2612C99.4639 76.1641 101.47 76.8915 102.474 77.1424C102.725 76.3899 103.076 74.8849 102.474 74.8849Z" fill="#013FA9"/>
<path d="M134.373 26.3768C135.848 32.0202 139.751 35.1342 140.011 40.9613C140.32 45.8112 141.925 50.4895 144.657 54.5085C147.267 57.8757 150.687 61.3734 149.434 71.8144H82.5854C82.5854 71.8144 79.9752 66.5939 83.1075 57.6408C86.7971 46.5878 89.5133 35.2335 91.2253 23.7075L134.373 26.3768Z" fill="#BC664A"/>
<path d="M124.61 54.5086V76.6696C124.61 76.6696 122.861 84.3176 111.141 84.3176C108.814 84.5138 106.501 83.8117 104.676 82.3554C102.85 80.8991 101.652 78.7991 101.327 76.4869V54.5086H124.61Z" fill="#FBBEAA"/>
<path d="M101.327 73.0674C108.688 76.5391 119.416 73.4329 124.61 63.8011V54.5086H101.327V73.0674Z" fill="#F18380"/>
<path d="M86.7879 37.5678C86.6764 42.8763 86.9119 48.1864 87.4927 53.4642C88.4585 60.9817 91.121 69.3345 104.459 69.3345C117.798 69.3345 124.558 63.331 127.429 53.4642C129.152 47.4868 132.65 38.6902 131.214 28.4841C129.779 18.2781 123.645 11.648 109.158 11.2565C94.6709 10.865 85.1957 17.3906 86.7879 37.5678Z" fill="#FBBEAA"/>
<path d="M114.979 42.1099C114.886 42.4943 114.687 42.845 114.405 43.1221C114.123 43.3992 113.769 43.5916 113.383 43.6775C112.997 43.7634 112.594 43.7393 112.221 43.6079C111.848 43.4766 111.519 43.2433 111.272 42.9345C111.025 42.6257 110.87 42.2538 110.824 41.861C110.777 41.4683 110.842 41.0704 111.011 40.7127C111.179 40.3549 111.445 40.0516 111.777 39.8372C112.109 39.6227 112.495 39.5058 112.89 39.4996C113.201 39.5286 113.503 39.6199 113.777 39.7679C114.052 39.916 114.294 40.1179 114.489 40.3615C114.684 40.6051 114.827 40.8854 114.912 41.1858C114.996 41.4862 115.019 41.8005 114.979 42.1099Z" fill="#403D4F"/>
<path d="M95.6368 42.1099C95.544 42.4943 95.3453 42.845 95.0631 43.1221C94.781 43.3992 94.4268 43.5916 94.0408 43.6775C93.6548 43.7634 93.2524 43.7393 92.8794 43.6079C92.5063 43.4766 92.1776 43.2433 91.9305 42.9345C91.6835 42.6257 91.528 42.2538 91.4818 41.861C91.4355 41.4683 91.5003 41.0704 91.6689 40.7127C91.8374 40.3549 92.1029 40.0516 92.4352 39.8372C92.7675 39.6227 93.1532 39.5058 93.5487 39.4996C93.8579 39.5321 94.1576 39.6256 94.4305 39.7747C94.7033 39.9239 94.9438 40.1257 95.1381 40.3685C95.3323 40.6113 95.4764 40.8903 95.562 41.1892C95.6476 41.4881 95.6731 41.8011 95.6368 42.1099Z" fill="#403D4F"/>
<path d="M108.688 34.7231C108.688 34.7231 108.688 34.7231 108.897 34.5143C109.107 34.3096 109.345 34.134 109.602 33.9923C109.931 33.8038 110.282 33.6549 110.646 33.5485C111.495 33.3154 112.377 33.2271 113.256 33.2875C113.625 33.3065 113.992 33.359 114.352 33.4441L115.37 33.7312C115.538 33.7854 115.679 33.9029 115.762 34.0588C115.845 34.2148 115.863 34.3969 115.814 34.5665C115.771 34.7 115.688 34.8168 115.575 34.9009C115.463 34.985 115.328 35.0324 115.188 35.0364H113.23C112.891 35.0107 112.551 35.0107 112.212 35.0364C111.877 35.0672 111.545 35.1284 111.22 35.2191C110.881 35.2191 110.646 35.4018 110.385 35.4279C110.199 35.506 110.007 35.5671 109.811 35.6106H109.576C109.413 35.6815 109.229 35.6856 109.063 35.6222C108.897 35.5587 108.762 35.4327 108.688 35.2713C108.649 35.1805 108.629 35.0828 108.629 34.9842C108.629 34.8855 108.649 34.7878 108.688 34.697V34.7231Z" fill="#403D4F"/>
<path d="M95.9763 35.7148C95.9763 35.7148 95.9763 35.7148 95.8197 35.7148L95.4281 35.5581H95.141C95.0378 35.5355 94.9309 35.5355 94.8278 35.5581C94.5971 35.4819 94.3617 35.4209 94.123 35.3754C93.8802 35.3483 93.635 35.3483 93.3922 35.3754H91.9043C91.8164 35.3755 91.7293 35.3578 91.6483 35.3234C91.5674 35.289 91.4943 35.2385 91.4334 35.1752C91.3724 35.1118 91.3249 35.0367 91.2937 34.9545C91.2625 34.8723 91.2482 34.7846 91.2517 34.6968C91.2568 34.5673 91.2987 34.4419 91.3727 34.3355C91.4467 34.2291 91.5497 34.1462 91.6694 34.0964L92.4785 33.8093C92.7673 33.7229 93.0651 33.6703 93.366 33.6527C93.7209 33.6009 94.0814 33.6009 94.4362 33.6527C95.1176 33.7381 95.7652 33.9989 96.3156 34.4096L96.8116 34.9056C96.9421 35.0622 96.9421 35.1144 96.9421 35.1405V35.3754C96.965 35.5547 96.9182 35.7359 96.8113 35.8817C96.7045 36.0274 96.5457 36.1265 96.3678 36.1585C96.189 36.0615 96.0503 35.9043 95.9763 35.7148Z" fill="#403D4F"/>
<path d="M101.327 51.0111C100.887 51.0085 100.452 50.9171 100.048 50.7421C99.6445 50.5672 99.2803 50.3124 98.9776 49.9931C98.867 49.8747 98.7821 49.7348 98.7282 49.5821C98.6743 49.4293 98.6526 49.2671 98.6644 49.1056C98.6644 48.8185 99.1081 45.2163 99.2648 43.8851C99.2948 43.7563 99.3683 43.6419 99.4729 43.561C99.5775 43.4802 99.7068 43.4379 99.8389 43.4413C99.9729 43.4608 100.094 43.5316 100.177 43.6388C100.26 43.7459 100.298 43.881 100.283 44.0156C100.283 44.1983 99.7085 48.9229 99.6563 49.2361C99.87 49.4727 100.132 49.6604 100.425 49.7865C100.718 49.9126 101.034 49.9742 101.353 49.967C101.487 49.9737 101.613 50.0316 101.705 50.1288C101.798 50.226 101.849 50.355 101.849 50.489C101.843 50.6254 101.785 50.7546 101.689 50.8511C101.592 50.9477 101.463 51.0047 101.327 51.0111Z" fill="#F18380"/>
<path d="M98.9257 56.1531C97.9599 56.388 97.5945 57.8497 98.1948 59.5464C98.787 60.7146 99.7558 61.6489 100.945 62.1984C102.134 62.7478 103.473 62.8803 104.746 62.5743C105.442 62.5412 106.123 62.3695 106.751 62.0692C107.379 61.769 107.94 61.3462 108.403 60.8257C108.865 60.3053 109.218 59.6977 109.442 59.0387C109.666 58.3797 109.756 57.6826 109.706 56.9883C109.706 55.8659 108.923 55.2134 107.461 55.2134C104.595 55.2899 101.74 55.6042 98.9257 56.1531Z" fill="#73102A"/>
<path d="M109.706 57.119V56.884C107.796 56.4425 105.789 56.7338 104.083 57.7005C102.377 58.6671 101.095 60.2387 100.492 62.1045C101.835 62.7626 103.345 62.9992 104.825 62.7832C105.52 62.7405 106.2 62.559 106.825 62.2494C107.449 61.9398 108.005 61.5083 108.46 60.9804C108.915 60.4525 109.259 59.8389 109.473 59.1757C109.688 58.5125 109.767 57.8132 109.706 57.119Z" fill="#D65155"/>
<path d="M99.7611 57.7193C103.067 57.7706 106.358 57.2677 109.497 56.2315C109.301 55.8759 109.001 55.5882 108.637 55.4065C108.274 55.2247 107.864 55.1575 107.461 55.2135C104.595 55.29 101.74 55.6043 98.9258 56.1532C98.6559 56.2462 98.4198 56.4175 98.2478 56.6454C98.0758 56.8732 97.9756 57.1471 97.9601 57.4322C98.5378 57.6373 99.1482 57.7346 99.7611 57.7193Z" fill="white"/>
<path d="M114.273 27.3101C114.273 27.3101 116.884 40.3614 127.951 45.4252C127.951 45.4252 136.175 40.5963 134.87 28.0932C127.837 30.588 114.43 -6.36209 92.6605 10.0303C90.5462 9.69094 95.3729 16.674 96.0515 13.4373C95.1617 13.9964 91.9917 12.4736 91.5724 13.4373C91.1532 14.4009 87.8276 12.9028 88.025 13.9349C88.2224 14.9671 87.2797 9.37239 88.025 10.1133C88.7702 10.8542 89.7218 11.3529 90.7551 11.5442C87.2017 12.0393 88.8185 14.6025 86.5957 17.4187C84.3729 20.2349 82.2703 22.8056 82.6143 26.3768C82.7256 28.6284 79.8751 31.0406 81.4595 32.6443C83.0439 34.2479 85.1639 35.2111 87.414 35.3497H91.2511C94.2195 33.9892 96.6199 31.635 98.0377 28.6936C97.6685 30.9108 96.8989 33.0424 95.7667 34.9843C95.5579 35.3758 96.0278 36.0544 99.2384 35.3758C102.924 34.108 106.005 31.5113 107.878 28.0932C107.177 30.3345 106.24 32.4955 105.085 34.5405C105.085 34.932 106.782 35.5063 109.288 34.3578C110.684 33.7509 111.886 32.773 112.765 31.5305C113.644 30.288 114.166 28.8283 114.273 27.3101Z" fill="#BC664A"/>
<path d="M97.1504 37.5681C98.0901 37.5681 98.4556 39.2909 98.4556 40.9353C98.3596 43.1628 97.6946 45.3285 96.524 47.226C96.0451 47.7986 95.4239 48.2351 94.7229 48.4916C94.0219 48.7482 93.2657 48.8159 92.5303 48.6877C91.6348 48.8263 90.7198 48.7672 89.8496 48.5147C88.9793 48.2622 88.1749 47.8223 87.4926 47.226C86.0557 45.4264 85.2 43.2325 85.0389 40.9353C85.0389 39.2909 85.5348 37.5681 86.7094 37.5681H97.1504Z" stroke="#403D4F" stroke-width="0.75" stroke-miterlimit="10"/>
<path d="M105.034 37.5681C103.781 37.5681 103.285 39.2909 103.285 40.9353C103.456 43.2583 104.371 45.4643 105.895 47.226C106.616 47.8181 107.453 48.2538 108.352 48.5054C109.25 48.757 110.192 48.8191 111.115 48.6877C113.462 48.9895 115.84 48.4732 117.85 47.226C119.683 45.6086 120.847 43.3654 121.113 40.9353C121.113 39.2909 120.486 37.5681 118.894 37.5681H105.034Z" stroke="#403D4F" stroke-width="0.75" stroke-miterlimit="10"/>
<path d="M98.2463 39.1343C98.9964 38.5627 99.9135 38.2532 100.857 38.2532C101.8 38.2532 102.717 38.5627 103.467 39.1343" stroke="#403D4F" stroke-width="0.75" stroke-miterlimit="10"/>
<path d="M118.945 37.5681H122.13C122.808 37.5681 123.592 37.7247 123.592 38.6383V40.1C123.592 40.4655 121.268 41.1963 120.981 42.0055" stroke="#403D4F" stroke-width="0.75" stroke-miterlimit="10"/>
<path d="M130.535 41.3795L123.592 38.6387" stroke="#403D4F" stroke-width="0.75" stroke-miterlimit="10"/>
<path d="M126.96 47.3568C127.169 43.8068 128.109 39.6565 132.442 40.283C137.506 41.0661 138.002 54.7699 127.221 53.1254L126.96 47.3568Z" fill="#FBBEAA"/>
<path d="M132.806 48.2704C132.716 48.2716 132.626 48.248 132.548 48.202C132.47 48.1559 132.406 48.0893 132.363 48.0093C132.248 47.7834 132.078 47.5905 131.867 47.4489C131.657 47.3072 131.414 47.2216 131.162 47.2002C130.861 47.2035 130.566 47.2845 130.305 47.4354C130.044 47.5863 129.827 47.802 129.674 48.0616C129.612 48.1508 129.522 48.2171 129.418 48.2501C129.314 48.2832 129.202 48.2811 129.1 48.2443C128.989 48.2137 128.894 48.1437 128.831 48.0475C128.769 47.9514 128.744 47.8357 128.761 47.7222C128.806 46.6243 129.148 45.5592 129.75 44.64C130.352 43.7207 131.192 42.9818 132.18 42.5017C132.246 42.4623 132.321 42.438 132.398 42.4308C132.475 42.4236 132.552 42.4335 132.625 42.4599C132.697 42.4863 132.763 42.5284 132.818 42.5834C132.872 42.6383 132.914 42.7046 132.939 42.7775C132.965 42.8504 132.974 42.9281 132.966 43.0049C132.958 43.0818 132.933 43.1559 132.893 43.2219C132.852 43.2879 132.798 43.3442 132.734 43.3867C132.669 43.4291 132.596 43.4568 132.519 43.4675C131.933 43.7527 131.41 44.1543 130.984 44.6479C130.558 45.1416 130.236 45.7169 130.04 46.3388C130.404 46.1592 130.809 46.0781 131.214 46.1039C131.636 46.1438 132.042 46.2859 132.397 46.5178C132.751 46.7498 133.044 47.0646 133.25 47.4351C133.307 47.5537 133.318 47.6895 133.279 47.8154C133.24 47.9413 133.155 48.0478 133.041 48.1138L132.806 48.2704Z" fill="#F18380"/>
<path d="M155.728 221.567C155.198 214.882 148.031 189.256 140.333 174.657C140.333 174.657 123.541 176.779 112.727 176.814C101.445 176.851 83.9169 174.657 83.9169 174.657C78.8979 186.023 73.1791 210.853 71.5141 216.21C70.5089 219.361 70.3868 222.728 71.1611 225.944C71.9354 229.161 73.5764 232.103 75.9058 234.452C81.6246 240.943 96.3681 248.375 99.7705 248.375C114.408 246.284 128.756 242.511 142.529 237.131C150.299 233.873 156.235 228.275 155.728 221.567Z" fill="#013EA5"/>
<path d="M22.4579 82.3832C22.3584 80.2088 22.9405 78.0576 24.1229 76.2301C25.9433 74.1193 27.3071 71.6546 28.1285 68.991C28.7603 66.5185 29.7696 64.1582 31.1207 61.9932C32.0859 60.666 33.5337 59.5802 33.5337 58.5668C33.5337 57.5533 31.6033 55.5987 28.8524 56.1537C27.6741 56.5208 26.5915 57.1438 25.6821 57.9781C24.7727 58.8124 24.059 59.8374 23.592 60.9798C23.3284 60.2837 23.1739 59.5512 23.1336 58.8081L22.5303 44.0163C22.5212 43.6328 22.4352 43.2551 22.2777 42.9053C22.1201 42.5556 21.894 42.2411 21.6129 41.9801C21.3317 41.7192 21.0012 41.5173 20.6407 41.3862C20.2802 41.2552 19.8971 41.1977 19.5141 41.2172C18.9042 41.2432 18.3177 41.4597 17.8373 41.8362C17.3569 42.2128 17.0065 42.7305 16.8356 43.3165V42.6408C16.7428 41.9218 16.3814 41.2644 15.824 40.8008C15.2666 40.3372 14.5544 40.1015 13.8304 40.1412C13.1065 40.1809 12.4244 40.493 11.921 41.0149C11.4177 41.5367 11.1303 42.2296 11.1167 42.9545V45.0056C10.8751 44.3733 10.4142 43.8488 9.81818 43.5278C9.22216 43.2068 8.53065 43.1107 7.86968 43.257C7.20871 43.4032 6.62228 43.782 6.21729 44.3245C5.81229 44.8669 5.61568 45.5368 5.6633 46.2121V47.5151C5.40358 47.0587 5.01653 46.6878 4.54943 46.4478C4.08232 46.2079 3.55541 46.1092 3.03312 46.1638C2.31788 46.2546 1.66609 46.6202 1.21569 47.1832C0.765305 47.7462 0.551666 48.4624 0.620102 49.1801L1.80246 61.6554C2.57701 68.6888 4.03167 75.6306 6.14593 82.3832C6.17149 83.5107 6.4327 84.6203 6.91274 85.6408C7.39278 86.6613 8.08102 87.5701 8.93326 88.3087C9.78549 89.0473 10.7829 89.5994 11.8612 89.9295C12.9396 90.2596 14.0751 90.3605 15.1947 90.2255C16.208 90.2593 17.2166 90.0749 18.1523 89.6846C19.088 89.2943 19.9288 88.7073 20.6177 87.9635C21.3066 87.2197 21.8275 86.3364 22.145 85.3736C22.4625 84.4108 22.5692 83.3909 22.4579 82.3832Z" fill="#FBBEAA"/>
<path d="M103.776 476.188C103.776 473.865 102.854 471.637 101.211 469.994C99.5682 468.351 97.3402 467.428 95.0171 467.428C92.694 467.428 90.466 468.351 88.8234 469.994C87.1807 471.637 86.2578 473.865 86.2578 476.188V495.226H103.776V476.188Z" fill="#FBBEAA"/>
<path d="M86.8845 479.735C84.7369 479.735 84.3508 480.676 83.7234 481.907C82.7059 485.186 80.9661 488.196 78.632 490.714C75.1474 493.682 71.4089 496.339 67.4597 498.653V508.739H106.454C106.454 508.739 106.189 500.777 105.996 495.154C105.803 489.532 105.248 482.679 105.296 481.955C105.344 481.231 105.296 479.735 103.969 479.735H86.8845Z" fill="#302D3B"/>
<path d="M101.605 495.709C101.61 496.947 101.247 498.159 100.562 499.19C99.8768 500.221 98.901 501.026 97.758 501.502C96.615 501.978 95.3564 502.104 94.1419 501.864C92.9273 501.623 91.8115 501.028 90.9361 500.152C90.0606 499.277 89.4648 498.161 89.2244 496.946C88.9841 495.732 89.1099 494.473 89.5859 493.33C90.0619 492.187 90.8667 491.211 91.8982 490.526C92.9296 489.842 94.1412 489.478 95.3793 489.483C97.0285 489.49 98.6083 490.148 99.7745 491.314C100.941 492.48 101.599 494.06 101.605 495.709Z" fill="#0447BA"/>
<path d="M95.3789 492.041L96.8026 494.14L99.2397 494.84L97.6954 496.843L97.7678 499.377L95.3789 498.508L92.99 499.377L93.0865 496.843L91.5181 494.84L93.9552 494.14L95.3789 492.041Z" fill="white"/>
<path d="M67.7257 498.484C67.7257 498.484 62.1999 501.404 60.1247 502.828C59.164 503.479 58.3836 504.362 57.8562 505.396C57.3288 506.429 57.0716 507.58 57.1085 508.74H72.2622C72.2622 508.74 71.9485 501.332 67.7257 498.484Z" fill="white"/>
<path d="M106.454 508.74V512.914C106.454 513.614 105.827 514 104.765 514H58.7729C57.7353 514 57.1079 513.614 57.1079 512.914V508.74H106.454Z" fill="white"/>
<path d="M72.2622 495.661C72.1286 495.456 71.9203 495.311 71.6815 495.257C71.4427 495.203 71.1923 495.244 70.9833 495.371C70.8793 495.435 70.7891 495.519 70.718 495.619C70.6469 495.718 70.5964 495.831 70.5695 495.95C70.5425 496.069 70.5396 496.192 70.5609 496.313C70.5823 496.433 70.6274 496.548 70.6938 496.65L72.3105 499.256C72.3884 499.391 72.5012 499.503 72.637 499.579C72.7729 499.656 72.9268 499.694 73.0826 499.691C73.2614 499.688 73.4362 499.638 73.5893 499.546C73.6934 499.482 73.7836 499.398 73.8547 499.298C73.9257 499.199 73.9763 499.086 74.0033 498.967C74.0303 498.848 74.0331 498.725 74.0117 498.605C73.9904 498.484 73.9453 498.369 73.879 498.267L72.2622 495.661Z" fill="white"/>
<path d="M75.1093 493.658C75.0301 493.566 74.9336 493.491 74.8252 493.436C74.7169 493.381 74.5988 493.349 74.4778 493.34C74.3568 493.331 74.2353 493.346 74.1201 493.384C74.0049 493.422 73.8983 493.482 73.8064 493.561C73.7145 493.641 73.6391 493.737 73.5845 493.845C73.5299 493.954 73.4971 494.072 73.4882 494.193C73.4792 494.314 73.4942 494.435 73.5322 494.551C73.5702 494.666 73.6306 494.772 73.7098 494.864L75.592 497.084C75.6788 497.186 75.7859 497.269 75.9063 497.327C76.0268 497.385 76.1581 497.417 76.2918 497.422C76.4666 497.419 76.637 497.367 76.7839 497.272C76.9308 497.177 77.0485 497.044 77.1237 496.886C77.1988 496.728 77.2285 496.552 77.2095 496.379C77.1904 496.205 77.1233 496.04 77.0156 495.902L75.1093 493.658Z" fill="white"/>
<path d="M77.7875 491.414C77.5956 491.29 77.3652 491.241 77.1393 491.274C76.9134 491.308 76.7074 491.422 76.5598 491.597C76.4121 491.771 76.3329 491.993 76.3368 492.221C76.3407 492.45 76.4275 492.669 76.581 492.838L78.7286 494.696C78.897 494.838 79.1112 494.916 79.3318 494.913C79.4647 494.918 79.5969 494.892 79.7182 494.838C79.8395 494.783 79.9468 494.702 80.0316 494.599C80.1208 494.516 80.1918 494.415 80.2404 494.303C80.289 494.191 80.314 494.07 80.314 493.948C80.314 493.826 80.289 493.705 80.2404 493.593C80.1918 493.481 80.1208 493.38 80.0316 493.296L77.7875 491.414Z" fill="white"/>
<path d="M82.4935 490.304L80.0804 488.808C79.8686 488.682 79.6161 488.645 79.377 488.704C79.138 488.762 78.9313 488.912 78.8015 489.122C78.7363 489.226 78.6925 489.342 78.673 489.463C78.6534 489.584 78.6584 489.708 78.6877 489.827C78.717 489.947 78.7699 490.059 78.8433 490.157C78.9168 490.256 79.0092 490.338 79.1153 490.4L81.5283 491.897C81.6713 491.991 81.8393 492.042 82.0109 492.041C82.1681 492.037 82.3217 491.993 82.4569 491.913C82.5922 491.833 82.7044 491.719 82.783 491.583C82.9106 491.374 82.9517 491.123 82.8977 490.885C82.8436 490.646 82.6986 490.438 82.4935 490.304Z" fill="white"/>
<path d="M84.5204 487.192L81.8178 486.057C81.5874 485.961 81.3283 485.961 81.0975 486.056C80.8667 486.151 80.6832 486.334 80.5872 486.564C80.5401 486.677 80.5158 486.797 80.5159 486.919C80.5159 487.041 80.5403 487.161 80.5874 487.274C80.6346 487.386 80.7037 487.488 80.7907 487.573C80.8776 487.659 80.9807 487.726 81.0939 487.771L83.7965 488.905H84.1584C84.3666 488.894 84.5652 488.814 84.723 488.677C84.8808 488.541 84.9889 488.356 85.0303 488.152C85.0717 487.948 85.0441 487.735 84.9518 487.548C84.8595 487.361 84.7078 487.211 84.5204 487.119V487.192Z" fill="white"/>
<path d="M86.2094 483.716L83.2173 482.968C82.9805 482.911 82.7305 482.949 82.5223 483.076C82.3142 483.203 82.1648 483.407 82.1072 483.644C82.0496 483.881 82.0885 484.131 82.2152 484.339C82.3419 484.547 82.5461 484.696 82.7829 484.754L85.7509 485.526H85.9681C86.1759 485.524 86.3774 485.454 86.5426 485.328C86.7078 485.202 86.8279 485.026 86.885 484.826C86.9367 484.59 86.8954 484.343 86.7695 484.136C86.6437 483.929 86.4431 483.779 86.2094 483.716Z" fill="white"/>
<path d="M116.59 354.427C116.324 342.748 108.458 337.102 96.8029 337.391C85.148 337.681 76.7507 343.786 77.0161 355.441L86.258 477.129H103.776L116.59 354.427Z" fill="#FBBEAA"/>
<path d="M118.109 354.354C118.044 351.581 117.433 348.849 116.312 346.312C115.191 343.775 113.581 341.484 111.575 339.569C109.568 337.655 107.204 336.154 104.618 335.153C102.031 334.152 99.2728 333.67 96.5001 333.735C93.7273 333.8 90.9946 334.41 88.4578 335.532C85.921 336.653 83.6298 338.262 81.7151 340.269C79.8004 342.275 78.2998 344.639 77.2987 347.226C76.2977 349.812 75.8159 352.571 75.8808 355.344L72.9809 481.218H120.686L118.109 354.354Z" fill="#013EA5"/>
<path d="M177.615 476.188C177.615 473.865 176.692 471.637 175.049 469.994C173.406 468.351 171.178 467.428 168.855 467.428C166.532 467.428 164.304 468.351 162.661 469.994C161.019 471.637 160.096 473.865 160.096 476.188V495.226H177.615V476.188Z" fill="#FBBEAA"/>
<path d="M160.748 479.735C158.576 479.735 158.19 480.676 157.586 481.907C156.557 485.186 154.81 488.195 152.471 490.714C148.991 493.688 145.252 496.345 141.299 498.653V508.739H180.293C180.293 508.739 180.028 500.777 179.834 495.154C179.641 489.532 179.111 482.679 179.135 481.955C179.159 481.231 179.135 479.735 177.832 479.735H160.748Z" fill="#302D3B"/>
<path d="M175.467 495.709C175.471 496.946 175.109 498.157 174.425 499.187C173.741 500.218 172.767 501.023 171.625 501.5C170.484 501.977 169.226 502.104 168.012 501.866C166.798 501.627 165.683 501.034 164.806 500.161C163.93 499.288 163.332 498.174 163.089 496.961C162.846 495.748 162.968 494.49 163.441 493.347C163.913 492.204 164.714 491.226 165.742 490.538C166.77 489.85 167.98 489.483 169.217 489.483C170.87 489.483 172.456 490.138 173.627 491.305C174.799 492.472 175.46 494.055 175.467 495.709Z" fill="#0447BA"/>
<path d="M169.241 492.041L170.665 494.14L173.102 494.84L171.534 496.843L171.606 499.377L169.241 498.508L166.852 499.377L166.925 496.843L165.356 494.84L167.818 494.14L169.241 492.041Z" fill="white"/>
<path d="M141.588 498.484C141.588 498.484 136.038 501.404 133.987 502.828C133.022 503.474 132.238 504.356 131.71 505.391C131.182 506.426 130.927 507.579 130.971 508.74H146.197C146.197 508.74 145.787 501.332 141.588 498.484Z" fill="white"/>
<path d="M180.293 508.74V512.914C180.293 513.614 179.69 514 178.628 514H132.588C131.526 514 130.923 513.614 130.923 512.914V508.74H180.293Z" fill="white"/>
<path d="M146.1 495.661C145.969 495.453 145.761 495.305 145.521 495.251C145.281 495.197 145.029 495.24 144.821 495.371C144.613 495.502 144.466 495.711 144.412 495.951C144.357 496.191 144.401 496.442 144.532 496.65L146.149 499.256C146.232 499.391 146.35 499.503 146.489 499.579C146.629 499.655 146.786 499.693 146.945 499.691C147.117 499.691 147.284 499.641 147.427 499.546C147.532 499.482 147.622 499.398 147.693 499.298C147.764 499.199 147.814 499.086 147.841 498.967C147.868 498.848 147.871 498.725 147.85 498.605C147.829 498.484 147.783 498.369 147.717 498.267L146.1 495.661Z" fill="white"/>
<path d="M148.972 493.658C148.813 493.473 148.588 493.357 148.345 493.334C148.102 493.312 147.86 493.384 147.669 493.537C147.483 493.701 147.366 493.93 147.343 494.177C147.321 494.424 147.394 494.67 147.549 494.864L149.455 497.084C149.539 497.19 149.645 497.275 149.766 497.333C149.887 497.392 150.02 497.422 150.155 497.422C150.332 497.424 150.505 497.375 150.655 497.28C150.804 497.185 150.923 497.049 150.997 496.889C151.071 496.728 151.097 496.549 151.072 496.374C151.046 496.199 150.971 496.035 150.855 495.902L148.972 493.658Z" fill="white"/>
<path d="M151.626 491.414C151.434 491.29 151.204 491.241 150.978 491.274C150.752 491.308 150.546 491.422 150.398 491.597C150.251 491.771 150.172 491.993 150.176 492.221C150.179 492.45 150.266 492.669 150.42 492.838L152.591 494.696C152.76 494.838 152.974 494.916 153.195 494.913C153.327 494.916 153.459 494.889 153.58 494.835C153.701 494.781 153.809 494.7 153.895 494.599C153.981 494.514 154.049 494.413 154.096 494.301C154.142 494.189 154.166 494.069 154.166 493.948C154.166 493.827 154.142 493.707 154.096 493.595C154.049 493.483 153.981 493.382 153.895 493.296L151.626 491.414Z" fill="white"/>
<path d="M156.332 490.304L153.919 488.808C153.711 488.72 153.478 488.71 153.263 488.78C153.048 488.849 152.865 488.994 152.748 489.187C152.631 489.38 152.587 489.609 152.625 489.832C152.663 490.055 152.779 490.257 152.954 490.4L155.367 491.897C155.51 491.991 155.677 492.042 155.849 492.041C156.01 492.039 156.168 491.996 156.307 491.916C156.446 491.836 156.563 491.721 156.645 491.583C156.771 491.371 156.808 491.118 156.75 490.879C156.691 490.64 156.541 490.434 156.332 490.304Z" fill="white"/>
<path d="M22.7471 84.0004L32.3992 144.591C33.9918 152.192 31.5305 159.069 22.7471 160.276C21.1258 160.487 19.4785 160.367 17.9052 159.922C16.3319 159.477 14.8654 158.717 13.5949 157.687C12.3243 156.658 11.2762 155.382 10.5142 153.935C9.75209 152.489 9.29202 150.902 9.16183 149.273L6.21795 84.121C5.44579 77.9678 8.12419 73.8657 12.8054 73.359C18.5484 72.7316 21.5889 76.134 22.7471 84.0004Z" fill="#FBBEAA"/>
<path d="M158.358 487.192L155.655 486.057C155.543 486.01 155.422 485.986 155.301 485.986C155.179 485.986 155.058 486.01 154.946 486.058C154.833 486.105 154.732 486.174 154.646 486.261C154.561 486.348 154.494 486.451 154.449 486.564C154.359 486.789 154.359 487.039 154.448 487.264C154.538 487.489 154.711 487.67 154.931 487.771L157.658 488.905C157.769 488.93 157.885 488.93 157.996 488.905C158.182 488.905 158.363 488.85 158.518 488.747C158.673 488.644 158.793 488.497 158.865 488.326C158.938 488.108 158.926 487.87 158.833 487.66C158.739 487.45 158.569 487.283 158.358 487.192Z" fill="white"/>
<path d="M160.048 483.717L157.08 482.969C156.84 482.91 156.587 482.948 156.375 483.074C156.163 483.201 156.009 483.405 155.946 483.644C155.917 483.761 155.912 483.883 155.93 484.002C155.949 484.122 155.991 484.236 156.053 484.339C156.116 484.443 156.199 484.532 156.296 484.603C156.394 484.675 156.504 484.726 156.622 484.754L159.59 485.526H159.831C160.048 485.51 160.253 485.418 160.411 485.267C160.568 485.116 160.668 484.915 160.694 484.699C160.719 484.482 160.669 484.263 160.551 484.08C160.433 483.896 160.256 483.759 160.048 483.692V483.717Z" fill="white"/>
<path d="M168.034 354.065C166.849 348.588 163.537 343.805 158.827 340.769C154.116 337.733 148.393 336.691 142.915 337.874C131.501 340.287 125.348 351.531 127.809 362.945L160.096 479.132H177.831L168.034 354.065Z" fill="#FBBEAA"/>
<path d="M168.034 351.772C166.725 346.427 163.382 341.802 158.716 338.883C154.05 335.963 148.43 334.979 143.05 336.138C137.67 337.298 132.954 340.511 129.905 345.093C126.856 349.675 125.715 355.266 126.724 360.676L138.07 480.09C138.07 480.09 168.811 481.924 187.126 480.09L168.034 351.772Z" fill="#013EA5"/>
<path d="M14.9046 137.883L84.2064 85.2308C92.29 80.067 97.7917 82.8179 102.087 88.3437C104.048 91.0182 104.958 94.3207 104.642 97.6224C104.326 100.924 102.807 103.994 100.374 106.248L31.2407 157.187C28.8045 159.245 25.6683 160.283 22.4855 160.085C19.3028 159.887 16.3193 158.469 14.1566 156.125L13.8429 155.788C12.695 154.563 11.8087 153.117 11.238 151.539C10.6673 149.961 10.4242 148.282 10.5236 146.607C10.6229 144.931 11.0626 143.294 11.8159 141.794C12.5691 140.294 13.62 138.963 14.9046 137.883Z" fill="#FBBEAA"/>
<path d="M100.374 106.224C101.014 105.674 101.596 105.059 102.111 104.39C102.567 102.673 102.626 100.874 102.283 99.1309C101.94 97.3875 101.205 95.7451 100.133 94.3281C96.4889 88.7058 88.8397 84.2899 85.4373 85.1345L82.0591 86.8477L43.8128 115.804C47.1978 123.759 51.7702 131.155 57.3739 137.738L100.374 106.224Z" fill="#F18380"/>
<path d="M89.9257 81.4664L29.9535 121.914C30.2058 123.983 25.3457 81.4664 25.3457 81.4664L3.14788 83.5384C3.14788 83.5384 4.44469 126.826 7.71136 149.687C9.00778 158.76 16.5594 162.2 25.5136 160.247C29.9346 159.282 34.0966 157.468 37.8003 154.868C53.7153 143.697 98.3644 112.233 102.015 108.275C108.313 101.446 108.313 96.3306 104.693 90.7083C101.074 85.086 93.3281 80.6218 89.9257 81.4664Z" fill="#013EA5"/>
<path d="M118.109 354.355L130.488 224.752C130.488 210.442 115.745 194.854 94.0035 198.208C74.3615 201.273 68.3772 221.011 69.9939 239.712C71.6106 258.413 75.9782 355.272 75.9782 355.272C76.0432 358.044 76.6536 360.777 77.7747 363.314C78.8958 365.851 80.5056 368.142 82.5121 370.057C84.5186 371.971 86.8827 373.472 89.4692 374.473C92.0557 375.474 94.814 375.956 97.5868 375.891C100.359 375.826 103.092 375.215 105.629 374.094C108.166 372.973 110.457 371.363 112.372 369.357C114.286 367.35 115.787 364.986 116.788 362.4C117.789 359.813 118.271 357.055 118.206 354.282L118.109 354.355Z" fill="#013EA5"/>
<path d="M168.034 351.773L155.728 222.194C153.122 208.126 135.628 195.65 114.9 203.034C96.1989 209.718 94.0272 230.229 99.1428 248.303C104.258 266.376 126.724 360.677 126.724 360.677C128.033 366.022 131.376 370.647 136.042 373.566C140.708 376.486 146.328 377.47 151.708 376.311C157.088 375.151 161.804 371.939 164.853 367.356C167.902 362.774 169.043 357.183 168.034 351.773Z" fill="#013EA5"/>
<path d="M99.1429 248.303C104.234 266.376 126.724 360.677 126.724 360.677" stroke="#E9E9E9" stroke-width="0.75" stroke-miterlimit="10"/>
<path d="M102.763 79.4152C102.763 79.4152 92.0971 81.2732 90.0219 81.8282C88.7972 82.1156 87.6656 82.7091 86.7329 83.5532C85.8002 84.3973 85.097 85.4643 84.6892 86.6542C83.362 89.8153 76.5332 110.519 75.9058 112.763C75.4816 115.235 75.88 117.778 77.0399 120.002C78.0293 122.705 83.1449 135.011 83.1449 135.011L83.917 174.657L112.727 179.226L140.333 174.657C140.333 174.657 149.985 100.915 150.468 96.3546C150.951 91.794 148.682 82.9865 143.229 81.8765C137.776 80.7665 122.815 79.4635 122.815 79.4635L102.763 79.4152Z" fill="#FBBEAA"/>
<path d="M82.5641 158.716V172.654C101.434 174.392 131.501 173.161 142.794 172.654C143.325 168.673 143.88 161.916 144.459 157.428C129.088 157.814 103.702 159.247 82.5641 158.716Z" fill="white"/>
<path d="M182.079 171.11L151.168 89.7671C147.042 81.0802 140.937 80.5011 134.277 82.9141C131.196 84.1429 128.677 86.4634 127.199 89.4323C125.721 92.4013 125.389 95.8106 126.266 99.009L158.093 178.904C159.058 181.944 161.163 184.491 163.966 186.012C166.769 187.533 170.052 187.908 173.126 187.06L173.585 186.939C175.206 186.497 176.721 185.729 178.036 184.682C179.351 183.635 180.439 182.331 181.234 180.85C182.028 179.369 182.513 177.742 182.659 176.067C182.804 174.392 182.606 172.706 182.079 171.11Z" fill="#FBBEAA"/>
<path d="M169.266 137.376L151.168 89.767C150.683 88.7229 150.11 87.722 149.455 86.7749C147.238 85.387 144.7 84.5954 142.088 84.477C139.475 84.3587 136.876 84.9175 134.543 86.0992C131.833 87.4177 129.655 89.6219 128.369 92.347C127.084 95.072 126.767 98.1546 127.472 101.084C127.472 101.374 127.641 101.929 127.786 102.677L146.463 149.61C154.621 146.668 162.303 142.546 169.266 137.376Z" fill="#F18380"/>
<path d="M148.75 84.2907C154.018 91.0631 184.493 173.835 184.493 173.835C156.275 164.805 158.923 140.402 143.576 142.983C143.576 142.983 125.879 101.446 125.203 97.7303C124.498 94.8008 124.815 91.7184 126.101 88.9933C127.386 86.2682 129.564 84.0639 132.274 82.7455C139.826 78.8846 143.483 77.5183 148.75 84.2907Z" fill="#0045BA"/>
<path d="M97.5488 79.3997C91.9716 80.4603 89.451 80.587 88.0348 81.5209C85.7943 83.0241 74.256 103.394 74.256 112.585C74.256 120.716 76.2244 185.764 77.8648 186.824C79.5051 187.885 108.87 189.26 108.87 189.26V97.1504C105.889 87.9258 99.6625 85.3673 97.5488 79.3997Z" fill="#0045BA"/>
<path d="M88.0348 81.5209C89.451 80.587 95.0153 79.7078 100.592 78.6473C102.706 84.6148 105.889 87.9258 108.87 97.1504V112.585H74.256C74.256 103.394 85.7943 83.0241 88.0348 81.5209Z" fill="#9A99A1"/>
<path d="M109.246 76.3899C116.168 76.3899 122.414 73.38 124.671 71.8751V78.6473C124.421 79.0235 122.489 80.2275 116.77 82.0334C111.052 83.8393 102.85 83.1621 99.4637 82.0334V75.2612C99.4637 75.6374 100.592 76.3899 109.246 76.3899Z" fill="#034CC9"/>
<path d="M74.267 114.013H108.87V106.489L75.2509 106.817C74.5949 109.404 74.1825 111.251 74.267 114.013Z" fill="#D3D4D2"/>
<path d="M153.183 182.594C153.183 175.062 154.378 157.154 147.669 139.82C141.83 141.234 129.142 98.2829 141.83 83.9664C146.047 79.2089 149.754 86.093 148.642 84.3199C147.53 82.5469 146.298 80.8066 144.482 79.972C141.243 78.4005 134.046 78.6639 127.559 78.6639C119.774 88.2085 111.712 90.3333 108.869 97.1661V189.227C108.869 189.227 153.183 190.127 153.183 182.594Z" fill="#034CC9"/>
<path d="M153.183 182.594C153.183 175.062 154.378 157.154 147.669 139.82C141.83 141.234 129.142 98.2829 141.83 83.9664C146.047 79.2089 149.754 86.093 148.642 84.3199C147.53 82.5469 146.298 80.8066 144.482 79.972C141.243 78.4005 134.046 78.6639 127.559 78.6639C119.774 88.2085 111.712 90.3333 108.869 97.1661V189.227C108.869 189.227 153.183 190.127 153.183 182.594Z" fill="#034CC9"/>
<path d="M148.751 84.2909C149.862 86.0639 146.047 79.2089 141.831 83.9664C136.501 89.9803 135.648 101.047 136.886 111.756H108.87L108.87 83.1621C116.394 82.4097 120.157 81.2809 124.672 78.6473C131.159 78.6473 141.373 78.2044 144.612 79.776C146.428 80.6106 147.639 82.5178 148.751 84.2909Z" fill="#A2A0AB"/>
<path d="M108.87 189.26C106.947 188.615 105.264 187.372 104.052 185.702C102.84 184.031 102.157 182.015 102.097 179.928V76.7661H108.87V189.26Z" fill="#034CC9"/>
<path d="M136.465 106.489H102.098V114.013H137.169C136.711 110.627 136.465 109.122 136.465 106.489Z" fill="#CFD1CE"/>
<g style="mix-blend-mode:multiply" opacity="0.4">
<path d="M109.622 83.008L108.87 83.1621V189.26H109.622V83.008Z" fill="#013FA9"/>
</g>
<path d="M120.112 132.912L158.528 180.762C163.088 187.036 169.845 189.835 176.577 184.188C177.822 183.13 178.839 181.83 179.567 180.367C180.295 178.904 180.718 177.309 180.81 175.677C180.903 174.046 180.663 172.413 180.105 170.877C179.548 169.341 178.684 167.934 177.566 166.742L131.285 120.895C127.255 116.19 122.405 115.441 118.882 118.482C114.611 122.27 115.117 126.71 120.112 132.912Z" fill="#FBBEAA"/>
<path d="M133.601 123.404C129.33 119.085 121.343 109.771 118.64 107.503C115.968 105.489 113.049 103.827 109.954 102.556C107.605 101.769 105.178 101.243 102.715 100.987C101.001 100.77 100.302 101.277 100.302 102.315C100.345 102.933 100.542 103.53 100.875 104.053C101.207 104.575 101.666 105.006 102.208 105.307H99.0468C97.9609 105.307 97.2612 106.175 97.7679 107.575C98.2281 108.5 98.886 109.312 99.695 109.954C100.504 110.596 101.444 111.053 102.449 111.291C102.449 111.291 98.1781 111.701 97.0923 111.918C96.0064 112.136 95.6686 112.546 95.6686 113.583C95.6779 114.3 95.8771 115.002 96.2459 115.616C96.6147 116.231 97.1399 116.737 97.7679 117.082C99.3051 117.706 100.937 118.065 102.594 118.144C102.594 118.144 97.3094 119.471 96.2477 119.857C95.186 120.243 95.0653 120.943 95.6203 121.86C95.9366 122.506 96.3932 123.073 96.9568 123.52C97.5204 123.966 98.1768 124.282 98.8779 124.442C100.881 124.973 102.232 124.104 102.956 124.225C104.511 124.726 106.034 125.322 107.516 126.01C109.742 128.226 112.463 129.881 115.455 130.836C117.682 131.771 119.725 133.095 121.488 134.746C122.309 135.516 123.276 136.114 124.333 136.504C125.389 136.895 126.513 137.069 127.638 137.017C128.763 136.965 129.866 136.689 130.882 136.203C131.898 135.718 132.806 135.033 133.553 134.191C137.414 130.088 136.762 126.662 133.601 123.404Z" fill="#FBBEAA"/>
<path d="M119.404 138.092L158.249 181.774C162.904 187.978 173.782 191.387 180.428 185.639C181.657 184.563 182.655 183.247 183.36 181.774C184.066 180.3 184.464 178.698 184.532 177.065C184.6 175.433 184.336 173.803 183.755 172.276C183.174 170.749 182.289 169.355 181.153 168.18L134.077 118.904L119.404 138.092Z" fill="#0045BA"/>
<path d="M102.738 105.331C102.732 105.371 102.733 105.412 102.743 105.451C102.753 105.49 102.771 105.527 102.796 105.559C102.821 105.591 102.853 105.617 102.888 105.636C102.924 105.655 102.963 105.666 103.004 105.669L104.982 105.862H105.948C106.285 105.862 106.599 105.982 106.937 106.007C107.294 106.114 107.641 106.251 107.975 106.417L109.085 106.875C110.581 107.478 112.077 108.033 113.187 108.444C114.297 108.854 115.069 109.095 115.069 109.095C115.13 109.121 115.199 109.123 115.261 109.101C115.324 109.078 115.376 109.033 115.407 108.974C115.452 108.916 115.476 108.844 115.476 108.769C115.476 108.695 115.452 108.623 115.407 108.564L113.597 107.623L111.715 106.73C111.039 106.417 110.291 106.103 109.543 105.813L108.409 105.379C108.044 105.214 107.664 105.085 107.275 104.993L106.117 104.872H105.127H103.655H103.1C103.04 104.824 102.962 104.803 102.885 104.812C102.808 104.821 102.738 104.86 102.69 104.921C102.642 104.981 102.62 105.059 102.629 105.136C102.638 105.213 102.678 105.283 102.738 105.331ZM103.197 111.146H103.631C103.992 111.114 104.356 111.114 104.717 111.146L105.465 111.267C105.741 111.301 106.015 111.35 106.286 111.412L107.926 111.943C109.036 112.304 110.122 112.763 110.943 113.101C110.943 113.101 111.208 113.101 111.184 113.221H111.473L111.908 113.342H112.173H112.318C112.391 113.359 112.454 113.404 112.495 113.467C112.535 113.53 112.55 113.606 112.535 113.68C112.525 113.738 112.495 113.79 112.452 113.83C112.408 113.869 112.352 113.893 112.294 113.897H111.063H110.677C109.833 113.68 108.699 113.342 107.589 112.956L105.972 112.353L105.224 112.16L104.572 111.967C104.239 111.868 103.901 111.787 103.559 111.725L103.149 111.605C103.112 111.594 103.078 111.576 103.049 111.551C103.019 111.527 102.995 111.497 102.977 111.464C102.959 111.43 102.948 111.393 102.944 111.355C102.941 111.317 102.944 111.279 102.956 111.243C102.984 111.207 103.021 111.18 103.064 111.163C103.106 111.146 103.152 111.14 103.197 111.146ZM103.197 117.999H104.09C104.331 117.999 104.645 117.999 104.958 118.168L105.948 118.482C106.57 118.701 107.175 118.967 107.757 119.278C108.025 119.404 108.283 119.549 108.53 119.712C108.579 119.769 108.606 119.842 108.606 119.918C108.606 119.993 108.579 120.066 108.53 120.123C108.46 120.196 108.365 120.239 108.264 120.243L107.371 120.099C106.865 119.978 106.213 119.785 105.562 119.568L104.621 119.182L103.8 118.868C103.527 118.747 103.261 118.61 103.004 118.458C102.936 118.417 102.885 118.352 102.863 118.276C102.84 118.2 102.848 118.118 102.883 118.047C102.955 118.002 103.041 117.984 103.124 117.999H103.197Z" fill="#F18380"/>
<path d="M21.975 63.0794C22.8919 63.0794 22.9643 62.5003 23.3745 61.4385C21.3234 61.4385 15.3633 61.8246 12.7573 66.8437C15.3874 63.2241 20.4307 63.0794 21.975 63.0794ZM17.2937 43.9924C17.2937 43.9924 17.4385 44.837 17.5833 46.0676C17.5833 46.695 17.7281 47.443 17.7764 48.2152C17.8246 48.9873 17.897 49.8319 17.9694 50.6282C17.9694 52.3173 18.09 53.9823 18.09 55.2371C18.09 56.4918 18.09 57.3364 18.09 57.3364C18.0901 57.3765 18.082 57.4163 18.0659 57.4531C18.0499 57.4899 18.0263 57.5229 17.9968 57.5501C17.9673 57.5774 17.9325 57.5982 17.8946 57.6113C17.8566 57.6243 17.8164 57.6293 17.7764 57.6259C17.7085 57.6225 17.6435 57.5971 17.5912 57.5536C17.539 57.5101 17.5023 57.4508 17.4867 57.3847C17.4867 57.3847 17.342 56.5401 17.2213 55.2853C17.1007 54.0305 16.9076 52.3656 16.8353 50.7006C16.8353 49.856 16.8353 49.0115 16.8353 48.2876C16.8353 47.5636 16.8353 46.7674 16.8353 46.14C16.8353 44.8611 16.8353 44.0406 16.8353 44.0406C16.8351 44.0005 16.8433 43.9608 16.8593 43.924C16.8754 43.8872 16.8989 43.8541 16.9284 43.8268C16.9579 43.7996 16.9927 43.7788 17.0307 43.7658C17.0687 43.7527 17.109 43.7477 17.149 43.7511C17.1952 43.7777 17.2332 43.8166 17.2588 43.8634C17.2843 43.9103 17.2964 43.9632 17.2937 44.0165V43.9924ZM11.6955 45.6815C11.6955 45.6815 11.8403 46.4054 12.0092 47.4671C12.0092 48.0221 12.1781 48.6495 12.2505 49.3251C12.3229 50.0008 12.3953 50.7247 12.4677 51.4486C12.4677 52.8964 12.6366 54.3442 12.6607 55.4301C12.6848 56.5159 12.6607 57.264 12.6607 57.264C12.6577 57.3021 12.6471 57.3391 12.6297 57.3731C12.6123 57.4071 12.5883 57.4373 12.5592 57.462C12.53 57.4867 12.4962 57.5054 12.4598 57.5169C12.4234 57.5285 12.3851 57.5328 12.3471 57.5294C12.2822 57.5249 12.2206 57.4986 12.1725 57.4549C12.1243 57.4111 12.0923 57.3523 12.0816 57.2881C12.0816 57.2881 11.9368 56.5642 11.7679 55.5024C11.599 54.4407 11.4542 52.9688 11.3336 51.5451C11.3336 50.8212 11.3336 50.0973 11.1888 49.4217C11.044 48.746 11.1888 48.0945 11.1888 47.5395C11.1888 46.4537 11.1888 45.7298 11.1888 45.7298C11.1887 45.6896 11.1968 45.6499 11.2129 45.6131C11.2289 45.5763 11.2525 45.5432 11.282 45.516C11.3115 45.4888 11.3463 45.468 11.3842 45.4549C11.4222 45.4419 11.4625 45.4369 11.5025 45.4402C11.5561 45.4623 11.6024 45.4988 11.6365 45.5457C11.6705 45.5925 11.691 45.6479 11.6955 45.7056V45.6815ZM6.29038 47.9738C6.29038 47.9738 6.43513 48.5771 6.62817 49.4941C6.62817 49.9284 6.82125 50.4593 6.89364 51.0384C6.96603 51.6175 7.06251 52.2208 7.15903 52.824C7.32794 54.0547 7.4004 55.237 7.44866 56.2022C7.49692 57.1675 7.44866 57.7466 7.44866 57.7466C7.4488 57.7868 7.44054 57.8265 7.4245 57.8633C7.40847 57.9001 7.38493 57.9332 7.35543 57.9604C7.32593 57.9876 7.29111 58.0084 7.25314 58.0214C7.21518 58.0345 7.17496 58.0395 7.13495 58.0362C7.07335 58.033 7.01436 58.0101 6.96661 57.9711C6.91887 57.932 6.88482 57.8788 6.86948 57.819C6.86948 57.819 6.70061 57.2158 6.5317 56.3229C6.36279 55.4301 6.12146 54.1753 5.97668 52.9688C5.97668 52.3414 5.85601 51.7382 5.80775 51.159C5.75949 50.5799 5.80775 50.0491 5.80775 49.5906C5.80775 48.6737 5.80775 48.0462 5.80775 48.0462C5.80761 48.0061 5.81587 47.9664 5.8319 47.9296C5.84794 47.8928 5.8714 47.8597 5.9009 47.8325C5.9304 47.8052 5.9653 47.7845 6.00326 47.7714C6.04123 47.7584 6.08145 47.7533 6.12145 47.7567C6.166 47.7815 6.20435 47.8161 6.23361 47.8579C6.26286 47.8997 6.28227 47.9476 6.29038 47.998V47.9738Z" fill="#F18380"/>
<path d="M180.354 434.565L178.097 419.892H132.196L133.701 434.941L180.354 434.565Z" fill="#CFD1CE"/>
<path d="M119.78 434.565L119.404 419.892H74.2559L73.8797 434.941L119.78 434.565Z" fill="#CFD1CE"/>
<path d="M165.305 149.379L157.404 142.983L141.602 162.924L147.998 170.449L165.305 149.379Z" fill="#CFD1CE"/>
<path d="M29.4841 117.023L28.3555 107.994L4.27639 109.875L4.65262 118.904L29.4841 117.023Z" fill="#CFD1CE"/>
<path d="M115.555 29.7266C116.699 33.1586 118.481 36.3432 120.807 39.1128H126.501C126.501 39.1128 130.915 33.9891 131.246 33.5694C131.724 33.059 132.088 32.452 132.313 31.7891C132.537 31.1263 132.617 30.423 132.548 29.7266H115.555Z" fill="#676575"/>
<path d="M120.807 39.1129C120.807 50.1555 124.455 65.8566 107.299 69.1771C107.299 69.1771 118.291 68.5967 122.506 63.1858C126.721 57.775 126.5 39.0246 126.5 39.0246L120.807 39.1129Z" fill="#827F94"/>
<path d="M136.63 31.1401H80.9279C80.5038 26.1045 80.9822 21.0336 82.3403 16.1663C84.5472 9.84994 88.961 2.1201 107.433 2.1201C125.905 2.1201 132.371 10.7775 133.673 17.3368C134.975 23.8962 134.357 26.0384 135.129 26.7452C135.902 27.4519 136.63 27.474 136.63 28.5341V31.1401Z" fill="#EFEFEF"/>
<path d="M107.433 2.12022C103.405 2.047 99.3861 2.53762 95.4936 3.57784H95.3171L94.6329 3.79869C92.7682 4.37331 90.9929 5.20588 89.3585 6.27224C88.2486 10.8523 87.9572 15.5927 88.4978 20.2743H94.6329L102.799 18.8829C102.799 18.8829 105.381 5.63177 114.561 2.53983C112.198 2.22948 109.816 2.08925 107.433 2.12022Z" fill="#D8D8D8"/>
<path d="M108.713 0H96.2441C94.92 0 88.4979 4.99127 88.4979 22.0853H102.688C102.688 17.0498 103.571 3.86492 111.516 2.20853C111.494 2.2527 110.302 0 108.713 0Z" fill="#EFEFEF"/>
<path d="M72.0343 31.1401V27.9156C72.0359 27.4534 72.1329 26.9965 72.3191 26.5736C72.5054 26.1506 72.7769 25.7707 73.1166 25.4576C73.4564 25.1446 73.8571 24.9051 74.2937 24.7542C74.7302 24.6033 75.1932 24.5442 75.6537 24.5807H82.7819C83.1915 24.5999 83.6004 24.5309 83.9811 24.3785C84.3618 24.2261 84.7054 23.9938 84.9888 23.6973C85.4523 23.1673 88.6082 20.2079 88.9833 19.7662C89.2412 19.4288 89.5762 19.1585 89.9603 18.9778C90.3444 18.7972 90.7662 18.7116 91.1902 18.7281H101.563C101.986 18.7152 102.407 18.8024 102.79 18.9828C103.174 19.1632 103.509 19.4316 103.77 19.7662C104.145 20.2079 107.301 23.1673 107.764 23.6973C108.047 23.995 108.39 24.2281 108.771 24.3805C109.152 24.533 109.561 24.6013 109.971 24.5807H115.908C116.368 24.5442 116.831 24.6033 117.268 24.7542C117.704 24.9051 118.105 25.1446 118.445 25.4576C118.784 25.7707 119.056 26.1506 119.242 26.5736C119.428 26.9965 119.525 27.4534 119.527 27.9156V31.1401H72.0343Z" fill="#D8D8D8"/>
<path d="M119.564 98.2251L120.29 98.2326L120.281 99.1391L121.055 99.1471L121.065 98.2405L121.791 98.248L121.765 100.725L121.039 100.717L121.049 99.7365L120.274 99.7286L120.264 100.709L119.538 100.702L119.564 98.2251L119.564 98.2251ZM124.382 98.2746L124.356 100.751L123.655 100.744L123.674 98.8545L123.215 98.8498L123.207 99.5607C123.204 99.8801 123.175 100.271 122.98 100.49C122.784 100.733 122.419 100.804 122.009 100.725L122.016 100.111C122.401 100.189 122.501 100.042 122.506 99.5513L122.519 98.251L124.382 98.2701L124.382 98.2746ZM124.988 98.2809L125.714 98.2883L126.11 99.7638L126.535 98.2968L127.262 98.3042L127.576 100.785L126.899 100.778L126.743 99.4508L126.341 100.772L125.857 100.767L125.484 99.4379L125.302 100.761L124.625 100.754L124.988 98.2807L124.988 98.2809ZM127.868 98.3105L128.594 98.3179L128.583 99.3235L129.295 98.3251L130.095 98.3334L129.163 99.5499L130.094 100.81L129.223 100.802L128.581 99.7892L128.57 100.795L127.844 100.787L127.87 98.3105L127.868 98.3105L127.868 98.3105ZM124.771 95.6283C120.415 95.5835 117.516 97.1489 117.492 99.5019C117.468 101.832 120.331 103.48 124.69 103.524C129.07 103.569 131.945 101.979 131.968 99.6508C131.993 97.2977 129.154 95.6733 124.771 95.6283ZM124.693 103.158C120.601 103.116 117.883 101.641 117.905 99.5062C117.927 97.3488 120.677 95.9529 124.767 95.995C128.881 96.0373 131.58 97.4869 131.558 99.6465C131.536 101.781 128.81 103.2 124.693 103.158ZM124.764 96.3391C120.916 96.2996 118.336 97.5735 118.316 99.5104C118.296 101.447 120.849 102.774 124.697 102.814C128.545 102.853 131.125 101.579 131.145 99.6423C131.167 97.7054 128.614 96.3787 124.764 96.3391ZM124.698 102.742C120.897 102.702 118.37 101.401 118.389 99.5134C118.409 97.6259 120.964 96.3766 124.763 96.4157C128.562 96.4547 131.091 97.7563 131.071 99.6437C131.054 101.531 128.499 102.781 124.698 102.742L124.698 102.742Z" fill="white"/>
</svg>
