<svg width="225" height="515" viewBox="0 0 225 515" fill="none" xmlns="http://www.w3.org/2000/svg">
<path d="M120.648 92.6652C119.94 92.6652 118.437 92.6652 117.11 93.1075C117.11 94.1688 119.469 95.0238 120.648 95.3186C120.943 94.4342 121.355 92.6652 120.648 92.6652Z" fill="#013FA9"/>
<path d="M118.361 71.8352H146.757V104.58H118.361V71.8352Z" fill="#FBBEAA"/>
<path d="M146.687 71.8352H118.385V90.104C119.621 90.2545 120.865 90.3318 122.111 90.3352C131.875 90.3352 142.795 87.7221 146.781 78.5877L146.687 71.8352Z" fill="#F18380"/>
<path d="M103.691 47.5311C103.926 56.9893 103.691 64.4587 105.436 71.6737C107.181 78.8887 112.511 84.7856 124.304 84.7856C136.097 84.7856 149.54 81.0162 150.484 66.5631C152.418 64.5049 155.555 57.1743 155.672 48.9649C155.79 40.7555 155.13 23.3885 136.05 20.7292C116.969 18.0698 103.172 24.9379 103.691 47.5311Z" fill="#FBBEAA"/>
<path d="M113.667 54.9769C113.667 56.2488 112.889 57.2894 111.922 57.2894C110.955 57.2894 110.176 56.2488 110.176 54.9769C110.176 53.705 110.955 52.6644 111.922 52.6644C112.889 52.6644 113.667 53.6125 113.667 54.9769Z" fill="#403D4F"/>
<path d="M134.895 54.9769C134.895 56.2488 134.116 57.2894 133.149 57.2894C132.182 57.2894 131.404 56.2488 131.404 54.9769C131.404 53.705 132.182 52.6644 133.149 52.6644C134.116 52.6644 134.895 53.6125 134.895 54.9769Z" fill="#403D4F"/>
<path d="M130.625 50.1671C130.79 50.3752 132.04 50.1671 132.983 50.1671C133.927 50.1671 135.743 50.1671 135.743 49.9589C135.743 49.7508 134.846 48.317 132.488 48.5714C130.79 48.7564 130.177 49.7971 130.625 50.1671Z" fill="#403D4F"/>
<path d="M114.067 50.167C113.926 50.3752 112.865 50.167 112.039 50.167C111.214 50.167 109.681 50.167 109.681 49.9589C109.892 49.4348 110.292 49.0045 110.804 48.749C111.317 48.4935 111.907 48.4303 112.464 48.5714C113.926 48.7564 114.327 49.797 114.067 50.167Z" fill="#403D4F"/>
<path d="M121.026 64.5511C119.375 64.5511 118.054 63.4873 118.007 62.7242L118.549 56.2029C118.567 56.0413 118.649 55.8929 118.776 55.7893C118.904 55.6856 119.068 55.6349 119.233 55.6479C119.314 55.6537 119.393 55.6752 119.465 55.7109C119.537 55.7467 119.601 55.796 119.654 55.8562C119.706 55.9164 119.746 55.9862 119.771 56.0616C119.796 56.1369 119.806 56.2164 119.799 56.2954L119.28 62.5854C119.519 62.8389 119.812 63.0369 120.138 63.1649C120.465 63.2929 120.816 63.3478 121.167 63.3254C121.25 63.3191 121.333 63.3293 121.411 63.3552C121.489 63.3811 121.562 63.4224 121.623 63.4764C121.685 63.5304 121.735 63.5961 121.77 63.6695C121.805 63.7429 121.825 63.8225 121.828 63.9036C121.828 64.0676 121.765 64.2256 121.651 64.3458C121.537 64.466 121.381 64.5393 121.214 64.5511H121.026Z" fill="#F18380"/>
<path d="M146.588 60.3421C149.174 60.0369 150.836 58.0296 151.305 55.717C151.774 53.4045 153.245 54.5608 156.022 54.5608C158.799 54.5608 160.218 49.2074 161.091 45.135C162.227 39.8384 160.536 33.6378 158.87 31.4479C163.313 27.6155 161.091 14.4758 159.981 18.8557C159.092 22.3596 155.908 23.9655 154.427 24.3305C149.984 8.12497 132.583 11.0084 124.438 14.4758C118.974 12.3215 114.133 14.4352 111.444 16.4735C107.757 15.8545 104.552 15.971 109.998 17.7608C110.365 17.3661 110.852 16.9216 111.444 16.4735C114.523 16.9906 117.939 18.0209 116.928 19.0177C114.707 21.2076 88.3391 35.8278 97.7802 41.3026C105.333 45.6825 116.477 42.0326 121.105 39.6602C126.437 44.0401 133.694 42.5801 136.655 41.3026C137.1 43.9306 142.193 47.6899 144.229 50.0624C146.265 52.4348 145.408 60.4812 146.588 60.3421Z" fill="#F3E8AE"/>
<path d="M149.965 59.3707C150.083 56.7345 150.507 52.8494 154.328 52.7569C158.149 52.6644 158.644 55.4857 158.526 59.9257C158.408 64.3657 153.809 68.1351 149.776 66.6088L149.965 59.3707Z" fill="#FBBEAA"/>
<path d="M155.578 62.5622C155.412 62.5339 155.265 62.4427 155.168 62.3085C155.071 62.1742 155.032 62.0077 155.059 61.8453C155.059 61.7148 155.021 61.587 154.95 61.4765C154.879 61.3661 154.778 61.2775 154.658 61.2209C154.417 61.0629 154.134 60.9785 153.844 60.9785C153.555 60.9785 153.271 61.0629 153.031 61.2209C152.926 61.2776 152.808 61.3074 152.689 61.3074C152.569 61.3074 152.451 61.2776 152.347 61.2209C152.251 61.1587 152.174 61.072 152.124 60.9702C152.074 60.8684 152.053 60.7553 152.064 60.6428C152.394 56.9197 154.823 56.2259 154.918 56.2028C154.998 56.1784 155.083 56.1706 155.167 56.1798C155.25 56.189 155.331 56.215 155.404 56.2563C155.477 56.2975 155.541 56.353 155.591 56.4194C155.641 56.4858 155.677 56.5617 155.696 56.6422C155.739 56.7955 155.719 56.9595 155.64 57.0982C155.56 57.2369 155.428 57.339 155.271 57.3822C154.8 57.5913 154.39 57.9122 154.077 58.316C153.764 58.7197 153.558 59.1936 153.479 59.6947C154.125 59.5914 154.788 59.723 155.342 60.0647C155.665 60.2504 155.926 60.5241 156.094 60.8525C156.261 61.1809 156.328 61.5499 156.285 61.9147C156.289 62.0048 156.273 62.0946 156.239 62.1781C156.204 62.2616 156.151 62.3367 156.084 62.3982C156.017 62.4597 155.936 62.5062 155.849 62.5346C155.762 62.5629 155.669 62.5723 155.578 62.5622Z" fill="#F18380"/>
<path d="M122.653 72.8757C124.93 72.7896 127.116 71.9777 128.879 70.5632" stroke="#73102A" stroke-width="0.5" stroke-miterlimit="10" stroke-linecap="round"/>
<path d="M140.621 36.695C142.005 40.8455 144.16 44.6969 146.973 48.0464H153.859C153.859 48.0464 159.197 41.8499 159.598 41.3424C160.176 40.7251 160.616 39.991 160.888 39.1894C161.159 38.3877 161.256 37.5372 161.172 36.695H140.621Z" fill="#676575"/>
<path d="M146.973 48.0466C146.973 61.4012 151.385 80.3897 130.637 84.4054C130.637 84.4054 143.93 83.7035 149.028 77.1597C154.126 70.6159 153.859 47.9397 153.859 47.9397L146.973 48.0466Z" fill="#827F94"/>
<path d="M166.109 38.4046H98.7447C98.2318 32.3146 98.8102 26.182 100.453 20.2957C103.122 12.6568 108.46 3.30855 130.799 3.30855C153.138 3.30855 160.958 13.7786 162.533 21.7113C164.108 29.6439 163.36 32.2347 164.294 33.0894C165.229 33.9441 166.109 33.9708 166.109 35.2529V38.4046Z" fill="#EFEFEF"/>
<path d="M130.8 3.30868C125.928 3.22013 121.068 3.81348 116.361 5.07149H116.147L115.32 5.33858C113.064 6.03351 110.917 7.0404 108.941 8.33003C107.599 13.869 107.246 19.6019 107.9 25.2637H115.32L125.195 23.581C125.195 23.581 128.318 7.55545 139.42 3.81615C136.563 3.44082 133.682 3.27123 130.8 3.30868Z" fill="#D8D8D8"/>
<path d="M132.348 0.744522H117.268C115.667 0.744522 107.9 6.78083 107.9 27.4538H125.061C125.061 21.3641 126.129 5.41865 135.737 3.41545C135.711 3.46887 134.269 0.744522 132.348 0.744522Z" fill="#EFEFEF"/>
<path d="M87.9891 38.4045V34.5049C87.9911 33.9459 88.1083 33.3934 88.3336 32.8819C88.5588 32.3704 88.8871 31.9109 89.298 31.5323C89.709 31.1537 90.1936 30.864 90.7215 30.6816C91.2495 30.4991 91.8094 30.4277 92.3662 30.4718H100.987C101.482 30.4949 101.977 30.4115 102.437 30.2272C102.898 30.0429 103.313 29.762 103.656 29.4034C104.216 28.7624 108.033 25.1834 108.487 24.6492C108.799 24.2412 109.204 23.9143 109.668 23.6958C110.133 23.4773 110.643 23.3738 111.156 23.3938H123.7C124.212 23.3781 124.721 23.4837 125.185 23.7018C125.648 23.9199 126.054 24.2445 126.369 24.6492C126.823 25.1834 130.639 28.7624 131.2 29.4034C131.541 29.7634 131.957 30.0453 132.417 30.2297C132.878 30.4141 133.373 30.4967 133.869 30.4718H141.048C141.605 30.4277 142.165 30.4991 142.693 30.6816C143.221 30.864 143.705 31.1537 144.116 31.5323C144.527 31.9109 144.856 32.3704 145.081 32.8819C145.306 33.3934 145.423 33.9459 145.425 34.5049V38.4045H87.9891Z" fill="#D8D8D8"/>
<path d="M109.689 436.357C109.689 436.357 110.835 484.742 111.122 491.979C111.408 499.216 116.016 501.186 123.442 501.827C130.868 502.467 133.995 496.606 135.046 491.955C136.097 487.304 142.448 439.869 142.448 439.869L109.689 436.357Z" fill="#FBBEAA"/>
<path d="M157.657 437.527C157.657 437.527 163.971 486.049 165.016 493.272C166.06 500.495 170.831 502.031 178.262 501.863C185.692 501.695 188.137 495.48 188.683 490.704C189.229 485.929 190.416 437.527 190.416 437.527H157.657Z" fill="#FBBEAA"/>
<path d="M177.015 477.334C174.318 477.143 171.644 477.937 169.501 479.565C167.358 481.193 165.894 483.542 165.388 486.166L152.977 498.733V506.555H192.755C192.755 506.555 190.758 492.461 190.187 489.29C189.617 486.119 187.691 477.334 177.015 477.334Z" fill="#FBBEAA"/>
<path d="M165.237 486.398C164.777 485.773 164.125 485.293 163.666 485.581C163.206 485.869 151.001 495.473 150.421 495.953C150.063 496.287 149.793 496.701 149.633 497.161C149.473 497.621 149.428 498.113 149.502 498.595V508.895H193.926C193.926 508.895 192.186 493.673 192.065 492.832C191.944 491.992 191.098 490.887 190.615 490.911C187.565 491.839 184.401 492.34 181.213 492.4C176.975 492.623 172.748 491.798 168.91 489.999C167.487 489.016 166.245 487.798 165.237 486.398Z" fill="#302D3B"/>
<path d="M156.853 500.548C158.957 498.959 166.52 492.943 169.356 490.681L168.695 490.344C168.605 490.305 168.525 490.247 168.458 490.175C165.433 492.582 158.319 498.261 156.286 499.802C154.568 501.142 153.391 503.077 152.977 505.24L153.899 505.385C154.289 503.467 155.336 501.752 156.853 500.548Z" fill="white"/>
<path d="M192.612 498.365C189.513 498.397 186.515 499.474 184.096 501.425C181.91 503.376 180.429 506.004 179.886 508.895H181.178C181.706 506.39 183.013 504.119 184.909 502.413C187.135 500.617 189.903 499.64 192.755 499.642L192.612 498.365Z" fill="white"/>
<path d="M141.927 507.725H193.276C193.635 507.725 193.926 508.05 193.926 508.451V514.018C193.926 514.419 193.635 514.745 193.276 514.745H141.927C141.569 514.745 141.278 514.419 141.278 514.018V508.451C141.278 508.05 141.569 507.725 141.927 507.725Z" fill="white"/>
<path d="M150.439 496.053C150.009 495.88 147.902 496.465 145.162 499.047C144.021 500.177 143.199 501.566 142.775 503.085C142.351 504.603 142.338 506.2 142.738 507.725H156.487C155.717 499.394 150.87 496.227 150.439 496.053Z" fill="white"/>
<path d="M156.298 495.571C156.437 495.775 156.504 496.037 156.483 496.299C156.462 496.561 156.355 496.803 156.186 496.971C156.103 497.053 156.007 497.115 155.904 497.152C155.8 497.19 155.692 497.203 155.585 497.191C155.477 497.178 155.373 497.141 155.278 497.08C155.183 497.02 155.099 496.937 155.03 496.838L153.166 494.149C153.026 493.945 152.96 493.683 152.981 493.421C153.002 493.159 153.108 492.917 153.278 492.748C153.36 492.664 153.456 492.6 153.559 492.56C153.663 492.521 153.772 492.507 153.88 492.52C153.988 492.532 154.093 492.571 154.188 492.633C154.283 492.695 154.367 492.78 154.434 492.882L156.298 495.571Z" fill="white"/>
<path d="M158.638 493.988C158.778 494.242 158.844 494.568 158.823 494.895C158.802 495.222 158.695 495.524 158.526 495.734C158.443 495.84 158.347 495.92 158.244 495.969C158.14 496.018 158.031 496.035 157.922 496.02C157.814 496.004 157.709 495.956 157.614 495.878C157.518 495.801 157.435 495.695 157.367 495.568L155.5 492.213C155.364 491.956 155.3 491.631 155.321 491.306C155.342 490.982 155.446 490.681 155.612 490.466C155.694 490.361 155.79 490.281 155.894 490.232C155.997 490.183 156.106 490.165 156.215 490.181C156.323 490.197 156.428 490.245 156.523 490.322C156.619 490.4 156.703 490.505 156.77 490.633L158.638 493.988Z" fill="white"/>
<path d="M162.081 491.309C162.265 491.458 162.356 491.65 162.333 491.845C162.31 492.039 162.175 492.219 161.959 492.346C161.735 492.471 161.448 492.531 161.16 492.512C160.872 492.493 160.607 492.397 160.421 492.245L157.981 490.222C157.878 490.154 157.797 490.072 157.741 489.981C157.685 489.891 157.657 489.794 157.657 489.695C157.657 489.597 157.685 489.5 157.741 489.41C157.797 489.319 157.878 489.237 157.981 489.169C158.207 489.047 158.493 488.99 158.779 489.009C159.065 489.028 159.329 489.121 159.518 489.269L162.081 491.309Z" fill="white"/>
<path d="M164.49 489.239C164.558 489.365 164.61 489.509 164.641 489.665C164.672 489.821 164.683 489.984 164.673 490.146C164.663 490.308 164.631 490.466 164.581 490.609C164.53 490.753 164.462 490.88 164.379 490.983C164.223 491.215 164.013 491.345 163.794 491.345C163.576 491.345 163.366 491.215 163.21 490.983L161.355 487.551C161.216 487.293 161.15 486.962 161.171 486.63C161.191 486.298 161.298 485.992 161.466 485.779C161.549 485.675 161.645 485.597 161.747 485.55C161.85 485.502 161.958 485.486 162.065 485.501C162.171 485.517 162.275 485.564 162.37 485.641C162.465 485.718 162.548 485.822 162.617 485.948L164.49 489.239Z" fill="white"/>
<path d="M119.679 477.334C116.98 477.143 114.305 477.937 112.16 479.565C110.015 481.193 108.551 483.542 108.045 486.166L95.6497 498.733V506.555H135.428C135.428 506.555 133.454 492.461 132.859 489.29C132.264 486.119 130.361 477.334 119.679 477.334Z" fill="#FBBEAA"/>
<path d="M109.056 486.398C108.596 485.773 107.967 485.293 107.484 485.581C107 485.869 94.809 495.473 94.2527 495.953C93.6963 496.434 93.3093 497.034 93.3093 498.595V508.895H137.768C137.768 508.895 136.026 493.673 135.905 492.832C135.784 491.992 134.938 490.887 134.454 490.911C131.402 491.839 128.235 492.34 125.044 492.4C120.811 492.627 116.588 491.802 112.757 489.999C111.322 489.021 110.069 487.803 109.056 486.398Z" fill="#302D3B"/>
<path d="M101.866 500.548C103.969 498.959 111.532 492.943 114.369 490.681L113.731 490.344C113.634 490.305 113.546 490.248 113.471 490.175C110.445 492.582 103.331 498.261 101.298 499.802C99.5799 501.142 98.4029 503.077 97.9893 505.24L98.9111 505.385C99.3124 503.471 100.357 501.76 101.866 500.548Z" fill="white"/>
<path d="M135.298 498.365C132.481 498.397 129.755 499.474 127.556 501.425C125.569 503.376 124.222 506.004 123.729 508.895H124.903C125.389 506.386 126.585 504.116 128.317 502.413C130.331 500.614 132.841 499.635 135.428 499.642L135.298 498.365Z" fill="white"/>
<path d="M86.9389 507.725H138.288C138.647 507.725 138.938 508.05 138.938 508.451V514.018C138.938 514.419 138.647 514.745 138.288 514.745H86.9389C86.5803 514.745 86.2895 514.419 86.2895 514.018V508.451C86.2895 508.05 86.5803 507.725 86.9389 507.725Z" fill="white"/>
<path d="M94.948 496.053C94.4818 495.88 92.1997 496.465 89.2306 499.047C87.9945 500.177 87.1046 501.566 86.6451 503.085C86.1857 504.603 86.1719 506.2 86.6051 507.725H101.5C100.665 499.394 95.4142 496.227 94.948 496.053Z" fill="white"/>
<path d="M100.077 495.571C100.264 495.775 100.353 496.037 100.325 496.299C100.297 496.561 100.154 496.803 99.9274 496.971C99.8163 497.053 99.6881 497.115 99.5503 497.152C99.4125 497.19 99.2678 497.203 99.1244 497.191C98.981 497.178 98.8417 497.141 98.7145 497.08C98.5874 497.02 98.4748 496.937 98.3833 496.838L95.8929 494.149C95.7123 493.943 95.6271 493.683 95.6549 493.422C95.6827 493.162 95.8214 492.92 96.0424 492.748C96.1521 492.664 96.2798 492.6 96.4181 492.56C96.5563 492.521 96.702 492.507 96.8464 492.52C96.9908 492.532 97.1308 492.571 97.258 492.633C97.3852 492.695 97.497 492.78 97.5864 492.882L100.077 495.571Z" fill="white"/>
<path d="M102.479 493.984C102.619 494.239 102.686 494.566 102.665 494.893C102.644 495.221 102.537 495.523 102.367 495.734C102.285 495.84 102.189 495.92 102.086 495.969C101.982 496.018 101.873 496.035 101.764 496.02C101.656 496.004 101.551 495.956 101.456 495.878C101.36 495.8 101.276 495.695 101.209 495.567L99.3414 492.207C99.206 491.949 99.1421 491.624 99.163 491.299C99.1838 490.973 99.2878 490.672 99.4535 490.457C99.6249 490.249 99.8446 490.15 100.065 490.181C100.285 490.212 100.488 490.371 100.63 490.624L102.479 493.984Z" fill="white"/>
<path d="M105.848 491.311C105.952 491.378 106.036 491.458 106.093 491.547C106.15 491.636 106.179 491.732 106.179 491.828C106.179 491.925 106.15 492.021 106.093 492.11C106.036 492.199 105.952 492.279 105.848 492.346C105.617 492.471 105.322 492.531 105.026 492.512C104.729 492.493 104.456 492.398 104.266 492.246L101.754 490.225C101.566 490.072 101.476 489.876 101.504 489.679C101.533 489.482 101.677 489.3 101.905 489.174C102.017 489.112 102.146 489.066 102.285 489.038C102.424 489.009 102.57 489 102.715 489.009C102.859 489.018 103 489.046 103.128 489.092C103.256 489.137 103.37 489.199 103.462 489.274L105.848 491.311Z" fill="white"/>
<path d="M108.27 489.239C108.361 489.365 108.43 489.509 108.471 489.665C108.513 489.821 108.528 489.984 108.514 490.146C108.5 490.308 108.458 490.466 108.391 490.609C108.324 490.753 108.232 490.88 108.122 490.983C107.914 491.215 107.634 491.345 107.343 491.345C107.051 491.345 106.772 491.215 106.564 490.983L104.09 487.551C103.905 487.293 103.816 486.962 103.844 486.63C103.872 486.298 104.014 485.992 104.239 485.779C104.349 485.675 104.476 485.597 104.613 485.55C104.75 485.502 104.894 485.486 105.036 485.501C105.179 485.517 105.317 485.564 105.443 485.641C105.569 485.718 105.681 485.822 105.772 485.948L108.27 489.239Z" fill="white"/>
<path d="M186.71 333.687C187.107 336.776 186.898 339.915 186.096 342.921C185.294 345.928 183.914 348.743 182.036 351.203C180.158 353.663 177.819 355.72 175.155 357.254C172.491 358.789 169.555 359.77 166.516 360.142C163.477 360.514 160.396 360.269 157.45 359.421C154.505 358.573 151.754 357.139 149.357 355.201C146.96 353.264 144.964 350.863 143.484 348.135C142.005 345.408 141.071 342.409 140.737 339.312C140.737 339.312 128.684 253.143 125.826 235.735C122.968 218.327 125.993 203.755 145.144 199.609C165.01 195.318 177.42 210.132 178.921 224.97C180.422 239.808 186.71 333.687 186.71 333.687Z" fill="#013EA5"/>
<path d="M148.007 335.344C148.084 341.578 145.679 347.587 141.32 352.049C136.962 356.512 131.007 359.062 124.767 359.139C118.526 359.216 112.51 356.813 108.043 352.46C103.576 348.106 101.023 342.158 100.946 335.925C100.946 335.925 97.9681 249.162 96.9514 231.582C95.9346 214.003 100.534 199.905 120.337 197.874C140.865 195.77 151.808 211.802 151.808 226.698C151.808 241.593 148.007 335.344 148.007 335.344Z" fill="#013EA5"/>
<path d="M148.297 335.535C148.258 332.451 147.6 329.405 146.358 326.571C145.117 323.737 143.318 321.17 141.064 319.016C138.809 316.863 136.143 315.165 133.219 314.02C130.294 312.876 127.168 312.306 124.018 312.344C120.869 312.382 117.758 313.027 114.863 314.242C111.968 315.457 109.346 317.219 107.146 319.426C104.947 321.634 103.213 324.243 102.043 327.107C100.874 329.97 100.292 333.031 100.331 336.114L105.266 460.354L143.979 464.436L148.297 335.535Z" fill="#013EA5"/>
<path d="M186.629 334.044C185.831 327.882 182.658 322.287 177.799 318.475C172.94 314.662 166.788 312.939 160.679 313.681C154.57 314.423 148.998 317.569 145.172 322.436C141.346 327.303 139.576 333.498 140.247 339.675L158.343 463.266H196.266L186.629 334.044Z" fill="#013EA5"/>
<path d="M141.278 338.081L158.827 462.097" stroke="#013EA5" stroke-width="0.75" stroke-miterlimit="10" stroke-linecap="round"/>
<path d="M140.108 339.251C140.108 339.251 127.814 253.599 124.898 236.295" stroke="#F5F5F5" stroke-width="0.75" stroke-miterlimit="10" stroke-linecap="round"/>
<path d="M99.1594 208.216C99.1594 208.216 99.1594 232.629 99.1594 233.971C99.1594 235.313 110.896 246.825 126.483 246.825C150.449 246.825 179.134 238.044 178.712 232.323C178.43 228.556 178.078 208.216 178.078 208.216H99.1594Z" fill="#013EA5"/>
<path d="M26.9359 108.059L38.2811 179.279C40.1531 188.213 37.26 196.297 26.9359 197.715C25.0302 197.963 23.0939 197.821 21.2446 197.298C19.3953 196.775 17.6716 195.882 16.1781 194.672C14.6847 193.463 13.4528 191.962 12.557 190.262C11.6613 188.562 11.1205 186.697 10.9675 184.781L7.5072 108.201C6.59958 100.969 9.74782 96.1469 15.2502 95.5513C22.0007 94.8139 25.5745 98.8131 26.9359 108.059Z" fill="#FBBEAA"/>
<path d="M17.717 171.394L99.1756 109.506C108.677 103.436 115.144 106.669 120.193 113.165C122.498 116.308 123.567 120.19 123.196 124.071C122.824 127.952 121.039 131.561 118.179 134.21L36.9187 194.084C34.0552 196.503 30.3688 197.723 26.6278 197.491C22.8868 197.258 19.3798 195.591 16.8377 192.836L16.469 192.439C15.1198 191 14.078 189.301 13.4072 187.446C12.7364 185.59 12.4507 183.618 12.5674 181.648C12.6842 179.679 13.2011 177.754 14.0864 175.991C14.9718 174.228 16.2071 172.664 17.717 171.394Z" fill="#FBBEAA"/>
<path d="M26.596 106.159C26.4791 103.603 27.1633 101.074 28.5531 98.926C30.6928 96.445 32.2959 93.5479 33.2614 90.4171C34.0041 87.5109 35.1904 84.7365 36.7784 82.1918C37.913 80.6318 39.6147 79.3555 39.6147 78.1643C39.6147 76.973 37.3457 74.6756 34.1123 75.328C32.7273 75.7594 31.4548 76.4917 30.3859 77.4723C29.3169 78.453 28.478 79.6578 27.9291 81.0006C27.6193 80.1824 27.4376 79.3214 27.3903 78.4479L26.6812 61.0614C26.6704 60.6106 26.5694 60.1666 26.3842 59.7556C26.199 59.3445 25.9333 58.9747 25.6028 58.6681C25.2723 58.3614 24.8838 58.124 24.4601 57.97C24.0363 57.8159 23.5861 57.7484 23.1358 57.7712C22.419 57.8018 21.7296 58.0563 21.1649 58.4989C20.6002 58.9415 20.1884 59.55 19.9875 60.2388V59.4446C19.8784 58.5994 19.4536 57.8268 18.7985 57.2818C18.1433 56.7369 17.3061 56.4599 16.4552 56.5065C15.6042 56.5532 14.8025 56.9201 14.2108 57.5335C13.6192 58.1468 13.2815 58.9613 13.2655 59.8134V62.2243C12.9814 61.481 12.4397 60.8645 11.7391 60.4872C11.0385 60.1099 10.2257 59.997 9.44881 60.1689C8.67189 60.3408 7.9826 60.786 7.50655 61.4236C7.03051 62.0612 6.79942 62.8487 6.85538 63.6424V65.1739C6.55011 64.6375 6.09517 64.2016 5.54612 63.9195C4.99708 63.6374 4.37774 63.5214 3.76382 63.5856C2.92312 63.6923 2.157 64.1221 1.6276 64.7838C1.09819 65.4456 0.847084 66.2874 0.927521 67.131L2.31728 81.7947C3.22771 90.0619 4.93755 98.2214 7.42268 106.159C7.45273 107.484 7.75976 108.788 8.324 109.988C8.88825 111.187 9.69722 112.255 10.699 113.123C11.7007 113.992 12.873 114.641 14.1406 115.029C15.4081 115.417 16.7428 115.535 18.0588 115.377C19.2498 115.416 20.4354 115.199 21.5352 114.741C22.635 114.282 23.6233 113.592 24.4331 112.718C25.2428 111.843 25.855 110.805 26.2283 109.673C26.6015 108.542 26.7268 107.343 26.596 106.159Z" fill="#FBBEAA"/>
<path d="M105.899 105.081L35.4067 152.624C35.7032 155.056 29.9906 105.081 29.9906 105.081L3.8989 107.516C3.8989 107.516 5.4232 158.397 9.26289 185.268C10.7867 195.933 19.6631 199.977 30.188 197.68C35.3845 196.547 40.2765 194.414 44.6299 191.359C63.3367 178.228 115.818 141.245 120.109 136.592C127.512 128.566 127.512 122.553 123.257 115.944C119.003 109.335 109.898 104.088 105.899 105.081Z" fill="#013EA5"/>
<path d="M26.0288 83.4685C27.1066 83.4685 27.1917 82.7878 27.6738 81.5398C25.263 81.5398 18.2573 81.9936 15.1941 87.8931C18.2857 83.6387 24.2136 83.4685 26.0288 83.4685ZM20.5264 61.0333C20.5264 61.0333 20.6965 62.0261 20.8667 63.4726C20.8667 64.21 21.0369 65.0892 21.0937 65.9969C21.1504 66.9045 21.2354 67.8972 21.3205 68.8332C21.3205 70.8186 21.4623 72.7756 21.4623 74.2505C21.4623 75.7254 21.4623 76.7181 21.4623 76.7181C21.4625 76.7653 21.4529 76.812 21.434 76.8553C21.4152 76.8985 21.3875 76.9373 21.3528 76.9693C21.3181 77.0014 21.2772 77.0259 21.2326 77.0412C21.188 77.0565 21.1407 77.0623 21.0937 77.0584C21.0139 77.0544 20.9374 77.0246 20.8761 76.9734C20.8147 76.9223 20.7716 76.8526 20.7532 76.7749C20.7532 76.7749 20.5831 75.7821 20.4413 74.3072C20.2995 72.8323 20.0726 70.8753 19.9875 68.9182C19.9875 67.9255 19.9875 66.9328 19.9875 66.0819C19.9875 65.231 19.9875 64.2951 19.9875 63.5577C19.9875 62.0544 19.9875 61.09 19.9875 61.09C19.9873 61.0428 19.9969 60.9962 20.0158 60.9529C20.0346 60.9096 20.0623 60.8707 20.097 60.8387C20.1316 60.8067 20.1726 60.7823 20.2172 60.767C20.2618 60.7516 20.3092 60.7457 20.3562 60.7497C20.4106 60.7809 20.4552 60.8267 20.4853 60.8818C20.5153 60.9368 20.5295 60.9991 20.5264 61.0617V61.0333ZM13.9461 63.0188C13.9461 63.0188 14.1163 63.8696 14.3149 65.1176C14.3149 65.77 14.5134 66.5074 14.5985 67.3015C14.6836 68.0957 14.7687 68.9466 14.8538 69.7975C14.8538 71.4993 15.0523 73.201 15.0806 74.4774C15.109 75.7537 15.0806 76.633 15.0806 76.633C15.0771 76.6777 15.0647 76.7213 15.0442 76.7613C15.0237 76.8012 14.9955 76.8367 14.9613 76.8657C14.927 76.8947 14.8873 76.9167 14.8445 76.9303C14.8017 76.9439 14.7567 76.9489 14.712 76.945C14.6357 76.9397 14.5634 76.9088 14.5068 76.8573C14.4502 76.8059 14.4125 76.7368 14.4 76.6614C14.4 76.6614 14.2298 75.8104 14.0312 74.5625C13.8327 73.3145 13.6625 71.5844 13.5207 69.911C13.5207 69.0601 13.5207 68.2092 13.3505 67.415C13.1804 66.6208 13.3505 65.855 13.3505 65.2027C13.3505 63.9264 13.3505 63.0755 13.3505 63.0755C13.3504 63.0283 13.36 62.9816 13.3788 62.9384C13.3977 62.8951 13.4254 62.8562 13.46 62.8242C13.4947 62.7922 13.5356 62.7678 13.5803 62.7524C13.6249 62.7371 13.6722 62.7312 13.7193 62.7351C13.7822 62.7611 13.8367 62.804 13.8767 62.8591C13.9168 62.9141 13.9408 62.9792 13.9461 63.0471V63.0188ZM7.59284 65.7132C7.59284 65.7132 7.76297 66.4223 7.98988 67.5001C7.98988 68.0106 8.21683 68.6347 8.30191 69.3154C8.387 69.9961 8.50041 70.7051 8.61387 71.4142C8.81241 72.8607 8.89757 74.2505 8.9543 75.385C9.01102 76.5195 8.9543 77.2003 8.9543 77.2003C8.95446 77.2475 8.94476 77.2941 8.92591 77.3374C8.90705 77.3806 8.87939 77.4196 8.84472 77.4516C8.81004 77.4836 8.76911 77.508 8.72449 77.5233C8.67986 77.5386 8.63259 77.5446 8.58556 77.5406C8.51315 77.5369 8.44381 77.51 8.38769 77.4641C8.33157 77.4182 8.29155 77.3556 8.27353 77.2854C8.27353 77.2854 8.07503 76.5763 7.87649 75.5269C7.67795 74.4774 7.39428 73.0025 7.22411 71.5844C7.22411 70.8469 7.08227 70.1379 7.02554 69.4571C6.96882 68.7764 7.02554 68.1525 7.02554 67.6136C7.02554 66.5358 7.02554 65.7983 7.02554 65.7983C7.02538 65.7511 7.03508 65.7044 7.05393 65.6612C7.07278 65.6179 7.10037 65.579 7.13504 65.547C7.16971 65.515 7.21073 65.4906 7.25535 65.4753C7.29998 65.4599 7.34726 65.454 7.39428 65.4579C7.44664 65.4872 7.49172 65.5278 7.5261 65.577C7.56049 65.6261 7.58331 65.6824 7.59284 65.7416V65.7132Z" fill="#F18380"/>
<path d="M34.8548 146.875L33.5281 136.262L5.22516 138.473L5.66739 149.086L34.8548 146.875Z" fill="#CFD1CE"/>
<path d="M117.149 98.4055C117.149 98.4055 100.024 108.294 97.3513 110.024C94.6786 111.755 91.6594 114.425 92.2038 121.643C92.7483 128.862 95.0498 226.033 95.0498 226.033C103.839 227.521 129.578 227.521 129.578 227.521H131.918H133.673H136.013H137.768H139.523C139.523 227.521 177.681 224.277 178.448 223.832C179.216 223.387 179.933 222.918 179.884 222.077C179.834 221.237 179.339 122.459 179.018 118.108C178.954 115.778 178.22 113.516 176.903 111.591C175.587 109.667 173.743 108.162 171.593 107.256C166.421 104.957 146.995 97.0705 146.995 97.0705L130.678 98.4055H117.149Z" fill="#034CC9"/>
<path d="M117.149 98.4055C117.149 98.4055 100.024 108.294 97.3514 110.024C94.6787 111.755 91.6595 114.425 92.2039 121.643C92.7484 128.862 95.0499 226.033 95.0499 226.033C103.839 227.521 117.879 227.521 117.879 227.521H120.219H121.974H124.313H126.068H127.823C127.823 227.521 125.033 224.277 125.801 223.832C126.568 223.387 127.285 222.918 127.236 222.077C127.186 221.237 126.691 122.459 126.37 118.108C126.306 115.778 125.572 113.516 124.256 111.591C122.939 109.667 121.096 108.162 118.946 107.256C113.773 104.957 146.995 97.0705 146.995 97.0705L130.678 98.4055H117.149Z" fill="#0045BA"/>
<path d="M115.206 98.5479C115.206 98.5479 96.2728 109.492 93.3179 111.407C90.3631 113.322 92.7244 117.545 92.7244 125.149C92.7244 135.094 94.4794 135.679 94.4794 135.679C100.4 138.874 102.99 136.382 109.515 138.02C112.689 138.375 115.151 138.458 117.285 136.378C119.419 134.299 126.068 135.094 126.068 135.094C126.068 135.094 136.081 133.779 140.76 136.378C141.879 137.159 143.144 137.706 144.478 137.988C145.813 138.27 146.863 138.249 148.202 137.988C154.987 136.593 182.128 128.799 182.976 128.307C183.825 127.815 184.618 127.295 184.563 126.364C184.509 125.434 183.961 125.169 183.606 120.354C183.535 117.775 182.724 115.271 181.268 113.141C179.813 111.011 177.775 109.345 175.398 108.343C169.679 105.798 148.202 97.0705 148.202 97.0705L130.163 97.6555L115.206 98.5479Z" fill="#9A99A1"/>
<path d="M128.608 94.4341C136.745 94.4341 144.086 90.8963 146.739 89.1273V97.0875C146.444 97.5298 144.174 98.9449 137.452 101.068C130.73 103.19 121.09 102.394 117.11 101.068V93.1074C117.11 93.5497 118.436 94.4341 128.608 94.4341Z" fill="#034CC9"/>
<path d="M128.166 227.104C125.906 226.346 123.928 224.885 122.503 222.921C121.078 220.958 120.276 218.587 120.205 216.135V94.8763H128.166V227.104Z" fill="#034CC9"/>
<path d="M92.7246 138.657H132.845V129.813L92.7246 129.829C92.7246 133.924 92.7246 135.094 92.7246 138.657Z" fill="#D3D4D2"/>
<path d="M165.281 129.813H124.885V138.657H166.109C165.571 134.677 165.281 132.908 165.281 129.813Z" fill="#CFD1CE"/>
<g style="mix-blend-mode:multiply" opacity="0.4">
<path d="M129.05 102.213L128.165 102.394V227.104H129.05V102.213Z" fill="#013FA9"/>
</g>
<g filter="url(#filter0_d_21_295)">
<rect width="50.4269" height="71.8584" rx="1" transform="matrix(-0.993463 -0.114154 -0.114154 0.993463 155.902 143.434)" fill="#EFEFEF"/>
</g>
<path d="M133.534 174.972C130.346 173.624 127.462 171.628 125.068 169.109C123.586 167.553 121.905 166.203 120.07 165.094C118.994 164.422 118.065 163.534 117.342 162.487C116.387 160.863 115.597 159.148 114.983 157.368C114.755 155.836 114.234 154.359 113.448 153.021C112.701 152.336 110.063 152.702 108.694 155.364C108.221 156.549 108.008 157.825 108.066 159.107C108.125 160.388 108.455 161.646 109.033 162.795C109.715 164.173 110.249 165.619 110.626 167.108L110.377 167.257C108.29 166.149 106.061 165.346 103.756 164.871C102.92 164.685 102.049 164.785 101.284 165.158C100.518 165.531 99.903 166.154 99.5368 166.926C99.1707 167.698 99.075 168.575 99.2653 169.416C99.4556 170.256 99.9208 171.011 100.586 171.558C96.9889 171.972 97.3973 177.519 100.485 178.253C99.8239 178.53 99.2658 179.007 98.8862 179.617C98.5065 180.228 98.3237 180.943 98.3625 181.666C98.4013 182.39 98.6598 183.087 99.103 183.662C99.5462 184.238 100.153 184.665 100.841 184.885C98.6475 186.907 100.251 190.24 104.233 190.254C107.469 190.584 116.122 191.938 119.133 192.586C122.144 193.234 128.196 191.801 130.14 192.402C133.033 193.463 136.394 193.48 138.958 185.866C141.521 178.252 136.512 175.955 133.534 174.972Z" fill="#FBBEAA"/>
<path d="M182.061 113.196C188.253 121.156 218.083 204.818 218.083 204.818C184.916 194.205 201.4 190.136 183.361 193.171C183.361 193.171 155.178 133.361 154.384 128.993C153.555 125.549 153.927 121.926 155.438 118.723C156.95 115.52 159.51 112.929 162.694 111.379C171.572 106.841 175.87 105.235 182.061 113.196Z" fill="#0045BA"/>
<path d="M129.485 198.032L193.222 223.693C201.367 227.788 214.601 225.687 218.59 216.161C219.321 214.384 219.683 212.478 219.654 210.558C219.626 208.637 219.208 206.743 218.425 204.989C217.643 203.235 216.512 201.658 215.102 200.354C213.691 199.05 212.031 198.047 210.221 197.404L134.893 170.159L129.485 198.032Z" fill="#0045BA"/>
<path d="M180.701 186.405L169.789 183.131L165.698 212.275L175.804 217.484L180.701 186.405Z" fill="#CFD1CE"/>
<path d="M137.431 122.037L138.175 122.045L138.166 122.974L138.96 122.982L138.969 122.053L139.713 122.061L139.687 124.599L138.943 124.591L138.953 123.586L138.16 123.578L138.149 124.583L137.405 124.575L137.431 122.037L137.431 122.037ZM142.368 122.088L142.342 124.626L141.623 124.619L141.643 122.682L141.172 122.678L141.164 123.406C141.161 123.733 141.132 124.134 140.932 124.358C140.731 124.607 140.357 124.679 139.937 124.599L139.944 123.97C140.339 124.05 140.44 123.899 140.446 123.396L140.459 122.064L142.368 122.084L142.368 122.088ZM142.989 122.095L143.733 122.102L144.138 123.614L144.574 122.111L145.318 122.119L145.64 124.66L144.946 124.653L144.787 123.293L144.375 124.647L143.879 124.642L143.498 123.28L143.311 124.636L142.617 124.629L142.989 122.095L142.989 122.095ZM145.939 122.125L146.683 122.133L146.673 123.163L147.402 122.14L148.221 122.148L147.266 123.395L148.22 124.686L147.328 124.677L146.67 123.64L146.659 124.67L145.915 124.663L145.942 122.125L145.939 122.125L145.939 122.125ZM142.766 119.377C138.303 119.331 135.334 120.935 135.309 123.346C135.284 125.733 138.218 127.421 142.683 127.467C147.171 127.513 150.116 125.884 150.141 123.498C150.166 121.087 147.257 119.423 142.766 119.377ZM142.687 127.091C138.495 127.048 135.71 125.537 135.732 123.35C135.755 121.14 138.572 119.71 142.763 119.753C146.978 119.796 149.743 121.281 149.72 123.494C149.697 125.681 146.905 127.135 142.687 127.091ZM142.759 120.105C138.817 120.065 136.173 121.37 136.153 123.354C136.133 125.339 138.749 126.698 142.691 126.739C146.633 126.779 149.276 125.474 149.297 123.489C149.319 121.505 146.704 120.146 142.759 120.105ZM142.692 126.665C138.797 126.625 136.208 125.291 136.228 123.357C136.248 121.424 138.866 120.144 142.758 120.184C146.65 120.224 149.242 121.557 149.222 123.491C149.204 125.425 146.586 126.705 142.692 126.665L142.692 126.665Z" fill="white"/>
<defs>
<filter id="filter0_d_21_295" x="97.7095" y="137.785" width="60.0854" height="76.93" filterUnits="userSpaceOnUse" color-interpolation-filters="sRGB">
<feFlood flood-opacity="0" result="BackgroundImageFix"/>
<feColorMatrix in="SourceAlpha" type="matrix" values="0 0 0 0 0 0 0 0 0 0 0 0 0 0 0 0 0 0 127 0" result="hardAlpha"/>
<feOffset dx="2"/>
<feComposite in2="hardAlpha" operator="out"/>
<feColorMatrix type="matrix" values="0 0 0 0 0.603922 0 0 0 0 0.6 0 0 0 0 0.631373 0 0 0 1 0"/>
<feBlend mode="normal" in2="BackgroundImageFix" result="effect1_dropShadow_21_295"/>
<feBlend mode="normal" in="SourceGraphic" in2="effect1_dropShadow_21_295" result="shape"/>
</filter>
</defs>
</svg>
