<svg width="221" height="505" viewBox="0 0 221 505" fill="none" xmlns="http://www.w3.org/2000/svg">
    <path d="M102.485 90.5029C103.18 90.5029 104.655 90.5029 105.957 90.937C105.957 91.9787 103.642 92.8179 102.485 93.1072C102.196 92.2391 101.791 90.5029 102.485 90.5029Z" fill="#013FA9"/>
    <path d="M104.476 70.0197H76.7988V102.57H104.476V70.0197Z" fill="#FBBEAA"/>
    <path d="M76.8678 70.0197H104.453V88.1799C103.248 88.3296 102.035 88.4064 100.821 88.4098C91.3041 88.4098 80.6608 85.8122 76.7759 76.7321L76.8678 70.0197Z" fill="#F18380"/>
    <path d="M118.774 45.8601C118.544 55.262 118.774 62.6871 117.073 69.8592C115.372 77.0313 110.177 82.8932 98.683 82.8932C87.1892 82.8932 74.0863 79.1462 73.1668 64.7789C71.2818 62.733 68.2244 55.4459 68.1095 47.2853C67.9946 39.1247 68.6382 21.861 87.2352 19.2174C105.832 16.5739 119.28 23.4012 118.774 45.8601Z" fill="#FBBEAA"/>
    <path d="M109.05 53.2622C109.05 54.5265 109.809 55.561 110.751 55.561C111.694 55.561 112.452 54.5265 112.452 53.2622C112.452 51.9979 111.694 50.9634 110.751 50.9634C109.809 50.9634 109.05 51.9059 109.05 53.2622Z" fill="#403D4F"/>
    <path d="M88.3618 53.2622C88.3618 54.5265 89.1204 55.561 90.0629 55.561C91.0054 55.561 91.764 54.5265 91.764 53.2622C91.764 51.9979 91.0054 50.9634 90.0629 50.9634C89.1204 50.9634 88.3618 51.9059 88.3618 53.2622Z" fill="#403D4F"/>
    <path d="M92.5225 48.4804C92.3615 48.6873 91.1432 48.4804 90.2237 48.4804C89.3042 48.4804 87.5342 48.4804 87.5342 48.2735C87.5342 48.0666 88.4077 46.6414 90.7064 46.8942C92.3615 47.0781 92.9592 48.1126 92.5225 48.4804Z" fill="#403D4F"/>
    <path d="M108.659 48.4803C108.797 48.6872 109.832 48.4803 110.636 48.4803C111.441 48.4803 112.935 48.4803 112.935 48.2735C112.729 47.7524 112.339 47.3247 111.84 47.0707C111.34 46.8168 110.765 46.754 110.222 46.8942C108.797 47.0781 108.406 48.1125 108.659 48.4803Z" fill="#403D4F"/>
    <path d="M101.878 62.7789C103.487 62.7789 104.774 61.7215 104.82 60.9629L104.291 54.4804C104.274 54.3197 104.195 54.1722 104.07 54.0692C103.946 53.9662 103.786 53.9158 103.625 53.9287C103.546 53.9345 103.47 53.9558 103.399 53.9913C103.329 54.0268 103.266 54.0759 103.215 54.1357C103.164 54.1956 103.125 54.2649 103.101 54.3399C103.076 54.4148 103.067 54.4938 103.073 54.5723L103.579 60.825C103.347 61.0769 103.061 61.2737 102.743 61.401C102.424 61.5283 102.082 61.5828 101.74 61.5606C101.659 61.5543 101.579 61.5644 101.502 61.5902C101.426 61.616 101.356 61.6569 101.295 61.7106C101.235 61.7643 101.187 61.8296 101.152 61.9026C101.118 61.9755 101.099 62.0547 101.096 62.1353C101.096 62.2983 101.157 62.4554 101.268 62.5749C101.379 62.6943 101.531 62.7673 101.694 62.7789H101.878Z" fill="#F18380"/>
    <path d="M78.1499 50.1354C78.1499 59.4111 73.5523 55.963 73.5523 55.963C72.403 52.5148 70.4006 53.9976 67.7684 53.9976C65.1362 53.9976 65.4744 52.0805 62.8422 45.7589C60.7365 40.7016 63.164 32.6659 64.7433 30.7208C62.1254 27.291 65.6756 25.2478 65.5528 25.7677C64.7433 29.1951 67.5495 25.7505 68.9548 24.3992C83.9645 9.96651 113.055 16.8717 113.055 16.8717L117.861 22.1888L112.559 22.7389C112.559 22.7389 118.523 23.1513 116.856 25.9617C115.467 28.3022 120.493 32.6659 120.493 32.6659L131.021 33.6384C131.021 33.6384 124.178 40.9326 114.702 41.9051C104.03 43.0004 92.5918 38.0149 92.5918 38.0149L96.8032 42.8777C96.8032 42.8777 86.1585 40.7066 82.7104 42.5037C80.505 43.6531 78.1499 45.9888 78.1499 50.1354Z" fill="#7D4A40"/>
    <path d="M73.6723 57.6299C73.5573 55.0093 73.1435 51.1474 69.4195 51.0554C65.6955 50.9635 65.2128 53.7679 65.3277 58.1816C65.4427 62.5952 69.9253 66.3422 73.8562 64.825L73.6723 57.6299Z" fill="#FBBEAA"/>
    <path d="M68.2007 60.8018C68.3619 60.7737 68.5055 60.6831 68.6002 60.5496C68.695 60.4161 68.7331 60.2507 68.7065 60.0892C68.7066 59.9595 68.7434 59.8324 68.8125 59.7226C68.8816 59.6128 68.9803 59.5248 69.0972 59.4685C69.3319 59.3114 69.6079 59.2275 69.8903 59.2275C70.1727 59.2275 70.4488 59.3114 70.6834 59.4685C70.7855 59.5249 70.9001 59.5544 71.0167 59.5544C71.1333 59.5544 71.248 59.5249 71.3501 59.4685C71.4437 59.4066 71.5188 59.3205 71.5674 59.2193C71.616 59.1181 71.6362 59.0056 71.6259 58.8938C71.3041 55.1928 68.9363 54.5032 68.8444 54.4802C68.7659 54.456 68.6833 54.4482 68.6016 54.4574C68.52 54.4665 68.4411 54.4924 68.37 54.5334C68.2988 54.5744 68.2368 54.6296 68.1879 54.6956C68.139 54.7616 68.1042 54.837 68.0858 54.917C68.0433 55.0694 68.0631 55.2324 68.1406 55.3703C68.2182 55.5082 68.3473 55.6097 68.4996 55.6526C68.9588 55.8605 69.359 56.1795 69.664 56.5809C69.9691 56.9822 70.1693 57.4532 70.2466 57.9514C69.6167 57.8487 68.971 57.9795 68.4306 58.3192C68.1158 58.5038 67.8613 58.7758 67.698 59.1023C67.5348 59.4287 67.4699 59.7955 67.5111 60.1582C67.5072 60.2477 67.5228 60.3371 67.5567 60.42C67.5907 60.503 67.6422 60.5776 67.7077 60.6388C67.7732 60.7 67.8512 60.7462 67.9364 60.7744C68.0215 60.8025 68.1116 60.8119 68.2007 60.8018Z" fill="#F18380"/>
    <path d="M100.292 71.0546C98.0733 70.969 95.9426 70.1619 94.2236 68.7558" stroke="#73102A" stroke-width="0.5" stroke-miterlimit="10" stroke-linecap="round"/>
    <path d="M100.37 66.9863C97.1518 65.9288 93.4738 64.6875 92.2095 66.1817C91.221 67.1932 92.5543 71.9516 97.4966 72.7791C102.439 73.6067 104.209 70.2045 103.956 68.8942C103.795 68.0897 102.899 67.8368 100.37 66.9863Z" fill="#73102A"/>
    <path d="M92.3244 66.113H92.2095C91.221 67.1245 92.5543 71.8829 97.4966 72.7105C98.5704 72.9598 99.687 72.9598 100.761 72.7105C99.9283 71.0566 98.7402 69.6074 97.2816 68.4668C95.8231 67.3261 94.1302 66.5224 92.3244 66.113Z" fill="#D65155"/>
    <path d="M93.4741 65.6069C94.7764 67.0222 96.43 68.0676 98.2671 68.6368C100.104 69.2061 102.059 69.279 103.933 68.8482C103.75 68.0666 102.83 67.8137 100.37 66.9862C98.1874 66.0686 95.8421 65.5995 93.4741 65.6069Z" fill="white"/>
    <path d="M113.241 427.838C113.241 427.838 112.116 475.327 111.835 482.431C111.554 489.534 107.031 491.467 99.7426 492.096C92.4543 492.725 89.3844 486.972 88.3532 482.407C87.3221 477.842 81.0884 431.285 81.0884 431.285L113.241 427.838Z" fill="#FBBEAA"/>
    <path d="M66.1601 428.986C66.1601 428.986 59.9625 476.61 58.9374 483.7C57.9122 490.789 53.2291 492.297 45.9365 492.132C38.6439 491.967 36.244 485.867 35.7082 481.18C35.1723 476.493 34.0073 428.986 34.0073 428.986H66.1601Z" fill="#FBBEAA"/>
    <path d="M47.16 468.056C49.8069 467.869 52.4314 468.648 54.5351 470.246C56.6388 471.844 58.0753 474.15 58.5717 476.725L70.7536 489.06V496.737H31.7109C31.7109 496.737 33.6712 482.904 34.2313 479.791C34.7914 476.679 36.6817 468.056 47.16 468.056Z" fill="#FBBEAA"/>
    <path d="M58.7211 476.953C59.1718 476.34 59.8123 475.868 60.2631 476.151C60.7138 476.434 72.6937 485.86 73.263 486.332C73.6136 486.659 73.8789 487.066 74.0359 487.517C74.193 487.969 74.2371 488.452 74.1644 488.924V499.033H30.5625C30.5625 499.033 32.2705 484.093 32.3891 483.268C32.5077 482.443 33.338 481.359 33.8125 481.383C36.8052 482.294 39.9111 482.785 43.0405 482.844C47.1997 483.063 51.3486 482.253 55.1153 480.487C56.5119 479.523 57.7315 478.327 58.7211 476.953Z" fill="#302D3B"/>
    <path d="M66.9487 490.841C64.884 489.282 57.4605 483.377 54.6768 481.157L55.3263 480.826C55.4139 480.787 55.4929 480.731 55.5583 480.66C58.5277 483.022 65.5103 488.597 67.5054 490.109C69.1919 491.424 70.3472 493.323 70.7532 495.447L69.8484 495.589C69.4657 493.706 68.4379 492.023 66.9487 490.841Z" fill="white"/>
    <path d="M31.8518 488.699C34.893 488.73 37.8361 489.787 40.2102 491.702C42.356 493.617 43.8095 496.196 44.3424 499.033H43.0746C42.556 496.575 41.2731 494.346 39.4119 492.672C37.2269 490.909 34.5104 489.95 31.7109 489.952L31.8518 488.699Z" fill="white"/>
    <path d="M81.5993 497.885H31.1999C30.8479 497.885 30.5625 498.204 30.5625 498.598V504.062C30.5625 504.456 30.8479 504.775 31.1999 504.775H81.5993C81.9513 504.775 82.2367 504.456 82.2367 504.062V498.598C82.2367 498.204 81.9513 497.885 81.5993 497.885Z" fill="white"/>
    <path d="M73.2443 486.43C73.6667 486.259 75.7342 486.834 78.4242 489.368C79.5442 490.477 80.3505 491.841 80.7667 493.331C81.1829 494.822 81.1954 496.389 80.803 497.885H67.3086C68.0645 489.709 72.8219 486.6 73.2443 486.43Z" fill="white"/>
    <path d="M67.4943 485.956C67.3571 486.157 67.2918 486.413 67.3123 486.671C67.3329 486.928 67.4377 487.165 67.604 487.331C67.6857 487.411 67.7798 487.471 67.881 487.508C67.9823 487.545 68.0886 487.558 68.194 487.546C68.2993 487.534 68.4016 487.497 68.495 487.438C68.5885 487.378 68.6711 487.297 68.7383 487.2L70.5679 484.56C70.705 484.36 70.7704 484.104 70.7498 483.846C70.7293 483.589 70.6244 483.352 70.4581 483.186C70.3775 483.103 70.2836 483.04 70.1821 483.001C70.0806 482.963 69.9735 482.949 69.8674 482.961C69.7613 482.974 69.6585 483.012 69.565 483.073C69.4716 483.134 69.3895 483.217 69.3238 483.317L67.4943 485.956Z" fill="white"/>
    <path d="M65.1978 484.402C65.0604 484.652 64.9948 484.972 65.0154 485.293C65.036 485.614 65.1411 485.91 65.3078 486.117C65.3885 486.22 65.4826 486.299 65.5844 486.347C65.6861 486.395 65.7934 486.412 65.8997 486.397C66.0059 486.381 66.1091 486.334 66.2027 486.258C66.2963 486.182 66.3786 486.078 66.4444 485.953L68.2777 482.66C68.4106 482.408 68.4733 482.09 68.4529 481.771C68.4324 481.452 68.3303 481.157 68.1677 480.946C68.0869 480.842 67.9928 480.764 67.8911 480.716C67.7893 480.668 67.6821 480.651 67.5758 480.666C67.4695 480.681 67.3664 480.728 67.2728 480.805C67.1791 480.881 67.0969 480.984 67.031 481.109L65.1978 484.402Z" fill="white"/>
    <path d="M61.8178 481.773C61.6369 481.919 61.5478 482.108 61.5703 482.299C61.5928 482.49 61.7249 482.667 61.9376 482.791C62.1574 482.914 62.4391 482.972 62.7217 482.954C63.0042 482.935 63.2647 482.841 63.4467 482.692L65.8421 480.706C65.9427 480.639 66.0227 480.559 66.0774 480.47C66.132 480.381 66.1602 480.286 66.1602 480.189C66.1602 480.093 66.132 479.998 66.0774 479.909C66.0227 479.82 65.9427 479.74 65.8421 479.672C65.6199 479.553 65.3396 479.497 65.0589 479.516C64.7781 479.534 64.5184 479.625 64.333 479.771L61.8178 481.773Z" fill="white"/>
    <path d="M59.4537 479.741C59.3867 479.865 59.3363 480.007 59.3055 480.16C59.2747 480.312 59.2641 480.473 59.2742 480.632C59.2844 480.791 59.3151 480.945 59.3646 481.086C59.4142 481.227 59.4816 481.352 59.563 481.454C59.7161 481.681 59.922 481.809 60.1365 481.809C60.3509 481.809 60.5568 481.681 60.71 481.454L62.5307 478.085C62.6671 477.831 62.7322 477.506 62.7118 477.181C62.6913 476.855 62.587 476.555 62.4214 476.345C62.3402 476.243 62.2465 476.167 62.1458 476.12C62.045 476.074 61.9392 476.057 61.8344 476.073C61.7295 476.088 61.6277 476.135 61.5347 476.21C61.4418 476.285 61.3595 476.387 61.2926 476.511L59.4537 479.741Z" fill="white"/>
    <path d="M103.436 468.056C106.085 467.869 108.711 468.648 110.816 470.246C112.921 471.844 114.358 474.15 114.855 476.725L127.021 489.06V496.737H87.978C87.978 496.737 89.9161 482.904 90.4999 479.791C91.0837 476.679 92.9518 468.056 103.436 468.056Z" fill="#FBBEAA"/>
    <path d="M113.862 476.953C114.313 476.34 114.931 475.868 115.405 476.151C115.88 476.434 127.846 485.86 128.392 486.332C128.938 486.803 129.318 487.392 129.318 488.924V499.033H85.6816C85.6816 499.033 87.391 484.093 87.5097 483.268C87.6284 482.443 88.4593 481.359 88.9341 481.383C91.9292 482.294 95.0375 482.785 98.1694 482.844C102.325 483.067 106.47 482.257 110.23 480.487C111.638 479.528 112.868 478.331 113.862 476.953Z" fill="#302D3B"/>
    <path d="M120.92 490.841C118.855 489.282 111.432 483.377 108.648 481.157L109.274 480.826C109.369 480.788 109.456 480.732 109.529 480.66C112.499 483.022 119.482 488.597 121.477 490.109C123.163 491.424 124.318 493.323 124.724 495.447L123.82 495.589C123.426 493.71 122.4 492.031 120.92 490.841Z" fill="white"/>
    <path d="M88.1061 488.699C90.8708 488.73 93.5463 489.787 95.7046 491.702C97.6554 493.617 98.9767 496.196 99.4612 499.033H98.3086C97.8314 496.572 96.6574 494.343 94.9575 492.672C92.9811 490.906 90.5171 489.946 87.978 489.952L88.1061 488.699Z" fill="white"/>
    <path d="M135.57 497.885H85.1706C84.8186 497.885 84.5332 498.204 84.5332 498.598V504.062C84.5332 504.456 84.8186 504.775 85.1706 504.775H135.57C135.922 504.775 136.207 504.456 136.207 504.062V498.598C136.207 498.204 135.922 497.885 135.57 497.885Z" fill="white"/>
    <path d="M127.71 486.43C128.167 486.259 130.407 486.834 133.321 489.368C134.535 490.477 135.408 491.841 135.859 493.331C136.31 494.822 136.323 496.389 135.898 497.885H121.279C122.098 489.709 127.252 486.6 127.71 486.43Z" fill="white"/>
    <path d="M122.676 485.956C122.493 486.157 122.405 486.413 122.433 486.671C122.46 486.928 122.6 487.165 122.822 487.331C122.932 487.411 123.057 487.471 123.193 487.508C123.328 487.545 123.47 487.558 123.611 487.546C123.751 487.534 123.888 487.497 124.013 487.438C124.138 487.378 124.248 487.297 124.338 487.2L126.782 484.56C126.96 484.358 127.043 484.103 127.016 483.847C126.989 483.591 126.852 483.355 126.636 483.186C126.528 483.103 126.403 483.04 126.267 483.001C126.131 482.963 125.988 482.949 125.846 482.961C125.705 482.974 125.567 483.012 125.442 483.073C125.318 483.134 125.208 483.217 125.12 483.317L122.676 485.956Z" fill="white"/>
    <path d="M120.317 484.399C120.18 484.649 120.114 484.97 120.135 485.291C120.156 485.613 120.261 485.909 120.427 486.116C120.508 486.22 120.602 486.298 120.704 486.347C120.806 486.395 120.913 486.412 121.019 486.397C121.126 486.381 121.229 486.334 121.322 486.258C121.416 486.181 121.498 486.078 121.564 485.953L123.397 482.654C123.53 482.402 123.593 482.083 123.572 481.763C123.552 481.444 123.45 481.148 123.287 480.937C123.119 480.733 122.903 480.635 122.687 480.666C122.471 480.697 122.272 480.853 122.132 481.101L120.317 484.399Z" fill="white"/>
    <path d="M117.011 481.775C116.909 481.841 116.827 481.919 116.771 482.007C116.715 482.094 116.686 482.188 116.686 482.283C116.686 482.378 116.715 482.472 116.771 482.559C116.827 482.646 116.909 482.725 117.011 482.791C117.238 482.914 117.528 482.972 117.818 482.954C118.109 482.935 118.377 482.842 118.564 482.693L121.029 480.71C121.214 480.559 121.302 480.366 121.274 480.173C121.247 479.98 121.105 479.802 120.881 479.677C120.771 479.617 120.644 479.571 120.508 479.544C120.372 479.516 120.228 479.506 120.086 479.516C119.945 479.525 119.807 479.552 119.681 479.597C119.555 479.642 119.444 479.702 119.353 479.775L117.011 481.775Z" fill="white"/>
    <path d="M114.633 479.741C114.544 479.865 114.477 480.007 114.436 480.16C114.395 480.312 114.381 480.473 114.394 480.632C114.408 480.791 114.449 480.945 114.515 481.086C114.581 481.227 114.671 481.352 114.779 481.454C114.983 481.681 115.258 481.809 115.544 481.809C115.83 481.809 116.104 481.681 116.309 481.454L118.736 478.085C118.918 477.831 119.005 477.506 118.977 477.181C118.95 476.855 118.811 476.555 118.59 476.345C118.482 476.243 118.357 476.167 118.223 476.12C118.089 476.074 117.947 476.057 117.808 476.073C117.668 476.088 117.532 476.135 117.408 476.21C117.284 476.285 117.175 476.387 117.085 476.511L114.633 479.741Z" fill="white"/>
    <path d="M37.6441 327.067C37.2544 330.099 37.4593 333.179 38.2468 336.13C39.0344 339.081 40.3889 341.844 42.2321 344.259C44.0754 346.673 46.3707 348.692 48.9854 350.198C51.6 351.704 54.4821 352.667 57.4648 353.032C60.4476 353.397 63.4719 353.157 66.3627 352.324C69.2535 351.492 71.9534 350.084 74.3064 348.183C76.6593 346.282 78.6186 343.924 80.0707 341.248C81.5229 338.571 82.4392 335.627 82.7665 332.588C82.7665 332.588 94.5965 248.013 97.402 230.926C100.208 213.84 97.2384 199.538 78.4413 195.469C58.9428 191.257 46.7621 205.797 45.2892 220.361C43.8163 234.924 37.6441 327.067 37.6441 327.067Z" fill="#013EA5"/>
    <path d="M75.6323 328.693C75.5567 334.812 77.9174 340.709 82.1951 345.089C86.4728 349.469 92.3172 351.972 98.4425 352.047C104.568 352.123 110.472 349.765 114.857 345.492C119.241 341.219 121.747 335.381 121.823 329.263C121.823 329.263 124.745 244.105 125.743 226.851C126.741 209.596 122.227 195.759 102.791 193.765C82.6417 191.7 71.9019 207.436 71.9019 222.056C71.9019 236.676 75.6323 328.693 75.6323 328.693Z" fill="#013EA5"/>
    <path d="M75.3467 328.88C75.3848 325.854 76.0315 322.864 77.2497 320.082C78.4679 317.301 80.2339 314.781 82.4467 312.667C84.6596 310.554 87.276 308.887 90.1465 307.764C93.0171 306.64 96.0856 306.081 99.1768 306.118C102.268 306.156 105.322 306.789 108.163 307.982C111.004 309.174 113.578 310.903 115.737 313.07C117.896 315.236 119.597 317.798 120.745 320.608C121.893 323.419 122.464 326.423 122.426 329.449L117.582 451.391L79.5848 455.398L75.3467 328.88Z" fill="#013EA5"/>
    <path d="M37.7247 327.417C38.508 321.369 41.6224 315.878 46.3913 312.136C51.1601 308.393 57.1984 306.703 63.1944 307.431C69.1904 308.159 74.6598 311.246 78.4147 316.024C82.1696 320.801 83.9067 326.881 83.2486 332.944L65.4872 454.249H28.2661L37.7247 327.417Z" fill="#013EA5"/>
    <path d="M82.2364 331.38L65.0117 453.101" stroke="#013EA5" stroke-width="0.75" stroke-miterlimit="10" stroke-linecap="round"/>
    <path d="M83.3853 332.528C83.3853 332.528 95.4517 248.46 98.3133 231.476" stroke="#F5F5F5" stroke-width="0.75" stroke-miterlimit="10" stroke-linecap="round"/>
    <path d="M123.576 203.917C123.576 203.917 123.576 227.878 123.576 229.195C123.576 230.512 112.056 241.811 96.7581 241.811C73.2348 241.811 45.0805 233.192 45.4953 227.578C45.7717 223.881 46.1173 203.917 46.1173 203.917H123.576Z" fill="#013EA5"/>
    <path d="M194.464 105.612L183.329 175.515C181.491 184.284 184.331 192.218 194.464 193.61C196.334 193.853 198.235 193.714 200.05 193.201C201.865 192.688 203.557 191.811 205.023 190.623C206.489 189.436 207.698 187.963 208.577 186.295C209.456 184.626 209.987 182.796 210.137 180.915L213.533 105.752C214.424 98.6528 211.334 93.9203 205.934 93.3357C199.308 92.6119 195.8 96.5371 194.464 105.612Z" fill="#FBBEAA"/>
    <path d="M203.512 167.775L123.56 107.032C114.234 101.075 107.887 104.248 102.932 110.623C100.669 113.709 99.6195 117.519 99.984 121.328C100.348 125.137 102.101 128.679 104.908 131.279L184.665 190.046C187.476 192.42 191.094 193.618 194.766 193.389C198.438 193.161 201.88 191.525 204.375 188.821L204.737 188.432C206.061 187.019 207.083 185.351 207.742 183.53C208.4 181.709 208.681 179.773 208.566 177.84C208.451 175.907 207.944 174.018 207.075 172.287C206.206 170.557 204.994 169.022 203.512 167.775Z" fill="#FBBEAA"/>
    <path d="M194.797 103.747C194.912 101.238 194.24 98.7564 192.876 96.648C190.776 94.2128 189.203 91.3693 188.255 88.2964C187.526 85.444 186.362 82.7209 184.803 80.2232C183.689 78.6921 182.019 77.4394 182.019 76.2702C182.019 75.101 184.246 72.8461 187.42 73.4864C188.779 73.9098 190.028 74.6286 191.077 75.5911C192.126 76.5536 192.95 77.7361 193.489 79.0541C193.793 78.2511 193.971 77.406 194.017 76.5486L194.713 59.4837C194.724 59.0413 194.823 58.6055 195.005 58.202C195.187 57.7986 195.447 57.4356 195.772 57.1346C196.096 56.8336 196.478 56.6006 196.893 56.4495C197.309 56.2983 197.751 56.232 198.193 56.2544C198.897 56.2844 199.573 56.5342 200.128 56.9686C200.682 57.4031 201.086 58.0003 201.283 58.6763V57.8969C201.39 57.0673 201.807 56.309 202.45 55.7741C203.093 55.2392 203.915 54.9673 204.75 55.0131C205.585 55.0589 206.372 55.419 206.953 56.021C207.534 56.623 207.865 57.4225 207.881 58.2588V60.6251C208.16 59.8955 208.691 59.2905 209.379 58.9202C210.067 58.5498 210.864 58.439 211.627 58.6077C212.39 58.7764 213.066 59.2134 213.533 59.8392C214.001 60.465 214.227 61.2379 214.172 62.017V63.5202C214.472 62.9936 214.919 62.5658 215.458 62.2889C215.996 62.0121 216.604 61.8982 217.207 61.9612C218.032 62.066 218.784 62.4878 219.304 63.1373C219.823 63.7868 220.07 64.613 219.991 65.441L218.627 79.8335C217.733 87.9478 216.055 95.9563 213.616 103.747C213.586 105.047 213.285 106.328 212.731 107.505C212.177 108.682 211.383 109.731 210.4 110.583C209.417 111.435 208.266 112.072 207.022 112.453C205.778 112.834 204.468 112.95 203.176 112.794C202.007 112.833 200.844 112.62 199.764 112.17C198.685 111.72 197.715 111.043 196.92 110.185C196.125 109.326 195.524 108.307 195.158 107.197C194.792 106.086 194.669 104.909 194.797 103.747Z" fill="#FBBEAA"/>
    <path d="M116.961 102.689L186.149 149.353C185.858 151.74 191.465 102.689 191.465 102.689L217.074 105.079C217.074 105.079 215.578 155.019 211.81 181.393C210.314 191.86 201.602 195.83 191.272 193.576C186.171 192.463 181.37 190.37 177.097 187.371C158.736 174.484 107.225 138.184 103.014 133.617C95.7482 125.739 95.7481 119.837 99.9239 113.351C104.1 106.865 113.036 101.715 116.961 102.689Z" fill="#013EA5"/>
    <path d="M195.354 81.4764C194.296 81.4764 194.213 80.8083 193.739 79.5834C196.106 79.5834 202.982 80.0288 205.988 85.8191C202.954 81.6434 197.136 81.4764 195.354 81.4764ZM200.755 59.4562C200.755 59.4562 200.587 60.4306 200.42 61.8503C200.42 62.5741 200.253 63.4371 200.198 64.3279C200.142 65.2187 200.059 66.1931 199.975 67.1117C199.975 69.0604 199.836 70.9813 199.836 72.4289C199.836 73.8765 199.836 74.8508 199.836 74.8508C199.836 74.8971 199.845 74.943 199.864 74.9855C199.882 75.0279 199.909 75.066 199.943 75.0974C199.977 75.1288 200.018 75.1529 200.061 75.1679C200.105 75.183 200.152 75.1887 200.198 75.1848C200.276 75.1809 200.351 75.1516 200.411 75.1014C200.472 75.0512 200.514 74.9829 200.532 74.9065C200.532 74.9065 200.699 73.9321 200.838 72.4845C200.977 71.0369 201.2 69.1161 201.283 67.1952C201.283 66.2209 201.283 65.2466 201.283 64.4114C201.283 63.5762 201.283 62.6576 201.283 61.9338C201.283 60.4584 201.283 59.5118 201.283 59.5118C201.284 59.4655 201.274 59.4197 201.256 59.3772C201.237 59.3348 201.21 59.2966 201.176 59.2652C201.142 59.2338 201.102 59.2098 201.058 59.1948C201.014 59.1797 200.968 59.1739 200.922 59.1778C200.868 59.2085 200.824 59.2534 200.795 59.3074C200.765 59.3614 200.751 59.4226 200.755 59.484V59.4562ZM207.213 61.4049C207.213 61.4049 207.046 62.24 206.851 63.4649C206.851 64.1052 206.656 64.829 206.573 65.6084C206.489 66.3879 206.406 67.2231 206.322 68.0582C206.322 69.7285 206.127 71.3988 206.1 72.6515C206.072 73.9043 206.1 74.7673 206.1 74.7673C206.103 74.8112 206.115 74.854 206.135 74.8932C206.155 74.9324 206.183 74.9673 206.217 74.9957C206.25 75.0242 206.289 75.0458 206.331 75.0591C206.373 75.0725 206.417 75.0774 206.461 75.0736C206.536 75.0683 206.607 75.038 206.663 74.9875C206.718 74.937 206.755 74.8692 206.768 74.7952C206.768 74.7952 206.935 73.9599 207.13 72.7351C207.324 71.5102 207.491 69.8121 207.631 68.1696C207.631 67.3344 207.631 66.4993 207.798 65.7198C207.965 64.9403 207.798 64.1887 207.798 63.5484C207.798 62.2957 207.798 61.4605 207.798 61.4605C207.798 61.4142 207.788 61.3684 207.77 61.326C207.751 61.2835 207.724 61.2453 207.69 61.2139C207.656 61.1825 207.616 61.1585 207.572 61.1435C207.528 61.1284 207.482 61.1226 207.436 61.1265C207.374 61.152 207.32 61.1941 207.281 61.2481C207.242 61.3022 207.218 61.366 207.213 61.4327V61.4049ZM213.449 64.0495C213.449 64.0495 213.282 64.7455 213.059 65.8033C213.059 66.3044 212.836 66.9169 212.753 67.585C212.669 68.2531 212.558 68.9491 212.447 69.645C212.252 71.0648 212.168 72.4289 212.113 73.5424C212.057 74.6559 212.113 75.3241 212.113 75.3241C212.112 75.3704 212.122 75.4162 212.14 75.4587C212.159 75.5011 212.186 75.5393 212.22 75.5707C212.254 75.6021 212.294 75.6261 212.338 75.6411C212.382 75.6562 212.428 75.662 212.474 75.6581C212.546 75.6544 212.614 75.6281 212.669 75.583C212.724 75.538 212.763 75.4765 212.781 75.4076C212.781 75.4076 212.976 74.7117 213.17 73.6816C213.365 72.6516 213.644 71.204 213.811 69.8121C213.811 69.0883 213.95 68.3923 214.006 67.7242C214.061 67.0561 214.006 66.4436 214.006 65.9147C214.006 64.8568 214.006 64.133 214.006 64.133C214.006 64.0867 213.996 64.0409 213.978 63.9984C213.959 63.956 213.932 63.9178 213.898 63.8864C213.864 63.855 213.824 63.831 213.78 63.8159C213.736 63.8009 213.69 63.7951 213.644 63.799C213.592 63.8276 213.548 63.8676 213.514 63.9158C213.481 63.964 213.458 64.0192 213.449 64.0774V64.0495Z" fill="#F18380"/>
    <path d="M186.691 143.71L187.993 133.293L215.773 135.463L215.339 145.88L186.691 143.71Z" fill="#CFD1CE"/>
    <path d="M105.919 96.137C105.919 96.137 122.727 105.843 125.351 107.541C127.974 109.24 130.937 111.86 130.403 118.945C129.868 126.03 127.609 221.403 127.609 221.403C118.983 222.864 93.7198 222.864 93.7198 222.864H91.4232H89.7007H87.4041H85.6816H83.9591C83.9591 222.864 46.5064 219.681 45.7535 219.244C45.0005 218.807 44.2961 218.346 44.3447 217.521C44.3932 216.696 44.879 119.746 45.1948 115.475C45.2573 113.188 45.9777 110.968 47.2699 109.079C48.5621 107.19 50.3715 105.713 52.4817 104.824C57.5582 102.567 76.6256 94.8268 76.6256 94.8268L92.6402 96.137H105.919Z" fill="#034CC9"/>
    <path d="M105.919 96.137C105.919 96.137 122.727 105.843 125.35 107.541C127.974 109.24 130.937 111.86 130.403 118.945C129.868 126.03 127.609 221.403 127.609 221.403C118.983 222.864 105.203 222.864 105.203 222.864H102.906H101.184H98.8871H97.1646H95.4422C95.4422 222.864 98.1805 219.681 97.4275 219.244C96.6745 218.807 95.9701 218.346 96.0187 217.521C96.0673 216.696 96.5531 119.746 96.8689 115.475C96.9314 113.188 97.6518 110.968 98.944 109.079C100.236 107.19 102.046 105.713 104.156 104.824C109.232 102.567 76.6255 94.8268 76.6255 94.8268L92.6401 96.137H105.919Z" fill="#0045BA"/>
    <path d="M107.826 96.2769C107.826 96.2769 126.409 107.018 129.309 108.898C132.209 110.778 129.892 114.922 129.892 122.386C129.892 132.147 128.169 132.721 128.169 132.721C122.358 135.857 119.816 133.411 113.412 135.019C110.297 135.368 107.88 135.448 105.785 133.407C103.691 131.366 97.1648 132.147 97.1648 132.147C97.1648 132.147 87.3367 130.856 82.7447 133.407C81.6463 134.173 80.4052 134.711 79.095 134.988C77.7849 135.264 76.7547 135.244 75.4404 134.988C68.7807 133.618 42.1416 125.969 41.3092 125.485C40.4767 125.002 39.6979 124.492 39.7516 123.579C39.8054 122.666 40.3424 122.406 40.6915 117.679C40.7607 115.148 41.5571 112.691 42.9857 110.6C44.4143 108.51 46.4147 106.875 48.7477 105.891C54.3602 103.393 75.4404 94.8268 75.4404 94.8268L93.1457 95.4009L107.826 96.2769Z" fill="#9A99A1"/>
    <path d="M94.6726 92.2392C86.6861 92.2392 79.4808 88.7667 76.8765 87.0305V94.8435C77.1658 95.2775 79.394 96.6665 85.9916 98.7499C92.5892 100.833 102.052 100.052 105.958 98.7499V90.937C105.958 91.371 104.656 92.2392 94.6726 92.2392Z" fill="#034CC9"/>
    <path d="M95.1064 222.455C97.3245 221.711 99.2657 220.277 100.664 218.35C102.063 216.422 102.85 214.096 102.919 211.689V92.6731H95.1064V222.455Z" fill="#034CC9"/>
    <path d="M129.891 135.644H90.5127V126.963L129.891 126.98C129.891 130.999 129.891 132.147 129.891 135.644Z" fill="#D3D4D2"/>
    <path d="M58.6773 126.963H98.3258V135.644H57.8644C58.393 131.738 58.6773 130.002 58.6773 126.963Z" fill="#CFD1CE"/>
    <g style="mix-blend-mode:multiply" opacity="0.4">
        <path d="M94.2383 99.8742L95.1064 100.052V222.455H94.2383V99.8742Z" fill="#013FA9"/>
    </g>
    <path d="M42.2072 110.654C36.1305 118.467 0.972168 213.958 0.972168 213.958C33.5261 203.541 30.4715 175.387 48.1767 178.366C48.1767 178.366 68.5932 130.446 69.3727 126.158C70.1862 122.779 69.8211 119.223 68.3378 116.079C66.8545 112.935 64.3419 110.392 61.2161 108.871C52.5027 104.417 48.2839 102.84 42.2072 110.654Z" fill="#0045BA"/>
    <path d="M59.6841 155.778C64.6115 150.795 73.826 140.049 76.9439 137.433C80.0268 135.11 83.3949 133.192 86.9657 131.726C89.6748 130.818 92.4755 130.211 95.3172 129.916C97.2938 129.666 98.1011 130.25 98.1011 131.447C98.0514 132.16 97.8241 132.85 97.44 133.453C97.0559 134.056 96.5271 134.553 95.9018 134.899H99.5486C100.801 134.899 101.609 135.901 101.024 137.516C100.493 138.583 99.7341 139.52 98.8009 140.261C97.8676 141.002 96.7828 141.528 95.6234 141.803C95.6234 141.803 100.551 142.276 101.804 142.527C103.056 142.777 103.446 143.251 103.446 144.448C103.435 145.275 103.205 146.084 102.78 146.793C102.354 147.502 101.749 148.086 101.024 148.484C99.2506 149.204 97.3681 149.618 95.4564 149.709C95.4564 149.709 101.553 151.24 102.778 151.686C104.003 152.131 104.142 152.938 103.502 153.996C103.137 154.742 102.61 155.396 101.96 155.911C101.31 156.426 100.552 156.79 99.7435 156.975C97.4329 157.588 95.874 156.585 95.0388 156.725C93.2444 157.303 91.4873 157.991 89.7774 158.785C87.2096 161.341 84.0701 163.25 80.6186 164.352C78.0494 165.43 75.6927 166.958 73.659 168.862C72.7116 169.751 71.5956 170.441 70.377 170.891C69.1583 171.341 67.8618 171.543 66.5641 171.483C65.2663 171.423 63.9937 171.104 62.8215 170.544C61.6494 169.984 60.6015 169.194 59.7397 168.222C55.2856 163.489 56.0372 159.536 59.6841 155.778Z" fill="#FBBEAA"/>
    <path d="M76.0626 172.723L31.2479 223.117C25.8775 230.275 13.3282 234.208 5.66075 227.577C4.24284 226.335 3.09204 224.817 2.27816 223.117C1.46427 221.417 1.00424 219.569 0.926001 217.685C0.847761 215.802 1.15293 213.922 1.82299 212.16C2.49305 210.398 3.51403 208.79 4.82403 207.435L59.1345 150.586L76.0626 172.723Z" fill="#0045BA"/>
    <path d="M95.2899 134.927C95.2978 134.973 95.2959 135.02 95.2845 135.066C95.273 135.111 95.2523 135.153 95.2234 135.19C95.1945 135.227 95.1582 135.257 95.1169 135.279C95.0757 135.301 95.0303 135.314 94.9837 135.317L92.701 135.539H91.5874C91.1977 135.539 90.8358 135.679 90.4461 135.707C90.0343 135.83 89.6339 135.988 89.249 136.18L87.9684 136.709C86.2424 137.405 84.5164 138.045 83.2359 138.518C81.9553 138.991 81.0645 139.27 81.0645 139.27C80.9939 139.3 80.9147 139.302 80.8426 139.276C80.7704 139.25 80.7105 139.198 80.6748 139.131C80.6228 139.063 80.5947 138.98 80.5947 138.894C80.5947 138.808 80.6228 138.725 80.6748 138.657L82.7626 137.572L84.934 136.542C85.7135 136.18 86.5765 135.818 87.4395 135.484L88.7479 134.983C89.1687 134.793 89.6068 134.643 90.0563 134.537L91.3926 134.398H92.5339H94.232H94.8724C94.9425 134.343 95.0318 134.317 95.1205 134.328C95.2093 134.338 95.2903 134.384 95.3456 134.454C95.401 134.524 95.4263 134.613 95.4158 134.702C95.4054 134.791 95.3601 134.872 95.2899 134.927ZM94.761 141.636H94.2599C93.8432 141.599 93.4239 141.599 93.0071 141.636L92.1442 141.775C91.8261 141.815 91.5102 141.871 91.1977 141.942L89.3047 142.555C88.0241 142.972 86.7714 143.501 85.8249 143.891C85.8249 143.891 85.5186 143.891 85.5465 144.03H85.2124L84.7114 144.169H84.4051H84.2381C84.154 144.189 84.081 144.241 84.0343 144.314C83.9875 144.386 83.9708 144.474 83.9875 144.559C83.9997 144.626 84.0336 144.687 84.084 144.732C84.1343 144.777 84.1983 144.805 84.2659 144.81H85.6857H86.1311C87.1054 144.559 88.4138 144.169 89.6944 143.724L91.5596 143.028L92.4226 142.805L93.1742 142.583C93.5586 142.469 93.949 142.376 94.3434 142.304L94.8167 142.165C94.8588 142.152 94.8979 142.131 94.9319 142.103C94.9659 142.076 94.9941 142.041 95.0147 142.002C95.0354 141.964 95.0482 141.921 95.0525 141.877C95.0567 141.834 95.0523 141.789 95.0394 141.747C95.0064 141.707 94.9635 141.675 94.9148 141.655C94.866 141.636 94.813 141.629 94.761 141.636ZM94.761 149.542H93.731C93.4526 149.542 93.0907 149.542 92.7288 149.737L91.5874 150.099C90.8692 150.352 90.1713 150.659 89.4996 151.018C89.1907 151.163 88.893 151.33 88.6087 151.519C88.5519 151.584 88.5206 151.668 88.5206 151.755C88.5206 151.842 88.5519 151.926 88.6087 151.992C88.6887 152.077 88.7986 152.127 88.9149 152.131L89.945 151.964C90.5296 151.825 91.2812 151.602 92.0329 151.352L93.1185 150.906L94.065 150.544C94.3802 150.405 94.687 150.247 94.9837 150.071C95.0625 150.024 95.1206 149.95 95.1464 149.862C95.1723 149.774 95.1638 149.68 95.1229 149.598C95.0404 149.545 94.941 149.525 94.8445 149.542H94.761Z" fill="#F18380"/>
    <path d="M23.1084 185.745L32.2235 178.366L50.4537 201.371L43.0748 210.052L23.1084 185.745Z" fill="#CFD1CE"/>
    <path d="M82.9223 35.7528C81.5654 39.8228 79.452 43.5995 76.6935 46.884H69.9411C69.9411 46.884 64.7068 40.8077 64.3142 40.3101C63.7467 39.7048 63.3153 38.9849 63.0489 38.1988C62.7826 37.4127 62.6875 36.5787 62.7701 35.7528H82.9223Z" fill="#676575"/>
    <path d="M76.6941 46.8841C76.6941 59.9796 72.3679 78.5996 92.7131 82.5374C92.7131 82.5374 79.6777 81.8491 74.6789 75.4323C69.6801 69.0155 69.9418 46.7794 69.9418 46.7794L76.6941 46.8841Z" fill="#827F94"/>
    <path d="M57.9287 37.4292H123.986C124.489 31.4575 123.922 25.4438 122.311 19.6717C119.694 12.1811 114.46 3.01427 92.5539 3.01427C70.6482 3.01427 62.9798 13.2811 61.4357 21.0599C59.8916 28.8386 60.6244 31.3791 59.7084 32.2172C58.7924 33.0553 57.9287 33.0815 57.9287 34.3387V37.4292Z" fill="#EFEFEF"/>
    <path d="M92.5536 3.0144C97.3306 2.92757 102.096 3.5094 106.712 4.743H106.922L107.733 5.00491C109.945 5.68635 112.05 6.6737 113.988 7.9383C115.304 13.3698 115.65 18.9914 115.009 24.5434H107.733L98.0496 22.8934C98.0496 22.8934 94.9875 7.17876 84.1001 3.51202C86.9024 3.14397 89.7275 2.97767 92.5536 3.0144Z" fill="#D8D8D8"/>
    <path d="M91.0352 0.5H105.822C107.393 0.5 115.009 6.41917 115.009 26.691H98.1801C98.1801 20.7195 97.1333 5.08343 87.7114 3.1191C87.7376 3.17148 89.1509 0.5 91.0352 0.5Z" fill="#EFEFEF"/>
    <path d="M134.533 37.4291V33.6053C134.531 33.0571 134.416 32.5153 134.195 32.0137C133.974 31.5121 133.652 31.0616 133.249 30.6903C132.847 30.319 132.371 30.035 131.854 29.8561C131.336 29.6772 130.787 29.6071 130.241 29.6504H121.787C121.302 29.6731 120.817 29.5913 120.365 29.4106C119.914 29.2299 119.506 28.9544 119.17 28.6028C118.621 27.9742 114.878 24.4646 114.433 23.9408C114.127 23.5408 113.73 23.2201 113.275 23.0059C112.819 22.7917 112.319 22.6901 111.816 22.7098H99.5152C99.013 22.6944 98.5142 22.7979 98.0594 23.0118C97.6046 23.2257 97.2067 23.544 96.8981 23.9408C96.4531 24.4646 92.7105 27.9742 92.1609 28.6028C91.8259 28.9558 91.4186 29.2322 90.9668 29.413C90.5151 29.5938 90.0297 29.6748 89.5438 29.6504H82.5036C81.9576 29.6071 81.4085 29.6772 80.8908 29.8561C80.3731 30.035 79.8979 30.319 79.4949 30.6903C79.092 31.0616 78.77 31.5121 78.5492 32.0137C78.3283 32.5153 78.2133 33.0571 78.2114 33.6053V37.4291H134.533Z" fill="#D8D8D8"/>
</svg>
