<svg width="221" height="494" viewBox="0 0 221 494" fill="none" xmlns="http://www.w3.org/2000/svg">
    <path d="M112.735 416.838C112.735 416.838 111.61 464.327 111.329 471.431C111.047 478.534 106.524 480.467 99.2361 481.096C91.9479 481.725 88.8779 475.972 87.8468 471.407C86.8156 466.842 80.5819 420.285 80.5819 420.285L112.735 416.838Z" fill="#FBBEAA"/>
    <path d="M65.6538 417.986C65.6538 417.986 59.4562 465.61 58.431 472.7C57.4059 479.789 52.7228 481.297 45.4302 481.132C38.1375 480.967 35.7377 474.867 35.2018 470.18C34.6659 465.493 33.501 417.986 33.501 417.986H65.6538Z" fill="#FBBEAA"/>
    <path d="M46.6534 457.056C49.3004 456.869 51.9248 457.648 54.0285 459.246C56.1322 460.844 57.5687 463.15 58.0652 465.725L70.2471 478.059V485.737H31.2044C31.2044 485.737 33.1647 471.904 33.7248 468.791C34.2849 465.679 36.1752 457.056 46.6534 457.056Z" fill="#FBBEAA"/>
    <path d="M58.2145 465.952C58.6652 465.34 59.3057 464.868 59.7564 465.151C60.2072 465.434 72.1871 474.86 72.7564 475.332C73.107 475.659 73.3723 476.065 73.5293 476.517C73.6864 476.969 73.7305 477.451 73.6578 477.924V488.033H30.0559C30.0559 488.033 31.7639 473.093 31.8825 472.268C32.0011 471.443 32.8314 470.359 33.3059 470.383C36.2986 471.294 39.4045 471.785 42.5339 471.844C46.6931 472.063 50.842 471.253 54.6087 469.487C56.0052 468.523 57.2249 467.327 58.2145 465.952Z" fill="#302D3B"/>
    <path d="M66.4424 479.841C64.3778 478.282 56.9543 472.377 54.1705 470.156L54.8201 469.826C54.9077 469.787 54.9867 469.731 55.0521 469.66C58.0215 472.022 65.0041 477.597 66.9992 479.109C68.6857 480.424 69.8409 482.323 70.2469 484.447L69.3422 484.588C68.9595 482.706 67.9317 481.023 66.4424 479.841Z" fill="white"/>
    <path d="M31.3453 477.699C34.3865 477.73 37.3295 478.787 39.7036 480.702C41.8495 482.617 43.303 485.196 43.8359 488.033H42.568C42.0495 485.575 40.7665 483.346 38.9054 481.672C36.7203 479.909 34.0038 478.95 31.2044 478.952L31.3453 477.699Z" fill="white"/>
    <path d="M81.0927 486.885H30.6933C30.3413 486.885 30.0559 487.204 30.0559 487.598V493.062C30.0559 493.456 30.3413 493.775 30.6933 493.775H81.0927C81.4447 493.775 81.73 493.456 81.73 493.062V487.598C81.73 487.204 81.4447 486.885 81.0927 486.885Z" fill="white"/>
    <path d="M72.7379 475.43C73.1603 475.259 75.2278 475.834 77.9178 478.368C79.0378 479.477 79.844 480.841 80.2603 482.331C80.6765 483.821 80.689 485.389 80.2966 486.885H66.8022C67.558 478.709 72.3155 475.6 72.7379 475.43Z" fill="white"/>
    <path d="M66.9879 474.956C66.8507 475.157 66.7853 475.413 66.8059 475.67C66.8264 475.928 66.9313 476.165 67.0976 476.331C67.1793 476.411 67.2734 476.471 67.3746 476.508C67.4759 476.545 67.5822 476.558 67.6876 476.546C67.7929 476.534 67.8952 476.497 67.9886 476.437C68.082 476.378 68.1647 476.297 68.2319 476.2L70.0615 473.56C70.1986 473.36 70.264 473.103 70.2434 472.846C70.2229 472.589 70.118 472.352 69.9517 472.186C69.8711 472.103 69.7772 472.04 69.6757 472.001C69.5741 471.963 69.4671 471.949 69.361 471.961C69.2549 471.974 69.1521 472.011 69.0586 472.073C68.9652 472.134 68.8831 472.217 68.8174 472.317L66.9879 474.956Z" fill="white"/>
    <path d="M64.6915 473.402C64.5541 473.652 64.4886 473.972 64.5092 474.293C64.5297 474.614 64.6348 474.91 64.8015 475.117C64.8822 475.22 64.9763 475.299 65.0781 475.347C65.1798 475.395 65.2871 475.412 65.3934 475.397C65.4997 475.381 65.6028 475.334 65.6964 475.258C65.79 475.182 65.8723 475.078 65.9381 474.953L67.7714 471.66C67.9043 471.408 67.967 471.089 67.9466 470.771C67.9261 470.452 67.824 470.156 67.6614 469.946C67.5806 469.842 67.4866 469.764 67.3848 469.716C67.2831 469.667 67.1758 469.651 67.0695 469.666C66.9632 469.681 66.8601 469.728 66.7665 469.804C66.6728 469.881 66.5906 469.984 66.5248 470.109L64.6915 473.402Z" fill="white"/>
    <path d="M61.3115 470.773C61.1306 470.919 61.0416 471.108 61.064 471.299C61.0865 471.49 61.2186 471.666 61.4313 471.791C61.6511 471.914 61.9328 471.972 62.2154 471.954C62.4979 471.935 62.7584 471.841 62.9404 471.692L65.3358 469.706C65.4364 469.639 65.5164 469.559 65.5711 469.47C65.6257 469.381 65.6539 469.286 65.6539 469.189C65.6539 469.093 65.6257 468.998 65.5711 468.909C65.5164 468.82 65.4364 468.74 65.3358 468.672C65.1136 468.553 64.8333 468.497 64.5526 468.516C64.2719 468.534 64.0121 468.625 63.8267 468.771L61.3115 470.773Z" fill="white"/>
    <path d="M58.9473 468.741C58.8803 468.865 58.8299 469.007 58.7991 469.159C58.7683 469.312 58.7577 469.473 58.7678 469.632C58.778 469.791 58.8087 469.945 58.8582 470.086C58.9078 470.227 58.9752 470.352 59.0566 470.453C59.2097 470.681 59.4156 470.809 59.6301 470.809C59.8445 470.809 60.0504 470.681 60.2036 470.453L62.0243 467.085C62.1607 466.831 62.2258 466.506 62.2053 466.181C62.1849 465.855 62.0806 465.555 61.915 465.345C61.8338 465.243 61.7401 465.167 61.6394 465.12C61.5386 465.073 61.4328 465.057 61.328 465.073C61.2231 465.088 61.1213 465.135 61.0283 465.21C60.9354 465.285 60.8531 465.387 60.7862 465.511L58.9473 468.741Z" fill="white"/>
    <path d="M102.93 457.056C105.579 456.869 108.205 457.648 110.31 459.246C112.415 460.844 113.852 463.15 114.349 465.725L126.514 478.059V485.737H87.4718C87.4718 485.737 89.4099 471.904 89.9937 468.791C90.5774 465.679 92.4455 457.056 102.93 457.056Z" fill="#FBBEAA"/>
    <path d="M113.356 465.952C113.807 465.34 114.424 464.868 114.899 465.151C115.374 465.434 127.339 474.86 127.885 475.332C128.431 475.803 128.811 476.392 128.811 477.924V488.033H85.1752C85.1752 488.033 86.8846 473.093 87.0033 472.268C87.122 471.443 87.9529 470.359 88.4277 470.383C91.4227 471.294 94.5311 471.785 97.663 471.844C101.818 472.067 105.963 471.257 109.723 469.487C111.132 468.528 112.361 467.331 113.356 465.952Z" fill="#302D3B"/>
    <path d="M120.413 479.841C118.349 478.282 110.925 472.377 108.142 470.156L108.768 469.826C108.863 469.788 108.949 469.732 109.023 469.66C111.992 472.022 118.975 477.597 120.97 479.109C122.657 480.424 123.812 482.323 124.218 484.447L123.313 484.588C122.919 482.71 121.894 481.031 120.413 479.841Z" fill="white"/>
    <path d="M87.5999 477.699C90.3646 477.73 93.0401 478.787 95.1984 480.702C97.1491 482.617 98.4705 485.196 98.9549 488.033H97.8023C97.3251 485.572 96.1511 483.343 94.4513 481.672C92.4748 479.906 90.0109 478.945 87.4718 478.952L87.5999 477.699Z" fill="white"/>
    <path d="M135.064 486.885H84.6644C84.3123 486.885 84.027 487.204 84.027 487.598V493.062C84.027 493.456 84.3123 493.775 84.6644 493.775H135.064C135.416 493.775 135.701 493.456 135.701 493.062V487.598C135.701 487.204 135.416 486.885 135.064 486.885Z" fill="white"/>
    <path d="M127.203 475.43C127.661 475.259 129.901 475.834 132.815 478.368C134.028 479.477 134.901 480.841 135.352 482.331C135.803 483.821 135.817 485.389 135.392 486.885H120.773C121.592 478.709 126.746 475.6 127.203 475.43Z" fill="white"/>
    <path d="M122.169 474.956C121.986 475.157 121.899 475.413 121.926 475.67C121.953 475.928 122.094 476.165 122.316 476.331C122.425 476.411 122.551 476.471 122.686 476.508C122.821 476.545 122.963 476.558 123.104 476.546C123.245 476.534 123.381 476.497 123.506 476.437C123.631 476.378 123.742 476.297 123.831 476.2L126.276 473.56C126.453 473.358 126.537 473.103 126.509 472.847C126.482 472.591 126.346 472.355 126.129 472.186C126.021 472.103 125.896 472.04 125.76 472.001C125.625 471.963 125.482 471.949 125.34 471.961C125.198 471.974 125.061 472.011 124.936 472.073C124.811 472.134 124.701 472.217 124.613 472.317L122.169 474.956Z" fill="white"/>
    <path d="M119.811 473.399C119.673 473.649 119.608 473.97 119.628 474.291C119.649 474.613 119.754 474.909 119.921 475.116C120.002 475.22 120.096 475.298 120.197 475.347C120.299 475.395 120.406 475.412 120.513 475.397C120.619 475.381 120.722 475.334 120.816 475.258C120.909 475.181 120.992 475.077 121.057 474.952L122.891 471.654C123.024 471.401 123.086 471.083 123.066 470.763C123.045 470.444 122.943 470.148 122.781 469.937C122.613 469.733 122.397 469.635 122.181 469.666C121.964 469.697 121.765 469.853 121.626 470.101L119.811 473.399Z" fill="white"/>
    <path d="M116.505 470.775C116.402 470.84 116.32 470.919 116.264 471.007C116.209 471.094 116.18 471.188 116.18 471.283C116.18 471.378 116.209 471.471 116.264 471.559C116.32 471.646 116.402 471.725 116.505 471.791C116.731 471.914 117.021 471.972 117.312 471.954C117.603 471.935 117.871 471.841 118.058 471.692L120.523 469.709C120.708 469.559 120.796 469.366 120.768 469.173C120.74 468.98 120.599 468.802 120.375 468.677C120.265 468.617 120.138 468.571 120.002 468.544C119.865 468.516 119.722 468.506 119.58 468.515C119.438 468.525 119.3 468.552 119.174 468.597C119.049 468.641 118.937 468.702 118.847 468.775L116.505 470.775Z" fill="white"/>
    <path d="M114.127 468.741C114.038 468.865 113.971 469.007 113.93 469.159C113.889 469.312 113.874 469.473 113.888 469.632C113.901 469.791 113.942 469.945 114.009 470.086C114.075 470.227 114.164 470.352 114.273 470.453C114.477 470.681 114.752 470.809 115.038 470.809C115.324 470.809 115.598 470.681 115.802 470.453L118.23 467.085C118.412 466.831 118.499 466.506 118.471 466.181C118.444 465.855 118.305 465.555 118.084 465.345C117.976 465.243 117.851 465.167 117.717 465.12C117.582 465.073 117.441 465.057 117.301 465.073C117.162 465.088 117.026 465.135 116.902 465.21C116.778 465.285 116.668 465.387 116.579 465.511L114.127 468.741Z" fill="white"/>
    <path d="M37.138 316.067C36.7483 319.099 36.9532 322.179 37.7407 325.13C38.5282 328.081 39.8827 330.844 41.726 333.259C43.5692 335.673 45.8645 337.692 48.4792 339.198C51.0938 340.704 53.9759 341.667 56.9587 342.032C59.9414 342.397 62.9657 342.157 65.8565 341.324C68.7473 340.492 71.4472 339.084 73.8002 337.183C76.1531 335.282 78.1124 332.925 79.5645 330.248C81.0167 327.571 81.933 324.627 82.2604 321.588C82.2604 321.588 94.0903 237.013 96.8959 219.927C99.7014 202.84 96.7322 188.538 77.9351 184.469C58.4367 180.257 46.256 194.797 44.783 209.361C43.3101 223.924 37.138 316.067 37.138 316.067Z" fill="#013EA5"/>
    <path d="M75.1259 317.693C75.0503 323.812 77.411 329.709 81.6887 334.089C85.9665 338.469 91.8109 340.972 97.9361 341.047C104.061 341.123 109.966 338.765 114.35 334.492C118.735 330.219 121.241 324.381 121.317 318.263C121.317 318.263 124.239 233.105 125.237 215.851C126.235 198.596 121.72 184.759 102.284 182.765C82.1353 180.701 71.3955 196.436 71.3955 211.056C71.3955 225.676 75.1259 317.693 75.1259 317.693Z" fill="#013EA5"/>
    <path d="M74.8403 317.88C74.8785 314.854 75.5251 311.864 76.7433 309.082C77.9616 306.301 79.7275 303.781 81.9404 301.667C84.1532 299.554 86.7696 297.888 89.6402 296.764C92.5107 295.64 95.5792 295.081 98.6705 295.118C101.762 295.156 104.815 295.789 107.657 296.982C110.498 298.174 113.071 299.903 115.23 302.07C117.389 304.236 119.091 306.798 120.239 309.608C121.386 312.419 121.958 315.423 121.919 318.449L117.076 440.39L79.0784 444.397L74.8403 317.88Z" fill="#013EA5"/>
    <path d="M37.2182 316.417C38.0015 310.369 41.1158 304.878 45.8847 301.136C50.6536 297.393 56.6918 295.703 62.6878 296.431C68.6838 297.159 74.1532 300.246 77.9081 305.024C81.663 309.801 83.4002 315.881 82.742 321.944L64.9806 443.249H27.7596L37.2182 316.417Z" fill="#013EA5"/>
    <path d="M81.7301 320.38L64.5054 442.101" stroke="#013EA5" stroke-width="0.75" stroke-miterlimit="10" stroke-linecap="round"/>
    <path d="M82.8787 321.528C82.8787 321.528 94.9451 237.46 97.8067 220.476" stroke="#F5F5F5" stroke-width="0.75" stroke-miterlimit="10" stroke-linecap="round"/>
    <path d="M123.069 192.917C123.069 192.917 123.069 216.878 123.069 218.195C123.069 219.512 111.55 230.811 96.2515 230.811C72.7282 230.811 44.5739 222.192 44.9887 216.578C45.2651 212.881 45.6107 192.917 45.6107 192.917H123.069Z" fill="#013EA5"/>
    <path d="M101.979 79.5031C102.673 79.5031 104.149 79.5031 105.451 79.9371C105.451 80.9789 103.136 81.818 101.979 82.1074C101.689 81.2393 101.284 79.5031 101.979 79.5031Z" fill="#013FA9"/>
    <path d="M103.381 60.5054H76.3705V92.2724H103.381V60.5054Z" fill="#FBBEAA"/>
    <path d="M76.394 60.5054H103.315V78.2285C102.139 78.3746 100.956 78.4495 99.7706 78.4529C90.4828 78.4529 80.0957 75.9178 76.3043 67.0563L76.394 60.5054Z" fill="#F18380"/>
    <path d="M117.337 36.9272C117.135 46.1028 117.337 53.3491 115.7 60.3486C114.062 67.3481 108.969 73.0689 97.7522 73.0689C86.535 73.0689 73.7475 69.4121 72.8501 55.3906C71.0105 53.394 68.0267 46.2823 67.9145 38.3181C67.8024 30.354 68.4081 13.5058 86.5799 10.9259C104.752 8.34592 117.853 15.0089 117.337 36.9272Z" fill="#FBBEAA"/>
    <path d="M107.867 44.1509C107.867 45.3848 108.608 46.3943 109.528 46.3943C110.447 46.3943 111.188 45.3848 111.188 44.1509C111.188 42.917 110.447 41.9075 109.528 41.9075C108.608 41.9075 107.867 42.8273 107.867 44.1509Z" fill="#403D4F"/>
    <path d="M87.6788 44.1509C87.6788 45.3848 88.4192 46.3943 89.339 46.3943C90.2588 46.3943 90.9991 45.3848 90.9991 44.1509C90.9991 42.917 90.2364 41.9075 89.339 41.9075C88.4416 41.9075 87.6788 42.8273 87.6788 44.1509Z" fill="#403D4F"/>
    <path d="M91.827 37.1065C91.6475 37.3084 90.4809 37.1065 89.5835 37.1065C88.6862 37.1065 86.9587 37.1065 86.9587 36.9046C86.9587 36.7027 87.8113 35.3117 90.0547 35.5585C91.5802 35.738 92.0289 36.7475 91.827 37.1065Z" fill="#403D4F"/>
    <path d="M107.531 37.1065C107.666 37.3084 108.675 37.1065 109.46 37.1065C110.246 37.1065 111.704 37.1065 111.704 36.9046C111.704 36.7027 110.986 35.3117 109.079 35.5585C107.531 35.738 107.239 36.7475 107.531 37.1065Z" fill="#403D4F"/>
    <path d="M100.802 53.4386C102.373 53.4386 103.629 52.4066 103.674 51.6663L103.158 45.3398C103.141 45.183 103.064 45.0391 102.942 44.9385C102.821 44.838 102.665 44.7888 102.507 44.8014C102.431 44.8071 102.356 44.8278 102.287 44.8625C102.219 44.8972 102.158 44.9451 102.108 45.0035C102.058 45.0619 102.02 45.1296 101.996 45.2027C101.972 45.2758 101.963 45.3529 101.969 45.4295L102.463 51.5317C102.236 51.7776 101.957 51.9696 101.646 52.0938C101.336 52.2181 101.002 52.2713 100.668 52.2496C100.589 52.2435 100.511 52.2533 100.436 52.2785C100.361 52.3036 100.293 52.3436 100.234 52.396C100.175 52.4484 100.128 52.5121 100.095 52.5834C100.061 52.6546 100.042 52.7318 100.04 52.8104C100.037 52.89 100.049 52.9694 100.077 53.044C100.105 53.1186 100.147 53.1871 100.201 53.2454C100.255 53.3038 100.32 53.3509 100.393 53.384C100.465 53.4172 100.543 53.4357 100.623 53.4386H100.802Z" fill="#F18380"/>
    <path d="M99.5222 57.925C101.407 58.0371 104.57 59.0915 104.592 59.9216C104.563 61.4628 103.927 62.9302 102.822 64.0054C101.718 65.0806 100.234 65.6769 98.6922 65.6648C91.7824 65.6648 91.8048 60.3254 92.0965 59.1589C92.3881 57.9923 96.0225 57.7006 99.5222 57.925Z" fill="#73102A"/>
    <path d="M92.0759 61.0212C93.9448 60.3443 95.9834 60.2957 97.8824 60.8828C99.7814 61.4699 101.437 62.6606 102.598 64.2742C101.525 65.2252 100.126 65.7238 98.694 65.6651C93.8034 65.6651 92.39 63.0179 92.0759 61.0212Z" fill="#D65155"/>
    <path d="M92.3677 58.7555C93.3324 57.9254 96.4956 57.7235 99.5242 57.9254C101.386 58.0376 104.527 59.0696 104.594 59.9221C100.484 60.5048 96.2938 60.105 92.3677 58.7555Z" fill="white"/>
    <path d="M84.1556 28.8056C84.1556 34.3245 81.9122 36.725 80.2296 37.7794C78.5471 38.8338 77.3132 39.8882 77.3132 41.7951V48.5254C77.3132 49.2882 76.8645 49.8715 76.2812 49.6695C75.6979 49.4676 73.5218 48.3684 73.5218 47.2691L66.7915 42.513C65.0408 38.3665 64.3917 33.8378 64.907 29.3665C65.1073 26.8594 65.8463 24.425 67.0737 22.2297C68.301 20.0344 69.9878 18.1299 72.0187 16.6463C72.0187 11.8677 76.5055 3.36515 85.9504 0C86.1814 1.72723 86.1814 3.47753 85.9504 5.20476C90.2353 1.32362 104.661 0.134607 109.843 1.92935C109.083 3.62919 107.983 5.15596 106.612 6.41621C113.691 8.05099 119.99 12.0759 124.448 17.8128C123.028 19.6647 121.231 21.194 119.176 22.2997C121.533 25.5427 122.932 29.3827 123.214 33.3822C118.955 32.9879 114.779 31.9517 110.83 30.3087C111.051 32.2804 110.937 34.2752 110.494 36.209C106.007 35.9398 97.5265 31.3632 95.126 27.6839C95.5016 30.6805 95.3344 33.7203 94.6325 36.6576C90.4617 35.095 86.826 32.3702 84.1556 28.8056Z" fill="#403D4F"/>
    <path d="M73.3187 48.4133C73.3187 45.8557 72.8027 42.0868 69.1908 41.997C65.5789 41.9073 65.0853 44.6443 65.1975 48.9517C65.3096 53.2591 69.6843 56.9158 73.5206 55.4352L73.3187 48.4133Z" fill="#FBBEAA"/>
    <path d="M68.0015 51.5092C68.1562 51.4766 68.2929 51.3869 68.3844 51.258C68.4759 51.1291 68.5154 50.9705 68.4951 50.8137C68.4956 50.6899 68.5292 50.5685 68.5923 50.4621C68.6554 50.3556 68.7457 50.2679 68.8541 50.208C69.0875 50.0555 69.3604 49.9743 69.6392 49.9743C69.9181 49.9743 70.191 50.0555 70.4244 50.208C70.5199 50.2631 70.6283 50.2921 70.7385 50.2921C70.8488 50.2921 70.9571 50.2631 71.0526 50.208C71.15 50.1524 71.2293 50.07 71.281 49.9705C71.3327 49.871 71.3547 49.7587 71.3443 49.6471C71.0077 46.0352 68.7194 45.3622 68.6297 45.3397C68.5531 45.3161 68.4725 45.3085 68.3928 45.3174C68.3131 45.3264 68.2362 45.3516 68.1667 45.3916C68.0972 45.4316 68.0367 45.4855 67.989 45.5499C67.9413 45.6143 67.9074 45.6879 67.8894 45.766C67.848 45.9147 67.8672 46.0738 67.9429 46.2084C68.0186 46.343 68.1446 46.442 68.2932 46.4839C68.7391 46.6901 69.1276 47.0024 69.4248 47.3935C69.7221 47.7846 69.9189 48.2425 69.9982 48.7273C69.3834 48.6272 68.7532 48.7548 68.2259 49.0863C67.9146 49.262 67.6628 49.5267 67.5029 49.8465C67.3431 50.1663 67.2823 50.5265 67.3285 50.881C67.3206 50.9694 67.3329 51.0585 67.3646 51.1415C67.3963 51.2244 67.4466 51.299 67.5115 51.3596C67.5764 51.4202 67.6543 51.4652 67.7392 51.4911C67.8241 51.517 67.9139 51.5232 68.0015 51.5092Z" fill="#F18380"/>
    <path d="M193.957 94.6125L182.822 164.515C180.985 173.284 183.824 181.218 193.957 182.61C195.828 182.853 197.728 182.714 199.543 182.201C201.359 181.688 203.05 180.811 204.516 179.623C205.982 178.436 207.191 176.963 208.07 175.295C208.949 173.626 209.48 171.796 209.63 169.915L213.027 94.7517C213.918 87.6529 210.828 82.9204 205.427 82.3358C198.801 81.612 195.294 85.5372 193.957 94.6125Z" fill="#FBBEAA"/>
    <path d="M203.005 156.776L123.054 96.0321C113.728 90.0747 107.381 93.2483 102.425 99.6233C100.162 102.709 99.1132 106.519 99.4776 110.328C99.8421 114.137 101.595 117.679 104.402 120.279L184.159 179.046C186.969 181.42 190.588 182.618 194.259 182.389C197.931 182.161 201.373 180.525 203.868 177.821L204.23 177.432C205.555 176.019 206.577 174.351 207.235 172.53C207.894 170.709 208.174 168.773 208.06 166.84C207.945 164.907 207.438 163.018 206.569 161.287C205.7 159.557 204.487 158.022 203.005 156.776Z" fill="#FBBEAA"/>
    <path d="M194.291 92.7468C194.405 90.2382 193.734 87.7565 192.37 85.648C190.27 83.2129 188.696 80.3694 187.749 77.2965C187.02 74.4441 185.855 71.721 184.297 69.2233C183.183 67.6922 181.513 66.4395 181.513 65.2703C181.513 64.1011 183.74 61.8462 186.913 62.4865C188.273 62.9099 189.522 63.6287 190.571 64.5912C191.62 65.5537 192.444 66.7362 192.982 68.0542C193.286 67.2512 193.465 66.4061 193.511 65.5487L194.207 48.4838C194.218 48.0414 194.317 47.6056 194.499 47.2021C194.68 46.7987 194.941 46.4357 195.266 46.1347C195.59 45.8337 195.971 45.6008 196.387 45.4496C196.803 45.2984 197.245 45.2321 197.687 45.2545C198.39 45.2845 199.067 45.5343 199.621 45.9687C200.176 46.4032 200.58 47.0004 200.777 47.6764V46.897C200.884 46.0674 201.301 45.3091 201.944 44.7742C202.587 44.2393 203.409 43.9674 204.244 44.0132C205.079 44.059 205.866 44.4191 206.447 45.0211C207.027 45.6232 207.359 46.4226 207.375 47.2589V49.6252C207.653 48.8956 208.185 48.2906 208.873 47.9203C209.56 47.55 210.358 47.4391 211.121 47.6078C211.883 47.7765 212.56 48.2135 213.027 48.8393C213.494 49.4651 213.721 50.238 213.666 51.0171V52.5203C213.966 51.9937 214.412 51.5659 214.951 51.289C215.49 51.0122 216.098 50.8983 216.701 50.9613C217.526 51.0661 218.278 51.4879 218.797 52.1374C219.317 52.7869 219.563 53.6131 219.484 54.4411L218.12 68.8336C217.227 76.9479 215.549 84.9564 213.109 92.7468C213.08 94.0475 212.779 95.3277 212.225 96.505C211.671 97.6823 210.877 98.7308 209.894 99.5829C208.91 100.435 207.76 101.072 206.516 101.453C205.272 101.834 203.962 101.95 202.67 101.794C201.501 101.833 200.337 101.62 199.258 101.17C198.178 100.72 197.208 100.043 196.414 99.1846C195.619 98.3265 195.018 97.3075 194.652 96.1967C194.285 95.0859 194.162 93.9093 194.291 92.7468Z" fill="#FBBEAA"/>
    <path d="M116.455 91.6891L185.643 138.353C185.352 140.74 190.959 91.6891 190.959 91.6891L216.568 94.0794C216.568 94.0794 215.072 144.019 211.303 170.393C209.808 180.86 201.096 184.83 190.765 182.576C185.665 181.463 180.863 179.37 176.591 176.371C158.23 163.484 106.719 127.184 102.508 122.618C95.2419 114.739 95.2419 108.838 99.4177 102.351C103.593 95.8649 112.53 90.7147 116.455 91.6891Z" fill="#013EA5"/>
    <path d="M194.848 70.4764C193.79 70.4764 193.706 69.8083 193.233 68.5834C195.599 68.5834 202.475 69.0288 205.482 74.8192C202.447 70.6435 196.629 70.4764 194.848 70.4764ZM200.248 48.4563C200.248 48.4563 200.081 49.4306 199.914 50.8504C199.914 51.5742 199.747 52.4371 199.691 53.328C199.636 54.2188 199.552 55.1931 199.469 56.1118C199.469 58.0605 199.33 59.9814 199.33 61.429C199.33 62.8766 199.33 63.8509 199.33 63.8509C199.329 63.8972 199.339 63.9431 199.357 63.9855C199.376 64.028 199.403 64.0661 199.437 64.0975C199.471 64.1289 199.511 64.153 199.555 64.168C199.599 64.1831 199.645 64.1888 199.691 64.1849C199.77 64.181 199.845 64.1517 199.905 64.1015C199.965 64.0513 200.008 63.9829 200.026 63.9066C200.026 63.9066 200.193 62.9322 200.332 61.4846C200.471 60.037 200.694 58.1162 200.777 56.1953C200.777 55.221 200.777 54.2466 200.777 53.4115C200.777 52.5763 200.777 51.6577 200.777 50.9339C200.777 49.4585 200.777 48.5119 200.777 48.5119C200.777 48.4656 200.768 48.4198 200.749 48.3773C200.731 48.3349 200.704 48.2967 200.67 48.2653C200.636 48.2339 200.595 48.2099 200.552 48.1948C200.508 48.1798 200.461 48.174 200.415 48.1779C200.362 48.2086 200.318 48.2535 200.289 48.3075C200.259 48.3615 200.245 48.4226 200.248 48.4841V48.4563ZM206.707 50.405C206.707 50.405 206.54 51.2401 206.345 52.465C206.345 53.1053 206.15 53.829 206.066 54.6085C205.983 55.388 205.899 56.2232 205.816 57.0583C205.816 58.7286 205.621 60.3989 205.593 61.6516C205.565 62.9044 205.593 63.7674 205.593 63.7674C205.597 63.8113 205.609 63.8541 205.629 63.8933C205.649 63.9325 205.677 63.9674 205.71 63.9958C205.744 64.0243 205.783 64.0458 205.825 64.0592C205.867 64.0725 205.911 64.0775 205.955 64.0736C206.03 64.0684 206.101 64.0381 206.156 63.9876C206.212 63.9371 206.249 63.8693 206.261 63.7952C206.261 63.7952 206.428 62.96 206.623 61.7351C206.818 60.5103 206.985 58.8122 207.124 57.1697C207.124 56.3345 207.124 55.4994 207.291 54.7199C207.458 53.9404 207.291 53.1888 207.291 52.5485C207.291 51.2958 207.291 50.4606 207.291 50.4606C207.291 50.4143 207.282 50.3685 207.264 50.3261C207.245 50.2836 207.218 50.2454 207.184 50.214C207.15 50.1826 207.11 50.1586 207.066 50.1436C207.022 50.1285 206.976 50.1227 206.929 50.1266C206.868 50.1521 206.814 50.1942 206.775 50.2482C206.736 50.3023 206.712 50.3661 206.707 50.4328V50.405ZM212.943 53.0496C212.943 53.0496 212.776 53.7455 212.553 54.8034C212.553 55.3045 212.33 55.917 212.247 56.5851C212.163 57.2532 212.052 57.9492 211.94 58.6451C211.746 60.0649 211.662 61.4289 211.606 62.5425C211.551 63.656 211.606 64.3242 211.606 64.3242C211.606 64.3705 211.616 64.4163 211.634 64.4587C211.653 64.5012 211.68 64.5394 211.714 64.5708C211.748 64.6022 211.788 64.6262 211.832 64.6412C211.876 64.6563 211.922 64.6621 211.968 64.6582C212.039 64.6545 212.107 64.6282 212.162 64.5831C212.217 64.5381 212.257 64.4766 212.274 64.4077C212.274 64.4077 212.469 63.7117 212.664 62.6817C212.859 61.6517 213.137 60.2041 213.304 58.8121C213.304 58.0883 213.444 57.3924 213.499 56.7243C213.555 56.0561 213.499 55.4437 213.499 54.9148C213.499 53.8569 213.499 53.1331 213.499 53.1331C213.499 53.0868 213.49 53.041 213.471 52.9985C213.453 52.9561 213.426 52.9179 213.392 52.8865C213.358 52.855 213.318 52.8311 213.274 52.816C213.23 52.801 213.184 52.7952 213.137 52.799C213.086 52.8277 213.042 52.8676 213.008 52.9159C212.974 52.9641 212.952 53.0193 212.943 53.0774V53.0496Z" fill="#F18380"/>
    <path d="M186.185 132.71L187.487 122.293L215.266 124.463L214.832 134.88L186.185 132.71Z" fill="#CFD1CE"/>
    <path d="M105.412 85.1372C105.412 85.1372 122.221 94.8427 124.844 96.5412C127.467 98.2397 130.431 100.86 129.896 107.945C129.362 115.03 127.103 210.404 127.103 210.404C118.476 211.864 93.2134 211.864 93.2134 211.864H90.9168H89.1943H86.8977H85.1752H83.4527C83.4527 211.864 46 208.681 45.2471 208.244C44.4941 207.807 43.7897 207.346 43.8383 206.521C43.8868 205.696 44.3726 108.746 44.6884 104.476C44.7509 102.189 45.4713 99.9679 46.7635 98.079C48.0557 96.1901 49.8651 94.7128 51.9753 93.8237C57.0518 91.5671 76.1192 83.8269 76.1192 83.8269L92.1338 85.1372H105.412Z" fill="#034CC9"/>
    <path d="M105.413 85.1372C105.413 85.1372 122.221 94.8427 124.844 96.5412C127.468 98.2397 130.431 100.86 129.897 107.945C129.362 115.03 127.103 210.404 127.103 210.404C118.476 211.864 104.697 211.864 104.697 211.864H102.4H100.678H98.3809H96.6585H94.936C94.936 211.864 97.6743 208.681 96.9213 208.244C96.1684 207.807 95.464 207.346 95.5125 206.521C95.5611 205.696 96.0469 108.746 96.3627 104.476C96.4252 102.189 97.1456 99.9679 98.4378 98.079C99.73 96.1901 101.539 94.7128 103.65 93.8237C108.726 91.5671 76.1193 83.8269 76.1193 83.8269L92.1339 85.1372H105.413Z" fill="#0045BA"/>
    <path d="M107.32 85.277C107.32 85.277 125.903 96.0185 128.803 97.8983C131.703 99.7781 129.385 103.922 129.385 111.386C129.385 121.147 127.663 121.721 127.663 121.721C121.852 124.857 119.31 122.411 112.905 124.019C109.79 124.368 107.374 124.448 105.279 122.407C103.184 120.367 96.6585 121.147 96.6585 121.147C96.6585 121.147 86.8304 119.856 82.2384 122.407C81.1401 123.173 79.8989 123.711 78.5888 123.988C77.2786 124.264 76.2485 124.244 74.9342 123.988C68.2744 122.618 41.6354 114.969 40.8029 114.486C39.9705 114.002 39.1917 113.492 39.2454 112.579C39.2991 111.666 39.8362 111.406 40.1853 106.68C40.2544 104.148 41.0509 101.691 42.4795 99.6002C43.9081 97.5097 45.9085 95.8747 48.2415 94.8907C53.8539 92.3933 74.9342 83.8269 74.9342 83.8269L92.6394 84.4011L107.32 85.277Z" fill="#9A99A1"/>
    <path d="M94.166 81.2393C86.1795 81.2393 78.9742 77.7669 76.3699 76.0307V83.8436C76.6592 84.2777 78.8874 85.6666 85.485 87.7501C92.0826 89.8335 101.545 89.0523 105.451 87.7501V79.9371C105.451 80.3712 104.149 81.2393 94.166 81.2393Z" fill="#034CC9"/>
    <path d="M94.6 211.455C96.8181 210.711 98.7593 209.277 100.158 207.35C101.556 205.423 102.344 203.096 102.413 200.689V81.6733H94.6V211.455Z" fill="#034CC9"/>
    <path d="M129.385 124.644H90.0067V115.963L129.385 115.98C129.385 119.999 129.385 121.147 129.385 124.644Z" fill="#D3D4D2"/>
    <path d="M58.1708 115.963H97.8193V124.644H57.3579C57.8866 120.738 58.1708 119.002 58.1708 115.963Z" fill="#CFD1CE"/>
    <g style="mix-blend-mode:multiply" opacity="0.4">
        <path d="M93.7321 88.8744L94.6002 89.0522V211.455H93.7321V88.8744Z" fill="#013FA9"/>
    </g>
    <path d="M41.7008 99.6537C35.6241 107.467 0.882812 202.938 0.882812 202.938C33.4368 192.52 29.9651 164.387 47.6703 167.366C47.6703 167.366 68.0869 119.446 68.8663 115.159C69.6798 111.779 69.3147 108.223 67.8314 105.079C66.3481 101.935 63.8355 99.392 60.7097 97.8709C51.9963 93.4168 47.7776 91.8405 41.7008 99.6537Z" fill="#0045BA"/>
    <path d="M59.178 144.778C64.1054 139.795 73.3199 129.049 76.4378 126.433C79.5208 124.11 82.8888 122.192 86.4596 120.726C89.1687 119.818 91.9694 119.211 94.8112 118.916C96.7877 118.666 97.595 119.25 97.595 120.447C97.5453 121.161 97.3181 121.85 96.934 122.453C96.5499 123.056 96.0211 123.553 95.3957 123.899H99.0426C100.295 123.899 101.103 124.902 100.518 126.516C99.987 127.583 99.2281 128.52 98.2948 129.261C97.3615 130.002 96.2767 130.528 95.1173 130.803C95.1173 130.803 100.045 131.277 101.297 131.527C102.55 131.778 102.94 132.251 102.94 133.448C102.929 134.275 102.699 135.084 102.274 135.793C101.848 136.502 101.243 137.086 100.518 137.485C98.7445 138.204 96.862 138.618 94.9503 138.709C94.9503 138.709 101.047 140.24 102.272 140.686C103.497 141.131 103.636 141.939 102.996 142.996C102.631 143.742 102.104 144.396 101.454 144.911C100.803 145.427 100.046 145.79 99.2375 145.975C96.9269 146.588 95.3679 145.585 94.5328 145.725C92.7384 146.303 90.9813 146.991 89.2714 147.785C86.7036 150.341 83.5641 152.25 80.1125 153.352C77.5433 154.431 75.1867 155.958 73.1529 157.862C72.2056 158.751 71.0896 159.441 69.8709 159.891C68.6523 160.341 67.3558 160.543 66.058 160.483C64.7603 160.423 63.4877 160.104 62.3155 159.544C61.1433 158.984 60.0954 158.194 59.2337 157.222C54.7796 152.489 55.5312 148.536 59.178 144.778Z" fill="#FBBEAA"/>
    <path d="M75.5566 161.723L30.7419 212.117C25.3716 219.275 12.8223 223.208 5.15482 216.577C3.73692 215.335 2.58612 213.817 1.77224 212.117C0.95835 210.417 0.498322 208.569 0.420082 206.685C0.341841 204.802 0.64701 202.922 1.31707 201.16C1.98713 199.398 3.00811 197.791 4.31811 196.435L58.6285 139.587L75.5566 161.723Z" fill="#0045BA"/>
    <path d="M94.7839 123.927C94.7918 123.973 94.7899 124.02 94.7784 124.066C94.767 124.111 94.7462 124.153 94.7173 124.19C94.6885 124.227 94.6522 124.257 94.6109 124.279C94.5696 124.301 94.5243 124.314 94.4777 124.317L92.1949 124.54H91.0814C90.6917 124.54 90.3298 124.679 89.94 124.707C89.5283 124.83 89.1278 124.988 88.743 125.18L87.4624 125.709C85.7364 126.405 84.0104 127.045 82.7298 127.518C81.4493 127.991 80.5584 128.27 80.5584 128.27C80.4878 128.3 80.4087 128.302 80.3365 128.276C80.2644 128.25 80.2045 128.198 80.1687 128.131C80.1168 128.063 80.0887 127.98 80.0887 127.894C80.0887 127.809 80.1168 127.725 80.1687 127.657L82.2566 126.572L84.428 125.542C85.2075 125.18 86.0704 124.818 86.9334 124.484L88.2418 123.983C88.6626 123.793 89.1008 123.643 89.5502 123.537L90.8865 123.398H92.0279H93.726H94.3663C94.4364 123.343 94.5257 123.318 94.6145 123.328C94.7032 123.338 94.7842 123.384 94.8396 123.454C94.895 123.524 94.9202 123.613 94.9098 123.702C94.8993 123.791 94.854 123.872 94.7839 123.927ZM94.2549 130.636H93.7539C93.3371 130.599 92.9178 130.599 92.5011 130.636L91.6381 130.775C91.32 130.815 91.0041 130.871 90.6916 130.942L88.7986 131.555C87.5181 131.972 86.2653 132.501 85.3188 132.891C85.3188 132.891 85.0126 132.891 85.0404 133.03H84.7064L84.2053 133.169H83.8991H83.732C83.648 133.189 83.5749 133.241 83.5282 133.314C83.4815 133.387 83.4648 133.474 83.4815 133.559C83.4936 133.626 83.5275 133.687 83.5779 133.732C83.6283 133.777 83.6923 133.805 83.7599 133.81H85.1796H85.625C86.5994 133.559 87.9078 133.17 89.1883 132.724L91.0535 132.028L91.9165 131.805L92.6681 131.583C93.0526 131.469 93.4429 131.376 93.8374 131.304L94.3107 131.165C94.3527 131.152 94.3919 131.131 94.4259 131.104C94.4598 131.076 94.488 131.041 94.5087 131.003C94.5294 130.964 94.5422 130.921 94.5464 130.877C94.5506 130.834 94.5462 130.79 94.5333 130.748C94.5004 130.707 94.4575 130.675 94.4087 130.655C94.36 130.636 94.307 130.629 94.2549 130.636ZM94.2549 138.542H93.2249C92.9465 138.542 92.5847 138.542 92.2228 138.737L91.0814 139.099C90.3632 139.352 89.6652 139.659 88.9935 140.018C88.6847 140.163 88.3869 140.33 88.1027 140.519C88.0459 140.585 88.0146 140.669 88.0146 140.755C88.0146 140.842 88.0459 140.926 88.1027 140.992C88.1826 141.077 88.2925 141.127 88.4089 141.131L89.4389 140.964C90.0236 140.825 90.7752 140.602 91.5268 140.352L92.6125 139.906L93.559 139.544C93.8741 139.405 94.1809 139.247 94.4777 139.071C94.5564 139.025 94.6145 138.95 94.6404 138.862C94.6662 138.774 94.6578 138.68 94.6168 138.598C94.5343 138.545 94.4349 138.525 94.3384 138.542H94.2549Z" fill="#F18380"/>
    <path d="M22.6023 174.745L31.7174 167.366L49.9476 190.371L42.5687 199.052L22.6023 174.745Z" fill="#CFD1CE"/>
</svg>
