<svg width="190" height="514" viewBox="0 0 190 514" fill="none" xmlns="http://www.w3.org/2000/svg">
<path d="M102.776 75.7336C102.175 75.7336 100.898 75.7336 99.7717 76.1091C99.7717 77.0104 101.774 77.7363 102.776 77.9867C103.026 77.2357 103.377 75.7336 102.776 75.7336Z" fill="#013FA9"/>
<path d="M121.901 19.5366C120.825 15.6568 121.221 11.5163 123.012 7.91032C124.803 4.30437 127.863 1.48724 131.604 0C133.091 1.48676 132.335 6.23397 132.335 6.23397C137.588 3.77213 143.48 3.01514 149.184 4.06903C149.081 7.71657 147.706 11.2133 145.298 13.9547C148.217 14.2489 151.024 15.2323 153.488 16.8239C153.115 18.543 152.338 20.1489 151.222 21.5093C150.107 22.8697 148.684 23.9458 147.072 24.649C148.714 26.5713 149.844 28.877 150.358 31.3524C147.556 32.1604 144.596 32.2501 141.751 31.6133C142.21 33.0528 142.396 34.5656 142.298 36.0736C139.596 36.4702 136.234 33.5721 133.62 32.7831C131.005 31.9942 128.201 29.641 126.169 27.816C123.474 24.3078 122.668 23.8935 121.901 19.5366Z" fill="#E69D7E"/>
<path d="M136.103 31.293C136.521 38.0486 142.69 50.6285 141.568 59.21C140.003 71.3128 125.031 71.1824 119.241 71.1824H110.659V33.6221L136.103 31.293Z" fill="#E69D7E"/>
<path d="M124.875 57.2794V79.4243C124.875 79.4243 123.127 87.0407 111.442 87.0407C109.117 87.2368 106.805 86.5352 104.981 85.0799C103.157 83.6247 101.959 81.5262 101.634 79.2157V57.3055L124.875 57.2794Z" fill="#FBBEAA"/>
<path d="M101.634 75.7205C108.964 79.2157 119.684 76.0856 124.875 66.4869V57.2794H101.634V75.7205Z" fill="#F18380"/>
<path d="M87.0796 40.2726C86.9838 45.5691 87.2278 50.8662 87.8099 56.1314C88.7489 63.6696 91.4355 72.0163 104.738 72.0163C118.041 72.0163 124.849 65.991 127.692 56.1314C129.413 50.1844 132.908 41.3681 131.474 31.1955C130.039 21.023 123.91 14.3717 109.459 13.9804C95.009 13.5891 85.5928 20.084 87.0796 40.2726Z" fill="#FBBEAA"/>
<path d="M115.276 44.8114C115.187 45.2044 114.99 45.5645 114.706 45.8502C114.421 46.1358 114.062 46.3354 113.67 46.426C113.277 46.5165 112.867 46.4944 112.487 46.3621C112.106 46.2297 111.771 45.9926 111.519 45.678C111.267 45.3634 111.11 44.9841 111.064 44.5838C111.018 44.1835 111.087 43.7785 111.261 43.4153C111.436 43.0522 111.709 42.7458 112.05 42.5313C112.391 42.3168 112.786 42.203 113.189 42.203C113.498 42.2354 113.798 42.3289 114.07 42.4779C114.343 42.6269 114.583 42.8286 114.777 43.0713C114.971 43.3139 115.115 43.5926 115.201 43.8913C115.287 44.19 115.312 44.5028 115.276 44.8114Z" fill="#403D4F"/>
<path d="M95.8959 44.8114C95.8074 45.2044 95.6098 45.5645 95.3256 45.8502C95.0415 46.1358 94.6825 46.3354 94.2899 46.426C93.8973 46.5165 93.4872 46.4944 93.1067 46.3621C92.7261 46.2297 92.3907 45.9926 92.139 45.678C91.8873 45.3634 91.7296 44.9841 91.684 44.5838C91.6385 44.1835 91.7069 43.7785 91.8814 43.4153C92.0559 43.0522 92.3295 42.7458 92.6705 42.5313C93.0116 42.3168 93.4063 42.203 93.8092 42.203C94.1182 42.2354 94.4177 42.3289 94.6903 42.4779C94.963 42.6269 95.2033 42.8286 95.3974 43.0713C95.5915 43.3139 95.7356 43.5926 95.8211 43.8913C95.9067 44.19 95.9321 44.5028 95.8959 44.8114Z" fill="#403D4F"/>
<path d="M108.963 37.4298C108.963 37.4298 108.963 37.4298 109.198 37.1951C109.407 37.0075 109.634 36.8415 109.876 36.6995C110.2 36.5005 110.552 36.351 110.92 36.2561C111.33 36.1043 111.761 36.0163 112.198 35.9953C112.622 35.9429 113.052 35.9429 113.476 35.9953C113.836 36.0066 114.194 36.0502 114.545 36.1257L115.563 36.4126C115.731 36.4667 115.871 36.5841 115.954 36.74C116.036 36.8958 116.055 37.0778 116.006 37.2473C115.967 37.3827 115.884 37.5017 115.771 37.5864C115.658 37.671 115.521 37.7168 115.38 37.7168H114.363C114.06 37.6777 113.753 37.6777 113.45 37.7168C113.103 37.6909 112.754 37.6909 112.407 37.7168C112.067 37.7168 111.728 37.7168 111.415 37.8994C111.102 38.0819 110.842 38.108 110.581 38.1341L110.033 38.3167H109.798C109.635 38.3875 109.451 38.3916 109.286 38.3282C109.12 38.2648 108.985 38.139 108.911 37.9776C108.866 37.8889 108.842 37.7905 108.842 37.6907C108.842 37.5909 108.866 37.4925 108.911 37.4038L108.963 37.4298Z" fill="#403D4F"/>
<path d="M96.287 38.4209H96.1305L95.7132 38.2644H95.4263H95.1393C94.9088 38.1882 94.6736 38.1273 94.4351 38.0818C94.1931 38.0433 93.9467 38.0433 93.7047 38.0818C93.4804 38.0429 93.251 38.0429 93.0266 38.0818H92.1919C92.0166 38.0751 91.8507 38.0007 91.7291 37.8742C91.6075 37.7478 91.5397 37.5791 91.5398 37.4037C91.5449 37.2743 91.5868 37.149 91.6607 37.0427C91.7347 36.9364 91.8376 36.8535 91.9571 36.8038L92.7657 36.5168C93.0608 36.4204 93.3684 36.3677 93.6787 36.3603C94.0245 36.3085 94.3761 36.3085 94.722 36.3603C95.4071 36.429 96.0585 36.6914 96.6 37.1168C96.7965 37.2473 96.965 37.4158 97.0956 37.6123C97.226 37.7688 97.226 37.821 97.2521 37.821V38.0818C97.2665 38.2047 97.247 38.3291 97.1958 38.4417C97.1446 38.5543 97.0636 38.6507 96.9615 38.7205C96.8594 38.7904 96.7402 38.831 96.6167 38.8379C96.4932 38.8449 96.3702 38.8179 96.261 38.76L96.287 38.4209Z" fill="#403D4F"/>
<path d="M101.634 53.6798C101.196 53.6899 100.762 53.6041 100.361 53.4284C99.9596 53.2526 99.6019 52.9912 99.3127 52.6625C99.1995 52.5504 99.1109 52.416 99.0525 52.2678C98.9942 52.1196 98.9673 51.9609 98.9736 51.8018C98.9736 51.5148 99.4431 47.9153 99.5996 46.585C99.5996 46.4536 99.6518 46.3275 99.7447 46.2346C99.8377 46.1417 99.9637 46.0894 100.095 46.0894C100.227 46.0894 100.353 46.1417 100.446 46.2346C100.539 46.3275 100.591 46.4536 100.591 46.585C100.591 46.7937 100.043 51.5148 99.9648 51.8018C100.181 52.0342 100.444 52.2192 100.736 52.3449C101.028 52.4706 101.342 52.5343 101.66 52.5321C101.792 52.5321 101.918 52.5843 102.011 52.6772C102.104 52.7702 102.156 52.8962 102.156 53.0277C102.156 53.1591 102.104 53.2852 102.011 53.3781C101.918 53.4711 101.792 53.5233 101.66 53.5233L101.634 53.6798Z" fill="#F18380"/>
<path d="M99.1822 58.8183C98.191 59.0791 97.8519 60.5398 98.4258 62.2352C99.0257 63.4015 99.9991 64.3332 101.19 64.8816C102.382 65.43 103.723 65.5636 104.999 65.2609C105.691 65.2245 106.369 65.0505 106.994 64.7489C107.618 64.4474 108.176 64.0244 108.635 63.5047C109.094 62.985 109.445 62.3789 109.667 61.7221C109.889 61.0652 109.978 60.3707 109.929 59.679C109.929 58.5574 109.172 57.8793 107.711 57.8793C104.847 57.9543 101.994 58.2684 99.1822 58.8183Z" fill="#73102A"/>
<path d="M109.981 59.6789C109.981 59.6789 109.981 59.5224 109.981 59.4181C108.068 58.9696 106.056 59.2571 104.346 60.2236C102.635 61.1901 101.351 62.7648 100.748 64.6348C102.098 65.2961 103.616 65.5325 105.104 65.313C105.796 65.2702 106.473 65.0896 107.095 64.7819C107.717 64.4741 108.272 64.0454 108.726 63.5207C109.18 62.996 109.525 62.386 109.741 61.7263C109.956 61.0666 110.038 60.3706 109.981 59.6789Z" fill="#D65155"/>
<path d="M100.069 60.4096C103.364 60.4366 106.642 59.9256 109.772 58.8968C109.58 58.5435 109.285 58.257 108.926 58.0753C108.568 57.8937 108.162 57.8253 107.764 57.8795C104.9 57.9545 102.046 58.2686 99.2345 58.8185C98.9617 58.9102 98.7222 59.0805 98.5459 59.3078C98.3695 59.5352 98.2642 59.8096 98.2433 60.0966C98.8284 60.309 99.4467 60.415 100.069 60.4096Z" fill="white"/>
<path d="M112.876 27.9614C112.876 27.9614 117.493 43.9245 128.526 48.124C129.807 48.1399 131.073 47.8472 132.218 47.2706C133.362 46.6941 134.35 45.8505 135.099 44.8114C138.03 38.6477 135.027 31.5138 133.62 24.8357C131.768 16.6976 125.814 6.39031 107.973 8.84216C98.452 7.01631 94.1743 10.2437 87.0796 19.8686C79.9849 29.4934 81.3673 41.264 87.0796 43.4811C92.6981 40.0983 98.0834 36.3426 103.199 32.2391C102.417 34.691 101.582 39.8816 102.417 39.8816C107.238 37.3143 110.957 33.0758 112.876 27.9614Z" fill="#E69D7E"/>
<path d="M127.17 50.0543C127.379 46.5069 128.344 42.2292 132.648 42.9856C137.864 43.7421 138.23 57.4359 127.431 55.7927L127.17 50.0543Z" fill="#FBBEAA"/>
<path d="M133.091 50.9674C133.002 50.9636 132.914 50.9378 132.837 50.8923C132.76 50.8468 132.695 50.783 132.648 50.7066C132.54 50.4759 132.371 50.2788 132.16 50.1365C131.948 49.9941 131.702 49.9116 131.448 49.898C131.15 49.901 130.858 49.9791 130.598 50.125C130.338 50.2708 130.119 50.4798 129.961 50.7327C129.903 50.8265 129.814 50.8981 129.71 50.9359C129.606 50.9737 129.493 50.9756 129.387 50.9413C129.287 50.898 129.203 50.8244 129.147 50.7308C129.091 50.6373 129.065 50.5284 129.074 50.4197C129.108 49.3198 129.445 48.2505 130.048 47.33C130.651 46.4094 131.496 45.6734 132.491 45.203C132.554 45.1784 132.621 45.1668 132.688 45.1689C132.755 45.171 132.821 45.1868 132.882 45.2153C132.943 45.2438 132.998 45.2844 133.043 45.3346C133.087 45.3848 133.121 45.4437 133.143 45.5075C133.164 45.5713 133.172 45.6388 133.166 45.7058C133.161 45.7729 133.141 45.8381 133.11 45.8974C133.078 45.9568 133.035 46.0091 132.982 46.0511C132.93 46.0932 132.869 46.1241 132.804 46.142C132.222 46.4284 131.704 46.8306 131.283 47.3239C130.861 47.8173 130.545 48.3914 130.352 49.0112C130.715 48.8562 131.106 48.7764 131.5 48.7764C131.922 48.8163 132.327 48.9583 132.682 49.19C133.036 49.4218 133.329 49.7364 133.535 50.1067C133.567 50.1631 133.588 50.2255 133.597 50.2902C133.605 50.3549 133.601 50.4207 133.584 50.4837C133.567 50.5467 133.538 50.6057 133.498 50.6574C133.458 50.7091 133.409 50.7524 133.352 50.7848C133.288 50.8727 133.196 50.9369 133.091 50.9674Z" fill="#F18380"/>
<path d="M115.831 32.6494C116.973 36.0748 118.752 39.2532 121.074 42.0175H126.757C126.757 42.0175 131.162 36.9036 131.492 36.4848C131.97 35.9754 132.333 35.3695 132.557 34.708C132.781 34.0464 132.861 33.3445 132.792 32.6494H115.831Z" fill="#676575"/>
<path d="M121.074 42.0176C121.074 53.0389 124.715 68.7096 107.592 72.0237C107.592 72.0237 118.563 71.4444 122.77 66.044C126.977 60.6436 126.756 41.9294 126.756 41.9294L121.074 42.0176Z" fill="#827F94"/>
<path d="M136.866 34.0602H81.2719C80.8487 29.0344 81.326 23.9732 82.6816 19.1154C84.8842 12.8112 89.2895 5.0963 107.726 5.0963C126.162 5.0963 132.615 13.737 133.915 20.2836C135.214 26.8303 134.598 28.9684 135.369 29.6738C136.14 30.3791 136.866 30.4012 136.866 31.4592V34.0602Z" fill="#EFEFEF"/>
<path d="M107.726 5.09642C103.705 5.02334 99.6944 5.51301 95.8094 6.55122H95.6332L94.9504 6.77165C93.0893 7.34516 91.3174 8.17612 89.6861 9.24042C88.5784 13.8116 88.2875 18.5428 88.8271 23.2154H94.9504L103.1 21.8267C103.1 21.8267 105.677 8.60118 114.84 5.51522C112.482 5.20547 110.104 5.06551 107.726 5.09642Z" fill="#D8D8D8"/>
<path d="M109.004 2.98029H96.5587C95.2371 2.98029 88.8274 7.96191 88.8274 25.0229H102.99C102.99 19.9972 103.871 6.83774 111.801 5.18454C111.779 5.22863 110.589 2.98029 109.004 2.98029Z" fill="#EFEFEF"/>
<path d="M72.3954 34.0602V30.8419C72.397 30.3806 72.4938 29.9246 72.6797 29.5025C72.8655 29.0804 73.1365 28.7012 73.4756 28.3887C73.8147 28.0762 74.2147 27.8372 74.6504 27.6866C75.0861 27.536 75.5482 27.4771 76.0077 27.5135H83.1222C83.531 27.5326 83.9392 27.4638 84.3191 27.3117C84.6991 27.1596 85.042 26.9278 85.3249 26.6318C85.7874 26.1028 88.9372 23.1491 89.3117 22.7082C89.569 22.3716 89.9034 22.1017 90.2867 21.9214C90.6701 21.7411 91.0911 21.6557 91.5143 21.6722H101.867C102.289 21.6593 102.709 21.7464 103.092 21.9264C103.475 22.1064 103.81 22.3743 104.069 22.7082C104.444 23.1491 107.594 26.1028 108.056 26.6318C108.338 26.9289 108.681 27.1615 109.061 27.3137C109.441 27.4659 109.85 27.5341 110.259 27.5135H116.184C116.643 27.4771 117.105 27.536 117.541 27.6866C117.977 27.8372 118.377 28.0762 118.716 28.3887C119.055 28.7012 119.326 29.0804 119.512 29.5025C119.698 29.9246 119.795 30.3806 119.796 30.8419V34.0602H72.3954Z" fill="#D8D8D8"/>
<path d="M155.928 222.132C155.398 215.461 148.245 189.884 140.562 175.313C140.562 175.313 123.802 177.431 113.009 177.466C101.749 177.502 84.2549 175.313 84.2549 175.313C79.2455 186.657 73.5378 211.439 71.876 216.785C70.8728 219.931 70.751 223.291 71.5237 226.501C72.2965 229.711 73.9343 232.648 76.2592 234.992C81.967 241.471 96.682 248.889 100.078 248.889C114.687 246.802 129.008 243.036 142.754 237.666C150.509 234.414 156.433 228.827 155.928 222.132Z" fill="#013EA5"/>
<path d="M22.9147 83.2174C22.8154 81.0472 23.3964 78.9002 24.5765 77.0761C26.3934 74.9695 27.7546 72.5095 28.5744 69.8511C29.205 67.3834 30.2123 65.0276 31.5608 62.8668C32.5241 61.5422 33.9691 60.4585 33.9691 59.447C33.9691 58.4355 32.0424 56.4847 29.2969 57.0386C28.1209 57.4049 27.0403 58.0267 26.1327 58.8594C25.2251 59.6921 24.5127 60.7152 24.0466 61.8553C23.7836 61.1606 23.6293 60.4296 23.5891 59.6878L22.987 44.9246C22.9779 44.5419 22.8921 44.1649 22.7349 43.8158C22.5776 43.4668 22.3519 43.1528 22.0713 42.8924C21.7907 42.632 21.4608 42.4304 21.101 42.2997C20.7412 42.1689 20.3589 42.1115 19.9766 42.1309C19.3679 42.1569 18.7826 42.373 18.3031 42.7488C17.8235 43.1246 17.4739 43.6413 17.3033 44.2262V43.5518C17.2106 42.8341 16.85 42.1781 16.2936 41.7154C15.7373 41.2526 15.0265 41.0174 14.3039 41.057C13.5814 41.0967 12.9006 41.4082 12.3982 41.929C11.8958 42.4498 11.6091 43.1414 11.5955 43.8649V45.912C11.3543 45.2809 10.8943 44.7575 10.2994 44.4371C9.70458 44.1167 9.0144 44.0208 8.35471 44.1668C7.69502 44.3127 7.10972 44.6908 6.70551 45.2322C6.3013 45.7736 6.10506 46.4422 6.15259 47.1162V48.4167C5.89337 47.9611 5.50707 47.591 5.04087 47.3515C4.57467 47.112 4.04878 47.0135 3.52749 47.068C2.81363 47.1586 2.16311 47.5235 1.71358 48.0854C1.26406 48.6473 1.05084 49.3621 1.11914 50.0784L2.29921 62.5297C3.07227 69.5495 4.52412 76.4778 6.63429 83.2174C6.6598 84.3427 6.92051 85.4502 7.39962 86.4687C7.87873 87.4872 8.56564 88.3942 9.41623 89.1314C10.2668 89.8686 11.2623 90.4196 12.3385 90.7491C13.4148 91.0786 14.5481 91.1792 15.6656 91.0446C16.6769 91.0783 17.6836 90.8942 18.6175 90.5046C19.5514 90.1151 20.3905 89.5292 21.0781 88.7869C21.7656 88.0445 22.2855 87.1629 22.6024 86.202C22.9193 85.241 23.0258 84.2231 22.9147 83.2174Z" fill="#FBBEAA"/>
<path d="M104.076 476.261C104.076 473.942 103.155 471.718 101.515 470.079C99.8759 468.439 97.6522 467.518 95.3336 467.518C93.015 467.518 90.7913 468.439 89.1518 470.079C87.5123 471.718 86.5913 473.942 86.5913 476.261V495.263H104.076V476.261Z" fill="#FBBEAA"/>
<path d="M87.2169 479.801C85.0734 479.801 84.6881 480.741 84.0619 481.969C83.0463 485.242 81.3099 488.246 78.9803 490.759C75.5024 493.722 71.7712 496.373 67.8297 498.683V508.75H106.749C106.749 508.75 106.484 500.802 106.291 495.191C106.098 489.579 105.544 482.739 105.593 482.017C105.641 481.294 105.593 479.801 104.268 479.801H87.2169Z" fill="#302D3B"/>
<path d="M101.909 495.744C101.914 496.98 101.551 498.189 100.868 499.219C100.184 500.248 99.21 501.051 98.0693 501.526C96.9285 502.001 95.6724 502.127 94.4601 501.887C93.2479 501.647 92.1343 501.053 91.2605 500.179C90.3867 499.305 89.7921 498.191 89.5522 496.979C89.3123 495.767 89.4378 494.511 89.9129 493.37C90.388 492.229 91.1913 491.255 92.2207 490.572C93.2502 489.888 94.4594 489.526 95.6952 489.531C97.3412 489.537 98.918 490.194 100.082 491.357C101.246 492.521 101.902 494.098 101.909 495.744Z" fill="#0447BA"/>
<path d="M95.6948 492.084L97.1158 494.179L99.5482 494.877L98.0069 496.876L98.0791 499.405L95.6948 498.538L93.3106 499.405L93.4069 496.876L91.8415 494.877L94.2739 494.179L95.6948 492.084Z" fill="white"/>
<path d="M68.0951 498.514C68.0951 498.514 62.58 501.428 60.5088 502.849C59.5499 503.499 58.771 504.381 58.2446 505.412C57.7183 506.444 57.4616 507.592 57.4983 508.75H72.6228C72.6228 508.75 72.3097 501.356 68.0951 498.514Z" fill="white"/>
<path d="M106.749 508.75V512.916C106.749 513.615 106.122 514 105.063 514H59.1596C58.124 514 57.4978 513.615 57.4978 512.916V508.75H106.749Z" fill="white"/>
<path d="M72.6227 495.696C72.4893 495.491 72.2814 495.347 72.0431 495.293C71.8048 495.239 71.5548 495.28 71.3463 495.407C71.2424 495.471 71.1524 495.555 71.0814 495.654C71.0105 495.753 70.9601 495.866 70.9332 495.985C70.9063 496.104 70.9034 496.227 70.9247 496.347C70.946 496.467 70.9911 496.581 71.0573 496.684L72.6708 499.285C72.7486 499.419 72.8612 499.531 72.9968 499.607C73.1324 499.683 73.286 499.722 73.4415 499.718C73.6199 499.715 73.7944 499.666 73.9472 499.574C74.0511 499.51 74.1411 499.426 74.2121 499.327C74.283 499.228 74.3335 499.115 74.3604 498.996C74.3873 498.877 74.3901 498.754 74.3688 498.634C74.3475 498.514 74.3025 498.4 74.2363 498.297L72.6227 495.696Z" fill="white"/>
<path d="M75.4644 493.697C75.3853 493.605 75.289 493.53 75.1808 493.476C75.0727 493.421 74.9548 493.389 74.8341 493.38C74.7133 493.371 74.592 493.386 74.477 493.424C74.362 493.461 74.2556 493.522 74.1639 493.601C74.0722 493.68 73.9969 493.776 73.9425 493.884C73.888 493.992 73.8553 494.11 73.8463 494.231C73.8374 494.352 73.8523 494.473 73.8903 494.588C73.9282 494.703 73.9885 494.81 74.0676 494.901L75.9461 497.117C76.0328 497.218 76.1396 497.301 76.2598 497.359C76.3801 497.417 76.5111 497.449 76.6445 497.454C76.819 497.451 76.989 497.399 77.1357 497.304C77.2823 497.21 77.3998 497.076 77.4748 496.919C77.5498 496.761 77.5795 496.586 77.5604 496.413C77.5414 496.239 77.4744 496.074 77.367 495.937L75.4644 493.697Z" fill="white"/>
<path d="M78.1373 491.458C77.9457 491.334 77.7157 491.285 77.4903 491.318C77.2648 491.352 77.0592 491.466 76.9119 491.64C76.7645 491.814 76.6854 492.035 76.6893 492.263C76.6932 492.491 76.7799 492.71 76.9331 492.879L79.0765 494.733C79.2446 494.875 79.4583 494.952 79.6786 494.95C79.8112 494.955 79.9431 494.929 80.0642 494.875C80.1853 494.82 80.2923 494.739 80.377 494.637C80.466 494.553 80.5369 494.453 80.5854 494.341C80.6339 494.229 80.6588 494.108 80.6588 493.986C80.6588 493.865 80.6339 493.744 80.5854 493.632C80.5369 493.52 80.466 493.42 80.377 493.336L78.1373 491.458Z" fill="white"/>
<path d="M82.8343 490.35L80.4259 488.856C80.2145 488.731 79.9625 488.694 79.7239 488.753C79.4852 488.811 79.279 488.961 79.1495 489.17C79.0843 489.273 79.0407 489.389 79.0212 489.51C79.0016 489.631 79.0066 489.755 79.0359 489.874C79.0651 489.993 79.1178 490.105 79.1912 490.203C79.2645 490.302 79.3568 490.384 79.4626 490.446L81.8709 491.939C82.0137 492.034 82.1813 492.084 82.3526 492.084C82.5095 492.08 82.6628 492.036 82.7978 491.956C82.9328 491.876 83.0448 491.762 83.1232 491.626C83.2506 491.418 83.2916 491.168 83.2377 490.929C83.1837 490.691 83.039 490.483 82.8343 490.35Z" fill="white"/>
<path d="M84.8572 487.243L82.1599 486.111C81.9299 486.016 81.6713 486.015 81.441 486.11C81.2106 486.205 81.0275 486.387 80.9316 486.617C80.8846 486.729 80.8604 486.85 80.8604 486.971C80.8605 487.093 80.8848 487.213 80.9319 487.325C80.979 487.437 81.0479 487.539 81.1347 487.624C81.2215 487.709 81.3244 487.776 81.4374 487.821L84.1347 488.953H84.496C84.7037 488.942 84.902 488.862 85.0595 488.726C85.217 488.59 85.3248 488.406 85.3662 488.202C85.4075 487.998 85.3799 487.786 85.2878 487.6C85.1957 487.413 85.0442 487.262 84.8572 487.171V487.243Z" fill="white"/>
<path d="M86.543 483.775L83.5567 483.028C83.3203 482.971 83.0708 483.009 82.8631 483.136C82.6553 483.262 82.5062 483.466 82.4488 483.703C82.3913 483.939 82.43 484.188 82.5565 484.396C82.683 484.604 82.8868 484.753 83.1231 484.81L86.0854 485.581H86.3021C86.5095 485.579 86.7107 485.509 86.8756 485.384C87.0405 485.258 87.1603 485.082 87.2173 484.883C87.2689 484.647 87.2277 484.4 87.1021 484.194C86.9765 483.987 86.7763 483.837 86.543 483.775Z" fill="white"/>
<path d="M116.865 354.735C116.6 343.079 108.748 337.443 97.1161 337.732C85.4837 338.021 77.1026 344.115 77.3675 355.747L86.5915 477.2H104.076L116.865 354.735Z" fill="#FBBEAA"/>
<path d="M118.381 354.663C118.316 351.895 117.706 349.168 116.588 346.636C115.469 344.104 113.862 341.817 111.859 339.906C109.857 337.995 107.497 336.498 104.916 335.498C102.334 334.499 99.5811 334.019 96.8138 334.083C94.0464 334.148 91.3189 334.757 88.787 335.876C86.2551 336.995 83.9684 338.602 82.0574 340.605C80.1464 342.607 78.6487 344.967 77.6496 347.548C76.6504 350.13 76.1695 352.883 76.2344 355.65L73.3401 481.282H120.953L118.381 354.663Z" fill="#013EA5"/>
<path d="M177.771 476.261C177.771 473.942 176.85 471.718 175.211 470.079C173.571 468.439 171.348 467.518 169.029 467.518C166.711 467.518 164.487 468.439 162.847 470.079C161.208 471.718 160.287 473.942 160.287 476.261V495.263H177.771V476.261Z" fill="#FBBEAA"/>
<path d="M160.937 479.801C158.77 479.801 158.384 480.741 157.782 481.969C156.755 485.242 155.011 488.245 152.677 490.759C149.203 493.727 145.471 496.379 141.526 498.683V508.75H180.445C180.445 508.75 180.18 500.802 179.987 495.191C179.795 489.579 179.265 482.739 179.289 482.017C179.313 481.294 179.289 479.801 177.988 479.801H160.937Z" fill="#302D3B"/>
<path d="M175.628 495.744C175.632 496.979 175.271 498.187 174.588 499.216C173.906 500.245 172.933 501.048 171.794 501.524C170.654 502 169.399 502.127 168.188 501.889C166.976 501.651 165.863 501.059 164.988 500.187C164.113 499.316 163.517 498.205 163.274 496.994C163.031 495.783 163.154 494.528 163.625 493.387C164.096 492.246 164.896 491.27 165.922 490.583C166.948 489.897 168.155 489.531 169.39 489.531C171.04 489.531 172.623 490.184 173.792 491.349C174.961 492.514 175.621 494.094 175.628 495.744Z" fill="#0447BA"/>
<path d="M169.414 492.084L170.835 494.179L173.268 494.877L171.702 496.876L171.774 499.405L169.414 498.538L167.03 499.405L167.102 496.876L165.537 494.877L167.993 494.179L169.414 492.084Z" fill="white"/>
<path d="M141.815 498.514C141.815 498.514 136.276 501.428 134.229 502.849C133.265 503.494 132.482 504.375 131.955 505.408C131.428 506.441 131.175 507.591 131.218 508.75H146.415C146.415 508.75 146.005 501.356 141.815 498.514Z" fill="white"/>
<path d="M180.445 508.75V512.916C180.445 513.615 179.843 514 178.783 514H132.832C131.772 514 131.17 513.615 131.17 512.916V508.75H180.445Z" fill="white"/>
<path d="M146.318 495.696C146.187 495.489 145.979 495.342 145.74 495.287C145.501 495.233 145.25 495.276 145.042 495.407C144.834 495.538 144.687 495.746 144.633 495.986C144.579 496.225 144.622 496.476 144.753 496.684L146.366 499.285C146.45 499.42 146.567 499.531 146.707 499.607C146.846 499.683 147.003 499.721 147.161 499.718C147.333 499.719 147.5 499.668 147.643 499.574C147.747 499.51 147.837 499.426 147.908 499.327C147.979 499.228 148.029 499.115 148.056 498.996C148.083 498.877 148.086 498.754 148.065 498.634C148.043 498.514 147.998 498.4 147.932 498.297L146.318 495.696Z" fill="white"/>
<path d="M149.185 493.697C149.026 493.512 148.801 493.396 148.559 493.374C148.316 493.351 148.074 493.424 147.884 493.577C147.698 493.74 147.581 493.968 147.559 494.215C147.536 494.462 147.61 494.707 147.764 494.901L149.666 497.117C149.75 497.222 149.856 497.307 149.977 497.366C150.098 497.424 150.23 497.454 150.365 497.454C150.541 497.456 150.715 497.407 150.864 497.312C151.013 497.218 151.131 497.082 151.205 496.922C151.279 496.761 151.305 496.583 151.28 496.408C151.255 496.234 151.179 496.07 151.063 495.937L149.185 493.697Z" fill="white"/>
<path d="M151.833 491.458C151.642 491.334 151.412 491.285 151.186 491.318C150.961 491.352 150.755 491.466 150.608 491.64C150.461 491.814 150.381 492.035 150.385 492.263C150.389 492.491 150.476 492.71 150.629 492.879L152.797 494.733C152.965 494.875 153.179 494.952 153.399 494.95C153.531 494.953 153.662 494.926 153.783 494.872C153.904 494.818 154.011 494.738 154.097 494.637C154.183 494.552 154.251 494.45 154.298 494.339C154.344 494.227 154.368 494.107 154.368 493.986C154.368 493.866 154.344 493.746 154.298 493.634C154.251 493.523 154.183 493.421 154.097 493.336L151.833 491.458Z" fill="white"/>
<path d="M156.53 490.35L154.121 488.857C153.914 488.769 153.681 488.759 153.467 488.828C153.252 488.898 153.07 489.042 152.953 489.235C152.836 489.428 152.792 489.656 152.83 489.879C152.868 490.101 152.984 490.302 153.158 490.446L155.566 491.939C155.709 492.034 155.877 492.084 156.048 492.084C156.209 492.082 156.366 492.039 156.505 491.959C156.644 491.878 156.761 491.764 156.843 491.626C156.968 491.415 157.005 491.163 156.947 490.924C156.888 490.685 156.738 490.479 156.53 490.35Z" fill="white"/>
<path d="M23.2033 84.8315L32.8367 145.305C34.4262 152.892 31.9697 159.755 23.2033 160.96C21.5851 161.17 19.941 161.05 18.3707 160.606C16.8005 160.162 15.3368 159.403 14.0687 158.376C12.8006 157.349 11.7546 156.075 10.994 154.631C10.2334 153.187 9.7742 151.604 9.64427 149.977L6.70608 84.9519C5.93541 78.8106 8.60863 74.7164 13.2808 74.2106C19.0127 73.5845 22.0473 76.9803 23.2033 84.8315Z" fill="#FBBEAA"/>
<path d="M158.552 487.243L155.855 486.111C155.743 486.064 155.622 486.04 155.501 486.04C155.379 486.04 155.259 486.065 155.147 486.112C155.034 486.159 154.933 486.228 154.848 486.314C154.763 486.401 154.696 486.504 154.651 486.617C154.561 486.841 154.561 487.091 154.65 487.316C154.74 487.54 154.913 487.721 155.132 487.821L157.854 488.953C157.965 488.978 158.08 488.978 158.191 488.953C158.376 488.953 158.558 488.898 158.712 488.795C158.866 488.693 158.987 488.546 159.058 488.375C159.131 488.158 159.12 487.92 159.026 487.711C158.932 487.501 158.763 487.334 158.552 487.243Z" fill="white"/>
<path d="M160.239 483.775L157.277 483.028C157.037 482.97 156.785 483.008 156.573 483.134C156.361 483.26 156.207 483.464 156.145 483.703C156.116 483.82 156.111 483.941 156.129 484.06C156.148 484.18 156.189 484.294 156.252 484.397C156.315 484.5 156.397 484.589 156.494 484.66C156.592 484.731 156.702 484.782 156.819 484.811L159.782 485.581H160.022C160.239 485.565 160.444 485.473 160.601 485.322C160.758 485.172 160.858 484.971 160.883 484.755C160.909 484.539 160.859 484.321 160.741 484.138C160.624 483.954 160.446 483.818 160.239 483.751V483.775Z" fill="white"/>
<path d="M168.21 354.374C167.027 348.907 163.721 344.134 159.02 341.104C154.319 338.073 148.606 337.034 143.139 338.214C131.747 340.622 125.606 351.845 128.063 363.237L160.286 479.199H177.988L168.21 354.374Z" fill="#FBBEAA"/>
<path d="M168.21 352.086C166.903 346.75 163.566 342.135 158.91 339.221C154.253 336.307 148.644 335.325 143.274 336.482C137.904 337.64 133.197 340.846 130.154 345.419C127.111 349.993 125.972 355.572 126.979 360.973L138.303 480.155C138.303 480.155 168.985 481.985 187.265 480.155L168.21 352.086Z" fill="#013EA5"/>
<path d="M15.3759 138.61L84.5438 86.0595C92.6118 80.9057 98.1028 83.6512 102.39 89.1663C104.347 91.8357 105.255 95.1318 104.94 98.4271C104.624 101.722 103.108 104.787 100.68 107.036L31.6804 157.877C29.2489 159.93 26.1187 160.966 22.9422 160.769C19.7656 160.572 16.7878 159.156 14.6293 156.817L14.3162 156.48C13.1706 155.258 12.286 153.815 11.7164 152.239C11.1468 150.664 10.9042 148.989 11.0033 147.317C11.1025 145.645 11.5414 144.01 12.2931 142.513C13.0449 141.016 14.0938 139.688 15.3759 138.61Z" fill="#FBBEAA"/>
<path d="M100.68 107.012C101.319 106.463 101.9 105.849 102.414 105.182C102.869 103.468 102.927 101.673 102.585 99.9328C102.243 98.1927 101.509 96.5534 100.439 95.1392C96.8024 89.5277 89.168 85.1205 85.7722 85.9634L82.4005 87.6733L44.2281 116.574C47.6066 124.513 52.1701 131.895 57.763 138.465L100.68 107.012Z" fill="#F18380"/>
<path d="M90.2521 82.3023L30.3958 122.672C30.6476 124.737 25.7969 82.3023 25.7969 82.3023L3.64198 84.3703C3.64198 84.3703 4.93629 127.574 8.19663 150.391C9.49055 159.446 17.0276 162.88 25.9645 160.93C30.3769 159.967 34.5308 158.157 38.2274 155.562C54.1116 144.413 98.6744 113.01 102.318 109.059C108.604 102.244 108.604 97.1378 104.991 91.5264C101.379 85.9149 93.6479 81.4594 90.2521 82.3023Z" fill="#013EA5"/>
<path d="M118.381 354.663L130.736 225.311C130.736 211.029 116.021 195.471 94.322 198.819C74.718 201.877 68.7453 221.578 70.3589 240.242C71.9725 258.907 76.3316 355.578 76.3316 355.578C76.3965 358.346 77.0057 361.073 78.1247 363.605C79.2436 366.137 80.8502 368.424 82.8529 370.335C84.8555 372.246 87.215 373.743 89.7965 374.743C92.378 375.742 95.1311 376.223 97.8984 376.158C100.666 376.093 103.393 375.484 105.925 374.365C108.457 373.246 110.744 371.639 112.655 369.636C114.566 367.634 116.064 365.274 117.063 362.693C118.062 360.111 118.543 357.358 118.478 354.591L118.381 354.663Z" fill="#013EA5"/>
<path d="M168.21 352.086L155.927 222.758C153.326 208.717 135.866 196.266 115.178 203.635C96.5131 210.306 94.3456 230.777 99.4513 248.816C104.557 266.855 126.979 360.973 126.979 360.973C128.286 366.308 131.622 370.924 136.279 373.837C140.936 376.751 146.545 377.734 151.915 376.577C157.285 375.419 161.992 372.213 165.035 367.64C168.077 363.066 169.217 357.486 168.21 352.086Z" fill="#013EA5"/>
<path d="M99.4515 248.816C104.533 266.855 126.979 360.973 126.979 360.973" stroke="#E9E9E9" stroke-width="0.75" stroke-miterlimit="10"/>
<path d="M103.064 80.2551C103.064 80.2551 92.4194 82.1096 90.3482 82.6635C89.1259 82.9503 87.9964 83.5427 87.0655 84.3852C86.1346 85.2276 85.4328 86.2925 85.0258 87.4802C83.7012 90.6351 76.8856 111.299 76.2594 113.539C75.836 116.006 76.2337 118.544 77.3913 120.764C78.3788 123.461 83.4845 135.744 83.4845 135.744L84.2551 175.313L113.01 179.873L140.562 175.313C140.562 175.313 150.196 101.714 150.678 97.1618C151.159 92.61 148.895 83.8195 143.452 82.7117C138.01 81.6039 123.078 80.3033 123.078 80.3033L103.064 80.2551Z" fill="#FBBEAA"/>
<path d="M82.9048 159.403V173.314C101.738 175.048 131.747 173.82 143.019 173.314C143.548 169.34 144.102 162.597 144.68 158.117C129.339 158.503 104.002 159.933 82.9048 159.403Z" fill="white"/>
<path d="M182.227 171.773L151.376 90.587C147.258 81.917 141.165 81.339 134.517 83.7473C131.443 84.9737 128.928 87.2897 127.453 90.2529C125.978 93.2161 125.647 96.6188 126.522 99.8111L158.288 179.552C159.251 182.585 161.352 185.128 164.149 186.646C166.947 188.164 170.224 188.539 173.292 187.692L173.75 187.571C175.368 187.13 176.88 186.363 178.192 185.318C179.505 184.273 180.59 182.972 181.384 181.494C182.177 180.016 182.661 178.391 182.806 176.72C182.951 175.049 182.754 173.365 182.227 171.773Z" fill="#FBBEAA"/>
<path d="M169.439 138.104L151.376 90.5869C150.892 89.5449 150.32 88.5459 149.666 87.6006C147.454 86.2153 144.921 85.4253 142.313 85.3072C139.705 85.189 137.111 85.7468 134.783 86.9263C132.079 88.2421 129.905 90.4421 128.622 93.1619C127.338 95.8817 127.023 98.9583 127.726 101.882C127.726 102.171 127.895 102.725 128.039 103.472L146.68 150.314C154.822 147.378 162.49 143.264 169.439 138.104Z" fill="#F18380"/>
<path d="M148.963 85.1213C154.22 91.8806 184.636 174.492 184.636 174.492C156.473 165.48 155.972 173.353 143.799 143.701C143.799 143.701 126.136 102.244 125.462 98.5348C124.758 95.611 125.074 92.5345 126.357 89.8147C127.64 87.0949 129.814 84.8949 132.518 83.579C140.056 79.7256 143.706 78.362 148.963 85.1213Z" fill="#0045BA"/>
<path d="M97.8602 80.2397C92.2938 81.2982 89.7781 81.4247 88.3647 82.3567C86.1285 83.8571 74.6125 104.187 74.6125 113.361C74.6125 121.476 76.5771 186.398 78.2143 187.456C79.8514 188.515 109.159 189.888 109.159 189.888V97.9561C106.185 88.7493 99.9698 86.1957 97.8602 80.2397Z" fill="#0045BA"/>
<path d="M88.3647 82.3567C89.7781 81.4247 95.3317 80.5472 100.898 79.4887C103.008 85.4447 106.185 88.7493 109.159 97.9561V113.361H74.6125C74.6125 104.187 86.1285 83.8571 88.3647 82.3567Z" fill="#9A99A1"/>
<path d="M109.535 77.2357C116.444 77.2357 122.677 74.2316 124.931 72.7296V79.4887C124.68 79.8642 122.753 81.0658 117.045 82.8683C111.337 84.6707 103.151 83.9948 99.7715 82.8683V76.1092C99.7715 76.4847 100.898 77.2357 109.535 77.2357Z" fill="#034CC9"/>
<path d="M74.6234 114.786H109.159V107.276L75.6054 107.604C74.9507 110.186 74.5391 112.03 74.6234 114.786Z" fill="#D3D4D2"/>
<path d="M153.387 183.235C153.387 175.717 152.495 154.975 143.057 136.1C141.904 133.12 129.392 99.0863 142.057 84.7976C146.265 80.0493 149.964 86.9201 148.855 85.1504C147.745 83.3807 146.515 81.6439 144.703 80.8109C141.47 79.2424 134.287 79.5053 127.813 79.5053C120.043 89.0314 111.996 91.1521 109.159 97.9717V189.854C109.159 189.854 153.387 190.753 153.387 183.235Z" fill="#034CC9"/>
<path d="M153.387 183.235C153.387 175.717 152.495 154.975 143.057 136.1C141.904 133.12 129.392 99.0863 142.057 84.7976C146.265 80.0493 149.964 86.9201 148.855 85.1504C147.745 83.3807 146.515 81.6439 144.703 80.8109C141.47 79.2424 134.287 79.5053 127.813 79.5053C120.043 89.0314 111.996 91.1521 109.159 97.9717V189.854C109.159 189.854 153.387 190.753 153.387 183.235Z" fill="#034CC9"/>
<path d="M148.963 85.1214C150.073 86.891 146.265 80.0492 142.057 84.7975C136.737 90.7998 135.887 101.845 137.121 112.533H109.16L109.16 83.9948C116.67 83.2438 120.425 82.1173 124.931 79.4887C131.405 79.4887 141.6 79.0467 144.833 80.6152C146.645 81.4482 147.854 83.3517 148.963 85.1214Z" fill="#A2A0AB"/>
<path d="M109.159 189.888C107.24 189.244 105.561 188.004 104.351 186.336C103.141 184.669 102.46 182.656 102.4 180.574V77.6112H109.159V189.888Z" fill="#034CC9"/>
<path d="M136.71 107.29H109.181V115.238H137.415C137.052 111.661 136.71 110.072 136.71 107.29Z" fill="#CFD1CE"/>
<g style="mix-blend-mode:multiply" opacity="0.4">
<path d="M109.91 83.841L109.159 83.9948V189.888H109.91V83.841Z" fill="#013FA9"/>
</g>
<path d="M109.413 166.217L166.829 187.53C173.949 190.568 181.171 189.505 184.046 181.22C184.57 179.676 184.776 178.041 184.65 176.415C184.524 174.789 184.069 173.206 183.312 171.761C182.556 170.316 181.514 169.04 180.25 168.01C178.985 166.98 177.525 166.217 175.957 165.768L112.828 150.201C106.966 148.235 102.428 150.078 100.968 154.487C99.2497 159.92 101.958 163.464 109.413 166.217Z" fill="#FBBEAA"/>
<g filter="url(#filter0_d_203_217)">
<rect width="40.6599" height="57.9403" rx="1" transform="matrix(-0.993463 -0.114154 -0.114154 0.993463 129.719 122.547)" fill="#EFEFEF"/>
</g>
<path d="M110.628 148.514C107.801 147.319 105.244 145.549 103.12 143.315C101.806 141.935 100.315 140.738 98.6881 139.755C97.7338 139.158 96.9102 138.371 96.269 137.442C95.422 136.003 94.721 134.482 94.1768 132.904C93.9751 131.545 93.5129 130.235 92.8158 129.048C92.153 128.44 89.8137 128.765 88.5993 131.126C88.1807 132.177 87.991 133.309 88.043 134.445C88.095 135.582 88.3875 136.697 88.9008 137.716C89.505 138.938 89.9784 140.221 90.3127 141.541L90.0921 141.673C88.2419 140.691 86.2646 139.978 84.2205 139.557C83.4791 139.391 82.7069 139.481 82.0281 139.812C81.3494 140.142 80.8037 140.694 80.479 141.379C80.1543 142.064 80.0695 142.842 80.2383 143.587C80.407 144.332 80.8195 145.002 81.4093 145.487C78.2195 145.854 78.5816 150.774 81.32 151.424C80.7336 151.67 80.2386 152.093 79.902 152.634C79.5653 153.175 79.4032 153.81 79.4376 154.451C79.472 155.093 79.7012 155.711 80.0943 156.221C80.4873 156.732 81.0252 157.11 81.6353 157.306C79.6903 159.099 81.112 162.055 84.6437 162.067C87.5132 162.359 95.1874 163.56 97.8574 164.135C100.527 164.71 105.894 163.439 107.618 163.972C110.184 164.912 113.165 164.928 115.438 158.175C117.711 151.423 113.269 149.387 110.628 148.514Z" fill="#FBBEAA"/>
<path d="M106.3 166.896L156.965 186.274C156.965 186.274 174.67 192.998 181.303 187.261C182.53 186.187 183.23 184.695 183.9 182.791C184.565 180.9 184.608 179.346 184.676 177.716C184.743 176.087 184.479 174.461 183.9 172.936C183.32 171.412 183.983 172.36 181.303 168.386C178.624 164.412 113.751 148.021 113.751 148.021L106.3 166.896Z" fill="#0045BA"/>
<path d="M22.4329 63.9509C23.3481 63.9509 23.4203 63.3729 23.8297 62.3132C21.7826 62.3132 15.834 62.6985 13.233 67.7079C15.8581 64.0954 20.8916 63.9509 22.4329 63.9509ZM17.7607 44.9008C17.7607 44.9008 17.9052 45.7438 18.0497 46.972C18.0497 47.5982 18.1942 48.3447 18.2424 49.1154C18.2906 49.8861 18.3628 50.729 18.435 51.5238C18.435 53.2096 18.5554 54.8714 18.5554 56.1237C18.5554 57.3761 18.5554 58.219 18.5554 58.219C18.5556 58.259 18.5474 58.2987 18.5314 58.3355C18.5154 58.3722 18.4919 58.4052 18.4624 58.4323C18.433 58.4595 18.3982 58.4803 18.3604 58.4933C18.3225 58.5064 18.2823 58.5113 18.2424 58.508C18.1746 58.5046 18.1097 58.4792 18.0576 58.4358C18.0055 58.3924 17.9689 58.3332 17.9533 58.2672C17.9533 58.2672 17.8089 57.4242 17.6884 56.1719C17.568 54.9195 17.3753 53.2578 17.3031 51.596C17.3031 50.7531 17.3031 49.9102 17.3031 49.1877C17.3031 48.4651 17.3031 47.6704 17.3031 47.0443C17.3031 45.7678 17.3031 44.9489 17.3031 44.9489C17.303 44.9089 17.3111 44.8692 17.3271 44.8325C17.3431 44.7958 17.3666 44.7627 17.3961 44.7356C17.4255 44.7084 17.4603 44.6877 17.4982 44.6746C17.536 44.6616 17.5763 44.6566 17.6162 44.6599C17.6623 44.6865 17.7003 44.7253 17.7258 44.7721C17.7513 44.8188 17.7633 44.8717 17.7607 44.9249V44.9008ZM12.1733 46.5867C12.1733 46.5867 12.3178 47.3091 12.4864 48.3688C12.4864 48.9227 12.655 49.5489 12.7272 50.2232C12.7995 50.8976 12.8717 51.6201 12.944 52.3426C12.944 53.7876 13.1125 55.2326 13.1366 56.3164C13.1607 57.4001 13.1366 58.1467 13.1366 58.1467C13.1336 58.1847 13.1231 58.2217 13.1057 58.2557C13.0883 58.2896 13.0644 58.3197 13.0353 58.3444C13.0062 58.369 12.9724 58.3876 12.9361 58.3992C12.8998 58.4107 12.8616 58.415 12.8236 58.4117C12.7588 58.4072 12.6974 58.3809 12.6493 58.3372C12.6013 58.2935 12.5693 58.2349 12.5586 58.1708C12.5586 58.1708 12.4141 57.4483 12.2455 56.3886C12.077 55.3289 11.9325 53.8599 11.8121 52.4389C11.8121 51.7164 11.8121 50.9939 11.6676 50.3196C11.5231 49.6452 11.6676 48.995 11.6676 48.4411C11.6676 47.3573 11.6676 46.6348 11.6676 46.6348C11.6674 46.5947 11.6756 46.5551 11.6916 46.5184C11.7076 46.4817 11.7311 46.4486 11.7605 46.4214C11.79 46.3943 11.8247 46.3735 11.8626 46.3605C11.9005 46.3475 11.9407 46.3425 11.9807 46.3458C12.0341 46.3679 12.0803 46.4043 12.1143 46.4511C12.1484 46.4978 12.1688 46.5531 12.1733 46.6107V46.5867ZM6.7786 48.8746C6.7786 48.8746 6.92307 49.4767 7.11573 50.3918C7.11573 50.8253 7.30844 51.3552 7.38069 51.9332C7.45294 52.5112 7.54924 53.1133 7.64557 53.7154C7.81416 54.9436 7.88647 56.1237 7.93464 57.0871C7.98281 58.0504 7.93464 58.6284 7.93464 58.6284C7.93478 58.6685 7.92654 58.7081 7.91053 58.7449C7.89453 58.7816 7.87103 58.8146 7.84159 58.8418C7.81215 58.869 7.7774 58.8897 7.7395 58.9027C7.70161 58.9157 7.66147 58.9208 7.62154 58.9174C7.56005 58.9142 7.50118 58.8914 7.45353 58.8525C7.40587 58.8135 7.37189 58.7603 7.35658 58.7007C7.35658 58.7007 7.18804 58.0986 7.01945 57.2075C6.85087 56.3164 6.61001 55.064 6.46551 53.8599C6.46551 53.2337 6.34507 52.6316 6.2969 52.0536C6.24874 51.4756 6.2969 50.9458 6.2969 50.4882C6.2969 49.573 6.2969 48.9468 6.2969 48.9468C6.29676 48.9067 6.305 48.8671 6.32101 48.8304C6.33702 48.7937 6.36044 48.7606 6.38988 48.7334C6.41932 48.7063 6.45415 48.6855 6.49204 48.6725C6.52993 48.6595 6.57007 48.6545 6.61 48.6578C6.65446 48.6826 6.69274 48.7172 6.72194 48.7589C6.75113 48.8006 6.77051 48.8484 6.7786 48.8987V48.8746Z" fill="#F18380"/>
<path d="M180.506 434.719L178.253 420.074H132.441L133.943 435.094L180.506 434.719Z" fill="#CFD1CE"/>
<path d="M120.049 434.719L119.674 420.074H74.6127L74.2372 435.094L120.049 434.719Z" fill="#CFD1CE"/>
<path d="M151.462 157.9L141.071 155.472L134.613 177.824L144.548 181.797L151.462 157.9Z" fill="#CFD1CE"/>
<path d="M29.9275 117.791L28.801 108.778L4.76848 110.656L5.14399 119.668L29.9275 117.791Z" fill="#CFD1CE"/>
<path d="M119.336 97.0418L120.061 97.0493L120.051 97.9541L120.825 97.962L120.834 97.0572L121.559 97.0647L121.533 99.5367L120.808 99.5293L120.819 98.5503L120.045 98.5424L120.035 99.5213L119.31 99.5139L119.336 97.0418L119.336 97.0418ZM124.145 97.0913L124.119 99.5633L123.419 99.5561L123.438 97.67L122.98 97.6653L122.972 98.3748C122.969 98.6937 122.941 99.0841 122.746 99.3021C122.55 99.5449 122.186 99.6153 121.777 99.5369L121.783 98.924C122.168 99.0021 122.267 98.8549 122.272 98.3654L122.285 97.0676L124.145 97.0867L124.145 97.0913ZM124.75 97.0975L125.474 97.1049L125.869 98.5775L126.294 97.1134L127.019 97.1208L127.332 99.5964L126.657 99.5894L126.502 98.2652L126.1 99.5836L125.617 99.5786L125.245 98.2523L125.063 99.5729L124.387 99.566L124.75 97.0974L124.75 97.0975ZM127.624 97.127L128.348 97.1345L128.338 98.1381L129.049 97.1417L129.846 97.1499L128.917 98.3641L129.846 99.6222L128.977 99.6133L128.336 98.6029L128.325 99.6066L127.601 99.5991L127.626 97.127L127.624 97.127L127.624 97.127ZM124.533 94.45C120.185 94.4053 117.292 95.9677 117.268 98.3162C117.244 100.642 120.102 102.286 124.452 102.331C128.824 102.376 131.693 100.789 131.717 98.4647C131.741 96.1162 128.907 94.495 124.533 94.45ZM124.456 101.965C120.372 101.923 117.659 100.451 117.681 98.3204C117.703 96.1672 120.447 94.774 124.529 94.816C128.636 94.8582 131.329 96.3051 131.307 98.4605C131.285 100.591 128.564 102.007 124.456 101.965ZM124.526 95.1595C120.685 95.12 118.11 96.3915 118.091 98.3246C118.071 100.258 120.619 101.582 124.459 101.621C128.3 101.661 130.875 100.389 130.895 98.4563C130.917 96.5231 128.368 95.199 124.526 95.1595ZM124.46 101.55C120.666 101.511 118.144 100.211 118.164 98.3276C118.183 96.4438 120.733 95.1969 124.525 95.2359C128.317 95.2749 130.841 96.5739 130.821 98.4577C130.804 100.342 128.254 101.589 124.46 101.55L124.46 101.55Z" fill="white"/>
<defs>
<filter id="filter0_d_203_217" x="82.8186" y="118.013" width="48.7931" height="61.988" filterUnits="userSpaceOnUse" color-interpolation-filters="sRGB">
<feFlood flood-opacity="0" result="BackgroundImageFix"/>
<feColorMatrix in="SourceAlpha" type="matrix" values="0 0 0 0 0 0 0 0 0 0 0 0 0 0 0 0 0 0 127 0" result="hardAlpha"/>
<feOffset dx="2"/>
<feComposite in2="hardAlpha" operator="out"/>
<feColorMatrix type="matrix" values="0 0 0 0 0.603922 0 0 0 0 0.6 0 0 0 0 0.631373 0 0 0 1 0"/>
<feBlend mode="normal" in2="BackgroundImageFix" result="effect1_dropShadow_203_217"/>
<feBlend mode="normal" in="SourceGraphic" in2="effect1_dropShadow_203_217" result="shape"/>
</filter>
</defs>
</svg>
