<svg width="189" height="515" viewBox="0 0 189 515" fill="none" xmlns="http://www.w3.org/2000/svg">
    <path d="M85.5478 73.2346C86.1526 73.2346 87.4377 73.2346 88.5717 73.6126C88.5717 74.5198 86.5558 75.2505 85.5478 75.5025C85.2958 74.7466 84.943 73.2346 85.5478 73.2346Z" fill="#013FA9"/>
    <path d="M50.5457 21.8182C49.0638 27.4879 48.1848 33.2982 47.9233 39.1525C47.6124 44.0251 46.0004 48.7252 43.2554 52.763C40.6329 56.1459 37.1975 59.66 38.4563 70.1497H105.617C105.617 70.1497 108.239 64.9048 105.092 55.9099C101.386 44.8053 98.6566 33.398 96.9366 21.8182H50.5457Z" fill="#BC664A"/>
    <path d="M63.396 52.7631V75.0276C63.396 75.0276 65.153 82.7113 76.9278 82.7113C79.2654 82.9084 81.5898 82.203 83.4236 80.7399C85.2574 79.2768 86.4613 77.167 86.7882 74.844V52.7631H63.396Z" fill="#FBBEAA"/>
    <path d="M86.7882 71.4086C79.3929 74.8964 68.6146 71.7757 63.396 62.099V52.7631H86.7882V71.4086Z" fill="#F18380"/>
    <path d="M101.395 35.7432C101.507 41.0765 101.27 46.4114 100.687 51.7138C99.7163 59.2665 97.0414 67.6583 83.6408 67.6583C70.2401 67.6583 63.4481 61.6267 60.5634 51.7138C58.8326 45.7085 55.3185 36.8709 56.7608 26.6171C58.2032 16.3634 64.3659 9.70243 78.9204 9.30906C93.475 8.91569 102.994 15.4718 101.395 35.7432Z" fill="#FBBEAA"/>
    <path d="M73.0724 40.3065C73.1656 40.6927 73.3653 41.045 73.6488 41.3234C73.9322 41.6018 74.2881 41.7952 74.676 41.8814C75.0638 41.9677 75.468 41.9435 75.8427 41.8115C76.2175 41.6796 76.5478 41.4452 76.796 41.1349C77.0442 40.8247 77.2004 40.451 77.2469 40.0565C77.2933 39.6619 77.2282 39.2622 77.0589 38.9027C76.8896 38.5433 76.6228 38.2386 76.289 38.0232C75.9551 37.8077 75.5677 37.6902 75.1704 37.6841C74.8583 37.7132 74.5553 37.8048 74.2794 37.9536C74.0036 38.1024 73.7605 38.3052 73.5647 38.5499C73.3689 38.7947 73.2244 39.0763 73.1398 39.3781C73.0552 39.6799 73.0323 39.9956 73.0724 40.3065Z" fill="#403D4F"/>
    <path d="M92.5046 40.3065C92.5979 40.6927 92.7975 41.045 93.081 41.3234C93.3644 41.6018 93.7203 41.7952 94.1081 41.8814C94.4959 41.9677 94.9002 41.9435 95.2749 41.8115C95.6497 41.6796 95.98 41.4452 96.2282 41.1349C96.4764 40.8247 96.6326 40.451 96.6791 40.0565C96.7256 39.6619 96.6604 39.2622 96.4911 38.9027C96.3218 38.5433 96.055 38.2386 95.7212 38.0232C95.3874 37.8077 94.9998 37.6902 94.6025 37.6841C94.2918 37.7166 93.9907 37.8106 93.7166 37.9604C93.4425 38.1103 93.2008 38.313 93.0057 38.557C92.8105 38.8009 92.6658 39.0812 92.5798 39.3815C92.4937 39.6818 92.4682 39.9962 92.5046 40.3065Z" fill="#403D4F"/>
    <path d="M79.3924 32.8852C79.3924 32.8852 79.3924 32.8853 79.1826 32.6755C78.9711 32.4698 78.7329 32.2934 78.4745 32.151C78.1436 31.9617 77.7915 31.812 77.4256 31.7052C76.5724 31.4709 75.6858 31.3822 74.8031 31.4429C74.432 31.462 74.0633 31.5147 73.7017 31.6003L72.679 31.8887C72.5101 31.9431 72.369 32.0612 72.2858 32.2179C72.2025 32.3746 72.1836 32.5575 72.2331 32.7279C72.2764 32.862 72.3602 32.9793 72.4729 33.0639C72.5856 33.1484 72.7217 33.1959 72.8625 33.1999H74.8294C75.1698 33.1741 75.5116 33.1741 75.8521 33.1999C76.1891 33.231 76.5227 33.2924 76.8486 33.3835C77.1895 33.3835 77.4256 33.5671 77.6878 33.5933C77.8742 33.6717 78.0673 33.7332 78.2648 33.7769H78.5008C78.6644 33.8481 78.8495 33.8522 79.0162 33.7885C79.1829 33.7247 79.318 33.5982 79.3924 33.436C79.4313 33.3448 79.4514 33.2467 79.4514 33.1475C79.4514 33.0483 79.4313 32.9502 79.3924 32.859V32.8852Z" fill="#403D4F"/>
    <path d="M92.1635 33.8815C92.1635 33.8815 92.1635 33.8815 92.3209 33.8815L92.7142 33.7242H93.0027C93.1064 33.7014 93.2137 33.7014 93.3174 33.7242C93.5492 33.6476 93.7856 33.5863 94.0254 33.5406C94.2694 33.5133 94.5157 33.5133 94.7597 33.5406H96.2545C96.3429 33.5407 96.4303 33.5229 96.5116 33.4883C96.593 33.4537 96.6664 33.4031 96.7277 33.3394C96.7889 33.2757 96.8366 33.2003 96.8679 33.1177C96.8993 33.0351 96.9137 32.947 96.9101 32.8588C96.9051 32.7287 96.8629 32.6027 96.7886 32.4958C96.7142 32.389 96.6108 32.3056 96.4905 32.2556L95.6776 31.9671C95.3875 31.8803 95.0883 31.8275 94.786 31.8098C94.4294 31.7578 94.0673 31.7578 93.7107 31.8098C93.0261 31.8956 92.3755 32.1577 91.8226 32.5703L91.3243 33.0686C91.1932 33.2259 91.1932 33.2784 91.1932 33.3046V33.5406C91.1702 33.7207 91.2172 33.9028 91.3246 34.0492C91.4319 34.1956 91.5915 34.2952 91.7702 34.3273C91.9498 34.2299 92.0892 34.0719 92.1635 33.8815Z" fill="#403D4F"/>
    <path d="M86.7879 49.2492C87.23 49.2467 87.6669 49.1548 88.0725 48.979C88.4781 48.8033 88.844 48.5473 89.1481 48.2265C89.2592 48.1076 89.3445 47.967 89.3987 47.8136C89.4529 47.6601 89.4747 47.4972 89.4628 47.3349C89.4628 47.0464 89.017 43.4274 88.8596 42.09C88.8295 41.9606 88.7556 41.8456 88.6505 41.7644C88.5454 41.6832 88.4155 41.6407 88.2828 41.6442C88.1481 41.6638 88.0264 41.7349 87.9432 41.8425C87.86 41.9502 87.8219 42.0859 87.8369 42.2211C87.8369 42.4047 88.4138 47.1513 88.4663 47.466C88.2516 47.7037 87.9882 47.8923 87.6941 48.019C87.3999 48.1457 87.0819 48.2075 86.7617 48.2003C86.6272 48.207 86.5004 48.2652 86.4076 48.3629C86.3149 48.4605 86.2633 48.5901 86.2634 48.7248C86.2698 48.8618 86.3271 48.9915 86.4241 49.0885C86.5211 49.1856 86.6509 49.2429 86.7879 49.2492Z" fill="#F18380"/>
    <path d="M89.2004 54.4153C90.1707 54.6513 90.5378 56.1198 89.9347 57.8244C89.3397 58.9981 88.3664 59.9368 87.172 60.4888C85.9775 61.0408 84.6318 61.1738 83.3524 60.8664C82.654 60.8333 81.9692 60.6607 81.3384 60.3591C80.7076 60.0574 80.1435 59.6326 79.6793 59.1097C79.215 58.5868 78.86 57.9764 78.6351 57.3143C78.4102 56.6522 78.32 55.9519 78.3697 55.2544C78.3697 54.1268 79.1565 53.4712 80.6251 53.4712C83.5047 53.5481 86.373 53.8638 89.2004 54.4153Z" fill="#73102A"/>
    <path d="M78.3697 55.3857V55.1496C80.2892 54.706 82.3053 54.9987 84.0193 55.9699C85.7334 56.9411 87.0208 58.52 87.627 60.3945C86.2779 61.0557 84.7603 61.2933 83.2737 61.0763C82.5749 61.0335 81.8917 60.8511 81.2645 60.5401C80.6372 60.229 80.0786 59.7955 79.6216 59.2652C79.1646 58.7348 78.8184 58.1183 78.6034 57.452C78.3884 56.7857 78.3089 56.0831 78.3697 55.3857Z" fill="#D65155"/>
    <path d="M88.3611 55.9888C85.0399 56.0403 81.7335 55.5351 78.5793 54.494C78.7769 54.1368 79.0782 53.8478 79.4434 53.6652C79.8085 53.4826 80.2205 53.415 80.6248 53.4713C83.5045 53.5482 86.3728 53.8639 89.2002 54.4154C89.4713 54.5088 89.7086 54.681 89.8814 54.9099C90.0542 55.1387 90.1548 55.414 90.1705 55.7004C89.59 55.9064 88.9768 56.0041 88.3611 55.9888Z" fill="white"/>
    <path d="M73.7809 25.4376C73.7809 25.4376 71.1585 38.5498 60.0393 43.6373C60.0393 43.6373 48.7104 37.055 50.0216 24.4936C51.6476 9.02118 73.6236 -8.3918 95.4947 8.0771C97.6189 7.73619 99.9266 3.25182 99.2448 0C100.139 0.561738 100.842 1.38019 101.264 2.34832C101.685 3.31644 101.804 4.38916 101.606 5.42616C101.407 6.46315 100.901 7.41615 100.152 8.1605C99.4032 8.90486 98.4472 9.40591 97.409 9.59812C100.979 10.0955 104.219 11.9527 106.452 14.7821C108.685 17.6115 109.739 21.1941 109.394 24.782C109.282 27.0441 108.34 29.1855 106.748 30.7967C105.156 32.4078 103.026 33.3755 100.766 33.5147H96.9108C93.9285 32.1479 91.5169 29.7827 90.0924 26.8275C90.4634 29.0551 91.2365 31.1967 92.374 33.1476C92.5838 33.541 92.1117 34.2228 88.8861 33.541C85.183 32.2672 82.088 29.6584 80.2059 26.2244C80.9109 28.4761 81.8515 30.6473 83.0119 32.7018C83.0119 33.0951 81.3073 33.6721 78.7897 32.5182C77.3875 31.9085 76.1792 30.9261 75.2961 29.6777C74.413 28.4294 73.8889 26.9629 73.7809 25.4376Z" fill="#BC664A"/>
    <path d="M90.9838 35.7435C90.0397 35.7435 89.6726 37.4743 89.6726 39.1264C89.769 41.3643 90.4371 43.5402 91.6132 45.4465C92.0944 46.0218 92.7184 46.4603 93.4227 46.7181C94.1269 46.9758 94.8867 47.0438 95.6255 46.9151C96.5252 47.0542 97.4444 46.9949 98.3188 46.7412C99.1931 46.4875 100.001 46.0456 100.687 45.4465C102.13 43.6385 102.99 41.4344 103.152 39.1264C103.152 37.4743 102.654 35.7435 101.474 35.7435H90.9838Z" stroke="#403D4F" stroke-width="0.75" stroke-miterlimit="10"/>
    <path d="M83.0639 35.7435C84.3226 35.7435 84.8209 37.4743 84.8209 39.1264C84.649 41.4603 83.7294 43.6766 82.1985 45.4465C81.4737 46.0414 80.6333 46.4791 79.7304 46.7319C78.8275 46.9847 77.8819 47.0471 76.9536 46.9151C74.5966 47.2182 72.207 46.6996 70.1877 45.4465C68.3461 43.8216 67.1771 41.5679 66.9097 39.1264C66.9097 37.4743 67.5391 35.7435 69.1388 35.7435H83.0639Z" stroke="#403D4F" stroke-width="0.75" stroke-miterlimit="10"/>
    <path d="M89.8828 37.317C89.1292 36.7428 88.2079 36.4318 87.2604 36.4318C86.3129 36.4318 85.3916 36.7428 84.6379 37.317" stroke="#403D4F" stroke-width="0.75" stroke-miterlimit="10"/>
    <path d="M69.0871 35.7435H65.8877C65.2059 35.7435 64.4192 35.9008 64.4192 36.8187V38.2873C64.4192 38.6544 66.7532 39.3887 67.0416 40.2016" stroke="#403D4F" stroke-width="0.75" stroke-miterlimit="10"/>
    <path d="M57.4431 39.5727L64.4188 36.8191" stroke="#403D4F" stroke-width="0.75" stroke-miterlimit="10"/>
    <path d="M61.0348 45.5779C60.825 42.0114 59.8809 37.8417 55.5277 38.4711C50.4401 39.2578 49.9419 53.0256 60.7725 51.3735L61.0348 45.5779Z" fill="#FBBEAA"/>
    <path d="M55.1614 46.4958C55.2526 46.497 55.3424 46.4733 55.4211 46.427C55.4997 46.3808 55.5641 46.3138 55.6072 46.2335C55.7225 46.0065 55.8938 45.8127 56.1049 45.6704C56.316 45.5281 56.5599 45.4421 56.8136 45.4206C57.1162 45.4239 57.4128 45.5053 57.6747 45.6569C57.9366 45.8085 58.1548 46.0252 58.3084 46.286C58.3711 46.3757 58.4615 46.4422 58.5657 46.4754C58.67 46.5086 58.7823 46.5065 58.8853 46.4695C58.9963 46.4388 59.0924 46.3685 59.1552 46.2719C59.2179 46.1753 59.2432 46.059 59.2262 45.9451C59.1808 44.842 58.8374 43.7719 58.2325 42.8484C57.6276 41.9249 56.7839 41.1825 55.7908 40.7002C55.7241 40.6605 55.6494 40.6362 55.5721 40.6289C55.4948 40.6217 55.4169 40.6316 55.3439 40.6581C55.2709 40.6846 55.2048 40.727 55.1502 40.7822C55.0955 40.8374 55.0539 40.904 55.0281 40.9772C55.0024 41.0505 54.9932 41.1285 55.0013 41.2057C55.0094 41.2829 55.0345 41.3574 55.0749 41.4237C55.1152 41.49 55.1698 41.5466 55.2347 41.5892C55.2995 41.6319 55.373 41.6597 55.4499 41.6705C56.0393 41.9569 56.5642 42.3604 56.9925 42.8564C57.4208 43.3524 57.7436 43.9304 57.9413 44.5552C57.5753 44.3747 57.1684 44.2933 56.7611 44.3191C56.3372 44.3592 55.9295 44.502 55.5731 44.735C55.2167 44.968 54.9224 45.2843 54.7156 45.6566C54.6582 45.7757 54.6479 45.9122 54.6868 46.0387C54.7257 46.1651 54.8109 46.2722 54.9254 46.3384L55.1614 46.4958Z" fill="#F18380"/>
    <path d="M32.0445 220.601C32.5778 213.886 39.7779 188.14 47.5114 173.473C47.5114 173.473 64.3823 175.604 75.2464 175.639C86.5816 175.676 104.191 173.473 104.191 173.473C109.234 184.891 114.979 209.837 116.652 215.219C117.662 218.386 117.784 221.768 117.007 224.999C116.229 228.231 114.58 231.187 112.24 233.547C106.494 240.068 91.6819 247.535 88.2636 247.535C73.5573 245.434 59.1425 241.643 45.3053 236.238C37.4991 232.965 31.5354 227.341 32.0445 220.601Z" fill="#013EA5"/>
    <path d="M165.937 80.7679C166.037 78.5833 165.452 76.4221 164.265 74.586C162.436 72.4654 161.065 69.9891 160.24 67.3131C159.605 64.8291 158.591 62.4577 157.234 60.2826C156.264 58.9493 154.81 57.8584 154.81 56.8402C154.81 55.822 156.749 53.8583 159.513 54.4159C160.697 54.7847 161.784 55.4106 162.698 56.2488C163.612 57.087 164.329 58.1168 164.798 59.2645C165.063 58.5652 165.218 57.8293 165.258 57.0826L165.865 42.2218C165.874 41.8365 165.96 41.457 166.118 41.1057C166.277 40.7543 166.504 40.4383 166.786 40.1761C167.069 39.914 167.401 39.7111 167.763 39.5795C168.125 39.4478 168.51 39.3901 168.895 39.4096C169.508 39.4357 170.097 39.6533 170.579 40.0316C171.062 40.4099 171.414 40.93 171.586 41.5187V40.8399C171.679 40.1175 172.042 39.4571 172.602 38.9913C173.162 38.5255 173.878 38.2887 174.605 38.3286C175.332 38.3685 176.018 38.6821 176.523 39.2064C177.029 39.7306 177.318 40.4268 177.331 41.1551V43.2157C177.574 42.5804 178.037 42.0535 178.636 41.731C179.235 41.4086 179.93 41.312 180.594 41.4589C181.258 41.6058 181.847 41.9864 182.254 42.5314C182.661 43.0764 182.858 43.7495 182.81 44.4279V45.7369C183.071 45.2784 183.46 44.9058 183.929 44.6647C184.399 44.4236 184.928 44.3244 185.453 44.3793C186.171 44.4706 186.826 44.8379 187.279 45.4035C187.731 45.9691 187.946 46.6886 187.877 47.4097L186.689 59.9433C185.911 67.0095 184.45 73.9837 182.325 80.7679C182.3 81.9006 182.037 83.0154 181.555 84.0407C181.073 85.0659 180.381 85.979 179.525 86.721C178.669 87.4631 177.667 88.0177 176.583 88.3494C175.5 88.681 174.359 88.7824 173.234 88.6468C172.216 88.6808 171.203 88.4954 170.263 88.1033C169.323 87.7112 168.478 87.1215 167.786 86.3742C167.094 85.6269 166.571 84.7395 166.252 83.7722C165.933 82.8049 165.826 81.7803 165.937 80.7679Z" fill="#FBBEAA"/>
    <path d="M84.239 476.411C84.239 474.077 85.1662 471.839 86.8165 470.188C88.4669 468.538 90.7052 467.611 93.0392 467.611C95.3731 467.611 97.6115 468.538 99.2618 470.188C100.912 471.839 101.839 474.077 101.839 476.411V495.539H84.239V476.411Z" fill="#FBBEAA"/>
    <path d="M101.21 479.975C103.367 479.975 103.755 480.92 104.386 482.157C105.408 485.452 107.156 488.475 109.501 491.005C113.002 493.987 116.758 496.656 120.725 498.981V509.115H81.5488C81.5488 509.115 81.8155 501.115 82.0094 495.466C82.2034 489.818 82.761 482.933 82.7125 482.205C82.664 481.478 82.7125 479.975 84.0458 479.975H101.21Z" fill="#302D3B"/>
    <path d="M86.4207 496.023C86.4159 497.267 86.7807 498.485 87.4688 499.521C88.1569 500.557 89.1373 501.366 90.2856 501.844C91.4339 502.322 92.6984 502.448 93.9186 502.207C95.1389 501.965 96.2598 501.367 97.1394 500.487C98.019 499.608 98.6175 498.487 98.859 497.267C99.1005 496.046 98.9741 494.782 98.4959 493.634C98.0176 492.485 97.2091 491.505 96.1728 490.817C95.1365 490.129 93.9193 489.764 92.6754 489.769C91.0185 489.775 89.4313 490.436 88.2597 491.608C87.0881 492.779 86.4271 494.366 86.4207 496.023Z" fill="#0447BA"/>
    <path d="M92.6757 492.339L91.2454 494.448L88.7969 495.151L90.3484 497.163L90.2757 499.708L92.6757 498.836L95.0758 499.708L94.9788 497.163L96.5546 495.151L94.1061 494.448L92.6757 492.339Z" fill="white"/>
    <path d="M120.458 498.812C120.458 498.812 126.01 501.745 128.095 503.175C129.06 503.829 129.844 504.717 130.374 505.755C130.904 506.794 131.162 507.95 131.125 509.115H115.9C115.9 509.115 116.216 501.672 120.458 498.812Z" fill="white"/>
    <path d="M81.5488 509.115V513.309C81.5488 514.012 82.1792 514.4 83.2459 514.4H129.453C130.495 514.4 131.125 514.012 131.125 513.309V509.115H81.5488Z" fill="white"/>
    <path d="M115.9 495.975C116.035 495.769 116.244 495.623 116.484 495.569C116.724 495.515 116.975 495.556 117.185 495.684C117.29 495.748 117.38 495.833 117.452 495.933C117.523 496.033 117.574 496.146 117.601 496.265C117.628 496.385 117.631 496.509 117.61 496.63C117.588 496.751 117.543 496.866 117.476 496.969L115.852 499.587C115.774 499.723 115.66 499.835 115.524 499.912C115.387 499.989 115.233 500.027 115.076 500.024C114.897 500.021 114.721 499.971 114.567 499.878C114.462 499.814 114.372 499.729 114.3 499.63C114.229 499.53 114.178 499.417 114.151 499.297C114.124 499.177 114.121 499.053 114.143 498.933C114.164 498.812 114.209 498.696 114.276 498.593L115.9 495.975Z" fill="white"/>
    <path d="M113.04 493.963C113.119 493.87 113.216 493.795 113.325 493.74C113.434 493.685 113.553 493.652 113.674 493.643C113.796 493.634 113.918 493.649 114.034 493.687C114.15 493.726 114.257 493.786 114.349 493.866C114.441 493.945 114.517 494.042 114.572 494.151C114.627 494.26 114.66 494.379 114.669 494.5C114.678 494.622 114.663 494.744 114.624 494.86C114.586 494.975 114.526 495.083 114.446 495.175L112.555 497.405C112.468 497.507 112.36 497.59 112.239 497.649C112.118 497.707 111.986 497.74 111.852 497.745C111.676 497.741 111.505 497.689 111.358 497.594C111.21 497.499 111.092 497.364 111.016 497.206C110.941 497.047 110.911 496.871 110.93 496.696C110.949 496.522 111.017 496.356 111.125 496.217L113.04 493.963Z" fill="white"/>
    <path d="M110.349 491.709C110.542 491.584 110.774 491.534 111.001 491.568C111.227 491.602 111.434 491.717 111.583 491.892C111.731 492.067 111.811 492.29 111.807 492.519C111.803 492.749 111.716 492.969 111.561 493.139L109.404 495.006C109.235 495.149 109.019 495.226 108.798 495.224C108.664 495.229 108.531 495.203 108.41 495.148C108.288 495.093 108.18 495.011 108.095 494.909C108.005 494.825 107.934 494.723 107.885 494.611C107.836 494.498 107.811 494.377 107.811 494.254C107.811 494.131 107.836 494.01 107.885 493.897C107.934 493.785 108.005 493.683 108.095 493.6L110.349 491.709Z" fill="white"/>
    <path d="M105.621 490.593L108.046 489.09C108.258 488.964 108.512 488.927 108.752 488.986C108.992 489.045 109.2 489.195 109.33 489.405C109.396 489.51 109.44 489.626 109.46 489.748C109.479 489.87 109.474 489.995 109.445 490.114C109.415 490.234 109.362 490.347 109.289 490.446C109.215 490.545 109.122 490.628 109.015 490.69L106.591 492.193C106.447 492.289 106.279 492.339 106.106 492.339C105.948 492.335 105.794 492.291 105.658 492.21C105.522 492.129 105.409 492.015 105.33 491.878C105.202 491.668 105.161 491.417 105.215 491.177C105.27 490.937 105.415 490.727 105.621 490.593Z" fill="white"/>
    <path d="M103.585 487.466L106.3 486.327C106.532 486.23 106.792 486.23 107.024 486.325C107.256 486.421 107.44 486.605 107.536 486.836C107.584 486.949 107.608 487.07 107.608 487.192C107.608 487.315 107.584 487.436 107.536 487.549C107.489 487.662 107.419 487.764 107.332 487.85C107.245 487.935 107.141 488.003 107.027 488.048L104.312 489.188H103.949C103.739 489.176 103.54 489.096 103.381 488.959C103.223 488.822 103.114 488.637 103.073 488.431C103.031 488.226 103.059 488.013 103.151 487.825C103.244 487.637 103.397 487.485 103.585 487.394V487.466Z" fill="white"/>
    <path d="M101.888 483.975L104.894 483.223C105.132 483.165 105.383 483.204 105.592 483.332C105.802 483.459 105.952 483.664 106.009 483.902C106.067 484.14 106.028 484.391 105.901 484.6C105.774 484.809 105.569 484.959 105.331 485.017L102.349 485.793H102.131C101.922 485.791 101.719 485.721 101.553 485.594C101.387 485.468 101.267 485.291 101.209 485.09C101.157 484.852 101.199 484.604 101.325 484.396C101.452 484.189 101.653 484.038 101.888 483.975Z" fill="white"/>
    <path d="M71.366 354.082C71.6326 342.348 79.5358 336.676 91.245 336.967C102.954 337.257 111.391 343.391 111.124 355.1L101.839 477.357H84.2389L71.366 354.082Z" fill="#FBBEAA"/>
    <path d="M69.84 354.009C69.9052 351.223 70.5185 348.478 71.6449 345.929C72.7712 343.38 74.3885 341.078 76.4044 339.155C78.4203 337.231 80.7953 335.723 83.3939 334.718C85.9925 333.712 88.7637 333.228 91.5494 333.293C94.3351 333.359 97.0806 333.972 99.6292 335.098C102.178 336.224 104.48 337.842 106.403 339.858C108.327 341.874 109.835 344.249 110.84 346.847C111.846 349.446 112.33 352.217 112.265 355.003L115.178 481.465H67.2502L69.84 354.009Z" fill="#013EA5"/>
    <path d="M10.0562 476.411C10.0562 474.077 10.9833 471.839 12.6337 470.188C14.284 468.538 16.5224 467.611 18.8563 467.611C21.1903 467.611 23.4286 468.538 25.079 470.188C26.7293 471.839 27.6565 474.077 27.6565 476.411V495.539H10.0562V476.411Z" fill="#FBBEAA"/>
    <path d="M27.0019 479.975C29.1838 479.975 29.5717 480.92 30.1778 482.157C31.2117 485.452 32.9675 488.475 35.3172 491.005C38.8136 493.993 42.5701 496.662 46.5417 498.981V509.115H7.36523C7.36523 509.115 7.63191 501.115 7.82585 495.466C8.0198 489.818 8.55316 482.933 8.52892 482.205C8.50467 481.478 8.5289 479.975 9.83801 479.975H27.0019Z" fill="#302D3B"/>
    <path d="M12.2142 496.023C12.2094 497.266 12.5735 498.482 13.2605 499.518C13.9476 500.554 14.9265 501.363 16.0734 501.842C17.2203 502.32 18.4835 502.448 19.7031 502.209C20.9227 501.969 22.0437 501.373 22.9243 500.496C23.8048 499.619 24.4052 498.5 24.6495 497.281C24.8937 496.063 24.7708 494.799 24.2963 493.65C23.8218 492.502 23.017 491.52 21.9839 490.829C20.9509 490.137 19.736 489.769 18.4931 489.769C16.832 489.769 15.2386 490.427 14.0618 491.599C12.885 492.771 12.2206 494.362 12.2142 496.023Z" fill="#0447BA"/>
    <path d="M18.4687 492.339L17.0384 494.448L14.5898 495.151L16.1657 497.163L16.0929 499.708L18.4687 498.836L20.8688 499.708L20.796 497.163L22.3718 495.151L19.899 494.448L18.4687 492.339Z" fill="white"/>
    <path d="M46.2505 498.812C46.2505 498.812 51.8263 501.745 53.887 503.175C54.8571 503.824 55.6449 504.711 56.1754 505.751C56.7059 506.79 56.9613 507.949 56.9173 509.115H41.6201C41.6201 509.115 42.0323 501.672 46.2505 498.812Z" fill="white"/>
    <path d="M7.36523 509.115V513.309C7.36523 514.012 7.97131 514.4 9.038 514.4H55.2933C56.36 514.4 56.9661 514.012 56.9661 513.309V509.115H7.36523Z" fill="white"/>
    <path d="M41.7175 495.975C41.8493 495.766 42.0587 495.618 42.2997 495.564C42.5406 495.509 42.7934 495.552 43.0023 495.684C43.2113 495.816 43.3593 496.025 43.4139 496.266C43.4685 496.507 43.4251 496.76 43.2933 496.969L41.669 499.587C41.5849 499.723 41.467 499.835 41.3267 499.911C41.1865 499.988 41.0287 500.027 40.869 500.024C40.6965 500.024 40.5278 499.974 40.3841 499.878C40.2796 499.814 40.189 499.729 40.1176 499.63C40.0462 499.53 39.9954 499.417 39.9683 499.297C39.9412 499.177 39.9383 499.053 39.9597 498.933C39.9812 498.812 40.0266 498.696 40.0932 498.593L41.7175 495.975Z" fill="white"/>
    <path d="M38.8321 493.963C38.9919 493.777 39.2178 493.66 39.4621 493.637C39.7064 493.615 39.9499 493.688 40.1412 493.842C40.3289 494.006 40.4462 494.236 40.4688 494.484C40.4914 494.732 40.4175 494.98 40.2624 495.175L38.3472 497.405C38.2632 497.511 38.1563 497.597 38.0345 497.655C37.9128 497.714 37.7793 497.745 37.6442 497.745C37.4665 497.747 37.292 497.697 37.1419 497.602C36.9918 497.507 36.8724 497.37 36.798 497.209C36.7237 497.047 36.6977 496.868 36.7231 496.692C36.7485 496.516 36.8242 496.351 36.9411 496.217L38.8321 493.963Z" fill="white"/>
    <path d="M36.1658 491.709C36.3587 491.584 36.5902 491.534 36.8171 491.568C37.0441 491.602 37.251 491.717 37.3994 491.892C37.5477 492.067 37.6273 492.29 37.6234 492.519C37.6195 492.749 37.5322 492.969 37.378 493.139L35.1961 495.006C35.027 495.149 34.8118 495.226 34.5901 495.224C34.4568 495.227 34.3246 495.2 34.203 495.146C34.0814 495.091 33.9734 495.01 33.887 494.909C33.8005 494.823 33.7319 494.721 33.685 494.609C33.6381 494.496 33.614 494.376 33.614 494.254C33.614 494.132 33.6381 494.012 33.685 493.899C33.7319 493.787 33.8005 493.685 33.887 493.6L36.1658 491.709Z" fill="white"/>
    <path d="M31.4384 490.593L33.8627 489.09C34.0718 489.002 34.3057 488.992 34.5217 489.062C34.7376 489.132 34.9212 489.277 35.0389 489.471C35.1565 489.665 35.2004 489.895 35.1625 490.119C35.1246 490.343 35.0074 490.546 34.8324 490.69L32.4081 492.193C32.2644 492.289 32.0957 492.339 31.9233 492.339C31.7617 492.337 31.6033 492.293 31.4632 492.213C31.3232 492.132 31.2061 492.017 31.1233 491.878C30.9973 491.665 30.9598 491.412 31.0187 491.171C31.0776 490.931 31.2283 490.724 31.4384 490.593Z" fill="white"/>
    <path d="M165.647 82.3926L155.95 143.266C154.35 150.903 156.822 157.812 165.647 159.024C167.276 159.236 168.931 159.115 170.511 158.668C172.092 158.221 173.565 157.458 174.842 156.424C176.118 155.39 177.171 154.107 177.937 152.654C178.702 151.201 179.165 149.607 179.295 147.969L182.253 82.5138C183.029 76.3319 180.338 72.2106 175.635 71.7015C169.865 71.0712 166.81 74.4895 165.647 82.3926Z" fill="#FBBEAA"/>
    <path d="M29.4027 487.466L32.1179 486.327C32.2308 486.28 32.352 486.255 32.4744 486.255C32.5968 486.255 32.7179 486.28 32.8308 486.327C32.9436 486.374 33.0459 486.444 33.1316 486.531C33.2174 486.619 33.2848 486.722 33.3301 486.836C33.4206 487.062 33.4207 487.313 33.3304 487.539C33.2401 487.765 33.0664 487.947 32.8452 488.048L30.1058 489.188C29.994 489.213 29.8781 489.213 29.7664 489.188C29.5797 489.188 29.3972 489.132 29.2419 489.029C29.0866 488.925 28.9654 488.778 28.8936 488.606C28.82 488.387 28.8315 488.148 28.9258 487.937C29.0201 487.726 29.1904 487.558 29.4027 487.466Z" fill="white"/>
    <path d="M27.7046 483.975L30.6865 483.224C30.9275 483.165 31.182 483.203 31.3952 483.33C31.6083 483.457 31.763 483.662 31.8259 483.902C31.8548 484.02 31.8601 484.142 31.8417 484.262C31.8232 484.382 31.7812 484.497 31.7181 484.601C31.655 484.704 31.5721 484.795 31.4741 484.866C31.3761 484.938 31.265 484.989 31.1471 485.017L28.1652 485.793H27.9228C27.7044 485.777 27.4985 485.684 27.3405 485.533C27.1824 485.381 27.0819 485.179 27.0561 484.962C27.0304 484.744 27.081 484.524 27.1992 484.34C27.3175 484.156 27.4961 484.018 27.7046 483.951V483.975Z" fill="white"/>
    <path d="M19.681 353.718C20.8718 348.215 24.1992 343.41 28.9317 340.36C33.6641 337.309 39.4142 336.263 44.9178 337.451C56.3846 339.875 62.5665 351.173 60.0938 362.639L27.6569 479.369H9.83838L19.681 353.718Z" fill="#FBBEAA"/>
    <path d="M19.6809 351.415C20.9966 346.044 24.3552 341.398 29.0427 338.465C33.7302 335.532 39.3768 334.543 44.7822 335.708C50.1876 336.873 54.9254 340.1 57.9885 344.704C61.0515 349.308 62.1981 354.924 61.1846 360.36L49.7857 480.331C49.7857 480.331 18.9003 482.174 0.5 480.331L19.6809 351.415Z" fill="#013EA5"/>
    <path d="M173.526 136.527L103.9 83.6288C95.7791 78.4408 90.2518 81.2045 85.9366 86.7561C83.9659 89.4432 83.0522 92.7611 83.3696 96.0782C83.687 99.3953 85.2133 102.48 87.6578 104.744L157.114 155.921C159.561 157.988 162.712 159.031 165.91 158.832C169.107 158.634 172.105 157.209 174.277 154.854L174.593 154.515C175.746 153.285 176.636 151.832 177.21 150.247C177.783 148.661 178.027 146.975 177.927 145.291C177.828 143.608 177.386 141.963 176.629 140.456C175.872 138.949 174.816 137.612 173.526 136.527Z" fill="#FBBEAA"/>
    <path d="M87.6575 104.72C87.0146 104.167 86.4298 103.55 85.912 102.878C85.4542 101.152 85.3953 99.3453 85.7397 97.5938C86.0842 95.8422 86.8229 94.1921 87.9 92.7685C91.5606 87.1199 99.2456 82.6835 102.664 83.532L106.058 85.2532L144.483 114.345C141.082 122.337 136.488 129.767 130.858 136.381L87.6575 104.72Z" fill="#F18380"/>
    <path d="M98.1544 79.8468L158.407 120.484C158.153 122.562 163.036 79.8468 163.036 79.8468L185.337 81.9284C185.337 81.9284 184.035 125.418 180.753 148.386C179.45 157.501 171.863 160.957 162.867 158.995C158.426 158.026 154.244 156.203 150.523 153.591C134.534 142.368 89.6764 110.757 86.0088 106.781C79.6814 99.9199 79.6814 94.7804 83.3178 89.1318C86.9543 83.4832 94.7362 78.9983 98.1544 79.8468Z" fill="#013EA5"/>
    <path d="M69.8389 354.009L57.4023 223.801C57.4023 209.425 72.2147 193.764 94.0575 197.134C113.791 200.213 119.803 220.043 118.179 238.832C116.555 257.62 112.167 354.93 112.167 354.93C112.102 357.716 111.488 360.462 110.362 363.01C109.236 365.559 107.618 367.861 105.603 369.784C103.587 371.708 101.212 373.216 98.613 374.221C96.0144 375.227 93.2431 375.711 90.4575 375.646C87.6718 375.581 84.9263 374.967 82.3776 373.841C79.829 372.715 77.5271 371.097 75.6035 369.081C73.6799 367.066 72.1722 364.691 71.1665 362.092C70.1608 359.493 69.6767 356.722 69.742 353.936L69.8389 354.009Z" fill="#013EA5"/>
    <path d="M19.6811 351.415L32.045 221.231C34.6632 207.098 52.2393 194.564 73.0639 201.982C91.8521 208.698 94.0339 229.304 88.8944 247.462C83.7549 265.62 61.1849 360.361 61.1849 360.361C59.8691 365.731 56.5105 370.377 51.8231 373.31C47.1356 376.243 41.4889 377.233 36.0836 376.068C30.6782 374.903 25.9403 371.675 22.8773 367.071C19.8143 362.468 18.6676 356.851 19.6811 351.415Z" fill="#013EA5"/>
    <path d="M88.8941 247.462C83.7789 265.62 61.1846 360.361 61.1846 360.361" stroke="#E9E9E9" stroke-width="0.75" stroke-miterlimit="10"/>
    <path d="M85.2574 77.786C85.2574 77.786 95.9728 79.6527 98.0577 80.2103C99.2881 80.499 100.425 81.0953 101.362 81.9433C102.299 82.7913 103.006 83.8633 103.415 85.0588C104.749 88.2346 111.609 109.035 112.24 111.29C112.666 113.773 112.266 116.328 111.1 118.562C110.106 121.278 104.967 133.642 104.967 133.642L104.191 173.472L75.2465 178.063L47.5114 173.472C47.5114 173.472 37.8142 99.3864 37.3294 94.8045C36.8445 90.2226 39.1233 81.374 44.6022 80.2588C50.0811 79.1436 65.1117 77.8345 65.1117 77.8345L85.2574 77.786Z" fill="#FBBEAA"/>
    <path d="M105.55 157.457V171.46C86.5924 173.206 56.3846 171.97 45.039 171.46C44.5056 167.46 43.948 160.672 43.3662 156.163C58.8089 156.551 84.3136 157.99 105.55 157.457Z" fill="white"/>
    <path d="M5.57125 169.909L36.6263 88.1862C40.7718 79.4588 46.9053 78.877 53.5963 81.3013C56.6911 82.5358 59.2226 84.8671 60.7073 87.8499C62.192 90.8327 62.5258 94.2579 61.6449 97.4713L29.6686 177.739C28.6994 180.793 26.5847 183.353 23.7685 184.88C20.9524 186.408 17.6538 186.786 14.5653 185.933L14.1047 185.812C12.4756 185.368 10.954 184.596 9.63286 183.544C8.31168 182.492 7.21855 181.183 6.4201 179.695C5.62164 178.207 5.13461 176.571 4.98867 174.889C4.84273 173.207 5.04095 171.512 5.57125 169.909Z" fill="#FBBEAA"/>
    <path d="M18.4438 136.017L36.626 88.1861C37.1136 87.1372 37.6894 86.1316 38.3472 85.18C40.5744 83.7856 43.1241 82.9904 45.749 82.8715C48.374 82.7525 50.9852 83.3139 53.3293 84.5012C56.0514 85.8258 58.2394 88.0403 59.5312 90.7781C60.8229 93.5159 61.1409 96.6128 60.4324 99.556C60.4324 99.8469 60.2628 100.405 60.1173 101.156L41.3533 148.308C33.1573 145.353 25.4388 141.212 18.4438 136.017Z" fill="#F18380"/>
    <path d="M39.0552 82.6843C33.7633 89.4883 3.146 172.646 3.146 172.646C31.4953 163.574 28.8352 139.057 44.2537 141.651C44.2537 141.651 62.0332 99.92 62.712 96.1866C63.4205 93.2434 63.1025 90.1466 61.8108 87.4088C60.519 84.671 58.331 82.4564 55.6089 81.1318C48.0209 77.253 44.347 75.8803 39.0552 82.6843Z" fill="#0045BA"/>
    <path d="M90.4958 77.7705C96.099 78.836 98.6313 78.9633 100.054 79.9015C102.305 81.4118 113.897 101.876 113.897 111.111C113.897 119.28 111.92 184.631 110.272 185.696C108.624 186.762 79.1221 188.144 79.1221 188.144V95.604C82.1163 86.3363 88.3722 83.7659 90.4958 77.7705Z" fill="#0045BA"/>
    <path d="M100.054 79.9015C98.6313 78.9633 93.041 78.08 87.4379 77.0145C85.3143 83.0099 82.1163 86.3363 79.1221 95.604V111.111H113.897C113.897 101.876 102.305 81.4118 100.054 79.9015Z" fill="#9A99A1"/>
    <path d="M78.7442 74.7466C71.7892 74.7466 65.5145 71.7226 63.2466 70.2107V77.0145C63.4986 77.3925 65.4389 78.6021 71.1844 80.4164C76.9299 82.2308 85.1701 81.5504 88.572 80.4164V73.6126C88.572 73.9906 87.438 74.7466 78.7442 74.7466Z" fill="#034CC9"/>
    <path d="M113.886 112.546H79.1221V104.986L112.898 105.316C113.557 107.915 113.971 109.771 113.886 112.546Z" fill="#D3D4D2"/>
    <path d="M34.6022 181.447C34.6022 173.879 33.4012 155.888 40.1418 138.473C46.0074 139.894 58.7554 96.7417 46.0074 82.3585C41.7711 77.5788 38.0473 84.495 39.1642 82.7136C40.2811 80.9323 41.5191 79.1839 43.3432 78.3454C46.5975 76.7665 53.8282 77.0312 60.3456 77.0312C68.1665 86.6204 76.2669 88.7551 79.1223 95.6198V188.11C79.1223 188.11 34.6022 189.015 34.6022 181.447Z" fill="#034CC9"/>
    <path d="M34.6022 181.447C34.6022 173.879 33.4012 155.888 40.1418 138.473C46.0074 139.894 58.7554 96.7417 46.0074 82.3585C41.7711 77.5788 38.0473 84.495 39.1642 82.7136C40.2811 80.9323 41.5191 79.1839 43.3432 78.3454C46.5975 76.7665 53.8282 77.0312 60.3456 77.0312C68.1665 86.6204 76.2669 88.7551 79.1223 95.6198V188.11C79.1223 188.11 34.6022 189.015 34.6022 181.447Z" fill="#034CC9"/>
    <path d="M39.0548 82.6844C37.9378 84.4658 41.7706 77.5787 46.0069 82.3584C51.362 88.4004 52.2181 99.519 50.9751 110.278H79.1218L79.1218 81.5504C71.562 80.7944 67.7821 79.6605 63.2462 77.0145C56.7288 77.0145 46.4668 76.5696 43.2126 78.1485C41.3885 78.987 40.1717 80.9031 39.0548 82.6844Z" fill="#A2A0AB"/>
    <path d="M79.1221 188.144C81.0537 187.496 82.7441 186.247 83.9621 184.569C85.18 182.891 85.8659 180.865 85.9259 178.768V75.1245H79.1221V188.144Z" fill="#034CC9"/>
    <path d="M51.3982 104.986H85.9258V112.546H50.6903C51.1507 109.144 51.3982 107.632 51.3982 104.986Z" fill="#CFD1CE"/>
    <g style="mix-blend-mode:multiply" opacity="0.4">
        <path d="M78.3662 81.3955L79.1222 81.5504V188.144H78.3662V81.3955Z" fill="#013FA9"/>
    </g>
    <path d="M67.8269 131.532L29.2323 179.606C24.6504 185.909 17.8624 188.721 11.0987 183.048C9.84769 181.985 8.82565 180.679 8.09456 179.209C7.36347 177.74 6.93856 176.137 6.84562 174.498C6.75267 172.859 6.99363 171.218 7.55386 169.675C8.11409 168.132 8.98192 166.718 10.1047 165.521L56.6025 119.459C60.651 114.732 65.5238 113.98 69.0633 117.035C73.3543 120.841 72.8452 125.302 67.8269 131.532Z" fill="#FBBEAA"/>
    <path d="M54.2748 121.981C58.5658 117.641 66.5901 108.283 69.3053 106.005C71.9901 103.982 74.9232 102.311 78.0328 101.035C80.392 100.244 82.8309 99.7161 85.3056 99.459C87.0269 99.2408 87.7299 99.7499 87.7299 100.792C87.6866 101.413 87.4887 102.014 87.1543 102.539C86.8198 103.064 86.3593 103.497 85.8147 103.798H88.9905C90.0814 103.798 90.7845 104.671 90.2754 106.077C89.813 107.006 89.1521 107.822 88.3393 108.467C87.5266 109.113 86.5819 109.571 85.5723 109.811C85.5723 109.811 89.8633 110.223 90.9542 110.441C92.0451 110.659 92.3845 111.071 92.3845 112.114C92.3751 112.834 92.175 113.539 91.8045 114.156C91.434 114.774 90.9063 115.282 90.2754 115.629C88.731 116.256 87.0916 116.616 85.4268 116.696C85.4268 116.696 90.736 118.029 91.8027 118.417C92.8694 118.805 92.9906 119.508 92.433 120.429C92.1153 121.078 91.6565 121.648 91.0902 122.096C90.524 122.545 89.8646 122.862 89.1602 123.023C87.1481 123.556 85.7905 122.684 85.0632 122.805C83.5005 123.308 81.9704 123.907 80.4813 124.599C78.2452 126.825 75.5112 128.487 72.5054 129.447C70.2681 130.386 68.2158 131.716 66.4447 133.375C65.6197 134.149 64.6479 134.75 63.5866 135.142C62.5254 135.534 61.3963 135.709 60.2662 135.657C59.136 135.605 58.0278 135.327 57.007 134.839C55.9863 134.351 55.0737 133.664 54.3233 132.817C50.4444 128.696 51.099 125.253 54.2748 121.981Z" fill="#FBBEAA"/>
    <path d="M68.5383 136.737L29.5118 180.622C24.8351 186.855 13.9066 190.281 7.22946 184.506C5.99468 183.424 4.99252 182.103 4.28376 180.622C3.57499 179.141 3.17438 177.532 3.10624 175.892C3.03811 174.252 3.30386 172.615 3.88738 171.08C4.47089 169.546 5.36001 168.146 6.50081 166.966L53.7966 117.46L68.5383 136.737Z" fill="#0045BA"/>
    <path d="M85.282 103.823C85.2889 103.863 85.2873 103.904 85.2773 103.943C85.2673 103.983 85.2492 104.02 85.2241 104.052C85.199 104.084 85.1674 104.11 85.1314 104.129C85.0955 104.148 85.056 104.159 85.0154 104.162L83.0275 104.356H82.0578C81.7184 104.356 81.4032 104.477 81.0638 104.501C80.7053 104.609 80.3565 104.747 80.0214 104.914L78.9062 105.374C77.4031 105.98 75.9001 106.538 74.7849 106.95C73.6697 107.362 72.894 107.605 72.894 107.605C72.8325 107.63 72.7635 107.632 72.7007 107.61C72.6379 107.587 72.5857 107.542 72.5546 107.483C72.5093 107.424 72.4849 107.352 72.4849 107.277C72.4849 107.203 72.5093 107.13 72.5546 107.071L74.3728 106.126L76.2637 105.229C76.9425 104.914 77.694 104.598 78.4455 104.307L79.585 103.871C79.9514 103.705 80.333 103.576 80.7244 103.483L81.8881 103.362H82.882H84.3608H84.9184C84.9795 103.314 85.0572 103.292 85.1345 103.301C85.2118 103.31 85.2824 103.349 85.3306 103.41C85.3788 103.472 85.4008 103.549 85.3917 103.627C85.3826 103.704 85.3431 103.774 85.282 103.823ZM84.8214 109.665H84.3851C84.0222 109.633 83.657 109.633 83.2941 109.665L82.5426 109.786C82.2656 109.821 81.9905 109.87 81.7183 109.932L80.0699 110.465C78.9547 110.829 77.8638 111.289 77.0395 111.629C77.0395 111.629 76.7728 111.629 76.7971 111.75H76.5062L76.0698 111.871H75.8031H75.6576C75.5844 111.889 75.5208 111.934 75.4802 111.997C75.4395 112.06 75.4249 112.137 75.4395 112.211C75.45 112.269 75.4796 112.322 75.5234 112.361C75.5673 112.401 75.623 112.424 75.6819 112.429H76.9183H77.3061C78.1546 112.211 79.294 111.871 80.4092 111.483L82.0335 110.877L82.785 110.683L83.4396 110.489C83.7744 110.39 84.1143 110.309 84.4578 110.247L84.87 110.126C84.9066 110.115 84.9407 110.096 84.9703 110.072C84.9999 110.048 85.0244 110.018 85.0424 109.984C85.0604 109.95 85.0716 109.913 85.0753 109.875C85.0789 109.837 85.0751 109.799 85.0639 109.762C85.0352 109.727 84.9978 109.699 84.9553 109.682C84.9129 109.665 84.8668 109.659 84.8214 109.665ZM84.8214 116.55H83.9245C83.682 116.55 83.3669 116.55 83.0517 116.72L82.0578 117.035C81.4323 117.255 80.8245 117.523 80.2396 117.835C79.9706 117.961 79.7113 118.107 79.4638 118.271C79.4143 118.329 79.3871 118.402 79.3871 118.477C79.3871 118.553 79.4143 118.626 79.4638 118.684C79.5334 118.757 79.6291 118.801 79.7304 118.805L80.6275 118.659C81.1366 118.538 81.7911 118.344 82.4457 118.126L83.3911 117.738L84.2154 117.423C84.4898 117.301 84.757 117.164 85.0154 117.011C85.084 116.97 85.1346 116.905 85.1571 116.829C85.1796 116.752 85.1723 116.67 85.1366 116.599C85.0648 116.553 84.9782 116.535 84.8942 116.55H84.8214Z" fill="#F18380"/>
    <path d="M166.422 61.3739C165.501 61.3739 165.428 60.7921 165.016 59.7254C167.077 59.7254 173.065 60.1132 175.683 65.1558C173.041 61.5193 167.974 61.3739 166.422 61.3739ZM171.126 42.1978C171.126 42.1978 170.98 43.0463 170.835 44.2827C170.835 44.913 170.689 45.6645 170.641 46.4403C170.592 47.2161 170.519 48.0646 170.447 48.8646C170.447 50.5616 170.326 52.2343 170.326 53.495C170.326 54.7556 170.326 55.6041 170.326 55.6041C170.325 55.6444 170.334 55.6844 170.35 55.7213C170.366 55.7583 170.389 55.7915 170.419 55.8188C170.449 55.8462 170.484 55.8671 170.522 55.8803C170.56 55.8934 170.6 55.8983 170.641 55.895C170.709 55.8915 170.774 55.866 170.827 55.8223C170.879 55.7786 170.916 55.7191 170.932 55.6526C170.932 55.6526 171.077 54.804 171.198 53.5434C171.319 52.2828 171.513 50.61 171.586 48.9373C171.586 48.0888 171.586 47.2403 171.586 46.513C171.586 45.7857 171.586 44.9857 171.586 44.3554C171.586 43.0706 171.586 42.2462 171.586 42.2462C171.586 42.2059 171.578 42.166 171.562 42.1291C171.546 42.0921 171.522 42.0588 171.493 42.0315C171.463 42.0041 171.428 41.9832 171.39 41.9701C171.352 41.957 171.311 41.952 171.271 41.9553C171.225 41.9821 171.186 42.0212 171.161 42.0682C171.135 42.1153 171.123 42.1685 171.126 42.2221V42.1978ZM176.75 43.8948C176.75 43.8948 176.604 44.6221 176.435 45.6888C176.435 46.2463 176.265 46.8766 176.192 47.5554C176.12 48.2342 176.047 48.9615 175.974 49.6888C175.974 51.1434 175.804 52.5979 175.78 53.6889C175.756 54.7798 175.78 55.5313 175.78 55.5313C175.783 55.5696 175.794 55.6068 175.811 55.641C175.829 55.6751 175.853 55.7055 175.882 55.7303C175.911 55.7551 175.945 55.7739 175.982 55.7855C176.019 55.7971 176.057 55.8014 176.095 55.7981C176.161 55.7935 176.222 55.7671 176.271 55.7231C176.319 55.6791 176.351 55.6201 176.362 55.5556C176.362 55.5556 176.507 54.8283 176.677 53.7616C176.847 52.6949 176.992 51.2161 177.114 49.7858C177.114 49.0585 177.114 48.3312 177.259 47.6524C177.404 46.9736 177.259 46.3191 177.259 45.7615C177.259 44.6706 177.259 43.9433 177.259 43.9433C177.259 43.9029 177.251 43.8631 177.235 43.8261C177.219 43.7891 177.195 43.7559 177.165 43.7285C177.136 43.7011 177.101 43.6803 177.063 43.6672C177.024 43.6541 176.984 43.649 176.944 43.6524C176.89 43.6746 176.843 43.7112 176.809 43.7583C176.775 43.8054 176.754 43.861 176.75 43.919V43.8948ZM182.18 46.1978C182.18 46.1978 182.035 46.8039 181.841 47.7251C181.841 48.1615 181.647 48.6949 181.574 49.2767C181.501 49.8586 181.405 50.4646 181.308 51.0707C181.138 52.3071 181.065 53.4949 181.017 54.4647C180.968 55.4344 181.017 56.0162 181.017 56.0162C181.016 56.0566 181.025 56.0964 181.041 56.1334C181.057 56.1704 181.081 56.2036 181.11 56.231C181.14 56.2584 181.175 56.2792 181.213 56.2923C181.251 56.3054 181.292 56.3105 181.332 56.3071C181.394 56.3039 181.453 56.281 181.501 56.2417C181.549 56.2025 181.583 56.149 181.598 56.089C181.598 56.089 181.768 55.4829 181.938 54.5859C182.108 53.6889 182.35 52.4283 182.495 51.2161C182.495 50.5858 182.617 49.9797 182.665 49.3979C182.714 48.8161 182.665 48.2828 182.665 47.8221C182.665 46.9009 182.665 46.2706 182.665 46.2706C182.665 46.2302 182.657 46.1903 182.641 46.1534C182.625 46.1164 182.601 46.0831 182.572 46.0558C182.542 46.0284 182.507 46.0076 182.469 45.9945C182.431 45.9814 182.39 45.9763 182.35 45.9797C182.305 46.0046 182.267 46.0394 182.237 46.0814C182.208 46.1234 182.188 46.1715 182.18 46.2221V46.1978Z" fill="#F18380"/>
    <path d="M7.30371 434.594L9.57166 419.853H55.6866L54.1746 434.972L7.30371 434.594Z" fill="#CFD1CE"/>
    <path d="M68.1604 434.594L68.5384 419.853H113.897L114.275 434.972L68.1604 434.594Z" fill="#CFD1CE"/>
    <path d="M22.4236 148.077L30.3614 141.651L46.237 161.685L39.8112 169.244L22.4236 148.077Z" fill="#CFD1CE"/>
    <path d="M158.878 115.57L160.012 106.498L184.204 108.388L183.826 117.46L158.878 115.57Z" fill="#CFD1CE"/>
</svg>
