<svg width="221" height="490" viewBox="0 0 221 490" fill="none" xmlns="http://www.w3.org/2000/svg">
    <path d="M102.117 75.5031C102.812 75.5031 104.288 75.5031 105.59 75.9371C105.59 76.9789 103.275 77.818 102.117 78.1074C101.828 77.2393 101.423 75.5031 102.117 75.5031Z" fill="#013FA9"/>
    <path d="M104.155 55.3186H76.4775V87.8691H104.155V55.3186Z" fill="#FBBEAA"/>
    <path d="M76.5465 55.3186H104.132V73.4789C102.927 73.6285 101.714 73.7053 100.5 73.7088C90.9828 73.7088 80.3395 71.1112 76.4546 62.031L76.5465 55.3186Z" fill="#F18380"/>
    <path d="M118.453 31.159C118.223 40.561 118.453 47.986 116.752 55.1581C115.051 62.3303 109.856 68.1921 98.3617 68.1921C86.8679 68.1921 73.765 64.4451 72.8455 50.0779C70.9605 48.032 67.9032 40.7449 67.7882 32.5843C67.6733 24.4237 68.3169 7.15996 86.9139 4.51639C105.511 1.87281 118.959 8.70013 118.453 31.159Z" fill="#FBBEAA"/>
    <path d="M108.729 38.5612C108.729 39.8255 109.488 40.8599 110.43 40.8599C111.373 40.8599 112.131 39.8255 112.131 38.5612C112.131 37.2968 111.373 36.2624 110.43 36.2624C109.488 36.2624 108.729 37.2049 108.729 38.5612Z" fill="#403D4F"/>
    <path d="M88.0405 38.5612C88.0405 39.8255 88.7991 40.8599 89.7416 40.8599C90.6841 40.8599 91.4427 39.8255 91.4427 38.5612C91.4427 37.2968 90.6841 36.2624 89.7416 36.2624C88.7991 36.2624 88.0405 37.2049 88.0405 38.5612Z" fill="#403D4F"/>
    <path d="M92.2012 33.7793C92.0403 33.9862 90.8219 33.7793 89.9024 33.7793C88.9829 33.7793 87.2129 33.7793 87.2129 33.5724C87.2129 33.3655 88.0864 31.9403 90.3851 32.1932C92.0402 32.3771 92.6379 33.4115 92.2012 33.7793Z" fill="#403D4F"/>
    <path d="M108.338 33.7793C108.476 33.9862 109.51 33.7793 110.315 33.7793C111.119 33.7793 112.614 33.7793 112.614 33.5724C112.407 33.0514 112.018 32.6237 111.518 32.3697C111.019 32.1157 110.444 32.0529 109.901 32.1932C108.476 32.3771 108.085 33.4115 108.338 33.7793Z" fill="#403D4F"/>
    <path d="M101.556 48.0779C103.166 48.0779 104.453 47.0204 104.499 46.2618L103.97 39.7793C103.953 39.6187 103.873 39.4712 103.749 39.3681C103.624 39.2651 103.465 39.2147 103.304 39.2276C103.225 39.2334 103.148 39.2547 103.078 39.2903C103.008 39.3258 102.945 39.3749 102.894 39.4347C102.843 39.4945 102.804 39.5639 102.779 39.6388C102.755 39.7137 102.746 39.7927 102.752 39.8713L103.258 46.1239C103.025 46.3758 102.74 46.5727 102.421 46.6999C102.103 46.8272 101.761 46.8817 101.419 46.8595C101.338 46.8533 101.257 46.8633 101.181 46.8891C101.105 46.9149 101.034 46.9559 100.974 47.0096C100.914 47.0632 100.865 47.1285 100.831 47.2015C100.797 47.2745 100.778 47.3536 100.775 47.4342C100.774 47.5972 100.836 47.7544 100.947 47.8738C101.058 47.9933 101.21 48.0662 101.373 48.0779H101.556Z" fill="#F18380"/>
    <path d="M77.8286 35.4344C77.8286 44.7101 73.2311 41.2619 73.2311 41.2619C72.0817 37.8138 70.0793 39.2965 67.4471 39.2965C64.8149 39.2965 65.1531 37.3795 62.521 31.0579C60.4152 26.0006 62.8427 17.9648 64.422 16.0197C61.8041 12.59 65.3543 10.5468 65.2315 11.0667C64.422 14.4941 67.2282 11.0494 68.6335 9.69812C83.6432 -4.73454 121.468 2.51627 121.468 2.51627L117.539 7.48773L127.215 4.81508C127.215 4.81508 126.584 10.0504 124.916 12.8608C123.528 15.2013 120.172 17.9648 120.172 17.9648L130.7 18.9374C130.7 18.9374 123.857 26.2315 114.381 27.2041C103.709 28.2994 92.2705 23.3139 92.2705 23.3139L96.482 28.1766C96.482 28.1766 85.8372 26.0056 82.3891 27.8027C80.1837 28.952 77.8286 31.2877 77.8286 35.4344Z" fill="#7D4A40"/>
    <path d="M73.351 42.9288C73.236 40.3082 72.8223 36.4463 69.0983 36.3544C65.3743 36.2624 64.8915 39.0669 65.0065 43.4805C65.1214 47.8942 69.604 51.6411 73.5349 50.124L73.351 42.9288Z" fill="#FBBEAA"/>
    <path d="M67.8794 46.1008C68.0407 46.0727 68.1842 45.982 68.279 45.8485C68.3737 45.7151 68.4118 45.5496 68.3852 45.3882C68.3853 45.2584 68.4221 45.1314 68.4912 45.0216C68.5603 44.9118 68.659 44.8237 68.776 44.7675C69.0106 44.6103 69.2866 44.5265 69.569 44.5265C69.8514 44.5265 70.1275 44.6103 70.3621 44.7675C70.4642 44.8238 70.5789 44.8534 70.6954 44.8534C70.812 44.8534 70.9267 44.8238 71.0288 44.7675C71.1224 44.7056 71.1975 44.6195 71.2461 44.5183C71.2947 44.4171 71.3149 44.3046 71.3046 44.1928C70.9828 40.4918 68.615 39.8022 68.5231 39.7792C68.4446 39.755 68.362 39.7472 68.2804 39.7563C68.1987 39.7655 68.1199 39.7913 68.0487 39.8323C67.9775 39.8733 67.9155 39.9285 67.8666 39.9945C67.8177 40.0605 67.783 40.1359 67.7645 40.2159C67.7221 40.3684 67.7418 40.5314 67.8193 40.6693C67.8969 40.8071 68.026 40.9087 68.1783 40.9515C68.6375 41.1594 69.0377 41.4785 69.3427 41.8798C69.6478 42.2812 69.848 42.7522 69.9253 43.2503C69.2954 43.1477 68.6497 43.2785 68.1093 43.6181C67.7945 43.8027 67.54 44.0748 67.3768 44.4012C67.2135 44.7277 67.1486 45.0945 67.1898 45.4571C67.1859 45.5467 67.2015 45.636 67.2354 45.719C67.2694 45.802 67.3209 45.8766 67.3864 45.9378C67.4519 45.9989 67.53 46.0452 67.6151 46.0733C67.7002 46.1014 67.7904 46.1108 67.8794 46.1008Z" fill="#F18380"/>
    <path d="M99.9711 56.3536C97.752 56.2679 95.6213 55.4609 93.9023 54.0548" stroke="#73102A" stroke-width="0.5" stroke-miterlimit="10" stroke-linecap="round"/>
    <path d="M100.049 52.2852C96.8305 51.2278 93.1525 49.9865 91.8882 51.4807C90.8997 52.4921 92.233 57.2505 97.1753 58.0781C102.118 58.9056 103.888 55.5035 103.635 54.1932C103.474 53.3886 102.577 53.1358 100.049 52.2852Z" fill="#73102A"/>
    <path d="M92.0031 51.412H91.8882C90.8997 52.4234 92.233 57.1819 97.1753 58.0094C98.2491 58.2587 99.3657 58.2587 100.44 58.0094C99.607 56.3556 98.4189 54.9063 96.9604 53.7657C95.5018 52.6251 93.8089 51.8213 92.0031 51.412Z" fill="#D65155"/>
    <path d="M93.1528 50.9059C94.4551 52.3211 96.1087 53.3665 97.9458 53.9358C99.7829 54.5051 101.738 54.578 103.612 54.1471C103.428 53.3655 102.509 53.1127 100.049 52.2851C97.8661 51.3675 95.5208 50.8985 93.1528 50.9059Z" fill="white"/>
    <path d="M112.873 412.838C112.873 412.838 111.749 460.327 111.467 467.431C111.186 474.534 106.663 476.467 99.3749 477.096C92.0866 477.725 89.0167 471.972 87.9856 467.407C86.9544 462.842 80.7207 416.285 80.7207 416.285L112.873 412.838Z" fill="#FBBEAA"/>
    <path d="M65.7924 413.986C65.7924 413.986 59.5949 461.61 58.5697 468.7C57.5445 475.789 52.8614 477.297 45.5688 477.132C38.2762 476.967 35.8764 470.867 35.3405 466.18C34.8046 461.493 33.6396 413.986 33.6396 413.986H65.7924Z" fill="#FBBEAA"/>
    <path d="M46.7923 453.056C49.4392 452.869 52.0637 453.648 54.1674 455.246C56.2711 456.844 57.7076 459.15 58.2041 461.725L70.3859 474.059V481.737H31.3433C31.3433 481.737 33.3036 467.904 33.8637 464.791C34.4237 461.679 36.314 453.056 46.7923 453.056Z" fill="#FBBEAA"/>
    <path d="M58.3534 461.952C58.8041 461.34 59.4446 460.868 59.8954 461.151C60.3461 461.434 72.326 470.86 72.8953 471.332C73.2459 471.659 73.5112 472.065 73.6682 472.517C73.8253 472.969 73.8694 473.451 73.7967 473.924V484.033H30.1948C30.1948 484.033 31.9028 469.093 32.0214 468.268C32.14 467.443 32.9703 466.359 33.4448 466.383C36.4375 467.294 39.5434 467.785 42.6728 467.844C46.832 468.063 50.9809 467.253 54.7476 465.487C56.1442 464.523 57.3638 463.327 58.3534 461.952Z" fill="#302D3B"/>
    <path d="M66.581 475.841C64.5163 474.282 57.0929 468.377 54.3091 466.156L54.9586 465.826C55.0463 465.787 55.1252 465.731 55.1906 465.66C58.16 468.022 65.1427 473.597 67.1377 475.109C68.8242 476.424 69.9795 478.323 70.3855 480.447L69.4807 480.588C69.0981 478.706 68.0702 477.023 66.581 475.841Z" fill="white"/>
    <path d="M31.4841 473.698C34.5254 473.73 37.4684 474.787 39.8425 476.702C41.9883 478.617 43.4418 481.196 43.9747 484.033H42.7069C42.1883 481.575 40.9054 479.346 39.0442 477.672C36.8592 475.909 34.1427 474.95 31.3433 474.952L31.4841 473.698Z" fill="white"/>
    <path d="M81.2316 482.885H30.8322C30.4802 482.885 30.1948 483.204 30.1948 483.598V489.062C30.1948 489.456 30.4802 489.775 30.8322 489.775H81.2316C81.5836 489.775 81.8689 489.456 81.8689 489.062V483.598C81.8689 483.204 81.5836 482.885 81.2316 482.885Z" fill="white"/>
    <path d="M72.8767 471.43C73.2991 471.259 75.3666 471.834 78.0565 474.368C79.1765 475.477 79.9828 476.841 80.399 478.331C80.8152 479.821 80.8277 481.389 80.4353 482.885H66.9409C67.6968 474.709 72.4543 471.6 72.8767 471.43Z" fill="white"/>
    <path d="M67.1266 470.956C66.9895 471.157 66.9241 471.413 66.9446 471.67C66.9652 471.928 67.07 472.165 67.2364 472.331C67.318 472.411 67.4121 472.471 67.5134 472.508C67.6146 472.545 67.7209 472.558 67.8263 472.546C67.9316 472.534 68.034 472.497 68.1274 472.437C68.2208 472.378 68.3034 472.297 68.3707 472.2L70.2002 469.56C70.3373 469.36 70.4027 469.103 70.3821 468.846C70.3616 468.589 70.2568 468.352 70.0904 468.186C70.0098 468.103 69.916 468.04 69.8144 468.001C69.7129 467.963 69.6058 467.949 69.4997 467.961C69.3937 467.974 69.2908 468.011 69.1973 468.073C69.1039 468.134 69.0218 468.217 68.9561 468.317L67.1266 470.956Z" fill="white"/>
    <path d="M64.8301 469.402C64.6927 469.652 64.6272 469.972 64.6478 470.293C64.6684 470.614 64.7734 470.91 64.9401 471.117C65.0208 471.22 65.1149 471.299 65.2167 471.347C65.3184 471.395 65.4257 471.412 65.532 471.397C65.6383 471.381 65.7414 471.334 65.835 471.258C65.9287 471.182 66.0109 471.078 66.0767 470.953L67.91 467.66C68.043 467.408 68.1056 467.089 68.0852 466.771C68.0647 466.452 67.9626 466.156 67.8 465.946C67.7193 465.842 67.6252 465.764 67.5234 465.716C67.4217 465.667 67.3144 465.651 67.2081 465.666C67.1018 465.681 66.9987 465.728 66.9051 465.804C66.8114 465.881 66.7292 465.984 66.6634 466.109L64.8301 469.402Z" fill="white"/>
    <path d="M61.4502 466.773C61.2692 466.919 61.1802 467.108 61.2026 467.299C61.2251 467.49 61.3572 467.666 61.5699 467.79C61.7897 467.913 62.0714 467.972 62.354 467.954C62.6365 467.935 62.897 467.841 63.079 467.692L65.4744 465.706C65.5751 465.639 65.6551 465.559 65.7097 465.47C65.7643 465.381 65.7925 465.286 65.7925 465.189C65.7925 465.093 65.7643 464.998 65.7097 464.909C65.6551 464.82 65.5751 464.74 65.4744 464.672C65.2522 464.553 64.9719 464.497 64.6912 464.515C64.4105 464.534 64.1507 464.625 63.9653 464.771L61.4502 466.773Z" fill="white"/>
    <path d="M59.0861 464.741C59.019 464.865 58.9686 465.007 58.9378 465.159C58.907 465.312 58.8964 465.473 58.9066 465.632C58.9167 465.791 58.9474 465.945 58.997 466.086C59.0465 466.227 59.1139 466.352 59.1953 466.453C59.3484 466.681 59.5544 466.809 59.7688 466.809C59.9833 466.809 60.1892 466.681 60.3423 466.453L62.163 463.085C62.2995 462.831 62.3645 462.506 62.3441 462.181C62.3236 461.855 62.2193 461.555 62.0538 461.345C61.9725 461.243 61.8788 461.167 61.7781 461.12C61.6774 461.073 61.5715 461.057 61.4667 461.073C61.3618 461.088 61.26 461.135 61.1671 461.21C61.0741 461.285 60.9918 461.387 60.9249 461.511L59.0861 464.741Z" fill="white"/>
    <path d="M103.069 453.056C105.717 452.869 108.343 453.648 110.448 455.246C112.553 456.844 113.99 459.15 114.487 461.725L126.653 474.059V481.737H87.6104C87.6104 481.737 89.5484 467.904 90.1322 464.791C90.716 461.679 92.5841 453.056 103.069 453.056Z" fill="#FBBEAA"/>
    <path d="M113.494 461.952C113.946 461.34 114.563 460.868 115.038 461.151C115.512 461.434 127.478 470.86 128.024 471.332C128.57 471.803 128.95 472.392 128.95 473.924V484.033H85.314C85.314 484.033 87.0233 469.093 87.142 468.268C87.2607 467.443 88.0916 466.359 88.5665 466.383C91.5615 467.294 94.6699 467.785 97.8017 467.844C101.957 468.067 106.102 467.257 109.862 465.487C111.271 464.528 112.5 463.331 113.494 461.952Z" fill="#302D3B"/>
    <path d="M120.552 475.841C118.487 474.282 111.064 468.377 108.28 466.156L108.907 465.826C109.001 465.788 109.088 465.732 109.162 465.66C112.131 468.022 119.114 473.597 121.109 475.109C122.795 476.424 123.951 478.323 124.357 480.447L123.452 480.588C123.058 478.71 122.032 477.031 120.552 475.841Z" fill="white"/>
    <path d="M87.7384 473.698C90.5032 473.73 93.1786 474.787 95.3369 476.702C97.2877 478.617 98.6091 481.196 99.0935 484.033H97.9409C97.4637 481.572 96.2897 479.343 94.5899 477.672C92.6134 475.906 90.1494 474.945 87.6104 474.952L87.7384 473.698Z" fill="white"/>
    <path d="M135.202 482.885H84.8029C84.4509 482.885 84.1655 483.204 84.1655 483.598V489.062C84.1655 489.456 84.4509 489.775 84.8029 489.775H135.202C135.554 489.775 135.84 489.456 135.84 489.062V483.598C135.84 483.204 135.554 482.885 135.202 482.885Z" fill="white"/>
    <path d="M127.342 471.43C127.8 471.259 130.039 471.834 132.954 474.368C134.167 475.477 135.04 476.841 135.491 478.331C135.942 479.821 135.956 481.389 135.531 482.885H120.912C121.73 474.709 126.884 471.6 127.342 471.43Z" fill="white"/>
    <path d="M122.308 470.956C122.124 471.157 122.037 471.413 122.065 471.67C122.092 471.928 122.232 472.165 122.454 472.331C122.563 472.411 122.689 472.471 122.824 472.508C122.96 472.545 123.102 472.558 123.242 472.546C123.383 472.534 123.52 472.497 123.645 472.437C123.77 472.378 123.88 472.297 123.97 472.2L126.414 469.56C126.591 469.358 126.675 469.103 126.648 468.847C126.62 468.591 126.484 468.355 126.267 468.186C126.16 468.103 126.034 468.04 125.899 468.001C125.763 467.963 125.62 467.949 125.478 467.961C125.337 467.974 125.199 468.011 125.074 468.073C124.949 468.134 124.84 468.217 124.752 468.317L122.308 470.956Z" fill="white"/>
    <path d="M119.95 469.399C119.812 469.649 119.747 469.97 119.767 470.291C119.788 470.613 119.893 470.909 120.06 471.116C120.14 471.22 120.235 471.298 120.336 471.347C120.438 471.395 120.545 471.412 120.652 471.397C120.758 471.381 120.861 471.334 120.955 471.258C121.048 471.181 121.131 471.077 121.196 470.952L123.03 467.654C123.163 467.401 123.225 467.083 123.205 466.763C123.184 466.444 123.082 466.148 122.92 465.937C122.751 465.733 122.536 465.635 122.32 465.666C122.103 465.697 121.904 465.853 121.765 466.101L119.95 469.399Z" fill="white"/>
    <path d="M116.644 466.775C116.541 466.84 116.459 466.919 116.403 467.007C116.347 467.094 116.318 467.188 116.318 467.283C116.318 467.378 116.347 467.471 116.403 467.559C116.459 467.646 116.541 467.725 116.644 467.791C116.87 467.914 117.16 467.972 117.451 467.954C117.741 467.935 118.009 467.841 118.197 467.692L120.661 465.709C120.846 465.559 120.934 465.366 120.907 465.173C120.879 464.98 120.738 464.801 120.514 464.677C120.404 464.617 120.277 464.571 120.14 464.544C120.004 464.516 119.861 464.506 119.719 464.515C119.577 464.525 119.439 464.552 119.313 464.597C119.187 464.641 119.076 464.702 118.985 464.775L116.644 466.775Z" fill="white"/>
    <path d="M114.266 464.741C114.176 464.865 114.109 465.007 114.068 465.159C114.027 465.312 114.013 465.473 114.026 465.632C114.04 465.791 114.081 465.945 114.147 466.086C114.213 466.227 114.303 466.352 114.411 466.453C114.616 466.681 114.89 466.809 115.176 466.809C115.462 466.809 115.737 466.681 115.941 466.453L118.368 463.085C118.55 462.831 118.637 462.506 118.61 462.181C118.583 461.855 118.443 461.555 118.223 461.345C118.114 461.243 117.99 461.167 117.855 461.12C117.721 461.073 117.58 461.057 117.44 461.073C117.3 461.088 117.164 461.135 117.04 461.21C116.916 461.285 116.807 461.387 116.718 461.511L114.266 464.741Z" fill="white"/>
    <path d="M37.2764 312.067C36.8868 315.099 37.0916 318.179 37.8792 321.13C38.6667 324.081 40.0212 326.844 41.8645 329.259C43.7077 331.673 46.003 333.692 48.6177 335.198C51.2323 336.704 54.1144 337.667 57.0972 338.032C60.0799 338.397 63.1042 338.157 65.995 337.324C68.8858 336.492 71.5857 335.084 73.9387 333.183C76.2916 331.282 78.2509 328.925 79.703 326.248C81.1552 323.571 82.0715 320.627 82.3988 317.588C82.3988 317.588 94.2288 233.013 97.0343 215.927C99.8399 198.84 96.8707 184.538 78.0736 180.469C58.5752 176.257 46.3944 190.797 44.9215 205.361C43.4486 219.924 37.2764 312.067 37.2764 312.067Z" fill="#013EA5"/>
    <path d="M75.2646 313.693C75.189 319.812 77.5497 325.709 81.8274 330.089C86.1052 334.469 91.9495 336.972 98.0748 337.047C104.2 337.123 110.104 334.765 114.489 330.492C118.874 326.219 121.38 320.381 121.455 314.263C121.455 314.263 124.378 229.105 125.376 211.851C126.374 194.596 121.859 180.759 102.423 178.765C82.274 176.701 71.5342 192.436 71.5342 207.056C71.5342 221.676 75.2646 313.693 75.2646 313.693Z" fill="#013EA5"/>
    <path d="M74.979 313.88C75.0172 310.854 75.6638 307.864 76.882 305.082C78.1002 302.301 79.8662 299.781 82.079 297.667C84.2919 295.554 86.9083 293.888 89.7788 292.764C92.6494 291.64 95.7179 291.081 98.8091 291.118C101.9 291.156 104.954 291.789 107.795 292.982C110.637 294.174 113.21 295.903 115.369 298.07C117.528 300.236 119.23 302.798 120.377 305.608C121.525 308.419 122.096 311.423 122.058 314.449L117.215 436.39L79.2171 440.397L74.979 313.88Z" fill="#013EA5"/>
    <path d="M37.357 312.417C38.1403 306.369 41.2547 300.878 46.0236 297.136C50.7924 293.393 56.8307 291.703 62.8267 292.431C68.8227 293.159 74.2921 296.246 78.047 301.024C81.8019 305.801 83.539 311.881 82.8809 317.944L65.1195 439.249H27.8984L37.357 312.417Z" fill="#013EA5"/>
    <path d="M81.8688 316.38L64.644 438.101" stroke="#013EA5" stroke-width="0.75" stroke-miterlimit="10" stroke-linecap="round"/>
    <path d="M83.0176 317.528C83.0176 317.528 95.084 233.46 97.9457 216.476" stroke="#F5F5F5" stroke-width="0.75" stroke-miterlimit="10" stroke-linecap="round"/>
    <path d="M123.208 188.917C123.208 188.917 123.208 212.878 123.208 214.195C123.208 215.512 111.689 226.811 96.3904 226.811C72.8671 226.811 44.7129 218.192 45.1276 212.578C45.404 208.881 45.7496 188.917 45.7496 188.917H123.208Z" fill="#013EA5"/>
    <path d="M194.096 90.6125L182.96 160.515C181.123 169.284 183.963 177.218 194.096 178.61C195.966 178.853 197.867 178.714 199.682 178.201C201.497 177.688 203.189 176.811 204.655 175.623C206.12 174.436 207.33 172.963 208.209 171.295C209.088 169.626 209.619 167.796 209.769 165.915L213.165 90.7517C214.056 83.6529 210.966 78.9204 205.565 78.3358C198.94 77.612 195.432 81.5372 194.096 90.6125Z" fill="#FBBEAA"/>
    <path d="M203.144 152.776L123.192 92.0321C113.866 86.0747 107.519 89.2483 102.564 95.6233C100.301 98.7089 99.2518 102.519 99.6163 106.328C99.9808 110.137 101.733 113.679 104.541 116.279L184.298 175.046C187.108 177.42 190.726 178.618 194.398 178.389C198.07 178.161 201.512 176.525 204.007 173.821L204.369 173.432C205.693 172.019 206.716 170.351 207.374 168.53C208.032 166.709 208.313 164.773 208.198 162.84C208.084 160.907 207.576 159.018 206.707 157.287C205.838 155.557 204.626 154.022 203.144 152.776Z" fill="#FBBEAA"/>
    <path d="M194.429 88.7468C194.544 86.2382 193.873 83.7565 192.508 81.648C190.408 79.2129 188.835 76.3694 187.887 73.2965C187.158 70.4441 185.994 67.721 184.435 65.2233C183.322 63.6922 181.651 62.4395 181.651 61.2703C181.651 60.1011 183.878 57.8462 187.052 58.4865C188.411 58.9099 189.66 59.6287 190.71 60.5912C191.759 61.5537 192.582 62.7362 193.121 64.0542C193.425 63.2512 193.603 62.4061 193.65 61.5487L194.346 44.4838C194.356 44.0414 194.455 43.6056 194.637 43.2021C194.819 42.7987 195.08 42.4357 195.404 42.1347C195.728 41.8337 196.11 41.6008 196.526 41.4496C196.942 41.2984 197.384 41.2321 197.825 41.2545C198.529 41.2845 199.206 41.5343 199.76 41.9687C200.314 42.4032 200.718 43.0004 200.916 43.6764V42.897C201.023 42.0674 201.44 41.3091 202.083 40.7742C202.726 40.2393 203.547 39.9674 204.383 40.0132C205.218 40.059 206.005 40.4191 206.585 41.0211C207.166 41.6232 207.498 42.4226 207.513 43.2589V45.6252C207.792 44.8956 208.324 44.2906 209.011 43.9203C209.699 43.55 210.497 43.4391 211.259 43.6078C212.022 43.7765 212.698 44.2135 213.166 44.8393C213.633 45.4651 213.86 46.238 213.805 47.0171V48.5203C214.104 47.9937 214.551 47.5659 215.09 47.289C215.629 47.0122 216.237 46.8983 216.839 46.9613C217.664 47.0661 218.416 47.4879 218.936 48.1374C219.455 48.7869 219.702 49.6131 219.623 50.4411L218.259 64.8336C217.365 72.9479 215.687 80.9564 213.248 88.7468C213.218 90.0475 212.917 91.3277 212.363 92.505C211.81 93.6823 211.015 94.7308 210.032 95.5829C209.049 96.435 207.898 97.0719 206.654 97.4527C205.41 97.8336 204.1 97.95 202.809 97.7943C201.64 97.8333 200.476 97.6205 199.396 97.1702C198.317 96.7199 197.347 96.0427 196.552 95.1846C195.757 94.3265 195.157 93.3075 194.79 92.1967C194.424 91.0859 194.301 89.9093 194.429 88.7468Z" fill="#FBBEAA"/>
    <path d="M116.593 87.6891L185.782 134.353C185.491 136.74 191.098 87.6891 191.098 87.6891L216.707 90.0794C216.707 90.0794 215.211 140.019 211.442 166.393C209.946 176.86 201.234 180.83 190.904 178.576C185.804 177.463 181.002 175.37 176.729 172.371C158.368 159.484 106.858 123.184 102.646 118.618C95.3805 110.739 95.3804 104.838 99.5562 98.3512C103.732 91.8649 112.668 86.7147 116.593 87.6891Z" fill="#013EA5"/>
    <path d="M194.986 66.4764C193.928 66.4764 193.845 65.8083 193.372 64.5834C195.738 64.5834 202.614 65.0288 205.62 70.8192C202.586 66.6435 196.768 66.4764 194.986 66.4764ZM200.387 44.4563C200.387 44.4563 200.22 45.4306 200.053 46.8504C200.053 47.5742 199.886 48.4371 199.83 49.328C199.774 50.2188 199.691 51.1931 199.607 52.1118C199.607 54.0605 199.468 55.9814 199.468 57.429C199.468 58.8766 199.468 59.8509 199.468 59.8509C199.468 59.8972 199.477 59.9431 199.496 59.9855C199.514 60.028 199.542 60.0661 199.576 60.0975C199.61 60.1289 199.65 60.153 199.694 60.168C199.737 60.1831 199.784 60.1888 199.83 60.1849C199.908 60.181 199.983 60.1517 200.044 60.1015C200.104 60.0513 200.146 59.9829 200.164 59.9066C200.164 59.9066 200.331 58.9322 200.47 57.4846C200.61 56.037 200.832 54.1162 200.916 52.1953C200.916 51.221 200.916 50.2466 200.916 49.4115C200.916 48.5763 200.916 47.6577 200.916 46.9339C200.916 45.4585 200.916 44.5119 200.916 44.5119C200.916 44.4656 200.906 44.4198 200.888 44.3773C200.869 44.3349 200.842 44.2967 200.808 44.2653C200.774 44.2339 200.734 44.2099 200.69 44.1948C200.646 44.1798 200.6 44.174 200.554 44.1779C200.5 44.2086 200.457 44.2535 200.427 44.3075C200.398 44.3615 200.384 44.4226 200.387 44.4841V44.4563ZM206.845 46.405C206.845 46.405 206.678 47.2401 206.483 48.465C206.483 49.1053 206.289 49.829 206.205 50.6085C206.122 51.388 206.038 52.2232 205.955 53.0583C205.955 54.7286 205.76 56.3989 205.732 57.6516C205.704 58.9044 205.732 59.7674 205.732 59.7674C205.735 59.8113 205.747 59.8541 205.768 59.8933C205.788 59.9325 205.815 59.9674 205.849 59.9958C205.883 60.0243 205.922 60.0458 205.964 60.0592C206.006 60.0725 206.05 60.0775 206.094 60.0736C206.169 60.0684 206.24 60.0381 206.295 59.9876C206.351 59.9371 206.388 59.8693 206.4 59.7952C206.4 59.7952 206.567 58.96 206.762 57.7351C206.957 56.5103 207.124 54.8122 207.263 53.1697C207.263 52.3345 207.263 51.4994 207.43 50.7199C207.597 49.9404 207.43 49.1888 207.43 48.5485C207.43 47.2958 207.43 46.4606 207.43 46.4606C207.43 46.4143 207.421 46.3685 207.402 46.3261C207.384 46.2836 207.356 46.2454 207.322 46.214C207.288 46.1826 207.248 46.1586 207.204 46.1436C207.161 46.1285 207.114 46.1227 207.068 46.1266C207.006 46.1521 206.953 46.1942 206.913 46.2482C206.874 46.3023 206.851 46.3661 206.845 46.4328V46.405ZM213.081 49.0496C213.081 49.0496 212.914 49.7455 212.691 50.8034C212.691 51.3045 212.469 51.917 212.385 52.5851C212.302 53.2532 212.19 53.9492 212.079 54.6451C211.884 56.0649 211.801 57.4289 211.745 58.5425C211.689 59.656 211.745 60.3242 211.745 60.3242C211.745 60.3705 211.754 60.4163 211.773 60.4587C211.791 60.5012 211.818 60.5394 211.852 60.5708C211.886 60.6022 211.927 60.6262 211.97 60.6412C212.014 60.6563 212.061 60.6621 212.107 60.6582C212.178 60.6545 212.246 60.6282 212.301 60.5831C212.356 60.5381 212.395 60.4766 212.413 60.4077C212.413 60.4077 212.608 59.7117 212.803 58.6817C212.998 57.6517 213.276 56.2041 213.443 54.8121C213.443 54.0883 213.582 53.3924 213.638 52.7243C213.694 52.0561 213.638 51.4437 213.638 50.9148C213.638 49.8569 213.638 49.1331 213.638 49.1331C213.638 49.0868 213.629 49.041 213.61 48.9985C213.592 48.9561 213.564 48.9179 213.53 48.8865C213.496 48.855 213.456 48.8311 213.412 48.816C213.369 48.801 213.322 48.7952 213.276 48.799C213.225 48.8277 213.18 48.8676 213.147 48.9159C213.113 48.9641 213.09 49.0193 213.081 49.0774V49.0496Z" fill="#F18380"/>
    <path d="M186.324 128.71L187.626 118.293L215.405 120.463L214.971 130.88L186.324 128.71Z" fill="#CFD1CE"/>
    <path d="M105.551 81.1372C105.551 81.1372 122.36 90.8427 124.983 92.5412C127.606 94.2397 130.569 96.8602 130.035 103.945C129.501 111.03 127.242 206.404 127.242 206.404C118.615 207.864 93.3521 207.864 93.3521 207.864H91.0555H89.333H87.0364H85.3139H83.5914C83.5914 207.864 46.1388 204.681 45.3858 204.244C44.6328 203.807 43.9284 203.346 43.977 202.521C44.0256 201.696 44.5114 104.746 44.8271 100.476C44.8897 98.1886 45.6101 95.9679 46.9023 94.079C48.1945 92.1901 50.0038 90.7128 52.114 89.8237C57.1905 87.5671 76.2579 79.8269 76.2579 79.8269L92.2725 81.1372H105.551Z" fill="#034CC9"/>
    <path d="M105.551 81.1372C105.551 81.1372 122.359 90.8427 124.983 92.5412C127.606 94.2397 130.569 96.8602 130.035 103.945C129.501 111.03 127.242 206.404 127.242 206.404C118.615 207.864 104.835 207.864 104.835 207.864H102.539H100.816H98.5194H96.797H95.0745C95.0745 207.864 97.8128 204.681 97.0598 204.244C96.3068 203.807 95.6024 203.346 95.651 202.521C95.6996 201.696 96.1854 104.746 96.5012 100.476C96.5637 98.1886 97.2841 95.9679 98.5763 94.079C99.8685 92.1901 101.678 90.7128 103.788 89.8237C108.865 87.5671 76.2578 79.8269 76.2578 79.8269L92.2724 81.1372H105.551Z" fill="#0045BA"/>
    <path d="M107.458 81.277C107.458 81.277 126.041 92.0185 128.941 93.8983C131.842 95.7781 129.524 99.9224 129.524 107.386C129.524 117.147 127.802 117.721 127.802 117.721C121.99 120.857 119.449 118.411 113.044 120.019C109.929 120.368 107.512 120.448 105.418 118.407C103.323 116.367 96.797 117.147 96.797 117.147C96.797 117.147 86.969 115.856 82.377 118.407C81.2786 119.173 80.0375 119.711 78.7273 119.988C77.4172 120.264 76.387 120.244 75.0727 119.988C68.413 118.618 41.774 110.969 40.9415 110.486C40.109 110.002 39.3303 109.492 39.384 108.579C39.4377 107.666 39.9748 107.406 40.3239 102.68C40.393 100.148 41.1895 97.6907 42.6181 95.6002C44.0467 93.5097 46.047 91.8747 48.38 90.8907C53.9925 88.3933 75.0727 79.8269 75.0727 79.8269L92.7779 80.4011L107.458 81.277Z" fill="#9A99A1"/>
    <path d="M94.3049 77.2393C86.3184 77.2393 79.1131 73.7669 76.5088 72.0307V79.8436C76.7982 80.2777 79.0263 81.6666 85.6239 83.7501C92.2215 85.8335 101.684 85.0523 105.59 83.7501V75.9371C105.59 76.3712 104.288 77.2393 94.3049 77.2393Z" fill="#034CC9"/>
    <path d="M94.7388 207.455C96.9568 206.711 98.898 205.277 100.297 203.35C101.695 201.423 102.483 199.096 102.552 196.689V77.6733H94.7388V207.455Z" fill="#034CC9"/>
    <path d="M129.524 120.644H90.1455V111.963L129.524 111.98C129.524 115.999 129.524 117.147 129.524 120.644Z" fill="#D3D4D2"/>
    <path d="M58.3096 111.963H97.9581V120.644H57.4967C58.0254 116.738 58.3096 115.002 58.3096 111.963Z" fill="#CFD1CE"/>
    <g style="mix-blend-mode:multiply" opacity="0.4">
        <path d="M93.8706 84.8744L94.7387 85.0522V207.455H93.8706V84.8744Z" fill="#013FA9"/>
    </g>
    <path d="M41.84 95.6537C35.7632 103.467 0.60498 198.958 0.60498 198.958C33.1589 188.541 30.1043 160.387 47.8095 163.366C47.8095 163.366 68.226 115.446 69.0055 111.159C69.819 107.779 69.4539 104.223 67.9706 101.079C66.4872 97.935 63.9747 95.392 60.8489 93.8709C52.1354 89.4168 47.9167 87.8405 41.84 95.6537Z" fill="#0045BA"/>
    <path d="M59.3169 140.778C64.2443 135.795 73.4588 125.049 76.5767 122.433C79.6596 120.11 83.0277 118.192 86.5985 116.726C89.3076 115.818 92.1083 115.211 94.95 114.916C96.9265 114.666 97.7339 115.25 97.7339 116.447C97.6841 117.161 97.4569 117.85 97.0728 118.453C96.6887 119.056 96.1599 119.553 95.5346 119.899H99.1814C100.434 119.899 101.241 120.902 100.657 122.516C100.126 123.583 99.3669 124.52 98.4336 125.261C97.5004 126.002 96.4156 126.528 95.2562 126.803C95.2562 126.803 100.184 127.277 101.436 127.527C102.689 127.778 103.079 128.251 103.079 129.448C103.068 130.275 102.838 131.084 102.413 131.793C101.987 132.502 101.381 133.086 100.657 133.485C98.8834 134.204 97.0009 134.618 95.0892 134.709C95.0892 134.709 101.186 136.24 102.411 136.686C103.636 137.131 103.775 137.939 103.135 138.996C102.77 139.742 102.243 140.396 101.593 140.911C100.942 141.427 100.185 141.79 99.3763 141.975C97.0657 142.588 95.5068 141.585 94.6716 141.725C92.8772 142.303 91.1201 142.991 89.4102 143.785C86.8424 146.341 83.7029 148.25 80.2514 149.352C77.6822 150.431 75.3255 151.958 73.2918 153.862C72.3444 154.751 71.2284 155.441 70.0098 155.891C68.7911 156.341 67.4946 156.543 66.1969 156.483C64.8991 156.423 63.6265 156.104 62.4543 155.544C61.2822 154.984 60.2343 154.194 59.3726 153.222C54.9184 148.489 55.67 144.536 59.3169 140.778Z" fill="#FBBEAA"/>
    <path d="M75.6953 157.723L30.8807 208.117C25.5103 215.275 12.961 219.208 5.29356 212.577C3.87565 211.335 2.72485 209.817 1.91097 208.117C1.09708 206.417 0.637055 204.569 0.558815 202.685C0.480574 200.802 0.785743 198.922 1.4558 197.16C2.12586 195.398 3.14685 193.791 4.45684 192.435L58.7673 135.587L75.6953 157.723Z" fill="#0045BA"/>
    <path d="M94.9227 119.927C94.9306 119.973 94.9288 120.02 94.9173 120.066C94.9058 120.111 94.8851 120.153 94.8562 120.19C94.8273 120.227 94.791 120.257 94.7498 120.279C94.7085 120.301 94.6631 120.314 94.6165 120.317L92.3338 120.54H91.2203C90.8305 120.54 90.4686 120.679 90.0789 120.707C89.6671 120.83 89.2667 120.988 88.8818 121.18L87.6012 121.709C85.8752 122.405 84.1493 123.045 82.8687 123.518C81.5881 123.991 80.6973 124.27 80.6973 124.27C80.6267 124.3 80.5475 124.302 80.4754 124.276C80.4032 124.25 80.3433 124.198 80.3076 124.131C80.2556 124.063 80.2275 123.98 80.2275 123.894C80.2275 123.809 80.2556 123.725 80.3076 123.657L82.3954 122.572L84.5668 121.542C85.3463 121.18 86.2093 120.818 87.0723 120.484L88.3807 119.983C88.8015 119.793 89.2397 119.643 89.6891 119.537L91.0254 119.398H92.1667H93.8649H94.5052C94.5753 119.343 94.6646 119.318 94.7533 119.328C94.8421 119.338 94.9231 119.384 94.9785 119.454C95.0338 119.524 95.0591 119.613 95.0486 119.702C95.0382 119.791 94.9929 119.872 94.9227 119.927ZM94.3938 126.636H93.8927C93.476 126.599 93.0567 126.599 92.64 126.636L91.777 126.775C91.4589 126.815 91.143 126.871 90.8305 126.942L88.9375 127.555C87.6569 127.972 86.4042 128.501 85.4577 128.891C85.4577 128.891 85.1514 128.891 85.1793 129.03H84.8452L84.3442 129.169H84.0379H83.8709C83.7868 129.189 83.7138 129.241 83.6671 129.314C83.6204 129.387 83.6036 129.474 83.6203 129.559C83.6325 129.626 83.6664 129.687 83.7168 129.732C83.7671 129.777 83.8312 129.805 83.8987 129.81H85.3185H85.7639C86.7382 129.559 88.0466 129.17 89.3272 128.724L91.1924 128.028L92.0554 127.805L92.807 127.583C93.1914 127.469 93.5818 127.376 93.9762 127.304L94.4495 127.165C94.4916 127.152 94.5307 127.131 94.5647 127.104C94.5987 127.076 94.6269 127.041 94.6475 127.003C94.6682 126.964 94.681 126.921 94.6853 126.877C94.6895 126.834 94.6851 126.79 94.6722 126.748C94.6392 126.707 94.5963 126.675 94.5476 126.655C94.4988 126.636 94.4458 126.629 94.3938 126.636ZM94.3938 134.542H93.3638C93.0854 134.542 92.7235 134.542 92.3616 134.737L91.2203 135.099C90.502 135.352 89.8041 135.659 89.1324 136.018C88.8236 136.163 88.5258 136.33 88.2415 136.519C88.1847 136.585 88.1534 136.669 88.1534 136.755C88.1534 136.842 88.1847 136.926 88.2415 136.992C88.3215 137.077 88.4314 137.127 88.5477 137.131L89.5778 136.964C90.1624 136.825 90.914 136.602 91.6657 136.352L92.7513 135.906L93.6978 135.544C94.013 135.405 94.3198 135.247 94.6165 135.071C94.6953 135.025 94.7534 134.95 94.7792 134.862C94.8051 134.774 94.7966 134.68 94.7557 134.598C94.6732 134.545 94.5738 134.525 94.4773 134.542H94.3938Z" fill="#F18380"/>
    <path d="M22.7412 170.745L31.8563 163.366L50.0865 186.371L42.7076 195.052L22.7412 170.745Z" fill="#CFD1CE"/>
</svg>
