<svg width="226" height="515" viewBox="0 0 226 515" fill="none" xmlns="http://www.w3.org/2000/svg">
<path d="M121.329 92.0192C120.62 92.0192 119.114 92.0192 117.786 92.4621C117.786 93.5251 120.148 94.3814 121.329 94.6766C121.624 93.7908 122.038 92.0192 121.329 92.0192Z" fill="#013FA9"/>
<path d="M119.017 71.8781H147.431V104.643H119.017V71.8781Z" fill="#FBBEAA"/>
<path d="M147.36 71.8781H119.041V90.1579C120.278 90.3085 121.523 90.3858 122.77 90.3893C132.54 90.3893 143.466 87.7746 147.455 78.6346L147.36 71.8781Z" fill="#F18380"/>
<path d="M104.337 47.5593C104.573 57.0232 104.337 64.4971 106.084 71.7165C107.83 78.9359 113.164 84.8363 124.963 84.8363C136.763 84.8363 150.215 81.0646 151.159 66.6027C153.094 64.5434 156.233 57.2083 156.351 48.994C156.469 40.7796 155.808 23.4022 136.716 20.7412C117.624 18.0802 103.818 24.9525 104.337 47.5593Z" fill="#FBBEAA"/>
<path d="M114.32 55.0096C114.32 56.2823 113.542 57.3235 112.574 57.3235C111.606 57.3235 110.828 56.2823 110.828 55.0096C110.828 53.737 111.606 52.6957 112.574 52.6957C113.542 52.6957 114.32 53.6444 114.32 55.0096Z" fill="#403D4F"/>
<path d="M135.561 55.0096C135.561 56.2823 134.782 57.3235 133.814 57.3235C132.847 57.3235 132.068 56.2823 132.068 55.0096C132.068 53.737 132.847 52.6957 133.814 52.6957C134.782 52.6957 135.561 53.6444 135.561 55.0096Z" fill="#403D4F"/>
<path d="M131.288 50.1969C131.453 50.4051 132.704 50.1969 133.648 50.1969C134.592 50.1969 136.409 50.1969 136.409 49.9886C136.409 49.7804 135.512 48.3458 133.153 48.6003C131.453 48.7854 130.84 49.8266 131.288 50.1969Z" fill="#403D4F"/>
<path d="M114.721 50.1968C114.579 50.4051 113.517 50.1968 112.691 50.1968C111.865 50.1968 110.331 50.1968 110.331 49.9886C110.543 49.4641 110.943 49.0336 111.456 48.778C111.969 48.5223 112.559 48.4591 113.116 48.6003C114.579 48.7854 114.98 49.8266 114.721 50.1968Z" fill="#403D4F"/>
<path d="M121.683 64.5895C120.032 64.5895 118.71 63.5251 118.663 62.7616L119.206 56.2363C119.223 56.0746 119.305 55.9262 119.433 55.8225C119.561 55.7188 119.725 55.668 119.89 55.681C119.971 55.6869 120.049 55.7083 120.121 55.7441C120.194 55.7798 120.258 55.8292 120.311 55.8895C120.363 55.9497 120.403 56.0195 120.428 56.0949C120.453 56.1703 120.463 56.2499 120.456 56.3289L119.937 62.6227C120.176 62.8763 120.469 63.0744 120.796 63.2025C121.122 63.3307 121.474 63.3855 121.825 63.3632C121.908 63.3569 121.991 63.367 122.069 63.393C122.147 63.4189 122.22 63.4602 122.281 63.5142C122.343 63.5682 122.393 63.634 122.428 63.7074C122.463 63.7809 122.483 63.8606 122.486 63.9416C122.486 64.1058 122.423 64.2639 122.309 64.3842C122.195 64.5044 122.039 64.5778 121.872 64.5895H121.683Z" fill="#F18380"/>
<path d="M147.261 60.378C149.849 60.0727 151.511 58.0641 151.981 55.7502C152.45 53.4363 153.922 54.5933 156.701 54.5933C159.479 54.5933 160.899 49.2367 161.773 45.1618C162.91 39.862 161.218 33.6576 159.55 31.4664C163.996 27.6317 161.773 14.4841 160.662 18.8666C159.773 22.3726 156.587 23.9796 155.105 24.3448C150.659 8.12942 133.247 11.0146 125.097 14.4841C119.631 12.3285 114.786 14.4435 112.095 16.483C108.406 15.8637 105.199 15.9802 110.649 17.771C111.016 17.3761 111.504 16.9314 112.095 16.483C115.177 17.0004 118.595 18.0314 117.583 19.0287C115.361 21.22 88.977 35.8489 98.4239 41.3271C105.981 45.7096 117.132 42.0575 121.763 39.6837C127.098 44.0662 134.359 42.6053 137.323 41.3271C137.767 43.9566 142.863 47.7182 144.901 50.0921C146.938 52.466 146.081 60.5172 147.261 60.378Z" fill="#F3E8AE"/>
<path d="M150.64 59.4061C150.758 56.7682 151.183 52.8809 155.006 52.7883C158.829 52.6958 159.325 55.5187 159.207 59.9614C159.089 64.4041 154.487 68.1758 150.451 66.6486L150.64 59.4061Z" fill="#FBBEAA"/>
<path d="M156.257 62.5995C156.091 62.5712 155.944 62.4799 155.847 62.3456C155.749 62.2112 155.71 62.0447 155.737 61.8822C155.737 61.7516 155.7 61.6237 155.629 61.5132C155.558 61.4026 155.456 61.314 155.336 61.2574C155.095 61.0992 154.812 61.0148 154.522 61.0148C154.232 61.0148 153.949 61.0992 153.708 61.2574C153.603 61.3141 153.485 61.3439 153.366 61.3439C153.246 61.3439 153.128 61.3141 153.024 61.2574C152.927 61.1951 152.85 61.1084 152.8 61.0065C152.751 60.9047 152.73 60.7915 152.74 60.6789C153.071 56.9536 155.501 56.2594 155.596 56.2362C155.676 56.2119 155.761 56.204 155.845 56.2132C155.929 56.2224 156.01 56.2485 156.083 56.2897C156.156 56.331 156.22 56.3866 156.27 56.453C156.32 56.5195 156.356 56.5953 156.375 56.6759C156.418 56.8293 156.398 56.9934 156.318 57.1322C156.239 57.271 156.106 57.3732 155.95 57.4163C155.478 57.6256 155.068 57.9467 154.754 58.3507C154.441 58.7547 154.236 59.2288 154.156 59.7302C154.803 59.6269 155.466 59.7586 156.021 60.1005C156.344 60.2863 156.605 60.5601 156.773 60.8887C156.94 61.2173 157.007 61.5865 156.965 61.9516C156.969 62.0417 156.953 62.1316 156.918 62.2152C156.883 62.2987 156.83 62.3738 156.763 62.4354C156.696 62.4969 156.615 62.5435 156.528 62.5718C156.441 62.6002 156.348 62.6096 156.257 62.5995Z" fill="#F18380"/>
<path d="M123.311 72.9192C125.589 72.833 127.777 72.0206 129.542 70.6053" stroke="#73102A" stroke-width="0.5" stroke-miterlimit="10" stroke-linecap="round"/>
<path d="M110.353 436.238C110.353 436.238 111.501 484.696 111.788 491.944C112.075 499.193 116.69 501.165 124.127 501.807C131.564 502.449 134.697 496.578 135.749 491.92C136.801 487.262 143.162 439.755 143.162 439.755L110.353 436.238Z" fill="#FBBEAA"/>
<path d="M158.395 437.409C158.395 437.409 164.719 486.005 165.765 493.239C166.811 500.473 171.59 502.011 179.031 501.843C186.472 501.675 188.921 495.45 189.468 490.668C190.015 485.885 191.204 437.409 191.204 437.409H158.395Z" fill="#FBBEAA"/>
<path d="M177.783 477.277C175.082 477.085 172.404 477.88 170.257 479.511C168.11 481.142 166.645 483.494 166.138 486.122L153.708 498.708V506.542H193.547C193.547 506.542 191.547 492.427 190.975 489.251C190.404 486.075 188.475 477.277 177.783 477.277Z" fill="#FBBEAA"/>
<path d="M165.986 486.354C165.526 485.729 164.872 485.248 164.412 485.537C163.952 485.825 151.728 495.444 151.147 495.925C150.789 496.258 150.518 496.674 150.358 497.134C150.198 497.595 150.153 498.088 150.227 498.57V508.886H194.719C194.719 508.886 192.976 493.64 192.855 492.799C192.734 491.957 191.887 490.851 191.402 490.875C188.349 491.804 185.179 492.306 181.986 492.366C177.742 492.589 173.508 491.763 169.665 489.961C168.24 488.977 166.995 487.757 165.986 486.354Z" fill="#302D3B"/>
<path d="M157.59 500.526C159.697 498.935 167.272 492.91 170.113 490.644L169.45 490.307C169.361 490.267 169.28 490.21 169.213 490.138C166.183 492.548 159.058 498.236 157.022 499.779C155.301 501.121 154.123 503.059 153.708 505.226L154.632 505.37C155.022 503.449 156.071 501.732 157.59 500.526Z" fill="white"/>
<path d="M193.403 498.34C190.3 498.372 187.297 499.451 184.874 501.405C182.685 503.359 181.201 505.99 180.658 508.886H181.951C182.481 506.377 183.79 504.103 185.689 502.394C187.918 500.595 190.69 499.617 193.547 499.619L193.403 498.34Z" fill="white"/>
<path d="M142.641 507.714H194.068C194.428 507.714 194.719 508.04 194.719 508.441V514.017C194.719 514.419 194.428 514.745 194.068 514.745H142.641C142.281 514.745 141.99 514.419 141.99 514.017V508.441C141.99 508.04 142.281 507.714 142.641 507.714Z" fill="white"/>
<path d="M151.166 496.025C150.735 495.851 148.626 496.437 145.881 499.023C144.738 500.154 143.915 501.546 143.49 503.067C143.066 504.588 143.053 506.187 143.453 507.714H157.223C156.452 499.371 151.597 496.199 151.166 496.025Z" fill="white"/>
<path d="M157.034 495.542C157.174 495.746 157.24 496.008 157.219 496.27C157.198 496.533 157.091 496.775 156.922 496.944C156.838 497.026 156.742 497.088 156.639 497.125C156.536 497.163 156.427 497.176 156.32 497.164C156.212 497.151 156.108 497.114 156.012 497.053C155.917 496.993 155.833 496.91 155.764 496.811L153.897 494.117C153.757 493.913 153.691 493.651 153.712 493.389C153.733 493.126 153.84 492.884 154.009 492.715C154.092 492.63 154.187 492.566 154.291 492.526C154.395 492.487 154.504 492.473 154.612 492.486C154.72 492.498 154.825 492.537 154.921 492.599C155.016 492.661 155.1 492.746 155.167 492.848L157.034 495.542Z" fill="white"/>
<path d="M159.377 493.956C159.517 494.211 159.584 494.537 159.563 494.865C159.542 495.192 159.435 495.494 159.265 495.705C159.182 495.811 159.086 495.891 158.983 495.94C158.879 495.989 158.769 496.007 158.661 495.991C158.552 495.975 158.447 495.927 158.352 495.849C158.256 495.772 158.172 495.666 158.105 495.539L156.234 492.179C156.099 491.921 156.035 491.596 156.056 491.271C156.076 490.945 156.181 490.644 156.347 490.429C156.429 490.323 156.525 490.243 156.629 490.194C156.733 490.145 156.842 490.128 156.951 490.143C157.059 490.159 157.164 490.207 157.26 490.285C157.355 490.363 157.439 490.468 157.506 490.596L159.377 493.956Z" fill="white"/>
<path d="M162.826 491.273C163.011 491.422 163.101 491.615 163.079 491.81C163.056 492.004 162.921 492.185 162.704 492.311C162.479 492.437 162.192 492.497 161.904 492.478C161.615 492.459 161.35 492.363 161.164 492.211L158.72 490.185C158.617 490.116 158.535 490.034 158.48 489.943C158.424 489.853 158.395 489.755 158.395 489.657C158.395 489.559 158.424 489.461 158.48 489.371C158.535 489.28 158.617 489.198 158.72 489.13C158.946 489.008 159.232 488.951 159.519 488.97C159.805 488.988 160.07 489.082 160.259 489.23L162.826 491.273Z" fill="white"/>
<path d="M165.238 489.2C165.307 489.326 165.358 489.471 165.39 489.627C165.421 489.783 165.432 489.946 165.421 490.109C165.411 490.271 165.38 490.428 165.329 490.572C165.279 490.716 165.21 490.844 165.127 490.947C164.971 491.179 164.76 491.309 164.542 491.309C164.323 491.309 164.113 491.179 163.956 490.947L162.099 487.509C161.959 487.251 161.893 486.919 161.914 486.587C161.935 486.255 162.041 485.948 162.21 485.734C162.293 485.631 162.389 485.553 162.491 485.505C162.594 485.457 162.702 485.441 162.809 485.456C162.916 485.472 163.02 485.52 163.115 485.596C163.21 485.673 163.294 485.777 163.362 485.903L165.238 489.2Z" fill="white"/>
<path d="M120.358 477.277C117.656 477.085 114.976 477.88 112.828 479.511C110.68 481.142 109.213 483.494 108.707 486.122L96.2925 498.708V506.542H136.132C136.132 506.542 134.154 492.427 133.559 489.251C132.963 486.075 131.057 477.277 120.358 477.277Z" fill="#FBBEAA"/>
<path d="M109.72 486.354C109.259 485.729 108.629 485.248 108.145 485.537C107.66 485.825 95.4508 495.444 94.8936 495.925C94.3364 496.406 93.9488 497.007 93.9488 498.57V508.886H138.475C138.475 508.886 136.731 493.64 136.61 492.799C136.489 491.957 135.641 490.851 135.156 490.875C132.1 491.804 128.928 492.306 125.733 492.366C121.493 492.593 117.263 491.767 113.426 489.961C111.989 488.982 110.734 487.761 109.72 486.354Z" fill="#302D3B"/>
<path d="M102.518 500.526C104.625 498.935 112.199 492.91 115.04 490.644L114.401 490.307C114.304 490.268 114.216 490.211 114.141 490.138C111.111 492.548 103.985 498.236 101.95 499.779C100.229 501.121 99.0499 503.059 98.6356 505.226L99.5588 505.37C99.9608 503.454 101.007 501.74 102.518 500.526Z" fill="white"/>
<path d="M136.001 498.34C133.18 498.372 130.45 499.451 128.248 501.405C126.257 503.359 124.909 505.99 124.414 508.886H125.59C126.077 506.374 127.275 504.099 129.01 502.394C131.027 500.592 133.541 499.612 136.132 499.619L136.001 498.34Z" fill="white"/>
<path d="M87.5688 507.714H138.997C139.356 507.714 139.647 508.04 139.647 508.441V514.017C139.647 514.419 139.356 514.745 138.997 514.745H87.5688C87.2096 514.745 86.9184 514.419 86.9184 514.017V508.441C86.9184 508.04 87.2096 507.714 87.5688 507.714Z" fill="white"/>
<path d="M95.5893 496.025C95.1224 495.851 92.8368 496.437 89.8632 499.023C88.6252 500.154 87.7339 501.546 87.2738 503.067C86.8137 504.588 86.7998 506.187 87.2337 507.714H102.151C101.315 499.371 96.0562 496.199 95.5893 496.025Z" fill="white"/>
<path d="M100.726 495.542C100.913 495.746 101.002 496.008 100.974 496.27C100.946 496.533 100.803 496.775 100.576 496.944C100.465 497.026 100.337 497.088 100.199 497.125C100.061 497.163 99.9156 497.176 99.772 497.164C99.6283 497.151 99.4888 497.114 99.3615 497.053C99.2341 496.993 99.1214 496.91 99.0297 496.811L96.5355 494.117C96.3546 493.911 96.2694 493.65 96.2972 493.389C96.325 493.128 96.464 492.887 96.6852 492.715C96.7951 492.63 96.9231 492.566 97.0615 492.526C97.1999 492.487 97.3459 492.473 97.4905 492.486C97.6351 492.498 97.7753 492.537 97.9027 492.599C98.0301 492.661 98.1421 492.746 98.2316 492.848L100.726 495.542Z" fill="white"/>
<path d="M103.132 493.952C103.273 494.208 103.339 494.535 103.318 494.863C103.297 495.191 103.19 495.493 103.02 495.705C102.938 495.811 102.842 495.891 102.738 495.94C102.634 495.989 102.525 496.007 102.416 495.991C102.308 495.975 102.203 495.927 102.107 495.849C102.011 495.771 101.928 495.665 101.86 495.538L99.9897 492.172C99.854 491.914 99.79 491.589 99.8109 491.263C99.8318 490.937 99.9359 490.635 100.102 490.42C100.274 490.212 100.494 490.112 100.714 490.143C100.935 490.175 101.138 490.334 101.28 490.587L103.132 493.952Z" fill="white"/>
<path d="M106.506 491.275C106.611 491.342 106.694 491.422 106.751 491.512C106.808 491.601 106.838 491.696 106.838 491.793C106.838 491.89 106.808 491.986 106.751 492.075C106.694 492.164 106.611 492.245 106.506 492.312C106.275 492.437 105.979 492.497 105.683 492.478C105.386 492.459 105.112 492.363 104.921 492.211L102.406 490.188C102.218 490.034 102.128 489.838 102.156 489.641C102.184 489.443 102.328 489.261 102.557 489.134C102.669 489.073 102.799 489.027 102.938 488.998C103.077 488.97 103.223 488.96 103.368 488.97C103.513 488.979 103.654 489.007 103.782 489.053C103.91 489.098 104.024 489.16 104.117 489.235L106.506 491.275Z" fill="white"/>
<path d="M108.932 489.2C109.024 489.326 109.092 489.471 109.134 489.627C109.176 489.783 109.19 489.946 109.177 490.109C109.163 490.271 109.121 490.428 109.054 490.572C108.986 490.716 108.894 490.844 108.784 490.947C108.575 491.179 108.295 491.309 108.003 491.309C107.712 491.309 107.431 491.179 107.223 490.947L104.746 487.509C104.56 487.251 104.472 486.919 104.5 486.587C104.528 486.255 104.669 485.948 104.895 485.734C105.005 485.631 105.133 485.553 105.27 485.505C105.407 485.457 105.551 485.441 105.693 485.456C105.836 485.472 105.975 485.52 106.101 485.596C106.228 485.673 106.339 485.777 106.43 485.903L108.932 489.2Z" fill="white"/>
<path d="M187.493 333.41C187.89 336.504 187.681 339.647 186.878 342.658C186.074 345.67 184.692 348.489 182.811 350.953C180.93 353.417 178.588 355.477 175.92 357.013C173.252 358.55 170.311 359.533 167.267 359.905C164.224 360.278 161.138 360.032 158.188 359.183C155.238 358.334 152.483 356.897 150.082 354.957C147.681 353.017 145.682 350.612 144.2 347.88C142.718 345.149 141.784 342.145 141.449 339.043C141.449 339.043 129.378 252.743 126.515 235.308C123.653 217.873 126.682 203.279 145.863 199.127C165.759 194.829 178.189 209.666 179.691 224.527C181.194 239.388 187.493 333.41 187.493 333.41Z" fill="#013EA5"/>
<path d="M148.73 335.07C148.807 341.313 146.398 347.331 142.033 351.8C137.668 356.269 131.704 358.823 125.454 358.9C119.204 358.978 113.179 356.571 108.705 352.211C104.231 347.851 101.674 341.894 101.596 335.651C101.596 335.651 98.6143 248.756 97.5959 231.149C96.5776 213.542 101.184 199.423 121.017 197.389C141.577 195.282 152.536 211.338 152.536 226.257C152.536 241.175 148.73 335.07 148.73 335.07Z" fill="#013EA5"/>
<path d="M149.021 335.26C148.982 332.172 148.322 329.122 147.079 326.283C145.836 323.445 144.034 320.874 141.776 318.717C139.518 316.56 136.848 314.86 133.919 313.713C130.99 312.567 127.859 311.996 124.705 312.034C121.55 312.072 118.435 312.718 115.535 313.935C112.636 315.152 110.01 316.917 107.807 319.127C105.604 321.338 103.867 323.952 102.696 326.82C101.525 329.687 100.942 332.753 100.981 335.841L105.924 460.271L144.696 464.359L149.021 335.26Z" fill="#013EA5"/>
<path d="M187.41 333.768C186.611 327.596 183.433 321.993 178.567 318.174C173.701 314.356 167.539 312.63 161.421 313.373C155.303 314.116 149.722 317.267 145.89 322.141C142.059 327.016 140.286 333.221 140.958 339.407L159.081 463.188H197.062L187.41 333.768Z" fill="#013EA5"/>
<path d="M141.991 337.811L159.567 462.016" stroke="#013EA5" stroke-width="0.75" stroke-miterlimit="10" stroke-linecap="round"/>
<path d="M140.818 338.983C140.818 338.983 128.506 253.199 125.586 235.869" stroke="#F5F5F5" stroke-width="0.75" stroke-miterlimit="10" stroke-linecap="round"/>
<path d="M99.8071 207.747C99.8071 207.747 99.8071 232.197 99.8071 233.541C99.8071 234.885 111.562 246.415 127.172 246.415C151.176 246.415 179.904 237.62 179.481 231.891C179.199 228.118 178.846 207.747 178.846 207.747H99.8071Z" fill="#013EA5"/>
<path d="M27.4729 107.437L38.8355 178.765C40.7103 187.714 37.8128 195.809 27.4729 197.23C25.5643 197.478 23.625 197.336 21.7729 196.813C19.9208 196.289 18.1944 195.394 16.6987 194.183C15.203 192.971 13.9691 191.468 13.072 189.765C12.1749 188.062 11.6333 186.195 11.4801 184.276L8.01446 107.579C7.10546 100.335 10.2585 95.5062 15.7694 94.9097C22.5301 94.1711 26.1094 98.1765 27.4729 107.437Z" fill="#FBBEAA"/>
<path d="M18.2405 170.868L99.8238 108.886C109.34 102.807 115.817 106.045 120.873 112.55C123.182 115.698 124.253 119.586 123.881 123.473C123.509 127.36 121.72 130.974 118.856 133.628L37.4716 193.594C34.6037 196.016 30.9117 197.238 27.1649 197.005C23.4182 196.772 19.9059 195.102 17.3599 192.344L16.9906 191.946C15.6393 190.504 14.596 188.803 13.9241 186.945C13.2523 185.086 12.9661 183.111 13.0831 181.138C13.2 179.166 13.7177 177.238 14.6044 175.472C15.4911 173.707 16.7283 172.14 18.2405 170.868Z" fill="#FBBEAA"/>
<path d="M27.1332 105.533C27.0161 102.973 27.7014 100.441 29.0933 98.2896C31.2363 95.8048 32.8418 92.9033 33.8088 89.7677C34.5526 86.857 35.7407 84.0784 37.3312 81.5297C38.4675 79.9674 40.1719 78.6891 40.1719 77.4961C40.1719 76.303 37.8994 74.0021 34.661 74.6554C33.2739 75.0875 31.9994 75.8209 30.9289 76.8031C29.8583 77.7852 29.0181 78.9919 28.4683 80.3367C28.1581 79.5173 27.9761 78.655 27.9287 77.7801L27.2185 60.367C27.2077 59.9156 27.1066 59.4709 26.9211 59.0592C26.7356 58.6475 26.4695 58.2772 26.1385 57.97C25.8075 57.6629 25.4184 57.4251 24.994 57.2709C24.5696 57.1166 24.1187 57.0489 23.6677 57.0718C22.9498 57.1025 22.2594 57.3573 21.6938 57.8006C21.1282 58.2439 20.7158 58.8533 20.5146 59.5432V58.7478C20.4053 57.9013 19.9799 57.1275 19.3237 56.5817C18.6675 56.0359 17.8291 55.7585 16.9769 55.8052C16.1246 55.8519 15.3217 56.2194 14.7291 56.8337C14.1365 57.448 13.7983 58.2637 13.7823 59.1171V61.5317C13.4978 60.7873 12.9552 60.1698 12.2536 59.792C11.5519 59.4141 10.7379 59.301 9.95978 59.4731C9.18167 59.6453 8.49132 60.0912 8.01455 60.7298C7.53778 61.3683 7.30633 62.157 7.36238 62.952V64.4859C7.05664 63.9486 6.601 63.512 6.05112 63.2295C5.50124 62.947 4.88094 62.8308 4.26609 62.8951C3.4241 63.002 2.6568 63.4324 2.12659 64.0952C1.59638 64.7579 1.34489 65.601 1.42545 66.4459L2.81734 81.1321C3.72916 89.4119 5.44161 97.5838 7.93055 105.533C7.96064 106.86 8.26814 108.167 8.83325 109.368C9.39836 110.569 10.2086 111.639 11.2118 112.509C12.2151 113.378 13.3892 114.028 14.6587 114.417C15.9282 114.805 17.2649 114.924 18.583 114.765C19.7758 114.805 20.9632 114.588 22.0647 114.128C23.1662 113.669 24.156 112.978 24.967 112.102C25.7779 111.227 26.3911 110.187 26.7649 109.053C27.1387 107.92 27.2643 106.719 27.1332 105.533Z" fill="#FBBEAA"/>
<path d="M106.558 104.454L35.9573 152.07C36.2543 154.505 30.533 104.454 30.533 104.454L4.40129 106.893C4.40129 106.893 5.92793 157.852 9.7735 184.764C11.2997 195.445 20.1896 199.495 30.7306 197.195C35.9351 196.06 40.8346 193.924 45.1947 190.864C63.9301 177.713 116.492 140.673 120.789 136.013C128.203 127.974 128.203 121.952 123.942 115.334C119.681 108.715 110.563 103.46 106.558 104.454Z" fill="#013EA5"/>
<path d="M26.5649 82.8084C27.6443 82.8084 27.7295 82.1267 28.2124 80.8768C25.7979 80.8768 18.7815 81.3313 15.7136 87.2398C18.8099 82.9789 24.7469 82.8084 26.5649 82.8084ZM21.054 60.3389C21.054 60.3389 21.2244 61.3332 21.3949 62.7819C21.3949 63.5205 21.5654 64.401 21.6222 65.31C21.679 66.219 21.7642 67.2133 21.8494 68.1507C21.8494 70.1391 21.9914 72.0992 21.9914 73.5763C21.9914 75.0535 21.9914 76.0477 21.9914 76.0477C21.9915 76.0949 21.9819 76.1418 21.963 76.1851C21.9442 76.2284 21.9164 76.2673 21.8817 76.2993C21.847 76.3314 21.806 76.3559 21.7613 76.3713C21.7166 76.3866 21.6693 76.3925 21.6222 76.3885C21.5422 76.3845 21.4657 76.3546 21.4042 76.3034C21.3428 76.2522 21.2996 76.1824 21.2812 76.1045C21.2812 76.1045 21.1108 75.1102 20.9688 73.6331C20.8268 72.156 20.5995 70.1959 20.5143 68.2359C20.5143 67.2417 20.5143 66.2475 20.5143 65.3953C20.5143 64.5431 20.5143 63.6057 20.5143 62.8671C20.5143 61.3616 20.5143 60.3957 20.5143 60.3957C20.5141 60.3484 20.5237 60.3017 20.5426 60.2584C20.5615 60.2151 20.5892 60.1761 20.6239 60.144C20.6587 60.112 20.6997 60.0875 20.7444 60.0722C20.789 60.0568 20.8365 60.0509 20.8836 60.0548C20.938 60.0862 20.9828 60.132 21.0128 60.1871C21.0429 60.2423 21.0571 60.3046 21.054 60.3673V60.3389ZM14.4637 62.3274C14.4637 62.3274 14.6341 63.1796 14.833 64.4294C14.833 65.0828 15.0319 65.8213 15.1171 66.6167C15.2023 67.4121 15.2875 68.2643 15.3727 69.1165C15.3727 70.8209 15.5715 72.5253 15.5999 73.8035C15.6283 75.0818 15.5999 75.9625 15.5999 75.9625C15.5964 76.0073 15.584 76.0509 15.5634 76.0909C15.5429 76.1309 15.5147 76.1665 15.4804 76.1956C15.4461 76.2246 15.4063 76.2466 15.3634 76.2602C15.3206 76.2739 15.2755 76.2789 15.2307 76.275C15.1543 76.2696 15.0819 76.2387 15.0252 76.1872C14.9685 76.1356 14.9308 76.0665 14.9182 75.9909C14.9182 75.9909 14.7478 75.1386 14.5489 73.8888C14.3501 72.6389 14.1796 70.9061 14.0376 69.2301C14.0376 68.378 14.0376 67.5257 13.8672 66.7304C13.6967 65.935 13.8672 65.168 13.8672 64.5147C13.8672 63.2364 13.8672 62.3842 13.8672 62.3842C13.867 62.3369 13.8767 62.2902 13.8955 62.2469C13.9144 62.2035 13.9421 62.1646 13.9768 62.1325C14.0116 62.1005 14.0526 62.076 14.0973 62.0607C14.142 62.0453 14.1894 62.0394 14.2365 62.0433C14.2995 62.0693 14.3541 62.1123 14.3942 62.1675C14.4343 62.2226 14.4584 62.2878 14.4637 62.3557V62.3274ZM8.10068 65.026C8.10068 65.026 8.27107 65.7361 8.49833 66.8156C8.49833 67.3269 8.72562 67.9519 8.81084 68.6336C8.89606 69.3154 9.00965 70.0255 9.12327 70.7357C9.32211 72.1844 9.40741 73.5763 9.46422 74.7126C9.52103 75.8488 9.46422 76.5306 9.46422 76.5306C9.46438 76.5779 9.45467 76.6246 9.43579 76.6679C9.41691 76.7113 9.3892 76.7502 9.35447 76.7823C9.31975 76.8143 9.27875 76.8388 9.23406 76.8541C9.18937 76.8695 9.14202 76.8754 9.09492 76.8715C9.0224 76.8677 8.95296 76.8408 8.89675 76.7949C8.84054 76.7489 8.80046 76.6862 8.78241 76.6158C8.78241 76.6158 8.58361 75.9057 8.38476 74.8547C8.18592 73.8036 7.90182 72.3264 7.73138 70.9061C7.73138 70.1675 7.58933 69.4574 7.53252 68.7756C7.4757 68.0939 7.53252 67.469 7.53252 66.9292C7.53252 65.8498 7.53252 65.1112 7.53252 65.1112C7.53235 65.0639 7.54207 65.0172 7.56095 64.9739C7.57983 64.9305 7.60745 64.8916 7.64218 64.8595C7.6769 64.8275 7.71798 64.803 7.76268 64.7877C7.80737 64.7723 7.85472 64.7664 7.90181 64.7703C7.95426 64.7996 7.9994 64.8403 8.03384 64.8895C8.06828 64.9387 8.09114 64.9951 8.10068 65.0544V65.026Z" fill="#F18380"/>
<path d="M35.4045 146.312L34.0758 135.682L5.72952 137.897L6.17243 148.527L35.4045 146.312Z" fill="#CFD1CE"/>
<path d="M117.825 97.7682C117.825 97.7682 100.673 107.672 97.9965 109.405C95.3197 111.138 92.2959 113.812 92.8411 121.042C93.3864 128.271 95.6915 225.591 95.6915 225.591C104.494 227.081 130.273 227.081 130.273 227.081H132.616H134.374H136.717H138.475H140.232C140.232 227.081 178.449 223.833 179.218 223.387C179.986 222.942 180.705 222.471 180.655 221.629C180.606 220.787 180.11 121.859 179.788 117.501C179.724 115.168 178.989 112.902 177.67 110.974C176.352 109.047 174.506 107.539 172.352 106.632C167.172 104.329 147.716 96.4312 147.716 96.4312L131.374 97.7682H117.825Z" fill="#034CC9"/>
<path d="M117.825 97.7682C117.825 97.7682 100.673 107.672 97.9966 109.405C95.3198 111.138 92.296 113.812 92.8413 121.042C93.3866 128.271 95.6916 225.591 95.6916 225.591C104.494 227.081 118.555 227.081 118.555 227.081H120.899H122.656H125H126.758H128.515C128.515 227.081 125.721 223.833 126.489 223.387C127.258 222.942 127.976 222.471 127.927 221.629C127.877 220.787 127.382 121.859 127.059 117.501C126.996 115.168 126.26 112.902 124.942 110.974C123.623 109.047 121.777 107.539 119.624 106.632C114.444 104.329 147.716 96.4312 147.716 96.4312L131.374 97.7682H117.825Z" fill="#0045BA"/>
<path d="M115.879 97.9109C115.879 97.9109 96.9165 108.872 93.9571 110.79C90.9977 112.708 93.3627 116.937 93.3627 124.553C93.3627 134.513 95.1203 135.099 95.1203 135.099C101.05 138.299 103.644 135.803 110.179 137.443C113.358 137.799 115.824 137.882 117.961 135.799C120.098 133.717 126.757 134.513 126.757 134.513C126.757 134.513 136.786 133.196 141.472 135.799C142.593 136.581 143.859 137.129 145.196 137.411C146.533 137.694 147.584 137.673 148.925 137.411C155.721 136.014 182.903 128.209 183.753 127.716C184.602 127.222 185.397 126.702 185.342 125.77C185.287 124.838 184.739 124.573 184.383 119.75C184.312 117.167 183.5 114.66 182.042 112.526C180.584 110.393 178.543 108.725 176.162 107.721C170.435 105.172 148.925 96.4312 148.925 96.4312L130.859 97.0171L115.879 97.9109Z" fill="#9A99A1"/>
<path d="M129.301 93.7908C137.45 93.7908 144.803 90.2476 147.46 88.4759V96.4483C147.165 96.8912 144.891 98.3085 138.159 100.434C131.427 102.56 121.771 101.763 117.785 100.434V92.4621C117.785 92.905 119.114 93.7908 129.301 93.7908Z" fill="#034CC9"/>
<path d="M128.858 226.664C126.595 225.904 124.614 224.441 123.187 222.475C121.76 220.508 120.956 218.134 120.886 215.678V94.2337H128.858V226.664Z" fill="#034CC9"/>
<path d="M93.3633 138.082H133.545V129.223L93.3633 129.24C93.3633 133.341 93.3633 134.513 93.3633 138.082Z" fill="#D3D4D2"/>
<path d="M166.03 129.223H125.573V138.082H166.86C166.32 134.096 166.03 132.324 166.03 129.223Z" fill="#CFD1CE"/>
<g style="mix-blend-mode:multiply" opacity="0.4">
<path d="M129.744 101.582L128.858 101.763V226.664H129.744V101.582Z" fill="#013FA9"/>
</g>
<path d="M182.837 112.581C189.037 120.554 224.913 217.994 224.913 217.994C191.695 207.364 194.812 178.635 176.745 181.675C176.745 181.675 155.912 132.777 155.117 128.402C154.287 124.954 154.659 121.325 156.173 118.117C157.686 114.909 160.25 112.314 163.44 110.762C172.331 106.217 176.636 104.608 182.837 112.581Z" fill="#0045BA"/>
<path d="M165.003 158.626C159.975 153.541 150.572 142.577 147.391 139.906C144.245 137.536 140.808 135.579 137.165 134.083C134.4 133.157 131.542 132.538 128.643 132.237C126.626 131.981 125.802 132.578 125.802 133.799C125.853 134.527 126.085 135.23 126.477 135.845C126.869 136.461 127.408 136.968 128.046 137.321H124.325C123.047 137.321 122.223 138.344 122.819 139.992C123.361 141.08 124.136 142.036 125.088 142.792C126.04 143.548 127.147 144.086 128.33 144.366C128.33 144.366 123.302 144.849 122.024 145.105C120.746 145.36 120.348 145.843 120.348 147.065C120.359 147.909 120.594 148.734 121.028 149.458C121.462 150.181 122.08 150.777 122.819 151.184C124.629 151.918 126.55 152.341 128.501 152.434C128.501 152.434 122.28 153.996 121.03 154.45C119.78 154.905 119.638 155.729 120.291 156.808C120.664 157.569 121.201 158.236 121.865 158.762C122.528 159.288 123.301 159.659 124.126 159.848C126.484 160.473 128.075 159.45 128.927 159.592C130.758 160.182 132.551 160.884 134.296 161.694C136.916 164.303 140.119 166.25 143.641 167.375C146.263 168.476 148.668 170.034 150.743 171.977C151.71 172.884 152.848 173.588 154.092 174.048C155.335 174.507 156.658 174.712 157.983 174.651C159.307 174.591 160.605 174.265 161.801 173.693C162.998 173.122 164.067 172.316 164.946 171.324C169.491 166.495 168.724 162.461 165.003 158.626Z" fill="#FBBEAA"/>
<path d="M148.291 175.917L194.02 227.339C199.5 234.643 212.305 238.657 220.129 231.89C221.576 230.623 222.75 229.074 223.581 227.339C224.411 225.604 224.88 223.719 224.96 221.797C225.04 219.875 224.729 217.957 224.045 216.159C223.361 214.361 222.319 212.72 220.983 211.337L165.564 153.329L148.291 175.917Z" fill="#0045BA"/>
<path d="M128.671 137.35C128.663 137.397 128.665 137.445 128.677 137.491C128.688 137.537 128.709 137.581 128.739 137.618C128.768 137.655 128.805 137.686 128.847 137.709C128.89 137.731 128.936 137.744 128.983 137.747L131.313 137.975H132.449C132.847 137.975 133.216 138.117 133.614 138.145C134.034 138.271 134.442 138.433 134.835 138.628L136.142 139.168C137.903 139.878 139.664 140.531 140.971 141.014C142.278 141.497 143.187 141.781 143.187 141.781C143.259 141.812 143.339 141.814 143.413 141.787C143.487 141.761 143.548 141.708 143.584 141.639C143.637 141.57 143.666 141.485 143.666 141.398C143.666 141.31 143.637 141.226 143.584 141.156L141.454 140.048L139.238 138.997C138.443 138.628 137.562 138.259 136.682 137.918L135.347 137.407C134.917 137.212 134.47 137.06 134.011 136.952L132.648 136.81H131.483H129.75H129.097C129.025 136.754 128.934 136.728 128.844 136.738C128.753 136.749 128.671 136.795 128.614 136.867C128.558 136.938 128.532 137.029 128.542 137.12C128.553 137.211 128.599 137.293 128.671 137.35ZM129.211 144.196H129.722C130.147 144.158 130.575 144.158 131 144.196L131.881 144.338C132.206 144.378 132.528 144.435 132.847 144.508L134.778 145.133C136.085 145.559 137.363 146.099 138.329 146.497C138.329 146.497 138.642 146.497 138.613 146.639H138.954L139.465 146.781H139.778H139.948C140.034 146.801 140.109 146.854 140.156 146.928C140.204 147.002 140.221 147.092 140.204 147.178C140.192 147.246 140.157 147.308 140.106 147.355C140.054 147.401 139.989 147.429 139.92 147.434H138.471H138.017C137.022 147.178 135.687 146.781 134.381 146.326L132.477 145.616L131.597 145.389L130.83 145.162C130.438 145.045 130.039 144.951 129.637 144.877L129.154 144.735C129.111 144.722 129.071 144.701 129.036 144.673C129.002 144.644 128.973 144.609 128.952 144.57C128.931 144.53 128.918 144.487 128.913 144.442C128.909 144.397 128.913 144.352 128.927 144.309C128.96 144.268 129.004 144.235 129.054 144.215C129.104 144.195 129.158 144.189 129.211 144.196ZM129.211 152.263H130.262C130.546 152.263 130.915 152.263 131.284 152.462L132.449 152.831C133.182 153.089 133.894 153.403 134.579 153.769C134.895 153.917 135.198 154.087 135.489 154.28C135.546 154.347 135.578 154.433 135.578 154.521C135.578 154.61 135.546 154.696 135.489 154.763C135.407 154.849 135.295 154.9 135.176 154.905L134.125 154.734C133.528 154.592 132.761 154.365 131.994 154.11L130.887 153.655L129.921 153.286C129.599 153.143 129.286 152.982 128.983 152.803C128.903 152.755 128.844 152.679 128.817 152.589C128.791 152.5 128.8 152.403 128.841 152.32C128.926 152.266 129.027 152.246 129.125 152.263H129.211Z" fill="#F18380"/>
<path d="M202.325 189.204L193.024 181.675L174.422 205.149L181.951 214.007L202.325 189.204Z" fill="#CFD1CE"/>
<path d="M141.291 36.7167C142.676 40.8697 144.832 44.7235 147.647 48.075H154.537C154.537 48.075 159.878 41.8747 160.279 41.3669C160.858 40.7492 161.298 40.0147 161.57 39.2126C161.842 38.4105 161.939 37.5594 161.854 36.7167H141.291Z" fill="#676575"/>
<path d="M147.646 48.0751C147.646 61.4378 152.061 80.4377 131.3 84.4558C131.3 84.4558 144.602 83.7536 149.702 77.2058C154.803 70.6581 154.536 47.9682 154.536 47.9682L147.646 48.0751Z" fill="#827F94"/>
<path d="M166.794 38.4273H99.3891C98.8759 32.3337 99.4547 26.1973 101.098 20.3075C103.769 12.664 109.11 3.31009 131.463 3.31009C153.815 3.31009 161.64 13.7864 163.216 21.7239C164.792 29.6614 164.044 32.2537 164.978 33.1089C165.913 33.9641 166.794 33.9909 166.794 35.2737V38.4273Z" fill="#EFEFEF"/>
<path d="M131.463 3.31022C126.588 3.22162 121.725 3.81533 117.015 5.0741H116.801L115.974 5.34135C113.717 6.0367 111.569 7.04419 109.591 8.3346C108.248 13.8769 107.895 19.6133 108.549 25.2785H115.974L125.855 23.5948C125.855 23.5948 128.979 7.55956 140.089 3.818C137.229 3.44244 134.347 3.27275 131.463 3.31022Z" fill="#D8D8D8"/>
<path d="M133.012 0.744522H117.923C116.321 0.744522 108.55 6.78447 108.55 27.4699H125.721C125.721 21.3765 126.79 5.42147 136.404 3.41706C136.377 3.47052 134.935 0.744522 133.012 0.744522Z" fill="#EFEFEF"/>
<path d="M88.6269 38.4272V34.5253C88.6288 33.966 88.7461 33.4131 88.9715 32.9013C89.1968 32.3895 89.5254 31.9297 89.9366 31.5509C90.3477 31.172 90.8326 30.8822 91.3609 30.6996C91.8892 30.517 92.4494 30.4456 93.0066 30.4897H101.633C102.128 30.5129 102.623 30.4294 103.084 30.245C103.544 30.0606 103.96 29.7795 104.303 29.4207C104.864 28.7793 108.683 25.1981 109.137 24.6636C109.449 24.2554 109.854 23.9283 110.319 23.7097C110.784 23.4911 111.294 23.3874 111.807 23.4075H124.359C124.872 23.3918 125.381 23.4974 125.845 23.7157C126.309 23.9339 126.715 24.2587 127.03 24.6636C127.484 25.1981 131.303 28.7793 131.864 29.4207C132.205 29.781 132.621 30.063 133.082 30.2475C133.543 30.432 134.038 30.5146 134.534 30.4897H141.718C142.275 30.4456 142.835 30.517 143.364 30.6996C143.892 30.8822 144.377 31.172 144.788 31.5509C145.199 31.9297 145.528 32.3895 145.753 32.9013C145.978 33.4131 146.096 33.966 146.098 34.5253V38.4272H88.6269Z" fill="#D8D8D8"/>
<path d="M137.366 121.8L138.11 121.808L138.101 122.737L138.895 122.746L138.904 121.816L139.649 121.824L139.623 124.363L138.878 124.355L138.889 123.35L138.094 123.342L138.084 124.347L137.34 124.34L137.366 121.8L137.366 121.8ZM142.305 121.851L142.279 124.39L141.56 124.383L141.58 122.446L141.108 122.441L141.101 123.17C141.098 123.497 141.068 123.898 140.868 124.122C140.667 124.371 140.293 124.444 139.873 124.363L139.88 123.734C140.275 123.814 140.377 123.663 140.382 123.16L140.395 121.827L142.305 121.847L142.305 121.851ZM142.927 121.858L143.671 121.865L144.076 123.378L144.513 121.874L145.257 121.882L145.579 124.424L144.885 124.417L144.726 123.057L144.314 124.411L143.818 124.406L143.436 123.044L143.249 124.4L142.554 124.393L142.926 121.857L142.927 121.858ZM145.879 121.888L146.623 121.896L146.612 122.926L147.342 121.903L148.162 121.911L147.207 123.159L148.161 124.451L147.269 124.442L146.61 123.404L146.599 124.435L145.855 124.427L145.881 121.888L145.879 121.888L145.879 121.888ZM142.704 119.138C138.238 119.092 135.267 120.697 135.242 123.109C135.218 125.499 138.153 127.187 142.621 127.233C147.112 127.279 150.058 125.649 150.083 123.262C150.108 120.85 147.197 119.184 142.704 119.138ZM142.625 126.857C138.43 126.814 135.643 125.302 135.665 123.114C135.688 120.902 138.508 119.471 142.7 119.514C146.918 119.558 149.684 121.044 149.662 123.258C149.639 125.446 146.845 126.901 142.625 126.857ZM142.697 119.867C138.752 119.826 136.107 121.132 136.087 123.118C136.066 125.104 138.684 126.464 142.628 126.504C146.573 126.545 149.218 125.239 149.238 123.253C149.261 121.268 146.643 119.908 142.697 119.867ZM142.629 126.431C138.732 126.39 136.142 125.056 136.162 123.121C136.182 121.186 138.801 119.905 142.696 119.945C146.59 119.985 149.183 121.32 149.163 123.255C149.146 125.19 146.526 126.471 142.629 126.431L142.629 126.431Z" fill="white"/>
</svg>
