<svg width="202" height="514" viewBox="0 0 202 514" fill="none" xmlns="http://www.w3.org/2000/svg">
<path d="M29.4975 70.3558C29.3952 68.1208 29.9935 65.9097 31.2089 64.0312C33.08 61.8616 34.4819 61.3282 35.3261 58.5904C35.9756 56.049 37.013 53.6229 38.4017 51.3976C39.3938 50.0335 40.882 48.9174 40.882 47.8757C40.882 46.834 38.8977 44.825 36.0702 45.3954C34.8591 45.7727 33.7463 46.413 32.8116 47.2706C31.8768 48.1282 31.1432 49.1817 30.6632 50.3559C30.3923 49.6405 30.2334 48.8876 30.192 48.1237L29.572 30.9197C29.5625 30.5256 29.4742 30.1373 29.3123 29.7778C29.1503 29.4184 28.9179 29.095 28.6289 28.8269C28.34 28.5587 28.0002 28.3511 27.6297 28.2164C27.2591 28.0817 26.8654 28.0226 26.4717 28.0426C25.8448 28.0694 25.242 28.2919 24.7482 28.679C24.4976 28.8754 20.3024 33.9631 16.2076 39.0061C12.2331 43.901 8.35305 48.7537 8.26649 49.0504C9.06263 56.2798 10.5578 63.415 12.731 70.3558C12.7573 71.5147 13.0258 72.6553 13.5192 73.7042C14.0126 74.7531 14.72 75.6872 15.596 76.4464C16.472 77.2056 17.4972 77.7731 18.6056 78.1124C19.714 78.4517 20.8811 78.5554 22.032 78.4167C23.0735 78.4514 24.1102 78.2618 25.072 77.8606C26.0337 77.4595 26.898 76.8561 27.606 76.0916C28.3141 75.327 28.8495 74.4192 29.1759 73.4295C29.5022 72.4399 29.6119 71.3916 29.4975 70.3558Z" fill="#FBBEAA"/>
<path d="M23.7551 25.2041L10.767 37.7466C7.63735 41.256 6.15776 44.8108 5.92386 48.0969C5.92959 48.1028 5.9261 48.1061 5.92896 48.1091C5.59622 52.7054 7.69494 56.7646 11.0647 59.3843C11.1284 59.4432 11.2047 59.5013 11.2752 59.5535C11.2959 59.568 11.3131 59.5857 11.3274 59.6006C13.1764 60.9725 15.3882 61.9198 17.7703 62.3127C18.5578 62.4462 19.3705 62.5153 20.1968 62.5081C20.266 62.5101 20.3097 62.5137 20.3195 62.5099C20.3386 62.5087 20.3668 62.5101 20.4077 62.5108C24.1155 62.4602 28.0666 61.0401 31.662 57.7973L43.883 46.0472L23.7551 25.2041Z" fill="#0099FF"/>
<path d="M5.92482 48.1123C5.40544 55.3129 10.8454 61.1827 17.7696 62.3125C18.9797 62.4104 19.8736 62.487 20.1962 62.5079C20.2653 62.5099 20.3091 62.5135 20.3189 62.5097C20.3379 62.5085 20.3661 62.5099 20.407 62.5105C21.1144 62.4636 26.5588 61.9566 33.892 54.5885C39.5348 48.9215 41.9096 46.8574 41.9096 46.8574L34.6005 43.8815C34.6005 43.8815 23.2028 56.1432 16.4347 57.1375C9.66258 58.1416 6.29388 52.4263 5.92482 48.1123Z" fill="#0099FF"/>
<path d="M23.7535 25.205L10.7654 37.7475C9.10628 39.6133 7.91045 41.4787 7.1233 43.3219C7.11982 43.3253 7.11982 43.3253 7.11287 43.332C6.4192 44.9589 6.03399 46.5572 5.92226 48.0977L5.92552 48.129C5.92368 48.1479 5.92756 48.1728 5.92674 48.2137C5.62591 52.7735 7.72033 56.7796 11.0597 59.3885C10.6103 58.9858 10.0388 58.1853 9.54549 57.1316C9.50622 57.0492 9.46695 56.9668 9.43054 56.8873C9.39414 56.8079 9.36407 56.728 9.32766 56.6486C9.28164 56.5383 9.23623 56.4217 9.19716 56.3047C9.14603 56.1821 9.099 56.0499 9.05993 55.9329C9.02434 55.8125 8.98304 55.6863 8.94745 55.5659L8.9452 55.5566C8.89591 55.4151 8.86502 55.2787 8.8323 55.1613C8.78505 54.9663 8.73557 54.7619 8.6959 54.5538C8.6869 54.5167 8.68527 54.5011 8.68527 54.5011C8.23779 52.2283 8.47166 49.5269 10.4217 47.0993C13.1774 43.676 18.5786 38.7122 21.8684 35.7932C23.4969 34.341 24.6129 33.395 24.6129 33.395C24.6129 33.395 24.0945 31.3341 23.6891 29.9262C23.4784 29.207 23.3025 28.6491 23.2404 28.6403C23.055 28.6015 23.7148 25.4086 23.7592 25.211L23.7535 25.205Z" fill="#0099FF"/>
<path d="M23.755 25.2048L10.7669 37.7472C9.10775 39.613 7.91192 41.4784 7.12477 43.3217C8.45869 41.0077 11.3714 36.7796 16.2343 34.731C18.3862 33.8277 20.1158 34.4497 21.8636 35.7933C24.0743 37.498 26.3178 40.3571 29.4993 42.7748C35.2019 47.1073 43.0002 46.8945 43.2645 46.6392L43.5914 46.3236L42.1589 46.6009L37.481 45.3476L34.2511 43.1372C34.2511 43.1372 27.3757 36.0176 27.1466 35.7804C26.9175 35.5431 23.6779 29.9267 23.6779 29.9267L23.748 25.2115L23.755 25.2048Z" fill="#0099FF"/>
<path d="M34.4037 44.0735L33.4208 45.1086C33.4208 45.1086 29.9027 43.4975 27.4077 41.053C25.2381 38.9247 21.8667 35.8023 21.8667 35.8023L24.6112 33.4041L29.2125 38.6282L34.4037 44.0735Z" fill="#0099FF"/>
<path d="M41.9063 46.8614L41.5702 47.1745C42.1249 47.1087 42.7244 46.9711 43.2634 46.6454L43.8789 46.051L41.9063 46.8614Z" fill="#0099FF"/>
<path d="M41.9059 46.8614L41.5698 47.1745C41.5698 47.1745 40.3988 47.3884 37.0641 46.5171C35.2846 46.0522 33.4128 45.1091 33.4128 45.1091L34.5904 43.8859C34.5904 43.8859 38.5782 45.7885 38.6264 45.908C38.6845 46.0239 41.9059 46.8614 41.9059 46.8614Z" fill="#0099FF"/>
<path d="M29.4386 39.8587C23.8812 34.1039 21.3378 27.5443 23.7576 25.2075C26.1775 22.8706 32.6443 25.6415 38.2017 31.3963C43.759 37.1511 46.3025 43.7107 43.8826 46.0475C41.4628 48.3843 34.996 45.6135 29.4386 39.8587Z" fill="#A3A9AA"/>
<path d="M24.5439 25.5642C23.452 26.6186 23.6426 28.7784 24.8354 31.3915C25.3525 32.5254 26.062 33.7542 26.9368 35.0011C27.026 35.1213 27.1145 35.2478 27.2095 35.3739C28.0902 36.5921 29.1235 37.8292 30.2919 39.039C31.5117 40.3022 32.7739 41.4214 34.0055 42.3696C38.0965 45.5135 41.9681 46.7947 43.5607 45.2567C44.4857 44.3634 44.485 42.6507 43.7241 40.5545C43.7241 40.5545 43.7241 40.5545 43.7219 40.5453C43.1764 39.0549 42.2513 37.3523 41.0055 35.6098C40.1008 34.3459 39.0264 33.0454 37.8065 31.7822C36.5866 30.519 35.3244 29.3998 34.0871 28.4457C30.0018 25.3078 26.1331 24.0295 24.5439 25.5642Z" fill="#475150"/>
<path d="M5.92484 48.217C5.62401 52.7768 7.71844 56.7828 11.0578 59.3918C11.0578 59.3918 10.1335 58.3302 9.5436 57.1349C9.50433 57.0524 9.46505 56.97 9.42865 56.8906C9.39224 56.8111 9.36217 56.7313 9.32576 56.6518C9.27402 56.5356 9.23148 56.4219 9.19528 56.3079C9.14415 56.1854 9.0971 56.0531 9.05803 55.9361C9.01733 55.8035 8.97542 55.6836 8.94556 55.5691L8.9433 55.5598C8.89401 55.4183 8.86312 55.282 8.8304 55.1646C8.74634 54.8618 8.70729 54.6474 8.694 54.5571C8.685 54.5199 8.68337 54.5043 8.68337 54.5043C8.68337 54.5043 7.56985 53.2816 6.88671 51.8783C5.96386 49.9902 5.9506 48.7308 5.92484 48.217Z" fill="#0099FF"/>
<path d="M16.5338 56.5792C15.7955 57.6588 15.5635 58.5877 16.168 59.2763C17.7865 61.1402 23.8427 60.1742 27.9031 56.5569C31.9605 52.9366 34.6435 47.893 33.025 46.029C32.9369 45.9308 32.8475 45.8452 32.7436 45.7793L32.7379 45.7734C30.9295 44.4367 26.8269 46.8341 22.9711 50.2596C20.4405 52.5314 17.7713 54.7709 16.5338 56.5792Z" fill="#0099FF"/>
<path d="M16.1689 57.176C16.1689 57.176 20.0058 57.1269 23.8867 54.2215C26.3837 52.3603 32.7453 45.7815 32.7453 45.7815L32.7396 45.7756C30.9312 44.4388 26.9266 46.6385 23.0039 49.9739C16.6214 55.4038 16.1689 57.176 16.1689 57.176Z" fill="#0099FF"/>
<path d="M34.0884 28.4455L27.0884 35.2053C27.0884 35.2053 28.9328 37.6649 30.2932 39.0388C31.5304 40.2853 32.7752 41.4212 34.0068 42.3695L41.0068 35.6096C40.1021 34.3458 39.0277 33.0453 37.8078 31.782C36.5851 30.5159 35.3228 29.3967 34.0884 28.4455Z" fill="#5E6466"/>
<path d="M24.5455 25.564C23.4536 26.6185 23.7302 28.7352 24.8369 31.3913C25.4937 32.9691 27.0887 35.2053 27.0887 35.2053C27.0887 35.2053 30.385 32.1539 32.3843 30.1601C33.3652 29.1786 34.0887 28.4455 34.0887 28.4455C30.0034 25.3076 26.1346 24.0294 24.5455 25.564Z" fill="#747A7C"/>
<path d="M24.5442 25.5642C23.4523 26.6186 23.6428 28.7784 24.8357 31.3915C26.6024 28.5794 29.1558 28.6695 32.3348 30.1382C32.3538 30.137 32.3681 30.1518 32.383 30.1603C32.9922 30.4431 33.6246 30.7779 34.2794 31.1428C36.1188 32.1916 38.3647 34.3781 40.2065 36.3759C42.184 38.535 43.6908 40.4781 43.7215 40.5516C43.7215 40.5516 43.7215 40.5516 43.7193 40.5423C43.1738 39.0519 42.2487 37.3493 41.0028 35.6069C40.0982 34.343 39.0237 33.0425 37.8039 31.7793C37.1052 31.0557 36.3923 30.3802 35.681 29.7549C35.1496 29.2881 34.6186 28.8496 34.0874 28.4457C30.0021 25.3078 26.1333 24.0295 24.5442 25.5642Z" fill="#929799"/>
<path d="M34.0883 28.4455L32.384 30.1601C32.9931 30.443 33.6256 30.7778 34.2803 31.1426C36.1198 32.1915 38.3656 34.3779 40.2075 36.3757L41.0038 35.6067C40.0992 34.3428 39.0247 33.0423 37.8048 31.7791C37.1061 31.0556 36.3933 30.3801 35.6819 29.7547L34.0883 28.4455Z" fill="#6F7577"/>
<path d="M40.2077 36.3758L41.004 35.6068C41.004 35.6068 41.93 36.7814 42.6242 38.1683C43.3184 39.5552 43.7227 40.5515 43.7227 40.5515L40.2077 36.3758Z" fill="#5E6466"/>
<path d="M28.3012 36.7172C29.3789 38.0489 30.7192 39.4995 32.3956 41.0267C37.5875 45.7837 41.1463 45.8712 41.1463 45.8712C41.1463 45.8712 42.2555 44.7371 37.4965 38.9948C37.4965 38.9948 38.2375 40.1589 38.4723 41.1814C38.6003 41.7454 38.2843 42.5664 36.4252 42.207C34.9408 41.9156 30.3083 38.8304 28.3012 36.7172Z" fill="#475150"/>
<path d="M31.5062 34.5547C31.3845 34.6722 31.5305 35.0183 31.8283 35.3267C32.1261 35.6351 32.4669 35.7931 32.5886 35.6755C32.7103 35.558 32.5672 35.2149 32.2665 34.9035C31.9652 34.5985 31.6244 34.4405 31.5062 34.5547Z" fill="#5E6466"/>
<path d="M21.9071 35.721C23.3159 33.4736 20.4554 30.5098 18.6404 29.3517C18.6404 29.3517 17.5481 28.0879 15.2843 30.3518C12.7843 32.8519 14.2843 34.563 14.2843 34.563C15.9178 36.3001 19.7294 39.1952 21.9071 35.721Z" fill="#FBBEAA"/>
<path d="M17.9071 40.0728C19.3159 37.8254 16.4554 34.8616 14.6404 33.7035C14.6404 33.7035 13.5481 32.4397 11.2843 34.7036C8.7843 37.2037 10.2843 38.9148 10.2843 38.9148C11.9178 40.6519 15.7294 43.547 17.9071 40.0728Z" fill="#FBBEAA"/>
<path d="M13.9071 44.0728C15.3159 41.8254 12.4554 38.8616 10.6404 37.7035C10.6404 37.7035 9.54812 36.4397 7.28431 38.7036C4.78431 41.2037 6.2843 42.9148 6.2843 42.9148C7.9178 44.6519 11.7294 47.547 13.9071 44.0728Z" fill="#FBBEAA"/>
<path d="M8.97168 47.6332C10.1392 45.7495 7.76854 43.2654 6.26433 42.2948C6.26433 42.2948 5.35911 41.2355 3.48293 43.133C1.41102 45.2285 2.65416 46.6626 2.65416 46.6626C4.00795 48.1186 7.16685 50.5451 8.97168 47.6332Z" fill="#FBBEAA"/>
<path d="M114.082 475.134C114.082 472.746 113.133 470.456 111.445 468.768C109.756 467.079 107.466 466.131 105.078 466.131C102.691 466.131 100.401 467.079 98.7121 468.768C97.0237 470.456 96.0751 472.746 96.0751 475.134V494.703H114.082V475.134Z" fill="#FBBEAA"/>
<path d="M96.7196 478.78C94.5122 478.78 94.1153 479.748 93.4704 481.012C92.4245 484.383 90.6363 487.477 88.2371 490.065C84.6554 493.116 80.8127 495.847 76.7535 498.225V508.593H116.835C116.835 508.593 116.562 500.408 116.363 494.629C116.165 488.85 115.594 481.806 115.644 481.062C115.694 480.318 115.644 478.78 114.28 478.78H96.7196Z" fill="#302D3B"/>
<path d="M111.85 495.199C111.855 496.472 111.481 497.717 110.777 498.777C110.074 499.838 109.071 500.665 107.896 501.154C106.721 501.643 105.427 501.773 104.179 501.526C102.93 501.279 101.784 500.666 100.884 499.766C99.9837 498.866 99.3714 497.72 99.1243 496.471C98.8773 495.223 99.0065 493.929 99.4958 492.754C99.9851 491.579 100.812 490.576 101.873 489.872C102.933 489.168 104.178 488.795 105.451 488.8C107.146 488.807 108.77 489.483 109.968 490.682C111.167 491.88 111.843 493.504 111.85 495.199Z" fill="#93929C"/>
<path d="M105.451 491.429L106.914 493.587L109.419 494.306L107.832 496.365L107.906 498.969L105.451 498.076L102.995 498.969L103.095 496.365L101.482 494.306L103.987 493.587L105.451 491.429Z" fill="white"/>
<path d="M77.0267 498.052C77.0267 498.052 71.3469 501.053 69.2139 502.516C68.2264 503.185 67.4242 504.094 66.8821 505.156C66.34 506.219 66.0756 507.401 66.1135 508.593H81.6896C81.6896 508.593 81.3671 500.979 77.0267 498.052Z" fill="white"/>
<path d="M116.835 508.593V512.884C116.835 513.603 116.19 514 115.098 514H67.8246C66.7581 514 66.1132 513.603 66.1132 512.884V508.593H116.835Z" fill="white"/>
<path d="M81.6899 495.15C81.5525 494.939 81.3384 494.79 81.093 494.734C80.8475 494.679 80.5901 494.721 80.3753 494.852C80.2684 494.918 80.1757 495.005 80.1026 495.107C80.0296 495.209 79.9777 495.324 79.95 495.447C79.9222 495.569 79.9192 495.696 79.9412 495.82C79.9631 495.943 80.0095 496.061 80.0777 496.167L81.7395 498.845C81.8195 498.984 81.9355 499.099 82.0751 499.177C82.2148 499.256 82.373 499.296 82.5332 499.292C82.7169 499.289 82.8965 499.238 83.054 499.143C83.1609 499.077 83.2537 498.991 83.3267 498.889C83.3998 498.787 83.4517 498.671 83.4795 498.548C83.5072 498.426 83.5101 498.299 83.4882 498.176C83.4662 498.052 83.4199 497.934 83.3517 497.829L81.6899 495.15Z" fill="white"/>
<path d="M84.6163 493.091C84.5349 492.997 84.4357 492.919 84.3243 492.863C84.2129 492.807 84.0915 492.773 83.9672 492.764C83.8428 492.755 83.7179 492.77 83.5995 492.809C83.481 492.848 83.3715 492.91 83.277 492.992C83.1826 493.073 83.1051 493.172 83.049 493.284C82.9929 493.395 82.9592 493.517 82.95 493.641C82.9407 493.765 82.9561 493.89 82.9952 494.009C83.0343 494.127 83.0964 494.237 83.1778 494.331L85.1124 496.613C85.2017 496.718 85.3117 496.802 85.4355 496.862C85.5593 496.922 85.6943 496.955 85.8317 496.96C86.0114 496.957 86.1865 496.904 86.3375 496.806C86.4886 496.709 86.6095 496.571 86.6868 496.409C86.764 496.247 86.7946 496.066 86.775 495.888C86.7553 495.709 86.6864 495.539 86.5757 495.398L84.6163 493.091Z" fill="white"/>
<path d="M87.369 490.785C87.1717 490.658 86.9349 490.607 86.7027 490.641C86.4705 490.676 86.2588 490.793 86.107 490.973C85.9553 491.152 85.8738 491.38 85.8779 491.614C85.8819 491.849 85.9711 492.074 86.1289 492.248L88.3363 494.158C88.5094 494.305 88.7296 494.384 88.9564 494.381C89.0929 494.386 89.2288 494.36 89.3535 494.304C89.4782 494.248 89.5885 494.164 89.6757 494.059C89.7673 493.973 89.8403 493.869 89.8903 493.754C89.9402 493.639 89.9659 493.515 89.9659 493.389C89.9659 493.264 89.9402 493.139 89.8903 493.024C89.8403 492.909 89.7673 492.805 89.6757 492.719L87.369 490.785Z" fill="white"/>
<path d="M92.206 489.644L89.7257 488.106C89.508 487.977 89.2485 487.939 89.0027 487.999C88.757 488.059 88.5446 488.213 88.4112 488.428C88.3441 488.535 88.2991 488.655 88.279 488.779C88.2589 488.904 88.2641 489.031 88.2942 489.154C88.3243 489.276 88.3786 489.392 88.4541 489.493C88.5296 489.594 88.6247 489.679 88.7336 489.743L91.2139 491.281C91.3609 491.378 91.5336 491.43 91.71 491.429C91.8716 491.426 92.0295 491.38 92.1685 491.298C92.3074 491.215 92.4228 491.098 92.5036 490.958C92.6347 490.743 92.677 490.486 92.6215 490.241C92.5659 489.995 92.4168 489.781 92.206 489.644Z" fill="white"/>
<path d="M94.2897 486.444L91.5118 485.279C91.275 485.18 91.0087 485.18 90.7714 485.277C90.5342 485.375 90.3456 485.563 90.2469 485.8C90.1985 485.915 90.1735 486.039 90.1735 486.164C90.1736 486.29 90.1986 486.414 90.2471 486.529C90.2956 486.644 90.3666 486.749 90.456 486.837C90.5454 486.924 90.6514 486.993 90.7677 487.04L93.5456 488.205H93.9176C94.1316 488.194 94.3358 488.112 94.498 487.972C94.6602 487.832 94.7712 487.642 94.8138 487.432C94.8564 487.222 94.828 487.003 94.7331 486.811C94.6383 486.619 94.4823 486.464 94.2897 486.37V486.444Z" fill="white"/>
<path d="M96.0257 482.873L92.9502 482.104C92.7068 482.044 92.4499 482.084 92.2359 482.215C92.022 482.345 91.8684 482.555 91.8092 482.798C91.75 483.042 91.79 483.298 91.9202 483.512C92.0504 483.726 92.2603 483.88 92.5037 483.939L95.5545 484.733H95.7777C95.9913 484.73 96.1984 484.659 96.3682 484.529C96.538 484.4 96.6615 484.219 96.7202 484.013C96.7733 483.77 96.7308 483.516 96.6015 483.304C96.4722 483.091 96.266 482.937 96.0257 482.873Z" fill="white"/>
<path d="M127.252 349.98C126.979 337.976 118.894 332.172 106.914 332.47C94.9344 332.767 86.3031 339.043 86.5759 351.022L96.0753 476.102H114.082L127.252 349.98Z" fill="#FBBEAA"/>
<path d="M189.978 475.134C189.978 472.746 189.029 470.456 187.341 468.768C185.653 467.079 183.362 466.131 180.975 466.131C178.587 466.131 176.297 467.079 174.608 468.768C172.92 470.456 171.971 472.746 171.971 475.134V494.703H189.978V475.134Z" fill="#FBBEAA"/>
<path d="M172.641 478.78C170.408 478.78 170.012 479.748 169.391 481.012C168.334 484.384 166.537 487.476 164.133 490.065C160.556 493.122 156.713 495.853 152.65 498.225V508.593H192.731C192.731 508.593 192.458 500.408 192.259 494.629C192.061 488.85 191.515 481.806 191.54 481.062C191.565 480.318 191.54 478.78 190.201 478.78H172.641Z" fill="#302D3B"/>
<path d="M187.77 495.199C187.775 496.471 187.403 497.715 186.7 498.775C185.997 499.834 184.995 500.662 183.822 501.152C182.648 501.642 181.356 501.772 180.108 501.527C178.861 501.282 177.714 500.672 176.813 499.775C175.912 498.878 175.298 497.733 175.048 496.486C174.798 495.24 174.924 493.947 175.409 492.771C175.895 491.596 176.718 490.591 177.775 489.884C178.832 489.177 180.075 488.8 181.346 488.8C183.046 488.8 184.676 489.473 185.88 490.673C187.084 491.872 187.764 493.5 187.77 495.199Z" fill="#93929C"/>
<path d="M181.371 491.429L182.835 493.587L185.34 494.306L183.727 496.365L183.802 498.969L181.371 498.076L178.916 498.969L178.99 496.365L177.378 494.306L179.908 493.587L181.371 491.429Z" fill="white"/>
<path d="M152.948 498.052C152.948 498.052 147.243 501.053 145.135 502.516C144.142 503.18 143.336 504.087 142.794 505.151C142.251 506.215 141.99 507.4 142.035 508.593H157.685C157.685 508.593 157.263 500.979 152.948 498.052Z" fill="white"/>
<path d="M192.731 508.593V512.884C192.731 513.603 192.111 514 191.019 514H143.696C142.605 514 141.985 513.603 141.985 512.884V508.593H192.731Z" fill="white"/>
<path d="M157.586 495.15C157.451 494.936 157.237 494.785 156.99 494.729C156.744 494.673 156.485 494.717 156.271 494.852C156.057 494.987 155.906 495.201 155.85 495.448C155.794 495.694 155.839 495.953 155.974 496.167L157.635 498.846C157.721 498.985 157.842 499.099 157.985 499.177C158.129 499.255 158.29 499.295 158.454 499.292C158.63 499.292 158.803 499.241 158.95 499.143C159.057 499.077 159.149 498.991 159.223 498.889C159.296 498.787 159.348 498.671 159.375 498.549C159.403 498.426 159.406 498.299 159.384 498.176C159.362 498.052 159.316 497.934 159.247 497.829L157.586 495.15Z" fill="white"/>
<path d="M160.538 493.091C160.374 492.901 160.143 492.781 159.893 492.758C159.643 492.735 159.394 492.81 159.198 492.967C159.006 493.135 158.886 493.37 158.863 493.624C158.84 493.878 158.916 494.132 159.074 494.331L161.034 496.613C161.12 496.721 161.229 496.809 161.353 496.869C161.478 496.929 161.615 496.96 161.753 496.96C161.935 496.962 162.113 496.911 162.267 496.814C162.42 496.717 162.543 496.577 162.619 496.412C162.695 496.247 162.721 496.063 162.695 495.883C162.669 495.703 162.592 495.535 162.472 495.398L160.538 493.091Z" fill="white"/>
<path d="M163.265 490.785C163.068 490.658 162.831 490.607 162.599 490.641C162.367 490.676 162.155 490.793 162.003 490.973C161.852 491.152 161.77 491.38 161.774 491.614C161.778 491.849 161.867 492.074 162.025 492.248L164.257 494.158C164.431 494.305 164.651 494.384 164.877 494.381C165.014 494.384 165.149 494.357 165.273 494.301C165.398 494.245 165.508 494.163 165.597 494.059C165.685 493.971 165.756 493.867 165.803 493.752C165.851 493.637 165.876 493.514 165.876 493.389C165.876 493.265 165.851 493.141 165.803 493.026C165.756 492.911 165.685 492.807 165.597 492.719L163.265 490.785Z" fill="white"/>
<path d="M168.102 489.644L165.622 488.106C165.408 488.016 165.169 488.005 164.948 488.077C164.727 488.148 164.539 488.297 164.418 488.496C164.298 488.694 164.253 488.93 164.292 489.159C164.331 489.388 164.451 489.595 164.63 489.743L167.11 491.281C167.257 491.378 167.43 491.43 167.606 491.429C167.771 491.427 167.933 491.383 168.077 491.301C168.22 491.218 168.34 491.1 168.424 490.958C168.553 490.74 168.592 490.481 168.531 490.235C168.471 489.989 168.317 489.777 168.102 489.644Z" fill="white"/>
<path d="M170.185 486.445L167.407 485.279C167.292 485.23 167.168 485.206 167.043 485.206C166.917 485.206 166.793 485.231 166.678 485.279C166.562 485.328 166.458 485.399 166.37 485.488C166.282 485.577 166.213 485.683 166.167 485.8C166.074 486.031 166.074 486.288 166.167 486.519C166.259 486.75 166.437 486.937 166.663 487.04L169.466 488.206C169.58 488.231 169.699 488.231 169.813 488.206C170.004 488.206 170.191 488.149 170.35 488.043C170.509 487.937 170.633 487.787 170.706 487.61C170.781 487.386 170.77 487.142 170.673 486.926C170.577 486.71 170.402 486.538 170.185 486.445Z" fill="white"/>
<path d="M171.922 482.873L168.871 482.104C168.624 482.044 168.364 482.083 168.146 482.212C167.928 482.342 167.77 482.553 167.705 482.798C167.676 482.919 167.67 483.044 167.689 483.167C167.708 483.289 167.751 483.407 167.816 483.513C167.88 483.619 167.965 483.711 168.065 483.784C168.165 483.858 168.279 483.91 168.4 483.939L171.451 484.733H171.699C171.922 484.716 172.133 484.622 172.294 484.466C172.456 484.311 172.559 484.105 172.585 483.882C172.612 483.66 172.56 483.435 172.439 483.246C172.318 483.058 172.135 482.917 171.922 482.848V482.873Z" fill="white"/>
<path d="M180.131 349.608C178.913 343.978 175.508 339.062 170.667 335.942C165.825 332.821 159.942 331.75 154.311 332.966C142.58 335.446 136.255 347.004 138.785 358.736L171.971 478.16H190.201L180.131 349.608Z" fill="#FBBEAA"/>
<path d="M128.815 349.2C128.748 346.35 128.121 343.541 126.969 340.933C125.816 338.326 124.162 335.971 122.099 334.003C120.037 332.035 117.607 330.492 114.948 329.463C112.29 328.434 109.454 327.939 106.604 328.006C103.754 328.073 100.945 328.7 98.338 329.853C95.7305 331.005 93.3755 332.659 91.4074 334.722C89.4394 336.784 87.8969 339.214 86.868 341.873C85.839 344.531 85.3438 347.367 85.4105 350.217L79.7794 478.794H128.814L128.815 349.2Z" fill="#93929C"/>
<path d="M180.128 346.546C178.782 341.051 175.346 336.298 170.55 333.297C165.754 330.296 159.977 329.284 154.447 330.476C148.917 331.668 144.07 334.97 140.936 339.68C137.802 344.39 136.629 350.137 137.666 355.698L150.861 478.294C150.861 478.294 182.459 480.179 201.284 478.294L180.128 346.546Z" fill="#93929C"/>
<path d="M22.7338 127.402L93.9669 73.2827C102.276 67.9749 107.931 70.8024 112.346 76.4822C114.362 79.2313 115.297 82.6258 114.972 86.0195C114.647 89.4132 113.086 92.5689 110.585 94.8858L39.5252 147.244C37.0211 149.359 33.7975 150.426 30.5261 150.223C27.2547 150.019 24.1879 148.561 21.965 146.153L21.6425 145.806C20.4627 144.547 19.5517 143.061 18.9651 141.439C18.3785 139.816 18.1286 138.091 18.2307 136.369C18.3329 134.647 18.7848 132.964 19.559 131.422C20.3333 129.88 21.4135 128.512 22.7338 127.402Z" fill="#FBBEAA"/>
<path d="M110.585 94.8611C111.242 94.295 111.841 93.6634 112.371 92.9761C112.839 91.2108 112.899 89.3621 112.547 87.5701C112.194 85.7781 111.439 84.0899 110.337 82.6334C106.592 76.8544 98.7291 72.3155 95.2319 73.1836L91.7596 74.9446L52.4475 104.708C55.9268 112.885 60.6266 120.486 66.3865 127.253L110.585 94.8611Z" fill="#F18380"/>
<path d="M99.8452 69.4133L38.2018 110.988C38.4611 113.115 31.6276 69.4133 31.6276 69.4133L12.2916 71.9297C12.2916 71.9297 12.6852 116.058 15.5717 139.478C16.7241 148.828 24.4345 152.397 33.6382 150.389C38.1824 149.397 42.4603 147.533 46.2672 144.861C62.6257 133.379 108.519 101.038 112.271 96.9691C118.745 89.9499 118.745 84.6918 115.024 78.9128C111.304 73.1338 103.342 68.5452 99.8452 69.4133Z" fill="#002A80"/>
<path d="M128.815 349.906L141.538 216.691C141.538 201.983 126.384 185.961 104.037 189.408C83.8476 192.558 77.6966 212.847 79.3583 232.069C81.0201 251.291 85.5094 350.849 85.5094 350.849C85.5762 353.699 86.2037 356.507 87.356 359.115C88.5083 361.722 90.1629 364.077 92.2254 366.045C94.2878 368.013 96.7177 369.556 99.3763 370.585C102.035 371.614 104.87 372.109 107.72 372.042C110.57 371.976 113.379 371.348 115.987 370.196C118.594 369.043 120.949 367.389 122.917 365.326C124.885 363.264 126.428 360.834 127.457 358.175C128.485 355.517 128.981 352.682 128.914 349.832L128.815 349.906Z" fill="#93929C"/>
<path d="M180.131 347.252L167.481 214.062C164.803 199.602 146.821 186.779 125.515 194.369C106.293 201.239 104.061 222.321 109.319 240.899C114.577 259.476 137.669 356.404 137.669 356.404C139.015 361.899 142.451 366.652 147.247 369.653C152.042 372.654 157.819 373.666 163.35 372.474C168.88 371.282 173.727 367.98 176.861 363.27C179.994 358.56 181.168 352.813 180.131 347.252Z" fill="#93929C"/>
<path d="M109.32 240.899C114.553 259.476 137.669 356.404 137.669 356.404" stroke="#5E5D63" stroke-width="0.75" stroke-miterlimit="10"/>
<path d="M113.04 67.3049C113.04 67.3049 102.077 69.2147 99.9444 69.7852C98.6856 70.0806 97.5224 70.6907 96.5637 71.5583C95.605 72.4259 94.8823 73.5226 94.4631 74.7457C93.0989 77.9949 86.0798 99.2755 85.435 101.582C84.9989 104.123 85.4084 106.737 86.6007 109.023C87.6176 111.801 92.8757 124.45 92.8757 124.45L93.6694 165.201L123.282 169.898L151.658 165.201C151.658 165.201 161.579 89.4041 162.075 84.7164C162.571 80.0287 160.24 70.9758 154.634 69.8348C149.029 68.6939 133.651 67.3546 133.651 67.3546L113.04 67.3049Z" fill="#FBBEAA"/>
<path d="M92.2789 148.816V163.142C111.675 164.928 142.58 163.663 154.187 163.142C154.733 159.05 155.304 152.105 155.899 147.492C140.1 147.889 114.006 149.361 92.2789 148.816Z" fill="white"/>
<path d="M194.566 161.555L162.794 77.9453C158.553 69.0164 152.278 68.4211 145.432 70.9014C142.266 72.1644 139.676 74.5495 138.157 77.6012C136.638 80.6529 136.296 84.1572 137.198 87.4448L169.912 169.566C170.904 172.69 173.067 175.309 175.949 176.872C178.83 178.435 182.205 178.821 185.364 177.949L185.836 177.825C187.502 177.371 189.059 176.581 190.411 175.505C191.762 174.429 192.881 173.089 193.698 171.566C194.514 170.044 195.013 168.371 195.162 166.65C195.311 164.929 195.109 163.195 194.566 161.555Z" fill="#FBBEAA"/>
<path d="M181.397 126.881L162.795 77.9452C162.296 76.8721 161.707 75.8432 161.034 74.8698C158.755 73.4431 156.146 72.6295 153.461 72.5079C150.775 72.3862 148.104 72.9606 145.706 74.1753C142.921 75.5305 140.682 77.7961 139.361 80.5971C138.039 83.3981 137.714 86.5665 138.438 89.5777C138.438 89.8753 138.612 90.4458 138.761 91.2147L157.958 139.456C166.343 136.432 174.24 132.195 181.397 126.881Z" fill="#F18380"/>
<path d="M161.058 73.4811L195.284 161.5C166.28 152.219 162.784 158.5 154.991 132.645C154.991 132.645 136.801 89.95 136.107 86.1304C135.382 83.1192 135.707 79.9509 137.029 77.1499C138.35 74.3489 140.589 72.0832 143.374 70.728C151.137 66.7596 158.875 70.356 161.058 73.4811Z" fill="#003399"/>
<path d="M134.619 7.90263C135.933 4.7279 142.556 3.31417 146.276 5.05035C149.996 6.78653 153.717 11.3502 154.262 23.7515C154.808 36.1528 153.791 45.6273 156.023 51.8776C153.96 51.6167 152.019 50.7541 150.443 49.3973C150.443 51.0343 150.195 55.0027 150.195 55.0027C148.994 54.9052 147.847 54.4655 146.889 53.7357C145.93 53.006 145.201 52.0169 144.788 50.8855C144.115 52.3169 143.687 53.8513 143.523 55.4244C141.34 54.2835 134.619 52.2993 134.619 40.5429V7.90263Z" fill="#1D1B24"/>
<path d="M91.3875 49.1002C92.0571 40.0968 94.711 25.2152 94.711 25.2152L101.06 24.868C101.06 24.868 102.747 51.6796 103.218 57.533C103.69 63.3864 105.376 64.9738 105.376 64.9738C105.376 64.9738 97.3153 63.8577 96.0504 56.2929C95.8649 57.774 95.7655 59.2647 95.7527 60.7574C95.7527 60.7574 90.693 58.1035 91.3875 49.1002Z" fill="#302D3B"/>
<path d="M134.345 46.8185V67.8759C134.345 67.8759 132.684 75.1182 121.547 75.1182C119.336 75.3047 117.138 74.6375 115.404 73.2537C113.669 71.8699 112.53 69.8746 112.221 67.6775V46.8432L134.345 46.8185Z" fill="#FBBEAA"/>
<path d="M112.221 64.3539C119.216 67.6774 129.41 64.7011 134.345 55.5738V46.8185H112.221V64.3539Z" fill="#F18380"/>
<path d="M98.4071 30.6718C98.3018 35.7083 98.5338 40.7462 99.1016 45.7517C99.9945 52.9197 102.524 60.8566 115.198 60.8566C127.873 60.8566 134.296 55.1271 137.025 45.7517C138.662 40.0967 141.985 31.7135 140.621 22.0404C139.257 12.3674 133.428 6.04283 119.663 5.67079C105.897 5.29876 96.9685 11.4498 98.4071 30.6718Z" fill="#FBBEAA"/>
<path d="M125.218 34.9622C125.134 35.3349 124.947 35.6764 124.678 35.9477C124.409 36.219 124.069 36.4089 123.697 36.4959C123.325 36.5829 122.936 36.5634 122.575 36.4395C122.213 36.3157 121.894 36.0926 121.654 35.7957C121.413 35.4988 121.261 35.1403 121.215 34.761C121.169 34.3818 121.231 33.9972 121.393 33.6514C121.555 33.3055 121.812 33.0124 122.133 32.8056C122.454 32.5988 122.827 32.4866 123.209 32.4819C123.505 32.5097 123.793 32.5963 124.055 32.7366C124.317 32.877 124.548 33.0684 124.736 33.2994C124.923 33.5304 125.062 33.7965 125.145 34.0821C125.228 34.3676 125.253 34.6669 125.218 34.9622Z" fill="#403D4F"/>
<path d="M106.765 34.9622C106.681 35.336 106.493 35.6783 106.223 35.95C105.953 36.2216 105.611 36.4114 105.238 36.4975C104.865 36.5836 104.475 36.5625 104.113 36.4367C103.751 36.3108 103.432 36.0854 103.193 35.7862C102.953 35.4871 102.803 35.1264 102.76 34.7458C102.717 34.3651 102.782 33.98 102.948 33.6347C103.114 33.2894 103.374 32.998 103.698 32.7941C104.022 32.5901 104.398 32.4819 104.781 32.4819C105.075 32.5127 105.359 32.6016 105.619 32.7433C105.878 32.885 106.107 33.0768 106.291 33.3075C106.476 33.5382 106.613 33.8033 106.694 34.0874C106.775 34.3714 106.799 34.6687 106.765 34.9622Z" fill="#403D4F"/>
<path d="M119.216 27.9436L119.415 27.7204C119.622 27.5426 119.847 27.3848 120.084 27.2492C120.392 27.0599 120.726 26.9178 121.076 26.8276C121.466 26.6809 121.876 26.5971 122.292 26.5795C122.687 26.53 123.087 26.53 123.482 26.5795C123.829 26.5493 124.177 26.5493 124.524 26.5795L125.491 26.8523C125.625 26.9059 125.737 27.0028 125.809 27.1275C125.882 27.2522 125.91 27.3976 125.89 27.5404C125.87 27.6832 125.803 27.8151 125.699 27.9152C125.595 28.0152 125.461 28.0777 125.318 28.0924H124.325C124.037 28.055 123.746 28.055 123.457 28.0924C123.135 28.0678 122.812 28.0678 122.49 28.0924C122.173 28.1339 121.859 28.1918 121.548 28.2661C121.25 28.2661 121.002 28.4645 120.754 28.4893C120.579 28.5669 120.396 28.6251 120.208 28.6629H120.01C119.851 28.7313 119.673 28.736 119.511 28.6759C119.349 28.6159 119.217 28.4957 119.142 28.3405C119.105 28.2542 119.086 28.1615 119.086 28.0677C119.086 27.9739 119.105 27.8811 119.142 27.7948L119.216 27.9436Z" fill="#403D4F"/>
<path d="M107.162 28.8856H106.989L106.617 28.7368H106.344C106.252 28.6806 106.151 28.6388 106.046 28.6128C105.835 28.5405 105.62 28.4825 105.401 28.4392C105.163 28.4042 104.921 28.4042 104.682 28.4392C104.476 28.4154 104.268 28.4154 104.062 28.4392H103.268C103.102 28.4328 102.944 28.3619 102.828 28.2417C102.713 28.1214 102.648 27.9611 102.648 27.7943C102.646 27.6696 102.684 27.5475 102.755 27.4451C102.826 27.3428 102.928 27.2653 103.045 27.2238L103.814 26.951C104.085 26.8569 104.37 26.8067 104.657 26.8022C104.994 26.7407 105.338 26.7407 105.674 26.8022C106.324 26.8727 106.943 27.1217 107.46 27.5215C107.635 27.6593 107.793 27.8175 107.931 27.9927C108.055 28.1416 108.055 28.1911 108.055 28.1911V28.4392C108.077 28.6066 108.031 28.7757 107.929 28.9102C107.827 29.0447 107.677 29.1339 107.51 29.1585C107.435 29.1412 107.366 29.1078 107.306 29.0607C107.246 29.0135 107.197 28.9537 107.162 28.8856Z" fill="#403D4F"/>
<path d="M167.482 213.418C166.936 206.547 157.196 175.006 149.284 160C149.284 160 132.399 153.464 121.284 153.5C109.687 153.538 94.2843 162.5 94.2843 162.5C89.1254 174.182 82.6322 202.405 80.9208 207.911C79.8876 211.151 79.7621 214.612 80.558 217.917C81.3538 221.223 83.0406 224.248 85.4349 226.662C91.3131 233.334 106.467 240.973 109.965 240.973C125.01 238.824 139.758 234.946 153.915 229.415C161.901 226.067 168.003 220.313 167.482 213.418Z" fill="#93929C"/>
<path d="M112.222 43.3951C111.803 43.3987 111.388 43.3144 111.003 43.1478C110.619 42.9812 110.274 42.7359 109.99 42.4278C109.885 42.32 109.805 42.1914 109.754 42.0503C109.702 41.9093 109.681 41.759 109.692 41.6094C109.692 41.3365 110.114 37.9138 110.262 36.6488C110.281 36.5215 110.348 36.4063 110.45 36.3277C110.552 36.249 110.68 36.2129 110.808 36.2272C110.931 36.2455 111.042 36.3092 111.12 36.4056C111.198 36.502 111.237 36.6242 111.23 36.7481C111.23 36.9465 110.684 41.4358 110.635 41.7086C110.838 41.9334 111.087 42.1117 111.365 42.2315C111.643 42.3514 111.944 42.4099 112.247 42.4031C112.307 42.403 112.368 42.4153 112.423 42.4392C112.479 42.4632 112.53 42.4983 112.572 42.5424C112.613 42.5865 112.646 42.6388 112.667 42.6958C112.687 42.7529 112.697 42.8136 112.693 42.8743C112.705 42.941 112.701 43.0094 112.682 43.0744C112.663 43.1393 112.63 43.1991 112.584 43.2493C112.539 43.2995 112.483 43.3387 112.42 43.364C112.357 43.3892 112.289 43.3999 112.222 43.3951Z" fill="#F18380"/>
<path d="M128.518 1.57829C114.777 -2.71256 105.005 2.66964 101.904 6.73727C100.647 6.32416 99.5358 5.55667 98.7042 4.52708C97.8726 3.49748 97.3561 2.24961 97.2167 0.933471C96.4994 1.32708 95.9264 1.93927 95.581 2.68104C95.2356 3.4228 95.1358 4.25541 95.2963 5.05775C95.4568 5.86009 95.869 6.59028 96.4732 7.14214C97.0773 7.69401 97.8417 8.03877 98.6553 8.12621C93.6947 9.76318 90.7929 14.7485 90.9417 20.9244C91.1503 23.1822 91.9471 25.346 93.2526 27.1999C94.5582 29.0538 96.3269 30.533 98.3825 31.4902C99.8261 27.1604 101.999 23.1089 104.806 19.5106C105.579 22.6845 107.216 25.5819 109.537 27.8807C111.858 30.1795 114.771 31.7896 117.952 32.532C117.643 30.6212 117.153 28.7442 116.488 26.9265C119.27 29.2496 122.571 30.8663 126.112 31.6391C126.359 29.5335 126.3 27.4032 125.938 25.3144C128.418 29.7789 132.585 36.55 138.736 38.435H142.605C144.64 34.2645 145.603 29.6529 145.408 25.0168C145.359 16.4351 142.258 5.86914 128.518 1.57829Z" fill="#302D3B"/>
<path d="M136.528 39.9482C136.727 36.5751 137.62 32.5075 141.737 33.2267C146.549 33.946 147.02 46.9674 136.776 45.4048L136.528 39.9482Z" fill="#FBBEAA"/>
<path d="M142.134 40.8163C142.047 40.8175 141.963 40.795 141.888 40.7513C141.814 40.7076 141.753 40.6442 141.712 40.5683C141.607 40.3505 141.446 40.1646 141.246 40.0295C141.045 39.8944 140.812 39.815 140.571 39.7994C140.288 39.8023 140.01 39.8766 139.763 40.0153C139.516 40.154 139.307 40.3527 139.157 40.5931C139.102 40.6823 139.018 40.7504 138.919 40.7863C138.82 40.8223 138.712 40.8241 138.612 40.7915C138.512 40.7544 138.427 40.6862 138.368 40.5968C138.31 40.5075 138.283 40.4018 138.289 40.2955C138.326 39.2476 138.652 38.2303 139.229 37.3552C139.807 36.4801 140.614 35.7811 141.563 35.335C141.682 35.2957 141.811 35.3049 141.922 35.3607C142.034 35.4165 142.119 35.5143 142.159 35.6326C142.198 35.751 142.189 35.8802 142.133 35.9917C142.077 36.1033 141.979 36.1882 141.861 36.2278C141.303 36.4988 140.807 36.8804 140.402 37.3495C139.997 37.8186 139.692 38.3652 139.505 38.9561C139.858 38.8088 140.238 38.7329 140.621 38.7329C141.022 38.7708 141.407 38.9058 141.744 39.1262C142.081 39.3466 142.36 39.6458 142.555 39.9979C142.585 40.0531 142.604 40.1137 142.611 40.1763C142.617 40.2388 142.611 40.302 142.592 40.3621C142.574 40.4222 142.543 40.478 142.503 40.5262C142.462 40.5744 142.413 40.614 142.357 40.6427L142.134 40.8163Z" fill="#F18380"/>
<path d="M141.514 48.3806C140.323 39.4269 136.9 24.6941 136.9 24.6941H130.526C130.526 24.6941 130.278 51.5553 130.104 57.4335C129.931 63.3118 128.368 65.0727 128.368 65.0727C128.368 65.0727 136.355 63.535 137.223 55.8958C137.489 57.3717 137.663 58.8627 137.744 60.3602C137.744 60.3602 142.679 57.3344 141.514 48.3806Z" fill="#302D3B"/>
<path d="M116.644 148.821L175.002 172.749C182.225 176.124 189.695 175.28 192.941 166.852C193.535 165.281 193.803 163.606 193.73 161.928C193.656 160.25 193.243 158.604 192.515 157.091C191.786 155.577 190.758 154.228 189.492 153.124C188.227 152.02 186.75 151.184 185.152 150.668L120.715 132.455C114.75 130.227 110.015 131.967 108.359 136.454C106.402 141.987 109.067 145.728 116.644 148.821Z" fill="#FBBEAA"/>
<path d="M110.243 63.5021C110.243 63.5021 96.5593 71.4005 94.4464 72.7828C92.3336 74.165 92.7843 76.5 90.3393 82.0635C89.6393 83.6562 84.5277 89.1937 84.7843 98C85.4841 122.019 92.6101 163.576 92.6101 163.576C96.8831 165.881 101.427 167.646 106.136 168.828C108.407 169.085 110.204 169.144 111.744 167.643C113.284 166.143 117.826 160.693 117.826 160.693C117.826 160.693 125.31 165.767 128.686 167.643C129.491 168.205 130.4 168.599 131.36 168.803C132.32 169.006 133.311 169.015 134.274 168.828C139.191 167.821 158.542 162.174 159.155 161.818C159.767 161.463 160.339 161.088 160.28 160.416C160.221 159.745 159.865 82.7151 159.609 79.2398C159.558 77.3786 158.972 75.5714 157.922 74.0342C156.871 72.497 155.4 71.2948 153.685 70.5712C149.558 68.7348 134.057 62.4358 134.057 62.4358L117.885 73.6714L110.243 63.5021Z" fill="#003399"/>
<path d="M110.243 61.291L117.846 73.6719C117.846 73.6719 110.382 79.5957 109.947 80.0301C109.513 80.4645 108.644 80.425 108.466 79.7339C108.289 79.0428 106.136 65.9116 106.097 65.9116C106.059 65.842 106.039 65.7639 106.039 65.6845C106.039 65.6052 106.059 65.5271 106.097 65.4575C106.294 65.3192 110.243 61.291 110.243 61.291Z" fill="#F5F5F5"/>
<path d="M134.136 59L117.826 73.6714C117.826 73.6714 126.416 79.5952 126.791 80.0296C126.9 80.1227 127.029 80.1897 127.168 80.2256C127.307 80.2615 127.453 80.2653 127.593 80.2368C127.734 80.2083 127.867 80.1481 127.981 80.0609C128.095 79.9737 128.187 79.8618 128.252 79.7335C128.884 78.7264 138.994 64.5289 139.033 64.4104C139.075 64.3421 139.097 64.2635 139.097 64.1834C139.097 64.1032 139.075 64.0246 139.033 63.9563C138.816 63.8378 134.136 59 134.136 59Z" fill="#F5F5F5"/>
<g filter="url(#filter0_d_1_420)">
<rect width="40.9288" height="58.3236" rx="1" transform="matrix(-0.993463 -0.114154 -0.114154 0.993463 141.358 108.357)" fill="#EFEFEF"/>
</g>
<path d="M122.141 134.497C119.295 133.294 116.721 131.512 114.583 129.263C113.26 127.874 111.759 126.669 110.122 125.679C109.161 125.079 108.332 124.286 107.687 123.352C106.834 121.902 106.128 120.371 105.581 118.783C105.378 117.415 104.912 116.096 104.211 114.902C103.543 114.29 101.189 114.617 99.9662 116.993C99.5448 118.051 99.3539 119.19 99.4062 120.334C99.4586 121.478 99.753 122.601 100.27 123.627C100.878 124.857 101.354 126.148 101.691 127.477L101.469 127.61C99.6064 126.621 97.6161 125.904 95.5585 125.48C94.8122 125.313 94.0348 125.404 93.3516 125.736C92.6683 126.069 92.1191 126.625 91.7922 127.314C91.4654 128.004 91.38 128.787 91.5499 129.537C91.7198 130.287 92.135 130.961 92.7286 131.45C89.5178 131.819 89.8823 136.771 92.6388 137.426C92.0485 137.673 91.5503 138.099 91.2114 138.644C90.8725 139.189 90.7093 139.827 90.744 140.473C90.7786 141.119 91.0093 141.741 91.405 142.255C91.8006 142.768 92.3421 143.15 92.9561 143.346C90.9983 145.151 92.4294 148.126 95.9845 148.139C98.8729 148.433 106.598 149.642 109.286 150.221C111.973 150.799 117.375 149.52 119.111 150.057C121.694 151.003 124.694 151.019 126.982 144.222C129.271 137.425 124.799 135.375 122.141 134.497Z" fill="#FBBEAA"/>
<path d="M114.254 49.6052C116.649 49.5128 118.948 48.642 120.802 47.1249" stroke="#73102A" stroke-width="0.5" stroke-miterlimit="10" stroke-linecap="round"/>
<path d="M123.284 155L176.284 177.5C183.508 180.873 192.039 177.929 195.284 169.5C195.878 167.929 195.918 165.36 195.844 163.682C195.771 162.004 195.357 160.358 194.628 158.845C193.9 157.332 192.55 154.604 191.285 153.5C190.019 152.396 185.508 150.359 183.91 149.843L124.284 133.5L123.284 155Z" fill="#003399"/>
<path d="M13.7703 49.2628L14.129 49.6214L13.6238 50.1265L14.0065 50.5092L14.5116 50.0041L14.8703 50.3627L13.4901 51.7428L13.1315 51.3842L13.678 50.8377L13.2953 50.4549L12.7487 51.0015L12.3901 50.6429L13.7703 49.2627L13.7703 49.2628ZM16.15 51.6424L14.7698 53.0226L14.4233 52.6761L15.4763 51.623L15.2493 51.396L14.8532 51.7922C14.6752 51.9702 14.445 52.1762 14.2267 52.2036C13.9947 52.2449 13.7735 52.1065 13.612 51.8621L13.9542 51.5199C14.1036 51.7522 14.2347 51.7177 14.5079 51.4444L15.2325 50.7198L16.1525 51.6399L16.15 51.6424ZM16.4494 51.9418L16.808 52.3004L16.191 53.3231L17.2137 52.7061L17.5723 53.0647L16.3599 54.6127L16.0255 54.2782L16.6805 53.4565L15.7502 54.0028L15.5112 53.7638L16.0587 52.8347L15.2371 53.4897L14.9026 53.1552L16.4494 51.9417L16.4494 51.9418ZM17.8717 53.3641L18.2303 53.7227L17.6699 54.2831L18.5768 54.0692L18.9716 54.464L17.8345 54.6932L17.6036 55.8563L17.1737 55.4264L17.4116 54.5436L16.8512 55.104L16.4926 54.7454L17.8728 53.3652L17.8717 53.3641L17.8717 53.3641ZM17.8054 50.3444C15.6539 48.1929 13.3417 47.6583 12.0305 48.9695C10.7318 50.2681 11.2528 52.5918 13.4055 54.7444C15.5691 56.908 17.883 57.4168 19.1804 56.1194C20.4916 54.8082 19.9701 52.5091 17.8054 50.3444ZM13.6098 54.5401C11.5887 52.519 11.0448 50.363 12.2345 49.1734C13.4366 47.9713 15.5812 48.5288 17.6011 50.5488C19.6332 52.5808 20.1809 54.7131 18.9775 55.9165C17.7879 57.1061 15.6429 56.5732 13.6098 54.5401ZM17.4093 50.7406C15.5089 48.8401 13.5166 48.297 12.4374 49.3763C11.3581 50.4556 11.9012 52.4479 13.8016 54.3483C15.702 56.2487 17.6943 56.7918 18.7736 55.7125C19.854 54.6344 19.3109 52.6421 17.4093 50.7406ZM13.8417 54.3082C11.9643 52.4308 11.4205 50.4655 12.4723 49.4138C13.524 48.362 15.4903 48.9069 17.3667 50.7832C19.243 52.6595 19.7879 54.6258 18.7361 55.6776C17.6855 56.7305 15.7191 56.1856 13.8417 54.3082L13.8417 54.3082Z" fill="white"/>
<defs>
<filter id="filter0_d_1_420" x="94.1464" y="103.792" width="49.1041" height="62.3995" filterUnits="userSpaceOnUse" color-interpolation-filters="sRGB">
<feFlood flood-opacity="0" result="BackgroundImageFix"/>
<feColorMatrix in="SourceAlpha" type="matrix" values="0 0 0 0 0 0 0 0 0 0 0 0 0 0 0 0 0 0 127 0" result="hardAlpha"/>
<feOffset dx="2"/>
<feComposite in2="hardAlpha" operator="out"/>
<feColorMatrix type="matrix" values="0 0 0 0 0.603922 0 0 0 0 0.6 0 0 0 0 0.631373 0 0 0 1 0"/>
<feBlend mode="normal" in2="BackgroundImageFix" result="effect1_dropShadow_1_420"/>
<feBlend mode="normal" in="SourceGraphic" in2="effect1_dropShadow_1_420" result="shape"/>
</filter>
</defs>
</svg>
