<svg width="213" height="515" viewBox="0 0 213 515" fill="none" xmlns="http://www.w3.org/2000/svg">
<g clip-path="url(#clip0_21_291)">
<path d="M109.763 64.0459H139.759V98.424H109.763V64.0459Z" fill="#FBBEAA"/>
<path d="M139.685 64.0459H109.789V83.2258C111.095 83.3838 112.409 83.4649 113.725 83.4686C124.039 83.4686 135.574 80.7251 139.784 71.1352L139.685 64.0459Z" fill="#F18380"/>
<path d="M94.2668 38.5298C94.5159 48.4596 94.2668 56.3015 96.1104 63.8764C97.954 71.4512 103.584 77.6422 116.041 77.6422C128.497 77.6422 142.698 73.6848 143.694 58.5109C145.737 56.3501 149.051 48.6539 149.175 40.0351C149.3 31.4162 148.602 13.1832 128.448 10.3912C108.293 7.59921 93.7187 14.8099 94.2668 38.5298Z" fill="#FBBEAA"/>
<path d="M104.805 46.3469C104.805 47.6822 103.983 48.7747 102.962 48.7747C101.94 48.7747 101.118 47.6822 101.118 46.3469C101.118 45.0116 101.94 43.9191 102.962 43.9191C103.983 43.9191 104.805 44.9145 104.805 46.3469Z" fill="#403D4F"/>
<path d="M127.228 46.3469C127.228 47.6822 126.405 48.7747 125.384 48.7747C124.363 48.7747 123.54 47.6822 123.54 46.3469C123.54 45.0116 124.363 43.9191 125.384 43.9191C126.405 43.9191 127.228 44.9145 127.228 46.3469Z" fill="#403D4F"/>
<path d="M122.718 41.2972C122.892 41.5157 124.213 41.2972 125.209 41.2972C126.206 41.2972 128.124 41.2972 128.124 41.0787C128.124 40.8602 127.177 39.3549 124.686 39.622C122.892 39.8162 122.245 40.9087 122.718 41.2972Z" fill="#403D4F"/>
<path d="M105.228 41.2971C105.079 41.5156 103.958 41.2971 103.086 41.2971C102.214 41.2971 100.594 41.2971 100.594 41.0786C100.818 40.5284 101.24 40.0766 101.782 39.8084C102.323 39.5401 102.946 39.4738 103.534 39.6219C105.079 39.8162 105.502 40.9087 105.228 41.2971Z" fill="#403D4F"/>
<path d="M112.579 56.3985C110.835 56.3985 109.44 55.2817 109.39 54.4805L109.963 47.634C109.982 47.4644 110.068 47.3086 110.203 47.1998C110.338 47.091 110.511 47.0377 110.685 47.0514C110.77 47.0575 110.854 47.08 110.93 47.1175C111.006 47.155 111.074 47.2069 111.129 47.2701C111.185 47.3332 111.227 47.4065 111.254 47.4856C111.28 47.5648 111.29 47.6482 111.283 47.7311L110.735 54.3349C110.987 54.6009 111.297 54.8088 111.641 54.9432C111.986 55.0776 112.358 55.1352 112.728 55.1118C112.815 55.1052 112.903 55.1158 112.986 55.143C113.068 55.1703 113.145 55.2135 113.21 55.2702C113.275 55.3269 113.328 55.3959 113.365 55.473C113.402 55.55 113.423 55.6336 113.426 55.7187C113.426 55.8909 113.36 56.0568 113.239 56.183C113.119 56.3092 112.954 56.3862 112.778 56.3985H112.579Z" fill="#F18380"/>
<path d="M139.58 51.9796C142.312 51.6592 144.067 49.5518 144.562 47.1239C145.058 44.6961 146.612 45.91 149.545 45.91C152.478 45.91 153.977 40.2897 154.9 36.0142C156.1 30.4534 154.313 23.9436 152.553 21.6444C157.246 17.6209 154.9 3.82601 153.727 8.42429C152.788 12.1029 149.425 13.789 147.86 14.1722C143.167 -2.84158 124.786 0.185667 116.182 3.82601C109.143 1.06701 103.081 4.97559 100.93 7.27475C90.3706 3.82602 85.6776 8.42433 83.3311 10.7235C80.9846 13.0226 78.0514 26.2428 88.0241 31.9907C96.0023 36.589 107.774 32.7571 112.663 30.2663C118.294 34.8646 125.959 33.3318 129.088 31.9907C129.557 34.7497 134.937 38.6965 137.088 41.1873C139.239 43.678 138.334 52.1257 139.58 51.9796Z" fill="#F3E8AE"/>
<path d="M143.147 50.9598C143.271 48.1921 143.72 44.1133 147.756 44.0162C151.791 43.9191 152.315 46.8811 152.19 51.5425C152.065 56.2039 147.207 60.1613 142.947 58.5589L143.147 50.9598Z" fill="#FBBEAA"/>
<path d="M149.076 54.3104C148.901 54.2807 148.746 54.185 148.643 54.044C148.54 53.9031 148.499 53.7283 148.528 53.5578C148.528 53.4208 148.488 53.2866 148.413 53.1706C148.338 53.0547 148.231 52.9617 148.104 52.9023C147.85 52.7363 147.551 52.6477 147.245 52.6477C146.939 52.6477 146.64 52.7363 146.385 52.9023C146.275 52.9618 146.15 52.993 146.024 52.993C145.898 52.993 145.773 52.9618 145.663 52.9023C145.561 52.8369 145.48 52.746 145.427 52.6391C145.375 52.5322 145.353 52.4134 145.364 52.2953C145.713 48.3865 148.279 47.6582 148.378 47.6339C148.463 47.6083 148.553 47.6001 148.641 47.6098C148.73 47.6194 148.815 47.6467 148.893 47.69C148.97 47.7333 149.037 47.7916 149.09 47.8613C149.143 47.931 149.181 48.0107 149.201 48.0952C149.247 48.2561 149.225 48.4283 149.141 48.574C149.057 48.7196 148.917 48.8268 148.752 48.8721C148.254 49.0917 147.821 49.4286 147.49 49.8525C147.159 50.2764 146.943 50.7738 146.859 51.2999C147.541 51.1915 148.241 51.3296 148.827 51.6884C149.168 51.8833 149.444 52.1707 149.621 52.5154C149.798 52.8602 149.868 53.2476 149.823 53.6306C149.828 53.7252 149.811 53.8196 149.774 53.9072C149.737 53.9948 149.681 54.0737 149.61 54.1383C149.539 54.2029 149.455 54.2517 149.362 54.2814C149.27 54.3111 149.172 54.321 149.076 54.3104Z" fill="#F18380"/>
<path d="M114.297 65.1383C116.702 65.0479 119.011 64.1955 120.874 62.7104" stroke="#73102A" stroke-width="0.5" stroke-miterlimit="10" stroke-linecap="round"/>
</g>
<path d="M28.4704 91.9244C28.345 89.1829 29.0789 86.4708 30.5696 84.1666C32.8648 81.5054 34.5842 78.398 35.6198 75.0398C36.4164 71.9225 37.6889 68.9467 39.3923 66.2171C40.6092 64.5439 42.4346 63.1749 42.4346 61.8971C42.4346 60.6194 40.0007 58.1551 36.5325 58.8549C35.047 59.3176 33.682 60.1031 32.5355 61.1549C31.3889 62.2068 30.4891 63.4991 29.9003 64.9394C29.568 64.0619 29.3731 63.1384 29.3224 62.2014L28.5618 43.5522C28.5502 43.0688 28.4419 42.5925 28.2433 42.1516C28.0446 41.7107 27.7595 41.3141 27.4051 40.9851C27.0506 40.6562 26.6338 40.4015 26.1794 40.2363C25.7249 40.0711 25.2419 39.9986 24.7589 40.0232C23.99 40.056 23.2506 40.3289 22.6449 40.8037C22.0392 41.2785 21.5975 41.9311 21.382 42.6699V41.8181C21.265 40.9115 20.8094 40.0828 20.1066 39.4982C19.4038 38.9137 18.5059 38.6166 17.5931 38.6666C16.6804 38.7167 15.8204 39.1102 15.1858 39.7681C14.5512 40.426 14.1889 41.2997 14.1718 42.2136V44.7996C13.8671 44.0023 13.286 43.3411 12.5346 42.9364C11.7832 42.5317 10.9113 42.4105 10.078 42.5949C9.24464 42.7793 8.50528 43.2569 7.99467 43.9408C7.48406 44.6247 7.23618 45.4693 7.29622 46.3207V47.9635C6.96877 47.388 6.48079 46.9204 5.89188 46.6179C5.30296 46.3153 4.63864 46.1909 3.98014 46.2598C3.07838 46.3742 2.25663 46.8352 1.68878 47.545C1.12094 48.2548 0.851589 49.1577 0.93787 50.0626L2.42855 65.7912C3.4051 74.6588 5.2391 83.4108 7.90471 91.9244C7.93694 93.3459 8.26626 94.7449 8.87148 96.0315C9.4767 97.3181 10.3444 98.4639 11.4189 99.3951C12.4934 100.326 13.7509 101.022 15.1104 101.439C16.47 101.855 17.9016 101.982 19.3132 101.812C20.5907 101.854 21.8624 101.622 23.0421 101.13C24.2218 100.638 25.2819 99.8976 26.1504 98.9598C27.0189 98.0221 27.6756 96.9085 28.0759 95.6946C28.4763 94.4807 28.6107 93.1949 28.4704 91.9244Z" fill="#FBBEAA"/>
<path d="M27.862 67.5865C29.0181 67.5865 29.1093 66.8564 29.6265 65.5178C27.0405 65.5178 19.5261 66.0045 16.2405 72.3324C19.5565 67.769 25.9149 67.5865 27.862 67.5865ZM21.96 43.5221C21.96 43.5221 22.1425 44.5869 22.325 46.1385C22.325 46.9295 22.5076 47.8725 22.5685 48.8461C22.6293 49.8196 22.7205 50.8844 22.8118 51.8883C22.8118 54.0179 22.9639 56.1171 22.9639 57.6991C22.9639 59.2811 22.9639 60.3459 22.9639 60.3459C22.964 60.3965 22.9537 60.4466 22.9335 60.493C22.9133 60.5394 22.8836 60.581 22.8464 60.6154C22.8092 60.6497 22.7653 60.676 22.7175 60.6924C22.6696 60.7089 22.6189 60.7151 22.5685 60.7109C22.4829 60.7066 22.4009 60.6746 22.335 60.6197C22.2692 60.5649 22.223 60.4902 22.2033 60.4068C22.2033 60.4068 22.0208 59.3419 21.8687 57.7599C21.7166 56.1779 21.4732 54.0788 21.3819 51.9796C21.3819 50.9148 21.3819 49.85 21.3819 48.9373C21.3819 48.0246 21.3819 47.0207 21.3819 46.2297C21.3819 44.6173 21.3819 43.5829 21.3819 43.5829C21.3817 43.5323 21.3921 43.4822 21.4123 43.4358C21.4325 43.3894 21.4622 43.3477 21.4994 43.3134C21.5366 43.279 21.5805 43.2528 21.6283 43.2364C21.6762 43.2199 21.727 43.2136 21.7774 43.2178C21.8357 43.2514 21.8837 43.3004 21.9159 43.3595C21.9481 43.4186 21.9633 43.4853 21.96 43.5525V43.5221ZM14.9019 45.6517C14.9019 45.6517 15.0844 46.5644 15.2974 47.903C15.2974 48.6027 15.5103 49.3936 15.6016 50.2455C15.6929 51.0973 15.7841 52.01 15.8754 52.9227C15.8754 54.7481 16.0883 56.5734 16.1188 57.9424C16.1492 59.3115 16.1188 60.2546 16.1188 60.2546C16.1149 60.3026 16.1016 60.3493 16.0797 60.3922C16.0577 60.435 16.0275 60.4731 15.9907 60.5042C15.954 60.5353 15.9114 60.5589 15.8655 60.5735C15.8196 60.5881 15.7713 60.5935 15.7233 60.5893C15.6415 60.5836 15.5639 60.5504 15.5032 60.4952C15.4425 60.44 15.4021 60.366 15.3886 60.285C15.3886 60.285 15.2061 59.3723 14.9931 58.0337C14.7802 56.6951 14.5976 54.8394 14.4455 53.0444C14.4455 52.1317 14.4455 51.219 14.263 50.3672C14.0805 49.5154 14.263 48.6939 14.263 47.9942C14.263 46.6252 14.263 45.7125 14.263 45.7125C14.2628 45.6619 14.2731 45.6118 14.2934 45.5654C14.3136 45.519 14.3433 45.4773 14.3805 45.443C14.4176 45.4087 14.4615 45.3825 14.5094 45.366C14.5573 45.3496 14.6081 45.3432 14.6585 45.3475C14.726 45.3753 14.7844 45.4213 14.8274 45.4804C14.8704 45.5395 14.8961 45.6092 14.9019 45.6821V45.6517ZM8.08719 48.5418C8.08719 48.5418 8.26968 49.3024 8.51306 50.4585C8.51306 51.0061 8.75649 51.6754 8.84776 52.4056C8.93903 53.1357 9.06067 53.8962 9.18236 54.6568C9.39532 56.2084 9.48667 57.6991 9.54752 58.916C9.60836 60.1329 9.54752 60.8631 9.54752 60.8631C9.54769 60.9137 9.53728 60.9637 9.51706 61.0101C9.49684 61.0565 9.46717 61.0983 9.42998 61.1326C9.39278 61.1669 9.34888 61.1931 9.30102 61.2096C9.25315 61.226 9.20244 61.2324 9.152 61.2281C9.07433 61.2241 8.99996 61.1953 8.93977 61.1461C8.87957 61.0968 8.83665 61.0297 8.8173 60.9543C8.8173 60.9543 8.60439 60.1938 8.39144 59.0681C8.17848 57.9425 7.87421 56.3605 7.69168 54.8393C7.69168 54.0483 7.53954 53.2878 7.4787 52.5576C7.41785 51.8275 7.4787 51.1582 7.4787 50.5802C7.4787 49.4241 7.4787 48.6331 7.4787 48.6331C7.47852 48.5825 7.48893 48.5324 7.50915 48.486C7.52937 48.4396 7.55895 48.3979 7.59614 48.3635C7.63333 48.3292 7.67733 48.303 7.72519 48.2866C7.77306 48.2701 7.82377 48.2638 7.87421 48.268C7.93037 48.2994 7.97872 48.343 8.01561 48.3957C8.05249 48.4484 8.07697 48.5088 8.08719 48.5723V48.5418Z" fill="#F18380"/>
<path d="M170.833 99.5168C176.942 107.371 206.375 189.92 206.375 189.92C173.65 179.448 189.915 175.433 172.116 178.428C172.116 178.428 144.308 119.413 143.524 115.104C142.707 111.706 143.074 108.131 144.565 104.971C146.056 101.81 148.582 99.2538 151.724 97.7247C160.484 93.247 164.725 91.6624 170.833 99.5168Z" fill="#003399"/>
<path d="M102.297 89.4502L35.9917 134.169C36.2707 136.457 30.8974 89.4502 30.8974 89.4502L6.35551 91.741C6.35551 91.741 7.78927 139.6 11.4009 164.875C12.8342 174.905 21.1833 178.709 31.083 176.549C35.9708 175.483 40.5723 173.477 44.6671 170.603C62.2627 158.253 111.627 123.466 115.663 119.09C122.626 111.54 122.626 105.884 118.624 99.668C114.622 93.452 106.059 88.5165 102.297 89.4502Z" fill="#002B80"/>
<path d="M180.546 324.439C180.964 327.637 180.744 330.887 179.899 334C179.053 337.113 177.599 340.027 175.62 342.574C173.64 345.122 171.176 347.251 168.369 348.84C165.561 350.428 162.467 351.444 159.264 351.829C156.061 352.214 152.814 351.961 149.71 351.083C146.606 350.204 143.707 348.72 141.181 346.714C138.655 344.709 136.551 342.222 134.992 339.398C133.433 336.574 132.449 333.469 132.097 330.263C132.097 330.263 119.395 241.047 116.383 223.023C113.37 204.999 116.558 189.912 136.741 185.62C157.677 181.177 170.756 196.514 172.337 211.877C173.919 227.24 180.546 324.439 180.546 324.439Z" fill="#93929C"/>
<path d="M140.507 326.171C140.586 332.642 138.092 338.88 133.573 343.512C129.054 348.145 122.879 350.792 116.408 350.872C109.936 350.952 103.699 348.458 99.0662 343.939C94.4338 339.419 91.7864 333.245 91.7065 326.773C91.7065 326.773 88.6189 236.704 87.5645 218.454C86.5102 200.204 91.2798 185.569 111.814 183.461C133.101 181.277 144.448 197.92 144.448 213.383C144.448 228.847 140.507 326.171 140.507 326.171Z" fill="#93929C"/>
<path d="M101.447 432.306C101.447 432.306 102.652 483.491 102.953 491.147C103.254 498.804 108.099 500.887 115.906 501.565C123.713 502.243 127.002 496.042 128.106 491.122C129.211 486.202 135.888 436.021 135.888 436.021L101.447 432.306Z" fill="#FBBEAA"/>
<path d="M102.326 468.002L131.119 471.09C133.353 455.25 135.888 435.946 135.888 435.946L101.447 432.23C101.447 432.23 101.899 451.409 102.326 468.002Z" fill="#F18380"/>
<path d="M140.507 326.171C140.467 322.967 139.797 319.802 138.534 316.856C137.271 313.911 135.441 311.244 133.147 309.006C130.854 306.768 128.141 305.004 125.166 303.814C122.191 302.625 119.01 302.033 115.806 302.072C112.601 302.112 109.436 302.782 106.491 304.045C103.546 305.308 100.878 307.138 98.6404 309.432C96.4026 311.726 94.6385 314.438 93.4488 317.413C92.2592 320.389 91.6672 323.569 91.7068 326.773L96.7273 469.44L136.114 473.682L140.507 326.171Z" fill="#93929C"/>
<path d="M152.983 434.264C152.983 434.264 159.66 485.022 160.765 492.578C161.869 500.134 166.915 501.741 174.772 501.565C182.629 501.389 185.215 494.888 185.792 489.892C186.37 484.897 187.625 434.264 187.625 434.264H152.983Z" fill="#FBBEAA"/>
<path d="M157.804 469.659H186.772C187.275 453.694 187.751 434.264 187.751 434.264H152.984C152.984 434.264 155.494 453.192 157.804 469.659Z" fill="#F18380"/>
<path d="M180.547 324.439C179.713 318.066 176.398 312.279 171.323 308.336C166.248 304.393 159.822 302.611 153.44 303.378C147.059 304.145 141.238 307.399 137.242 312.433C133.246 317.467 131.397 323.874 132.098 330.263L153.937 474.46H193.549L180.547 324.439Z" fill="#93929C"/>
<path d="M133.127 330.263L155.644 473.205" stroke="#676767" stroke-width="0.75" stroke-miterlimit="10" stroke-linecap="round"/>
<path d="M133.102 330.263C133.102 330.263 120.4 241.047 117.388 223.023" stroke="#676767" stroke-width="0.75" stroke-miterlimit="10" stroke-linecap="round"/>
<path d="M172.137 475.608C169.29 475.404 166.466 476.252 164.204 477.992C161.941 479.732 160.396 482.243 159.861 485.047L146.758 498.477V506.836H188.755C188.755 506.836 186.646 491.774 186.044 488.386C185.441 484.997 183.408 475.608 172.137 475.608Z" fill="#FBBEAA"/>
<path d="M159.887 484.947C159.41 484.294 158.732 483.792 158.255 484.093C157.778 484.394 145.101 494.436 144.499 494.938C144.128 495.286 143.847 495.719 143.681 496.201C143.515 496.682 143.468 497.196 143.545 497.699V508.468H189.684C189.684 508.468 187.877 492.553 187.751 491.674C187.626 490.796 186.747 489.641 186.245 489.666C183.078 490.636 179.792 491.16 176.48 491.222C172.079 491.456 167.688 490.593 163.703 488.712C162.225 487.684 160.934 486.411 159.887 484.947Z" fill="#2E70AC"/>
<path d="M151.126 499.431C153.36 497.774 161.393 491.498 164.405 489.139L163.702 488.787C163.608 488.747 163.522 488.687 163.451 488.612C160.238 491.122 152.682 497.046 150.523 498.653C148.698 500.051 147.448 502.069 147.009 504.326L147.988 504.477C148.402 502.476 149.514 500.687 151.126 499.431Z" fill="#1E2173"/>
<path d="M188.428 497.498C185.177 497.531 182.03 498.654 179.492 500.686C177.198 502.719 175.643 505.456 175.074 508.468H176.429C176.984 505.858 178.355 503.493 180.345 501.715C182.682 499.844 185.586 498.826 188.579 498.828L188.428 497.498Z" fill="#1E2173"/>
<path d="M136.089 508.443H189.684C190.058 508.443 190.362 508.747 190.362 509.121V514.317C190.362 514.692 190.058 514.995 189.684 514.995H136.089C135.715 514.995 135.412 514.692 135.412 514.317V509.121C135.412 508.747 135.715 508.443 136.089 508.443Z" fill="white"/>
<path d="M144.624 494.837C144.147 494.636 141.813 495.314 138.775 498.301C137.511 499.608 136.6 501.216 136.13 502.973C135.66 504.73 135.646 506.578 136.089 508.342H151.327C150.473 498.703 145.101 495.038 144.624 494.837Z" fill="white"/>
<path d="M150.473 494.988C150.661 495.218 150.751 495.514 150.723 495.81C150.695 496.106 150.551 496.379 150.323 496.569C150.211 496.662 150.081 496.731 149.943 496.774C149.804 496.816 149.658 496.831 149.513 496.817C149.369 496.803 149.228 496.761 149.1 496.692C148.972 496.624 148.859 496.531 148.766 496.419L146.256 493.381C146.068 493.151 145.978 492.856 146.006 492.56C146.035 492.264 146.178 491.991 146.407 491.8C146.517 491.704 146.646 491.632 146.785 491.588C146.925 491.543 147.072 491.528 147.217 491.542C147.363 491.556 147.504 491.599 147.632 491.67C147.76 491.74 147.873 491.835 147.963 491.951L150.473 494.988Z" fill="white"/>
<path d="M153.461 492.703C153.649 492.934 153.738 493.229 153.71 493.525C153.682 493.821 153.538 494.094 153.31 494.285C153.199 494.381 153.071 494.453 152.931 494.497C152.792 494.542 152.645 494.557 152.499 494.543C152.354 494.529 152.213 494.486 152.085 494.415C151.956 494.345 151.844 494.249 151.754 494.134L149.243 491.097C149.061 490.864 148.975 490.57 149.003 490.276C149.031 489.982 149.171 489.71 149.394 489.515C149.504 489.42 149.633 489.347 149.773 489.303C149.912 489.258 150.059 489.243 150.204 489.257C150.35 489.271 150.491 489.315 150.619 489.385C150.748 489.455 150.86 489.551 150.95 489.666L153.461 492.703Z" fill="white"/>
<path d="M156.347 490.445C156.537 490.668 156.63 490.957 156.607 491.249C156.583 491.541 156.445 491.811 156.222 492.001C155.992 492.189 155.696 492.279 155.4 492.251C155.104 492.222 154.831 492.079 154.64 491.85L152.13 488.813C152.025 488.71 151.941 488.587 151.884 488.451C151.826 488.315 151.797 488.17 151.797 488.022C151.797 487.875 151.826 487.729 151.884 487.593C151.941 487.457 152.025 487.334 152.13 487.231C152.363 487.049 152.657 486.964 152.951 486.992C153.245 487.02 153.517 487.159 153.712 487.382L156.347 490.445Z" fill="white"/>
<path d="M159.259 488.16C159.352 488.272 159.421 488.401 159.463 488.54C159.506 488.679 159.521 488.825 159.507 488.97C159.493 489.114 159.45 489.255 159.382 489.383C159.314 489.511 159.221 489.624 159.108 489.716C158.897 489.923 158.613 490.039 158.318 490.039C158.022 490.039 157.738 489.923 157.527 489.716L155.017 486.654C154.829 486.424 154.739 486.128 154.767 485.832C154.795 485.536 154.939 485.263 155.167 485.072C155.279 484.98 155.409 484.911 155.547 484.868C155.686 484.826 155.832 484.811 155.977 484.825C156.121 484.839 156.262 484.881 156.39 484.95C156.518 485.018 156.632 485.111 156.724 485.223L159.259 488.16Z" fill="white"/>
<path d="M113.145 475.608C110.298 475.404 107.475 476.252 105.212 477.992C102.949 479.732 101.404 482.243 100.87 485.047L87.7911 498.477V506.836H129.763C129.763 506.836 127.68 491.774 127.052 488.386C126.425 484.997 124.416 475.608 113.145 475.608Z" fill="#FBBEAA"/>
<path d="M100.895 484.947C100.418 484.294 99.7651 483.792 99.2631 484.093C98.761 484.394 86.1091 494.436 85.5318 494.938C84.9544 495.44 84.5527 496.067 84.5527 497.699V508.468H130.692C130.692 508.468 128.885 492.553 128.759 491.674C128.633 490.796 127.755 489.641 127.253 489.666C124.086 490.636 120.799 491.16 117.488 491.222C113.094 491.46 108.711 490.597 104.735 488.712C103.246 487.69 101.946 486.416 100.895 484.947Z" fill="#2E70AC"/>
<path d="M92.1337 499.431C94.3679 497.774 102.401 491.498 105.413 489.139L104.735 488.787C104.633 488.747 104.539 488.687 104.459 488.612C101.246 491.122 93.69 497.046 91.5312 498.653C89.7062 500.051 88.4561 502.069 88.0168 504.326L88.9958 504.477C89.4221 502.481 90.5319 500.696 92.1337 499.431Z" fill="#1E2173"/>
<path d="M129.437 497.498C126.185 497.531 123.039 498.654 120.5 500.686C118.206 502.719 116.652 505.456 116.082 508.468H117.438C117.999 505.855 119.38 503.489 121.379 501.715C123.703 499.841 126.601 498.822 129.587 498.828L129.437 497.498Z" fill="#1E2173"/>
<path d="M77.0971 508.443H130.692C131.066 508.443 131.37 508.747 131.37 509.121V514.317C131.37 514.692 131.066 514.995 130.692 514.995H77.0971C76.7228 514.995 76.4193 514.692 76.4193 514.317V509.121C76.4193 508.747 76.7228 508.443 77.0971 508.443Z" fill="white"/>
<path d="M85.632 494.837C85.1551 494.636 82.8205 495.314 79.783 498.301C78.5184 499.608 77.608 501.216 77.138 502.973C76.668 504.73 76.6539 506.578 77.097 508.342H92.3345C91.481 498.703 86.109 495.038 85.632 494.837Z" fill="white"/>
<path d="M91.5817 494.988C91.7698 495.218 91.8595 495.514 91.8313 495.81C91.8031 496.106 91.6593 496.379 91.4311 496.569C91.319 496.662 91.1898 496.731 91.0509 496.774C90.912 496.816 90.7662 496.831 90.6216 496.817C90.4771 496.803 90.3366 496.761 90.2085 496.692C90.0803 496.624 89.9668 496.531 89.8746 496.419L87.3643 493.381C87.1823 493.149 87.0964 492.855 87.1245 492.561C87.1525 492.266 87.2923 491.994 87.515 491.8C87.6256 491.704 87.7544 491.632 87.8937 491.588C88.033 491.543 88.1799 491.528 88.3254 491.542C88.471 491.556 88.6121 491.599 88.7404 491.67C88.8686 491.74 88.9812 491.835 89.0714 491.951L91.5817 494.988Z" fill="white"/>
<path d="M94.4684 492.703C94.6565 492.934 94.7463 493.229 94.7181 493.525C94.6899 493.821 94.546 494.094 94.3178 494.285C94.2072 494.381 94.0783 494.453 93.939 494.497C93.7997 494.542 93.6528 494.557 93.5073 494.543C93.3617 494.529 93.2206 494.486 93.0924 494.415C92.9641 494.345 92.8516 494.249 92.7614 494.134L90.2511 491.097C90.0691 490.864 89.9832 490.57 90.0113 490.276C90.0393 489.982 90.179 489.71 90.4017 489.515C90.6321 489.327 90.9273 489.237 91.2234 489.266C91.5195 489.294 91.7925 489.438 91.9832 489.666L94.4684 492.703Z" fill="white"/>
<path d="M97.3556 490.444C97.4604 490.545 97.5437 490.666 97.6007 490.799C97.6576 490.933 97.687 491.077 97.687 491.222C97.687 491.368 97.6576 491.511 97.6007 491.645C97.5437 491.779 97.4604 491.9 97.3556 492C97.1253 492.189 96.83 492.278 96.5339 492.25C96.2378 492.222 95.9648 492.078 95.7741 491.85L93.2638 488.812C93.0757 488.582 92.986 488.287 93.0142 487.991C93.0424 487.695 93.1862 487.422 93.4144 487.231C93.5265 487.138 93.6557 487.069 93.7946 487.027C93.9335 486.984 94.0793 486.969 94.2239 486.983C94.3684 486.997 94.5088 487.04 94.637 487.108C94.7652 487.176 94.8787 487.269 94.9709 487.382L97.3556 490.444Z" fill="white"/>
<path d="M100.267 488.16C100.359 488.272 100.429 488.401 100.471 488.54C100.514 488.679 100.528 488.825 100.514 488.97C100.5 489.114 100.458 489.255 100.39 489.383C100.321 489.511 100.228 489.624 100.116 489.716C99.9051 489.923 99.6212 490.039 99.3255 490.039C99.0298 490.039 98.7459 489.923 98.5348 489.716L96.0245 486.654C95.8363 486.424 95.7466 486.128 95.7748 485.832C95.803 485.536 95.9468 485.263 96.1751 485.072C96.2871 484.98 96.4162 484.911 96.5551 484.868C96.694 484.826 96.84 484.811 96.9845 484.825C97.1291 484.839 97.2695 484.881 97.3977 484.95C97.5258 485.018 97.6392 485.111 97.7315 485.223L100.267 488.16Z" fill="white"/>
<path d="M88.3031 198.931C88.3031 198.931 88.3031 224.963 88.3031 226.393C88.3031 227.824 100.855 240.1 117.523 240.1C143.153 240.1 173.829 230.736 173.377 224.636C173.076 220.62 172.699 198.931 172.699 198.931H88.3031Z" fill="#93929C"/>
<path d="M109.309 85.3401C109.309 85.3401 91.9123 95.3813 89.2263 97.1385C86.5403 98.8957 83.4276 101.607 84.0049 108.937C84.5823 116.267 86.8918 212.562 86.8918 212.562C92.324 215.493 98.1003 217.736 104.087 219.239C106.974 219.565 109.258 219.641 111.216 217.733C113.175 215.825 118.948 208.897 118.948 208.897C118.948 208.897 128.462 215.348 132.755 217.733C133.778 218.447 134.934 218.948 136.154 219.207C137.374 219.466 138.634 219.477 139.859 219.239C146.11 217.959 170.71 210.779 171.489 210.328C172.267 209.876 172.995 209.399 172.919 208.545C172.844 207.692 172.392 109.765 172.066 105.347C172.001 102.981 171.257 100.684 169.921 98.7294C168.586 96.7752 166.716 95.2468 164.535 94.327C159.289 91.9924 139.583 83.9846 139.583 83.9846L119.023 98.2681L109.309 85.3401Z" fill="#003399"/>
<path d="M109.309 82.5291L118.974 98.2686C118.974 98.2686 109.485 105.799 108.932 106.352C108.38 106.904 107.276 106.854 107.05 105.975C106.824 105.097 104.088 88.4031 104.037 88.4031C103.989 88.3146 103.964 88.2153 103.964 88.1145C103.964 88.0136 103.989 87.9143 104.037 87.8258C104.288 87.65 109.309 82.5291 109.309 82.5291Z" fill="#F5F5F5"/>
<g filter="url(#filter0_d_21_291)">
<rect width="48.5498" height="69.1834" rx="1" transform="matrix(-0.993463 -0.114154 -0.114154 0.993463 145.551 133.149)" fill="#EFEFEF"/>
</g>
<path d="M139.683 79.6166L118.948 98.2681C118.948 98.2681 129.868 105.799 130.345 106.351C130.484 106.47 130.648 106.555 130.825 106.6C131.002 106.646 131.186 106.651 131.365 106.615C131.544 106.578 131.713 106.502 131.858 106.391C132.003 106.28 132.121 106.138 132.203 105.975C133.006 104.694 145.859 86.6455 145.909 86.4948C145.962 86.408 145.99 86.3081 145.99 86.2062C145.99 86.1043 145.962 86.0043 145.909 85.9175C145.633 85.7669 139.683 79.6166 139.683 79.6166Z" fill="#F5F5F5"/>
<path d="M125.104 161.184C121.663 159.73 118.552 157.576 115.969 154.858C114.369 153.18 112.556 151.723 110.576 150.527C109.415 149.801 108.413 148.843 107.633 147.713C106.603 145.961 105.75 144.111 105.088 142.191C104.842 140.538 104.28 138.944 103.432 137.5C102.625 136.761 99.7792 137.156 98.3017 140.028C97.7924 141.307 97.5616 142.684 97.6249 144.066C97.6881 145.449 98.044 146.806 98.6685 148.046C99.4037 149.533 99.9796 151.093 100.386 152.7L100.118 152.86C97.8669 151.665 95.4612 150.798 92.9742 150.286C92.0722 150.085 91.1326 150.193 90.3068 150.596C89.481 150.998 88.8171 151.67 88.4221 152.503C88.0271 153.336 87.9238 154.283 88.1292 155.189C88.3345 156.096 88.8364 156.91 89.5539 157.501C85.673 157.947 86.1136 163.933 89.4453 164.724C88.7319 165.024 88.1296 165.537 87.72 166.196C87.3105 166.855 87.1132 167.627 87.1551 168.407C87.1969 169.188 87.4758 169.939 87.954 170.561C88.4322 171.182 89.0867 171.642 89.8289 171.88C87.4625 174.062 89.1922 177.658 93.4891 177.673C96.9803 178.029 106.317 179.49 109.566 180.189C112.814 180.888 119.344 179.342 121.441 179.991C124.563 181.135 128.189 181.154 130.955 172.938C133.721 164.723 128.316 162.245 125.104 161.184Z" fill="#FBBEAA"/>
<path d="M118.957 183.224L181.846 208.543C189.882 212.584 202.94 210.511 206.876 201.111C207.597 199.359 207.954 197.478 207.926 195.583C207.898 193.688 207.485 191.819 206.713 190.088C205.941 188.358 204.825 186.802 203.434 185.515C202.042 184.229 200.404 183.238 198.618 182.604L124.293 155.722L118.957 183.224Z" fill="#003399"/>
<defs>
<filter id="filter0_d_21_291" x="89.5288" y="127.715" width="57.915" height="74.0583" filterUnits="userSpaceOnUse" color-interpolation-filters="sRGB">
<feFlood flood-opacity="0" result="BackgroundImageFix"/>
<feColorMatrix in="SourceAlpha" type="matrix" values="0 0 0 0 0 0 0 0 0 0 0 0 0 0 0 0 0 0 127 0" result="hardAlpha"/>
<feOffset dx="2"/>
<feComposite in2="hardAlpha" operator="out"/>
<feColorMatrix type="matrix" values="0 0 0 0 0.603922 0 0 0 0 0.6 0 0 0 0 0.631373 0 0 0 1 0"/>
<feBlend mode="normal" in2="BackgroundImageFix" result="effect1_dropShadow_21_291"/>
<feBlend mode="normal" in="SourceGraphic" in2="effect1_dropShadow_21_291" result="shape"/>
</filter>
<clipPath id="clip0_21_291">
<rect width="74.3272" height="97.4289" fill="white" transform="matrix(-1 0 0 1 155.361 0.995117)"/>
</clipPath>
</defs>
</svg>
