<svg width="196" height="514" viewBox="0 0 196 514" fill="none" xmlns="http://www.w3.org/2000/svg">
<path d="M126.996 19.1082C125.943 15.3135 126.33 11.2637 128.082 7.73686C129.834 4.20998 132.827 1.45462 136.486 0C137.94 1.45416 137.2 6.09727 137.2 6.09727C142.338 3.68941 148.101 2.94902 153.681 3.97981C153.58 7.54736 152.235 10.9674 149.879 13.6487C152.734 13.9364 155.48 14.8983 157.89 16.455C157.525 18.1364 156.765 19.707 155.674 21.0376C154.583 22.3682 153.192 23.4207 151.614 24.1085C153.22 25.9887 154.326 28.2438 154.829 30.6649C152.088 31.4552 149.193 31.5429 146.41 30.92C146.859 32.328 147.041 33.8077 146.946 35.2825C144.303 35.6705 141.607 35.4716 139.05 34.7C136.492 33.9284 134.136 32.603 132.149 30.818C129.513 27.3867 127.745 23.3695 126.996 19.1082Z" fill="#E69D7E"/>
<path d="M142.762 32.8848C143.17 39.4923 147.329 49.5184 146.232 57.9117C144.701 69.7491 130.057 69.6215 124.394 69.6215H116V32.8848H142.762Z" fill="#E69D7E"/>
<path d="M129.904 56.0233V77.6827C129.904 77.6827 128.195 85.132 116.766 85.132C114.491 85.3238 112.23 84.6376 110.446 83.2142C108.662 81.7909 107.491 79.7385 107.173 77.4786V56.0488L129.904 56.0233Z" fill="#FBBEAA"/>
<path d="M107.173 74.06C114.342 77.4786 124.827 74.4172 129.904 65.0289V56.0233H107.173V74.06Z" fill="#F18380"/>
<path d="M92.9377 39.3896C92.844 44.5699 93.0826 49.7508 93.652 54.9006C94.5704 62.2735 97.1981 70.4372 110.209 70.4372C123.22 70.4372 129.878 64.544 132.659 54.9006C134.343 49.084 137.762 40.461 136.358 30.5115C134.955 20.562 128.96 14.0565 114.827 13.6739C100.693 13.2912 91.4835 19.6436 92.9377 39.3896Z" fill="#FBBEAA"/>
<path d="M120.516 43.8287C120.429 44.2132 120.236 44.5654 119.958 44.8448C119.68 45.1242 119.329 45.3194 118.945 45.408C118.561 45.4965 118.16 45.4749 117.788 45.3454C117.415 45.216 117.087 44.9841 116.841 44.6764C116.595 44.3687 116.441 43.9977 116.396 43.6062C116.352 43.2146 116.418 42.8185 116.589 42.4633C116.76 42.1082 117.027 41.8084 117.361 41.5987C117.695 41.3889 118.081 41.2776 118.475 41.2776C118.777 41.3093 119.07 41.4007 119.337 41.5464C119.603 41.6922 119.838 41.8895 120.028 42.1268C120.218 42.3641 120.359 42.6367 120.442 42.9289C120.526 43.221 120.551 43.5269 120.516 43.8287Z" fill="#403D4F"/>
<path d="M101.561 43.8287C101.474 44.2132 101.281 44.5654 101.003 44.8448C100.725 45.1242 100.374 45.3194 99.9899 45.408C99.6059 45.4965 99.2048 45.4749 98.8326 45.3454C98.4604 45.216 98.1323 44.9841 97.8861 44.6764C97.64 44.3687 97.4857 43.9977 97.4412 43.6062C97.3966 43.2146 97.4635 42.8185 97.6342 42.4633C97.8049 42.1082 98.0725 41.8084 98.406 41.5987C98.7396 41.3889 99.1257 41.2776 99.5197 41.2776C99.822 41.3093 100.115 41.4007 100.382 41.5464C100.648 41.6922 100.883 41.8895 101.073 42.1268C101.263 42.3641 101.404 42.6367 101.488 42.9289C101.571 43.221 101.596 43.5269 101.561 43.8287Z" fill="#403D4F"/>
<path d="M114.342 36.609C114.342 36.609 114.342 36.609 114.571 36.3794C114.775 36.196 114.998 36.0336 115.235 35.8947C115.551 35.7001 115.895 35.5539 116.255 35.461C116.656 35.3126 117.078 35.2265 117.505 35.2059C117.92 35.1547 118.34 35.1547 118.755 35.2059C119.107 35.217 119.457 35.2597 119.801 35.3335L120.796 35.6141C120.96 35.667 121.098 35.7819 121.179 35.9343C121.26 36.0867 121.278 36.2647 121.23 36.4305C121.191 36.5629 121.111 36.6793 121 36.7621C120.89 36.8449 120.756 36.8897 120.618 36.8897H119.623C119.326 36.8515 119.026 36.8515 118.73 36.8897C118.39 36.8643 118.049 36.8643 117.709 36.8897C117.378 36.8897 117.046 36.8897 116.74 37.0683C116.434 37.2468 116.179 37.2723 115.923 37.2979L115.388 37.4764H115.158C114.999 37.5457 114.819 37.5497 114.657 37.4877C114.494 37.4257 114.363 37.3026 114.291 37.1448C114.246 37.058 114.223 36.9618 114.223 36.8642C114.223 36.7665 114.246 36.6703 114.291 36.5835L114.342 36.609Z" fill="#403D4F"/>
<path d="M101.943 37.5784H101.79L101.382 37.4254H101.101H100.821C100.595 37.3509 100.365 37.2912 100.132 37.2468C99.8953 37.2091 99.6542 37.2091 99.4176 37.2468C99.1982 37.2087 98.9738 37.2087 98.7543 37.2468H97.938C97.7665 37.2402 97.6043 37.1674 97.4853 37.0437C97.3664 36.92 97.3001 36.7551 97.3002 36.5835C97.3051 36.4569 97.3461 36.3344 97.4185 36.2304C97.4908 36.1264 97.5914 36.0454 97.7084 35.9967L98.4992 35.7161C98.7878 35.6218 99.0886 35.5702 99.3921 35.563C99.7304 35.5124 100.074 35.5124 100.413 35.563C101.083 35.6302 101.72 35.8868 102.249 36.3029C102.442 36.4306 102.606 36.5954 102.734 36.7876C102.862 36.9407 102.862 36.9917 102.887 36.9917V37.2468C102.901 37.3669 102.882 37.4886 102.832 37.5987C102.782 37.7089 102.703 37.8032 102.603 37.8715C102.503 37.9398 102.387 37.9795 102.266 37.9863C102.145 37.9931 102.025 37.9668 101.918 37.9101L101.943 37.5784Z" fill="#403D4F"/>
<path d="M107.173 52.5026C106.745 52.5125 106.32 52.4286 105.927 52.2567C105.535 52.0848 105.185 51.8292 104.902 51.5077C104.792 51.398 104.705 51.2666 104.648 51.1216C104.591 50.9767 104.565 50.8214 104.571 50.6658C104.571 50.3852 105.03 46.8646 105.183 45.5635C105.183 45.4349 105.234 45.3116 105.325 45.2207C105.416 45.1298 105.539 45.0787 105.668 45.0787C105.796 45.0787 105.92 45.1298 106.011 45.2207C106.101 45.3116 106.153 45.4349 106.153 45.5635C106.153 45.7676 105.617 50.3852 105.54 50.6658C105.752 50.8931 106.009 51.074 106.294 51.197C106.58 51.32 106.888 51.3823 107.199 51.3801C107.327 51.3801 107.45 51.4312 107.541 51.5221C107.632 51.613 107.683 51.7363 107.683 51.8648C107.683 51.9934 107.632 52.1167 107.541 52.2076C107.45 52.2985 107.327 52.3495 107.199 52.3495L107.173 52.5026Z" fill="#F18380"/>
<path d="M104.775 57.5285C103.805 57.7836 103.474 59.2122 104.035 60.8705C104.622 62.0112 105.574 62.9225 106.739 63.4589C107.904 63.9953 109.216 64.1259 110.464 63.8298C111.141 63.7943 111.804 63.624 112.415 63.3291C113.026 63.0342 113.572 62.6204 114.021 62.1121C114.47 61.6038 114.813 61.0111 115.03 60.3686C115.247 59.7261 115.334 59.0468 115.286 58.3704C115.286 57.2734 114.546 56.61 113.117 56.61C110.316 56.6834 107.525 56.9906 104.775 57.5285Z" fill="#73102A"/>
<path d="M115.337 58.3703C115.337 58.3703 115.337 58.2172 115.337 58.1152C113.466 57.6765 111.498 57.9578 109.825 58.9031C108.152 59.8483 106.896 61.3885 106.306 63.2175C107.626 63.8643 109.112 64.0956 110.566 63.8808C111.244 63.839 111.906 63.6624 112.514 63.3614C113.123 63.0603 113.665 62.641 114.109 62.1278C114.554 61.6146 114.891 61.018 115.102 60.3728C115.313 59.7276 115.393 59.0468 115.337 58.3703Z" fill="#D65155"/>
<path d="M105.642 59.0849C108.865 59.1113 112.071 58.6115 115.133 57.6052C114.945 57.2597 114.656 56.9795 114.305 56.8018C113.955 56.6241 113.558 56.5573 113.168 56.6102C110.367 56.6836 107.576 56.9908 104.826 57.5287C104.559 57.6184 104.325 57.7849 104.152 58.0073C103.98 58.2297 103.877 58.4981 103.857 58.7787C104.429 58.9865 105.034 59.0902 105.642 59.0849Z" fill="white"/>
<path d="M118.169 27.3483C118.169 27.3483 122.684 42.9613 133.476 47.0687C134.729 47.0843 135.967 46.798 137.086 46.2341C138.205 45.6701 139.172 44.8451 139.905 43.8287C142.771 37.8002 143.578 30.9971 142.201 24.4654C140.389 16.5058 130.822 6.25017 113.372 8.64826C104.061 6.86244 92.9632 8.49519 86.024 17.909C79.0849 27.3227 87.3506 40.3592 92.9377 42.5276C98.4329 39.219 103.7 35.5456 108.704 31.5322C107.938 33.9302 107.122 39.007 107.939 39.007C112.654 36.496 116.292 32.3505 118.169 27.3483Z" fill="#E69D7E"/>
<path d="M132.149 48.9567C132.353 45.4871 133.297 41.3032 137.507 42.043C142.609 42.7829 142.966 56.1764 132.404 54.5692L132.149 48.9567Z" fill="#FBBEAA"/>
<path d="M137.94 49.8498C137.853 49.846 137.767 49.8208 137.692 49.7763C137.616 49.7318 137.552 49.6695 137.507 49.5947C137.401 49.369 137.236 49.1763 137.029 49.0371C136.822 48.8978 136.582 48.8172 136.333 48.8038C136.042 48.8068 135.756 48.8831 135.501 49.0258C135.247 49.1685 135.033 49.3729 134.879 49.6202C134.822 49.712 134.735 49.782 134.633 49.8189C134.532 49.8559 134.421 49.8578 134.318 49.8243C134.22 49.7819 134.137 49.7099 134.082 49.6184C134.028 49.5269 134.003 49.4204 134.011 49.3141C134.044 48.2383 134.374 47.1925 134.964 46.2921C135.553 45.3918 136.38 44.6718 137.353 44.2117C137.415 44.1877 137.48 44.1763 137.546 44.1784C137.612 44.1805 137.676 44.1959 137.736 44.2238C137.796 44.2516 137.849 44.2914 137.893 44.3405C137.936 44.3896 137.97 44.4472 137.991 44.5096C138.011 44.572 138.019 44.638 138.014 44.7036C138.008 44.7692 137.989 44.8329 137.958 44.891C137.927 44.9491 137.885 45.0002 137.834 45.0413C137.782 45.0824 137.723 45.1127 137.66 45.1302C137.09 45.4103 136.584 45.8037 136.171 46.2862C135.759 46.7687 135.449 47.3302 135.262 47.9364C135.616 47.7849 135.998 47.7068 136.384 47.7068C136.796 47.7459 137.193 47.8847 137.54 48.1114C137.887 48.3381 138.173 48.6458 138.374 49.0079C138.406 49.0632 138.427 49.1242 138.435 49.1875C138.443 49.2507 138.439 49.315 138.422 49.3767C138.406 49.4383 138.377 49.496 138.338 49.5466C138.299 49.5971 138.251 49.6395 138.195 49.6712C138.132 49.7572 138.043 49.82 137.94 49.8498Z" fill="#F18380"/>
<path d="M28.8687 82.9355C28.7693 80.7639 29.3506 78.6154 30.5315 76.7902C32.3496 74.6822 33.7117 74.1639 34.532 71.5037C35.163 69.0344 36.171 66.6771 37.5204 64.5149C38.4843 63.1894 39.9303 62.105 39.9303 61.0928C39.9303 60.0806 38.0023 58.1286 35.255 58.6829C34.0782 59.0494 32.997 59.6716 32.0888 60.5049C31.1805 61.3381 30.4677 62.3618 30.0013 63.5027C29.7381 62.8076 29.5837 62.076 29.5435 61.3338L28.941 44.6176C28.9319 44.2347 28.8461 43.8574 28.6887 43.5081C28.5313 43.1589 28.3055 42.8447 28.0247 42.5841C27.7439 42.3235 27.4138 42.1218 27.0538 41.991C26.6938 41.8601 26.3112 41.8027 25.9286 41.8221C25.3195 41.8481 24.7338 42.0643 24.254 42.4404C24.0105 42.6312 19.9343 47.5747 15.9557 52.4747C12.0938 57.2308 8.32376 61.946 8.23965 62.2342C9.01322 69.2586 10.466 76.1915 12.5776 82.9355C12.6031 84.0615 12.864 85.1697 13.3434 86.1889C13.8228 87.2081 14.5102 88.1157 15.3613 88.8534C16.2125 89.5911 17.2086 90.1424 18.2856 90.4721C19.3625 90.8018 20.4966 90.9026 21.6148 90.7678C22.6268 90.8016 23.6341 90.6173 24.5686 90.2275C25.5031 89.8377 26.3428 89.2515 27.0308 88.5086C27.7188 87.7658 28.2391 86.8836 28.5562 85.922C28.8733 84.9605 28.9798 83.9419 28.8687 82.9355Z" fill="#FBBEAA"/>
<path d="M23.2889 39.0641L10.6691 51.2509C7.62821 54.6608 6.19058 58.1149 5.9633 61.3077C5.96887 61.3135 5.96548 61.3167 5.96826 61.3196C5.64495 65.7856 7.68416 69.7297 10.9584 72.2751C11.0202 72.3323 11.0944 72.3888 11.1629 72.4395C11.183 72.4536 11.1997 72.4708 11.2136 72.4852C13.0102 73.8183 15.1592 74.7387 17.4738 75.1205C18.239 75.2502 19.0286 75.3173 19.8315 75.3103C19.8987 75.3123 19.9412 75.3157 19.9508 75.3121C19.9693 75.311 19.9967 75.3123 20.0364 75.3129C23.6391 75.2638 27.4781 73.8839 30.9716 70.7331L42.8461 59.3162L23.2889 39.0641Z" fill="#0099FF"/>
<path d="M5.9644 61.3227C5.45975 68.3191 10.7454 74.0225 17.4733 75.1203C18.6491 75.2154 19.5176 75.2898 19.8311 75.3101C19.8982 75.3121 19.9408 75.3155 19.9503 75.3119C19.9688 75.3107 19.9962 75.3121 20.036 75.3127C20.7232 75.2671 26.0133 74.7745 33.1386 67.6152C38.6213 62.109 40.9288 60.1034 40.9288 60.1034L33.8269 57.2119C33.8269 57.2119 22.7524 69.1258 16.1763 70.092C9.59618 71.0676 6.323 65.5144 5.9644 61.3227Z" fill="#0099FF"/>
<path d="M23.2875 39.065L10.6677 51.2518C9.05559 53.0647 7.89368 54.8772 7.12884 56.6682C7.12546 56.6714 7.12546 56.6714 7.11871 56.6779C6.44471 58.2587 6.07042 59.8117 5.96185 61.3086L5.96503 61.3389C5.96324 61.3573 5.96701 61.3815 5.96621 61.4213C5.67391 65.8518 7.70894 69.7442 10.9536 72.2792C10.517 71.8879 9.96169 71.1101 9.48235 70.0863C9.44419 70.0062 9.40604 69.9261 9.37066 69.8489C9.33529 69.7717 9.30607 69.6941 9.27069 69.6169C9.22598 69.5098 9.18186 69.3965 9.1439 69.2828C9.09422 69.1637 9.04851 69.0352 9.01056 68.9216C8.97598 68.8046 8.93584 68.6819 8.90127 68.565L8.89908 68.5559C8.85118 68.4184 8.82117 68.2859 8.78938 68.1719C8.74347 67.9823 8.6954 67.7838 8.65684 67.5816C8.6481 67.5455 8.64652 67.5303 8.64652 67.5303C8.21173 65.322 8.43897 62.6972 10.3337 60.3385C13.0113 57.0122 18.2594 52.1892 21.4559 49.3529C23.0381 47.9419 24.1225 47.0228 24.1225 47.0228C24.1225 47.0228 23.6188 45.0203 23.2249 43.6523C23.0202 42.9535 22.8493 42.4114 22.7889 42.4029C22.6088 42.3652 23.2499 39.2628 23.293 39.0708L23.2875 39.065Z" fill="#0099FF"/>
<path d="M23.2889 39.0648L10.6691 51.2515C9.05702 53.0645 7.8951 54.877 7.13027 56.6679C8.42637 54.4196 11.2564 50.3113 15.9815 48.3208C18.0723 47.4432 19.7529 48.0475 21.4512 49.3531C23.5992 51.0094 25.7791 53.7875 28.8703 56.1365C34.4112 60.3462 41.9884 60.1394 42.2452 59.8914L42.5628 59.5847L41.171 59.8541L36.6257 58.6364L33.4874 56.4887C33.4874 56.4887 26.807 49.571 26.5844 49.3405C26.3618 49.11 23.214 43.6528 23.214 43.6528L23.2821 39.0713L23.2889 39.0648Z" fill="#0099FF"/>
<path d="M33.6357 57.3984L32.6807 58.4042C32.6807 58.4042 29.2623 56.8388 26.8381 54.4636C24.73 52.3956 21.4542 49.3618 21.4542 49.3618L24.1208 47.0316L28.5917 52.1076L33.6357 57.3984Z" fill="#0099FF"/>
<path d="M40.9254 60.1073L40.5989 60.4115C41.1379 60.3476 41.7204 60.2138 42.2441 59.8974L42.8422 59.3199L40.9254 60.1073Z" fill="#0099FF"/>
<path d="M40.9252 60.1073L40.5986 60.4115C40.5986 60.4115 39.4608 60.6194 36.2207 59.7727C34.4916 59.3211 32.6729 58.4047 32.6729 58.4047L33.8171 57.2162C33.8171 57.2162 37.6918 59.0648 37.7387 59.181C37.7951 59.2935 40.9252 60.1073 40.9252 60.1073Z" fill="#0099FF"/>
<path d="M28.8114 53.3031C23.4116 47.7115 20.9403 41.3379 23.2915 39.0673C25.6427 36.7968 31.9262 39.489 37.326 45.0807C42.7258 50.6723 45.1971 57.0459 42.8459 59.3165C40.4946 61.587 34.2112 58.8947 28.8114 53.3031Z" fill="#A3A9AA"/>
<path d="M24.0555 39.414C22.9945 40.4385 23.1797 42.537 24.3387 45.076C24.8411 46.1778 25.5305 47.3718 26.3805 48.5833C26.4671 48.7001 26.5532 48.823 26.6454 48.9455C27.5012 50.1292 28.5052 51.3312 29.6404 52.5067C30.8257 53.7341 32.0521 54.8216 33.2487 55.7429C37.2237 58.7976 40.9856 60.0424 42.533 58.5481C43.4318 57.6801 43.4311 56.016 42.6918 53.9793C42.6918 53.9793 42.6918 53.9793 42.6896 53.9702C42.1596 52.5221 41.2607 50.8678 40.0502 49.1748C39.1712 47.9467 38.1272 46.6831 36.942 45.4557C35.7567 44.2283 34.5302 43.1408 33.3281 42.2137C29.3586 39.1648 25.5996 37.9228 24.0555 39.414Z" fill="#475150"/>
<path d="M5.96431 61.4244C5.67201 65.8549 7.70705 69.7474 10.9517 72.2824C10.9517 72.2824 10.0536 71.2509 9.48045 70.0894C9.44229 70.0094 9.40414 69.9293 9.36876 69.8521C9.33339 69.7749 9.30417 69.6973 9.26879 69.6201C9.21851 69.5072 9.17718 69.3967 9.14201 69.2859C9.09233 69.1669 9.04661 69.0384 9.00866 68.9247C8.96911 68.7959 8.92839 68.6793 8.89937 68.5681L8.89718 68.5591C8.84928 68.4216 8.81927 68.2891 8.78748 68.175C8.7058 67.8808 8.66786 67.6725 8.65494 67.5847C8.6462 67.5486 8.64461 67.5335 8.64461 67.5335C8.64461 67.5335 7.56267 66.3455 6.8989 64.9819C6.00222 63.1473 5.98933 61.9237 5.96431 61.4244Z" fill="#0099FF"/>
<path d="M16.2725 69.5495C15.5552 70.5985 15.3298 71.5011 15.917 72.1701C17.4897 73.9812 23.3742 73.0426 27.3194 69.5278C31.2618 66.0102 33.8687 61.1096 32.2961 59.2985C32.2105 59.2031 32.1236 59.1199 32.0226 59.0559L32.0171 59.0501C30.26 57.7513 26.2737 60.0807 22.5272 63.4091C20.0685 65.6165 17.475 67.7925 16.2725 69.5495Z" fill="#0099FF"/>
<path d="M15.918 70.1294C15.918 70.1294 19.6461 70.0817 23.417 67.2587C25.8431 65.4503 32.0243 59.058 32.0243 59.058L32.0188 59.0523C30.2617 57.7534 26.3706 59.8907 22.5591 63.1315C16.3577 68.4074 15.918 70.1294 15.918 70.1294Z" fill="#0099FF"/>
<path d="M33.3294 42.2135L26.5279 48.7817C26.5279 48.7817 28.32 51.1715 29.6418 52.5065C30.844 53.7176 32.0535 54.8214 33.2501 55.7427L40.0516 49.1746C39.1726 47.9465 38.1286 46.6829 36.9433 45.4555C35.7553 44.2252 34.5288 43.1378 33.3294 42.2135Z" fill="#5E6466"/>
<path d="M24.0571 39.4138C22.9961 40.4384 23.2649 42.4951 24.3403 45.0759C24.9784 46.609 26.5282 48.7818 26.5282 48.7818C26.5282 48.7818 29.731 45.8168 31.6737 43.8796C32.6267 42.9259 33.3297 42.2136 33.3297 42.2136C29.3602 39.1647 25.6012 37.9227 24.0571 39.4138Z" fill="#747A7C"/>
<path d="M24.0558 39.414C22.9948 40.4385 23.18 42.5371 24.339 45.0761C26.0557 42.3437 28.5366 42.4312 31.6255 43.8583C31.644 43.8571 31.6579 43.8715 31.6724 43.8798C32.2642 44.1546 32.8788 44.4799 33.5149 44.8344C35.3022 45.8535 37.4844 47.978 39.274 49.9191C41.1954 52.017 42.6595 53.905 42.6893 53.9764C42.6893 53.9764 42.6893 53.9764 42.6872 53.9674C42.1572 52.5192 41.2583 50.8649 40.0478 49.1719C39.1688 47.9438 38.1248 46.6802 36.9395 45.4528C36.2606 44.7498 35.568 44.0935 34.8768 43.4859C34.3604 43.0323 33.8445 42.6062 33.3284 42.2138C29.3589 39.1649 25.5999 37.9229 24.0558 39.414Z" fill="#929799"/>
<path d="M33.3293 42.2136L31.6733 43.8796C32.2651 44.1544 32.8797 44.4797 33.5158 44.8342C35.3031 45.8533 37.4853 47.9778 39.2749 49.9189L40.0487 49.1717C39.1697 47.9437 38.1257 46.6801 36.9404 45.4527C36.2615 44.7497 35.5689 44.0933 34.8777 43.4857L33.3293 42.2136Z" fill="#6F7577"/>
<path d="M39.2751 49.919L40.0489 49.1718C40.0489 49.1718 40.9486 50.313 41.6231 51.6606C42.2976 53.0082 42.6905 53.9763 42.6905 53.9763L39.2751 49.919Z" fill="#5E6466"/>
<path d="M27.7063 50.2507C28.7534 51.5447 30.0558 52.9542 31.6846 54.4381C36.7293 59.0601 40.1872 59.1452 40.1872 59.1452C40.1872 59.1452 41.2649 58.0432 36.6408 52.4638C36.6408 52.4638 37.3608 53.5948 37.589 54.5883C37.7134 55.1364 37.4063 55.9341 35.5999 55.5849C34.1576 55.3017 29.6565 52.304 27.7063 50.2507Z" fill="#475150"/>
<path d="M30.8204 48.1495C30.7021 48.2637 30.844 48.6 31.1334 48.8997C31.4227 49.1993 31.7538 49.3528 31.8721 49.2386C31.9904 49.1244 31.8512 48.7911 31.5591 48.4885C31.2663 48.1921 30.9352 48.0386 30.8204 48.1495Z" fill="#5E6466"/>
<path d="M21.4935 49.2828C22.8623 47.0991 20.0829 44.2193 18.3194 43.0941C18.3194 43.0941 17.2581 41.8661 15.0585 44.0659C12.6294 46.4951 14.0868 48.1576 14.0868 48.1576C15.674 49.8454 19.3775 52.6585 21.4935 49.2828Z" fill="#FBBEAA"/>
<path d="M17.6069 53.5112C18.9757 51.3275 16.1963 48.4477 14.4328 47.3225C14.4328 47.3225 13.3715 46.0945 11.1719 48.2942C8.74277 50.7235 10.2002 52.386 10.2002 52.386C11.7874 54.0738 15.4909 56.8869 17.6069 53.5112Z" fill="#FBBEAA"/>
<path d="M13.7203 57.3978C15.0891 55.2141 12.3097 52.3343 10.5462 51.2091C10.5462 51.2091 9.48491 49.9811 7.28528 52.1808C4.85617 54.61 6.31363 56.2726 6.31363 56.2726C7.90081 57.9604 11.6043 60.7735 13.7203 57.3978Z" fill="#FBBEAA"/>
<path d="M8.92476 60.8572C10.0592 59.0269 7.75573 56.6133 6.29418 55.6701C6.29418 55.6701 5.41462 54.6409 3.59165 56.4846C1.57848 58.5207 2.78638 59.9141 2.78638 59.9141C4.10178 61.3288 7.1711 63.6866 8.92476 60.8572Z" fill="#FBBEAA"/>
<path d="M111.054 476.236C111.054 473.916 110.133 471.691 108.492 470.05C106.852 468.41 104.627 467.488 102.306 467.488C99.9863 467.488 97.7611 468.41 96.1206 470.05C94.48 471.691 93.5583 473.916 93.5583 476.236V495.25H111.054V476.236Z" fill="#FBBEAA"/>
<path d="M94.1847 479.779C92.0398 479.779 91.6543 480.719 91.0277 481.948C90.0114 485.223 88.2738 488.229 85.9428 490.744C82.4625 493.708 78.7289 496.361 74.7848 498.673V508.746H113.729C113.729 508.746 113.464 500.793 113.271 495.178C113.079 489.563 112.524 482.719 112.572 481.996C112.621 481.273 112.572 479.779 111.247 479.779H94.1847Z" fill="#302D3B"/>
<path d="M108.886 495.732C108.891 496.969 108.528 498.179 107.844 499.209C107.16 500.239 106.185 501.043 105.044 501.518C103.902 501.994 102.645 502.119 101.432 501.879C100.219 501.639 99.105 501.044 98.2306 500.17C97.3562 499.295 96.7612 498.181 96.5212 496.968C96.2811 495.755 96.4067 494.498 96.8821 493.357C97.3575 492.215 98.1613 491.241 99.1915 490.556C100.222 489.872 101.432 489.51 102.668 489.515C104.315 489.521 105.893 490.178 107.058 491.343C108.222 492.507 108.879 494.085 108.886 495.732Z" fill="#93929C"/>
<path d="M102.668 492.069L104.09 494.166L106.524 494.865L104.982 496.865L105.054 499.395L102.668 498.528L100.282 499.395L100.379 496.865L98.8124 494.865L101.246 494.166L102.668 492.069Z" fill="white"/>
<path d="M75.05 498.504C75.05 498.504 69.5313 501.42 67.4587 502.842C66.4992 503.492 65.7198 504.374 65.1931 505.407C64.6664 506.439 64.4095 507.588 64.4463 508.746H79.5807C79.5807 508.746 79.2674 501.348 75.05 498.504Z" fill="white"/>
<path d="M113.729 508.746V512.916C113.729 513.614 113.103 514 112.042 514H66.109C65.0727 514 64.4461 513.614 64.4461 512.916V508.746H113.729Z" fill="white"/>
<path d="M79.581 495.684C79.4475 495.479 79.2395 495.335 79.001 495.281C78.7626 495.227 78.5124 495.268 78.3037 495.395C78.1998 495.459 78.1097 495.543 78.0388 495.642C77.9678 495.742 77.9174 495.854 77.8904 495.973C77.8635 496.092 77.8606 496.215 77.8819 496.335C77.9032 496.455 77.9483 496.57 78.0146 496.672L79.6292 499.275C79.707 499.41 79.8197 499.521 79.9553 499.598C80.091 499.674 80.2447 499.712 80.4004 499.709C80.5789 499.706 80.7534 499.656 80.9064 499.564C81.0103 499.5 81.1004 499.416 81.1714 499.317C81.2424 499.218 81.2929 499.106 81.3198 498.987C81.3468 498.868 81.3496 498.744 81.3283 498.624C81.307 498.504 81.2619 498.389 81.1957 498.287L79.581 495.684Z" fill="white"/>
<path d="M82.4245 493.684C82.3454 493.592 82.249 493.517 82.1408 493.462C82.0326 493.408 81.9147 493.375 81.7938 493.366C81.673 493.357 81.5516 493.372 81.4365 493.41C81.3215 493.448 81.215 493.508 81.1232 493.587C81.0314 493.667 80.9562 493.763 80.9016 493.871C80.8471 493.979 80.8144 494.097 80.8054 494.218C80.7965 494.339 80.8114 494.46 80.8494 494.576C80.8874 494.691 80.9477 494.797 81.0268 494.889L82.9066 497.106C82.9933 497.208 83.1002 497.29 83.2205 497.348C83.3408 497.406 83.4719 497.439 83.6055 497.443C83.78 497.44 83.9502 497.388 84.097 497.294C84.2437 497.199 84.3612 497.065 84.4363 496.908C84.5114 496.75 84.541 496.575 84.522 496.401C84.5029 496.228 84.4359 496.063 84.3284 495.925L82.4245 493.684Z" fill="white"/>
<path d="M85.0992 491.443C84.9075 491.32 84.6774 491.27 84.4518 491.303C84.2262 491.337 84.0205 491.451 83.873 491.625C83.7256 491.799 83.6464 492.021 83.6503 492.249C83.6542 492.477 83.7409 492.696 83.8943 492.865L86.0391 494.721C86.2073 494.863 86.4212 494.94 86.6416 494.937C86.7743 494.942 86.9063 494.916 87.0275 494.862C87.1486 494.808 87.2557 494.726 87.3405 494.624C87.4295 494.541 87.5005 494.44 87.549 494.328C87.5975 494.216 87.6224 494.095 87.6224 493.973C87.6224 493.852 87.5975 493.731 87.549 493.619C87.5005 493.507 87.4295 493.406 87.3405 493.323L85.0992 491.443Z" fill="white"/>
<path d="M89.7991 490.334L87.3891 488.84C87.1776 488.715 86.9254 488.678 86.6866 488.736C86.4479 488.795 86.2415 488.945 86.1119 489.153C86.0467 489.257 86.003 489.373 85.9835 489.494C85.9639 489.615 85.969 489.739 85.9982 489.858C86.0274 489.977 86.0802 490.089 86.1536 490.188C86.2269 490.286 86.3193 490.369 86.4252 490.431L88.8351 491.925C88.978 492.02 89.1457 492.07 89.3171 492.069C89.4741 492.066 89.6275 492.022 89.7626 491.941C89.8976 491.861 90.0098 491.748 90.0882 491.612C90.2156 491.403 90.2567 491.153 90.2028 490.914C90.1488 490.676 90.0039 490.468 89.7991 490.334Z" fill="white"/>
<path d="M91.8235 487.226L89.1244 486.093C88.8943 485.997 88.6356 485.997 88.4051 486.092C88.1746 486.186 87.9913 486.369 87.8954 486.599C87.8484 486.711 87.8241 486.832 87.8241 486.953C87.8242 487.075 87.8485 487.196 87.8956 487.308C87.9427 487.42 88.0118 487.522 88.0986 487.607C88.1855 487.692 88.2884 487.759 88.4015 487.804L91.1006 488.937H91.4621C91.67 488.926 91.8683 488.846 92.0259 488.71C92.1835 488.574 92.2915 488.389 92.3328 488.185C92.3742 487.981 92.3466 487.769 92.2544 487.582C92.1623 487.395 92.0107 487.245 91.8235 487.153V487.226Z" fill="white"/>
<path d="M93.5104 483.755L90.5221 483.008C90.2857 482.951 90.036 482.989 89.8281 483.116C89.6202 483.242 89.471 483.446 89.4135 483.683C89.356 483.919 89.3948 484.169 89.5213 484.377C89.6479 484.585 89.8518 484.734 90.0883 484.791L93.0525 485.563H93.2694C93.477 485.56 93.6782 485.491 93.8432 485.365C94.0082 485.239 94.1281 485.063 94.1852 484.864C94.2368 484.628 94.1955 484.381 94.0699 484.174C93.9442 483.968 93.7439 483.818 93.5104 483.755Z" fill="white"/>
<path d="M123.851 354.631C123.586 342.967 115.73 337.328 104.09 337.617C92.45 337.906 84.0634 344.003 84.3285 355.643L93.5585 477.176H111.055L123.851 354.631Z" fill="#FBBEAA"/>
<path d="M184.799 476.236C184.799 473.916 183.877 471.691 182.236 470.05C180.596 468.41 178.371 467.488 176.051 467.488C173.73 467.488 171.505 468.41 169.865 470.05C168.224 471.691 167.302 473.916 167.302 476.236V495.25H184.799V476.236Z" fill="#FBBEAA"/>
<path d="M167.953 479.779C165.784 479.779 165.398 480.719 164.796 481.948C163.768 485.223 162.023 488.228 159.687 490.744C156.211 493.714 152.477 496.368 148.529 498.673V508.746H187.473C187.473 508.746 187.208 500.793 187.015 495.178C186.823 489.563 186.292 482.719 186.317 481.996C186.341 481.273 186.317 479.779 185.015 479.779H167.953Z" fill="#302D3B"/>
<path d="M182.653 495.732C182.658 496.968 182.296 498.177 181.613 499.206C180.93 500.236 179.957 501.04 178.817 501.516C177.677 501.992 176.421 502.119 175.209 501.881C173.996 501.643 172.882 501.05 172.007 500.178C171.131 499.306 170.534 498.194 170.292 496.983C170.049 495.771 170.171 494.515 170.643 493.373C171.115 492.231 171.914 491.255 172.941 490.568C173.968 489.881 175.176 489.515 176.412 489.515C178.063 489.515 179.647 490.169 180.817 491.334C181.987 492.5 182.647 494.081 182.653 495.732Z" fill="#93929C"/>
<path d="M176.436 492.069L177.858 494.166L180.292 494.865L178.725 496.865L178.798 499.395L176.436 498.528L174.05 499.395L174.122 496.865L172.556 494.865L175.014 494.166L176.436 492.069Z" fill="white"/>
<path d="M148.819 498.504C148.819 498.504 143.276 501.42 141.227 502.842C140.263 503.487 139.48 504.368 138.952 505.402C138.425 506.436 138.171 507.587 138.215 508.746H153.422C153.422 508.746 153.012 501.348 148.819 498.504Z" fill="white"/>
<path d="M187.473 508.746V512.916C187.473 513.614 186.871 514 185.811 514H139.829C138.769 514 138.166 513.614 138.166 512.916V508.746H187.473Z" fill="white"/>
<path d="M153.325 495.684C153.194 495.477 152.986 495.33 152.746 495.275C152.507 495.221 152.255 495.264 152.048 495.395C151.84 495.526 151.693 495.734 151.639 495.974C151.584 496.214 151.627 496.465 151.758 496.673L153.373 499.275C153.457 499.41 153.574 499.521 153.713 499.597C153.853 499.673 154.01 499.712 154.168 499.709C154.34 499.71 154.507 499.659 154.65 499.564C154.754 499.501 154.844 499.416 154.915 499.317C154.986 499.218 155.037 499.106 155.064 498.987C155.091 498.868 155.094 498.745 155.072 498.624C155.051 498.504 155.006 498.39 154.94 498.287L153.325 495.684Z" fill="white"/>
<path d="M156.193 493.684C156.034 493.499 155.81 493.383 155.567 493.361C155.324 493.338 155.082 493.411 154.892 493.564C154.705 493.727 154.588 493.955 154.566 494.202C154.544 494.449 154.617 494.695 154.771 494.889L156.675 497.106C156.759 497.211 156.865 497.296 156.986 497.355C157.107 497.413 157.24 497.444 157.374 497.444C157.551 497.445 157.724 497.396 157.873 497.301C158.022 497.207 158.141 497.071 158.215 496.911C158.289 496.75 158.315 496.572 158.29 496.397C158.264 496.222 158.189 496.058 158.073 495.925L156.193 493.684Z" fill="white"/>
<path d="M158.843 491.443C158.652 491.32 158.422 491.27 158.196 491.303C157.97 491.337 157.765 491.451 157.617 491.625C157.47 491.799 157.391 492.021 157.394 492.249C157.398 492.477 157.485 492.696 157.638 492.865L159.807 494.721C159.976 494.863 160.189 494.94 160.41 494.937C160.542 494.94 160.674 494.914 160.795 494.86C160.916 494.806 161.023 494.725 161.109 494.624C161.195 494.539 161.263 494.438 161.31 494.326C161.356 494.214 161.38 494.095 161.38 493.973C161.38 493.852 161.356 493.733 161.31 493.621C161.263 493.509 161.195 493.408 161.109 493.323L158.843 491.443Z" fill="white"/>
<path d="M163.543 490.334L161.133 488.84C160.925 488.752 160.693 488.742 160.478 488.812C160.263 488.881 160.081 489.026 159.964 489.219C159.847 489.412 159.803 489.64 159.841 489.863C159.879 490.085 159.995 490.287 160.169 490.431L162.579 491.925C162.722 492.02 162.89 492.07 163.061 492.069C163.222 492.067 163.379 492.024 163.518 491.944C163.658 491.864 163.774 491.749 163.856 491.611C163.981 491.4 164.019 491.148 163.96 490.909C163.902 490.67 163.752 490.464 163.543 490.334Z" fill="white"/>
<path d="M165.567 487.226L162.868 486.093C162.756 486.046 162.635 486.022 162.514 486.022C162.392 486.022 162.271 486.046 162.159 486.093C162.047 486.141 161.945 486.21 161.86 486.296C161.775 486.383 161.708 486.486 161.663 486.599C161.573 486.824 161.573 487.074 161.663 487.298C161.752 487.523 161.925 487.704 162.145 487.804L164.868 488.937C164.979 488.962 165.094 488.962 165.206 488.937C165.391 488.937 165.572 488.882 165.727 488.779C165.881 488.676 166.002 488.53 166.073 488.359C166.146 488.141 166.135 487.903 166.041 487.693C165.947 487.484 165.778 487.317 165.567 487.226Z" fill="white"/>
<path d="M167.254 483.755L164.29 483.008C164.051 482.95 163.798 482.988 163.586 483.114C163.374 483.24 163.22 483.444 163.157 483.683C163.129 483.8 163.123 483.922 163.142 484.041C163.16 484.16 163.202 484.274 163.265 484.377C163.327 484.48 163.41 484.57 163.507 484.641C163.605 484.712 163.715 484.763 163.832 484.792L166.796 485.563H167.037C167.255 485.546 167.459 485.455 167.616 485.304C167.773 485.153 167.873 484.952 167.899 484.736C167.925 484.52 167.874 484.302 167.757 484.118C167.639 483.935 167.462 483.798 167.254 483.731V483.755Z" fill="white"/>
<path d="M175.231 354.27C174.047 348.799 170.739 344.023 166.035 340.99C161.331 337.958 155.614 336.918 150.143 338.099C138.744 340.509 132.599 351.739 135.057 363.138L167.302 479.176H185.015L175.231 354.27Z" fill="#FBBEAA"/>
<path d="M125.37 353.873C125.305 351.103 124.695 348.374 123.576 345.841C122.456 343.307 120.848 341.019 118.844 339.107C116.84 337.194 114.479 335.696 111.896 334.696C109.313 333.696 106.558 333.215 103.789 333.28C101.02 333.345 98.2906 333.954 95.7571 335.074C93.2235 336.194 90.9353 337.801 89.0231 339.805C87.1108 341.809 85.6121 344.17 84.6123 346.754C83.6126 349.337 83.1313 352.092 83.1962 354.861L77.7247 479.792H125.369L125.37 353.873Z" fill="#93929C"/>
<path d="M175.228 351.294C173.92 345.955 170.581 341.337 165.922 338.421C161.262 335.505 155.649 334.522 150.275 335.68C144.902 336.838 140.192 340.047 137.147 344.623C134.102 349.199 132.963 354.783 133.97 360.187L146.79 479.307C146.79 479.307 177.493 481.138 195.784 479.307L175.228 351.294Z" fill="#93929C"/>
<path d="M22.2968 138.364L91.51 85.7794C99.5833 80.6221 105.078 83.3694 109.368 88.8882C111.327 91.5593 112.235 94.8576 111.919 98.155C111.604 101.452 110.087 104.519 107.656 106.77L38.612 157.644C36.1789 159.698 33.0467 160.735 29.8681 160.538C26.6894 160.34 23.7097 158.924 21.5497 156.583L21.2364 156.246C20.09 155.023 19.2049 153.579 18.6349 152.003C18.065 150.426 17.8222 148.75 17.9214 147.077C18.0206 145.404 18.4598 143.768 19.212 142.27C19.9643 140.772 21.0139 139.443 22.2968 138.364Z" fill="#FBBEAA"/>
<path d="M107.657 106.746C108.296 106.196 108.877 105.582 109.392 104.914C109.847 103.199 109.905 101.403 109.563 99.6617C109.221 97.9205 108.486 96.2802 107.416 94.865C103.777 89.2499 96.1371 84.8397 92.7391 85.6832L89.3652 87.3942L51.1678 116.313C54.5484 124.258 59.115 131.645 64.7116 138.22L107.657 106.746Z" fill="#F18380"/>
<path d="M97.2217 82.0198L37.3262 122.416C37.5781 124.482 30.9384 82.0198 30.9384 82.0198L12.1507 84.4648C12.1507 84.4648 12.5331 127.342 15.3378 150.098C16.4575 159.182 23.9492 162.65 32.892 160.699C37.3073 159.736 41.4639 157.924 45.1629 155.328C61.0575 144.171 105.65 112.747 109.295 108.794C115.585 101.974 115.585 96.865 111.97 91.2498C108.356 85.6347 100.62 81.1763 97.2217 82.0198Z" fill="#002A80"/>
<path d="M125.37 354.559L137.733 225.122C137.733 210.831 123.008 195.263 101.294 198.612C81.6776 201.673 75.7009 221.386 77.3156 240.063C78.9302 258.74 83.2922 355.475 83.2922 355.475C83.3571 358.244 83.9668 360.973 85.0864 363.507C86.2061 366.04 87.8138 368.328 89.8177 370.241C91.8217 372.153 94.1827 373.652 96.7659 374.651C99.3491 375.651 102.104 376.132 104.873 376.068C107.642 376.003 110.372 375.393 112.905 374.273C115.439 373.154 117.727 371.546 119.639 369.542C121.551 367.538 123.05 365.177 124.05 362.594C125.05 360.011 125.531 357.256 125.466 354.487L125.37 354.559Z" fill="#93929C"/>
<path d="M175.231 351.98L162.94 222.567C160.337 208.517 142.865 196.058 122.164 203.432C103.487 210.108 101.318 230.592 106.427 248.642C111.536 266.693 133.973 360.873 133.973 360.873C135.28 366.212 138.619 370.83 143.279 373.746C147.939 376.662 153.552 377.645 158.925 376.487C164.299 375.329 169.008 372.12 172.053 367.544C175.098 362.967 176.238 357.384 175.231 351.98Z" fill="#93929C"/>
<path d="M106.427 248.643C111.512 266.693 133.973 360.873 133.973 360.873" stroke="#5E5D63" stroke-width="0.75" stroke-miterlimit="10"/>
<path d="M110.043 79.9711C110.043 79.9711 99.3906 81.8268 97.3181 82.3811C96.095 82.6681 94.9648 83.2609 94.0332 84.1039C93.1017 84.9469 92.3994 86.0125 91.9921 87.2009C90.6667 90.3579 83.8466 111.035 83.22 113.276C82.7964 115.745 83.1943 118.285 84.3527 120.506C85.3408 123.205 90.4498 135.496 90.4498 135.496L91.2209 175.091L119.994 179.655L147.565 175.091C147.565 175.091 157.205 101.444 157.687 96.8889C158.169 92.3341 155.904 83.5379 150.457 82.4293C145.011 81.3207 130.069 80.0194 130.069 80.0194L110.043 79.9711Z" fill="#FBBEAA"/>
<path d="M89.8698 159.171V173.091C108.715 174.826 138.744 173.597 150.023 173.091C150.553 169.115 151.107 162.367 151.686 157.884C136.335 158.27 110.981 159.701 89.8698 159.171Z" fill="white"/>
<path d="M189.256 171.549L158.385 90.3098C154.264 81.6341 148.167 81.0557 141.516 83.4656C138.439 84.6928 135.923 87.0104 134.447 89.9755C132.971 92.9407 132.639 96.3456 133.515 99.5399L165.302 179.333C166.265 182.368 168.367 184.913 171.167 186.432C173.966 187.95 177.245 188.326 180.316 187.478L180.774 187.358C182.393 186.916 183.906 186.149 185.219 185.103C186.532 184.058 187.619 182.756 188.413 181.276C189.206 179.797 189.691 178.172 189.836 176.499C189.981 174.827 189.784 173.142 189.256 171.549Z" fill="#FBBEAA"/>
<path d="M176.461 137.858L158.386 90.3097C157.901 89.2669 157.329 88.2673 156.675 87.3214C154.461 85.9352 151.926 85.1447 149.317 85.0265C146.708 84.9082 144.112 85.4663 141.782 86.6466C139.076 87.9633 136.901 90.1647 135.617 92.8863C134.332 95.6079 134.016 98.6865 134.721 101.612C134.721 101.901 134.889 102.456 135.034 103.203L153.687 150.076C161.834 147.138 169.507 143.021 176.461 137.858Z" fill="#F18380"/>
<path d="M156.699 85.9722L189.954 171.495C161.773 162.477 158.376 168.58 150.804 143.458C150.804 143.458 133.13 101.974 132.455 98.2628C131.751 95.337 132.067 92.2585 133.351 89.5369C134.635 86.8154 136.81 84.6139 139.516 83.2972C147.059 79.4413 154.578 82.9357 156.699 85.9722Z" fill="#003399"/>
<path d="M162.94 221.941C162.41 215.265 152.946 184.618 145.259 170.038C145.259 170.038 128.853 163.687 118.053 163.722C106.785 163.759 91.8184 172.467 91.8184 172.467C86.8057 183.818 80.4966 211.241 78.8338 216.591C77.8299 219.738 77.708 223.101 78.4813 226.313C79.2546 229.525 80.8934 232.464 83.2199 234.81C88.9314 241.292 103.656 248.715 107.054 248.715C121.673 246.627 136.003 242.858 149.758 237.485C157.518 234.231 163.446 228.64 162.94 221.941Z" fill="#93929C"/>
<path d="M113.544 159.176L170.247 182.426C177.265 185.704 184.523 184.884 187.678 176.696C188.254 175.169 188.515 173.541 188.444 171.911C188.373 170.28 187.971 168.681 187.263 167.211C186.556 165.741 185.557 164.429 184.327 163.356C183.097 162.284 181.662 161.472 180.109 160.97L117.5 143.273C111.704 141.109 107.103 142.8 105.494 147.16C103.592 152.535 106.181 156.171 113.544 159.176Z" fill="#FBBEAA"/>
<path d="M107.325 76.2761C107.325 76.2761 94.0288 83.9506 91.9759 85.2936C89.923 86.6367 90.3609 88.9055 87.9852 94.3112C87.305 95.8587 82.3384 101.239 82.5877 109.796C83.2677 133.134 90.1916 173.512 90.1916 173.512C94.3435 175.752 98.7583 177.467 103.334 178.615C105.541 178.865 107.287 178.922 108.783 177.464C110.28 176.006 114.692 170.711 114.692 170.711C114.692 170.711 121.964 175.642 125.245 177.464C126.027 178.01 126.91 178.393 127.843 178.591C128.776 178.789 129.739 178.797 130.675 178.615C135.452 177.637 154.254 172.15 154.849 171.804C155.444 171.459 156 171.094 155.943 170.442C155.885 169.79 155.54 94.9443 155.29 91.5675C155.241 89.7591 154.672 88.0032 153.651 86.5096C152.631 85.016 151.201 83.8478 149.535 83.1448C145.525 81.3605 130.463 75.2401 130.463 75.2401L114.75 86.157L107.325 76.2761Z" fill="#003399"/>
<path d="M107.325 74.1277L114.712 86.1575C114.712 86.1575 107.459 91.9134 107.037 92.3355C106.615 92.7576 105.771 92.7192 105.598 92.0477C105.426 91.3762 103.334 78.6173 103.296 78.6173C103.259 78.5497 103.24 78.4738 103.24 78.3967C103.24 78.3196 103.259 78.2437 103.296 78.176C103.488 78.0417 107.325 74.1277 107.325 74.1277Z" fill="#F5F5F5"/>
<path d="M130.54 71.9017L114.692 86.1571C114.692 86.1571 123.038 91.9129 123.403 92.335C123.509 92.4254 123.635 92.4905 123.77 92.5254C123.905 92.5603 124.046 92.564 124.183 92.5363C124.32 92.5086 124.448 92.4501 124.559 92.3654C124.67 92.2807 124.76 92.1719 124.823 92.0472C125.437 91.0687 135.26 77.2738 135.298 77.1587C135.339 77.0923 135.361 77.0159 135.361 76.9381C135.361 76.8602 135.339 76.7838 135.298 76.7174C135.087 76.6023 130.54 71.9017 130.54 71.9017Z" fill="#F5F5F5"/>
<g filter="url(#filter0_d_1_1976)">
<rect width="39.7683" height="56.6698" rx="1" transform="matrix(-0.993463 -0.114154 -0.114154 0.993463 137.557 119.859)" fill="#EFEFEF"/>
</g>
<path d="M118.885 145.257C116.12 144.089 113.619 142.357 111.542 140.172C110.256 138.823 108.798 137.652 107.207 136.69C106.273 136.107 105.468 135.337 104.841 134.429C104.012 133.02 103.327 131.533 102.794 129.989C102.597 128.66 102.145 127.379 101.463 126.218C100.815 125.624 98.5269 125.942 97.3392 128.25C96.9297 129.278 96.7442 130.385 96.7951 131.497C96.8459 132.609 97.132 133.699 97.634 134.696C98.225 135.892 98.688 137.146 99.015 138.437L98.7993 138.566C96.9896 137.606 95.0557 136.909 93.0564 136.497C92.3313 136.335 91.5759 136.422 90.9121 136.746C90.2482 137.069 89.7145 137.609 89.3969 138.279C89.0794 138.949 88.9964 139.71 89.1615 140.439C89.3265 141.167 89.73 141.822 90.3068 142.297C87.187 142.655 87.5411 147.467 90.2195 148.104C89.646 148.344 89.1618 148.757 88.8326 149.287C88.5033 149.816 88.3447 150.437 88.3784 151.064C88.412 151.692 88.6362 152.296 89.0206 152.796C89.4051 153.295 89.9312 153.665 90.5279 153.856C88.6255 155.61 90.0161 158.501 93.4703 158.513C96.2768 158.799 103.783 159.974 106.394 160.536C109.006 161.098 114.255 159.855 115.941 160.376C118.451 161.296 121.366 161.311 123.589 154.707C125.813 148.102 121.468 146.111 118.885 145.257Z" fill="#FBBEAA"/>
<path d="M119.996 165.179L171.493 187.042C178.512 190.319 186.801 187.458 189.954 179.268C190.531 177.742 190.57 175.246 190.498 173.615C190.427 171.985 190.025 170.386 189.317 168.916C188.609 167.445 187.298 164.795 186.068 163.722C184.838 162.65 180.455 160.67 178.902 160.169L120.968 144.289L119.996 165.179Z" fill="#003399"/>
<path d="M14.0732 62.4405L14.4216 62.789L13.9308 63.2798L14.3026 63.6516L14.7935 63.1608L15.1419 63.5093L13.8009 64.8503L13.4524 64.5018L13.9835 63.9708L13.6116 63.5989L13.0806 64.13L12.7321 63.7815L14.0731 62.4405L14.0732 62.4405ZM16.3854 64.7527L15.0443 66.0937L14.7076 65.757L15.7308 64.7339L15.5102 64.5133L15.1253 64.8982C14.9524 65.0712 14.7287 65.2714 14.5166 65.298C14.2912 65.3381 14.0762 65.2036 13.9193 64.9662L14.2518 64.6337C14.397 64.8594 14.5243 64.8258 14.7898 64.5603L15.4939 63.8563L16.3878 64.7503L16.3854 64.7527ZM16.6763 65.0436L17.0247 65.3921L16.4252 66.3857L17.4189 65.7863L17.7674 66.1347L16.5893 67.6388L16.2644 67.3138L16.9008 66.5154L15.9969 67.0462L15.7647 66.8139L16.2966 65.9112L15.4983 66.5476L15.1733 66.2226L16.6763 65.0435L16.6763 65.0436ZM18.0582 66.4256L18.4067 66.774L17.8622 67.3185L18.7434 67.1107L19.1269 67.4943L18.0221 67.717L17.7977 68.8471L17.38 68.4294L17.6112 67.5717L17.0667 68.1161L16.7183 67.7677L18.0593 66.4267L18.0583 66.4256L18.0582 66.4256ZM17.9939 63.4916C15.9033 61.401 13.6567 60.8815 12.3827 62.1555C11.1208 63.4174 11.6271 65.6752 13.7187 67.7668C15.8209 69.869 18.0693 70.3634 19.3299 69.1028C20.6039 67.8287 20.0972 65.5949 17.9939 63.4916ZM13.9172 67.5682C11.9534 65.6044 11.425 63.5096 12.5808 62.3537C13.7489 61.1857 15.8327 61.7274 17.7953 63.6901C19.7698 65.6645 20.302 67.7363 19.1327 68.9056C17.9768 70.0615 15.8927 69.5437 13.9172 67.5682ZM17.609 63.8764C15.7624 62.0299 13.8267 61.5022 12.778 62.5509C11.7293 63.5996 12.257 65.5353 14.1036 67.3819C15.9501 69.2284 17.8859 69.7561 18.9345 68.7074C19.9843 67.6598 19.4566 65.7241 17.609 63.8764ZM14.1425 67.3429C12.3184 65.5187 11.79 63.6092 12.812 62.5873C13.8339 61.5654 15.7444 62.0948 17.5675 63.9179C19.3907 65.741 19.9201 67.6515 18.8982 68.6734C17.8773 69.6965 15.9666 69.1671 14.1425 67.3429L14.1425 67.3429Z" fill="white"/>
<defs>
<filter id="filter0_d_1_1976" x="91.6874" y="115.427" width="47.7623" height="60.624" filterUnits="userSpaceOnUse" color-interpolation-filters="sRGB">
<feFlood flood-opacity="0" result="BackgroundImageFix"/>
<feColorMatrix in="SourceAlpha" type="matrix" values="0 0 0 0 0 0 0 0 0 0 0 0 0 0 0 0 0 0 127 0" result="hardAlpha"/>
<feOffset dx="2"/>
<feComposite in2="hardAlpha" operator="out"/>
<feColorMatrix type="matrix" values="0 0 0 0 0.603922 0 0 0 0 0.6 0 0 0 0 0.631373 0 0 0 1 0"/>
<feBlend mode="normal" in2="BackgroundImageFix" result="effect1_dropShadow_1_1976"/>
<feBlend mode="normal" in="SourceGraphic" in2="effect1_dropShadow_1_1976" result="shape"/>
</filter>
</defs>
</svg>
