<svg width="194" height="526" viewBox="0 0 194 526" fill="none" xmlns="http://www.w3.org/2000/svg">
    <path d="M170.732 82.3329C170.834 80.0986 170.236 77.8882 169.021 76.0103C167.151 73.8414 165.749 71.3089 164.905 68.572C164.256 66.0314 163.219 63.6061 161.831 61.3815C160.839 60.0178 159.351 58.9021 159.351 57.8607C159.351 56.8194 161.335 54.811 164.161 55.3813C165.372 55.7584 166.485 56.3986 167.419 57.2558C168.353 58.1131 169.087 59.1663 169.567 60.3402C169.837 59.625 169.996 58.8723 170.038 58.1087L170.657 42.9096C170.667 42.5156 170.755 42.1275 170.917 41.7681C171.079 41.4088 171.311 41.0855 171.6 40.8174C171.889 40.5494 172.229 40.3418 172.599 40.2072C172.97 40.0725 173.363 40.0135 173.757 40.0335C174.383 40.0602 174.986 40.2827 175.48 40.6696C175.973 41.0565 176.333 41.5884 176.509 42.1906V41.4963C176.604 40.7575 176.976 40.082 177.548 39.6056C178.121 39.1292 178.853 38.8871 179.597 38.9279C180.341 38.9687 181.042 39.2894 181.559 39.8256C182.076 40.3618 182.371 41.0738 182.385 41.8187V43.9262C182.634 43.2765 183.107 42.7376 183.72 42.4077C184.332 42.0779 185.043 41.9792 185.722 42.1294C186.401 42.2797 187.004 42.6689 187.42 43.2263C187.836 43.7837 188.038 44.4721 187.989 45.1659V46.5048C188.256 46.0358 188.653 45.6547 189.133 45.4082C189.613 45.1616 190.155 45.0601 190.691 45.1163C191.426 45.2096 192.096 45.5853 192.559 46.1638C193.022 46.7423 193.241 47.4781 193.171 48.2156L191.956 61.0344C191.16 68.2615 189.665 75.3943 187.493 82.3329C187.467 83.4914 187.198 84.6316 186.705 85.6802C186.212 86.7288 185.505 87.6626 184.629 88.4215C183.753 89.1804 182.728 89.7477 181.62 90.0869C180.512 90.4261 179.346 90.5298 178.195 90.3911C177.154 90.4258 176.117 90.2363 175.156 89.8353C174.195 89.4342 173.331 88.8311 172.623 88.0668C171.915 87.3025 171.38 86.3949 171.053 85.4056C170.727 84.4162 170.618 83.3683 170.732 82.3329Z" fill="#FBBEAA"/>
    <path d="M170.434 83.9944L160.516 146.253C158.88 154.064 161.409 161.13 170.434 162.37C172.1 162.587 173.793 162.463 175.409 162.006C177.026 161.549 178.533 160.768 179.838 159.71C181.144 158.653 182.221 157.341 183.004 155.855C183.787 154.368 184.26 152.738 184.393 151.064L187.418 84.1184C188.212 77.7958 185.46 73.5807 180.649 73.0601C174.748 72.4154 171.624 75.9114 170.434 83.9944Z" fill="#FBBEAA"/>
    <path d="M171.227 62.4974C170.285 62.4974 170.211 61.9024 169.789 60.8114C171.897 60.8114 178.021 61.2081 180.699 66.3654C177.996 62.6462 172.814 62.4974 171.227 62.4974ZM176.037 42.885C176.037 42.885 175.889 43.7528 175.74 45.0173C175.74 45.662 175.591 46.4306 175.542 47.224C175.492 48.0174 175.418 48.8853 175.343 49.7035C175.343 51.4391 175.219 53.1499 175.219 54.4392C175.219 55.7285 175.219 56.5963 175.219 56.5963C175.219 56.6376 175.228 56.6785 175.244 56.7163C175.261 56.7541 175.285 56.788 175.315 56.816C175.345 56.844 175.381 56.8654 175.42 56.8788C175.459 56.8922 175.5 56.8973 175.542 56.8939C175.611 56.8904 175.678 56.8643 175.732 56.8196C175.785 56.7748 175.823 56.714 175.839 56.646C175.839 56.646 175.988 55.7781 176.112 54.4888C176.236 53.1995 176.434 51.4887 176.509 49.7779C176.509 48.91 176.509 48.0422 176.509 47.2984C176.509 46.5546 176.509 45.7364 176.509 45.0917C176.509 43.7776 176.509 42.9345 176.509 42.9345C176.509 42.8933 176.5 42.8525 176.484 42.8147C176.467 42.7769 176.443 42.7429 176.413 42.7149C176.383 42.6869 176.347 42.6656 176.308 42.6522C176.269 42.6387 176.227 42.6336 176.186 42.637C176.139 42.6644 176.1 42.7044 176.073 42.7525C176.047 42.8006 176.035 42.855 176.037 42.9098V42.885ZM181.79 44.6206C181.79 44.6206 181.641 45.3644 181.467 46.4554C181.467 47.0257 181.294 47.6703 181.22 48.3645C181.145 49.0588 181.071 49.8026 180.996 50.5465C180.996 52.0341 180.823 53.5218 180.798 54.6376C180.773 55.7533 180.798 56.522 180.798 56.522C180.801 56.5611 180.812 56.5992 180.83 56.6341C180.848 56.669 180.872 56.7001 180.902 56.7254C180.932 56.7508 180.967 56.77 181.004 56.7819C181.042 56.7938 181.081 56.7981 181.12 56.7947C181.187 56.7901 181.25 56.7631 181.3 56.7181C181.349 56.6731 181.382 56.6127 181.393 56.5468C181.393 56.5468 181.542 55.8029 181.715 54.7119C181.889 53.621 182.038 52.1085 182.162 50.6457C182.162 49.9018 182.162 49.158 182.311 48.4637C182.459 47.7695 182.311 47.1 182.311 46.5298C182.311 45.414 182.311 44.6702 182.311 44.6702C182.311 44.6289 182.302 44.5881 182.286 44.5503C182.269 44.5125 182.245 44.4785 182.215 44.4505C182.184 44.4225 182.149 44.4012 182.11 44.3878C182.071 44.3744 182.029 44.3692 181.988 44.3727C181.933 44.3954 181.886 44.4329 181.851 44.481C181.816 44.5292 181.794 44.586 181.79 44.6454V44.6206ZM187.344 46.9761C187.344 46.9761 187.195 47.5959 186.997 48.5381C186.997 48.9844 186.798 49.5299 186.724 50.125C186.65 50.7201 186.55 51.3399 186.451 51.9598C186.278 53.2243 186.203 54.4392 186.154 55.431C186.104 56.4228 186.154 57.0179 186.154 57.0179C186.153 57.0591 186.162 57.0999 186.178 57.1377C186.195 57.1756 186.219 57.2096 186.249 57.2375C186.28 57.2655 186.316 57.2869 186.355 57.3003C186.394 57.3137 186.435 57.3188 186.476 57.3154C186.539 57.3121 186.6 57.2887 186.649 57.2485C186.698 57.2084 186.733 57.1537 186.749 57.0923C186.749 57.0923 186.922 56.4724 187.096 55.555C187.269 54.6376 187.517 53.3483 187.666 52.1085C187.666 51.4639 187.79 50.844 187.84 50.249C187.889 49.6539 187.84 49.1084 187.84 48.6373C187.84 47.6951 187.84 47.0504 187.84 47.0504C187.84 47.0092 187.831 46.9684 187.815 46.9306C187.798 46.8928 187.774 46.8588 187.744 46.8308C187.714 46.8028 187.678 46.7815 187.639 46.7681C187.6 46.7546 187.558 46.7495 187.517 46.7529C187.472 46.7785 187.432 46.814 187.402 46.857C187.372 46.8999 187.352 46.9491 187.344 47.0009V46.9761Z" fill="#F18380"/>
    <path d="M169.3 80.9497L168.688 87.7722L188.791 90.8648L188.791 83.5196L169.3 80.9497Z" fill="#023783"/>
    <path d="M69.7961 19.6658C70.8791 15.7603 70.4809 11.5924 68.6782 7.96264C66.8754 4.33284 63.7951 1.49707 60.0289 0C58.5323 1.4966 59.2937 6.2752 59.2937 6.2752C54.0057 3.79708 48.075 3.03509 42.3323 4.09595C42.4363 7.76762 43.8201 11.2875 46.2444 14.047C43.3063 14.3432 40.4806 15.3331 38 16.9352C38.3762 18.6657 39.1579 20.2822 40.2808 21.6516C41.4037 23.021 42.8357 24.1041 44.459 24.812C42.8061 26.7471 41.6682 29.068 41.1507 31.5598C43.9711 32.3732 46.9508 32.4635 49.8152 31.8224C49.3528 33.2714 49.1658 34.7943 49.2639 36.3122C51.9839 36.7115 54.7584 36.5067 57.3904 35.7126C60.0224 34.9185 62.4471 33.5544 64.4924 31.7174C67.205 28.1859 69.0246 24.0515 69.7961 19.6658Z" fill="#E69D7E"/>
    <path d="M53.5697 33.8445C53.1496 40.6448 48.8698 50.9635 49.9988 59.6017C51.5742 71.7845 66.6452 71.6533 72.474 71.6533H81.1123V33.8445H53.5697Z" fill="#E69D7E"/>
    <path d="M66.8029 57.6583V79.9497C66.8029 79.9497 68.562 87.6165 80.3247 87.6165C82.6652 87.8139 84.9924 87.1076 86.8284 85.6427C88.6644 84.1778 89.8698 82.0655 90.197 79.7396V57.6845L66.8029 57.6583Z" fill="#FBBEAA"/>
    <path d="M90.197 76.2213C82.8191 79.7396 72.0278 76.5889 66.8029 66.9267V57.6583H90.197V76.2213Z" fill="#F18380"/>
    <path d="M104.848 40.539C104.944 45.8705 104.699 51.2027 104.113 56.5028C103.168 64.0908 100.463 72.4927 87.0726 72.4927C73.682 72.4927 66.8292 66.4276 63.9673 56.5028C62.2344 50.5164 58.7161 41.6418 60.1602 31.4019C61.6042 21.162 67.7744 14.4667 82.3203 14.0729C96.8662 13.6791 106.345 20.2168 104.848 40.539Z" fill="#FBBEAA"/>
    <path d="M76.4653 45.1078C76.5544 45.5034 76.7533 45.8659 77.0393 46.1535C77.3253 46.441 77.6867 46.6419 78.0819 46.7331C78.477 46.8242 78.8899 46.8019 79.273 46.6687C79.656 46.5355 79.9937 46.2968 80.247 45.9801C80.5004 45.6635 80.6591 45.2817 80.705 44.8787C80.7509 44.4758 80.682 44.0681 80.5063 43.7025C80.3306 43.337 80.0553 43.0285 79.712 42.8126C79.3687 42.5967 78.9714 42.4822 78.5658 42.4822C78.2547 42.5148 77.9532 42.6089 77.6788 42.7589C77.4043 42.9089 77.1624 43.1119 76.967 43.3562C76.7716 43.6004 76.6267 43.881 76.5406 44.1817C76.4544 44.4824 76.4289 44.7971 76.4653 45.1078Z" fill="#403D4F"/>
    <path d="M95.9734 45.1078C96.0624 45.5034 96.2614 45.8659 96.5474 46.1535C96.8334 46.441 97.1948 46.6419 97.59 46.7331C97.9851 46.8242 98.398 46.8019 98.781 46.6687C99.1641 46.5355 99.5018 46.2968 99.7551 45.9801C100.008 45.6635 100.167 45.2817 100.213 44.8787C100.259 44.4758 100.19 44.0681 100.014 43.7025C99.8387 43.337 99.5634 43.0285 99.2201 42.8126C98.8768 42.5967 98.4794 42.4822 98.0739 42.4822C97.7628 42.5148 97.4613 42.6089 97.1869 42.7589C96.9124 42.9089 96.6705 43.1119 96.4751 43.3562C96.2797 43.6004 96.1347 43.881 96.0486 44.1817C95.9625 44.4824 95.9369 44.7971 95.9734 45.1078Z" fill="#403D4F"/>
    <path d="M82.8194 37.6774C82.8194 37.6774 82.8194 37.6774 82.5831 37.4411C82.3729 37.2523 82.1441 37.0852 81.9004 36.9423C81.5745 36.7419 81.2205 36.5915 80.8501 36.4959C80.4372 36.3431 80.0034 36.2546 79.5636 36.2333C79.1364 36.1806 78.7043 36.1806 78.277 36.2333C77.915 36.2447 77.5547 36.2887 77.2005 36.3646L76.1766 36.6534C76.0075 36.7079 75.8663 36.8261 75.7829 36.983C75.6996 37.1398 75.6807 37.323 75.7302 37.4936C75.77 37.63 75.8529 37.7497 75.9665 37.835C76.0801 37.9202 76.2183 37.9662 76.3604 37.9662H77.3843C77.6894 37.9269 77.9982 37.9269 78.3033 37.9662C78.6529 37.9402 79.004 37.9402 79.3535 37.9662C79.6949 37.9662 80.0362 37.9662 80.3513 38.15C80.6663 38.3338 80.9289 38.3601 81.1915 38.3863L81.7428 38.5701H81.9792C82.143 38.6414 82.3283 38.6456 82.4952 38.5817C82.6621 38.5179 82.7973 38.3912 82.8719 38.2288C82.9179 38.1395 82.9419 38.0405 82.9419 37.94C82.9419 37.8395 82.9179 37.7405 82.8719 37.6512L82.8194 37.6774Z" fill="#403D4F"/>
    <path d="M95.5796 38.6751H95.7372L96.1573 38.5176H96.4461H96.7349C96.9669 38.4409 97.2038 38.3795 97.4438 38.3338C97.6873 38.295 97.9355 38.295 98.179 38.3338C98.4049 38.2946 98.6358 38.2946 98.8616 38.3338H99.7018C99.8783 38.327 100.045 38.2521 100.168 38.1248C100.29 37.9975 100.358 37.8277 100.358 37.6511C100.353 37.5209 100.311 37.3948 100.236 37.2878C100.162 37.1807 100.059 37.0973 99.9381 37.0472L99.1242 36.7584C98.8272 36.6614 98.5176 36.6083 98.2052 36.6009C97.8571 36.5487 97.5031 36.5487 97.155 36.6009C96.4653 36.67 95.8096 36.9341 95.2646 37.3623C95.0667 37.4938 94.8971 37.6634 94.7657 37.8612C94.6344 38.0187 94.6344 38.0712 94.6082 38.0712V38.3338C94.5937 38.4574 94.6133 38.5827 94.6648 38.696C94.7164 38.8093 94.7979 38.9064 94.9007 38.9767C95.0034 39.047 95.1234 39.0879 95.2477 39.0949C95.372 39.1019 95.4959 39.0748 95.6059 39.0164L95.5796 38.6751Z" fill="#403D4F"/>
    <path d="M90.1972 54.0348C90.6379 54.045 91.0754 53.9587 91.4791 53.7818C91.8828 53.6049 92.2429 53.3417 92.534 53.0108C92.6479 52.898 92.7371 52.7627 92.7959 52.6135C92.8546 52.4644 92.8817 52.3046 92.8754 52.1444C92.8754 51.8556 92.4027 48.2322 92.2452 46.8932C92.2452 46.7609 92.1926 46.634 92.0991 46.5404C92.0055 46.4469 91.8786 46.3943 91.7463 46.3943C91.614 46.3943 91.4872 46.4469 91.3936 46.5404C91.3001 46.634 91.2475 46.7609 91.2475 46.8932C91.2475 47.1032 91.7989 51.8556 91.8776 52.1444C91.6595 52.3784 91.3952 52.5645 91.1015 52.6911C90.8077 52.8176 90.4909 52.8818 90.171 52.8795C90.0387 52.8795 89.9118 52.9321 89.8182 53.0257C89.7247 53.1192 89.6721 53.2461 89.6721 53.3784C89.6721 53.5107 89.7247 53.6376 89.8182 53.7312C89.9118 53.8247 90.0387 53.8773 90.171 53.8773L90.1972 54.0348Z" fill="#F18380"/>
    <path d="M92.6654 59.2073C93.6631 59.4699 94.0044 60.9402 93.4268 62.6469C92.8228 63.8209 91.8431 64.7587 90.6438 65.3108C89.4445 65.8628 88.0949 65.9972 86.8103 65.6926C86.1133 65.656 85.4305 65.4808 84.802 65.1772C84.1735 64.8737 83.6118 64.4479 83.1498 63.9247C82.6877 63.4016 82.3346 62.7915 82.1111 62.1303C81.8875 61.4691 81.798 60.77 81.8479 60.0738C81.8479 58.9447 82.6093 58.2621 84.0796 58.2621C86.9629 58.3376 89.8348 58.6538 92.6654 59.2073Z" fill="#73102A"/>
    <path d="M81.795 60.0737C81.795 60.0737 81.795 59.9162 81.795 59.8111C83.7206 59.3597 85.7456 59.6491 87.4676 60.622C89.1896 61.5949 90.4826 63.18 91.0896 65.0623C89.7307 65.728 88.2019 65.966 86.7049 65.745C86.0076 65.702 85.326 65.5202 84.6998 65.2104C84.0737 64.9006 83.5157 64.469 83.0585 63.9409C82.6012 63.4127 82.2539 62.7986 82.037 62.1346C81.82 61.4706 81.7378 60.7699 81.795 60.0737Z" fill="#D65155"/>
    <path d="M91.7725 60.8092C88.4556 60.8363 85.1565 60.322 82.0052 59.2863C82.1986 58.9307 82.4956 58.6423 82.8566 58.4595C83.2177 58.2766 83.6259 58.2078 84.027 58.2623C86.9102 58.3378 89.7821 58.654 92.6127 59.2075C92.8872 59.2999 93.1284 59.4712 93.3059 59.7001C93.4834 59.929 93.5893 60.2052 93.6104 60.4941C93.0215 60.7079 92.3991 60.8146 91.7725 60.8092Z" fill="white"/>
    <path d="M78.8807 28.1464C78.8807 28.1464 74.2333 44.2151 63.127 48.4423C61.8375 48.4584 60.563 48.1637 59.4114 47.5833C58.2598 47.0029 57.2648 46.1538 56.5105 45.1078C53.5605 38.9034 52.7303 31.9017 54.1474 25.1794C56.0116 16.9875 65.8576 6.43259 83.8168 8.90066C93.4003 7.06273 104.822 8.74313 111.963 18.4316C119.105 28.1201 110.598 41.537 104.848 43.7687C99.1923 40.3636 93.7714 36.583 88.6217 32.4524C89.4094 34.9205 90.2495 40.1454 89.4093 40.1454C84.5559 37.5611 80.8122 33.2946 78.8807 28.1464Z" fill="#E69D7E"/>
    <path d="M64.4922 50.3854C64.2822 46.8145 63.3107 42.5085 58.9784 43.27C53.7272 44.0314 53.3596 57.8158 64.2297 56.1617L64.4922 50.3854Z" fill="#FBBEAA"/>
    <path d="M58.5321 51.3046C58.6223 51.3007 58.7102 51.2747 58.788 51.2289C58.8658 51.1832 58.9312 51.119 58.9784 51.042C59.0873 50.8098 59.2571 50.6114 59.4698 50.4681C59.6825 50.3248 59.9301 50.2418 60.1862 50.2281C60.4862 50.2311 60.7805 50.3097 61.0421 50.4565C61.3037 50.6034 61.524 50.8138 61.6828 51.0683C61.7418 51.1627 61.8308 51.2347 61.9354 51.2728C62.0401 51.3109 62.1545 51.3128 62.2604 51.2783C62.3613 51.2347 62.4459 51.1606 62.5024 51.0664C62.559 50.9722 62.5845 50.8627 62.5755 50.7532C62.5416 49.646 62.2024 48.5697 61.5954 47.6431C60.9885 46.7164 60.1374 45.9755 59.136 45.502C59.0729 45.4772 59.0055 45.4655 58.9378 45.4677C58.8702 45.4698 58.8036 45.4857 58.7423 45.5143C58.6809 45.543 58.626 45.5839 58.581 45.6345C58.536 45.6851 58.5017 45.7443 58.4803 45.8085C58.4588 45.8728 58.4507 45.9407 58.4564 46.0082C58.4621 46.0757 58.4815 46.1413 58.5134 46.201C58.5452 46.2608 58.5889 46.3134 58.6418 46.3558C58.6947 46.3981 58.7556 46.4292 58.8209 46.4472C59.407 46.7355 59.9282 47.1404 60.3525 47.637C60.7769 48.1336 61.0955 48.7115 61.289 49.3354C60.9238 49.1794 60.5308 49.099 60.1337 49.0991C59.7093 49.1392 59.301 49.2821 58.9442 49.5154C58.5874 49.7487 58.2927 50.0654 58.0857 50.4381C58.0528 50.495 58.0315 50.5578 58.0229 50.6229C58.0144 50.688 58.0188 50.7542 58.0358 50.8176C58.0529 50.881 58.0823 50.9405 58.1224 50.9925C58.1625 51.0445 58.2125 51.0881 58.2695 51.1208C58.3344 51.2092 58.4267 51.2738 58.5321 51.3046Z" fill="#F18380"/>
    <path d="M87.1742 486.979C87.1742 484.592 88.1224 482.303 89.8104 480.615C91.4983 478.927 93.7876 477.979 96.1746 477.979C98.5617 477.979 100.851 478.927 102.539 480.615C104.227 482.303 105.175 484.592 105.175 486.979V506.542H87.1742V486.979Z" fill="#FBBEAA"/>
    <path d="M104.531 490.624C106.738 490.624 107.135 491.591 107.779 492.856C108.825 496.225 110.613 499.318 113.011 501.906C116.592 504.955 120.433 507.685 124.491 510.063V520.427H84.423C84.423 520.427 84.6958 512.245 84.8941 506.468C85.0925 500.691 85.6628 493.649 85.6132 492.905C85.5636 492.161 85.6132 490.624 86.9769 490.624H104.531Z" fill="#302D3B"/>
    <path d="M89.4056 507.038C89.4007 508.31 89.7739 509.555 90.4776 510.615C91.1813 511.675 92.184 512.502 93.3585 512.991C94.5329 513.48 95.8261 513.609 97.0742 513.362C98.3222 513.115 99.4686 512.503 100.368 511.603C101.268 510.704 101.88 509.557 102.127 508.309C102.374 507.061 102.245 505.768 101.756 504.594C101.266 503.419 100.439 502.416 99.3797 501.713C98.3198 501.009 97.0749 500.636 95.8027 500.641C94.1081 500.647 92.4847 501.323 91.2865 502.522C90.0882 503.72 89.4122 505.343 89.4056 507.038Z" fill="#93929C"/>
    <path d="M95.8035 503.269L94.3406 505.426L91.8364 506.145L93.4232 508.203L93.3488 510.807L95.8035 509.914L98.2582 510.807L98.159 508.203L99.7706 506.145L97.2664 505.426L95.8035 503.269Z" fill="white"/>
    <path d="M124.217 509.89C124.217 509.89 129.895 512.89 132.027 514.353C133.014 515.021 133.816 515.929 134.358 516.991C134.9 518.054 135.164 519.236 135.127 520.427H119.556C119.556 520.427 119.878 512.815 124.217 509.89Z" fill="white"/>
    <path d="M84.423 520.427V524.717C84.423 525.436 85.0677 525.832 86.1587 525.832H133.417C134.483 525.832 135.128 525.436 135.128 524.717V520.427H84.423Z" fill="white"/>
    <path d="M119.556 506.988C119.693 506.778 119.907 506.629 120.152 506.573C120.398 506.518 120.655 506.56 120.87 506.691C120.977 506.757 121.069 506.843 121.142 506.945C121.216 507.047 121.267 507.163 121.295 507.285C121.323 507.408 121.326 507.535 121.304 507.658C121.282 507.782 121.236 507.9 121.167 508.005L119.506 510.683C119.426 510.822 119.31 510.936 119.171 511.015C119.031 511.093 118.873 511.133 118.713 511.129C118.529 511.126 118.349 511.075 118.192 510.98C118.085 510.915 117.992 510.828 117.919 510.726C117.846 510.624 117.794 510.508 117.767 510.386C117.739 510.264 117.736 510.137 117.758 510.013C117.78 509.89 117.826 509.772 117.894 509.666L119.556 506.988Z" fill="white"/>
    <path d="M116.63 504.93C116.712 504.836 116.811 504.758 116.922 504.702C117.034 504.646 117.155 504.613 117.279 504.603C117.404 504.594 117.528 504.61 117.647 504.649C117.765 504.688 117.875 504.75 117.969 504.831C118.064 504.913 118.141 505.012 118.197 505.123C118.253 505.234 118.287 505.356 118.296 505.48C118.305 505.604 118.29 505.729 118.251 505.848C118.212 505.966 118.15 506.076 118.068 506.17L116.134 508.451C116.045 508.556 115.935 508.64 115.811 508.7C115.688 508.76 115.553 508.793 115.415 508.798C115.236 508.795 115.061 508.742 114.91 508.644C114.759 508.547 114.638 508.409 114.56 508.247C114.483 508.085 114.453 507.904 114.472 507.726C114.492 507.547 114.561 507.378 114.671 507.236L116.63 504.93Z" fill="white"/>
    <path d="M113.878 502.625C114.076 502.498 114.312 502.447 114.545 502.481C114.777 502.516 114.988 502.633 115.14 502.812C115.292 502.991 115.373 503.219 115.369 503.454C115.365 503.689 115.276 503.914 115.118 504.088L112.912 505.997C112.738 506.143 112.518 506.223 112.292 506.22C112.155 506.225 112.019 506.198 111.895 506.142C111.77 506.087 111.66 506.003 111.573 505.898C111.481 505.812 111.408 505.708 111.358 505.593C111.308 505.478 111.282 505.354 111.282 505.228C111.282 505.103 111.308 504.979 111.358 504.863C111.408 504.748 111.481 504.645 111.573 504.559L113.878 502.625Z" fill="white"/>
    <path d="M109.043 501.484L111.522 499.947C111.74 499.818 111.999 499.78 112.245 499.84C112.491 499.9 112.703 500.054 112.836 500.269C112.903 500.376 112.948 500.495 112.968 500.62C112.988 500.745 112.983 500.872 112.953 500.994C112.923 501.117 112.869 501.232 112.793 501.333C112.718 501.435 112.623 501.52 112.514 501.583L110.034 503.12C109.888 503.218 109.715 503.27 109.539 503.269C109.377 503.265 109.219 503.22 109.08 503.137C108.941 503.055 108.826 502.938 108.745 502.798C108.614 502.583 108.572 502.326 108.627 502.081C108.683 501.835 108.832 501.621 109.043 501.484Z" fill="white"/>
    <path d="M106.959 498.286L109.736 497.121C109.973 497.022 110.239 497.021 110.476 497.119C110.714 497.217 110.902 497.405 111.001 497.641C111.049 497.757 111.074 497.881 111.074 498.006C111.074 498.131 111.049 498.255 111.001 498.37C110.952 498.486 110.881 498.59 110.792 498.678C110.702 498.766 110.596 498.835 110.48 498.881L107.703 500.046H107.331C107.117 500.035 106.913 499.953 106.751 499.813C106.589 499.673 106.478 499.483 106.435 499.273C106.393 499.063 106.421 498.845 106.516 498.653C106.611 498.461 106.767 498.306 106.959 498.212V498.286Z" fill="white"/>
    <path d="M105.225 494.715L108.299 493.946C108.542 493.887 108.799 493.927 109.013 494.057C109.227 494.187 109.381 494.397 109.44 494.641C109.499 494.884 109.459 495.141 109.329 495.355C109.199 495.569 108.989 495.722 108.745 495.781L105.696 496.575H105.473C105.259 496.572 105.052 496.501 104.882 496.371C104.712 496.242 104.589 496.061 104.53 495.856C104.477 495.613 104.52 495.359 104.649 495.146C104.778 494.934 104.984 494.779 105.225 494.715Z" fill="white"/>
    <path d="M74.0087 361.866C74.2814 349.866 82.3644 344.064 94.3401 344.361C106.316 344.659 114.944 350.932 114.672 362.908L105.175 487.946H87.1745L74.0087 361.866Z" fill="#FBBEAA"/>
    <path d="M11.3026 486.979C11.3026 484.592 12.2508 482.303 13.9387 480.615C15.6266 478.927 17.9159 477.979 20.303 477.979C22.69 477.979 24.9793 478.927 26.6672 480.615C28.3551 482.303 29.3034 484.592 29.3034 486.979V506.542H11.3026V486.979Z" fill="#FBBEAA"/>
    <path d="M28.6337 490.624C30.8652 490.624 31.2619 491.591 31.8818 492.856C32.9393 496.226 34.735 499.317 37.1382 501.906C40.7141 504.961 44.5561 507.691 48.618 510.063V520.427H8.55011C8.55011 520.427 8.82286 512.245 9.02121 506.468C9.21957 500.691 9.76507 493.649 9.74027 492.905C9.71548 492.161 9.74026 490.624 11.0792 490.624H28.6337Z" fill="#302D3B"/>
    <path d="M13.5098 507.038C13.5049 508.309 13.8774 509.553 14.58 510.612C15.2827 511.671 16.2839 512.498 17.4569 512.988C18.6298 513.478 19.9218 513.609 21.1692 513.364C22.4165 513.119 23.5631 512.509 24.4636 511.612C25.3642 510.715 25.9783 509.571 26.2281 508.324C26.4779 507.078 26.3522 505.786 25.8669 504.611C25.3816 503.436 24.5585 502.431 23.5019 501.725C22.4453 501.018 21.2028 500.641 19.9316 500.641C18.2327 500.641 16.6031 501.314 15.3995 502.513C14.1959 503.712 13.5164 505.339 13.5098 507.038Z" fill="#93929C"/>
    <path d="M19.9068 503.269L18.444 505.426L15.9397 506.145L17.5514 508.203L17.477 510.807L19.9068 509.914L22.3615 510.807L22.2871 508.203L23.8988 506.145L21.3697 505.426L19.9068 503.269Z" fill="white"/>
    <path d="M48.3203 509.89C48.3203 509.89 54.023 512.89 56.1305 514.353C57.1228 515.016 57.9285 515.923 58.471 516.987C59.0136 518.05 59.2748 519.234 59.2299 520.427H43.5845C43.5845 520.427 44.006 512.815 48.3203 509.89Z" fill="white"/>
    <path d="M8.55011 520.427V524.717C8.55011 525.436 9.16998 525.832 10.2609 525.832H57.5689C58.6598 525.832 59.2797 525.436 59.2797 524.717V520.427H8.55011Z" fill="white"/>
    <path d="M43.685 506.988C43.8198 506.775 44.034 506.623 44.2805 506.567C44.5269 506.512 44.7854 506.556 44.9991 506.691C45.2128 506.826 45.3643 507.04 45.4201 507.286C45.4759 507.533 45.4315 507.791 45.2967 508.005L43.6355 510.683C43.5495 510.822 43.4288 510.936 43.2854 511.014C43.1419 511.092 42.9806 511.132 42.8172 511.129C42.6409 511.13 42.4683 511.078 42.3214 510.98C42.2145 510.915 42.1218 510.828 42.0487 510.726C41.9757 510.624 41.9238 510.508 41.8961 510.386C41.8684 510.263 41.8654 510.137 41.8873 510.013C41.9092 509.89 41.9556 509.772 42.0238 509.666L43.685 506.988Z" fill="white"/>
    <path d="M40.7334 504.93C40.8969 504.74 41.128 504.621 41.3778 504.598C41.6276 504.574 41.8767 504.649 42.0723 504.806C42.2643 504.974 42.3843 505.209 42.4074 505.463C42.4305 505.717 42.3549 505.97 42.1963 506.17L40.2375 508.451C40.1516 508.559 40.0423 508.647 39.9177 508.707C39.7932 508.767 39.6567 508.798 39.5185 508.798C39.3367 508.8 39.1583 508.749 39.0048 508.652C38.8512 508.555 38.7291 508.415 38.6531 508.25C38.5771 508.085 38.5505 507.901 38.5764 507.721C38.6024 507.542 38.6798 507.373 38.7994 507.236L40.7334 504.93Z" fill="white"/>
    <path d="M38.0067 502.625C38.2039 502.498 38.4407 502.447 38.6728 502.481C38.9049 502.516 39.1166 502.633 39.2683 502.812C39.42 502.991 39.5014 503.219 39.4974 503.454C39.4934 503.689 39.4042 503.914 39.2464 504.088L37.0149 505.997C36.8419 506.143 36.6218 506.223 36.3951 506.22C36.2588 506.223 36.1236 506.196 35.9992 506.14C35.8748 506.084 35.7644 506.001 35.676 505.898C35.5875 505.81 35.5173 505.706 35.4694 505.591C35.4215 505.476 35.3968 505.353 35.3968 505.228C35.3968 505.104 35.4215 504.98 35.4694 504.866C35.5173 504.751 35.5875 504.646 35.676 504.559L38.0067 502.625Z" fill="white"/>
    <path d="M33.1728 501.484L35.6522 499.947C35.8661 499.857 36.1053 499.846 36.3262 499.918C36.547 499.989 36.7348 500.138 36.8551 500.337C36.9755 500.535 37.0203 500.77 36.9816 500.999C36.9428 501.228 36.823 501.435 36.644 501.583L34.1645 503.12C34.0176 503.218 33.845 503.27 33.6687 503.269C33.5034 503.267 33.3414 503.223 33.1982 503.14C33.0549 503.058 32.9352 502.94 32.8504 502.798C32.7216 502.58 32.6832 502.321 32.7435 502.075C32.8037 501.83 32.9579 501.617 33.1728 501.484Z" fill="white"/>
    <path d="M31.0891 498.286L33.8661 497.121C33.9815 497.072 34.1055 497.047 34.2307 497.047C34.3558 497.047 34.4798 497.072 34.5952 497.121C34.7106 497.169 34.8152 497.24 34.9029 497.33C34.9906 497.419 35.0595 497.525 35.1058 497.641C35.1984 497.872 35.1985 498.13 35.1062 498.36C35.0139 498.591 34.8361 498.778 34.6099 498.881L31.8081 500.046C31.6939 500.072 31.5753 500.072 31.461 500.046C31.2701 500.046 31.0835 499.99 30.9246 499.884C30.7658 499.778 30.6418 499.628 30.5684 499.451C30.4932 499.227 30.5049 498.983 30.6014 498.767C30.6978 498.551 30.8719 498.379 31.0891 498.286Z" fill="white"/>
    <path d="M29.3535 494.715L32.4033 493.947C32.6498 493.886 32.9101 493.925 33.1281 494.055C33.3461 494.185 33.5043 494.395 33.5686 494.641C33.5982 494.761 33.6036 494.887 33.5847 495.009C33.5658 495.132 33.5229 495.249 33.4584 495.355C33.3939 495.461 33.3091 495.554 33.2089 495.627C33.1086 495.7 32.9949 495.752 32.8743 495.781L29.8246 496.575H29.5767C29.3533 496.558 29.1428 496.464 28.9811 496.308C28.8195 496.153 28.7167 495.947 28.6903 495.724C28.664 495.502 28.7157 495.277 28.8367 495.089C28.9576 494.9 29.1403 494.759 29.3535 494.69V494.715Z" fill="white"/>
    <path d="M21.1469 361.494C22.3649 355.866 25.768 350.952 30.6081 347.832C35.4482 344.712 41.3291 343.642 46.958 344.857C58.6858 347.337 65.0084 358.891 62.4793 370.619L29.3043 490.004H11.0803L21.1469 361.494Z" fill="#FBBEAA"/>
    <path d="M72.4453 361.086C72.512 358.237 73.1393 355.429 74.2912 352.822C75.4432 350.216 77.0973 347.861 79.1591 345.894C81.2208 343.927 83.6499 342.385 86.3076 341.356C88.9654 340.327 91.7996 339.832 94.6487 339.899C97.4978 339.966 100.306 340.593 102.912 341.745C105.519 342.897 107.873 344.551 109.841 346.613C111.808 348.675 113.35 351.104 114.379 353.761C115.407 356.419 115.902 359.253 115.836 362.102L121.465 490.638H72.4462L72.4453 361.086Z" fill="#93929C"/>
    <path d="M21.1495 358.433C22.4952 352.94 25.9302 348.188 30.7244 345.189C35.5185 342.189 41.2937 341.177 46.8221 342.369C52.3504 343.56 57.1961 346.861 60.3288 351.569C63.4615 356.278 64.6341 362.022 63.5976 367.582L50.4075 490.138C50.4075 490.138 18.8193 492.023 0.000244141 490.138L21.1495 358.433Z" fill="#93929C"/>
    <path d="M178.493 139.36L107.283 85.2588C98.977 79.9528 93.3239 82.7794 88.9105 88.4573C86.8949 91.2055 85.9605 94.5989 86.2851 97.9915C86.6097 101.384 88.1708 104.539 90.6709 106.855L161.707 159.196C164.21 161.31 167.433 162.377 170.703 162.174C173.974 161.97 177.039 160.513 179.262 158.105L179.584 157.758C180.763 156.5 181.674 155.014 182.261 153.392C182.847 151.771 183.097 150.046 182.995 148.325C182.893 146.603 182.441 144.92 181.667 143.379C180.893 141.838 179.813 140.47 178.493 139.36Z" fill="#FBBEAA"/>
    <path d="M90.6707 106.83C90.0131 106.264 89.415 105.633 88.8855 104.946C88.4172 103.181 88.357 101.333 88.7092 99.5416C89.0615 97.7501 89.8171 96.0625 90.9186 94.6065C94.6626 88.8294 102.522 84.292 106.018 85.1598L109.49 86.9202L148.789 116.674C145.311 124.848 140.613 132.447 134.854 139.212L90.6707 106.83Z" fill="#F18380"/>
    <path d="M101.406 81.3907L163.029 122.952C162.77 125.078 169.601 81.3907 169.601 81.3907L188.931 83.9063C188.931 83.9063 188.538 128.02 185.652 151.433C184.5 160.779 176.792 164.347 167.591 162.34C163.049 161.349 158.772 159.484 154.967 156.813C138.613 145.335 92.7351 113.005 88.9841 108.937C82.5127 101.921 82.5127 96.6642 86.2318 90.887C89.951 85.1099 97.91 80.5229 101.406 81.3907Z" fill="#90A2B7"/>
    <path d="M72.4465 361.792L59.7269 228.621C59.7269 213.918 74.8763 197.9 97.2161 201.347C117.399 204.496 123.548 224.778 121.887 243.993C120.225 263.209 115.738 362.734 115.738 362.734C115.671 365.583 115.044 368.391 113.892 370.998C112.74 373.604 111.086 375.959 109.024 377.926C106.962 379.893 104.533 381.435 101.875 382.464C99.2175 383.493 96.3833 383.988 93.5342 383.921C90.6851 383.854 87.8771 383.227 85.2705 382.075C82.6638 380.923 80.3096 379.269 78.3422 377.207C76.3748 375.145 74.8328 372.716 73.8042 370.059C72.7756 367.401 72.2806 364.567 72.3473 361.718L72.4465 361.792Z" fill="#93929C"/>
    <path d="M21.1464 359.139L33.7916 225.992C36.4694 211.537 54.4454 198.718 75.7439 206.306C94.9596 213.174 97.1911 234.249 91.9346 252.82C86.6782 271.391 63.5945 368.288 63.5945 368.288C62.2489 373.781 58.8138 378.532 54.0197 381.532C49.2255 384.532 43.4504 385.544 37.922 384.352C32.3936 383.161 27.548 379.86 24.4153 375.151C21.2825 370.443 20.1098 364.698 21.1464 359.139Z" fill="#93929C"/>
    <path d="M91.9349 252.82C86.7032 271.391 63.5948 368.288 63.5948 368.288" stroke="#5E5D63" stroke-width="0.75" stroke-miterlimit="10"/>
    <path d="M88.2164 79.283C88.2164 79.283 99.1756 81.1921 101.308 81.7624C102.566 82.0577 103.729 82.6676 104.688 83.5349C105.646 84.4022 106.368 85.4986 106.787 86.7213C108.151 89.9694 115.168 111.243 115.813 113.549C116.249 116.089 115.839 118.702 114.647 120.987C113.631 123.764 108.374 136.41 108.374 136.41L107.581 177.147L77.9776 181.842L49.6113 177.147C49.6113 177.147 39.6935 101.375 39.1976 96.6888C38.7018 92.0026 41.0324 82.9526 46.636 81.812C52.2396 80.6715 67.6122 79.3326 67.6122 79.3326L88.2164 79.283Z" fill="#FBBEAA"/>
    <path d="M109.013 161.015V177.349C89.6871 179.385 58.893 177.943 47.3272 177.349C46.7835 172.683 46.2151 164.766 45.6219 159.506C61.3643 159.958 87.364 161.637 109.013 161.015Z" fill="white"/>
    <path d="M93.897 105.063H94.789V106.217H95.7408V105.063H96.6327V108.216H95.7408V106.967H94.7889V108.216H93.8969V105.063H93.897ZM99.8156 105.063V108.216H98.9538V105.81H98.3892V106.715C98.3892 107.122 98.3591 107.62 98.1218 107.901C97.8846 108.213 97.4373 108.308 96.9327 108.213V107.431C97.4073 107.526 97.5273 107.337 97.5273 106.712V105.057H99.8156V105.063ZM100.56 105.063H101.452L101.957 106.936L102.461 105.063H103.353L103.771 108.216H102.939L102.731 106.529L102.254 108.216H101.659L101.185 106.529L100.978 108.216H100.146L100.56 105.063L100.56 105.063ZM104.098 105.063H104.99V106.343L105.852 105.063H106.833L105.704 106.624L106.864 108.216H105.794L104.993 106.936V108.216H104.101V105.063H104.098H104.098ZM100.26 101.69C94.9089 101.69 91.3686 103.72 91.3686 106.715C91.3686 109.682 94.9062 111.741 100.26 111.741C105.642 111.741 109.152 109.679 109.152 106.715C109.152 103.72 105.644 101.69 100.26 101.69ZM100.26 111.274C95.2334 111.274 91.8759 109.433 91.8759 106.715C91.8759 103.969 95.2362 102.156 100.26 102.156C105.314 102.156 108.647 103.966 108.647 106.715C108.647 109.433 105.317 111.274 100.26 111.274ZM100.26 102.594C95.5335 102.594 92.3806 104.25 92.3806 106.715C92.3806 109.181 95.5335 110.836 100.26 110.836C104.987 110.836 108.14 109.181 108.14 106.715C108.143 104.25 104.99 102.594 100.26 102.594ZM100.26 110.744C95.5908 110.744 92.4706 109.121 92.4706 106.718C92.4706 104.316 95.5934 102.692 100.26 102.692C104.927 102.692 108.05 104.316 108.05 106.718C108.053 109.121 104.93 110.745 100.26 110.745V110.744Z" fill="white"/>
    <path d="M6.71703 173.502L38.4788 89.9199C42.7187 80.9939 48.9917 80.3988 55.8349 82.8783C59.0001 84.1408 61.5893 86.5252 63.1077 89.5759C64.6262 92.6266 64.9676 96.1298 64.0667 99.4162L31.3627 181.511C30.3715 184.634 28.2087 187.252 25.3284 188.814C22.4482 190.377 19.0745 190.763 15.9158 189.891L15.4447 189.767C13.7785 189.313 12.2223 188.523 10.8711 187.448C9.51982 186.372 8.40182 185.032 7.5852 183.511C6.76858 181.989 6.27045 180.316 6.1212 178.596C5.97194 176.875 6.17467 175.142 6.71703 173.502Z" fill="#FBBEAA"/>
    <path d="M19.882 138.839L38.4778 89.9198C38.9766 88.847 39.5655 87.8185 40.2382 86.8453C42.5161 85.4192 45.1238 84.6058 47.8085 84.4842C50.4932 84.3625 53.1638 84.9367 55.5613 86.1511C58.3453 87.5058 60.5831 89.7707 61.9043 92.5708C63.2254 95.3709 63.5506 98.5383 62.826 101.548C62.826 101.846 62.6525 102.416 62.5037 103.185L43.3128 151.41C34.9303 148.387 27.0361 144.152 19.882 138.839Z" fill="#F18380"/>
    <path d="M40.2134 85.4572L4.91278 177.075C33.9072 167.797 30.5089 141.948 46.2782 144.601C46.2782 144.601 64.4624 101.921 65.1566 98.1023C65.8812 95.0922 65.556 91.9249 64.2349 89.1248C62.9137 86.3246 60.6759 84.0597 57.8919 82.705C50.1312 78.7378 42.3953 82.3331 40.2134 85.4572Z" fill="#90A2B7"/>
    <path d="M70.3894 134.252L30.9165 183.42C26.2304 189.866 19.2879 192.743 12.3702 186.941C11.0908 185.854 10.0455 184.518 9.29774 183.014C8.55002 181.511 8.11543 179.872 8.02037 178.195C7.92531 176.519 8.17175 174.841 8.74473 173.263C9.31771 171.685 10.2053 170.239 11.3537 169.014L58.9095 121.905C63.0502 117.07 68.0339 116.301 71.6539 119.425C76.0425 123.318 75.5218 127.88 70.3894 134.252Z" fill="#FBBEAA"/>
    <path d="M56.5263 124.483C60.915 120.045 69.1219 110.474 71.8989 108.144C74.6448 106.075 77.6446 104.367 80.825 103.061C83.2378 102.253 85.7323 101.712 88.2633 101.449C90.0237 101.226 90.7428 101.747 90.7428 102.813C90.6985 103.448 90.4961 104.062 90.154 104.599C89.8119 105.136 89.3409 105.579 88.784 105.887H92.032C93.1478 105.887 93.8668 106.78 93.3461 108.218C92.8732 109.168 92.1973 110.003 91.366 110.663C90.5348 111.322 89.5686 111.792 88.536 112.037C88.536 112.037 92.9246 112.458 94.0404 112.681C95.1561 112.904 95.5033 113.326 95.5033 114.392C95.4937 115.128 95.289 115.849 94.91 116.481C94.5311 117.112 93.9914 117.632 93.3461 117.987C91.7666 118.628 90.0899 118.997 88.3872 119.078C88.3872 119.078 93.8173 120.442 94.9082 120.839C95.9992 121.235 96.1232 121.954 95.5529 122.896C95.2279 123.56 94.7587 124.143 94.1795 124.602C93.6004 125.061 92.926 125.385 92.2056 125.549C90.1477 126.095 88.7592 125.202 88.0153 125.326C86.4171 125.841 84.8522 126.454 83.3292 127.161C81.0422 129.438 78.246 131.138 75.1718 132.12C72.8835 133.08 70.7846 134.441 68.9732 136.137C68.1294 136.929 67.1354 137.543 66.0501 137.944C64.9647 138.345 63.8099 138.524 62.6541 138.471C61.4982 138.418 60.3647 138.133 59.3207 137.634C58.2767 137.136 57.3434 136.432 56.5759 135.566C52.6088 131.351 53.2782 127.831 56.5263 124.483Z" fill="#FBBEAA"/>
    <path d="M88.2412 105.912C88.2482 105.953 88.2465 105.995 88.2363 106.036C88.2261 106.076 88.2076 106.114 88.1819 106.146C88.1562 106.179 88.1239 106.206 88.0871 106.225C88.0503 106.245 88.01 106.256 87.9685 106.259L85.9353 106.458H84.9435C84.5964 106.458 84.2741 106.582 83.9269 106.606C83.5602 106.716 83.2036 106.857 82.8608 107.028L81.7202 107.499C80.1829 108.119 78.6457 108.689 77.5051 109.111C76.3646 109.532 75.5712 109.78 75.5712 109.78C75.5083 109.807 75.4378 109.809 75.3735 109.786C75.3093 109.763 75.2559 109.716 75.224 109.656C75.1778 109.596 75.1528 109.522 75.1528 109.445C75.1528 109.369 75.1778 109.295 75.224 109.235L77.0836 108.268L79.0176 107.35C79.7119 107.028 80.4805 106.706 81.2491 106.408L82.4144 105.962C82.7892 105.792 83.1795 105.659 83.5798 105.565L84.7699 105.441H85.7865H87.299H87.8693C87.9317 105.392 88.0112 105.369 88.0903 105.379C88.1693 105.388 88.2415 105.428 88.2908 105.491C88.3401 105.553 88.3626 105.633 88.3533 105.712C88.344 105.791 88.3036 105.863 88.2412 105.912ZM87.7701 111.888H87.3238C86.9526 111.854 86.5792 111.854 86.208 111.888L85.4394 112.012C85.1561 112.047 84.8747 112.097 84.5964 112.16L82.9104 112.706C81.7698 113.078 80.6541 113.549 79.811 113.896C79.811 113.896 79.5383 113.896 79.5631 114.02H79.2656L78.8193 114.144H78.5465H78.3977C78.3229 114.162 78.2578 114.208 78.2162 114.273C78.1746 114.337 78.1597 114.416 78.1746 114.491C78.1854 114.55 78.2156 114.605 78.2605 114.645C78.3054 114.685 78.3624 114.71 78.4226 114.714H79.6871H80.0838C80.9516 114.491 82.1169 114.144 83.2574 113.747L84.9187 113.127L85.6873 112.929L86.3568 112.731C86.6992 112.629 87.0468 112.547 87.3982 112.483L87.8197 112.359C87.8572 112.347 87.892 112.329 87.9223 112.304C87.9526 112.279 87.9777 112.248 87.9961 112.214C88.0145 112.179 88.0259 112.142 88.0297 112.103C88.0334 112.064 88.0295 112.024 88.018 111.987C87.9887 111.95 87.9504 111.922 87.907 111.905C87.8636 111.887 87.8164 111.882 87.7701 111.888ZM87.7701 118.929H86.8527C86.6047 118.929 86.2824 118.929 85.9601 119.103L84.9435 119.425C84.3038 119.65 83.6822 119.924 83.0839 120.243C82.8089 120.373 82.5437 120.522 82.2905 120.69C82.2399 120.748 82.212 120.823 82.212 120.9C82.212 120.978 82.2399 121.053 82.2905 121.111C82.3617 121.187 82.4596 121.231 82.5632 121.235L83.4807 121.086C84.0013 120.962 84.6708 120.764 85.3403 120.541L86.3072 120.144L87.1502 119.822C87.4309 119.697 87.7041 119.557 87.9685 119.4C88.0386 119.359 88.0904 119.292 88.1134 119.214C88.1364 119.136 88.1289 119.052 88.0924 118.979C88.0189 118.932 87.9304 118.914 87.8444 118.929H87.7701Z" fill="#F18380"/>
    <path d="M33.7913 225.348C34.3367 218.48 41.7007 192.148 49.6101 177.147C49.6101 177.147 67.4239 176.232 78.5353 176.268C90.1284 176.306 107.58 177.147 107.58 177.147C112.737 188.826 118.613 214.339 120.324 219.843C121.357 223.082 121.482 226.542 120.687 229.846C119.891 233.151 118.205 236.175 115.811 238.588C109.935 245.258 94.7858 252.895 91.2897 252.895C76.2487 250.746 61.5059 246.869 47.3539 241.34C39.37 237.993 33.2706 232.241 33.7913 225.348Z" fill="#93929C"/>
    <path d="M57.3489 121.406L52.3232 126.045L65.854 142.282L69.7199 137.643L57.3489 121.406Z" fill="#6B6B6B"/>
    <path d="M91.9985 82.5382C80.8002 92.1367 69.6685 86.5376 66.0024 81.5383L50.0049 88.5373L54.0043 162.526L106.996 164.526L104.996 93.5365L91.9985 82.5382Z" fill="white"/>
    <path d="M105.154 82.0958C103.014 80.696 90.9153 79.5185 90.9153 79.5185V184.982C92.4515 186.479 92.7657 186.444 94.9717 186.194L95.0747 186.182C99.8439 184.985 104.445 183.198 108.773 180.863C108.773 180.863 115.768 140.188 116.43 114.096C116.711 103.011 111.858 95.9931 110.944 93.0673C109.42 88.1911 107.293 83.4956 105.154 82.0958Z" fill="#023783"/>
    <path d="M69.5304 186.157C70.5025 185.95 71.4234 185.551 72.2382 184.982L66.799 78.4386C66.799 78.4386 49.5992 78.4075 45.4198 80.2672C43.6825 81 41.9868 82.0629 40.923 83.6196C39.8592 85.1764 40.2903 93.6206 40.2388 95.5054C39.9789 99.0249 40.3031 176.984 40.2431 177.663C40.1831 178.343 40.763 178.723 41.3829 179.083C42.0028 179.443 61.5998 185.162 66.5791 186.182C67.5546 186.371 68.5582 186.363 69.5304 186.157Z" fill="#023783"/>
    <circle cx="94.3839" cy="116.839" r="1.82859" fill="#90A2B7"/>
    <path d="M57.9053 123.963C62.0405 119.781 69.7737 110.762 72.3903 108.566C74.9777 106.617 77.8043 105.007 80.8011 103.777C83.0746 103.015 85.4251 102.506 87.81 102.258C89.4687 102.048 90.1463 102.539 90.1463 103.543C90.1045 104.142 89.9138 104.72 89.5915 105.226C89.2691 105.732 88.8254 106.15 88.3006 106.44H91.3611C92.4125 106.44 93.09 107.281 92.5994 108.636C92.1538 109.532 91.5168 110.318 90.7336 110.94C89.9503 111.561 89.0399 112.003 88.0669 112.234C88.0669 112.234 92.2022 112.631 93.2535 112.842C94.3049 113.052 94.6319 113.449 94.6319 114.454C94.6229 115.148 94.43 115.827 94.073 116.422C93.7159 117.017 93.2074 117.507 92.5994 117.841C91.111 118.445 89.5311 118.793 87.9268 118.869C87.9268 118.869 93.0433 120.154 94.0712 120.528C95.0992 120.902 95.2161 121.579 94.6787 122.467C94.3725 123.093 93.9303 123.642 93.3846 124.074C92.8389 124.507 92.2034 124.812 91.5247 124.967C89.5855 125.481 88.2772 124.64 87.5763 124.757C86.0704 125.242 84.5958 125.819 83.1607 126.486C81.0057 128.631 78.371 130.233 75.4743 131.158C73.3181 132.063 71.3403 133.345 69.6335 134.943C68.8385 135.689 67.9019 136.268 66.8792 136.646C65.8564 137.024 64.7683 137.193 63.6792 137.143C62.5901 137.092 61.5221 136.824 60.5383 136.354C59.5546 135.884 58.6752 135.222 57.952 134.406C54.2139 130.434 54.8447 127.117 57.9053 123.963Z" fill="#FBBEAA"/>
    <path d="M87.7865 106.463C87.7931 106.502 87.7916 106.542 87.7819 106.58C87.7723 106.618 87.7549 106.653 87.7307 106.684C87.7065 106.715 87.676 106.74 87.6413 106.759C87.6067 106.777 87.5686 106.788 87.5295 106.791L85.6138 106.977H84.6792C84.3522 106.977 84.0484 107.094 83.7214 107.118C83.3758 107.221 83.0397 107.354 82.7168 107.515L81.642 107.959C80.1935 108.543 78.745 109.08 77.6703 109.477C76.5956 109.874 75.848 110.108 75.848 110.108C75.7887 110.133 75.7223 110.135 75.6617 110.113C75.6012 110.092 75.5509 110.048 75.5209 109.991C75.4773 109.934 75.4537 109.864 75.4537 109.793C75.4537 109.721 75.4773 109.651 75.5209 109.594L77.2731 108.683L79.0954 107.818C79.7496 107.515 80.4738 107.211 81.1981 106.931L82.2962 106.51C82.6493 106.351 83.017 106.225 83.3942 106.136L84.5157 106.02H85.4736H86.8987H87.4361C87.4949 105.973 87.5698 105.952 87.6443 105.961C87.7188 105.969 87.7868 106.007 87.8333 106.066C87.8797 106.125 87.9009 106.2 87.8922 106.275C87.8834 106.349 87.8454 106.417 87.7865 106.463ZM87.3426 112.094H86.9221C86.5723 112.063 86.2205 112.063 85.8707 112.094L85.1465 112.211C84.8795 112.244 84.6144 112.291 84.3521 112.351L82.7635 112.865C81.6888 113.215 80.6374 113.659 79.8431 113.986C79.8431 113.986 79.5861 113.986 79.6094 114.103H79.3291L78.9086 114.22H78.6516H78.5114C78.4408 114.237 78.3795 114.28 78.3403 114.341C78.3011 114.402 78.2871 114.476 78.3011 114.547C78.3113 114.603 78.3398 114.654 78.382 114.692C78.4243 114.73 78.478 114.753 78.5348 114.757H79.7263H80.1C80.9177 114.547 82.0158 114.22 83.0905 113.846L84.6559 113.262L85.3801 113.075L86.0109 112.888C86.3335 112.793 86.6611 112.715 86.9922 112.655L87.3894 112.538C87.4247 112.527 87.4575 112.51 87.486 112.486C87.5146 112.463 87.5382 112.434 87.5556 112.401C87.5729 112.369 87.5837 112.333 87.5872 112.296C87.5908 112.26 87.587 112.223 87.5762 112.187C87.5486 112.153 87.5126 112.126 87.4716 112.11C87.4307 112.094 87.3863 112.088 87.3426 112.094ZM87.3426 118.729H86.4782C86.2445 118.729 85.9409 118.729 85.6371 118.893L84.6792 119.196C84.0765 119.409 83.4907 119.666 82.927 119.967C82.6678 120.089 82.4179 120.23 82.1794 120.388C82.1317 120.443 82.1054 120.513 82.1054 120.586C82.1054 120.659 82.1317 120.73 82.1794 120.785C82.2465 120.856 82.3387 120.898 82.4363 120.902L83.3008 120.762C83.7915 120.645 84.4223 120.458 85.0531 120.248L85.9642 119.874L86.7585 119.57C87.023 119.453 87.2805 119.32 87.5295 119.173C87.5956 119.134 87.6444 119.071 87.6661 118.997C87.6878 118.924 87.6807 118.844 87.6463 118.776C87.5771 118.731 87.4937 118.715 87.4127 118.729H87.3426Z" fill="#F18380"/>
    <path d="M69.3775 137.747L31.2018 184.459C26.4186 190.834 15.2415 194.338 8.41238 188.432C7.14951 187.325 6.12454 185.974 5.39965 184.459C4.67476 182.945 4.26503 181.299 4.19534 179.621C4.12566 177.944 4.39746 176.27 4.99425 174.7C5.59104 173.131 8.24462 167.844 9.41138 166.637L57.2478 121.711L69.3775 137.747Z" fill="#90A2B7"/>
    <path d="M57.0974 121.588L51.7965 126.351L65.4265 142.586L70.6152 137.003L57.0974 121.588Z" fill="#023783"/>
    <circle cx="94.3842" cy="129.639" r="1.82859" fill="#90A2B7"/>
    <circle cx="94.3842" cy="141.83" r="1.82859" fill="#90A2B7"/>
    <path d="M97.755 103.657H98.2989V104.361H98.8792V103.657H99.4231V105.58H98.8792V104.819H98.2988V105.58H97.755V103.657H97.755ZM101.364 103.657V105.58H100.838V104.113H100.494V104.665C100.494 104.913 100.476 105.217 100.331 105.388C100.186 105.578 99.9136 105.636 99.6059 105.578V105.101C99.8954 105.159 99.9685 105.044 99.9685 104.663V103.654H101.364V103.657ZM101.818 103.657H102.362L102.669 104.799L102.977 103.657H103.521L103.775 105.58H103.268L103.142 104.551L102.85 105.58H102.488L102.199 104.551L102.072 105.58H101.565L101.818 103.657L101.818 103.657ZM103.975 103.657H104.519V104.438L105.044 103.657H105.643L104.954 104.609L105.661 105.58H105.009L104.52 104.799V105.58H103.976V103.657H103.975H103.975ZM101.635 101.601C98.372 101.601 96.2134 102.839 96.2134 104.665C96.2134 106.474 98.3704 107.729 101.635 107.729C104.916 107.729 107.056 106.472 107.056 104.665C107.056 102.839 104.918 101.601 101.635 101.601ZM101.635 107.445C98.5699 107.445 96.5227 106.322 96.5227 104.665C96.5227 102.99 98.5716 101.885 101.635 101.885C104.716 101.885 106.749 102.989 106.749 104.665C106.749 106.322 104.718 107.445 101.635 107.445ZM101.635 102.152C98.7528 102.152 96.8304 103.162 96.8304 104.665C96.8304 106.168 98.7528 107.177 101.635 107.177C104.517 107.177 106.439 106.168 106.439 104.665C106.441 103.162 104.519 102.152 101.635 102.152ZM101.635 107.122C98.7878 107.122 96.8853 106.132 96.8853 104.667C96.8853 103.202 98.7894 102.212 101.635 102.212C104.48 102.212 106.384 103.202 106.384 104.667C106.386 106.132 104.482 107.122 101.635 107.122V107.122Z" fill="white"/>
</svg>
