<svg width="191" height="514" viewBox="0 0 191 514" fill="none" xmlns="http://www.w3.org/2000/svg">
<path d="M22.115 77.1572C22.0143 74.9564 22.6035 72.7792 23.8002 70.9295C25.6426 68.7932 27.023 66.2986 27.8543 63.6028C28.4938 61.1004 29.5153 58.7114 30.8827 56.5202C31.8596 55.177 33.325 54.0781 33.325 53.0523C33.325 52.0266 31.3712 50.0484 28.587 50.6101C27.3945 50.9816 26.2987 51.6121 25.3783 52.4565C24.4579 53.3009 23.7355 54.3383 23.2629 55.4945C22.9961 54.7901 22.8397 54.0487 22.7989 53.2966L22.1884 38.3256C22.1791 37.9375 22.0921 37.5552 21.9326 37.2013C21.7732 36.8473 21.5443 36.5289 21.2598 36.2648C20.9752 36.0008 20.6407 35.7964 20.2758 35.6638C19.911 35.5311 19.5233 35.4729 19.1356 35.4926C18.5183 35.519 17.9248 35.7381 17.4385 36.1192C16.9522 36.5003 16.5977 37.0243 16.4246 37.6174V36.9335C16.3307 36.2058 15.965 35.5405 15.4008 35.0712C14.8367 34.602 14.1158 34.3635 13.3831 34.4037C12.6504 34.4438 11.96 34.7597 11.4506 35.2879C10.9411 35.816 10.6503 36.5174 10.6366 37.251V39.327C10.392 38.687 9.92551 38.1561 9.32228 37.8313C8.71904 37.5064 8.01916 37.4091 7.35019 37.5571C6.68121 37.7051 6.08768 38.0885 5.67778 38.6375C5.26788 39.1866 5.06889 39.8646 5.11708 40.5481V41.8668C4.85422 41.4049 4.46249 41.0295 3.98973 40.7867C3.51697 40.5438 2.98367 40.4439 2.45506 40.4992C1.73115 40.5911 1.07148 40.9611 0.615627 41.5309C0.159782 42.1007 -0.0564423 42.8256 0.0128212 43.552L1.20949 56.1784C1.99343 63.2969 3.4657 70.3227 5.60556 77.1572C5.63143 78.2983 5.8958 79.4214 6.38165 80.4542C6.8675 81.4871 7.56408 82.4068 8.42664 83.1544C9.28919 83.9019 10.2986 84.4607 11.3901 84.7948C12.4815 85.1289 13.6307 85.231 14.7639 85.0944C15.7895 85.1287 16.8103 84.942 17.7573 84.5469C18.7043 84.1519 19.5553 83.5578 20.2526 82.805C20.9498 82.0522 21.477 81.1582 21.7983 80.1837C22.1197 79.2093 22.2277 78.1771 22.115 77.1572Z" fill="#FBBEAA"/>
<path d="M22.4085 78.7938L32.1774 140.118C33.7893 147.811 31.2982 154.772 22.4085 155.993C20.7675 156.207 19.1002 156.085 17.5079 155.634C15.9155 155.184 14.4313 154.415 13.1454 153.373C11.8594 152.332 10.7986 151.039 10.0274 149.575C9.25607 148.111 8.79042 146.506 8.65867 144.856L5.67913 78.9159C4.89762 72.6882 7.60845 68.5364 12.3464 68.0235C18.1589 67.3885 21.2362 70.8321 22.4085 78.7938Z" fill="#FBBEAA"/>
<path d="M21.627 57.6194C22.555 57.6194 22.6283 57.0333 23.0435 55.9587C20.9676 55.9587 14.9353 56.3495 12.2976 61.4293C14.9597 57.766 20.064 57.6194 21.627 57.6194ZM16.8891 38.3013C16.8891 38.3013 17.0356 39.1562 17.1821 40.4017C17.1821 41.0367 17.3287 41.7937 17.3775 42.5753C17.4264 43.3568 17.4996 44.2116 17.5729 45.0175C17.5729 46.7271 17.695 48.4122 17.695 49.6822C17.695 50.9521 17.695 51.8069 17.695 51.8069C17.6951 51.8475 17.6868 51.8878 17.6706 51.925C17.6544 51.9623 17.6305 51.9957 17.6007 52.0233C17.5708 52.0508 17.5356 52.0719 17.4972 52.0851C17.4587 52.0983 17.418 52.1033 17.3775 52.1C17.3088 52.0965 17.243 52.0708 17.1902 52.0268C17.1373 51.9827 17.1002 51.9228 17.0844 51.8558C17.0844 51.8558 16.9379 51.001 16.8158 49.731C16.6937 48.461 16.4983 46.7759 16.425 45.0908C16.425 44.236 16.425 43.3812 16.425 42.6485C16.425 41.9159 16.425 41.11 16.425 40.475C16.425 39.1806 16.425 38.3502 16.425 38.3502C16.4249 38.3095 16.4332 38.2694 16.4494 38.2321C16.4656 38.1949 16.4894 38.1614 16.5193 38.1338C16.5492 38.1062 16.5844 38.0852 16.6228 38.072C16.6613 38.0588 16.702 38.0537 16.7425 38.0571C16.7893 38.084 16.8278 38.1234 16.8536 38.1708C16.8795 38.2182 16.8917 38.2719 16.8891 38.3258V38.3013ZM11.223 40.0109C11.223 40.0109 11.3696 40.7436 11.5406 41.8182C11.5406 42.3799 11.7115 43.0148 11.7848 43.6987C11.8581 44.3825 11.9313 45.1152 12.0046 45.8478C12.0046 47.3132 12.1755 48.7785 12.1999 49.8775C12.2243 50.9765 12.1999 51.7336 12.1999 51.7336C12.1968 51.7722 12.1862 51.8097 12.1685 51.8441C12.1509 51.8785 12.1267 51.9091 12.0971 51.9341C12.0676 51.959 12.0334 51.9779 11.9966 51.9897C11.9598 52.0014 11.921 52.0057 11.8825 52.0023C11.8168 51.9977 11.7545 51.9711 11.7058 51.9268C11.657 51.8825 11.6246 51.8231 11.6138 51.7581C11.6138 51.7581 11.4673 51.0254 11.2963 49.9508C11.1254 48.8762 10.9788 47.3865 10.8567 45.9456C10.8567 45.2129 10.8567 44.4802 10.7102 43.7964C10.5637 43.1126 10.7102 42.4532 10.7102 41.8914C10.7102 40.7924 10.7102 40.0598 10.7102 40.0598C10.7101 40.0191 10.7183 39.979 10.7346 39.9417C10.7508 39.9045 10.7746 39.871 10.8045 39.8434C10.8343 39.8158 10.8696 39.7948 10.908 39.7816C10.9464 39.7684 10.9872 39.7633 11.0277 39.7667C11.0819 39.7891 11.1288 39.826 11.1633 39.8734C11.1978 39.9209 11.2185 39.9769 11.223 40.0353V40.0109ZM5.75246 42.331C5.75246 42.331 5.89896 42.9416 6.09434 43.8696C6.09434 44.3092 6.28976 44.8466 6.36302 45.4327C6.43629 46.0188 6.53394 46.6294 6.63163 47.2399C6.80259 48.4855 6.87592 49.6822 6.92476 50.6591C6.97361 51.6359 6.92476 52.2221 6.92476 52.2221C6.92491 52.2627 6.91655 52.3029 6.90032 52.3402C6.88409 52.3774 6.86026 52.4109 6.83041 52.4385C6.80055 52.466 6.76531 52.4871 6.72688 52.5003C6.68846 52.5135 6.64775 52.5186 6.60726 52.5152C6.54491 52.5119 6.48521 52.4888 6.43688 52.4493C6.38856 52.4098 6.3541 52.3559 6.33858 52.2954C6.33858 52.2954 6.16766 51.6848 5.9967 50.7812C5.82575 49.8776 5.5815 48.6076 5.43496 47.3865C5.43496 46.7515 5.31283 46.1409 5.26399 45.5548C5.21514 44.9687 5.26399 44.4314 5.26399 43.9674C5.26399 43.0393 5.26399 42.4043 5.26399 42.4043C5.26385 42.3637 5.2722 42.3235 5.28843 42.2862C5.30466 42.249 5.32841 42.2155 5.35827 42.1879C5.38812 42.1604 5.42344 42.1393 5.46187 42.1261C5.50029 42.1129 5.541 42.1078 5.58149 42.1112C5.62658 42.1364 5.66539 42.1714 5.695 42.2137C5.72461 42.256 5.74426 42.3045 5.75246 42.3555V42.331Z" fill="#F18380"/>
<path d="M23.5256 75.7947L24.1284 82.5149L4.3273 85.5611L4.3273 78.326L23.5256 75.7947Z" fill="#023783"/>
<path d="M104.418 475.73C104.418 473.379 103.484 471.124 101.822 469.461C100.159 467.799 97.9044 466.865 95.5531 466.865C93.2019 466.865 90.947 467.799 89.2844 469.461C87.6218 471.124 86.6878 473.379 86.6878 475.73V494.999H104.418V475.73Z" fill="#FBBEAA"/>
<path d="M87.3218 479.32C85.1483 479.32 84.7575 480.273 84.1225 481.518C83.0926 484.837 81.3318 487.883 78.9694 490.432C75.4426 493.436 71.6589 496.125 67.6619 498.467V508.676H107.128C107.128 508.676 106.86 500.616 106.664 494.926C106.469 489.236 105.907 482.3 105.956 481.567C106.005 480.834 105.956 479.32 104.613 479.32H87.3218Z" fill="#302D3B"/>
<path d="M102.221 495.487C102.225 496.74 101.858 497.967 101.165 499.011C100.472 500.055 99.484 500.869 98.3272 501.351C97.1703 501.833 95.8965 501.96 94.6672 501.717C93.4379 501.473 92.3087 500.87 91.4226 499.984C90.5365 499.098 89.9335 497.969 89.6903 496.74C89.447 495.51 89.5743 494.237 90.0561 493.08C90.5378 491.923 91.3524 490.935 92.3963 490.242C93.4403 489.549 94.6665 489.181 95.9196 489.186C97.5888 489.193 99.1878 489.859 100.368 491.039C101.548 492.219 102.214 493.818 102.221 495.487Z" fill="#93929C"/>
<path d="M95.9186 491.775L97.3595 493.9L99.8262 494.608L98.2631 496.635L98.3364 499.2L95.9186 498.32L93.5008 499.2L93.5985 496.635L92.011 494.608L94.4777 493.9L95.9186 491.775Z" fill="white"/>
<path d="M67.9315 498.297C67.9315 498.297 62.3388 501.252 60.2385 502.693C59.2662 503.351 58.4763 504.245 57.9425 505.292C57.4087 506.338 57.1484 507.502 57.1857 508.676H72.5229C72.5229 508.676 72.2054 501.178 67.9315 498.297Z" fill="white"/>
<path d="M107.128 508.676V512.901C107.128 513.609 106.493 514 105.419 514H58.8698C57.8197 514 57.1847 513.609 57.1847 512.901V508.676H107.128Z" fill="white"/>
<path d="M72.5228 495.439C72.3876 495.231 72.1768 495.085 71.9351 495.03C71.6934 494.975 71.44 495.017 71.2285 495.146C71.1232 495.211 71.0319 495.296 70.9599 495.396C70.888 495.497 70.8369 495.611 70.8096 495.731C70.7823 495.852 70.7793 495.977 70.801 496.098C70.8226 496.22 70.8683 496.336 70.9354 496.44L72.5717 499.078C72.6505 499.215 72.7647 499.327 72.9022 499.405C73.0397 499.482 73.1955 499.521 73.3532 499.517C73.5341 499.515 73.711 499.464 73.866 499.371C73.9713 499.306 74.0626 499.221 74.1346 499.12C74.2065 499.02 74.2577 498.906 74.285 498.785C74.3123 498.665 74.3152 498.54 74.2936 498.418C74.2719 498.297 74.2263 498.18 74.1592 498.077L72.5228 495.439Z" fill="white"/>
<path d="M75.4046 493.412C75.3245 493.319 75.2268 493.242 75.1171 493.187C75.0074 493.132 74.8879 493.099 74.7655 493.09C74.643 493.081 74.52 493.096 74.4034 493.134C74.2868 493.173 74.1789 493.234 74.0859 493.314C73.9929 493.394 73.9166 493.492 73.8613 493.601C73.8061 493.711 73.7729 493.831 73.7638 493.953C73.7548 494.075 73.7699 494.199 73.8084 494.315C73.8469 494.432 73.908 494.54 73.9882 494.633L75.8931 496.879C75.981 496.982 76.0894 497.066 76.2113 497.125C76.3332 497.184 76.4661 497.217 76.6014 497.221C76.7783 497.218 76.9508 497.166 77.0995 497.07C77.2482 496.974 77.3673 496.838 77.4434 496.679C77.5194 496.519 77.5495 496.341 77.5302 496.165C77.5109 495.989 77.443 495.822 77.334 495.683L75.4046 493.412Z" fill="white"/>
<path d="M78.1151 491.141C77.9208 491.015 77.6876 490.965 77.459 490.999C77.2304 491.033 77.0219 491.149 76.8724 491.325C76.723 491.502 76.6428 491.726 76.6468 491.958C76.6507 492.189 76.7386 492.41 76.894 492.582L79.0675 494.462C79.238 494.606 79.4548 494.684 79.6781 494.682C79.8126 494.687 79.9464 494.661 80.0692 494.606C80.192 494.55 80.3005 494.468 80.3864 494.364C80.4766 494.28 80.5485 494.178 80.5977 494.064C80.6468 493.951 80.6721 493.829 80.6721 493.705C80.6721 493.581 80.6468 493.459 80.5977 493.346C80.5485 493.232 80.4766 493.13 80.3864 493.046L78.1151 491.141Z" fill="white"/>
<path d="M82.8782 490.017L80.4359 488.503C80.2215 488.376 79.966 488.338 79.724 488.398C79.4821 488.457 79.2729 488.609 79.1416 488.82C79.0755 488.926 79.0312 489.043 79.0114 489.166C78.9916 489.289 78.9967 489.414 79.0263 489.535C79.056 489.655 79.1095 489.769 79.1838 489.869C79.2582 489.968 79.3518 490.052 79.4591 490.115L81.9013 491.629C82.0461 491.725 82.2161 491.776 82.3898 491.775C82.5489 491.772 82.7043 491.727 82.8412 491.646C82.9781 491.564 83.0917 491.449 83.1712 491.311C83.3004 491.1 83.342 490.846 83.2873 490.605C83.2326 490.363 83.0858 490.152 82.8782 490.017Z" fill="white"/>
<path d="M84.9305 486.867L82.1952 485.719C81.962 485.622 81.6998 485.621 81.4662 485.718C81.2326 485.814 81.0468 485.999 80.9497 486.232C80.902 486.346 80.8774 486.468 80.8775 486.591C80.8775 486.714 80.9022 486.837 80.9499 486.95C80.9977 487.064 81.0676 487.167 81.1556 487.253C81.2436 487.34 81.348 487.408 81.4625 487.453L84.1978 488.601H84.5641C84.7749 488.59 84.9759 488.509 85.1356 488.371C85.2953 488.233 85.4047 488.046 85.4466 487.839C85.4885 487.632 85.4606 487.417 85.3671 487.228C85.2737 487.039 85.1201 486.886 84.9305 486.794V486.867Z" fill="white"/>
<path d="M86.6389 483.35L83.6106 482.593C83.3709 482.534 83.1179 482.573 82.9072 482.702C82.6965 482.83 82.5454 483.037 82.4871 483.276C82.4288 483.516 82.4681 483.769 82.5963 483.98C82.7246 484.19 82.9313 484.341 83.1709 484.4L86.1749 485.181H86.3947C86.605 485.179 86.809 485.109 86.9762 484.981C87.1434 484.853 87.2649 484.675 87.3227 484.473C87.3751 484.234 87.3332 483.984 87.2059 483.774C87.0785 483.565 86.8755 483.413 86.6389 483.35Z" fill="white"/>
<path d="M117.386 352.495C117.118 340.675 109.156 334.96 97.3599 335.253C85.5639 335.546 77.0649 341.725 77.3336 353.521L86.6873 476.683H104.418L117.386 352.495Z" fill="#FBBEAA"/>
<path d="M179.151 475.73C179.151 473.379 178.217 471.124 176.555 469.461C174.892 467.799 172.637 466.865 170.286 466.865C167.935 466.865 165.68 467.799 164.017 469.461C162.355 471.124 161.421 473.379 161.421 475.73V494.999H179.151V475.73Z" fill="#FBBEAA"/>
<path d="M162.08 479.32C159.882 479.32 159.492 480.273 158.881 481.518C157.839 484.838 156.071 487.883 153.704 490.432C150.181 493.442 146.397 496.131 142.396 498.467V508.676H181.863C181.863 508.676 181.594 500.616 181.399 494.926C181.203 489.236 180.666 482.3 180.69 481.567C180.715 480.834 180.69 479.32 179.371 479.32H162.08Z" fill="#302D3B"/>
<path d="M176.977 495.487C176.982 496.739 176.615 497.965 175.923 499.008C175.231 500.051 174.245 500.866 173.089 501.349C171.934 501.831 170.661 501.96 169.433 501.719C168.204 501.477 167.075 500.877 166.188 499.993C165.301 499.109 164.696 497.982 164.45 496.755C164.204 495.527 164.328 494.254 164.806 493.097C165.284 491.94 166.094 490.95 167.135 490.254C168.176 489.558 169.4 489.186 170.652 489.186C172.325 489.186 173.93 489.849 175.116 491.03C176.301 492.211 176.971 493.814 176.977 495.487Z" fill="#93929C"/>
<path d="M170.676 491.775L172.117 493.9L174.584 494.608L172.996 496.635L173.07 499.2L170.676 498.32L168.258 499.2L168.332 496.635L166.744 494.608L169.235 493.9L170.676 491.775Z" fill="white"/>
<path d="M142.689 498.297C142.689 498.297 137.072 501.252 134.996 502.693C134.019 503.346 133.225 504.239 132.691 505.287C132.157 506.334 131.899 507.501 131.944 508.676H147.354C147.354 508.676 146.939 501.178 142.689 498.297Z" fill="white"/>
<path d="M181.863 508.676V512.901C181.863 513.609 181.252 514 180.177 514H133.58C132.505 514 131.894 513.609 131.894 512.901V508.676H181.863Z" fill="white"/>
<path d="M147.255 495.439C147.122 495.228 146.911 495.079 146.668 495.024C146.426 494.969 146.171 495.013 145.961 495.146C145.75 495.278 145.601 495.489 145.546 495.732C145.491 495.975 145.535 496.23 145.668 496.44L147.304 499.078C147.389 499.215 147.507 499.327 147.649 499.404C147.79 499.481 147.949 499.52 148.11 499.517C148.283 499.518 148.453 499.467 148.598 499.371C148.704 499.306 148.795 499.221 148.867 499.12C148.939 499.02 148.99 498.906 149.017 498.785C149.044 498.665 149.047 498.54 149.026 498.418C149.004 498.296 148.958 498.18 148.891 498.076L147.255 495.439Z" fill="white"/>
<path d="M150.162 493.412C150.001 493.224 149.773 493.107 149.527 493.084C149.281 493.061 149.036 493.135 148.843 493.289C148.654 493.455 148.536 493.687 148.513 493.937C148.49 494.187 148.565 494.436 148.721 494.633L150.65 496.879C150.735 496.986 150.843 497.072 150.965 497.132C151.088 497.191 151.223 497.222 151.359 497.221C151.538 497.223 151.713 497.173 151.865 497.077C152.016 496.982 152.136 496.844 152.211 496.681C152.286 496.519 152.312 496.338 152.287 496.161C152.261 495.984 152.185 495.818 152.067 495.683L150.162 493.412Z" fill="white"/>
<path d="M152.848 491.141C152.654 491.015 152.421 490.965 152.192 490.999C151.963 491.033 151.755 491.149 151.605 491.325C151.456 491.502 151.376 491.726 151.38 491.958C151.384 492.189 151.471 492.41 151.627 492.582L153.825 494.462C153.995 494.606 154.212 494.684 154.435 494.682C154.57 494.685 154.703 494.658 154.825 494.603C154.948 494.548 155.057 494.467 155.144 494.364C155.231 494.278 155.3 494.175 155.347 494.062C155.394 493.949 155.419 493.828 155.419 493.705C155.419 493.582 155.394 493.461 155.347 493.348C155.3 493.235 155.231 493.132 155.144 493.046L152.848 491.141Z" fill="white"/>
<path d="M157.61 490.017L155.167 488.503C154.957 488.414 154.721 488.404 154.503 488.474C154.286 488.545 154.101 488.691 153.982 488.887C153.864 489.082 153.82 489.314 153.858 489.539C153.896 489.765 154.014 489.969 154.19 490.115L156.633 491.629C156.777 491.725 156.947 491.776 157.121 491.775C157.284 491.773 157.443 491.73 157.585 491.649C157.726 491.567 157.844 491.451 157.927 491.311C158.054 491.097 158.092 490.842 158.032 490.6C157.973 490.358 157.821 490.148 157.61 490.017Z" fill="white"/>
<path d="M159.662 486.867L156.926 485.719C156.813 485.671 156.691 485.647 156.567 485.647C156.444 485.647 156.322 485.672 156.208 485.719C156.095 485.767 155.992 485.837 155.905 485.925C155.819 486.013 155.751 486.117 155.705 486.232C155.614 486.459 155.614 486.713 155.705 486.94C155.796 487.168 155.971 487.351 156.194 487.453L158.954 488.601C159.066 488.626 159.183 488.626 159.295 488.601C159.483 488.601 159.667 488.545 159.824 488.441C159.98 488.337 160.102 488.188 160.175 488.015C160.249 487.794 160.237 487.553 160.142 487.341C160.047 487.128 159.876 486.959 159.662 486.867Z" fill="white"/>
<path d="M161.371 483.35L158.367 482.593C158.125 482.533 157.868 482.572 157.653 482.7C157.439 482.828 157.283 483.035 157.22 483.277C157.19 483.395 157.185 483.518 157.204 483.639C157.222 483.76 157.265 483.876 157.328 483.98C157.392 484.085 157.475 484.175 157.574 484.247C157.673 484.32 157.785 484.371 157.903 484.4L160.907 485.182H161.152C161.372 485.165 161.579 485.072 161.738 484.919C161.897 484.766 161.999 484.563 162.025 484.344C162.051 484.125 162 483.903 161.88 483.718C161.761 483.532 161.581 483.393 161.371 483.325V483.35Z" fill="white"/>
<path d="M169.455 352.128C168.255 346.585 164.903 341.744 160.135 338.671C155.368 335.598 149.575 334.544 144.031 335.741C132.479 338.183 126.252 349.564 128.743 361.116L161.42 478.709H179.37L169.455 352.128Z" fill="#FBBEAA"/>
<path d="M118.926 351.726C118.861 348.92 118.243 346.154 117.108 343.587C115.973 341.019 114.344 338.7 112.313 336.762C110.282 334.824 107.89 333.306 105.272 332.292C102.654 331.279 99.8624 330.792 97.0561 330.857C94.2498 330.923 91.4839 331.541 88.9164 332.676C86.3489 333.81 84.03 335.439 82.0921 337.47C80.1543 339.501 78.6354 341.894 77.6222 344.512C76.6091 347.129 76.1214 349.921 76.1872 352.727L70.6423 479.334H118.925L118.926 351.726Z" fill="#93929C"/>
<path d="M169.452 349.113C168.127 343.702 164.743 339.022 160.021 336.067C155.299 333.113 149.61 332.116 144.165 333.29C138.719 334.463 133.947 337.715 130.861 342.353C127.775 346.99 126.62 352.649 127.641 358.125L140.633 478.841C140.633 478.841 171.747 480.698 190.284 478.841L169.452 349.113Z" fill="#93929C"/>
<path d="M14.4703 133.329L84.6113 80.0391C92.7928 74.8128 98.3611 77.5969 102.708 83.1897C104.694 85.8966 105.614 89.2391 105.294 92.5807C104.974 95.9224 103.437 99.0298 100.974 101.311L31.0042 152.867C28.5385 154.949 25.3643 156 22.1431 155.8C18.9219 155.599 15.9021 154.164 13.7132 151.792L13.3958 151.45C12.234 150.211 11.337 148.748 10.7594 147.15C10.1818 145.553 9.9357 143.854 10.0363 142.158C10.1368 140.463 10.5819 138.805 11.3442 137.287C12.1066 135.769 13.1702 134.422 14.4703 133.329Z" fill="#FBBEAA"/>
<path d="M100.974 101.287C101.622 100.729 102.211 100.107 102.733 99.4306C103.194 97.6924 103.253 95.8721 102.906 94.1075C102.559 92.343 101.815 90.6807 100.73 89.2466C97.0423 83.5561 89.3005 79.0869 85.8569 79.9416L82.4378 81.6756L43.7283 110.982C47.1543 119.034 51.7821 126.519 57.4537 133.182L100.974 101.287Z" fill="#F18380"/>
<path d="M90.4004 76.2291L29.702 117.167C29.9573 119.261 23.2285 76.2291 23.2285 76.2291L4.18903 78.7069C4.18903 78.7069 4.57652 122.159 7.41885 145.22C8.55354 154.426 16.1457 157.94 25.2084 155.963C29.6828 154.987 33.8952 153.151 37.6438 150.52C53.7515 139.214 98.9412 107.368 102.636 103.362C109.01 96.4508 109.01 91.2733 105.347 85.5829C101.683 79.8925 93.8439 75.3743 90.4004 76.2291Z" fill="#90A2B7"/>
<path d="M118.925 352.422L131.454 221.249C131.454 206.767 116.532 190.99 94.5273 194.385C74.6475 197.486 68.5907 217.464 70.227 236.391C71.8633 255.318 76.2838 353.35 76.2838 353.35C76.3495 356.156 76.9674 358.922 78.102 361.489C79.2367 364.057 80.8659 366.376 82.8968 368.314C84.9276 370.251 87.3203 371.77 89.9381 372.784C92.5559 373.797 95.3477 374.284 98.154 374.219C100.96 374.153 103.726 373.535 106.294 372.4C108.861 371.266 111.18 369.636 113.118 367.606C115.056 365.575 116.575 363.182 117.588 360.564C118.601 357.947 119.089 355.155 119.023 352.348L118.925 352.422Z" fill="#93929C"/>
<path d="M169.455 349.808L157 218.66C154.362 204.422 136.656 191.796 115.677 199.269C96.75 206.034 94.552 226.793 99.7296 245.085C104.907 263.378 127.644 358.82 127.644 358.82C128.97 364.231 132.353 368.911 137.075 371.866C141.798 374.821 147.486 375.817 152.931 374.643C158.377 373.47 163.15 370.218 166.236 365.581C169.321 360.943 170.476 355.285 169.455 349.808Z" fill="#93929C"/>
<path d="M99.7293 245.086C104.882 263.378 127.644 358.821 127.644 358.821" stroke="#5E5D63" stroke-width="0.75" stroke-miterlimit="10"/>
<path d="M103.392 74.153C103.392 74.153 92.5971 76.0335 90.4968 76.5953C89.2573 76.8861 88.1119 77.4868 87.1679 78.3411C86.2239 79.1954 85.5122 80.2753 85.0994 81.4797C83.7562 84.679 76.8447 105.633 76.2097 107.905C75.7804 110.407 76.1836 112.981 77.3576 115.231C78.3589 117.967 83.5364 130.422 83.5364 130.422L84.3179 170.548L113.477 175.173L141.417 170.548C141.417 170.548 151.186 95.9134 151.675 91.2976C152.163 86.6817 149.868 77.7676 144.348 76.6441C138.829 75.5207 123.687 74.2019 123.687 74.2019L103.392 74.153Z" fill="#FBBEAA"/>
<path d="M82.9074 154.658V170.747C101.943 172.753 132.275 171.332 143.667 170.747C144.203 166.152 144.763 158.353 145.347 153.172C129.841 153.617 104.231 155.271 82.9074 154.658Z" fill="white"/>
<path d="M97.7966 99.5461H96.918V100.683H95.9806V99.5461H95.102V102.652H95.9806V101.422H96.9182V102.652H97.7968V99.5461H97.7966ZM91.9668 99.5461V102.652H92.8158V100.282H93.3719V101.174C93.3719 101.574 93.4015 102.065 93.6353 102.341C93.869 102.649 94.3095 102.742 94.8066 102.649V101.879C94.339 101.972 94.2208 101.786 94.2208 101.171V99.5404H91.9668V99.5461ZM91.2334 99.5461H90.3548L89.8578 101.391L89.3609 99.5461H88.4823L88.0713 102.652H88.8907L89.0948 100.99L89.5652 102.651H90.1508L90.6182 100.99L90.8223 102.651H91.6418L91.2335 99.5459L91.2334 99.5461ZM87.749 99.5461H86.8704V100.807L86.0215 99.5461H85.0544L86.1664 101.083L85.0246 102.652H86.0778L86.8677 101.391V102.652H87.7462V99.5461H87.7488H87.749ZM91.5289 96.2233C96.8 96.2233 100.287 98.2232 100.287 101.174C100.287 104.096 96.8026 106.124 91.5289 106.124C86.2284 106.124 82.7708 104.093 82.7708 101.174C82.7708 98.2232 86.2258 96.2233 91.5289 96.2233ZM91.5289 105.664C96.4803 105.664 99.7874 103.85 99.7874 101.174C99.7874 98.4685 96.4775 96.6831 91.5289 96.6831C86.5507 96.6831 83.2678 98.4657 83.2678 101.174C83.2678 103.85 86.5481 105.664 91.5289 105.664ZM91.5289 97.1146C96.1847 97.1146 99.2903 98.745 99.2903 101.174C99.2903 103.602 96.1847 105.232 91.5289 105.232C86.8732 105.232 83.7675 103.602 83.7675 101.174C83.7648 98.745 86.8704 97.1146 91.5289 97.1146ZM91.5289 105.142C96.1283 105.142 99.2016 103.543 99.2016 101.176C99.2016 98.8098 96.1257 97.2106 91.5289 97.2106C86.9322 97.2106 83.8562 98.8098 83.8562 101.176C83.8535 103.543 86.9296 105.142 91.5289 105.142V105.142Z" fill="white"/>
<path d="M183.668 166.958L152.383 84.6303C148.207 75.8382 142.028 75.2521 135.287 77.6943C132.17 78.9379 129.619 81.2866 128.124 84.2915C126.628 87.2963 126.292 90.7469 127.179 93.9841L159.392 174.846C160.369 177.923 162.499 180.501 165.336 182.04C168.173 183.58 171.496 183.96 174.607 183.101L175.071 182.979C176.713 182.531 178.245 181.754 179.576 180.694C180.907 179.635 182.008 178.315 182.813 176.816C183.617 175.317 184.108 173.67 184.255 171.975C184.402 170.28 184.202 168.573 183.668 166.958Z" fill="#FBBEAA"/>
<path d="M170.701 132.816L152.384 84.6302C151.893 83.5735 151.313 82.5604 150.65 81.6019C148.407 80.1971 145.838 79.396 143.194 79.2762C140.549 79.1564 137.919 79.7219 135.557 80.918C132.815 82.2524 130.611 84.4833 129.309 87.2414C128.008 89.9995 127.688 93.1193 128.401 96.0843C128.401 96.3774 128.572 96.9391 128.719 97.6962L147.622 145.198C155.878 142.22 163.654 138.048 170.701 132.816Z" fill="#F18380"/>
<path d="M150.674 80.2345L185.445 170.477C156.886 161.338 160.233 135.878 144.701 138.491C144.701 138.491 126.789 96.4509 126.105 92.6899C125.392 89.7249 125.712 86.6051 127.013 83.8471C128.315 81.089 130.519 78.858 133.261 77.5236C140.905 73.616 148.525 77.1573 150.674 80.2345Z" fill="#90A2B7"/>
<path d="M120.951 128.297L159.832 176.727C164.448 183.077 171.286 185.91 178.1 180.195C179.36 179.124 180.39 177.808 181.126 176.328C181.863 174.847 182.291 173.232 182.384 171.581C182.478 169.93 182.235 168.277 181.671 166.722C181.106 165.168 180.232 163.744 179.101 162.538L132.259 116.135C128.18 111.373 123.271 110.616 119.706 113.693C115.383 117.527 115.896 122.021 120.951 128.297Z" fill="#FBBEAA"/>
<path d="M134.606 118.675C130.284 114.303 122.2 104.876 119.465 102.581C116.76 100.543 113.805 98.8602 110.672 97.574C108.296 96.7779 105.839 96.2455 103.346 95.9865C101.612 95.7667 100.904 96.2796 100.904 97.3298C100.947 97.9554 101.146 98.5602 101.483 99.0891C101.82 99.618 102.284 100.054 102.833 100.358H99.6336C98.5346 100.358 97.8264 101.237 98.3392 102.654C98.805 103.59 99.4709 104.412 100.29 105.062C101.108 105.712 102.06 106.174 103.077 106.415C103.077 106.415 98.7544 106.83 97.6554 107.05C96.5564 107.27 96.2145 107.685 96.2145 108.735C96.224 109.46 96.4256 110.17 96.7988 110.792C97.1721 111.415 97.7036 111.927 98.3392 112.276C99.8951 112.908 101.547 113.271 103.224 113.351C103.224 113.351 97.8752 114.694 96.8006 115.085C95.726 115.476 95.6039 116.184 96.1656 117.112C96.4857 117.766 96.9479 118.34 97.5183 118.792C98.0888 119.244 98.7531 119.563 99.4626 119.725C101.49 120.262 102.857 119.383 103.59 119.505C105.164 120.012 106.706 120.616 108.206 121.313C110.459 123.555 113.213 125.23 116.241 126.197C118.495 127.143 120.562 128.483 122.346 130.153C123.177 130.933 124.157 131.539 125.226 131.934C126.295 132.328 127.432 132.505 128.571 132.453C129.709 132.4 130.826 132.12 131.854 131.629C132.882 131.137 133.802 130.445 134.558 129.592C138.465 125.44 137.806 121.972 134.606 118.675Z" fill="#FBBEAA"/>
<path d="M103.368 100.383C103.361 100.423 103.362 100.464 103.372 100.504C103.382 100.544 103.401 100.581 103.426 100.613C103.451 100.645 103.483 100.672 103.519 100.691C103.556 100.71 103.595 100.722 103.636 100.724L105.639 100.92H106.616C106.958 100.92 107.275 101.042 107.617 101.066C107.978 101.175 108.33 101.314 108.667 101.481L109.791 101.946C111.305 102.556 112.819 103.118 113.942 103.533C115.066 103.948 115.847 104.192 115.847 104.192C115.909 104.219 115.979 104.22 116.042 104.198C116.105 104.175 116.158 104.13 116.189 104.07C116.235 104.011 116.26 103.938 116.26 103.863C116.26 103.788 116.235 103.715 116.189 103.655L114.358 102.703L112.453 101.799C111.769 101.482 111.012 101.164 110.255 100.871L109.107 100.431C108.738 100.265 108.353 100.134 107.959 100.041L106.787 99.9185H105.785H104.296H103.734C103.672 99.8699 103.594 99.8478 103.516 99.8569C103.438 99.8661 103.367 99.9058 103.319 99.9673C103.27 100.029 103.248 100.107 103.257 100.185C103.266 100.263 103.306 100.334 103.368 100.383ZM103.832 106.268H104.271C104.637 106.236 105.005 106.236 105.37 106.268L106.127 106.39C106.406 106.425 106.684 106.474 106.958 106.537L108.618 107.074C109.742 107.441 110.841 107.905 111.671 108.247C111.671 108.247 111.94 108.247 111.915 108.369H112.208L112.648 108.491H112.917H113.063C113.137 108.508 113.201 108.554 113.242 108.617C113.283 108.681 113.298 108.758 113.283 108.833C113.272 108.891 113.243 108.944 113.198 108.984C113.154 109.024 113.098 109.048 113.039 109.052H111.793H111.403C110.548 108.833 109.4 108.491 108.276 108.1L106.64 107.489L105.883 107.294L105.224 107.099C104.886 106.999 104.544 106.917 104.198 106.854L103.783 106.732C103.746 106.721 103.711 106.703 103.682 106.678C103.652 106.654 103.627 106.624 103.609 106.59C103.591 106.556 103.58 106.518 103.576 106.48C103.572 106.442 103.576 106.403 103.587 106.366C103.616 106.33 103.654 106.302 103.697 106.285C103.739 106.268 103.786 106.262 103.832 106.268ZM103.832 113.204H104.735C104.979 113.204 105.297 113.204 105.614 113.375L106.616 113.693C107.246 113.915 107.858 114.184 108.447 114.499C108.718 114.626 108.98 114.773 109.229 114.938C109.279 114.996 109.306 115.07 109.306 115.146C109.306 115.222 109.279 115.296 109.229 115.353C109.159 115.428 109.062 115.472 108.96 115.476L108.057 115.329C107.544 115.207 106.884 115.012 106.225 114.792L105.273 114.401L104.442 114.083C104.166 113.961 103.897 113.822 103.636 113.668C103.567 113.627 103.516 113.562 103.493 113.485C103.471 113.408 103.478 113.325 103.514 113.253C103.586 113.207 103.674 113.189 103.758 113.204H103.832Z" fill="#F18380"/>
<path d="M157 218.026C156.463 211.261 149.21 185.324 141.419 170.548C141.419 170.548 123.872 169.647 112.928 169.682C101.509 169.719 84.3193 170.548 84.3193 170.548C79.2394 182.051 73.4514 207.182 71.7662 212.604C70.7489 215.794 70.6253 219.201 71.409 222.457C72.1926 225.712 73.8535 228.69 76.2111 231.067C81.9992 237.637 96.9212 245.159 100.365 245.159C115.18 243.043 129.702 239.224 143.641 233.778C151.505 230.481 157.513 224.815 157 218.026Z" fill="#93929C"/>
<path d="M133.796 115.644L138.746 120.213L125.419 136.206L121.611 131.637L133.796 115.644Z" fill="#6B6B6B"/>
<path d="M99.6665 77.3594C110.697 86.8138 121.661 81.2987 125.272 76.3745L141.03 83.2684L137.09 156.147L84.8939 158.116L86.8636 88.1926L99.6665 77.3594Z" fill="white"/>
<path d="M86.7089 76.9236C88.8165 75.5448 100.733 74.385 100.733 74.385V178.266C99.2204 179.74 98.9109 179.705 96.738 179.459L96.6366 179.448C91.939 178.268 87.4066 176.508 83.1443 174.208C83.1443 174.208 76.2537 134.144 75.6019 108.444C75.325 97.5252 80.1047 90.6123 81.0053 87.7304C82.5063 82.9274 84.6014 78.3024 86.7089 76.9236Z" fill="#023783"/>
<path d="M121.797 179.422C120.84 179.219 119.933 178.826 119.13 178.266L124.488 73.3213C124.488 73.3213 141.43 73.2907 145.546 75.1225C147.257 75.8442 148.928 76.8912 149.975 78.4245C151.023 79.9579 150.599 88.2754 150.649 90.132C150.905 93.5986 150.586 170.387 150.645 171.057C150.704 171.727 150.133 172.101 149.522 172.455C148.912 172.81 129.609 178.443 124.704 179.448C123.744 179.634 122.755 179.625 121.797 179.422Z" fill="#023783"/>
<circle cx="1.80114" cy="1.80114" r="1.80114" transform="matrix(-1 0 0 1 99.1179 109.344)" fill="#90A2B7"/>
<path d="M133.248 118.162C129.175 114.043 121.558 105.16 118.98 102.997C116.432 101.077 113.648 99.4912 110.696 98.2792C108.457 97.5291 106.141 97.0275 103.792 96.7834C102.158 96.5763 101.491 97.0596 101.491 98.0492C101.532 98.6387 101.72 99.2085 102.038 99.7069C102.355 100.205 102.792 100.616 103.309 100.903H100.294C99.2589 100.903 98.5915 101.731 99.0748 103.066C99.5137 103.948 100.141 104.722 100.913 105.335C101.684 105.947 102.581 106.382 103.539 106.61C103.539 106.61 99.466 107.001 98.4304 107.208C97.3949 107.415 97.0727 107.806 97.0727 108.796C97.0816 109.479 97.2716 110.148 97.6233 110.735C97.975 111.321 98.4759 111.803 99.0748 112.133C100.541 112.728 102.097 113.07 103.677 113.145C103.677 113.145 98.6375 114.411 97.625 114.779C96.6124 115.147 96.4974 115.815 97.0266 116.689C97.3283 117.305 97.7638 117.846 98.3013 118.272C98.8388 118.698 99.4648 118.998 100.133 119.151C102.043 119.658 103.332 118.829 104.022 118.944C105.506 119.422 106.958 119.991 108.372 120.647C110.494 122.761 113.09 124.338 115.943 125.25C118.067 126.141 120.015 127.403 121.696 128.978C122.479 129.713 123.402 130.283 124.409 130.655C125.416 131.027 126.488 131.194 127.561 131.144C128.634 131.095 129.686 130.831 130.655 130.368C131.624 129.905 132.49 129.252 133.202 128.448C136.884 124.536 136.263 121.269 133.248 118.162Z" fill="#FBBEAA"/>
<path d="M103.815 100.926C103.809 100.964 103.81 101.003 103.82 101.04C103.829 101.077 103.846 101.112 103.87 101.143C103.894 101.173 103.924 101.198 103.958 101.216C103.992 101.234 104.03 101.245 104.068 101.248L105.955 101.432H106.876C107.198 101.432 107.497 101.547 107.819 101.57C108.16 101.672 108.491 101.803 108.809 101.961L109.868 102.398C111.294 102.974 112.721 103.503 113.78 103.894C114.838 104.285 115.575 104.515 115.575 104.515C115.633 104.54 115.698 104.542 115.758 104.521C115.818 104.499 115.867 104.456 115.897 104.4C115.94 104.344 115.963 104.275 115.963 104.205C115.963 104.134 115.94 104.065 115.897 104.009L114.171 103.112L112.376 102.26C111.731 101.961 111.018 101.662 110.305 101.386L109.223 100.972C108.875 100.814 108.513 100.691 108.142 100.603L107.037 100.488H106.093H104.69H104.16C104.102 100.443 104.029 100.422 103.955 100.43C103.882 100.439 103.815 100.476 103.769 100.534C103.723 100.592 103.703 100.666 103.711 100.739C103.72 100.813 103.757 100.88 103.815 100.926ZM104.252 106.472H104.667C105.011 106.441 105.358 106.441 105.702 106.472L106.416 106.587C106.679 106.619 106.94 106.666 107.198 106.725L108.763 107.231C109.821 107.576 110.857 108.013 111.639 108.336C111.639 108.336 111.893 108.336 111.87 108.451H112.146L112.56 108.566H112.813H112.951C113.021 108.582 113.081 108.625 113.12 108.685C113.158 108.745 113.172 108.818 113.158 108.888C113.148 108.943 113.12 108.993 113.079 109.031C113.037 109.068 112.984 109.091 112.928 109.095H111.754H111.386C110.581 108.888 109.499 108.566 108.441 108.197L106.899 107.622L106.186 107.438L105.564 107.254C105.246 107.16 104.924 107.083 104.598 107.024L104.206 106.909C104.172 106.898 104.139 106.881 104.111 106.858C104.083 106.835 104.06 106.806 104.043 106.774C104.026 106.742 104.015 106.707 104.012 106.671C104.008 106.635 104.012 106.598 104.022 106.564C104.05 106.53 104.085 106.504 104.125 106.487C104.166 106.471 104.209 106.466 104.252 106.472ZM104.252 113.007H105.104C105.334 113.007 105.633 113.007 105.932 113.168L106.876 113.467C107.47 113.676 108.047 113.93 108.602 114.227C108.857 114.347 109.103 114.485 109.338 114.641C109.385 114.695 109.411 114.765 109.411 114.837C109.411 114.908 109.385 114.978 109.338 115.032C109.272 115.102 109.181 115.143 109.085 115.147L108.234 115.009C107.75 114.894 107.129 114.71 106.508 114.503L105.61 114.135L104.828 113.835C104.567 113.72 104.314 113.589 104.068 113.444C104.003 113.406 103.955 113.344 103.934 113.271C103.912 113.199 103.919 113.121 103.953 113.053C104.021 113.009 104.104 112.993 104.183 113.007H104.252Z" fill="#F18380"/>
<path d="M121.948 131.739L159.551 177.751C164.262 184.03 175.272 187.481 181.998 181.663C183.242 180.574 184.252 179.242 184.966 177.751C185.68 176.259 186.083 174.638 186.152 172.985C186.221 171.333 185.953 169.684 185.365 168.138C184.777 166.592 182.163 161.385 181.014 160.196L133.896 115.944L121.948 131.739Z" fill="#90A2B7"/>
<path d="M134.044 115.823L139.265 120.514L125.84 136.505L120.729 131.007L134.044 115.823Z" fill="#023783"/>
<circle cx="1.80114" cy="1.80114" r="1.80114" transform="matrix(-1 0 0 1 99.1177 121.952)" fill="#90A2B7"/>
<circle cx="1.80114" cy="1.80114" r="1.80114" transform="matrix(-1 0 0 1 99.1177 133.96)" fill="#90A2B7"/>
<path d="M85.427 97.9577L85.9619 97.9865L85.9247 98.6786L86.4955 98.7093L86.5327 98.0172L87.0676 98.046L86.9659 99.9368L86.431 99.908L86.4713 99.1593L85.9004 99.1285L85.8601 99.8773L85.3252 99.8486L85.4269 97.9577L85.427 97.9577ZM88.9765 98.1487L88.8747 100.04L88.3579 100.012L88.4355 98.5691L88.0969 98.5509L88.0677 99.0936C88.0546 99.3374 88.0204 99.6353 87.869 99.7959C87.7167 99.9754 87.4455 100.018 87.1459 99.9447L87.1711 99.4759C87.4527 99.5479 87.5308 99.4384 87.5509 99.0641L87.6043 98.0714L88.9766 98.1453L88.9765 98.1487ZM89.423 98.1727L89.9579 98.2015L90.2001 99.3409L90.5631 98.2341L91.098 98.2629L91.2465 100.167L90.7476 100.14L90.6777 99.1221L90.337 100.118L89.9804 100.099L89.7502 99.0722L89.5715 100.077L89.0727 100.05L89.4229 98.1726L89.423 98.1727ZM91.5445 98.2869L92.0794 98.3157L92.0381 99.0833L92.5963 98.3435L93.1851 98.3751L92.4576 99.2746L93.1015 100.267L92.4603 100.232L92.0206 99.4389L91.9793 100.207L91.4444 100.178L91.5462 98.287L91.5446 98.2869L91.5445 98.2869ZM89.3519 96.14C86.1427 95.9673 83.954 97.0707 83.8574 98.867C83.7617 100.646 85.8167 101.995 89.0276 102.168C92.2548 102.342 94.4265 101.218 94.5221 99.4408C94.6188 97.6445 92.5807 96.3137 89.3519 96.14ZM89.0427 101.888C86.0281 101.726 84.0739 100.513 84.1616 98.8834C84.2502 97.2365 86.3239 96.2578 89.3369 96.4199C92.3678 96.583 94.3082 97.7759 94.2195 99.4246C94.1318 101.054 92.0752 102.051 89.0427 101.888ZM89.3227 96.6827C86.4881 96.5302 84.5438 97.4211 84.4643 98.8997C84.3847 100.378 86.2222 101.473 89.0568 101.625C91.8914 101.778 93.8357 100.887 93.9153 99.4082C93.9965 97.9297 92.159 96.8353 89.3227 96.6827ZM89.0598 101.57C86.2595 101.42 84.4406 100.345 84.5182 98.9043C84.5957 97.4634 86.5209 96.5905 89.3196 96.7411C92.1183 96.8917 93.9387 97.9661 93.8612 99.407C93.7853 100.848 91.8601 101.721 89.0598 101.57L89.0598 101.57Z" fill="white"/>
<path d="M137.05 21.4907C138.509 27.0753 139.375 32.7984 139.633 38.5648C139.939 43.3643 141.527 47.9939 144.231 51.971C146.814 55.3032 150.198 58.7645 148.958 69.0968H82.8051C82.8051 69.0968 80.2221 63.9306 83.3218 55.0707C86.9729 44.1328 89.6609 32.8967 91.3551 21.4907H137.05Z" fill="#BC664A"/>
<path d="M124.392 51.9711V73.9014C124.392 73.9014 122.662 81.4698 111.064 81.4698C108.761 81.664 106.472 80.9692 104.665 79.528C102.859 78.0869 101.673 76.0088 101.351 73.7206V51.9711H124.392Z" fill="#FBBEAA"/>
<path d="M101.351 70.3368C108.636 73.7723 119.252 70.6984 124.392 61.1669V51.9711H101.351V70.3368Z" fill="#F18380"/>
<path d="M86.9639 35.2067C86.8536 40.4599 87.0866 45.7148 87.6614 50.9376C88.6171 58.3769 91.2518 66.6427 104.451 66.6427C117.651 66.6427 124.341 60.7017 127.182 50.9376C128.887 45.0224 132.349 36.3174 130.928 26.2176C129.507 16.1178 123.437 9.55678 109.101 9.16932C94.7648 8.78185 85.3882 15.2395 86.9639 35.2067Z" fill="#FBBEAA"/>
<path d="M114.861 39.7015C114.769 40.082 114.573 40.429 114.294 40.7032C114.014 40.9774 113.664 41.1679 113.282 41.2529C112.9 41.3379 112.502 41.314 112.132 41.184C111.763 41.054 111.438 40.8231 111.194 40.5176C110.949 40.212 110.795 39.8439 110.749 39.4553C110.704 39.0666 110.768 38.6729 110.935 38.3189C111.101 37.9648 111.364 37.6647 111.693 37.4525C112.022 37.2403 112.403 37.1246 112.795 37.1185C113.102 37.1472 113.401 37.2374 113.672 37.384C113.944 37.5305 114.184 37.7303 114.376 37.9713C114.569 38.2124 114.712 38.4898 114.795 38.7871C114.878 39.0844 114.901 39.3954 114.861 39.7015Z" fill="#403D4F"/>
<path d="M95.7207 39.7015C95.6289 40.082 95.4322 40.429 95.153 40.7032C94.8738 40.9774 94.5233 41.1679 94.1413 41.2529C93.7593 41.3379 93.3611 41.314 92.992 41.184C92.6228 41.054 92.2975 40.8231 92.053 40.5176C91.8086 40.212 91.6547 39.8439 91.6089 39.4553C91.5631 39.0666 91.6273 38.6729 91.7941 38.3189C91.9609 37.9648 92.2236 37.6647 92.5524 37.4525C92.8812 37.2403 93.263 37.1246 93.6543 37.1185C93.9603 37.1506 94.2569 37.2431 94.5269 37.3907C94.7969 37.5383 95.035 37.738 95.2272 37.9783C95.4194 38.2186 95.562 38.4946 95.6467 38.7904C95.7314 39.0862 95.7566 39.3959 95.7207 39.7015Z" fill="#403D4F"/>
<path d="M108.636 32.3916C108.636 32.3916 108.636 32.3916 108.843 32.185C109.051 31.9824 109.286 31.8087 109.54 31.6684C109.866 31.4819 110.213 31.3345 110.573 31.2292C111.414 30.9985 112.287 30.9112 113.157 30.9709C113.522 30.9898 113.885 31.0417 114.241 31.1259L115.249 31.4101C115.415 31.4636 115.554 31.5799 115.636 31.7343C115.718 31.8886 115.737 32.0688 115.688 32.2366C115.645 32.3687 115.563 32.4843 115.452 32.5676C115.341 32.6508 115.207 32.6976 115.068 32.7016H113.131C112.795 32.6762 112.459 32.6762 112.123 32.7016C111.791 32.7322 111.463 32.7927 111.142 32.8824C110.806 32.8824 110.573 33.0632 110.315 33.0891C110.132 33.1663 109.941 33.2268 109.747 33.2699H109.514C109.353 33.34 109.171 33.3441 109.007 33.2813C108.843 33.2185 108.709 33.0939 108.636 32.9341C108.598 32.8443 108.578 32.7476 108.578 32.6499C108.578 32.5523 108.598 32.4556 108.636 32.3658V32.3916Z" fill="#403D4F"/>
<path d="M96.0567 33.3729C96.0567 33.3729 96.0567 33.3729 95.9017 33.3729L95.5143 33.218H95.2301C95.128 33.1956 95.0222 33.1956 94.9201 33.218C94.6919 33.1425 94.4589 33.0821 94.2227 33.0371C93.9824 33.0103 93.7398 33.0103 93.4995 33.0371H92.0271C91.9401 33.0372 91.8539 33.0197 91.7738 32.9856C91.6937 32.9516 91.6214 32.9017 91.5611 32.839C91.5008 32.7762 91.4538 32.702 91.4229 32.6206C91.392 32.5392 91.3779 32.4525 91.3813 32.3655C91.3863 32.2374 91.4278 32.1133 91.5011 32.0081C91.5743 31.9028 91.6762 31.8207 91.7946 31.7714L92.5954 31.4873C92.8811 31.4018 93.1759 31.3498 93.4736 31.3323C93.8248 31.2811 94.1815 31.2811 94.5327 31.3323C95.207 31.4168 95.8478 31.675 96.3925 32.0814L96.8833 32.5722C97.0125 32.7272 97.0124 32.7788 97.0124 32.8047V33.0371C97.0351 33.2145 96.9888 33.3939 96.8831 33.5381C96.7773 33.6823 96.6202 33.7804 96.4441 33.8121C96.2672 33.716 96.1299 33.5605 96.0567 33.3729Z" fill="#403D4F"/>
<path d="M101.352 48.51C100.916 48.5075 100.486 48.417 100.086 48.2439C99.6867 48.0708 99.3263 47.8186 99.0268 47.5026C98.9173 47.3855 98.8333 47.2471 98.78 47.0959C98.7266 46.9448 98.7051 46.7842 98.7168 46.6244C98.7168 46.3403 99.156 42.7756 99.3109 41.4582C99.3406 41.3308 99.4134 41.2175 99.5169 41.1375C99.6205 41.0575 99.7483 41.0157 99.8791 41.0191C100.012 41.0384 100.132 41.1084 100.214 41.2145C100.296 41.3205 100.333 41.4542 100.318 41.5874C100.318 41.7682 99.7501 46.4436 99.6984 46.7535C99.9099 46.9876 100.169 47.1734 100.459 47.2982C100.749 47.423 101.062 47.4839 101.377 47.4768C101.51 47.4834 101.635 47.5408 101.726 47.637C101.817 47.7331 101.868 47.8608 101.868 47.9934C101.862 48.1284 101.805 48.2562 101.71 48.3517C101.614 48.4473 101.487 48.5037 101.352 48.51Z" fill="#F18380"/>
<path d="M98.9753 53.5985C98.0196 53.831 97.6579 55.2775 98.252 56.9565C98.8381 58.1126 99.7968 59.0372 100.973 59.5809C102.15 60.1246 103.475 60.2557 104.736 59.9529C105.423 59.9202 106.098 59.7503 106.719 59.4531C107.341 59.156 107.896 58.7376 108.354 58.2225C108.811 57.7075 109.161 57.1062 109.382 56.4541C109.604 55.802 109.692 55.1121 109.643 54.4251C109.643 53.3144 108.868 52.6686 107.422 52.6686C104.585 52.7444 101.76 53.0554 98.9753 53.5985Z" fill="#73102A"/>
<path d="M109.643 54.5543V54.3218C107.753 53.8849 105.767 54.1732 104.078 55.1298C102.39 56.0864 101.122 57.6416 100.525 59.488C101.854 60.1392 103.349 60.3733 104.813 60.1596C105.501 60.1173 106.174 59.9378 106.792 59.6314C107.41 59.325 107.96 58.898 108.41 58.3756C108.86 57.8532 109.201 57.2459 109.413 56.5896C109.625 55.9333 109.703 55.2413 109.643 54.5543Z" fill="#D65155"/>
<path d="M99.8019 55.1484C103.073 55.1991 106.33 54.7015 109.437 53.6761C109.242 53.3241 108.945 53.0395 108.586 52.8596C108.226 52.6798 107.82 52.6132 107.422 52.6687C104.586 52.7444 101.76 53.0554 98.9753 53.5986C98.7083 53.6906 98.4746 53.8602 98.3044 54.0856C98.1341 54.3111 98.035 54.5822 98.0196 54.8643C98.5913 55.0672 99.1954 55.1635 99.8019 55.1484Z" fill="white"/>
<path d="M114.163 25.0558C114.163 25.0558 116.746 37.9712 127.699 42.9824C127.699 42.9824 138.857 36.4988 137.566 24.1259C135.964 8.88578 114.318 -8.26584 92.7753 7.95587C90.683 7.62007 88.41 3.20301 89.0816 0C88.201 0.553306 87.508 1.35948 87.0931 2.31307C86.6782 3.26666 86.5607 4.32328 86.7561 5.34471C86.9515 6.36614 87.4505 7.30484 88.188 8.03802C88.9255 8.7712 89.8672 9.26473 90.8897 9.45406C87.3733 9.94395 84.182 11.7733 81.9824 14.5602C79.7827 17.3471 78.7447 20.876 79.0851 24.4101C79.1953 26.6382 80.123 28.7475 81.6909 30.3344C83.2588 31.9214 85.3568 32.8746 87.5834 33.0117H91.3805C94.3181 31.6654 96.6934 29.3357 98.0965 26.4249C97.7312 28.619 96.9696 30.7284 95.8492 32.6501C95.6426 33.0375 96.1076 33.7091 99.2847 33.0375C102.932 31.7829 105.981 29.2133 107.835 25.8307C107.14 28.0487 106.214 30.1873 105.071 32.2109C105.071 32.5984 106.75 33.1667 109.23 32.0301C110.611 31.4295 111.801 30.4619 112.671 29.2323C113.541 28.0027 114.057 26.5582 114.163 25.0558Z" fill="#BC664A"/>
<path d="M97.2185 35.207C98.1484 35.207 98.51 36.9119 98.51 38.5392C98.415 40.7435 97.757 42.8867 96.5986 44.7644C96.1246 45.331 95.5099 45.763 94.8162 46.0169C94.1225 46.2708 93.3742 46.3377 92.6465 46.2109C91.7603 46.348 90.8548 46.2895 89.9936 46.0397C89.1324 45.7898 88.3363 45.3545 87.6611 44.7644C86.2392 42.9836 85.3924 40.8125 85.233 38.5392C85.233 36.9119 85.7238 35.207 86.8862 35.207H97.2185Z" stroke="#403D4F" stroke-width="0.75" stroke-miterlimit="10"/>
<path d="M105.02 35.207C103.78 35.207 103.289 36.9119 103.289 38.5392C103.458 40.838 104.364 43.021 105.872 44.7644C106.586 45.3503 107.414 45.7815 108.303 46.0305C109.192 46.2795 110.124 46.3409 111.038 46.2109C113.36 46.5095 115.714 45.9986 117.703 44.7644C119.517 43.1639 120.668 40.944 120.931 38.5392C120.931 36.9119 120.311 35.207 118.736 35.207H105.02Z" stroke="#403D4F" stroke-width="0.75" stroke-miterlimit="10"/>
<path d="M98.3031 36.7569C99.0454 36.1913 99.9529 35.8849 100.886 35.8849C101.819 35.8849 102.727 36.1913 103.469 36.7569" stroke="#403D4F" stroke-width="0.75" stroke-miterlimit="10"/>
<path d="M118.787 35.207H121.938C122.61 35.207 123.385 35.362 123.385 36.2661V37.7126C123.385 38.0742 121.086 38.7975 120.801 39.5983" stroke="#403D4F" stroke-width="0.75" stroke-miterlimit="10"/>
<path d="M130.256 38.9787L123.385 36.2665" stroke="#403D4F" stroke-width="0.75" stroke-miterlimit="10"/>
<path d="M126.718 44.8938C126.925 41.3808 127.855 37.2737 132.143 37.8936C137.154 38.6685 137.644 52.2297 126.976 50.6024L126.718 44.8938Z" fill="#FBBEAA"/>
<path d="M132.503 45.7979C132.413 45.7992 132.325 45.7757 132.248 45.7302C132.17 45.6846 132.107 45.6187 132.064 45.5396C131.951 45.316 131.782 45.1251 131.574 44.9849C131.366 44.8448 131.126 44.7601 130.876 44.7388C130.578 44.7421 130.286 44.8223 130.028 44.9716C129.77 45.121 129.555 45.3344 129.404 45.5912C129.342 45.6796 129.253 45.7452 129.15 45.7779C129.047 45.8105 128.937 45.8085 128.835 45.7721C128.726 45.7418 128.631 45.6725 128.569 45.5774C128.508 45.4822 128.483 45.3677 128.499 45.2555C128.544 44.169 128.882 43.1149 129.478 42.2053C130.074 41.2956 130.905 40.5644 131.883 40.0893C131.949 40.0503 132.023 40.0263 132.099 40.0191C132.175 40.012 132.252 40.0218 132.324 40.0479C132.395 40.074 132.461 40.1157 132.514 40.1701C132.568 40.2244 132.609 40.2901 132.635 40.3622C132.66 40.4344 132.669 40.5112 132.661 40.5873C132.653 40.6633 132.628 40.7367 132.589 40.802C132.549 40.8673 132.495 40.923 132.431 40.965C132.367 41.0071 132.295 41.0344 132.219 41.045C131.639 41.3272 131.122 41.7247 130.7 42.2132C130.278 42.7017 129.96 43.271 129.765 43.8864C130.126 43.7086 130.526 43.6285 130.928 43.6539C131.345 43.6935 131.747 43.834 132.098 44.0636C132.449 44.2931 132.739 44.6047 132.942 44.9713C132.999 45.0887 133.009 45.2231 132.971 45.3477C132.932 45.4722 132.849 45.5777 132.736 45.6429L132.503 45.7979Z" fill="#F18380"/>
</svg>
