<svg width="194" height="514" viewBox="0 0 194 514" fill="none" xmlns="http://www.w3.org/2000/svg">
<path d="M170.732 70.3329C170.834 68.0986 170.236 65.8882 169.021 64.0103C167.15 61.8414 165.749 59.3089 164.905 56.572C164.256 54.0314 163.219 51.6061 161.831 49.3815C160.839 48.0178 159.351 46.9021 159.351 45.8607C159.351 44.8194 161.335 42.811 164.161 43.3813C165.372 43.7584 166.484 44.3986 167.419 45.2558C168.353 46.1131 169.087 47.1663 169.566 48.3402C169.837 47.625 169.996 46.8723 170.038 46.1087L170.657 30.9096C170.667 30.5156 170.755 30.1275 170.917 29.7681C171.079 29.4088 171.311 29.0855 171.6 28.8174C171.889 28.5494 172.229 28.3418 172.599 28.2072C172.969 28.0725 173.363 28.0135 173.757 28.0335C174.383 28.0602 174.986 28.2827 175.48 28.6696C175.973 29.0565 176.333 29.5884 176.509 30.1906V29.4963C176.604 28.7575 176.976 28.082 177.548 27.6056C178.121 27.1292 178.853 26.8871 179.597 26.9279C180.341 26.9687 181.042 27.2894 181.559 27.8256C182.076 28.3618 182.371 29.0738 182.385 29.8187V31.9262C182.634 31.2765 183.107 30.7376 183.72 30.4077C184.332 30.0779 185.042 29.9792 185.722 30.1294C186.401 30.2797 187.003 30.6689 187.42 31.2263C187.836 31.7837 188.038 32.4721 187.989 33.1659V34.5048C188.256 34.0358 188.653 33.6547 189.133 33.4082C189.613 33.1616 190.155 33.0601 190.691 33.1163C191.426 33.2096 192.096 33.5853 192.559 34.1638C193.022 34.7423 193.241 35.4781 193.171 36.2156L191.956 49.0344C191.16 56.2615 189.665 63.3943 187.493 70.3329C187.467 71.4914 187.198 72.6316 186.705 73.6802C186.212 74.7288 185.504 75.6626 184.629 76.4215C183.753 77.1804 182.728 77.7477 181.62 78.0869C180.512 78.4261 179.345 78.5298 178.195 78.3911C177.154 78.4258 176.117 78.2363 175.156 77.8353C174.194 77.4342 173.331 76.8311 172.623 76.0668C171.915 75.3025 171.38 74.3949 171.053 73.4056C170.727 72.4162 170.617 71.3683 170.732 70.3329Z" fill="#FBBEAA"/>
<path d="M87.1743 474.979C87.1743 472.592 88.1226 470.303 89.8105 468.615C91.4984 466.927 93.7877 465.979 96.1747 465.979C98.5618 465.979 100.851 466.927 102.539 468.615C104.227 470.303 105.175 472.592 105.175 474.979V494.542H87.1743V474.979Z" fill="#FBBEAA"/>
<path d="M104.531 478.624C106.738 478.624 107.135 479.591 107.779 480.856C108.825 484.225 110.613 487.318 113.011 489.906C116.592 492.955 120.433 495.685 124.491 498.063V508.427H84.4229C84.4229 508.427 84.6956 500.245 84.894 494.468C85.0923 488.691 85.6626 481.649 85.613 480.905C85.5634 480.161 85.613 478.624 86.9767 478.624H104.531Z" fill="#302D3B"/>
<path d="M89.4058 495.038C89.4009 496.31 89.774 497.555 90.4778 498.615C91.1815 499.675 92.1842 500.502 93.3586 500.991C94.5331 501.48 95.8263 501.609 97.0743 501.362C98.3223 501.115 99.4688 500.503 100.368 499.603C101.268 498.704 101.88 497.557 102.127 496.309C102.374 495.061 102.245 493.768 101.756 492.594C101.267 491.419 100.44 490.416 99.3798 489.713C98.32 489.009 97.075 488.636 95.8028 488.641C94.1083 488.647 92.4849 489.323 91.2867 490.522C90.0884 491.72 89.4123 493.343 89.4058 495.038Z" fill="#93929C"/>
<path d="M95.8036 491.269L94.3407 493.426L91.8364 494.145L93.4233 496.203L93.3489 498.807L95.8036 497.914L98.2582 498.807L98.159 496.203L99.7707 494.145L97.2664 493.426L95.8036 491.269Z" fill="white"/>
<path d="M124.217 497.89C124.217 497.89 129.895 500.89 132.027 502.353C133.014 503.021 133.816 503.929 134.358 504.991C134.9 506.054 135.164 507.236 135.127 508.427H119.556C119.556 508.427 119.878 500.815 124.217 497.89Z" fill="white"/>
<path d="M84.4229 508.427V512.717C84.4229 513.436 85.0675 513.832 86.1585 513.832H133.417C134.483 513.832 135.128 513.436 135.128 512.717V508.427H84.4229Z" fill="white"/>
<path d="M119.556 494.988C119.693 494.778 119.907 494.629 120.153 494.573C120.398 494.518 120.655 494.56 120.87 494.691C120.977 494.757 121.07 494.843 121.143 494.945C121.216 495.047 121.268 495.163 121.295 495.285C121.323 495.408 121.326 495.535 121.304 495.658C121.282 495.782 121.236 495.9 121.167 496.005L119.506 498.683C119.426 498.822 119.31 498.936 119.171 499.015C119.031 499.093 118.873 499.133 118.713 499.129C118.529 499.126 118.35 499.075 118.192 498.98C118.085 498.915 117.993 498.828 117.92 498.726C117.847 498.624 117.795 498.508 117.767 498.386C117.739 498.264 117.736 498.137 117.758 498.013C117.78 497.89 117.826 497.772 117.895 497.666L119.556 494.988Z" fill="white"/>
<path d="M116.631 492.93C116.712 492.836 116.811 492.758 116.922 492.702C117.034 492.646 117.155 492.613 117.279 492.603C117.404 492.594 117.529 492.61 117.647 492.649C117.765 492.688 117.875 492.75 117.969 492.831C118.064 492.913 118.141 493.012 118.197 493.123C118.253 493.234 118.287 493.356 118.296 493.48C118.306 493.604 118.29 493.729 118.251 493.848C118.212 493.966 118.15 494.076 118.069 494.17L116.135 496.451C116.045 496.556 115.935 496.64 115.812 496.7C115.688 496.76 115.553 496.793 115.416 496.798C115.236 496.795 115.061 496.742 114.91 496.644C114.759 496.547 114.638 496.409 114.561 496.247C114.483 496.085 114.453 495.904 114.473 495.726C114.492 495.547 114.561 495.378 114.672 495.236L116.631 492.93Z" fill="white"/>
<path d="M113.878 490.625C114.075 490.498 114.312 490.447 114.544 490.481C114.776 490.516 114.988 490.633 115.14 490.812C115.292 490.991 115.373 491.219 115.369 491.454C115.365 491.689 115.276 491.914 115.118 492.088L112.911 493.997C112.738 494.143 112.518 494.223 112.291 494.22C112.155 494.225 112.019 494.198 111.894 494.142C111.77 494.087 111.66 494.003 111.572 493.898C111.481 493.812 111.408 493.708 111.358 493.593C111.308 493.478 111.282 493.354 111.282 493.228C111.282 493.103 111.308 492.979 111.358 492.863C111.408 492.748 111.481 492.645 111.572 492.559L113.878 490.625Z" fill="white"/>
<path d="M109.043 489.484L111.522 487.947C111.74 487.818 111.999 487.78 112.245 487.84C112.491 487.9 112.703 488.054 112.836 488.269C112.903 488.376 112.948 488.495 112.968 488.62C112.988 488.745 112.983 488.872 112.953 488.994C112.923 489.117 112.869 489.232 112.793 489.333C112.718 489.435 112.623 489.52 112.514 489.583L110.034 491.12C109.888 491.218 109.715 491.27 109.539 491.269C109.377 491.265 109.219 491.22 109.08 491.137C108.941 491.055 108.826 490.938 108.745 490.798C108.614 490.583 108.572 490.326 108.627 490.081C108.683 489.835 108.832 489.621 109.043 489.484Z" fill="white"/>
<path d="M106.959 486.286L109.736 485.121C109.973 485.022 110.239 485.021 110.476 485.119C110.713 485.217 110.902 485.405 111.001 485.641C111.049 485.757 111.074 485.881 111.074 486.006C111.074 486.131 111.049 486.255 111 486.37C110.952 486.486 110.881 486.59 110.792 486.678C110.702 486.766 110.596 486.835 110.48 486.881L107.703 488.046H107.331C107.117 488.035 106.913 487.953 106.751 487.813C106.589 487.673 106.478 487.483 106.435 487.273C106.393 487.063 106.421 486.845 106.516 486.653C106.611 486.461 106.767 486.306 106.959 486.212V486.286Z" fill="white"/>
<path d="M105.225 482.715L108.299 481.946C108.543 481.887 108.8 481.927 109.013 482.057C109.227 482.187 109.381 482.397 109.44 482.641C109.499 482.884 109.459 483.141 109.329 483.355C109.199 483.569 108.989 483.722 108.746 483.781L105.696 484.575H105.473C105.259 484.572 105.052 484.501 104.882 484.371C104.713 484.242 104.589 484.061 104.531 483.856C104.478 483.613 104.52 483.359 104.649 483.146C104.779 482.934 104.985 482.779 105.225 482.715Z" fill="white"/>
<path d="M74.0088 349.866C74.2815 337.866 82.3645 332.064 94.3402 332.361C106.316 332.659 114.945 338.932 114.672 350.908L105.176 475.946H87.1747L74.0088 349.866Z" fill="#FBBEAA"/>
<path d="M11.3027 474.979C11.3027 472.592 12.251 470.303 13.9389 468.615C15.6268 466.927 17.9161 465.979 20.3032 465.979C22.6902 465.979 24.9795 466.927 26.6674 468.615C28.3553 470.303 29.3036 472.592 29.3036 474.979V494.542H11.3027V474.979Z" fill="#FBBEAA"/>
<path d="M28.6339 478.624C30.8654 478.624 31.2621 479.591 31.8819 480.856C32.9394 484.226 34.7352 487.317 37.1384 489.906C40.7143 492.961 44.5562 495.691 48.6182 498.063V508.427H8.55029C8.55029 508.427 8.82304 500.245 9.02139 494.468C9.21975 488.691 9.76525 481.649 9.74046 480.905C9.71566 480.161 9.74044 478.624 11.0793 478.624H28.6339Z" fill="#302D3B"/>
<path d="M13.5098 495.038C13.5049 496.309 13.8774 497.553 14.58 498.612C15.2827 499.671 16.2839 500.498 17.4569 500.988C18.6298 501.478 19.9218 501.609 21.1692 501.364C22.4165 501.119 23.5631 500.509 24.4636 499.612C25.3642 498.715 25.9783 497.571 26.2281 496.324C26.4779 495.078 26.3522 493.786 25.8669 492.611C25.3816 491.436 24.5585 490.431 23.5019 489.725C22.4453 489.018 21.2028 488.641 19.9316 488.641C18.2327 488.641 16.6031 489.314 15.3995 490.513C14.1959 491.712 13.5164 493.339 13.5098 495.038Z" fill="#93929C"/>
<path d="M19.9066 491.269L18.4437 493.426L15.9395 494.145L17.5511 496.203L17.4767 498.807L19.9066 497.914L22.3613 498.807L22.2869 496.203L23.8985 494.145L21.3695 493.426L19.9066 491.269Z" fill="white"/>
<path d="M48.3202 497.89C48.3202 497.89 54.023 500.89 56.1305 502.353C57.1227 503.016 57.9284 503.923 58.471 504.987C59.0135 506.05 59.2747 507.234 59.2298 508.427H43.5845C43.5845 508.427 44.006 500.815 48.3202 497.89Z" fill="white"/>
<path d="M8.55029 508.427V512.717C8.55029 513.436 9.17016 513.832 10.2611 513.832H57.569C58.66 513.832 59.2799 513.436 59.2799 512.717V508.427H8.55029Z" fill="white"/>
<path d="M43.6848 494.988C43.8196 494.775 44.0338 494.623 44.2802 494.567C44.5267 494.512 44.7852 494.556 44.9989 494.691C45.2126 494.826 45.364 495.04 45.4198 495.286C45.4756 495.533 45.4313 495.791 45.2964 496.005L43.6352 498.683C43.5492 498.822 43.4286 498.936 43.2851 499.014C43.1417 499.092 42.9804 499.132 42.817 499.129C42.6406 499.13 42.4681 499.078 42.3211 498.98C42.2142 498.915 42.1215 498.828 42.0485 498.726C41.9755 498.624 41.9235 498.508 41.8958 498.386C41.8681 498.263 41.8651 498.137 41.8871 498.013C41.909 497.89 41.9554 497.772 42.0236 497.666L43.6848 494.988Z" fill="white"/>
<path d="M40.7336 492.93C40.897 492.74 41.1281 492.621 41.3779 492.598C41.6278 492.574 41.8768 492.649 42.0724 492.806C42.2644 492.974 42.3844 493.209 42.4075 493.463C42.4306 493.717 42.355 493.97 42.1964 494.17L40.2376 496.451C40.1517 496.559 40.0424 496.647 39.9179 496.707C39.7933 496.767 39.6569 496.798 39.5186 496.798C39.3369 496.8 39.1584 496.749 39.0049 496.652C38.8514 496.555 38.7292 496.415 38.6532 496.25C38.5772 496.085 38.5506 495.901 38.5766 495.721C38.6025 495.542 38.68 495.373 38.7995 495.236L40.7336 492.93Z" fill="white"/>
<path d="M38.0069 490.625C38.2041 490.498 38.4409 490.447 38.673 490.481C38.9051 490.516 39.1167 490.633 39.2685 490.812C39.4202 490.991 39.5016 491.219 39.4976 491.454C39.4936 491.689 39.4044 491.914 39.2466 492.088L37.0151 493.997C36.8421 494.143 36.622 494.223 36.3952 494.22C36.259 494.223 36.1237 494.196 35.9994 494.14C35.875 494.084 35.7646 494.001 35.6762 493.898C35.5877 493.81 35.5175 493.706 35.4696 493.591C35.4217 493.476 35.397 493.353 35.397 493.228C35.397 493.104 35.4217 492.98 35.4696 492.866C35.5175 492.751 35.5877 492.646 35.6762 492.559L38.0069 490.625Z" fill="white"/>
<path d="M33.173 489.484L35.6524 487.947C35.8663 487.857 36.1055 487.846 36.3264 487.918C36.5472 487.989 36.735 488.138 36.8553 488.337C36.9756 488.535 37.0205 488.77 36.9818 488.999C36.943 489.228 36.8232 489.435 36.6442 489.583L34.1647 491.12C34.0178 491.218 33.8452 491.27 33.6688 491.269C33.5036 491.267 33.3416 491.223 33.1983 491.14C33.0551 491.058 32.9354 490.94 32.8506 490.798C32.7218 490.58 32.6834 490.321 32.7437 490.075C32.8039 489.83 32.958 489.617 33.173 489.484Z" fill="white"/>
<path d="M170.434 71.9944L160.516 134.253C158.88 142.064 161.409 149.13 170.434 150.37C172.1 150.587 173.793 150.463 175.409 150.006C177.026 149.549 178.533 148.768 179.838 147.71C181.144 146.653 182.221 145.341 183.004 143.855C183.787 142.368 184.259 140.738 184.393 139.064L187.418 72.1184C188.212 65.7958 185.459 61.5807 180.649 61.0601C174.748 60.4154 171.624 63.9114 170.434 71.9944Z" fill="#FBBEAA"/>
<path d="M31.0892 486.286L33.8662 485.121C33.9817 485.072 34.1056 485.047 34.2308 485.047C34.356 485.047 34.4799 485.072 34.5953 485.121C34.7107 485.169 34.8153 485.24 34.903 485.33C34.9907 485.419 35.0597 485.525 35.1059 485.641C35.1985 485.872 35.1987 486.13 35.1063 486.36C35.014 486.591 34.8362 486.778 34.6101 486.881L31.8083 488.046C31.694 488.072 31.5754 488.072 31.4611 488.046C31.2702 488.046 31.0836 487.99 30.9247 487.884C30.7659 487.778 30.642 487.628 30.5685 487.451C30.4933 487.227 30.505 486.983 30.6015 486.767C30.6979 486.551 30.8721 486.379 31.0892 486.286Z" fill="white"/>
<path d="M29.3535 482.715L32.4033 481.947C32.6498 481.886 32.9101 481.925 33.1281 482.055C33.3461 482.185 33.5043 482.395 33.5686 482.641C33.5982 482.761 33.6036 482.887 33.5847 483.009C33.5658 483.132 33.5229 483.249 33.4584 483.355C33.3939 483.461 33.3091 483.554 33.2089 483.627C33.1086 483.7 32.9949 483.752 32.8743 483.781L29.8246 484.575H29.5767C29.3533 484.558 29.1428 484.464 28.9811 484.308C28.8195 484.153 28.7167 483.947 28.6903 483.724C28.664 483.502 28.7157 483.277 28.8367 483.089C28.9576 482.9 29.1403 482.759 29.3535 482.69V482.715Z" fill="white"/>
<path d="M21.1471 349.494C22.3651 343.866 25.7682 338.952 30.6083 335.832C35.4484 332.712 41.3294 331.642 46.9582 332.857C58.686 335.337 65.0086 346.891 62.4796 358.619L29.3045 478.004H11.0806L21.1471 349.494Z" fill="#FBBEAA"/>
<path d="M72.4453 349.086C72.5121 346.237 73.1393 343.429 74.2913 340.822C75.4432 338.216 77.0973 335.861 79.1591 333.894C81.2209 331.927 83.65 330.385 86.3077 329.356C88.9654 328.327 91.7997 327.832 94.6488 327.899C97.4978 327.966 100.306 328.593 102.912 329.745C105.519 330.897 107.873 332.551 109.841 334.613C111.808 336.675 113.35 339.104 114.379 341.761C115.407 344.419 115.902 347.253 115.836 350.102L121.465 478.638H72.4463L72.4453 349.086Z" fill="#93929C"/>
<path d="M21.1493 346.433C22.4949 340.94 25.93 336.188 30.7241 333.189C35.5183 330.189 41.2934 329.177 46.8218 330.369C52.3502 331.56 57.1959 334.861 60.3286 339.569C63.4613 344.278 64.6339 350.022 63.5974 355.582L50.4072 478.138C50.4072 478.138 18.819 480.023 0 478.138L21.1493 346.433Z" fill="#93929C"/>
<path d="M178.493 127.36L107.283 73.2587C98.9768 67.9527 93.3237 70.7793 88.9102 76.4572C86.8947 79.2054 85.9602 82.5989 86.2848 85.9914C86.6095 89.384 88.1705 92.5387 90.6706 94.8548L161.707 147.196C164.21 149.31 167.433 150.377 170.703 150.174C173.973 149.97 177.039 148.513 179.261 146.105L179.584 145.758C180.763 144.5 181.674 143.014 182.26 141.392C182.847 139.771 183.096 138.046 182.994 136.325C182.892 134.603 182.44 132.92 181.667 131.379C180.893 129.838 179.813 128.47 178.493 127.36Z" fill="#FBBEAA"/>
<path d="M90.6708 94.8302C90.0133 94.2643 89.4151 93.6329 88.8856 92.9458C88.4174 91.1811 88.3571 89.333 88.7094 87.5416C89.0616 85.7501 89.8172 84.0625 90.9188 82.6065C94.6627 76.8294 102.523 72.292 106.019 73.1598L109.49 74.9202L148.789 104.674C145.311 112.848 140.613 120.447 134.855 127.212L90.6708 94.8302Z" fill="#F18380"/>
<path d="M101.406 69.3907L163.029 110.952C162.77 113.078 169.601 69.3907 169.601 69.3907L188.931 71.9063C188.931 71.9063 188.538 116.02 185.652 139.433C184.5 148.779 176.792 152.347 167.591 150.34C163.049 149.349 158.772 147.484 154.966 144.813C138.613 133.335 92.7349 101.005 88.9839 96.9375C82.5126 89.9206 82.5125 84.6642 86.2317 78.887C89.9509 73.1099 97.9099 68.5229 101.406 69.3907Z" fill="#90A2B7"/>
<path d="M72.4466 349.792L59.7271 216.621C59.7271 201.918 74.8765 185.9 97.2163 189.347C117.399 192.496 123.548 212.778 121.887 231.993C120.226 251.209 115.738 350.734 115.738 350.734C115.671 353.583 115.044 356.391 113.892 358.998C112.74 361.604 111.086 363.959 109.024 365.926C106.962 367.893 104.533 369.435 101.875 370.464C99.2177 371.493 96.3834 371.988 93.5344 371.921C90.6853 371.854 87.8773 371.227 85.2707 370.075C82.664 368.923 80.3098 367.269 78.3424 365.207C76.375 363.145 74.833 360.716 73.8044 358.059C72.7758 355.401 72.2807 352.567 72.3475 349.718L72.4466 349.792Z" fill="#93929C"/>
<path d="M21.1464 347.139L33.7916 213.992C36.4694 199.537 54.4454 186.718 75.7439 194.306C94.9596 201.174 97.1911 222.249 91.9346 240.82C86.6782 259.391 63.5945 356.288 63.5945 356.288C62.2489 361.781 58.8138 366.532 54.0197 369.532C49.2255 372.532 43.4504 373.544 37.922 372.352C32.3936 371.161 27.548 367.86 24.4153 363.151C21.2825 358.443 20.1098 352.698 21.1464 347.139Z" fill="#93929C"/>
<path d="M91.9348 240.82C86.7032 259.391 63.5947 356.288 63.5947 356.288" stroke="#5E5D63" stroke-width="0.75" stroke-miterlimit="10"/>
<path d="M88.2165 67.283C88.2165 67.283 99.1757 69.1921 101.308 69.7624C102.566 70.0577 103.729 70.6676 104.688 71.5349C105.646 72.4022 106.369 73.4986 106.788 74.7213C108.151 77.9694 115.168 99.2431 115.813 101.549C116.249 104.089 115.839 106.702 114.647 108.987C113.631 111.764 108.374 124.41 108.374 124.41L107.581 165.147L77.9777 169.842L49.6114 165.147C49.6114 165.147 39.6937 89.3749 39.1978 84.6888C38.7019 80.0026 41.0326 70.9526 46.6361 69.812C52.2397 68.6715 67.6123 67.3326 67.6123 67.3326L88.2165 67.283Z" fill="#FBBEAA"/>
<path d="M109.013 149.015V165.349C89.6872 167.385 58.8931 165.943 47.3273 165.349C46.7836 160.683 46.2152 152.766 45.6221 147.506C61.3645 147.958 87.3642 149.637 109.013 149.015Z" fill="white"/>
<path d="M93.8971 93.063H94.7891V94.217H95.7408V93.063H96.6328V96.2159H95.7408V94.9673H94.7889V96.2159H93.897V93.063H93.8971ZM99.8157 93.063V96.2159H98.9538V93.8104H98.3893V94.7153C98.3893 95.1219 98.3592 95.6202 98.1218 95.9008C97.8846 96.2129 97.4374 96.3075 96.9327 96.2129V95.4311C97.4074 95.5258 97.5274 95.3367 97.5274 94.7125V93.0572H99.8157V93.063ZM100.56 93.063H101.452L101.957 94.9358L102.461 93.063H103.353L103.771 96.2159H102.939L102.731 94.5292L102.254 96.2158H101.659L101.185 94.5292L100.978 96.2158H100.146L100.56 93.0629L100.56 93.063ZM104.098 93.063H104.99V94.3431L105.852 93.063H106.834L105.704 94.6236L106.864 96.2159H105.795L104.993 94.9358V96.2159H104.101V93.063H104.098H104.098ZM100.26 89.6896C94.9089 89.6896 91.3687 91.72 91.3687 94.7153C91.3687 97.6819 94.9063 99.741 100.26 99.741C105.642 99.741 109.152 97.6791 109.152 94.7153C109.152 91.72 105.644 89.6896 100.26 89.6896ZM100.26 99.2742C95.2335 99.2742 91.876 97.4329 91.876 94.7153C91.876 91.969 95.2363 90.1564 100.26 90.1564C105.314 90.1564 108.647 91.9662 108.647 94.7153C108.647 97.4329 105.317 99.2742 100.26 99.2742ZM100.26 90.5945C95.5336 90.5945 92.3806 92.2497 92.3806 94.7153C92.3806 97.1808 95.5336 98.8361 100.26 98.8361C104.987 98.8361 108.14 97.1808 108.14 94.7153C108.143 92.2497 104.99 90.5945 100.26 90.5945ZM100.26 98.7444C95.5908 98.7444 92.4707 97.1208 92.4707 94.7181C92.4707 92.3155 95.5935 90.6919 100.26 90.6919C104.927 90.6919 108.05 92.3155 108.05 94.7181C108.053 97.1208 104.93 98.7446 100.26 98.7446V98.7444Z" fill="white"/>
<path d="M6.71716 161.502L38.4789 77.9199C42.7188 68.9939 48.9918 68.3988 55.8351 70.8783C59.0003 72.1408 61.5894 74.5252 63.1079 77.5759C64.6263 80.6266 64.9677 84.1298 64.0668 87.4162L31.3629 169.511C30.3716 172.634 28.2088 175.252 25.3285 176.814C22.4483 178.377 19.0746 178.763 15.9159 177.891L15.4448 177.767C13.7786 177.313 12.2224 176.523 10.8712 175.448C9.51995 174.372 8.40194 173.032 7.58532 171.511C6.7687 169.989 6.27058 168.316 6.12132 166.596C5.97206 164.875 6.17479 163.142 6.71716 161.502Z" fill="#FBBEAA"/>
<path d="M19.8818 126.839L38.4777 77.9198C38.9765 76.847 39.5653 75.8185 40.2381 74.8453C42.5159 73.4192 45.1237 72.6058 47.8084 72.4842C50.4931 72.3625 53.1637 72.9367 55.5611 74.1511C58.3451 75.5058 60.583 77.7707 61.9041 80.5708C63.2253 83.3709 63.5505 86.5383 62.8259 89.5484C62.8259 89.846 62.6524 90.4162 62.5036 91.1849L43.3126 139.41C34.9301 136.387 27.036 132.152 19.8818 126.839Z" fill="#F18380"/>
<path d="M40.2132 73.4572L4.9126 165.075C33.9071 155.797 30.5087 129.948 46.278 132.601C46.278 132.601 64.4622 89.9207 65.1564 86.1023C65.881 83.0922 65.5558 79.9249 64.2347 77.1248C62.9135 74.3246 60.6757 72.0597 57.8917 70.705C50.131 66.7378 42.3951 70.3331 40.2132 73.4572Z" fill="#90A2B7"/>
<path d="M66.6438 7.90006C65.3297 4.72636 58.7095 3.31309 54.9904 5.0487C51.2712 6.78432 47.552 11.3465 47.0065 23.7437C46.461 36.141 47.4776 45.6125 45.2461 51.8607C47.3088 51.5999 49.2491 50.7376 50.8249 49.3812C50.8249 51.0177 51.0728 54.9848 51.0728 54.9848C52.273 54.8873 53.42 54.4477 54.378 53.7182C55.336 52.9887 56.0648 51.9999 56.478 50.8689C57.1508 52.2998 57.5783 53.8337 57.7425 55.4063C59.9245 54.2658 66.6438 52.2822 66.6438 40.5296V7.90006Z" fill="#1D1B24"/>
<path d="M109.861 49.0841C109.192 40.0837 106.539 25.207 106.539 25.207L100.191 24.8599C100.191 24.8599 98.5052 51.6627 98.0341 57.5143C97.563 63.3658 95.877 64.9526 95.877 64.9526C95.877 64.9526 103.935 63.8368 105.2 56.2745C105.385 57.7552 105.484 59.2454 105.497 60.7376C105.497 60.7376 110.555 58.0845 109.861 49.0841Z" fill="#302D3B"/>
<path d="M66.918 46.8032V67.8537C66.918 67.8537 68.5792 75.0938 79.7119 75.0938C81.9221 75.2802 84.1198 74.6132 85.8536 73.2299C87.5873 71.8465 88.7256 69.8518 89.0347 67.6554V46.828L66.918 46.8032Z" fill="#FBBEAA"/>
<path d="M89.0347 64.3329C82.0426 67.6553 71.8521 64.6801 66.918 55.5557V46.8032H89.0347V64.3329Z" fill="#F18380"/>
<path d="M102.844 30.6617C102.949 35.6966 102.717 40.7329 102.15 45.7368C101.257 52.9024 98.728 60.8367 86.058 60.8367C73.388 60.8367 66.9663 55.1091 64.2389 45.7368C62.6024 40.0836 59.28 31.7031 60.6437 22.0332C62.0074 12.3634 67.8341 6.04082 81.595 5.6689C95.356 5.29698 104.282 11.446 102.844 30.6617Z" fill="#FBBEAA"/>
<path d="M76.0398 34.9508C76.1237 35.3234 76.3108 35.6648 76.5798 35.936C76.8487 36.2072 77.1885 36.3971 77.5604 36.4841C77.9323 36.571 78.3212 36.5515 78.6825 36.4277C79.0437 36.3039 79.3629 36.0808 79.6032 35.7841C79.8436 35.4873 79.9956 35.1288 80.0417 34.7497C80.0877 34.3706 80.0261 33.9861 79.8638 33.6404C79.7015 33.2947 79.4452 33.0017 79.124 32.7949C78.8029 32.5882 78.4301 32.476 78.0482 32.4714C77.7522 32.4991 77.4648 32.5857 77.2028 32.726C76.9408 32.8663 76.7095 33.0576 76.5224 33.2886C76.3353 33.5195 76.1962 33.7855 76.1134 34.071C76.0305 34.3564 76.0055 34.6556 76.0398 34.9508Z" fill="#403D4F"/>
<path d="M94.4898 34.9508C94.5739 35.3245 94.7617 35.6667 95.0318 35.9383C95.3019 36.2098 95.6431 36.3996 96.0163 36.4857C96.3895 36.5717 96.7795 36.5506 97.1412 36.4248C97.5029 36.299 97.8217 36.0737 98.061 35.7746C98.3002 35.4756 98.4501 35.115 98.4934 34.7345C98.5367 34.354 98.4718 33.969 98.3059 33.6238C98.1399 33.2786 97.8799 32.9873 97.5557 32.7834C97.2315 32.5795 96.8563 32.4714 96.4734 32.4714C96.1796 32.5022 95.8949 32.591 95.6357 32.7327C95.3766 32.8743 95.1481 33.066 94.9636 33.2967C94.7791 33.5273 94.6422 33.7923 94.5609 34.0763C94.4795 34.3602 94.4554 34.6575 94.4898 34.9508Z" fill="#403D4F"/>
<path d="M82.0418 27.9345L81.8435 27.7114C81.6357 27.5336 81.4115 27.3758 81.174 27.2403C80.8663 27.0511 80.532 26.909 80.1822 26.8188C79.793 26.6722 79.3829 26.5885 78.9673 26.5708C78.5721 26.5213 78.1723 26.5213 77.7771 26.5708C77.4307 26.5407 77.0822 26.5407 76.7358 26.5708L75.7688 26.8435C75.635 26.8971 75.523 26.994 75.4507 27.1187C75.3784 27.2433 75.35 27.3887 75.37 27.5314C75.39 27.6742 75.4572 27.806 75.561 27.9061C75.6647 28.0061 75.799 28.0685 75.9424 28.0833H76.9341C77.2222 28.0459 77.5139 28.0459 77.802 28.0833C78.1238 28.0587 78.4471 28.0587 78.7689 28.0833C79.0858 28.1247 79.4003 28.1826 79.7111 28.2568C80.0086 28.2568 80.2566 28.4552 80.5046 28.48C80.6795 28.5575 80.8624 28.6157 81.05 28.6536H81.2484C81.4067 28.722 81.5853 28.7266 81.747 28.6666C81.9087 28.6065 82.0409 28.4864 82.1162 28.3312C82.153 28.245 82.172 28.1523 82.172 28.0585C82.172 27.9648 82.153 27.872 82.1162 27.7857L82.0418 27.9345Z" fill="#403D4F"/>
<path d="M94.0902 28.8762H94.2637L94.6357 28.7274H94.9084C95.0007 28.6713 95.101 28.6295 95.2059 28.6035C95.4166 28.5312 95.632 28.4732 95.8506 28.4299C96.089 28.395 96.3312 28.395 96.5696 28.4299C96.7756 28.4061 96.9835 28.4061 97.1895 28.4299H97.9829C98.1495 28.4235 98.3072 28.3527 98.4228 28.2325C98.5384 28.1123 98.6028 27.952 98.6027 27.7852C98.6046 27.6606 98.5674 27.5385 98.4963 27.4362C98.4251 27.3338 98.3236 27.2564 98.2061 27.2149L97.4374 26.9422C97.1661 26.8482 96.8815 26.7979 96.5944 26.7935C96.2583 26.732 95.9139 26.732 95.5778 26.7935C94.9278 26.864 94.31 27.1128 93.7926 27.5125C93.6174 27.6503 93.4593 27.8084 93.3215 27.9836C93.1976 28.1324 93.1975 28.1819 93.1975 28.1819V28.4299C93.1763 28.5973 93.2215 28.7663 93.3234 28.9008C93.4254 29.0352 93.5761 29.1243 93.743 29.149C93.8173 29.1317 93.887 29.0983 93.9469 29.0512C94.0069 29.0041 94.0558 28.9443 94.0902 28.8762Z" fill="#403D4F"/>
<path d="M89.0337 43.381C89.4525 43.3845 89.8675 43.3003 90.2518 43.1337C90.6362 42.9672 90.9813 42.722 91.2652 42.414C91.3696 42.3062 91.45 42.1776 91.5013 42.0366C91.5525 41.8957 91.5735 41.7455 91.5627 41.5958C91.5627 41.3231 91.1412 37.9014 90.9925 36.6369C90.974 36.5096 90.9067 36.3945 90.8049 36.3159C90.7031 36.2372 90.5748 36.2012 90.447 36.2154C90.3244 36.2337 90.213 36.2974 90.135 36.3938C90.057 36.4902 90.0179 36.6123 90.0255 36.7361C90.0255 36.9345 90.5709 41.4223 90.6205 41.695C90.4175 41.9197 90.1685 42.098 89.8904 42.2178C89.6123 42.3376 89.3116 42.3961 89.0089 42.3893C88.9481 42.3892 88.888 42.4015 88.8322 42.4254C88.7764 42.4494 88.726 42.4845 88.6842 42.5286C88.6424 42.5727 88.6101 42.6249 88.5891 42.6819C88.5682 42.739 88.5592 42.7997 88.5626 42.8604C88.5511 42.927 88.555 42.9954 88.5739 43.0603C88.5927 43.1253 88.6262 43.1851 88.6715 43.2352C88.7169 43.2854 88.7731 43.3246 88.8358 43.3498C88.8986 43.3751 88.9662 43.3858 89.0337 43.381Z" fill="#F18380"/>
<path d="M72.7432 1.57777C86.4794 -2.71168 96.2484 2.66877 99.3478 6.73507C100.605 6.3221 101.716 5.55486 102.547 4.5256C103.378 3.49634 103.895 2.24887 104.034 0.933167C104.751 1.32665 105.324 1.93864 105.669 2.68016C106.014 3.42168 106.114 4.25402 105.954 5.0561C105.793 5.85818 105.381 6.58813 104.777 7.13981C104.173 7.6915 103.409 8.03615 102.596 8.12356C107.555 9.76 110.456 14.7437 110.307 20.9175C110.098 23.1747 109.302 25.3377 107.997 27.191C106.692 29.0443 104.923 30.5231 102.869 31.4799C101.425 27.1515 99.2536 23.1014 96.4468 19.5042C95.6746 22.6771 94.0375 25.5736 91.7175 27.8716C89.3976 30.1697 86.4857 31.7793 83.3057 32.5213C83.614 30.6112 84.1039 28.7348 84.7686 26.9178C81.9881 29.24 78.6877 30.8563 75.1483 31.6288C74.9012 29.5239 74.9597 27.3943 75.3219 25.3061C72.8424 29.7691 68.6769 36.5381 62.5279 38.4225H58.66C56.6262 34.2534 55.6632 29.6432 55.8582 25.0086C55.9078 16.4297 59.0071 5.86722 72.7432 1.57777Z" fill="#302D3B"/>
<path d="M64.7348 39.9353C64.5365 36.5632 63.6439 32.4969 59.528 33.216C54.7178 33.935 54.2468 46.9521 64.4869 45.3901L64.7348 39.9353Z" fill="#FBBEAA"/>
<path d="M59.1309 40.803C59.2171 40.8042 59.302 40.7817 59.3763 40.738C59.4506 40.6943 59.5116 40.631 59.5524 40.555C59.6573 40.3373 59.8182 40.1515 60.0187 40.0164C60.2191 39.8814 60.4518 39.802 60.6929 39.7864C60.9762 39.7893 61.2541 39.8635 61.5012 40.0022C61.7482 40.1409 61.9563 40.3395 62.1062 40.5798C62.162 40.6691 62.2459 40.7371 62.3448 40.773C62.4437 40.809 62.5517 40.8108 62.6517 40.7782C62.7516 40.7411 62.8368 40.6729 62.8949 40.5836C62.953 40.4942 62.9807 40.3886 62.974 40.2823C62.9369 39.2348 62.6118 38.2178 62.0344 37.343C61.457 36.4682 60.6497 35.7694 59.7012 35.3234C59.5828 35.2841 59.4537 35.2934 59.3421 35.3491C59.2306 35.4049 59.1457 35.5027 59.1061 35.6209C59.0668 35.7393 59.0761 35.8684 59.1318 35.98C59.1876 36.0915 59.2854 36.1764 59.4036 36.216C59.9609 36.4868 60.4571 36.8684 60.8621 37.3373C61.267 37.8062 61.5723 38.3527 61.7591 38.9434C61.4056 38.7961 61.0264 38.7203 60.6434 38.7203C60.2426 38.7582 59.857 38.8931 59.52 39.1134C59.1831 39.3337 58.9049 39.6329 58.7094 39.9848C58.6793 40.04 58.6605 40.1006 58.6542 40.1631C58.6479 40.2257 58.6542 40.2888 58.6727 40.3489C58.6912 40.409 58.7215 40.4648 58.7619 40.513C58.8022 40.5611 58.8518 40.6007 58.9077 40.6294L59.1309 40.803Z" fill="#F18380"/>
<path d="M59.7504 48.3649C60.9405 39.4141 64.3622 24.6861 64.3622 24.6861H70.7343C70.7343 24.6861 70.9823 51.5386 71.1558 57.4149C71.3294 63.2912 72.8914 65.0516 72.8914 65.0516C72.8914 65.0516 64.9076 63.5143 64.0398 55.8776C63.7737 57.353 63.5998 58.8436 63.5191 60.3406C63.5191 60.3406 58.585 57.3157 59.7504 48.3649Z" fill="#302D3B"/>
<path d="M70.3894 122.252L30.9165 171.42C26.2304 177.866 19.2879 180.743 12.3702 174.941C11.0908 173.854 10.0455 172.518 9.29774 171.014C8.55002 169.511 8.11543 167.872 8.02037 166.195C7.92531 164.519 8.17175 162.841 8.74473 161.263C9.31771 159.685 10.2053 158.239 11.3537 157.014L58.9095 109.905C63.0502 105.07 68.0339 104.301 71.6539 107.425C76.0425 111.318 75.5218 115.88 70.3894 122.252Z" fill="#FBBEAA"/>
<path d="M56.5262 112.483C60.9148 108.045 69.1218 98.4744 71.8988 96.1437C74.6446 94.0748 77.6445 92.3666 80.8248 91.0608C83.2377 90.2525 85.7322 89.7121 88.2632 89.4492C90.0236 89.226 90.7426 89.7467 90.7426 90.8129C90.6984 91.448 90.496 92.062 90.1539 92.599C89.8118 93.136 89.3408 93.5789 88.7838 93.8874H92.0319C93.1477 93.8874 93.8667 94.78 93.346 96.2181C92.8731 97.1682 92.1971 98.0027 91.3659 98.6626C90.5347 99.3224 89.5685 99.7915 88.5359 100.036C88.5359 100.036 92.9245 100.458 94.0403 100.681C95.156 100.904 95.5031 101.326 95.5031 102.392C95.4935 103.128 95.2888 103.849 94.9099 104.481C94.531 105.112 93.9913 105.632 93.346 105.987C91.7665 106.628 90.0898 106.997 88.3871 107.078C88.3871 107.078 93.8171 108.442 94.9081 108.838C95.9991 109.235 96.123 109.954 95.5528 110.896C95.2278 111.56 94.7586 112.143 94.1794 112.602C93.6003 113.061 92.9259 113.385 92.2055 113.549C90.1476 114.095 88.7591 113.202 88.0152 113.326C86.417 113.841 84.852 114.454 83.3291 115.161C81.0421 117.438 78.2458 119.138 75.1717 120.12C72.8834 121.08 70.7844 122.44 68.9731 124.137C68.1293 124.929 67.1353 125.543 66.0499 125.944C64.9645 126.345 63.8098 126.524 62.6539 126.471C61.4981 126.418 60.3646 126.133 59.3206 125.634C58.2766 125.136 57.3433 124.432 56.5758 123.566C52.6087 119.351 53.2781 115.831 56.5262 112.483Z" fill="#FBBEAA"/>
<path d="M88.2412 93.9122C88.2483 93.9532 88.2466 93.9952 88.2364 94.0355C88.2262 94.0758 88.2077 94.1136 88.182 94.1463C88.1563 94.179 88.1239 94.206 88.0872 94.2254C88.0504 94.2449 88.01 94.2564 87.9685 94.2593L85.9354 94.4577H84.9436C84.5965 94.4577 84.2741 94.5816 83.927 94.6064C83.5603 94.7164 83.2036 94.8574 82.8609 95.0279L81.7203 95.499C80.183 96.1189 78.6457 96.6891 77.5052 97.1106C76.3647 97.5321 75.5712 97.7801 75.5712 97.7801C75.5084 97.8066 75.4379 97.8086 75.3736 97.7856C75.3093 97.7627 75.256 97.7164 75.2241 97.6561C75.1779 97.5956 75.1528 97.5215 75.1528 97.4454C75.1528 97.3692 75.1779 97.2952 75.2241 97.2346L77.0837 96.2676L79.0177 95.3502C79.7119 95.0279 80.4805 94.7056 81.2492 94.408L82.4145 93.9617C82.7893 93.7924 83.1795 93.6595 83.5798 93.565L84.77 93.4411H85.7866H87.299H87.8693C87.9318 93.3918 88.0113 93.3693 88.0903 93.3786C88.1694 93.3879 88.2415 93.4282 88.2909 93.4906C88.3402 93.5531 88.3627 93.6326 88.3534 93.7117C88.3441 93.7907 88.3037 93.8629 88.2412 93.9122ZM87.7701 99.8877H87.3238C86.9527 99.8544 86.5792 99.8544 86.2081 99.8877L85.4394 100.012C85.1561 100.047 84.8748 100.097 84.5964 100.16L82.9104 100.706C81.7699 101.078 80.6541 101.549 79.8111 101.896C79.8111 101.896 79.5384 101.896 79.5631 102.02H79.2656L78.8193 102.144H78.5466H78.3978C78.3229 102.162 78.2579 102.208 78.2163 102.273C78.1747 102.337 78.1598 102.416 78.1747 102.491C78.1855 102.55 78.2157 102.605 78.2605 102.645C78.3054 102.685 78.3624 102.71 78.4226 102.714H79.6871H80.0838C80.9516 102.491 82.117 102.144 83.2575 101.747L84.9188 101.127L85.6874 100.929L86.3568 100.731C86.6992 100.629 87.0469 100.547 87.3982 100.483L87.8198 100.359C87.8572 100.347 87.8921 100.329 87.9224 100.304C87.9526 100.279 87.9777 100.248 87.9961 100.214C88.0146 100.179 88.026 100.142 88.0297 100.103C88.0335 100.064 88.0296 100.024 88.0181 99.9868C87.9887 99.9504 87.9505 99.9221 87.9071 99.9048C87.8637 99.8874 87.8165 99.8816 87.7701 99.8877ZM87.7701 106.929H86.8527C86.6048 106.929 86.2825 106.929 85.9602 107.103L84.9436 107.425C84.3039 107.65 83.6822 107.924 83.084 108.243C82.8089 108.373 82.5437 108.522 82.2906 108.69C82.24 108.748 82.2121 108.823 82.2121 108.9C82.2121 108.978 82.24 109.053 82.2906 109.111C82.3618 109.187 82.4596 109.231 82.5633 109.235L83.4807 109.086C84.0014 108.962 84.6709 108.764 85.3403 108.541L86.3073 108.144L87.1503 107.822C87.431 107.697 87.7042 107.557 87.9685 107.4C88.0387 107.359 88.0904 107.292 88.1134 107.214C88.1364 107.136 88.1289 107.052 88.0925 106.979C88.019 106.932 87.9304 106.914 87.8445 106.929H87.7701Z" fill="#F18380"/>
<path d="M171.228 50.4974C170.285 50.4974 170.211 49.9024 169.79 48.8114C171.897 48.8114 178.021 49.2081 180.699 54.3654C177.997 50.6462 172.814 50.4974 171.228 50.4974ZM176.038 30.885C176.038 30.885 175.889 31.7528 175.74 33.0173C175.74 33.662 175.591 34.4306 175.542 35.224C175.492 36.0174 175.418 36.8853 175.343 37.7035C175.343 39.4391 175.22 41.1499 175.22 42.4392C175.22 43.7285 175.22 44.5963 175.22 44.5963C175.219 44.6376 175.228 44.6785 175.244 44.7163C175.261 44.7541 175.285 44.788 175.315 44.816C175.346 44.844 175.381 44.8654 175.42 44.8788C175.459 44.8922 175.501 44.8973 175.542 44.8939C175.612 44.8904 175.678 44.8643 175.732 44.8196C175.786 44.7748 175.823 44.714 175.839 44.646C175.839 44.646 175.988 43.7781 176.112 42.4888C176.236 41.1995 176.434 39.4887 176.509 37.7779C176.509 36.91 176.509 36.0422 176.509 35.2984C176.509 34.5546 176.509 33.7364 176.509 33.0917C176.509 31.7776 176.509 30.9345 176.509 30.9345C176.509 30.8933 176.501 30.8525 176.484 30.8147C176.468 30.7769 176.443 30.7429 176.413 30.7149C176.383 30.6869 176.347 30.6656 176.308 30.6522C176.269 30.6387 176.228 30.6336 176.187 30.637C176.139 30.6644 176.1 30.7044 176.074 30.7525C176.047 30.8006 176.035 30.855 176.038 30.9098V30.885ZM181.79 32.6206C181.79 32.6206 181.641 33.3644 181.468 34.4554C181.468 35.0257 181.294 35.6703 181.22 36.3645C181.145 37.0588 181.071 37.8026 180.997 38.5465C180.997 40.0341 180.823 41.5218 180.798 42.6376C180.774 43.7533 180.798 44.522 180.798 44.522C180.801 44.5611 180.812 44.5992 180.83 44.6341C180.848 44.669 180.873 44.7001 180.903 44.7254C180.933 44.7508 180.967 44.77 181.005 44.7819C181.042 44.7938 181.081 44.7981 181.121 44.7947C181.187 44.7901 181.251 44.7631 181.3 44.7181C181.349 44.6731 181.382 44.6127 181.393 44.5468C181.393 44.5468 181.542 43.8029 181.716 42.7119C181.889 41.621 182.038 40.1085 182.162 38.6457C182.162 37.9018 182.162 37.158 182.311 36.4637C182.46 35.7695 182.311 35.1 182.311 34.5298C182.311 33.414 182.311 32.6702 182.311 32.6702C182.311 32.6289 182.302 32.5881 182.286 32.5503C182.27 32.5125 182.245 32.4785 182.215 32.4505C182.185 32.4225 182.149 32.4012 182.11 32.3878C182.071 32.3744 182.03 32.3692 181.988 32.3727C181.933 32.3954 181.886 32.4329 181.851 32.481C181.816 32.5292 181.795 32.586 181.79 32.6454V32.6206ZM187.344 34.9761C187.344 34.9761 187.195 35.5959 186.997 36.5381C186.997 36.9844 186.799 37.5299 186.724 38.125C186.65 38.7201 186.551 39.3399 186.451 39.9598C186.278 41.2243 186.203 42.4392 186.154 43.431C186.104 44.4228 186.154 45.0179 186.154 45.0179C186.154 45.0591 186.162 45.0999 186.179 45.1377C186.195 45.1756 186.219 45.2096 186.25 45.2375C186.28 45.2655 186.316 45.2869 186.355 45.3003C186.394 45.3137 186.435 45.3188 186.476 45.3154C186.54 45.3121 186.6 45.2887 186.649 45.2485C186.698 45.2084 186.733 45.1537 186.749 45.0923C186.749 45.0923 186.923 44.4724 187.096 43.555C187.27 42.6376 187.518 41.3483 187.666 40.1085C187.666 39.4639 187.79 38.844 187.84 38.249C187.89 37.6539 187.84 37.1084 187.84 36.6373C187.84 35.6951 187.84 35.0504 187.84 35.0504C187.84 35.0092 187.832 34.9684 187.815 34.9306C187.799 34.8928 187.775 34.8588 187.744 34.8308C187.714 34.8028 187.678 34.7815 187.639 34.7681C187.6 34.7546 187.559 34.7495 187.518 34.7529C187.472 34.7785 187.432 34.814 187.402 34.857C187.372 34.8999 187.352 34.9491 187.344 35.0009V34.9761Z" fill="#F18380"/>
<path d="M87.0028 49.589C84.6093 49.4967 82.3111 48.6262 80.457 47.1096" stroke="#73102A" stroke-width="0.5" stroke-miterlimit="10" stroke-linecap="round"/>
<path d="M33.7913 213.348C34.3367 206.48 41.7007 180.148 49.6101 165.147C49.6101 165.147 67.4239 164.232 78.5353 164.268C90.1284 164.306 107.58 165.147 107.58 165.147C112.737 176.826 118.613 202.339 120.324 207.843C121.357 211.082 121.482 214.542 120.687 217.846C119.891 221.151 118.205 224.175 115.811 226.588C109.935 233.258 94.7858 240.895 91.2897 240.895C76.2487 238.746 61.5059 234.869 47.3539 229.34C39.37 225.993 33.2706 220.241 33.7913 213.348Z" fill="#93929C"/>
<path d="M57.3489 109.406L52.3232 114.045L65.854 130.282L69.7199 125.643L57.3489 109.406Z" fill="#6B6B6B"/>
<path d="M169.3 68.9497L168.688 75.7722L188.791 78.8648L188.791 71.5196L169.3 68.9497Z" fill="#023783"/>
<path d="M91.9985 70.5381C80.8002 80.1367 69.6685 74.5375 66.0024 69.5383L50.0049 76.5372L54.0043 150.526L106.996 152.526L104.996 81.5364L91.9985 70.5381Z" fill="white"/>
<path d="M105.153 70.0958C103.014 68.696 90.9152 67.5185 90.9152 67.5185V172.982C92.4513 174.479 92.7655 174.444 94.9716 174.194L95.0745 174.182C99.8437 172.985 104.445 171.198 108.772 168.863C108.772 168.863 115.768 128.188 116.43 102.096C116.711 91.0114 111.858 83.9931 110.944 81.0673C109.42 76.1911 107.293 71.4956 105.153 70.0958Z" fill="#023783"/>
<path d="M69.5302 174.157C70.5023 173.95 71.4232 173.551 72.238 172.982L66.7988 66.4386C66.7988 66.4386 49.599 66.4075 45.4196 68.2672C43.6823 69 41.9866 70.0629 40.9228 71.6196C39.859 73.1764 40.2901 81.6206 40.2386 83.5054C39.9787 87.0249 40.3029 164.984 40.2429 165.663C40.1829 166.343 40.7628 166.723 41.3827 167.083C42.0026 167.443 61.5996 173.162 66.5789 174.182C67.5544 174.371 68.558 174.363 69.5302 174.157Z" fill="#023783"/>
<circle cx="94.3838" cy="104.839" r="1.82859" fill="#90A2B7"/>
<path d="M57.9053 111.963C62.0406 107.781 69.7737 98.7624 72.3904 96.5663C74.9777 94.6169 77.8044 93.0072 80.8011 91.7768C83.0747 91.0152 85.4251 90.506 87.81 90.2582C89.4688 90.048 90.1463 90.5386 90.1463 91.5432C90.1046 92.1417 89.9139 92.7203 89.5916 93.2262C89.2692 93.7322 88.8254 94.1495 88.3006 94.4402H91.3612C92.4125 94.4402 93.09 95.2813 92.5994 96.6364C92.1538 97.5316 91.5169 98.318 90.7336 98.9397C89.9504 99.5615 89.04 100.003 88.067 100.234C88.067 100.234 92.2022 100.631 93.2536 100.842C94.3049 101.052 94.632 101.449 94.632 102.454C94.6229 103.148 94.4301 103.827 94.073 104.422C93.716 105.017 93.2075 105.507 92.5994 105.841C91.1111 106.445 89.5312 106.793 87.9268 106.869C87.9268 106.869 93.0433 108.154 94.0713 108.528C95.0993 108.902 95.2161 109.579 94.6788 110.467C94.3725 111.093 93.9304 111.642 93.3847 112.074C92.839 112.507 92.2035 112.812 91.5247 112.967C89.5856 113.481 88.2773 112.64 87.5764 112.757C86.0704 113.242 84.5958 113.819 83.1608 114.486C81.0058 116.631 78.371 118.233 75.4743 119.158C73.3182 120.063 71.3404 121.345 69.6336 122.943C68.8386 123.689 67.9019 124.268 66.8792 124.646C65.8565 125.024 64.7684 125.193 63.6793 125.143C62.5902 125.092 61.5221 124.824 60.5384 124.354C59.5547 123.884 58.6752 123.222 57.9521 122.406C54.214 118.434 54.8448 115.117 57.9053 111.963Z" fill="#FBBEAA"/>
<path d="M87.7864 94.4635C87.793 94.5021 87.7914 94.5417 87.7818 94.5797C87.7722 94.6177 87.7548 94.6532 87.7306 94.6841C87.7063 94.7149 87.6759 94.7403 87.6412 94.7586C87.6066 94.777 87.5685 94.7878 87.5294 94.7905L85.6136 94.9775H84.6791C84.352 94.9775 84.0483 95.0943 83.7212 95.1176C83.3757 95.2213 83.0396 95.3541 82.7166 95.5148L81.6419 95.9587C80.1934 96.5427 78.7449 97.0801 77.6702 97.4773C76.5955 97.8744 75.8479 98.1081 75.8479 98.1081C75.7886 98.1331 75.7222 98.1349 75.6616 98.1133C75.6011 98.0917 75.5508 98.0481 75.5208 97.9912C75.4772 97.9342 75.4536 97.8645 75.4536 97.7927C75.4536 97.7209 75.4772 97.6511 75.5208 97.5941L77.273 96.6829L79.0953 95.8185C79.7495 95.5148 80.4737 95.211 81.198 94.9307L82.296 94.5102C82.6492 94.3506 83.0169 94.2254 83.3941 94.1364L84.5156 94.0196H85.4735H86.8986H87.4359C87.4948 93.9731 87.5697 93.9519 87.6442 93.9607C87.7187 93.9694 87.7867 94.0074 87.8331 94.0663C87.8796 94.1251 87.9008 94.2 87.892 94.2745C87.8833 94.349 87.8452 94.417 87.7864 94.4635ZM87.3425 100.094H86.922C86.5722 100.063 86.2203 100.063 85.8706 100.094L85.1463 100.211C84.8794 100.244 84.6143 100.291 84.352 100.351L82.7633 100.865C81.6886 101.215 80.6373 101.659 79.843 101.986C79.843 101.986 79.5859 101.986 79.6093 102.103H79.329L78.9084 102.22H78.6515H78.5112C78.4407 102.237 78.3794 102.28 78.3402 102.341C78.301 102.402 78.2869 102.476 78.301 102.547C78.3112 102.603 78.3396 102.654 78.3819 102.692C78.4242 102.73 78.4779 102.753 78.5346 102.757H79.7261H80.0999C80.9176 102.547 82.0157 102.22 83.0904 101.846L84.6557 101.262L85.38 101.075L86.0108 100.888C86.3334 100.793 86.661 100.715 86.992 100.655L87.3892 100.538C87.4246 100.527 87.4574 100.51 87.4859 100.486C87.5144 100.463 87.5381 100.434 87.5554 100.401C87.5728 100.369 87.5835 100.333 87.5871 100.296C87.5906 100.26 87.5869 100.223 87.5761 100.187C87.5485 100.153 87.5124 100.126 87.4715 100.11C87.4306 100.094 87.3862 100.088 87.3425 100.094ZM87.3425 106.729H86.4781C86.2444 106.729 85.9407 106.729 85.637 106.893L84.6791 107.196C84.0764 107.409 83.4906 107.666 82.9269 107.967C82.6677 108.089 82.4178 108.23 82.1793 108.388C82.1316 108.443 82.1053 108.513 82.1053 108.586C82.1053 108.659 82.1316 108.73 82.1793 108.785C82.2464 108.856 82.3386 108.898 82.4362 108.902L83.3007 108.762C83.7913 108.645 84.4221 108.458 85.0529 108.248L85.9641 107.874L86.7584 107.57C87.0229 107.453 87.2804 107.32 87.5294 107.173C87.5955 107.134 87.6443 107.071 87.666 106.997C87.6876 106.924 87.6806 106.844 87.6462 106.776C87.577 106.731 87.4935 106.715 87.4126 106.729H87.3425Z" fill="#F18380"/>
<path d="M69.3773 125.747L31.2015 172.459C26.4184 178.834 15.2412 182.338 8.41214 176.432C7.14927 175.325 6.1243 173.974 5.39941 172.459C4.67451 170.945 4.26478 169.299 4.1951 167.621C4.12541 165.944 4.39721 164.27 4.99401 162.7C5.5908 161.131 8.24438 155.844 9.41114 154.637L57.2475 109.711L69.3773 125.747Z" fill="#90A2B7"/>
<path d="M57.0973 109.588L51.7964 114.351L65.4265 130.586L70.6152 125.003L57.0973 109.588Z" fill="#023783"/>
<circle cx="94.3842" cy="117.639" r="1.82859" fill="#90A2B7"/>
<circle cx="94.3842" cy="129.83" r="1.82859" fill="#90A2B7"/>
<path d="M97.755 91.6575H98.2989V92.3611H98.8792V91.6575H99.4231V93.5799H98.8792V92.8186H98.2988V93.5799H97.755V91.6575H97.755ZM101.364 91.6575V93.5799H100.838V92.1131H100.494V92.6649C100.494 92.9128 100.476 93.2167 100.331 93.3877C100.186 93.5781 99.9136 93.6357 99.6059 93.5781V93.1014C99.8954 93.1591 99.9685 93.0438 99.9685 92.6632V91.6539H101.364V91.6575ZM101.818 91.6575H102.362L102.669 92.7994L102.977 91.6575H103.521L103.775 93.5799H103.268L103.142 92.5514L102.85 93.5798H102.488L102.199 92.5514L102.072 93.5798H101.565L101.818 91.6574L101.818 91.6575ZM103.975 91.6575H104.519V92.438L105.044 91.6575H105.643L104.954 92.609L105.661 93.5799H105.009L104.52 92.7994V93.5799H103.976V91.6575H103.975H103.975ZM101.635 89.6006C98.372 89.6006 96.2134 90.8386 96.2134 92.6649C96.2134 94.4737 98.3704 95.7292 101.635 95.7292C104.916 95.7292 107.056 94.472 107.056 92.6649C107.056 90.8386 104.918 89.6006 101.635 89.6006ZM101.635 95.4446C98.5699 95.4446 96.5227 94.3219 96.5227 92.6649C96.5227 90.9904 98.5716 89.8852 101.635 89.8852C104.716 89.8852 106.749 90.9887 106.749 92.6649C106.749 94.3219 104.718 95.4446 101.635 95.4446ZM101.635 90.1523C98.7528 90.1523 96.8304 91.1616 96.8304 92.6649C96.8304 94.1682 98.7528 95.1775 101.635 95.1775C104.517 95.1775 106.439 94.1682 106.439 92.6649C106.441 91.1616 104.519 90.1523 101.635 90.1523ZM101.635 95.1216C98.7878 95.1216 96.8853 94.1316 96.8853 92.6666C96.8853 91.2017 98.7894 90.2117 101.635 90.2117C104.48 90.2117 106.384 91.2017 106.384 92.6666C106.386 94.1316 104.482 95.1217 101.635 95.1217V95.1216Z" fill="white"/>
</svg>
