<svg width="208" height="509" viewBox="0 0 208 509" fill="none" xmlns="http://www.w3.org/2000/svg">
<g clip-path="url(#clip0_21_292)">
<path d="M100.78 62.7732H70.9163V97H100.78V62.7732Z" fill="#FBBEAA"/>
<path d="M70.9903 62.7732H100.754V81.8686C99.4544 82.026 98.1457 82.1067 96.8356 82.1104C86.5669 82.1104 75.0829 79.379 70.8911 69.8313L70.9903 62.7732Z" fill="#F18380"/>
<path d="M116.208 37.3694C115.96 47.2556 116.208 55.0629 114.372 62.6044C112.537 70.1459 106.931 76.3097 94.5295 76.3097C82.1278 76.3097 67.9898 72.3697 66.9977 57.2625C64.9638 55.1113 61.6649 47.4489 61.5409 38.8681C61.4169 30.2872 62.1114 12.1344 82.1774 9.35472C102.243 6.575 116.753 13.7539 116.208 37.3694Z" fill="#FBBEAA"/>
<path d="M105.716 45.1521C105.716 46.4816 106.535 47.5693 107.551 47.5693C108.568 47.5693 109.387 46.4816 109.387 45.1521C109.387 43.8227 108.568 42.735 107.551 42.735C106.535 42.735 105.716 43.726 105.716 45.1521Z" fill="#403D4F"/>
<path d="M83.3921 45.1521C83.3921 46.4816 84.2106 47.5693 85.2275 47.5693C86.2445 47.5693 87.063 46.4816 87.063 45.1521C87.063 43.8227 86.2445 42.735 85.2275 42.735C84.2106 42.735 83.3921 43.726 83.3921 45.1521Z" fill="#403D4F"/>
<path d="M87.8821 40.1246C87.7084 40.3422 86.3939 40.1246 85.4017 40.1246C84.4096 40.1246 82.4998 40.1246 82.4998 39.9071C82.4998 39.6895 83.4422 38.1909 85.9226 38.4568C87.7084 38.6502 88.3533 39.7379 87.8821 40.1246Z" fill="#403D4F"/>
<path d="M105.294 40.1246C105.443 40.3422 106.56 40.1246 107.428 40.1246C108.296 40.1246 109.908 40.1246 109.908 39.9071C109.685 39.3592 109.265 38.9095 108.726 38.6424C108.187 38.3754 107.567 38.3093 106.981 38.4568C105.443 38.6502 105.022 39.7379 105.294 40.1246Z" fill="#403D4F"/>
<path d="M97.9769 55.1595C99.7131 55.1595 101.102 54.0476 101.152 53.2499L100.581 46.4336C100.562 46.2647 100.477 46.1096 100.342 46.0012C100.208 45.8929 100.036 45.8399 99.8619 45.8535C99.7772 45.8596 99.6945 45.882 99.6186 45.9193C99.5427 45.9567 99.4751 46.0083 99.4198 46.0712C99.3645 46.1341 99.3225 46.2071 99.2962 46.2858C99.2699 46.3646 99.2598 46.4477 99.2666 46.5303L99.8123 53.1049C99.5616 53.3698 99.2533 53.5768 98.91 53.7106C98.5667 53.8444 98.197 53.9018 97.828 53.8784C97.7413 53.8718 97.6541 53.8824 97.5717 53.9095C97.4893 53.9366 97.4134 53.9797 97.3485 54.0362C97.2836 54.0926 97.2311 54.1613 97.1942 54.238C97.1572 54.3147 97.1366 54.398 97.1335 54.4827C97.1331 54.6541 97.1994 54.8193 97.3191 54.9449C97.4388 55.0706 97.6029 55.1472 97.7784 55.1595H97.9769Z" fill="#F18380"/>
<path d="M71.0946 50.7601C68.3745 50.4411 66.6273 48.3429 66.1339 45.9258C65.6406 43.5086 64.0935 44.7172 61.1732 44.7172C58.253 44.7172 56.7602 39.1216 55.8418 34.8649C54.6474 29.3286 56.4259 22.8475 58.178 20.5584C53.5056 16.5526 55.8418 2.81843 57.0099 7.39647C57.9444 11.0589 61.2929 12.7375 62.8504 13.1191C67.5228 -3.81981 85.8229 -0.805887 94.3889 2.81843C101.397 0.0715793 107.433 3.96295 109.574 6.25199C120.087 2.81844 124.759 7.39651 127.096 9.68554C129.432 11.9746 132.352 25.1365 122.423 30.8591C114.48 35.4372 102.76 31.6221 97.8932 29.1423C92.2863 33.7204 84.6548 32.1944 81.5399 30.8591C81.0726 33.606 75.7165 37.5354 73.575 40.0152C71.4335 42.495 72.3348 50.9055 71.0946 50.7601Z" fill="#F3E8AE"/>
<path d="M67.5435 49.7448C67.4195 46.9892 66.973 42.9284 62.9549 42.8317C58.9367 42.735 58.4158 45.6839 58.5399 50.3249C58.6639 54.9658 63.5006 58.9057 67.742 57.3104L67.5435 49.7448Z" fill="#FBBEAA"/>
<path d="M61.6399 53.0807C61.8139 53.0511 61.9688 52.9558 62.071 52.8154C62.1732 52.6751 62.2144 52.5011 62.1856 52.3313C62.1858 52.1949 62.2254 52.0613 62.3 51.9459C62.3746 51.8304 62.4811 51.7378 62.6073 51.6787C62.8604 51.5135 63.1583 51.4253 63.463 51.4253C63.7677 51.4253 64.0655 51.5135 64.3187 51.6787C64.4288 51.738 64.5526 51.769 64.6784 51.769C64.8042 51.769 64.9279 51.738 65.038 51.6787C65.1391 51.6136 65.2201 51.5231 65.2725 51.4167C65.325 51.3102 65.3468 51.192 65.3357 51.0744C64.9884 47.1828 62.4336 46.4577 62.3344 46.4335C62.2497 46.408 62.1606 46.3999 62.0725 46.4095C61.9845 46.4191 61.8994 46.4463 61.8226 46.4894C61.7457 46.5325 61.6789 46.5906 61.6261 46.66C61.5734 46.7294 61.5358 46.8086 61.5159 46.8928C61.4701 47.053 61.4914 47.2244 61.5751 47.3694C61.6588 47.5144 61.7981 47.6212 61.9624 47.6663C62.4579 47.8849 62.8897 48.2203 63.2188 48.6423C63.548 49.0643 63.764 49.5596 63.8474 50.0834C63.1678 49.9755 62.471 50.113 61.888 50.4701C61.5483 50.6643 61.2737 50.9503 61.0976 51.2936C60.9214 51.6368 60.8513 52.0225 60.8958 52.4039C60.8916 52.498 60.9085 52.592 60.9451 52.6792C60.9817 52.7665 61.0373 52.8449 61.108 52.9092C61.1787 52.9736 61.2629 53.0222 61.3547 53.0518C61.4465 53.0814 61.5438 53.0912 61.6399 53.0807Z" fill="#F18380"/>
<path d="M96.2662 63.8608C93.8718 63.7708 91.5728 62.9222 89.718 61.4437" stroke="#73102A" stroke-width="0.5" stroke-miterlimit="10" stroke-linecap="round"/>
</g>
<path d="M39.2416 99.4707C33.5807 106.749 0.828125 195.707 0.828125 195.707C31.1545 186.002 28.3089 159.775 44.8026 162.55C44.8026 162.55 63.8221 117.908 64.5483 113.915C65.3061 110.766 64.966 107.453 63.5842 104.525C62.2023 101.596 59.8617 99.227 56.9498 97.81C48.8326 93.6606 44.9025 92.1922 39.2416 99.4707Z" fill="#90A2B7"/>
<path d="M180.15 91.6737C180.275 88.9443 179.544 86.2441 178.06 83.9501C175.775 81.3006 174.063 78.2068 173.032 74.8634C172.239 71.7598 170.972 68.797 169.276 66.0795C168.064 64.4136 166.247 63.0506 166.247 61.7785C166.247 60.5064 168.67 58.0529 172.123 58.7496C173.602 59.2103 174.961 59.9923 176.103 61.0396C177.244 62.0868 178.14 63.3735 178.726 64.8074C179.057 63.9337 179.251 63.0143 179.302 62.0814L180.059 43.5142C180.07 43.0329 180.178 42.5587 180.376 42.1198C180.574 41.6808 180.858 41.2859 181.211 40.9584C181.563 40.6309 181.978 40.3774 182.431 40.2129C182.883 40.0484 183.364 39.9763 183.845 40.0007C184.611 40.0333 185.347 40.3051 185.95 40.7778C186.553 41.2505 186.993 41.9003 187.207 42.6358V41.7877C187.324 40.8851 187.777 40.06 188.477 39.4781C189.177 38.8961 190.071 38.6003 190.979 38.6501C191.888 38.7 192.744 39.0918 193.376 39.7468C194.008 40.4018 194.369 41.2716 194.386 42.1815V44.7561C194.689 43.9623 195.267 43.304 196.016 42.9011C196.764 42.4982 197.632 42.3776 198.461 42.5611C199.291 42.7447 200.027 43.2202 200.536 43.9011C201.044 44.582 201.291 45.4229 201.231 46.2705V47.9061C201.557 47.3332 202.043 46.8677 202.629 46.5664C203.215 46.2652 203.877 46.1413 204.532 46.2099C205.43 46.3239 206.248 46.7828 206.814 47.4895C207.379 48.1962 207.647 49.0951 207.561 49.996L206.077 65.6555C205.105 74.4841 203.279 83.1976 200.625 91.6737C200.593 93.089 200.265 94.4818 199.663 95.7628C199.06 97.0437 198.196 98.1845 197.126 99.1116C196.057 100.039 194.805 100.732 193.451 101.146C192.097 101.56 190.672 101.687 189.267 101.518C187.995 101.56 186.729 101.329 185.554 100.839C184.38 100.349 183.324 99.6119 182.46 98.6783C181.595 97.7446 180.941 96.6359 180.543 95.4273C180.144 94.2188 180.01 92.9386 180.15 91.6737Z" fill="#FBBEAA"/>
<path d="M180.756 67.4429C179.605 67.4429 179.514 66.716 178.999 65.3833C181.573 65.3833 189.055 65.8679 192.326 72.168C189.024 67.6246 182.694 67.4429 180.756 67.4429ZM186.632 43.4843C186.632 43.4843 186.45 44.5444 186.268 46.0892C186.268 46.8767 186.086 47.8156 186.026 48.7849C185.965 49.7541 185.874 50.8142 185.783 51.8138C185.783 53.934 185.632 56.0239 185.632 57.599C185.632 59.174 185.632 60.2341 185.632 60.2341C185.632 60.2845 185.642 60.3344 185.662 60.3806C185.682 60.4268 185.712 60.4683 185.749 60.5024C185.786 60.5366 185.83 60.5628 185.877 60.5792C185.925 60.5955 185.976 60.6018 186.026 60.5976C186.111 60.5933 186.193 60.5614 186.258 60.5068C186.324 60.4522 186.37 60.3778 186.389 60.2947C186.389 60.2947 186.571 59.2346 186.722 57.6595C186.874 56.0845 187.116 53.9946 187.207 51.9046C187.207 50.8445 187.207 49.7844 187.207 48.8757C187.207 47.9671 187.207 46.9676 187.207 46.1801C187.207 44.5747 187.207 43.5448 187.207 43.5448C187.207 43.4944 187.197 43.4446 187.177 43.3984C187.157 43.3522 187.127 43.3107 187.09 43.2765C187.053 43.2423 187.009 43.2162 186.962 43.1999C186.914 43.1835 186.864 43.1772 186.813 43.1814C186.755 43.2148 186.708 43.2636 186.675 43.3224C186.643 43.3812 186.628 43.4477 186.632 43.5146V43.4843ZM193.659 45.6046C193.659 45.6046 193.477 46.5132 193.265 47.8459C193.265 48.5426 193.053 49.33 192.962 50.1781C192.871 51.0262 192.78 51.9349 192.689 52.8436C192.689 54.6609 192.477 56.4782 192.447 57.8412C192.417 59.2043 192.447 60.1432 192.447 60.1432C192.451 60.191 192.464 60.2376 192.486 60.2802C192.508 60.3229 192.538 60.3608 192.575 60.3918C192.611 60.4228 192.654 60.4462 192.699 60.4608C192.745 60.4753 192.793 60.4806 192.841 60.4765C192.922 60.4708 193 60.4378 193.06 60.3828C193.12 60.3279 193.161 60.2541 193.174 60.1736C193.174 60.1736 193.356 59.2648 193.568 57.9321C193.78 56.5994 193.962 54.7518 194.113 52.9648C194.113 52.0561 194.113 51.1474 194.295 50.2993C194.476 49.4512 194.295 48.6334 194.295 47.9368C194.295 46.5738 194.295 45.6651 194.295 45.6651C194.295 45.6147 194.285 45.5649 194.264 45.5187C194.244 45.4725 194.215 45.4309 194.178 45.3968C194.141 45.3626 194.097 45.3365 194.049 45.3201C194.002 45.3038 193.951 45.2974 193.901 45.3016C193.834 45.3294 193.776 45.3752 193.733 45.434C193.69 45.4928 193.664 45.5623 193.659 45.6348V45.6046ZM200.443 48.482C200.443 48.482 200.262 49.2392 200.019 50.3902C200.019 50.9354 199.777 51.6018 199.686 52.3287C199.595 53.0557 199.474 53.8129 199.353 54.5701C199.141 56.1148 199.05 57.599 198.989 58.8105C198.929 60.0221 198.989 60.7491 198.989 60.7491C198.989 60.7995 199 60.8493 199.02 60.8955C199.04 60.9417 199.069 60.9832 199.106 61.0174C199.144 61.0516 199.187 61.0777 199.235 61.094C199.283 61.1104 199.333 61.1167 199.383 61.1125C199.461 61.1085 199.535 61.0798 199.595 61.0308C199.654 60.9818 199.697 60.9149 199.716 60.8399C199.716 60.8399 199.928 60.0827 200.14 58.962C200.352 57.8413 200.655 56.2663 200.837 54.7518C200.837 53.9643 200.989 53.2071 201.049 52.4801C201.11 51.7532 201.049 51.0869 201.049 50.5114C201.049 49.3604 201.049 48.5728 201.049 48.5728C201.049 48.5224 201.039 48.4726 201.019 48.4264C200.999 48.3802 200.969 48.3387 200.932 48.3045C200.895 48.2703 200.851 48.2442 200.804 48.2279C200.756 48.2115 200.706 48.2052 200.655 48.2094C200.599 48.2406 200.551 48.284 200.515 48.3365C200.478 48.3889 200.454 48.4491 200.443 48.5123V48.482Z" fill="#F18380"/>
<path d="M106.87 89.3806L172.883 133.903C172.605 136.18 177.955 89.3806 177.955 89.3806L202.389 91.6613C202.389 91.6613 200.961 139.309 197.366 164.473C195.939 174.46 187.626 178.247 177.77 176.096C172.904 175.035 168.323 173.038 164.246 170.176C146.728 157.88 97.5811 123.247 93.5629 118.89C86.6305 111.373 86.6304 105.742 90.6146 99.5535C94.5987 93.3648 103.125 88.451 106.87 89.3806Z" fill="#90A2B7"/>
<path d="M106.87 89.3806L172.883 133.903C172.605 136.18 177.955 89.3806 177.955 89.3806L202.389 91.6613C202.389 91.6613 200.961 139.309 197.366 164.473C195.939 174.46 187.626 178.247 177.77 176.096C172.904 175.035 168.323 173.038 164.246 170.176C146.728 157.88 97.5811 123.247 93.5629 118.89C86.6305 111.373 86.6304 105.742 90.6146 99.5535C94.5987 93.3648 103.125 88.451 106.87 89.3806Z" fill="#90A2B7"/>
<path d="M68.9067 322.499C68.8279 328.882 71.2878 335.035 75.7453 339.603C80.2029 344.172 86.2929 346.784 92.6755 346.862C99.0582 346.941 105.211 344.481 109.78 340.024C114.349 335.566 116.96 329.476 117.039 323.094C117.039 323.094 120.084 234.258 121.124 216.258C122.164 198.258 117.459 183.823 97.2064 181.744C76.2107 179.59 65.0195 196.005 65.0195 211.257C65.0195 226.508 68.9067 322.499 68.9067 322.499Z" fill="#93929C"/>
<path d="M29.4162 320.791C29.0035 323.946 29.2205 327.151 30.0545 330.221C30.8885 333.291 32.323 336.166 34.275 338.678C36.227 341.19 38.6577 343.291 41.4267 344.857C44.1956 346.424 47.2478 347.427 50.4066 347.806C53.5653 348.186 56.7681 347.936 59.8295 347.07C62.8909 346.204 65.7501 344.739 68.2419 342.761C70.7337 340.783 72.8086 338.33 74.3465 335.545C75.8843 332.76 76.8547 329.698 77.2014 326.535C77.2014 326.535 89.7294 238.541 92.7005 220.764C95.6716 202.987 92.5273 188.107 72.6209 183.873C51.9718 179.491 39.0723 194.618 37.5124 209.771C35.9526 224.924 29.4162 320.791 29.4162 320.791Z" fill="#93929C"/>
<path d="M108.423 427.181C108.423 427.181 107.234 477.665 106.937 485.216C106.64 492.768 101.861 494.823 94.1614 495.491C86.4613 496.16 83.2179 490.044 82.1285 485.191C81.0391 480.339 74.4531 430.845 74.4531 430.845L108.423 427.181Z" fill="#FBBEAA"/>
<path d="M107.556 462.388L79.1573 465.434C76.9538 449.811 74.4531 430.771 74.4531 430.771L108.423 427.107C108.423 427.107 107.977 446.022 107.556 462.388Z" fill="#F18380"/>
<path d="M68.9062 322.5C68.9453 319.339 69.6063 316.217 70.8518 313.312C72.0973 310.408 73.9027 307.776 76.165 305.569C78.4274 303.362 81.1023 301.622 84.037 300.449C86.9717 299.276 90.1089 298.692 93.2692 298.731C96.4296 298.77 99.5513 299.431 102.456 300.676C105.361 301.922 107.992 303.727 110.199 305.99C112.406 308.252 114.146 310.927 115.32 313.862C116.493 316.796 117.077 319.933 117.038 323.094L112.086 463.806L73.2391 467.991L68.9062 322.5Z" fill="#93929C"/>
<path d="M57.5919 429.112C57.5919 429.112 51.006 479.175 49.9166 486.628C48.8272 494.08 43.8506 495.665 36.101 495.491C28.3514 495.318 25.8012 488.905 25.2317 483.978C24.6623 479.051 23.4243 429.112 23.4243 429.112H57.5919Z" fill="#FBBEAA"/>
<path d="M52.838 464.022H24.2659C23.7707 448.276 23.3003 429.112 23.3003 429.112H57.5917C57.5917 429.112 55.1158 447.78 52.838 464.022Z" fill="#F18380"/>
<path d="M29.4151 320.791C30.2373 314.505 33.5064 308.798 38.5121 304.909C43.5179 301.019 49.856 299.262 56.1499 300.019C62.4437 300.775 68.1848 303.984 72.1262 308.949C76.0676 313.914 77.8911 320.234 77.2002 326.535L55.6603 468.758H16.5903L29.4151 320.791Z" fill="#93929C"/>
<path d="M77.1761 326.535L54.9673 467.52" stroke="#565656" stroke-width="0.75" stroke-miterlimit="10" stroke-linecap="round"/>
<path d="M77.2007 326.535C77.2007 326.535 89.7288 238.541 92.6999 220.764" stroke="#565656" stroke-width="0.75" stroke-miterlimit="10" stroke-linecap="round"/>
<path d="M38.7006 469.89C41.5088 469.689 44.2932 470.526 46.5251 472.242C48.7571 473.958 50.2811 476.434 50.8078 479.2L63.7321 492.446V500.691H22.3101C22.3101 500.691 24.3898 485.835 24.9841 482.493C25.5783 479.15 27.5837 469.89 38.7006 469.89Z" fill="#FBBEAA"/>
<path d="M50.7826 479.101C51.2531 478.457 51.9215 477.962 52.392 478.259C52.8624 478.556 65.3658 488.459 65.96 488.955C66.3259 489.298 66.6028 489.726 66.7667 490.2C66.9306 490.675 66.9766 491.182 66.9008 491.678V502.3H21.3936C21.3936 502.3 23.1762 486.603 23.3 485.736C23.4238 484.869 24.2904 483.73 24.7855 483.755C27.909 484.712 31.1507 485.229 34.4168 485.29C38.7578 485.52 43.088 484.67 47.0192 482.814C48.4768 481.801 49.7498 480.545 50.7826 479.101Z" fill="black"/>
<path d="M59.4238 493.387C57.2202 491.752 49.2973 485.563 46.3262 483.235L47.0194 482.889C47.113 482.848 47.1973 482.789 47.267 482.715C50.4362 485.191 57.8887 491.034 60.018 492.619C61.818 493.998 63.051 495.989 63.4843 498.215L62.5187 498.363C62.1102 496.39 61.0132 494.626 59.4238 493.387Z" fill="white"/>
<path d="M22.6315 491.48C25.8386 491.513 28.9421 492.62 31.4457 494.625C33.7086 496.63 35.2414 499.329 35.8033 502.3H34.4663C33.9195 499.726 32.5666 497.393 30.6039 495.64C28.2997 493.794 25.435 492.79 22.4829 492.792L22.6315 491.48Z" fill="white"/>
<path d="M74.2543 502.275H21.3936C21.0244 502.275 20.7251 502.575 20.7251 502.944V508.069C20.7251 508.438 21.0244 508.738 21.3936 508.738H74.2543C74.6235 508.738 74.9229 508.438 74.9229 508.069V502.944C74.9229 502.575 74.6235 502.275 74.2543 502.275Z" fill="white"/>
<path d="M65.8363 488.856C66.3067 488.658 68.6093 489.326 71.6052 492.272C72.8525 493.562 73.7504 495.148 74.214 496.881C74.6775 498.614 74.6915 500.436 74.2544 502.176H59.2256C60.0674 492.668 65.3658 489.054 65.8363 488.856Z" fill="white"/>
<path d="M60.0677 489.005C59.8821 489.232 59.7936 489.523 59.8214 489.815C59.8492 490.107 59.9911 490.376 60.2162 490.565C60.3267 490.656 60.4541 490.724 60.5911 490.766C60.7281 490.808 60.872 490.822 61.0146 490.809C61.1572 490.795 61.2956 490.753 61.422 490.686C61.5484 490.618 61.6603 490.527 61.7513 490.416L64.2272 487.42C64.4128 487.193 64.5013 486.902 64.4734 486.61C64.4456 486.318 64.3038 486.048 64.0786 485.86C63.9696 485.766 63.8425 485.695 63.7051 485.651C63.5677 485.607 63.4228 485.592 63.2793 485.606C63.1357 485.619 62.9965 485.662 62.87 485.732C62.7436 485.801 62.6325 485.895 62.5436 486.009L60.0677 489.005Z" fill="white"/>
<path d="M57.1214 486.751C56.9358 486.978 56.8473 487.27 56.8751 487.562C56.903 487.854 57.0448 488.123 57.2699 488.311C57.379 488.406 57.5061 488.477 57.6435 488.521C57.7809 488.564 57.9258 488.58 58.0693 488.566C58.2129 488.552 58.3521 488.509 58.4786 488.44C58.605 488.37 58.7161 488.276 58.805 488.163L61.2809 485.167C61.4605 484.937 61.5452 484.647 61.5175 484.357C61.4899 484.067 61.352 483.798 61.1324 483.607C61.0233 483.512 60.8962 483.441 60.7588 483.397C60.6214 483.354 60.4765 483.338 60.333 483.352C60.1894 483.366 60.0502 483.409 59.9238 483.478C59.7973 483.548 59.6862 483.642 59.5973 483.755L57.1214 486.751Z" fill="white"/>
<path d="M54.274 484.523C54.087 484.743 53.995 485.029 54.0182 485.316C54.0414 485.604 54.1779 485.871 54.3978 486.058C54.625 486.244 54.9162 486.332 55.2082 486.305C55.5003 486.277 55.7695 486.135 55.9576 485.91L58.4335 482.914C58.5376 482.812 58.6203 482.691 58.6768 482.557C58.7332 482.423 58.7623 482.279 58.7623 482.134C58.7623 481.989 58.7332 481.845 58.6768 481.711C58.6203 481.577 58.5376 481.456 58.4335 481.354C58.2039 481.174 57.9142 481.09 57.624 481.117C57.3339 481.145 57.0653 481.283 56.8737 481.503L54.274 484.523Z" fill="white"/>
<path d="M51.402 482.27C51.3108 482.381 51.2423 482.508 51.2004 482.645C51.1586 482.782 51.1441 482.926 51.1579 483.069C51.1717 483.211 51.2135 483.35 51.2808 483.476C51.3482 483.602 51.4399 483.714 51.5505 483.805C51.7588 484.009 52.0388 484.124 52.3305 484.124C52.6221 484.124 52.9021 484.009 53.1104 483.805L55.5863 480.785C55.7719 480.557 55.8604 480.266 55.8325 479.974C55.8047 479.682 55.6629 479.413 55.4377 479.225C55.3273 479.134 55.1998 479.065 55.0629 479.023C54.9259 478.981 54.782 478.967 54.6394 478.981C54.4968 478.994 54.3584 479.036 54.2319 479.104C54.1055 479.171 53.9936 479.263 53.9027 479.373L51.402 482.27Z" fill="white"/>
<path d="M96.8842 469.89C99.6924 469.689 102.477 470.526 104.709 472.242C106.941 473.958 108.465 476.434 108.991 479.2L121.891 492.446V500.691H80.4937C80.4937 500.691 82.5486 485.835 83.1676 482.493C83.7866 479.15 85.7673 469.89 96.8842 469.89Z" fill="#FBBEAA"/>
<path d="M108.967 479.101C109.437 478.457 110.081 477.962 110.576 478.259C111.071 478.556 123.55 488.459 124.119 488.955C124.689 489.45 125.085 490.069 125.085 491.678V502.3H79.5776C79.5776 502.3 81.3603 486.603 81.4841 485.736C81.6079 484.869 82.4744 483.73 82.9696 483.755C86.0931 484.712 89.3348 485.229 92.601 485.29C96.9342 485.525 101.257 484.674 105.179 482.814C106.648 481.806 107.929 480.549 108.967 479.101Z" fill="black"/>
<path d="M117.608 493.387C115.404 491.752 107.481 485.563 104.51 483.235L105.179 482.889C105.28 482.849 105.372 482.79 105.451 482.715C108.62 485.191 116.073 491.034 118.202 492.619C120.002 493.998 121.235 495.989 121.668 498.215L120.703 498.363C120.282 496.394 119.188 494.634 117.608 493.387Z" fill="white"/>
<path d="M80.8155 491.48C84.0226 491.513 87.1262 492.62 89.6298 494.625C91.8927 496.63 93.4255 499.329 93.9874 502.3H92.6504C92.0968 499.723 90.735 497.389 88.7632 495.64C86.4705 493.791 83.6123 492.786 80.667 492.792L80.8155 491.48Z" fill="white"/>
<path d="M132.438 502.275H79.5777C79.2085 502.275 78.9092 502.575 78.9092 502.944V508.069C78.9092 508.438 79.2085 508.738 79.5777 508.738H132.438C132.808 508.738 133.107 508.438 133.107 508.069V502.944C133.107 502.575 132.808 502.275 132.438 502.275Z" fill="white"/>
<path d="M124.02 488.856C124.491 488.658 126.793 489.326 129.789 492.272C131.037 493.562 131.934 495.148 132.398 496.881C132.862 498.614 132.876 500.436 132.438 502.176H117.41C118.251 492.668 123.55 489.054 124.02 488.856Z" fill="white"/>
<path d="M118.153 489.005C117.967 489.232 117.879 489.523 117.906 489.815C117.934 490.107 118.076 490.376 118.301 490.565C118.412 490.656 118.539 490.724 118.676 490.766C118.813 490.808 118.957 490.822 119.1 490.809C119.242 490.795 119.381 490.753 119.507 490.686C119.633 490.618 119.745 490.527 119.836 490.416L122.312 487.42C122.492 487.191 122.576 486.901 122.549 486.611C122.521 486.32 122.383 486.052 122.164 485.86C122.055 485.766 121.928 485.695 121.79 485.651C121.653 485.607 121.508 485.592 121.364 485.606C121.221 485.619 121.082 485.662 120.955 485.732C120.829 485.801 120.717 485.895 120.629 486.009L118.153 489.005Z" fill="white"/>
<path d="M115.305 486.751C115.12 486.978 115.031 487.27 115.059 487.562C115.087 487.854 115.229 488.123 115.454 488.311C115.563 488.405 115.69 488.477 115.828 488.52C115.965 488.564 116.11 488.58 116.253 488.566C116.397 488.552 116.536 488.509 116.663 488.44C116.789 488.37 116.9 488.276 116.989 488.162L119.465 485.167C119.645 484.937 119.729 484.647 119.702 484.357C119.674 484.067 119.536 483.798 119.316 483.607C119.089 483.421 118.798 483.333 118.506 483.36C118.214 483.388 117.945 483.53 117.757 483.755L115.305 486.751Z" fill="white"/>
<path d="M112.458 484.523C112.354 484.622 112.272 484.741 112.216 484.873C112.16 485.005 112.131 485.147 112.131 485.29C112.131 485.434 112.16 485.576 112.216 485.707C112.272 485.839 112.354 485.959 112.458 486.058C112.685 486.243 112.976 486.332 113.268 486.304C113.56 486.276 113.829 486.134 114.018 485.909L116.493 482.913C116.679 482.686 116.768 482.395 116.74 482.103C116.712 481.811 116.57 481.542 116.345 481.354C116.234 481.262 116.107 481.194 115.97 481.152C115.833 481.11 115.689 481.096 115.547 481.11C115.404 481.123 115.266 481.165 115.139 481.233C115.013 481.3 114.901 481.392 114.81 481.502L112.458 484.523Z" fill="white"/>
<path d="M109.586 482.27C109.495 482.381 109.426 482.508 109.385 482.645C109.343 482.782 109.328 482.926 109.342 483.069C109.356 483.211 109.398 483.35 109.465 483.476C109.532 483.602 109.624 483.714 109.735 483.805C109.943 484.009 110.223 484.124 110.515 484.124C110.806 484.124 111.086 484.009 111.294 483.805L113.77 480.785C113.956 480.557 114.044 480.266 114.017 479.974C113.989 479.682 113.847 479.413 113.622 479.225C113.511 479.134 113.384 479.065 113.247 479.023C113.11 478.981 112.966 478.967 112.824 478.981C112.681 478.994 112.542 479.036 112.416 479.104C112.29 479.171 112.178 479.263 112.087 479.373L109.586 482.27Z" fill="white"/>
<path d="M120.396 197.002C120.396 197.002 120.396 222.677 120.396 224.088C120.396 225.5 108.016 237.607 91.5759 237.607C66.2968 237.607 36.0411 228.372 36.4868 222.355C36.7839 218.394 37.1553 197.002 37.1553 197.002H120.396Z" fill="#93929C"/>
<path d="M102.01 88.7053C88.1447 100.59 74.3621 93.6571 69.8229 87.4673L50.0156 96.133L54.9675 187.742L120.579 190.218L118.103 102.323L102.01 88.7053Z" fill="white"/>
<path d="M120.476 96.6033C117.826 94.8702 100.668 84.9665 100.668 84.9665V215.546C102.57 217.399 102.959 217.355 105.691 217.046L105.818 217.032C111.723 215.549 117.42 213.337 122.778 210.446C122.778 210.446 125.056 115.47 125.625 108.24C126.195 101.01 123.125 98.3364 120.476 96.6033Z" fill="#023783"/>
<path d="M74.1906 217C75.3942 216.745 76.5344 216.251 77.5433 215.546L70.8088 83.6295C70.8088 83.6295 51.3728 91.5277 46.1982 93.8303C44.0472 94.7376 42.2028 96.245 40.8857 98.1725C39.5685 100.1 38.8342 102.366 38.7704 104.7C38.4486 109.057 38.0029 205.643 37.9286 206.484C37.8544 207.326 38.5724 207.797 39.3399 208.242C40.1074 208.688 64.3714 215.769 70.5364 217.032C71.7443 217.266 72.9869 217.255 74.1906 217Z" fill="#023783"/>
<path d="M55.5231 141.508C60.1134 136.865 68.6973 126.855 71.6019 124.417C74.4739 122.253 77.6115 120.467 80.938 119.101C83.4617 118.256 86.0707 117.69 88.718 117.415C90.5593 117.182 91.3114 117.727 91.3114 118.842C91.2651 119.506 91.0534 120.148 90.6956 120.71C90.3378 121.271 89.8451 121.735 89.2626 122.057H92.6599C93.8269 122.057 94.579 122.991 94.0344 124.495C93.5398 125.489 92.8327 126.362 91.9633 127.052C91.0939 127.742 90.0833 128.233 89.0033 128.489C89.0033 128.489 93.5935 128.93 94.7605 129.163C95.9275 129.397 96.2906 129.837 96.2906 130.953C96.2805 131.723 96.0665 132.477 95.6701 133.137C95.2738 133.798 94.7093 134.342 94.0344 134.713C92.3823 135.383 90.6286 135.769 88.8477 135.854C88.8477 135.854 94.5271 137.28 95.6682 137.695C96.8093 138.11 96.939 138.862 96.3425 139.848C96.0026 140.542 95.5118 141.151 94.9061 141.631C94.3003 142.112 93.5949 142.45 92.8415 142.623C90.689 143.193 89.2367 142.26 88.4587 142.389C86.7871 142.928 85.1502 143.569 83.5573 144.308C81.1652 146.69 78.2405 148.468 75.0251 149.495C72.6318 150.499 70.4364 151.922 68.5418 153.696C67.6593 154.525 66.6196 155.167 65.4844 155.587C64.3491 156.006 63.1413 156.193 61.9324 156.138C60.7234 156.082 59.5379 155.785 58.4459 155.263C57.3539 154.741 56.3777 154.006 55.575 153.1C51.4256 148.691 52.1258 145.009 55.5231 141.508Z" fill="#FBBEAA"/>
<path d="M70.7811 157.293L29.0329 204.239C24.03 210.907 12.3394 214.571 5.19663 208.394C3.87574 207.236 2.80369 205.823 2.04549 204.239C1.2873 202.655 0.85875 200.933 0.785863 199.179C0.712976 197.424 0.997264 195.673 1.62147 194.032C2.24568 192.39 3.19681 190.893 4.41716 189.63L55.0114 136.671L70.7811 157.293Z" fill="#90A2B7"/>
<path d="M88.6926 122.083C88.6999 122.126 88.6982 122.17 88.6875 122.212C88.6768 122.255 88.6575 122.294 88.6306 122.328C88.6037 122.362 88.5699 122.391 88.5314 122.411C88.493 122.431 88.4508 122.443 88.4074 122.446L86.2808 122.654H85.2435C84.8804 122.654 84.5432 122.784 84.1802 122.809C83.7966 122.925 83.4236 123.072 83.0651 123.25L81.8721 123.743C80.2642 124.391 78.6563 124.988 77.4634 125.429C76.2704 125.87 75.4406 126.129 75.4406 126.129C75.3748 126.157 75.301 126.159 75.2338 126.135C75.1666 126.111 75.1108 126.062 75.0775 125.999C75.0291 125.936 75.0029 125.859 75.0029 125.779C75.0029 125.699 75.0291 125.622 75.0775 125.558L77.0225 124.547L79.0453 123.587C79.7714 123.25 80.5754 122.913 81.3793 122.602L82.5982 122.135C82.9902 121.958 83.3984 121.819 83.8171 121.72L85.0619 121.591H86.1252H87.7071H88.3036C88.3689 121.539 88.4521 121.515 88.5348 121.525C88.6175 121.535 88.6929 121.577 88.7445 121.642C88.7961 121.708 88.8196 121.791 88.8099 121.874C88.8001 121.956 88.7579 122.032 88.6926 122.083ZM88.1998 128.333H87.7331C87.3448 128.299 86.9542 128.299 86.566 128.333L85.7621 128.463C85.4657 128.5 85.1715 128.552 84.8804 128.619L83.1169 129.189C81.9239 129.578 80.7569 130.071 79.8752 130.434C79.8752 130.434 79.5899 130.434 79.6158 130.564H79.3047L78.8379 130.693H78.5526H78.397C78.3187 130.712 78.2506 130.76 78.2071 130.828C78.1636 130.895 78.148 130.977 78.1636 131.056C78.1749 131.118 78.2065 131.175 78.2534 131.217C78.3003 131.26 78.36 131.285 78.4229 131.29H79.7455H80.1604C81.0681 131.056 82.287 130.693 83.4799 130.278L85.2175 129.63L86.0214 129.422L86.7216 129.215C87.0797 129.109 87.4434 129.022 87.8109 128.956L88.2518 128.826C88.291 128.814 88.3274 128.795 88.3591 128.769C88.3907 128.743 88.417 128.711 88.4362 128.675C88.4555 128.638 88.4674 128.599 88.4714 128.558C88.4753 128.517 88.4712 128.476 88.4592 128.437C88.4285 128.399 88.3885 128.369 88.3431 128.351C88.2977 128.333 88.2483 128.327 88.1998 128.333ZM88.1998 135.698H87.2403C86.981 135.698 86.6439 135.698 86.3067 135.88L85.2435 136.217C84.5744 136.453 83.9242 136.739 83.2984 137.073C83.0108 137.208 82.7334 137.364 82.4686 137.54C82.4156 137.601 82.3865 137.679 82.3865 137.76C82.3865 137.841 82.4156 137.919 82.4686 137.981C82.543 138.059 82.6454 138.106 82.7538 138.11L83.7134 137.955C84.258 137.825 84.9582 137.618 85.6584 137.384L86.6698 136.969L87.5515 136.632C87.8451 136.502 88.1309 136.355 88.4074 136.191C88.4807 136.148 88.5349 136.078 88.5589 135.996C88.583 135.914 88.5751 135.827 88.537 135.75C88.4601 135.701 88.3675 135.683 88.2776 135.698H88.1998Z" fill="#F18380"/>
<path d="M108.067 120.168H108.799V121.114H109.579V120.168H110.311V122.754H109.579V121.73H108.799V122.754H108.067V120.168H108.067ZM112.922 120.168V122.754H112.215V120.781H111.752V121.523C111.752 121.857 111.727 122.265 111.532 122.495C111.338 122.751 110.971 122.829 110.557 122.751V122.11C110.946 122.188 111.045 122.033 111.045 121.521V120.163H112.922V120.168ZM113.532 120.168H114.264L114.678 121.704L115.091 120.168H115.823L116.165 122.754H115.483L115.313 121.37L114.921 122.754H114.434L114.044 121.37L113.874 122.754H113.192L113.532 120.168L113.532 120.168ZM116.433 120.168H117.165V121.218L117.872 120.168H118.677L117.751 121.448L118.702 122.754H117.825L117.167 121.704V122.754H116.436V120.168H116.434H116.433ZM113.286 117.401C108.897 117.401 105.994 119.066 105.994 121.523C105.994 123.956 108.895 125.645 113.286 125.645C117.7 125.645 120.579 123.954 120.579 121.523C120.579 119.066 117.702 117.401 113.286 117.401ZM113.286 125.262C109.163 125.262 106.41 123.752 106.41 121.523C106.41 119.271 109.166 117.784 113.286 117.784C117.431 117.784 120.165 119.268 120.165 121.523C120.165 123.752 117.433 125.262 113.286 125.262ZM113.286 118.143C109.41 118.143 106.824 119.501 106.824 121.523C106.824 123.545 109.41 124.903 113.286 124.903C117.163 124.903 119.749 123.545 119.749 121.523C119.751 119.501 117.165 118.143 113.286 118.143ZM113.286 124.828C109.456 124.828 106.897 123.496 106.897 121.525C106.897 119.555 109.459 118.223 113.286 118.223C117.114 118.223 119.675 119.555 119.675 121.525C119.677 123.496 117.116 124.828 113.286 124.828V124.828Z" fill="white"/>
<circle cx="107.214" cy="141.343" r="2.5" fill="#90A2B7"/>
<circle cx="107.214" cy="154.143" r="2.5" fill="#90A2B7"/>
<circle cx="107.214" cy="166.333" r="2.5" fill="#90A2B7"/>
<defs>
<clipPath id="clip0_21_292">
<rect width="74" height="97" fill="white" transform="translate(55.3828)"/>
</clipPath>
</defs>
</svg>
