<svg width="198" height="514" viewBox="0 0 198 514" fill="none" xmlns="http://www.w3.org/2000/svg">
<path d="M143.448 21.4018C144.901 26.9633 145.764 32.6627 146.02 38.4053C146.325 43.1849 147.906 47.7953 150.599 51.756C153.171 55.0744 156.541 58.5214 155.306 68.8109H89.4275C89.4275 68.8109 86.8552 63.6661 89.942 54.8429C93.5781 43.9502 96.2549 32.7606 97.9421 21.4018H143.448Z" fill="#BC664A"/>
<path d="M130.843 51.7561V73.5957C130.843 73.5957 129.119 81.1328 117.569 81.1328C115.276 81.3262 112.996 80.6342 111.197 79.199C109.398 77.7638 108.217 75.6943 107.897 73.4156V51.7561H130.843Z" fill="#FBBEAA"/>
<path d="M107.897 70.0458C115.151 73.4671 125.723 70.4059 130.843 60.9138V51.7561H107.897V70.0458Z" fill="#F18380"/>
<path d="M93.569 35.061C93.4592 40.2925 93.6912 45.5256 94.2636 50.7269C95.2154 58.1354 97.8392 66.367 110.984 66.367C124.129 66.367 130.792 60.4505 133.621 50.7269C135.319 44.8361 138.766 36.1672 137.351 26.1091C135.936 16.0511 129.891 9.5172 115.614 9.13135C101.338 8.74549 91.9999 15.1765 93.569 35.061Z" fill="#FBBEAA"/>
<path d="M121.351 39.5373C121.259 39.9161 121.063 40.2617 120.785 40.5348C120.507 40.8079 120.158 40.9976 119.778 41.0822C119.397 41.1668 119.001 41.1431 118.633 41.0136C118.266 40.8842 117.942 40.6543 117.698 40.3499C117.455 40.0456 117.302 39.6791 117.256 39.292C117.21 38.905 117.274 38.5129 117.44 38.1603C117.607 37.8078 117.868 37.5088 118.196 37.2975C118.523 37.0862 118.903 36.971 119.293 36.9649C119.599 36.9935 119.896 37.0834 120.167 37.2293C120.437 37.3752 120.676 37.5742 120.868 37.8142C121.06 38.0543 121.202 38.3306 121.285 38.6266C121.368 38.9227 121.39 39.2324 121.351 39.5373Z" fill="#403D4F"/>
<path d="M102.289 39.5373C102.198 39.9161 102.002 40.2617 101.724 40.5348C101.446 40.8079 101.097 40.9976 100.717 41.0822C100.336 41.1668 99.9395 41.1431 99.5719 41.0136C99.2043 40.8842 98.8803 40.6543 98.6369 40.3499C98.3934 40.0456 98.2402 39.6791 98.1946 39.292C98.149 38.905 98.2129 38.5129 98.379 38.1603C98.5451 37.8078 98.8067 37.5088 99.1342 37.2975C99.4617 37.0862 99.8418 36.971 100.232 36.9649C100.536 36.9969 100.832 37.089 101.101 37.236C101.369 37.383 101.606 37.5819 101.798 37.8212C101.989 38.0605 102.131 38.3354 102.216 38.6299C102.3 38.9245 102.325 39.2329 102.289 39.5373Z" fill="#403D4F"/>
<path d="M115.152 32.2576C115.152 32.2576 115.151 32.2576 115.357 32.0518C115.565 31.8501 115.798 31.6771 116.052 31.5374C116.376 31.3517 116.722 31.2049 117.081 31.1001C117.918 30.8703 118.787 30.7833 119.653 30.8428C120.017 30.8616 120.379 30.9132 120.734 30.9972L121.737 31.2801C121.902 31.3335 122.041 31.4493 122.122 31.603C122.204 31.7567 122.223 31.9361 122.174 32.1033C122.132 32.2348 122.05 32.3499 121.939 32.4328C121.828 32.5157 121.695 32.5624 121.557 32.5663H119.627C119.294 32.541 118.958 32.541 118.624 32.5663C118.294 32.5967 117.966 32.657 117.647 32.7464C117.312 32.7464 117.081 32.9264 116.824 32.9522C116.641 33.0291 116.451 33.0894 116.258 33.1322H116.026C115.866 33.2021 115.684 33.2061 115.521 33.1436C115.357 33.0811 115.225 32.9569 115.152 32.7978C115.113 32.7084 115.094 32.6121 115.094 32.5149C115.094 32.4176 115.113 32.3213 115.152 32.2319V32.2576Z" fill="#403D4F"/>
<path d="M102.624 33.2349C102.624 33.2349 102.624 33.2349 102.47 33.2349L102.084 33.0805H101.801C101.699 33.0582 101.594 33.0582 101.492 33.0805C101.265 33.0054 101.033 32.9453 100.798 32.9005C100.558 32.8737 100.317 32.8737 100.078 32.9005H98.6112C98.5246 32.9005 98.4388 32.8831 98.359 32.8492C98.2793 32.8153 98.2072 32.7656 98.1471 32.7031C98.0871 32.6406 98.0403 32.5667 98.0095 32.4857C97.9787 32.4046 97.9647 32.3182 97.9681 32.2317C97.9731 32.104 98.0144 31.9805 98.0874 31.8757C98.1603 31.7708 98.2618 31.689 98.3797 31.64L99.1772 31.357C99.4617 31.2719 99.7552 31.2201 100.052 31.2027C100.401 31.1517 100.757 31.1517 101.106 31.2027C101.778 31.2869 102.416 31.5439 102.959 31.9487L103.447 32.4374C103.576 32.5918 103.576 32.6432 103.576 32.669V32.9005C103.599 33.0771 103.552 33.2557 103.447 33.3994C103.342 33.543 103.185 33.6407 103.01 33.6722C102.834 33.5766 102.697 33.4216 102.624 33.2349Z" fill="#403D4F"/>
<path d="M107.897 48.3094C107.464 48.3069 107.035 48.2167 106.637 48.0443C106.239 47.8719 105.88 47.6208 105.582 47.3061C105.473 47.1895 105.389 47.0516 105.336 46.9011C105.283 46.7506 105.262 46.5907 105.273 46.4315C105.273 46.1486 105.711 42.5987 105.865 41.2867C105.895 41.1598 105.967 41.047 106.07 40.9674C106.173 40.8877 106.301 40.846 106.431 40.8494C106.563 40.8686 106.682 40.9384 106.764 41.044C106.846 41.1496 106.883 41.2827 106.868 41.4154C106.868 41.5954 106.302 46.2515 106.251 46.5601C106.461 46.7933 106.72 46.9783 107.008 47.1026C107.297 47.2269 107.609 47.2875 107.923 47.2804C108.055 47.287 108.179 47.3441 108.27 47.4399C108.361 47.5357 108.412 47.6628 108.412 47.7949C108.405 47.9293 108.349 48.0566 108.254 48.1517C108.159 48.2469 108.032 48.3031 107.897 48.3094Z" fill="#F18380"/>
<path d="M105.531 53.3768C104.579 53.6083 104.219 55.0489 104.81 56.7209C105.394 57.8722 106.349 58.7929 107.52 59.3344C108.692 59.8759 110.012 60.0064 111.267 59.7049C111.952 59.6723 112.624 59.5031 113.243 59.2072C113.861 58.9112 114.415 58.4946 114.87 57.9817C115.326 57.4688 115.674 56.87 115.894 56.2206C116.115 55.5711 116.203 54.8841 116.155 54.2C116.155 53.0938 115.383 52.4507 113.942 52.4507C111.118 52.5262 108.304 52.8359 105.531 53.3768Z" fill="#73102A"/>
<path d="M116.155 54.3286V54.0971C114.272 53.662 112.294 53.9491 110.613 54.9017C108.931 55.8544 107.669 57.4031 107.074 59.2419C108.397 59.8904 109.886 60.1236 111.344 59.9107C112.03 59.8687 112.7 59.6898 113.315 59.3847C113.93 59.0796 114.478 58.6544 114.927 58.1341C115.375 57.6139 115.714 57.0091 115.925 56.3556C116.136 55.702 116.214 55.0128 116.155 54.3286Z" fill="#D65155"/>
<path d="M106.354 54.9203C109.612 54.9708 112.855 54.4752 115.949 53.454C115.755 53.1036 115.46 52.8201 115.101 52.641C114.743 52.4619 114.339 52.3956 113.943 52.4508C111.118 52.5262 108.304 52.836 105.531 53.3769C105.265 53.4685 105.032 53.6374 104.863 53.8619C104.693 54.0864 104.594 54.3564 104.579 54.6373C105.148 54.8394 105.75 54.9353 106.354 54.9203Z" fill="white"/>
<path d="M120.656 24.9522C120.656 24.9522 123.228 37.8141 134.135 42.8046C134.135 42.8046 145.248 36.3479 143.962 24.0261C142.367 8.84902 120.81 -8.23165 99.3566 7.92296C97.2729 7.58855 95.0092 3.18976 95.6781 0C94.8012 0.551018 94.111 1.35385 93.6978 2.3035C93.2846 3.25315 93.1677 4.30539 93.3622 5.3226C93.5568 6.33981 94.0538 7.27462 94.7882 8.00477C95.5227 8.73492 96.4604 9.22641 97.4788 9.41495C93.9769 9.90282 90.7988 11.7246 88.6082 14.5C86.4177 17.2754 85.384 20.7897 85.7229 24.3091C85.8327 26.528 86.7566 28.6286 88.318 30.209C89.8794 31.7893 91.9687 32.7386 94.1861 32.8751H97.9675C100.893 31.5344 103.258 29.2144 104.656 26.3155C104.292 28.5007 103.533 30.6013 102.418 32.515C102.212 32.9009 102.675 33.5697 105.839 32.9009C109.471 31.6514 112.507 29.0924 114.354 25.7239C113.662 27.9327 112.739 30.0624 111.601 32.0777C111.601 32.4636 113.273 33.0295 115.743 31.8976C117.118 31.2995 118.303 30.3359 119.17 29.1114C120.036 27.8868 120.55 26.4484 120.656 24.9522Z" fill="#BC664A"/>
<path d="M103.781 35.0614C104.707 35.0614 105.067 36.7592 105.067 38.3798C104.973 40.5749 104.317 42.7093 103.164 44.5792C102.692 45.1435 102.08 45.5737 101.389 45.8265C100.698 46.0794 99.9528 46.146 99.2281 46.0198C98.3456 46.1563 97.4439 46.0981 96.5862 45.8492C95.7286 45.6004 94.9358 45.1669 94.2634 44.5792C92.8474 42.8058 92.0041 40.6437 91.8453 38.3798C91.8453 36.7592 92.3341 35.0614 93.4916 35.0614H103.781Z" stroke="#403D4F" stroke-width="0.75" stroke-miterlimit="10"/>
<path d="M111.55 35.0614C110.315 35.0614 109.827 36.7592 109.827 38.3798C109.995 40.6691 110.897 42.8431 112.399 44.5792C113.11 45.1627 113.934 45.5921 114.82 45.8401C115.706 46.0881 116.633 46.1493 117.544 46.0198C119.856 46.3171 122.2 45.8084 124.181 44.5792C125.987 42.9853 127.134 40.7746 127.396 38.3798C127.396 36.7592 126.779 35.0614 125.209 35.0614H111.55Z" stroke="#403D4F" stroke-width="0.75" stroke-miterlimit="10"/>
<path d="M104.861 36.6048C105.601 36.0416 106.504 35.7365 107.434 35.7365C108.363 35.7365 109.267 36.0416 110.006 36.6048" stroke="#403D4F" stroke-width="0.75" stroke-miterlimit="10"/>
<path d="M125.26 35.0614H128.398C129.067 35.0614 129.839 35.2157 129.839 36.1161V37.5566C129.839 37.9168 127.549 38.637 127.266 39.4345" stroke="#403D4F" stroke-width="0.75" stroke-miterlimit="10"/>
<path d="M136.682 38.8175L129.839 36.1165" stroke="#403D4F" stroke-width="0.75" stroke-miterlimit="10"/>
<path d="M133.159 44.708C133.365 41.2096 134.291 37.1195 138.561 37.7369C143.551 38.5086 144.04 52.0136 133.416 50.393L133.159 44.708Z" fill="#FBBEAA"/>
<path d="M138.92 45.6085C138.831 45.6097 138.743 45.5864 138.665 45.541C138.588 45.4957 138.525 45.43 138.483 45.3512C138.37 45.1285 138.202 44.9384 137.995 44.7988C137.788 44.6593 137.548 44.5749 137.299 44.5538C137.003 44.557 136.712 44.6369 136.455 44.7856C136.198 44.9343 135.984 45.1469 135.833 45.4027C135.772 45.4906 135.683 45.556 135.581 45.5885C135.478 45.621 135.368 45.619 135.267 45.5827C135.158 45.5526 135.064 45.4836 135.003 45.3888C134.941 45.2941 134.916 45.18 134.933 45.0683C134.977 43.9863 135.314 42.9366 135.908 42.0307C136.501 41.1248 137.329 40.3966 138.303 39.9235C138.368 39.8846 138.441 39.8607 138.517 39.8536C138.593 39.8464 138.67 39.8562 138.741 39.8822C138.813 39.9082 138.878 39.9498 138.931 40.0039C138.985 40.0581 139.026 40.1234 139.051 40.1953C139.076 40.2671 139.085 40.3436 139.077 40.4194C139.069 40.4951 139.045 40.5681 139.005 40.6332C138.965 40.6983 138.912 40.7537 138.848 40.7956C138.785 40.8374 138.713 40.8647 138.637 40.8753C138.059 41.1563 137.544 41.5521 137.124 42.0385C136.704 42.525 136.387 43.092 136.193 43.7049C136.552 43.5278 136.951 43.448 137.351 43.4734C137.767 43.5127 138.167 43.6527 138.516 43.8813C138.866 44.1099 139.155 44.4201 139.357 44.7853C139.414 44.9022 139.424 45.036 139.386 45.1601C139.348 45.2841 139.264 45.3891 139.152 45.4541L138.92 45.6085Z" fill="#F18380"/>
<path d="M28.9344 78.8223C28.834 76.6299 29.4209 74.461 30.6131 72.6184C32.4485 70.4902 33.8236 69.967 34.6518 67.2814C35.2888 64.7885 36.3064 62.4087 37.6686 60.2259C38.6418 58.8878 40.1016 57.793 40.1016 56.7712C40.1016 55.7493 38.1552 53.7787 35.3817 54.3382C34.1937 54.7083 33.1021 55.3364 32.1852 56.1776C31.2683 57.0188 30.5487 58.0523 30.0778 59.2041C29.8121 58.5023 29.6563 57.7638 29.6157 57.0145L29.0074 40.1388C28.9982 39.7522 28.9116 39.3713 28.7527 39.0187C28.5938 38.6661 28.3659 38.3489 28.0824 38.0859C27.7989 37.8228 27.4656 37.6192 27.1022 37.4871C26.7387 37.3549 26.3525 37.297 25.9663 37.3166C25.3514 37.3428 24.7601 37.5611 24.2757 37.9408C24.0299 38.1334 19.9148 43.1241 15.8981 48.0708C11.9994 52.8723 8.19344 57.6325 8.10853 57.9235C8.88948 65.0149 10.3561 72.0139 12.4878 78.8223C12.5136 79.9591 12.777 81.0779 13.261 82.1068C13.745 83.1357 14.4389 84.052 15.2982 84.7967C16.1574 85.5414 17.163 86.098 18.2503 86.4308C19.3376 86.7637 20.4824 86.8654 21.6113 86.7293C22.6329 86.7634 23.6499 86.5774 24.5933 86.1839C25.5367 85.7904 26.3844 85.1985 27.079 84.4486C27.7736 83.6986 28.2988 82.8081 28.6189 81.8373C28.939 80.8666 29.0466 79.8383 28.9344 78.8223Z" fill="#FBBEAA"/>
<path d="M23.3019 34.5323L10.5617 46.8354C7.49174 50.2778 6.04039 53.7649 5.81095 56.9882C5.81657 56.994 5.81315 56.9973 5.81596 57.0002C5.48956 61.5088 7.54823 65.4905 10.8537 68.0602C10.9161 68.118 10.991 68.175 11.0602 68.2262C11.0805 68.2404 11.0973 68.2578 11.1114 68.2723C12.9251 69.6181 15.0946 70.5473 17.4313 70.9327C18.2038 71.0637 19.0009 71.1314 19.8115 71.1244C19.8793 71.1264 19.9223 71.1298 19.9319 71.1262C19.9506 71.125 19.9783 71.1264 20.0184 71.127C23.6554 71.0774 27.5311 69.6844 31.0579 66.5035L43.0457 54.9776L23.3019 34.5323Z" fill="#0099FF"/>
<path d="M5.8118 57.0032C5.30233 64.0664 10.6384 69.8242 17.4306 70.9325C18.6176 71.0285 19.4944 71.1037 19.8108 71.1242C19.8786 71.1261 19.9215 71.1296 19.9312 71.1259C19.9498 71.1248 19.9775 71.1262 20.0176 71.1267C20.7115 71.0807 26.052 70.5834 33.2452 63.3559C38.7804 57.7971 41.1099 55.7723 41.1099 55.7723L33.9402 52.8532C33.9402 52.8532 22.76 64.8809 16.1211 65.8563C9.47823 66.8411 6.17382 61.2349 5.8118 57.0032Z" fill="#0099FF"/>
<path d="M23.3003 34.5332L10.5601 46.8362C8.9326 48.6665 7.75959 50.4963 6.98746 52.3043C6.98405 52.3076 6.98405 52.3076 6.97723 52.3142C6.29679 53.91 5.91893 55.4779 5.80933 56.989L5.81254 57.0196C5.81073 57.0382 5.81454 57.0626 5.81373 57.1028C5.51864 61.5756 7.57309 65.5051 10.8487 68.0643C10.4079 67.6693 9.84734 66.884 9.36342 65.8505C9.3249 65.7696 9.28638 65.6888 9.25067 65.6108C9.21496 65.5329 9.18546 65.4546 9.14975 65.3766C9.10461 65.2684 9.06006 65.1541 9.02174 65.0393C8.97159 64.9191 8.92545 64.7894 8.88713 64.6746C8.85222 64.5566 8.8117 64.4327 8.77679 64.3146L8.77458 64.3055C8.72623 64.1667 8.69594 64.0329 8.66384 63.9178C8.6175 63.7264 8.56896 63.526 8.53004 63.3219C8.52121 63.2854 8.51961 63.2701 8.51961 63.2701C8.08068 61.0408 8.31009 58.3908 10.2229 56.0096C12.9261 52.6516 18.2242 47.7826 21.4512 44.9193C23.0486 43.4947 24.1433 42.5669 24.1433 42.5669C24.1433 42.5669 23.6347 40.5453 23.2371 39.1642C23.0305 38.4588 22.8579 37.9115 22.7969 37.9029C22.6152 37.8649 23.2623 34.7328 23.3059 34.539L23.3003 34.5332Z" fill="#0099FF"/>
<path d="M23.3015 34.5329L10.5613 46.836C8.93386 48.6662 7.76085 50.496 6.98872 52.3041C8.29718 50.0343 11.1543 45.8868 15.9244 43.8773C18.0352 42.9913 19.7318 43.6014 21.4463 44.9194C23.6147 46.5915 25.8155 49.3961 28.9362 51.7676C34.53 56.0174 42.1795 55.8087 42.4387 55.5583L42.7594 55.2487L41.3543 55.5207L36.7656 54.2913L33.5973 52.1232C33.5973 52.1232 26.8532 45.1394 26.6285 44.9067C26.4037 44.674 23.2259 39.1647 23.2259 39.1647L23.2947 34.5395L23.3015 34.5329Z" fill="#0099FF"/>
<path d="M33.7472 53.0415L32.7831 54.0569C32.7831 54.0569 29.3321 52.4765 26.8847 50.0788C24.7566 47.991 21.4495 44.9282 21.4495 44.9282L24.1416 42.5758L28.6551 47.7002L33.7472 53.0415Z" fill="#0099FF"/>
<path d="M41.1065 55.7763L40.7768 56.0834C41.3209 56.0189 41.9091 55.8838 42.4378 55.5644L43.0415 54.9813L41.1065 55.7763Z" fill="#0099FF"/>
<path d="M41.1062 55.7762L40.7765 56.0834C40.7765 56.0834 39.6278 56.2932 36.3568 55.4385C34.6112 54.9825 32.7752 54.0574 32.7752 54.0574L33.9303 52.8575C33.9303 52.8575 37.842 54.7238 37.8893 54.8411C37.9463 54.9547 41.1062 55.7762 41.1062 55.7762Z" fill="#0099FF"/>
<path d="M28.8767 48.9071C23.4254 43.2621 20.9305 36.8278 23.3042 34.5355C25.6778 32.2433 32.0212 34.9613 37.4725 40.6063C42.9239 46.2513 45.4188 52.6857 43.0451 54.9779C40.6715 57.2701 34.3281 54.5521 28.8767 48.9071Z" fill="#A3A9AA"/>
<path d="M24.0755 34.8855C23.0045 35.9198 23.1914 38.0384 24.3614 40.6016C24.8686 41.7139 25.5646 42.9192 26.4227 44.1423C26.5102 44.2602 26.5971 44.3843 26.6902 44.508C27.5541 45.703 28.5677 46.9164 29.7138 48.1032C30.9103 49.3423 32.1485 50.4401 33.3565 51.3702C37.3695 54.4541 41.1672 55.7108 42.7294 54.2022C43.6368 53.326 43.636 51.6459 42.8897 49.5898C42.8897 49.5898 42.8897 49.5898 42.8875 49.5807C42.3524 48.1187 41.445 46.4486 40.2229 44.7394C39.3355 43.4997 38.2816 42.224 37.085 40.9849C35.8884 39.7458 34.6503 38.6479 33.4366 37.712C29.4293 34.634 25.6344 33.3801 24.0755 34.8855Z" fill="#475150"/>
<path d="M5.81193 57.1059C5.51684 61.5787 7.57131 65.5083 10.8469 68.0675C10.8469 68.0675 9.94024 67.0262 9.36163 65.8536C9.32311 65.7728 9.28459 65.6919 9.24887 65.614C9.21316 65.5361 9.18366 65.4577 9.14795 65.3798C9.09719 65.2658 9.05547 65.1543 9.01996 65.0425C8.9698 64.9223 8.92365 64.7926 8.88533 64.6778C8.84541 64.5477 8.8043 64.43 8.77501 64.3178L8.77279 64.3087C8.72444 64.1699 8.69414 64.0361 8.66204 63.921C8.57959 63.624 8.54128 63.4136 8.52824 63.325C8.51942 63.2886 8.51782 63.2733 8.51782 63.2733C8.51782 63.2733 7.42555 62.0739 6.75545 60.6974C5.85021 58.8453 5.8372 57.6099 5.81193 57.1059Z" fill="#0099FF"/>
<path d="M16.2182 65.3086C15.4941 66.3677 15.2665 67.2788 15.8594 67.9542C17.447 69.7825 23.3877 68.835 27.3705 65.2867C31.3506 61.7355 33.9824 56.7881 32.3948 54.9598C32.3083 54.8634 32.2206 54.7795 32.1187 54.7149L32.1131 54.7091C30.3392 53.3978 26.3149 55.7495 22.5327 59.1096C20.0504 61.3381 17.4322 63.5348 16.2182 65.3086Z" fill="#0099FF"/>
<path d="M15.8605 65.894C15.8605 65.894 19.6241 65.8458 23.431 62.9959C25.8803 61.1702 32.1205 54.7169 32.1205 54.7169L32.1149 54.7111C30.3411 53.3999 26.4128 55.5576 22.565 58.8293C16.3044 64.1556 15.8605 65.894 15.8605 65.894Z" fill="#0099FF"/>
<path d="M33.4378 37.7118L26.5714 44.3426C26.5714 44.3426 28.3806 46.7553 29.715 48.103C30.9286 49.3256 32.1497 50.4399 33.3577 51.37L40.2241 44.7392C39.3367 43.4995 38.2828 42.2238 37.0862 40.9847C35.8868 39.7427 34.6487 38.6448 33.4378 37.7118Z" fill="#5E6466"/>
<path d="M24.0771 34.8853C23.006 35.9196 23.2774 37.9959 24.363 40.6014C25.0072 42.1491 26.5717 44.3426 26.5717 44.3426C26.5717 44.3426 29.8052 41.3494 31.7663 39.3937C32.7285 38.4309 33.4382 37.7118 33.4382 37.7118C29.4308 34.6338 25.6359 33.3799 24.0771 34.8853Z" fill="#747A7C"/>
<path d="M24.0758 34.8855C23.0047 35.9198 23.1917 38.0384 24.3617 40.6016C26.0948 37.8431 28.5994 37.9315 31.7177 39.3722C31.7364 39.371 31.7504 39.3856 31.7651 39.3939C32.3626 39.6713 32.983 39.9997 33.6252 40.3576C35.4296 41.3865 37.6325 43.5312 39.4393 45.4908C41.379 47.6087 42.8571 49.5147 42.8872 49.5869C42.8872 49.5869 42.8872 49.5869 42.885 49.5778C42.3499 48.1158 41.4424 46.4457 40.2204 44.7365C39.333 43.4968 38.2791 42.2211 37.0825 40.982C36.3971 40.2722 35.6979 39.6096 35.0001 38.9962C34.4788 38.5384 33.9579 38.1082 33.4369 37.712C29.4296 34.634 25.6347 33.3801 24.0758 34.8855Z" fill="#929799"/>
<path d="M33.438 37.7118L31.7662 39.3937C32.3637 39.6712 32.984 39.9996 33.6263 40.3575C35.4306 41.3863 37.6336 43.531 39.4403 45.4907L40.2215 44.7364C39.3341 43.4966 38.2801 42.2209 37.0835 40.9818C36.3982 40.2721 35.6989 39.6095 35.0011 38.9961L33.438 37.7118Z" fill="#6F7577"/>
<path d="M39.4405 45.4907L40.2216 44.7364C40.2216 44.7364 41.1299 45.8886 41.8108 47.249C42.4917 48.6095 42.8884 49.5868 42.8884 49.5868L39.4405 45.4907Z" fill="#5E6466"/>
<path d="M27.7612 45.8256C28.8183 47.1319 30.1331 48.5549 31.7775 50.0529C36.8703 54.7191 40.3612 54.8049 40.3612 54.8049C40.3612 54.8049 41.4492 53.6925 36.781 48.0598C36.781 48.0598 37.5079 49.2016 37.7382 50.2047C37.8638 50.7579 37.5538 51.5632 35.7301 51.2107C34.2741 50.9248 29.73 47.8986 27.7612 45.8256Z" fill="#475150"/>
<path d="M30.9047 43.7044C30.7853 43.8197 30.9286 44.1592 31.2207 44.4617C31.5128 44.7642 31.8471 44.9192 31.9665 44.8039C32.0859 44.6886 31.9454 44.352 31.6505 44.0466C31.355 43.7474 31.0207 43.5924 30.9047 43.7044Z" fill="#5E6466"/>
<path d="M21.4889 44.8485C22.8708 42.6439 20.0648 39.7367 18.2845 38.6007C18.2845 38.6007 17.2131 37.361 14.9925 39.5817C12.5402 42.0341 14.0116 43.7125 14.0116 43.7125C15.6139 45.4165 19.3527 48.2564 21.4889 44.8485Z" fill="#FBBEAA"/>
<path d="M17.5653 49.1172C18.9472 46.9127 16.1413 44.0054 14.3609 42.8695C14.3609 42.8695 13.2895 41.6298 11.0689 43.8505C8.6166 46.3029 10.088 47.9813 10.088 47.9813C11.6903 49.6852 15.4291 52.5251 17.5653 49.1172Z" fill="#FBBEAA"/>
<path d="M13.6417 53.0409C15.0236 50.8363 12.2177 47.9291 10.4373 46.7931C10.4373 46.7931 9.36592 45.5534 7.14531 47.7741C4.69302 50.2265 6.16439 51.9049 6.16439 51.9049C7.76671 53.6089 11.5055 56.4488 13.6417 53.0409Z" fill="#FBBEAA"/>
<path d="M8.80028 56.5334C9.94556 54.6856 7.62009 52.2489 6.14459 51.2968C6.14459 51.2968 5.25665 50.2577 3.41628 52.119C1.3839 54.1745 2.60333 55.5813 2.60333 55.5813C3.93128 57.0094 7.02989 59.3897 8.80028 56.5334Z" fill="#FBBEAA"/>
<path d="M111.904 475.876C111.904 473.533 110.974 471.287 109.318 469.631C107.661 467.975 105.415 467.044 103.073 467.044C100.73 467.044 98.4842 467.975 96.8279 469.631C95.1717 471.287 94.2412 473.533 94.2412 475.876V495.071H111.904V475.876Z" fill="#FBBEAA"/>
<path d="M94.8737 479.452C92.7084 479.452 92.3191 480.401 91.6865 481.642C90.6606 484.949 88.9064 487.983 86.5531 490.522C83.0397 493.515 79.2704 496.193 75.2886 498.527V508.696H114.605C114.605 508.696 114.337 500.667 114.142 494.999C113.948 489.33 113.388 482.421 113.437 481.691C113.486 480.961 113.437 479.452 112.099 479.452H94.8737Z" fill="#302D3B"/>
<path d="M109.715 495.558C109.72 496.806 109.354 498.028 108.663 499.068C107.973 500.108 106.989 500.919 105.836 501.399C104.684 501.879 103.415 502.006 102.19 501.764C100.966 501.521 99.8408 500.921 98.9581 500.038C98.0754 499.155 97.4748 498.03 97.2324 496.806C96.9901 495.581 97.1169 494.312 97.5968 493.16C98.0768 492.007 98.8882 491.023 99.9282 490.333C100.968 489.642 102.19 489.276 103.438 489.281C105.101 489.287 106.694 489.951 107.869 491.126C109.045 492.302 109.709 493.895 109.715 495.558Z" fill="#93929C"/>
<path d="M103.438 491.86L104.874 493.977L107.331 494.682L105.774 496.701L105.847 499.256L103.438 498.38L101.03 499.256L101.127 496.701L99.5457 494.682L102.003 493.977L103.438 491.86Z" fill="white"/>
<path d="M75.5565 498.356C75.5565 498.356 69.9851 501.3 67.8928 502.736C66.9241 503.392 66.1372 504.283 65.6055 505.325C65.0738 506.367 64.8144 507.527 64.8516 508.696H80.1304C80.1304 508.696 79.8141 501.227 75.5565 498.356Z" fill="white"/>
<path d="M114.605 508.696V512.905C114.605 513.611 113.972 514 112.902 514H66.5301C65.4839 514 64.8514 513.611 64.8514 512.905V508.696H114.605Z" fill="white"/>
<path d="M80.1307 495.51C79.996 495.303 79.786 495.157 79.5452 495.102C79.3045 495.048 79.052 495.089 78.8413 495.218C78.7364 495.282 78.6454 495.367 78.5738 495.467C78.5021 495.567 78.4512 495.681 78.424 495.801C78.3968 495.921 78.3939 496.045 78.4154 496.167C78.4369 496.288 78.4825 496.404 78.5493 496.507L80.1794 499.135C80.2579 499.271 80.3717 499.383 80.5086 499.46C80.6456 499.537 80.8008 499.576 80.9579 499.573C81.1381 499.57 81.3144 499.519 81.4688 499.427C81.5737 499.362 81.6647 499.277 81.7363 499.177C81.808 499.077 81.8589 498.963 81.8861 498.843C81.9133 498.723 81.9162 498.599 81.8947 498.478C81.8732 498.356 81.8277 498.241 81.7608 498.137L80.1307 495.51Z" fill="white"/>
<path d="M83.0014 493.49C82.9215 493.397 82.8242 493.321 82.7149 493.266C82.6057 493.211 82.4866 493.178 82.3647 493.169C82.2427 493.16 82.1201 493.175 82.004 493.214C81.8878 493.252 81.7803 493.313 81.6877 493.393C81.595 493.473 81.519 493.57 81.464 493.679C81.4089 493.788 81.3759 493.907 81.3668 494.029C81.3578 494.151 81.3729 494.274 81.4112 494.39C81.4496 494.506 81.5105 494.614 81.5903 494.707L83.488 496.945C83.5756 497.047 83.6835 497.131 83.805 497.189C83.9264 497.248 84.0588 497.281 84.1936 497.285C84.3698 497.282 84.5416 497.23 84.6898 497.134C84.8379 497.039 84.9566 496.904 85.0323 496.745C85.1081 496.586 85.1381 496.408 85.1188 496.233C85.0996 496.058 85.0319 495.892 84.9234 495.753L83.0014 493.49Z" fill="white"/>
<path d="M85.7018 491.228C85.5082 491.103 85.2759 491.053 85.0482 491.087C84.8204 491.121 84.6127 491.236 84.4638 491.412C84.315 491.588 84.2351 491.811 84.239 492.042C84.243 492.272 84.3305 492.493 84.4853 492.663L86.6506 494.537C86.8203 494.68 87.0363 494.758 87.2588 494.756C87.3928 494.76 87.526 494.734 87.6484 494.68C87.7707 494.625 87.8788 494.542 87.9644 494.439C88.0542 494.355 88.1259 494.253 88.1749 494.14C88.2238 494.027 88.249 493.906 88.249 493.782C88.249 493.659 88.2238 493.537 88.1749 493.424C88.1259 493.311 88.0542 493.21 87.9644 493.126L85.7018 491.228Z" fill="white"/>
<path d="M90.4462 490.108L88.0133 488.6C87.7997 488.474 87.5451 488.436 87.3041 488.495C87.0631 488.554 86.8547 488.705 86.7239 488.916C86.658 489.021 86.6139 489.138 86.5942 489.261C86.5745 489.383 86.5796 489.508 86.6091 489.628C86.6386 489.748 86.6919 489.861 86.766 489.961C86.84 490.06 86.9333 490.143 87.0402 490.206L89.4731 491.714C89.6173 491.81 89.7866 491.861 89.9597 491.86C90.1182 491.856 90.2731 491.812 90.4094 491.731C90.5458 491.65 90.6589 491.535 90.7382 491.398C90.8668 491.187 90.9083 490.935 90.8538 490.694C90.7993 490.453 90.6531 490.243 90.4462 490.108Z" fill="white"/>
<path d="M92.4901 486.97L89.7653 485.827C89.533 485.73 89.2717 485.729 89.039 485.825C88.8064 485.921 88.6213 486.105 88.5245 486.338C88.477 486.451 88.4525 486.573 88.4526 486.695C88.4526 486.818 88.4772 486.94 88.5247 487.053C88.5723 487.166 88.642 487.269 88.7297 487.355C88.8173 487.441 88.9213 487.509 89.0354 487.554L91.7603 488.698H92.1252C92.3351 488.686 92.5353 488.606 92.6945 488.468C92.8536 488.331 92.9625 488.145 93.0043 487.939C93.046 487.733 93.0182 487.519 92.9251 487.33C92.8321 487.142 92.6791 486.989 92.4901 486.897V486.97Z" fill="white"/>
<path d="M94.1931 483.466L91.1763 482.712C90.9376 482.654 90.6855 482.693 90.4756 482.821C90.2658 482.949 90.1152 483.155 90.0571 483.394C89.999 483.632 90.0382 483.884 90.166 484.094C90.2937 484.304 90.4996 484.455 90.7383 484.513L93.7309 485.291H93.9498C94.1593 485.289 94.3625 485.219 94.5291 485.092C94.6957 484.965 94.8167 484.787 94.8743 484.586C94.9264 484.347 94.8848 484.098 94.7579 483.89C94.6311 483.681 94.4288 483.53 94.1931 483.466Z" fill="white"/>
<path d="M124.823 353.111C124.556 341.335 116.625 335.642 104.874 335.934C93.1225 336.226 84.6559 342.381 84.9235 354.132L94.2416 476.825H111.905L124.823 353.111Z" fill="#FBBEAA"/>
<path d="M186.353 475.876C186.353 473.533 185.422 471.287 183.766 469.631C182.11 467.975 179.863 467.044 177.521 467.044C175.179 467.044 172.932 467.975 171.276 469.631C169.62 471.287 168.689 473.533 168.689 475.876V495.071H186.353V475.876Z" fill="#FBBEAA"/>
<path d="M169.346 479.452C167.156 479.452 166.767 480.401 166.159 481.642C165.121 484.949 163.359 487.982 161.001 490.522C157.492 493.521 153.722 496.199 149.737 498.527V508.696H189.053C189.053 508.696 188.785 500.667 188.59 494.999C188.396 489.33 187.861 482.421 187.885 481.691C187.909 480.961 187.885 479.452 186.571 479.452H169.346Z" fill="#302D3B"/>
<path d="M184.186 495.558C184.191 496.805 183.826 498.026 183.136 499.065C182.447 500.105 181.464 500.916 180.313 501.397C179.163 501.877 177.895 502.006 176.671 501.765C175.447 501.525 174.322 500.927 173.438 500.046C172.554 499.166 171.952 498.043 171.707 496.82C171.462 495.597 171.585 494.329 172.061 493.176C172.537 492.024 173.345 491.038 174.382 490.345C175.419 489.651 176.638 489.281 177.885 489.281C179.552 489.281 181.151 489.941 182.332 491.118C183.513 492.294 184.18 493.891 184.186 495.558Z" fill="#93929C"/>
<path d="M177.91 491.86L179.345 493.977L181.802 494.682L180.221 496.701L180.294 499.256L177.91 498.38L175.501 499.256L175.574 496.701L173.993 494.682L176.474 493.977L177.91 491.86Z" fill="white"/>
<path d="M150.029 498.356C150.029 498.356 144.433 501.3 142.365 502.736C141.392 503.387 140.601 504.277 140.069 505.32C139.536 506.363 139.28 507.526 139.324 508.696H154.676C154.676 508.696 154.262 501.227 150.029 498.356Z" fill="white"/>
<path d="M189.053 508.696V512.905C189.053 513.611 188.444 514 187.374 514H140.954C139.883 514 139.275 513.611 139.275 512.905V508.696H189.053Z" fill="white"/>
<path d="M154.578 495.51C154.446 495.3 154.236 495.151 153.994 495.097C153.752 495.042 153.498 495.085 153.289 495.218C153.079 495.35 152.93 495.56 152.876 495.802C152.821 496.044 152.865 496.297 152.997 496.507L154.627 499.135C154.711 499.271 154.83 499.383 154.97 499.46C155.111 499.537 155.269 499.576 155.43 499.573C155.603 499.573 155.772 499.522 155.916 499.427C156.021 499.362 156.112 499.277 156.184 499.177C156.255 499.077 156.306 498.963 156.334 498.843C156.361 498.723 156.364 498.599 156.342 498.478C156.321 498.356 156.275 498.241 156.208 498.137L154.578 495.51Z" fill="white"/>
<path d="M157.474 493.49C157.313 493.303 157.087 493.186 156.842 493.164C156.596 493.141 156.352 493.214 156.16 493.369C155.972 493.533 155.854 493.764 155.831 494.013C155.809 494.262 155.883 494.511 156.038 494.707L157.96 496.945C158.045 497.051 158.152 497.137 158.274 497.196C158.396 497.255 158.53 497.286 158.666 497.285C158.844 497.287 159.019 497.237 159.17 497.142C159.321 497.047 159.441 496.91 159.515 496.748C159.59 496.586 159.616 496.405 159.59 496.229C159.565 496.052 159.489 495.887 159.372 495.753L157.474 493.49Z" fill="white"/>
<path d="M160.15 491.228C159.956 491.103 159.724 491.053 159.496 491.087C159.268 491.121 159.06 491.236 158.912 491.412C158.763 491.588 158.683 491.811 158.687 492.042C158.691 492.272 158.778 492.493 158.933 492.663L161.123 494.537C161.292 494.68 161.508 494.758 161.731 494.756C161.865 494.759 161.997 494.732 162.119 494.677C162.241 494.622 162.35 494.541 162.436 494.439C162.523 494.353 162.592 494.251 162.639 494.138C162.686 494.026 162.71 493.905 162.71 493.782C162.71 493.66 162.686 493.539 162.639 493.427C162.592 493.314 162.523 493.211 162.436 493.126L160.15 491.228Z" fill="white"/>
<path d="M164.894 490.108L162.461 488.6C162.251 488.511 162.016 488.501 161.799 488.572C161.583 488.642 161.399 488.788 161.28 488.982C161.162 489.177 161.118 489.408 161.156 489.633C161.194 489.857 161.312 490.061 161.488 490.206L163.921 491.714C164.065 491.81 164.234 491.861 164.407 491.86C164.569 491.858 164.728 491.815 164.869 491.734C165.009 491.653 165.127 491.537 165.21 491.398C165.336 491.184 165.374 490.93 165.315 490.689C165.256 490.448 165.105 490.239 164.894 490.108Z" fill="white"/>
<path d="M166.937 486.97L164.212 485.827C164.099 485.779 163.977 485.755 163.854 485.755C163.732 485.755 163.61 485.78 163.497 485.827C163.384 485.875 163.281 485.944 163.195 486.032C163.109 486.12 163.041 486.224 162.996 486.338C162.905 486.564 162.905 486.817 162.995 487.043C163.086 487.27 163.26 487.453 163.482 487.554L166.232 488.698C166.344 488.723 166.46 488.723 166.572 488.698C166.759 488.698 166.943 488.642 167.098 488.538C167.254 488.434 167.376 488.287 167.448 488.114C167.522 487.894 167.51 487.654 167.416 487.442C167.321 487.231 167.15 487.062 166.937 486.97Z" fill="white"/>
<path d="M168.641 483.467L165.648 482.713C165.406 482.653 165.151 482.692 164.937 482.819C164.723 482.946 164.568 483.153 164.505 483.394C164.476 483.512 164.47 483.635 164.489 483.755C164.507 483.875 164.55 483.991 164.613 484.095C164.676 484.199 164.759 484.289 164.858 484.361C164.956 484.433 165.068 484.484 165.186 484.513L168.178 485.291H168.422C168.641 485.275 168.848 485.182 169.006 485.03C169.165 484.878 169.266 484.675 169.292 484.457C169.317 484.239 169.267 484.018 169.148 483.833C169.029 483.648 168.85 483.51 168.641 483.442V483.467Z" fill="white"/>
<path d="M176.693 352.745C175.498 347.223 172.159 342.401 167.409 339.34C162.66 336.278 156.89 335.228 151.366 336.42C139.859 338.853 133.655 350.191 136.136 361.699L168.689 478.844H186.571L176.693 352.745Z" fill="#FBBEAA"/>
<path d="M126.357 352.345C126.291 349.549 125.676 346.794 124.545 344.236C123.415 341.678 121.792 339.368 119.769 337.438C117.746 335.507 115.362 333.994 112.754 332.985C110.147 331.976 107.365 331.49 104.57 331.555C101.774 331.621 99.0189 332.236 96.4612 333.367C93.9035 334.497 91.5934 336.12 89.6629 338.143C87.7325 340.166 86.2194 342.55 85.2101 345.158C84.2008 347.766 83.715 350.547 83.7805 353.342L78.2568 479.466H126.356L126.357 352.345Z" fill="#93929C"/>
<path d="M176.69 349.741C175.37 344.352 171.999 339.689 167.295 336.746C162.591 333.802 156.924 332.809 151.5 333.979C146.075 335.148 141.32 338.387 138.246 343.007C135.172 347.627 134.022 353.264 135.039 358.719L147.981 478.976C147.981 478.976 178.977 480.825 197.443 478.976L176.69 349.741Z" fill="#93929C"/>
<path d="M22.2999 134.78L92.1736 81.6933C100.324 76.4868 105.871 79.2604 110.201 84.8318C112.179 87.5284 113.096 90.8582 112.778 94.1871C112.459 97.516 110.927 100.612 108.474 102.884L38.7708 154.243C36.3145 156.318 33.1524 157.364 29.9434 157.165C26.7345 156.966 23.7263 155.535 21.5457 153.173L21.2294 152.832C20.0721 151.597 19.1785 150.14 18.6031 148.549C18.0277 146.957 17.7826 145.265 17.8828 143.576C17.9829 141.886 18.4263 140.235 19.1857 138.723C19.9452 137.211 21.0048 135.869 22.2999 134.78Z" fill="#FBBEAA"/>
<path d="M108.474 102.86C109.119 102.305 109.706 101.685 110.226 101.011C110.685 99.2793 110.745 97.4659 110.399 95.7081C110.053 93.9502 109.312 92.2943 108.231 90.8656C104.557 85.1969 96.8449 80.7446 93.4144 81.5961L90.0084 83.3235L51.4465 112.519C54.8594 120.539 59.4695 127.996 65.1195 134.634L108.474 102.86Z" fill="#F18380"/>
<path d="M97.9397 77.8978L37.4727 118.679C37.727 120.765 31.0239 77.8978 31.0239 77.8978L12.057 80.3662C12.057 80.3662 12.443 123.653 15.2745 146.625C16.4048 155.797 23.9681 159.298 32.9962 157.328C37.4536 156.355 41.6499 154.526 45.3842 151.905C61.4305 140.642 106.448 108.919 110.129 104.928C116.479 98.0425 116.479 92.8847 112.829 87.216C109.18 81.5472 101.37 77.0463 97.9397 77.8978Z" fill="#002A80"/>
<path d="M126.356 353.038L138.837 222.365C138.837 207.938 123.972 192.221 102.051 195.603C82.2473 198.693 76.2136 218.594 77.8437 237.449C79.4737 256.304 83.8774 353.962 83.8774 353.962C83.9429 356.758 84.5584 359.513 85.6887 362.071C86.819 364.628 88.4421 366.938 90.4652 368.869C92.4883 370.799 94.8718 372.312 97.4796 373.322C100.088 374.331 102.869 374.817 105.664 374.751C108.46 374.686 111.215 374.07 113.773 372.94C116.331 371.81 118.641 370.187 120.571 368.164C122.502 366.14 124.015 363.757 125.024 361.149C126.033 358.541 126.519 355.76 126.454 352.965L126.356 353.038Z" fill="#93929C"/>
<path d="M176.693 350.434L164.285 219.786C161.658 205.602 144.019 193.024 123.12 200.469C104.265 207.208 102.075 227.888 107.233 246.11C112.391 264.333 135.041 359.412 135.041 359.412C136.362 364.802 139.732 369.464 144.437 372.407C149.141 375.351 154.808 376.344 160.232 375.175C165.657 374.005 170.412 370.766 173.485 366.146C176.559 361.526 177.71 355.889 176.693 350.434Z" fill="#93929C"/>
<path d="M107.233 246.111C112.367 264.333 135.042 359.412 135.042 359.412" stroke="#5E5D63" stroke-width="0.75" stroke-miterlimit="10"/>
<path d="M110.883 75.8297C110.883 75.8297 100.129 77.703 98.0371 78.2626C96.8023 78.5523 95.6613 79.1508 94.7209 80.0018C93.7805 80.8528 93.0715 81.9286 92.6603 83.1284C91.3222 86.3156 84.4371 107.19 83.8045 109.453C83.3768 111.945 83.7785 114.509 84.948 116.751C85.9455 119.476 91.1033 131.884 91.1033 131.884L91.8818 171.857L120.93 176.464L148.764 171.857C148.764 171.857 158.495 97.5071 158.982 92.9088C159.469 88.3106 157.182 79.4304 151.683 78.3113C146.185 77.1921 131.101 75.8784 131.101 75.8784L110.883 75.8297Z" fill="#FBBEAA"/>
<path d="M90.5178 155.785V169.838C109.543 171.59 139.859 170.349 151.245 169.838C151.78 165.824 152.34 159.012 152.924 154.486C137.426 154.876 111.83 156.32 90.5178 155.785Z" fill="white"/>
<path d="M190.853 168.281L159.687 86.267C155.527 77.5085 149.371 76.9246 142.657 79.3575C139.551 80.5964 137.01 82.936 135.52 85.9295C134.03 88.9229 133.695 92.3603 134.579 95.5851L166.67 176.139C167.642 179.204 169.764 181.773 172.591 183.306C175.417 184.839 178.727 185.218 181.827 184.363L182.289 184.241C183.924 183.795 185.451 183.02 186.777 181.965C188.103 180.909 189.2 179.595 190.001 178.101C190.802 176.608 191.291 174.967 191.437 173.279C191.584 171.59 191.385 169.89 190.853 168.281Z" fill="#FBBEAA"/>
<path d="M177.935 134.268L159.688 86.2668C159.198 85.2142 158.62 84.2049 157.96 83.25C155.725 81.8506 153.166 81.0526 150.532 80.9332C147.898 80.8139 145.277 81.3773 142.925 82.5688C140.193 83.8981 137.997 86.1205 136.701 88.8681C135.404 91.6156 135.085 94.7236 135.796 97.6773C135.796 97.9692 135.967 98.5288 136.113 99.283L154.943 146.603C163.169 143.637 170.915 139.481 177.935 134.268Z" fill="#F18380"/>
<path d="M157.984 81.888L191.557 168.227C163.107 159.123 159.678 165.284 152.033 139.922C152.033 139.922 134.19 98.0425 133.509 94.2958C132.798 91.3422 133.117 88.2343 134.414 85.4867C135.71 82.7392 137.906 80.5167 140.638 79.1874C148.253 75.2947 155.843 78.8225 157.984 81.888Z" fill="#003399"/>
<path d="M164.285 219.154C163.75 212.415 154.196 181.475 146.435 166.756C146.435 166.756 129.872 160.344 118.97 160.38C107.594 160.417 92.4849 169.208 92.4849 169.208C87.4244 180.667 81.0551 208.352 79.3764 213.753C78.3629 216.93 78.2399 220.325 79.0205 223.568C79.8012 226.811 81.4557 229.777 83.8043 232.146C89.5704 238.69 104.436 246.184 107.866 246.184C122.625 244.075 137.091 240.271 150.977 234.846C158.811 231.562 164.796 225.917 164.285 219.154Z" fill="#93929C"/>
<path d="M114.418 155.79L171.662 179.262C178.747 182.572 186.074 181.744 189.259 173.477C189.841 171.936 190.104 170.292 190.032 168.647C189.96 167.001 189.555 165.386 188.841 163.902C188.126 162.417 187.117 161.094 185.876 160.011C184.634 158.928 183.186 158.108 181.618 157.602L118.411 139.736C112.56 137.551 107.915 139.258 106.291 143.659C104.371 149.086 106.985 152.756 114.418 155.79Z" fill="#FBBEAA"/>
<path d="M108.139 72.0994C108.139 72.0994 94.7164 79.8471 92.6439 81.2029C90.5714 82.5588 91.0135 84.8492 88.6151 90.3065C87.9285 91.8688 82.9145 97.3007 83.1662 105.939C83.8526 129.5 90.8426 170.263 90.8426 170.263C95.0341 172.525 99.4911 174.256 104.111 175.415C106.338 175.667 108.101 175.725 109.611 174.253C111.122 172.781 115.577 167.435 115.577 167.435C115.577 167.435 122.918 172.413 126.23 174.253C127.02 174.804 127.912 175.191 128.853 175.39C129.795 175.59 130.767 175.599 131.712 175.415C136.535 174.427 155.517 168.888 156.117 168.539C156.718 168.191 157.279 167.822 157.221 167.164C157.163 166.505 156.814 90.9457 156.563 87.5367C156.513 85.711 155.938 83.9384 154.908 82.4305C153.877 80.9226 152.435 79.7433 150.752 79.0336C146.704 77.2322 131.499 71.0534 131.499 71.0534L115.635 82.0745L108.139 72.0994Z" fill="#003399"/>
<path d="M108.139 69.9305L115.597 82.075C115.597 82.075 108.275 87.8858 107.849 88.312C107.423 88.7381 106.571 88.6993 106.396 88.0214C106.222 87.3435 104.111 74.4629 104.072 74.4629C104.035 74.3946 104.015 74.318 104.015 74.2402C104.015 74.1623 104.035 74.0857 104.072 74.0174C104.266 73.8818 108.139 69.9305 108.139 69.9305Z" fill="#F5F5F5"/>
<path d="M131.576 67.6832L115.577 82.0746C115.577 82.0746 124.003 87.8854 124.371 88.3115C124.478 88.4028 124.605 88.4686 124.741 88.5038C124.878 88.539 125.02 88.5427 125.158 88.5147C125.296 88.4867 125.426 88.4278 125.538 88.3422C125.65 88.2567 125.741 88.1469 125.804 88.021C126.424 87.0332 136.341 73.1066 136.38 72.9904C136.421 72.9234 136.443 72.8463 136.443 72.7677C136.443 72.689 136.421 72.612 136.38 72.5449C136.167 72.4287 131.576 67.6832 131.576 67.6832Z" fill="#F5F5F5"/>
<g filter="url(#filter0_d_203_227)">
<rect width="40.1477" height="57.2105" rx="1" transform="matrix(-0.993463 -0.114154 -0.114154 0.993463 138.66 116.098)" fill="#EFEFEF"/>
</g>
<path d="M119.81 141.739C117.018 140.559 114.493 138.811 112.396 136.605C111.098 135.243 109.626 134.061 108.02 133.09C107.078 132.501 106.264 131.724 105.631 130.807C104.795 129.385 104.103 127.883 103.565 126.325C103.366 124.983 102.91 123.69 102.222 122.518C101.567 121.918 99.2573 122.239 98.0582 124.569C97.6449 125.607 97.4576 126.725 97.5089 127.847C97.5603 128.969 97.849 130.07 98.3559 131.077C98.9525 132.284 99.4199 133.55 99.75 134.854L99.5322 134.984C97.7053 134.014 95.7529 133.311 93.7346 132.895C93.0025 132.731 92.24 132.82 91.5698 133.146C90.8996 133.472 90.3608 134.018 90.0402 134.694C89.7196 135.37 89.6358 136.138 89.8025 136.874C89.9691 137.61 90.3764 138.271 90.9588 138.75C87.8092 139.112 88.1667 143.97 90.8706 144.612C90.2916 144.855 89.8029 145.272 89.4704 145.807C89.138 146.341 88.978 146.968 89.0119 147.601C89.0459 148.235 89.2722 148.845 89.6603 149.349C90.0484 149.853 90.5796 150.227 91.1819 150.42C89.2614 152.191 90.6652 155.109 94.1524 155.121C96.9858 155.41 104.563 156.596 107.2 157.163C109.836 157.731 115.135 156.475 116.837 157.002C119.371 157.931 122.314 157.946 124.559 151.279C126.804 144.611 122.417 142.6 119.81 141.739Z" fill="#FBBEAA"/>
<path d="M120.931 161.851L172.92 183.922C180.006 187.23 188.374 184.342 191.557 176.075C192.139 174.533 192.179 172.013 192.106 170.367C192.034 168.721 191.629 167.107 190.914 165.623C190.199 164.139 188.875 161.463 187.634 160.38C186.392 159.297 181.967 157.299 180.399 156.793L121.912 140.761L120.931 161.851Z" fill="#003399"/>
<path d="M14.4884 58.1318L14.8401 58.4836L14.3446 58.9791L14.72 59.3545L15.2155 58.8589L15.5673 59.2107L14.2135 60.5646L13.8617 60.2128L14.3978 59.6766L14.0224 59.3012L13.4863 59.8374L13.1345 59.4856L14.4883 58.1318L14.4884 58.1318ZM16.8226 60.466L15.4688 61.8199L15.1289 61.48L16.1618 60.447L15.9391 60.2244L15.5505 60.6129C15.3759 60.7875 15.1501 60.9896 14.936 61.0165C14.7084 61.057 14.4914 60.9212 14.333 60.6816L14.6687 60.3459C14.8153 60.5737 14.9438 60.5399 15.2118 60.2718L15.9226 59.5611L16.8251 60.4636L16.8226 60.466ZM17.1163 60.7597L17.468 61.1115L16.8628 62.1146L17.866 61.5094L18.2178 61.8612L17.0285 63.3796L16.7004 63.0515L17.343 62.2455L16.4304 62.7814L16.196 62.5469L16.733 61.6356L15.9271 62.2781L15.599 61.95L17.1163 60.7596L17.1163 60.7597ZM18.5114 62.1549L18.8632 62.5066L18.3135 63.0563L19.2031 62.8465L19.5903 63.2338L18.4749 63.4586L18.2484 64.5995L17.8267 64.1778L18.0601 63.3119L17.5105 63.8616L17.1587 63.5098L18.5125 62.156L18.5115 62.1549L18.5114 62.1549ZM18.4464 59.1928C16.3359 57.0823 14.0679 56.5579 12.7817 57.8441C11.5078 59.118 12.0189 61.3973 14.1304 63.5088C16.2528 65.6312 18.5225 66.1302 19.7952 64.8576C21.0814 63.5714 20.5698 61.3162 18.4464 59.1928ZM14.3309 63.3084C12.3484 61.3259 11.8149 59.2111 12.9818 58.0442C14.161 56.865 16.2646 57.4119 18.246 59.3933C20.2393 61.3866 20.7766 63.4781 19.5962 64.6586C18.4293 65.8255 16.3252 65.3027 14.3309 63.3084ZM18.0579 59.5814C16.1937 57.7173 14.2395 57.1845 13.1808 58.2432C12.1221 59.3019 12.6549 61.2561 14.519 63.1203C16.3832 64.9844 18.3374 65.5172 19.3961 64.4585C20.4559 63.4009 19.9231 61.4467 18.0579 59.5814ZM14.5584 63.0809C12.7168 61.2394 12.1834 59.3116 13.2151 58.2799C14.2468 57.2483 16.1755 57.7827 18.0161 59.6232C19.8566 61.4638 20.391 63.3925 19.3594 64.4242C18.3288 65.457 16.3999 64.9226 14.5583 63.081L14.5584 63.0809Z" fill="white"/>
<defs>
<filter id="filter0_d_203_227" x="92.3516" y="111.623" width="48.2012" height="61.2045" filterUnits="userSpaceOnUse" color-interpolation-filters="sRGB">
<feFlood flood-opacity="0" result="BackgroundImageFix"/>
<feColorMatrix in="SourceAlpha" type="matrix" values="0 0 0 0 0 0 0 0 0 0 0 0 0 0 0 0 0 0 127 0" result="hardAlpha"/>
<feOffset dx="2"/>
<feComposite in2="hardAlpha" operator="out"/>
<feColorMatrix type="matrix" values="0 0 0 0 0.603922 0 0 0 0 0.6 0 0 0 0 0.631373 0 0 0 1 0"/>
<feBlend mode="normal" in2="BackgroundImageFix" result="effect1_dropShadow_203_227"/>
<feBlend mode="normal" in="SourceGraphic" in2="effect1_dropShadow_203_227" result="shape"/>
</filter>
</defs>
</svg>
