<svg width="211" height="515" viewBox="0 0 211 515" fill="none" xmlns="http://www.w3.org/2000/svg">
<path d="M107.751 67.7766H137.722V103.025H107.751V67.7766Z" fill="#FBBEAA"/>
<path d="M137.695 67.7766H107.824V87.4418C109.129 87.6038 110.442 87.687 111.757 87.6907C122.063 87.6907 133.588 84.8778 137.795 75.0452L137.695 67.7766Z" fill="#F18380"/>
<path d="M92.2657 41.6147C92.4898 51.7958 92.2657 59.8361 94.0829 67.6026C95.9001 75.3691 101.551 81.7167 113.997 81.7167C126.443 81.7167 140.632 77.6592 141.628 62.1014C143.669 59.8859 146.98 51.995 147.104 43.1581C147.229 34.3212 146.556 15.6269 126.393 12.7642C106.23 9.90158 91.6932 17.2947 92.2657 41.6147Z" fill="#FBBEAA"/>
<path d="M102.773 49.6299C102.773 50.999 101.952 52.1192 100.931 52.1192C99.9105 52.1192 99.0891 50.999 99.0891 49.6299C99.0891 48.2609 99.9105 47.1407 100.931 47.1407C101.952 47.1407 102.773 48.1613 102.773 49.6299Z" fill="#403D4F"/>
<path d="M125.174 49.6299C125.174 50.999 124.352 52.1192 123.332 52.1192C122.311 52.1192 121.49 50.999 121.49 49.6299C121.49 48.2609 122.336 47.1407 123.332 47.1407C124.327 47.1407 125.174 48.1613 125.174 49.6299Z" fill="#403D4F"/>
<path d="M120.571 41.8137C120.77 42.0377 122.065 41.8137 123.06 41.8137C124.056 41.8137 125.973 41.8137 125.973 41.5897C125.973 41.3656 125.027 39.8223 122.538 40.0961C120.845 40.2952 120.347 41.4154 120.571 41.8137Z" fill="#403D4F"/>
<path d="M103.147 41.8137C102.997 42.0377 101.877 41.8137 101.006 41.8137C100.135 41.8137 98.5166 41.8137 98.5166 41.5897C98.5166 41.3656 99.3132 39.8223 101.429 40.0961C103.147 40.2952 103.47 41.4154 103.147 41.8137Z" fill="#403D4F"/>
<path d="M110.612 59.9353C108.87 59.9353 107.476 58.7903 107.426 57.9688L107.999 50.9491C108.018 50.7752 108.104 50.6154 108.238 50.5039C108.373 50.3923 108.546 50.3377 108.721 50.3517C108.806 50.358 108.889 50.381 108.965 50.4195C109.041 50.458 109.109 50.5112 109.164 50.5759C109.22 50.6407 109.262 50.7158 109.288 50.797C109.315 50.8781 109.325 50.9636 109.318 51.0487L108.77 57.8195C109.022 58.0923 109.331 58.3054 109.676 58.4432C110.02 58.5811 110.391 58.6401 110.762 58.616C110.849 58.6093 110.936 58.6202 111.019 58.6481C111.102 58.676 111.178 58.7204 111.243 58.7785C111.308 58.8367 111.361 58.9074 111.398 58.9864C111.435 59.0654 111.456 59.1511 111.459 59.2384C111.462 59.3266 111.448 59.4147 111.417 59.4975C111.387 59.5803 111.34 59.6563 111.28 59.721C111.22 59.7858 111.147 59.838 111.067 59.8748C110.987 59.9116 110.9 59.9321 110.812 59.9353H110.612Z" fill="#F18380"/>
<path d="M112.033 64.9134C109.942 65.0378 106.432 66.2078 106.407 67.1288C106.44 68.8389 107.146 70.4671 108.371 71.6601C109.597 72.8531 111.244 73.5147 112.954 73.5013C120.621 73.5013 120.596 67.5769 120.272 66.2825C119.949 64.988 115.916 64.6644 112.033 64.9134Z" fill="#73102A"/>
<path d="M120.295 68.3489C118.222 67.5978 115.959 67.5439 113.852 68.1953C111.745 68.8468 109.908 70.168 108.621 71.9583C109.81 73.0136 111.363 73.5667 112.952 73.5016C118.378 73.5016 119.947 70.5643 120.295 68.3489Z" fill="#D65155"/>
<path d="M119.971 65.8349C118.901 64.9139 115.391 64.6898 112.03 64.9139C109.964 65.0383 106.479 66.1834 106.405 67.1293C110.966 67.7759 115.615 67.3323 119.971 65.8349Z" fill="white"/>
<path d="M129.084 32.6032C129.084 38.7268 131.573 41.3903 133.44 42.5603C135.307 43.7302 136.676 44.9002 136.676 47.016V54.4838C136.676 55.3302 137.174 55.9774 137.821 55.7533C138.468 55.5293 140.883 54.3096 140.883 53.0898L148.351 47.8126C150.293 43.2117 151.013 38.1868 150.442 33.2255C150.219 30.4437 149.399 27.7426 148.037 25.3067C146.676 22.8709 144.804 20.7576 142.551 19.1114C142.551 13.8093 137.572 4.375 127.092 0.641113C126.836 2.55761 126.836 4.4997 127.092 6.4162C122.338 2.10978 106.332 0.79047 100.582 2.78188C101.425 4.66798 102.645 6.36206 104.166 7.7604C96.3117 9.57432 89.3226 14.0403 84.3766 20.4058C85.9523 22.4606 87.9461 24.1575 90.2263 25.3844C87.6105 28.9827 86.0579 33.2435 85.7457 37.6813C90.4716 37.2438 95.1043 36.094 99.4864 34.271C99.2417 36.4587 99.3679 38.6721 99.8598 40.8178C104.838 40.5191 114.248 35.441 116.911 31.3586C116.494 34.6836 116.68 38.0564 117.459 41.3156C122.087 39.5817 126.121 36.5583 129.084 32.6032Z" fill="#403D4F"/>
<path d="M141.108 54.3595C141.108 51.5217 141.68 47.3397 145.688 47.2402C149.696 47.1406 150.243 50.1775 150.119 54.9569C149.995 59.7362 145.14 63.7937 140.884 62.1508L141.108 54.3595Z" fill="#FBBEAA"/>
<path d="M147.007 57.7946C146.835 57.7584 146.684 57.6589 146.582 57.5159C146.481 57.3729 146.437 57.1968 146.459 57.0229C146.459 56.8856 146.422 56.7509 146.352 56.6327C146.282 56.5146 146.181 56.4173 146.061 56.3508C145.802 56.1816 145.499 56.0915 145.19 56.0915C144.88 56.0915 144.578 56.1816 144.319 56.3508C144.213 56.412 144.092 56.4442 143.97 56.4442C143.848 56.4442 143.728 56.412 143.622 56.3508C143.514 56.2891 143.426 56.1977 143.368 56.0873C143.311 55.9769 143.286 55.8524 143.298 55.7285C143.671 51.7208 146.21 50.974 146.31 50.9491C146.395 50.9229 146.485 50.9145 146.573 50.9244C146.661 50.9343 146.747 50.9623 146.824 51.0067C146.901 51.0511 146.968 51.1108 147.021 51.1823C147.074 51.2538 147.112 51.3354 147.132 51.4221C147.177 51.5871 147.156 51.7636 147.072 51.913C146.988 52.0623 146.848 52.1722 146.683 52.2186C146.189 52.4474 145.758 52.7939 145.428 53.2279C145.098 53.6618 144.88 54.17 144.792 54.7079C145.474 54.5968 146.173 54.7384 146.758 55.1062C147.104 55.3012 147.383 55.5949 147.56 55.9497C147.738 56.3045 147.805 56.7042 147.754 57.0976C147.763 57.1957 147.749 57.2946 147.714 57.3866C147.679 57.4786 147.623 57.5614 147.551 57.6286C147.479 57.6959 147.392 57.7458 147.298 57.7745C147.204 57.8033 147.104 57.8101 147.007 57.7946Z" fill="#F18380"/>
<path d="M168.811 104.415C174.954 112.313 210.08 208.796 210.08 208.796C177.171 198.265 180.675 169.855 162.776 172.866C162.776 172.866 142.137 124.423 141.349 120.089C140.527 116.672 140.896 113.077 142.395 109.899C143.895 106.721 146.435 104.15 149.595 102.612C158.403 98.1096 162.668 96.5161 168.811 104.415Z" fill="#90A2B7"/>
<path d="M28.2757 96.9187C28.1506 94.185 28.8825 91.4805 30.369 89.1828C32.6577 86.5291 34.3723 83.4305 35.4049 80.0818C36.1993 76.9733 37.4682 74.0058 39.1668 71.284C40.3802 69.6155 42.2004 68.2504 42.2004 66.9762C42.2004 65.7021 39.7735 63.2448 36.3151 63.9425C34.8337 64.404 33.4726 65.1872 32.3293 66.2361C31.186 67.285 30.2887 68.5737 29.7016 70.0099C29.3702 69.1348 29.1759 68.2139 29.1253 67.2796L28.3668 48.6831C28.3553 48.201 28.2473 47.7261 28.0492 47.2864C27.8511 46.8468 27.5669 46.4513 27.2134 46.1233C26.8599 45.7952 26.4443 45.5413 25.9911 45.3766C25.5379 45.2118 25.0563 45.1396 24.5747 45.164C23.808 45.1967 23.0707 45.4689 22.4667 45.9424C21.8627 46.4158 21.4222 47.0666 21.2073 47.8033V46.9539C21.0906 46.0499 20.6363 45.2235 19.9355 44.6406C19.2347 44.0577 18.3393 43.7614 17.4292 43.8113C16.519 43.8613 15.6615 44.2537 15.0286 44.9097C14.3958 45.5658 14.0346 46.4369 14.0175 47.3483V49.9269C13.7136 49.1319 13.1342 48.4726 12.3849 48.069C11.6356 47.6655 10.7662 47.5447 9.93522 47.7285C9.10424 47.9124 8.36697 48.3886 7.8578 49.0706C7.34863 49.7525 7.10145 50.5948 7.16132 51.4438V53.0819C6.83479 52.5081 6.34819 52.0418 5.76094 51.7401C5.17369 51.4384 4.51125 51.3143 3.85461 51.383C2.9554 51.4972 2.13596 51.9568 1.56972 52.6646C1.00348 53.3724 0.73489 54.2728 0.820927 55.1751L2.3074 70.8593C3.28119 79.7018 5.11001 88.4291 7.76809 96.9187C7.80023 98.3362 8.12862 99.7312 8.73214 101.014C9.33565 102.297 10.2009 103.44 11.2724 104.368C12.3438 105.297 13.5977 105.991 14.9535 106.406C16.3092 106.821 17.7368 106.948 19.1444 106.778C20.4183 106.821 21.6864 106.589 22.8627 106.098C24.0391 105.607 25.0962 104.869 25.9622 103.934C26.8283 102.999 27.4832 101.889 27.8824 100.678C28.2815 99.4677 28.4157 98.1856 28.2757 96.9187Z" fill="#FBBEAA"/>
<path d="M27.6692 72.6496C28.822 72.6496 28.913 71.9215 29.4287 70.5867C26.8501 70.5867 19.3569 71.072 16.0805 77.3821C19.3872 72.8316 25.7277 72.6496 27.6692 72.6496ZM21.7839 48.6531C21.7839 48.6531 21.9659 49.7149 22.1479 51.2621C22.1479 52.0509 22.33 52.9913 22.3906 53.962C22.4513 54.9328 22.5423 55.9946 22.6333 56.9957C22.6333 59.1193 22.7849 61.2126 22.7849 62.7901C22.7849 64.3676 22.7849 65.4294 22.7849 65.4294C22.7851 65.4798 22.7748 65.5298 22.7547 65.5761C22.7345 65.6224 22.7049 65.6639 22.6678 65.6981C22.6307 65.7324 22.587 65.7586 22.5392 65.775C22.4915 65.7914 22.4409 65.7976 22.3906 65.7934C22.3053 65.7891 22.2235 65.7572 22.1579 65.7025C22.0922 65.6478 22.0461 65.5733 22.0265 65.4901C22.0265 65.4901 21.8445 64.4282 21.6929 62.8507C21.5412 61.2732 21.2985 59.18 21.2075 57.0867C21.2075 56.025 21.2075 54.9632 21.2075 54.0531C21.2075 53.143 21.2075 52.1419 21.2075 51.3531C21.2075 49.7453 21.2075 48.7137 21.2075 48.7137C21.2073 48.6633 21.2176 48.6134 21.2377 48.5671C21.2579 48.5208 21.2875 48.4792 21.3246 48.445C21.3617 48.4107 21.4054 48.3846 21.4532 48.3682C21.5009 48.3518 21.5516 48.3455 21.6018 48.3497C21.66 48.3832 21.7078 48.4321 21.7399 48.491C21.772 48.5499 21.7872 48.6165 21.7839 48.6835V48.6531ZM14.7457 50.7767C14.7457 50.7767 14.9277 51.6868 15.1401 53.0216C15.1401 53.7194 15.3525 54.5081 15.4435 55.3575C15.5345 56.207 15.6255 57.1171 15.7165 58.0272C15.7165 59.8474 15.9288 61.6676 15.9591 63.0327C15.9895 64.3979 15.9591 65.3384 15.9591 65.3384C15.9553 65.3862 15.9421 65.4328 15.9202 65.4756C15.8982 65.5183 15.8681 65.5563 15.8315 65.5873C15.7948 65.6183 15.7523 65.6418 15.7066 65.6564C15.6608 65.6709 15.6127 65.6763 15.5648 65.6721C15.4832 65.6664 15.4059 65.6334 15.3453 65.5783C15.2848 65.5233 15.2445 65.4494 15.2311 65.3687C15.2311 65.3687 15.0491 64.4586 14.8367 63.1237C14.6243 61.7889 14.4423 59.9384 14.2907 58.1486C14.2907 57.2384 14.2907 56.3283 14.1086 55.4789C13.9266 54.6295 14.1086 53.8104 14.1086 53.1126C14.1086 51.7475 14.1086 50.8374 14.1086 50.8374C14.1085 50.7869 14.1188 50.737 14.1389 50.6907C14.1591 50.6444 14.1887 50.6028 14.2258 50.5686C14.2628 50.5344 14.3066 50.5082 14.3544 50.4918C14.4021 50.4754 14.4527 50.4691 14.503 50.4733C14.5704 50.5011 14.6286 50.547 14.6714 50.6059C14.7143 50.6648 14.74 50.7344 14.7457 50.807V50.7767ZM7.95027 53.6587C7.95027 53.6587 8.13224 54.4171 8.37493 55.5699C8.37493 56.116 8.61768 56.7834 8.70869 57.5115C8.7997 58.2396 8.921 58.998 9.04235 59.7564C9.25471 61.3036 9.34579 62.7901 9.40647 64.0035C9.46714 65.217 9.40647 65.9451 9.40647 65.9451C9.40664 65.9956 9.39626 66.0455 9.3761 66.0918C9.35594 66.1381 9.32635 66.1797 9.28926 66.2139C9.25217 66.2481 9.2084 66.2743 9.16067 66.2907C9.11293 66.3071 9.06237 66.3134 9.01207 66.3092C8.93462 66.3051 8.86046 66.2764 8.80043 66.2273C8.74041 66.1782 8.69761 66.1113 8.67832 66.0361C8.67832 66.0361 8.46601 65.2777 8.25365 64.1553C8.04129 63.0328 7.73789 61.4553 7.55587 59.9384C7.55587 59.1497 7.40417 58.3912 7.34349 57.6631C7.28282 56.9351 7.34349 56.2677 7.34349 55.6913C7.34349 54.5385 7.34349 53.7497 7.34349 53.7497C7.34332 53.6992 7.3537 53.6493 7.37386 53.603C7.39402 53.5568 7.42352 53.5151 7.46061 53.4809C7.49769 53.4467 7.54156 53.4206 7.58929 53.4042C7.63702 53.3878 7.68759 53.3814 7.73788 53.3856C7.79389 53.4169 7.84211 53.4604 7.87889 53.5129C7.91566 53.5655 7.94007 53.6257 7.95027 53.689V53.6587Z" fill="#F18380"/>
<path d="M101.672 94.6219L35.5543 139.215C35.8324 141.495 30.4743 94.6219 30.4743 94.6219L6.00188 96.9062C6.00188 96.9062 7.43159 144.629 11.033 169.833C12.4622 179.835 20.7877 183.628 30.6594 181.475C35.5334 180.411 40.1219 178.411 44.2051 175.545C61.7509 163.23 110.975 128.541 115 124.178C121.943 116.649 121.943 111.009 117.953 104.811C113.962 98.6124 105.423 93.6908 101.672 94.6219Z" fill="#90A2B7"/>
<path d="M101.672 94.6219L35.5543 139.215C35.8324 141.495 30.4743 94.6219 30.4743 94.6219L6.00188 96.9062C6.00188 96.9062 7.43159 144.629 11.033 169.833C12.4622 179.835 20.7877 183.628 30.6594 181.475C35.5334 180.411 40.1219 178.411 44.2051 175.545C61.7509 163.23 110.975 128.541 115 124.178C121.943 116.649 121.943 111.009 117.953 104.811C113.962 98.6124 105.423 93.6908 101.672 94.6219Z" fill="#90A2B7"/>
<path d="M139.695 328.109C139.774 334.502 137.31 340.664 132.846 345.24C128.381 349.816 122.281 352.431 115.889 352.51C109.496 352.589 103.334 350.125 98.7576 345.661C94.1814 341.196 91.5662 335.097 91.4873 328.704C91.4873 328.704 88.4371 239.728 87.3956 221.7C86.354 203.671 91.0657 189.214 111.351 187.131C132.38 184.973 143.588 201.415 143.588 216.69C143.588 231.966 139.695 328.109 139.695 328.109Z" fill="#93929C"/>
<path d="M179.248 326.398C179.662 329.557 179.444 332.768 178.609 335.843C177.774 338.918 176.337 341.797 174.382 344.313C172.427 346.829 169.992 348.933 167.219 350.502C164.445 352.072 161.389 353.075 158.225 353.456C155.061 353.836 151.853 353.585 148.787 352.718C145.721 351.851 142.857 350.384 140.361 348.403C137.865 346.421 135.787 343.965 134.247 341.175C132.707 338.386 131.735 335.318 131.388 332.151C131.388 332.151 118.84 244.018 115.864 226.213C112.888 208.408 116.038 193.504 135.975 189.263C156.657 184.874 169.577 200.026 171.139 215.202C172.702 230.379 179.248 326.398 179.248 326.398Z" fill="#93929C"/>
<path d="M100.117 432.956C100.117 432.956 101.307 483.519 101.605 491.083C101.902 498.646 106.688 500.704 114.401 501.374C122.113 502.043 125.361 495.918 126.452 491.058C127.544 486.197 134.14 436.626 134.14 436.626L100.117 432.956Z" fill="#FBBEAA"/>
<path d="M100.985 468.219L129.428 471.269C131.635 455.621 134.14 436.551 134.14 436.551L100.117 432.881C100.117 432.881 100.563 451.827 100.985 468.219Z" fill="#F18380"/>
<path d="M139.696 328.109C139.656 324.944 138.994 321.817 137.747 318.907C136.499 315.998 134.691 313.363 132.425 311.152C130.159 308.941 127.48 307.199 124.541 306.024C121.602 304.848 118.459 304.264 115.294 304.303C112.129 304.342 109.002 305.004 106.093 306.251C103.183 307.499 100.548 309.307 98.3373 311.573C96.1266 313.839 94.3839 316.518 93.2087 319.457C92.0335 322.397 91.4487 325.539 91.4878 328.704L96.4474 469.639L135.356 473.83L139.696 328.109Z" fill="#93929C"/>
<path d="M151.028 434.89C151.028 434.89 157.624 485.032 158.715 492.496C159.807 499.96 164.791 501.548 172.553 501.374C180.315 501.2 182.869 494.778 183.439 489.843C184.01 484.908 185.25 434.89 185.25 434.89H151.028Z" fill="#FBBEAA"/>
<path d="M155.789 469.855H184.406C184.902 454.084 185.374 434.89 185.374 434.89H151.028C151.028 434.89 153.508 453.588 155.789 469.855Z" fill="#F18380"/>
<path d="M179.249 326.398C178.425 320.102 175.151 314.386 170.137 310.49C165.124 306.595 158.776 304.835 152.472 305.593C146.168 306.35 140.418 309.565 136.47 314.537C132.523 319.51 130.696 325.84 131.388 332.151L152.962 474.599H192.094L179.249 326.398Z" fill="#93929C"/>
<path d="M131.413 332.151L153.656 473.359" stroke="#565656" stroke-width="0.75" stroke-miterlimit="10" stroke-linecap="round"/>
<path d="M131.388 332.151C131.388 332.151 118.84 244.018 115.864 226.213" stroke="#565656" stroke-width="0.75" stroke-miterlimit="10" stroke-linecap="round"/>
<path d="M169.949 475.732C167.136 475.531 164.347 476.369 162.112 478.088C159.876 479.807 158.35 482.286 157.822 485.057L144.878 498.324V506.581H186.365C186.365 506.581 184.282 491.702 183.687 488.355C183.092 485.007 181.083 475.732 169.949 475.732Z" fill="#FBBEAA"/>
<path d="M157.847 484.957C157.376 484.313 156.707 483.817 156.236 484.114C155.764 484.412 143.241 494.331 142.646 494.827C142.28 495.171 142.002 495.599 141.838 496.075C141.674 496.55 141.628 497.058 141.704 497.555V508.193H187.283C187.283 508.193 185.498 492.471 185.374 491.603C185.25 490.735 184.382 489.595 183.886 489.619C180.757 490.578 177.51 491.095 174.239 491.157C169.891 491.387 165.554 490.535 161.617 488.677C160.157 487.662 158.882 486.404 157.847 484.957Z" fill="black"/>
<path d="M149.193 499.266C151.4 497.629 159.335 491.43 162.311 489.099L161.617 488.751C161.523 488.711 161.439 488.652 161.369 488.578C158.195 491.058 150.73 496.91 148.598 498.497C146.795 499.879 145.56 501.872 145.126 504.101L146.093 504.25C146.502 502.274 147.601 500.507 149.193 499.266Z" fill="white"/>
<path d="M186.043 497.357C182.831 497.389 179.723 498.498 177.215 500.506C174.949 502.514 173.414 505.218 172.851 508.193H174.19C174.738 505.615 176.093 503.279 178.058 501.523C180.366 499.674 183.235 498.668 186.192 498.671L186.043 497.357Z" fill="white"/>
<path d="M134.339 508.169H187.283C187.653 508.169 187.953 508.468 187.953 508.838V513.971C187.953 514.341 187.653 514.641 187.283 514.641H134.339C133.969 514.641 133.67 514.341 133.67 513.971V508.838C133.67 508.468 133.969 508.169 134.339 508.169Z" fill="white"/>
<path d="M142.77 494.728C142.299 494.529 139.993 495.199 136.992 498.15C135.743 499.441 134.844 501.03 134.38 502.765C133.915 504.501 133.901 506.327 134.339 508.069H149.392C148.548 498.547 143.242 494.926 142.77 494.728Z" fill="white"/>
<path d="M148.548 494.877C148.734 495.105 148.823 495.396 148.795 495.689C148.767 495.981 148.625 496.251 148.4 496.439C148.289 496.531 148.161 496.599 148.024 496.641C147.887 496.683 147.743 496.698 147.6 496.684C147.457 496.67 147.319 496.628 147.192 496.561C147.065 496.493 146.953 496.402 146.862 496.291L144.382 493.29C144.196 493.063 144.108 492.771 144.136 492.478C144.164 492.186 144.306 491.916 144.531 491.728C144.64 491.633 144.768 491.562 144.905 491.518C145.043 491.474 145.188 491.459 145.332 491.473C145.475 491.487 145.615 491.53 145.742 491.599C145.868 491.668 145.98 491.763 146.069 491.877L148.548 494.877Z" fill="white"/>
<path d="M151.499 492.62C151.685 492.848 151.774 493.139 151.746 493.432C151.718 493.724 151.576 493.994 151.35 494.182C151.241 494.277 151.114 494.348 150.976 494.392C150.839 494.436 150.693 494.452 150.55 494.438C150.406 494.424 150.266 494.381 150.14 494.311C150.013 494.242 149.902 494.147 149.813 494.034L147.333 491.033C147.153 490.803 147.068 490.513 147.096 490.222C147.124 489.932 147.262 489.663 147.482 489.471C147.591 489.376 147.718 489.305 147.856 489.261C147.994 489.217 148.139 489.202 148.282 489.216C148.426 489.23 148.566 489.273 148.692 489.342C148.819 489.411 148.93 489.506 149.019 489.62L151.499 492.62Z" fill="white"/>
<path d="M154.351 490.388C154.538 490.609 154.631 490.895 154.607 491.183C154.584 491.471 154.447 491.738 154.227 491.926C154 492.112 153.708 492.2 153.415 492.173C153.123 492.145 152.853 492.003 152.665 491.777L150.185 488.777C150.081 488.675 149.998 488.553 149.941 488.419C149.885 488.285 149.856 488.141 149.856 487.995C149.856 487.85 149.885 487.706 149.941 487.572C149.998 487.437 150.081 487.316 150.185 487.214C150.415 487.034 150.705 486.95 150.996 486.977C151.286 487.005 151.555 487.143 151.747 487.363L154.351 490.388Z" fill="white"/>
<path d="M157.227 488.132C157.319 488.243 157.387 488.37 157.429 488.507C157.471 488.645 157.486 488.789 157.472 488.932C157.458 489.074 157.416 489.213 157.349 489.34C157.281 489.466 157.189 489.578 157.078 489.669C156.87 489.874 156.589 489.988 156.297 489.988C156.005 489.988 155.725 489.874 155.516 489.669L153.036 486.644C152.85 486.416 152.762 486.125 152.79 485.832C152.818 485.54 152.96 485.27 153.185 485.082C153.296 484.99 153.423 484.922 153.561 484.88C153.698 484.838 153.842 484.823 153.985 484.837C154.128 484.851 154.266 484.893 154.393 484.96C154.519 485.028 154.632 485.12 154.723 485.231L157.227 488.132Z" fill="white"/>
<path d="M111.673 475.732C108.861 475.531 106.072 476.369 103.836 478.088C101.601 479.807 100.074 482.286 99.5468 485.057L86.6269 498.324V506.581H128.09C128.09 506.581 126.031 491.702 125.411 488.355C124.791 485.007 122.808 475.732 111.673 475.732Z" fill="#FBBEAA"/>
<path d="M99.5718 484.957C99.1007 484.313 98.4559 483.817 97.96 484.114C97.464 484.412 84.9657 494.331 84.3953 494.827C83.825 495.323 83.4282 495.943 83.4282 497.555V508.193H129.007C129.007 508.193 127.222 492.471 127.098 491.603C126.974 490.735 126.106 489.595 125.61 489.619C122.482 490.578 119.235 491.095 115.963 491.157C111.623 491.392 107.293 490.539 103.366 488.677C101.895 487.667 100.611 486.408 99.5718 484.957Z" fill="black"/>
<path d="M90.9172 499.266C93.1242 497.629 101.06 491.43 104.035 489.099L103.366 488.751C103.265 488.712 103.172 488.653 103.093 488.578C99.919 491.058 92.4546 496.91 90.322 498.497C88.5191 499.879 87.2842 501.872 86.8502 504.101L87.8174 504.25C88.2385 502.278 89.3348 500.515 90.9172 499.266Z" fill="white"/>
<path d="M127.767 497.357C124.555 497.389 121.447 498.498 118.939 500.506C116.673 502.514 115.138 505.218 114.575 508.193H115.914C116.468 505.612 117.832 503.275 119.807 501.523C122.104 499.671 124.966 498.664 127.916 498.671L127.767 497.357Z" fill="white"/>
<path d="M76.063 508.169H129.007C129.377 508.169 129.677 508.468 129.677 508.838V513.971C129.677 514.341 129.377 514.641 129.007 514.641H76.063C75.6932 514.641 75.3934 514.341 75.3934 513.971V508.838C75.3934 508.468 75.6932 508.169 76.063 508.169Z" fill="white"/>
<path d="M84.4941 494.728C84.023 494.529 81.7167 495.199 78.7161 498.15C77.4668 499.441 76.5675 501.03 76.1032 502.765C75.6389 504.501 75.6249 506.327 76.0627 508.069H91.1152C90.2721 498.547 84.9653 494.926 84.4941 494.728Z" fill="white"/>
<path d="M90.3716 494.877C90.5575 495.105 90.6461 495.396 90.6183 495.689C90.5904 495.981 90.4483 496.251 90.2228 496.439C90.1122 496.531 89.9845 496.599 89.8473 496.641C89.7101 496.683 89.566 496.698 89.4232 496.684C89.2804 496.67 89.1417 496.628 89.0151 496.561C88.8885 496.493 88.7764 496.402 88.6853 496.291L86.2055 493.29C86.0256 493.06 85.9408 492.77 85.9685 492.479C85.9962 492.189 86.1343 491.92 86.3543 491.728C86.4635 491.633 86.5908 491.562 86.7284 491.518C86.866 491.474 87.0111 491.459 87.1549 491.473C87.2987 491.487 87.4381 491.53 87.5648 491.599C87.6915 491.668 87.8027 491.763 87.8918 491.877L90.3716 494.877Z" fill="white"/>
<path d="M93.2232 492.62C93.4091 492.848 93.4977 493.139 93.4698 493.432C93.442 493.724 93.2999 493.994 93.0744 494.182C92.9652 494.277 92.8379 494.348 92.7003 494.392C92.5626 494.436 92.4175 494.451 92.2737 494.437C92.13 494.424 91.9905 494.381 91.8639 494.311C91.7372 494.242 91.626 494.147 91.5369 494.034L89.0571 491.033C88.8773 490.803 88.7925 490.513 88.8202 490.222C88.8478 489.932 88.9859 489.663 89.2059 489.471C89.4334 489.285 89.7251 489.196 90.0176 489.224C90.3101 489.252 90.5798 489.394 90.7682 489.619L93.2232 492.62Z" fill="white"/>
<path d="M96.0752 490.388C96.1787 490.488 96.261 490.607 96.3173 490.739C96.3735 490.871 96.4026 491.013 96.4026 491.157C96.4026 491.3 96.3735 491.443 96.3173 491.575C96.261 491.707 96.1787 491.826 96.0752 491.926C95.8476 492.111 95.556 492.2 95.2635 492.172C94.971 492.144 94.7013 492.002 94.5129 491.777L92.0331 488.776C91.8472 488.549 91.7586 488.257 91.7864 487.964C91.8143 487.672 91.9564 487.402 92.1819 487.214C92.2925 487.123 92.4202 487.054 92.5574 487.012C92.6946 486.97 92.8387 486.956 92.9815 486.969C93.1243 486.983 93.263 487.025 93.3896 487.093C93.5162 487.16 93.6283 487.252 93.7194 487.363L96.0752 490.388Z" fill="white"/>
<path d="M98.9513 488.132C99.0427 488.243 99.1113 488.37 99.1532 488.507C99.1952 488.645 99.2097 488.789 99.1959 488.932C99.182 489.074 99.1401 489.213 99.0726 489.34C99.0052 489.466 98.9134 489.578 98.8026 489.669C98.594 489.874 98.3135 489.988 98.0214 489.988C97.7293 489.988 97.4488 489.874 97.2403 489.669L94.7604 486.644C94.5746 486.416 94.4859 486.125 94.5138 485.832C94.5416 485.54 94.6837 485.27 94.9092 485.082C95.0199 484.99 95.1474 484.922 95.2847 484.88C95.4219 484.838 95.566 484.823 95.7088 484.837C95.8516 484.851 95.9903 484.893 96.117 484.96C96.2436 485.028 96.3556 485.12 96.4467 485.231L98.9513 488.132Z" fill="white"/>
<path d="M88.1251 202.413C88.1251 202.413 88.1251 228.129 88.1251 229.542C88.1251 230.956 100.524 243.082 116.99 243.082C142.309 243.082 172.613 233.832 172.166 227.806C171.869 223.839 171.497 202.413 171.497 202.413H88.1251Z" fill="#93929C"/>
<path d="M106.54 93.9455C120.427 105.849 134.231 98.9052 138.778 92.7056L158.616 101.385L153.657 193.139L87.9412 195.618L90.4211 107.585L106.54 93.9455Z" fill="white"/>
<path d="M88.0444 101.856C90.6978 100.12 107.883 90.2009 107.883 90.2009V220.987C105.978 222.843 105.588 222.799 102.853 222.489L102.725 222.475C96.8107 220.99 91.1045 218.774 85.7382 215.878C85.7382 215.878 83.4568 120.752 82.8864 113.511C82.3161 106.27 85.391 103.592 88.0444 101.856Z" fill="#023783"/>
<path d="M134.403 222.443C133.197 222.187 132.055 221.692 131.045 220.987L137.79 88.8618C137.79 88.8618 157.256 96.7724 162.439 99.0786C164.594 99.9873 166.441 101.497 167.76 103.428C169.079 105.358 169.815 107.628 169.879 109.965C170.201 114.33 170.647 211.068 170.722 211.911C170.796 212.754 170.077 213.225 169.308 213.671C168.54 214.118 144.237 221.21 138.062 222.475C136.853 222.709 135.608 222.699 134.403 222.443Z" fill="#023783"/>
<path d="M151.143 150.032C146.162 144.994 136.847 134.131 133.695 131.486C130.578 129.138 127.173 127.199 123.564 125.717C120.825 124.799 117.994 124.186 115.121 123.887C113.123 123.634 112.307 124.225 112.307 125.435C112.357 126.156 112.587 126.853 112.975 127.463C113.363 128.072 113.898 128.575 114.53 128.925H110.843C109.577 128.925 108.761 129.938 109.352 131.57C109.889 132.649 110.656 133.596 111.599 134.345C112.543 135.094 113.639 135.626 114.811 135.904C114.811 135.904 109.83 136.383 108.564 136.636C107.297 136.889 106.903 137.368 106.903 138.578C106.914 139.414 107.147 140.232 107.577 140.949C108.007 141.665 108.619 142.255 109.352 142.658C111.145 143.386 113.048 143.805 114.98 143.897C114.98 143.897 108.817 145.444 107.579 145.895C106.341 146.345 106.2 147.161 106.847 148.231C107.216 148.984 107.749 149.645 108.406 150.166C109.063 150.687 109.829 151.055 110.646 151.242C112.982 151.861 114.558 150.848 115.402 150.988C117.216 151.573 118.993 152.268 120.721 153.071C123.317 155.655 126.491 157.585 129.98 158.699C132.577 159.789 134.96 161.333 137.016 163.259C137.973 164.157 139.102 164.855 140.333 165.31C141.565 165.765 142.876 165.968 144.188 165.908C145.5 165.848 146.786 165.525 147.971 164.958C149.156 164.392 150.216 163.594 151.087 162.611C155.59 157.827 154.83 153.831 151.143 150.032Z" fill="#FBBEAA"/>
<path d="M134.586 167.162L179.89 218.106C185.319 225.342 198.005 229.318 205.756 222.614C207.189 221.359 208.353 219.825 209.176 218.106C209.998 216.387 210.463 214.519 210.543 212.615C210.622 210.711 210.313 208.81 209.636 207.029C208.958 205.248 207.926 203.623 206.602 202.252L151.699 144.783L134.586 167.162Z" fill="#90A2B7"/>
<path d="M115.148 128.953C115.14 129 115.142 129.047 115.154 129.093C115.165 129.139 115.186 129.182 115.216 129.219C115.245 129.256 115.281 129.287 115.323 129.309C115.365 129.331 115.411 129.344 115.458 129.347L117.766 129.572H118.891C119.285 129.572 119.651 129.713 120.045 129.741C120.461 129.866 120.866 130.026 121.255 130.219L122.55 130.754C124.295 131.458 126.039 132.105 127.334 132.583C128.628 133.062 129.529 133.343 129.529 133.343C129.6 133.373 129.68 133.376 129.753 133.35C129.826 133.323 129.887 133.271 129.923 133.203C129.975 133.134 130.004 133.05 130.004 132.963C130.004 132.877 129.975 132.793 129.923 132.724L127.812 131.627L125.617 130.585C124.829 130.219 123.957 129.854 123.084 129.516L121.762 129.009C121.336 128.817 120.893 128.666 120.439 128.559L119.088 128.418H117.934H116.218H115.57C115.499 128.362 115.409 128.337 115.32 128.347C115.23 128.358 115.148 128.404 115.092 128.475C115.036 128.546 115.01 128.636 115.021 128.725C115.032 128.815 115.077 128.897 115.148 128.953ZM115.683 135.735H116.19C116.611 135.698 117.035 135.698 117.456 135.735L118.328 135.876C118.65 135.916 118.969 135.973 119.285 136.045L121.199 136.664C122.493 137.086 123.76 137.621 124.717 138.015C124.717 138.015 125.026 138.015 124.998 138.156H125.336L125.842 138.296H126.152H126.321C126.406 138.316 126.48 138.369 126.527 138.442C126.574 138.516 126.591 138.605 126.574 138.69C126.562 138.758 126.528 138.819 126.477 138.865C126.426 138.911 126.361 138.938 126.293 138.944H124.857H124.407C123.422 138.69 122.099 138.296 120.805 137.846L118.919 137.143L118.047 136.917L117.287 136.692C116.898 136.577 116.504 136.483 116.105 136.411L115.627 136.27C115.584 136.257 115.545 136.236 115.51 136.208C115.476 136.18 115.447 136.145 115.426 136.106C115.406 136.066 115.393 136.024 115.388 135.979C115.384 135.935 115.389 135.89 115.402 135.848C115.435 135.807 115.478 135.775 115.528 135.755C115.577 135.735 115.63 135.728 115.683 135.735ZM115.683 143.728H116.724C117.006 143.728 117.371 143.728 117.737 143.925L118.891 144.291C119.617 144.546 120.323 144.857 121.002 145.219C121.314 145.366 121.615 145.535 121.902 145.726C121.96 145.792 121.991 145.877 121.991 145.965C121.991 146.053 121.96 146.138 121.902 146.204C121.822 146.29 121.711 146.34 121.593 146.345L120.552 146.176C119.961 146.035 119.201 145.81 118.441 145.557L117.343 145.107L116.387 144.741C116.068 144.6 115.758 144.44 115.458 144.263C115.378 144.215 115.319 144.14 115.293 144.051C115.267 143.962 115.276 143.867 115.317 143.784C115.401 143.731 115.501 143.711 115.599 143.728H115.683Z" fill="#F18380"/>
<path d="M91.8723 125.741L92.4163 125.77L92.3784 126.474L92.9588 126.505L92.9967 125.801L93.5406 125.831L93.4371 127.753L92.8932 127.724L92.9342 126.963L92.3537 126.931L92.3127 127.693L91.7688 127.663L91.8723 125.741L91.8723 125.741ZM95.4816 125.935L95.3781 127.858L94.8526 127.829L94.9315 126.362L94.5872 126.344L94.5575 126.896C94.5442 127.144 94.5095 127.447 94.3555 127.61C94.2006 127.792 93.9248 127.836 93.6201 127.761L93.6458 127.285C93.9322 127.358 94.0115 127.246 94.032 126.866L94.0863 125.856L95.4818 125.931L95.4816 125.935ZM95.9357 125.959L96.4796 125.989L96.7258 127.147L97.0949 126.022L97.6388 126.051L97.7898 127.987L97.2825 127.96L97.2115 126.925L96.865 127.938L96.5024 127.918L96.2684 126.874L96.0867 127.896L95.5794 127.868L95.9356 125.959L95.9357 125.959ZM98.0928 126.075L98.6368 126.105L98.5948 126.885L99.1623 126.133L99.7611 126.165L99.0214 127.08L99.6761 128.089L99.0241 128.054L98.577 127.247L98.535 128.028L97.9911 127.998L98.0945 126.076L98.0929 126.075L98.0928 126.075ZM95.8634 123.892C92.6 123.717 90.3745 124.839 90.2763 126.665C90.1789 128.475 92.2686 129.846 95.5336 130.022C98.8152 130.198 101.023 129.056 101.121 127.249C101.219 125.422 99.1466 124.069 95.8634 123.892ZM95.5489 129.737C92.4835 129.572 90.4965 128.339 90.5856 126.682C90.6757 125.007 92.7844 124.012 95.848 124.177C98.9301 124.343 100.903 125.556 100.813 127.232C100.724 128.89 98.6325 129.903 95.5489 129.737ZM95.8337 124.444C92.9513 124.289 90.9743 125.195 90.8934 126.699C90.8125 128.202 92.6809 129.315 95.5633 129.47C98.4457 129.625 100.423 128.719 100.504 127.216C100.586 125.712 98.7178 124.599 95.8337 124.444ZM95.5663 129.414C92.7188 129.261 90.8694 128.168 90.9482 126.703C91.027 125.238 92.9846 124.351 95.8305 124.504C98.6763 124.657 100.527 125.749 100.449 127.214C100.371 128.68 98.4137 129.567 95.5663 129.414L95.5663 129.414Z" fill="white"/>
<circle cx="2.50395" cy="2.50395" r="2.50395" transform="matrix(-1 0 0 1 103.831 144.162)" fill="#90A2B7"/>
<circle cx="2.50395" cy="2.50395" r="2.50395" transform="matrix(-1 0 0 1 103.831 156.982)" fill="#90A2B7"/>
<circle cx="2.50395" cy="2.50395" r="2.50395" transform="matrix(-1 0 0 1 103.831 169.192)" fill="#90A2B7"/>
</svg>
