<svg width="195" height="514" viewBox="0 0 195 514" fill="none" xmlns="http://www.w3.org/2000/svg">
<path d="M23.3962 70.3558C23.2939 68.1208 23.8922 65.9097 25.1076 64.0312C26.9787 61.8616 28.3805 59.3282 29.2248 56.5904C29.8743 54.049 30.9117 51.6229 32.3004 49.3976C33.2925 48.0335 34.7806 46.9174 34.7806 45.8757C34.7806 44.834 32.7964 42.825 29.9689 43.3954C28.7578 43.7727 27.645 44.413 26.7103 45.2706C25.7755 46.1282 25.0419 47.1817 24.5619 48.3559C24.291 47.6405 24.1321 46.8876 24.0907 46.1237L23.4707 30.9197C23.4612 30.5256 23.3729 30.1373 23.211 29.7778C23.049 29.4184 22.8166 29.095 22.5276 28.8269C22.2386 28.5587 21.8989 28.3511 21.5283 28.2164C21.1578 28.0817 20.7641 28.0226 20.3703 28.0426C19.7435 28.0694 19.1407 28.2919 18.6468 28.679C18.153 29.066 17.7929 29.5981 17.6172 30.2004V29.506C17.5218 28.7669 17.1504 28.0912 16.5774 27.6147C16.0045 27.1381 15.2724 26.8959 14.5283 26.9367C13.7842 26.9775 13.0831 27.2983 12.5657 27.8347C12.0483 28.3711 11.753 29.0833 11.739 29.8284V31.9366C11.4906 31.2867 11.0169 30.7476 10.4043 30.4177C9.79163 30.0877 9.08085 29.989 8.40146 30.1393C7.72207 30.2896 7.1193 30.6789 6.70302 31.2365C6.28674 31.7941 6.08465 32.4827 6.13359 33.1768V34.5161C5.86664 34.0469 5.46881 33.6657 4.98869 33.4191C4.50857 33.1724 3.96697 33.0709 3.43012 33.1271C2.69495 33.2204 2.025 33.5962 1.56205 34.1749C1.09911 34.7536 0.87952 35.4897 0.949863 36.2274L2.16516 49.0504C2.96131 56.2798 4.4565 63.415 6.62968 70.3558C6.65595 71.5147 6.92444 72.6553 7.41785 73.7042C7.91127 74.7531 8.61869 75.6872 9.49468 76.4464C10.3707 77.2056 11.3958 77.7731 12.5042 78.1124C13.6127 78.4517 14.7798 78.5554 15.9307 78.4167C16.9721 78.4514 18.0089 78.2618 18.9706 77.8606C19.9324 77.4595 20.7966 76.8561 21.5047 76.0916C22.2128 75.327 22.7482 74.4192 23.0746 73.4295C23.4009 72.4399 23.5106 71.3916 23.3962 70.3558Z" fill="#FBBEAA"/>
<path d="M106.981 475.134C106.981 472.746 106.033 470.456 104.344 468.768C102.656 467.079 100.366 466.131 97.9778 466.131C95.59 466.131 93.3 467.079 91.6115 468.768C89.9231 470.456 88.9745 472.746 88.9745 475.134V494.703H106.981V475.134Z" fill="#FBBEAA"/>
<path d="M89.6183 478.78C87.4108 478.78 87.014 479.748 86.3691 481.012C85.3232 484.383 83.5349 487.477 81.1358 490.065C77.5541 493.116 73.7114 495.847 69.6522 498.225V508.593H109.733C109.733 508.593 109.46 500.408 109.262 494.629C109.064 488.85 108.493 481.806 108.543 481.062C108.592 480.318 108.543 478.78 107.179 478.78H89.6183Z" fill="#302D3B"/>
<path d="M104.749 495.199C104.754 496.472 104.381 497.717 103.677 498.777C102.973 499.837 101.97 500.665 100.795 501.154C99.6201 501.643 98.3264 501.773 97.078 501.525C95.8296 501.278 94.6827 500.666 93.7828 499.766C92.8829 498.866 92.2706 497.719 92.0235 496.471C91.7764 495.223 91.9057 493.929 92.395 492.754C92.8843 491.579 93.7115 490.576 94.7717 489.872C95.8319 489.168 97.0773 488.795 98.3499 488.8C100.045 488.807 101.669 489.483 102.868 490.681C104.066 491.88 104.742 493.504 104.749 495.199Z" fill="#93929C"/>
<path d="M98.349 491.429L99.8124 493.587L102.317 494.306L100.73 496.365L100.805 498.969L98.349 498.076L95.8936 498.969L95.9928 496.365L94.3806 494.306L96.8857 493.587L98.349 491.429Z" fill="white"/>
<path d="M69.9263 498.052C69.9263 498.052 64.2465 501.053 62.1135 502.516C61.126 503.185 60.3238 504.094 59.7817 505.156C59.2396 506.219 58.9753 507.401 59.0131 508.593H74.5892C74.5892 508.593 74.2667 500.979 69.9263 498.052Z" fill="white"/>
<path d="M109.733 508.593V512.884C109.733 513.603 109.088 514 107.997 514H60.7233C59.6568 514 59.0119 513.603 59.0119 512.884V508.593H109.733Z" fill="white"/>
<path d="M74.589 495.15C74.4517 494.939 74.2376 494.79 73.9921 494.734C73.7467 494.679 73.4893 494.721 73.2745 494.852C73.1676 494.918 73.0749 495.005 73.0018 495.107C72.9287 495.209 72.8769 495.324 72.8491 495.447C72.8214 495.569 72.8184 495.696 72.8403 495.82C72.8623 495.943 72.9087 496.061 72.9769 496.167L74.6386 498.845C74.7187 498.984 74.8347 499.099 74.9743 499.177C75.114 499.256 75.2721 499.296 75.4323 499.292C75.616 499.289 75.7957 499.238 75.9532 499.143C76.0601 499.077 76.1528 498.991 76.2259 498.889C76.2989 498.787 76.3509 498.671 76.3786 498.548C76.4063 498.426 76.4093 498.299 76.3873 498.176C76.3654 498.052 76.319 497.934 76.2509 497.829L74.589 495.15Z" fill="white"/>
<path d="M77.5155 493.091C77.4341 492.997 77.3349 492.919 77.2235 492.863C77.1121 492.807 76.9907 492.773 76.8664 492.764C76.742 492.755 76.6171 492.77 76.4987 492.809C76.3802 492.848 76.2707 492.91 76.1762 492.992C76.0818 493.073 76.0043 493.172 75.9482 493.284C75.8921 493.395 75.8584 493.517 75.8492 493.641C75.8399 493.765 75.8553 493.89 75.8944 494.009C75.9335 494.127 75.9956 494.237 76.077 494.331L78.0116 496.613C78.1009 496.718 78.2109 496.802 78.3347 496.862C78.4585 496.922 78.5935 496.955 78.7309 496.96C78.9106 496.957 79.0857 496.904 79.2367 496.806C79.3878 496.709 79.5087 496.571 79.586 496.409C79.6632 496.247 79.6938 496.066 79.6742 495.888C79.6545 495.709 79.5856 495.539 79.4749 495.398L77.5155 493.091Z" fill="white"/>
<path d="M80.2682 490.785C80.0709 490.658 79.834 490.606 79.6019 490.641C79.3697 490.676 79.1579 490.793 79.0062 490.972C78.8544 491.151 78.7729 491.38 78.777 491.614C78.781 491.849 78.8702 492.074 79.028 492.248L81.2354 494.158C81.4085 494.304 81.6287 494.384 81.8555 494.381C81.9921 494.386 82.1279 494.359 82.2526 494.304C82.3773 494.248 82.4876 494.164 82.5748 494.059C82.6664 493.973 82.7395 493.869 82.7894 493.754C82.8393 493.639 82.865 493.515 82.865 493.389C82.865 493.263 82.8393 493.139 82.7894 493.024C82.7395 492.909 82.6664 492.805 82.5748 492.719L80.2682 490.785Z" fill="white"/>
<path d="M85.1055 489.644L82.6253 488.106C82.4075 487.977 82.148 487.939 81.9023 487.999C81.6565 488.059 81.4441 488.213 81.3107 488.428C81.2436 488.535 81.1987 488.655 81.1786 488.779C81.1585 488.904 81.1636 489.031 81.1937 489.154C81.2238 489.276 81.2781 489.392 81.3536 489.493C81.4291 489.594 81.5242 489.679 81.6332 489.743L84.1134 491.281C84.2604 491.378 84.4331 491.43 84.6095 491.429C84.7711 491.426 84.929 491.38 85.068 491.298C85.207 491.215 85.3224 491.098 85.4031 490.958C85.5343 490.743 85.5766 490.486 85.521 490.241C85.4654 489.995 85.3164 489.781 85.1055 489.644Z" fill="white"/>
<path d="M87.1896 486.444L84.4117 485.279C84.1749 485.18 83.9086 485.18 83.6714 485.277C83.4342 485.375 83.2455 485.563 83.1468 485.8C83.0984 485.915 83.0734 486.039 83.0735 486.164C83.0735 486.29 83.0986 486.414 83.1471 486.529C83.1956 486.644 83.2666 486.749 83.356 486.837C83.4454 486.924 83.5513 486.993 83.6677 487.04L86.4455 488.205H86.8176C87.0316 488.194 87.2357 488.112 87.3979 487.972C87.5601 487.832 87.6712 487.642 87.7138 487.432C87.7563 487.222 87.7279 487.003 87.6331 486.811C87.5382 486.619 87.3822 486.464 87.1896 486.37V486.444Z" fill="white"/>
<path d="M88.9248 482.872L85.8493 482.104C85.6059 482.044 85.349 482.084 85.135 482.214C84.921 482.345 84.7675 482.555 84.7083 482.798C84.6491 483.041 84.6891 483.298 84.8193 483.512C84.9495 483.726 85.1594 483.88 85.4028 483.939L88.4535 484.733H88.6768C88.8904 484.73 89.0975 484.659 89.2673 484.529C89.4371 484.4 89.5605 484.219 89.6193 484.013C89.6724 483.77 89.6299 483.516 89.5006 483.304C89.3713 483.091 89.165 482.937 88.9248 482.872Z" fill="white"/>
<path d="M120.151 349.98C119.878 337.976 111.793 332.172 99.8129 332.47C87.8332 332.767 79.2019 339.042 79.4747 351.022L88.9741 476.102H106.981L120.151 349.98Z" fill="#FBBEAA"/>
<path d="M182.878 475.134C182.878 472.746 181.929 470.456 180.241 468.768C178.552 467.079 176.262 466.131 173.874 466.131C171.486 466.131 169.196 467.079 167.508 468.768C165.819 470.456 164.871 472.746 164.871 475.134V494.703H182.878V475.134Z" fill="#FBBEAA"/>
<path d="M165.541 478.78C163.309 478.78 162.912 479.748 162.292 481.012C161.234 484.384 159.437 487.476 157.034 490.065C153.456 493.122 149.613 495.853 145.55 498.225V508.593H185.631C185.631 508.593 185.358 500.408 185.16 494.629C184.961 488.85 184.416 481.806 184.44 481.062C184.465 480.318 184.44 478.78 183.101 478.78H165.541Z" fill="#302D3B"/>
<path d="M180.67 495.199C180.674 496.471 180.302 497.715 179.599 498.775C178.896 499.834 177.895 500.662 176.721 501.152C175.548 501.642 174.255 501.772 173.008 501.527C171.76 501.282 170.613 500.672 169.712 499.775C168.811 498.878 168.197 497.733 167.947 496.486C167.697 495.239 167.823 493.947 168.308 492.771C168.794 491.596 169.617 490.591 170.674 489.884C171.731 489.177 172.974 488.8 174.246 488.8C175.945 488.8 177.575 489.473 178.779 490.673C179.983 491.872 180.663 493.5 180.67 495.199Z" fill="#93929C"/>
<path d="M174.27 491.429L175.734 493.587L178.239 494.306L176.627 496.365L176.701 498.969L174.27 498.076L171.815 498.969L171.889 496.365L170.277 494.306L172.807 493.587L174.27 491.429Z" fill="white"/>
<path d="M145.848 498.052C145.848 498.052 140.143 501.053 138.035 502.516C137.042 503.18 136.236 504.087 135.694 505.151C135.151 506.215 134.89 507.4 134.935 508.593H150.585C150.585 508.593 150.163 500.979 145.848 498.052Z" fill="white"/>
<path d="M185.631 508.593V512.884C185.631 513.603 185.011 514 183.92 514H136.596C135.505 514 134.885 513.603 134.885 512.884V508.593H185.631Z" fill="white"/>
<path d="M150.485 495.15C150.35 494.936 150.135 494.785 149.889 494.729C149.642 494.673 149.384 494.717 149.17 494.852C148.956 494.987 148.805 495.201 148.749 495.448C148.693 495.694 148.737 495.953 148.872 496.167L150.534 498.845C150.62 498.984 150.741 499.099 150.884 499.177C151.028 499.255 151.189 499.295 151.353 499.292C151.529 499.292 151.702 499.241 151.849 499.143C151.956 499.077 152.048 498.991 152.121 498.889C152.194 498.787 152.246 498.671 152.274 498.548C152.302 498.426 152.305 498.299 152.283 498.176C152.261 498.052 152.214 497.934 152.146 497.829L150.485 495.15Z" fill="white"/>
<path d="M153.437 493.091C153.274 492.901 153.042 492.781 152.792 492.758C152.543 492.735 152.293 492.81 152.098 492.967C151.906 493.135 151.786 493.37 151.763 493.624C151.739 493.878 151.815 494.131 151.974 494.331L153.933 496.613C154.019 496.721 154.128 496.809 154.253 496.869C154.378 496.929 154.514 496.96 154.652 496.96C154.834 496.962 155.013 496.911 155.166 496.814C155.32 496.717 155.442 496.577 155.518 496.412C155.594 496.247 155.621 496.063 155.595 495.883C155.569 495.703 155.491 495.535 155.372 495.398L153.437 493.091Z" fill="white"/>
<path d="M156.165 490.785C155.967 490.658 155.731 490.606 155.498 490.641C155.266 490.676 155.054 490.793 154.903 490.972C154.751 491.151 154.669 491.38 154.674 491.614C154.678 491.849 154.767 492.074 154.925 492.248L157.157 494.158C157.33 494.304 157.55 494.384 157.777 494.381C157.913 494.384 158.048 494.357 158.173 494.301C158.297 494.245 158.408 494.162 158.496 494.059C158.585 493.971 158.655 493.867 158.703 493.752C158.751 493.637 158.775 493.514 158.775 493.389C158.775 493.264 158.751 493.141 158.703 493.026C158.655 492.911 158.585 492.807 158.496 492.719L156.165 490.785Z" fill="white"/>
<path d="M161 489.644L158.52 488.106C158.306 488.016 158.067 488.005 157.846 488.077C157.625 488.148 157.437 488.297 157.317 488.496C157.196 488.694 157.151 488.93 157.19 489.159C157.229 489.388 157.349 489.595 157.528 489.743L160.008 491.281C160.155 491.378 160.328 491.43 160.504 491.429C160.669 491.427 160.831 491.383 160.975 491.301C161.118 491.218 161.238 491.1 161.323 490.958C161.451 490.74 161.49 490.481 161.43 490.235C161.369 489.989 161.215 489.777 161 489.644Z" fill="white"/>
<path d="M23.6942 72.0179L33.6152 134.297C35.2522 142.11 32.7223 149.179 23.6942 150.419C22.0277 150.636 20.3344 150.512 18.7173 150.055C17.1002 149.597 15.5928 148.816 14.2869 147.758C12.9809 146.701 11.9036 145.388 11.1203 143.902C10.337 142.415 9.86411 140.784 9.7303 139.109L6.70438 72.1419C5.9107 65.8172 8.66374 61.6008 13.4754 61.08C19.3785 60.4351 22.5036 63.9323 23.6942 72.0179Z" fill="#FBBEAA"/>
<path d="M163.085 486.445L160.307 485.279C160.191 485.23 160.067 485.206 159.942 485.206C159.817 485.206 159.693 485.231 159.577 485.279C159.462 485.328 159.357 485.399 159.27 485.488C159.182 485.577 159.113 485.683 159.067 485.8C158.974 486.031 158.974 486.288 159.066 486.519C159.159 486.75 159.336 486.937 159.563 487.04L162.365 488.206C162.48 488.231 162.598 488.231 162.712 488.206C162.903 488.206 163.09 488.149 163.249 488.043C163.408 487.937 163.532 487.787 163.605 487.61C163.681 487.386 163.669 487.142 163.572 486.926C163.476 486.71 163.302 486.538 163.085 486.445Z" fill="white"/>
<path d="M164.821 482.873L161.77 482.104C161.523 482.043 161.263 482.082 161.045 482.212C160.827 482.342 160.669 482.553 160.604 482.798C160.575 482.919 160.569 483.044 160.588 483.167C160.607 483.289 160.65 483.407 160.715 483.513C160.779 483.619 160.864 483.711 160.964 483.784C161.064 483.857 161.178 483.91 161.299 483.939L164.349 484.733H164.597C164.821 484.716 165.032 484.622 165.193 484.466C165.355 484.311 165.458 484.105 165.484 483.882C165.511 483.66 165.459 483.435 165.338 483.246C165.217 483.057 165.034 482.917 164.821 482.848V482.873Z" fill="white"/>
<path d="M173.03 349.608C171.812 343.978 168.407 339.062 163.566 335.941C158.724 332.821 152.841 331.75 147.21 332.966C135.479 335.446 129.154 347.004 131.684 358.735L164.87 478.16H183.1L173.03 349.608Z" fill="#FBBEAA"/>
<path d="M121.715 349.2C121.648 346.35 121.021 343.541 119.868 340.933C118.716 338.326 117.061 335.971 114.999 334.003C112.936 332.035 110.507 330.492 107.848 329.463C105.189 328.434 102.354 327.939 99.5042 328.006C96.6542 328.073 93.8453 328.7 91.2378 329.853C88.6303 331.005 86.2753 332.659 84.3073 334.722C82.3392 336.784 80.7968 339.214 79.7678 341.873C78.7389 344.531 78.2436 347.367 78.3104 350.217L72.6792 478.794H121.714L121.715 349.2Z" fill="#93929C"/>
<path d="M173.027 346.546C171.681 341.051 168.245 336.298 163.449 333.297C158.654 330.296 152.877 329.284 147.346 330.476C141.816 331.668 136.969 334.97 133.835 339.68C130.702 344.39 129.529 350.137 130.565 355.698L143.76 478.294C143.76 478.294 175.358 480.179 194.184 478.294L173.027 346.546Z" fill="#93929C"/>
<path d="M15.6326 127.402L86.8656 73.2826C95.1745 67.9748 100.829 70.8024 105.244 76.4822C107.261 79.2312 108.195 82.6258 107.871 86.0194C107.546 89.4131 105.984 92.5689 103.483 94.8857L32.4239 147.244C29.9198 149.359 26.6962 150.426 23.4248 150.223C20.1534 150.019 17.0867 148.561 14.8637 146.153L14.5413 145.805C13.3614 144.547 12.4504 143.061 11.8638 141.438C11.2773 139.816 11.0274 138.091 11.1295 136.369C11.2316 134.647 11.6836 132.963 12.4578 131.422C13.232 129.88 14.3123 128.512 15.6326 127.402Z" fill="#FBBEAA"/>
<path d="M103.484 94.8611C104.141 94.295 104.74 93.6634 105.269 92.9761C105.738 91.2108 105.798 89.3621 105.446 87.5701C105.093 85.7781 104.337 84.0899 103.235 82.6334C99.4903 76.8544 91.6279 72.3155 88.1307 73.1836L84.6584 74.9446L45.3463 104.708C48.8256 112.885 53.5254 120.486 59.2853 127.253L103.484 94.8611Z" fill="#F18380"/>
<path d="M92.7447 69.4133L31.1013 110.988C31.3606 113.115 24.527 69.4133 24.527 69.4133L5.19109 71.9297C5.19109 71.9297 5.58462 116.058 8.47119 139.478C9.62355 148.828 17.3339 152.397 26.5377 150.389C31.0818 149.397 35.3598 147.533 39.1667 144.861C55.5252 133.379 101.418 101.038 105.171 96.9691C111.644 89.9499 111.644 84.6918 107.924 78.9128C104.203 73.1338 96.2418 68.5452 92.7447 69.4133Z" fill="#90A2B7"/>
<path d="M121.714 349.906L134.437 216.691C134.437 201.983 119.283 185.961 96.9359 189.408C76.7466 192.558 70.5956 212.847 72.2573 232.069C73.9191 251.291 78.4084 350.848 78.4084 350.848C78.4752 353.698 79.1026 356.507 80.255 359.115C81.4073 361.722 83.0619 364.077 85.1244 366.045C87.1868 368.013 89.6167 369.556 92.2753 370.585C94.9339 371.614 97.7691 372.109 100.619 372.042C103.469 371.976 106.278 371.348 108.886 370.196C111.493 369.043 113.848 367.389 115.816 365.326C117.784 363.264 119.327 360.834 120.355 358.175C121.384 355.517 121.88 352.682 121.813 349.832L121.714 349.906Z" fill="#93929C"/>
<path d="M173.031 347.252L160.381 214.062C157.703 199.602 139.721 186.779 118.415 194.369C99.1932 201.239 96.961 222.321 102.219 240.899C107.477 259.476 130.569 356.404 130.569 356.404C131.915 361.899 135.351 366.652 140.146 369.653C144.942 372.654 150.719 373.666 156.249 372.474C161.78 371.282 166.627 367.98 169.761 363.27C172.894 358.56 174.067 352.813 173.031 347.252Z" fill="#93929C"/>
<path d="M102.219 240.899C107.452 259.476 130.568 356.405 130.568 356.405" stroke="#5E5D63" stroke-width="0.75" stroke-miterlimit="10"/>
<path d="M105.939 67.3049C105.939 67.3049 94.9758 69.2147 92.8428 69.7852C91.584 70.0806 90.4208 70.6907 89.4621 71.5583C88.5034 72.4259 87.7807 73.5226 87.3615 74.7457C85.9973 77.9948 78.9782 99.2755 78.3334 101.582C77.8973 104.123 78.3068 106.737 79.4991 109.023C80.516 111.801 85.7741 124.45 85.7741 124.45L86.5678 165.201L116.181 169.897L144.556 165.201C144.556 165.201 154.477 89.4041 154.973 84.7164C155.469 80.0287 153.138 70.9758 147.533 69.8348C141.927 68.6939 126.55 67.3546 126.55 67.3546L105.939 67.3049Z" fill="#FBBEAA"/>
<path d="M85.1354 149.064V165.403C104.467 167.44 135.272 165.997 146.841 165.403C147.385 160.736 147.954 152.815 148.547 147.554C132.799 148.007 106.791 149.686 85.1354 149.064Z" fill="white"/>
<path d="M100.256 93.0933H99.3639V94.2477H98.4118V93.0933H97.5196V96.2473H98.4118V94.9983H99.364V96.2473H100.256V93.0933H100.256ZM94.3356 93.0933V96.2473H95.1977V93.8409H95.7625V94.7462C95.7625 95.1529 95.7926 95.6514 96.03 95.932C96.2673 96.2443 96.7147 96.3389 97.2195 96.2443V95.4623C96.7447 95.5569 96.6246 95.3678 96.6246 94.7433V93.0876H94.3356V93.0933ZM93.5907 93.0933H92.6984L92.1938 94.9668L91.6891 93.0933H90.7968L90.3794 96.2473H91.2116L91.4189 94.56L91.8965 96.2471H92.4913L92.966 94.56L93.1733 96.2471H94.0054L93.5908 93.0932L93.5907 93.0933ZM90.0521 93.0933H89.1598V94.3738L88.2977 93.0933H87.3155L88.4449 94.6545L87.2852 96.2473H88.3548L89.157 94.9668V96.2473H90.0493V93.0933H90.0519H90.0521ZM93.8909 89.7188C99.244 89.7188 102.785 91.7499 102.785 94.7462C102.785 97.7138 99.2466 99.7735 93.8909 99.7735C88.5078 99.7735 84.9963 97.711 84.9963 94.7462C84.9963 91.7499 88.5051 89.7188 93.8909 89.7188ZM93.8909 99.3066C98.9193 99.3066 102.278 97.4646 102.278 94.7462C102.278 91.999 98.9165 90.1858 93.8909 90.1858C88.8351 90.1858 85.5011 91.9962 85.5011 94.7462C85.5011 97.4646 88.8325 99.3066 93.8909 99.3066ZM93.8909 90.624C98.6191 90.624 101.773 92.2798 101.773 94.7462C101.773 97.2125 98.6191 98.8683 93.8909 98.8683C89.1626 98.8683 86.0086 97.2125 86.0086 94.7462C86.0058 92.2798 89.1598 90.624 93.8909 90.624ZM93.8909 98.7766C98.5618 98.7766 101.683 97.1525 101.683 94.749C101.683 92.3456 98.5592 90.7215 93.8909 90.7215C89.2226 90.7215 86.0987 92.3456 86.0987 94.749C86.0959 97.1525 89.2199 98.7768 93.8909 98.7768V98.7766Z" fill="white"/>
<path d="M187.465 161.555L155.692 77.9453C151.451 69.0164 145.176 68.4211 138.331 70.9014C135.164 72.1644 132.574 74.5495 131.055 77.6012C129.536 80.6529 129.195 84.1572 130.096 87.4448L162.811 169.566C163.802 172.69 165.966 175.309 168.847 176.872C171.728 178.435 175.103 178.821 178.263 177.949L178.734 177.825C180.401 177.371 181.957 176.581 183.309 175.505C184.661 174.429 185.779 173.089 186.596 171.566C187.413 170.044 187.911 168.371 188.061 166.65C188.21 164.929 188.007 163.195 187.465 161.555Z" fill="#FBBEAA"/>
<path d="M174.295 126.881L155.693 77.9452C155.195 76.872 154.605 75.8432 153.932 74.8697C151.654 73.4431 149.045 72.6295 146.36 72.5078C143.674 72.3861 141.003 72.9605 138.604 74.1752C135.819 75.5304 133.581 77.796 132.259 80.597C130.938 83.3981 130.612 86.5665 131.337 89.5776C131.337 89.8752 131.511 90.4457 131.66 91.2146L150.857 139.456C159.242 136.432 167.139 132.195 174.295 126.881Z" fill="#F18380"/>
<path d="M153.957 73.4811L189.269 165.129C160.265 155.848 163.665 129.991 147.89 132.645C147.89 132.645 129.7 89.95 129.006 86.1304C128.281 83.1192 128.606 79.9509 129.928 77.1499C131.25 74.3489 133.488 72.0832 136.273 70.728C144.036 66.7596 151.775 70.356 153.957 73.4811Z" fill="#90A2B7"/>
<path d="M127.518 7.90263C128.833 4.7279 135.455 3.31417 139.175 5.05035C142.896 6.78653 146.616 11.3502 147.162 23.7515C147.708 36.1528 146.691 45.6273 148.923 51.8776C146.86 51.6167 144.919 50.7541 143.342 49.3973C143.342 51.0343 143.094 55.0027 143.094 55.0027C141.894 54.9052 140.746 54.4655 139.788 53.7357C138.83 53.006 138.101 52.0169 137.687 50.8855C137.014 52.3169 136.587 53.8513 136.422 55.4244C134.24 54.2835 127.518 52.2993 127.518 40.5429V7.90263Z" fill="#1D1B24"/>
<path d="M84.2871 49.1001C84.9568 40.0968 87.6107 25.2152 87.6107 25.2152L93.9601 24.868C93.9601 24.868 95.6467 51.6796 96.1179 57.533C96.5892 63.3864 98.2758 64.9738 98.2758 64.9738C98.2758 64.9738 90.215 63.8577 88.95 56.2929C88.7646 57.774 88.6652 59.2647 88.6524 60.7574C88.6524 60.7574 83.5927 58.1035 84.2871 49.1001Z" fill="#302D3B"/>
<path d="M127.244 46.8185V67.8759C127.244 67.8759 125.582 75.1182 114.446 75.1182C112.235 75.3047 110.037 74.6375 108.302 73.2537C106.568 71.8699 105.429 69.8746 105.12 67.6775V46.8432L127.244 46.8185Z" fill="#FBBEAA"/>
<path d="M105.12 64.3539C112.114 67.6774 122.308 64.7011 127.244 55.5738V46.8185H105.12V64.3539Z" fill="#F18380"/>
<path d="M91.3064 30.6717C91.2011 35.7082 91.4331 40.7461 92.0008 45.7517C92.8937 52.9196 95.4237 60.8565 108.098 60.8565C120.772 60.8565 127.196 55.127 129.924 45.7517C131.561 40.0967 134.885 31.7134 133.52 22.0404C132.156 12.3674 126.328 6.04277 112.562 5.67073C98.7968 5.29869 89.8678 11.4497 91.3064 30.6717Z" fill="#FBBEAA"/>
<path d="M118.119 34.9622C118.035 35.3349 117.848 35.6764 117.579 35.9477C117.31 36.219 116.97 36.4089 116.598 36.4959C116.226 36.5829 115.837 36.5634 115.476 36.4395C115.114 36.3157 114.795 36.0926 114.555 35.7957C114.314 35.4988 114.162 35.1403 114.116 34.761C114.07 34.3818 114.132 33.9972 114.294 33.6514C114.456 33.3055 114.713 33.0124 115.034 32.8056C115.355 32.5988 115.728 32.4866 116.11 32.4819C116.406 32.5097 116.694 32.5963 116.956 32.7366C117.218 32.877 117.449 33.0684 117.636 33.2994C117.824 33.5304 117.963 33.7965 118.046 34.0821C118.128 34.3676 118.153 34.6669 118.119 34.9622Z" fill="#403D4F"/>
<path d="M99.6634 34.9622C99.5793 35.336 99.3914 35.6783 99.1212 35.95C98.851 36.2216 98.5097 36.4114 98.1364 36.4975C97.7631 36.5836 97.373 36.5625 97.0111 36.4367C96.6493 36.3108 96.3304 36.0854 96.091 35.7862C95.8517 35.4871 95.7018 35.1264 95.6585 34.7458C95.6151 34.3651 95.6801 33.98 95.8461 33.6347C96.0121 33.2894 96.2722 32.998 96.5965 32.7941C96.9208 32.5901 97.2961 32.4819 97.6792 32.4819C97.973 32.5127 98.2578 32.6016 98.5171 32.7433C98.7764 32.885 99.0049 33.0768 99.1895 33.3075C99.374 33.5382 99.5109 33.8033 99.5923 34.0874C99.6737 34.3714 99.6978 34.6687 99.6634 34.9622Z" fill="#403D4F"/>
<path d="M112.115 27.9436L112.313 27.7204C112.521 27.5426 112.746 27.3848 112.983 27.2492C113.291 27.0599 113.625 26.9178 113.975 26.8276C114.365 26.6809 114.775 26.5971 115.19 26.5795C115.586 26.53 115.986 26.53 116.381 26.5795C116.728 26.5493 117.076 26.5493 117.423 26.5795L118.39 26.8523C118.524 26.9059 118.636 27.0028 118.708 27.1275C118.781 27.2522 118.809 27.3976 118.789 27.5404C118.769 27.6832 118.702 27.8151 118.598 27.9152C118.494 28.0152 118.36 28.0777 118.216 28.0924H117.224C116.936 28.055 116.644 28.055 116.356 28.0924C116.034 28.0678 115.711 28.0678 115.389 28.0924C115.072 28.1339 114.757 28.1918 114.446 28.2661C114.149 28.2661 113.901 28.4645 113.653 28.4893C113.478 28.5669 113.295 28.6251 113.107 28.6629H112.909C112.75 28.7313 112.572 28.736 112.41 28.6759C112.248 28.6159 112.116 28.4957 112.041 28.3405C112.004 28.2542 111.985 28.1615 111.985 28.0677C111.985 27.9739 112.004 27.8811 112.041 27.7948L112.115 27.9436Z" fill="#403D4F"/>
<path d="M100.063 28.8856H99.8892L99.5171 28.7368H99.2443C99.152 28.6806 99.0516 28.6388 98.9467 28.6128C98.7359 28.5405 98.5204 28.4825 98.3018 28.4392C98.0633 28.4042 97.821 28.4042 97.5825 28.4392C97.3765 28.4154 97.1684 28.4154 96.9624 28.4392H96.1688C96.0021 28.4328 95.8444 28.3619 95.7287 28.2417C95.6131 28.1214 95.5486 27.9611 95.5487 27.7943C95.5468 27.6696 95.584 27.5475 95.6552 27.4451C95.7264 27.3428 95.828 27.2653 95.9455 27.2238L96.7145 26.951C96.9859 26.8569 97.2705 26.8067 97.5578 26.8022C97.8939 26.7407 98.2385 26.7407 98.5747 26.8022C99.2249 26.8727 99.8429 27.1217 100.36 27.5215C100.536 27.6593 100.694 27.8175 100.832 27.9927C100.956 28.1416 100.956 28.1911 100.956 28.1911V28.4392C100.977 28.6066 100.932 28.7757 100.83 28.9102C100.728 29.0447 100.577 29.1338 100.41 29.1585C100.336 29.1412 100.266 29.1078 100.206 29.0607C100.146 29.0135 100.097 28.9537 100.063 28.8856Z" fill="#403D4F"/>
<path d="M105.121 43.3951C104.702 43.3987 104.287 43.3144 103.902 43.1478C103.518 42.9812 103.173 42.7359 102.889 42.4278C102.784 42.32 102.704 42.1914 102.653 42.0503C102.601 41.9093 102.58 41.759 102.591 41.6093C102.591 41.3365 103.013 37.9138 103.161 36.6488C103.18 36.5215 103.247 36.4063 103.349 36.3277C103.451 36.249 103.579 36.2129 103.707 36.2272C103.83 36.2455 103.941 36.3092 104.019 36.4056C104.097 36.502 104.136 36.6242 104.129 36.7481C104.129 36.9465 103.583 41.4358 103.534 41.7086C103.737 41.9334 103.986 42.1117 104.264 42.2315C104.542 42.3514 104.843 42.4099 105.146 42.4031C105.207 42.403 105.267 42.4153 105.322 42.4392C105.378 42.4632 105.429 42.4983 105.471 42.5424C105.512 42.5865 105.545 42.6388 105.566 42.6958C105.587 42.7529 105.596 42.8136 105.592 42.8743C105.604 42.941 105.6 43.0094 105.581 43.0744C105.562 43.1393 105.529 43.1991 105.483 43.2493C105.438 43.2995 105.382 43.3387 105.319 43.364C105.256 43.3892 105.188 43.3999 105.121 43.3951Z" fill="#F18380"/>
<path d="M121.417 1.57829C107.676 -2.71256 97.904 2.66964 94.8037 6.73727C93.5463 6.32416 92.4351 5.55667 91.6035 4.52708C90.7719 3.49748 90.2554 2.24961 90.1161 0.933471C89.3987 1.32708 88.8257 1.93927 88.4803 2.68104C88.1349 3.4228 88.0351 4.25541 88.1956 5.05775C88.3561 5.86009 88.7684 6.59028 89.3725 7.14214C89.9766 7.69401 90.741 8.03877 91.5546 8.12621C86.5941 9.76318 83.6922 14.7485 83.841 20.9244C84.0496 23.1822 84.8464 25.346 86.1519 27.1999C87.4575 29.0538 89.2262 30.533 91.2818 31.4902C92.7254 27.1604 94.8979 23.1089 97.7056 19.5106C98.4781 22.6845 100.116 25.5819 102.436 27.8807C104.757 30.1795 107.67 31.7896 110.851 32.5319C110.543 30.6212 110.053 28.7442 109.388 26.9265C112.169 29.2496 115.471 30.8663 119.011 31.6391C119.258 29.5335 119.2 27.4032 118.837 25.3144C121.318 29.7789 125.485 36.55 131.636 38.435H135.505C137.539 34.2645 138.502 29.6529 138.307 25.0168C138.258 16.4351 135.158 5.86913 121.417 1.57829Z" fill="#302D3B"/>
<path d="M129.428 39.9483C129.626 36.5751 130.519 32.5075 134.637 33.2268C139.448 33.9461 139.92 46.9674 129.676 45.4049L129.428 39.9483Z" fill="#FBBEAA"/>
<path d="M135.034 40.8163C134.947 40.8175 134.862 40.795 134.788 40.7513C134.714 40.7076 134.653 40.6442 134.612 40.5683C134.507 40.3505 134.346 40.1646 134.146 40.0295C133.945 39.8944 133.712 39.815 133.471 39.7994C133.188 39.8023 132.91 39.8766 132.663 40.0153C132.415 40.154 132.207 40.3527 132.057 40.5931C132.002 40.6823 131.918 40.7504 131.819 40.7863C131.72 40.8223 131.612 40.8241 131.512 40.7915C131.412 40.7544 131.326 40.6862 131.268 40.5968C131.21 40.5075 131.183 40.4018 131.189 40.2955C131.226 39.2476 131.552 38.2303 132.129 37.3552C132.707 36.4801 133.514 35.7811 134.463 35.335C134.582 35.2957 134.711 35.3049 134.822 35.3607C134.934 35.4165 135.019 35.5143 135.058 35.6326C135.098 35.751 135.088 35.8802 135.033 35.9917C134.977 36.1033 134.879 36.1882 134.761 36.2278C134.203 36.4988 133.707 36.8804 133.302 37.3495C132.897 37.8186 132.591 38.3652 132.405 38.9561C132.758 38.8088 133.138 38.7329 133.521 38.7329C133.922 38.7708 134.307 38.9058 134.644 39.1262C134.981 39.3466 135.26 39.6458 135.455 39.9979C135.485 40.0531 135.504 40.1137 135.51 40.1763C135.517 40.2388 135.51 40.302 135.492 40.3621C135.473 40.4222 135.443 40.478 135.403 40.5262C135.362 40.5744 135.313 40.614 135.257 40.6427L135.034 40.8163Z" fill="#F18380"/>
<path d="M134.414 48.3807C133.223 39.4269 129.801 24.6942 129.801 24.6942H123.426C123.426 24.6942 123.178 51.5554 123.005 57.4336C122.831 63.3118 121.268 65.0728 121.268 65.0728C121.268 65.0728 129.255 63.5351 130.123 55.8959C130.389 57.3717 130.563 58.8628 130.644 60.3603C130.644 60.3603 135.58 57.3344 134.414 48.3807Z" fill="#302D3B"/>
<path d="M123.771 122.292L163.257 171.476C167.945 177.924 174.89 180.802 181.809 174.998C183.089 173.91 184.135 172.574 184.883 171.07C185.631 169.566 186.066 167.926 186.161 166.25C186.256 164.573 186.009 162.894 185.436 161.315C184.863 159.737 183.975 158.291 182.826 157.065L135.255 109.941C131.113 105.104 126.128 104.335 122.507 107.46C118.116 111.354 118.637 115.918 123.771 122.292Z" fill="#FBBEAA"/>
<path d="M137.639 112.52C133.249 108.08 125.039 98.5065 122.261 96.1751C119.515 94.1055 116.514 92.3967 113.332 91.0905C110.919 90.282 108.424 89.7414 105.892 89.4783C104.131 89.2551 103.411 89.776 103.411 90.8425C103.456 91.4779 103.658 92.0921 104 92.6292C104.343 93.1664 104.814 93.6094 105.371 93.918H102.122C101.006 93.918 100.286 94.8109 100.807 96.2495C101.28 97.1999 101.956 98.0347 102.788 98.6948C103.619 99.3548 104.586 99.824 105.619 100.069C105.619 100.069 101.229 100.491 100.113 100.714C98.9966 100.937 98.6494 101.359 98.6494 102.425C98.659 103.162 98.8637 103.883 99.2428 104.515C99.6218 105.147 100.162 105.667 100.807 106.022C102.387 106.663 104.064 107.032 105.768 107.113C105.768 107.113 100.336 108.477 99.2446 108.874C98.1533 109.271 98.0292 109.99 98.5997 110.933C98.9248 111.596 99.3942 112.179 99.9735 112.639C100.553 113.098 101.227 113.422 101.948 113.586C104.007 114.132 105.396 113.239 106.14 113.363C107.738 113.878 109.304 114.491 110.827 115.199C113.115 117.476 115.912 119.177 118.987 120.159C121.276 121.12 123.376 122.48 125.188 124.177C126.032 124.969 127.026 125.584 128.112 125.985C129.198 126.386 130.353 126.565 131.509 126.512C132.666 126.459 133.799 126.174 134.844 125.675C135.888 125.176 136.822 124.473 137.589 123.607C141.558 119.39 140.888 115.868 137.639 112.52Z" fill="#FBBEAA"/>
<path d="M105.914 93.9428C105.907 93.9838 105.908 94.0259 105.919 94.0662C105.929 94.1065 105.947 94.1443 105.973 94.177C105.999 94.2097 106.031 94.2367 106.068 94.2562C106.105 94.2756 106.145 94.2871 106.187 94.29L108.22 94.4885H109.213C109.56 94.4885 109.882 94.6125 110.229 94.6373C110.596 94.7473 110.953 94.8883 111.296 95.0589L112.437 95.5301C113.975 96.1502 115.512 96.7207 116.653 97.1423C117.794 97.5639 118.588 97.812 118.588 97.812C118.651 97.8385 118.721 97.8405 118.786 97.8175C118.85 97.7946 118.903 97.7483 118.935 97.688C118.981 97.6274 119.007 97.5534 119.007 97.4772C119.007 97.401 118.981 97.3269 118.935 97.2664L117.075 96.299L115.14 95.3813C114.446 95.0589 113.677 94.7365 112.908 94.4388L111.742 93.9924C111.368 93.8229 110.977 93.69 110.577 93.5955L109.386 93.4716H108.369H106.856H106.286C106.223 93.4222 106.144 93.3997 106.065 93.409C105.986 93.4183 105.914 93.4586 105.864 93.5211C105.815 93.5836 105.792 93.6632 105.802 93.7422C105.811 93.8213 105.851 93.8935 105.914 93.9428ZM106.385 99.9202H106.832C107.203 99.887 107.576 99.887 107.948 99.9202L108.717 100.044C109 100.08 109.281 100.129 109.56 100.193L111.246 100.739C112.387 101.111 113.503 101.582 114.347 101.929C114.347 101.929 114.62 101.929 114.595 102.053H114.892L115.339 102.177H115.612H115.76C115.835 102.195 115.9 102.241 115.942 102.306C115.984 102.371 115.999 102.449 115.984 102.524C115.973 102.584 115.943 102.638 115.898 102.678C115.853 102.719 115.796 102.743 115.736 102.748H114.471H114.074C113.206 102.524 112.04 102.177 110.899 101.78L109.237 101.16L108.469 100.962L107.799 100.764C107.456 100.662 107.109 100.579 106.757 100.515L106.335 100.391C106.298 100.38 106.263 100.361 106.233 100.337C106.203 100.312 106.177 100.281 106.159 100.247C106.141 100.212 106.129 100.174 106.125 100.135C106.122 100.096 106.126 100.057 106.137 100.019C106.166 99.983 106.205 99.9547 106.248 99.9374C106.292 99.92 106.339 99.9141 106.385 99.9202ZM106.385 106.964H107.303C107.551 106.964 107.873 106.964 108.196 107.138L109.213 107.46C109.852 107.686 110.474 107.959 111.073 108.279C111.348 108.408 111.613 108.557 111.866 108.725C111.917 108.784 111.945 108.859 111.945 108.936C111.945 109.013 111.917 109.088 111.866 109.147C111.795 109.222 111.697 109.267 111.594 109.271L110.676 109.122C110.155 108.998 109.485 108.8 108.816 108.576L107.848 108.179L107.005 107.857C106.724 107.732 106.451 107.592 106.187 107.435C106.116 107.394 106.065 107.327 106.042 107.249C106.019 107.171 106.026 107.087 106.063 107.014C106.136 106.967 106.225 106.949 106.311 106.964H106.385Z" fill="#F18380"/>
<path d="M22.9006 50.5139C23.8431 50.5139 23.9175 49.9187 24.3391 48.8274C22.2309 48.8274 16.1047 49.2242 13.426 54.3831C16.1295 50.6627 21.3132 50.5139 22.9006 50.5139ZM18.0889 30.8951C18.0889 30.8951 18.2377 31.7632 18.3865 33.0281C18.3865 33.673 18.5354 34.4418 18.585 35.2355C18.6346 36.0292 18.7089 36.8973 18.7834 37.7158C18.7834 39.452 18.9073 41.1634 18.9073 42.4531C18.9073 43.7428 18.9073 44.6109 18.9073 44.6109C18.9075 44.6522 18.8991 44.693 18.8826 44.7309C18.8661 44.7687 18.8419 44.8026 18.8116 44.8306C18.7813 44.8586 18.7455 44.88 18.7065 44.8935C18.6674 44.9069 18.6261 44.912 18.585 44.9085C18.5152 44.905 18.4484 44.8789 18.3947 44.8342C18.341 44.7895 18.3033 44.7286 18.2873 44.6606C18.2873 44.6606 18.1385 43.7924 18.0145 42.5027C17.8905 41.2129 17.692 39.5016 17.6176 37.7902C17.6176 36.9221 17.6176 36.054 17.6176 35.3099C17.6176 34.5659 17.6176 33.7474 17.6176 33.1025C17.6176 31.788 17.6176 30.9446 17.6176 30.9446C17.6175 30.9034 17.6259 30.8626 17.6424 30.8248C17.6589 30.7869 17.6831 30.7529 17.7134 30.7249C17.7437 30.6969 17.7795 30.6756 17.8185 30.6622C17.8575 30.6488 17.899 30.6436 17.9401 30.647C17.9876 30.6744 18.0267 30.7144 18.0529 30.7625C18.0792 30.8107 18.0916 30.8651 18.0889 30.9199V30.8951ZM12.3347 32.6313C12.3347 32.6313 12.4835 33.3753 12.6571 34.4667C12.6571 35.0371 12.8307 35.682 12.9052 36.3764C12.9796 37.0709 13.054 37.815 13.1284 38.5591C13.1284 40.0472 13.302 41.5354 13.3268 42.6515C13.3516 43.7676 13.3268 44.5365 13.3268 44.5365C13.3236 44.5756 13.3128 44.6137 13.2949 44.6487C13.277 44.6836 13.2523 44.7147 13.2224 44.74C13.1924 44.7654 13.1577 44.7846 13.1203 44.7965C13.0829 44.8084 13.0435 44.8128 13.0044 44.8094C12.9377 44.8047 12.8744 44.7777 12.8249 44.7327C12.7754 44.6877 12.7425 44.6273 12.7315 44.5613C12.7315 44.5613 12.5827 43.8172 12.4091 42.7259C12.2355 41.6346 12.0867 40.1216 11.9626 38.6583C11.9626 37.9142 11.9626 37.1701 11.8138 36.4757C11.665 35.7812 11.8138 35.1115 11.8138 34.5411C11.8138 33.4249 11.8138 32.6809 11.8138 32.6809C11.8137 32.6396 11.8221 32.5988 11.8386 32.561C11.8551 32.5231 11.8793 32.4891 11.9096 32.4611C11.9399 32.4331 11.9757 32.4118 12.0147 32.3984C12.0537 32.385 12.0952 32.3798 12.1363 32.3832C12.1913 32.406 12.2389 32.4435 12.274 32.4916C12.309 32.5398 12.33 32.5967 12.3347 32.656V32.6313ZM6.77891 34.9875C6.77891 34.9875 6.92769 35.6076 7.12611 36.5501C7.12611 36.9965 7.32457 37.5422 7.39898 38.1375C7.47338 38.7327 7.57256 39.3528 7.67177 39.9728C7.84539 41.2378 7.91986 42.4531 7.96946 43.4452C8.01907 44.4373 7.96946 45.0326 7.96946 45.0326C7.96961 45.0738 7.96112 45.1146 7.94464 45.1525C7.92815 45.1903 7.90396 45.2243 7.87364 45.2523C7.84332 45.2803 7.80753 45.3017 7.7685 45.3151C7.72948 45.3285 7.68814 45.3336 7.64702 45.3302C7.58369 45.3269 7.52306 45.3034 7.47399 45.2633C7.42491 45.2231 7.38992 45.1684 7.37415 45.107C7.37415 45.107 7.20057 44.4869 7.02695 43.5692C6.85333 42.6515 6.60528 41.3618 6.45646 40.1216C6.45646 39.4768 6.33243 38.8567 6.28283 38.2614C6.23322 37.6662 6.28283 37.1205 6.28283 36.6493C6.28283 35.7068 6.28283 35.0619 6.28283 35.0619C6.28269 35.0206 6.29117 34.9798 6.30766 34.942C6.32414 34.9042 6.34826 34.8701 6.37858 34.8422C6.4089 34.8142 6.44477 34.7928 6.48379 34.7794C6.52281 34.766 6.56416 34.7608 6.60527 34.7643C6.65106 34.7898 6.69049 34.8254 6.72055 34.8683C6.75062 34.9113 6.77058 34.9605 6.77891 35.0123V34.9875Z" fill="#F18380"/>
<path d="M107.153 49.6052C109.547 49.5128 111.846 48.642 113.701 47.1249" stroke="#73102A" stroke-width="0.5" stroke-miterlimit="10" stroke-linecap="round"/>
<path d="M160.381 213.417C159.836 206.547 152.469 180.207 144.557 165.201C144.557 165.201 126.738 164.285 115.623 164.321C104.026 164.359 86.5689 165.201 86.5689 165.201C81.41 176.883 75.5318 202.405 73.8204 207.911C72.7872 211.151 72.6618 214.612 73.4576 217.917C74.2535 221.223 75.9402 224.248 78.3345 226.662C84.2127 233.334 99.3671 240.973 102.864 240.973C117.91 238.824 132.658 234.946 146.814 229.415C154.801 226.067 160.902 220.313 160.381 213.417Z" fill="#93929C"/>
<path d="M136.816 109.441L141.843 114.082L128.308 130.324L124.441 125.684L136.816 109.441Z" fill="#6B6B6B"/>
<path d="M24.8288 68.9722L25.441 75.7969L5.33157 78.8906L5.33157 71.5429L24.8288 68.9722Z" fill="#023783"/>
<path d="M102.155 70.5611C113.357 80.1627 124.493 74.5618 128.16 69.5609L144.163 76.5621L140.162 150.575L87.1528 152.575L89.1531 81.563L102.155 70.5611Z" fill="white"/>
<path d="M88.9959 70.1187C91.1362 68.7184 103.239 67.5405 103.239 67.5405V173.039C101.702 174.536 101.388 174.5 99.1811 174.251L99.0781 174.239C94.3074 173.041 89.7044 171.254 85.3757 168.918C85.3757 168.918 78.3779 128.23 77.7159 102.129C77.4347 91.0411 82.2889 84.0204 83.2035 81.0938C84.7278 76.2159 86.8555 71.5189 88.9959 70.1187Z" fill="#023783"/>
<path d="M124.631 174.213C123.658 174.007 122.737 173.608 121.922 173.039L127.363 66.4603C127.363 66.4603 144.568 66.4292 148.749 68.2895C150.487 69.0225 152.183 70.0857 153.247 71.643C154.312 73.2002 153.88 81.6472 153.932 83.5327C154.192 87.0533 153.868 165.037 153.928 165.717C153.988 166.398 153.407 166.778 152.787 167.138C152.167 167.498 132.564 173.219 127.583 174.239C126.607 174.428 125.603 174.42 124.631 174.213Z" fill="#023783"/>
<circle cx="1.82918" cy="1.82918" r="1.82918" transform="matrix(-1 0 0 1 101.598 103.044)" fill="#90A2B7"/>
<path d="M136.26 111.999C132.123 107.816 124.387 98.7946 121.77 96.5978C119.182 94.6477 116.354 93.0375 113.356 91.8067C111.082 91.0449 108.731 90.5355 106.345 90.2877C104.686 90.0773 104.008 90.5681 104.008 91.5731C104.05 92.1718 104.241 92.7505 104.563 93.2566C104.886 93.7628 105.329 94.1802 105.854 94.471H102.793C101.741 94.471 101.063 95.3124 101.554 96.6679C102 97.5634 102.637 98.35 103.421 98.972C104.204 99.5939 105.115 100.036 106.088 100.267C106.088 100.267 101.952 100.664 100.9 100.875C99.8482 101.085 99.521 101.482 99.521 102.487C99.53 103.181 99.723 103.861 100.08 104.456C100.437 105.051 100.946 105.541 101.554 105.876C103.043 106.48 104.623 106.828 106.228 106.904C106.228 106.904 101.11 108.19 100.082 108.564C99.0535 108.937 98.9367 109.615 99.4742 110.503C99.7805 111.129 100.223 111.678 100.769 112.111C101.315 112.543 101.95 112.849 102.629 113.004C104.569 113.518 105.878 112.677 106.579 112.794C108.085 113.279 109.56 113.857 110.996 114.523C113.152 116.669 115.787 118.271 118.685 119.197C120.842 120.102 122.82 121.384 124.528 122.983C125.323 123.73 126.26 124.309 127.283 124.687C128.306 125.065 129.394 125.234 130.484 125.183C131.573 125.133 132.642 124.865 133.626 124.395C134.61 123.925 135.489 123.262 136.213 122.446C139.952 118.473 139.321 115.154 136.26 111.999Z" fill="#FBBEAA"/>
<path d="M106.369 94.4943C106.362 94.5329 106.364 94.5725 106.373 94.6105C106.383 94.6485 106.4 94.6841 106.425 94.7149C106.449 94.7458 106.479 94.7712 106.514 94.7896C106.549 94.8079 106.587 94.8187 106.626 94.8214L108.542 95.0084H109.477C109.804 95.0084 110.108 95.1253 110.435 95.1487C110.781 95.2523 111.117 95.3852 111.44 95.5459L112.515 95.99C113.964 96.5742 115.413 97.1117 116.488 97.509C117.563 97.9063 118.311 98.1401 118.311 98.1401C118.37 98.1651 118.437 98.1669 118.497 98.1453C118.558 98.1237 118.608 98.0801 118.638 98.0232C118.682 97.9662 118.705 97.8964 118.705 97.8246C118.705 97.7528 118.682 97.683 118.638 97.6259L116.885 96.7144L115.063 95.8497C114.408 95.5459 113.684 95.2421 112.959 94.9616L111.861 94.541C111.508 94.3813 111.14 94.2561 110.762 94.1671L109.641 94.0502H108.682H107.257H106.719C106.66 94.0037 106.585 93.9826 106.511 93.9913C106.436 94.0001 106.368 94.0381 106.322 94.0969C106.275 94.1558 106.254 94.2308 106.263 94.3053C106.272 94.3798 106.31 94.4478 106.369 94.4943ZM106.813 100.127H107.233C107.583 100.095 107.935 100.095 108.285 100.127L109.01 100.243C109.277 100.277 109.542 100.324 109.804 100.384L111.393 100.898C112.468 101.248 113.52 101.692 114.315 102.02C114.315 102.02 114.572 102.02 114.548 102.136H114.829L115.25 102.253H115.507H115.647C115.717 102.27 115.779 102.314 115.818 102.375C115.857 102.436 115.871 102.509 115.857 102.581C115.847 102.636 115.819 102.688 115.776 102.726C115.734 102.764 115.68 102.787 115.623 102.791H114.432H114.058C113.24 102.581 112.141 102.253 111.066 101.879L109.5 101.295L108.776 101.108L108.145 100.921C107.822 100.826 107.494 100.748 107.163 100.687L106.766 100.571C106.731 100.56 106.698 100.542 106.669 100.519C106.641 100.496 106.617 100.467 106.6 100.434C106.582 100.402 106.572 100.366 106.568 100.329C106.564 100.292 106.568 100.255 106.579 100.22C106.607 100.186 106.643 100.159 106.684 100.143C106.725 100.126 106.769 100.121 106.813 100.127ZM106.813 106.764H107.677C107.911 106.764 108.215 106.764 108.519 106.927L109.477 107.231C110.08 107.444 110.666 107.701 111.23 108.003C111.489 108.124 111.739 108.265 111.978 108.423C112.025 108.478 112.052 108.549 112.052 108.622C112.052 108.695 112.025 108.765 111.978 108.821C111.911 108.892 111.818 108.933 111.721 108.937L110.856 108.797C110.365 108.68 109.734 108.493 109.103 108.283L108.192 107.909L107.397 107.605C107.132 107.488 106.875 107.355 106.626 107.208C106.56 107.169 106.511 107.106 106.489 107.032C106.467 106.959 106.475 106.879 106.509 106.811C106.578 106.766 106.662 106.75 106.743 106.764H106.813Z" fill="#F18380"/>
<path d="M124.784 125.788L162.972 172.516C167.757 178.893 178.937 182.397 185.769 176.489C187.032 175.382 188.057 174.03 188.782 172.516C189.507 171.001 189.917 169.354 189.987 167.676C190.057 165.998 189.785 164.323 189.188 162.753C188.591 161.184 185.936 155.895 184.769 154.688L136.917 109.747L124.784 125.788Z" fill="#90A2B7"/>
<path d="M137.068 109.624L142.37 114.388L128.736 130.628L123.546 125.044L137.068 109.624Z" fill="#023783"/>
<circle cx="1.82918" cy="1.82918" r="1.82918" transform="matrix(-1 0 0 1 101.598 115.848)" fill="#90A2B7"/>
<circle cx="1.82918" cy="1.82918" r="1.82918" transform="matrix(-1 0 0 1 101.598 128.043)" fill="#90A2B7"/>
<path d="M87.6942 91.4803L88.2374 91.5095L88.1996 92.2123L88.7793 92.2435L88.8171 91.5407L89.3603 91.5699L89.257 93.4902L88.7138 93.4609L88.7547 92.7005L88.1749 92.6693L88.134 93.4297L87.5908 93.4005L87.6941 91.4803L87.6942 91.4803ZM91.2989 91.6742L91.1956 93.5945L90.6706 93.5662L90.7495 92.1011L90.4056 92.0826L90.376 92.6338C90.3626 92.8814 90.328 93.1839 90.1742 93.347C90.0195 93.5294 89.744 93.5723 89.4398 93.4982L89.4654 93.022C89.7514 93.0952 89.8307 92.984 89.8511 92.6038L89.9054 91.5957L91.2991 91.6707L91.2989 91.6742ZM91.7524 91.6986L92.2956 91.7278L92.5415 92.885L92.9102 91.7609L93.4534 91.7901L93.6043 93.724L93.0976 93.6968L93.0267 92.6627L92.6806 93.6743L92.3185 93.6548L92.0847 92.612L91.9032 93.6324L91.3966 93.6052L91.7523 91.6985L91.7524 91.6986ZM93.9069 91.8145L94.4501 91.8437L94.4082 92.6234L94.975 91.872L95.573 91.9042L94.8343 92.8177L95.4881 93.8254L94.8369 93.7904L94.3905 92.9845L94.3485 93.7641L93.8053 93.7349L93.9086 91.8146L93.907 91.8145L93.9069 91.8145ZM91.6802 89.6342C88.421 89.4588 86.1982 90.5794 86.1001 92.4037C86.0029 94.2105 88.09 95.5805 91.3508 95.756C94.6283 95.9323 96.8338 94.7916 96.9309 92.9864C97.0291 91.1622 94.9593 89.8106 91.6802 89.6342ZM91.3661 95.4717C88.3046 95.3069 86.32 94.0755 86.4091 92.4203C86.4991 90.7477 88.605 89.7539 91.6649 89.9185C94.7431 90.0841 96.7136 91.2956 96.6235 92.9699C96.5345 94.625 94.4459 95.6374 91.3661 95.4717ZM91.6505 90.1853C88.7717 90.0305 86.7972 90.9352 86.7164 92.4369C86.6356 93.9385 88.5017 95.0499 91.3805 95.2048C94.2592 95.3597 96.2338 94.4549 96.3146 92.9533C96.3971 91.4517 94.531 90.3403 91.6505 90.1853ZM91.3835 95.149C88.5396 94.996 86.6924 93.9049 86.7712 92.4415C86.8499 90.9783 88.8051 90.0917 91.6473 90.2447C94.4896 90.3976 96.3384 91.4888 96.2596 92.952C96.1826 94.4155 94.2274 95.3021 91.3835 95.1491L91.3835 95.149Z" fill="white"/>
</svg>
