<svg width="212" height="515" viewBox="0 0 212 515" fill="none" xmlns="http://www.w3.org/2000/svg">
<path d="M109.263 60.5341H139.686V96.3131H109.263V60.5341Z" fill="#FBBEAA"/>
<path d="M139.61 60.5341H109.289V80.4955C110.613 80.66 111.946 80.7444 113.281 80.7482C123.742 80.7482 135.441 77.893 139.711 67.9122L139.61 60.5341Z" fill="#F18380"/>
<path d="M93.5467 33.9782C93.7994 44.3127 93.5468 52.4741 95.4166 60.3577C97.2864 68.2412 102.997 74.6844 115.631 74.6844C128.265 74.6844 142.667 70.5658 143.678 54.7735C145.75 52.5247 149.11 44.5148 149.237 35.5448C149.363 26.5747 148.656 7.59871 128.214 4.69292C107.772 1.78714 92.9908 9.29164 93.5467 33.9782Z" fill="#FBBEAA"/>
<path d="M104.235 42.1145C104.235 43.5042 103.401 44.6412 102.365 44.6412C101.329 44.6412 100.495 43.5042 100.495 42.1145C100.495 40.7248 101.329 39.5877 102.365 39.5877C103.401 39.5877 104.235 40.6237 104.235 42.1145Z" fill="#403D4F"/>
<path d="M126.976 42.1145C126.976 43.5042 126.142 44.6412 125.106 44.6412C124.07 44.6412 123.236 43.5042 123.236 42.1145C123.236 40.7248 124.07 39.5877 125.106 39.5877C126.142 39.5877 126.976 40.6237 126.976 42.1145Z" fill="#403D4F"/>
<path d="M122.402 36.8584C122.579 37.0858 123.918 36.8584 124.929 36.8584C125.94 36.8584 127.885 36.8584 127.885 36.631C127.885 36.4035 126.925 34.837 124.398 35.1149C122.579 35.317 121.922 36.4541 122.402 36.8584Z" fill="#403D4F"/>
<path d="M104.665 36.8584C104.514 37.0858 103.377 36.8584 102.492 36.8584C101.608 36.8584 99.9654 36.8584 99.9654 36.6309C100.192 36.0582 100.62 35.5881 101.169 35.3089C101.718 35.0297 102.351 34.9607 102.947 35.1149C104.514 35.317 104.943 36.4541 104.665 36.8584Z" fill="#403D4F"/>
<path d="M112.119 52.5752C110.35 52.5752 108.935 51.4128 108.885 50.579L109.466 43.4535C109.485 43.2769 109.572 43.1148 109.709 43.0016C109.846 42.8883 110.022 42.8329 110.199 42.8471C110.285 42.8535 110.369 42.8769 110.446 42.9159C110.524 42.955 110.593 43.009 110.649 43.0747C110.705 43.1405 110.748 43.2167 110.775 43.2991C110.802 43.3814 110.812 43.4683 110.805 43.5546L110.249 50.4274C110.505 50.7043 110.819 50.9207 111.168 51.0606C111.518 51.2005 111.895 51.2604 112.271 51.236C112.359 51.2291 112.448 51.2402 112.532 51.2685C112.616 51.2969 112.693 51.3419 112.759 51.4009C112.825 51.4599 112.879 51.5317 112.916 51.6119C112.954 51.6921 112.975 51.7791 112.978 51.8677C112.978 52.0469 112.911 52.2196 112.789 52.3509C112.667 52.4822 112.5 52.5624 112.321 52.5752H112.119Z" fill="#F18380"/>
<path d="M138.201 38.6776C138.201 48.8733 143.254 45.0831 143.254 45.0831C144.518 41.293 146.719 42.9228 149.612 42.9228C152.505 42.9228 152.133 40.8156 155.027 33.867C157.341 28.3081 154.673 19.4753 152.937 17.3373C155.814 13.5673 151.912 11.3215 152.047 11.8929C152.937 15.6603 149.852 11.8739 148.308 10.3886C131.809 -5.47555 90.2327 2.49444 90.2327 2.49444L94.5511 7.95901L83.9158 5.02126C83.9158 5.02126 84.6098 10.7758 86.4425 13.865C87.9689 16.4376 91.6578 19.4753 91.6578 19.4753L80.0848 20.5443C80.0848 20.5443 87.6073 28.5619 98.023 29.631C109.753 30.8349 122.326 25.3549 122.326 25.3549L117.697 30.7C117.697 30.7 129.398 28.3136 133.188 30.2889C135.612 31.5523 138.201 34.1196 138.201 38.6776Z" fill="#7D4A40"/>
<path d="M143.122 46.9154C143.248 44.0349 143.703 39.7899 147.797 39.6888C151.89 39.5877 152.421 42.6704 152.294 47.5218C152.168 52.3732 147.241 56.4918 142.92 54.8242L143.122 46.9154Z" fill="#FBBEAA"/>
<path d="M149.137 50.4019C148.96 50.371 148.802 50.2714 148.698 50.1247C148.594 49.978 148.552 49.7961 148.581 49.6187C148.581 49.476 148.54 49.3364 148.464 49.2157C148.388 49.095 148.28 48.9982 148.151 48.9364C147.894 48.7637 147.59 48.6715 147.28 48.6715C146.969 48.6715 146.666 48.7637 146.408 48.9364C146.296 48.9984 146.17 49.0308 146.042 49.0308C145.913 49.0308 145.787 48.9984 145.675 48.9364C145.572 48.8684 145.49 48.7737 145.436 48.6625C145.383 48.5512 145.361 48.4276 145.372 48.3047C145.726 44.2366 148.328 43.4786 148.429 43.4533C148.516 43.4267 148.606 43.4182 148.696 43.4282C148.786 43.4383 148.873 43.4667 148.951 43.5118C149.029 43.5568 149.097 43.6175 149.151 43.69C149.205 43.7626 149.243 43.8454 149.263 43.9334C149.31 44.1009 149.288 44.2801 149.203 44.4317C149.118 44.5833 148.976 44.6948 148.808 44.742C148.304 44.9705 147.864 45.3212 147.528 45.7623C147.193 46.2035 146.973 46.7212 146.888 47.2688C147.58 47.1559 148.29 47.2997 148.884 47.673C149.23 47.876 149.51 48.175 149.689 48.5338C149.869 48.8926 149.94 49.2958 149.895 49.6945C149.899 49.7929 149.882 49.8911 149.845 49.9823C149.807 50.0735 149.751 50.1555 149.679 50.2228C149.607 50.29 149.521 50.3408 149.427 50.3718C149.334 50.4027 149.235 50.413 149.137 50.4019Z" fill="#F18380"/>
<path d="M113.862 61.6717C116.301 61.5776 118.643 60.6904 120.532 59.1449" stroke="#73102A" stroke-width="0.5" stroke-miterlimit="10" stroke-linecap="round"/>
<path d="M113.776 57.1997C117.314 56.0374 121.356 54.673 122.746 56.3154C123.833 57.4272 122.367 62.6576 116.935 63.5672C111.502 64.4768 109.556 60.7372 109.834 59.297C110.011 58.4126 110.997 58.1346 113.776 57.1997Z" fill="#73102A"/>
<path d="M122.62 56.24H122.746C123.833 57.3518 122.367 62.5822 116.935 63.4918C115.754 63.7658 114.527 63.7658 113.347 63.4918C114.262 61.6739 115.568 60.0809 117.171 58.8272C118.774 57.5734 120.635 56.6899 122.62 56.24Z" fill="#D65155"/>
<path d="M121.356 55.6836C119.925 57.2393 118.107 58.3883 116.088 59.0141C114.068 59.6398 111.919 59.72 109.859 59.2464C110.061 58.3873 111.072 58.1093 113.776 57.1997C116.175 56.1911 118.753 55.6755 121.356 55.6836Z" fill="white"/>
<path d="M171.92 96.9921C177.695 104.417 211.106 195.164 211.106 195.164C180.169 185.264 183.072 158.509 166.247 161.34C166.247 161.34 146.845 115.801 146.104 111.727C145.331 108.515 145.678 105.135 147.087 102.148C148.497 99.1601 150.885 96.7435 153.855 95.298C162.136 91.0651 166.145 89.5672 171.92 96.9921Z" fill="#90A2B7"/>
<path d="M28.1769 89.0382C28.0495 86.2539 28.7949 83.4993 30.3089 81.1591C32.64 78.4563 34.3863 75.3003 35.4381 71.8896C36.2472 68.7236 37.5395 65.7012 39.2695 62.929C40.5055 61.2296 42.3594 59.8392 42.3594 58.5415C42.3594 57.2438 39.8875 54.741 36.3651 55.4517C34.8563 55.9217 33.47 56.7194 32.3055 57.7877C31.141 58.856 30.2271 60.1685 29.6292 61.6313C29.2917 60.7401 29.0938 59.8021 29.0422 58.8505L28.2697 39.9098C28.258 39.4188 28.148 38.9351 27.9462 38.4873C27.7444 38.0395 27.4549 37.6367 27.0949 37.3026C26.7349 36.9685 26.3116 36.7099 25.85 36.5421C25.3884 36.3743 24.8979 36.3007 24.4074 36.3256C23.6265 36.3589 22.8755 36.6361 22.2603 37.1183C21.6451 37.6005 21.1966 38.2634 20.9777 39.0137V38.1486C20.8588 37.2278 20.3961 36.3861 19.6823 35.7924C18.9686 35.1988 18.0566 34.897 17.1296 34.9478C16.2026 34.9987 15.3292 35.3984 14.6846 36.0666C14.0401 36.7347 13.6722 37.622 13.6548 38.5503V41.1766C13.3453 40.3669 12.7552 39.6954 11.992 39.2843C11.2288 38.8733 10.3433 38.7503 9.49695 38.9375C8.65058 39.1248 7.89967 39.6098 7.38108 40.3044C6.86248 40.999 6.61073 41.8569 6.6717 42.7216V44.39C6.33913 43.8056 5.84352 43.3307 5.2454 43.0234C4.64729 42.7161 3.97258 42.5897 3.30379 42.6597C2.38793 42.776 1.55333 43.2441 0.976604 43.965C0.399883 44.6859 0.126324 45.603 0.213951 46.522L1.72794 62.4965C2.71975 71.5027 4.58242 80.3915 7.28971 89.0382C7.32244 90.4819 7.65691 91.9027 8.27159 93.2095C8.88628 94.5162 9.76756 95.6799 10.8588 96.6257C11.9501 97.5714 13.2272 98.2784 14.6081 98.7011C15.9889 99.1238 17.4429 99.2529 18.8766 99.0801C20.1741 99.1234 21.4656 98.8872 22.6637 98.3875C23.8619 97.8877 24.9385 97.1361 25.8206 96.1836C26.7027 95.2312 27.3697 94.1002 27.7763 92.8673C28.1829 91.6344 28.3194 90.3285 28.1769 89.0382Z" fill="#FBBEAA"/>
<path d="M27.559 64.3199C28.7331 64.3199 28.8258 63.5783 29.3511 62.2188C26.7247 62.2188 19.0928 62.7132 15.7558 69.14C19.1237 64.5053 25.5815 64.3199 27.559 64.3199ZM21.5647 39.8793C21.5647 39.8793 21.7501 40.9608 21.9355 42.5366C21.9355 43.3399 22.1209 44.2977 22.1827 45.2865C22.2445 46.2752 22.3372 47.3567 22.4299 48.3763C22.4299 50.5392 22.5843 52.6712 22.5843 54.2779C22.5843 55.8846 22.5843 56.9661 22.5843 56.9661C22.5845 57.0175 22.574 57.0684 22.5535 57.1155C22.533 57.1626 22.5028 57.2049 22.465 57.2398C22.4273 57.2747 22.3827 57.3013 22.3341 57.3181C22.2855 57.3348 22.234 57.3411 22.1827 57.3368C22.0958 57.3324 22.0125 57.2999 21.9457 57.2442C21.8788 57.1885 21.8318 57.1126 21.8119 57.0279C21.8119 57.0279 21.6265 55.9464 21.472 54.3397C21.3175 52.733 21.0703 50.601 20.9776 48.469C20.9776 47.3876 20.9776 46.3061 20.9776 45.3792C20.9776 44.4522 20.9776 43.4326 20.9776 42.6293C20.9776 40.9916 20.9776 39.941 20.9776 39.941C20.9775 39.8896 20.9879 39.8388 21.0085 39.7917C21.029 39.7445 21.0592 39.7022 21.0969 39.6673C21.1347 39.6324 21.1793 39.6058 21.2279 39.5891C21.2765 39.5724 21.3281 39.566 21.3793 39.5703C21.4386 39.6043 21.4872 39.6542 21.5199 39.7142C21.5526 39.7741 21.5681 39.842 21.5647 39.9102V39.8793ZM14.3963 42.0422C14.3963 42.0422 14.5817 42.9691 14.798 44.3286C14.798 45.0393 15.0143 45.8426 15.107 46.7078C15.1997 47.5729 15.2924 48.4999 15.385 49.4268C15.385 51.2807 15.6013 53.1346 15.6322 54.5251C15.6631 55.9155 15.6322 56.8734 15.6322 56.8734C15.6283 56.9221 15.6148 56.9696 15.5925 57.0131C15.5702 57.0566 15.5395 57.0953 15.5022 57.1269C15.4648 57.1585 15.4216 57.1824 15.375 57.1973C15.3283 57.2121 15.2793 57.2175 15.2306 57.2133C15.1475 57.2075 15.0687 57.1738 15.007 57.1178C14.9454 57.0617 14.9043 56.9865 14.8907 56.9043C14.8907 56.9043 14.7053 55.9773 14.489 54.6177C14.2727 53.2582 14.0873 51.3735 13.9328 49.5505C13.9328 48.6235 13.9328 47.6965 13.7474 46.8314C13.562 45.9662 13.7474 45.132 13.7474 44.4213C13.7474 43.0309 13.7474 42.1039 13.7474 42.1039C13.7473 42.0525 13.7577 42.0017 13.7783 41.9546C13.7988 41.9075 13.8289 41.8651 13.8667 41.8302C13.9045 41.7953 13.9491 41.7687 13.9977 41.752C14.0463 41.7353 14.0979 41.7289 14.1491 41.7332C14.2177 41.7615 14.277 41.8082 14.3207 41.8682C14.3643 41.9282 14.3905 41.9991 14.3963 42.073V42.0422ZM7.47507 44.9775C7.47507 44.9775 7.66042 45.7499 7.9076 46.9241C7.9076 47.4803 8.15484 48.1601 8.24753 48.9016C8.34023 49.6432 8.46378 50.4156 8.58737 51.1881C8.80366 52.7639 8.89643 54.2779 8.95823 55.5138C9.02003 56.7498 8.95823 57.4914 8.95823 57.4914C8.95841 57.5428 8.94784 57.5936 8.9273 57.6407C8.90677 57.6879 8.87663 57.7302 8.83885 57.7651C8.80108 57.8 8.75649 57.8266 8.70788 57.8433C8.65926 57.86 8.60776 57.8664 8.55654 57.8621C8.47765 57.858 8.40212 57.8288 8.34098 57.7788C8.27984 57.7288 8.23625 57.6606 8.2166 57.5841C8.2166 57.5841 8.00037 56.8116 7.78408 55.6684C7.56779 54.5251 7.25877 52.9184 7.07338 51.3735C7.07338 50.5701 6.91887 49.7976 6.85707 49.0561C6.79527 48.3145 6.85707 47.6348 6.85707 47.0477C6.85707 45.8736 6.85707 45.0702 6.85707 45.0702C6.85689 45.0188 6.86746 44.9679 6.888 44.9208C6.90853 44.8737 6.93858 44.8313 6.97635 44.7964C7.01412 44.7616 7.05881 44.735 7.10742 44.7183C7.15603 44.7016 7.20754 44.6951 7.25876 44.6994C7.3158 44.7312 7.36491 44.7755 7.40237 44.8291C7.43983 44.8826 7.46469 44.9439 7.47507 45.0084V44.9775Z" fill="#F18380"/>
<path d="M102.931 86.6989L35.5897 132.117C35.873 134.44 30.4158 86.6989 30.4158 86.6989L5.49036 89.0255C5.49036 89.0255 6.94653 137.632 10.6146 163.302C12.0703 173.49 20.5499 177.353 30.6043 175.159C35.5685 174.076 40.2419 172.039 44.4007 169.12C62.2713 156.577 112.407 121.246 116.506 116.802C123.578 109.134 123.578 103.39 119.513 97.0764C115.449 90.7633 106.752 85.7506 102.931 86.6989Z" fill="#90A2B7"/>
<path d="M102.931 86.6989L35.5897 132.117C35.873 134.44 30.4158 86.6989 30.4158 86.6989L5.49036 89.0255C5.49036 89.0255 6.94653 137.632 10.6146 163.302C12.0703 173.49 20.5499 177.353 30.6043 175.159C35.5685 174.076 40.2419 172.039 44.4007 169.12C62.2713 156.577 112.407 121.246 116.506 116.802C123.578 109.134 123.578 103.39 119.513 97.0764C115.449 90.7633 106.752 85.7506 102.931 86.6989Z" fill="#90A2B7"/>
<path d="M141.658 324.508C141.739 331.019 139.229 337.295 134.682 341.956C130.135 346.617 123.922 349.28 117.411 349.361C110.9 349.441 104.624 346.932 99.9629 342.384C95.3021 337.837 92.6384 331.625 92.558 325.114C92.558 325.114 89.4514 234.491 88.3906 216.129C87.3298 197.767 92.1287 183.042 112.789 180.92C134.207 178.723 145.624 195.468 145.624 211.027C145.624 226.585 141.658 324.508 141.658 324.508Z" fill="#93929C"/>
<path d="M181.943 322.765C182.364 325.983 182.143 329.253 181.292 332.385C180.441 335.517 178.978 338.449 176.986 341.012C174.995 343.575 172.516 345.717 169.691 347.316C166.866 348.914 163.753 349.936 160.53 350.324C157.308 350.711 154.041 350.456 150.918 349.572C147.795 348.689 144.878 347.195 142.336 345.177C139.794 343.159 137.678 340.657 136.109 337.816C134.54 334.975 133.55 331.851 133.196 328.624C133.196 328.624 120.416 238.86 117.386 220.726C114.355 202.591 117.562 187.411 137.869 183.092C158.934 178.622 172.093 194.054 173.684 209.511C175.275 224.969 181.943 322.765 181.943 322.765Z" fill="#93929C"/>
<path d="M101.347 431.295C101.347 431.295 102.559 482.795 102.863 490.498C103.166 498.201 108.04 500.298 115.895 500.98C123.75 501.662 127.059 495.423 128.17 490.473C129.282 485.522 136 435.033 136 435.033L101.347 431.295Z" fill="#FBBEAA"/>
<path d="M102.231 467.211L131.201 470.317C133.449 454.38 136 434.957 136 434.957L101.347 431.219C101.347 431.219 101.802 450.516 102.231 467.211Z" fill="#F18380"/>
<path d="M141.658 324.508C141.618 321.284 140.944 318.099 139.673 315.136C138.403 312.173 136.561 309.488 134.253 307.237C131.946 304.985 129.217 303.21 126.223 302.013C123.229 300.817 120.029 300.221 116.805 300.261C113.581 300.301 110.397 300.975 107.433 302.245C104.47 303.516 101.786 305.358 99.5344 307.666C97.2828 309.973 95.5079 312.702 94.3109 315.696C93.1139 318.69 92.5183 321.89 92.5581 325.114L97.6096 468.657L137.238 472.926L141.658 324.508Z" fill="#93929C"/>
<path d="M153.2 433.265C153.2 433.265 159.919 484.335 161.03 491.938C162.141 499.54 167.218 501.157 175.123 500.98C183.029 500.803 185.63 494.261 186.211 489.235C186.792 484.209 188.055 433.265 188.055 433.265H153.2Z" fill="#FBBEAA"/>
<path d="M158.05 468.878H187.197C187.702 452.814 188.182 433.265 188.182 433.265H153.2C153.2 433.265 155.726 452.309 158.05 468.878Z" fill="#F18380"/>
<path d="M181.944 322.765C181.105 316.353 177.771 310.531 172.664 306.563C167.558 302.595 161.092 300.803 154.671 301.574C148.251 302.346 142.394 305.62 138.374 310.685C134.353 315.75 132.493 322.196 133.198 328.624L155.171 473.709H195.027L181.944 322.765Z" fill="#93929C"/>
<path d="M133.222 328.625L155.878 472.446" stroke="#565656" stroke-width="0.75" stroke-miterlimit="10" stroke-linecap="round"/>
<path d="M133.197 328.625C133.197 328.625 120.417 238.86 117.386 220.726" stroke="#565656" stroke-width="0.75" stroke-miterlimit="10" stroke-linecap="round"/>
<path d="M172.472 474.864C169.607 474.658 166.766 475.512 164.49 477.262C162.213 479.013 160.658 481.539 160.121 484.36L146.937 497.873V506.284H189.192C189.192 506.284 187.07 491.129 186.464 487.719C185.858 484.31 183.812 474.864 172.472 474.864Z" fill="#FBBEAA"/>
<path d="M160.147 484.259C159.667 483.603 158.985 483.097 158.505 483.4C158.025 483.704 145.27 493.806 144.664 494.312C144.291 494.662 144.008 495.098 143.841 495.582C143.674 496.066 143.627 496.584 143.704 497.09V507.925H190.127C190.127 507.925 188.308 491.912 188.182 491.028C188.056 490.144 187.172 488.982 186.667 489.008C183.48 489.984 180.174 490.511 176.842 490.574C172.413 490.808 167.996 489.94 163.986 488.048C162.499 487.014 161.2 485.732 160.147 484.259Z" fill="black"/>
<path d="M151.332 498.833C153.58 497.166 161.662 490.851 164.693 488.477L163.986 488.124C163.89 488.083 163.804 488.022 163.733 487.947C160.5 490.473 152.898 496.433 150.726 498.05C148.889 499.457 147.632 501.487 147.19 503.758L148.175 503.909C148.591 501.896 149.71 500.097 151.332 498.833Z" fill="white"/>
<path d="M188.864 496.888C185.592 496.921 182.426 498.051 179.873 500.096C177.564 502.141 176 504.895 175.427 507.925H176.791C177.349 505.299 178.729 502.92 180.731 501.131C183.082 499.249 186.004 498.224 189.016 498.227L188.864 496.888Z" fill="white"/>
<path d="M136.203 507.9H190.127C190.504 507.9 190.809 508.206 190.809 508.582V513.811C190.809 514.187 190.504 514.493 190.127 514.493H136.203C135.826 514.493 135.521 514.187 135.521 513.811V508.582C135.521 508.206 135.826 507.9 136.203 507.9Z" fill="white"/>
<path d="M144.79 494.21C144.31 494.008 141.961 494.69 138.905 497.696C137.633 499.011 136.717 500.629 136.244 502.397C135.771 504.165 135.757 506.024 136.203 507.799H151.534C150.675 498.1 145.27 494.413 144.79 494.21Z" fill="white"/>
<path d="M150.675 494.363C150.864 494.594 150.954 494.891 150.926 495.189C150.898 495.487 150.753 495.762 150.523 495.954C150.411 496.047 150.281 496.117 150.141 496.159C150.001 496.202 149.854 496.217 149.709 496.203C149.563 496.189 149.422 496.146 149.293 496.077C149.164 496.009 149.05 495.915 148.957 495.802L146.432 492.746C146.242 492.514 146.152 492.217 146.18 491.919C146.209 491.621 146.354 491.347 146.583 491.155C146.694 491.059 146.824 490.986 146.964 490.941C147.104 490.897 147.252 490.881 147.399 490.895C147.545 490.909 147.687 490.953 147.816 491.024C147.945 491.094 148.058 491.191 148.149 491.306L150.675 494.363Z" fill="white"/>
<path d="M153.68 492.064C153.87 492.296 153.96 492.593 153.931 492.891C153.903 493.188 153.758 493.463 153.529 493.655C153.417 493.751 153.288 493.824 153.148 493.869C153.007 493.913 152.86 493.929 152.713 493.915C152.567 493.901 152.425 493.857 152.296 493.786C152.167 493.715 152.053 493.619 151.963 493.503L149.437 490.447C149.254 490.213 149.167 489.918 149.196 489.622C149.224 489.325 149.364 489.052 149.589 488.856C149.7 488.76 149.829 488.687 149.97 488.642C150.11 488.598 150.258 488.582 150.404 488.596C150.55 488.61 150.692 488.654 150.821 488.725C150.95 488.796 151.064 488.892 151.154 489.008L153.68 492.064Z" fill="white"/>
<path d="M156.585 489.791C156.776 490.016 156.87 490.307 156.846 490.6C156.822 490.894 156.683 491.166 156.459 491.357C156.227 491.546 155.93 491.637 155.632 491.608C155.334 491.58 155.059 491.435 154.868 491.205L152.342 488.149C152.236 488.046 152.151 487.922 152.094 487.785C152.036 487.649 152.006 487.502 152.006 487.354C152.006 487.205 152.036 487.059 152.094 486.922C152.151 486.785 152.236 486.662 152.342 486.558C152.576 486.375 152.872 486.289 153.168 486.317C153.464 486.345 153.738 486.486 153.933 486.71L156.585 489.791Z" fill="white"/>
<path d="M159.515 487.493C159.608 487.605 159.678 487.735 159.72 487.875C159.763 488.015 159.778 488.162 159.764 488.307C159.75 488.453 159.707 488.594 159.638 488.723C159.57 488.852 159.476 488.966 159.363 489.059C159.151 489.267 158.865 489.384 158.568 489.384C158.27 489.384 157.985 489.267 157.772 489.059L155.246 485.977C155.057 485.745 154.967 485.448 154.995 485.15C155.024 484.853 155.168 484.578 155.398 484.386C155.511 484.293 155.641 484.223 155.78 484.18C155.92 484.138 156.067 484.123 156.212 484.137C156.358 484.151 156.499 484.194 156.628 484.262C156.757 484.331 156.871 484.425 156.964 484.538L159.515 487.493Z" fill="white"/>
<path d="M113.118 474.864C110.253 474.658 107.412 475.512 105.136 477.262C102.859 479.013 101.304 481.539 100.767 484.36L87.6078 497.873V506.284H129.838C129.838 506.284 127.742 491.129 127.11 487.719C126.479 484.31 124.458 474.864 113.118 474.864Z" fill="#FBBEAA"/>
<path d="M100.792 484.259C100.312 483.603 99.6556 483.097 99.1504 483.4C98.6453 483.704 85.9156 493.806 85.3347 494.312C84.7538 494.817 84.3496 495.448 84.3496 497.09V507.925H130.772C130.772 507.925 128.954 491.912 128.828 491.028C128.701 490.144 127.817 488.982 127.312 489.008C124.126 489.984 120.819 490.511 117.487 490.574C113.067 490.813 108.657 489.944 104.656 488.048C103.158 487.019 101.85 485.737 100.792 484.259Z" fill="black"/>
<path d="M91.9769 498.833C94.2248 497.166 102.307 490.851 105.338 488.477L104.656 488.124C104.553 488.083 104.459 488.023 104.378 487.947C101.145 490.473 93.5428 496.433 91.3706 498.05C89.5344 499.457 88.2767 501.487 87.8346 503.758L88.8197 503.909C89.2486 501.901 90.3652 500.105 91.9769 498.833Z" fill="white"/>
<path d="M129.51 496.888C126.238 496.921 123.072 498.051 120.518 500.096C118.21 502.141 116.646 504.895 116.073 507.925H117.437C118.001 505.296 119.391 502.916 121.402 501.131C123.741 499.245 126.657 498.22 129.661 498.227L129.51 496.888Z" fill="white"/>
<path d="M76.848 507.9H130.772C131.149 507.9 131.454 508.206 131.454 508.582V513.811C131.454 514.187 131.149 514.493 130.772 514.493H76.848C76.4713 514.493 76.166 514.187 76.166 513.811V508.582C76.166 508.206 76.4713 507.9 76.848 507.9Z" fill="white"/>
<path d="M85.4356 494.21C84.9557 494.008 82.6067 494.69 79.5506 497.696C78.2781 499.011 77.3622 500.629 76.8893 502.397C76.4164 504.165 76.4022 506.024 76.848 507.799H92.1792C91.3205 498.1 85.9154 494.413 85.4356 494.21Z" fill="white"/>
<path d="M91.4214 494.363C91.6107 494.594 91.701 494.891 91.6726 495.189C91.6442 495.487 91.4995 495.762 91.2699 495.954C91.1572 496.047 91.0272 496.117 90.8874 496.159C90.7477 496.202 90.6009 496.217 90.4555 496.203C90.31 496.189 90.1687 496.146 90.0398 496.077C89.9108 496.009 89.7966 495.915 89.7039 495.802L87.1781 492.746C86.995 492.512 86.9086 492.216 86.9368 491.92C86.965 491.624 87.1057 491.35 87.3298 491.155C87.441 491.059 87.5706 490.986 87.7108 490.941C87.8509 490.897 87.9987 490.881 88.1452 490.895C88.2916 490.909 88.4336 490.953 88.5626 491.024C88.6916 491.094 88.805 491.191 88.8957 491.306L91.4214 494.363Z" fill="white"/>
<path d="M94.3257 492.064C94.515 492.296 94.6053 492.593 94.5769 492.891C94.5485 493.189 94.4038 493.463 94.1742 493.655C94.0629 493.751 93.9333 493.824 93.7931 493.869C93.6529 493.913 93.5051 493.929 93.3587 493.915C93.2122 493.901 93.0702 493.857 92.9412 493.786C92.8122 493.716 92.6989 493.619 92.6082 493.503L90.0825 490.447C89.8994 490.213 89.813 489.918 89.8412 489.622C89.8694 489.326 90.01 489.052 90.234 488.856C90.4658 488.667 90.7629 488.577 91.0608 488.605C91.3587 488.633 91.6334 488.778 91.8253 489.008L94.3257 492.064Z" fill="white"/>
<path d="M97.231 489.791C97.3364 489.892 97.4203 490.014 97.4776 490.148C97.5349 490.283 97.5645 490.427 97.5645 490.574C97.5645 490.72 97.5349 490.865 97.4776 490.999C97.4203 491.134 97.3364 491.255 97.231 491.357C96.9992 491.546 96.7022 491.636 96.4043 491.608C96.1064 491.579 95.8317 491.435 95.6398 491.205L93.1141 488.149C92.9248 487.917 92.8345 487.62 92.8629 487.322C92.8912 487.024 93.036 486.75 93.2656 486.558C93.3783 486.465 93.5083 486.395 93.6481 486.352C93.7878 486.309 93.9346 486.295 94.08 486.309C94.2255 486.323 94.3667 486.365 94.4957 486.434C94.6247 486.503 94.7388 486.596 94.8316 486.709L97.231 489.791Z" fill="white"/>
<path d="M100.16 487.493C100.253 487.605 100.323 487.735 100.366 487.875C100.409 488.015 100.423 488.162 100.409 488.307C100.395 488.453 100.353 488.594 100.284 488.723C100.215 488.852 100.122 488.966 100.009 489.059C99.7963 489.267 99.5107 489.384 99.2132 489.384C98.9157 489.384 98.63 489.267 98.4176 489.059L95.8919 485.977C95.7026 485.745 95.6123 485.448 95.6407 485.15C95.669 484.853 95.8137 484.578 96.0434 484.386C96.1561 484.293 96.286 484.223 96.4258 484.18C96.5655 484.138 96.7124 484.123 96.8578 484.137C97.0033 484.151 97.1445 484.194 97.2735 484.262C97.4025 484.331 97.5166 484.425 97.6093 484.538L100.16 487.493Z" fill="white"/>
<path d="M89.1331 196.485C89.1331 196.485 89.1331 222.677 89.1331 224.117C89.1331 225.556 101.762 237.907 118.533 237.907C144.32 237.907 175.185 228.486 174.73 222.349C174.427 218.307 174.048 196.485 174.048 196.485H89.1331Z" fill="#93929C"/>
<path d="M107.889 86.0101C122.033 98.1335 136.093 91.0615 140.723 84.7472L160.929 93.5872L155.878 187.039L88.9461 189.565L91.4718 99.9015L107.889 86.0101Z" fill="white"/>
<path d="M89.0516 94.067C91.7541 92.299 109.257 82.1961 109.257 82.1961V215.403C107.317 217.293 106.92 217.248 104.134 216.933L104.004 216.918C97.9802 215.406 92.1683 213.149 86.7027 210.2C86.7027 210.2 84.3791 113.313 83.7981 105.938C83.2172 98.5628 86.3491 95.835 89.0516 94.067Z" fill="#023783"/>
<path d="M136.268 216.886C135.04 216.626 133.877 216.121 132.848 215.403L139.718 80.8322C139.718 80.8322 159.545 88.8893 164.823 91.2382C167.018 92.1637 168.899 93.7015 170.243 95.6677C171.586 97.634 172.335 99.9455 172.401 102.326C172.729 106.771 173.183 205.3 173.259 206.159C173.335 207.017 172.603 207.497 171.82 207.952C171.037 208.407 146.285 215.63 139.995 216.918C138.763 217.157 137.496 217.146 136.268 216.886Z" fill="#023783"/>
<path d="M155.311 139.875C150.628 135.139 141.872 124.927 138.909 122.441C135.979 120.233 132.778 118.41 129.385 117.017C126.81 116.155 124.149 115.578 121.448 115.298C119.57 115.06 118.803 115.615 118.803 116.753C118.85 117.43 119.066 118.086 119.431 118.658C119.796 119.231 120.298 119.704 120.893 120.033H117.427C116.237 120.033 115.469 120.986 116.025 122.52C116.53 123.534 117.251 124.424 118.138 125.128C119.025 125.832 120.055 126.333 121.157 126.594C121.157 126.594 116.475 127.044 115.284 127.282C114.094 127.52 113.723 127.97 113.723 129.107C113.734 129.893 113.952 130.662 114.356 131.336C114.761 132.01 115.336 132.565 116.025 132.943C117.71 133.627 119.499 134.021 121.316 134.107C121.316 134.107 115.522 135.562 114.358 135.986C113.194 136.409 113.062 137.176 113.67 138.181C114.017 138.89 114.518 139.511 115.136 140.001C115.754 140.491 116.473 140.836 117.242 141.012C119.438 141.594 120.919 140.642 121.713 140.774C123.418 141.323 125.088 141.977 126.713 142.732C129.153 145.161 132.137 146.975 135.417 148.023C137.858 149.047 140.098 150.499 142.03 152.309C142.931 153.153 143.991 153.809 145.149 154.237C146.307 154.665 147.54 154.856 148.773 154.799C150.006 154.742 151.215 154.439 152.329 153.907C153.443 153.374 154.439 152.624 155.258 151.7C159.491 147.203 158.777 143.446 155.311 139.875Z" fill="#FBBEAA"/>
<path d="M139.746 155.978L182.334 203.868C187.437 210.67 199.363 214.408 206.65 208.106C207.997 206.926 209.091 205.484 209.864 203.868C210.637 202.252 211.075 200.496 211.149 198.706C211.223 196.916 210.933 195.13 210.297 193.455C209.66 191.781 208.69 190.253 207.445 188.965L155.833 134.941L139.746 155.978Z" fill="#90A2B7"/>
<path d="M121.474 120.06C121.466 120.103 121.468 120.148 121.479 120.191C121.49 120.234 121.51 120.275 121.537 120.309C121.565 120.344 121.599 120.373 121.638 120.394C121.678 120.415 121.721 120.427 121.765 120.43L123.934 120.642H124.992C125.363 120.642 125.707 120.774 126.077 120.8C126.468 120.918 126.849 121.068 127.215 121.25L128.432 121.753C130.072 122.414 131.712 123.023 132.929 123.472C134.146 123.922 134.993 124.187 134.993 124.187C135.06 124.215 135.135 124.217 135.203 124.193C135.272 124.168 135.329 124.119 135.363 124.054C135.412 123.99 135.439 123.911 135.439 123.829C135.439 123.748 135.412 123.669 135.363 123.605L133.379 122.573L131.315 121.594C130.575 121.25 129.754 120.906 128.934 120.589L127.691 120.113C127.291 119.932 126.875 119.79 126.448 119.689L125.178 119.557H124.093H122.479H121.871C121.804 119.504 121.719 119.48 121.635 119.49C121.551 119.5 121.474 119.543 121.421 119.61C121.368 119.677 121.344 119.761 121.354 119.846C121.364 119.93 121.407 120.007 121.474 120.06ZM121.977 126.435H122.453C122.849 126.4 123.247 126.4 123.643 126.435L124.463 126.568C124.766 126.605 125.066 126.658 125.363 126.726L127.162 127.308C128.379 127.705 129.569 128.208 130.469 128.578C130.469 128.578 130.76 128.578 130.733 128.71H131.051L131.527 128.843H131.818H131.977C132.057 128.862 132.126 128.911 132.17 128.98C132.215 129.049 132.231 129.133 132.215 129.213C132.203 129.276 132.171 129.334 132.123 129.377C132.075 129.42 132.014 129.446 131.95 129.451H130.601H130.178C129.252 129.213 128.008 128.843 126.791 128.42L125.019 127.758L124.199 127.546L123.485 127.335C123.119 127.227 122.748 127.138 122.373 127.07L121.924 126.938C121.884 126.926 121.846 126.906 121.814 126.879C121.782 126.853 121.755 126.82 121.735 126.783C121.716 126.747 121.704 126.706 121.7 126.665C121.696 126.623 121.7 126.581 121.712 126.541C121.743 126.502 121.784 126.472 121.83 126.454C121.877 126.435 121.927 126.429 121.977 126.435ZM121.977 133.949H122.955C123.22 133.949 123.564 133.949 123.908 134.134L124.992 134.478C125.675 134.718 126.338 135.01 126.977 135.351C127.27 135.489 127.553 135.648 127.823 135.827C127.877 135.889 127.907 135.969 127.907 136.052C127.907 136.134 127.877 136.214 127.823 136.277C127.747 136.357 127.643 136.405 127.532 136.409L126.553 136.25C125.998 136.118 125.283 135.906 124.569 135.668L123.537 135.245L122.638 134.901C122.338 134.768 122.047 134.618 121.765 134.451C121.69 134.407 121.635 134.336 121.61 134.252C121.586 134.169 121.594 134.079 121.633 134.002C121.711 133.951 121.805 133.932 121.897 133.949H121.977Z" fill="#F18380"/>
<path d="M92.55 118.399L93.104 118.429L93.0654 119.145L93.6565 119.177L93.6951 118.461L94.2491 118.49L94.1437 120.449L93.5897 120.419L93.6315 119.643L93.0402 119.611L92.9985 120.387L92.4445 120.357L92.5499 118.399L92.55 118.399ZM96.226 118.597L96.1206 120.555L95.5853 120.526L95.6657 119.032L95.3151 119.013L95.2848 119.575C95.2712 119.828 95.2359 120.136 95.0791 120.303C94.9213 120.489 94.6404 120.532 94.3301 120.457L94.3562 119.971C94.6479 120.046 94.7288 119.932 94.7496 119.545L94.8049 118.517L96.2262 118.593L96.226 118.597ZM96.6885 118.622L97.2425 118.651L97.4932 119.831L97.8692 118.685L98.4232 118.715L98.577 120.687L98.0603 120.659L97.988 119.605L97.635 120.636L97.2658 120.616L97.0274 119.553L96.8423 120.594L96.3256 120.566L96.6884 118.621L96.6885 118.622ZM98.8856 118.74L99.4396 118.77L99.3968 119.565L99.9749 118.798L100.585 118.831L99.8313 119.763L100.498 120.79L99.834 120.755L99.3787 119.933L99.336 120.728L98.782 120.698L98.8873 118.74L98.8857 118.74L98.8856 118.74ZM96.6148 116.516C93.2911 116.337 91.0244 117.48 90.9243 119.341C90.8252 121.183 92.9536 122.58 96.279 122.759C99.6213 122.939 101.87 121.776 101.969 119.935C102.07 118.074 99.9588 116.696 96.6148 116.516ZM96.2946 122.469C93.1724 122.301 91.1486 121.045 91.2394 119.358C91.3312 117.652 93.4789 116.638 96.5992 116.806C99.7383 116.975 101.748 118.211 101.656 119.918C101.565 121.606 99.4353 122.638 96.2946 122.469ZM96.5846 117.078C93.6489 116.92 91.6353 117.843 91.5529 119.374C91.4705 120.906 93.3735 122.039 96.3092 122.197C99.2449 122.355 101.259 121.432 101.341 119.901C101.425 118.37 99.5221 117.236 96.5846 117.078ZM96.3123 122.14C93.4121 121.984 91.5284 120.872 91.6087 119.379C91.689 117.887 93.6828 116.983 96.5813 117.139C99.4799 117.295 101.365 118.408 101.285 119.9C101.206 121.392 99.2124 122.296 96.3123 122.14L96.3123 122.14Z" fill="white"/>
<circle cx="2.55029" cy="2.55029" r="2.55029" transform="matrix(-1 0 0 1 105.13 137.156)" fill="#90A2B7"/>
<circle cx="2.55029" cy="2.55029" r="2.55029" transform="matrix(-1 0 0 1 105.13 150.214)" fill="#90A2B7"/>
<circle cx="2.55029" cy="2.55029" r="2.55029" transform="matrix(-1 0 0 1 105.13 162.649)" fill="#90A2B7"/>
</svg>
