<svg width="221" height="509" viewBox="0 0 221 509" fill="none" xmlns="http://www.w3.org/2000/svg">
<path d="M103.067 59.3549H73.2441V94.4284H103.067V59.3549Z" fill="#FBBEAA"/>
<path d="M73.3183 59.3549H103.042V78.9227C101.743 79.084 100.436 79.1667 99.128 79.1704C88.8735 79.1704 77.4053 76.3715 73.2192 66.5876L73.3183 59.3549Z" fill="#F18380"/>
<path d="M118.473 33.3228C118.225 43.4534 118.473 51.454 116.64 59.182C114.807 66.9101 109.209 73.2262 96.8245 73.2262C84.4398 73.2262 70.3213 69.1888 69.3305 53.708C67.2994 51.5035 64.0051 43.6516 63.8812 34.8585C63.7574 26.0653 64.4509 7.46352 84.4894 4.61504C104.528 1.76656 119.018 9.12306 118.473 33.3228Z" fill="#FBBEAA"/>
<path d="M107.996 41.2986C107.996 42.6609 108.813 43.7755 109.829 43.7755C110.844 43.7755 111.662 42.6609 111.662 41.2986C111.662 39.9363 110.844 38.8217 109.829 38.8217C108.813 38.8217 107.996 39.8372 107.996 41.2986Z" fill="#403D4F"/>
<path d="M85.7031 41.2986C85.7031 42.6609 86.5205 43.7755 87.536 43.7755C88.5516 43.7755 89.369 42.6609 89.369 41.2986C89.369 39.9363 88.5516 38.8217 87.536 38.8217C86.5205 38.8217 85.7031 39.8372 85.7031 41.2986Z" fill="#403D4F"/>
<path d="M90.1864 36.1461C90.0131 36.3691 88.7003 36.1461 87.7095 36.1461C86.7187 36.1461 84.8115 36.1461 84.8115 35.9232C84.8115 35.7003 85.7527 34.1646 88.2296 34.4371C90.013 34.6352 90.6571 35.7498 90.1864 36.1461Z" fill="#403D4F"/>
<path d="M107.574 36.1461C107.723 36.369 108.837 36.1461 109.704 36.1461C110.571 36.1461 112.181 36.1461 112.181 35.9232C111.959 35.3618 111.539 34.9009 111.001 34.6273C110.463 34.3536 109.843 34.2859 109.258 34.437C107.723 34.6352 107.301 35.7498 107.574 36.1461Z" fill="#403D4F"/>
<path d="M100.267 51.5529C102.001 51.5529 103.388 50.4135 103.437 49.5962L102.868 42.6112C102.849 42.4381 102.763 42.2792 102.629 42.1681C102.495 42.0571 102.323 42.0028 102.149 42.0167C102.065 42.023 101.982 42.0459 101.906 42.0842C101.831 42.1225 101.763 42.1754 101.708 42.2399C101.653 42.3043 101.611 42.3791 101.584 42.4598C101.558 42.5405 101.548 42.6256 101.555 42.7103L102.1 49.4475C101.85 49.719 101.542 49.9311 101.199 50.0682C100.856 50.2054 100.487 50.2641 100.118 50.2402C100.032 50.2334 99.9447 50.2443 99.8624 50.2721C99.7801 50.2998 99.7043 50.344 99.6395 50.4018C99.5747 50.4597 99.5222 50.53 99.4854 50.6087C99.4485 50.6873 99.4279 50.7726 99.4248 50.8594C99.4244 51.0351 99.4905 51.2044 99.6101 51.3331C99.7296 51.4618 99.8935 51.5404 100.069 51.5529H100.267Z" fill="#F18380"/>
<path d="M74.6998 37.9294C74.6998 47.9241 69.7459 44.2087 69.7459 44.2087C68.5074 40.4933 66.3498 42.091 63.5136 42.091C60.6774 42.091 61.0419 40.0253 58.2057 33.2137C55.9367 27.7645 58.5524 19.1059 60.2541 17.01C57.4333 13.3144 61.2586 11.1129 61.1263 11.6731C60.2541 15.3661 63.2778 11.6544 64.792 10.1984C80.9651 -5.35291 121.722 2.4599 121.722 2.4599L117.488 7.8167L127.914 4.93689C127.914 4.93689 127.234 10.578 125.437 13.6062C123.941 16.1281 120.325 19.1059 120.325 19.1059L131.669 20.1538C131.669 20.1538 124.295 28.0133 114.085 29.0613C102.586 30.2414 90.2611 24.8695 90.2611 24.8695L94.799 30.1092C94.799 30.1092 83.3291 27.7698 79.6137 29.7062C77.2374 30.9447 74.6998 33.4614 74.6998 37.9294Z" fill="#7D4A40"/>
<path d="M69.8754 46.0048C69.7515 43.1811 69.3057 39.0198 65.293 38.9208C61.2804 38.8217 60.7602 41.8435 60.8841 46.5993C61.0079 51.355 65.838 55.3924 70.0735 53.7576L69.8754 46.0048Z" fill="#FBBEAA"/>
<path d="M63.9792 49.4226C64.1529 49.3923 64.3077 49.2946 64.4097 49.1508C64.5118 49.007 64.5529 48.8287 64.5242 48.6548C64.5243 48.515 64.5639 48.378 64.6384 48.2597C64.7129 48.1414 64.8192 48.0466 64.9452 47.986C65.1981 47.8167 65.4955 47.7263 65.7998 47.7263C66.1041 47.7263 66.4015 47.8167 66.6543 47.986C66.7643 48.0467 66.8879 48.0785 67.0135 48.0785C67.1391 48.0785 67.2627 48.0467 67.3727 47.986C67.4736 47.9193 67.5545 47.8265 67.6068 47.7174C67.6592 47.6084 67.681 47.4872 67.6699 47.3667C67.3231 43.3789 64.7718 42.6358 64.6728 42.611C64.5882 42.5849 64.4992 42.5765 64.4112 42.5864C64.3233 42.5963 64.2383 42.6241 64.1616 42.6683C64.0849 42.7125 64.0181 42.772 63.9654 42.8431C63.9128 42.9142 63.8753 42.9954 63.8554 43.0816C63.8097 43.2459 63.8309 43.4215 63.9145 43.5701C63.9981 43.7187 64.1372 43.8281 64.3012 43.8743C64.7961 44.0983 65.2273 44.442 65.556 44.8745C65.8846 45.3069 66.1004 45.8145 66.1837 46.3512C65.5049 46.2406 64.8092 46.3815 64.2269 46.7475C63.8877 46.9464 63.6135 47.2396 63.4376 47.5913C63.2617 47.9431 63.1917 48.3383 63.2361 48.7291C63.232 48.8256 63.2487 48.9218 63.2853 49.0112C63.3219 49.1006 63.3774 49.181 63.448 49.2469C63.5186 49.3129 63.6027 49.3627 63.6944 49.393C63.7861 49.4233 63.8832 49.4334 63.9792 49.4226Z" fill="#F18380"/>
<path d="M98.5587 60.4701C96.1676 60.3779 93.8717 59.5082 92.0195 57.9932" stroke="#73102A" stroke-width="0.5" stroke-miterlimit="10" stroke-linecap="round"/>
<path d="M98.6424 56.0863C95.1746 54.9469 91.2116 53.6094 89.8493 55.2194C88.7842 56.3093 90.2208 61.4365 95.5462 62.3282C100.872 63.2199 102.779 59.5541 102.506 58.1422C102.333 57.2753 101.367 57.0028 98.6424 56.0863Z" fill="#73102A"/>
<path d="M89.9731 55.1455H89.8493C88.7842 56.2354 90.2208 61.3626 95.5462 62.2543C96.7032 62.5229 97.9064 62.5229 99.0634 62.2543C98.1664 60.4722 96.8862 58.9107 95.3146 57.6817C93.743 56.4526 91.9188 55.5865 89.9731 55.1455Z" fill="#D65155"/>
<path d="M91.2119 54.6001C92.6151 56.1251 94.3969 57.2515 96.3764 57.8649C98.3558 58.4783 100.462 58.5569 102.482 58.0926C102.284 57.2504 101.293 56.978 98.6427 56.0863C96.2905 55.0976 93.7635 54.5922 91.2119 54.6001Z" fill="white"/>
<path d="M183.573 87.7975C183.7 85.0303 182.959 82.2927 181.454 79.967C179.138 77.2808 177.402 76.6204 176.357 73.2307C175.553 70.0842 174.268 67.0803 172.549 64.3252C171.321 62.6362 169.478 61.2544 169.478 59.9646C169.478 58.6749 171.935 56.1875 175.435 56.8938C176.935 57.3609 178.313 58.1537 179.47 59.2155C180.627 60.2773 181.536 61.5817 182.13 63.0355C182.465 62.1497 182.662 61.2175 182.713 60.2717L183.481 38.9713C183.493 38.4833 183.602 38.0026 183.803 37.5575C184.003 37.1125 184.291 36.7121 184.649 36.3801C185.006 36.0481 185.427 35.7911 185.886 35.6243C186.345 35.4575 186.832 35.3844 187.32 35.4091C188.096 35.4422 188.842 35.7178 189.453 36.197C189.764 36.4402 194.958 42.7393 200.028 48.9831C204.949 55.0435 209.752 61.0518 209.86 61.4191C208.874 70.3699 207.023 79.204 204.332 87.7975C204.299 89.2324 203.967 90.6445 203.356 91.9432C202.745 93.2419 201.869 94.3984 200.785 95.3384C199.7 96.2783 198.431 96.9809 197.059 97.401C195.686 97.8211 194.241 97.9495 192.816 97.7778C191.527 97.8208 190.243 97.586 189.053 97.0893C187.862 96.5926 186.792 95.8456 185.915 94.899C185.038 93.9525 184.376 92.8284 183.971 91.6031C183.567 90.3778 183.432 89.0799 183.573 87.7975Z" fill="#FBBEAA"/>
<path d="M190.683 31.8948L206.764 47.4237C210.639 51.7687 212.471 56.17 212.76 60.2385C212.753 60.2458 212.757 60.25 212.754 60.2536C213.166 65.9444 210.567 70.9701 206.395 74.2136C206.317 74.2865 206.222 74.3585 206.135 74.4231C206.109 74.441 206.088 74.463 206.07 74.4813C203.781 76.18 201.042 77.3527 198.093 77.8393C197.118 78.0046 196.112 78.0901 195.089 78.0812C195.003 78.0837 194.949 78.0881 194.937 78.0834C194.913 78.082 194.878 78.0837 194.828 78.0845C190.237 78.0219 185.345 76.2636 180.894 72.2487L165.763 57.7007L190.683 31.8948Z" fill="#0099FF"/>
<path d="M212.759 60.2575C213.402 69.1727 206.667 76.4402 198.094 77.839C196.595 77.9602 195.489 78.0551 195.089 78.0809C195.004 78.0834 194.95 78.0878 194.937 78.0832C194.914 78.0817 194.879 78.0835 194.828 78.0842C193.953 78.0261 187.212 77.3984 178.132 68.2758C171.146 61.2595 168.206 58.7039 168.206 58.7039L177.255 55.0194C177.255 55.0194 191.367 70.2007 199.746 71.4318C208.131 72.6749 212.302 65.5988 212.759 60.2575Z" fill="#0099FF"/>
<path d="M190.685 31.8959L206.765 47.4248C208.82 49.7349 210.3 52.0445 211.275 54.3266C211.279 54.3307 211.279 54.3307 211.288 54.3391C212.147 56.3533 212.623 58.3322 212.762 60.2396L212.758 60.2783C212.76 60.3017 212.755 60.3326 212.756 60.3832C213.129 66.0287 210.536 70.9886 206.401 74.2188C206.957 73.7202 207.665 72.7291 208.276 71.4245C208.324 71.3225 208.373 71.2204 208.418 71.1221C208.463 71.0237 208.5 70.9248 208.546 70.8264C208.603 70.6899 208.659 70.5455 208.707 70.4007C208.77 70.2489 208.829 70.0852 208.877 69.9404C208.921 69.7914 208.972 69.635 209.016 69.486L209.019 69.4745C209.08 69.2993 209.118 69.1304 209.159 68.9851C209.217 68.7436 209.279 68.4906 209.328 68.2329C209.339 68.1869 209.341 68.1676 209.341 68.1676C209.895 65.3537 209.605 62.009 207.191 59.0035C203.779 54.7649 197.092 48.6193 193.019 45.0052C191.002 43.2072 189.621 42.036 189.621 42.036C189.621 42.036 190.263 39.4844 190.764 37.7412C191.025 36.8507 191.243 36.16 191.32 36.1492C191.55 36.1011 190.733 32.1479 190.678 31.9032L190.685 31.8959Z" fill="#0099FF"/>
<path d="M190.683 31.8956L206.764 47.4245C208.818 49.7346 210.299 52.0441 211.273 54.3263C209.622 51.4614 206.015 46.2264 199.994 43.6901C197.33 42.5717 195.189 43.3418 193.025 45.0054C190.288 47.1159 187.51 50.6559 183.571 53.6492C176.511 59.0132 166.855 58.7498 166.528 58.4338L166.123 58.043L167.897 58.3863L173.689 56.8346L177.688 54.0979C177.688 54.0979 186.2 45.283 186.484 44.9893C186.767 44.6956 190.779 37.7418 190.779 37.7418L190.692 31.9039L190.683 31.8956Z" fill="#0099FF"/>
<path d="M177.499 55.257L178.715 56.5386C178.715 56.5386 183.071 54.5439 186.16 51.5174C188.847 48.8823 193.021 45.0165 193.021 45.0165L189.623 42.0473L183.926 48.5152L177.499 55.257Z" fill="#0099FF"/>
<path d="M168.209 58.7089L168.626 59.0965C167.939 59.0151 167.196 58.8446 166.529 58.4414L165.767 57.7055L168.209 58.7089Z" fill="#0099FF"/>
<path d="M168.21 58.7089L168.627 59.0965C168.627 59.0965 170.076 59.3614 174.205 58.2826C176.408 57.707 178.726 56.5393 178.726 56.5393L177.268 55.0249C177.268 55.0249 172.331 57.3805 172.271 57.5285C172.199 57.6719 168.21 58.7089 168.21 58.7089Z" fill="#0099FF"/>
<path d="M183.646 50.0387C190.527 42.9136 193.676 34.7921 190.68 31.8989C187.684 29.0057 179.677 32.4363 172.796 39.5614C165.916 46.6865 162.767 54.808 165.763 57.7012C168.759 60.5944 176.765 57.1638 183.646 50.0387Z" fill="#A3A9AA"/>
<path d="M189.706 32.3406C191.058 33.6461 190.822 36.3201 189.345 39.5554C188.705 40.9593 187.826 42.4807 186.743 44.0245C186.633 44.1733 186.523 44.3299 186.406 44.4861C185.315 45.9944 184.036 47.526 182.589 49.0239C181.079 50.5879 179.516 51.9736 177.992 53.1476C172.926 57.04 168.133 58.6262 166.161 56.722C165.016 55.6161 165.017 53.4956 165.959 50.9003C165.959 50.9003 165.959 50.9003 165.962 50.8888C166.637 49.0435 167.782 46.9355 169.325 44.7782C170.445 43.2134 171.775 41.6032 173.285 40.0392C174.796 38.4752 176.359 37.0895 177.89 35.9082C182.948 32.0231 187.738 30.4405 189.706 32.3406Z" fill="#475150"/>
<path d="M212.759 60.3872C213.131 66.0328 210.538 70.9927 206.403 74.2229C206.403 74.2229 207.548 72.9086 208.278 71.4285C208.327 71.3265 208.375 71.2245 208.42 71.1261C208.466 71.0277 208.503 70.9288 208.548 70.8305C208.612 70.6866 208.665 70.5459 208.709 70.4047C208.773 70.253 208.831 70.0893 208.879 69.9444C208.93 69.7802 208.982 69.6317 209.019 69.49L209.021 69.4785C209.082 69.3033 209.121 69.1345 209.161 68.9891C209.265 68.6143 209.314 68.3488 209.33 68.237C209.341 68.191 209.343 68.1716 209.343 68.1716C209.343 68.1716 210.722 66.6578 211.568 64.9204C212.71 62.5826 212.727 61.0234 212.759 60.3872Z" fill="#0099FF"/>
<path d="M199.624 70.7405C200.538 72.0773 200.825 73.2274 200.077 74.0798C198.073 76.3875 190.574 75.1915 185.547 70.7129C180.524 66.2306 177.202 59.986 179.206 57.6783C179.315 57.5567 179.425 57.4507 179.554 57.3691L179.561 57.3618C181.8 55.7068 186.88 58.6751 191.654 62.9162C194.787 65.7289 198.091 68.5017 199.624 70.7405Z" fill="#0099FF"/>
<path d="M200.075 71.4795C200.075 71.4795 195.325 71.4186 190.52 67.8214C187.428 65.5171 179.552 57.3718 179.552 57.3718L179.559 57.3645C181.798 55.7094 186.756 58.4329 191.613 62.5624C199.515 69.2853 200.075 71.4795 200.075 71.4795Z" fill="#0099FF"/>
<path d="M177.889 35.9079L186.556 44.2773C186.556 44.2773 184.272 47.3226 182.588 49.0237C181.056 50.5669 179.515 51.9733 177.99 53.1473L169.323 44.7779C170.444 43.2131 171.774 41.6029 173.284 40.0389C174.798 38.4713 176.361 37.0856 177.889 35.9079Z" fill="#5E6466"/>
<path d="M189.705 32.3404C191.056 33.6459 190.714 36.2666 189.344 39.5552C188.531 41.5087 186.556 44.2774 186.556 44.2774C186.556 44.2774 182.475 40.4993 179.999 38.0308C178.785 36.8156 177.889 35.908 177.889 35.908C182.947 32.0229 187.737 30.4403 189.705 32.3404Z" fill="#747A7C"/>
<path d="M189.706 32.3406C191.058 33.6461 190.822 36.3201 189.345 39.5554C187.158 36.0737 183.996 36.1853 180.06 38.0037C180.037 38.0022 180.019 38.0206 180 38.0311C179.246 38.3812 178.463 38.7958 177.653 39.2475C175.375 40.5461 172.595 43.2532 170.314 45.7266C167.866 48.3998 166 50.8056 165.962 50.8966C165.962 50.8966 165.962 50.8966 165.965 50.8851C166.64 49.0398 167.786 46.9319 169.328 44.7745C170.448 43.2097 171.779 41.5995 173.289 40.0355C174.154 39.1397 175.037 38.3034 175.917 37.5291C176.575 36.9512 177.233 36.4083 177.89 35.9082C182.948 32.0232 187.738 30.4405 189.706 32.3406Z" fill="#929799"/>
<path d="M177.889 35.908L179.999 38.0309C179.245 38.3811 178.462 38.7956 177.651 39.2473C175.374 40.5459 172.593 43.253 170.313 45.7264L169.327 44.7743C170.447 43.2095 171.777 41.5993 173.288 40.0353C174.153 39.1395 175.035 38.3032 175.916 37.529L177.889 35.908Z" fill="#6F7577"/>
<path d="M170.313 45.7265L169.327 44.7744C169.327 44.7744 168.181 46.2287 167.321 47.9458C166.462 49.663 165.961 50.8965 165.961 50.8965L170.313 45.7265Z" fill="#5E6466"/>
<path d="M185.054 46.1492C183.72 47.798 182.06 49.594 179.985 51.4849C173.557 57.3745 169.15 57.4829 169.15 57.4829C169.15 57.4829 167.777 56.0788 173.669 48.9692C173.669 48.9692 172.752 50.4104 172.461 51.6764C172.303 52.3747 172.694 53.3912 174.996 52.9462C176.833 52.5854 182.569 48.7656 185.054 46.1492Z" fill="#475150"/>
<path d="M181.086 43.4717C181.237 43.6173 181.056 44.0458 180.687 44.4276C180.318 44.8094 179.897 45.005 179.746 44.8595C179.595 44.714 179.772 44.2892 180.145 43.9037C180.518 43.526 180.94 43.3304 181.086 43.4717Z" fill="#5E6466"/>
<path d="M192.971 44.9159C191.227 42.1332 194.768 38.4637 197.015 37.0299C197.015 37.0299 198.368 35.4652 201.171 38.2682C204.266 41.3636 202.409 43.4821 202.409 43.4821C200.386 45.6328 195.667 49.2173 192.971 44.9159Z" fill="#FBBEAA"/>
<path d="M197.924 50.3039C196.179 47.5212 199.721 43.8517 201.968 42.4179C201.968 42.4179 203.32 40.8532 206.123 43.6562C209.219 46.7516 207.361 48.8701 207.361 48.8701C205.339 51.0208 200.62 54.6053 197.924 50.3039Z" fill="#FBBEAA"/>
<path d="M202.876 55.2563C201.131 52.4737 204.673 48.8042 206.92 47.3704C206.92 47.3704 208.273 45.8057 211.075 48.6086C214.171 51.704 212.314 53.8225 212.314 53.8225C210.291 55.9732 205.572 59.5577 202.876 55.2563Z" fill="#FBBEAA"/>
<path d="M208.987 59.6645C207.541 57.3323 210.476 54.2567 212.339 53.0549C212.339 53.0549 213.459 51.7434 215.782 54.0927C218.348 56.6872 216.808 58.4628 216.808 58.4628C215.132 60.2654 211.221 63.2698 208.987 59.6645Z" fill="#FBBEAA"/>
<path d="M196.591 69.5135L196.993 69.0978L197.578 69.6632L198.007 69.2197L197.421 68.6544L197.822 68.2387L199.422 69.7834L199.021 70.199L198.387 69.5873L197.959 70.0309L198.592 70.6426L198.191 71.0582L196.591 69.5135L196.591 69.5135ZM199.255 66.7556L200.854 68.3002L200.466 68.7018L199.246 67.5233L198.992 67.7864L199.451 68.2297C199.657 68.429 199.897 68.6871 199.932 68.9352C199.984 69.1986 199.831 69.4534 199.555 69.6422L199.159 69.2592C199.42 69.0843 199.379 68.9358 199.062 68.63L198.222 67.819L199.252 66.7527L199.255 66.7556ZM199.59 66.4086L199.991 65.9929L201.168 66.6754L200.445 65.5228L200.847 65.1071L202.634 66.4574L202.26 66.845L201.311 66.1152L201.951 67.164L201.684 67.441L200.615 66.8359L201.377 67.7587L201.003 68.1464L199.59 66.4086L199.59 66.4086ZM201.182 64.7602L201.583 64.3446L202.232 64.9717L201.971 63.943L202.413 63.4854L202.696 64.7761L204.026 65.016L203.545 65.5143L202.534 65.2608L203.184 65.8879L202.782 66.3036L201.183 64.7589L201.182 64.7601L201.182 64.7602ZM197.743 64.8957C195.335 67.3893 194.772 70.0337 196.292 71.5012C197.797 72.9546 200.433 72.3149 202.843 69.8201C205.264 67.3126 205.798 64.6667 204.294 63.2146C202.774 61.7471 200.166 62.3869 197.743 64.8957ZM202.606 69.5914C200.344 71.9338 197.899 72.5962 196.52 71.2648C195.127 69.9193 195.719 67.4654 197.98 65.1244C200.254 62.7693 202.672 62.1029 204.067 63.4498C205.446 64.7812 204.881 67.2351 202.606 69.5914ZM198.202 65.339C196.075 67.5415 195.496 69.8217 196.747 71.0296C197.998 72.2375 200.257 71.5793 202.384 69.3768C204.511 67.1742 205.09 64.8941 203.839 63.6862C202.589 62.4769 200.331 63.1352 198.202 65.339ZM202.337 69.3319C200.236 71.5077 198.008 72.1662 196.789 70.989C195.57 69.8119 196.152 67.5613 198.252 65.3867C200.352 63.2121 202.581 62.5524 203.8 63.7295C205.02 64.9054 204.438 67.1561 202.337 69.3319L202.337 69.3319Z" fill="white"/>
<path d="M42.262 95.0881C36.1801 102.908 6.87646 185.093 6.87646 185.093C39.4584 174.667 23.2647 170.67 40.9852 173.652C40.9852 173.652 68.6707 114.897 69.4509 110.606C70.2651 107.224 69.8996 103.664 68.415 100.518C66.9304 97.3714 64.4157 94.8262 61.2872 93.3038C52.5663 88.8458 48.344 87.2682 42.262 95.0881Z" fill="#003399"/>
<path d="M110.497 85.0657L176.511 129.588C176.233 131.865 181.582 85.0657 181.582 85.0657L206.016 87.3464C206.016 87.3464 204.589 134.994 200.993 160.158C199.566 170.145 191.254 173.932 181.398 171.781C176.531 170.72 171.95 168.723 167.873 165.861C150.355 153.565 101.209 118.932 97.1903 114.575C90.2579 107.058 90.2579 101.427 94.242 95.2386C98.2261 89.0499 106.752 84.1361 110.497 85.0657Z" fill="#002B80"/>
<path d="M32.5924 319.02C32.1759 322.204 32.3949 325.44 33.2367 328.539C34.0786 331.638 35.5266 334.54 37.497 337.076C39.4674 339.612 41.9211 341.732 44.7161 343.313C47.5111 344.895 50.592 345.907 53.7806 346.29C56.9691 346.673 60.202 346.421 63.2923 345.546C66.3825 344.672 69.2687 343.194 71.784 341.197C74.2993 339.2 76.3937 336.725 77.946 333.913C79.4984 331.102 80.4779 328.011 80.8278 324.818C80.8278 324.818 93.4739 235.995 96.473 218.051C99.4721 200.106 96.2981 185.086 76.2042 180.812C55.3605 176.388 42.3395 191.659 40.765 206.954C39.1904 222.249 32.5924 319.02 32.5924 319.02Z" fill="#93929C"/>
<path d="M72.4556 320.744C72.376 327.187 74.8591 333.398 79.3586 338.01C83.8581 342.622 90.0055 345.257 96.4483 345.337C102.891 345.416 109.102 342.933 113.714 338.434C118.326 333.934 120.961 327.787 121.041 321.344C121.041 321.344 124.115 231.671 125.165 213.502C126.214 195.332 121.466 180.762 101.022 178.662C79.8283 176.488 68.5317 193.058 68.5317 208.453C68.5317 223.849 72.4556 320.744 72.4556 320.744Z" fill="#93929C"/>
<path d="M111.343 426.412C111.343 426.412 110.144 477.372 109.844 484.994C109.544 492.617 104.72 494.692 96.9477 495.366C89.175 496.041 85.901 489.868 84.8014 484.969C83.7017 480.071 77.0537 430.111 77.0537 430.111L111.343 426.412Z" fill="#FBBEAA"/>
<path d="M110.469 461.951L81.8023 465.025C79.5779 449.255 77.0537 430.036 77.0537 430.036L111.343 426.337C111.343 426.337 110.893 445.431 110.469 461.951Z" fill="#F18380"/>
<path d="M72.4556 320.745C72.495 317.554 73.1623 314.403 74.4195 311.471C75.6767 308.539 77.4991 305.883 79.7828 303.655C82.0664 301.427 84.7665 299.671 87.7289 298.486C90.6913 297.302 93.8579 296.712 97.0481 296.752C100.238 296.791 103.389 297.459 106.322 298.716C109.254 299.973 111.91 301.795 114.138 304.079C116.366 306.363 118.122 309.063 119.306 312.025C120.491 314.988 121.08 318.154 121.041 321.344L116.042 463.383L76.8292 467.607L72.4556 320.745Z" fill="#93929C"/>
<path d="M60.034 428.362C60.034 428.362 53.386 478.896 52.2863 486.419C51.1866 493.942 46.1632 495.541 38.3406 495.366C30.518 495.192 27.9437 488.719 27.3689 483.745C26.794 478.772 25.5444 428.362 25.5444 428.362H60.034Z" fill="#FBBEAA"/>
<path d="M55.2349 463.601H26.3936C25.8938 447.706 25.4189 428.362 25.4189 428.362H60.0335C60.0335 428.362 57.5342 447.206 55.2349 463.601Z" fill="#F18380"/>
<path d="M32.592 319.02C33.422 312.675 36.7219 306.914 41.7748 302.988C46.8277 299.062 53.2256 297.288 59.5788 298.052C65.9319 298.816 71.7271 302.055 75.7056 307.067C79.6842 312.078 81.5248 318.457 80.8275 324.818L59.0845 468.381H19.6465L32.592 319.02Z" fill="#93929C"/>
<path d="M79.8029 324.818L57.3848 467.132" stroke="#676767" stroke-width="0.75" stroke-miterlimit="10" stroke-linecap="round"/>
<path d="M79.8276 324.818C79.8276 324.818 92.4737 235.995 95.4728 218.051" stroke="#676767" stroke-width="0.75" stroke-miterlimit="10" stroke-linecap="round"/>
<path d="M40.9649 469.524C43.7996 469.321 46.6102 470.165 48.8632 471.898C51.1161 473.63 52.6545 476.129 53.1862 478.921L66.2322 492.292V500.615H24.4199C24.4199 500.615 26.5193 485.619 27.1191 482.245C27.7189 478.871 29.7433 469.524 40.9649 469.524Z" fill="#FBBEAA"/>
<path d="M53.1606 478.821C53.6355 478.172 54.3103 477.672 54.7851 477.972C55.26 478.271 67.8812 488.268 68.481 488.768C68.8504 489.115 69.1298 489.547 69.2953 490.026C69.4607 490.505 69.5072 491.017 69.4307 491.517V502.239H23.4946C23.4946 502.239 25.2941 486.394 25.419 485.519C25.544 484.645 26.4187 483.495 26.9186 483.52C30.0715 484.486 33.3437 485.007 36.6406 485.069C41.0225 485.302 45.3935 484.443 49.3618 482.57C50.8331 481.547 52.118 480.279 53.1606 478.821Z" fill="#2E70AC"/>
<path d="M61.8831 493.242C59.6588 491.592 51.6612 485.344 48.6621 482.995L49.3619 482.645C49.4563 482.604 49.5414 482.545 49.6118 482.47C52.8109 484.969 60.3336 490.868 62.4829 492.467C64.2999 493.859 65.5445 495.868 65.9819 498.115L65.0072 498.265C64.5949 496.273 63.4876 494.493 61.8831 493.242Z" fill="#1E2173"/>
<path d="M24.7447 491.318C27.982 491.35 31.1148 492.468 33.642 494.492C35.9262 496.515 37.4734 499.241 38.0406 502.239H36.691C36.1391 499.641 34.7734 497.286 32.7922 495.516C30.4663 493.653 27.5746 492.64 24.5947 492.642L24.7447 491.318Z" fill="#1E2173"/>
<path d="M76.8534 502.214H23.4946C23.122 502.214 22.8198 502.517 22.8198 502.889V508.063C22.8198 508.435 23.122 508.738 23.4946 508.738H76.8534C77.2261 508.738 77.5282 508.435 77.5282 508.063V502.889C77.5282 502.517 77.2261 502.214 76.8534 502.214Z" fill="white"/>
<path d="M68.3561 488.668C68.8309 488.468 71.1552 489.143 74.1793 492.117C75.4384 493.418 76.3448 495.02 76.8127 496.769C77.2806 498.518 77.2947 500.358 76.8535 502.114H61.6831C62.5328 492.517 67.8812 488.868 68.3561 488.668Z" fill="white"/>
<path d="M62.5329 488.819C62.3456 489.048 62.2563 489.342 62.2844 489.637C62.3124 489.931 62.4556 490.203 62.6829 490.393C62.7944 490.485 62.923 490.554 63.0613 490.597C63.1996 490.639 63.3448 490.653 63.4888 490.639C63.6327 490.626 63.7724 490.583 63.9 490.515C64.0277 490.447 64.1406 490.355 64.2324 490.243L66.7316 487.219C66.919 486.99 67.0083 486.696 66.9802 486.401C66.9521 486.106 66.8089 485.834 66.5817 485.645C66.4716 485.549 66.3434 485.477 66.2046 485.433C66.0659 485.389 65.9197 485.373 65.7748 485.387C65.6299 485.401 65.4894 485.445 65.3617 485.515C65.234 485.585 65.1219 485.68 65.0322 485.794L62.5329 488.819Z" fill="white"/>
<path d="M59.5588 486.544C59.3715 486.773 59.2822 487.067 59.3102 487.362C59.3383 487.657 59.4815 487.929 59.7088 488.118C59.8188 488.214 59.9471 488.286 60.0858 488.33C60.2245 488.374 60.3708 488.39 60.5157 488.376C60.6606 488.362 60.8011 488.318 60.9288 488.248C61.0564 488.178 61.1686 488.083 61.2583 487.968L63.7576 484.944C63.9388 484.713 64.0243 484.42 63.9964 484.127C63.9685 483.834 63.8293 483.563 63.6076 483.37C63.4975 483.275 63.3692 483.203 63.2305 483.158C63.0918 483.114 62.9456 483.099 62.8007 483.113C62.6558 483.127 62.5152 483.17 62.3876 483.24C62.2599 483.31 62.1478 483.405 62.0581 483.52L59.5588 486.544Z" fill="white"/>
<path d="M56.6847 484.295C56.4959 484.517 56.403 484.805 56.4264 485.096C56.4498 485.386 56.5877 485.656 56.8096 485.844C57.039 486.032 57.3329 486.121 57.6277 486.093C57.9225 486.065 58.1943 485.922 58.3841 485.695L60.8834 482.67C60.9884 482.568 61.0719 482.446 61.1289 482.31C61.1859 482.175 61.2153 482.03 61.2153 481.883C61.2153 481.736 61.1859 481.591 61.1289 481.456C61.0719 481.321 60.9884 481.198 60.8834 481.096C60.6516 480.915 60.3592 480.829 60.0662 480.857C59.7733 480.885 59.5023 481.024 59.3089 481.246L56.6847 484.295Z" fill="white"/>
<path d="M53.7857 482.021C53.6936 482.132 53.6245 482.261 53.5822 482.399C53.54 482.537 53.5254 482.682 53.5393 482.826C53.5532 482.97 53.5954 483.11 53.6634 483.238C53.7314 483.365 53.8239 483.478 53.9356 483.57C54.1459 483.776 54.4285 483.892 54.7229 483.892C55.0173 483.892 55.2999 483.776 55.5102 483.57L58.0094 480.521C58.1967 480.292 58.2861 479.998 58.258 479.703C58.2299 479.408 58.0867 479.136 57.8595 478.946C57.7479 478.854 57.6193 478.785 57.481 478.743C57.3428 478.701 57.1975 478.686 57.0536 478.7C56.9097 478.714 56.7699 478.756 56.6423 478.824C56.5147 478.892 56.4017 478.985 56.3099 479.096L53.7857 482.021Z" fill="white"/>
<path d="M99.6968 469.524C102.531 469.321 105.342 470.165 107.595 471.898C109.848 473.63 111.386 476.129 111.918 478.921L124.939 492.292V500.615H83.1519C83.1519 500.615 85.2262 485.619 85.851 482.245C86.4758 478.871 88.4752 469.524 99.6968 469.524Z" fill="#FBBEAA"/>
<path d="M111.893 478.821C112.368 478.172 113.018 477.672 113.518 477.972C114.017 478.271 126.614 488.268 127.188 488.768C127.763 489.268 128.163 489.893 128.163 491.517V502.239H82.2271C82.2271 502.239 84.0265 486.394 84.1514 485.519C84.2764 484.645 85.1512 483.495 85.651 483.52C88.8039 484.486 92.0761 485.007 95.3731 485.069C99.7472 485.306 104.111 484.447 108.069 482.57C109.552 481.552 110.846 480.284 111.893 478.821Z" fill="#2E70AC"/>
<path d="M120.615 493.242C118.391 491.592 110.394 485.344 107.395 482.995L108.069 482.645C108.171 482.605 108.265 482.546 108.344 482.47C111.543 484.969 119.066 490.868 121.215 492.467C123.032 493.859 124.277 495.868 124.714 498.115L123.74 498.265C123.315 496.278 122.21 494.501 120.615 493.242Z" fill="#1E2173"/>
<path d="M83.4766 491.318C86.7139 491.35 89.8467 492.468 92.3739 494.492C94.6581 496.515 96.2054 499.241 96.7726 502.239H95.423C94.8642 499.638 93.4895 497.282 91.4992 495.516C89.1849 493.65 86.2997 492.635 83.3267 492.642L83.4766 491.318Z" fill="#1E2173"/>
<path d="M135.586 502.214H82.2271C81.8544 502.214 81.5522 502.517 81.5522 502.889V508.063C81.5522 508.435 81.8544 508.738 82.2271 508.738H135.586C135.959 508.738 136.261 508.435 136.261 508.063V502.889C136.261 502.517 135.959 502.214 135.586 502.214Z" fill="white"/>
<path d="M127.088 488.668C127.563 488.468 129.888 489.143 132.912 492.117C134.171 493.418 135.077 495.02 135.545 496.769C136.013 498.518 136.027 500.358 135.586 502.114H120.416C121.265 492.517 126.614 488.868 127.088 488.668Z" fill="white"/>
<path d="M121.165 488.819C120.978 489.048 120.889 489.342 120.917 489.637C120.945 489.931 121.088 490.203 121.315 490.393C121.427 490.485 121.555 490.554 121.694 490.597C121.832 490.639 121.977 490.653 122.121 490.639C122.265 490.626 122.405 490.583 122.532 490.515C122.66 490.447 122.773 490.355 122.865 490.243L125.364 487.219C125.545 486.987 125.631 486.695 125.603 486.402C125.575 486.109 125.436 485.838 125.214 485.645C125.104 485.549 124.976 485.477 124.837 485.433C124.698 485.389 124.552 485.373 124.407 485.387C124.262 485.401 124.122 485.445 123.994 485.515C123.866 485.585 123.754 485.68 123.664 485.794L121.165 488.819Z" fill="white"/>
<path d="M118.291 486.544C118.104 486.773 118.015 487.067 118.043 487.362C118.071 487.657 118.214 487.929 118.441 488.118C118.551 488.214 118.68 488.286 118.818 488.33C118.957 488.374 119.103 488.39 119.248 488.376C119.393 488.362 119.534 488.318 119.661 488.248C119.789 488.178 119.901 488.083 119.991 487.968L122.49 484.944C122.671 484.713 122.757 484.42 122.729 484.127C122.701 483.834 122.562 483.563 122.34 483.37C122.111 483.183 121.817 483.093 121.522 483.121C121.227 483.149 120.955 483.293 120.765 483.52L118.291 486.544Z" fill="white"/>
<path d="M115.417 484.295C115.313 484.395 115.23 484.515 115.173 484.648C115.116 484.781 115.087 484.925 115.087 485.069C115.087 485.214 115.116 485.357 115.173 485.49C115.23 485.623 115.313 485.744 115.417 485.844C115.646 486.031 115.94 486.121 116.235 486.093C116.53 486.065 116.802 485.921 116.991 485.694L119.491 482.67C119.678 482.441 119.767 482.147 119.739 481.852C119.711 481.557 119.568 481.285 119.341 481.096C119.229 481.003 119.101 480.934 118.962 480.892C118.824 480.85 118.679 480.835 118.535 480.849C118.391 480.863 118.251 480.905 118.123 480.973C117.996 481.041 117.883 481.134 117.791 481.245L115.417 484.295Z" fill="white"/>
<path d="M112.518 482.021C112.426 482.132 112.357 482.261 112.315 482.399C112.272 482.537 112.258 482.682 112.272 482.826C112.286 482.97 112.328 483.11 112.396 483.238C112.464 483.365 112.556 483.478 112.668 483.57C112.878 483.776 113.161 483.892 113.455 483.892C113.75 483.892 114.032 483.776 114.243 483.57L116.742 480.521C116.929 480.292 117.019 479.998 116.99 479.703C116.962 479.408 116.819 479.136 116.592 478.946C116.48 478.854 116.352 478.785 116.214 478.743C116.075 478.701 115.93 478.686 115.786 478.7C115.642 478.714 115.502 478.756 115.375 478.824C115.247 478.892 115.134 478.985 115.042 479.096L112.518 482.021Z" fill="white"/>
<path d="M124.429 194.064C124.429 194.064 124.429 219.982 124.429 221.406C124.429 222.831 111.933 235.052 95.3381 235.052C69.8209 235.052 39.2801 225.73 39.73 219.657C40.0299 215.658 40.4048 194.064 40.4048 194.064H124.429Z" fill="#93929C"/>
<path d="M103.516 80.9737C103.516 80.9737 120.836 90.9707 123.51 92.7202C126.184 94.4696 129.283 97.1688 128.709 104.467C128.134 111.764 125.835 207.635 125.835 207.635C120.426 210.554 114.675 212.787 108.715 214.283C105.841 214.608 103.566 214.683 101.617 212.784C99.6675 210.884 93.9192 203.986 93.9192 203.986C93.9192 203.986 84.4471 210.409 80.1734 212.784C79.155 213.495 78.0041 213.994 76.7891 214.251C75.5741 214.509 74.3198 214.52 73.1005 214.283C66.8774 213.009 42.3848 205.861 41.6101 205.411C40.8353 204.961 40.1106 204.486 40.1855 203.637C40.2605 202.787 40.7104 105.291 41.0353 100.893C41.0996 98.537 41.8408 96.2497 43.1704 94.3041C44.5 92.3585 46.3617 90.8368 48.533 89.921C53.7564 87.5967 73.3755 79.6241 73.3755 79.6241L93.8443 93.8448L103.516 80.9737Z" fill="#003399"/>
<path d="M103.516 78.175L93.894 93.8453C93.894 93.8453 103.341 101.343 103.891 101.893C104.441 102.443 105.541 102.393 105.765 101.518C105.99 100.643 108.715 84.0233 108.765 84.0233C108.813 83.9351 108.838 83.8363 108.838 83.7359C108.838 83.6354 108.813 83.5366 108.765 83.4485C108.515 83.2735 103.516 78.175 103.516 78.175Z" fill="#F5F5F5"/>
<g filter="url(#filter0_d_110_22)">
<rect x="67.4331" y="128.572" width="48.3361" height="68.8789" rx="1" transform="rotate(-6.55484 67.4331 128.572)" fill="#EFEFEF"/>
</g>
<path d="M73.2753 75.2755L93.9191 93.8448C93.9191 93.8448 83.0474 101.343 82.5725 101.892C82.4341 102.01 82.2707 102.095 82.0947 102.14C81.9188 102.186 81.7348 102.191 81.5566 102.155C81.3785 102.118 81.2109 102.042 81.0665 101.932C80.9221 101.822 80.8047 101.68 80.7231 101.517C79.9233 100.243 67.1272 82.2733 67.0772 82.1234C67.0242 82.0369 66.9961 81.9374 66.9961 81.836C66.9961 81.7345 67.0242 81.635 67.0772 81.5486C67.3521 81.3986 73.2753 75.2755 73.2753 75.2755Z" fill="#F5F5F5"/>
<path d="M87.7907 156.484C91.2159 155.036 94.3131 152.892 96.8855 150.186C98.4776 148.515 100.283 147.064 102.254 145.873C103.41 145.151 104.408 144.197 105.184 143.072C106.21 141.328 107.059 139.486 107.719 137.574C107.963 135.928 108.523 134.342 109.367 132.904C110.17 132.168 113.004 132.562 114.475 135.421C114.982 136.694 115.211 138.065 115.149 139.442C115.086 140.818 114.731 142.169 114.109 143.404C113.378 144.884 112.804 146.437 112.399 148.037L112.666 148.197C114.908 147.007 117.303 146.144 119.779 145.634C120.677 145.433 121.612 145.542 122.434 145.942C123.257 146.342 123.917 147.011 124.311 147.841C124.704 148.671 124.807 149.613 124.602 150.515C124.398 151.418 123.898 152.229 123.184 152.817C127.048 153.261 126.609 159.22 123.292 160.008C124.002 160.306 124.602 160.818 125.01 161.474C125.418 162.13 125.614 162.898 125.572 163.675C125.531 164.452 125.253 165.201 124.777 165.819C124.301 166.437 123.649 166.896 122.91 167.133C125.266 169.305 123.544 172.885 119.266 172.9C115.79 173.254 106.494 174.709 103.26 175.405C100.026 176.102 93.5255 174.562 91.4372 175.208C88.3289 176.347 84.7186 176.366 81.9648 168.186C79.211 160.007 84.592 157.54 87.7907 156.484Z" fill="#FBBEAA"/>
<path d="M93.9105 178.427L31.2984 203.634C23.297 207.658 10.2973 205.594 6.37833 196.235C5.66076 194.49 5.30513 192.618 5.33298 190.731C5.36083 188.845 5.77155 186.984 6.54031 185.261C7.30908 183.538 8.41983 181.989 9.80519 180.708C11.1905 179.427 12.8217 178.441 14.5995 177.809L88.5975 151.046L93.9105 178.427Z" fill="#003399"/>
<defs>
<filter id="filter0_d_110_22" x="67.5405" y="123.162" width="57.668" height="73.7313" filterUnits="userSpaceOnUse" color-interpolation-filters="sRGB">
<feFlood flood-opacity="0" result="BackgroundImageFix"/>
<feColorMatrix in="SourceAlpha" type="matrix" values="0 0 0 0 0 0 0 0 0 0 0 0 0 0 0 0 0 0 127 0" result="hardAlpha"/>
<feOffset dx="2"/>
<feComposite in2="hardAlpha" operator="out"/>
<feColorMatrix type="matrix" values="0 0 0 0 0.603922 0 0 0 0 0.6 0 0 0 0 0.631373 0 0 0 1 0"/>
<feBlend mode="normal" in2="BackgroundImageFix" result="effect1_dropShadow_110_22"/>
<feBlend mode="normal" in="SourceGraphic" in2="effect1_dropShadow_110_22" result="shape"/>
</filter>
</defs>
</svg>
