<svg width="202" height="524" viewBox="0 0 202 524" fill="none" xmlns="http://www.w3.org/2000/svg">
    <path d="M55.5457 21.8182C54.0638 27.4879 53.1848 33.2982 52.9233 39.1525C52.6124 44.0251 51.0004 48.7252 48.2554 52.7629C45.6329 56.1459 42.1975 59.6599 43.4563 70.1497H110.617C110.617 70.1497 113.239 64.9048 110.092 55.9098C106.386 44.8053 103.657 33.398 101.937 21.8182H55.5457Z" fill="#BC664A"/>
    <path d="M68.396 52.7631V75.0275C68.396 75.0275 70.153 82.7113 81.9278 82.7113C84.2654 82.9084 86.5898 82.203 88.4236 80.7399C90.2574 79.2768 91.4613 77.167 91.7882 74.844V52.7631H68.396Z" fill="#FBBEAA"/>
    <path d="M91.7882 71.4086C84.3929 74.8964 73.6146 71.7757 68.396 62.0989V52.7631H91.7882V71.4086Z" fill="#F18380"/>
    <path d="M106.395 35.7432C106.507 41.0765 106.27 46.4114 105.687 51.7138C104.716 59.2664 102.041 67.6582 88.6408 67.6582C75.2401 67.6582 68.4481 61.6266 65.5634 51.7138C63.8326 45.7084 60.3185 36.8708 61.7608 26.6171C63.2032 16.3634 69.3659 9.7024 83.9204 9.30903C98.475 8.91566 107.994 15.4717 106.395 35.7432Z" fill="#FBBEAA"/>
    <path d="M78.0724 40.3065C78.1656 40.6927 78.3653 41.045 78.6488 41.3235C78.9322 41.6019 79.2881 41.7952 79.676 41.8815C80.0638 41.9678 80.468 41.9435 80.8427 41.8116C81.2175 41.6796 81.5478 41.4452 81.796 41.135C82.0442 40.8247 82.2004 40.4511 82.2469 40.0565C82.2933 39.6619 82.2282 39.2622 82.0589 38.9028C81.8896 38.5433 81.6228 38.2386 81.289 38.0232C80.9551 37.8078 80.5677 37.6903 80.1704 37.6841C79.8583 37.7132 79.5553 37.8049 79.2794 37.9536C79.0036 38.1024 78.7605 38.3052 78.5647 38.5499C78.3689 38.7947 78.2244 39.0763 78.1398 39.3781C78.0552 39.6799 78.0323 39.9957 78.0724 40.3065Z" fill="#403D4F"/>
    <path d="M97.5044 40.3065C97.5976 40.6927 97.7973 41.045 98.0807 41.3235C98.3642 41.6019 98.72 41.7952 99.1079 41.8815C99.4957 41.9678 99.8999 41.9435 100.275 41.8116C100.649 41.6796 100.98 41.4452 101.228 41.135C101.476 40.8247 101.632 40.4511 101.679 40.0565C101.725 39.6619 101.66 39.2622 101.491 38.9028C101.322 38.5433 101.055 38.2386 100.721 38.0232C100.387 37.8078 99.9995 37.6903 99.6023 37.6841C99.2916 37.7167 98.9905 37.8106 98.7164 37.9604C98.4422 38.1103 98.2006 38.3131 98.0054 38.557C97.8103 38.8009 97.6655 39.0812 97.5795 39.3815C97.4935 39.6818 97.468 39.9963 97.5044 40.3065Z" fill="#403D4F"/>
    <path d="M84.3924 32.8852C84.3924 32.8852 84.3924 32.8852 84.1826 32.6754C83.9711 32.4698 83.7329 32.2934 83.4745 32.151C83.1436 31.9616 82.7915 31.812 82.4256 31.7051C81.5724 31.4709 80.6858 31.3822 79.8031 31.4429C79.432 31.462 79.0633 31.5147 78.7017 31.6002L77.679 31.8887C77.5101 31.9431 77.369 32.0612 77.2858 32.2178C77.2025 32.3745 77.1836 32.5575 77.2331 32.7279C77.2764 32.862 77.3602 32.9793 77.4729 33.0638C77.5856 33.1484 77.7217 33.1959 77.8625 33.1999H79.8294C80.1698 33.1741 80.5116 33.1741 80.8521 33.1999C81.1891 33.2309 81.5227 33.2924 81.8486 33.3835C82.1895 33.3835 82.4256 33.5671 82.6878 33.5933C82.8742 33.6717 83.0673 33.7332 83.2648 33.7769H83.5008C83.6644 33.848 83.8495 33.8522 84.0162 33.7885C84.1829 33.7247 84.318 33.5982 84.3924 33.436C84.4313 33.3448 84.4514 33.2466 84.4514 33.1475C84.4514 33.0483 84.4313 32.9502 84.3924 32.859V32.8852Z" fill="#403D4F"/>
    <path d="M97.1635 33.8815C97.1635 33.8815 97.1635 33.8815 97.3209 33.8815L97.7142 33.7241H98.0027C98.1064 33.7014 98.2137 33.7014 98.3174 33.7241C98.5492 33.6476 98.7856 33.5862 99.0254 33.5406C99.2694 33.5133 99.5157 33.5133 99.7597 33.5406H101.255C101.343 33.5406 101.43 33.5229 101.512 33.4883C101.593 33.4537 101.666 33.4031 101.728 33.3394C101.789 33.2757 101.837 33.2003 101.868 33.1177C101.899 33.0351 101.914 32.947 101.91 32.8587C101.905 32.7286 101.863 32.6027 101.789 32.4958C101.714 32.3889 101.611 32.3056 101.491 32.2556L100.678 31.9671C100.387 31.8803 100.088 31.8275 99.786 31.8098C99.4294 31.7577 99.0673 31.7577 98.7107 31.8098C98.0261 31.8956 97.3755 32.1576 96.8226 32.5703L96.3243 33.0685C96.1932 33.2259 96.1932 33.2783 96.1932 33.3046V33.5406C96.1702 33.7207 96.2172 33.9027 96.3246 34.0492C96.4319 34.1956 96.5915 34.2952 96.7702 34.3273C96.9498 34.2298 97.0892 34.0719 97.1635 33.8815Z" fill="#403D4F"/>
    <path d="M91.7877 49.2492C92.2297 49.2467 92.6667 49.1548 93.0723 48.979C93.4779 48.8033 93.8438 48.5473 94.1479 48.2265C94.259 48.1076 94.3443 47.967 94.3985 47.8136C94.4526 47.6601 94.4744 47.4972 94.4626 47.3349C94.4626 47.0464 94.0167 43.4274 93.8594 42.09C93.8292 41.9606 93.7554 41.8456 93.6503 41.7644C93.5451 41.6832 93.4153 41.6407 93.2825 41.6442C93.1479 41.6638 93.0261 41.7349 92.9429 41.8425C92.8598 41.9502 92.8216 42.0859 92.8367 42.2211C92.8367 42.4047 93.4136 47.1513 93.466 47.466C93.2513 47.7037 92.988 47.8923 92.6938 48.019C92.3997 48.1457 92.0817 48.2075 91.7615 48.2003C91.6269 48.207 91.5002 48.2652 91.4074 48.3629C91.3146 48.4605 91.263 48.5901 91.2632 48.7248C91.2696 48.8618 91.3269 48.9915 91.4239 49.0885C91.5209 49.1856 91.6507 49.2429 91.7877 49.2492Z" fill="#F18380"/>
    <path d="M94.2004 54.4153C95.1707 54.6513 95.5378 56.1199 94.9347 57.8244C94.3397 58.9981 93.3664 59.9368 92.172 60.4888C90.9775 61.0408 89.6318 61.1739 88.3524 60.8665C87.654 60.8333 86.9692 60.6608 86.3384 60.3591C85.7076 60.0574 85.1435 59.6326 84.6793 59.1097C84.215 58.5868 83.86 57.9764 83.6351 57.3143C83.4102 56.6523 83.32 55.9519 83.3697 55.2544C83.3697 54.1268 84.1565 53.4712 85.6251 53.4712C88.5047 53.5481 91.373 53.8638 94.2004 54.4153Z" fill="#73102A"/>
    <path d="M83.3699 55.3856V55.1496C85.2894 54.706 87.3055 54.9987 89.0196 55.9699C90.7337 56.941 92.0211 58.52 92.6272 60.3945C91.2781 61.0556 89.7606 61.2933 88.2739 61.0763C87.5751 61.0335 86.8919 60.8511 86.2647 60.5401C85.6375 60.229 85.0789 59.7955 84.6218 59.2652C84.1648 58.7348 83.8186 58.1183 83.6036 57.452C83.3886 56.7857 83.3091 56.0831 83.3699 55.3856Z" fill="#D65155"/>
    <path d="M93.3613 55.9888C90.0401 56.0403 86.7338 55.535 83.5796 54.494C83.7772 54.1367 84.0784 53.8477 84.4436 53.6652C84.8088 53.4826 85.2207 53.415 85.6251 53.4713C88.5047 53.5481 91.373 53.8639 94.2004 54.4153C94.4716 54.5088 94.7088 54.6809 94.8816 54.9098C95.0545 55.1387 95.1551 55.4139 95.1707 55.7003C94.5903 55.9063 93.977 56.0041 93.3613 55.9888Z" fill="white"/>
    <path d="M78.7809 25.4376C78.7809 25.4376 76.1585 38.5498 65.0393 43.6373C65.0393 43.6373 53.7104 37.055 55.0216 24.4936C56.6476 9.02118 78.6236 -8.3918 100.495 8.0771C102.619 7.73619 104.927 3.25182 104.245 0C105.139 0.561738 105.842 1.38019 106.264 2.34832C106.685 3.31644 106.804 4.38916 106.606 5.42616C106.407 6.46315 105.901 7.41615 105.152 8.1605C104.403 8.90486 103.447 9.40591 102.409 9.59812C105.979 10.0955 109.219 11.9527 111.452 14.7821C113.685 17.6115 114.739 21.1941 114.394 24.782C114.282 27.0441 113.34 29.1855 111.748 30.7967C110.156 32.4078 108.026 33.3755 105.766 33.5147H101.911C98.9285 32.1479 96.5169 29.7827 95.0924 26.8275C95.4634 29.0551 96.2365 31.1967 97.374 33.1476C97.5838 33.541 97.1117 34.2228 93.8861 33.541C90.183 32.2672 87.088 29.6584 85.2059 26.2244C85.9109 28.4761 86.8515 30.6473 88.0119 32.7018C88.0119 33.0951 86.3073 33.6721 83.7897 32.5182C82.3875 31.9085 81.1792 30.9261 80.2961 29.6777C79.413 28.4294 78.8889 26.9629 78.7809 25.4376Z" fill="#BC664A"/>
    <path d="M95.9836 35.7435C95.0395 35.7435 94.6724 37.4743 94.6724 39.1265C94.7688 41.3643 95.4369 43.5402 96.6129 45.4465C97.0941 46.0218 97.7182 46.4603 98.4224 46.7181C99.1267 46.9759 99.8864 47.0438 100.625 46.9151C101.525 47.0543 102.444 46.9949 103.319 46.7412C104.193 46.4875 105.001 46.0456 105.687 45.4465C107.13 43.6386 107.99 41.4344 108.152 39.1265C108.152 37.4743 107.653 35.7435 106.473 35.7435H95.9836Z" stroke="#403D4F" stroke-width="0.75" stroke-miterlimit="10"/>
    <path d="M88.0639 35.7435C89.3226 35.7435 89.8209 37.4743 89.8209 39.1265C89.649 41.4603 88.7294 43.6766 87.1985 45.4465C86.4737 46.0414 85.6333 46.4791 84.7304 46.7319C83.8275 46.9847 82.8819 47.0471 81.9536 46.9151C79.5966 47.2182 77.207 46.6996 75.1877 45.4465C73.3461 43.8216 72.1771 41.5679 71.9097 39.1265C71.9097 37.4743 72.5391 35.7435 74.1388 35.7435H88.0639Z" stroke="#403D4F" stroke-width="0.75" stroke-miterlimit="10"/>
    <path d="M94.8826 37.317C94.1289 36.7428 93.2076 36.4318 92.2601 36.4318C91.3126 36.4318 90.3913 36.7428 89.6377 37.317" stroke="#403D4F" stroke-width="0.75" stroke-miterlimit="10"/>
    <path d="M74.0869 35.7435H70.8875C70.2057 35.7435 69.4189 35.9009 69.4189 36.8187V38.2873C69.4189 38.6544 71.7529 39.3887 72.0414 40.2017" stroke="#403D4F" stroke-width="0.75" stroke-miterlimit="10"/>
    <path d="M62.4429 39.5726L69.4186 36.8191" stroke="#403D4F" stroke-width="0.75" stroke-miterlimit="10"/>
    <path d="M66.0351 45.5779C65.8253 42.0113 64.8812 37.8417 60.5279 38.4711C55.4404 39.2578 54.9421 53.0256 65.7728 51.3734L66.0351 45.5779Z" fill="#FBBEAA"/>
    <path d="M60.1614 46.4958C60.2526 46.4971 60.3424 46.4733 60.4211 46.427C60.4997 46.3808 60.5641 46.3139 60.6072 46.2335C60.7225 46.0065 60.8938 45.8127 61.1049 45.6704C61.316 45.5282 61.5599 45.4422 61.8136 45.4206C62.1162 45.4239 62.4128 45.5053 62.6747 45.6569C62.9366 45.8085 63.1548 46.0252 63.3084 46.286C63.3711 46.3757 63.4615 46.4423 63.5657 46.4755C63.67 46.5086 63.7823 46.5066 63.8853 46.4696C63.9963 46.4388 64.0924 46.3685 64.1552 46.2719C64.2179 46.1753 64.2432 46.059 64.2262 45.9451C64.1808 44.842 63.8374 43.7719 63.2325 42.8484C62.6276 41.9249 61.7839 41.1826 60.7908 40.7002C60.7241 40.6606 60.6494 40.6362 60.5721 40.629C60.4948 40.6217 60.4169 40.6317 60.3439 40.6582C60.2709 40.6847 60.2048 40.727 60.1502 40.7822C60.0955 40.8374 60.0539 40.904 60.0281 40.9773C60.0024 41.0505 59.9932 41.1286 60.0013 41.2058C60.0094 41.283 60.0345 41.3574 60.0749 41.4237C60.1152 41.4901 60.1698 41.5466 60.2347 41.5893C60.2995 41.632 60.373 41.6597 60.4499 41.6705C61.0393 41.957 61.5642 42.3605 61.9925 42.8564C62.4208 43.3524 62.7436 43.9304 62.9413 44.5552C62.5753 44.3747 62.1684 44.2933 61.7611 44.3192C61.3372 44.3593 60.9295 44.502 60.5731 44.735C60.2167 44.9681 59.9224 45.2844 59.7156 45.6566C59.6582 45.7758 59.6479 45.9122 59.6868 46.0387C59.7257 46.1651 59.8109 46.2722 59.9254 46.3384L60.1614 46.4958Z" fill="#F18380"/>
    <path d="M172.287 80.3558C172.389 78.1208 171.791 75.9097 170.575 74.0312C168.704 71.8616 167.302 71.3282 166.458 68.5904C165.809 66.049 164.771 63.6229 163.383 61.3976C162.39 60.0335 160.902 58.9174 160.902 57.8757C160.902 56.834 162.887 54.825 165.714 55.3954C166.925 55.7727 168.038 56.413 168.973 57.2706C169.907 58.1282 170.641 59.1817 171.121 60.3559C171.392 59.6405 171.551 58.8876 171.592 58.1237L172.212 40.9197C172.222 40.5256 172.31 40.1373 172.472 39.7778C172.634 39.4184 172.866 39.095 173.155 38.8269C173.444 38.5587 173.784 38.3511 174.155 38.2164C174.525 38.0817 174.919 38.0226 175.313 38.0426C175.94 38.0694 176.542 38.2919 177.036 38.679C177.287 38.8754 181.482 43.9631 185.577 49.0061C189.551 53.901 193.431 58.7537 193.518 59.0504C192.722 66.2798 191.226 73.415 189.053 80.3558C189.027 81.5147 188.759 82.6553 188.265 83.7042C187.772 84.7531 187.064 85.6872 186.188 86.4464C185.312 87.2056 184.287 87.7731 183.179 88.1124C182.07 88.4517 180.903 88.5554 179.752 88.4167C178.711 88.4514 177.674 88.2618 176.712 87.8606C175.751 87.4595 174.886 86.8561 174.178 86.0916C173.47 85.327 172.935 84.4192 172.608 83.4295C172.282 82.4399 172.172 81.3916 172.287 80.3558Z" fill="#FBBEAA"/>
    <path d="M178.029 35.2041L191.017 47.7466C194.147 51.256 195.627 54.8108 195.86 58.0969C195.855 58.1028 195.858 58.1061 195.855 58.1091C196.188 62.7054 194.089 66.7646 190.72 69.3843C190.656 69.4432 190.58 69.5013 190.509 69.5535C190.488 69.568 190.471 69.5857 190.457 69.6006C188.608 70.9725 186.396 71.9198 184.014 72.3127C183.227 72.4462 182.414 72.5153 181.588 72.5081C181.518 72.5101 181.475 72.5137 181.465 72.5099C181.446 72.5087 181.418 72.5101 181.377 72.5108C177.669 72.4602 173.718 71.0401 170.122 67.7973L157.901 56.0472L178.029 35.2041Z" fill="#0099FF"/>
    <path d="M195.859 58.1123C196.379 65.3129 190.939 71.1827 184.015 72.3125C182.804 72.4104 181.911 72.487 181.588 72.5079C181.519 72.5099 181.475 72.5135 181.465 72.5097C181.446 72.5085 181.418 72.5099 181.377 72.5105C180.67 72.4636 175.225 71.9566 167.892 64.5885C162.249 58.9215 159.875 56.8574 159.875 56.8574L167.184 53.8815C167.184 53.8815 178.581 66.1432 185.349 67.1375C192.122 68.1416 195.49 62.4263 195.859 58.1123Z" fill="#0099FF"/>
    <path d="M178.031 35.205L191.019 47.7475C192.678 49.6133 193.874 51.4787 194.661 53.3219C194.664 53.3253 194.664 53.3253 194.671 53.332C195.365 54.9589 195.75 56.5572 195.862 58.0977L195.859 58.129C195.86 58.1479 195.857 58.1728 195.857 58.2137C196.158 62.7735 194.064 66.7796 190.724 69.3885C191.174 68.9858 191.745 68.1853 192.239 67.1316C192.278 67.0492 192.317 66.9668 192.354 66.8873C192.39 66.8079 192.42 66.728 192.456 66.6486C192.502 66.5383 192.548 66.4217 192.587 66.3047C192.638 66.1821 192.685 66.0499 192.724 65.9329C192.76 65.8125 192.801 65.6863 192.837 65.5659L192.839 65.5566C192.888 65.4151 192.919 65.2787 192.952 65.1613C192.999 64.9663 193.049 64.7619 193.088 64.5538C193.097 64.5167 193.099 64.5011 193.099 64.5011C193.546 62.2283 193.312 59.5269 191.362 57.0993C188.607 53.676 183.205 48.7122 179.916 45.7932C178.287 44.341 177.171 43.395 177.171 43.395C177.171 43.395 177.69 41.3341 178.095 39.9262C178.306 39.207 178.482 38.6491 178.544 38.6403C178.729 38.6015 178.069 35.4086 178.025 35.211L178.031 35.205Z" fill="#0099FF"/>
    <path d="M178.029 35.2048L191.017 47.7472C192.677 49.613 193.872 51.4784 194.659 53.3217C193.326 51.0077 190.413 46.7796 185.55 44.731C183.398 43.8277 181.668 44.4497 179.921 45.7933C177.71 47.498 175.466 50.3571 172.285 52.7748C166.582 57.1073 158.784 56.8945 158.52 56.6392L158.193 56.3236L159.625 56.6009L164.303 55.3476L167.533 53.1372C167.533 53.1372 174.409 46.0176 174.638 45.7804C174.867 45.5431 178.106 39.9267 178.106 39.9267L178.036 35.2115L178.029 35.2048Z" fill="#0099FF"/>
    <path d="M167.38 54.0735L168.363 55.1086C168.363 55.1086 171.881 53.4975 174.376 51.053C176.546 48.9247 179.917 45.8023 179.917 45.8023L177.173 43.4041L172.572 48.6282L167.38 54.0735Z" fill="#0099FF"/>
    <path d="M159.878 56.8614L160.214 57.1745C159.659 57.1087 159.06 56.9711 158.521 56.6454L157.905 56.051L159.878 56.8614Z" fill="#0099FF"/>
    <path d="M159.878 56.8614L160.215 57.1745C160.215 57.1745 161.386 57.3884 164.72 56.5171C166.5 56.0522 168.372 55.1091 168.372 55.1091L167.194 53.8859C167.194 53.8859 163.206 55.7885 163.158 55.908C163.1 56.0239 159.878 56.8614 159.878 56.8614Z" fill="#0099FF"/>
    <path d="M172.346 49.8587C177.903 44.1039 180.446 37.5443 178.027 35.2075C175.607 32.8706 169.14 35.6415 163.583 41.3963C158.025 47.1511 155.482 53.7107 157.902 56.0475C160.321 58.3843 166.788 55.6135 172.346 49.8587Z" fill="#A3A9AA"/>
    <path d="M177.24 35.5642C178.332 36.6186 178.142 38.7784 176.949 41.3915C176.432 42.5254 175.722 43.7542 174.847 45.0011C174.758 45.1213 174.67 45.2478 174.575 45.3739C173.694 46.5921 172.661 47.8292 171.492 49.039C170.272 50.3022 169.01 51.4214 167.779 52.3696C163.688 55.5135 159.816 56.7947 158.223 55.2567C157.298 54.3634 157.299 52.6507 158.06 50.5545C158.06 50.5545 158.06 50.5545 158.062 50.5453C158.608 49.0549 159.533 47.3523 160.779 45.6098C161.683 44.3459 162.758 43.0454 163.978 41.7822C165.197 40.519 166.46 39.3998 167.697 38.4457C171.782 35.3078 175.651 34.0295 177.24 35.5642Z" fill="#475150"/>
    <path d="M195.859 58.217C196.16 62.7768 194.066 66.7828 190.726 69.3918C190.726 69.3918 191.651 68.3302 192.24 67.1349C192.28 67.0524 192.319 66.97 192.355 66.8906C192.392 66.8111 192.422 66.7313 192.458 66.6518C192.51 66.5356 192.553 66.4219 192.589 66.3079C192.64 66.1854 192.687 66.0531 192.726 65.9361C192.767 65.8035 192.809 65.6836 192.839 65.5691L192.841 65.5598C192.89 65.4183 192.921 65.282 192.954 65.1646C193.038 64.8618 193.077 64.6474 193.09 64.5571C193.099 64.5199 193.101 64.5043 193.101 64.5043C193.101 64.5043 194.214 63.2816 194.897 61.8783C195.82 59.9902 195.833 58.7308 195.859 58.217Z" fill="#0099FF"/>
    <path d="M185.25 66.5792C185.989 67.6588 186.221 68.5877 185.616 69.2763C183.998 71.1402 177.941 70.1742 173.881 66.5569C169.824 62.9366 167.141 57.893 168.759 56.029C168.847 55.9308 168.937 55.8452 169.041 55.7793L169.046 55.7734C170.855 54.4367 174.957 56.8341 178.813 60.2596C181.344 62.5314 184.013 64.7709 185.25 66.5792Z" fill="#0099FF"/>
    <path d="M185.615 67.176C185.615 67.176 181.778 67.1269 177.897 64.2215C175.4 62.3603 169.039 55.7815 169.039 55.7815L169.044 55.7756C170.853 54.4388 174.858 56.6385 178.78 59.9739C185.163 65.4038 185.615 67.176 185.615 67.176Z" fill="#0099FF"/>
    <path d="M167.696 38.4455L174.696 45.2053C174.696 45.2053 172.851 47.6649 171.491 49.0388C170.254 50.2853 169.009 51.4212 167.777 52.3695L160.777 45.6096C161.682 44.3458 162.756 43.0453 163.976 41.782C165.199 40.5159 166.461 39.3967 167.696 38.4455Z" fill="#5E6466"/>
    <path d="M177.239 35.564C178.331 36.6185 178.054 38.7352 176.947 41.3913C176.291 42.9691 174.696 45.2053 174.696 45.2053C174.696 45.2053 171.399 42.1539 169.4 40.1601C168.419 39.1786 167.696 38.4455 167.696 38.4455C171.781 35.3076 175.65 34.0294 177.239 35.564Z" fill="#747A7C"/>
    <path d="M177.24 35.5642C178.332 36.6186 178.141 38.7784 176.948 41.3915C175.182 38.5794 172.628 38.6695 169.449 40.1382C169.43 40.137 169.416 40.1518 169.401 40.1603C168.792 40.4431 168.159 40.7779 167.505 41.1428C165.665 42.1916 163.419 44.3781 161.578 46.3759C159.6 48.535 158.093 50.4781 158.063 50.5516C158.063 50.5516 158.063 50.5516 158.065 50.5423C158.61 49.0519 159.535 47.3493 160.781 45.6069C161.686 44.343 162.76 43.0425 163.98 41.7793C164.679 41.0557 165.392 40.3802 166.103 39.7549C166.635 39.2881 167.166 38.8496 167.697 38.4457C171.782 35.3078 175.651 34.0295 177.24 35.5642Z" fill="#929799"/>
    <path d="M167.696 38.4455L169.4 40.1601C168.791 40.443 168.158 40.7778 167.504 41.1426C165.664 42.1915 163.418 44.3779 161.577 46.3757L160.78 45.6067C161.685 44.3428 162.759 43.0423 163.979 41.7791C164.678 41.0556 165.391 40.3801 166.102 39.7547L167.696 38.4455Z" fill="#6F7577"/>
    <path d="M161.577 46.3758L160.78 45.6068C160.78 45.6068 159.854 46.7814 159.16 48.1683C158.466 49.5552 158.062 50.5515 158.062 50.5515L161.577 46.3758Z" fill="#5E6466"/>
    <path d="M173.483 46.7172C172.405 48.0489 171.065 49.4995 169.388 51.0267C164.197 55.7837 160.638 55.8712 160.638 55.8712C160.638 55.8712 159.529 54.7371 164.288 48.9948C164.288 48.9948 163.547 50.1589 163.312 51.1814C163.184 51.7454 163.5 52.5664 165.359 52.207C166.843 51.9156 171.476 48.8304 173.483 46.7172Z" fill="#475150"/>
    <path d="M170.278 44.5547C170.4 44.6722 170.254 45.0183 169.956 45.3267C169.658 45.6351 169.317 45.7931 169.196 45.6755C169.074 45.558 169.217 45.2149 169.518 44.9035C169.819 44.5985 170.16 44.4405 170.278 44.5547Z" fill="#5E6466"/>
    <path d="M179.877 45.721C178.468 43.4736 181.329 40.5098 183.144 39.3517C183.144 39.3517 184.236 38.0879 186.5 40.3518C189 42.8519 187.5 44.563 187.5 44.563C185.867 46.3001 182.055 49.1952 179.877 45.721Z" fill="#FBBEAA"/>
    <path d="M183.877 50.0728C182.468 47.8254 185.329 44.8616 187.144 43.7035C187.144 43.7035 188.236 42.4397 190.5 44.7036C193 47.2037 191.5 48.9148 191.5 48.9148C189.867 50.6519 186.055 53.547 183.877 50.0728Z" fill="#FBBEAA"/>
    <path d="M187.877 54.0728C186.468 51.8254 189.329 48.8616 191.144 47.7035C191.144 47.7035 192.236 46.4397 194.5 48.7036C197 51.2037 195.5 52.9148 195.5 52.9148C193.867 54.6519 190.055 57.547 187.877 54.0728Z" fill="#FBBEAA"/>
    <path d="M192.813 57.6332C191.645 55.7495 194.016 53.2654 195.52 52.2948C195.52 52.2948 196.425 51.2355 198.301 53.133C200.373 55.2285 199.13 56.6626 199.13 56.6626C197.776 58.1186 194.617 60.5451 192.813 57.6332Z" fill="#FBBEAA"/>
    <path d="M87.7026 485.134C87.7026 482.746 88.6512 480.456 90.3397 478.768C92.0281 477.079 94.3182 476.131 96.706 476.131C99.0938 476.131 101.384 477.079 103.072 478.768C104.761 480.456 105.709 482.746 105.709 485.134V504.703H87.7026V485.134Z" fill="#FBBEAA"/>
    <path d="M105.065 488.78C107.272 488.78 107.669 489.748 108.314 491.012C109.36 494.383 111.148 497.477 113.547 500.065C117.129 503.116 120.971 505.847 125.031 508.225V518.593H84.9497C84.9497 518.593 85.2225 510.408 85.421 504.629C85.6194 498.85 86.1899 491.806 86.1403 491.062C86.0907 490.318 86.1402 488.78 87.5044 488.78H105.065Z" fill="#302D3B"/>
    <path d="M89.9346 505.199C89.9297 506.472 90.303 507.717 91.0069 508.777C91.7109 509.838 92.7139 510.665 93.8887 511.154C95.0636 511.643 96.3572 511.773 97.6056 511.526C98.8541 511.279 100.001 510.666 100.901 509.766C101.801 508.866 102.413 507.72 102.66 506.471C102.907 505.223 102.778 503.929 102.289 502.754C101.799 501.579 100.972 500.576 99.9119 499.872C98.8517 499.168 97.6064 498.795 96.3337 498.8C94.6386 498.807 93.0147 499.483 91.8161 500.682C90.6174 501.88 89.9412 503.504 89.9346 505.199Z" fill="#93929C"/>
    <path d="M96.3337 501.429L94.8703 503.587L92.3652 504.306L93.9526 506.365L93.8782 508.969L96.3337 508.076L98.7891 508.969L98.6899 506.365L100.302 504.306L97.797 503.587L96.3337 501.429Z" fill="white"/>
    <path d="M124.758 508.052C124.758 508.052 130.437 511.053 132.57 512.516C133.558 513.185 134.36 514.094 134.902 515.156C135.444 516.219 135.709 517.401 135.671 518.593H120.095C120.095 518.593 120.417 510.979 124.758 508.052Z" fill="white"/>
    <path d="M84.9497 518.593V522.884C84.9497 523.603 85.5946 524 86.6859 524H133.96C135.026 524 135.671 523.603 135.671 522.884V518.593H84.9497Z" fill="white"/>
    <path d="M120.095 505.15C120.232 504.939 120.446 504.79 120.691 504.734C120.937 504.679 121.194 504.721 121.409 504.852C121.516 504.918 121.609 505.005 121.682 505.107C121.755 505.209 121.807 505.324 121.834 505.447C121.862 505.569 121.865 505.696 121.843 505.82C121.821 505.943 121.775 506.061 121.707 506.167L120.045 508.845C119.965 508.984 119.849 509.099 119.709 509.177C119.57 509.256 119.411 509.296 119.251 509.292C119.068 509.289 118.888 509.238 118.73 509.143C118.623 509.077 118.531 508.991 118.458 508.889C118.385 508.787 118.333 508.671 118.305 508.548C118.277 508.426 118.274 508.299 118.296 508.176C118.318 508.052 118.365 507.934 118.433 507.829L120.095 505.15Z" fill="white"/>
    <path d="M117.168 503.091C117.249 502.997 117.348 502.919 117.46 502.863C117.571 502.807 117.693 502.773 117.817 502.764C117.941 502.755 118.066 502.77 118.185 502.809C118.303 502.848 118.413 502.91 118.507 502.992C118.602 503.073 118.679 503.172 118.735 503.284C118.791 503.395 118.825 503.517 118.834 503.641C118.843 503.765 118.828 503.89 118.789 504.009C118.75 504.127 118.688 504.237 118.606 504.331L116.672 506.613C116.582 506.718 116.472 506.802 116.349 506.862C116.225 506.922 116.09 506.955 115.952 506.96C115.773 506.957 115.598 506.904 115.447 506.806C115.296 506.709 115.175 506.571 115.097 506.409C115.02 506.247 114.99 506.066 115.009 505.888C115.029 505.709 115.098 505.539 115.208 505.398L117.168 503.091Z" fill="white"/>
    <path d="M114.415 500.785C114.612 500.658 114.849 500.607 115.081 500.641C115.314 500.676 115.525 500.793 115.677 500.973C115.829 501.152 115.91 501.38 115.906 501.614C115.902 501.849 115.813 502.074 115.655 502.248L113.448 504.158C113.275 504.305 113.055 504.384 112.828 504.381C112.691 504.386 112.555 504.36 112.431 504.304C112.306 504.248 112.196 504.164 112.109 504.059C112.017 503.973 111.944 503.869 111.894 503.754C111.844 503.639 111.818 503.515 111.818 503.389C111.818 503.264 111.844 503.139 111.894 503.024C111.944 502.909 112.017 502.805 112.109 502.719L114.415 500.785Z" fill="white"/>
    <path d="M109.578 499.644L112.058 498.106C112.276 497.977 112.536 497.939 112.781 497.999C113.027 498.059 113.239 498.213 113.373 498.428C113.44 498.535 113.485 498.655 113.505 498.779C113.525 498.904 113.52 499.031 113.49 499.154C113.46 499.276 113.405 499.392 113.33 499.493C113.254 499.594 113.159 499.679 113.05 499.743L110.57 501.281C110.423 501.378 110.25 501.43 110.074 501.429C109.912 501.426 109.755 501.38 109.616 501.298C109.477 501.215 109.361 501.098 109.28 500.958C109.149 500.743 109.107 500.486 109.163 500.241C109.218 499.995 109.367 499.781 109.578 499.644Z" fill="white"/>
    <path d="M107.495 496.444L110.272 495.279C110.509 495.18 110.776 495.18 111.013 495.277C111.25 495.375 111.439 495.563 111.537 495.8C111.586 495.915 111.611 496.039 111.611 496.164C111.611 496.29 111.586 496.414 111.537 496.529C111.489 496.644 111.418 496.749 111.328 496.837C111.239 496.924 111.133 496.993 111.017 497.04L108.239 498.205H107.867C107.653 498.194 107.449 498.112 107.286 497.972C107.124 497.832 107.013 497.642 106.97 497.432C106.928 497.222 106.956 497.003 107.051 496.811C107.146 496.619 107.302 496.464 107.495 496.37V496.444Z" fill="white"/>
    <path d="M105.759 492.873L108.834 492.104C109.078 492.044 109.335 492.084 109.549 492.215C109.763 492.345 109.916 492.555 109.975 492.798C110.034 493.042 109.995 493.298 109.864 493.512C109.734 493.726 109.524 493.88 109.281 493.939L106.23 494.733H106.007C105.793 494.73 105.586 494.659 105.416 494.529C105.246 494.4 105.123 494.219 105.064 494.013C105.011 493.77 105.054 493.516 105.183 493.304C105.312 493.091 105.519 492.937 105.759 492.873Z" fill="white"/>
    <path d="M74.5322 359.98C74.8051 347.976 82.8907 342.172 94.8703 342.47C106.85 342.767 115.481 349.043 115.208 361.022L105.709 486.102H87.7024L74.5322 359.98Z" fill="#FBBEAA"/>
    <path d="M11.8062 485.134C11.8062 482.746 12.7547 480.456 14.4432 478.768C16.1316 477.079 18.4217 476.131 20.8095 476.131C23.1973 476.131 25.4874 477.079 27.1758 478.768C28.8643 480.456 29.8129 482.746 29.8129 485.134V504.703H11.8062V485.134Z" fill="#FBBEAA"/>
    <path d="M29.1438 488.78C31.3761 488.78 31.7729 489.748 32.393 491.012C33.4508 494.384 35.2471 497.476 37.6511 500.065C41.2282 503.122 45.0714 505.853 49.1347 508.225V518.593H9.05371C9.05371 518.593 9.32655 510.408 9.52497 504.629C9.72339 498.85 10.2691 491.806 10.2443 491.062C10.2195 490.318 10.2442 488.78 11.5836 488.78H29.1438Z" fill="#302D3B"/>
    <path d="M14.0142 505.199C14.0093 506.471 14.3819 507.715 15.0848 508.775C15.7876 509.834 16.7892 510.662 17.9625 511.152C19.1359 511.642 20.4283 511.772 21.676 511.527C22.9238 511.282 24.0707 510.672 24.9716 509.775C25.8725 508.878 26.4868 507.733 26.7367 506.486C26.9865 505.24 26.8608 503.947 26.3753 502.771C25.8898 501.596 25.0665 500.591 24.0096 499.884C22.9526 499.177 21.7097 498.8 20.4381 498.8C18.7387 498.8 17.1085 499.473 15.9045 500.673C14.7005 501.872 14.0208 503.5 14.0142 505.199Z" fill="#93929C"/>
    <path d="M20.4128 501.429L18.9494 503.587L16.4443 504.306L18.0565 506.365L17.9821 508.969L20.4128 508.076L22.8682 508.969L22.7938 506.365L24.406 504.306L21.8761 503.587L20.4128 501.429Z" fill="white"/>
    <path d="M48.8364 508.052C48.8364 508.052 54.541 511.053 56.6492 512.516C57.6418 513.18 58.4478 514.087 58.9905 515.151C59.5332 516.215 59.7945 517.4 59.7496 518.593H44.0991C44.0991 518.593 44.5208 510.979 48.8364 508.052Z" fill="white"/>
    <path d="M9.05371 518.593V522.884C9.05371 523.603 9.67378 524 10.7651 524H58.0885C59.1798 524 59.7998 523.603 59.7998 522.884V518.593H9.05371Z" fill="white"/>
    <path d="M44.1986 505.15C44.3334 504.936 44.5477 504.785 44.7942 504.729C45.0407 504.673 45.2993 504.717 45.5131 504.852C45.7269 504.987 45.8783 505.201 45.9342 505.448C45.99 505.694 45.9456 505.953 45.8107 506.167L44.149 508.846C44.063 508.985 43.9423 509.099 43.7988 509.177C43.6553 509.255 43.4939 509.295 43.3305 509.292C43.1541 509.292 42.9815 509.241 42.8344 509.143C42.7275 509.077 42.6348 508.991 42.5617 508.889C42.4887 508.787 42.4367 508.671 42.409 508.549C42.3813 508.426 42.3783 508.299 42.4002 508.176C42.4222 508.052 42.4686 507.934 42.5368 507.829L44.1986 505.15Z" fill="white"/>
    <path d="M41.2465 503.091C41.41 502.901 41.6411 502.781 41.8911 502.758C42.141 502.735 42.3901 502.81 42.5858 502.967C42.7779 503.135 42.8979 503.37 42.921 503.624C42.9441 503.878 42.8685 504.132 42.7098 504.331L40.7504 506.613C40.6644 506.721 40.5551 506.809 40.4305 506.869C40.306 506.929 40.1694 506.96 40.0311 506.96C39.8493 506.962 39.6708 506.911 39.5173 506.814C39.3637 506.717 39.2415 506.577 39.1655 506.412C39.0895 506.247 39.0628 506.063 39.0888 505.883C39.1147 505.703 39.1922 505.535 39.3118 505.398L41.2465 503.091Z" fill="white"/>
    <path d="M38.519 500.785C38.7163 500.658 38.9531 500.607 39.1853 500.641C39.4175 500.676 39.6292 500.793 39.781 500.973C39.9327 501.152 40.0142 501.38 40.0102 501.614C40.0061 501.849 39.9169 502.074 39.7591 502.248L37.5269 504.158C37.3538 504.305 37.1336 504.384 36.9068 504.381C36.7705 504.384 36.6352 504.357 36.5108 504.301C36.3864 504.245 36.2759 504.163 36.1875 504.059C36.099 503.971 36.0288 503.867 35.9808 503.752C35.9329 503.637 35.9082 503.514 35.9082 503.389C35.9082 503.265 35.9329 503.141 35.9808 503.026C36.0288 502.911 36.099 502.807 36.1875 502.719L38.519 500.785Z" fill="white"/>
    <path d="M33.6824 499.644L36.1626 498.106C36.3766 498.016 36.6159 498.005 36.8368 498.077C37.0578 498.148 37.2456 498.297 37.3659 498.496C37.4863 498.694 37.5312 498.93 37.4924 499.159C37.4537 499.388 37.3338 499.595 37.1547 499.743L34.6745 501.281C34.5275 501.378 34.3548 501.43 34.1784 501.429C34.0131 501.427 33.8511 501.383 33.7078 501.301C33.5645 501.218 33.4447 501.1 33.3599 500.958C33.2311 500.74 33.1927 500.481 33.2529 500.235C33.3132 499.989 33.4674 499.777 33.6824 499.644Z" fill="white"/>
    <path d="M31.5992 496.445L34.3771 495.279C34.4926 495.23 34.6165 495.206 34.7418 495.206C34.867 495.206 34.9909 495.231 35.1064 495.279C35.2219 495.328 35.3265 495.399 35.4142 495.488C35.5019 495.577 35.5709 495.683 35.6172 495.8C35.7098 496.031 35.71 496.288 35.6176 496.519C35.5252 496.75 35.3474 496.937 35.1212 497.04L32.3185 498.206C32.2041 498.231 32.0855 498.231 31.9712 498.206C31.7802 498.206 31.5935 498.149 31.4346 498.043C31.2757 497.937 31.1518 497.787 31.0783 497.61C31.003 497.386 31.0148 497.142 31.1113 496.926C31.2078 496.71 31.3819 496.538 31.5992 496.445Z" fill="white"/>
    <path d="M29.8625 492.873L32.9133 492.104C33.1598 492.044 33.4202 492.083 33.6383 492.212C33.8564 492.342 34.0147 492.553 34.079 492.798C34.1086 492.919 34.114 493.044 34.0951 493.167C34.0762 493.289 34.0332 493.407 33.9687 493.513C33.9042 493.619 33.8194 493.711 33.7191 493.784C33.6189 493.858 33.5051 493.91 33.3845 493.939L30.3338 494.733H30.0858C29.8623 494.716 29.6517 494.622 29.49 494.466C29.3283 494.311 29.2255 494.105 29.1991 493.882C29.1727 493.66 29.2245 493.435 29.3455 493.246C29.4665 493.058 29.6493 492.917 29.8625 492.848V492.873Z" fill="white"/>
    <path d="M21.6533 359.608C22.8717 353.978 26.2759 349.062 31.1176 345.942C35.9593 342.821 41.8422 341.75 47.4729 342.966C59.2045 345.446 65.5291 357.004 62.9993 368.736L29.8134 488.16H11.5835L21.6533 359.608Z" fill="#FBBEAA"/>
    <path d="M72.9692 359.2C73.036 356.35 73.6635 353.541 74.8158 350.933C75.9681 348.326 77.6228 345.971 79.6852 344.003C81.7477 342.035 84.1776 340.492 86.8361 339.463C89.4947 338.434 92.3299 337.939 95.1799 338.006C98.0299 338.073 100.839 338.7 103.446 339.853C106.054 341.005 108.409 342.659 110.377 344.722C112.345 346.784 113.887 349.214 114.916 351.873C115.945 354.531 116.441 357.367 116.374 360.217L122.005 488.794H72.9702L72.9692 359.2Z" fill="#93929C"/>
    <path d="M21.6562 356.546C23.0023 351.051 26.4384 346.298 31.2341 343.297C36.0298 340.296 41.8069 339.284 47.3371 340.476C52.8673 341.668 57.7145 344.97 60.8482 349.68C63.982 354.39 65.155 360.137 64.1181 365.698L50.9237 488.294C50.9237 488.294 19.3252 490.179 0.5 488.294L21.6562 356.546Z" fill="#93929C"/>
    <path d="M179.05 137.402L107.817 83.2827C99.5083 77.9749 93.8533 80.8024 89.4385 86.4822C87.4223 89.2313 86.4875 92.6258 86.8122 96.0195C87.1369 99.4132 88.6985 102.569 91.1994 104.886L162.259 157.244C164.763 159.359 167.987 160.426 171.258 160.223C174.529 160.019 177.596 158.561 179.819 156.153L180.141 155.806C181.321 154.547 182.232 153.061 182.819 151.439C183.406 149.816 183.655 148.091 183.553 146.369C183.451 144.647 182.999 142.964 182.225 141.422C181.451 139.88 180.371 138.512 179.05 137.402Z" fill="#FBBEAA"/>
    <path d="M91.1998 104.861C90.5421 104.295 89.9437 103.663 89.414 102.976C88.9457 101.211 88.8854 99.3621 89.2378 97.5701C89.5901 95.7781 90.346 94.0899 91.4479 92.6334C95.1931 86.8544 103.055 82.3155 106.553 83.1836L110.025 84.9446L149.337 114.708C145.858 122.885 141.158 130.486 135.398 137.253L91.1998 104.861Z" fill="#F18380"/>
    <path d="M101.939 79.4133L163.582 120.988C163.323 123.115 170.157 79.4133 170.157 79.4133L189.493 81.9297C189.493 81.9297 189.099 126.058 186.213 149.478C185.06 158.828 177.35 162.397 168.146 160.389C163.602 159.397 159.324 157.533 155.517 154.861C139.159 143.379 93.2652 111.038 89.513 106.969C83.0395 99.9499 83.0395 94.6918 86.7599 88.9128C90.4803 83.1338 98.4419 78.5452 101.939 79.4133Z" fill="#002A80"/>
    <path d="M72.9698 359.906L60.2461 226.691C60.2461 211.983 75.4005 195.961 97.7476 199.408C117.937 202.558 124.088 222.847 122.426 242.069C120.764 261.291 116.275 360.849 116.275 360.849C116.208 363.699 115.581 366.507 114.429 369.115C113.276 371.722 111.622 374.077 109.559 376.045C107.497 378.013 105.067 379.556 102.408 380.585C99.7496 381.614 96.9144 382.109 94.0645 382.042C91.2145 381.976 88.4055 381.348 85.798 380.196C83.1905 379.043 80.8356 377.389 78.8675 375.326C76.8995 373.264 75.357 370.834 74.328 368.175C73.2991 365.517 72.8039 362.682 72.8706 359.832L72.9698 359.906Z" fill="#93929C"/>
    <path d="M21.6533 357.252L34.3026 224.062C36.9813 209.602 54.9632 196.779 76.2686 204.369C95.4906 211.239 97.7228 232.321 92.4647 250.899C87.2065 269.476 64.1153 366.404 64.1153 366.404C62.7692 371.899 59.3331 376.652 54.5374 379.653C49.7417 382.654 43.9647 383.666 38.4345 382.474C32.9043 381.282 28.057 377.98 24.9233 373.27C21.7895 368.56 20.6164 362.813 21.6533 357.252Z" fill="#93929C"/>
    <path d="M92.4646 250.899C87.2312 269.476 64.1152 366.404 64.1152 366.404" stroke="#5E5D63" stroke-width="0.75" stroke-miterlimit="10"/>
    <path d="M88.7442 77.3049C88.7442 77.3049 99.707 79.2147 101.84 79.7852C103.099 80.0806 104.262 80.6907 105.221 81.5583C106.179 82.4259 106.902 83.5226 107.321 84.7457C108.686 87.9949 115.705 109.275 116.35 111.582C116.786 114.123 116.376 116.737 115.184 119.023C114.167 121.801 108.909 134.45 108.909 134.45L108.115 175.201L78.5021 179.898L50.1266 175.201C50.1266 175.201 40.2056 99.4041 39.7095 94.7164C39.2135 90.0287 41.5449 80.9758 47.1503 79.8348C52.7557 78.6939 68.1333 77.3546 68.1333 77.3546L88.7442 77.3049Z" fill="#FBBEAA"/>
    <path d="M109.506 158.816V173.142C90.11 174.928 59.2047 173.663 47.5971 173.142C47.0515 169.05 46.481 162.105 45.8857 157.492C61.685 157.889 87.7786 159.361 109.506 158.816Z" fill="white"/>
    <path d="M7.21834 171.555L38.9905 87.9453C43.2317 79.0164 49.5068 78.4211 56.3523 80.9014C59.5185 82.1644 62.1085 84.5495 63.6274 87.6012C65.1464 90.6529 65.4879 94.1572 64.5867 97.4448L31.8721 179.566C30.8805 182.69 28.717 185.309 25.8358 186.872C22.9546 188.435 19.5799 188.821 16.4201 187.949L15.9488 187.825C14.2821 187.371 12.7254 186.581 11.3737 185.505C10.022 184.429 8.90368 183.089 8.08679 181.566C7.2699 180.044 6.77162 178.371 6.62231 176.65C6.473 174.929 6.6758 173.195 7.21834 171.555Z" fill="#FBBEAA"/>
    <path d="M20.3877 136.881L38.9896 87.9452C39.4885 86.872 40.0776 85.8432 40.7506 84.8697C43.0292 83.4431 45.6378 82.6295 48.3234 82.5078C51.0089 82.3861 53.6804 82.9605 56.0786 84.1752C58.8635 85.5304 61.1021 87.796 62.4237 90.597C63.7453 93.3981 64.0706 96.5665 63.3458 99.5776C63.3458 99.8752 63.1722 100.446 63.0234 101.215L43.8261 149.456C35.4409 146.432 27.5442 142.195 20.3877 136.881Z" fill="#F18380"/>
    <path d="M40.7262 83.4811L6.5 171.5C35.5039 162.219 39 168.5 46.793 142.645C46.793 142.645 64.9831 99.95 65.6776 96.1304C66.4024 93.1192 66.0771 89.9509 64.7555 87.1499C63.4339 84.3489 61.1953 82.0832 58.4104 80.728C50.6472 76.7596 42.9088 80.356 40.7262 83.4811Z" fill="#003399"/>
    <path d="M34.3025 223.418C34.8482 216.547 44.588 185.006 52.5 170C52.5 170 69.385 163.464 80.5 163.5C92.0969 163.538 107.5 172.5 107.5 172.5C112.659 184.182 119.152 212.405 120.864 217.911C121.897 221.151 122.022 224.612 121.226 227.917C120.43 231.223 118.744 234.248 116.349 236.662C110.471 243.334 95.3169 250.973 91.8197 250.973C76.7738 248.824 62.0262 244.946 47.8695 239.415C39.8831 236.067 33.7816 230.313 34.3025 223.418Z" fill="#93929C"/>
    <path d="M85.1401 158.821L26.7827 182.749C19.5595 186.124 12.0899 185.28 8.84349 176.852C8.24987 175.281 7.98159 173.606 8.05489 171.928C8.1282 170.25 8.54154 168.604 9.26991 167.091C9.99829 165.577 11.0265 164.228 12.2921 163.124C13.5578 162.02 15.0345 161.184 16.6328 160.668L81.0693 142.455C87.0347 140.227 91.7694 141.967 93.4256 146.454C95.3826 151.987 92.718 155.728 85.1401 158.821Z" fill="#FBBEAA"/>
    <path d="M91.541 73.5021C91.541 73.5021 105.225 81.4005 107.338 82.7828C109.451 84.165 109 86.5 111.445 92.0635C112.145 93.6562 117.257 99.1937 117 108C116.3 132.019 109.174 173.576 109.174 173.576C104.901 175.881 100.357 177.646 95.6481 178.828C93.3773 179.085 91.5804 179.144 90.0402 177.643C88.5 176.143 83.9584 170.693 83.9584 170.693C83.9584 170.693 76.4747 175.767 73.0981 177.643C72.2934 178.205 71.3841 178.599 70.4242 178.803C69.4642 179.006 68.4732 179.015 67.5099 178.828C62.5931 177.821 43.2419 172.174 42.6297 171.818C42.0176 171.463 41.445 171.088 41.5042 170.416C41.5635 169.745 41.9189 92.7151 42.1756 89.2398C42.2264 87.3786 42.8121 85.5714 43.8626 84.0342C44.913 82.497 46.3839 81.2948 48.0994 80.5712C52.2264 78.7348 67.7271 72.4358 67.7271 72.4358L83.8992 83.6714L91.541 73.5021Z" fill="#003399"/>
    <path d="M91.5408 71.291L83.9385 83.6719C83.9385 83.6719 91.4025 89.5957 91.8369 90.0301C92.2713 90.4645 93.1402 90.425 93.3179 89.7339C93.4956 89.0428 95.648 75.9116 95.6875 75.9116C95.7255 75.842 95.7454 75.7639 95.7454 75.6845C95.7454 75.6052 95.7255 75.5271 95.6875 75.4575C95.49 75.3192 91.5408 71.291 91.5408 71.291Z" fill="#F5F5F5"/>
    <path d="M67.6481 69L83.9585 83.6714C83.9585 83.6714 75.3689 89.5952 74.9937 90.0296C74.8843 90.1227 74.7553 90.1897 74.6162 90.2256C74.4772 90.2615 74.3318 90.2653 74.1911 90.2368C74.0504 90.2083 73.918 90.1481 73.8039 90.0609C73.6898 89.9737 73.597 89.8618 73.5325 89.7335C72.9006 88.7264 62.7906 74.5289 62.7511 74.4104C62.7092 74.3421 62.687 74.2635 62.687 74.1834C62.687 74.1032 62.7092 74.0246 62.7511 73.9563C62.9683 73.8378 67.6481 69 67.6481 69Z" fill="#F5F5F5"/>
    <g filter="url(#filter0_d_110_19)">
        <rect x="60.4263" y="118.357" width="40.9288" height="58.3236" rx="1" transform="rotate(-6.55484 60.4263 118.357)" fill="#EFEFEF"/>
    </g>
    <path d="M79.6433 144.497C82.4897 143.294 85.0635 141.512 87.2012 139.263C88.5243 137.874 90.0248 136.669 91.6625 135.679C92.6232 135.079 93.4522 134.286 94.0976 133.352C94.9502 131.902 95.6559 130.371 96.2037 128.783C96.4067 127.415 96.872 126.096 97.5737 124.902C98.2409 124.29 100.596 124.617 101.818 126.993C102.239 128.051 102.43 129.19 102.378 130.334C102.326 131.478 102.031 132.601 101.515 133.627C100.906 134.857 100.43 136.148 100.093 137.477L100.315 137.61C102.178 136.621 104.168 135.904 106.226 135.48C106.972 135.313 107.75 135.404 108.433 135.736C109.116 136.069 109.665 136.625 109.992 137.314C110.319 138.004 110.404 138.787 110.234 139.537C110.065 140.287 109.649 140.961 109.056 141.45C112.267 141.819 111.902 146.771 109.146 147.426C109.736 147.673 110.234 148.099 110.573 148.644C110.912 149.189 111.075 149.827 111.04 150.473C111.006 151.119 110.775 151.741 110.379 152.255C109.984 152.768 109.442 153.15 108.828 153.346C110.786 155.151 109.355 158.126 105.8 158.139C102.911 158.433 95.1864 159.642 92.4987 160.221C89.8111 160.799 84.4089 159.52 82.6736 160.057C80.0905 161.003 77.0903 161.019 74.8018 154.222C72.5134 147.425 76.9851 145.375 79.6433 144.497Z" fill="#FBBEAA"/>
    <path d="M78.5 165L25.5001 187.5C18.2763 190.873 9.74501 187.929 6.50005 179.5C5.9067 177.929 5.86657 175.36 5.94015 173.682C6.01374 172.004 6.42737 170.358 7.156 168.845C7.88464 167.332 9.23402 164.604 10.4999 163.5C11.7657 162.396 16.2765 160.359 17.8748 159.843L77.5 143.5L78.5 165Z" fill="#003399"/>
    <path d="M182.801 64.0761L183.125 63.7405L183.598 64.1971L183.944 63.8389L183.471 63.3822L183.796 63.0466L185.087 64.2942L184.763 64.6299L184.252 64.1358L183.906 64.494L184.417 64.9881L184.093 65.3238L182.801 64.0762L182.801 64.0761ZM184.952 61.8486L186.244 63.0962L185.931 63.4206L184.945 62.4687L184.74 62.6812L185.111 63.0393C185.278 63.2002 185.471 63.4087 185.5 63.609C185.541 63.8219 185.417 64.0276 185.195 64.1801L184.875 63.8708C185.086 63.7295 185.052 63.6096 184.797 63.3626L184.118 62.7076L184.95 61.8463L184.952 61.8486ZM185.223 61.5684L185.547 61.2327L186.498 61.7839L185.914 60.8529L186.238 60.5172L187.682 61.6078L187.379 61.9209L186.613 61.3314L187.13 62.1785L186.914 62.4023L186.051 61.9135L186.667 62.6589L186.364 62.972L185.223 61.5684L185.223 61.5684ZM186.509 60.237L186.833 59.9013L187.357 60.4078L187.146 59.5769L187.503 59.2074L187.732 60.2499L188.806 60.4436L188.417 60.8461L187.601 60.6413L188.126 61.1479L187.802 61.4836L186.51 60.236L186.509 60.237L186.509 60.237ZM183.732 60.3464C181.787 62.3605 181.332 64.4963 182.559 65.6816C183.775 66.8555 185.904 66.3388 187.85 64.3238C189.806 62.2985 190.237 60.1615 189.023 58.9887C187.795 57.8034 185.688 58.3201 183.732 60.3464ZM187.659 64.1391C185.832 66.031 183.857 66.566 182.744 65.4906C181.618 64.4039 182.097 62.422 183.923 60.5311C185.76 58.629 187.713 58.0908 188.839 59.1786C189.953 60.254 189.497 62.2359 187.659 64.1391ZM184.102 60.7045C182.385 62.4834 181.917 64.3251 182.927 65.3007C183.937 66.2763 185.762 65.7447 187.48 63.9657C189.197 62.1868 189.665 60.3452 188.655 59.3695C187.646 58.3929 185.821 58.9245 184.102 60.7045ZM187.442 63.9295C185.745 65.6868 183.946 66.2187 182.961 65.2679C181.977 64.3172 182.446 62.4994 184.142 60.7431C185.838 58.9867 187.639 58.4538 188.623 59.4045C189.609 60.3542 189.139 62.1721 187.442 63.9295L187.442 63.9295Z" fill="white"/>
    <defs>
        <filter id="filter0_d_110_19" x="60.5337" y="113.792" width="49.104" height="62.3995" filterUnits="userSpaceOnUse" color-interpolation-filters="sRGB">
            <feFlood flood-opacity="0" result="BackgroundImageFix"/>
            <feColorMatrix in="SourceAlpha" type="matrix" values="0 0 0 0 0 0 0 0 0 0 0 0 0 0 0 0 0 0 127 0" result="hardAlpha"/>
            <feOffset dx="2"/>
            <feComposite in2="hardAlpha" operator="out"/>
            <feColorMatrix type="matrix" values="0 0 0 0 0.603922 0 0 0 0 0.6 0 0 0 0 0.631373 0 0 0 1 0"/>
            <feBlend mode="normal" in2="BackgroundImageFix" result="effect1_dropShadow_110_19"/>
            <feBlend mode="normal" in="SourceGraphic" in2="effect1_dropShadow_110_19" result="shape"/>
        </filter>
    </defs>
</svg>
