<svg width="190" height="514" viewBox="0 0 190 514" fill="none" xmlns="http://www.w3.org/2000/svg">
<path d="M22.4469 80.4802C22.347 78.2962 22.9317 76.1355 24.1193 74.2999C25.9477 72.1799 27.3176 69.7043 28.1426 67.029C28.7772 64.5456 29.7909 62.1748 31.1479 60.0003C32.1174 58.6673 33.5716 57.5767 33.5716 56.5587C33.5716 55.5408 31.6327 53.5776 28.8697 54.1351C27.6862 54.5037 26.5988 55.1295 25.6854 55.9675C24.772 56.8055 24.0551 57.835 23.5861 58.9824C23.3213 58.2833 23.1661 57.5476 23.1256 56.8011L22.5197 41.9441C22.5105 41.5589 22.4242 41.1795 22.266 40.8283C22.1077 40.477 21.8806 40.161 21.5982 39.899C21.3158 39.6369 20.9838 39.4341 20.6217 39.3025C20.2597 39.1708 19.8749 39.1131 19.4901 39.1326C18.8776 39.1588 18.2885 39.3762 17.806 39.7544C17.3234 40.1327 16.9716 40.6526 16.7999 41.2412V40.5626C16.7066 39.8403 16.3437 39.1801 15.7838 38.7144C15.2239 38.2488 14.5086 38.0121 13.7814 38.0519C13.0543 38.0918 12.3692 38.4053 11.8636 38.9295C11.3581 39.4536 11.0695 40.1496 11.0558 40.8777V42.9378C10.813 42.3027 10.3502 41.7759 9.75151 41.4535C9.15286 41.1311 8.4583 41.0346 7.79442 41.1814C7.13053 41.3283 6.54152 41.7088 6.13474 42.2536C5.72795 42.7985 5.53048 43.4714 5.5783 44.1496V45.4583C5.31744 44.9999 4.92868 44.6274 4.45952 44.3864C3.99036 44.1453 3.46112 44.0462 2.93653 44.1011C2.21813 44.1923 1.56347 44.5595 1.11109 45.125C0.65871 45.6905 0.444134 46.4098 0.512867 47.1307L1.70044 59.661C2.47841 66.7254 3.93948 73.6978 6.06306 80.4802C6.08874 81.6127 6.3511 82.7272 6.83325 83.7522C7.31541 84.7772 8.00669 85.69 8.86268 86.4318C9.71868 87.1737 10.7205 87.7282 11.8036 88.0598C12.8867 88.3914 14.0272 88.4927 15.1518 88.3571C16.1695 88.3911 17.1826 88.2058 18.1224 87.8138C19.0622 87.4218 19.9067 86.8322 20.5986 86.0851C21.2906 85.338 21.8138 84.4508 22.1327 83.4838C22.4516 82.5167 22.5587 81.4924 22.4469 80.4802Z" fill="#FBBEAA"/>
<path d="M22.7381 82.1044L32.4327 142.962C34.0323 150.597 31.5602 157.504 22.7381 158.716C21.1096 158.928 19.455 158.807 17.8748 158.36C16.2946 157.913 14.8216 157.15 13.5455 156.116C12.2693 155.083 11.2166 153.8 10.4512 152.348C9.68575 150.895 9.22365 149.301 9.0929 147.664L6.13603 82.2255C5.36046 76.0452 8.05067 71.925 12.7526 71.416C18.5209 70.7859 21.5747 74.2032 22.7381 82.1044Z" fill="#FBBEAA"/>
<path d="M21.9627 61.0911C22.8836 61.0911 22.9563 60.5094 23.3683 59.443C21.3082 59.443 15.3218 59.8308 12.7043 64.872C15.3461 61.2365 20.4115 61.0911 21.9627 61.0911ZM17.2608 41.92C17.2608 41.92 17.4062 42.7683 17.5516 44.0043C17.5516 44.6345 17.697 45.3858 17.7455 46.1614C17.794 46.9369 17.8667 47.7852 17.9394 48.585C17.9394 50.2816 18.0605 51.9539 18.0605 53.2142C18.0605 54.4745 18.0605 55.3228 18.0605 55.3228C18.0607 55.3631 18.0525 55.4031 18.0363 55.44C18.0202 55.477 17.9966 55.5102 17.967 55.5375C17.9373 55.5649 17.9024 55.5858 17.8642 55.5989C17.8261 55.612 17.7857 55.617 17.7455 55.6136C17.6773 55.6102 17.612 55.5847 17.5596 55.541C17.5071 55.4973 17.4703 55.4378 17.4546 55.3713C17.4546 55.3713 17.3092 54.523 17.1881 53.2627C17.0669 52.0024 16.873 50.3301 16.8003 48.6577C16.8003 47.8095 16.8003 46.9612 16.8003 46.2341C16.8003 45.507 16.8003 44.7072 16.8003 44.0771C16.8003 42.7925 16.8003 41.9684 16.8003 41.9684C16.8001 41.9281 16.8083 41.8882 16.8244 41.8513C16.8406 41.8143 16.8642 41.781 16.8938 41.7537C16.9234 41.7263 16.9584 41.7055 16.9966 41.6924C17.0347 41.6793 17.0752 41.6742 17.1153 41.6776C17.1618 41.7043 17.2 41.7434 17.2256 41.7905C17.2513 41.8375 17.2634 41.8907 17.2608 41.9442V41.92ZM11.6379 43.6166C11.6379 43.6166 11.7833 44.3436 11.9529 45.41C11.9529 45.9675 12.1226 46.5976 12.1953 47.2762C12.268 47.9549 12.3407 48.682 12.4134 49.4091C12.4134 50.8633 12.5831 52.3174 12.6073 53.4081C12.6315 54.4987 12.6073 55.2501 12.6073 55.2501C12.6042 55.2883 12.5937 55.3256 12.5762 55.3597C12.5586 55.3938 12.5346 55.4242 12.5053 55.449C12.476 55.4738 12.4421 55.4925 12.4055 55.5041C12.369 55.5158 12.3305 55.52 12.2923 55.5167C12.2271 55.5122 12.1653 55.4858 12.1169 55.4418C12.0686 55.3978 12.0364 55.3388 12.0256 55.2743C12.0256 55.2743 11.8802 54.5472 11.7106 53.4808C11.5409 52.4144 11.3955 50.936 11.2743 49.506C11.2743 48.7789 11.2743 48.0518 11.1289 47.3732C10.9835 46.6946 11.1289 46.0402 11.1289 45.4827C11.1289 44.3921 11.1289 43.665 11.1289 43.665C11.1288 43.6247 11.137 43.5848 11.1531 43.5478C11.1692 43.5109 11.1928 43.4776 11.2225 43.4503C11.2521 43.4229 11.2871 43.4021 11.3252 43.389C11.3633 43.3759 11.4038 43.3708 11.444 43.3742C11.4978 43.3964 11.5443 43.433 11.5785 43.4801C11.6128 43.5271 11.6333 43.5827 11.6379 43.6407V43.6166ZM6.20889 45.919C6.20889 45.919 6.35427 46.5249 6.54816 47.4459C6.54816 47.8822 6.74209 48.4154 6.8148 48.9971C6.88751 49.5788 6.98442 50.1846 7.08137 50.7906C7.25102 52.0266 7.32379 53.2142 7.37227 54.1837C7.42074 55.1531 7.37227 55.7348 7.37227 55.7348C7.37241 55.7752 7.36411 55.815 7.34801 55.852C7.3319 55.889 7.30826 55.9222 7.27863 55.9496C7.249 55.9769 7.21403 55.9978 7.17589 56.0109C7.13776 56.024 7.09736 56.029 7.05718 56.0257C6.9953 56.0225 6.93605 55.9995 6.8881 55.9603C6.84014 55.9211 6.80595 55.8676 6.79054 55.8076C6.79054 55.8076 6.62092 55.2016 6.45127 54.3049C6.28161 53.4081 6.03922 52.1478 5.8938 50.936C5.8938 50.3058 5.7726 49.6999 5.72412 49.1182C5.67565 48.5366 5.72412 48.0034 5.72412 47.5429C5.72412 46.6219 5.72412 45.9917 5.72412 45.9917C5.72398 45.9514 5.73228 45.9115 5.74838 45.8745C5.76449 45.8376 5.78806 45.8043 5.81769 45.777C5.84732 45.7496 5.88237 45.7288 5.9205 45.7157C5.95863 45.7026 5.99903 45.6975 6.03921 45.7009C6.08395 45.7258 6.12248 45.7606 6.15186 45.8026C6.18124 45.8445 6.20074 45.8927 6.20889 45.9432V45.919Z" fill="#F18380"/>
<path d="M23.8468 79.1281L24.445 85.7971L4.79454 88.8202L4.79454 81.6402L23.8468 79.1281Z" fill="#023783"/>
<path d="M121.111 19.2233C120.053 15.4057 120.442 11.3316 122.204 7.78347C123.966 4.23534 126.977 1.46339 130.659 0C132.122 1.46292 131.378 6.134 131.378 6.134C136.547 3.71164 142.344 2.96679 147.957 4.00378C147.856 7.59283 146.503 11.0335 144.133 13.7309C147.005 14.0204 149.767 14.988 152.192 16.5541C151.824 18.2457 151.06 19.8258 149.963 21.1643C148.865 22.5029 147.465 23.5617 145.878 24.2537C147.494 26.1452 148.606 28.4139 149.112 30.8497C146.355 31.6447 143.443 31.733 140.643 31.1063C141.095 32.5228 141.278 34.0113 141.182 35.4951C138.523 35.8854 135.811 35.6853 133.238 34.909C130.665 34.1327 128.295 32.7994 126.296 31.0037C123.644 27.5517 121.866 23.5103 121.111 19.2233Z" fill="#E69D7E"/>
<path d="M136.973 33.0829C137.383 39.7302 141.567 49.8166 140.463 58.2605C138.923 70.1692 124.191 70.0409 118.494 70.0409H110.05V33.0829H136.973Z" fill="#E69D7E"/>
<path d="M124.037 56.3608V78.1507C124.037 78.1507 122.318 85.6449 110.82 85.6449C108.532 85.8379 106.257 85.1475 104.462 83.7156C102.668 82.2836 101.489 80.2189 101.17 77.9453V56.3865L124.037 56.3608Z" fill="#FBBEAA"/>
<path d="M101.17 74.5062C108.382 77.9453 118.93 74.8655 124.037 65.4207V56.3608H101.17V74.5062Z" fill="#F18380"/>
<path d="M86.8483 39.6268C86.7541 44.8383 86.9941 50.0505 87.5669 55.2313C88.4909 62.6486 91.1344 70.8615 104.224 70.8615C117.313 70.8615 124.012 64.9328 126.809 55.2313C128.503 49.3796 131.942 40.7048 130.531 30.6953C129.119 20.6859 123.088 14.1412 108.869 13.7562C94.6506 13.3713 85.3854 19.7619 86.8483 39.6268Z" fill="#FBBEAA"/>
<path d="M114.592 44.0928C114.505 44.4795 114.311 44.8338 114.031 45.1149C113.752 45.396 113.398 45.5924 113.012 45.6815C112.626 45.7706 112.222 45.7488 111.848 45.6186C111.473 45.4884 111.143 45.2551 110.896 44.9455C110.648 44.6359 110.493 44.2627 110.448 43.8689C110.403 43.475 110.47 43.0764 110.642 42.7191C110.814 42.3618 111.083 42.0603 111.419 41.8493C111.754 41.6382 112.143 41.5262 112.539 41.5262C112.843 41.5581 113.138 41.6501 113.406 41.7967C113.674 41.9434 113.911 42.1418 114.102 42.3806C114.293 42.6193 114.435 42.8936 114.519 43.1875C114.603 43.4814 114.628 43.7891 114.592 44.0928Z" fill="#403D4F"/>
<path d="M95.5233 44.0928C95.4362 44.4795 95.2417 44.8338 94.9622 45.1149C94.6826 45.396 94.3293 45.5924 93.9431 45.6815C93.5568 45.7706 93.1532 45.7488 92.7788 45.6186C92.4043 45.4884 92.0743 45.2551 91.8266 44.9455C91.579 44.6359 91.4238 44.2627 91.379 43.8689C91.3341 43.475 91.4014 43.0764 91.5732 42.7191C91.7449 42.3618 92.0141 42.0603 92.3496 41.8493C92.6852 41.6382 93.0736 41.5262 93.47 41.5262C93.7741 41.5581 94.0688 41.6501 94.3371 41.7967C94.6053 41.9434 94.8418 42.1418 95.0328 42.3806C95.2238 42.6193 95.3655 42.8936 95.4497 43.1875C95.5339 43.4814 95.5589 43.7891 95.5233 44.0928Z" fill="#403D4F"/>
<path d="M108.381 36.8296C108.381 36.8296 108.381 36.8296 108.612 36.5986C108.818 36.414 109.041 36.2506 109.28 36.111C109.598 35.9151 109.944 35.7681 110.306 35.6747C110.71 35.5253 111.134 35.4387 111.564 35.418C111.981 35.3664 112.404 35.3664 112.821 35.418C113.175 35.4291 113.527 35.4721 113.874 35.5463L114.875 35.8286C115.04 35.8819 115.178 35.9974 115.259 36.1508C115.341 36.3041 115.359 36.4832 115.311 36.6499C115.272 36.7832 115.191 36.9003 115.08 36.9836C114.969 37.0669 114.834 37.1119 114.695 37.1119H113.694C113.396 37.0735 113.094 37.0735 112.796 37.1119C112.454 37.0864 112.111 37.0864 111.769 37.1119C111.435 37.1119 111.102 37.1119 110.794 37.2916C110.486 37.4712 110.229 37.4969 109.973 37.5225L109.434 37.7022H109.203C109.042 37.7719 108.861 37.7759 108.698 37.7136C108.535 37.6512 108.403 37.5273 108.33 37.3686C108.285 37.2813 108.261 37.1845 108.261 37.0862C108.261 36.988 108.285 36.8912 108.33 36.8039L108.381 36.8296Z" fill="#403D4F"/>
<path d="M95.9082 37.8048H95.7542L95.3435 37.6508H95.0612H94.7789C94.5521 37.5758 94.3206 37.5158 94.0859 37.4712C93.8479 37.4332 93.6053 37.4332 93.3673 37.4712C93.1465 37.4328 92.9208 37.4328 92.7 37.4712H91.8787C91.7062 37.4645 91.543 37.3913 91.4234 37.2669C91.3037 37.1424 91.237 36.9765 91.2371 36.8039C91.242 36.6765 91.2833 36.5533 91.3561 36.4487C91.4288 36.3441 91.5301 36.2625 91.6477 36.2136L92.4433 35.9312C92.7336 35.8364 93.0363 35.7845 93.3416 35.7772C93.6819 35.7263 94.0279 35.7263 94.3682 35.7772C95.0424 35.8448 95.6833 36.103 96.2161 36.5215C96.4095 36.65 96.5753 36.8158 96.7038 37.0092C96.8321 37.1632 96.8321 37.2145 96.8578 37.2145V37.4712C96.8719 37.592 96.8528 37.7145 96.8024 37.8252C96.752 37.936 96.6723 38.0309 96.5718 38.0996C96.4714 38.1683 96.3541 38.2083 96.2326 38.2151C96.1111 38.222 95.99 38.1955 95.8825 38.1385L95.9082 37.8048Z" fill="#403D4F"/>
<path d="M101.169 52.8189C100.739 52.8289 100.311 52.7444 99.9164 52.5715C99.5218 52.3986 99.1698 52.1414 98.8852 51.8179C98.7739 51.7076 98.6867 51.5754 98.6293 51.4296C98.5718 51.2838 98.5454 51.1276 98.5516 50.971C98.5516 50.6887 99.0136 47.1469 99.1676 45.8379C99.1676 45.7086 99.2189 45.5846 99.3104 45.4931C99.4018 45.4017 99.5259 45.3503 99.6552 45.3503C99.7845 45.3503 99.9085 45.4017 100 45.4931C100.091 45.5846 100.143 45.7086 100.143 45.8379C100.143 46.0432 99.6039 50.6887 99.5269 50.971C99.74 51.1997 99.9984 51.3817 100.286 51.5054C100.573 51.6291 100.882 51.6918 101.195 51.6896C101.324 51.6896 101.448 51.741 101.54 51.8324C101.631 51.9239 101.683 52.0479 101.683 52.1773C101.683 52.3066 101.631 52.4306 101.54 52.5221C101.448 52.6135 101.324 52.6649 101.195 52.6649L101.169 52.8189Z" fill="#F18380"/>
<path d="M98.7568 57.875C97.7815 58.1317 97.4479 59.5689 98.0125 61.2372C98.6029 62.3847 99.5606 63.3015 100.733 63.8411C101.905 64.3807 103.224 64.5121 104.48 64.2143C105.161 64.1785 105.829 64.0073 106.443 63.7106C107.058 63.4139 107.607 62.9976 108.058 62.4863C108.51 61.9749 108.855 61.3786 109.074 60.7322C109.292 60.0859 109.38 59.4025 109.331 58.722C109.331 57.6184 108.587 56.951 107.149 56.951C104.331 57.0249 101.524 57.3339 98.7568 57.875Z" fill="#73102A"/>
<path d="M109.383 58.7219C109.383 58.7219 109.383 58.5679 109.383 58.4653C107.5 58.0239 105.521 58.3069 103.838 59.2579C102.154 60.2089 100.891 61.7583 100.297 63.5983C101.625 64.249 103.12 64.4817 104.583 64.2656C105.265 64.2235 105.931 64.0459 106.543 63.743C107.155 63.4402 107.701 63.0183 108.148 62.5021C108.595 61.9858 108.934 61.3855 109.146 60.7365C109.358 60.0874 109.439 59.4025 109.383 58.7219Z" fill="#D65155"/>
<path d="M99.6296 59.4408C102.872 59.4674 106.097 58.9646 109.177 57.9523C108.988 57.6047 108.698 57.3228 108.345 57.144C107.992 56.9652 107.593 56.898 107.201 56.9513C104.382 57.0251 101.575 57.3342 98.8083 57.8752C98.54 57.9655 98.3042 58.133 98.1307 58.3567C97.9572 58.5805 97.8536 58.8505 97.833 59.1329C98.4087 59.3419 99.0171 59.4462 99.6296 59.4408Z" fill="white"/>
<path d="M112.231 27.513C112.231 27.513 116.774 43.2202 127.631 47.3523C128.891 47.3679 130.137 47.0799 131.263 46.5126C132.388 45.9453 133.361 45.1153 134.098 44.0928C136.982 38.028 137.793 31.1838 136.408 24.6128C134.586 16.6053 124.961 6.28783 107.406 8.70037C98.0385 6.9038 86.8741 8.54638 79.8931 18.0169C72.9121 27.4874 81.2277 40.6023 86.8484 42.7838C92.3768 39.4553 97.6757 35.7598 102.71 31.7221C101.94 34.1347 101.118 39.242 101.94 39.242C106.684 36.7159 110.343 32.5454 112.231 27.513Z" fill="#E69D7E"/>
<path d="M126.296 49.2516C126.501 45.7611 127.451 41.552 131.686 42.2963C136.819 43.0406 137.178 56.5149 126.553 54.8979L126.296 49.2516Z" fill="#FBBEAA"/>
<path d="M132.122 50.1501C132.034 50.1463 131.948 50.1209 131.872 50.0762C131.796 50.0314 131.732 49.9687 131.686 49.8934C131.579 49.6664 131.413 49.4725 131.205 49.3324C130.997 49.1923 130.755 49.1112 130.505 49.0978C130.212 49.1008 129.924 49.1776 129.669 49.3211C129.413 49.4647 129.197 49.6703 129.042 49.9191C128.985 50.0114 128.898 50.0818 128.795 50.119C128.693 50.1562 128.581 50.1581 128.478 50.1244C128.379 50.0818 128.296 50.0094 128.241 49.9173C128.186 49.8252 128.161 49.7181 128.17 49.6111C128.203 48.5288 128.534 47.4768 129.128 46.571C129.721 45.6652 130.553 44.9409 131.532 44.4781C131.593 44.4538 131.659 44.4424 131.725 44.4445C131.792 44.4466 131.857 44.4621 131.917 44.4902C131.977 44.5182 132.03 44.5582 132.074 44.6076C132.118 44.657 132.152 44.7149 132.173 44.7777C132.194 44.8405 132.202 44.9069 132.196 44.9729C132.19 45.0388 132.172 45.103 132.14 45.1614C132.109 45.2198 132.066 45.2713 132.015 45.3126C131.963 45.354 131.904 45.3844 131.84 45.402C131.267 45.6839 130.757 46.0796 130.343 46.565C129.928 47.0504 129.616 47.6153 129.427 48.2252C129.784 48.0727 130.168 47.9942 130.556 47.9942C130.971 48.0335 131.37 48.1731 131.719 48.4012C132.068 48.6293 132.356 48.9388 132.558 49.3031C132.591 49.3587 132.611 49.4201 132.62 49.4837C132.628 49.5474 132.624 49.6121 132.607 49.6741C132.59 49.7361 132.562 49.7942 132.522 49.845C132.483 49.8959 132.434 49.9385 132.379 49.9704C132.315 50.0569 132.225 50.1201 132.122 50.1501Z" fill="#F18380"/>
<path d="M104.124 476.021C104.124 473.688 103.197 471.45 101.548 469.8C99.8976 468.15 97.6598 467.223 95.3265 467.223C92.9932 467.223 90.7554 468.15 89.1055 469.8C87.4555 471.45 86.5286 473.688 86.5286 476.021V495.144H104.124V476.021Z" fill="#FBBEAA"/>
<path d="M87.1578 479.584C85.0007 479.584 84.6129 480.529 83.9828 481.765C82.9607 485.059 81.2133 488.082 78.8689 490.612C75.3689 493.593 71.6139 496.261 67.6473 498.585V508.716H106.814C106.814 508.716 106.547 500.718 106.353 495.071C106.159 489.424 105.602 482.541 105.65 481.814C105.699 481.087 105.65 479.584 104.317 479.584H87.1578Z" fill="#302D3B"/>
<path d="M101.943 495.628C101.948 496.872 101.583 498.089 100.895 499.125C100.207 500.161 99.2273 500.969 98.0793 501.447C96.9313 501.925 95.6671 502.052 94.4472 501.81C93.2273 501.569 92.1066 500.97 91.2273 500.091C90.3479 499.212 89.7496 498.091 89.5081 496.871C89.2667 495.651 89.393 494.387 89.8711 493.239C90.3492 492.091 91.1576 491.111 92.1936 490.423C93.2296 489.735 94.4465 489.37 95.6901 489.375C97.3466 489.381 98.9334 490.042 100.105 491.214C101.276 492.385 101.937 493.972 101.943 495.628Z" fill="#93929C"/>
<path d="M95.6893 491.944L97.1192 494.053L99.5671 494.756L98.016 496.767L98.0887 499.312L95.6893 498.44L93.2898 499.312L93.3868 496.767L91.8114 494.756L94.2593 494.053L95.6893 491.944Z" fill="white"/>
<path d="M67.9152 498.416C67.9152 498.416 62.365 501.349 60.2807 502.779C59.3157 503.432 58.5319 504.32 58.0021 505.358C57.4724 506.396 57.2141 507.552 57.2511 508.717H72.4717C72.4717 508.717 72.1566 501.276 67.9152 498.416Z" fill="white"/>
<path d="M106.814 508.716V512.909C106.814 513.612 106.183 514 105.117 514H58.9222C57.88 514 57.2498 513.612 57.2498 512.909V508.716H106.814Z" fill="white"/>
<path d="M72.4715 495.58C72.3373 495.374 72.1281 495.228 71.8883 495.174C71.6484 495.12 71.3969 495.161 71.187 495.289C71.0825 495.353 70.9919 495.438 70.9205 495.538C70.8491 495.638 70.7984 495.751 70.7713 495.87C70.7442 495.99 70.7413 496.114 70.7627 496.235C70.7842 496.355 70.8296 496.471 70.8962 496.574L72.52 499.191C72.5982 499.327 72.7116 499.439 72.848 499.516C72.9845 499.592 73.1391 499.631 73.2956 499.628C73.4751 499.625 73.6507 499.575 73.8045 499.482C73.909 499.418 73.9996 499.333 74.071 499.234C74.1424 499.134 74.1932 499.021 74.2203 498.901C74.2474 498.781 74.2502 498.658 74.2288 498.537C74.2073 498.416 74.162 498.301 74.0954 498.198L72.4715 495.58Z" fill="white"/>
<path d="M75.3312 493.568C75.2516 493.476 75.1547 493.4 75.0458 493.345C74.937 493.29 74.8184 493.258 74.6969 493.249C74.5754 493.24 74.4533 493.255 74.3376 493.293C74.2218 493.331 74.1148 493.392 74.0225 493.471C73.9302 493.551 73.8544 493.648 73.7996 493.757C73.7448 493.865 73.7119 493.984 73.7029 494.106C73.6939 494.227 73.7089 494.349 73.7471 494.465C73.7853 494.581 73.8459 494.688 73.9255 494.78L75.816 497.01C75.9032 497.112 76.0107 497.195 76.1317 497.253C76.2527 497.312 76.3846 497.344 76.5188 497.349C76.6944 497.346 76.8656 497.294 77.0131 497.198C77.1607 497.103 77.2789 496.969 77.3544 496.81C77.4299 496.652 77.4597 496.475 77.4406 496.301C77.4214 496.126 77.354 495.961 77.2459 495.822L75.3312 493.568Z" fill="white"/>
<path d="M78.0211 491.315C77.8283 491.19 77.5969 491.14 77.37 491.174C77.1431 491.208 76.9362 491.323 76.7879 491.498C76.6396 491.673 76.56 491.896 76.5639 492.125C76.5679 492.355 76.6551 492.575 76.8093 492.745L78.9663 494.611C79.1354 494.754 79.3506 494.831 79.5722 494.829C79.7056 494.834 79.8384 494.808 79.9603 494.753C80.0821 494.698 80.1898 494.617 80.2751 494.514C80.3646 494.43 80.436 494.329 80.4848 494.216C80.5335 494.103 80.5587 493.982 80.5587 493.859C80.5587 493.737 80.5335 493.615 80.4848 493.503C80.436 493.39 80.3646 493.289 80.2751 493.205L78.0211 491.315Z" fill="white"/>
<path d="M82.748 490.199L80.3243 488.697C80.1115 488.571 79.858 488.533 79.6178 488.592C79.3777 488.651 79.1702 488.802 79.0398 489.012C78.9742 489.116 78.9303 489.233 78.9107 489.355C78.891 489.477 78.8961 489.601 78.9254 489.721C78.9548 489.841 79.008 489.953 79.0817 490.052C79.1555 490.151 79.2484 490.234 79.3549 490.296L81.7785 491.799C81.9222 491.894 82.0909 491.945 82.2633 491.944C82.4212 491.941 82.5755 491.896 82.7113 491.816C82.8471 491.735 82.9599 491.621 83.0388 491.484C83.1669 491.274 83.2083 491.023 83.154 490.783C83.0997 490.543 82.954 490.334 82.748 490.199Z" fill="white"/>
<path d="M84.7845 487.073L82.07 485.934C81.8386 485.838 81.5784 485.837 81.3466 485.933C81.1148 486.028 80.9304 486.212 80.834 486.443C80.7867 486.556 80.7623 486.677 80.7623 486.8C80.7624 486.922 80.7869 487.043 80.8342 487.156C80.8816 487.269 80.951 487.371 81.0384 487.457C81.1257 487.542 81.2293 487.61 81.343 487.655L84.0574 488.794H84.421C84.6301 488.783 84.8296 488.703 84.9881 488.566C85.1466 488.429 85.2551 488.243 85.2967 488.038C85.3383 487.833 85.3106 487.62 85.2179 487.432C85.1252 487.244 84.9727 487.092 84.7845 487.001V487.073Z" fill="white"/>
<path d="M86.4802 483.583L83.4748 482.831C83.237 482.774 82.9859 482.813 82.7768 482.94C82.5678 483.067 82.4178 483.272 82.3599 483.51C82.3021 483.748 82.3411 483.999 82.4683 484.208C82.5956 484.417 82.8007 484.567 83.0385 484.625L86.0197 485.401H86.2378C86.4465 485.398 86.6489 485.328 86.8148 485.202C86.9808 485.075 87.1014 484.898 87.1588 484.698C87.2107 484.46 87.1692 484.212 87.0428 484.004C86.9164 483.797 86.7149 483.646 86.4802 483.583Z" fill="white"/>
<path d="M116.994 353.723C116.727 341.993 108.826 336.322 97.1198 336.612C85.4135 336.903 76.9791 343.035 77.2458 354.741L86.5283 476.966H104.124L116.994 353.723Z" fill="#FBBEAA"/>
<path d="M178.289 476.021C178.289 473.688 177.362 471.45 175.712 469.8C174.062 468.15 171.824 467.223 169.491 467.223C167.158 467.223 164.92 468.15 163.27 469.8C161.62 471.45 160.693 473.688 160.693 476.021V495.144H178.289V476.021Z" fill="#FBBEAA"/>
<path d="M161.348 479.584C159.166 479.584 158.779 480.529 158.173 481.765C157.139 485.059 155.384 488.081 153.034 490.612C149.539 493.599 145.784 496.267 141.813 498.585V508.716H180.979C180.979 508.716 180.713 500.718 180.519 495.071C180.325 489.424 179.792 482.541 179.816 481.814C179.84 481.087 179.816 479.584 178.507 479.584H161.348Z" fill="#302D3B"/>
<path d="M176.131 495.628C176.136 496.871 175.772 498.087 175.085 499.122C174.398 500.158 173.42 500.966 172.273 501.445C171.126 501.924 169.863 502.051 168.644 501.812C167.425 501.572 166.304 500.977 165.424 500.1C164.544 499.223 163.943 498.104 163.699 496.886C163.455 495.668 163.578 494.404 164.052 493.256C164.527 492.107 165.331 491.125 166.364 490.435C167.397 489.744 168.611 489.375 169.854 489.375C171.515 489.375 173.108 490.033 174.284 491.205C175.461 492.377 176.125 493.967 176.131 495.628Z" fill="#93929C"/>
<path d="M169.878 491.944L171.308 494.053L173.756 494.756L172.181 496.767L172.253 499.312L169.878 498.44L167.479 499.312L167.551 496.767L165.976 494.756L168.448 494.053L169.878 491.944Z" fill="white"/>
<path d="M142.104 498.416C142.104 498.416 136.53 501.349 134.47 502.779C133.5 503.427 132.712 504.314 132.182 505.353C131.651 506.393 131.396 507.55 131.44 508.717H146.733C146.733 508.717 146.321 501.276 142.104 498.416Z" fill="white"/>
<path d="M180.979 508.716V512.909C180.979 513.612 180.373 514 179.307 514H133.064C131.997 514 131.391 513.612 131.391 512.909V508.716H180.979Z" fill="white"/>
<path d="M146.635 495.58C146.503 495.371 146.294 495.223 146.053 495.168C145.812 495.114 145.559 495.157 145.35 495.289C145.142 495.421 144.994 495.63 144.939 495.871C144.884 496.112 144.928 496.365 145.06 496.574L146.683 499.191C146.767 499.327 146.885 499.439 147.026 499.515C147.166 499.592 147.324 499.63 147.483 499.628C147.656 499.628 147.824 499.577 147.968 499.482C148.072 499.418 148.163 499.333 148.234 499.233C148.306 499.134 148.357 499.021 148.384 498.901C148.411 498.781 148.414 498.657 148.392 498.537C148.371 498.416 148.325 498.301 148.259 498.198L146.635 495.58Z" fill="white"/>
<path d="M149.52 493.568C149.36 493.382 149.134 493.266 148.89 493.243C148.646 493.22 148.403 493.294 148.211 493.447C148.024 493.611 147.906 493.841 147.884 494.089C147.861 494.338 147.935 494.585 148.09 494.78L150.005 497.01C150.089 497.116 150.196 497.201 150.317 497.26C150.439 497.319 150.573 497.349 150.708 497.349C150.885 497.351 151.06 497.301 151.21 497.206C151.36 497.111 151.479 496.975 151.554 496.813C151.628 496.652 151.654 496.472 151.629 496.297C151.603 496.121 151.528 495.956 151.411 495.822L149.52 493.568Z" fill="white"/>
<path d="M152.186 491.315C151.993 491.19 151.761 491.14 151.534 491.174C151.308 491.208 151.101 491.323 150.952 491.498C150.804 491.673 150.724 491.896 150.728 492.125C150.732 492.355 150.819 492.575 150.974 492.745L153.155 494.611C153.324 494.754 153.539 494.831 153.761 494.829C153.894 494.832 154.026 494.805 154.148 494.751C154.269 494.696 154.377 494.615 154.464 494.514C154.55 494.428 154.619 494.326 154.666 494.214C154.713 494.102 154.737 493.981 154.737 493.859C154.737 493.738 154.713 493.617 154.666 493.505C154.619 493.393 154.55 493.291 154.464 493.205L152.186 491.315Z" fill="white"/>
<path d="M156.911 490.199L154.487 488.697C154.278 488.609 154.044 488.599 153.828 488.668C153.612 488.738 153.429 488.884 153.311 489.078C153.194 489.272 153.15 489.502 153.188 489.725C153.225 489.949 153.343 490.152 153.518 490.296L155.941 491.799C156.085 491.894 156.254 491.945 156.426 491.944C156.588 491.942 156.746 491.899 156.886 491.819C157.026 491.738 157.143 491.623 157.226 491.484C157.352 491.271 157.389 491.018 157.33 490.777C157.271 490.537 157.121 490.33 156.911 490.199Z" fill="white"/>
<path d="M158.947 487.073L156.233 485.934C156.12 485.887 155.999 485.863 155.877 485.863C155.754 485.863 155.633 485.887 155.52 485.934C155.407 485.982 155.305 486.051 155.22 486.139C155.134 486.226 155.066 486.33 155.021 486.443C154.931 486.669 154.93 486.921 155.021 487.146C155.111 487.372 155.285 487.554 155.506 487.655L158.245 488.794C158.356 488.819 158.472 488.819 158.584 488.794C158.771 488.794 158.953 488.739 159.108 488.635C159.264 488.532 159.385 488.385 159.456 488.213C159.53 487.993 159.519 487.755 159.424 487.544C159.33 487.333 159.16 487.165 158.947 487.073Z" fill="white"/>
<path d="M160.644 483.583L157.663 482.832C157.422 482.773 157.167 482.811 156.954 482.938C156.741 483.065 156.587 483.27 156.524 483.51C156.495 483.628 156.489 483.75 156.508 483.87C156.526 483.99 156.568 484.105 156.631 484.209C156.695 484.312 156.777 484.402 156.875 484.474C156.973 484.545 157.084 484.597 157.202 484.625L160.183 485.401H160.426C160.644 485.384 160.85 485.292 161.008 485.14C161.166 484.989 161.267 484.787 161.292 484.57C161.318 484.352 161.267 484.132 161.149 483.948C161.031 483.764 160.852 483.626 160.644 483.559V483.583Z" fill="white"/>
<path d="M168.666 353.36C167.475 347.858 164.149 343.055 159.418 340.005C154.686 336.955 148.938 335.909 143.436 337.097C131.972 339.521 125.791 350.815 128.264 362.279L160.692 478.978H178.506L168.666 353.36Z" fill="#FBBEAA"/>
<path d="M118.522 352.961C118.457 350.176 117.844 347.431 116.717 344.883C115.591 342.335 113.975 340.034 111.959 338.111C109.944 336.187 107.569 334.68 104.971 333.675C102.374 332.669 99.603 332.185 96.8181 332.251C94.0332 332.316 91.2883 332.929 88.7403 334.055C86.1923 335.181 83.8911 336.798 81.9679 338.813C80.0448 340.829 78.5376 343.203 77.5321 345.801C76.5266 348.399 76.0427 351.169 76.1079 353.954L70.6053 479.598H118.521L118.522 352.961Z" fill="#93929C"/>
<path d="M168.663 350.367C167.348 344.998 163.99 340.353 159.304 337.421C154.618 334.489 148.973 333.5 143.569 334.664C138.165 335.829 133.428 339.056 130.366 343.658C127.304 348.261 126.157 353.876 127.171 359.311L140.064 479.109C140.064 479.109 170.941 480.951 189.337 479.109L168.663 350.367Z" fill="#93929C"/>
<path d="M14.8606 136.225L84.468 83.3403C92.5872 78.1537 98.1131 80.9167 102.427 86.4668C104.397 89.1532 105.311 92.4703 104.994 95.7865C104.676 99.1027 103.15 102.186 100.706 104.45L31.2687 155.614C28.8217 157.68 25.6717 158.723 22.4749 158.524C19.2782 158.326 16.2815 156.901 14.1092 154.547L13.7941 154.208C12.6412 152.978 11.751 151.526 11.1778 149.941C10.6046 148.355 10.3604 146.67 10.4602 144.987C10.56 143.304 11.0017 141.659 11.7582 140.153C12.5148 138.646 13.5704 137.31 14.8606 136.225Z" fill="#FBBEAA"/>
<path d="M100.707 104.426C101.349 103.873 101.934 103.256 102.452 102.584C102.909 100.859 102.968 99.0528 102.624 97.3017C102.28 95.5505 101.541 93.9009 100.464 92.4776C96.8045 86.8305 89.1215 82.3952 85.7042 83.2435L82.3111 84.9643L43.8961 114.048C47.296 122.038 51.8886 129.467 57.517 136.079L100.707 104.426Z" fill="#F18380"/>
<path d="M90.2128 79.5592L29.9762 120.185C30.2296 122.263 23.552 79.5592 23.552 79.5592L4.65732 82.0182C4.65732 82.0182 5.04186 125.14 7.86256 148.025C8.98862 157.161 16.523 160.649 25.5167 158.687C29.9572 157.718 34.1375 155.896 37.8576 153.285C53.8427 142.065 98.6887 110.462 102.355 106.486C108.681 99.6272 108.681 94.489 105.046 88.8419C101.41 83.1948 93.6302 78.7109 90.2128 79.5592Z" fill="#90A2B7"/>
<path d="M118.521 353.651L130.954 223.476C130.954 209.104 116.146 193.447 94.3084 196.816C74.5799 199.894 68.5692 219.72 70.193 238.503C71.8169 257.286 76.2037 354.572 76.2037 354.572C76.2689 357.357 76.8821 360.102 78.0081 362.65C79.1342 365.198 80.751 367.499 82.7664 369.422C84.7818 371.345 87.1562 372.852 89.7542 373.858C92.3521 374.863 95.1226 375.347 97.9075 375.282C100.692 375.217 103.437 374.604 105.985 373.478C108.533 372.351 110.835 370.735 112.758 368.719C114.681 366.704 116.188 364.329 117.194 361.731C118.199 359.134 118.683 356.363 118.618 353.578L118.521 353.651Z" fill="#93929C"/>
<path d="M168.666 351.057L156.306 220.907C153.688 206.777 136.117 194.247 115.298 201.663C96.5142 208.377 94.333 228.978 99.4711 247.131C104.609 265.284 127.174 360.001 127.174 360.001C128.489 365.37 131.847 370.015 136.533 372.947C141.219 375.879 146.864 376.868 152.268 375.703C157.672 374.539 162.409 371.312 165.471 366.71C168.533 362.107 169.68 356.492 168.666 351.057Z" fill="#93929C"/>
<path d="M99.4708 247.131C104.585 265.285 127.173 360.001 127.173 360.001" stroke="#5E5D63" stroke-width="0.75" stroke-miterlimit="10"/>
<path d="M103.106 77.4989C103.106 77.4989 92.3931 79.3651 90.3087 79.9226C89.0787 80.2112 87.942 80.8074 87.0052 81.6552C86.0684 82.503 85.3621 83.5746 84.9525 84.7699C83.6195 87.9449 76.7606 108.74 76.1304 110.994C75.7043 113.477 76.1045 116.031 77.2695 118.265C78.2632 120.979 83.4014 133.34 83.4014 133.34L84.1769 173.161L113.114 177.75L140.842 173.161C140.842 173.161 150.537 99.0937 151.021 94.513C151.506 89.9323 149.228 81.086 143.75 79.9711C138.273 78.8562 123.246 77.5474 123.246 77.5474L103.106 77.4989Z" fill="#FBBEAA"/>
<path d="M82.7771 157.392V173.359C101.668 175.349 131.769 173.939 143.075 173.359C143.606 168.798 144.162 161.058 144.742 155.917C129.353 156.359 103.939 158 82.7771 157.392Z" fill="white"/>
<path d="M97.5529 102.699H96.681V103.827H95.7506V102.699H94.8787V105.781H95.7506V104.56H96.6811V105.781H97.553V102.699H97.5529ZM91.7674 102.699V105.781H92.6099V103.429H93.1618V104.314C93.1618 104.711 93.1912 105.198 93.4232 105.473C93.6551 105.778 94.0923 105.87 94.5856 105.778V105.014C94.1215 105.106 94.0042 104.921 94.0042 104.311V102.693H91.7674V102.699ZM91.0395 102.699H90.1676L89.6745 104.53L89.1813 102.699H88.3094L87.9015 105.781H88.7147L88.9173 104.132L89.384 105.781H89.9652L90.4291 104.132L90.6317 105.781H91.4448L91.0397 102.699L91.0395 102.699ZM87.5817 102.699H86.7098V103.95L85.8673 102.699H84.9075L86.0112 104.224L84.878 105.781H85.9232L86.707 104.53V105.781H87.5789V102.699H87.5815H87.5817ZM91.3329 99.4013C96.5638 99.4013 100.024 101.386 100.024 104.314C100.024 107.214 96.5664 109.227 91.3329 109.227C86.0726 109.227 82.6413 107.211 82.6413 104.314C82.6413 101.386 86.07 99.4013 91.3329 99.4013ZM91.3329 108.77C96.2465 108.77 99.5285 106.97 99.5285 104.314C99.5285 101.629 96.2438 99.8576 91.3329 99.8576C86.3925 99.8576 83.1346 101.627 83.1346 104.314C83.1346 106.97 86.3899 108.77 91.3329 108.77ZM91.3329 100.286C95.9532 100.286 99.0352 101.904 99.0352 104.314C99.0352 106.724 95.9532 108.342 91.3329 108.342C86.7125 108.342 83.6305 106.724 83.6305 104.314C83.6278 101.904 86.7098 100.286 91.3329 100.286ZM91.3329 108.252C95.8972 108.252 98.9472 106.665 98.9472 104.317C98.9472 101.968 95.8946 100.381 91.3329 100.381C86.7711 100.381 83.7185 101.968 83.7185 104.317C83.7158 106.665 86.7685 108.253 91.3329 108.253V108.252Z" fill="white"/>
<path d="M182.771 169.598L151.724 87.8965C147.58 79.1713 141.448 78.5896 134.758 81.0133C131.664 82.2474 129.134 84.5782 127.649 87.5602C126.165 90.5423 125.831 93.9666 126.712 97.1791L158.68 177.426C159.649 180.479 161.763 183.038 164.578 184.566C167.394 186.093 170.692 186.47 173.779 185.618L174.24 185.497C175.869 185.053 177.39 184.281 178.711 183.23C180.031 182.178 181.124 180.869 181.922 179.381C182.721 177.893 183.208 176.259 183.354 174.577C183.499 172.895 183.301 171.201 182.771 169.598Z" fill="#FBBEAA"/>
<path d="M169.902 135.715L151.725 87.8964C151.237 86.8477 150.662 85.8423 150.004 84.891C147.778 83.497 145.229 82.702 142.604 82.5831C139.98 82.4642 137.369 83.0254 135.026 84.2124C132.305 85.5367 130.117 87.7506 128.826 90.4877C127.534 93.2248 127.216 96.3209 127.925 99.2633C127.925 99.5542 128.094 100.112 128.24 100.863L146.999 148.003C155.193 145.048 162.909 140.908 169.902 135.715Z" fill="#F18380"/>
<path d="M150.029 83.5342L184.535 173.091C156.193 164.021 159.515 138.754 144.1 141.347C144.1 141.347 126.325 99.6272 125.647 95.8948C124.938 92.9524 125.256 89.8563 126.548 87.1192C127.839 84.3821 130.027 82.1681 132.748 80.8439C140.334 76.966 147.896 80.4804 150.029 83.5342Z" fill="#90A2B7"/>
<path d="M120.532 131.231L159.116 179.293C163.697 185.594 170.483 188.406 177.245 182.734C178.496 181.671 179.518 180.366 180.248 178.896C180.979 177.427 181.404 175.824 181.497 174.186C181.59 172.547 181.349 170.907 180.789 169.364C180.229 167.821 179.361 166.408 178.239 165.211L131.753 119.162C127.706 114.435 122.834 113.684 119.296 116.738C115.006 120.543 115.515 125.003 120.532 131.231Z" fill="#FBBEAA"/>
<path d="M134.083 121.682C129.793 117.344 121.77 107.989 119.056 105.71C116.372 103.688 113.44 102.018 110.331 100.742C107.972 99.9517 105.534 99.4234 103.06 99.1664C101.339 98.9483 100.636 99.4573 100.636 100.499C100.679 101.12 100.877 101.72 101.212 102.245C101.546 102.77 102.006 103.203 102.551 103.505H99.3759C98.2852 103.505 97.5824 104.377 98.0913 105.783C98.5536 106.712 99.2144 107.527 100.027 108.172C100.839 108.817 101.784 109.276 102.793 109.515C102.793 109.515 98.5034 109.927 97.4127 110.146C96.3221 110.364 95.9828 110.776 95.9828 111.818C95.9922 112.538 96.1922 113.242 96.5627 113.86C96.9331 114.477 97.4606 114.985 98.0913 115.332C99.6353 115.959 101.274 116.319 102.939 116.399C102.939 116.399 97.6308 117.732 96.5644 118.119C95.498 118.507 95.3768 119.21 95.9343 120.131C96.2519 120.78 96.7106 121.349 97.2767 121.798C97.8428 122.247 98.5021 122.563 99.2062 122.724C101.218 123.258 102.575 122.385 103.302 122.506C104.864 123.01 106.394 123.608 107.883 124.3C110.118 126.525 112.852 128.187 115.857 129.147C118.094 130.086 120.145 131.415 121.916 133.073C122.741 133.847 123.712 134.448 124.773 134.84C125.834 135.232 126.963 135.407 128.093 135.355C129.223 135.303 130.331 135.025 131.351 134.537C132.372 134.05 133.284 133.362 134.034 132.516C137.912 128.396 137.258 124.954 134.083 121.682Z" fill="#FBBEAA"/>
<path d="M103.081 103.529C103.075 103.569 103.076 103.61 103.086 103.649C103.096 103.689 103.114 103.726 103.139 103.758C103.165 103.79 103.196 103.816 103.232 103.835C103.268 103.854 103.307 103.865 103.348 103.868L105.335 104.062H106.305C106.644 104.062 106.959 104.183 107.299 104.208C107.657 104.315 108.006 104.453 108.341 104.62L109.456 105.08C110.958 105.686 112.461 106.243 113.576 106.655C114.691 107.067 115.466 107.31 115.466 107.31C115.528 107.336 115.597 107.338 115.66 107.315C115.722 107.293 115.775 107.248 115.806 107.189C115.851 107.129 115.875 107.057 115.875 106.983C115.875 106.908 115.851 106.836 115.806 106.777L113.988 105.831L112.097 104.935C111.419 104.62 110.668 104.304 109.916 104.014L108.777 103.577C108.411 103.412 108.029 103.282 107.638 103.19L106.475 103.068H105.481H104.002H103.445C103.384 103.02 103.306 102.998 103.229 103.007C103.152 103.016 103.081 103.056 103.033 103.117C102.985 103.178 102.963 103.256 102.972 103.333C102.981 103.41 103.02 103.481 103.081 103.529ZM103.542 109.37H103.978C104.341 109.337 104.706 109.337 105.069 109.37L105.82 109.491C106.097 109.526 106.372 109.574 106.644 109.637L108.292 110.17C109.407 110.533 110.498 110.994 111.322 111.333C111.322 111.333 111.589 111.333 111.564 111.454H111.855L112.291 111.575H112.558H112.703C112.777 111.593 112.84 111.638 112.881 111.701C112.922 111.764 112.936 111.841 112.922 111.915C112.911 111.973 112.881 112.026 112.838 112.065C112.794 112.105 112.738 112.128 112.679 112.133H111.443H111.055C110.207 111.915 109.068 111.575 107.953 111.188L106.329 110.582L105.578 110.388L104.923 110.194C104.589 110.095 104.249 110.014 103.906 109.952L103.493 109.83C103.457 109.819 103.423 109.801 103.393 109.777C103.364 109.753 103.339 109.723 103.321 109.689C103.303 109.655 103.292 109.618 103.288 109.58C103.285 109.542 103.288 109.503 103.3 109.467C103.328 109.431 103.366 109.404 103.408 109.387C103.451 109.37 103.497 109.364 103.542 109.37ZM103.542 116.253H104.439C104.681 116.253 104.996 116.253 105.311 116.423L106.305 116.738C106.93 116.958 107.538 117.225 108.123 117.538C108.392 117.664 108.651 117.81 108.898 117.974C108.948 118.031 108.975 118.104 108.975 118.18C108.975 118.256 108.948 118.329 108.898 118.386C108.829 118.46 108.733 118.503 108.632 118.507L107.735 118.362C107.226 118.241 106.572 118.047 105.917 117.828L104.972 117.441L104.148 117.126C103.874 117.004 103.606 116.866 103.348 116.714C103.279 116.673 103.229 116.608 103.206 116.531C103.184 116.455 103.191 116.373 103.227 116.302C103.299 116.256 103.385 116.238 103.469 116.253H103.542Z" fill="#F18380"/>
<path d="M156.306 220.277C155.773 213.563 148.575 187.824 140.843 173.161C140.843 173.161 123.43 172.266 112.569 172.301C101.237 172.338 84.1781 173.161 84.1781 173.161C79.1368 184.577 73.3928 209.516 71.7205 214.896C70.7109 218.062 70.5883 221.444 71.366 224.674C72.1437 227.905 73.7919 230.86 76.1316 233.219C81.8756 239.739 96.6841 247.204 100.102 247.204C114.804 245.104 129.215 241.314 143.049 235.91C150.853 232.638 156.815 227.015 156.306 220.277Z" fill="#93929C"/>
<path d="M133.279 118.674L138.191 123.209L124.965 139.08L121.186 134.545L133.279 118.674Z" fill="#6B6B6B"/>
<path d="M99.4087 80.6809C110.355 90.0634 121.236 84.5903 124.82 79.7036L140.457 86.545L136.548 158.869L84.7485 160.823L86.7032 91.4317L99.4087 80.6809Z" fill="white"/>
<path d="M86.5496 80.2484C88.6411 78.8801 100.467 77.7291 100.467 77.7291V180.82C98.9659 182.283 98.6588 182.248 96.5023 182.004L96.4017 181.993C91.7399 180.822 87.242 179.076 83.0121 176.793C83.0121 176.793 76.1739 137.034 75.5271 111.529C75.2523 100.693 79.9957 93.833 80.8894 90.9731C82.3789 86.2066 84.4581 81.6167 86.5496 80.2484Z" fill="#023783"/>
<path d="M121.371 181.968C120.421 181.766 119.521 181.376 118.724 180.82L124.041 76.6736C124.041 76.6736 140.854 76.6431 144.939 78.461C146.637 79.1773 148.295 80.2163 149.335 81.738C150.375 83.2597 149.953 91.5139 150.004 93.3563C150.258 96.7966 149.941 173.001 149.999 173.666C150.058 174.33 149.491 174.702 148.885 175.053C148.279 175.405 129.123 180.996 124.256 181.993C123.303 182.178 122.322 182.169 121.371 181.968Z" fill="#023783"/>
<circle cx="1.78744" cy="1.78744" r="1.78744" transform="matrix(-1 0 0 1 98.8644 112.422)" fill="#90A2B7"/>
<path d="M132.735 121.173C128.693 117.085 121.133 108.27 118.576 106.123C116.047 104.218 113.283 102.644 110.354 101.442C108.132 100.697 105.834 100.199 103.503 99.9572C101.882 99.7516 101.219 100.231 101.219 101.213C101.26 101.798 101.446 102.364 101.762 102.858C102.077 103.353 102.51 103.761 103.023 104.045H100.032C99.0041 104.045 98.3418 104.867 98.8214 106.192C99.2569 107.067 99.8796 107.836 100.645 108.443C101.411 109.051 102.301 109.483 103.252 109.709C103.252 109.709 99.2096 110.097 98.1819 110.302C97.1542 110.508 96.8345 110.896 96.8345 111.878C96.8434 112.557 97.0319 113.22 97.3809 113.802C97.7299 114.384 98.227 114.863 98.8214 115.19C100.276 115.78 101.821 116.12 103.389 116.195C103.389 116.195 98.3874 117.451 97.3826 117.816C96.3778 118.181 96.2635 118.844 96.7888 119.711C97.0881 120.323 97.5203 120.859 98.0537 121.282C98.5872 121.705 99.2084 122.003 99.8719 122.155C101.767 122.657 103.046 121.835 103.731 121.95C105.203 122.424 106.645 122.988 108.048 123.639C110.154 125.737 112.73 127.302 115.561 128.207C117.669 129.091 119.602 130.344 121.27 131.907C122.048 132.636 122.963 133.202 123.963 133.571C124.963 133.94 126.026 134.106 127.091 134.057C128.155 134.008 129.199 133.746 130.161 133.286C131.123 132.827 131.982 132.179 132.689 131.381C136.343 127.499 135.726 124.256 132.735 121.173Z" fill="#FBBEAA"/>
<path d="M103.526 104.068C103.519 104.106 103.521 104.144 103.53 104.181C103.54 104.219 103.557 104.253 103.58 104.283C103.604 104.314 103.634 104.338 103.668 104.356C103.702 104.374 103.739 104.385 103.777 104.387L105.65 104.57H106.563C106.883 104.57 107.18 104.684 107.5 104.707C107.837 104.809 108.166 104.938 108.482 105.095L109.532 105.529C110.948 106.1 112.364 106.626 113.414 107.014C114.465 107.402 115.196 107.63 115.196 107.63C115.254 107.655 115.319 107.657 115.378 107.635C115.437 107.614 115.486 107.572 115.515 107.516C115.558 107.46 115.581 107.392 115.581 107.322C115.581 107.252 115.558 107.184 115.515 107.128L113.803 106.237L112.021 105.392C111.382 105.095 110.674 104.799 109.966 104.524L108.893 104.113C108.547 103.957 108.188 103.835 107.819 103.748L106.723 103.634H105.787H104.394H103.868C103.811 103.588 103.738 103.568 103.665 103.576C103.592 103.585 103.526 103.622 103.48 103.68C103.435 103.737 103.414 103.81 103.423 103.883C103.431 103.956 103.468 104.022 103.526 104.068ZM103.96 109.572H104.371C104.713 109.541 105.057 109.541 105.399 109.572L106.106 109.686C106.367 109.718 106.627 109.764 106.883 109.823L108.436 110.325C109.486 110.668 110.514 111.102 111.291 111.421C111.291 111.421 111.542 111.421 111.519 111.536H111.793L112.204 111.65H112.455H112.592C112.661 111.666 112.721 111.709 112.759 111.768C112.798 111.828 112.812 111.9 112.798 111.969C112.788 112.024 112.76 112.074 112.719 112.111C112.677 112.148 112.625 112.171 112.569 112.175H111.405H111.039C110.24 111.969 109.167 111.65 108.116 111.284L106.586 110.713L105.878 110.531L105.262 110.348C104.946 110.255 104.626 110.178 104.302 110.12L103.914 110.005C103.88 109.995 103.847 109.978 103.82 109.955C103.792 109.932 103.769 109.904 103.752 109.872C103.735 109.84 103.724 109.805 103.721 109.77C103.717 109.734 103.721 109.697 103.731 109.663C103.758 109.629 103.794 109.603 103.834 109.587C103.874 109.571 103.917 109.566 103.96 109.572ZM103.96 116.057H104.805C105.033 116.057 105.33 116.057 105.627 116.217L106.563 116.514C107.152 116.722 107.725 116.974 108.276 117.268C108.529 117.387 108.774 117.524 109.007 117.679C109.053 117.733 109.079 117.802 109.079 117.873C109.079 117.944 109.053 118.013 109.007 118.067C108.941 118.137 108.851 118.177 108.756 118.181L107.911 118.044C107.431 117.93 106.814 117.747 106.198 117.542L105.307 117.176L104.531 116.879C104.272 116.765 104.021 116.635 103.777 116.491C103.712 116.453 103.665 116.392 103.644 116.32C103.622 116.248 103.629 116.17 103.663 116.103C103.731 116.06 103.812 116.043 103.891 116.057H103.96Z" fill="#F18380"/>
<path d="M121.521 134.647L158.837 180.309C163.513 186.54 174.438 189.965 181.114 184.191C182.348 183.11 183.35 181.789 184.059 180.309C184.767 178.828 185.168 177.219 185.236 175.58C185.304 173.94 185.038 172.303 184.455 170.769C183.872 169.235 181.278 164.068 180.137 162.887L133.377 118.972L121.521 134.647Z" fill="#90A2B7"/>
<path d="M133.524 118.852L138.706 123.508L125.383 139.377L120.311 133.92L133.524 118.852Z" fill="#023783"/>
<circle cx="1.78744" cy="1.78744" r="1.78744" transform="matrix(-1 0 0 1 98.8641 124.934)" fill="#90A2B7"/>
<circle cx="1.78744" cy="1.78744" r="1.78744" transform="matrix(-1 0 0 1 98.8641 136.851)" fill="#90A2B7"/>
<path d="M85.766 100.145L86.2969 100.174L86.2599 100.86L86.8264 100.891L86.8633 100.204L87.3942 100.233L87.2932 102.109L86.7624 102.081L86.8023 101.337L86.2358 101.307L86.1958 102.05L85.665 102.021L85.766 100.145L85.766 100.145ZM89.2885 100.335L89.1875 102.211L88.6746 102.183L88.7516 100.752L88.4156 100.734L88.3866 101.272C88.3736 101.514 88.3397 101.81 88.1895 101.969C88.0383 102.147 87.7691 102.189 87.4718 102.117L87.4968 101.652C87.7763 101.723 87.8538 101.614 87.8738 101.243L87.9268 100.258L89.2887 100.331L89.2885 100.335ZM89.7317 100.358L90.2625 100.387L90.5028 101.518L90.863 100.419L91.3939 100.448L91.5413 102.338L91.0462 102.311L90.9768 101.301L90.6387 102.289L90.2848 102.27L90.0564 101.251L89.879 102.248L89.3839 102.221L89.7316 100.358L89.7317 100.358ZM91.837 100.472L92.3678 100.5L92.3268 101.262L92.8807 100.528L93.4651 100.559L92.7432 101.452L93.3821 102.437L92.7458 102.402L92.3095 101.615L92.2685 102.377L91.7377 102.348L91.8386 100.472L91.8371 100.472L91.837 100.472ZM89.6611 98.3411C86.4762 98.1698 84.3042 99.2648 84.2083 101.047C84.1133 102.813 86.1528 104.152 89.3392 104.323C92.5419 104.495 94.6971 103.381 94.792 101.617C94.8879 99.8342 92.8653 98.5135 89.6611 98.3411ZM89.3542 104.045C86.3625 103.884 84.4232 102.681 84.5103 101.064C84.5982 99.4292 86.6561 98.4581 89.6461 98.6189C92.6541 98.7808 94.5797 99.9646 94.4916 101.601C94.4046 103.218 92.3637 104.207 89.3542 104.045ZM89.6321 98.8797C86.819 98.7283 84.8896 99.6125 84.8106 101.08C84.7317 102.547 86.5551 103.633 89.3682 103.785C92.1813 103.936 94.1108 103.052 94.1897 101.584C94.2703 100.117 92.4469 99.0311 89.6321 98.8797ZM89.3711 103.73C86.5921 103.581 84.7872 102.514 84.8641 101.084C84.941 99.6545 86.8516 98.7882 89.629 98.9376C92.4064 99.0871 94.213 100.153 94.136 101.583C94.0608 103.013 92.1501 103.88 89.3711 103.73L89.3711 103.73Z" fill="white"/>
</svg>
