<svg width="376" height="678" viewBox="0 0 376 678" fill="none" xmlns="http://www.w3.org/2000/svg">
<path d="M-127.484 618.948C-105.747 735.298 66.0597 812.09 314.778 812.09C569.941 812.09 744.138 731.273 758.425 609.855C659.804 672.786 502.429 709.782 307.991 709.782C123.114 709.77 -28.2685 676.332 -127.484 618.948ZM435.427 341.431C435.427 170.883 310.527 30.0349 94.5983 -63.9775C465.163 -17.632 699.303 134.075 699.303 341.434C699.303 548.794 465.163 700.49 94.5983 746.847C310.523 652.834 435.427 511.986 435.427 341.431ZM286.266 248.908C286.266 78.3567 161.366 -62.4876 -54.5628 -156.5C316.006 -110.155 550.146 41.5523 550.146 248.908C550.146 456.264 315.986 607.967 -54.582 654.32C161.347 560.308 286.266 419.463 286.266 248.908Z" stroke="#518A92" stroke-width="0.5" stroke-miterlimit="10"/>
</svg>
