<svg width="375" height="667" viewBox="0 0 375 667" fill="none" xmlns="http://www.w3.org/2000/svg">
    <g clip-path="url(#clip0_586_7609)">
        <rect width="375" height="667" fill="url(#paint0_linear_586_7609)"/>
        <path d="M-272.187 127.344C-360.082 206.618 -335.9 393.245 -206.071 605.39C-72.8787 823.032 86.9838 929.428 198.004 878.235C92.8488 826.965 -20.855 712.043 -122.35 546.197C-218.844 388.5 -269.344 241.924 -272.187 127.344ZM258.356 462.618C403.825 373.594 458.765 193.539 426.24 -39.7115C580.141 300.554 572.961 579.454 396.093 687.693C219.226 795.933 -32.382 675.406 -265.353 383.531C-72.4545 518.631 112.881 551.646 258.356 462.618ZM259.413 287.095C404.885 198.069 459.821 18.0159 427.297 -215.235C581.199 125.034 574.02 403.934 397.155 512.172C220.291 620.409 -31.3336 499.87 -264.304 207.989C-71.4028 343.093 113.937 376.123 259.413 287.095Z" stroke="white" stroke-width="0.5" stroke-miterlimit="10"/>
    </g>
    <defs>
        <linearGradient id="paint0_linear_586_7609" x1="187.5" y1="0" x2="187.5" y2="667" gradientUnits="userSpaceOnUse">
            <stop stop-color="#003399"/>
            <stop offset="1" stop-color="#039CFD"/>
        </linearGradient>
        <clipPath id="clip0_586_7609">
            <rect width="375" height="667" fill="white"/>
        </clipPath>
    </defs>
</svg>
